<svg version="1.1" xmlns="http://www.w3.org/2000/svg" xmlns:xlink="http://www.w3.org/1999/xlink" width="20.57072" height="41.77674" viewBox="0,0,20.57072,41.77674"><g transform="translate(-237.74908,-151.60569)"><g data-paper-data="{&quot;isPaintingLayer&quot;:true}" fill-rule="nonzero" stroke-linejoin="miter" stroke-miterlimit="10" stroke-dasharray="" stroke-dashoffset="0" style="mix-blend-mode: normal"><g data-paper-data="{&quot;index&quot;:null}" stroke="none" stroke-width="0" stroke-linecap="butt"><path d="M243.23834,177.38373c0.7928,-1.06596 -0.3294,4.30128 -0.02926,4.84829c-1.38516,0.99113 -1.71391,0.91139 -2.66572,0.86139c-0.83674,1.0637 -1.85994,-4.81779 -1.01196,-7.56001c1.57688,-3.81549 3.16186,-7.14955 5.01496,-3.76849c1.03775,2.18936 -1.30803,5.61887 -1.30803,5.61887z" data-paper-data="{&quot;origRot&quot;:0}" fill="#1fff00"/><g data-paper-data="{&quot;origPos&quot;:null,&quot;origRot&quot;:0}" fill="#ffffff"><path d="M238.86883,184.73792c0.23708,-1.5792 0.06974,-2.7804 3.53634,-2.71239c2.96087,0.05809 2.91489,1.42715 2.67782,3.00635c-0.13335,0.88821 -0.58867,2.02589 -1.40236,2.40969c-0.45031,0.21239 -1.52791,-0.41632 -1.05111,-0.45392c0.67814,-0.05348 -0.68289,0.67958 -1.02286,0.66349c0,0 -1.26997,-0.49358 -0.94392,-0.49667c0.31685,-0.00305 -0.6398,0.43565 -0.99311,0.16008c-0.77279,-0.6028 -1.03788,-0.99746 -0.8008,-2.57666z" data-paper-data="{&quot;origPos&quot;:null,&quot;origRot&quot;:0}"/><path d="M239.66059,187.12711c0.07505,-0.50008 0.54506,-0.88613 1.04976,-0.86224c0.50471,0.0239 0.85298,0.44863 0.77793,0.94871c-0.07507,0.5001 -0.54506,0.8861 -1.04977,0.86225c-0.50472,-0.02388 -0.85297,-0.44863 -0.77791,-0.9487z" data-paper-data="{&quot;origPos&quot;:null,&quot;origRot&quot;:0}"/></g></g><path d="M243.00402,177.40473c0.02856,-6.99018 1.901,-7.61997 6.22695,-7.61997c4.32596,0 5.68403,2.00974 5.62398,8.1181c-0.06871,6.98995 -1.29803,7.61997 -5.62398,7.61997c-4.32596,0 -6.25294,-1.75786 -6.22695,-8.11811z" data-paper-data="{&quot;origPos&quot;:null,&quot;index&quot;:null}" fill="#1fff00" stroke="none" stroke-width="NaN" stroke-linecap="butt"/><path d="M243.72628,176.9619c0.10795,-2.01147 0.42601,-5.04303 0.43832,-6.52512c0.26933,-1.27708 1.49238,-0.32599 1.49238,-0.32599c0.0368,1.36306 0.11845,4.90351 0.15634,6.75907c1.24184,0.09253 2.79419,0.09703 2.79419,0.09703c0.07399,-3.31826 0.5583,-5.16404 0.60842,-7.20895c0.02731,-1.11439 0.57829,-0.18051 1.69839,-0.04367c0.03596,1.57559 0.15848,5.0241 0.25372,7.2279c1.81943,-0.36036 3.95275,-1.54341 3.93263,0.50321c-0.03072,3.12538 0.56204,2.44747 -0.01397,6.24925c-0.35259,2.02677 -3.53742,2.13321 -5.84662,1.90816c-8.30576,-0.80947 -6.59689,-2.24222 -6.5709,-8.60247z" data-paper-data="{&quot;origPos&quot;:null,&quot;index&quot;:null}" fill="#003aa6" stroke="none" stroke-width="NaN" stroke-linecap="butt"/><path d="M250.11061,178.80416c-0.58933,0 -1.06708,-0.42605 -1.06708,-0.95162c0,-0.52557 0.47775,-0.95163 1.06708,-0.95163c0.58933,0 1.06707,0.42606 1.06707,0.95163c0,0.52557 -0.47774,0.95162 -1.06707,0.95162z" data-paper-data="{&quot;index&quot;:null}" fill="#c7b53e" stroke="none" stroke-width="0" stroke-linecap="butt"/><path d="M244.98282,179.02953c-0.58933,0 -1.06708,-0.42605 -1.06708,-0.95162c0,-0.52557 0.47775,-0.95163 1.06708,-0.95163c0.58933,0 1.06707,0.42606 1.06707,0.95163c0,0.52557 -0.47774,0.95162 -1.06707,0.95162z" data-paper-data="{&quot;index&quot;:null}" fill="#c7b53e" stroke="none" stroke-width="0" stroke-linecap="butt"/><g data-paper-data="{&quot;origPos&quot;:null,&quot;index&quot;:null}" stroke="none" stroke-width="0" stroke-linecap="butt"><path d="M244.69665,190.32822c2.26887,0 4.6177,-1.10854 4.49031,0.96791c-0.06256,1.01963 -0.05625,1.42401 -2.32477,1.45189c-6.2178,0.43995 -6.52847,-0.47534 -6.52847,-1.49588c0,-1.85647 2.09406,-0.92392 4.36293,-0.92392z" data-paper-data="{&quot;origPos&quot;:null}" fill="#8e4108"/><path d="M243.39094,188.61233c0,-2.45416 -0.396,-7.90084 2.56488,-6.2947c3.67257,-0.06162 2.59421,3.1366 2.59421,5.59076c0,2.45416 2.25781,2.41209 -2.16554,2.5518c-4.70918,0.14874 -2.99354,0.6063 -2.99354,-1.84785z" data-paper-data="{&quot;origPos&quot;:null}" fill="#003aa6"/><path d="M240.57535,192.09851c1.24565,0.30575 3.99087,0.38001 3.99087,0.38001c2.64926,0.03279 4.12026,-0.30075 4.12026,-0.30075c0.46534,-0.05029 -0.01393,0.28401 -0.10343,0.53838c-0.08829,0.25093 -3.42794,0.36389 -3.96435,0.40777c-0.53827,0.04402 -4.2405,-0.36541 -4.24259,-0.5854c-0.00514,-0.53959 -0.02071,-0.42354 0.19924,-0.44001z" data-paper-data="{&quot;origPos&quot;:null,&quot;origRot&quot;:0}" fill="#f9c869"/></g><g data-paper-data="{&quot;origPos&quot;:null,&quot;index&quot;:null}" stroke="none" stroke-width="0" stroke-linecap="butt"><g data-paper-data="{&quot;origPos&quot;:null}"><path d="M245.89282,191.64613c0,-1.83626 2.07125,-0.91386 4.31542,-0.91386c2.24417,0 4.56742,-1.09646 4.44142,0.95738c-0.06187,1.00852 -0.05563,1.40849 -2.29945,1.43607c-6.1501,0.43517 -6.45738,-0.47016 -6.45738,-1.47959z" data-paper-data="{&quot;origPos&quot;:null}" fill="#8e4108"/><path d="M248.91678,188.42583c0,-2.42743 0.0323,-5.67928 3.90593,-5.74429c3.63257,-0.06096 1.00797,3.31685 1.00797,5.74429c0,2.42743 2.54821,2.21177 -1.82697,2.34995c-4.65791,0.14712 -3.08694,0.07749 -3.08694,-2.34995z" data-paper-data="{&quot;origPos&quot;:null}" fill="#003aa6"/></g><path d="M246.34997,192.35373c1.24565,0.30575 3.99086,0.38002 3.99086,0.38002c2.64926,0.03278 4.12027,-0.30076 4.12027,-0.30076c0.46534,-0.05029 -0.01394,0.28401 -0.10344,0.53838c-0.08829,0.25094 -3.42794,0.3639 -3.96435,0.40778c-0.53826,0.04402 -4.2405,-0.36541 -4.24259,-0.5854c-0.00513,-0.53959 -0.0207,-0.42355 0.19925,-0.44002z" data-paper-data="{&quot;origPos&quot;:null,&quot;origRot&quot;:0}" fill="#f9c869"/></g><g data-paper-data="{&quot;index&quot;:null}" stroke="none" stroke-width="0" stroke-linecap="butt"><path d="M253.0267,177.38953c0,0 -2.6838,-3.17199 -1.87508,-5.45589c1.4981,-3.55264 3.41531,-0.39789 5.37364,3.2366c1.12362,2.64128 0.70647,8.59651 -0.23453,7.62383c-0.94172,0.14695 -1.26062,0.25985 -2.73977,-0.58463c0.24271,-0.5748 -1.4218,-5.79935 -0.52427,-4.81994z" data-paper-data="{&quot;origRot&quot;:0}" fill="#1fff00"/><g data-paper-data="{&quot;origPos&quot;:null,&quot;origRot&quot;:0}" fill="#ffffff"><path d="M258.12445,184.25893c0.39712,1.54672 0.17373,1.9664 -0.53345,2.64497c-0.32332,0.3102 -1.31976,-0.02849 -1.00427,-0.05782c0.32468,-0.03023 -0.88825,0.59047 -0.88825,0.59047c-0.33655,0.05072 -1.76533,-0.5395 -1.08527,-0.55556c0.47814,-0.01129 -0.52961,0.7242 -0.99926,0.55891c-0.84861,-0.29869 -1.41777,-1.38391 -1.64113,-2.25386c-0.39712,-1.54672 -0.58268,-2.90394 2.35677,-3.26413c3.44153,-0.4217 3.39774,0.79031 3.79487,2.33704z" data-paper-data="{&quot;origPos&quot;:null,&quot;origRot&quot;:0}"/><path d="M257.58085,186.71653c0.12574,0.48978 -0.17731,0.94789 -0.67695,1.02319c-0.49964,0.0753 -1.0066,-0.26071 -1.13234,-0.75052c-0.12573,-0.48979 0.17733,-0.94789 0.67696,-1.0232c0.49962,-0.07531 1.00659,0.26072 1.13233,0.75051z" data-paper-data="{&quot;origPos&quot;:null,&quot;origRot&quot;:0}"/></g></g><g><path d="M253.67906,167.6741c-0.21488,-0.50428 0.37586,-1.18538 1.04059,-1.46864c0.66474,-0.28327 0.9777,-0.64985 1.19258,-0.14556c0.21488,0.50429 -0.20181,1.77381 -0.86654,2.05707c-0.66473,0.28326 -1.15177,0.06141 -1.36666,-0.44288z" data-paper-data="{&quot;origRot&quot;:0,&quot;origPos&quot;:null}" fill="#594537" stroke="none" stroke-width="0" stroke-linecap="butt"/><path d="M241.28871,160.57071c0.04527,-4.16195 5.69302,-1.96223 9.92631,-1.9162c4.2333,0.04605 4.1909,2.73083 4.14562,6.89277c-0.04136,3.80292 -6.39122,6.2262 -6.48831,6.22712c-4.89594,0.24736 -6.71506,-1.36965 -7.96749,-3.96122c-0.74263,-3.28055 0.35139,-4.2551 0.38389,-7.24248z" data-paper-data="{&quot;origPos&quot;:null}" fill="#ffdebd" stroke="none" stroke-width="0" stroke-linecap="butt"/><path d="M250.30561,164.183c0.34108,-1.46835 0.2941,-2.55611 0.85547,-3.28848c0.43651,-0.56947 1.64631,0.22869 1.64631,0.22869c0.86159,0.20015 -0.72884,2.17926 -0.59873,3.68109c0.11202,1.29281 -0.09065,1.83299 -0.95223,1.63287c-0.25477,-0.05918 -0.7926,-0.76421 -0.55506,-0.65477c0.4501,0.20739 -0.83153,0.2243 -0.97019,-0.12647c-0.29518,-0.74672 0.39273,-0.6908 0.57441,-1.47292z" data-paper-data="{&quot;origRot&quot;:0,&quot;origPos&quot;:null}" fill="#594537" stroke="none" stroke-width="0" stroke-linecap="butt"/><path d="M252.45946,163.40751c0.01574,-1.44849 0.87291,-2.61352 1.91452,-2.6022c1.04162,0.01133 1.87324,1.19473 1.8575,2.64323c-0.01575,1.44849 -0.87292,2.61355 -1.91454,2.60222c-0.53373,-0.00579 -1.54956,-0.06256 -1.77284,-0.54737c-0.32474,-0.70512 -0.09398,-1.23816 -0.08465,-2.09586z" data-paper-data="{&quot;origPos&quot;:null}" fill="#ffdec6" stroke="none" stroke-width="0" stroke-linecap="butt"/><path d="M255.27791,164.41079c0,0 -0.41878,0.4674 -0.7225,0.57755c-0.25057,0.09086 -0.69779,-0.06249 -0.69779,-0.06249" data-paper-data="{&quot;origPos&quot;:null}" fill="none" stroke="#f6b09a" stroke-width="0.5" stroke-linecap="round"/><path d="M241.31464,160.36988c0.89556,0.20022 1.10428,0.89896 1.09238,1.99295c-0.01191,1.09397 -0.41708,1.97653 -0.90501,1.97122c-0.48794,-0.00531 -0.87382,-0.89645 -0.86192,-1.99043c0.0119,-1.09397 0.1926,-2.08149 0.67454,-1.97373z" data-paper-data="{&quot;origPos&quot;:null,&quot;index&quot;:null}" fill="#ffffff" stroke="none" stroke-width="0" stroke-linecap="butt"/><path d="M241.27484,161.15556c0.31114,0.00338 0.55556,0.7235 0.54593,1.60844c-0.00962,0.88494 -0.26966,1.59954 -0.5808,1.59616c-0.31112,-0.00339 -0.55556,-0.72347 -0.54594,-1.60841c0.00963,-0.88494 0.26967,-1.59957 0.5808,-1.59619z" data-paper-data="{&quot;origPos&quot;:null,&quot;index&quot;:null}" fill="#000000" stroke="none" stroke-width="NaN" stroke-linecap="butt"/><path d="M243.2666,163.26501c0.0137,-1.2596 0.36951,-2.05762 1.81229,-2.26125c0.77638,-0.10957 1.03671,1.03249 1.02301,2.29209c-0.0137,1.2596 -0.65949,2.2738 -1.44244,2.26527c-0.78295,-0.00852 -1.40654,-1.03653 -1.39285,-2.29612z" data-paper-data="{&quot;origPos&quot;:null}" fill="#ffffff" stroke="none" stroke-width="0" stroke-linecap="butt"/><path d="M243.51514,166.7476c-0.02023,1.85992 2.66745,4.45214 1.41258,4.43849c-4.18784,-0.04555 -5.46523,-1.74462 -6.11288,-3.19099c-0.21589,-0.48211 -0.32431,-1.9101 -0.31856,-2.43833c0.02995,-2.75257 0.98143,-2.51325 2.78333,-2.20157c1.90339,0.32922 2.25578,1.53247 2.23554,3.3924z" data-paper-data="{&quot;origPos&quot;:null}" fill="#ffdebd" stroke="none" stroke-width="0" stroke-linecap="butt"/><path d="M243.31105,163.59707c0.00933,-0.85869 0.36601,-1.55102 0.79665,-1.54633c0.43064,0.00469 0.77217,0.70461 0.76283,1.5633c-0.00933,0.85869 -0.36601,1.55102 -0.79665,1.54633c-0.43064,-0.00469 -0.77218,-0.7046 -0.76283,-1.56328z" data-paper-data="{&quot;origPos&quot;:null}" fill="#000000" stroke="none" stroke-width="NaN" stroke-linecap="butt"/><path d="M240.46754,168.50228c0.84199,-0.49857 2.74802,-0.39001 3.84406,-0.7363c1.65141,-0.52175 3.19046,-0.95109 3.19046,-0.95109c0.04692,1.19704 -0.28807,3.31021 -0.98862,3.31261c-0.31436,0.00107 -1.22329,-0.49327 -0.90936,-0.51695c0.43567,-0.03286 -0.79264,1.00161 -1.22081,0.94646c-0.34321,-0.0442 -1.67295,-0.90054 -1.32792,-0.91192c0.4149,-0.01366 -1.10364,0.69555 -1.53904,0.59431c-0.59526,-0.13841 -2.18489,-1.19332 -1.58832,-1.06474c1.11258,0.23977 -1.00352,0.41785 -1.61527,0.0132c-0.95945,-0.63463 -0.56431,-0.90207 0.21995,-1.87563z" data-paper-data="{&quot;origRot&quot;:0}" fill="#594537" stroke="none" stroke-width="0" stroke-linecap="butt"/><g stroke="none" stroke-width="0" stroke-linecap="butt"><path d="M240.84705,157.06283c-0.85415,-1.86145 -2.06285,-5.01638 3.69164,-5.45714c5.65628,1.20157 9.75195,6.77412 7.29787,6.60821c-0.46857,-1.6423 6.06921,-2.04107 4.38039,1.65947c0.40188,3.10853 -7.71155,0.9315 -7.91101,0.89426c-3.97884,-0.74284 -8.04703,-0.88266 -7.69959,-2.74365z" data-paper-data="{&quot;origPos&quot;:null}" fill="#1fff00"/><path d="M238.53234,158.35607c0.15647,-0.83814 2.20025,-1.65563 5.37193,-1.06349c3.17168,0.59214 6.65228,1.69709 6.4958,2.53523c-0.15648,0.83814 -0.14258,1.62651 -3.31426,1.03437c-3.17168,-0.59214 -8.70997,-1.66798 -8.55348,-2.50612z" data-paper-data="{&quot;origPos&quot;:null}" fill="#18cd00"/></g><path d="M246.49329,160.78256c0.00589,0.58264 -1.50618,-0.47172 -1.50618,-0.47172c0,0 -1.56586,1.65358 -1.57175,1.07094c-0.00589,-0.58264 1.31598,-2.28573 1.31598,-2.28573c0,0 1.75605,1.10386 1.76194,1.68649z" data-paper-data="{&quot;origPos&quot;:null,&quot;index&quot;:null}" fill="#000001" stroke="none" stroke-width="0" stroke-linecap="butt"/><path d="M241.47249,158.61861c0,0 0.94222,1.69999 0.9359,2.28261c-0.00634,0.58262 -1.12379,-1.06729 -1.12379,-1.06729c0,0 -1.08869,1.05781 -1.08235,0.47518c0.00634,-0.58263 -0.17874,-1.82163 1.27024,-1.69051z" data-paper-data="{&quot;origPos&quot;:null,&quot;index&quot;:null}" fill="#000001" stroke="none" stroke-width="0" stroke-linecap="butt"/></g></g></g></svg>