<svg version="1.1" xmlns="http://www.w3.org/2000/svg" xmlns:xlink="http://www.w3.org/1999/xlink" width="26.19529" height="38.82196" viewBox="0,0,26.19529,38.82196"><g transform="translate(-233.04901,-154.56047)"><g data-paper-data="{&quot;isPaintingLayer&quot;:true}" fill="none" fill-rule="nonzero" stroke="none" stroke-width="none" stroke-linecap="none" stroke-linejoin="miter" stroke-miterlimit="10" stroke-dasharray="" stroke-dashoffset="0" font-family="none" font-weight="none" font-size="none" text-anchor="none" style="mix-blend-mode: normal"><path d="M249.09247,171.07485c-1.12609,0.70475 2.7035,-2.90394 2.62277,-3.52263c1.65073,-0.41971 2.36344,1.74582 3.42004,1.12367c1.16619,-0.68669 -1.24808,5.66814 -4.39195,5.7968c-2.91627,0.7868 -6.06853,3.49489 -6.56554,-0.32853c-0.17075,-2.41683 5.57977,-3.22445 5.27051,-3.03093z" data-paper-data="{&quot;origPos&quot;:null,&quot;origRot&quot;:0,&quot;index&quot;:null}" fill="#ff0021" stroke="none" stroke-width="0" stroke-linecap="butt"/><path d="M257.59927,167.74129c-2.24951,1.26569 -1.20274,3.26612 -4.2787,2.27893c-2.62722,-0.84316 -3.33012,-1.14212 -2.27766,-4.29546c0.1008,-0.37823 0.58967,-5.47003 2.30051,-4.29993c0.26305,0.17991 -0.47218,3.22021 -0.70479,3.43804c-0.46674,0.43709 0.57736,-3.27834 1.55829,-3.1523c0.79252,0.31658 0.37886,3.69372 -0.04868,3.60018c-0.19376,-0.13303 0.7239,-4.12276 1.94547,-2.86647c0,0 -0.35086,3.51015 -0.64107,3.42587c-0.28202,-0.08191 1.14743,-3.68456 1.80354,-3.11199c1.27406,0.79492 -1.27477,3.67137 -1.63663,5.02914c0,0 1.58404,-3.04215 2.55304,-2.88694c1.18677,0.19009 -0.57331,2.84092 -0.57331,2.84092z" data-paper-data="{&quot;origPos&quot;:null,&quot;origRot&quot;:0}" fill="#ffffff" stroke="none" stroke-width="0" stroke-linecap="butt"/><path d="M245.38451,177.40473c0.02599,6.36025 -1.90099,8.11811 -6.22695,8.11811c-4.32595,0 -5.55527,-0.63002 -5.62398,-7.61997c-0.06005,-6.10836 1.29802,-8.1181 5.62398,-8.1181c4.32595,0 6.19839,0.62979 6.22695,7.61997z" data-paper-data="{&quot;origPos&quot;:null}" fill="#ff0021" stroke="none" stroke-width="NaN" stroke-linecap="butt"/><path d="M245.71935,177.00033c0.02599,6.36025 1.73486,7.793 -6.5709,8.60247c-2.3092,0.22505 -5.49403,0.11861 -5.84662,-1.90816c-0.57601,-3.80178 0.01675,-3.12387 -0.01397,-6.24925c-0.02012,-2.04662 2.1132,-0.86357 3.93263,-0.50321c0.09524,-2.2038 0.21776,-5.65231 0.25372,-7.2279c1.1201,-0.13684 1.67108,-1.07072 1.69839,0.04367c0.05012,2.04491 0.53443,3.89069 0.60842,7.20895c0,0 1.55235,-0.0045 2.79419,-0.09703c0.03789,-1.85556 0.11954,-5.39601 0.15634,-6.75907c0,0 1.22305,-0.95109 1.49238,0.32599c0.01231,1.48209 0.33037,4.51365 0.43832,6.52512z" data-paper-data="{&quot;origPos&quot;:null}" fill="#0052ef" stroke="none" stroke-width="NaN" stroke-linecap="butt"/><path d="M235.91046,177.85255c0,-0.52557 0.47774,-0.95163 1.06707,-0.95163c0.58933,0 1.06708,0.42606 1.06708,0.95163c0,0.52557 -0.47775,0.95162 -1.06708,0.95162c-0.58933,0 -1.06707,-0.42605 -1.06707,-0.95162z" data-paper-data="{&quot;origPos&quot;:null}" fill="#fded47" stroke="none" stroke-width="0" stroke-linecap="butt"/><path d="M241.59556,178.07792c0,-0.52557 0.47774,-0.95163 1.06707,-0.95163c0.58933,0 1.06708,0.42606 1.06708,0.95163c0,0.52557 -0.47775,0.95162 -1.06708,0.95162c-0.58933,0 -1.06707,-0.42605 -1.06707,-0.95162z" data-paper-data="{&quot;origPos&quot;:null}" fill="#ffe84f" stroke="none" stroke-width="0" stroke-linecap="butt"/><path d="M239.03298,175.72236c-1.01768,-0.85385 2.24141,-1.6974 2.80505,-1.965c0.90834,1.44083 0.70522,0.96842 1.6229,1.78163c1.01288,0.89757 -5.95386,6.9147 -7.04583,3.96376c-1.09198,-2.95093 -5.23311,-6.34464 -1.74934,-7.99658c2.24636,-0.90779 4.6467,4.45067 4.36723,4.21618z" data-paper-data="{&quot;origPos&quot;:null,&quot;origRot&quot;:0}" fill="#ff0021" stroke="none" stroke-width="0" stroke-linecap="butt"/><g data-paper-data="{&quot;origPos&quot;:null}" fill="#ffffff" stroke="none" stroke-width="0" stroke-linecap="butt"><path d="M246.04061,176.64431c-1.4024,0.76378 -2.25935,1.622 -4.29674,-1.18353c-1.74016,-2.39624 -0.62062,-3.18563 0.78177,-3.94941c0.78876,-0.42957 1.97076,-0.7529 2.76776,-0.33559c0.44109,0.23095 0.58987,1.46965 0.27222,1.11211c-0.45181,-0.50853 0.95397,0.13453 1.14628,0.41535c0,0 0.37265,1.31056 0.17344,1.05242c-0.19358,-0.25083 0.73348,0.24737 0.72689,0.69539c-0.01443,0.97997 -0.16922,1.42947 -1.57162,2.19325z" data-paper-data="{&quot;origPos&quot;:null,&quot;origRot&quot;:0}"/><path d="M247.46821,174.57135c-0.44409,0.24186 -1.03553,0.09999 -1.32101,-0.31691c-0.28548,-0.4169 -0.15689,-0.95091 0.28719,-1.19278c0.44409,-0.24186 1.03552,-0.09999 1.321,0.31691c0.28548,0.4169 0.1569,0.95091 -0.28719,1.19278z" data-paper-data="{&quot;origPos&quot;:null,&quot;origRot&quot;:0}"/></g><g data-paper-data="{&quot;origPos&quot;:null}" stroke="none" stroke-width="0" stroke-linecap="butt"><path d="M248.05481,191.25215c0,1.02054 -0.31067,1.93583 -6.52847,1.49588c-2.26852,-0.02788 -2.26221,-0.43226 -2.32477,-1.45189c-0.12739,-2.07645 2.22144,-0.96791 4.49031,-0.96791c2.26887,0 4.36293,-0.93255 4.36293,0.92392z" data-paper-data="{&quot;origPos&quot;:null}" fill="#8e4108"/><path d="M244.99758,188.61235c0,2.45415 1.71564,1.99659 -2.99354,1.84785c-4.42335,-0.13971 -2.16554,-0.09764 -2.16554,-2.5518c0,-2.45416 -1.07836,-5.65238 2.59421,-5.59076c2.96088,-1.60614 2.56488,3.84054 2.56488,6.2947z" data-paper-data="{&quot;origPos&quot;:null}" fill="#0052ef"/><path d="M248.01242,192.53853c-0.00209,0.21999 -3.70432,0.62942 -4.24259,0.5854c-0.53641,-0.04388 -3.87606,-0.15684 -3.96435,-0.40777c-0.0895,-0.25437 -0.56877,-0.58867 -0.10343,-0.53838c0,0 1.471,0.33354 4.12026,0.30075c0,0 2.74522,-0.07426 3.99087,-0.38001c0.21995,0.01647 0.20438,-0.09958 0.19924,0.44001z" data-paper-data="{&quot;origPos&quot;:null,&quot;origRot&quot;:0}" fill="#f9c869"/></g><g data-paper-data="{&quot;origPos&quot;:null}" stroke="none" stroke-width="0" stroke-linecap="butt"><g data-paper-data="{&quot;origPos&quot;:null}"><path d="M242.4957,191.64614c0,1.00943 -0.30728,1.91476 -6.45738,1.47959c-2.24382,-0.02758 -2.23758,-0.42755 -2.29945,-1.43607c-0.126,-2.05384 2.19725,-0.95738 4.44142,-0.95738c2.24417,0 4.31542,-0.9224 4.31542,0.91386z" data-paper-data="{&quot;origPos&quot;:null}" fill="#8e4108"/><path d="M239.47176,188.42584c0,2.42744 1.57097,2.49707 -3.08694,2.34995c-4.37518,-0.13818 -1.82697,0.07748 -1.82697,-2.34995c0,-2.42744 -2.6246,-5.80525 1.00797,-5.74429c3.87363,0.06501 3.90593,3.31686 3.90593,5.74429z" data-paper-data="{&quot;origPos&quot;:null}" fill="#0052ef"/></g><path d="M242.23781,192.79376c-0.00209,0.21999 -3.70433,0.62942 -4.24259,0.5854c-0.53641,-0.04388 -3.87606,-0.15684 -3.96435,-0.40778c-0.0895,-0.25437 -0.56878,-0.58867 -0.10344,-0.53838c0,0 1.47101,0.33354 4.12027,0.30076c0,0 2.74521,-0.07427 3.99086,-0.38002c0.21995,0.01647 0.20438,-0.09957 0.19925,0.44002z" data-paper-data="{&quot;origPos&quot;:null,&quot;origRot&quot;:0}" fill="#f9c869"/></g><g data-paper-data="{&quot;origPos&quot;:null,&quot;origRot&quot;:0}"><path d="M236.29553,166.27282c-0.32513,0.44134 -0.85014,0.5452 -1.43189,0.11662c-0.58175,-0.42857 -0.69522,-1.7599 -0.3701,-2.20124c0.32513,-0.44134 0.54537,-0.01259 1.12712,0.41599c0.58175,0.42857 0.99998,1.22729 0.67485,1.66862z" data-paper-data="{&quot;origRot&quot;:0,&quot;origPos&quot;:null}" fill="#5a2c0a" stroke="none" stroke-width="0" stroke-linecap="butt"/><path d="M249.9876,162.21015c-0.65559,2.91474 0.18492,4.11483 -1.29243,7.13656c-1.815,2.23397 -3.95732,3.38914 -8.66505,2.02218c-0.09428,-0.02322 -5.7164,-3.84222 -4.88184,-7.55267c0.91334,-4.06074 1.48967,-6.68329 5.62003,-5.75428c4.13036,0.929 10.13265,0.08747 9.21931,4.14821z" data-paper-data="{&quot;origPos&quot;:null}" fill="#ffdebd" stroke="none" stroke-width="0" stroke-linecap="butt"/><path d="M240.38158,163.65136c-0.00311,0.80294 0.67923,0.90678 0.22019,1.56556c-0.21562,0.30946 -1.459,-0.00181 -0.97326,-0.1001c0.25635,-0.05187 -0.42923,0.51055 -0.69079,0.50953c-0.88452,-0.00343 -0.95749,-0.57575 -0.55108,-1.80812c0.4721,-1.43162 -0.62042,-3.72351 0.26411,-3.7201c0,0 1.36097,-0.49846 1.65477,0.15615c0.37785,0.84186 0.0819,1.88964 0.07606,3.39707z" data-paper-data="{&quot;origRot&quot;:0,&quot;origPos&quot;:null}" fill="#5a2c0a" stroke="none" stroke-width="0" stroke-linecap="butt"/><path d="M249.57119,159.3659c-0.10608,0.44955 -0.45408,0.59163 -0.91588,0.58243c-0.71848,-0.01433 -1.96332,-0.56623 -1.24491,-0.54844c0.83101,0.02058 -0.51033,0.55157 -1.34158,0.55476c-0.65284,0.0025 -2.10138,-0.51776 -1.45282,-0.44317c0.84387,0.09705 -0.51944,0.26955 -1.36875,0.28397c-0.74784,0.0127 -2.16303,-0.09446 -1.41513,-0.08636c1.30104,0.01409 -1.27799,0.83143 -2.28516,0.59377c-0.68123,-0.16075 -1.71421,0.7769 -2.34803,0.47996c-1.84514,-0.86443 -1.61024,-0.60348 -1.14228,-2.58661c0.27804,-1.17831 3.13467,-3.04733 6.99551,-2.13628c3.86084,0.91105 6.79709,2.12766 6.51904,3.30597z" data-paper-data="{&quot;origPos&quot;:null}" fill="#5a2c0a" stroke="none" stroke-width="0" stroke-linecap="butt"/><path d="M238.46386,162.40122c-0.18822,0.83685 -0.08627,1.40867 -0.5645,2.02018c-0.32881,0.42045 -1.33047,0.24201 -1.8512,0.12488c-1.01629,-0.22859 -1.58246,-1.55958 -1.26459,-2.97285c0.31787,-1.41327 1.39942,-2.37364 2.41571,-2.14505c1.01629,0.22859 1.58247,1.55956 1.26459,2.97282z" data-paper-data="{&quot;origPos&quot;:null}" fill="#ffdec6" stroke="none" stroke-width="0" stroke-linecap="butt"/><path d="M236.75393,163.55719c0,0 -0.4705,0.04636 -0.69345,-0.09971c-0.27023,-0.17704 -0.57026,-0.72825 -0.57026,-0.72825" data-paper-data="{&quot;origPos&quot;:null}" fill="none" stroke="#f6b09a" stroke-width="0.5" stroke-linecap="round"/><path d="M250.00858,162.00875c0.49379,0.006 0.44249,1.00859 0.20242,2.07597c-0.24007,1.06739 -0.82061,1.84586 -1.29668,1.73878c-0.47606,-0.10708 -0.66735,-1.05916 -0.42728,-2.12654c0.24007,-1.06739 0.60393,-1.69936 1.52154,-1.68821z" data-paper-data="{&quot;origPos&quot;:null,&quot;index&quot;:null}" fill="#ffffff" stroke="none" stroke-width="0" stroke-linecap="butt"/><path d="M249.86656,162.7825c0.30356,0.06828 0.39224,0.82357 0.19805,1.68698c-0.1942,0.86342 -0.59773,1.50796 -0.90129,1.43969c-0.30356,-0.06828 -0.39225,-0.82354 -0.19804,-1.68695c0.1942,-0.86342 0.59774,-1.508 0.9013,-1.43972z" data-paper-data="{&quot;origPos&quot;:null,&quot;index&quot;:null}" fill="#000000" stroke="none" stroke-width="NaN" stroke-linecap="butt"/><path d="M247.44297,164.37721c-0.27642,1.22896 -1.11977,2.08596 -1.88368,1.91414c-0.76391,-0.17182 -1.15908,-1.30738 -0.88266,-2.53634c0.27642,-1.22896 0.79248,-2.28053 1.52284,-1.99529c1.35725,0.53006 1.51994,1.38853 1.24352,2.61749z" data-paper-data="{&quot;origPos&quot;:null}" fill="#ffffff" stroke="none" stroke-width="0" stroke-linecap="butt"/><path d="M246.39996,167.70924c0.40816,-1.8147 1.02788,-2.90462 2.95597,-2.78717c1.82528,0.11119 2.80629,0.09717 2.20224,2.7828c-0.11591,0.51538 -0.54991,1.88012 -0.87091,2.29966c-0.963,1.2586 -2.59698,2.61825 -6.68299,1.69923c-1.22436,-0.27538 1.98754,-2.17982 2.3957,-3.99452z" data-paper-data="{&quot;origPos&quot;:null}" fill="#ffdebd" stroke="none" stroke-width="0" stroke-linecap="butt"/><path d="M247.32334,164.69015c-0.18845,0.83782 -0.68182,1.44039 -1.10198,1.34589c-0.42016,-0.0945 -0.60803,-0.85031 -0.41958,-1.68813c0.18845,-0.83782 0.68183,-1.4404 1.10199,-1.3459c0.42016,0.0945 0.60803,0.85031 0.41958,1.68813z" data-paper-data="{&quot;origPos&quot;:null}" fill="#000000" stroke="none" stroke-width="NaN" stroke-linecap="butt"/><path d="M251.11894,169.40488c0.53927,1.12787 0.86229,1.47903 -0.21742,1.87593c-0.68843,0.25307 -2.70682,-0.40701 -1.56892,-0.38442c0.61016,0.0121 -1.17951,0.67305 -1.79065,0.67082c-0.447,-0.00162 -1.76167,-1.04116 -1.36105,-0.93241c0.33316,0.09043 -1.15791,0.61793 -1.50209,0.582c-0.42937,-0.04483 -1.38678,-1.33411 -0.97035,-1.20192c0.30007,0.09526 -0.6982,0.36727 -1.00388,0.29391c-0.68121,-0.16349 -0.52113,-2.29704 -0.2001,-3.45119c0,0 1.39901,0.77187 2.88612,1.65951c0.98698,0.58912 2.86688,0.92193 3.5716,1.60082z" data-paper-data="{&quot;origPos&quot;:null,&quot;origRot&quot;:0}" fill="#5a2c0a" stroke="none" stroke-width="0" stroke-linecap="butt"/><path d="M247.86936,161.92593c-0.12786,0.56846 -0.50521,-0.61272 -1.3579,-0.80451c-0.85269,-0.19179 -1.90329,1.25048 -1.77544,0.68203c0.12786,-0.56846 -0.01464,-2.22466 1.80502,-1.92309c1.99758,0.33106 1.45616,1.4771 1.32831,2.04556z" data-paper-data="{&quot;origPos&quot;:null}" fill="#000001" stroke="none" stroke-width="0" stroke-linecap="butt"/><path d="M251.10511,162.2055c-0.12786,0.56846 -0.33227,-0.57381 -0.94402,-0.71141c-0.61174,-0.1376 -1.46703,1.34861 -1.33917,0.78016c0.12786,-0.56846 0.12388,-2.19349 1.43588,-2.00611c1.44029,0.20571 0.97516,1.36891 0.8473,1.93737z" data-paper-data="{&quot;origPos&quot;:null}" fill="#000001" stroke="none" stroke-width="0" stroke-linecap="butt"/></g><g data-paper-data="{&quot;origPos&quot;:null,&quot;origRot&quot;:0}" stroke="none" stroke-width="0" stroke-linecap="butt"><path d="M256.60265,163.04007c-0.68669,1.76422 -4.21637,-0.26335 -7.98831,-1.73152c-0.18909,-0.0736 -8.23002,-2.5048 -6.24859,-4.93345c0.51773,-4.0346 5.86117,-0.24657 4.59666,0.90134c-2.17227,-1.15381 4.24703,-3.72684 9.68597,-1.76337c4.65589,3.41045 1.9646,5.45285 0.25691,6.58351z" data-paper-data="{&quot;origPos&quot;:null}" fill="#ff0021"/><path d="M258.18932,164.41642c-0.30926,0.79456 -5.58164,-1.21348 -8.58838,-2.3838c-3.00673,-1.17033 -2.579,-1.83271 -2.26973,-2.62727c0.30927,-0.79456 3.849,0.10313 6.85574,1.27345c3.00673,1.17033 4.31163,2.94307 4.00235,3.73762z" data-paper-data="{&quot;origPos&quot;:null}" fill="#bc041a"/><path d="M251.61565,158.73367c0.41751,-1.07264 1.43459,-1.67805 2.27171,-1.35221c0.83712,0.32584 1.1773,1.45954 0.75978,2.53217c-0.41751,1.07264 -1.4346,1.67804 -2.27173,1.35221c-0.83712,-0.32584 -1.17728,-1.45953 -0.75977,-2.53217z" data-paper-data="{&quot;origPos&quot;:null}" fill="#ffffff"/><path d="M254.34771,159.64012c0.41751,-1.07264 1.32412,-1.72103 2.02498,-1.44823c0.70085,0.2728 0.93055,1.36347 0.51305,2.43612c-0.41751,1.07264 -1.32412,1.72106 -2.02498,1.44826c-0.70085,-0.2728 -0.93054,-1.3635 -0.51303,-2.43615z" data-paper-data="{&quot;origPos&quot;:null}" fill="#ffffff"/><path d="M254.32537,159.9061c-0.24905,0.63982 -0.75078,1.04178 -1.12068,0.8978c-0.36989,-0.14398 -0.46787,-0.77934 -0.21882,-1.41918c0.24905,-0.63982 0.75078,-1.04179 1.12068,-0.89782c0.36989,0.14398 0.46787,0.77937 0.21882,1.41919z" data-paper-data="{&quot;origPos&quot;:null}" fill="#000000"/><path d="M256.13941,160.53373c-0.24905,0.63982 -0.69327,1.06417 -0.9922,0.94781c-0.29892,-0.11636 -0.33937,-0.72934 -0.09032,-1.36917c0.24905,-0.63982 0.69327,-1.06418 0.99219,-0.94783c0.29892,0.11636 0.33938,0.72935 0.09032,1.36918z" data-paper-data="{&quot;origPos&quot;:null}" fill="#000000"/></g></g></g></svg>