<svg version="1.1" xmlns="http://www.w3.org/2000/svg" xmlns:xlink="http://www.w3.org/1999/xlink" width="25.39145" height="23.41147" viewBox="0,0,25.39145,23.41147"><g transform="translate(-227.42034,-167.47725)"><g data-paper-data="{&quot;isPaintingLayer&quot;:true}" fill-rule="nonzero" stroke-linejoin="miter" stroke-miterlimit="10" stroke-dasharray="" stroke-dashoffset="0" style="mix-blend-mode: normal"><path d="M233.35303,181.75341c-0.7886,1.01646 -2.12115,1.95561 -3.41409,1.81128c-0.95049,-0.12658 -1.42428,-1.4892 -1.66217,-2.42443c-0.42812,-1.68668 -0.40354,-3.43634 -0.23878,-5.221c0.1483,-1.58378 0.43934,-3.23164 1.23812,-4.61407c0.45187,-0.7812 1.43633,-1.17345 2.38878,-1.2854c1.1291,-0.124 2.68774,0.00333 3.28329,0.97479c0.93742,1.52997 1.0244,3.55454 0.80645,5.32053c-0.33408,1.95751 -1.2082,3.90205 -2.40158,5.43832z" data-paper-data="{&quot;index&quot;:null}" fill="#d73a54" stroke="none" stroke-width="1" stroke-linecap="round"/><path d="M231.00583,186.33064c-1.14998,-0.26996 -2.33592,-0.83983 -3.08454,-1.75167c-0.52881,-0.64328 -0.61199,-1.67568 -0.37549,-2.47466c0.2371,-0.80062 0.86602,-1.54112 1.60676,-1.92727c0.8478,-0.44177 1.8893,-0.57735 2.84635,-0.48525c1.41637,0.1364 3.08262,0.18715 4.14314,1.13149c0.71638,0.62944 0.39438,1.87308 0.30659,2.80961c-0.09017,0.95438 0.0276,2.33456 -0.84672,2.7586c-1.06998,0.53769 -2.00288,-0.29753 -3.23769,-0.54748c-0.33665,-0.06814 -1.03791,0.56185 -1.35841,0.48662z" data-paper-data="{&quot;index&quot;:null}" fill="#f3b6ee" stroke="none" stroke-width="1" stroke-linecap="round"/><path d="M247.86057,188.79872c-0.89261,0.58965 -1.48931,1.3226 -2.72187,1.65042c-2.35476,0.62628 -5.58287,0.4976 -7.47122,0.14488c-2.87677,-0.53734 -3.91192,-2.22854 -5.6983,-4.76361c-1.78639,-2.53508 -2.34996,-5.52927 -1.81746,-8.31875c0.5325,-2.78945 2.16105,-5.37418 4.75897,-7.09032c2.5979,-1.71613 5.67756,-2.2416 8.55434,-1.70426c2.87677,0.53735 5.55066,2.13749 7.33705,4.67256c1.78639,2.53508 2.34995,5.52928 1.81746,8.31875c-0.5325,2.78945 -2.16105,5.37419 -4.75896,7.09033z" data-paper-data="{&quot;index&quot;:null}" fill="#ffc0fa" stroke="none" stroke-width="0.98039" stroke-linecap="butt"/><path d="M235.82673,181.18101c-0.12374,0.09122 -0.25687,0.13845 -0.37205,0.14102c-0.11516,0.00262 -0.21229,-0.03942 -0.26405,-0.12668c-0.05175,-0.08725 -0.04843,-0.20335 -0.00119,-0.32047c0.04721,-0.11716 0.13831,-0.23524 0.26205,-0.32646c0.12374,-0.09122 0.25686,-0.13845 0.37206,-0.14103c0.11516,-0.00262 0.2123,0.03941 0.26406,0.12667c0.05175,0.08725 0.04842,0.20335 0.00118,0.32047c-0.04722,0.11716 -0.13832,0.23523 -0.26206,0.32645z" data-paper-data="{&quot;index&quot;:null}" fill="#1a0006" stroke="none" stroke-width="1" stroke-linecap="butt"/><path d="M234.12598,185.66564c-0.12769,0.28395 -0.33313,0.50093 -0.5618,0.6221c-0.22866,0.12116 -0.48073,0.1465 -0.70156,0.04721c-0.22082,-0.0993 -0.36915,-0.30468 -0.43027,-0.55614c-0.06112,-0.25145 -0.03514,-0.54915 0.09254,-0.83311c0.12769,-0.28395 0.33313,-0.50093 0.5618,-0.6221c0.22866,-0.12116 0.48073,-0.1465 0.70155,-0.0472c0.22083,0.09929 0.36915,0.30468 0.43027,0.55614c0.06113,0.25145 0.03514,0.54915 -0.09253,0.8331z" data-paper-data="{&quot;index&quot;:null}" fill="#ec65a4" stroke="none" stroke-width="1" stroke-linecap="butt"/><path d="M242.18482,179.07254c-0.44687,0.30488 -0.91802,0.48403 -1.31817,0.52731c-0.40019,0.04318 -0.72944,-0.04957 -0.8925,-0.28861c-0.16308,-0.23902 -0.12937,-0.57941 0.05681,-0.93629c0.18624,-0.3568 0.52489,-0.73016 0.97177,-1.03504c0.44687,-0.30488 0.91802,-0.48403 1.31816,-0.5273c0.40019,-0.04319 0.72944,0.04957 0.89253,0.28859c0.16308,0.23902 0.12937,0.57941 -0.05682,0.93629c-0.18623,0.35679 -0.52489,0.73015 -0.97175,1.03504z" data-paper-data="{&quot;index&quot;:null}" fill="#ec65a4" stroke="none" stroke-width="1" stroke-linecap="butt"/><g stroke="none"><path d="M243.26052,174.29716c-0.4067,1.94374 -1.35256,3.85439 -2.60229,5.3452c-0.82587,0.9864 -2.19245,1.87532 -3.47912,1.68299c-0.94512,-0.16186 -1.36789,-1.54117 -1.57081,-2.4846c-0.36506,-1.70146 -0.27539,-3.44897 -0.04434,-5.22627c0.20713,-1.57715 0.55928,-3.21306 1.40894,-4.56481c0.48063,-0.76384 1.479,-1.11919 2.43495,-1.19562c1.13292,-0.08191 2.68575,0.10335 3.24474,1.09628c0.87984,1.56378 0.89143,3.59019 0.60792,5.34683z" data-paper-data="{&quot;index&quot;:null}" fill="#e33e59" stroke-width="1" stroke-linecap="round"/><path d="M239.44786,175.13698c-0.07763,3.41174 -1.04737,6.15686 -2.16598,6.13141c-1.11861,-0.02545 -1.96247,-2.81184 -1.88484,-6.22358c0.07763,-3.41174 1.04737,-6.15686 2.16598,-6.13141c1.11861,0.02545 1.96247,2.81184 1.88484,6.22358z" fill="#ef5a73" stroke-width="0" stroke-linecap="butt"/></g><path d="M248.79387,169.4081c0.25985,0.40565 1.00144,1.80799 0.89588,2.31797c-0.09336,0.45108 -1.00807,0.00965 -1.19832,0.39075c-0.55221,1.10657 -1.31039,2.36755 -2.48291,2.78996c-1.01541,0.39535 -2.2196,-0.17878 -3.19526,-0.66761c-0.79106,-0.39626 -1.54376,-1.05333 -1.92348,-1.84966c-0.36774,-0.85058 -0.549,-1.93291 -0.16988,-2.76837c0.42005,-0.90959 1.40268,-1.54929 2.34198,-1.90454c0.80703,-0.30483 1.75102,-0.3116 2.56786,-0.05952c1.15421,0.35668 2.51335,0.73822 3.16412,1.75099z" data-paper-data="{&quot;index&quot;:null}" fill="#ffc8fa" stroke="none" stroke-width="1" stroke-linecap="round"/><path d="M232.10437,182.70615c0.54783,1.64888 0.51409,3.16357 -0.42282,3.39731c-0.93691,0.23375 -1.8347,-1.16293 -2.38253,-2.81181c-0.54783,-1.64888 -0.2324,-3.17506 0.7045,-3.4088c0.93691,-0.23375 1.55303,1.17442 2.10085,2.82331z" fill="#f3b6ee" stroke="none" stroke-width="0" stroke-linecap="butt"/><path d="M242.35837,182.80375c0,0 -1.05669,0.12741 -1.55423,0.24389c-0.32467,0.07601 -0.83103,0.24287 -1.15777,0.35468c-0.18816,0.06438 -0.13077,-0.14984 -0.01469,-0.31235c0.15798,-0.22118 0.55953,-0.78331 0.55953,-0.78331" fill="none" stroke="#000000" stroke-width="0.5" stroke-linecap="round"/><path d="M236.43277,185.10357c0,0 0.36824,-0.06582 0.51313,-0.09172c0.10645,-0.01903 0.25684,0.02571 0.22959,0.13705c-0.04732,0.19333 -0.11596,0.49554 -0.13736,0.70184c-0.03279,0.31614 -0.01485,1.03609 -0.01485,1.03609" data-paper-data="{&quot;index&quot;:null}" fill="none" stroke="#000000" stroke-width="0.5" stroke-linecap="round"/></g></g></svg>