<svg version="1.1" xmlns="http://www.w3.org/2000/svg" xmlns:xlink="http://www.w3.org/1999/xlink" width="33.28024" height="41.56892" viewBox="0,0,33.28024,41.56892"><g transform="translate(-219.79863,-151.81351)"><g data-paper-data="{&quot;isPaintingLayer&quot;:true}" fill-rule="nonzero" stroke-linejoin="miter" stroke-miterlimit="10" stroke-dasharray="" stroke-dashoffset="0" style="mix-blend-mode: normal"><g data-paper-data="{&quot;index&quot;:null}" stroke="none" stroke-width="0" stroke-linecap="butt"><path d="M239.72138,173.74128c0,0 -3.98268,-1.18427 -4.55678,-3.53813c-0.69211,-3.79295 2.63972,-2.20331 6.26867,-0.23476c2.38664,1.59464 5.29895,6.80589 3.97892,6.50738c-0.70747,0.63868 -0.91246,0.9078 -2.61255,1.01127c-0.11171,-0.61386 -4.36562,-4.07374 -3.07829,-3.74577z" data-paper-data="{&quot;origRot&quot;:0}" fill="#1fff00"/><g data-paper-data="{&quot;origPos&quot;:null,&quot;origRot&quot;:0}" fill="#ffffff"><path d="M247.7487,176.69722c1.17933,1.07668 1.22226,1.55017 1.00217,2.50522c-0.10065,0.43661 -1.11987,0.69892 -0.87195,0.5016c0.2551,-0.2031 -0.41984,0.98051 -0.41984,0.98051c-0.25382,0.22675 -1.77252,0.51537 -1.21231,0.1295c0.39388,-0.27129 -0.04652,0.89598 -0.53,1.01489c-0.87362,0.21483 -1.94416,-0.38149 -2.60747,-0.98707c-1.17933,-1.07668 -2.07786,-2.11066 0.18435,-4.02181c2.64862,-2.23757 3.27572,-1.1995 4.45507,-0.12282z" data-paper-data="{&quot;origPos&quot;:null,&quot;origRot&quot;:0}"/><path d="M248.63976,179.05122c0.37344,0.34095 0.37074,0.89021 -0.00607,1.22684c-0.37682,0.33661 -0.985,0.33312 -1.35846,-0.00784c-0.37344,-0.34095 -0.37073,-0.89023 0.00606,-1.22686c0.3768,-0.33663 0.985,-0.33311 1.35845,0.00785z" data-paper-data="{&quot;origPos&quot;:null,&quot;origRot&quot;:0}"/></g></g><path d="M240.5086,174.1134c3.5049,5.30745 2.85527,7.83357 -0.76431,10.20267c-3.61957,2.36909 -4.99318,2.51518 -8.87868,-3.29576c-3.39545,-5.07804 -3.35977,-7.50336 0.2598,-9.87245c3.61957,-2.36909 5.53117,-2.86757 9.3832,2.96555z" fill="#1fff00" stroke="none" stroke-width="NaN" stroke-linecap="butt"/><path d="M240.5673,173.59166c3.5049,5.30745 5.71937,5.57039 -0.78684,10.7963c-1.80888,1.45293 -4.53195,3.10803 -5.93692,1.6053c-2.56398,-2.86554 -1.69676,-2.62295 -3.43406,-5.22117c-1.13766,-1.70141 1.29521,-1.87984 3.01489,-2.57473c-1.12721,-1.8961 -2.91326,-4.8486 -3.74603,-6.18661c0.86226,-0.72791 0.81183,-1.81105 1.44498,-0.89358c1.16182,1.68356 2.57788,2.9627 4.45702,5.69861c0,0 1.2964,-0.85391 2.28479,-1.61142c-0.98449,-1.57332 -2.85508,-4.58037 -3.57076,-5.74101c0,0 0.50248,-1.46558 1.42722,-0.54453c0.82196,1.23334 2.7483,3.5957 3.94019,5.2196z" fill="#003aa6" stroke="none" stroke-width="NaN" stroke-linecap="butt"/><path d="M233.91486,178.96437c-0.28782,-0.43976 -0.12143,-1.05787 0.37168,-1.38061c0.49309,-0.32275 1.12617,-0.22789 1.41399,0.21186c0.28782,0.43976 0.12142,1.05787 -0.37169,1.38062c-0.49309,0.32275 -1.12616,0.22789 -1.41398,-0.21185z" fill="#c7b53e" stroke="none" stroke-width="0" stroke-linecap="butt"/><path d="M238.32876,176.34473c-0.28782,-0.43976 -0.12143,-1.05787 0.37168,-1.38061c0.49309,-0.32275 1.12617,-0.22789 1.41399,0.21186c0.28782,0.43976 0.12142,1.05787 -0.37169,1.38062c-0.49309,0.32275 -1.12616,0.22789 -1.41398,-0.21186z" fill="#c7b53e" stroke="none" stroke-width="0" stroke-linecap="butt"/><g stroke="none" stroke-width="0" stroke-linecap="butt"><path d="M251.78555,178.62368c0.99146,0.2419 1.80702,0.76067 -0.09422,6.69699c-0.5648,2.19726 -0.95616,2.09528 -1.96156,1.91437c-2.04747,-0.36843 -0.41377,-2.38756 0.12403,-4.59177c0.5378,-2.20421 0.12819,-4.45964 1.93175,-4.01959z" data-paper-data="{&quot;origPos&quot;:null}" fill="#8e4108"/><path d="M248.49631,180.96807c2.38421,0.58172 2.34635,-1.19349 1.08562,3.34623c-1.18421,4.26418 -0.60816,2.08068 -2.99238,1.49896c-2.38422,-0.58172 -5.7469,-0.29218 -4.81652,-3.84548c-0.85854,-3.25721 4.33905,-1.58145 6.72327,-0.99973z" data-paper-data="{&quot;origPos&quot;:null}" fill="#003aa6"/><path d="M253.02522,178.96978c0.21323,0.05418 -0.26657,3.74795 -0.43692,4.26044c-0.16978,0.51072 -1.07113,3.72842 -1.33583,3.75472c-0.26834,0.02666 -0.70671,0.41303 -0.54755,-0.02713c0,0 0.67271,-1.35002 1.26882,-3.93155c0,0 0.57857,-2.68459 0.57679,-3.96721c0.06814,-0.20978 -0.0483,-0.22216 0.4747,-0.08926z" data-paper-data="{&quot;origPos&quot;:null,&quot;origRot&quot;:0}" fill="#f9c869"/></g><g data-paper-data="{&quot;origPos&quot;:null}" stroke="none" stroke-width="0" stroke-linecap="butt"><g data-paper-data="{&quot;origPos&quot;:null}"><path d="M242.4957,191.64613c0,1.00943 -0.30728,1.91476 -6.45738,1.47959c-2.24382,-0.02758 -2.23758,-0.42755 -2.29945,-1.43607c-0.126,-2.05384 2.19725,-0.95738 4.44142,-0.95738c2.24417,0 4.31542,-0.9224 4.31542,0.91386z" data-paper-data="{&quot;origPos&quot;:null}" fill="#8e4108"/><path d="M239.47176,188.42583c0,2.42744 1.57097,2.49707 -3.08694,2.34995c-4.37518,-0.13818 -1.82697,0.07748 -1.82697,-2.34995c0,-2.42744 -2.6246,-5.80525 1.00797,-5.74429c3.87363,0.06501 3.90593,3.31686 3.90593,5.74429z" data-paper-data="{&quot;origPos&quot;:null}" fill="#003aa6"/></g><path d="M242.23781,192.79375c-0.00209,0.21999 -3.70433,0.62942 -4.24259,0.5854c-0.53641,-0.04388 -3.87606,-0.15684 -3.96435,-0.40778c-0.0895,-0.25437 -0.56878,-0.58867 -0.10344,-0.53838c0,0 1.47101,0.33354 4.12027,0.30076c0,0 2.74521,-0.07427 3.99086,-0.38002c0.21995,0.01647 0.20438,-0.09957 0.19925,0.44002z" data-paper-data="{&quot;origPos&quot;:null,&quot;origRot&quot;:0}" fill="#f9c869"/></g><g><path d="M225.4712,170.34854c-0.03786,0.54686 -0.42537,0.91599 -1.14621,0.86609c-0.72085,-0.04991 -1.53036,-1.11292 -1.49251,-1.65977c0.03786,-0.54686 0.45363,-0.303 1.17447,-0.25309c0.72085,0.04991 1.50209,0.49995 1.46423,1.04679z" data-paper-data="{&quot;origRot&quot;:0,&quot;origPos&quot;:null}" fill="#594537" stroke="none" stroke-width="0" stroke-linecap="butt"/><path d="M234.85141,159.57869c1.00919,2.81194 2.36207,3.37442 2.73491,6.71724c-0.3345,2.85884 -1.52365,4.98247 -6.23054,6.35236c-0.09203,0.03094 -6.88534,-0.17885 -8.17003,-3.75844c-1.40597,-3.91753 -2.32541,-6.44034 1.65929,-7.87041c3.9847,-1.43006 8.6004,-5.35829 10.00637,-1.44075z" data-paper-data="{&quot;origPos&quot;:null}" fill="#ffdebd" stroke="none" stroke-width="0" stroke-linecap="butt"/><path d="M227.5151,165.9451c0.42783,0.67947 1.05949,0.40133 1.02517,1.20353c-0.01612,0.37683 -1.23258,0.78064 -0.87524,0.43726c0.18859,-0.18122 -0.08864,0.6611 -0.30998,0.80046c-0.74851,0.4713 -1.11693,0.02729 -1.43453,-1.23089c-0.36896,-1.4616 -2.51991,-2.81063 -1.77139,-3.28193c0,0 0.88164,-1.15039 1.48059,-0.75531c0.77027,0.50809 1.08217,1.55124 1.88538,2.82687z" data-paper-data="{&quot;origRot&quot;:0,&quot;origPos&quot;:null}" fill="#594537" stroke="none" stroke-width="0" stroke-linecap="butt"/><path d="M225.22604,165.91788c0.28975,0.80734 0.68237,1.23538 0.60649,2.00797c-0.05217,0.5312 -0.99338,0.91756 -1.49575,1.09785c-0.98045,0.35188 -2.17193,-0.46817 -2.66125,-1.83159c-0.48932,-1.36343 -0.09118,-2.75395 0.88927,-3.10582c0.98045,-0.35188 2.17192,0.46815 2.66123,1.83157z" data-paper-data="{&quot;origPos&quot;:null}" fill="#ffdec6" stroke="none" stroke-width="0" stroke-linecap="butt"/><path d="M224.40231,167.81039c0,0 -0.37232,0.29137 -0.63883,0.28758c-0.32303,-0.00458 -0.87181,-0.30903 -0.87181,-0.30903" data-paper-data="{&quot;origPos&quot;:null}" fill="none" stroke="#f6b09a" stroke-width="0.5" stroke-linecap="round"/><path d="M234.76116,159.39744c0.42006,-0.25966 0.91424,0.61419 1.2838,1.64392c0.36956,1.02974 0.29684,1.99811 -0.16244,2.16294c-0.45926,0.16483 -1.13116,-0.53632 -1.50073,-1.56605c-0.36956,-1.02974 -0.40123,-1.75829 0.37935,-2.24081z" data-paper-data="{&quot;origPos&quot;:null,&quot;index&quot;:null}" fill="#ffffff" stroke="none" stroke-width="0" stroke-linecap="butt"/><path d="M235.05607,160.12674c0.29287,-0.1051 0.77262,0.48493 1.07158,1.31791c0.29894,0.83297 0.30386,1.59339 0.011,1.6985c-0.29287,0.1051 -0.77262,-0.48491 -1.07156,-1.31788c-0.29894,-0.83297 -0.30387,-1.59343 -0.01101,-1.69853z" data-paper-data="{&quot;origPos&quot;:null,&quot;index&quot;:null}" fill="#000000" stroke="none" stroke-width="NaN" stroke-linecap="butt"/><path d="M233.86512,162.7722c0.42551,1.18563 0.17303,2.36118 -0.56394,2.62567c-0.73697,0.2645 -1.67933,-0.48224 -2.10484,-1.66786c-0.42551,-1.18563 -0.55361,-2.34997 0.21583,-2.50072c1.42989,-0.28017 2.02745,0.35729 2.45295,1.54291z" data-paper-data="{&quot;origPos&quot;:null}" fill="#ffffff" stroke="none" stroke-width="0" stroke-linecap="butt"/><path d="M234.77097,166.1441c-0.62831,-1.7507 -0.68948,-3.00299 1.00109,-3.93749c1.60042,-0.88467 2.42104,-1.42243 3.3509,1.16849c0.17845,0.4972 0.54372,1.88191 0.49766,2.40815c-0.13817,1.57872 -0.78862,3.60246 -4.73051,5.01717c-1.18118,0.42391 0.50919,-2.90563 -0.11912,-4.65633z" data-paper-data="{&quot;origPos&quot;:null}" fill="#ffdebd" stroke="none" stroke-width="0" stroke-linecap="butt"/><path d="M233.9319,163.10051c0.29009,0.80828 0.19663,1.58144 -0.20872,1.72691c-0.40535,0.14547 -0.96912,-0.39183 -1.25919,-1.20009c-0.29009,-0.80828 -0.19664,-1.58145 0.20871,-1.72692c0.40535,-0.14547 0.96912,0.39183 1.25918,1.20011z" data-paper-data="{&quot;origPos&quot;:null}" fill="#000000" stroke="none" stroke-width="NaN" stroke-linecap="butt"/><path d="M239.66355,165.04563c1.05987,0.66299 1.52081,0.78626 0.82216,1.70013c-0.44547,0.5827 -2.50317,1.10755 -1.5305,0.51659c0.52156,-0.31689 -0.63486,1.20049 -1.15195,1.52624c-0.37821,0.23827 -2.04528,0.06554 -1.6488,-0.05743c0.32972,-0.10226 -0.64618,1.14238 -0.95598,1.29656c-0.38649,0.19235 -1.88587,-0.38273 -1.46348,-0.49439c0.30438,-0.08045 -0.3925,0.68433 -0.68987,0.78629c-0.6627,0.22719 -1.67136,-1.65968 -2.0191,-2.80607c0,0 1.59477,-0.09844 3.32599,-0.14637c1.149,-0.03181 2.91434,-0.75868 3.87318,-0.5634z" data-paper-data="{&quot;origRot&quot;:0}" fill="#594537" stroke="none" stroke-width="0" stroke-linecap="butt"/><g stroke="none" stroke-width="0" stroke-linecap="butt"><path d="M234.66198,156.94894c0.93782,1.64453 -2.86015,3.10913 -6.37622,5.11421c-0.17626,0.10051 -7.12909,4.81491 -7.76753,1.74623c-2.80773,-2.94326 3.50004,-4.70786 3.59523,-3.00268c-2.26437,0.96056 -0.21985,-5.64608 4.73086,-8.63402c5.58144,-1.46837 5.47276,1.90841 5.27544,3.94696z" data-paper-data="{&quot;origPos&quot;:null}" fill="#1fff00"/><path d="M236.73037,156.58339c0.42237,0.74066 -4.45804,3.57115 -7.26081,5.16947c-2.80278,1.59832 -3.04786,0.84889 -3.47023,0.10824c-0.42237,-0.74066 2.50433,-2.92469 5.3071,-4.52301c2.80278,-1.59832 5.00158,-1.49534 5.42394,-0.75468z" data-paper-data="{&quot;origPos&quot;:null}" fill="#18cd00"/></g><path d="M232.91092,160.47436c0.19681,0.54841 -0.75496,-0.24637 -1.57757,0.04884c-0.82262,0.29523 -0.93627,2.07595 -1.1331,1.52755c-0.19681,-0.54841 -1.205,-1.8701 0.49275,-2.59105c1.86375,-0.79144 2.02111,0.46624 2.21792,1.01466z" data-paper-data="{&quot;origPos&quot;:null}" fill="#000001" stroke="none" stroke-width="0" stroke-linecap="butt"/><path d="M235.79228,158.97568c0.19681,0.54841 -0.58811,-0.30626 -1.17828,-0.09445c-0.59017,0.2118 -0.51541,1.92491 -0.71223,1.3765c-0.19681,-0.54841 -1.07136,-1.91807 0.13662,-2.46325c1.32611,-0.59848 1.55707,0.63278 1.75389,1.1812z" data-paper-data="{&quot;origPos&quot;:null}" fill="#000001" stroke="none" stroke-width="0" stroke-linecap="butt"/></g><g data-paper-data="{&quot;index&quot;:null}" stroke="none" stroke-width="0" stroke-linecap="butt"><path d="M232.11418,179.58954c0.2146,-1.31101 1.68309,3.97198 2.20096,4.32002c-0.77515,1.51663 -1.1038,1.59681 -1.97223,1.98958c-0.25467,1.32919 -3.86505,-3.42517 -4.37138,-6.2505c-0.35185,-4.11349 -0.47538,-7.80306 2.72367,-5.65095c1.92743,1.46807 1.41899,5.59188 1.41899,5.59188z" data-paper-data="{&quot;origRot&quot;:0}" fill="#1fff00"/><g data-paper-data="{&quot;origPos&quot;:null,&quot;origRot&quot;:0}" fill="#ffffff"><path d="M231.61085,188.12905c-0.51478,-1.51165 -1.21517,-2.50177 1.89534,-4.03367c2.65672,-1.30839 3.24474,-0.07118 3.75952,1.44046c0.28954,0.85022 0.40763,2.06993 -0.13884,2.78458c-0.30244,0.3955 -1.54842,0.332 -1.14217,0.07959c0.5778,-0.359 -0.29444,0.91731 -0.6038,1.05919c0,0 -1.35479,0.14491 -1.06657,-0.0076c0.28004,-0.14824 -0.36822,0.68085 -0.80862,0.59837c-0.96332,-0.18048 -1.38007,-0.4093 -1.89485,-1.92093z" data-paper-data="{&quot;origPos&quot;:null,&quot;origRot&quot;:0}"/><path d="M233.41157,189.88761c-0.16302,-0.47868 0.07714,-1.03748 0.53642,-1.24808c0.45929,-0.2106 0.96374,0.00672 1.12677,0.48539c0.16304,0.47869 -0.07713,1.03747 -0.53642,1.24809c-0.45929,0.21062 -0.96374,-0.00672 -1.12676,-0.48538z" data-paper-data="{&quot;origPos&quot;:null,&quot;origRot&quot;:0}"/></g></g></g></g></svg>