<svg version="1.1" xmlns="http://www.w3.org/2000/svg" xmlns:xlink="http://www.w3.org/1999/xlink" width="36.23764" height="34.6111" viewBox="0,0,36.23764,34.6111"><g transform="translate(-223.68864,-157.64652)"><g data-paper-data="{&quot;isPaintingLayer&quot;:true}" fill="none" fill-rule="nonzero" stroke="none" stroke-width="none" stroke-linecap="none" stroke-linejoin="miter" stroke-miterlimit="10" stroke-dasharray="" stroke-dashoffset="0" font-family="none" font-weight="none" font-size="none" text-anchor="none" style="mix-blend-mode: normal"><path d="M249.23025,176.39379c-0.95067,-0.86361 5.50273,4.51435 6.0831,3.94782c0.82778,0.71149 -2.12011,0.89305 -1.26258,1.71502c0.94647,0.90724 -5.8903,0.70065 -6.92223,-2.25895c-1.03191,-2.95959 -4.89992,-6.39306 -1.67216,-8.00752c2.08221,-0.88377 4.1098,5.52786 3.84872,5.29071z" data-paper-data="{&quot;origPos&quot;:null,&quot;origRot&quot;:0}" fill="#ff0021" stroke="none" stroke-width="0" stroke-linecap="butt"/><g data-paper-data="{&quot;origPos&quot;:null,&quot;origRot&quot;:0}" fill="#ffffff" stroke="none" stroke-width="0" stroke-linecap="butt"><path d="M254.02698,184.60062c-1.29935,-0.53497 -2.4199,-0.64742 -1.04197,-3.56929c1.17691,-2.49562 2.36404,-2.16695 3.6634,-1.63201c0.7308,0.30088 1.55869,0.92731 1.58701,1.69771c0.01567,0.42636 -0.94727,1.20605 -0.79906,0.79428c0.2108,-0.58571 0.33831,0.72222 0.1949,1.00678c0,0 -0.91715,0.97123 -0.79593,0.69441c0.1178,-0.26901 0.14006,0.63414 -0.23675,0.87508c-0.82422,0.52702 -1.27224,0.66801 -2.57159,0.13304z" data-paper-data="{&quot;origPos&quot;:null,&quot;origRot&quot;:0}"/><path d="M256.70102,184.39982c-0.41147,-0.1694 -0.57243,-0.64919 -0.35951,-1.07163c0.21291,-0.42243 0.71906,-0.62759 1.13052,-0.45817c0.41147,0.1694 0.57243,0.6492 0.3595,1.07163c-0.21291,0.42243 -0.71905,0.62757 -1.13053,0.45815z" data-paper-data="{&quot;origPos&quot;:null,&quot;origRot&quot;:0}"/></g><path d="M245.5892,178.07461c-1.1243,6.26015 -3.33733,7.64066 -7.592,6.85858c-4.25467,-0.78208 -5.34983,-1.62396 -4.1537,-8.51115c1.04526,-6.01857 2.74429,-7.74967 6.99897,-6.96758c4.25467,0.78208 5.9824,1.74001 4.74673,8.62017z" data-paper-data="{&quot;origPos&quot;:null,&quot;origRot&quot;:0}" fill="#ff0021" stroke="none" stroke-width="NaN" stroke-linecap="butt"/><path d="M245.99164,177.73741c-1.1243,6.26015 0.29739,7.97823 -8.01785,7.27277c-2.31183,-0.19614 -5.42494,-0.8766 -5.4053,-2.93372c0.1208,-3.84327 0.58123,-3.06936 1.11605,-6.1488c0.35022,-2.01654 2.2345,-0.4673 3.95881,0.21606c0.4921,-2.15027 1.23604,-5.5198 1.55626,-7.06293c1.12639,0.06792 1.83712,-0.75097 1.66251,0.35c-0.3204,2.02028 -0.17777,3.9232 -0.7049,7.20015c0,0 1.52758,0.27622 2.76569,0.40972c0.37273,-1.81814 1.0931,-5.28548 1.37572,-6.61943c0,0 1.37484,-0.71431 1.40885,0.59042c-0.25584,1.45989 -0.49109,4.499 -0.74857,6.49684z" data-paper-data="{&quot;origPos&quot;:null,&quot;origRot&quot;:0}" fill="#0052ef" stroke="none" stroke-width="NaN" stroke-linecap="butt"/><path d="M236.1903,176.80226c0.09502,-0.5169 0.64191,-0.84958 1.22153,-0.74304c0.57962,0.10654 0.97247,0.61196 0.87745,1.12886c-0.09502,0.5169 -0.64192,0.84957 -1.22154,0.74303c-0.57962,-0.10654 -0.97246,-0.61195 -0.87744,-1.12885z" data-paper-data="{&quot;origPos&quot;:null,&quot;origRot&quot;:0}" fill="#fded47" stroke="none" stroke-width="0" stroke-linecap="butt"/><path d="M241.74098,178.05172c0.09502,-0.5169 0.64191,-0.84958 1.22153,-0.74304c0.57962,0.10654 0.97247,0.61196 0.87745,1.12886c-0.09502,0.5169 -0.64192,0.84957 -1.22154,0.74303c-0.57962,-0.10654 -0.97246,-0.61195 -0.87744,-1.12885z" data-paper-data="{&quot;origPos&quot;:null,&quot;origRot&quot;:0}" fill="#ffe84f" stroke="none" stroke-width="0" stroke-linecap="butt"/><g data-paper-data="{&quot;origPos&quot;:null,&quot;origRot&quot;:0}" stroke="none" stroke-width="0" stroke-linecap="butt"><path d="M247.33064,189.48709c0.15455,1.00877 -0.01393,1.96054 -6.22663,2.46731c-2.24658,0.31599 -2.30158,-0.08468 -2.51783,-1.08308c-0.44038,-2.03322 2.04924,-1.29316 4.29194,-1.63677c2.2427,-0.34359 4.17139,-1.58252 4.45253,0.25254z" data-paper-data="{&quot;origPos&quot;:null}" fill="#8e4108"/><path d="M243.90889,187.34071c0.37166,2.42585 1.99822,1.71374 -2.67918,2.27988c-4.39348,0.53178 -2.15535,0.23144 -2.52702,-2.19441c-0.37166,-2.42586 -1.92193,-5.42387 1.71762,-5.91915c2.68349,-2.03602 3.11691,3.40781 3.48857,5.83366z" data-paper-data="{&quot;origPos&quot;:null}" fill="#0052ef"/><path d="M247.48354,190.76504c0.03125,0.21777 -3.56627,1.18316 -4.105,1.22115c-0.53687,0.03786 -3.85511,0.43196 -3.98038,0.1973c-0.127,-0.23788 -0.65136,-0.49574 -0.18377,-0.51651c0,0 1.50454,0.10693 4.11829,-0.32669c0,0 2.70231,-0.48914 3.88729,-0.98c0.21991,-0.01704 0.18694,-0.12938 0.26358,0.40475z" data-paper-data="{&quot;origPos&quot;:null,&quot;origRot&quot;:0}" fill="#f9c869"/></g><g data-paper-data="{&quot;origPos&quot;:null,&quot;origRot&quot;:0}" stroke="none" stroke-width="0" stroke-linecap="butt"><g data-paper-data="{&quot;origPos&quot;:null}"><path d="M238.34643,190.80038c-0.31218,0.95996 -0.88437,1.72586 -6.5984,-0.58992c-2.12529,-0.72016 -1.99566,-1.09858 -1.74261,-2.07679c0.51535,-1.99212 2.38561,-0.23093 4.51977,0.46309c2.13415,0.69403 4.38913,0.45739 3.82125,2.20364z" data-paper-data="{&quot;origPos&quot;:null}" fill="#8e4108"/><path d="M236.46663,186.80276c-0.7507,2.30844 0.72172,2.86048 -3.66236,1.28009c-4.11796,-1.48446 -1.76137,-0.49132 -1.01066,-2.79976c0.7507,-2.30844 -0.70062,-6.33234 2.73503,-5.15097c3.66363,1.25977 2.6887,4.3622 1.93798,6.67063z" data-paper-data="{&quot;origPos&quot;:null}" fill="#0052ef"/></g><path d="M237.74627,191.81198c-0.07002,0.20855 -3.71738,-0.54703 -4.21564,-0.75535c-0.49654,-0.20762 -3.63754,-1.34785 -3.6439,-1.6138c-0.00645,-0.26958 -0.35884,-0.73572 0.06813,-0.54398c0,0 1.29575,0.77211 3.82528,1.56023c0,0 2.6336,0.77835 3.91275,0.87282c0.20408,0.08368 0.22516,-0.03148 0.05342,0.48007z" data-paper-data="{&quot;origPos&quot;:null,&quot;origRot&quot;:0}" fill="#f9c869"/></g><g data-paper-data="{&quot;origPos&quot;:null,&quot;origRot&quot;:0}"><path d="M240.38598,165.21255c-0.53856,0.10215 -0.99395,-0.17902 -1.12858,-0.88894c-0.13464,-0.70992 0.68817,-1.76266 1.22673,-1.86482c0.53856,-0.10215 0.40819,0.3619 0.54283,1.07182c0.13464,0.70992 -0.10243,1.57979 -0.64099,1.68192z" data-paper-data="{&quot;origRot&quot;:0,&quot;origPos&quot;:null}" fill="#5a2c0a" stroke="none" stroke-width="0" stroke-linecap="butt"/><path d="M253.18353,171.55296c-2.46384,1.68967 -2.66461,3.14099 -5.80342,4.34985c-2.85015,0.40186 -5.20602,-0.20951 -7.72542,-4.41475c-0.05329,-0.08117 -1.57412,-6.70537 1.56234,-8.8563c3.43256,-2.35401 5.63949,-3.88351 8.03385,-0.39209c2.39436,3.49141 7.36521,6.95929 3.93265,9.31329z" data-paper-data="{&quot;origPos&quot;:null}" fill="#ffdebd" stroke="none" stroke-width="0" stroke-linecap="butt"/><path d="M245.16394,166.07219c-0.54867,0.58624 -0.11936,1.12665 -0.904,1.29701c-0.36859,0.08003 -1.06785,-0.99415 -0.64503,-0.73564c0.22313,0.13642 -0.66194,0.08202 -0.85292,-0.09671c-0.6458,-0.60442 -0.30982,-1.07344 0.82662,-1.69992c1.32014,-0.72776 2.07921,-3.15061 2.72503,-2.5462c0,0 1.33646,0.56088 1.10628,1.24047c-0.29601,0.874 -1.22588,1.44037 -2.25595,2.54097z" data-paper-data="{&quot;origRot&quot;:0,&quot;origPos&quot;:null}" fill="#5a2c0a" stroke="none" stroke-width="0" stroke-linecap="butt"/><g data-paper-data="{&quot;origPos&quot;:null,&quot;origRot&quot;:0}" stroke="none" stroke-width="0" stroke-linecap="butt"><path d="M255.67915,170.70245c-1.35274,1.32442 -3.73312,-1.97763 -6.56476,-4.86983c-0.14195,-0.14499 -6.46629,-5.67401 -3.66004,-7.07022c2.13449,-3.46267 5.44189,2.19089 3.81667,2.71565c-1.5037,-1.94652 5.40552,-1.64531 9.55186,2.3852c2.83656,5.02617 -0.45727,5.77789 -2.47915,6.10429z" data-paper-data="{&quot;origPos&quot;:null}" fill="#ff0021"/><path d="M256.55758,172.61038c-0.60924,0.59648 -4.58547,-3.40598 -6.84266,-5.71144c-2.25719,-2.30548 -1.59448,-2.73271 -0.98524,-3.3292c0.60924,-0.59648 3.46441,1.68024 5.72162,3.9857c2.25719,2.30548 2.71552,4.45844 2.10628,5.05491z" data-paper-data="{&quot;origPos&quot;:null}" fill="#bc041a"/><path d="M252.91014,164.7235c0.82247,-0.80524 1.99867,-0.93769 2.6271,-0.2958c0.62844,0.64189 0.47115,1.81502 -0.35132,2.62025c-0.82247,0.80524 -1.99867,0.93768 -2.62712,0.29579c-0.62844,-0.64189 -0.47114,-1.81501 0.35132,-2.62025z" data-paper-data="{&quot;origPos&quot;:null}" fill="#ffffff"/><path d="M255.02582,166.67534c0.82247,-0.80524 1.91572,-1.02238 2.44186,-0.48498c0.52614,0.5374 0.28592,1.6258 -0.53654,2.43106c-0.82247,0.80524 -1.91573,1.02239 -2.44188,0.485c-0.52614,-0.5374 -0.2859,-1.62582 0.53656,-2.43107z" data-paper-data="{&quot;origPos&quot;:null}" fill="#ffffff"/><path d="M254.89585,166.90847c-0.4906,0.48032 -1.11339,0.63978 -1.39109,0.35615c-0.27767,-0.28363 -0.10511,-0.9029 0.3855,-1.38324c0.4906,-0.48032 1.11339,-0.63978 1.39109,-0.35617c0.27767,0.28363 0.10509,0.90293 -0.38552,1.38324z" data-paper-data="{&quot;origPos&quot;:null}" fill="#000000"/><path d="M256.29002,168.22795c-0.4906,0.48032 -1.07024,0.68387 -1.29463,0.45466c-0.22441,-0.22922 -0.00864,-0.80438 0.48198,-1.2847c0.4906,-0.48032 1.07024,-0.68389 1.29463,-0.45468c0.22441,0.22922 0.00863,0.80439 -0.48199,1.28472z" data-paper-data="{&quot;origPos&quot;:null}" fill="#000000"/></g><path d="M244.60943,163.85115c-0.70739,0.48512 -1.0218,0.9735 -1.78836,1.09617c-0.52705,0.08432 -1.13958,-0.72804 -1.44145,-1.16822c-0.58913,-0.85908 -0.09827,-2.21964 1.09635,-3.03891c1.19465,-0.81927 2.64068,-0.78699 3.22982,0.07207c0.58913,0.85908 0.09829,2.21963 -1.09635,3.03889z" data-paper-data="{&quot;origPos&quot;:null}" fill="#ffdec6" stroke="none" stroke-width="0" stroke-linecap="butt"/><path d="M242.56986,163.5346c0,0 -0.37631,-0.28621 -0.44028,-0.54494c-0.07753,-0.31362 0.07771,-0.92169 0.07771,-0.92169" data-paper-data="{&quot;origPos&quot;:null}" fill="none" stroke="#f6b09a" stroke-width="0.5" stroke-linecap="round"/><path d="M253.33595,171.41966c0.35774,0.34042 -0.36211,1.04017 -1.26436,1.65892c-0.90226,0.61877 -1.8574,0.79414 -2.13337,0.39172c-0.27596,-0.40242 0.23175,-1.23023 1.13399,-1.84899c0.90226,-0.61877 1.59893,-0.83425 2.26373,-0.20166z" data-paper-data="{&quot;origPos&quot;:null,&quot;index&quot;:null}" fill="#ffffff" stroke="none" stroke-width="0" stroke-linecap="butt"/><path d="M252.70535,171.88999c0.17597,0.2566 -0.27302,0.87039 -1.00286,1.37092c-0.72985,0.50052 -1.46413,0.69822 -1.64011,0.44162c-0.17597,-0.2566 0.273,-0.87037 1.00285,-1.37089c0.72985,-0.50052 1.46418,-0.69824 1.64014,-0.44163z" data-paper-data="{&quot;origPos&quot;:null,&quot;index&quot;:null}" fill="#000000" stroke="none" stroke-width="NaN" stroke-linecap="butt"/><path d="M249.84427,171.4093c-1.03885,0.71243 -2.24,0.7665 -2.68284,0.12076c-0.44283,-0.64574 0.04034,-1.74674 1.07918,-2.45917c1.03885,-0.71243 2.13258,-1.13178 2.47366,-0.42578c0.63382,1.31199 0.16884,2.05176 -0.87,2.76419z" data-paper-data="{&quot;origPos&quot;:null}" fill="#ffffff" stroke="none" stroke-width="0" stroke-linecap="butt"/><path d="M246.81259,173.14109c1.53398,-1.05198 2.72975,-1.42891 4.06265,-0.03079c1.26182,1.32356 1.99019,1.98086 -0.27997,3.53772c-0.43564,0.29877 -1.68237,1.00345 -2.20307,1.09243c-1.5621,0.26693 -3.68465,0.1513 -6.0533,-3.3026c-0.70975,-1.03496 2.93973,-0.24476 4.47371,-1.29674z" data-paper-data="{&quot;origPos&quot;:null}" fill="#ffdebd" stroke="none" stroke-width="0" stroke-linecap="butt"/><path d="M249.54366,171.55718c-0.70821,0.48567 -1.47979,0.59148 -1.72336,0.23631c-0.24357,-0.35517 0.1331,-1.03682 0.84132,-1.5225c0.70821,-0.48567 1.47979,-0.59148 1.72337,-0.23631c0.24357,0.35517 -0.1331,1.03682 -0.84132,1.5225z" data-paper-data="{&quot;origPos&quot;:null}" fill="#000000" stroke="none" stroke-width="NaN" stroke-linecap="butt"/><path d="M249.11657,177.5948c-0.37236,1.19342 -0.37461,1.67055 -1.43588,1.22665c-0.67667,-0.28304 -1.70647,-2.14021 -0.88804,-1.34932c0.43885,0.42408 -1.32229,-0.30947 -1.76858,-0.72698c-0.32644,-0.30537 -0.58237,-1.96172 -0.36283,-1.60942c0.18258,0.29297 -1.26895,-0.33516 -1.4967,-0.59569c-0.28411,-0.32503 -0.10832,-1.92127 0.10687,-1.54103c0.15506,0.274 -0.76152,-0.20602 -0.93561,-0.46777c-0.38792,-0.58336 1.18126,-2.03779 2.20189,-2.66504c0,0 0.49989,1.5176 0.98553,3.18c0.32233,1.10331 1.47335,2.62644 1.52776,3.60345z" data-paper-data="{&quot;origPos&quot;:null,&quot;origRot&quot;:0}" fill="#5a2c0a" stroke="none" stroke-width="0" stroke-linecap="butt"/><path d="M251.82479,169.90326c-0.48053,0.32952 0.04675,-0.79277 -0.44754,-1.51355c-0.49429,-0.72078 -2.2456,-0.37887 -1.76507,-0.70841c0.48053,-0.32952 1.50314,-1.64008 2.63129,-0.18085c1.23845,1.60193 0.06185,2.07326 -0.41867,2.4028z" data-paper-data="{&quot;origPos&quot;:null}" fill="#000001" stroke="none" stroke-width="0" stroke-linecap="butt"/><path d="M254.00555,172.31003c-0.48053,0.32952 0.147,-0.64658 -0.20762,-1.16369c-0.35462,-0.51711 -1.99268,-0.0101 -1.51217,-0.33964c0.48053,-0.32952 1.58343,-1.52299 2.4173,-0.49288c0.91539,1.13085 -0.21697,1.66667 -0.69749,1.9962z" data-paper-data="{&quot;origPos&quot;:null}" fill="#000001" stroke="none" stroke-width="0" stroke-linecap="butt"/></g><path d="M232.66649,174.72747c1.15128,-0.66281 -2.80859,2.80242 -2.7507,3.42367c-1.66507,0.35865 -2.29755,-1.83167 -3.37634,-1.24884c-1.19069,0.64329 1.45594,-5.61834 4.60242,-5.63115c2.94326,-0.67888 6.1931,-3.26908 6.54899,0.57005c0.08164,2.42148 -5.69471,3.01681 -5.37854,2.83481z" data-paper-data="{&quot;origPos&quot;:null,&quot;origRot&quot;:0,&quot;index&quot;:null}" fill="#ff0021" stroke="none" stroke-width="0" stroke-linecap="butt"/><g data-paper-data="{&quot;origPos&quot;:null,&quot;origRot&quot;:0,&quot;index&quot;:null}" fill="#ffffff" stroke="none" stroke-width="0" stroke-linecap="butt"><path d="M224.43725,177.09606c0.93242,-1.29639 1.3324,-2.44136 4.38494,-0.79694c2.6072,1.40452 1.94075,2.60133 1.00833,3.89773c-0.52443,0.72913 -1.44928,1.53308 -2.34841,1.50269c-0.49761,-0.01681 -1.16887,-1.06845 -0.72758,-0.88404c0.62765,0.26228 -0.91793,0.29249 -1.213,0.12286c0,0 -0.90414,-1.0193 -0.61269,-0.87307c0.28321,0.14207 -0.76819,0.0952 -0.95655,-0.31135c-0.41199,-0.88928 -0.46744,-1.36144 0.46498,-2.65785z" data-paper-data="{&quot;origPos&quot;:null,&quot;origRot&quot;:0}"/><path d="M224.04988,179.58306c0.29526,-0.41052 0.88972,-0.53918 1.32775,-0.28733c0.43803,0.25185 0.55375,0.7888 0.25851,1.19932c-0.29526,0.41052 -0.88971,0.53917 -1.32775,0.28732c-0.43803,-0.25185 -0.55377,-0.78879 -0.25851,-1.19932z" data-paper-data="{&quot;origPos&quot;:null,&quot;origRot&quot;:0}"/></g></g></g></svg>