<svg version="1.1" xmlns="http://www.w3.org/2000/svg" xmlns:xlink="http://www.w3.org/1999/xlink" width="38.21837" height="41.95612" viewBox="0,0,38.21837,41.95612"><g transform="translate(-220.59023,-151.42631)"><g data-paper-data="{&quot;isPaintingLayer&quot;:true}" fill-rule="nonzero" stroke-linejoin="miter" stroke-miterlimit="10" stroke-dasharray="" stroke-dashoffset="0" style="mix-blend-mode: normal"><g data-paper-data="{&quot;index&quot;:null}" stroke="none" stroke-width="0" stroke-linecap="butt"><path d="M247.94755,174.53579c0,0 -4.12449,0.50283 -5.58994,-1.42659c-2.14775,-3.20199 1.54163,-3.07344 5.65463,-2.71599c2.82464,0.51018 7.57408,4.12702 6.24455,4.37987c-0.39396,0.86789 -0.47456,1.19643 -1.99225,1.96952c-0.34732,-0.51834 -5.62832,-1.994 -4.31702,-2.20682z" data-paper-data="{&quot;origRot&quot;:0}" fill="#1fff00"/><g data-paper-data="{&quot;origPos&quot;:null,&quot;origRot&quot;:0}" fill="#ffffff"><path d="M256.48768,174.04404c1.51094,0.51684 1.73919,0.9339 1.91836,1.89746c0.08188,0.44052 -0.74808,1.08765 -0.59946,0.80781c0.1529,-0.288 0.00617,1.06659 0.00617,1.06659c-0.14229,0.30918 -1.41978,1.17968 -1.06,0.60236c0.25295,-0.4059 0.31477,0.84016 -0.08114,1.14207c-0.7154,0.5455 -1.93495,0.42574 -2.78477,0.13505c-1.51094,-0.51684 -2.74736,-1.10653 -1.43535,-3.76147c1.53611,-3.10842 2.52528,-2.40669 4.03623,-1.88986z" data-paper-data="{&quot;origPos&quot;:null,&quot;origRot&quot;:0}"/><path d="M258.24384,175.84716c0.47845,0.16368 0.69509,0.66842 0.48386,1.12741c-0.21125,0.45899 -0.77034,0.6984 -1.24881,0.53473c-0.47846,-0.16368 -0.69509,-0.66843 -0.48386,-1.12743c0.21123,-0.45899 0.77035,-0.6984 1.24881,-0.53472z" data-paper-data="{&quot;origPos&quot;:null,&quot;origRot&quot;:0}"/></g></g><path d="M245.38451,177.40472c0.02599,6.36025 -1.90099,8.11811 -6.22695,8.11811c-4.32595,0 -5.55527,-0.63002 -5.62398,-7.61997c-0.06005,-6.10836 1.29802,-8.1181 5.62398,-8.1181c4.32595,0 6.19839,0.62979 6.22695,7.61997z" data-paper-data="{&quot;origPos&quot;:null}" fill="#1fff00" stroke="none" stroke-width="NaN" stroke-linecap="butt"/><path d="M245.71935,177.00032c0.02599,6.36025 1.73486,7.793 -6.5709,8.60247c-2.3092,0.22505 -5.49403,0.11861 -5.84662,-1.90816c-0.57601,-3.80178 0.01675,-3.12387 -0.01397,-6.24925c-0.02012,-2.04662 2.1132,-0.86357 3.93263,-0.50321c0.09524,-2.2038 0.21776,-5.65231 0.25372,-7.2279c1.1201,-0.13684 1.67108,-1.07072 1.69839,0.04367c0.05012,2.04491 0.53443,3.89069 0.60842,7.20895c0,0 1.55235,-0.0045 2.79419,-0.09703c0.03789,-1.85556 0.11954,-5.39601 0.15634,-6.75907c0,0 1.22305,-0.95109 1.49238,0.32599c0.01231,1.48209 0.33037,4.51365 0.43832,6.52512z" data-paper-data="{&quot;origPos&quot;:null}" fill="#003aa6" stroke="none" stroke-width="NaN" stroke-linecap="butt"/><path d="M237.21085,177.85254c0,-0.52557 0.47774,-0.95163 1.06707,-0.95163c0.58933,0 1.06708,0.42606 1.06708,0.95163c0,0.52557 -0.47775,0.95162 -1.06708,0.95162c-0.58933,0 -1.06707,-0.42605 -1.06707,-0.95162z" fill="#c7b53e" stroke="none" stroke-width="0" stroke-linecap="butt"/><path d="M242.33864,178.07791c0,-0.52557 0.47774,-0.95163 1.06707,-0.95163c0.58933,0 1.06708,0.42606 1.06708,0.95163c0,0.52557 -0.47775,0.95162 -1.06708,0.95162c-0.58933,0 -1.06707,-0.42605 -1.06707,-0.95162z" fill="#c7b53e" stroke="none" stroke-width="0" stroke-linecap="butt"/><g data-paper-data="{&quot;origPos&quot;:null}" stroke="none" stroke-width="0" stroke-linecap="butt"><path d="M248.05481,191.25214c0,1.02054 -0.31067,1.93583 -6.52847,1.49588c-2.26852,-0.02788 -2.26221,-0.43226 -2.32477,-1.45189c-0.12739,-2.07645 2.22144,-0.96791 4.49031,-0.96791c2.26887,0 4.36293,-0.93255 4.36293,0.92392z" data-paper-data="{&quot;origPos&quot;:null}" fill="#8e4108"/><path d="M244.99758,188.61234c0,2.45415 1.71564,1.99659 -2.99354,1.84785c-4.42335,-0.13971 -2.16554,-0.09764 -2.16554,-2.5518c0,-2.45416 -1.07836,-5.65238 2.59421,-5.59076c2.96088,-1.60614 2.56488,3.84054 2.56488,6.2947z" data-paper-data="{&quot;origPos&quot;:null}" fill="#003aa6"/><path d="M248.01242,192.53852c-0.00209,0.21999 -3.70432,0.62942 -4.24259,0.5854c-0.53641,-0.04388 -3.87606,-0.15684 -3.96435,-0.40777c-0.0895,-0.25437 -0.56877,-0.58867 -0.10343,-0.53838c0,0 1.471,0.33354 4.12026,0.30075c0,0 2.74522,-0.07426 3.99087,-0.38001c0.21995,0.01647 0.20438,-0.09958 0.19924,0.44001z" data-paper-data="{&quot;origPos&quot;:null,&quot;origRot&quot;:0}" fill="#f9c869"/></g><g data-paper-data="{&quot;origPos&quot;:null}" stroke="none" stroke-width="0" stroke-linecap="butt"><g data-paper-data="{&quot;origPos&quot;:null}"><path d="M242.4957,191.64613c0,1.00943 -0.30728,1.91476 -6.45738,1.47959c-2.24382,-0.02758 -2.23758,-0.42755 -2.29945,-1.43607c-0.126,-2.05384 2.19725,-0.95738 4.44142,-0.95738c2.24417,0 4.31542,-0.9224 4.31542,0.91386z" data-paper-data="{&quot;origPos&quot;:null}" fill="#8e4108"/><path d="M239.47176,188.42583c0,2.42744 1.57097,2.49707 -3.08694,2.34995c-4.37518,-0.13818 -1.82697,0.07748 -1.82697,-2.34995c0,-2.42744 -2.6246,-5.80525 1.00797,-5.74429c3.87363,0.06501 3.90593,3.31686 3.90593,5.74429z" data-paper-data="{&quot;origPos&quot;:null}" fill="#003aa6"/></g><path d="M242.23781,192.79375c-0.00209,0.21999 -3.70433,0.62942 -4.24259,0.5854c-0.53641,-0.04388 -3.87606,-0.15684 -3.96435,-0.40778c-0.0895,-0.25437 -0.56878,-0.58867 -0.10344,-0.53838c0,0 1.47101,0.33354 4.12027,0.30076c0,0 2.74521,-0.07427 3.99086,-0.38002c0.21995,0.01647 0.20438,-0.09957 0.19925,0.44002z" data-paper-data="{&quot;origPos&quot;:null,&quot;origRot&quot;:0}" fill="#f9c869"/></g><g><path d="M233.89146,167.49123c-0.21508,0.50421 -0.7022,0.72587 -1.36683,0.44236c-0.66463,-0.28351 -1.08082,-1.55319 -0.86575,-2.0574c0.21508,-0.50421 0.5279,-0.13751 1.19253,0.14601c0.66463,0.28351 1.25511,0.96483 1.04003,1.46903z" data-paper-data="{&quot;origRot&quot;:0,&quot;origPos&quot;:null}" fill="#594537" stroke="none" stroke-width="0" stroke-linecap="butt"/><path d="M246.2845,160.39258c0.03135,2.98739 1.125,3.96237 0.38112,7.24263c-1.25342,2.59109 -3.07317,4.2074 -7.96901,3.95817c-0.09709,-0.00095 -6.44602,-2.42666 -6.48593,-6.2296c-0.04368,-4.16196 -0.08506,-6.84677 4.14826,-6.89119c4.23331,-0.04442 9.88189,-2.24197 9.92557,1.91999z" data-paper-data="{&quot;origPos&quot;:null}" fill="#ffdebd" stroke="none" stroke-width="0" stroke-linecap="butt"/><path d="M237.26624,164.00143c0.18138,0.78219 0.86932,0.72654 0.57385,1.47314c-0.13879,0.35071 -1.42041,0.33332 -0.97023,0.1261c0.23758,-0.10936 -0.30051,0.59548 -0.55531,0.65456c-0.86167,0.1998 -1.06412,-0.34046 -0.95161,-1.63323c0.13069,-1.50178 -1.45899,-3.4815 -0.59732,-3.68132c0,0 1.21011,-0.7977 1.6464,-0.22806c0.56109,0.73258 0.51369,1.82032 0.85421,3.2888z" data-paper-data="{&quot;origRot&quot;:0,&quot;origPos&quot;:null}" fill="#594537" stroke="none" stroke-width="0" stroke-linecap="butt"/><path d="M235.11267,163.22513c0.009,0.85771 0.23956,1.39083 -0.08545,2.09583c-0.22346,0.48472 -1.23932,0.5411 -1.77304,0.54669c-1.04162,0.01093 -1.89834,-1.15446 -1.91354,-2.60295c-0.0152,-1.4485 0.81688,-2.63159 1.8585,-2.64252c1.04162,-0.01093 1.89834,1.15444 1.91353,2.60293z" data-paper-data="{&quot;origPos&quot;:null}" fill="#ffdec6" stroke="none" stroke-width="0" stroke-linecap="butt"/><path d="M233.71393,164.74291c0,0 -0.44728,0.15318 -0.69781,0.06222c-0.30367,-0.11025 -0.72227,-0.57782 -0.72227,-0.57782" data-paper-data="{&quot;origPos&quot;:null}" fill="none" stroke="#f6b09a" stroke-width="0.5" stroke-linecap="round"/><path d="M246.25866,160.19175c0.48197,-0.10757 0.6623,0.88001 0.67378,1.97399c0.01148,1.09399 -0.37475,1.98498 -0.86268,1.9901c-0.48792,0.00512 -0.89276,-0.87758 -0.90425,-1.97156c-0.01148,-1.09399 0.1975,-1.79264 1.09314,-1.99253z" data-paper-data="{&quot;origPos&quot;:null,&quot;index&quot;:null}" fill="#ffffff" stroke="none" stroke-width="0" stroke-linecap="butt"/><path d="M246.29814,160.97744c0.31113,-0.00326 0.5709,0.71147 0.58019,1.59641c0.00929,0.88494 -0.23542,1.60493 -0.54655,1.6082c-0.31113,0.00326 -0.5709,-0.71144 -0.58018,-1.59638c-0.00929,-0.88494 0.23542,-1.60497 0.54655,-1.60823z" data-paper-data="{&quot;origPos&quot;:null,&quot;index&quot;:null}" fill="#000000" stroke="none" stroke-width="NaN" stroke-linecap="butt"/><path d="M244.30558,163.08613c0.01322,1.2596 -0.61077,2.28737 -1.39372,2.29559c-0.78295,0.00822 -1.42836,-1.00623 -1.44158,-2.26583c-0.01322,-1.2596 0.24755,-2.40157 1.02389,-2.2917c1.4427,0.20418 1.7982,1.00234 1.81142,2.26194z" data-paper-data="{&quot;origPos&quot;:null}" fill="#ffffff" stroke="none" stroke-width="0" stroke-linecap="butt"/><path d="M244.0557,166.56863c-0.01952,-1.85993 0.33332,-3.06304 2.23684,-3.39154c1.80202,-0.31098 2.7536,-0.54993 2.78249,2.20264c0.00555,0.52822 -0.10342,1.95616 -0.31949,2.4382c-0.6482,1.44612 -1.92625,3.1447 -6.1141,3.18865c-1.25488,0.01317 1.43379,-2.57802 1.41427,-4.43795z" data-paper-data="{&quot;origPos&quot;:null}" fill="#ffdebd" stroke="none" stroke-width="0" stroke-linecap="butt"/><path d="M244.26102,163.41818c0.00901,0.8587 -0.33279,1.55848 -0.76343,1.563c-0.43064,0.00452 -0.78706,-0.68794 -0.79606,-1.54664c-0.00901,-0.8587 0.33279,-1.55849 0.76343,-1.56301c0.43064,-0.00452 0.78706,0.68794 0.79606,1.54664z" data-paper-data="{&quot;origPos&quot;:null}" fill="#000000" stroke="none" stroke-width="NaN" stroke-linecap="butt"/><path d="M249.03797,167.13517c0.78388,0.97387 1.17892,1.24145 0.21923,1.87572c-0.61191,0.40442 -2.72794,0.22553 -1.61527,-0.01382c0.59663,-0.12835 -0.9934,0.92595 -1.58872,1.06413c-0.43543,0.10108 -1.9537,-0.60873 -1.53881,-0.5949c0.34502,0.0115 -0.98504,0.86734 -1.32827,0.91141c-0.42819,0.05498 -1.65611,-0.97995 -1.22045,-0.94693c0.31393,0.0238 -0.59519,0.5178 -0.90955,0.51661c-0.70055,-0.00267 -1.03474,-2.11596 -0.98736,-3.31299c0,0 1.53888,0.42993 3.1901,0.95231c1.0959,0.3467 3.00198,0.23887 3.84378,0.73776z" data-paper-data="{&quot;origRot&quot;:0}" fill="#594537" stroke="none" stroke-width="0" stroke-linecap="butt"/><g stroke="none" stroke-width="0" stroke-linecap="butt"><path d="M246.96783,157.84611c0.34673,1.86112 -3.72151,1.99939 -7.70064,2.7407c-0.19947,0.03716 -8.31374,2.21108 -7.91067,-0.89729c-1.6874,-3.70118 4.85023,-3.29991 4.38103,-1.65779c-2.45414,0.16497 1.64366,-5.40601 7.3004,-6.60542c5.75433,0.44296 4.54442,3.59742 3.68956,5.45855z" data-paper-data="{&quot;origPos&quot;:null}" fill="#1fff00"/><path d="M249.04173,158.17899c0.15616,0.8382 -5.38254,1.91192 -8.55444,2.50285c-3.1719,0.59092 -3.1577,-0.19744 -3.31386,-1.03564c-0.15616,-0.8382 3.32487,-1.94182 6.49677,-2.53275c3.1719,-0.59092 5.21537,0.22735 5.37152,1.06555z" data-paper-data="{&quot;origPos&quot;:null}" fill="#18cd00"/></g><path d="M244.1576,160.60244c0.00611,0.58263 -0.63243,-0.48031 -1.50637,-0.47114c-0.87394,0.00917 -1.56522,1.65418 -1.57134,1.07155c-0.00611,-0.58263 -0.52517,-2.16183 1.31511,-2.28623c2.02022,-0.13656 1.75648,1.10319 1.76259,1.68582z" data-paper-data="{&quot;origPos&quot;:null}" fill="#000001" stroke="none" stroke-width="0" stroke-linecap="butt"/><path d="M247.37107,160.13141c0.00611,0.58263 -0.45517,-0.48217 -1.08217,-0.47559c-0.62699,0.00658 -1.11809,1.64948 -1.1242,1.06686c-0.00611,-0.58263 -0.3832,-2.16331 0.93677,-2.28226c1.44904,-0.13057 1.26349,1.10836 1.2696,1.69099z" data-paper-data="{&quot;origPos&quot;:null}" fill="#000001" stroke="none" stroke-width="0" stroke-linecap="butt"/></g><g data-paper-data="{&quot;index&quot;:null}" stroke="none" stroke-width="0" stroke-linecap="butt"><path d="M231.48629,175.30336c1.30736,0.23584 -3.99876,1.61845 -4.35514,2.1306c-1.50386,-0.79964 -1.5787,-1.12956 -1.95734,-2.00424c-1.32488,-0.27619 3.48741,-3.80899 6.32058,-4.26943c4.11865,-0.28509 7.80973,-0.34876 5.60603,2.81497c-1.49914,1.90337 -5.61416,1.32811 -5.61416,1.32811z" data-paper-data="{&quot;origRot&quot;:0}" fill="#1fff00"/><g data-paper-data="{&quot;origPos&quot;:null,&quot;origRot&quot;:0}" fill="#ffffff"><path d="M222.95607,174.66158c1.5198,-0.49019 2.52115,-1.17443 4.0024,1.96051c1.26514,2.6776 0.01854,3.24547 -1.50125,3.73566c-0.8548,0.27571 -2.07627,0.374 -2.78197,-0.18398c-0.39054,-0.30882 -0.30684,-1.5536 -0.06106,-1.14332c0.34958,0.58356 -0.91242,-0.30928 -1.04925,-0.62091c0,0 -0.12292,-1.35697 0.02491,-1.06631c0.14367,0.2824 -0.67478,-0.37921 -0.58517,-0.81822c0.19608,-0.96027 0.43163,-1.37325 1.95141,-1.86344z" data-paper-data="{&quot;origPos&quot;:null,&quot;origRot&quot;:0}"/><path d="M221.16853,176.43354c0.48125,-0.15524 1.03609,0.09396 1.23921,0.55659c0.20313,0.46264 -0.02235,0.9635 -0.5036,1.11875c-0.48127,0.15525 -1.03608,-0.09395 -1.23922,-0.5566c-0.20314,-0.46265 0.02235,-0.9635 0.5036,-1.11874z" data-paper-data="{&quot;origPos&quot;:null,&quot;origRot&quot;:0}"/></g></g></g></g></svg>