<svg version="1.1" xmlns="http://www.w3.org/2000/svg" xmlns:xlink="http://www.w3.org/1999/xlink" width="30.44861" height="35.9818" viewBox="0,0,30.44861,35.9818"><g transform="translate(-228.08623,-157.14783)"><g data-paper-data="{&quot;isPaintingLayer&quot;:true}" fill="none" fill-rule="nonzero" stroke="none" stroke-width="none" stroke-linecap="none" stroke-linejoin="miter" stroke-miterlimit="10" stroke-dasharray="" stroke-dashoffset="0" font-family="none" font-weight="none" font-size="none" text-anchor="none" style="mix-blend-mode: normal"><path d="M245.73578,176.81943c-0.54627,-1.1624 2.71283,-0.81976 3.4662,-1.12007c0.4912,0.97477 0.32702,1.28336 0.80327,2.37156c0.52563,1.20109 -7.70031,4.21367 -7.51693,1.0847c0.18339,-3.12896 -2.07005,-7.7843 1.53019,-8.03586c2.26195,-0.01667 1.67263,6.68207 1.5226,6.36286z" data-paper-data="{&quot;origPos&quot;:null,&quot;origRot&quot;:0}" fill="#ff0021" stroke="none" stroke-width="0" stroke-linecap="butt"/><g data-paper-data="{&quot;origPos&quot;:null,&quot;origRot&quot;:0}" fill="#ffffff" stroke="none" stroke-width="0" stroke-linecap="butt"><path d="M251.67423,179.42681c-1.33001,0.45344 -2.24714,1.10699 -3.13518,-1.99905c-0.7585,-2.6529 0.35118,-3.18765 1.68117,-3.6411c0.74805,-0.25503 1.78357,-0.3291 2.31237,0.23188c0.29265,0.31047 0.08178,1.53142 -0.07797,1.12396c-0.22723,-0.57954 0.73029,0.32052 0.80984,0.6291c0,0 -0.05025,1.33488 -0.1414,1.04676c-0.08857,-0.28001 0.52311,0.38484 0.39832,0.81434c-0.27296,0.93946 -0.51715,1.34067 -1.84714,1.7941z" data-paper-data="{&quot;origPos&quot;:null,&quot;origRot&quot;:0}"/><path d="M253.37362,177.71951c-0.42117,0.14358 -0.85832,-0.11136 -0.97642,-0.56943c-0.1181,-0.45807 0.12759,-0.94585 0.54877,-1.08943c0.42117,-0.14358 0.85832,0.11136 0.97641,0.56943c0.1181,0.45807 -0.1276,0.94584 -0.54878,1.08941z" data-paper-data="{&quot;origPos&quot;:null,&quot;origRot&quot;:0}"/></g><path d="M246.10458,177.73588c-0.29372,6.35351 -2.30661,8.01231 -6.6271,7.79488c-4.32048,-0.21743 -5.51658,-0.90844 -5.23388,-7.89301c0.24704,-6.10366 1.70441,-8.0426 6.0249,-7.82517c4.32048,0.21743 6.1589,0.94054 5.83608,7.92332z" data-paper-data="{&quot;origPos&quot;:null,&quot;origRot&quot;:0}" fill="#ff0021" stroke="none" stroke-width="NaN" stroke-linecap="butt"/><path d="M246.45933,177.34882c-0.29372,6.35351 1.34098,7.87035 -6.99497,8.26134c-2.3176,0.1087 -5.49305,-0.15768 -5.74332,-2.19961c-0.3842,-3.82593 0.17374,-3.11908 0.30015,-6.24205c0.08277,-2.04504 2.15393,-0.75626 3.95295,-0.30491c0.20588,-2.19623 0.50158,-5.63423 0.61668,-7.20602c1.12556,-0.08037 1.72279,-0.98537 1.69405,0.12898c-0.05273,2.04485 0.3382,3.91264 0.24532,7.23042c0,0 1.55061,0.07352 2.79554,0.04353c0.1311,-1.85131 0.3906,-5.38317 0.49587,-6.74266c0,0 1.26931,-0.88842 1.47411,0.40059c-0.0622,1.48084 0.10308,4.52455 0.1098,6.53891z" data-paper-data="{&quot;origPos&quot;:null,&quot;origRot&quot;:0}" fill="#0052ef" stroke="none" stroke-width="NaN" stroke-linecap="butt"/><path d="M236.62,177.70695c0.02641,-0.5249 0.52497,-0.92641 1.11355,-0.89679c0.58858,0.02962 1.04431,0.47915 1.0179,1.00406c-0.02641,0.5249 -0.52498,0.92641 -1.11356,0.89679c-0.58858,-0.02962 -1.0443,-0.47915 -1.01789,-1.00405z" data-paper-data="{&quot;origPos&quot;:null,&quot;origRot&quot;:0}" fill="#fded47" stroke="none" stroke-width="0" stroke-linecap="butt"/><path d="M242.28659,178.21778c0.02641,-0.5249 0.52497,-0.92641 1.11355,-0.89679c0.58858,0.02962 1.04432,0.47916 1.0179,1.00406c-0.02641,0.5249 -0.52498,0.9264 -1.11356,0.89678c-0.58858,-0.02962 -1.0443,-0.47915 -1.01789,-1.00405z" data-paper-data="{&quot;origPos&quot;:null,&quot;origRot&quot;:0}" fill="#ffe84f" stroke="none" stroke-width="0" stroke-linecap="butt"/><path d="M239.95455,177.04329c-0.97348,-0.90392 3.41296,0.37774 3.98934,0.13881c0.83478,1.48467 -0.1067,1.765 0.76895,2.62331c0.96649,0.94735 -6.72951,2.57712 -7.67178,-0.42498c-0.94228,-3.00208 -4.9076,-6.59965 -1.34521,-8.0744c2.28915,-0.79373 4.52604,6.0944 4.25871,5.84616z" data-paper-data="{&quot;origPos&quot;:null,&quot;origRot&quot;:0}" fill="#ff0021" stroke="none" stroke-width="0" stroke-linecap="butt"/><g data-paper-data="{&quot;origPos&quot;:null,&quot;origRot&quot;:0}" stroke="none" stroke-width="0" stroke-linecap="butt"><path d="M254.23234,185.72291c-1.37324,1.30316 -3.7018,-2.03563 -6.48797,-4.97166c-0.13967,-0.14719 -6.37698,-5.7742 -3.54929,-7.12645c2.18825,-3.42894 5.40704,2.27553 3.77384,2.77486c-1.47314,-1.96974 5.43053,-1.56077 9.5135,2.53394c2.7578,5.06981 -0.54736,5.77006 -2.5741,6.06487z" data-paper-data="{&quot;origPos&quot;:null}" fill="#ff0021"/><path d="M255.08089,187.64432c-0.61847,0.58691 -4.53177,-3.47711 -6.75273,-5.81751c-2.22094,-2.34041 -1.55166,-2.75725 -0.93318,-3.34416c0.61848,-0.58691 3.43779,1.73409 5.65874,4.07449c2.22094,2.34041 2.64563,4.50027 2.02715,5.08717z" data-paper-data="{&quot;origPos&quot;:null}" fill="#bc041a"/><path d="M251.55696,179.70148c0.83493,-0.79231 2.01305,-0.90638 2.63139,-0.25478c0.61834,0.65161 0.44278,1.82215 -0.39216,2.61445c-0.83493,0.79231 -2.01305,0.90637 -2.63141,0.25477c-0.61834,-0.65161 -0.44276,-1.82214 0.39217,-2.61445z" data-paper-data="{&quot;origPos&quot;:null}" fill="#ffffff"/><path d="M253.64193,181.6861c0.83493,-0.79231 1.93144,-0.99236 2.44914,-0.44681c0.51769,0.54554 0.26053,1.63006 -0.5744,2.42239c-0.83493,0.79231 -1.93145,0.99238 -2.44915,0.44684c-0.51769,-0.54554 -0.2605,-1.63008 0.57443,-2.42241z" data-paper-data="{&quot;origPos&quot;:null}" fill="#ffffff"/><path d="M253.50834,181.91718c-0.49804,0.4726 -1.12325,0.62233 -1.39648,0.3344c-0.27322,-0.28792 -0.091,-0.90443 0.40704,-1.37705c0.49804,-0.4726 1.12325,-0.62234 1.39648,-0.33442c0.27322,0.28792 0.09099,0.90446 -0.40705,1.37706z" data-paper-data="{&quot;origPos&quot;:null}" fill="#000000"/><path d="M254.88174,183.25824c-0.49804,0.4726 -1.08077,0.6671 -1.30157,0.43441c-0.2208,-0.23268 0.00392,-0.80442 0.50196,-1.27703c0.49804,-0.4726 1.08077,-0.66711 1.30157,-0.43443c0.2208,0.23268 -0.00392,0.80443 -0.50197,1.27704z" data-paper-data="{&quot;origPos&quot;:null}" fill="#000000"/></g><g data-paper-data="{&quot;origPos&quot;:null,&quot;origRot&quot;:0}" fill="#ffffff" stroke="none" stroke-width="0" stroke-linecap="butt"><path d="M246.12404,181.29932c-1.5911,0.13601 -2.72064,0.57763 -3.45924,-2.81006c-0.63084,-2.89346 0.71151,-3.16656 2.30261,-3.30257c0.8949,-0.07649 2.1072,0.10229 2.6694,0.80464c0.31114,0.3887 -0.05027,1.58281 -0.19751,1.12777c-0.20944,-0.64721 0.81954,0.50646 0.88283,0.84088c0,0 -0.18527,1.34985 -0.26399,1.03344c-0.0765,-0.30747 0.5723,0.52121 0.38627,0.92883c-0.40692,0.8916 -0.72926,1.24105 -2.32036,1.37706z" data-paper-data="{&quot;origPos&quot;:null,&quot;origRot&quot;:0}"/><path d="M248.26418,179.97455c-0.50384,0.04306 -0.98846,-0.32447 -1.0824,-0.82094c-0.09393,-0.49646 0.23836,-0.93382 0.7422,-0.97691c0.50384,-0.04306 0.98845,0.32446 1.08238,0.82092c0.09393,0.49646 -0.23835,0.93383 -0.7422,0.97691z" data-paper-data="{&quot;origPos&quot;:null,&quot;origRot&quot;:0}"/></g><path d="M251.46688,190.84747c-0.01838,1.02037 -0.34548,1.92992 -6.55434,1.37809c-2.26765,-0.06872 -2.25407,-0.47293 -2.29825,-1.49351c-0.08998,-2.07841 2.23852,-0.92775 4.50702,-0.88691c2.2685,0.04085 4.37902,-0.85385 4.34559,1.00233z" data-paper-data="{&quot;origPos&quot;:null,&quot;origRot&quot;:0}" fill="#8e4108" stroke="none" stroke-width="0" stroke-linecap="butt"/><path d="M248.10352,187.62788c0.91936,2.27544 1.68521,2.18867 -2.95458,2.29017c-4.69812,-0.10611 -1.17316,1.26525 -2.09253,-1.0102c-0.91937,-2.27545 -3.11729,-4.83681 0.31093,-6.15547c2.14359,-2.59837 3.81682,2.60003 4.73619,4.87548z" data-paper-data="{&quot;origPos&quot;:null}" fill="#0052ef" stroke="none" stroke-width="0" stroke-linecap="butt"/><path d="M251.40134,192.13287c-0.00606,0.21992 -3.71506,0.56262 -4.25244,0.50892c-0.53553,-0.05354 -3.87261,-0.22661 -3.95636,-0.47908c-0.0849,-0.25593 -0.55808,-0.59881 -0.09372,-0.54016c0,0 1.46476,0.35997 4.11418,0.37489c0,0 2.74611,-0.02482 3.99706,-0.30809c0.21961,0.02042 0.20614,-0.09588 0.19128,0.44353z" data-paper-data="{&quot;origPos&quot;:null,&quot;origRot&quot;:0}" fill="#f9c869" stroke="none" stroke-width="0" stroke-linecap="butt"/><g data-paper-data="{&quot;origPos&quot;:null,&quot;origRot&quot;:0}" stroke="none" stroke-width="0" stroke-linecap="butt"><g data-paper-data="{&quot;origPos&quot;:null}"><path d="M232.44472,192.94774c-0.93924,0.36982 -1.8942,0.4156 -3.74251,-5.4663c-0.79641,-2.09791 -0.42196,-2.23865 0.49377,-2.6657c1.86487,-0.8697 1.69582,1.69372 2.51801,3.78185c0.8222,2.08814 2.43931,3.67742 0.73073,4.35018z" data-paper-data="{&quot;origPos&quot;:null}" fill="#8e4108"/><path d="M234.33322,188.95424c-2.25866,0.88934 -1.74789,2.37658 -3.31752,-2.01136c-1.47436,-4.1216 -0.74145,-1.67155 1.5172,-2.56089c2.25866,-0.88934 4.44002,-4.56898 5.71417,-1.16666c1.35869,3.62812 -1.65521,4.84955 -3.91386,5.73889z" data-paper-data="{&quot;origPos&quot;:null}" fill="#0052ef"/></g><path d="M231.28241,193.12825c-0.20545,0.07865 -1.94281,-3.21617 -2.09906,-3.73313c-0.1557,-0.51518 -1.27415,-3.66401 -1.073,-3.8381c0.20389,-0.17647 0.33936,-0.74491 0.46305,-0.2935c0,0 0.22858,1.49092 1.2297,3.94397c0,0 1.07488,2.52712 1.81574,3.57414c0.06527,0.21069 0.16752,0.15369 -0.33643,0.34662z" data-paper-data="{&quot;origPos&quot;:null,&quot;origRot&quot;:0}" fill="#f9c869"/></g><g data-paper-data="{&quot;origPos&quot;:null,&quot;origRot&quot;:0}"><path d="M237.47748,166.57327c-0.40934,0.3646 -0.94448,0.3577 -1.42507,-0.18188c-0.4806,-0.53957 -0.31642,-1.8656 0.0929,-2.2302c0.40934,-0.3646 0.53619,0.10041 1.01679,0.63999c0.4806,0.53957 0.72469,1.40749 0.31536,1.77208z" data-paper-data="{&quot;origRot&quot;:0,&quot;origPos&quot;:null}" fill="#5a2c0a" stroke="none" stroke-width="0" stroke-linecap="butt"/><path d="M251.71363,165.42858c-1.24393,2.71628 -0.66964,4.06419 -2.73969,6.71528c-2.23758,1.81055 -4.57241,2.49794 -8.89591,0.18738c-0.08744,-0.04221 -4.79873,-4.94086 -3.21522,-8.39866c1.733,-3.78425 2.83898,-6.23103 6.6881,-4.46831c3.84913,1.76271 9.89573,2.18007 8.16274,5.96432z" data-paper-data="{&quot;origPos&quot;:null}" fill="#ffdebd" stroke="none" stroke-width="0" stroke-linecap="butt"/><path d="M242.01716,164.85304c-0.16902,0.78496 0.47712,1.0276 -0.10818,1.57726c-0.27493,0.25821 -1.42712,-0.30336 -0.93155,-0.29912c0.26154,0.00224 -0.52549,0.4108 -0.78119,0.35573c-0.86471,-0.18619 -0.8178,-0.76124 -0.16543,-1.88298c0.75783,-1.30311 0.16265,-3.77134 1.02738,-3.58516c0,0 1.43461,-0.20637 1.58675,0.49483c0.19567,0.90178 -0.31047,1.86576 -0.62778,3.33943z" data-paper-data="{&quot;origRot&quot;:0,&quot;origPos&quot;:null}" fill="#5a2c0a" stroke="none" stroke-width="0" stroke-linecap="butt"/><path d="M251.89413,162.55969c-0.19671,0.41791 -0.56657,0.48499 -1.01649,0.38053c-0.7,-0.16254 -1.80387,-0.95983 -1.10466,-0.79393c0.80881,0.19191 -0.61332,0.43417 -1.42728,0.26547c-0.63926,-0.1325 -1.94897,-0.94095 -1.32984,-0.73391c0.80558,0.26939 -0.56394,0.15636 -1.39789,-0.00509c-0.73431,-0.14216 -2.09679,-0.53953 -1.36672,-0.37701c1.27003,0.28272 -1.42225,0.5493 -2.35854,0.10859c-0.63329,-0.29809 -1.83778,0.40578 -2.39653,-0.01576c-1.62661,-1.22716 -1.45072,-0.92329 -0.58294,-2.76686c0.5156,-1.09539 3.69687,-2.33356 7.28601,-0.64412c3.58914,1.68944 6.21049,3.48671 5.69488,4.5821z" data-paper-data="{&quot;origPos&quot;:null}" fill="#5a2c0a" stroke="none" stroke-width="0" stroke-linecap="butt"/><path d="M240.39927,163.23349c-0.35714,0.77987 -0.37559,1.36041 -0.96989,1.85986c-0.40862,0.3434 -1.35176,-0.03823 -1.83703,-0.26047c-0.94709,-0.43373 -1.22591,-1.853 -0.62277,-3.17004c0.60314,-1.31704 1.85984,-2.03311 2.80693,-1.59938c0.94709,0.43373 1.22592,1.85299 0.62278,3.17002z" data-paper-data="{&quot;origPos&quot;:null}" fill="#ffdec6" stroke="none" stroke-width="0" stroke-linecap="butt"/><path d="M238.48732,164.01104c0,0 -0.46992,-0.0519 -0.65786,-0.2409c-0.2278,-0.22907 -0.40741,-0.8304 -0.40741,-0.8304" data-paper-data="{&quot;origPos&quot;:null}" fill="none" stroke="#f6b09a" stroke-width="0.5" stroke-linecap="round"/><path d="M251.77578,165.23587c0.48189,0.10794 0.22445,1.07827 -0.23107,2.07298c-0.45552,0.99471 -1.18444,1.63637 -1.62809,1.43319c-0.44364,-0.20317 -0.434,-1.17423 0.02152,-2.16893c0.45552,-0.99471 0.94216,-1.53782 1.83764,-1.33724z" data-paper-data="{&quot;origPos&quot;:null,&quot;index&quot;:null}" fill="#ffffff" stroke="none" stroke-width="0" stroke-linecap="butt"/><path d="M251.47689,165.96354c0.28289,0.12955 0.21353,0.88686 -0.15494,1.69148c-0.36848,0.80463 -0.89653,1.35184 -1.17942,1.22229c-0.28289,-0.12955 -0.21355,-0.88683 0.15494,-1.69145c0.36848,-0.80463 0.89654,-1.35187 1.17943,-1.22232z" data-paper-data="{&quot;origPos&quot;:null,&quot;index&quot;:null}" fill="#000000" stroke="none" stroke-width="NaN" stroke-linecap="butt"/><path d="M248.77601,167.02285c-0.52448,1.14528 -1.52677,1.80945 -2.23866,1.48343c-0.7119,-0.32601 -0.8638,-1.51873 -0.33932,-2.66401c0.52448,-1.14528 1.24677,-2.06747 1.90239,-1.63742c1.21837,0.79917 1.2001,1.67272 0.67561,2.818z" data-paper-data="{&quot;origPos&quot;:null}" fill="#ffffff" stroke="none" stroke-width="0" stroke-linecap="butt"/><path d="M247.06677,170.06732c0.77446,-1.69114 1.60609,-2.62942 3.46826,-2.11596c1.76288,0.48609 2.7256,0.67515 1.57945,3.17792c-0.21994,0.48029 -0.92667,1.72584 -1.32746,2.06997c-1.20236,1.03236 -3.0821,2.02489 -6.8899,0.28111c-1.14099,-0.52252 2.3952,-1.7219 3.16965,-3.41304z" data-paper-data="{&quot;origPos&quot;:null}" fill="#ffdebd" stroke="none" stroke-width="0" stroke-linecap="butt"/><path d="M248.59427,167.3043c-0.35756,0.78077 -0.96483,1.26834 -1.35639,1.08904c-0.39155,-0.17931 -0.41913,-0.95763 -0.06157,-1.7384c0.35756,-0.78077 0.96484,-1.26835 1.3564,-1.08904c0.39155,0.17931 0.41913,0.95763 0.06157,1.7384z" data-paper-data="{&quot;origPos&quot;:null}" fill="#000000" stroke="none" stroke-width="NaN" stroke-linecap="butt"/><path d="M251.33333,172.70179c0.29448,1.21498 0.53794,1.62533 -0.60049,1.79047c-0.72587,0.1053 -2.56423,-0.95774 -1.45557,-0.70042c0.59448,0.13796 -1.29316,0.4147 -1.89064,0.28619c-0.43701,-0.09398 -1.50841,-1.38282 -1.13892,-1.19361c0.30727,0.15734 -1.26063,0.36524 -1.58995,0.25894c-0.41083,-0.13262 -1.08106,-1.59195 -0.70095,-1.37654c0.2739,0.15523 -0.75904,0.21502 -1.04295,0.08005c-0.6327,-0.30077 -0.03506,-2.35515 0.51761,-3.41802c0,0 1.20924,1.04438 2.48076,2.22025c0.84389,0.78041 2.61439,1.49462 3.16356,2.30452z" data-paper-data="{&quot;origPos&quot;:null,&quot;origRot&quot;:0}" fill="#5a2c0a" stroke="none" stroke-width="0" stroke-linecap="butt"/><path d="M249.69988,164.71265c-0.2426,0.52975 -0.36765,-0.70392 -1.16228,-1.06782c-0.79463,-0.3639 -2.12067,0.83005 -1.87808,0.3003c0.2426,-0.52975 0.44553,-2.17964 2.16355,-1.50845c1.88601,0.73682 1.11938,1.7462 0.87679,2.27595z" data-paper-data="{&quot;origPos&quot;:null}" fill="#000001" stroke="none" stroke-width="0" stroke-linecap="butt"/><path d="M252.80796,165.65502c-0.2426,0.52975 -0.20648,-0.6301 -0.77658,-0.89118c-0.57009,-0.26108 -1.71411,1.01624 -1.47151,0.4865c0.2426,-0.52975 0.57461,-2.12051 1.81955,-1.66598c1.36666,0.49899 0.67114,1.54092 0.42853,2.07067z" data-paper-data="{&quot;origPos&quot;:null}" fill="#000001" stroke="none" stroke-width="0" stroke-linecap="butt"/></g></g></g></svg>