<svg version="1.1" xmlns="http://www.w3.org/2000/svg" xmlns:xlink="http://www.w3.org/1999/xlink" width="24.96174" height="25.42423" viewBox="0,0,24.96174,25.42423"><g transform="translate(-227.4611,-166.06224)"><g data-paper-data="{&quot;isPaintingLayer&quot;:true}" fill-rule="nonzero" stroke-linejoin="miter" stroke-miterlimit="10" stroke-dasharray="" stroke-dashoffset="0" style="mix-blend-mode: normal"><path d="M241.29557,172.10266c-0.39499,-1.22436 -0.41949,-2.85441 0.42859,-3.84098c0.64037,-0.71371 2.03294,-0.33689 2.93949,-0.00616c1.63448,0.59722 3.06576,1.60386 4.44694,2.74602c1.22453,1.01531 2.42153,2.18465 3.11307,3.62374c0.39051,0.81361 0.15952,1.84786 -0.28494,2.69765c-0.53408,1.00249 -1.51791,2.21809 -2.65603,2.16234c-1.79214,-0.08821 -3.51339,-1.15769 -4.84915,-2.33325c-1.4285,-1.37945 -2.54183,-3.19763 -3.13798,-5.04936z" data-paper-data="{&quot;index&quot;:null}" fill="#d73a54" stroke="none" stroke-width="1" stroke-linecap="round"/><path d="M239.55107,167.6296c0.87125,-0.79766 2.0105,-1.45593 3.18566,-1.56023c0.82943,-0.07414 1.72904,0.43915 2.25564,1.08491c0.52761,0.64717 0.7847,1.58407 0.68606,2.41358c-0.11305,0.94928 -0.58819,1.88596 -1.20379,2.62452c-0.91111,1.09297 -1.89235,2.44062 -3.27018,2.78421c-0.92374,0.23687 -1.76941,-0.73017 -2.49346,-1.33063c-0.73745,-0.61249 -1.94382,-1.29326 -1.80116,-2.25446c0.15907,-1.18688 1.37483,-1.48656 2.27739,-2.36556c0.24607,-0.23965 0.12104,-1.174 0.36386,-1.39632z" data-paper-data="{&quot;index&quot;:null}" fill="#f3b6ee" stroke="none" stroke-width="1" stroke-linecap="round"/><path d="M227.4611,179.78427c0.00053,-3.14496 1.28838,-5.99456 3.3685,-8.05781c2.08011,-2.06324 4.95252,-3.34009 8.12214,-3.33957c3.16964,0.00053 6.0416,1.27837 8.12102,3.34232c2.07941,2.06394 3.36629,4.91398 3.36576,8.05894c-0.00053,3.14495 -1.28838,5.99456 -3.3685,8.05781c-2.08012,2.06323 -4.95251,3.34009 -8.12214,3.33957c-3.16964,-0.00053 -6.0416,-1.27839 -8.12102,-3.34232c-2.07941,-2.06394 -3.36631,-4.91398 -3.36576,-8.05893z" data-paper-data="{&quot;index&quot;:null}" fill="#ffc0fa" stroke="none" stroke-width="0.98039" stroke-linecap="butt"/><path d="M241.08676,174.51448c-0.00559,-0.15363 0.03045,-0.29021 0.09326,-0.38679c0.06276,-0.0966 0.15223,-0.15312 0.25348,-0.14668c0.10124,0.00644 0.19526,0.07463 0.26536,0.17968c0.07015,0.10504 0.11633,0.24686 0.12191,0.40048c0.00559,0.15363 -0.03045,0.2902 -0.09325,0.3868c-0.06276,0.0966 -0.15223,0.15313 -0.25348,0.1467c-0.10124,-0.00644 -0.19525,-0.07464 -0.26536,-0.17968c-0.07015,-0.10505 -0.11631,-0.24686 -0.1219,-0.40048z" data-paper-data="{&quot;index&quot;:null}" fill="#1a0006" stroke="none" stroke-width="1" stroke-linecap="butt"/><path d="M238.3414,170.58161c-0.16255,-0.26553 -0.22595,-0.55754 -0.19712,-0.81472c0.02884,-0.25716 0.15,-0.47965 0.35649,-0.60608c0.2065,-0.12642 0.45975,-0.13314 0.7019,-0.04187c0.24214,0.09127 0.47339,0.28054 0.63595,0.54609c0.16255,0.26553 0.22595,0.55754 0.19712,0.81472c-0.02884,0.25716 -0.15,0.47965 -0.35649,0.60606c-0.2065,0.12642 -0.45975,0.13314 -0.7019,0.04187c-0.24214,-0.09126 -0.47339,-0.28054 -0.63595,-0.54608z" data-paper-data="{&quot;index&quot;:null}" fill="#ec65a4" stroke="none" stroke-width="1" stroke-linecap="butt"/><path d="M239.24401,180.95461c0.0001,-0.54096 0.11773,-1.03111 0.30756,-1.38601c0.18994,-0.35489 0.45215,-0.57455 0.74151,-0.57447c0.28936,0.00004 0.55149,0.21978 0.74132,0.57474c0.18972,0.35497 0.30719,0.84516 0.30708,1.38613c-0.0001,0.54096 -0.11773,1.03111 -0.30756,1.386c-0.18993,0.3549 -0.45215,0.57455 -0.74151,0.5745c-0.28936,-0.00004 -0.55149,-0.21978 -0.74131,-0.57474c-0.18972,-0.35495 -0.30718,-0.84515 -0.3071,-1.38611z" data-paper-data="{&quot;index&quot;:null}" fill="#ec65a4" stroke="none" stroke-width="1" stroke-linecap="butt"/><g stroke="none"><path d="M243.78884,182.57561c-1.48539,-1.318 -2.67439,-3.08761 -3.34809,-4.91257c-0.44626,-1.20661 -0.53947,-2.83419 0.26625,-3.85562c0.60971,-0.74007 2.01692,-0.42231 2.93662,-0.1301c1.65821,0.52778 3.13066,1.47317 4.55876,2.55608c1.26624,0.96278 2.51149,2.08061 3.26309,3.48924c0.42445,0.79642 0.23729,1.83948 -0.17095,2.70726c-0.49133,1.02412 -1.42305,2.28011 -2.56249,2.27241c-1.79426,-0.01258 -3.55907,-1.00852 -4.94321,-2.1267z" data-paper-data="{&quot;index&quot;:null}" fill="#e33e59" stroke-width="1" stroke-linecap="round"/><path d="M244.9526,178.84904c-2.92308,-1.76113 -4.8246,-3.96574 -4.24718,-4.92414c0.57742,-0.95838 3.41513,-0.30763 6.33821,1.45351c2.92308,1.76113 4.8246,3.96574 4.24718,4.92414c-0.57742,0.95838 -3.41513,0.30763 -6.33821,-1.45351z" fill="#ef5a73" stroke-width="0" stroke-linecap="butt"/></g><path d="M243.75731,191.48557c-0.48154,-0.01406 -2.05787,-0.19207 -2.41958,-0.56675c-0.31994,-0.3314 0.56031,-0.83806 0.35278,-1.21004c-0.60268,-1.07991 -1.21679,-2.41699 -0.9047,-3.62357c0.24588,-1.06155 1.39892,-1.73252 2.35269,-2.2628c0.77324,-0.43 1.74027,-0.68129 2.61207,-0.546c0.90984,0.17577 1.906,0.63619 2.38232,1.4203c0.5145,0.85971 0.48891,2.03193 0.25283,3.00803c-0.20317,0.83842 -0.72973,1.62193 -1.39842,2.15449c-0.94526,0.75226 -2.02659,1.65977 -3.22996,1.62634z" data-paper-data="{&quot;index&quot;:null}" fill="#ffc8fa" stroke="none" stroke-width="1" stroke-linecap="round"/><path d="M241.92547,170.5802c-1.67074,-0.47704 -2.90279,-1.35878 -2.56768,-2.2644c0.3351,-0.90562 1.99481,-0.85981 3.66554,-0.38276c1.67074,0.47704 2.75348,1.59793 2.41838,2.50353c-0.3351,0.90562 -1.84551,0.62068 -3.51624,0.14363z" fill="#f3b6ee" stroke="none" stroke-width="0" stroke-linecap="butt"/><path d="M236.06435,178.99454c0,0 0.49045,-0.94461 0.67472,-1.42121c0.12024,-0.31102 0.26788,-0.82331 0.35973,-1.15621c0.05289,-0.19171 0.19748,-0.02355 0.26628,0.16394c0.09363,0.25517 0.33156,0.90372 0.33156,0.90372" fill="none" stroke="#000000" stroke-width="0.5" stroke-linecap="round"/><path d="M237.50524,172.80377c0,0 -0.15322,0.34125 -0.21351,0.47552c-0.04429,0.09866 -0.16602,0.19764 -0.24262,0.11237c-0.13301,-0.14807 -0.34392,-0.37512 -0.50226,-0.5091c-0.24264,-0.2053 -0.8474,-0.59634 -0.8474,-0.59634" data-paper-data="{&quot;index&quot;:null}" fill="none" stroke="#000000" stroke-width="0.5" stroke-linecap="round"/></g></g></svg>