<svg version="1.1" xmlns="http://www.w3.org/2000/svg" xmlns:xlink="http://www.w3.org/1999/xlink" width="108.58168" height="83.19678" viewBox="0,0,108.58168,83.19678"><defs><linearGradient x1="242.35634" y1="195.85665" x2="242.35634" y2="207.95786" gradientUnits="userSpaceOnUse" id="color-1"><stop offset="0" stop-color="#aaecee"/><stop offset="1" stop-color="#d4f7f8"/></linearGradient></defs><g transform="translate(-185.70919,-138.40161)"><g data-paper-data="{&quot;isPaintingLayer&quot;:true}" fill-rule="nonzero" stroke-linecap="butt" stroke-linejoin="miter" stroke-miterlimit="10" stroke-dasharray="" stroke-dashoffset="0" style="mix-blend-mode: normal"><path d="M187.4592,219.84839v-79.69678h105.08167v79.69678z" fill="#310b47" stroke="#000000" stroke-width="3.5"/><path d="M206.71926,158.21622c0,-0.22136 0.27282,-0.15661 0.42272,-0.31948c0.1667,-0.18111 0.09365,-0.44305 0.33981,-0.44305c0.21092,0 0.13943,0.24302 0.29951,0.38038c0.19473,0.16709 0.46302,0.12557 0.46302,0.38216c0,0.28658 -0.26407,0.21612 -0.49916,0.38c-0.14843,0.10347 -0.08243,0.38253 -0.26337,0.38253c0,0 -0.19956,-0.238 -0.36634,-0.42056c-0.14855,-0.1626 -0.39619,0.07917 -0.39619,-0.34197z" fill="#ffffff" stroke="none" stroke-width="0"/><path d="M223.74092,164.90681c0,-0.22136 0.27282,-0.15661 0.42272,-0.31948c0.1667,-0.18111 0.09365,-0.44305 0.33981,-0.44305c0.21093,0 0.13943,0.24302 0.29951,0.38037c0.19473,0.16709 0.46302,0.12557 0.46302,0.38216c0,0.28658 -0.26407,0.21612 -0.49916,0.38c-0.14843,0.10347 -0.08243,0.38253 -0.26337,0.38253c0,0 -0.19956,-0.238 -0.36634,-0.42056c-0.14855,-0.1626 -0.39619,0.07917 -0.39619,-0.34197z" fill="#ffffff" stroke="none" stroke-width="0"/><path d="M238.99153,162.20105c0,-0.22136 0.27282,-0.15661 0.42272,-0.31948c0.1667,-0.18111 0.09365,-0.44305 0.33981,-0.44305c0.21093,0 0.13943,0.24302 0.29951,0.38037c0.19473,0.16709 0.46302,0.12557 0.46302,0.38216c0,0.28658 -0.26407,0.21612 -0.49916,0.38c-0.14843,0.10347 -0.08243,0.38253 -0.26337,0.38253c0,0 -0.19956,-0.238 -0.36634,-0.42056c-0.14855,-0.1626 -0.39619,0.07917 -0.39619,-0.34197z" fill="#ffffff" stroke="none" stroke-width="0"/><path d="M233.44884,150.14815c0,-0.22136 0.27282,-0.15661 0.42272,-0.31948c0.1667,-0.18111 0.09365,-0.44305 0.33981,-0.44305c0.21093,0 0.13943,0.24302 0.29951,0.38037c0.19473,0.16709 0.46302,0.12557 0.46302,0.38216c0,0.28658 -0.26407,0.21612 -0.49916,0.38c-0.14843,0.10347 -0.08243,0.38253 -0.26337,0.38253c0,0 -0.19956,-0.238 -0.36634,-0.42056c-0.14855,-0.1626 -0.39619,0.07917 -0.39619,-0.34197z" fill="#ffffff" stroke="none" stroke-width="0"/><path d="M257.98101,152.37835c0,-0.22136 0.27282,-0.15661 0.42272,-0.31948c0.1667,-0.18111 0.09365,-0.44305 0.33981,-0.44305c0.21093,0 0.13943,0.24302 0.29951,0.38037c0.19473,0.16709 0.46302,0.12557 0.46302,0.38216c0,0.28658 -0.26407,0.21612 -0.49916,0.38c-0.14843,0.10347 -0.08243,0.38253 -0.26337,0.38253c0,0 -0.19956,-0.238 -0.36634,-0.42056c-0.14855,-0.1626 -0.39619,0.07917 -0.39619,-0.34197z" fill="#ffffff" stroke="none" stroke-width="0"/><path d="M260.53914,167.39938c0,-0.22136 0.27282,-0.15661 0.42272,-0.31948c0.1667,-0.18111 0.09365,-0.44305 0.33981,-0.44305c0.21093,0 0.13943,0.24302 0.29951,0.38037c0.19473,0.16709 0.46302,0.12557 0.46302,0.38216c0,0.28658 -0.26407,0.21612 -0.49916,0.38c-0.14843,0.10347 -0.08243,0.38253 -0.26337,0.38253c0,0 -0.19956,-0.238 -0.36634,-0.42056c-0.14855,-0.1626 -0.39619,0.07917 -0.39619,-0.34197z" fill="#ffffff" stroke="none" stroke-width="0"/><path d="M280.1518,157.16671c0,-0.22136 0.27282,-0.15661 0.42272,-0.31948c0.1667,-0.18111 0.09365,-0.44305 0.33981,-0.44305c0.21093,0 0.13943,0.24302 0.29951,0.38038c0.19473,0.16709 0.46302,0.12557 0.46302,0.38216c0,0.28658 -0.26407,0.21612 -0.49916,0.38c-0.14843,0.10347 -0.08243,0.38253 -0.26337,0.38253c0,0 -0.19956,-0.238 -0.36634,-0.42056c-0.14855,-0.1626 -0.39619,0.07917 -0.39619,-0.34197z" fill="#ffffff" stroke="none" stroke-width="0"/><path d="M277.98717,165.23478c0,-0.22136 0.27282,-0.15661 0.42272,-0.31948c0.1667,-0.18111 0.09365,-0.44305 0.33981,-0.44305c0.21093,0 0.13943,0.24302 0.29951,0.38038c0.19473,0.16709 0.46302,0.12557 0.46302,0.38216c0,0.28658 -0.26407,0.21612 -0.49916,0.38c-0.14843,0.10347 -0.08243,0.38253 -0.26337,0.38253c0,0 -0.19956,-0.238 -0.36634,-0.42056c-0.14855,-0.1626 -0.39619,0.07917 -0.39619,-0.34197z" fill="#ffffff" stroke="none" stroke-width="0"/><path d="M192.14098,166.31708c0,-0.22136 0.27282,-0.15661 0.42272,-0.31948c0.1667,-0.18111 0.09365,-0.44305 0.33981,-0.44305c0.21093,0 0.13943,0.24302 0.29951,0.38038c0.19473,0.16709 0.46302,0.12557 0.46302,0.38216c0,0.28658 -0.26407,0.21612 -0.49916,0.38c-0.14843,0.10347 -0.08243,0.38253 -0.26337,0.38253c0,0 -0.19956,-0.238 -0.36634,-0.42056c-0.14855,-0.1626 -0.39619,0.07917 -0.39619,-0.34197z" fill="#ffffff" stroke="none" stroke-width="0"/><path d="M194.69915,149.5414c0,-0.22136 0.27282,-0.15661 0.42272,-0.31948c0.1667,-0.18111 0.09365,-0.44305 0.33981,-0.44305c0.21092,0 0.13943,0.24302 0.29951,0.38038c0.19473,0.16709 0.46302,0.12557 0.46302,0.38216c0,0.28658 -0.26407,0.21612 -0.49916,0.38c-0.14843,0.10347 -0.08243,0.38253 -0.26337,0.38253c0,0 -0.19956,-0.238 -0.36634,-0.42056c-0.14855,-0.1626 -0.39619,0.07917 -0.39619,-0.34197z" fill="#ffffff" stroke="none" stroke-width="0"/><path d="M219.23952,180c0,-11.46572 9.2948,-20.76052 20.76052,-20.76052c11.46572,0 20.76052,9.2948 20.76052,20.76052c0,11.46572 -9.2948,20.76052 -20.76052,20.76052c-11.46572,0 -20.76052,-9.2948 -20.76052,-20.76052z" fill="#fffae9" stroke="none" stroke-width="NaN"/><path d="M248.85524,166.0875c-0.22995,0 -0.42305,-0.15777 -0.47697,-0.37096c-0.1516,-0.04226 -0.29299,-0.13311 -0.58428,-0.32835c-0.25278,-0.27071 -0.80963,-0.43729 -1.18518,-0.50495c-0.14316,-0.0258 -0.29666,0.07491 -0.43478,0.02704c-0.19897,-0.06897 -0.65877,-0.33423 -0.86323,-0.50998c-0.16979,-0.14594 -0.26407,-0.40724 -0.46854,-0.48732c-0.04803,-0.01881 0.09666,0.12634 0.05269,0.15431c-0.08662,0.05513 -0.78969,0.04165 -0.88552,0c-0.28287,-0.12296 -0.45472,-0.46352 -0.74143,-0.57581c-0.04803,-0.01881 0.09666,0.12634 0.05269,0.15431c-0.08459,0.05383 -0.20401,0.03963 -0.29517,0c-0.13082,-0.05686 -0.80376,-0.75836 -0.68874,-0.42149c-0.38112,0 -0.67772,-0.17231 -1.04109,-0.23778c-0.2983,-0.05374 -0.71406,0.02704 -1.02513,0.02704c-0.56303,0 -1.21695,-0.09984 -1.77104,0c-0.15364,0.02768 -0.28107,0.15642 -0.43478,0.18371c-0.42867,0.0761 -0.90235,0.02704 -1.33626,0.02704c-0.07886,0 -0.15773,0 -0.23658,0c-0.16747,0.4799 -0.53815,0.65631 -0.98532,0.81595l-0.1187,-0.22192c-0.03589,0.0677 -0.0841,0.117 -0.13526,0.15288c0,1.96385 0,3.92771 0,5.89156c0,1.47521 0,2.95043 0,4.42564c0,0.60379 0.09201,1.30223 0,1.89671c-0.0612,0.39544 -0.22025,0.7911 -0.30986,1.18151c-0.22818,0.97748 -0.0837,2.12859 -0.0837,3.13877c0,0.31611 0,0.63224 0,0.94835c0,0.02908 0,0.05816 0,0.08724c0.03557,0.00966 0.07022,0.01814 0.09839,0.01814c0.13119,0 0.26238,0 0.39357,0c0.49195,0 0.98391,0 1.47587,0c2.32099,0 4.5537,-0.21074 6.88738,-0.21074c1.34468,0 2.68935,0 4.03403,0c0.635,0 1.33955,0.09231 1.96782,0c0.50922,-0.07482 0.93192,-0.38887 1.47587,-0.42149c2.33489,0 4.66978,0 7.00467,0c0.01977,-0.13459 0.07949,-0.30426 0.07949,-0.42149c0,-0.45404 0.12426,-1.14996 0,-1.58059c-0.13978,-0.48442 -0.60357,-0.93529 -0.73519,-1.45034c-0.07145,-0.2796 0.03965,-0.59508 -0.05194,-0.86786c-0.05012,-0.14927 -0.24489,-0.198 -0.31094,-0.33998c-0.27689,-0.59523 -0.5424,-1.28973 -0.74612,-1.91697c-0.06546,-0.21032 -0.29526,-0.32625 -0.37311,-0.53167c-0.119,-0.31398 -0.03543,-0.68654 -0.14409,-1.00479c-0.01832,-0.05365 -0.00023,0.17209 -0.05269,0.1618c-0.38913,-0.07634 -0.83642,-1.06378 -1.04538,-1.34477c-0.07437,-0.1 -0.29095,-0.23262 -0.3321,-0.34119c-0.119,-0.31398 -0.03543,-0.68654 -0.14409,-1.00479c-0.01832,-0.05365 -0.00023,0.17209 -0.05269,0.1618c-0.18249,-0.0358 -0.26238,-0.28099 -0.39357,-0.42149c-0.26238,-0.28099 -0.52475,-0.56199 -0.78713,-0.84298c-0.56732,-0.60757 -1.20452,-1.09673 -1.77104,-1.68596c-0.30156,-0.31364 -0.6234,-0.82654 -0.98391,-1.05373c-0.11652,-0.07344 -0.28494,-0.00415 -0.39805,-0.08347c-0.23917,-0.1677 -0.40895,-0.43238 -0.62431,-0.63272c-0.05707,0.20853 -0.24792,0.36178 -0.47455,0.36178zM235.19545,163.0406c0.09839,-0.03512 0.1992,-0.14747 0.29517,-0.10537c0.06581,0.02887 -0.06625,0.2817 -0.01597,0.22785c0.07333,-0.07854 0.06559,-0.21074 0.09839,-0.31611c0.18837,-0.22546 0.33738,-0.49734 0.5651,-0.67637c0.07931,-0.06236 0.19678,0 0.29517,0c0.40585,0 0.92898,0.09754 1.3203,0.02704c0.25582,-0.04609 0.48999,-0.19235 0.74591,-0.23778c0.81843,-0.14528 1.8258,-0.03011 2.65656,0c0.4331,0.0157 0.76556,0.21074 1.18069,0.21074c0.02337,0.00561 0.78763,0.05994 0.83982,0.36506c0.00961,0.05619 -0.20118,0.03681 -0.15108,0.05643c0.29716,0.11638 0.64504,0.02687 0.93821,0.15431c0.08596,0.03736 0.18007,0.11302 0.19678,0.21074c0.00961,0.05619 -0.20118,0.03681 -0.15108,0.05643c0.47399,0.18563 1.00876,-0.07163 1.52856,0.15431c0.20366,0.08853 0.48787,0.6316 0.63605,0.68866c0.23411,0.09016 0.50049,-0.01653 0.74591,0.02704c0.51141,0.09078 1.21343,0.37788 1.56977,0.75951c-0.05036,0.01881 -0.20118,0.03681 -0.15108,0.05643c0.65744,0.25747 1.24746,-0.26061 1.82373,0.47043c0.25571,0.32439 0.51578,0.28727 0.88552,0.52686c0.43136,0.27952 0.71227,0.86305 1.10571,1.19864c0.58684,0.50054 1.11569,0.96964 1.64924,1.54104c0.50484,0.54066 1.24812,1.12626 1.52157,1.84776c0.03701,0.09764 0.05026,0.22553 0,0.31611c-0.02612,0.04708 -0.16165,-0.10787 -0.14409,-0.05643c0.07477,0.21898 0.31875,0.31996 0.45503,0.50179c0.2918,0.38935 0.65133,0.78378 0.92245,1.18418c0.05905,0.08721 0.49432,0.62286 0.34087,0.89941c-0.02612,0.04708 -0.16165,-0.10787 -0.14409,-0.05643c0.1138,0.33327 0.49038,0.55662 0.6108,0.94355c0.26422,0.91061 0.83785,1.69781 1.10755,2.59018c0.03839,0.12701 -0.08874,0.26907 -0.05194,0.39661c0.19383,0.67174 0.66288,1.23214 0.83906,1.92158c0.06687,0.26167 0,0.6758 0,0.94835c0,0.70873 0.18946,2.10745 -0.78713,2.10745c-2.42698,0 -4.85396,0 -7.28094,0c-0.45388,-0.08791 -1.02078,0.35012 -1.47587,0.42149c-0.6246,0.09795 -1.3356,0 -1.96782,0c-1.34468,0 -2.68935,0 -4.03403,0c-0.75433,0 -1.50866,0 -2.26299,0c-0.37182,0 -0.86149,-0.09198 -1.22191,-0.02704c-0.25582,0.04609 -0.48999,0.19235 -0.74591,0.23778c-0.83309,0.14788 -1.8104,0 -2.65656,0c-0.97121,0 -2.19701,0.28141 -2.95173,-0.52686c-0.06957,-0.07451 0,-0.21074 0,-0.31611c0,-0.31611 0,-0.63224 0,-0.94835c0,-1.19613 -0.15805,-2.54896 0.11308,-3.71045c0.06589,-0.2784 0.23663,-0.64674 0.28048,-0.92594c0.09322,-0.5934 0,-1.29372 0,-1.89671c0,-1.47521 0,-2.95043 0,-4.42564c0,-2.10745 0,-4.2149 0,-6.32235c0,0 0,-0.52686 0.49195,-0.52686c0.08867,0 0.16136,0.01712 0.22095,0.04518l-0.02417,-0.04518c0,0 0.11308,0 0.23081,0.05806z" fill="#f6f1e0" stroke="none" stroke-width="0.5"/><path d="M230.21578,165.6078c-0.0451,-0.02831 0.09343,-0.18961 0.04622,-0.16757c-0.30588,0.14281 -0.49746,0.5835 -0.85309,0.73587c-0.24132,0.10339 -0.83048,0.21287 -0.95035,0.47136c-0.32517,0.70118 -0.38543,1.49497 -0.75954,2.20202c-0.3073,0.58078 -0.81635,1.10194 -1.0574,1.71727c-0.11502,0.29361 -0.14567,0.62918 -0.28044,0.9113c-0.09917,0.20761 -0.29402,0.35663 -0.35066,0.58477c-0.26036,0.91046 -0.79999,1.87594 -1.29601,2.64872c-0.31309,0.48777 -0.78556,0.83458 -1.00812,1.4027c-0.32417,0.82747 -0.09446,1.98603 -0.05972,2.87962c0.02914,0.74962 0.09658,1.51115 0.08788,2.26049c-0.00196,0.16886 0.14209,0.33821 0.09251,0.4966c-0.024,0.07664 -0.2658,-0.06589 -0.2133,-0.01008c0.23594,0.25085 0.75711,0.16792 1.03201,0.15722c0.88485,-0.0344 1.7697,-0.0688 2.65455,-0.1032c0.78598,-0.03055 1.6356,-0.16557 2.41787,-0.06495c0.1578,0.0203 0.73916,0.29572 0.79615,0.33217c0.04168,0.02665 0.10248,0.05695 0.14784,0.09362c-0.00636,-0.1636 -0.01272,-0.32719 -0.01908,-0.49079c-0.02636,-0.67815 -0.05273,-1.3563 -0.07909,-2.03444c-0.03545,-0.91183 -0.21834,-2.03022 -0.03068,-2.91625c0.03495,-0.165 0.25267,-0.21469 0.29653,-0.37675c0.14301,-0.52842 -0.05729,-1.47386 -0.07909,-2.03444c-0.03487,-0.89703 0.13096,-1.69696 0.09557,-2.60721c-0.07971,-2.05056 -0.15944,-4.10113 -0.23915,-6.1517c-0.1375,0.08492 -0.28147,0.13264 -0.39138,0.06366zM230.56071,164.34923c0,0 -0.02197,-0.56512 0.46961,-0.58423c0.49158,-0.01911 0.51355,0.54601 0.51355,0.54601c0.0952,2.44887 0.1904,4.89773 0.2856,7.3466c0.02977,0.76593 -0.06085,1.36607 -0.14022,2.10875c-0.08326,0.77919 0.30761,1.76691 0.12373,2.5329c-0.08716,0.36309 -0.3645,0.64271 -0.43728,1.01012c-0.03845,0.19411 0.09777,0.38808 0.10552,0.58751c0.02197,0.56512 0.04394,1.13025 0.06591,1.69537c0.03076,0.79117 0.06151,1.58235 0.09227,2.37352c0.00879,0.22605 0.13564,0.49141 0.02636,0.67815c-0.15688,0.26807 -0.38367,0.47586 -0.60584,0.67368c-0.44364,0.39502 -0.84814,-0.20463 -1.20976,-0.42928c-0.13832,-0.08593 -0.465,-0.05051 -0.63792,-0.03582c-0.61918,0.05262 -1.24714,0.04848 -1.86802,0.07262c-0.98317,0.03822 -1.96634,0.07644 -2.94951,0.11466c-0.27503,0.01069 -0.8333,0.01602 -1.05022,-0.21461c-0.85948,-0.91381 -0.63376,-2.57706 -0.68103,-3.79312c-0.03936,-1.01234 -0.27145,-2.29113 0.09628,-3.23899c0.29536,-0.76133 0.81646,-1.2067 1.22846,-1.85372c0.25361,-0.39828 0.45194,-0.87539 0.67574,-1.29836c0.15495,-0.29286 0.34523,-0.55837 0.39995,-0.89933c0.11065,-0.44564 0.39509,-0.65647 0.57099,-1.0358c0.06331,-0.13652 0.00526,-0.31892 0.0601,-0.46028c0.21579,-0.55624 0.55068,-0.91194 0.85276,-1.38633c0.23911,-0.37551 0.50962,-0.87433 0.67574,-1.29836c0.2587,-0.66037 0.16354,-1.46643 0.77431,-1.92749c0.31499,-0.23777 0.70671,-0.36673 1.05852,-0.51747c0.19331,-0.08283 0.29122,-0.351 0.47941,-0.44788c0.28764,-0.14808 0.63899,-0.06559 0.93107,-0.20197c0.04923,-0.02299 -0.10221,-0.03644 -0.15333,-0.05466l0.18784,-0.23369c0,0 0.02695,0.08104 0.06027,0.19382c-0.00029,-0.00744 -0.00058,-0.01488 -0.00087,-0.02232z" data-paper-data="{&quot;origRot&quot;:0,&quot;index&quot;:null}" fill="#f6f1e0" stroke="none" stroke-width="0.5"/><path d="M230.82503,186.15928l-0.03796,0.24833l0.02619,-0.02855c0.06792,-0.11616 0.18912,-0.21978 0.40534,-0.21978c0.29292,0 0.41143,0.19016 0.45937,0.34405c0.02105,0.05972 0.03258,0.12458 0.03258,0.19237v0.64371c0,2.10993 0,4.21986 0,6.32979c0,0.24102 0.08219,0.74476 0,0.96556c-0.22909,0.61544 -0.80082,1.20381 -1.47587,0.96556c-0.31265,-0.11035 -0.56962,-0.35829 -0.86323,-0.51923c-0.31926,-0.175 -0.75285,-0.16171 -1.06337,-0.36657c-0.73441,-0.48453 -1.35835,-1.40104 -1.96333,-2.06071c-0.29717,-0.32403 -0.76732,-0.68254 -0.98391,-1.07285c-0.48838,-0.88012 -0.34087,-1.97054 -0.34087,-2.95414c0,-0.24295 -0.12533,-1.10127 0,-1.28742c0.55399,-0.82283 1.15561,-0.75099 1.96782,-0.75099c0.79748,0 1.6724,0.11778 2.45978,0c0.32811,-0.04908 0.62356,-0.16368 0.96182,-0.20191c0.13817,-0.22723 0.41565,-0.22723 0.41565,-0.22723zM230.62824,187.4467c-0.45294,0 -0.72597,0.14196 -1.18069,0.21457c-0.78304,0.12503 -1.66529,0 -2.45978,0c-0.21442,0 -0.52521,-0.06509 -0.72995,-0.02753c-0.08453,0.01551 -0.18242,0.13493 -0.25396,0.1294c0,0.07333 0,0.14665 0,0.21998c0,0.32185 0,0.64371 0,0.96556c0,0.47943 -0.16914,1.4626 0.05269,1.87367c0.21,0.38914 0.68964,0.75197 0.98391,1.07285c0.39357,0.42914 0.78713,0.85828 1.18069,1.28742c0.06741,0.07351 0.35814,0.48851 0.39805,0.51412c0.3816,0.24484 0.89829,0.27457 1.29801,0.49171c0.13259,0.07202 0.17807,0.28439 0.31746,0.33904c0.09258,0.03631 0.21059,-0.05481 0.29517,0c0.04397,0.02849 -0.10072,0.17627 -0.05269,0.15712c0.08712,-0.03474 0.10554,-0.19635 0.19678,-0.21457c0.05246,-0.01048 0.03437,0.21936 0.05269,0.16474c0.0787,-0.23468 0,-0.71345 0,-0.96556c0,-2.10993 0,-4.33985 0,-6.44978c-0.0188,-0.00413 -0.03943,-0.0096 -0.06108,-0.01685z" data-paper-data="{&quot;index&quot;:null}" fill="#f6f1e0" stroke="none" stroke-width="0.5"/><path d="M234.80196,186.28888l0.27619,-0.01419c1.71852,-0.08831 3.43704,-0.17662 5.15555,-0.26492c0.67171,-0.03452 1.41242,-0.20153 2.07971,-0.0716c0.14464,0.02817 0.26775,0.18981 0.41234,0.2185c0.76952,0.15267 1.58101,-0.23668 2.3559,-0.08579c0.14464,0.02817 0.26724,0.19637 0.41234,0.2185c0.35161,0.05363 0.75115,-0.0386 1.10476,-0.05677c0.40567,0.00696 0.57709,0.15792 0.92698,0.22733c0.70876,0.14062 1.43142,0.08977 2.14386,0.18533c0.21515,0.02885 0.41559,0.19299 0.63074,0.22203c1.03989,0.14037 2.17686,-0.11186 3.22222,-0.16558c0.88874,-0.04567 1.78066,-0.12703 2.66984,-0.13719c0.01399,-0.00016 0.68843,-0.05765 0.79399,0.13196c0.20635,0.37062 0.393,0.78918 0.48555,1.25074c0.02489,0.12411 -0.11441,0.19551 -0.17778,0.2841c-0.11407,0.15949 -0.22298,0.33168 -0.35388,0.45921c-0.10598,0.10325 -0.26312,0.02661 -0.36994,0.12792c-0.2412,0.22873 -0.41543,0.61218 -0.67641,0.78602c-0.08412,0.05603 -0.19542,0.08027 -0.27619,0.01419c-0.04198,-0.03435 0.08903,-0.23046 0.04466,-0.20364c-0.16648,0.10063 -0.40886,0.65336 -0.53335,0.8523c-0.24708,0.35546 -0.3586,0.83826 -0.59518,1.21633c-0.22976,0.36715 -0.56291,0.52838 -0.77199,0.94887c-0.18904,0.38018 -0.33804,0.82003 -0.58042,1.12554c-0.11755,0.14817 -0.30307,0.1072 -0.43812,0.2173c-0.19429,0.15841 -0.3598,0.38511 -0.5397,0.57766c-0.39922,0.42731 -0.85751,1.07086 -1.33207,1.28376c-0.22883,0.10265 -0.48485,-0.1235 -0.71645,-0.03575c-0.43114,0.16334 -0.72552,0.65978 -1.20419,0.68438c-2.45503,0.12615 -4.91005,0.25231 -7.36508,0.37846c-1.2582,0.06466 -2.5164,0.1293 -3.7746,0.19396c-0.55862,0.02871 -1.19456,0.18792 -1.74921,0.08988c-0.6396,-0.11305 -1.11793,-0.51323 -1.14282,-1.59105c-0.05933,-2.56871 -0.11866,-5.13741 -0.17799,-7.70611c-0.13527,-0.03345 -0.37243,-0.16197 -0.38374,-0.65142c-0.01586,-0.68659 0.44446,-0.71025 0.44446,-0.71025zM235.83985,195.30935c0.00317,0.13732 -0.02508,0.28462 0.00952,0.41196c0.01875,0.06903 -0.00497,-0.22428 0.04443,-0.21339c0.08592,0.01894 0.10792,0.2249 0.19047,0.26518c0.04551,0.0222 -0.09424,-0.15999 -0.05395,-0.19857c0.24688,-0.23635 1.07825,-0.0554 1.38095,-0.07096c1.38095,-0.07096 2.7619,-0.14193 4.14285,-0.21288c2.45503,-0.12615 4.91005,-0.25231 7.36508,-0.37846c0.42172,-0.02167 0.3755,-0.35433 0.79583,-0.51825c0.36384,-0.14189 0.76071,0.00997 1.12482,-0.13037c0.13427,-0.05175 0.17435,-0.32863 0.28702,-0.44922c0.26985,-0.28883 0.5397,-0.57766 0.80954,-0.86649c0.26391,-0.28247 0.70101,-0.37881 0.92381,-0.67757c0.02698,-0.03618 -0.06746,-0.08708 -0.05658,-0.13871c0.03319,-0.15754 0.10832,-0.28915 0.17461,-0.42142c0.28686,-0.5724 0.70481,-0.84152 1.01853,-1.34285c0.1646,-0.26303 0.28211,-0.74029 0.45883,-1.03754c0.13062,-0.20874 0.36071,-0.7373 0.53335,-0.8523c0.27049,-0.18018 0.59869,-0.08026 0.87323,-0.24621c0.04628,-0.02798 -0.15036,0.00741 -0.14307,-0.06627c0.00777,-0.07841 0.03031,-0.14583 0.06362,-0.2046c-0.74283,0.03817 -1.48565,0.07634 -2.22848,0.11452c-1.57944,0.08116 -3.14221,0.17576 -4.70158,-0.03337c-0.42072,-0.05642 -0.88085,-0.12771 -1.29524,-0.20841c-0.34718,-0.06761 -0.58187,-0.29994 -0.92698,-0.22733c-0.65718,0.03377 -1.17248,-0.09078 -1.80986,-0.21724c-0.65938,-0.13082 -1.39354,0.27169 -2.06315,0.14129c-0.24084,-0.0469 -0.46434,-0.22624 -0.7051,-0.27401c-0.54272,-0.10768 -1.23089,0.09853 -1.78696,0.1271c-1.53439,0.07885 -3.06879,0.15769 -4.60317,0.23654c0.05921,2.56329 0.11841,5.12657 0.17761,7.68986z" data-paper-data="{&quot;origRot&quot;:0,&quot;index&quot;:null}" fill="#f6f1e0" stroke="none" stroke-width="0.5"/><path d="M249.15042,175.04109c0,-0.2717 0.22026,-0.49195 0.49195,-0.49195c0.2717,0 0.49195,0.22026 0.49195,0.49195c0,0.2717 -0.22026,0.49195 -0.49195,0.49195c-0.2717,0 -0.49195,-0.22026 -0.49195,-0.49195z" fill="#f6f1e0" stroke="none" stroke-width="0.5"/><path d="M239.50809,190.3901c0,-0.2717 0.22026,-0.49195 0.49195,-0.49195c0.2717,0 0.49195,0.22026 0.49195,0.49195c0,0.2717 -0.22026,0.49195 -0.49195,0.49195c-0.2717,0 -0.49195,-0.22026 -0.49195,-0.49195z" fill="#f6f1e0" stroke="none" stroke-width="0.5"/><path d="M236.94992,172.08936c0,-0.2717 0.22026,-0.49195 0.49195,-0.49195c0.2717,0 0.49195,0.22026 0.49195,0.49195c0,0.2717 -0.22026,0.49195 -0.49195,0.49195c-0.2717,0 -0.49195,-0.22026 -0.49195,-0.49195z" fill="#f6f1e0" stroke="none" stroke-width="0.5"/><path d="M245.80512,177.79604c0,-0.2717 0.22026,-0.49195 0.49195,-0.49195c0.2717,0 0.49195,0.22026 0.49195,0.49195c0,0.2717 -0.22026,0.49195 -0.49195,0.49195c-0.2717,0 -0.49195,-0.22026 -0.49195,-0.49195z" fill="#f6f1e0" stroke="none" stroke-width="0.5"/><path d="M225.14299,176.81213c0,-0.2717 0.22026,-0.49195 0.49195,-0.49195c0.2717,0 0.49195,0.22026 0.49195,0.49195c0,0.2717 -0.22026,0.49195 -0.49195,0.49195c-0.2717,0 -0.49195,-0.22026 -0.49195,-0.49195z" fill="#f6f1e0" stroke="none" stroke-width="0.5"/><path d="M222.97839,189.79975c0,-0.2717 0.22026,-0.49195 0.49195,-0.49195c0.2717,0 0.49195,0.22026 0.49195,0.49195c0,0.2717 -0.22026,0.49195 -0.49195,0.49195c-0.2717,0 -0.49195,-0.22026 -0.49195,-0.49195z" fill="#f6f1e0" stroke="none" stroke-width="0.5"/><path d="M257.21844,183.10916c0,-0.2717 0.22026,-0.49195 0.49195,-0.49195c0.2717,0 0.49195,0.22026 0.49195,0.49195c0,0.2717 -0.22026,0.49195 -0.49195,0.49195c-0.2717,0 -0.49195,-0.22026 -0.49195,-0.49195z" fill="#f6f1e0" stroke="none" stroke-width="0.5"/><path d="M244.03408,194.32574c0,-0.2717 0.22026,-0.49195 0.49195,-0.49195c0.2717,0 0.49195,0.22026 0.49195,0.49195c0,0.2717 -0.22026,0.49195 -0.49195,0.49195c-0.2717,0 -0.49195,-0.22026 -0.49195,-0.49195z" fill="#f6f1e0" stroke="none" stroke-width="0.5"/><path d="M232.8175,168.3505c0,-0.2717 0.22026,-0.49195 0.49195,-0.49195c0.2717,0 0.49195,0.22026 0.49195,0.49195c0,0.2717 -0.22026,0.49195 -0.49195,0.49195c-0.2717,0 -0.49195,-0.22026 -0.49195,-0.49195z" fill="#f6f1e0" stroke="none" stroke-width="0.5"/><path d="M252.29893,184.8802c0,-0.2717 0.22026,-0.49195 0.49195,-0.49195c0.2717,0 0.49195,0.22026 0.49195,0.49195c0,0.2717 -0.22026,0.49195 -0.49195,0.49195c-0.2717,0 -0.49195,-0.22026 -0.49195,-0.49195z" fill="#f6f1e0" stroke="none" stroke-width="0.5"/><path d="M237.73705,198.85173c0,-0.2717 0.22026,-0.49195 0.49195,-0.49195c0.2717,0 0.49195,0.22026 0.49195,0.49195c0,0.2717 -0.22026,0.49195 -0.49195,0.49195c-0.2717,0 -0.49195,-0.22026 -0.49195,-0.49195z" fill="#f6f1e0" stroke="none" stroke-width="0.5"/><path d="M250.33111,164.80842c0,-0.2717 0.22026,-0.49195 0.49195,-0.49195c0.2717,0 0.49195,0.22026 0.49195,0.49195c0,0.2717 -0.22026,0.49195 -0.49195,0.49195c-0.2717,0 -0.49195,-0.22026 -0.49195,-0.49195z" fill="#f6f1e0" stroke="none" stroke-width="0.5"/><path d="M238.3274,179.96064c0,-0.2717 0.22026,-0.49195 0.49195,-0.49195c0.2717,0 0.49195,0.22026 0.49195,0.49195c0,0.2717 -0.22026,0.49195 -0.49195,0.49195c-0.2717,0 -0.49195,-0.22026 -0.49195,-0.49195z" fill="#f6f1e0" stroke="none" stroke-width="0.5"/><path d="M242.9847,189.08436l-0.04843,-6.3584l1.23533,-5.09165l8.88209,0.92353l1.16832,1.35754l1.12007,-1.29294l0.84108,0.30301l1.25374,-0.24388l0.27927,10.68206z" fill="#9ba3a1" stroke="none" stroke-width="0"/><path d="M249.59483,179.97622l0.27897,0.0991c-0.08318,-0.04781 -0.16357,-0.13833 -0.15445,-0.30931c0.01092,-0.20481 0.13728,-0.28117 0.23775,-0.30944c0.03908,-0.01267 0.0811,-0.01852 0.12458,-0.01621c0.39952,0.0213 1.07521,-0.07224 1.44474,0.07703c0.77439,0.31281 1.42838,0.85387 2.06485,1.38647c0.22039,0.18442 0.56783,0.4642 0.73006,0.70096c0.10225,0.14922 0.12359,0.34238 0.21624,0.49775c0.16112,0.27018 0.44915,0.54098 0.60029,0.85005c0.26983,0.55179 0.33457,1.17254 0.31924,1.77634c-0.01945,0.36482 -0.3806,0.49716 -0.71549,0.4793c-0.74298,-0.03962 -1.52744,-0.15572 -2.27031,-0.12105c-0.41334,0.01929 -0.78954,0.09589 -1.21129,0.0734c-0.2773,-0.01478 -0.52368,0.00727 -0.79582,0.01987c-0.13722,0.00635 -0.31998,0.0869 -0.4118,-0.01525c-0.13838,-0.15396 -0.23389,-0.34451 -0.31648,-0.53432c-0.15119,-0.34749 0.16647,-0.90269 0.06786,-1.27275c-0.01972,-0.07402 -0.12405,-0.1028 -0.14847,-0.1754c-0.11518,-0.34246 -0.08131,-0.69099 -0.06253,-1.04322c0.03527,-0.66144 -0.06818,-1.3093 -0.03305,-1.96806l0.00304,0.00044c-0.00962,-0.10574 0.03204,-0.19567 0.03204,-0.19567zM250.45779,180.15034c-0.1376,-0.00733 -0.27519,-0.01467 -0.41279,-0.02201c-0.01018,-0.00055 -0.02024,-0.00152 -0.03015,-0.00292l0.23288,0.08272c-0.03504,0.65722 0.06836,1.30585 0.03305,1.96806c-0.01014,0.19021 -0.07897,0.5036 -0.01664,0.68404c0.06324,0.18306 0.1833,0.34605 0.22763,0.53458c0.04539,0.19299 -0.02606,0.48875 -0.03668,0.68797c-0.00714,0.13399 -0.01429,0.26797 -0.02143,0.40196c0.03527,-0.00282 0.07046,-0.00682 0.10543,-0.01133c0.25739,-0.03316 0.49961,-0.01456 0.75763,-0.0008c0.42121,0.02246 0.79299,-0.05405 1.21129,-0.0734c0.54098,-0.02503 1.10966,0.05916 1.65113,0.08804c0.20639,0.01101 0.41279,0.02201 0.61918,0.03301c0.00156,0.00008 0.00317,0.00012 0.00482,0.00013c0.03918,-0.88537 -0.45663,-1.44898 -0.89794,-2.1964c-0.03493,-0.05916 0.018,-0.14923 -0.02227,-0.20489c-0.16961,-0.23451 -0.48691,-0.49705 -0.71378,-0.68689c-0.30537,-0.25552 -0.60971,-0.60971 -0.96368,-0.79351c-0.15575,-0.08087 -0.33264,-0.11759 -0.48534,-0.20409c-0.09024,-0.05113 -0.11724,-0.18362 -0.21038,-0.22925c-0.10311,-0.05052 -0.22932,-0.01223 -0.34398,-0.01834c-0.22932,-0.01223 -0.45865,-0.02446 -0.68797,-0.03668z" data-paper-data="{&quot;index&quot;:null,&quot;origRot&quot;:0}" fill="#5a5f5e" stroke="none" stroke-width="0.5"/><path d="M247.54115,180.83637c-0.13026,0.25343 -0.14905,0.66036 -0.21237,0.94086c-0.11617,0.51469 -0.28566,1.11208 -0.19435,1.63454c0.0338,0.19338 0.1222,0.77721 0.26826,0.85413c0.06096,0.0321 0.14265,0.00986 0.20161,0.04551c0.01966,0.01188 -0.03813,0.06773 -0.01517,0.0672c0.0574,-0.00132 0.11273,-0.10682 0.15716,-0.07047c0.03768,-0.16694 0.09002,-0.39883 0.09102,-0.40323c0.08374,-0.17959 -0.00035,-0.33955 -0.01382,-0.5342c-0.01955,-0.28261 0.02398,-0.5811 0.04916,-0.86189c0.06982,-0.77856 0.26868,-1.53786 0.445,-2.299c-0.27559,0.17716 -0.62738,0.33637 -0.77651,0.62655zM248.77023,179.77186c0.20007,0.04516 0.25413,0.18255 0.26512,0.28634c0.00593,0.04065 0.00464,0.08306 -0.00495,0.12553l-0.07584,0.33602l-0.00385,-0.00087c-0.12657,0.51206 -0.27027,1.02977 -0.34505,1.54656c-0.09634,0.66588 0.00501,1.3442 -0.0963,1.99117c-0.02379,0.10541 -0.05476,0.48056 -0.12894,0.57123c-0.4071,0.49765 -1.20969,0.53512 -1.582,-0.05427c-0.55787,-0.88313 -0.35543,-2.00107 -0.14168,-2.94804c0.14905,-0.66037 0.2763,-1.32239 0.86936,-1.75116c0.13934,-0.10074 0.36087,-0.14201 0.47127,-0.27696l0.13115,-0.11166c0,0 -0.00079,0.00075 -0.00223,0.00212c0.15784,-0.13117 0.29911,0.12536 0.37932,0.32329c0.06173,-0.04208 0.14732,-0.06578 0.26461,-0.03931z" data-paper-data="{&quot;index&quot;:null,&quot;origRot&quot;:0}" fill="#5a5f5e" stroke="none" stroke-width="0.5"/><path d="M250.27677,186.12496c0.0581,0.0031 0.1162,0.0062 0.1743,0.00929c0.72338,0.03857 1.45092,0.00744 2.16498,0.04552c0.37226,0.01984 0.87011,0.13422 1.22872,0.09052c0.22953,-0.02797 0.41813,-0.14254 0.66112,-0.12959c0.1681,0.12549 0.36408,0.22045 0.5043,0.37647c0.03889,0.04328 -0.00076,0.11674 -0.00929,0.1743c-0.051,0.34422 -0.14528,0.53249 -0.39134,0.78317c-0.55539,0.56582 -1.42079,1.02411 -2.22818,1.13969c-0.26393,0.03778 -0.53695,-0.05358 -0.80461,-0.01473c-0.2277,0.02668 -0.45762,-0.03716 -0.67183,-0.01907c-0.68343,0.05769 -1.06132,0.34464 -1.65345,-0.2729c-0.04245,-0.04427 0.02423,-0.45451 0.02788,-0.52289c0.01673,-0.31373 0.03346,-0.62746 0.05019,-0.9412c0.0062,-0.1162 0.01239,-0.23239 0.01859,-0.34859c0.00235,-0.04406 0.01277,-0.08577 0.02975,-0.12378c0.0393,-0.09818 0.12987,-0.21729 0.33742,-0.20623c0.20756,0.01106 0.28494,0.13913 0.31358,0.24093c0.00034,0.00105 0.00068,0.0021 0.001,0.00315l0.05598,0.1649l0.03102,-0.07295l-0.12271,-0.32116c0,0 0.12566,0.0067 0.22206,0.0875zM250.02717,186.87246l-0.00044,0.00825c-0.01673,0.31373 -0.03346,0.62746 -0.05019,0.9412c-0.0021,0.03933 -0.00419,0.07865 -0.00629,0.11797c0.08831,0.01876 0.1983,0.06706 0.27587,0.07119c0.14777,0.00788 0.28726,-0.07575 0.43438,-0.09167c0.26581,-0.02876 0.53589,0.0436 0.79597,-0.01074c0.31295,-0.04542 0.63609,0.0542 0.94206,0.00848c0.3693,-0.05518 1.01841,-0.34694 1.31926,-0.57901c0.12661,-0.09767 0.35876,-0.31359 0.48317,-0.44356c0.01196,-0.01249 0.02329,-0.02646 0.0336,-0.04149c-0.16589,0.02911 -0.32383,0.08676 -0.52534,0.08519c-1.10735,-0.00862 -2.2078,-0.0478 -3.31534,-0.10685c-0.0581,-0.0031 -0.1162,-0.0062 -0.1743,-0.00929l-0.0147,-0.03848c-0.06262,0.05852 -0.14175,0.08059 -0.19773,0.0888z" data-paper-data="{&quot;index&quot;:null,&quot;origRot&quot;:0}" fill="#5a5f5e" stroke="none" stroke-width="0.5"/><path d="M237.39385,204.14074c-0.32492,-0.12765 -0.19727,-0.45256 -0.19727,-0.45256l0.14043,-0.28127c0.21624,-0.5406 0.60339,-0.95055 0.60339,-1.54597c0,0 0,-0.34909 0.34909,-0.34909c0.34909,0 0.34909,0.34909 0.34909,0.34909c0,0.71447 -0.40356,1.18086 -0.65332,1.80527l-0.13884,0.27727c0,0 -0.12765,0.32492 -0.45256,0.19727z" fill="#5acc62" stroke="none" stroke-width="0.5"/><path d="M232.89609,188.87491c0,2.19787 -2.68822,3.97959 -6.00429,3.97959c-3.31608,0 -6.00429,-1.78172 -6.00429,-3.97959c0,-1.72202 0.46819,-2.48727 2.03347,-3.2051c1.1711,-0.53706 3.37546,1.52274 2.35408,1.29554c-0.53751,-0.11956 2.66705,-2.10669 3.78108,-1.86058c0,0 2.62583,2.44702 1.34393,1.88277c-0.81993,-0.3609 2.49603,-0.31051 2.49603,1.88737z" fill="#5acc62" stroke="none" stroke-width="0"/><path d="M235.16515,206.67834l-2.65306,-9.14608l19.6885,-1.67562l-1.32653,8.72718l-3.66591,-1.95673l-2.99955,5.33076l-2.75237,-6.71042l-2.51359,3.73612l-1.52748,-3.63207z" fill="url(#color-1)" stroke="none" stroke-width="0"/><path d="M222.94711,193.49682l-4.32867,-5.16649h42.5886l-6.50971,5.91125l-1.79855,3.23483l-20.33676,2.09129c0,0 -2.47966,-2.81161 -3.28651,-3.5248c-0.15835,-0.13997 -6.32839,-2.54607 -6.32839,-2.54607z" data-paper-data="{&quot;index&quot;:null}" fill="#bbc6d1" stroke="none" stroke-width="0"/><path d="M233.03572,195.2632c0.90576,1.2245 0.11167,2.19925 -1.98979,2.19925c-1.92286,0 -2.75779,-1.67851 -2.75779,-1.78034c0,-1.2504 1.49246,-1.71052 1.64071,-1.71052c2.10147,0 2.54833,0.53652 3.10687,1.29162z" fill="#5acc62" stroke="none" stroke-width="0"/><path d="M229.48593,193.37545c0.70804,0.9572 0.15712,2.48716 -1.48562,2.48716c-1.50311,0 -3.06341,-2.28955 -3.06341,-2.36915c0,-0.97744 1.7252,-1.40695 1.84109,-1.40695c1.64273,0 2.27132,0.69868 2.70793,1.28894z" fill="#5acc62" stroke="none" stroke-width="0"/><path d="M235.89294,205.82038c-0.07368,0.02618 -0.13671,0.03 -0.19018,0.02016c-0.3485,0.00018 -0.64033,0.02718 -0.97398,-0.13963c-0.07505,-0.03753 -0.0803,-0.15012 -0.13963,-0.20945c-0.27303,-0.27303 -0.62176,-0.48135 -0.89653,-0.75396c-0.17514,-0.17377 -0.27931,-0.35406 -0.47353,-0.50943c-0.58264,-0.50116 -0.913,-1.18169 -1.34614,-1.79995c-0.21495,-0.30683 -0.42459,-0.53254 -0.4954,-0.91625c-0.09076,-0.49186 0.05564,-0.97431 0.23442,-1.42127c0.09073,-0.20125 0.19985,-0.40648 0.31022,-0.60669c-0.01699,-0.02385 -0.03554,-0.04616 -0.05593,-0.06655c-0.43239,-0.43239 -0.98729,-0.81355 -1.1103,-1.46481c-0.06001,-0.31775 0.3212,-0.74889 0.4371,-1.03863c0,0 0.12965,-0.32412 0.45376,-0.19447c0.32412,0.12965 0.19447,0.45377 0.19447,0.45377c-0.10495,0.26237 -0.472,0.64804 -0.40072,0.91625c0.00822,0.03093 0.03439,-0.09012 0.06176,-0.07352c0.05801,0.03519 0.0631,0.12096 0.10472,0.17454c0.19633,0.2527 0.45796,0.44818 0.67811,0.66832c0.00501,0.00501 0.00996,0.01003 0.01485,0.01508c0.03408,-0.04117 0.06573,-0.07283 0.08988,-0.08489c0.02327,-0.01164 0.02668,0.0945 0.03491,0.06982c0.04617,-0.13851 0,-0.4142 0,-0.55854c0,-0.4189 0,-0.83781 0,-1.25671c0,0 0,-0.34909 0.34909,-0.34909c0.34909,0 0.34909,0.34909 0.34909,0.34909c0,0.4189 0,0.83781 0,1.25671c0,0.14433 0.04617,0.42003 0,0.55854c-0.08586,0.25758 -0.25446,0.4854 -0.42262,0.7128c0.03846,0.10101 0.07592,0.20448 0.11839,0.30954c0.19216,0.48039 -0.05988,1.02709 0.09479,1.49109c0.00823,0.02468 0.01164,-0.08145 0.03491,-0.06982c0.12828,0.06414 0.15388,0.22584 0.31418,0.27927c0.02468,0.00823 -0.05818,-0.05818 -0.03491,-0.06982c0.17446,-0.08723 0.81721,-0.03602 1.01235,0c0.35261,0.06507 0.73875,0.2418 1.07218,0.37406c0.48807,0.19523 1.64438,0.63096 1.50428,1.37273c-0.09719,0.51456 -0.46713,0.79342 -0.76121,1.18554l-0.00621,-0.04176c-0.01833,0.0717 -0.06605,0.14542 -0.16843,0.20449c-0.30237,0.17444 -0.47682,-0.12793 -0.47682,-0.12793l0.09292,-0.45372c0.13756,-0.18341 0.38142,-0.58676 0.57338,-0.70324c0.02736,-0.0166 0.05353,0.10445 0.06176,0.07352c0.11727,-0.44122 -0.70114,-0.71029 -1.07896,-0.86142c-0.23679,-0.0957 -0.57787,-0.28268 -0.81289,-0.32412c-0.64075,-0.11299 -1.21873,0.17762 -1.74543,-0.34909c-0.42926,-0.42926 -0.20737,-0.95819 -0.25928,-1.4482c-0.14276,0.36568 -0.23228,0.68707 -0.15962,1.09911c0.02989,0.1695 0.24632,0.34274 0.34241,0.4801c0.37347,0.53388 0.68301,1.31697 1.2371,1.69092c0.22478,0.17982 0.37371,0.40533 0.57373,0.60765c0.23038,0.23302 0.54569,0.40899 0.77909,0.64238c0.05142,0.05142 0.11916,0.13578 0.17504,0.20869c0.02219,-0.02755 0.47711,0.00076 0.52313,0.00076l0.39875,0.2322c0,0 0.11689,0.32893 -0.21204,0.44583z" fill="#5acc62" stroke="none" stroke-width="0.5"/><path d="M237.79637,203.66377c-0.05091,0.34434 -0.0018,0.01107 -0.0018,0.01107l-0.03097,0.17454c-0.07801,0.32257 -0.28227,0.88121 -0.46737,1.12838c-0.21374,0.2854 -0.90307,0.1646 -1.19891,0.1646c-0.31262,0 -0.65896,0.04331 -0.96003,-0.06982c-0.01543,-0.0058 -0.19518,-0.16979 -0.22127,-0.18938c-0.59954,-0.45014 -0.90503,-1.02222 -1.31367,-1.65076l-0.19329,-0.04357l0.05109,-0.28796c-0.00223,-0.08486 0.02512,-0.18231 0.12456,-0.26839c0.00312,-0.00274 0.00629,-0.0054 0.00951,-0.00801c0.14578,-0.11954 0.26964,-0.07058 0.34608,-0.01128c0.03278,0.02343 0.06138,0.05361 0.08428,0.08881l0.18365,0.27602l-0.00452,0.00383c0.30541,0.4906 0.56608,0.95301 1.03097,1.30263c0.09471,0.07122 0.16622,0.18894 0.27423,0.22953c0.0219,0.00823 -0.05161,-0.05818 -0.03097,-0.06982c0.12859,-0.07248 0.47257,0 0.61937,0c0.20646,0 0.41292,0 0.61937,0c0.06274,0 0.12861,-0.00922 0.18528,-0.03957c-0.03133,-0.03619 0.0192,-0.11649 0.03751,-0.16852c0.04222,-0.11996 0.23326,-0.37753 0.21678,-0.52363l0.03097,-0.17454c0,0 0.66006,-0.21849 0.60915,0.12585z" fill="#5acc62" stroke="none" stroke-width="0.5"/><path d="M257.92085,192.1439c-0.05739,0.34434 -0.40173,0.28695 -0.40173,0.28695l-0.15206,-0.13488c-0.64979,0 -1.29779,-0.06982 -1.95489,-0.06982c-0.85173,0 -1.82988,0.10248 -2.65306,-0.13963c-0.0644,-0.01894 -0.07688,-0.11926 -0.13828,-0.14641c-0.29613,-0.13097 -0.67236,-0.08668 -0.9788,-0.20268c-0.07032,-0.02662 -0.09681,-0.12296 -0.16572,-0.15307c-0.23436,-0.10239 -0.48349,-0.14054 -0.71796,-0.2484c-0.00827,0.00618 -0.01627,0.01202 -0.02395,0.01747c-0.23283,0.16489 -0.47823,0.25715 -0.74307,0.35903c-0.04313,0.01659 -0.42023,0.08435 -0.44383,0.09479c-0.15269,0.06753 -0.26774,0.20458 -0.42026,0.27249c-0.48535,0.21611 -1.2607,0.07659 -1.77898,0.07659c-1.08247,0 -2.23497,-0.29966 -3.14426,-0.94005c-0.02822,-0.01987 -0.04832,-0.04846 -0.06687,-0.07869c-0.13612,0.03831 -0.27193,0.07399 -0.40491,0.1076c-0.10621,0.02685 -0.22453,-0.03059 -0.32863,0.00351c-0.15866,0.05196 -0.26774,0.20458 -0.42026,0.27249c-0.15781,0.07027 -0.4008,0.07862 -0.56961,0.10675c-0.37248,0.03989 -0.73664,0.21971 -1.11708,0.27927c-0.56519,0.08849 -1.16149,0.03966 -1.73301,0.03966c-0.4463,0 -0.92233,0.04587 -1.36008,-0.04169c-0.47669,-0.10139 -0.85177,-0.36659 -1.28055,-0.5216c-0.1734,-0.06269 -0.36789,-0.05163 -0.54112,-0.11481c-0.28677,-0.10459 -0.63027,-0.34136 -0.8663,-0.44575c-0.40255,-0.17804 -0.8176,-0.28253 -1.18887,-0.53706c-0.74245,0.03076 -1.52673,0.08891 -2.22354,-0.03968c-0.32418,-0.05983 -0.67807,-0.26957 -0.98744,-0.32412c-0.18326,-0.03231 -0.40649,0 -0.59345,0c-0.3927,-0.03223 -0.86306,-0.18258 -1.22181,-0.34909c-0.06089,-0.02826 -0.07688,-0.11926 -0.13828,-0.14641c-0.15479,-0.06846 -0.33546,-0.06401 -0.49008,-0.13285c-0.06132,-0.02731 -0.07688,-0.11926 -0.13828,-0.14641c-0.56631,-0.25046 -1.13069,-0.32656 -1.66116,-0.6802c0,0 -0.29046,-0.19364 -0.09682,-0.4841c0.19364,-0.29046 0.4841,-0.09682 0.4841,-0.09682c0.44551,0.29701 0.92801,0.36154 1.41081,0.57651c0.15252,0.06791 0.26757,0.20496 0.42026,0.27249c0.16132,0.07135 0.2614,0.02716 0.48872,0.17454c0.15182,0.09844 0.79757,0.3948 0.94254,0.31418c0.6762,0 1.19533,0.26035 1.84017,0.37406c0.21468,0.03786 0.54957,-0.02497 0.77798,-0.02497c0.08667,0 0.17334,0 0.26001,0c-0.64595,-0.50058 -1.31082,-1.01502 -2.00544,-1.53598c0,0 -0.27927,-0.20945 -0.06982,-0.48872c0.20945,-0.27927 0.48872,-0.06982 0.48872,-0.06982c0.93538,0.70153 1.81438,1.41993 2.72104,2.09452c0.12861,0 0.25723,0 0.38583,0c0.56443,0 1.13973,-0.18995 1.64206,-0.41212c0.25844,-0.1143 0.57511,-0.40758 0.91625,-0.47053c0.45154,-0.08332 0.96252,-0.02497 1.42127,-0.02497c0.58145,0 1.26494,-0.08758 1.82972,0.07333c0.91711,0.26129 1.69365,0.74777 2.56666,1.10689c0.34479,0.14777 0.63864,0.3391 0.92838,0.54242c0.05667,-0.01325 0.11284,-0.02723 0.16834,-0.04227c0.72782,-0.1973 1.36519,-0.5131 2.117,-0.56329c0.48872,0 0.97745,0 1.46616,0c0.17407,0 0.42747,-0.04549 0.59345,0c0.18929,0.05188 0.34411,0.19247 0.52869,0.2592c0.09333,0.03374 0.20178,-0.00418 0.29669,0.02482c0.44524,0.13602 0.90406,0.2942 1.33642,0.48569c0.11388,-0.06826 0.23615,-0.12812 0.38788,-0.16949c0.11818,-0.02363 0.19779,-0.14537 0.31283,-0.18132c0.67319,-0.21037 1.75773,-0.13013 2.44225,0.00678l0.03394,0.13438c0,0 0.34756,0.03258 0.31498,0.38014c-0.03258,0.34756 -0.38014,0.31498 -0.38014,0.31498l-0.1057,-0.14489c-0.49281,-0.09856 -0.9994,-0.06303 -1.50243,-0.06303c-0.128,0 -0.26257,0.04048 -0.38399,0c-0.02208,-0.00736 0.02258,-0.07546 0,-0.06982c-0.08703,0.02176 -0.16556,0.07224 -0.24501,0.12666c0.02062,0.00815 0.04117,0.0169 0.06164,0.02641c0.14341,0.06656 0.24257,0.21664 0.39282,0.26584c0.1787,0.05852 0.4899,-0.01554 0.69682,0.07659c0.15252,0.06791 0.25655,0.23975 0.42026,0.27249c0.02551,0.0051 0.00967,-0.06351 0.03491,-0.06982c0.07902,-0.01976 0.16315,-0.0063 0.24437,0c0.65387,0.05073 1.29548,0.06982 1.95489,0.06982c0.65617,0 1.30692,0.06982 1.95489,0.06982l0.26684,0.14438c0,0 0.34434,0.05739 0.28695,0.40173zM248.73957,190.64042c-0.07293,-0.0266 -0.09453,-0.13954 -0.16948,-0.1597c-0.16696,-0.04491 -0.41864,0 -0.59345,0c-0.48872,0 -0.97745,0 -1.46616,0c-0.2101,-0.04573 -0.3826,0.09789 -0.59345,0.13963c-0.33747,0.06682 -0.63136,0.11425 -0.97016,0.24745c0.349,0.17281 0.76019,0.27378 1.09737,0.38565c0.18072,0.05996 0.33327,0.19395 0.51763,0.24156c0.16556,0.04276 0.5826,-0.03685 0.78642,-0.03685c0.48019,0 1.19164,0.13617 1.64206,-0.06303c0.0614,-0.02715 0.07696,-0.11911 0.13828,-0.14641c0.24924,-0.11098 0.52056,-0.16272 0.78107,-0.24795c-0.38826,-0.12136 -0.78192,-0.21874 -1.17013,-0.36034zM236.7411,190.67009c0.09333,0.03374 0.20345,-0.00919 0.29669,0.02482c0.45183,0.1648 0.81407,0.43806 1.30269,0.52566c0.39051,0.0781 0.82398,0.02813 1.22316,0.02813c0.48177,0 0.98653,0.04429 1.46616,0c0.44462,-0.04106 0.83869,-0.2252 1.26914,-0.30943c0.15914,-0.02652 0.39797,-0.03658 0.54747,-0.10269c0.0614,-0.02715 0.07549,-0.12265 0.13828,-0.14641c0.09306,-0.03522 0.18874,-0.06534 0.28606,-0.09207c-0.08612,-0.03971 -0.17014,-0.07688 -0.24903,-0.1107c-0.8065,-0.35545 -1.53947,-0.81335 -2.39037,-1.05745c-0.53458,-0.15336 -1.18122,-0.06631 -1.73097,-0.06631c-0.35337,0 -0.82611,-0.08419 -1.16197,-0.02497c-0.39387,0.06945 -0.68992,0.35164 -1.03863,0.50691c-0.30221,0.13456 -0.63,0.25187 -0.96836,0.32906c0.34862,0.16486 0.62442,0.35618 1.00969,0.49545z" fill="#5acc62" stroke="none" stroke-width="0.5"/><path d="M248.08416,186.93524c-0.03876,0.18933 -0.07579,0.37525 -0.10339,0.56666c-0.09536,0.47726 -0.11438,0.60171 -0.69005,0.79278c-0.11911,0.03954 -0.43809,-0.25026 -0.52101,-0.33163c-0.49613,-0.4869 -0.69904,-1.15499 -0.20698,-1.73628c0.07518,-0.08881 0.22902,-0.04134 0.34353,-0.06201c0.11451,-0.02067 0.22902,-0.04134 0.34353,-0.06201c0.11451,-0.02067 0.22902,-0.04134 0.34353,-0.06201c0.04342,-0.00783 0.08641,-0.00728 0.12731,0.00052c0.10459,0.01569 0.24132,0.07647 0.27824,0.28101c0.01814,0.1005 0.00157,0.17691 -0.03095,0.23472l0.06815,-0.0286c0,0 0.04005,0.22189 -0.12255,0.3412zM247.40169,186.78478l-0.02788,0.00503c-0.11451,0.02067 -0.22902,0.04134 -0.34353,0.06201c-0.01707,0.00308 -0.03414,0.00616 -0.05121,0.00925c-0.00709,0.02598 -0.01356,0.05197 -0.012,0.07173c0.01516,0.19232 0.08895,0.3241 0.20834,0.47054c0.02455,0.03011 0.05435,0.05768 0.08692,0.08258c0.01584,-0.02912 0.02786,-0.05794 0.0274,-0.08365c0.02948,-0.20452 0.069,-0.4047 0.11043,-0.60707l0.00634,-0.00266c-0.00164,-0.00259 -0.00325,-0.00518 -0.00481,-0.00776z" data-paper-data="{&quot;index&quot;:null,&quot;origRot&quot;:0}" fill="#5a5f5e" stroke="none" stroke-width="0.5"/><g stroke="none" stroke-width="0"><path d="M235.18707,175.99807l-1.47763,-2.47086l2.14854,0.12849l10.11964,-0.12849l-0.73881,1.69992l-1.44031,-0.752l-2.21839,0.84204l-0.80317,-1.0127l-2.44578,1.0934l-1.89121,-0.05336z" data-paper-data="{&quot;origPos&quot;:null}" fill="#9ba3a1"/><path d="M223.91474,183.1345l-1.47763,-2.47086l2.14854,0.12849l10.11964,-0.12849l-0.73881,1.69992l-1.44031,-0.752l-2.21839,0.84204l-0.80317,-1.0127l-2.44578,1.0934l-1.89121,-0.05336z" data-paper-data="{&quot;origPos&quot;:null}" fill="#9ba3a1"/><g data-paper-data="{&quot;origPos&quot;:null}"><path d="M246.82432,183.41834l-1.47763,-2.47086l2.14854,0.12849l10.11964,-0.12849l-0.73881,1.69992l-1.44031,-0.752l-2.21839,0.84204l-0.80317,-1.0127l-2.44578,1.0934l-1.89121,-0.05336z" data-paper-data="{&quot;origPos&quot;:null}" fill="#3f4241"/><path d="M246.4594,183.17505l-1.47763,-2.47086l2.14854,0.12849l10.11964,-0.12849l-0.73881,1.69992l-1.44031,-0.752l-2.21839,0.84204l-0.80317,-1.0127l-2.44578,1.0934l-1.89121,-0.05336z" data-paper-data="{&quot;origPos&quot;:null}" fill="#8e9593"/></g></g><path d="M187.08004,219.29563v-16.84487h105.64248v16.84487z" fill="#ffffff" stroke="none" stroke-width="0"/><text transform="translate(203.57758,215.3895) scale(0.36373,0.36373)" font-size="40" xml:space="preserve" fill="#000000" fill-rule="nonzero" stroke-opacity="0" stroke="#000000" stroke-width="0" stroke-linecap="butt" stroke-linejoin="miter" stroke-miterlimit="10" stroke-dasharray="" stroke-dashoffset="0" font-family="Sans Serif" font-weight="normal" text-anchor="start" style="mix-blend-mode: normal"><tspan x="0" dy="0">Battlefield</tspan></text><path d="M187.45919,219.84839v-79.69678h105.08167v79.69678z" fill="none" stroke="#000000" stroke-width="3.5"/></g></g></svg>