<svg version="1.1" xmlns="http://www.w3.org/2000/svg" xmlns:xlink="http://www.w3.org/1999/xlink" width="874.43893" height="539.6286" viewBox="0,0,874.43893,539.6286"><g transform="translate(207.24674,87.63923)"><g data-paper-data="{&quot;isPaintingLayer&quot;:true}" fill-rule="nonzero" stroke="none" stroke-width="0" stroke-linecap="butt" stroke-linejoin="miter" stroke-miterlimit="10" stroke-dasharray="" stroke-dashoffset="0" style="mix-blend-mode: normal"><path d="M-0.26977,438.67006v-517.62431h517.62431v517.62431z" fill="#3dcfd9"/><path d="M-181.51786,303.20612c0,-69.46692 56.31406,-125.78099 125.78098,-125.78099c69.46692,0 125.78098,56.31407 125.78098,125.78099c0,69.46692 -56.31406,125.78098 -125.78098,125.78098c-69.46692,0 -125.78098,-56.31406 -125.78098,-125.78098z" fill="#ffffff"/><path d="M-34.931,206.26964c0,-41.00115 33.238,-74.23915 74.23915,-74.23915c41.00115,0 74.23915,33.23801 74.23915,74.23916c0,41.00115 -33.238,74.23915 -74.23915,74.23915c-41.00115,0 -74.23915,-33.238 -74.23915,-74.23915z" fill="#ffffff"/><path d="M-148.4176,123.99186c0,-51.96962 42.1297,-94.0993 94.09931,-94.0993c51.96962,0 94.09931,42.12968 94.09931,94.09931c0,51.96962 -42.12969,94.09931 -94.0993,94.09931c-51.96961,0 -94.09931,-42.12968 -94.09931,-94.0993z" fill="#ffffff"/><path d="M-39.65962,11.92384c0,-39.69538 32.17946,-71.87484 71.87484,-71.87484c39.69538,0 71.87486,32.17947 71.87486,71.87484c0,39.69538 -32.17947,71.87485 -71.87485,71.87485c-39.69538,0 -71.87484,-32.17946 -71.87484,-71.87485z" fill="#ffffff"/><path d="M-187.19218,24.69109c0,-51.96961 42.1297,-94.0993 94.09931,-94.0993c51.96962,0 94.09931,42.1297 94.09931,94.09931c0,51.96961 -42.1297,94.09931 -94.0993,94.09931c-51.96961,0 -94.09931,-42.12969 -94.09931,-94.0993z" fill="#ffffff"/><path d="M8.21234,356.35576c0,-30.24869 24.5214,-54.7701 54.77008,-54.7701c30.24868,0 54.7701,24.52141 54.7701,54.7701c0,30.24869 -24.52142,54.7701 -54.7701,54.7701c-30.24868,0 -54.77008,-24.52141 -54.77008,-54.7701z" fill="#ffffff"/><path d="M84.71661,349.40082c0,-32.16924 26.07832,-58.24755 58.24756,-58.24755c32.16924,0 58.24756,26.07831 58.24756,58.24755c0,32.16924 -26.07832,58.24756 -58.24756,58.24756c-32.16924,0 -58.24756,-26.07832 -58.24756,-58.24756z" fill="#ffffff"/><path d="M171.65325,381.56739c0,-20.16578 16.3476,-36.51339 36.5134,-36.51339c20.1658,0 36.51339,16.34759 36.51339,36.51339c0,20.16578 -16.3476,36.5134 -36.51339,36.5134c-20.1658,0 -36.5134,-16.3476 -36.5134,-36.5134z" fill="#ffffff"/><path d="M185.56313,347.66211c0,-38.89116 31.52751,-70.41869 70.41869,-70.41869c38.89118,0 70.41869,31.52753 70.41869,70.41869c0,38.89117 -31.52752,70.41868 -70.41869,70.41868c-38.89118,0 -70.41869,-31.52752 -70.41869,-70.41868z" fill="#ffffff"/><path d="M295.1033,325.92794c0,-24.96717 20.23989,-45.20706 45.20706,-45.20706c24.96717,0 45.20707,20.23989 45.20707,45.20707c0,24.96717 -20.23989,45.20706 -45.20706,45.20706c-24.96717,0 -45.20706,-20.23989 -45.20706,-45.20706z" fill="#ffffff"/><path d="M300.31949,375.48183c0,-39.85145 32.30598,-72.15742 72.15743,-72.15742c39.85145,0 72.15742,32.30597 72.15742,72.15742c0,39.85145 -32.30597,72.15742 -72.15742,72.15742c-39.85145,0 -72.15743,-32.30597 -72.15743,-72.15742z" fill="#ffffff"/><path d="M420.29208,372.00437c0,-35.05007 28.4137,-63.46375 63.46375,-63.46375c35.05007,0 63.46375,28.41369 63.46375,63.46375c0,35.05007 -28.41369,63.46376 -63.46375,63.46376c-35.05007,0 -63.46375,-28.41369 -63.46375,-63.46376z" fill="#ffffff"/><path d="M425.50828,230.29761c0,-26.88772 21.79679,-48.68452 48.68452,-48.68452c26.88772,0 48.68454,21.7968 48.68454,48.68452c0,26.88772 -21.79681,48.68453 -48.68454,48.68453c-26.88772,0 -48.68452,-21.7968 -48.68452,-48.68453z" fill="#ffffff"/><path d="M446.37308,282.45961c0,-53.77544 43.59361,-97.36906 97.36905,-97.36906c53.77544,0 97.36905,43.59362 97.36905,97.36906c0,53.77544 -43.59361,97.36904 -97.36905,97.36904c-53.77544,0 -97.36905,-43.59361 -97.36905,-97.36904z" fill="#ffffff"/><path d="M448.11182,124.2349c0,-60.49737 49.04281,-109.54017 109.54018,-109.54017c60.49737,0 109.54019,49.04282 109.54019,109.54019c0,60.49737 -49.04282,109.54019 -109.54019,109.54019c-60.49737,0 -109.54018,-49.0428 -109.54018,-109.54017z" fill="#ffffff"/><path d="M385.51743,29.47395c0,-43.69254 35.41982,-79.11236 79.11236,-79.11236c43.69254,0 79.11234,35.41982 79.11234,79.11236c0,43.69254 -35.4198,79.11236 -79.11234,79.11236c-43.69254,0 -79.11236,-35.41981 -79.11236,-79.11236z" fill="#ffffff"/><path d="M182.08565,-3.56198c0,30.24868 -27.63524,54.77009 -61.72503,54.77009c-34.08979,0 -61.72502,-24.5214 -61.72502,-54.77008c0,-30.24868 27.63523,-54.77009 61.72502,-54.77009c34.08979,0 61.72503,24.52141 61.72503,54.7701z" fill="#ffffff"/><path d="M211.64411,-60.07081c34.56993,0 62.5944,32.6952 62.5944,73.02679c0,40.33158 -28.02447,73.02678 -62.5944,73.02678c-34.56993,0 -62.5944,-32.6952 -62.5944,-73.02678c0,-40.33157 28.02447,-73.02678 62.5944,-73.02678z" fill="#ffffff"/><path d="M251.63498,-0.95387c0,-32.64937 11.67685,-59.11692 26.08099,-59.11692c14.40414,0 26.081,26.46756 26.081,59.11693c0,32.64937 -11.67686,59.11692 -26.081,59.11692c-14.40414,0 -26.08099,-26.46756 -26.08099,-59.11693z" fill="#ffffff"/><path d="M277.71596,-0.95388c0,-35.53019 28.80293,-64.33312 64.33313,-64.33312c35.53019,0 64.33312,28.80292 64.33312,64.33313c0,35.53021 -28.80292,64.33313 -64.33312,64.33313c-35.53019,0 -64.33313,-28.80292 -64.33313,-64.33313z" fill="#ffffff"/><path d="M143.67878,125.48331c0,-10.87224 8.81369,-19.68594 19.68594,-19.68594c10.87224,0 19.68594,8.8137 19.68594,19.68594c0,10.87224 -8.81369,19.68593 -19.68593,19.68593c-10.87224,0 -19.68593,-8.81369 -19.68593,-19.68593z" fill="#ffffff"/><path d="M150.62676,119.69333c7.67452,0 13.89595,5.96222 13.89595,13.31696c0,7.35475 -6.22143,13.31695 -13.89595,13.31695c-7.67452,0 -13.89596,-5.96221 -13.89596,-13.31695c0,-7.35474 6.22143,-13.31696 13.89596,-13.31696z" fill="#ffffff"/><path d="M164.52271,127.7993c0,-7.03498 5.70298,-12.73796 12.73796,-12.73796c7.03498,0 12.73796,5.70298 12.73796,12.73796c0,7.03498 -5.70298,12.73796 -12.73795,12.73796c-7.03498,0 -12.73796,-5.70298 -12.73796,-12.73796z" fill="#ffffff"/><path d="M317.37822,171.22416c0,-12.4711 10.10982,-22.58093 22.58093,-22.58093c12.47111,0 22.58092,10.10983 22.58092,22.58093c0,12.4711 -10.10981,22.58092 -22.58092,22.58092c-12.47111,0 -22.58093,-10.10982 -22.58093,-22.58092z" fill="#ffffff"/><path d="M301.16628,186.85711c0,-8.95362 7.25833,-16.21195 16.21195,-16.21195c8.95362,0 16.21195,7.25833 16.21195,16.21195c0,8.95362 -7.25833,16.21194 -16.21195,16.21194c-8.95362,0 -16.21195,-7.25833 -16.21195,-16.21194z" fill="#ffffff"/><path d="M330.11618,145.74824c0,-7.99429 6.48066,-14.47495 14.47496,-14.47495c7.9943,0 14.47495,6.48066 14.47495,14.47495c0,7.99429 -6.48065,14.47495 -14.47495,14.47495c-7.9943,0 -14.47496,-6.48066 -14.47496,-14.47495z" fill="#ffffff"/><path d="M352.11811,177.59314c0,-7.03498 5.70297,-12.73796 12.73796,-12.73796c7.03498,0 12.73796,5.70298 12.73796,12.73796c0,7.03498 -5.70298,12.73796 -12.73796,12.73796c-7.03498,0 -12.73795,-5.70298 -12.73795,-12.73795z" fill="#ffffff"/><path d="M366.13801,181.56802c-1.23595,-11.12356 6.77953,-21.14292 17.90309,-22.37888c11.12356,-1.23595 21.14293,6.77954 22.37888,17.9031c1.23595,11.12356 -6.77955,21.14292 -17.90311,22.37888c-11.12356,1.23595 -21.14291,-6.77955 -22.37886,-17.90311z" fill="#ffffff"/><path d="M174.94469,256.91588c0,11.19202 -7.25833,20.26494 -16.21194,20.26494c-8.95361,0 -16.21195,-9.07292 -16.21195,-20.26494c0,-11.19202 7.25833,-20.26493 16.21195,-20.26493c8.95361,0 16.21194,9.07291 16.21194,20.26493z" fill="#ffffff"/><path d="M140.20479,250.5469c5.75589,0 10.42197,6.48066 10.42197,14.47495c0,7.9943 -4.66608,14.47495 -10.42196,14.47495c-5.75589,0 -10.42196,-6.48066 -10.42196,-14.47495c0,-7.9943 4.66608,-14.47495 10.42197,-14.47495z" fill="#ffffff"/><path d="M167.9967,240.12494c0,-9.59315 7.77678,-17.36995 17.36994,-17.36995c9.59315,0 17.36995,7.77679 17.36995,17.36995c0,9.59315 -7.77679,17.36994 -17.36995,17.36994c-9.59315,0 -17.36994,-7.77679 -17.36994,-17.36994z" fill="#ffffff"/><path d="M188.84064,254.59989c0,-8.63385 6.9991,-15.63295 15.63295,-15.63295c8.63385,0 15.63295,6.9991 15.63295,15.63295c0,8.63385 -6.9991,15.63295 -15.63295,15.63295c-8.63385,0 -15.63295,-6.9991 -15.63295,-15.63295z" fill="#ffffff"/><path d="M354.13381,-18.15946v-69.47977h93.7977v69.47977z" fill="#ffffff"/><path d="M-123.00301,-2.43981v-84.55718h724.5045v84.55718z" fill="#ffffff"/><path d="M511.97248,451.50151v-507.99538h89.52902v507.99538z" fill="#ffffff"/><path d="M-118.4985,451.98938v-88.06282h716.997v88.06282z" fill="#ffffff"/><path d="M-207.24674,246.80944v-99.0991h112.61261v99.0991z" fill="#ffffff"/></g></g></svg>