<svg version="1.1" xmlns="http://www.w3.org/2000/svg" xmlns:xlink="http://www.w3.org/1999/xlink" width="26.3184" height="28.40131" viewBox="0,0,26.3184,28.40131"><defs><linearGradient x1="246.86745" y1="172.2123" x2="247.45028" y2="179.77727" gradientUnits="userSpaceOnUse" id="color-1"><stop offset="0" stop-color="#fe7ccc"/><stop offset="1" stop-color="#fe7ccc" stop-opacity="0"/></linearGradient><linearGradient x1="249.87741" y1="172.5754" x2="250.17562" y2="179.72672" gradientUnits="userSpaceOnUse" id="color-2"><stop offset="0" stop-color="#fe7ccc"/><stop offset="1" stop-color="#fe7ccc" stop-opacity="0"/></linearGradient></defs><g transform="translate(-226.75731,-166.69683)"><g data-paper-data="{&quot;isPaintingLayer&quot;:true}" fill-rule="nonzero" stroke-miterlimit="10" stroke-dasharray="" stroke-dashoffset="0" style="mix-blend-mode: normal"><path d="M248.50792,183.96375c1.28509,0.06003 2.81997,0.60941 3.44596,1.74988c0.44343,0.85018 -0.39832,2.0218 -1.0263,2.75452c-1.13308,1.32073 -2.57816,2.30747 -4.13253,3.1997c-1.38061,0.7901 -2.89578,1.50033 -4.48604,1.64258c-0.89892,0.07999 -1.78623,-0.49943 -2.42586,-1.21396c-0.75115,-0.85206 -1.54393,-2.20006 -1.09214,-3.24614c0.71183,-1.64707 2.31755,-2.88324 3.88725,-3.72123c1.79318,-0.85323 3.8865,-1.25731 5.82965,-1.16536z" data-paper-data="{&quot;index&quot;:null}" fill="#d73a54" stroke="none" stroke-width="1" stroke-linecap="round" stroke-linejoin="miter"/><path d="M250.60521,177.70022c0.9998,0.62907 1.93612,1.55348 2.34771,2.65913c0.29102,0.78023 0.03411,1.78361 -0.44924,2.46234c-0.48445,0.68008 -1.3199,1.17597 -2.14594,1.30038c-0.94535,0.14223 -1.97437,-0.06808 -2.84953,-0.46625c-1.29512,-0.58936 -2.85442,-1.17893 -3.55042,-2.4167c-0.4729,-0.82811 0.23583,-1.89957 0.62327,-2.75671c0.39548,-0.87326 0.7327,-2.21677 1.69737,-2.33361c1.51018,-0.20454 3.02606,0.73302 4.32677,1.55142z" data-paper-data="{&quot;index&quot;:null}" fill="#f3b6ee" stroke="none" stroke-width="1" stroke-linecap="round" stroke-linejoin="miter"/><path d="M241.09684,166.73875c3.13346,0.26873 5.86285,1.7949 7.74119,4.04339c1.87833,2.24849 2.90558,5.21932 2.63475,8.37735c-0.27084,3.15805 -1.78893,5.91057 -4.02269,7.80641c-2.23375,1.89583 -5.18315,2.93498 -8.31662,2.66624c-3.13345,-0.26873 -5.86285,-1.7949 -7.74119,-4.04339c-1.87832,-2.24849 -2.90558,-5.21931 -2.63475,-8.37735c0.27084,-3.15805 1.78894,-5.91057 4.0227,-7.80641c2.23375,-1.89583 5.18316,-2.93498 8.31661,-2.66624z" data-paper-data="{&quot;index&quot;:null}" fill="#ffc0fa" stroke="none" stroke-width="0.98039" stroke-linecap="butt" stroke-linejoin="miter"/><path d="M248.18545,180.49182c0.15355,0.01317 0.28655,0.09634 0.37743,0.22019c0.09089,0.12376 0.13958,0.28811 0.12453,0.46357c-0.01505,0.17545 -0.09101,0.32911 -0.20165,0.43559c-0.11064,0.10657 -0.25587,0.16588 -0.40942,0.15271c-0.15355,-0.01317 -0.28655,-0.09633 -0.37744,-0.22019c-0.09089,-0.12376 -0.13959,-0.28811 -0.12454,-0.46357c0.01505,-0.17545 0.09102,-0.32911 0.20166,-0.43559c0.11065,-0.10657 0.25587,-0.16587 0.40942,-0.1527z" data-paper-data="{&quot;index&quot;:null}" fill="#1a0006" stroke="none" stroke-width="1" stroke-linecap="butt" stroke-linejoin="miter"/><path d="M241.92593,178.37894c0.53899,0.04623 1.01732,0.20523 1.35474,0.42464c0.3374,0.21951 0.53389,0.4995 0.50915,0.7878c-0.02472,0.2883 -0.26601,0.53075 -0.63586,0.6896c-0.36985,0.15875 -0.86827,0.23399 -1.40726,0.18776c-0.53899,-0.04623 -1.01732,-0.20523 -1.35473,-0.42464c-0.33741,-0.2195 -0.53389,-0.4995 -0.50917,-0.7878c0.02472,-0.2883 0.26601,-0.53075 0.63587,-0.68959c0.36984,-0.15875 0.86826,-0.23399 1.40725,-0.18777z" data-paper-data="{&quot;index&quot;:null}" fill="#ec65a4" stroke="none" stroke-width="1" stroke-linecap="butt" stroke-linejoin="miter"/><path d="M237.37323,185.79089c1.41925,1.38896 2.52041,3.21454 3.10417,5.07021c0.3868,1.22697 0.40041,2.85715 -0.45424,3.83802c-0.64512,0.70941 -2.03514,0.32331 -2.93947,-0.01348c-1.63045,-0.60814 -3.05497,-1.62432 -4.42849,-2.77567c-1.21772,-1.02347 -2.40688,-2.20078 -3.08879,-3.64445c-0.38507,-0.8162 -0.14717,-1.84889 0.30296,-2.69568c0.54077,-0.9989 1.5327,-2.20789 2.67041,-2.14455c1.79151,0.10019 3.50557,1.18113 4.83345,2.36559z" data-paper-data="{&quot;index&quot;:null}" fill="#e33e59" stroke="none" stroke-width="1" stroke-linecap="round" stroke-linejoin="miter"/><path d="M232.12364,176.64089c0.89855,0.1296 1.50206,1.16276 1.85115,2.00046c0.47587,1.14148 0.93381,2.53978 0.48641,3.703c-0.36509,1.02668 -1.58701,1.56205 -2.59492,1.98034c-0.81716,0.3392 -1.8065,0.4788 -2.65723,0.24518c-0.88393,-0.27817 -1.82121,-0.84898 -2.2052,-1.6822c-0.41331,-0.91268 -0.25447,-2.07438 0.09117,-3.01726c0.29727,-0.80985 0.90958,-1.52834 1.63453,-1.98134c1.02473,-0.63979 2.20232,-1.41834 3.39406,-1.24817z" data-paper-data="{&quot;index&quot;:null}" fill="#ffc2fa" stroke="none" stroke-width="1" stroke-linecap="round" stroke-linejoin="miter"/><path d="M246.54236,173.35254c0.30628,0.66521 0.53611,1.59874 0.61651,2.64225c0.0804,1.04351 -0.00373,2.00123 -0.2045,2.7055c-0.20086,0.70428 -0.51837,1.15512 -0.90481,1.18489c-0.38645,0.02978 -0.76925,-0.36711 -1.07562,-1.03232c-0.30628,-0.6652 -0.53612,-1.59874 -0.61651,-2.64225c-0.0804,-1.04351 0.12118,-2.70594 0.32195,-3.41021c0.20086,-0.70429 1.55662,-0.11307 1.86299,0.55214z" data-paper-data="{&quot;index&quot;:null}" fill="#0d101a" stroke="url(#color-1)" stroke-width="0" stroke-linecap="round" stroke-linejoin="round"/><path d="M245.59163,172.78032c0.18348,-0.02211 0.36888,0.1164 0.52017,0.35793c0.15131,0.24163 0.26842,0.5863 0.31544,0.97661c0.04703,0.39031 0.01513,0.75294 -0.07445,1.02358c-0.08961,0.27057 -0.23681,0.44913 -0.42028,0.47124c-0.18348,0.02211 -0.36888,-0.11639 -0.52017,-0.35792c-0.15132,-0.24163 -0.26842,-0.5863 -0.31544,-0.97662c-0.04702,-0.39031 -0.01513,-0.75294 0.07447,-1.02359c0.08961,-0.27054 0.23679,-0.44912 0.42028,-0.47123z" data-paper-data="{&quot;index&quot;:null}" fill="#ffffff" stroke="none" stroke-width="1.06713" stroke-linecap="butt" stroke-linejoin="miter"/><path d="M244.42343,171.9678l2.52526,1.58563" fill="none" stroke="#000000" stroke-width="0.5" stroke-linecap="round" stroke-linejoin="miter"/><path d="M250.02726,176.20201c0.02621,0.88008 -0.02909,1.77559 -0.09892,2.63808c-0.02742,0.35672 -0.07345,0.80613 -0.216,0.96487c-0.116,0.12893 -0.32117,-0.04091 -0.36524,-0.29797c-0.14094,-1.03171 -0.10647,-2.16192 -0.1348,-3.18555c-0.024,-0.85245 -0.03876,-1.88244 -0.002,-2.54178c0.03673,-0.65924 0.45497,-1.32003 0.52464,-0.92535c0,0 0.26499,2.46915 0.29232,3.3477z" data-paper-data="{&quot;index&quot;:null}" fill="#0d101a" stroke="url(#color-2)" stroke-width="0" stroke-linecap="round" stroke-linejoin="round"/><path d="M249.66803,173.42572c0.05075,0.24445 0.08983,0.58866 0.10519,0.97443c0.01536,0.38578 0.00412,0.74079 -0.02647,1.00275c-0.0306,0.26186 -0.08054,0.43067 -0.14251,0.44399c-0.06197,0.01333 -0.12439,-0.13131 -0.17514,-0.37567c-0.05075,-0.24446 -0.08983,-0.58866 -0.10519,-0.97444c-0.01536,-0.38577 -0.00412,-0.7408 0.02647,-1.00276c0.0306,-0.26186 0.08054,-0.43064 0.1425,-0.44397c0.06197,-0.01333 0.12439,0.1313 0.17514,0.37567z" data-paper-data="{&quot;index&quot;:null}" fill="#ffffff" stroke="none" stroke-width="1.01342" stroke-linecap="butt" stroke-linejoin="miter"/><path d="M249.91309,171.91729l-0.7833,1.58563" data-paper-data="{&quot;index&quot;:null}" fill="none" stroke="#000000" stroke-width="0.5" stroke-linecap="round" stroke-linejoin="miter"/></g></g></svg>