<svg version="1.1" xmlns="http://www.w3.org/2000/svg" xmlns:xlink="http://www.w3.org/1999/xlink" width="44.24608" height="47.2388" viewBox="0,0,44.24608,47.2388"><g transform="translate(-223.60649,-146.14363)"><g data-paper-data="{&quot;isPaintingLayer&quot;:true}" fill="none" fill-rule="nonzero" stroke="none" stroke-width="none" stroke-linecap="none" stroke-linejoin="miter" stroke-miterlimit="10" stroke-dasharray="" stroke-dashoffset="0" font-family="none" font-weight="none" font-size="none" text-anchor="none" style="mix-blend-mode: normal"><path d="M248.40884,171.29327c-0.63283,0.50728 3.57243,-2.5745 3.16487,-3.17525c0.52165,-0.45248 1.30654,1.88944 1.90857,1.4433c0.66448,-0.49242 -1.73677,3.96389 -3.89151,3.97639c-2.15473,0.01248 -4.67126,2.09788 -5.82285,-0.83448c-0.62841,-1.84969 5.77793,-1.75944 5.60416,-1.62011z" data-paper-data="{&quot;origPos&quot;:null,&quot;origRot&quot;:0}" fill="#ff0021" stroke="none" stroke-width="0" stroke-linecap="butt"/><path d="M245.38451,177.40472c0.02599,6.36025 -1.90099,8.11811 -6.22695,8.11811c-4.32595,0 -5.55527,-0.63002 -5.62398,-7.61997c-0.06005,-6.10836 1.29802,-8.1181 5.62398,-8.1181c4.32595,0 6.19839,0.62979 6.22695,7.61997z" data-paper-data="{&quot;origPos&quot;:null}" fill="#ff0021" stroke="none" stroke-width="NaN" stroke-linecap="butt"/><path d="M245.71935,177.00032c0.02599,6.36025 1.73486,7.793 -6.5709,8.60247c-2.3092,0.22505 -5.49403,0.11861 -5.84662,-1.90816c-0.57601,-3.80178 0.01675,-3.12387 -0.01397,-6.24925c-0.02012,-2.04662 2.1132,-0.86357 3.93263,-0.50321c0.09524,-2.2038 0.21776,-5.65231 0.25372,-7.2279c1.1201,-0.13684 1.67108,-1.07072 1.69839,0.04367c0.05012,2.04491 0.53443,3.89069 0.60842,7.20895c0,0 1.55235,-0.0045 2.79419,-0.09703c0.03789,-1.85556 0.11954,-5.39601 0.15634,-6.75907c0,0 1.22305,-0.95109 1.49238,0.32599c0.01231,1.48209 0.33037,4.51365 0.43832,6.52512z" data-paper-data="{&quot;origPos&quot;:null}" fill="#0052ef" stroke="none" stroke-width="NaN" stroke-linecap="butt"/><path d="M235.91046,177.85254c0,-0.52557 0.47774,-0.95163 1.06707,-0.95163c0.58933,0 1.06708,0.42606 1.06708,0.95163c0,0.52557 -0.47775,0.95162 -1.06708,0.95162c-0.58933,0 -1.06707,-0.42605 -1.06707,-0.95162z" data-paper-data="{&quot;origPos&quot;:null}" fill="#fded47" stroke="none" stroke-width="0" stroke-linecap="butt"/><path d="M241.59556,178.07791c0,-0.52557 0.47774,-0.95163 1.06707,-0.95163c0.58933,0 1.06708,0.42606 1.06708,0.95163c0,0.52557 -0.47775,0.95162 -1.06708,0.95162c-0.58933,0 -1.06707,-0.42605 -1.06707,-0.95162z" data-paper-data="{&quot;origPos&quot;:null}" fill="#ffe84f" stroke="none" stroke-width="0" stroke-linecap="butt"/><g data-paper-data="{&quot;origPos&quot;:null}" stroke="none" stroke-width="0" stroke-linecap="butt"><path d="M248.05481,191.25214c0,1.02054 -0.31067,1.93583 -6.52847,1.49588c-2.26852,-0.02788 -2.26221,-0.43226 -2.32477,-1.45189c-0.12739,-2.07645 2.22144,-0.96791 4.49031,-0.96791c2.26887,0 4.36293,-0.93255 4.36293,0.92392z" data-paper-data="{&quot;origPos&quot;:null}" fill="#8e4108"/><path d="M244.99758,188.61234c0,2.45415 1.71564,1.99659 -2.99354,1.84785c-4.42335,-0.13971 -2.16554,-0.09764 -2.16554,-2.5518c0,-2.45416 -1.07836,-5.65238 2.59421,-5.59076c2.96088,-1.60614 2.56488,3.84054 2.56488,6.2947z" data-paper-data="{&quot;origPos&quot;:null}" fill="#0052ef"/><path d="M248.01242,192.53852c-0.00209,0.21999 -3.70432,0.62942 -4.24259,0.5854c-0.53641,-0.04388 -3.87606,-0.15684 -3.96435,-0.40777c-0.0895,-0.25437 -0.56877,-0.58867 -0.10343,-0.53838c0,0 1.471,0.33354 4.12026,0.30075c0,0 2.74522,-0.07426 3.99087,-0.38001c0.21995,0.01647 0.20438,-0.09958 0.19924,0.44001z" data-paper-data="{&quot;origPos&quot;:null,&quot;origRot&quot;:0}" fill="#f9c869"/></g><g data-paper-data="{&quot;origPos&quot;:null}" stroke="none" stroke-width="0" stroke-linecap="butt"><g data-paper-data="{&quot;origPos&quot;:null}"><path d="M242.4957,191.64613c0,1.00943 -0.30728,1.91476 -6.45738,1.47959c-2.24382,-0.02758 -2.23758,-0.42755 -2.29945,-1.43607c-0.126,-2.05384 2.19725,-0.95738 4.44142,-0.95738c2.24417,0 4.31542,-0.9224 4.31542,0.91386z" data-paper-data="{&quot;origPos&quot;:null}" fill="#8e4108"/><path d="M239.47176,188.42583c0,2.42744 1.57097,2.49707 -3.08694,2.34995c-4.37518,-0.13818 -1.82697,0.07748 -1.82697,-2.34995c0,-2.42744 -2.6246,-5.80525 1.00797,-5.74429c3.87363,0.06501 3.90593,3.31686 3.90593,5.74429z" data-paper-data="{&quot;origPos&quot;:null}" fill="#0052ef"/></g><path d="M242.23781,192.79375c-0.00209,0.21999 -3.70433,0.62942 -4.24259,0.5854c-0.53641,-0.04388 -3.87606,-0.15684 -3.96435,-0.40778c-0.0895,-0.25437 -0.56878,-0.58867 -0.10344,-0.53838c0,0 1.47101,0.33354 4.12027,0.30076c0,0 2.74521,-0.07427 3.99086,-0.38002c0.21995,0.01647 0.20438,-0.09957 0.19925,0.44002z" data-paper-data="{&quot;origPos&quot;:null,&quot;origRot&quot;:0}" fill="#f9c869"/></g><g data-paper-data="{&quot;origPos&quot;:null,&quot;origRot&quot;:0}"><path d="M233.95708,167.37566c-0.20968,0.50648 -0.6944,0.73335 -1.36202,0.45696c-0.66763,-0.27637 -1.09738,-1.54153 -0.88773,-2.04801c0.20968,-0.50648 0.52639,-0.14316 1.19402,0.13324c0.66763,0.27637 1.26536,0.95134 1.0557,1.45782z" data-paper-data="{&quot;origRot&quot;:0,&quot;origPos&quot;:null}" fill="#5a2c0a" stroke="none" stroke-width="0" stroke-linecap="butt"/><path d="M246.27342,160.14476c0.06332,2.9869 1.16736,3.95011 0.45863,7.23813c-1.22563,2.60437 -3.02797,4.24005 -7.9262,4.04324c-0.09709,0.00009 -6.47162,-2.35754 -6.55222,-6.15983c-0.08822,-4.16126 -0.15834,-6.84547 4.07426,-6.93519c4.23259,-0.08973 9.85733,-2.3476 9.94556,1.81365z" data-paper-data="{&quot;origPos&quot;:null}" fill="#ffdebd" stroke="none" stroke-width="0" stroke-linecap="butt"/><path d="M237.29431,163.84993c0.18974,0.78021 0.87706,0.71721 0.58959,1.46691c-0.13502,0.35218 -1.41678,0.3485 -0.96883,0.13647c0.2364,-0.1119 -0.2941,0.59866 -0.54827,0.66046c-0.85947,0.20902 -1.0677,-0.32906 -0.96904,-1.62294c0.11462,-1.50309 -1.49618,-3.46568 -0.63669,-3.67472c0,0 1.20152,-0.81061 1.64387,-0.24567c0.5689,0.72653 0.53314,1.81472 0.88936,3.27947z" data-paper-data="{&quot;origRot&quot;:0,&quot;origPos&quot;:null}" fill="#5a2c0a" stroke="none" stroke-width="0" stroke-linecap="butt"/><path d="M245.18638,157.48367c0.00494,0.46187 -0.29877,0.68334 -0.74927,0.78527c-0.70091,0.15857 -2.04183,-0.07834 -1.34018,-0.23354c0.81165,-0.17952 -0.36299,0.65795 -1.16917,0.8606c-0.63315,0.15916 -2.16423,0.00185 -1.51673,-0.08144c0.84248,-0.10837 -0.43955,0.38638 -1.26055,0.60426c-0.72291,0.19185 -2.12245,0.42758 -1.39448,0.2559c1.26638,-0.29866 -1.04103,1.11391 -2.07579,1.125c-0.6999,0.00749 -1.47757,1.1657 -2.16415,1.02961c-1.9987,-0.39619 -1.70803,-0.19926 -1.72984,-2.23673c-0.01297,-1.2106 2.31143,-3.71076 6.27809,-3.7532c3.96666,-0.04244 7.10909,0.43368 7.12206,1.64428z" data-paper-data="{&quot;origPos&quot;:null}" fill="#5a2c0a" stroke="none" stroke-width="0" stroke-linecap="butt"/><path d="M235.13255,163.09672c0.01818,0.85756 0.25442,1.38818 -0.06302,2.09662c-0.21826,0.48709 -1.23346,0.55433 -1.76708,0.56563c-1.04144,0.02207 -1.91059,-1.13406 -1.94129,-2.58231c-0.03071,-1.44825 0.78865,-2.64018 1.83011,-2.66225c1.04144,-0.02207 1.91059,1.13405 1.94129,2.58229z" data-paper-data="{&quot;origPos&quot;:null}" fill="#ffdec6" stroke="none" stroke-width="0" stroke-linecap="butt"/><path d="M233.75014,164.62939c0,0 -0.44562,0.15795 -0.69711,0.06967c-0.30483,-0.10698 -0.72841,-0.57005 -0.72841,-0.57005" data-paper-data="{&quot;origPos&quot;:null}" fill="none" stroke="#f6b09a" stroke-width="0.5" stroke-linecap="round"/><path d="M246.24544,159.94422c0.48079,-0.11272 0.67168,0.87287 0.69488,1.96667c0.0232,1.09381 -0.35347,1.98888 -0.84134,1.99923c-0.48784,0.01034 -0.9021,-0.86798 -0.92529,-1.96177c-0.0232,-1.09381 0.1783,-1.79465 1.07175,-2.00411z" data-paper-data="{&quot;origPos&quot;:null,&quot;index&quot;:null}" fill="#ffffff" stroke="none" stroke-width="0" stroke-linecap="butt"/><path d="M246.29333,160.72942c0.31107,-0.0066 0.57848,0.70533 0.59724,1.5901c0.01876,0.8848 -0.21824,1.60736 -0.52931,1.61396c-0.31107,0.0066 -0.57849,-0.70529 -0.59723,-1.59007c-0.01876,-0.8848 0.21824,-1.60739 0.52931,-1.61399z" data-paper-data="{&quot;origPos&quot;:null,&quot;index&quot;:null}" fill="#000000" stroke="none" stroke-width="NaN" stroke-linecap="butt"/><path d="M244.32345,162.85934c0.0267,1.25938 -0.58625,2.29378 -1.36907,2.31036c-0.78283,0.01661 -1.43903,-0.99088 -1.46574,-2.25027c-0.0267,-1.25938 0.22182,-2.40409 0.9993,-2.30252c1.44481,0.18873 1.80883,0.98303 1.83553,2.24241z" data-paper-data="{&quot;origPos&quot;:null}" fill="#ffffff" stroke="none" stroke-width="0" stroke-linecap="butt"/><path d="M244.11085,166.34432c-0.03943,-1.85962 0.30052,-3.06645 2.20042,-3.41531c1.79861,-0.33025 2.74755,-0.57937 2.8059,2.17274c0.01121,0.52813 -0.08247,1.95714 -0.29337,2.44148c-0.63269,1.45297 -1.89248,3.16513 -6.07963,3.2539c-1.25467,0.0266 1.40611,-2.59322 1.36668,-4.45282z" data-paper-data="{&quot;origPos&quot;:null}" fill="#ffdebd" stroke="none" stroke-width="0" stroke-linecap="butt"/><path d="M244.28244,163.19185c0.0182,0.85856 -0.31608,1.56194 -0.74665,1.57109c-0.43056,0.00913 -0.79438,-0.67947 -0.81258,-1.53804c-0.0182,-0.85856 0.31609,-1.56196 0.74666,-1.57108c0.43056,-0.00913 0.79438,0.67947 0.81258,1.53804z" data-paper-data="{&quot;origPos&quot;:null}" fill="#000000" stroke="none" stroke-width="NaN" stroke-linecap="butt"/><path d="M249.0989,166.8575c0.79426,0.96543 1.19214,1.22878 0.23929,1.87327c-0.60755,0.41093 -2.72537,0.25471 -1.61532,0.00347c0.59522,-0.13474 -0.98343,0.93653 -1.57724,1.08107c-0.43432,0.10574 -1.9601,-0.58779 -1.54509,-0.57839c0.34512,0.0078 -0.97571,0.87785 -1.31844,0.92559c-0.42758,0.05955 -1.66649,-0.96218 -1.23052,-0.93383c0.31416,0.02043 -0.58961,0.52414 -0.90396,0.52631c-0.70053,0.00482 -1.05733,-2.10475 -1.02277,-3.30222c0,0 1.54339,0.41344 3.20011,0.91812c1.09955,0.33495 3.00437,0.20672 3.85146,0.69657z" data-paper-data="{&quot;origPos&quot;:null,&quot;origRot&quot;:0}" fill="#5a2c0a" stroke="none" stroke-width="0" stroke-linecap="butt"/><path d="M244.14889,160.37739c0.01235,0.58253 -0.63753,-0.47352 -1.51132,-0.45499c-0.8738,0.01853 -1.54742,1.67084 -1.55979,1.08831c-0.01235,-0.58253 -0.54828,-2.15609 1.29056,-2.30018c2.01864,-0.15818 1.76817,1.08434 1.78054,1.66686z" data-paper-data="{&quot;origPos&quot;:null}" fill="#000001" stroke="none" stroke-width="0" stroke-linecap="butt"/><path d="M247.35713,159.87197c0.01235,0.58253 -0.4603,-0.47726 -1.0872,-0.46397c-0.62689,0.01329 -1.10037,1.66135 -1.11271,1.07884c-0.01235,-0.58253 -0.40633,-2.15907 0.91229,-2.29215c1.44755,-0.14606 1.27527,1.09478 1.28761,1.6773z" data-paper-data="{&quot;origPos&quot;:null}" fill="#000001" stroke="none" stroke-width="0" stroke-linecap="butt"/></g><g data-paper-data="{&quot;origPos&quot;:null,&quot;origRot&quot;:0,&quot;index&quot;:null}" stroke="none" stroke-width="0" stroke-linecap="butt"><path d="M252.86256,150.82451c-0.44758,-1.99856 -0.97243,-5.33607 4.7476,-4.56825c5.28181,2.35366 8.12661,8.65723 5.76094,7.98367c-0.11613,-1.70388 6.36127,-0.73178 3.93853,2.53568c-0.25457,3.12405 -7.73639,-0.6956 -7.92372,-0.77357c-3.73677,-1.5555 -7.68655,-2.53982 -6.959,-4.28759z" data-paper-data="{&quot;origPos&quot;:null}" fill="#ff0021"/><path d="M250.32922,151.60717c0.32767,-0.78716 2.49692,-1.1609 5.47562,0.07905c2.9787,1.23995 6.15271,3.0458 5.82505,3.83296c-0.32767,0.78715 -0.47833,1.5611 -3.45702,0.32116c-2.97869,-1.23996 -8.17132,-3.44605 -7.84365,-4.23319z" data-paper-data="{&quot;origPos&quot;:null}" fill="#bc041a"/><path d="M259.00656,152.06582c-0.44233,1.06263 -1.47322,1.64423 -2.30255,1.29901c-0.82931,-0.34524 -1.14302,-1.48653 -0.70067,-2.54917c0.44232,-1.06264 1.47323,-1.64423 2.30256,-1.299c0.82931,0.34522 1.14301,1.48652 0.70068,2.54916z" data-paper-data="{&quot;origPos&quot;:null}" fill="#ffffff"/><path d="M256.40873,150.82597c-0.44236,1.06264 -1.36379,1.6898 -2.05811,1.40078c-0.69434,-0.28903 -0.89858,-1.38477 -0.45624,-2.44742c0.44235,-1.06265 1.36379,-1.68976 2.05811,-1.40075c0.69433,0.28903 0.8986,1.38475 0.45625,2.44739z" data-paper-data="{&quot;origPos&quot;:null}" fill="#ffffff"/><path d="M256.24053,151.03322c0.26384,-0.63386 0.77482,-1.02405 1.14125,-0.87151c0.36644,0.15255 0.44959,0.79003 0.18574,1.42391c-0.26384,0.63387 -0.77481,1.02404 -1.14125,0.8715c-0.36644,-0.15254 -0.4496,-0.79003 -0.18576,-1.4239z" data-paper-data="{&quot;origPos&quot;:null}" fill="#000000"/><path d="M254.49778,150.22857c0.26384,-0.63387 0.71781,-1.04777 1.01396,-0.9245c0.29615,0.12327 0.3223,0.73704 0.05846,1.3709c-0.26385,0.63386 -0.7178,1.04776 -1.01395,0.92449c-0.29614,-0.12327 -0.32232,-0.73704 -0.05847,-1.3709z" data-paper-data="{&quot;origPos&quot;:null}" fill="#000000"/></g><path d="M230.30809,174.6981c-0.3249,0.11833 3.75557,-3.98366 5.28987,-2.35829c2.28534,2.74591 -2.49762,4.42467 -4.5519,6.76428c-2.05426,2.33963 -5.57772,-5.6552 -4.38182,-6.12809c1.0835,-0.42844 0.7309,-0.06382 2.04864,-1.0746c0.36963,0.44457 2.77828,2.36584 1.59522,2.79671z" data-paper-data="{&quot;origPos&quot;:null,&quot;origRot&quot;:0,&quot;index&quot;:null}" fill="#ff0021" stroke="none" stroke-width="0" stroke-linecap="butt"/><g data-paper-data="{&quot;origPos&quot;:null,&quot;origRot&quot;:0}" fill="#ffffff" stroke="none" stroke-width="0" stroke-linecap="butt"><path d="M229.23081,169.21986c0.79578,1.38449 1.67346,2.22151 -1.08455,4.32278c-2.35565,1.79472 -3.17053,0.69361 -3.96632,-0.69087c-0.44757,-0.77869 -0.79796,-1.95295 -0.39906,-2.75932c0.22076,-0.44628 1.45572,-0.62346 1.10557,-0.29768c-0.49802,0.46337 0.11259,-0.9568 0.38892,-1.15552c0,0 1.30166,-0.40265 1.04816,-0.19756c-0.24631,0.19928 0.23046,-0.73896 0.67851,-0.74267c0.98004,-0.00808 1.43298,0.13635 2.22876,1.52084z" data-paper-data="{&quot;origPos&quot;:null,&quot;origRot&quot;:0}"/><path d="M227.12563,167.84024c0.252,0.43842 0.12374,1.03296 -0.28649,1.32794c-0.41024,0.29498 -0.94706,0.17869 -1.19906,-0.25972c-0.252,-0.43842 -0.12374,-1.03295 0.2865,-1.32793c0.41024,-0.29498 0.94705,-0.1787 1.19906,0.25972z" data-paper-data="{&quot;origPos&quot;:null,&quot;origRot&quot;:0}"/></g><path d="M256.46553,170.25048c-2.17905,0.28812 -2.01703,1.39145 -4.13593,-0.36304c-1.80978,-1.49853 -2.27074,-1.95746 -0.44016,-4.11685c0.19945,-0.26707 2.09887,-3.41922 2.82542,-2.16327c0.15096,0.22552 -0.90962,1.26502 -1.29106,1.98729c1.11372,-1.29758 1.8529,-2.70371 2.58841,-2.29343c0.52623,0.50124 -1.2166,2.2284 -1.53691,3.12554c0.60242,-0.82259 2.10976,-3.31061 2.67756,-1.93065c0,0 -1.09618,1.78903 -1.82359,2.78595c0.70735,-0.78131 2.0739,-2.54924 2.41123,-1.88885c0.75539,1.03186 -1.90638,3.00973 -2.62241,3.96844c0,0 1.68795,-1.00776 2.40478,-0.5782c0.87793,0.5261 -0.94033,1.44028 -0.94033,1.44028z" data-paper-data="{&quot;origPos&quot;:null,&quot;origRot&quot;:0}" fill="#ffffff" stroke="none" stroke-width="0" stroke-linecap="butt"/></g></g></svg>