<svg version="1.1" xmlns="http://www.w3.org/2000/svg" xmlns:xlink="http://www.w3.org/1999/xlink" width="108.58168" height="83.19678" viewBox="0,0,108.58168,83.19678"><defs><linearGradient x1="240.00004" y1="140.15161" x2="240.00004" y2="219.84839" gradientUnits="userSpaceOnUse" id="color-1"><stop offset="0" stop-color="#94c3ff"/><stop offset="1" stop-color="#d0feff"/></linearGradient><linearGradient x1="213.76666" y1="138.93333" x2="213.76666" y2="151" gradientUnits="userSpaceOnUse" id="color-2"><stop offset="0" stop-color="#cad9e6"/><stop offset="1" stop-color="#d7f8ff"/></linearGradient><linearGradient x1="268.16667" y1="144.33333" x2="268.16667" y2="197" gradientUnits="userSpaceOnUse" id="color-3"><stop offset="0" stop-color="#cad9e6"/><stop offset="1" stop-color="#d7f8ff"/></linearGradient><linearGradient x1="239.83334" y1="184.33334" x2="239.83334" y2="209.66667" gradientUnits="userSpaceOnUse" id="color-4"><stop offset="0" stop-color="#cad9e6"/><stop offset="1" stop-color="#d7f8ff"/></linearGradient><linearGradient x1="217.38107" y1="174.02122" x2="217.38107" y2="212.33332" gradientUnits="userSpaceOnUse" id="color-5"><stop offset="0" stop-color="#ccfff6"/><stop offset="1" stop-color="#86e3ff"/></linearGradient><linearGradient x1="213.36666" y1="148.53333" x2="213.36666" y2="156.05395" gradientUnits="userSpaceOnUse" id="color-6"><stop offset="0" stop-color="#d7f8ff"/><stop offset="1" stop-color="#cad9e6"/></linearGradient></defs><g transform="translate(-185.7092,-138.40161)"><g data-paper-data="{&quot;isPaintingLayer&quot;:true}" fill-rule="nonzero" stroke-linecap="butt" stroke-linejoin="miter" stroke-miterlimit="10" stroke-dasharray="" stroke-dashoffset="0" style="mix-blend-mode: normal"><path d="M187.45921,219.84839v-79.69678h105.08167v79.69678z" fill="url(#color-1)" stroke="#000000" stroke-width="3.5"/><path d="M199.43332,151v-12.06667h28.66667v12.06667z" fill="url(#color-2)" stroke="none" stroke-width="0"/><path d="M253.83333,197v-52.66667h28.66667v52.66667z" fill="url(#color-3)" stroke="none" stroke-width="0"/><path d="M188.16668,187.66667v-7.33333h103.33333v7.33333z" fill="#ffffff" stroke="none" stroke-width="NaN"/><path d="M188.16668,209.66667v-25.33333h103.33333v25.33333z" fill="url(#color-4)" stroke="none" stroke-width="NaN"/><path d="M237.59547,193.17727c0,10.5796 -9.05029,19.15605 -20.2144,19.15605c-11.16411,0 -20.21441,-8.57645 -20.21441,-19.15605c0,-10.5796 9.05029,-19.15606 20.21441,-19.15606c11.16411,0 20.2144,8.57646 20.2144,19.15606z" fill="none" stroke="url(#color-5)" stroke-width="5"/><path d="M198.71183,180.34347l5.14732,-17.26638l7.05357,10.71933l-4.89191,3.21861z" fill="#ccfff6" stroke="none" stroke-width="0"/><path d="M228.12348,176.75961l-4.89191,-3.21861l7.05357,-10.71933l5.14732,17.26638z" data-paper-data="{&quot;index&quot;:null}" fill="#ccfff6" stroke="none" stroke-width="0"/><path d="M187.08005,219.29563v-16.84487h105.64248v16.84487z" fill="#ffffff" stroke="none" stroke-width="0"/><text transform="translate(191.11031,213.73712) scale(0.28365,0.28365)" font-size="40" xml:space="preserve" fill="#000000" fill-rule="nonzero" stroke-opacity="0" stroke="#000000" stroke-width="0" stroke-linecap="butt" stroke-linejoin="miter" stroke-miterlimit="10" stroke-dasharray="" stroke-dashoffset="0" font-family="Sans Serif" font-weight="normal" text-anchor="start" style="mix-blend-mode: normal"><tspan x="0" dy="0">Crisp Climb Castle</tspan></text><path d="M253.83334,169.1v-7.56666h28.66666v7.56666z" fill="#cbcbcb" stroke="none" stroke-width="0"/><path d="M278.84483,168.66666v-6.66666h13.65517v6.66666z" fill="#cb7400" stroke="none" stroke-width="0"/><path d="M187.4592,219.84839v-79.69678h105.08167v79.69678z" fill="none" stroke="#000000" stroke-width="3.5"/><path d="M204.43332,156.05395v-7.52062h17.86667v7.52062z" fill="url(#color-6)" stroke="none" stroke-width="0"/><path d="M253.83334,156.2v-7.56666h28.66666v7.56667z" fill="#cbcbcb" stroke="none" stroke-width="0"/><path d="M190.24483,155.46667v-6.66667h18.12184v6.66667z" fill="#cb7400" stroke="none" stroke-width="0"/><path d="M236.84483,155.66667v-6.66667h20.32184v6.66667z" fill="#cb7400" stroke="none" stroke-width="0"/><text transform="translate(189.85238,147.375) scale(0.14247,0.14247)" font-size="40" xml:space="preserve" fill="#000000" fill-rule="nonzero" stroke="none" stroke-width="1" stroke-linecap="butt" stroke-linejoin="miter" stroke-miterlimit="10" stroke-dasharray="" stroke-dashoffset="0" font-family="Sans Serif" font-weight="normal" text-anchor="start" style="mix-blend-mode: normal"><tspan x="0" dy="0">*Graphic Not Final</tspan></text></g></g></svg>