<svg version="1.1" xmlns="http://www.w3.org/2000/svg" xmlns:xlink="http://www.w3.org/1999/xlink" width="44.92401" height="23.51429" viewBox="0,0,44.92401,23.51429"><g transform="translate(-217.53799,-168.24285)"><g data-paper-data="{&quot;isPaintingLayer&quot;:true}" fill-rule="nonzero" stroke-linejoin="miter" stroke-miterlimit="10" stroke-dasharray="" stroke-dashoffset="0" style="mix-blend-mode: normal"><path d="M217.53799,191.75714v-23.51429h44.87957l0.04444,11.53194l-18.27731,11.98235z" fill="#313131" stroke="#000000" stroke-width="0" stroke-linecap="butt"/><g fill="none" stroke="#939447" stroke-width="3.5"><path d="M239.59243,175.00309c2.8742,1.27741 5.3453,3.54836 5.3453,5.88466c0,3.8803 -3.94736,6.82494 -10.30425,6.82494c-1.96356,0 -3.81228,-0.30013 -5.42977,-0.82932" stroke-linecap="butt"/><path d="M238.80037,178.08257l-0.60296,-4.01975h4.8237z" stroke-linecap="round"/></g><g fill="none" stroke="#fbff00" stroke-width="3.5"><path d="M238.34243,174.12809c2.8742,1.27741 5.3453,3.54836 5.3453,5.88466c0,3.8803 -3.94736,6.82494 -10.30425,6.82494c-1.96356,0 -3.81228,-0.30013 -5.42977,-0.82932" stroke-linecap="butt"/><path d="M237.55037,177.20757l-0.60296,-4.01975h4.8237z" stroke-linecap="round"/></g></g></g></svg>