<svg version="1.1" xmlns="http://www.w3.org/2000/svg" xmlns:xlink="http://www.w3.org/1999/xlink" width="36.69387" height="20.79317" viewBox="0,0,36.69387,20.79317"><g transform="translate(-229.17514,-169.96947)"><g data-paper-data="{&quot;isPaintingLayer&quot;:true}" fill="none" fill-rule="nonzero" stroke="none" stroke-width="none" stroke-linecap="none" stroke-linejoin="miter" stroke-miterlimit="10" stroke-dasharray="" stroke-dashoffset="0" font-family="none" font-weight="none" font-size="none" text-anchor="none" style="mix-blend-mode: normal"><path d="M243.65817,176.38706c-0.02233,1.28418 -2.79631,-0.46059 -3.60489,-0.52328c-0.01099,-1.09148 0.27244,-1.29604 0.32488,-2.48274c0.05789,-1.30979 8.76932,-0.38607 7.22489,2.34135c-1.54443,2.72741 -2.65194,7.0816 -5.64297,4.66223c-1.32436,-1.98328 2.17138,-4.85959 2.16527,-4.50695z" data-paper-data="{&quot;origPos&quot;:null,&quot;origRot&quot;:0}" fill="#ff0021" stroke="none" stroke-width="0" stroke-linecap="butt"/><g data-paper-data="{&quot;origPos&quot;:null,&quot;origRot&quot;:0}" fill="#ffffff" stroke="none" stroke-width="0" stroke-linecap="butt"><path d="M238.74046,171.38486c1.40497,-0.02357 2.47838,-0.36427 2.37077,2.86443c-0.0919,2.75768 -1.3121,2.92623 -2.71707,2.94981c-0.79021,0.01326 -1.79854,-0.23392 -2.12974,-0.93006c-0.18329,-0.38526 0.39196,-1.48266 0.41901,-1.04584c0.0385,0.6213 -0.59676,-0.52908 -0.5778,-0.8472c0,0 0.45731,-1.2551 0.45569,-0.95293c-0.00158,0.29367 -0.37983,-0.52677 -0.1293,-0.89726c0.54798,-0.81042 0.90348,-1.11738 2.30845,-1.14096z" data-paper-data="{&quot;origPos&quot;:null,&quot;origRot&quot;:0}"/><path d="M236.59926,172.48852c0.44491,-0.00747 0.78277,0.36929 0.75466,0.8415c-0.02813,0.47222 -0.41158,0.8611 -0.85651,0.86857c-0.44491,0.00747 -0.78277,-0.3693 -0.75466,-0.84152c0.02813,-0.47222 0.41159,-0.86108 0.85651,-0.86855z" data-paper-data="{&quot;origPos&quot;:null,&quot;origRot&quot;:0}"/></g><g data-paper-data="{&quot;origPos&quot;:null,&quot;origRot&quot;:0}" stroke="none" stroke-linecap="butt"><path d="M245.76735,175.81992c5.40878,-3.34642 7.91459,-2.62236 10.17561,1.06569c2.26101,3.68805 2.36642,5.06537 -3.55688,8.77734c-5.17623,3.2438 -7.59943,3.13641 -9.86045,-0.55164c-2.26101,-3.68805 -2.70275,-5.61354 3.24173,-9.2914z" data-paper-data="{&quot;origPos&quot;:null}" fill="#ff0021" stroke-width="NaN"/><path d="M245.24757,175.74582c5.40878,-3.34642 5.73709,-5.55215 10.76831,1.10577c1.3988,1.85106 2.97264,4.62189 1.42903,5.98181c-2.94011,2.47812 -2.67198,1.61845 -5.32043,3.27816c-1.7343,1.08684 -1.84072,-1.35023 -2.48444,-3.08972c-1.9286,1.07065 -4.93264,2.7686 -6.29469,3.56144c-0.70209,-0.88341 -1.78624,-0.86504 -0.85046,-1.47077c1.71718,-1.11152 3.03764,-2.48915 5.82792,-4.28656c0,0 -0.81519,-1.32109 -1.54315,-2.33144c-1.60174,0.93753 -4.66279,2.71837 -5.84409,3.39943c0,0 -1.45009,-0.5456 -0.50209,-1.4427c1.25711,-0.78513 3.6754,-2.64077 5.33383,-3.78413z" data-paper-data="{&quot;origPos&quot;:null}" fill="#0052ef" stroke-width="NaN"/><path d="M251.10086,183.66287c-0.44807,0.27469 -1.06099,0.09009 -1.36902,-0.41234c-0.30802,-0.50242 -0.19449,-1.13242 0.25358,-1.4071c0.44807,-0.27469 1.061,-0.09007 1.36902,0.41235c0.30802,0.50242 0.1945,1.1324 -0.25357,1.4071z" data-paper-data="{&quot;origPos&quot;:null}" fill="#fded47" stroke-width="0"/><path d="M248.3216,178.6983c-0.44807,0.27469 -1.06099,0.09009 -1.36902,-0.41234c-0.30802,-0.50242 -0.19449,-1.13242 0.25358,-1.4071c0.44807,-0.27469 1.061,-0.09007 1.36902,0.41235c0.30802,0.50242 0.1945,1.1324 -0.25357,1.4071z" data-paper-data="{&quot;origPos&quot;:null}" fill="#ffe84f" stroke-width="0"/></g><g data-paper-data="{&quot;origPos&quot;:null,&quot;origRot&quot;:0}" stroke="none" stroke-width="0" stroke-linecap="butt"><path d="M261.95871,173.77811c0.69986,0.74277 1.10142,1.62198 -3.72569,5.56578c-1.67019,1.5354 -1.94292,1.23676 -2.68767,0.53756c-1.5167,-1.4239 0.95303,-2.22786 2.60435,-3.7838c1.65131,-1.55593 2.53589,-3.6707 3.80901,-2.31954z" data-paper-data="{&quot;origPos&quot;:null}" fill="#8e4108"/><path d="M257.9233,173.9534c1.68299,1.78617 2.61787,0.27662 -0.91154,3.39778c-3.31519,2.93172 -1.64307,1.414 -3.32607,-0.37217c-1.68299,-1.78617 -4.6611,-3.37438 -1.94588,-5.84809c1.05353,-3.19945 4.5005,1.03628 6.18349,2.82246z" data-paper-data="{&quot;origPos&quot;:null}" fill="#0052ef"/><path d="M262.81002,174.74343c0.14933,0.16155 -2.26443,2.99843 -2.68637,3.33552c-0.4205,0.33591 -2.92863,2.54394 -3.16496,2.42186c-0.23958,-0.12376 -0.81765,-0.03839 -0.44448,-0.32091c0,0 1.29935,-0.76602 3.20504,-2.60668c0,0 1.9471,-1.93664 2.64402,-3.01341c0.17138,-0.13885 0.08046,-0.21264 0.44676,0.18361z" data-paper-data="{&quot;origPos&quot;:null,&quot;origRot&quot;:0}" fill="#f9c869"/></g><g data-paper-data="{&quot;origPos&quot;:null,&quot;origRot&quot;:0}" stroke="none" stroke-width="0" stroke-linecap="butt"><g data-paper-data="{&quot;origPos&quot;:null}"><path d="M265.42741,181.61808c0.57193,0.83178 0.83167,1.75188 -4.48262,4.87782c-1.86456,1.24859 -2.08602,0.91547 -2.70841,0.11948c-1.26748,-1.62098 1.26812,-2.03382 3.11732,-3.30531c1.84921,-1.2715 3.03332,-3.2051 4.07371,-1.692z" data-paper-data="{&quot;origPos&quot;:null}" fill="#8e4108"/><path d="M261.11111,180.67784c1.37533,2.00024 2.70927,1.16753 -1.21223,3.68537c-3.68348,2.36503 -1.46155,1.09897 -2.83688,-0.90126c-1.37533,-2.00024 -5.45183,-3.29652 -2.42402,-5.30442c3.22872,-2.14116 5.09778,0.52009 6.47311,2.52031z" data-paper-data="{&quot;origPos&quot;:null}" fill="#0052ef"/></g><path d="M265.86511,182.70985c0.12292,0.18245 -2.69578,2.61744 -3.16425,2.88615c-0.46687,0.26777 -3.28276,2.06687 -3.49769,1.91011c-0.21787,-0.1589 -0.8022,-0.16281 -0.39027,-0.38502c0,0 1.40109,-0.5586 3.56553,-2.08664c0,0 2.22001,-1.61658 3.07319,-2.57429c0.19058,-0.11104 0.11199,-0.19785 0.41349,0.24969z" data-paper-data="{&quot;origPos&quot;:null,&quot;origRot&quot;:0}" fill="#f9c869"/></g><g data-paper-data="{&quot;origPos&quot;:null,&quot;origRot&quot;:0}"><path d="M238.95148,189.17543c0.31453,0.44896 0.24545,0.97965 -0.34633,1.39426c-0.5918,0.4146 -1.88973,0.09736 -2.20427,-0.35159c-0.31453,-0.44896 0.16207,-0.52089 0.75386,-0.93549c0.5918,-0.4146 1.4822,-0.55612 1.79673,-0.10718z" data-paper-data="{&quot;origRot&quot;:0,&quot;origPos&quot;:null}" fill="#5a2c0a" stroke="none" stroke-width="0" stroke-linecap="butt"/><path d="M239.46981,174.90274c2.55321,1.55131 3.95876,1.13764 6.3512,3.5019c1.53809,2.43291 1.94937,4.83184 -0.84823,8.85735c-0.0521,0.08194 -5.46528,4.19171 -8.71554,2.2169c-3.55709,-2.16123 -5.85868,-3.54421 -3.66037,-7.16228c2.1983,-3.61807 3.31587,-9.57513 6.87296,-7.41389z" data-paper-data="{&quot;origPos&quot;:null}" fill="#ffdebd" stroke="none" stroke-width="0" stroke-linecap="butt"/><path d="M237.77076,184.46652c0.75998,0.25914 1.07609,-0.35441 1.55397,0.29083c0.22449,0.30309 -0.46723,1.38216 -0.40539,0.89045c0.03263,-0.25948 0.34691,0.5697 0.26248,0.81727c-0.28547,0.8372 -0.85116,0.72374 -1.88945,-0.05463c-1.20617,-0.90421 -3.72686,-0.60006 -3.44139,-1.43726c0,0 -0.03818,-1.44887 0.67598,-1.51844c0.91841,-0.0895 1.817,0.5253 3.24379,1.0118z" data-paper-data="{&quot;origRot&quot;:0,&quot;origPos&quot;:null}" fill="#5a2c0a" stroke="none" stroke-width="0" stroke-linecap="butt"/><g data-paper-data="{&quot;origPos&quot;:null,&quot;origRot&quot;:0}" stroke="none" stroke-width="0" stroke-linecap="butt"><path d="M237.66846,172.97748c1.76346,0.6886 -0.26795,4.21608 -1.74025,7.98642c-0.0738,0.18899 -2.51381,8.22728 -4.94029,6.24317c-4.03404,-0.52214 -0.24016,-5.86143 0.90637,-4.59567c-1.15619,2.171 -3.7222,-4.2511 -1.75277,-9.68788c3.41553,-4.65216 5.45501,-1.95862 6.58379,-0.24971z" data-paper-data="{&quot;origPos&quot;:null}" fill="#ff0021"/><path d="M239.04655,171.3923c0.79422,0.31013 -1.21957,5.5803 -2.39319,8.58577c-1.17363,3.00545 -1.83554,2.57698 -2.62975,2.26686c-0.79422,-0.31013 0.10733,-3.84888 1.28095,-6.85434c1.17363,-3.00545 2.94778,-4.3084 3.74199,-3.99827z" data-paper-data="{&quot;origPos&quot;:null}" fill="#bc041a"/><path d="M233.35662,177.95975c-1.07219,-0.41868 -1.67649,-1.43643 -1.34973,-2.27319c0.32676,-0.83677 1.46083,-1.17569 2.533,-0.75701c1.07219,0.41868 1.67648,1.43643 1.34973,2.2732c-0.32676,0.83677 -1.46082,1.17568 -2.533,0.75701z" data-paper-data="{&quot;origPos&quot;:null}" fill="#ffffff"/><path d="M234.26606,175.22869c-1.07219,-0.41868 -1.71959,-1.32599 -1.44602,-2.02655c0.27356,-0.70055 1.36449,-0.92906 2.43669,-0.51038c1.07219,0.41868 1.7196,1.326 1.44604,2.02657c-0.27356,0.70055 -1.36452,0.92906 -2.43671,0.51036z" data-paper-data="{&quot;origPos&quot;:null}" fill="#ffffff"/><path d="M234.53202,175.25132c0.63954,0.24974 1.04096,0.75193 0.89657,1.12166c-0.14438,0.36972 -0.77986,0.46701 -1.41942,0.21728c-0.63954,-0.24974 -1.04096,-0.75193 -0.89659,-1.12165c0.14438,-0.36972 0.77989,-0.467 1.41943,-0.21726z" data-paper-data="{&quot;origPos&quot;:null}" fill="#000000"/><path d="M235.16162,173.43796c0.63954,0.24974 1.06342,0.69444 0.94673,0.99324c-0.11669,0.2988 -0.72971,0.33858 -1.36927,0.08881c-0.63954,-0.24974 -1.06343,-0.69444 -0.94675,-0.99322c0.11669,-0.2988 0.72972,-0.33858 1.36928,-0.08882z" data-paper-data="{&quot;origPos&quot;:null}" fill="#000000"/></g><path d="M235.97407,185.88513c0.73305,0.4454 1.30754,0.53121 1.73448,1.17956c0.29356,0.44578 -0.19514,1.33814 -0.47231,1.79428c-0.5409,0.89024 -1.98299,1.00214 -3.22094,0.24996c-1.23798,-0.75219 -1.80307,-2.08361 -1.26218,-2.97387c0.5409,-0.89024 1.98296,-1.00216 3.22092,-0.24997z" data-paper-data="{&quot;origPos&quot;:null}" fill="#ffdec6" stroke="none" stroke-width="0" stroke-linecap="butt"/><path d="M236.52405,187.87452c0,0 -0.10618,0.4607 -0.31575,0.6254c-0.25401,0.19963 -0.87214,0.3081 -0.87214,0.3081" data-paper-data="{&quot;origPos&quot;:null}" fill="none" stroke="#f6b09a" stroke-width="0.5" stroke-linecap="round"/><path d="M239.28563,174.81859c0.16324,-0.46607 1.09706,-0.09756 2.03204,0.47053c0.935,0.56808 1.48755,1.36667 1.23418,1.78367c-0.25337,0.41702 -1.21673,0.29453 -2.15172,-0.27355c-0.935,-0.56808 -1.41786,-1.11456 -1.11451,-1.98066z" data-paper-data="{&quot;origPos&quot;:null,&quot;index&quot;:null}" fill="#ffffff" stroke="none" stroke-width="0" stroke-linecap="butt"/><path d="M239.97363,175.20008c0.16156,-0.26592 0.90567,-0.10897 1.66199,0.35057c0.75633,0.45953 1.23842,1.04762 1.07688,1.31354c-0.16156,0.26592 -0.90565,0.10898 -1.66197,-0.35056c-0.75633,-0.45953 -1.23847,-1.04764 -1.07689,-1.31355z" data-paper-data="{&quot;origPos&quot;:null,&quot;index&quot;:null}" fill="#000000" stroke="none" stroke-width="NaN" stroke-linecap="butt"/><path d="M240.7117,178.00581c1.07654,0.6541 1.61965,1.72679 1.21308,2.39597c-0.40656,0.66916 -1.60887,0.68136 -2.6854,0.02728c-1.07654,-0.6541 -1.90846,-1.4787 -1.40512,-2.07988c0.93541,-1.11718 1.80091,-0.99746 2.87746,-0.34337z" data-paper-data="{&quot;origPos&quot;:null}" fill="#ffffff" stroke="none" stroke-width="0" stroke-linecap="butt"/><path d="M243.5368,180.05743c-1.58961,-0.96584 -2.42484,-1.90092 -1.69835,-3.69074c0.68775,-1.6944 0.98748,-2.62861 3.34,-1.19925c0.45144,0.2743 1.60639,1.12105 1.90158,1.55913c0.88556,1.31424 1.6528,3.29664 -0.52189,6.87585c-0.65164,1.0725 -1.43173,-2.57915 -3.02135,-3.54499z" data-paper-data="{&quot;origPos&quot;:null}" fill="#ffdebd" stroke="none" stroke-width="0" stroke-linecap="butt"/><path d="M240.97011,178.21903c0.73389,0.44591 1.14756,1.10576 0.92393,1.47382c-0.22364,0.36806 -0.99987,0.30494 -1.73376,-0.14097c-0.73389,-0.44591 -1.14758,-1.10577 -0.92395,-1.47382c0.22364,-0.36806 0.99987,-0.30494 1.73376,0.14097z" data-paper-data="{&quot;origPos&quot;:null}" fill="#000000" stroke="none" stroke-width="NaN" stroke-linecap="butt"/><path d="M246.64946,176.12611c1.24097,-0.15123 1.67684,-0.34532 1.70851,0.80458c0.0202,0.7332 -1.24938,2.43549 -0.86492,1.36426c0.20614,-0.57441 0.26154,1.33261 0.06441,1.91108c-0.14416,0.42312 -1.54882,1.3374 -1.31793,0.99242c0.192,-0.28689 0.21618,1.29454 0.07231,1.60926c-0.17949,0.39262 -1.70684,0.88863 -1.4487,0.53615c0.18602,-0.25399 0.1253,0.77889 -0.04175,1.04519c-0.3723,0.59345 -2.34325,-0.23901 -3.33464,-0.91152c0,0 1.1779,-1.0796 2.49362,-2.20578c0.87325,-0.74743 1.78847,-2.42287 2.65671,-2.87416z" data-paper-data="{&quot;origPos&quot;:null,&quot;origRot&quot;:0}" fill="#5a2c0a" stroke="none" stroke-width="0" stroke-linecap="butt"/><path d="M238.52457,176.81959c0.49795,0.30256 -0.74187,0.28331 -1.19572,1.03023c-0.45382,0.74692 0.57786,2.2028 0.0799,1.90025c-0.49795,-0.30256 -2.11305,-0.69593 -1.24666,-2.32427c0.9511,-1.78754 1.86452,-0.90877 2.36246,-0.60622z" data-paper-data="{&quot;origPos&quot;:null}" fill="#000001" stroke="none" stroke-width="0" stroke-linecap="butt"/><path d="M239.82197,173.84215c0.49795,0.30256 -0.64984,0.13182 -0.97543,0.66769c-0.32558,0.53587 0.81005,1.82065 0.3121,1.51809c-0.49795,-0.30256 -2.03931,-0.81726 -1.44313,-2.00091c0.65451,-1.29937 1.6085,-0.48743 2.10646,-0.18486z" data-paper-data="{&quot;origPos&quot;:null}" fill="#000001" stroke="none" stroke-width="0" stroke-linecap="butt"/></g><path d="M246.55557,182.4831c0.09546,1.325 -2.7789,-0.42752 -3.36339,-0.64589c0.40206,-1.65512 0.20432,-1.18044 0.1493,-2.40534c-0.06072,-1.352 9.10883,-0.5392 7.75048,2.29899c-1.35835,2.83819 -3.9622,8.37687 -6.87229,5.24645c-1.43086,-2.66119 2.3097,-4.85807 2.3359,-4.4942z" data-paper-data="{&quot;origPos&quot;:null,&quot;origRot&quot;:0}" fill="#ff0021" stroke="none" stroke-width="0" stroke-linecap="butt"/><g data-paper-data="{&quot;origPos&quot;:null,&quot;origRot&quot;:0}" fill="#ffffff" stroke="none" stroke-width="0" stroke-linecap="butt"><path d="M242.6848,176.93194c1.52656,0.46869 2.73931,0.48135 2.15789,3.89953c-0.49661,2.9195 -1.84373,2.67097 -3.3703,2.20229c-0.8586,-0.2636 -1.91616,-0.88265 -2.17503,-1.74425c-0.14325,-0.47684 0.63835,-1.44926 0.60481,-0.97216c-0.04769,0.67857 -0.57078,-0.77611 -0.50446,-1.10995c0,0 0.67648,-1.18273 0.63119,-0.85982c-0.04399,0.31377 -0.33596,-0.69736 -0.01102,-1.00588c0.71074,-0.67482 1.14034,-0.87842 2.66692,-0.40975z" data-paper-data="{&quot;origPos&quot;:null,&quot;origRot&quot;:0}"/><path d="M240.20457,177.36057c0.48341,0.14842 0.79548,0.67047 0.697,1.16606c-0.09848,0.49559 -0.57018,0.777 -1.0536,0.6286c-0.48341,-0.14842 -0.79547,-0.67046 -0.697,-1.16604c0.09848,-0.49559 0.57018,-0.77701 1.0536,-0.6286z" data-paper-data="{&quot;origPos&quot;:null,&quot;origRot&quot;:0}"/></g></g></g></svg>