<svg version="1.1" xmlns="http://www.w3.org/2000/svg" xmlns:xlink="http://www.w3.org/1999/xlink" width="108.58169" height="83.19678" viewBox="0,0,108.58169,83.19678"><g transform="translate(-185.70916,-138.40161)"><g data-paper-data="{&quot;isPaintingLayer&quot;:true}" fill-rule="nonzero" stroke-linecap="butt" stroke-linejoin="miter" stroke-miterlimit="10" stroke-dasharray="" stroke-dashoffset="0" style="mix-blend-mode: normal"><path d="M187.45918,219.84839v-79.69678h105.08167v79.69678z" fill="#f54d51" stroke="#000000" stroke-width="3.5"/><path d="M256.65118,191.69859c-0.52174,0 -0.52174,-0.52174 -0.52174,-0.52174c0,-0.22809 0,-1.1405 0,-1.36859c0.05093,-0.18116 0.22511,-0.36973 0.15281,-0.54347c-0.04488,-0.10785 -0.1999,0.13515 -0.31538,0.15281c-0.22548,0.03447 -0.45619,0.00106 -0.68429,0c-0.49034,-0.00227 -0.96893,-0.15159 -1.45216,-0.23483c-1.25088,-0.21548 -2.74913,0.00674 -4.0222,0.00674c-0.38987,0 -0.80209,-0.17174 -1.16893,-0.03972c-0.38165,0.13735 -0.45453,0.67304 -0.70858,0.98925c-0.46993,0.58491 -0.85649,0.50507 -0.79414,1.26591c0,0 0,0.52174 -0.52174,0.52174c-0.52174,0 -0.52174,-0.52174 -0.52174,-0.52174c0.01324,-0.29465 -0.07065,-0.61043 0.03972,-0.88395c0.10548,-0.26144 0.37517,-0.42103 0.5693,-0.62546c0.46402,-0.48864 0.89941,-1.44218 1.53786,-1.70979c0.11918,-0.04996 1.35667,-0.03972 1.56826,-0.03972c1.33894,0 2.86936,-0.20671 4.18935,0.00674c0.23735,0.03839 0.44735,0.18728 0.68429,0.22809c0.50904,0.08769 1.98667,-0.27198 2.33824,0.14608c0.27684,0.3292 0.10188,0.85421 0.15281,1.28131c0,0.22809 0,0.45619 0,0.68429v0.68429c0,0 0,0.52174 -0.52174,0.52174z" fill="#ed4446" stroke="none" stroke-width="0.5"/><path d="M248.8915,199.42733l2.96789,-4.55157l12.73341,2.57206l-6.35762,0.2691l0.65579,1.73816l-4.90967,-1.55812l5.1314,6.54955l-6.36691,-3.43715l1.49163,5.40047z" fill="#3ba4e3" stroke="none" stroke-width="0"/><g stroke="none" stroke-width="0"><path d="M246.19105,188.48573l6.03377,-9.61541l4.32187,2.71203l-0.2026,0.53417l0.5126,0.85174l-5.49736,8.76059z" fill="#cd2225"/><path d="M249.01977,190.06437l5.85555,-9.33139l1.34436,0.8436l-0.00159,0.88076l0.33025,0.70323l-5.23526,8.3429z" fill="#a21b1e"/></g><g stroke="none" stroke-width="0"><path d="M248.2652,193.20986l6.03377,-9.61541l4.32187,2.71203l-0.2026,0.53417l0.5126,0.85174l-5.49736,8.76059z" fill="#cd2225"/><path d="M251.09392,194.78851l5.85555,-9.33139l1.34436,0.8436l-0.00159,0.88076l0.33025,0.70323l-5.23526,8.3429z" fill="#a21b1e"/></g><path d="M224.56836,202.15925l-8.72375,-14.08178h47.10978l-3.91088,6.89129l-5.8702,4.01401l-3.19608,4.78911l-11.39422,1.43132l-4.42328,-4.89282l-2.33316,2.59927z" fill="#cd2225" stroke="none" stroke-width="0"/><path d="M259.77434,188.12856c1.31521,0.22004 -2.00173,1.06772 -4.46952,4.0018c-3.06501,3.64416 -3.87611,11.10396 -4.90267,11.10396c-1.88776,0 -0.86637,-10.36951 0.77183,-12.79028c2.42574,-3.58456 0.64825,-1.9847 4.74122,-2.31548c1.83793,-0.43092 2.20523,-0.27672 3.85915,0z" fill="#5dd1ea" stroke="none" stroke-width="0"/><path d="M258.32613,188.45464c1.04166,0.17428 -3.23932,0.40461 -5.19385,2.72846c-2.42753,2.88624 -3.06995,10.5587 -3.11118,10.5587c-1.49514,0 0.19591,-9.53596 1.49339,-11.45326c1.92123,-2.83903 0.51342,-1.79244 3.75513,-2.05443c1.45567,-0.34129 1.74657,0.00136 3.05651,0.22052z" fill="#36b3cf" stroke="none" stroke-width="0"/><path d="M234.20657,200.94406c-0.46665,0.23333 -0.69998,-0.23333 -0.69998,-0.23333l-0.01253,-0.08494c-0.86442,-0.86786 -1.3587,-1.61502 -1.47417,-2.8619c-0.06206,-0.67007 0.02751,-1.83187 -0.64934,-2.25373c-0.65843,-0.41037 -1.40396,-0.35488 -2.13853,-0.35488c0,0 -0.05463,0 -0.12853,-0.01768c-0.26646,0.44683 -0.53278,0.78576 -0.93594,1.188c-0.21768,0.21718 -0.63685,0.41355 -0.81545,0.69011c-0.27218,0.42149 -0.45715,0.88585 -0.72895,1.31883c0.05642,0.1264 0.12279,0.24517 0.22126,0.34052c0.68121,0.65961 1.65137,0.83194 2.37419,1.3882c0.56805,0.43717 0.83246,1.13891 0.97366,1.7961l0.00255,0.60272c0,0 0,0.52174 -0.52174,0.52174c-0.52174,0 -0.52174,-0.52174 -0.52174,-0.52174l0.00255,-0.4999c-0.21845,-1.26399 -1.64378,-1.48924 -2.55037,-2.17003c-0.49241,-0.36977 -0.66209,-0.70108 -0.91386,-1.12779c-0.11179,-0.09379 -0.16253,-0.19543 -0.17895,-0.29158c-0.00726,-0.01124 -0.01461,-0.02255 -0.02207,-0.03393c-0.21393,-0.32667 -0.57905,-0.52668 -0.83529,-0.82135c-0.12849,-0.14777 -0.19225,-0.35624 -0.3507,-0.47129c-0.43417,-0.31523 -1.17925,-0.31194 -1.83904,-0.27715c0.03402,0.42867 0.01292,0.86721 0.01292,1.28257v0.22052c0,0 0,0.52174 -0.52174,0.52174c-0.52174,0 -0.52174,-0.52174 -0.52174,-0.52174v-0.22052c0,-0.38357 0.04991,-0.8471 0.0021,-1.27759c-0.14935,-0.05123 -0.33288,-0.17714 -0.33288,-0.48658c0,-0.12105 0.02808,-0.21403 0.07123,-0.28542c-0.21969,-0.30208 -0.65255,-0.41689 -0.85484,-0.73265c-0.16843,-0.26289 -0.24806,-0.57752 -0.31226,-0.88305c-0.09944,-0.47314 -0.08169,-1.16044 0.02398,-1.7665c-0.41683,0.00052 -1.1387,-0.0014 -1.21761,-0.02733c-0.9074,-0.2982 -1.47673,-1.66735 -2.01658,-2.38714l-0.20281,-0.09946c0,0 -0.43411,-0.2894 -0.14471,-0.72351c0.2894,-0.43411 0.72351,-0.14471 0.72351,-0.14471l0.45877,0.34158c0.35922,0.47897 0.68108,0.95506 1.00792,1.45531c0.04221,0.06459 0.3521,0.53118 0.50385,0.56799c0.37527,0.09103 0.77199,-0.02677 1.15815,-0.02677c0,0 0.02883,0 0.07294,0.00678c0.15218,-0.22444 0.35955,-0.42419 0.40709,-0.68632c0.12279,-0.67708 0.01548,-1.5294 -0.20317,-2.16209c0,0 -0.16499,-0.49497 0.32997,-0.65995c0.49497,-0.16499 0.65995,0.32997 0.65995,0.32997c0.25471,0.78666 0.41532,1.85096 0.23789,2.6894c-0.08646,0.40856 -0.41261,0.72733 -0.58732,1.10664c-0.23719,0.51493 -0.25715,1.45857 -0.18182,2.01895c0.08823,0.65628 0.66841,0.6941 1.02317,1.22975c0.06497,0.09808 0.12014,0.19943 0.16696,0.3034c0.90757,-0.02919 1.94422,-0.06031 2.67293,0.43793c0.22706,0.15525 0.3467,0.42747 0.53139,0.63131c0.07174,0.07919 0.32294,0.32241 0.54704,0.54416c0.16222,-0.31381 0.30451,-0.63317 0.50308,-0.92446c0.42754,-0.62718 1.2336,-0.98385 1.67537,-1.57381c0.1042,-0.13915 0.09486,-0.33788 0.1798,-0.48956c0.07416,-0.1324 0.23948,-0.20756 0.29065,-0.35041c0.17552,-0.49002 -0.09242,-1.1277 0.11859,-1.67707c0.43332,-1.12809 1.18457,-2.19243 2.16748,-2.88576c0.09127,-0.24819 0.11839,-0.52087 0.11289,-0.78524v-0.33078c0,0 0,-0.52174 0.52174,-0.52174c0.52174,0 0.52174,0.52174 0.52174,0.52174v0.33078c-0.00703,0.48575 -0.14235,0.97111 -0.32815,1.41998c-0.9141,0.7188 -1.56768,1.54989 -2.02244,2.62729c-0.18504,0.43841 -0.01126,0.9287 -0.0536,1.38484c0.36507,0.00016 0.83271,0.00142 0.86342,0.00699c0.26117,0.04733 0.50831,0.15408 0.75744,0.24561c0.22342,0.08209 0.46335,0.13938 0.65907,0.27485c0.79775,0.55225 1.02134,1.57078 1.11408,2.47912c0.05096,0.49921 -0.03472,1.127 0.17762,1.60263c0.18584,0.41629 0.68155,0.85488 0.99524,1.16717l0.208,0.35612c0,0 0.23333,0.46665 -0.23333,0.69998z" fill="#ffe342" stroke="none" stroke-width="0.5"/><path d="M207.38193,167.97634c-0.52174,0 -0.52174,-0.52174 -0.52174,-0.52174l0.00674,-0.76787c0.07603,-0.22809 0.19326,-0.4464 0.22809,-0.68429c0.04734,-0.32327 -0.07489,-0.66609 0.01565,-0.98001c0.07411,-0.25694 0.24789,-0.47558 0.42092,-0.68334c-0.17154,0.01376 -0.35123,-0.04854 -0.5223,-0.01907c-0.48323,0.08324 -0.96184,0.23053 -1.45216,0.23483c-2.05289,0 -4.10577,0 -6.15865,0c-0.45619,0 -0.91763,0.06894 -1.36859,0c-0.11547,-0.01765 -0.25842,-0.2548 -0.31538,-0.15281c-0.0857,0.15346 0.17275,0.3497 0.1131,0.51504c-0.07984,0.22132 -0.37796,0.30366 -0.4842,0.5136c-0.33691,0.66574 -0.32739,1.56306 -0.66962,2.25315c-0.21636,0.43627 -0.5073,0.84129 -0.65802,1.30435c0,0 -0.16499,0.49497 -0.65995,0.32997c-0.49497,-0.16499 -0.32997,-0.65995 -0.32997,-0.65995c0.17154,-0.50476 0.47045,-0.95685 0.71058,-1.43283c0.35764,-0.70894 0.35311,-1.60925 0.69896,-2.30882c0.08644,-0.17485 0.3508,-0.21976 0.42819,-0.39879c0.11387,-0.26346 -0.1042,-0.66607 0.1131,-0.85355c0.39027,-0.33675 1.89854,-0.15281 2.42181,-0.15281c2.05289,0 4.10577,0 6.15865,0c0.73581,0.00825 1.30629,-0.31167 2.05289,-0.22809c0.37385,0.04185 0.90378,-0.09954 1.10755,0.21667c0.59199,0.91867 -0.43436,1.20945 -0.6082,1.82485c-0.07656,0.27104 0.05441,0.56581 0.01565,0.84478c-0.03309,0.23815 -0.15206,0.45619 -0.22809,0.68429l0.00674,0.60072c0,0 0,0.52174 -0.52174,0.52174z" fill="#ed4446" stroke="none" stroke-width="0.5"/><path d="M269.89135,175.67138c-0.23333,0.46665 -0.69998,0.23333 -0.69998,0.23333l-0.65699,-0.40535c-0.17382,-0.27417 -0.42577,-0.51231 -0.52143,-0.82252c-0.0903,-0.29279 -0.01043,-0.61271 -0.01565,-0.91905c0.32697,-0.91324 0.21152,-1.16146 1.27621,-1.55627c0.54,-0.20024 1.61856,-0.02239 2.20408,-0.02239c1.36853,0 2.73727,-0.00717 4.10577,0c0.92299,0.00484 1.40758,-0.43208 2.32718,0.07792c0.68901,0.38212 1.35937,1.33964 1.91942,1.89968c0,0 0.36893,0.36893 0,0.73784c-0.36893,0.36893 -0.73784,0 -0.73784,0c-0.54208,-0.54208 -1.10192,-1.31714 -1.73016,-1.74989c-0.27814,-0.1916 -0.67758,0.01566 -1.01072,0.07119c-0.25248,0.04208 -0.5119,0.00555 -0.76787,0.00674c-1.59661,0.00741 -3.19343,0 -4.79007,0c-0.83096,0 -1.4996,-0.23865 -1.76598,0.70233c-0.01234,0.35445 0.16885,0.70723 0.3753,0.99562l0.25541,0.05084c0,0 0.46665,0.23333 0.23333,0.69998z" fill="#ed4446" stroke="none" stroke-width="0.5"/><path d="M221.75213,180.29365c-0.52174,0 -0.52174,-0.52174 -0.52174,-0.52174v-0.22809c0,-0.90194 -0.2549,-1.81122 0.77826,-2.3068c0.63515,-0.30467 1.0215,0.16984 1.64516,-0.01733c0.26257,-0.0788 0.42282,-0.37386 0.68429,-0.45619c0.09049,-0.0285 1.35354,-0.02239 1.51978,-0.02239c0.9124,0 1.82479,0 2.73717,0c0.19995,0 1.46411,-0.01024 1.56826,0.03972c0.31391,0.15058 0.57778,0.42975 0.73856,0.73856c0.09823,0.18868 -0.13218,0.45581 -0.02201,0.63777c0.14197,0.23451 0.55441,0.21477 0.68429,0.45619c0.14727,0.27374 0.04116,0.62032 0.06173,0.93048c0,0 0,0.52174 -0.52174,0.52174c-0.52174,0 -0.52174,-0.52174 -0.52174,-0.52174c0.02058,-0.14604 0.146,-0.31707 0.06173,-0.43811c-0.15662,-0.22499 -0.54412,-0.22061 -0.68429,-0.45619c-0.15777,-0.26515 0.10647,-0.84307 -0.19585,-0.90466c-0.38202,-0.07781 -0.77906,0.03972 -1.16893,0.03972c-0.9124,0 -1.82479,0 -2.73717,0c-0.40587,0 -0.83508,-0.15862 -1.2174,-0.02239c-0.25824,0.09202 -0.41988,0.3838 -0.68429,0.45619c-0.49778,0.1363 -1.04249,-0.12034 -1.54822,-0.01733c-0.32713,0.06663 -0.13412,1.18654 -0.13412,1.34277v0.22809c0,0 0,0.52174 -0.52174,0.52174z" fill="#ed4446" stroke="none" stroke-width="0.5"/><path d="M266.68752,165.17361c4.10577,8.35166 -11.97503,13.38107 -19.95861,8.21155c-9.51113,-6.15865 -15.65843,-12.73141 -16.76523,-18.93217c-1.36859,-7.66735 19.34331,-1.82479 28.85445,-4.33387c9.19651,-2.42608 5.0905,9.40188 7.86939,15.05449z" fill="#182351" stroke="#ed4446" stroke-width="5"/><path d="M243.81213,155.1373c0,-0.28814 0.23359,-0.52174 0.52174,-0.52174c0.28814,0 0.52174,0.23359 0.52174,0.52174c0,0.28814 -0.23359,0.52174 -0.52174,0.52174c-0.28814,0 -0.52174,-0.23359 -0.52174,-0.52174z" fill="#f4f4f4" stroke="none" stroke-width="0.5"/><path d="M262.28811,167.9108c0,-0.28814 0.23359,-0.52174 0.52174,-0.52174c0.28814,0 0.52174,0.23359 0.52174,0.52174c0,0.28814 -0.23359,0.52174 -0.52174,0.52174c-0.28814,0 -0.52174,-0.23359 -0.52174,-0.52174z" fill="#f4f4f4" stroke="none" stroke-width="0.5"/><path d="M254.30466,170.41989c0,-0.28814 0.23359,-0.52174 0.52174,-0.52174c0.28814,0 0.52174,0.23359 0.52174,0.52174c0,0.28814 -0.23359,0.52174 -0.52174,0.52174c-0.28814,0 -0.52174,-0.23359 -0.52174,-0.52174z" fill="#f4f4f4" stroke="none" stroke-width="0.5"/><path d="M260.69142,155.8216c0,-0.28814 0.23359,-0.52174 0.52174,-0.52174c0.28814,0 0.52174,0.23359 0.52174,0.52174c0,0.28814 -0.23359,0.52174 -0.52174,0.52174c-0.28814,0 -0.52174,-0.23359 -0.52174,-0.52174z" fill="#f4f4f4" stroke="none" stroke-width="0.5"/><path d="M255.90135,157.87446c0,-0.28814 0.23359,-0.52174 0.52174,-0.52174c0.28814,0 0.52174,0.23359 0.52174,0.52174c0,0.28814 -0.23359,0.52174 -0.52174,0.52174c-0.28814,0 -0.52174,-0.23359 -0.52174,-0.52174z" fill="#f4f4f4" stroke="none" stroke-width="0.5"/><path d="M236.51299,160.38357c0,-0.28814 0.23359,-0.52174 0.52174,-0.52174c0.28814,0 0.52174,0.23359 0.52174,0.52174c0,0.28814 -0.23359,0.52174 -0.52174,0.52174c-0.28814,0 -0.52174,-0.23359 -0.52174,-0.52174z" fill="#f4f4f4" stroke="none" stroke-width="0.5"/><path d="M243.35594,167.9108c0,-0.28814 0.23359,-0.52174 0.52174,-0.52174c0.28814,0 0.52174,0.23359 0.52174,0.52174c0,0.28814 -0.23359,0.52174 -0.52174,0.52174c-0.28814,0 -0.52174,-0.23359 -0.52174,-0.52174z" fill="#f4f4f4" stroke="none" stroke-width="0.5"/><path d="M238.9915,162.20107c0,-0.22136 0.27282,-0.15661 0.42272,-0.31948c0.1667,-0.18111 0.09365,-0.44305 0.33981,-0.44305c0.21093,0 0.13943,0.24302 0.29951,0.38037c0.19473,0.16709 0.46302,0.12557 0.46302,0.38216c0,0.28658 -0.26407,0.21612 -0.49916,0.38c-0.14843,0.10347 -0.08243,0.38253 -0.26337,0.38253c0,0 -0.19956,-0.238 -0.36634,-0.42056c-0.14855,-0.1626 -0.39619,0.07917 -0.39619,-0.34197z" fill="#ffffff" stroke="none" stroke-width="0"/><path d="M249.15039,175.04111c0,-0.2717 0.22026,-0.49195 0.49195,-0.49195c0.2717,0 0.49195,0.22026 0.49195,0.49195c0,0.2717 -0.22026,0.49195 -0.49195,0.49195c-0.2717,0 -0.49195,-0.22026 -0.49195,-0.49195z" fill="#f6f1e0" stroke="none" stroke-width="0.5"/><path d="M239.50806,190.39011c0,-0.2717 0.22026,-0.49195 0.49195,-0.49195c0.2717,0 0.49195,0.22026 0.49195,0.49195c0,0.2717 -0.22026,0.49195 -0.49195,0.49195c-0.2717,0 -0.49195,-0.22026 -0.49195,-0.49195z" fill="#f6f1e0" stroke="none" stroke-width="0.5"/><path d="M236.94989,172.08938c0,-0.2717 0.22026,-0.49195 0.49195,-0.49195c0.2717,0 0.49195,0.22026 0.49195,0.49195c0,0.2717 -0.22026,0.49195 -0.49195,0.49195c-0.2717,0 -0.49195,-0.22026 -0.49195,-0.49195z" fill="#f6f1e0" stroke="none" stroke-width="0.5"/><path d="M245.80509,177.79606c0,-0.2717 0.22026,-0.49195 0.49195,-0.49195c0.2717,0 0.49195,0.22026 0.49195,0.49195c0,0.2717 -0.22026,0.49195 -0.49195,0.49195c-0.2717,0 -0.49195,-0.22026 -0.49195,-0.49195z" fill="#f6f1e0" stroke="none" stroke-width="0.5"/><path d="M225.14296,176.81215c0,-0.2717 0.22026,-0.49195 0.49195,-0.49195c0.2717,0 0.49195,0.22026 0.49195,0.49195c0,0.2717 -0.22026,0.49195 -0.49195,0.49195c-0.2717,0 -0.49195,-0.22026 -0.49195,-0.49195z" fill="#f6f1e0" stroke="none" stroke-width="0.5"/><path d="M222.97836,189.79976c0,-0.2717 0.22026,-0.49195 0.49195,-0.49195c0.2717,0 0.49195,0.22026 0.49195,0.49195c0,0.2717 -0.22026,0.49195 -0.49195,0.49195c-0.2717,0 -0.49195,-0.22026 -0.49195,-0.49195z" fill="#f6f1e0" stroke="none" stroke-width="0.5"/><path d="M257.21844,183.10918c0,-0.2717 0.22026,-0.49195 0.49195,-0.49195c0.2717,0 0.49195,0.22026 0.49195,0.49195c0,0.2717 -0.22026,0.49195 -0.49195,0.49195c-0.2717,0 -0.49195,-0.22026 -0.49195,-0.49195z" fill="#f6f1e0" stroke="none" stroke-width="0.5"/><path d="M244.03405,194.32576c0,-0.2717 0.22026,-0.49195 0.49195,-0.49195c0.2717,0 0.49195,0.22026 0.49195,0.49195c0,0.2717 -0.22026,0.49195 -0.49195,0.49195c-0.2717,0 -0.49195,-0.22026 -0.49195,-0.49195z" fill="#f6f1e0" stroke="none" stroke-width="0.5"/><path d="M252.2989,184.88022c0,-0.2717 0.22026,-0.49195 0.49195,-0.49195c0.2717,0 0.49195,0.22026 0.49195,0.49195c0,0.2717 -0.22026,0.49195 -0.49195,0.49195c-0.2717,0 -0.49195,-0.22026 -0.49195,-0.49195z" fill="#f6f1e0" stroke="none" stroke-width="0.5"/><path d="M237.73702,198.85175c0,-0.2717 0.22026,-0.49195 0.49195,-0.49195c0.2717,0 0.49195,0.22026 0.49195,0.49195c0,0.2717 -0.22026,0.49195 -0.49195,0.49195c-0.2717,0 -0.49195,-0.22026 -0.49195,-0.49195z" fill="#f6f1e0" stroke="none" stroke-width="0.5"/><path d="M250.33108,164.80844c0,-0.2717 0.22026,-0.49195 0.49195,-0.49195c0.2717,0 0.49195,0.22026 0.49195,0.49195c0,0.2717 -0.22026,0.49195 -0.49195,0.49195c-0.2717,0 -0.49195,-0.22026 -0.49195,-0.49195z" fill="#f6f1e0" stroke="none" stroke-width="0.5"/><path d="M238.32737,179.96066c0,-0.2717 0.22026,-0.49195 0.49195,-0.49195c0.2717,0 0.49195,0.22026 0.49195,0.49195c0,0.2717 -0.22026,0.49195 -0.49195,0.49195c-0.2717,0 -0.49195,-0.22026 -0.49195,-0.49195z" fill="#f6f1e0" stroke="none" stroke-width="0.5"/><path d="M187.08002,219.29562v-16.84487h105.64248v16.84487z" fill="#ffffff" stroke="none" stroke-width="0"/><text transform="translate(191.2358,214.28869) scale(0.30183,0.30183)" font-size="40" xml:space="preserve" fill="#000000" fill-rule="nonzero" stroke-opacity="0" stroke="#000000" stroke-width="0" stroke-linecap="butt" stroke-linejoin="miter" stroke-miterlimit="10" stroke-dasharray="" stroke-dashoffset="0" font-family="Sans Serif" font-weight="normal" text-anchor="start" style="mix-blend-mode: normal"><tspan x="0" dy="0">Final Destination</tspan></text><path d="M187.45916,219.84839v-79.69678h105.08167v79.69678z" fill="none" stroke="#000000" stroke-width="3.5"/></g></g></svg>