<svg version="1.1" xmlns="http://www.w3.org/2000/svg" xmlns:xlink="http://www.w3.org/1999/xlink" width="21.93258" height="38.10616" viewBox="0,0,21.93258,38.10616"><g transform="translate(-233.52391,-155.27628)"><g data-paper-data="{&quot;isPaintingLayer&quot;:true}" fill="none" fill-rule="nonzero" stroke="none" stroke-width="none" stroke-linecap="none" stroke-linejoin="miter" stroke-miterlimit="10" stroke-dasharray="" stroke-dashoffset="0" font-family="none" font-weight="none" font-size="none" text-anchor="none" style="mix-blend-mode: normal"><g data-paper-data="{&quot;origPos&quot;:null,&quot;origRot&quot;:0}" stroke="none" stroke-width="0" stroke-linecap="butt"><path d="M254.43854,185.30689c0.81856,0.60948 1.36715,1.40529 -2.69909,6.12972c-1.37716,1.80288 -1.69773,1.55632 -2.55292,0.99756c-1.74156,-1.13791 0.55034,-2.35982 1.90535,-4.17964c1.35501,-1.81982 1.85763,-4.05636 3.34667,-2.94765z" data-paper-data="{&quot;origPos&quot;:null}" fill="#8e4108"/><path d="M250.49539,186.18251c1.96843,1.46566 2.62603,-0.18368 -0.30567,3.50463c-2.75376,3.46445 -1.37161,1.67862 -3.34004,0.21296c-1.96844,-1.46567 -5.17767,-2.51077 -2.93493,-5.41966c0.48004,-3.33408 4.61221,0.23639 6.58064,1.70206z" data-paper-data="{&quot;origPos&quot;:null}" fill="#0052ef"/><path d="M255.44501,186.10914c0.1752,0.13306 -1.70744,3.34707 -2.0642,3.75251c-0.35555,0.40405 -2.44064,3.01523 -2.69464,2.93619c-0.25747,-0.08013 -0.81184,0.10464 -0.4936,-0.23857c0,0 1.14603,-0.98067 2.70191,-3.12516c0,0 1.57993,-2.24624 2.07862,-3.42795c0.14457,-0.16659 0.04219,-0.2234 0.47191,0.10297z" data-paper-data="{&quot;origPos&quot;:null,&quot;origRot&quot;:0}" fill="#f9c869"/></g><g data-paper-data="{&quot;origPos&quot;:null}" stroke="none" stroke-width="0" stroke-linecap="butt"><g data-paper-data="{&quot;origPos&quot;:null}"><path d="M242.4957,191.78771c0,0.92712 -0.30728,1.75864 -6.45738,1.35895c-2.24382,-0.02533 -2.23758,-0.39269 -2.29945,-1.31898c-0.126,-1.88638 2.19725,-0.87932 4.44142,-0.87932c2.24417,0 4.31542,-0.84719 4.31542,0.83935z" data-paper-data="{&quot;origPos&quot;:null}" fill="#8e4108"/><path d="M240.29478,188.73549c-0.10288,2.51299 0.74795,2.38796 -3.90996,2.25283c-4.37518,-0.12691 -0.18093,0.07116 -0.18093,-2.15834c0,-2.22951 -4.27065,-0.79641 -1.04959,-3.85857c2.1247,-2.4915 4.62608,0.96765 5.14047,3.57511z" data-paper-data="{&quot;origPos&quot;:null}" fill="#0052ef"/></g><path d="M242.23781,192.84175c-0.00209,0.20205 -3.70433,0.5781 -4.24259,0.53767c-0.53641,-0.0403 -3.87606,-0.14405 -3.96435,-0.37453c-0.0895,-0.23363 -0.56878,-0.54067 -0.10344,-0.49448c0,0 1.47101,0.30634 4.12027,0.27624c0,0 2.74521,-0.06821 3.99086,-0.34903c0.21995,0.01513 0.20438,-0.09145 0.19925,0.40414z" data-paper-data="{&quot;origPos&quot;:null,&quot;origRot&quot;:0}" fill="#f9c869"/></g><g data-paper-data="{&quot;origPos&quot;:null,&quot;origRot&quot;:0}"><path d="M246.22629,178.80889c-0.59465,-1.13841 2.67597,-0.93307 3.41606,-1.26479c0.53174,0.95326 0.38068,1.26848 0.90224,2.33569c0.57566,1.17793 -7.5164,4.53363 -7.4647,1.39972c0.0517,-3.1339 -2.39543,-7.6904 1.19105,-8.09308c2.25924,-0.11173 1.95203,6.60585 1.78873,6.29323z" data-paper-data="{&quot;origPos&quot;:null,&quot;origRot&quot;:0}" fill="#ff0021" stroke="none" stroke-width="0" stroke-linecap="butt"/><g data-paper-data="{&quot;origPos&quot;:null,&quot;origRot&quot;:0}" fill="#ffffff" stroke="none" stroke-width="0" stroke-linecap="butt"><path d="M252.93762,180.84946c-1.22254,0.69273 -2.00223,1.50536 -3.4521,-1.38149c-1.23837,-2.4657 -0.24743,-3.19738 0.97512,-3.89013c0.6876,-0.38963 1.69132,-0.65486 2.31517,-0.20196c0.34526,0.25066 0.36499,1.48952 0.13229,1.11887c-0.33099,-0.52721 0.77714,0.1792 0.91265,0.46761c0,0 0.19874,1.32096 0.05562,1.0548c-0.13908,-0.25866 0.58552,0.2809 0.54274,0.72611c-0.09359,0.97383 -0.25896,1.41343 -1.48149,2.10616z" data-paper-data="{&quot;origPos&quot;:null,&quot;origRot&quot;:0}"/><path d="M254.29006,178.85605c-0.38713,0.21937 -0.86406,0.05012 -1.06523,-0.37802c-0.20117,-0.42815 -0.05044,-0.95308 0.33671,-1.17245c0.38713,-0.21937 0.86407,-0.05012 1.06524,0.37803c0.20117,0.42815 0.05043,0.95307 -0.33672,1.17243z" data-paper-data="{&quot;origPos&quot;:null,&quot;origRot&quot;:0}"/></g><path d="M246.17721,180.04374c-0.54001,6.33734 -2.61575,7.91677 -6.92456,7.53188c-4.30879,-0.3849 -5.47718,-1.1218 -4.92369,-8.09014c0.48367,-6.08948 2.01517,-7.97041 6.32398,-7.58551c4.30879,0.3849 6.11777,1.17879 5.52427,8.14379z" data-paper-data="{&quot;origPos&quot;:null}" fill="#ff0021" stroke="none" stroke-width="NaN" stroke-linecap="butt"/><path d="M246.54671,179.67073c-0.54001,6.33734 1.0346,7.91645 -7.31024,7.98371c-2.32007,0.0187 -5.48279,-0.37069 -5.65366,-2.42079c-0.23547,-3.83795 0.29463,-3.10999 0.54211,-6.22571c0.16206,-2.04029 2.18165,-0.67212 3.96181,-0.15131c0.29094,-2.18659 0.71981,-5.61052 0.89581,-7.17666c1.12783,-0.03664 1.75972,-0.91779 1.68777,0.19461c-0.13202,2.04126 0.18614,3.92281 -0.0354,7.23449c0,0 1.54659,0.13364 2.79174,0.15197c0.20284,-1.84483 0.59917,-5.36397 0.7571,-6.71835c0,0 1.30282,-0.8385 1.45746,0.45748c-0.11961,1.47731 -0.07254,4.52514 -0.14399,6.53824z" data-paper-data="{&quot;origPos&quot;:null}" fill="#0052ef" stroke="none" stroke-width="NaN" stroke-linecap="butt"/><path d="M236.70089,179.64684c0.04676,-0.52349 0.56052,-0.90535 1.14751,-0.85291c0.58699,0.05244 1.02494,0.51931 0.97818,1.0428c-0.04676,0.52349 -0.56052,0.90534 -1.14752,0.8529c-0.58699,-0.05244 -1.02493,-0.5193 -0.97817,-1.04279z" data-paper-data="{&quot;origPos&quot;:null}" fill="#fded47" stroke="none" stroke-width="0" stroke-linecap="butt"/><path d="M242.3434,180.37714c0.04676,-0.52349 0.56052,-0.90535 1.14751,-0.85291c0.58699,0.05244 1.02494,0.51931 0.97818,1.0428c-0.04676,0.52349 -0.56052,0.90534 -1.14752,0.8529c-0.58699,-0.05244 -1.02493,-0.5193 -0.97817,-1.04279z" data-paper-data="{&quot;origPos&quot;:null}" fill="#ffe84f" stroke="none" stroke-width="0" stroke-linecap="butt"/><path d="M239.9604,178.55738c-0.68615,-1.13751 2.67044,-0.87967 3.29038,-0.95023c0.39254,1.6574 0.35343,1.14467 0.95815,2.21133c0.66745,1.17731 -7.87297,4.61279 -7.94999,1.46724c-0.07703,-3.14555 -2.89529,-7.69787 0.93577,-8.13202c2.4193,-0.13104 2.95412,5.71606 2.7657,5.40368z" data-paper-data="{&quot;origPos&quot;:null,&quot;origRot&quot;:0}" fill="#ff0021" stroke="none" stroke-width="0" stroke-linecap="butt"/><g data-paper-data="{&quot;origPos&quot;:null,&quot;origRot&quot;:0}" fill="#ffffff" stroke="none" stroke-width="0" stroke-linecap="butt"><path d="M246.29136,181.69995c-1.57421,0.26823 -2.66299,0.80253 -3.68154,-2.51176c-0.86996,-2.83078 0.44495,-3.21487 2.01914,-3.48311c0.88539,-0.15085 2.10839,-0.0738 2.7272,0.57922c0.34247,0.36139 0.08191,1.58149 -0.10277,1.14032c-0.26268,-0.62748 0.85893,0.43634 0.94988,0.76433c0,0 -0.07204,1.36061 -0.17688,1.05184c-0.10187,-0.30001 0.61378,0.47166 0.46239,0.89338c-0.33115,0.92243 -0.62322,1.29755 -2.19743,1.56578z" data-paper-data="{&quot;origPos&quot;:null,&quot;origRot&quot;:0}"/><path d="M248.31357,180.20132c-0.49849,0.08493 -1.01207,-0.24089 -1.14708,-0.7278c-0.13501,-0.4869 0.15965,-0.95045 0.65814,-1.0354c0.49849,-0.08493 1.01206,0.24089 1.14707,0.7278c0.13501,0.4869 -0.15964,0.95046 -0.65814,1.0354z" data-paper-data="{&quot;origPos&quot;:null,&quot;origRot&quot;:0}"/></g><g data-paper-data="{&quot;origPos&quot;:null,&quot;origRot&quot;:0}"><path d="M236.32156,167.80606c-0.35985,0.41351 -0.89155,0.47446 -1.43663,0.00012c-0.54508,-0.47434 -0.55021,-1.81048 -0.19036,-2.224c0.35985,-0.41351 0.54459,0.03168 1.08967,0.50603c0.54508,0.47434 0.89715,1.30435 0.5373,1.71785z" data-paper-data="{&quot;origRot&quot;:0,&quot;origPos&quot;:null}" fill="#5a2c0a" stroke="none" stroke-width="0" stroke-linecap="butt"/><path d="M250.29802,164.86719c-0.88981,2.85197 -0.1494,4.11627 -1.86695,7.00825c-1.99019,2.07941 -4.21913,3.05704 -8.8005,1.31278c-0.09209,-0.0308 -5.38597,-4.29315 -4.25325,-7.92371c1.23966,-3.97329 2.02677,-6.54047 6.06819,-5.27955c4.04141,1.26091 10.09217,0.90894 8.85252,4.88223z" data-paper-data="{&quot;origPos&quot;:null}" fill="#ffdebd" stroke="none" stroke-width="0" stroke-linecap="butt"/><path d="M240.60676,165.52462c-0.06821,0.80004 0.60345,0.95886 0.09249,1.57826c-0.24001,0.29095 -1.45404,-0.12013 -0.96194,-0.1787c0.25971,-0.03092 -0.46923,0.47405 -0.72985,0.45182c-0.88133,-0.07515 -0.90764,-0.6515 -0.40262,-1.84686c0.58665,-1.38862 -0.3164,-3.76157 0.56494,-3.68643c0,0 1.3969,-0.38644 1.63665,0.28984c0.30833,0.86973 -0.07162,1.89005 -0.1997,3.39205z" data-paper-data="{&quot;origRot&quot;:0,&quot;origPos&quot;:null}" fill="#5a2c0a" stroke="none" stroke-width="0" stroke-linecap="butt"/><g data-paper-data="{&quot;origPos&quot;:null,&quot;origRot&quot;:0}" stroke="none" stroke-width="0" stroke-linecap="butt"><path d="M251.73207,162.65474c-0.24303,1.87748 -4.15628,0.75667 -8.17038,0.23705c-0.20122,-0.02605 -8.59067,-0.45558 -7.2503,-3.28893c-0.46609,-4.0409 5.63053,-1.64657 4.67861,-0.22863c-2.38575,-0.59852 3.22802,-4.6375 8.97929,-4.03731c5.33854,2.19286 3.21631,4.82167 1.83004,6.32927z" data-paper-data="{&quot;origPos&quot;:null}" fill="#ff0021"/><path d="M253.60278,163.60988c-0.10946,0.84556 -5.70972,0.16212 -8.9095,-0.25208c-3.19978,-0.41421 -2.94358,-1.15991 -2.83412,-2.00549c0.10946,-0.84556 3.76118,-0.824 6.96096,-0.4098c3.19978,0.41421 4.89212,1.82181 4.78265,2.66737z" data-paper-data="{&quot;origPos&quot;:null}" fill="#bc041a"/><path d="M245.85701,159.67163c0.14777,-1.14151 0.98975,-1.97339 1.88061,-1.85807c0.89087,0.11532 1.49328,1.13419 1.3455,2.27569c-0.14777,1.14151 -0.98976,1.97339 -1.88063,1.85808c-0.89087,-0.11532 -1.49327,-1.13418 -1.3455,-2.27569z" data-paper-data="{&quot;origPos&quot;:null}" fill="#ffffff"/><path d="M248.72679,159.89563c0.14777,-1.14151 0.87218,-1.9886 1.61804,-1.89205c0.74585,0.09655 1.23068,1.10018 1.08293,2.24168c-0.14777,1.14151 -0.87217,1.98862 -1.61804,1.89208c-0.74585,-0.09655 -1.23069,-1.1002 -1.08292,-2.24171z" data-paper-data="{&quot;origPos&quot;:null}" fill="#ffffff"/><path d="M248.76896,160.15919c-0.08815,0.6809 -0.4787,1.19157 -0.87234,1.14061c-0.39364,-0.05097 -0.64129,-0.64422 -0.55315,-1.32513c0.08815,-0.6809 0.4787,-1.19157 0.87234,-1.14062c0.39364,0.05097 0.6413,0.64424 0.55315,1.32514z" data-paper-data="{&quot;origPos&quot;:null}" fill="#000000"/><path d="M250.68064,160.33292c-0.08815,0.6809 -0.4175,1.1995 -0.73562,1.15831c-0.31812,-0.04119 -0.50456,-0.62653 -0.4164,-1.30743c0.08815,-0.6809 0.41749,-1.19951 0.7356,-1.15832c0.31812,0.04119 0.50456,0.62654 0.41641,1.30745z" data-paper-data="{&quot;origPos&quot;:null}" fill="#000000"/></g><path d="M238.79674,164.12306c-0.25548,0.81883 -0.20022,1.39704 -0.72648,1.96775c-0.36183,0.39239 -1.34571,0.13332 -1.85523,-0.02567c-0.9944,-0.31026 -1.45077,-1.68278 -1.01932,-3.06561c0.43144,-1.38284 1.58731,-2.25233 2.58172,-1.94208c0.9944,0.31026 1.45077,1.68277 1.01932,3.06559z" data-paper-data="{&quot;origPos&quot;:null}" fill="#ffdec6" stroke="none" stroke-width="0" stroke-linecap="butt"/><path d="M236.9987,165.13655c0,0 -0.47271,0.00805 -0.68307,-0.15561c-0.25498,-0.19837 -0.50932,-0.7721 -0.50932,-0.7721" data-paper-data="{&quot;origPos&quot;:null}" fill="none" stroke="#f6b09a" stroke-width="0.5" stroke-linecap="round"/><path d="M250.33526,164.66817c0.49168,0.04602 0.35924,1.04116 0.03339,2.08554c-0.32585,1.0444 -0.96761,1.77322 -1.43342,1.62789c-0.46581,-0.14533 -0.57925,-1.10979 -0.25342,-2.15418c0.32585,-1.0444 0.73976,-1.64478 1.65343,-1.55926z" data-paper-data="{&quot;origPos&quot;:null,&quot;index&quot;:null}" fill="#ffffff" stroke="none" stroke-width="0" stroke-linecap="butt"/><path d="M250.13096,165.42785c0.29702,0.09267 0.32416,0.85266 0.06058,1.69749c-0.26358,0.84483 -0.71805,1.45452 -1.01508,1.36186c-0.29702,-0.09267 -0.32416,-0.85263 -0.06058,-1.69746c0.26358,-0.84483 0.71806,-1.45456 1.01509,-1.36188z" data-paper-data="{&quot;origPos&quot;:null,&quot;index&quot;:null}" fill="#000000" stroke="none" stroke-width="NaN" stroke-linecap="butt"/><path d="M247.58603,166.82075c-0.37518,1.2025 -1.28525,1.98827 -2.03271,1.75507c-0.74746,-0.2332 -1.04924,-1.39707 -0.67407,-2.59957c0.37518,-1.2025 0.97483,-2.20874 1.67965,-1.86522c1.30978,0.63839 1.40232,1.50722 1.02714,2.70973z" data-paper-data="{&quot;origPos&quot;:null}" fill="#ffffff" stroke="none" stroke-width="0" stroke-linecap="butt"/><path d="M246.27623,170.05721c0.55399,-1.77562 1.26006,-2.81169 3.17226,-2.53826c1.81024,0.25885 2.78918,0.32444 1.96931,2.95224c-0.15732,0.50428 -0.70058,1.82933 -1.05454,2.22144c-1.0619,1.17635 -2.80077,2.39902 -6.79878,1.15164c-1.198,-0.37377 2.15777,-2.01145 2.71177,-3.78707z" data-paper-data="{&quot;origPos&quot;:null}" fill="#ffdebd" stroke="none" stroke-width="0" stroke-linecap="butt"/><path d="M247.4414,167.12296c-0.25577,0.81977 -0.79639,1.38036 -1.20751,1.25209c-0.41112,-0.12827 -0.53707,-0.89682 -0.28128,-1.7166c0.25577,-0.81977 0.7964,-1.38037 1.20751,-1.2521c0.41112,0.12827 0.53707,0.89682 0.28128,1.7166z" data-paper-data="{&quot;origPos&quot;:null}" fill="#000000" stroke="none" stroke-width="NaN" stroke-linecap="butt"/><path d="M250.84215,172.12998c0.44602,1.16789 0.7395,1.54408 -0.36883,1.85212c-0.70669,0.19641 -2.66489,-0.62519 -1.53258,-0.51039c0.60717,0.06155 -1.2302,0.57517 -1.83915,0.52339c-0.4454,-0.03787 -1.67144,-1.1806 -1.28095,-1.03972c0.32472,0.11716 -1.20421,0.52199 -1.54434,0.45826c-0.42432,-0.0795 -1.27402,-1.44217 -0.86968,-1.27665c0.29136,0.11929 -0.72569,0.30943 -1.02441,0.21153c-0.66571,-0.2182 -0.33312,-2.33174 0.08046,-3.45606c0,0 1.3318,0.88278 2.74202,1.8881c0.93596,0.66722 2.78266,1.15139 3.43001,1.8852z" data-paper-data="{&quot;origPos&quot;:null,&quot;origRot&quot;:0}" fill="#5a2c0a" stroke="none" stroke-width="0" stroke-linecap="butt"/><path d="M248.20981,164.41212c-0.17355,0.55621 -0.45386,-0.65168 -1.28819,-0.91198c-0.83432,-0.26031 -1.99843,1.09201 -1.8249,0.5358c0.17355,-0.55621 0.16583,-2.21851 1.95504,-1.77036c1.96416,0.49197 1.33157,1.59033 1.15804,2.14655z" data-paper-data="{&quot;origPos&quot;:null}" fill="#000001" stroke="none" stroke-width="0" stroke-linecap="butt"/><path d="M251.41222,164.9532c-0.17355,0.55621 -0.28463,-0.59887 -0.88321,-0.78563c-0.59857,-0.18675 -1.57157,1.22519 -1.39803,0.66898c0.17355,-0.55621 0.30136,-2.17622 1.59384,-1.88306c1.41887,0.32184 0.86094,1.44349 0.68739,1.9997z" data-paper-data="{&quot;origPos&quot;:null}" fill="#000001" stroke="none" stroke-width="0" stroke-linecap="butt"/></g></g></g></g></svg>