<svg version="1.1" xmlns="http://www.w3.org/2000/svg" xmlns:xlink="http://www.w3.org/1999/xlink" width="25.16069" height="33.81639" viewBox="0,0,25.16069,33.81639"><g transform="translate(-229.78876,-164.57486)"><g data-paper-data="{&quot;isPaintingLayer&quot;:true}" fill="none" fill-rule="nonzero" stroke="none" stroke-width="none" stroke-linecap="none" stroke-linejoin="miter" stroke-miterlimit="10" stroke-dasharray="" stroke-dashoffset="0" font-family="none" font-weight="none" font-size="none" text-anchor="none" style="mix-blend-mode: normal"><g data-paper-data="{&quot;origRot&quot;:0,&quot;origPos&quot;:null}" stroke="none" stroke-width="0" stroke-linecap="butt"><path d="M246.54884,182.18292c-0.52394,-1.17264 3.22721,6.34386 3.98621,6.05801c0.47246,0.98397 -2.30028,-0.03332 -1.84493,1.06378c0.50258,1.21092 -5.676,-1.72326 -5.43281,-4.84816c0.2432,-3.12488 -1.92081,-7.82247 1.68357,-8.00513c2.26184,0.0266 1.54455,6.71282 1.40066,6.39081z" data-paper-data="{&quot;origPos&quot;:null,&quot;origRot&quot;:0}" fill="#ff0021"/><g data-paper-data="{&quot;origPos&quot;:null,&quot;origRot&quot;:0}" fill="#ffffff"><path d="M247.64692,191.6251c-0.97524,-1.01165 -1.95636,-1.56454 0.47878,-3.68732c2.07988,-1.8131 3.03515,-1.03545 4.01041,-0.02383c0.54851,0.56898 1.05522,1.4751 0.77184,2.19205c-0.15683,0.39677 -1.3518,0.72424 -1.05073,0.40662c0.42823,-0.45179 0.01987,0.79728 -0.22572,1.00031c0,0 -1.22993,0.52128 -1.00777,0.31642c0.2159,-0.19908 -0.12633,0.63702 -0.56817,0.7064c-0.96647,0.15175 -1.4334,0.10099 -2.40863,-0.91064z" data-paper-data="{&quot;origPos&quot;:null,&quot;origRot&quot;:0}"/><path d="M250.17658,192.51484c-0.30883,-0.32034 -0.26362,-0.8244 0.10099,-1.12581c0.3646,-0.3014 0.91054,-0.28608 1.21935,0.03429c0.30883,0.32034 0.26361,0.82441 -0.10101,1.12581c-0.3646,0.3014 -0.91051,0.28606 -1.21936,-0.0343z" data-paper-data="{&quot;origPos&quot;:null,&quot;origRot&quot;:0}"/></g></g><path d="M245.59969,183.65034c1.94278,6.05633 0.63559,8.31345 -3.48898,9.61799c-4.12456,1.30453 -5.48664,1.07455 -7.66003,-5.56927c-1.89929,-5.80589 -1.2105,-8.13162 2.91407,-9.43615c4.12456,-1.30453 6.09977,-1.26872 8.23493,5.38745z" data-paper-data="{&quot;origPos&quot;:null,&quot;origRot&quot;:0}" fill="#ff0021" stroke="none" stroke-width="NaN" stroke-linecap="butt"/><path d="M245.79698,183.1638c1.94278,6.05633 4.00416,6.90706 -3.67085,10.18352c-2.13383,0.91093 -5.20249,1.76986 -6.14986,-0.05623c-1.69566,-3.45109 -0.92606,-2.98349 -1.89785,-5.95411c-0.63637,-1.94528 1.7544,-1.46063 3.59782,-1.6657c-0.57376,-2.12993 -1.49689,-5.45485 -1.93773,-6.96793c1.0267,-0.46824 1.2704,-1.52481 1.63249,-0.47053c0.66446,1.9346 1.68281,3.54841 2.75403,6.68987c0,0 1.47873,-0.47242 2.63484,-0.93513c-0.52343,-1.78061 -1.51325,-5.18085 -1.88921,-6.49156c0,0 0.87931,-1.27564 1.52121,-0.13923c0.45866,1.40938 1.67612,4.2039 2.38563,6.08918z" data-paper-data="{&quot;origPos&quot;:null,&quot;origRot&quot;:0}" fill="#0052ef" stroke="none" stroke-width="NaN" stroke-linecap="butt"/><path d="M236.70173,186.93432c-0.15849,-0.5011 0.16852,-1.0514 0.73041,-1.22912c0.56189,-0.17772 1.14589,0.08443 1.30438,0.58553c0.15849,0.5011 -0.16853,1.0514 -0.73044,1.22912c-0.56189,0.17772 -1.14587,-0.08444 -1.30436,-0.58553z" data-paper-data="{&quot;origPos&quot;:null,&quot;origRot&quot;:0}" fill="#fded47" stroke="none" stroke-width="0" stroke-linecap="butt"/><path d="M242.19013,185.4348c-0.15849,-0.5011 0.16852,-1.0514 0.73041,-1.22912c0.56189,-0.17772 1.14589,0.08443 1.30438,0.58553c0.15849,0.5011 -0.16853,1.0514 -0.73044,1.22912c-0.56189,0.17772 -1.14587,-0.08444 -1.30436,-0.58553z" data-paper-data="{&quot;origPos&quot;:null,&quot;origRot&quot;:0}" fill="#ffe84f" stroke="none" stroke-width="0" stroke-linecap="butt"/><g data-paper-data="{&quot;origPos&quot;:null,&quot;origRot&quot;:0}" stroke="none" stroke-width="0" stroke-linecap="butt"><path d="M252.29146,187.8554c0.95931,0.34818 1.71368,0.95249 -0.82122,6.64711c-0.80016,2.1229 -1.17812,1.97901 -2.15792,1.68993c-1.99533,-0.58869 -0.15194,-2.41838 0.62214,-4.55112c0.7741,-2.13274 0.61193,-4.41932 2.35701,-3.78593z" data-paper-data="{&quot;origPos&quot;:null}" fill="#8e4108"/><path d="M248.76698,189.82857c2.30691,0.83729 2.46213,-0.93152 0.71565,3.44437c-1.64046,4.11028 -0.83061,2.0023 -3.13752,1.16501c-2.30691,-0.8373 -5.68114,-0.91479 -4.37024,-4.34598c-0.4996,-3.3312 4.48517,-1.10069 6.79208,-0.2634z" data-paper-data="{&quot;origPos&quot;:null}" fill="#0052ef"/><path d="M253.48618,188.33414c0.20608,0.07701 -0.67214,3.6968 -0.89719,4.18775c-0.22426,0.48925 -1.46986,3.58999 -1.73584,3.58737c-0.26965,-0.00265 -0.74739,0.3338 -0.54137,-0.08646c0,0 0.8154,-1.26893 1.68844,-3.77045c0,0 0.86679,-2.60584 1.00438,-3.88107c0.09052,-0.20114 -0.02387,-0.22609 0.48158,-0.03718z" data-paper-data="{&quot;origPos&quot;:null,&quot;origRot&quot;:0}" fill="#f9c869"/></g><g data-paper-data="{&quot;origPos&quot;:null,&quot;origRot&quot;:0}" stroke="none" stroke-width="0" stroke-linecap="butt"><g data-paper-data="{&quot;origPos&quot;:null}"><path d="M246.2196,189.62281c0.99075,0.19338 1.82041,0.66841 0.21512,6.62123c-0.45694,2.19697 -0.8483,2.11422 -1.84998,1.98174c-2.03994,-0.26981 -0.51871,-2.33996 -0.08878,-4.54257c0.42994,-2.20259 -0.07858,-4.41219 1.72367,-4.06041z" data-paper-data="{&quot;origPos&quot;:null}" fill="#8e4108"/><path d="M242.47963,191.97381c2.38247,0.46504 2.75177,-1.06348 1.71503,3.47996c-0.9738,4.26767 -0.27396,1.80796 -2.65643,1.34292c-2.38247,-0.46504 -6.20053,1.46383 -5.44479,-2.08978c0.8059,-3.78942 4.00371,-3.19816 6.38617,-2.73311z" data-paper-data="{&quot;origPos&quot;:null}" fill="#0052ef"/></g><path d="M247.29655,190.09578c0.21551,0.04419 -0.09191,3.75628 -0.23822,4.27615c-0.14584,0.51806 -0.89649,3.77421 -1.15971,3.8128c-0.26681,0.03911 -0.68673,0.44547 -0.54823,-0.00161c0,0 0.60917,-1.37986 1.08453,-3.98634c0,0 0.45304,-2.70859 0.39158,-3.98975c0.05829,-0.21272 -0.05858,-0.21968 0.47004,-0.11129z" data-paper-data="{&quot;origPos&quot;:null,&quot;origRot&quot;:0}" fill="#f9c869"/></g><g data-paper-data="{&quot;origPos&quot;:null,&quot;origRot&quot;:0}"><path d="M235.46522,173.63384c-0.49501,0.23547 -1.00684,0.07906 -1.31722,-0.57346c-0.31038,-0.65252 0.21837,-1.8796 0.71338,-2.11507c0.49501,-0.23547 0.48666,0.24648 0.79704,0.89898c0.31038,0.65252 0.3018,1.55408 -0.19322,1.78953z" data-paper-data="{&quot;origRot&quot;:0,&quot;origPos&quot;:null}" fill="#5a2c0a" stroke="none" stroke-width="0" stroke-linecap="butt"/><path d="M249.4528,176.51928c-1.95444,2.25957 -1.78036,3.71433 -4.50968,5.68012c-2.65488,1.11195 -5.08878,1.11839 -8.59282,-2.30989c-0.07214,-0.06499 -3.22411,-6.08646 -0.73612,-8.96288c2.72287,-3.14799 4.46945,-5.18744 7.67139,-2.41788c3.20195,2.76956 8.89008,4.86255 6.16722,8.01052z" data-paper-data="{&quot;origPos&quot;:null}" fill="#ffdebd" stroke="none" stroke-width="0" stroke-linecap="butt"/><path d="M240.30494,173.25292c-0.38195,0.70628 0.17043,1.12006 -0.54528,1.48395c-0.33622,0.17094 -1.28517,-0.69064 -0.81059,-0.54789c0.25044,0.07533 -0.61946,0.24731 -0.84954,0.12289c-0.77804,-0.42076 -0.57207,-0.95968 0.3682,-1.85404c1.09226,-1.03892 1.21167,-3.5751 1.98973,-3.15434c0,0 1.43504,0.20339 1.38485,0.91914c-0.06454,0.9205 -0.82026,1.7043 -1.53733,3.03026z" data-paper-data="{&quot;origRot&quot;:0,&quot;origPos&quot;:null}" fill="#5a2c0a" stroke="none" stroke-width="0" stroke-linecap="butt"/><g data-paper-data="{&quot;origPos&quot;:null,&quot;origRot&quot;:0}" stroke="none" stroke-width="0" stroke-linecap="butt"><path d="M251.65091,175.06334c-0.97239,1.62433 -4.11277,-0.96561 -7.58563,-3.04459c-0.17409,-0.10423 -7.69444,-3.84745 -5.33434,-5.91005c1.18596,-3.89097 5.81972,0.73827 4.38085,1.65827c-1.94842,-1.50123 4.8111,-2.96313 9.84447,-0.1167c4.01913,4.14186 1.02386,5.7048 -0.84901,6.53358z" data-paper-data="{&quot;origPos&quot;:null}" fill="#ff0021"/><path d="M252.98474,176.68591c-0.43794,0.73156 -5.29966,-2.13092 -8.06799,-3.78814c-2.76834,-1.65725 -2.23573,-2.23866 -1.79779,-2.97022c0.43794,-0.73156 3.77738,0.74614 6.54573,2.40335c2.76834,1.65725 3.75798,3.62344 3.32005,4.35498z" data-paper-data="{&quot;origPos&quot;:null}" fill="#bc041a"/><path d="M247.45535,169.98274c0.59121,-0.98759 1.69531,-1.41417 2.46605,-0.95275c0.77075,0.46141 0.91629,1.63605 0.32508,2.62363c-0.59121,0.98759 -1.6953,1.41416 -2.46608,0.95276c-0.77075,-0.46141 -0.91628,-1.63605 -0.32508,-2.62363z" data-paper-data="{&quot;origPos&quot;:null}" fill="#ffffff"/><path d="M249.99708,171.33384c0.59121,-0.98759 1.59358,-1.47504 2.23887,-1.08874c0.64529,0.3863 0.68912,1.50003 0.09791,2.48764c-0.59121,0.98759 -1.59359,1.47505 -2.23888,1.08876c-0.64529,-0.3863 -0.6891,-1.50006 -0.09789,-2.48766z" data-paper-data="{&quot;origPos&quot;:null}" fill="#ffffff"/><path d="M249.93051,171.59231c-0.35265,0.58909 -0.9146,0.90137 -1.25519,0.69749c-0.34055,-0.20388 -0.33078,-0.84667 0.02188,-1.43579c0.35265,-0.58909 0.9146,-0.90137 1.25518,-0.6975c0.34055,0.20388 0.33077,0.8467 -0.02189,1.43579z" data-paper-data="{&quot;origPos&quot;:null}" fill="#000000"/><path d="M251.61388,172.51483c-0.35265,0.58909 -0.86168,0.93306 -1.13689,0.7683c-0.27523,-0.16477 -0.21247,-0.77586 0.14021,-1.36496c0.35265,-0.58909 0.86167,-0.93309 1.13688,-0.76832c0.27523,0.16477 0.21247,0.77587 -0.14021,1.36497z" data-paper-data="{&quot;origPos&quot;:null}" fill="#000000"/></g><path d="M239.20498,171.24528c-0.56113,0.64874 -0.74133,1.20092 -1.45166,1.5141c-0.4884,0.2153 -1.28702,-0.41504 -1.6907,-0.7642c-0.78784,-0.68146 -0.6583,-2.12205 0.28933,-3.21765c0.94767,-1.0956 2.35454,-1.43132 3.14239,-0.74987c0.78784,0.68146 0.65831,2.12203 -0.28933,3.21762z" data-paper-data="{&quot;origPos&quot;:null}" fill="#ffdec6" stroke="none" stroke-width="0" stroke-linecap="butt"/><path d="M237.15184,171.45664c0,0 -0.43662,-0.18136 -0.56415,-0.41538c-0.15458,-0.28368 -0.15872,-0.91124 -0.15872,-0.91124" data-paper-data="{&quot;origPos&quot;:null}" fill="none" stroke="#f6b09a" stroke-width="0.5" stroke-linecap="round"/><path d="M249.56641,176.35168c0.43241,0.2385 -0.08631,1.09801 -0.80203,1.92546c-0.71571,0.82746 -1.59509,1.23947 -1.96415,0.92025c-0.36905,-0.31922 -0.08802,-1.24877 0.62769,-2.07622c0.71571,-0.82746 1.3349,-1.21268 2.13847,-0.76949z" data-paper-data="{&quot;origPos&quot;:null,&quot;index&quot;:null}" fill="#ffffff" stroke="none" stroke-width="0" stroke-linecap="butt"/><path d="M249.07579,176.96664c0.23533,0.20355 -0.04322,0.91119 -0.62216,1.58053c-0.57895,0.66934 -1.23903,1.0469 -1.47436,0.84334c-0.23533,-0.20355 0.0432,-0.91116 0.62215,-1.5805c0.57895,-0.66934 1.23907,-1.04693 1.47439,-0.84337z" data-paper-data="{&quot;origPos&quot;:null,&quot;index&quot;:null}" fill="#000000" stroke="none" stroke-width="NaN" stroke-linecap="butt"/><path d="M246.18638,177.22768c-0.82406,0.95272 -1.97217,1.30982 -2.56438,0.79759c-0.5922,-0.51224 -0.40422,-1.6998 0.41982,-2.65253c0.82406,-0.95272 1.77558,-1.63589 2.28465,-1.03955c0.946,1.10821 0.68396,1.94176 -0.14009,2.89447z" data-paper-data="{&quot;origPos&quot;:null}" fill="#ffffff" stroke="none" stroke-width="0" stroke-linecap="butt"/><path d="M243.69338,179.67209c1.21683,-1.4068 2.27781,-2.07483 3.92186,-1.06069c1.55638,0.96005 2.42769,1.411 0.62691,3.49297c-0.34557,0.39953 -1.37268,1.39752 -1.85375,1.61572c-1.44324,0.65459 -3.52566,1.08134 -6.69322,-1.65844c-0.94915,-0.82098 2.7814,-0.98273 3.99822,-2.38952z" data-paper-data="{&quot;origPos&quot;:null}" fill="#ffdebd" stroke="none" stroke-width="0" stroke-linecap="butt"/><path d="M245.93314,177.44701c-0.56178,0.64948 -1.28127,0.94762 -1.60699,0.66588c-0.32573,-0.28174 -0.13436,-1.03666 0.42745,-1.68616c0.56178,-0.64948 1.28127,-0.94762 1.607,-0.66588c0.32573,0.28174 0.13436,1.03666 -0.42745,1.68616z" data-paper-data="{&quot;origPos&quot;:null}" fill="#000000" stroke="none" stroke-width="NaN" stroke-linecap="butt"/><path d="M247.0521,183.39538c-0.05734,1.24885 0.06156,1.71093 -1.07761,1.55086c-0.72634,-0.10207 -2.1937,-1.63713 -1.20136,-1.07981c0.5321,0.29884 -1.35754,0.03619 -1.89517,-0.2544c-0.39325,-0.21254 -1.0611,-1.74973 -0.75935,-1.46467c0.25095,0.23706 -1.31247,-0.00219 -1.59887,-0.19639c-0.35729,-0.24229 -0.59231,-1.8309 -0.28767,-1.51771c0.21951,0.22568 -0.78888,-0.00603 -1.02368,-0.21505c-0.52325,-0.46583 0.62549,-2.27084 1.45356,-3.13655c0,0 0.86862,1.34108 1.76021,2.82584c0.59175,0.9854 2.09159,2.16661 2.39215,3.09782z" data-paper-data="{&quot;origPos&quot;:null,&quot;origRot&quot;:0}" fill="#5a2c0a" stroke="none" stroke-width="0" stroke-linecap="butt"/><path d="M247.71991,175.26837c-0.38119,0.44068 -0.15595,-0.77868 -0.81696,-1.35044c-0.66101,-0.57176 -2.26824,0.20337 -1.88705,-0.23733c0.38119,-0.44068 1.03776,-1.96783 2.49928,-0.84263c1.60442,1.23523 0.58593,1.9897 0.20476,2.43039z" data-paper-data="{&quot;origPos&quot;:null}" fill="#000001" stroke="none" stroke-width="0" stroke-linecap="butt"/><path d="M250.44002,177.04299c-0.38119,0.44068 -0.02189,-0.66271 -0.49611,-1.07292c-0.47424,-0.41019 -1.93002,0.49588 -1.54886,0.0552c0.38119,-0.44068 1.14514,-1.87494 2.21311,-1.09014c1.17238,0.86156 0.21306,1.66718 -0.16811,2.10785z" data-paper-data="{&quot;origPos&quot;:null}" fill="#000001" stroke="none" stroke-width="0" stroke-linecap="butt"/></g><path d="M235.18231,185.74755c0.61132,-0.97441 -1.00996,3.28373 -0.71341,3.73534c-1.12777,0.95043 -2.50091,-0.46784 -3.08927,0.41596c-0.64939,0.97548 -1.168,-4.88801 1.23316,-6.1755c1.97527,-1.71438 3.40885,-5.01498 5.24001,-2.22342c1.04574,1.81874 -3.13014,4.61967 -2.96224,4.35209z" data-paper-data="{&quot;origPos&quot;:null,&quot;origRot&quot;:0,&quot;index&quot;:null}" fill="#ff0021" stroke="none" stroke-width="0" stroke-linecap="butt"/><g data-paper-data="{&quot;origPos&quot;:null,&quot;origRot&quot;:0,&quot;index&quot;:null}" fill="#ffffff" stroke="none" stroke-width="0" stroke-linecap="butt"><path d="M229.85059,190.90069c0.18666,-1.37008 0.02762,-2.40815 3.02989,-2.39009c2.56427,0.01543 2.54058,1.20135 2.35392,2.57145c-0.105,0.77058 -0.48583,1.76098 -1.18582,2.10286c-0.38738,0.18921 -1.3278,-0.34248 -0.91542,-0.38064c0.58652,-0.05429 -0.58324,0.59644 -0.87778,0.58653c0,0 -1.10538,-0.41239 -0.8231,-0.4189c0.27429,-0.00635 -0.54883,0.38476 -0.85798,0.15031c-0.67619,-0.5128 -0.91034,-0.85138 -0.72367,-2.22149z" data-paper-data="{&quot;origPos&quot;:null,&quot;origRot&quot;:0}"/><path d="M230.56425,192.96c0.0591,-0.43386 0.46149,-0.77364 0.89876,-0.75891c0.43726,0.01473 0.7438,0.3784 0.68472,0.81225c-0.0591,0.43386 -0.46149,0.77363 -0.89876,0.7589c-0.43726,-0.01473 -0.74381,-0.37838 -0.68472,-0.81225z" data-paper-data="{&quot;origPos&quot;:null,&quot;origRot&quot;:0}"/></g></g></g></svg>