<svg version="1.1" xmlns="http://www.w3.org/2000/svg" xmlns:xlink="http://www.w3.org/1999/xlink" width="26.52064" height="41.7009" viewBox="0,0,26.52064,41.7009"><g transform="translate(-224.71729,-152.66085)"><g data-paper-data="{&quot;isPaintingLayer&quot;:true}" fill="none" fill-rule="nonzero" stroke="none" stroke-width="none" stroke-linecap="none" stroke-linejoin="miter" stroke-miterlimit="10" stroke-dasharray="" stroke-dashoffset="0" font-family="none" font-weight="none" font-size="none" text-anchor="none" style="mix-blend-mode: normal"><path d="M247.10113,176.29748c0.16758,0.26145 -4.38408,-4.30974 -3.14141,-5.39332c2.15355,-1.5915 3.08115,1.77241 5.62295,3.53562c2.5418,1.76319 0.59243,6.40348 -0.05924,5.43854c-0.59041,-0.87426 -2.44647,1.25753 -2.94024,0.44317c0.64395,-0.18645 -0.25575,-5.28235 0.35452,-4.33033z" data-paper-data="{&quot;origPos&quot;:null,&quot;origRot&quot;:0,&quot;index&quot;:null}" fill="#ff0021" stroke="none" stroke-width="0" stroke-linecap="butt"/><g data-paper-data="{&quot;origPos&quot;:null,&quot;origRot&quot;:0,&quot;index&quot;:null}" fill="#ffffff" stroke="none" stroke-width="0" stroke-linecap="butt"><path d="M251.04639,181.10706c0.3759,1.35396 0.1824,1.78191 -0.43931,2.53727c-0.28424,0.34533 -1.17826,0.21534 -0.8971,0.13052c0.28932,-0.08728 -0.78453,0.70726 -0.78453,0.70726c-0.29967,0.1084 -1.583,-0.17447 -0.97629,-0.31378c0.42655,-0.09796 -0.4626,0.76494 -0.88404,0.69844c-0.7615,-0.12016 -1.28454,-1.01696 -1.49595,-1.77848c-0.37589,-1.35396 -0.56036,-2.57186 2.05799,-3.44218c3.06558,-1.01897 3.04334,0.10698 3.41924,1.46094z" data-paper-data="{&quot;origPos&quot;:null,&quot;origRot&quot;:0}"/><path d="M250.5954,183.47336c0.11905,0.42876 -0.14509,0.90677 -0.58993,1.06769c-0.44484,0.16091 -0.90196,-0.05622 -1.021,-0.48497c-0.11904,-0.42876 0.14511,-0.90677 0.58995,-1.06769c0.44484,-0.16091 0.90195,0.05622 1.02099,0.48498z" data-paper-data="{&quot;origPos&quot;:null,&quot;origRot&quot;:0}"/></g><path d="M245.38452,177.40474c0.02599,6.36025 -1.90099,8.11811 -6.22695,8.11811c-4.32595,0 -5.55527,-0.63002 -5.62398,-7.61997c-0.06005,-6.10836 1.29802,-8.1181 5.62398,-8.1181c4.32595,0 6.19839,0.62979 6.22695,7.61997z" data-paper-data="{&quot;origPos&quot;:null}" fill="#ff0021" stroke="none" stroke-width="NaN" stroke-linecap="butt"/><path d="M245.71936,177.00033c0.02599,6.36025 1.73486,7.793 -6.5709,8.60247c-2.3092,0.22505 -5.49403,0.11861 -5.84662,-1.90816c-0.57601,-3.80178 0.01675,-2.19797 -0.01397,-5.32335c-0.02012,-2.04662 0.46715,-1.68659 2.28659,-1.32623c0.09524,-2.2038 0.42352,-5.2408 0.45947,-6.81639c1.1201,-0.13684 1.97971,-1.58511 2.00702,-0.47072c0.05012,2.04491 0.12292,3.89069 0.19691,7.20895c0,0 1.14084,-0.0045 2.38268,-0.09703c0.03789,-1.85556 -0.29197,-5.49889 -0.25517,-6.86195c0,0 2.04607,-1.25972 2.3154,0.01736c0.01231,1.48209 0.33037,4.92516 0.43832,6.93663z" data-paper-data="{&quot;origPos&quot;:null}" fill="#0052ef" stroke="none" stroke-width="NaN" stroke-linecap="butt"/><path d="M235.49896,178.05831c0,-0.52557 0.47774,-0.95163 1.06707,-0.95163c0.58933,0 1.06708,0.42606 1.06708,0.95163c0,0.52557 -0.47775,0.95162 -1.06708,0.95162c-0.58933,0 -1.06707,-0.42605 -1.06707,-0.95162z" data-paper-data="{&quot;origPos&quot;:null}" fill="#fded47" stroke="none" stroke-width="0" stroke-linecap="butt"/><path d="M240.9783,178.07793c0,-0.52557 0.47774,-0.95163 1.06707,-0.95163c0.58933,0 1.06708,0.42606 1.06708,0.95163c0,0.52557 -0.47775,0.95162 -1.06708,0.95162c-0.58933,0 -1.06707,-0.42605 -1.06707,-0.95162z" data-paper-data="{&quot;origPos&quot;:null}" fill="#ffe84f" stroke="none" stroke-width="0" stroke-linecap="butt"/><path d="M245.68862,192.48669c0,1.02054 -0.22046,1.93583 -4.63295,1.49588c-1.60987,-0.02788 -1.60539,-0.43226 -1.64978,-1.45189c-0.09041,-2.07645 1.57645,-0.96791 3.18656,-0.96791c1.61011,0 3.09617,-0.93255 3.09617,0.92392z" data-paper-data="{&quot;origPos&quot;:null}" fill="#8e4108" stroke="none" stroke-width="0" stroke-linecap="butt"/><path d="M245.65855,193.77307c-0.00149,0.21999 -2.62879,0.62942 -3.01077,0.5854c-0.38066,-0.04388 -2.75066,-0.15684 -2.81332,-0.40777c-0.06351,-0.25437 -0.40363,-0.58867 -0.0734,-0.53838c0,0 1.0439,0.33354 2.92396,0.30075c0,0 1.94816,-0.07426 2.83214,-0.38001c0.15608,0.01647 0.14504,-0.09958 0.14139,0.44001z" data-paper-data="{&quot;origPos&quot;:null,&quot;origRot&quot;:0}" fill="#f9c869" stroke="none" stroke-width="0" stroke-linecap="butt"/><path d="M239.47177,188.42584c0,2.42744 1.57097,2.49707 -3.08694,2.34995c-4.37518,-0.13818 -2.23848,0.07748 -2.23848,-2.34995c0,-2.42744 -2.21309,-5.80525 1.41948,-5.74429c3.87363,0.06501 3.90593,3.31686 3.90593,5.74429z" data-paper-data="{&quot;origPos&quot;:null}" fill="#0052ef" stroke="none" stroke-width="0" stroke-linecap="butt"/><path d="M239.71801,190.55156c0,0.86826 -0.21715,1.64697 -4.56333,1.27266c-1.58568,-0.02373 -1.58127,-0.36775 -1.62499,-1.23523c-0.08904,-1.76661 1.55276,-0.82349 3.13868,-0.82349c1.58592,0 3.04964,-0.7934 3.04964,0.78606z" data-paper-data="{&quot;origPos&quot;:null}" fill="#8e4108" stroke="none" stroke-width="0" stroke-linecap="butt"/><path d="M239.53576,191.53867c-0.00147,0.18922 -2.6178,0.5414 -2.99818,0.50353c-0.37907,-0.03775 -2.73915,-0.13491 -2.80155,-0.35075c-0.06325,-0.2188 -0.40195,-0.50634 -0.0731,-0.46309c0,0 1.03955,0.2869 2.91174,0.2587c0,0 1.94,-0.06388 2.82028,-0.32688c0.15544,0.01416 0.14444,-0.08565 0.14081,0.37848z" data-paper-data="{&quot;origPos&quot;:null,&quot;origRot&quot;:0}" fill="#f9c869" stroke="none" stroke-width="0" stroke-linecap="butt"/><path d="M247.10753,160.3926c0.03135,2.98739 0.50773,3.65374 -0.23615,6.934c-1.25342,2.59109 -4.20482,4.10452 -9.10066,3.85529c-0.09709,-0.00095 -5.52012,-2.01515 -5.56003,-5.81809c-0.04368,-4.16196 -0.08506,-6.84677 4.14826,-6.89119c4.23331,-0.04442 10.70492,-2.24197 10.74859,1.91999z" data-paper-data="{&quot;origPos&quot;:null}" fill="#ffdebd" stroke="none" stroke-width="0" stroke-linecap="butt"/><path d="M234.86498,164.00143c0.10465,0.78219 0.50155,0.72654 0.33109,1.47314c-0.08007,0.35071 -0.8195,0.33332 -0.55978,0.1261c0.13707,-0.10936 -0.17338,0.59548 -0.32038,0.65456c-0.49714,0.1998 -0.61395,-0.34046 -0.54903,-1.63323c0.0754,-1.50178 -0.84177,-3.4815 -0.34463,-3.68132c0,0 0.69817,-0.7977 0.94989,-0.22806c0.32372,0.73258 0.29637,1.82032 0.49284,3.2888z" data-paper-data="{&quot;origRot&quot;:0,&quot;origPos&quot;:null}" fill="#5a2c0a" stroke="none" stroke-width="0" stroke-linecap="butt"/><path d="M247.07072,159.49217c0.34673,1.86112 -9.79131,0.45623 -13.77044,1.19754c-1.52659,0.28439 -0.74787,-1.82993 -1.09395,-3.34373c-0.51377,-2.24724 5.79884,-4.20697 8.05393,-4.68512c5.75433,0.44296 7.63076,2.67153 6.77589,4.53266z" data-paper-data="{&quot;origPos&quot;:null}" fill="#ff0021" stroke="none" stroke-width="0" stroke-linecap="butt"/><path d="M245.78552,159.60448c0.02685,0.8522 -5.61073,1.07095 -8.83561,1.17254c-3.22488,0.10157 -3.09092,-0.67545 -3.11777,-1.52765c-0.02685,-0.8522 3.58155,-1.41349 6.80642,-1.51508c3.22488,-0.10157 5.1201,1.01799 5.14693,1.8702z" data-paper-data="{&quot;origPos&quot;:null,&quot;origRot&quot;:0}" fill="#bc041a" stroke="none" stroke-width="0" stroke-linecap="butt"/><path d="M237.10707,156.79723c-0.03356,-1.15054 0.66714,-2.10447 1.56506,-2.13066c0.89792,-0.02619 1.65304,0.88527 1.68659,2.03581c0.03356,1.15054 -0.66715,2.10448 -1.56507,2.13067c-0.89792,0.02619 -1.65303,-0.88527 -1.68659,-2.03581z" data-paper-data="{&quot;origPos&quot;:null,&quot;origRot&quot;:0}" fill="#ffffff" stroke="none" stroke-width="0" stroke-linecap="butt"/><path d="M239.97637,156.5672c-0.03356,-1.15054 0.54864,-2.101 1.30041,-2.12294c0.75175,-0.02193 1.38837,0.89299 1.42194,2.04353c0.03356,1.15054 -0.54864,2.10102 -1.3004,2.12296c-0.75175,0.02193 -1.38838,-0.893 -1.42194,-2.04355z" data-paper-data="{&quot;origPos&quot;:null,&quot;origRot&quot;:0}" fill="#ffffff" stroke="none" stroke-width="0" stroke-linecap="butt"/><path d="M239.75083,156.82083c0.02001,0.68629 -0.28538,1.25202 -0.68215,1.26359c-0.39676,0.01156 -0.73462,-0.53538 -0.75464,-1.22168c-0.02001,-0.68629 0.28538,-1.25202 0.68214,-1.26359c0.39676,-0.01156 0.73462,0.53539 0.75464,1.22168z" data-paper-data="{&quot;origPos&quot;:null,&quot;origRot&quot;:0}" fill="#000000" stroke="none" stroke-width="0" stroke-linecap="butt"/><path d="M241.66604,156.69184c0.02001,0.68629 -0.22369,1.25022 -0.54433,1.25956c-0.32064,0.00934 -0.59679,-0.5394 -0.6168,-1.2257c-0.02001,-0.68629 0.22369,-1.25024 0.54432,-1.25958c0.32064,-0.00934 0.5968,0.53941 0.61681,1.22571z" data-paper-data="{&quot;origPos&quot;:null,&quot;origRot&quot;:0}" fill="#000000" stroke="none" stroke-width="0" stroke-linecap="butt"/><path d="M233.99037,163.22515c0.00804,0.85771 0.21402,1.39083 -0.07634,2.09583c-0.19964,0.48472 -1.10719,0.5411 -1.58401,0.54669c-0.93057,0.01093 -1.69595,-1.15446 -1.70953,-2.60295c-0.01358,-1.4485 0.72979,-2.63159 1.66036,-2.64252c0.93057,-0.01093 1.69596,1.15444 1.70953,2.60293z" data-paper-data="{&quot;origPos&quot;:null}" fill="#ffdec6" stroke="none" stroke-width="0" stroke-linecap="butt"/><path d="M232.74075,164.74292c0,0 -0.3996,0.15318 -0.62341,0.06222c-0.2713,-0.11025 -0.64526,-0.57782 -0.64526,-0.57782" data-paper-data="{&quot;origPos&quot;:null}" fill="none" stroke="#f6b09a" stroke-width="0.5" stroke-linecap="round"/><path d="M239.88184,163.60053c0.01322,1.2596 -0.61077,2.28737 -1.39372,2.29559c-0.78295,0.00822 -1.42836,-1.00623 -1.44158,-2.26583c-0.01322,-1.2596 0.24755,-2.40157 1.02389,-2.2917c1.4427,0.20418 1.7982,1.00234 1.81142,2.26194z" data-paper-data="{&quot;origPos&quot;:null}" fill="#ffffff" stroke="none" stroke-width="0" stroke-linecap="butt"/><path d="M241.59361,169.8804c0,0.82386 -0.71393,1.87783 -1.5946,1.87783c-0.88067,0 -1.7394,-0.86092 -1.7394,-1.68478c0,-0.82386 0.85872,-0.71954 1.7394,-0.71954c0.88067,0 1.5946,-0.29737 1.5946,0.52649z" data-paper-data="{&quot;origPos&quot;:null}" fill="#000000" stroke="none" stroke-width="0" stroke-linecap="butt"/><path d="M239.22002,163.72683c0.00901,0.8587 -0.33279,1.55848 -0.76343,1.563c-0.43064,0.00452 -0.78706,-0.68794 -0.79606,-1.54664c-0.00901,-0.8587 0.33279,-1.55849 0.76343,-1.56301c0.43064,-0.00452 0.78706,0.68794 0.79606,1.54664z" data-paper-data="{&quot;origPos&quot;:null}" fill="#000000" stroke="none" stroke-width="NaN" stroke-linecap="butt"/><path d="M243.97219,167.13518c0.80868,0.97387 1.01046,2.37311 0.02041,3.00738c-0.63127,0.40442 -2.60848,-0.59749 -1.46062,-0.83684c0.6155,-0.12835 -1.02482,0.92595 -1.63898,1.06413c-0.4492,0.10108 -2.0155,-0.60873 -1.58749,-0.5949c0.35593,0.0115 -1.0162,0.86734 -1.37029,0.91141c-0.44173,0.05498 -1.7085,-0.97995 -1.25906,-0.94693c0.32386,0.0238 -0.61402,0.5178 -0.93832,0.51661c-0.72271,-0.00267 -1.06747,-2.11596 -1.01859,-3.31299c0,0 1.58756,0.42993 3.29101,0.95231c1.13057,0.3467 2.89119,-0.48127 3.75961,0.01762z" data-paper-data="{&quot;origPos&quot;:null,&quot;origRot&quot;:0}" fill="#5a2c0a" stroke="none" stroke-width="0" stroke-linecap="butt"/><path d="M239.73386,161.11684c0.00611,0.58263 -0.63243,-0.48031 -1.50637,-0.47114c-0.87394,0.00917 -1.56522,1.65418 -1.57134,1.07155c-0.00611,-0.58263 -0.52517,-2.16183 1.31511,-2.28623c2.02022,-0.13656 1.75648,1.10319 1.76259,1.68582z" data-paper-data="{&quot;origPos&quot;:null}" fill="#000001" stroke="none" stroke-width="0" stroke-linecap="butt"/><path d="M242.25549,161.22201c0.75034,-0.12707 1.03107,1.03956 1.04895,2.33187c0.01788,1.29233 -0.5834,2.34485 -1.34302,2.3509c-0.75958,0.00605 -1.38986,-1.03669 -1.40774,-2.329c-0.01788,-1.29233 0.30747,-2.11764 1.7018,-2.35377z" data-paper-data="{&quot;origPos&quot;:null,&quot;index&quot;:null}" fill="#ffffff" stroke="none" stroke-width="0" stroke-linecap="butt"/><path d="M241.94335,162.00623c0.41003,-0.00326 0.75237,0.71147 0.76461,1.59641c0.01225,0.88494 -0.31025,1.60493 -0.72028,1.6082c-0.41003,0.00326 -0.75238,-0.71144 -0.7646,-1.59638c-0.01225,-0.88494 0.31025,-1.60497 0.72028,-1.60823z" data-paper-data="{&quot;origPos&quot;:null,&quot;index&quot;:null}" fill="#000000" stroke="none" stroke-width="NaN" stroke-linecap="butt"/><path d="M243.46021,161.16019c0.00805,0.58263 -0.59986,-0.48217 -1.42616,-0.47559c-0.82629,0.00658 -1.4735,1.64948 -1.48155,1.06686c-0.00805,-0.58263 -0.50501,-2.16331 1.23454,-2.28226c1.90965,-0.13057 1.66512,1.10836 1.67317,1.69099z" data-paper-data="{&quot;origPos&quot;:null}" fill="#000001" stroke="none" stroke-width="0" stroke-linecap="butt"/><path d="M242.71861,167.03065c0,1.34297 -1.19756,2.43166 -2.67482,2.43166c-1.47726,0 -2.67483,-1.08868 -2.67483,-2.43166c0,-1.34297 1.19756,-1.91727 2.67483,-1.91727c1.47726,0 2.67482,0.5743 2.67482,1.91727z" data-paper-data="{&quot;origPos&quot;:null}" fill="#ffdebd" stroke="#dfc2a5" stroke-width="0.5" stroke-linecap="butt"/><path d="M246.07541,163.34314c0.19646,-1.46848 0.16912,-2.55622 0.49284,-3.2888c0.25171,-0.56964 0.94989,0.22806 0.94989,0.22806c0.49714,0.19982 -0.42003,2.17954 -0.34463,3.68132c0.06492,1.29277 -0.05189,1.83303 -0.54903,1.63323c-0.14701,-0.05908 -0.45745,-0.76392 -0.32038,-0.65456c0.25973,0.20722 -0.4797,0.22461 -0.55978,-0.1261c-0.17047,-0.7466 0.22644,-0.69095 0.33109,-1.47314z" data-paper-data="{&quot;origRot&quot;:0,&quot;origPos&quot;:null,&quot;index&quot;:null}" fill="#5a2c0a" stroke="none" stroke-width="0" stroke-linecap="butt"/><path d="M246.95,162.56684c0.01357,-1.44849 0.77896,-2.61386 1.70953,-2.60293c0.93057,0.01093 1.67394,1.19402 1.66036,2.64252c-0.01358,1.44849 -0.77896,2.61388 -1.70953,2.60295c-0.47682,-0.00559 -1.38437,-0.06197 -1.58401,-0.54669c-0.29036,-0.705 -0.08438,-1.23812 -0.07634,-2.09583z" data-paper-data="{&quot;origPos&quot;:null,&quot;index&quot;:null}" fill="#ffdec6" stroke="none" stroke-width="0" stroke-linecap="butt"/><path d="M249.4683,163.56903c0,0 -0.37396,0.46757 -0.64526,0.57782c-0.22381,0.09096 -0.62341,-0.06222 -0.62341,-0.06222" data-paper-data="{&quot;origPos&quot;:null,&quot;index&quot;:null}" fill="none" stroke="#f6b09a" stroke-width="0.5" stroke-linecap="round"/><path d="M244.99759,189.5615c0,2.80783 1.71564,2.28432 -2.99354,2.11415c-4.42335,-0.15984 -2.16554,-0.11171 -2.16554,-2.91955c0,-2.80784 -1.07836,-6.46697 2.59421,-6.39647c2.96088,-1.83761 2.56488,4.39402 2.56488,7.20186z" data-paper-data="{&quot;origPos&quot;:null}" fill="#0052ef" stroke="none" stroke-width="0" stroke-linecap="butt"/><path d="M232.08231,168.30302c-0.17122,-0.32214 4.40681,3.25029 3.05151,5.25862c-2.34063,3.06382 -3.71845,-0.85692 -5.85165,-2.9954c-2.65917,-1.68206 -1.57586,-8.39317 -0.90868,-7.21571c0.60449,1.0668 2.30373,-0.45308 3.52403,0.73517c-0.37901,0.49562 1.13564,5.53489 0.51222,4.36182z" data-paper-data="{&quot;origPos&quot;:null,&quot;origRot&quot;:0,&quot;index&quot;:null}" fill="#ff0021" stroke="none" stroke-width="0" stroke-linecap="butt"/><path d="M232.55048,161.88372c0.07163,2.20396 -0.02455,2.58649 -3.19043,3.22933c-2.70403,0.54906 -3.46335,0.63195 -4.08709,-2.63335c-0.09701,-0.37922 -1.50036,-2.51063 0.56414,-2.32644c0.31743,0.02832 0.50282,0.49065 0.40642,0.7944c-0.19343,0.60949 -0.50498,-0.754 0.41232,-1.12367c0.84611,-0.11134 1.5422,0.6488 1.12351,0.77624c-0.23407,-0.02131 -2.40632,-5.75843 -0.72647,-5.25983c0,0 2.43219,5.04164 2.13783,5.11002c-0.28606,0.06645 0.06415,-5.11157 0.91643,-4.93292c1.50006,0.07048 0.48023,5.29802 0.82844,6.65935c0,0 -0.32462,-1.83977 0.59654,-2.17816c1.12818,-0.41444 0.9352,0.91319 0.9352,0.91319z" data-paper-data="{&quot;origPos&quot;:null,&quot;origRot&quot;:0,&quot;index&quot;:null}" fill="#ffffff" stroke="none" stroke-width="0" stroke-linecap="butt"/></g></g></svg>