<svg version="1.1" xmlns="http://www.w3.org/2000/svg" xmlns:xlink="http://www.w3.org/1999/xlink" width="23.2094" height="42.09713" viewBox="0,0,23.2094,42.09713"><g transform="translate(-230.25814,-151.42631)"><g data-paper-data="{&quot;isPaintingLayer&quot;:true}" fill-rule="nonzero" stroke-linejoin="miter" stroke-miterlimit="10" stroke-dasharray="" stroke-dashoffset="0" style="mix-blend-mode: normal"><path d="M245.37458,175.40721c-0.85156,-0.96148 2.3721,-1.55068 3.01038,-2.05103c0.74587,0.79695 0.67526,1.13929 1.43873,2.04928c0.84266,1.0044 -6.20171,6.21198 -6.90708,3.15805c-0.70536,-3.05393 -4.17881,-6.88607 -0.79519,-8.14151c2.16567,-0.6531 3.48702,5.9404 3.25316,5.67637z" data-paper-data="{&quot;origPos&quot;:null,&quot;origRot&quot;:0}" fill="#1fff00" stroke="none" stroke-width="0" stroke-linecap="butt"/><g data-paper-data="{&quot;origPos&quot;:null,&quot;origRot&quot;:0}" fill="#e4e4e4" stroke="none" stroke-width="0" stroke-linecap="butt"><path d="M252.3799,175.76961c-1.01948,0.96704 -1.58025,1.94367 -3.68334,-0.50849c-1.79628,-2.09442 -1.01096,-3.04342 0.00851,-4.01047c0.57339,-0.5439 1.48356,-1.0433 2.1982,-0.75415c0.3955,0.16003 0.71332,1.3576 0.39813,1.05397c-0.44833,-0.43186 0.79742,-0.01345 0.99847,0.23379c0,0 0.51134,1.23409 0.30828,1.01028c-0.19733,-0.2175 0.63597,0.13146 0.70178,0.57385c0.14395,0.96766 0.08944,1.43416 -0.93003,2.4012z" data-paper-data="{&quot;origPos&quot;:null,&quot;origRot&quot;:0}"/><path d="M253.21188,173.50894c-0.32283,0.30623 -0.82649,0.25695 -1.12495,-0.11006c-0.29846,-0.36702 -0.27872,-0.91281 0.04412,-1.21904c0.32283,-0.30623 0.8265,-0.25695 1.12496,0.11007c0.29846,0.36702 0.27871,0.9128 -0.04414,1.21903z" data-paper-data="{&quot;origPos&quot;:null,&quot;origRot&quot;:0}"/></g><path d="M245.38451,177.40472c0.02599,6.36025 -1.90099,8.11811 -6.22695,8.11811c-4.32595,0 -5.55527,-0.63002 -5.62398,-7.61997c-0.06005,-6.10836 1.29802,-8.1181 5.62398,-8.1181c4.32595,0 6.19839,0.62979 6.22695,7.61997z" data-paper-data="{&quot;origPos&quot;:null}" fill="#1fff00" stroke="none" stroke-width="NaN" stroke-linecap="butt"/><path d="M245.71935,177.00032c0.02599,6.36025 1.73486,7.793 -6.5709,8.60247c-2.3092,0.22505 -5.49403,0.11861 -5.84662,-1.90816c-0.57601,-3.80178 0.01675,-3.12387 -0.01397,-6.24925c-0.02012,-2.04662 2.1132,-0.86357 3.93263,-0.50321c0.09524,-2.2038 0.21776,-5.65231 0.25372,-7.2279c1.1201,-0.13684 1.67108,-1.07072 1.69839,0.04367c0.05012,2.04491 0.53443,3.89069 0.60842,7.20895c0,0 1.55235,-0.0045 2.79419,-0.09703c0.03789,-1.85556 0.11954,-5.39601 0.15634,-6.75907c0,0 1.22305,-0.95109 1.49238,0.32599c0.01231,1.48209 0.33037,4.51365 0.43832,6.52512z" data-paper-data="{&quot;origPos&quot;:null}" fill="#003aa6" stroke="none" stroke-width="NaN" stroke-linecap="butt"/><path d="M235.91046,177.85254c0,-0.52557 0.47774,-0.95163 1.06707,-0.95163c0.58933,0 1.06708,0.42606 1.06708,0.95163c0,0.52557 -0.47775,0.95162 -1.06708,0.95162c-0.58933,0 -1.06707,-0.42605 -1.06707,-0.95162z" data-paper-data="{&quot;origPos&quot;:null}" fill="#c7b53e" stroke="none" stroke-width="0" stroke-linecap="butt"/><path d="M241.59556,178.07791c0,-0.52557 0.47774,-0.95163 1.06707,-0.95163c0.58933,0 1.06708,0.42606 1.06708,0.95163c0,0.52557 -0.47775,0.95162 -1.06708,0.95162c-0.58933,0 -1.06707,-0.42605 -1.06707,-0.95162z" data-paper-data="{&quot;origPos&quot;:null}" fill="#c7b53e" stroke="none" stroke-width="0" stroke-linecap="butt"/><g stroke="none" stroke-width="0" stroke-linecap="butt"><path d="M251.07561,189.83381c0.27014,0.98413 0.21284,1.94902 -5.89961,3.17068c-2.19497,0.57362 -2.29594,0.18199 -2.62617,-0.7847c-0.6725,-1.96865 1.88598,-1.52142 4.07391,-2.12202c2.18793,-0.6006 3.96044,-2.0542 4.45187,-0.26396z" data-paper-data="{&quot;origPos&quot;:null}" fill="#8e4108"/><path d="M247.42865,188.09745c0.64964,2.3666 2.18296,1.47122 -2.39761,2.57435c-4.30254,1.03618 -2.11413,0.47909 -2.76379,-1.88753c-0.64964,-2.36661 -2.53614,-5.16529 1.02173,-6.07804c2.43009,-2.33262 3.49002,3.02459 4.13966,5.3912z" data-paper-data="{&quot;origPos&quot;:null}" fill="#003aa6"/><path d="M251.37526,191.08552c0.05622,0.2127 -3.40556,1.58754 -3.93629,1.68758c-0.52889,0.09968 -3.77931,0.87479 -3.93088,0.65618c-0.15364,-0.22161 -0.70431,-0.41711 -0.24226,-0.49179c0,0 1.50682,-0.06774 4.05289,-0.80066c0,0 2.62763,-0.7983 3.74791,-1.42288c0.21647,-0.04234 0.17073,-0.15013 0.30861,0.37158z" data-paper-data="{&quot;origPos&quot;:null,&quot;origRot&quot;:0}" fill="#f9c869"/></g><g stroke="none" stroke-width="0" stroke-linecap="butt"><g data-paper-data="{&quot;origPos&quot;:null}"><path d="M240.26825,192.38184c-0.20263,0.98888 -0.6854,1.81409 -6.62295,0.15319c-2.19261,-0.47746 -2.10621,-0.86803 -1.96435,-1.86843c0.28887,-2.03732 2.34471,-0.4968 4.5432,-0.04631c2.19848,0.4505 4.41274,-0.03733 4.04412,1.76156z" data-paper-data="{&quot;origPos&quot;:null}" fill="#8e4108"/><path d="M237.95232,188.62006c-0.48729,2.37803 1.03772,2.7616 -3.49584,1.68243c-4.25837,-1.01366 -1.80533,-0.29085 -1.31804,-2.66887c0.48729,-2.37803 -1.4058,-6.21395 2.14058,-5.42501c3.78173,0.84129 3.16058,4.03343 2.67329,6.41145z" data-paper-data="{&quot;origPos&quot;:null}" fill="#003aa6"/></g><path d="M239.78523,193.45434c-0.04621,0.2151 -3.75528,-0.12702 -4.27374,-0.27819c-0.51668,-0.15067 -3.76567,-0.93174 -3.80179,-1.1953c-0.03661,-0.26716 -0.43903,-0.69087 0.00674,-0.54819c0,0 1.37411,0.62204 3.97602,1.12176c0,0 2.70423,0.47832 3.98591,0.42886c0.21216,0.06029 0.2202,-0.05652 0.10686,0.47106z" data-paper-data="{&quot;origPos&quot;:null,&quot;origRot&quot;:0}" fill="#f9c869"/></g><g><path d="M233.89146,167.49123c-0.21508,0.50421 -0.7022,0.72587 -1.36683,0.44236c-0.66463,-0.28351 -1.08082,-1.55319 -0.86575,-2.0574c0.21508,-0.50421 0.5279,-0.13751 1.19253,0.14601c0.66463,0.28351 1.25511,0.96483 1.04003,1.46903z" data-paper-data="{&quot;origRot&quot;:0,&quot;origPos&quot;:null}" fill="#594537" stroke="none" stroke-width="0" stroke-linecap="butt"/><path d="M246.2845,160.39258c0.03135,2.98739 1.125,3.96237 0.38112,7.24263c-1.25342,2.59109 -3.07317,4.2074 -7.96901,3.95817c-0.09709,-0.00095 -6.44602,-2.42666 -6.48593,-6.2296c-0.04368,-4.16196 -0.08506,-6.84677 4.14826,-6.89119c4.23331,-0.04442 9.88189,-2.24197 9.92557,1.91999z" data-paper-data="{&quot;origPos&quot;:null}" fill="#ffdebd" stroke="none" stroke-width="0" stroke-linecap="butt"/><path d="M237.26624,164.00143c0.18138,0.78219 0.86932,0.72654 0.57385,1.47314c-0.13879,0.35071 -1.42041,0.33332 -0.97023,0.1261c0.23758,-0.10936 -0.30051,0.59548 -0.55531,0.65456c-0.86167,0.1998 -1.06412,-0.34046 -0.95161,-1.63323c0.13069,-1.50178 -1.45899,-3.4815 -0.59732,-3.68132c0,0 1.21011,-0.7977 1.6464,-0.22806c0.56109,0.73258 0.51369,1.82032 0.85421,3.2888z" data-paper-data="{&quot;origRot&quot;:0,&quot;origPos&quot;:null}" fill="#594537" stroke="none" stroke-width="0" stroke-linecap="butt"/><path d="M235.11267,163.22513c0.009,0.85771 0.23956,1.39083 -0.08545,2.09583c-0.22346,0.48472 -1.23932,0.5411 -1.77304,0.54669c-1.04162,0.01093 -1.89834,-1.15446 -1.91354,-2.60295c-0.0152,-1.4485 0.81688,-2.63159 1.8585,-2.64252c1.04162,-0.01093 1.89834,1.15444 1.91353,2.60293z" data-paper-data="{&quot;origPos&quot;:null}" fill="#ffdec6" stroke="none" stroke-width="0" stroke-linecap="butt"/><path d="M233.71393,164.74291c0,0 -0.44728,0.15318 -0.69781,0.06222c-0.30367,-0.11025 -0.72227,-0.57782 -0.72227,-0.57782" data-paper-data="{&quot;origPos&quot;:null}" fill="none" stroke="#f6b09a" stroke-width="0.5" stroke-linecap="round"/><path d="M246.25866,160.19175c0.48197,-0.10757 0.6623,0.88001 0.67378,1.97399c0.01148,1.09399 -0.37475,1.98498 -0.86268,1.9901c-0.48792,0.00512 -0.89276,-0.87758 -0.90425,-1.97156c-0.01148,-1.09399 0.1975,-1.79264 1.09314,-1.99253z" data-paper-data="{&quot;origPos&quot;:null,&quot;index&quot;:null}" fill="#ffffff" stroke="none" stroke-width="0" stroke-linecap="butt"/><path d="M246.29814,160.97744c0.31113,-0.00326 0.5709,0.71147 0.58019,1.59641c0.00929,0.88494 -0.23542,1.60493 -0.54655,1.6082c-0.31113,0.00326 -0.5709,-0.71144 -0.58018,-1.59638c-0.00929,-0.88494 0.23542,-1.60497 0.54655,-1.60823z" data-paper-data="{&quot;origPos&quot;:null,&quot;index&quot;:null}" fill="#000000" stroke="none" stroke-width="NaN" stroke-linecap="butt"/><path d="M244.30558,163.08613c0.01322,1.2596 -0.61077,2.28737 -1.39372,2.29559c-0.78295,0.00822 -1.42836,-1.00623 -1.44158,-2.26583c-0.01322,-1.2596 0.24755,-2.40157 1.02389,-2.2917c1.4427,0.20418 1.7982,1.00234 1.81142,2.26194z" data-paper-data="{&quot;origPos&quot;:null}" fill="#ffffff" stroke="none" stroke-width="0" stroke-linecap="butt"/><path d="M244.0557,166.56863c-0.01952,-1.85993 0.33332,-3.06304 2.23684,-3.39154c1.80202,-0.31098 2.7536,-0.54993 2.78249,2.20264c0.00555,0.52822 -0.10342,1.95616 -0.31949,2.4382c-0.6482,1.44612 -1.92625,3.1447 -6.1141,3.18865c-1.25488,0.01317 1.43379,-2.57802 1.41427,-4.43795z" data-paper-data="{&quot;origPos&quot;:null}" fill="#ffdebd" stroke="none" stroke-width="0" stroke-linecap="butt"/><path d="M244.26102,163.41818c0.00901,0.8587 -0.33279,1.55848 -0.76343,1.563c-0.43064,0.00452 -0.78706,-0.68794 -0.79606,-1.54664c-0.00901,-0.8587 0.33279,-1.55849 0.76343,-1.56301c0.43064,-0.00452 0.78706,0.68794 0.79606,1.54664z" data-paper-data="{&quot;origPos&quot;:null}" fill="#000000" stroke="none" stroke-width="NaN" stroke-linecap="butt"/><path d="M249.03797,167.13517c0.78388,0.97387 1.17892,1.24145 0.21923,1.87572c-0.61191,0.40442 -2.72794,0.22553 -1.61527,-0.01382c0.59663,-0.12835 -0.9934,0.92595 -1.58872,1.06413c-0.43543,0.10108 -1.9537,-0.60873 -1.53881,-0.5949c0.34502,0.0115 -0.98504,0.86734 -1.32827,0.91141c-0.42819,0.05498 -1.65611,-0.97995 -1.22045,-0.94693c0.31393,0.0238 -0.59519,0.5178 -0.90955,0.51661c-0.70055,-0.00267 -1.03474,-2.11596 -0.98736,-3.31299c0,0 1.53888,0.42993 3.1901,0.95231c1.0959,0.3467 3.00198,0.23887 3.84378,0.73776z" data-paper-data="{&quot;origRot&quot;:0}" fill="#594537" stroke="none" stroke-width="0" stroke-linecap="butt"/><g stroke="none" stroke-width="0" stroke-linecap="butt"><path d="M246.96783,157.84611c0.34673,1.86112 -3.72151,1.99939 -7.70064,2.7407c-0.19947,0.03716 -8.31374,2.21108 -7.91067,-0.89729c-1.6874,-3.70118 4.85023,-3.29991 4.38103,-1.65779c-2.45414,0.16497 1.64366,-5.40601 7.3004,-6.60542c5.75433,0.44296 4.54442,3.59742 3.68956,5.45855z" data-paper-data="{&quot;origPos&quot;:null}" fill="#1fff00"/><path d="M249.04173,158.17899c0.15616,0.8382 -5.38254,1.91192 -8.55444,2.50285c-3.1719,0.59092 -3.1577,-0.19744 -3.31386,-1.03564c-0.15616,-0.8382 3.32487,-1.94182 6.49677,-2.53275c3.1719,-0.59092 5.21537,0.22735 5.37152,1.06555z" data-paper-data="{&quot;origPos&quot;:null}" fill="#18cd00"/></g><path d="M244.1576,160.60244c0.00611,0.58263 -0.63243,-0.48031 -1.50637,-0.47114c-0.87394,0.00917 -1.56522,1.65418 -1.57134,1.07155c-0.00611,-0.58263 -0.52517,-2.16183 1.31511,-2.28623c2.02022,-0.13656 1.75648,1.10319 1.76259,1.68582z" data-paper-data="{&quot;origPos&quot;:null}" fill="#000001" stroke="none" stroke-width="0" stroke-linecap="butt"/><path d="M247.37107,160.13141c0.00611,0.58263 -0.45517,-0.48217 -1.08217,-0.47559c-0.62699,0.00658 -1.11809,1.64948 -1.1242,1.06686c-0.00611,-0.58263 -0.3832,-2.16331 0.93677,-2.28226c1.44904,-0.13057 1.26349,1.10836 1.2696,1.69099z" data-paper-data="{&quot;origPos&quot;:null}" fill="#000001" stroke="none" stroke-width="0" stroke-linecap="butt"/></g><g stroke="none" stroke-width="0" stroke-linecap="butt"><path d="M235.15174,176.80042c0.45586,-1.24777 2.35971,1.52868 2.8034,1.96735c-1.04497,1.34504 -0.67007,0.99306 -1.12181,2.13297c-0.4986,1.25815 -8.52995,-3.24061 -6.12788,-5.27297c2.40205,-2.03238 4.18113,-7.08223 6.92154,-4.3701c1.61907,1.80245 -2.60043,5.88541 -2.47523,5.54276z" data-paper-data="{&quot;origPos&quot;:null,&quot;origRot&quot;:0}" fill="#1fff00"/><g data-paper-data="{&quot;origPos&quot;:null}" fill="#e4e4e4"><path d="M236.67343,183.7027c-1.19603,-1.05811 -2.29494,-1.57124 -0.35181,-4.44286c1.65965,-2.45269 2.78336,-1.66923 3.97938,-0.61113c0.67269,0.59511 1.37951,1.59614 1.25884,2.48765c-0.06679,0.49339 -1.1806,1.05546 -0.95274,0.63497c0.32409,-0.59808 0.19868,0.9427 0.00022,1.21921c0,0 -1.10508,0.79702 -0.9303,0.52176c0.16984,-0.26748 0.01744,0.77388 -0.406,0.92039c-0.92621,0.32044 -1.40154,0.32812 -2.59759,-0.72998z" data-paper-data="{&quot;origPos&quot;:null,&quot;origRot&quot;:0}"/><path d="M239.10885,184.33828c-0.37874,-0.33506 -0.44694,-0.93945 -0.15231,-1.34993c0.29463,-0.41047 0.84049,-0.4716 1.21924,-0.13655c0.37874,0.33506 0.44694,0.93944 0.15231,1.34991c-0.29463,0.41047 -0.8405,0.47161 -1.21925,0.13655z" data-paper-data="{&quot;origPos&quot;:null,&quot;origRot&quot;:0}"/></g></g></g></g></svg>