<svg version="1.1" xmlns="http://www.w3.org/2000/svg" xmlns:xlink="http://www.w3.org/1999/xlink" width="23.28479" height="41.59643" viewBox="0,0,23.28479,41.59643"><g transform="translate(-231.11594,-151.786)"><g data-paper-data="{&quot;isPaintingLayer&quot;:true}" fill-rule="nonzero" stroke-linejoin="miter" stroke-miterlimit="10" stroke-dasharray="" stroke-dashoffset="0" style="mix-blend-mode: normal"><path d="M245.37458,175.40721c-0.85156,-0.96148 2.3721,-1.55068 3.01038,-2.05103c0.74587,0.79695 0.67526,1.13929 1.43873,2.04928c0.84266,1.0044 -6.20171,6.21198 -6.90708,3.15805c-0.70536,-3.05393 -4.17881,-6.88607 -0.79519,-8.14151c2.16567,-0.6531 3.48702,5.9404 3.25316,5.67637z" data-paper-data="{&quot;origPos&quot;:null,&quot;origRot&quot;:0}" fill="#1fff00" stroke="none" stroke-width="0" stroke-linecap="butt"/><g data-paper-data="{&quot;origPos&quot;:null,&quot;origRot&quot;:0}" fill="#e4e4e4" stroke="none" stroke-width="0" stroke-linecap="butt"><path d="M252.3799,175.76961c-1.01948,0.96704 -1.58025,1.94367 -3.68334,-0.50849c-1.79628,-2.09442 -1.01096,-3.04342 0.00851,-4.01047c0.57339,-0.5439 1.48356,-1.0433 2.1982,-0.75415c0.3955,0.16003 0.71332,1.3576 0.39813,1.05397c-0.44833,-0.43186 0.79742,-0.01345 0.99847,0.23379c0,0 0.51134,1.23409 0.30828,1.01028c-0.19733,-0.2175 0.63597,0.13146 0.70178,0.57385c0.14395,0.96766 0.08944,1.43416 -0.93003,2.4012z" data-paper-data="{&quot;origPos&quot;:null,&quot;origRot&quot;:0}"/><path d="M253.21188,173.50894c-0.32283,0.30623 -0.82649,0.25695 -1.12495,-0.11006c-0.29846,-0.36702 -0.27872,-0.91281 0.04412,-1.21904c0.32283,-0.30623 0.8265,-0.25695 1.12496,0.11007c0.29846,0.36702 0.27871,0.9128 -0.04414,1.21903z" data-paper-data="{&quot;origPos&quot;:null,&quot;origRot&quot;:0}"/></g><path d="M245.38451,177.40472c0.02599,6.36025 -1.90099,8.11811 -6.22695,8.11811c-4.32595,0 -5.55527,-0.63002 -5.62398,-7.61997c-0.06005,-6.10836 1.29802,-8.1181 5.62398,-8.1181c4.32595,0 6.19839,0.62979 6.22695,7.61997z" data-paper-data="{&quot;origPos&quot;:null}" fill="#1fff00" stroke="none" stroke-width="NaN" stroke-linecap="butt"/><path d="M245.71935,177.00032c0.02599,6.36025 1.73486,7.793 -6.5709,8.60247c-2.3092,0.22505 -5.49403,0.11861 -5.84662,-1.90816c-0.57601,-3.80178 0.01675,-3.12387 -0.01397,-6.24925c-0.02012,-2.04662 2.1132,-0.86357 3.93263,-0.50321c0.09524,-2.2038 0.21776,-5.65231 0.25372,-7.2279c1.1201,-0.13684 1.67108,-1.07072 1.69839,0.04367c0.05012,2.04491 0.53443,3.89069 0.60842,7.20895c0,0 1.55235,-0.0045 2.79419,-0.09703c0.03789,-1.85556 0.11954,-5.39601 0.15634,-6.75907c0,0 1.22305,-0.95109 1.49238,0.32599c0.01231,1.48209 0.33037,4.51365 0.43832,6.52512z" data-paper-data="{&quot;origPos&quot;:null}" fill="#003aa6" stroke="none" stroke-width="NaN" stroke-linecap="butt"/><path d="M235.91046,177.85254c0,-0.52557 0.47774,-0.95163 1.06707,-0.95163c0.58933,0 1.06708,0.42606 1.06708,0.95163c0,0.52557 -0.47775,0.95162 -1.06708,0.95162c-0.58933,0 -1.06707,-0.42605 -1.06707,-0.95162z" data-paper-data="{&quot;origPos&quot;:null}" fill="#fded47" stroke="none" stroke-width="0" stroke-linecap="butt"/><path d="M241.59556,178.07791c0,-0.52557 0.47774,-0.95163 1.06707,-0.95163c0.58933,0 1.06708,0.42606 1.06708,0.95163c0,0.52557 -0.47775,0.95162 -1.06708,0.95162c-0.58933,0 -1.06707,-0.42605 -1.06707,-0.95162z" data-paper-data="{&quot;origPos&quot;:null}" fill="#c7b53e" stroke="none" stroke-width="0" stroke-linecap="butt"/><path d="M239.03298,175.72235c-1.01768,-0.85385 2.24141,-1.6974 2.80505,-1.965c0.90834,1.44083 0.70522,0.96842 1.6229,1.78163c1.01288,0.89757 -5.95386,6.9147 -7.04583,3.96376c-1.09198,-2.95093 -5.23311,-6.34464 -1.74934,-7.99658c2.24636,-0.90779 4.6467,4.45067 4.36723,4.21618z" data-paper-data="{&quot;origPos&quot;:null,&quot;origRot&quot;:0}" fill="#1fff00" stroke="none" stroke-width="0" stroke-linecap="butt"/><g data-paper-data="{&quot;origPos&quot;:null}" fill="#e4e4e4" stroke="none" stroke-width="0" stroke-linecap="butt"><path d="M246.04061,176.6443c-1.4024,0.76378 -2.25935,1.622 -4.29674,-1.18353c-1.74016,-2.39624 -0.62062,-3.18563 0.78177,-3.94941c0.78876,-0.42957 1.97076,-0.7529 2.76776,-0.33559c0.44109,0.23095 0.58987,1.46965 0.27222,1.11211c-0.45181,-0.50853 0.95397,0.13453 1.14628,0.41535c0,0 0.37265,1.31056 0.17344,1.05242c-0.19358,-0.25083 0.73348,0.24737 0.72689,0.69539c-0.01443,0.97997 -0.16922,1.42947 -1.57162,2.19325z" data-paper-data="{&quot;origPos&quot;:null,&quot;origRot&quot;:0}"/><path d="M247.46821,174.57134c-0.44409,0.24186 -1.03553,0.09999 -1.32101,-0.31691c-0.28548,-0.4169 -0.15689,-0.95091 0.28719,-1.19278c0.44409,-0.24186 1.03552,-0.09999 1.321,0.31691c0.28548,0.4169 0.1569,0.95091 -0.28719,1.19278z" data-paper-data="{&quot;origPos&quot;:null,&quot;origRot&quot;:0}"/></g><g stroke="none" stroke-width="0" stroke-linecap="butt"><path d="M253.28739,181.72471c0.88658,0.50545 1.52787,1.22864 -1.93382,6.4124c-1.14774,1.95695 -1.49592,1.75118 -2.4127,1.30055c-1.86699,-0.91773 0.25934,-2.40923 1.38305,-4.38028c1.1237,-1.97106 1.35068,-4.25211 2.96347,-3.33267z" data-paper-data="{&quot;origPos&quot;:null}" fill="#8e4108"/><path d="M249.47994,183.07325c2.13202,1.21546 2.58422,-0.50159 0.12269,3.51579c-2.31212,3.77354 -1.15735,1.83293 -3.28937,0.61746c-2.13202,-1.21547 -5.44452,-1.86263 -3.57208,-5.02262c0.07111,-3.36771 4.60673,-0.32611 6.73876,0.88936z" data-paper-data="{&quot;origPos&quot;:null}" fill="#003aa6"/><path d="M254.38392,182.39865c0.19008,0.11077 -1.28783,3.52982 -1.59267,3.97564c-0.30378,0.44426 -2.05594,3.28961 -2.31766,3.24203c-0.2653,-0.04823 -0.7931,0.20256 -0.51894,-0.17679c0,0 1.0183,-1.11272 2.30191,-3.43048c0,0 1.29511,-2.42166 1.64642,-3.65523c0.12325,-0.18292 0.01471,-0.22688 0.48094,0.04483z" data-paper-data="{&quot;origPos&quot;:null,&quot;origRot&quot;:0}" fill="#f9c869"/></g><g data-paper-data="{&quot;origPos&quot;:null}" stroke="none" stroke-width="0" stroke-linecap="butt"><g data-paper-data="{&quot;origPos&quot;:null}"><path d="M242.4957,191.64613c0,1.00943 -0.30728,1.91476 -6.45738,1.47959c-2.24382,-0.02758 -2.23758,-0.42755 -2.29945,-1.43607c-0.126,-2.05384 2.19725,-0.95738 4.44142,-0.95738c2.24417,0 4.31542,-0.9224 4.31542,0.91386z" data-paper-data="{&quot;origPos&quot;:null}" fill="#8e4108"/><path d="M239.47176,188.42583c0,2.42744 1.57097,2.49707 -3.08694,2.34995c-4.37518,-0.13818 -1.82697,0.07748 -1.82697,-2.34995c0,-2.42744 -2.6246,-5.80525 1.00797,-5.74429c3.87363,0.06501 3.90593,3.31686 3.90593,5.74429z" data-paper-data="{&quot;origPos&quot;:null}" fill="#003aa6"/></g><path d="M242.23781,192.79375c-0.00209,0.21999 -3.70433,0.62942 -4.24259,0.5854c-0.53641,-0.04388 -3.87606,-0.15684 -3.96435,-0.40778c-0.0895,-0.25437 -0.56878,-0.58867 -0.10344,-0.53838c0,0 1.47101,0.33354 4.12027,0.30076c0,0 2.74521,-0.07427 3.99086,-0.38002c0.21995,0.01647 0.20438,-0.09957 0.19925,0.44002z" data-paper-data="{&quot;origPos&quot;:null,&quot;origRot&quot;:0}" fill="#f9c869"/></g><g><path d="M233.25549,166.70711c-0.271,0.47649 -0.78016,0.64135 -1.40825,0.28412c-0.6281,-0.35722 -0.89726,-1.66598 -0.62627,-2.14248c0.271,-0.47649 0.54011,-0.07661 1.1682,0.28062c0.6281,0.35722 1.1373,1.10125 0.8663,1.57773z" data-paper-data="{&quot;origRot&quot;:0,&quot;origPos&quot;:null}" fill="#594537" stroke="none" stroke-width="0" stroke-linecap="butt"/><path d="M246.37511,161.06319c-0.30843,2.97159 0.6673,4.06457 -0.44462,7.23901c-1.53983,2.43182 -3.53151,3.8308 -8.36729,3.02667c-0.09635,-0.01198 -6.1284,-3.14365 -5.73577,-6.92648c0.4297,-4.13995 0.69377,-6.81206 4.9047,-6.37499c4.21092,0.43707 10.07269,-1.10416 9.64299,3.03579z" data-paper-data="{&quot;origPos&quot;:null}" fill="#ffdebd" stroke="none" stroke-width="0" stroke-linecap="butt"/><path d="M237.00508,163.62354c0.09129,0.79774 0.7811,0.82065 0.40268,1.52882c-0.17776,0.33266 -1.44909,0.1697 -0.97828,0.015c0.24847,-0.08165 -0.36625,0.55746 -0.62611,0.5872c-0.8788,0.10056 -1.01852,-0.45921 -0.75979,-1.73081c0.30055,-1.47719 -1.05379,-3.62478 -0.17499,-3.72536c0,0 1.29294,-0.65498 1.66165,-0.03943c0.47418,0.79161 0.30344,1.86691 0.47483,3.36458z" data-paper-data="{&quot;origRot&quot;:0,&quot;origPos&quot;:null}" fill="#594537" stroke="none" stroke-width="0" stroke-linecap="butt"/><path d="M234.95372,162.60747c-0.08855,0.85317 0.07991,1.40905 -0.32313,2.07253c-0.27711,0.45618 -1.29279,0.39672 -1.82369,0.3416c-1.03611,-0.10754 -1.75481,-1.36276 -1.60526,-2.80359c0.14955,-1.44084 1.11072,-2.52168 2.14683,-2.41414c1.03611,0.10754 1.75481,1.36274 1.60525,2.80357z" data-paper-data="{&quot;origPos&quot;:null}" fill="#ffdec6" stroke="none" stroke-width="0" stroke-linecap="butt"/><path d="M233.39151,163.95642c0,0 -0.46179,0.10134 -0.70036,-0.0175c-0.28917,-0.14405 -0.65191,-0.65618 -0.65191,-0.65618" data-paper-data="{&quot;origPos&quot;:null}" fill="none" stroke="#f6b09a" stroke-width="0.5" stroke-linecap="round"/><path d="M246.37227,160.86073c0.49107,-0.05209 0.55798,0.94959 0.44503,2.03778c-0.11295,1.0882 -0.59795,1.92952 -1.0833,1.87914c-0.48534,-0.05038 -0.78722,-0.97337 -0.67428,-2.06157c0.11295,-1.0882 0.39999,-1.75857 1.31255,-1.85536z" data-paper-data="{&quot;origPos&quot;:null,&quot;index&quot;:null}" fill="#ffffff" stroke="none" stroke-width="0" stroke-linecap="butt"/><path d="M246.32218,161.64581c0.30948,0.03213 0.48633,0.77175 0.39496,1.65201c-0.09136,0.88026 -0.41633,1.56777 -0.72581,1.53565c-0.30948,-0.03213 -0.48633,-0.77172 -0.39496,-1.65198c0.09136,-0.88026 0.41633,-1.56781 0.72582,-1.53568z" data-paper-data="{&quot;origPos&quot;:null,&quot;index&quot;:null}" fill="#000000" stroke="none" stroke-width="NaN" stroke-linecap="butt"/><path d="M244.10284,163.51434c-0.13005,1.25294 -0.86682,2.20312 -1.64563,2.12229c-0.77881,-0.08083 -1.30472,-1.16207 -1.17468,-2.41501c0.13005,-1.25294 0.51893,-2.35787 1.27775,-2.16046c1.41014,0.36685 1.67261,1.20025 1.54256,2.45318z" data-paper-data="{&quot;origPos&quot;:null}" fill="#ffffff" stroke="none" stroke-width="0" stroke-linecap="butt"/><path d="M243.45872,166.94586c0.19203,-1.85009 0.67934,-3.0053 2.60786,-3.11529c1.82569,-0.10413 2.79826,-0.23336 2.51408,2.50465c-0.05453,0.52543 -0.32511,1.93173 -0.59457,2.38608c-0.80838,1.36307 -2.27122,2.90536 -6.43693,2.47299c-1.24824,-0.12956 1.71754,-2.39833 1.90957,-4.24842z" data-paper-data="{&quot;origPos&quot;:null}" fill="#ffdebd" stroke="none" stroke-width="0" stroke-linecap="butt"/><path d="M244.02083,163.83917c-0.08866,0.85416 -0.50779,1.51055 -0.93615,1.46609c-0.42836,-0.04446 -0.70376,-0.77295 -0.61509,-1.6271c0.08866,-0.85416 0.50779,-1.51056 0.93615,-1.4661c0.42836,0.04446 0.70376,0.77295 0.61509,1.6271z" data-paper-data="{&quot;origPos&quot;:null}" fill="#000000" stroke="none" stroke-width="NaN" stroke-linecap="butt"/><path d="M248.3443,168.07507c0.6681,1.05666 1.03016,1.36741 0.00459,1.88848c-0.65391,0.33224 -2.73589,-0.08602 -1.60323,-0.19734c0.60735,-0.0597 -1.09221,0.80703 -1.69938,0.87664c-0.4441,0.05093 -1.87184,-0.82686 -1.46121,-0.76596c0.34148,0.05064 -1.07725,0.74975 -1.42326,0.75452c-0.43166,0.00595 -1.53398,-1.16185 -1.1049,-1.07952c0.30919,0.05933 -0.65019,0.44679 -0.96238,0.40987c-0.69571,-0.08228 -0.78751,-2.21986 -0.60437,-3.40375c0,0 1.48004,0.60207 3.06117,1.30876c1.04939,0.46902 2.95537,0.57856 3.735,1.1699z" data-paper-data="{&quot;origRot&quot;:0}" fill="#594537" stroke="none" stroke-width="0" stroke-linecap="butt"/><g stroke="none" stroke-width="0" stroke-linecap="butt"><path d="M247.34347,158.6109c0.13293,1.88847 -3.92466,1.5634 -7.96227,1.8476c-0.2024,0.01425 -8.51119,1.25172 -7.7574,-1.79068c-1.25575,-3.869 5.1939,-2.72719 4.54108,-1.14905c-2.45699,-0.11506 2.24751,-5.18414 8.00392,-5.73277c5.66668,1.09419 4.10604,4.09067 3.04517,5.84256z" data-paper-data="{&quot;origPos&quot;:null}" fill="#1fff00"/><path d="M249.36609,159.17737c0.05987,0.85052 -5.56498,1.28769 -8.78349,1.51424c-3.21851,0.22654 -3.11479,-0.5551 -3.17466,-1.40562c-0.05987,-0.85052 3.52405,-1.55129 6.74256,-1.77784c3.21851,-0.22654 5.15572,0.81871 5.21558,1.66923z" data-paper-data="{&quot;origPos&quot;:null}" fill="#18cd00"/></g><path d="M244.23814,161.02993c-0.06016,0.57955 -0.57373,-0.54909 -1.44305,-0.63932c-0.86932,-0.09023 -1.74311,1.46554 -1.68296,0.88599c0.06016,-0.57955 -0.27603,-2.20751 1.56646,-2.12192c2.02265,0.09396 1.6197,1.2957 1.55954,1.87525z" data-paper-data="{&quot;origPos&quot;:null}" fill="#000001" stroke="none" stroke-width="0" stroke-linecap="butt"/><path d="M247.48433,160.92723c-0.06016,0.57955 -0.39741,-0.53078 -1.0211,-0.59552c-0.62367,-0.06473 -1.29834,1.51169 -1.23818,0.93216c0.06016,-0.57955 -0.13481,-2.19285 1.19012,-2.16098c1.45449,0.03499 1.12931,1.2448 1.06916,1.82435z" data-paper-data="{&quot;origPos&quot;:null}" fill="#000001" stroke="none" stroke-width="0" stroke-linecap="butt"/></g></g></g></svg>