<svg version="1.1" xmlns="http://www.w3.org/2000/svg" xmlns:xlink="http://www.w3.org/1999/xlink" width="42.22639" height="28.93357" viewBox="0,0,42.22639,28.93357"><g transform="translate(-227.65851,-162.15183)"><g data-paper-data="{&quot;isPaintingLayer&quot;:true}" fill="none" fill-rule="nonzero" stroke="none" stroke-width="none" stroke-linecap="none" stroke-linejoin="miter" stroke-miterlimit="10" stroke-dasharray="" stroke-dashoffset="0" font-family="none" font-weight="none" font-size="none" text-anchor="none" style="mix-blend-mode: normal"><path d="M263.88397,179.28842c-0.53359,0.23404 0.26511,-0.60778 0.01324,-1.18199c-0.25186,-0.57422 -1.95577,-0.38188 -1.4222,-0.61593c0.53359,-0.23404 1.83987,-1.20067 2.46681,-0.033c0.68822,1.28183 -0.52426,1.59688 -1.05784,1.83092z" data-paper-data="{&quot;origPos&quot;:null,&quot;origRot&quot;:0}" fill="#000001" stroke="none" stroke-width="0" stroke-linecap="butt"/><path d="M253.90783,171.26048c0.32159,-0.17228 -3.23584,4.41744 -5.24858,3.06873c-3.07148,-2.33057 0.84473,-3.72123 2.9762,-5.86144c1.67333,-2.66467 8.38795,-1.60336 7.21269,-0.93233c-1.06481,0.60798 0.46064,2.30224 -0.72361,3.52643c-0.49686,-0.37738 -5.53114,1.15377 -4.36011,0.52651z" data-paper-data="{&quot;origPos&quot;:null,&quot;origRot&quot;:0,&quot;index&quot;:null}" fill="#ff0021" stroke="none" stroke-width="0" stroke-linecap="butt"/><g data-paper-data="{&quot;origPos&quot;:null,&quot;origRot&quot;:0,&quot;index&quot;:null}" fill="#ffffff" stroke="none" stroke-width="0" stroke-linecap="butt"><path d="M260.33605,171.90222c-1.59213,0.12315 -2.72521,0.55565 -3.43644,-2.8379c-0.60746,-2.89848 0.73705,-3.16072 2.3292,-3.28388c0.89547,-0.06926 2.10631,0.11931 2.6628,0.82618c0.308,0.3912 -0.06305,1.58235 -0.20662,1.12614c-0.20422,-0.64887 0.81543,0.51306 0.87602,0.84797c0,0 -0.19617,1.34831 -0.27232,1.03125c-0.07401,-0.30808 0.56807,0.5258 0.37876,0.93191c-0.41411,0.8883 -0.73927,1.23511 -2.33141,1.35827z" data-paper-data="{&quot;origPos&quot;:null,&quot;origRot&quot;:0}"/><path d="M262.48682,170.59478c-0.50416,0.03899 -0.9858,-0.33244 -1.07573,-0.82964c-0.08992,-0.49721 0.2459,-0.93186 0.75006,-0.97087c0.50416,-0.03899 0.98578,0.33242 1.0757,0.82964c0.08992,0.49721 -0.24589,0.93188 -0.75006,0.97088z" data-paper-data="{&quot;origPos&quot;:null,&quot;origRot&quot;:0}"/></g><path d="M258.52775,181.21754c-1.26135,-0.24201 7.04875,0.98726 7.24905,0.20137c1.07722,0.17618 -1.3446,1.86667 -0.18444,2.12165c1.2805,0.28145 -4.66315,3.66627 -7.08565,1.6774c-2.42248,-1.98887 -7.51276,-2.90498 -5.59841,-5.96442c1.31709,-1.83901 6.38763,2.57798 6.04123,2.51154z" data-paper-data="{&quot;origPos&quot;:null,&quot;origRot&quot;:0}" fill="#ff0021" stroke="none" stroke-width="0" stroke-linecap="butt"/><g data-paper-data="{&quot;origPos&quot;:null,&quot;origRot&quot;:0}" fill="#ffffff" stroke="none" stroke-width="0" stroke-linecap="butt"><path d="M266.87737,185.38887c-1.39571,0.16277 -2.43005,0.60823 -2.64315,-2.61523c-0.18201,-2.7532 1.01546,-3.04191 2.41117,-3.20472c0.785,-0.09155 1.81286,0.05441 2.21148,0.71428c0.2206,0.3652 -0.24299,1.51422 -0.31323,1.08226c-0.09992,-0.61442 0.64627,0.4673 0.65898,0.78571c0,0 -0.33062,1.29427 -0.35896,0.9934c-0.02755,-0.29238 0.4302,0.4865 0.21766,0.88003c-0.46492,0.86078 -0.78824,1.20147 -2.18393,1.36425z" data-paper-data="{&quot;origPos&quot;:null,&quot;origRot&quot;:0}"/><path d="M269.11801,183.91565c-0.44198,0.05155 -0.81555,-0.28985 -0.83438,-0.76253c-0.01883,-0.47268 0.32417,-0.89767 0.76615,-0.94921c0.44198,-0.05155 0.81555,0.28985 0.83438,0.76253c0.01883,0.47268 -0.32417,0.89766 -0.76618,0.94921z" data-paper-data="{&quot;origPos&quot;:null,&quot;origRot&quot;:0}"/></g><path d="M263.21771,178.39123c-2.73593,1.20008 -3.20407,2.58841 -6.51336,3.19015c-2.87507,-0.1372 -5.07541,-1.17758 -6.7656,-5.77917c-0.03719,-0.08969 -0.29484,-6.88134 3.18798,-8.40903c3.81163,-1.67192 6.26526,-2.7626 7.96585,1.11439c1.70058,3.87698 5.93677,8.21175 2.12513,9.88367z" data-paper-data="{&quot;origPos&quot;:null,&quot;origRot&quot;:0}" fill="#ffdebd" stroke="none" stroke-width="0" stroke-linecap="butt"/><path d="M266.78149,179.46464c-0.70987,0.47228 -3.86913,-4.20203 -5.65632,-6.8883c-1.78718,-2.68628 -1.05637,-2.98231 -0.34651,-3.45458c0.70987,-0.47228 3.0899,2.29737 4.8771,4.98364c1.78718,2.68628 1.83559,4.88696 1.12572,5.35923z" data-paper-data="{&quot;origPos&quot;:null,&quot;origRot&quot;:0}" fill="#ff0021" stroke="none" stroke-width="0" stroke-linecap="butt"/><path d="M257.12275,177.5976c1.41865,-1.20299 2.56973,-1.69995 4.0383,-0.44511c1.39027,1.18792 2.1819,1.76749 0.08243,3.54782c-0.40289,0.34165 -1.57122,1.16985 -2.08013,1.31149c-1.52673,0.42491 -3.65,0.52643 -6.35866,-2.6678c-0.81164,-0.95715 2.89942,-0.5434 4.31806,-1.74639z" data-paper-data="{&quot;origPos&quot;:null,&quot;origRot&quot;:0}" fill="#ffdebd" stroke="none" stroke-width="0" stroke-linecap="butt"/><path d="M248.05555,184.94653c-5.52574,3.14955 -8.00386,2.33576 -10.13065,-1.43129c-2.1268,-3.76704 -2.18254,-5.14728 3.87053,-8.64361c5.28964,-3.05537 7.70741,-2.86083 9.8342,0.90623c2.1268,3.76704 2.49892,5.7072 -3.57409,9.16868z" data-paper-data="{&quot;origPos&quot;:null,&quot;origRot&quot;:0}" fill="#ff0021" stroke="none" stroke-width="NaN" stroke-linecap="butt"/><path d="M243.18669,174.92251c1.87417,-0.73837 4.76341,-1.70987 6.11636,-2.31505c1.27341,-0.28617 0.91711,1.22163 0.91711,1.22163c-1.2243,0.60034 -4.41009,2.147 -6.08182,2.95314c0.4323,1.16784 1.0738,2.58144 1.0738,2.58144c3.04846,-1.3127 4.92845,-1.63989 6.80899,-2.44474c1.0248,-0.43862 0.40465,0.45083 0.74603,1.52639c-1.41791,0.68796 -4.50311,2.23354 -6.46767,3.23667c1.08439,1.50477 3.04748,2.95284 1.17787,3.7857c-2.85507,1.27185 -1.99203,1.52898 -5.689,2.58623c-1.98982,0.52224 -3.41111,-2.32985 -4.1668,-4.52346c-2.71804,-7.89007 -0.70438,-6.93184 5.09056,-9.55329z" data-paper-data="{&quot;origPos&quot;:null,&quot;origRot&quot;:0,&quot;index&quot;:null}" fill="#0052ef" stroke="none" stroke-width="NaN" stroke-linecap="butt"/><g data-paper-data="{&quot;origPos&quot;:null,&quot;origRot&quot;:0}" stroke="none" stroke-width="0" stroke-linecap="butt"><g data-paper-data="{&quot;origPos&quot;:null}"><path d="M229.05059,185.67677c-1.0061,-0.08205 -1.88345,-0.46187 -0.94989,-6.55627c0.20986,-2.23415 0.60801,-2.19543 1.6182,-2.17512c2.05728,0.04134 0.77563,2.26779 0.59324,4.50454c-0.1824,2.23674 0.56862,4.37611 -1.26157,4.22686z" data-paper-data="{&quot;origPos&quot;:null}" fill="#8e4108"/><path d="M232.506,182.92455c-2.41941,-0.1973 -2.61647,1.36283 -2.09129,-3.26772c0.49332,-4.34947 0.07127,-1.82723 2.49067,-1.62994c2.41941,0.1973 5.99936,-2.1441 5.64336,1.47151c-0.37962,3.85553 -3.62334,3.62344 -6.04274,3.42614z" data-paper-data="{&quot;origPos&quot;:null}" fill="#0052ef"/></g><path d="M227.92773,185.32646c-0.21909,-0.01996 -0.32627,-3.74322 -0.23865,-4.27612c0.08733,-0.53107 0.47134,-3.85048 0.72864,-3.9181c0.26079,-0.06853 0.63295,-0.51906 0.54501,-0.05934c0,0 -0.45199,1.43903 -0.63462,4.08219c0,0 -0.14911,2.74216 0.0544,4.00855c-0.03428,0.21789 0.08264,0.21181 -0.45476,0.16284z" data-paper-data="{&quot;origPos&quot;:null,&quot;origRot&quot;:0}" fill="#f9c869"/></g><g data-paper-data="{&quot;origPos&quot;:null,&quot;origRot&quot;:0}" stroke="none" stroke-width="0" stroke-linecap="butt"><path d="M230.83169,191.08531c-1.0205,-0.00923 -1.93294,-0.32817 -1.43678,-6.54173c0.04839,-2.26818 0.4527,-2.2582 1.47286,-2.31154c2.07752,-0.10861 0.94777,2.2301 0.92726,4.49888c-0.02053,2.26879 0.89304,4.37119 -0.96334,4.35439z" data-paper-data="{&quot;origPos&quot;:null}" fill="#8e4108"/><path d="M233.49905,188.05208c-2.45406,-0.0222 -2.01202,1.69751 -1.82069,-3.01014c0.1797,-4.4219 0.11722,-2.16456 2.57128,-2.14237c2.45407,0.0222 5.6619,-1.02719 5.56708,2.64467c1.5793,2.97528 -3.86358,2.53003 -6.31764,2.50784z" data-paper-data="{&quot;origPos&quot;:null}" fill="#0052ef"/><path d="M229.54576,191.03128c-0.21997,-0.00409 -0.5959,-3.70985 -0.547,-4.24771c0.04873,-0.53599 0.1919,-3.87449 0.44361,-3.9605c0.25517,-0.08721 0.5938,-0.56344 0.53929,-0.09857c0,0 -0.34684,1.46792 -0.33801,4.11737c0,0 0.04943,2.74579 0.34389,3.99415c-0.01845,0.21979 0.09772,0.20527 -0.44178,0.19526z" data-paper-data="{&quot;origPos&quot;:null,&quot;origRot&quot;:0}" fill="#f9c869"/></g><path d="M248.31688,169.50065c-0.20637,-0.69248 0.50475,-1.82368 1.03008,-1.98024c0.52533,-0.15655 0.44298,0.31836 0.64934,1.01084c0.64191,2.15398 2.19273,-3.80515 4.44015,-3.77771c0.95288,0.01164 3.84433,3.2326 3.702,4.17486c-0.05934,0.39285 9.13716,1.87539 4.23968,6.58541c-1.72588,1.65981 -5.46798,1.65053 -3.9585,1.50505c-0.04524,-1.99043 -1.76313,2.9706 -2.8126,2.62249c-1.79285,-0.59467 -7.08377,-9.44824 -7.29014,-10.14071z" data-paper-data="{&quot;origRot&quot;:0,&quot;origPos&quot;:null}" fill="#5a2c0a" stroke="none" stroke-width="0" stroke-linecap="butt"/><path d="M265.69426,174.26709c-1.21055,1.45552 -3.9154,-1.58644 -7.02734,-4.17466c-0.15599,-0.12974 -7.01143,-4.98468 -4.36226,-6.65992c1.77008,-3.66236 5.63701,1.62427 4.07382,2.3121c-1.69444,-1.78295 5.20946,-2.18821 9.74537,1.39824c3.33454,4.71054 0.13459,5.79439 -1.84345,6.32537z" data-paper-data="{&quot;origPos&quot;:null,&quot;origRot&quot;:0}" fill="#ff0021" stroke="none" stroke-width="0" stroke-linecap="butt"/><path d="M262.60931,177.57041c-0.65421,0.55476 -0.91715,1.07267 -1.6672,1.2729c-0.5157,0.13766 -1.20792,-0.60798 -1.55312,-1.01507c-0.6737,-0.79448 -0.32421,-2.19803 0.7806,-3.1349c1.10483,-0.93688 2.54661,-1.0523 3.22032,-0.25782c0.6737,0.79448 0.32423,2.19802 -0.7806,3.13489z" data-paper-data="{&quot;origPos&quot;:null,&quot;origRot&quot;:0}" fill="#ffdec6" stroke="none" stroke-width="0" stroke-linecap="butt"/><path d="M260.54807,177.46359c0,0 -0.40355,-0.24632 -0.49358,-0.49718c-0.10912,-0.30408 -0.01672,-0.92481 -0.01672,-0.92481" data-paper-data="{&quot;origPos&quot;:null,&quot;origRot&quot;:0}" fill="none" stroke="#f6b09a" stroke-width="0.5" stroke-linecap="round"/></g></g></svg>