<svg version="1.1" xmlns="http://www.w3.org/2000/svg" xmlns:xlink="http://www.w3.org/1999/xlink" width="25.53354" height="25.07759" viewBox="0,0,25.53354,25.07759"><g transform="translate(-232.78505,-169.67212)"><g data-paper-data="{&quot;isPaintingLayer&quot;:true}" fill="#ff0000" fill-rule="nonzero" stroke="none" stroke-width="0" stroke-linecap="butt" stroke-linejoin="miter" stroke-miterlimit="10" stroke-dasharray="" stroke-dashoffset="0" style="mix-blend-mode: normal"><path d="M258.3186,185.63058c0,2.76999 -3.57243,5.01552 -7.97923,5.01552c-4.4068,0 -7.97922,-2.24552 -7.97922,-5.01552c0,-2.76999 3.57242,-5.01552 7.97922,-5.01552c4.4068,0 7.97923,2.24552 7.97923,5.01552z"/><path d="M254.44297,173.20578c0,1.95158 -1.68415,3.53365 -3.76164,3.53365c-2.07749,0 -3.76164,-1.58207 -3.76164,-3.53365c0,-1.95158 1.68415,-3.53366 3.76164,-3.53366c2.07749,0 3.76164,1.58208 3.76164,3.53366z"/><path d="M247.60363,174.45966c0,1.63682 -1.27587,2.96372 -2.84973,2.96372c-1.57386,0 -2.84972,-1.3269 -2.84972,-2.96372c0,-1.63682 1.27586,-2.96372 2.84972,-2.96372c1.57386,0 2.84973,1.3269 2.84973,2.96372z"/><path d="M243.04407,190.19014c0,2.51818 -2.29655,4.55956 -5.1295,4.55956c-2.83295,0 -5.1295,-2.04139 -5.1295,-4.55956c0,-2.51818 2.29655,-4.55956 5.1295,-4.55956c2.83295,0 5.1295,2.04138 5.1295,4.55956z"/></g></g></svg>