<svg version="1.1" xmlns="http://www.w3.org/2000/svg" xmlns:xlink="http://www.w3.org/1999/xlink" width="45.39663" height="31.6309" viewBox="0,0,45.39663,31.6309"><g transform="translate(-217.25355,-157.13333)"><g data-paper-data="{&quot;isPaintingLayer&quot;:true}" fill="#ff0000" fill-rule="nonzero" stroke="none" stroke-width="0" stroke-linecap="butt" stroke-linejoin="miter" stroke-miterlimit="10" stroke-dasharray="" stroke-dashoffset="0" style="mix-blend-mode: normal"><path d="M262.65018,168.64622c0,6.3584 -4.89933,11.51289 -10.94295,11.51289c-6.04362,0 -10.94295,-5.1545 -10.94295,-11.51289c0,-6.3584 4.89933,-11.51289 10.94295,-11.51289c6.04362,0 10.94295,5.15449 10.94295,11.51289z"/><path d="M241.46835,165.71469c0.25354,0.57623 -4.95961,3.42758 -11.64389,6.36866c-6.68428,2.94108 -12.3085,4.85817 -12.56204,4.28194c-0.25354,-0.57623 4.95961,-3.42758 11.64389,-6.36866c6.68428,-2.94108 12.3085,-4.85817 12.56204,-4.28194z"/><path d="M247.70829,175.70299c0.3091,0.54843 -4.59758,3.89977 -10.95939,7.48543c-6.36181,3.58566 -11.76967,6.04781 -12.07877,5.49938c-0.3091,-0.54843 4.59758,-3.89978 10.95939,-7.48544c6.36181,-3.58566 11.76967,-6.0478 12.07877,-5.49937z"/></g></g></svg>