<svg version="1.1" xmlns="http://www.w3.org/2000/svg" xmlns:xlink="http://www.w3.org/1999/xlink" width="420.5" height="554.20413" viewBox="0,0,420.5,554.20413"><g transform="translate(-26.75,92.25)"><g data-paper-data="{&quot;isPaintingLayer&quot;:true}" stroke-linejoin="miter" stroke-miterlimit="10" stroke-dasharray="" stroke-dashoffset="0" style="mix-blend-mode: normal"><path d="M26.75,452.25v-544.5h420.5v544.5z" fill="#000000" fill-rule="nonzero" stroke="none" stroke-width="0" stroke-linecap="butt"/><text transform="translate(72.46884,59.21562) scale(0.50491,0.50129)" font-size="40" xml:space="preserve" fill="#ffffff" fill-rule="nonzero" stroke="none" stroke-width="1" stroke-linecap="butt" stroke-linejoin="miter" stroke-miterlimit="10" stroke-dasharray="" stroke-dashoffset="0" font-family="Sans Serif" font-weight="normal" text-anchor="start" style="mix-blend-mode: normal"><tspan x="0" dy="0">General</tspan></text><text transform="translate(42.18449,437.94267) scale(0.2398,0.23809)" font-size="40" xml:space="preserve" fill="#ffffff" fill-rule="nonzero" stroke="none" stroke-width="1" stroke-linecap="butt" stroke-linejoin="miter" stroke-miterlimit="10" stroke-dasharray="" stroke-dashoffset="0" font-family="Sans Serif" font-weight="normal" text-anchor="start" style="mix-blend-mode: normal"><tspan x="0" dy="0">The Scralaxy Team 2021-2023</tspan></text><path d="M71.97491,62.8219h335.66425" fill="none" fill-rule="nonzero" stroke="#ff0000" stroke-width="1.5" stroke-linecap="round"/><path d="M71.67838,159.68345h336.25729" fill="none" fill-rule="nonzero" stroke="#ff0000" stroke-width="1.5" stroke-linecap="round"/><path d="M71.38185,252.18976h336.85034" fill="none" fill-rule="nonzero" stroke="#ff0000" stroke-width="1.5" stroke-linecap="round"/><path d="M71.97491,341.32825h335.96077" fill="none" fill-rule="nonzero" stroke="#ff0000" stroke-width="1.5" stroke-linecap="round"/><text transform="translate(72,72.85043) scale(0.19431,0.19431)" font-size="40" xml:space="preserve" fill="#ffffff" fill-rule="nonzero" stroke="none" stroke-width="1" stroke-linecap="butt" stroke-linejoin="miter" stroke-miterlimit="10" stroke-dasharray="" stroke-dashoffset="0" font-family="Sans Serif" font-weight="normal" text-anchor="start" style="mix-blend-mode: normal"><tspan x="0" dy="0">- I have added back content and changes made from 0.0.4 to 0.1.1.5 that were removed.</tspan><tspan x="0" dy="48px">- Using and modifying a Turbo Mode detection system created by David_Nowak123, the</tspan><tspan x="0" dy="48px">game now requires you to be using Turbo Mode. If you aren't, you'll be greeted with a</tspan><tspan x="0" dy="48px">screen telling you to enable it. If you are, you'll be directed to the title screen.</tspan><tspan x="0" dy="48px">- Added placeholder buttons to some menus, so they at least feel somewhat alive even</tspan><tspan x="0" dy="48px">though there's nothing there yet. Feel free to add, remove, or reposition buttons.</tspan></text><text transform="translate(209.83333,337.33199) scale(0.2112,0.2112)" font-size="40" xml:space="preserve" fill="#ffffff" fill-rule="nonzero" stroke="none" stroke-width="1" stroke-linecap="butt" stroke-linejoin="miter" stroke-miterlimit="10" stroke-dasharray="" stroke-dashoffset="0" font-family="Sans Serif" font-weight="normal" text-anchor="start" style="mix-blend-mode: normal"><tspan x="0" dy="0">Including Characters, Stages, e.t.c.</tspan></text><text transform="translate(71.46884,155.21562) scale(0.50491,0.50129)" font-size="40" xml:space="preserve" fill="#ffffff" fill-rule="nonzero" stroke="none" stroke-width="1" stroke-linecap="butt" stroke-linejoin="miter" stroke-miterlimit="10" stroke-dasharray="" stroke-dashoffset="0" font-family="Sans Serif" font-weight="normal" text-anchor="start" style="mix-blend-mode: normal"><tspan x="0" dy="0">Graphical</tspan></text><text transform="translate(73.46884,337.21562) scale(0.50491,0.50129)" font-size="40" xml:space="preserve" fill="#ffffff" fill-rule="nonzero" stroke="none" stroke-width="1" stroke-linecap="butt" stroke-linejoin="miter" stroke-miterlimit="10" stroke-dasharray="" stroke-dashoffset="0" font-family="Sans Serif" font-weight="normal" text-anchor="start" style="mix-blend-mode: normal"><tspan x="0" dy="0">New Features</tspan></text><text transform="translate(72.46884,248.21562) scale(0.50491,0.50129)" font-size="40" xml:space="preserve" fill="#ffffff" fill-rule="nonzero" stroke="none" stroke-width="1" stroke-linecap="butt" stroke-linejoin="miter" stroke-miterlimit="10" stroke-dasharray="" stroke-dashoffset="0" font-family="Sans Serif" font-weight="normal" text-anchor="start" style="mix-blend-mode: normal"><tspan x="0" dy="0">Bug Fixes</tspan></text><text transform="translate(177.82667,451.5375) scale(0.83333,0.83333)" font-size="40" xml:space="preserve" fill="#ffffff" fill-rule="nonzero" stroke="none" stroke-width="1" stroke-linecap="butt" stroke-linejoin="miter" stroke-miterlimit="10" stroke-dasharray="" stroke-dashoffset="0" font-family="Sans Serif" font-weight="normal" text-anchor="start" style="mix-blend-mode: normal"><tspan x="0" dy="0">|</tspan></text><text transform="translate(191.5,434.25586) scale(0.17835,0.17835)" font-size="40" xml:space="preserve" fill="#ffffff" fill-rule="nonzero" stroke="none" stroke-width="1" stroke-linecap="butt" stroke-linejoin="miter" stroke-miterlimit="10" stroke-dasharray="" stroke-dashoffset="0" font-family="Sans Serif" font-weight="normal" text-anchor="start" style="mix-blend-mode: normal"><tspan x="0" dy="0">With Characters from Nintendo Co., Ltd.</tspan></text><g fill="#ffffff" fill-rule="nonzero" stroke="none" stroke-width="1" stroke-linecap="butt" font-family="Sans Serif" font-weight="400" font-size="22" text-anchor="start"><text transform="translate(190.50203,31.23468) rotate(-0.20472) scale(1.75204,1.37499) skewX(-5.54346)" font-size="22" xml:space="preserve" fill="#ffffff" fill-rule="nonzero" stroke="none" stroke-width="1" stroke-linecap="butt" stroke-linejoin="miter" stroke-miterlimit="10" stroke-dasharray="" stroke-dashoffset="0" font-family="Sans Serif" font-weight="400" text-anchor="start" style="mix-blend-mode: normal"><tspan x="0" dy="0">0.1.1.6</tspan></text><text transform="translate(179.57163,30.29162) rotate(-0.264) scale(0.854,0.86331) skewX(-5.64874)" font-size="22" xml:space="preserve" fill="#ffffff" fill-rule="nonzero" stroke="none" stroke-width="1" stroke-linecap="butt" stroke-linejoin="miter" stroke-miterlimit="10" stroke-dasharray="" stroke-dashoffset="0" font-family="Sans Serif" font-weight="400" text-anchor="start" style="mix-blend-mode: normal"><tspan x="0" dy="0">v</tspan></text></g><g fill="#ffffff" stroke="#ffffff"><path d="M126.61429,-34.34881c1.82339,4.21566 4.29157,6.248 6.90831,6.248c1.73034,0 2.87302,-1.11003 2.87302,-2.70978c0,-4.47276 -10.9697,-4.21158 -10.9697,-11.55737c0.01868,-1.54938 0.65853,-3.0264 1.77605,-4.09976c0.84395,-0.84721 1.96213,-1.53609 3.29743,-1.99071c1.23823,-0.40949 2.53526,-0.61298 3.8394,-0.60236c0.42134,-0.00018 0.84252,0.0156 1.26265,0.04734c2.07472,0.16865 4.09665,0.74032 5.95253,1.683l-0.52236,7.0193h-1.89358c-0.01848,-0.15747 -0.03861,-0.31474 -0.0604,-0.47176c-0.37871,-2.72284 -1.40549,-6.18842 -4.67355,-6.18842c-0.1804,-0.00039 -0.36062,0.01106 -0.53951,0.03427c-1.01616,0.13385 -1.74911,0.6701 -2.03642,1.68056c-0.09338,0.34554 -0.13843,0.70234 -0.13385,1.06024c0,4.73395 10.9697,4.44011 10.9697,11.45941c0.06059,1.89366 -0.77926,3.70412 -2.26413,4.88086c-1.67811,1.34346 -4.20016,2.0405 -7.26905,2.0405c-2.30412,0 -4.91025,-0.65867 -7.51636,-2.0005c-0.23934,-0.12315 -0.47635,-0.25078 -0.71091,-0.38279c-0.01437,-0.07886 -0.02851,-0.15776 -0.04244,-0.23669c-0.2669,-1.5165 -0.47584,-3.1644 -0.62602,-4.77639c-0.09091,-0.97189 -0.16193,-1.94555 -0.21303,-2.92036l1.82828,-0.22853c0.2256,0.68133 0.48049,1.35258 0.76395,2.01193z" fill-rule="evenodd" stroke-width="0" stroke-linecap="round"/><path d="M163.40328,-31.31903c-0.31527,1.41585 -0.71046,2.83108 -1.25156,4.33637c-1.48246,0.54934 -2.76701,0.91346 -4.2057,1.07394c-0.58352,0.06374 -1.17015,0.09487 -1.75713,0.09325c-0.18908,0.00007 -0.37813,-0.00289 -0.5671,-0.00888c-3.99637,-0.12878 -7.99209,-1.62519 -9.6934,-4.99735c-0.58262,-1.18926 -0.87501,-2.4997 -0.85319,-3.82382c-0.00008,-0.02136 -0.00008,-0.04271 0,-0.06407c0.03108,-4.09913 3.0588,-9.17197 10.68234,-9.17197c2.33438,0 4.66877,0.45673 6.85091,1.24331v5.93746h-1.42093c-0.35841,-1.62393 -1.22555,-4.38711 -3.60625,-5.27393c-0.52729,-0.19231 -1.08488,-0.28815 -1.64612,-0.28292c-2.68962,0 -4.97325,2.43588 -4.97325,7.33301c-0.0005,0.37758 0.01283,0.75506 0.03996,1.13166c0.17888,2.43016 0.95532,4.35222 2.39908,5.34942c0.76335,0.51137 1.66644,0.77355 2.58494,0.75043c1.8434,0 3.86188,-0.91409 5.68117,-4.44358c0.27926,-0.54556 0.5341,-1.10327 0.76375,-1.67149l1.39556,0.35524c-0.12502,0.71439 -0.2661,1.42588 -0.4231,2.13393z" fill-rule="evenodd" stroke-width="0" stroke-linecap="round"/><path d="M168.24776,-30.69102c0.01428,-0.41301 0.02063,-0.82625 0.01904,-1.23951v-5.78521c0.00012,-0.2087 -0.00115,-0.41741 -0.00381,-0.6261c-0.03996,-3.00615 -0.44784,-3.36963 -3.10447,-3.9748c-0.13945,-0.03157 -0.279,-0.06265 -0.41866,-0.09325v-1.06569c2.58812,-0.10149 5.17624,-0.20299 7.76436,-0.20299c0.9615,-0.00307 1.9229,0.02063 2.8831,0.07105c2.22782,0.1256 3.94117,0.42691 5.15975,0.99528c1.46139,0.57921 2.3836,2.03358 2.28427,3.60243c0.00069,0.2539 -0.02268,0.50728 -0.06978,0.75677c-0.38695,2.02229 -2.29061,2.91925 -3.38105,3.3284c0.07377,0.13918 0.14841,0.27789 0.22393,0.41613c1.32007,2.40987 3.48318,5.69196 6.98221,7.72884l-0.17762,1.06569c-6.21656,-0.35524 -8.0181,-0.88808 -10.47935,-5.35386c-0.03679,-0.06682 -0.07358,-0.13363 -0.11038,-0.20046c-1.00416,-1.8269 -1.23887,-2.22401 -2.00896,-2.36166c-0.13851,-0.02333 -0.278,-0.04047 -0.41803,-0.05138v1.75078c-0.00012,0.2087 0.00115,0.41741 0.00381,0.6261c0.03996,3.00615 0.44784,3.36963 3.10447,3.9748c0.13945,0.03157 0.279,0.06265 0.41866,0.09325v1.06569c-2.0299,0 -4.0598,-0.05075 -6.0897,-0.05075c-2.0299,0 -4.0598,0.05075 -6.0897,0.05075v-1.06569c2.8241,-0.62229 3.40706,-0.87476 3.50792,-3.45464zM174.72377,-35.52218c1.45138,-0.4047 2.42383,-1.37589 2.42383,-3.33538c0.00089,-0.22078 -0.01673,-0.44124 -0.05265,-0.65908c-0.35142,-2.07938 -2.38513,-2.44539 -3.70266,-2.53801v6.74942c0.44996,-0.02762 0.89603,-0.1003 1.33148,-0.21694z" fill-rule="evenodd" stroke-width="0" stroke-linecap="round"/><path d="M192.54944,-41.75016c0.28596,-0.13121 0.56559,-0.27579 0.83797,-0.43326c0.95215,-0.55061 1.72541,-1.2135 2.17389,-1.85799c0.08881,-0.1265 0.16771,-0.25969 0.23598,-0.39837h1.4463l5.024,13.67644c0.628,1.7159 1.06569,2.74163 2.453,3.31888c0.331,0.13392 0.67347,0.23753 1.02319,0.30956v0.96421c-1.75078,0 -3.4762,-0.05075 -5.22698,-0.05075c-1.75078,0 -3.4762,0.05075 -5.22699,0.05075v-0.96421c0.04357,-0.00966 0.08712,-0.01939 0.13068,-0.02918c1.71716,-0.38695 2.12759,-0.59565 2.12759,-1.23951c-0.0041,-0.20011 -0.02983,-0.39918 -0.07676,-0.59374c-0.15415,-0.69207 -0.51572,-1.62645 -0.8792,-2.9776c-0.00275,-0.01057 -0.00551,-0.02114 -0.00825,-0.03172h-5.07474c-0.12624,0.39202 -0.25945,0.82211 -0.36095,1.28391c-0.11075,0.48627 -0.16839,0.98312 -0.17191,1.48183c0.00002,0.0385 0.00108,0.077 0.00317,0.11545c0.06343,1.18305 1.11898,1.64295 2.88943,1.88908v1.06569c-1.47168,0 -2.94335,-0.05075 -4.41503,-0.05075c-1.49705,0 -2.96872,0.05075 -4.41503,0.05075v-1.06569c1.85292,-0.35651 2.63823,-1.58015 3.50157,-3.46351c0.05989,-0.13079 0.11909,-0.26189 0.17762,-0.39329l4.26279,-9.54052zM193.945,-39.06055h-0.05075l-1.59855,4.66877h3.40008z" fill-rule="evenodd" stroke-width="0" stroke-linecap="round"/><path d="M207.02135,-27.31441c3.21041,-0.65464 3.4927,-1.00162 3.4927,-4.61611v-9.92113c-0.05077,0.00109 -0.10154,0.00299 -0.15225,0.00571c-3.32015,0.18079 -4.85273,3.79781 -5.25236,5.2974l-1.37018,-0.27911l0.65972,-7.45988l1.34481,-0.10149c0.42374,0.6686 0.65147,0.86778 1.93982,0.90584c0.19914,0.00547 0.39834,0.00801 0.59755,0.00761h9.59127c0.02961,0.00004 0.0592,0.00004 0.08881,0c1.62393,-0.00507 1.93538,-0.14336 2.35277,-0.76565c0.03257,-0.04885 0.0645,-0.09812 0.09578,-0.1478l1.34481,0.10149l0.65972,7.45988l-1.37018,0.27911c-0.32098,-1.20335 -1.37018,-3.76863 -3.48699,-4.82989c-0.59569,-0.29938 -1.25103,-0.4611 -1.91762,-0.47322v9.92113c0.0001,0.06808 0.00031,0.13617 0.00064,0.20426c0.01142,3.39627 0.33747,3.7642 3.41721,4.39663c0.15468,0.03158 0.30946,0.06266 0.46434,0.09325v1.06569c-0.57599,-0.00007 -1.15199,-0.00261 -1.72795,-0.00761c-1.67213,-0.01459 -3.19455,-0.04314 -4.71698,-0.04314c-1.52243,0 -3.04484,0.02854 -4.71698,0.04314c-0.57597,0.00501 -1.15196,0.00755 -1.72795,0.00761v-1.06569c0.12989,-0.02568 0.25972,-0.05169 0.38949,-0.07802z" fill-rule="evenodd" stroke-width="0" stroke-linecap="round"/><path d="M240.41819,-31.31903c-0.31527,1.41585 -0.71046,2.83108 -1.25156,4.33637c-1.48246,0.54934 -2.76701,0.91346 -4.2057,1.07394c-0.58352,0.06374 -1.17015,0.09487 -1.75713,0.09325c-0.18908,0.00007 -0.37813,-0.00289 -0.5671,-0.00888c-3.99637,-0.12878 -7.99209,-1.62519 -9.6934,-4.99735c-0.58262,-1.18926 -0.87502,-2.4997 -0.8532,-3.82382c-0.00008,-0.02136 -0.00008,-0.04271 0,-0.06407c0.03108,-4.09913 3.0588,-9.17197 10.68235,-9.17197c2.33438,0 4.66877,0.45673 6.85091,1.24331v5.93746h-1.42093c-0.35841,-1.62393 -1.22555,-4.38711 -3.60625,-5.27393c-0.52729,-0.19231 -1.08488,-0.28815 -1.64612,-0.28292c-2.68962,0 -4.97325,2.43588 -4.97325,7.33301c-0.0005,0.37758 0.01283,0.75506 0.03996,1.13166c0.17888,2.43016 0.95532,4.35222 2.39908,5.34942c0.76335,0.51137 1.66644,0.77355 2.58495,0.75043c1.8434,0 3.86188,-0.91409 5.68117,-4.44358c0.27926,-0.54556 0.5341,-1.10327 0.76375,-1.67149l1.39556,0.35524c-0.12502,0.71439 -0.2661,1.42588 -0.42311,2.13393z" fill-rule="evenodd" stroke-width="0" stroke-linecap="round"/><path d="M245.18718,-30.69102c0.0138,-0.41302 0.01993,-0.82626 0.0184,-1.23951v-5.83596c0,-3.58594 -0.27785,-3.95577 -2.88754,-4.60089c-0.12845,-0.03155 -0.25701,-0.06263 -0.38568,-0.09325v-1.06569c0.22583,-0.00005 0.45165,0.00059 0.67748,0.0019c1.60616,0.01015 3.38232,0.04885 5.15848,0.04885c1.52243,0 3.04484,-0.02854 4.40678,-0.04314c0.43408,-0.00479 0.86819,-0.00733 1.30231,-0.00761v1.06569c-2.84186,0.71046 -3.14634,0.93882 -3.14634,4.69414v1.24331h7.0539v-1.24331c0.00012,-0.18079 -0.00073,-0.36158 -0.00254,-0.54236c-0.03299,-3.05753 -0.4009,-3.44131 -2.71626,-4.0433c-0.14234,-0.03681 -0.28486,-0.07297 -0.42755,-0.10847v-1.06569c0.43412,0.0005 0.86822,0.00324 1.30231,0.00825c1.36193,0.01396 2.88437,0.0425 4.40678,0.0425c1.52243,0 3.04484,-0.02854 4.46006,-0.04314c0.45861,-0.00484 0.91725,-0.00738 1.37589,-0.00761v1.06569c-2.60144,0.62229 -3.15712,0.87476 -3.25482,3.45464c-0.0138,0.41302 -0.01993,0.82626 -0.0184,1.23951v5.83596c0,3.58594 0.27785,3.95577 2.88754,4.60089c0.12845,0.03155 0.25701,0.06263 0.38568,0.09325v1.06569c-0.22583,0.00005 -0.45165,-0.00059 -0.67748,-0.0019c-1.60616,-0.01015 -3.38232,-0.04885 -5.15848,-0.04885c-1.52243,0 -3.04484,0.02854 -4.40678,0.04314c-0.43408,0.00479 -0.86819,0.00733 -1.30231,0.00761v-1.06569c2.84186,-0.71046 3.14634,-0.93882 3.14634,-4.69414v-2.10602h-7.0539v2.10602c-0.00012,0.18079 0.00073,0.36158 0.00254,0.54236c0.03299,3.05753 0.4009,3.44131 2.71626,4.0433c0.14234,0.03681 0.28486,0.07297 0.42755,0.10847v1.06569c-0.43412,-0.00029 -0.86823,-0.00283 -1.30231,-0.00761c-1.36193,-0.01459 -2.88437,-0.04314 -4.40678,-0.04314c-1.52243,0 -3.04484,0.02854 -4.46006,0.04314c-0.45861,0.00484 -0.91725,0.00738 -1.37589,0.00761v-1.06569c2.60144,-0.62229 3.15712,-0.87476 3.25482,-3.45464z" fill-rule="evenodd" stroke-width="0" stroke-linecap="round"/><path d="M275.91977,-30.69102c0.01428,-0.41301 0.02062,-0.82625 0.01903,-1.23951v-5.78521c0.00012,-0.2087 -0.00115,-0.41741 -0.00381,-0.6261c-0.03996,-3.00615 -0.44784,-3.36963 -3.10447,-3.9748c-0.13945,-0.03157 -0.279,-0.06265 -0.41866,-0.09325v-1.06569c2.79111,-0.10149 5.58222,-0.20299 8.37333,-0.20299c3.53266,0 5.89115,0.45863 7.33618,1.29279c1.18141,0.59793 1.91158,1.82403 1.87448,3.14761c0.00005,0.08041 -0.00248,0.1608 -0.00761,0.24105c-0.07168,1.1082 -0.63942,1.89478 -1.47358,2.4492c-0.64482,0.4043 -1.35379,0.69582 -2.0965,0.86207v0.05075c0.17808,0.04647 0.35472,0.0983 0.52967,0.15542c1.8028,0.58677 4.06297,1.94172 4.06297,4.61485c0,1.32324 -0.42945,2.49931 -1.35623,3.34045c-0.44159,0.39298 -0.95455,0.69748 -1.511,0.89697c-1.16719,0.42818 -2.69216,0.52777 -4.06107,0.55124c-0.39707,0.00574 -0.79419,0.00806 -1.1913,0.00698c-0.59228,-0.00375 -1.18444,-0.01875 -1.77616,-0.04504c-0.29597,-0.01177 -0.592,-0.02212 -0.88808,-0.03108c-0.29608,-0.00895 -0.59211,-0.01932 -0.88808,-0.03108c-0.59184,-0.0222 -1.18432,-0.04504 -1.77616,-0.04504c-1.72541,0 -3.42545,0.02537 -5.15086,0.05075v-1.06569c2.8241,-0.62229 3.40706,-0.87476 3.50792,-3.45464zM281.0662,-29.99705c0.03172,1.18178 0.42247,1.97471 1.26869,2.27349c0.27739,0.09241 0.56847,0.13702 0.8608,0.13195c0.66198,0.02098 1.28801,-0.30079 1.65628,-0.85129c0.1643,-0.24296 0.29115,-0.53919 0.37299,-0.89062c0.07082,-0.31944 0.10508,-0.6459 0.10213,-0.97309c0,-2.63887 -2.15677,-3.98368 -4.26279,-4.00905v4.16129c-0.00006,0.05245 0.00057,0.10488 0.0019,0.15732zM281.16199,-35.93894c1.92967,0 3.35314,-0.74979 3.35314,-3.04548c0.00087,-0.22529 -0.01568,-0.4503 -0.04948,-0.67303c-0.23915,-1.53511 -1.34989,-2.39718 -3.40135,-2.39718v6.11507c0.03256,0.00042 0.06513,0.00063 0.09769,0.00063z" fill-rule="evenodd" stroke-width="0" stroke-linecap="round"/><path d="M295.73666,-30.69102c0.01428,-0.41301 0.02062,-0.82625 0.01903,-1.23951v-5.78521c0.00012,-0.2087 -0.00115,-0.41741 -0.00381,-0.6261c-0.03996,-3.00615 -0.44784,-3.36963 -3.10447,-3.9748c-0.13945,-0.03157 -0.279,-0.06265 -0.41866,-0.09325v-1.06569c2.58812,-0.10149 5.17624,-0.20299 7.76436,-0.20299c0.9615,-0.00307 1.9229,0.02063 2.8831,0.07105c2.22782,0.1256 3.94118,0.42691 5.15975,0.99528c1.46139,0.57921 2.3836,2.03358 2.28427,3.60243c0.00069,0.2539 -0.02268,0.50728 -0.06978,0.75677c-0.38695,2.02229 -2.29061,2.91925 -3.38105,3.3284c0.07377,0.13918 0.14841,0.27789 0.22392,0.41613c1.32007,2.40987 3.48318,5.69196 6.98221,7.72884l-0.17762,1.06569c-6.21656,-0.35524 -8.0181,-0.88808 -10.47935,-5.35386c-0.03679,-0.06682 -0.07358,-0.13363 -0.11038,-0.20046c-1.00416,-1.8269 -1.23887,-2.22401 -2.00896,-2.36166c-0.13851,-0.02333 -0.278,-0.04047 -0.41803,-0.05138v1.75078c-0.00012,0.2087 0.00115,0.41741 0.00381,0.6261c0.03996,3.00615 0.44784,3.36963 3.10447,3.9748c0.13945,0.03157 0.279,0.06265 0.41866,0.09325v1.06569c-2.0299,0 -4.0598,-0.05075 -6.0897,-0.05075c-2.0299,0 -4.0598,0.05075 -6.0897,0.05075v-1.06569c2.8241,-0.62229 3.40706,-0.87476 3.50792,-3.45464zM302.21266,-35.52218c1.45138,-0.4047 2.42383,-1.37589 2.42383,-3.33538c0.00089,-0.22078 -0.01673,-0.44124 -0.05265,-0.65908c-0.35142,-2.07938 -2.38513,-2.44539 -3.70266,-2.53801v6.74942c0.44996,-0.02762 0.89603,-0.1003 1.33149,-0.21694z" fill-rule="evenodd" stroke-width="0" stroke-linecap="round"/><path d="M358.72736,-25.81799c-1.41703,-0.05009 -2.53703,-1.21846 -2.52722,-2.63633c0.0001,-0.03723 0.00094,-0.07445 0.00254,-0.11165c0.05009,-1.41703 1.21846,-2.53703 2.63633,-2.52722c0.03723,0.0001 0.07445,0.00094 0.11165,0.00254c1.41703,0.05009 2.53703,1.21846 2.52722,2.63633c-0.0001,0.03723 -0.00094,0.07445 -0.00254,0.11165c-0.05009,1.41703 -1.21846,2.53703 -2.63633,2.52722c-0.03723,-0.0001 -0.07445,-0.00094 -0.11165,-0.00254z" fill-rule="evenodd" stroke-width="0" stroke-linecap="round"/><g fill-rule="evenodd" stroke-width="0" stroke-linecap="round"><path d="M198.29301,-64.03552c1.85241,4.28275 4.35987,6.34743 7.01825,6.34743c1.75788,0 2.91874,-1.12769 2.91874,-2.75291c0,-4.54395 -11.14428,-4.27861 -11.14428,-11.7413c0.01897,-1.57404 0.66902,-3.07457 1.80431,-4.16501c0.85739,-0.86069 1.99337,-1.56053 3.34992,-2.0224c1.25794,-0.41601 2.57561,-0.62273 3.9005,-0.61194c0.42804,-0.00019 0.85593,0.01585 1.28275,0.0481c2.10774,0.17133 4.16185,0.7521 6.04727,1.70979l-0.53068,7.13101h-1.92372c-0.01877,-0.15997 -0.03922,-0.31974 -0.06136,-0.47927c-0.38474,-2.76618 -1.42786,-6.2869 -4.74793,-6.2869c-0.18327,-0.00039 -0.36636,0.01123 -0.5481,0.03483c-1.03234,0.13599 -1.77694,0.68076 -2.06883,1.7073c-0.09487,0.35104 -0.14063,0.71352 -0.13599,1.07711c0,4.80928 11.14428,4.51078 11.14428,11.6418c0.06155,1.92379 -0.79166,3.76307 -2.30017,4.95855c-1.70481,1.36484 -4.267,2.07297 -7.38474,2.07297c-2.34079,0 -4.98839,-0.66915 -7.63598,-2.03233c-0.24315,-0.12511 -0.48393,-0.25477 -0.72223,-0.38888c-0.01459,-0.08012 -0.02896,-0.16027 -0.04311,-0.24047c-0.27115,-1.54063 -0.48341,-3.21477 -0.63599,-4.85241c-0.09236,-0.98736 -0.16451,-1.97652 -0.21642,-2.96684l1.85739,-0.23217c0.2292,0.69217 0.48814,1.3741 0.77611,2.04395z"/><path d="M215.24395,-71.91828c-0.12845,-0.03155 -0.25701,-0.06263 -0.38568,-0.09325v-1.06569c0.22583,-0.00005 0.45165,0.00059 0.67748,0.0019c1.60616,0.01015 3.38232,0.04884 5.15848,0.04884c1.52243,0 3.04484,-0.02854 4.46006,-0.04313c0.45861,-0.00484 0.91725,-0.00738 1.37589,-0.00761v1.06569c-2.60144,0.62229 -3.15712,0.87476 -3.25482,3.45464c-0.0138,0.41302 -0.01993,0.82626 -0.0184,1.23951v6.03895c0,1.72351 0.81259,2.99918 2.6801,3.42418c0.49491,0.10711 1.00023,0.1586 1.50657,0.15351c2.3458,0 3.57896,-0.98259 3.98368,-3.02582c0.10789,-0.58362 0.15887,-1.17634 0.15224,-1.76982c0,-1.25346 -0.01205,-2.31028 -0.01966,-3.36709c-0.00357,-0.46771 -0.00547,-0.93544 -0.00571,-1.40317c0.00224,-0.43489 -0.01152,-0.8697 -0.04123,-1.30357c-0.14526,-1.9487 -0.70856,-2.7023 -2.20942,-3.15015c-0.42798,-0.12178 -0.86258,-0.219 -1.30167,-0.29115v-1.06569c1.49705,0 2.9941,0.05075 4.46577,0.05075c1.49705,0 2.9941,-0.05075 4.46577,-0.05075v1.06569c-0.26825,0.03571 -0.53457,0.08461 -0.798,0.14653c-1.06316,0.26199 -1.60806,0.79356 -1.81549,2.49233c-0.0288,0.23079 -0.05671,0.46169 -0.08373,0.6927c-0.20173,1.72224 -0.42564,4.00588 -0.51572,5.6539c-0.01523,0.26943 -0.02687,0.53905 -0.03489,0.80879c-0.01344,0.58426 -0.07626,1.16634 -0.18777,1.74001c-0.51128,2.55386 -2.04956,4.18919 -4.74552,4.81847c-0.92947,0.20504 -1.87932,0.30315 -2.83108,0.29243c-1.03194,0.01174 -2.06177,-0.09597 -3.06895,-0.32099c-2.81775,-0.6686 -4.72079,-2.453 -4.72079,-5.99708v-5.63297c0,-3.58594 -0.27785,-3.95577 -2.88754,-4.60089z"/><path d="M239.15291,-60.24192c0.01428,-0.41301 0.02062,-0.82625 0.01903,-1.23951v-5.78521c0.00012,-0.2087 -0.00115,-0.41741 -0.00381,-0.6261c-0.03996,-3.00615 -0.44784,-3.36963 -3.10447,-3.9748c-0.13945,-0.03157 -0.279,-0.06265 -0.41866,-0.09325v-1.06569c2.48662,-0.10149 4.94788,-0.20299 7.43451,-0.20299c4.33891,0 7.96418,0.49986 9.50563,2.59066c0.54919,0.77635 0.82883,1.7113 0.7961,2.6617c0.00004,0.03045 -0.00018,0.0609 -0.00064,0.09135c-0.0628,3.83905 -4.08898,5.26568 -7.83985,5.69386l-0.30449,-1.04032c0.54998,-0.29687 0.9864,-0.63244 1.32895,-0.99845c0.78284,-0.87199 1.18977,-2.01779 1.1323,-3.18821c-0.00009,-0.04483 -0.00072,-0.08966 -0.0019,-0.13448c-0.04123,-1.70574 -0.87666,-3.85427 -3.39818,-4.05219v10.12412c-0.00195,0.41814 0.00523,0.83627 0.02157,1.25409c0.11482,2.56592 0.798,2.81839 4.39346,3.44005v1.06569c-1.74825,0 -3.34806,-0.02981 -5.20923,-0.04377c-0.59796,-0.00459 -1.19594,-0.00691 -1.79392,-0.00698c-2.0299,0 -4.0598,0.05075 -6.06432,0.05075v-1.06569c2.8241,-0.62229 3.40706,-0.87476 3.50792,-3.45464z"/><path d="M256.28581,-60.24192c0.01428,-0.41301 0.02063,-0.82625 0.01904,-1.23951v-5.83595c0.00012,-0.2087 -0.00115,-0.41741 -0.00381,-0.6261c-0.03996,-3.00615 -0.44784,-3.36963 -3.10447,-3.97479c-0.13945,-0.03157 -0.279,-0.06265 -0.41866,-0.09325v-1.06569c2.0299,0 4.0598,0.05075 6.0897,0.05075c3.60307,0 7.20614,-0.02537 10.80921,-0.05075l-0.30449,5.32849h-1.19257c-0.81196,-2.94081 -1.49134,-3.56565 -4.92757,-3.68109c-0.6071,-0.01778 -1.21447,-0.02561 -1.82183,-0.02347v5.58222h1.09107c0.02749,0.00003 0.05498,0.00003 0.08247,0c2.17517,-0.00444 2.97633,-0.19157 3.47366,-1.46216c0.11272,-0.30101 0.20471,-0.60939 0.27531,-0.92297h1.01494c-0.02537,1.24331 -0.05075,2.48663 -0.05075,3.72994c0,1.24331 0.02537,2.48662 0.05075,3.72993h-1.01494c-0.02629,-0.12811 -0.05441,-0.25584 -0.08437,-0.38314c-0.41613,-1.75967 -0.97625,-2.22401 -2.62935,-2.3293c-0.37219,-0.02094 -0.74494,-0.03025 -1.11771,-0.02791h-1.09106v4.69414c0,0.93882 0.53284,1.49705 2.33438,1.49705c0.20125,0.00033 0.40245,-0.00623 0.60326,-0.01966c2.70294,-0.18586 3.98812,-1.70004 5.02971,-5.51181h1.31944v0.68509c0,2.18214 -0.30449,4.38965 -0.93882,6.4703c-3.65381,-0.02537 -7.28226,-0.05075 -10.9107,-0.05075c-2.0299,0 -4.0598,0.05075 -6.0897,0.05075v-1.06569c2.8241,-0.62229 3.40706,-0.87476 3.50792,-3.45464z"/><path d="M273.87546,-60.24192c0.01428,-0.41301 0.02062,-0.82625 0.01903,-1.23951v-5.78521c0.00012,-0.2087 -0.00115,-0.41741 -0.00381,-0.6261c-0.03996,-3.00615 -0.44784,-3.36963 -3.10447,-3.9748c-0.13945,-0.03157 -0.279,-0.06265 -0.41866,-0.09325v-1.06569c2.58812,-0.10149 5.17624,-0.20299 7.76436,-0.20299c0.9615,-0.00307 1.9229,0.02063 2.8831,0.07105c2.22782,0.1256 3.94118,0.42691 5.15975,0.99528c1.46139,0.57921 2.3836,2.03358 2.28426,3.60244c0.00069,0.2539 -0.02268,0.50728 -0.06978,0.75677c-0.38695,2.02229 -2.29061,2.91925 -3.38105,3.3284c0.07377,0.13918 0.14841,0.2779 0.22392,0.41613c1.32007,2.40987 3.48318,5.69196 6.98221,7.72884l-0.17762,1.06569c-6.21656,-0.35524 -8.0181,-0.88808 -10.47935,-5.35386c-0.03679,-0.06682 -0.07358,-0.13363 -0.11038,-0.20046c-1.00416,-1.8269 -1.23887,-2.22401 -2.00896,-2.36165c-0.13851,-0.02333 -0.278,-0.04047 -0.41803,-0.05138v1.75078c-0.00012,0.2087 0.00115,0.41741 0.00381,0.6261c0.03996,3.00615 0.44784,3.36963 3.10447,3.9748c0.13945,0.03157 0.279,0.06265 0.41866,0.09325v1.06569c-2.0299,0 -4.0598,-0.05075 -6.0897,-0.05075c-2.0299,0 -4.0598,0.05075 -6.0897,0.05075v-1.06569c2.8241,-0.62229 3.40706,-0.87476 3.50792,-3.45464zM280.35146,-65.07308c1.45138,-0.4047 2.42383,-1.37589 2.42383,-3.33538c0.00089,-0.22078 -0.01673,-0.44125 -0.05265,-0.65909c-0.35142,-2.07938 -2.38513,-2.44539 -3.70266,-2.53801v6.74942c0.44996,-0.02762 0.89603,-0.1003 1.33149,-0.21695z"/></g><path d="M338.88553,-34.24086c1.82339,4.21566 4.29157,6.248 6.90831,6.248c1.73034,0 2.87302,-1.11002 2.87302,-2.70978c0,-4.47276 -10.9697,-4.21158 -10.9697,-11.55737c0.01868,-1.54938 0.65853,-3.0264 1.77605,-4.09976c0.84395,-0.84721 1.96213,-1.53609 3.29743,-1.99071c1.23823,-0.40949 2.53526,-0.61298 3.8394,-0.60236c0.42134,-0.00018 0.84252,0.0156 1.26265,0.04734c2.07472,0.16865 4.09665,0.74032 5.95253,1.683l-0.52236,7.0193h-1.89358c-0.01848,-0.15747 -0.03861,-0.31473 -0.0604,-0.47175c-0.37871,-2.72284 -1.40549,-6.18842 -4.67355,-6.18842c-0.1804,-0.00039 -0.36062,0.01106 -0.53951,0.03427c-1.01616,0.13385 -1.7491,0.6701 -2.03641,1.68056c-0.09338,0.34554 -0.13843,0.70234 -0.13385,1.06024c0,4.73395 10.9697,4.44012 10.9697,11.45941c0.06059,1.89366 -0.77926,3.70412 -2.26413,4.88086c-1.67811,1.34346 -4.20016,2.0405 -7.26906,2.0405c-2.30412,0 -4.91025,-0.65868 -7.51636,-2.0005c-0.23934,-0.12315 -0.47635,-0.25077 -0.71091,-0.38279c-0.01437,-0.07886 -0.02851,-0.15776 -0.04244,-0.2367c-0.2669,-1.5165 -0.47584,-3.1644 -0.62602,-4.77639c-0.09091,-0.97189 -0.16193,-1.94555 -0.21303,-2.92036l1.82828,-0.22853c0.2256,0.68133 0.48049,1.35258 0.76396,2.01193z" fill-rule="evenodd" stroke-width="0" stroke-linecap="round"/><path d="M242.57435,-20.20035c42.55793,0 80.64875,2.21413 106.14516,5.7021c-27.19499,-2.93444 -64.71071,-4.556 -106.14516,-4.556c-41.43447,0 -78.95018,1.63044 -106.14072,4.556c25.49196,-3.48797 63.58278,-5.7021 106.14072,-5.7021z" fill-rule="nonzero" stroke-width="1.5" stroke-linecap="butt"/><text transform="translate(168.627,-4.52359) scale(0.68222,0.68222)" font-size="16.9333" xml:space="preserve" fill="#ffffff" fill-rule="nonzero" stroke="#ffffff" stroke-width="1" stroke-linecap="butt" stroke-linejoin="miter" stroke-miterlimit="10" stroke-dasharray="" stroke-dashoffset="0" font-family="SerpentineDBol" font-weight="400" text-anchor="start" style="mix-blend-mode: normal"><tspan x="0" dy="0">S  C  R  U  L  T  I  M  A  T  E</tspan></text><path d="M323.81424,-43.7046c2.78499,0 5.07198,0.7505 6.86095,2.25151c1.16042,0.92435 1.97754,1.89958 2.45137,2.9257c0.6479,1.29749 0.97185,2.51017 0.97185,3.63804v0.47067c-0.03867,0.9922 -0.11604,1.52645 -0.23209,1.60276h-10.71931c-0.04836,0 -0.07252,-0.0212 -0.07252,-0.06361v-10.72331c0,-0.06784 0.24659,-0.10176 0.73976,-0.10176zM318.07016,-41.69476l0.02901,0.0636v0.50882c0,0.18657 0.0145,0.40281 0.04351,0.64874l-0.04351,0.07632c0.05802,0.10176 0.08703,0.24594 0.08703,0.43249v0.85227c0,0.02544 -0.0145,0.03815 -0.04351,0.03815l0.04351,0.0636c0,0.05088 -0.0145,0.09753 -0.04351,0.13993c0.02901,0.0424 0.04351,0.08905 0.04351,0.13993l-0.04351,0.0636l0.04351,0.0636c0,0.01695 -0.0145,0.0636 -0.04351,0.13993l0.04351,0.0636l-0.04351,0.07633l0.04351,0.1272c-0.02901,0.05088 -0.04351,0.0848 -0.04351,0.10176l0.04351,0.07633l-0.04351,0.0636l0.04351,0.13993c0,0.02544 -0.0145,0.03815 -0.04351,0.03815l0.04351,0.16536v4.73199c0,0.0424 -0.02902,0.06361 -0.08703,0.06361h-3.36521c-0.12571,-0.1272 -0.21758,-0.73779 -0.2756,-1.83174c0.10636,-1.47556 0.22241,-2.21335 0.34813,-2.21335c0.06769,-0.72083 0.59955,-1.79781 1.59556,-3.23099c0.34813,-0.44098 0.90415,-0.97524 1.66809,-1.60277zM315.47373,-31.04779h2.71247c0.04836,0.00848 0.07252,0.03392 0.07252,0.07632v3.35818c0,0.05088 -0.02418,0.07633 -0.07252,0.07633c-0.98637,-0.76322 -1.68744,-1.47981 -2.10326,-2.14975c-0.46416,-0.64451 -0.69625,-1.06427 -0.69625,-1.25933v-0.02544c0.00967,-0.05088 0.03868,-0.07633 0.08702,-0.07633zM323.14701,-31.04779h10.09562c0.04836,0 0.07252,0.03392 0.07252,0.10176c-0.37714,0.93283 -1.17975,1.9759 -2.40786,3.12923c-1.71162,1.27204 -3.38938,2.00982 -5.0333,2.21335c-0.29978,0.06784 -0.84613,0.11449 -1.63908,0.13994c-0.77361,-0.01695 -1.16041,-0.0636 -1.16041,-0.13994v-5.36802c0.00967,-0.05088 0.03383,-0.07632 0.07252,-0.07632z" fill-rule="nonzero" stroke-width="0.26459" stroke-linecap="butt"/></g><text transform="translate(71.5,169.35043) scale(0.19431,0.19431)" font-size="40" xml:space="preserve" fill="#ffffff" fill-rule="nonzero" stroke="none" stroke-width="1" stroke-linecap="butt" stroke-linejoin="miter" stroke-miterlimit="10" stroke-dasharray="" stroke-dashoffset="0" font-family="Sans Serif" font-weight="normal" text-anchor="start" style="mix-blend-mode: normal"><tspan x="0" dy="0">- The UI system has been modified in multiple ways, so I introduce SUI2 or Scrultimate</tspan><tspan x="0" dy="48px">User Interface 2.0! It is built upon the previous UI system which will now be dubbed SUI.</tspan><tspan x="0" dy="48px">I have added a bunch of comments detailing each part of the system in the SUI2 sprite.</tspan><tspan x="0" dy="48px">Let's hope Scratch doesn't make them disappear like they did when I was writing them!</tspan><tspan x="0" dy="48px">- I have attempted to make things such as the presents animation and changelog look</tspan><tspan x="0" dy="48px">better when ran in Turbo Mode. Unfortunately I could not fix the "PRESS SPACE" text so it</tspan><tspan x="0" dy="48px">currently just stays there. If anyone can fix this that'd be pretty nice, but it's not important.</tspan><tspan x="0" dy="48px">                                               - Also I have modified some buttons like settings and the smash</tspan><tspan x="0" dy="48px">                                                 in the smash menu but I don't have much space left here!!!</tspan><tspan x="0" dy="48px">                                                -VARIOUS OTHER GRAPHICS MODIFIED!!!</tspan></text><text transform="translate(71.5,261.35043) scale(0.19431,0.19431)" font-size="40" xml:space="preserve" fill="#ffffff" fill-rule="nonzero" stroke="none" stroke-width="1" stroke-linecap="butt" stroke-linejoin="miter" stroke-miterlimit="10" stroke-dasharray="" stroke-dashoffset="0" font-family="Sans Serif" font-weight="normal" text-anchor="start" style="mix-blend-mode: normal"><tspan x="0" dy="0">- Honestly I think I broke more stuff instead of fixing things. I'm gonna give myself some</tspan><tspan x="0" dy="48px">credit though, I managed to fix some big problems all by myself! Like menu navigation</tspan><tspan x="0" dy="48px">was broken, getting into the game was broken, various things were just... Broken... But</tspan><tspan x="0" dy="48px">not anymore! There are still some issues though...</tspan><tspan x="0" dy="48px">- There is currently a major issue where inputs aren't working in game. However, by going</tspan><tspan x="0" dy="48px">into the "IS" sprite and clicking on the two "Define" scripts, it should enable the inputs</tspan><tspan x="0" dy="48px">once more. I have no idea why this issue occured. It will be fixed.</tspan></text><text transform="translate(72,350.35043) scale(0.19431,0.19431)" font-size="40" xml:space="preserve" fill="#ffffff" fill-rule="nonzero" stroke="none" stroke-width="1" stroke-linecap="butt" stroke-linejoin="miter" stroke-miterlimit="10" stroke-dasharray="" stroke-dashoffset="0" font-family="Sans Serif" font-weight="normal" text-anchor="start" style="mix-blend-mode: normal"><tspan x="0" dy="0">- For devs who use Unspecified Addon, some sprites have been grouped into folders! I</tspan><tspan x="0" dy="48px">hope this helps with navigation.</tspan></text></g></g></svg>