<svg version="1.1" xmlns="http://www.w3.org/2000/svg" xmlns:xlink="http://www.w3.org/1999/xlink" width="164.58767" height="28.86102" viewBox="0,0,164.58767,28.86102"><g transform="translate(-157.57545,-165.5256)"><g data-paper-data="{&quot;isPaintingLayer&quot;:true}" fill="#ffffff" fill-rule="nonzero" stroke-linecap="butt" stroke-linejoin="miter" stroke-miterlimit="10" stroke-dasharray="" stroke-dashoffset="0" style="mix-blend-mode: normal"><path d="M176.06253,167.58527c2.95866,0.058 5.12931,0.087 6.51195,0.087c0.1257,0 0.50762,5.93665 1.14576,17.80996c-0.49311,0.12567 -2.21416,0.44474 -5.16315,0.95722c-0.14504,0 -0.62364,-3.63547 -1.43582,-10.90642c-0.06768,-0.17404 -0.4206,-2.82329 -1.05873,-7.94776z" data-paper-data="{&quot;origPos&quot;:null}" stroke="#004377" stroke-width="3.5"/><path d="M208.12916,171.95074c0.1257,0.16437 0.77835,2.96833 1.95793,8.41187h0.10153c0,-0.12567 0.71549,-1.23275 2.14648,-3.32124c0.59947,0.40609 1.74039,1.28595 3.42276,2.63958h0.20305v-0.1015c0.26106,-3.77084 0.45443,-5.85931 0.58013,-6.2654c3.98355,0.20304 5.97533,0.36741 5.97533,0.49311c-1.82741,7.3483 -2.80396,11.16748 -2.92965,11.45756c-0.60914,0.06767 -1.88542,0.26104 -3.82885,0.58011c-1.59535,-2.50422 -2.50906,-3.83851 -2.74111,-4.00288c-1.04423,2.78462 -1.69688,4.31713 -1.95793,4.59752h-3.91587c-0.24172,-0.07734 -1.38264,-2.59123 -3.42276,-7.54168c-1.30529,-2.76527 -1.95793,-4.26394 -1.95793,-4.49599c0,-0.21272 2.12231,-1.02974 6.36692,-2.45105z" data-paper-data="{&quot;origPos&quot;:null}" stroke="#004377" stroke-width="3.5"/><path d="M232.32053,171.96524c4.37997,2.25283 6.80685,3.56779 7.28062,3.94488c-0.62847,2.93933 -1.00072,4.4525 -1.11675,4.53952h-9.16604v0.15951l2.56707,3.17621l4.0319,-2.05947c0.39642,0.68648 0.96688,1.88541 1.71138,3.5968c-0.34808,0.116 -2.88614,0.48825 -7.61419,1.11675c-3.91587,-2.58157 -5.88831,-3.92554 -5.91731,-4.03191c0.62847,-5.0181 1.00072,-7.52715 1.11675,-7.52715c4.08991,-1.74039 6.45877,-2.7121 7.10658,-2.91516zM231.37782,175.47501c-0.07735,0.19339 -0.5898,0.96206 -1.53734,2.30602c0,0.40609 0.57046,0.60914 1.71138,0.60914c0,0.058 0.82668,0.1982 2.48005,0.42058c0.45443,-0.62846 0.68165,-0.99587 0.68165,-1.10222c-0.14504,-0.86053 -0.45927,-1.2908 -0.94271,-1.2908z" data-paper-data="{&quot;origPos&quot;:null}" stroke="#004377" stroke-width="3.5"/><path d="M251.33426,171.95074c1.91443,1.07324 3.08919,1.76939 3.52428,2.08847c-1.56635,3.25838 -2.40753,4.91658 -2.52356,4.9746h-0.10153l-2.07396,-1.81291l-2.45104,2.98768l0.27556,5.43869c-0.12569,0.116 -1.72588,0.38673 -4.80057,0.81219c-0.11602,-0.83152 -0.87019,-4.90692 -2.2625,-12.22622c0,-0.116 2.02078,-0.41574 6.06235,-0.89919c0.06768,0.07734 0.25139,0.98137 0.55112,2.7121c2.4172,-2.71694 3.68382,-4.07541 3.79984,-4.07541z" data-paper-data="{&quot;origPos&quot;:null}" stroke="#004377" stroke-width="3.5"/><path d="M273.24863,167.57077c4.32196,1.68237 6.48294,2.57673 6.48294,2.68308c-1.38264,2.82329 -2.07396,4.29295 -2.07396,4.40899h-0.08703c-0.6188,-0.17404 -1.97727,-0.77834 -4.0754,-1.81291l-3.45177,2.42205c0,2.99733 0.1692,4.49599 0.50761,4.49599c0.22238,0.116 1.66787,0.69613 4.33646,1.74039c1.0249,-1.01522 2.06429,-1.99661 3.11819,-2.94416c0.19338,0.17405 1.05874,1.5567 2.59608,4.14793v0.26106c-0.09669,0 -2.23349,1.15542 -6.41042,3.46627c-5.33719,-1.78874 -8.0783,-2.74111 -8.22333,-2.85713l-2.59608,-8.5714c2.43654,-3.46144 3.67898,-5.19215 3.72733,-5.19215c0.10635,0 2.15614,-0.74933 6.14937,-2.248z" data-paper-data="{&quot;origPos&quot;:null}" stroke="#004377" stroke-width="3.5"/><path d="M290.11587,171.95074l0.10153,0.18851l-1.95794,10.38429h0.10153l4.98911,-1.46481v-5.87382c0.01933,-0.13534 0.08218,-0.20301 0.18853,-0.20301c3.7515,0.26107 5.83996,0.39161 6.26539,0.39161c0,0.06767 0.03384,0.1015 0.10153,0.1015c0,1.65337 -0.52212,5.08097 -1.56635,10.28281c0,0.29972 -1.49867,0.52694 -4.496,0.68164c-0.1547,-0.1837 -0.28523,-0.57529 -0.39159,-1.17475c-3.83852,0.78317 -6.02851,1.17475 -6.56996,1.17475c-3.06501,-2.28185 -4.59752,-3.4566 -4.59752,-3.52427c0.52212,-6.8552 0.85085,-10.41333 0.98622,-10.67439h0.08703c2.44621,-0.06767 4.69904,-0.16435 6.7585,-0.29006z" data-paper-data="{&quot;origPos&quot;:null}" stroke="#004377" stroke-width="3.5"/><path d="M308.651,171.96524c0.29972,1.23761 0.5076,2.00145 0.62364,2.29152c4.2736,-0.97655 6.53127,-1.46483 6.77299,-1.46483c2.91032,4.1866 4.36549,6.37175 4.36549,6.55546l-3.33574,7.07757l-7.1791,-1.14575v0.21751c0.56078,4.30264 0.84117,6.58932 0.84117,6.86004c-0.06767,0 -0.1015,0.03383 -0.1015,0.1015c-0.69616,-0.06767 -1.21828,-0.1015 -1.56636,-0.1015h-1.24728c-0.72516,0 -1.83708,-0.03383 -3.33574,-0.1015c-0.13534,-0.40609 -1.17474,-6.57963 -3.11819,-18.52062c0.32874,-0.13534 2.75561,-0.72513 7.28063,-1.76939zM309.17311,177.89706c0.19337,2.22383 0.36741,3.33574 0.52211,3.33574c1.98211,0.68648 3.19554,1.02972 3.6403,1.02972l1.14577,-4.9891h-0.1015c-1.13126,0.06767 -2.86681,0.27555 -5.20666,0.62364z" data-paper-data="{&quot;origPos&quot;:null}" stroke="#004377" stroke-width="3.5"/><path d="M176.06253,167.58527c2.95866,0.058 5.12931,0.087 6.51195,0.087c0.1257,0 0.50762,5.93665 1.14576,17.80996c-0.49311,0.12567 -2.21416,0.44474 -5.16315,0.95722c-0.14504,0 -0.62364,-3.63547 -1.43582,-10.90642c-0.06768,-0.17404 -0.4206,-2.82329 -1.05873,-7.94776z" data-paper-data="{&quot;origPos&quot;:null}" stroke="none" stroke-width="0.26458"/><path d="M208.12916,171.95074c0.1257,0.16437 0.77835,2.96833 1.95793,8.41187h0.10153c0,-0.12567 0.71549,-1.23275 2.14648,-3.32124c0.59947,0.40609 1.74039,1.28595 3.42276,2.63958h0.20305v-0.1015c0.26106,-3.77084 0.45443,-5.85931 0.58013,-6.2654c3.98355,0.20304 5.97533,0.36741 5.97533,0.49311c-1.82741,7.3483 -2.80396,11.16748 -2.92965,11.45756c-0.60914,0.06767 -1.88542,0.26104 -3.82885,0.58011c-1.59535,-2.50422 -2.50906,-3.83851 -2.74111,-4.00288c-1.04423,2.78462 -1.69688,4.31713 -1.95793,4.59752h-3.91587c-0.24172,-0.07734 -1.38264,-2.59123 -3.42276,-7.54168c-1.30529,-2.76527 -1.95793,-4.26394 -1.95793,-4.49599c0,-0.21272 2.12231,-1.02974 6.36692,-2.45105z" data-paper-data="{&quot;origPos&quot;:null}" stroke="none" stroke-width="0.26458"/><path d="M232.32053,171.96524c4.37997,2.25283 6.80685,3.56779 7.28062,3.94488c-0.62847,2.93933 -1.00072,4.4525 -1.11675,4.53952h-9.16604v0.15951l2.56707,3.17621l4.0319,-2.05947c0.39642,0.68648 0.96688,1.88541 1.71138,3.5968c-0.34808,0.116 -2.88614,0.48825 -7.61419,1.11675c-3.91587,-2.58157 -5.88831,-3.92554 -5.91731,-4.03191c0.62847,-5.0181 1.00072,-7.52715 1.11675,-7.52715c4.08991,-1.74039 6.45877,-2.7121 7.10658,-2.91516zM231.37782,175.47501c-0.07735,0.19339 -0.5898,0.96206 -1.53734,2.30602c0,0.40609 0.57046,0.60914 1.71138,0.60914c0,0.058 0.82668,0.1982 2.48005,0.42058c0.45443,-0.62846 0.68165,-0.99587 0.68165,-1.10222c-0.14504,-0.86053 -0.45927,-1.2908 -0.94271,-1.2908z" data-paper-data="{&quot;origPos&quot;:null}" stroke="none" stroke-width="0.26458"/><path d="M251.33426,171.95074c1.91443,1.07324 3.08919,1.76939 3.52428,2.08847c-1.56635,3.25838 -2.40753,4.91658 -2.52356,4.9746h-0.10153l-2.07396,-1.81291l-2.45104,2.98768l0.27556,5.43869c-0.12569,0.116 -1.72588,0.38673 -4.80057,0.81219c-0.11602,-0.83152 -0.87019,-4.90692 -2.2625,-12.22622c0,-0.116 2.02078,-0.41574 6.06235,-0.89919c0.06768,0.07734 0.25139,0.98137 0.55112,2.7121c2.4172,-2.71694 3.68382,-4.07541 3.79984,-4.07541z" data-paper-data="{&quot;origPos&quot;:null}" stroke="none" stroke-width="0.26458"/><path d="M273.24863,167.57077c4.32196,1.68237 6.48294,2.57673 6.48294,2.68308c-1.38264,2.82329 -2.07396,4.29295 -2.07396,4.40899h-0.08703c-0.6188,-0.17404 -1.97727,-0.77834 -4.0754,-1.81291l-3.45177,2.42205c0,2.99733 0.1692,4.49599 0.50761,4.49599c0.22238,0.116 1.66787,0.69613 4.33646,1.74039c1.0249,-1.01522 2.06429,-1.99661 3.11819,-2.94416c0.19338,0.17405 1.05874,1.5567 2.59608,4.14793v0.26106c-0.09669,0 -2.23349,1.15542 -6.41042,3.46627c-5.33719,-1.78874 -8.0783,-2.74111 -8.22333,-2.85713l-2.59608,-8.5714c2.43654,-3.46144 3.67898,-5.19215 3.72733,-5.19215c0.10635,0 2.15614,-0.74933 6.14937,-2.248z" data-paper-data="{&quot;origPos&quot;:null}" stroke="none" stroke-width="0.26458"/><path d="M290.11587,171.95074l0.10153,0.18851l-1.95794,10.38429h0.10153l4.98911,-1.46481v-5.87382c0.01933,-0.13534 0.08218,-0.20301 0.18853,-0.20301c3.7515,0.26107 5.83996,0.39161 6.26539,0.39161c0,0.06767 0.03384,0.1015 0.10153,0.1015c0,1.65337 -0.52212,5.08097 -1.56635,10.28281c0,0.29972 -1.49867,0.52694 -4.496,0.68164c-0.1547,-0.1837 -0.28523,-0.57529 -0.39159,-1.17475c-3.83852,0.78317 -6.02851,1.17475 -6.56996,1.17475c-3.06501,-2.28185 -4.59752,-3.4566 -4.59752,-3.52427c0.52212,-6.8552 0.85085,-10.41333 0.98622,-10.67439h0.08703c2.44621,-0.06767 4.69904,-0.16435 6.7585,-0.29006z" data-paper-data="{&quot;origPos&quot;:null}" stroke="none" stroke-width="0.26458"/><path d="M308.651,171.96524c0.29972,1.23761 0.5076,2.00145 0.62364,2.29152c4.2736,-0.97655 6.53127,-1.46483 6.77299,-1.46483c2.91032,4.1866 4.36549,6.37175 4.36549,6.55546l-3.33574,7.07757l-7.1791,-1.14575v0.21751c0.56078,4.30264 0.84117,6.58932 0.84117,6.86004c-0.06767,0 -0.1015,0.03383 -0.1015,0.1015c-0.69616,-0.06767 -1.21828,-0.1015 -1.56636,-0.1015h-1.24728c-0.72516,0 -1.83708,-0.03383 -3.33574,-0.1015c-0.13534,-0.40609 -1.17474,-6.57963 -3.11819,-18.52062c0.32874,-0.13534 2.75561,-0.72513 7.28063,-1.76939zM309.17311,177.89706c0.19337,2.22383 0.36741,3.33574 0.52211,3.33574c1.98211,0.68648 3.19554,1.02972 3.6403,1.02972l1.14577,-4.9891h-0.1015c-1.13126,0.06767 -2.86681,0.27555 -5.20666,0.62364z" data-paper-data="{&quot;origPos&quot;:null}" stroke="none" stroke-width="0.26458"/><g><path d="M174.39466,167.54175c0.05802,0.12567 0.08703,0.21753 0.08703,0.27558c-0.05802,2.88131 -0.08703,4.54918 -0.08703,5.0036l-0.18855,0.087c-4.43799,0.116 -6.98089,0.17401 -7.6287,0.17401l-0.08703,0.18851c0.05802,1.07324 0.08703,1.9531 0.08703,2.63958v0.44961h0.08703l5.90281,-0.72516l0.10153,0.17401v4.45249c0,0.12567 -0.06285,0.18851 -0.18855,0.18851l-5.54023,-0.63816v0.53663c0,1.21827 0.03384,3.03601 0.10153,5.45321c-0.54145,0.12567 -2.18032,0.33838 -4.91659,0.63814c-0.17404,-0.33841 -1.02006,-5.94149 -2.53806,-16.80924h0.08703z" data-paper-data="{&quot;origPos&quot;:null}" stroke="#004377" stroke-width="3.5"/><path d="M174.39466,167.54175c0.05802,0.12567 0.08703,0.21753 0.08703,0.27558c-0.05802,2.88131 -0.08703,4.54918 -0.08703,5.0036l-0.18855,0.087c-4.43799,0.116 -6.98089,0.17401 -7.6287,0.17401l-0.08703,0.18851c0.05802,1.07324 0.08703,1.9531 0.08703,2.63958v0.44961h0.08703l5.90281,-0.72516l0.10153,0.17401v4.45249c0,0.12567 -0.06285,0.18851 -0.18855,0.18851l-5.54023,-0.63816v0.53663c0,1.21827 0.03384,3.03601 0.10153,5.45321c-0.54145,0.12567 -2.18032,0.33838 -4.91659,0.63814c-0.17404,-0.33841 -1.02006,-5.94149 -2.53806,-16.80924h0.08703z" data-paper-data="{&quot;origPos&quot;:null}" stroke="none" stroke-width="0.26458"/></g><g><path d="M191.18939,171.96524c3.67415,0.98622 5.62242,1.58569 5.8448,1.79841c2.02078,2.86196 3.15687,4.51049 3.40826,4.9456c-1.30529,4.13825 -2.05462,6.20738 -2.248,6.20738c-4.35097,1.01522 -6.62797,1.52283 -6.83102,1.52283c-3.5968,-2.09813 -5.51122,-3.26805 -5.74328,-3.50977c-0.1257,-3.90621 -0.18855,-6.06236 -0.18855,-6.46845c-0.05802,-0.116 -0.08703,-0.20302 -0.08703,-0.26106c3.71283,-2.82329 5.63209,-4.23494 5.75778,-4.23494zM190.91383,177.27342c-0.05802,0.38676 -0.14504,1.79357 -0.26106,4.22044l3.23422,0.72516c0.7735,-2.4172 1.16026,-3.70798 1.16026,-3.87235c-2.5719,-0.77351 -3.94971,-1.16027 -4.13342,-1.16027z" data-paper-data="{&quot;origPos&quot;:null}" stroke="#004377" stroke-width="3.5"/><path d="M191.18939,171.96524c3.67415,0.98622 5.62242,1.58569 5.8448,1.79841c2.02078,2.86196 3.15687,4.51049 3.40826,4.9456c-1.30529,4.13825 -2.05462,6.20738 -2.248,6.20738c-4.35097,1.01522 -6.62797,1.52283 -6.83102,1.52283c-3.5968,-2.09813 -5.51122,-3.26805 -5.74328,-3.50977c-0.1257,-3.90621 -0.18855,-6.06236 -0.18855,-6.46845c-0.05802,-0.116 -0.08703,-0.20302 -0.08703,-0.26106c3.71283,-2.82329 5.63209,-4.23494 5.75778,-4.23494zM190.91383,177.27342c-0.05802,0.38676 -0.14504,1.79357 -0.26106,4.22044l3.23422,0.72516c0.7735,-2.4172 1.16026,-3.70798 1.16026,-3.87235c-2.5719,-0.77351 -3.94971,-1.16027 -4.13342,-1.16027z" data-paper-data="{&quot;origPos&quot;:null}" stroke="none" stroke-width="0.26458"/></g></g></g></svg>