<svg version="1.1" xmlns="http://www.w3.org/2000/svg" xmlns:xlink="http://www.w3.org/1999/xlink" width="221.71262" height="41.00004" viewBox="0,0,221.71262,41.00004"><defs><radialGradient cx="245.7777" cy="189.67182" r="117.21791" gradientUnits="userSpaceOnUse" id="color-1"><stop offset="0" stop-color="#000000"/><stop offset="1" stop-color="#000000" stop-opacity="0"/></radialGradient><linearGradient x1="128.55978" y1="177.18857" x2="128.55978" y2="202.15506" gradientUnits="userSpaceOnUse" id="color-2"><stop offset="0" stop-color="#000000" stop-opacity="0"/><stop offset="1" stop-color="#000000" stop-opacity="0"/></linearGradient><radialGradient cx="304.98937" cy="177.42144" r="109.06093" gradientUnits="userSpaceOnUse" id="color-3"><stop offset="0" stop-color="#f9f9fc"/><stop offset="1" stop-color="#ebebfb"/></radialGradient></defs><g transform="translate(-133.60707,-161.52212)"><g data-paper-data="{&quot;isPaintingLayer&quot;:true}" fill-rule="nonzero" stroke-linejoin="miter" stroke-miterlimit="10" stroke-dasharray="" stroke-dashoffset="0" style="mix-blend-mode: normal"><text transform="translate(167.51071,186.89803) scale(1.36551,1.19326)" font-size="22" xml:space="preserve" data-paper-data="{&quot;origPos&quot;:null}" fill="#3e444c" fill-rule="nonzero" stroke="none" stroke-width="1" stroke-linecap="butt" stroke-linejoin="miter" stroke-miterlimit="10" stroke-dasharray="" stroke-dashoffset="0" font-family="Sans Serif" font-weight="400" text-anchor="start" style="mix-blend-mode: normal"><tspan x="0" dy="0">Time Trials</tspan></text><path d="M353.26008,176.52184v5.22768l-12.42931,18.71303h-190.84142l-13.50566,-17.50122c0.34551,-0.27205 -0.31106,-1.71722 0.02967,-2.00163c1.81316,-1.51345 4.5498,-2.02732 6.11649,-3.79135z" fill="url(#color-1)" stroke="url(#color-2)" stroke-width="4.11922" stroke-linecap="round"/><path d="M342.09874,162.22972l12.30649,18.70666l-12.30649,17.51262h-188.70588c-0.32192,-4.04641 -0.27292,-8.15462 -0.51273,-12.20328c-0.32298,-5.45295 -0.43268,-11.20799 0.1657,-16.6385c0.27138,-2.46286 0.59722,-4.9213 0.94443,-7.3775z" fill="#8e807f" stroke="none" stroke-width="0" stroke-linecap="butt"/><path d="M148.82562,197.7414l-12.73084,-16.71659l12.73084,-19.50269h193.08452l12.30649,18.70666l-12.30649,17.51262z" fill="url(#color-3)" stroke="none" stroke-width="0" stroke-linecap="butt"/><g fill="none" stroke-linecap="round"><path d="M284.76547,183.50856l-1.90077,-2.38169l2.02551,-2.21544" data-paper-data="{&quot;index&quot;:null}" stroke="#818796" stroke-width="3"/><path d="M284.76547,183.50856l-1.90077,-2.38169l2.02551,-2.21544" data-paper-data="{&quot;index&quot;:null}" stroke="#d8e0e6" stroke-width="1"/></g><g stroke-width="1"><g fill="none" stroke="#a2a5ae" stroke-linecap="round"><path d="M154.76565,183.93414l-1.89411,0.02773"/><path d="M162.66367,175.67038l0.10075,1.57234"/><path d="M159.33889,176.87274v-1.0174"/><path d="M156.71937,178.63007l-0.80601,-0.64743"/><path d="M155.4096,180.94234h-1.51126"/><path d="M170.54237,183.55981l1.89412,-0.02773" data-paper-data="{&quot;index&quot;:null}"/><path d="M162.5436,190.25122l0.10075,1.57234" data-paper-data="{&quot;index&quot;:null}"/><path d="M165.96913,190.62119v1.0174" data-paper-data="{&quot;index&quot;:null}"/><path d="M168.58866,188.86386l0.80601,0.64743" data-paper-data="{&quot;index&quot;:null}"/><path d="M171.40968,186.5516h-1.51126" data-paper-data="{&quot;index&quot;:null}"/></g><g data-paper-data="{&quot;index&quot;:null}" fill="none" stroke="#a2a5ae" stroke-linecap="round"><path d="M172.235,183.96185l-1.89412,-0.02773"/><path d="M162.34211,177.24272l0.10075,-1.57234"/><path d="M165.76764,175.85534v1.0174"/><path d="M168.38716,178.63007l0.80601,-0.64743"/><path d="M171.20818,180.94234h-1.51126"/><path d="M152.67004,183.53209l1.89412,0.02773" data-paper-data="{&quot;index&quot;:null}"/><path d="M162.46217,191.82356l0.10075,-1.57234" data-paper-data="{&quot;index&quot;:null}"/><path d="M159.1374,190.62119v1.0174" data-paper-data="{&quot;index&quot;:null}"/><path d="M156.51788,188.86386l-0.80602,0.64743" data-paper-data="{&quot;index&quot;:null}"/><path d="M155.20812,186.5516h-1.51127" data-paper-data="{&quot;index&quot;:null}"/></g><path d="M151.78259,173.54309l-1.81352,1.29487" fill="none" stroke="#818796" stroke-linecap="round"/><path d="M161.45465,183.2546c0.77697,-0.80573 5.07265,-2.89946 5.07265,-2.89946c0,0 -1.21719,2.70365 -2.65463,4.19432c-0.8438,0.87503 -2.10016,1.20164 -2.58714,0.62442c-0.3426,-0.40609 -0.15174,-1.58652 0.16912,-1.91927z" fill="#818796" stroke="#818796" stroke-linecap="round"/><path d="M153.89834,175.94783c0,0 -0.01051,0.99558 -0.26445,1.21315c-0.24975,0.214 -1.24681,0.08173 -1.24681,0.08173l-0.70525,-2.49725z" fill="#818796" stroke="#818796" stroke-linecap="round"/><path d="M166.49219,167.06874c0,1.9411 -1.71409,3.51465 -3.82854,3.51465c-2.11443,0 -3.82854,-1.57356 -3.82854,-3.51465c0,-1.9411 1.71409,-3.51465 3.82854,-3.51465c2.11443,0 3.82854,1.57356 3.82854,3.51465z" fill="none" stroke="#818796" stroke-linecap="butt"/><path d="M164.57795,167.90116h-3.82854" fill="none" stroke="#818796" stroke-linecap="round"/><path d="M162.66367,168.54859l-0.10075,1.94231l-1.6952,2.20367" fill="none" stroke="#818796" stroke-linecap="round"/><path d="M162.76443,170.95335l1.20902,1.66484" fill="none" stroke="#818796" stroke-linecap="round"/><path d="M175.05604,174.28301l-1.81352,-1.29487" data-paper-data="{&quot;index&quot;:null}" fill="none" stroke="#818796" stroke-linecap="round"/><path d="M173.34326,174.19052l-0.70525,2.49725c0,0 -0.99708,0.13227 -1.24683,-0.08173c-0.25393,-0.21757 -0.26445,-1.21315 -0.26445,-1.21315z" data-paper-data="{&quot;index&quot;:null}" fill="#818796" stroke="#818796" stroke-linecap="round"/><path d="M173.88816,183.62846c0,5.8797 -5.04303,10.64613 -11.26393,10.64613c-6.22091,0 -11.26393,-4.76643 -11.26393,-10.64613c0,-2.41419 0.85022,-4.6407 2.28306,-6.42663c1.17255,-1.46148 4.01202,-2.74864 6.2368,-3.58525c0.26751,-0.1006 4.44406,-0.54931 5.71554,-0.04652c2.05288,0.81183 4.7155,2.06908 5.89942,3.49692c1.49924,1.80812 2.39305,4.08615 2.39305,6.56148z" fill="none" stroke="#a2a5ae" stroke-linecap="butt"/></g><text transform="translate(186.3391,186.03466) scale(0.37848,0.33373)" font-size="40" xml:space="preserve" fill="#2c2a26" fill-rule="nonzero" stroke="#2c2a26" stroke-width="0.4" stroke-linecap="butt" stroke-linejoin="miter" stroke-miterlimit="10" stroke-dasharray="" stroke-dashoffset="0" font-family="Sans Serif" font-weight="normal" text-anchor="start" style="mix-blend-mode: normal"><tspan x="0" dy="0">Time Trials</tspan></text></g></g></svg>