<svg version="1.1" xmlns="http://www.w3.org/2000/svg" xmlns:xlink="http://www.w3.org/1999/xlink" width="150.65418" height="33.5841" viewBox="0,0,150.65418,33.5841"><g transform="translate(-164.552,-162.09361)"><g data-paper-data="{&quot;isPaintingLayer&quot;:true}" fill-rule="nonzero" stroke-linecap="butt" stroke-linejoin="miter" stroke-miterlimit="10" stroke-dasharray="" stroke-dashoffset="0" style="mix-blend-mode: normal"><g><g fill="#004377" stroke="#004377" stroke-width="3.5"><path d="M178.36521,167.7624c3.61755,2.61858 5.72152,4.23814 6.31184,4.85872c-1.1655,3.43595 -1.74068,5.20689 -1.74068,5.31283c0.2876,0.28764 1.04438,1.2563 2.28557,2.92129v0.1816c-1.87688,3.31484 -2.96672,5.14634 -3.28458,5.49446l-12.54794,0.92332c-0.19678,-0.74169 -1.1352,-6.55399 -2.8456,-17.40668l11.82139,-2.28557zM173.41567,172.43949l0.54492,5.40366c2.66397,-0.65087 4.01111,-1.01416 4.02622,-1.10496c0.12108,-0.30272 0.39355,-1.28658 0.83249,-2.93643zM175.61043,179.76543h-0.99898c-0.13623,0.01464 -0.19677,0.07557 -0.19677,0.1816c-0.06054,1.31685 -0.09083,2.28557 -0.09083,2.92129c-0.06055,0.31786 -0.09083,0.51464 -0.09083,0.56004l4.76791,-0.74167l-0.09083,-0.45408v-0.54493c0,-0.43894 -0.03025,-1.10492 -0.09083,-2.01311c-1.43796,0.06063 -2.51263,0.0908 -3.20889,0.0908z"/><path d="M197.61854,172.33355c1.998,1.12007 3.22401,1.84662 3.6781,2.17962c-1.63473,3.40564 -2.51263,5.13117 -2.63371,5.19171h-0.10595l-2.16448,-1.89202l-2.55803,3.11807l0.28761,5.67609c-0.13623,0.12097 -1.80122,0.40869 -5.01011,0.84764c-0.12108,-0.86278 -0.90819,-5.11605 -2.36126,-12.75985c0,-0.12097 2.10394,-0.43895 6.32695,-0.93844c0.07569,0.07557 0.25732,1.02924 0.57518,2.83046c2.52777,-2.83046 3.84462,-4.25328 3.9657,-4.25328z"/><path d="M204.59632,166.26391l5.94855,0.93844c-0.74169,2.86077 -1.24116,4.28357 -1.46822,4.28357c-3.13321,-0.21177 -4.69222,-0.42381 -4.69222,-0.62058v-4.3895c0.03026,-0.1362 0.10594,-0.21206 0.21192,-0.21206zM202.93133,173.46876h0.09083c4.60142,0.83249 6.90214,1.33199 6.90214,1.46822c-1.31687,7.49246 -2.11909,11.6549 -2.40666,12.51768h-4.7982c-0.13623,0 -0.21192,-0.07557 -0.21192,-0.21206l0.42383,-13.77398z"/><path d="M216.96263,172.34869c4.55599,0.86275 6.93239,1.34713 7.14431,1.46821v0.1816c-0.98383,2.76992 -1.46822,4.19273 -1.46822,4.29868h-0.09083c-0.25732,0 -1.46821,-0.39352 -3.66295,-1.18061c-1.22604,2.04339 -1.83151,3.14836 -1.83151,3.28456l3.02727,2.93643c2.34611,-2.19474 3.52675,-3.29969 3.57215,-3.29969c1.83148,2.39154 2.73966,3.73864 2.73966,4.02624c-0.99899,0.57518 -2.73969,1.71039 -5.22203,3.39052c-4.79819,-1.04441 -7.40162,-1.61959 -7.78003,-1.74068l-2.3764,-7.6892l5.94855,-5.67609z"/><path d="M234.56608,167.7624c0.13623,0.40866 0.4541,3.26941 0.95359,8.58224l4.54087,-5.08577h0.10595c0.71141,0.59029 2.01314,1.81633 3.92028,3.70838v0.10604l-4.34411,3.58729c3.26944,2.19474 4.99497,3.42079 5.19175,3.70839c-2.05854,2.28557 -3.29969,3.60241 -3.70836,3.92027l-5.28257,-4.87386c0.21192,2.1796 0.31786,3.79919 0.31786,4.87386c-0.25732,0.1362 -2.11909,0.52977 -5.61555,1.16549c-0.2876,-1.40767 -1.19575,-7.47731 -2.7548,-18.20891c0.65087,-0.21177 2.87589,-0.7114 6.67507,-1.48332z"/><path d="M264.24827,167.7624c4.51059,1.75579 6.7659,2.69423 6.7659,2.80021c-1.43796,2.95155 -2.16448,4.48031 -2.16448,4.60143h-0.09083c-0.65086,-0.1816 -2.05854,-0.81738 -4.25328,-1.89205l-3.60244,2.52777c0,3.13317 0.18166,4.69223 0.52978,4.69223c0.22706,0.12097 1.74068,0.72655 4.52573,1.81636c1.07467,-1.05955 2.14934,-2.08883 3.2543,-3.07267c0.19678,0.1816 1.10492,1.61956 2.70937,4.32896v0.2724c-0.10594,0 -2.33099,1.21091 -6.69021,3.61756c-5.57012,-1.86176 -8.43089,-2.86075 -8.58227,-2.98183l-2.70937,-8.94553c2.54289,-3.61755 3.84461,-5.41877 3.89001,-5.41877c0.10595,0 2.25531,-0.7871 6.41778,-2.34611z"/><path d="M281.85172,172.33355l0.10594,0.19684l-2.0434,10.83754h0.10595l5.20686,-1.52876v-6.13018c0.01523,-0.1362 0.09083,-0.21206 0.19678,-0.21206c3.92027,0.2724 6.09992,0.40869 6.53887,0.40869c0,0.07557 0.03026,0.10604 0.10595,0.10604c0,1.72553 -0.54493,5.29768 -1.63473,10.7316c0,0.31786 -1.55902,0.54489 -4.69225,0.71141c-0.16648,-0.19683 -0.30271,-0.60546 -0.40866,-1.22604c-4.01111,0.81735 -6.29667,1.22604 -6.85674,1.22604c-3.19375,-2.3764 -4.79819,-3.60244 -4.79819,-3.67812c0.54492,-7.15942 0.89304,-10.86781 1.02927,-11.14027h0.09082c2.55803,-0.07557 4.90414,-0.16637 7.05351,-0.30272z"/><path d="M301.18071,172.34869c0.31786,1.28656 0.52978,2.08879 0.65086,2.39151c4.46519,-1.01412 6.8113,-1.52876 7.06862,-1.52876c3.04238,4.37439 4.55599,6.64481 4.55599,6.84159l-3.48135,7.38648l-7.49243,-1.19575v0.22699c0.59032,4.49547 0.87793,6.87188 0.87793,7.15945c-0.07568,0 -0.10594,0.03017 -0.10594,0.10603c-0.72653,-0.07557 -1.27144,-0.10603 -1.6347,-0.10603h-1.3017c-0.75681,0 -1.92231,-0.03017 -3.48136,-0.10603c-0.13623,-0.42383 -1.22604,-6.87187 -3.25429,-19.32898c0.34812,-0.1362 2.87589,-0.75681 7.5984,-1.84662zM301.7256,178.53942c0.19678,2.31583 0.37841,3.48132 0.54492,3.48132c2.07368,0.71141 3.32998,1.07467 3.79922,1.07467l1.19575,-5.20686h-0.10595c-1.18064,0.07557 -2.99698,0.28764 -5.43391,0.65087z"/></g><g fill="#ffffff" stroke="none" stroke-width="0.26459"><path d="M178.36522,167.76241c3.61756,2.61857 5.72152,4.23813 6.31184,4.85871c-1.1655,3.43595 -1.74068,5.20689 -1.74068,5.31283c0.2876,0.28763 1.04438,1.2563 2.28557,2.92129v0.1816c-1.87688,3.31484 -2.96672,5.14634 -3.28458,5.49446l-12.54794,0.92333c-0.19677,-0.74169 -1.13521,-6.55399 -2.8456,-17.40668l11.82139,-2.28557zM173.41568,172.43949l0.54492,5.40366c2.66397,-0.65087 4.0111,-1.01415 4.02621,-1.10495c0.12109,-0.30272 0.39355,-1.28658 0.83249,-2.93643zM175.61044,179.76543h-0.99898c-0.13623,0.01465 -0.19677,0.07557 -0.19677,0.1816c-0.06055,1.31684 -0.09083,2.28557 -0.09083,2.92129c-0.06055,0.31786 -0.09083,0.51464 -0.09083,0.56004l4.76791,-0.74167l-0.09083,-0.45409v-0.54492c0,-0.43895 -0.03026,-1.10492 -0.09083,-2.01311c-1.43796,0.06063 -2.51263,0.0908 -3.20889,0.0908z"/><path d="M197.61855,172.33355c1.998,1.12007 3.224,1.84662 3.6781,2.17962c-1.63473,3.40564 -2.51263,5.13117 -2.63371,5.19171h-0.10595l-2.16448,-1.89202l-2.55803,3.11806l0.2876,5.67609c-0.13623,0.12097 -1.80122,0.40869 -5.01011,0.84764c-0.12109,-0.86278 -0.90818,-5.11605 -2.36126,-12.75985c0,-0.12097 2.10394,-0.43895 6.32696,-0.93844c0.07569,0.07557 0.25732,1.02924 0.57518,2.83046c2.52777,-2.83046 3.84462,-4.25328 3.9657,-4.25328z"/><path d="M204.59634,166.26391l5.94855,0.93844c-0.74169,2.86077 -1.24116,4.28356 -1.46822,4.28356c-3.13321,-0.21177 -4.69222,-0.4238 -4.69222,-0.62058v-4.38951c0.03026,-0.1362 0.10594,-0.21206 0.21191,-0.21206zM202.93135,173.46876h0.09083c4.60142,0.8325 6.90214,1.33198 6.90214,1.46822c-1.31687,7.49246 -2.11908,11.6549 -2.40665,12.51768h-4.7982c-0.13623,0 -0.21192,-0.07557 -0.21192,-0.21206l0.42383,-13.77398z"/><path d="M216.96265,172.34869c4.55599,0.86275 6.93239,1.34713 7.14431,1.46822v0.1816c-0.98384,2.76992 -1.46822,4.19273 -1.46822,4.29867h-0.09083c-0.25732,0 -1.46821,-0.39352 -3.66295,-1.18062c-1.22604,2.04339 -1.83151,3.14835 -1.83151,3.28455l3.02727,2.93643c2.34611,-2.19474 3.52675,-3.29969 3.57215,-3.29969c1.83148,2.39154 2.73966,3.73864 2.73966,4.02624c-0.99898,0.57518 -2.73969,1.71039 -5.22203,3.39052c-4.7982,-1.04441 -7.40163,-1.61959 -7.78003,-1.74068l-2.3764,-7.6892l5.94855,-5.67609z"/><path d="M234.56609,167.76241c0.13623,0.40866 0.45409,3.26941 0.95358,8.58224l4.54088,-5.08577h0.10595c0.71141,0.59029 2.01314,1.81633 3.92027,3.70838v0.10603l-4.34411,3.5873c3.26944,2.19474 4.99497,3.42078 5.19175,3.70838c-2.05854,2.28557 -3.29969,3.60241 -3.70836,3.92027l-5.28257,-4.87385c0.21192,2.17959 0.31786,3.79918 0.31786,4.87385c-0.25732,0.1362 -2.11908,0.52978 -5.61555,1.1655c-0.2876,-1.40767 -1.19576,-7.47731 -2.7548,-18.20892c0.65087,-0.21177 2.87589,-0.71141 6.67507,-1.48333z"/><path d="M264.24828,167.76241c4.51059,1.75579 6.7659,2.69423 6.7659,2.80021c-1.43796,2.95154 -2.16448,4.48031 -2.16448,4.60142h-0.09083c-0.65087,-0.1816 -2.05854,-0.81738 -4.25328,-1.89205l-3.60244,2.52777c0,3.13318 0.18166,4.69223 0.52977,4.69223c0.22706,0.12097 1.74068,0.72655 4.52574,1.81636c1.07467,-1.05955 2.14934,-2.08883 3.2543,-3.07267c0.19677,0.1816 1.10492,1.61956 2.70937,4.32896v0.2724c-0.10595,0 -2.331,1.2109 -6.69022,3.61756c-5.57012,-1.86176 -8.43089,-2.86075 -8.58227,-2.98183l-2.70937,-8.94553c2.54289,-3.61756 3.84461,-5.41877 3.89001,-5.41877c0.10595,0 2.25531,-0.7871 6.41779,-2.34611z"/><path d="M281.85173,172.33355l0.10594,0.19683l-2.04339,10.83755h0.10595l5.20686,-1.52876v-6.13018c0.01523,-0.1362 0.09083,-0.21206 0.19677,-0.21206c3.92027,0.2724 6.09993,0.40869 6.53887,0.40869c0,0.07557 0.03026,0.10603 0.10595,0.10603c0,1.72554 -0.54492,5.29768 -1.63474,10.7316c0,0.31786 -1.55902,0.5449 -4.69225,0.71141c-0.16649,-0.19683 -0.30271,-0.60547 -0.40866,-1.22604c-4.0111,0.81735 -6.29667,1.22604 -6.85674,1.22604c-3.19375,-2.3764 -4.7982,-3.60244 -4.7982,-3.67813c0.54492,-7.15942 0.89304,-10.86781 1.02927,-11.14027h0.09083c2.55803,-0.07557 4.90414,-0.16637 7.05351,-0.30271z"/><path d="M301.18071,172.34869c0.31786,1.28656 0.52977,2.08879 0.65086,2.39151c4.46519,-1.01412 6.8113,-1.52876 7.06862,-1.52876c3.04238,4.37439 4.55599,6.64482 4.55599,6.84159l-3.48135,7.38648l-7.49243,-1.19575v0.227c0.59032,4.49548 0.87793,6.87188 0.87793,7.15945c-0.07569,0 -0.10595,0.03017 -0.10595,0.10603c-0.72652,-0.07557 -1.27144,-0.10603 -1.6347,-0.10603h-1.3017c-0.75681,0 -1.92231,-0.03017 -3.48135,-0.10603c-0.13623,-0.42383 -1.22604,-6.87188 -3.25429,-19.32898c0.34812,-0.1362 2.87589,-0.75681 7.5984,-1.84662zM301.72561,178.53941c0.19677,2.31583 0.37841,3.48132 0.54492,3.48132c2.07368,0.71141 3.32998,1.07467 3.79921,1.07467l1.19576,-5.20686h-0.10595c-1.18064,0.07557 -2.99697,0.28763 -5.43391,0.65087z"/></g></g></g></g></svg>