<svg version="1.1" xmlns="http://www.w3.org/2000/svg" xmlns:xlink="http://www.w3.org/1999/xlink" width="49.7613" height="26.85" viewBox="0,0,49.7613,26.85"><defs><radialGradient cx="223.2495" cy="179.7994" r="11.1262" gradientUnits="userSpaceOnUse" id="color-1"><stop offset="0" stop-color="#b6becf"/><stop offset="1" stop-color="#999fae"/></radialGradient><linearGradient x1="216.05" y1="178.7" x2="225.55" y2="178.7" gradientUnits="userSpaceOnUse" id="color-2"><stop offset="0" stop-color="#b1b8c9"/><stop offset="1" stop-color="#c6d0e1"/></linearGradient><radialGradient cx="238.3624" cy="180.3404" r="11.7537" gradientUnits="userSpaceOnUse" id="color-3"><stop offset="0" stop-color="#535879"/><stop offset="1" stop-color="#434561"/></radialGradient><radialGradient cx="230.8379" cy="179.9522" r="11.614" gradientUnits="userSpaceOnUse" id="color-4"><stop offset="0" stop-color="#535879"/><stop offset="1" stop-color="#434561"/></radialGradient><radialGradient cx="246.1992" cy="180.2812" r="12.1585" gradientUnits="userSpaceOnUse" id="color-5"><stop offset="0" stop-color="#a9b1c0"/><stop offset="1" stop-color="#828893"/></radialGradient><linearGradient x1="243.5398" y1="180.25155" x2="260.2639" y2="180.25155" gradientUnits="userSpaceOnUse" id="color-6"><stop offset="0" stop-color="#ff3333"/><stop offset="1" stop-color="#dd2c2c"/></linearGradient><linearGradient x1="222.703" y1="188.85" x2="231.953" y2="188.85" gradientUnits="userSpaceOnUse" id="color-7"><stop offset="0" stop-color="#4d4e5e"/><stop offset="1" stop-color="#6b6c84"/></linearGradient><linearGradient x1="241.453" y1="188.85" x2="250.703" y2="188.85" gradientUnits="userSpaceOnUse" id="color-8"><stop offset="0" stop-color="#4d4e5e"/><stop offset="1" stop-color="#6b6c84"/></linearGradient><linearGradient x1="222.653" y1="166.95" x2="231.903" y2="166.95" gradientUnits="userSpaceOnUse" id="color-9"><stop offset="0" stop-color="#4d4e5e"/><stop offset="1" stop-color="#6b6c84"/></linearGradient><linearGradient x1="241.403" y1="166.95" x2="250.653" y2="166.95" gradientUnits="userSpaceOnUse" id="color-10"><stop offset="0" stop-color="#4d4e5e"/><stop offset="1" stop-color="#6b6c84"/></linearGradient><radialGradient cx="221" cy="183.7997" r="2.3404" gradientUnits="userSpaceOnUse" id="color-11"><stop offset="0" stop-color="#d1dbed"/><stop offset="1" stop-color="#a9b1c0"/></radialGradient><radialGradient cx="220.85" cy="176.4" r="2.275" gradientUnits="userSpaceOnUse" id="color-12"><stop offset="0" stop-color="#d1dbed"/><stop offset="1" stop-color="#a9b1c0"/></radialGradient></defs><g transform="translate(-210.5887,-166.8)"><g data-paper-data="{&quot;isPaintingLayer&quot;:true}" fill-rule="nonzero" stroke-linejoin="miter" stroke-miterlimit="10" stroke-dasharray="" stroke-dashoffset="0" style="mix-blend-mode: normal"><path d="M223.55,178.9h25v2.1h-25z" fill="#ffffff" stroke="none" stroke-width="0.88388" stroke-linecap="butt"/><path d="M234.15,171h4.65v18.6h-4.65z" fill="#ffffff" stroke="none" stroke-width="1" stroke-linecap="butt"/><path d="M244.85,170.75h2.3v18.75h-2.3z" fill="#25262e" stroke="none" stroke-width="1" stroke-linecap="butt"/><path d="M226.2,170.75h2.3v18.75h-2.3z" fill="#25262e" stroke="none" stroke-width="1" stroke-linecap="butt"/><path d="M251.6,166.8l3.6,0.2l3.1,1.3l1.95,2.45l0.05,2.8l-4.7,-1l-1.85,-1.05l-2.15,-0.15z" fill="#ffffff" stroke="none" stroke-width="1" stroke-linecap="round"/><path d="M251.65,188.65l2.15,-0.15l1.85,-1.05l4.7,-1l-0.05,2.8l-1.95,2.45l-3.1,1.3l-3.6,0.2z" fill="#ffffff" stroke="none" stroke-width="1" stroke-linecap="round"/><path d="M216.35,173.65h8.95v12.9h-8.95z" fill="url(#color-1)" stroke="none" stroke-width="1" stroke-linecap="butt"/><path d="M216.05,178.7h9.5v2.6h-9.5z" fill="url(#color-2)" stroke="none" stroke-width="1" stroke-linecap="butt"/><g stroke="none" stroke-width="1.59028" stroke-linecap="round"><path d="M234.9734,172.7011c2.0833,-0.2481 4.7232,-0.5709 6.2419,0.8747c1.6157,1.5457 1.5203,4.2556 1.5108,6.4406c0.0095,2.43 0.186,5.4102 -1.5108,7.0768c-1.4933,1.4614 -4.1634,0.8428 -6.2419,0.6361c-1.5887,-0.159 -3.7578,-0.2417 -4.3335,-1.6698c-0.8174,-1.84 0.9749,-3.8962 1.1132,-5.884c0.1257,-1.8034 -1.234,-3.7452 -0.4771,-5.407c0.5216,-1.3056 2.2296,-1.8924 3.6974,-2.0674z" fill="url(#color-3)"/><path d="M228.2882,172.8077c1.18,-0.089 2.414,0.7475 2.942,1.7493c1.0194,1.7223 1.4201,3.8278 1.3517,5.8046c-0.0731,2.1071 -0.5247,4.3271 -1.5902,6.1226c-0.5201,0.8174 -1.8273,1.1768 -2.7035,0.9541c-1.0019,-0.256 -1.673,-0.819 -2.2487,-2.1437c-0.5757,-1.3247 -0.9319,-3.1535 -0.9319,-5.1716c0,-2.018 0.3562,-3.8469 0.9319,-5.1716c0.5757,-1.3247 1.2166,-2.0658 2.2487,-2.1437z" fill="url(#color-4)"/></g><path d="M236.75,177.52308h12.8v5.63461h-12.8z" fill="#3e77d5" stroke="none" stroke-width="1" stroke-linecap="butt"/><path d="M244.5,173.0683h8.85v14.3h-8.85z" fill="url(#color-5)" stroke="none" stroke-width="1.14677" stroke-linecap="butt"/><path d="M243.725,176.85c0.683,0 1.302,0.387 1.75,1.011c0.448,0.625 0.725,1.487 0.725,2.439c0,0.952 -0.277,1.814 -0.725,2.439c-0.448,0.624 -1.067,1.011 -1.75,1.011c-0.683,0 -1.302,-0.387 -1.75,-1.011c-0.448,-0.625 -0.725,-1.487 -0.725,-2.439c0,-0.952 0.277,-1.814 0.725,-2.439c0.448,-0.624 1.067,-1.011 1.75,-1.011z" fill="none" stroke="#181a22" stroke-width="1" stroke-linecap="butt"/><path d="M243.5398,176.0097l16.7241,-4.8092v18.1021l-16.7241,-4.9173z" data-paper-data="{&quot;origPos&quot;:null}" fill="url(#color-6)" stroke="none" stroke-width="0.54036" stroke-linecap="butt"/><g><path d="M222.703,188.85h9.25v4.55h-9.25z" fill="url(#color-7)" stroke="none" stroke-width="1.06234" stroke-linecap="butt"/><path d="M241.453,188.85h9.25v4.55h-9.25z" fill="url(#color-8)" stroke="none" stroke-width="1.06234" stroke-linecap="butt"/><path d="M233.5,189.4h6.3v3.75h-6.3z" fill="#ff4033" stroke="#ffffff" stroke-width="1" stroke-linecap="round"/></g><g><path d="M222.653,166.95h9.25v4.55h-9.25z" fill="url(#color-9)" stroke="none" stroke-width="1.06234" stroke-linecap="butt"/><path d="M241.403,166.95h9.25v4.55h-9.25z" fill="url(#color-10)" stroke="none" stroke-width="1.06234" stroke-linecap="butt"/><path d="M233.45,167.5h6.3v3.75h-6.3z" fill="#ff4033" stroke="#ffffff" stroke-width="1" stroke-linecap="round"/></g><g stroke="none"><path d="M213.0687,167.6636l9.0182,3.3334l1.7535,1.2727l0.6889,1.3939h-11.4606z" fill="#4e4f5f" stroke-width="1.23249" stroke-linecap="round"/><path d="M211.3531,172.8231c-0.3806,-0.5547 -0.6144,-1.3222 -0.6144,-2.169c0,-0.8468 0.2338,-1.6144 0.6144,-2.1691c0.3806,-0.5562 0.9051,-0.8996 1.4836,-0.8996c0.5784,0 1.1029,0.3434 1.4835,0.8996c0.3807,0.5547 0.6144,1.3223 0.6144,2.1691c0,0.8468 -0.2337,1.6143 -0.6144,2.169c-0.3806,0.5563 -0.9051,0.8996 -1.4835,0.8996c-0.5785,0 -1.103,-0.3433 -1.4836,-0.8996z" fill="#ffda3b" stroke-width="2.38714" stroke-linecap="butt"/><path d="M212.0358,171.7618c-0.1904,-0.3136 -0.3086,-0.7487 -0.3086,-1.2287c0,-0.48 0.1182,-0.9151 0.3086,-1.2288c0.1904,-0.315 0.4529,-0.51 0.7435,-0.51c0.2906,0 0.5531,0.195 0.7435,0.51c0.1904,0.3137 0.3086,0.7488 0.3086,1.2288c0,0.48 -0.1182,0.9151 -0.3086,1.2287c-0.1904,0.3151 -0.4529,0.5101 -0.7435,0.5101c-0.2906,0 -0.5531,-0.195 -0.7435,-0.5101z" fill="#30323a" stroke-width="1.19664" stroke-linecap="butt"/></g><g stroke="none"><path d="M212.9187,186.4864h11.4606l-0.6889,1.3939l-1.7535,1.2727l-9.0182,3.3334z" fill="#4e4f5f" stroke-width="1.23249" stroke-linecap="round"/><path d="M212.6867,186.3773c0.5784,0 1.1029,0.3433 1.4835,0.8996c0.3807,0.5547 0.6144,1.3222 0.6144,2.169c0,0.8468 -0.2337,1.6144 -0.6144,2.1691c-0.3806,0.5562 -0.9051,0.8996 -1.4835,0.8996c-0.5785,0 -1.103,-0.3434 -1.4836,-0.8996c-0.3806,-0.5547 -0.6144,-1.3223 -0.6144,-2.1691c0,-0.8468 0.2338,-1.6143 0.6144,-2.169c0.3806,-0.5563 0.9051,-0.8996 1.4836,-0.8996z" fill="#ffda3b" stroke-width="2.38714" stroke-linecap="butt"/><path d="M212.6293,187.8281c0.2906,0 0.5531,0.195 0.7435,0.5101c0.1904,0.3136 0.3086,0.7487 0.3086,1.2287c0,0.48 -0.1182,0.9151 -0.3086,1.2288c-0.1904,0.315 -0.4529,0.51 -0.7435,0.51c-0.2906,0 -0.5531,-0.195 -0.7435,-0.51c-0.1904,-0.3137 -0.3086,-0.7488 -0.3086,-1.2288c0,-0.48 0.1182,-0.9151 0.3086,-1.2287c0.1904,-0.3151 0.4529,-0.5101 0.7435,-0.5101z" fill="#30323a" stroke-width="1.19664" stroke-linecap="butt"/></g><path d="M220.9,182.2c0.469,0 0.894,0.19 1.202,0.498c0.308,0.308 0.498,0.733 0.498,1.202c0,0.469 -0.19,0.894 -0.498,1.202c-0.308,0.308 -0.733,0.498 -1.202,0.498c-0.469,0 -0.894,-0.19 -1.202,-0.498c-0.308,-0.308 -0.498,-0.733 -0.498,-1.202c0,-0.469 0.19,-0.894 0.498,-1.202c0.308,-0.308 0.733,-0.498 1.202,-0.498z" fill="url(#color-11)" stroke="none" stroke-width="1" stroke-linecap="butt"/><path d="M220.85,174.65c0.469,0 0.894,0.19 1.202,0.498c0.308,0.308 0.498,0.733 0.498,1.202c0,0.469 -0.19,0.894 -0.498,1.202c-0.308,0.308 -0.733,0.498 -1.202,0.498c-0.469,0 -0.894,-0.19 -1.202,-0.498c-0.308,-0.308 -0.498,-0.733 -0.498,-1.202c0,-0.469 0.19,-0.894 0.498,-1.202c0.308,-0.308 0.733,-0.498 1.202,-0.498z" fill="url(#color-12)" stroke="none" stroke-width="1" stroke-linecap="butt"/><path d="M258.75,171.6l1.55,-0.65v18.35l-1.55,-0.4z" fill="#ffffff" stroke="none" stroke-width="1" stroke-linecap="round"/><path d="M240.65094,182.27365c0,0 -0.8334,0.87293 -1.37607,1.09381c-0.66616,0.27027 -1.41913,0.36766 -2.11704,0.31755c-0.61888,-0.03387 -1.72892,-0.56455 -1.72892,-0.56455" fill="none" stroke="#ff4033" stroke-width="2" stroke-linecap="round"/><path d="M235.45615,177.27138c0,0 1.11004,-0.53066 1.72892,-0.56454c0.69791,-0.05011 1.45088,0.04728 2.11704,0.31755c0.54266,0.22088 1.37607,1.0938 1.37607,1.0938" fill="none" stroke="#ff4033" stroke-width="2" stroke-linecap="round"/><path d="M234.133,175.64832c0.81436,-0.04164 1.86864,0.23781 2.27581,0.91738c0.52926,1.03947 0.11715,2.31039 0.10586,3.45782c-0.00988,1.13403 0.38318,2.48329 -0.2117,3.5284c-0.35214,0.65204 -1.38314,0.81365 -2.16997,0.74096c-0.80024,-0.07409 -1.56661,-0.61253 -2.05776,-1.26669c-0.609,-0.80871 -1.1679,-1.83194 -1.20601,-2.86153c0.03811,-1.15097 0.56596,-2.32803 1.20601,-3.24965c0.46575,-0.67251 1.25469,-1.22576 2.05776,-1.26669z" fill="#ff3333" stroke="none" stroke-width="1" stroke-linecap="round"/><path d="M238.70227,178.92973c0.31121,0 0.59348,0.12632 0.79812,0.33096c0.20464,0.20464 0.33096,0.48692 0.33096,0.79812c0,0.31121 -0.12632,0.59347 -0.33096,0.79812c-0.20464,0.20464 -0.48692,0.33097 -0.79812,0.33097c-0.31121,0 -0.59348,-0.12632 -0.79812,-0.33097c-0.20464,-0.20464 -0.33096,-0.48691 -0.33096,-0.79812c0,-0.31121 0.12632,-0.59348 0.33096,-0.79812c0.20464,-0.20464 0.48692,-0.33096 0.79812,-0.33096z" fill="#ffdebd" stroke="none" stroke-width="1" stroke-linecap="butt"/><path d="M236.86751,176.30976c0.42835,0 0.81647,0.38191 1.09733,0.99825c0.28086,0.61627 0.45516,1.46711 0.45516,2.40665c0,0.93961 -0.1743,1.79038 -0.45516,2.40672c-0.28086,0.61634 -0.66898,0.99818 -1.09733,0.99818c-0.42835,0 -0.81647,-0.38184 -1.09733,-0.99818c-0.28086,-0.61634 -0.45516,-1.46711 -0.45516,-2.40672c0,-0.93954 0.1743,-1.79038 0.45516,-2.40665c0.28086,-0.61634 0.66899,-0.99825 1.09733,-0.99825z" fill="#ff3333" stroke="none" stroke-width="1.11627" stroke-linecap="round"/><path d="M236.76165,178.92973c0.18489,0 0.35284,0.11855 0.47421,0.3105c0.12138,0.19124 0.19618,0.45587 0.19618,0.74802c0,0.29215 -0.0748,0.55678 -0.19618,0.74802c-0.12138,0.19195 -0.28932,0.3105 -0.47421,0.3105c-0.18489,0 -0.35284,-0.11855 -0.47422,-0.3105c-0.12138,-0.19124 -0.19618,-0.45587 -0.19618,-0.74802c0,-0.29215 0.0748,-0.55678 0.19618,-0.74802c0.12138,-0.19195 0.28933,-0.3105 0.47422,-0.3105z" fill="#ffffff" stroke="none" stroke-width="1" stroke-linecap="butt"/><path d="M236.98183,179.19697l0.12124,0.2441l-0.48092,0.21389l0.1527,0.26427l-0.16971,0.21319l0.47012,0.29201l-0.20147,0.23513l-0.55685,-0.54507l0.19512,-0.20253l-0.18742,-0.27429z" fill="#ff0021" stroke="none" stroke-width="0.03747" stroke-linecap="round"/><path d="M241.22162,181.56784c0.22511,0.1266 0.38798,0.31346 0.46984,0.51338c0.08193,0.19992 0.08214,0.41261 -0.01814,0.59079c-0.10028,0.17826 -0.28213,0.28856 -0.49546,0.32236c-0.21339,0.03387 -0.45764,-0.00833 -0.68275,-0.13493c-0.22511,-0.1266 -0.38805,-0.31346 -0.46991,-0.51338c-0.08186,-0.19992 -0.08207,-0.41261 0.0182,-0.59087c0.10028,-0.17819 0.28214,-0.28848 0.49546,-0.32228c0.21339,-0.03387 0.45764,0.00833 0.68275,0.13493z" fill="#ffffff" stroke="none" stroke-width="1.0253" stroke-linecap="butt"/><path d="M240.4683,179.10813c-0.21332,-0.0338 -0.39518,-0.1441 -0.49545,-0.32235c-0.10028,-0.17819 -0.10007,-0.39088 -0.01821,-0.5908c0.08186,-0.19992 0.24481,-0.38678 0.46992,-0.51338c0.22511,-0.1266 0.46935,-0.1688 0.68274,-0.13493c0.21332,0.0338 0.39518,0.1441 0.49545,0.32236c0.10028,0.17819 0.10007,0.39087 0.01814,0.59079c-0.08186,0.19992 -0.24473,0.38678 -0.46984,0.51338c-0.22511,0.1266 -0.46935,0.1688 -0.68275,0.13493z" fill="#ffffff" stroke="none" stroke-width="1.0253" stroke-linecap="butt"/><path d="M248.61513,177.64409c0,-1.10457 0.79701,-2 1.78017,-2c0.07907,0 0.15694,0.0058 0.23328,0.01702c0.26357,-0.73418 1.15373,-0.96064 1.90161,-0.96064c0.62369,0 0.90454,-0.35614 1.48554,0.26704c0.33487,0.35917 0.85334,1.55894 0.98708,1.55894c0.98316,0 1.78018,0.89543 1.78018,2c0,0.67515 -0.29777,1.27217 -0.75382,1.63433c0.57218,0.33261 0.87991,1.00371 0.87991,1.77744c0,1.10457 -0.79701,2.47059 -1.78017,2.47059c-0.64633,0 -2.27559,-0.23931 -2.57196,-0.85314c-0.15445,-0.31988 0.92748,-0.8861 0.92748,-1.26452c0,-0.67515 0.24541,-1.62511 0.70146,-1.98726c-0.57218,-0.33261 -0.96325,-1.00371 -0.96325,-1.77744c0,-0.15619 0.01593,-0.3082 0.04608,-0.45409c-0.28278,0.21252 -0.62277,0.33645 -0.98852,0.33645c-0.07907,0 -0.15694,-0.0058 -0.23328,-0.01702c-0.13861,0.38609 -0.38135,0.71243 -0.68914,0.93509c0.055,0.19269 0.0847,0.39812 0.0847,0.61134c0,0.14097 -0.01298,0.27853 -0.03768,0.41126c0.46556,0.36074 0.77069,0.96412 0.77069,1.64757c0,0.05983 -0.00234,0.11905 -0.00692,0.17755c0.01968,-0.00072 0.03944,-0.00108 0.05928,-0.00108c0.85648,0 1.5717,0.97367 1.74178,1.87904c0.02516,0.13391 0.03839,-0.02136 0.03839,0.12096c0,1.10457 -0.75535,1.54166 -1.73851,1.54166c-0.47835,0 -0.96362,-0.39314 -1.29251,-0.80359c-0.34708,-0.43315 -0.52476,-0.8856 -0.52241,-0.91563c-0.01968,0.00072 -0.03945,0.00109 -0.05928,0.00109c-0.98316,0 -1.78017,-0.89543 -1.78017,-2c0,-0.14097 0.01298,-0.27854 0.03768,-0.41127c-0.46556,-0.36074 -0.77069,-0.96411 -0.77069,-1.64756c0,-0.7062 0.32578,-1.3269 0.81771,-1.68277c-0.055,-0.19269 -0.0847,-0.39812 -0.0847,-0.61134z" fill="#ffffff" stroke="none" stroke-width="0.5" stroke-linecap="butt"/><path d="M252.45,175.85c0.786,0 1.499,0.493 2.015,1.29c0.516,0.796 0.835,1.896 0.835,3.11c0,1.214 -0.319,2.314 -0.835,3.11c-0.516,0.797 -1.229,1.29 -2.015,1.29c-0.786,0 -1.499,-0.493 -2.015,-1.29c-0.516,-0.796 -0.835,-1.896 -0.835,-3.11c0,-1.214 0.319,-2.314 0.835,-3.11c0.516,-0.797 1.229,-1.29 2.015,-1.29z" fill="#ff3333" stroke="none" stroke-width="1" stroke-linecap="butt"/><path d="M253.579,176.91654l0.5552,1.1175l-2.2019,0.9792l0.6994,1.2098l-0.7772,0.9762l2.1526,1.3369l-0.9226,1.0763l-2.5494,-2.4954l0.8933,-0.9273l-0.8582,-1.2556z" fill="#ffffff" stroke="none" stroke-width="0.12106" stroke-linecap="round"/></g></g></svg>