<svg version="1.1" xmlns="http://www.w3.org/2000/svg" xmlns:xlink="http://www.w3.org/1999/xlink" width="243.18457" height="185.40315" viewBox="0,0,243.18457,185.40315"><defs><linearGradient x1="261.43666" y1="150.21151" x2="265.31248" y2="148.68964" gradientUnits="userSpaceOnUse" id="color-1"><stop offset="0" stop-color="#73571c"/><stop offset="1" stop-color="#917435"/></linearGradient><radialGradient cx="235.83186" cy="86.58493" r="43.02696" gradientUnits="userSpaceOnUse" id="color-2"><stop offset="0" stop-color="#d2a648"/><stop offset="1" stop-color="#785f29"/></radialGradient><linearGradient x1="159.81582" y1="164.03434" x2="164.44705" y2="162.21585" gradientUnits="userSpaceOnUse" id="color-3"><stop offset="0" stop-color="#73571c"/><stop offset="1" stop-color="#917435"/></linearGradient><radialGradient cx="129.22055" cy="88.00675" r="51.41304" gradientUnits="userSpaceOnUse" id="color-4"><stop offset="0" stop-color="#d2a648"/><stop offset="1" stop-color="#785f29"/></radialGradient><linearGradient x1="277.79588" y1="133.12738" x2="305.59042" y2="203.91291" gradientUnits="userSpaceOnUse" id="color-5"><stop offset="0" stop-color="#3f7a39"/><stop offset="1" stop-color="#0c3527"/></linearGradient><linearGradient x1="140.22513" y1="183.84784" x2="169.54139" y2="258.50881" gradientUnits="userSpaceOnUse" id="color-6"><stop offset="0" stop-color="#3f7a39"/><stop offset="1" stop-color="#0c3527"/></linearGradient><linearGradient x1="221.0529" y1="129.85311" x2="237.88527" y2="166.28028" gradientUnits="userSpaceOnUse" id="color-7"><stop offset="0" stop-color="#fff766"/><stop offset="1" stop-color="#dec859"/></linearGradient><linearGradient x1="205.73762" y1="185.54727" x2="235.43962" y2="261.19064" gradientUnits="userSpaceOnUse" id="color-8"><stop offset="0" stop-color="#3f7a39"/><stop offset="1" stop-color="#0c3527"/></linearGradient></defs><g transform="translate(-89.67055,-68.43953)"><g data-paper-data="{&quot;isPaintingLayer&quot;:true}" fill-rule="nonzero" stroke-linejoin="miter" stroke-miterlimit="10" stroke-dasharray="" stroke-dashoffset="0" style="mix-blend-mode: normal"><path d="M280.33324,198.33624l-37.79316,-96.24946l3.87582,-1.52188l37.79317,96.24946z" fill="url(#color-1)" stroke="none" stroke-width="0" stroke-linecap="butt"/><path d="M222.93929,114.51131l0.26395,-14.51791l-19.41071,12.59221l9.03017,-14.97777l-10.08978,5.95l7.38422,-12.84034l10.96686,-8.77963l7.32099,-2.87465l5.05949,1.49266l0.27736,-3.09118l10.08977,-5.95001l10.91945,-1.30535l26.60523,4.46456l-10.24306,3.02794l7.42685,7.5217l-16.31714,-1.04859l5.08872,10.42796l-14.77946,0.3358l-4.29305,13.11771l-12.16396,-5.66164z" fill="url(#color-2)" stroke="#000000" stroke-width="0" stroke-linecap="round"/><path d="M182.3954,221.53873l-45.15916,-115.00878l4.63123,-1.81849l45.15916,115.00878z" fill="url(#color-3)" stroke="none" stroke-width="0" stroke-linecap="butt"/><path d="M113.81519,121.37608l0.31539,-17.34749l-23.19391,15.04647l10.79017,-17.89698l-12.05629,7.10968l8.82342,-15.34298l13.10435,-10.4908l8.74787,-3.43492l6.04561,1.78357l0.33141,-3.69365l12.05629,-7.10968l13.04768,-1.55977l31.79066,5.3347l-12.23946,3.61809l8.87437,8.98771l-19.4974,-1.25297l6.08053,12.4604l-17.66001,0.40125l-5.12978,15.67439l-14.53475,-6.7651z" fill="url(#color-4)" stroke="#000000" stroke-width="0" stroke-linecap="round"/><path d="M331.05856,153.06299c7.67525,19.54688 -10.40551,27.42846 -32.14643,35.96521c-21.74093,8.53676 -38.90917,14.49599 -46.58442,-5.05089c-7.67525,-19.54688 3.72722,-42.31318 25.46815,-50.84993c21.74093,-8.53676 45.58745,0.38872 53.26269,19.93561z" fill="url(#color-5)" stroke="#000000" stroke-width="0" stroke-linecap="butt"/><path d="M196.40391,204.87489c8.09546,20.61706 -10.97519,28.93015 -33.90642,37.93428c-22.93122,9.00413 -41.03941,15.28964 -49.13487,-5.32742c-8.09546,-20.61706 3.93129,-44.62979 26.86252,-53.63392c22.93122,-9.00413 48.08331,0.41 56.17877,21.02706z" fill="url(#color-6)" stroke="#000000" stroke-width="0" stroke-linecap="butt"/><g stroke="none" stroke-linecap="butt"><path d="M219.67168,174.69647l-16.83236,-36.42719l36.42719,-16.83236l16.83236,36.42719z" fill="url(#color-7)" stroke-width="0"/><text transform="translate(228.15139,165.60269) rotate(-24.80096) scale(1.00847,1.00847)" font-size="40" xml:space="preserve" fill="#b4a145" fill-rule="nonzero" stroke="none" stroke-width="1" stroke-linecap="butt" stroke-linejoin="miter" stroke-miterlimit="10" stroke-dasharray="" stroke-dashoffset="0" font-family="Sans Serif" font-weight="normal" text-anchor="start" style="mix-blend-mode: normal"><tspan x="0" dy="0">?</tspan></text><text transform="translate(225.23349,164.77697) rotate(-24.80096) scale(1.00847,1.00847)" font-size="40" xml:space="preserve" fill="#ffffff" fill-rule="nonzero" stroke="none" stroke-width="1" stroke-linecap="butt" stroke-linejoin="miter" stroke-miterlimit="10" stroke-dasharray="" stroke-dashoffset="0" font-family="Sans Serif" font-weight="normal" text-anchor="start" style="mix-blend-mode: normal"><tspan x="0" dy="0">?</tspan></text></g><path d="M262.65559,206.851c3.36204,8.56226 2.09948,15.02997 -2.1614,20.30992c-6.1339,7.60091 -18.48154,12.74031 -32.19114,18.1235c-23.23294,9.12261 -41.57941,15.49081 -49.78138,-5.39753c-8.20198,-20.88833 3.98303,-45.21702 27.21597,-54.33963c23.23294,-9.12261 48.71599,0.4154 56.91796,21.30372z" fill="url(#color-8)" stroke="#000000" stroke-width="0" stroke-linecap="butt"/></g></g></svg>