<svg version="1.1" xmlns="http://www.w3.org/2000/svg" xmlns:xlink="http://www.w3.org/1999/xlink" width="119.159" height="167.53025" viewBox="0,0,119.159,167.53025"><defs><linearGradient x1="180.42049" y1="245.9318" x2="299.57949" y2="245.9318" gradientUnits="userSpaceOnUse" id="color-1"><stop offset="0" stop-color="#7481a6"/><stop offset="1" stop-color="#596486"/></linearGradient><linearGradient x1="240.06713" y1="215.76513" x2="240.06713" y2="248.76513" gradientUnits="userSpaceOnUse" id="color-2"><stop offset="0" stop-color="#7481a6"/><stop offset="1" stop-color="#939fc4"/></linearGradient><linearGradient x1="285.93656" y1="-945.95535" x2="339.93657" y2="-945.95535" gradientUnits="userSpaceOnUse" id="color-3"><stop offset="0" stop-color="#e7dee4"/><stop offset="1" stop-color="#e4c7cc"/></linearGradient><linearGradient x1="297.88633" y1="-962.03392" x2="297.88633" y2="-925.27025" gradientUnits="userSpaceOnUse" id="color-4"><stop offset="0" stop-color="#f6a0b7"/><stop offset="1" stop-color="#ffd0de"/></linearGradient><linearGradient x1="188.01859" y1="107.57788" x2="188.01859" y2="120.95117" gradientUnits="userSpaceOnUse" id="color-5"><stop offset="0" stop-color="#ebebeb"/><stop offset="1" stop-color="#ffffff"/></linearGradient><linearGradient x1="210.94694" y1="131.26845" x2="210.94694" y2="145.05844" gradientUnits="userSpaceOnUse" id="color-6"><stop offset="0" stop-color="#4d4ff2"/><stop offset="1" stop-color="#2900da"/></linearGradient><linearGradient x1="245.47622" y1="96.04836" x2="245.47622" y2="160.87117" gradientUnits="userSpaceOnUse" id="color-7"><stop offset="0" stop-color="#1721db"/><stop offset="1" stop-color="#6c6aff"/></linearGradient><linearGradient x1="245.99478" y1="150.97846" x2="245.99478" y2="176.0267" gradientUnits="userSpaceOnUse" id="color-8"><stop offset="0" stop-color="#cdd3fa"/><stop offset="1" stop-color="#cbd3f2"/></linearGradient><linearGradient x1="229.01134" y1="155.02366" x2="270.12627" y2="155.02366" gradientUnits="userSpaceOnUse" id="color-9"><stop offset="0" stop-color="#ffdfc0"/><stop offset="1" stop-color="#ffc2a1"/></linearGradient></defs><g transform="translate(-180.4205,-96.23488)"><g data-paper-data="{&quot;isPaintingLayer&quot;:true}" fill-rule="nonzero" stroke-linejoin="miter" stroke-miterlimit="10" stroke-dasharray="" stroke-dashoffset="0" style="mix-blend-mode: normal"><path d="M180.56713,247.26514c0,-9.1127 -0.14663,-14.80793 -0.14663,-14.80793l58.97996,-4.35874l60.17904,4.98195c0,0 -0.01237,11.12286 -0.01237,14.18471c0,9.1127 -26.63905,16.5 -59.5,16.5c-32.86095,0 -59.5,-7.3873 -59.5,-16.5z" data-paper-data="{&quot;index&quot;:null}" fill="url(#color-1)" stroke="none" stroke-width="0" stroke-linecap="butt"/><path d="M240.06713,215.76513c32.86094,0 59.5,7.3873 59.5,16.5c0,9.1127 -26.63906,16.5 -59.5,16.5c-32.86094,0 -59.5,-7.3873 -59.5,-16.5c0,-9.1127 26.63906,-16.5 59.5,-16.5z" data-paper-data="{&quot;index&quot;:null}" fill="url(#color-2)" stroke="none" stroke-width="0" stroke-linecap="butt"/><path d="" data-paper-data="{&quot;index&quot;:null}" fill="url(#color-3)" stroke="#000000" stroke-width="0" stroke-linecap="round"/><path d="" data-paper-data="{&quot;index&quot;:null}" fill="url(#color-4)" stroke="#000000" stroke-width="0" stroke-linecap="round"/><path d="M261.9345,186.58552l-10.31491,-14.10076l11.32509,-2.35399l11.29729,12.00627z" fill="#373de9" stroke="none" stroke-width="0" stroke-linecap="butt"/><path d="M235.93939,188.55731l-4.90753,-16.76738l11.45089,1.63584l6.54337,15.13154z" fill="#373de9" stroke="none" stroke-width="0" stroke-linecap="butt"/><path d="M210.46116,144.21814c2.75921,4.38859 1.43833,10.18304 -2.95026,12.94224c-4.38859,2.75921 -18.04095,9.09405 -20.80016,4.70547c-1.36035,-2.16367 -3.47979,-8.75371 -1.04129,-12.95545c2.50754,-4.3207 9.62454,-6.24366 11.84947,-7.64251c4.38859,-2.75921 10.18304,-1.43833 12.94224,2.95026z" fill="#ffffff" stroke="none" stroke-width="0" stroke-linecap="butt"/><path d="M215.49136,160.13456c0,2.30211 1.39722,6.60075 1.39722,6.60075l-6.71371,1.78295c0,0 -11.04193,-2.39833 -11.04193,-8.38369c0,-5.98536 4.47988,-15.33602 8.99713,-15.33602c4.51725,0 7.36129,9.35066 7.36129,15.33602z" fill="#4d4ff2" stroke="none" stroke-width="0" stroke-linecap="butt"/><path d="M194.49296,120.33817l-4.39597,2.78163c0,0 -3.67758,-1.86005 -5.88007,-4.15022c-1.83373,-1.90673 -2.26032,-4.11161 -2.26032,-5.78938c0,-2.24895 0.17523,-3.29564 1.74307,-4.29808c1.00666,-0.64364 3.53883,-1.20818 4.69831,-1.20818c1.37452,0 3.65724,2.67449 4.70206,4.87151c1.20922,2.5427 1.39291,7.79271 1.39291,7.79271z" fill="url(#color-5)" stroke="none" stroke-width="0" stroke-linecap="butt"/><path d="M212.35728,147.2523c0,0 -2.41266,-1.93877 -2.82639,-3.44593c-0.31683,-1.15418 -2.99483,-6.59634 -6.46221,-10.44643c-1.7257,-1.91617 -5.31192,-3.86885 -7.65388,-5.62011c-4.67329,-3.49456 -8.13022,-6.18708 -8.13022,-6.18708l6.89499,-3.76091c0,0 8.75566,4.5943 12.32437,8.89775c3.5349,4.26269 8.98745,16.80179 8.98745,16.80179z" fill="url(#color-6)" stroke="none" stroke-width="0" stroke-linecap="butt"/><path d="M215.90033,147.45678c0,2.37156 -4.65696,5.11201 -8.38369,5.11201c-3.72673,0 -3.88512,-5.11201 -3.88512,-5.11201c0,0 1.79423,-4.29409 5.52097,-4.29409c3.72673,0 6.74785,1.92252 6.74785,4.29409z" fill="#ccd3f6" stroke="none" stroke-width="0" stroke-linecap="butt"/><g stroke-width="0"><path d="M255.10385,109.1498l3.71532,1.85767l6.06186,3.61757l6.84403,5.573l2.73761,3.71532l2.15098,4.4975l2.4443,9.48388l2.63984,6.74627l1.56435,2.24875c0,0 0.64287,1.26869 0.78218,2.15098c0.13931,0.88229 0.09777,3.42202 0.09777,3.42202l-1.36882,0.97772l-13.00367,3.03092l-35.00235,4.39974l-25.51848,-0.09777l-1.66213,-1.17327l-0.78218,-2.63984l0.58662,-2.73761l1.56435,-2.73761l0.78218,-0.97772l1.85767,-4.10642l1.66213,-9.87497l1.07548,-6.15962l0.58662,-1.95544l2.68422,-2.68656l6.69954,-7.56182l11.72595,-8.66165l2.94217,-1.13321l5.573,-0.48886l4.69305,-0.09777z" data-paper-data="{&quot;index&quot;:null}" fill="url(#color-7)" stroke="#000000" stroke-linecap="round"/><path d="M279.1348,159.43342l-3.1287,3.24044l-5.81045,5.41936l-5.92219,3.96675c0,0 -4.18774,2.06853 -7.03958,2.90521c-2.85185,0.83671 -6.48089,1.06152 -6.48089,1.06152l-7.54241,-0.27934l-6.36914,-0.33522l-5.69871,-1.67609l-8.04524,-3.24044c0,0 -4.20356,-1.58707 -6.62986,-3.09145c-2.42631,-1.50439 -5.08414,-4.1716 -5.08414,-4.1716l-3.7487,-2.99833l-0.91255,-1.95544l12.09191,-0.39109l17.20786,0.91255l12.98329,-0.4929l19.99845,-3.54834l15.65686,-2.76942l-3.92423,5.76776z" data-paper-data="{&quot;index&quot;:null}" fill="url(#color-8)" stroke="#000000" stroke-linecap="round"/><path d="M221.1238,99.04671l3.43289,0.95599l3.91088,1.67734l5.86632,3.51978l4.29316,3.41893c0,0 -2.37658,5.67277 -5.22374,8.15511c-3.71936,3.24279 -13.55728,10.12971 -13.55728,10.12971l-5.32759,2.59878l-0.20825,-3.262c0,0 -1.91494,-5.10678 -2.50296,-8.60393c-0.58802,-3.49715 -0.51116,-7.24207 -0.46931,-9.07323c0.04186,-1.83116 0.1609,-2.89082 0.78218,-4.61483c0.62127,-1.72401 2.34653,-4.06731 2.34653,-4.06731l2.26831,-0.78218l2.38997,-0.35633z" data-paper-data="{&quot;index&quot;:null}" fill="#f9f2f5" stroke="#000000" stroke-linecap="round"/><path d="M229.44322,109.05203c0.53733,0.85975 0.87995,2.4443 0.87995,2.4443l-2.25699,3.02681c0,0 -3.86774,3.27927 -5.56889,4.20007c-1.70114,0.9208 -4.4934,1.86589 -4.4934,1.86589c0,0 -1.13578,-2.49325 -1.56435,-4.59528c-0.42857,-2.10204 -0.48886,-5.47523 -0.48886,-5.47523c0,0 0.08635,-3.36908 0.29331,-4.10642c0.20697,-0.73733 0.48827,-0.98822 1.27103,-1.46657c0.78276,-0.47835 0.68512,-0.73405 2.24875,-0.6844c1.56364,0.04965 3.91088,0.87995 3.91088,0.87995l4.20419,2.4443c0,0 1.02701,0.60684 1.56435,1.46657z" data-paper-data="{&quot;index&quot;:null}" fill="#ffc2d0" stroke="#000000" stroke-linecap="round"/><path d="M271.40068,96.23488l2.38997,0.35633l2.26831,0.78218c0,0 1.72526,2.34329 2.34653,4.06731c0.62127,1.72401 0.74032,2.78366 0.78218,4.61483c0.04186,1.83116 0.11871,5.57608 -0.46931,9.07323c-0.58802,3.49715 -2.50296,8.60393 -2.50296,8.60393l-0.20371,3.52858l-5.33213,-2.86537c0,0 -9.83791,-6.88693 -13.55728,-10.12971c-2.84715,-2.48234 -6.23028,-6.06856 -6.23028,-6.06856l5.29971,-5.50548l5.86632,-3.51978l3.91088,-1.67734l3.43289,-0.95599z" data-paper-data="{&quot;index&quot;:null}" fill="#f9f2f5" stroke="#000000" stroke-linecap="round"/><path d="M257.13324,137.78119l3.78222,0.75645l2.7143,1.73537l2.5808,2.13585l1.86887,2.49182l0.66745,1.42389l0.75645,1.86887l0.62295,3.42624v3.11477l-0.75645,3.73772l-1.3349,3.29275l-2.31382,3.15927l-2.7143,2.22484l-3.38175,2.31382l-4.58316,1.86887l-2.75879,0.84544l-2.93678,0.13349l-2.98129,-0.13349l-2.6253,-0.53396l-2.66981,-0.80094l-3.15927,-0.97893l-2.89228,-1.46838l-2.35833,-1.77986l-2.04685,-2.75879l-1.29041,-2.8478l-0.22248,-2.00236l-0.08898,-4.13819l0.66745,-2.80329l0.57846,-1.55739l2.04685,-2.80329l2.13585,-2.5808l3.29275,-2.53632c0,0 1.39648,-0.81287 1.84135,-1.07183c0.44487,-0.25895 1.13994,-0.66354 1.13994,-0.66354l4.31619,-1.64638l2.80329,-0.71194l3.78222,-0.71194l3.82673,-0.04449z" data-paper-data="{&quot;index&quot;:null}" fill="url(#color-9)" stroke="#000000" stroke-linecap="round"/><path d="M256.94236,150.21353c0.62506,2.8722 0.41617,5.30173 -1.58154,5.79106c-2.204,0.53984 -3.22005,-1.73787 -3.84512,-4.61006c-0.62509,-2.87227 -0.53117,-5.33135 1.58152,-5.79113c2.1127,-0.45979 3.22007,1.73794 3.84514,4.61014z" fill="#000000" stroke="none" stroke-linecap="butt"/><path d="M255.58122,148.19753c0.20845,0.95784 -0.05024,1.80929 -1.25548,2.0898c-1.3298,0.30942 -1.80187,-0.4212 -2.01034,-1.37905c-0.20845,-0.95787 -0.01591,-1.81286 1.25547,-2.08957c1.27137,-0.27669 1.80189,0.42095 2.01035,1.37882z" fill="#f5f5f5" stroke="none" stroke-linecap="butt"/><path d="M243.96832,147.76857c2.11271,-0.45979 3.22013,1.73784 3.8452,4.61003c0.62506,2.8722 0.41609,5.30174 -1.58161,5.79108c-2.20399,0.53984 -3.22021,-1.73784 -3.84528,-4.61002c-0.62506,-2.87218 -0.53101,-5.3313 1.58169,-5.79108z" fill="#000000" stroke="none" stroke-linecap="butt"/><path d="M246.27331,150.26623c0.20843,0.95771 -0.05022,1.80906 -1.25547,2.08957c-1.32979,0.30947 -1.80182,-0.42097 -2.01029,-1.37883c-0.20845,-0.95787 -0.01593,-1.81294 1.25544,-2.08964c1.27138,-0.27669 1.80186,0.42104 2.0103,1.37891z" fill="#f5f5f5" stroke="none" stroke-linecap="butt"/><path d="M260.05626,106.77073c0.53733,-0.85975 1.56435,-1.46657 1.56435,-1.46657l4.20419,-2.4443c0,0 2.34724,-0.83031 3.91088,-0.87995c1.56364,-0.04964 1.46599,0.20605 2.24875,0.6844c0.78276,0.47835 1.06406,0.72924 1.27103,1.46657c0.20697,0.73734 0.29331,4.10642 0.29331,4.10642c0,0 -0.0603,3.3732 -0.48886,5.47523c-0.42857,2.10203 -1.56435,4.59528 -1.56435,4.59528c0,0 -2.79225,-0.9451 -4.4934,-1.8659c-1.70114,-0.9208 -5.56889,-4.20007 -5.56889,-4.20007l-2.25699,-3.02681c0,0 0.34261,-1.58455 0.87995,-2.4443z" data-paper-data="{&quot;index&quot;:null}" fill="#ffc2d0" stroke="#000000" stroke-linecap="round"/></g><g fill="#ffffff" stroke="none" stroke-width="0" stroke-linecap="butt"><path d="M254.2237,192.91651c2.74693,5.53963 -2.09547,7.33157 -7.00739,10.22347c-4.50129,2.65014 -11.44801,-0.99744 -12.87772,-4.72723c-1.97076,-5.14126 4.10097,-7.37414 9.07931,-8.95559c4.97834,-1.58143 8.24093,-1.71318 10.80582,3.45935z" data-paper-data="{&quot;origRot&quot;:0,&quot;origPos&quot;:null}"/><path d="M249.97304,185.67748c1.27015,3.59208 -0.26206,2.67609 -7.35785,5.13515c-6.22882,2.15862 -7.16586,2.67458 -8.48104,-0.53872c-1.17562,-2.87237 3.44694,-3.52182 7.28892,-4.74784c3.84195,-1.22601 7.80831,-1.94614 8.54998,0.1514z" data-paper-data="{&quot;origRot&quot;:0,&quot;origPos&quot;:null}"/></g><g fill="#ffffff" stroke="none" stroke-width="0" stroke-linecap="butt"><path d="M279.42431,181.50166c4.25096,4.49026 0.14715,7.62373 -3.70049,11.82917c-3.52598,3.85386 -11.23705,2.4043 -13.69789,-0.74209c-3.39209,-4.33708 1.75764,-8.25268 6.05316,-11.22478c4.29552,-2.97209 7.37596,-4.05502 11.34522,0.13769z" data-paper-data="{&quot;origRot&quot;:0,&quot;origPos&quot;:null}"/><path d="M273.23729,175.82779c2.26788,3.06153 0.5344,2.63524 -5.52801,7.06745c-5.3217,3.89068 -6.06618,4.6588 -8.26602,1.9726c-1.96642,-2.4012 2.26234,-4.37796 5.57571,-6.67696c3.31337,-2.299 6.89404,-4.15082 8.21833,-2.36309z" data-paper-data="{&quot;origRot&quot;:0,&quot;origPos&quot;:null}"/></g><path d="M243.57353,203.87161l-1.30867,-4.0896" fill="none" stroke="#9c9c9c" stroke-width="1" stroke-linecap="round"/><path d="M249.46256,201.9086l-1.30867,-3.27168" fill="none" stroke="#9c9c9c" stroke-width="1" stroke-linecap="round"/><path d="M269.75652,191.58528l2.92546,3.14312" fill="none" stroke="#9c9c9c" stroke-width="1" stroke-linecap="round"/><path d="M274.50047,187.00493l2.92546,3.14312" fill="none" stroke="#9c9c9c" stroke-width="1" stroke-linecap="round"/><g fill="none" stroke="#564031" stroke-width="1.5" stroke-linecap="round"><path d="M252.92427,159.99419c0,0 -0.94715,0.97065 -2.01119,1.25997c-1.07842,0.29323 -2.38369,0.07926 -2.38369,0.07926"/><path d="M248.00164,160.2313c0,0 0.31601,0.55671 0.35063,1.14009c0.04042,0.68121 -0.30837,1.25783 -0.30837,1.25783"/></g></g></g></svg>