<svg version="1.1" xmlns="http://www.w3.org/2000/svg" xmlns:xlink="http://www.w3.org/1999/xlink" width="176.57076" height="120.72026" viewBox="0,0,176.57076,120.72026"><defs><linearGradient x1="171.25547" y1="197.98896" x2="193.16256" y2="242.9467" gradientUnits="userSpaceOnUse" id="color-1"><stop offset="0" stop-color="#297d26"/><stop offset="1" stop-color="#1a5a1e"/></linearGradient><linearGradient x1="209.30686" y1="175.3418" x2="224.34973" y2="206.21278" gradientUnits="userSpaceOnUse" id="color-2"><stop offset="0" stop-color="#2a7c24"/><stop offset="1" stop-color="#22691f"/></linearGradient><linearGradient x1="224.29412" y1="147.95801" x2="241.2356" y2="182.72533" gradientUnits="userSpaceOnUse" id="color-3"><stop offset="0" stop-color="#2e8827"/><stop offset="1" stop-color="#267121"/></linearGradient><linearGradient x1="251.5051" y1="126.51237" x2="266.84006" y2="157.98279" gradientUnits="userSpaceOnUse" id="color-4"><stop offset="0" stop-color="#2e8826"/><stop offset="1" stop-color="#297a23"/></linearGradient><linearGradient x1="283.18912" y1="141.44443" x2="299.69247" y2="175.31259" gradientUnits="userSpaceOnUse" id="color-5"><stop offset="0" stop-color="#2d8326"/><stop offset="1" stop-color="#1f641f"/></linearGradient><linearGradient x1="313.64579" y1="158.84148" x2="325.91376" y2="184.01782" gradientUnits="userSpaceOnUse" id="color-6"><stop offset="0" stop-color="#246f22"/><stop offset="1" stop-color="#19581d"/></linearGradient><linearGradient x1="188.08559" y1="170.60618" x2="203.2745" y2="201.77688" gradientUnits="userSpaceOnUse" id="color-7"><stop offset="0" stop-color="#2b7f25"/><stop offset="1" stop-color="#267422"/></linearGradient><linearGradient x1="231.68814" y1="163.3841" x2="258.60562" y2="218.62416" gradientUnits="userSpaceOnUse" id="color-8"><stop offset="0" stop-color="#2c8225"/><stop offset="1" stop-color="#18551c"/></linearGradient></defs><g transform="translate(-157.20901,-124.74758)"><g data-paper-data="{&quot;isPaintingLayer&quot;:true}" fill-rule="nonzero" stroke-width="0" stroke-linejoin="miter" stroke-miterlimit="10" stroke-dasharray="" stroke-dashoffset="0" style="mix-blend-mode: normal"><path d="M157.20922,220.3665c0.05596,-13.80701 11.29412,-24.95443 25.10112,-24.89846c13.80701,0.05596 24.95442,11.29412 24.89846,25.10113c-0.05596,13.80701 -11.29412,24.95442 -25.10112,24.89846c-13.80701,-0.05596 -24.95442,-11.29412 -24.89846,-25.10112z" fill="url(#color-1)" stroke="none" stroke-linecap="butt"/><path d="M199.66177,190.7077c0.03843,-9.48081 7.7553,-17.13537 17.23611,-17.09694c9.48081,0.03843 17.13538,7.7553 17.09695,17.23611c-0.03843,9.48081 -7.7553,17.13537 -17.23611,17.09694c-9.48081,-0.03843 -17.13537,-7.7553 -17.09694,-17.23611z" fill="url(#color-2)" stroke="none" stroke-linecap="butt"/><path d="M213.43169,165.26331c0.04328,-10.67741 8.73413,-19.29809 19.41154,-19.25481c10.67741,0.04328 19.29809,8.73413 19.25481,19.41154c-0.04328,10.67741 -8.73413,19.29809 -19.41154,19.25481c-10.67741,-0.04328 -19.29809,-8.73413 -19.25481,-19.41154z" fill="url(#color-3)" stroke="none" stroke-linecap="butt"/><path d="M241.67272,142.17665c0.03918,-9.66491 7.90589,-17.4681 17.57079,-17.42892c9.6649,0.03918 17.4681,7.90588 17.42892,17.57079c-0.03918,9.66491 -7.90589,17.4681 -17.57079,17.42892c-9.66491,-0.03918 -17.4681,-7.90588 -17.42893,-17.57079z" fill="url(#color-4)" stroke="none" stroke-linecap="butt"/><path d="M272.60762,158.30217c0.04216,-10.40128 8.50824,-18.799 18.90952,-18.75684c10.40128,0.04216 18.79901,8.50824 18.75684,18.90952c-0.04216,10.40128 -8.50824,18.799 -18.90952,18.75684c-10.40128,-0.04216 -18.799,-8.50824 -18.75684,-18.90951z" fill="url(#color-5)" stroke="none" stroke-linecap="butt"/><path d="M305.77989,171.3729c0.03134,-7.73192 6.32471,-13.97448 14.05663,-13.94314c7.73192,0.03134 13.97447,6.32471 13.94313,14.05664c-0.03134,7.73192 -6.32471,13.97448 -14.05663,13.94314c-7.73192,-0.03134 -13.97448,-6.32471 -13.94314,-14.05663z" fill="url(#color-6)" stroke="none" stroke-linecap="butt"/><path d="M178.34685,186.12127c0.0388,-9.57286 7.8306,-17.30174 17.40345,-17.26293c9.57286,0.0388 17.30174,7.83059 17.26293,17.40345c-0.0388,9.57286 -7.8306,17.30174 -17.40345,17.26293c-9.57286,-0.0388 -17.30174,-7.83059 -17.26293,-17.40345z" fill="url(#color-7)" stroke="none" stroke-linecap="butt"/><path d="M178.60587,204.4558l33.36144,-6.86483l19.13765,-33.92271l39.7366,-17.17241l55.84956,37.22669l-116.57153,58.52798l-23.67863,2.90404z" fill="url(#color-8)" stroke="#000000" stroke-linecap="round"/></g></g></svg>