<svg xmlns="http://www.w3.org/2000/svg" xmlns:xlink="http://www.w3.org/1999/xlink" version="1.1" width="205.0755934715271" height="228.4326491355896" viewBox="0.8203098773956299 0.831040620803833 205.0755934715271 228.4326491355896">
  <defs>
    <radialGradient id="grad_1" cx="0.3605" cy="0.5211" r="0.83135">
      <stop offset="0" stop-color="#C8E7FF" stop-opacity="1"/>
      <stop offset="1" stop-color="#95D0FF" stop-opacity="1"/>
    </radialGradient>
  </defs>
  <!-- Exported by Scratch - http://scratch.mit.edu/ -->
  <path id="ID0.7185896872542799" fill="none" stroke="url(#grad_1)" stroke-width="32.124574184417725" stroke-linecap="round" d="M 52.5899 69.1242 C 49.3154 57.0861 36.2043 45.442 40.0614 33.466 C 43.5222 22.7492 59.2162 13.5916 69.5089 18.0462 C 86.959 24.893 87.5415 60.3906 106.5592 60.5577 C 126.1531 60.7183 127.618 20.6825 147.0362 17.5108 C 163.364 14.8466 182.1676 31.6242 188.0486 47.4937 C 194.7069 67.0062 180.6813 88.4461 179.482 109.0658 C 178.4776 126.0404 179.3706 142.7109 180.0174 160.1439 C 180.3087 170.8392 181.0882 182.8988 175.7341 192.2684 C 170.3179 201.7452 160.5799 209.8513 150.0345 212.614 C 141.877 214.7107 132.7022 210.8472 125.5127 206.5103 C 115.023 200.1133 110.1122 182.0079 97.9927 183.0594 C 80.3284 184.0767 71.1494 210.2882 53.0183 211.5432 C 38.5965 212.5048 20.7823 200.6829 17.2529 186.9143 C 14.1925 174.9426 30.9123 166.2604 37.5985 155.8606 C 43.7514 146.2896 52.2044 137.7423 55.8024 126.9485 C 59.1926 116.7778 58.261 105.5342 57.944 94.8239 C 57.6742 86.4587 54.8815 77.5559 52.5899 69.1242 Z "/>
  <path id="ID0.9351603537797928" fill="#FFFFFF" stroke="none" d="M 42.15 102.6 L 74.4 102.6 L 74.4 108.5 L 42.15 108.5 L 42.15 102.6 Z " stroke-width="1"/>
</svg>