<svg version="1.1" xmlns="http://www.w3.org/2000/svg" xmlns:xlink="http://www.w3.org/1999/xlink" width="726.04832" height="360.8859" viewBox="0,0,726.04832,360.8859"><defs><linearGradient x1="240.00002" y1="8059.34178" x2="240.00002" y2="-5574.12492" gradientUnits="userSpaceOnUse" id="color-1"><stop offset="0" stop-color="#000000"/><stop offset="1" stop-color="#000000" stop-opacity="0"/></linearGradient><linearGradient x1="241.97623" y1="287.28032" x2="242.16562" y2="316.53717" gradientUnits="userSpaceOnUse" id="color-2"><stop offset="0" stop-color="#8e8e8e" stop-opacity="0"/><stop offset="1" stop-color="#8e8e8e"/></linearGradient><linearGradient x1="241.97622" y1="343.46071" x2="242.16561" y2="332.97825" gradientUnits="userSpaceOnUse" id="color-3"><stop offset="0" stop-color="#8e8e8e" stop-opacity="0"/><stop offset="1" stop-color="#8e8e8e"/></linearGradient><linearGradient x1="240.4356" y1="-1589.0215" x2="240.4356" y2="1680.71511" gradientUnits="userSpaceOnUse" id="color-4"><stop offset="0" stop-color="#fafafa" stop-opacity="0"/><stop offset="1" stop-color="#fafafa"/></linearGradient><linearGradient x1="240.61441" y1="266.79493" x2="240.61441" y2="343.97528" gradientUnits="userSpaceOnUse" id="color-5"><stop offset="0" stop-color="#2c6582" stop-opacity="0"/><stop offset="1" stop-color="#2c6582"/></linearGradient></defs><g transform="translate(123.02416,0.44295)"><g data-paper-data="{&quot;isPaintingLayer&quot;:true}" fill-rule="nonzero" stroke-linejoin="miter" stroke-miterlimit="10" stroke-dasharray="" stroke-dashoffset="0" style="mix-blend-mode: normal"><path d="M603.02416,-0.44295v360.8859h-726.04832v-360.8859z" fill="url(#color-1)" stroke="none" stroke-width="0" stroke-linecap="butt"/><text transform="translate(9.57431,87.37891) scale(0.5,0.5)" font-size="40" xml:space="preserve" data-paper-data="{&quot;origPos&quot;:null}" fill="#ffffff" fill-rule="nonzero" stroke="none" stroke-width="1" stroke-linecap="butt" stroke-linejoin="miter" stroke-miterlimit="10" stroke-dasharray="" stroke-dashoffset="0" font-family="Sans Serif" font-weight="normal" text-anchor="start" style="mix-blend-mode: normal"><tspan x="0" dy="0">Total Playtime</tspan><tspan x="0" dy="46.150000000000006px">Total Coins</tspan><tspan x="0" dy="46.150000000000006px"> </tspan><tspan x="0" dy="46.150000000000006px">Races</tspan><tspan x="0" dy="46.150000000000006px">Battles</tspan><tspan x="0" dy="46.150000000000006px">Wins</tspan><tspan x="0" dy="46.150000000000006px">Losses</tspan><tspan x="0" dy="46.150000000000006px"> </tspan></text><path d="M11.9802,126.37891h455" data-paper-data="{&quot;origPos&quot;:null}" fill="none" stroke="#ffffff" stroke-width="1" stroke-linecap="round"/><path d="M11.9802,58.37891h455" data-paper-data="{&quot;origPos&quot;:null}" fill="none" stroke="#ffffff" stroke-width="1" stroke-linecap="round"/><text transform="translate(174.94909,38.12891) scale(0.69502,0.69502)" font-size="40" xml:space="preserve" data-paper-data="{&quot;origPos&quot;:null}" fill="#ffffff" fill-rule="nonzero" stroke="none" stroke-width="1" stroke-linecap="butt" stroke-linejoin="miter" stroke-miterlimit="10" stroke-dasharray="" stroke-dashoffset="0" font-family="Sans Serif" font-weight="normal" text-anchor="start" style="mix-blend-mode: normal"><tspan x="0" dy="0">Play Stats</tspan></text><path d="M12.50003,241h455" fill="none" stroke="#ffffff" stroke-width="1" stroke-linecap="round"/><g data-paper-data="{&quot;origPos&quot;:null}" stroke-linecap="butt"><path d="M57.73803,287.31759l365.50492,-0.07395l0.12143,41.61535l-365.5049,0.07395z" data-paper-data="{&quot;origPos&quot;:null}" fill="url(#color-2)" stroke="none" stroke-width="0"/><path d="M57.85947,328.53696l365.5049,0.0265l-0.12143,8.24373l-365.50492,-0.0265z" data-paper-data="{&quot;origPos&quot;:null}" fill="url(#color-3)" stroke="none" stroke-width="0"/><path d="M413.43558,343.96984c-10.60057,0 -346.05826,0 -346.05826,0c-7.06809,0 -9.52639,-6.52624 -9.52639,-8.60445c0,-2.67075 -0.26615,-65.97193 0,-67.97749c0.23994,-1.80802 2.01546,-10.56388 10.03205,-10.56388c130.86246,0 320.62521,0.06695 343.91561,0.23378c8.82397,0.06321 11.22168,10.13211 11.22168,10.13211c0,0 0,64.83301 0,67.04015c0,2.31966 -2.33792,9.73979 -9.58467,9.73979z" data-paper-data="{&quot;origPos&quot;:null,&quot;index&quot;:null}" fill="url(#color-4)" stroke="#788c96" stroke-width="1"/><path d="M57.8029,267.03508l365.50492,-0.24015c0,0 0.11416,64.10686 0.11808,66.82099c0.00392,2.71414 -3.20703,10.32392 -9.97123,10.32558c-6.76419,0.00166 -208.32035,-0.05668 -345.9872,0.03378c-5.6384,0.00162 -9.54537,-5.3083 -9.54681,-8.82803c-0.00198,-2.99529 -0.11773,-68.11216 -0.11773,-68.11216z" data-paper-data="{&quot;origPos&quot;:null}" fill="url(#color-5)" stroke="none" stroke-width="0"/></g></g></g></svg>