<svg version="1.1" xmlns="http://www.w3.org/2000/svg" xmlns:xlink="http://www.w3.org/1999/xlink" width="394.24928" height="106.27879" viewBox="0,0,394.24928,106.27879"><defs><linearGradient x1="76.29794" y1="313.02949" x2="76.29794" y2="416.32408" gradientUnits="userSpaceOnUse" id="color-1"><stop offset="0" stop-color="#567eff"/><stop offset="1" stop-color="#b83bff"/></linearGradient></defs><g transform="translate(120.78829,-311.54529)"><g data-paper-data="{&quot;isPaintingLayer&quot;:true}" fill-rule="nonzero" stroke-linecap="butt" stroke-linejoin="miter" stroke-dasharray="" stroke-dashoffset="0" style="mix-blend-mode: normal"><path d="M269.24384,363.56241l2.64021,52.76167h-391.17234v-103.27879c0,0 147.39587,-0.09142 210.36646,0.16578c62.47741,-0.71214 73.1487,49.6745 112.49459,50.35758z" data-paper-data="{&quot;index&quot;:null}" fill="url(#color-1)" stroke="#4336cd" stroke-width="3" stroke-miterlimit="10"/><path d="M13.05584,330.55678l4.86107,10.18956l2.65846,-8.28459l7.06215,0.51018l-5.2688,14.97415l-6.95377,1.05164l-9.4609,-13.47161z" fill="#4336cd" stroke="#4336cd" stroke-width="6" stroke-miterlimit="10"/><path d="M13.05582,330.55678l4.86107,10.18956l2.65846,-8.28459l7.06215,0.51018l-5.2688,14.97415l-6.95377,1.05164l-9.4609,-13.47161z" fill="#ffffff" stroke="none" stroke-width="1" stroke-miterlimit="10"/><g fill="#ffffff" stroke-miterlimit="10"><path d="M55.8743,348.02041v-6.57283l6.72568,0.61144l-1.06999,6.11425z" stroke="#4336cd" stroke-width="6"/><path d="M55.8743,348.02041v-6.57283l6.72568,0.61144l-1.06999,6.11425z" stroke="none" stroke-width="0"/></g><g fill="#ffffff" stroke-miterlimit="10"><path d="M91.87431,348.4656v-6.57283l6.72568,0.61144l-1.06999,6.11425z" stroke="#4336cd" stroke-width="6"/><path d="M91.87431,348.4656v-6.57283l6.72568,0.61144l-1.06999,6.11425z" stroke="none" stroke-width="0"/></g><g fill="#ffffff" stroke-miterlimit="4"><path d="M83.69769,325.72759v0.17012l-5.10858,5.61942l5.36402,-0.34064l4.59771,8.00346l-2.63943,6.64116l-8.59945,3.40573l-9.87659,-4.42745l-1.788,-8.94l10.38745,-14.30406zM74.07652,340.11676l3.74629,2.80973l2.63944,-3.74629l-2.12856,-2.63945l-2.89486,1.10686z" stroke="#4336cd" stroke-width="6"/><path d="M76.03481,321.55557l7.66288,4.17202v0.17012l-5.10858,5.61942l5.36402,-0.34064l4.59771,8.00346l-2.63943,6.64116l-8.59945,3.40573l-9.87659,-4.42745l-1.788,-8.94l10.38745,-14.30405zM74.07652,340.11676l3.74629,2.80973l2.63944,-3.74629l-2.12856,-2.63945l-2.89486,1.10686z" stroke="none" stroke-width="0"/></g><g fill="#ffffff" stroke-miterlimit="4"><path d="M41.02244,321.29262l9.48653,2.80075l4.51412,8.4255l-3.09342,9.79118l-3.73504,4.83775l-7.30966,1.52768l-8.20333,-4.83775l-0.89364,-16.6889zM42.62643,328.90798l-3.98709,4.07387l0.50412,7.75418l2.56641,1.78236l3.20801,-0.99533l2.45183,-8.28659l-1.67275,-2.91654z" stroke="#4336cd" stroke-width="6"/><path d="M41.02244,321.29262l9.48653,2.80075l4.51412,8.4255l-3.09342,9.79118l-3.73504,4.83775l-7.30966,1.52768l-8.20333,-4.83775l-0.89364,-16.6889zM42.62643,328.90798l-3.98709,4.07387l0.50412,7.75418l2.56641,1.78236l3.20801,-0.99533l2.45183,-8.28659l-1.67275,-2.91654z" stroke="none" stroke-width="0"/></g><g fill="#ffffff" stroke-miterlimit="4"><path d="M120.62098,323.20517l2.07051,5.96052l-5.10305,8.78393l-0.46012,10.24796l-0.1673,0.08377l-10.0179,-0.16715l-0.37646,-0.18819l6.08603,-16.85683l-0.71109,-0.27198l-10.4571,0.732l-0.18825,-0.16754l1.61039,-8.07284h0.08366l17.63066,-0.08377z" stroke="#4336cd" stroke-width="6"/><path d="M120.62098,323.20517l2.07051,5.96052l-5.10305,8.78393l-0.46012,10.24796l-0.1673,0.08377l-10.0179,-0.16715l-0.37646,-0.18819l6.08603,-16.85683l-0.71109,-0.27198l-10.45709,0.732l-0.18825,-0.16754l1.61039,-8.07284h0.08366l17.63066,-0.08377z" stroke="none" stroke-width="0"/></g></g></g></svg>