<svg version="1.1" xmlns="http://www.w3.org/2000/svg" xmlns:xlink="http://www.w3.org/1999/xlink" width="49.7613" height="26.93614" viewBox="0,0,49.7613,26.93614"><defs><radialGradient cx="227.78015" cy="179.72871" r="11.1262" gradientUnits="userSpaceOnUse" id="color-1"><stop offset="0" stop-color="#b6becf"/><stop offset="1" stop-color="#999fae"/></radialGradient><linearGradient x1="220.58065" y1="178.62931" x2="230.08065" y2="178.62931" gradientUnits="userSpaceOnUse" id="color-2"><stop offset="0" stop-color="#b1b8c9"/><stop offset="1" stop-color="#c6d0e1"/></linearGradient><radialGradient cx="242.89305" cy="180.26971" r="11.7537" gradientUnits="userSpaceOnUse" id="color-3"><stop offset="0" stop-color="#535879"/><stop offset="1" stop-color="#434561"/></radialGradient><radialGradient cx="235.36855" cy="179.88151" r="11.614" gradientUnits="userSpaceOnUse" id="color-4"><stop offset="0" stop-color="#535879"/><stop offset="1" stop-color="#434561"/></radialGradient><radialGradient cx="250.72985" cy="180.21051" r="12.1585" gradientUnits="userSpaceOnUse" id="color-5"><stop offset="0" stop-color="#a9b1c0"/><stop offset="1" stop-color="#828893"/></radialGradient><linearGradient x1="248.07045" y1="180.18086" x2="264.79455" y2="180.18086" gradientUnits="userSpaceOnUse" id="color-6"><stop offset="0" stop-color="#ff3333"/><stop offset="1" stop-color="#dd2c2c"/></linearGradient><radialGradient cx="225.53065" cy="183.72901" r="2.3404" gradientUnits="userSpaceOnUse" id="color-7"><stop offset="0" stop-color="#d1dbed"/><stop offset="1" stop-color="#a9b1c0"/></radialGradient><radialGradient cx="225.38065" cy="176.32931" r="2.275" gradientUnits="userSpaceOnUse" id="color-8"><stop offset="0" stop-color="#d1dbed"/><stop offset="1" stop-color="#a9b1c0"/></radialGradient><linearGradient x1="228.5522" y1="189.886" x2="235.578" y2="189.886" gradientUnits="userSpaceOnUse" id="color-9"><stop offset="0" stop-color="#4d4e5e"/><stop offset="1" stop-color="#6b6c84"/></linearGradient><linearGradient x1="247.26649" y1="189.86814" x2="254.29229" y2="189.86814" gradientUnits="userSpaceOnUse" id="color-10"><stop offset="0" stop-color="#4d4e5e"/><stop offset="1" stop-color="#6b6c84"/></linearGradient><linearGradient x1="228.5522" y1="167.011" x2="235.578" y2="167.011" gradientUnits="userSpaceOnUse" id="color-11"><stop offset="0" stop-color="#4d4e5e"/><stop offset="1" stop-color="#6b6c84"/></linearGradient><linearGradient x1="247.3022" y1="166.886" x2="254.328" y2="166.886" gradientUnits="userSpaceOnUse" id="color-12"><stop offset="0" stop-color="#4d4e5e"/><stop offset="1" stop-color="#6b6c84"/></linearGradient></defs><g transform="translate(-215.11935,-166.64316)"><g data-paper-data="{&quot;isPaintingLayer&quot;:true}" fill-rule="nonzero" stroke-linejoin="miter" stroke-miterlimit="10" stroke-dasharray="" stroke-dashoffset="0" style="mix-blend-mode: normal"><path d="M228.08065,178.82931h25v2.1h-25z" fill="#ffffff" stroke="none" stroke-width="0.88388" stroke-linecap="butt"/><path d="M238.68065,170.92931h4.65v18.6h-4.65z" fill="#ffffff" stroke="none" stroke-width="1" stroke-linecap="butt"/><path d="M249.38065,170.67931h2.3v18.75h-2.3z" fill="#25262e" stroke="none" stroke-width="1" stroke-linecap="butt"/><path d="M230.73065,170.67931h2.3v18.75h-2.3z" fill="#25262e" stroke="none" stroke-width="1" stroke-linecap="butt"/><path d="M256.13065,166.72931l3.6,0.2l3.1,1.3l1.95,2.45l0.05,2.8l-4.7,-1l-1.85,-1.05l-2.15,-0.15z" fill="#ffffff" stroke="none" stroke-width="1" stroke-linecap="round"/><path d="M256.18065,188.57931l2.15,-0.15l1.85,-1.05l4.7,-1l-0.05,2.8l-1.95,2.45l-3.1,1.3l-3.6,0.2z" fill="#ffffff" stroke="none" stroke-width="1" stroke-linecap="round"/><path d="M220.88065,173.57931h8.95v12.9h-8.95z" fill="url(#color-1)" stroke="none" stroke-width="1" stroke-linecap="butt"/><path d="M220.58065,178.62931h9.5v2.6h-9.5z" fill="url(#color-2)" stroke="none" stroke-width="1" stroke-linecap="butt"/><g stroke="none" stroke-width="1.59028" stroke-linecap="round"><path d="M239.50405,172.63041c2.0833,-0.2481 4.7232,-0.5709 6.2419,0.8747c1.6157,1.5457 1.5203,4.2556 1.5108,6.4406c0.0095,2.43 0.186,5.4102 -1.5108,7.0768c-1.4933,1.4614 -4.1634,0.8428 -6.2419,0.6361c-1.5887,-0.159 -3.7578,-0.2417 -4.3335,-1.6698c-0.8174,-1.84 0.9749,-3.8962 1.1132,-5.884c0.1257,-1.8034 -1.234,-3.7452 -0.4771,-5.407c0.5216,-1.3056 2.2296,-1.8924 3.6974,-2.0674z" fill="url(#color-3)"/><path d="M232.81885,172.73701c1.18,-0.089 2.414,0.7475 2.942,1.7493c1.0194,1.7223 1.4201,3.8278 1.3517,5.8046c-0.0731,2.1071 -0.5247,4.3271 -1.5902,6.1226c-0.5201,0.8174 -1.8273,1.1768 -2.7035,0.9541c-1.0019,-0.256 -1.673,-0.819 -2.2487,-2.1437c-0.5757,-1.3247 -0.9319,-3.1535 -0.9319,-5.1716c0,-2.018 0.3562,-3.8469 0.9319,-5.1716c0.5757,-1.3247 1.2166,-2.0658 2.2487,-2.1437z" fill="url(#color-4)"/></g><path d="M241.28065,176.52931h12.8v7.25h-12.8z" fill="#3e77d5" stroke="none" stroke-width="1" stroke-linecap="butt"/><path d="M249.03065,172.99761h8.85v14.3h-8.85z" fill="url(#color-5)" stroke="none" stroke-width="1.14677" stroke-linecap="butt"/><path d="M248.25565,176.77931c0.683,0 1.302,0.387 1.75,1.011c0.448,0.625 0.725,1.487 0.725,2.439c0,0.952 -0.277,1.814 -0.725,2.439c-0.448,0.624 -1.067,1.011 -1.75,1.011c-0.683,0 -1.302,-0.387 -1.75,-1.011c-0.448,-0.625 -0.725,-1.487 -0.725,-2.439c0,-0.952 0.277,-1.814 0.725,-2.439c0.448,-0.624 1.067,-1.011 1.75,-1.011z" fill="none" stroke="#181a22" stroke-width="1" stroke-linecap="butt"/><path d="M248.07045,175.93901l16.7241,-4.8092v18.1021l-16.7241,-4.9173z" fill="url(#color-6)" stroke="none" stroke-width="0.54036" stroke-linecap="butt"/><path d="M256.98065,175.77931c0.786,0 1.499,0.493 2.015,1.29c0.516,0.796 0.835,1.896 0.835,3.11c0,1.214 -0.319,2.314 -0.835,3.11c-0.516,0.797 -1.229,1.29 -2.015,1.29c-0.786,0 -1.499,-0.493 -2.015,-1.29c-0.516,-0.796 -0.835,-1.896 -0.835,-3.11c0,-1.214 0.319,-2.314 0.835,-3.11c0.516,-0.797 1.229,-1.29 2.015,-1.29z" fill="#ffffff" stroke="none" stroke-width="1" stroke-linecap="butt"/><path d="M257.98465,176.88751l0.5552,1.1175l-2.2019,0.9792l0.6994,1.2098l-0.7772,0.9762l2.1526,1.3369l-0.9226,1.0763l-2.5494,-2.4954l0.8933,-0.9273l-0.8582,-1.2556z" fill="#ff3333" stroke="none" stroke-width="0.12106" stroke-linecap="round"/><path d="M238.03065,189.32931h6.3v3.75h-6.3z" fill="#ff4033" stroke="#ffffff" stroke-width="1" stroke-linecap="round"/><path d="M237.98065,167.42931h6.3v3.75h-6.3z" fill="#ff4033" stroke="#ffffff" stroke-width="1" stroke-linecap="round"/><g stroke="none"><path d="M217.59935,167.59291l9.0182,3.3334l1.7535,1.2727l0.6889,1.3939h-11.4606z" fill="#4e4f5f" stroke-width="1.23249" stroke-linecap="round"/><path d="M215.88375,172.75241c-0.3806,-0.5547 -0.6144,-1.3222 -0.6144,-2.169c0,-0.8468 0.2338,-1.6144 0.6144,-2.1691c0.3806,-0.5562 0.9051,-0.8996 1.4836,-0.8996c0.5784,0 1.1029,0.3434 1.4835,0.8996c0.3807,0.5547 0.6144,1.3223 0.6144,2.1691c0,0.8468 -0.2337,1.6143 -0.6144,2.169c-0.3806,0.5563 -0.9051,0.8996 -1.4835,0.8996c-0.5785,0 -1.103,-0.3433 -1.4836,-0.8996z" fill="#ffda3b" stroke-width="2.38714" stroke-linecap="butt"/><path d="M216.56645,171.69111c-0.1904,-0.3136 -0.3086,-0.7487 -0.3086,-1.2287c0,-0.48 0.1182,-0.9151 0.3086,-1.2288c0.1904,-0.315 0.4529,-0.51 0.7435,-0.51c0.2906,0 0.5531,0.195 0.7435,0.51c0.1904,0.3137 0.3086,0.7488 0.3086,1.2288c0,0.48 -0.1182,0.9151 -0.3086,1.2287c-0.1904,0.3151 -0.4529,0.5101 -0.7435,0.5101c-0.2906,0 -0.5531,-0.195 -0.7435,-0.5101z" fill="#30323a" stroke-width="1.19664" stroke-linecap="butt"/></g><g stroke="none"><path d="M217.44935,186.41571h11.4606l-0.6889,1.3939l-1.7535,1.2727l-9.0182,3.3334z" fill="#4e4f5f" stroke-width="1.23249" stroke-linecap="round"/><path d="M217.21735,186.30661c0.5784,0 1.1029,0.3433 1.4835,0.8996c0.3807,0.5547 0.6144,1.3222 0.6144,2.169c0,0.8468 -0.2337,1.6144 -0.6144,2.1691c-0.3806,0.5562 -0.9051,0.8996 -1.4835,0.8996c-0.5785,0 -1.103,-0.3434 -1.4836,-0.8996c-0.3806,-0.5547 -0.6144,-1.3223 -0.6144,-2.1691c0,-0.8468 0.2338,-1.6143 0.6144,-2.169c0.3806,-0.5563 0.9051,-0.8996 1.4836,-0.8996z" fill="#ffda3b" stroke-width="2.38714" stroke-linecap="butt"/><path d="M217.15995,187.75741c0.2906,0 0.5531,0.195 0.7435,0.5101c0.1904,0.3136 0.3086,0.7487 0.3086,1.2287c0,0.48 -0.1182,0.9151 -0.3086,1.2288c-0.1904,0.315 -0.4529,0.51 -0.7435,0.51c-0.2906,0 -0.5531,-0.195 -0.7435,-0.51c-0.1904,-0.3137 -0.3086,-0.7488 -0.3086,-1.2288c0,-0.48 0.1182,-0.9151 0.3086,-1.2287c0.1904,-0.3151 0.4529,-0.5101 0.7435,-0.5101z" fill="#30323a" stroke-width="1.19664" stroke-linecap="butt"/></g><path d="M225.43065,182.12931c0.469,0 0.894,0.19 1.202,0.498c0.308,0.308 0.498,0.733 0.498,1.202c0,0.469 -0.19,0.894 -0.498,1.202c-0.308,0.308 -0.733,0.498 -1.202,0.498c-0.469,0 -0.894,-0.19 -1.202,-0.498c-0.308,-0.308 -0.498,-0.733 -0.498,-1.202c0,-0.469 0.19,-0.894 0.498,-1.202c0.308,-0.308 0.733,-0.498 1.202,-0.498z" fill="url(#color-7)" stroke="none" stroke-width="1" stroke-linecap="butt"/><path d="M225.38065,174.57931c0.469,0 0.894,0.19 1.202,0.498c0.308,0.308 0.498,0.733 0.498,1.202c0,0.469 -0.19,0.894 -0.498,1.202c-0.308,0.308 -0.733,0.498 -1.202,0.498c-0.469,0 -0.894,-0.19 -1.202,-0.498c-0.308,-0.308 -0.498,-0.733 -0.498,-1.202c0,-0.469 0.19,-0.894 0.498,-1.202c0.308,-0.308 0.733,-0.498 1.202,-0.498z" fill="url(#color-8)" stroke="none" stroke-width="1" stroke-linecap="butt"/><path d="M263.28065,171.52931l1.55,-0.65v18.35l-1.55,-0.4z" fill="#ffffff" stroke="none" stroke-width="1" stroke-linecap="round"/><path d="M246.49206,182.9679c0,0 -1.181,1.237 -1.95,1.55c-0.944,0.383 -2.011,0.521 -3,0.45c-0.877,-0.048 -2.45,-0.8 -2.45,-0.8" fill="none" stroke="#ff4033" stroke-width="2" stroke-linecap="round"/><path d="M239.13065,175.87931c0,0 1.573,-0.752 2.45,-0.8c0.989,-0.071 2.056,0.067 3,0.45c0.769,0.313 1.95,1.55 1.95,1.55" fill="none" stroke="#ff4033" stroke-width="2" stroke-linecap="round"/><path d="M237.25565,173.57931c1.154,-0.059 2.648,0.337 3.225,1.3c0.75,1.473 0.166,3.274 0.15,4.9c-0.014,1.607 0.543,3.519 -0.3,5c-0.499,0.924 -1.96,1.153 -3.075,1.05c-1.134,-0.105 -2.22,-0.868 -2.916,-1.795c-0.863,-1.146 -1.655,-2.596 -1.709,-4.055c0.054,-1.631 0.802,-3.299 1.709,-4.605c0.66,-0.953 1.778,-1.737 2.916,-1.795z" fill="#ff3333" stroke="none" stroke-width="1" stroke-linecap="round"/><path d="M242.68065,176.02931c0,0 0.509,1.514 0.6,2.3c0.077,0.662 -0.001,1.341 -0.1,2c-0.102,0.679 -0.283,1.349 -0.5,2c-0.085,0.255 -0.4,0.7 -0.4,0.7" fill="none" stroke="#5a2c0a" stroke-width="2" stroke-linecap="round"/><path d="M243.73065,178.22931c0.441,0 0.841,0.179 1.131,0.469c0.29,0.29 0.469,0.69 0.469,1.131c0,0.441 -0.179,0.841 -0.469,1.131c-0.29,0.29 -0.69,0.469 -1.131,0.469c-0.441,0 -0.841,-0.179 -1.131,-0.469c-0.29,-0.29 -0.469,-0.69 -0.469,-1.131c0,-0.441 0.179,-0.841 0.469,-1.131c0.29,-0.29 0.69,-0.469 1.131,-0.469z" fill="#ffdebd" stroke="none" stroke-width="1" stroke-linecap="butt"/><path d="M241.13065,174.51661c0.607,0 1.157,0.5412 1.555,1.4146c0.398,0.8733 0.645,2.079 0.645,3.4104c0,1.3315 -0.247,2.5371 -0.645,3.4105c-0.398,0.8734 -0.948,1.4145 -1.555,1.4145c-0.607,0 -1.157,-0.5411 -1.555,-1.4145c-0.398,-0.8734 -0.645,-2.079 -0.645,-3.4105c0,-1.3314 0.247,-2.5371 0.645,-3.4104c0.398,-0.8734 0.948,-1.4146 1.555,-1.4146z" fill="#ff3333" stroke="none" stroke-width="1.11627" stroke-linecap="round"/><path d="M240.98065,178.22931c0.262,0 0.5,0.168 0.672,0.44c0.172,0.271 0.278,0.646 0.278,1.06c0,0.414 -0.106,0.789 -0.278,1.06c-0.172,0.272 -0.41,0.44 -0.672,0.44c-0.262,0 -0.5,-0.168 -0.672,-0.44c-0.172,-0.271 -0.278,-0.646 -0.278,-1.06c0,-0.414 0.106,-0.789 0.278,-1.06c0.172,-0.272 0.41,-0.44 0.672,-0.44z" fill="#ffffff" stroke="none" stroke-width="1" stroke-linecap="butt"/><path d="M241.29265,178.60801l0.1718,0.3459l-0.6815,0.3031l0.2164,0.3745l-0.2405,0.3021l0.6662,0.4138l-0.2855,0.3332l-0.7891,-0.7724l0.2765,-0.287l-0.2656,-0.3887z" fill="#ff0021" stroke="none" stroke-width="0.03747" stroke-linecap="round"/><path d="M247.30075,181.96771c0.319,0.1794 0.5498,0.4442 0.6658,0.7275c0.1161,0.2833 0.1164,0.5847 -0.0257,0.8372c-0.1421,0.2526 -0.3998,0.4089 -0.7021,0.4568c-0.3024,0.048 -0.6485,-0.0118 -0.9675,-0.1912c-0.319,-0.1794 -0.5499,-0.4442 -0.6659,-0.7275c-0.116,-0.2833 -0.1163,-0.5847 0.0258,-0.8373c0.1421,-0.2525 0.3998,-0.4088 0.7021,-0.4567c0.3024,-0.048 0.6485,0.0118 0.9675,0.1912z" fill="#ffffff" stroke="none" stroke-width="1.0253" stroke-linecap="butt"/><path d="M246.23325,178.48211c-0.3023,-0.0479 -0.56,-0.2042 -0.7021,-0.4568c-0.1421,-0.2525 -0.1418,-0.5539 -0.0258,-0.8372c0.116,-0.2833 0.3469,-0.5481 0.6659,-0.7275c0.319,-0.1794 0.6651,-0.2392 0.9675,-0.1912c0.3023,0.0479 0.56,0.2042 0.7021,0.4568c0.1421,0.2525 0.1418,0.5539 0.0257,0.8372c-0.116,0.2833 -0.3468,0.5481 -0.6658,0.7275c-0.319,0.1794 -0.6651,0.2392 -0.9675,0.1912z" fill="#ffffff" stroke="none" stroke-width="1.0253" stroke-linecap="butt"/><g stroke="none" stroke-width="1.06234" stroke-linecap="butt"><path d="M228.61102,189.70952l7.02581,-0.05882c0,0 1.15559,-0.21903 1.20436,1.7053c-0.06837,2.30445 -1.26319,1.98592 -1.26319,1.98592h-6.93086c0,0 -1.45098,0.24862 -1.50071,-1.7332c-0.06157,-2.17974 1.46459,-1.8992 1.46459,-1.8992z" fill="url(#color-9)"/><path d="M247.32531,189.69167l7.0258,-0.05882c0,0 1.15559,-0.21902 1.20436,1.70531c-0.06837,2.30445 -1.26319,1.98592 -1.26319,1.98592h-6.93085c0,0 -1.45099,0.24862 -1.50072,-1.7332c-0.06157,-2.17974 1.46459,-1.8992 1.46459,-1.8992z" fill="url(#color-10)"/><path d="M228.61102,166.83452l7.02581,-0.05882c0,0 1.15559,-0.21903 1.20436,1.7053c-0.06837,2.30445 -1.26319,1.98592 -1.26319,1.98592h-6.93086c0,0 -1.45098,0.24862 -1.50071,-1.7332c-0.06157,-2.17974 1.46459,-1.8992 1.46459,-1.8992z" fill="url(#color-11)"/><path d="M247.36102,166.70952l7.02581,-0.05882c0,0 1.15559,-0.21903 1.20436,1.7053c-0.06837,2.30445 -1.26319,1.98592 -1.26319,1.98592h-6.93086c0,0 -1.45098,0.24862 -1.50071,-1.7332c-0.06157,-2.17974 1.46459,-1.8992 1.46459,-1.8992z" fill="url(#color-12)"/></g></g></g></svg>