<svg version="1.1" xmlns="http://www.w3.org/2000/svg" xmlns:xlink="http://www.w3.org/1999/xlink" width="579.482" height="484.19254" viewBox="0,0,579.482,484.19254"><g transform="translate(-69.00154,39.38846)"><g data-paper-data="{&quot;isPaintingLayer&quot;:true}" fill-rule="nonzero" stroke-linejoin="miter" stroke-miterlimit="10" stroke-dasharray="" stroke-dashoffset="0" style="mix-blend-mode: normal"><path d="M217.2674,359.33602c0,0 -16.74659,-5.12211 -30.00231,-5.23982c-10.52501,-0.09347 -30.5775,6.87019 -43.53581,3.45261c-21.49,-5.6677 -21.96188,-26.21279 -21.96188,-26.21279" fill="none" stroke="#6b7e87" stroke-width="32.12458" stroke-linecap="round"/><path d="M370.59488,354.3117c-3.15861,0.75132 -7.24256,16.92099 -40.28994,28.28835c-18.18062,6.25361 -43.31335,-4.78724 -43.31335,-4.78724" fill="none" stroke="#6b7e87" stroke-width="32.12458" stroke-linecap="round"/><path d="M585.3249,410.20387c0,0 -0.9149,4.21823 -5.75628,7.63148c-5.80869,4.09522 -10.69435,9.2723 -29.11423,10.90644c-52.4373,4.65204 -67.79615,-19.53792 -67.79615,-19.53792" fill="none" stroke="#6b7e87" stroke-width="32.12458" stroke-linecap="round"/><path d="M173.14999,261.52486c0,0 20.38072,-1.11421 34.11606,-4.67125c18.52223,-4.79669 23.60579,-12.20926 27.72553,-19.93694c4.11974,-7.72768 5.5,-38.51071 5.5,-38.51071v-37.66667c0,0 0.26694,-44.64428 48.83333,-43.33333c42.43942,1.14557 41.5,43.33333 41.5,43.33333c0,0 0,28.30135 0,33.93515c0,1.86818 1.06378,23.79668 7.66667,28.73152" fill="none" stroke="#6b7e87" stroke-width="32.12458" stroke-linecap="round"/><path d="M588.99155,267.02837c0,0 1.0516,8.73145 2.11074,14.27156c1.10554,5.78281 0.88926,16.72844 0.88926,16.72844" fill="none" stroke="#6b7e87" stroke-width="34.5" stroke-linecap="round"/><path d="M475.0598,192.86194c0,0 1.99712,11.15721 10.79217,20.61256c5.52793,5.94295 32.28571,14.81682 37.28973,32.1546c5.56553,19.28334 -0.7351,31.88528 -12.60161,47.90274c-11.86651,16.01746 -39.20082,23.37019 -39.20082,23.37019" fill="none" stroke="#ffd899" stroke-width="32.12458" stroke-linecap="round"/><g stroke="none" stroke-width="0" stroke-linecap="butt"><path d="M225.66627,151.0993l2.53755,-8.61104l29.06593,9.112l-2.53755,8.61104z" fill="#61737b"/><path d="M232.55367,131.76181l4.6134,-7.63925l25.78576,16.56609l-4.6134,7.63925z" fill="#61737b"/><path d="M246.33621,114.59572l7.08653,-5.25127l17.72532,25.44677l-7.08653,5.25127z" fill="#61737b"/><path d="M266.27916,103.56257l8.52461,-1.92169l6.48653,30.61075l-8.52461,1.92169z" fill="#61737b"/><path d="M283.26921,100.42369l8.72392,-0.1886l0.63661,31.32646l-8.72393,0.1886z" fill="#61737b"/><path d="M304.35679,101.7773l8.26319,2.89168l-9.76068,29.67199l-8.26318,-2.89169z" fill="#61737b"/><path d="M324.94588,113.49945l6.20472,6.32805l-21.35986,22.28035l-6.20472,-6.32805z" fill="#61737b"/><path d="M337.90361,130.21606l3.46026,8.26211l-27.88815,12.42537l-3.46026,-8.26211z" fill="#61737b"/><path d="M344.01569,148.86804l1.00536,8.94007l-30.17656,3.61009l-1.00536,-8.94007z" fill="#61737b"/><path d="M297.6427,137.93605c0,0 -7.52961,-3.8457 -14.59965,-2.46833c-6.91152,1.3465 -10.71493,4.54764 -10.71493,4.54764l-5.0674,-1.69814c0,0 8.71828,-7.20414 15.06158,-8.1149c7.51898,-1.07958 17.08972,2.81111 17.08972,2.81111z" fill="#e6e6e6"/><path d="M277.44133,137.54252c0,0 -8.05838,2.45381 -12.33933,8.41843c-4.18498,5.83089 -4.87818,14.06793 -4.87818,14.06793l-4.82646,-0.91848c0,0 1.6527,-11.39531 5.70769,-16.50831c4.80656,-6.06064 14.39238,-9.91164 14.39238,-9.91164z" fill="#e6e6e6"/><path d="M273.97947,139.06261l-3.0729,1.48482l-2.15938,-4.75415l3.07289,-1.48482z" fill="#ff65be"/><path d="M269.01545,141.94672l-2.51128,2.35391l-3.42332,-3.88527l2.51128,-2.35392z" fill="#ff65be"/><path d="M265.00648,145.74747l-1.61802,3.07651l-4.4742,-2.50329l1.61802,-3.07651z" fill="#ff65be"/><path d="M262.08778,151.85108l-0.84628,3.3894l-4.92925,-1.3093l0.84628,-3.38941z" fill="#ff65be"/><path d="M310.74554,155.07029c0,0 -1.76264,-8.47336 -7.20515,-13.32739c-5.32047,-4.74519 -13.23129,-6.08125 -13.23129,-6.08125l1.25306,-4.89436c0,0 10.89151,2.56178 15.5278,7.11897c5.49559,5.40184 8.49342,15.55183 8.49342,15.55183z" fill="#e6e6e6"/><path d="M309.53785,151.39499l-1.20299,-3.27268l4.75948,-1.8612l1.20301,3.27268z" fill="#ff65be"/><path d="M307.12513,146.07145l-2.0857,-2.76083l4.0151,-3.22684l2.0857,2.76083z" fill="#ff65be"/><path d="M303.75396,141.66088l-2.85185,-1.89681l2.75855,-4.41217l2.85183,1.8968z" fill="#ff65be"/><path d="M298.13717,138.17738l-3.16341,-1.26651l1.84191,-4.89422l3.16342,1.26652z" fill="#ff65be"/><path d="M279.85165,136.48245l-3.21368,1.12389l-1.63448,-4.97198l3.21367,-1.12389z" fill="#ff65be"/><path d="M285.6609,135.2885l-3.39323,-0.03225l0.0469,-5.24978l3.39324,0.03226z" fill="#ff65be"/><path d="M292.12264,136.05792l-3.33889,-0.62474l0.90857,-5.16568l3.33888,0.62474z" fill="#ff65be"/></g><g data-paper-data="{&quot;index&quot;:null}" stroke="none" stroke-width="0" stroke-linecap="butt"><path d="M345.59657,189.54788l-0.00996,9.00001l-31.33332,-0.03468l0.00995,-9z" fill="#61737b"/><path d="M345.68677,201.99979l2.32152,8.69544l-30.273,8.08231l-2.32152,-8.69543z" fill="#61737b"/><path d="M348.91344,211.64699l4.42541,5.80183c-0.47495,1.10539 -1.09388,2.06562 -2.24229,3.85223l-21.63814,16.50467l-5.45826,-7.15593z" fill="#61737b"/><path d="" fill="#61737b"/><path d="" fill="#61737b"/><path d="" fill="#61737b"/><path d="" fill="#61737b"/><path d="" fill="#61737b"/><path d="" fill="#61737b"/><path d="" fill="#61737b"/><path d="" fill="#61737b"/><path d="" fill="#61737b"/><path d="" fill="#61737b"/><path d="" fill="#e6e6e6"/><path d="M351.56594,214.26025l2.76025,-0.04959c0.00049,0.03086 0.00112,0.06169 0.00188,0.09248c-0.00105,0.00417 -0.0021,0.00833 -0.00315,0.01248c-0.28292,1.11114 -0.51464,1.91328 -0.77645,2.61125c-1.2296,-1.56411 -1.98253,-2.66661 -1.98253,-2.66661z" fill="#e6e6e6"/><path d="M346.74391,208.30886c-2.50797,-6.11107 -0.81246,-17.50775 -0.81246,-17.50775l5.02942,0.57446c0,0 -1.72027,8.08707 0.70641,14.92391c0.69821,1.96711 1.77229,3.75852 2.95557,5.31745c-0.19462,0.77871 -0.29794,1.59357 -0.29794,2.43257c0,0.0848 0.00106,0.16935 0.00315,0.25364c-0.00105,0.00417 -0.0021,0.00833 -0.00315,0.01248c-0.38564,1.51457 -0.67616,2.45502 -1.07739,3.34011c-2.39068,-2.51825 -5.0702,-5.85412 -6.50361,-9.34686z" fill="#e6e6e6"/><path d="M352.29572,217.12179l1.82323,-2.0198c-0.32212,1.18912 -0.59798,1.99011 -0.9782,2.78258z" fill="#ff65be"/><path d="M349.84521,214.00256l-1.79037,-3.00742l4.51112,-2.68555l1.79037,3.00741z" fill="#ff65be"/><path d="M346.36629,207.52229l-0.69826,-3.42964l5.14447,-1.04739l0.69826,3.42964z" fill="#ff65be"/><path d="M345.16797,199.52683l0.15439,-3.4966l5.24489,0.23159l-0.15439,3.49659z" fill="#ff65be"/><path d="" fill="#e6e6e6"/><path d="" fill="#ff65be"/><path d="" fill="#ff65be"/><path d="" fill="#ff65be"/><path d="" fill="#ff65be"/><path d="" fill="#ff65be"/><path d="" fill="#ff65be"/><path d="" fill="#ff65be"/></g><path d="M386.5543,287.29735l-14.32462,-18.02235" fill="none" stroke="#6b7e87" stroke-width="32.12458" stroke-linecap="round"/><path d="M463.22319,287.7976c20.36873,26.89222 13.4371,65.40408 -14.04212,86.21742c-27.47922,20.81334 -64.50038,16.01042 -84.86912,-10.88181c-20.36873,-26.89222 -14.8058,-65.83093 12.67343,-86.64428c27.47922,-20.81334 65.86909,-15.58356 86.23782,11.30866z" fill="#6b7e87" stroke="none" stroke-width="0" stroke-linecap="butt"/><path d="M435.4272,306.72132c9.67029,12.76739 7.15959,30.95671 -5.60779,40.62699c-12.76739,9.67029 -30.95671,7.15959 -40.62699,-5.60779c-9.67029,-12.76739 -7.15959,-30.95671 5.60779,-40.62699c12.76739,-9.67029 30.95671,-7.15959 40.62699,5.60779z" fill="#32d62d" stroke="none" stroke-width="0" stroke-linecap="butt"/><path d="M371.93795,370.6438l-6.85202,-6.23424l23.92624,-22.4419l6.21995,6.5039z" fill="#61737b" stroke="none" stroke-width="0" stroke-linecap="butt"/><path d="M358.65478,354.53851l-3.1128,-8.44456l29.39956,-10.83715l3.1128,8.44456z" fill="#61737b" stroke="none" stroke-width="0" stroke-linecap="butt"/><path d="M352.64201,334.83443l-0.8193,-8.96263l31.20324,-2.85238l0.8193,8.96263z" fill="#61737b" stroke="none" stroke-width="0" stroke-linecap="butt"/><path d="M353.60944,312.56741l2.65592,-8.59919l29.93794,9.2465l-2.65592,8.59919z" fill="#61737b" stroke="none" stroke-width="0" stroke-linecap="butt"/><path d="M363.34488,291.35285l5.84864,-6.84058l23.81535,20.36192l-5.84863,6.84057z" fill="#61737b" stroke="none" stroke-width="0" stroke-linecap="butt"/><path d="M375.41886,278.27013l7.05891,-5.58316l19.43769,24.57549l-7.05891,5.58316z" fill="#61737b" stroke="none" stroke-width="0" stroke-linecap="butt"/><path d="M393.57431,266.21686l8.53991,-2.84079l9.89013,29.73153l-8.53991,2.84078z" fill="#61737b" stroke="none" stroke-width="0" stroke-linecap="butt"/><path d="M417.58019,262.73938l8.92225,1.18043l-4.1096,31.06266l-8.92225,-1.18043z" fill="#61737b" stroke="none" stroke-width="0" stroke-linecap="butt"/><path d="M438.32716,267.99568l7.83351,4.43128l-15.42737,27.27223l-7.83351,-4.43128z" fill="#61737b" stroke="none" stroke-width="0" stroke-linecap="butt"/><path d="M454.61414,279.05778l6.22443,6.50051l-22.63138,21.67022l-6.22443,-6.50051z" fill="#61737b" stroke="none" stroke-width="0" stroke-linecap="butt"/><path d="M468.1675,294.95844l3.1241,8.43601l-29.27014,10.73912l-3.1241,-8.43601z" fill="#61737b" stroke="none" stroke-width="0" stroke-linecap="butt"/><path d="M474.21094,314.63919l0.83984,8.94707l-31.08843,2.76542l-0.83984,-8.94707z" fill="#61737b" stroke="none" stroke-width="0" stroke-linecap="butt"/><path d="M473.30488,336.85982l-2.62436,8.57529l-29.85902,-9.30627l2.62436,-8.57529z" fill="#61737b" stroke="none" stroke-width="0" stroke-linecap="butt"/><path d="M463.65824,358.00713l-5.81068,6.81183l-23.78647,-20.3838l5.81067,-6.81182z" fill="#61737b" stroke="none" stroke-width="0" stroke-linecap="butt"/><path d="M451.65991,371.03253l-7.02007,5.55375l-19.43485,-24.57764l7.02007,-5.55375z" fill="#61737b" stroke="none" stroke-width="0" stroke-linecap="butt"/><path d="M433.59835,383.01467l-8.50311,2.81292l-9.93359,-29.69861l8.50311,-2.81291z" fill="#61737b" stroke="none" stroke-width="0" stroke-linecap="butt"/><path d="M409.68415,386.42275l-8.89462,-1.20135l4.0145,-30.99062l8.89463,1.20135z" fill="#61737b" stroke="none" stroke-width="0" stroke-linecap="butt"/><path d="M388.99487,381.12274l-7.81811,-4.44294l15.3032,-27.17818l7.8181,4.44295z" fill="#61737b" stroke="none" stroke-width="0" stroke-linecap="butt"/><path d="M462.26496,135.97251c0,0 -3.11461,-8.27819 -2.26374,-17.38915c0.4147,-4.44049 1.29049,-11.94845 1.29584,-16.9057c0.01159,-10.7185 -0.95314,-19.233 -1.46197,-23.41692c-1.36297,-11.20709 -6.23889,-24.02486 -7.19009,-26.91419c-2.56502,-7.79146 -11.9612,-28.86346 -11.9612,-28.86346c0,0 -11.6985,-24.51308 20.65923,-41.66402c32.64211,-13.4341 43.67107,18.81963 43.67107,18.81963c0,0 4.5021,7.46467 7.40756,14.98153c2.36936,6.12988 24.60636,7.85263 30.89182,10.48182c3.18843,1.33371 7.61618,11.7603 7.61618,11.7603" fill="none" stroke="#6b7e87" stroke-width="32.12458" stroke-linecap="round"/><path d="M457.39657,105.36655c0,0 -36.67446,1.80387 -45.27136,-31.43806c-7.49354,-32.02004 23.90784,-43.84443 23.90784,-43.84443" fill="none" stroke="#6b7e87" stroke-width="32.12458" stroke-linecap="round"/><g data-paper-data="{&quot;index&quot;:null}" stroke="none" stroke-width="0" stroke-linecap="butt"><path d="" fill="#61737b"/><path d="M434.71134,117.52369l-7.23471,-2.27313l7.91387,-25.18748l7.11668,2.23605c-0.00614,0.15655 -0.01209,0.31307 -0.01786,0.46955z" fill="#61737b"/><path d="M417.71225,109.54137l-5.82371,-4.8572l16.91022,-20.27518l5.82371,4.8572z" fill="#61737b"/><path d="M404.37847,95.08345l-3.41968,-6.76859l23.56474,-11.90553l3.41967,6.76859z" fill="#61737b"/><path d="M398.12676,81.44771l-2.04903,-7.30133l25.41947,-7.13366l2.04903,7.30133z" fill="#61737b"/><path d="M394.65011,63.4177l0.56412,-7.5624l26.32835,1.96398l-0.56413,7.56239z" fill="#61737b"/><path d="M399.74093,43.62338l3.81486,-6.554l22.81763,13.28135l-3.81486,6.554z" fill="#61737b"/><path d="M410.56437,29.19878l5.98896,-4.65192l16.19559,20.85045l-5.98896,4.65192z" fill="#61737b"/><path d="M425.60886,61.45175c0,0 -1.50181,7.14603 1.15779,12.80527c2.59998,5.53236 6.03788,8.05865 6.03788,8.05865l-0.2846,4.62181c0,0 -7.77144,-5.81897 -9.89249,-10.96494c-2.51417,-6.09974 -1.41906,-14.97284 -1.41906,-14.97284z" fill="#e6e6e6"/><path d="M429.67628,78.53377c0,0 3.75253,6.26418 9.54875,8.61028c1.13492,0.45937 2.31816,0.78054 3.48483,1.00043c-0.08418,1.45507 -0.15515,2.90758 -0.21052,4.35704c-1.86986,-0.22226 -3.69743,-0.61691 -5.14637,-1.28665c-5.98875,-2.76815 -11.21299,-10.0234 -11.21299,-10.0234z" fill="#e6e6e6"/><path d="M431.66849,81.12674l1.87894,2.27306l-3.40958,2.81841l-1.87895,-2.27306z" fill="#ff65be"/><path d="M435.0999,84.69646l2.46599,1.61743l-2.42613,3.69899l-2.466,-1.61743z" fill="#ff65be"/><path d="M439.07162,87.26944l2.86147,0.71357l-1.07035,4.29222l-2.86147,-0.71357z" fill="#ff65be"/><path d="" fill="#ff65be"/><path d="M436.74149,46.81709c0,0 -6.53011,3.26789 -9.30796,8.87004c-2.71557,5.47654 -2.08707,12.41477 -2.08707,12.41477l-4.26529,-0.02359c0,0 -0.276,-9.70461 2.43482,-14.56581c3.21326,-5.76219 10.84292,-10.42261 10.84292,-10.42261z" fill="#e6e6e6"/><path d="M434.0053,48.60745l-2.4087,1.7016l-2.55239,-3.61303l2.40868,-1.70161z" fill="#ff65be"/><path d="M430.18623,51.75897l-1.79934,2.33657l-3.50485,-2.69902l1.79934,-2.33657z" fill="#ff65be"/><path d="M427.32018,55.5247l-0.92799,2.79929l-4.19894,-1.39199l0.92798,-2.79928z" fill="#ff65be"/><path d="M425.69839,60.98486l-0.34608,2.92871l-4.39309,-0.51912l0.34608,-2.92873z" fill="#ff65be"/><path d="M428.28784,76.72882l1.61506,2.46756l-3.70133,2.42258l-1.61506,-2.46755z" fill="#ff65be"/><path d="M426.05178,72.09188l0.71082,2.86215l-4.29323,1.06624l-0.71081,-2.86216z" fill="#ff65be"/><path d="M425.27576,66.4924l0.21563,2.94122l-4.41181,0.32344l-0.21563,-2.9412z" fill="#ff65be"/></g><g data-paper-data="{&quot;index&quot;:null}" stroke="none" stroke-width="0" stroke-linecap="butt"><path d="M424.03493,21.71143l-0.53577,-7.24997l25.2406,-1.86529l0.53577,7.24997z" fill="#61737b"/><path d="M423.75567,5.07334l1.36036,-7.14132l24.86236,4.73606l-1.36036,7.14132z" fill="#61737b"/><path d="M429.46693,-11.99985l3.97764,-6.085l21.18485,13.84808l-3.97764,6.085z" fill="#61737b"/><path d="M441.75146,-26.30275l6.06481,-4.00837l13.95508,21.11453l-6.0648,4.00837z" fill="#61737b"/><path d="M454.04026,-33.77092l6.7244,-2.76249l9.61756,23.4109l-6.7244,2.76249z" fill="#61737b"/><path d="M470.82155,-39.08512l7.2634,-0.30334l1.05605,25.2874l-7.2634,0.30333z" fill="#61737b"/><path d="M490.23495,-36.43769l6.66451,2.904l-10.11021,23.20238l-6.66451,-2.904z" fill="#61737b"/><path d="M505.17254,-27.73504l5.09504,5.18552l-18.05326,17.73829l-5.09504,-5.18552z" fill="#61737b"/><path d="M515.354,-15.51811l3.38477,6.43369l-22.39875,11.78401l-3.38477,-6.43369z" fill="#61737b"/><path d="M476.13416,-9.82558c0,0 -6.97117,-0.63579 -12.06415,2.52557c-4.97879,3.09049 -7.00218,6.64473 -7.00218,6.64473l-4.43238,0.24267c0,0 4.67695,-8.04647 9.34108,-10.63798c5.52858,-3.07185 14.09901,-3.01526 14.09901,-3.01526z" fill="#e6e6e6"/><path d="M460.32114,-4.05419c0,0 -5.54753,4.26924 -7.13724,10.04899c-1.55407,5.65017 0.30603,12.06437 0.30603,12.06437l-4.0181,0.75771c0,0 -2.03422,-9.08192 -0.37211,-14.15217c1.97018,-6.00997 8.2978,-11.79069 8.2978,-11.79069z" fill="#e6e6e6"/><path d="M458.07364,-1.8691l-1.95553,2.0417l-3.06255,-2.93328l1.95553,-2.0417z" fill="#ff65be"/><path d="M455.05602,1.79492l-1.266,2.5278l-3.79171,-1.899l1.266,-2.52781z" fill="#ff65be"/><path d="M453.04751,5.86267l-0.36142,2.80392l-4.20588,-0.54213l0.36142,-2.80392z" fill="#ff65be"/><path d="M452.55688,11.33796l0.32942,2.80785l-4.21179,0.49413l-0.32942,-2.80786z" fill="#ff65be"/><path d="M491.30614,-0.85186c0,0 -3.83734,-5.85459 -9.48028,-7.87698c-5.51641,-1.97704 -12.05295,-0.6075 -12.05295,-0.6075l-0.45158,-4.06391c0,0 9.20979,-1.34136 14.13976,0.69954c5.84371,2.41918 11.12919,9.16597 11.12919,9.16597z" fill="#e6e6e6"/><path d="M489.29733,-3.2582l-1.88791,-2.10437l3.15656,-2.83187l1.88792,2.10437z" fill="#ff65be"/><path d="M485.87208,-6.54434l-2.42479,-1.4536l2.1804,-3.63719l2.42479,1.4536z" fill="#ff65be"/><path d="M481.96794,-8.85479l-2.76855,-0.5725l0.85875,-4.15282l2.76854,0.57249z" fill="#ff65be"/><path d="M476.58869,-9.7922l-2.8271,-0.00403l0.00605,-4.24068l2.82711,0.00404z" fill="#ff65be"/><path d="M461.88551,-5.57684l-2.17004,1.81205l-2.71808,-3.25506l2.17003,-1.81205z" fill="#ff65be"/><path d="M466.05215,-8.22127l-2.64626,0.99492l-1.49238,-3.9694l2.64627,-0.99492z" fill="#ff65be"/><path d="M471.29759,-9.58252l-2.77658,0.5322l-0.79829,-4.16486l2.77656,-0.5322z" fill="#ff65be"/></g><path d="M577.40379,211.00382c-1.63521,-5.52794 -1.45254,-19.03981 -9.94321,-27.22542c-12.40281,-11.9572 -24.76595,-1.31126 -35,-11.75c-7.93912,-8.0979 -17.35418,-22.23259 -5.27769,-31.84354c7.93594,-6.31573 23.71058,-13.16974 26.61574,-16.45357c2.89777,-3.27548 17.33837,-8.15372 18.0064,-13.90063c1.36641,-11.75492 -3.3743,-25.55227 -3.3743,-25.55227" fill="none" stroke="#8bcfff" stroke-width="32.12458" stroke-linecap="round"/><g stroke="none" stroke-width="0" stroke-linecap="butt"><path d="M648.48353,354.66673c0,33.73539 -28.77823,60.25 -63.25,60.25c-34.47177,0 -61.08333,-26.18127 -61.08333,-59.91667c0,-33.73539 27.94489,-61.41666 62.41667,-61.41666c34.47177,0 61.91667,27.34794 61.91667,61.08333z" fill="#6b7e87"/><path d="M614.9002,352.96912c0,16.01626 -12.98374,29 -29,29c-16.01626,0 -29,-12.98374 -29,-29c0,-16.01626 12.98374,-29 29,-29c16.01626,0 29,12.98374 29,29z" fill="#32d62d"/><path d="M525.69458,365.59152l-1.69799,-9.10674l32.62279,-3.44342l1.03132,8.94007z" fill="#61737b"/><g><g><path d="M524.82994,344.73306l2.61728,-8.61104l29.97915,9.112l-2.61728,8.61104z" fill="#61737b"/><path d="M531.93373,325.39554l4.75835,-7.63925l26.59592,16.56609l-4.75835,7.63925z" fill="#61737b"/><path d="M546.1493,308.22947l7.30918,-5.25127l18.28223,25.44677l-7.30918,5.25127z" fill="#61737b"/><path d="M566.71885,297.19624l8.79245,-1.92169l6.69033,30.61075l-8.79244,1.92169z" fill="#61737b"/><path d="M584.24269,294.05742l8.99802,-0.1886l0.65661,31.32646l-8.99802,0.1886z" fill="#61737b"/><path d="M605.99287,295.41103l8.52281,2.89168l-10.06735,29.67199l-8.5228,-2.89169z" fill="#61737b"/><path d="M627.22882,307.1332l6.39967,6.32805l-22.03097,22.28035l-6.39967,-6.32805z" fill="#61737b"/><path d="M640.59367,323.84979l3.56898,8.26211l-28.76436,12.42537l-3.56898,-8.26211z" fill="#61737b"/><path d="M646.89775,342.50179l1.03694,8.94007l-31.12467,3.61009l-1.03694,-8.94007z" fill="#61737b"/><path d="M599.06778,331.5698c0,0 -7.76618,-3.8457 -15.05835,-2.46833c-7.12868,1.3465 -11.05159,4.54764 -11.05159,4.54764l-5.22661,-1.69814c0,0 8.99219,-7.20414 15.53479,-8.1149c7.75522,-1.07958 17.62667,2.81111 17.62667,2.81111z" fill="#e6e6e6"/><path d="M578.23173,331.17625c0,0 -8.31156,2.45381 -12.72702,8.41843c-2.67714,3.6164 -5.16124,10.46636 -5.90238,15.14778c-0.45383,2.86665 0.37092,4.92015 0.37092,4.92015l-4.4781,1.08152c0,0 -1.26027,-4.44598 -0.78893,-7.23787c0.95799,-5.67451 3.87275,-13.84351 6.67595,-17.27044c4.95757,-6.06064 14.84457,-9.91164 14.84457,-9.91164z" fill="#e6e6e6"/><path d="M574.66113,332.69633l-3.16944,1.48482l-2.22723,-4.75415l3.16944,-1.48482z" fill="#ff65be"/><path d="M569.54114,335.58052l-2.59018,2.35391l-3.53088,-3.88527l2.59018,-2.35392z" fill="#ff65be"/><path d="M565.40617,339.38124l-1.66886,3.07651l-4.61477,-2.50329l1.66886,-3.07651z" fill="#ff65be"/><path d="M562.39577,345.48485l-0.87287,3.3894l-5.08412,-1.3093l0.87287,-3.38941z" fill="#ff65be"/><path d="M612.58233,348.7041c0,0 -1.81802,-8.47336 -7.43153,-13.32739c-5.48764,-4.74519 -13.647,-6.08125 -13.647,-6.08125l1.29243,-4.89436c0,0 11.23371,2.56178 16.01566,7.11897c5.66825,5.40184 8.76028,15.55183 8.76028,15.55183z" fill="#e6e6e6"/><path d="M611.33671,345.02875l-1.24079,-3.27268l4.90902,-1.8612l1.24081,3.27268z" fill="#ff65be"/><path d="M608.84813,339.70523l-2.15123,-2.76083l4.14125,-3.22684l2.15123,2.76083z" fill="#ff65be"/><path d="M605.3711,335.29463l-2.94145,-1.89681l2.84522,-4.41217l2.94144,1.8968z" fill="#ff65be"/><path d="M599.57778,331.8112l-3.2628,-1.26651l1.89978,-4.89422l3.26281,1.26652z" fill="#ff65be"/><path d="M580.71777,330.11618l-3.31465,1.12389l-1.68583,-4.97198l3.31464,-1.12389z" fill="#ff65be"/><path d="M586.70953,328.92224l-3.49984,-0.03225l0.04838,-5.24978l3.49985,0.03226z" fill="#ff65be"/><path d="M593.37429,329.69165l-3.4438,-0.62474l0.93712,-5.16568l3.44378,0.62474z" fill="#ff65be"/></g><path d="M560.39086,351.4179l-0.39778,3.47731l-5.21599,-0.59665l0.39777,-3.47732z" fill="#ff65be"/><path d="M559.67058,356.15866l0.90014,3.38226l-5.07341,1.35022l-0.90014,-3.38227z" fill="#ff65be"/></g><path d="M648.10137,363.36025l-2.60311,8.61104l-29.8168,-9.112l2.60311,-8.61104z" fill="#61737b"/><path d="M641.03604,382.69773l-4.73258,7.63925l-26.45189,-16.56609l4.73258,-7.63925z" fill="#61737b"/><path d="M626.89748,399.86383l-7.26959,5.25127l-18.18323,-25.44677l7.2696,-5.25127z" fill="#61737b"/><path d="M606.43933,410.897l-8.74483,1.92169l-6.6541,-30.61075l8.74482,-1.92169z" fill="#61737b"/><path d="M589.01037,414.03587l-8.9493,0.1886l-0.65305,-31.32646l8.9493,-0.1886z" fill="#61737b"/><path d="M567.378,412.68224l-8.47665,-2.89168l10.01283,-29.67199l8.47664,2.89169z" fill="#61737b"/><path d="M546.25699,400.96011l-6.36501,-6.32805l21.91166,-22.28035l6.36502,6.32805z" fill="#61737b"/><path d="M532.96459,384.24344l-3.54966,-8.26211l28.60859,-12.42537l3.54965,8.26211z" fill="#61737b"/><path d="M574.26555,376.52347c0,0 7.72412,3.8457 14.9768,2.46833c7.09008,-1.3465 10.99174,-4.54764 10.99174,-4.54764l5.19831,1.69814c0,0 -8.94349,7.20414 -15.45066,8.1149c-7.71322,1.07958 -17.53121,-2.81111 -17.53121,-2.81111z" fill="#e6e6e6"/><path d="M594.9888,376.91702c0,0 8.26655,-2.45381 12.6581,-8.41843c2.66264,-3.6164 5.13329,-10.46636 5.87041,-15.14777c0.45137,-2.86665 -0.36892,-4.92016 -0.36892,-4.92016l4.45385,-1.08152c0,0 1.25344,4.44598 0.78466,7.23787c-0.95281,5.67451 -3.85177,13.84351 -6.63979,17.27044c-4.93072,6.06064 -14.76418,9.91164 -14.76418,9.91164z" fill="#e6e6e6"/><path d="M598.54006,375.39694l3.15227,-1.48482l2.21517,4.75415l-3.15227,1.48482z" fill="#ff65be"/><path d="M603.63235,372.51279l2.57615,-2.35391l3.51176,3.88527l-2.57615,2.35392z" fill="#ff65be"/><path d="M607.74485,368.71207l1.65982,-3.07651l4.58978,2.50329l-1.65982,3.07651z" fill="#ff65be"/><path d="M610.73898,362.60844l0.86814,-3.3894l5.05659,1.3093l-0.86815,3.38941z" fill="#ff65be"/><path d="M560.82422,359.38921c0,0 1.80818,8.47336 7.39128,13.32739c5.45792,4.74519 13.5731,6.08125 13.5731,6.08125l-1.28543,4.89436c0,0 -11.17287,-2.56178 -15.92893,-7.11897c-5.63756,-5.40184 -8.71284,-15.55183 -8.71284,-15.55183z" fill="#e6e6e6"/><path d="M562.0631,363.06456l1.23407,3.27268l-4.88243,1.8612l-1.23409,-3.27268z" fill="#ff65be"/><path d="M564.53815,368.38808l2.13958,2.76083l-4.11882,3.22684l-2.13958,-2.76083z" fill="#ff65be"/><path d="M567.99637,372.79866l2.92552,1.89681l-2.82981,4.41217l-2.92551,-1.8968z" fill="#ff65be"/><path d="M573.75834,376.28211l3.24513,1.26651l-1.88949,4.89422l-3.24514,-1.26652z" fill="#ff65be"/><path d="M592.51621,377.97705l3.2967,-1.12389l1.6767,4.97198l-3.29669,1.12389z" fill="#ff65be"/><path d="M586.55689,379.17099l3.48089,0.03225l-0.04812,5.24978l-3.4809,-0.03226z" fill="#ff65be"/><path d="M579.92819,378.40162l3.42515,0.62474l-0.93205,5.16568l-3.42513,-0.62474z" fill="#ff65be"/><path d="M612.73304,356.84205l0.39562,-3.47731l5.18775,0.59665l-0.39562,3.47732z" fill="#ff65be"/><path d="M613.4494,352.10132l-0.89526,-3.38226l5.04593,-1.35022l0.89526,3.38227z" fill="#ff65be"/></g><g stroke="none" stroke-width="0" stroke-linecap="butt"><path d="M153.82077,336.95117c-31.24815,12.71336 -66.65313,-3.95094 -79.644,-35.88118c-12.99087,-31.93024 1.2314,-66.44634 32.47956,-79.1597c31.24815,-12.71336 67.41972,2.73937 80.4106,34.66962c12.99087,31.93024 -1.99801,67.6579 -33.24616,80.37127z" fill="#6b7e87"/><path d="M142.73715,305.20408c-14.83542,6.03581 -31.75488,-1.09767 -37.7907,-15.93309c-6.03581,-14.83542 1.09767,-31.75488 15.93309,-37.7907c14.83542,-6.03581 31.75488,1.09767 37.7907,15.93309c6.03581,14.83542 -1.09767,31.75488 -15.93309,37.7907z" fill="#4dda64"/><path d="M97.42776,227.33225l7.79542,-5.00472l15.48362,28.91991l-7.89228,4.3244z" fill="#61737b"/><g><g><path d="M116.42252,218.67071l8.9625,-0.8208l2.85761,31.20276l-8.9625,0.8208z" fill="#61737b"/><path d="M137.01138,217.96333l8.86923,1.52863l-5.32189,30.87808l-8.86923,-1.52863z" fill="#61737b"/><path d="M158.26907,224.66166l7.61861,4.79132l-16.68088,26.52407l-7.61861,-4.79132z" fill="#61737b"/><path d="M176.24055,239.55674l5.09349,7.42l-25.8326,17.73289l-5.09349,-7.41999z" fill="#61737b"/><path d="M185.75195,254.60571l3.56565,8.26354l-28.76938,12.41374l-3.56565,-8.26354z" fill="#61737b"/><path d="M192.69479,275.26239l0.53338,8.98419l-31.27827,1.85694l-0.53337,-8.98418z" fill="#61737b"/><path d="M189.83979,299.35024l-3.44975,8.3126l-28.94016,-12.0102l3.44975,-8.3126z" fill="#61737b"/><path d="M179.39221,318.02941l-6.30797,6.41947l-22.34928,-21.96106l6.30797,-6.41947z" fill="#61737b"/><path d="M164.49119,330.89788l-7.89016,4.3296l-15.07342,-27.46943l7.89016,-4.3296z" fill="#61737b"/><path d="M156.45484,282.8003c0,0 0.63544,-8.64287 -3.38847,-14.87833c-3.93371,-6.09566 -8.3772,-8.52298 -8.3772,-8.52298l-0.39674,-5.48122c0,0 10.06175,5.6143 13.37097,11.3313c3.92258,6.7766 4.03885,17.38647 4.03885,17.38647z" fill="#e6e6e6"/><path d="M148.96718,263.35213c0,0 -5.40515,-6.77403 -12.594,-8.61615c-4.35867,-1.1169 -11.63974,-0.83641 -16.25531,0.24131c-2.82633,0.65994 -4.41761,2.19776 -4.41761,2.19776l-2.68938,-3.74036c0,0 3.64325,-2.84284 6.40692,-3.45839c5.61716,-1.25111 14.28232,-1.62978 18.51299,-0.32471c7.48209,2.30807 14.77513,10.01486 14.77513,10.01486z" fill="#e6e6e6"/><path d="M146.21356,260.61762l-2.56977,-2.3762l3.56429,-3.85465l2.56977,2.3762z" fill="#ff65be"/><path d="M141.61252,256.962l-3.15648,-1.51213l2.26819,-4.73474l3.15649,1.51212z" fill="#ff65be"/><path d="M136.53379,254.56426l-3.4786,-0.38642l0.57963,-5.21791l3.4786,0.38642z" fill="#ff65be"/><path d="M129.74569,254.07599l-3.46845,0.4688l-0.70321,-5.2027l3.46846,-0.4688z" fill="#ff65be"/><path d="M145.67684,301.77558c0,0 7.16351,-4.87721 9.54418,-11.90612c2.32729,-6.8713 0.48995,-14.93259 0.48995,-14.93259l5.02057,-0.64732c0,0 1.86058,11.37089 -0.55852,17.51768c-0.56563,1.43722 -1.34016,2.85123 -2.21918,4.19525c-3.57718,5.46949 -8.88468,9.77995 -8.88468,9.77995z" fill="#e6e6e6"/><path d="M148.6118,299.23672l2.56379,-2.38264l3.57397,3.84569l-2.56379,2.38265z" fill="#ff65be"/><path d="M152.605,294.92544l1.74658,-3.03306l4.54958,2.61987l-1.74658,3.03306z" fill="#ff65be"/><path d="M155.38007,290.0426l0.64846,-3.43941l5.15911,0.9727l-0.64846,3.43939z" fill="#ff65be"/><path d="M156.42344,283.36366l-0.05647,-3.49953l5.24932,-0.0847l0.05647,3.49954z" fill="#ff65be"/><path d="M150.88592,265.25541l-2.29017,-2.64672l3.97009,-3.43525l2.29017,2.64671z" fill="#ff65be"/><path d="M154.24988,270.35546l-1.28906,-3.25396l4.88096,-1.93359l1.28906,3.25397z" fill="#ff65be"/><path d="M156.04886,276.81876l-0.71914,-3.42533l5.13798,-1.07869l0.71913,3.42531z" fill="#ff65be"/></g><path d="M123.63186,254.12899l-3.37084,0.94199l-1.41301,-5.05628l3.37085,-0.942z" fill="#ff65be"/><path d="M118.96919,255.24843l-2.79367,2.1084l-3.16261,-4.19052l2.79368,-2.1084z" fill="#ff65be"/></g><path d="M145.62416,339.87337l-8.95716,0.83393l-2.79643,-31.05238l8.95716,-0.83393z" fill="#61737b"/><path d="M125.0498,340.61639l-8.85952,-1.50476l5.37617,-30.74467l8.85952,1.50476z" fill="#61737b"/><path d="M103.82112,333.98933l-7.60369,-4.75465l16.71819,-26.43237l7.60369,4.75466z" fill="#61737b"/><path d="M85.89164,319.19741l-5.07554,-7.37589l25.84625,-17.69933l5.07554,7.37588z" fill="#61737b"/><path d="M76.41599,304.23636l-3.54729,-8.21841l28.77072,-12.41045l3.54729,8.21841z" fill="#61737b"/><path d="M69.51753,283.68881l-0.51599,-8.94143l31.25773,-1.90744l0.51598,8.94142z" fill="#61737b"/><path d="M72.41588,259.70745l3.46281,-8.28049l28.89519,11.89969l-3.4628,8.2805z" fill="#61737b"/><path d="M82.89074,241.0953l6.31525,-6.40157l22.29057,21.81677l-6.31526,6.40156z" fill="#61737b"/><path d="M105.37442,276.53612c0,0 -0.65129,8.60391 3.35774,14.8028c3.91916,6.05991 8.35465,8.46754 8.35465,8.46754l0.38607,5.455c0,0 -10.0434,-5.56919 -13.33927,-11.25337c-3.90675,-6.7377 -4.00288,-17.29805 -4.00288,-17.29805z" fill="#e6e6e6"/><path d="M112.91379,296.11136c0,0 5.38819,6.73234 12.56803,8.55231c4.3532,1.10347 11.62921,0.81052 16.24325,-0.27092c2.8254,-0.66222 4.41838,-2.19591 4.41838,-2.19591l2.68024,3.7179c0,0 -3.64582,2.83652 -6.40853,3.45444c-5.61521,1.25591 -14.27442,1.64921 -18.49937,0.35821c-7.47197,-2.2832 -14.74484,-9.94039 -14.74484,-9.94039z" fill="#e6e6e6"/><path d="M115.56591,298.59637l2.5633,2.3603l-3.56884,3.84348l-2.5633,-2.3603z" fill="#ff65be"/><path d="M120.15647,302.22632l3.1512,1.49913l-2.27539,4.71703l-3.15121,-1.49913z" fill="#ff65be"/><path d="M125.32101,304.83484l3.4752,0.37805l-0.58904,5.19476l-3.4752,-0.37805z" fill="#ff65be"/><path d="M132.10294,305.30805l3.46667,-0.47318l0.69283,5.1772l-3.46668,0.47317z" fill="#ff65be"/><path d="M116.41157,257.53445c0,0 -7.16721,4.8681 -9.55935,11.86883c-2.33849,6.84377 -0.5178,14.86414 -0.5178,14.86414l-5.01793,0.65381c0,0 -1.83765,-11.31454 0.5912,-17.43735c2.87903,-7.25763 11.12175,-13.93125 11.12175,-13.93125z" fill="#e6e6e6"/><path d="M113.47407,260.06705l-2.56633,2.37641l-3.56395,-3.82106l2.56632,-2.37643z" fill="#ff65be"/><path d="M109.24422,264.46002l-1.75097,3.02227l-4.54113,-2.5991l1.75097,-3.02227z" fill="#ff65be"/><path d="M106.46208,269.32547l-0.65446,3.42465l-5.1533,-0.95842l0.65446,-3.42464z" fill="#ff65be"/><path d="M105.40687,275.97533l0.04981,3.48316l-5.24544,0.09423l-0.04981,-3.48318z" fill="#ff65be"/><path d="M110.9059,293.98897l2.28341,2.6301l-3.97353,3.4268l-2.2834,-2.63009c0,0 0.72525,-0.62547 1.21098,-1.04436c0.73364,-0.63269 2.76255,-2.38244 2.76255,-2.38244z" fill="#ff65be"/><path d="M107.55418,288.91895l1.28192,3.2364l-4.88086,1.93384l-1.28191,-3.23642z" fill="#ff65be"/><path d="M105.76878,282.48906l0.71211,3.40806l-5.13607,1.08338l-0.7121,-3.40804z" fill="#ff65be"/><path d="M138.19569,304.98204l3.37003,-0.94399l1.40237,5.03012l-3.37004,0.94399z" fill="#ff65be"/><path d="M142.85687,303.85898l2.79551,-2.10388l3.15226,4.16507l-2.79552,2.10388z" fill="#ff65be"/></g><path d="M188.20072,260.17026c6.1698,-0.73134 13.21945,-1.80275 19.06533,-3.31665c18.52223,-4.79669 23.60579,-12.20926 27.72553,-19.93694c4.11974,-7.72768 5.5,-38.51071 5.5,-38.51071v-37.66667c0,0 0.26694,-44.64428 48.83333,-43.33333c42.43942,1.14557 41.5,43.33333 41.5,43.33333c0,0 0,28.30135 0,33.93515c0,1.86818 1.06378,23.79668 7.66667,28.73152" fill="none" stroke="#ffffff" stroke-width="2" stroke-linecap="round"/><g stroke="none" stroke-linecap="butt"><path d="M224.52084,177.0151h31.4358v5.14971h-31.4358z" fill="#ffffff" stroke-width="1"/><g fill="#524b7d" stroke-width="0"><g><path d="M224.58764,179.61723v-2.6003h2.8337v2.6003z"/><path d="M227.44173,182.16301v-2.6003h2.83372v2.6003z"/></g><g><path d="M230.29584,179.61723v-2.6003h2.8337v2.6003z"/><path d="M233.1499,182.16301v-2.6003h2.83371v2.6003z"/></g></g><g fill="#524b7d" stroke-width="0"><g><path d="M236.00403,179.58085v-2.60031h2.83372v2.60031z"/><path d="M238.85809,182.12659v-2.60031h2.8337v2.60031z"/></g><g><path d="M241.71218,179.61723v-2.6003h2.83372v2.6003z"/><path d="M244.56629,182.16301v-2.6003h2.8337v2.6003z"/></g></g><g fill="#524b7d" stroke-width="0"><g><path d="M247.42037,179.61723v-2.6003h2.8337v2.6003z"/><path d="M250.27446,182.16301v-2.6003h2.83371v2.6003z"/></g><g><path d="M253.12857,179.61723v-2.6003h2.8337v2.6003z"/></g></g></g><g stroke="none" stroke-linecap="butt"><path d="M521.57499,238.54731c-9.87092,6.48338 -16.87727,14.77404 -20.49621,17.7464c-2.17753,-4.17252 -5.57344,-7.89855 -9.90934,-9.46852c2.91548,-6.9288 30.04104,-36.721 35.68151,-37.27339c4.87703,7.59231 10.87264,12.60739 19.11491,15.43638c-7.1104,3.65894 -16.40506,8.31392 -24.39087,13.55913z" fill-opacity="0.25" fill="#36245a" stroke-width="0"/><path d="M488.14053,313.14459c0.60242,-0.00735 1.18834,0.0739 1.71855,0.33146c1.93237,0.93867 4.48251,2.11978 4.85811,4.23498c0.34475,1.94148 -1.84853,3.54739 -3.22556,4.95876c-3.44529,3.53123 -10.67146,3.42692 -11.72203,-2.63553c-0.2943,-1.69829 1.0949,-3.26871 1.64236,-4.90307l2.62958,-2.12306c0,0 2.22251,-1.66688 4.09898,0.13647z" fill="#8bcfff" stroke-width="0.5"/><path d="M507.26656,298.98037c-1.1843,2.39738 -3.0569,4.3322 -5.52885,3.86782c-10.00881,-1.88024 -1.61286,-13.90844 0.24404,-18.46629c0,0 1.05435,-2.58795 3.60745,-1.98668c1.04494,-0.65356 2.05365,-1.07699 2.77762,-1.03471c7.74937,0.45264 9.34862,11.47194 4.39463,16.07355c-1.55698,1.44624 -3.59271,1.87691 -5.4949,1.54631z" fill="#8bcfff" stroke-width="0.5"/><path d="M534.95764,258.70534l1.13389,-0.04722c3.20199,4.35571 4.61172,12.11813 -0.07259,16.4932c-1.56635,1.46295 -3.50241,3.58472 -5.60229,3.15555c-2.15389,-0.4402 -3.32718,-3.09648 -4.12744,-5.14407c-0.76702,-1.96253 1.31978,-6.76333 2.8518,-9.98609c-1.50105,-2.57356 1.04774,-4.27276 1.04774,-4.27276l1.52541,-0.06353c0.6926,-0.50107 1.69841,-0.80204 3.0576,-0.21953c0.0639,0.02738 0.12583,0.05554 0.18587,0.08445z" fill="#8bcfff" stroke-width="0.5"/><path d="M487.31767,231.63425c-0.36741,0.14033 -0.80498,0.22389 -1.32612,0.22389c-3.25,0 -3.25,-3.25 -3.25,-3.25c0,-1.61193 -0.13288,-6.16373 0.73664,-7.06046c3.92804,-4.05097 12.66005,-0.06807 13.9803,4.73391c0.50162,1.82447 1.34899,4.1634 0.2078,5.6727c-1.25128,1.6549 -3.86022,1.73674 -5.92896,1.8939c-1.31184,0.09966 -2.51568,-0.77122 -3.77352,-1.15682z" fill="#8bcfff" stroke-width="0.5"/><path d="M487.11203,183.99896c1.8207,0.54406 3.457,1.41531 4.20767,3.00791c2.01452,4.27398 0.07397,7.62058 -3.80041,9.18449c-7.47914,3.01899 -19.60155,-10.1484 -8.41087,-14.71093c1.63641,-0.66717 3.52416,0.26854 5.28625,0.40281c0,0 2.14446,0.26806 2.71736,2.11572z" fill="#8bcfff" stroke-width="0.5"/></g><g stroke="none" stroke-width="0.5" stroke-linecap="butt"><path d="M420.22575,196.45232c0.06736,-0.17522 0.1243,-0.2789 0.1243,-0.2789c0.56373,-0.89622 0.53962,-2.05249 0.68939,-3.10062c0.19706,-1.37907 0.73662,-2.98286 1.18512,-4.6189c-0.27749,-0.2717 -0.5415,-0.55242 -0.74445,-0.8682c-0.95864,-1.49162 -1.54763,-3.40282 -2.14446,-5.0483c-0.40944,-0.73027 -1.47965,-2.48298 -1.96379,-3.79862c-0.50403,0.29874 -1.06516,0.49796 -1.62769,0.48895c-1.51252,-0.02423 -3.45859,0.13168 -4.61334,-0.75103c-0.62365,1.1146 -1.33694,2.26845 -1.78784,2.53228c-0.29357,0.17177 -0.60717,0.26772 -0.93434,0.31419c-0.25925,0.44784 -0.48219,0.82425 -0.64269,1.03615c-2.54712,3.36301 -5.98168,4.55812 -10.15912,3.52157c-1.76754,1.60113 -2.11413,3.56073 -2.36739,5.70395c-0.10651,0.9014 -1.30343,1.94006 -0.71172,2.62835c0.18368,0.21366 0.56798,0.04355 0.83439,0.13529c1.83747,0.63277 4.97162,1.76206 6.59271,2.70678c1.46558,0.85409 2.25573,2.53452 3.41587,3.77204c1.00797,1.07521 3.72833,0.6971 4.92256,0.77736c4.78214,0.32141 6.72707,-1.94904 9.93249,-5.15236zM427.67728,186.84164c0.37726,0.44267 0.71553,1.02295 1.05267,2.14991c0.91063,3.044 -0.19419,6.87076 -0.75137,9.85582c-0.19417,1.04026 -0.11408,2.13469 -0.42562,3.14602c-0.27235,0.88409 -0.81125,1.66642 -1.299,2.45248c-0.94633,1.52508 -2.55889,3.52083 -4.11956,4.36983c-3.46891,1.88707 -8.0612,0.71118 -11.71323,0.82253c-1.05558,0.03218 -2.12558,0.58663 -3.15068,0.33278c-1.3289,-0.32909 -2.60832,-1.04348 -3.58661,-2.00121c-0.83102,-0.81357 -0.79166,-2.25314 -1.57386,-3.11375c-1.84935,0.00048 -2.78797,0.10563 -4.85619,-0.84007c-0.6997,-0.31994 -1.03984,-1.17461 -1.71328,-1.54666c-1.43189,-0.79106 -3.20642,-0.92592 -4.53052,-1.88657c-0.96867,-0.70278 -2.27396,-1.24591 -2.70285,-2.36317c-1.18719,-3.09267 0.18672,-4.47167 1.34144,-6.79743c0.13089,-0.26363 0.33439,-0.5198 0.4711,-0.78724c0.00464,-0.41607 -0.06295,-0.83954 -0.08074,-1.25569c-0.31963,-0.60401 -0.85453,-1.16217 -0.76577,-1.81274c0.15706,-1.15122 1.11555,-2.04028 1.7367,-3.02218c1.26762,-2.0038 3.37141,-4.57984 5.41391,-5.78765c1.12193,-0.66344 5.72998,-2.43287 6.97594,-2.67386c0.79544,-0.15385 1.62289,0.01036 2.42698,0.13674c0.53561,-0.91449 1.13823,-1.77713 1.98831,-2.43028c0.04583,-0.07818 0.091,-0.15669 0.13519,-0.23567c1.66625,-1.82721 3.44296,-4.53551 5.69143,-5.68698c3.69491,-1.89222 6.55606,-0.67855 9.42358,1.7693c1.27541,1.08876 3.40662,2.78126 3.87851,4.48787c0.4657,1.68421 -0.83947,3.52411 -0.4353,5.22415c0.15975,0.67194 0.91921,1.08967 1.09905,1.75652c0.52116,1.93247 0.40785,3.8436 0.06981,5.73724z" fill="#ffe1af"/><path d="M422.28497,177.62997c0.07562,0.03478 0.15245,0.07347 0.2305,0.11632c1.73339,0.95176 1.41596,2.5005 1.16925,3.17913c-0.03614,0.55207 -0.05322,1.10712 -0.16912,1.64677c-0.07969,0.37103 -0.57486,0.67566 -0.46538,1.03902c0.09408,0.31224 0.61282,0.23082 0.89647,0.3917c0.79064,0.44844 1.74366,0.72999 2.32016,1.43273c1.39244,1.69733 1.36302,3.33223 1.59796,5.29584c1.50199,4.21603 0.73922,8.5842 -4.12154,10.22943c-1.67158,0.56578 -3.59922,0.30089 -5.18305,1.07921c-3.72169,1.82889 -7.08394,6.66165 -12.05406,5.40122c-1.29714,-0.32896 -2.53644,-1.0682 -3.45924,-2.03734c-0.44405,-0.46636 0.06975,-1.38017 -0.2981,-1.9087c-0.21043,-0.30235 -0.76201,0.04452 -1.10048,-0.10082c-0.88239,-0.3789 -1.79159,-0.78742 -2.49372,-1.44255c-1.18171,-1.10261 -1.41996,-2.92986 -2.41019,-4.2072c-1.66193,-2.14379 -5.02362,-1.3122 -5.88597,-4.76956c-0.34318,-1.37589 0.54857,-2.78253 0.82286,-4.17379c1.40398,-1.36382 3.09263,-2.40016 4.62691,-3.61554c2.45348,-1.94353 3.90116,-5.80134 6.67424,-7.35663c1.96989,-1.10482 3.78727,-0.75068 5.80582,-0.40606c0.37907,0.06472 0.76614,0.44972 1.11637,0.29092c1.09718,-0.49749 1.19449,-2.12178 2.02845,-2.99116c1.60209,-1.67014 5.96454,-5.47036 8.4831,-4.18828c1.36658,0.69566 1.23052,2.82459 1.60234,4.31229c0.22233,0.88958 0.29224,1.82937 0.26643,2.78307z" fill="#4dda64"/></g><g stroke="none" stroke-width="0.5" stroke-linecap="butt"><path d="M566.54018,136.88467c-0.23348,0.03173 -0.38197,0.03173 -0.38197,0.03173c-1.32668,-0.07882 -2.58433,0.64625 -3.82806,1.11468c-1.63643,0.61633 -3.72702,0.99158 -5.79809,1.48649c-0.1313,0.46947 -0.28068,0.92955 -0.50552,1.34363c-1.06205,1.95593 -2.80909,3.75861 -4.25902,5.4094c-0.55615,0.89168 -1.83808,3.12812 -2.99316,4.45564c0.6332,0.3741 1.19141,0.87115 1.52134,1.49553c0.88712,1.67884 2.23436,3.72588 1.96076,5.52973c1.60316,0.01281 3.30365,0.10055 3.86635,0.43728c0.36635,0.21923 0.66138,0.50632 0.91018,0.83823c0.64937,0.01469 1.19822,0.03259 1.52834,0.08116c5.2391,0.77083 8.62902,3.82782 10.01228,9.05042c2.82956,0.9775 5.19506,0.17497 7.70623,-0.84118c1.05615,-0.42738 2.92208,0.26207 3.32192,-0.80481c0.12411,-0.33119 -0.29522,-0.65125 -0.35523,-0.9998c-0.41386,-2.40402 -1.06479,-6.53475 -1.00469,-8.88915c0.05433,-2.12855 1.42592,-4.01316 2.08666,-6.03728c0.57408,-1.75864 -1.48543,-4.52338 -2.1186,-5.88587c-2.53544,-5.45591 -6.2086,-6.22421 -11.66971,-7.81583zM551.4639,134.49209c0.25914,-0.68254 0.69326,-1.40529 1.72956,-2.45708c2.79912,-2.84096 7.67713,-3.93724 11.29817,-5.12759c1.26189,-0.41482 2.41769,-1.16414 3.71866,-1.43233c1.13729,-0.23445 2.32366,-0.11414 3.48321,-0.05236c2.24974,0.11987 5.41985,0.68843 7.29687,1.8927c4.17204,2.67674 5.6526,8.43998 7.98146,12.391c0.67313,1.142 1.92962,1.98434 2.2696,3.26561c0.44075,1.661 0.42767,3.50031 -0.03509,5.15531c-0.3931,1.40588 -2.00083,2.23227 -2.47518,3.61285c1.1178,2.03452 1.80056,3.00375 2.0095,5.85072c0.07069,0.96316 -0.6642,1.85376 -0.6667,2.81951c-0.00533,2.0534 0.91836,4.08738 0.66131,6.12463c-0.18805,1.49039 0.00293,3.25471 -0.96726,4.40159c-2.68559,3.17466 -5.03292,2.49607 -8.28954,2.63064c-0.36915,0.01525 -0.77394,-0.05389 -1.1508,-0.04273c-0.4606,0.24626 -0.88571,0.57646 -1.33284,0.84745c-0.47149,0.71659 -0.76247,1.64234 -1.5319,1.93772c-1.36155,0.52269 -2.91884,0.0052 -4.37448,-0.08505c-2.97058,-0.18417 -7.07595,-0.94264 -9.63885,-2.46029c-1.40778,-0.83363 -6.13858,-4.83482 -7.15647,-6.06014c-0.64984,-0.78226 -0.96906,-1.7919 -1.31579,-2.75298c-1.32978,-0.03684 -2.64301,-0.17874 -3.87523,-0.71948c-0.11371,-0.00319 -0.22737,-0.00546 -0.34098,-0.00636c-3.01711,-0.72946 -7.07039,-1.04816 -9.69574,-2.82647c-4.31424,-2.92229 -4.7074,-6.80361 -3.74644,-11.43754c0.42741,-2.06108 1.00211,-5.42853 2.59478,-6.97878c1.57177,-1.52991 4.38469,-1.20541 6.01104,-2.67717c0.64282,-0.58172 0.64361,-1.66971 1.26869,-2.27045c1.81142,-1.74091 3.98267,-2.77083 6.27044,-3.54292z" fill="#ffe1af"/><path d="M544.58615,145.99033c-0.00742,-0.10421 -0.01126,-0.21213 -0.01126,-0.32389c0,-2.48222 1.89583,-3.06862 2.79156,-3.20715c0.62928,-0.29377 1.25031,-0.6103 1.91409,-0.8088c0.45638,-0.13647 1.09072,0.22432 1.42437,-0.11566c0.28671,-0.29216 -0.11626,-0.81372 -0.11061,-1.22302c0.01576,-1.14085 -0.25022,-2.35954 0.17471,-3.41842c1.02632,-2.5575 2.84296,-3.51285 4.86154,-4.95765c3.73143,-4.1997 8.99849,-5.99943 13.74531,-1.64514c1.63239,1.49741 2.50551,3.77839 4.31874,5.05085c4.26073,2.99002 11.60943,3.76979 13.22526,9.99983c0.42171,1.62597 0.35704,3.43616 -0.15179,5.037c-0.24486,0.77033 -1.56072,0.75707 -1.92003,1.48112c-0.20554,0.41419 0.50935,0.81153 0.55392,1.27176c0.11618,1.19979 0.21599,2.44698 -0.08066,3.61531c-0.49927,1.96635 -2.36583,3.33241 -3.17304,5.19365c-1.35474,3.12375 1.59118,6.32019 -1.69192,9.35775c-1.30655,1.20883 -3.393,1.07745 -5.08949,1.61617c-2.3488,-0.72083 -4.50926,-1.95274 -6.77345,-2.90663c-3.62069,-1.52536 -8.74,-0.78757 -12.12658,-2.89914c-2.40571,-1.49999 -3.114,-3.71356 -3.95432,-6.14275c-0.15781,-0.45618 0.03197,-1.11467 -0.35435,-1.40408c-1.21023,-0.90666 -3.05621,-0.03243 -4.5166,-0.4248c-2.80552,-0.75376 -9.6224,-3.25783 -9.73331,-6.80353c-0.06018,-1.9239 2.36446,-3.06038 3.77672,-4.36827c0.84447,-0.78206 1.83628,-1.42674 2.90122,-1.97451z" fill="#4dda64"/></g><g stroke="none" stroke-width="0" stroke-linecap="butt"><path d="M410.23615,299.2704c0,0 -8.51278,1.62345 -13.49411,7.12429c-4.86965,5.37751 -6.06402,10.29788 -6.06402,10.29788l-5.1917,1.80204c0,0 2.81843,-11.17209 7.48397,-15.84839c5.53026,-5.54303 15.74842,-8.40174 15.74842,-8.40174z" fill="#e6e6e6"/><path d="M393.38902,311.53711c0,0 -5.14401,6.97441 -5.06249,14.39508c0.04942,4.49922 2.20508,11.45952 4.44083,15.63881c1.36905,2.55917 3.26636,3.69815 3.26636,3.69815l-2.91672,3.56592c0,0 -3.68902,-2.78319 -4.99897,-5.29334c-2.66249,-5.10186 -5.27126,-13.37366 -5.10579,-17.79796c0.29264,-7.82453 5.84893,-16.86392 5.84893,-16.86392z" fill="#e6e6e6"/><path d="M391.46051,314.90468l-1.63002,3.09727l-4.6459,-2.44502l1.63002,-3.09727z" fill="#ff65be"/><path d="M389.12048,320.29517l-0.64352,3.44032l-5.16049,-0.96528l0.64352,-3.44033z" fill="#ff65be"/><path d="M388.11912,325.82151l0.5272,3.46007l-5.19011,0.7908l-0.5272,-3.46007z" fill="#ff65be"/><path d="M389.4046,332.50464l1.35064,3.22889l-4.84334,2.02598l-1.35065,-3.22889z" fill="#ff65be"/><path d="M431.35459,304.76928c0,0 -6.56528,-5.65687 -13.97086,-6.13694c-7.23953,-0.46931 -14.55046,3.3921 -14.55046,3.3921l-1.92485,-4.68189c0,0 10.50172,-4.74056 17.06519,-3.99503c1.53465,0.17432 3.10096,0.55644 4.6267,1.05759c6.20904,2.03946 11.74644,6.05029 11.74644,6.05029z" fill="#e6e6e6"/><path d="M428.14254,302.59155l-2.96507,-1.85966l2.78948,-4.44762l2.96509,1.85965z" fill="#ff65be"/><path d="M422.94455,299.85042l-3.38179,-0.90193l1.3529,-5.07268l3.38179,0.90193z" fill="#ff65be"/><path d="M417.5098,298.4339l-3.49004,0.26394l-0.39591,-5.23505l3.49002,-0.26394z" fill="#ff65be"/><path d="M410.78843,299.15495l-3.36564,0.96041l-1.44062,-5.04848l3.36565,-0.96041z" fill="#ff65be"/><path d="M394.73078,309.19106l-1.9637,2.89723l-4.34584,-2.94555l1.96369,-2.89722z" fill="#ff65be"/><path d="M398.78624,304.62163l-2.80937,2.08742l-3.13114,-4.21408l2.80939,-2.08742z" fill="#ff65be"/><path d="M404.56358,301.21092l-3.12244,1.58128l-2.3719,-4.68364l3.12242,-1.58127z" fill="#ff65be"/><path d="M391.03838,338.3964l1.78244,3.01211l-4.51818,2.67369l-1.78245,-3.01212z" fill="#ff65be"/><path d="M393.3266,342.61037l2.75969,2.15269l-3.22904,4.13955l-2.75969,-2.1527z" fill="#ff65be"/><path d="M417.4078,350.2314c0,0 8.47925,-1.59806 13.4291,-7.07505c4.83888,-5.35421 6.01631,-10.26174 6.01631,-10.26174l5.16914,-1.78496c0,0 -2.77961,11.14269 -7.41691,15.79759c-5.49678,5.51767 -15.67232,8.3441 -15.67232,8.3441z" fill="#e6e6e6"/><path d="M434.36426,337.88189c0,0 5.10813,-6.94723 5.00755,-14.35346c-0.06098,-4.49047 -2.22736,-11.44265 -4.46631,-15.6195c-1.37101,-2.55768 -3.26478,-3.69937 -3.26478,-3.69937l2.89739,-3.55128c0,0 3.68357,2.78732 4.99557,5.29592c2.66662,5.09873 5.28798,13.36099 5.13462,17.77612c-0.27124,7.80832 -5.78484,16.81539 -5.78484,16.81539z" fill="#e6e6e6"/><path d="M436.07807,334.67688l1.61633,-3.0869l4.63628,2.4523l-1.61633,3.0869z" fill="#ff65be"/><path d="M438.396,329.30314l0.63234,-3.43185l5.14525,0.97682l-0.63233,3.43186z" fill="#ff65be"/><path d="M439.5788,323.63937l-0.53441,-3.45461l5.17018,-0.77571l0.53441,3.45461z" fill="#ff65be"/><path d="M438.28032,316.96614l-1.35441,-3.22603l4.8214,-2.00935l1.35441,3.22604z" fill="#ff65be"/><path d="M396.19675,344.48908c0,0 6.55743,5.66281 13.93877,6.16125c7.21584,0.48726 14.49155,-3.34748 14.49155,-3.34748l1.93043,4.67766c0,0 -10.45322,4.70382 -16.99606,3.94266c-7.75551,-0.90224 -16.33533,-7.13653 -16.33533,-7.13653z" fill="#e6e6e6"/><path d="M399.40342,346.67085l2.95972,1.86372l-2.76828,4.43157l-2.95973,-1.8637z" fill="#ff65be"/><path d="M404.74161,349.61942l3.3725,0.90897l-1.33502,5.05914l-3.3725,-0.90897z" fill="#ff65be"/><path d="M410.16136,351.04731l3.47734,-0.25432l0.40819,5.22575l-3.47732,0.25433z" fill="#ff65be"/><path d="M416.85772,350.34522l3.35155,-0.94974l1.44882,5.04227l-3.35157,0.94974z" fill="#ff65be"/><path d="M432.83395,340.37073l1.94939,-2.88639l4.33856,2.95106l-1.94938,2.88638c0,0 -0.79188,-0.53863 -1.32223,-0.89937c-0.80103,-0.54486 -3.01634,-2.05169 -3.01634,-2.05169z" fill="#ff65be"/><path d="M428.80435,344.92058l2.79427,-2.07598l3.13135,4.21392l-2.79428,2.07598z" fill="#ff65be"/><path d="M423.05577,348.30954l3.10757,-1.57002l2.37595,4.68058l-3.10755,1.57001z" fill="#ff65be"/><path d="M436.38828,311.16544l-1.78416,-3.01081l4.49567,-2.65664l1.78417,3.01082z" fill="#ff65be"/><path d="M434.09696,306.95385l-2.7558,-2.15563l3.20714,-4.12296l2.7558,2.15564z" fill="#ff65be"/></g><g fill-opacity="0.58871" fill="#839ba6" stroke="none" stroke-width="0" stroke-linecap="butt"><path d="M382.26364,283.15491h11.30108v11.30108z"/><path d="M386.24087,286.95586l3.73415,3.73415l-4.92907,4.92907l-3.73415,-3.73415z"/></g><g fill-opacity="0.58871" fill="#839ba6" stroke="none" stroke-width="0" stroke-linecap="butt"><path d="M443.03101,277.32009v12.14524h-12.14524z"/><path d="M438.94615,281.59442l-4.01308,4.01308l-5.29726,-5.29727l4.01308,-4.01307z"/></g><g fill-opacity="0.58871" fill="#839ba6" stroke="none" stroke-width="0" stroke-linecap="butt"><path d="M460.09374,309.71031l7.70755,7.70755l-7.70755,7.70755z"/><path d="M460.21397,315.01517v5.09352h-6.72344v-5.09352z"/></g><g data-paper-data="{&quot;index&quot;:null}" fill-opacity="0.58871" fill="#839ba6" stroke="none" stroke-width="0" stroke-linecap="butt"><path d="M450.67305,362.34153l-12.14123,0.31231l-0.31231,-12.14123z"/><path d="M446.2951,358.36793l-4.11495,-3.90856l5.1593,-5.43172l4.11494,3.90856z"/></g><g data-paper-data="{&quot;index&quot;:null}" fill-opacity="0.58871" fill="#839ba6" stroke="none" stroke-width="0" stroke-linecap="butt"><path d="M380.73811,354.40549l-10.8299,1.23535l-1.23536,-10.82989z"/><path d="M376.51122,351.19778l-3.98665,-3.17027l4.18475,-5.26237l3.98664,3.17027z"/></g></g></g></svg>