<svg version="1.1" xmlns="http://www.w3.org/2000/svg" xmlns:xlink="http://www.w3.org/1999/xlink" width="67.07455" height="63.53609" viewBox="0,0,67.07455,63.53609"><defs><linearGradient x1="208.95713" y1="180.01312" x2="267.9883" y2="180.01312" gradientUnits="userSpaceOnUse" id="color-1"><stop offset="0" stop-color="#43b8ff"/><stop offset="1" stop-color="#3b93e2"/></linearGradient></defs><g transform="translate(-206.46273,-148.23195)"><g data-paper-data="{&quot;isPaintingLayer&quot;:true}" fill-rule="nonzero" stroke-linejoin="miter" stroke-miterlimit="10" stroke-dasharray="" stroke-dashoffset="0" style="mix-blend-mode: normal"><path d="M267.9883,179.11739l-57.87782,30.04962c0,0 -1.02779,-0.16788 -1.14777,-30.64332c-0.10763,-27.34244 1.37928,-27.66445 1.37928,-27.66445z" fill="url(#color-1)" stroke="#666c82" stroke-width="5" stroke-linecap="round"/><path d="M209.89489,179.68239h53.57832" fill="none" stroke="#666c82" stroke-width="5" stroke-linecap="round"/><path d="M225.28237,163.47144c1.27477,1.28019 2.06284,3.04928 2.06284,5.00172c0,1.95244 -0.78808,3.72154 -2.06284,5.00171c-1.27477,1.2818 -3.03621,2.07467 -4.978,2.07467c-1.94179,0 -3.70323,-0.79287 -4.97799,-2.07467c-1.27477,-1.28019 -2.06285,-3.04927 -2.06285,-5.00171c0,-1.95244 0.78808,-3.72154 2.06285,-5.00172c1.27477,-1.2818 3.0362,-2.07467 4.97799,-2.07467c1.94179,0 3.70324,0.79288 4.978,2.07467z" data-paper-data="{&quot;index&quot;:null}" fill="#ffffff" stroke="none" stroke-width="1" stroke-linecap="butt"/><path d="M218.71583,169.437l1.88546,-4.7304l2.8156,0.12512l1.65645,2.76606l-0.16082,4.53484l-2.38771,1.33406l-0.21889,-5.55561l-0.84268,0.07945l-1.08874,4.32238l-1.87509,0.78178l-2.84969,-2.06245l-0.28781,-7.16388l2.59523,1.29676l-0.09215,3.87609z" data-paper-data="{&quot;index&quot;:null}" fill="#ffe323" stroke="none" stroke-width="0.3953" stroke-linecap="round"/><path d="M225.28237,185.97145c1.27477,1.28019 2.06284,3.04928 2.06284,5.00172c0,1.95244 -0.78808,3.72154 -2.06284,5.00171c-1.27477,1.2818 -3.03621,2.07467 -4.978,2.07467c-1.94179,0 -3.70323,-0.79287 -4.97799,-2.07467c-1.27477,-1.28019 -2.06285,-3.04927 -2.06285,-5.00171c0,-1.95244 0.78808,-3.72154 2.06285,-5.00172c1.27477,-1.2818 3.0362,-2.07467 4.97799,-2.07467c1.94179,0 3.70324,0.79288 4.978,2.07467z" data-paper-data="{&quot;index&quot;:null}" fill="#ffffff" stroke="none" stroke-width="1" stroke-linecap="butt"/><path d="M218.71583,191.937l1.88546,-4.7304l2.8156,0.12512l1.65645,2.76606l-0.16082,4.53484l-2.38771,1.33406l-0.21889,-5.55561l-0.84268,0.07945l-1.08874,4.32238l-1.87509,0.78178l-2.84969,-2.06245l-0.28781,-7.16388l2.59523,1.29676l-0.09215,3.87609z" data-paper-data="{&quot;index&quot;:null}" fill="#ffe323" stroke="none" stroke-width="0.3953" stroke-linecap="round"/></g></g></svg>