<svg version="1.1" xmlns="http://www.w3.org/2000/svg" xmlns:xlink="http://www.w3.org/1999/xlink" width="639.80953" height="523.10127" viewBox="0,0,639.80953,523.10127"><g transform="translate(65.19034,86.44498)"><g data-paper-data="{&quot;isPaintingLayer&quot;:true}" fill-rule="nonzero" stroke-linecap="butt" stroke-linejoin="miter" stroke-miterlimit="10" stroke-dasharray="" stroke-dashoffset="0" style="mix-blend-mode: normal"><path d="M79.79013,108.51151c0,33.59732 -26.56444,60.83333 -59.33333,60.83333c-32.76889,0 -59.33333,-27.23601 -59.33333,-60.83333c0,-33.59732 26.56444,-60.83333 59.33334,-60.83333c32.7689,0 59.33333,27.23602 59.33333,60.83334z" fill="#5cdc67" stroke="none" stroke-width="none"/><path d="M128.33471,32.90628c0,16.70662 -22.16191,30.25 -49.5,30.25c-27.33809,0 -55.7,-20.74339 -55.7,-37.45c0,-16.70661 0.9619,-35.45 44.7,-30.25c27.14691,3.22749 60.5,20.74339 60.5,37.45z" fill="#d5e4e8" stroke="none" stroke-width="0"/><path d="M506.5,214.15625c0,36.17465 -36.26493,65.5 -81,65.5c-29.32054,0 -177.00244,1.40231 -191.2198,-17.4647c-7.47442,-9.91886 110.21981,-35.57047 110.21981,-48.0353c0,-36.17465 36.26493,-65.5 81,-65.5c44.73507,0 81,29.32535 81,65.5z" fill="#5cdc67" stroke="none" stroke-width="0"/><path d="M531.69845,168.29885c5.70164,4.24412 6.67559,11.92799 8.50474,18.08112c1.7824,5.99588 4.02315,11.29246 5.27941,17.55455c0.47552,2.37034 2.72702,4.99316 3.48859,7.44451c1.38513,4.45851 4.27131,11.03458 3.10164,15.71327c-0.55004,2.20019 -1.21839,3.9572 -2.01409,5.45466c0.98591,1.0564 1.9315,2.17201 2.83272,3.35089c2.53568,3.31689 3.23725,8.30657 2.9945,12.38283c-0.09516,1.59799 -0.15789,3.21131 -0.32344,4.80703c0.45292,0.4795 0.88134,0.97713 1.22745,1.53585c1.07177,1.7302 1.65576,3.76978 2.92983,5.35693c3.75351,4.6759 6.02052,6.93278 7.78011,13.01728c0.38615,1.33526 0.33185,6.28141 0.33185,8.36359c0,5.40068 0.83646,12.11839 -0.53228,17.37846c-0.11051,0.42469 -0.32528,0.80298 -0.58298,1.16197c0.225,0.21495 0.43404,0.44993 0.62705,0.66147c1.53851,1.68622 3.20415,3.37322 4.13846,5.45587c0.76028,1.69473 0.51351,3.67927 0.78411,5.51691c0.31388,2.13152 1.27915,4.2583 0.96933,6.39041c-0.21578,1.48491 -0.76617,2.93754 -1.52397,4.2629c0.69759,1.88765 2.35556,7.501 2.39246,7.72485c1.20638,7.31839 0.02216,16.08295 -0.78411,23.27473c-0.28922,0.28922 -0.56839,0.58929 -0.85175,0.88484c0.7768,2.27472 0.29613,4.84797 -0.04177,7.23259c-0.02518,0.17768 -0.58159,-0.09177 -0.53228,0.08078c0.62081,2.17284 3.02001,4.18726 2.3701,6.35157c-1.53959,5.12706 -4.07268,10.52842 -8.38955,13.69412c-2.31861,1.70031 -5.37342,1.64151 -8.40669,1.52089c-0.74877,0.94655 -1.57024,1.84946 -2.08609,2.35402c0.02044,0.9736 -0.01298,1.95459 -0.44012,2.79968c-1.11372,2.20346 -2.93335,3.97661 -4.52694,5.86237c-0.47953,0.56745 -0.90485,1.26535 -1.41384,1.82867c-1.23029,4.65071 -3.9008,8.42688 -5.95155,12.78323c-3.65326,2.31652 -7.02033,5.16257 -10.95978,6.94955c-1.52033,0.68964 -3.34353,0.08152 -4.99991,0.28994c-2.55219,0.32114 -5.72727,2.33755 -8.27017,2.75672c-3.41147,0.56235 -7.72861,-0.70966 -11.02689,0c-0.94694,0.20374 -1.79798,0.78098 -2.75672,0.91891c-2.29985,0.33088 -9.78366,0.1757 -11.42344,-0.47641c-2.43163,-0.96702 -4.56073,-2.56911 -6.64033,-4.18804c-0.14739,0.11711 -0.31808,0.20445 -0.46368,0.2301c-1.50829,0.26569 -3.06589,0.0936 -4.59454,0c-1.57917,-0.09669 -2.94828,1.20299 -4.50112,1.50596c-2.70461,0.52769 -12.34696,0.55717 -14.94869,-0.61244c-2.61893,-1.17735 -4.45602,-3.62266 -6.68404,-5.43398c-0.40906,-0.61359 -0.94259,-1.16747 -1.35125,-1.78126c-4.50244,-1.3588 -10.06764,-4.12892 -11.93845,-8.50019c-1.75322,-4.09652 -0.90752,-8.91817 -0.52356,-13.35753c0.04735,-0.54746 0.43043,-1.19852 0.92221,-1.56427c0.07202,-1.9649 0.30081,-3.93514 0.9156,-5.78699c0.47658,-1.43553 1.99108,-2.30178 2.74624,-3.61236c0.34115,-0.59208 0.1441,-1.39896 0.48313,-1.99226c1.33501,-2.33626 3.23829,-4.35361 4.32909,-6.81339c0.99212,-2.23726 1.80106,-4.55879 2.90587,-6.74259c0.92261,-1.82365 2.49394,-3.32135 3.16267,-5.2526c0.9545,-2.75652 0.75566,-5.81558 1.63319,-8.59756c0.95762,-3.0359 2.71612,-5.76582 3.8373,-8.7452c3.62167,-9.62409 5.6213,-19.85757 9.23421,-29.52735c1.06656,-2.79561 1.93299,-5.67601 3.19967,-8.38682c1.23248,-2.63763 3.44997,-4.74567 4.62317,-7.41019c1.2254,-2.78308 1.34041,-5.96993 2.55577,-8.7574c3.03511,-6.96111 8.82863,-12.62284 12.38289,-19.26825c1.97847,-3.69915 3.28131,-7.87369 4.96018,-11.70332c0.42105,-0.96045 1.20728,-1.75805 1.50159,-2.7646c0.5229,-1.78829 0.33458,-3.74428 0.91891,-5.51345c0.05475,-0.16576 0.11175,-0.33073 0.17086,-0.49495c-0.48988,-1.35965 -0.77894,-2.96423 -0.77894,-4.85787c0,-3.24289 0.84773,-5.63805 2.09999,-7.40709c-0.48902,-1.82448 -0.54556,-4.01341 0.10822,-6.62852c3.00872,-12.03487 15.04358,-9.02615 15.04358,-9.02615c1.16032,0.29008 2.31622,0.59796 3.4653,0.92606c-1.20848,-2.3873 -2.76608,-4.95259 -3.2038,-6.58027c-2.3502,-8.7395 -4.39901,-17.28418 -7.97457,-25.62716c-0.7765,-1.70389 -1.20911,-3.59754 -1.20911,-5.59222c0,-7.45585 6.04416,-13.5 13.5,-13.5c0.94718,0 1.87158,0.09754 2.7637,0.28314c1.87644,0.32586 3.72726,1.08846 5.43474,2.35946zM565.95105,300.85613c-0.1724,0.20949 -0.34006,0.42097 -0.48939,0.64043c-0.15485,0.22756 0.33671,-0.27515 0.48939,-0.64043zM531.5296,247.88353c0.00266,0.00357 0.00532,0.00714 0.00799,0.01073c0.04567,-0.05546 0.09037,-0.11132 0.13382,-0.16766c-0.00638,0.00107 -0.01275,0.00215 -0.01913,0.00322c-0.03976,0.05195 -0.08089,0.10374 -0.12269,0.15371z" fill="#ded2ac" stroke="none" stroke-width="0.5"/><path d="M79.83164,281.09317v-20h104v20z" fill="#8e825b" stroke="none" stroke-width="0"/><path d="M55.83164,163.59318v-86.5h126v86.5z" fill="#8e825b" stroke="none" stroke-width="0"/><path d="M393.16507,318.05967c0.8286,3.4101 1.26322,6.84966 2.08669,10.22598c-0.01287,3.49712 -0.20173,6.86149 -0.20173,10.37063c0,3.48792 -0.19743,6.9409 -0.20067,10.41613c-0.00207,2.21847 -0.45737,8.4008 -4.2699,6.44682c-1.01003,-0.19209 -3.17975,-0.72091 -3.88574,-1.52101c-0.71545,-0.81083 -0.32111,-2.41141 -1.22737,-3.22859c-0.62766,-0.56596 -1.47089,-0.60159 -1.96224,-1.35775c-0.71161,-0.94918 -0.79456,-2.14333 -1.40312,-3.0043c-1.20874,-1.71011 -4.24323,-2.27475 -5.86057,-3.6584c-2.55803,-2.49543 -5.04517,-4.61841 -7.14963,-7.55449c-2.64866,-2.65747 -5.21889,-4.32788 -8.39941,-6.26891c-2.99055,-1.82207 -6.59872,-2.41898 -9.75146,-3.91102c-3.15713,-1.4935 -6.69528,-2.2071 -10.08723,-2.99592c-3.42009,-0.79537 -6.86746,-1.37922 -10.30034,-2.10898c-3.5725,0.01137 -6.94254,0.45721 -10.4711,0.99713c-3.47402,-0.00549 -7.00353,-0.17845 -10.45865,0.20735c-3.46686,0.45621 -7.01938,0.30676 -10.45296,1.08841c-3.40616,0.78649 -6.60672,1.70051 -9.99246,2.61043c-3.29282,1.26668 -6.59981,1.72526 -9.76148,3.48174c-2.99959,1.68376 -5.25922,4.81288 -7.05177,7.64005c-1.89227,2.98465 -4.22906,5.52492 -6.30191,8.33677c-1.26245,1.71253 -2.97612,3.27171 -4.10125,5.05856c-0.70758,1.12372 -0.93276,2.47233 -1.78711,3.52647c-1.86194,2.30524 -7.21533,2.47779 -8.02654,-0.73853c-0.21281,-3.27173 -0.59709,-6.70564 -0.59709,-10.06195c-0.0005,-1.00371 -0.36432,-1.4831 -0.60907,-2.36674c-0.62069,-2.24088 0.00907,-5.59141 0.00907,-7.93326c0,-3.46353 -0.16812,-6.97923 0.31787,-10.41721c0.50466,-3.57412 0.05911,-6.90319 -0.24164,-10.45517c-0.01505,-0.17773 -0.0307,-0.35356 -0.04723,-0.52757h141.00799c0.22361,2.59172 0.5668,5.18652 1.17805,7.70335z" fill="#5cdc67" stroke="none" stroke-width="0"/><path d="M48.83772,436.65629v-119h25v119z" fill="#5cdc67" stroke="none" stroke-width="0"/><path d="M190.51711,379.65629v-70.5h54.5v70.5z" fill="#5cdc67" stroke="none" stroke-width="0"/><path d="M64.0044,4.48965c0,37.00308 -26.4152,67 -59,67c-28.92321,0 -64.65215,-5.30079 -69.69474,-36.49047c-0.63837,-3.94852 10.69474,-26.35145 10.69474,-30.50953c0,-0.66306 5.34181,2.3428 5.35866,1.68437c0.92332,-36.08618 21.64043,-68.68437 53.64134,-68.68437c5.28294,0 12.62043,-13.41765 36.15107,-18.79723c29.05943,-6.64357 75.11362,-5.2291 80.21039,-1.48087c16.2316,11.93692 -57.36146,63.68318 -57.36146,87.27811z" fill="#ded2ac" stroke-opacity="0.10862" stroke="#929292" stroke-width="1"/></g></g></svg>