<svg version="1.1" xmlns="http://www.w3.org/2000/svg" xmlns:xlink="http://www.w3.org/1999/xlink" width="344.12457" height="361.43401" viewBox="0,0,344.12457,361.43401"><g transform="translate(-126.93779,8.37171)"><g data-paper-data="{&quot;isPaintingLayer&quot;:true}" fill-rule="nonzero" stroke-linejoin="miter" stroke-miterlimit="10" stroke-dasharray="" stroke-dashoffset="0" style="mix-blend-mode: normal"><path d="M289.00005,244.00001c3.86341,3.31149 1.20245,18.07977 0,21c-1.20245,2.92023 -3.08282,5.93697 -6,9c-2.91718,3.06303 -8.0472,7.9521 -14,12c-5.9528,4.0479 -8.53457,6.4052 -13,8c-4.46543,1.5948 -17.70088,12.82504 -29,7" data-paper-data="{&quot;origPos&quot;:null}" fill="none" stroke="#dfa04e" stroke-width="15" stroke-linecap="round"/><path d="M333.94192,131.8943c-7.47419,16.74663 -14.017,28.35984 -20.94185,43.10571c-28.29743,60.25687 -18.25862,36.31896 -21,45c-2.74138,8.68104 -2.39211,11.30208 0,18c2.39211,6.69792 5.70573,6.3192 10,10c4.29427,3.6808 11.45009,7.97408 18,14c6.54991,6.02592 5.78814,4.67193 7,9c1.21186,4.32807 1.12103,9.83432 0,16c-1.12103,6.16568 -2.05409,11.16005 -6,17c-3.96391,5.86658 -6.80466,8.73823 -11.91041,13.64338c-2.6803,2.57499 -4.24181,3.96816 -7.08958,6.35662c-8.25822,6.92625 -9.0069,7.09087 -14,9c-4.9931,1.90913 -10.99069,3.82674 -20,4c-9.00931,0.17326 -20.04095,0.63937 -30,-6c-9.95905,-6.63937 -7.68991,-18.97039 -18,-26c-10.31009,-7.02961 -14.53577,-4.84592 -25,-4c-6.48526,0.52426 -13.87394,5.85414 -20,6c-6.12606,0.14586 -13.56067,0.86769 -23,-5c-9.43933,-5.86769 -7.93064,-9.87284 -9,-18c-1.06936,-8.12716 0.40667,-12.81334 4,-20c3.59333,-7.18666 9.31276,-14.31276 17,-22c7.68724,-7.68724 8.41823,-7.36729 15,-10c3.83617,-1.53447 6.11205,-2.12003 10.18703,-2.80225c3.80577,-0.63715 5.97437,-0.80405 9.81297,-1.19775c3.8431,-0.39416 6.02767,-0.38463 9.88636,-0.19668c3.55471,0.17315 5.55699,0.3237 9.11364,0.19668c7.41783,-0.26492 6.09769,1.03162 9,-1c2.90231,-2.03162 8.29545,-6.91477 11,-13c2.70455,-6.08523 0.86962,-8.52395 1,-14h-0.00001c0.13038,-5.47605 -0.41998,-17.08054 0,-28c0.41998,-10.91946 -1.85718,-15.42685 2,-24c1.45305,-3.22961 2.05964,-3.97957 4,-7c1.90252,-2.96152 4.27528,-3.63858 7,-6c2.72472,-2.36142 5.86558,-3.44264 8,-7c2.13442,-3.55736 0.82144,-4.78601 1,-8c0.18846,-3.39222 -3.01289,-12.79953 -6,-16c-2.98711,-3.20047 -5.07743,-3.96775 -9,-5c-3.92257,-1.03225 -6.19129,-0.95218 -10,0c-3.80871,0.95218 -19.41035,3.86393 -33,7c-13.58965,3.13607 -11.15426,2.91681 -18,1c-6.84574,-1.91681 -4.93617,-4.07872 -7,-8c-2.06383,-3.92128 -2.44587,-6.56698 -3,-11c-0.55413,-4.43302 -1.60606,-8.18181 0,-13c1.60606,-4.81819 4.00929,-22.8078 9,-27c4.99071,-4.1922 9.27055,-5.67307 16,-7c6.72945,-1.32693 24.02311,-3.85669 45.5,-6.5c2.96248,-0.36461 18.5,1 18.5,1c0,0 14.0512,2.0956 19,6.5c4.9488,4.4044 40.41179,43.48609 40.41179,43.48609" data-paper-data="{&quot;origPos&quot;:null}" fill="none" stroke="#dfa04e" stroke-width="32.12458" stroke-linecap="round"/><path d="M366.79387,64.54581c14.20702,-32.62158 21.12369,-43.31226 22.20621,-45.5458c2.08636,-4.30476 4.59346,-7.69733 9,-9.5c4.40654,-1.80267 9.80427,-1.50329 13,-2c8.11335,-1.26105 15.69568,1.37484 21,2.5c5.30432,1.12516 9.17147,2.83646 12.5,5c3.32853,2.16354 4.97912,3.87492 7.5,8c2.52088,4.12508 2.20574,6.17543 3,12c0.79426,5.82457 0.69262,6.32619 0,10c-3.36425,17.84465 -13.67597,31.86937 -18,39.5c-4.32403,7.63063 -13.60374,17.09478 -16,20.5c-2.39626,3.40522 -2.53134,4.84749 -6,7.5c-3.46866,2.65251 -6.08816,4.24301 -9.5,5.5c-3.41184,1.25699 -7.08533,2 -10.5,2c-1.91467,0 -12.33316,-4.36994 -15,-5" data-paper-data="{&quot;origPos&quot;:null}" fill="none" stroke="#dfa04e" stroke-width="32.12458" stroke-linecap="round"/><path d="M222.6757,176.60001h32.25v5.9h-32.25z" data-paper-data="{&quot;origPos&quot;:null}" fill="#ffffff" stroke="none" stroke-width="1" stroke-linecap="butt"/><path d="M311.16652,64.93828l6.78278,7.31151l3.91701,-3.91328l1.55948,13.83427l-14.01799,0.46929l3.27243,-4.46632l-8.25754,-5.59261z" data-paper-data="{&quot;origPos&quot;:null,&quot;index&quot;:null,&quot;origRot&quot;:0}" fill="#f7bb6e" stroke="#f7bb6e" stroke-width="0.5" stroke-linecap="round"/><path d="M376.72761,107.14074l8.42639,5.3348l2.78657,-4.78454l5.04396,12.97604l-13.43233,4.03695l2.02204,-5.15443l-9.41277,-3.29604z" data-paper-data="{&quot;origPos&quot;:null,&quot;index&quot;:null,&quot;origRot&quot;:0}" fill="#f7bb6e" stroke="#f7bb6e" stroke-width="0.5" stroke-linecap="round"/><path d="M376.7153,57.65893l-5.87016,8.06259l4.59371,3.09107l-13.2759,4.19161l-3.15713,-13.66591l5.01241,2.35213l3.89968,-9.17914z" data-paper-data="{&quot;origPos&quot;:null,&quot;index&quot;:null,&quot;origRot&quot;:0}" fill="#f7bb6e" stroke="#f7bb6e" stroke-width="0.5" stroke-linecap="round"/><g fill="#9f7238" stroke="none" stroke-width="0" stroke-linecap="butt"><path d="M223.20655,178.62548v-1.83996h1.83996v1.83996z"/><path d="M223.20655,182.30539v-1.83996h1.83996v1.83996z"/><path d="M225.04652,180.46543v-1.83995h1.83996v1.83995z"/><path d="M226.88647,178.62548v-1.83996h1.83996v1.83996z"/><path d="M226.88647,182.30539v-1.83996h1.83996v1.83996z"/><path d="M228.72641,180.46543v-1.83995h1.83996v1.83995z"/><path d="M230.56637,178.62548v-1.83996h1.83996v1.83996z"/><path d="M230.56637,182.30539v-1.83996h1.83996v1.83996z"/><path d="M232.4063,180.46543v-1.83995h1.83997v1.83995z"/><path d="M234.24629,178.62548v-1.83996h1.83996v1.83996z"/><path d="M234.24629,182.30539v-1.83996h1.83996v1.83996z"/><path d="M236.08624,180.46543v-1.83995h1.83996v1.83995z"/><path d="M237.92618,178.62548v-1.83996h1.83996v1.83996z"/><path d="M237.92618,182.30539v-1.83996h1.83996v1.83996z"/><path d="M239.76615,180.46543v-1.83995h1.83996v1.83995z"/><path d="M241.6061,178.62548v-1.83996h1.83996v1.83996z"/><path d="M241.6061,182.30539v-1.83996h1.83996v1.83996z"/><path d="M243.44606,180.46543v-1.83995h1.83996v1.83995z"/><path d="M245.28601,178.62548v-1.83996h1.83996v1.83996z"/><path d="M245.28601,182.30539v-1.83996h1.83996v1.83996z"/><path d="M247.12595,180.46543v-1.83995h1.83996v1.83995z"/><path d="M248.96592,178.62548v-1.83996h1.83996v1.83996z"/><path d="M248.96592,182.30539v-1.83996h1.83996v1.83996z"/><path d="M250.80587,180.46543v-1.83995h1.83996v1.83995z"/><path d="M252.64582,178.62548v-1.83996h1.83996v1.83996z"/><path d="M252.64582,182.30539v-1.83996h1.83996v1.83996z"/></g></g></g></svg>