<svg version="1.1" xmlns="http://www.w3.org/2000/svg" xmlns:xlink="http://www.w3.org/1999/xlink" width="113.88091" height="146.2697" viewBox="0,0,113.88091,146.2697"><defs><linearGradient x1="326.15231" y1="148.11428" x2="332.81627" y2="183.09465" gradientUnits="userSpaceOnUse" id="color-1"><stop offset="0" stop-color="#ffe32f"/><stop offset="1" stop-color="#ffdc2b"/></linearGradient><linearGradient x1="248.9883" y1="76.34295" x2="208.55777" y2="181.61374" gradientUnits="userSpaceOnUse" id="color-2"><stop offset="0" stop-color="#fff238"/><stop offset="1" stop-color="#ffd628"/></linearGradient><linearGradient x1="296.81733" y1="85.35934" x2="288.57276" y2="106.8261" gradientUnits="userSpaceOnUse" id="color-3"><stop offset="0" stop-color="#80de38"/><stop offset="1" stop-color="#fff238"/></linearGradient><linearGradient x1="291.95435" y1="128.01287" x2="286.05939" y2="143.36184" gradientUnits="userSpaceOnUse" id="color-4"><stop offset="0" stop-color="#000000"/><stop offset="1" stop-color="#674205"/></linearGradient><linearGradient x1="280.41644" y1="123.5816" x2="274.52148" y2="138.93057" gradientUnits="userSpaceOnUse" id="color-5"><stop offset="0" stop-color="#000000"/><stop offset="1" stop-color="#674205"/></linearGradient></defs><g transform="translate(-218.39627,-82.01156)"><g data-paper-data="{&quot;isPaintingLayer&quot;:true}" fill-rule="nonzero" stroke-linejoin="miter" stroke-miterlimit="10" stroke-dasharray="" stroke-dashoffset="0" style="mix-blend-mode: normal"><path d="M320.58948,200.89414c-5.53616,14.41475 -30.19622,18.35287 -55.07978,8.79603c-24.88356,-9.55683 -40.56773,-28.98964 -35.03157,-43.40439c5.53616,-14.41475 30.19622,-18.35287 55.07978,-8.79603c24.88356,9.55683 40.56773,28.98964 35.03157,43.40439z" fill-opacity="0.7403" fill="#ffee36" stroke="none" stroke-width="NaN" stroke-linecap="butt"/><path d="M286.36981,183.11363c0,0 4.66595,-4.18437 -0.69099,-0.81443c-3.11505,1.95962 -15.75894,13.59568 -18.61904,11.46338c-1.06729,-0.79571 -3.84948,-3.25483 -5.25674,-4.31669c-6.41997,-4.84423 -16.22782,-10.38511 -15.67351,-10.09174c5.14139,2.72104 18.38828,10.1513 22.0708,16.30335c4.86074,8.1204 4.29657,30.12377 4.29657,30.12377" fill="none" stroke="#9e7d1e" stroke-width="5" stroke-linecap="round"/><g><path d="M275.52466,162.22038c2.63605,-2.43245 5.84966,-7.1181 8.86263,-5.53697c6.60792,3.38928 8.52006,12.8357 14.87593,16.70514c3.76136,2.26141 8.29099,1.76556 12.31141,0.91091c6.10201,-1.30159 18.45395,-9.48659 18.1198,-7.44856c-0.3541,2.04219 -11.52438,14.25355 -19.19409,18.90289c-5.06399,3.06971 -11.56099,4.13269 -17.46028,3.9184c-5.05012,-0.43241 -9.30859,-3.91962 -13.97815,-5.77442c-1.89907,-0.75431 -4.89713,-0.29858 -5.74093,-2.1628c-2.01075,-4.49559 -2.18748,-8.8731 -1.6463,-13.30448c0.32558,-2.65812 2.14361,-4.62997 3.84987,-6.21017z" fill="url(#color-1)" stroke="none" stroke-width="1" stroke-linecap="round"/><path d="M304.38013,97.66202c6.89195,3.75284 5.75165,17.46125 6.17217,26.51366c0.2452,5.35582 -1.94295,10.53408 -3.78208,15.52553c-4.21919,11.44802 -9.66764,22.26818 -13.98333,33.5701c-1.09334,2.83865 -0.90282,4.31368 -0.61286,6.46242c0.61697,4.74473 0.32339,10.74095 3.81739,14.3944c4.80341,5.03795 11.81446,8.06706 18.95248,9.45962c5.66445,1.10075 19.2362,-4.8332 17.10918,-2.77475c-3.5019,3.35906 -18.46949,14.43602 -29.11931,14.98446c-8.877,0.45049 -18.35994,-5.19467 -24.05844,-11.57636c-5.47748,-6.13795 -3.47576,-16.40335 -7.64269,-23.49591c-1.05191,-1.78716 -4.02515,0.7469 -6.03356,1.10952c-4.89179,0.87824 -9.73443,3.67255 -14.78094,3.20165c-5.84387,-0.83633 -12.04897,-3.03566 -16.4875,-6.95524c-6.72284,-5.93712 -15.54835,-19.93716 -15.53435,-22.00966c0.03304,-2.06518 10.73587,8.18241 16.51013,10.54649c3.80473,1.5547 8.17454,2.84673 12.27762,1.28859c6.94189,-2.67965 12.80976,-7.8839 17.60496,-13.79921c3.11625,-3.83117 3.6507,-9.20534 5.72475,-13.6891c4.6752,-10.10468 7.3936,-21.07614 14.0374,-29.65527c5.04061,-6.17309 13.97601,-16.27395 19.82894,-13.10084z" fill="url(#color-2)" stroke="none" stroke-width="1" stroke-linecap="round"/><path d="M307.43137,82.01156l5.29386,2.03317l-5.109,13.30254l-5.29386,-2.03317z" fill="#80de38" stroke="none" stroke-width="1" stroke-linecap="butt"/><path d="M306.67298,89.66416c0.97554,-0.69074 1.23824,0.22322 1.38887,0.84492c0.81291,2.74211 0.91765,5.63279 1.24906,8.35505c0.4394,3.65783 0.75877,7.38484 0.96306,11.03024c0.01069,1.39973 1.03524,3.98012 -0.32166,4.08204c-3.52095,0.26145 -6.63242,-2.01142 -9.84608,-3.15843c-3.69567,-1.40066 -8.03983,-1.93203 -10.89066,-4.4942c-0.96689,-0.87291 1.46752,-2.29619 2.30562,-3.1643c1.36333,-1.43275 3.00638,-2.63661 4.45583,-3.89612c3.61184,-3.1424 6.80293,-6.83577 10.696,-9.59914z" fill="url(#color-3)" stroke="none" stroke-width="1" stroke-linecap="round"/><g><g stroke="none" stroke-width="1.36222"><path d="M294.75276,129.08921c0.88839,0.29788 1.44765,1.44384 1.43009,2.58537c-0.03197,2.07213 -0.79231,4.26515 -1.61875,6.26859c-0.75124,1.85384 -1.7569,3.68221 -3.03245,5.10788c-0.74009,0.84007 -1.83061,1.71902 -2.67333,1.38576c-0.81148,-0.32132 -1.23382,-1.2941 -1.19408,-2.73586c0.04467,-1.82612 0.51393,-3.85587 1.38278,-6.11814c0.86874,-2.26198 1.78753,-4.03215 3.068,-5.47055c0.84307,-0.95005 1.90894,-1.3463 2.63774,-1.02307z" fill="url(#color-4)" stroke-linecap="round"/><path d="M294.23499,130.39284c0.45093,0.17318 0.76284,0.5777 0.90501,1.09087c0.14201,0.51278 0.11396,1.13409 -0.12023,1.74385c-0.23419,0.60976 -0.62927,1.09011 -1.07799,1.37601c-0.44901,0.28579 -0.95153,0.37754 -1.40245,0.20436c-0.45093,-0.17318 -0.76313,-0.57781 -0.90511,-1.09061c-0.14227,-0.51288 -0.11423,-1.13423 0.11994,-1.74396c0.23419,-0.60976 0.62925,-1.09006 1.07828,-1.3759c0.44886,-0.28618 0.95163,-0.3778 1.40255,-0.20462z" fill="#ffffff" stroke-linecap="butt"/></g><g stroke="none" stroke-width="1.36222"><path d="M283.21488,124.65795c0.88839,0.29788 1.44765,1.44384 1.43009,2.58537c-0.03197,2.07213 -0.79231,4.26515 -1.61875,6.26859c-0.75124,1.85384 -1.75687,3.68222 -3.03245,5.10788c-0.74009,0.84007 -1.83061,1.71902 -2.67333,1.38576c-0.81148,-0.32132 -1.23384,-1.29411 -1.19411,-2.73587c0.04467,-1.82612 0.51393,-3.85587 1.38278,-6.11814c0.86874,-2.26198 1.7875,-4.03216 3.068,-5.47055c0.84307,-0.95005 1.90894,-1.3463 2.63777,-1.02306z" fill="url(#color-5)" stroke-linecap="round"/><path d="M282.88493,125.87794c0.45093,0.17318 0.76284,0.5777 0.90501,1.09087c0.14201,0.51278 0.11396,1.13409 -0.12023,1.74385c-0.23419,0.60976 -0.62925,1.09006 -1.07799,1.37601c-0.44901,0.28579 -0.95153,0.37754 -1.40245,0.20436c-0.45093,-0.17318 -0.7631,-0.5778 -0.90511,-1.09061c-0.14227,-0.51288 -0.11424,-1.1342 0.11994,-1.74396c0.23419,-0.60976 0.62927,-1.09011 1.07828,-1.3759c0.44886,-0.28618 0.9516,-0.37781 1.40255,-0.20462z" fill="#ffffff" stroke-linecap="butt"/></g><path d="M287.59082,148.41696c0,0 -2.49649,1.32687 -3.8198,1.53109c-1.17064,0.17907 -2.44239,0.09497 -3.57446,-0.31302c-1.02158,-0.49858 -1.91889,-1.36222 -2.65648,-2.31464c-0.77436,-1.00115 -1.6689,-3.51445 -1.6689,-3.51445" fill="none" stroke="#3d2601" stroke-width="0.54561" stroke-linecap="round"/></g></g></g></g></svg>