<svg version="1.1" xmlns="http://www.w3.org/2000/svg" xmlns:xlink="http://www.w3.org/1999/xlink" width="890.93315" height="421.24837" viewBox="0,0,890.93315,421.24837"><g transform="translate(393.75,12.98135)"><g data-paper-data="{&quot;isPaintingLayer&quot;:true}" fill-rule="nonzero" stroke-linejoin="miter" stroke-miterlimit="10" stroke-dasharray="" stroke-dashoffset="0" style="mix-blend-mode: normal"><path d="M240.25,291.74998v-27.5v-239l28.75,-21" fill="none" stroke="#ff0000" stroke-width="25" stroke-linecap="round"/><path d="M271,1.24998l62.5,2l41.5,17l3,40.5l-41.5,18.5l-64.5,1" fill="none" stroke="#ff0000" stroke-width="25" stroke-linecap="round"/><path d="M238.5,351.24999l0.5,9l63.5,19.5l109.5,15.5l72,-2l-1.5,-39l-48,-31l-266.5,-1l-12,5l-206,29.5l-10.5,-35.5l20,-35.5l127,-23l0.5,-50l17,-41.5l18.5,-65.5l81.5,-28h6" fill="none" stroke="#ff0000" stroke-width="25" stroke-linecap="round"/><path d="M-393.5,5.74999l0.5,-3" fill="none" stroke="#000000" stroke-width="0.5" stroke-linecap="round"/><path d="M233.86177,300.94999h16.14706" fill="none" stroke="none" stroke-width="0" stroke-linecap="round"/><path d="M229.37647,299.7956h21.97794" fill="none" stroke="#ffad00" stroke-width="2.5" stroke-linecap="round"/><path d="M229.01765,297.40831h22.7853" fill="none" stroke="#fff800" stroke-width="2.5" stroke-linecap="round"/><path d="M228.47941,295.09953h23.68236" fill="none" stroke="#00ff08" stroke-width="2.5" stroke-linecap="round"/><path d="M228.47941,293.02162h24.04118" fill="none" stroke="#005eff" stroke-width="2.5" stroke-linecap="round"/><path d="M228.3,290.48197h24.4" fill="none" stroke="#8000ff" stroke-width="2.5" stroke-linecap="round"/><path d="M233.66177,286.54999h16.14706" fill="none" stroke="none" stroke-width="0" stroke-linecap="round"/><path d="M229.17647,285.3956h21.97794" fill="none" stroke="#ffad00" stroke-width="2.5" stroke-linecap="round"/><path d="M228.81765,283.00831h22.78529" fill="none" stroke="#fff800" stroke-width="2.5" stroke-linecap="round"/><path d="M228.27941,280.69953h23.68236" fill="none" stroke="#00ff08" stroke-width="2.5" stroke-linecap="round"/><path d="M228.27941,278.62163h24.04118" fill="none" stroke="#005eff" stroke-width="2.5" stroke-linecap="round"/><path d="M228.1,276.08197h24.4" fill="none" stroke="#8000ff" stroke-width="2.5" stroke-linecap="round"/><path d="M233.66177,271.34999h16.14706" fill="none" stroke="none" stroke-width="0" stroke-linecap="round"/><path d="M229.17647,270.1956h21.97794" fill="none" stroke="#ffad00" stroke-width="2.5" stroke-linecap="round"/><path d="M228.81765,267.80831h22.78529" fill="none" stroke="#fff800" stroke-width="2.5" stroke-linecap="round"/><path d="M228.27941,265.49953h23.68236" fill="none" stroke="#00ff08" stroke-width="2.5" stroke-linecap="round"/><path d="M228.27941,263.42163h24.04118" fill="none" stroke="#005eff" stroke-width="2.5" stroke-linecap="round"/><path d="M228.1,260.88197h24.4" fill="none" stroke="#8000ff" stroke-width="2.5" stroke-linecap="round"/><path d="M233.86177,256.74998h16.14706" fill="none" stroke="none" stroke-width="0" stroke-linecap="round"/><path d="M229.37647,255.5956h21.97794" fill="none" stroke="#ffad00" stroke-width="2.5" stroke-linecap="round"/><path d="M229.01765,253.20831h22.7853" fill="none" stroke="#fff800" stroke-width="2.5" stroke-linecap="round"/><path d="M228.47941,250.89953h23.68236" fill="none" stroke="#00ff08" stroke-width="2.5" stroke-linecap="round"/><path d="M228.47941,248.82163h24.04118" fill="none" stroke="#005eff" stroke-width="2.5" stroke-linecap="round"/><path d="M228.3,246.28197h24.4" fill="none" stroke="#8000ff" stroke-width="2.5" stroke-linecap="round"/><path d="M233.86177,242.14999h16.14706" fill="none" stroke="none" stroke-width="0" stroke-linecap="round"/><path d="M229.37647,240.9956h21.97794" fill="none" stroke="#ffad00" stroke-width="2.5" stroke-linecap="round"/><path d="M229.01765,238.60831h22.7853" fill="none" stroke="#fff800" stroke-width="2.5" stroke-linecap="round"/><path d="M228.47941,236.29953h23.68236" fill="none" stroke="#00ff08" stroke-width="2.5" stroke-linecap="round"/><path d="M228.47941,234.22163h24.04118" fill="none" stroke="#005eff" stroke-width="2.5" stroke-linecap="round"/><path d="M228.3,231.68197h24.4" fill="none" stroke="#8000ff" stroke-width="2.5" stroke-linecap="round"/><path d="M233.66177,227.74999h16.14706" fill="none" stroke="none" stroke-width="0" stroke-linecap="round"/><path d="M229.17647,226.5956h21.97794" fill="none" stroke="#ffad00" stroke-width="2.5" stroke-linecap="round"/><path d="M228.81765,224.20831h22.78529" fill="none" stroke="#fff800" stroke-width="2.5" stroke-linecap="round"/><path d="M228.27941,221.89953h23.68236" fill="none" stroke="#00ff08" stroke-width="2.5" stroke-linecap="round"/><path d="M228.27941,219.82163h24.04118" fill="none" stroke="#005eff" stroke-width="2.5" stroke-linecap="round"/><path d="M228.1,217.28197h24.4" fill="none" stroke="#8000ff" stroke-width="2.5" stroke-linecap="round"/><path d="M233.86177,213.14999h16.14706" fill="none" stroke="none" stroke-width="0" stroke-linecap="round"/><path d="M229.37647,211.9956h21.97794" fill="none" stroke="#ffad00" stroke-width="2.5" stroke-linecap="round"/><path d="M229.01765,209.60831h22.7853" fill="none" stroke="#fff800" stroke-width="2.5" stroke-linecap="round"/><path d="M228.47941,207.29953h23.68236" fill="none" stroke="#00ff08" stroke-width="2.5" stroke-linecap="round"/><path d="M228.47941,205.22163h24.04118" fill="none" stroke="#005eff" stroke-width="2.5" stroke-linecap="round"/><path d="M228.3,202.68197h24.4" fill="none" stroke="#8000ff" stroke-width="2.5" stroke-linecap="round"/><path d="M233.86177,197.94999h16.14706" fill="none" stroke="none" stroke-width="0" stroke-linecap="round"/><path d="M229.37647,196.7956h21.97794" fill="none" stroke="#ffad00" stroke-width="2.5" stroke-linecap="round"/><path d="M229.01765,194.40831h22.7853" fill="none" stroke="#fff800" stroke-width="2.5" stroke-linecap="round"/><path d="M228.47941,192.09953h23.68236" fill="none" stroke="#00ff08" stroke-width="2.5" stroke-linecap="round"/><path d="M228.47941,190.02163h24.04118" fill="none" stroke="#005eff" stroke-width="2.5" stroke-linecap="round"/><path d="M228.3,187.48197h24.4" fill="none" stroke="#8000ff" stroke-width="2.5" stroke-linecap="round"/><path d="M233.66177,183.14999h16.14706" fill="none" stroke="none" stroke-width="0" stroke-linecap="round"/><path d="M229.17647,181.9956h21.97794" fill="none" stroke="#ffad00" stroke-width="2.5" stroke-linecap="round"/><path d="M228.81765,179.60831h22.78529" fill="none" stroke="#fff800" stroke-width="2.5" stroke-linecap="round"/><path d="M228.27941,177.29953h23.68236" fill="none" stroke="#00ff08" stroke-width="2.5" stroke-linecap="round"/><path d="M228.27941,175.22163h24.04118" fill="none" stroke="#005eff" stroke-width="2.5" stroke-linecap="round"/><path d="M228.1,172.68197h24.4" fill="none" stroke="#8000ff" stroke-width="2.5" stroke-linecap="round"/><path d="M233.66177,167.94999h16.14706" fill="none" stroke="none" stroke-width="0" stroke-linecap="round"/><path d="M229.17647,166.7956h21.97794" fill="none" stroke="#ffad00" stroke-width="2.5" stroke-linecap="round"/><path d="M228.81765,164.40831h22.78529" fill="none" stroke="#fff800" stroke-width="2.5" stroke-linecap="round"/><path d="M228.27941,162.09953h23.68236" fill="none" stroke="#00ff08" stroke-width="2.5" stroke-linecap="round"/><path d="M228.27941,160.02163h24.04118" fill="none" stroke="#005eff" stroke-width="2.5" stroke-linecap="round"/><path d="M228.1,157.48197h24.4" fill="none" stroke="#8000ff" stroke-width="2.5" stroke-linecap="round"/><path d="M233.86177,152.94999h16.14706" fill="none" stroke="none" stroke-width="0" stroke-linecap="round"/><path d="M229.37647,151.7956h21.97794" fill="none" stroke="#ffad00" stroke-width="2.5" stroke-linecap="round"/><path d="M229.01765,149.40831h22.7853" fill="none" stroke="#fff800" stroke-width="2.5" stroke-linecap="round"/><path d="M228.47941,147.09953h23.68236" fill="none" stroke="#00ff08" stroke-width="2.5" stroke-linecap="round"/><path d="M228.47941,145.02163h24.04118" fill="none" stroke="#005eff" stroke-width="2.5" stroke-linecap="round"/><path d="M228.3,142.48197h24.4" fill="none" stroke="#8000ff" stroke-width="2.5" stroke-linecap="round"/><path d="M233.86177,138.14998h16.14706" fill="none" stroke="none" stroke-width="0" stroke-linecap="round"/><path d="M229.37647,136.9956h21.97794" fill="none" stroke="#ffad00" stroke-width="2.5" stroke-linecap="round"/><path d="M229.01765,134.60831h22.7853" fill="none" stroke="#fff800" stroke-width="2.5" stroke-linecap="round"/><path d="M228.47941,132.29952h23.68236" fill="none" stroke="#00ff08" stroke-width="2.5" stroke-linecap="round"/><path d="M228.47941,130.22162h24.04118" fill="none" stroke="#005eff" stroke-width="2.5" stroke-linecap="round"/><path d="M228.3,127.68197h24.4" fill="none" stroke="#8000ff" stroke-width="2.5" stroke-linecap="round"/><path d="M233.66177,123.34999h16.14706" fill="none" stroke="none" stroke-width="0" stroke-linecap="round"/><path d="M229.17647,122.1956h21.97794" fill="none" stroke="#ffad00" stroke-width="2.5" stroke-linecap="round"/><path d="M228.81765,119.80831h22.78529" fill="none" stroke="#fff800" stroke-width="2.5" stroke-linecap="round"/><path d="M228.27941,117.49953h23.68236" fill="none" stroke="#00ff08" stroke-width="2.5" stroke-linecap="round"/><path d="M228.27941,115.42163h24.04118" fill="none" stroke="#005eff" stroke-width="2.5" stroke-linecap="round"/><path d="M228.1,112.88197h24.4" fill="none" stroke="#8000ff" stroke-width="2.5" stroke-linecap="round"/><path d="M233.86177,107.94999h16.14706" fill="none" stroke="none" stroke-width="0" stroke-linecap="round"/><path d="M229.37647,106.7956h21.97794" fill="none" stroke="#ffad00" stroke-width="2.5" stroke-linecap="round"/><path d="M229.01765,104.40831h22.7853" fill="none" stroke="#fff800" stroke-width="2.5" stroke-linecap="round"/><path d="M228.47941,102.09953h23.68236" fill="none" stroke="#00ff08" stroke-width="2.5" stroke-linecap="round"/><path d="M228.47941,100.02163h24.04118" fill="none" stroke="#005eff" stroke-width="2.5" stroke-linecap="round"/><path d="M228.3,97.48197h24.4" fill="none" stroke="#8000ff" stroke-width="2.5" stroke-linecap="round"/><path d="M233.66177,93.34999h16.14706" fill="none" stroke="none" stroke-width="0" stroke-linecap="round"/><path d="M229.17647,92.1956h21.97794" fill="none" stroke="#ffad00" stroke-width="2.5" stroke-linecap="round"/><path d="M228.81765,89.80831h22.78529" fill="none" stroke="#fff800" stroke-width="2.5" stroke-linecap="round"/><path d="M228.27941,87.49953h23.68236" fill="none" stroke="#00ff08" stroke-width="2.5" stroke-linecap="round"/><path d="M228.27941,85.42163h24.04118" fill="none" stroke="#005eff" stroke-width="2.5" stroke-linecap="round"/><path d="M228.1,82.88197h24.4" fill="none" stroke="#8000ff" stroke-width="2.5" stroke-linecap="round"/><path d="M233.86177,78.54999h16.14706" fill="none" stroke="none" stroke-width="0" stroke-linecap="round"/><path d="M229.37647,77.3956h21.97794" fill="none" stroke="#ffad00" stroke-width="2.5" stroke-linecap="round"/><path d="M229.01765,75.0083h22.7853" fill="none" stroke="#fff800" stroke-width="2.5" stroke-linecap="round"/><path d="M228.47941,72.69952h23.68236" fill="none" stroke="#00ff08" stroke-width="2.5" stroke-linecap="round"/><path d="M228.47941,70.62162h24.04118" fill="none" stroke="#005eff" stroke-width="2.5" stroke-linecap="round"/><path d="M228.3,68.08197h24.4" fill="none" stroke="#8000ff" stroke-width="2.5" stroke-linecap="round"/><path d="M233.66177,63.74999h16.14706" fill="none" stroke="none" stroke-width="0" stroke-linecap="round"/><path d="M229.17647,62.5956h21.97794" fill="none" stroke="#ffad00" stroke-width="2.5" stroke-linecap="round"/><path d="M228.81765,60.20831h22.78529" fill="none" stroke="#fff800" stroke-width="2.5" stroke-linecap="round"/><path d="M228.27941,57.89953h23.68236" fill="none" stroke="#00ff08" stroke-width="2.5" stroke-linecap="round"/><path d="M228.27941,55.82163h24.04118" fill="none" stroke="#005eff" stroke-width="2.5" stroke-linecap="round"/><path d="M228.1,53.28197h24.4" fill="none" stroke="#8000ff" stroke-width="2.5" stroke-linecap="round"/><path d="M233.46177,48.54999h16.14706" fill="none" stroke="none" stroke-width="0" stroke-linecap="round"/><path d="M228.97647,47.3956h21.97794" fill="none" stroke="#ffad00" stroke-width="2.5" stroke-linecap="round"/><path d="M228.61765,45.00831h22.78529" fill="none" stroke="#fff800" stroke-width="2.5" stroke-linecap="round"/><path d="M228.07941,42.69953h23.68236" fill="none" stroke="#00ff08" stroke-width="2.5" stroke-linecap="round"/><path d="M228.07941,40.62163h24.04118" fill="none" stroke="#005eff" stroke-width="2.5" stroke-linecap="round"/><path d="M227.9,38.08197h24.4" fill="none" stroke="#8000ff" stroke-width="2.5" stroke-linecap="round"/><path d="M232.83524,33.68314l15.88856,2.87771" fill="none" stroke="none" stroke-width="0" stroke-linecap="round"/><path d="M228.62749,31.74787l21.62609,3.91688" fill="none" stroke="#ffad00" stroke-width="2.5" stroke-linecap="round"/><path d="M228.69987,29.33484l22.42052,4.06077" fill="none" stroke="#fff800" stroke-width="2.5" stroke-linecap="round"/><path d="M251.88494,31.18774l-23.30323,-4.22064" fill="none" stroke="#00ff08" stroke-width="2.5" stroke-linecap="round"/><path d="M252.60834,29.20706l-23.6563,-4.28459" fill="none" stroke="#005eff" stroke-width="2.5" stroke-linecap="round"/><path d="M229.22811,22.3915l24.00938,4.34854" fill="none" stroke="#8000ff" stroke-width="2.5" stroke-linecap="round"/><path d="M254.18801,27.42595l-13.55052,-8.78128" fill="none" stroke="none" stroke-width="0" stroke-linecap="round"/><path d="M237.50125,15.23666l18.44376,11.9523" fill="none" stroke="#ffad00" stroke-width="2.5" stroke-linecap="round"/><path d="M238.49841,13.03812l19.12129,12.39137" fill="none" stroke="#fff800" stroke-width="2.5" stroke-linecap="round"/><path d="M239.30231,10.8079l19.8741,12.87922" fill="none" stroke="#00ff08" stroke-width="2.5" stroke-linecap="round"/><path d="M240.43234,9.06414l20.17521,13.07436" fill="none" stroke="#005eff" stroke-width="2.5" stroke-linecap="round"/><path d="M241.66292,6.8353l20.47634,13.2695" fill="none" stroke="#8000ff" stroke-width="2.5" stroke-linecap="round"/><path d="M253.11394,8.44103l11.83628,10.98318" fill="none" stroke="none" stroke-width="0" stroke-linecap="round"/><path d="M250.6113,4.54395l16.11048,14.94932" fill="none" stroke="#ffad00" stroke-width="2.5" stroke-linecap="round"/><path d="M251.97209,2.54993l16.70229,15.49848" fill="none" stroke="#fff800" stroke-width="2.5" stroke-linecap="round"/><path d="M253.14797,0.49142l17.35987,16.10866" fill="none" stroke="#00ff08" stroke-width="2.5" stroke-linecap="round"/><path d="M254.56136,-1.03174l17.62289,16.35273" fill="none" stroke="#005eff" stroke-width="2.5" stroke-linecap="round"/><path d="M274.04323,13.58138l-17.88592,-16.5968" fill="none" stroke="#8000ff" stroke-width="2.5" stroke-linecap="round"/><path d="M266.26105,-1.67435l8.08769,13.97558" fill="none" stroke="none" stroke-width="0" stroke-linecap="round"/><path d="M265.01362,-6.13466l11.00824,19.02232" fill="none" stroke="#ffad00" stroke-width="2.5" stroke-linecap="round"/><path d="M266.90013,-7.64097l11.41262,19.7211" fill="none" stroke="#fff800" stroke-width="2.5" stroke-linecap="round"/><path d="M268.62883,-9.26324l11.86194,20.49752" fill="none" stroke="#00ff08" stroke-width="2.5" stroke-linecap="round"/><path d="M282.46897,10.50408l-12.04166,-20.80809" fill="none" stroke="#005eff" stroke-width="2.5" stroke-linecap="round"/><path d="M272.53556,-11.73135l12.22139,21.11866" fill="none" stroke="#8000ff" stroke-width="2.5" stroke-linecap="round"/><path d="M286.67326,-5.21355l0.19648,16.14587" fill="none" stroke="none" stroke-width="0" stroke-linecap="round"/><path d="M287.77299,-9.71255l0.26743,21.97631" fill="none" stroke="#ffad00" stroke-width="2.5" stroke-linecap="round"/><path d="M290.43299,12.68321l-0.27725,-22.78361" fill="none" stroke="#fff800" stroke-width="2.5" stroke-linecap="round"/><path d="M292.74596,13.01391l-0.28817,-23.6806" fill="none" stroke="#00ff08" stroke-width="2.5" stroke-linecap="round"/><path d="M294.53555,-10.69197l0.29253,24.0394" fill="none" stroke="#005eff" stroke-width="2.5" stroke-linecap="round"/><path d="M297.07283,-10.90227l0.2969,24.39819" fill="none" stroke="#8000ff" stroke-width="2.5" stroke-linecap="round"/><path d="M303.06974,11.53232l-0.19648,-16.14587" fill="none" stroke="none" stroke-width="0" stroke-linecap="round"/><path d="M303.97299,-9.11255l0.26743,21.97631" fill="none" stroke="#ffad00" stroke-width="2.5" stroke-linecap="round"/><path d="M306.35574,-9.50041l0.27725,22.78361" fill="none" stroke="#fff800" stroke-width="2.5" stroke-linecap="round"/><path d="M308.65779,-10.06669l0.28817,23.6806" fill="none" stroke="#00ff08" stroke-width="2.5" stroke-linecap="round"/><path d="M310.73555,-10.09197l0.29253,24.0394" fill="none" stroke="#005eff" stroke-width="2.5" stroke-linecap="round"/><path d="M313.27283,-10.30227l0.2969,24.39819" fill="none" stroke="#8000ff" stroke-width="2.5" stroke-linecap="round"/><path d="M319.27326,-3.81355l0.19648,16.14587" fill="none" stroke="none" stroke-width="0" stroke-linecap="round"/><path d="M320.37299,-8.31255l0.26743,21.97631" fill="none" stroke="#ffad00" stroke-width="2.5" stroke-linecap="round"/><path d="M322.75574,-8.7004l0.27725,22.78361" fill="none" stroke="#fff800" stroke-width="2.5" stroke-linecap="round"/><path d="M325.05779,-9.26669l0.28817,23.6806" fill="none" stroke="#00ff08" stroke-width="2.5" stroke-linecap="round"/><path d="M327.13554,-9.29197l0.29253,24.0394" fill="none" stroke="#005eff" stroke-width="2.5" stroke-linecap="round"/><path d="M329.67283,-9.50227l0.2969,24.39819" fill="none" stroke="#8000ff" stroke-width="2.5" stroke-linecap="round"/><path d="M338.81841,-1.59603l-4.87659,15.39307" fill="none" stroke="none" stroke-width="0" stroke-linecap="round"/><path d="M341.27351,-5.52324l-6.63759,20.95166" fill="none" stroke="#ffad00" stroke-width="2.5" stroke-linecap="round"/><path d="M343.65769,-5.14432l-6.88143,21.72131" fill="none" stroke="#fff800" stroke-width="2.5" stroke-linecap="round"/><path d="M346.02121,-4.96014l-7.15235,22.57649" fill="none" stroke="#00ff08" stroke-width="2.5" stroke-linecap="round"/><path d="M348.00209,-4.33259l-7.26072,22.91856" fill="none" stroke="#005eff" stroke-width="2.5" stroke-linecap="round"/><path d="M350.47733,-3.73662l-7.36908,23.26062" fill="none" stroke="#8000ff" stroke-width="2.5" stroke-linecap="round"/><path d="M354.21841,4.60396l-4.8766,15.39307" fill="none" stroke="none" stroke-width="0" stroke-linecap="round"/><path d="M356.67351,0.67676l-6.63759,20.95166" fill="none" stroke="#ffad00" stroke-width="2.5" stroke-linecap="round"/><path d="M359.05769,1.05567l-6.88143,21.72132" fill="none" stroke="#fff800" stroke-width="2.5" stroke-linecap="round"/><path d="M361.42121,1.23986l-7.15234,22.57649" fill="none" stroke="#00ff08" stroke-width="2.5" stroke-linecap="round"/><path d="M363.40209,1.86741l-7.26072,22.91856" fill="none" stroke="#005eff" stroke-width="2.5" stroke-linecap="round"/><path d="M365.87733,2.46338l-7.36908,23.26062" fill="none" stroke="#8000ff" stroke-width="2.5" stroke-linecap="round"/><path d="M369.76997,10.90588l-7.80042,14.13793" fill="none" stroke="none" stroke-width="0" stroke-linecap="round"/><path d="M372.9475,7.53635l-10.61724,19.24328" fill="none" stroke="#ffad00" stroke-width="2.5" stroke-linecap="round"/><path d="M375.21109,8.37544l-11.00727,19.95018" fill="none" stroke="#fff800" stroke-width="2.5" stroke-linecap="round"/><path d="M377.4926,9.01951l-11.44061,20.73563" fill="none" stroke="#00ff08" stroke-width="2.5" stroke-linecap="round"/><path d="M379.31196,10.02333l-11.61397,21.0498" fill="none" stroke="#005eff" stroke-width="2.5" stroke-linecap="round"/><path d="M381.62229,11.0931l-11.78731,21.36398" fill="none" stroke="#8000ff" stroke-width="2.5" stroke-linecap="round"/><path d="M381.71977,29.18694l-15.91504,2.72746" fill="none" stroke="none" stroke-width="0" stroke-linecap="round"/><path d="M386.3356,29.56712l-21.66214,3.71237" fill="none" stroke="#ffad00" stroke-width="2.5" stroke-linecap="round"/><path d="M364.63463,35.70824l22.45789,-3.84874" fill="none" stroke="#fff800" stroke-width="2.5" stroke-linecap="round"/><path d="M388.013,34.04418l-23.34206,4.00027" fill="none" stroke="#00ff08" stroke-width="2.5" stroke-linecap="round"/><path d="M388.36398,36.09224l-23.69573,4.06087" fill="none" stroke="#005eff" stroke-width="2.5" stroke-linecap="round"/><path d="M388.9698,38.56509l-24.04939,4.12149" fill="none" stroke="#8000ff" stroke-width="2.5" stroke-linecap="round"/><path d="M382.5258,43.27289l-15.92784,2.65169" fill="none" stroke="none" stroke-width="0" stroke-linecap="round"/><path d="M365.46022,47.28426l21.67955,-3.60923" fill="none" stroke="#ffad00" stroke-width="2.5" stroke-linecap="round"/><path d="M365.40982,49.7128l22.47595,-3.74182" fill="none" stroke="#fff800" stroke-width="2.5" stroke-linecap="round"/><path d="M388.79584,48.16002l-23.36083,3.88914" fill="none" stroke="#00ff08" stroke-width="2.5" stroke-linecap="round"/><path d="M389.13708,50.20972l-23.71479,3.94806" fill="none" stroke="#005eff" stroke-width="2.5" stroke-linecap="round"/><path d="M389.73112,52.68543l-24.06874,4.00699" fill="none" stroke="#8000ff" stroke-width="2.5" stroke-linecap="round"/><path d="M385.21072,58.95083l-15.63352,-4.03987" fill="none" stroke="none" stroke-width="0" stroke-linecap="round"/><path d="M389.26454,61.19069l-21.27895,-5.49872" fill="none" stroke="#ffad00" stroke-width="2.5" stroke-linecap="round"/><path d="M389.01467,63.59183l-22.06063,-5.70072" fill="none" stroke="#fff800" stroke-width="2.5" stroke-linecap="round"/><path d="M388.95815,65.96183l-22.92916,-5.92515" fill="none" stroke="#00ff08" stroke-width="2.5" stroke-linecap="round"/><path d="M388.43827,67.97366l-23.27657,-6.01493" fill="none" stroke="#005eff" stroke-width="2.5" stroke-linecap="round"/><path d="M387.97658,70.47743l-23.62398,-6.1047" fill="none" stroke="#8000ff" stroke-width="2.5" stroke-linecap="round"/><path d="M367.57205,71.5708l-8.62811,-13.64857" fill="none" stroke="none" stroke-width="0" stroke-linecap="round"/><path d="M368.99298,75.97891l-11.7438,-18.57721" fill="none" stroke="#ffad00" stroke-width="2.5" stroke-linecap="round"/><path d="M367.16682,77.55785l-12.1752,-19.25964" fill="none" stroke="#fff800" stroke-width="2.5" stroke-linecap="round"/><path d="M365.50289,79.24648l-12.65455,-20.0179" fill="none" stroke="#00ff08" stroke-width="2.5" stroke-linecap="round"/><path d="M363.7465,80.3568l-12.84628,-20.32121" fill="none" stroke="#005eff" stroke-width="2.5" stroke-linecap="round"/><path d="M361.69569,81.86551l-13.03802,-20.6245" fill="none" stroke="#8000ff" stroke-width="2.5" stroke-linecap="round"/><path d="M353.66994,78.31797l-7.3737,-14.3651" fill="none" stroke="none" stroke-width="0" stroke-linecap="round"/><path d="M354.69119,82.83544l-10.03641,-19.5525" fill="none" stroke="#ffad00" stroke-width="2.5" stroke-linecap="round"/><path d="M352.73122,84.24485l-10.40509,-20.27076" fill="none" stroke="#fff800" stroke-width="2.5" stroke-linecap="round"/><path d="M350.92302,85.778l-10.81475,-21.06881" fill="none" stroke="#00ff08" stroke-width="2.5" stroke-linecap="round"/><path d="M349.07443,86.72689l-10.97861,-21.38804" fill="none" stroke="#005eff" stroke-width="2.5" stroke-linecap="round"/><path d="M346.89698,88.04626l-11.14246,-21.70727" fill="none" stroke="#8000ff" stroke-width="2.5" stroke-linecap="round"/><g fill="none" stroke-linecap="round"><path d="M338.07195,85.34833l-2.68407,-15.92242" stroke="none" stroke-width="0"/><path d="M337.67919,89.9631l-3.6533,-21.67217" stroke="#ffad00" stroke-width="2.5"/><path d="M335.38475,90.71377l-3.78749,-22.4683" stroke="#fff800" stroke-width="2.5"/><path d="M333.19757,91.62829l-3.93661,-23.35287" stroke="#00ff08" stroke-width="2.5"/><path d="M331.14857,91.97369l-3.99626,-23.70671" stroke="#005eff" stroke-width="2.5"/><path d="M328.67408,92.57277l-4.0559,-24.06053" stroke="#8000ff" stroke-width="2.5"/></g><g fill="none" stroke-linecap="round"><path d="M322.13707,85.81796l-0.49187,-16.13957" stroke="none" stroke-width="0"/><path d="M320.45036,68.36859l0.66949,21.96774" stroke="#ffad00" stroke-width="2.5"/><path d="M318.74458,90.76772l-0.69406,-22.77472" stroke="#fff800" stroke-width="2.5"/><path d="M316.45328,91.37602l-0.7214,-23.67135" stroke="#00ff08" stroke-width="2.5"/><path d="M314.37633,91.43932l-0.73233,-24.03002" stroke="#005eff" stroke-width="2.5"/><path d="M311.84333,91.69602l-0.74327,-24.38867" stroke="#8000ff" stroke-width="2.5"/></g><g fill="none" stroke-linecap="round"><path d="M306.33707,86.01796l-0.49187,-16.13957" stroke="none" stroke-width="0"/><path d="M305.31985,90.53633l-0.66949,-21.96774" stroke="#ffad00" stroke-width="2.5"/><path d="M302.94458,90.96772l-0.69406,-22.77472" stroke="#fff800" stroke-width="2.5"/><path d="M300.65328,91.57602l-0.7214,-23.67136" stroke="#00ff08" stroke-width="2.5"/><path d="M298.57633,91.63932l-0.73233,-24.03002" stroke="#005eff" stroke-width="2.5"/><path d="M295.30006,67.50735l0.74327,24.38867" stroke="#8000ff" stroke-width="2.5"/></g><g fill="none" stroke-linecap="round"><path d="M290.13707,86.21796l-0.49187,-16.13957" stroke="none" stroke-width="0"/><path d="M289.11985,90.73633l-0.66949,-21.96774" stroke="#ffad00" stroke-width="2.5"/><path d="M286.74458,91.16772l-0.69406,-22.77472" stroke="#fff800" stroke-width="2.5"/><path d="M284.45328,91.77602l-0.7214,-23.67136" stroke="#00ff08" stroke-width="2.5"/><path d="M282.37633,91.83932l-0.73233,-24.03002" stroke="#005eff" stroke-width="2.5"/><path d="M279.84333,92.09602l-0.74327,-24.38867" stroke="#8000ff" stroke-width="2.5"/></g><g fill="none" stroke-linecap="round"><path d="M273.53707,86.61796l-0.49188,-16.13957" stroke="none" stroke-width="0"/><path d="M272.51984,91.13633l-0.66949,-21.96774" stroke="#ffad00" stroke-width="2.5"/><path d="M270.14458,91.56772l-0.69407,-22.77472" stroke="#fff800" stroke-width="2.5"/><path d="M267.13188,68.50467l0.7214,23.67135" stroke="#00ff08" stroke-width="2.5"/><path d="M265.77633,92.23932l-0.73232,-24.03002" stroke="#005eff" stroke-width="2.5"/><path d="M263.24333,92.49602l-0.74327,-24.38867" stroke="#8000ff" stroke-width="2.5"/></g><g fill="none" stroke-linecap="round"><path d="M222.93707,84.41796l-0.49187,-16.13957" stroke="none" stroke-width="0"/><path d="M221.91985,88.93633l-0.66949,-21.96774" stroke="#ffad00" stroke-width="2.5"/><path d="M219.54458,89.36772l-0.69406,-22.77472" stroke="#fff800" stroke-width="2.5"/><path d="M217.25328,89.97602l-0.7214,-23.67136" stroke="#00ff08" stroke-width="2.5"/><path d="M215.17633,90.03932l-0.73233,-24.03002" stroke="#005eff" stroke-width="2.5"/><path d="M212.64333,90.29602l-0.74326,-24.38867" stroke="#8000ff" stroke-width="2.5"/></g><g fill="none" stroke-linecap="round"><path d="M207.44982,84.04966l-3.53658,-15.75501" stroke="none" stroke-width="0"/><path d="M207.30584,88.67888l-4.81367,-21.44431" stroke="#ffad00" stroke-width="2.5"/><path d="M205.0551,89.55187l-4.99049,-22.23206" stroke="#fff800" stroke-width="2.5"/><path d="M202.92027,90.5827l-5.18697,-23.10733" stroke="#00ff08" stroke-width="2.5"/><path d="M200.89281,91.03781l-5.26556,-23.45745" stroke="#005eff" stroke-width="2.5"/><path d="M198.45412,91.76911l-5.34416,-23.80755" stroke="#8000ff" stroke-width="2.5"/></g><g fill="none" stroke-linecap="round"><path d="M194.85376,87.53943l-5.03457,-15.34212" stroke="none" stroke-width="0"/><path d="M195.15541,92.16105l-6.85261,-20.88233" stroke="#ffad00" stroke-width="2.5"/><path d="M192.99899,93.24634l-7.10432,-21.64943" stroke="#fff800" stroke-width="2.5"/><path d="M190.97313,94.4776l-7.38403,-22.50176" stroke="#00ff08" stroke-width="2.5"/><path d="M188.9988,95.12549l-7.4959,-22.84272" stroke="#005eff" stroke-width="2.5"/><path d="M179.03392,72.90417l7.60778,23.18364" stroke="#8000ff" stroke-width="2.5"/></g><g fill="none" stroke-linecap="round"><path d="M179.85376,93.33943l-5.03457,-15.34213" stroke="none" stroke-width="0"/><path d="M180.15541,97.96105l-6.85261,-20.88233" stroke="#ffad00" stroke-width="2.5"/><path d="M177.99899,99.04634l-7.10432,-21.64943" stroke="#fff800" stroke-width="2.5"/><path d="M175.97313,100.2776l-7.38403,-22.50177" stroke="#00ff08" stroke-width="2.5"/><path d="M173.9988,100.92549l-7.4959,-22.84272" stroke="#005eff" stroke-width="2.5"/><path d="M171.6417,101.88781l-7.60778,-23.18364" stroke="#8000ff" stroke-width="2.5"/></g><g fill="none" stroke-linecap="round"><path d="M164.85376,98.33943l-5.03457,-15.34213" stroke="none" stroke-width="0"/><path d="M165.15541,102.96105l-6.85261,-20.88233" stroke="#ffad00" stroke-width="2.5"/><path d="M162.99899,104.04634l-7.10432,-21.64943" stroke="#fff800" stroke-width="2.5"/><path d="M160.97313,105.2776l-7.38403,-22.50177" stroke="#00ff08" stroke-width="2.5"/><path d="M158.9988,105.92549l-7.4959,-22.84272" stroke="#005eff" stroke-width="2.5"/><path d="M156.6417,106.88781l-7.60778,-23.18364" stroke="#8000ff" stroke-width="2.5"/></g><g fill="none" stroke-linecap="round"><path d="M150.05376,102.73943l-5.03457,-15.34212" stroke="none" stroke-width="0"/><path d="M150.3554,107.36105l-6.85261,-20.88233" stroke="#ffad00" stroke-width="2.5"/><path d="M148.19899,108.44634l-7.10433,-21.64944" stroke="#fff800" stroke-width="2.5"/><path d="M146.17313,109.6776l-7.38402,-22.50176" stroke="#00ff08" stroke-width="2.5"/><path d="M144.1988,110.32549l-7.4959,-22.84272" stroke="#005eff" stroke-width="2.5"/><path d="M141.8417,111.28781l-7.60779,-23.18365" stroke="#8000ff" stroke-width="2.5"/></g><g fill="none" stroke-linecap="round"><path d="M135.43727,107.02302l-7.81039,-14.13242" stroke="none" stroke-width="0"/><path d="M136.59646,111.50707l-10.63081,-19.23579" stroke="#ffad00" stroke-width="2.5"/><path d="M134.68059,112.97587l-11.02132,-19.94242" stroke="#fff800" stroke-width="2.5"/><path d="M132.92022,114.5637l-11.45523,-20.72754" stroke="#00ff08" stroke-width="2.5"/><path d="M131.10156,115.5688l-11.62879,-21.04161" stroke="#005eff" stroke-width="2.5"/><path d="M117.16322,95.59861l11.80235,21.35566" stroke="#8000ff" stroke-width="2.5"/></g><g fill="none" stroke-linecap="round"><path d="M127.95203,119.18111l-10.59181,-12.18774" stroke="none" stroke-width="0"/><path d="M130.02288,123.32382l-14.41664,-16.58886" stroke="#ffad00" stroke-width="2.5"/><path d="M128.45633,125.16064l-14.94622,-17.19826" stroke="#fff800" stroke-width="2.5"/><path d="M127.06673,127.08135l-15.53465,-17.87534" stroke="#00ff08" stroke-width="2.5"/><path d="M125.49833,128.44438l-15.77003,-18.1462" stroke="#005eff" stroke-width="2.5"/><path d="M123.69911,130.2457l-16.0054,-18.41702" stroke="#8000ff" stroke-width="2.5"/></g><g fill="none" stroke-linecap="round"><path d="M109.32392,122.41356l14.41408,7.27749" stroke="none" stroke-width="0"/><path d="M127.22163,132.74306l-19.61917,-9.90547" stroke="#ffad00" stroke-width="2.5"/><path d="M126.46599,135.03587l-20.33987,-10.26934" stroke="#fff800" stroke-width="2.5"/><path d="M125.90588,137.33944l-21.14063,-10.67365" stroke="#00ff08" stroke-width="2.5"/><path d="M124.96937,139.19434l-21.46096,-10.83538" stroke="#005eff" stroke-width="2.5"/><path d="M123.98491,141.54228l-21.78127,-10.9971" stroke="#8000ff" stroke-width="2.5"/></g><g fill="none" stroke-linecap="round"><path d="M119.03727,142.52713l-15.11741,-5.67377" stroke="none" stroke-width="0"/><path d="M122.83092,145.18395l-20.57647,-7.72262" stroke="#ffad00" stroke-width="2.5"/><path d="M122.32802,147.5451l-21.33233,-8.00632" stroke="#fff800" stroke-width="2.5"/><path d="M122.02066,149.89577l-22.17217,-8.32153" stroke="#00ff08" stroke-width="2.5"/><path d="M121.29053,151.84118l-22.50813,-8.44762" stroke="#005eff" stroke-width="2.5"/><path d="M120.56612,154.28193l-22.84406,-8.5737" stroke="#8000ff" stroke-width="2.5"/></g><g fill="none" stroke-linecap="round"><path d="M114.63727,156.92713l-15.11741,-5.67377" stroke="none" stroke-width="0"/><path d="M118.43092,159.58395l-20.57646,-7.72262" stroke="#ffad00" stroke-width="2.5"/><path d="M117.92802,161.9451l-21.33233,-8.00632" stroke="#fff800" stroke-width="2.5"/><path d="M95.44849,155.97425l22.17217,8.32153" stroke="#00ff08" stroke-width="2.5"/><path d="M116.89053,166.24118l-22.50813,-8.44762" stroke="#005eff" stroke-width="2.5"/><path d="M116.16612,168.68193l-22.84406,-8.5737" stroke="#8000ff" stroke-width="2.5"/></g><g fill="none" stroke-linecap="round"><path d="M110.23727,171.92713l-15.1174,-5.67377" stroke="none" stroke-width="0"/><path d="M114.03092,174.58395l-20.57646,-7.72262" stroke="#ffad00" stroke-width="2.5"/><path d="M113.52802,176.9451l-21.33233,-8.00632" stroke="#fff800" stroke-width="2.5"/><path d="M113.22066,179.29578l-22.17217,-8.32153" stroke="#00ff08" stroke-width="2.5"/><path d="M112.49053,181.24118l-22.50814,-8.44762" stroke="#005eff" stroke-width="2.5"/><path d="M111.76612,183.68193l-22.84406,-8.5737" stroke="#8000ff" stroke-width="2.5"/></g><g fill="none" stroke-linecap="round"><path d="M89.31986,179.65336l15.11741,5.67377" stroke="none" stroke-width="0"/><path d="M108.23092,187.98395l-20.57646,-7.72262" stroke="#ffad00" stroke-width="2.5"/><path d="M107.72802,190.3451l-21.33233,-8.00632" stroke="#fff800" stroke-width="2.5"/><path d="M107.42066,192.69578l-22.17217,-8.32154" stroke="#00ff08" stroke-width="2.5"/><path d="M106.69053,194.64118l-22.50813,-8.44762" stroke="#005eff" stroke-width="2.5"/><path d="M105.96612,197.08193l-22.84406,-8.5737" stroke="#8000ff" stroke-width="2.5"/></g><g fill="none" stroke-linecap="round"><path d="M98.63727,199.52713l-15.11741,-5.67377" stroke="none" stroke-width="0"/><path d="M102.43092,202.18395l-20.57646,-7.72262" stroke="#ffad00" stroke-width="2.5"/><path d="M101.92802,204.5451l-21.33233,-8.00632" stroke="#fff800" stroke-width="2.5"/><path d="M101.62066,206.89578l-22.17217,-8.32153" stroke="#00ff08" stroke-width="2.5"/><path d="M100.89053,208.84118l-22.50813,-8.44762" stroke="#005eff" stroke-width="2.5"/><path d="M77.32206,202.70823l22.84406,8.5737" stroke="#8000ff" stroke-width="2.5"/></g><g fill="none" stroke-linecap="round"><path d="M93.19962,213.22988l-16.14704,0.02891" stroke="none" stroke-width="0"/><path d="M97.68698,214.37623l-21.97791,0.03935" stroke="#ffad00" stroke-width="2.5"/><path d="M98.05008,216.76289l-22.78526,0.04079" stroke="#fff800" stroke-width="2.5"/><path d="M98.59243,219.0707l-23.6823,0.04238" stroke="#00ff08" stroke-width="2.5"/><path d="M98.59616,221.1486l-24.04114,0.04303" stroke="#005eff" stroke-width="2.5"/><path d="M98.78012,223.68792l-24.39995,0.04368" stroke="#8000ff" stroke-width="2.5"/></g><g fill="none" stroke-linecap="round"><path d="M92.99962,227.82988l-16.14703,0.02891" stroke="none" stroke-width="0"/><path d="M97.48698,228.97623l-21.97791,0.03935" stroke="#ffad00" stroke-width="2.5"/><path d="M97.85008,231.36289l-22.78526,0.04079" stroke="#fff800" stroke-width="2.5"/><path d="M74.71013,233.71308l23.6823,-0.04238" stroke="#00ff08" stroke-width="2.5"/><path d="M98.39616,235.7486l-24.04114,0.04303" stroke="#005eff" stroke-width="2.5"/><path d="M98.58012,238.28792l-24.39995,0.04367" stroke="#8000ff" stroke-width="2.5"/></g><g fill="none" stroke-linecap="round"><path d="M93.39962,242.82988l-16.14704,0.02891" stroke="none" stroke-width="0"/><path d="M97.88698,243.97623l-21.97791,0.03935" stroke="#ffad00" stroke-width="2.5"/><path d="M75.46483,246.40368l22.78525,-0.04079" stroke="#fff800" stroke-width="2.5"/><path d="M98.79243,248.6707l-23.6823,0.04238" stroke="#00ff08" stroke-width="2.5"/><path d="M98.79616,250.7486l-24.04114,0.04303" stroke="#005eff" stroke-width="2.5"/><path d="M98.98012,253.28792l-24.39995,0.04367" stroke="#8000ff" stroke-width="2.5"/></g><g fill="none" stroke-linecap="round"><path d="M81.61789,252.06396l13.23806,9.24562" stroke="none" stroke-width="0"/><path d="M97.8722,264.82421l-18.01846,-12.58431" stroke="#ffad00" stroke-width="2.5"/><path d="M96.79944,266.98689l-18.68036,-13.0466" stroke="#fff800" stroke-width="2.5"/><path d="M95.91872,269.18791l-19.41579,-13.56025" stroke="#00ff08" stroke-width="2.5"/><path d="M94.72894,270.89147l-19.70999,-13.76571" stroke="#005eff" stroke-width="2.5"/><path d="M93.42186,273.07631l-20.00415,-13.97116" stroke="#8000ff" stroke-width="2.5"/></g><g fill="none" stroke-linecap="round"><path d="M74.58297,271.59864l-2.63192,-15.93112" stroke="none" stroke-width="0"/><path d="M74.17511,276.21211l-3.58235,-21.68401" stroke="#ffad00" stroke-width="2.5"/><path d="M71.87822,276.95526l-3.71393,-22.48057" stroke="#fff800" stroke-width="2.5"/><path d="M69.68805,277.86261l-3.86013,-23.36563" stroke="#00ff08" stroke-width="2.5"/><path d="M67.63794,278.20131l-3.91864,-23.71966" stroke="#005eff" stroke-width="2.5"/><path d="M65.1615,278.79228l-3.97712,-24.07368" stroke="#8000ff" stroke-width="2.5"/></g><g fill="none" stroke-linecap="round"><path d="M59.58297,273.99864l-2.63193,-15.93112" stroke="none" stroke-width="0"/><path d="M59.17511,278.61211l-3.58234,-21.68401" stroke="#ffad00" stroke-width="2.5"/><path d="M56.87822,279.35526l-3.71393,-22.48057" stroke="#fff800" stroke-width="2.5"/><path d="M54.68805,280.26261l-3.86013,-23.36563" stroke="#00ff08" stroke-width="2.5"/><path d="M52.63794,280.60131l-3.91864,-23.71967" stroke="#005eff" stroke-width="2.5"/><path d="M50.1615,281.19228l-3.97712,-24.07367" stroke="#8000ff" stroke-width="2.5"/></g><g fill="none" stroke-linecap="round"><path d="M44.58297,276.99864l-2.63193,-15.93112" stroke="none" stroke-width="0"/><path d="M44.17511,281.61211l-3.58234,-21.68401" stroke="#ffad00" stroke-width="2.5"/><path d="M41.87822,282.35526l-3.71393,-22.48057" stroke="#fff800" stroke-width="2.5"/><path d="M39.68805,283.26261l-3.86013,-23.36563" stroke="#00ff08" stroke-width="2.5"/><path d="M37.63794,283.60131l-3.91864,-23.71967" stroke="#005eff" stroke-width="2.5"/><path d="M35.1615,284.19228l-3.97712,-24.07367" stroke="#8000ff" stroke-width="2.5"/></g><g fill="none" stroke-linecap="round"><path d="M29.18297,279.39864l-2.63192,-15.93112" stroke="none" stroke-width="0"/><path d="M28.77511,284.01211l-3.58234,-21.68401" stroke="#ffad00" stroke-width="2.5"/><path d="M26.47822,284.75526l-3.71393,-22.48057" stroke="#fff800" stroke-width="2.5"/><path d="M24.28805,285.66261l-3.86013,-23.36562" stroke="#00ff08" stroke-width="2.5"/><path d="M22.23794,286.00131l-3.91864,-23.71966" stroke="#005eff" stroke-width="2.5"/><path d="M19.7615,286.59228l-3.97712,-24.07368" stroke="#8000ff" stroke-width="2.5"/></g><g fill="none" stroke-linecap="round"><path d="M14.38297,282.59864l-2.63193,-15.93112" stroke="none" stroke-width="0"/><path d="M13.97511,287.21211l-3.58234,-21.68401" stroke="#ffad00" stroke-width="2.5"/><path d="M11.67822,287.95526l-3.71393,-22.48057" stroke="#fff800" stroke-width="2.5"/><path d="M9.48805,288.86261l-3.86013,-23.36563" stroke="#00ff08" stroke-width="2.5"/><path d="M7.43794,289.20131l-3.91864,-23.71966" stroke="#005eff" stroke-width="2.5"/><path d="M4.9615,289.79228l-3.97712,-24.07367" stroke="#8000ff" stroke-width="2.5"/></g><g fill="none" stroke-linecap="round"><path d="M-1.61703,285.59864l-2.63193,-15.93112" stroke="none" stroke-width="0"/><path d="M-2.02489,290.21211l-3.58234,-21.68401" stroke="#ffad00" stroke-width="2.5"/><path d="M-4.32178,290.95526l-3.71393,-22.48057" stroke="#fff800" stroke-width="2.5"/><path d="M-6.51195,291.86261l-3.86014,-23.36563" stroke="#00ff08" stroke-width="2.5"/><path d="M-8.56206,292.20131l-3.91863,-23.71966" stroke="#005eff" stroke-width="2.5"/><path d="M-11.0385,292.79228l-3.97712,-24.07367" stroke="#8000ff" stroke-width="2.5"/></g><g fill="none" stroke-linecap="round"><path d="M-16.81703,288.19864l-2.63192,-15.93112" stroke="none" stroke-width="0"/><path d="M-17.22489,292.81211l-3.58234,-21.68402" stroke="#ffad00" stroke-width="2.5"/><path d="M-19.52178,293.55526l-3.71393,-22.48057" stroke="#fff800" stroke-width="2.5"/><path d="M-21.71195,294.46261l-3.86013,-23.36562" stroke="#00ff08" stroke-width="2.5"/><path d="M-23.76206,294.80131l-3.91864,-23.71967" stroke="#005eff" stroke-width="2.5"/><path d="M-26.2385,295.39228l-3.97712,-24.07368" stroke="#8000ff" stroke-width="2.5"/></g><g fill="none" stroke-linecap="round"><path d="M-31.37464,288.97573l-7.62389,-14.2339" stroke="none" stroke-width="0"/><path d="M-40.65147,274.10072l10.37696,19.37391" stroke="#ffad00" stroke-width="2.5"/><path d="M-32.20954,294.91812l-10.75814,-20.08561" stroke="#fff800" stroke-width="2.5"/><path d="M-33.99063,296.48267l-11.18168,-20.87638" stroke="#00ff08" stroke-width="2.5"/><path d="M-35.82234,297.46376l-11.35111,-21.19269" stroke="#005eff" stroke-width="2.5"/><path d="M-37.97636,298.82102l-11.52052,-21.50899" stroke="#8000ff" stroke-width="2.5"/></g><g fill="none" stroke-linecap="round"><path d="M-39.82983,300.44063l-12.31713,-10.44108" stroke="none" stroke-width="0"/><path d="M-37.15486,304.2215l-16.76498,-14.21145" stroke="#ffad00" stroke-width="2.5"/><path d="M-38.42483,306.27458l-17.38083,-14.73351" stroke="#fff800" stroke-width="2.5"/><path d="M-39.50718,308.38377l-18.06509,-15.31357" stroke="#00ff08" stroke-width="2.5"/><path d="M-40.85079,309.96882l-18.33883,-15.54559" stroke="#005eff" stroke-width="2.5"/><path d="M-42.35613,312.02209l-18.61253,-15.77761" stroke="#8000ff" stroke-width="2.5"/></g><g fill="none" stroke-linecap="round"><path d="M-46.54584,311.44439l-13.37523,-9.04604" stroke="none" stroke-width="0"/><path d="M-43.47722,314.9134l-18.20516,-12.31267" stroke="#ffad00" stroke-width="2.5"/><path d="M-44.51743,317.09191l-18.87392,-12.76497" stroke="#fff800" stroke-width="2.5"/><path d="M-45.36504,319.3059l-19.61697,-13.26754" stroke="#00ff08" stroke-width="2.5"/><path d="M-46.52914,321.02711l-19.91422,-13.46856" stroke="#005eff" stroke-width="2.5"/><path d="M-68.01473,309.56173l20.21143,13.66957" stroke="#8000ff" stroke-width="2.5"/></g><g fill="none" stroke-linecap="round"><path d="M-52.29759,321.15177l-15.76694,-3.48301" stroke="none" stroke-width="0"/><path d="M-48.1669,323.24648l-21.46054,-4.74076" stroke="#ffad00" stroke-width="2.5"/><path d="M-48.33148,325.65499l-22.24889,-4.91492" stroke="#fff800" stroke-width="2.5"/><path d="M-48.30394,328.02551l-23.12481,-5.10843" stroke="#00ff08" stroke-width="2.5"/><path d="M-48.75215,330.05449l-23.47521,-5.18582" stroke="#005eff" stroke-width="2.5"/><path d="M-49.12477,332.57305l-23.82557,-5.26323" stroke="#8000ff" stroke-width="2.5"/></g><g fill="none" stroke-linecap="round"><path d="M-50.12064,331.45574l-15.77561,3.44349" stroke="none" stroke-width="0"/><path d="M-45.49235,331.62704l-21.47235,4.68697" stroke="#ffad00" stroke-width="2.5"/><path d="M-44.63267,333.88291l-22.26114,4.85913" stroke="#fff800" stroke-width="2.5"/><path d="M-43.61445,336.0238l-23.13755,5.05042" stroke="#00ff08" stroke-width="2.5"/><path d="M-43.17132,338.0539l-23.48813,5.12696" stroke="#005eff" stroke-width="2.5"/><path d="M-42.45444,340.49685l-23.83869,5.20348" stroke="#8000ff" stroke-width="2.5"/></g><g fill="none" stroke-linecap="round"><path d="M-46.56298,344.19435l-14.98792,6.00749" stroke="none" stroke-width="0"/><path d="M-41.97019,343.59712l-20.40021,8.17686" stroke="#ffad00" stroke-width="2.5"/><path d="M-40.74894,345.67955l-21.14962,8.47722" stroke="#fff800" stroke-width="2.5"/><path d="M-39.39037,347.62234l-21.98227,8.81095" stroke="#00ff08" stroke-width="2.5"/><path d="M-60.93263,358.49555l22.31534,-8.94447" stroke="#005eff" stroke-width="2.5"/><path d="M-37.50588,351.84165l-22.6484,9.07797" stroke="#8000ff" stroke-width="2.5"/></g><g fill="none" stroke-linecap="round"><path d="M-33.57734,348.1161l2.96397,15.8727" stroke="none" stroke-width="0"/><path d="M-33.2659,343.49512l4.03429,21.60449" stroke="#ffad00" stroke-width="2.5"/><path d="M-30.98501,342.70418l4.18247,22.39814" stroke="#fff800" stroke-width="2.5"/><path d="M-28.81426,341.75129l4.34711,23.27995" stroke="#00ff08" stroke-width="2.5"/><path d="M-26.77167,341.36987l4.413,23.63268" stroke="#005eff" stroke-width="2.5"/><path d="M-19.82926,364.71272l-4.47886,-23.98539" stroke="#8000ff" stroke-width="2.5"/></g><g fill="none" stroke-linecap="round"><path d="M-16.97734,345.3161l2.96397,15.8727" stroke="none" stroke-width="0"/><path d="M-16.6659,340.69512l4.03429,21.6045" stroke="#ffad00" stroke-width="2.5"/><path d="M-14.38501,339.90418l4.18246,22.39814" stroke="#fff800" stroke-width="2.5"/><path d="M-12.21426,338.95129l4.34711,23.27995" stroke="#00ff08" stroke-width="2.5"/><path d="M-10.17167,338.56987l4.41301,23.63268" stroke="#005eff" stroke-width="2.5"/><path d="M-7.70812,337.92733l4.47887,23.98539" stroke="#8000ff" stroke-width="2.5"/></g><g fill="none" stroke-linecap="round"><path d="M15.62266,340.7161l2.96397,15.8727" stroke="none" stroke-width="0"/><path d="M15.9341,336.09512l4.03429,21.60449" stroke="#ffad00" stroke-width="2.5"/><path d="M18.21498,335.30418l4.18247,22.39814" stroke="#fff800" stroke-width="2.5"/><path d="M20.38574,334.35129l4.34711,23.27995" stroke="#00ff08" stroke-width="2.5"/><path d="M22.42833,333.96987l4.413,23.63268" stroke="#005eff" stroke-width="2.5"/><path d="M24.89188,333.32732l4.47886,23.9854" stroke="#8000ff" stroke-width="2.5"/></g><g fill="none" stroke-linecap="round"><path d="M-2.77734,342.5161l2.96397,15.8727" stroke="none" stroke-width="0"/><path d="M-2.4659,337.89512l4.03429,21.60449" stroke="#ffad00" stroke-width="2.5"/><path d="M-0.18501,337.10418l4.18247,22.39814" stroke="#fff800" stroke-width="2.5"/><path d="M1.98574,336.15129l4.34711,23.27995" stroke="#00ff08" stroke-width="2.5"/><path d="M4.02833,335.76987l4.41301,23.63268" stroke="#005eff" stroke-width="2.5"/><path d="M6.49188,335.12733l4.47887,23.9854" stroke="#8000ff" stroke-width="2.5"/></g><g fill="none" stroke-linecap="round"><path d="M31.82266,338.5161l2.96397,15.8727" stroke="none" stroke-width="0"/><path d="M32.1341,333.89512l4.03429,21.60449" stroke="#ffad00" stroke-width="2.5"/><path d="M34.41499,333.10418l4.18247,22.39814" stroke="#fff800" stroke-width="2.5"/><path d="M36.58574,332.15129l4.34712,23.27995" stroke="#00ff08" stroke-width="2.5"/><path d="M38.62832,331.76987l4.41301,23.63268" stroke="#005eff" stroke-width="2.5"/><path d="M41.09188,331.12733l4.47886,23.9854" stroke="#8000ff" stroke-width="2.5"/></g><g fill="none" stroke-linecap="round"><path d="M47.02266,336.3161l2.96397,15.8727" stroke="none" stroke-width="0"/><path d="M47.3341,331.69512l4.03429,21.6045" stroke="#ffad00" stroke-width="2.5"/><path d="M49.61499,330.90418l4.18247,22.39814" stroke="#fff800" stroke-width="2.5"/><path d="M51.78574,329.95129l4.34711,23.27995" stroke="#00ff08" stroke-width="2.5"/><path d="M53.82833,329.56987l4.413,23.63268" stroke="#005eff" stroke-width="2.5"/><path d="M56.29188,328.92733l4.47886,23.98539" stroke="#8000ff" stroke-width="2.5"/></g><g fill="none" stroke-linecap="round"><path d="M62.82266,333.7161l2.96397,15.8727" stroke="none" stroke-width="0"/><path d="M63.1341,329.09512l4.03429,21.60449" stroke="#ffad00" stroke-width="2.5"/><path d="M65.41499,328.30418l4.18246,22.39814" stroke="#fff800" stroke-width="2.5"/><path d="M67.58574,327.35129l4.34712,23.27995" stroke="#00ff08" stroke-width="2.5"/><path d="M69.62833,326.96987l4.413,23.63268" stroke="#005eff" stroke-width="2.5"/><path d="M72.09188,326.32732l4.47886,23.9854" stroke="#8000ff" stroke-width="2.5"/></g><g fill="none" stroke-linecap="round"><path d="M78.82266,331.5161l2.96397,15.8727" stroke="none" stroke-width="0"/><path d="M79.1341,326.89512l4.03429,21.60449" stroke="#ffad00" stroke-width="2.5"/><path d="M81.41499,326.10418l4.18246,22.39814" stroke="#fff800" stroke-width="2.5"/><path d="M83.58574,325.15129l4.34712,23.27995" stroke="#00ff08" stroke-width="2.5"/><path d="M85.62833,324.76987l4.413,23.63268" stroke="#005eff" stroke-width="2.5"/><path d="M88.09188,324.12733l4.47886,23.9854" stroke="#8000ff" stroke-width="2.5"/></g><g fill="none" stroke-linecap="round"><path d="M95.02266,329.7161l2.96397,15.8727" stroke="none" stroke-width="0"/><path d="M95.3341,325.09512l4.03429,21.60449" stroke="#ffad00" stroke-width="2.5"/><path d="M97.61499,324.30418l4.18246,22.39814" stroke="#fff800" stroke-width="2.5"/><path d="M99.78574,323.35129l4.34712,23.27995" stroke="#00ff08" stroke-width="2.5"/><path d="M101.82833,322.96987l4.413,23.63268" stroke="#005eff" stroke-width="2.5"/><path d="M104.29188,322.32732l4.47886,23.9854" stroke="#8000ff" stroke-width="2.5"/></g><g fill="none" stroke-linecap="round"><path d="M111.82266,326.7161l2.96397,15.8727" stroke="none" stroke-width="0"/><path d="M112.1341,322.09512l4.03429,21.60449" stroke="#ffad00" stroke-width="2.5"/><path d="M114.41499,321.30418l4.18246,22.39814" stroke="#fff800" stroke-width="2.5"/><path d="M116.58574,320.35129l4.34712,23.27995" stroke="#00ff08" stroke-width="2.5"/><path d="M118.62833,319.96987l4.413,23.63268" stroke="#005eff" stroke-width="2.5"/><path d="M121.09188,319.32732l4.47886,23.9854" stroke="#8000ff" stroke-width="2.5"/></g><g fill="none" stroke-linecap="round"><path d="M127.42266,324.7161l2.96397,15.8727" stroke="none" stroke-width="0"/><path d="M127.7341,320.09512l4.03429,21.60449" stroke="#ffad00" stroke-width="2.5"/><path d="M130.01499,319.30418l4.18247,22.39814" stroke="#fff800" stroke-width="2.5"/><path d="M132.18574,318.35129l4.34712,23.27995" stroke="#00ff08" stroke-width="2.5"/><path d="M134.22833,317.96987l4.413,23.63268" stroke="#005eff" stroke-width="2.5"/><path d="M136.69188,317.32732l4.47887,23.9854" stroke="#8000ff" stroke-width="2.5"/></g><g fill="none" stroke-linecap="round"><path d="M143.02265,322.5161l2.96397,15.8727" stroke="none" stroke-width="0"/><path d="M143.3341,317.89512l4.03429,21.60449" stroke="#ffad00" stroke-width="2.5"/><path d="M145.61498,317.10418l4.18247,22.39814" stroke="#fff800" stroke-width="2.5"/><path d="M147.78573,316.15129l4.34712,23.27995" stroke="#00ff08" stroke-width="2.5"/><path d="M149.82833,315.76987l4.413,23.63268" stroke="#005eff" stroke-width="2.5"/><path d="M152.29188,315.12733l4.47887,23.9854" stroke="#8000ff" stroke-width="2.5"/></g><g fill="none" stroke-linecap="round"><path d="M157.16124,320.21137l7.25089,14.42748" stroke="none" stroke-width="0"/><path d="M156.17855,315.68537l9.86927,19.63739" stroke="#ffad00" stroke-width="2.5"/><path d="M158.15049,314.29273l10.2318,20.35878" stroke="#fff800" stroke-width="2.5"/><path d="M159.9717,312.77505l10.63461,21.1603" stroke="#00ff08" stroke-width="2.5"/><path d="M161.82832,311.84196l10.79576,21.48092" stroke="#005eff" stroke-width="2.5"/><path d="M164.01693,310.54122l10.95689,21.80151" stroke="#8000ff" stroke-width="2.5"/></g><g fill="none" stroke-linecap="round"><path d="M177.39852,315.40513l0.21091,16.14569" stroke="none" stroke-width="0"/><path d="M178.49421,310.90515l0.28708,21.97606" stroke="#ffad00" stroke-width="2.5"/><path d="M180.87663,310.51517l0.29761,22.78335" stroke="#fff800" stroke-width="2.5"/><path d="M183.17818,309.94683l0.30931,23.68032" stroke="#00ff08" stroke-width="2.5"/><path d="M185.25591,309.91969l0.31402,24.03913" stroke="#005eff" stroke-width="2.5"/><path d="M187.79299,309.70712l0.3187,24.39791" stroke="#8000ff" stroke-width="2.5"/></g><g fill="none" stroke-linecap="round"><path d="M193.39852,315.40513l0.21091,16.14569" stroke="none" stroke-width="0"/><path d="M194.49421,310.90515l0.28708,21.97606" stroke="#ffad00" stroke-width="2.5"/><path d="M196.87663,310.51517l0.29761,22.78335" stroke="#fff800" stroke-width="2.5"/><path d="M199.17818,309.94683l0.30931,23.68032" stroke="#00ff08" stroke-width="2.5"/><path d="M201.25591,309.91969l0.31402,24.03913" stroke="#005eff" stroke-width="2.5"/><path d="M203.79299,309.70712l0.3187,24.39791" stroke="#8000ff" stroke-width="2.5"/></g><g fill="none" stroke-linecap="round"><path d="M207.99852,315.80513l0.21091,16.14568" stroke="none" stroke-width="0"/><path d="M209.09421,311.30515l0.28708,21.97606" stroke="#ffad00" stroke-width="2.5"/><path d="M211.47663,310.91517l0.29761,22.78335" stroke="#fff800" stroke-width="2.5"/><path d="M213.77818,310.34683l0.30931,23.68032" stroke="#00ff08" stroke-width="2.5"/><path d="M215.85591,310.31969l0.31402,24.03913" stroke="#005eff" stroke-width="2.5"/><path d="M218.39299,310.10712l0.3187,24.3979" stroke="#8000ff" stroke-width="2.5"/></g><g fill="none" stroke-linecap="round"><path d="M222.79852,315.60513l0.21091,16.14569" stroke="none" stroke-width="0"/><path d="M223.89421,311.10515l0.28708,21.97606" stroke="#ffad00" stroke-width="2.5"/><path d="M226.27663,310.71517l0.2976,22.78335" stroke="#fff800" stroke-width="2.5"/><path d="M228.57818,310.14682l0.30931,23.68032" stroke="#00ff08" stroke-width="2.5"/><path d="M230.65591,310.11969l0.31402,24.03913" stroke="#005eff" stroke-width="2.5"/><path d="M233.19299,309.90711l0.3187,24.39791" stroke="#8000ff" stroke-width="2.5"/></g><g fill="none" stroke-linecap="round"><path d="M238.59852,316.00513l0.21091,16.14569" stroke="none" stroke-width="0"/><path d="M239.69421,311.50515l0.28708,21.97606" stroke="#ffad00" stroke-width="2.5"/><path d="M242.07663,311.11517l0.29761,22.78336" stroke="#fff800" stroke-width="2.5"/><path d="M244.37818,310.54683l0.30931,23.68032" stroke="#00ff08" stroke-width="2.5"/><path d="M246.45591,310.51968l0.31402,24.03913" stroke="#005eff" stroke-width="2.5"/><path d="M248.99299,310.30712l0.3187,24.3979" stroke="#8000ff" stroke-width="2.5"/></g><g fill="none" stroke-linecap="round"><path d="M253.79852,316.00513l0.21091,16.14569" stroke="none" stroke-width="0"/><path d="M254.89421,311.50515l0.28708,21.97606" stroke="#ffad00" stroke-width="2.5"/><path d="M257.27663,311.11517l0.2976,22.78336" stroke="#fff800" stroke-width="2.5"/><path d="M259.57818,310.54683l0.30931,23.68032" stroke="#00ff08" stroke-width="2.5"/><path d="M261.65591,310.51968l0.31402,24.03913" stroke="#005eff" stroke-width="2.5"/><path d="M264.19299,310.30712l0.3187,24.3979" stroke="#8000ff" stroke-width="2.5"/></g><g fill="none" stroke-linecap="round"><path d="M269.39851,315.80513l0.21091,16.14568" stroke="none" stroke-width="0"/><path d="M270.49421,311.30515l0.28708,21.97606" stroke="#ffad00" stroke-width="2.5"/><path d="M272.87663,310.91517l0.29761,22.78335" stroke="#fff800" stroke-width="2.5"/><path d="M275.17818,310.34683l0.30931,23.68032" stroke="#00ff08" stroke-width="2.5"/><path d="M277.25591,310.31969l0.31402,24.03913" stroke="#005eff" stroke-width="2.5"/><path d="M279.79299,310.10712l0.3187,24.3979" stroke="#8000ff" stroke-width="2.5"/></g><g fill="none" stroke-linecap="round"><path d="M284.59852,316.40513l0.21091,16.14569" stroke="none" stroke-width="0"/><path d="M285.69421,311.90515l0.28708,21.97606" stroke="#ffad00" stroke-width="2.5"/><path d="M288.07663,311.51517l0.2976,22.78335" stroke="#fff800" stroke-width="2.5"/><path d="M290.37818,310.94683l0.30931,23.68032" stroke="#00ff08" stroke-width="2.5"/><path d="M292.4559,310.91969l0.31402,24.03913" stroke="#005eff" stroke-width="2.5"/><path d="M294.99298,310.70712l0.3187,24.39791" stroke="#8000ff" stroke-width="2.5"/></g><g fill="none" stroke-linecap="round"><path d="M300.39851,316.00513l0.21091,16.14569" stroke="none" stroke-width="0"/><path d="M301.49421,311.50515l0.28708,21.97606" stroke="#ffad00" stroke-width="2.5"/><path d="M303.87663,311.11517l0.29761,22.78336" stroke="#fff800" stroke-width="2.5"/><path d="M306.17818,310.54683l0.30931,23.68032" stroke="#00ff08" stroke-width="2.5"/><path d="M308.25591,310.51968l0.31402,24.03913" stroke="#005eff" stroke-width="2.5"/><path d="M311.11169,334.70502l-0.3187,-24.3979" stroke="#8000ff" stroke-width="2.5"/></g><g fill="none" stroke-linecap="round"><path d="M316.59852,316.00513l0.21091,16.14569" stroke="none" stroke-width="0"/><path d="M317.69421,311.50515l0.28708,21.97606" stroke="#ffad00" stroke-width="2.5"/><path d="M320.07663,311.11517l0.2976,22.78336" stroke="#fff800" stroke-width="2.5"/><path d="M322.37818,310.54683l0.30931,23.68032" stroke="#00ff08" stroke-width="2.5"/><path d="M324.4559,310.51968l0.31402,24.03913" stroke="#005eff" stroke-width="2.5"/><path d="M326.99298,310.30712l0.3187,24.3979" stroke="#8000ff" stroke-width="2.5"/></g><g fill="none" stroke-linecap="round"><path d="M332.79852,316.40513l0.21091,16.14569" stroke="none" stroke-width="0"/><path d="M333.89421,311.90515l0.28708,21.97606" stroke="#ffad00" stroke-width="2.5"/><path d="M336.27663,311.51517l0.2976,22.78335" stroke="#fff800" stroke-width="2.5"/><path d="M338.88749,334.62715l-0.30931,-23.68032" stroke="#00ff08" stroke-width="2.5"/><path d="M340.65591,310.91969l0.31402,24.03913" stroke="#005eff" stroke-width="2.5"/><path d="M343.19299,310.70712l0.3187,24.39791" stroke="#8000ff" stroke-width="2.5"/></g><g fill="none" stroke-linecap="round"><path d="M346.99852,316.40513l0.21091,16.14569" stroke="none" stroke-width="0"/><path d="M348.09421,311.90515l0.28708,21.97606" stroke="#ffad00" stroke-width="2.5"/><path d="M350.47663,311.51517l0.2976,22.78335" stroke="#fff800" stroke-width="2.5"/><path d="M352.77818,310.94683l0.30931,23.68032" stroke="#00ff08" stroke-width="2.5"/><path d="M354.85591,310.91969l0.31402,24.03913" stroke="#005eff" stroke-width="2.5"/><path d="M357.39299,310.70712l0.3187,24.39791" stroke="#8000ff" stroke-width="2.5"/></g><g fill="none" stroke-linecap="round"><path d="M362.79852,316.40513l0.21091,16.14569" stroke="none" stroke-width="0"/><path d="M363.89421,311.90515l0.28708,21.97606" stroke="#ffad00" stroke-width="2.5"/><path d="M366.27663,311.51517l0.2976,22.78335" stroke="#fff800" stroke-width="2.5"/><path d="M368.57818,310.94683l0.30931,23.68032" stroke="#00ff08" stroke-width="2.5"/><path d="M370.65591,310.91969l0.31402,24.03913" stroke="#005eff" stroke-width="2.5"/><path d="M373.19299,310.70712l0.3187,24.39791" stroke="#8000ff" stroke-width="2.5"/></g><g fill="none" stroke-linecap="round"><path d="M378.39852,316.20513l0.21091,16.14569" stroke="none" stroke-width="0"/><path d="M379.49421,311.70515l0.28708,21.97606" stroke="#ffad00" stroke-width="2.5"/><path d="M381.87663,311.31516l0.29761,22.78336" stroke="#fff800" stroke-width="2.5"/><path d="M384.17818,310.74683l0.30931,23.68032" stroke="#00ff08" stroke-width="2.5"/><path d="M386.25591,310.71969l0.31402,24.03912" stroke="#005eff" stroke-width="2.5"/><path d="M388.79299,310.50712l0.3187,24.3979" stroke="#8000ff" stroke-width="2.5"/></g><g fill="none" stroke-linecap="round"><path d="M392.99852,316.00513l0.21091,16.14569" stroke="none" stroke-width="0"/><path d="M394.38129,333.48121l-0.28708,-21.97606" stroke="#ffad00" stroke-width="2.5"/><path d="M396.47663,311.11517l0.2976,22.78336" stroke="#fff800" stroke-width="2.5"/><path d="M398.77818,310.54683l0.30931,23.68032" stroke="#00ff08" stroke-width="2.5"/><path d="M400.85591,310.51968l0.31402,24.03913" stroke="#005eff" stroke-width="2.5"/><path d="M403.39299,310.30712l0.3187,24.3979" stroke="#8000ff" stroke-width="2.5"/></g><g fill="none" stroke-linecap="round"><path d="M408.79852,316.00513l0.21091,16.14569" stroke="none" stroke-width="0"/><path d="M409.89421,311.50515l0.28708,21.97606" stroke="#ffad00" stroke-width="2.5"/><path d="M412.27663,311.11517l0.2976,22.78336" stroke="#fff800" stroke-width="2.5"/><path d="M414.57818,310.54683l0.30931,23.68032" stroke="#00ff08" stroke-width="2.5"/><path d="M416.65591,310.51968l0.31402,24.03913" stroke="#005eff" stroke-width="2.5"/><path d="M419.19299,310.30712l0.3187,24.3979" stroke="#8000ff" stroke-width="2.5"/></g><g fill="none" stroke-linecap="round"><path d="M427.0036,315.56409l-3.43778,15.77686" stroke="none" stroke-width="0"/><path d="M429.08645,311.42741l-4.67919,21.47405" stroke="#ffad00" stroke-width="2.5"/><path d="M431.49542,311.58508l-4.85109,22.2629" stroke="#fff800" stroke-width="2.5"/><path d="M433.86585,311.55073l-5.04209,23.13937" stroke="#00ff08" stroke-width="2.5"/><path d="M435.89612,311.99313l-5.11847,23.48998" stroke="#005eff" stroke-width="2.5"/><path d="M438.41573,312.35853l-5.19486,23.84057" stroke="#8000ff" stroke-width="2.5"/></g><g fill="none" stroke-linecap="round"><path d="M444.99096,322.07069l-9.10754,13.33343" stroke="none" stroke-width="0"/><path d="M448.47406,319.01808l-12.39637,18.14827" stroke="#ffad00" stroke-width="2.5"/><path d="M450.64777,320.06831l-12.85176,18.81494" stroke="#fff800" stroke-width="2.5"/><path d="M452.85782,320.9261l-13.35773,19.55566" stroke="#00ff08" stroke-width="2.5"/><path d="M454.57365,322.09812l-13.56012,19.85198" stroke="#005eff" stroke-width="2.5"/><path d="M456.77195,323.38242l-13.76251,20.14827" stroke="#8000ff" stroke-width="2.5"/></g><g fill="none" stroke-linecap="round"><path d="M458.79096,331.27069l-9.10755,13.33343" stroke="none" stroke-width="0"/><path d="M462.27406,328.21808l-12.39637,18.14827" stroke="#ffad00" stroke-width="2.5"/><path d="M464.44777,329.26831l-12.85176,18.81495" stroke="#fff800" stroke-width="2.5"/><path d="M466.65782,330.1261l-13.35774,19.55566" stroke="#00ff08" stroke-width="2.5"/><path d="M468.37365,331.29812l-13.56012,19.85198" stroke="#005eff" stroke-width="2.5"/><path d="M470.57195,332.58242l-13.76251,20.14827" stroke="#8000ff" stroke-width="2.5"/></g><g fill="none" stroke-linecap="round"><path d="M470.59096,338.87069l-9.10755,13.33343" stroke="none" stroke-width="0"/><path d="M474.07406,335.81808l-12.39637,18.14827" stroke="#ffad00" stroke-width="2.5"/><path d="M476.24777,336.86831l-12.85176,18.81494" stroke="#fff800" stroke-width="2.5"/><path d="M478.45782,337.7261l-13.35773,19.55567" stroke="#00ff08" stroke-width="2.5"/><path d="M480.17365,338.89812l-13.56012,19.85198" stroke="#005eff" stroke-width="2.5"/><path d="M482.37195,340.18242l-13.7625,20.14827" stroke="#8000ff" stroke-width="2.5"/></g><g fill="none" stroke-linecap="round"><path d="M485.13408,349.79313l-13.23625,9.24821" stroke="none" stroke-width="0"/><path d="M489.47198,348.17047l-18.01599,12.58783" stroke="#ffad00" stroke-width="2.5"/><path d="M491.13345,349.9219l-18.67782,13.05024" stroke="#fff800" stroke-width="2.5"/><path d="M492.897,351.50621l-19.41316,13.56401" stroke="#00ff08" stroke-width="2.5"/><path d="M494.08712,353.20954l-19.7073,13.76954" stroke="#005eff" stroke-width="2.5"/><path d="M495.68876,355.1886l-20.00143,13.97505" stroke="#8000ff" stroke-width="2.5"/></g><g fill="none" stroke-linecap="round"><path d="M489.71556,369.29476l-16.11424,1.02907" stroke="none" stroke-width="0"/><path d="M494.2653,370.16094l-21.93326,1.40068" stroke="#ffad00" stroke-width="2.5"/><path d="M472.03657,373.97264l22.73898,-1.45212" stroke="#fff800" stroke-width="2.5"/><path d="M495.45982,374.7903l-23.6342,1.50928" stroke="#00ff08" stroke-width="2.5"/><path d="M495.59224,376.86399l-23.9923,1.53216" stroke="#005eff" stroke-width="2.5"/><path d="M495.93315,379.38703l-24.35039,1.55503" stroke="#8000ff" stroke-width="2.5"/></g><g fill="none" stroke-linecap="round"><path d="M491.5859,388.61116l-13.743,-8.4769" stroke="none" stroke-width="0"/><path d="M494.79736,391.94836l-18.70573,-11.53799" stroke="#ffad00" stroke-width="2.5"/><path d="M493.84948,394.16861l-19.39289,-11.96185" stroke="#fff800" stroke-width="2.5"/><path d="M493.09551,396.4162l-20.15637,-12.43279" stroke="#00ff08" stroke-width="2.5"/><path d="M492.00464,398.18473l-20.46178,-12.62116" stroke="#005eff" stroke-width="2.5"/><path d="M490.82409,400.44044l-20.76717,-12.80953" stroke="#8000ff" stroke-width="2.5"/></g><g fill="none" stroke-linecap="round"><path d="M467.63661,400.52129l0.40761,-16.14192" stroke="none" stroke-width="0"/><path d="M466.92417,383.00508l-0.5548,21.97093" stroke="#ffad00" stroke-width="2.5"/><path d="M463.97377,405.27446l0.5752,-22.77804" stroke="#fff800" stroke-width="2.5"/><path d="M461.65215,405.75423l0.59785,-23.67479" stroke="#00ff08" stroke-width="2.5"/><path d="M460.18179,381.66826l-0.60689,24.03351" stroke="#005eff" stroke-width="2.5"/><path d="M457.03154,405.81702l0.61595,-24.39221" stroke="#8000ff" stroke-width="2.5"/></g><g fill="none" stroke-linecap="round"><path d="M452.23661,400.72129l0.40761,-16.14193" stroke="none" stroke-width="0"/><path d="M450.96937,405.17601l0.5548,-21.97092" stroke="#ffad00" stroke-width="2.5"/><path d="M448.57377,405.47446l0.5752,-22.77804" stroke="#fff800" stroke-width="2.5"/><path d="M446.25215,405.95423l0.59785,-23.67479" stroke="#00ff08" stroke-width="2.5"/><path d="M444.1749,405.90178l0.6069,-24.03351" stroke="#005eff" stroke-width="2.5"/><path d="M441.63154,406.01702l0.61595,-24.39221" stroke="#8000ff" stroke-width="2.5"/></g><g fill="none" stroke-linecap="round"><path d="M436.43661,401.72129l0.40762,-16.14193" stroke="none" stroke-width="0"/><path d="M435.16937,406.17601l0.5548,-21.97092" stroke="#ffad00" stroke-width="2.5"/><path d="M432.77377,406.47446l0.5752,-22.77804" stroke="#fff800" stroke-width="2.5"/><path d="M430.45215,406.95423l0.59785,-23.67479" stroke="#00ff08" stroke-width="2.5"/><path d="M428.3749,406.90178l0.6069,-24.03351" stroke="#005eff" stroke-width="2.5"/><path d="M425.83154,407.01702l0.61596,-24.39221" stroke="#8000ff" stroke-width="2.5"/></g><g fill="none" stroke-linecap="round"><path d="M419.83661,401.52129l0.40762,-16.14193" stroke="none" stroke-width="0"/><path d="M418.56937,405.97601l0.5548,-21.97092" stroke="#ffad00" stroke-width="2.5"/><path d="M416.17377,406.27446l0.5752,-22.77804" stroke="#fff800" stroke-width="2.5"/><path d="M413.85214,406.75423l0.59785,-23.67479" stroke="#00ff08" stroke-width="2.5"/><path d="M411.7749,406.70178l0.60689,-24.03351" stroke="#005eff" stroke-width="2.5"/><path d="M409.23154,406.81702l0.61595,-24.39221" stroke="#8000ff" stroke-width="2.5"/></g><g fill="none" stroke-linecap="round"><path d="M401.6067,400.95357l4.31845,-15.55889" stroke="none" stroke-width="0"/><path d="M399.29481,404.96674l5.87787,-21.17735" stroke="#ffad00" stroke-width="2.5"/><path d="M396.8985,404.67403l6.09382,-21.9553" stroke="#fff800" stroke-width="2.5"/><path d="M394.52988,404.57518l6.33373,-22.81966" stroke="#00ff08" stroke-width="2.5"/><path d="M392.52767,404.01945l6.42968,-23.16543" stroke="#005eff" stroke-width="2.5"/><path d="M390.03255,403.51312l6.52565,-23.51117" stroke="#8000ff" stroke-width="2.5"/></g><g fill="none" stroke-linecap="round"><path d="M384.60671,398.95357l4.31844,-15.55889" stroke="none" stroke-width="0"/><path d="M382.29481,402.96674l5.87787,-21.17735" stroke="#ffad00" stroke-width="2.5"/><path d="M379.8985,402.67403l6.09382,-21.95531" stroke="#fff800" stroke-width="2.5"/><path d="M377.52988,402.57518l6.33373,-22.81966" stroke="#00ff08" stroke-width="2.5"/><path d="M375.52767,402.01945l6.42969,-23.16543" stroke="#005eff" stroke-width="2.5"/><path d="M373.03256,401.51312l6.52564,-23.51117" stroke="#8000ff" stroke-width="2.5"/></g><g fill="none" stroke-linecap="round"><path d="M367.66984,396.23595l3.82966,-15.68635" stroke="none" stroke-width="0"/><path d="M365.48461,400.31946l5.21258,-21.35084" stroke="#ffad00" stroke-width="2.5"/><path d="M363.08032,400.10186l5.40408,-22.13517" stroke="#fff800" stroke-width="2.5"/><path d="M360.70976,400.07715l5.61684,-23.00661" stroke="#00ff08" stroke-width="2.5"/><path d="M358.69114,399.58432l5.70194,-23.35521" stroke="#005eff" stroke-width="2.5"/><path d="M356.18142,399.15627l5.78703,-23.70378" stroke="#8000ff" stroke-width="2.5"/></g><g fill="none" stroke-linecap="round"><path d="M351.66985,394.03595l3.82966,-15.68635" stroke="none" stroke-width="0"/><path d="M349.48461,398.11947l5.21258,-21.35084" stroke="#ffad00" stroke-width="2.5"/><path d="M347.08032,397.90186l5.40409,-22.13518" stroke="#fff800" stroke-width="2.5"/><path d="M350.32661,374.87054l-5.61684,23.00661" stroke="#00ff08" stroke-width="2.5"/><path d="M342.69115,397.38432l5.70193,-23.35521" stroke="#005eff" stroke-width="2.5"/><path d="M340.18142,396.95628l5.78703,-23.70378" stroke="#8000ff" stroke-width="2.5"/></g><g fill="none" stroke-linecap="round"><path d="M335.66985,392.03595l3.82966,-15.68635" stroke="none" stroke-width="0"/><path d="M333.48461,396.11946l5.21258,-21.35084" stroke="#ffad00" stroke-width="2.5"/><path d="M331.08032,395.90186l5.40409,-22.13518" stroke="#fff800" stroke-width="2.5"/><path d="M328.70977,395.87714l5.61684,-23.00662" stroke="#00ff08" stroke-width="2.5"/><path d="M326.69115,395.38431l5.70193,-23.35521" stroke="#005eff" stroke-width="2.5"/><path d="M324.18142,394.95627l5.78703,-23.70378" stroke="#8000ff" stroke-width="2.5"/></g><g fill="none" stroke-linecap="round"><path d="M319.26985,389.03595l3.82966,-15.68635" stroke="none" stroke-width="0"/><path d="M317.08461,393.11947l5.21258,-21.35084" stroke="#ffad00" stroke-width="2.5"/><path d="M314.68032,392.90186l5.40409,-22.13518" stroke="#fff800" stroke-width="2.5"/><path d="M317.92661,369.87053l-5.61684,23.00662" stroke="#00ff08" stroke-width="2.5"/><path d="M310.29115,392.38432l5.70193,-23.35521" stroke="#005eff" stroke-width="2.5"/><path d="M307.78142,391.95628l5.78703,-23.70378" stroke="#8000ff" stroke-width="2.5"/></g><g fill="none" stroke-linecap="round"><path d="M303.26984,385.83595l3.82966,-15.68635" stroke="none" stroke-width="0"/><path d="M301.08461,389.91947l5.21258,-21.35084" stroke="#ffad00" stroke-width="2.5"/><path d="M298.68032,389.70186l5.40409,-22.13518" stroke="#fff800" stroke-width="2.5"/><path d="M301.92661,366.67053l-5.61684,23.00662" stroke="#00ff08" stroke-width="2.5"/><path d="M294.29114,389.18432l5.70194,-23.35521" stroke="#005eff" stroke-width="2.5"/><path d="M291.78142,388.75628l5.78703,-23.70378" stroke="#8000ff" stroke-width="2.5"/></g><g fill="none" stroke-linecap="round"><path d="M286.2595,382.44755l6.9921,-14.55467" stroke="none" stroke-width="0"/><path d="M283.27672,385.99062l9.517,-19.8105" stroke="#ffad00" stroke-width="2.5"/><path d="M280.96946,385.2803l9.86664,-20.53825" stroke="#fff800" stroke-width="2.5"/><path d="M278.65531,384.76569l10.25508,-21.34682" stroke="#00ff08" stroke-width="2.5"/><path d="M276.78232,383.8659l10.41045,-21.67026" stroke="#005eff" stroke-width="2.5"/><path d="M274.41545,382.92789l10.56582,-21.99369" stroke="#8000ff" stroke-width="2.5"/></g><g fill="none" stroke-linecap="round"><path d="M270.2595,377.04755l6.9921,-14.55467" stroke="none" stroke-width="0"/><path d="M267.27672,380.59062l9.517,-19.8105" stroke="#ffad00" stroke-width="2.5"/><path d="M264.96946,379.88031l9.86663,-20.53825" stroke="#fff800" stroke-width="2.5"/><path d="M262.65531,379.36569l10.25508,-21.34681" stroke="#00ff08" stroke-width="2.5"/><path d="M260.78232,378.4659l10.41045,-21.67026" stroke="#005eff" stroke-width="2.5"/><path d="M258.41545,377.52789l10.56582,-21.9937" stroke="#8000ff" stroke-width="2.5"/></g><g fill="none" stroke-linecap="round"><path d="M254.0595,372.04755l6.9921,-14.55467" stroke="none" stroke-width="0"/><path d="M251.07672,375.59062l9.517,-19.8105" stroke="#ffad00" stroke-width="2.5"/><path d="M248.76946,374.88031l9.86663,-20.53825" stroke="#fff800" stroke-width="2.5"/><path d="M246.45531,374.36569l10.25508,-21.34681" stroke="#00ff08" stroke-width="2.5"/><path d="M244.58232,373.4659l10.41045,-21.67026" stroke="#005eff" stroke-width="2.5"/><path d="M242.21545,372.52789l10.56582,-21.9937" stroke="#8000ff" stroke-width="2.5"/></g><g fill="none" stroke-linecap="round"><path d="M236.6096,366.49968l13.16096,-9.35505" stroke="none" stroke-width="0"/><path d="M232.28498,368.15739l17.91351,-12.73325" stroke="#ffad00" stroke-width="2.5"/><path d="M230.60938,366.41948l18.57158,-13.201" stroke="#fff800" stroke-width="2.5"/><path d="M228.83307,364.84949l19.30273,-13.7207" stroke="#00ff08" stroke-width="2.5"/><path d="M227.62921,363.15585l19.5952,-13.9286" stroke="#005eff" stroke-width="2.5"/><path d="M226.0116,361.18982l19.88765,-14.1365" stroke="#8000ff" stroke-width="2.5"/></g><g fill="none" stroke-linecap="round"><path d="M232.70222,349.93673l16.1215,-0.90824" stroke="none" stroke-width="0"/><path d="M228.1591,349.03646l21.94313,-1.23622" stroke="#ffad00" stroke-width="2.5"/><path d="M227.66655,346.67313l22.74923,-1.28162" stroke="#fff800" stroke-width="2.5"/><path d="M226.99932,344.39828l23.64485,-1.33207" stroke="#00ff08" stroke-width="2.5"/><path d="M226.88245,342.32366l24.00311,-1.35226" stroke="#005eff" stroke-width="2.5"/><path d="M226.56047,339.79814l24.36136,-1.37245" stroke="#8000ff" stroke-width="2.5"/></g><path d="M226.68903,183.5v-7h26.62194v7z" fill="#ffffff" stroke="none" stroke-width="0" stroke-linecap="butt"/><g fill="#656565" stroke="none" stroke-width="0" stroke-linecap="butt"><path d="M226.84303,179.06232l0.0192,-1.54901l1.54901,0.0192l-0.0192,1.54901z"/><path d="M226.80464,182.16032l0.0192,-1.54901l1.54901,0.0192l-0.0192,1.54901z"/><path d="M228.37284,180.6305l0.0192,-1.549l1.54901,0.0192l-0.0192,1.549z"/><path d="M229.94104,179.10068l0.0192,-1.54901l1.54901,0.0192l-0.0192,1.54901z"/><path d="M229.90266,182.19873l0.0192,-1.54901l1.54901,0.0192l-0.0192,1.54901z"/><path d="M231.47086,180.6689l0.0192,-1.549l1.54901,0.0192l-0.0192,1.549z"/><path d="M233.03907,179.13909l0.0192,-1.54901l1.54901,0.0192l-0.0192,1.54901z"/><path d="M233.00067,182.23713l0.0192,-1.54901l1.54901,0.0192l-0.0192,1.54901z"/><path d="M234.56887,180.7073l0.0192,-1.549l1.54902,0.0192l-0.0192,1.549z"/><path d="M236.13708,179.17749l0.0192,-1.54901l1.54901,0.0192l-0.0192,1.54901z"/><path d="M236.09869,182.27552l0.0192,-1.54901l1.54901,0.0192l-0.0192,1.54901z"/><path d="M237.66691,180.74569l0.0192,-1.549l1.54901,0.0192l-0.0192,1.549z"/><path d="M239.23509,179.21589l0.0192,-1.54901l1.54901,0.0192l-0.0192,1.54901z"/><path d="M239.19672,182.31388l0.0192,-1.54901l1.54901,0.0192l-0.0192,1.54901z"/><path d="M240.7649,180.78406l0.0192,-1.549l1.54901,0.0192l-0.0192,1.549z"/><path d="M242.33311,179.25429l0.0192,-1.54901l1.54901,0.0192l-0.0192,1.54901z"/><path d="M242.29472,182.35229l0.0192,-1.54901l1.54901,0.0192l-0.0192,1.54901z"/><path d="M243.86293,180.82248l0.0192,-1.549l1.54901,0.0192l-0.0192,1.549z"/><path d="M245.43114,179.29266l0.0192,-1.54901l1.54901,0.0192l-0.0192,1.54901z"/><path d="M245.39273,182.39069l0.0192,-1.54901l1.54901,0.0192l-0.0192,1.54901z"/><path d="M246.96095,180.86087l0.0192,-1.549l1.54901,0.0192l-0.0192,1.549z"/><path d="M248.52915,179.33106l0.0192,-1.54901l1.54901,0.0192l-0.0192,1.54901z"/><path d="M248.49076,182.42909l0.0192,-1.54901l1.54901,0.0192l-0.0192,1.54901z"/><path d="M250.05895,180.89927l0.0192,-1.549l1.54901,0.0192l-0.0192,1.549z"/><path d="M251.62715,179.36946l0.0192,-1.54901l1.54901,0.0192l-0.0192,1.54901z"/><path d="M251.58876,182.46749l0.0192,-1.54901l1.54901,0.0192l-0.0192,1.54901z"/></g><g data-paper-data="{&quot;index&quot;:null}"><path d="M283.54981,56.29371l32.04199,-7.95948" data-paper-data="{&quot;origPos&quot;:null}" fill="none" stroke="#ae5600" stroke-width="0.5" stroke-linecap="round"/><g data-paper-data="{&quot;origPos&quot;:null}" stroke="none" stroke-linecap="butt"><g data-paper-data="{&quot;origPos&quot;:null}"><path d="M289.08959,42.72265c2.02921,-0.76309 4.08362,-1.26047 6.10453,-2.0397c2.48972,-0.95503 8.15024,-3.49872 10.50065,-2.03301c0.8441,0.52639 0.91807,3.5265 1.06903,4.40261c0.47871,2.77832 2.58871,8.29102 0.52074,10.59094c-0.54272,0.60361 -3.05969,0.80707 -3.89468,0.95095c-3.06988,0.40379 -6.21641,1.41927 -9.33123,1.88768c-0.84422,0.12695 -1.9108,0.9073 -2.75735,0.59515c-1.95615,-0.72127 -1.69564,-1.00152 -1.97506,-2.62327c-0.51234,-2.97338 -1.86121,-10.91653 -1.86121,-10.91653c0.00307,-0.29466 1.44921,-0.95708 1.62454,-0.81482z" data-paper-data="{&quot;origPos&quot;:null}" fill="#ffab00" stroke-width="0.5"/><path d="M288.93332,57.60059c-0.29747,-1.72646 0.86094,-3.36717 2.58742,-3.66464c1.72646,-0.29747 3.36719,0.86097 3.66464,2.58742c0.29747,1.72646 -0.86096,3.36715 -2.58741,3.66462c-1.72646,0.29747 -3.36715,-0.86094 -3.66462,-2.58742z" data-paper-data="{&quot;origPos&quot;:null}" fill="#cf7c00" stroke-width="0"/><path d="M295.13852,56.25154c-0.29747,-1.72646 0.86094,-3.36717 2.58741,-3.66462c1.72646,-0.29747 3.36715,0.86094 3.66462,2.58742c0.29747,1.72646 -0.86094,3.36715 -2.58742,3.66462c-1.72646,0.29747 -3.36717,-0.86094 -3.66462,-2.58741z" data-paper-data="{&quot;origPos&quot;:null}" fill="#cf7c00" stroke-width="0"/><path d="M302.18262,54.89789c-0.31041,-1.80152 0.89839,-3.51356 2.69989,-3.82397c1.80152,-0.31041 3.51355,0.89839 3.82397,2.69991c0.31041,1.80152 -0.89841,3.51354 -2.69991,3.82397c-1.80152,0.31041 -3.51354,-0.89839 -3.82397,-2.69989z" data-paper-data="{&quot;origPos&quot;:null}" fill="#cf7c00" stroke-width="0"/><path d="M290.71044,51.61313l-1.30037,-6.71861l14.95431,-4.55131l1.73384,7.58553z" data-paper-data="{&quot;origPos&quot;:null}" fill="#ae5600" stroke-width="0"/></g><g data-paper-data="{&quot;origPos&quot;:null,&quot;index&quot;:null,&quot;origRot&quot;:0}"><g data-paper-data="{&quot;origPos&quot;:null}" fill="none" stroke-width="1" font-family="sans-serif" font-weight="normal" font-size="12" text-anchor="start"/><g data-paper-data="{&quot;origPos&quot;:null}" fill="none" stroke-width="1" font-family="sans-serif" font-weight="normal" font-size="12" text-anchor="start"/><g data-paper-data="{&quot;origPos&quot;:null}" fill="none" stroke-width="1" font-family="sans-serif" font-weight="normal" font-size="12" text-anchor="start"/><g data-paper-data="{&quot;origPos&quot;:null}" fill="none" stroke-width="1" font-family="sans-serif" font-weight="normal" font-size="12" text-anchor="start"/><g data-paper-data="{&quot;origPos&quot;:null}" fill="none" stroke-width="1" font-family="sans-serif" font-weight="normal" font-size="12" text-anchor="start"/><g data-paper-data="{&quot;origPos&quot;:null}" stroke-width="0"><g data-paper-data="{&quot;origPos&quot;:null}"><path d="M293.44176,43.85031c2.0378,-0.3823 3.83634,-0.11905 4.17459,1.89221c0.18036,1.07251 0.11265,1.5571 -0.9033,1.94527c-0.77792,0.29722 -3.11491,0.7278 -3.93057,0.89555c-1.78287,0.36671 -2.46953,0.15212 -2.78891,-1.37854c-0.12493,-0.59875 -0.10937,-1.20819 0.26993,-1.68804c0.88857,-1.12412 1.81729,-1.4111 3.17827,-1.66643z" data-paper-data="{&quot;origPos&quot;:null}" fill="#ffffff"/><path d="M296.05982,45.6927c0.15937,0.84945 -0.35273,1.65834 -1.14378,1.80675c-0.79104,0.1484 -1.56148,-0.41989 -1.72084,-1.26934c-0.15937,-0.84943 0.35272,-1.65834 1.14378,-1.80675c0.79105,-0.1484 1.56148,0.41989 1.72085,1.26934z" data-paper-data="{&quot;origPos&quot;:null}" fill="#ffef45"/><path d="M290.02248,47.78751c-0.09425,-0.3649 -0.16384,-0.46319 -0.11947,-1.19819c-0.04206,-0.28268 0.13746,-0.6988 0.13746,-0.6988c0,0 0.81201,-0.06204 1.15544,0.13476c0.40298,0.2309 0.53407,0.65881 0.65111,1.10824c0.12309,0.47262 0.12019,0.79569 -0.10465,1.26227c-0.1089,0.22597 -0.15279,0.25993 -0.15279,0.25993c0,0 -0.5668,0.19192 -0.86015,0.08455c-0.35827,-0.18557 -0.48869,-0.34434 -0.70689,-0.95273z" data-paper-data="{&quot;origPos&quot;:null,&quot;origRot&quot;:0}" fill="#ffef45"/><path d="M296.78394,45.91376c-0.20671,-1.05716 0.38553,-1.24187 0.38553,-1.24187c0,0 0.27884,0.0438 0.48762,1.10058c0.18301,0.92633 -0.06292,1.2949 -0.06292,1.2949c0,0 -0.58238,0.01175 -0.81023,-1.15358z" data-paper-data="{&quot;origPos&quot;:null}" fill="#ffef45"/></g><g data-paper-data="{&quot;origPos&quot;:null}"><path d="M296.27435,47.8953c0,0 0.06727,0.30412 0.14973,0.86361c0.14686,0.99645 -0.50746,1.59088 -1.5214,1.7811c-1.01392,0.19022 -2.03454,0.02242 -2.26037,-0.95917c-0.12186,-0.52959 -0.27781,-1.06119 -0.27781,-1.06119c0,0 1.4232,-0.48706 1.93171,-0.56496c0.98501,-0.15091 1.97811,-0.05936 1.97811,-0.05936z" data-paper-data="{&quot;origPos&quot;:null}" fill="#ffdfc0"/><path d="M294.59361,50.00154c-0.36893,0.00304 -0.63634,-0.34504 -0.63634,-0.34504c0,0 0.3416,0.2015 0.63513,0.1991c0.2935,-0.00242 0.58596,-0.17994 0.58596,-0.17994c0,0 -0.2158,0.32285 -0.58475,0.32589z" data-paper-data="{&quot;origPos&quot;:null,&quot;origRot&quot;:0}" fill="#000000"/><g data-paper-data="{&quot;origPos&quot;:null}"><path d="M295.44339,48.62233c0.05178,0.27598 0.02512,0.50741 -0.16698,0.54863c-0.21194,0.04547 -0.30269,-0.17482 -0.35446,-0.4508c-0.05178,-0.27596 -0.03605,-0.51053 0.16696,-0.54861c0.20301,-0.03808 0.30271,0.1748 0.35448,0.45078z" data-paper-data="{&quot;origPos&quot;:null}" fill="#000000"/><path d="M295.319,48.42608c0.01728,0.09204 -0.00979,0.17263 -0.12565,0.19608c-0.12784,0.02589 -0.17089,-0.04519 -0.18817,-0.13723c-0.01728,-0.09204 0.00349,-0.17314 0.12565,-0.19606c0.12216,-0.02293 0.17089,0.04517 0.18817,0.13719z" data-paper-data="{&quot;origPos&quot;:null}" fill="#aaaaaa"/></g><g data-paper-data="{&quot;origPos&quot;:null}"><path d="M294.56573,48.80394c0.05178,0.27598 0.02512,0.50742 -0.16698,0.54863c-0.21194,0.04547 -0.30268,-0.17482 -0.35446,-0.4508c-0.05178,-0.27598 -0.03605,-0.51055 0.16696,-0.54863c0.20301,-0.03808 0.3027,0.17482 0.35448,0.4508z" data-paper-data="{&quot;origPos&quot;:null}" fill="#000000"/><path d="M294.42447,48.598c0.01728,0.09204 -0.00977,0.17261 -0.12563,0.19606c-0.12784,0.02589 -0.17089,-0.04517 -0.18817,-0.13721c-0.01728,-0.09204 0.00349,-0.17315 0.12565,-0.19608c0.12216,-0.02293 0.17087,0.04517 0.18815,0.13721z" data-paper-data="{&quot;origPos&quot;:null}" fill="#aaaaaa"/></g></g></g></g><g data-paper-data="{&quot;origPos&quot;:null,&quot;index&quot;:null,&quot;origRot&quot;:0}"><g data-paper-data="{&quot;origPos&quot;:null}" fill="none" stroke-width="1" font-family="sans-serif" font-weight="normal" font-size="12" text-anchor="start"/><g data-paper-data="{&quot;origPos&quot;:null}" fill="none" stroke-width="1" font-family="sans-serif" font-weight="normal" font-size="12" text-anchor="start"/><g data-paper-data="{&quot;origPos&quot;:null}" fill="none" stroke-width="1" font-family="sans-serif" font-weight="normal" font-size="12" text-anchor="start"/><g data-paper-data="{&quot;origPos&quot;:null}" fill="none" stroke-width="1" font-family="sans-serif" font-weight="normal" font-size="12" text-anchor="start"/><g data-paper-data="{&quot;origPos&quot;:null}" fill="none" stroke-width="1" font-family="sans-serif" font-weight="normal" font-size="12" text-anchor="start"/><g data-paper-data="{&quot;origPos&quot;:null}" stroke-width="0"><g data-paper-data="{&quot;origPos&quot;:null}"><path d="M301.29336,41.94909c2.0378,-0.38228 3.83635,-0.11905 4.17459,1.89221c0.18036,1.07251 0.11265,1.55709 -0.9033,1.94527c-0.77792,0.29722 -3.11491,0.7278 -3.93057,0.89555c-1.78287,0.36671 -2.46952,0.15214 -2.78891,-1.37856c-0.12493,-0.59875 -0.10937,-1.20817 0.26993,-1.68802c0.88857,-1.12412 1.81729,-1.41111 3.17827,-1.66641z" data-paper-data="{&quot;origPos&quot;:null}" fill="#ffffff"/><path d="M303.91141,43.79149c0.15937,0.84945 -0.35271,1.65834 -1.14376,1.80674c-0.79104,0.1484 -1.5615,-0.41989 -1.72086,-1.26934c-0.15937,-0.84943 0.35273,-1.65834 1.14378,-1.80675c0.79105,-0.1484 1.56148,0.41989 1.72084,1.26934z" data-paper-data="{&quot;origPos&quot;:null}" fill="#ff4f4f"/><path d="M297.87409,45.8863c-0.09425,-0.3649 -0.16386,-0.46319 -0.11949,-1.19819c-0.04206,-0.28268 0.13744,-0.6988 0.13744,-0.6988c0,0 0.81203,-0.06205 1.15544,0.13474c0.40298,0.2309 0.53407,0.65883 0.65111,1.10826c0.12309,0.47262 0.12018,0.79568 -0.10467,1.26225c-0.10888,0.22597 -0.15277,0.25995 -0.15277,0.25995c0,0 -0.5668,0.19192 -0.86013,0.08455c-0.35827,-0.18557 -0.48869,-0.34436 -0.70691,-0.95273z" data-paper-data="{&quot;origPos&quot;:null,&quot;origRot&quot;:0}" fill="#ff4f4f"/><path d="M304.63553,44.01255c-0.20671,-1.05716 0.38553,-1.24187 0.38553,-1.24187c0,0 0.27882,0.0438 0.4876,1.10056c0.18301,0.92633 -0.06292,1.29491 -0.06292,1.29491c0,0 -0.58236,0.01174 -0.81021,-1.15358z" data-paper-data="{&quot;origPos&quot;:null}" fill="#ff4f4f"/></g><g data-paper-data="{&quot;origPos&quot;:null}"><path d="M304.12594,45.9941c0,0 0.06727,0.3041 0.14974,0.8636c0.14686,0.99645 -0.50748,1.59086 -1.52141,1.78108c-1.01392,0.1902 -2.03454,0.02242 -2.26037,-0.95917c-0.12186,-0.52959 -0.27781,-1.0612 -0.27781,-1.0612c0,0 1.4232,-0.48706 1.93173,-0.56496c0.98501,-0.15089 1.97811,-0.05936 1.97811,-0.05936z" data-paper-data="{&quot;origPos&quot;:null}" fill="#ffdfc0"/><path d="M302.44522,48.10031c-0.36893,0.00304 -0.63632,-0.34504 -0.63632,-0.34504c0,0 0.3416,0.20152 0.63513,0.19912c0.2935,-0.00242 0.58594,-0.17996 0.58594,-0.17996c0,0 -0.2158,0.32284 -0.58475,0.32589z" data-paper-data="{&quot;origPos&quot;:null,&quot;origRot&quot;:0}" fill="#000000"/><g data-paper-data="{&quot;origPos&quot;:null}"><path d="M303.29501,46.72111c0.05178,0.27598 0.02512,0.50742 -0.16698,0.54863c-0.21194,0.04547 -0.30268,-0.17482 -0.35446,-0.4508c-0.05178,-0.27596 -0.03605,-0.51053 0.16696,-0.54861c0.20301,-0.03808 0.3027,0.1748 0.35448,0.45078z" data-paper-data="{&quot;origPos&quot;:null}" fill="#000000"/><path d="M303.1706,46.52487c0.01728,0.09204 -0.00977,0.17263 -0.12563,0.19608c-0.12784,0.02589 -0.17089,-0.04517 -0.18817,-0.13721c-0.01728,-0.09204 0.00347,-0.17315 0.12563,-0.19606c0.12216,-0.02293 0.17089,0.04517 0.18817,0.13721z" data-paper-data="{&quot;origPos&quot;:null}" fill="#aaaaaa"/></g><g data-paper-data="{&quot;origPos&quot;:null}"><path d="M302.41735,46.90273c0.05178,0.27598 0.02512,0.50742 -0.167,0.54863c-0.21194,0.04547 -0.3027,-0.17482 -0.35446,-0.4508c-0.05178,-0.27598 -0.03603,-0.51053 0.16698,-0.54863c0.20301,-0.03808 0.30271,0.17482 0.35448,0.4508z" data-paper-data="{&quot;origPos&quot;:null}" fill="#000000"/><path d="M302.27609,46.69679c0.01728,0.09204 -0.00977,0.17263 -0.12563,0.19606c-0.12784,0.02589 -0.17089,-0.04517 -0.18815,-0.13721c-0.01728,-0.09204 0.00347,-0.17315 0.12563,-0.19608c0.12216,-0.02293 0.17087,0.04519 0.18815,0.13721z" data-paper-data="{&quot;origPos&quot;:null}" fill="#aaaaaa"/></g></g></g></g></g><g data-paper-data="{&quot;origPos&quot;:null}" stroke="none" stroke-linecap="butt"><g data-paper-data="{&quot;origPos&quot;:null}"><path d="M267.45968,48.55499c1.90663,-0.71699 3.83691,-1.18432 5.73574,-1.91647c2.33931,-0.89734 7.65785,-3.28734 9.86628,-1.91019c0.7931,0.49458 0.86262,3.31342 1.00446,4.13663c0.44978,2.61048 2.43231,7.79015 0.48927,9.95111c-0.50995,0.56715 -2.87483,0.75832 -3.65938,0.89349c-2.88443,0.37939 -5.84086,1.33353 -8.76751,1.77363c-0.79321,0.11926 -1.79534,0.85248 -2.59077,0.55919c-1.83797,-0.6777 -1.59321,-0.941 -1.85575,-2.46478c-0.48138,-2.79377 -1.74877,-10.25702 -1.74877,-10.25702c0.00288,-0.27688 1.36167,-0.89927 1.5264,-0.76558z" data-paper-data="{&quot;origPos&quot;:null}" fill="#ffab00" stroke-width="0.5"/><path d="M267.31285,62.53409c-0.27949,-1.62215 0.80893,-3.16374 2.4311,-3.44325c1.62215,-0.27949 3.16376,0.80895 3.44325,2.4311c0.27949,1.62215 -0.80893,3.16374 -2.43108,3.44325c-1.62215,0.27949 -3.16374,-0.80893 -3.44325,-2.4311z" data-paper-data="{&quot;origPos&quot;:null}" fill="#cf7c00" stroke-width="0"/><path d="M273.14316,61.26654c-0.27949,-1.62215 0.80893,-3.16374 2.4311,-3.44323c1.62215,-0.27949 3.16374,0.80893 3.44323,2.4311c0.27949,1.62215 -0.80895,3.16374 -2.4311,3.44323c-1.62215,0.27949 -3.16374,-0.80893 -3.44323,-2.4311z" data-paper-data="{&quot;origPos&quot;:null}" fill="#cf7c00" stroke-width="0"/><path d="M279.76172,59.99468c-0.29166,-1.69269 0.84412,-3.3013 2.53679,-3.59297c1.69269,-0.29166 3.30128,0.84412 3.59295,2.53679c0.29166,1.69269 -0.84412,3.30128 -2.53679,3.59295c-1.69269,0.29166 -3.3013,-0.84412 -3.59295,-2.53679z" data-paper-data="{&quot;origPos&quot;:null}" fill="#cf7c00" stroke-width="0"/><path d="M268.98261,56.90835l-1.22182,-6.31271l14.05087,-4.27637l1.6291,7.12725z" data-paper-data="{&quot;origPos&quot;:null}" fill="#ae5600" stroke-width="0"/></g><g data-paper-data="{&quot;origPos&quot;:null,&quot;index&quot;:null,&quot;origRot&quot;:0}"><g data-paper-data="{&quot;origPos&quot;:null}" fill="none" stroke-width="1" font-family="sans-serif" font-weight="normal" font-size="12" text-anchor="start"/><g data-paper-data="{&quot;origPos&quot;:null}" fill="none" stroke-width="1" font-family="sans-serif" font-weight="normal" font-size="12" text-anchor="start"/><g data-paper-data="{&quot;origPos&quot;:null}" fill="none" stroke-width="1" font-family="sans-serif" font-weight="normal" font-size="12" text-anchor="start"/><g data-paper-data="{&quot;origPos&quot;:null}" fill="none" stroke-width="1" font-family="sans-serif" font-weight="normal" font-size="12" text-anchor="start"/><g data-paper-data="{&quot;origPos&quot;:null}" fill="none" stroke-width="1" font-family="sans-serif" font-weight="normal" font-size="12" text-anchor="start"/><g data-paper-data="{&quot;origPos&quot;:null}" stroke-width="0"><g data-paper-data="{&quot;origPos&quot;:null}"><path d="M271.54891,49.61452c1.91468,-0.3592 3.60459,-0.11186 3.9224,1.77789c0.16948,1.00771 0.10586,1.46303 -0.84871,1.82776c-0.7309,0.27926 -2.92672,0.68382 -3.69311,0.84143c-1.67517,0.34455 -2.32034,0.14293 -2.62042,-1.29527c-0.11737,-0.56259 -0.10278,-1.13518 0.25362,-1.58605c0.83489,-1.0562 1.70751,-1.32584 2.98626,-1.56574z" data-paper-data="{&quot;origPos&quot;:null}" fill="#ffffff"/><path d="M274.00883,51.3456c0.14974,0.79812 -0.3314,1.55815 -1.07467,1.69758c-0.74325,0.13944 -1.46717,-0.39453 -1.61691,-1.19265c-0.14972,-0.7981 0.33143,-1.55815 1.0747,-1.69758c0.74327,-0.13944 1.46714,0.39451 1.61688,1.19265z" data-paper-data="{&quot;origPos&quot;:null}" fill="#53e246"/><path d="M268.33621,53.31387c-0.08855,-0.34287 -0.15396,-0.4352 -0.11229,-1.12581c-0.03952,-0.2656 0.12916,-0.6566 0.12916,-0.6566c0,0 0.76295,-0.05829 1.08563,0.12662c0.37863,0.21695 0.50181,0.61901 0.61178,1.04128c0.11563,0.44405 0.11294,0.74762 -0.09834,1.18602c-0.1023,0.21232 -0.14354,0.24423 -0.14354,0.24423c0,0 -0.53258,0.18033 -0.80817,0.07944c-0.33662,-0.17436 -0.45917,-0.32354 -0.6642,-0.89516z" data-paper-data="{&quot;origPos&quot;:null,&quot;origRot&quot;:0}" fill="#53e246"/><path d="M274.68917,51.5533c-0.19424,-0.99329 0.36223,-1.16684 0.36223,-1.16684c0,0 0.262,0.04117 0.45817,1.03409c0.17196,0.87036 -0.05912,1.21668 -0.05912,1.21668c0,0 -0.54719,0.01103 -0.76128,-1.08389z" data-paper-data="{&quot;origPos&quot;:null}" fill="#53e246"/></g><g data-paper-data="{&quot;origPos&quot;:null}"><path d="M274.21039,53.41514c0,0 0.06319,0.28573 0.14069,0.81144c0.138,0.93626 -0.4768,1.49478 -1.42948,1.6735c-0.95268,0.17871 -1.91164,0.02105 -2.12381,-0.90123c-0.11449,-0.4976 -0.26103,-0.99708 -0.26103,-0.99708c0,0 1.33723,-0.45762 1.81502,-0.53083c0.92549,-0.14179 1.8586,-0.05576 1.8586,-0.05576z" data-paper-data="{&quot;origPos&quot;:null}" fill="#ffdfc0"/><path d="M272.6312,55.39412c-0.34665,0.00284 -0.5979,-0.32418 -0.5979,-0.32418c0,0 0.32098,0.18933 0.59676,0.18706c0.27579,-0.00226 0.55054,-0.16906 0.55054,-0.16906c0,0 -0.20276,0.30333 -0.54942,0.30619z" data-paper-data="{&quot;origPos&quot;:null,&quot;origRot&quot;:0}" fill="#000000"/><g data-paper-data="{&quot;origPos&quot;:null}"><path d="M273.42964,54.09824c0.04864,0.25932 0.02359,0.47675 -0.15689,0.51547c-0.19915,0.04273 -0.28442,-0.16426 -0.33306,-0.42356c-0.04864,-0.2593 -0.03384,-0.47969 0.15689,-0.51547c0.19073,-0.03579 0.28442,0.16424 0.33306,0.42356z" data-paper-data="{&quot;origPos&quot;:null}" fill="#000000"/><path d="M273.31276,53.91384c0.01623,0.08648 -0.00919,0.16221 -0.11806,0.18424c-0.12012,0.02433 -0.16057,-0.04245 -0.1768,-0.12893c-0.01623,-0.08648 0.00328,-0.1627 0.11806,-0.18422c0.11479,-0.02152 0.16057,0.04243 0.1768,0.12891z" data-paper-data="{&quot;origPos&quot;:null}" fill="#aaaaaa"/></g><g data-paper-data="{&quot;origPos&quot;:null}"><path d="M272.605,54.26888c0.04866,0.25932 0.02359,0.47675 -0.15689,0.51547c-0.19913,0.04273 -0.2844,-0.16426 -0.33304,-0.42356c-0.04864,-0.25932 -0.03387,-0.47971 0.15687,-0.51549c0.19073,-0.03579 0.28444,0.16426 0.33308,0.42358z" data-paper-data="{&quot;origPos&quot;:null}" fill="#000000"/><path d="M272.47227,54.07539c0.01623,0.08648 -0.00917,0.16219 -0.11804,0.18422c-0.12012,0.02433 -0.16055,-0.04243 -0.1768,-0.12891c-0.01623,-0.08648 0.00328,-0.16272 0.11806,-0.18424c0.11479,-0.02152 0.16054,0.04245 0.17677,0.12893z" data-paper-data="{&quot;origPos&quot;:null}" fill="#aaaaaa"/></g></g></g></g><g data-paper-data="{&quot;origPos&quot;:null,&quot;index&quot;:null,&quot;origRot&quot;:0}"><g data-paper-data="{&quot;origPos&quot;:null}" fill="none" stroke-width="1" font-family="sans-serif" font-weight="normal" font-size="12" text-anchor="start"/><g data-paper-data="{&quot;origPos&quot;:null}" fill="none" stroke-width="1" font-family="sans-serif" font-weight="normal" font-size="12" text-anchor="start"/><g data-paper-data="{&quot;origPos&quot;:null}" fill="none" stroke-width="1" font-family="sans-serif" font-weight="normal" font-size="12" text-anchor="start"/><g data-paper-data="{&quot;origPos&quot;:null}" fill="none" stroke-width="1" font-family="sans-serif" font-weight="normal" font-size="12" text-anchor="start"/><g data-paper-data="{&quot;origPos&quot;:null}" fill="none" stroke-width="1" font-family="sans-serif" font-weight="normal" font-size="12" text-anchor="start"/><g data-paper-data="{&quot;origPos&quot;:null}" stroke-width="0"><g data-paper-data="{&quot;origPos&quot;:null}"><path d="M278.92617,47.82816c1.91468,-0.3592 3.60459,-0.11185 3.9224,1.7779c0.16948,1.00771 0.10584,1.46302 -0.84873,1.82774c-0.7309,0.27926 -2.9267,0.68382 -3.69311,0.84145c-1.67517,0.34455 -2.32034,0.14293 -2.62044,-1.29527c-0.11737,-0.56259 -0.10276,-1.13518 0.25363,-1.58605c0.83489,-1.0562 1.7075,-1.32586 2.98626,-1.56574z" data-paper-data="{&quot;origPos&quot;:null}" fill="#ffffff"/><path d="M281.38608,49.55924c0.14974,0.79812 -0.3314,1.55816 -1.07467,1.6976c-0.74325,0.13944 -1.46714,-0.39453 -1.61688,-1.19265c-0.14972,-0.7981 0.3314,-1.55816 1.07467,-1.6976c0.74327,-0.13944 1.46714,0.39453 1.61688,1.19265z" data-paper-data="{&quot;origPos&quot;:null}" fill="#4e7aff"/><path d="M275.71348,51.52751c-0.08855,-0.34287 -0.15395,-0.43521 -0.11227,-1.12582c-0.03952,-0.2656 0.12916,-0.6566 0.12916,-0.6566c0,0 0.76295,-0.05829 1.08564,0.12662c0.37863,0.21695 0.50179,0.61901 0.61176,1.04128c0.11563,0.44405 0.11293,0.74762 -0.09834,1.186c-0.1023,0.21232 -0.14356,0.24423 -0.14356,0.24423c0,0 -0.53256,0.18033 -0.80817,0.07944c-0.33662,-0.17436 -0.45919,-0.32354 -0.66419,-0.89518z" data-paper-data="{&quot;origPos&quot;:null,&quot;origRot&quot;:0}" fill="#4e7aff"/><path d="M282.06645,49.76695c-0.19424,-0.99329 0.36223,-1.16683 0.36223,-1.16683c0,0 0.26198,0.04115 0.45815,1.03407c0.17196,0.87036 -0.05912,1.21668 -0.05912,1.21668c0,0 -0.54717,0.01103 -0.76127,-1.08389z" data-paper-data="{&quot;origPos&quot;:null}" fill="#4e7aff"/></g><g data-paper-data="{&quot;origPos&quot;:null}"><path d="M281.58766,51.6288c0,0 0.0632,0.28573 0.1407,0.81144c0.138,0.93626 -0.47682,1.49477 -1.4295,1.67348c-0.95268,0.17871 -1.91163,0.02105 -2.12381,-0.90123c-0.11449,-0.4976 -0.26102,-0.99708 -0.26102,-0.99708c0,0 1.33721,-0.45762 1.81501,-0.53083c0.92549,-0.14179 1.8586,-0.05578 1.8586,-0.05578z" data-paper-data="{&quot;origPos&quot;:null}" fill="#ffdfc0"/><path d="M280.00846,53.60776c-0.34665,0.00284 -0.59787,-0.3242 -0.59787,-0.3242c0,0 0.32096,0.18934 0.59675,0.18708c0.27579,-0.00226 0.55054,-0.16908 0.55054,-0.16908c0,0 -0.20276,0.30333 -0.54942,0.30619z" data-paper-data="{&quot;origPos&quot;:null,&quot;origRot&quot;:0}" fill="#000000"/><g data-paper-data="{&quot;origPos&quot;:null}"><path d="M280.8069,52.31188c0.04864,0.25932 0.02359,0.47676 -0.15689,0.51549c-0.19915,0.04273 -0.2844,-0.16426 -0.33304,-0.42358c-0.04864,-0.2593 -0.03385,-0.47969 0.15687,-0.51547c0.19073,-0.03579 0.28442,0.16424 0.33306,0.42356z" data-paper-data="{&quot;origPos&quot;:null}" fill="#000000"/><path d="M280.69001,52.1275c0.01623,0.08648 -0.00919,0.16221 -0.11806,0.18424c-0.12012,0.02433 -0.16057,-0.04245 -0.1768,-0.12893c-0.01623,-0.08648 0.00328,-0.1627 0.11806,-0.18422c0.11479,-0.02152 0.16056,0.04243 0.1768,0.12891z" data-paper-data="{&quot;origPos&quot;:null}" fill="#aaaaaa"/></g><g data-paper-data="{&quot;origPos&quot;:null}"><path d="M279.98227,52.48254c0.04866,0.25932 0.02357,0.47676 -0.15691,0.51549c-0.19913,0.04273 -0.28442,-0.16426 -0.33304,-0.42358c-0.04864,-0.25932 -0.03384,-0.47971 0.15689,-0.51549c0.19073,-0.03579 0.28444,0.16426 0.33308,0.42358z" data-paper-data="{&quot;origPos&quot;:null}" fill="#000000"/><path d="M279.84953,52.28904c0.01623,0.08648 -0.00916,0.16219 -0.11802,0.18422c-0.12012,0.02433 -0.16056,-0.04241 -0.1768,-0.1289c-0.01623,-0.08648 0.00326,-0.16272 0.11806,-0.18426c0.11479,-0.02152 0.16054,0.04245 0.17677,0.12893z" data-paper-data="{&quot;origPos&quot;:null}" fill="#aaaaaa"/></g></g></g></g></g><g data-paper-data="{&quot;origPos&quot;:null}"><path d="M341.20914,43.32092c1.03171,1.2539 1.16597,2.9406 -0.81896,3.51833c-0.74445,0.21667 -1.55287,0.30068 -2.31727,0.4324c-1.12875,0.19448 -3.29937,1.02183 -4.41738,0.76113c-3.78748,-0.88322 -2.2091,-4.94331 -1.88903,-7.67471c-0.24957,-0.2051 -0.50658,-0.57164 -0.31117,-1.15281c0.00735,-0.02259 0.0154,-0.04493 0.02417,-0.06692c0.1695,-0.43875 0.46176,-0.61115 0.73464,-0.6671l0.96743,-0.42694l0.22967,0.5204c0.09392,0.05815 0.18296,0.13621 0.25842,0.24053l1.25505,0.45603l-0.02037,0.05603c2.29088,0.97756 4.97626,2.38893 6.30482,4.00365z" data-paper-data="{&quot;origPos&quot;:null}" fill="#ae5600" stroke="none" stroke-width="0.5" stroke-linecap="butt"/><path d="M326.00933,33.54935c-0.08548,0.03566 -0.18271,0.0641 -0.29321,0.08313c-1.07759,0.18566 -1.26325,-0.89194 -1.26325,-0.89194c-0.13149,-0.7632 -0.18063,-1.61586 -0.40593,-2.35593c-0.00412,-0.01356 -0.03373,-0.0667 -0.07587,-0.14062c-0.5394,0.43696 -2.37362,0.64876 -2.69223,0.5142c-2.97838,-1.25783 -2.62876,-4.10721 0.01805,-5.3731c2.33013,-1.0283 8.16401,-2.65833 10.18241,-1.02258c1.45598,1.17995 0.63316,3.2521 -0.71036,4.03694c-0.18806,0.10986 -1.42711,0.45648 -1.24759,0.76518c-0.35732,0.50609 1.06565,2.33171 0.42759,3.2354c-1.13646,1.60963 -2.46113,1.74563 -3.9396,1.14929z" data-paper-data="{&quot;origPos&quot;:null}" fill="#ae5600" stroke="none" stroke-width="0.5" stroke-linecap="butt"/><path d="M312.42028,36.16056c2.19841,-0.82672 4.42412,-1.36558 6.61352,-2.20978c2.69733,-1.03467 8.8298,-3.79043 11.37619,-2.20253c0.91448,0.57027 0.99464,3.82053 1.15818,4.76971c0.51864,3.00997 2.80454,8.98231 0.56415,11.474c-0.58797,0.65393 -3.31479,0.87438 -4.21939,1.03023c-3.32584,0.43745 -6.73474,1.5376 -10.10927,2.04508c-0.91462,0.13754 -2.07011,0.98296 -2.98726,0.64478c-2.11925,-0.78142 -1.83702,-1.08503 -2.13975,-2.84201c-0.55505,-3.22131 -2.0164,-11.82672 -2.0164,-11.82672c0.00332,-0.31924 1.57006,-1.03688 1.76,-0.88275z" data-paper-data="{&quot;origPos&quot;:null}" fill="#ffab00" stroke="none" stroke-width="0.5" stroke-linecap="butt"/><path d="M312.25097,52.27899c-0.32228,-1.8704 0.93272,-3.64791 2.80314,-3.9702c1.8704,-0.32228 3.64792,0.93274 3.9702,2.80316c0.32228,1.8704 -0.93274,3.6479 -2.80314,3.97018c-1.8704,0.32228 -3.64792,-0.93272 -3.97018,-2.80316z" data-paper-data="{&quot;origPos&quot;:null}" fill="#cf7c00" stroke="none" stroke-width="0" stroke-linecap="butt"/><path d="M318.97355,50.81745c-0.32228,-1.8704 0.93272,-3.64792 2.80316,-3.97018c1.8704,-0.32228 3.6479,0.93272 3.97018,2.80316c0.32228,1.8704 -0.93272,3.64792 -2.80316,3.97018c-1.8704,0.32228 -3.64791,-0.93272 -3.97018,-2.80316z" data-paper-data="{&quot;origPos&quot;:null}" fill="#cf7c00" stroke="none" stroke-width="0" stroke-linecap="butt"/><path d="M326.60499,49.35094c-0.33629,-1.95173 0.97329,-3.80652 2.92502,-4.14281c1.95173,-0.33629 3.80652,0.97329 4.1428,2.925c0.33629,1.95173 -0.97329,3.80652 -2.925,4.1428c-1.95173,0.33629 -3.80652,-0.97329 -4.14281,-2.925z" data-paper-data="{&quot;origPos&quot;:null}" fill="#cf7c00" stroke="none" stroke-width="0" stroke-linecap="butt"/><path d="M332.59632,48.9251l-19.43651,3.34891" data-paper-data="{&quot;origPos&quot;:null}" fill="none" stroke="#ae5600" stroke-width="1" stroke-linecap="round"/><path d="M328.2803,42.08479l-1.70374,2.01845l-2.7381,-4.61399l-1.7989,2.41863l-2.07294,-1.23342l-1.34886,5.94839l-2.31594,-1.51589l3.1979,-7.61649l2.04091,1.53971l1.80571,-2.82438z" data-paper-data="{&quot;origPos&quot;:null,&quot;origRot&quot;:0}" fill="#cf7c00" stroke="none" stroke-width="0.12106" stroke-linecap="round"/></g></g></g></g></svg>