<svg version="1.1" xmlns="http://www.w3.org/2000/svg" xmlns:xlink="http://www.w3.org/1999/xlink" width="336.25118" height="490.73681" viewBox="0,0,336.25118,490.73681"><g transform="translate(-247.11709,38.36841)"><g data-paper-data="{&quot;isPaintingLayer&quot;:true}" fill-rule="nonzero" stroke-linejoin="miter" stroke-miterlimit="10" stroke-dasharray="" stroke-dashoffset="0" style="mix-blend-mode: normal"><path d="M252.80897,-36.86226c-1.96531,-0.1474 -3.83656,-0.78526 -5.69188,-1.50615c2.04244,0.49783 4.08242,1.00952 6.12276,1.51929c-0.14294,0.00185 -0.28654,-0.00231 -0.43088,-0.01314z" fill="#cfcfcf" stroke="none" stroke-width="0.5" stroke-linecap="butt"/><g><path d="M254.88329,315.98326h21.02102l33.03303,-22.52252h43.54354v114.11411h-28.52853l-12.01202,-49.54955h-49.54955l-7.50751,13.51351z" fill="#a4b337" stroke="#a4b337" stroke-width="2.5" stroke-linecap="round"/><path d="M347.97639,440.60789v10.51051h-78.07808v-12.01201h-16.51651v-37.53754h25.52552l6.0045,-15.26351l15.01652,51.29955z" fill="#a4b337" stroke="#a4b337" stroke-width="2.5" stroke-linecap="round"/><path d="M429.74141,442.95626l19.51952,6.28674h-55.55556v-6.28674z" fill="#a4b337" stroke="none" stroke-width="0" stroke-linecap="round"/><path d="M460.86826,387.79767v0" fill="none" stroke="none" stroke-width="0" stroke-linecap="round"/><path d="M527.86828,383.96434l-0.5,11.19512l-10,9.32927v4.97561" fill="none" stroke="#6f3500" stroke-width="20" stroke-linecap="round"/><path d="M397.36826,410.69767v-62h85v62z" fill="#a4b337" stroke="none" stroke-width="0" stroke-linecap="butt"/><path d="M482.36826,410.69767v11h-11l-43,-11z" fill="#a4b337" stroke="#a4b337" stroke-width="0.5" stroke-linecap="round"/><path d="M541.38329,251.18115h35.98498v49.51652h-23h-43z" fill="#8f8f8f" stroke="#8f8f8f" stroke-width="0.5" stroke-linecap="round"/><path d="M545.86828,334.19767h27.5" fill="none" stroke="#a56224" stroke-width="20" stroke-linecap="round"/></g></g></g></svg>