<svg version="1.1" xmlns="http://www.w3.org/2000/svg" xmlns:xlink="http://www.w3.org/1999/xlink" width="212.67858" height="31.5409" viewBox="0,0,212.67858,31.5409"><g transform="translate(-133.5391,-164.10305)"><g data-paper-data="{&quot;isPaintingLayer&quot;:true}" fill="#ffffff" fill-rule="nonzero" stroke-linecap="butt" stroke-linejoin="miter" stroke-miterlimit="10" stroke-dasharray="" stroke-dashoffset="0" style="mix-blend-mode: normal"><path d="M142.91442,167.665c0,0.06767 0.02901,0.1015 0.08703,0.1015c0.06768,1.96277 0.16921,6.35242 0.30457,13.16894h0.08703l8.65842,-3.04569c0,0.06767 0.03384,0.1015 0.10153,0.1015l-0.29006,7.28062c0,0.12567 -4.49116,0.5511 -13.47349,1.27628c-0.20304,-1.01522 -1.15542,-7.04856 -2.85713,-18.10002c0.76384,-0.12567 3.22455,-0.38673 7.38214,-0.78319z" data-paper-data="{&quot;origPos&quot;:null}" stroke="#004377" stroke-width="3.5"/><path d="M155.63374,166.2437l5.69977,0.89919c-0.71549,2.73627 -1.18443,4.10441 -1.40681,4.10441c-2.99733,-0.20304 -4.496,-0.40125 -4.496,-0.59464v-4.20591c0.029,-0.13534 0.09669,-0.20301 0.20305,-0.20301zM154.03839,173.14724h0.08703c4.40898,0.8025 6.61347,1.27144 6.61347,1.4068c-1.26661,7.17426 -2.03528,11.17232 -2.30601,11.99417h-4.59752c-0.13537,0 -0.20305,-0.06767 -0.20305,-0.20301z" data-paper-data="{&quot;origPos&quot;:null}" stroke="#004377" stroke-width="3.5"/><path d="M172.63152,172.10299c4.10925,0.10634 6.16387,0.28522 6.16387,0.53663c0.70582,10.70337 1.05874,16.3983 1.05874,17.0848c-3.11336,1.98211 -5.34202,3.32607 -6.68599,4.03188c-4.73772,-1.489 -7.10658,-2.33985 -7.10658,-2.55255c1.52767,-2.23351 2.41237,-3.36477 2.65409,-3.39377c2.58157,1.27629 4.06574,1.91444 4.45249,1.91444l1.37781,-1.81291c-0.36741,-1.49866 -0.61397,-2.38336 -0.73966,-2.6541c-0.21271,0 -2.83296,0.42543 -7.86075,1.2763c-2.75561,-4.47666 -4.13342,-6.773 -4.13342,-6.88904c2.37853,-3.79984 3.82885,-6.02851 4.35097,-6.68599h0.10153c0.2804,0 2.36886,0.45927 6.26539,1.3778v-0.31906c0,-0.37709 -0.03384,-0.98139 -0.10153,-1.81291zM168.07751,178.25237c0.13537,0.29974 0.5608,1.8951 1.27629,4.78607c0.8992,-0.29007 2.27701,-0.82186 4.13342,-1.59536c-0.35775,-1.74039 -0.53662,-2.73144 -0.53662,-2.97316l-0.52212,-0.1015h-0.63814c-0.81218,0 -2.04979,-0.03867 -3.71283,-0.116z" data-paper-data="{&quot;origPos&quot;:null}" stroke="#004377" stroke-width="3.5"/><path d="M187.91792,167.6795c0.05802,0.087 0.32874,2.73626 0.81218,7.94778c3.73216,-1.14092 5.71911,-1.71138 5.96083,-1.71138l3.69832,2.52355c-0.59947,5.51123 -0.99105,8.73094 -1.17476,9.65915l-5.13414,0.17401c0,-0.058 -0.03384,-0.087 -0.10153,-0.087l0.10153,-0.36258c0,-0.78317 0.11603,-3.1617 0.34808,-7.13559c-1.41165,-0.058 -2.46071,-0.087 -3.1472,-0.087h-0.36258c0.41576,4.41864 0.62364,6.82617 0.62364,7.2226l-4.87308,0.72516c-0.18371,-0.61881 -1.26661,-6.39593 -3.24872,-17.33135c0,-0.30941 0.75417,-0.55113 2.2625,-0.72516c1.90476,-0.54146 3.3164,-0.81219 4.23494,-0.81219z" data-paper-data="{&quot;origPos&quot;:null}" stroke="#004377" stroke-width="3.5"/><path d="M204.08901,167.6795l6.38142,1.13127l-0.60913,4.84407c1.26662,-0.06767 2.19482,-0.1015 2.78462,-0.1015h0.92821l0.20305,-0.1015l0.10153,0.20301c-0.20305,2.93931 -0.37708,4.59268 -0.52212,4.9601l-0.20305,-0.116c-0.14504,0 -1.45033,-0.06767 -3.91587,-0.20301c-0.13537,2.27218 -0.23689,4.98912 -0.30457,8.15081l-0.20305,0.1015c-3.11336,-0.20305 -4.96977,-0.37709 -5.56924,-0.52211l0.10153,-0.40611c0,-0.84118 0.13536,-3.45176 0.40609,-7.83173c-2.61058,-0.145 -3.91587,-0.31904 -3.91587,-0.52211c0.13537,-3.22938 0.30941,-4.84407 0.52212,-4.84407l3.81435,0.72516v-1.24728c0,-1.01524 -0.03868,-2.38821 -0.11603,-4.11893c0.07735,0 0.11603,-0.03383 0.11603,-0.1015z" data-paper-data="{&quot;origPos&quot;:null}" stroke="#004377" stroke-width="3.5"/><path d="M235.12789,166.2437l5.69977,0.89919c-0.71549,2.73627 -1.18443,4.10441 -1.40681,4.10441c-2.99733,-0.20304 -4.496,-0.40125 -4.496,-0.59464v-4.20591c0.029,-0.13534 0.09669,-0.20301 0.20305,-0.20301zM233.53253,173.14724h0.08703c4.40898,0.8025 6.61347,1.27144 6.61347,1.4068c-1.26661,7.17426 -2.03528,11.17232 -2.30601,11.99417h-4.59752c-0.13537,0 -0.20305,-0.06767 -0.20305,-0.20301z" data-paper-data="{&quot;origPos&quot;:null}" stroke="#004377" stroke-width="3.5"/><path d="M297.30319,167.6795c4.32197,1.68238 6.48296,2.57675 6.48296,2.6831c-1.38264,2.82329 -2.07397,4.29295 -2.07397,4.40899h-0.087c-0.6188,-0.17404 -1.97727,-0.77834 -4.07541,-1.81291l-3.45176,2.42205c0,2.99733 0.1692,4.49599 0.50761,4.49599c0.22238,0.116 1.66787,0.69613 4.33647,1.74039c1.02489,-1.01522 2.06428,-1.99661 3.11819,-2.94416c0.19337,0.17404 1.05873,1.55668 2.59608,4.14793v0.26106c-0.09667,0 -2.23348,1.15542 -6.41043,3.46627c-5.33719,-1.78874 -8.0783,-2.74111 -8.22333,-2.85713l-2.59608,-8.5714c2.43654,-3.46144 3.67898,-5.19215 3.72733,-5.19215c0.10635,0 2.15614,-0.74934 6.14936,-2.24802z" data-paper-data="{&quot;origPos&quot;:null}" stroke="#004377" stroke-width="3.5"/><path d="M314.17046,172.05949l0.1015,0.18851l-1.95794,10.38431h0.1015l4.9891,-1.46483v-5.87379c0.01933,-0.13534 0.08217,-0.20301 0.18851,-0.20301c3.75151,0.26107 5.83998,0.39161 6.2654,0.39161c0,0.06767 0.03383,0.1015 0.1015,0.1015c0,1.65337 -0.52212,5.08096 -1.56636,10.28278c0,0.29974 -1.49866,0.52696 -4.49599,0.68166c-0.15467,-0.1837 -0.2852,-0.57529 -0.39158,-1.17477c-3.83853,0.78318 -6.02851,1.17477 -6.56996,1.17477c-3.06501,-2.28185 -4.59752,-3.45661 -4.59752,-3.5243c0.52211,-6.85519 0.85085,-10.41331 0.98622,-10.67437h0.087c2.44622,-0.06767 4.69905,-0.16435 6.75851,-0.29006z" data-paper-data="{&quot;origPos&quot;:null}" stroke="#004377" stroke-width="3.5"/><path d="M332.70556,172.07399c0.29974,1.23761 0.50762,2.00144 0.62364,2.2915c4.27362,-0.97654 6.53129,-1.46481 6.77301,-1.46481c2.91031,4.18659 4.36546,6.37174 4.36546,6.55546l-3.33574,7.07757l-7.1791,-1.14575v0.21751c0.56079,4.30262 0.84119,6.5893 0.84119,6.86004c-0.06767,0 -0.1015,0.03383 -0.1015,0.1015c-0.69615,-0.06767 -1.21827,-0.1015 -1.56636,-0.1015h-1.24728c-0.72515,0 -1.83706,-0.03383 -3.33574,-0.1015c-0.13534,-0.40609 -1.17473,-6.57963 -3.11819,-18.52062c0.32874,-0.13534 2.75561,-0.72513 7.28062,-1.76939zM333.22767,178.00581c0.19339,2.22383 0.36742,3.33574 0.52211,3.33574c1.98211,0.68648 3.19555,1.02972 3.64032,1.02972l1.14575,-4.9891h-0.1015c-1.13124,0.06767 -2.86679,0.27555 -5.20666,0.62364z" data-paper-data="{&quot;origPos&quot;:null}" stroke="#004377" stroke-width="3.5"/><path d="M142.91442,167.665c0,0.06767 0.02901,0.1015 0.08703,0.1015c0.06768,1.96277 0.16921,6.35242 0.30457,13.16894h0.08703l8.65842,-3.04569c0,0.06767 0.03384,0.1015 0.10153,0.1015l-0.29006,7.28062c0,0.12567 -4.49116,0.5511 -13.47349,1.27628c-0.20304,-1.01522 -1.15542,-7.04856 -2.85713,-18.10002c0.76384,-0.12567 3.22455,-0.38673 7.38214,-0.78319z" data-paper-data="{&quot;origPos&quot;:null}" stroke="none" stroke-width="0.26458"/><path d="M155.63374,166.2437l5.69977,0.89919c-0.71549,2.73627 -1.18443,4.10441 -1.40681,4.10441c-2.99733,-0.20304 -4.496,-0.40125 -4.496,-0.59464v-4.20591c0.029,-0.13534 0.09669,-0.20301 0.20305,-0.20301zM154.03839,173.14724h0.08703c4.40898,0.8025 6.61347,1.27144 6.61347,1.4068c-1.26661,7.17426 -2.03528,11.17232 -2.30601,11.99417h-4.59752c-0.13537,0 -0.20305,-0.06767 -0.20305,-0.20301z" data-paper-data="{&quot;origPos&quot;:null}" stroke="none" stroke-width="0.26458"/><path d="M172.63152,172.10299c4.10925,0.10634 6.16387,0.28522 6.16387,0.53663c0.70582,10.70337 1.05874,16.3983 1.05874,17.0848c-3.11336,1.98211 -5.34202,3.32607 -6.68599,4.03188c-4.73772,-1.489 -7.10658,-2.33985 -7.10658,-2.55255c1.52767,-2.23351 2.41237,-3.36477 2.65409,-3.39377c2.58157,1.27629 4.06574,1.91444 4.45249,1.91444l1.37781,-1.81291c-0.36741,-1.49866 -0.61397,-2.38336 -0.73966,-2.6541c-0.21271,0 -2.83296,0.42543 -7.86075,1.2763c-2.75561,-4.47666 -4.13342,-6.773 -4.13342,-6.88904c2.37853,-3.79984 3.82885,-6.02851 4.35097,-6.68599h0.10153c0.2804,0 2.36886,0.45927 6.26539,1.3778v-0.31906c0,-0.37709 -0.03384,-0.98139 -0.10153,-1.81291zM168.07751,178.25237c0.13537,0.29974 0.5608,1.8951 1.27629,4.78607c0.8992,-0.29007 2.27701,-0.82186 4.13342,-1.59536c-0.35775,-1.74039 -0.53662,-2.73144 -0.53662,-2.97316l-0.52212,-0.1015h-0.63814c-0.81218,0 -2.04979,-0.03867 -3.71283,-0.116z" data-paper-data="{&quot;origPos&quot;:null}" stroke="none" stroke-width="0.26458"/><path d="M187.91792,167.6795c0.05802,0.087 0.32874,2.73626 0.81218,7.94778c3.73216,-1.14092 5.71911,-1.71138 5.96083,-1.71138l3.69832,2.52355c-0.59947,5.51123 -0.99105,8.73094 -1.17476,9.65915l-5.13414,0.17401c0,-0.058 -0.03384,-0.087 -0.10153,-0.087l0.10153,-0.36258c0,-0.78317 0.11603,-3.1617 0.34808,-7.13559c-1.41165,-0.058 -2.46071,-0.087 -3.1472,-0.087h-0.36258c0.41576,4.41864 0.62364,6.82617 0.62364,7.2226l-4.87308,0.72516c-0.18371,-0.61881 -1.26661,-6.39593 -3.24872,-17.33135c0,-0.30941 0.75417,-0.55113 2.2625,-0.72516c1.90476,-0.54146 3.3164,-0.81219 4.23494,-0.81219z" data-paper-data="{&quot;origPos&quot;:null}" stroke="none" stroke-width="0.26458"/><path d="M204.08901,167.6795l6.38142,1.13127l-0.60913,4.84407c1.26662,-0.06767 2.19482,-0.1015 2.78462,-0.1015h0.92821l0.20305,-0.1015l0.10153,0.20301c-0.20305,2.93931 -0.37708,4.59268 -0.52212,4.9601l-0.20305,-0.116c-0.14504,0 -1.45033,-0.06767 -3.91587,-0.20301c-0.13537,2.27218 -0.23689,4.98912 -0.30457,8.15081l-0.20305,0.1015c-3.11336,-0.20305 -4.96977,-0.37709 -5.56924,-0.52211l0.10153,-0.40611c0,-0.84118 0.13536,-3.45176 0.40609,-7.83173c-2.61058,-0.145 -3.91587,-0.31904 -3.91587,-0.52211c0.13537,-3.22938 0.30941,-4.84407 0.52212,-4.84407l3.81435,0.72516v-1.24728c0,-1.01524 -0.03868,-2.38821 -0.11603,-4.11893c0.07735,0 0.11603,-0.03383 0.11603,-0.1015z" data-paper-data="{&quot;origPos&quot;:null}" stroke="none" stroke-width="0.26458"/><path d="M235.12789,166.2437l5.69977,0.89919c-0.71549,2.73627 -1.18443,4.10441 -1.40681,4.10441c-2.99733,-0.20304 -4.496,-0.40125 -4.496,-0.59464v-4.20591c0.029,-0.13534 0.09669,-0.20301 0.20305,-0.20301zM233.53253,173.14724h0.08703c4.40898,0.8025 6.61347,1.27144 6.61347,1.4068c-1.26661,7.17426 -2.03528,11.17232 -2.30601,11.99417h-4.59752c-0.13537,0 -0.20305,-0.06767 -0.20305,-0.20301z" data-paper-data="{&quot;origPos&quot;:null}" stroke="none" stroke-width="0.26458"/><path d="M297.30319,167.6795c4.32197,1.68238 6.48296,2.57675 6.48296,2.6831c-1.38264,2.82329 -2.07397,4.29295 -2.07397,4.40899h-0.087c-0.6188,-0.17404 -1.97727,-0.77834 -4.07541,-1.81291l-3.45176,2.42205c0,2.99733 0.1692,4.49599 0.50761,4.49599c0.22238,0.116 1.66787,0.69613 4.33647,1.74039c1.02489,-1.01522 2.06428,-1.99661 3.11819,-2.94416c0.19337,0.17404 1.05873,1.55668 2.59608,4.14793v0.26106c-0.09667,0 -2.23348,1.15542 -6.41043,3.46627c-5.33719,-1.78874 -8.0783,-2.74111 -8.22333,-2.85713l-2.59608,-8.5714c2.43654,-3.46144 3.67898,-5.19215 3.72733,-5.19215c0.10635,0 2.15614,-0.74934 6.14936,-2.24802z" data-paper-data="{&quot;origPos&quot;:null}" stroke="none" stroke-width="0.26458"/><path d="M314.17046,172.05949l0.1015,0.18851l-1.95794,10.38431h0.1015l4.9891,-1.46483v-5.87379c0.01933,-0.13534 0.08217,-0.20301 0.18851,-0.20301c3.75151,0.26107 5.83998,0.39161 6.2654,0.39161c0,0.06767 0.03383,0.1015 0.1015,0.1015c0,1.65337 -0.52212,5.08096 -1.56636,10.28278c0,0.29974 -1.49866,0.52696 -4.49599,0.68166c-0.15467,-0.1837 -0.2852,-0.57529 -0.39158,-1.17477c-3.83853,0.78318 -6.02851,1.17477 -6.56996,1.17477c-3.06501,-2.28185 -4.59752,-3.45661 -4.59752,-3.5243c0.52211,-6.85519 0.85085,-10.41331 0.98622,-10.67437h0.087c2.44622,-0.06767 4.69905,-0.16435 6.75851,-0.29006z" data-paper-data="{&quot;origPos&quot;:null}" stroke="none" stroke-width="0.26458"/><path d="M332.70556,172.07399c0.29974,1.23761 0.50762,2.00144 0.62364,2.2915c4.27362,-0.97654 6.53129,-1.46481 6.77301,-1.46481c2.91031,4.18659 4.36546,6.37174 4.36546,6.55546l-3.33574,7.07757l-7.1791,-1.14575v0.21751c0.56079,4.30262 0.84119,6.5893 0.84119,6.86004c-0.06767,0 -0.1015,0.03383 -0.1015,0.1015c-0.69615,-0.06767 -1.21827,-0.1015 -1.56636,-0.1015h-1.24728c-0.72515,0 -1.83706,-0.03383 -3.33574,-0.1015c-0.13534,-0.40609 -1.17473,-6.57963 -3.11819,-18.52062c0.32874,-0.13534 2.75561,-0.72513 7.28062,-1.76939zM333.22767,178.00581c0.19339,2.22383 0.36742,3.33574 0.52211,3.33574c1.98211,0.68648 3.19555,1.02972 3.64032,1.02972l1.14575,-4.9891h-0.1015c-1.13124,0.06767 -2.86679,0.27555 -5.20666,0.62364z" data-paper-data="{&quot;origPos&quot;:null}" stroke="none" stroke-width="0.26458"/><path d="M271.26991,172.10299c4.10925,0.10634 6.16387,0.28522 6.16387,0.53663c0.70582,10.70337 1.05873,16.3983 1.05873,17.0848c-3.11336,1.98211 -5.34202,3.32607 -6.68599,4.03188c-4.73772,-1.489 -7.10658,-2.33985 -7.10658,-2.55255c1.52767,-2.23351 2.41237,-3.36477 2.65409,-3.39377c2.58157,1.27629 4.06574,1.91444 4.45249,1.91444l1.37781,-1.81291c-0.36741,-1.49866 -0.61397,-2.38336 -0.73966,-2.6541c-0.21271,0 -2.83296,0.42543 -7.86075,1.2763c-2.75561,-4.47666 -4.13342,-6.773 -4.13342,-6.88904c2.37853,-3.79984 3.82885,-6.02851 4.35097,-6.68599h0.10153c0.2804,0 2.36886,0.45927 6.26539,1.3778v-0.31906c0,-0.37709 -0.03384,-0.98139 -0.10153,-1.81291zM266.7159,178.25237c0.13537,0.29974 0.5608,1.8951 1.27628,4.78607c0.8992,-0.29007 2.27701,-0.82186 4.13342,-1.59536c-0.35775,-1.74039 -0.53662,-2.73144 -0.53662,-2.97316l-0.52212,-0.1015h-0.63814c-0.81218,0 -2.04979,-0.03867 -3.71283,-0.116z" data-paper-data="{&quot;origPos&quot;:null}" stroke="#004377" stroke-width="3.5"/><path d="M271.26991,172.10299c4.10925,0.10634 6.16387,0.28522 6.16387,0.53663c0.70582,10.70337 1.05873,16.3983 1.05873,17.0848c-3.11336,1.98211 -5.34202,3.32607 -6.68599,4.03188c-4.73772,-1.489 -7.10658,-2.33985 -7.10658,-2.55255c1.52767,-2.23351 2.41237,-3.36477 2.65409,-3.39377c2.58157,1.27629 4.06574,1.91444 4.45249,1.91444l1.37781,-1.81291c-0.36741,-1.49866 -0.61397,-2.38336 -0.73966,-2.6541c-0.21271,0 -2.83296,0.42543 -7.86075,1.2763c-2.75561,-4.47666 -4.13342,-6.773 -4.13342,-6.88904c2.37853,-3.79984 3.82885,-6.02851 4.35097,-6.68599h0.10153c0.2804,0 2.36886,0.45927 6.26539,1.3778v-0.31906c0,-0.37709 -0.03384,-0.98139 -0.10153,-1.81291zM266.7159,178.25237c0.13537,0.29974 0.5608,1.8951 1.27628,4.78607c0.8992,-0.29007 2.27701,-0.82186 4.13342,-1.59536c-0.35775,-1.74039 -0.53662,-2.73144 -0.53662,-2.97316l-0.52212,-0.1015h-0.63814c-0.81218,0 -2.04979,-0.03867 -3.71283,-0.116z" data-paper-data="{&quot;origPos&quot;:null}" stroke="none" stroke-width="0.26458"/><g><path d="M254.18512,172.05949l4.82957,3.32124c-0.33841,5.51121 -0.57529,8.73093 -0.71066,9.65915c-0.56079,0.06767 -2.26734,0.16919 -5.11964,0.30456l-0.10153,-0.20301l-0.50761,-7.74473l-0.20305,-0.1015c-1.84674,0.39642 -3.11819,0.69616 -3.81435,0.89919c0.19338,3.29707 0.29007,5.68043 0.29007,7.15009c-2.88131,0.80252 -4.45732,1.20377 -4.72805,1.20377c-1.87575,-8.25717 -2.81363,-12.61781 -2.81363,-13.08191c4.08024,-0.53178 6.2944,-0.79767 6.64248,-0.79767v0.1015c0.06768,0.04833 0.16921,1.05389 0.30457,3.01666c3.74183,-2.48488 5.7191,-3.72733 5.93182,-3.72733z" data-paper-data="{&quot;origPos&quot;:null}" stroke="#004377" stroke-width="3.5"/><path d="M254.18512,172.05949l4.82957,3.32124c-0.33841,5.51121 -0.57529,8.73093 -0.71066,9.65915c-0.56079,0.06767 -2.26734,0.16919 -5.11964,0.30456l-0.10153,-0.20301l-0.50761,-7.74473l-0.20305,-0.1015c-1.84674,0.39642 -3.11819,0.69616 -3.81435,0.89919c0.19338,3.29707 0.29007,5.68043 0.29007,7.15009c-2.88131,0.80252 -4.45732,1.20377 -4.72805,1.20377c-1.87575,-8.25717 -2.81363,-12.61781 -2.81363,-13.08191c4.08024,-0.53178 6.2944,-0.79767 6.64248,-0.79767v0.1015c0.06768,0.04833 0.16921,1.05389 0.30457,3.01666c3.74183,-2.48488 5.7191,-3.72733 5.93182,-3.72733z" data-paper-data="{&quot;origPos&quot;:null}" stroke="none" stroke-width="0.26458"/></g><g><path d="M254.18512,172.05949l4.82957,3.32124c-0.33841,5.51121 -0.57529,8.73093 -0.71066,9.65915c-0.56079,0.06767 -2.26734,0.16919 -5.11964,0.30456l-0.10153,-0.20301l-0.50761,-7.74473l-0.20305,-0.1015c-1.84674,0.39642 -3.11819,0.69616 -3.81435,0.89919c0.19338,3.29707 0.29007,5.68043 0.29007,7.15009c-2.88131,0.80252 -4.45732,1.20377 -4.72805,1.20377c-1.87575,-8.25717 -2.81363,-12.61781 -2.81363,-13.08191c4.08024,-0.53178 6.2944,-0.79767 6.64248,-0.79767v0.1015c0.06768,0.04833 0.16921,1.05389 0.30457,3.01666c3.74183,-2.48488 5.7191,-3.72733 5.93182,-3.72733z" data-paper-data="{&quot;origPos&quot;:null}" stroke="#004377" stroke-width="3.5"/><path d="M254.18512,172.05949l4.82957,3.32124c-0.33841,5.51121 -0.57529,8.73093 -0.71066,9.65915c-0.56079,0.06767 -2.26734,0.16919 -5.11964,0.30456l-0.10153,-0.20301l-0.50761,-7.74473l-0.20305,-0.1015c-1.84674,0.39642 -3.11819,0.69616 -3.81435,0.89919c0.19338,3.29707 0.29007,5.68043 0.29007,7.15009c-2.88131,0.80252 -4.45732,1.20377 -4.72805,1.20377c-1.87575,-8.25717 -2.81363,-12.61781 -2.81363,-13.08191c4.08024,-0.53178 6.2944,-0.79767 6.64248,-0.79767v0.1015c0.06768,0.04833 0.16921,1.05389 0.30457,3.01666c3.74183,-2.48488 5.7191,-3.72733 5.93182,-3.72733z" data-paper-data="{&quot;origPos&quot;:null}" stroke="none" stroke-width="0.26458"/></g><g><path d="M226.98437,172.22937l4.82957,3.32124c-0.33841,5.51121 -0.57529,8.73093 -0.71066,9.65915c-0.56079,0.06767 -2.26734,0.16919 -5.11964,0.30456l-0.10153,-0.20301l-0.50761,-7.74473l-0.20305,-0.1015c-1.84674,0.39642 -3.11819,0.69616 -3.81435,0.89919c0.19338,3.29707 0.29007,5.68043 0.29007,7.15009c-2.88131,0.80252 -4.45732,1.20377 -4.72805,1.20377c-1.87575,-8.25717 -2.81363,-12.61781 -2.81363,-13.08191c4.08024,-0.53178 6.2944,-0.79767 6.64248,-0.79767v0.1015c0.06768,0.04833 0.16921,1.05389 0.30457,3.01666c3.74183,-2.48488 5.7191,-3.72733 5.93182,-3.72733z" data-paper-data="{&quot;origPos&quot;:null}" stroke="#004377" stroke-width="3.5"/><path d="M226.98437,172.22937l4.82957,3.32124c-0.33841,5.51121 -0.57529,8.73093 -0.71066,9.65915c-0.56079,0.06767 -2.26734,0.16919 -5.11964,0.30456l-0.10153,-0.20301l-0.50761,-7.74473l-0.20305,-0.1015c-1.84674,0.39642 -3.11819,0.69616 -3.81435,0.89919c0.19338,3.29707 0.29007,5.68043 0.29007,7.15009c-2.88131,0.80252 -4.45732,1.20377 -4.72805,1.20377c-1.87575,-8.25717 -2.81363,-12.61781 -2.81363,-13.08191c4.08024,-0.53178 6.2944,-0.79767 6.64248,-0.79767v0.1015c0.06768,0.04833 0.16921,1.05389 0.30457,3.01666c3.74183,-2.48488 5.7191,-3.72733 5.93182,-3.72733z" data-paper-data="{&quot;origPos&quot;:null}" stroke="none" stroke-width="0.26458"/></g></g></g></svg>