<svg version="1.1" xmlns="http://www.w3.org/2000/svg" xmlns:xlink="http://www.w3.org/1999/xlink" width="96.1541" height="64.96475" viewBox="0,0,96.1541,64.96475"><defs><linearGradient x1="239.36321" y1="177.02616" x2="239.36321" y2="223.12237" gradientUnits="userSpaceOnUse" id="color-1"><stop offset="0" stop-color="#989898"/><stop offset="1" stop-color="#2d3b4a"/></linearGradient><linearGradient x1="213.07815" y1="183.09283" x2="189.51374" y2="183.09283" gradientUnits="userSpaceOnUse" id="color-2"><stop offset="0" stop-color="#b39f1e"/><stop offset="1" stop-color="#ffed70"/></linearGradient><linearGradient x1="239.69748" y1="201.27524" x2="239.69748" y2="214.16094" gradientUnits="userSpaceOnUse" id="color-3"><stop offset="0" stop-color="#c5c9cc"/><stop offset="1" stop-color="#c5c9cc" stop-opacity="0"/></linearGradient></defs><g transform="translate(-188.51373,-158.90762)"><g data-paper-data="{&quot;isPaintingLayer&quot;:true}" fill-rule="nonzero" stroke-linecap="butt" stroke-linejoin="miter" stroke-miterlimit="10" stroke-dasharray="" stroke-dashoffset="0" style="mix-blend-mode: normal"><path d="M194.80858,223.12237v-46.09621h89.10926v46.09621z" data-paper-data="{&quot;origPos&quot;:null}" fill="url(#color-1)" stroke="#002340" stroke-width="1.5"/><path d="M258.92668,181.06671c0,1.55014 -0.83025,2.90637 -2.07034,3.64825c-0.71025,4.73383 -2.32659,9.10137 -6.55844,12.41091c-5.38393,4.18751 -15.41231,5.02267 -21.70068,2.67951c-1.26086,-0.46982 -3.85723,-1.31049 -4.83378,-2.35253c-3.5493,-3.7873 -3.51462,-8.80359 -0.31983,-12.56843c2.00688,-1.78389 4.47399,-3.93554 6.82001,-5.27126c1.01977,-0.58062 1.87449,-0.86268 2.9054,-1.66627c1.03091,-0.80359 2.44749,-2.27604 2.71415,-2.71415c0.81234,-1.33461 0.53113,-1.86952 0.87208,-3.41928c0.71468,-3.24859 -1.8168,-7.82363 1.82711,-10.65448c0.67786,-0.52661 1.47303,-0.88169 2.20955,-1.32253c6.67858,-3.03571 18.86606,1.49968 17.02712,11.70499c-0.19886,2.06902 -0.28167,4.1851 -0.38258,6.29391c0.91205,0.77919 1.49023,1.93774 1.49023,3.23135zM250.43021,181.06671c0,-1.65499 0.94637,-3.08896 2.32748,-3.79024c0.59235,-5.1646 0.62719,-9.49976 0.63548,-9.4952c-0.03741,-0.13975 -1.94827,-2.9372 -3.91614,-3.60393c-1.96786,-0.66673 -3.90162,-1.38382 -6.84987,-0.04371c-0.42435,-0.15638 -0.72442,0.54185 -1.09464,0.80159c-1.11704,0.78367 -0.27126,7.13685 -0.76903,9.17063c-1.77109,7.23645 -5.01668,6.24978 -9.34564,10.05833c-4.02355,3.53986 -5.49233,4.9467 -5.66337,5.34737c-0.60092,1.40764 -0.37035,2.48469 0.57966,3.59467c0.95001,1.10998 3.69702,2.63522 5.04981,2.98273c1.24715,0.32037 3.20293,-0.00245 4.48425,0c3.87627,0.00742 8.25174,-0.22968 11.41374,-2.68902c2.09633,-1.61955 3.47184,-5.28278 4.37503,-9.34688c-0.75848,-0.76734 -1.22676,-1.82215 -1.22676,-2.98633zM254.69658,184.34819c1.82485,0 3.30418,-1.47933 3.30418,-3.30418c0,-1.82485 -1.47933,-3.30418 -3.30418,-3.30418c-1.82485,0 -3.30418,1.47933 -3.30418,3.30418c0,1.82485 1.47933,3.30418 3.30418,3.30418z" data-paper-data="{&quot;origPos&quot;:null}" fill="#ffffff" stroke="none" stroke-width="0.5"/><path d="M201.29595,194.87504c-6.50713,0 -11.78221,-5.27508 -11.78221,-11.78221c0,-6.50713 5.27508,-11.78221 11.78221,-11.78221c6.50713,0 11.78221,5.27508 11.78221,11.78221c0,6.50713 -5.27508,11.78221 -11.78221,11.78221z" data-paper-data="{&quot;index&quot;:null,&quot;origPos&quot;:null}" fill="url(#color-2)" stroke="#7d6924" stroke-width="2"/><path d="M199.03142,186.52341l-1.41104,-12.27608l8.18405,0.42331l-2.96319,11.85277z" data-paper-data="{&quot;origPos&quot;:null}" fill="#ffffff" stroke="none" stroke-width="0"/><path d="M198.1848,189.98047c0,-1.4417 1.16873,-2.61043 2.61043,-2.61043c1.4417,0 2.61043,1.16873 2.61043,2.61043c0,1.4417 -1.16873,2.61043 -2.61043,2.61043c-1.4417,0 -2.61043,-1.16873 -2.61043,-2.61043z" data-paper-data="{&quot;origPos&quot;:null}" fill="#ffffff" stroke="none" stroke-width="0"/><path d="M223.46126,212.41034c-3.19479,-2.5865 -3.22947,-6.03276 0.31983,-8.63469c0.97655,-0.71589 3.57292,-1.29344 4.83378,-1.61622c6.28837,-1.60978 16.31675,-1.03602 21.70068,1.84086c4.23185,2.2737 5.84819,5.27427 6.55844,8.52648c0.58105,0.23881 1.07212,0.57029 1.42997,0.96472c-0.44063,-0.03814 -0.88209,-0.06967 -1.32433,-0.09522c-0.59151,-0.38288 -1.38857,-0.61752 -2.2654,-0.61752c-0.81372,0 -1.55873,0.20208 -2.13451,0.53718c-0.45053,0.00708 -0.90156,0.01812 -1.353,0.03248c0.13466,-0.13064 0.28455,-0.25335 0.44791,-0.36689c-0.90319,-2.79209 -2.2787,-5.30878 -4.37503,-6.42144c-3.162,-1.6896 -7.53747,-1.8525 -11.41374,-1.8474c-1.28132,0.00169 -3.2371,-0.2201 -4.48425,0c-1.35279,0.23874 -4.0998,1.28661 -5.04981,2.04918c-0.95001,0.76257 -1.18058,1.50252 -0.57966,2.46959c0.17104,0.27526 1.63982,1.24178 5.66337,3.67372c0.8742,0.52839 1.70422,0.92243 2.48684,1.25578c-3.26842,-0.0525 -5.21687,-0.34568 -8.25342,-0.43105c-0.77449,-0.44769 -1.51824,-0.89852 -2.20767,-1.31954z" data-paper-data="{&quot;origPos&quot;:null,&quot;index&quot;:null}" fill="url(#color-3)" stroke="none" stroke-width="0.5"/><text transform="translate(198.05151,209.76115) scale(0.19443,0.19443)" font-size="40" xml:space="preserve" data-paper-data="{&quot;origPos&quot;:null}" fill-opacity="0" fill="#000000" fill-rule="nonzero" stroke="#354250" stroke-width="10" stroke-linecap="butt" stroke-linejoin="miter" stroke-miterlimit="10" stroke-dasharray="" stroke-dashoffset="0" font-family="Sans Serif" font-weight="normal" text-anchor="start" style="mix-blend-mode: normal"><tspan x="0" dy="0">This minimap position</tspan><tspan x="0" dy="46.15px">could reduce visibility.</tspan></text><text transform="translate(198.05152,209.76115) scale(0.19443,0.19443)" font-size="40" xml:space="preserve" data-paper-data="{&quot;origPos&quot;:null}" fill="#ffffff" fill-rule="nonzero" stroke="none" stroke-width="1" stroke-linecap="butt" stroke-linejoin="miter" stroke-miterlimit="10" stroke-dasharray="" stroke-dashoffset="0" font-family="Sans Serif" font-weight="normal" text-anchor="start" style="mix-blend-mode: normal"><tspan x="0" dy="0">This minimap position</tspan><tspan x="0" dy="46.15px">could reduce visibility.</tspan></text></g></g></svg>