<svg version="1.1" xmlns="http://www.w3.org/2000/svg" xmlns:xlink="http://www.w3.org/1999/xlink" width="49.7613" height="26.85" viewBox="0,0,49.7613,26.85"><defs><radialGradient cx="223.2495" cy="179.7994" r="11.1262" gradientUnits="userSpaceOnUse" id="color-1"><stop offset="0" stop-color="#b6becf"/><stop offset="1" stop-color="#999fae"/></radialGradient><linearGradient x1="216.05" y1="178.7" x2="225.55" y2="178.7" gradientUnits="userSpaceOnUse" id="color-2"><stop offset="0" stop-color="#b1b8c9"/><stop offset="1" stop-color="#c6d0e1"/></linearGradient><radialGradient cx="238.3624" cy="180.3404" r="11.7537" gradientUnits="userSpaceOnUse" id="color-3"><stop offset="0" stop-color="#535879"/><stop offset="1" stop-color="#434561"/></radialGradient><radialGradient cx="230.8379" cy="179.9522" r="11.614" gradientUnits="userSpaceOnUse" id="color-4"><stop offset="0" stop-color="#535879"/><stop offset="1" stop-color="#434561"/></radialGradient><radialGradient cx="246.1992" cy="180.2812" r="12.1585" gradientUnits="userSpaceOnUse" id="color-5"><stop offset="0" stop-color="#a9b1c0"/><stop offset="1" stop-color="#828893"/></radialGradient><linearGradient x1="243.5398" y1="180.25155" x2="260.2639" y2="180.25155" gradientUnits="userSpaceOnUse" id="color-6"><stop offset="0" stop-color="#ffce7b"/><stop offset="1" stop-color="#ffa73c"/></linearGradient><linearGradient x1="222.703" y1="188.85" x2="231.953" y2="188.85" gradientUnits="userSpaceOnUse" id="color-7"><stop offset="0" stop-color="#4d4e5e"/><stop offset="1" stop-color="#6b6c84"/></linearGradient><linearGradient x1="241.453" y1="188.85" x2="250.703" y2="188.85" gradientUnits="userSpaceOnUse" id="color-8"><stop offset="0" stop-color="#4d4e5e"/><stop offset="1" stop-color="#6b6c84"/></linearGradient><linearGradient x1="222.653" y1="166.95" x2="231.903" y2="166.95" gradientUnits="userSpaceOnUse" id="color-9"><stop offset="0" stop-color="#4d4e5e"/><stop offset="1" stop-color="#6b6c84"/></linearGradient><linearGradient x1="241.403" y1="166.95" x2="250.653" y2="166.95" gradientUnits="userSpaceOnUse" id="color-10"><stop offset="0" stop-color="#4d4e5e"/><stop offset="1" stop-color="#6b6c84"/></linearGradient><radialGradient cx="221" cy="183.7997" r="2.3404" gradientUnits="userSpaceOnUse" id="color-11"><stop offset="0" stop-color="#d1dbed"/><stop offset="1" stop-color="#a9b1c0"/></radialGradient><radialGradient cx="220.85" cy="176.4" r="2.275" gradientUnits="userSpaceOnUse" id="color-12"><stop offset="0" stop-color="#d1dbed"/><stop offset="1" stop-color="#a9b1c0"/></radialGradient><linearGradient x1="234.2446" y1="180.21614" x2="234.89619" y2="180.21614" gradientUnits="userSpaceOnUse" id="color-13"><stop offset="0" stop-color="#54ffc7"/><stop offset="1" stop-color="#2edf83"/></linearGradient></defs><g transform="translate(-210.5887,-166.8)"><g data-paper-data="{&quot;isPaintingLayer&quot;:true}" fill-rule="nonzero" stroke-linejoin="miter" stroke-miterlimit="10" stroke-dasharray="" stroke-dashoffset="0" style="mix-blend-mode: normal"><path d="M223.55,178.9h25v2.1h-25z" fill="#ffffff" stroke="none" stroke-width="0.88388" stroke-linecap="butt"/><path d="M234.15,171h4.65v18.6h-4.65z" fill="#ffffff" stroke="none" stroke-width="1" stroke-linecap="butt"/><path d="M244.85,170.75h2.3v18.75h-2.3z" fill="#25262e" stroke="none" stroke-width="1" stroke-linecap="butt"/><path d="M226.2,170.75h2.3v18.75h-2.3z" fill="#25262e" stroke="none" stroke-width="1" stroke-linecap="butt"/><path d="M251.6,166.8l3.6,0.2l3.1,1.3l1.95,2.45l0.05,2.8l-4.7,-1l-1.85,-1.05l-2.15,-0.15z" fill="#ffffff" stroke="none" stroke-width="1" stroke-linecap="round"/><path d="M251.65,188.65l2.15,-0.15l1.85,-1.05l4.7,-1l-0.05,2.8l-1.95,2.45l-3.1,1.3l-3.6,0.2z" fill="#ffffff" stroke="none" stroke-width="1" stroke-linecap="round"/><path d="M216.35,173.65h8.95v12.9h-8.95z" fill="url(#color-1)" stroke="none" stroke-width="1" stroke-linecap="butt"/><path d="M216.05,178.7h9.5v2.6h-9.5z" fill="url(#color-2)" stroke="none" stroke-width="1" stroke-linecap="butt"/><g stroke="none" stroke-width="1.59028" stroke-linecap="round"><path d="M234.9734,172.7011c2.0833,-0.2481 4.7232,-0.5709 6.2419,0.8747c1.6157,1.5457 1.5203,4.2556 1.5108,6.4406c0.0095,2.43 0.186,5.4102 -1.5108,7.0768c-1.4933,1.4614 -4.1634,0.8428 -6.2419,0.6361c-1.5887,-0.159 -3.7578,-0.2417 -4.3335,-1.6698c-0.8174,-1.84 0.9749,-3.8962 1.1132,-5.884c0.1257,-1.8034 -1.234,-3.7452 -0.4771,-5.407c0.5216,-1.3056 2.2296,-1.8924 3.6974,-2.0674z" fill="url(#color-3)"/><path d="M228.2882,172.8077c1.18,-0.089 2.414,0.7475 2.942,1.7493c1.0194,1.7223 1.4201,3.8278 1.3517,5.8046c-0.0731,2.1071 -0.5247,4.3271 -1.5902,6.1226c-0.5201,0.8174 -1.8273,1.1768 -2.7035,0.9541c-1.0019,-0.256 -1.673,-0.819 -2.2487,-2.1437c-0.5757,-1.3247 -0.9319,-3.1535 -0.9319,-5.1716c0,-2.018 0.3562,-3.8469 0.9319,-5.1716c0.5757,-1.3247 1.2166,-2.0658 2.2487,-2.1437z" fill="url(#color-4)"/></g><path d="M236.75,177.85h12.8v5.1h-12.8z" data-paper-data="{&quot;origPos&quot;:null}" fill="#edaf54" stroke="none" stroke-width="1" stroke-linecap="butt"/><path d="M244.5,173.0683h8.85v14.3h-8.85z" fill="url(#color-5)" stroke="none" stroke-width="1.14677" stroke-linecap="butt"/><path d="M243.725,176.85c0.683,0 1.302,0.387 1.75,1.011c0.448,0.625 0.725,1.487 0.725,2.439c0,0.952 -0.277,1.814 -0.725,2.439c-0.448,0.624 -1.067,1.011 -1.75,1.011c-0.683,0 -1.302,-0.387 -1.75,-1.011c-0.448,-0.625 -0.725,-1.487 -0.725,-2.439c0,-0.952 0.277,-1.814 0.725,-2.439c0.448,-0.624 1.067,-1.011 1.75,-1.011z" fill="none" stroke="#181a22" stroke-width="1" stroke-linecap="butt"/><path d="M243.5398,176.0097l16.7241,-4.8092v18.1021l-16.7241,-4.9173z" data-paper-data="{&quot;origPos&quot;:null}" fill="url(#color-6)" stroke="none" stroke-width="0.54036" stroke-linecap="butt"/><path d="M248.61513,177.64409c0,-1.10457 0.79701,-2 1.78017,-2c0.07907,0 0.15694,0.0058 0.23328,0.01702c0.26357,-0.73418 1.15373,-0.96064 1.90161,-0.96064c0.62369,0 0.90454,-0.35614 1.48554,0.26704c0.33487,0.35917 0.85334,1.55894 0.98708,1.55894c0.98316,0 1.78018,0.89543 1.78018,2c0,0.67515 -0.29777,1.27217 -0.75382,1.63433c0.57218,0.33261 0.87991,1.00371 0.87991,1.77744c0,1.10457 -0.79701,2.47059 -1.78017,2.47059c-0.64633,0 -2.27559,-0.23931 -2.57196,-0.85314c-0.15445,-0.31988 0.92748,-0.8861 0.92748,-1.26452c0,-0.67515 0.24541,-1.62511 0.70146,-1.98726c-0.57218,-0.33261 -0.96325,-1.00371 -0.96325,-1.77744c0,-0.15619 0.01593,-0.3082 0.04608,-0.45409c-0.28278,0.21252 -0.62277,0.33645 -0.98852,0.33645c-0.07907,0 -0.15694,-0.0058 -0.23328,-0.01702c-0.13861,0.38609 -0.38135,0.71243 -0.68914,0.93509c0.055,0.19269 0.0847,0.39812 0.0847,0.61134c0,0.14097 -0.01298,0.27853 -0.03768,0.41126c0.46556,0.36074 0.77069,0.96412 0.77069,1.64757c0,0.05983 -0.00234,0.11905 -0.00692,0.17755c0.01968,-0.00072 0.03944,-0.00108 0.05928,-0.00108c0.85648,0 1.5717,0.97367 1.74178,1.87904c0.02516,0.13391 0.03839,-0.02136 0.03839,0.12096c0,1.10457 -0.75535,1.54166 -1.73851,1.54166c-0.47835,0 -0.96362,-0.39314 -1.29251,-0.80359c-0.34708,-0.43315 -0.52476,-0.8856 -0.52241,-0.91563c-0.01968,0.00072 -0.03945,0.00109 -0.05928,0.00109c-0.98316,0 -1.78017,-0.89543 -1.78017,-2c0,-0.14097 0.01298,-0.27854 0.03768,-0.41127c-0.46556,-0.36074 -0.77069,-0.96411 -0.77069,-1.64756c0,-0.7062 0.32578,-1.3269 0.81771,-1.68277c-0.055,-0.19269 -0.0847,-0.39812 -0.0847,-0.61134z" fill="#ffffff" stroke="none" stroke-width="0.5" stroke-linecap="butt"/><path d="M252.45,175.85c0.786,0 1.499,0.493 2.015,1.29c0.516,0.796 0.835,1.896 0.835,3.11c0,1.214 -0.319,2.314 -0.835,3.11c-0.516,0.797 -1.229,1.29 -2.015,1.29c-0.786,0 -1.499,-0.493 -2.015,-1.29c-0.516,-0.796 -0.835,-1.896 -0.835,-3.11c0,-1.214 0.319,-2.314 0.835,-3.11c0.516,-0.797 1.229,-1.29 2.015,-1.29z" fill="#ffce7b" stroke="none" stroke-width="1" stroke-linecap="butt"/><g data-paper-data="{&quot;origPos&quot;:null}"><path d="M222.703,188.85h9.25v4.55h-9.25z" fill="url(#color-7)" stroke="none" stroke-width="1.06234" stroke-linecap="butt"/><path d="M241.453,188.85h9.25v4.55h-9.25z" fill="url(#color-8)" stroke="none" stroke-width="1.06234" stroke-linecap="butt"/><path d="M233.5,189.4h6.3v3.75h-6.3z" fill="#ffbdea" stroke="#ffffff" stroke-width="1" stroke-linecap="round"/></g><g><path d="M222.653,166.95h9.25v4.55h-9.25z" fill="url(#color-9)" stroke="none" stroke-width="1.06234" stroke-linecap="butt"/><path d="M241.403,166.95h9.25v4.55h-9.25z" fill="url(#color-10)" stroke="none" stroke-width="1.06234" stroke-linecap="butt"/><path d="M233.45,167.5h6.3v3.75h-6.3z" fill="#ffbdea" stroke="#ffffff" stroke-width="1" stroke-linecap="round"/></g><g stroke="none"><path d="M213.0687,167.6636l9.0182,3.3334l1.7535,1.2727l0.6889,1.3939h-11.4606z" fill="#4e4f5f" stroke-width="1.23249" stroke-linecap="round"/><path d="M211.3531,172.8231c-0.3806,-0.5547 -0.6144,-1.3222 -0.6144,-2.169c0,-0.8468 0.2338,-1.6144 0.6144,-2.1691c0.3806,-0.5562 0.9051,-0.8996 1.4836,-0.8996c0.5784,0 1.1029,0.3434 1.4835,0.8996c0.3807,0.5547 0.6144,1.3223 0.6144,2.1691c0,0.8468 -0.2337,1.6143 -0.6144,2.169c-0.3806,0.5563 -0.9051,0.8996 -1.4835,0.8996c-0.5785,0 -1.103,-0.3433 -1.4836,-0.8996z" fill="#ffda3b" stroke-width="2.38714" stroke-linecap="butt"/><path d="M212.0358,171.7618c-0.1904,-0.3136 -0.3086,-0.7487 -0.3086,-1.2287c0,-0.48 0.1182,-0.9151 0.3086,-1.2288c0.1904,-0.315 0.4529,-0.51 0.7435,-0.51c0.2906,0 0.5531,0.195 0.7435,0.51c0.1904,0.3137 0.3086,0.7488 0.3086,1.2288c0,0.48 -0.1182,0.9151 -0.3086,1.2287c-0.1904,0.3151 -0.4529,0.5101 -0.7435,0.5101c-0.2906,0 -0.5531,-0.195 -0.7435,-0.5101z" fill="#30323a" stroke-width="1.19664" stroke-linecap="butt"/></g><g stroke="none"><path d="M212.9187,186.4864h11.4606l-0.6889,1.3939l-1.7535,1.2727l-9.0182,3.3334z" fill="#4e4f5f" stroke-width="1.23249" stroke-linecap="round"/><path d="M212.6867,186.3773c0.5784,0 1.1029,0.3433 1.4835,0.8996c0.3807,0.5547 0.6144,1.3222 0.6144,2.169c0,0.8468 -0.2337,1.6144 -0.6144,2.1691c-0.3806,0.5562 -0.9051,0.8996 -1.4835,0.8996c-0.5785,0 -1.103,-0.3434 -1.4836,-0.8996c-0.3806,-0.5547 -0.6144,-1.3223 -0.6144,-2.1691c0,-0.8468 0.2338,-1.6143 0.6144,-2.169c0.3806,-0.5563 0.9051,-0.8996 1.4836,-0.8996z" fill="#ffda3b" stroke-width="2.38714" stroke-linecap="butt"/><path d="M212.6293,187.8281c0.2906,0 0.5531,0.195 0.7435,0.5101c0.1904,0.3136 0.3086,0.7487 0.3086,1.2287c0,0.48 -0.1182,0.9151 -0.3086,1.2288c-0.1904,0.315 -0.4529,0.51 -0.7435,0.51c-0.2906,0 -0.5531,-0.195 -0.7435,-0.51c-0.1904,-0.3137 -0.3086,-0.7488 -0.3086,-1.2288c0,-0.48 0.1182,-0.9151 0.3086,-1.2287c0.1904,-0.3151 0.4529,-0.5101 0.7435,-0.5101z" fill="#30323a" stroke-width="1.19664" stroke-linecap="butt"/></g><path d="M220.9,182.2c0.469,0 0.894,0.19 1.202,0.498c0.308,0.308 0.498,0.733 0.498,1.202c0,0.469 -0.19,0.894 -0.498,1.202c-0.308,0.308 -0.733,0.498 -1.202,0.498c-0.469,0 -0.894,-0.19 -1.202,-0.498c-0.308,-0.308 -0.498,-0.733 -0.498,-1.202c0,-0.469 0.19,-0.894 0.498,-1.202c0.308,-0.308 0.733,-0.498 1.202,-0.498z" fill="url(#color-11)" stroke="none" stroke-width="1" stroke-linecap="butt"/><path d="M220.85,174.65c0.469,0 0.894,0.19 1.202,0.498c0.308,0.308 0.498,0.733 0.498,1.202c0,0.469 -0.19,0.894 -0.498,1.202c-0.308,0.308 -0.733,0.498 -1.202,0.498c-0.469,0 -0.894,-0.19 -1.202,-0.498c-0.308,-0.308 -0.498,-0.733 -0.498,-1.202c0,-0.469 0.19,-0.894 0.498,-1.202c0.308,-0.308 0.733,-0.498 1.202,-0.498z" fill="url(#color-12)" stroke="none" stroke-width="1" stroke-linecap="butt"/><path d="M258.75,171.6l1.55,-0.65v18.35l-1.55,-0.4z" fill="#ffffff" stroke="none" stroke-width="1" stroke-linecap="round"/><path d="M233.99436,192.70536v-2.92857h5.28571v2.92857z" fill="#ffb160" stroke="none" stroke-width="NaN" stroke-linecap="butt"/><path d="M233.63721,170.99107v-3.14286h5.61904v3.14286z" fill="#ffb160" stroke="#000000" stroke-width="0" stroke-linecap="butt"/><path d="M233.23543,179.91964c0,0.39449 -0.3098,0.71429 -0.69196,0.71429c-0.38216,0 -0.69196,-0.3198 -0.69196,-0.71429c0,-0.39449 0.3098,-0.71429 0.69196,-0.71429c0.38216,0 0.69196,0.3198 0.69196,0.71429z" data-paper-data="{&quot;origPos&quot;:null}" fill="#ffffff" stroke="none" stroke-width="0" stroke-linecap="butt"/><path d="M233.05767,180.60146c0,0.32635 -0.22386,0.59091 -0.5,0.59091c-0.27614,0 -0.5,-0.26456 -0.5,-0.59091c0,-0.32635 0.22386,-0.59091 0.5,-0.59091c0.27614,0 0.5,0.26456 0.5,0.59091z" fill="#ffffff" stroke="none" stroke-width="0" stroke-linecap="butt"/><path d="M237.43167,180.1949c0,-0.68936 0.33498,-1.24819 0.7482,-1.24819c0.41322,0 0.7482,0.55883 0.7482,1.24819c0,0.68936 -0.33498,1.2482 -0.7482,1.2482c-0.41322,0 -0.7482,-0.55884 -0.7482,-1.2482z" fill="#ffd800" stroke="none" stroke-width="0" stroke-linecap="butt"/><path d="M233.8304,179.80601c0,0.21338 -0.31544,0.38636 -0.70455,0.38636c-0.38911,0 -0.70455,-0.17298 -0.70455,-0.38636c0,-0.21338 0.31544,-0.38636 0.70455,-0.38636c0.38911,0 0.70455,0.17298 0.70455,0.38636z" data-paper-data="{&quot;origPos&quot;:null}" fill="#ffffff" stroke="none" stroke-width="0" stroke-linecap="butt"/><path d="M240.91349,182.09544c0,0 -0.80617,0.8444 -1.3311,1.05806c-0.64439,0.26144 -1.37274,0.35564 -2.04785,0.30718c-0.59865,-0.03277 -1.67241,-0.54609 -1.67241,-0.54609" fill="none" stroke="#ffffff" stroke-width="2" stroke-linecap="round"/><path d="M235.79387,177.52191c0,0 1.07376,-0.51333 1.67241,-0.54609c0.67511,-0.04847 1.40346,0.04574 2.04785,0.30718c0.52493,0.21366 1.3311,1.05806 1.3311,1.05806" fill="none" stroke="#ffffff" stroke-width="2" stroke-linecap="round"/><path d="M236.63007,177.14647c0.44711,0 0.85259,0.32151 1.14611,0.8403c0.29353,0.51879 0.4751,1.23554 0.4751,2.02669c0,0.79115 -0.18158,1.5079 -0.4751,2.02669c-0.29353,0.51879 -0.699,0.8403 -1.14611,0.8403c-0.44711,0 -0.85259,-0.32151 -1.14611,-0.8403c-0.29353,-0.51879 -0.4751,-1.23554 -0.4751,-2.02669c0,-0.79115 0.18158,-1.5079 0.4751,-2.02669c0.29353,-0.51879 0.699,-0.8403 1.14611,-0.8403z" fill="#ffdfbc" stroke="none" stroke-width="1" stroke-linecap="butt"/><path d="M234.47983,175.88363c0.91471,-0.06485 2.27038,0.04232 2.7134,0.8874c0.4594,0.98911 -0.68398,2.14 -0.68262,3.24243c0.00137,1.16113 1.23485,2.36527 0.75088,3.41308c-0.43414,0.86624 -1.84989,0.90174 -2.78166,0.81914c-0.77545,-0.06894 -1.51541,-0.59251 -1.99051,-1.2253c-0.5891,-0.78228 -1.12973,-1.77207 -1.16659,-2.76801c0.03686,-1.11335 0.54746,-2.25195 1.16659,-3.14345c0.45053,-0.65053 1.21438,-1.17001 1.99051,-1.2253z" fill="#b4620a" stroke="none" stroke-width="1" stroke-linecap="round"/><path d="M238.16186,179.37794c0.4007,-0.00205 0.93518,0.38568 0.90856,0.77204c0.02662,0.38568 -0.5065,0.76999 -0.90856,0.77204c-0.26212,0.00137 -0.32015,-0.48398 -0.32015,-0.77204c0,-0.28806 0.05802,-0.77067 0.32015,-0.77204z" fill="#ffdebd" stroke="none" stroke-width="1" stroke-linecap="butt"/><path d="M235.92698,177.6256c0.12424,-0.2527 0.48056,-0.2527 0.6519,-0.09011c0.74542,0.6704 1.94273,1.32496 1.91133,2.4181c-0.03277,1.09901 -1.22257,1.61848 -1.97959,2.25134c-0.20547,0.19932 -0.65053,0.49196 -0.81914,0.16676c-0.34813,-0.68705 -0.22458,-1.56176 -0.20479,-2.4181c0.02184,-0.79545 0.10922,-1.64429 0.44029,-2.328z" fill="#b4620a" stroke="none" stroke-width="1.11627" stroke-linecap="round"/><path d="M241.37091,181.5073c0.21775,0.12246 0.3753,0.30322 0.45449,0.4966c0.07925,0.19339 0.07946,0.39913 -0.01754,0.57149c-0.097,0.17243 -0.27291,0.27912 -0.47927,0.31182c-0.20642,0.03277 -0.44268,-0.00805 -0.66043,-0.13052c-0.21775,-0.12246 -0.37537,-0.30322 -0.45455,-0.4966c-0.07918,-0.19339 -0.07939,-0.39913 0.01761,-0.57156c0.097,-0.17236 0.27291,-0.27905 0.47927,-0.31175c0.20642,-0.03277 0.44268,0.00805 0.66043,0.13052z" fill="#ffffff" stroke="none" stroke-width="1.0253" stroke-linecap="butt"/><path d="M240.60809,179.26449c-0.20636,-0.0327 -0.38227,-0.13939 -0.47927,-0.31182c-0.097,-0.17236 -0.0968,-0.3781 -0.01761,-0.57149c0.07918,-0.19339 0.2368,-0.37414 0.45455,-0.4966c0.21775,-0.12246 0.45401,-0.16328 0.66043,-0.13052c0.20636,0.0327 0.38227,0.13939 0.47927,0.31182c0.097,0.17236 0.0968,0.3781 0.01754,0.57149c-0.07918,0.19339 -0.23673,0.37414 -0.45449,0.4966c-0.21775,0.12246 -0.45401,0.16328 -0.66043,0.13052z" fill="#ffffff" stroke="none" stroke-width="1.0253" stroke-linecap="butt"/><g fill="#ffe324" stroke="none"><path d="M232.62134,182.4874l0.65627,-1.45937l-1.28625,-1.04461l1.28625,-0.98324l-0.64316,-1.61302l1.82436,0.92174l0.74815,0.1383l0.60371,0.43012l0.11816,1.10611l-0.21004,1.10604l-0.41995,0.43012l-0.80064,0.15366z" stroke-width="0.41861" stroke-linecap="round"/><path d="M233.41597,180.04595c0,-0.15946 0.08226,-0.30397 0.21537,-0.40861c0.13297,-0.10465 0.3166,-0.16936 0.51933,-0.16936c0.20274,0 0.38636,0.06471 0.51933,0.16936c0.13304,0.10465 0.21537,0.24916 0.21537,0.40861c0,0.15946 -0.08232,0.3039 -0.21537,0.40861c-0.13297,0.10465 -0.3166,0.16936 -0.51933,0.16936c-0.20274,0 -0.38636,-0.06471 -0.51933,-0.16936c-0.13311,-0.10471 -0.21537,-0.24916 -0.21537,-0.40861z" stroke-width="0.15366" stroke-linecap="butt"/><path d="M233.71066,178.69471c0,-0.11202 0.05775,-0.21352 0.15127,-0.28704c0.09338,-0.07352 0.2224,-0.11898 0.36479,-0.11898c0.14239,0 0.27141,0.04546 0.36479,0.11898c0.09352,0.07352 0.15127,0.17502 0.15127,0.28704c0,0.11202 -0.05775,0.21345 -0.15127,0.28697c-0.09338,0.07352 -0.2224,0.11898 -0.36479,0.11898c-0.14239,0 -0.27141,-0.04546 -0.36479,-0.11898c-0.09352,-0.07352 -0.15127,-0.17495 -0.15127,-0.28697z" stroke-width="0.10793" stroke-linecap="butt"/><path d="M233.74479,181.39105c0,-0.11202 0.05775,-0.21352 0.15127,-0.28704c0.09338,-0.07352 0.2224,-0.11898 0.36479,-0.11898c0.14239,0 0.27141,0.04546 0.36479,0.11898c0.09352,0.07352 0.15127,0.17502 0.15127,0.28704c0,0.11202 -0.05775,0.21345 -0.15127,0.28697c-0.09338,0.07352 -0.2224,0.11898 -0.36479,0.11898c-0.14239,0 -0.27141,-0.04546 -0.36479,-0.11898c-0.09352,-0.07352 -0.15127,-0.17495 -0.15127,-0.28697z" stroke-width="0.10793" stroke-linecap="butt"/></g><path d="M234.74105,179.7352c0,0.26561 -0.14586,0.48094 -0.32579,0.48094c-0.17993,0 -0.32579,-0.21532 -0.32579,-0.48094c0,-0.26561 0.14586,-0.48094 0.32579,-0.48094c0.17993,0 0.32579,0.21532 0.32579,0.48094z" fill="#ffffff" stroke="none" stroke-width="0" stroke-linecap="butt"/><path d="M234.16703,179.71969c0.29988,0 0.54299,0.15281 0.54299,0.34131c0,0.1885 -0.2431,0.34131 -0.54299,0.34131c-0.29988,0 -0.54299,-0.15281 -0.54299,-0.34131c0,-0.1885 0.2431,-0.34131 0.54299,-0.34131z" fill="#ffffff" stroke="none" stroke-width="0" stroke-linecap="butt"/><path d="M235.45469,180.061c0,0.15422 -0.20838,0.27925 -0.46542,0.27925c-0.25705,0 -0.46542,-0.12503 -0.46542,-0.27925c0,-0.15422 0.20838,-0.27925 0.46542,-0.27925c0.25705,0 0.46542,0.12503 0.46542,0.27925z" fill="#ffffff" stroke="none" stroke-width="0" stroke-linecap="butt"/><g stroke-linecap="butt"><g fill="#ffac44" stroke="none" stroke-width="0"><path d="M254.80684,180.33908c0,0.83496 -1.02855,1.51183 -2.29733,1.51183c-1.26878,0 -2.29733,-0.67687 -2.29733,-1.51183c0,-0.83496 1.02855,-1.51183 2.29733,-1.51183c1.26878,0 2.29733,0.67687 2.29733,1.51183z"/><path d="M254.04923,182.62331c-0.32853,0.71434 -1.28421,0.3296 -2.13457,-0.85934c-0.85037,-1.18894 -1.27339,-2.73185 -0.94487,-3.4462c0.32853,-0.71434 1.28421,-0.32961 2.13458,0.85933c0.85037,1.18894 1.27339,2.73186 0.94486,3.44621z" data-paper-data="{&quot;index&quot;:null}"/><path d="M251.91466,179.11137c0.85037,-1.18894 1.80605,-1.57367 2.13458,-0.85933c0.32853,0.71434 -0.0945,2.25726 -0.94487,3.4462c-0.85037,1.18894 -1.80605,1.57368 -2.13457,0.85933c-0.32853,-0.71434 0.0945,-2.25726 0.94486,-3.44621z" data-paper-data="{&quot;index&quot;:null}"/></g><g fill="#ffe324" stroke="none" stroke-width="0"><path d="M254.41887,180.3102c0,0.70403 -0.86726,1.27475 -1.93707,1.27475c-1.06981,0 -1.93707,-0.57073 -1.93707,-1.27475c0,-0.70403 0.86726,-1.27475 1.93707,-1.27475c1.06981,0 1.93707,0.57073 1.93707,1.27475z"/><path d="M253.78007,182.23623c-0.27701,0.60232 -1.08282,0.27792 -1.79984,-0.72458c-0.60443,-0.84509 -0.95281,-1.90227 -0.88138,-2.57424c0.01331,-0.12517 0.04118,-0.23697 0.08468,-0.33154c0.27701,-0.60232 1.08283,-0.27792 1.79984,0.72457c0.71702,1.0025 1.0737,2.30346 0.79669,2.90579z" data-paper-data="{&quot;index&quot;:null}"/><path d="M251.98023,179.27501c0.71702,-1.0025 1.52283,-1.3269 1.79984,-0.72457c0.27701,0.60232 -0.07968,1.90329 -0.7967,2.90578c-0.71702,1.0025 -1.52283,1.3269 -1.79984,0.72458c-0.27701,-0.60232 0.07968,-1.90329 0.79669,-2.90579z" data-paper-data="{&quot;index&quot;:null}"/></g><path d="M252.56381,179.63688c0.16313,0 0.31099,0.0842 0.41804,0.22031c0.10705,0.13611 0.17331,0.32394 0.17331,0.53129c0,0.20745 -0.06625,0.39528 -0.17331,0.53129c-0.10705,0.1362 -0.25491,0.22031 -0.41804,0.22031c-0.16313,0 -0.3109,-0.08411 -0.41795,-0.22031c-0.10705,-0.13601 -0.1733,-0.32384 -0.1733,-0.53129c0,-0.20735 0.06625,-0.39519 0.1733,-0.53129c0.10705,-0.13611 0.25482,-0.22031 0.41795,-0.22031z" fill="#4affdb" stroke="#37bea3" stroke-width="0.5"/></g><path d="M234.79105,180.4852c0,0.26561 -0.14586,0.48094 -0.32579,0.48094c-0.17993,0 -0.32579,-0.21532 -0.32579,-0.48094c0,-0.26561 0.14586,-0.48094 0.32579,-0.48094c0.17993,0 0.32579,0.21532 0.32579,0.48094z" fill="#ffffff" stroke="none" stroke-width="0" stroke-linecap="butt"/><path d="M234.89619,180.21614c0,0.1885 -0.14586,0.34131 -0.32579,0.34131c-0.17993,0 -0.32579,-0.15281 -0.32579,-0.34131c0,-0.1885 0.14586,-0.34131 0.32579,-0.34131c0.17993,0 0.32579,0.15281 0.32579,0.34131z" fill="url(#color-13)" stroke="none" stroke-width="0" stroke-linecap="butt"/></g></g></svg>