<svg version="1.1" xmlns="http://www.w3.org/2000/svg" xmlns:xlink="http://www.w3.org/1999/xlink" width="618.60652" height="553.31518" viewBox="0,0,618.60652,553.31518"><g transform="translate(18.21952,91.74619)"><g data-paper-data="{&quot;isPaintingLayer&quot;:true}" fill-rule="nonzero" stroke-linejoin="miter" stroke-miterlimit="10" stroke-dasharray="" stroke-dashoffset="0" style="mix-blend-mode: normal"><path d="M427.84277,355.40824l5,41l-12,22c0,0 -24.65735,7.95717 -41,10c-16.34265,2.04283 -23.76728,-0.57123 -39,0c-15.23272,0.57123 -41,3 -41,3" fill="none" stroke="#cdcad6" stroke-width="32.12458" stroke-linecap="round"/><path d="M436.84278,216.93875c0,0 -1.87638,-9.72221 -5.75,-14.34533c-3.87362,-4.62312 -12.60299,-6.92392 -18,-14c-5.39701,-7.07608 -7.31693,-9.86614 -4.5,-15.5c2.81693,-5.63386 15.13884,-8.58615 21,-17.5c5.86116,-8.91385 4.8758,-11.73128 3,-19c-1.8758,-7.26872 -11,-12 -11,-12l-9.5,-6c0,0 -6.95531,-2.05592 -10.5,0c-3.54469,2.05592 -14.5,14.5 -14.5,14.5c0,0 -15.17096,13.17904 -24,22.5c-3.96946,4.19062 -7.11881,2.63586 -11.5,1.5c-4.38119,-1.13586 -11.49007,-2.8861 -15.5,-8.5c-4.00993,-5.6139 -7.71961,-13.64508 -7,-23c0.71961,-9.35492 5.19446,-14.39153 10.5,-22.5c5.30554,-8.10847 16,-18 16,-18" fill="none" stroke="#705741" stroke-width="32.12458" stroke-linecap="round"/><path d="M163.59277,57.5934l-40,18.5l-21.5,-1l-10.19183,-5.99016c0,0 -17.69819,-18.19278 -21.57665,-29.67899c-1.94376,-5.75651 -7.45996,-39.3606 6.52358,-58.58345c13.91842,-19.13332 47.31787,-23.90087 53.48836,-23.17845c12.36986,1.44822 18.54445,1.83958 30.99955,7.15375c7.77114,3.31569 24.24743,17.17727 32.80573,32.86013c2.72637,4.99599 5.25262,27.82191 15.27334,42.98845c8.93902,13.52936 25.6276,19.82729 25.6276,19.82729" data-paper-data="{&quot;index&quot;:null}" fill="none" stroke="#c89d74" stroke-width="32.12458" stroke-linecap="round"/><path d="M238.29968,145.0535l-0.91379,75.0832" fill="none" stroke="#785e46" stroke-width="32.12458" stroke-linecap="round"/><path d="M258.79166,182.95001h-37.58333v-5.9h37.58333z" data-paper-data="{&quot;index&quot;:null}" fill="#ffffff" stroke="#ffffff" stroke-width="0.5" stroke-linecap="butt"/><path d="M283.59278,208.09511l-2.5,27.5l-41.5,32.5l-45,-36l-1,-25" data-paper-data="{&quot;index&quot;:null}" fill="none" stroke="#a1a1a1" stroke-width="32.12458" stroke-linecap="round"/><path d="M235.09278,62.59508l-0.5,16.5" fill="none" stroke="#b8906a" stroke-width="32.12458" stroke-linecap="round"/><path d="M245.10728,19.99198c0,0 16.68858,-6.29793 25.6276,-19.82729c10.02072,-15.16654 12.54697,-37.99246 15.27334,-42.98845c8.5583,-15.68286 25.03459,-29.54444 32.80573,-32.86013c12.4551,-5.31417 18.62969,-5.70553 30.99955,-7.15375c6.17049,-0.72242 39.56994,4.04513 53.48836,23.17845c13.98354,19.22285 8.46734,52.82694 6.52358,58.58345c-3.87846,11.48621 -19.07665,34.17899 -19.07665,34.17899" data-paper-data="{&quot;index&quot;:null}" fill="none" stroke="#785e46" stroke-width="32.12458" stroke-linecap="round"/><path d="M436.84278,217.93875c0,0 -1.57334,-9.75837 -5.41667,-14.34533c-3.84332,-4.58696 -12.97468,-6.89483 -18.33333,-14c-5.35865,-7.10517 -7.37285,-10.08764 -4.5,-15.83333c2.87285,-5.74569 15.13884,-8.25281 21,-17.16667c5.86116,-8.91385 4.8758,-11.73128 3,-19c-1.8758,-7.26872 -6.22609,-7.80827 -11,-12c-4.77391,-4.19173 -5.2999,-4.73997 -9.5,-6c-4.2001,-1.26003 -6.95531,-2.05592 -10.5,0c-3.54469,2.05592 -8.7299,8.95471 -14.5,14.5c-5.7701,5.54529 -13.56994,15.01362 -24,22.5c-6.30279,4.52395 -7.11881,2.63586 -11.5,1.5c-4.38119,-1.13586 -11.49007,-2.8861 -15.5,-8.5c-4.00993,-5.6139 -7.71961,-13.64508 -7,-23c0.71961,-9.35492 5.19446,-14.39153 10.5,-22.5c5.30554,-8.10847 16,-18 16,-18" fill="none" stroke="#785e46" stroke-width="18" stroke-linecap="round"/><path d="M491.24071,311.6237l-0.39794,-11.34132l-30,-33l-21,-1.31271l-1,-43" fill="none" stroke="#c2c2c2" stroke-width="32.12458" stroke-linecap="round"/><path d="M492.25039,330.73285l0.92571,26.38288l-76,-2" fill="none" stroke="#909090" stroke-width="32.12458" stroke-linecap="round"/><path d="M453.84277,355.28239l-76,2l0.67528,-19.24563" data-paper-data="{&quot;index&quot;:null}" fill="none" stroke="#909090" stroke-width="32.12458" stroke-linecap="round"/><path d="M431.84277,222.96969l-1,43l-21,1.31271l-30,33l-0.5998,17.09418" data-paper-data="{&quot;index&quot;:null}" fill="none" stroke="#c2c2c2" stroke-width="32.12458" stroke-linecap="round"/><path d="M344.84277,323.24156l29,-1" fill="none" stroke="#c2c2c2" stroke-width="32.12458" stroke-linecap="round"/><path d="M510.55909,322.2258l18.28368,1.01576" fill="none" stroke="#c2c2c2" stroke-width="32.12458" stroke-linecap="round"/><path d="M483.84277,279.24156l20,-21" fill="none" stroke="#c2c2c2" stroke-width="32.12458" stroke-linecap="round"/><path d="M365.84277,265.24156l22,16" fill="none" stroke="#c2c2c2" stroke-width="32.12458" stroke-linecap="round"/><path d="M418.84277,419.50673l112,2l-1,-58l47,-3l2,60h-46" fill="none" stroke="#cdcad6" stroke-width="32.12458" stroke-linecap="round"/><path d="M257.84277,426.50671c0,0 -23.70123,3.7987 -39,4c-15.29877,0.2013 -37,-3 -37,-3" fill="none" stroke="#785e46" stroke-width="32.12458" stroke-linecap="round"/><path d="M117.84277,428.50671c0,0 -12.70938,14.93464 -24,17c-11.29062,2.06536 -37.13283,6.87965 -58,-2c-20.86717,-8.87965 -26.20158,-19.69242 -36,-38c-9.79842,-18.30758 -3.06602,-19.67472 -2,-33c1.06602,-13.32528 1.64406,-11.29222 6,-17c4.35594,-5.70778 11.71442,-16.44936 23,-21c11.28558,-4.55064 24.18955,-7.83975 39,-4c14.81045,3.83975 15,18 15,18l17,17l23,11l42,4c0,0 38.63704,0.71685 62,-6c23.36296,-6.71685 14.85241,-6.68289 18,-17c3.14759,-10.31711 0,-42 0,-42" fill="none" stroke="#785e46" stroke-width="32.12458" stroke-linecap="round"/><path d="M141.84277,159.50668c16.99051,7.45198 11,13 11,13v17l1,20l-22,21c0,0 -7.71616,4.97555 -10,10c-2.28384,5.02445 -5,23 -5,23l-14,12l-24,3c0,0 -23.03199,-2.59622 -33,-12c-9.96801,-9.40378 -16.07415,-21.70772 -20,-38c-3.92585,-16.29228 -6.34546,-28.62462 0,-45c6.34546,-16.37538 14.77351,-26.65495 31,-35c16.22649,-8.34505 23.90066,-2.95403 39,-1c15.09934,1.95403 29.00949,4.54802 46,12z" fill="none" stroke="#785e46" stroke-width="32.12458" stroke-linecap="round"/><path d="M583.84277,83.50669l-3,59l-19,48l-31,9l-19,-28c0,0 -1.37047,-15.49396 -7,-23c-5.62953,-7.50604 -17,-9 -17,-9l-5,-42l11,-31l39,-12z" fill="none" stroke="#785e46" stroke-width="32.12458" stroke-linecap="round"/><path d="M423.84277,283.00669v-75h24v75z" fill="#e18080" stroke="none" stroke-width="0" stroke-linecap="butt"/><path d="M491.77642,309.89131l-0.26698,-7.60892l-30,-33l-21,-1.31271l-1,-43" fill="none" stroke="#e18080" stroke-width="20" stroke-linecap="round"/><path d="M492.45811,329.31944l1.05133,29.96296l-76,-2" fill="none" stroke="#945555" stroke-width="20" stroke-linecap="round"/><path d="M454.17611,357.44906l-76,2l0.98468,-28.06339" data-paper-data="{&quot;index&quot;:null}" fill="none" stroke="#945555" stroke-width="20" stroke-linecap="round"/><path d="M432.34277,225.13635l-1,43l-21,1.31271l-30,33l-0.28594,8.14925" data-paper-data="{&quot;index&quot;:null}" fill="none" stroke="#e18080" stroke-width="20" stroke-linecap="round"/><path d="M393.4261,307.30391v6.05638h-27.66666v-6.05638z" fill="#b3b3b3" stroke="#b3b3b3" stroke-width="5" stroke-linecap="butt"/><path d="M393.25945,318.13723v6.05638h-27.66667v-6.05638z" fill="#b0b0b0" stroke="#b0b0b0" stroke-width="5" stroke-linecap="butt"/><path d="M392.9261,327.80391v6.05638h-27.66666v-6.05638z" fill="#a4a4a4" stroke="#a4a4a4" stroke-width="5" stroke-linecap="butt"/><path d="M392.75945,335.80391v2.88972h-27.66667v-2.88972z" fill="#979797" stroke="#979797" stroke-width="5" stroke-linecap="butt"/><path d="M370.59277,315.85447v-11.16666h20.83333v11.16666z" fill="#d87b7b" stroke="#d87b7b" stroke-width="0.5" stroke-linecap="butt"/><path d="M370.25944,325.68782v-9.83334h21.33333v9.83334z" fill="#c47070" stroke="none" stroke-width="0" stroke-linecap="butt"/><path d="M369.42611,334.18782v-8.5h22.16667v8.5z" fill="#b06464" stroke="none" stroke-width="0" stroke-linecap="butt"/><path d="M369.09277,342.52115v-8.83333h21.5v8.83333z" fill="#9d5a5a" stroke="none" stroke-width="0" stroke-linecap="butt"/><path d="M506.59277,305.30391v6.05638h-27.66666v-6.05638z" data-paper-data="{&quot;index&quot;:null}" fill="#b3b3b3" stroke="#b3b3b3" stroke-width="5" stroke-linecap="butt"/><path d="M506.75944,316.13723v6.05638h-27.66667v-6.05638z" data-paper-data="{&quot;index&quot;:null}" fill="#b0b0b0" stroke="#b0b0b0" stroke-width="5" stroke-linecap="butt"/><path d="M507.09277,325.80391v6.05638h-27.66666v-6.05638z" data-paper-data="{&quot;index&quot;:null}" fill="#a4a4a4" stroke="#a4a4a4" stroke-width="5" stroke-linecap="butt"/><path d="M507.25944,333.80388v2.88972h-27.66667v-2.88972z" data-paper-data="{&quot;index&quot;:null}" fill="#979797" stroke="#979797" stroke-width="5" stroke-linecap="butt"/><path d="M480.92611,313.85447v-11.16666h20.83333v11.16666z" data-paper-data="{&quot;index&quot;:null}" fill="#d87b7b" stroke="#d87b7b" stroke-width="0.5" stroke-linecap="butt"/><path d="M480.75944,323.68782v-9.83334h21.33333v9.83334z" data-paper-data="{&quot;index&quot;:null}" fill="#c47070" stroke="none" stroke-width="0" stroke-linecap="butt"/><path d="M480.75944,332.18782v-8.5h22.16667v8.5z" data-paper-data="{&quot;index&quot;:null}" fill="#b06464" stroke="none" stroke-width="0" stroke-linecap="butt"/><path d="M481.75944,340.52115v-8.83333h21.5v8.83333z" data-paper-data="{&quot;index&quot;:null}" fill="#9d5a5a" stroke="none" stroke-width="0" stroke-linecap="butt"/></g></g></svg>