<svg version="1.1" xmlns="http://www.w3.org/2000/svg" xmlns:xlink="http://www.w3.org/1999/xlink" width="269.46569" height="189.28083" viewBox="0,0,269.46569,189.28083"><defs><linearGradient x1="198.62" y1="158.64014" x2="201.75278" y2="157.41003" gradientUnits="userSpaceOnUse" id="color-1"><stop offset="0" stop-color="#73571c"/><stop offset="1" stop-color="#917435"/></linearGradient><radialGradient cx="177.92397" cy="107.21162" r="34.77812" gradientUnits="userSpaceOnUse" id="color-2"><stop offset="0" stop-color="#d2a648"/><stop offset="1" stop-color="#785f29"/></radialGradient><linearGradient x1="139.70152" y1="186.36593" x2="139.70152" y2="259.62468" gradientUnits="userSpaceOnUse" id="color-3"><stop offset="0" stop-color="#b9a997"/><stop offset="1" stop-color="#756b5e"/></linearGradient><linearGradient x1="334.24226" y1="108.01479" x2="334.24226" y2="197.55325" gradientUnits="userSpaceOnUse" id="color-4"><stop offset="0" stop-color="#b9a997"/><stop offset="1" stop-color="#756b5e"/></linearGradient><linearGradient x1="288.60788" y1="109.26476" x2="288.60788" y2="177.87216" gradientUnits="userSpaceOnUse" id="color-5"><stop offset="0" stop-color="#b9a997"/><stop offset="1" stop-color="#756b5e"/></linearGradient><linearGradient x1="285.79588" y1="144.62739" x2="313.59042" y2="215.41292" gradientUnits="userSpaceOnUse" id="color-6"><stop offset="0" stop-color="#3f7a39"/><stop offset="1" stop-color="#0c3527"/></linearGradient><linearGradient x1="224.23762" y1="179.54728" x2="253.93962" y2="255.19065" gradientUnits="userSpaceOnUse" id="color-7"><stop offset="0" stop-color="#3f7a39"/><stop offset="1" stop-color="#0c3527"/></linearGradient><linearGradient x1="124.72513" y1="215.84785" x2="154.04139" y2="290.50882" gradientUnits="userSpaceOnUse" id="color-8"><stop offset="0" stop-color="#3f7a39"/><stop offset="1" stop-color="#0c3527"/></linearGradient><linearGradient x1="170.8183" y1="208.83162" x2="170.8183" y2="282.09038" gradientUnits="userSpaceOnUse" id="color-9"><stop offset="0" stop-color="#b9a997"/><stop offset="1" stop-color="#756b5e"/></linearGradient><linearGradient x1="194.5529" y1="136.85312" x2="211.38527" y2="173.28029" gradientUnits="userSpaceOnUse" id="color-10"><stop offset="0" stop-color="#fff766"/><stop offset="1" stop-color="#dec859"/></linearGradient></defs><g transform="translate(-95.33918,-93.97547)"><g data-paper-data="{&quot;isPaintingLayer&quot;:true}" fill-rule="nonzero" stroke-linejoin="miter" stroke-miterlimit="10" stroke-dasharray="" stroke-dashoffset="0" style="mix-blend-mode: normal"><path d="M213.89386,197.53873l-30.54771,-77.79717l3.13277,-1.23011l30.54771,77.79717z" fill="url(#color-1)" stroke="none" stroke-width="0" stroke-linecap="butt"/><path d="M167.50308,129.78416l0.21334,-11.73463l-15.68942,10.17812l7.29896,-12.10633l-8.15542,4.80931l5.96856,-10.37869l8.86438,-7.09645l5.91746,-2.32354l4.08953,1.20649l0.22418,-2.49855l8.15542,-4.80931l8.82604,-1.0551l21.50465,3.60863l-8.27933,2.44744l6.00303,6.0797l-13.18893,-0.84757l4.11315,8.42878l-11.94603,0.27142l-3.47002,10.60287l-9.83197,-4.57622z" fill="url(#color-2)" stroke="#000000" stroke-width="0" stroke-linecap="round"/><path d="M109.04433,205.47691l11.14807,-19.11098l18.31469,1.59258l16.7221,11.94437l15.12952,39.81454l-50.16632,19.90726z" fill="url(#color-3)" stroke="#000000" stroke-width="0" stroke-linecap="round"/><path d="M296.77236,131.37264l13.62542,-23.35787l22.38462,1.94649l20.43813,14.59867l11.58434,37.80788l-11.39787,18.11829l-43.00922,17.06715z" fill="url(#color-4)" stroke="#000000" stroke-width="0" stroke-linecap="round"/><path d="M259.89716,127.16234l10.44025,-17.89758l17.15185,1.49146l15.66039,11.18599l14.16892,37.28663l-46.98115,18.64332z" fill="url(#color-5)" stroke="#000000" stroke-width="0" stroke-linecap="round"/><path d="M339.05856,164.563c7.67525,19.54688 -10.40551,27.42846 -32.14643,35.96521c-21.74093,8.53676 -38.90917,14.49599 -46.58442,-5.05089c-7.67525,-19.54688 3.72722,-42.31318 25.46815,-50.84993c21.74093,-8.53676 45.58745,0.38872 53.26269,19.93561z" fill="url(#color-6)" stroke="#000000" stroke-width="0" stroke-linecap="butt"/><path d="M281.15559,200.85101c3.36204,8.56226 2.09948,15.02997 -2.1614,20.30992c-6.1339,7.60091 -18.48154,12.74031 -32.19114,18.1235c-23.23294,9.12261 -41.57941,15.49081 -49.78138,-5.39753c-8.20198,-20.88833 3.98303,-45.21702 27.21597,-54.33963c23.23294,-9.12261 48.71599,0.4154 56.91796,21.30372z" fill="url(#color-7)" stroke="#000000" stroke-width="0" stroke-linecap="butt"/><path d="M180.90391,236.8749c8.09546,20.61706 -10.97519,28.93015 -33.90642,37.93428c-22.93122,9.00413 -41.03941,15.28964 -49.13487,-5.32742c-8.09546,-20.61706 3.93129,-44.62979 26.86252,-53.63392c22.93122,-9.00413 48.08331,0.41 56.17877,21.02706z" fill="url(#color-8)" stroke="#000000" stroke-width="0" stroke-linecap="butt"/><path d="M140.16111,227.9426l11.14807,-19.11098l18.31469,1.59258l16.72211,11.94437l15.12952,39.81454l-23.84583,15.17956l-26.32049,2.7542z" fill="url(#color-9)" stroke="#000000" stroke-width="0" stroke-linecap="round"/><g stroke="none" stroke-linecap="butt"><path d="M193.17168,181.69648l-16.83236,-36.42719l36.42719,-16.83236l16.83236,36.42719z" fill="url(#color-10)" stroke-width="0"/><text transform="translate(201.65139,172.6027) rotate(-24.80096) scale(1.00847,1.00847)" font-size="40" xml:space="preserve" fill="#b4a145" fill-rule="nonzero" stroke="none" stroke-width="1" stroke-linecap="butt" stroke-linejoin="miter" stroke-miterlimit="10" stroke-dasharray="" stroke-dashoffset="0" font-family="Sans Serif" font-weight="normal" text-anchor="start" style="mix-blend-mode: normal"><tspan x="0" dy="0">?</tspan></text><text transform="translate(198.73349,171.77698) rotate(-24.80096) scale(1.00847,1.00847)" font-size="40" xml:space="preserve" fill="#ffffff" fill-rule="nonzero" stroke="none" stroke-width="1" stroke-linecap="butt" stroke-linejoin="miter" stroke-miterlimit="10" stroke-dasharray="" stroke-dashoffset="0" font-family="Sans Serif" font-weight="normal" text-anchor="start" style="mix-blend-mode: normal"><tspan x="0" dy="0">?</tspan></text></g></g></g></svg>