<svg version="1.1" xmlns="http://www.w3.org/2000/svg" xmlns:xlink="http://www.w3.org/1999/xlink" width="117.61071" height="226.24654" viewBox="0,0,117.61071,226.24654"><defs><linearGradient x1="293.03094" y1="112.80054" x2="294.40274" y2="124.62466" gradientUnits="userSpaceOnUse" id="color-1"><stop offset="0" stop-color="#ffdb65"/><stop offset="1" stop-color="#f4c321"/></linearGradient><linearGradient x1="290.54771" y1="121.7255" x2="289.92591" y2="126.81127" gradientUnits="userSpaceOnUse" id="color-2"><stop offset="0" stop-color="#ffdb66"/><stop offset="1" stop-color="#e6b100"/></linearGradient><linearGradient x1="287.07479" y1="124.0681" x2="286.42082" y2="129.41685" gradientUnits="userSpaceOnUse" id="color-3"><stop offset="0" stop-color="#ffdb65"/><stop offset="1" stop-color="#e6b100"/></linearGradient><linearGradient x1="296.88878" y1="124.57781" x2="296.88878" y2="131.77307" gradientUnits="userSpaceOnUse" id="color-4"><stop offset="0" stop-color="#ffdb65"/><stop offset="1" stop-color="#e5af00"/></linearGradient><linearGradient x1="298.19399" y1="149.69179" x2="298.19399" y2="155.52515" gradientUnits="userSpaceOnUse" id="color-5"><stop offset="0" stop-color="#cb9c00"/><stop offset="1" stop-color="#cb9c00" stop-opacity="0"/></linearGradient><linearGradient x1="344.21275" y1="118.73937" x2="344.21275" y2="175.73908" gradientUnits="userSpaceOnUse" id="color-6"><stop offset="0" stop-color="#ffffff"/><stop offset="1" stop-color="#d5d5d5"/></linearGradient><linearGradient x1="315.06442" y1="160.42333" x2="315.06442" y2="196.77573" gradientUnits="userSpaceOnUse" id="color-7"><stop offset="0" stop-color="#ffffff"/><stop offset="1" stop-color="#cccccc"/></linearGradient><linearGradient x1="358.1294" y1="157.75036" x2="358.1294" y2="192.49898" gradientUnits="userSpaceOnUse" id="color-8"><stop offset="0" stop-color="#ffffff"/><stop offset="1" stop-color="#cccccc"/></linearGradient><linearGradient x1="379.75031" y1="174.32277" x2="379.75031" y2="229.92057" gradientUnits="userSpaceOnUse" id="color-9"><stop offset="0" stop-color="#ffffff"/><stop offset="1" stop-color="#cccccc"/></linearGradient><linearGradient x1="354.35709" y1="208.53681" x2="354.35709" y2="254.51191" gradientUnits="userSpaceOnUse" id="color-10"><stop offset="0" stop-color="#ffffff"/><stop offset="1" stop-color="#cccccc"/></linearGradient><linearGradient x1="324.41982" y1="217.6249" x2="324.41982" y2="252.90812" gradientUnits="userSpaceOnUse" id="color-11"><stop offset="0" stop-color="#ffffff"/><stop offset="1" stop-color="#cccccc"/></linearGradient><linearGradient x1="300.63038" y1="186.61845" x2="300.63038" y2="230.98975" gradientUnits="userSpaceOnUse" id="color-12"><stop offset="0" stop-color="#ffffff"/><stop offset="1" stop-color="#cccccc"/></linearGradient><linearGradient x1="329.23116" y1="179.13413" x2="329.23116" y2="229.92057" gradientUnits="userSpaceOnUse" id="color-13"><stop offset="0" stop-color="#ffffff"/><stop offset="1" stop-color="#cccccc"/></linearGradient><linearGradient x1="353.82249" y1="186.08386" x2="353.82249" y2="228.85138" gradientUnits="userSpaceOnUse" id="color-14"><stop offset="0" stop-color="#ffffff"/><stop offset="1" stop-color="#cccccc"/></linearGradient><linearGradient x1="349.41056" y1="193.72928" x2="350.87571" y2="204.32919" gradientUnits="userSpaceOnUse" id="color-15"><stop offset="0" stop-color="#000000"/><stop offset="1" stop-color="#1a1a1a"/></linearGradient><linearGradient x1="327.37899" y1="193.62309" x2="328.84414" y2="204.223" gradientUnits="userSpaceOnUse" id="color-16"><stop offset="0" stop-color="#000000"/><stop offset="1" stop-color="#1a1a1a"/></linearGradient><linearGradient x1="337.08862" y1="104.44544" x2="338.39944" y2="111.55285" gradientUnits="userSpaceOnUse" id="color-17"><stop offset="0" stop-color="#000000"/><stop offset="1" stop-color="#1a1a1a"/></linearGradient><linearGradient x1="324.5778" y1="104.57423" x2="325.88861" y2="111.68164" gradientUnits="userSpaceOnUse" id="color-18"><stop offset="0" stop-color="#000000"/><stop offset="1" stop-color="#1a1a1a"/></linearGradient></defs><g transform="translate(-281.38499,-70.54382)"><g data-paper-data="{&quot;isPaintingLayer&quot;:true}" fill-rule="nonzero" stroke-linejoin="miter" stroke-miterlimit="10" stroke-dasharray="" stroke-dashoffset="0" style="mix-blend-mode: normal"><g stroke="none" stroke-linecap="butt"><path d="M296.40474,121.72705c2.51848,3.96534 8.1133,7.71853 4.48666,12.23668c-0.52713,0.65671 3.19965,8.47104 5.99837,11.30372c1.78769,1.98818 21.72035,-1.50935 23.00784,-0.7675c1.28749,0.74185 0.68517,7.88709 0.68517,7.88709c-1.84805,3.20723 -27.26021,5.23974 -30.23278,1.96391c-3.84632,-4.23872 -8.77471,-15.55154 -9.91481,-16.08473c-2.15924,-1.00981 -4.48359,-2.09898 -5.30602,-7.50013c-1.20201,-7.89392 5.38021,-6.54597 6.29376,-9.51777c0.63972,-2.08105 4.35353,-2.64721 4.98182,0.47873z" data-paper-data="{&quot;origRot&quot;:0,&quot;index&quot;:null}" fill="#fec401" stroke-width="0.5"/><path d="M291.98888,112.94274c2.51795,-0.74358 3.65739,5.96236 4.64174,8.99506c2.95869,3.64868 -5.56878,3.15587 -5.0038,0.09859c0.39564,-2.14091 -2.31617,-8.30275 0.36206,-9.09365z" data-paper-data="{&quot;origRot&quot;:0,&quot;index&quot;:null}" fill="url(#color-1)" stroke-width="0.5"/><path d="M292.08675,123.92322c0.38197,1.31097 -0.13663,2.52826 -1.15833,2.71889c-1.0217,0.19063 -2.15959,-0.71758 -2.54156,-2.02855c-0.16567,-0.56861 -0.49831,-1.18073 -0.35757,-1.63797c0.18374,-0.59695 0.93735,-0.97297 1.5159,-1.08092c0.31509,-0.05879 1.18991,-0.28226 1.50152,-0.15245c0.69882,0.29112 0.77587,1.27432 1.04004,2.181z" fill="url(#color-2)" stroke-width="0"/><path d="M288.69342,126.37947c0.40172,1.37876 -0.1437,2.65898 -1.21823,2.85947c-1.07453,0.20049 -2.27127,-0.75469 -2.67299,-2.13345c-0.14441,-0.49565 -0.21233,-1.34257 -0.13136,-1.76717c0.14426,-0.75651 0.66135,-0.96389 1.34959,-1.0923c0.55853,-0.10421 0.94275,-0.41886 1.43851,-0.0014c0.45801,0.38567 1.04157,1.47276 1.23448,2.13485z" fill="url(#color-3)" stroke-width="0"/><path d="M295.94338,127.93149c-2.40707,-0.23341 -3.55,-0.64591 -3.16958,-1.74371c0.38042,-1.0978 1.64013,-1.79854 4.04719,-1.56513c2.40707,0.23341 4.59165,2.30585 4.21123,3.40366c-0.25937,0.7485 -1.62963,3.53585 -3.0873,3.74495c-0.68027,0.09759 -1.23564,-3.7655 -2.00154,-3.83977z" fill="url(#color-4)" stroke-width="0"/></g><path d="M297.72902,149.69179c0,0 0.97436,1.71893 0.92836,3.05662c-0.05723,1.66413 -0.76169,2.77671 -0.76169,2.77671" fill="none" stroke="url(#color-5)" stroke-width="0.5" stroke-linecap="round"/><path d="M389.61275,280.79036c0,8.83656 -21.93805,16 -49,16c-27.06195,0 -49,-7.16344 -49,-16c0,-8.83656 21.93805,-16 49,-16c27.06195,0 49,7.16344 49,16z" fill="#c3c3c3" stroke="none" stroke-width="0" stroke-linecap="butt"/><path d="M352.87887,133.45286c-0.63099,-0.14306 -1.26481,-7.76179 -1.90029,-7.88885c0,0 -2.09689,-0.41938 -1.67748,-2.51623c0.41938,-2.09685 2.51623,-1.67748 2.51623,-1.67748c7.81392,1.56281 15.51426,4.31447 21.13995,9.9402c7.2789,7.2789 4.11479,16.81298 2.70086,25.28554c-3.53871,14.1549 -16.27993,-8.1101 -18.68847,-12.92717c-2.87218,-5.74445 -4.09076,-10.21597 -4.09076,-10.21597z" fill="#07980f" stroke="none" stroke-width="0.5" stroke-linecap="butt"/><path d="M314.41785,124.57145c-0.59824,-4.50236 31.59396,-4.81626 37.42296,-5.82391c2.39832,-0.41459 8.24524,15.06893 9.0269,17.02302c3.10603,7.76509 10.09767,15.98578 12.11746,24.06499c1.05136,4.20542 3.21424,16.79131 -5.45765,10.5842c-3.7948,-2.71621 -41.98493,8.18177 -44.68454,4.58233c-4.90279,-6.81783 -5.98129,-18.49105 -7.60317,-26.60055c0,0 -0.68304,-22.85792 -0.8219,-23.83007z" fill="url(#color-6)" stroke="none" stroke-width="0.5" stroke-linecap="butt"/><path d="M323.18575,141.72161c5.54918,-5.43143 11.86256,-10.77015 19.92595,-10.77015c9.44106,0 10.39187,14.39037 15.07555,20.63533c2.94745,4.10492 10.46081,12.36636 6.04091,16.78626c-1.5138,1.5138 -10.8609,1.48327 -13.01331,1.842c-5.31323,0.88161 -24.53975,3.74571 -27.39008,-1.95486c-1.94605,-5.18403 -3.0107,-13.75387 -3.32967,-20.4321c-1.90033,-0.95782 -2.09856,-4.34471 -2.09856,-4.34471c0,0 1.99485,-1.84003 4.13323,-1.84003c0.24583,0 0.46339,0.02827 0.65592,0.07827z" fill="#dcc68d" stroke="none" stroke-width="0.5" stroke-linecap="butt"/><path d="M338.05197,178.59953c0,10.03844 -10.29188,18.1762 -22.98755,18.1762c-12.69567,0 -22.98755,-8.13776 -22.98755,-18.1762c0,-10.03844 10.29188,-18.1762 22.98755,-18.1762c12.69567,0 22.98755,8.13776 22.98755,18.1762z" fill="url(#color-7)" stroke="none" stroke-width="0" stroke-linecap="butt"/><path d="M381.94903,175.12467c0,9.59554 -10.66442,17.37431 -23.81963,17.37431c-13.15521,0 -23.81963,-7.77877 -23.81963,-17.37431c0,-9.59554 10.66442,-17.37431 23.81963,-17.37431c13.15521,0 23.81963,7.77877 23.81963,17.37431z" fill="url(#color-8)" stroke="none" stroke-width="0" stroke-linecap="butt"/><path d="M398.9957,202.12167c0,15.3529 -8.61646,27.7989 -19.24539,27.7989c-10.62893,0 -19.24539,-12.44599 -19.24539,-27.7989c0,-15.3529 8.61646,-27.7989 19.24539,-27.7989c10.62893,0 19.24539,12.44599 19.24539,27.7989z" fill="url(#color-9)" stroke="none" stroke-width="0" stroke-linecap="butt"/><path d="M354.35709,254.51191c-14.91005,0 -26.997,-10.29188 -26.997,-22.98755c0,-12.69567 12.08696,-22.98755 26.997,-22.98755c14.91,0 26.997,10.29188 26.997,22.98755c0,12.69567 -12.08696,22.98755 -26.997,22.98755z" fill="url(#color-10)" stroke="none" stroke-width="0" stroke-linecap="butt"/><path d="M349.27845,235.26651c0,9.74321 -11.12961,17.64161 -24.85863,17.64161c-13.72902,0 -24.85863,-7.89839 -24.85863,-17.64161c0,-9.74321 11.12961,-17.64161 24.85863,-17.64161c13.72902,0 24.85863,7.89839 24.85863,17.64161z" fill="url(#color-11)" stroke="none" stroke-width="0" stroke-linecap="butt"/><path d="M319.87577,208.8041c0,12.25277 -8.61646,22.18565 -19.24539,22.18565c-10.62893,0 -19.24539,-9.93288 -19.24539,-22.18565c0,-12.25277 8.61646,-22.18565 19.24539,-22.18565c10.62893,0 19.24539,9.93288 19.24539,22.18565z" fill="url(#color-12)" stroke="none" stroke-width="0" stroke-linecap="butt"/><path d="M354.62438,204.52735c0,14.02428 -11.36894,25.39322 -25.39322,25.39322c-14.02428,0 -25.39322,-11.36894 -25.39322,-25.39322c0,-14.02428 11.36894,-25.39322 25.39322,-25.39322c14.02428,0 25.39322,11.36894 25.39322,25.39322z" fill="url(#color-13)" stroke="none" stroke-width="0" stroke-linecap="butt"/><path d="M371.44622,161.94582c-1.05261,-0.40701 -2.15808,-0.94706 -3.28244,-1.58494c0.37969,0.57359 0.74122,1.14592 1.06783,1.71387c1.23487,1.65481 2.25312,3.40114 2.94224,5.05188l0.07866,-0.02332l0.61429,2.07025c0.29811,0.92985 -0.07371,1.97498 -0.94998,2.49244c-1.0169,0.60052 -2.32811,0.26296 -2.92864,-0.75394l-0.68364,-2.07969c0,0 -3.09524,-3.47126 -4.2495,-5.59076c-0.84302,-0.71794 -1.70936,-1.40378 -2.50679,-2.07959c0.29085,2.40237 -0.21676,6.69026 -0.21676,6.69026l0.16345,2.33873c0.07256,0.79716 -0.30761,1.60256 -1.04263,2.03661c-1.0169,0.60052 -2.32811,0.26296 -2.92864,-0.75394c-0.09946,-0.16848 -0.1732,-0.345 -0.22237,-0.52503l-0.61338,-2.06711l0.01664,-0.00495c-0.55713,-1.91648 -1.49515,-4.89924 -2.02096,-6.93829c-0.4209,0.64648 -1.16214,1.3053 -2.05069,1.91087l-1.64813,3.57641c-0.17438,0.39222 -0.46824,0.73583 -0.86602,0.97075c-1.0169,0.60052 -2.32812,0.26296 -2.9286,-0.75396c-0.24874,-0.42124 -0.33655,-0.89296 -0.28181,-1.34372l0.29126,-2.63531l0.04697,0.00518c0.57633,-3.43165 1.68819,-6.83123 2.55221,-10.18753c0.68799,0.09785 -1.18279,-5.50222 -1.64061,-6.27748c-2.35836,-3.9937 -5.91128,-11.40961 -1.00014,-14.30975c0,0 1.84133,-1.08736 2.92864,0.75394c1.0873,1.8413 5.56835,8.37808 6.16883,9.395c0.23363,0.39564 0.69312,1.17377 1.0873,1.84131c0.21734,0.36805 0.41482,0.70249 0.54365,0.92065c1.4516,3.26832 5.99961,5.73779 9.99161,8.2138c3.13247,0.59488 5.81767,3.11421 8.04227,6.59148l0.01611,-0.00953l1.08734,1.84129c0.60052,1.0169 0.26292,2.32813 -0.75398,2.92866c-0.87628,0.51747 -1.97099,0.33839 -2.64129,-0.37168l-1.18999,-1.85941c-0.29995,-0.42778 -0.63443,-0.82356 -0.99247,-1.19333z" data-paper-data="{&quot;origRot&quot;:0,&quot;index&quot;:null}" fill="#fec401" stroke="none" stroke-width="0.5" stroke-linecap="butt"/><path d="M353.82249,186.08386c11.66228,0 21.11647,9.57382 21.11647,21.38376c0,11.80996 -9.45419,21.38376 -21.11647,21.38376c-11.66228,0 -21.11647,-9.57382 -21.11647,-21.38376c0,-11.80996 9.45419,-21.38376 21.11647,-21.38376z" fill="url(#color-14)" stroke="none" stroke-width="0" stroke-linecap="butt"/><g stroke="none" stroke-width="0.5" stroke-linecap="butt"><path d="M350.15534,204.40096c-2.13833,0.01027 -2.14479,-2.26666 -2.14479,-2.26666l0.06543,-1.0884c0.10467,-1.74152 0.15886,-3.23273 -0.08021,-4.96232v0c-0.03701,-0.26774 -0.02272,-0.53074 0.03531,-0.77908c0.12246,-0.63618 0.52894,-1.45762 1.79014,-1.63195c1.26124,-0.17433 1.87529,0.50609 2.16575,1.08516c0.12321,0.22329 0.20826,0.47255 0.24527,0.7403l0.29279,2.11825l-0.1074,0.01484c0.04717,1.21246 0.00305,2.4125 -0.07262,3.67146l-0.06543,1.0884c0,0 0.01409,1.99973 -2.12424,2.01z" data-paper-data="{&quot;origPos&quot;:null}" fill="url(#color-15)"/><path d="M348.63122,195.9957c-0.08085,-0.58493 0.32779,-1.12466 0.91272,-1.20551c0.58493,-0.08085 1.12466,0.32779 1.20551,0.91272c0.08085,0.58493 -0.32779,1.12466 -0.91272,1.20551c-0.58493,0.08085 -1.12466,-0.3278 -1.20551,-0.91272z" data-paper-data="{&quot;origPos&quot;:null}" fill="#ffffff"/></g><g stroke="none" stroke-width="0.5" stroke-linecap="butt"><path d="M328.12377,204.29478c-2.13833,0.01027 -2.1448,-2.26666 -2.1448,-2.26666l0.06544,-1.0884c0.10467,-1.74152 0.15885,-3.23273 -0.08021,-4.96231v0c-0.03701,-0.26774 -0.02273,-0.53074 0.03531,-0.77908c0.12246,-0.63618 0.52895,-1.45763 1.79015,-1.63195c1.26124,-0.17433 1.87528,0.50609 2.16574,1.08516c0.12321,0.22329 0.20826,0.47255 0.24527,0.7403l0.29279,2.11824l-0.1074,0.01485c0.04717,1.21246 0.0031,2.41249 -0.07261,3.67146l-0.06543,1.0884c0,0 0.01409,1.99974 -2.12424,2.01001z" data-paper-data="{&quot;origPos&quot;:null}" fill="url(#color-16)"/><path d="M326.59965,195.88952c-0.08085,-0.58493 0.3278,-1.12467 0.91273,-1.20552c0.58493,-0.08085 1.12466,0.3278 1.20551,0.91273c0.08085,0.58493 -0.3278,1.12466 -0.91273,1.20551c-0.58493,0.08085 -1.12466,-0.3278 -1.20551,-0.91273z" data-paper-data="{&quot;origPos&quot;:null}" fill="#ffffff"/></g><path d="M299.88169,120.36869c-0.59964,-0.9644 -0.33817,-2.51871 -0.33817,-2.51871l2.0725,-15.79049c0,0 -0.01756,-1.16797 1.13682,-2.29012c1.15438,-1.12215 2.63413,-1.37552 2.63413,-1.37552l5.68934,0.74672l-3.07116,23.39932l-6.03832,-0.79253c0,0 -1.4855,-0.41428 -2.08515,-1.37868z" fill="#212121" stroke="none" stroke-width="0" stroke-linecap="butt"/><path d="M362.39627,120.94736l-6.03832,0.79253l-3.07116,-23.39931l5.68934,-0.74672c0,0 1.47975,0.25337 2.63413,1.37552c1.15438,1.12215 1.13682,2.29012 1.13682,2.29012l2.0725,15.79049c0,0 0.26147,1.55431 -0.33817,2.51871c-0.59964,0.9644 -2.08515,1.37868 -2.08515,1.37868z" data-paper-data="{&quot;index&quot;:null}" fill="#212121" stroke="none" stroke-width="0" stroke-linecap="butt"/><path d="M308.9228,127.18462c-2.173,-6.31721 0.80483,-17.77494 3.00488,-25.51294c2.5954,-9.12841 11.89473,-13.58091 21.23025,-13.03567c11.57162,0.67586 14.02738,8.32254 20.33277,16.61194c6.34704,8.89787 5.02752,16.68808 -0.80933,25.24258c-5.92579,8.68481 -12.778,8.47723 -22.42077,10.29812c-8.95667,1.32114 -18.96116,-6.69484 -21.33781,-13.60404z" fill="#fec401" stroke="none" stroke-width="0.5" stroke-linecap="butt"/><path d="M349.55614,82.76716c-0.03428,1.06862 -1.10288,1.03442 -1.10288,1.03442l-1.16818,0.24654c-4.42336,0.83529 -7.89768,3.69204 -11.71178,5.20071l-0.81813,1.19905c-0.15422,0.22603 -0.39466,0.39325 -0.68476,0.44803c-0.58023,0.10957 -1.13945,-0.27199 -1.24902,-0.85223l-0.13227,-0.70043c-0.0618,-0.32729 -0.13238,-0.64135 -0.21148,-0.94248c-0.70231,-0.7644 -1.14148,-1.81894 -1.36339,-3.0303c-1.81419,-2.51181 -4.84367,-3.15712 -8.7013,-2.42866c0,0 -1.05062,0.1984 -1.24902,-0.85223c-0.1984,-1.05062 0.85223,-1.24902 0.85223,-1.24902c3.52395,-0.66545 6.64412,-0.20896 8.95357,1.46808c0.25706,-3.95825 2.01668,-8.35248 4.18198,-9.99952c3.81273,-2.90016 3.37862,-1.86397 2.04648,0.49769c0.52567,-0.1528 0.51151,0.21839 -0.63017,1.11051c-1.08281,1.91469 -2.37257,4.3069 -2.66549,6.23803c0.01793,0.63889 0.07688,1.28317 0.15145,1.9215c0.06547,0.15402 0.14715,0.2989 0.24645,0.43365c0.2223,1.1772 0.18441,2.36614 0.20676,3.5922c0.00414,0.10951 0.00671,0.21783 0.00755,0.32487c0.00873,0.30345 0.02284,0.60933 0.04707,0.9179c1.78104,-2.64002 10.0718,-4.97281 12.32656,-5.39859l1.63343,-0.28255c0,0 1.06865,0.03423 1.03442,1.10288z" fill="#000000" stroke="none" stroke-width="0.5" stroke-linecap="butt"/><path d="M339.94044,125.32463c0,0 -1.11983,10.2 -7.9,10c-6.28457,-0.18538 -7.9,-9 -7.9,-9c0,0 2.53093,1.17058 7.73542,0.8c5.61767,-0.4 8.06458,-1.8 8.06458,-1.8z" fill="#340000" stroke="none" stroke-width="0" stroke-linecap="butt"/><path d="M332.04044,134.72464c-6.28456,-0.18538 -3.98225,-3.6 -0.16458,-3.6c3.81766,0 6.94475,3.8 0.16458,3.6z" fill="#8c0000" stroke="none" stroke-width="0" stroke-linecap="butt"/><path d="M353.82607,109.18443c-0.68529,7.151 -8.5684,10.61279 -16.35941,8.5202c-2.19533,-1.24617 -4.54023,-1.38629 -7.03821,-1.02214c-4.9821,0.72629 -10.1627,2.12439 -15.12354,1.26454c-3.11891,-0.54062 -3.60164,-5.96742 -3.66548,-9.13221c-0.20398,-2.83335 0.96581,-5.73587 1.19026,-8.5585c0.08605,-1.08211 1.89688,-3.31412 2.85782,-3.81908c2.34643,-1.23301 2.77495,-0.24602 3.73886,0.07531c0.81541,0.27183 2.1846,-0.33083 3.6663,0.94018l2.92898,1.92087c0.29084,0.05821 2.48965,2.43873 2.48965,2.43873c0,0 -0.14326,-0.63116 0.93662,-1.36303c0.4334,-0.29377 3.67305,-1.44608 3.65443,-1.95467c6.16583,-4.51336 15.80505,-4.87696 19.97857,3.06544c0.72001,1.37026 0.38484,3.35895 0.6149,4.64349c-0.17124,0.37544 -0.2729,0.855 -0.26135,1.42701c0.01303,0.64556 0.16307,1.16417 0.39166,1.55385z" data-paper-data="{&quot;noHover&quot;:false,&quot;origItem&quot;:[&quot;Path&quot;,{&quot;applyMatrix&quot;:true,&quot;data&quot;:{&quot;origPos&quot;:null},&quot;segments&quot;:[[[493.51332,329.47486],[0,0.27334],[0,-0.24221]],[[493.63593,328.87994],[-0.07568,0.15744],[-0.08641,-0.54563]],[[493.07386,327.17674],[0.29305,0.5861],[-1.6986,-3.39721]],[[484.89874,326.29891],[2.64818,-1.8576],[0.00353,0.21541]],[[483.89141,327.42886],[0.18595,-0.12063],[-0.46329,0.30054]],[482.92709,327.37207],[[482.55682,327.01058],[0.12259,0.02713],[0,0]],[[481.42999,326.21954],[0,0],[-1.34477,-1.20146]],[[477.8169,324.47486],[1.85267,-0.92634],[-0.41102,0.20551]],[[476.58475,326.04629],[0.04566,-0.45726],[-0.1191,1.19275]],[[476.01332,329.61772],[-0.06214,-1.20094],[0,1.34002]],[[477.47226,333.46939],[-1.31545,-0.25544],[2.09229,0.40628]],[[483.12068,331.57751],[-2.11485,0.26485],[1.06037,-0.1328]],[[486.40644,332.83157],[-0.91853,-0.54618],[3.42672,2.05603]],[[493.6665,330.12865],[-0.3511,3.02075],[-0.09341,-0.16687]]],&quot;closed&quot;:true}]}" fill="#ffdf74" stroke="none" stroke-width="0.5" stroke-linecap="butt"/><g stroke="none" stroke-width="0.5" stroke-linecap="butt"><path d="M337.75495,111.60097c-1.91308,0.00688 -1.91887,-1.51983 -1.91887,-1.51983l0.05854,-0.72978c0.09364,-1.16772 0.14212,-2.1676 -0.07176,-3.32731v0c-0.03312,-0.17952 -0.02033,-0.35587 0.03159,-0.52239c0.10956,-0.42657 0.47323,-0.97736 1.60158,-1.09426c1.12838,-0.11688 1.67776,0.33934 1.93761,0.72762c0.11023,0.14972 0.18632,0.31686 0.21944,0.49639l0.26195,1.42032l-0.09609,0.00995c0.04221,0.81297 0.00274,1.61762 -0.06496,2.46178l-0.05855,0.72979c0,0 0.01261,1.34085 -1.90047,1.34773z" data-paper-data="{&quot;origPos&quot;:null}" fill="url(#color-17)"/><path d="M336.39137,105.96511c-0.07234,-0.39221 0.29327,-0.75411 0.81658,-0.80831c0.52332,-0.05421 1.0062,0.21979 1.07852,0.612c0.07234,0.39221 -0.29326,0.75411 -0.81658,0.80831c-0.52332,0.05421 -1.0062,-0.21979 -1.07853,-0.612z" data-paper-data="{&quot;origPos&quot;:null}" fill="#ffffff"/></g><g stroke="none" stroke-width="0.5" stroke-linecap="butt"><path d="M325.24413,111.72977c-1.91308,0.00688 -1.91887,-1.51983 -1.91887,-1.51983l0.05855,-0.72979c0.09364,-1.16772 0.14212,-2.1676 -0.07176,-3.32731v0c-0.03312,-0.17952 -0.02033,-0.35587 0.03159,-0.52239c0.10956,-0.42657 0.47324,-0.97737 1.60158,-1.09425c1.12838,-0.11688 1.67774,0.33934 1.9376,0.72762c0.11023,0.14972 0.18633,0.31685 0.21945,0.49639l0.26195,1.42032l-0.09609,0.00995c0.04221,0.81297 0.00277,1.61762 -0.06497,2.46178l-0.05854,0.72979c0,0 0.01261,1.34085 -1.90047,1.34774z" data-paper-data="{&quot;origPos&quot;:null}" fill="url(#color-18)"/><path d="M323.88055,106.09391c-0.07234,-0.39221 0.29326,-0.7541 0.81658,-0.80832c0.52332,-0.05421 1.0062,0.21979 1.07852,0.61199c0.07234,0.39221 -0.29326,0.75411 -0.81658,0.80832c-0.52332,0.05421 -1.0062,-0.21979 -1.07852,-0.612z" data-paper-data="{&quot;origPos&quot;:null}" fill="#ffffff"/></g><path d="M356.31347,110.74237c-2.08562,9.0173 -10.38001,14.71753 -20.29567,9.03694c-1.34821,-0.78136 -3.49095,-1.23725 -3.73714,-2.14974c-0.6283,0.96479 -1.5578,2.23625 -2.13175,2.76349c-1.76778,1.62377 -9.00984,2.67585 -11.25389,2.1977c-3.62532,-0.77246 -10.45812,-7.23732 -10.58979,-13.76501c0.0675,-13.17319 10.97072,-20.66696 21.49408,-12.82019l0.14112,-0.14697l1.53316,1.47253c8.09422,-6.25462 17.82674,-7.42845 23.27802,2.94561c0.81592,1.55275 2.05855,10.66129 1.56187,10.46565zM351.61921,105.56342c-0.71765,-9.25048 -8.29903,-8.09808 -11.71579,-8.32419c-4.03134,-0.26677 -7.0824,6.28644 -8.9023,5.77942c-1.81989,-0.50702 -7.25578,-5.71258 -10.78359,-5.5737c-3.21725,0.12665 -7.52117,4.70705 -7.36744,10.47296c0.15906,5.96559 4.51191,8.45702 7.35191,8.83837c6.62339,0.88938 6.88437,-3.49753 11.3944,-4.155c2.26126,-0.32964 5.09155,1.41132 7.07885,2.53941c7.4148,4.2479 13.55129,-0.73309 12.94396,-9.57726z" fill="#353535" stroke="none" stroke-width="0.5" stroke-linecap="butt"/><path d="M334.82845,116.13807c1.24853,3.60487 -3.20286,9.08461 -7.83715,6.43721c-7.23422,-4.13266 -2.37186,-10.12929 4.16595,-9.74741c0,0 3.61739,0.93062 3.6712,3.3102z" fill="#eeab00" stroke="none" stroke-width="0.5" stroke-linecap="butt"/><path d="M360.37901,119.05463c0,0 0.10972,7.97465 -1.0467,10.7462c-0.88873,2.12999 -9.9533,2.8538 -9.9533,2.8538" fill="none" stroke="#cbcbcb" stroke-width="2.5" stroke-linecap="round"/><path d="M350.97901,133.65463c0,2.54051 -2.28335,4.6 -5.1,4.6c-2.81665,0 -5.1,-2.05949 -5.1,-4.6c0,-2.54051 2.28335,-4.6 5.1,-4.6c2.81665,0 5.1,2.05949 5.1,4.6z" fill="#212121" stroke="none" stroke-width="0" stroke-linecap="butt"/><path d="M353.44476,216.375c0,0 -6.21122,7.33333 -14.33333,7.33333c-7.73392,0 -13.33333,-7.33333 -13.33333,-7.33333" fill="none" stroke="#949494" stroke-width="2.5" stroke-linecap="round"/></g></g></svg>