<svg version="1.1" xmlns="http://www.w3.org/2000/svg" xmlns:xlink="http://www.w3.org/1999/xlink" width="108.81478" height="80.70562" viewBox="0,0,108.81478,80.70562"><defs><radialGradient cx="240" cy="190.19365" r="56.33968" gradientUnits="userSpaceOnUse" id="color-1"><stop offset="0" stop-color="#000000"/><stop offset="1" stop-color="#000000" stop-opacity="0"/></radialGradient><linearGradient x1="239.90946" y1="147.94111" x2="239.90946" y2="205.60676" gradientUnits="userSpaceOnUse" id="color-2"><stop offset="0" stop-color="#ffe369"/><stop offset="1" stop-color="#e1b83e"/></linearGradient><linearGradient x1="171.27921" y1="145.33033" x2="171.27921" y2="208.21755" gradientUnits="userSpaceOnUse" id="color-3"><stop offset="0" stop-color="#000000" stop-opacity="0"/><stop offset="1" stop-color="#000000" stop-opacity="0"/></linearGradient></defs><g transform="translate(-185.50207,-131.35329)"><g data-paper-data="{&quot;isPaintingLayer&quot;:true}" fill-rule="nonzero" stroke-linejoin="miter" stroke-miterlimit="10" stroke-dasharray="" stroke-dashoffset="0" style="mix-blend-mode: normal"><path d="M187.28345,212.05891v-43.7305h105.4331v43.7305z" fill="url(#color-1)" stroke="none" stroke-width="0" stroke-linecap="butt"/><path d="M187.48867,147.94111h104.84158v57.66565h-104.84158z" fill="url(#color-2)" stroke="url(#color-3)" stroke-width="3.9732" stroke-linecap="round"/><text transform="translate(192.95918,194.04152) scale(1.29983,1.29983)" font-size="22" xml:space="preserve" fill="#3e444c" fill-rule="nonzero" stroke="none" stroke-width="1" stroke-linecap="butt" stroke-linejoin="miter" stroke-miterlimit="10" stroke-dasharray="" stroke-dashoffset="0" font-family="Sans Serif" font-weight="400" text-anchor="start" style="mix-blend-mode: normal"><tspan x="0" dy="0">Level 4</tspan></text><g><path d="M240.05809,131.35329l3.48471,2.09083l7.89869,9.75721l1.39389,5.22708l-3.2524,1.85851v3.83319l3.02009,4.29782l3.36856,2.67162l-3.2524,0.11616l-3.60088,-1.04542l-2.78777,8.59563l-1.39389,1.39389l0.34847,-7.43406l-2.78777,9.98952l-1.74236,0.23231l-0.92926,-9.5249l-1.27773,9.64105h-0.92926l-3.36856,-10.68646v8.13101l-1.74236,-2.20699l-2.32315,-8.24717l-4.0655,1.39389l-2.09083,-0.92926l4.99476,-3.94935l0.92926,-2.20699l0.11616,-4.18166l-3.02009,-1.27773v-3.60088l3.02009,-4.64629l6.38864,-7.20175l2.32315,-1.51004z" fill="#ffffff" stroke="#000000" stroke-width="0" stroke-linecap="round"/><path d="M232.3917,152.02926v-6.38864h14.4035v6.38864z" fill="#3b3b3b" stroke="#000000" stroke-width="0" stroke-linecap="butt"/><path d="M233.79255,148.89394c0,-1.16705 0.94609,-2.11314 2.11314,-2.11314c1.16705,0 2.11314,0.94609 2.11314,2.11314c0,1.16705 -0.94609,2.11314 -2.11314,2.11314c-1.16705,0 -2.11314,-0.94609 -2.11314,-2.11314z" fill="#000000" stroke="#ffffff" stroke-width="2" stroke-linecap="butt"/><path d="M241.36785,148.80102c0,-1.16705 0.94609,-2.11314 2.11314,-2.11314c1.16705,0 2.11314,0.94609 2.11314,2.11314c0,1.16705 -0.94609,2.11314 -2.11314,2.11314c-1.16705,0 -2.11314,-0.94609 -2.11314,-2.11314z" fill="#000000" stroke="#ffffff" stroke-width="2" stroke-linecap="butt"/></g></g></g></svg>