<svg version="1.1" xmlns="http://www.w3.org/2000/svg" xmlns:xlink="http://www.w3.org/1999/xlink" width="96.38134" height="90.28927" viewBox="0,0,96.38134,90.28927"><defs><radialGradient cx="239.9752" cy="179.78685" r="54.4155" gradientUnits="userSpaceOnUse" id="color-1"><stop offset="0" stop-color="#000000" stop-opacity="0"/><stop offset="1" stop-color="#000000"/></radialGradient><radialGradient cx="240.0796" cy="147.78573" r="95.2331" gradientUnits="userSpaceOnUse" id="color-2"><stop offset="0" stop-color="#ffffff"/><stop offset="1" stop-color="#ffffff" stop-opacity="0"/></radialGradient><linearGradient x1="199.1177" y1="137.28275" x2="199.1177" y2="220.02285" gradientUnits="userSpaceOnUse" id="color-3"><stop offset="0" stop-color="#000000" stop-opacity="0"/><stop offset="1" stop-color="#000000" stop-opacity="0"/></linearGradient><radialGradient cx="243.23472" cy="140.37723" r="103.53931" gradientUnits="userSpaceOnUse" id="color-4"><stop offset="0" stop-color="#ffffff"/><stop offset="1" stop-color="#b2b2b2"/></radialGradient><linearGradient x1="208.8967" y1="204.29195" x2="208.8967" y2="221.79195" gradientUnits="userSpaceOnUse" id="color-5"><stop offset="0" stop-color="#ffffff" stop-opacity="0"/><stop offset="1" stop-color="#ffffff"/></linearGradient><linearGradient x1="198.75777" y1="138.01952" x2="198.75777" y2="220.75962" gradientUnits="userSpaceOnUse" id="color-6"><stop offset="0" stop-color="#000000" stop-opacity="0"/><stop offset="1" stop-color="#000000" stop-opacity="0"/></linearGradient><radialGradient cx="241.21172" cy="139.90598" r="105.10971" gradientUnits="userSpaceOnUse" id="color-7"><stop offset="0" stop-color="#b2b2b2"/><stop offset="1" stop-color="#666666"/></radialGradient><radialGradient cx="271.7972" cy="154.0865" r="24.01251" gradientUnits="userSpaceOnUse" id="color-8"><stop offset="0" stop-color="#000000" stop-opacity="0"/><stop offset="1" stop-color="#000000"/></radialGradient><radialGradient cx="271.84326" cy="139.96504" r="42.02453" gradientUnits="userSpaceOnUse" id="color-9"><stop offset="0" stop-color="#ffffff"/><stop offset="1" stop-color="#ffffff" stop-opacity="0"/></radialGradient><linearGradient x1="253.76757" y1="135.33027" x2="253.76757" y2="171.84188" gradientUnits="userSpaceOnUse" id="color-10"><stop offset="0" stop-color="#000000" stop-opacity="0"/><stop offset="1" stop-color="#000000" stop-opacity="0"/></linearGradient><radialGradient cx="273.23556" cy="136.6958" r="45.68989" gradientUnits="userSpaceOnUse" id="color-11"><stop offset="0" stop-color="#ffffff"/><stop offset="1" stop-color="#b2b2b2"/></radialGradient><linearGradient x1="253.74551" y1="135.83773" x2="253.74551" y2="172.34935" gradientUnits="userSpaceOnUse" id="color-12"><stop offset="0" stop-color="#000000" stop-opacity="0"/><stop offset="1" stop-color="#000000" stop-opacity="0"/></linearGradient><radialGradient cx="272.47962" cy="136.6702" r="46.38288" gradientUnits="userSpaceOnUse" id="color-13"><stop offset="0" stop-color="#b2b2b2"/><stop offset="1" stop-color="#666666"/></radialGradient></defs><g transform="translate(-196.3278,-132.9003)"><g data-paper-data="{&quot;isPaintingLayer&quot;:true}" fill-rule="nonzero" stroke-linejoin="miter" stroke-miterlimit="10" stroke-dasharray="" stroke-dashoffset="0" style="mix-blend-mode: normal"><g data-paper-data="{&quot;origPos&quot;:null}"><path d="M240.9083,139.04191c11.291,0 21.522,4.586 28.931,11.994c7.408,7.409 11.994,17.64 11.994,28.931c0,11.291 -4.586,21.522 -11.994,28.931c-7.409,7.408 -17.64,11.994 -28.931,11.994c-11.291,0 -21.522,-4.586 -28.931,-11.994c-7.408,-7.409 -11.994,-17.64 -11.994,-28.931c0,-11.291 4.586,-21.522 11.994,-28.931c7.409,-7.408 17.64,-11.994 28.931,-11.994z" fill="url(#color-1)" stroke="none" stroke-width="1" stroke-linecap="butt"/><path d="M240.6583,145.89192c10.367,0 19.76,4.21 26.562,11.013c6.803,6.802 11.013,16.195 11.013,26.562c0,10.367 -4.21,19.76 -11.013,26.562c-6.802,6.803 -16.195,11.013 -26.562,11.013c-10.367,0 -19.76,-4.21 -26.562,-11.013c-6.803,-6.802 -11.013,-16.195 -11.013,-26.562c0,-10.367 4.21,-19.76 11.013,-26.562c6.802,-6.803 16.195,-11.013 26.562,-11.013z" fill="url(#color-2)" stroke="none" stroke-width="1" stroke-linecap="butt"/><path d="M240.4877,137.28275c11.4135,0 21.7567,4.6352 29.2458,12.1243c7.4891,7.4892 12.1243,17.8323 12.1243,29.2458c0,11.4135 -4.6352,21.7566 -12.1243,29.2457c-7.4891,7.4892 -17.8323,12.1243 -29.2458,12.1243c-11.4135,0 -21.7566,-4.6351 -29.2457,-12.1243c-7.4892,-7.4891 -12.1243,-17.8322 -12.1243,-29.2457c0,-11.4135 4.6351,-21.7566 12.1243,-29.2458c7.4891,-7.4891 17.8322,-12.1243 29.2457,-12.1243z" fill="url(#color-3)" stroke="url(#color-4)" stroke-width="4.85992" stroke-linecap="round"/><path d="M208.8966,204.29195h63.45l-9.9865,11.62l-22.0411,5.88l-24.462,-7.98z" fill="url(#color-5)" stroke="none" stroke-width="1.22016" stroke-linecap="round"/><path d="M240.12777,138.01952c11.4135,0 21.7567,4.6352 29.2458,12.1243c7.4891,7.4892 12.1243,17.8323 12.1243,29.2458c0,11.4135 -4.6352,21.7566 -12.1243,29.2457c-7.4891,7.4892 -17.8323,12.1243 -29.2458,12.1243c-11.4135,0 -21.7566,-4.6351 -29.2457,-12.1243c-7.4892,-7.4891 -12.1243,-17.8322 -12.1243,-29.2457c0,-11.4135 4.6351,-21.7566 12.1243,-29.2458c7.4891,-7.4891 17.8322,-12.1243 29.2457,-12.1243z" data-paper-data="{&quot;origPos&quot;:null}" fill="url(#color-6)" stroke="url(#color-7)" stroke-width="4.85992" stroke-linecap="round"/></g><g data-paper-data="{&quot;origPos&quot;:null}"><path d="M235.28837,170.09036c7.65866,-9.68716 8.6789,-10.57378 15.63613,-12.70023c2.92946,-0.89538 6.85754,2.20615 6.85754,2.20615c3.62315,2.86446 -4.71033,10.76681 -12.36899,20.45397c-5.27566,6.673 -14.90783,16.0422 -17.62938,16.21134c-0.90719,0.05638 -0.12228,0.63165 -0.8353,0.06794c-0.56582,-0.44734 -0.37797,0.00318 -0.62007,-0.67627c-0.7263,-2.03837 3.03078,-18.06317 8.96006,-25.56291z" data-paper-data="{&quot;origPos&quot;:null,&quot;origRot&quot;:0}" fill="#ffffff" stroke="none" stroke-width="0" stroke-linecap="butt"/><path d="M240.16444,174.10133c0,0 -2.05423,-7.17199 -1.9917,-7.47573c0.1876,-0.9112 5.9349,-6.55654 5.9349,-6.55654l1.29143,8.53053l10.51098,-1.17034l-7.0249,8.26459z" data-paper-data="{&quot;origPos&quot;:null}" fill="#ffa100" stroke="none" stroke-width="0" stroke-linecap="butt"/><path d="M259.17299,162.11768c0,0.22987 -1.88575,2.86098 -1.88575,2.86098l-9.78798,1.58123l-0.97266,-7.09316c0,0 2.21907,-2.21235 5.69943,-2.21235c3.48036,0 6.94696,1.32588 6.94696,4.86329z" data-paper-data="{&quot;origPos&quot;:null}" fill="#ffa100" stroke="none" stroke-width="0" stroke-linecap="butt"/><path d="M222.60219,204.88693c0,0 9.14872,-19.46425 14.87213,-27.09545c5.64599,-7.528 16.42999,-16.39694 16.42999,-16.39694" data-paper-data="{&quot;origPos&quot;:null}" fill="none" stroke="#ffe400" stroke-width="1" stroke-linecap="round"/></g><g><path d="M272.20896,136.10655c4.9825,0 9.49724,2.02372 12.76669,5.29272c3.269,3.26945 5.29272,7.78419 5.29272,12.76669c0,4.9825 -2.02372,9.49724 -5.29272,12.76669c-3.26945,3.269 -7.78419,5.29272 -12.76669,5.29272c-4.9825,0 -9.49724,-2.02372 -12.76669,-5.29272c-3.269,-3.26945 -5.29272,-7.78419 -5.29272,-12.76669c0,-4.9825 2.02372,-9.49724 5.29272,-12.76669c3.26945,-3.269 7.78419,-5.29272 12.76669,-5.29272z" fill="url(#color-8)" stroke="none" stroke-width="1" stroke-linecap="butt"/><path d="M272.09864,139.12934c4.57475,0 8.7197,1.8578 11.72129,4.85983c3.00203,3.00159 4.85983,7.14654 4.85983,11.7213c0,4.57476 -1.8578,8.71971 -4.85983,11.72129c-3.00159,3.00203 -7.14654,4.85983 -11.72129,4.85983c-4.57475,0 -8.71971,-1.8578 -11.7213,-4.85983c-3.00203,-3.00159 -4.85982,-7.14654 -4.85982,-11.72129c0,-4.57476 1.85779,-8.71971 4.85982,-11.7213c3.00159,-3.00203 7.14655,-4.85983 11.7213,-4.85983z" fill="url(#color-9)" stroke="none" stroke-width="1" stroke-linecap="butt"/><path d="M272.02335,135.33027c5.03656,0 9.60082,2.04542 12.90561,5.35022c3.3048,3.30484 5.35022,7.86906 5.35022,12.90561c0,5.03655 -2.04542,9.60076 -5.35022,12.90556c-3.3048,3.30484 -7.86906,5.35022 -12.90561,5.35022c-5.03656,0 -9.60076,-2.04538 -12.90556,-5.35022c-3.30484,-3.3048 -5.35022,-7.86901 -5.35022,-12.90556c0,-5.03655 2.04538,-9.60077 5.35022,-12.90561c3.3048,-3.3048 7.869,-5.35022 12.90556,-5.35022z" fill="url(#color-10)" stroke="url(#color-11)" stroke-width="4.85992" stroke-linecap="round"/><path d="M272.00129,135.83773c5.03656,0 9.60081,2.04542 12.90561,5.35022c3.3048,3.30484 5.35022,7.86905 5.35022,12.90561c0,5.03655 -2.04542,9.60077 -5.35022,12.90556c-3.3048,3.30484 -7.86905,5.35022 -12.90561,5.35022c-5.03656,0 -9.60077,-2.04538 -12.90556,-5.35022c-3.30484,-3.3048 -5.35022,-7.86901 -5.35022,-12.90556c0,-5.03655 2.04538,-9.60076 5.35022,-12.90561c3.3048,-3.3048 7.86901,-5.35022 12.90556,-5.35022z" fill="url(#color-12)" stroke="url(#color-13)" stroke-width="4.85992" stroke-linecap="round"/></g></g></g></svg>