<svg version="1.1" xmlns="http://www.w3.org/2000/svg" xmlns:xlink="http://www.w3.org/1999/xlink" width="145.94131" height="172.25353" viewBox="0,0,145.94131,172.25353"><g transform="translate(-344.75011,-181.22839)"><g data-paper-data="{&quot;isPaintingLayer&quot;:true}" fill-rule="nonzero" stroke="none" stroke-width="0" stroke-linecap="butt" stroke-linejoin="miter" stroke-miterlimit="10" stroke-dasharray="" stroke-dashoffset="0" style="mix-blend-mode: normal"><path d="M477.75011,257.98192c0,10.55242 6.43334,29.63515 2.61407,45.31623c-6.5417,26.85877 -27.04741,50.18377 -44.9474,50.18377c-28.35062,0 -87.66667,-28.20657 -87.66667,-56.83333c0,-28.62676 50.31606,-90.5 78.66667,-90.5c28.35062,0 51.33333,23.20658 51.33333,51.83334z" fill="#b1abff"/><path d="M377.75011,269.31525c0,2.50806 -6.75627,2.82753 -8.78881,7.67457c-3.41292,8.13887 -7.21129,18.4921 -10.21119,18.4921c-4.78647,0 -14,-18.4472 -14,-25.16667c0,-6.71947 3.8802,-12.16666 8.66667,-12.16666c1.58846,0 31.05301,-66.82664 69.35598,-76.91402c2.02576,-0.5335 39.97555,33.66141 41.8359,33.25941c3.33267,-0.72015 3.35541,8.0658 2.56448,13.82058c-0.79092,5.75478 -1.96123,7.61817 -6.17509,11.11705c-4.21386,3.49888 -6.88977,3.45597 -11.63867,3.67419c-4.74889,0.21821 -7.66687,0.68368 -11.94298,-1.25725c-4.2761,-1.94093 -6.12153,-5.3651 -10.13461,-8.76383c-4.01308,-3.39873 -9.67455,-12.48268 -11.66401,-9.69771c-4.14876,5.8077 -10.49388,18.15751 -9.71113,18.93789c0.1415,0.14107 0.51744,3.9968 -0.56788,5.73316c-2.66017,4.2559 -9.75806,8.46639 -13.47947,11.92528c-4.91266,4.5661 -14.10919,8.71264 -14.10919,9.33192z" fill="#928bed"/><path d="M458.41678,326.64859c0,13.34688 -9.62588,24.16666 -21.5,24.16666c-11.87412,0 -27.83334,-11.15312 -27.83334,-24.5c0,-3.68238 9.01916,-7.30843 9.83994,-11.46579c1.48473,-7.52036 2.16844,-14.93114 7.40316,-17.15179c1.18568,-0.50299 15.2827,-4.91367 28.36291,-7.52015c12.95708,-2.58195 24.89767,-3.36227 26.22733,-3.36227c7.48946,0 14.57994,20.53713 5.50179,31.66814c-5.31475,6.51657 -28.00179,3.2367 -28.00179,8.16519z" fill="#928bed"/></g></g></svg>