<svg version="1.1" xmlns="http://www.w3.org/2000/svg" xmlns:xlink="http://www.w3.org/1999/xlink" width="25.85" height="31.06312"><defs><linearGradient x1="227.6" y1="163.8" x2="227.6" y2="182.75" gradientUnits="userSpaceOnUse" id="color-1"><stop offset="0" stop-color="#dd74fb"/><stop offset="1" stop-color="#c573fa"/></linearGradient><linearGradient x1="253" y1="163.7" x2="240.15" y2="163.7" gradientUnits="userSpaceOnUse" id="color-2"><stop offset="0" stop-color="#65e5fd"/><stop offset="1" stop-color="#4ab2ef"/></linearGradient><linearGradient x1="229.2" y1="176.75" x2="229.2" y2="190.35" gradientUnits="userSpaceOnUse" id="color-3"><stop offset="0" stop-color="#8fc2ee"/><stop offset="1" stop-color="#82f4d0"/></linearGradient><radialGradient cx="241.7335" cy="182.0479" r="19.5783" gradientUnits="userSpaceOnUse" id="color-4"><stop offset="0" stop-color="#ffffff"/><stop offset="1" stop-color="#ffffff" stop-opacity="0"/></radialGradient><radialGradient cx="240.3492" cy="174.9995" r="23.0418" gradientUnits="userSpaceOnUse" id="color-5"><stop offset="0" stop-color="#ffffff"/><stop offset="1" stop-color="#ffffff" stop-opacity="0"/></radialGradient><radialGradient cx="238.7006" cy="181.6576" r="19.9027" gradientUnits="userSpaceOnUse" id="color-6"><stop offset="0" stop-color="#ffffff"/><stop offset="1" stop-color="#ffffff" stop-opacity="0"/></radialGradient><radialGradient cx="242.14496" cy="167.4378" r="2.57917" gradientUnits="userSpaceOnUse" id="color-7"><stop offset="0" stop-color="#ffffff"/><stop offset="1" stop-color="#ffffff" stop-opacity="0"/></radialGradient><radialGradient cx="234.24671" cy="178.89445" r="2.57916" gradientUnits="userSpaceOnUse" id="color-8"><stop offset="0" stop-color="#ffffff"/><stop offset="1" stop-color="#ffffff" stop-opacity="0"/></radialGradient><radialGradient cx="246.29916" cy="181.49381" r="2.57917" gradientUnits="userSpaceOnUse" id="color-9"><stop offset="0" stop-color="#ffffff"/><stop offset="1" stop-color="#ffffff" stop-opacity="0"/></radialGradient><radialGradient cx="236.5999" cy="171.2415" r="18.5813" gradientUnits="userSpaceOnUse" id="color-10"><stop offset="0" stop-color="#4cb3ff"/><stop offset="1" stop-color="#3970ff"/></radialGradient><radialGradient cx="237.3548" cy="171.7994" r="11.9904" gradientUnits="userSpaceOnUse" id="color-11"><stop offset="0" stop-color="#ebfaff"/><stop offset="1" stop-color="#c1f4ff"/></radialGradient><radialGradient cx="239.1496" cy="181.7" r="3.1605" gradientUnits="userSpaceOnUse" id="color-12"><stop offset="0" stop-color="#ebfaff"/><stop offset="1" stop-color="#c1f4ff"/></radialGradient><radialGradient cx="239.95187" cy="192.68215" r="8.40319" gradientUnits="userSpaceOnUse" id="color-13"><stop offset="0" stop-color="#000000"/><stop offset="1" stop-color="#000000" stop-opacity="0"/></radialGradient></defs><g transform="translate(-227.6,-163.6)"><g data-paper-data="{&quot;isPaintingLayer&quot;:true}" fill="none" fill-rule="nonzero" stroke="none" stroke-width="none" stroke-linecap="none" stroke-linejoin="miter" stroke-miterlimit="10" stroke-dasharray="" stroke-dashoffset="0" font-family="none" font-weight="none" font-size="none" text-anchor="none" style="mix-blend-mode: normal"><path d="M227.6,169.4l12.85,-5.6l-0.05,13.6l-11.05,5.35z" id="ID0.5421378519386053" fill="url(#color-1)" stroke-width="1" stroke-linecap="round"/><path d="M251.3,182.9l-11.1,-5.6l-0.05,-13.6l12.85,5.6z" id="ID0.5421378519386053" fill="url(#color-2)" stroke-width="1" stroke-linecap="round"/><path d="M240.2,176.75l11.2,5.9l-11.3,7.7l-10.9,-7.55z" id="ID0.9421081026084721" fill="url(#color-3)" stroke-width="1" stroke-linecap="round"/><path d="M240.25,176.85l12.6,-7.4l-1.4,13.3l-11.45,7.7z" id="ID0.5421378519386053" fill="url(#color-4)" stroke-width="1" stroke-linecap="round"/><path d="M240.35,163.6l13.1,5.6l-13.05,7.6l-12.8,-7.55z" id="ID0.9421081026084721" fill="url(#color-5)" stroke-width="1" stroke-linecap="round"/><path d="M240.05,190.45l-11.05,-7.8l-1.4,-13.3l12.6,7.4z" id="ID0.5421378519386053" fill="url(#color-6)" stroke-width="1" stroke-linecap="round"/><path d="M239.11811,167.73578l1.43263,-2.88816l4.62106,2.29221l-1.43263,2.88816z" data-paper-data="{&quot;origPos&quot;:null,&quot;origRot&quot;:0}" fill="url(#color-7)" stroke-width="0" stroke-linecap="butt"/><path d="M231.69636,177.23725l2.9224,-1.36142l2.17829,4.67583l-2.9224,1.36143z" data-paper-data="{&quot;origPos&quot;:null,&quot;origRot&quot;:0}" fill="url(#color-8)" stroke-width="0" stroke-linecap="butt"/><path d="M245.78385,178.4963l2.98388,1.22081l-1.95328,4.77422l-2.98388,-1.22081z" data-paper-data="{&quot;origPos&quot;:null,&quot;origRot&quot;:0}" fill="url(#color-9)" stroke-width="0" stroke-linecap="butt"/><path d="M231.4,174.65l4.35,-5.95l9.95,1.05l2.85,7.85l-5.35,1.6l-0.15,6.1l-7,-0.7l0.35,-6.75z" data-paper-data="{&quot;origPos&quot;:null}" id="ID0.01084074191749096" fill="url(#color-10)" stroke-width="1" stroke-linecap="round"/><path d="M236.4,170.35l8.05,0.7l1.9,5.5l-4.45,0.95l-0.4,1.65h-3.75l0.2,-3l4,-1.1l-0.2,-1.55l-3.5,-0.15l-2,2.6l-2.8,-1.85z" data-paper-data="{&quot;origPos&quot;:null}" id="ID0.6140729915350676" fill="url(#color-11)" stroke-width="1" stroke-linecap="round"/><path d="M237.7,180.4l4,0.4l-0.05,3.2l-3.9,-0.45z" data-paper-data="{&quot;origPos&quot;:null}" id="ID0.796114316675812" fill="url(#color-12)" stroke-width="1" stroke-linecap="round"/><path d="M240.20396,190.88688c2.31804,0 4.41946,0.21164 5.94075,0.55357c1.52046,0.34194 2.46245,0.81335 2.46245,1.33455c0,0.5212 -0.94198,0.99261 -2.46245,1.33455c-1.52129,0.34194 -3.62271,0.55357 -5.94075,0.55357c-2.31804,0 -4.41946,-0.21164 -5.94075,-0.55357c-1.52046,-0.34194 -2.46245,-0.81335 -2.46245,-1.33455c0,-0.5212 0.94198,-0.99261 2.46245,-1.33455c1.52129,-0.34194 3.62271,-0.55357 5.94075,-0.55357z" data-paper-data="{&quot;origPos&quot;:null}" id="ID0.24829221377149224" fill="url(#color-13)" stroke-width="1" stroke-linecap="butt"/></g></g></svg>