<svg version="1.1" xmlns="http://www.w3.org/2000/svg" xmlns:xlink="http://www.w3.org/1999/xlink" width="49.76393" height="26.86691" viewBox="0,0,49.76393,26.86691"><defs><radialGradient cx="223.2495" cy="179.7994" r="11.1262" gradientUnits="userSpaceOnUse" id="color-1"><stop offset="0" stop-color="#b6becf"/><stop offset="1" stop-color="#999fae"/></radialGradient><linearGradient x1="216.05" y1="178.7" x2="225.55" y2="178.7" gradientUnits="userSpaceOnUse" id="color-2"><stop offset="0" stop-color="#b1b8c9"/><stop offset="1" stop-color="#c6d0e1"/></linearGradient><radialGradient cx="238.3624" cy="180.3404" r="11.7537" gradientUnits="userSpaceOnUse" id="color-3"><stop offset="0" stop-color="#535879"/><stop offset="1" stop-color="#434561"/></radialGradient><radialGradient cx="230.8379" cy="179.95222" r="11.614" gradientUnits="userSpaceOnUse" id="color-4"><stop offset="0" stop-color="#535879"/><stop offset="1" stop-color="#434561"/></radialGradient><linearGradient x1="237.4366" y1="180.14262" x2="241.51698" y2="180.14262" gradientUnits="userSpaceOnUse" id="color-5"><stop offset="0" stop-color="#ebebeb"/><stop offset="1" stop-color="#ffffff"/></linearGradient><linearGradient x1="237.4366" y1="180.14262" x2="241.51698" y2="180.14262" gradientUnits="userSpaceOnUse" id="color-6"><stop offset="0" stop-color="#e9e9e9"/><stop offset="1" stop-color="#ffffff"/></linearGradient><radialGradient cx="246.1992" cy="180.28121" r="12.1585" gradientUnits="userSpaceOnUse" id="color-7"><stop offset="0" stop-color="#a9b1c0"/><stop offset="1" stop-color="#828893"/></radialGradient><linearGradient x1="0" y1="0" x2="0" y2="0" gradientUnits="userSpaceOnUse" id="color-8"><stop offset="0" stop-color="#000000" stop-opacity="0"/><stop offset="1" stop-color="#000000"/></linearGradient><linearGradient x1="243.5398" y1="180.25157" x2="260.2639" y2="180.25157" gradientUnits="userSpaceOnUse" id="color-9"><stop offset="0" stop-color="#ceff00"/><stop offset="1" stop-color="#81e300"/></linearGradient><linearGradient x1="222.703" y1="188.85002" x2="231.953" y2="188.85002" gradientUnits="userSpaceOnUse" id="color-10"><stop offset="0" stop-color="#4d4e5e"/><stop offset="1" stop-color="#6b6c84"/></linearGradient><linearGradient x1="241.453" y1="188.85002" x2="250.703" y2="188.85002" gradientUnits="userSpaceOnUse" id="color-11"><stop offset="0" stop-color="#4d4e5e"/><stop offset="1" stop-color="#6b6c84"/></linearGradient><linearGradient x1="222.653" y1="166.95" x2="231.903" y2="166.95" gradientUnits="userSpaceOnUse" id="color-12"><stop offset="0" stop-color="#4d4e5e"/><stop offset="1" stop-color="#6b6c84"/></linearGradient><linearGradient x1="241.403" y1="166.95" x2="250.653" y2="166.95" gradientUnits="userSpaceOnUse" id="color-13"><stop offset="0" stop-color="#4d4e5e"/><stop offset="1" stop-color="#6b6c84"/></linearGradient><radialGradient cx="221" cy="183.79972" r="2.3404" gradientUnits="userSpaceOnUse" id="color-14"><stop offset="0" stop-color="#d1dbed"/><stop offset="1" stop-color="#a9b1c0"/></radialGradient><radialGradient cx="220.85" cy="176.40002" r="2.275" gradientUnits="userSpaceOnUse" id="color-15"><stop offset="0" stop-color="#d1dbed"/><stop offset="1" stop-color="#a9b1c0"/></radialGradient><radialGradient cx="251.17285" cy="181.41496" r="0.92063" gradientUnits="userSpaceOnUse" id="color-16"><stop offset="0" stop-color="#7aeb38"/><stop offset="1" stop-color="#65cc5a"/></radialGradient><radialGradient cx="252.72891" cy="181.7936" r="0.7447" gradientUnits="userSpaceOnUse" id="color-17"><stop offset="0" stop-color="#71de47"/><stop offset="1" stop-color="#65cc5a"/></radialGradient><radialGradient cx="253.24711" cy="179.35495" r="0.82171" gradientUnits="userSpaceOnUse" id="color-18"><stop offset="0" stop-color="#5cb12a"/><stop offset="1" stop-color="#65cc5a"/></radialGradient><linearGradient x1="234.99879" y1="180.06009" x2="239.5479" y2="180.06009" gradientUnits="userSpaceOnUse" id="color-19"><stop offset="0" stop-color="#ffffff"/><stop offset="1" stop-color="#f3f3f3"/></linearGradient></defs><g transform="translate(-210.5887,-166.7831)"><g data-paper-data="{&quot;isPaintingLayer&quot;:true}" fill-rule="nonzero" stroke-linejoin="miter" stroke-miterlimit="10" stroke-dasharray="" stroke-dashoffset="0" style="mix-blend-mode: normal"><path d="M223.55,178.90002h25v2.1h-25z" fill="#ffffff" stroke="none" stroke-width="0.88388" stroke-linecap="butt"/><path d="M234.15,171.00002h4.65v18.6h-4.65z" fill="#ffffff" stroke="none" stroke-width="1" stroke-linecap="butt"/><path d="M244.85,170.75002h2.3v18.75h-2.3z" fill="#25262e" stroke="none" stroke-width="1" stroke-linecap="butt"/><path d="M226.2,170.75002h2.3v18.75h-2.3z" fill="#25262e" stroke="none" stroke-width="1" stroke-linecap="butt"/><path d="M251.65263,166.7831l3.6,0.2l3.1,1.3l1.95,2.45l0.05,2.8l-4.7,-1l-1.85,-1.05l-2.15,-0.15z" fill="#ffffff" stroke="none" stroke-width="1" stroke-linecap="round"/><path d="M251.65,188.65002l2.15,-0.15l1.85,-1.05l4.7,-1l-0.05,2.8l-1.95,2.45l-3.1,1.3l-3.6,0.2z" fill="#ffffff" stroke="none" stroke-width="1" stroke-linecap="round"/><path d="M216.35,173.65002h8.95v12.9h-8.95z" fill="url(#color-1)" stroke="none" stroke-width="1" stroke-linecap="butt"/><path d="M216.05,178.7h9.5v2.6h-9.5z" fill="url(#color-2)" stroke="none" stroke-width="1" stroke-linecap="butt"/><g stroke="none" stroke-width="1.59028" stroke-linecap="round"><path d="M234.9734,172.70112c2.0833,-0.2481 4.7232,-0.5709 6.2419,0.8747c1.6157,1.5457 1.5203,4.2556 1.5108,6.4406c0.0095,2.43 0.186,5.4102 -1.5108,7.0768c-1.4933,1.4614 -4.1634,0.8428 -6.2419,0.6361c-1.5887,-0.159 -3.7578,-0.2417 -4.3335,-1.6698c-0.8174,-1.84 0.9749,-3.8962 1.1132,-5.884c0.1257,-1.8034 -1.234,-3.7452 -0.4771,-5.407c0.5216,-1.3056 2.2296,-1.8924 3.6974,-2.0674z" fill="url(#color-3)"/><path d="M228.2882,172.80771c1.18,-0.089 2.414,0.7475 2.942,1.7493c1.0194,1.7223 1.4201,3.8278 1.3517,5.8046c-0.0731,2.1071 -0.5247,4.3271 -1.5902,6.1226c-0.5201,0.8174 -1.8273,1.1768 -2.7035,0.9541c-1.0019,-0.256 -1.673,-0.819 -2.2487,-2.1437c-0.5757,-1.3247 -0.9319,-3.1535 -0.9319,-5.1716c0,-2.018 0.3562,-3.8469 0.9319,-5.1716c0.5757,-1.3247 1.2166,-2.0658 2.2487,-2.1437z" fill="url(#color-4)"/></g><path d="M236.17105,176.85821l17.11579,-1.48044v9.69449l-17.11579,-1.57595z" fill="#6ede2d" stroke="none" stroke-width="1" stroke-linecap="butt"/><path d="M241.51698,180.14262c0,1.031 -0.91343,1.86678 -2.0402,1.86678c-1.12677,0 -2.04019,-0.83579 -2.04019,-1.86678c0,-1.031 0.91342,-1.86677 2.04019,-1.86677c1.12677,0 2.0402,0.83579 2.0402,1.86677z" fill="url(#color-5)" stroke="url(#color-6)" stroke-width="2" stroke-linecap="butt"/><path d="M244.5,173.0683h8.85v14.3h-8.85z" fill="url(#color-7)" stroke="none" stroke-width="1.14677" stroke-linecap="butt"/><path d="M243.725,176.85002c0.683,0 1.302,0.387 1.75,1.011c0.448,0.625 0.725,1.487 0.725,2.439c0,0.952 -0.277,1.814 -0.725,2.439c-0.448,0.624 -1.067,1.011 -1.75,1.011c-0.683,0 -1.302,-0.387 -1.75,-1.011c-0.448,-0.625 -0.725,-1.487 -0.725,-2.439c0,-0.952 0.277,-1.814 0.725,-2.439c0.448,-0.624 1.067,-1.011 1.75,-1.011z" fill="url(#color-8)" stroke="#181a22" stroke-width="1" stroke-linecap="butt"/><path d="M243.5398,176.00972l16.7241,-4.8092v18.1021l-16.7241,-4.9173z" data-paper-data="{&quot;origPos&quot;:null}" fill="url(#color-9)" stroke="none" stroke-width="0.54036" stroke-linecap="butt"/><path d="M252.45,175.85002c0.786,0 1.499,0.493 2.015,1.29c0.516,0.796 0.835,1.896 0.835,3.11c0,1.214 -0.319,2.314 -0.835,3.11c-0.516,0.797 -1.229,1.29 -2.015,1.29c-0.786,0 -1.499,-0.493 -2.015,-1.29c-0.516,-0.796 -0.835,-1.896 -0.835,-3.11c0,-1.214 0.319,-2.314 0.835,-3.11c0.516,-0.797 1.229,-1.29 2.015,-1.29z" fill="#ffffff" stroke="none" stroke-width="1" stroke-linecap="butt"/><g data-paper-data="{&quot;origPos&quot;:null}"><path d="M222.703,188.85002h9.25v4.55h-9.25z" fill="url(#color-10)" stroke="none" stroke-width="1.06234" stroke-linecap="butt"/><path d="M241.453,188.85002h9.25v4.55h-9.25z" fill="url(#color-11)" stroke="none" stroke-width="1.06234" stroke-linecap="butt"/><path d="M233.5,189.40002h6.3v3.75h-6.3z" fill="#ceff00" stroke="#ffffff" stroke-width="1" stroke-linecap="round"/></g><g data-paper-data="{&quot;origPos&quot;:null}"><path d="M222.653,166.95h9.25v4.55h-9.25z" fill="url(#color-12)" stroke="none" stroke-width="1.06234" stroke-linecap="butt"/><path d="M241.403,166.95h9.25v4.55h-9.25z" fill="url(#color-13)" stroke="none" stroke-width="1.06234" stroke-linecap="butt"/><path d="M233.45,167.5h6.3v3.75h-6.3z" fill="#ceff00" stroke="#ffffff" stroke-width="1" stroke-linecap="round"/></g><g stroke="none"><path d="M213.0687,167.6636l9.0182,3.3334l1.7535,1.2727l0.6889,1.3939h-11.4606z" fill="#4e4f5f" stroke-width="1.23249" stroke-linecap="round"/><path d="M211.3531,172.82312c-0.3806,-0.5547 -0.6144,-1.3222 -0.6144,-2.169c0,-0.8468 0.2338,-1.6144 0.6144,-2.1691c0.3806,-0.5562 0.9051,-0.8996 1.4836,-0.8996c0.5784,0 1.1029,0.3434 1.4835,0.8996c0.3807,0.5547 0.6144,1.3223 0.6144,2.1691c0,0.8468 -0.2337,1.6143 -0.6144,2.169c-0.3806,0.5563 -0.9051,0.8996 -1.4835,0.8996c-0.5785,0 -1.103,-0.3433 -1.4836,-0.8996z" fill="#ffda3b" stroke-width="2.38714" stroke-linecap="butt"/><path d="M212.0358,171.7618c-0.1904,-0.3136 -0.3086,-0.7487 -0.3086,-1.2287c0,-0.48 0.1182,-0.9151 0.3086,-1.2288c0.1904,-0.315 0.4529,-0.51 0.7435,-0.51c0.2906,0 0.5531,0.195 0.7435,0.51c0.1904,0.3137 0.3086,0.7488 0.3086,1.2288c0,0.48 -0.1182,0.9151 -0.3086,1.2287c-0.1904,0.3151 -0.4529,0.5101 -0.7435,0.5101c-0.2906,0 -0.5531,-0.195 -0.7435,-0.5101z" fill="#30323a" stroke-width="1.19664" stroke-linecap="butt"/></g><g stroke="none"><path d="M212.9187,186.48642h11.4606l-0.6889,1.3939l-1.7535,1.2727l-9.0182,3.3334z" fill="#4e4f5f" stroke-width="1.23249" stroke-linecap="round"/><path d="M212.6867,186.3773c0.5784,0 1.1029,0.3433 1.4835,0.8996c0.3807,0.5547 0.6144,1.3222 0.6144,2.169c0,0.8468 -0.2337,1.6144 -0.6144,2.1691c-0.3806,0.5562 -0.9051,0.8996 -1.4835,0.8996c-0.5785,0 -1.103,-0.3434 -1.4836,-0.8996c-0.3806,-0.5547 -0.6144,-1.3223 -0.6144,-2.1691c0,-0.8468 0.2338,-1.6143 0.6144,-2.169c0.3806,-0.5563 0.9051,-0.8996 1.4836,-0.8996z" fill="#ffda3b" stroke-width="2.38714" stroke-linecap="butt"/><path d="M212.6293,187.82812c0.2906,0 0.5531,0.195 0.7435,0.5101c0.1904,0.3136 0.3086,0.7487 0.3086,1.2287c0,0.48 -0.1182,0.9151 -0.3086,1.2288c-0.1904,0.315 -0.4529,0.51 -0.7435,0.51c-0.2906,0 -0.5531,-0.195 -0.7435,-0.51c-0.1904,-0.3137 -0.3086,-0.7488 -0.3086,-1.2288c0,-0.48 0.1182,-0.9151 0.3086,-1.2287c0.1904,-0.3151 0.4529,-0.5101 0.7435,-0.5101z" fill="#30323a" stroke-width="1.19664" stroke-linecap="butt"/></g><path d="M220.9,182.2c0.469,0 0.894,0.19 1.202,0.498c0.308,0.308 0.498,0.733 0.498,1.202c0,0.469 -0.19,0.894 -0.498,1.202c-0.308,0.308 -0.733,0.498 -1.202,0.498c-0.469,0 -0.894,-0.19 -1.202,-0.498c-0.308,-0.308 -0.498,-0.733 -0.498,-1.202c0,-0.469 0.19,-0.894 0.498,-1.202c0.308,-0.308 0.733,-0.498 1.202,-0.498z" fill="url(#color-14)" stroke="none" stroke-width="1" stroke-linecap="butt"/><path d="M220.85,174.65002c0.469,0 0.894,0.19 1.202,0.498c0.308,0.308 0.498,0.733 0.498,1.202c0,0.469 -0.19,0.894 -0.498,1.202c-0.308,0.308 -0.733,0.498 -1.202,0.498c-0.469,0 -0.894,-0.19 -1.202,-0.498c-0.308,-0.308 -0.498,-0.733 -0.498,-1.202c0,-0.469 0.19,-0.894 0.498,-1.202c0.308,-0.308 0.733,-0.498 1.202,-0.498z" fill="url(#color-15)" stroke="none" stroke-width="1" stroke-linecap="butt"/><path d="M258.75,171.60002l1.55,-0.65v18.35l-1.55,-0.4z" fill="#ffffff" stroke="none" stroke-width="1" stroke-linecap="round"/><path d="M242.7701,182.03842c0.319,0.1794 0.5498,0.4442 0.6658,0.7275c0.1161,0.2833 0.1164,0.5847 -0.0257,0.8372c-0.1421,0.2526 -0.3998,0.4089 -0.7021,0.4568c-0.3024,0.048 -0.6485,-0.0118 -0.9675,-0.1912c-0.319,-0.1794 -0.5499,-0.4442 -0.6659,-0.7275c-0.116,-0.2833 -0.1163,-0.5847 0.0258,-0.8373c0.1421,-0.2525 0.3998,-0.4088 0.7021,-0.4567c0.3024,-0.048 0.6485,0.0118 0.9675,0.1912z" fill="#6ed631" stroke="none" stroke-width="1.0253" stroke-linecap="butt"/><path d="M241.7026,178.5528c-0.3023,-0.0479 -0.56,-0.2042 -0.7021,-0.4568c-0.1421,-0.2525 -0.1418,-0.5539 -0.0258,-0.8372c0.116,-0.2833 0.3469,-0.5481 0.6659,-0.7275c0.319,-0.1794 0.6651,-0.2392 0.9675,-0.1912c0.3023,0.0479 0.56,0.2042 0.7021,0.4568c0.1421,0.2525 0.1418,0.5539 0.0257,0.8372c-0.116,0.2833 -0.3468,0.5481 -0.6658,0.7275c-0.319,0.1794 -0.6651,0.2392 -0.9675,0.1912z" fill="#6ed631" stroke="none" stroke-width="1.0253" stroke-linecap="butt"/><path d="M233.98856,181.07277c0,0.25 -0.25,0.25 -0.25,0.25c-0.0924,0 -0.39269,0 -0.48508,0c0,0 -0.25,0 -0.25,-0.25c0,-0.25 0.25,-0.25 0.25,-0.25c0.0924,0 0.18479,0 0.27719,0h0.20789c0,0 0.25,0 0.25,0.25z" fill="#000000" stroke="none" stroke-width="0.5" stroke-linecap="butt"/><path d="M234.16587,178.97643c0,0.25 -0.25,0.25 -0.25,0.25c-0.0924,0 -0.39269,0 -0.48508,0c0,0 -0.25,0 -0.25,-0.25c0,-0.25 0.25,-0.25 0.25,-0.25c0.0924,0 0.18479,0 0.27719,0h0.20789c0,0 0.25,0 0.25,0.25z" fill="#000000" stroke="none" stroke-width="0.5" stroke-linecap="butt"/><g stroke-width="0.25" stroke-linecap="butt"><path d="M253.25025,178.64529c0.95403,0.42607 1.34656,1.806 0.39652,2.8416c-0.73809,0.64643 -1.47276,0.79156 -1.93075,0.77307c-0.29345,-0.01185 -0.47086,-0.11598 -0.47086,-0.11598l-0.1483,-0.1023c0,0 -0.15827,-0.13141 -0.26923,-0.40333c-0.17318,-0.42439 -0.28658,-1.16462 0.07024,-2.07858c0.6507,-1.24565 2.08186,-1.3459 2.80704,-0.59367" data-paper-data="{&quot;index&quot;:null}" fill="#ffffff" stroke="#d0d0d0"/><path d="M251.52341,181.51384c-0.05921,0.06633 -0.32191,0.44101 -0.74867,-0.16561c-0.06474,-0.09201 -0.19038,-1.38014 0.06711,-1.48297c0.7624,-0.30446 0.89951,0.50327 0.93987,0.66772c0.06704,0.27317 0.00267,0.6885 -0.25831,0.98087z" fill="url(#color-16)" stroke="none"/><path d="M252.4516,182.11955c-0.15137,-0.35786 0.51952,-0.75446 0.53741,-0.76297c0.3244,-0.15441 0.67425,-0.15682 0.73012,-0.03944c0.05587,0.11739 -0.16181,0.33772 -0.48621,0.49213c-0.3244,0.15441 -0.73067,0.43001 -0.78132,0.31028z" fill="url(#color-17)" stroke="none"/><path d="M252.23994,180.20112c-0.19606,-0.4119 -0.19514,-0.92618 0.28079,-1.15272c0.47593,-0.22654 0.93125,-0.00526 1.12731,0.40664c0.19606,0.4119 0.09359,0.83233 -0.28187,1.01104c-0.39091,0.18607 -0.93017,0.14694 -1.12623,-0.26496z" fill="url(#color-18)" stroke="none"/><path d="M253.24929,178.64327c0.95403,0.42607 1.34656,1.806 0.39652,2.8416c-0.73809,0.64643 -1.47276,0.79156 -1.93075,0.77307c-0.29345,-0.01185 -0.47086,-0.11598 -0.47086,-0.11598l-0.1483,-0.1023c0,0 -0.15827,-0.13141 -0.26923,-0.40333c-0.17318,-0.42439 -0.28658,-1.16462 0.07024,-2.07858c0.6507,-1.24565 2.08186,-1.3459 2.80704,-0.59367" data-paper-data="{&quot;index&quot;:null}" fill="none" stroke="#d0d0d0"/></g><g stroke-linecap="butt"><path d="M233.66151,179.19141c0,0.76285 0.14062,3.02154 -2.02874,3.02154c-2.16937,0 -5.48192,-2.86298 -5.48192,-3.62583c0,-0.76285 1.84495,-0.17265 4.01432,-0.17265c2.16937,0 3.49634,0.01411 3.49634,0.77695z" fill="#64c32d" stroke="none" stroke-width="0"/><path d="M231.4745,179.94011c0,0.5054 -0.54664,0.91511 -1.22094,0.91511c-0.6743,0 -1.22094,-0.40971 -1.22094,-0.91511c0,-0.5054 0.54664,-0.91511 1.22094,-0.91511c0.6743,0 1.22094,0.40971 1.22094,0.91511z" fill="#ff6900" stroke="none" stroke-width="0"/><g><path d="M239.5479,179.79101c0,2.49892 -1.96844,4.52471 -4.39662,4.52471c-2.42819,0 -4.39662,-2.02577 -4.39662,-4.52471c0,-2.49892 1.96844,-4.52471 4.39662,-4.52471c2.42819,0 4.39662,2.02579 4.39662,4.52471z" fill="#6ede2d" stroke="none" stroke-width="0"/><path d="M239.5479,179.95891c0,2.4062 -1.4754,4.35681 -3.29538,4.35681c-0.44388,0 -0.86725,-0.11603 -1.25374,-0.3264c1.66951,-0.7165 2.87728,-2.8012 2.87728,-5.26129c0,-1.0735 -0.22999,-2.07553 -0.62795,-2.92359c1.33338,0.558 2.29979,2.20702 2.29979,4.15445z" fill="url(#color-19)" stroke="none" stroke-width="0"/><g fill="#46891f" stroke="none" stroke-width="0.5"><path d="M236.59281,180.16293c0,0.111 -0.10715,0.111 -0.10715,0.111c-0.08164,0 -0.22451,0 -0.30615,0c0,0 -0.10715,0 -0.10715,-0.111c0,-0.111 0.10715,-0.111 0.10715,-0.111c0.08164,0 0.16329,0 0.24492,0h0.06123c0,0 0.10715,0 0.10715,0.111z"/><path d="M236.59281,179.68721c0,0.111 -0.10715,0.111 -0.10715,0.111c-0.08164,0 -0.22451,0 -0.30615,0c0,0 -0.10715,0 -0.10715,-0.111c0,-0.111 0.10715,-0.111 0.10715,-0.111c0.08164,0 0.16329,0 0.24492,0h0.06123c0,0 0.10715,0 0.10715,0.111z"/></g><path d="M232.81615,178.39311c0,0.7001 -0.19355,1.26764 -0.43232,1.26764c-0.23877,0 -0.43233,-0.56754 -0.43233,-1.26764c0,-0.7001 0.19356,-1.26764 0.43233,-1.26764c0.23877,0 0.43232,0.56754 0.43232,1.26764z" fill="#4a6528" stroke="#65c62d" stroke-width="2"/><path d="M232.81615,180.74659c0,0.7001 -0.19355,1.26764 -0.43232,1.26764c-0.23877,0 -0.43233,-0.56754 -0.43233,-1.26764c0,-0.7001 0.19356,-1.26764 0.43233,-1.26764c0.23877,0 0.43232,0.56754 0.43232,1.26764z" fill="#4a6528" stroke="#65c62d" stroke-width="2"/><g stroke="none" stroke-width="0"><path d="M233.80706,180.65206c0.22646,0.18303 0.19717,0.59482 -0.06544,0.91975c-0.26262,0.32493 -0.6591,0.43995 -0.88556,0.25692c-0.22646,-0.18303 -0.19717,-0.59482 0.06544,-0.91975c0.26262,-0.32493 0.6591,-0.43995 0.88556,-0.25692z" fill="#ffffff"/><path d="M233.80706,180.65206c0.1477,0.11937 0.12905,0.38736 -0.04164,0.59856c-0.1707,0.2112 -0.42881,0.28565 -0.5765,0.16628c-0.1477,-0.11937 -0.12905,-0.38736 0.04164,-0.59857c0.1707,-0.2112 0.42881,-0.28565 0.5765,-0.16628z" fill="#000000"/></g><g stroke="none" stroke-width="0"><path d="M233.91703,178.60184c-0.18438,0.22537 -0.59598,0.1936 -0.91933,-0.07096c-0.32335,-0.26456 -0.436,-0.66174 -0.25162,-0.8871c0.18438,-0.22537 0.596,-0.19358 0.91936,0.07096c0.32335,0.26456 0.43599,0.66173 0.25159,0.8871z" fill="#ffffff"/><path d="M233.91703,178.60184c-0.12026,0.14698 -0.38812,0.12673 -0.59829,-0.04524c-0.21017,-0.17197 -0.28308,-0.43052 -0.16283,-0.57749c0.12026,-0.14698 0.38813,-0.12673 0.59831,0.04524c0.21017,0.17197 0.28307,0.43052 0.16281,0.5775z" fill="#000000"/></g></g></g></g></g></svg>