<svg version="1.1" xmlns="http://www.w3.org/2000/svg" xmlns:xlink="http://www.w3.org/1999/xlink" width="560.76062" height="374.16032"><g transform="translate(79.76062,3.99995)"><g data-paper-data="{&quot;isPaintingLayer&quot;:true}" fill="none" fill-rule="nonzero" stroke="none" stroke-width="none" stroke-linecap="none" stroke-linejoin="miter" stroke-miterlimit="10" stroke-dasharray="" stroke-dashoffset="0" font-family="none" font-weight="none" font-size="none" text-anchor="none" style="mix-blend-mode: normal"><path d="M481,-2.99995v264.30868c-1.09461,-1.73978 -2.99105,-3.73856 -2.99023,-5.33634c0.00482,-9.33241 -3.48266,-16.61773 -8.21522,-24.28496c-2.07524,-3.36212 -3.33683,-7.77436 -5.83142,-10.66284c-0.70227,-0.81315 -1.46704,-1.57347 -2.23218,-2.33282c-0.80315,-1.89667 -1.64516,-3.70109 -2.50165,-5.27133c-4.77264,-8.74984 -15.2293,-20.42039 -15.2293,-20.42039l-16,-11c0,0 -20.78094,2.14711 -32.16165,5.44153c-33.10926,9.58426 -79.83835,27.55847 -79.83835,27.55847l-21,-5l-18,-13l-2,-16c0,0 6.50185,-9.06877 10.66337,-10.39289c4.42427,-1.40772 16.66997,0.05956 16.66997,0.05956c0,0 11.24423,3.42746 13.32071,4.34111c0.54494,0.23977 8.8514,5.70795 9.39634,5.94772c1.63481,0.71932 10.28295,6.37783 10.28295,6.37783l10.66667,1.66667c0,0 7.72307,0.70128 12.66622,0.08339c4.42315,-0.55289 11.33378,-3.08339 11.33378,-3.08339c0,0 12.1326,-4.98086 18.99125,-8.9035c5.64464,-3.22832 7.49796,-6.02726 13.01217,-9.47364c3.51103,-2.19439 7.99658,-6.62286 7.99658,-6.62286c0,0 5.47353,-6.34477 7.91011,-10.40575c0.51976,-0.86626 5.07614,-10.3844 5.16095,-10.52321c0.79789,-1.30587 6.20745,-11.90095 6.42893,-12.07107c3.09242,-2.37532 6.24581,-12.47532 6.57107,-12.92893c1.05331,-1.46895 5.64195,-9.88163 6.50386,-11.92611c3.8925,-9.23316 13.44688,-35.25892 14.28901,-39.50097c1.89171,-9.52907 4.78627,-18.97223 6.89793,-28.47468c2.80379,-12.61704 5.08126,-25.62288 8.7348,-38.0528z" data-paper-data="{&quot;origPos&quot;:null}" fill="#8fb669" stroke="#000000" stroke-width="0" stroke-linecap="butt"/><path d="" data-paper-data="{&quot;origPos&quot;:null}" fill="#8fb669" stroke="#000000" stroke-width="0" stroke-linecap="butt"/><path d="" data-paper-data="{&quot;origPos&quot;:null}" fill="#8fb669" stroke="#000000" stroke-width="0" stroke-linecap="butt"/><path d="M170.91434,46.63822c-13.20567,-1.77262 -0.82127,-49.66376 -0.82127,-49.66376l33.86874,0.14724c-0.80165,1.5082 -1.60331,3.01638 -2.40496,4.52458c-4.12174,7.75446 -9.11546,15.35714 -11.25828,23.92839c0,0 -0.02767,0.1107 -0.06528,0.31141c-5.37109,10.998 -5.79533,22.56746 -19.31895,20.75215z" data-paper-data="{&quot;origPos&quot;:null}" fill="#8fb669" stroke="#000000" stroke-width="0" stroke-linecap="butt"/><path d="M197.00001,119.00007c0,0 10.04583,-3.37406 15.19557,-5.53363c6.94841,-2.91385 15.80443,-7.46637 15.80443,-7.46637l17,-16c0,0 -0.2698,-6.74509 -0.44249,-11.0623c-0.21758,-5.43936 -0.55751,-13.9377 -0.55751,-13.9377l18,-12c0,0 26.90571,21.47786 39.00633,28.18423c20.2912,11.24573 43.99367,17.81577 43.99367,17.81577l-2,13l-12,4l-17,-7l-27,-4h-19c0,0 -14.00179,1.53382 -24.88381,4.43569c-6.67981,1.78128 -20.11619,10.56431 -20.11619,10.56431l-12,14c0,0 -0.90065,21.98703 -0.19701,36.05985c0.85741,17.14821 4.19701,43.94015 4.19701,43.94015l5,16c0,0 11.35518,9.83181 18.62308,15.48462c6.78157,5.27455 17.37692,12.51538 17.37692,12.51538l37,17l14,6l64.23472,-20.85124c1.45465,2.59828 2.59555,5.33969 3.69734,8.13734l-70.93207,21.7139l-26,5c0,0 -7.19496,-5.92661 -10.52,-10.36c-3.69969,-4.93292 -7.48,-13.64 -7.48,-13.64l-24,-3l-20,1l-41,21c0,0 -8.75813,8.6645 -15,7c-6.24187,-1.6645 -15,-15 -15,-15c0,0 -7.24482,-15.03528 -9.32166,-25.93873c-1.04525,-5.48759 1.32166,-16.06127 1.32166,-16.06127l6,-18l10,-19l2,-19l-1,-15l-7,-17l-14,-15l-21,-18l-27,-19l-3,-10v-10l7,-4h8l13,7c0,0 16.08724,11.324 25.74384,16.65178c3.66562,2.02241 4.79547,7.03501 8.60235,8.77701c9.05767,4.14473 23.65381,6.57121 23.65381,6.57121c0,0 6.74695,1.93062 11.06535,2.52626c6.99923,0.96541 17.93465,1.47374 17.93465,1.47374z" data-paper-data="{&quot;origPos&quot;:null}" fill="#8fb669" stroke="#000000" stroke-width="0" stroke-linecap="butt"/><path d="M175,290.00005c0,0 -8.75813,8.6645 -15,7c-6.24187,-1.6645 -15,-15 -15,-15c0,0 -7.24482,-15.03528 -9.32166,-25.93873c-1.04525,-5.48759 1.32166,-16.06127 1.32166,-16.06127l3.32197,-9.9659c11.65456,6.15973 22.74526,13.06889 33.77467,20.39159c11.66482,7.74457 24.09876,14.28416 36.03383,21.58065z" data-paper-data="{&quot;origPos&quot;:null}" fill="#636a22" stroke="#000000" stroke-width="0" stroke-linecap="butt"/><path d="M348.00001,63.00007l1,13l-34,-17z" data-paper-data="{&quot;origPos&quot;:null}" fill="#568527" stroke="#000000" stroke-width="0" stroke-linecap="round"/><path d="M92.00001,181.50007c-0.80726,7.53441 -3,11 -3,11c0,0 -1.61747,-0.81469 -3.97125,-2.07092c0.86416,-1.29548 1.3971,-2.8097 2.07346,-4.5006c1.3999,-3.49974 3.30788,-8.31418 2.1788,-12.17848c-0.17135,-0.58646 -0.46252,-1.12583 -0.77258,-1.65807c2.50896,2.34365 4.11034,3.63291 3.49157,9.40807z" data-paper-data="{&quot;origPos&quot;:null}" fill="#8fb669" stroke="#000000" stroke-width="0" stroke-linecap="butt"/><path d="M53.50001,164.5c0.11872,-3.44273 2.23422,-6.4633 4.48893,-8.7242c-0.60812,2.74082 -1.13208,5.50553 -1.20792,8.2242c0,4.7426 2.11706,7.79802 4.03592,11.84584c-3.60771,-3.17084 -7.54005,-4.87532 -7.31693,-11.34584z" data-paper-data="{&quot;origPos&quot;:null}" fill="#8fb669" stroke="#000000" stroke-width="0" stroke-linecap="butt"/><path d="M431.37891,125.79899c0.42332,0.44613 0.91894,0.84157 1.45008,1.19981c-2.34718,2.53817 -2.82892,5.68127 -2.82892,9.00123c0,0.6492 -0.30365,2.84624 0,3.5c1.07335,2.31095 2.7851,3.85754 5.10557,4.78886c0.47363,0.19009 4.55441,0.71129 2.49706,1.3436c0.16224,0.48672 0.35207,0.98989 0.39464,1.49916c-0.81667,-0.48274 -1.69426,1.56964 -2.28614,2.47396c-0.98449,1.50417 -1.58144,3.11649 -1.71114,4.89443c-0.09942,1.36279 -0.7065,5.89647 0,7c1.59769,2.49556 4.20225,3.68818 7,4c1.51054,0 3.53963,0.3588 5,0c0,1 0,2 0,3c0,5.04281 1.43075,7.95145 6.10557,10.28886c1.2217,0.61085 2.36486,0.70344 3.70037,0.71065c0.08566,0.35448 0.19405,0.73169 0.19405,1.0005c0,1.33334 0,2.66666 0,4c0,5.17615 2.41739,10.5908 7.10557,13.28886c0.90023,0.45012 2.0256,1.26059 3,1.5c0.26278,0.06457 0.5304,0.10404 0.80002,0.13167c-0.03241,0.85491 0.18574,2.72991 0.09441,3.07948c-0.11444,0.43801 -0.68084,0.66592 -0.78886,1.10557c-1.4028,5.70952 -0.15985,12.8147 4.89443,16.18328c1.04665,0.52333 1.48885,1.66491 2.48021,2.12536c0.09395,0.04363 0.19798,0.08383 0.30973,0.12054c-0.05068,0.21588 -0.10752,0.41712 -0.18437,0.57081c-0.85682,1.71365 -1.56784,2.93003 -1.71114,4.89443c-0.13279,1.82022 -0.1765,4.50679 1.21114,5.89443c0.70625,0.70625 2.18818,1.18818 2.89443,1.89443c0.09624,0.09624 -0.40737,-0.02992 -0.39443,0.10557c0.03542,0.37099 0.23647,0.73648 0.5,1c0.55444,0.55444 1.26295,0.92962 1.89443,1.39443c1.56798,0.78399 0.89443,3.36149 0.89443,5.71114c0,2.03172 -0.84481,2.87269 -1,5c-0.11251,1.54238 -0.11963,3.10896 -0.0954,4.6781" data-paper-data="{&quot;origPos&quot;:null}" fill="none" stroke="none" stroke-width="NaN" stroke-linecap="none"/><path d="M341.33611,106.33889c0.10486,-0.07086 0.19895,-0.14929 0.24968,-0.25304c0.05986,-0.1224 -0.08375,0.08402 -0.24968,0.25304zM227.50001,106.00007c0,-0.63772 0.20335,-1.0721 0.48036,-1.36797l-0.92064,0.3829c0.96394,-3.85575 3.08461,-6.49818 6.24029,-8.86493c2.18247,-1.56944 4.74501,-2.3378 7,-3.75c0.36839,-0.2307 2.17095,-2.02998 2.53579,-2.06421c0.22707,-0.02131 0.06402,0.8691 0.16421,0.66421c0.29384,-0.60084 0,-2.31933 0,-3c0,-3.02361 0.04366,-6.54447 -0.89737,-9.36754c-1.11096,-3.93122 -2.17728,-10.61343 -0.51685,-14.54667c0.30227,-0.71603 1.68946,-1.69875 2.25,-2.25c2.35251,-2.3135 5.16907,-4.16907 7.5,-6.5c2.54568,-2.3563 6.07686,-4.79992 9.64928,-4.77607c1.8354,0.01225 3.34468,1.3126 4.71493,2.34029c3.44178,2.58133 6.91981,5.39139 9.96421,8.43579c1.91797,1.91797 3.73765,2.63 6.03579,4.06421c3.19023,1.99095 6.28126,4.06243 9.5,6c1.13013,0.6803 2.18586,2.09542 3.28507,2.65971c1.03971,0.53375 2.3252,0.60935 3.40936,1.15143c1.59849,0.79925 3.11583,2.09145 4.59064,2.84857c2.586,1.32757 5.69054,1.63422 8.40936,2.65143c1.39619,0.52237 2.40265,1.73869 3.59064,2.34857c1.87251,0.96129 3.90873,1.34419 5.79392,2.4753c5.70232,3.42139 11.47479,5.37869 17.61544,7.67613c1.59664,0.59736 2.92966,1.68332 4.59064,2.09857c0.8184,0.5684 1.75063,1.00063 2.45521,1.70521c0.60041,0.60041 0.4547,1.64248 0.55971,2.48507c0.28118,2.25614 -0.22418,7.37325 -1.08579,9.41421c-0.46459,1.10053 -1.81368,1.62119 -2.91421,2.08579c-3.01267,1.27181 -8.3966,-1.42245 -10.7,-3.15c-0.38167,-0.28625 -1.10239,-0.68048 -1.58432,-1.08539c-0.5357,0.46398 -1.09493,0.90185 -1.71568,1.23539c-1.44388,0.77582 -5.86451,-0.74071 -7.2,-1.4c-2.81525,-1.38981 -4.88436,-4.36879 -5.4929,-7.36557c-1.64963,1.01235 -3.81251,1.1414 -6.20152,0.55443c-0.50863,-0.12497 -0.91169,-0.51591 -1.37919,-0.7544c-0.56568,2.2238 -1.84554,3.96046 -4.22638,4.96554c-2.1656,0.91422 -8.02036,-1.54184 -9.89443,-2.71115c-2.01997,-1.26034 -2.60763,-2.75724 -3.95557,-4.58885c-0.00614,-0.00834 -0.0125,-0.01667 -0.01907,-0.02497c-2.72587,4.22703 -8.29515,5.69434 -13.02536,3.11382c-1.88524,-1.02847 -3.66992,-2.74194 -5.08752,-4.40826c-0.81945,1.4471 -1.801,2.69681 -3.51806,3.6194c-1.25143,0.67241 -6.17795,0.06397 -7.39443,-0.21115c-1.32499,-0.29966 -2.55544,-1.27072 -3.58531,-2.3612c-0.71963,3.63482 -2.40138,7.04462 -6.02026,8.57235c-1.84338,0.77819 -4.32514,-0.9265 -5.89443,-1.71115c-0.16875,-0.09959 -0.42545,-0.13567 -0.68411,-0.16316c-0.06932,0.28862 -0.14344,0.57591 -0.23118,0.85938c-0.52663,1.70153 -1.29244,3.02399 -2.66129,4.22991c-2.76926,2.43964 -7.98363,2.6754 -10.85027,0.44565l-0.46758,0.23379l-0.44721,-0.89443h-0.76393v-0.25c-0.5,-0.25 -1,-0.75 -1,-1.75z" fill="#568527" stroke="none" stroke-width="0.5" stroke-linecap="butt"/><path d="M280.5,190.00006c0,-1.10457 0.89543,-2 2,-2c1.10457,0 2,0.89543 2,2c0,1.10457 -0.89543,2 -2,2c-1.10457,0 -2,-0.89543 -2,-2z" fill="#ebebeb" stroke="none" stroke-width="0.5" stroke-linecap="butt"/><path d="M300.5,201.50006c0,-1.10457 0.89543,-2 2,-2c1.10457,0 2,0.89543 2,2c0,1.10457 -0.89543,2 -2,2c-1.10457,0 -2,-0.89543 -2,-2z" fill="#ebebeb" stroke="none" stroke-width="0.5" stroke-linecap="butt"/><path d="M295,179.00006c0,-1.10457 0.89543,-2 2,-2c1.10457,0 2,0.89543 2,2c0,1.10457 -0.89543,2 -2,2c-1.10457,0 -2,-0.89543 -2,-2z" fill="#ebebeb" stroke="none" stroke-width="0.5" stroke-linecap="butt"/><path d="M322,197.50006c0,-1.10457 0.89543,-2 2,-2c1.10457,0 2,0.89543 2,2c0,1.10457 -0.89543,2 -2,2c-1.10457,0 -2,-0.89543 -2,-2z" fill="#ebebeb" stroke="none" stroke-width="0.5" stroke-linecap="butt"/><path d="M314.5,183.00006c0,-1.10457 0.89543,-2 2,-2c1.10457,0 2,0.89543 2,2c0,1.10457 -0.89543,2 -2,2c-1.10457,0 -2,-0.89543 -2,-2z" fill="#ebebeb" stroke="none" stroke-width="0.5" stroke-linecap="butt"/><path d="M402,178.00006c0,-1.10457 0.89543,-2 2,-2c1.10457,0 2,0.89543 2,2c0,1.10457 -0.89543,2 -2,2c-1.10457,0 -2,-0.89543 -2,-2z" fill="#ebebeb" stroke="none" stroke-width="0.5" stroke-linecap="butt"/><path d="M417.5,156c0,-1.10457 0.89543,-2 2,-2c1.10457,0 2,0.89543 2,2c0,1.10457 -0.89543,2 -2,2c-1.10457,0 -2,-0.89543 -2,-2z" fill="#ebebeb" stroke="none" stroke-width="0.5" stroke-linecap="butt"/><path d="M440,178.50006c0,-1.10457 0.89543,-2 2,-2c1.10457,0 2,0.89543 2,2c0,1.10457 -0.89543,2 -2,2c-1.10457,0 -2,-0.89543 -2,-2z" fill="#ebebeb" stroke="none" stroke-width="0.5" stroke-linecap="butt"/><path d="M349.5,194.50006c0,-1.10457 0.89543,-2 2,-2c1.10457,0 2,0.89543 2,2c0,1.10457 -0.89543,2 -2,2c-1.10457,0 -2,-0.89543 -2,-2z" fill="#ebebeb" stroke="none" stroke-width="0.5" stroke-linecap="butt"/><path d="M420,173.00006c0,-1.10457 0.89543,-2 2,-2c1.10457,0 2,0.89543 2,2c0,1.10457 -0.89543,2 -2,2c-1.10457,0 -2,-0.89543 -2,-2z" fill="#ebdd25" stroke="none" stroke-width="0.5" stroke-linecap="butt"/><path d="M382,186.00006c0,-1.10457 0.89543,-2 2,-2c1.10457,0 2,0.89543 2,2c0,1.10457 -0.89543,2 -2,2c-1.10457,0 -2,-0.89543 -2,-2z" fill="#ebdd25" stroke="none" stroke-width="0.5" stroke-linecap="butt"/><path d="M338,200.00006c0,-1.10457 0.89543,-2 2,-2c1.10457,0 2,0.89543 2,2c0,1.10457 -0.89543,2 -2,2c-1.10457,0 -2,-0.89543 -2,-2z" fill="#ebdd25" stroke="none" stroke-width="0.5" stroke-linecap="butt"/><path d="M300,190.00006c0,-1.10457 0.89543,-2 2,-2c1.10457,0 2,0.89543 2,2c0,1.10457 -0.89543,2 -2,2c-1.10457,0 -2,-0.89543 -2,-2z" fill="#ebdd25" stroke="none" stroke-width="0.5" stroke-linecap="butt"/><path d="M313,209.00006c0,-1.10457 0.89543,-2 2,-2c1.10457,0 2,0.89543 2,2c0,1.10457 -0.89543,2 -2,2c-1.10457,0 -2,-0.89543 -2,-2z" fill="#ebdd25" stroke="none" stroke-width="0.5" stroke-linecap="butt"/><path d="M5.98273,241.50006c0.37404,0.15686 0.69724,0.37615 0.91176,0.71122c0.70936,1.108 0.773,2.51597 1.10558,3.78886c0.11444,0.43802 0.68084,0.66593 0.78886,1.10557c0.30107,1.22538 0.36177,2.4966 0.22793,3.74032c1.31645,-0.5125 2.37266,-0.84589 3.98322,-0.84589c1.26699,0 4.97308,-0.65745 6,0c1.07703,0.68953 1.91137,1.5666 2.53696,2.56579c2.47445,-2.55104 7.04098,-4.40657 10.46304,-3.56579c2.74085,0.67341 4,1.98808 4,5c0,0.61169 0,1.22339 0,1.83508c1.81377,-0.49173 4.41128,-1.8522 6,-0.83508c1.70493,1.09152 5.27042,4.99551 5.78885,7.10557c0.23081,0.93944 -0.03339,1.95847 0.21115,2.89443c0.20172,0.77207 1.06553,2.58696 1.26519,4.14815c3.54016,-1.37342 6.99693,-1.14815 10.73481,-1.14815c0.46855,0 2.66431,-0.28334 3,0c2.51353,2.12155 3.72364,5.36604 4,8.5c0,2.41622 0.68623,6.49705 -1.21115,8.39443c-1.24452,1.24453 -2.75278,1.60057 -4.13416,2.39392c1.2701,0.4479 2.67069,1.35377 3.23973,1.9228c1.12162,1.12162 1.70542,2.5164 2.39443,3.89443c1.37923,2.75846 2.26908,4.75598 1,7.78885c-0.17194,0.4109 -0.4005,0.72863 -0.66375,0.99098c0.55022,-0.03017 1.07957,-0.02258 1.3749,0.11459c2.15684,1.00178 4.90751,3.22891 6.28885,5.10557c0.86238,1.72476 0.71115,3.5129 0.71115,5.39443c0,2.5756 0.28687,5.40079 0.02255,8.05129c1.4144,-0.45729 4.58483,-1.19811 5.97745,-0.55129c4.92797,2.28888 7.60479,10.32402 7.95942,15.79634c0.3659,0.08693 0.76161,0.20367 1.04058,0.20367c0.57408,0 2.53239,-0.29937 3,0c6.55273,4.19516 7,12.03692 7,19c0,0.33472 0.22453,2.8316 0,3c-3.17382,2.38037 -5.48637,2 -9,2c-10,0 -20,0 -30,0c-14,0 -28,0 -42,0c-13.33333,0 -26.66666,0 -40,0c-5.99699,0 -12.46709,1.7857 -18.32215,3.01372c-7.69533,1.61399 -15.40294,2.96805 -23.15856,4.26066c-3.33111,0.55518 -6.27994,1.88459 -9.56691,2.44434c-0.44826,0.07633 -3.4939,0.73977 -3.95238,0.28129c-2.6017,-2.6017 -2,-4.72388 -2,-8c0,-6 0,-12 0,-18c0,-14.6458 0.15084,-29.29163 -0.32138,-43.93032c-0.46231,-14.33144 -1.26031,-28.55475 -2.36006,-42.85149c-0.02761,-0.35897 -0.05402,-0.71813 -0.07926,-1.07747M62.33667,271.98546c0.23208,0.03627 0.47367,0.07776 0.66334,0.01454c0.23809,-0.07936 -0.26026,-0.03922 -0.66334,-0.01454z" data-paper-data="{&quot;origPos&quot;:null}" fill="#568527" stroke="none" stroke-width="NaN" stroke-linecap="butt"/><path d="M198.00001,119.00007c0,0 4.67981,-1.5718 9.28859,-3.25644c0.93806,2.52413 2.13717,4.99671 2.76373,7.56494c0.52946,2.1702 0.04169,4.58249 0.44852,6.75685c0.27094,1.44805 1.26621,2.95779 0.99914,4.43463c0,0.99304 0.1502,1.94118 0.37949,2.87112c-0.04514,1.38308 -0.09769,3.13121 -0.14796,5.12888c-0.91051,0 -1.82102,0 -2.73153,0c-5.67352,0 -12.96237,1.23232 -18.39366,-0.42535c-3.65212,-0.91303 -6.94355,-1.07215 -10.60634,-1.57465c-1.71425,-0.23518 -3.44089,-1.61274 -5.20943,-1.87171c-2.5784,-0.37757 -5.22743,0.19884 -7.79057,-0.12829c-5.6264,-0.71809 -11.34309,-2.58293 -16.70943,-4.37171c-9.32779,-3.10926 -18.7048,-5.06436 -28.06902,-7.22409l-9.22154,-7.90418l-27,-19l-3,-10v-10l7,-4h8l13,7c0,0 16.08724,11.324 25.74384,16.65178c3.66562,2.02241 4.79547,7.03501 8.60235,8.77701c9.05767,4.14473 23.65381,6.57121 23.65381,6.57121c0,0 6.74695,1.93062 11.06535,2.52626c6.99923,0.96541 17.93465,1.47374 17.93465,1.47374z" data-paper-data="{&quot;origPos&quot;:null}" fill="#636a22" stroke="#000000" stroke-width="0" stroke-linecap="butt"/><path d="M201.64186,166.86614c-0.05645,-0.06502 -0.11681,-0.12469 -0.18399,-0.17472c-0.09017,-0.06715 0.04625,0.03548 0.18399,0.17472zM203.71709,182.68133c0.04156,-0.68628 0.07844,-1.34225 -0.04665,-0.94705c-0.08549,0.27008 0.03792,0.6492 0.04665,0.94705zM205.73679,200.96689c-0.00093,0.05841 -0.00827,0.11406 -0.02385,0.16566c0.10919,-0.16753 0.21835,-0.33254 0.32732,-0.49483c0.08478,-0.12626 -0.11546,0.16938 -0.30346,0.32918zM208.27215,233.90773c-0.03988,-0.12458 -0.05943,-0.17036 -0.01931,-0.05476c0.0062,0.01788 0.01266,0.03614 0.01931,0.05476zM192.9854,263.74539c-0.0514,0.0179 -0.10341,0.0299 -0.1553,0.03493c0.2549,0.11944 0.48536,0.19639 0.66231,0.19639c0.19221,0 -0.22939,-0.08558 -0.50701,-0.23132zM206.41988,139.26719c-0.18757,1.77226 -1.03849,5.08633 -1.92971,6.55234c-0.18416,0.30293 -0.57648,0.44839 -0.91648,0.48258c-0.12417,0.01248 -0.00856,-0.47358 -0.09676,-0.38069c-0.64726,0.68165 -1.08894,2.11194 -1.7362,2.79359c-0.64056,0.67459 -1.43613,1.20365 -2.27307,1.56874c-0.16533,0.07212 -0.2763,-0.55366 -0.37962,-0.39978c-0.12771,0.19021 0.08686,0.57937 0.10106,0.80254c0.2505,0.11355 0.54299,0.14169 0.81542,0.16262c2.13197,0.16378 4.58239,1.1223 4.58239,3.86065c0,2.8471 -0.72732,4.99049 -0.91648,7.72129c-0.03004,0.43368 -0.04492,0.87221 -0.10056,1.30297c0.51048,0.16956 0.87238,0.46371 1.39666,1.19273c2.00108,2.78253 1.45334,5.74325 1.45334,9.08623c-0.21114,1.99506 -0.49011,3.10594 -1.92971,4.62202c-0.2113,0.22252 -0.49413,0.39889 -0.78929,0.46244c1.36142,0.61278 2.68782,1.45443 3.63548,2.63683c0.23463,0.29274 0.02845,2.48486 0,2.89549c-0.26343,3.80301 -3.12666,6.33083 -4.21822,9.77945c-0.36324,-0.0169 -0.71802,0.77035 -0.46093,1.04111c1.69001,1.77979 7.10739,1.93329 6.5121,5.58718c-0.12833,0.78773 -0.21716,1.60524 -0.53686,2.33011c-0.18199,0.41264 -0.51734,0.79104 -0.91648,0.96516c-0.16533,0.07212 -0.2763,-0.55366 -0.37962,-0.39979c-0.51187,0.76234 0.01802,1.88689 -0.19351,2.79359c-0.37549,1.60947 -1.99787,2.73194 -2.55593,3.96254c-0.01881,0.04148 -0.02601,0.0908 -0.02542,0.14489c1.00914,0.20964 1.85083,0.53632 2.77486,0.82027c7.41893,2.27981 2.28212,10.93151 -0.53686,14.8772c-1.09826,1.53722 -4.04553,2.99646 -4.04553,4.42603c-0.08561,-0.06433 -0.18378,-0.11861 -0.28495,-0.17047c0.10275,0.08342 0.20148,0.1475 0.28495,0.17047c0.59114,0.16266 1.22197,0 1.83295,0c3.09901,0 5.40066,-0.28119 7.33183,2.89548c0.75386,1.24007 -0.70468,3.00693 -0.91648,3.86065c-0.15368,0.61947 0.58915,1.41108 0.33164,1.93032c0.50044,0 1.00088,0 1.50132,0c2.65368,0 5.70362,-0.51816 8.05479,1.06705c0.87701,0.5913 1.10999,2.75814 1.10999,3.75875c0,1.84223 -0.55022,3.34951 -0.91648,4.82581c-0.4829,1.94646 0,4.73381 0,6.75612c-0.61098,0.96516 -1.0541,2.07526 -1.83295,2.89549c-0.43203,0.45498 -1.22197,0 -1.83296,0c-2.07497,0 -3.7568,-0.48583 -5.49887,-0.96516c-0.91989,-0.25311 -1.91674,-0.34482 -2.7951,-0.70798c-0.46105,2.39677 -1.88521,4.56862 -4.53673,4.56862c-1.92934,0 -6.75482,-0.27193 -7.32898,-3.04712c-0.00183,0.05577 -0.00285,0.10674 -0.00285,0.15163c0,1.28481 0.09503,2.65654 -0.65175,3.75875c-0.55283,0.81593 -0.61258,2.66424 -1.27796,3.75875c-1.42109,2.33762 -4.64245,0.34906 -6.22184,-0.48258c-0.11983,-0.34528 -0.67813,-0.17582 -1.01323,-0.27879c-0.61698,-0.18959 -1.24601,-0.38211 -1.83296,-0.65969c0,0.2199 0,0.4398 0,0.65969c0,2.33864 0.27961,4.42569 -1.01323,6.55234c-1.12124,1.84438 -5.47289,1.16895 -7.23507,1.16895c-0.13906,-0.29289 -0.62658,0.35012 -0.91648,0.32228c0,0.85773 0,1.71546 0,2.57319c0,1.9957 -0.2186,5.07151 -1.56823,6.65424c-2.18192,2.55878 -6.34133,2.91681 -9.23601,0.96516c-0.28765,-0.19394 -0.42577,-0.60709 -0.45824,-0.96516c-0.01185,-0.13076 0.44968,-0.00901 0.36148,-0.1019c-0.24151,-0.25434 -0.61098,-0.32172 -0.91647,-0.48258c-1.47924,-1.14666 -3.82932,-3.98709 -4.0274,-6.17166c-0.01185,-0.13076 0.44968,-0.00901 0.36148,-0.10189c-1.17709,-1.23962 -2.77712,-0.58697 -4.3423,-0.86043c-0.65663,-0.11473 -3.19099,-1.25653 -3.4659,-1.43149c-3.20802,-2.04157 -2.83803,-7.92021 -1.81752,-11.14439c0.41775,-1.18612 0.9854,-2.98721 1.74109,-4.11726c-1.60641,-0.62831 -3.32225,-2.15348 -4.12635,-3.47619c-0.27436,-0.45131 0,-2.3414 0,-2.89548c0,-2.70281 -0.5096,-6.13849 0.65175,-8.58455c0.19102,-0.40234 0.38456,-0.99926 0.60447,-1.44323c-0.46808,-0.47531 -0.90796,-0.98129 -1.25621,-1.55415c-0.27436,-0.45131 0,-2.3414 0,-2.89548c0,-3.1139 -0.36987,-6.06093 1.92971,-8.48266c1.47496,-1.55331 3.89072,-1.54893 5.63192,-2.09608c-0.4181,-0.29763 -0.80512,-0.6439 -1.14629,-1.00319c-0.43203,-0.45498 0,-1.28689 0,-1.93033c0,-2.61321 -0.11389,-4.93742 1.45334,-7.1559c0.30047,-0.42533 1.84535,-2.05786 2.71249,-2.50732c-0.72939,-0.41185 -1.21724,-0.71414 -1.79601,-1.51892c-1.55692,-2.16492 -1.88441,-4.37686 -1.25983,-7.05402c0.71002,-3.04335 5.47886,-5.50604 7.67518,-7.2578c0.02837,-0.02263 0.05673,-0.04528 0.08512,-0.06794c-2.62521,-2.53507 -4.07941,-6.18308 -3.17791,-10.04716c0.31324,-1.34264 1.90178,-4.80795 3.09279,-5.32748c0.16533,-0.07212 0.2763,0.55366 0.37962,0.39979c0.17638,-0.26269 -0.21601,-0.73768 0,-0.96517c0.15498,-0.16321 0.6634,0.58825 0.53686,0.39979c-0.72862,-1.08516 -1.90933,-1.93889 -2.92832,-2.6543c-3.31821,-2.83744 -4.24488,-8.2704 -2.57056,-12.62268c0.26394,-0.68609 0.74499,-1.38142 1.27145,-1.75989c-0.27364,-0.13656 -0.54207,-0.28263 -0.79507,-0.45702c-2.64012,-1.81977 -2.84619,-3.96236 -2.84619,-7.03492c0,-2.22354 -0.18509,-2.70057 1.83295,-4.82581c0.01414,-0.01489 0.02809,-0.02923 0.04185,-0.04301c0.02187,-0.22723 0.05059,-0.4425 0.08785,-0.62506c-0.01145,-0.00664 -0.02244,-0.01276 -0.03294,-0.01829c-0.3055,-0.16086 -0.61098,-0.32172 -0.91648,-0.48258c-0.78944,-0.41568 -2.09582,-0.8296 -2.74944,-1.44774c-2.66521,-2.52054 -1.92971,-5.47148 -1.92971,-8.96524c0,-1.43121 -0.59107,-4.02492 0.11154,-4.88338c-0.31402,-0.02719 -0.6262,-0.06728 -0.93127,-0.14622c-1.17767,-0.30471 -3.68216,-1.56153 -4.58239,-2.4129c-2.88509,-2.72848 -1.92971,-7.0512 -1.92971,-10.89556c0.0645,-0.60948 0.05457,-1.23289 0.19351,-1.82843c1.09427,-4.69035 5.56483,-2.71733 8.0548,-2.03222c1.16658,0.32098 2.45694,0.38241 3.4724,1.06706c0.28765,0.19394 0.42577,0.6071 0.45824,0.96516c0.01185,0.13076 -0.44969,0.00901 -0.36149,0.1019c0.64726,0.68165 2.00542,1.14678 2.65268,1.82842c0.34712,0.36556 0.27603,1.01711 0.57313,1.42865c0.06797,0.09416 0.37825,0.39574 0.7675,0.77133c0.24373,-1.12225 0.6814,-1.99151 1.69907,-3.06324c2.47107,-2.60233 9.49098,-1.383 11.62395,0.86326c0.43016,0.45301 0.7062,1.01518 0.88077,1.63486c0.37172,0.03865 0.78918,0.19357 1.1457,0.19357c1.45525,0 3.0638,-0.16411 4.48564,0.20378c2.28378,0.59092 4.7884,2.58225 6.39027,4.53605c3.16307,-3.31966 9.78402,-2.41709 13.16059,1.05113h1.6249v2.18566c2.60757,1.40625 2.74944,2.8719 2.74944,5.53562zM197.28447,258.29088c-0.00789,0.12452 -0.01502,0.24448 -0.02028,0.35331c0.11569,-0.32981 0.88188,-0.48247 0.81062,-0.86599c-0.05633,-0.30322 -0.5031,0.4461 -0.79034,0.51268zM203.36588,178.95144c0.04934,0.02083 0.09868,0.04194 0.14799,0.06334c-0.01176,-0.13335 0.02349,-0.34152 -0.03694,-0.27788c-0.04921,0.05182 -0.08404,0.12765 -0.11105,0.21453z" data-paper-data="{&quot;origPos&quot;:null}" fill="#568527" stroke="none" stroke-width="0.5" stroke-linecap="butt"/><path d="M-1.99999,360.00007v-270.30045c0.20975,7.19983 0.52645,12.04571 0.99099,12.86946c0.76223,1.35162 29.00902,13.43101 29.00902,13.43101c0,0 -5.49781,6.19749 -7.89231,11.06154c-3.55439,7.22019 -8.10769,16.93846 -8.10769,16.93846v52c0,0 2.28376,8.64956 5.02558,13.54567c2.72186,4.86046 8.97442,11.45433 8.97442,11.45433c0,0 7.23517,6.71858 11.86605,9.73872c4.34517,2.83381 11.13395,5.26128 11.13395,5.26128c0,0 14.17077,6.69987 16.84027,11.62819c4.67266,8.62643 8.29607,13.9734 11.65826,23.18994c5.24692,14.38302 10.50147,37.18187 10.50147,37.18187l25,38l21,8l49,2l19,-9c0,0 10.09543,-9.91143 18,-14c7.90457,-4.08857 6.98147,-3.09663 11,-1c4.01853,2.09663 35,25 35,25l2.07185,0.10904l1.28881,1.05448l0.07738,0.04003l0.06243,0.06075l3.31916,2.09632l2.20248,1.10124z" data-paper-data="{&quot;origPos&quot;:null}" fill="#8fb669" stroke="#000000" stroke-width="0" stroke-linecap="butt"/><path d="M-1.99999,89.69961c-0.82274,-28.24112 0,-92.69954 0,-92.69954z" data-paper-data="{&quot;origPos&quot;:null}" fill="#8fb669" stroke="#000000" stroke-width="0" stroke-linecap="butt"/><path d="M-1.99999,-3.99994h174.5c0,1.33333 0,2.66666 0,3.99999c0,15.71041 0,31.42084 0,47.13125c-1.93525,0.09146 -4.16491,-0.55701 -7.06492,-1.70848c-10.44634,-4.14781 -8.96579,-6.31658 -18.81516,-11.7314c-9.01485,-4.95603 -6.26654,-6.40253 -15.52229,-10.89262c-4.7106,-2.28517 -20.09763,-6.79874 -20.09763,-6.79874c0,0 -14.62912,-3.2721 -23.9925,-4.0863c-8.58871,-0.74685 -22.0075,0.0863 -22.0075,0.0863c0,0 -10.39523,-0.35845 -17.0487,-0.58788c-4.66415,-0.16084 -14.99506,0.54177 -23.9513,3.58789c-8.95624,3.04612 -16,10 -16,10c0,0 -2,9.75579 -2,16c0,6.24421 3,29 3,29c0,0 4.20015,15.31613 7.5285,23.19908c4.08664,9.67888 11.4715,21.80092 11.4715,21.80092c0,0 -1.81377,2.0446 -3.81148,4.70675c-8.75257,0.20424 -17.55255,0.41354 -26.18852,-0.13926z" data-paper-data="{&quot;origPos&quot;:null}" fill="#636a22" stroke="#000000" stroke-width="0" stroke-linecap="butt"/><path d="M-1.99999,360.00006v-363c0,0 -3.76483,252.71859 0.86605,255.73873c4.34517,2.83381 50.13395,-16.73872 50.13395,-16.73872c0,0 14.17077,6.69987 16.84027,11.62819c4.67266,8.62643 8.29607,13.9734 11.65826,23.18994c5.24692,14.38302 10.50147,37.18187 10.50147,37.18187l25,38l21,8l49,2l19,-9c0,0 10.09543,-9.91143 18,-14c7.90457,-4.08857 2.87074,29.97064 7.7945,28.36846c1.64125,-0.53406 -229.7945,-1.36847 -229.7945,-1.36847z" data-paper-data="{&quot;origPos&quot;:null}" fill="#636a22" stroke="#000000" stroke-width="0" stroke-linecap="round"/><path d="M235.47613,261.82c1.15841,0.65388 1.44145,2.11042 0.15954,3.06785c-0.5368,0.40092 -2.95687,0 -3.66476,0c-1.13789,0 -2.80406,0.2894 -3.83391,-0.22552c-0.97724,-0.48862 -0.36011,-1.62922 0.23083,-2.39089l-0.0375,-0.0375l0.22686,-0.22686l-0.08033,-0.16066l0.28009,-0.14004c-0.0579,-0.30818 -0.02794,-0.63334 -0.02794,-1.0471c0,-1.18342 0.29445,-2.22231 0.43969,-3.37865c0.04908,-0.39072 0.01251,-0.71017 0.00958,-1.01545c-0.00074,0.00013 -0.00149,0.00026 -0.00223,0.00039c-0.28518,0.0493 -0.42407,-0.39422 -0.64438,-0.58191c-0.69145,-0.58908 -1.1803,-1.63267 -0.41277,-2.4002c1.57136,-0.96987 4.6738,-0.23561 6.5301,-0.23561c0.87051,0 1.30129,-0.14823 1.9565,0.70055c0.30524,0.39542 -0.50088,1.54577 -0.97247,2.02579c0.58386,1.17307 -0.28218,2.79887 -0.13832,4.03937c0,0.46984 0,0.93968 0,1.40952c0,0 -0.00228,0.53511 -0.01858,0.59691zM234.93756,255.0255c0.14608,-0.19504 0.29415,-0.54461 0.38044,-0.80765c-0.22161,-0.00656 -0.47774,-0.04234 -0.66901,-0.04234c-1.29694,0 -2.6846,-0.1907 -3.94667,-0.14095c-0.4421,0.01743 -1.98482,-0.00284 -1.78609,0.04629c-0.26601,0.26601 0.05557,0.47548 0.50495,0.85362c0.21963,-0.21855 0.55724,-0.41753 0.74709,-0.41753c0.9205,0 1.81837,0.36333 2.78929,0.36333c0.47176,0 1.59022,-0.10432 1.97333,0.14095c0.00223,0.00143 0.00445,0.00285 0.00666,0.00428zM233.0255,255.76936c-0.56207,-0.02293 -1.24104,0.19885 -1.29393,-0.05165c-0.00008,-0.00036 -0.33729,3.85321 -0.33729,4.9416c0,0.20792 0.05858,0.58475 0.03799,0.84567c0.42696,-0.00087 0.85748,-0.01582 1.28446,-0.00298l0.03343,-0.13372c-0.11089,-0.15147 0.05364,-1.31597 0.05364,-1.55469c0,-1.12278 -0.2292,-2.95382 0.2217,-4.04423zM233.86687,261.43656c0.21847,0.01088 0.44292,0.0338 0.67745,0.07468l-0.17723,-0.28812c0,-0.46984 0,-0.93968 0,-1.40952c0.0376,-0.93513 0.26911,-2.86541 0.2814,-3.8172c-0.19762,0.74921 -0.83549,-0.45238 -0.76832,0.12681c0,0.31652 -0.00444,3.46091 -0.20502,3.66476c-0.07903,0.08031 0.25906,1.58619 0.19173,1.64859zM229.47066,262.69601c-0.21186,0.23017 -0.36143,0.43687 -0.51929,0.75259c-0.09397,0.18794 -0.39611,0.74018 -0.2819,0.56381c0.24829,-0.38344 2.08831,-0.25214 3.30143,-0.25214c0.84571,0 1.69143,0 2.53714,0c0.2479,0 0.4958,0 0.7437,0c-0.13166,-0.19582 0.16196,-0.47531 0.10201,-0.70476c-0.07516,-0.28766 -0.37987,-0.3157 -0.70055,-0.36921c-1.40599,-0.3515 -2.27797,-0.05364 -3.66897,-0.05364c-0.18735,0 -1.10371,0.12383 -1.51357,0.06336zM229.77393,255.94351c0.01118,0.39857 0.18885,1.90554 0.11069,2.17445c-0.22915,0.78847 -0.00101,3.32594 -0.00101,3.32594l0.76096,-0.06999c0,0 0.00649,-0.66577 0.00649,-0.71459c0,-0.46984 0,-0.93968 0,-1.40952c0.03017,-0.75024 -0.07479,-1.42109 0.07174,-2.15572c0.03989,-0.19998 0.06178,-0.82873 0.05833,-1.06029c-0.18242,0.00001 -0.9287,-0.12647 -1.0072,-0.09027z" data-paper-data="{&quot;origPos&quot;:null}" fill="#636a22" stroke="none" stroke-width="0.5" stroke-linecap="butt"/><path d="M252.14279,265.15335c1.15841,0.65389 1.44145,2.11043 0.15954,3.06786c-0.5368,0.40092 -2.95686,0 -3.66476,0c-1.13789,0 -2.80406,0.2894 -3.8339,-0.22553c-0.97725,-0.48862 -0.36011,-1.62922 0.23082,-2.39088l-0.0375,-0.0375l0.22686,-0.22686l-0.08033,-0.16066l0.28008,-0.14004c-0.0579,-0.30818 -0.02794,-0.63334 -0.02794,-1.0471c0,-1.18342 0.29445,-2.22231 0.43969,-3.37865c0.04907,-0.39072 0.01251,-0.71017 0.00958,-1.01544c-0.00074,0.00013 -0.00149,0.00025 -0.00223,0.00038c-0.28519,0.0493 -0.42407,-0.39423 -0.64438,-0.58191c-0.69145,-0.58908 -1.18029,-1.63267 -0.41276,-2.4002c1.57136,-0.96986 4.6738,-0.23561 6.5301,-0.23561c0.87051,0 1.30128,-0.14823 1.9565,0.70055c0.30524,0.39542 -0.50088,1.54577 -0.97247,2.02579c0.58385,1.17307 -0.28217,2.79888 -0.13832,4.03938c0,0.46984 0,0.93968 0,1.40952c0,0 -0.00228,0.53511 -0.01859,0.59691zM251.60423,258.35883c0.14608,-0.19504 0.29415,-0.5446 0.38044,-0.80765c-0.22162,-0.00656 -0.47774,-0.04234 -0.66901,-0.04234c-1.29694,0 -2.6846,-0.1907 -3.94667,-0.14096c-0.4421,0.01743 -1.98481,-0.00284 -1.78609,0.04629c-0.26601,0.26601 0.05557,0.47548 0.50495,0.85362c0.21963,-0.21855 0.55724,-0.41753 0.7471,-0.41753c0.92049,0 1.81837,0.36334 2.78928,0.36334c0.47176,0 1.59023,-0.10432 1.97334,0.14095c0.00223,0.00142 0.00445,0.00285 0.00666,0.00428zM249.69217,259.10267c-0.56207,-0.02292 -1.24104,0.19885 -1.29394,-0.05166c-0.00008,-0.00036 -0.33729,3.85322 -0.33729,4.94161c0,0.20792 0.05858,0.58475 0.03798,0.84567c0.42696,-0.00087 0.85748,-0.01582 1.28446,-0.00298l0.03343,-0.13373c-0.11088,-0.15148 0.05364,-1.31596 0.05364,-1.55468c0,-1.12278 -0.22919,-2.95382 0.22171,-4.04424zM250.53354,264.76989c0.21848,0.01088 0.44291,0.0338 0.67745,0.07468l-0.17723,-0.28812c0,-0.46984 0,-0.93968 0,-1.40952c0.0376,-0.93513 0.26912,-2.86541 0.2814,-3.81721c-0.19762,0.74921 -0.83549,-0.45238 -0.76833,0.12682c0,0.31652 -0.00444,3.46091 -0.20503,3.66476c-0.07903,0.08031 0.25906,1.5862 0.19173,1.64859zM246.13733,266.02932c-0.21186,0.23017 -0.36142,0.43687 -0.51928,0.75259c-0.09396,0.18793 -0.39612,0.74018 -0.28191,0.56381c0.2483,-0.38344 2.08831,-0.25214 3.30143,-0.25214c0.84572,0 1.69143,0 2.53715,0c0.2479,0 0.4958,0 0.7437,0c-0.13166,-0.19582 0.16196,-0.47531 0.10201,-0.70476c-0.07516,-0.28766 -0.37986,-0.3157 -0.70055,-0.36921c-1.40598,-0.35149 -2.27796,-0.05365 -3.66897,-0.05365c-0.18734,0 -1.10371,0.12383 -1.51358,0.06337zM246.4406,259.27682c0.01119,0.39857 0.18884,1.90554 0.11069,2.17445c-0.22915,0.78847 -0.001,3.32594 -0.001,3.32594l0.76096,-0.06999c0,0 0.0065,-0.66576 0.0065,-0.71459c0,-0.46984 0,-0.93969 0,-1.40953c0.03017,-0.75025 -0.0748,-1.42109 0.07174,-2.15572c0.03989,-0.19998 0.06178,-0.82873 0.05833,-1.06029c-0.18242,0.00001 -0.92871,-0.12647 -1.0072,-0.09027z" data-paper-data="{&quot;origPos&quot;:null}" fill="#636a22" stroke="none" stroke-width="0.5" stroke-linecap="butt"/><path d="M272.80946,274.82c1.15841,0.65389 1.44145,2.11043 0.15954,3.06786c-0.5368,0.40092 -2.95686,0 -3.66476,0c-1.13789,0 -2.80406,0.2894 -3.83391,-0.22553c-0.97724,-0.48862 -0.36011,-1.62922 0.23082,-2.39088l-0.03749,-0.0375l0.22686,-0.22686l-0.08033,-0.16066l0.28008,-0.14004c-0.0579,-0.30818 -0.02794,-0.63334 -0.02794,-1.0471c0,-1.18342 0.29445,-2.22231 0.43969,-3.37865c0.04908,-0.39072 0.01251,-0.71017 0.00958,-1.01544c-0.00074,0.00013 -0.00149,0.00025 -0.00223,0.00038c-0.28519,0.0493 -0.42407,-0.39423 -0.64438,-0.58191c-0.69145,-0.58908 -1.1803,-1.63267 -0.41276,-2.4002c1.57135,-0.96986 4.6738,-0.23561 6.5301,-0.23561c0.87051,0 1.30129,-0.14823 1.9565,0.70055c0.30524,0.39542 -0.50088,1.54577 -0.97247,2.02579c0.58386,1.17307 -0.28217,2.79888 -0.13831,4.03938c0,0.46984 0,0.93968 0,1.40952c0,0 -0.00228,0.53511 -0.01858,0.59691zM272.2709,268.02547c0.14609,-0.19504 0.29415,-0.5446 0.38044,-0.80765c-0.22161,-0.00656 -0.47774,-0.04234 -0.66901,-0.04234c-1.29694,0 -2.6846,-0.1907 -3.94667,-0.14096c-0.4421,0.01743 -1.98481,-0.00284 -1.78609,0.04629c-0.26601,0.26601 0.05557,0.47548 0.50495,0.85362c0.21963,-0.21855 0.55724,-0.41753 0.74709,-0.41753c0.9205,0 1.81837,0.36334 2.78929,0.36334c0.47175,0 1.59023,-0.10432 1.97334,0.14095c0.00223,0.00142 0.00445,0.00285 0.00666,0.00428zM270.35884,268.76937c-0.56207,-0.02292 -1.24104,0.19885 -1.29393,-0.05166c-0.00008,-0.00036 -0.33729,3.85322 -0.33729,4.94161c0,0.20792 0.05858,0.58475 0.03799,0.84567c0.42696,-0.00087 0.85748,-0.01582 1.28446,-0.00298l0.03343,-0.13373c-0.11088,-0.15148 0.05364,-1.31596 0.05364,-1.55468c0,-1.12278 -0.2292,-2.95382 0.2217,-4.04424zM271.20021,274.43656c0.21848,0.01088 0.44292,0.0338 0.67745,0.07468l-0.17723,-0.28812c0,-0.46984 0,-0.93968 0,-1.40952c0.0376,-0.93513 0.26912,-2.86541 0.2814,-3.81721c-0.19763,0.74921 -0.83549,-0.45238 -0.76833,0.12682c0,0.31652 -0.00444,3.46091 -0.20503,3.66476c-0.07903,0.08031 0.25906,1.5862 0.19173,1.64859zM266.80399,275.69601c-0.21186,0.23017 -0.36142,0.43687 -0.51929,0.75259c-0.09396,0.18793 -0.39612,0.74018 -0.2819,0.56381c0.2483,-0.38344 2.08831,-0.25214 3.30143,-0.25214c0.84571,0 1.69143,0 2.53715,0c0.2479,0 0.4958,0 0.7437,0c-0.13166,-0.19582 0.16196,-0.47531 0.10201,-0.70476c-0.07516,-0.28766 -0.37986,-0.3157 -0.70055,-0.36921c-1.40598,-0.35149 -2.27796,-0.05365 -3.66897,-0.05365c-0.18734,0 -1.10371,0.12383 -1.51358,0.06337zM267.10727,268.94351c0.01119,0.39857 0.18884,1.90554 0.11069,2.17445c-0.22915,0.78847 -0.00101,3.32594 -0.00101,3.32594l0.76096,-0.06999c0,0 0.00649,-0.66576 0.00649,-0.71459c0,-0.46984 0,-0.93969 0,-1.40953c0.03017,-0.75025 -0.0748,-1.42109 0.07173,-2.15572c0.03989,-0.19998 0.06178,-0.82873 0.05833,-1.06029c-0.18243,0.00001 -0.9287,-0.12647 -1.0072,-0.09027z" data-paper-data="{&quot;origPos&quot;:null}" fill="#636a22" stroke="none" stroke-width="0.5" stroke-linecap="butt"/><path d="M284.14279,288.82c1.15841,0.65389 1.44145,2.11043 0.15954,3.06786c-0.5368,0.40092 -2.95686,0 -3.66476,0c-1.13789,0 -2.80406,0.2894 -3.83391,-0.22553c-0.97724,-0.48862 -0.36011,-1.62922 0.23082,-2.39088l-0.03749,-0.0375l0.22686,-0.22686l-0.08033,-0.16066l0.28008,-0.14004c-0.0579,-0.30818 -0.02794,-0.63334 -0.02794,-1.0471c0,-1.18342 0.29445,-2.22231 0.43969,-3.37865c0.04908,-0.39072 0.01251,-0.71017 0.00958,-1.01544c-0.00074,0.00013 -0.00149,0.00025 -0.00223,0.00038c-0.28518,0.0493 -0.42407,-0.39423 -0.64437,-0.58191c-0.69145,-0.58908 -1.1803,-1.63267 -0.41277,-2.4002c1.57136,-0.96986 4.6738,-0.23561 6.5301,-0.23561c0.87051,0 1.30129,-0.14823 1.9565,0.70055c0.30524,0.39542 -0.50088,1.54577 -0.97247,2.02579c0.58386,1.17307 -0.28217,2.79888 -0.13831,4.03938c0,0.46984 0,0.93968 0,1.40952c0,0 -0.00228,0.53511 -0.01859,0.59691zM283.60423,282.02547c0.14608,-0.19504 0.29415,-0.5446 0.38044,-0.80765c-0.22161,-0.00656 -0.47774,-0.04234 -0.66901,-0.04234c-1.29694,0 -2.6846,-0.1907 -3.94666,-0.14096c-0.4421,0.01743 -1.98482,-0.00284 -1.78609,0.04629c-0.26601,0.26601 0.05557,0.47548 0.50495,0.85362c0.21963,-0.21855 0.55724,-0.41753 0.7471,-0.41753c0.9205,0 1.81837,0.36334 2.78929,0.36334c0.47175,0 1.59023,-0.10432 1.97334,0.14095c0.00222,0.00142 0.00445,0.00285 0.00666,0.00428zM281.69217,282.76936c-0.56208,-0.02292 -1.24104,0.19885 -1.29394,-0.05166c-0.00008,-0.00036 -0.33729,3.85322 -0.33729,4.94161c0,0.20792 0.05858,0.58475 0.03798,0.84567c0.42696,-0.00087 0.85748,-0.01582 1.28446,-0.00298l0.03344,-0.13373c-0.11089,-0.15148 0.05364,-1.31596 0.05364,-1.55468c0,-1.12278 -0.2292,-2.95382 0.22171,-4.04424zM282.53354,288.43656c0.21848,0.01088 0.44291,0.0338 0.67745,0.07468l-0.17723,-0.28812c0,-0.46984 0,-0.93968 0,-1.40952c0.0376,-0.93513 0.26911,-2.86541 0.2814,-3.81721c-0.19763,0.74921 -0.83549,-0.45238 -0.76833,0.12682c0,0.31652 -0.00444,3.46091 -0.20502,3.66476c-0.07903,0.08031 0.25906,1.5862 0.19173,1.64859zM278.13733,289.69601c-0.21186,0.23017 -0.36142,0.43687 -0.51928,0.75259c-0.09397,0.18793 -0.39612,0.74018 -0.28191,0.56381c0.2483,-0.38344 2.08831,-0.25214 3.30143,-0.25214c0.84572,0 1.69143,0 2.53715,0c0.2479,0 0.4958,0 0.7437,0c-0.13166,-0.19582 0.16196,-0.47531 0.10201,-0.70476c-0.07516,-0.28766 -0.37986,-0.3157 -0.70055,-0.36921c-1.40598,-0.35149 -2.27796,-0.05365 -3.66897,-0.05365c-0.18734,0 -1.10371,0.12383 -1.51358,0.06337zM278.4406,282.94351c0.01119,0.39857 0.18884,1.90554 0.11069,2.17445c-0.22915,0.78847 -0.00101,3.32594 -0.00101,3.32594l0.76096,-0.06999c0,0 0.00649,-0.66576 0.00649,-0.71459c0,-0.46984 0,-0.93969 0,-1.40953c0.03017,-0.75025 -0.0748,-1.42109 0.07174,-2.15572c0.03989,-0.19998 0.06178,-0.82873 0.05833,-1.06029c-0.18243,0.00001 -0.92871,-0.12647 -1.00721,-0.09027z" data-paper-data="{&quot;origPos&quot;:null}" fill="#636a22" stroke="none" stroke-width="0.5" stroke-linecap="butt"/><path d="M215.14279,264.4867c1.15842,0.65389 1.44145,2.11043 0.15954,3.06786c-0.5368,0.40092 -2.95686,0 -3.66476,0c-1.13789,0 -2.80406,0.2894 -3.8339,-0.22553c-0.97725,-0.48862 -0.36011,-1.62922 0.23082,-2.39088l-0.0375,-0.0375l0.22686,-0.22686l-0.08033,-0.16066l0.28008,-0.14004c-0.0579,-0.30818 -0.02794,-0.63334 -0.02794,-1.0471c0,-1.18342 0.29445,-2.22231 0.43969,-3.37865c0.04907,-0.39072 0.01251,-0.71017 0.00958,-1.01544c-0.00074,0.00013 -0.00149,0.00025 -0.00223,0.00038c-0.28519,0.0493 -0.42407,-0.39423 -0.64438,-0.58191c-0.69145,-0.58908 -1.18029,-1.63267 -0.41276,-2.4002c1.57136,-0.96986 4.6738,-0.23561 6.5301,-0.23561c0.87051,0 1.30128,-0.14823 1.9565,0.70055c0.30524,0.39542 -0.50088,1.54577 -0.97247,2.02579c0.58385,1.17307 -0.28217,2.79888 -0.13832,4.03938c0,0.46984 0,0.93968 0,1.40952c0,0 -0.00228,0.53511 -0.01859,0.59691zM214.60423,257.69216c0.14608,-0.19504 0.29415,-0.5446 0.38044,-0.80765c-0.22162,-0.00656 -0.47774,-0.04234 -0.66901,-0.04234c-1.29694,0 -2.6846,-0.1907 -3.94667,-0.14096c-0.4421,0.01743 -1.98481,-0.00284 -1.78609,0.04629c-0.26601,0.26601 0.05557,0.47548 0.50495,0.85362c0.21963,-0.21855 0.55724,-0.41753 0.7471,-0.41753c0.92049,0 1.81837,0.36334 2.78928,0.36334c0.47176,0 1.59023,-0.10432 1.97334,0.14095c0.00223,0.00142 0.00445,0.00285 0.00666,0.00428zM212.69217,258.43602c-0.56207,-0.02292 -1.24104,0.19885 -1.29394,-0.05166c-0.00008,-0.00036 -0.33729,3.85322 -0.33729,4.94161c0,0.20792 0.05858,0.58475 0.03798,0.84567c0.42696,-0.00087 0.85748,-0.01582 1.28446,-0.00298l0.03343,-0.13373c-0.11088,-0.15148 0.05364,-1.31596 0.05364,-1.55468c0,-1.12278 -0.22919,-2.95382 0.22171,-4.04424zM213.53354,264.10321c0.21848,0.01088 0.44291,0.0338 0.67745,0.07468l-0.17723,-0.28812c0,-0.46984 0,-0.93968 0,-1.40952c0.0376,-0.93513 0.26912,-2.86541 0.2814,-3.81721c-0.19762,0.74921 -0.83549,-0.45238 -0.76833,0.12682c0,0.31652 -0.00444,3.46091 -0.20503,3.66476c-0.07903,0.08031 0.25906,1.5862 0.19173,1.64859zM209.13733,265.36268c-0.21186,0.23017 -0.36142,0.43687 -0.51928,0.75259c-0.09396,0.18793 -0.39612,0.74018 -0.28191,0.56381c0.2483,-0.38344 2.08831,-0.25214 3.30143,-0.25214c0.84572,0 1.69143,0 2.53715,0c0.2479,0 0.4958,0 0.7437,0c-0.13166,-0.19582 0.16196,-0.47531 0.10201,-0.70476c-0.07516,-0.28766 -0.37986,-0.3157 -0.70055,-0.36921c-1.40598,-0.35149 -2.27796,-0.05365 -3.66897,-0.05365c-0.18734,0 -1.10371,0.12383 -1.51358,0.06337zM209.4406,258.61018c0.01119,0.39857 0.18884,1.90554 0.11069,2.17445c-0.22915,0.78847 -0.001,3.32594 -0.001,3.32594l0.76096,-0.06999c0,0 0.0065,-0.66576 0.0065,-0.71459c0,-0.46984 0,-0.93969 0,-1.40953c0.03017,-0.75025 -0.0748,-1.42109 0.07174,-2.15572c0.03989,-0.19998 0.06178,-0.82873 0.05833,-1.06029c-0.18242,0.00001 -0.92871,-0.12647 -1.0072,-0.09027z" data-paper-data="{&quot;origPos&quot;:null}" fill="#636a22" stroke="none" stroke-width="0.5" stroke-linecap="butt"/><path d="M299.80946,287.15335c1.15841,0.65389 1.44145,2.11043 0.15954,3.06786c-0.5368,0.40092 -2.95686,0 -3.66476,0c-1.13789,0 -2.80406,0.2894 -3.83391,-0.22553c-0.97724,-0.48862 -0.36011,-1.62922 0.23082,-2.39088l-0.03749,-0.0375l0.22686,-0.22686l-0.08033,-0.16066l0.28008,-0.14004c-0.0579,-0.30818 -0.02794,-0.63334 -0.02794,-1.0471c0,-1.18342 0.29445,-2.22231 0.43969,-3.37865c0.04908,-0.39072 0.01251,-0.71017 0.00958,-1.01544c-0.00074,0.00013 -0.00149,0.00025 -0.00223,0.00038c-0.28519,0.0493 -0.42407,-0.39423 -0.64438,-0.58191c-0.69145,-0.58908 -1.1803,-1.63267 -0.41276,-2.4002c1.57135,-0.96986 4.6738,-0.23561 6.5301,-0.23561c0.87051,0 1.30129,-0.14823 1.9565,0.70055c0.30524,0.39542 -0.50088,1.54577 -0.97247,2.02579c0.58386,1.17307 -0.28217,2.79888 -0.13831,4.03938c0,0.46984 0,0.93968 0,1.40952c0,0 -0.00228,0.53511 -0.01858,0.59691zM299.2709,280.35883c0.14609,-0.19504 0.29415,-0.5446 0.38044,-0.80765c-0.22161,-0.00656 -0.47774,-0.04234 -0.66901,-0.04234c-1.29694,0 -2.6846,-0.1907 -3.94667,-0.14096c-0.4421,0.01743 -1.98481,-0.00284 -1.78609,0.04629c-0.26601,0.26601 0.05557,0.47548 0.50495,0.85362c0.21963,-0.21855 0.55724,-0.41753 0.74709,-0.41753c0.9205,0 1.81837,0.36334 2.78929,0.36334c0.47175,0 1.59023,-0.10432 1.97334,0.14095c0.00223,0.00142 0.00445,0.00285 0.00666,0.00428zM297.35884,281.10267c-0.56207,-0.02292 -1.24104,0.19885 -1.29393,-0.05166c-0.00008,-0.00036 -0.33729,3.85322 -0.33729,4.94161c0,0.20792 0.05858,0.58475 0.03799,0.84567c0.42696,-0.00087 0.85748,-0.01582 1.28446,-0.00298l0.03343,-0.13373c-0.11088,-0.15148 0.05364,-1.31596 0.05364,-1.55468c0,-1.12278 -0.2292,-2.95382 0.2217,-4.04424zM298.20021,286.76989c0.21848,0.01088 0.44292,0.0338 0.67745,0.07468l-0.17723,-0.28812c0,-0.46984 0,-0.93968 0,-1.40952c0.0376,-0.93513 0.26912,-2.86541 0.2814,-3.81721c-0.19763,0.74921 -0.83549,-0.45238 -0.76833,0.12682c0,0.31652 -0.00444,3.46091 -0.20503,3.66476c-0.07903,0.08031 0.25906,1.5862 0.19173,1.64859zM293.80399,288.02932c-0.21186,0.23017 -0.36142,0.43687 -0.51929,0.75259c-0.09396,0.18793 -0.39612,0.74018 -0.2819,0.56381c0.2483,-0.38344 2.08831,-0.25214 3.30143,-0.25214c0.84571,0 1.69143,0 2.53715,0c0.2479,0 0.4958,0 0.7437,0c-0.13166,-0.19582 0.16196,-0.47531 0.10201,-0.70476c-0.07516,-0.28766 -0.37986,-0.3157 -0.70055,-0.36921c-1.40598,-0.35149 -2.27796,-0.05365 -3.66897,-0.05365c-0.18734,0 -1.10371,0.12383 -1.51358,0.06337zM294.10727,281.27682c0.01119,0.39857 0.18884,1.90554 0.11069,2.17445c-0.22915,0.78847 -0.00101,3.32594 -0.00101,3.32594l0.76096,-0.06999c0,0 0.00649,-0.66576 0.00649,-0.71459c0,-0.46984 0,-0.93969 0,-1.40953c0.03017,-0.75025 -0.0748,-1.42109 0.07173,-2.15572c0.03989,-0.19998 0.06178,-0.82873 0.05833,-1.06029c-0.18243,0.00001 -0.9287,-0.12647 -1.0072,-0.09027z" data-paper-data="{&quot;origPos&quot;:null}" fill="#636a22" stroke="none" stroke-width="0.5" stroke-linecap="butt"/><path d="M238.97613,348.32003c1.15841,0.65389 1.44145,2.11043 0.15954,3.06786c-0.5368,0.40092 -2.95687,0 -3.66476,0c-1.13789,0 -2.80406,0.2894 -3.83391,-0.22553c-0.97724,-0.48862 -0.36011,-1.62922 0.23082,-2.39088l-0.03749,-0.0375l0.22686,-0.22686l-0.08033,-0.16066l0.28008,-0.14004c-0.0579,-0.30818 -0.02794,-0.63334 -0.02794,-1.0471c0,-1.18342 0.29445,-2.22231 0.43969,-3.37865c0.04908,-0.39072 0.01251,-0.71017 0.00958,-1.01544c-0.00074,0.00013 -0.00149,0.00025 -0.00223,0.00038c-0.28519,0.0493 -0.42407,-0.39423 -0.64438,-0.58191c-0.69145,-0.58908 -1.1803,-1.63267 -0.41276,-2.4002c1.57135,-0.96986 4.6738,-0.23561 6.5301,-0.23561c0.87051,0 1.30129,-0.14823 1.9565,0.70055c0.30524,0.39542 -0.50088,1.54577 -0.97247,2.02579c0.58385,1.17307 -0.28217,2.79888 -0.13832,4.03938c0,0.46984 0,0.93968 0,1.40952c0,0 -0.00228,0.53511 -0.01858,0.59691zM238.43756,341.5255c0.14609,-0.19504 0.29415,-0.5446 0.38044,-0.80765c-0.22162,-0.00656 -0.47775,-0.04234 -0.66901,-0.04234c-1.29694,0 -2.6846,-0.1907 -3.94667,-0.14096c-0.4421,0.01743 -1.98481,-0.00284 -1.78609,0.04629c-0.26601,0.26601 0.05557,0.47548 0.50495,0.85362c0.21963,-0.21855 0.55724,-0.41753 0.74709,-0.41753c0.9205,0 1.81837,0.36334 2.78929,0.36334c0.47175,0 1.59023,-0.10432 1.97333,0.14095c0.00223,0.00142 0.00445,0.00285 0.00666,0.00428zM236.52551,342.26937c-0.56207,-0.02292 -1.24104,0.19885 -1.29393,-0.05166c-0.00008,-0.00036 -0.33729,3.85322 -0.33729,4.94161c0,0.20792 0.05858,0.58475 0.03799,0.84567c0.42696,-0.00087 0.85748,-0.01582 1.28446,-0.00298l0.03343,-0.13373c-0.11088,-0.15148 0.05364,-1.31596 0.05364,-1.55468c0,-1.12278 -0.2292,-2.95382 0.2217,-4.04424zM237.36688,347.93656c0.21847,0.01088 0.44292,0.0338 0.67745,0.07468l-0.17723,-0.28812c0,-0.46984 0,-0.93968 0,-1.40952c0.0376,-0.93513 0.26912,-2.86541 0.2814,-3.81721c-0.19763,0.74921 -0.83549,-0.45238 -0.76833,0.12682c0,0.31652 -0.00444,3.46091 -0.20503,3.66476c-0.07903,0.08031 0.25906,1.5862 0.19173,1.64859zM232.97066,349.19601c-0.21186,0.23017 -0.36142,0.43687 -0.51929,0.75259c-0.09396,0.18793 -0.39612,0.74018 -0.2819,0.56381c0.2483,-0.38344 2.08831,-0.25214 3.30143,-0.25214c0.84571,0 1.69143,0 2.53715,0c0.2479,0 0.4958,0 0.7437,0c-0.13166,-0.19582 0.16196,-0.47531 0.10201,-0.70476c-0.07516,-0.28766 -0.37986,-0.3157 -0.70055,-0.36921c-1.40598,-0.35149 -2.27796,-0.05365 -3.66897,-0.05365c-0.18734,0 -1.10371,0.12383 -1.51358,0.06337zM233.27394,342.44351c0.01119,0.39857 0.18884,1.90554 0.11069,2.17445c-0.22915,0.78847 -0.00101,3.32594 -0.00101,3.32594l0.76096,-0.06999c0,0 0.00649,-0.66576 0.00649,-0.71459c0,-0.46984 0,-0.93969 0,-1.40953c0.03017,-0.75025 -0.0748,-1.42109 0.07173,-2.15572c0.03989,-0.19998 0.06178,-0.82873 0.05833,-1.06029c-0.18243,0.00001 -0.9287,-0.12647 -1.0072,-0.09027z" data-paper-data="{&quot;origPos&quot;:null}" fill="#636a22" stroke="none" stroke-width="0.5" stroke-linecap="butt"/><path d="M253.72613,360.57003c1.15841,0.65389 1.44145,2.11043 0.15954,3.06786c-0.5368,0.40092 -2.95686,0 -3.66476,0c-1.13789,0 -2.80406,0.2894 -3.83391,-0.22553c-0.97724,-0.48862 -0.36011,-1.62922 0.23082,-2.39088l-0.03749,-0.0375l0.22686,-0.22686l-0.08033,-0.16066l0.28008,-0.14004c-0.0579,-0.30818 -0.02794,-0.63334 -0.02794,-1.0471c0,-1.18342 0.29445,-2.22231 0.43969,-3.37865c0.04908,-0.39072 0.01251,-0.71017 0.00958,-1.01544c-0.00074,0.00013 -0.00149,0.00025 -0.00223,0.00038c-0.28519,0.0493 -0.42407,-0.39423 -0.64438,-0.58191c-0.69145,-0.58908 -1.1803,-1.63267 -0.41276,-2.4002c1.57135,-0.96986 4.6738,-0.23561 6.5301,-0.23561c0.87051,0 1.30128,-0.14823 1.9565,0.70055c0.30524,0.39542 -0.50088,1.54577 -0.97247,2.02579c0.58385,1.17307 -0.28217,2.79888 -0.13832,4.03938c0,0.46984 0,0.93968 0,1.40952c0,0 -0.00228,0.53511 -0.01858,0.59691zM253.18756,353.7755c0.14609,-0.19504 0.29415,-0.5446 0.38044,-0.80765c-0.22162,-0.00656 -0.47774,-0.04234 -0.66901,-0.04234c-1.29694,0 -2.6846,-0.1907 -3.94667,-0.14096c-0.4421,0.01743 -1.98481,-0.00284 -1.78609,0.04629c-0.26601,0.26601 0.05557,0.47548 0.50495,0.85362c0.21963,-0.21855 0.55724,-0.41753 0.74709,-0.41753c0.9205,0 1.81837,0.36334 2.78928,0.36334c0.47176,0 1.59023,-0.10432 1.97334,0.14095c0.00223,0.00142 0.00445,0.00285 0.00666,0.00428zM251.2755,354.51937c-0.56207,-0.02292 -1.24104,0.19885 -1.29393,-0.05166c-0.00008,-0.00036 -0.33729,3.85322 -0.33729,4.94161c0,0.20792 0.05858,0.58475 0.03799,0.84567c0.42696,-0.00087 0.85748,-0.01582 1.28446,-0.00298l0.03343,-0.13373c-0.11088,-0.15148 0.05364,-1.31596 0.05364,-1.55468c0,-1.12278 -0.2292,-2.95382 0.2217,-4.04424zM252.11687,360.18656c0.21848,0.01088 0.44292,0.0338 0.67745,0.07468l-0.17723,-0.28812c0,-0.46984 0,-0.93968 0,-1.40952c0.0376,-0.93513 0.26912,-2.86541 0.2814,-3.81721c-0.19763,0.74921 -0.83549,-0.45238 -0.76833,0.12682c0,0.31652 -0.00444,3.46091 -0.20503,3.66476c-0.07903,0.08031 0.25906,1.5862 0.19173,1.64859zM247.72066,361.44601c-0.21186,0.23017 -0.36142,0.43687 -0.51929,0.75259c-0.09396,0.18793 -0.39612,0.74018 -0.2819,0.56381c0.2483,-0.38344 2.08831,-0.25214 3.30143,-0.25214c0.84571,0 1.69143,0 2.53715,0c0.2479,0 0.4958,0 0.7437,0c-0.13166,-0.19582 0.16196,-0.47531 0.10201,-0.70476c-0.07516,-0.28766 -0.37986,-0.3157 -0.70055,-0.36921c-1.40598,-0.35149 -2.27796,-0.05365 -3.66897,-0.05365c-0.18734,0 -1.10371,0.12383 -1.51358,0.06337zM248.02394,354.69351c0.01119,0.39857 0.18884,1.90554 0.11069,2.17445c-0.22915,0.78847 -0.00101,3.32594 -0.00101,3.32594l0.76096,-0.06999c0,0 0.00649,-0.66576 0.00649,-0.71459c0,-0.46984 0,-0.93969 0,-1.40953c0.03017,-0.75025 -0.0748,-1.42109 0.07173,-2.15572c0.03989,-0.19998 0.06178,-0.82873 0.05833,-1.06029c-0.18243,0.00001 -0.9287,-0.12647 -1.0072,-0.09027z" data-paper-data="{&quot;origPos&quot;:null}" fill="#636a22" stroke="none" stroke-width="0.5" stroke-linecap="butt"/><path d="" data-paper-data="{&quot;origPos&quot;:null}" fill="#636a22" stroke="none" stroke-width="0.5" stroke-linecap="butt"/><path d="" data-paper-data="{&quot;origPos&quot;:null}" fill="#636a22" stroke="none" stroke-width="0.5" stroke-linecap="butt"/><path d="" data-paper-data="{&quot;origPos&quot;:null}" fill="#636a22" stroke="none" stroke-width="0.5" stroke-linecap="butt"/><path d="" data-paper-data="{&quot;origPos&quot;:null}" fill="#636a22" stroke="none" stroke-width="0.5" stroke-linecap="butt"/><path d="" data-paper-data="{&quot;origPos&quot;:null}" fill="#636a22" stroke="none" stroke-width="0.5" stroke-linecap="butt"/><path d="" data-paper-data="{&quot;origPos&quot;:null}" fill="#636a22" stroke="none" stroke-width="0.5" stroke-linecap="butt"/><path d="M394.14279,261.82c1.15841,0.65389 1.44145,2.11043 0.15954,3.06786c-0.5368,0.40092 -2.95686,0 -3.66476,0c-1.13789,0 -2.80406,0.2894 -3.83391,-0.22553c-0.97724,-0.48862 -0.36011,-1.62922 0.23082,-2.39088l-0.03749,-0.0375l0.22686,-0.22686l-0.08033,-0.16066l0.28008,-0.14004c-0.0579,-0.30818 -0.02794,-0.63334 -0.02794,-1.0471c0,-1.18342 0.29445,-2.22231 0.43969,-3.37865c0.04908,-0.39072 0.01251,-0.71017 0.00958,-1.01544c-0.00074,0.00013 -0.00149,0.00025 -0.00223,0.00038c-0.28519,0.0493 -0.42407,-0.39423 -0.64438,-0.58191c-0.69145,-0.58908 -1.1803,-1.63267 -0.41276,-2.4002c1.57135,-0.96986 4.6738,-0.23561 6.5301,-0.23561c0.87051,0 1.30129,-0.14823 1.9565,0.70055c0.30524,0.39542 -0.50088,1.54577 -0.97247,2.02579c0.58386,1.17307 -0.28217,2.79888 -0.13831,4.03938c0,0.46984 0,0.93968 0,1.40952c0,0 -0.00228,0.53511 -0.01858,0.59691zM393.60423,255.0255c0.14609,-0.19504 0.29415,-0.5446 0.38044,-0.80765c-0.22161,-0.00656 -0.47774,-0.04234 -0.66901,-0.04234c-1.29694,0 -2.6846,-0.1907 -3.94667,-0.14096c-0.4421,0.01743 -1.98481,-0.00284 -1.78609,0.04629c-0.26601,0.26601 0.05557,0.47548 0.50495,0.85362c0.21963,-0.21855 0.55724,-0.41753 0.74709,-0.41753c0.9205,0 1.81837,0.36334 2.78929,0.36334c0.47175,0 1.59023,-0.10432 1.97334,0.14095c0.00223,0.00142 0.00445,0.00285 0.00666,0.00428zM391.69217,255.76937c-0.56207,-0.02292 -1.24104,0.19885 -1.29393,-0.05166c-0.00008,-0.00036 -0.33729,3.85322 -0.33729,4.94161c0,0.20792 0.05858,0.58475 0.03799,0.84567c0.42696,-0.00087 0.85748,-0.01582 1.28446,-0.00298l0.03343,-0.13373c-0.11088,-0.15148 0.05364,-1.31596 0.05364,-1.55468c0,-1.12278 -0.2292,-2.95382 0.2217,-4.04424zM392.53354,261.43656c0.21848,0.01088 0.44292,0.0338 0.67745,0.07468l-0.17723,-0.28812c0,-0.46984 0,-0.93968 0,-1.40952c0.0376,-0.93513 0.26912,-2.86541 0.2814,-3.81721c-0.19763,0.74921 -0.83549,-0.45238 -0.76833,0.12682c0,0.31652 -0.00444,3.46091 -0.20503,3.66476c-0.07903,0.08031 0.25906,1.5862 0.19173,1.64859zM388.13733,262.69601c-0.21186,0.23017 -0.36142,0.43687 -0.51929,0.75259c-0.09396,0.18793 -0.39612,0.74018 -0.2819,0.56381c0.2483,-0.38344 2.08831,-0.25214 3.30143,-0.25214c0.84571,0 1.69143,0 2.53715,0c0.2479,0 0.4958,0 0.7437,0c-0.13166,-0.19582 0.16196,-0.47531 0.10201,-0.70476c-0.07516,-0.28766 -0.37986,-0.3157 -0.70055,-0.36921c-1.40598,-0.35149 -2.27796,-0.05365 -3.66897,-0.05365c-0.18734,0 -1.10371,0.12383 -1.51358,0.06337zM388.4406,255.94351c0.01119,0.39857 0.18884,1.90554 0.11069,2.17445c-0.22915,0.78847 -0.00101,3.32594 -0.00101,3.32594l0.76096,-0.06999c0,0 0.00649,-0.66576 0.00649,-0.71459c0,-0.46984 0,-0.93969 0,-1.40953c0.03017,-0.75025 -0.0748,-1.42109 0.07173,-2.15572c0.03989,-0.19998 0.06178,-0.82873 0.05833,-1.06029c-0.18243,0.00001 -0.9287,-0.12647 -1.0072,-0.09027z" data-paper-data="{&quot;origPos&quot;:null}" fill="#636a22" stroke="none" stroke-width="0.5" stroke-linecap="butt"/><path d="M393.64683,255.02974c-0.38311,-0.24527 -1.5044,-0.13096 -1.97616,-0.13096c-0.97091,0 -1.96523,-0.38209 -2.88573,-0.38209c-0.18985,0 -0.52688,0.20685 -0.74651,0.42539c-0.44938,-0.37814 -0.77105,-0.60222 -0.50504,-0.86823c-0.19873,-0.04913 1.34644,-0.03879 1.78855,-0.05622c1.26207,-0.04975 2.74632,0.15114 4.04326,0.15114c0.19126,0 0.44763,0.03779 0.66924,0.04435c-0.08629,0.26305 -0.23487,0.62591 -0.38096,0.82095c-0.00222,-0.00143 -0.00443,-0.00291 -0.00666,-0.00433z" data-paper-data="{&quot;noHover&quot;:false,&quot;origItem&quot;:[&quot;Path&quot;,{&quot;applyMatrix&quot;:true,&quot;segments&quot;:[[[393.60423,255.02547],[-0.00222,-0.00143],[0.14609,-0.19504]],[[393.98467,254.21781],[-0.08629,0.26305],[-0.22161,-0.00656]],[[393.31566,254.17548],[0.19126,0],[-1.29694,0]],[[389.369,254.03452],[1.26207,-0.04975],[-0.4421,0.01743]],[[387.58291,254.08081],[-0.19873,-0.04913],[-0.26601,0.26601]],[[388.08785,254.93443],[-0.44938,-0.37814],[0.21963,-0.21855]],[[388.83495,254.5169],[-0.18985,0],[0.9205,0]],[[391.62423,254.88023],[-0.97091,0],[0.47175,0]],[[393.59757,255.02119],[-0.38311,-0.24527],[0.00223,0.00142]]],&quot;closed&quot;:true}]}" fill="#8fb669" stroke="none" stroke-width="0.5" stroke-linecap="butt"/><path d="M392.32104,259.83342c0.20058,-0.20385 0.22055,-3.44345 0.22055,-3.75997c-0.06717,-0.57919 0.5848,0.6229 0.78242,-0.1263c-0.01229,0.9518 -0.24304,2.98036 -0.28064,3.91548c0,0.46984 -0.01385,0.84079 -0.01385,1.31063l0.1884,0.38746c-0.23453,-0.04088 -0.47122,-0.0636 -0.6897,-0.07448c0.06733,-0.06239 -0.28622,-1.57251 -0.20719,-1.65282z" data-paper-data="{&quot;origPos&quot;:null,&quot;noHover&quot;:false,&quot;origItem&quot;:[&quot;Path&quot;,{&quot;applyMatrix&quot;:true,&quot;data&quot;:{&quot;origPos&quot;:null},&quot;segments&quot;:[[[392.53354,261.43653],[0.06733,-0.06239],[0.21848,0.01088]],[[393.21099,261.51121],[-0.23453,-0.04088],[0,0]],[[393.03376,261.22309],[0,0],[0,-0.46984]],[[393.03376,259.81357],[0,0.46984],[0.0376,-0.93513]],[[393.31516,255.99636],[-0.01229,0.9518],[-0.19763,0.74921]],[[392.54683,256.12318],[-0.06717,-0.57919],[0,0.31652]],[[392.34181,259.78794],[0.20058,-0.20385],[-0.07903,0.08031]]],&quot;closed&quot;:true}]}" fill="#8fb669" stroke="none" stroke-width="0.5" stroke-linecap="butt"/><path d="M389.60872,262.6058c1.39101,0 2.35396,-0.28196 3.75994,0.06954c0.32068,0.05352 0.62649,0.08914 0.70165,0.3768c0.05995,0.22945 -0.2341,0.51959 -0.10243,0.71541c-0.2479,0 -0.49616,0.0021 -0.74406,0.0021c-0.84572,0 -1.74388,0.04049 -2.58959,0.04049c-1.21312,0 -3.09863,-0.17046 -3.34693,0.21298c-0.11421,0.17637 0.18685,-0.38385 0.28082,-0.57178c0.15786,-0.31572 0.30864,-0.53642 0.52049,-0.76659c0.40987,0.06047 1.33276,-0.07895 1.52011,-0.07895z" data-paper-data="{&quot;noHover&quot;:false,&quot;origItem&quot;:[&quot;Path&quot;,{&quot;applyMatrix&quot;:true,&quot;segments&quot;:[[[388.13733,262.69598],[0.40987,0.06047],[-0.21186,0.23017]],[[387.61804,263.44857],[0.15786,-0.31572],[-0.09396,0.18793]],[[387.33614,264.01238],[-0.11421,0.17637],[0.2483,-0.38344]],[[390.63757,263.76024],[-1.21312,0],[0.84571,0]],[[393.17471,263.76024],[-0.84572,0],[0.2479,0]],[[393.91841,263.76024],[-0.2479,0],[-0.13166,-0.19582]],[[394.02042,263.05548],[0.05995,0.22945],[-0.07516,-0.28766]],[[393.31987,262.68626],[0.32068,0.05352],[-1.40598,-0.35149]],[[389.6509,262.63262],[1.39101,0],[-0.18734,0]]],&quot;closed&quot;:true}]}" fill="#8fb669" stroke="none" stroke-width="0.5" stroke-linecap="butt"/><path d="M389.45712,255.98466c0.00345,0.23156 -0.01432,0.86127 -0.05421,1.06125c-0.14653,0.73463 -0.02724,1.49522 -0.0574,2.24547c0,0.46984 -0.01844,0.94722 -0.01844,1.41706c0,0.04883 -0.00904,0.715 -0.00904,0.715l-0.77482,0.06995c0,0 -0.24936,-2.62818 -0.02021,-3.41665c0.07815,-0.26891 -0.08022,-1.78384 -0.09141,-2.18241c0.0785,-0.0362 0.84311,0.09034 1.02553,0.09033z" data-paper-data="{&quot;origPos&quot;:null,&quot;noHover&quot;:false,&quot;origItem&quot;:[&quot;Path&quot;,{&quot;applyMatrix&quot;:true,&quot;data&quot;:{&quot;origPos&quot;:null},&quot;segments&quot;:[[[388.4406,255.94348],[0.0785,-0.0362],[0.01119,0.39857]],[[388.55129,258.11793],[0.07815,-0.26891],[-0.22915,0.78847]],[388.55029,261.44387],[389.31125,261.37388],[[389.31774,260.65929],[0,0.04883],[0,-0.46984]],[[389.31774,259.24976],[0,0.46984],[0.03017,-0.75025]],[[389.38948,257.09404],[-0.14653,0.73463],[0.03989,-0.19998]],[[389.44781,256.03376],[0.00345,0.23156],[-0.18243,0.00001]]],&quot;closed&quot;:true}]}" fill="#8fb669" stroke="none" stroke-width="0.5" stroke-linecap="butt"/><path d="M391.49261,259.85841c0,0.23872 -0.17705,1.40745 -0.06617,1.55892l-0.03442,0.13391c-0.42698,-0.01284 -0.87911,0.00115 -1.30607,0.00202c0.02059,-0.26092 -0.04351,-0.63959 -0.04351,-0.84751c0,-1.08839 0.34756,-5.03775 0.34764,-5.03739c0.05289,0.25051 0.75381,0.03 1.31588,0.05293c-0.4509,1.09042 -0.21335,3.01434 -0.21335,4.13712z" data-paper-data="{&quot;origPos&quot;:null,&quot;noHover&quot;:false,&quot;origItem&quot;:[&quot;Path&quot;,{&quot;applyMatrix&quot;:true,&quot;data&quot;:{&quot;origPos&quot;:null},&quot;segments&quot;:[[[391.69217,255.76934],[-0.4509,1.09042],[-0.56207,-0.02292]],[[390.39824,255.71768],[0.05289,0.25051],[-0.00008,-0.00036]],[[390.06095,260.65929],[0,-1.08839],[0,0.20792]],[[390.09893,261.50496],[0.02059,-0.26092],[0.42696,-0.00087]],[[391.38339,261.50198],[-0.42698,-0.01284],[0,0]],[[391.41683,261.36825],[0,0],[-0.11088,-0.15148]],[[391.47047,259.81357],[0,0.23872],[0,-1.12278]]],&quot;closed&quot;:true}]}" fill="#8fb669" stroke="none" stroke-width="0.5" stroke-linecap="butt"/><path d="M21.97613,237.82003c1.15841,0.65389 1.44145,2.11043 0.15954,3.06786c-0.5368,0.40092 -2.95686,0 -3.66476,0c-1.13789,0 -2.80406,0.2894 -3.83391,-0.22553c-0.97724,-0.48862 -0.36011,-1.62922 0.23082,-2.39088l-0.03749,-0.0375l0.22686,-0.22686l-0.08033,-0.16066l0.28008,-0.14004c-0.0579,-0.30818 -0.02794,-0.63334 -0.02794,-1.0471c0,-1.18342 0.29445,-2.22231 0.43969,-3.37865c0.04908,-0.39072 0.01251,-0.71017 0.00958,-1.01544c-0.00074,0.00013 -0.00149,0.00025 -0.00223,0.00038c-0.28519,0.0493 -0.42407,-0.39423 -0.64438,-0.58191c-0.69145,-0.58908 -1.1803,-1.63267 -0.41276,-2.4002c1.57135,-0.96986 4.6738,-0.23561 6.5301,-0.23561c0.87051,0 1.30129,-0.14823 1.9565,0.70055c0.30524,0.39542 -0.50088,1.54577 -0.97247,2.02579c0.58386,1.17307 -0.28217,2.79888 -0.13831,4.03938c0,0.46984 0,0.93968 0,1.40952c0,0 -0.00228,0.53511 -0.01858,0.59691zM21.43757,231.0255c0.14609,-0.19504 0.29415,-0.5446 0.38044,-0.80765c-0.22161,-0.00656 -0.47774,-0.04234 -0.66901,-0.04234c-1.29694,0 -2.6846,-0.1907 -3.94667,-0.14096c-0.4421,0.01743 -1.98481,-0.00284 -1.78609,0.04629c-0.26601,0.26601 0.05557,0.47548 0.50495,0.85362c0.21963,-0.21855 0.55724,-0.41753 0.74709,-0.41753c0.9205,0 1.81837,0.36334 2.78929,0.36334c0.47175,0 1.59023,-0.10432 1.97334,0.14095c0.00223,0.00142 0.00445,0.00285 0.00666,0.00428zM19.52551,231.76937c-0.56207,-0.02292 -1.24104,0.19885 -1.29393,-0.05166c-0.00008,-0.00036 -0.33729,3.85322 -0.33729,4.94161c0,0.20792 0.05858,0.58475 0.03799,0.84567c0.42696,-0.00087 0.85748,-0.01582 1.28446,-0.00298l0.03343,-0.13373c-0.11088,-0.15148 0.05364,-1.31596 0.05364,-1.55468c0,-1.12278 -0.2292,-2.95382 0.2217,-4.04424zM20.36688,237.43656c0.21848,0.01088 0.44292,0.0338 0.67745,0.07468l-0.17723,-0.28812c0,-0.46984 0,-0.93968 0,-1.40952c0.0376,-0.93513 0.26912,-2.86541 0.2814,-3.81721c-0.19763,0.74921 -0.83549,-0.45238 -0.76833,0.12682c0,0.31652 -0.00444,3.46091 -0.20503,3.66476c-0.07903,0.08031 0.25906,1.5862 0.19173,1.64859zM15.97066,238.69601c-0.21186,0.23017 -0.36142,0.43687 -0.51929,0.75259c-0.09396,0.18793 -0.39612,0.74018 -0.2819,0.56381c0.2483,-0.38344 2.08831,-0.25214 3.30143,-0.25214c0.84571,0 1.69143,0 2.53715,0c0.2479,0 0.4958,0 0.7437,0c-0.13166,-0.19582 0.16196,-0.47531 0.10201,-0.70476c-0.07516,-0.28766 -0.37986,-0.3157 -0.70055,-0.36921c-1.40598,-0.35149 -2.27796,-0.05365 -3.66897,-0.05365c-0.18734,0 -1.10371,0.12383 -1.51358,0.06337zM16.27394,231.94351c0.01119,0.39857 0.18884,1.90554 0.11069,2.17445c-0.22915,0.78847 -0.00101,3.32594 -0.00101,3.32594l0.76096,-0.06999c0,0 0.00649,-0.66576 0.00649,-0.71459c0,-0.46984 0,-0.93969 0,-1.40953c0.03017,-0.75025 -0.0748,-1.42109 0.07173,-2.15572c0.03989,-0.19998 0.06178,-0.82873 0.05833,-1.06029c-0.18243,0.00001 -0.9287,-0.12647 -1.0072,-0.09027z" data-paper-data="{&quot;origPos&quot;:null}" fill="#636a22" stroke="none" stroke-width="0.5" stroke-linecap="butt"/><path d="M13.97612,131.82002c1.15841,0.65389 1.44145,2.11043 0.15954,3.06786c-0.5368,0.40092 -2.95687,0 -3.66476,0c-1.13789,0 -2.80406,0.28939 -3.83391,-0.22553c-0.97724,-0.48862 -0.36011,-1.62922 0.23083,-2.39088l-0.0375,-0.0375l0.22686,-0.22686l-0.08033,-0.16066l0.28009,-0.14005c-0.0579,-0.30819 -0.02794,-0.63334 -0.02794,-1.04709c0,-1.18342 0.29444,-2.22232 0.43969,-3.37865c0.04908,-0.39072 0.01251,-0.71017 0.00958,-1.01544c-0.00074,0.00013 -0.00149,0.00026 -0.00223,0.00039c-0.28518,0.0493 -0.42407,-0.39423 -0.64437,-0.58191c-0.69145,-0.58908 -1.1803,-1.63267 -0.41276,-2.4002c1.57135,-0.96986 4.6738,-0.23561 6.5301,-0.23561c0.87051,0 1.30129,-0.14823 1.9565,0.70055c0.30524,0.39542 -0.50088,1.54577 -0.97247,2.02579c0.58385,1.17307 -0.28217,2.79888 -0.13832,4.03938c0,0.46984 0,0.93968 0,1.40952c0,0 -0.00228,0.53511 -0.01859,0.59691zM13.43757,125.0255c0.14608,-0.19503 0.29415,-0.5446 0.38044,-0.80765c-0.22162,-0.00656 -0.47774,-0.04234 -0.66901,-0.04234c-1.29694,0 -2.6846,-0.19071 -3.94666,-0.14096c-0.4421,0.01743 -1.98481,-0.00284 -1.78609,0.04629c-0.26601,0.26601 0.05557,0.47548 0.50495,0.85362c0.21963,-0.21855 0.55724,-0.41753 0.74709,-0.41753c0.9205,0 1.81837,0.36334 2.78929,0.36334c0.47176,0 1.59023,-0.10432 1.97334,0.14095c0.00222,0.00143 0.00445,0.00285 0.00666,0.00428zM11.5255,125.76937c-0.56207,-0.02292 -1.24104,0.19885 -1.29393,-0.05166c-0.00008,-0.00036 -0.33729,3.85322 -0.33729,4.94161c0,0.20792 0.05858,0.58475 0.03799,0.84568c0.42696,-0.00087 0.85748,-0.01582 1.28446,-0.00298l0.03343,-0.13372c-0.11088,-0.15148 0.05364,-1.31597 0.05364,-1.55469c0,-1.12278 -0.2292,-2.95382 0.2217,-4.04423zM12.36687,131.43656c0.21848,0.01088 0.44291,0.0338 0.67745,0.07468l-0.17723,-0.28812c0,-0.46984 0,-0.93968 0,-1.40952c0.0376,-0.93512 0.26911,-2.86541 0.2814,-3.81721c-0.19762,0.7492 -0.83549,-0.45238 -0.76832,0.12681c0,0.31652 -0.00444,3.46091 -0.20503,3.66476c-0.07903,0.08032 0.25906,1.5862 0.19173,1.64859zM7.97066,132.69601c-0.21185,0.23017 -0.36143,0.43687 -0.51929,0.75259c-0.09396,0.18794 -0.39611,0.74018 -0.2819,0.56381c0.2483,-0.38344 2.08831,-0.25215 3.30143,-0.25215c0.84571,0 1.69143,0 2.53714,0c0.2479,0 0.4958,0 0.7437,0c-0.13166,-0.19582 0.16196,-0.47531 0.10201,-0.70476c-0.07516,-0.28766 -0.37987,-0.3157 -0.70055,-0.36921c-1.40598,-0.35149 -2.27796,-0.05365 -3.66897,-0.05365c-0.18734,0 -1.10371,0.12383 -1.51357,0.06337zM8.27393,125.94351c0.01119,0.39857 0.18884,1.90554 0.11069,2.17445c-0.22915,0.78847 -0.00101,3.32593 -0.00101,3.32593l0.76096,-0.06999c0,0 0.0065,-0.66576 0.0065,-0.71459c0,-0.46984 0,-0.93968 0,-1.40953c0.03017,-0.75025 -0.0748,-1.42109 0.07173,-2.15572c0.03989,-0.19998 0.06178,-0.82872 0.05833,-1.06028c-0.18242,0.00001 -0.92871,-0.12647 -1.0072,-0.09028z" data-paper-data="{&quot;origPos&quot;:null}" fill="#636a22" stroke="none" stroke-width="0.5" stroke-linecap="butt"/><path d="M9.47613,213.82003c1.15842,0.65389 1.44145,2.11043 0.15954,3.06786c-0.5368,0.40092 -2.95687,0 -3.66476,0c-1.13789,0 -2.80406,0.28939 -3.83391,-0.22553c-0.97724,-0.48862 -0.36011,-1.62922 0.23083,-2.39088l-0.03749,-0.0375l0.22686,-0.22686l-0.08033,-0.16066l0.28008,-0.14005c-0.0579,-0.30819 -0.02794,-0.63334 -0.02794,-1.04709c0,-1.18342 0.29445,-2.22232 0.43969,-3.37865c0.04907,-0.39072 0.01251,-0.71017 0.00958,-1.01544c-0.00074,0.00013 -0.00149,0.00026 -0.00223,0.00039c-0.28518,0.0493 -0.42407,-0.39423 -0.64437,-0.58191c-0.69145,-0.58908 -1.1803,-1.63267 -0.41277,-2.4002c1.57135,-0.96986 4.6738,-0.23561 6.5301,-0.23561c0.87051,0 1.30129,-0.14823 1.9565,0.70055c0.30524,0.39542 -0.50088,1.54577 -0.97247,2.02579c0.58385,1.17307 -0.28218,2.79888 -0.13832,4.03938c0,0.46984 0,0.93968 0,1.40952c0,0 -0.00228,0.53511 -0.01859,0.59691zM8.93756,207.0255c0.14608,-0.19503 0.29415,-0.5446 0.38044,-0.80765c-0.22161,-0.00656 -0.47774,-0.04234 -0.66901,-0.04234c-1.29694,0 -2.6846,-0.19071 -3.94666,-0.14096c-0.44211,0.01743 -1.98482,-0.00284 -1.78609,0.04629c-0.26601,0.26601 0.05557,0.47548 0.50494,0.85362c0.21963,-0.21855 0.55724,-0.41753 0.74709,-0.41753c0.92049,0 1.81837,0.36334 2.78928,0.36334c0.47176,0 1.59023,-0.10432 1.97334,0.14095c0.00222,0.00143 0.00445,0.00285 0.00666,0.00428zM7.0255,207.76937c-0.56208,-0.02292 -1.24104,0.19885 -1.29393,-0.05166c-0.00007,-0.00036 -0.33729,3.85322 -0.33729,4.94161c0,0.20792 0.05858,0.58475 0.03799,0.84568c0.42696,-0.00087 0.85748,-0.01582 1.28446,-0.00298l0.03344,-0.13372c-0.11088,-0.15148 0.05364,-1.31597 0.05364,-1.55469c0,-1.12278 -0.2292,-2.95382 0.22171,-4.04423zM7.86688,213.43656c0.21848,0.01088 0.44291,0.0338 0.67745,0.07468l-0.17723,-0.28812c0,-0.46984 0,-0.93968 0,-1.40952c0.0376,-0.93512 0.26911,-2.86541 0.2814,-3.81721c-0.19762,0.7492 -0.83549,-0.45238 -0.76832,0.12681c0,0.31652 -0.00444,3.46091 -0.20503,3.66476c-0.07903,0.08032 0.25906,1.5862 0.19174,1.64859zM3.47066,214.69601c-0.21185,0.23017 -0.36143,0.43687 -0.51929,0.75259c-0.09396,0.18794 -0.39611,0.74018 -0.2819,0.56381c0.2483,-0.38344 2.08831,-0.25215 3.30143,-0.25215c0.84571,0 1.69143,0 2.53714,0c0.2479,0 0.4958,0 0.7437,0c-0.13167,-0.19582 0.16196,-0.47531 0.10201,-0.70476c-0.07516,-0.28766 -0.37986,-0.3157 -0.70055,-0.36921c-1.40599,-0.35149 -2.27796,-0.05365 -3.66897,-0.05365c-0.18735,0 -1.10371,0.12383 -1.51357,0.06337zM3.77394,207.94351c0.01119,0.39857 0.18884,1.90554 0.11069,2.17445c-0.22915,0.78847 -0.001,3.32593 -0.001,3.32593l0.76096,-0.06999c0,0 0.00649,-0.66576 0.00649,-0.71459c0,-0.46984 0,-0.93968 0,-1.40953c0.03017,-0.75025 -0.0748,-1.42109 0.07174,-2.15572c0.03989,-0.19998 0.06178,-0.82872 0.05833,-1.06028c-0.18242,0.00001 -0.92871,-0.12647 -1.0072,-0.09028z" data-paper-data="{&quot;origPos&quot;:null}" fill="#636a22" stroke="none" stroke-width="0.5" stroke-linecap="butt"/><path d="M5.97612,158.32002c1.15842,0.65389 1.44145,2.11043 0.15954,3.06786c-0.5368,0.40092 -2.95687,0 -3.66476,0c-1.13789,0 -2.80406,0.28939 -3.83391,-0.22553c-0.97724,-0.48862 -0.36011,-1.62922 0.23083,-2.39088l-0.03749,-0.0375l0.22686,-0.22686l-0.08033,-0.16066l0.28008,-0.14005c-0.0579,-0.30819 -0.02794,-0.63334 -0.02794,-1.04709c0,-1.18342 0.29445,-2.22232 0.43969,-3.37865c0.04907,-0.39072 0.01251,-0.71017 0.00958,-1.01544c-0.00074,0.00013 -0.00149,0.00026 -0.00223,0.00039c-0.28518,0.0493 -0.42407,-0.39423 -0.64437,-0.58191c-0.69145,-0.58908 -1.1803,-1.63267 -0.41277,-2.4002c1.57135,-0.96986 4.6738,-0.23561 6.5301,-0.23561c0.87051,0 1.30129,-0.14823 1.9565,0.70055c0.30524,0.39542 -0.50088,1.54577 -0.97247,2.02579c0.58385,1.17307 -0.28218,2.79888 -0.13832,4.03938c0,0.46984 0,0.93968 0,1.40952c0,0 -0.00228,0.53511 -0.01859,0.59691zM5.43756,151.5255c0.14608,-0.19503 0.29415,-0.5446 0.38044,-0.80765c-0.22161,-0.00656 -0.47774,-0.04234 -0.66901,-0.04234c-1.29694,0 -2.6846,-0.19071 -3.94666,-0.14096c-0.44211,0.01743 -1.98482,-0.00284 -1.78609,0.04629c-0.26601,0.26601 0.05557,0.47548 0.50494,0.85362c0.21963,-0.21855 0.55724,-0.41753 0.74709,-0.41753c0.92049,0 1.81837,0.36334 2.78929,0.36334c0.47176,0 1.59023,-0.10432 1.97334,0.14095c0.00223,0.00143 0.00445,0.00285 0.00666,0.00428zM3.5255,152.26934c-0.56207,-0.02292 -1.24104,0.19885 -1.29393,-0.05166c-0.00008,-0.00036 -0.33729,3.85322 -0.33729,4.94161c0,0.20792 0.05858,0.58475 0.03799,0.84568c0.42696,-0.00087 0.85748,-0.01582 1.28446,-0.00298l0.03344,-0.13372c-0.11089,-0.15148 0.05364,-1.31597 0.05364,-1.55469c0,-1.12278 -0.22919,-2.95382 0.22171,-4.04423zM4.36687,157.93656c0.21848,0.01088 0.44292,0.0338 0.67745,0.07468l-0.17723,-0.28812c0,-0.46984 0,-0.93968 0,-1.40952c0.0376,-0.93512 0.26911,-2.86541 0.2814,-3.81721c-0.19762,0.7492 -0.83549,-0.45238 -0.76832,0.12681c0,0.31652 -0.00444,3.46091 -0.20503,3.66476c-0.07903,0.08032 0.25906,1.5862 0.19174,1.64859zM-0.02934,159.19601c-0.21185,0.23017 -0.36143,0.43687 -0.51929,0.75259c-0.09396,0.18794 -0.39611,0.74018 -0.2819,0.56381c0.2483,-0.38344 2.08831,-0.25215 3.30143,-0.25215c0.84571,0 1.69143,0 2.53714,0c0.2479,0 0.4958,0 0.7437,0c-0.13166,-0.19582 0.16196,-0.47531 0.10201,-0.70476c-0.07516,-0.28766 -0.37987,-0.3157 -0.70055,-0.36921c-1.40599,-0.35149 -2.27796,-0.05365 -3.66897,-0.05365c-0.18734,0 -1.10371,0.12383 -1.51357,0.06337zM0.27393,152.4435c0.01119,0.39857 0.18884,1.90554 0.11069,2.17445c-0.22915,0.78847 -0.001,3.32593 -0.001,3.32593l0.76096,-0.06999c0,0 0.00649,-0.66576 0.00649,-0.71459c0,-0.46984 0,-0.93968 0,-1.40953c0.03017,-0.75025 -0.0748,-1.42109 0.07173,-2.15572c0.03989,-0.19998 0.06178,-0.82872 0.05833,-1.06028c-0.18243,0.00001 -0.92871,-0.12647 -1.0072,-0.09028z" data-paper-data="{&quot;origPos&quot;:null}" fill="#636a22" stroke="none" stroke-width="0.5" stroke-linecap="butt"/><path d="M4.97612,185.82003c1.15842,0.65389 1.44145,2.11043 0.15954,3.06786c-0.5368,0.40092 -2.95687,0 -3.66476,0c-1.13789,0 -2.80406,0.28939 -3.83391,-0.22553c-0.97724,-0.48862 -0.36011,-1.62922 0.23083,-2.39089l-0.03749,-0.0375l0.22686,-0.22686l-0.08033,-0.16066l0.28008,-0.14005c-0.0579,-0.30818 -0.02794,-0.63334 -0.02794,-1.04709c0,-1.18342 0.29445,-2.22232 0.43969,-3.37865c0.04908,-0.39072 0.01251,-0.71017 0.00958,-1.01544c-0.00074,0.00013 -0.00149,0.00026 -0.00223,0.00039c-0.28518,0.0493 -0.42407,-0.39423 -0.64437,-0.58191c-0.69145,-0.58908 -1.1803,-1.63267 -0.41277,-2.4002c1.57135,-0.96986 4.6738,-0.23561 6.5301,-0.23561c0.87051,0 1.30129,-0.14823 1.9565,0.70055c0.30524,0.39542 -0.50088,1.54577 -0.97247,2.02579c0.58385,1.17307 -0.28218,2.79888 -0.13832,4.03938c0,0.46984 0,0.93968 0,1.40952c0,0 -0.00228,0.53511 -0.01859,0.59691zM4.43757,179.0255c0.14608,-0.19503 0.29415,-0.5446 0.38044,-0.80765c-0.22161,-0.00656 -0.47774,-0.04234 -0.66901,-0.04234c-1.29694,0 -2.6846,-0.19071 -3.94666,-0.14096c-0.44211,0.01743 -1.98482,-0.00284 -1.78609,0.04629c-0.26601,0.26601 0.05557,0.47548 0.50494,0.85362c0.21963,-0.21855 0.55724,-0.41753 0.74709,-0.41753c0.9205,0 1.81837,0.36334 2.78929,0.36334c0.47176,0 1.59023,-0.10432 1.97333,0.14095c0.00223,0.00143 0.00445,0.00285 0.00666,0.00428zM2.5255,179.76937c-0.56207,-0.02292 -1.24104,0.19885 -1.29393,-0.05166c-0.00008,-0.00036 -0.33729,3.85322 -0.33729,4.94161c0,0.20792 0.05858,0.58475 0.03799,0.84567c0.42696,-0.00087 0.85748,-0.01582 1.28446,-0.00298l0.03344,-0.13373c-0.11089,-0.15148 0.05364,-1.31597 0.05364,-1.55468c0,-1.12278 -0.22919,-2.95382 0.22171,-4.04423zM3.36688,185.43656c0.21848,0.01088 0.44291,0.0338 0.67745,0.07468l-0.17723,-0.28812c0,-0.46984 0,-0.93968 0,-1.40952c0.0376,-0.93512 0.26911,-2.86541 0.2814,-3.81721c-0.19762,0.7492 -0.83549,-0.45238 -0.76832,0.12681c0,0.31652 -0.00444,3.46091 -0.20503,3.66476c-0.07903,0.08032 0.25906,1.5862 0.19174,1.64859zM-1.02934,186.69601c-0.21185,0.23017 -0.36143,0.43687 -0.51929,0.75259c-0.09396,0.18793 -0.39611,0.74018 -0.2819,0.56381c0.24829,-0.38344 2.08831,-0.25215 3.30143,-0.25215c0.84571,0 1.69143,0 2.53714,0c0.2479,0 0.4958,0 0.7437,0c-0.13166,-0.19582 0.16196,-0.47531 0.10201,-0.70476c-0.07516,-0.28766 -0.37987,-0.3157 -0.70055,-0.36921c-1.40599,-0.35149 -2.27796,-0.05365 -3.66897,-0.05365c-0.18734,0 -1.10371,0.12383 -1.51357,0.06336zM-0.72606,179.94351c0.01119,0.39857 0.18884,1.90554 0.11069,2.17445c-0.22915,0.78847 -0.001,3.32593 -0.001,3.32593l0.76096,-0.06999c0,0 0.00649,-0.66576 0.00649,-0.71459c0,-0.46984 0,-0.93968 0,-1.40953c0.03017,-0.75025 -0.0748,-1.42109 0.07173,-2.15572c0.03989,-0.19998 0.06178,-0.82872 0.05833,-1.06028c-0.18243,0.00001 -0.92871,-0.12647 -1.0072,-0.09028z" data-paper-data="{&quot;origPos&quot;:null}" fill="#636a22" stroke="none" stroke-width="0.5" stroke-linecap="butt"/><path d="M76.47613,177.82003c1.15842,0.65389 1.44145,2.11043 0.15954,3.06786c-0.5368,0.40092 -2.95686,0 -3.66476,0c-1.13789,0 -2.80406,0.28939 -3.83391,-0.22553c-0.97724,-0.48862 -0.36011,-1.62922 0.23082,-2.39089l-0.03749,-0.0375l0.22686,-0.22686l-0.08033,-0.16066l0.28008,-0.14005c-0.0579,-0.30818 -0.02794,-0.63334 -0.02794,-1.04709c0,-1.18342 0.29444,-2.22232 0.43969,-3.37865c0.04908,-0.39072 0.01251,-0.71017 0.00958,-1.01544c-0.00074,0.00013 -0.00149,0.00026 -0.00223,0.00039c-0.28518,0.0493 -0.42407,-0.39423 -0.64437,-0.58191c-0.69145,-0.58908 -1.1803,-1.63267 -0.41276,-2.4002c1.57135,-0.96986 4.6738,-0.23561 6.5301,-0.23561c0.87051,0 1.30129,-0.14823 1.9565,0.70055c0.30524,0.39542 -0.50088,1.54577 -0.97247,2.02579c0.58385,1.17307 -0.28217,2.79888 -0.13832,4.03938c0,0.46984 0,0.93968 0,1.40952c0,0 -0.00228,0.53511 -0.01859,0.59691zM75.93757,171.02549c0.14608,-0.19503 0.29415,-0.5446 0.38044,-0.80765c-0.22161,-0.00656 -0.47774,-0.04234 -0.66901,-0.04234c-1.29694,0 -2.6846,-0.19071 -3.94666,-0.14096c-0.44211,0.01743 -1.98482,-0.00284 -1.78609,0.04629c-0.26601,0.26601 0.05557,0.47548 0.50495,0.85362c0.21963,-0.21855 0.55724,-0.41753 0.74709,-0.41753c0.9205,0 1.81837,0.36334 2.78929,0.36334c0.47176,0 1.59023,-0.10432 1.97334,0.14095c0.00222,0.00142 0.00445,0.00285 0.00666,0.00428zM74.02551,171.76937c-0.56207,-0.02292 -1.24104,0.19885 -1.29393,-0.05166c-0.00008,-0.00036 -0.33729,3.85322 -0.33729,4.94161c0,0.20792 0.05858,0.58475 0.03799,0.84567c0.42696,-0.00087 0.85748,-0.01582 1.28446,-0.00298l0.03343,-0.13373c-0.11088,-0.15148 0.05364,-1.31597 0.05364,-1.55468c0,-1.12278 -0.2292,-2.95382 0.22171,-4.04424zM74.86687,177.43656c0.21848,0.01088 0.44291,0.0338 0.67745,0.07468l-0.17723,-0.28812c0,-0.46984 0,-0.93968 0,-1.40952c0.0376,-0.93513 0.26911,-2.86541 0.2814,-3.81721c-0.19763,0.74921 -0.83549,-0.45238 -0.76832,0.12682c0,0.31652 -0.00444,3.46091 -0.20503,3.66476c-0.07903,0.08031 0.25906,1.5862 0.19173,1.64859zM70.47066,178.69601c-0.21186,0.23017 -0.36143,0.43687 -0.51929,0.75259c-0.09396,0.18793 -0.39611,0.74018 -0.2819,0.56381c0.24829,-0.38344 2.08831,-0.25215 3.30143,-0.25215c0.84571,0 1.69143,0 2.53714,0c0.2479,0 0.4958,0 0.7437,0c-0.13166,-0.19582 0.16196,-0.47531 0.10201,-0.70476c-0.07516,-0.28766 -0.37987,-0.3157 -0.70055,-0.36921c-1.40599,-0.35149 -2.27796,-0.05365 -3.66897,-0.05365c-0.18734,0 -1.10371,0.12383 -1.51357,0.06336zM70.77393,171.94351c0.01119,0.39857 0.18884,1.90554 0.11069,2.17445c-0.22915,0.78847 -0.001,3.32593 -0.001,3.32593l0.76096,-0.06999c0,0 0.00649,-0.66576 0.00649,-0.71459c0,-0.46984 0,-0.93968 0,-1.40952c0.03017,-0.75025 -0.0748,-1.42109 0.07174,-2.15572c0.03989,-0.19998 0.06178,-0.82873 0.05833,-1.06028c-0.18242,0.00001 -0.9287,-0.12647 -1.0072,-0.09028z" data-paper-data="{&quot;origPos&quot;:null}" fill="#636a22" stroke="none" stroke-width="0.5" stroke-linecap="butt"/><path d="M75.98017,171.02974c-0.38311,-0.24527 -1.5044,-0.13096 -1.97616,-0.13096c-0.97092,0 -1.96523,-0.38209 -2.88573,-0.38209c-0.18985,0 -0.52688,0.20685 -0.74651,0.42539c-0.44938,-0.37814 -0.77105,-0.60222 -0.50504,-0.86823c-0.19873,-0.04913 1.34644,-0.03879 1.78855,-0.05622c1.26206,-0.04975 2.74632,0.15114 4.04326,0.15114c0.19127,0 0.44763,0.03779 0.66924,0.04435c-0.08629,0.26305 -0.23487,0.62591 -0.38096,0.82095c-0.00222,-0.00143 -0.00443,-0.00291 -0.00666,-0.00433z" data-paper-data="{&quot;noHover&quot;:false,&quot;origItem&quot;:[&quot;Path&quot;,{&quot;applyMatrix&quot;:true,&quot;segments&quot;:[[[75.93757,171.02546],[-0.00222,-0.00143],[0.14608,-0.19503]],[[76.31801,170.21781],[-0.08629,0.26305],[-0.22161,-0.00656]],[[75.649,170.17547],[0.19127,0],[-1.29694,0]],[[71.70233,170.03452],[1.26206,-0.04975],[-0.44211,0.01743]],[[69.91624,170.08081],[-0.19873,-0.04913],[-0.26601,0.26601]],[[70.42119,170.93443],[-0.44938,-0.37814],[0.21963,-0.21855]],[[71.16828,170.5169],[-0.18985,0],[0.9205,0]],[[73.95757,170.88023],[-0.97092,0],[0.47176,0]],[[75.9309,171.02118],[-0.38311,-0.24527],[0.00222,0.00142]]],&quot;closed&quot;:true}]}" fill="#8fb669" stroke="none" stroke-width="0.5" stroke-linecap="butt"/><path d="M74.65437,175.83345c0.20059,-0.20385 0.22055,-3.44345 0.22055,-3.75997c-0.06717,-0.57919 0.5848,0.6229 0.78242,-0.1263c-0.01228,0.9518 -0.24304,2.98036 -0.28064,3.91548c0,0.46984 -0.01385,0.84079 -0.01385,1.31063l0.1884,0.38746c-0.23454,-0.04088 -0.47122,-0.0636 -0.6897,-0.07448c0.06733,-0.06239 -0.28622,-1.57251 -0.20719,-1.65282z" data-paper-data="{&quot;origPos&quot;:null,&quot;noHover&quot;:false,&quot;origItem&quot;:[&quot;Path&quot;,{&quot;applyMatrix&quot;:true,&quot;data&quot;:{&quot;origPos&quot;:null},&quot;segments&quot;:[[[74.86687,177.43653],[0.06733,-0.06239],[0.21848,0.01088]],[[75.54433,177.51121],[-0.23454,-0.04088],[0,0]],[[75.36709,177.22309],[0,0],[0,-0.46984]],[[75.36709,175.81357],[0,0.46984],[0.0376,-0.93513]],[[75.64849,171.99636],[-0.01228,0.9518],[-0.19763,0.74921]],[[74.88017,172.12318],[-0.06717,-0.57919],[0,0.31652]],[[74.67514,175.78794],[0.20059,-0.20385],[-0.07903,0.08031]]],&quot;closed&quot;:true}]}" fill="#8fb669" stroke="none" stroke-width="0.5" stroke-linecap="butt"/><path d="M71.94205,178.60581c1.39101,0 2.35396,-0.28196 3.75994,0.06954c0.32068,0.05352 0.62649,0.08914 0.70165,0.3768c0.05995,0.22945 -0.2341,0.51959 -0.10243,0.71541c-0.2479,0 -0.49616,0.0021 -0.74406,0.0021c-0.84571,0 -1.74388,0.04049 -2.58959,0.04049c-1.21312,0 -3.09863,-0.17046 -3.34693,0.21298c-0.11421,0.17637 0.18685,-0.38385 0.28082,-0.57178c0.15786,-0.31572 0.30864,-0.53642 0.52049,-0.76659c0.40986,0.06047 1.33276,-0.07895 1.52011,-0.07895z" data-paper-data="{&quot;noHover&quot;:false,&quot;origItem&quot;:[&quot;Path&quot;,{&quot;applyMatrix&quot;:true,&quot;segments&quot;:[[[70.47066,178.69598],[0.40986,0.06047],[-0.21186,0.23017]],[[69.95138,179.44857],[0.15786,-0.31572],[-0.09396,0.18793]],[[69.66947,180.01238],[-0.11421,0.17637],[0.24829,-0.38344]],[[72.9709,179.76023],[-1.21312,0],[0.84571,0]],[[75.50805,179.76023],[-0.84571,0],[0.2479,0]],[[76.25175,179.76023],[-0.2479,0],[-0.13166,-0.19582]],[[76.35376,179.05547],[0.05995,0.22945],[-0.07516,-0.28766]],[[75.65321,178.68626],[0.32068,0.05352],[-1.40599,-0.35149]],[[71.98424,178.63261],[1.39101,0],[-0.18734,0]]],&quot;closed&quot;:true}]}" fill="#8fb669" stroke="none" stroke-width="0.5" stroke-linecap="butt"/><path d="M71.79045,171.98466c0.00345,0.23156 -0.01432,0.86127 -0.05421,1.06125c-0.14654,0.73463 -0.02724,1.49522 -0.0574,2.24547c0,0.46984 -0.01844,0.94722 -0.01844,1.41706c0,0.04883 -0.00904,0.715 -0.00904,0.715l-0.77482,0.06995c0,0 -0.24936,-2.62818 -0.02021,-3.41665c0.07815,-0.26891 -0.08022,-1.78384 -0.09141,-2.18241c0.0785,-0.0362 0.84311,0.09034 1.02553,0.09033z" data-paper-data="{&quot;origPos&quot;:null,&quot;noHover&quot;:false,&quot;origItem&quot;:[&quot;Path&quot;,{&quot;applyMatrix&quot;:true,&quot;data&quot;:{&quot;origPos&quot;:null},&quot;segments&quot;:[[[70.77393,171.94348],[0.0785,-0.0362],[0.01119,0.39857]],[[70.88463,174.11793],[0.07815,-0.26891],[-0.22915,0.78847]],[70.88362,177.44386],[71.64458,177.37387],[[71.65107,176.65929],[0,0.04883],[0,-0.46984]],[[71.65107,175.24976],[0,0.46984],[0.03017,-0.75025]],[[71.72281,173.09404],[-0.14654,0.73463],[0.03989,-0.19998]],[[71.78114,172.03376],[0.00345,0.23156],[-0.18242,0.00001]]],&quot;closed&quot;:true}]}" fill="#8fb669" stroke="none" stroke-width="0.5" stroke-linecap="butt"/><path d="M73.82595,175.85843c0,0.23872 -0.17705,1.40745 -0.06617,1.55892l-0.03442,0.13391c-0.42698,-0.01284 -0.87911,0.00115 -1.30607,0.00202c0.0206,-0.26092 -0.04351,-0.63959 -0.04351,-0.84751c0,-1.08839 0.34756,-5.03775 0.34764,-5.03739c0.05289,0.25051 0.75381,0.03 1.31588,0.05293c-0.4509,1.09042 -0.21335,3.01434 -0.21335,4.13712z" data-paper-data="{&quot;origPos&quot;:null,&quot;noHover&quot;:false,&quot;origItem&quot;:[&quot;Path&quot;,{&quot;applyMatrix&quot;:true,&quot;data&quot;:{&quot;origPos&quot;:null},&quot;segments&quot;:[[[74.02551,171.76934],[-0.4509,1.09042],[-0.56207,-0.02292]],[[72.73157,171.71768],[0.05289,0.25051],[-0.00008,-0.00036]],[[72.39428,176.65929],[0,-1.08839],[0,0.20792]],[[72.43227,177.50496],[0.0206,-0.26092],[0.42696,-0.00087]],[[73.71673,177.50198],[-0.42698,-0.01284],[0,0]],[[73.75016,177.36825],[0,0],[-0.11088,-0.15148]],[[73.8038,175.81357],[0,0.23872],[0,-1.12278]]],&quot;closed&quot;:true}]}" fill="#8fb669" stroke="none" stroke-width="0.5" stroke-linecap="butt"/><path d="" data-paper-data="{&quot;origPos&quot;:null}" fill="#568527" stroke="none" stroke-width="NaN" stroke-linecap="butt"/><path d="M466.10561,199.28892c0.26278,0.06457 0.5304,0.10404 0.80002,0.13167c-0.26962,-0.02763 -0.53724,-0.0671 -0.80002,-0.13167z" data-paper-data="{&quot;origPos&quot;:null}" fill="#568527" stroke="none" stroke-width="NaN" stroke-linecap="butt"/><path d="M473.71118,235.39449c0.03542,0.37099 0.23647,0.73648 0.5,1c-0.26353,-0.26352 -0.46458,-0.62901 -0.5,-1z" data-paper-data="{&quot;origPos&quot;:null}" fill="#568527" stroke="none" stroke-width="NaN" stroke-linecap="butt"/><path d="M476.00004,248.50006c0.15519,-2.12731 1,-2.96828 1,-5c0,2.03172 -0.84481,2.87269 -1,5z" data-paper-data="{&quot;origPos&quot;:null}" fill="#568527" stroke="none" stroke-width="NaN" stroke-linecap="butt"/><path d="" data-paper-data="{&quot;origPos&quot;:null}" fill="#568527" stroke="none" stroke-width="NaN" stroke-linecap="butt"/><path d="M456.00004,180.50006c0,-0.26881 -0.10839,-0.64602 -0.19405,-1.0005c0.08566,0.35448 0.19405,0.73169 0.19405,1.0005z" data-paper-data="{&quot;origPos&quot;:null}" fill="#568527" stroke="none" stroke-width="NaN" stroke-linecap="butt"/><path d="M344.86778,115.10156c0.03755,0.0357 0.05631,0.09623 0.0634,0.16878c-0.051,-0.09551 -0.1298,-0.19537 -0.23131,-0.30334c0.06057,0.04153 0.11687,0.08604 0.16791,0.13456z" data-paper-data="{&quot;origPos&quot;:null}" fill="#568527" stroke="none" stroke-width="0.5" stroke-linecap="butt"/></g></g></svg>