<svg version="1.1" xmlns="http://www.w3.org/2000/svg" xmlns:xlink="http://www.w3.org/1999/xlink" width="728.48139" height="276.30041" viewBox="0,0,728.48139,276.30041"><defs><radialGradient cx="475.12357" cy="177.1781" r="67.9" gradientUnits="userSpaceOnUse" id="color-1"><stop offset="0" stop-color="#64d56c"/><stop offset="1" stop-color="#68e871"/></radialGradient><linearGradient x1="287.15064" y1="197.71512" x2="302.02357" y2="197.71512" gradientUnits="userSpaceOnUse" id="color-2"><stop offset="0" stop-color="#6ff678"/><stop offset="1" stop-color="#68e871"/></linearGradient><radialGradient cx="472.02357" cy="157.15624" r="74.2" gradientUnits="userSpaceOnUse" id="color-3"><stop offset="0" stop-color="#65e06d"/><stop offset="1" stop-color="#68e871"/></radialGradient></defs><g transform="translate(147.47957,-57.10582)"><g data-paper-data="{&quot;isPaintingLayer&quot;:true}" fill-rule="nonzero" stroke="none" stroke-linecap="butt" stroke-linejoin="miter" stroke-miterlimit="10" stroke-dasharray="" stroke-dashoffset="0" style="mix-blend-mode: normal"><path d="M417.12831,127.48237c0,22.3441 -17.71095,40.45757 -39.55851,40.45757c-21.84756,0 -39.55851,-18.11347 -39.55851,-40.45757c0,-22.3441 17.71095,-40.45757 39.55851,-40.45757c21.84756,0 39.55851,18.11347 39.55851,40.45757z" fill="#38a9ff" stroke-width="0"/><g><path d="M430.5,104.57294c0,-25.12896 19.47562,-45.5 43.5,-45.5c24.02438,0 43.5,20.37104 43.5,45.5c0,10.02767 20.23204,19.96436 14.97797,27.48461c-7.91242,11.3252 -44.04049,18.01539 -58.47797,18.01539c-10.15251,0 -43.82602,-3.63794 -51.22736,-9.73554c-10.1128,-8.33143 7.72736,-21.25481 7.72736,-35.76446z" fill="#fe8251" stroke-width="0"/><path d="M414.04712,301.73957c0,14.28441 -2.78926,21.2742 -14.51995,26.96889c-4.4459,2.15827 -15.07672,4.69777 -20.31338,4.69777c-8.33823,0 -21.83385,-6.00306 -35.17567,-18.63853c-5.57178,-5.2768 -11.11674,-15.0127 -16.24804,-20.67087c-6.12731,-6.75645 -16.61824,-11.52869 -20.74652,-17.20298c-3.05322,-4.19662 -0.6631,-9.64168 -0.6631,-12.82096c0,-19.69816 54.11284,2 73.16667,2c10.71514,0 37.4222,-62.4863 44.95055,-55.69315c0.26909,0.24282 45.95084,-103.69896 105.73313,-113.84952c29.9837,-5.091 52.09317,27.5148 50.70949,51.15973c-1.37514,23.49897 -26.14767,38.01373 -27.37039,40.77435c-0.7186,1.62242 -5.82777,3.2299 -6.36917,5.04542c-1.65573,5.55233 -0.82115,13.27391 -0.6933,13.37431c0.55286,0.43414 -2.82237,12.14168 -9.25094,20.53966c-4.89158,6.39013 -12.03216,10.26262 -17.74367,9.30869c-2.07545,-0.34664 -5.21694,3.5483 -7.7208,3.11107c-0.9203,-0.16071 -4.03371,-0.38341 -6.53748,-1.20541c-1.20611,-0.39597 -1.06398,-2.02808 -2.75448,-1.77985c-9.03704,1.32698 -22.5181,3.05065 -35.75221,1.29173c-6.68397,-0.88836 -16.63828,-7.89879 -22.59194,-10.14984c-10.57483,-3.99831 -15.71101,-3.75575 -18.68868,-4.33296c-4.71424,-0.91384 -6.30173,7.14904 -8.70267,12.29634c-5.72633,12.27653 -13.7419,22.64295 -13.23252,23.43901c4.69218,7.33293 4.23803,16.49505 5.33378,24.94078c0.91008,7.01461 5.18129,13.88767 5.18129,17.39631z" fill="#67e670" stroke-width="0"/><path d="M438.01665,138.82293c0,17.58106 -14.94189,31.83334 -33.37365,31.83334c-18.43176,0 -33.37365,-14.25227 -33.37365,-31.83334c0,-17.58106 14.94189,-31.83333 33.37365,-31.83333c18.43176,0 33.37365,14.25226 33.37365,31.83333z" fill="#68e871" stroke-width="0"/><path d="M543.02356,150.05627c0,1.77885 -11.3024,35.93913 -34.1559,50.84787c-3.27239,2.13478 -11.0914,0.74045 -14.63192,2.08421c-19.83889,7.5296 -48.46572,-12.53485 -55.08735,-14.1176c-8.7979,-2.10295 -15.66605,-7.11447 -18.32484,-7.11447c-7.51108,0 -13.6,-4.34284 -13.6,-9.7c0,-5.35716 6.08892,-9.7 13.6,-9.7c2.24076,0 6.43952,-0.1403 13.47395,2.8924c7.38714,3.18476 28.66028,21.54771 50.12482,17.10161c9.63202,-1.99515 18.12626,-18.10884 26.41917,-25.61606c4.55547,-4.12388 10.40879,-4.26125 14.24997,-5.03432c8.48441,-1.70757 17.9321,-2.55743 17.9321,-1.64362z" fill="url(#color-1)" stroke-width="0"/><path d="M320.75002,151.90624c0,31.20409 -22.90048,56 -53,56c-30.09952,0 -53,-25.29591 -53,-56.5c0,-6.78936 1.06072,-12.89552 3.90132,-18.63141c1.63124,-3.29388 4.63136,-6.46565 6.36135,-9.57458c2.06986,-3.71969 1.71816,-8.37729 4.29239,-11.5512c8.74732,-10.78505 23.15494,-16.74281 38.44494,-16.74281c12.42792,0 30.25737,11.13841 38.36686,21.20445c5.9063,7.3313 2.19591,15.73718 9.36724,10.79582c44.88766,-30.92957 5.2659,16.0633 5.2659,24.99973z" fill="#67e670" stroke-width="0"/><path d="M350.56799,131.79458l0.04343,-0.11218l-0.00959,-0.11991l0.07103,-0.42618l-0.01361,-0.02722l0.03403,-0.09529l0.07522,-0.45131l0.4814,-1.10722l0.40607,-1.13701l0.25379,-0.3807l0.03933,-0.09044l0.00298,-0.05369l1.12939,-0.96805l0.0452,-0.04109c1.64348,-3.16251 3.58135,-6.21971 6.20634,-7.59195l0.13097,-0.58938l0.39304,-0.78608l0.24451,-0.61127l0.35216,-0.4876l0.20229,-0.56643l0.25743,-0.38616l0.4296,-0.716l0.21345,-0.21345l0.11714,-0.2782l0.5,-0.66666l0.3212,-0.26098l0.21293,-0.35488l0.5,-0.5l0.97271,-0.58363l0.21815,-0.38175l0.71677,-0.17919l0.63353,-0.38013l0.42419,0.11569l1.1005,-0.27512h2l0.03171,0.00793l0.09156,-0.05136l1.36625,0.41581l1.38548,0.34637l0.05209,0.09115l0.03126,0.00951l1.66667,1l0.36665,0.36665l0.4614,0.23662l1.33333,1.16667l0.63362,0.91242l0.72293,0.84342l1,2l0.05293,0.23818l0.14285,0.1978l1,2.5l0.01642,0.12042l0.06703,0.10137l1,2.83333l0.05105,0.53964l0.20989,0.49975l0.25923,1.685l0.3459,1.03768l0.07089,0.92159l0.22418,0.89672v1.16667l-0.26412,1.05648l-0.14714,1.07901l-0.33333,0.83334l-0.14285,0.1978l-0.05293,0.23818l-0.66667,1.33334l-0.14673,0.17118l-0.06565,0.21569l-0.5,0.83334l-0.50053,0.50053l-0.36419,0.60698l-0.5,0.5l-0.35489,0.21293l-0.26098,0.3212l-0.00952,0.00714l-0.00714,0.00952l-0.32121,0.26098l-0.21293,0.35488l-0.66667,0.66666l-0.60698,0.36419l-0.50053,0.50053l-0.24341,0.14605c-1.63291,8.08771 -6.27674,16.17541 -10.56799,21.7226c-1.76592,2.28276 -4.19516,5.20861 -6.71656,7.45806l-0.22364,0.78273l-1.65591,6.12687l-0.31445,0.56357l-0.15461,0.62656l-1.5,2.83333l-0.2418,0.26917l-0.12941,0.33789l-1.16666,1.66666l-0.18614,0.16164l-0.10717,0.22201l-0.83333,1l-0.5431,0.39688l-0.21909,0.26965l-0.00326,0.01631l-0.02069,0.01317l-0.18112,0.22293l-0.66667,0.5l-0.72617,0.30576l-0.03258,0.02381l-0.01686,-0.00299l-0.07627,0.03212l-0.77981,0.49624l-0.5,0.16667l-0.36045,0.02772l-0.01375,0.00579l-0.31644,0.14989l-0.31566,0.06313l-0.34318,0.13727l-0.52708,0.07188l-0.48075,0.22772l-0.4823,0.09646l-0.27272,0.0909l-0.6345,0.31725l-0.18908,0.04202l-0.00739,0.01294l-0.25169,0.06293l-0.305,0.19409l-0.5,0.16666l-0.92159,0.07089l-0.89672,0.22418h-6.36721l-0.91845,1.07153l-0.2267,0.0126l-0.11265,0.19713l-2.875,0.71875h-0.19078l-0.53059,0.08844l-0.19193,-0.01535l-0.18122,0.06505l-1.47928,0.14793l-1.58773,0.26462l-0.44389,0.11098h-0.20558l-0.80358,0.33834l-0.26331,-0.11386l-0.45544,0.11386h-0.66667l-0.0754,-0.01884l-0.24604,0.05468l-0.27884,-0.1859l-2.27472,-0.56868l-0.85278,-1.49236l-0.20556,-0.08889l-0.00984,-0.07866l-1.19979,-0.79986l0.07641,-1.37543l-0.05902,-0.10328c-1.10444,-0.10923 -2.07125,-0.38333 -2.58277,-0.89485c-0.03915,-0.03915 -0.07792,-0.07816 -0.11627,-0.11702c-1.32322,0.40039 -2.8573,0.23751 -4.55641,-0.75937c-3.3483,-1.96447 -3.57701,-7.48497 -3.00048,-10.78984c1.85703,-10.64501 11.94453,-15.43084 20.02899,-20.819c4.86877,-3.24495 9.4119,-6.86562 14.15952,-10.22189c0.64964,-0.45926 1.37468,-1.05584 2.15367,-1.6984c1.98465,-3.74682 4.57145,-7.29353 6.11905,-10.14838c0.11933,-0.22012 0.23893,-0.44669 0.35903,-0.67878z" fill="#68e871" stroke-width="0.5"/><path d="M302.61797,186.8811c0.21003,-1.98894 2.19897,-1.77891 2.19897,-1.77891l1.88807,0.19938c0.3532,-3.56919 1.3989,-6.82864 2.65098,-10.47c0.77247,-2.24655 1.7618,-5.07556 3.39433,-6.8698c2.83631,-3.11726 6.66438,-5.72335 9.90237,-8.40106c4.08986,-3.38217 7.46572,-7.26571 10.40974,-11.67159c1.24656,-2.28723 2.79312,-4.2399 4.20934,-6.40079c1.57204,-2.39863 2.62019,-5.57612 4.91112,-7.45253c4.56455,-3.73863 10.32188,-5.67892 15.88721,-7.20461c2.98984,-0.81964 5.86231,-2.78498 9.10819,-2.3925c2.95936,0.35783 5.44649,2.43491 8.41071,2.9929c0.80867,0.64221 1.78923,1.11369 2.42602,1.92664c3.10935,3.96947 0.98986,8.44642 -0.1432,12.58489c-1.08019,3.94539 -1.45778,7.82056 -3.17926,11.28837c4.79532,0.10082 9.57865,0.43258 14.345,1.27468c6.94804,1.22754 13.29929,3.33269 19.08961,7.36437c0.48588,0.33831 2.28761,1.0459 2.67918,1.44373c0.42349,0.17178 0.74759,0.4146 0.90463,0.72868c0.36404,0.72808 0.6036,1.43129 0.73343,2.11031l0.51136,0.89487c-0.16134,0.28235 -0.29488,0.5927 -0.4196,0.91191c-0.62582,6.74361 -12.09383,10.83495 -16.76943,13.11001c-0.93433,0.45463 -1.87368,0.90259 -2.78952,1.39323c-0.19315,0.44501 -0.43627,0.88862 -0.71966,1.32727c0.3179,0.8903 0.57345,1.65477 0.76081,2.09561c5.02779,11.82983 3.23893,17.98149 -4.00556,28.2413c0.27339,0.25012 0.54746,0.49949 0.82234,0.74799c2.65082,2.39642 6.24866,3.9093 6.92062,7.47268c0.5941,3.15051 -4.39688,4.91508 -6.875,3.71875c-1.60786,-0.77621 -3.17449,-1.87936 -4.69535,-3.16139c-1.80918,2.43158 -4.94587,5.12447 -7.47526,7.66777c-0.9774,2.59556 -2.15025,4.83585 -3.45927,6.98226c-0.22217,0.68793 -0.61496,1.29918 -1.12849,1.78387c-1.5716,2.40701 -3.29818,4.78706 -5.09226,7.5258c-2.43396,3.71555 -3.153,7.9463 -4.92317,11.62447c-0.5513,1.14552 0.06405,5.53004 -0.98479,6.19717c-1.34527,1.02652 -4.52571,-1.86384 -6.34854,-1.86384c-0.53953,0 -1.06658,-0.05341 -1.57616,-0.15523c-0.95816,0.14186 -1.9192,0.39371 -2.83489,0.14398c-1.21993,-0.33271 -4.29315,-6.05193 -4.47214,-6.7082c-0.31752,-1.16423 1.2025,-2.4017 0.78535,-3.53406c-1.33147,-3.61428 -3.6613,-7.50155 -5.49665,-10.94203c-1.58148,-2.96459 -2.00257,-6.94537 -3.96664,-9.62872c-3.67122,-5.0157 -8.16359,-7.46347 -13.50388,-9.82078c-0.73205,-0.32314 -1.78985,-0.50052 -2.83832,-0.75183c-5.12723,-0.7577 -10.82029,-3.36407 -13.27168,-6.06059c-0.07039,-0.07743 -0.13919,-0.18816 -0.20623,-0.32675c-5.92913,1.26366 -12.23021,2.21275 -18.24048,3.00862c-1.35406,0.1793 -3.91139,1.43481 -4.92815,0.75697l-4.39458,-4.70797c-1.87377,-0.42426 -3.47428,-1.79902 -4.53494,-3.48555c-0.57839,-0.86124 -0.99381,-1.8411 -1.20208,-2.89539c-0.17189,-0.7853 -0.2189,-1.56474 -0.12022,-2.28841l-0.104,-1.35188c0.2513,-0.28086 0.46302,-0.588 0.65149,-0.91295c0.15568,-0.38548 0.34052,-0.75605 0.55179,-1.10899c0.52938,-1.19077 0.99572,-2.47964 2.02197,-3.54389c4.04898,-4.19894 11.95141,-5.0762 17.16827,-7.1706c2.61856,-1.05127 5.01864,-2.21882 7.55856,-3.25116c-0.16501,-0.30265 -0.25597,-0.69595 -0.20206,-1.20646zM333.10703,172.31874c2.6094,-3.9104 6.00214,-6.91252 9.88621,-9.4892c1.2702,-0.53785 2.55834,-1.03475 3.85957,-1.50001c1.24863,-2.57047 2.31308,-5.20045 4.65231,-6.98272c2.55406,-1.94595 9.76975,-1.02161 11.21622,-1.04868c2.43527,-0.04558 4.86854,-0.09145 7.29915,-0.10139c2.73514,-3.59454 2.81422,-7.97065 3.98817,-12.29091c0.87881,-3.23412 3.17768,-7.18882 -0.0505,-9.8218c-2.64664,-0.369 -4.69944,-2.3356 -7.25596,-2.67378c-2.43806,-0.32251 -5.29136,1.64523 -7.55847,2.27417c-5.15057,1.42885 -10.13465,3.13172 -14.44612,6.46205c-1.87267,1.44652 -2.83964,4.64013 -4.08888,6.54747c-1.39216,2.12554 -2.89762,4.01934 -4.12399,6.26588c-3.18893,4.77534 -6.82745,8.99332 -11.25693,12.66174c-3.08459,2.55461 -6.68252,5.0076 -9.43097,7.93227c-1.30417,1.3878 -2.05576,3.81581 -2.65545,5.57032c-1.13664,3.32548 -2.14817,6.27397 -2.46735,9.52649c3.93173,-0.88012 8.09472,-1.38146 12.32725,-1.5267c0.08675,-0.58943 0.29451,-1.13949 0.59722,-1.62414c1.09984,-2.3709 3.35243,-3.84979 6.07382,-4.89596c1.14195,-1.72392 2.23557,-3.48807 3.43471,-5.28508zM340.51587,183.76886c-1.63342,0.35119 -3.21475,0.6591 -4.61682,0.98493c1.99566,0.26199 3.97014,0.59893 5.90618,1.0084c0.10837,-0.60844 0.2999,-1.23166 0.58655,-1.85935c-0.59991,0.10786 -1.23381,0.05251 -1.87591,-0.13398zM378.20124,184.34912c0.00992,-0.02142 0.01987,-0.0428 0.02985,-0.06414c-0.07138,0.0482 -0.14217,0.09654 -0.21244,0.14509c0.06095,-0.02697 0.12182,-0.05395 0.18259,-0.08096zM375.23911,197.05558c0.06118,-0.67758 0.13927,-1.40298 0.23693,-2.15962c-0.32385,0.15918 -0.64657,0.32058 -0.96765,0.48513c0.26238,0.54894 0.50594,1.10754 0.73072,1.67449z" fill="#68e871" stroke-width="0.5"/><path d="M370.44226,291.23088c-0.2194,-0.2466 -0.41003,-0.50448 -0.57913,-0.77023c-2.44123,-0.68564 -5.01125,-1.84303 -6.30544,-3.31911c-0.54154,-0.61765 -1.25229,-1.27013 -1.72407,-1.98247c-0.13582,0.12322 -0.27119,0.24857 -0.40616,0.37613l-0.08162,0.03005l0.01741,0.02238l-1.78769,1.39043c-0.29851,0.23679 -0.67609,0.37821 -1.08671,0.37821c-0.9665,0 -1.75,-0.7835 -1.75,-1.75c0,-0.24378 0.04985,-0.47592 0.13991,-0.68678l0.78526,-1.96315l0.07296,0.02918c0.00874,-0.03183 0.01781,-0.06358 0.02722,-0.09526c-1.4877,-0.83264 -2.86185,-2.59904 -3.77701,-3.65423c-3.21727,-3.70954 -5.98668,-7.87173 -9.23926,-11.50987c-5.46487,-6.1127 -12.50281,-14.21122 -19.69722,-18.40375c-1.89475,-1.10416 -4.00729,-2.21542 -6.15167,-3.37789c0.17631,1.16347 0.2829,2.30276 0.31334,3.40871c0.17291,6.28223 0.56594,16.65988 -3.97047,22.20838c-2.32159,4.50569 -13.09986,6.03908 -16.85988,6.41413c-1.64405,0.16399 -4.91864,1.46607 -6.50049,0.00487c-2.54141,-0.2437 -4.29916,-0.73542 -6.81475,-2.21212c-2.66736,-1.56579 -3.79236,-5.11108 -6.88694,-6.41913c-0.47269,-0.1998 -1.60785,-0.81974 -2.89991,-1.55437c-3.46832,1.87428 -8.12096,3.28528 -11.49529,3.36586c-8.7042,0.20787 -16.94345,-0.76159 -24.9879,-3.6346c-3.65323,-1.30473 -10.8011,-10.20753 -12.40801,-13.78632c-0.51948,-1.15695 -0.72325,-2.3125 -0.88008,-3.48604c-2.31683,-1.98771 -4.36359,-4.57465 -5.36945,-6.01422c-1.43016,-2.04682 -3.12644,-5.07781 -5.1726,-9.1123c-1.67725,-3.30711 -3.58959,-7.28849 -5.78315,-11.95477c-1.93584,-4.11803 -6.33594,-9.61145 -7.5636,-14.36191c-0.58854,-2.27734 -0.24301,-4.77733 -0.60087,-7.15273c-0.60715,-4.03007 0.36869,-14.9464 0.35278,-18.58557c-0.02876,-6.5782 6.22938,-8.38811 9.42758,-12.07891c1.76809,-2.04041 2.64743,-5.52119 3.18058,-6.82902c1.60739,-3.94299 7.75001,6.95748 10.97903,5.53702c0.24289,-0.13794 1.66116,27.40437 1.92047,27.29464c2.79456,-3.46891 8.07828,-2.16496 12.4016,-3.64254l0.00002,-0.00002c1.30359,-0.44553 4.59127,-1.28831 6.51841,-0.68346c5.06476,0.83748 11.81103,4.58721 14.51248,5.61087c2.53372,0.9601 5.13537,1.73062 7.71144,2.57048c6.15031,2.00514 23.097,6.88097 28.08899,9.97006c0.58725,0.3634 1.17503,0.7573 1.76174,1.17944c0.37532,-0.28115 0.77827,-0.50148 1.2244,-0.64931c1.02829,-0.34073 2.28592,-0.29628 3.96308,0.27646c4.21716,1.44013 6.1662,5.71927 8.10879,9.19861c1.42315,2.54897 4.82561,3.66819 6.84852,5.62829c4.65503,4.51051 12.3388,6.00914 17.19231,10.46154c8.17889,7.50296 16.51819,14.90218 23.91948,23.37091c2.39463,2.74 4.30399,5.94668 6.86846,8.53066c1.17062,1.17952 3.2193,3.01812 3.2193,4.63351c0,1.22375 -0.06205,2.311 -0.19822,3.27382c0.45612,-0.11938 1.5579,-0.25486 2.08399,1.00776c0.04742,0.1138 0.08348,0.22293 0.10954,0.32747c0.90819,0.06406 1.62507,0.82112 1.62507,1.74561c0,0.24607 -0.05079,0.48028 -0.14245,0.69271c3.40081,1.24126 7.22912,5.14706 5.79528,8.44837c0.26892,0.22968 0.45975,0.50174 0.50035,0.85685c0.37301,3.26224 -5.30351,7.41538 -8.05761,4.31023c-1.07028,-1.2067 -0.90343,-2.08494 -0.49217,-2.88355z" fill="#67e670" stroke-width="0.5"/><path d="M333.67411,148.71032c-3.69786,1.79151 -9.9739,3.7009 -13.65348,0.97983c-1.30915,-0.96813 -1.62437,-2.82246 -2.42349,-4.24111c-0.81355,-1.44426 -2.55919,-2.6626 -2.46724,-4.31767c0.11175,-2.01155 2.02688,-3.48283 2.99865,-5.24763c0.5194,-0.94327 1.22713,-2.8661 1.89208,-3.31115c1.39714,-0.93508 4.84964,0.2405 4.83343,-1.44061c-0.022,-2.28111 -1.0235,-8.00962 -0.20219,-11.0721c-0.52144,-1.77866 -0.85133,-3.53557 -0.93337,-5.17146c-0.16178,-3.22594 0.19521,-7.14668 -0.49341,-10.32366c-1.15718,-5.33869 -1.4479,-12.71773 0.54689,-17.81449c1.12083,-2.86375 2.21188,-5.87627 4.21361,-8.30201c1.12977,-1.36908 3.34324,-2.92902 4.0248,-4.486c1.70485,-3.89459 6.73688,-8.51342 10.3188,-10.84195c1.22478,-0.79621 2.31705,-2.16823 3.6856,-2.5132c0.59966,-0.26474 1.23093,-0.471 1.88658,-0.61155c6.45361,-2.42572 15.6761,-3.08787 20.19157,-2.84162c2.21777,0.12095 4.23783,1.18026 6.35876,1.67001c5.65128,1.30495 11.77418,1.97303 15.10246,7.52017c0.33179,0.55299 0.52271,1.14929 0.61119,1.77345c0.10624,0.15306 0.1984,0.29018 0.27502,0.40774c1.19573,1.8347 3.61112,7.43654 4.98628,8.34496c3.9692,2.62202 7.89747,5.37785 11.40555,8.9315c1.07007,1.08397 2.61133,8.00815 3.19598,8.37886c3.02059,1.91528 8.05038,0.4424 11.14709,2.60612c1.51259,1.05687 4.81888,7.26552 4.89073,8.55878c0.05954,1.07164 -1.24734,1.78108 -1.59751,2.79564c-0.17196,0.49822 0.34921,1.12114 0.08771,1.57876c-0.31782,0.55618 -1.19641,0.56773 -1.599,1.066c-0.75241,0.93121 -0.7858,2.45429 -1.78193,3.11838c-3.39614,2.2641 -6.62206,0.89033 -10.06045,0.26839c-5.82392,-1.05344 -11.89719,-1.97939 -16.25232,-6.07134c-3.43709,-3.22939 -2.6912,-8.59039 -5.53125,-11.96178c-3.68624,-4.37588 -9.93527,-1.16577 -12.10459,-10.56229c-0.29588,-1.28163 -2.16525,-4.06394 -3.72617,-6.77271c-2.24868,-0.88546 -4.49471,-1.69216 -7.23342,-2.08772c-4.1601,-0.60085 -8.04509,0.97762 -12.02184,1.7934c-3.74013,2.63384 -6.53049,7.29647 -9.95934,10.72532c-4.43173,4.43173 -1.67788,13.51526 -1.19439,18.96309c0.33354,3.75818 -0.09437,7.08508 2.47352,10.08096l0.05443,0.04423c0.12728,0.1697 0.28518,0.34741 0.46639,0.53291c1.20612,0.70935 2.24674,1.66994 3.04993,2.80985c1.12141,1.59154 1.77998,3.53264 1.77998,5.62755c0,4.59952 -3.17466,8.45756 -7.45232,9.50245c-1.37497,5.00024 -4.3644,9.28546 -9.78931,11.91368z" fill="#67e670" stroke-width="0.5"/><path d="M302.02357,197.71512c0,12.98358 -5.43836,23.50885 -12.14691,23.50885c-6.70855,0 1.0763,-8.20341 1.0763,-21.18698c0,-12.98358 -7.78485,-25.8307 -1.0763,-25.8307c6.70855,0 12.14691,10.52526 12.14691,23.50884z" fill="url(#color-2)" stroke-width="0"/><path d="M224.98881,131.37365c0.78262,1.56525 -0.78262,2.34787 -0.78262,2.34787l0.09357,-0.66239c-0.56598,1.88 -0.94121,3.7477 -1.33471,5.66958c0.00638,2.10433 -0.48676,3.70356 -0.81408,5.70788c-0.38198,2.33903 0.3759,4.64984 0.61214,6.92873c0.45641,4.40267 -0.671,8.0485 -1.4081,12.24508c-0.29915,1.70317 0.44059,1.61828 0.61326,3.60986c0.23426,2.702 -0.75277,4.51687 -2.50727,6.37345c0,0 -1.23744,1.23744 -2.47487,0c-1.23744,-1.23744 0,-2.47487 0,-2.47487c2.65515,-2.41764 0.45381,-4.92104 0.90598,-8.01669c0.57573,-3.94155 1.83672,-7.2024 1.3919,-11.35492c-0.2803,-2.61674 -0.99983,-5.1866 -0.58785,-7.87127c0.31357,-2.04337 0.77989,-3.34956 0.78592,-5.49212c0.42132,-2.14963 0.83742,-4.23073 1.46529,-6.33042l1.69357,-1.46239c0,0 1.56525,-0.78262 2.34787,0.78262z" fill="#ffe799" stroke-width="0.5"/><path d="M397.82357,160.95626l0.11696,-0.46785l0.03699,-0.48084l0.11446,-0.34337l0.16174,-1.13221l0.05942,-0.14585v-0.15749l0.4,-1.6l0.15547,-0.29152l0.07167,-0.32251l0.6,-1.2l0.07655,-0.08931l0.03425,-0.11253l1.8,-3l0.05172,-0.05173l0.02461,-0.06889l0.8,-1.2l0.2211,-0.201l0.15373,-0.25622l1.8,-1.8l0.18516,-0.1111l0.13616,-0.16759l0.72183,-0.54136l2.7258,-2.33641l0.16454,-0.08227l0.12374,-0.13611l1.1088,-0.7392l1.67358,-1.30167l1.16117,-0.96764l0.1468,-0.07087l0.10965,-0.12061l1.8,-1.2l0.03089,-0.01103l0.02258,-0.0238l2.02013,-1.28554l1.23812,-1.06125l0.22836,-0.11418l0.18053,-0.18053l1,-0.6l0.23239,-0.07072l0.19692,-0.14223l1,-0.4l0.56296,-0.07677l0.55121,-0.1378h0.20426l0.02803,-0.01869l0.08411,0.01869h0.08359l0.66874,0.16718l0.14767,0.03281h0.38359l0.26455,0.06614l0.27211,-0.01774l1.93385,0.35161h1.92949l0.32052,0.08013l0.33027,-0.00869l3.6,0.8l0.14086,0.07043l0.15703,0.01208l2.4,0.8l0.0761,0.04843l0.08939,0.01219l0.91814,0.36726l0.93917,0.31305l0.81686,0.16338l0.09543,0.0452l0.10558,0.00225l2.2,0.6l0.01622,0.0091l0.01859,0.00062l1.4,0.4l0.05788,0.0334l0.06664,0.00512l1.8,0.6l0.0761,0.04843l0.08938,0.01219l0.91814,0.36726l0.91502,0.305l0.05861,0.01466l0.41822,0.01394l1.4,0.4l0.24329,0.14036l0.27418,0.06093l0.55061,0.27531l1.13191,0.3234l0.05788,0.0334l0.06664,0.00512l2.06968,0.6899l1.85325,0.16848l0.04899,0.01709l0.0515,-0.00625l1.6,0.2l0.14597,0.0565l0.1565,-0.00284l2.26709,0.52317h7.69218l1.63486,-0.18165l0.16741,0.02262l0.16388,-0.04097h1.3868l1.18894,-0.16985l0.21479,0.02222l0.20948,-0.05237h1.71317l0.73815,-0.24605l0.48083,-0.03698l0.46785,-0.11696h1.32949l1.83771,-0.33413l1.33943,-0.33486l1.44,-0.54l0.35141,-0.04016l0.32985,-0.12768l1.24948,-0.15619l1.23872,-0.46452l0.93577,-0.3743l1.11322,-0.47709l0.97082,-0.64721l0.17853,-0.06376l0.14393,-0.12337l1.12552,-0.56276l1.3,-0.74285l0.97263,-0.58358l0.11254,-0.03425l0.08931,-0.07655l1.2,-0.6l0.12427,-0.02761l0.1032,-0.07453l1,-0.4l0.08938,-0.01219l0.07611,-0.04843l0.39774,-0.13258l0.20931,-0.10465l0.21078,-0.04685l0.18217,-0.11593l0.81886,-0.27295l0.26572,-0.17714l0.37736,-0.13477l0.33806,-0.21513l0.6,-0.2l0.11728,-0.00902l0.10379,-0.05536l0.60248,-0.15061l0.52093,-0.20837l0.3401,-0.22673l0.4835,-0.17267l0.453,-0.24161l0.5668,-0.14169l1.17906,-0.50531l0.35697,-0.05758l0.33159,-0.14417l0.96782,-0.1613l1.57669,-0.52557l0.18901,-0.01454l0.17133,-0.08115l0.93,-0.186l1.53074,-0.38269h0.07315l0.06611,-0.03131l1,-0.2l0.29846,0.01421l0.28988,-0.07247h1.05037l1.85111,-0.18511l0.15073,0.02205l0.14778,-0.03694h1.25038l1.78808,-0.17881l1.33728,-0.19104l0.21479,0.02222l0.20948,-0.05237h3.30295l0.70871,-0.14174l0.29846,0.01421l0.28988,-0.07247h0.67068l1.47852,-0.32856l0.33027,0.00869l0.32052,-0.08013h0.23068l0.44171,-0.11043h0.36931l0.35829,-0.08957h9.88572l0.01428,-0.025l0.0836,-0.0209l0.07476,-0.03738l0.67291,-0.14953l0.66873,-0.16719h0.0836l0.08411,-0.01869l0.02804,0.01869h1.40426l0.46785,0.11697l0.48083,0.03698l1.0143,0.3381l0.03251,-0.00886l0.07389,0.04433l0.0793,0.02643l0.58155,0.37008l0.58915,0.35349l0.0436,0.01453l0.03251,-0.00887l0.07389,0.04433l0.0793,0.02643l0.58155,0.37008l0.59109,0.35465l0.05911,0.05911l0.07269,0.04626l0.00661,0.03304l0.26158,0.26159l0.1111,0.18515l0.16758,0.13617l0.47208,0.62944l0.24924,0.24925l0.15374,0.25622l0.22109,0.201l0.4,0.6l0.17268,0.48349l0.2416,0.45301l0.2,0.8v0.36932l0.08957,0.35829v1.63068l0.08249,0.32994l0.13569,0.40706l0.36726,0.91815l0.07677,0.56296l0.1378,0.55121v2.6l-0.11696,0.46785l-0.03699,0.48083l-0.6,1.8l-0.05471,0.08598l-0.13488,0.53951l0.06036,0.22132l-0.19833,0.33054l-0.09349,0.37396l-0.19917,0.11382l-0.30451,0.5075l-0.8,0.8l-0.50751,0.30451l-0.11381,0.19917l-0.37396,0.09349l-0.33054,0.19833l-0.22132,-0.06036l-0.57418,0.14354h-0.57895l-0.07236,0.04605l-0.39774,0.13258l-0.43422,0.21712l-0.01672,0.02926l-0.08359,0.0209l-0.07477,0.03738l-0.6729,0.14953l-0.66874,0.16719h-0.08359l-0.08411,0.01869l-0.02803,-0.01869h-1.11743l-0.13815,0.04605l-0.48083,0.03699l-0.46786,0.11696h-0.71317l-0.13815,0.04605l-0.48083,0.03698l-0.46785,0.11696h-1.35171l-0.95509,0.15918l-0.24995,-0.02l-0.24325,0.06082h-1.63068l-0.44171,0.11043h-0.36932l-0.35829,0.08957h-1.63068l-0.32993,0.08249l-0.28844,0.09614l-0.43422,0.21712l-0.01672,0.02926l-0.08359,0.0209l-0.07477,0.03738l-0.6729,0.14953l-0.32141,0.08035l-0.39865,0.13289l-0.11729,0.00902l-0.10379,0.05536l-1.09587,0.27396l-0.16764,0.11176l-0.11367,0.0406l-0.05043,0.08825l-0.65559,0.16389l-0.63639,0.22728l-0.09091,-0.04546l-0.1171,0.02928h-0.51316l-0.65452,0.21817l-0.91814,0.36726l-0.3225,0.04397l-0.29848,0.12977l-1.2,0.2l-0.24995,-0.02l-0.24325,0.06082h-0.78359l-0.14767,0.03281l-0.65541,0.16385l-0.14923,0.09948l-0.37735,0.13477l-0.20632,0.13129l-0.15911,0.15911l-0.41352,0.24812l-0.24212,0.20753l-0.14435,0.14435l-0.25622,0.15374l-0.201,0.22109l-0.19434,0.12956l-0.19379,0.30453l-0.35465,0.59108l-0.0591,0.05911l-0.04626,0.0727l-0.03305,0.0066l-0.11735,0.11735l-0.38228,0.76457l-0.17747,0.20704l-0.10582,0.25132l-0.6,0.8l-0.16759,0.13617l-0.11109,0.18515l-0.14435,0.14435l-0.01706,0.0199l-0.06376,0.17853l-0.2964,0.44459l-0.31647,0.63295l-0.31385,0.36615l-0.09696,0.16159l-0.16454,0.49361l0.00887,0.03251l-0.04433,0.07389l-0.02643,0.0793l-0.37007,0.58155l-0.35465,0.59108l-0.05911,0.05911l-0.04626,0.07269l-0.02216,0.00443l-0.58907,1.03086l-0.07306,0.07624l-0.03552,0.09945l-0.8,1.2l-0.03674,0.03341l-0.01821,0.0462l-0.93036,1.30251l-1.13836,1.89726l-0.11136,0.11137l-0.06112,0.14515l-0.6,0.8l-0.16759,0.13617l-0.11109,0.18515l-0.24924,0.24925l-0.47208,0.62944l-0.33104,0.26897l-0.26896,0.33103l-0.62944,0.47208l-1.44925,1.44924l-0.5075,0.30451l-0.11381,0.19917l-0.37396,0.09349l-0.33054,0.19833l-0.20765,-0.05663l-0.0462,0.0231l-0.39116,0.08692l-0.36213,0.17154l-0.81685,0.16338l-0.93918,0.31305l-0.91814,0.36726l-0.275,0.0375l-0.25083,0.11881l-0.49045,0.09809l-0.55441,0.33265l-0.23239,0.07072l-0.19693,0.14222l-0.70997,0.28399l-0.68756,0.45837l-0.0055,0.01489l-0.04842,0.02105l-0.19862,0.13241l-0.59322,0.21187l-0.57768,0.25116l-0.23547,0.03924l-0.04971,0.01776l-0.01421,-0.0071l-0.33875,0.05646l-0.51157,0.30694l-0.11253,0.03425l-0.08931,0.07655l-1.6,0.8l-0.21078,0.04684l-0.18217,0.11593l-0.39774,0.13258l-0.20931,0.10465l-0.21078,0.04684l-0.18217,0.11593l-0.39774,0.13258l-0.60931,0.30465l-0.21079,0.04684l-0.18217,0.11593l-0.28758,0.09586l-0.71761,0.43057l-0.31607,0.09619l-0.27873,0.17738l-0.39774,0.13258l-0.60931,0.30465l-0.21079,0.04684l-0.18217,0.11593l-0.6,0.2l-0.39305,0.03024l-0.23892,0.11946l-0.01672,0.02926l-0.08359,0.0209l-0.07477,0.03738l-0.6729,0.14953l-0.66874,0.16719h-0.08359l-0.08411,0.01869l-0.02803,-0.01869h-10.00426l-0.10606,-0.02652l-0.10768,0.01889l-2.8,-0.2l-0.18264,-0.05978l-0.19196,0.00914l-1.95257,-0.39051l-0.85289,-0.14215l-0.01421,0.0071l-0.04972,-0.01775l-0.23546,-0.03924l-0.57768,-0.25117l-0.59322,-0.21186l-0.19862,-0.13242l-0.04841,-0.02105l-0.0055,-0.01489l-0.01318,-0.00878l-0.81886,-0.27295l-0.47008,-0.29915l-0.50179,-0.24224l-0.93251,-0.7771l-0.48858,-0.24429l-0.06472,-0.05547l-0.08206,-0.02308l-1.4,-0.8l-0.04383,-0.042l-0.05775,-0.01873l-1.4041,-0.87756l-1.18766,-0.509l-0.07182,-0.05459l-0.08806,-0.01957l-1.2,-0.6l-0.14393,-0.12337l-0.17853,-0.06376l-0.26572,-0.17715l-0.21886,-0.07295l-0.18217,-0.11593l-0.06251,-0.01389l-0.00213,0.00058l-0.00279,-0.00168l-0.14335,-0.03185l-0.4,-0.2l-0.36615,-0.31384l-0.41353,-0.24812l-1.18995,-1.18995l-0.35283,-0.23522l-0.201,-0.22109l-0.25622,-0.15374l-0.64924,-0.64924l-0.62944,-0.47208l-0.13616,-0.16759l-0.18516,-0.11109l-0.6,-0.6l-0.1111,-0.18515l-0.16758,-0.13617l-0.47208,-0.62944l-1.03919,-1.0392l-0.35283,-0.23522l-0.201,-0.22109l-0.25622,-0.15374l-0.35911,-0.35911l-0.05043,-0.03208l-0.0625,-0.01389l-0.00214,0.00058l-0.00279,-0.00168l-0.14335,-0.03186l-0.4,-0.2l-0.36615,-0.31385l-0.41353,-0.24811l-0.05575,-0.05576l-0.36457,-0.18229l-0.14393,-0.12337l-0.17853,-0.06376l-0.44459,-0.29639l-0.23295,-0.11648l-0.36615,-0.31384l-0.01159,-0.00695l-0.20823,-0.05205l-0.29152,-0.15548l-0.32252,-0.07167l-0.60931,-0.30465l-0.39774,-0.13258l-0.18217,-0.11593l-0.08863,-0.01969h-0.30812l-0.8,-0.2l-0.29152,-0.15548l-0.32252,-0.07167l-0.8,-0.4l-0.36615,-0.31384l-0.16159,-0.09695l-0.0793,-0.02643l-0.58155,-0.37008l-0.59109,-0.35465l-0.05911,-0.05911l-0.07269,-0.04626l-0.00661,-0.03304l-0.00594,-0.00594l-0.24212,-0.20754l-0.41353,-0.24811l-0.18994,-0.18995l-0.19743,-0.13162l-0.04225,-0.02112l-0.39774,-0.13258l-0.33806,-0.21513l-0.37736,-0.13477l-0.26572,-0.17714l-0.81886,-0.27295l-0.18217,-0.11593l-0.21078,-0.04684l-0.28839,-0.14419l-0.34772,-0.13909h-2.92519l-0.70871,0.14174l-0.0496,-0.00236l-0.04555,0.0198l-1.15229,0.19205l-0.88256,0.17651l-1.53074,0.38269h-0.04055l-0.03626,0.01813l-1.8,0.4l-0.05971,-0.00157l-0.05442,0.02462l-2.2,0.4l-0.13619,-0.00888l-0.12886,0.04495l-2.00851,0.18259l-1.57378,0.34973l-1.49407,0.37351l-1.93321,0.57996l-0.22717,0.01057l-0.21061,0.0858l-1.2468,0.17811l-0.53809,0.13452l-0.26755,0.08918l-0.29478,0.34391l-0.11828,0.00657l-0.05877,0.10286l-1.5,0.375c0,0 -0.23935,0 -0.50426,0l-1.52804,1.01869l-1.50934,-0.33541l-0.76457,-0.38228l-0.04587,0.00316l-0.57425,-0.52205l-0.58925,-0.50506l-0.00255,-0.04592l-0.04521,-0.0678l-0.10077,-0.06718l-0.19184,-0.21103l-0.16001,-0.032l-0.30548,-0.48003l-0.38273,-0.42101l0.01122,-0.16279l-0.15311,-0.24061l-0.4,-1.2l-0.03699,-0.48084l-0.11696,-0.46785z" fill="url(#color-3)" stroke-width="0.5"/><path d="M481.71379,153.15624c0,2.94552 -5.37259,5.33334 -12,5.33334c-6.62741,0 -12,-2.38782 -12,-5.33334c0,-2.94552 5.37259,-5.33334 12,-5.33334c6.62741,0 12,2.38782 12,5.33334z" fill="#51a8ff" stroke-width="0"/><path d="M406.71378,162.32293c0,2.85347 -4.10406,5.16667 -9.16667,5.16667c-5.06261,0 -9.16667,-2.3132 -9.16667,-5.16667c0,-2.85347 4.10406,-5.16667 9.16667,-5.16667c5.06261,0 9.16667,2.3132 9.16667,5.16667z" fill="#51a8ff" stroke-width="0"/><path d="M337.87443,202.51703c0.85492,-1.47619 1.73331,-2.97509 2.04447,-4.49899c0.34204,-1.67514 -0.67694,-3.22446 -0.77401,-4.8185c-0.18352,-3.01368 1.44872,-6.15149 3.44903,-8.29422c2.72372,-2.91764 5.85674,-4.34239 9.7969,-4.32504c1.71767,0.00756 4.56691,-0.24636 5.42395,1.98971c0.41,1.06973 -0.93805,2.09038 -1.40826,3.13504c-0.62723,1.39348 -1.21979,2.7987 -1.81522,4.20311c0.00569,0.0277 0.01121,0.05568 0.01655,0.08393c0.77463,4.09891 1.25272,10.36759 -0.92579,14.16714c-1.57481,2.74663 -5.77332,6.02131 -9.74327,6.8792c-1.84465,1.60379 -4.00122,2.59488 -6.30448,2.27296c-3.86685,-0.54046 -7.22857,-7.41105 -4.63248,-10.7956c0.56205,-0.73274 1.6331,-0.86267 2.44965,-1.294c0,0 1.6085,-0.68936 2.29787,0.91915c0.05634,0.13146 0.09733,0.25679 0.12511,0.3761z" fill="#ffe799" stroke-width="0.5"/></g><path d="M300.44453,222.0174c0,15.74012 -17.06914,28.5 -38.125,28.5c-21.05586,0 -38.125,-12.75988 -38.125,-28.5c0,-15.74012 17.06914,-28.5 38.125,-28.5c21.05586,0 38.125,12.75988 38.125,28.5z" fill="#67e670" stroke-width="0"/><path d="M-147.47957,96.01537v0v0v0z" fill="#38a9ff" stroke-width="0"/><g stroke-width="0"><g><path d="M503.16333,193.75527c-0.30944,-0.0192 -0.54073,-0.20924 -0.51666,-0.42443c0.02409,-0.21521 0.29447,-0.37408 0.60388,-0.35487c0.30944,0.0192 0.719,0.22031 0.69493,0.4355c-0.02409,0.21521 -0.47273,0.36301 -0.78215,0.34381z" data-paper-data="{&quot;index&quot;:null}" fill="#44974a"/><path d="M503.96752,194.99819c0,0 0.08387,-0.55119 0.01554,-0.99079c-0.06135,-0.39478 -0.27564,-0.66938 -0.27564,-0.88192c0,-0.52676 0.2601,-1.09242 0.2601,-1.09242h0.15605c0,0 -0.06087,0.16988 -0.01586,0.89818c0.01943,0.31445 0.14325,1.32549 0.16005,1.49065c0.02826,0.27788 0.16793,0.68034 0.16793,0.68034z" data-paper-data="{&quot;index&quot;:null}" fill-opacity="0.97581" fill="#4dab53"/><path d="M503.70741,195.10223c0,0 0.13968,-0.40246 0.16793,-0.68034c0.0168,-0.16516 0.14061,-1.17621 0.16004,-1.49065c0.04501,-0.7283 -0.01587,-0.89817 -0.01587,-0.89817h0.15606c0,0 0.26009,0.56566 0.26009,1.09242c0,0.21255 -0.21429,0.48714 -0.27563,0.88192c-0.06831,0.43961 0.01554,0.99079 0.01554,0.99079z" fill="#44974a"/><g data-paper-data="{&quot;index&quot;:null}"><path d="M503.66606,190.54397c0,0.52013 -0.71307,0.94177 -1.22725,0.94177c-0.51418,0 -0.93102,-0.42164 -0.93102,-0.94177c0,-0.52013 0.41682,-0.94178 0.93102,-0.94178c0.51418,0 1.22725,0.42165 1.22725,0.94178z" fill="#ff6d66"/><path d="M503.85779,190.8423c0.36359,0.36779 0.15412,1.17597 -0.20946,1.54377c-0.36359,0.36779 -0.95307,0.36779 -1.31666,0c-0.36359,-0.36779 -0.36359,-0.96409 0,-1.33188c0.36359,-0.36779 1.16253,-0.57967 1.52612,-0.21188z" fill="#ff6666"/><path d="M504.06805,190.39414c-0.51418,0 -0.931,-0.72131 -0.931,-1.24144c0,-0.52013 0.41682,-0.94179 0.931,-0.94179c0.51418,0 0.93102,0.42164 0.93102,0.94179c0,0.52013 -0.41684,1.24144 -0.93102,1.24144z" fill="#ff6d66"/><path d="M503.81545,190.28846c-0.36359,0.36779 -1.16253,0.15589 -1.52612,-0.2119c-0.36359,-0.36779 -0.36359,-0.96408 0,-1.33187c0.36359,-0.36779 0.95307,-0.36779 1.31666,0c0.36359,0.36779 0.57304,1.17597 0.20946,1.54377z" fill="#ff6666"/></g><path d="M504.47429,190.55834c0,-0.52013 0.71306,-0.94178 1.22724,-0.94178c0.51418,0 0.93102,0.42165 0.93102,0.94178c0,0.52013 -0.41682,0.94179 -0.93102,0.94179c-0.51418,0 -1.22724,-0.42164 -1.22724,-0.94179z" fill="#ff6d66"/><path d="M504.28249,190.26003c-0.36359,-0.36779 -0.15412,-1.17598 0.20946,-1.54377c0.36359,-0.36779 0.95307,-0.36779 1.31666,0c0.36359,0.36779 0.36359,0.9641 0,1.33189c-0.36359,0.36779 -1.16253,0.57967 -1.52612,0.21189z" fill="#ff6d66"/><path d="M504.07223,190.70816c0.51418,0 0.93102,0.72131 0.93102,1.24144c0,0.52013 -0.41682,0.94178 -0.93102,0.94178c-0.51418,0 -0.93102,-0.42165 -0.93102,-0.94178c0,-0.52013 0.41684,-1.24144 0.93102,-1.24144z" fill="#ff6d66"/><path d="M504.32483,190.81387c0.36359,-0.36779 1.16253,-0.1559 1.52612,0.21189c0.36359,0.36779 0.36359,0.9641 0,1.33189c-0.36359,0.36779 -0.95308,0.36779 -1.31666,0c-0.36359,-0.36779 -0.57304,-1.17598 -0.20946,-1.54377z" fill="#ff6666"/><path d="M503.13519,190.57652c0,-0.51714 0.41921,-0.93635 0.93635,-0.93635c0.51714,0 0.93635,0.41921 0.93635,0.93635c0,0.51714 -0.41921,0.93635 -0.93635,0.93635c-0.51714,0 -0.93635,-0.41921 -0.93635,-0.93635z" fill="#ffdc03"/><path d="M504.15454,194.03571c-0.02409,-0.21521 0.38549,-0.4163 0.69492,-0.43551c0.30944,-0.0192 0.5798,0.13966 0.60389,0.35487c0.02409,0.21521 -0.20722,0.40523 -0.51664,0.42444c-0.30944,0.0192 -0.75806,-0.12859 -0.78215,-0.34381z" fill="#44974a"/></g><g><path d="M502.33,184.42195c-0.30944,-0.0192 -0.54073,-0.20924 -0.51666,-0.42443c0.02409,-0.21521 0.29447,-0.37408 0.60388,-0.35487c0.30944,0.0192 0.719,0.22031 0.69493,0.4355c-0.02409,0.21521 -0.47273,0.36301 -0.78215,0.34381z" data-paper-data="{&quot;index&quot;:null}" fill="#44974a"/><path d="M503.13419,185.66487c0,0 0.08387,-0.55119 0.01554,-0.99079c-0.06135,-0.39478 -0.27564,-0.66938 -0.27564,-0.88192c0,-0.52676 0.2601,-1.09242 0.2601,-1.09242h0.15605c0,0 -0.06087,0.16988 -0.01586,0.89818c0.01943,0.31445 0.14325,1.32549 0.16005,1.49065c0.02826,0.27788 0.16793,0.68034 0.16793,0.68034z" data-paper-data="{&quot;index&quot;:null}" fill-opacity="0.97581" fill="#4dab53"/><path d="M502.87408,185.76891c0,0 0.13968,-0.40246 0.16793,-0.68034c0.0168,-0.16516 0.14061,-1.17621 0.16004,-1.49065c0.04501,-0.7283 -0.01587,-0.89817 -0.01587,-0.89817h0.15606c0,0 0.26009,0.56566 0.26009,1.09242c0,0.21255 -0.21429,0.48714 -0.27563,0.88192c-0.06831,0.43961 0.01554,0.99079 0.01554,0.99079z" fill="#44974a"/><g data-paper-data="{&quot;index&quot;:null}"><path d="M502.83273,181.21064c0,0.52013 -0.71307,0.94177 -1.22725,0.94177c-0.51418,0 -0.93102,-0.42164 -0.93102,-0.94177c0,-0.52013 0.41682,-0.94178 0.93102,-0.94178c0.51418,0 1.22725,0.42165 1.22725,0.94178z" fill="#ff6d66"/><path d="M503.02446,181.50898c0.36359,0.36779 0.15412,1.17597 -0.20946,1.54377c-0.36359,0.36779 -0.95307,0.36779 -1.31666,0c-0.36359,-0.36779 -0.36359,-0.96409 0,-1.33188c0.36359,-0.36779 1.16253,-0.57967 1.52612,-0.21188z" fill="#ff6666"/><path d="M503.23472,181.06082c-0.51418,0 -0.931,-0.72131 -0.931,-1.24144c0,-0.52013 0.41682,-0.94179 0.931,-0.94179c0.51418,0 0.93102,0.42164 0.93102,0.94179c0,0.52013 -0.41684,1.24144 -0.93102,1.24144z" fill="#ff6d66"/><path d="M502.98212,180.95513c-0.36359,0.36779 -1.16253,0.15589 -1.52612,-0.2119c-0.36359,-0.36779 -0.36359,-0.96408 0,-1.33187c0.36359,-0.36779 0.95307,-0.36779 1.31666,0c0.36359,0.36779 0.57304,1.17597 0.20946,1.54377z" fill="#ff6666"/></g><path d="M503.64096,181.22502c0,-0.52013 0.71306,-0.94178 1.22724,-0.94178c0.51418,0 0.93102,0.42165 0.93102,0.94178c0,0.52013 -0.41682,0.94179 -0.93102,0.94179c-0.51418,0 -1.22724,-0.42164 -1.22724,-0.94179z" fill="#ff6d66"/><path d="M503.44916,180.9267c-0.36359,-0.36779 -0.15412,-1.17598 0.20946,-1.54377c0.36359,-0.36779 0.95307,-0.36779 1.31666,0c0.36359,0.36779 0.36359,0.9641 0,1.33189c-0.36359,0.36779 -1.16253,0.57967 -1.52612,0.21189z" fill="#ff6d66"/><path d="M503.2389,181.37484c0.51418,0 0.93102,0.72131 0.93102,1.24144c0,0.52013 -0.41682,0.94178 -0.93102,0.94178c-0.51418,0 -0.93102,-0.42165 -0.93102,-0.94178c0,-0.52013 0.41684,-1.24144 0.93102,-1.24144z" fill="#ff6d66"/><path d="M503.4915,181.48053c0.36359,-0.36779 1.16253,-0.1559 1.52612,0.21189c0.36359,0.36779 0.36359,0.9641 0,1.33189c-0.36359,0.36779 -0.95308,0.36779 -1.31666,0c-0.36359,-0.36779 -0.57304,-1.17598 -0.20946,-1.54377z" fill="#ff6666"/><path d="M502.30186,181.24318c0,-0.51714 0.41921,-0.93635 0.93635,-0.93635c0.51714,0 0.93635,0.41921 0.93635,0.93635c0,0.51714 -0.41921,0.93635 -0.93635,0.93635c-0.51714,0 -0.93635,-0.41921 -0.93635,-0.93635z" fill="#ffdc03"/><path d="M503.32121,184.70239c-0.02409,-0.21521 0.38549,-0.4163 0.69492,-0.43551c0.30944,-0.0192 0.5798,0.13966 0.60389,0.35487c0.02409,0.21521 -0.20722,0.40523 -0.51664,0.42444c-0.30944,0.0192 -0.75806,-0.12859 -0.78215,-0.34381z" fill="#44974a"/></g><g><path d="M499.16333,189.33861c-0.30944,-0.0192 -0.54073,-0.20924 -0.51666,-0.42443c0.02409,-0.21521 0.29447,-0.37408 0.60388,-0.35487c0.30944,0.0192 0.719,0.22031 0.69493,0.4355c-0.02409,0.21521 -0.47273,0.36301 -0.78215,0.34381z" data-paper-data="{&quot;index&quot;:null}" fill="#44974a"/><path d="M499.96752,190.58153c0,0 0.08387,-0.55119 0.01554,-0.99079c-0.06135,-0.39478 -0.27564,-0.66938 -0.27564,-0.88192c0,-0.52676 0.2601,-1.09242 0.2601,-1.09242h0.15605c0,0 -0.06087,0.16988 -0.01586,0.89818c0.01943,0.31445 0.14325,1.32549 0.16005,1.49065c0.02826,0.27788 0.16793,0.68034 0.16793,0.68034z" data-paper-data="{&quot;index&quot;:null}" fill-opacity="0.97581" fill="#4dab53"/><path d="M499.70741,190.68558c0,0 0.13968,-0.40246 0.16793,-0.68034c0.0168,-0.16516 0.14061,-1.17621 0.16004,-1.49065c0.04501,-0.7283 -0.01587,-0.89817 -0.01587,-0.89817h0.15606c0,0 0.26009,0.56566 0.26009,1.09242c0,0.21255 -0.21429,0.48714 -0.27563,0.88192c-0.06831,0.43961 0.01554,0.99079 0.01554,0.99079z" fill="#44974a"/><g data-paper-data="{&quot;index&quot;:null}"><path d="M499.66606,186.1273c0,0.52013 -0.71307,0.94177 -1.22725,0.94177c-0.51418,0 -0.93102,-0.42164 -0.93102,-0.94177c0,-0.52013 0.41682,-0.94178 0.93102,-0.94178c0.51418,0 1.22725,0.42165 1.22725,0.94178z" fill="#ff6d66"/><path d="M499.85779,186.42564c0.36359,0.36779 0.15412,1.17597 -0.20946,1.54377c-0.36359,0.36779 -0.95307,0.36779 -1.31666,0c-0.36359,-0.36779 -0.36359,-0.96409 0,-1.33188c0.36359,-0.36779 1.16253,-0.57967 1.52612,-0.21188z" fill="#ff6666"/><path d="M500.06805,185.97749c-0.51418,0 -0.931,-0.72131 -0.931,-1.24144c0,-0.52013 0.41682,-0.94179 0.931,-0.94179c0.51418,0 0.93102,0.42164 0.93102,0.94179c0,0.52013 -0.41684,1.24144 -0.93102,1.24144z" fill="#ff6d66"/><path d="M499.81545,185.87181c-0.36359,0.36779 -1.16253,0.15589 -1.52612,-0.2119c-0.36359,-0.36779 -0.36359,-0.96408 0,-1.33187c0.36359,-0.36779 0.95307,-0.36779 1.31666,0c0.36359,0.36779 0.57304,1.17597 0.20946,1.54377z" fill="#ff6666"/></g><path d="M500.47429,186.14169c0,-0.52013 0.71306,-0.94178 1.22724,-0.94178c0.51418,0 0.93102,0.42165 0.93102,0.94178c0,0.52013 -0.41682,0.94179 -0.93102,0.94179c-0.51418,0 -1.22724,-0.42164 -1.22724,-0.94179z" fill="#ff6d66"/><path d="M500.28249,185.84336c-0.36359,-0.36779 -0.15412,-1.17598 0.20946,-1.54377c0.36359,-0.36779 0.95307,-0.36779 1.31666,0c0.36359,0.36779 0.36359,0.9641 0,1.33189c-0.36359,0.36779 -1.16253,0.57967 -1.52612,0.21189z" fill="#ff6d66"/><path d="M500.07223,186.29151c0.51418,0 0.93102,0.72131 0.93102,1.24144c0,0.52013 -0.41682,0.94178 -0.93102,0.94178c-0.51418,0 -0.93102,-0.42165 -0.93102,-0.94178c0,-0.52013 0.41684,-1.24144 0.93102,-1.24144z" fill="#ff6d66"/><path d="M500.32483,186.39721c0.36359,-0.36779 1.16253,-0.1559 1.52612,0.21189c0.36359,0.36779 0.36359,0.9641 0,1.33189c-0.36359,0.36779 -0.95308,0.36779 -1.31666,0c-0.36359,-0.36779 -0.57304,-1.17598 -0.20946,-1.54377z" fill="#ff6666"/><path d="M499.13519,186.15986c0,-0.51714 0.41921,-0.93635 0.93635,-0.93635c0.51714,0 0.93635,0.41921 0.93635,0.93635c0,0.51714 -0.41921,0.93635 -0.93635,0.93635c-0.51714,0 -0.93635,-0.41921 -0.93635,-0.93635z" fill="#ffdc03"/><path d="M500.15454,189.61905c-0.02409,-0.21521 0.38549,-0.4163 0.69492,-0.43551c0.30944,-0.0192 0.5798,0.13966 0.60389,0.35487c0.02409,0.21521 -0.20722,0.40523 -0.51664,0.42444c-0.30944,0.0192 -0.75806,-0.12859 -0.78215,-0.34381z" fill="#44974a"/></g><g><path d="M494.16333,188.75527c-0.30944,-0.0192 -0.54073,-0.20924 -0.51666,-0.42443c0.02409,-0.21521 0.29447,-0.37408 0.60388,-0.35487c0.30944,0.0192 0.719,0.22031 0.69493,0.4355c-0.02409,0.21521 -0.47273,0.36301 -0.78215,0.34381z" data-paper-data="{&quot;index&quot;:null}" fill="#44974a"/><path d="M494.96752,189.99819c0,0 0.08387,-0.55119 0.01554,-0.99079c-0.06135,-0.39478 -0.27564,-0.66938 -0.27564,-0.88192c0,-0.52676 0.2601,-1.09242 0.2601,-1.09242h0.15605c0,0 -0.06087,0.16988 -0.01586,0.89818c0.01943,0.31445 0.14325,1.32549 0.16005,1.49065c0.02826,0.27788 0.16793,0.68034 0.16793,0.68034z" data-paper-data="{&quot;index&quot;:null}" fill-opacity="0.97581" fill="#4dab53"/><path d="M494.70741,190.10223c0,0 0.13968,-0.40246 0.16793,-0.68034c0.0168,-0.16516 0.14061,-1.17621 0.16004,-1.49065c0.04501,-0.7283 -0.01587,-0.89817 -0.01587,-0.89817h0.15606c0,0 0.26009,0.56566 0.26009,1.09242c0,0.21255 -0.21429,0.48714 -0.27563,0.88192c-0.06831,0.43961 0.01554,0.99079 0.01554,0.99079z" fill="#44974a"/><g data-paper-data="{&quot;index&quot;:null}"><path d="M494.66606,185.54397c0,0.52013 -0.71307,0.94177 -1.22725,0.94177c-0.51418,0 -0.93102,-0.42164 -0.93102,-0.94177c0,-0.52013 0.41682,-0.94178 0.93102,-0.94178c0.51418,0 1.22725,0.42165 1.22725,0.94178z" fill="#ff6d66"/><path d="M494.85779,185.8423c0.36359,0.36779 0.15412,1.17597 -0.20946,1.54377c-0.36359,0.36779 -0.95307,0.36779 -1.31666,0c-0.36359,-0.36779 -0.36359,-0.96409 0,-1.33188c0.36359,-0.36779 1.16253,-0.57967 1.52612,-0.21188z" fill="#ff6666"/><path d="M495.06805,185.39414c-0.51418,0 -0.931,-0.72131 -0.931,-1.24144c0,-0.52013 0.41682,-0.94179 0.931,-0.94179c0.51418,0 0.93102,0.42164 0.93102,0.94179c0,0.52013 -0.41684,1.24144 -0.93102,1.24144z" fill="#ff6d66"/><path d="M494.81545,185.28846c-0.36359,0.36779 -1.16253,0.15589 -1.52612,-0.2119c-0.36359,-0.36779 -0.36359,-0.96408 0,-1.33187c0.36359,-0.36779 0.95307,-0.36779 1.31666,0c0.36359,0.36779 0.57304,1.17597 0.20946,1.54377z" fill="#ff6666"/></g><path d="M495.47429,185.55834c0,-0.52013 0.71306,-0.94178 1.22724,-0.94178c0.51418,0 0.93102,0.42165 0.93102,0.94178c0,0.52013 -0.41682,0.94179 -0.93102,0.94179c-0.51418,0 -1.22724,-0.42164 -1.22724,-0.94179z" fill="#ff6d66"/><path d="M495.28249,185.26003c-0.36359,-0.36779 -0.15412,-1.17598 0.20946,-1.54377c0.36359,-0.36779 0.95307,-0.36779 1.31666,0c0.36359,0.36779 0.36359,0.9641 0,1.33189c-0.36359,0.36779 -1.16253,0.57967 -1.52612,0.21189z" fill="#ff6d66"/><path d="M495.07223,185.70816c0.51418,0 0.93102,0.72131 0.93102,1.24144c0,0.52013 -0.41682,0.94178 -0.93102,0.94178c-0.51418,0 -0.93102,-0.42165 -0.93102,-0.94178c0,-0.52013 0.41684,-1.24144 0.93102,-1.24144z" fill="#ff6d66"/><path d="M495.32483,185.81387c0.36359,-0.36779 1.16253,-0.1559 1.52612,0.21189c0.36359,0.36779 0.36359,0.9641 0,1.33189c-0.36359,0.36779 -0.95308,0.36779 -1.31666,0c-0.36359,-0.36779 -0.57304,-1.17598 -0.20946,-1.54377z" fill="#ff6666"/><path d="M494.13519,185.57652c0,-0.51714 0.41921,-0.93635 0.93635,-0.93635c0.51714,0 0.93635,0.41921 0.93635,0.93635c0,0.51714 -0.41921,0.93635 -0.93635,0.93635c-0.51714,0 -0.93635,-0.41921 -0.93635,-0.93635z" fill="#ffdc03"/><path d="M495.15454,189.03571c-0.02409,-0.21521 0.38549,-0.4163 0.69492,-0.43551c0.30944,-0.0192 0.5798,0.13966 0.60389,0.35487c0.02409,0.21521 -0.20722,0.40523 -0.51664,0.42444c-0.30944,0.0192 -0.75806,-0.12859 -0.78215,-0.34381z" fill="#44974a"/></g><g><path d="M504.91333,176.25527c-0.30944,-0.0192 -0.54073,-0.20924 -0.51666,-0.42443c0.02409,-0.21521 0.29447,-0.37408 0.60388,-0.35487c0.30944,0.0192 0.719,0.22031 0.69493,0.4355c-0.02409,0.21521 -0.47273,0.36301 -0.78215,0.34381z" data-paper-data="{&quot;index&quot;:null}" fill="#44974a"/><path d="M505.71752,177.49819c0,0 0.08387,-0.55119 0.01554,-0.99079c-0.06135,-0.39478 -0.27564,-0.66938 -0.27564,-0.88192c0,-0.52676 0.2601,-1.09242 0.2601,-1.09242h0.15605c0,0 -0.06087,0.16988 -0.01586,0.89818c0.01943,0.31445 0.14325,1.32549 0.16005,1.49065c0.02826,0.27788 0.16793,0.68034 0.16793,0.68034z" data-paper-data="{&quot;index&quot;:null}" fill-opacity="0.97581" fill="#4dab53"/><path d="M505.45741,177.60223c0,0 0.13968,-0.40246 0.16793,-0.68034c0.0168,-0.16516 0.14061,-1.17621 0.16004,-1.49065c0.04501,-0.7283 -0.01587,-0.89817 -0.01587,-0.89817h0.15606c0,0 0.26009,0.56566 0.26009,1.09242c0,0.21255 -0.21429,0.48714 -0.27563,0.88192c-0.06831,0.43961 0.01554,0.99079 0.01554,0.99079z" fill="#44974a"/><g data-paper-data="{&quot;index&quot;:null}"><path d="M505.41606,173.04397c0,0.52013 -0.71307,0.94177 -1.22725,0.94177c-0.51418,0 -0.93102,-0.42164 -0.93102,-0.94177c0,-0.52013 0.41682,-0.94178 0.93102,-0.94178c0.51418,0 1.22725,0.42165 1.22725,0.94178z" fill="#ff6d66"/><path d="M505.60779,173.3423c0.36359,0.36779 0.15412,1.17597 -0.20946,1.54377c-0.36359,0.36779 -0.95307,0.36779 -1.31666,0c-0.36359,-0.36779 -0.36359,-0.96409 0,-1.33188c0.36359,-0.36779 1.16253,-0.57967 1.52612,-0.21188z" fill="#ff6666"/><path d="M505.81805,172.89414c-0.51418,0 -0.931,-0.72131 -0.931,-1.24144c0,-0.52013 0.41682,-0.94179 0.931,-0.94179c0.51418,0 0.93102,0.42164 0.93102,0.94179c0,0.52013 -0.41684,1.24144 -0.93102,1.24144z" fill="#ff6d66"/><path d="M505.56545,172.78846c-0.36359,0.36779 -1.16253,0.15589 -1.52612,-0.2119c-0.36359,-0.36779 -0.36359,-0.96408 0,-1.33187c0.36359,-0.36779 0.95307,-0.36779 1.31666,0c0.36359,0.36779 0.57304,1.17597 0.20946,1.54377z" fill="#ff6666"/></g><path d="M506.22429,173.05834c0,-0.52013 0.71306,-0.94178 1.22724,-0.94178c0.51418,0 0.93102,0.42165 0.93102,0.94178c0,0.52013 -0.41682,0.94179 -0.93102,0.94179c-0.51418,0 -1.22724,-0.42164 -1.22724,-0.94179z" fill="#ff6d66"/><path d="M506.03249,172.76003c-0.36359,-0.36779 -0.15412,-1.17598 0.20946,-1.54377c0.36359,-0.36779 0.95307,-0.36779 1.31666,0c0.36359,0.36779 0.36359,0.9641 0,1.33189c-0.36359,0.36779 -1.16253,0.57967 -1.52612,0.21189z" fill="#ff6d66"/><path d="M505.82223,173.20816c0.51418,0 0.93102,0.72131 0.93102,1.24144c0,0.52013 -0.41682,0.94178 -0.93102,0.94178c-0.51418,0 -0.93102,-0.42165 -0.93102,-0.94178c0,-0.52013 0.41684,-1.24144 0.93102,-1.24144z" fill="#ff6d66"/><path d="M506.07483,173.31387c0.36359,-0.36779 1.16253,-0.1559 1.52612,0.21189c0.36359,0.36779 0.36359,0.9641 0,1.33189c-0.36359,0.36779 -0.95308,0.36779 -1.31666,0c-0.36359,-0.36779 -0.57304,-1.17598 -0.20946,-1.54377z" fill="#ff6666"/><path d="M504.88519,173.07652c0,-0.51714 0.41921,-0.93635 0.93635,-0.93635c0.51714,0 0.93635,0.41921 0.93635,0.93635c0,0.51714 -0.41921,0.93635 -0.93635,0.93635c-0.51714,0 -0.93635,-0.41921 -0.93635,-0.93635z" fill="#ffdc03"/><path d="M505.90454,176.53571c-0.02409,-0.21521 0.38549,-0.4163 0.69492,-0.43551c0.30944,-0.0192 0.5798,0.13966 0.60389,0.35487c0.02409,0.21521 -0.20722,0.40523 -0.51664,0.42444c-0.30944,0.0192 -0.75806,-0.12859 -0.78215,-0.34381z" fill="#44974a"/></g><g><path d="M487.49666,187.00527c-0.30944,-0.0192 -0.54073,-0.20924 -0.51666,-0.42443c0.02409,-0.21521 0.29447,-0.37408 0.60388,-0.35487c0.30944,0.0192 0.719,0.22031 0.69493,0.4355c-0.02409,0.21521 -0.47273,0.36301 -0.78215,0.34381z" data-paper-data="{&quot;index&quot;:null}" fill="#44974a"/><path d="M488.30085,188.24819c0,0 0.08387,-0.55119 0.01554,-0.99079c-0.06135,-0.39478 -0.27564,-0.66938 -0.27564,-0.88192c0,-0.52676 0.2601,-1.09242 0.2601,-1.09242h0.15605c0,0 -0.06087,0.16988 -0.01586,0.89818c0.01943,0.31445 0.14325,1.32549 0.16005,1.49065c0.02826,0.27788 0.16793,0.68034 0.16793,0.68034z" data-paper-data="{&quot;index&quot;:null}" fill-opacity="0.97581" fill="#4dab53"/><path d="M488.04074,188.35223c0,0 0.13968,-0.40246 0.16793,-0.68034c0.0168,-0.16516 0.14061,-1.17621 0.16004,-1.49065c0.04501,-0.7283 -0.01587,-0.89817 -0.01587,-0.89817h0.15606c0,0 0.26009,0.56566 0.26009,1.09242c0,0.21255 -0.21429,0.48714 -0.27563,0.88192c-0.06831,0.43961 0.01554,0.99079 0.01554,0.99079z" fill="#44974a"/><g data-paper-data="{&quot;index&quot;:null}"><path d="M487.99939,183.79397c0,0.52013 -0.71307,0.94177 -1.22725,0.94177c-0.51418,0 -0.93102,-0.42164 -0.93102,-0.94177c0,-0.52013 0.41682,-0.94178 0.93102,-0.94178c0.51418,0 1.22725,0.42165 1.22725,0.94178z" fill="#ff6d66"/><path d="M488.19112,184.0923c0.36359,0.36779 0.15412,1.17597 -0.20946,1.54377c-0.36359,0.36779 -0.95307,0.36779 -1.31666,0c-0.36359,-0.36779 -0.36359,-0.96409 0,-1.33188c0.36359,-0.36779 1.16253,-0.57967 1.52612,-0.21188z" fill="#ff6666"/><path d="M488.40138,183.64414c-0.51418,0 -0.931,-0.72131 -0.931,-1.24144c0,-0.52013 0.41682,-0.94179 0.931,-0.94179c0.51418,0 0.93102,0.42164 0.93102,0.94179c0,0.52013 -0.41684,1.24144 -0.93102,1.24144z" fill="#ff6d66"/><path d="M488.14878,183.53846c-0.36359,0.36779 -1.16253,0.15589 -1.52612,-0.2119c-0.36359,-0.36779 -0.36359,-0.96408 0,-1.33187c0.36359,-0.36779 0.95307,-0.36779 1.31666,0c0.36359,0.36779 0.57304,1.17597 0.20946,1.54377z" fill="#ff6666"/></g><path d="M488.80762,183.80834c0,-0.52013 0.71306,-0.94178 1.22724,-0.94178c0.51418,0 0.93102,0.42165 0.93102,0.94178c0,0.52013 -0.41682,0.94179 -0.93102,0.94179c-0.51418,0 -1.22724,-0.42164 -1.22724,-0.94179z" fill="#ff6d66"/><path d="M488.61582,183.51003c-0.36359,-0.36779 -0.15412,-1.17598 0.20946,-1.54377c0.36359,-0.36779 0.95307,-0.36779 1.31666,0c0.36359,0.36779 0.36359,0.9641 0,1.33189c-0.36359,0.36779 -1.16253,0.57967 -1.52612,0.21189z" fill="#ff6d66"/><path d="M488.40556,183.95816c0.51418,0 0.93102,0.72131 0.93102,1.24144c0,0.52013 -0.41682,0.94178 -0.93102,0.94178c-0.51418,0 -0.93102,-0.42165 -0.93102,-0.94178c0,-0.52013 0.41684,-1.24144 0.93102,-1.24144z" fill="#ff6d66"/><path d="M488.65816,184.06387c0.36359,-0.36779 1.16253,-0.1559 1.52612,0.21189c0.36359,0.36779 0.36359,0.9641 0,1.33189c-0.36359,0.36779 -0.95308,0.36779 -1.31666,0c-0.36359,-0.36779 -0.57304,-1.17598 -0.20946,-1.54377z" fill="#ff6666"/><path d="M487.46852,183.82652c0,-0.51714 0.41921,-0.93635 0.93635,-0.93635c0.51714,0 0.93635,0.41921 0.93635,0.93635c0,0.51714 -0.41921,0.93635 -0.93635,0.93635c-0.51714,0 -0.93635,-0.41921 -0.93635,-0.93635z" fill="#ffdc03"/><path d="M488.48787,187.28571c-0.02409,-0.21521 0.38549,-0.4163 0.69492,-0.43551c0.30944,-0.0192 0.5798,0.13966 0.60389,0.35487c0.02409,0.21521 -0.20722,0.40523 -0.51664,0.42444c-0.30944,0.0192 -0.75806,-0.12859 -0.78215,-0.34381z" fill="#44974a"/></g><g><path d="M479.24666,188.58861c-0.30944,-0.0192 -0.54073,-0.20924 -0.51666,-0.42443c0.02409,-0.21521 0.29447,-0.37408 0.60388,-0.35487c0.30944,0.0192 0.719,0.22031 0.69493,0.4355c-0.02409,0.21521 -0.47273,0.36301 -0.78215,0.34381z" data-paper-data="{&quot;index&quot;:null}" fill="#44974a"/><path d="M480.05085,189.83153c0,0 0.08387,-0.55119 0.01554,-0.99079c-0.06135,-0.39478 -0.27564,-0.66938 -0.27564,-0.88192c0,-0.52676 0.2601,-1.09242 0.2601,-1.09242h0.15605c0,0 -0.06087,0.16988 -0.01586,0.89818c0.01943,0.31445 0.14325,1.32549 0.16005,1.49065c0.02826,0.27788 0.16793,0.68034 0.16793,0.68034z" data-paper-data="{&quot;index&quot;:null}" fill-opacity="0.97581" fill="#4dab53"/><path d="M479.79074,189.93557c0,0 0.13968,-0.40246 0.16793,-0.68034c0.0168,-0.16516 0.14061,-1.17621 0.16004,-1.49065c0.04501,-0.7283 -0.01587,-0.89817 -0.01587,-0.89817h0.15606c0,0 0.26009,0.56566 0.26009,1.09242c0,0.21255 -0.21429,0.48714 -0.27563,0.88192c-0.06831,0.43961 0.01554,0.99079 0.01554,0.99079z" fill="#44974a"/><g data-paper-data="{&quot;index&quot;:null}"><path d="M479.74939,185.37729c0,0.52013 -0.71307,0.94177 -1.22725,0.94177c-0.51418,0 -0.93102,-0.42164 -0.93102,-0.94177c0,-0.52013 0.41682,-0.94178 0.93102,-0.94178c0.51418,0 1.22725,0.42165 1.22725,0.94178z" fill="#ff6d66"/><path d="M479.94112,185.67564c0.36359,0.36779 0.15412,1.17597 -0.20946,1.54377c-0.36359,0.36779 -0.95307,0.36779 -1.31666,0c-0.36359,-0.36779 -0.36359,-0.96409 0,-1.33188c0.36359,-0.36779 1.16253,-0.57967 1.52612,-0.21188z" fill="#ff6666"/><path d="M480.15138,185.22748c-0.51418,0 -0.931,-0.72131 -0.931,-1.24144c0,-0.52013 0.41682,-0.94179 0.931,-0.94179c0.51418,0 0.93102,0.42164 0.93102,0.94179c0,0.52013 -0.41684,1.24144 -0.93102,1.24144z" fill="#ff6d66"/><path d="M479.89878,185.1218c-0.36359,0.36779 -1.16253,0.15589 -1.52612,-0.2119c-0.36359,-0.36779 -0.36359,-0.96408 0,-1.33187c0.36359,-0.36779 0.95307,-0.36779 1.31666,0c0.36359,0.36779 0.57304,1.17597 0.20946,1.54377z" fill="#ff6666"/></g><path d="M480.55762,185.39168c0,-0.52013 0.71306,-0.94178 1.22724,-0.94178c0.51418,0 0.93102,0.42165 0.93102,0.94178c0,0.52013 -0.41682,0.94179 -0.93102,0.94179c-0.51418,0 -1.22724,-0.42164 -1.22724,-0.94179z" fill="#ff6d66"/><path d="M480.36582,185.09335c-0.36359,-0.36779 -0.15412,-1.17598 0.20946,-1.54377c0.36359,-0.36779 0.95307,-0.36779 1.31666,0c0.36359,0.36779 0.36359,0.9641 0,1.33189c-0.36359,0.36779 -1.16253,0.57967 -1.52612,0.21189z" fill="#ff6d66"/><path d="M480.15556,185.5415c0.51418,0 0.93102,0.72131 0.93102,1.24144c0,0.52013 -0.41682,0.94178 -0.93102,0.94178c-0.51418,0 -0.93102,-0.42165 -0.93102,-0.94178c0,-0.52013 0.41684,-1.24144 0.93102,-1.24144z" fill="#ff6d66"/><path d="M480.40816,185.64719c0.36359,-0.36779 1.16253,-0.1559 1.52612,0.21189c0.36359,0.36779 0.36359,0.9641 0,1.33189c-0.36359,0.36779 -0.95308,0.36779 -1.31666,0c-0.36359,-0.36779 -0.57304,-1.17598 -0.20946,-1.54377z" fill="#ff6666"/><path d="M479.21852,185.40985c0,-0.51714 0.41921,-0.93635 0.93635,-0.93635c0.51714,0 0.93635,0.41921 0.93635,0.93635c0,0.51714 -0.41921,0.93635 -0.93635,0.93635c-0.51714,0 -0.93635,-0.41921 -0.93635,-0.93635z" fill="#ffdc03"/><path d="M480.23787,188.86905c-0.02409,-0.21521 0.38549,-0.4163 0.69492,-0.43551c0.30944,-0.0192 0.5798,0.13966 0.60389,0.35487c0.02409,0.21521 -0.20722,0.40523 -0.51664,0.42444c-0.30944,0.0192 -0.75806,-0.12859 -0.78215,-0.34381z" fill="#44974a"/></g><g><path d="M435.24666,177.50527c-0.30944,-0.0192 -0.54073,-0.20924 -0.51666,-0.42443c0.02409,-0.21521 0.29447,-0.37408 0.60388,-0.35487c0.30944,0.0192 0.719,0.22031 0.69493,0.4355c-0.02409,0.21521 -0.47273,0.36301 -0.78215,0.34381z" data-paper-data="{&quot;index&quot;:null}" fill="#44974a"/><path d="M436.05085,178.74819c0,0 0.08387,-0.55119 0.01554,-0.99079c-0.06135,-0.39478 -0.27564,-0.66938 -0.27564,-0.88192c0,-0.52676 0.2601,-1.09242 0.2601,-1.09242h0.15605c0,0 -0.06087,0.16988 -0.01586,0.89818c0.01943,0.31445 0.14325,1.32549 0.16005,1.49065c0.02826,0.27788 0.16793,0.68034 0.16793,0.68034z" data-paper-data="{&quot;index&quot;:null}" fill-opacity="0.97581" fill="#4dab53"/><path d="M435.79074,178.85223c0,0 0.13968,-0.40246 0.16793,-0.68034c0.0168,-0.16516 0.14061,-1.17621 0.16004,-1.49065c0.04501,-0.7283 -0.01587,-0.89817 -0.01587,-0.89817h0.15606c0,0 0.26009,0.56566 0.26009,1.09242c0,0.21255 -0.21429,0.48714 -0.27563,0.88192c-0.06831,0.43961 0.01554,0.99079 0.01554,0.99079z" fill="#44974a"/><g data-paper-data="{&quot;index&quot;:null}"><path d="M435.74939,174.29397c0,0.52013 -0.71307,0.94177 -1.22725,0.94177c-0.51418,0 -0.93102,-0.42164 -0.93102,-0.94177c0,-0.52013 0.41682,-0.94178 0.93102,-0.94178c0.51418,0 1.22725,0.42165 1.22725,0.94178z" fill="#ff6d66"/><path d="M435.94112,174.5923c0.36359,0.36779 0.15412,1.17597 -0.20946,1.54377c-0.36359,0.36779 -0.95307,0.36779 -1.31666,0c-0.36359,-0.36779 -0.36359,-0.96409 0,-1.33188c0.36359,-0.36779 1.16253,-0.57967 1.52612,-0.21188z" fill="#ff6666"/><path d="M436.15138,174.14414c-0.51418,0 -0.931,-0.72131 -0.931,-1.24144c0,-0.52013 0.41682,-0.94179 0.931,-0.94179c0.51418,0 0.93102,0.42164 0.93102,0.94179c0,0.52013 -0.41684,1.24144 -0.93102,1.24144z" fill="#ff6d66"/><path d="M435.89878,174.03846c-0.36359,0.36779 -1.16253,0.15589 -1.52612,-0.2119c-0.36359,-0.36779 -0.36359,-0.96408 0,-1.33187c0.36359,-0.36779 0.95307,-0.36779 1.31666,0c0.36359,0.36779 0.57304,1.17597 0.20946,1.54377z" fill="#ff6666"/></g><path d="M436.55762,174.30834c0,-0.52013 0.71306,-0.94178 1.22724,-0.94178c0.51418,0 0.93102,0.42165 0.93102,0.94178c0,0.52013 -0.41682,0.94179 -0.93102,0.94179c-0.51418,0 -1.22724,-0.42164 -1.22724,-0.94179z" fill="#ff6d66"/><path d="M436.36582,174.01003c-0.36359,-0.36779 -0.15412,-1.17598 0.20946,-1.54377c0.36359,-0.36779 0.95307,-0.36779 1.31666,0c0.36359,0.36779 0.36359,0.9641 0,1.33189c-0.36359,0.36779 -1.16253,0.57967 -1.52612,0.21189z" fill="#ff6d66"/><path d="M436.15556,174.45816c0.51418,0 0.93102,0.72131 0.93102,1.24144c0,0.52013 -0.41682,0.94178 -0.93102,0.94178c-0.51418,0 -0.93102,-0.42165 -0.93102,-0.94178c0,-0.52013 0.41684,-1.24144 0.93102,-1.24144z" fill="#ff6d66"/><path d="M436.40816,174.56387c0.36359,-0.36779 1.16253,-0.1559 1.52612,0.21189c0.36359,0.36779 0.36359,0.9641 0,1.33189c-0.36359,0.36779 -0.95308,0.36779 -1.31666,0c-0.36359,-0.36779 -0.57304,-1.17598 -0.20946,-1.54377z" fill="#ff6666"/><path d="M435.21852,174.32652c0,-0.51714 0.41921,-0.93635 0.93635,-0.93635c0.51714,0 0.93635,0.41921 0.93635,0.93635c0,0.51714 -0.41921,0.93635 -0.93635,0.93635c-0.51714,0 -0.93635,-0.41921 -0.93635,-0.93635z" fill="#ffdc03"/><path d="M436.23787,177.78571c-0.02409,-0.21521 0.38549,-0.4163 0.69492,-0.43551c0.30944,-0.0192 0.5798,0.13966 0.60389,0.35487c0.02409,0.21521 -0.20722,0.40523 -0.51664,0.42444c-0.30944,0.0192 -0.75806,-0.12859 -0.78215,-0.34381z" fill="#44974a"/></g><g><path d="M443.58,184.75527c-0.30944,-0.0192 -0.54073,-0.20924 -0.51666,-0.42443c0.02409,-0.21521 0.29447,-0.37408 0.60388,-0.35487c0.30944,0.0192 0.719,0.22031 0.69493,0.4355c-0.02409,0.21521 -0.47273,0.36301 -0.78215,0.34381z" data-paper-data="{&quot;index&quot;:null}" fill="#44974a"/><path d="M444.38419,185.99819c0,0 0.08387,-0.55119 0.01554,-0.99079c-0.06135,-0.39478 -0.27564,-0.66938 -0.27564,-0.88192c0,-0.52676 0.2601,-1.09242 0.2601,-1.09242h0.15605c0,0 -0.06087,0.16988 -0.01586,0.89818c0.01943,0.31445 0.14325,1.32549 0.16005,1.49065c0.02826,0.27788 0.16793,0.68034 0.16793,0.68034z" data-paper-data="{&quot;index&quot;:null}" fill-opacity="0.97581" fill="#4dab53"/><path d="M444.12408,186.10223c0,0 0.13968,-0.40246 0.16793,-0.68034c0.0168,-0.16516 0.14061,-1.17621 0.16004,-1.49065c0.04501,-0.7283 -0.01587,-0.89817 -0.01587,-0.89817h0.15606c0,0 0.26009,0.56566 0.26009,1.09242c0,0.21255 -0.21429,0.48714 -0.27563,0.88192c-0.06831,0.43961 0.01554,0.99079 0.01554,0.99079z" fill="#44974a"/><g data-paper-data="{&quot;index&quot;:null}"><path d="M444.08273,181.54397c0,0.52013 -0.71307,0.94177 -1.22725,0.94177c-0.51418,0 -0.93102,-0.42164 -0.93102,-0.94177c0,-0.52013 0.41682,-0.94178 0.93102,-0.94178c0.51418,0 1.22725,0.42165 1.22725,0.94178z" fill="#ff6d66"/><path d="M444.27446,181.8423c0.36359,0.36779 0.15412,1.17597 -0.20946,1.54377c-0.36359,0.36779 -0.95307,0.36779 -1.31666,0c-0.36359,-0.36779 -0.36359,-0.96409 0,-1.33188c0.36359,-0.36779 1.16253,-0.57967 1.52612,-0.21188z" fill="#ff6666"/><path d="M444.48472,181.39414c-0.51418,0 -0.931,-0.72131 -0.931,-1.24144c0,-0.52013 0.41682,-0.94179 0.931,-0.94179c0.51418,0 0.93102,0.42164 0.93102,0.94179c0,0.52013 -0.41684,1.24144 -0.93102,1.24144z" fill="#ff6d66"/><path d="M444.23212,181.28846c-0.36359,0.36779 -1.16253,0.15589 -1.52612,-0.2119c-0.36359,-0.36779 -0.36359,-0.96408 0,-1.33187c0.36359,-0.36779 0.95307,-0.36779 1.31666,0c0.36359,0.36779 0.57304,1.17597 0.20946,1.54377z" fill="#ff6666"/></g><path d="M444.89096,181.55834c0,-0.52013 0.71306,-0.94178 1.22724,-0.94178c0.51418,0 0.93102,0.42165 0.93102,0.94178c0,0.52013 -0.41682,0.94179 -0.93102,0.94179c-0.51418,0 -1.22724,-0.42164 -1.22724,-0.94179z" fill="#ff6d66"/><path d="M444.69916,181.26003c-0.36359,-0.36779 -0.15412,-1.17598 0.20946,-1.54377c0.36359,-0.36779 0.95307,-0.36779 1.31666,0c0.36359,0.36779 0.36359,0.9641 0,1.33189c-0.36359,0.36779 -1.16253,0.57967 -1.52612,0.21189z" fill="#ff6d66"/><path d="M444.4889,181.70816c0.51418,0 0.93102,0.72131 0.93102,1.24144c0,0.52013 -0.41682,0.94178 -0.93102,0.94178c-0.51418,0 -0.93102,-0.42165 -0.93102,-0.94178c0,-0.52013 0.41684,-1.24144 0.93102,-1.24144z" fill="#ff6d66"/><path d="M444.7415,181.81387c0.36359,-0.36779 1.16253,-0.1559 1.52612,0.21189c0.36359,0.36779 0.36359,0.9641 0,1.33189c-0.36359,0.36779 -0.95308,0.36779 -1.31666,0c-0.36359,-0.36779 -0.57304,-1.17598 -0.20946,-1.54377z" fill="#ff6666"/><path d="M443.55186,181.57652c0,-0.51714 0.41921,-0.93635 0.93635,-0.93635c0.51714,0 0.93635,0.41921 0.93635,0.93635c0,0.51714 -0.41921,0.93635 -0.93635,0.93635c-0.51714,0 -0.93635,-0.41921 -0.93635,-0.93635z" fill="#ffdc03"/><path d="M444.57121,185.03571c-0.02409,-0.21521 0.38549,-0.4163 0.69492,-0.43551c0.30944,-0.0192 0.5798,0.13966 0.60389,0.35487c0.02409,0.21521 -0.20722,0.40523 -0.51664,0.42444c-0.30944,0.0192 -0.75806,-0.12859 -0.78215,-0.34381z" fill="#44974a"/></g><g><path d="M440.58,176.67194c-0.30944,-0.0192 -0.54073,-0.20924 -0.51666,-0.42443c0.02409,-0.21521 0.29447,-0.37408 0.60388,-0.35487c0.30944,0.0192 0.719,0.22031 0.69493,0.4355c-0.02409,0.21521 -0.47273,0.36301 -0.78215,0.34381z" data-paper-data="{&quot;index&quot;:null}" fill="#44974a"/><path d="M441.38419,177.91486c0,0 0.08387,-0.55119 0.01554,-0.99079c-0.06135,-0.39478 -0.27564,-0.66938 -0.27564,-0.88192c0,-0.52676 0.2601,-1.09242 0.2601,-1.09242h0.15605c0,0 -0.06087,0.16988 -0.01586,0.89818c0.01943,0.31445 0.14325,1.32549 0.16005,1.49065c0.02826,0.27788 0.16793,0.68034 0.16793,0.68034z" data-paper-data="{&quot;index&quot;:null}" fill-opacity="0.97581" fill="#4dab53"/><path d="M441.12408,178.0189c0,0 0.13968,-0.40246 0.16793,-0.68034c0.0168,-0.16516 0.14061,-1.17621 0.16004,-1.49065c0.04501,-0.7283 -0.01587,-0.89817 -0.01587,-0.89817h0.15606c0,0 0.26009,0.56566 0.26009,1.09242c0,0.21255 -0.21429,0.48714 -0.27563,0.88192c-0.06831,0.43961 0.01554,0.99079 0.01554,0.99079z" fill="#44974a"/><g data-paper-data="{&quot;index&quot;:null}"><path d="M441.08273,173.46063c0,0.52013 -0.71307,0.94177 -1.22725,0.94177c-0.51418,0 -0.93102,-0.42164 -0.93102,-0.94177c0,-0.52013 0.41682,-0.94178 0.93102,-0.94178c0.51418,0 1.22725,0.42165 1.22725,0.94178z" fill="#ff6d66"/><path d="M441.27446,173.75897c0.36359,0.36779 0.15412,1.17597 -0.20946,1.54377c-0.36359,0.36779 -0.95307,0.36779 -1.31666,0c-0.36359,-0.36779 -0.36359,-0.96409 0,-1.33188c0.36359,-0.36779 1.16253,-0.57967 1.52612,-0.21188z" fill="#ff6666"/><path d="M441.48472,173.31081c-0.51418,0 -0.931,-0.72131 -0.931,-1.24144c0,-0.52013 0.41682,-0.94179 0.931,-0.94179c0.51418,0 0.93102,0.42164 0.93102,0.94179c0,0.52013 -0.41684,1.24144 -0.93102,1.24144z" fill="#ff6d66"/><path d="M441.23212,173.20512c-0.36359,0.36779 -1.16253,0.15589 -1.52612,-0.2119c-0.36359,-0.36779 -0.36359,-0.96408 0,-1.33187c0.36359,-0.36779 0.95307,-0.36779 1.31666,0c0.36359,0.36779 0.57304,1.17597 0.20946,1.54377z" fill="#ff6666"/></g><path d="M441.89096,173.475c0,-0.52013 0.71306,-0.94178 1.22724,-0.94178c0.51418,0 0.93102,0.42165 0.93102,0.94178c0,0.52013 -0.41682,0.94179 -0.93102,0.94179c-0.51418,0 -1.22724,-0.42164 -1.22724,-0.94179z" fill="#ff6d66"/><path d="M441.69916,173.17669c-0.36359,-0.36779 -0.15412,-1.17598 0.20946,-1.54377c0.36359,-0.36779 0.95307,-0.36779 1.31666,0c0.36359,0.36779 0.36359,0.9641 0,1.33189c-0.36359,0.36779 -1.16253,0.57967 -1.52612,0.21189z" fill="#ff6d66"/><path d="M441.4889,173.62483c0.51418,0 0.93102,0.72131 0.93102,1.24144c0,0.52013 -0.41682,0.94178 -0.93102,0.94178c-0.51418,0 -0.93102,-0.42165 -0.93102,-0.94178c0,-0.52013 0.41684,-1.24144 0.93102,-1.24144z" fill="#ff6d66"/><path d="M441.7415,173.73053c0.36359,-0.36779 1.16253,-0.1559 1.52612,0.21189c0.36359,0.36779 0.36359,0.9641 0,1.33189c-0.36359,0.36779 -0.95308,0.36779 -1.31666,0c-0.36359,-0.36779 -0.57304,-1.17598 -0.20946,-1.54377z" fill="#ff6666"/><path d="M440.55186,173.49317c0,-0.51714 0.41921,-0.93635 0.93635,-0.93635c0.51714,0 0.93635,0.41921 0.93635,0.93635c0,0.51714 -0.41921,0.93635 -0.93635,0.93635c-0.51714,0 -0.93635,-0.41921 -0.93635,-0.93635z" fill="#ffdc03"/><path d="M441.57121,176.95238c-0.02409,-0.21521 0.38549,-0.4163 0.69492,-0.43551c0.30944,-0.0192 0.5798,0.13966 0.60389,0.35487c0.02409,0.21521 -0.20722,0.40523 -0.51664,0.42444c-0.30944,0.0192 -0.75806,-0.12859 -0.78215,-0.34381z" fill="#44974a"/></g><g><path d="M448.08,181.92194c-0.30944,-0.0192 -0.54073,-0.20924 -0.51666,-0.42443c0.02409,-0.21521 0.29447,-0.37408 0.60388,-0.35487c0.30944,0.0192 0.719,0.22031 0.69493,0.4355c-0.02409,0.21521 -0.47273,0.36301 -0.78215,0.34381z" data-paper-data="{&quot;index&quot;:null}" fill="#44974a"/><path d="M448.88419,183.16486c0,0 0.08387,-0.55119 0.01554,-0.99079c-0.06135,-0.39478 -0.27564,-0.66938 -0.27564,-0.88192c0,-0.52676 0.2601,-1.09242 0.2601,-1.09242h0.15605c0,0 -0.06087,0.16988 -0.01586,0.89818c0.01943,0.31445 0.14325,1.32549 0.16005,1.49065c0.02826,0.27788 0.16793,0.68034 0.16793,0.68034z" data-paper-data="{&quot;index&quot;:null}" fill-opacity="0.97581" fill="#4dab53"/><path d="M448.62408,183.2689c0,0 0.13968,-0.40246 0.16793,-0.68034c0.0168,-0.16516 0.14061,-1.17621 0.16004,-1.49065c0.04501,-0.7283 -0.01587,-0.89817 -0.01587,-0.89817h0.15606c0,0 0.26009,0.56566 0.26009,1.09242c0,0.21255 -0.21429,0.48714 -0.27563,0.88192c-0.06831,0.43961 0.01554,0.99079 0.01554,0.99079z" fill="#44974a"/><g data-paper-data="{&quot;index&quot;:null}"><path d="M448.58273,178.71063c0,0.52013 -0.71307,0.94177 -1.22725,0.94177c-0.51418,0 -0.93102,-0.42164 -0.93102,-0.94177c0,-0.52013 0.41682,-0.94178 0.93102,-0.94178c0.51418,0 1.22725,0.42165 1.22725,0.94178z" fill="#ff6d66"/><path d="M448.77446,179.00897c0.36359,0.36779 0.15412,1.17597 -0.20946,1.54377c-0.36359,0.36779 -0.95307,0.36779 -1.31666,0c-0.36359,-0.36779 -0.36359,-0.96409 0,-1.33188c0.36359,-0.36779 1.16253,-0.57967 1.52612,-0.21188z" fill="#ff6666"/><path d="M448.98472,178.56081c-0.51418,0 -0.931,-0.72131 -0.931,-1.24144c0,-0.52013 0.41682,-0.94179 0.931,-0.94179c0.51418,0 0.93102,0.42164 0.93102,0.94179c0,0.52013 -0.41684,1.24144 -0.93102,1.24144z" fill="#ff6d66"/><path d="M448.73212,178.45512c-0.36359,0.36779 -1.16253,0.15589 -1.52612,-0.2119c-0.36359,-0.36779 -0.36359,-0.96408 0,-1.33187c0.36359,-0.36779 0.95307,-0.36779 1.31666,0c0.36359,0.36779 0.57304,1.17597 0.20946,1.54377z" fill="#ff6666"/></g><path d="M449.39096,178.725c0,-0.52013 0.71306,-0.94178 1.22724,-0.94178c0.51418,0 0.93102,0.42165 0.93102,0.94178c0,0.52013 -0.41682,0.94179 -0.93102,0.94179c-0.51418,0 -1.22724,-0.42164 -1.22724,-0.94179z" fill="#ff6d66"/><path d="M449.19916,178.42669c-0.36359,-0.36779 -0.15412,-1.17598 0.20946,-1.54377c0.36359,-0.36779 0.95307,-0.36779 1.31666,0c0.36359,0.36779 0.36359,0.9641 0,1.33189c-0.36359,0.36779 -1.16253,0.57967 -1.52612,0.21189z" fill="#ff6d66"/><path d="M448.9889,178.87483c0.51418,0 0.93102,0.72131 0.93102,1.24144c0,0.52013 -0.41682,0.94178 -0.93102,0.94178c-0.51418,0 -0.93102,-0.42165 -0.93102,-0.94178c0,-0.52013 0.41684,-1.24144 0.93102,-1.24144z" fill="#ff6d66"/><path d="M449.2415,178.98053c0.36359,-0.36779 1.16253,-0.1559 1.52612,0.21189c0.36359,0.36779 0.36359,0.9641 0,1.33189c-0.36359,0.36779 -0.95308,0.36779 -1.31666,0c-0.36359,-0.36779 -0.57304,-1.17598 -0.20946,-1.54377z" fill="#ff6666"/><path d="M448.05186,178.74317c0,-0.51714 0.41921,-0.93635 0.93635,-0.93635c0.51714,0 0.93635,0.41921 0.93635,0.93635c0,0.51714 -0.41921,0.93635 -0.93635,0.93635c-0.51714,0 -0.93635,-0.41921 -0.93635,-0.93635z" fill="#ffdc03"/><path d="M449.07121,182.20238c-0.02409,-0.21521 0.38549,-0.4163 0.69492,-0.43551c0.30944,-0.0192 0.5798,0.13966 0.60389,0.35487c0.02409,0.21521 -0.20722,0.40523 -0.51664,0.42444c-0.30944,0.0192 -0.75806,-0.12859 -0.78215,-0.34381z" fill="#44974a"/></g><g><path d="M452.58,183.42194c-0.30944,-0.0192 -0.54073,-0.20924 -0.51666,-0.42443c0.02409,-0.21521 0.29447,-0.37408 0.60388,-0.35487c0.30944,0.0192 0.719,0.22031 0.69493,0.4355c-0.02409,0.21521 -0.47273,0.36301 -0.78215,0.34381z" data-paper-data="{&quot;index&quot;:null}" fill="#44974a"/><path d="M453.38419,184.66486c0,0 0.08387,-0.55119 0.01554,-0.99079c-0.06135,-0.39478 -0.27564,-0.66938 -0.27564,-0.88192c0,-0.52676 0.2601,-1.09242 0.2601,-1.09242h0.15605c0,0 -0.06087,0.16988 -0.01586,0.89818c0.01943,0.31445 0.14325,1.32549 0.16005,1.49065c0.02826,0.27788 0.16793,0.68034 0.16793,0.68034z" data-paper-data="{&quot;index&quot;:null}" fill-opacity="0.97581" fill="#4dab53"/><path d="M453.12408,184.7689c0,0 0.13968,-0.40246 0.16793,-0.68034c0.0168,-0.16516 0.14061,-1.17621 0.16004,-1.49065c0.04501,-0.7283 -0.01587,-0.89817 -0.01587,-0.89817h0.15606c0,0 0.26009,0.56566 0.26009,1.09242c0,0.21255 -0.21429,0.48714 -0.27563,0.88192c-0.06831,0.43961 0.01554,0.99079 0.01554,0.99079z" fill="#44974a"/><g data-paper-data="{&quot;index&quot;:null}"><path d="M453.08273,180.21063c0,0.52013 -0.71307,0.94177 -1.22725,0.94177c-0.51418,0 -0.93102,-0.42164 -0.93102,-0.94177c0,-0.52013 0.41682,-0.94178 0.93102,-0.94178c0.51418,0 1.22725,0.42165 1.22725,0.94178z" fill="#ff6d66"/><path d="M453.27446,180.50897c0.36359,0.36779 0.15412,1.17597 -0.20946,1.54377c-0.36359,0.36779 -0.95307,0.36779 -1.31666,0c-0.36359,-0.36779 -0.36359,-0.96409 0,-1.33188c0.36359,-0.36779 1.16253,-0.57967 1.52612,-0.21188z" fill="#ff6666"/><path d="M453.48472,180.06081c-0.51418,0 -0.931,-0.72131 -0.931,-1.24144c0,-0.52013 0.41682,-0.94179 0.931,-0.94179c0.51418,0 0.93102,0.42164 0.93102,0.94179c0,0.52013 -0.41684,1.24144 -0.93102,1.24144z" fill="#ff6d66"/><path d="M453.23212,179.95512c-0.36359,0.36779 -1.16253,0.15589 -1.52612,-0.2119c-0.36359,-0.36779 -0.36359,-0.96408 0,-1.33187c0.36359,-0.36779 0.95307,-0.36779 1.31666,0c0.36359,0.36779 0.57304,1.17597 0.20946,1.54377z" fill="#ff6666"/></g><path d="M453.89096,180.225c0,-0.52013 0.71306,-0.94178 1.22724,-0.94178c0.51418,0 0.93102,0.42165 0.93102,0.94178c0,0.52013 -0.41682,0.94179 -0.93102,0.94179c-0.51418,0 -1.22724,-0.42164 -1.22724,-0.94179z" fill="#ff6d66"/><path d="M453.69916,179.92669c-0.36359,-0.36779 -0.15412,-1.17598 0.20946,-1.54377c0.36359,-0.36779 0.95307,-0.36779 1.31666,0c0.36359,0.36779 0.36359,0.9641 0,1.33189c-0.36359,0.36779 -1.16253,0.57967 -1.52612,0.21189z" fill="#ff6d66"/><path d="M453.4889,180.37483c0.51418,0 0.93102,0.72131 0.93102,1.24144c0,0.52013 -0.41682,0.94178 -0.93102,0.94178c-0.51418,0 -0.93102,-0.42165 -0.93102,-0.94178c0,-0.52013 0.41684,-1.24144 0.93102,-1.24144z" fill="#ff6d66"/><path d="M453.7415,180.48053c0.36359,-0.36779 1.16253,-0.1559 1.52612,0.21189c0.36359,0.36779 0.36359,0.9641 0,1.33189c-0.36359,0.36779 -0.95308,0.36779 -1.31666,0c-0.36359,-0.36779 -0.57304,-1.17598 -0.20946,-1.54377z" fill="#ff6666"/><path d="M452.55186,180.24317c0,-0.51714 0.41921,-0.93635 0.93635,-0.93635c0.51714,0 0.93635,0.41921 0.93635,0.93635c0,0.51714 -0.41921,0.93635 -0.93635,0.93635c-0.51714,0 -0.93635,-0.41921 -0.93635,-0.93635z" fill="#ffdc03"/><path d="M453.57121,183.70238c-0.02409,-0.21521 0.38549,-0.4163 0.69492,-0.43551c0.30944,-0.0192 0.5798,0.13966 0.60389,0.35487c0.02409,0.21521 -0.20722,0.40523 -0.51664,0.42444c-0.30944,0.0192 -0.75806,-0.12859 -0.78215,-0.34381z" fill="#44974a"/></g><g><path d="M460.91333,185.17194c-0.30944,-0.0192 -0.54073,-0.20924 -0.51666,-0.42443c0.02409,-0.21521 0.29447,-0.37408 0.60388,-0.35487c0.30944,0.0192 0.719,0.22031 0.69493,0.4355c-0.02409,0.21521 -0.47273,0.36301 -0.78215,0.34381z" data-paper-data="{&quot;index&quot;:null}" fill="#44974a"/><path d="M461.71752,186.41486c0,0 0.08387,-0.55119 0.01554,-0.99079c-0.06135,-0.39478 -0.27564,-0.66938 -0.27564,-0.88192c0,-0.52676 0.2601,-1.09242 0.2601,-1.09242h0.15605c0,0 -0.06087,0.16988 -0.01586,0.89818c0.01943,0.31445 0.14325,1.32549 0.16005,1.49065c0.02826,0.27788 0.16793,0.68034 0.16793,0.68034z" data-paper-data="{&quot;index&quot;:null}" fill-opacity="0.97581" fill="#4dab53"/><path d="M461.45741,186.5189c0,0 0.13968,-0.40246 0.16793,-0.68034c0.0168,-0.16516 0.14061,-1.17621 0.16004,-1.49065c0.04501,-0.7283 -0.01587,-0.89817 -0.01587,-0.89817h0.15606c0,0 0.26009,0.56566 0.26009,1.09242c0,0.21255 -0.21429,0.48714 -0.27563,0.88192c-0.06831,0.43961 0.01554,0.99079 0.01554,0.99079z" fill="#44974a"/><g data-paper-data="{&quot;index&quot;:null}"><path d="M461.41606,181.96063c0,0.52013 -0.71307,0.94177 -1.22725,0.94177c-0.51418,0 -0.93102,-0.42164 -0.93102,-0.94177c0,-0.52013 0.41682,-0.94178 0.93102,-0.94178c0.51418,0 1.22725,0.42165 1.22725,0.94178z" fill="#ff6d66"/><path d="M461.60779,182.25897c0.36359,0.36779 0.15412,1.17597 -0.20946,1.54377c-0.36359,0.36779 -0.95307,0.36779 -1.31666,0c-0.36359,-0.36779 -0.36359,-0.96409 0,-1.33188c0.36359,-0.36779 1.16253,-0.57967 1.52612,-0.21188z" fill="#ff6666"/><path d="M461.81805,181.81081c-0.51418,0 -0.931,-0.72131 -0.931,-1.24144c0,-0.52013 0.41682,-0.94179 0.931,-0.94179c0.51418,0 0.93102,0.42164 0.93102,0.94179c0,0.52013 -0.41684,1.24144 -0.93102,1.24144z" fill="#ff6d66"/><path d="M461.56545,181.70512c-0.36359,0.36779 -1.16253,0.15589 -1.52612,-0.2119c-0.36359,-0.36779 -0.36359,-0.96408 0,-1.33187c0.36359,-0.36779 0.95307,-0.36779 1.31666,0c0.36359,0.36779 0.57304,1.17597 0.20946,1.54377z" fill="#ff6666"/></g><path d="M462.22429,181.975c0,-0.52013 0.71306,-0.94178 1.22724,-0.94178c0.51418,0 0.93102,0.42165 0.93102,0.94178c0,0.52013 -0.41682,0.94179 -0.93102,0.94179c-0.51418,0 -1.22724,-0.42164 -1.22724,-0.94179z" fill="#ff6d66"/><path d="M462.03249,181.67669c-0.36359,-0.36779 -0.15412,-1.17598 0.20946,-1.54377c0.36359,-0.36779 0.95307,-0.36779 1.31666,0c0.36359,0.36779 0.36359,0.9641 0,1.33189c-0.36359,0.36779 -1.16253,0.57967 -1.52612,0.21189z" fill="#ff6d66"/><path d="M461.82223,182.12483c0.51418,0 0.93102,0.72131 0.93102,1.24144c0,0.52013 -0.41682,0.94178 -0.93102,0.94178c-0.51418,0 -0.93102,-0.42165 -0.93102,-0.94178c0,-0.52013 0.41684,-1.24144 0.93102,-1.24144z" fill="#ff6d66"/><path d="M462.07483,182.23053c0.36359,-0.36779 1.16253,-0.1559 1.52612,0.21189c0.36359,0.36779 0.36359,0.9641 0,1.33189c-0.36359,0.36779 -0.95308,0.36779 -1.31666,0c-0.36359,-0.36779 -0.57304,-1.17598 -0.20946,-1.54377z" fill="#ff6666"/><path d="M460.88519,181.99317c0,-0.51714 0.41921,-0.93635 0.93635,-0.93635c0.51714,0 0.93635,0.41921 0.93635,0.93635c0,0.51714 -0.41921,0.93635 -0.93635,0.93635c-0.51714,0 -0.93635,-0.41921 -0.93635,-0.93635z" fill="#ffdc03"/><path d="M461.90454,185.45238c-0.02409,-0.21521 0.38549,-0.4163 0.69492,-0.43551c0.30944,-0.0192 0.5798,0.13966 0.60389,0.35487c0.02409,0.21521 -0.20722,0.40523 -0.51664,0.42444c-0.30944,0.0192 -0.75806,-0.12859 -0.78215,-0.34381z" fill="#44974a"/></g><g><path d="M464.83,189.50527c-0.30944,-0.0192 -0.54073,-0.20924 -0.51666,-0.42443c0.02409,-0.21521 0.29447,-0.37408 0.60388,-0.35487c0.30944,0.0192 0.719,0.22031 0.69493,0.4355c-0.02409,0.21521 -0.47273,0.36301 -0.78215,0.34381z" data-paper-data="{&quot;index&quot;:null}" fill="#44974a"/><path d="M465.63419,190.74819c0,0 0.08387,-0.55119 0.01554,-0.99079c-0.06135,-0.39478 -0.27564,-0.66938 -0.27564,-0.88192c0,-0.52676 0.2601,-1.09242 0.2601,-1.09242h0.15605c0,0 -0.06087,0.16988 -0.01586,0.89818c0.01943,0.31445 0.14325,1.32549 0.16005,1.49065c0.02826,0.27788 0.16793,0.68034 0.16793,0.68034z" data-paper-data="{&quot;index&quot;:null}" fill-opacity="0.97581" fill="#4dab53"/><path d="M465.37408,190.85223c0,0 0.13968,-0.40246 0.16793,-0.68034c0.0168,-0.16516 0.14061,-1.17621 0.16004,-1.49065c0.04501,-0.7283 -0.01587,-0.89817 -0.01587,-0.89817h0.15606c0,0 0.26009,0.56566 0.26009,1.09242c0,0.21255 -0.21429,0.48714 -0.27563,0.88192c-0.06831,0.43961 0.01554,0.99079 0.01554,0.99079z" fill="#44974a"/><g data-paper-data="{&quot;index&quot;:null}"><path d="M465.33273,186.29397c0,0.52013 -0.71307,0.94177 -1.22725,0.94177c-0.51418,0 -0.93102,-0.42164 -0.93102,-0.94177c0,-0.52013 0.41682,-0.94178 0.93102,-0.94178c0.51418,0 1.22725,0.42165 1.22725,0.94178z" fill="#ff6d66"/><path d="M465.52446,186.5923c0.36359,0.36779 0.15412,1.17597 -0.20946,1.54377c-0.36359,0.36779 -0.95307,0.36779 -1.31666,0c-0.36359,-0.36779 -0.36359,-0.96409 0,-1.33188c0.36359,-0.36779 1.16253,-0.57967 1.52612,-0.21188z" fill="#ff6666"/><path d="M465.73472,186.14414c-0.51418,0 -0.931,-0.72131 -0.931,-1.24144c0,-0.52013 0.41682,-0.94179 0.931,-0.94179c0.51418,0 0.93102,0.42164 0.93102,0.94179c0,0.52013 -0.41684,1.24144 -0.93102,1.24144z" fill="#ff6d66"/><path d="M465.48212,186.03846c-0.36359,0.36779 -1.16253,0.15589 -1.52612,-0.2119c-0.36359,-0.36779 -0.36359,-0.96408 0,-1.33187c0.36359,-0.36779 0.95307,-0.36779 1.31666,0c0.36359,0.36779 0.57304,1.17597 0.20946,1.54377z" fill="#ff6666"/></g><path d="M466.14096,186.30834c0,-0.52013 0.71306,-0.94178 1.22724,-0.94178c0.51418,0 0.93102,0.42165 0.93102,0.94178c0,0.52013 -0.41682,0.94179 -0.93102,0.94179c-0.51418,0 -1.22724,-0.42164 -1.22724,-0.94179z" fill="#ff6d66"/><path d="M465.94916,186.01003c-0.36359,-0.36779 -0.15412,-1.17598 0.20946,-1.54377c0.36359,-0.36779 0.95307,-0.36779 1.31666,0c0.36359,0.36779 0.36359,0.9641 0,1.33189c-0.36359,0.36779 -1.16253,0.57967 -1.52612,0.21189z" fill="#ff6d66"/><path d="M465.7389,186.45816c0.51418,0 0.93102,0.72131 0.93102,1.24144c0,0.52013 -0.41682,0.94178 -0.93102,0.94178c-0.51418,0 -0.93102,-0.42165 -0.93102,-0.94178c0,-0.52013 0.41684,-1.24144 0.93102,-1.24144z" fill="#ff6d66"/><path d="M465.9915,186.56387c0.36359,-0.36779 1.16253,-0.1559 1.52612,0.21189c0.36359,0.36779 0.36359,0.9641 0,1.33189c-0.36359,0.36779 -0.95308,0.36779 -1.31666,0c-0.36359,-0.36779 -0.57304,-1.17598 -0.20946,-1.54377z" fill="#ff6666"/><path d="M464.80186,186.32652c0,-0.51714 0.41921,-0.93635 0.93635,-0.93635c0.51714,0 0.93635,0.41921 0.93635,0.93635c0,0.51714 -0.41921,0.93635 -0.93635,0.93635c-0.51714,0 -0.93635,-0.41921 -0.93635,-0.93635z" fill="#ffdc03"/><path d="M465.82121,189.78571c-0.02409,-0.21521 0.38549,-0.4163 0.69492,-0.43551c0.30944,-0.0192 0.5798,0.13966 0.60389,0.35487c0.02409,0.21521 -0.20722,0.40523 -0.51664,0.42444c-0.30944,0.0192 -0.75806,-0.12859 -0.78215,-0.34381z" fill="#44974a"/></g><g><path d="M469.41333,194.42195c-0.30944,-0.0192 -0.54073,-0.20924 -0.51666,-0.42443c0.02409,-0.21521 0.29447,-0.37408 0.60388,-0.35487c0.30944,0.0192 0.719,0.22031 0.69493,0.4355c-0.02409,0.21521 -0.47273,0.36301 -0.78215,0.34381z" data-paper-data="{&quot;index&quot;:null}" fill="#44974a"/><path d="M470.21752,195.66487c0,0 0.08387,-0.55119 0.01554,-0.99079c-0.06135,-0.39478 -0.27564,-0.66938 -0.27564,-0.88192c0,-0.52676 0.2601,-1.09242 0.2601,-1.09242h0.15605c0,0 -0.06087,0.16988 -0.01586,0.89818c0.01943,0.31445 0.14325,1.32549 0.16005,1.49065c0.02826,0.27788 0.16793,0.68034 0.16793,0.68034z" data-paper-data="{&quot;index&quot;:null}" fill-opacity="0.97581" fill="#4dab53"/><path d="M469.95741,195.76891c0,0 0.13968,-0.40246 0.16793,-0.68034c0.0168,-0.16516 0.14061,-1.17621 0.16004,-1.49065c0.04501,-0.7283 -0.01587,-0.89817 -0.01587,-0.89817h0.15606c0,0 0.26009,0.56566 0.26009,1.09242c0,0.21255 -0.21429,0.48714 -0.27563,0.88192c-0.06831,0.43961 0.01554,0.99079 0.01554,0.99079z" fill="#44974a"/><g data-paper-data="{&quot;index&quot;:null}"><path d="M469.91606,191.21064c0,0.52013 -0.71307,0.94177 -1.22725,0.94177c-0.51418,0 -0.93102,-0.42164 -0.93102,-0.94177c0,-0.52013 0.41682,-0.94178 0.93102,-0.94178c0.51418,0 1.22725,0.42165 1.22725,0.94178z" fill="#ff6d66"/><path d="M470.10779,191.50898c0.36359,0.36779 0.15412,1.17597 -0.20946,1.54377c-0.36359,0.36779 -0.95307,0.36779 -1.31666,0c-0.36359,-0.36779 -0.36359,-0.96409 0,-1.33188c0.36359,-0.36779 1.16253,-0.57967 1.52612,-0.21188z" fill="#ff6666"/><path d="M470.31805,191.06082c-0.51418,0 -0.931,-0.72131 -0.931,-1.24144c0,-0.52013 0.41682,-0.94179 0.931,-0.94179c0.51418,0 0.93102,0.42164 0.93102,0.94179c0,0.52013 -0.41684,1.24144 -0.93102,1.24144z" fill="#ff6d66"/><path d="M470.06545,190.95513c-0.36359,0.36779 -1.16253,0.15589 -1.52612,-0.2119c-0.36359,-0.36779 -0.36359,-0.96408 0,-1.33187c0.36359,-0.36779 0.95307,-0.36779 1.31666,0c0.36359,0.36779 0.57304,1.17597 0.20946,1.54377z" fill="#ff6666"/></g><path d="M470.72429,191.22502c0,-0.52013 0.71306,-0.94178 1.22724,-0.94178c0.51418,0 0.93102,0.42165 0.93102,0.94178c0,0.52013 -0.41682,0.94179 -0.93102,0.94179c-0.51418,0 -1.22724,-0.42164 -1.22724,-0.94179z" fill="#ff6d66"/><path d="M470.53249,190.9267c-0.36359,-0.36779 -0.15412,-1.17598 0.20946,-1.54377c0.36359,-0.36779 0.95307,-0.36779 1.31666,0c0.36359,0.36779 0.36359,0.9641 0,1.33189c-0.36359,0.36779 -1.16253,0.57967 -1.52612,0.21189z" fill="#ff6d66"/><path d="M470.32223,191.37484c0.51418,0 0.93102,0.72131 0.93102,1.24144c0,0.52013 -0.41682,0.94178 -0.93102,0.94178c-0.51418,0 -0.93102,-0.42165 -0.93102,-0.94178c0,-0.52013 0.41684,-1.24144 0.93102,-1.24144z" fill="#ff6d66"/><path d="M470.57483,191.48053c0.36359,-0.36779 1.16253,-0.1559 1.52612,0.21189c0.36359,0.36779 0.36359,0.9641 0,1.33189c-0.36359,0.36779 -0.95308,0.36779 -1.31666,0c-0.36359,-0.36779 -0.57304,-1.17598 -0.20946,-1.54377z" fill="#ff6666"/><path d="M469.38519,191.24318c0,-0.51714 0.41921,-0.93635 0.93635,-0.93635c0.51714,0 0.93635,0.41921 0.93635,0.93635c0,0.51714 -0.41921,0.93635 -0.93635,0.93635c-0.51714,0 -0.93635,-0.41921 -0.93635,-0.93635z" fill="#ffdc03"/><path d="M470.40454,194.70239c-0.02409,-0.21521 0.38549,-0.4163 0.69492,-0.43551c0.30944,-0.0192 0.5798,0.13966 0.60389,0.35487c0.02409,0.21521 -0.20722,0.40523 -0.51664,0.42444c-0.30944,0.0192 -0.75806,-0.12859 -0.78215,-0.34381z" fill="#44974a"/></g></g></g></g></svg>