<svg version="1.1" xmlns="http://www.w3.org/2000/svg" xmlns:xlink="http://www.w3.org/1999/xlink" width="52.56196" height="46.66252" viewBox="0,0,52.56196,46.66252"><defs><radialGradient cx="240" cy="180.00001" r="26.28098" gradientUnits="userSpaceOnUse" id="color-1"><stop offset="0" stop-color="#000000" stop-opacity="0.70156"/><stop offset="1" stop-color="#000000" stop-opacity="0"/></radialGradient><linearGradient x1="229.09223" y1="169.58905" x2="229.09223" y2="185.58149" gradientUnits="userSpaceOnUse" id="color-2"><stop offset="0" stop-color="#dd74fb"/><stop offset="1" stop-color="#c573fa"/></linearGradient><linearGradient x1="250.52802" y1="169.50465" x2="239.68354" y2="169.50465" gradientUnits="userSpaceOnUse" id="color-3"><stop offset="0" stop-color="#65e5fd"/><stop offset="1" stop-color="#4ab2ef"/></linearGradient><linearGradient x1="230.44252" y1="180.51792" x2="230.44252" y2="191.99535" gradientUnits="userSpaceOnUse" id="color-4"><stop offset="0" stop-color="#8fc2ee"/><stop offset="1" stop-color="#82f4d0"/></linearGradient><radialGradient cx="241.0199" cy="184.98897" r="16.52269" gradientUnits="userSpaceOnUse" id="color-5"><stop offset="0" stop-color="#ffffff"/><stop offset="1" stop-color="#ffffff" stop-opacity="0"/></radialGradient><radialGradient cx="239.85164" cy="179.04062" r="19.44563" gradientUnits="userSpaceOnUse" id="color-6"><stop offset="0" stop-color="#ffffff"/><stop offset="1" stop-color="#ffffff" stop-opacity="0"/></radialGradient><radialGradient cx="238.46035" cy="184.65959" r="16.79645" gradientUnits="userSpaceOnUse" id="color-7"><stop offset="0" stop-color="#ffffff"/><stop offset="1" stop-color="#ffffff" stop-opacity="0"/></radialGradient><radialGradient cx="232.90117" cy="176.89281" r="2.17664" gradientUnits="userSpaceOnUse" id="color-8"><stop offset="0" stop-color="#ffffff"/><stop offset="1" stop-color="#ffffff" stop-opacity="0"/></radialGradient><radialGradient cx="240.38576" cy="186.33637" r="2.17662" gradientUnits="userSpaceOnUse" id="color-9"><stop offset="0" stop-color="#ffffff"/><stop offset="1" stop-color="#ffffff" stop-opacity="0"/></radialGradient><radialGradient cx="245.55043" cy="174.41447" r="2.17664" gradientUnits="userSpaceOnUse" id="color-10"><stop offset="0" stop-color="#ffffff"/><stop offset="1" stop-color="#ffffff" stop-opacity="0"/></radialGradient><radialGradient cx="236.68751" cy="175.86914" r="15.68129" gradientUnits="userSpaceOnUse" id="color-11"><stop offset="0" stop-color="#4cb3ff"/><stop offset="1" stop-color="#3970ff"/></radialGradient><radialGradient cx="237.32459" cy="176.4488" r="10.11904" gradientUnits="userSpaceOnUse" id="color-12"><stop offset="0" stop-color="#ebfaff"/><stop offset="1" stop-color="#c1f4ff"/></radialGradient><radialGradient cx="238.83927" cy="184.69537" r="2.66723" gradientUnits="userSpaceOnUse" id="color-13"><stop offset="0" stop-color="#ebfaff"/><stop offset="1" stop-color="#c1f4ff"/></radialGradient></defs><g transform="translate(-213.71902,-156.08968)"><g data-paper-data="{&quot;isPaintingLayer&quot;:true}" fill-rule="nonzero" stroke-linejoin="miter" stroke-miterlimit="10" stroke-dasharray="" stroke-dashoffset="0" style="mix-blend-mode: normal"><g stroke-linecap="butt"><g stroke-width="1"><path d="M266.28098,196.39723c0,3.50494 -2.83792,6.35497 -6.35498,6.35497c-9.24139,0 -30.61061,0 -39.852,0c-3.50494,0 -6.35498,-2.85003 -6.35498,-6.35497c0,-9.73982 0,-29.3386 0,-39.14942c5.34748,0 10.69494,0 16.0424,0c6.83129,0 13.66259,0 20.49388,0c5.34189,0 10.68379,0 16.02568,0c0,9.81081 0,29.40958 0,39.14942z" fill="url(#color-1)" stroke="none"/><g><path d="M259.66466,194.29522c0,2.62256 -2.12346,4.75509 -4.75509,4.75509c-6.91484,0 -22.90429,0 -29.81913,0c-2.62256,0 -4.75509,-2.13253 -4.75509,-4.75509c0,-7.28779 0,-21.95252 0,-29.29342c4.00123,0 8.00245,0 12.00367,0c5.11149,0 10.22298,0 15.33447,0c3.99705,0 7.99411,0 11.99116,0c0,7.3409 0,22.00562 0,29.29342z" fill="#f9fffe" stroke="none"/><path d="M257.71002,192.90101c0,2.44391 -1.91238,4.43115 -4.28243,4.43115c-6.22751,0 -20.6276,0 -26.85512,0c-2.36187,0 -4.28243,-1.98726 -4.28243,-4.43115c0,-6.79133 0,-22.08927 0,-28.93009c3.60351,0 7.207,0 10.81051,0c4.60341,0 9.20683,0 13.81024,0c3.33261,0 6.6652,0 9.99779,0c0.26716,0 0.53431,0 0.80147,0c0,6.84082 0,22.13877 0,28.93009z" fill="none" stroke="#ded9d2"/><path d="M254.90958,160.94969c2.41003,0 4.39385,1.78089 4.71088,4.09507c-3.98232,0 -7.96463,0 -11.94695,0c-5.11149,0 -10.22298,0 -15.33447,0c-3.98642,0 -7.97285,0 -11.95928,0c0.31825,-2.31419 2.30899,-4.09507 4.7107,-4.09507c6.91484,0 22.90429,0 29.81913,0z" fill="#00d5ff" stroke="none"/></g></g><g stroke="none"><path d="M249.05371,162.40882c0,-3.48997 2.82918,-6.31914 6.31915,-6.31914c3.48997,0 6.31915,2.82918 6.31915,6.31914c0,3.48998 -2.82918,6.31915 -6.31915,6.31915c-3.48997,0 -6.31915,-2.82918 -6.31915,-6.31915z" fill="#00d5ff" stroke-width="0"/><g fill="#5b150c"><path d="M253.54328,161.14658c0.61053,-0.03611 2.75946,-0.10099 2.75946,-0.10099l0.88823,0.82599c0,0 -0.14439,2.20583 -0.24245,2.8406c-0.05112,0.33097 -0.36331,0.48937 -0.59677,0.23758c-0.5018,-0.54115 -2.42141,-2.61127 -3.17911,-3.42838c-0.19268,-0.20777 0.0674,-0.35687 0.37065,-0.37481z" stroke-width="NaN"/><path d="M258.74081,161.73953c-0.40479,0.02395 -1.82957,0.06696 -1.82957,0.06696l-0.5889,-0.54765c0,0 0.09573,-1.4625 0.16075,-1.88336c0.0339,-0.21945 0.24088,-0.32447 0.39567,-0.15752c0.33272,0.3588 1.60544,1.73132 2.10781,2.27308c0.12775,0.13774 -0.04469,0.23661 -0.24574,0.24851z" data-paper-data="{&quot;index&quot;:null}" stroke-width="NaN"/><path d="M251.93906,165.70795c0.24976,-0.41213 0.9578,-1.58047 1.29866,-2.14294c0.11478,-0.18939 0.39616,-0.10185 0.54188,0.04387c0.137,0.137 0.42735,0.42733 0.64596,0.64595c0.1568,0.1568 0.14682,0.35139 -0.05442,0.4671c-0.54989,0.31619 -1.63246,0.93867 -2.05285,1.1804c-0.32483,0.18678 -0.54884,0.08548 -0.37924,-0.1944z" stroke-width="0"/></g></g></g><g stroke="none"><path d="M229.09223,174.31504l10.84448,-4.726l-0.04219,11.47743l-9.32541,4.51502z" fill="url(#color-2)" stroke-width="1" stroke-linecap="round"/><path d="M249.09334,185.70808l-9.3676,-4.726l-0.04219,-11.47743l10.84448,4.726z" fill="url(#color-3)" stroke-width="1" stroke-linecap="round"/><path d="M239.72573,180.51792l9.452,4.97918l-9.53639,6.49825l-9.19882,-6.37166z" fill="url(#color-4)" stroke-width="1" stroke-linecap="round"/><path d="M239.76793,180.60231l10.6335,-6.24507l-1.1815,11.22425l-9.66298,6.49825z" fill="url(#color-5)" stroke-width="1" stroke-linecap="round"/><path d="M239.85232,169.42026l11.05546,4.726l-11.01326,6.41386l-10.80229,-6.37166z" data-paper-data="{&quot;origPos&quot;:null}" fill="url(#color-6)" stroke-width="1" stroke-linecap="round"/><path d="M239.59915,192.07974l-9.32541,-6.58264l-1.1815,-11.22425l10.6335,6.24507z" fill="url(#color-7)" stroke-width="1" stroke-linecap="round"/><path d="M232.35382,179.40056l-1.94666,-1.90085l3.04135,-3.11466l1.94666,1.90085z" data-paper-data="{&quot;origPos&quot;:null,&quot;origRot&quot;:0}" fill="url(#color-8)" stroke-width="0" stroke-linecap="butt"/><path d="M238.39239,187.95344l-0.33367,-2.70025l4.3204,-0.53388l0.33367,2.70025z" data-paper-data="{&quot;origPos&quot;:null,&quot;origRot&quot;:0}" fill="url(#color-9)" stroke-width="0" stroke-linecap="butt"/><path d="M243.0642,175.05249l0.82326,-2.59325l4.14921,1.3172l-0.82326,2.59325z" data-paper-data="{&quot;origPos&quot;:null,&quot;origRot&quot;:0}" fill="url(#color-10)" stroke-width="0" stroke-linecap="butt"/><path d="M232.29917,178.74567l3.67109,-5.02137l8.39709,0.88612l2.4052,6.62484l-4.51502,1.35028l-0.12659,5.14796l-5.9075,-0.59075l0.29538,-5.69651z" data-paper-data="{&quot;origPos&quot;:null}" fill="url(#color-11)" stroke-width="1" stroke-linecap="round"/><path d="M236.5188,175.22561l6.79363,0.59075l1.60347,4.64161l-3.75548,0.80173l-0.33757,1.39248h-3.16473l0.16879,-2.53178l3.37571,-0.92832l-0.16879,-1.30809l-2.95375,-0.12659l-1.68786,2.19421l-2.363,-1.56127z" data-paper-data="{&quot;origPos&quot;:null}" fill="url(#color-12)" stroke-width="1" stroke-linecap="round"/><path d="M237.61592,183.59826l3.37571,0.33757l-0.04219,2.70057l-3.29132,-0.37976z" data-paper-data="{&quot;origPos&quot;:null}" fill="url(#color-13)" stroke-width="1" stroke-linecap="round"/></g></g></g></svg>