<svg version="1.1" xmlns="http://www.w3.org/2000/svg" xmlns:xlink="http://www.w3.org/1999/xlink" width="52.56196" height="45.50439" viewBox="0,0,52.56196,45.50439"><defs><radialGradient cx="240" cy="180.00002" r="26.28098" gradientUnits="userSpaceOnUse" id="color-1"><stop offset="0" stop-color="#000000" stop-opacity="0.70156"/><stop offset="1" stop-color="#000000" stop-opacity="0"/></radialGradient><linearGradient x1="240.00004" y1="171.11742" x2="239.96874" y2="188.88233" gradientUnits="userSpaceOnUse" id="color-2"><stop offset="0" stop-color="#4dc6ff"/><stop offset="1" stop-color="#bbe4ff"/></linearGradient><linearGradient x1="239.62356" y1="187.154" x2="239.64875" y2="172.8554" gradientUnits="userSpaceOnUse" id="color-3"><stop offset="0" stop-color="#e2f6ff"/><stop offset="1" stop-color="#e2ffe5"/></linearGradient></defs><g transform="translate(-213.71902,-157.24781)"><g data-paper-data="{&quot;isPaintingLayer&quot;:true}" fill-rule="nonzero" stroke-linecap="butt" stroke-linejoin="miter" stroke-miterlimit="10" stroke-dasharray="" stroke-dashoffset="0" style="mix-blend-mode: normal"><g stroke-width="1"><path d="M266.28098,196.39724c0,3.50494 -2.83792,6.35497 -6.35498,6.35497c-9.24139,0 -30.61061,0 -39.852,0c-3.50494,0 -6.35498,-2.85003 -6.35498,-6.35497c0,-9.73982 0,-29.3386 0,-39.14942c5.34748,0 10.69494,0 16.0424,0c6.83129,0 13.66259,0 20.49388,0c5.34189,0 10.68379,0 16.02568,0c0,9.81081 0,29.40958 0,39.14942z" fill="url(#color-1)" stroke="none"/><g><path d="M259.66466,194.29523c0,2.62256 -2.12346,4.75509 -4.75509,4.75509c-6.91484,0 -22.90429,0 -29.81913,0c-2.62256,0 -4.75509,-2.13253 -4.75509,-4.75509c0,-7.28779 0,-21.95252 0,-29.29342c4.00123,0 8.00245,0 12.00367,0c5.11149,0 10.22298,0 15.33447,0c3.99705,0 7.99411,0 11.99116,0c0,7.3409 0,22.00562 0,29.29342z" fill="#f9fffe" stroke="none"/><path d="M257.71002,192.90102c0,2.44391 -1.91238,4.43115 -4.28243,4.43115c-6.22751,0 -20.6276,0 -26.85512,0c-2.36187,0 -4.28243,-1.98726 -4.28243,-4.43115c0,-6.79133 0,-22.08927 0,-28.93009c3.60351,0 7.207,0 10.81051,0c4.60341,0 9.20683,0 13.81024,0c3.33261,0 6.6652,0 9.99779,0c0.26716,0 0.53431,0 0.80147,0c0,6.84082 0,22.13877 0,28.93009z" fill="none" stroke="#ded9d2"/><path d="M254.90958,160.9497c2.41003,0 4.39385,1.78089 4.71088,4.09507c-3.98232,0 -7.96463,0 -11.94695,0c-5.11149,0 -10.22298,0 -15.33447,0c-3.98642,0 -7.97285,0 -11.95928,0c0.31825,-2.31419 2.30899,-4.09507 4.7107,-4.09507c6.91484,0 22.90429,0 29.81913,0z" fill="#0aff00" stroke="none"/></g></g><g><path d="M250.81834,171.13648l-0.22003,17.72041l-21.30143,0.00663l-0.11522,-17.71739z" data-paper-data="{&quot;origPos&quot;:null,&quot;origRot&quot;:0,&quot;index&quot;:null}" fill="url(#color-2)" stroke="#b8a12d" stroke-width="1.5"/><path d="M247.04998,185.14226c-0.05656,2.07752 -2.13407,2.02095 -2.13407,2.02095l-1.89814,-1.13708c-1.22594,-1.73083 -2.29994,-3.76025 -3.15176,-5.77954c-1.27892,2.11011 -2.32743,4.03247 -3.98501,5.91177c0,0 -1.37477,1.55861 -2.93341,0.18384c-1.55864,-1.37475 -0.18385,-2.93338 -0.18385,-2.93338c2.09485,-2.37507 3.67465,-4.85898 4.84547,-7.82979l0.50731,-1.33668c0.28612,-0.81052 1.06045,-1.38978 1.96852,-1.38618c0.90804,0.00359 1.67779,0.58902 1.95746,1.40176c0,0 2.25606,6.29648 4.22866,9.16708c0.43123,0.30187 0.8032,0.82182 0.77884,1.71716z" data-paper-data="{&quot;origPos&quot;:null,&quot;origRot&quot;:0,&quot;index&quot;:null}" fill="url(#color-3)" stroke="none" stroke-width="0.5"/></g></g></g></svg>