<svg version="1.1" xmlns="http://www.w3.org/2000/svg" xmlns:xlink="http://www.w3.org/1999/xlink" width="28.87446" height="25.20848" viewBox="0,0,28.87446,25.20848"><defs><radialGradient cx="240.02404" cy="180.92876" r="8.18879" gradientUnits="userSpaceOnUse" id="color-1"><stop offset="0" stop-color="#ff7c35"/><stop offset="1" stop-color="#c82222"/></radialGradient><radialGradient cx="251.10969" cy="172.30314" r="5.51999" gradientUnits="userSpaceOnUse" id="color-2"><stop offset="0" stop-color="#000000"/><stop offset="1" stop-color="#ffffff"/></radialGradient></defs><g transform="translate(-226.00867,-166.64218)"><g data-paper-data="{&quot;isPaintingLayer&quot;:true}" fill-rule="nonzero" stroke="none" stroke-linecap="butt" stroke-linejoin="miter" stroke-miterlimit="10" stroke-dasharray="" stroke-dashoffset="0" style="mix-blend-mode: normal"><path d="M228.2624,190.85221c-0.69592,0.18621 -1.61883,-4.3679 -1.61883,-4.3679c0,0 -1.10008,-3.00637 -0.40416,-3.19258c0.95596,-0.25579 1.9797,1.1873 2.52221,2.01494c0.61128,0.93257 0.8032,1.31506 0.8032,1.31506l6.05797,-1.7949l0.58876,1.22293c0,0 -6.53056,2.25407 -6.40111,2.73789c0.45519,1.70114 -0.85211,1.87837 -1.54803,2.06457z" fill="#ffde00" stroke-width="0"/><path d="M254.66239,181.87083c0,1.05372 0.48566,1.09377 0.01619,2.03713c-0.4262,0.85639 -1.16116,1.15142 -2.11773,1.15142c-1.34518,0 -1.9073,-2.29041 -1.9073,-2.29041l-3.38281,-0.60827l0.4758,-1.62177l2.92065,-0.61729c0,0 0.61732,-2.97859 1.89365,-2.97859c0,0 1.63035,0.23859 2.05884,1.03745c0,0 0.32502,1.37021 0.02938,1.99992c-0.24772,0.52766 0.01332,-0.35085 0.01332,1.8904zM252.97874,179.53562c0.30985,0 0.56104,-0.25118 0.56104,-0.56104c0,-0.30985 -0.25119,-0.56104 -0.56104,-0.56104c-0.30985,0 -0.56104,0.25119 -0.56104,0.56104c0,0.30985 0.25118,0.56104 0.56104,0.56104zM253.06813,183.59134c0.30985,0 0.56104,-0.25118 0.56104,-0.56104c0,-0.30985 -0.25118,-0.56104 -0.56104,-0.56104c-0.30985,0 -0.56104,0.25119 -0.56104,0.56104c0,0.30985 0.25119,0.56104 0.56104,0.56104z" data-paper-data="{&quot;origPos&quot;:null}" fill="#fff300" stroke-width="0"/><path d="M248.14036,180.92876c0,4.52254 -3.6338,8.18879 -8.11632,8.18879c-4.48252,0 -8.11632,-3.66624 -8.11632,-8.18879c0,-4.52254 3.6338,-8.18879 8.11632,-8.18879c4.48252,0 8.11632,3.66625 8.11632,8.18879z" data-paper-data="{&quot;origPos&quot;:null}" fill="url(#color-1)" stroke-width="0"/><path d="M242.05311,179.69682c0,1.92109 -0.51912,3.47843 -1.15948,3.47843c-0.64036,0 -1.15947,-1.55734 -1.15947,-3.47843c0,-1.92109 0.51911,-3.47843 1.15947,-3.47843c0.64036,0 1.15948,1.55734 1.15948,3.47843z" data-paper-data="{&quot;origPos&quot;:null}" fill="#ffffff" stroke-width="0"/><path d="M237.82197,179.52383c0,1.92109 -0.51912,3.47842 -1.15948,3.47842c-0.64036,0 -1.15948,-1.55733 -1.15948,-3.47842c0,-1.92109 0.51912,-3.47843 1.15948,-3.47843c0.64036,0 1.15948,1.55734 1.15948,3.47843z" data-paper-data="{&quot;origPos&quot;:null}" fill="#ffffff" stroke-width="0"/><path d="M251.55277,172.3675c-0.0548,0.32423 -0.10433,0.34709 -0.10433,0.34709c-0.5428,0.5428 -1.12029,0.97915 -1.93122,0.97915c-2.35317,-0.13456 -1.74245,-2.75185 -2.23897,-4.24144c-0.45333,-1.35997 -1.75785,-2.44991 -3.29518,-1.93746c-0.32889,0.08981 -1.57002,0.00633 -1.71327,0.24795c-0.47572,0.80238 -0.71947,2.01585 -1.02134,2.92145c0,0 -0.11828,0.35483 -0.47311,0.23656c-0.35483,-0.11828 -0.23656,-0.47311 -0.23656,-0.47311c0.31964,-0.95892 0.66442,-2.91708 1.59671,-3.38148c0.5134,-0.25574 1.15905,-0.01814 1.61101,-0.26102c1.89833,-0.63278 3.65857,0.66207 4.24141,2.41057c0.25901,0.77701 -0.03038,4.03195 1.52931,3.72994c0.63496,0 0.98967,-0.34745 1.40227,-0.76005l0.32681,-0.24925c0,0 0.3688,0.06234 0.30646,0.43113z" data-paper-data="{&quot;origPos&quot;:null}" fill="url(#color-2)" stroke-width="0.5"/><path d="M237.85402,173.48101l0.30641,-3.31939l5.77284,0.53289l-0.30641,3.31938z" data-paper-data="{&quot;origPos&quot;:null,&quot;origRot&quot;:0}" fill="#69c0ff" stroke-width="0"/><path d="M251.74522,191.84859c-0.7113,-0.11417 -2.02986,-0.15697 -1.75077,-1.89571c0.07937,-0.4945 -6.64722,-2.0699 -6.64722,-2.0699l0.46079,-1.27666l6.20959,1.1669c0,0 0.15186,-0.40008 0.66471,-1.39019c0.45516,-0.87871 1.32618,-2.41881 2.30326,-2.26198c0.71131,0.11417 -0.07602,3.21716 -0.07602,3.21716c0,0 -0.45304,4.62454 -1.16434,4.51037z" data-paper-data="{&quot;index&quot;:null}" fill="#ffde00" stroke-width="0"/></g></g></svg>