<svg version="1.1" xmlns="http://www.w3.org/2000/svg" xmlns:xlink="http://www.w3.org/1999/xlink" width="139.16548" height="195.93694" viewBox="0,0,139.16548,195.93694"><defs><linearGradient x1="180.98764" y1="247.16668" x2="300.14664" y2="247.16668" gradientUnits="userSpaceOnUse" id="color-1"><stop offset="0" stop-color="#7481a6"/><stop offset="1" stop-color="#596486"/></linearGradient><linearGradient x1="240.50001" y1="217.00001" x2="240.50001" y2="250.00001" gradientUnits="userSpaceOnUse" id="color-2"><stop offset="0" stop-color="#7481a6"/><stop offset="1" stop-color="#939fc4"/></linearGradient><linearGradient x1="245.91472" y1="176.36331" x2="245.91472" y2="188.6311" gradientUnits="userSpaceOnUse" id="color-3"><stop offset="0" stop-color="#ffffcc"/><stop offset="1" stop-color="#ffff99"/></linearGradient><linearGradient x1="250.54979" y1="170.02721" x2="250.54979" y2="181.31729" gradientUnits="userSpaceOnUse" id="color-4"><stop offset="0" stop-color="#ffffcc"/><stop offset="1" stop-color="#ffff99"/></linearGradient><linearGradient x1="252.26259" y1="159.91467" x2="252.26259" y2="174.74575" gradientUnits="userSpaceOnUse" id="color-5"><stop offset="0" stop-color="#ffffcc"/><stop offset="1" stop-color="#ffff99"/></linearGradient><linearGradient x1="251.57748" y1="152.09737" x2="251.57748" y2="166.11769" gradientUnits="userSpaceOnUse" id="color-6"><stop offset="0" stop-color="#ffffcc"/><stop offset="1" stop-color="#ffff99"/></linearGradient><linearGradient x1="250.63391" y1="146.16569" x2="250.63391" y2="157.75941" gradientUnits="userSpaceOnUse" id="color-7"><stop offset="0" stop-color="#ffffcc"/><stop offset="1" stop-color="#ffff99"/></linearGradient></defs><g transform="translate(-170.97563,-69.06307)"><g data-paper-data="{&quot;isPaintingLayer&quot;:true}" fill-rule="nonzero" stroke-linejoin="miter" stroke-miterlimit="10" stroke-dasharray="" stroke-dashoffset="0" style="mix-blend-mode: normal"><g data-paper-data="{&quot;origPos&quot;:null}" stroke="none" stroke-width="0" stroke-linecap="butt"><path d="M300.00001,248.50001c0,9.1127 -26.63905,16.5 -59.5,16.5c-32.86095,0 -59.5,-7.3873 -59.5,-16.5c0,-3.06185 -0.01237,-14.18471 -0.01237,-14.18471l60.17904,-4.98195l58.97996,4.35874c0,0 -0.14663,5.69523 -0.14663,14.80793z" data-paper-data="{&quot;origPos&quot;:null}" fill="url(#color-1)"/><path d="M300.00001,233.50001c0,9.1127 -26.63906,16.5 -59.5,16.5c-32.86094,0 -59.5,-7.3873 -59.5,-16.5c0,-9.1127 26.63906,-16.5 59.5,-16.5c32.86094,0 59.5,7.3873 59.5,16.5z" data-paper-data="{&quot;origPos&quot;:null}" fill="url(#color-2)"/></g><g stroke="none" stroke-width="0.5" stroke-linecap="butt"><path d="M231.33604,192.33788c-1.22468,3.08456 -5.31788,6.04517 -8.58348,6.87869c-2.04364,0.52162 -4.24408,0.17502 -6.25842,0.86203c-4.70204,1.43799 -9.6155,-0.46508 -13.84271,-2.5937c-3.43955,-1.73199 -6.26705,-4.20735 -5.30577,-8.2866c2.02065,-5.08929 9.77543,-8.56773 14.87982,-9.34609c1.72254,-0.26268 3.45473,0.20648 5.15279,-0.10602c6.56488,-0.93314 16.36439,1.72283 14.60381,9.89303c-0.05354,0.24773 -0.64604,2.69867 -0.64604,2.69867z" data-paper-data="{&quot;origPos&quot;:null}" fill="#ffd833"/><path d="M213.78407,192.29591c0.59549,2.47267 2.47145,4.71582 3.36072,7.1175c1.41849,3.83095 2.73846,9.28182 3.08774,13.34768c0.29857,4.38743 -0.16513,10.95467 -4.01811,14.10487c-1.88009,1.53716 -5.81546,-0.88689 -7.60789,-1.51685c-4.97357,-1.748 -16.08837,-3.98577 -17.18373,-10.39356c-0.13938,-0.81534 1.15282,-2.90356 1.47607,-3.71769c1.61511,-4.0679 -0.06948,-6.19213 -1.14957,-10.22504c-0.72842,-2.71984 0.06306,-5.33031 1.05698,-7.83365c2.97502,-6.52865 10.87298,-8.54087 16.79799,-5.14965c0,0 3.61681,2.42551 4.17979,4.2664z" data-paper-data="{&quot;origPos&quot;:null}" fill="#ffd833"/><path d="M218.69329,229.54507c-0.27772,2.36306 -3.88398,3.92827 -5.8226,4.20382c-2.47626,0.27224 -4.99334,-0.54091 -7.443,-0.32373c-3.71384,0.32926 -8.63978,1.12763 -12.32756,0.3308c-2.67281,-0.63448 -5.17828,-1.44367 -5.70846,-4.52722c-0.04155,-0.24169 -0.02149,-0.48956 0.04578,-0.72321c-0.98895,-0.33664 -2.2073,-0.95565 -2.32686,-1.88469c-0.1364,-1.05996 -0.12422,-2.46054 0.66592,-3.16289c-2.16736,-1.6098 -2.47073,-4.38968 0.57427,-6.39676c1.68177,-1.10852 6.07079,-0.94361 7.94991,-0.53758c7.92701,2.23835 16.25178,-2.20991 22.679,4.9836c0,0 1.94022,6.10966 1.71361,8.03788z" data-paper-data="{&quot;origPos&quot;:null}" fill="#ffd833"/><path d="M185.76663,217.91019c0.46471,0.18451 0.36661,1.4669 0.36661,1.4669c0.5082,2.11104 -0.96976,3.18374 -3.93044,2.76679c-1.73538,-0.68901 3.09911,-4.4182 3.56382,-4.23369z" data-paper-data="{&quot;origPos&quot;:null}" fill="#ffffff"/><path d="M186.66973,223.72016c0.46471,0.18451 1.12929,1.9849 1.12929,1.9849c0.7296,1.55339 -2.02765,3.4093 -4.98833,2.99234c-1.73538,-0.68901 3.39433,-5.16174 3.85904,-4.97723z" data-paper-data="{&quot;origPos&quot;:null}" fill="#ffffff"/><path d="M189.51752,228.74214c0.56123,0.22283 1.21196,0.59437 1.54074,1.10085c0.41211,0.63486 0.4264,1.75468 0.4264,1.75468c-0.20119,0.64586 -2.34614,2.31449 -5.3068,1.89753c-1.73538,-0.68901 2.87495,-4.93758 3.33966,-4.75307z" data-paper-data="{&quot;origPos&quot;:null}" fill="#ffffff"/></g><path d="M296.16609,204.33743c0.29417,1.47087 -1.17669,1.76504 -1.17669,1.76504c-6.24476,1.24895 -10.55691,4.86045 -17.08584,5.02912c-3.20392,0 -8.40638,0.56522 -11.50251,-0.36246c-1.79427,-0.53761 -3.97462,-1.51971 -5.57569,-2.42856c-2.72893,-1.54908 -4.68483,-2.20401 -6.9681,-3.93859c-1.17416,-1.46769 -5.56235,-4.748 -4.92457,-7.05954c0.54184,-1.96382 2.03398,-2.7144 3.32688,-4.10484c3.86107,-4.15234 8.95664,-7.24687 14.89399,-7.31434c8.07235,0 9.59407,10.78975 16.21249,13.86669c3.75529,1.87765 12.75468,4.32063 12.80005,4.54747z" data-paper-data="{&quot;origPos&quot;:null}" fill="#ffd833" stroke="none" stroke-width="0.5" stroke-linecap="butt"/><g data-paper-data="{&quot;index&quot;:null,&quot;origPos&quot;:null}" stroke-width="0.5"><path d="M200.28342,124.16667c0,0 4.27269,6.03587 7.5,9.33334c3.22731,3.29747 4.59405,4.04678 7.83334,6.33334c3.23928,2.28655 8.16666,5.66666 8.16666,5.66666l-6,5.33334c0,0 -5.09755,-1.32902 -8.16666,-3.33334c-3.06911,-2.00431 -5.14794,-3.55441 -8,-6.33334c-2.85206,-2.77892 -5,-6.33333 -5,-6.33333l-3.33334,-5.33334z" data-paper-data="{&quot;origPos&quot;:null,&quot;index&quot;:null}" fill="#666666" stroke="#666666" stroke-linecap="round"/><path d="M178.72518,153.52841c0,0 7.12902,1.96588 11.7149,2.47432c4.58588,0.50844 6.11817,0.22291 10.07317,-0.05863c3.955,-0.28154 9.90899,-0.78568 9.90899,-0.78568l2.40019,7.4272c0,0 -8.45354,2.69936 -12.09811,3.09158c-3.64456,0.39222 -6.23507,0.50891 -10.20217,0.16417c-3.96709,-0.34474 -7.88029,-0.90221 -7.88029,-0.90221l-9.6238,-1.68365z" data-paper-data="{&quot;origPos&quot;:null,&quot;index&quot;:null,&quot;origRot&quot;:0}" fill="#666666" stroke="#666666" stroke-linecap="round"/><path d="M230.11675,124l0.30347,-0.24254c0.59151,2.36606 3.43203,2.95344 4.14521,5.09297c1.69627,6.35158 -5.89757,10.49204 -10.77371,12.93011c-2.70705,1.34276 -4.79429,2.70615 -7.22776,4.44721c-0.25884,0.18519 -1.82541,0.77053 -1.85355,0.81397c-1.19964,1.85205 -1.70887,4.1661 -2.7353,6.1032c-0.52431,0.72735 -0.37432,1.70882 -0.59656,2.5598c-0.37367,1.43081 -1.99523,3.29165 -1.70974,4.83044c0.55882,3.0121 3.6418,5.91092 5.23269,8.40093c0.93093,1.45707 2.34512,3.08148 2.88191,4.73057c1.3225,4.06291 -1.79628,7.85513 -5.87395,5.55175c-1.50977,-0.85283 -2.32122,-2.75885 -3.15263,-4.1841c-0.28104,-0.50186 -1.11851,-1.1053 -0.75544,-1.55142c0.10189,-0.12519 0.57993,0.24659 0.46579,0.13245c-1.03629,-1.03629 -2.82618,-0.24721 -2.75529,0.01326c0.75757,2.78347 2.73819,4.9931 2.73819,8.03806c0,3.37276 -3.98334,4.15239 -6.70711,2.37377c-2.62603,-1.7148 -3.37914,-5.26233 -4.09637,-8.13124c-0.18317,-0.93041 -0.25622,-1.93501 -0.75122,-2.74382c-0.25774,-0.42113 -1.02706,-0.27222 -1.4342,-0.51461c0.13333,0.54931 0.35928,1.09938 0.46948,1.65311c0.364,1.8289 1.18609,3.6642 1.18609,5.52945c0,0.8927 0.20953,2.20255 -0.50128,2.88804c-1.4216,1.37094 -5.63577,1.12129 -7.22008,-0.22265c-1.60509,-1.36156 -2.11516,-4.26905 -3.05918,-6.15708c-0.37626,-0.79083 -1.76363,-4.26174 -1.37079,-5.15838c-0.17792,0.01535 -0.35638,0.01381 -0.46063,-0.01788c-0.16102,-0.04894 -0.01296,-0.66495 -0.05471,-0.50191c-0.68248,2.66537 0.81448,4.72943 1.89443,6.88932c0.90213,1.85656 1.33796,3.9476 -0.56109,5.44721c-0.23372,0.18456 -1.68458,0.00981 -2,0c-2.55772,-0.07957 -6.63962,-2.76578 -7.14724,-5.30388c-0.98443,-5.44601 -0.18608,-11.64789 -0.18608,-17.19612c0,-6.55481 3.09872,-11.11752 6.50128,-16.22136c3.59941,-4.58176 8.51532,-9.37611 12.95828,-13.81907c2.43306,-2.36381 5.42032,-3.32911 8.21527,-5.21214c2.98958,-2.01416 4.93858,-4.4913 8.61346,-5.4409c5.95249,-1.5358 11.11035,-0.00751 16.18359,3.20736c0.0603,-0.00903 0.12511,-0.01389 0.19478,-0.01389c1,0 1,1 1,1z" data-paper-data="{&quot;origPos&quot;:null}" fill="#ffd833" stroke="none" stroke-linecap="butt"/><path d="M218.11675,150.66667c0,0 -4.27269,-6.03587 -7.5,-9.33334c-3.22731,-3.29747 -4.59405,-4.04678 -7.83334,-6.33334c-3.23928,-2.28655 -9.33333,-5.33333 -9.33333,-5.33333l7,-6.66667c0,0 5.26422,2.32902 8.33333,4.33334c3.06911,2.00431 5.14794,3.55441 8,6.33334c2.85206,2.77892 5,6.33333 5,6.33333l3.33334,5.33334z" data-paper-data="{&quot;origPos&quot;:null}" fill="#000000" stroke="#000000" stroke-linecap="round"/><path d="M211.20008,136.83334c-1.05855,0 -1.91667,-0.85813 -1.91667,-1.91667c0,-1.05855 0.85812,-1.91666 1.91667,-1.91666c1.05855,0 1.91666,0.85812 1.91666,1.91666c0,1.05855 -0.85812,1.91667 -1.91666,1.91667z" data-paper-data="{&quot;origPos&quot;:null}" fill="#ffffff" stroke="none" stroke-linecap="butt"/><path d="M205.45008,132.75c-0.9665,0 -1.75,-0.7835 -1.75,-1.75c0,-0.9665 0.7835,-1.75 1.75,-1.75c0.9665,0 1.75,0.7835 1.75,1.75c0,0.9665 -0.7835,1.75 -1.75,1.75z" data-paper-data="{&quot;origPos&quot;:null}" fill="#ffffff" stroke="none" stroke-linecap="butt"/><path d="M215.95008,141.75c-0.9665,0 -1.75,-0.7835 -1.75,-1.75c0,-0.9665 0.7835,-1.75 1.75,-1.75c0.9665,0 1.75,0.7835 1.75,1.75c0,0.9665 -0.7835,1.75 -1.75,1.75z" data-paper-data="{&quot;origPos&quot;:null}" fill="#ffffff" stroke="none" stroke-linecap="butt"/><path d="M200.86675,129.5c-0.87445,0 -1.58334,-0.70889 -1.58334,-1.58334c0,-0.87445 0.70889,-1.58333 1.58334,-1.58333c0.87445,0 1.58333,0.70888 1.58333,1.58333c0,0.87445 -0.70888,1.58334 -1.58333,1.58334z" data-paper-data="{&quot;origPos&quot;:null}" fill="#ffffff" stroke="none" stroke-linecap="butt"/><path d="M219.45008,146.33334c-0.92047,0 -1.66667,-0.7462 -1.66667,-1.66666c0,-0.92047 0.7462,-1.66667 1.66667,-1.66667c0.92047,0 1.66666,0.7462 1.66666,1.66667c0,0.92047 -0.7462,1.66666 -1.66666,1.66666z" data-paper-data="{&quot;origPos&quot;:null}" fill="#ffffff" stroke="none" stroke-linecap="butt"/><path d="M222.95008,150.5c-0.82843,0 -2.5,-0.83824 -2.5,-1.66666c0,-0.82843 0.67157,-1.5 1.5,-1.5c0.82843,0 1.5,0.67157 1.5,1.5c0,0.82843 0.32843,1.66666 -0.5,1.66666z" data-paper-data="{&quot;origPos&quot;:null}" fill="#ffffff" stroke="none" stroke-linecap="butt"/><path d="M196.61674,127.66667c-0.82843,0 -1.5,-0.67158 -1.5,-1.5c0,-0.82842 -0.49509,-1.66666 0.33334,-1.66666c0.82843,0 2.66666,0.83824 2.66666,1.66666c0,0.82842 -0.67157,1.5 -1.5,1.5z" data-paper-data="{&quot;origPos&quot;:null}" fill="#ffffff" stroke="none" stroke-linecap="butt"/><path d="M212.80822,162.57888c0,0 -12.12294,-1.96485 -15.2149,-2.30766c-4.58588,-0.50844 -6.11817,-0.2229 -10.07317,0.05864c-3.955,0.28154 -14.26753,2.78244 -14.26753,2.78244l0.52945,-9.42571c0,0 9.88244,-2.69761 13.52701,-3.08983c3.64457,-0.39222 6.23507,-0.50891 10.20217,-0.16417c3.96709,0.34474 7.88029,1.73554 7.88029,1.73554l7.45712,2.01698z" data-paper-data="{&quot;origPos&quot;:null,&quot;origRot&quot;:0}" fill="#000000" stroke="#000000" stroke-linecap="round"/><path d="M194.36189,156.41903c-0.81927,0.67031 -2.02681,0.54955 -2.69712,-0.26971c-0.67031,-0.81927 -0.54955,-2.02681 0.26972,-2.69712c0.81927,-0.67031 2.02681,-0.54955 2.69712,0.26971c0.67031,0.81927 0.54956,2.02681 -0.26971,2.69713z" data-paper-data="{&quot;origPos&quot;:null,&quot;origRot&quot;:0}" fill="#ffffff" stroke="none" stroke-linecap="butt"/><path d="M187.15925,157.06649c-0.74803,0.61202 -1.85057,0.50177 -2.46259,-0.24626c-0.61202,-0.74803 -0.50177,-1.85057 0.24626,-2.46259c0.74803,-0.61202 1.85057,-0.50177 2.46259,0.24626c0.61202,0.74803 0.50177,1.85056 -0.24626,2.46259z" data-paper-data="{&quot;origPos&quot;:null,&quot;origRot&quot;:0}" fill="#ffffff" stroke="none" stroke-linecap="butt"/><path d="M201.48495,156.88311c-0.74803,0.61202 -1.85057,0.50177 -2.4626,-0.24626c-0.61202,-0.74803 -0.50177,-1.85057 0.24626,-2.46259c0.74803,-0.61202 1.85057,-0.50177 2.46259,0.24626c0.61202,0.74803 0.50177,1.85056 -0.24626,2.46259z" data-paper-data="{&quot;origPos&quot;:null,&quot;origRot&quot;:0}" fill="#ffffff" stroke="none" stroke-linecap="butt"/><path d="M180.22059,157.95347c-0.67678,0.55373 -1.67433,0.45398 -2.22806,-0.2228c-0.55373,-0.67678 -0.45397,-1.67433 0.22281,-2.22806c0.67678,-0.55373 1.67432,-0.45398 2.22805,0.2228c0.55373,0.67678 0.45398,1.67433 -0.2228,2.22806z" data-paper-data="{&quot;origPos&quot;:null,&quot;origRot&quot;:0}" fill="#ffffff" stroke="none" stroke-linecap="butt"/><path d="M208.7628,158.38074c-0.7124,0.58288 -1.76245,0.47788 -2.34533,-0.23453c-0.58288,-0.7124 -0.47787,-1.76245 0.23453,-2.34533c0.7124,-0.58288 1.76245,-0.47787 2.34533,0.23453c0.58288,0.7124 0.47787,1.76244 -0.23453,2.34532z" data-paper-data="{&quot;origPos&quot;:null,&quot;origRot&quot;:0}" fill="#ffffff" stroke="none" stroke-linecap="butt"/><path d="M215.11014,158.88924c-0.64117,0.52459 -2.4657,0.93433 -2.99029,0.29316c-0.52459,-0.64117 -0.43009,-1.5862 0.21108,-2.11079c0.64117,-0.52459 1.5862,-0.43008 2.11079,0.21108c0.52459,0.64117 1.30958,1.08196 0.66842,1.60655z" data-paper-data="{&quot;origPos&quot;:null,&quot;origRot&quot;:0}" fill="#ffffff" stroke="none" stroke-linecap="butt"/><path d="M174.10366,159.22581c-0.64117,0.52459 -1.5862,0.43008 -2.11079,-0.21108c-0.52459,-0.64117 -1.43858,-0.97642 -0.79741,-1.501c0.64117,-0.52459 2.59469,-1.03987 3.11928,-0.39871c0.52459,0.64117 0.43008,1.5862 -0.21108,2.11079z" data-paper-data="{&quot;origPos&quot;:null,&quot;origRot&quot;:0}" fill="#ffffff" stroke="none" stroke-linecap="butt"/></g><g data-paper-data="{&quot;origPos&quot;:null,&quot;index&quot;:null}" stroke-width="1"><g stroke="none"><path d="M255.58432,111.70067c0.31918,1.16795 -1.50454,1.55259 -2.46229,2.20707c-1.18046,0.78627 -2.63938,1.17167 -4.04551,1.4105c-2.03117,0.34582 -4.43048,1.30448 -6.30828,0.36561c-1.09423,-0.55817 -0.50592,-2.24519 -0.44951,-3.23233c0.24891,-2.42773 0.57602,-4.87363 1.35668,-6.91148c1.09936,-2.89962 2.22821,-9.26247 4.38426,-8.20599c3.6249,1.78252 5.888,9.13063 7.52465,14.36663z" fill="#ffffcc" stroke-linecap="round"/><path d="M254.26647,111.0573c1.57324,0.56119 2.59818,1.44587 2.70021,2.51951c0.10197,1.07363 -0.73801,2.13551 -2.17741,2.98293c-1.4394,0.84796 -3.47817,1.48152 -5.77362,1.69964c-2.29545,0.21807 -4.4171,-0.02017 -5.9904,-0.58195c-1.57324,-0.56119 -2.59818,-1.44582 -2.70021,-2.51951c-0.10197,-1.07363 0.73801,-2.13551 2.17741,-2.98293c1.4394,-0.84796 3.47817,-1.48152 5.77362,-1.69959c2.29545,-0.21812 4.4171,0.02017 5.9904,0.5819z" fill="#ff9400" stroke-linecap="butt"/></g><g stroke="none"><path d="M286.95501,170.00569c-1.17496,-0.29227 -0.61937,-2.07139 -0.72237,-3.22678c-0.10914,-1.41417 0.26752,-2.87535 0.74626,-4.21888c0.69082,-1.94111 1.02683,-4.5029 2.76362,-5.68249c1.0217,-0.68187 2.2061,0.65577 3.03977,1.18736c1.99655,1.40349 3.97066,2.88414 5.36714,4.56103c1.99261,2.37612 6.99242,6.47027 5.01712,7.83515c-3.32659,2.29157 -10.84348,0.67529 -16.21154,-0.45539z" fill="#ffffcc" stroke-linecap="round"/><path d="M288.16033,169.1703c-1.25843,1.09838 -2.5311,1.5603 -3.5177,1.12465c-0.98655,-0.43565 -1.50255,-1.6874 -1.53851,-3.35738c-0.03645,-1.6702 0.40707,-3.75853 1.33846,-5.86783c0.93143,-2.10936 2.17606,-3.84394 3.43498,-4.94211c1.25843,-1.09838 2.5311,-1.5603 3.5177,-1.12465c0.9866,0.43565 1.50255,1.6874 1.53851,3.35733c0.03651,1.6702 -0.40702,3.75858 -1.33846,5.86788c-0.93143,2.1093 -2.17606,3.84394 -3.43498,4.94211z" fill="#ff9400" stroke-linecap="butt"/></g><g stroke="none"><path d="M291.42323,146.74721c-1.09407,0.51864 -1.79191,-1.20963 -2.60395,-2.03807c-0.98067,-1.02462 -1.61541,-2.39359 -2.09663,-3.73625c-0.69595,-1.93928 -2.05969,-4.13378 -1.46394,-6.14694c0.35806,-1.17501 2.12203,-0.89099 3.10378,-1.00822c2.43387,-0.17978 4.89924,-0.28574 7.04225,0.12629c3.04726,0.57494 9.5095,0.57284 8.84666,2.88053c-1.12071,3.88088 -7.95934,7.39497 -12.82816,9.92267z" fill="#ffffcc" stroke-linecap="round"/><path d="M291.82605,145.33709c-0.27722,1.64717 -0.96886,2.81113 -2.00809,3.09946c-1.03923,0.28828 -2.23171,-0.35288 -3.31796,-1.62183c-1.08679,-1.26873 -2.06735,-3.1652 -2.68376,-5.38709c-0.61641,-2.22184 -0.75311,-4.35245 -0.4754,-5.99973c0.27722,-1.64723 0.96886,-2.81113 2.00809,-3.09946c1.03928,-0.28833 2.23171,0.35288 3.31796,1.62177c1.08679,1.26879 2.06735,3.16525 2.68376,5.38709c0.61646,2.2219 0.75316,4.35245 0.4754,5.99978z" fill="#ff9400" stroke-linecap="butt"/></g><g stroke="none"><path d="M279.48055,120.39618c-0.35504,1.15759 -2.1017,0.50716 -3.26102,0.54793c-1.41794,0.033 -2.85675,-0.42163 -4.17261,-0.97193c-1.90116,-0.79414 -4.44121,-1.26738 -5.52573,-3.06506c-0.62601,-1.05681 0.77338,-2.16765 1.34897,-2.97155c1.5088,-1.9182 3.09337,-3.80986 4.84294,-5.11418c2.47971,-1.86206 6.83669,-6.63463 8.09345,-4.5888c2.10947,3.44496 0.09151,10.86408 -1.326,16.1636z" fill="#ffffcc" stroke-linecap="round"/><path d="M278.71112,119.14772c1.02915,1.31565 1.42198,2.61134 0.93397,3.57308c-0.48807,0.96174 -1.76575,1.40969 -3.43525,1.35582c-1.66971,-0.05333 -3.73124,-0.60848 -5.78743,-1.65192c-2.05619,-1.04344 -3.72143,-2.37946 -4.7503,-3.6956c-1.0292,-1.31565 -1.42204,-2.61134 -0.93397,-3.57308c0.48802,-0.96174 1.7657,-1.40969 3.43519,-1.35582c1.66971,0.05333 3.73124,0.60843 5.78743,1.65192c2.05619,1.04344 3.72143,2.37946 4.75036,3.6956z" fill="#ff9400" stroke-linecap="butt"/></g><path d="M276.7864,120.95608c6.86241,7.75 13.75394,17.60306 13.7507,27.77103c-0.01186,13.23087 -4.6898,27.42106 -13.21146,37.4774c-3.47542,4.11173 -10.68133,-0.53763 -16.04249,-2.15697c-7.7678,-2.35703 -16.51864,-3.85181 -22.20496,-10.07522c-5.68632,-6.22287 -9.20596,-14.81732 -9.20596,-24.30153c0,-9.48421 5.66367,-16.40917 9.20596,-24.30153c1.86147,-4.14193 2.29232,-10.00835 6.16247,-11.96257c5.04678,-2.09172 11.07282,0.71018 16.04249,1.88735c5.34821,1.26668 11.94154,1.4991 15.50324,5.66205z" fill="#009933" stroke="none" stroke-linecap="round"/><path d="M258.99136,128.7751c2.00005,0.38772 2.44223,-0.28957 2.96584,-0.26962c0.38017,0.00755 0.4988,0.58724 0.80886,0.80886c0.32678,0.23349 0.75171,0.30575 1.07849,0.53924c0.31006,0.22163 0.47831,0.62013 0.80886,0.80886c0.32139,0.18388 0.73175,0.13966 1.07849,0.26962c0.37585,0.14074 0.72744,0.34404 1.07849,0.53924c0.45782,0.25398 0.88004,0.57483 1.34811,0.80886c0.43247,0.21624 0.96147,0.24913 1.34811,0.53924c0.35914,0.26962 0.51336,0.74038 0.80886,1.07849c0.33433,0.38232 0.71935,0.71935 1.07849,1.07849c0.26962,0.26962 0.58724,0.4988 0.80886,0.80886c0.23349,0.32678 0.35968,0.71935 0.53924,1.07849c0.17957,0.35914 0.35968,0.71935 0.53924,1.07849c0.17957,0.35914 0.44164,0.68915 0.53924,1.07849c0.08736,0.34835 -0.08736,0.73014 0,1.07849c0.0976,0.38933 0.41252,0.69778 0.53924,1.07849c0.14452,0.43409 0.1251,0.91402 0.26962,1.34811c0.12672,0.38071 0.3985,0.70263 0.53924,1.07849c0.12996,0.34673 0.18927,0.71719 0.26962,1.07849c0.09922,0.44703 0.1704,0.90108 0.26962,1.34811c0.08035,0.36129 0.15261,0.72744 0.26962,1.07849c0.15315,0.4589 0.34296,0.90647 0.53924,1.34811c0.16285,0.36669 0.41252,0.69778 0.53924,1.07849c0.14452,0.43409 0.1704,0.90108 0.26962,1.34811c0.08035,0.36129 0.15261,0.72744 0.26962,1.07849c0.15315,0.4589 0.41198,0.88166 0.53924,1.34811c0.14344,0.52684 0.17202,1.08064 0.26962,1.61773c0.08196,0.45027 0.22433,0.89245 0.26962,1.34811c0.04476,0.44649 0,0.89892 0,1.34811c0,0.44919 0,0.89892 0,1.34811c0,0.44919 0,0.89892 0,1.34811c0,0.44919 0,0.89892 0,1.34811c0,0.35914 0,0.71935 0,1.07849c0,0.5387 -0.04853,1.08118 0,1.61773c0.04152,0.4562 0.2281,0.89191 0.26962,1.34811c0.04853,0.53655 0.09652,1.08765 0,1.61773c-0.08628,0.47561 -0.37639,0.89299 -0.53924,1.34811c-0.28634,0.80239 -0.55812,1.61234 -0.80886,2.42659c-0.10893,0.35374 -0.16339,0.72366 -0.26962,1.07849c-0.16339,0.5441 -0.38987,1.06986 -0.53924,1.61773c-0.12025,0.44164 -0.21893,0.89299 -0.26962,1.34811c-0.0399,0.35698 -0.04476,0.72205 0,1.07849c0.04584,0.36722 0.18927,0.71719 0.26962,1.07849c0.09922,0.44703 0.1704,0.90108 0.26962,1.34811c0.08035,0.36129 0.22864,0.71072 0.26962,1.07849c0.04961,0.44595 0,0.89892 0,1.34811c0,0.35914 0.04476,0.72205 0,1.07849c-0.04584,0.36722 -0.22379,0.71126 -0.26962,1.07849c-0.04476,0.35644 0.04476,0.72205 0,1.07849c-0.04584,0.36722 -0.15261,0.72744 -0.26962,1.07849c-0.15315,0.4589 -0.34296,0.90647 -0.53924,1.34811c-0.16285,0.36669 -0.35968,0.71935 -0.53924,1.07849c-0.17957,0.35914 -0.35968,0.71935 -0.53924,1.07849c-0.17957,0.35914 -0.27771,0.77381 -0.53924,1.07849c-0.29227,0.3408 -0.7242,0.53331 -1.07849,0.80886c-0.45404,0.3532 -0.85147,0.78891 -1.34811,1.07849c-0.59047,0.34458 -1.26506,0.52576 -1.88735,0.80886c-0.36561,0.16609 -0.7118,0.37639 -1.07849,0.53924c-0.44164,0.19628 -0.8849,0.40012 -1.34811,0.53924c-0.4384,0.13158 -0.90215,0.16663 -1.34811,0.26962c-0.72151,0.16663 -1.42684,0.41737 -2.15697,0.53924c-0.35428,0.05878 -0.71935,0 -1.07849,0c-0.44919,0 -0.89892,0 -1.34811,0c-0.35914,0 -0.71935,0 -1.07849,0c-0.35914,0 -0.72151,0.0399 -1.07849,0c-0.45512,-0.05069 -0.89245,-0.22433 -1.34811,-0.26962c-0.44649,-0.04476 -0.89892,0 -1.34811,0c-0.35914,0 -0.72205,0.04476 -1.07849,0c-0.36722,-0.04584 -0.71558,-0.19682 -1.07849,-0.26962c-0.53547,-0.10731 -1.09466,-0.1127 -1.61773,-0.26962c-0.38448,-0.1154 -0.71935,-0.35968 -1.07849,-0.53924c-0.35914,-0.17957 -0.69778,-0.41252 -1.07849,-0.53924c-0.43409,-0.14452 -0.89892,-0.18011 -1.34811,-0.26962c-0.44919,-0.08951 -0.90108,-0.1704 -1.34811,-0.26962c-0.36129,-0.08035 -0.73175,-0.13966 -1.07849,-0.26962c-0.37585,-0.14074 -0.73822,-0.32624 -1.07849,-0.53924c-0.38071,-0.23781 -0.68592,-0.59101 -1.07849,-0.80886c-0.42277,-0.23457 -0.89353,-0.37423 -1.34811,-0.53924c-0.53385,-0.19413 -1.10976,-0.28526 -1.61773,-0.53924c-0.40174,-0.2006 -0.68592,-0.59101 -1.07849,-0.80886c-0.42277,-0.23457 -0.90647,-0.34296 -1.34811,-0.53924c-0.36669,-0.16285 -0.73175,-0.33703 -1.07849,-0.53924c-0.73175,-0.42654 -1.47213,-0.84985 -2.15697,-1.34811c-0.30791,-0.22379 -0.55812,-0.52199 -0.80886,-0.80886c-0.37855,-0.43247 -0.74901,-0.87735 -1.07849,-1.34811c-0.30036,-0.4287 -0.50851,-0.91941 -0.80886,-1.34811c-0.32948,-0.47076 -0.75117,-0.87519 -1.07849,-1.34811c-0.48208,-0.69616 -0.96956,-1.39934 -1.34811,-2.15697c-0.43247,-0.86495 -0.77274,-1.77896 -1.07849,-2.69622c-0.14452,-0.43409 -0.24428,-0.89083 -0.26962,-1.34811c-0.06471,-1.1653 -0.05285,-2.33924 0,-3.50508c0.03667,-0.8121 0.11971,-1.62744 0.26962,-2.42659c0.12025,-0.64224 0.36453,-1.25752 0.53924,-1.88735c0.27394,-0.98628 0.48532,-1.99466 0.80886,-2.96584c0.21624,-0.64871 0.53924,-1.25859 0.80886,-1.88735c0.26962,-0.62876 0.50311,-1.27585 0.80886,-1.88735c0.23403,-0.46806 0.53924,-0.89892 0.80886,-1.34811c0.26962,-0.44919 0.49449,-0.92912 0.80886,-1.34811c0.49664,-0.66219 1.07903,-1.25859 1.61773,-1.88735c0.5387,-0.62876 1.05853,-1.27693 1.61773,-1.88735c0.42924,-0.46806 0.92642,-0.87357 1.34811,-1.34811c0.2982,-0.33541 0.49125,-0.76087 0.80886,-1.07849c0.31761,-0.31761 0.76087,-0.49125 1.07849,-0.80886c0.31761,-0.31761 0.49125,-0.76087 0.80886,-1.07849c0.40659,-0.40659 0.89892,-0.71935 1.34811,-1.07849c0.44919,-0.35914 0.94152,-0.6719 1.34811,-1.07849c0.31761,-0.31761 0.51066,-0.74308 0.80886,-1.07849c0.42169,-0.47453 0.89892,-0.89892 1.34811,-1.34811c0.62876,-0.62876 1.30227,-1.21869 1.88735,-1.88735c0.67405,-0.77058 1.30443,-1.58484 1.88735,-2.42659c0.22864,-0.33002 0.38987,-0.70587 0.53924,-1.07849c0.21084,-0.52738 0.45296,-1.05638 0.53924,-1.61773c0.09545,-0.62121 -0.05716,-1.26129 0,-1.88735c0.03343,-0.36884 0.22379,-0.71126 0.26962,-1.07849c0.04476,-0.35644 -0.04476,-0.72205 0,-1.07849c0.04584,-0.36722 0.17957,-0.71935 0.26962,-1.07849c0.09005,-0.35914 0.13966,-0.73175 0.26962,-1.07849c0.14074,-0.37585 0.29281,-0.76141 0.53924,-1.07849c0.38987,-0.50096 0.80347,-1.02133 1.34811,-1.34811c0.39257,-0.23565 0.89245,-0.22433 1.34811,-0.26962c0.44649,-0.04476 0.89892,0 1.34811,0c0.35914,0 0.71935,0 1.07849,0c0.35914,0 0.73014,0.08736 1.07849,0c0.38933,-0.0976 0.67675,-0.53924 1.07849,-0.53924c0.2006,0 0.1003,0.57322 0.26962,0.53924z" fill="#ffffcc" stroke="#ffffcc" stroke-linecap="round"/><path d="M260.33948,129.58397c-0.82235,0.35267 -1.06501,0.99544 -1.34811,1.61773c-0.16609,0.36561 -0.27771,0.77381 -0.53924,1.07849c-0.29227,0.3408 -0.67675,0.60827 -1.07849,0.80886c-0.3311,0.16555 -0.73175,0.13966 -1.07849,0.26962c-0.37585,0.14074 -0.68915,0.44164 -1.07849,0.53924c-0.34835,0.08736 -0.74847,0.14128 -1.07849,0c-0.34997,-0.14991 -0.6266,-0.47453 -0.80886,-0.80886c-0.36722,-0.67351 -0.58346,-1.4236 -0.80886,-2.15697c-0.13481,-0.43733 -0.1704,-0.90108 -0.26962,-1.34811c-0.08035,-0.36129 -0.20869,-0.71342 -0.26962,-1.07849c-0.11917,-0.71396 -0.13643,-1.44571 -0.26962,-2.15697c-0.13643,-0.72744 -0.23295,-1.48292 -0.53924,-2.15697c-0.15746,-0.34673 -0.53924,-0.53924 -0.80886,-0.80886c-0.26962,-0.26962 -0.51983,-0.56081 -0.80886,-0.80886c-0.3408,-0.29227 -0.73768,-0.51659 -1.07849,-0.80886c-0.28903,-0.24805 -0.4988,-0.58724 -0.80886,-0.80886c-0.32678,-0.23349 -0.69239,-0.4287 -1.07849,-0.53924c-0.88058,-0.25129 -1.78543,-0.44326 -2.69622,-0.53924c-0.80347,-0.08466 -1.62366,0.08898 -2.42659,0c-0.82289,-0.09167 -1.68621,-0.16932 -2.42659,-0.53924c-0.40174,-0.2006 -0.70803,-0.64116 -0.80886,-1.07849c-0.18172,-0.7873 -0.12295,-1.62798 0,-2.42659c0.06093,-0.39688 0.25506,-0.79431 0.53924,-1.07849c0.54625,-0.54625 1.23595,-0.93343 1.88735,-1.34811c0.33864,-0.2157 0.68915,-0.44164 1.07849,-0.53924c0.34835,-0.08736 0.72205,0.04476 1.07849,0c0.36722,-0.04584 0.70857,-0.26962 1.07849,-0.26962c0.45782,0 0.90809,0.14398 1.34811,0.26962c0.81911,0.23403 1.63283,0.49988 2.42659,0.80886c0.82396,0.32031 1.61395,0.73014 2.42659,1.07849c0.44434,0.19035 0.90647,0.34296 1.34811,0.53924c0.36669,0.16285 0.71935,0.35968 1.07849,0.53924c0.71827,0.35914 1.45002,0.69778 2.15697,1.07849c0.46105,0.24805 0.94314,0.47723 1.34811,0.80886c0.58939,0.48262 1.19496,0.98358 1.61773,1.61773c0.49071,0.73553 0.70209,1.62636 1.07849,2.42659c0.34188,0.72636 0.7695,1.41551 1.07849,2.15697c0.14236,0.34188 0.22379,0.71126 0.26962,1.07849c0.04476,0.35644 -0.02966,0.72043 0,1.07849c0.05986,0.72151 0.32948,1.43547 0.26962,2.15697c-0.03343,0.40012 -0.37316,0.71288 -0.53924,1.07849z" fill="#ffffcc" stroke="#ffffcc" stroke-linecap="round"/></g><g data-paper-data="{&quot;origPos&quot;:null,&quot;index&quot;:null}" stroke="none" stroke-width="1"><path d="M273.6686,187.22766c-0.8588,-0.85351 0.53056,-2.09588 1.0347,-3.14066c0.63156,-1.26992 1.70428,-2.3312 2.80433,-3.23902c1.58856,-1.31214 3.19081,-3.33905 5.28679,-3.46097c1.22678,-0.06142 1.55755,1.69436 2.00065,2.57828c0.99415,2.22875 1.92952,4.51228 2.26838,6.66807c0.49206,3.06177 2.68457,9.14066 0.28882,9.2993c-4.031,0.26121 -9.6552,-4.98131 -13.68367,-8.705z" fill="#ffffcc" stroke-linecap="round"/><path d="M275.13178,187.1286c-1.64361,0.29755 -2.97312,0.04141 -3.59664,-0.83858c-0.62353,-0.87994 -0.42449,-2.2192 0.40104,-3.67128c0.82526,-1.45251 2.27701,-3.01782 4.15843,-4.35094c1.88137,-1.33312 3.83941,-2.18393 5.48335,-2.48106c1.64367,-0.29755 2.97312,-0.04141 3.59664,0.83858c0.62358,0.87994 0.42455,2.21915 -0.40104,3.67122c-0.82526,1.45256 -2.27701,3.01787 -4.15837,4.35099c-1.88137,1.33312 -3.83947,2.18393 -5.4834,2.48106z" fill="#ff9400" stroke-linecap="butt"/></g><g data-paper-data="{&quot;origPos&quot;:null,&quot;index&quot;:null}" stroke="none" stroke-width="1"><path d="M261.68759,142.79542c2.42929,6.0832 3.9877,12.67761 4.988,19.21054c1.76333,11.5026 10.46563,26.06486 3.37027,35.52265c-5.92143,7.87996 -19.65865,1.16692 -29.11913,0c-5.46793,-0.65356 -11.40338,-1.8674 -15.09881,-5.39243c-2.23732,-2.14133 0.4012,-6.18134 -0.45728,-9.30734c-1.91377,-7.06463 -7.09213,-12.69594 -7.09213,-20.82288c0,-8.12693 2.20766,-15.36466 7.09213,-20.82288c6.92928,-7.74299 15.83757,-17.22019 26.20614,-16.85674c6.86942,0.24374 7.47391,11.90919 10.11081,18.46908z" data-paper-data="{&quot;origPos&quot;:null}" fill="#ffd833" stroke-linecap="round"/><g><path d="M242.59568,178.16115c2.0502,1.1103 3.31904,2.64391 3.31904,4.33605c0,1.69215 -1.26884,3.22575 -3.31904,4.33605c-2.04966,1.1103 -4.88069,1.79784 -8.00507,1.79784c-3.12438,0 -5.9554,-0.68754 -8.00507,-1.79784c-2.0502,-1.1103 -3.31904,-2.64391 -3.31904,-4.33605c0,-1.69215 1.26884,-3.22575 3.31904,-4.33605c2.04966,-1.1103 4.88069,-1.79784 8.00507,-1.79784c3.12438,0 5.9554,0.68754 8.00507,1.79784z" fill="url(#color-3)" stroke-linecap="butt"/><path d="M245.39543,171.92373c1.80754,0.49395 4.40562,0.77975 4.96805,2.55224c0.63685,2.00976 -0.41576,4.87692 -2.29178,5.66205c-4.36194,1.82696 -9.43136,1.00137 -14.15513,0.94368c-4.51454,-0.05554 -9.67133,0.77867 -13.7507,-1.34811c-1.94128,-1.01378 -1.96824,-4.52587 -1.07849,-6.60573c0.52792,-1.36429 2.78034,-0.88544 4.29399,-1.20413c3.63935,-0.76411 6.71142,-1.89652 11.00703,-1.89652c4.29561,0 7.41945,0.91779 11.00703,1.89652z" fill="url(#color-4)" stroke-linecap="round"/><path d="M250.09386,161.80375c1.74445,0.69023 2.25619,3.36919 2.15697,5.25762c-0.11054,2.03726 -0.77597,4.53989 -2.56141,5.25762c-4.70544,2.0955 -10.11836,2.41851 -15.16622,2.42659c-5.23389,0.00755 -10.6878,-0.26908 -15.57065,-2.15697c-1.63391,-0.62822 -2.11815,-3.1233 -2.29178,-4.988c-0.20329,-2.18286 -0.93073,-5.72946 1.2133,-6.60573c5.13899,-2.08795 11.19739,-0.52846 16.64913,-0.40443c5.19938,0.11809 10.66785,-0.52307 15.57065,1.2133z" fill="url(#color-5)" stroke-linecap="round"/><path d="M248.69182,154.15189c1.70509,0.65626 2.91731,2.62827 2.88495,4.28159c0.03235,2.18232 -1.02564,4.8424 -2.88495,5.6297c-4.47302,1.88843 -8.80368,2.05452 -14.43824,2.05452c-5.63455,0 -9.85036,-0.49125 -14.43824,-2.05452c-1.92348,-0.65518 -4.03084,-2.3236 -3.96344,-4.28159c-0.06741,-2.30634 1.78166,-4.73725 3.96344,-5.6297c4.48489,-1.83774 8.80368,-2.05452 14.43824,-2.05452c5.63455,0 9.90482,0.31546 14.43824,2.05452z" fill="url(#color-6)" stroke-linecap="round"/><path d="M247.90938,147.86485c1.75632,0.68646 2.75715,3.0079 2.72372,4.90657c0.03343,1.40419 -1.29364,2.85368 -2.72372,3.28884c-4.404,1.34164 -8.36744,1.69916 -13.7232,1.69916c-5.35576,0 -9.34455,-0.29766 -13.7232,-1.69916c-1.77627,-0.56782 -3.71862,-2.14241 -3.66739,-3.9629c-0.05123,-1.86578 1.83019,-3.61401 3.66739,-4.23252c4.35655,-1.46944 8.36744,-1.69916 13.7232,-1.69916c5.35576,0 9.43622,0.02157 13.7232,1.69916z" data-paper-data="{&quot;origPos&quot;:null}" fill="url(#color-7)" stroke-linecap="round"/></g></g><g data-paper-data="{&quot;origPos&quot;:null}" stroke-width="0.5"><path d="M287.83333,131.16667l-3.33333,5.33334c0,0 -2.14794,3.55441 -5,6.33333c-2.85206,2.77892 -4.9309,4.32902 -8,6.33334c-3.0691,2.00431 -8.16666,3.33334 -8.16666,3.33334l-6,-5.33334c0,0 4.92738,-3.38011 8.16666,-5.66666c3.23928,-2.28655 4.60602,-3.03587 7.83333,-6.33334c3.22731,-3.29747 7.5,-9.33333 7.5,-9.33333z" data-paper-data="{&quot;origPos&quot;:null,&quot;index&quot;:null}" fill="#666666" stroke="#666666" stroke-linecap="round"/><path d="M308.09867,164.92218l-9.62379,1.68365c0,0 -3.9132,0.55747 -7.88029,0.90221c-3.96709,0.34474 -6.5576,0.22805 -10.20216,-0.16417c-3.64456,-0.39222 -12.09811,-3.09158 -12.09811,-3.09158l2.40019,-7.4272c0,0 5.95399,0.50414 9.90899,0.78568c3.955,0.28154 5.48729,0.56708 10.07317,0.05863c4.58589,-0.50844 11.7149,-2.47432 11.7149,-2.47432z" data-paper-data="{&quot;origPos&quot;:null,&quot;index&quot;:null,&quot;origRot&quot;:0}" fill="#666666" stroke="#666666" stroke-linecap="round"/><path d="M252,124.66667c0.06967,0 0.13448,0.00486 0.19478,0.01389c5.07325,-3.21487 10.2311,-4.74316 16.18359,-3.20736c3.67489,0.94961 5.62389,3.42674 8.61347,5.4409c2.79494,1.88302 5.7822,2.84833 8.21526,5.21214c4.44296,4.44296 9.35886,9.23731 12.95828,13.81907c3.40256,5.10384 6.50128,9.66655 6.50128,16.22136c0,5.54823 0.79835,11.75011 -0.18609,17.19612c-0.50762,2.53809 -4.58952,5.22431 -7.14724,5.30388c-0.31541,0.00981 -1.76628,0.18456 -2,0c-1.89906,-1.49961 -1.46322,-3.59064 -0.56109,-5.44721c1.07995,-2.15989 2.57691,-4.22395 1.89443,-6.88932c-0.04174,-0.16304 0.10632,0.45298 -0.05471,0.50191c-0.10425,0.03169 -0.28271,0.03323 -0.46063,0.01788c0.39285,0.89665 -0.99453,4.36755 -1.37079,5.15838c-0.94401,1.88802 -1.4541,4.79552 -3.05918,6.15708c-1.58432,1.34394 -5.79847,1.59359 -7.22008,0.22265c-0.71082,-0.68548 -0.50128,-1.99534 -0.50128,-2.88804c0,-1.86525 0.82209,-3.70055 1.18608,-5.52945c0.11021,-0.55372 0.33616,-1.1038 0.46949,-1.65311c-0.40714,0.24239 -1.17646,0.09348 -1.43421,0.51461c-0.495,0.80881 -0.56805,1.81341 -0.75122,2.74382c-0.71722,2.86891 -1.47034,6.41644 -4.09637,8.13124c-2.72377,1.77862 -6.70711,0.99899 -6.70711,-2.37377c0,-3.04496 1.98062,-5.25459 2.73819,-8.03806c0.07089,-0.26047 -2.3914,-0.27091 -2.28951,-0.14571c0.36307,0.44612 -0.4744,1.04957 -0.75544,1.55142c-0.8314,1.42525 -1.64285,3.33127 -3.15263,4.1841c-4.07767,2.30337 -7.19645,-1.48885 -5.87395,-5.55175c0.53679,-1.64909 1.95098,-3.2735 2.88191,-4.73057c1.59089,-2.49001 4.67388,-5.38883 5.23269,-8.40093c0.28548,-1.53879 -1.33607,-3.39963 -1.70974,-4.83044c-0.22224,-0.85098 -0.07225,-1.83244 -0.59656,-2.55979c-1.02643,-1.9371 -1.53566,-4.25115 -2.7353,-6.10319c-0.02814,-0.04344 -1.59471,-0.62878 -1.85355,-0.81397c-2.43347,-1.74106 -4.5207,-3.10446 -7.22776,-4.44721c-4.87614,-2.43807 -12.46998,-6.57853 -10.77371,-12.93011c0.71318,-2.13953 3.5537,-2.72691 4.14521,-5.09297l0.30347,0.24253c0,0 0,-1 1,-1z" data-paper-data="{&quot;origPos&quot;:null}" fill="#ffd833" stroke="none" stroke-linecap="butt"/><path d="M256,147.00001l3.33333,-5.33334c0,0 2.14794,-3.55441 5,-6.33333c2.85206,-2.77893 4.9309,-4.32903 8,-6.33334c3.0691,-2.00432 8.33333,-4.33334 8.33333,-4.33334l7,6.66667c0,0 -6.09405,3.04678 -9.33333,5.33333c-3.23928,2.28656 -4.60602,3.03587 -7.83333,6.33334c-3.22731,3.29747 -7.5,9.33334 -7.5,9.33334z" data-paper-data="{&quot;origPos&quot;:null}" fill="#000000" stroke="#000000" stroke-linecap="round"/><path d="M268,136.58333c0,-1.05855 0.85812,-1.91666 1.91667,-1.91666c1.05854,0 1.91666,0.85812 1.91666,1.91666c0,1.05855 -0.85812,1.91667 -1.91666,1.91667c-1.05854,0 -1.91667,-0.85813 -1.91667,-1.91667z" data-paper-data="{&quot;origPos&quot;:null}" fill="#ffffff" stroke="none" stroke-linecap="butt"/><path d="M273.91667,132.66667c0,-0.9665 0.7835,-1.75 1.75,-1.75c0.9665,0 1.75,0.7835 1.75,1.75c0,0.9665 -0.7835,1.75 -1.75,1.75c-0.9665,0 -1.75,-0.7835 -1.75,-1.75z" data-paper-data="{&quot;origPos&quot;:null}" fill="#ffffff" stroke="none" stroke-linecap="butt"/><path d="M263.41667,141.66667c0,-0.9665 0.7835,-1.75 1.75,-1.75c0.9665,0 1.75,0.7835 1.75,1.75c0,0.9665 -0.7835,1.75 -1.75,1.75c-0.9665,0 -1.75,-0.7835 -1.75,-1.75z" data-paper-data="{&quot;origPos&quot;:null}" fill="#ffffff" stroke="none" stroke-linecap="butt"/><path d="M278.66667,129.58333c0,-0.87445 0.70888,-1.58333 1.58333,-1.58333c0.87445,0 1.58333,0.70888 1.58333,1.58333c0,0.87445 -0.70888,1.58334 -1.58333,1.58334c-0.87445,0 -1.58333,-0.70889 -1.58333,-1.58334z" data-paper-data="{&quot;origPos&quot;:null}" fill="#ffffff" stroke="none" stroke-linecap="butt"/><path d="M260,146.33334c0,-0.92047 0.7462,-1.66667 1.66667,-1.66667c0.92047,0 1.66667,0.7462 1.66667,1.66667c0,0.92047 -0.7462,1.66666 -1.66667,1.66666c-0.92047,0 -1.66667,-0.7462 -1.66667,-1.66666z" data-paper-data="{&quot;origPos&quot;:null}" fill="#ffffff" stroke="none" stroke-linecap="butt"/><path d="M257.66667,150.5c0,-0.82843 0.67158,-1.5 1.5,-1.5c0.82842,0 1.5,0.67157 1.5,1.5c0,0.82843 -1.67158,1.66666 -2.5,1.66666c-0.82842,0 -0.5,-0.83824 -0.5,-1.66666z" data-paper-data="{&quot;origPos&quot;:null}" fill="#ffffff" stroke="none" stroke-linecap="butt"/><path d="M283.00001,127.83333c0,-0.82842 1.83824,-1.66667 2.66667,-1.66667c0.82842,0 0.33333,0.83824 0.33333,1.66667c0,0.82842 -0.67158,1.5 -1.5,1.5c-0.82842,0 -1.5,-0.67157 -1.5,-1.5z" data-paper-data="{&quot;origPos&quot;:null}" fill="#ffffff" stroke="none" stroke-linecap="butt"/><path d="M268.26809,155.85178l7.45712,-2.01698c0,0 3.9132,-1.3908 7.88029,-1.73554c3.96709,-0.34474 6.55761,-0.22805 10.20217,0.16417c3.64457,0.39222 13.52701,3.08983 13.52701,3.08983l0.52945,9.42571c0,0 -10.31253,-2.5009 -14.26753,-2.78244c-3.955,-0.28154 -5.48729,-0.56707 -10.07318,-0.05863c-3.09196,0.34281 -15.2149,2.30765 -15.2149,2.30765z" data-paper-data="{&quot;origPos&quot;:null,&quot;origRot&quot;:0}" fill="#000000" stroke="#000000" stroke-linecap="round"/><path d="M286.48515,155.38857c0.67031,-0.81927 1.87785,-0.94002 2.69712,-0.26971c0.81927,0.67031 0.94002,1.87786 0.26972,2.69713c-0.67031,0.81927 -1.87785,0.94002 -2.69712,0.26971c-0.81927,-0.67031 -0.94002,-1.87786 -0.26971,-2.69712z" data-paper-data="{&quot;origPos&quot;:null,&quot;origRot&quot;:0}" fill="#ffffff" stroke="none" stroke-linecap="butt"/><path d="M293.71124,156.27057c0.61203,-0.74803 1.71456,-0.85828 2.46259,-0.24626c0.74803,0.61202 0.85829,1.71456 0.24626,2.46259c-0.61203,0.74803 -1.71456,0.85828 -2.46259,0.24626c-0.74803,-0.61202 -0.85829,-1.71456 -0.24626,-2.46259z" data-paper-data="{&quot;origPos&quot;:null,&quot;origRot&quot;:0}" fill="#ffffff" stroke="none" stroke-linecap="butt"/><path d="M279.38554,156.08719c0.61203,-0.74803 1.71456,-0.85828 2.4626,-0.24626c0.74803,0.61202 0.85829,1.71456 0.24626,2.46259c-0.61203,0.74803 -1.71457,0.85828 -2.4626,0.24626c-0.74803,-0.61202 -0.85829,-1.71456 -0.24626,-2.46259z" data-paper-data="{&quot;origPos&quot;:null,&quot;origRot&quot;:0}" fill="#ffffff" stroke="none" stroke-linecap="butt"/><path d="M300.67336,157.39207c0.55374,-0.67678 1.55127,-0.77654 2.22805,-0.2228c0.67678,0.55373 0.77654,1.55128 0.22281,2.22806c-0.55374,0.67678 -1.55127,0.77654 -2.22806,0.2228c-0.67678,-0.55373 -0.77654,-1.55128 -0.2228,-2.22806z" data-paper-data="{&quot;origPos&quot;:null,&quot;origRot&quot;:0}" fill="#ffffff" stroke="none" stroke-linecap="butt"/><path d="M272.11942,157.70209c0.58288,-0.7124 1.63292,-0.81741 2.34533,-0.23453c0.7124,0.58288 0.81741,1.63292 0.23453,2.34533c-0.58288,0.7124 -1.63293,0.81741 -2.34533,0.23453c-0.7124,-0.58288 -0.81741,-1.63292 -0.23453,-2.34532z" data-paper-data="{&quot;origPos&quot;:null,&quot;origRot&quot;:0}" fill="#ffffff" stroke="none" stroke-linecap="butt"/><path d="M266.67503,158.94936c0.52459,-0.64117 1.46963,-0.73567 2.11079,-0.21108c0.64117,0.52459 0.73567,1.46963 0.21108,2.11079c-0.52459,0.64117 -2.34913,0.23143 -2.99029,-0.29316c-0.64117,-0.52459 0.14383,-0.96538 0.66842,-1.60655z" data-paper-data="{&quot;origPos&quot;:null,&quot;origRot&quot;:0}" fill="#ffffff" stroke="none" stroke-linecap="butt"/><path d="M306.80201,158.78168c0.52459,-0.64117 2.47812,-0.12588 3.11928,0.39871c0.64117,0.52459 -0.27282,0.85984 -0.79741,1.501c-0.52459,0.64117 -1.46963,0.73567 -2.11079,0.21108c-0.64117,-0.52459 -0.73567,-1.46963 -0.21108,-2.11079z" data-paper-data="{&quot;origPos&quot;:null,&quot;origRot&quot;:0}" fill="#ffffff" stroke="none" stroke-linecap="butt"/></g><path d="M285.67397,185.32308c-0.14134,-0.81628 0.40582,-1.59258 1.2221,-1.73391c0.81628,-0.14133 1.59258,0.40582 1.73391,1.2221c0.14134,0.81628 -1.36272,1.92741 -2.179,2.06875c-0.81628,0.14133 -0.63567,-0.74065 -0.77701,-1.55693z" data-paper-data="{&quot;origPos&quot;:null,&quot;origRot&quot;:0}" fill="#ffffff" stroke="none" stroke-width="0.5" stroke-linecap="butt"/><path d="M294.76878,184.58841c0.00425,-0.82842 0.67926,-1.49653 1.50768,-1.49228c0.82842,0.00425 1.49654,0.67926 1.49229,1.50767c-0.00425,0.82842 -1.68011,1.65807 -2.50852,1.65382c-0.82842,-0.00425 -0.4957,-0.84079 -0.49144,-1.66921z" data-paper-data="{&quot;origPos&quot;:null,&quot;origRot&quot;:0}" fill="#ffffff" stroke="none" stroke-width="0.5" stroke-linecap="butt"/><path d="M273.53112,186.32308c-0.14134,-0.81628 0.40582,-1.59258 1.2221,-1.73391c0.81628,-0.14133 1.59258,0.40582 1.73391,1.2221c0.14134,0.81628 -1.36272,1.92741 -2.179,2.06875c-0.81628,0.14133 -0.63567,-0.74065 -0.77701,-1.55693z" data-paper-data="{&quot;origPos&quot;:null,&quot;origRot&quot;:0}" fill="#ffffff" stroke="none" stroke-width="0.5" stroke-linecap="butt"/><path d="M263.39667,180.47748c0.01231,-0.82834 0.69379,-1.48985 1.52213,-1.47754c0.82833,0.01231 1.48985,0.69379 1.47754,1.52213c-0.01231,0.82834 -1.69616,1.64164 -2.5245,1.62932c-0.82833,-0.01231 -0.48748,-0.84558 -0.47517,-1.67391z" data-paper-data="{&quot;origPos&quot;:null,&quot;origRot&quot;:0}" fill="#ffffff" stroke="none" stroke-width="0.5" stroke-linecap="butt"/><path d="M193.30135,185.54668c-0.81628,-0.14133 -2.32034,-1.25247 -2.179,-2.06875c0.14133,-0.81628 0.91763,-1.36343 1.73391,-1.2221c0.81628,0.14133 1.36343,0.91763 1.2221,1.73391c-0.14133,0.81628 0.03927,1.69826 -0.77701,1.55693z" data-paper-data="{&quot;origPos&quot;:null,&quot;origRot&quot;:0,&quot;index&quot;:null}" fill="#ffffff" stroke="none" stroke-width="0.5" stroke-linecap="butt"/><path d="M184.4921,184.92428c-0.82842,0.00425 -2.50427,-0.8254 -2.50852,-1.65382c-0.00425,-0.82842 0.66387,-1.50342 1.49229,-1.50768c0.82842,-0.00425 1.50342,0.66387 1.50768,1.49228c0.00425,0.82842 0.33697,1.66496 -0.49144,1.66921z" data-paper-data="{&quot;origPos&quot;:null,&quot;origRot&quot;:0,&quot;index&quot;:null}" fill="#ffffff" stroke="none" stroke-width="0.5" stroke-linecap="butt"/><path d="M205.4442,186.54668c-0.81628,-0.14133 -2.32034,-1.25247 -2.179,-2.06875c0.14133,-0.81628 0.91763,-1.36343 1.73391,-1.2221c0.81628,0.14133 1.36344,0.91763 1.2221,1.73391c-0.14133,0.81628 0.03927,1.69826 -0.77701,1.55693z" data-paper-data="{&quot;origPos&quot;:null,&quot;origRot&quot;:0,&quot;index&quot;:null}" fill="#ffffff" stroke="none" stroke-width="0.5" stroke-linecap="butt"/><path d="M215.88049,180.81806c-0.82834,0.01231 -2.51218,-0.80099 -2.5245,-1.62932c-0.01231,-0.82834 0.6492,-1.50982 1.47754,-1.52213c0.82834,-0.01231 1.50981,0.6492 1.52212,1.47754c0.01231,0.82834 0.35317,1.6616 -0.47517,1.67391z" data-paper-data="{&quot;origPos&quot;:null,&quot;origRot&quot;:0,&quot;index&quot;:null}" fill="#ffffff" stroke="none" stroke-width="0.5" stroke-linecap="butt"/><path d="M245.37559,119.225c0.3098,-0.31605 0.69827,-0.76999 0.82968,-1.19917c0.12106,-0.39548 0.19553,-0.81776 0.40405,-1.17539c0.20232,-0.34706 0.53612,-0.59953 0.80374,-0.89886c0.26768,-0.29928 0.40664,-0.8382 0.8038,-0.89881c0.38189,-0.05802 0.7647,0.30467 0.97441,0.62876c0.20146,0.3105 0.19078,0.73418 0.14694,1.10194c-0.10353,0.86532 -0.29993,1.72752 -0.58335,2.5517c-0.12548,0.36534 -0.26072,0.8581 -0.62876,0.97447c-0.39494,0.12467 -0.79528,-0.2398 -1.17539,-0.40405c-0.38011,-0.16425 -0.94713,-0.19407 -1.09979,-0.57904z" fill="#ffffff" stroke="#ffffff" stroke-width="1" stroke-linecap="round"/><path d="M284.62606,202.60159l2.33117,-4.16788l1.3329,-0.83403l0.50052,0.99974l-0.33074,5.00017z" data-paper-data="{&quot;origPos&quot;:null,&quot;origRot&quot;:0}" fill="#ffffff" stroke="#d40000" stroke-width="0" stroke-linecap="round"/><path d="M276.68671,196.63991l4.15539,-2.35333l1.57219,-0.02137l-0.09087,1.11433l-2.87718,4.1028z" data-paper-data="{&quot;origPos&quot;:null,&quot;origRot&quot;:0}" fill="#ffffff" stroke="#d40000" stroke-width="0" stroke-linecap="round"/><path d="M210.04352,111.19602c0.11756,0.43306 0.24176,0.85399 0.36284,1.25585c0,0 0.31233,1.03661 -0.63764,1.37743c-0.94997,0.34082 -1.26231,-0.69579 -1.26231,-0.69579c-0.08002,-0.26559 -0.15986,-0.53853 -0.23773,-0.81734l-0.04087,0.02579c0,0 -0.06364,-0.1816 -0.06695,-0.42081c-0.78611,-2.95172 -1.26944,-6.46497 0.55273,-8.89317l-0.06038,-0.08477l0.90783,-0.76989c0.14077,-0.12373 0.31399,-0.20733 0.50666,-0.23274c0.5483,-0.0723 1.04649,0.35411 1.11274,0.9524c0.00891,0.08048 0.00956,0.15998 0.00266,0.23746l-0.0377,0.53228c0.21202,0.28441 -0.23741,1.70234 -0.30971,2.04138c-0.40558,1.9019 -0.97123,3.49702 -0.75305,5.46722l-0.03914,0.02469z" data-paper-data="{&quot;origPos&quot;:null,&quot;index&quot;:null,&quot;origRot&quot;:0}" fill="#009933" stroke="none" stroke-width="0.5" stroke-linecap="butt"/><g stroke-linecap="round"><path d="M243.20589,118.64957c3.13365,-0.87374 6.5126,1.96457 8.51778,4.46046c1.69349,2.10887 1.83008,5.34865 1.47564,8.0736c-0.30354,2.77155 -1.8056,5.33053 -3.36472,7.69586c-2.00259,3.0354 -4.12899,6.22217 -7.16142,8.2151c-3.69619,2.42719 -8.1656,4.27081 -12.65404,4.57974c-2.54846,0.1779 -4.60379,-2.13341 -7.02283,-3.21745c-0.60309,-0.26924 -1.23983,0.05835 -1.33603,-0.54291c-0.38324,-2.40211 -0.52878,-5.13182 0.25981,-7.56418c1.11133,-3.67575 2.53126,-7.49893 5.31004,-10.34193c4.56313,-4.66742 9.68842,-9.60441 15.97578,-11.3583z" data-paper-data="{&quot;origPos&quot;:null}" fill="#000000" stroke="none" stroke-width="1"/><path d="M245.91472,118.52948c2.90544,0.6266 4.3738,4.72161 4.44876,7.68422c0.17094,4.0152 -1.30713,8.28871 -3.7747,11.45892c-3.39022,4.35439 -8.31082,7.56343 -13.21146,10.24562c-2.13972,1.11569 -4.87476,1.42145 -7.27978,0.80886c-1.68891,-0.42924 -3.4037,-1.97848 -3.70514,-3.69651c-0.51821,-2.94642 0.50257,-6.01148 1.41336,-8.84089c0.84607,-2.31012 2.39208,-4.32527 3.7747,-6.33611c1.7396,-2.53013 3.0327,-5.71652 5.66205,-7.27978c3.80598,-2.2632 8.34209,-4.97668 12.67222,-4.04432z" data-paper-data="{&quot;origPos&quot;:null}" fill="#666666" stroke="none" stroke-width="1"/><path d="M229.63485,150.7402l-2.33333,4.16667l-1.33334,0.83333l-0.5,-1l0.33334,-5z" data-paper-data="{&quot;origPos&quot;:null}" fill="#ffffff" stroke="#d40000" stroke-width="0"/><path d="M239.37198,147.76055l0.31949,4.76481l-0.66225,1.42606l-0.96481,-0.56492l-2.45012,-4.37127z" data-paper-data="{&quot;origPos&quot;:null,&quot;origRot&quot;:0}" fill="#ffffff" stroke="#d40000" stroke-width="0"/><path d="M247.63901,141.38186l2.02823,4.3234l-0.09909,1.56921l-1.1041,-0.17593l-3.87044,-3.1829z" data-paper-data="{&quot;origPos&quot;:null,&quot;origRot&quot;:0}" fill="#ffffff" stroke="#d40000" stroke-width="0"/><path d="M250.43689,133.44147l4.10779,2.43547l0.80017,1.3535l-1.01203,0.47517l-4.99025,-0.45666z" data-paper-data="{&quot;origPos&quot;:null,&quot;origRot&quot;:0}" fill="#ffffff" stroke="#d40000" stroke-width="0"/><path d="M251.63581,124.11395l4.70759,0.80263l1.23186,0.97711l-0.77471,0.80611l-4.82274,1.36097z" data-paper-data="{&quot;origPos&quot;:null,&quot;origRot&quot;:0}" fill="#ffffff" stroke="#d40000" stroke-width="0"/></g><g data-paper-data="{&quot;origPos&quot;:null}"><path d="M194.29922,96.13761c-0.2363,-0.30532 -0.89903,-1.39217 -1.09149,-1.79294c-0.16507,-0.34371 -0.27727,-1.09949 -0.39995,-1.45976c-0.13632,-0.40109 -0.2562,-0.81809 -0.27863,-1.24091c-0.02173,-0.41338 0.04977,-0.83178 0.14759,-1.23411c0.11648,-0.47971 0.30365,-0.9427 0.49136,-1.39912c0.13751,-0.33465 0.31028,-0.65577 0.48451,-0.9729c0.22077,-0.40087 0.43943,-0.80703 0.70107,-1.18261c0.21904,-0.31459 0.49276,-0.58939 0.73892,-0.8836c0.24621,-0.29416 0.46973,-0.61005 0.73892,-0.88355c0.32436,-0.32958 0.67228,-0.63835 1.03799,-0.9214c0.35487,-0.2749 0.73186,-0.5249 1.12049,-0.7496c0.3298,-0.19051 0.67551,-0.35946 1.03119,-0.49513c0.36102,-0.13788 0.73041,-0.27507 1.1137,-0.32333c0.42228,-0.0535 1.15506,-0.17736 1.27876,0.02038c0.10494,0.1683 -0.56831,0.45313 -0.82143,0.71175c-0.26838,0.27437 -0.4892,0.5923 -0.73892,0.88355c-0.31476,0.36728 -0.66532,0.70652 -0.95549,1.09332c-0.24827,0.33115 -0.47443,0.68382 -0.65637,1.05541c-0.15779,0.32236 -0.25992,0.67173 -0.35736,1.01755c-0.09831,0.34841 -0.19181,0.70248 -0.23015,1.06226c-0.04529,0.42357 -0.0523,0.85378 -0.02038,1.27876c0.02696,0.36097 0.07652,0.72755 0.19612,1.06905c0.26261,0.74944 0.58346,1.48281 0.94567,2.18954c0.20491,0.39941 0.43695,0.79813 0.74955,1.12049c0.53352,0.55089 1.23357,0.92701 1.76715,1.47785c0.31255,0.32236 0.5551,0.71563 0.74955,1.12055c0.16706,0.34781 0.32964,0.72782 0.32333,1.1137c-0.00561,0.35924 -0.09475,0.77257 -0.35736,1.01755c-0.55919,0.52145 -1.14905,1.18817 -1.87983,1.41223c-0.34587,0.10601 -1.03768,-0.12048 -1.3622,-0.28015c-0.7357,-0.36171 -2.37499,-1.95868 -2.66726,-2.20706c-0.18388,-0.1566 -1.4515,-1.1688 -1.79905,-1.61777z" data-paper-data="{&quot;origPos&quot;:null}" fill="#ffff99" stroke="#ffff99" stroke-width="1" stroke-linecap="round"/><path d="M198.39042,94.4318c0.96098,-0.49066 2.0908,-0.60595 3.16131,-0.23004c1.07045,0.37591 1.88013,1.17231 2.32333,2.15611c0.44396,0.98348 0.52113,2.15363 0.12678,3.2765c-0.39429,1.12286 -1.18617,1.98786 -2.14748,2.47782c-0.96104,0.49072 -2.09086,0.60601 -3.16131,0.2301c-1.0705,-0.37591 -1.88012,-1.17231 -2.32338,-2.15611c-0.44391,-0.98348 -0.52107,-2.15363 -0.12678,-3.2765c0.39435,-1.12292 1.18618,-1.98787 2.14754,-2.47788z" data-paper-data="{&quot;origPos&quot;:null}" fill="#ff9400" stroke="none" stroke-width="1" stroke-linecap="butt"/><path d="M237.46061,93.66308c2.93749,0.08195 6.44333,2.14497 8.5247,4.01913c0.42101,0.3791 2.32143,1.41008 2.38242,1.97377l0.5,0.5c0.18096,0.18097 0.29289,0.43097 0.29289,0.7071c0,0.55228 -0.44771,1 -1,1c-0.3562,0 -0.76726,0 -1.2,0c-0.99832,0 -2.11205,0 -2.93379,0c1.1762,1.44963 2.21007,3.07037 3.25644,4.5812c0.27946,0.40351 1.71093,2.07108 1.35793,2.52268l0.09596,0.47975c0.01537,0.06967 0.02346,0.14207 0.02346,0.21636c0,0.55228 -0.44771,1 -1,1c-0.27614,0 -0.52614,-0.11192 -0.7071,-0.29289l-0.53776,-0.53776c-0.23941,-0.1667 -0.73583,-0.36153 -1.23535,-0.53262c1.00663,2.05047 1.76381,4.53806 -1.11979,4.96327c-0.06675,0.00984 -1.07843,-1.29348 -1.2,-1.4c-0.88741,-0.77754 -1.81562,-1.56408 -2.77415,-2.27591c-0.11665,0.04739 -0.25699,0.07591 -0.42585,0.07591c-0.57143,0 -0.8,0 -0.8,0c-1.46863,0 -3.54654,0.33904 -4.9071,-0.29289c-1.66863,-0.77502 -1.4929,-4.34826 -1.4929,-5.90711c0.09242,-2.95893 -2.00725,-5.62571 -1.69442,-8.64721c0.15682,-1.51471 3.49442,-1.45279 3.49442,-1.45279c0.63483,0 1.24277,0.04313 1.85811,-0.12565c0,0 1.06299,-0.57435 1.24188,-0.57435z" data-paper-data="{&quot;origPos&quot;:null}" fill="#ff4d12" stroke="none" stroke-width="0.5" stroke-linecap="butt"/><path d="M236.58312,93.68169c5.02413,7.40758 2.70107,17.59227 5.28728,26.06108c0.6665,2.18124 4.5291,2.9502 4.17913,5.12281c-0.76573,4.72431 -3.5644,9.80452 -7.41459,12.94184c-3.48135,2.83588 -9.5047,6.472 -13.21146,3.7747c-4.65583,-3.51155 0.6967,-14.47221 -4.58357,-16.98616c-6.07997,-2.89412 -13.26053,6.89476 -19.51791,5.30022c-2.92701,-0.74847 1.5514,-6.25468 1.04883,-9.34455c-0.26854,-1.6269 -2.43846,-2.34247 -3.37027,-3.7747c-1.24457,-2.10359 -2.84613,-4.22821 -3.10065,-6.74054c-0.4287,-4.26649 0.00647,-8.74221 1.34811,-12.80703c0.57375,-1.71318 2.49508,-2.73181 4.07398,-3.54768c5.66799,-2.92917 10.74981,-7.5068 17.63056,-7.5068c6.88074,0 14.04836,2.22654 17.63056,7.5068z" data-paper-data="{&quot;origPos&quot;:null}" fill="#009933" stroke="none" stroke-width="1" stroke-linecap="round"/><path d="M224.12727,75.26308c2.8909,0 9.09525,1.23302 7.81623,5.34869c-0.00178,0.00574 -0.60978,0.20784 -1.24498,0.41311c1.53071,0.85475 2.96171,1.80805 4.29697,2.99802c0.3421,0.30487 1.51923,1.49465 1.4262,1.99298l0.291,0.582c0.07316,0.13896 0.11457,0.29725 0.11457,0.4652c0,0.55228 -0.44771,1 -1,1c-0.07429,0 -0.14669,-0.0081 -0.21636,-0.02347l-0.47975,-0.09595c-0.60558,-0.12112 -1.11395,-0.16119 -1.53067,-0.22686c0.74712,1.13447 1.29709,2.4473 1.42678,3.74628c0.01866,0.18697 0.10544,1.50268 0,1.6v0.12511c-0.09119,-0.00751 -0.15811,0.00055 -0.15811,0.00055l-0.3,0.1c-0.39842,0.20875 -1.08719,0.07434 -1.54189,0.07434c0,0 -0.15609,0 -0.29385,0.08722l-0.16363,-0.27272l0.00168,-0.00101c-0.9597,-1.40215 -3.2236,-3.42956 -4.24031,-3.6329c-4.45031,-0.94658 -8.42282,0.29693 -12.45667,2.31385c-3.17715,1.57042 -6.29834,2.11658 -9.72582,2.19527c-0.07406,0.01029 -0.12139,0.01029 -0.12139,0.01029l-0.06909,-0.00641c-0.24204,0.00433 -0.48564,0.00641 -0.73091,0.00641c0,0 -0.6315,0 -0.89083,-0.50183c-2.97609,-1.62071 -3.77955,-4.55861 -3.19556,-8.06257c0.82053,-4.13713 1.67495,-9.69649 5.53169,-12.26765c0.71823,0.14401 1.49404,-0.71773 2.1547,-0.40129c0.25605,0.12264 0.27612,1.67896 0.15921,2.29195c0.16009,-0.29908 0.33261,-0.59211 0.54079,-0.85862c0.5956,-0.76247 0.86121,-1.24181 1.42112,-2.03086c0.81887,-1.15399 1.37951,-1.80893 2.67889,-2.36915c0.88414,-0.38119 2,0.5975 2,1.5c0,0.63092 0.09497,1.24463 0.0838,1.75968c0.51118,-0.55491 1.08841,-1.13047 1.66233,-1.55074c1.58814,-1.16299 3.25025,-1.8783 4.89848,-1.848l-0.03227,-0.1237l1.91329,-0.49912c0.08718,-0.02482 0.17922,-0.03811 0.27436,-0.03811c0.55229,0 1,0.44772 1,1c0,0.22867 -0.07674,0.4394 -0.20589,0.60786l-0.88231,1.17714l-0.01515,-0.01135c-1.38232,1.77679 -2.40337,3.42635 -0.19665,3.42635z" data-paper-data="{&quot;origPos&quot;:null}" fill="#ff4d12" stroke="none" stroke-width="0.5" stroke-linecap="butt"/><g data-paper-data="{&quot;origPos&quot;:null}" stroke-width="1"><path d="M236.72559,90.76514c0.96136,0.49001 1.75319,1.35496 2.14754,2.47788c0.39429,1.12287 0.31713,2.29302 -0.12678,3.2765c-0.44326,0.9838 -1.25288,1.7802 -2.32338,2.15611c-1.07045,0.37591 -2.20027,0.26062 -3.16131,-0.2301c-0.96131,-0.48996 -1.75319,-1.35496 -2.14748,-2.47782c-0.39435,-1.12287 -0.31718,-2.29302 0.12678,-3.2765c0.4432,-0.9838 1.25288,-1.7802 2.32333,-2.15611c1.07051,-0.37591 2.20033,-0.26062 3.16131,0.23004z" fill="#ff9400" stroke="none" stroke-linecap="butt"/><path d="M239.01775,94.08872c-0.29227,0.24838 -1.93156,1.84536 -2.66726,2.20706c-0.32452,0.15967 -1.01633,0.38616 -1.3622,0.28015c-0.73078,-0.22406 -1.32064,-0.89078 -1.87983,-1.41223c-0.26261,-0.24498 -0.35175,-0.65831 -0.35736,-1.01755c-0.00631,-0.38588 0.15627,-0.76589 0.32333,-1.1137c0.19445,-0.40492 0.437,-0.79819 0.74955,-1.12055c0.53358,-0.55084 1.23363,-0.92696 1.76715,-1.47785c0.3126,-0.32236 0.54464,-0.72108 0.74955,-1.12049c0.36221,-0.70673 0.68306,-1.4401 0.94567,-2.18954c0.1196,-0.3415 0.16916,-0.70808 0.19612,-1.06905c0.03192,-0.42498 0.02491,-0.85519 -0.02038,-1.27876c-0.03834,-0.35978 -0.13184,-0.71385 -0.23015,-1.06226c-0.09744,-0.34582 -0.19957,-0.69519 -0.35736,-1.01755c-0.18194,-0.37159 -0.4081,-0.72426 -0.65637,-1.05541c-0.29017,-0.3868 -0.64073,-0.72604 -0.95549,-1.09332c-0.24972,-0.29125 -0.47054,-0.60918 -0.73892,-0.88355c-0.25312,-0.25862 -0.92637,-0.54345 -0.82143,-0.71175c0.1237,-0.19774 0.85648,-0.07388 1.27876,-0.02038c0.38329,0.04826 0.75268,0.18545 1.1137,0.32333c0.35568,0.13567 0.70139,0.30462 1.03119,0.49513c0.38863,0.2247 0.76562,0.4747 1.12049,0.7496c0.36571,0.28305 0.71363,0.59182 1.03799,0.9214c0.26919,0.2735 0.49271,0.58939 0.73892,0.88355c0.24616,0.29421 0.51988,0.56901 0.73892,0.8836c0.26164,0.37558 0.4803,0.78174 0.70107,1.18261c0.17423,0.31713 0.347,0.63825 0.48451,0.9729c0.18771,0.45642 0.37488,0.91941 0.49136,1.39912c0.09782,0.40233 0.16932,0.82073 0.14759,1.23411c-0.02243,0.42282 -0.14231,0.83982 -0.27863,1.24091c-0.12268,0.36027 -0.23488,1.11605 -0.39995,1.45976c-0.19246,0.40077 -0.8552,1.48762 -1.0915,1.79294c-0.34754,0.44897 -1.61517,1.46117 -1.79905,1.61777z" data-paper-data="{&quot;origPos&quot;:null}" fill="#ffff99" stroke="#ffff99" stroke-linecap="round"/></g><path d="M192.74214,125.06743l0.0392,-0.18117c1.24837,0 2.45652,0.14285 3.71428,0.14285c2.23487,0.08198 4.46026,0.14286 6.71428,0.14286c2.17321,0 4.31668,-0.04649 6.46752,-0.16082c2.98039,-0.00267 6.47085,-1.26438 9.45029,-1.76095c3.29871,-0.54355 6.35455,-1.48546 9.62699,-2.13995c4.03097,-0.8062 4.24092,0.34597 4.24092,4.20458c0,1.58807 0.02275,3.21911 -0.08291,4.83012c-0.13485,0.20227 -0.26969,0.40454 -0.40454,0.60681c-1.39115,2.12694 -3.09589,5.15288 -5.174,2.5617c-1.42244,-1.77364 -3.14882,-3.2271 -4.6714,-4.90765c-0.55023,-0.60732 -1.53822,-1.94914 -2.3316,-2.14749c-1.6661,0.75985 -2.3908,6.21252 -3.00893,8.0669c-0.2062,0.62864 -1.38835,3.18416 -1.24062,4.06795c-0.14639,-0.06667 -0.28904,-0.13766 -0.36388,-0.2058c-0.57121,-0.52006 -1.02678,-1.17782 -1.51147,-1.77485c-1.51494,-1.85842 -3.373,-5.35954 -5.52516,-6.77441l-0.12645,-0.50584c-0.05053,-0.22266 -0.24966,-0.38888 -0.48761,-0.38888c-0.23795,0 -0.43708,0.16622 -0.48761,0.38888c-0.02381,0.09524 -0.18794,0.75176 -0.21175,0.847c-0.00978,0.53206 -0.86637,1.79347 -1.1532,2.25165c-1.05403,1.68368 -1.71896,3.87689 -3.14386,5.30178c0.16765,0.08166 -0.42452,0.19038 -0.55638,0.05852c-0.41807,-0.41807 -0.76958,-1.17909 -1.07684,-1.69461c-0.93601,-1.57044 -1.66084,-3.276 -2.677,-4.80024c-2.19103,-3.28654 -3.27126,1.01383 -4.02486,3.27463c-0.08238,0.24885 -1.00438,2.79515 -1.29041,3.6844c-0.24075,-0.36893 -0.63302,-0.88147 -0.81922,-1.16078c-0.62645,-0.90063 -1.30719,-2.18877 -1.77293,-3.48499c0.00316,-2.54755 0.04545,-4.9316 0.59431,-7.42831l-0.0082,-0.00205l0.14032,-0.56128c0.01441,-0.06347 0.04089,-0.12235 0.0769,-0.17411c0.08005,-0.12525 0.23529,-0.26662 0.51465,-0.20395c0.01125,0.00238 0.02236,0.00514 0.03332,0.00826l-0.07514,-0.10914c0,0 0.37827,-0.18914 0.61297,0.12838z" data-paper-data="{&quot;origPos&quot;:null}" fill="#ffffff" stroke="#939393" stroke-width="1" stroke-linecap="butt"/><path d="M232.38768,132.73674c-0.61745,2.43396 -0.74104,6.8638 -3.7492,6.8638c-2.57947,0 -5.30558,0.13037 -7.86288,0.4957c-2.5413,0.35881 -5.13858,0.21859 -7.70855,0.21859c-2.53629,0 -5.08867,0.14286 -7.64285,0.14286c-3.50077,0 -7.10906,0.28955 -10.54895,-0.47487c-0.93526,-0.23788 -2.00916,0.01173 -2.82684,-0.65867c-0.7619,-0.62466 -1.04202,-2.73672 -1.1422,-4.39153c0.29055,0.5508 0.59428,1.06488 0.88768,1.51671c0.23777,0.35665 1.25727,2.27345 1.86619,1.85057c1.24928,-0.86757 1.56504,-3.24345 2.02418,-4.61267c0.34754,-1.04262 0.92621,-2.01098 1.22502,-3.03684c0.07098,-0.24368 0.28737,-0.69403 0.43949,-1.03601c0.0676,0.22722 0.25578,0.55093 0.57962,1.03669c1.06656,1.59984 3.21029,8.26529 5.84937,6.58875c1.76276,-1.76276 3.63304,-5.28782 4.46564,-7.73144c0.57327,0.73731 1.36875,1.7 1.46542,1.82249c1.24007,1.57134 2.46353,3.15727 3.7211,4.71195c0.35312,0.43496 1.76958,2.62038 2.50265,2.47376c1.32246,-0.2645 1.91275,-3.61498 2.33838,-4.87511c0.58262,-1.74784 1.1786,-3.45971 1.63258,-5.25653c0.146,-0.57788 0.28976,-1.15631 0.43433,-1.73455c0.01665,-0.06662 0.04133,-0.15738 0.06758,-0.25732c0.51047,0.37458 1.11883,1.24421 1.48914,1.65294c1.51784,1.67532 3.24229,3.12598 4.65951,4.8931c2.35056,2.9309 4.49332,0.62655 6.13116,-1.68113c-0.07824,0.49833 -0.17584,0.99191 -0.29755,1.47877z" data-paper-data="{&quot;origPos&quot;:null}" fill="#ffffff" stroke="#939393" stroke-width="1" stroke-linecap="butt"/><g data-paper-data="{&quot;origPos&quot;:null}" stroke="none" stroke-linecap="butt"><path d="M197.25366,101.87559c0.60888,-0.79326 3.31703,-0.23906 4.41007,0.13887c1.90134,0.71156 0.88163,2.14431 2.5414,3.31332c1.20657,0.84982 3.98102,0.5081 4.73702,1.77557c0.48322,0.81014 0.49037,1.39583 0.48642,2.33913c-0.00526,1.25305 -0.12913,1.95893 -0.43884,3.17311c-0.34284,1.24831 -0.86471,2.75007 -1.87461,3.60379c-0.56823,0.48034 -3.209,0.53509 -3.76756,0.49545c-3.14292,-0.22306 -3.28517,-0.54798 -5.05419,-3.70123c-1.27674,-2.76329 -1.43689,-10.62053 -1.03969,-11.13801z" data-paper-data="{&quot;origPos&quot;:null,&quot;origRot&quot;:0}" fill="#ffffff" stroke-width="0.5"/><path d="M204.1845,108.72245c0.18604,0 0.35428,0.20383 0.47669,0.53331c0.12187,0.32948 0.19736,0.7846 0.19736,1.28663c0,0.50204 -0.07549,0.95716 -0.19736,1.28663c-0.12241,0.32948 -0.29065,0.53331 -0.47669,0.53331c-0.18604,0 -0.35428,-0.20383 -0.47669,-0.53331c-0.12187,-0.32948 -0.19736,-0.7846 -0.19736,-1.28663c0,-0.50204 0.07549,-0.95716 0.19736,-1.28663c0.12241,-0.32948 0.29065,-0.53331 0.47669,-0.53331z" data-paper-data="{&quot;origPos&quot;:null}" fill="#000000" stroke-width="1"/></g><path d="M229.13673,113.69972c1.88613,0.36522 3.33755,0.96636 4.76738,2.39618c5.65792,6.10755 4.57573,16.67148 1.53773,23.76013c-3.52731,8.18061 -16.94303,14.56164 -25.59177,11.10215c-0.83792,-0.34957 -2.68415,-0.93959 -3.42616,-1.64928c-0.24595,0.35975 -0.51161,0.7041 -0.82585,1.00242c-0.91955,0.87294 -3.08008,0.77203 -4.18139,0.77203c-4.98152,0 -11.00433,-1.29782 -11.97619,-7.12897c-1.22319,-11.56205 13.95489,-5.54356 20.77659,-4.69085c4.44771,0.61023 8.94798,-0.81784 12.76025,-2.87202c1.45863,-0.78596 3.4724,-2.49079 4.50326,-3.92641c0.77079,-1.07343 1.32637,-2.33037 2.06334,-3.43581c0.51863,-0.04073 0.63889,-4.91129 0.49792,-5.71268c-0.03231,-0.18366 -0.25389,-0.40297 -0.35389,-0.579c-0.20873,-0.0083 -0.36751,-0.01413 -0.40024,-0.0114c-1.05603,0.0881 -2.13439,0.31536 -3.08613,0.79323c-3.13908,1.57614 -5.94312,2.18353 -9.31484,3.30744c-7.9223,2.64077 -16.64415,4.41765 -24.66935,0.40505c-4.21537,-2.85823 -5.05443,-6.74238 -0.78441,-10.06586c3.34323,-2.60213 8.97673,-2.30387 12.98119,-1.7318c7.35395,1.05626 24.0016,-2.95203 24.72257,-1.73454z" data-paper-data="{&quot;origPos&quot;:null}" fill="#ffd499" stroke="none" stroke-width="0.5" stroke-linecap="butt"/><path d="M199.69039,122.9493c-0.89443,-0.39974 -0.44721,-1.1992 -0.44721,-1.1992l0.16666,-0.74486c0.37111,-0.6634 0.76391,-1.22046 1.28023,-1.79733c0,0 0.6247,-0.69796 1.40556,-0.13959c0.78087,0.55837 0.15617,1.25634 0.15617,1.25634c-0.44153,0.49332 -0.73906,0.91863 -1.05311,1.48005l-0.16666,0.74486c0,0 -0.44722,0.79947 -1.34164,0.39973z" data-paper-data="{&quot;origPos&quot;:null}" fill="#000000" stroke="none" stroke-width="0.5" stroke-linecap="butt"/><path d="M204.58632,123.29799c-0.92308,-0.38461 -0.56407,-1.23931 -0.56407,-1.23931l0.16666,-0.5c0.20171,-0.57609 0.4486,-1.08633 0.72092,-1.63098c0,0 0.44721,-0.89443 1.34164,-0.44721c0.89443,0.44721 0.44721,1.34164 0.44721,1.34164c-0.22704,0.45409 -0.4643,0.88283 -0.61241,1.36902l-0.16667,0.5c0,0 -0.41022,0.99146 -1.33329,0.60685z" data-paper-data="{&quot;origPos&quot;:null}" fill="#000000" stroke="none" stroke-width="0.5" stroke-linecap="butt"/><path d="M208.77007,107.78315c-3.7466,0.5568 -7.40969,-1.4719 -10.35031,-3.61061c-2.87805,-2.13329 -3.641,-2.60013 -7.17585,-2.07479l-0.49457,0.0735c-0.54629,0.08119 -1.05495,-0.29585 -1.13613,-0.84213c-0.03363,-0.22628 -0.00964,-0.58741 0.09343,-0.77307l0.76906,-0.57945c0.04795,-0.22841 0.61476,-0.08104 0.73328,-0.26782c-0.09484,-0.07108 -1.05817,-0.81781 -1.09079,-0.91004c-0.1227,-0.34684 -0.24007,-1.48239 0.53847,-1.96466c0.35353,-0.219 1.05109,-0.67801 1.00507,-0.69996l-1.11054,-0.61941c-0.25731,-0.14686 -0.44707,-0.40609 -0.494,-0.72187c-0.07226,-0.48621 0.21847,-0.94262 0.66844,-1.09436c0,0 2.80232,-0.26765 3.36735,-0.29458c2.97113,-0.14162 6.34098,0.49395 8.08399,3.15512c2.04799,3.51111 2.40104,6.52976 6.93634,7.6059c1.90314,0.45158 1.53332,1.82868 0.99745,3.11569l-0.35156,0.35555c0,0 0.02652,-0.06471 0.06463,-0.15566c-0.10696,0.05057 -1.05376,0.30267 -1.05376,0.30267z" data-paper-data="{&quot;origPos&quot;:null,&quot;index&quot;:null,&quot;origRot&quot;:0}" fill="#ff4d12" stroke="none" stroke-width="0.5" stroke-linecap="butt"/><g data-paper-data="{&quot;origPos&quot;:null}" stroke="none" stroke-width="1"><path d="M223.1317,98.71229c2.70754,0.90593 2.83211,5.35307 2.96584,8.15605c0.11001,2.33115 -0.84607,4.92707 -2.21251,6.62352c-1.36698,1.69592 -3.25433,2.74583 -5.33689,2.74583c-2.08256,0 -3.96991,-1.04991 -5.33689,-2.74583c-1.36644,-1.69646 -1.86362,-4.32473 -2.21251,-6.62352c-0.14344,-0.95069 0.15962,-1.93588 0.80886,-2.494c0.70695,-0.77274 1.91971,-0.64763 2.83103,-1.07849c2.88495,-1.36375 5.47871,-5.46146 8.49308,-4.58357z" data-paper-data="{&quot;origPos&quot;:null}" fill="#ffffff" stroke-linecap="round"/><path d="M222.57606,107.33425c0.12187,0.32948 0.19736,0.7846 0.19736,1.28663c0,0.50204 -0.07549,0.95716 -0.19736,1.28663c-0.12241,0.32948 -0.29065,0.53331 -0.47669,0.53331c-0.18604,0 -0.35428,-0.20383 -0.47669,-0.53331c-0.12187,-0.32948 -0.19736,-0.7846 -0.19736,-1.28663c0,-0.50204 0.07549,-0.95716 0.19736,-1.28663c0.12241,-0.32948 0.29065,-0.53331 0.47669,-0.53331c0.18604,0 0.35428,0.20383 0.47669,0.53331z" data-paper-data="{&quot;origPos&quot;:null}" fill="#000000" stroke-linecap="butt"/></g><path d="M210.63726,106.89841c0.05106,0.08436 0.0868,0.14447 0.0868,0.14447l-0.4,-0.3c-0.71923,-1.19425 -1.28749,-2.50204 0.5286,-3.22848c4.32784,-1.73113 4.23331,-4.76889 5.74292,-8.54291c1.33288,-2.88849 4.57269,-4.01252 7.53236,-4.30919c0.56284,-0.05642 3.37407,-0.20363 3.37407,-0.20363c0.46739,0.08394 0.82205,0.49266 0.82205,0.98421c0,0.31924 -0.1496,0.60355 -0.38252,0.78664l-1.00743,0.77593c-0.04229,0.02848 0.71517,0.37997 1.09705,0.54461c0.84097,0.36258 0.89181,1.50305 0.82143,1.86415c-0.01871,0.09602 -0.86181,0.97626 -0.94517,1.06051c0.1447,0.16733 0.68368,-0.06177 0.76469,0.15711l0.84588,0.46011c0.12924,0.16849 0.20606,0.52217 0.20606,0.75093c0,0.55228 -0.44771,1 -1,1h-0.5c-3.57368,0 -4.25971,0.57392 -6.7929,3.10711c-2.59428,2.54775 -5.91936,5.09289 -9.7071,5.09289c0,0 -0.97358,-0.11017 -1.0868,-0.14447z" data-paper-data="{&quot;origPos&quot;:null}" fill="#ff4d12" stroke="none" stroke-width="0.5" stroke-linecap="butt"/></g><g stroke="none" stroke-width="0.5" stroke-linecap="butt"><path d="M242.56667,198.5c0,0 0.35374,-2.4966 0.39541,-2.7466c1.37861,-8.24325 11.4666,-7.0956 17.2238,-3.80577c1.4629,0.91705 3.24596,1.12022 4.75,2c4.45691,2.60703 10.38079,8.70161 10.38079,14.17737c-0.61187,4.14607 -4.15326,5.40334 -7.98919,5.74384c-4.71436,0.41847 -9.98331,0.37409 -13.82285,-2.69754c-1.61865,-1.38184 -3.79169,-1.8717 -5.49861,-3.11064c-2.72755,-1.97974 -5.43934,-6.24187 -5.43934,-9.56066z" fill="#ffd833"/><path d="M276.3266,201.81448c1.12005,2.28347 3.43975,4.06386 4.83105,6.21402c2.21927,3.42974 4.6954,8.46195 5.92237,12.35398c1.24754,4.21691 2.22618,10.72735 -0.84767,14.6415c-1.49991,1.90994 -5.86896,0.4018 -7.75559,0.17759c-5.23497,-0.6221 -16.57031,-0.38387 -19.03577,-6.39894c-0.31371,-0.76537 0.49234,-3.08499 0.63039,-3.95001c0.68978,-4.3221 -1.41724,-6.02815 -3.35026,-9.72876c-1.30365,-2.49572 -1.10008,-5.21593 -0.67559,-7.87571c1.48074,-7.02007 8.75034,-10.70512 15.27198,-8.68663c0,0 4.05847,1.579 5.0091,3.25296z" data-paper-data="{&quot;index&quot;:null}" fill="#ffd833"/><path d="M262.58708,228.74661c0.50092,-1.87575 4.55877,-6.83824 4.55877,-6.83824c8.62813,-4.31407 14.72389,2.89223 22.91742,3.73705c1.89633,0.31606 6.03644,1.78241 7.19045,3.43329c2.08945,2.98908 0.78167,5.46081 -1.82677,6.15721c0.4752,0.94435 -0.03031,2.25059 -0.54823,3.1854c-0.45396,0.81936 -1.81475,0.94509 -2.85812,0.89303c-0.02369,0.24198 -0.09652,0.47976 -0.22433,0.68906c-1.63064,2.67028 -4.25789,2.4978 -6.97619,2.10119c-3.72155,-0.62026 -8.00523,-3.18003 -11.33545,-4.85652c-2.19662,-1.10582 -4.83613,-1.2789 -7.03716,-2.44571c-1.70011,-0.97149 -4.47426,-3.75701 -3.86038,-6.05577z" data-paper-data="{&quot;origPos&quot;:null}" fill="#ffd833"/><path d="M299.23334,235.33334c-2.90558,-0.70501 -3.88339,-2.2474 -2.63205,-4.02192c0,0 0.38205,-1.22808 0.88205,-1.22808c0.5,0 3.61716,5.25 1.75,5.25z" data-paper-data="{&quot;origPos&quot;:null}" fill="#ffffff"/><path d="M296.25001,241.2c-2.90558,-0.70501 -4.78339,-3.4474 -3.53205,-4.62192c0,0 1.28205,-1.42808 1.78205,-1.42808c0.5,0 3.61716,6.05 1.75,6.05z" data-paper-data="{&quot;origPos&quot;:null}" fill="#ffffff"/><path d="M291.35001,244.41667c-2.90557,-0.705 -4.28338,-3.04739 -4.23204,-3.72191c0,0 0.42651,-1.03551 1.04381,-1.47349c0.49247,-0.34941 1.23439,-0.4546 1.83823,-0.4546c0.5,0 3.21716,5.65 1.35,5.65z" data-paper-data="{&quot;origPos&quot;:null}" fill="#ffffff"/></g></g></g></svg>