<svg version="1.1" xmlns="http://www.w3.org/2000/svg" xmlns:xlink="http://www.w3.org/1999/xlink" width="80.4432" height="79.45435" viewBox="0,0,80.4432,79.45435"><defs><linearGradient x1="264.28388" y1="164.56625" x2="264.28388" y2="217.22087" gradientUnits="userSpaceOnUse" id="color-1"><stop offset="0" stop-color="#af5918"/><stop offset="1" stop-color="#cc6f1d"/></linearGradient><linearGradient x1="223.19202" y1="164.56625" x2="223.19202" y2="217.22087" gradientUnits="userSpaceOnUse" id="color-2"><stop offset="0" stop-color="#af5918"/><stop offset="1" stop-color="#cc6f1d"/></linearGradient><linearGradient x1="271.11402" y1="165.81439" x2="271.36197" y2="170.51009" gradientUnits="userSpaceOnUse" id="color-3"><stop offset="0" stop-color="#ffe642"/><stop offset="1" stop-color="#ffe743"/></linearGradient><linearGradient x1="214.5842" y1="167.6226" x2="214.23457" y2="174.24449" gradientUnits="userSpaceOnUse" id="color-4"><stop offset="0" stop-color="#cfbb36"/><stop offset="1" stop-color="#ffe743"/></linearGradient><linearGradient x1="242.5775" y1="142.91931" x2="242.5775" y2="182.70864" gradientUnits="userSpaceOnUse" id="color-5"><stop offset="0" stop-color="#f48a2c"/><stop offset="1" stop-color="#cc6f1d"/></linearGradient><linearGradient x1="271.01373" y1="192.89601" x2="271.01373" y2="195.61235" gradientUnits="userSpaceOnUse" id="color-6"><stop offset="0" stop-color="#2edf83"/><stop offset="1" stop-color="#12ca2e"/></linearGradient><linearGradient x1="217.22653" y1="197.31868" x2="217.22653" y2="200.75935" gradientUnits="userSpaceOnUse" id="color-7"><stop offset="0" stop-color="#2dde7f"/><stop offset="1" stop-color="#14cb32"/></linearGradient><linearGradient x1="254.82092" y1="184.12719" x2="254.82092" y2="194.03716" gradientUnits="userSpaceOnUse" id="color-8"><stop offset="0" stop-color="#403af0"/><stop offset="1" stop-color="#3cfff5"/></linearGradient><linearGradient x1="232.85544" y1="184.27091" x2="232.85544" y2="194.73055" gradientUnits="userSpaceOnUse" id="color-9"><stop offset="0" stop-color="#403af0"/><stop offset="1" stop-color="#3cfff5"/></linearGradient><linearGradient x1="242.85479" y1="141.11668" x2="242.85479" y2="154.1416" gradientUnits="userSpaceOnUse" id="color-10"><stop offset="0" stop-color="#ffe746"/><stop offset="1" stop-color="#ffc443"/></linearGradient><linearGradient x1="244.55694" y1="146.77989" x2="244.55694" y2="148.83316" gradientUnits="userSpaceOnUse" id="color-11"><stop offset="0" stop-color="#2edf83"/><stop offset="1" stop-color="#12ca2e"/></linearGradient><linearGradient x1="237.72364" y1="147.86413" x2="237.98842" y2="149.89623" gradientUnits="userSpaceOnUse" id="color-12"><stop offset="0" stop-color="#2edf83"/><stop offset="1" stop-color="#12ca2e"/></linearGradient><linearGradient x1="250.1887" y1="147.41471" x2="249.90567" y2="149.41287" gradientUnits="userSpaceOnUse" id="color-13"><stop offset="0" stop-color="#2edf83"/><stop offset="1" stop-color="#12ca2e"/></linearGradient></defs><g transform="translate(-202.60893,-141.11666)"><g data-paper-data="{&quot;isPaintingLayer&quot;:true}" fill-rule="nonzero" stroke-linejoin="miter" stroke-miterlimit="10" stroke-dasharray="" stroke-dashoffset="0" style="mix-blend-mode: normal"><path d="" data-paper-data="{&quot;origPos&quot;:null,&quot;index&quot;:null}" fill="#4eddff" stroke="none" stroke-width="2.02785" stroke-linecap="butt"/><path d="" data-paper-data="{&quot;origPos&quot;:null,&quot;index&quot;:null}" fill="#4eddff" stroke="none" stroke-width="2.02785" stroke-linecap="butt"/><path d="" data-paper-data="{&quot;origPos&quot;:null,&quot;index&quot;:null}" fill="#ffd7a5" stroke="none" stroke-width="2.02785" stroke-linecap="butt"/><path d="" data-paper-data="{&quot;origPos&quot;:null,&quot;index&quot;:null}" fill="#ffd7a5" stroke="none" stroke-width="2.02785" stroke-linecap="butt"/><g><path d="M277.34606,202.96706c1.04005,-0.90908 2.56998,1.22827 2.73066,1.22618c1.85871,-0.02425 3.2951,11.81099 2.91366,13.01138c-1.68028,5.28785 -4.44736,-4.4364 -6.97723,-1.62617c-2.52987,2.81023 -6.05276,3.25301 -8.7684,4.09986c-2.71564,0.84685 -3.84679,0.92095 -7.21993,0.88596c-3.37313,-0.03499 -6.78532,-0.26476 -8.55421,-1.04959c-0.29416,-0.13052 -0.15878,-2.58276 -0.53924,-2.5706c-1.90736,0.06097 -5.14425,3.88536 -6.36936,2.23835c-0.63731,-0.85679 -4.04897,-12.95792 -4.43389,-13.16091c-0.5026,-0.26504 6.02038,7.56272 4.7462,4.62524c-2.25001,-5.18716 -6.54156,1.3991 -3.54915,-11.88501c2.99241,-13.28411 4.71346,-24.17778 13.37756,-31.746c5.21164,-4.33805 15.65764,-4.35679 20.22958,2.90674c4.57194,7.26353 4.24729,18.91692 3.77152,21.43717c-0.47577,2.52025 -0.07456,4.50083 -0.37836,6.55787c-0.3038,2.05703 -3.14754,2.73158 -1.26355,4.55932c1.88399,1.82774 -1.93504,2.42996 0.28413,0.49022z" data-paper-data="{&quot;index&quot;:null}" fill="url(#color-1)" stroke="none" stroke-width="1" stroke-linecap="round"/><path d="M210.41396,202.47684c1.88399,-1.82774 -0.95974,-2.50228 -1.26355,-4.55932c-0.3038,-2.05703 0.09741,-4.03762 -0.37836,-6.55787c-0.47577,-2.52025 -0.80042,-14.17364 3.77152,-21.43717c4.57194,-7.26353 15.01794,-7.24479 20.22958,-2.90674c8.66411,7.56823 10.38516,18.46189 13.37756,31.746c2.99241,13.28411 -1.29914,6.69785 -3.54915,11.88501c-1.27418,2.93748 5.2488,-4.89028 4.7462,-4.62524c-0.38492,0.20298 -3.79658,12.30412 -4.43389,13.16091c-1.22511,1.64701 -4.462,-2.17738 -6.36936,-2.23835c-0.38045,-0.01216 -0.24508,2.44009 -0.53923,2.5706c-1.76889,0.78482 -5.18107,1.01459 -8.55421,1.04959c-3.37314,0.03499 -4.50429,-0.03911 -7.21993,-0.88596c-2.71564,-0.84685 -6.23853,-1.28964 -8.7684,-4.09986c-2.52987,-2.81023 -5.29695,6.91402 -6.97723,1.62617c-0.38144,-1.2004 1.05494,-13.03563 2.91366,-13.01138c0.16068,0.0021 1.69061,-2.13526 2.73066,-1.22618c2.21916,1.93974 -1.59987,1.33752 0.28412,-0.49022z" data-paper-data="{&quot;index&quot;:null}" fill="url(#color-2)" stroke="none" stroke-width="1" stroke-linecap="round"/><path d="M218.79574,169.01037c4.76978,-6.77361 14.52167,-8.88265 22.64621,-9.28585c8.86491,-0.23461 19.80319,0.61099 25.7553,7.46564c5.67577,6.54381 3.78876,16.98231 3.03171,25.39732c-0.36625,5.70267 -2.65765,11.65224 -6.29554,15.59336c-5.05247,5.49775 -11.14446,5.96684 -18.47864,6.13714c-7.75202,0.17755 -14.91508,-0.08256 -20.56495,-5.73044c-3.95716,-3.95931 -6.1646,-10.13832 -7.07341,-15.99066c-1.1768,-7.69327 -3.57479,-17.11114 0.97933,-23.5865z" data-paper-data="{&quot;index&quot;:null}" fill="#ffe6bd" stroke="none" stroke-width="1" stroke-linecap="round"/><path d="M243.038,197.95676c0,0 1.32446,-2.30924 2.4178,-2.26262c1.07513,0.04394 2.07447,2.49984 2.07447,2.49984" data-paper-data="{&quot;index&quot;:null}" fill="none" stroke="#e1cba6" stroke-width="1" stroke-linecap="round"/><path d="M271.42643,175.27747c1.26518,-0.06683 2.45918,0.78211 3.36543,2.207c0.90816,1.42489 1.52866,3.42564 1.64681,5.66445c0.11825,2.23871 -0.28809,4.29378 -1.04116,5.80624c-0.75117,1.51246 -1.8491,2.48245 -3.11428,2.54919c-1.26518,0.06683 -2.45918,-0.78211 -3.36543,-2.207c-0.90816,-1.42481 -1.52866,-3.42555 -1.64681,-5.66436c-0.11825,-2.23881 0.28809,-4.2938 1.04116,-5.80633c0.75117,-1.51246 1.84917,-2.48236 3.11428,-2.54919z" data-paper-data="{&quot;index&quot;:null}" fill="#ffe6bd" stroke="none" stroke-width="1" stroke-linecap="butt"/><path d="M216.14914,180.16688c1.26518,-0.06683 2.45918,0.78211 3.36543,2.207c0.90816,1.42489 1.52866,3.42564 1.64681,5.66445c0.11825,2.23871 -0.28809,4.29378 -1.04116,5.80624c-0.75117,1.51246 -1.8491,2.48245 -3.11428,2.54919c-1.26518,0.06683 -2.45918,-0.78211 -3.36543,-2.207c-0.90816,-1.42481 -1.52866,-3.42555 -1.64681,-5.66436c-0.11825,-2.23881 0.28809,-4.2938 1.04116,-5.80633c0.75117,-1.51246 1.84917,-2.48236 3.11428,-2.54919z" data-paper-data="{&quot;index&quot;:null}" fill="#ffe6bd" stroke="none" stroke-width="1" stroke-linecap="butt"/><path d="M272.39449,165.74682c0.17619,0.10494 0.29169,0.33764 0.33831,0.49814c0.14907,0.51843 0.19924,1.11459 0.20432,1.59719c0.00501,0.54982 0.04841,1.13025 -0.1534,1.64009c-0.14491,0.36477 -0.47122,0.6119 -0.77266,0.8208c-0.19445,0.12186 -0.64234,0.30274 -0.6531,0.13048c-0.02041,-0.38173 0.41999,-0.81801 0.53513,-1.22827c0.11958,-0.42583 0.1416,-0.87702 0.17045,-1.317c0.03512,-0.54858 -0.07928,-1.2383 0.02237,-1.84917c0.02515,-0.14628 0.17667,-0.28581 0.30856,-0.29228z" data-paper-data="{&quot;index&quot;:null}" fill="url(#color-3)" stroke="none" stroke-width="1" stroke-linecap="round"/><path d="M215.91368,168.08202c0.05701,-0.20142 0.29021,-0.37456 0.47613,-0.36409c0.23149,0.17335 0.35891,0.51682 0.40046,0.74881c0.13204,0.74917 0.11392,1.59264 0.04936,2.27019c-0.07458,0.77177 -0.09995,1.59219 -0.45867,2.27722c-0.25736,0.49001 -0.75166,0.78814 -1.20543,1.0363c-0.29079,0.14204 -0.94572,0.32914 -0.93527,0.08601c0.02809,-0.53833 0.71048,-1.08481 0.93287,-1.64299c0.23095,-0.5794 0.32884,-1.20884 0.43465,-1.82159c0.1307,-0.76408 0.07266,-1.74831 0.30596,-2.58988z" data-paper-data="{&quot;index&quot;:null}" fill="url(#color-4)" stroke="none" stroke-width="1" stroke-linecap="round"/><path d="M257.40376,145.28126c4.8721,1.83877 7.36704,6.39931 11.66872,8.57716c3.10016,1.57013 8.4504,0.48605 10.24428,2.49287c1.04143,1.19897 -5.14617,2.47628 -4.57358,3.91884c0.74427,1.83976 7.13868,0.26295 7.69662,2.99512c0.67593,3.74827 -1.97648,8.04549 -4.96816,10.37494c-2.7262,2.03046 -9.90883,4.53317 -17.60497,1.55626c-4.49965,-1.7405 -10.54582,-6.37163 -10.54582,-6.37163l-2.3119,2.86779l-2.76683,-4.35796l-2.76421,4.21751l-1.73219,-3.09555c0,0 -3.62224,3.42231 -6.17908,5.31997c-10.48033,7.77832 -21.58092,10.40358 -26.16964,8.16029c-3.60819,-2.03425 -5.08126,-7.50738 -4.74026,-11.42524c0.17593,-2.03181 5.47394,0.21296 5.88166,-1.78146c0.4462,-2.2741 -5.79329,-4.3808 -4.46438,-6.19956c2.03425,-2.77346 7.94065,-0.81091 11.054,-3.06583c3.81681,-2.75544 5.38711,-8.01236 9.36862,-10.60735c4.85442,-3.16326 10.66819,-5.11394 16.4288,-5.73988c5.61619,-0.60919 11.30211,0.20673 16.47834,2.16374z" data-paper-data="{&quot;index&quot;:null}" fill="url(#color-5)" stroke="none" stroke-width="1" stroke-linecap="round"/><path d="M273.00611,194.08602c0,1.143 -0.98636,2.06958 -2.20309,2.06958c-1.21673,0 -2.20309,-0.9266 -2.20309,-2.06958c0,-1.143 0.98636,-2.06958 2.20309,-2.06958c1.21673,0 2.20309,0.9266 2.20309,2.06958z" data-paper-data="{&quot;index&quot;:null}" fill="#f0f0f0" stroke="none" stroke-width="1" stroke-linecap="butt"/><path d="M269.74612,196.15563c0,-0.50007 0.40538,-0.90543 0.90543,-0.90543c0.50005,0 0.90543,0.40536 0.90543,0.90543c0,0.50007 -0.40538,0.90543 -0.90543,0.90543c-0.50005,0 -0.90543,-0.40536 -0.90543,-0.90543z" data-paper-data="{&quot;index&quot;:null}" fill="#f0f0f0" stroke="none" stroke-width="1" stroke-linecap="butt"/><path d="M271.82864,195.34073c0,-0.50007 0.40538,-0.90543 0.90543,-0.90543c0.50005,0 0.90543,0.40536 0.90543,0.90543c0,0.50007 -0.40538,0.90543 -0.90543,0.90543c-0.50005,0 -0.90543,-0.40536 -0.90543,-0.90543z" data-paper-data="{&quot;index&quot;:null}" fill="#f0f0f0" stroke="none" stroke-width="1" stroke-linecap="butt"/><path d="M272.00971,193.16765c0,-0.50007 0.40538,-0.90543 0.90543,-0.90543c0.50005,0 0.90543,0.40536 0.90543,0.90543c0,0.50007 -0.40538,0.90543 -0.90543,0.90543c-0.50005,0 -0.90543,-0.40536 -0.90543,-0.90543z" data-paper-data="{&quot;index&quot;:null}" fill="#f0f0f0" stroke="none" stroke-width="1" stroke-linecap="butt"/><path d="M270.10829,191.99057c0,-0.50007 0.40538,-0.90543 0.90543,-0.90543c0.50005,0 0.90543,0.40536 0.90543,0.90543c0,0.50007 -0.40538,0.90543 -0.90543,0.90543c-0.50005,0 -0.90543,-0.40536 -0.90543,-0.90543z" data-paper-data="{&quot;index&quot;:null}" fill="#f0f0f0" stroke="none" stroke-width="1" stroke-linecap="butt"/><path d="M267.93522,192.71495c0,-0.50007 0.40538,-0.90543 0.90543,-0.90543c0.50005,0 0.90543,0.40536 0.90543,0.90543c0,0.50007 -0.40538,0.90543 -0.90543,0.90543c-0.50005,0 -0.90543,-0.40536 -0.90543,-0.90543z" data-paper-data="{&quot;index&quot;:null}" fill="#f0f0f0" stroke="none" stroke-width="1" stroke-linecap="butt"/><path d="M267.93522,195.06908c0,-0.50007 0.40538,-0.90543 0.90543,-0.90543c0.50005,0 0.90543,0.40536 0.90543,0.90543c0,0.50007 -0.40538,0.90543 -0.90543,0.90543c-0.50005,0 -0.90543,-0.40536 -0.90543,-0.90543z" data-paper-data="{&quot;index&quot;:null}" fill="#f0f0f0" stroke="none" stroke-width="1" stroke-linecap="butt"/><path d="M272.37189,194.25417c0,0.75009 -0.60807,1.35816 -1.35816,1.35816c-0.75009,0 -1.35816,-0.60807 -1.35816,-1.35816c0,-0.75009 0.60807,-1.35816 1.35816,-1.35816c0.75009,0 1.35816,0.60807 1.35816,1.35816z" data-paper-data="{&quot;index&quot;:null}" fill="url(#color-6)" stroke="none" stroke-width="1" stroke-linecap="butt"/><path d="M219.8523,198.97109c0,1.4835 -1.14794,2.68614 -2.56403,2.68614c-1.41607,0 -2.56403,-1.20262 -2.56403,-2.68614c0,-1.4835 1.14794,-2.68614 2.56403,-2.68614c1.41607,0 2.56403,1.20262 2.56403,2.68614z" data-paper-data="{&quot;index&quot;:null}" fill="#ffffff" stroke="none" stroke-width="1" stroke-linecap="butt"/><path d="M215.59674,202.32126c0,-0.75009 0.60807,-1.35816 1.35816,-1.35816c0.75009,0 1.35816,0.60807 1.35816,1.35816c0,0.75009 -0.60807,1.35816 -1.35816,1.35816c-0.75009,0 -1.35816,-0.60807 -1.35816,-1.35816z" data-paper-data="{&quot;index&quot;:null}" fill="#ffffff" stroke="none" stroke-width="1" stroke-linecap="butt"/><path d="M219.03742,201.05363c0,-0.75009 0.60807,-1.35816 1.35816,-1.35816c0.75009,0 1.35816,0.60807 1.35816,1.35816c0,0.75009 -0.60807,1.35816 -1.35816,1.35816c-0.75009,0 -1.35816,-0.60807 -1.35816,-1.35816z" data-paper-data="{&quot;index&quot;:null}" fill="#ffffff" stroke="none" stroke-width="1" stroke-linecap="butt"/><path d="M219.03742,197.25078c0,-0.75009 0.60807,-1.35816 1.35816,-1.35816c0.75009,0 1.35816,0.60807 1.35816,1.35816c0,0.75009 -0.60807,1.35816 -1.35816,1.35816c-0.75009,0 -1.35816,-0.60807 -1.35816,-1.35816z" data-paper-data="{&quot;index&quot;:null}" fill="#ffffff" stroke="none" stroke-width="1" stroke-linecap="butt"/><path d="M215.95891,195.62097c0,-0.75009 0.60807,-1.35816 1.35816,-1.35816c0.75009,0 1.35816,0.60807 1.35816,1.35816c0,0.75009 -0.60807,1.35816 -1.35816,1.35816c-0.75009,0 -1.35816,-0.60807 -1.35816,-1.35816z" data-paper-data="{&quot;index&quot;:null}" fill="#ffffff" stroke="none" stroke-width="1" stroke-linecap="butt"/><path d="M213.06149,197.43187c0,-0.75009 0.60807,-1.35816 1.35816,-1.35816c0.75009,0 1.35816,0.60807 1.35816,1.35816c0,0.75009 -0.60807,1.35816 -1.35816,1.35816c-0.75009,0 -1.35816,-0.60807 -1.35816,-1.35816z" data-paper-data="{&quot;index&quot;:null}" fill="#ffffff" stroke="none" stroke-width="1" stroke-linecap="butt"/><path d="M213.24259,200.69145c0,-0.75009 0.60807,-1.35816 1.35816,-1.35816c0.75009,0 1.35816,0.60807 1.35816,1.35816c0,0.75009 -0.60807,1.35816 -1.35816,1.35816c-0.75009,0 -1.35816,-0.60807 -1.35816,-1.35816z" data-paper-data="{&quot;index&quot;:null}" fill="#ffffff" stroke="none" stroke-width="1" stroke-linecap="butt"/><path d="M218.85633,199.03902c0,0.95012 -0.72968,1.72035 -1.6298,1.72035c-0.90011,0 -1.6298,-0.77022 -1.6298,-1.72035c0,-0.95012 0.72968,-1.72035 1.6298,-1.72035c0.90011,0 1.6298,0.77022 1.6298,1.72035z" data-paper-data="{&quot;index&quot;:null}" fill="url(#color-7)" stroke="none" stroke-width="1" stroke-linecap="butt"/><g data-paper-data="{&quot;index&quot;:null}" stroke-width="1"><path d="M256.54237,180.41051c1.68139,-0.08884 3.25253,0.69428 4.42987,2.02945c1.17553,1.33535 1.96111,3.22448 2.07327,5.34955c0.11228,2.12509 -0.47001,4.08647 -1.49841,5.53805c-1.0302,1.45177 -2.59671,2.18357 -4.19147,2.48472c-2.00075,0.37775 -4.426,0.89929 -5.8603,-0.42601c-1.62345,-1.49731 -1.89761,-4.04234 -1.79114,-6.06491c0.19432,-2.38032 1.31787,-4.71038 2.6467,-6.42611c0.99843,-1.28836 2.51015,-2.39596 4.19147,-2.48472z" data-paper-data="{&quot;origPos&quot;:null}" fill="#ffffff" stroke="none" stroke-linecap="round"/><path d="M254.55952,184.13162c1.08734,-0.0574 2.10306,0.44557 2.86364,1.30447c0.76059,0.85736 1.26781,2.07201 1.33988,3.43796c0.07216,1.36585 -0.30432,2.62725 -0.97037,3.55993c-0.66587,0.93413 -1.623,1.54134 -2.71035,1.59874c-1.08726,0.0574 -2.10306,-0.44557 -2.86364,-1.30447c-0.76049,-0.85736 -1.26771,-2.07201 -1.33988,-3.43796c-0.07206,-1.36585 0.30441,-2.62725 0.97037,-3.55993c0.66595,-0.93413 1.62309,-1.54134 2.71035,-1.59874z" data-paper-data="{&quot;origPos&quot;:null}" fill="url(#color-8)" stroke="none" stroke-linecap="butt"/><path d="M254.01455,185.88601c0.67111,-0.03541 1.30021,0.35322 1.77622,1.01138c0.47598,0.65653 0.79696,1.58269 0.85175,2.61917c0.05469,1.03647 -0.16706,1.99127 -0.57115,2.69425c-0.40412,0.70461 -0.98885,1.15733 -1.65986,1.19283c-0.67111,0.03541 -1.30021,-0.35322 -1.77622,-1.01138c-0.47598,-0.65653 -0.79696,-1.58269 -0.85175,-2.61917c-0.05469,-1.03647 0.16695,-1.99127 0.57115,-2.69425c0.40412,-0.70461 0.98875,-1.15733 1.65986,-1.19283z" data-paper-data="{&quot;origPos&quot;:null}" fill="#0f1f43" stroke="none" stroke-linecap="butt"/><g data-paper-data="{&quot;origPos&quot;:null}" fill="none" stroke="#000000" stroke-linecap="round"><path d="M254.19645,182.38377c0,0 2.69894,-2.02983 4.1711,-1.83769c1.83747,0.24099 2.59501,1.41599 3.30897,3.12618" data-paper-data="{&quot;origPos&quot;:null}"/><path d="M266.17697,179.11012c0,0 -0.88634,0.88672 -1.48846,1.26265c-0.83227,0.52533 -2.61863,1.37201 -2.61863,1.37201" data-paper-data="{&quot;origPos&quot;:null}"/><path d="M263.8423,177.10204c0,0 -0.73875,1.013 -1.27541,1.47741c-0.74121,0.64766 -2.37525,1.76026 -2.37525,1.76026"/><path d="M259.98576,176.13074c0,0 -0.42512,1.17943 -0.81001,1.77577c-0.52987,0.82948 -1.78644,2.3556 -1.78644,2.3556"/></g></g><g data-paper-data="{&quot;index&quot;:null}" stroke-width="1"><path d="M228.51507,183.19192c1.0302,-1.45169 2.51015,-2.39588 4.19147,-2.48463c1.68139,-0.08884 3.30133,0.85346 4.42987,2.02945c1.50213,1.56625 2.86483,3.7651 3.30866,6.11166c0.31889,2.00021 0.31427,4.55988 -1.14249,6.21984c-1.28673,1.46899 -3.75342,1.20578 -5.7828,1.0408c-1.61766,-0.13154 -3.25253,-0.69428 -4.42987,-2.02945c-1.17553,-1.33535 -1.96111,-3.22448 -2.07327,-5.34955c-0.11228,-2.12509 0.47001,-4.08647 1.49841,-5.53815z" data-paper-data="{&quot;origPos&quot;:null}" fill="#ffffff" stroke="none" stroke-linecap="round"/><path d="M229.87341,185.95454c0.66332,-0.98403 1.61884,-1.6221 2.7061,-1.6795c1.08734,-0.05742 2.10469,0.47645 2.86789,1.38515c0.7631,0.90708 1.27404,2.19052 1.35019,3.63237c0.07606,1.44175 -0.29681,2.77193 -0.96013,3.75434c-0.66332,0.98403 -1.61884,1.62203 -2.7061,1.67943c-1.08734,0.05742 -2.10469,-0.47645 -2.86789,-1.38515c-0.7632,-0.90706 -1.27404,-2.19052 -1.35019,-3.63226c-0.07615,-1.44185 0.29681,-2.77193 0.96013,-3.75434z" data-paper-data="{&quot;origPos&quot;:null}" fill="url(#color-9)" stroke="none" stroke-linecap="butt"/><path d="M230.6309,187.54243c0.40364,-0.71287 0.98811,-1.17075 1.65922,-1.20615c0.67102,-0.0355 1.3004,0.35828 1.77694,1.02478c0.47636,0.66477 0.79797,1.60245 0.85339,2.65149c0.05541,1.04913 -0.16571,2.01542 -0.56944,2.72674c-0.40366,0.71294 -0.98813,1.17073 -1.65914,1.20622c-0.67111,0.03541 -1.30049,-0.35837 -1.77694,-1.02478c-0.47645,-0.66487 -0.79806,-1.60247 -0.85339,-2.6516c-0.05541,-1.04913 0.16571,-2.01542 0.56934,-2.72674z" data-paper-data="{&quot;origPos&quot;:null}" fill="#0f1f43" stroke="none" stroke-linecap="butt"/><g data-paper-data="{&quot;origPos&quot;:null}" fill="none" stroke="#000000" stroke-linecap="round"><path d="M227.69822,186.1808c0.59752,-2.51425 1.72915,-3.71176 4.24184,-4.31583c1.44374,-0.34615 4.34142,1.38814 4.34142,1.38814" data-paper-data="{&quot;origPos&quot;:null}"/><path d="M228.37797,183.46671c0,0 -1.86567,-0.65391 -2.74866,-1.08861c-0.63832,-0.31049 -1.61312,-1.09885 -1.61312,-1.09885" data-paper-data="{&quot;origPos&quot;:null}"/><path d="M229.72692,181.5c0,0 -1.74218,-0.93442 -2.54738,-1.50032c-0.58265,-0.40536 -1.42391,-1.33497 -1.42391,-1.33497"/><path d="M232.64911,181.1121c0,0 -1.41031,-1.38531 -2.02457,-2.15431c-0.44566,-0.5525 -0.99255,-1.6806 -0.99255,-1.6806"/></g></g><path d="M260.6838,203.03963c0.35388,2.92155 -0.84764,6.44142 -2.68369,7.86188c-1.83605,1.42046 -3.61133,0.20352 -3.96523,-2.71801c-0.35388,-2.92155 0.84764,-6.44142 2.68369,-7.86188c1.83605,-1.42046 3.61135,-0.20352 3.96523,2.71801z" data-paper-data="{&quot;index&quot;:null}" fill="#ffd9a7" stroke="none" stroke-width="0" stroke-linecap="butt"/><path d="M231.20581,199.85439c1.83605,1.42046 3.03758,4.94031 2.68369,7.86188c-0.35388,2.92155 -2.12916,4.13847 -3.96521,2.71801c-1.83605,-1.42046 -3.03758,-4.94031 -2.68369,-7.86188c0.35388,-2.92155 2.12916,-4.13847 3.96521,-2.71801z" data-paper-data="{&quot;index&quot;:null}" fill="#ffd9a7" stroke="none" stroke-width="0" stroke-linecap="butt"/><g stroke="none" stroke-linecap="butt"><path d="M239.69313,207.28788c0,-3.09753 2.51105,-5.60856 5.60858,-5.60856c3.09753,0 5.60856,2.51103 5.60856,5.60856c0,3.09753 -2.51103,5.60856 -5.60856,5.60856c-3.09753,0 -5.60858,-2.51103 -5.60858,-5.60856z" data-paper-data="{&quot;index&quot;:null}" fill="#ffe342" stroke-width="NaN"/><path d="M240.69467,207.28788c0,-2.54441 2.06264,-4.60705 4.60703,-4.60705c2.54439,0 4.60703,2.06264 4.60703,4.60705c0,2.54441 -2.06264,4.60703 -4.60703,4.60703c-2.54439,0 -4.60703,-2.06264 -4.60703,-4.60703z" data-paper-data="{&quot;index&quot;:null}" fill="#ffd800" stroke-width="0"/></g><g stroke="none" stroke-width="1"><path d="M233.99042,144.34096l6.54472,1.73923l2.8155,-4.96353l5.10447,4.54535l3.26405,-2.10823l-0.97008,9.82987l-14.35494,0.75796z" data-paper-data="{&quot;index&quot;:null}" fill="url(#color-10)" stroke-linecap="round"/><g data-paper-data="{&quot;index&quot;:null}" stroke-linecap="butt"><path d="M245.18358,148.30237c-0.10464,-0.15567 -0.16569,-0.34307 -0.16569,-0.54474c0,-0.54 0.43775,-0.97776 0.97776,-0.97776c0.54,0 0.97776,0.43775 0.97776,0.97776c0,0.54 -0.43775,0.97776 -0.97776,0.97776c-0.25174,0 -0.48126,-0.09515 -0.65457,-0.25142c0.10464,0.15567 0.16569,0.34307 0.16569,0.54474c0,0.54 -0.43775,0.97776 -0.97776,0.97776c-0.54,0 -0.97776,-0.43775 -0.97776,-0.97776c0,-0.21632 0.07026,-0.41624 0.18918,-0.57817c-0.17873,0.23266 -0.45977,0.38263 -0.77584,0.38263c-0.54,0 -0.97776,-0.43775 -0.97776,-0.97776c0,-0.54 0.43775,-0.97776 0.97776,-0.97776c0.54,0 0.97776,0.43775 0.97776,0.97776c0,0.21632 -0.07026,0.41624 -0.18918,0.57817c0.17873,-0.23266 0.45976,-0.38263 0.77583,-0.38263c0.25174,0 0.48126,0.09515 0.65457,0.25142z" data-paper-data="{&quot;origPos&quot;:null}" fill="#ffffff"/><path d="M243.45346,146.48655c0,-0.54 0.43775,-0.97776 0.97776,-0.97776c0.54,0 0.97776,0.43775 0.97776,0.97776c0,0.54 -0.43775,0.97776 -0.97776,0.97776c-0.54,0 -0.97776,-0.43775 -0.97776,-0.97776z" data-paper-data="{&quot;origPos&quot;:null}" fill="#ffffff"/><path d="M245.50675,147.80652c0,0.56701 -0.42524,1.02665 -0.94982,1.02665c-0.52457,0 -0.94982,-0.45965 -0.94982,-1.02665c0,-0.56701 0.42524,-1.02665 0.94982,-1.02665c0.52457,0 0.94982,0.45965 0.94982,1.02665z" data-paper-data="{&quot;origPos&quot;:null}" fill="url(#color-11)"/></g><g data-paper-data="{&quot;origRot&quot;:0,&quot;index&quot;:null}" stroke-linecap="butt"><path d="M238.26027,148.76576c-0.06964,-0.53443 0.26381,-1.0304 0.74479,-1.10777c0.48097,-0.07736 0.92733,0.29315 0.99696,0.82758c0.06964,0.53443 -0.26381,1.0304 -0.74479,1.10777c-0.22422,0.03607 -0.44093,-0.02519 -0.61544,-0.15503c0.11326,0.13908 0.19181,0.3158 0.21782,0.51539c0.06964,0.53443 -0.26381,1.0304 -0.74479,1.10777c-0.48097,0.07736 -0.92733,-0.29315 -0.99696,-0.82758c-0.0279,-0.21409 0.00891,-0.42201 0.09395,-0.59932c-0.1292,0.25588 -0.36017,0.44457 -0.64169,0.48985c-0.48097,0.07736 -0.92733,-0.29315 -0.99696,-0.82758c-0.06964,-0.53443 0.26381,-1.0304 0.74479,-1.10777c0.48097,-0.07736 0.92733,0.29315 0.99696,0.82758c0.0279,0.21409 -0.0089,0.42201 -0.09394,0.59931c0.12921,-0.25588 0.36017,-0.44457 0.64169,-0.48985c0.22422,-0.03607 0.44093,0.02519 0.61544,0.15503c-0.11326,-0.13908 -0.19181,-0.3158 -0.21782,-0.51539z" data-paper-data="{&quot;origPos&quot;:null}" fill="#ffffff"/><path d="M236.70296,147.73193c-0.06964,-0.53443 0.26381,-1.0304 0.74479,-1.10777c0.48097,-0.07736 0.92733,0.29315 0.99696,0.82758c0.06964,0.53443 -0.26381,1.0304 -0.74479,1.10777c-0.48097,0.07736 -0.92733,-0.29315 -0.99696,-0.82758z" data-paper-data="{&quot;origPos&quot;:null}" fill="#ffffff"/><path d="M238.70202,148.74408c0.07311,0.56115 -0.24638,1.07699 -0.71361,1.15215c-0.46723,0.07516 -0.90527,-0.31882 -0.97839,-0.87996c-0.07311,-0.56115 0.24639,-1.07699 0.71361,-1.15215c0.46723,-0.07516 0.90527,0.31882 0.97839,0.87996z" data-paper-data="{&quot;origPos&quot;:null}" fill="url(#color-12)"/></g><g data-paper-data="{&quot;origRot&quot;:0,&quot;index&quot;:null}" stroke-linecap="butt"><path d="M251.02708,147.74588c0.31468,0.1243 0.50944,0.65107 0.43501,1.17657c-0.07443,0.5255 -0.38988,0.85074 -0.70455,0.72644c-0.14671,-0.05795 -0.26734,-0.20335 -0.34679,-0.39533c0.03951,0.17558 0.04926,0.37201 0.02146,0.56826c-0.07443,0.5255 -0.38988,0.85074 -0.70455,0.72644c-0.31468,-0.1243 -0.50944,-0.65107 -0.43501,-1.17657c0.02981,-0.21052 0.09831,-0.38889 0.18993,-0.5191c-0.13623,0.18527 -0.32066,0.26653 -0.50486,0.19377c-0.31468,-0.1243 -0.50944,-0.65107 -0.43501,-1.17657c0.07443,-0.5255 0.38988,-0.85074 0.70455,-0.72644c0.31468,0.1243 0.50944,0.65107 0.43501,1.17657c-0.02981,0.21052 -0.09831,0.38889 -0.18993,0.5191c0.13623,-0.18527 0.32066,-0.26653 0.50486,-0.19377c0.14671,0.05795 0.26734,0.20335 0.34679,0.39533c-0.03951,-0.17558 -0.04926,-0.37201 -0.02146,-0.56826c0.07443,-0.5255 0.38988,-0.85074 0.70455,-0.72644z" data-paper-data="{&quot;origPos&quot;:null}" fill="#ffffff"/><path d="M249.58609,146.87527c0.07443,-0.5255 0.38988,-0.85074 0.70455,-0.72644c0.31468,0.1243 0.50944,0.65107 0.43501,1.17657c-0.07443,0.5255 -0.38988,0.85074 -0.70455,0.72644c-0.31468,-0.1243 -0.50944,-0.65107 -0.43501,-1.17657z" data-paper-data="{&quot;origPos&quot;:null}" fill="#ffffff"/><path d="M250.60067,148.63243c-0.07815,0.55177 -0.38932,0.90119 -0.69501,0.78044c-0.30569,-0.12075 -0.49014,-0.66593 -0.41199,-1.21771c0.07815,-0.55177 0.38932,-0.90119 0.69501,-0.78044c0.30569,0.12075 0.49014,0.66593 0.41199,1.21771z" data-paper-data="{&quot;origPos&quot;:null}" fill="url(#color-13)"/></g></g></g></g></g></svg>