<svg version="1.1" xmlns="http://www.w3.org/2000/svg" xmlns:xlink="http://www.w3.org/1999/xlink" width="108.81478" height="79.08939" viewBox="0,0,108.81478,79.08939"><defs><radialGradient cx="240" cy="190.19365" r="56.33968" gradientUnits="userSpaceOnUse" id="color-1"><stop offset="0" stop-color="#000000"/><stop offset="1" stop-color="#000000" stop-opacity="0"/></radialGradient><linearGradient x1="239.90946" y1="147.9411" x2="239.90946" y2="205.60675" gradientUnits="userSpaceOnUse" id="color-2"><stop offset="0" stop-color="#ffe369"/><stop offset="1" stop-color="#e1b83e"/></linearGradient><linearGradient x1="171.27921" y1="145.33032" x2="171.27921" y2="208.21754" gradientUnits="userSpaceOnUse" id="color-3"><stop offset="0" stop-color="#000000" stop-opacity="0"/><stop offset="1" stop-color="#000000" stop-opacity="0"/></linearGradient><radialGradient cx="227.82651" cy="143.7641" r="12.26793" gradientUnits="userSpaceOnUse" id="color-4"><stop offset="0" stop-color="#ff2424"/><stop offset="1" stop-color="#831515"/></radialGradient><radialGradient cx="249.81193" cy="149.00161" r="12.42978" gradientUnits="userSpaceOnUse" id="color-5"><stop offset="0" stop-color="#a71a1a"/><stop offset="1" stop-color="#7a1414"/></radialGradient><radialGradient cx="237.08082" cy="163.04391" r="14.37194" gradientUnits="userSpaceOnUse" id="color-6"><stop offset="0" stop-color="#831515"/><stop offset="1" stop-color="#2c0606"/></radialGradient><radialGradient cx="239.11806" cy="150.85246" r="13.59507" gradientUnits="userSpaceOnUse" id="color-7"><stop offset="0" stop-color="#ff6161"/><stop offset="1" stop-color="#ff6161" stop-opacity="0"/></radialGradient><radialGradient cx="238.29545" cy="148.79596" r="16.73487" gradientUnits="userSpaceOnUse" id="color-8"><stop offset="0" stop-color="#ff6161"/><stop offset="1" stop-color="#ff6161" stop-opacity="0"/></radialGradient><radialGradient cx="237.06157" cy="150.23551" r="13.65981" gradientUnits="userSpaceOnUse" id="color-9"><stop offset="0" stop-color="#ff6161"/><stop offset="1" stop-color="#ff6161" stop-opacity="0"/></radialGradient><radialGradient cx="238.77746" cy="151.7845" r="11.20747" gradientUnits="userSpaceOnUse" id="color-10"><stop offset="0" stop-color="#7c144f"/><stop offset="1" stop-color="#530d35"/></radialGradient></defs><g transform="translate(-185.50207,-132.96952)"><g data-paper-data="{&quot;isPaintingLayer&quot;:true}" fill-rule="nonzero" stroke-linejoin="miter" stroke-miterlimit="10" stroke-dasharray="" stroke-dashoffset="0" style="mix-blend-mode: normal"><path d="M187.28345,212.0589v-43.7305h105.4331v43.7305z" fill="url(#color-1)" stroke="none" stroke-width="0" stroke-linecap="butt"/><path d="M187.48867,147.9411h104.84158v57.66565h-104.84158z" fill="url(#color-2)" stroke="url(#color-3)" stroke-width="3.9732" stroke-linecap="round"/><text transform="translate(192.95918,194.04151) scale(1.29983,1.29983)" font-size="22" xml:space="preserve" fill="#3e444c" fill-rule="nonzero" stroke="none" stroke-width="1" stroke-linecap="butt" stroke-linejoin="miter" stroke-miterlimit="10" stroke-dasharray="" stroke-dashoffset="0" font-family="Sans Serif" font-weight="400" text-anchor="start" style="mix-blend-mode: normal"><tspan x="0" dy="0">Level 8</tspan></text><path d="M221.98472,140.34971l16.63777,-7.25069l-0.06475,17.60887l-14.30719,6.92701z" fill="url(#color-4)" stroke="none" stroke-width="1" stroke-linecap="round"/><path d="M252.67074,157.82908l-14.37194,-7.25071l-0.06475,-17.60885l16.63777,7.25069z" fill="url(#color-5)" stroke="none" stroke-width="1" stroke-linecap="round"/><path d="M238.29881,149.86625l14.5014,7.63914l-14.63088,9.96972l-14.11297,-9.7755z" fill="url(#color-6)" stroke="none" stroke-width="1" stroke-linecap="round"/><g stroke="none" stroke-width="1" stroke-linecap="round"><path d="M238.41496,150.40703l16.31409,-9.58129l-1.81267,17.22043l-14.8251,9.96972z" data-paper-data="{&quot;origPos&quot;:null}" fill="url(#color-7)"/><path d="M238.54444,133.25135l16.96147,7.25071l-16.89673,9.84024l-16.57305,-9.7755z" data-paper-data="{&quot;origPos&quot;:null}" fill="url(#color-8)"/><path d="M238.15601,168.01589l-14.30719,-10.0992l-1.81269,-17.22043l16.31409,9.58129z" data-paper-data="{&quot;origPos&quot;:null}" fill="url(#color-9)"/></g><g data-paper-data="{&quot;origRot&quot;:0}" stroke="none" stroke-width="1" stroke-linecap="round"><path d="M250.06387,151.84702l-5.09058,8.07204l-12.94587,-0.4727l-4.37852,-9.8869l6.7686,-2.54186l-0.34795,-7.89281l9.1042,0.28258l0.14734,8.75018z" data-paper-data="{&quot;origPos&quot;:null}" fill="url(#color-10)"/><path d="M243.98713,157.84544l-10.46049,-0.18933l-2.94271,-6.93572l5.66379,-1.62233l0.37015,-2.16686l4.84395,-0.33302l0.00807,3.8929l-5.0692,1.77611l0.396,1.9844l4.53434,-0.11706l2.35253,-3.53609l3.78111,2.14101z" data-paper-data="{&quot;origPos&quot;:null}" fill="#ff98b6"/><path d="M241.41539,144.97912l-5.2024,-0.16145l-0.21959,-4.13793l5.07766,0.23492z" data-paper-data="{&quot;origPos&quot;:null}" fill="#ff98b6"/></g></g></g></svg>