<svg version="1.1" xmlns="http://www.w3.org/2000/svg" xmlns:xlink="http://www.w3.org/1999/xlink" width="67.07455" height="63.53609" viewBox="0,0,67.07455,63.53609"><defs><linearGradient x1="208.95715" y1="180.01312" x2="267.98832" y2="180.01312" gradientUnits="userSpaceOnUse" id="color-1"><stop offset="0" stop-color="#aa75c9"/><stop offset="1" stop-color="#9700da"/></linearGradient></defs><g transform="translate(-206.46274,-148.23196)"><g data-paper-data="{&quot;isPaintingLayer&quot;:true}" fill-rule="nonzero" stroke-linejoin="miter" stroke-miterlimit="10" stroke-dasharray="" stroke-dashoffset="0" style="mix-blend-mode: normal"><path d="M267.98832,179.11739l-57.87782,30.04962c0,0 -1.02779,-0.16788 -1.14777,-30.64332c-0.10763,-27.34244 1.37928,-27.66445 1.37928,-27.66445z" fill="url(#color-1)" stroke="#654687" stroke-width="5" stroke-linecap="round"/><path d="M209.89491,179.68239h53.57832" fill="none" stroke="#654687" stroke-width="5" stroke-linecap="round"/><path d="M225.06022,163.52933c1.27477,1.28019 2.06284,3.04927 2.06284,5.00172c0,1.95245 -0.78807,3.72154 -2.06284,5.00171c-1.27477,1.28179 -3.03621,2.07467 -4.978,2.07467c-1.94179,0 -3.70324,-0.79288 -4.978,-2.07467c-1.27477,-1.28018 -2.06285,-3.04927 -2.06285,-5.00171c0,-1.95244 0.78808,-3.72154 2.06285,-5.00172c1.27477,-1.2818 3.03621,-2.07468 4.978,-2.07468c1.94179,0 3.70323,0.79287 4.978,2.07468z" data-paper-data="{&quot;index&quot;:null}" fill="#ffffff" stroke="none" stroke-width="1" stroke-linecap="butt"/><path d="M225.39356,186.196c1.27477,1.28019 2.06284,3.04927 2.06284,5.00172c0,1.95245 -0.78807,3.72154 -2.06284,5.00171c-1.27477,1.28179 -3.03621,2.07467 -4.978,2.07467c-1.94179,0 -3.70324,-0.79288 -4.978,-2.07467c-1.27477,-1.28018 -2.06285,-3.04927 -2.06285,-5.00171c0,-1.95244 0.78808,-3.72154 2.06285,-5.00172c1.27477,-1.2818 3.03621,-2.07468 4.978,-2.07468c1.94179,0 3.70323,0.79287 4.978,2.07468z" data-paper-data="{&quot;index&quot;:null}" fill="#ffffff" stroke="none" stroke-width="1" stroke-linecap="butt"/><g stroke="none"><path d="M224.20631,171.06458c-0.0568,0.3023 -0.35283,0.58123 -0.6902,0.78981c-0.34967,0.2155 -0.75869,0.37597 -1.2175,0.42991c-0.5637,0.06559 -1.12453,-0.04245 -1.67803,-0.10956c-0.82429,-0.09994 -1.87081,-0.02084 -2.50232,-0.41422c-0.45389,-0.27454 0.00371,-0.8051 -0.11926,-1.19897c-0.11611,-0.37001 -0.33982,-0.82188 0.0358,-1.08523c0.52637,-0.36525 0.92904,-0.1998 1.76049,-0.22281c0.51881,-0.01341 1.07737,-0.01814 1.60377,0.05068c0.52325,0.069 1.04711,0.1569 1.52591,0.30867c0.37788,0.1422 0.76339,0.31336 0.99514,0.55637c0.24684,0.26246 0.34286,0.59162 0.28619,0.89535z" fill="#654a84" stroke-width="2.5" stroke-linecap="round"/><path d="M224.19019,166.6133c-0.02939,0.35896 -0.29964,0.70735 -0.61748,0.97604c-0.3295,0.27769 -0.72319,0.49496 -1.17616,0.59064c-0.55662,0.11675 -1.12604,0.02943 -1.68444,-0.01035c-0.83158,-0.05925 -1.86877,0.10741 -2.53448,-0.30998c-0.47772,-0.29038 -0.06897,-0.94563 -0.22723,-1.39945c-0.14926,-0.42629 -0.35734,-0.89118 -0.00628,-1.22688c0.4923,-0.46599 0.85312,-0.35002 1.68076,-0.43565c0.51653,-0.05231 1.07349,-0.09725 1.60501,-0.05355c0.52839,0.04413 1.05909,0.11043 1.5506,0.25487c0.38993,0.14034 0.79009,0.31413 1.04328,0.58314c0.27,0.29078 0.39555,0.67051 0.36642,1.03116z" fill="#654a84" stroke-width="2.5" stroke-linecap="round"/><path d="M217.89048,172.85085c-1.12148,0 -1.41366,-1.95085 -1.41366,-4.35735c0,-2.4065 0.29218,-4.35735 1.41366,-4.35735c1.12148,0 2.0306,1.95085 2.0306,4.35735c0,2.4065 -0.90913,4.35735 -2.0306,4.35735z" fill="#7c5aa2" stroke-width="0" stroke-linecap="butt"/><path d="M218.44043,165.65911c0.63083,0 1.14222,0.51138 1.14222,1.14221c0,0.63083 -0.51139,1.14222 -1.14222,1.14222c-0.63083,0 -1.14221,-0.51139 -1.14221,-1.14222c0,-0.63083 0.51138,-1.14221 1.14221,-1.14221z" fill="#ffffff" stroke-width="0" stroke-linecap="butt"/><path d="M218.42776,166.16722c0.35046,0 0.63456,0.28411 0.63456,0.63457c0,0.35046 -0.2841,0.63457 -0.63456,0.63457c-0.35046,0 -0.63457,-0.28411 -0.63457,-0.63457c0,-0.35046 0.28411,-0.63457 0.63457,-0.63457z" fill="#000000" stroke-width="0" stroke-linecap="butt"/><path d="M218.3962,169.10328c0.60224,0 1.09044,0.4882 1.09044,1.09044c0,0.60224 -0.4882,1.09044 -1.09044,1.09044c-0.60224,0 -1.09044,-0.4882 -1.09044,-1.09044c0,-0.60224 0.4882,-1.09044 1.09044,-1.09044z" fill="#ffffff" stroke-width="0" stroke-linecap="butt"/><path d="M218.3841,169.58836c0.33458,0 0.6058,0.27123 0.6058,0.60581c0,0.33458 -0.27123,0.6058 -0.6058,0.6058c-0.33458,0 -0.6058,-0.27122 -0.6058,-0.6058c0,-0.33458 0.27123,-0.60581 0.6058,-0.60581z" fill="#000000" stroke-width="0" stroke-linecap="butt"/></g><g stroke="none"><path d="M224.77774,193.3503c-0.0568,0.3023 -0.35283,0.58123 -0.6902,0.78981c-0.34967,0.2155 -0.75869,0.37597 -1.2175,0.42992c-0.5637,0.06559 -1.12453,-0.04245 -1.67803,-0.10956c-0.82429,-0.09994 -1.8708,-0.02084 -2.50231,-0.41422c-0.45389,-0.27454 0.00371,-0.80511 -0.11926,-1.19898c-0.11611,-0.37001 -0.33982,-0.82188 0.0358,-1.08523c0.52637,-0.36525 0.92904,-0.1998 1.76049,-0.22281c0.51881,-0.01341 1.07737,-0.01814 1.60378,0.05068c0.52325,0.069 1.04711,0.1569 1.52591,0.30867c0.37788,0.1422 0.76339,0.31337 0.99514,0.55637c0.24684,0.26246 0.34286,0.59162 0.28619,0.89535z" fill="#654a84" stroke-width="2.5" stroke-linecap="round"/><path d="M224.76162,188.89902c-0.02939,0.35896 -0.29964,0.70736 -0.61748,0.97604c-0.3295,0.27769 -0.72319,0.49496 -1.17616,0.59064c-0.55662,0.11675 -1.12604,0.02943 -1.68444,-0.01035c-0.83158,-0.05925 -1.86877,0.10741 -2.53448,-0.30998c-0.47772,-0.29038 -0.06896,-0.94563 -0.22723,-1.39945c-0.14926,-0.42629 -0.35735,-0.89118 -0.00628,-1.22689c0.4923,-0.46599 0.85312,-0.35002 1.68077,-0.43565c0.51653,-0.05231 1.07349,-0.09724 1.605,-0.05354c0.52839,0.04413 1.05909,0.11042 1.5506,0.25487c0.38993,0.14034 0.79009,0.31414 1.04328,0.58314c0.27,0.29078 0.39555,0.67051 0.36642,1.03116z" fill="#654a84" stroke-width="2.5" stroke-linecap="round"/><path d="M218.46191,195.13656c-1.12148,0 -1.41366,-1.95085 -1.41366,-4.35735c0,-2.4065 0.29218,-4.35735 1.41366,-4.35735c1.12148,0 2.03061,1.95085 2.03061,4.35735c0,2.4065 -0.90913,4.35735 -2.03061,4.35735z" fill="#7c5aa2" stroke-width="0" stroke-linecap="butt"/><path d="M219.01186,187.94482c0.63083,0 1.14222,0.51138 1.14222,1.14221c0,0.63083 -0.51139,1.14222 -1.14222,1.14222c-0.63083,0 -1.14222,-0.51139 -1.14222,-1.14222c0,-0.63083 0.51139,-1.14221 1.14222,-1.14221z" fill="#ffffff" stroke-width="0" stroke-linecap="butt"/><path d="M218.99919,188.45294c0.35046,0 0.63457,0.28411 0.63457,0.63457c0,0.35046 -0.28411,0.63456 -0.63457,0.63456c-0.35046,0 -0.63457,-0.2841 -0.63457,-0.63456c0,-0.35046 0.28411,-0.63457 0.63457,-0.63457z" fill="#000000" stroke-width="0" stroke-linecap="butt"/><path d="M218.96763,191.38899c0.60224,0 1.09044,0.4882 1.09044,1.09044c0,0.60224 -0.4882,1.09044 -1.09044,1.09044c-0.60224,0 -1.09044,-0.4882 -1.09044,-1.09044c0,-0.60224 0.4882,-1.09044 1.09044,-1.09044z" fill="#ffffff" stroke-width="0" stroke-linecap="butt"/><path d="M218.95553,191.87407c0.33458,0 0.6058,0.27123 0.6058,0.60581c0,0.33458 -0.27122,0.6058 -0.6058,0.6058c-0.33458,0 -0.60581,-0.27122 -0.60581,-0.6058c0,-0.33458 0.27123,-0.60581 0.60581,-0.60581z" fill="#000000" stroke-width="0" stroke-linecap="butt"/></g></g></g></svg>