<svg version="1.1" xmlns="http://www.w3.org/2000/svg" xmlns:xlink="http://www.w3.org/1999/xlink" width="285.49625" height="332.63474" viewBox="0,0,285.49625,332.63474"><defs><linearGradient x1="232.00553" y1="24.00419" x2="232.00553" y2="290.65985" gradientUnits="userSpaceOnUse" id="color-1"><stop offset="0" stop-color="#003fff"/><stop offset="1" stop-color="#7f00ff"/></linearGradient><linearGradient x1="265.9267" y1="288.5034" x2="265.9267" y2="326.96015" gradientUnits="userSpaceOnUse" id="color-2"><stop offset="0" stop-color="#7f00ff"/><stop offset="1" stop-color="#ff00bf"/></linearGradient></defs><g transform="translate(-223.7711,-7.94191)"><g data-paper-data="{&quot;isPaintingLayer&quot;:true}" fill-rule="nonzero" stroke-linejoin="miter" stroke-miterlimit="10" stroke-dasharray="" stroke-dashoffset="0" style="mix-blend-mode: normal"><path d="M246.0089,39.0338c20.0607,-26.7919 66.5471,-9.4746 100.0145,-10.0657c33.6173,-0.5868 73.1519,-10.0871 102.9057,7.0674c17.6942,10.207 27.4023,47.0218 12.1003,60.9296c-25.0122,22.6821 -73.0042,-3.448 -97.0162,19.0606c-17.3645,16.3107 -17.6728,56.4472 0.9637,70.9953c29.546,23.0547 82.6394,-7.3287 111.0439,16.9189c20.2278,16.6406 24.7167,65.5877 1.9275,78.0628c-39.3505,18.8699 -80.5299,-14.4818 -121.0026,-14.0278c-33.4588,0.2292 -73.7451,37.4444 -98.9436,16.0623c-29.3019,-24.8815 -16.0602,-75.4927 -17.9898,-114.0422c-2.086,-43.4517 -20.1271,-96.0461 5.9966,-130.9612z" fill="none" stroke="url(#color-1)" stroke-width="32.12457" stroke-linecap="round"/><path d="M223.7711,177.316l32.6449,-0.5434l0.0981,5.8992l-32.6448,0.5434z" fill="#ffffff" stroke="none" stroke-width="1.00621" stroke-linecap="butt"/><path d="M460.5105,288.5034c0,0 -41.1412,28.4114 -64.5664,35.4894c-15.9227,4.8115 -33.8797,3.2571 -49.9727,-0.995c-28.0134,-7.4031 -80.0447,-33.4994 -80.0447,-33.4994" fill="none" stroke="url(#color-2)" stroke-width="33.1677" stroke-linecap="round"/></g></g></svg>