<svg version="1.1" xmlns="http://www.w3.org/2000/svg" xmlns:xlink="http://www.w3.org/1999/xlink" width="142.67225" height="197.79582" viewBox="0,0,142.67225,197.79582"><defs><linearGradient x1="180.98768" y1="247.1667" x2="300.14668" y2="247.1667" gradientUnits="userSpaceOnUse" id="color-1"><stop offset="0" stop-color="#7481a6"/><stop offset="1" stop-color="#596486"/></linearGradient><linearGradient x1="240.50005" y1="217.00003" x2="240.50005" y2="250.00003" gradientUnits="userSpaceOnUse" id="color-2"><stop offset="0" stop-color="#7481a6"/><stop offset="1" stop-color="#939fc4"/></linearGradient><linearGradient x1="246.65773" y1="105.45201" x2="246.65773" y2="112.4867" gradientUnits="userSpaceOnUse" id="color-3"><stop offset="0" stop-color="#daba89"/><stop offset="1" stop-color="#ffdaa1"/></linearGradient><linearGradient x1="261.91477" y1="83.00795" x2="251.92994" y2="83.00795" gradientUnits="userSpaceOnUse" id="color-4"><stop offset="0" stop-color="#dfab00"/><stop offset="1" stop-color="#ffc400"/></linearGradient></defs><g transform="translate(-180.98768,-67.20421)"><g data-paper-data="{&quot;isPaintingLayer&quot;:true}" fill-rule="nonzero" stroke-linejoin="miter" stroke-miterlimit="10" stroke-dasharray="" stroke-dashoffset="0" style="mix-blend-mode: normal"><path d="M300.00005,248.50003c0,9.1127 -26.63905,16.5 -59.5,16.5c-32.86095,0 -59.5,-7.3873 -59.5,-16.5c0,-3.06185 -0.01237,-14.18471 -0.01237,-14.18471l60.17904,-4.98195l58.97996,4.35874c0,0 -0.14663,5.69523 -0.14663,14.80793z" data-paper-data="{&quot;origPos&quot;:null}" fill="url(#color-1)" stroke="none" stroke-width="0" stroke-linecap="butt"/><path d="M300.00005,233.50003c0,9.1127 -26.63906,16.5 -59.5,16.5c-32.86094,0 -59.5,-7.3873 -59.5,-16.5c0,-9.1127 26.63906,-16.5 59.5,-16.5c32.86094,0 59.5,7.3873 59.5,16.5z" data-paper-data="{&quot;origPos&quot;:null}" fill="url(#color-2)" stroke="none" stroke-width="0" stroke-linecap="butt"/><path d="M271.2048,154.09786c-0.20026,-0.57115 -5.60692,-28.18499 -5.19858,-28.94099c1.22503,-2.26802 8.77835,-2.60962 13.12239,1.3451c5.17743,4.7134 7.97762,24.28859 10.06939,30.95205c0.88997,2.83506 -4.51211,6.55312 -4.76382,9.54954c-0.51141,6.08817 0.20356,8.96137 -4.41843,5.26563c-2.63458,-2.10662 -4.58992,-4.21717 -5.21244,-7.19987c-0.78502,-3.76128 -2.33056,-7.35522 -3.59853,-10.97146z" data-paper-data="{&quot;origPos&quot;:null,&quot;origRot&quot;:0,&quot;index&quot;:null}" fill="#ffdaa1" stroke="none" stroke-width="0.5" stroke-linecap="butt"/><path d="M297.77754,189.38021c-0.28622,0.51458 -0.80263,0.89464 -1.43295,0.98537c-0.71088,0.10233 -1.38775,-0.18909 -1.8073,-0.70835c-0.95065,-0.37259 -0.34907,-1.32368 -0.60895,-2.30648c-0.29764,-1.12559 -0.72529,-2.21341 -1.11637,-3.31035c-0.15918,-0.44646 -0.66305,-1.72416 -0.67846,-1.25071c-0.0741,2.27814 3.74239,10.00333 -0.10104,10.55661c-2.60573,0.37509 -3.45972,-7.02745 -4.04381,-8.76279c-0.11324,-0.33646 -0.14837,0.69474 -0.24732,1.03563c-0.23591,0.81293 -0.41434,1.09703 -0.33782,1.93163c0.22066,2.40677 -0.02592,6.74901 -2.44977,7.23577c-1.84443,0.37039 -1.73681,-6.85972 -1.68305,-7.818c0.01585,-0.28285 0.02631,-2.33508 0.00804,-2.32852c-0.90721,0.32548 -1.79456,7.62605 -2.25576,8.64208c-0.2997,0.66025 -1.70285,1.34335 -2.41061,0.8894c-2.32088,-1.4886 -1.04897,-5.55871 -0.82504,-7.7983c0.01723,-0.17247 0.49912,-2.69179 0.49115,-2.69197c-0.20249,-0.00473 -2.67413,5.93168 -3.37358,6.37248c-1.48481,0.93574 -3.61028,-0.85447 -2.89781,-2.44127c0.40107,-0.89325 0.97825,-2.75732 1.54665,-3.52401c1.38103,-1.8628 2.87978,-6.04872 5.54507,-5.84974c2.08697,0.1558 1.62485,1.1566 2.95978,2.2406c0.03909,0.03174 0.74883,-0.29349 0.82373,-0.31288c0.62432,-0.16164 1.14788,0.14299 1.74096,0.1046c3.22722,-0.20892 7.74496,-2.98579 10.59521,-0.20406c1.27371,1.24309 2.89623,6.01279 2.80304,8.37045c0.00026,0.1136 -0.00952,0.22552 -0.02855,0.33475c-0.02071,0.14807 -0.05167,0.27778 -0.09382,0.38628c-0.03135,0.0807 -0.07255,0.15414 -0.12165,0.22176z" data-paper-data="{&quot;origRot&quot;:0,&quot;index&quot;:null}" fill="#ffdaa1" stroke="none" stroke-width="0.5" stroke-linecap="butt"/><path d="M272.78042,158.39963c-0.14639,-0.49848 0.34992,-0.76975 0.34992,-0.76975c3.39635,-1.85635 7.05647,-2.18434 10.86758,-2.73295c1.19903,-0.17261 2.39804,-0.3452 3.59707,-0.51782l0.21575,-0.02914c0.01959,-0.00408 0.03992,-0.00765 0.06097,-0.01069c0.22609,-0.03254 0.38898,0.01901 0.50583,0.10321c0.12061,0.07878 0.22689,0.21192 0.27655,0.43367c0.00855,0.03815 0.01443,0.07463 0.01797,0.10952c0.41653,2.83597 1.09474,5.58104 1.5098,8.4329l0.03126,0.21473c3.5695,2.11897 4.85066,6.15434 5.42453,10.09744c0.23363,1.60523 0.46726,3.21049 0.70089,4.81575c0.03655,0.25114 0.37845,1.46802 0.2403,1.65111c-0.12537,0.16612 -0.26151,0.30563 -0.4058,0.42374c-0.44877,-0.41517 -1.07571,-0.6319 -1.72951,-0.53778c-0.95271,0.13715 -1.35704,1.91506 -1.45567,2.05824c-0.06612,0.09599 -0.55658,0.51088 -0.74039,0.72229c-0.37821,-0.81805 -1.16942,-1.4532 -2.11098,-1.31766c-1.14612,0.165 -1.94076,1.22277 -1.77485,2.36263c0.01277,0.08766 0.03083,0.17323 0.05384,0.25648c-0.19247,0.04979 -0.39369,0.06557 -0.59814,0.05827c-0.29798,-0.96628 -1.26752,-1.59916 -2.30462,-1.44988c-0.67863,0.09769 -2.43184,2.19581 -2.43184,2.19581c-0.06775,0.21864 -0.24207,0.39596 -0.47089,0.46264c0.00721,-0.13503 0.00126,-0.27275 -0.01896,-0.41168c-0.16589,-1.13985 -1.2295,-1.93013 -2.37563,-1.76514c-0.58218,0.0838 -1.92886,1.20685 -1.92886,1.20685c0,0 -0.43908,-2.00521 -0.87105,-2.49291c-0.55379,-0.62525 -1.4753,-0.90804 -2.30448,-0.78867c-0.58804,0.08464 -1.08354,0.40431 -1.40428,0.8495c-0.06824,-0.11967 -0.08502,-0.23818 -0.07541,-0.34504c-0.31881,-2.34829 -0.00487,-4.66094 0.11626,-7.00571c0.05554,-1.07487 0.58126,-2.41234 0.33665,-3.46518c-0.24644,-1.69332 0.42233,-3.50772 0.40974,-5.19774c-0.0154,-2.06659 -1.00454,-3.87663 -1.42543,-5.84385c-0.04543,-0.22095 -0.10417,-0.44743 -0.22429,-0.6387l-0.19842,-0.39287c0,0 -0.04828,-0.44326 0.13462,-0.74168z" data-paper-data="{&quot;origRot&quot;:0,&quot;index&quot;:null}" fill="#534b3f" stroke="none" stroke-width="0.5" stroke-linecap="butt"/><path d="M281.00293,132.64829c2.04325,1.81305 3.79599,6.43893 5.30154,11.82467c-3.925,-0.21609 -7.95999,0.14668 -11.2828,1.38964c-1.64864,0.6167 -3.28209,1.52734 -4.88065,2.52631c-1.23871,-6.50177 -2.31935,-12.58754 -2.12573,-12.93693c1.25685,-2.26801 8.53076,-6.7584 12.98762,-2.80369z" data-paper-data="{&quot;origPos&quot;:null,&quot;origRot&quot;:0,&quot;index&quot;:null}" fill="#a29c94" stroke="none" stroke-width="0.5" stroke-linecap="butt"/><path d="M234.87757,154.58918c3.28277,-0.18632 6.6454,-0.62122 9.90845,-0.04772c3.17228,0.61569 5.97419,1.42658 8.96815,2.75454c1.55077,0.68783 3.40959,1.58929 4.745,2.69692c2.71303,2.25029 4.15456,3.45292 6.1616,6.40865c1.41467,2.11509 2.02886,4.74762 2.79478,7.17819c0.51953,1.64867 0.47684,4.25636 0.7653,5.96608c0.78827,4.67227 -0.11415,10.00844 -0.95563,15.3971c-0.41512,5.20707 -3.03915,8.29285 -4.10611,11.19542c-1.32173,1.07949 -5.88244,6.62075 -6.56885,6.86212c-4.56517,1.60536 -9.45335,-1.14881 -13.98089,-1.69513l-1.15069,-0.11911c-0.7126,-0.06469 -1.27155,-0.68397 -1.27155,-1.43838c0,-0.37342 0.13694,-0.71373 0.36169,-0.97006c0,0 5.69736,-8.41861 5.99977,-8.72893c0.50537,-1.50296 2.24764,-6.31652 3.37615,-9.36796c0.20074,-1.17737 0.4632,-2.82708 0.4632,-4.18067c0,-1.15314 0.23157,-2.62504 0,-3.75427c-0.31182,-1.52054 -1.92129,-4.00382 -3.14151,-4.96836c-0.33213,-0.26254 -1.9128,-0.5099 -2.30516,-0.60358c-1.55364,-0.37097 -3.00069,-0.49962 -4.59733,-0.49265c-1.24569,0 -4.61727,-0.05872 -4.68523,0.27427c-0.06403,0.31381 -0.07805,4.9944 -0.36485,6.65611c-0.85728,4.96703 -1.54339,9.99171 -2.72343,14.89158c-1.02946,4.26237 -1.67609,8.54358 -3.29524,12.64121c-0.48272,1.22162 -1.10402,2.40373 -1.65618,3.59421c-0.12868,0.27742 -0.14032,0.65897 -0.386,0.83227c-2.76426,1.94976 -7.30643,0.22642 -10.4646,0.24143c-2.48987,0 -2.067,-12.10397 -1.64037,-14.53883c0.99956,-5.70474 2.04976,-11.37299 3.21435,-17.04557c1.16456,-5.67251 4.51576,-10.5091 6.16942,-16.05282c0.4426,-1.4838 -0.21492,-6.73127 -0.03473,-7.29081c-0.40376,-0.22638 6.51651,-6.07483 10.40049,-6.29527z" data-paper-data="{&quot;origPos&quot;:null,&quot;index&quot;:null}" fill="#e6d662" stroke="none" stroke-width="0.5" stroke-linecap="butt"/><path d="M260.55573,102.80233c1.69572,0.15953 3.34393,0.63254 4.99318,1.00083c3.08314,0.76657 4.56767,2.12609 6.32166,4.73516c1.35773,2.02546 2.70639,6.40904 -1.02134,6.82223c-2.35793,0 -4.05017,-2.82494 -6.50279,-3.12628c-2.49878,-0.41418 -5.09013,-0.18777 -7.56968,-0.70206c-1.04316,-0.25937 -2.69602,-0.18656 -3.76721,-0.05275c-0.23601,0.02948 -0.91831,0.33422 -1.11498,0.13862c-0.50611,-0.50334 -0.77143,-1.38371 -0.90032,-2.07004c-0.09488,-0.66048 -0.84931,-2.148 -0.3374,-2.77717c1.26912,-1.55984 3.10459,-3.08043 5.00278,-3.84557c1.40728,-0.55983 3.26304,-0.66568 4.7325,-0.30032l-0.13953,-0.00211c0.10265,0.02008 0.21779,0.069 0.30313,0.17946z" data-paper-data="{&quot;origPos&quot;:null,&quot;index&quot;:null}" fill="#3eaf00" stroke="none" stroke-width="0.5" stroke-linecap="butt"/><path d="M248.31604,67.57888c0.19624,0.12628 0.37105,0.29118 0.51233,0.46943c0.14889,0.18783 0.00501,1.20646 0,1.45542c-0.02958,1.47079 -0.41812,2.93822 -0.41812,4.43552c-0.07354,2.73755 -0.58638,5.63854 -1.51536,8.24274c-1.20564,3.3685 -2.41813,6.34948 -2.78496,9.92714c-0.38764,3.779 -1.35324,7.44536 -1.77392,11.21079c-0.06785,0.57148 -0.01904,1.16133 -0.22144,1.71352c-0.1546,0.42173 -0.90299,0.87996 -1.17051,1.27932c-0.70731,1.05593 -1.66753,3.59582 -3.2655,3.59582c-2.44074,-0.0976 -5.08286,-1.91459 -6.73565,-3.55833c-1.00925,-1.00374 -2.00158,-2.29999 -3.13037,-3.15347c-0.70376,-0.53212 -1.52585,-0.92281 -2.16578,-1.55926c-1.11221,-1.10613 -2.42331,-1.9915 -3.46642,-3.17812c-0.86594,-0.98507 -1.38274,-2.19895 -2.31755,-3.12864c-1.97087,-2.00708 -2.25387,-4.5986 -2.25387,-7.25325c0,-2.91791 -0.03333,-5.67832 1.3132,-8.35665c1.29706,-2.57993 2.8896,-4.30013 4.91279,-6.31225c2.15527,-2.10187 5.14972,-2.60057 7.95308,-3.5299c2.86581,-0.92338 5.76442,-1.4349 8.68219,-2.16035c2.36006,-0.48951 4.97137,-0.36308 7.38258,-0.36308c0,0 0.30432,0 0.46328,0.22361zM247.70312,68.46348c-0.0288,-0.00024 -0.05776,-0.00055 -0.08687,-0.00092l0.09053,0.0357c-0.00111,-0.01127 -0.00234,-0.0229 -0.00366,-0.03477z" data-paper-data="{&quot;origPos&quot;:null,&quot;index&quot;:null}" fill="#3eaf00" stroke="none" stroke-width="0.5" stroke-linecap="butt"/><path d="M241.81631,67.36051c0.41282,0.37262 0.03816,0.78318 0.03816,0.78318l-0.49645,0.34815c-0.30013,0.22387 -0.58518,0.43961 -0.92142,0.60681c-0.41477,0.10769 -0.8312,0.62123 -1.25435,0.83165c-1.72842,0.85949 -2.70437,1.48234 -4.10596,2.87627c-1.828,1.818 -3.68597,3.34919 -5.24438,5.41571c-1.31223,1.7037 -2.24462,4.22272 -2.9136,6.21873c0,0 -0.1763,0.52599 -0.70518,0.35066c-0.52889,-0.17533 -0.35259,-0.70131 -0.35259,-0.70131c0.70872,-2.11453 1.72735,-4.71305 3.07939,-6.53341c1.59282,-2.11216 3.48334,-3.68008 5.34795,-5.53449c1.75191,-1.74234 3.55741,-2.71788 5.65009,-3.91564c0.28555,-0.142 0.49544,-0.31142 0.75105,-0.50208l0.33979,-0.20627c0,0 0.37466,-0.41057 0.78748,-0.03795z" data-paper-data="{&quot;origPos&quot;:null,&quot;index&quot;:null}" fill="#2f8500" stroke="none" stroke-width="0.5" stroke-linecap="butt"/><path d="M260.58714,82.88453c1.04987,-0.25404 2.08034,-0.27362 3.11444,-0.47931c0.9556,-0.16715 1.59899,-0.20295 2.07138,0.86092c0.02686,0.06051 -0.35927,1.01129 -0.35927,1.20746c0,1.3399 0,2.67979 0,4.01969c0,2.40259 0,4.80515 0,7.20774c-0.1017,2.23402 0.74672,5.30478 1.75299,7.3063c0.71236,1.41692 2.09059,3.75065 2.09059,5.34725c0,0.38572 -0.45076,0.65296 -0.77739,0.86093c-0.30797,0.19608 -1.09862,-0.13862 -1.4634,-0.13862c-2.82131,-0.09656 -4.22843,-3.56694 -5.307,-5.71228c-1.07722,-2.17177 -1.21552,-4.36525 -1.78437,-6.62816c-0.18347,-0.73617 -0.5585,-1.46432 -0.64382,-2.21362c-0.18703,-1.6425 0.27875,-3.24898 0.27875,-4.85135c0.05933,-2.11508 0.55749,-4.10864 0.55749,-6.23745c0,0 0,-0.49451 0.46958,-0.54949z" data-paper-data="{&quot;origPos&quot;:null,&quot;index&quot;:null}" fill="#ffc400" stroke="none" stroke-width="0.5" stroke-linecap="butt"/><path d="M255.07222,108.85514c0,1.15409 0.10712,1.77821 0.62485,2.808l0.10774,0.2143c0.44997,0.85014 0.8897,2.00535 -0.01583,2.34c-1.20105,0.44384 -4.37772,-0.99278 -5.19298,-0.00975c-0.68749,0.82897 -0.84569,6.05563 -2.31748,6.05563c-2.12888,0 0.26755,2.12904 -1.01699,1.99577c-2.42794,-0.2519 -4.67437,-5.35377 -4.70311,-6.8c-0.0698,-3.51349 -4.74305,-1.90584 -4.84193,-2.06974c-0.39813,-0.65992 -0.29558,-4.27993 0.08449,-4.77282c0.74278,-0.73871 0.53173,-2.48275 1.61674,-2.93854c1.00835,-0.42358 2.62365,-0.12179 3.69635,-0.12179c2.73484,0 6.00304,-0.3776 8.62914,0.47328c0.86302,0.34332 2.08542,1.38735 2.75029,2.4348c0.04516,-0.01574 0.09823,-0.025 0.16062,-0.025c0.41811,0 0.41811,0.41585 0.41811,0.41585z" data-paper-data="{&quot;origPos&quot;:null,&quot;index&quot;:null}" fill="url(#color-3)" stroke="none" stroke-width="0.5" stroke-linecap="butt"/><path d="M230.21752,90.53251c0,-11.34255 7.82688,-20.53749 17.48185,-20.53749c9.65497,0 17.48185,9.19494 17.48185,20.53748c0,11.34255 -4.54904,18.58154 -14.204,18.58154c-9.65496,0 -20.7597,-7.239 -20.7597,-18.58154z" data-paper-data="{&quot;origPos&quot;:null,&quot;index&quot;:null}" fill="#ffdaa1" stroke="none" stroke-width="0" stroke-linecap="butt"/><g data-paper-data="{&quot;origPos&quot;:null,&quot;index&quot;:null}" fill="#ffdaa1" stroke-width="0.5" stroke-linecap="butt"><path d="M232.16634,84.53878c0,0 0.01199,0.00213 0.03277,0.00734c0.78032,0.10258 1.53656,0.16508 2.24488,0.16508c0,0 0.83991,-0.00002 0.83991,0.83531c0,0.83531 -0.83991,0.83532 -0.83991,0.83532c-0.39996,0 -0.81343,-0.01847 -1.23674,-0.05188c0.68369,1.59356 1.49384,3.05767 2.26796,4.59743c0.55128,1.22397 0.74264,1.62425 -0.44934,2.8633c-0.14242,0.14805 -2.12725,-0.41393 -2.39978,-0.45921c-2.15063,-0.3573 -4.68727,-1.40664 -6.87558,-0.68119c-3.53818,0.16348 -3.89525,-5.99871 -3.90503,-8.83465c-0.00737,-0.07694 -0.00486,-0.16211 0.01018,-0.25633c0.04014,-0.25152 0.14514,-0.41419 0.27173,-0.51879c0.12373,-0.10792 0.30174,-0.18557 0.55781,-0.18557c0.05524,0 0.10684,0.00361 0.15503,0.01036l0.72964,0.00101c0.53905,0.08934 1.07722,0.1767 1.61313,0.2833c2.11837,0.42136 4.65564,1.08307 6.98223,1.39206l0.00114,-0.00287zM231.53471,86.13481c-2.25887,-0.33643 -4.64995,-0.943 -6.68117,-1.347c-0.43985,-0.08749 -0.88117,-0.16127 -1.32334,-0.23445c0.02166,1.44928 0.13223,2.99993 0.68139,4.30267c0.30209,0.71661 0.88416,1.82988 1.04946,2.1957c2.16041,-0.69631 4.53727,0.07071 6.64125,0.45109c0.76359,0.13805 1.5277,0.2707 2.28942,0.41879c-0.08901,-0.0767 -0.1646,-0.16099 -0.21903,-0.24707c-0.87865,-1.74769 -1.808,-3.42018 -2.54833,-5.26089z" stroke="none"/><path d="M231.46994,86.38125c0.74034,1.84072 1.67054,3.5768 2.54919,5.32449c0.05444,0.08608 0.1296,0.17096 0.21861,0.24764c-0.76171,-0.14809 -1.53376,-0.27165 -2.29735,-0.4097c-2.10399,-0.38038 -4.56291,-1.15384 -6.72332,-0.45752c-0.1653,-0.36583 -0.75885,-1.50611 -1.06094,-2.22275c-0.54916,-1.30275 -0.65022,-2.89254 -0.67187,-4.34184c0.44217,0.07317 0.88711,0.14229 1.32698,0.22979c2.0312,0.40402 4.50855,1.01247 6.76742,1.34891z" data-paper-data="{&quot;noHover&quot;:false,&quot;origItem&quot;:[&quot;Path&quot;,{&quot;applyMatrix&quot;:true,&quot;segments&quot;:[[[208.77553,154.09602],[0,0],[-0.78423,1.96058]],[[206.07607,159.69952],[0.93076,-1.86151],[-0.05766,0.09169]],[[205.84406,159.96268],[0.09428,-0.08168],[0.80689,-0.15773]],[[208.26925,159.51662],[-0.80888,0.14704],[2.22875,-0.40515]],[[215.30432,159.03616],[-2.28854,-0.74167],[0.1751,-0.38964]],[[216.41601,156.69746],[-0.32001,0.7633],[0.58173,-1.38759]],[[217.13781,152.11457],[-0.02294,1.54367],[-0.46839,0.07792]],[[215.736,152.36429],[0.46595,-0.09319],[-2.15166,0.43033]],[[208.65864,153.79903],[2.39282,-0.35835],[0,0]]],&quot;closed&quot;:true}],&quot;origPos&quot;:null}" stroke="#ffdaa1"/></g><path d="M260.98132,81.86498c-0.0686,0.01705 -0.13718,0.03411 -0.20578,0.05117c-1.65246,0.34274 -3.18656,0.5399 -4.49036,1.83658c-0.97563,0.92139 -2.08892,2.68205 -3.41986,3.1479l0.07588,0.07546l-0.30867,0.30698c-0.07448,0.07407 -0.17737,0.11988 -0.29102,0.11988c-0.22731,0 -0.41156,-0.18326 -0.41156,-0.40931v-0.40931c0,-0.06822 0,-0.13644 0,-0.20466c0,-1.90313 0.36728,-3.50236 1.76681,-4.89422c1.35553,-1.34813 2.96835,-2.35867 4.82132,-2.81938c1.96534,-0.32618 2.30538,0.88675 3.33371,2.59125c0,0 0.21175,0.35097 -0.14117,0.56158c-0.35292,0.21058 -0.56467,-0.1404 -0.56467,-0.1404c-0.01895,-0.03138 -0.03812,-0.06273 -0.0575,-0.09401l-0.04715,0.12345l0.01873,0.04596c0,0 -0.01214,-0.00402 -0.03141,-0.01277z" data-paper-data="{&quot;origPos&quot;:null,&quot;index&quot;:null}" fill="url(#color-4)" stroke="none" stroke-width="0.5" stroke-linecap="butt"/><path d="M239.71779,82.2106c-0.01927,0.00875 -0.0314,0.01277 -0.0314,0.01277l0.01873,-0.04595l-0.04714,-0.12345c-0.01938,0.03129 -0.03856,0.06262 -0.05749,0.09403c0,0 -0.21175,0.35097 -0.56467,0.14039c-0.35293,-0.21059 -0.14118,-0.56159 -0.14118,-0.56159c1.02835,-1.70452 1.36838,-2.91743 3.33372,-2.59125c1.85297,0.46072 3.46579,1.47128 4.82131,2.81939c1.39953,1.39186 1.76683,2.99108 1.76683,4.89422c0,0.06822 0,0.13643 0,0.20465v0.40932c0,0.22606 -0.18428,0.40931 -0.41157,0.40931c-0.11364,0 -0.21653,-0.04582 -0.29101,-0.11989l-0.30868,-0.30698l0.07588,-0.07547c-1.33094,-0.46585 -2.44425,-2.2265 -3.41986,-3.14789c-1.30379,-1.29667 -2.8379,-1.49385 -4.49036,-1.83658c-0.06859,-0.01705 -0.13719,-0.03411 -0.20578,-0.05117z" data-paper-data="{&quot;origPos&quot;:null,&quot;index&quot;:null}" fill="#ffc400" stroke="none" stroke-width="0.5" stroke-linecap="butt"/><path d="M250.07318,93.06024c0.44779,0.14845 0.29853,0.59378 0.29853,0.59378l-0.02561,0.41356c-0.15618,0.31064 -0.2637,0.63081 -0.38847,0.94853c0.9262,-0.06142 2.32922,-0.28041 3.17216,-0.0913c-0.32261,-0.39491 -0.61707,-0.81877 -0.81207,-1.30357c-0.56319,-1.4244 -1.09577,-3.38941 -1.09577,-4.92731c0,0 0.00001,-0.46943 0.47201,-0.46943c0.47201,0 0.472,0.46943 0.472,0.46943c0,1.4342 0.48562,3.24711 1.02827,4.57861c0.16908,0.42038 0.55454,1.09247 0.93597,1.44819l0.02158,-0.02146l0.35401,0.35207c0.08541,0.08495 0.13824,0.20229 0.13824,0.33192c0,0.25926 -0.21133,0.46943 -0.472,0.46943h-0.47201v-0.17462c-1.14796,0.50238 -2.91279,0.29198 -4.13009,0.29198l0.08981,-0.30962c0,0 -0.16069,0.4414 -0.60451,0.28158c-0.44383,-0.15981 -0.28313,-0.6012 -0.28313,-0.6012l0.0871,-0.0338c-0.00427,-0.13805 0.05253,-0.25104 0.05253,-0.25104c0.23291,-0.46325 0.35579,-0.94238 0.59003,-1.40829l-0.02562,-0.29057c0,0 0.14926,-0.44534 0.59705,-0.29689z" data-paper-data="{&quot;origPos&quot;:null,&quot;index&quot;:null}" fill="#ceb082" stroke="none" stroke-width="0.5" stroke-linecap="butt"/><path d="M238.80162,91.33446c0.0052,0.01989 0.01053,0.04056 0.01596,0.06217c0,0 -1.04793,-0.30492 -1.04793,-0.59029c0.18516,-1.58778 -0.04306,-3.05514 0.3681,-4.69078c0,0 0.00453,-0.018 0.01538,-0.04595c-0.03472,-0.07879 -0.04729,-0.1792 -0.01538,-0.30613c0.11447,-0.4554 0.5724,-0.34155 0.5724,-0.34155l0.12153,-0.01401c0.65368,0 1.2462,0.03136 1.88451,0.19006c1.48952,0.37035 2.8545,0.98916 4.28137,1.38276c0.41895,-0.20435 0.62843,0.21232 0.62843,0.21232c0.60295,1.1993 0.63985,2.41884 0.63985,3.73065v0.23472c0,0 0.06721,0.39133 -0.39914,0.4638c-0.10138,0.01575 -0.18442,0.00275 -0.25232,-0.02727c-0.09431,0.03289 -0.17455,0.0329 -0.17455,0.0329c-1.63106,0 -3.20676,-0.35207 -4.83812,-0.35207c-0.60277,0 -1.21168,-0.04705 -1.80008,0.05868z" data-paper-data="{&quot;origPos&quot;:null,&quot;index&quot;:null}" fill="#ffffff" stroke="none" stroke-width="0.5" stroke-linecap="butt"/><path d="M242.44897,87.28392c0.74962,0 1.35731,0.66548 1.35731,1.4864c0,0.82092 -0.60767,1.4864 -1.35731,1.4864c-0.74962,0 -1.35731,-0.66548 -1.35731,-1.4864c0,-0.82092 0.60768,-1.4864 1.35731,-1.4864z" data-paper-data="{&quot;origPos&quot;:null,&quot;index&quot;:null}" fill="#000000" stroke="#00ffff" stroke-width="1" stroke-linecap="butt"/><path d="M261.2929,91.33447c-0.58841,-0.10573 -1.19732,-0.0587 -1.80009,-0.0587c-1.63137,0 -3.20707,0.35207 -4.83812,0.35207c0,0 -0.08023,-0.00001 -0.17453,-0.0329c-0.06789,0.03002 -0.15095,0.04303 -0.25232,0.02728c-0.46635,-0.07246 -0.39915,-0.4638 -0.39915,-0.4638v-0.23472c0,-1.31181 0.0369,-2.53135 0.63984,-3.73064c0,0 0.2095,-0.41666 0.62844,-0.21232c1.42687,-0.39359 2.79184,-1.01241 4.28136,-1.38276c0.63831,-0.15869 1.23083,-0.19005 1.88452,-0.19005l0.12152,0.01401c0,0 0.45793,-0.11386 0.5724,0.34155c0.0319,0.12693 0.01934,0.22735 -0.01538,0.30613c0.01085,0.02795 0.01538,0.04594 0.01538,0.04594c0.41117,1.63564 0.18297,3.10301 0.36811,4.69078c0,0.28537 -1.04793,0.59029 -1.04793,0.59029c0.00543,-0.02164 0.01075,-0.04227 0.01596,-0.06217z" data-paper-data="{&quot;origPos&quot;:null,&quot;index&quot;:null}" fill="#ffffff" stroke="none" stroke-width="0.5" stroke-linecap="butt"/><path d="M257.05521,87.3948c0.74962,0 1.35731,0.66548 1.35731,1.4864c0,0.82092 -0.60767,1.4864 -1.35731,1.4864c-0.74964,0 -1.35733,-0.66548 -1.35733,-1.4864c0,-0.8209 0.60769,-1.4864 1.35733,-1.4864z" data-paper-data="{&quot;origPos&quot;:null,&quot;index&quot;:null}" fill="#000000" stroke="#00ffff" stroke-width="1" stroke-linecap="butt"/><path d="M231.04015,84.40928c1.04988,-0.25405 2.08034,-0.27362 3.11446,-0.47932c0.95561,-0.16716 1.59898,-0.20293 2.07137,0.86093c0.02686,0.06051 -0.35926,1.01129 -0.35926,1.20746c0,1.3399 0,2.67979 0,4.01969c0,2.40257 0,4.80515 0,7.20772c-0.1017,2.23402 0.74672,5.30478 1.75299,7.3063c0.71237,1.41692 2.09059,3.75065 2.09059,5.34726c0,0.38572 -0.45075,0.65296 -0.77737,0.86093c-0.30797,0.19608 -1.09865,-0.13862 -1.46342,-0.13862c-2.82131,-0.09657 -4.22843,-3.56694 -5.30699,-5.71228c-1.07722,-2.17176 -1.21553,-4.36524 -1.78437,-6.62816c-0.18347,-0.73617 -0.55849,-1.46434 -0.64382,-2.21364c-0.18702,-1.64251 0.27875,-3.24897 0.27875,-4.85135c0.05933,-2.11509 0.55748,-4.10865 0.55748,-6.23746c0,0 0.00001,-0.49452 0.46959,-0.5495z" data-paper-data="{&quot;origPos&quot;:null,&quot;index&quot;:null}" fill="#ffc400" stroke="none" stroke-width="0.5" stroke-linecap="butt"/><path d="M237.0722,80.39257c0.0302,-0.02706 0.06734,-0.05237 0.11275,-0.07497c0.34005,-0.16908 0.5255,0.12308 0.55634,0.17749l0.0378,0.01129c0,0 0.11548,0.11486 0.12992,0.27278c0.75401,1.15252 2.86902,3.43108 0.1319,3.43108c-0.70068,0 -1.15669,0.62037 -1.75609,0.91483c-0.93043,0.45709 -2.19511,0.41582 -3.20557,0.41582c-1.19493,0 -2.31842,-0.44355 -3.51218,-0.44355c-0.23359,0 -0.84177,-0.18151 -0.85314,-0.45446c-0.03834,-0.91985 0.42779,-0.98843 0.94774,-1.53063c1.74173,-1.7322 3.25711,-1.98321 5.56555,-2.44237c0.60773,-0.12088 1.22549,-0.24514 1.84498,-0.27731z" data-paper-data="{&quot;origPos&quot;:null,&quot;index&quot;:null}" fill="#ddaa00" stroke="none" stroke-width="0.5" stroke-linecap="butt"/><path d="M242.93219,71.49291c-0.1085,-0.16372 -0.08821,-0.30111 -0.03647,-0.40062c-0.00088,-0.00213 -0.00176,-0.00428 -0.00263,-0.00644c-0.15528,-0.38608 0.23293,-0.54052 0.23293,-0.54052c1.56812,-0.62382 2.79638,-1.87838 4.31672,-2.64716c0.07433,-0.03696 0.14866,-0.07393 0.22299,-0.11089l0.29093,-0.09136c0.04124,-0.02354 0.08361,-0.03832 0.12059,-0.04764c0.05223,-0.01526 0.1196,-0.02645 0.19068,-0.01588c1.64715,-0.00352 3.34512,-0.11038 4.96295,0.17449c2.20927,0.43945 4.09695,1.55695 5.93747,2.76948c2.1418,1.44618 3.44118,3.51215 4.53978,5.77759c1.04086,2.17721 0.68484,4.54917 1.11449,6.81767c0.02225,0.13278 0.03967,0.26669 0.05032,0.40103h0.01112v0.44354c0,0.22966 -0.18719,0.41584 -0.41811,0.41584c-0.09565,0 -0.18381,-0.03194 -0.25426,-0.08568l-0.44262,-0.33015l0.06069,-0.08047c-1.64526,-0.48085 -3.51692,-2.3997 -4.74362,-3.30161c-1.86635,-1.39212 -4.02957,-2.37427 -5.90938,-3.7702c-1.46024,-1.0892 -3.17042,-2.36861 -4.84203,-3.12105c-1.57598,-0.78369 -3.21518,-1.53769 -4.93183,-1.96451l0.10851,-0.1671c0,0 -0.34911,0.22885 -0.57921,-0.11836z" data-paper-data="{&quot;origPos&quot;:null,&quot;index&quot;:null}" fill="#ffc400" stroke="none" stroke-width="0.5" stroke-linecap="butt"/><path d="M241.24395,73.65769c0.00976,0.08725 -0.00108,0.15814 -0.02423,0.21566c0.01414,0.03924 0.02112,0.07851 0.02396,0.11429c0.00187,0.01596 0.00283,0.03219 0.00283,0.04864c0,0.03805 -0.00514,0.0749 -0.01476,0.1099l-0.10924,0.43449l-0.00089,-0.00022c-0.37979,1.48162 -0.7545,2.74466 -1.48024,4.18819c-0.7177,1.42758 -1.9961,4.19439 -3.6175,4.59752c-1.17512,0.29216 -5.97983,0.97947 -4.39408,-1.48457c0.97068,-1.28719 1.64049,-3.35045 2.35773,-4.92644c0.56482,-1.12345 1.3489,-2.33865 2.45463,-3.01551c0.0691,-0.13265 0.20113,-0.18083 0.28794,-0.19835c0.12388,-0.12087 0.30735,-0.12087 0.30735,-0.12087l0.00912,0.10854c1.19511,-0.02375 2.34896,-0.21943 3.55882,-0.21943l0.17683,-0.21924c0,0 0.41555,-0.04591 0.46173,0.36737z" data-paper-data="{&quot;index&quot;:null,&quot;origPos&quot;:null}" fill="#ffc400" stroke="none" stroke-width="0.5" stroke-linecap="butt"/><path d="M242.61392,70.01871c0.02319,0.03117 0.04128,0.06157 0.05506,0.09109c0.92502,0.09833 1.63301,0.36945 2.6092,0.58451c0.31386,0.06914 0.57603,0.25195 0.81844,0.45885c0.05659,0.0483 0.34393,0.43762 0.40802,0.31737c1.56181,0.38832 4.2677,2.09973 5.06699,3.48865c0.86201,1.71456 1.04386,3.5247 1.32217,5.39435c0.04181,0.29108 0.7119,2.85657 -0.47975,2.29187c-1.02964,-0.48793 -1.81571,-2.05998 -2.80524,-2.78752c-1.83398,-1.36796 -3.4442,-3.13165 -5.64655,-3.99399c-1.99213,-0.79249 -3.42226,-1.4118 -5.64261,-1.4118c-0.29846,0 -0.56118,0.02242 -0.82407,0.06402l0.00857,0.02552l-0.26208,0.08688l0.00828,0.03293l-0.43528,0.10823c-0.0805,0.02572 -0.18688,0.03748 -0.29286,-0.01655c-0.07243,-0.03056 -0.14246,-0.08803 -0.19129,-0.19115c-0.05713,-0.09883 -0.06446,-0.18885 -0.04824,-0.26541c0.01628,-0.11894 0.08854,-0.19955 0.15661,-0.2504c0.00459,-0.00371 0.00926,-0.00732 0.01401,-0.01084l0.14825,-0.18071c0.21722,-0.05399 0.4252,-0.10003 0.63171,-0.1366c1.27833,-0.56984 2.21062,-1.44332 3.24374,-2.47078c0.26763,-0.26616 0.66727,-0.54641 1.04841,-0.7723c0.00506,-0.2382 0.1502,-0.33559 0.26803,-0.37541c0.04655,-0.0178 0.09709,-0.02753 0.14995,-0.02753h0.06212l0.02366,-0.14022c0,0 0.33608,-0.24734 0.5848,0.08692z" data-paper-data="{&quot;origPos&quot;:null,&quot;index&quot;:null}" fill="#ffd13a" stroke="none" stroke-width="0.5" stroke-linecap="butt"/><path d="M248.48787,119.43357c1.04927,-1.47347 3.76461,-6.21926 3.76461,-6.21926l0.02507,0.03791c0.44048,-0.92727 1.55167,-0.72633 1.55167,-0.72633c5.36053,0.96931 10.38114,3.05239 15.39803,5.12281c2.98767,1.23299 5.54929,2.71988 5.92552,2.77412c0.12542,0.01808 5.43529,3.63054 5.47201,4.61133c0.02539,0.67828 6.10795,14.0715 5.83471,14.70237c-0.22402,0.5172 -6.15307,-2.06368 -9.83721,-1.64272c-3.68414,0.42096 -8.07185,3.74786 -8.70918,3.7619c-0.9624,0.02121 0.54003,-4.11195 -0.39503,-4.33947c-2.47472,-0.70319 0.24526,-0.48872 -2.1467,-1.43609c-0.53729,-0.2128 -1.06357,-0.37911 -1.62976,-0.46536c0.56693,0.5805 -0.00887,1.63174 -0.00887,2.44577c0,1.92527 0,3.85052 0,5.7758c0,1.3615 -0.16948,2.83599 0,4.18747c0.71313,5.6867 2.9038,11.11959 2.9038,16.89424c0,1.29956 1.84397,5.34924 1.45189,5.63141c-3.02087,2.17401 -6.66467,0.48996 -9.75124,-0.36288c-2.93879,-0.812 -5.94691,-1.08107 -8.97819,-1.08107c-2.38578,0 -4.4484,1.13658 -6.79932,1.40957c-4.9344,0.57297 -15.52039,0.61197 -20.49629,0.61197c-2.69541,0 3.8617,-11.57215 3.89543,-12.11278c0.1012,-1.62189 0.31506,-5.38349 0.31506,-12.00122c0,-1.66637 0.02878,-2.60334 0.03742,-4.26969c0.01473,-2.84112 0.117,-4.44918 -0.17469,-7.27547c-0.12936,-1.25347 -0.50698,-2.32744 -0.69082,-3.55613c-0.04892,-0.32692 -0.03684,-0.65987 -0.04154,-0.99069c-0.01638,0.02308 -0.03917,0.04209 -0.07007,0.05608c-0.29551,0.13369 -0.56337,-0.3304 -0.87113,-0.43319c-0.56235,-0.18783 -1.36719,-0.15489 -1.96409,-0.13634c-2.08104,0 -4.1621,0 -6.24314,0c-0.55946,0 -6.01348,-1.1041 -6.46104,-1.54611c0.80732,-2.86474 0.64961,-1.80996 1.13516,-5.85103c-0.07484,-0.63299 1.91872,-8.31396 2.38627,-8.96547c2.09586,-1.25064 9.70461,-2.25433 11.9262,-2.39992c3.042,-0.19935 6.11438,0.2142 9.14693,-0.1444c2.86395,-0.31648 6.04796,0.61194 8.14575,2.92719c0.98471,1.08679 1.57372,1.63663 2.4065,2.81884c0.16043,0.22773 0.95729,1.09607 1.05027,1.28484c0.40416,0.82064 0.34409,1.62412 0.8372,2.32504c0.15108,0.21475 0.28923,0.43851 0.4314,0.65938c0.20311,-0.11522 0.40603,-0.23068 0.56723,-0.39594c0.06003,-0.06154 0.4626,-1.409 0.66017,-1.68645z" data-paper-data="{&quot;origPos&quot;:null,&quot;index&quot;:null}" fill="#3eaf00" stroke="none" stroke-width="0.5" stroke-linecap="butt"/><path d="M236.5361,112.61592c0.07966,-1.44178 1.52937,-1.36256 1.52937,-1.36256l0.81731,0.2823c1.95213,0.72804 4.3253,1.17428 5.85019,2.69083c0.46973,0.46716 0.55418,1.20127 0.80704,1.81218c0.57695,1.39391 1.10942,2.80427 1.6993,4.19409c0.25538,-1.03148 0.46417,-2.04949 1.00655,-3.01323c1.03487,-1.83881 2.23194,-3.91625 4.25889,-4.81318c0.62758,-0.27769 2.19763,-0.0919 2.91728,-0.18137c0,0 1.44069,-0.1791 1.62077,1.25371c0.18008,1.43282 -1.26059,1.6119 -1.26059,1.6119c-0.75409,0.09375 -2.70224,-0.13571 -3.27744,0.20368c-0.12348,0.07286 -0.13961,0.66859 -0.32845,0.92477c-0.49596,0.67282 -1.14599,1.9239 -1.60741,2.73324c-0.59547,1.04452 -0.64333,2.55135 -1.06037,3.68371c-0.09481,0.25744 -0.02337,0.70199 -0.29038,0.77011c-2.80992,0.71685 -3.36328,0.18847 -4.53301,-1.76722c-0.65383,-1.51727 -1.23254,-3.06145 -1.86401,-4.58617c-0.2311,-0.55798 -0.31259,-1.2266 -0.74166,-1.6533c-0.08832,-0.08785 -3.10224,-0.74423 -4.21627,-1.15971l0.04297,-0.10276c0,0 -1.4497,-0.0792 -1.37006,-1.52099z" data-paper-data="{&quot;origPos&quot;:null,&quot;index&quot;:null}" fill="#ffffff" stroke="none" stroke-width="0.5" stroke-linecap="butt"/><path d="M225.98194,155.80336v-3.44299h38.912v3.44299z" data-paper-data="{&quot;origPos&quot;:null,&quot;index&quot;:null}" fill="#8e4b14" stroke="none" stroke-width="0" stroke-linecap="butt"/><path d="M239.82963,156.2165v-4.2693h10.24729v4.2693z" data-paper-data="{&quot;origPos&quot;:null,&quot;index&quot;:null}" fill="#ffe300" stroke="none" stroke-width="0" stroke-linecap="butt"/><path d="M260.2197,114.2404c-0.08069,1.33025 -0.4993,2.10368 -0.4993,2.10368c0,0 -0.87733,4.97302 -1.79094,7.09314c-0.71302,1.58524 -0.9398,3.34537 -1.67546,4.92398c-2.20494,4.7314 -5.04078,8.59651 -8.9362,12.00918c-1.32304,1.15907 -6.97994,4.22657 -8.12587,4.69188c-1.89628,0.76998 -3.56104,1.26511 -5.60728,1.77275c-2.08872,0.51818 -5.34787,0.32245 -7.48501,0.32245l0.11615,-3.46549c1.52774,0 4.05524,0.13409 5.57528,0c2.07229,-0.18282 4.00926,-0.87963 5.8404,-1.60134c1.46402,-0.57701 6.35997,-3.40699 7.37133,-4.31039c0.78176,-0.69831 1.8377,-1.366 2.58392,-2.11593c2.38227,-2.39415 4.19306,-5.96956 5.62125,-8.9861c0.68032,-1.43691 0.90021,-3.12813 1.51869,-4.6061c0.93856,-2.17799 1.14131,-4.44276 2.2209,-6.59013l0.34384,-2.08467c0,0 2.93818,0.6801 2.9283,0.84313z" data-paper-data="{&quot;origPos&quot;:null,&quot;index&quot;:null}" fill="#8e4b14" stroke="none" stroke-width="0.5" stroke-linecap="butt"/><path d="M263.87796,147.94612c-0.01864,0.33696 -2.54484,0.02098 -2.78682,-0.00307c-6.24646,-0.8106 -11.72414,-3.61021 -16.37422,-7.72103c0,0 -0.91503,-0.66984 0.24248,-1.96491c1.15751,-1.29508 2.07253,-0.62523 2.07253,-0.62523c3.35639,2.96714 6.94001,5.24574 11.40346,6.17077c0.97537,0.20214 2.00955,0.67288 3.00247,0.69212c0.24198,0.02407 0.48397,0.04814 0.72595,0.0722l1.68435,0.13575c0,0 0.12549,1.51327 0.02981,3.2434z" data-paper-data="{&quot;origPos&quot;:null,&quot;index&quot;:null}" fill="#8e4b14" stroke="none" stroke-width="0.5" stroke-linecap="butt"/><path d="M246.34407,140.43115c-0.72166,0 -1.30669,-0.58184 -1.30669,-1.29956c0,-0.71771 0.58503,-1.29955 1.30669,-1.29955c0.72167,0 1.30671,0.58184 1.30671,1.29955c0,0.71771 -0.58504,1.29956 -1.30671,1.29956z" data-paper-data="{&quot;origPos&quot;:null,&quot;index&quot;:null}" fill="#ffe300" stroke="none" stroke-width="0.5" stroke-linecap="butt"/><g data-paper-data="{&quot;origPos&quot;:null}" stroke="none" stroke-width="0.5" stroke-linecap="butt"><path d="M226.63321,233.44465c-0.07115,2.61828 -2.70384,2.54752 -2.70384,2.54752l-0.45557,0.00096c-3.86268,0 -7.72537,0 -11.58805,0c-2.16236,0 -4.48714,0.21704 -6.62685,-0.13441c-0.79844,-0.13114 -3.86915,-0.32057 -4.69782,-0.38943c-2.68442,-0.22306 -3.10219,-0.26192 -5.79402,-0.26192c0,0 -2.63364,0 -2.63364,-2.61924c0,-2.61924 2.63364,-2.61924 2.63364,-2.61924c2.69206,0 5.47958,-0.22217 8.16429,0c1.41716,0.11729 2.62676,0.68704 3.99321,0.92018c1.10255,0.18813 3.51355,-0.13441 4.96119,-0.13441c3.86268,0 7.72537,0 11.58805,0l0.59788,0.00096c0,0 2.63269,0.07077 2.56153,2.68905z" data-paper-data="{&quot;origPos&quot;:null}" fill="#bd6c2a"/><path d="M234.79849,200.63339c-0.05519,1.91662 -0.19325,3.00863 -1.84355,4.4527c-0.39545,0.34604 -1.05346,0 -1.58019,0c-0.07539,0 -0.16816,0.02106 -0.26336,0.04508c0,0.2469 0,0.49379 0,0.74069c0,1.04769 -2.70734,25.9374 -4.4772,27.50202c-0.5249,0.46402 -32.26117,0.9961 -34.50075,-0.78576c-0.18494,-0.14715 0,-2.08245 0,-2.3573c0,-2.70147 0.03578,-5.57781 2.57762,-7.29478c0.30541,-0.2063 5.44755,-1.48539 6.84749,-1.83346c6.44932,-1.41415 8.70054,1.72058 11.44826,-6.47749c0.37349,-0.70894 0.12469,-1.47607 0.23511,-2.26081c0.18462,-1.31212 1.13424,-10.039 1.55988,-10.65359c-0.5913,-0.27883 -1.17153,-0.59877 -1.59919,-1.07728c-0.2333,-0.26102 0.70368,-7.3574 1.31682,-8.11965c0.16452,-0.20452 0.52687,-0.00886 0.79009,0c1.25668,0.0423 17.06946,0.99713 18.76396,2.82138c0.86619,0.9325 0.72502,3.90134 0.72502,5.29827z" data-paper-data="{&quot;origPos&quot;:null}" fill="#8e4b14"/></g><g data-paper-data="{&quot;origPos&quot;:null,&quot;index&quot;:null,&quot;origRot&quot;:0}" stroke="none" stroke-width="0.5" stroke-linecap="butt"><path d="M235.45913,221.40369l0.4192,0.41515c2.70389,2.68645 26.37949,9.06623 28.26394,10.93852c0,0 0.93683,0.56919 -0.90492,2.40267c-1.84175,1.83348 -17.72772,1.74025 -18.37883,1.27676c-1.74493,-1.24214 -3.03832,-1.38773 -4.552,-2.89163c-2.70389,-2.68645 -5.4078,-5.37291 -8.11169,-8.05937l-0.31823,-0.3175c0,0 -1.89265,-1.78147 -0.10138,-3.66377c1.79127,-1.88229 3.68393,-0.10083 3.68393,-0.10083z" data-paper-data="{&quot;origPos&quot;:null}" fill="#bd6c2a"/><path d="M253.36413,189.65305c2.46892,-0.09847 14.20932,10.23076 15.11874,11.07515c0.19049,0.17686 0.58173,0.29192 0.55307,0.54951c-0.10678,0.96 -4.44079,6.57916 -4.78763,6.59962c-0.63583,0.03751 -1.26697,-0.14207 -1.87695,-0.35813c-0.13421,0.72624 -5.60588,7.49555 -6.39926,8.54245c-0.47451,0.62611 -1.1881,0.99008 -1.42514,1.74609c-3.84115,7.6497 -1.14914,2.33184 5.81664,5.10189c3.81811,1.578 5.06745,4.06577 5.13617,4.42259c0.57198,2.96973 0.388,4.8277 -1.51159,6.71875c-0.19328,0.19241 -18.28986,0.41326 -18.5228,0.38764c-2.82066,-0.31029 -13.59994,-12.2944 -13.6411,-12.9843c-0.13875,-2.32617 15.46759,-21.632 16.20428,-22.36539c0.17361,-0.17283 0.34722,-0.34567 0.52082,-0.5185c-0.04976,-0.08302 -0.09987,-0.16229 -0.15266,-0.21473c-0.36872,-0.36634 -1.07264,-0.58174 -1.10613,-1.099c-0.1398,-2.15863 0.53141,-3.01906 1.84047,-4.39909c0.98227,-0.97786 2.97104,-3.15423 4.23306,-3.20457z" data-paper-data="{&quot;origPos&quot;:null}" fill="#8e4b14"/></g><path d="M244.82424,100.85288c0,0 3.0131,-0.15104 4.37522,-0.0571c1.63579,0.11281 4.76968,0.68778 4.76968,0.68778" fill="none" stroke="#000000" stroke-width="1" stroke-linecap="round"/><g stroke="none" stroke-width="0" stroke-linecap="butt"><path d="M246.02512,164.65122l5.09035,-5.67621l2.48334,2.22703l-5.09035,5.67621z" fill="#284a9f"/><path d="M246.90633,162.24111l12.72589,-14.19052l3.90239,3.49962l-12.72589,14.19052z" fill="#3c70f1"/><path d="M257.03211,149.87933l2.70425,-3.01549l4.96668,4.45406l-2.70425,3.01549z" fill="#284a9f"/><path d="M260.83746,145.15039l52.00042,-57.98521l10.82205,-7.00912l-5.90475,11.4189l-52.00042,57.98521z" fill="#d2d2d2"/><path d="M266.17689,136.50177l4.66917,-5.20655l7.6474,6.85809l-4.66917,5.20655z" fill="#d2d2d2"/><path d="M260.0362,146.17262l4.45406,-4.96668c0,0 1.14632,2.30815 2.02443,3.09563c0.76047,0.68198 2.94225,1.35843 2.94225,1.35843l-4.45406,4.96668z" fill="#3c70f1"/><path d="M265.6941,150.92652c0,0 2.38079,1.47929 5.42787,0.41007c2.76535,-0.97036 3.3875,-2.74573 3.3875,-2.74573l9.22384,8.27183c0,0 -1.98682,2.05807 -7.31025,2.42875c-4.00361,0.27878 -8.38068,-2.41857 -8.38068,-2.41857z" fill="#3c70f1"/><path d="M253.84922,144.09848c0,0 -3.15638,-4.05854 -3.31366,-8.06876c-0.20913,-5.33223 1.6212,-7.53063 1.6212,-7.53063l9.22384,8.27183c0,0 -1.69738,0.81112 -2.36195,3.66543c-0.73227,3.1451 0.99661,5.35133 0.99661,5.35133z" data-paper-data="{&quot;index&quot;:null}" fill="#3c70f1"/><path d="M253.85185,144.14698l2.70425,-3.01549l14.01314,12.56681l-2.70425,3.01549c0,0 -1.23821,-2.7106 -6.30718,-7.25639c-4.39715,-3.94331 -7.70596,-5.31042 -7.70596,-5.31042z" fill="#3c70f1"/><path d="M262.36835,144.90368l3.56865,-0.19419l0.19419,3.56865l-3.56865,0.19419z" fill="#fff300"/></g><g data-paper-data="{&quot;index&quot;:null}" stroke="none" stroke-width="0.5" stroke-linecap="butt"><path d="M219.67203,115.3281c1.14978,1.173 1.73465,2.4577 1.96526,3.80822c0.24084,0.99748 0.28552,2.0604 0.09774,3.13683c-0.06101,0.34972 -0.14463,0.68978 -0.24908,1.01895c-0.50937,2.77095 -1.56193,5.61812 -1.64352,8.21192c-0.05288,1.68102 0.76896,3.2916 1.44297,4.82961c0.52694,1.20238 2.93573,2.38468 4.24753,2.63706c3.91333,0.75287 12.19602,5.75525 15.95876,8.54837c4.6005,3.41498 5.11301,8.00035 -0.37204,9.65588c-4.23537,1.27834 -7.04077,-1.02364 -10.8967,-1.77679c-7.46354,-1.45782 -12.53654,-1.96417 -18.25869,-6.86231c-1.65636,-1.41783 -3.60664,-2.82304 -4.57133,-4.81922c-0.85351,-1.76614 -1.36051,-4.76629 -1.83028,-6.43409c-0.62261,-2.21036 -1.31271,-4.60634 -1.0408,-6.94386c0.22639,-1.94613 0.85939,-3.82316 1.28291,-5.73609c0.21221,-0.95843 0.41196,-2.45658 0.75989,-4.0375c0.01651,-0.3048 0.05121,-0.61188 0.10498,-0.92011c0.18847,-1.08037 0.59269,-2.06868 1.16031,-2.92788c0.79867,-1.59021 1.95894,-2.7994 3.71454,-2.9625c1.2298,-0.46171 2.59362,-0.61138 3.97918,-0.36966c0.94507,0.16487 1.81896,0.49765 2.59669,0.96257c0.57848,0.23973 1.11666,0.53678 1.5517,0.9806z" data-paper-data="{&quot;origPos&quot;:null,&quot;index&quot;:null}" fill="#ffdaa1"/><path d="M219.67205,115.32811c1.14978,1.173 1.73465,2.4577 1.96526,3.80822c0.24084,0.99748 0.28552,2.0604 0.09774,3.13683c-0.06101,0.34972 -0.14463,0.68978 -0.24908,1.01895c-0.50937,2.77095 -1.56193,5.61812 -1.64352,8.21192c-0.05288,1.68102 0.76896,3.2916 1.44297,4.82961c0.33998,0.7758 1.46341,1.54325 2.57012,2.05793c-3.39763,0.92801 -6.7869,1.9071 -9.90924,3.52561c-1.62179,0.84067 -3.53527,2.08013 -4.43891,3.7481c-0.09049,0.16701 -0.17974,0.335 -0.26771,0.50387c-0.7422,-0.73074 -1.40012,-1.52829 -1.84676,-2.45251c-0.85351,-1.76614 -1.36051,-4.76629 -1.83028,-6.43409c-0.62262,-2.21037 -1.31272,-4.60634 -1.04081,-6.94386c0.22639,-1.94613 0.85939,-3.82316 1.28291,-5.73609c0.21221,-0.95843 0.41196,-2.45658 0.75989,-4.0375c0.01651,-0.3048 0.05121,-0.61188 0.10498,-0.92011c0.18847,-1.08037 0.59269,-2.06868 1.16031,-2.92788c0.79867,-1.59021 1.95894,-2.79939 3.71454,-2.9625c1.2298,-0.46171 2.59362,-0.61139 3.97918,-0.36967c0.94507,0.16487 1.81896,0.49765 2.59669,0.96257c0.57848,0.23973 1.11666,0.53678 1.5517,0.9806z" data-paper-data="{&quot;origPos&quot;:null,&quot;index&quot;:null}" fill="#a29c94"/><path d="M256.62542,169.47749c-0.11342,0.02647 -0.24626,0.03891 -0.39583,0.03856c-0.11088,0.0035 -0.22308,-0.00258 -0.33551,-0.0188c-2.34779,-0.23917 -6.84014,-2.51551 -7.89008,-3.95089c-2.34949,-3.21204 1.04198,-7.29312 1.70735,-10.45785c0.12229,-0.5816 -0.10499,-1.1426 0.14378,-1.7378c0.02985,-0.07141 0.45271,-0.72816 0.42683,-0.7713c-0.88371,-1.47361 -1.94036,-1.15692 -1.79811,-3.24438c0.18165,-2.66593 4.87548,-4.71003 6.9162,-5.81506c0.83993,-0.45481 4.40646,-0.04315 5.34794,-0.31454c1.67244,-0.48212 3.14313,1.87322 2.00562,3.21124c-0.53585,0.63032 -8.73998,2.67042 -8.76407,2.87148c-0.00094,0.00792 2.56212,-0.11487 2.73532,-0.1077c2.24944,0.09317 6.4603,-0.59361 7.60455,1.91272c0.34895,0.76431 -0.52679,2.05705 -1.22315,2.26088c-1.07158,0.31365 -8.42658,0.16568 -8.87776,1.01783c-0.00908,0.01714 2.02449,0.2953 2.30682,0.31935c0.95654,0.0815 8.13097,0.99128 7.50216,2.76472c-0.82635,2.33058 -5.16102,1.96427 -7.5128,1.40756c-0.81552,-0.19307 -1.1222,-0.05641 -1.96067,0.06282c-0.3516,0.05001 -1.37764,-0.06018 -1.06059,0.0992c1.63531,0.82203 8.84391,2.70781 8.10228,5.23408c-1.09389,3.72623 -8.20104,-1.13699 -10.46736,-1.38389c-0.47099,-0.05132 0.72256,0.627 1.14204,0.84731c1.03062,0.54127 2.04701,1.11743 3.11926,1.57023c0.93626,0.39535 1.96346,-0.06636 2.19733,0.92691c0.45456,0.48824 0.64694,1.19914 0.44461,1.88835c-0.1794,0.61111 -0.62909,1.06881 -1.17927,1.27976c-0.07392,0.03909 -0.15248,0.06954 -0.23686,0.08923z" data-paper-data="{&quot;origPos&quot;:null,&quot;origRot&quot;:0,&quot;index&quot;:null}" fill="#ffdaa1"/><path d="M231.46808,140.2802l0.36082,0.25162c0.17232,0.14576 0.38823,0.23575 0.60055,0.31177c1.88811,0.69309 3.53989,1.92654 5.58399,2.23226c1.67166,0.25004 3.56325,-0.15686 5.20494,0.32509c1.00776,0.39009 2.40677,0.05776 3.47899,0.15388c2.33894,0.20969 4.67353,0.22408 6.95347,0.86971c0.10718,0.0055 0.22215,0.03878 0.33094,0.12313c-0.48639,0.25487 -0.87331,0.70037 -1.04067,1.27047c-0.236,0.80389 -0.0869,1.75572 0.45352,2.39171c0.42155,0.49609 2.34469,1.21252 2.34469,1.21252c0,0 -1.30335,1.175 -1.46905,1.73943c-0.32621,1.11117 0.30521,2.27497 1.41031,2.59938c0.1347,0.03954 0.27021,0.06479 0.40494,0.07662c-0.09851,0.21708 -0.29887,0.36471 -0.52499,0.40104c0,0 -2.32661,1.44031 -2.51977,2.09825c-0.29517,1.00546 0.19376,2.05402 1.10823,2.48479c-0.02182,0.20339 -0.06607,0.4003 -0.14269,0.5838c-0.07915,-0.03448 -0.16131,-0.06438 -0.24629,-0.08934c-1.10511,-0.32442 -2.26541,0.31338 -2.59162,1.42457c-0.26799,0.91285 0.24856,1.78521 1.00482,2.27452c-0.23545,0.15219 -0.71595,0.57934 -0.82039,0.63128c-0.15579,0.07749 -1.9737,0.22776 -2.24485,1.15141c-0.18609,0.63386 -0.06055,1.28485 0.28677,1.78739c-0.13744,0.12621 -0.29491,0.24135 -0.47723,0.34207c-0.20092,0.11101 -1.3573,-0.39847 -1.60077,-0.46994c-1.55631,-0.45687 -3.1126,-0.91374 -4.6689,-1.37062c-3.82287,-1.12226 -7.63664,-2.95751 -9.22765,-6.78826l-0.20818,-0.06112c-2.76488,-0.81169 -5.38667,-1.86879 -8.13561,-2.67968c-0.03403,-0.00839 -0.06932,-0.01938 -0.10589,-0.0332c-0.21252,-0.08032 -0.32927,-0.20423 -0.39013,-0.33468c-0.06675,-0.1275 -0.09469,-0.29597 -0.03034,-0.51515c0.00599,-0.0204 0.0124,-0.04 0.01924,-0.05884l0.05952,-0.20942c0.34126,-1.16247 0.68253,-2.32495 1.02379,-3.48742c1.0847,-3.69491 1.92947,-7.27139 4.25011,-10.37196c0,0 0.33911,-0.45307 0.81191,-0.23813c0.32146,-0.13907 0.75351,-0.029 0.75351,-0.029z" data-paper-data="{&quot;origPos&quot;:null,&quot;origRot&quot;:0,&quot;index&quot;:null}" fill="#534b3f"/></g></g></g></svg>