<svg version="1.1" xmlns="http://www.w3.org/2000/svg" xmlns:xlink="http://www.w3.org/1999/xlink" width="439.0015" height="329.78119" viewBox="0,0,439.0015,329.78119"><defs><linearGradient x1="357.51161" y1="110.9729" x2="357.51161" y2="218.04365" gradientUnits="userSpaceOnUse" id="color-1"><stop offset="0" stop-color="#bd8cff"/><stop offset="1" stop-color="#e200ff"/></linearGradient><linearGradient x1="27.09016" y1="177" x2="347.07284" y2="177" gradientUnits="userSpaceOnUse" id="color-2"><stop offset="0" stop-color="#1c24ff"/><stop offset="1" stop-color="#a5d000"/></linearGradient><linearGradient x1="115.11188" y1="145.75" x2="115.11188" y2="285.74997" gradientUnits="userSpaceOnUse" id="color-3"><stop offset="0" stop-color="#ff66a1"/><stop offset="1" stop-color="#e0de51"/></linearGradient></defs><g transform="translate(-11.11187,-12.25)"><g data-paper-data="{&quot;isPaintingLayer&quot;:true}" fill-rule="nonzero" stroke-linejoin="miter" stroke-miterlimit="10" stroke-dasharray="" stroke-dashoffset="0" style="mix-blend-mode: normal"><path d="M279.11337,195.25l25.5,-45.5l23,-15c0,0 17.3052,-12.77004 29.5,-19c12.1948,-6.22996 9.87865,-3.65919 16.5,-4.5c6.62135,-0.84081 15,0.5 15,0.5c0,0 10.00435,0.50145 16,2.5c5.99565,1.99855 18.5,9 18.5,9c0,0 9.20793,5.5536 11,11.5c1.79207,5.9464 0,25 0,25l-7,18l-8,10l-17.5,11l-14.52131,19.29364" fill="none" stroke="url(#color-1)" stroke-width="32" stroke-linecap="round"/><path d="M347.07284,283.14055l-11.46097,21.60945l-7.5,10.5l-11,7.5l-17.5,3l-14.5,-3l-13.5,-8.5l-17,-15l-10,-19.5v-4l-2.5,-8.5l-1.5,-20l-0.44837,-5.29174l0.21968,-107.26026l-1.52131,-10.948l-4.5,-13l-7,-10l-7.5,-7l-16,-9l-16.5,-5.5h-13.75l-20,2.5c0,0 -15.264,3.03042 -24,7.5c-8.736,4.46958 -19,14.5 -19,14.5l-22.5,11l-18.5,2.5l-6.5,-1.5l-6,-1.5l-5,-2l-8.5,-5c0,0 -4.53245,-4.34701 -7,-7.5c-2.46755,-3.15299 -2,-4 -2,-4l-5.5,-12.5c0,0 -2.26597,-8.18059 -2,-13.5c0.26597,-5.31941 3.5,-16.5 3.5,-16.5l3.5,-6.5c0,0 3.65344,-5.80416 7,-8.5c3.34656,-2.69584 11,-6 11,-6c0,0 12.34874,-4 20.5,-4c8.15126,0 9.7241,1.02167 15,4c5.2759,2.97833 10.58083,7.38606 16,13.5c5.41917,6.11394 0.497,10.0015 0.497,10.0015l1,7.0015" fill="none" stroke="url(#color-2)" stroke-width="32" stroke-linecap="round"/><path d="M223.875,177.05h32.25v5.9h-32.25z" fill="#ffffff" stroke="none" stroke-width="1" stroke-linecap="butt"/><path d="M201.11188,197.75001h-14.5l-5.5,3.5l-22.5,17l-16.5,14.5l-23.5,21.5l-11,11l-13,10l-13.5,7.5l-13.5,3l-16.5,-6.5l-9.5,-10.5l-6,-15l-1.5,-19l1.5,-17.5l4,-15l6,-9l7,-7.5l15.5,-8l10.5,-1.5l14,-0.5l9.5,-4.5l6.5,-7l3,-7.5l1.5,-7v-4" fill="none" stroke="url(#color-3)" stroke-width="32" stroke-linecap="round"/></g></g></svg>