<svg version="1.1" xmlns="http://www.w3.org/2000/svg" xmlns:xlink="http://www.w3.org/1999/xlink" width="512.24135" height="538.58543" viewBox="0,0,512.24135,538.58543"><g transform="translate(23.21731,207.3722)"><g data-paper-data="{&quot;isPaintingLayer&quot;:true}" fill-rule="nonzero" stroke-linejoin="miter" stroke-miterlimit="10" stroke-dasharray="" stroke-dashoffset="0" style="mix-blend-mode: normal"><path d="M272.3667,329.22785v-42.86487h163.33334v42.86487z" data-paper-data="{&quot;index&quot;:null}" fill="#d96e85" stroke="#ec5d6e" stroke-width="0.5" stroke-linecap="butt"/><path d="M436.20111,329.94356v-48.25h49.25v48.25z" data-paper-data="{&quot;index&quot;:null}" fill="#d14555" stroke="#ee7992" stroke-width="0.5" stroke-linecap="butt"/><path d="M485.61258,282.4045l-47,46l-1.91927,0.28906" data-paper-data="{&quot;index&quot;:null}" fill="none" stroke="#ee7992" stroke-width="0.5" stroke-linecap="round"/><path d="M436.44331,281.69356l49,47.5" data-paper-data="{&quot;index&quot;:null}" fill="none" stroke="#ee7992" stroke-width="0.5" stroke-linecap="round"/><path d="M190.95107,330.19356v-48h82v48z" data-paper-data="{&quot;index&quot;:null}" fill="#d14555" stroke="#ee7992" stroke-width="0.5" stroke-linecap="butt"/><path d="M228.7202,303.26389l9,7l34,-3l-80.33333,-0.66667z" data-paper-data="{&quot;index&quot;:null}" fill="none" stroke="#ee7992" stroke-width="0.5" stroke-linecap="round"/><path d="M234.05354,328.26389l4,-17.33333" data-paper-data="{&quot;index&quot;:null}" fill="none" stroke="#ee7992" stroke-width="0.5" stroke-linecap="round"/><path d="M232.7202,282.5972l-3.33333,19l-1,3" data-paper-data="{&quot;index&quot;:null}" fill="none" stroke="#ee7992" stroke-width="0.5" stroke-linecap="round"/><path d="M436.38689,307.93056l-162.66667,-0.66667l-2.66666,-1.33333l-33,-3.33333l-9.66667,7.66667l4,18.66667l0.33333,-46l4.66667,18l0.66667,2" data-paper-data="{&quot;index&quot;:null}" fill="none" stroke="#ee7992" stroke-width="0.5" stroke-linecap="round"/><path d="M192.38687,306.93055l36.33333,3.66667" data-paper-data="{&quot;index&quot;:null}" fill="none" stroke="#ee7992" stroke-width="0.5" stroke-linecap="round"/><path d="M27.36669,328.72785v-42.86487h163.33334v42.86487z" data-paper-data="{&quot;index&quot;:null}" fill="#d96e85" stroke="#ec5d6e" stroke-width="0.5" stroke-linecap="butt"/><path d="M-22.29892,328.94359v-48.25h49.25v48.25z" data-paper-data="{&quot;index&quot;:null}" fill="#d14555" stroke="#ee7992" stroke-width="0.5" stroke-linecap="butt"/><path d="M21.53269,305.9045h6.5l167.5,1.5" data-paper-data="{&quot;index&quot;:null}" fill="none" stroke="#d14555" stroke-width="0.5" stroke-linecap="round"/><path d="M27.03269,280.9045l-48.5,45.5" data-paper-data="{&quot;index&quot;:null}" fill="none" stroke="#d96e85" stroke-width="0.5" stroke-linecap="round"/><path d="M26.53269,328.9045l-49.5,-48" data-paper-data="{&quot;index&quot;:null}" fill="none" stroke="#d96e85" stroke-width="0.5" stroke-linecap="round"/><path d="M255.63049,-46.96983c15.87507,5.52318 14.43434,25.87181 7.43434,40.75c-6.7597,14.36744 -23.50012,10.277 -39.93434,6.75c-16.30843,-3.5 -17.66057,-18.5891 -10.43435,-42.75c4.81253,-16.09071 27.12592,-10.25 42.93435,-4.75z" data-paper-data="{&quot;index&quot;:null}" fill="#70be6f" stroke="#0f973b" stroke-width="0.5" stroke-linecap="butt"/><path d="M102.68287,-12.2015l18.08333,-0.63452l19.91667,-0.23794l43,1.30436c0,0 2.73252,9.50933 4.41666,13.08686c1.68414,3.57753 5.61365,5.58086 7.8274,7.68784c1.39839,1.33095 4.4226,4.44725 4.4226,4.44725c0,0 7.8515,6.06235 9.91666,7.05897c2.06516,0.99662 5.23642,3.21654 7.33334,3.64846c2.09692,0.43193 4.58334,1.26903 4.58334,1.26903l0.16666,20.70103" data-paper-data="{&quot;index&quot;:null}" fill="none" stroke="#4a4f77" stroke-width="3" stroke-linecap="round"/><path d="M96.34953,-41.57738l9.5009,-1.02139l17.90552,-0.34046l58.90909,0.20815c0,0 1.20204,-8.95731 4.48128,-14.04946c3.27924,-5.09215 8.96257,-11.4853 8.96257,-11.4853c0,0 5.58113,-3.92127 12.78965,-6.46881c7.20852,-2.54754 19.00179,-4.76649 19.00179,-4.76649l7.05838,-0.77139c0,0 17.66367,0.44369 27.6181,3.04278c9.95442,2.5991 10.89552,5.23401 16.38681,8.66622c1.03412,0.64636 4.49016,4.32892 5.37875,5.03354c3.82992,3.03697 4.40696,5.98364 6.58337,8.70666c2.68137,3.35479 0.90685,1.92648 3.07754,7.51158c2.17068,5.5851 2.11185,6.69861 2.34625,14.34225c0.2344,7.64364 0.61267,7.94575 -2,18.65642c-2.61266,10.71067 -1.05489,13.12131 -10.96256,23.78476c-9.90767,10.66345 -26.42602,18.83734 -26.42602,18.83734l-0.13459,27.99198" data-paper-data="{&quot;index&quot;:null}" fill="none" stroke="#4a4f77" stroke-width="3" stroke-linecap="round"/><path d="M121.68288,-166.19899l0.33333,-19h191.33333h5v16" data-paper-data="{&quot;index&quot;:null}" fill="none" stroke="#85ab6f" stroke-width="3" stroke-linecap="round"/><path d="M319.68287,-135.86568l-0.33333,13.33334l-129.33334,0.66666h-68.33333v-11" data-paper-data="{&quot;index&quot;:null}" fill="none" stroke="#85ab6f" stroke-width="3" stroke-linecap="round"/><path d="M82.68286,-132.53234l-0.33334,33.33334l-15.66666,-0.66667" data-paper-data="{&quot;index&quot;:null}" fill="none" stroke="#85ab6f" stroke-width="3" stroke-linecap="round"/><path d="M28.0162,-100.86566l-17,0.66667l-1,-78l66.66667,-0.33334l-1,11.66667" data-paper-data="{&quot;index&quot;:null}" fill="none" stroke="#85ab6f" stroke-width="3" stroke-linecap="round"/><path d="M376.34957,-168.199l0.33333,-37.66667l76,0.33333v101.66667l-11.66667,-0.33333" data-paper-data="{&quot;index&quot;:null}" fill="none" stroke="#85ab6f" stroke-width="3" stroke-linecap="round"/><path d="M409.01621,-105.19899l-32.33333,1.66667l-0.66667,-31.66667" data-paper-data="{&quot;index&quot;:null}" fill="none" stroke="#85ab6f" stroke-width="3" stroke-linecap="round"/><path d="M128.56904,-165.63006v-14.31372h12.16667v14.31372z" data-paper-data="{&quot;index&quot;:null}" fill="#68bb5b" stroke="#63b761" stroke-width="0.5" stroke-linecap="butt"/><path d="M140.40237,-149.27713v-13.03333h11.33334v13.03333z" data-paper-data="{&quot;index&quot;:null}" fill="#68bb5b" stroke="#63b761" stroke-width="0.5" stroke-linecap="butt"/><path d="M128.71186,-128.27713v-10.33333h19.19047v10.33333z" data-paper-data="{&quot;index&quot;:null}" fill="#68bb5b" stroke="#63b761" stroke-width="0.5" stroke-linecap="butt"/><path d="M164.8417,-151.17712v-14h15.66667v14z" data-paper-data="{&quot;index&quot;:null}" fill="#68bb5b" stroke="#63b761" stroke-width="0.5" stroke-linecap="butt"/><path d="M163.44171,-132.11045v-14h17v14z" data-paper-data="{&quot;index&quot;:null}" fill="#68bb5b" stroke="#63b761" stroke-width="0.5" stroke-linecap="butt"/><path d="M201.77507,-166.77713v-12.66667h15.66666v12.66667z" data-paper-data="{&quot;index&quot;:null}" fill="#68bb5b" stroke="#63b761" stroke-width="0.5" stroke-linecap="butt"/><path d="M199.77505,-147.44378v-11.17544h16.33333v11.17543z" data-paper-data="{&quot;index&quot;:null}" fill="#68bb5b" stroke="#63b761" stroke-width="0.5" stroke-linecap="butt"/><path d="M198.99409,-126.44379v-10.66666h15.78096v10.66666z" data-paper-data="{&quot;index&quot;:null}" fill="#68bb5b" stroke="#63b761" stroke-width="0.5" stroke-linecap="butt"/><path d="M235.10838,-159.44381v-13h16.66667v13z" data-paper-data="{&quot;index&quot;:null}" fill="#68bb5b" stroke="#63b761" stroke-width="0.5" stroke-linecap="butt"/><path d="M238.44173,-129.44381v-14h16.66666v14z" data-paper-data="{&quot;index&quot;:null}" fill="#68bb5b" stroke="#63b761" stroke-width="0.5" stroke-linecap="butt"/><path d="M269.44172,-167.77712v-11.33334h17.33334v11.33334z" data-paper-data="{&quot;index&quot;:null}" fill="#68bb5b" stroke="#63b761" stroke-width="0.5" stroke-linecap="butt"/><path d="M274.51005,-153.77715v-9.93334h12.665v9.93334z" data-paper-data="{&quot;index&quot;:null}" fill="#68bb5b" stroke="#63b761" stroke-width="0.5" stroke-linecap="butt"/><path d="M282.17503,-125.91046v-13h16.33333v13z" data-paper-data="{&quot;index&quot;:null}" fill="#68bb5b" stroke="#63b761" stroke-width="0.5" stroke-linecap="butt"/><path d="M392.66748,-125.02191v-24.5h20.04546v24.5z" data-paper-data="{&quot;index&quot;:null}" fill="#68bb5b" stroke="#63b761" stroke-width="0.5" stroke-linecap="butt"/><path d="M418.21293,-167.52193v-26h27v26z" data-paper-data="{&quot;index&quot;:null}" fill="#68bb5b" stroke="#63b761" stroke-width="0.5" stroke-linecap="butt"/><path d="M400.77405,44.55621l4,-2l10,-2h6l7,2l5,1.5l4,2l-14.5,15z" data-paper-data="{&quot;index&quot;:null}" fill="none" stroke="#72bf71" stroke-width="5" stroke-linecap="round"/><path d="M431.77405,46.05621l-9.5,9.5" data-paper-data="{&quot;index&quot;:null}" fill="none" stroke="#72bf71" stroke-width="5" stroke-linecap="round"/><path d="M427.27405,46.0562l-22,-1.5l3.5,-2" data-paper-data="{&quot;index&quot;:null}" fill="none" stroke="#72bf71" stroke-width="5" stroke-linecap="round"/><path d="M429.77405,43.0562l-10.5,13l-9,-9" data-paper-data="{&quot;index&quot;:null}" fill="none" stroke="#72bf71" stroke-width="5" stroke-linecap="round"/><path d="M419.77405,45.5562l-0.5,5l-4.5,-4" data-paper-data="{&quot;index&quot;:null}" fill="none" stroke="#72bf71" stroke-width="5" stroke-linecap="round"/><path d="M437.27405,95.55621v-16.5l19,-18l-0.5,35z" data-paper-data="{&quot;index&quot;:null}" fill="#72bf71" stroke="#72bf71" stroke-width="5" stroke-linecap="round"/><path d="M384.27405,61.55621l17,14v18.5l-18.5,0.5z" data-paper-data="{&quot;index&quot;:null}" fill="#72bf71" stroke="#72bf71" stroke-width="5" stroke-linecap="round"/><path d="M392.77405,76.05621l-6.5,-6" data-paper-data="{&quot;index&quot;:null}" fill="none" stroke="#72bf71" stroke-width="5" stroke-linecap="round"/><path d="M286.27405,256.0562h119.5" data-paper-data="{&quot;index&quot;:null}" fill="none" stroke="#d96e85" stroke-width="5" stroke-linecap="round"/><path d="M74.27402,260.0562l115.5,-0.5" data-paper-data="{&quot;index&quot;:null}" fill="none" stroke="#d96e85" stroke-width="5" stroke-linecap="round"/><path d="M58.27402,34.55621l4.5,6.5l4,14l2.5,16l1.5,189" data-paper-data="{&quot;index&quot;:null}" fill="none" stroke="#eae2b0" stroke-width="5" stroke-linecap="round"/><path d="M31.27402,44.55621l2,7.5l2.5,9.5l1,23l2,201" data-paper-data="{&quot;index&quot;:null}" fill="none" stroke="#eae2b0" stroke-width="5" stroke-linecap="round"/><path d="M204.02403,168.90449c8.69848,0 15.75,6.86795 15.75,15.34c0,8.47205 -7.05152,15.34 -15.75,15.34c-8.69848,0 -15.75,-6.86795 -15.75,-15.34c0,-8.47205 7.05152,-15.34 15.75,-15.34z" data-paper-data="{&quot;index&quot;:null}" fill="#42aa28" stroke="#088f2c" stroke-width="0.5" stroke-linecap="butt"/><path d="M274.52403,133.40446c8.69848,0 15.75,6.82766 15.75,15.25c0,8.42234 -7.05152,15.25 -15.75,15.25c-8.69848,0 -15.75,-6.82766 -15.75,-15.25c0,-8.42234 7.05152,-15.25 15.75,-15.25z" data-paper-data="{&quot;index&quot;:null}" fill="#42aa28" stroke="#088f2c" stroke-width="0.5" stroke-linecap="butt"/><path d="M2.024,196.90449c8.69849,0 15.75,6.86795 15.75,15.34c0,8.47205 -7.05151,15.34 -15.75,15.34c-8.69849,0 -15.75,-6.86795 -15.75,-15.34c0,-8.47205 7.05151,-15.34 15.75,-15.34z" data-paper-data="{&quot;index&quot;:null}" fill="#42aa28" stroke="#088f2c" stroke-width="0.5" stroke-linecap="butt"/><path d="M95.02402,195.90449c8.69849,0 15.75,6.86795 15.75,15.34c0,8.47205 -7.05151,15.34 -15.75,15.34c-8.69849,0 -15.75,-6.86795 -15.75,-15.34c0,-8.47205 7.05151,-15.34 15.75,-15.34z" data-paper-data="{&quot;index&quot;:null}" fill="#42aa28" stroke="#088f2c" stroke-width="0.5" stroke-linecap="butt"/><path d="M274.02403,169.90449c8.69849,0 15.75,6.86795 15.75,15.34c0,8.47205 -7.05151,15.34 -15.75,15.34c-8.69849,0 -15.75,-6.86795 -15.75,-15.34c0,-8.47205 7.05151,-15.34 15.75,-15.34z" data-paper-data="{&quot;index&quot;:null}" fill="#42aa28" stroke="#088f2c" stroke-width="0.5" stroke-linecap="butt"/><path d="M205.02403,133.40446c8.69849,0 15.75,6.86795 15.75,15.34c0,8.47205 -7.05151,15.34 -15.75,15.34c-8.69849,0 -15.75,-6.86795 -15.75,-15.34c0,-8.47205 7.05151,-15.34 15.75,-15.34z" data-paper-data="{&quot;index&quot;:null}" fill="#42aa28" stroke="#088f2c" stroke-width="0.5" stroke-linecap="butt"/><path d="M94.52402,74.40452c8.69849,0 15.75,6.86795 15.75,15.34c0,8.47205 -7.05151,15.34 -15.75,15.34c-8.69849,0 -15.75,-6.86795 -15.75,-15.34c0,-8.47205 7.05151,-15.34 15.75,-15.34z" data-paper-data="{&quot;index&quot;:null}" fill="#42aa28" stroke="#088f2c" stroke-width="0.5" stroke-linecap="butt"/><path d="M10.024,72.90452c8.69849,0 15.75,6.86795 15.75,15.34c0,8.47205 -7.05151,15.34 -15.75,15.34c-8.69849,0 -15.75,-6.86795 -15.75,-15.34c0,-8.47205 7.05151,-15.34 15.75,-15.34z" data-paper-data="{&quot;index&quot;:null}" fill="#42aa28" stroke="#088f2c" stroke-width="0.5" stroke-linecap="butt"/><path d="M96.02402,134.90449c8.69849,0 15.75,6.86795 15.75,15.34c0,8.47205 -7.05151,15.34 -15.75,15.34c-8.69849,0 -15.75,-6.86795 -15.75,-15.34c0,-8.47205 7.05151,-15.34 15.75,-15.34z" data-paper-data="{&quot;index&quot;:null}" fill="#42aa28" stroke="#088f2c" stroke-width="0.5" stroke-linecap="butt"/><path d="M6.02402,132.40449c8.69849,0 15.75,6.86795 15.75,15.34c0,8.47205 -7.05151,15.34 -15.75,15.34c-8.69849,0 -15.75,-6.86795 -15.75,-15.34c0,-8.47205 7.05151,-15.34 15.75,-15.34z" data-paper-data="{&quot;index&quot;:null}" fill="#42aa28" stroke="#088f2c" stroke-width="0.5" stroke-linecap="butt"/><path d="M180.59521,101.13951v73.625h-51.625v-73.625z" data-paper-data="{&quot;index&quot;:null}" fill="#d6cb21" stroke="#dbcf10" stroke-width="0.5" stroke-linecap="butt"/><path d="M348.09523,101.13951v73.625h-51.625v-73.625z" data-paper-data="{&quot;index&quot;:null}" fill="#d6cb21" stroke="#dbcf10" stroke-width="0.5" stroke-linecap="butt"/><path d="M323.03272,14.40451v-109h39.5v109z" data-paper-data="{&quot;index&quot;:null}" fill="#b38c37" stroke="#bc8d33" stroke-width="0.5" stroke-linecap="butt"/><path d="M300.03272,34.90449v-1.5h1.5v1.5z" data-paper-data="{&quot;index&quot;:null}" fill="#b38c37" stroke="#bc8d33" stroke-width="0.5" stroke-linecap="butt"/><path d="M247.72492,-74.88122c3.35176,0 6.06889,2.71714 6.06889,6.06889c0,3.35176 -2.71714,6.06889 -6.06889,6.06889c-3.35176,0 -6.06889,-2.71714 -6.06889,-6.06889c0,-3.35176 2.71714,-6.06889 6.06889,-6.06889z" data-paper-data="{&quot;index&quot;:null}" fill="#000000" stroke="#000000" stroke-width="0.5" stroke-linecap="butt"/><path d="M256.12586,-66.05484c-0.11054,0.44742 -0.89258,0.63905 -1.74673,0.42802c-0.85416,-0.21103 -1.45698,-0.7448 -1.34644,-1.19221c0.11054,-0.44742 0.89258,-0.63905 1.74673,-0.42802c0.85416,0.21102 1.45698,0.74479 1.34644,1.1922z" data-paper-data="{&quot;index&quot;:null}" fill="none" stroke="#000000" stroke-width="1" stroke-linecap="butt"/><path d="M258.29643,-65.14729c0,0.58656 -0.71325,1.06206 -1.59308,1.06206c-0.87983,0 -1.59308,-0.4755 -1.59308,-1.06206c0,-0.58656 0.71325,-1.06206 1.59308,-1.06206c0.87983,0 1.59308,0.4755 1.59308,1.06206z" data-paper-data="{&quot;index&quot;:null}" fill="none" stroke="#000000" stroke-width="1" stroke-linecap="butt"/><path d="M260.5723,-64.16111c0,0.71225 -0.71325,1.28964 -1.59308,1.28964c-0.87983,0 -1.59308,-0.57739 -1.59308,-1.28964c0,-0.71225 0.71325,-1.28964 1.59308,-1.28964c0.87983,0 1.59308,0.57739 1.59308,1.28964z" data-paper-data="{&quot;index&quot;:null}" fill="none" stroke="#000000" stroke-width="1" stroke-linecap="butt"/><path d="M261.39394,-61.89212v1.2475" data-paper-data="{&quot;index&quot;:null}" fill="none" stroke="#4a4f77" stroke-width="1" stroke-linecap="round"/><path d="M262.98301,-62.57645c0,0.62845 -0.78117,1.13792 -1.7448,1.13792c-0.96363,0 -1.7448,-0.50946 -1.7448,-1.13792c0,-0.62845 0.78117,-1.13792 1.7448,-1.13792c0.96363,0 1.7448,0.50946 1.7448,1.13792z" data-paper-data="{&quot;index&quot;:null}" fill="none" stroke="#000000" stroke-width="1" stroke-linecap="butt"/><path d="M261.39394,-62.12813l-0.03371,-1.2475l0.03371,-1.31493l2.7274,-0.05649l-0.04668,4.20154" data-paper-data="{&quot;index&quot;:null}" fill="none" stroke="#4a4f77" stroke-width="1" stroke-linecap="round"/><path d="M244.95058,-70.61133c-0.25137,0 -0.45516,-0.20377 -0.45516,-0.45516c0,-0.25137 0.20377,-0.45516 0.45516,-0.45516c0.25137,0 0.45516,0.20377 0.45516,0.45516c0,0.25137 -0.20377,0.45516 -0.45516,0.45516z" data-paper-data="{&quot;index&quot;:null}" fill="#ffffff" stroke="none" stroke-width="0.5" stroke-linecap="butt"/><path d="M241.86714,-68.31178l0.30345,-2.27583l4.24822,2.27583l-3.94478,1.51722z" data-paper-data="{&quot;index&quot;:null}" fill="#c7c7cb" stroke="#c7c7cb" stroke-width="1" stroke-linecap="round"/><path d="M171.59966,-180.85265c2.951,0 5.34326,2.39226 5.34326,5.34326c0,2.951 -2.39226,5.34326 -5.34326,5.34326c-2.951,0 -5.34326,-2.39226 -5.34326,-5.34326c0,-2.951 2.39226,-5.34326 5.34326,-5.34326z" data-paper-data="{&quot;index&quot;:null}" fill="#000000" stroke="#000000" stroke-width="0.5" stroke-linecap="butt"/><path d="M178.99613,-173.0816c-0.09732,0.39392 -0.78585,0.56264 -1.53788,0.37684c-0.75203,-0.1858 -1.28277,-0.65575 -1.18545,-1.04966c0.09732,-0.39392 0.78585,-0.56264 1.53788,-0.37684c0.75203,0.1858 1.28277,0.65574 1.18545,1.04966z" data-paper-data="{&quot;index&quot;:null}" fill="none" stroke="#000000" stroke-width="1" stroke-linecap="butt"/><path d="M180.9072,-172.28257c0,0.51643 -0.62797,0.93507 -1.4026,0.93507c-0.77464,0 -1.4026,-0.41864 -1.4026,-0.93507c0,-0.51643 0.62797,-0.93507 1.4026,-0.93507c0.77464,0 1.4026,0.41864 1.4026,0.93507z" data-paper-data="{&quot;index&quot;:null}" fill="none" stroke="#000000" stroke-width="1" stroke-linecap="butt"/><path d="M182.91093,-171.41429c0,0.62709 -0.62797,1.13544 -1.4026,1.13544c-0.77464,0 -1.4026,-0.50835 -1.4026,-1.13544c0,-0.62709 0.62797,-1.13544 1.4026,-1.13544c0.77464,0 1.4026,0.50835 1.4026,1.13544z" data-paper-data="{&quot;index&quot;:null}" fill="none" stroke="#000000" stroke-width="1" stroke-linecap="butt"/><path d="M183.63434,-169.4166v1.09834" data-paper-data="{&quot;index&quot;:null}" fill="none" stroke="#4a4f77" stroke-width="1" stroke-linecap="round"/><path d="M185.03338,-170.0191c0,0.55331 -0.68777,1.00186 -1.53619,1.00186c-0.84841,0 -1.53619,-0.44855 -1.53619,-1.00186c0,-0.55331 0.68777,-1.00186 1.53619,-1.00186c0.84841,0 1.53619,0.44855 1.53619,1.00186z" data-paper-data="{&quot;index&quot;:null}" fill="none" stroke="#000000" stroke-width="1" stroke-linecap="butt"/><path d="M183.63434,-169.62439l-0.02968,-1.09834l0.02968,-1.15771l2.4013,-0.04974l-0.0411,3.69918" data-paper-data="{&quot;index&quot;:null}" fill="none" stroke="#4a4f77" stroke-width="1" stroke-linecap="round"/><path d="M169.15702,-177.09329c-0.22132,0 -0.40074,-0.17941 -0.40074,-0.40074c0,-0.22132 0.17941,-0.40074 0.40074,-0.40074c0.22132,0 0.40074,0.17941 0.40074,0.40074c0,0.22132 -0.17941,0.40074 -0.40074,0.40074z" data-paper-data="{&quot;index&quot;:null}" fill="#ffffff" stroke="none" stroke-width="0.5" stroke-linecap="butt"/><path d="M166.44224,-175.06869l0.26716,-2.00372l3.74028,2.00372l-3.47312,1.33581z" data-paper-data="{&quot;index&quot;:null}" fill="#c7c7cb" stroke="#c7c7cb" stroke-width="1" stroke-linecap="round"/><path d="M309.83563,-171.7094c0,2.951 -2.15036,5.34326 -4.80297,5.34326c-2.65261,0 -4.80297,-2.39226 -4.80297,-5.34326c0,-2.951 2.15036,-5.34325 4.80297,-5.34325c2.65261,0 4.80297,2.39225 4.80297,5.34325z" data-paper-data="{&quot;index&quot;:null}" fill="#000000" stroke="#000000" stroke-width="0.5" stroke-linecap="butt"/><path d="M298.38408,-169.2816c-0.08748,-0.39392 0.3896,-0.86387 1.06558,-1.04966c0.67599,-0.1858 1.2949,-0.01708 1.38238,0.37684c0.08748,0.39392 -0.3896,0.86387 -1.06558,1.04966c-0.67598,0.1858 -1.29489,0.01708 -1.38237,-0.37684z" data-paper-data="{&quot;index&quot;:null}" fill="none" stroke="#000000" stroke-width="1" stroke-linecap="butt"/><path d="M297.92704,-169.41763c0.69631,0 1.26078,0.41865 1.26078,0.93507c0,0.51642 -0.56447,0.93507 -1.26078,0.93507c-0.69631,0 -1.26078,-0.41865 -1.26078,-0.93507c0,-0.51643 0.56447,-0.93507 1.26078,-0.93507z" data-paper-data="{&quot;index&quot;:null}" fill="none" stroke="#000000" stroke-width="1" stroke-linecap="butt"/><path d="M296.12593,-168.74973c0.69631,0 1.26078,0.50836 1.26078,1.13545c0,0.62709 -0.56447,1.13544 -1.26078,1.13544c-0.69631,0 -1.26078,-0.50835 -1.26078,-1.13544c0,-0.62709 0.56447,-1.13545 1.26078,-1.13545z" data-paper-data="{&quot;index&quot;:null}" fill="none" stroke="#000000" stroke-width="1" stroke-linecap="butt"/><path d="M294.21488,-165.61659v1.09833" data-paper-data="{&quot;index&quot;:null}" fill="none" stroke="#4a4f77" stroke-width="1" stroke-linecap="round"/><path d="M294.33815,-167.22098c0.76263,0 1.38086,0.44855 1.38086,1.00186c0,0.55332 -0.61823,1.00187 -1.38086,1.00187c-0.76262,0 -1.38085,-0.44856 -1.38085,-1.00187c0,-0.55331 0.61822,-1.00186 1.38085,-1.00186z" data-paper-data="{&quot;index&quot;:null}" fill="none" stroke="#000000" stroke-width="1" stroke-linecap="butt"/><path d="M292.09333,-164.43098l-0.03694,-3.69917l2.15849,0.04973l0.02668,1.1577l-0.02668,1.09833" data-paper-data="{&quot;index&quot;:null}" fill="none" stroke="#4a4f77" stroke-width="1" stroke-linecap="round"/><path d="M306.86807,-173.69403c0,-0.22133 0.16127,-0.40075 0.36022,-0.40075c0.19894,0 0.36022,0.17942 0.36022,0.40075c0,0.22133 -0.16127,0.40075 -0.36022,0.40075c-0.19894,0 -0.36022,-0.17942 -0.36022,-0.40075z" data-paper-data="{&quot;index&quot;:null}" fill="#ffffff" stroke="none" stroke-width="0.5" stroke-linecap="butt"/><path d="M309.18827,-169.93288l-3.12193,-1.33581l3.36208,-2.00372l0.24015,2.00372z" data-paper-data="{&quot;index&quot;:null}" fill="#c7c7cb" stroke="#c7c7cb" stroke-width="1" stroke-linecap="round"/><path d="M264.05935,-146.85265c2.65261,0 4.80297,2.39225 4.80297,5.34325c0,2.951 -2.15037,5.34326 -4.80297,5.34326c-2.65261,0 -4.80297,-2.39226 -4.80297,-5.34326c0,-2.95099 2.15037,-5.34325 4.80297,-5.34325z" data-paper-data="{&quot;index&quot;:null}" fill="#000000" stroke="#000000" stroke-width="0.5" stroke-linecap="butt"/><path d="M270.70793,-139.0816c-0.08748,0.39392 -0.70639,0.56264 -1.38237,0.37685c-0.67598,-0.1858 -1.15306,-0.65575 -1.06558,-1.04967c0.08748,-0.39392 0.70639,-0.56263 1.38237,-0.37684c0.67598,0.1858 1.15306,0.65574 1.06558,1.04966z" data-paper-data="{&quot;index&quot;:null}" fill="none" stroke="#000000" stroke-width="1" stroke-linecap="butt"/><path d="M272.42575,-138.28259c0,0.51643 -0.56447,0.93507 -1.26077,0.93507c-0.6963,0 -1.26078,-0.41865 -1.26078,-0.93507c0,-0.51642 0.56448,-0.93507 1.26078,-0.93507c0.6963,0 1.26077,0.41865 1.26077,0.93507z" data-paper-data="{&quot;index&quot;:null}" fill="none" stroke="#000000" stroke-width="1" stroke-linecap="butt"/><path d="M274.22686,-137.41431c0,0.62708 -0.56448,1.13544 -1.26078,1.13544c-0.69631,0 -1.26078,-0.50835 -1.26078,-1.13544c0,-0.62708 0.56448,-1.13544 1.26078,-1.13544c0.6963,0 1.26078,0.50836 1.26078,1.13544z" data-paper-data="{&quot;index&quot;:null}" fill="none" stroke="#000000" stroke-width="1" stroke-linecap="butt"/><path d="M274.87712,-134.31826v-1.09833" data-paper-data="{&quot;index&quot;:null}" fill="none" stroke="#4a4f77" stroke-width="1" stroke-linecap="round"/><path d="M276.13473,-136.01912c0,0.55332 -0.61823,1.00187 -1.38086,1.00187c-0.76262,0 -1.38085,-0.44856 -1.38085,-1.00187c0,-0.55331 0.61822,-1.00186 1.38085,-1.00186c0.76263,0 1.38086,0.44855 1.38086,1.00186z" data-paper-data="{&quot;index&quot;:null}" fill="none" stroke="#000000" stroke-width="1" stroke-linecap="butt"/><path d="M274.87712,-135.62439l-0.02669,-1.09833l0.02669,-1.15771l2.15849,-0.04973l-0.03695,3.69917" data-paper-data="{&quot;index&quot;:null}" fill="none" stroke="#4a4f77" stroke-width="1" stroke-linecap="round"/><path d="M261.8637,-143.0933c-0.19894,0 -0.36022,-0.17942 -0.36022,-0.40075c0,-0.22133 0.16127,-0.40075 0.36022,-0.40075c0.19895,0 0.36023,0.17943 0.36023,0.40075c0,0.22133 -0.16128,0.40075 -0.36023,0.40075z" data-paper-data="{&quot;index&quot;:null}" fill="#ffffff" stroke="none" stroke-width="0.5" stroke-linecap="butt"/><path d="M259.42341,-141.06869l0.24015,-2.00372l3.36208,2.00372l-3.12193,1.33581z" data-paper-data="{&quot;index&quot;:null}" fill="#c7c7cb" stroke="#c7c7cb" stroke-width="1" stroke-linecap="round"/><path d="M275.02403,97.90451c8.69849,0 15.75,6.86795 15.75,15.34c0,8.47205 -7.05151,15.34 -15.75,15.34c-8.69849,0 -15.75,-6.86795 -15.75,-15.34c0,-8.47205 7.05151,-15.34 15.75,-15.34z" data-paper-data="{&quot;index&quot;:null}" fill="#42aa28" stroke="#088f2c" stroke-width="0.5" stroke-linecap="butt"/><path d="M205.52403,99.40451c8.69849,0 15.75,6.86795 15.75,15.34c0,8.47205 -7.05151,15.34 -15.75,15.34c-8.69848,0 -15.75,-6.86795 -15.75,-15.34c0,-8.47205 7.05151,-15.34 15.75,-15.34z" data-paper-data="{&quot;index&quot;:null}" fill="#42aa28" stroke="#088f2c" stroke-width="0.5" stroke-linecap="butt"/><path d="M388.02405,133.9045c8.69849,0 15.75,6.86795 15.75,15.34c0,8.47205 -7.05151,15.34 -15.75,15.34c-8.69849,0 -15.75,-6.86795 -15.75,-15.34c0,-8.47205 7.05151,-15.34 15.75,-15.34z" data-paper-data="{&quot;index&quot;:null}" fill="#42aa28" stroke="#088f2c" stroke-width="0.5" stroke-linecap="butt"/><path d="M473.02405,130.9045c8.69849,0 15.75,6.86795 15.75,15.34c0,8.47205 -7.05151,15.34 -15.75,15.34c-8.69849,0 -15.75,-6.86795 -15.75,-15.34c0,-8.47205 7.05151,-15.34 15.75,-15.34z" data-paper-data="{&quot;index&quot;:null}" fill="#42aa28" stroke="#088f2c" stroke-width="0.5" stroke-linecap="butt"/><path d="M367.02405,175.90451c8.69849,0 15.75,6.86795 15.75,15.34c0,8.47205 -7.05151,15.34 -15.75,15.34c-8.69849,0 -15.75,-6.86795 -15.75,-15.34c0,-8.47205 7.05151,-15.34 15.75,-15.34z" data-paper-data="{&quot;index&quot;:null}" fill="#42aa28" stroke="#088f2c" stroke-width="0.5" stroke-linecap="butt"/><path d="M462.02405,176.90451c8.69849,0 15.75,6.86795 15.75,15.34c0,8.47205 -7.05151,15.34 -15.75,15.34c-8.69849,0 -15.75,-6.86795 -15.75,-15.34c0,-8.47205 7.05151,-15.34 15.75,-15.34z" data-paper-data="{&quot;index&quot;:null}" fill="#42aa28" stroke="#088f2c" stroke-width="0.5" stroke-linecap="butt"/><path d="M460.02405,217.90451c8.69849,0 15.75,6.86795 15.75,15.34c0,8.47205 -7.05151,15.34 -15.75,15.34c-8.69849,0 -15.75,-6.86795 -15.75,-15.34c0,-8.47205 7.05151,-15.34 15.75,-15.34z" data-paper-data="{&quot;index&quot;:null}" fill="#42aa28" stroke="#088f2c" stroke-width="0.5" stroke-linecap="butt"/><path d="M375.02405,217.90451c8.69849,0 15.75,6.86795 15.75,15.34c0,8.47205 -7.05151,15.34 -15.75,15.34c-8.69849,0 -15.75,-6.86795 -15.75,-15.34c0,-8.47205 7.05151,-15.34 15.75,-15.34z" data-paper-data="{&quot;index&quot;:null}" fill="#42aa28" stroke="#088f2c" stroke-width="0.5" stroke-linecap="butt"/><path d="M256.68287,62.9156v-21.66667" data-paper-data="{&quot;index&quot;:null}" fill="none" stroke="#4a4f77" stroke-width="3" stroke-linecap="round"/><path d="M255.4624,62.94164l0.16667,-16.83333" data-paper-data="{&quot;index&quot;:null}" fill="none" stroke="#4a4f77" stroke-width="3" stroke-linecap="round"/><path d="M258.12906,45.6083v17.16667" data-paper-data="{&quot;index&quot;:null}" fill="none" stroke="#4a4f77" stroke-width="3" stroke-linecap="round"/><path d="M222.29572,47.44164l-0.16667,14.66667" data-paper-data="{&quot;index&quot;:null}" fill="none" stroke="#4a4f77" stroke-width="6" stroke-linecap="round"/><path d="M49.95196,-113.90473v-25h17.75v25z" data-paper-data="{&quot;index&quot;:null}" fill="#d6cb21" stroke="#b38c37" stroke-width="0.5" stroke-linecap="butt"/><path d="M15.45195,-153.15473v-19.75h30.75v19.75z" data-paper-data="{&quot;index&quot;:null}" fill="#d6cb21" stroke="#b38c37" stroke-width="0.5" stroke-linecap="butt"/><path d="M42.70196,-167.40473c-0.13807,0 -0.25,-0.11193 -0.25,-0.25c0,-0.13807 0.11193,-0.25 0.25,-0.25c0.13807,0 0.25,0.11193 0.25,0.25c0,0.13807 -0.11193,0.25 -0.25,0.25z" data-paper-data="{&quot;index&quot;:null}" fill="#b38c37" stroke="none" stroke-width="0.5" stroke-linecap="butt"/><path d="M36.70196,-163.15473c-0.13807,0 -0.25,-0.11193 -0.25,-0.25c0,-0.13807 0.11193,-0.25 0.25,-0.25c0.13807,0 0.25,0.11193 0.25,0.25c0,0.13807 -0.11193,0.25 -0.25,0.25z" data-paper-data="{&quot;index&quot;:null}" fill="#b38c37" stroke="none" stroke-width="0.5" stroke-linecap="butt"/><path d="M41.20196,-158.90473c-0.13807,0 -0.25,-0.11193 -0.25,-0.25c0,-0.13807 0.11193,-0.25 0.25,-0.25c0.13807,0 0.25,0.11193 0.25,0.25c0,0.13807 -0.11193,0.25 -0.25,0.25z" data-paper-data="{&quot;index&quot;:null}" fill="#b38c37" stroke="none" stroke-width="0.5" stroke-linecap="butt"/><path d="M39.70196,-167.90473c-0.13807,0 -0.25,-0.11193 -0.25,-0.25c0,-0.13807 0.11193,-0.25 0.25,-0.25c0.13807,0 0.25,0.11193 0.25,0.25c0,0.13807 -0.11193,0.25 -0.25,0.25z" data-paper-data="{&quot;index&quot;:null}" fill="#b38c37" stroke="none" stroke-width="0.5" stroke-linecap="butt"/><path d="M21.95196,-166.40473c-0.13807,0 -0.25,-0.11193 -0.25,-0.25c0,-0.13807 0.11193,-0.25 0.25,-0.25c0.13807,0 0.25,0.11193 0.25,0.25c0,0.13807 -0.11193,0.25 -0.25,0.25z" data-paper-data="{&quot;index&quot;:null}" fill="#b38c37" stroke="none" stroke-width="0.5" stroke-linecap="butt"/><path d="M26.45196,-162.65473c-0.13807,0 -0.25,-0.11193 -0.25,-0.25c0,-0.13807 0.11193,-0.25 0.25,-0.25c0.13807,0 0.25,0.11193 0.25,0.25c0,0.13807 -0.11193,0.25 -0.25,0.25z" data-paper-data="{&quot;index&quot;:null}" fill="#b38c37" stroke="none" stroke-width="0.5" stroke-linecap="butt"/><path d="M32.20196,-169.15473c-0.13807,0 -0.25,-0.11193 -0.25,-0.25c0,-0.13807 0.11193,-0.25 0.25,-0.25c0.13807,0 0.25,0.11193 0.25,0.25c0,0.13807 -0.11193,0.25 -0.25,0.25z" data-paper-data="{&quot;index&quot;:null}" fill="#b38c37" stroke="none" stroke-width="0.5" stroke-linecap="butt"/><path d="M22.20196,-156.40473c-0.13807,0 -0.25,-0.11193 -0.25,-0.25c0,-0.13807 0.11193,-0.25 0.25,-0.25c0.13807,0 0.25,0.11193 0.25,0.25c0,0.13807 -0.11193,0.25 -0.25,0.25z" data-paper-data="{&quot;index&quot;:null}" fill="#b38c37" stroke="none" stroke-width="0.5" stroke-linecap="butt"/><path d="M28.95196,-169.40473c-0.13807,0 -0.25,-0.11193 -0.25,-0.25c0,-0.13807 0.11193,-0.25 0.25,-0.25c0.13807,0 0.25,0.11193 0.25,0.25c0,0.13807 -0.11193,0.25 -0.25,0.25z" data-paper-data="{&quot;index&quot;:null}" fill="#b38c37" stroke="none" stroke-width="0.5" stroke-linecap="butt"/><path d="M27.70196,-158.65473c-0.13807,0 -0.25,-0.11193 -0.25,-0.25c0,-0.13807 0.11193,-0.25 0.25,-0.25c0.13807,0 0.25,0.11193 0.25,0.25c0,0.13807 -0.11193,0.25 -0.25,0.25z" data-paper-data="{&quot;index&quot;:null}" fill="#b38c37" stroke="none" stroke-width="0.5" stroke-linecap="butt"/><path d="M36.95196,-156.15473c-0.13807,0 -0.25,-0.11193 -0.25,-0.25c0,-0.13807 0.11193,-0.25 0.25,-0.25c0.13807,0 0.25,0.11193 0.25,0.25c0,0.13807 -0.11193,0.25 -0.25,0.25z" data-paper-data="{&quot;index&quot;:null}" fill="#b38c37" stroke="none" stroke-width="0.5" stroke-linecap="butt"/><path d="M64.70195,-132.65473c-0.13807,0 -0.25,-0.11193 -0.25,-0.25c0,-0.13807 0.11193,-0.25 0.25,-0.25c0.13807,0 0.25,0.11193 0.25,0.25c0,0.13807 -0.11193,0.25 -0.25,0.25z" data-paper-data="{&quot;index&quot;:null}" fill="#b38c37" stroke="none" stroke-width="0.5" stroke-linecap="butt"/><path d="M57.70196,-134.15473c-0.13807,0 -0.25,-0.11193 -0.25,-0.25c0,-0.13807 0.11193,-0.25 0.25,-0.25c0.13807,0 0.25,0.11193 0.25,0.25c0,0.13807 -0.11193,0.25 -0.25,0.25z" data-paper-data="{&quot;index&quot;:null}" fill="#b38c37" stroke="none" stroke-width="0.5" stroke-linecap="butt"/><path d="M62.20196,-126.15473c-0.13807,0 -0.25,-0.11193 -0.25,-0.25c0,-0.13807 0.11193,-0.25 0.25,-0.25c0.13807,0 0.25,0.11193 0.25,0.25c0,0.13807 -0.11193,0.25 -0.25,0.25z" data-paper-data="{&quot;index&quot;:null}" fill="#b38c37" stroke="none" stroke-width="0.5" stroke-linecap="butt"/><path d="M64.95195,-118.65473c-0.13807,0 -0.25,-0.11193 -0.25,-0.25c0,-0.13807 0.11193,-0.25 0.25,-0.25c0.13807,0 0.25,0.11193 0.25,0.25c0,0.13807 -0.11193,0.25 -0.25,0.25z" data-paper-data="{&quot;index&quot;:null}" fill="#b38c37" stroke="none" stroke-width="0.5" stroke-linecap="butt"/><path d="M57.20196,-119.90473c-0.13807,0 -0.25,-0.11193 -0.25,-0.25c0,-0.13807 0.11193,-0.25 0.25,-0.25c0.13807,0 0.25,0.11193 0.25,0.25c0,0.13807 -0.11193,0.25 -0.25,0.25z" data-paper-data="{&quot;index&quot;:null}" fill="#b38c37" stroke="none" stroke-width="0.5" stroke-linecap="butt"/><path d="M56.95196,-126.15473c-0.13807,0 -0.25,-0.11193 -0.25,-0.25c0,-0.13807 0.11193,-0.25 0.25,-0.25c0.13807,0 0.25,0.11193 0.25,0.25c0,0.13807 -0.11193,0.25 -0.25,0.25z" data-paper-data="{&quot;index&quot;:null}" fill="#b38c37" stroke="none" stroke-width="0.5" stroke-linecap="butt"/><path d="M54.45196,-131.15473c-0.13807,0 -0.25,-0.11193 -0.25,-0.25c0,-0.13807 0.11193,-0.25 0.25,-0.25c0.13807,0 0.25,0.11193 0.25,0.25c0,0.13807 -0.11193,0.25 -0.25,0.25z" data-paper-data="{&quot;index&quot;:null}" fill="#b38c37" stroke="none" stroke-width="0.5" stroke-linecap="butt"/><path d="M64.95195,-121.40473c-0.13807,0 -0.25,-0.11193 -0.25,-0.25c0,-0.13807 0.11193,-0.25 0.25,-0.25c0.13807,0 0.25,0.11193 0.25,0.25c0,0.13807 -0.11193,0.25 -0.25,0.25z" data-paper-data="{&quot;index&quot;:null}" fill="#b38c37" stroke="none" stroke-width="0.5" stroke-linecap="butt"/><path d="M63.20196,-130.65473c-0.13807,0 -0.25,-0.11193 -0.25,-0.25c0,-0.13807 0.11193,-0.25 0.25,-0.25c0.13807,0 0.25,0.11193 0.25,0.25c0,0.13807 -0.11193,0.25 -0.25,0.25z" data-paper-data="{&quot;index&quot;:null}" fill="#b38c37" stroke="none" stroke-width="0.5" stroke-linecap="butt"/><path d="M61.70196,-133.40473c-0.13807,0 -0.25,-0.11193 -0.25,-0.25c0,-0.13807 0.11193,-0.25 0.25,-0.25c0.13807,0 0.25,0.11193 0.25,0.25c0,0.13807 -0.11193,0.25 -0.25,0.25z" data-paper-data="{&quot;index&quot;:null}" fill="#b38c37" stroke="none" stroke-width="0.5" stroke-linecap="butt"/><path d="M54.70196,-117.40473c-0.13807,0 -0.25,-0.11193 -0.25,-0.25c0,-0.13807 0.11193,-0.25 0.25,-0.25c0.13807,0 0.25,0.11193 0.25,0.25c0,0.13807 -0.11193,0.25 -0.25,0.25z" data-paper-data="{&quot;index&quot;:null}" fill="#b38c37" stroke="none" stroke-width="0.5" stroke-linecap="butt"/><path d="M63.95196,-117.65473c-0.13807,0 -0.25,-0.11193 -0.25,-0.25c0,-0.13807 0.11193,-0.25 0.25,-0.25c0.13807,0 0.25,0.11193 0.25,0.25c0,0.13807 -0.11193,0.25 -0.25,0.25z" data-paper-data="{&quot;index&quot;:null}" fill="#b38c37" stroke="none" stroke-width="0.5" stroke-linecap="butt"/><path d="M418.60477,132.09527c2.8995,0 5.25,1.11929 5.25,2.5c0,1.38071 -2.3505,2.5 -5.25,2.5c-2.8995,0 -5.25,-1.11929 -5.25,-2.5c0,-1.38071 2.3505,-2.5 5.25,-2.5z" data-paper-data="{&quot;index&quot;:null}" fill="#001919" stroke="#000000" stroke-width="0.5" stroke-linecap="butt"/><path d="M435.22977,167.34527c2.83046,0 5.125,1.17525 5.125,2.625c0,1.44975 -2.29454,2.625 -5.125,2.625c-2.83046,0 -5.125,-1.17525 -5.125,-2.625c0,-1.44975 2.29454,-2.625 5.125,-2.625z" data-paper-data="{&quot;index&quot;:null}" fill="#001919" stroke="#000000" stroke-width="0.5" stroke-linecap="butt"/><path d="M400.72977,206.34527c2.69239,0 4.875,1.30957 4.875,2.925c0,1.61543 -2.18261,2.925 -4.875,2.925c-2.69239,0 -4.875,-1.30957 -4.875,-2.925c0,-1.61544 2.18261,-2.925 4.875,-2.925z" data-paper-data="{&quot;index&quot;:null}" fill="#001919" stroke="#000000" stroke-width="0.5" stroke-linecap="butt"/><path d="M411.89942,234.41527c3.01291,0 5.45536,1.36778 5.45536,3.05501c0,1.68724 -2.44245,3.055 -5.45536,3.055c-3.01291,0 -5.45536,-1.36777 -5.45536,-3.055c0,-1.68724 2.44245,-3.05501 5.45536,-3.05501z" data-paper-data="{&quot;index&quot;:null}" fill="#001919" stroke="#000000" stroke-width="0.5" stroke-linecap="butt"/><g data-paper-data="{&quot;index&quot;:null}" fill="none" stroke="#000000" stroke-width="0.5" stroke-linecap="round"><path d="M187.55127,255.08083c0,0 -3.64323,0.83772 -4.76571,-0.6504c-0.48976,-0.64929 -0.63824,-1.79968 -0.65003,-2.89026c-0.01522,-1.40891 0.19771,-2.71803 0.19771,-2.71803l2.32594,2.28381"/><path d="M180.4563,250.05533l1.95048,-1.32595"/></g><g data-paper-data="{&quot;index&quot;:null}" fill="none" stroke="#000000" stroke-width="0.5" stroke-linecap="round"><path d="M433.43811,277.69354v5h-5.5l2.5,-2"/><path d="M429.93811,284.69354l-1.75,-2"/></g><path d="M192.15281,281.44188v-22.5h9v22.5z" data-paper-data="{&quot;index&quot;:null}" fill="#c5c6c8" stroke="#d0d4d4" stroke-width="0.5" stroke-linecap="butt"/></g></g></svg>