<svg version="1.1" xmlns="http://www.w3.org/2000/svg" xmlns:xlink="http://www.w3.org/1999/xlink" width="459.46093" height="337.44434" viewBox="0,0,459.46093,337.44434"><g transform="translate(-0.77856,-8.87015)"><g data-paper-data="{&quot;isPaintingLayer&quot;:true}" fill-rule="nonzero" stroke-linejoin="miter" stroke-miterlimit="10" stroke-dasharray="" stroke-dashoffset="0" style="mix-blend-mode: normal"><path d="M414.05903,230.01041c42.80084,8.39702 35.50851,32.01625 6,45c-29.50851,12.98375 -93,35 -93,35c0,0 -38.09135,28.25511 -60,18c-21.90865,-10.25511 -20.94707,-28.54969 -33,-33c-12.05293,-4.45031 -48,27 -48,27c0,0 -11.08709,10.88941 -27,10c-41.1937,-2.30241 -64.51803,-89.18558 -56,-96c8.51803,-6.81442 7.86084,-45.42879 12,-61c4.13917,-15.5712 -58.95963,-57.0202 -64.94658,-69.15359c-5.9624,-12.08363 -34.3449,-66.0706 -7.5,-69c72.55281,-7.91718 139.97402,41.70299 164.5,35c24.52598,-6.70299 -9.80129,-27.26756 8.52889,-40.97153c18.33018,-13.70397 47.26615,-3.74791 62,-3c13.03646,0.66175 102.81,6.4131 104.5,21c0.35874,3.09641 3.08594,71.91145 2.12417,74.87649c-2.88531,8.89511 -15.93629,20.88797 -27.57431,33.28875c-12.24311,13.04553 -58.27452,-25.05049 -58.27452,-25.05049c0,0 -59.12901,0.17468 -59.21159,14.04759c-0.24264,40.7639 3.37826,67.95241 3.37826,67.95241c0,0 41.35359,45.68064 70.00435,39.92576c9.55025,-1.91829 58.6705,-32.31241 101.47133,-23.91539z" data-paper-data="{&quot;origPos&quot;:null}" fill="none" stroke="#7a9c5b" stroke-width="32.12458" stroke-linecap="round"/><path d="M223.73215,177.05004h32.25l0.14286,5.9h-32.25z" data-paper-data="{&quot;origPos&quot;:null}" fill="#ffffff" stroke="none" stroke-width="1" stroke-linecap="butt"/><path d="M88.9384,228.74848c0,0 -37.03819,-27.66624 -45.17872,-31.61823c-8.14053,-3.95199 -12.59492,-7.74335 -16.16842,-16.20959c-3.5735,-8.46624 -5.82407,-10.12018 -0.2967,-22.79913c5.52736,-12.67895 23.95385,-27.24543 23.95385,-27.24543" data-paper-data="{&quot;origPos&quot;:null,&quot;origRot&quot;:0}" fill="none" stroke="#7a9c5b" stroke-width="32.12457" stroke-linecap="round"/><path d="M338.50001,87.50001l-23.5,-15.5" data-paper-data="{&quot;origPos&quot;:null}" fill="none" stroke="#7a9c5b" stroke-width="25" stroke-linecap="round"/><path d="M14.45578,115.12985l-13.67722,-95.0207l136.76568,-11.239c0,0 49.23303,48.86932 53.22249,65.427c7.20219,29.89168 18.45473,49.5937 18.45473,49.5937c0,0 -38.35251,0.52979 -63.06139,-5.54216c-24.82257,-6.09988 -39.26448,-28.15815 -64.24751,-22.7529c-14.67802,3.17569 -8.81127,13.10782 -8.81127,13.10782l-38.09688,3.27224c0,0 0.05416,-6.76107 -8.87365,-5.78278c-6.89788,0.75585 -11.67496,8.93679 -11.67496,8.93679z" data-paper-data="{&quot;origRot&quot;:0,&quot;origPos&quot;:null}" fill="#7a9c5b" stroke="none" stroke-width="0" stroke-linecap="butt"/><g fill="#00805e" stroke="none" stroke-width="0" stroke-linecap="butt"><path d="M224.36041,179.12548v-1.83996h1.83995v1.83996z"/><path d="M224.3604,182.80539v-1.83996h1.83996v1.83996z"/><path d="M226.20036,180.96544v-1.83995h1.83996v1.83995z"/><path d="M228.04031,179.12548v-1.83996h1.83997v1.83996z"/><path d="M228.04031,182.80539v-1.83996h1.83997v1.83996z"/><path d="M229.88027,180.96544v-1.83995h1.83996v1.83995z"/><path d="M231.72022,179.12548v-1.83996h1.83996v1.83996z"/><path d="M231.72022,182.80539v-1.83996h1.83996v1.83996z"/><path d="M233.56017,180.96544v-1.83995h1.83996v1.83995z"/><path d="M235.40013,179.12548v-1.83996h1.83996v1.83996z"/><path d="M235.40013,182.80539v-1.83996h1.83996v1.83996z"/><path d="M237.24009,180.96544v-1.83995h1.83996v1.83995z"/><path d="M239.08004,179.12548v-1.83996h1.83996v1.83996z"/><path d="M239.08004,182.80539v-1.83996h1.83996v1.83996z"/><path d="M240.91999,180.96544v-1.83995h1.83996v1.83995z"/><path d="M242.75995,179.12548v-1.83996h1.83996v1.83996z"/><path d="M242.75995,182.80539v-1.83996h1.83996v1.83996z"/><path d="M244.5999,180.96544v-1.83995h1.83996v1.83995z"/><path d="M246.43985,179.12548v-1.83996h1.83996v1.83996z"/><path d="M246.43985,182.80539v-1.83996h1.83996v1.83996z"/><path d="M248.27981,180.96544v-1.83995h1.83996v1.83995z"/><path d="M250.11976,179.12548v-1.83996h1.83996v1.83996z"/><path d="M250.11976,182.80539v-1.83996h1.83996v1.83996z"/><path d="M251.95972,180.96544v-1.83995h1.83995v1.83995z"/><path d="M253.79966,179.12548v-1.83996h1.83996v1.83996z"/><path d="M253.79966,182.80539v-1.83996h1.83996v1.83996z"/></g></g></g></svg>