<svg version="1.1" xmlns="http://www.w3.org/2000/svg" xmlns:xlink="http://www.w3.org/1999/xlink" width="31.81296" height="29.56508" viewBox="0,0,31.81296,29.56508"><g transform="translate(-224.09352,-165.21746)"><g data-paper-data="{&quot;isPaintingLayer&quot;:true}" fill-rule="nonzero" stroke-linejoin="miter" stroke-miterlimit="10" stroke-dasharray="" stroke-dashoffset="0" style="mix-blend-mode: normal"><g><path d="M254.36925,189.66477l-0.24239,1.19465l-0.42732,0.83284l-1.15809,0.93298l-1.0773,0.53476l-6.05586,0.75238l-1.20622,0.08785l-1.68418,-0.93066l-0.74765,-0.51699l-0.46612,-2.41386l0.59538,-1.08816l1.15809,-0.93298l1.05252,-0.22165l3.73069,-0.43377l3.11842,0.03727l2.57259,0.49921l0.81408,0.50788z" data-paper-data="{&quot;origPos&quot;:null,&quot;index&quot;:null,&quot;origRot&quot;:0}" fill="#1dc90b" stroke="#000000" stroke-width="0" stroke-linecap="round"/><g><path d="M253.43246,179.91351c0,3.42802 0.18649,5.10642 -2.06161,7.69435c-3.27125,3.76574 -7.14337,3.76075 -12.13154,3.76075c-7.9621,0 -14.19315,-3.14695 -14.19315,-10.33753c0,-7.19058 4.88996,-15.81362 12.85206,-15.81362c4.6052,0 5.87862,0.20855 9.44902,3.11717c3.5704,2.90862 2.97332,2.18441 4.41779,4.76099c1.44447,2.57658 1.66743,3.38987 1.66743,6.81789z" data-paper-data="{&quot;origPos&quot;:null}" fill="#8e4108" stroke="none" stroke-width="NaN" stroke-linecap="butt"/><path d="M253.45782,180.08726c0,0 0.49907,4.83738 -1.77014,7.48693c-3.30197,3.8554 -7.21044,3.85029 -12.24545,3.85029c-3.40603,0 -9.3466,-1.64756 -9.79131,-1.81783c-0.14823,-0.05675 1.66924,-5.33329 1.66924,-5.33329c0,0 2.00291,-4.86276 10.03977,-4.86276c8.03687,0 12.09789,0.67666 12.09789,0.67666z" data-paper-data="{&quot;origPos&quot;:null}" fill="#fcdda0" stroke="none" stroke-width="NaN" stroke-linecap="butt"/><path d="M251.1879,177.46979c0,2.51516 -0.21918,4.0987 -1.46922,4.0987c-0.82721,0 -1.84163,0.50613 -2.45542,-0.2889c-0.61378,-0.79503 -0.60215,-2.36674 -0.60215,-3.8098c0,-2.51516 1.01335,-4.55411 2.26339,-4.55411c1.25004,0 2.26339,2.03895 2.26339,4.55411c0,2.51516 0,-2.51516 0,0z" data-paper-data="{&quot;origPos&quot;:null}" fill="#ffffff" stroke="#ffffff" stroke-width="0" stroke-linecap="butt"/><path d="M250.84904,177.43082c0.26077,0.43902 0.42268,1.04473 0.42268,1.71357c0,0.66884 -0.16149,1.27497 -0.42268,1.71357c-0.26119,0.43861 -0.62124,0.71052 -1.0192,0.71052c-0.39796,0 -0.75843,-0.2715 -1.0192,-0.71052c-0.26077,-0.43902 -0.42268,-1.04473 -0.42268,-1.71357c0,-0.66884 0.16149,-1.27497 0.42268,-1.71357c0.26119,-0.43861 0.62124,-0.71052 1.0192,-0.71052c0.39796,0 0.75843,0.2715 1.0192,0.71052z" data-paper-data="{&quot;origPos&quot;:null}" fill="#000000" stroke="none" stroke-width="1" stroke-linecap="butt"/><path d="M241.29346,182.11247c-0.92402,0 -2.05717,0.5301 -2.74279,-0.30259c-0.68562,-0.83269 -0.67262,-2.47885 -0.67262,-3.99027c0,-2.63431 1.13195,-4.76984 2.52829,-4.76984c1.39633,0 2.5283,2.13553 2.5283,4.76984c0,2.63431 -0.24484,4.29286 -1.64118,4.29286z" data-paper-data="{&quot;origPos&quot;:null}" fill="#ffffff" stroke="#ffffff" stroke-width="0" stroke-linecap="butt"/><path d="M242.40179,177.92471c0.27586,0.44679 0.44714,1.06323 0.44714,1.74392c0,0.68068 -0.17084,1.29754 -0.44714,1.74391c-0.2763,0.44637 -0.6572,0.7231 -1.07819,0.7231c-0.42099,0 -0.80232,-0.27631 -1.07819,-0.7231c-0.27586,-0.44679 -0.44714,-1.06323 -0.44714,-1.74391c0,-0.68068 0.17084,-1.29754 0.44714,-1.74392c0.2763,-0.44637 0.6572,-0.72309 1.07819,-0.72309c0.42099,0 0.80232,0.2763 1.07819,0.72309z" data-paper-data="{&quot;origPos&quot;:null}" fill="#000000" stroke="none" stroke-width="1" stroke-linecap="butt"/><path d="M242.89312,175.24409c-0.45313,-0.37596 -0.48858,-1.24502 -1.10684,-1.76599c-0.61826,-0.52098 -2.05817,-0.00917 -2.82671,-0.0738c-0.76853,-0.06462 -1.02787,0.40099 -1.53255,0.6036c-0.50468,0.20261 -1.61446,1.71637 -2.02637,1.28918c-0.41191,-0.42719 -0.3146,-2.55809 0.17028,-2.94922c0.48489,-0.39112 1.16406,-1.11277 1.68581,-1.24439c0.52175,-0.13162 3.18603,-0.30985 3.79732,0.01451c0.6113,0.32435 0.91292,0.57387 1.75392,1.03562c0.841,0.46175 1.3968,0.81157 2.38397,0.883c0.98717,0.07143 2.22203,-0.4251 2.99699,-1.0596c0.77496,-0.6345 0.77943,-1.18964 1.3793,-1.43046c0.59987,-0.24082 0.85155,-0.16273 1.32821,-0.19239c0.47667,-0.02966 0.88738,-0.27232 2.06043,-0.029c1.17305,0.24332 1.76396,0.79469 2.2818,1.35163c0.51784,0.55694 0.97098,2.47356 0.40868,2.77262c-0.5623,0.29906 -2.03593,-1.45516 -3.59298,-1.24754c-1.55705,0.20762 -3.04462,0.01249 -3.79732,0.45284c-0.7527,0.44035 -0.75572,0.67336 -1.27713,1.0596c-0.52141,0.38625 -0.62384,0.54481 -1.10684,0.7064c-0.483,0.16159 -0.93021,0.2123 -1.53255,0.1766c-0.60234,-0.0357 -0.99428,0.02275 -1.44741,-0.3532z" data-paper-data="{&quot;origPos&quot;:null}" fill="#000000" stroke="#000000" stroke-width="0" stroke-linecap="round"/><path d="M244.1666,174.69822c-0.3953,-0.58563 -0.59409,-1.80204 0,-2.68217c0.59409,-0.88013 1.36716,-0.65675 1.81046,0c0.44331,0.65675 0.59579,1.79951 0,2.68217c-0.59579,0.88266 -1.41517,0.58563 -1.81046,0z" data-paper-data="{&quot;origPos&quot;:null}" fill="#8e4108" stroke="none" stroke-width="0" stroke-linecap="butt"/><path d="M247.11365,172.21688c-0.00569,0.05687 -0.01573,0.1084 -0.02936,0.15511c-0.01363,0.0467 0.03269,-0.36711 0.03269,-0.02067c0,0.34645 0,0.69289 0,1.03934c0,0.34645 -1.40804,3.05102 -3.15155,2.17926c-1.13978,-0.56989 -0.87171,-2.6793 -0.87171,-3.68798c0,-1.00868 0,-0.67054 0.67054,-0.67054c0.67054,0 0.67054,0.04545 0.67054,0.67054c0,0.56369 -0.06331,1.83636 0,2.07868c0.15716,0.60153 0.24797,0.43323 0.4039,0.60234c0.15593,0.16911 -0.01152,-0.04602 -0.00158,-0.06591c0.00994,-0.01989 0.58095,-0.02162 0.81313,-0.17288c0.23218,-0.15126 0.14122,-0.64932 0.12563,-0.93351c-0.0156,-0.28419 0,-0.69289 0,-1.03934c0,-0.34645 0.28399,-0.82283 0.73726,-0.86838c0.45327,-0.04555 0.66721,0.06672 0.60049,0.73394c-0.06672,0.66722 0.00569,-0.05687 0,0z" data-paper-data="{&quot;origPos&quot;:null}" fill="#5a2c0a" stroke="none" stroke-width="0.5" stroke-linecap="butt"/><path d="M236.35481,186.06838l-1.09578,-3.46985c0,0 0.55868,0.05171 0.91627,0.14032c0.35515,0.08801 0.91003,0.31227 0.91003,0.31227c0,0 0.63089,0.26413 1.03469,0.59975c0.17352,0.14422 0.44461,0.62978 0.44461,0.62978l0.46875,0.88255z" data-paper-data="{&quot;origPos&quot;:null}" fill="#ffffff" stroke="#ffffff" stroke-width="0" stroke-linecap="round"/><path d="M249.75371,183.5173c0,0 0.24983,-0.3963 0.40973,-0.59444c0.18088,-0.22413 0.46349,-0.48756 0.46349,-0.48756c0,0 0.3309,-0.1861 0.5875,-0.24969c0.16938,-0.04198 0.50403,-0.02081 0.50403,-0.02081l0.10915,4.19273l-2.72881,-1.21724c0,0 0.16213,-0.4018 0.31072,-0.77002c0.10701,-0.26517 0.34419,-0.85297 0.34419,-0.85297z" data-paper-data="{&quot;origPos&quot;:null}" fill="#ffffff" stroke="#ffffff" stroke-width="0" stroke-linecap="round"/><path d="M234.87525,187.60872c-0.03564,-0.86671 0.36373,-0.84242 0.53951,-0.88419c0.17577,-0.04176 1.05133,-0.77852 1.61913,-1.05036c0.5678,-0.27185 2.92985,-1.3572 3.54923,-1.58339c0.61938,-0.22619 2.44241,-0.12636 2.83571,-0.26197c0.3933,-0.13561 4.63876,0.83526 5.37865,0.98138c0.81094,0.16015 1.28656,0.56734 1.88112,0.94133c0.19819,0.12466 0.30996,0.19428 0.50966,0.3165c1.34629,0.82394 0.73583,0.36388 0.46691,1.14905c-0.26892,0.78517 -0.53756,0.4396 -1.63002,-0.22898c-1.09246,-0.66859 -1.39555,-0.63782 -2.58135,-1.05193c-1.18579,-0.41411 -4.23153,-1.2435 -6.25518,-0.19882c-2.02366,1.04467 -2.8567,0.94727 -3.3726,1.31182c-0.51591,0.36455 -1.28291,1.21184 -2.24694,1.39527c-0.96404,0.18343 -0.65819,0.031 -0.69383,-0.83571z" data-paper-data="{&quot;origPos&quot;:null,&quot;origRot&quot;:0}" fill="#c7a96f" stroke="none" stroke-width="0.5" stroke-linecap="butt"/></g><path d="M224.11688,189.28884l0.81408,-0.50788l2.5726,-0.49921l3.11842,-0.03727l3.73069,0.43377l1.05252,0.22165l1.15809,0.93298l0.59538,1.08816l-0.46612,2.41386l-0.74765,0.51698l-1.68418,0.93066l-1.20622,-0.08785l-6.05586,-0.75238l-1.0773,-0.53476l-1.15809,-0.93298l-0.42733,-0.83285l-0.24239,-1.19465z" data-paper-data="{&quot;origPos&quot;:null,&quot;index&quot;:null,&quot;origRot&quot;:0}" fill="#1dc90b" stroke="#000000" stroke-width="0" stroke-linecap="round"/></g></g></g></svg>