<svg version="1.1" xmlns="http://www.w3.org/2000/svg" xmlns:xlink="http://www.w3.org/1999/xlink" width="462.21106" height="349.96671" viewBox="0,0,462.21106,349.96671"><defs><linearGradient x1="78.29299" y1="-0.67869" x2="78.29299" y2="14.0356" gradientUnits="userSpaceOnUse" id="color-1"><stop offset="0" stop-color="#f1ebfa"/><stop offset="1" stop-color="#f1ebfa" stop-opacity="0"/></linearGradient><linearGradient x1="105.29299" y1="35.32131" x2="105.29299" y2="50.0356" gradientUnits="userSpaceOnUse" id="color-2"><stop offset="0" stop-color="#f1ebfa"/><stop offset="1" stop-color="#f1ebfa" stop-opacity="0"/></linearGradient><linearGradient x1="141.79299" y1="5.82131" x2="141.79299" y2="20.5356" gradientUnits="userSpaceOnUse" id="color-3"><stop offset="0" stop-color="#f1ebfa"/><stop offset="1" stop-color="#f1ebfa" stop-opacity="0"/></linearGradient><linearGradient x1="210.79299" y1="2.32133" x2="210.79299" y2="23.53561" gradientUnits="userSpaceOnUse" id="color-4"><stop offset="0" stop-color="#f1ebfa"/><stop offset="1" stop-color="#f1ebfa" stop-opacity="0"/></linearGradient><linearGradient x1="225.29299" y1="39.82133" x2="225.29299" y2="61.03561" gradientUnits="userSpaceOnUse" id="color-5"><stop offset="0" stop-color="#f1ebfa"/><stop offset="1" stop-color="#f1ebfa" stop-opacity="0"/></linearGradient><linearGradient x1="173.29299" y1="47.82131" x2="173.29299" y2="62.5356" gradientUnits="userSpaceOnUse" id="color-6"><stop offset="0" stop-color="#f1ebfa"/><stop offset="1" stop-color="#f1ebfa" stop-opacity="0"/></linearGradient><linearGradient x1="19.34854" y1="96.43242" x2="19.34854" y2="111.14671" gradientUnits="userSpaceOnUse" id="color-7"><stop offset="0" stop-color="#f1ebfa"/><stop offset="1" stop-color="#f1ebfa" stop-opacity="0"/></linearGradient><linearGradient x1="52.36521" y1="49.19353" x2="52.36521" y2="63.90782" gradientUnits="userSpaceOnUse" id="color-8"><stop offset="0" stop-color="#f1ebfa"/><stop offset="1" stop-color="#f1ebfa" stop-opacity="0"/></linearGradient><linearGradient x1="-6.0959" y1="74.3213" x2="-6.0959" y2="89.0356" gradientUnits="userSpaceOnUse" id="color-9"><stop offset="0" stop-color="#f1ebfa"/><stop offset="1" stop-color="#f1ebfa" stop-opacity="0"/></linearGradient><linearGradient x1="16.54299" y1="64.57131" x2="16.54299" y2="79.2856" gradientUnits="userSpaceOnUse" id="color-10"><stop offset="0" stop-color="#f1ebfa"/><stop offset="1" stop-color="#f1ebfa" stop-opacity="0"/></linearGradient><linearGradient x1="48.43188" y1="66.34909" x2="48.43188" y2="81.06338" gradientUnits="userSpaceOnUse" id="color-11"><stop offset="0" stop-color="#f1ebfa"/><stop offset="1" stop-color="#f1ebfa" stop-opacity="0"/></linearGradient><linearGradient x1="226.16344" y1="187.56449" x2="226.16344" y2="202.27878" gradientUnits="userSpaceOnUse" id="color-12"><stop offset="0" stop-color="#f1ebfa"/><stop offset="1" stop-color="#f1ebfa" stop-opacity="0"/></linearGradient><linearGradient x1="212.28844" y1="157.18949" x2="212.28844" y2="171.90378" gradientUnits="userSpaceOnUse" id="color-13"><stop offset="0" stop-color="#f1ebfa"/><stop offset="1" stop-color="#f1ebfa" stop-opacity="0"/></linearGradient><linearGradient x1="202.90965" y1="176.20464" x2="202.90965" y2="190.91893" gradientUnits="userSpaceOnUse" id="color-14"><stop offset="0" stop-color="#f1ebfa"/><stop offset="1" stop-color="#f1ebfa" stop-opacity="0"/></linearGradient><linearGradient x1="175.07632" y1="169.53798" x2="175.07632" y2="184.25227" gradientUnits="userSpaceOnUse" id="color-15"><stop offset="0" stop-color="#f1ebfa"/><stop offset="1" stop-color="#f1ebfa" stop-opacity="0"/></linearGradient><linearGradient x1="186.74298" y1="198.03798" x2="186.74298" y2="212.75227" gradientUnits="userSpaceOnUse" id="color-16"><stop offset="0" stop-color="#f1ebfa"/><stop offset="1" stop-color="#f1ebfa" stop-opacity="0"/></linearGradient><linearGradient x1="261.2051" y1="168.81449" x2="261.2051" y2="183.52878" gradientUnits="userSpaceOnUse" id="color-17"><stop offset="0" stop-color="#f1ebfa"/><stop offset="1" stop-color="#f1ebfa" stop-opacity="0"/></linearGradient><linearGradient x1="258.8301" y1="149.06449" x2="258.8301" y2="163.77878" gradientUnits="userSpaceOnUse" id="color-18"><stop offset="0" stop-color="#f1ebfa"/><stop offset="1" stop-color="#f1ebfa" stop-opacity="0"/></linearGradient><linearGradient x1="232.67632" y1="122.00464" x2="232.67632" y2="136.71893" gradientUnits="userSpaceOnUse" id="color-19"><stop offset="0" stop-color="#f1ebfa"/><stop offset="1" stop-color="#f1ebfa" stop-opacity="0"/></linearGradient><linearGradient x1="150.47632" y1="84.80464" x2="150.47632" y2="99.51893" gradientUnits="userSpaceOnUse" id="color-20"><stop offset="0" stop-color="#f1ebfa"/><stop offset="1" stop-color="#f1ebfa" stop-opacity="0"/></linearGradient><linearGradient x1="211.47632" y1="97.20464" x2="211.47632" y2="111.91893" gradientUnits="userSpaceOnUse" id="color-21"><stop offset="0" stop-color="#f1ebfa"/><stop offset="1" stop-color="#f1ebfa" stop-opacity="0"/></linearGradient><linearGradient x1="172.67632" y1="121.00464" x2="172.67632" y2="135.71893" gradientUnits="userSpaceOnUse" id="color-22"><stop offset="0" stop-color="#f1ebfa"/><stop offset="1" stop-color="#f1ebfa" stop-opacity="0"/></linearGradient><linearGradient x1="316.55" y1="160.25625" x2="316.55" y2="186.05625" gradientUnits="userSpaceOnUse" id="color-23"><stop offset="0" stop-color="#e9e4f7" stop-opacity="0.62966"/><stop offset="1" stop-color="#e9e4f7" stop-opacity="0"/></linearGradient><linearGradient x1="307.7" y1="111.20625" x2="307.7" y2="137.00625" gradientUnits="userSpaceOnUse" id="color-24"><stop offset="0" stop-color="#e9e4f7" stop-opacity="0.62966"/><stop offset="1" stop-color="#e9e4f7" stop-opacity="0"/></linearGradient><linearGradient x1="361.15" y1="126.65625" x2="361.15" y2="152.45625" gradientUnits="userSpaceOnUse" id="color-25"><stop offset="0" stop-color="#e9e4f7" stop-opacity="0.62966"/><stop offset="1" stop-color="#e9e4f7" stop-opacity="0"/></linearGradient><linearGradient x1="383.55" y1="154.25625" x2="383.55" y2="180.05625" gradientUnits="userSpaceOnUse" id="color-26"><stop offset="0" stop-color="#e9e4f7" stop-opacity="0.62966"/><stop offset="1" stop-color="#e9e4f7" stop-opacity="0"/></linearGradient><linearGradient x1="395.75" y1="114.05625" x2="395.75" y2="139.85625" gradientUnits="userSpaceOnUse" id="color-27"><stop offset="0" stop-color="#e9e4f7" stop-opacity="0.62966"/><stop offset="1" stop-color="#e9e4f7" stop-opacity="0"/></linearGradient><linearGradient x1="351.5" y1="190.80625" x2="351.5" y2="216.60625" gradientUnits="userSpaceOnUse" id="color-28"><stop offset="0" stop-color="#e9e4f7" stop-opacity="0.62966"/><stop offset="1" stop-color="#e9e4f7" stop-opacity="0"/></linearGradient><linearGradient x1="415.41344" y1="252.06449" x2="415.41344" y2="266.77878" gradientUnits="userSpaceOnUse" id="color-29"><stop offset="0" stop-color="#f1ebfa"/><stop offset="1" stop-color="#f1ebfa" stop-opacity="0"/></linearGradient><linearGradient x1="400.53844" y1="216.68949" x2="400.53844" y2="231.40378" gradientUnits="userSpaceOnUse" id="color-30"><stop offset="0" stop-color="#f1ebfa"/><stop offset="1" stop-color="#f1ebfa" stop-opacity="0"/></linearGradient><linearGradient x1="365.15965" y1="96.70464" x2="365.15965" y2="111.41893" gradientUnits="userSpaceOnUse" id="color-31"><stop offset="0" stop-color="#f1ebfa"/><stop offset="1" stop-color="#f1ebfa" stop-opacity="0"/></linearGradient><linearGradient x1="361.82632" y1="220.03798" x2="361.82632" y2="234.75227" gradientUnits="userSpaceOnUse" id="color-32"><stop offset="0" stop-color="#f1ebfa"/><stop offset="1" stop-color="#f1ebfa" stop-opacity="0"/></linearGradient><linearGradient x1="374.99298" y1="257.53798" x2="374.99298" y2="272.25227" gradientUnits="userSpaceOnUse" id="color-33"><stop offset="0" stop-color="#f1ebfa"/><stop offset="1" stop-color="#f1ebfa" stop-opacity="0"/></linearGradient><linearGradient x1="433.4551" y1="231.31449" x2="433.4551" y2="246.02878" gradientUnits="userSpaceOnUse" id="color-34"><stop offset="0" stop-color="#f1ebfa"/><stop offset="1" stop-color="#f1ebfa" stop-opacity="0"/></linearGradient><linearGradient x1="330.0801" y1="98.56449" x2="330.0801" y2="113.27878" gradientUnits="userSpaceOnUse" id="color-35"><stop offset="0" stop-color="#f1ebfa"/><stop offset="1" stop-color="#f1ebfa" stop-opacity="0"/></linearGradient><linearGradient x1="420.92632" y1="181.50464" x2="420.92632" y2="196.21893" gradientUnits="userSpaceOnUse" id="color-36"><stop offset="0" stop-color="#f1ebfa"/><stop offset="1" stop-color="#f1ebfa" stop-opacity="0"/></linearGradient><linearGradient x1="338.72632" y1="144.30464" x2="338.72632" y2="159.01893" gradientUnits="userSpaceOnUse" id="color-37"><stop offset="0" stop-color="#f1ebfa"/><stop offset="1" stop-color="#f1ebfa" stop-opacity="0"/></linearGradient><linearGradient x1="399.72632" y1="156.70464" x2="399.72632" y2="171.41893" gradientUnits="userSpaceOnUse" id="color-38"><stop offset="0" stop-color="#f1ebfa"/><stop offset="1" stop-color="#f1ebfa" stop-opacity="0"/></linearGradient><linearGradient x1="360.92632" y1="180.50464" x2="360.92632" y2="195.21893" gradientUnits="userSpaceOnUse" id="color-39"><stop offset="0" stop-color="#f1ebfa"/><stop offset="1" stop-color="#f1ebfa" stop-opacity="0"/></linearGradient><linearGradient x1="261.15" y1="293.98958" x2="261.15" y2="319.78958" gradientUnits="userSpaceOnUse" id="color-40"><stop offset="0" stop-color="#e9e4f7" stop-opacity="0.62966"/><stop offset="1" stop-color="#e9e4f7" stop-opacity="0"/></linearGradient><linearGradient x1="309.81667" y1="263.32292" x2="309.81667" y2="289.12292" gradientUnits="userSpaceOnUse" id="color-41"><stop offset="0" stop-color="#e9e4f7" stop-opacity="0.62966"/><stop offset="1" stop-color="#e9e4f7" stop-opacity="0"/></linearGradient><linearGradient x1="323.48333" y1="312.98959" x2="323.48333" y2="338.78959" gradientUnits="userSpaceOnUse" id="color-42"><stop offset="0" stop-color="#e9e4f7" stop-opacity="0.62966"/><stop offset="1" stop-color="#e9e4f7" stop-opacity="0"/></linearGradient></defs><g transform="translate(17.42589,11.17712)"><g data-paper-data="{&quot;isPaintingLayer&quot;:true}" fill-rule="nonzero" stroke="none" stroke-linecap="butt" stroke-linejoin="miter" stroke-miterlimit="10" stroke-dasharray="" stroke-dashoffset="0" style="mix-blend-mode: normal"><g><path d="M86.61187,13.08826c-0.18533,0.10676 -0.36713,0.17234 -0.54796,0.21364c-0.23067,0.06853 -0.47501,0.10533 -0.72794,0.10533c-0.1012,0 -0.20103,-0.00589 -0.29916,-0.01735c-0.07727,0.00408 -0.15522,0.00946 -0.234,0.01735c-0.96787,0.09691 -1.51498,0.16542 -2.44404,0.20415c-0.8376,0.03491 -1.69642,0.19983 -2.5347,0.20415c-0.8624,0.00445 -1.72501,-0.01797 -2.58724,0c-0.31658,0.0066 -0.31101,0.09561 -0.67906,0.10207c-0.62415,0.01095 -1.24874,-0.01735 -1.87274,0c-0.37749,0.01049 -0.76243,0.11798 -1.14884,0.11798c-1.12353,0 -2.71139,-0.52626 -2.89859,-0.52626c-1.40932,0 -3.6746,-2.67356 -3.6746,-4.08289c0,-1.40932 1.14248,-2.55181 2.55181,-2.55181c0.058,0 0.11554,0.00193 0.17258,0.00574c-0.11144,-0.28662 -0.17258,-0.59837 -0.17258,-0.92439c0,-1.40932 1.14248,-2.55181 2.55181,-2.55181c0.45396,0 0.88023,0.11853 1.24955,0.32634c0.28333,-0.86323 1.01473,-1.52331 1.91916,-1.70521c-0.00296,-0.05036 -0.00446,-0.10111 -0.00446,-0.15222c0,-1.40932 1.14248,-2.55181 2.55181,-2.55181c1.04227,0 1.9386,0.62488 2.33479,1.52043c0.44434,-0.37545 1.01875,-0.60178 1.64602,-0.60178c1.40932,0 2.55181,1.14248 2.55181,2.55181c0,0.14844 -0.01268,0.29391 -0.03699,0.4354c0.37214,-0.21213 0.80285,-0.33333 1.26186,-0.33333c1.40932,0 2.55181,1.14248 2.55181,2.55181c0,0.27053 -0.0421,0.53123 -0.1201,0.7759c0.9649,0.36404 1.65118,1.29604 1.65118,2.38833c0,1.12593 -0.72921,2.08155 -1.74112,2.42033c-0.02996,0.44301 -0.17299,0.855 -0.40045,1.20737c-0.15777,0.31661 -0.40237,0.58156 -0.86956,0.85071z" fill="url(#color-1)" stroke-width="0.5"/><path d="M113.61187,49.08826c-0.18533,0.10676 -0.36713,0.17234 -0.54796,0.21364c-0.23067,0.06853 -0.47501,0.10533 -0.72794,0.10533c-0.1012,0 -0.20103,-0.00589 -0.29916,-0.01735c-0.07727,0.00408 -0.15522,0.00946 -0.234,0.01735c-0.96787,0.09691 -1.51498,0.16542 -2.44404,0.20415c-0.8376,0.03491 -1.69642,0.19983 -2.5347,0.20415c-0.8624,0.00445 -1.72501,-0.01797 -2.58724,0c-0.31658,0.0066 -0.31101,0.09561 -0.67906,0.10207c-0.62415,0.01095 -1.24874,-0.01735 -1.87274,0c-0.37749,0.01049 -0.76243,0.11798 -1.14884,0.11798c-1.12353,0 -2.71139,-0.52626 -2.89859,-0.52626c-1.40932,0 -3.6746,-2.67356 -3.6746,-4.08289c0,-1.40932 1.14248,-2.55181 2.55181,-2.55181c0.058,0 0.11554,0.00193 0.17258,0.00574c-0.11144,-0.28662 -0.17258,-0.59837 -0.17258,-0.92439c0,-1.40932 1.14248,-2.55181 2.55181,-2.55181c0.45396,0 0.88023,0.11853 1.24955,0.32634c0.28333,-0.86323 1.01473,-1.52331 1.91916,-1.70521c-0.00296,-0.05036 -0.00446,-0.10111 -0.00446,-0.15222c0,-1.40932 1.14248,-2.55181 2.55181,-2.55181c1.04227,0 1.9386,0.62488 2.33479,1.52043c0.44434,-0.37545 1.01875,-0.60178 1.64602,-0.60178c1.40932,0 2.55181,1.14248 2.55181,2.55181c0,0.14844 -0.01268,0.29391 -0.03699,0.4354c0.37214,-0.21213 0.80285,-0.33333 1.26186,-0.33333c1.40932,0 2.55181,1.14248 2.55181,2.55181c0,0.27053 -0.0421,0.53123 -0.1201,0.7759c0.9649,0.36404 1.65118,1.29604 1.65118,2.38833c0,1.12593 -0.72921,2.08155 -1.74112,2.42033c-0.02996,0.44301 -0.17299,0.855 -0.40045,1.20737c-0.15777,0.31661 -0.40237,0.58156 -0.86956,0.85071z" fill="url(#color-2)" stroke-width="0.5"/><path d="M150.11187,19.58826c-0.18533,0.10676 -0.36713,0.17234 -0.54796,0.21364c-0.23067,0.06853 -0.47501,0.10533 -0.72794,0.10533c-0.1012,0 -0.20103,-0.00589 -0.29916,-0.01735c-0.07727,0.00408 -0.15522,0.00946 -0.234,0.01735c-0.96787,0.09691 -1.51498,0.16542 -2.44404,0.20415c-0.8376,0.03491 -1.69642,0.19983 -2.5347,0.20415c-0.8624,0.00445 -1.72501,-0.01797 -2.58724,0c-0.31658,0.0066 -0.31101,0.09561 -0.67906,0.10207c-0.62415,0.01095 -1.24874,-0.01735 -1.87274,0c-0.37749,0.01049 -0.76243,0.11798 -1.14884,0.11798c-1.12353,0 -2.71139,-0.52626 -2.89859,-0.52626c-1.40932,0 -3.6746,-2.67356 -3.6746,-4.08289c0,-1.40932 1.14248,-2.55181 2.55181,-2.55181c0.058,0 0.11554,0.00193 0.17258,0.00574c-0.11144,-0.28662 -0.17258,-0.59837 -0.17258,-0.92439c0,-1.40932 1.14248,-2.55181 2.55181,-2.55181c0.45396,0 0.88023,0.11853 1.24955,0.32634c0.28333,-0.86323 1.01473,-1.52331 1.91916,-1.70521c-0.00296,-0.05036 -0.00446,-0.10111 -0.00446,-0.15222c0,-1.40932 1.14248,-2.55181 2.55181,-2.55181c1.04227,0 1.9386,0.62488 2.33479,1.52043c0.44434,-0.37545 1.01875,-0.60178 1.64602,-0.60178c1.40932,0 2.55181,1.14248 2.55181,2.55181c0,0.14844 -0.01268,0.29391 -0.03699,0.4354c0.37214,-0.21213 0.80285,-0.33333 1.26186,-0.33333c1.40932,0 2.55181,1.14248 2.55181,2.55181c0,0.27053 -0.0421,0.53123 -0.1201,0.7759c0.9649,0.36404 1.65118,1.29604 1.65118,2.38833c0,1.12593 -0.72921,2.08155 -1.74112,2.42033c-0.02996,0.44301 -0.17299,0.855 -0.40045,1.20737c-0.15777,0.31661 -0.40237,0.58156 -0.86956,0.85071z" fill="url(#color-3)" stroke-width="0.5"/><path d="M219.11187,22.16979c-0.18533,0.15392 -0.36713,0.24847 -0.54796,0.30801c-0.23067,0.0988 -0.47501,0.15186 -0.72794,0.15186c-0.1012,0 -0.20103,-0.00849 -0.29916,-0.02501c-0.07727,0.00588 -0.15522,0.01364 -0.234,0.02501c-0.96787,0.13972 -1.51498,0.23849 -2.44404,0.29433c-0.8376,0.05033 -1.69642,0.28811 -2.5347,0.29434c-0.8624,0.00642 -1.72501,-0.02591 -2.58724,0c-0.31658,0.00952 -0.31101,0.13784 -0.67906,0.14716c-0.62415,0.01579 -1.24874,-0.02501 -1.87274,0c-0.37749,0.01513 -0.76243,0.17009 -1.14884,0.17009c-1.12353,0 -2.71139,-0.75873 -2.89859,-0.75873c-1.40932,0 -3.6746,-3.8546 -3.6746,-5.88649c0,-2.03188 1.14248,-3.67906 2.55181,-3.67906c0.058,0 0.11554,0.00278 0.17258,0.00827c-0.11144,-0.41324 -0.17258,-0.86269 -0.17258,-1.33273c0,-2.03188 1.14248,-3.67906 2.55181,-3.67906c0.45396,0 0.88023,0.17089 1.24955,0.4705c0.28333,-1.24456 1.01473,-2.19622 1.91916,-2.45848c-0.00296,-0.07261 -0.00446,-0.14577 -0.00446,-0.21946c0,-2.03188 1.14248,-3.67906 2.55181,-3.67906c1.04227,0 1.9386,0.90092 2.33479,2.19207c0.44434,-0.54131 1.01875,-0.86761 1.64602,-0.86761c1.40932,0 2.55181,1.64717 2.55181,3.67907c0,0.21401 -0.01268,0.42374 -0.03699,0.62773c0.37214,-0.30584 0.80285,-0.48057 1.26186,-0.48057c1.40932,0 2.55181,1.64716 2.55181,3.67906c0,0.39003 -0.0421,0.7659 -0.1201,1.11865c0.9649,0.52486 1.65118,1.86856 1.65118,3.44337c0,1.6233 -0.72921,3.00107 -1.74112,3.4895c-0.02996,0.63871 -0.17299,1.23269 -0.40045,1.74072c-0.15777,0.45647 -0.40237,0.83846 -0.86956,1.2265z" fill="url(#color-4)" stroke-width="0.5"/><path d="M233.61187,59.66979c-0.18533,0.15392 -0.36713,0.24847 -0.54796,0.30802c-0.23067,0.0988 -0.47501,0.15186 -0.72794,0.15186c-0.1012,0 -0.20103,-0.0085 -0.29916,-0.02502c-0.07727,0.00588 -0.15522,0.01364 -0.234,0.02502c-0.96787,0.13972 -1.51498,0.23849 -2.44404,0.29433c-0.8376,0.05033 -1.69642,0.2881 -2.5347,0.29433c-0.8624,0.00641 -1.72501,-0.02591 -2.58724,0c-0.31658,0.00952 -0.31101,0.13784 -0.67906,0.14716c-0.62415,0.01579 -1.24874,-0.02502 -1.87274,0c-0.37749,0.01512 -0.76243,0.1701 -1.14884,0.1701c-1.12353,0 -2.71139,-0.75874 -2.89859,-0.75874c-1.40932,0 -3.6746,-3.8546 -3.6746,-5.88649c0,-2.03188 1.14248,-3.67907 2.55181,-3.67907c0.058,0 0.11554,0.00278 0.17258,0.00828c-0.11144,-0.41324 -0.17258,-0.8627 -0.17258,-1.33273c0,-2.03188 1.14248,-3.67907 2.55181,-3.67907c0.45396,0 0.88023,0.17089 1.24955,0.4705c0.28333,-1.24456 1.01473,-2.19622 1.91916,-2.45848c-0.00296,-0.07261 -0.00446,-0.14577 -0.00446,-0.21946c0,-2.03188 1.14248,-3.67906 2.55181,-3.67906c1.04227,0 1.9386,0.90092 2.33479,2.19207c0.44434,-0.54131 1.01875,-0.86762 1.64602,-0.86762c1.40932,0 2.55181,1.64717 2.55181,3.67907c0,0.21402 -0.01268,0.42374 -0.03699,0.62774c0.37214,-0.30584 0.80285,-0.48058 1.26186,-0.48058c1.40932,0 2.55181,1.64717 2.55181,3.67906c0,0.39003 -0.0421,0.7659 -0.1201,1.11865c0.9649,0.52486 1.65118,1.86857 1.65118,3.44337c0,1.62331 -0.72921,3.00106 -1.74112,3.4895c-0.02996,0.63871 -0.17299,1.23269 -0.40045,1.74072c-0.15777,0.45647 -0.40237,0.83846 -0.86956,1.22651z" fill="url(#color-5)" stroke-width="0.5"/><path d="M181.61187,61.58826c-0.18533,0.10676 -0.36713,0.17234 -0.54796,0.21364c-0.23067,0.06853 -0.47501,0.10533 -0.72794,0.10533c-0.1012,0 -0.20103,-0.00589 -0.29916,-0.01735c-0.07727,0.00408 -0.15522,0.00946 -0.234,0.01735c-0.96787,0.09691 -1.51498,0.16542 -2.44404,0.20415c-0.8376,0.03491 -1.69642,0.19983 -2.5347,0.20415c-0.8624,0.00445 -1.72501,-0.01797 -2.58724,0c-0.31658,0.0066 -0.31101,0.09561 -0.67906,0.10207c-0.62415,0.01095 -1.24874,-0.01735 -1.87274,0c-0.37749,0.01049 -0.76243,0.11798 -1.14884,0.11798c-1.12353,0 -2.71139,-0.52626 -2.89859,-0.52626c-1.40932,0 -3.6746,-2.67356 -3.6746,-4.08289c0,-1.40932 1.14248,-2.55181 2.55181,-2.55181c0.058,0 0.11554,0.00193 0.17258,0.00574c-0.11144,-0.28662 -0.17258,-0.59837 -0.17258,-0.92439c0,-1.40932 1.14248,-2.55181 2.55181,-2.55181c0.45396,0 0.88023,0.11853 1.24955,0.32634c0.28333,-0.86323 1.01473,-1.52331 1.91916,-1.70521c-0.00296,-0.05036 -0.00446,-0.10111 -0.00446,-0.15222c0,-1.40932 1.14248,-2.55181 2.55181,-2.55181c1.04227,0 1.9386,0.62488 2.33479,1.52043c0.44434,-0.37545 1.01875,-0.60178 1.64602,-0.60178c1.40932,0 2.55181,1.14248 2.55181,2.55181c0,0.14844 -0.01268,0.29391 -0.03699,0.4354c0.37214,-0.21213 0.80285,-0.33333 1.26186,-0.33333c1.40932,0 2.55181,1.14248 2.55181,2.55181c0,0.27053 -0.0421,0.53123 -0.1201,0.7759c0.9649,0.36404 1.65118,1.29604 1.65118,2.38833c0,1.12593 -0.72921,2.08155 -1.74112,2.42033c-0.02996,0.44301 -0.17299,0.855 -0.40045,1.20737c-0.15777,0.31661 -0.40237,0.58156 -0.86956,0.85071z" fill="url(#color-6)" stroke-width="0.5"/><g><path d="M27.66742,110.19937c-0.18533,0.10676 -0.36713,0.17234 -0.54796,0.21364c-0.23067,0.06853 -0.47501,0.10533 -0.72794,0.10533c-0.1012,0 -0.20103,-0.00589 -0.29916,-0.01735c-0.07727,0.00408 -0.15522,0.00946 -0.234,0.01735c-0.96787,0.09691 -1.51498,0.16542 -2.44404,0.20415c-0.8376,0.03491 -1.69642,0.19983 -2.5347,0.20415c-0.8624,0.00445 -1.72501,-0.01797 -2.58724,0c-0.31658,0.0066 -0.31101,0.09561 -0.67906,0.10207c-0.62415,0.01095 -1.24874,-0.01735 -1.87274,0c-0.37749,0.01049 -0.76243,0.11798 -1.14884,0.11798c-1.12353,0 -2.71139,-0.52626 -2.89859,-0.52626c-1.40932,0 -3.6746,-2.67356 -3.6746,-4.08289c0,-1.40932 1.14248,-2.55181 2.55181,-2.55181c0.058,0 0.11554,0.00193 0.17258,0.00574c-0.11144,-0.28662 -0.17258,-0.59837 -0.17258,-0.92439c0,-1.40932 1.14248,-2.55181 2.55181,-2.55181c0.45396,0 0.88023,0.11853 1.24955,0.32634c0.28333,-0.86323 1.01473,-1.52331 1.91916,-1.70521c-0.00296,-0.05036 -0.00446,-0.10111 -0.00446,-0.15222c0,-1.40932 1.14248,-2.55181 2.55181,-2.55181c1.04227,0 1.9386,0.62488 2.33479,1.52043c0.44434,-0.37545 1.01875,-0.60178 1.64602,-0.60178c1.40932,0 2.55181,1.14248 2.55181,2.55181c0,0.14844 -0.01268,0.29391 -0.03699,0.4354c0.37214,-0.21213 0.80285,-0.33333 1.26186,-0.33333c1.40932,0 2.55181,1.14248 2.55181,2.55181c0,0.27053 -0.0421,0.53123 -0.1201,0.7759c0.9649,0.36404 1.65118,1.29604 1.65118,2.38833c0,1.12593 -0.72921,2.08155 -1.74112,2.42033c-0.02996,0.44301 -0.17299,0.855 -0.40045,1.20737c-0.15777,0.31661 -0.40237,0.58156 -0.86956,0.85071z" fill="url(#color-7)" stroke-width="0.5"/><path d="M60.68409,62.96048c-0.18533,0.10676 -0.36713,0.17234 -0.54796,0.21364c-0.23067,0.06853 -0.47501,0.10533 -0.72794,0.10533c-0.1012,0 -0.20103,-0.00589 -0.29916,-0.01735c-0.07727,0.00408 -0.15522,0.00946 -0.234,0.01735c-0.96787,0.09691 -1.51498,0.16542 -2.44404,0.20415c-0.8376,0.03491 -1.69642,0.19983 -2.5347,0.20415c-0.8624,0.00445 -1.72501,-0.01797 -2.58724,0c-0.31658,0.0066 -0.31101,0.09561 -0.67906,0.10207c-0.62415,0.01095 -1.24874,-0.01735 -1.87274,0c-0.37749,0.01049 -0.76243,0.11798 -1.14884,0.11798c-1.12353,0 -2.71139,-0.52626 -2.89859,-0.52626c-1.40932,0 -3.6746,-2.67356 -3.6746,-4.08289c0,-1.40932 1.14248,-2.55181 2.55181,-2.55181c0.058,0 0.11554,0.00193 0.17258,0.00574c-0.11144,-0.28662 -0.17258,-0.59837 -0.17258,-0.92439c0,-1.40932 1.14248,-2.55181 2.55181,-2.55181c0.45396,0 0.88023,0.11853 1.24955,0.32634c0.28333,-0.86323 1.01473,-1.52331 1.91916,-1.70521c-0.00296,-0.05036 -0.00446,-0.10111 -0.00446,-0.15222c0,-1.40932 1.14248,-2.55181 2.55181,-2.55181c1.04227,0 1.9386,0.62488 2.33479,1.52043c0.44434,-0.37545 1.01875,-0.60178 1.64602,-0.60178c1.40932,0 2.55181,1.14248 2.55181,2.55181c0,0.14844 -0.01268,0.29391 -0.03699,0.4354c0.37214,-0.21213 0.80285,-0.33333 1.26186,-0.33333c1.40932,0 2.55181,1.14248 2.55181,2.55181c0,0.27053 -0.0421,0.53123 -0.1201,0.7759c0.9649,0.36404 1.65118,1.29604 1.65118,2.38833c0,1.12593 -0.72921,2.08155 -1.74112,2.42033c-0.02996,0.44301 -0.17299,0.855 -0.40045,1.20737c-0.15777,0.31661 -0.40237,0.58156 -0.86956,0.85071z" fill="url(#color-8)" stroke-width="0.5"/><path d="M2.22298,88.08826c-0.18533,0.10676 -0.36713,0.17234 -0.54796,0.21364c-0.23067,0.06853 -0.47501,0.10533 -0.72794,0.10533c-0.1012,0 -0.20103,-0.00589 -0.29916,-0.01735c-0.07727,0.00408 -0.15522,0.00946 -0.234,0.01735c-0.96787,0.09691 -1.51498,0.16542 -2.44404,0.20415c-0.8376,0.03491 -1.69642,0.19983 -2.5347,0.20415c-0.8624,0.00445 -1.72501,-0.01797 -2.58724,0c-0.31658,0.0066 -0.31101,0.09561 -0.67906,0.10207c-0.62415,0.01095 -1.24874,-0.01735 -1.87274,0c-0.37749,0.01049 -0.76243,0.11798 -1.14884,0.11798c-1.12353,0 -2.71139,-0.52626 -2.89859,-0.52626c-1.40932,0 -3.6746,-2.67356 -3.6746,-4.08289c0,-1.40932 1.14248,-2.55181 2.55181,-2.55181c0.058,0 0.11554,0.00193 0.17258,0.00574c-0.11144,-0.28662 -0.17258,-0.59837 -0.17258,-0.92439c0,-1.40932 1.14248,-2.55181 2.55181,-2.55181c0.45396,0 0.88023,0.11853 1.24955,0.32634c0.28333,-0.86323 1.01473,-1.52331 1.91916,-1.70521c-0.00296,-0.05036 -0.00446,-0.10111 -0.00446,-0.15222c0,-1.40932 1.14248,-2.55181 2.55181,-2.55181c1.04227,0 1.9386,0.62488 2.33479,1.52043c0.44434,-0.37545 1.01875,-0.60178 1.64602,-0.60178c1.40932,0 2.55181,1.14248 2.55181,2.55181c0,0.14844 -0.01268,0.29391 -0.03699,0.4354c0.37214,-0.21213 0.80285,-0.33333 1.26186,-0.33333c1.40932,0 2.55181,1.14248 2.55181,2.55181c0,0.27053 -0.0421,0.53123 -0.1201,0.7759c0.9649,0.36404 1.65118,1.29604 1.65118,2.38833c0,1.12593 -0.72921,2.08155 -1.74112,2.42033c-0.02996,0.44301 -0.17299,0.855 -0.40045,1.20737c-0.15777,0.31661 -0.40237,0.58156 -0.86956,0.85071z" fill="url(#color-9)" stroke-width="0.5"/><path d="M24.86187,78.33826c-0.18533,0.10676 -0.36713,0.17234 -0.54796,0.21364c-0.23067,0.06853 -0.47501,0.10533 -0.72794,0.10533c-0.1012,0 -0.20103,-0.00589 -0.29916,-0.01735c-0.07727,0.00408 -0.15522,0.00946 -0.234,0.01735c-0.96787,0.09691 -1.51498,0.16542 -2.44404,0.20415c-0.8376,0.03491 -1.69642,0.19983 -2.5347,0.20415c-0.8624,0.00445 -1.72501,-0.01797 -2.58724,0c-0.31658,0.0066 -0.31101,0.09561 -0.67906,0.10207c-0.62415,0.01095 -1.24874,-0.01735 -1.87274,0c-0.37749,0.01049 -0.76243,0.11798 -1.14884,0.11798c-1.12353,0 -2.71139,-0.52626 -2.89859,-0.52626c-1.40932,0 -3.6746,-2.67356 -3.6746,-4.08289c0,-1.40932 1.14248,-2.55181 2.55181,-2.55181c0.058,0 0.11554,0.00193 0.17258,0.00574c-0.11144,-0.28662 -0.17258,-0.59837 -0.17258,-0.92439c0,-1.40932 1.14248,-2.55181 2.55181,-2.55181c0.45396,0 0.88023,0.11853 1.24955,0.32634c0.28333,-0.86323 1.01473,-1.52331 1.91916,-1.70521c-0.00296,-0.05036 -0.00446,-0.10111 -0.00446,-0.15222c0,-1.40932 1.14248,-2.55181 2.55181,-2.55181c1.04227,0 1.9386,0.62488 2.33479,1.52043c0.44434,-0.37545 1.01875,-0.60178 1.64602,-0.60178c1.40932,0 2.55181,1.14248 2.55181,2.55181c0,0.14844 -0.01268,0.29391 -0.03699,0.4354c0.37214,-0.21213 0.80285,-0.33333 1.26186,-0.33333c1.40932,0 2.55181,1.14248 2.55181,2.55181c0,0.27053 -0.0421,0.53123 -0.1201,0.7759c0.9649,0.36404 1.65118,1.29604 1.65118,2.38833c0,1.12593 -0.72921,2.08155 -1.74112,2.42033c-0.02996,0.44301 -0.17299,0.855 -0.40045,1.20737c-0.15777,0.31661 -0.40237,0.58156 -0.86956,0.85071z" fill="url(#color-10)" stroke-width="0.5"/><path d="M56.75076,80.11604c-0.18533,0.10676 -0.36713,0.17234 -0.54796,0.21364c-0.23067,0.06853 -0.47501,0.10533 -0.72794,0.10533c-0.1012,0 -0.20103,-0.00589 -0.29916,-0.01735c-0.07727,0.00408 -0.15522,0.00946 -0.234,0.01735c-0.96787,0.09691 -1.51498,0.16542 -2.44404,0.20415c-0.8376,0.03491 -1.69642,0.19983 -2.5347,0.20415c-0.8624,0.00445 -1.72501,-0.01797 -2.58724,0c-0.31658,0.0066 -0.31101,0.09561 -0.67906,0.10207c-0.62415,0.01095 -1.24874,-0.01735 -1.87274,0c-0.37749,0.01049 -0.76243,0.11798 -1.14884,0.11798c-1.12353,0 -2.71139,-0.52626 -2.89859,-0.52626c-1.40932,0 -3.6746,-2.67356 -3.6746,-4.08289c0,-1.40932 1.14248,-2.55181 2.55181,-2.55181c0.058,0 0.11554,0.00193 0.17258,0.00574c-0.11144,-0.28662 -0.17258,-0.59837 -0.17258,-0.92439c0,-1.40932 1.14248,-2.55181 2.55181,-2.55181c0.45396,0 0.88023,0.11853 1.24955,0.32634c0.28333,-0.86323 1.01473,-1.52331 1.91916,-1.70521c-0.00296,-0.05036 -0.00446,-0.10111 -0.00446,-0.15222c0,-1.40932 1.14248,-2.55181 2.55181,-2.55181c1.04227,0 1.9386,0.62488 2.33479,1.52043c0.44434,-0.37545 1.01875,-0.60178 1.64602,-0.60178c1.40932,0 2.55181,1.14248 2.55181,2.55181c0,0.14844 -0.01268,0.29391 -0.03699,0.4354c0.37214,-0.21213 0.80285,-0.33333 1.26186,-0.33333c1.40932,0 2.55181,1.14248 2.55181,2.55181c0,0.27053 -0.0421,0.53123 -0.1201,0.7759c0.9649,0.36404 1.65118,1.29604 1.65118,2.38833c0,1.12593 -0.72921,2.08155 -1.74112,2.42033c-0.02996,0.44301 -0.17299,0.855 -0.40045,1.20737c-0.15777,0.31661 -0.40237,0.58156 -0.86956,0.85071z" fill="url(#color-11)" stroke-width="0.5"/><g stroke-width="0"><path d="M52.65,3.95625c0,3.45356 -18.94157,13.76581 -32.67853,26.39709c-11.08668,10.19432 -17.17954,23.50291 -19.62147,23.50291c-5.46762,0 -9.9,-5.05918 -9.9,-11.3c0,-6.24082 24.63238,-46.9 30.1,-46.9c5.46762,0 32.1,2.05918 32.1,8.3z" fill-opacity="0.25" fill="#36245a"/><g><g><path d="M-11,50.75625c0,-12.27884 13.01737,-48.59882 30.33497,-60.51516c4.43697,0.29102 8.71719,-0.39126 13.17676,-0.90723c-31.35912,13.28986 -43.51171,69.78255 -43.51171,61.42237z" fill="#6570b5"/><path d="M-12.4,49.35625c0,-11.93102 12.29032,-46.5604 28.87383,-59.44483c3.59225,0.60222 7.04018,0.43597 10.51262,0.07367c-28.30502,16.20108 -39.38645,67.35439 -39.38645,59.37116z" fill="#8a93ca"/></g><g data-paper-data="{&quot;index&quot;:null}"><path d="M-4.71024,51.66091c1.27425,-13.19023 17.40701,-50.21348 35.43412,-62.11292c2.98896,-0.36544 6.03937,-0.7248 9.25535,-0.72507c2.29881,-0.00019 4.59761,0.00023 6.89643,0.00124c-33.73116,9.21436 -52.48803,72.17522 -51.58588,62.83676z" fill="#6570b5"/><path d="M-5.954,49.96165c1.20416,-12.46474 15.6773,-46.2129 32.47889,-59.92959c4.34743,-0.43066 8.7216,-1.20874 13.45433,-1.20914c0.28946,-0.00002 0.57892,-0.00004 0.86839,-0.00004c-30.71365,13.43216 -47.66015,70.026 -46.8016,61.13878z" fill="#8a93ca"/></g><g data-paper-data="{&quot;index&quot;:null}"><path d="M-3.19888,51.00202c4.92203,-14.53637 31.82563,-50.95529 55.65539,-62.17434c8.29848,0.00685 16.597,0.02066 24.89553,0.03918c0.29533,0.1374 0.58902,0.27662 0.88106,0.41761c-0.8202,0.52412 -1.62062,1.08838 -2.39839,1.6912c-42.67371,0.88675 -82.70581,70.87165 -79.03359,60.02635z" fill="#6570b5"/><path d="M-4.19875,48.64807c4.61868,-13.64047 28.5929,-46.5493 51.22023,-59.82385c8.0825,0.00361 16.16504,0.01429 24.24761,0.02995c-41.30834,4.49764 -79.03757,70.33654 -75.46783,59.79391z" fill="#8a93ca"/></g></g></g></g><g><g stroke-width="0.5"><path d="M234.48232,201.33144c-0.18533,0.10676 -0.36713,0.17234 -0.54796,0.21364c-0.23067,0.06853 -0.47501,0.10533 -0.72794,0.10533c-0.1012,0 -0.20103,-0.00589 -0.29916,-0.01735c-0.07727,0.00408 -0.15522,0.00946 -0.234,0.01735c-0.96787,0.09691 -1.51498,0.16542 -2.44404,0.20415c-0.8376,0.03491 -1.69642,0.19983 -2.5347,0.20415c-0.8624,0.00445 -1.72501,-0.01797 -2.58724,0c-0.31658,0.0066 -0.31101,0.09561 -0.67906,0.10207c-0.62415,0.01095 -1.24874,-0.01735 -1.87274,0c-0.37749,0.01049 -0.76243,0.11798 -1.14884,0.11798c-1.12353,0 -2.71139,-0.52626 -2.89859,-0.52626c-1.40932,0 -3.6746,-2.67356 -3.6746,-4.08289c0,-1.40932 1.14248,-2.55181 2.55181,-2.55181c0.058,0 0.11554,0.00193 0.17258,0.00574c-0.11144,-0.28662 -0.17258,-0.59837 -0.17258,-0.92439c0,-1.40932 1.14248,-2.55181 2.55181,-2.55181c0.45396,0 0.88023,0.11853 1.24955,0.32634c0.28333,-0.86323 1.01473,-1.52331 1.91916,-1.70521c-0.00296,-0.05036 -0.00446,-0.10111 -0.00446,-0.15222c0,-1.40932 1.14248,-2.55181 2.55181,-2.55181c1.04227,0 1.9386,0.62488 2.33479,1.52043c0.44434,-0.37545 1.01875,-0.60178 1.64602,-0.60178c1.40932,0 2.55181,1.14248 2.55181,2.55181c0,0.14844 -0.01268,0.29391 -0.03699,0.4354c0.37214,-0.21213 0.80285,-0.33333 1.26186,-0.33333c1.40932,0 2.55181,1.14248 2.55181,2.55181c0,0.27053 -0.0421,0.53123 -0.1201,0.7759c0.9649,0.36404 1.65118,1.29604 1.65118,2.38833c0,1.12593 -0.72921,2.08155 -1.74112,2.42033c-0.02996,0.44301 -0.17299,0.855 -0.40045,1.20737c-0.15777,0.31661 -0.40237,0.58156 -0.86956,0.85071z" fill="url(#color-12)"/><path d="M220.60732,170.95644c-0.18533,0.10676 -0.36713,0.17234 -0.54796,0.21364c-0.23067,0.06853 -0.47501,0.10533 -0.72794,0.10533c-0.1012,0 -0.20103,-0.00589 -0.29916,-0.01735c-0.07727,0.00408 -0.15522,0.00946 -0.234,0.01735c-0.96787,0.09691 -1.51498,0.16542 -2.44404,0.20415c-0.8376,0.03491 -1.69642,0.19983 -2.5347,0.20415c-0.8624,0.00445 -1.72501,-0.01797 -2.58724,0c-0.31658,0.0066 -0.31101,0.09561 -0.67906,0.10207c-0.62415,0.01095 -1.24874,-0.01735 -1.87274,0c-0.37749,0.01049 -0.76243,0.11798 -1.14884,0.11798c-1.12353,0 -2.71139,-0.52626 -2.89859,-0.52626c-1.40932,0 -3.6746,-2.67356 -3.6746,-4.08289c0,-1.40932 1.14248,-2.55181 2.55181,-2.55181c0.058,0 0.11554,0.00193 0.17258,0.00574c-0.11144,-0.28662 -0.17258,-0.59837 -0.17258,-0.92439c0,-1.40932 1.14248,-2.55181 2.55181,-2.55181c0.45396,0 0.88023,0.11853 1.24955,0.32634c0.28333,-0.86323 1.01473,-1.52331 1.91916,-1.70521c-0.00296,-0.05036 -0.00446,-0.10111 -0.00446,-0.15222c0,-1.40932 1.14248,-2.55181 2.55181,-2.55181c1.04227,0 1.9386,0.62488 2.33479,1.52043c0.44434,-0.37545 1.01875,-0.60178 1.64602,-0.60178c1.40932,0 2.55181,1.14248 2.55181,2.55181c0,0.14844 -0.01268,0.29391 -0.03699,0.4354c0.37214,-0.21213 0.80285,-0.33333 1.26186,-0.33333c1.40932,0 2.55181,1.14248 2.55181,2.55181c0,0.27053 -0.0421,0.53123 -0.1201,0.7759c0.9649,0.36404 1.65118,1.29604 1.65118,2.38833c0,1.12593 -0.72921,2.08155 -1.74112,2.42033c-0.02996,0.44301 -0.17299,0.855 -0.40045,1.20737c-0.15777,0.31661 -0.40237,0.58156 -0.86956,0.85071z" fill="url(#color-13)"/><path d="M211.22853,189.97159c-0.18533,0.10676 -0.36713,0.17234 -0.54796,0.21364c-0.23067,0.06853 -0.47501,0.10533 -0.72794,0.10533c-0.1012,0 -0.20103,-0.00589 -0.29916,-0.01735c-0.07727,0.00408 -0.15522,0.00946 -0.234,0.01735c-0.96787,0.09691 -1.51498,0.16542 -2.44404,0.20415c-0.8376,0.03491 -1.69642,0.19983 -2.5347,0.20415c-0.8624,0.00445 -1.72501,-0.01797 -2.58724,0c-0.31658,0.0066 -0.31101,0.09561 -0.67906,0.10207c-0.62415,0.01095 -1.24874,-0.01735 -1.87274,0c-0.37749,0.01049 -0.76243,0.11798 -1.14884,0.11798c-1.12353,0 -2.71139,-0.52626 -2.89859,-0.52626c-1.40932,0 -3.6746,-2.67356 -3.6746,-4.08289c0,-1.40932 1.14248,-2.55181 2.55181,-2.55181c0.058,0 0.11554,0.00193 0.17258,0.00574c-0.11144,-0.28662 -0.17258,-0.59837 -0.17258,-0.92439c0,-1.40932 1.14248,-2.55181 2.55181,-2.55181c0.45396,0 0.88023,0.11853 1.24955,0.32634c0.28333,-0.86323 1.01473,-1.52331 1.91916,-1.70521c-0.00296,-0.05036 -0.00446,-0.10111 -0.00446,-0.15222c0,-1.40932 1.14248,-2.55181 2.55181,-2.55181c1.04227,0 1.9386,0.62488 2.33479,1.52043c0.44434,-0.37545 1.01875,-0.60178 1.64602,-0.60178c1.40932,0 2.55181,1.14248 2.55181,2.55181c0,0.14844 -0.01268,0.29391 -0.03699,0.4354c0.37214,-0.21213 0.80285,-0.33333 1.26186,-0.33333c1.40932,0 2.55181,1.14248 2.55181,2.55181c0,0.27053 -0.0421,0.53123 -0.1201,0.7759c0.9649,0.36404 1.65118,1.29604 1.65118,2.38833c0,1.12593 -0.72921,2.08155 -1.74112,2.42033c-0.02996,0.44301 -0.17299,0.855 -0.40045,1.20737c-0.15777,0.31661 -0.40237,0.58156 -0.86956,0.85071z" fill="url(#color-14)"/><path d="M183.3952,183.30493c-0.18533,0.10676 -0.36713,0.17234 -0.54796,0.21364c-0.23067,0.06853 -0.47501,0.10533 -0.72794,0.10533c-0.1012,0 -0.20103,-0.00589 -0.29916,-0.01735c-0.07727,0.00408 -0.15522,0.00946 -0.234,0.01735c-0.96787,0.09691 -1.51498,0.16542 -2.44404,0.20415c-0.8376,0.03491 -1.69642,0.19983 -2.5347,0.20415c-0.8624,0.00445 -1.72501,-0.01797 -2.58724,0c-0.31658,0.0066 -0.31101,0.09561 -0.67906,0.10207c-0.62415,0.01095 -1.24874,-0.01735 -1.87274,0c-0.37749,0.01049 -0.76243,0.11798 -1.14884,0.11798c-1.12353,0 -2.71139,-0.52626 -2.89859,-0.52626c-1.40932,0 -3.6746,-2.67356 -3.6746,-4.08289c0,-1.40932 1.14248,-2.55181 2.55181,-2.55181c0.058,0 0.11554,0.00193 0.17258,0.00574c-0.11144,-0.28662 -0.17258,-0.59837 -0.17258,-0.92439c0,-1.40932 1.14248,-2.55181 2.55181,-2.55181c0.45396,0 0.88023,0.11853 1.24955,0.32634c0.28333,-0.86323 1.01473,-1.52331 1.91916,-1.70521c-0.00296,-0.05036 -0.00446,-0.10111 -0.00446,-0.15222c0,-1.40932 1.14248,-2.55181 2.55181,-2.55181c1.04227,0 1.9386,0.62488 2.33479,1.52043c0.44434,-0.37545 1.01875,-0.60178 1.64602,-0.60178c1.40932,0 2.55181,1.14248 2.55181,2.55181c0,0.14844 -0.01268,0.29391 -0.03699,0.4354c0.37214,-0.21213 0.80285,-0.33333 1.26186,-0.33333c1.40932,0 2.55181,1.14248 2.55181,2.55181c0,0.27053 -0.0421,0.53123 -0.1201,0.7759c0.9649,0.36404 1.65118,1.29604 1.65118,2.38833c0,1.12593 -0.72921,2.08155 -1.74112,2.42033c-0.02996,0.44301 -0.17299,0.855 -0.40045,1.20737c-0.15777,0.31661 -0.40237,0.58156 -0.86956,0.85071z" fill="url(#color-15)"/><path d="M195.06186,211.80493c-0.18533,0.10676 -0.36713,0.17234 -0.54796,0.21364c-0.23067,0.06853 -0.47501,0.10533 -0.72794,0.10533c-0.1012,0 -0.20103,-0.00589 -0.29916,-0.01735c-0.07727,0.00408 -0.15522,0.00946 -0.234,0.01735c-0.96787,0.09691 -1.51498,0.16542 -2.44404,0.20415c-0.8376,0.03491 -1.69642,0.19983 -2.5347,0.20415c-0.8624,0.00445 -1.72501,-0.01797 -2.58724,0c-0.31658,0.0066 -0.31101,0.09561 -0.67906,0.10207c-0.62415,0.01095 -1.24874,-0.01735 -1.87274,0c-0.37749,0.01049 -0.76243,0.11798 -1.14884,0.11798c-1.12353,0 -2.71139,-0.52626 -2.89859,-0.52626c-1.40932,0 -3.6746,-2.67356 -3.6746,-4.08289c0,-1.40932 1.14248,-2.55181 2.55181,-2.55181c0.058,0 0.11554,0.00193 0.17258,0.00574c-0.11144,-0.28662 -0.17258,-0.59837 -0.17258,-0.92439c0,-1.40932 1.14248,-2.55181 2.55181,-2.55181c0.45396,0 0.88023,0.11853 1.24955,0.32634c0.28333,-0.86323 1.01473,-1.52331 1.91916,-1.70521c-0.00296,-0.05036 -0.00446,-0.10111 -0.00446,-0.15222c0,-1.40932 1.14248,-2.55181 2.55181,-2.55181c1.04227,0 1.9386,0.62488 2.33479,1.52043c0.44434,-0.37545 1.01875,-0.60178 1.64602,-0.60178c1.40932,0 2.55181,1.14248 2.55181,2.55181c0,0.14844 -0.01268,0.29391 -0.03699,0.4354c0.37214,-0.21213 0.80285,-0.33333 1.26186,-0.33333c1.40932,0 2.55181,1.14248 2.55181,2.55181c0,0.27053 -0.0421,0.53123 -0.1201,0.7759c0.9649,0.36404 1.65118,1.29604 1.65118,2.38833c0,1.12593 -0.72921,2.08155 -1.74112,2.42033c-0.02996,0.44301 -0.17299,0.855 -0.40045,1.20737c-0.15777,0.31661 -0.40237,0.58156 -0.86956,0.85071z" fill="url(#color-16)"/><path d="M269.52398,182.58144c-0.18533,0.10676 -0.36713,0.17234 -0.54796,0.21364c-0.23067,0.06853 -0.47501,0.10533 -0.72794,0.10533c-0.1012,0 -0.20103,-0.00589 -0.29916,-0.01735c-0.07727,0.00408 -0.15522,0.00946 -0.234,0.01735c-0.96787,0.09691 -1.51498,0.16542 -2.44404,0.20415c-0.8376,0.03491 -1.69642,0.19983 -2.5347,0.20415c-0.8624,0.00445 -1.72501,-0.01797 -2.58724,0c-0.31658,0.0066 -0.31101,0.09561 -0.67906,0.10207c-0.62415,0.01095 -1.24874,-0.01735 -1.87274,0c-0.37749,0.01049 -0.76243,0.11798 -1.14884,0.11798c-1.12353,0 -2.71139,-0.52626 -2.89859,-0.52626c-1.40932,0 -3.6746,-2.67356 -3.6746,-4.08289c0,-1.40932 1.14248,-2.55181 2.55181,-2.55181c0.058,0 0.11554,0.00193 0.17258,0.00574c-0.11144,-0.28662 -0.17258,-0.59837 -0.17258,-0.92439c0,-1.40932 1.14248,-2.55181 2.55181,-2.55181c0.45396,0 0.88023,0.11853 1.24955,0.32634c0.28333,-0.86323 1.01473,-1.52331 1.91916,-1.70521c-0.00296,-0.05036 -0.00446,-0.10111 -0.00446,-0.15222c0,-1.40932 1.14248,-2.55181 2.55181,-2.55181c1.04227,0 1.9386,0.62488 2.33479,1.52043c0.44434,-0.37545 1.01875,-0.60178 1.64602,-0.60178c1.40932,0 2.55181,1.14248 2.55181,2.55181c0,0.14844 -0.01268,0.29391 -0.03699,0.4354c0.37214,-0.21213 0.80285,-0.33333 1.26186,-0.33333c1.40932,0 2.55181,1.14248 2.55181,2.55181c0,0.27053 -0.0421,0.53123 -0.1201,0.7759c0.9649,0.36404 1.65118,1.29604 1.65118,2.38833c0,1.12593 -0.72921,2.08155 -1.74112,2.42033c-0.02996,0.44301 -0.17299,0.855 -0.40045,1.20737c-0.15777,0.31661 -0.40237,0.58156 -0.86956,0.85071z" fill="url(#color-17)"/><path d="M267.14898,162.83144c-0.18533,0.10676 -0.36713,0.17234 -0.54796,0.21364c-0.23067,0.06853 -0.47501,0.10533 -0.72794,0.10533c-0.1012,0 -0.20103,-0.00589 -0.29916,-0.01735c-0.07727,0.00408 -0.15522,0.00946 -0.234,0.01735c-0.96787,0.09691 -1.51498,0.16542 -2.44404,0.20415c-0.8376,0.03491 -1.69642,0.19983 -2.5347,0.20415c-0.8624,0.00445 -1.72501,-0.01797 -2.58724,0c-0.31658,0.0066 -0.31101,0.09561 -0.67906,0.10207c-0.62415,0.01095 -1.24874,-0.01735 -1.87274,0c-0.37749,0.01049 -0.76243,0.11798 -1.14884,0.11798c-1.12353,0 -2.71139,-0.52626 -2.89859,-0.52626c-1.40932,0 -3.6746,-2.67356 -3.6746,-4.08289c0,-1.40932 1.14248,-2.55181 2.55181,-2.55181c0.058,0 0.11554,0.00193 0.17258,0.00574c-0.11144,-0.28662 -0.17258,-0.59837 -0.17258,-0.92439c0,-1.40932 1.14248,-2.55181 2.55181,-2.55181c0.45396,0 0.88023,0.11853 1.24955,0.32634c0.28333,-0.86323 1.01473,-1.52331 1.91916,-1.70521c-0.00296,-0.05036 -0.00446,-0.10111 -0.00446,-0.15222c0,-1.40932 1.14248,-2.55181 2.55181,-2.55181c1.04227,0 1.9386,0.62488 2.33479,1.52043c0.44434,-0.37545 1.01875,-0.60178 1.64602,-0.60178c1.40932,0 2.55181,1.14248 2.55181,2.55181c0,0.14844 -0.01268,0.29391 -0.03699,0.4354c0.37214,-0.21213 0.80285,-0.33333 1.26186,-0.33333c1.40932,0 2.55181,1.14248 2.55181,2.55181c0,0.27053 -0.0421,0.53123 -0.1201,0.7759c0.9649,0.36404 1.65118,1.29604 1.65118,2.38833c0,1.12593 -0.72921,2.08155 -1.74112,2.42033c-0.02996,0.44301 -0.17299,0.855 -0.40045,1.20737c-0.15777,0.31661 -0.40237,0.58156 -0.86956,0.85071z" fill="url(#color-18)"/><path d="M240.9952,135.77159c-0.18533,0.10676 -0.36713,0.17234 -0.54796,0.21364c-0.23067,0.06853 -0.47501,0.10533 -0.72794,0.10533c-0.1012,0 -0.20103,-0.00589 -0.29916,-0.01735c-0.07727,0.00408 -0.15522,0.00946 -0.234,0.01735c-0.96787,0.09691 -1.51498,0.16542 -2.44404,0.20415c-0.8376,0.03491 -1.69642,0.19983 -2.5347,0.20415c-0.8624,0.00445 -1.72501,-0.01797 -2.58724,0c-0.31658,0.0066 -0.31101,0.09561 -0.67906,0.10207c-0.62415,0.01095 -1.24874,-0.01735 -1.87274,0c-0.37749,0.01049 -0.76243,0.11798 -1.14884,0.11798c-1.12353,0 -2.71139,-0.52626 -2.89859,-0.52626c-1.40932,0 -3.6746,-2.67356 -3.6746,-4.08289c0,-1.40932 1.14248,-2.55181 2.55181,-2.55181c0.058,0 0.11554,0.00193 0.17258,0.00574c-0.11144,-0.28662 -0.17258,-0.59837 -0.17258,-0.92439c0,-1.40932 1.14248,-2.55181 2.55181,-2.55181c0.45396,0 0.88023,0.11853 1.24955,0.32634c0.28333,-0.86323 1.01473,-1.52331 1.91916,-1.70521c-0.00296,-0.05036 -0.00446,-0.10111 -0.00446,-0.15222c0,-1.40932 1.14248,-2.55181 2.55181,-2.55181c1.04227,0 1.9386,0.62488 2.33479,1.52043c0.44434,-0.37545 1.01875,-0.60178 1.64602,-0.60178c1.40932,0 2.55181,1.14248 2.55181,2.55181c0,0.14844 -0.01268,0.29391 -0.03699,0.4354c0.37214,-0.21213 0.80285,-0.33333 1.26186,-0.33333c1.40932,0 2.55181,1.14248 2.55181,2.55181c0,0.27053 -0.0421,0.53123 -0.1201,0.7759c0.9649,0.36404 1.65118,1.29604 1.65118,2.38833c0,1.12593 -0.72921,2.08155 -1.74112,2.42033c-0.02996,0.44301 -0.17299,0.855 -0.40045,1.20737c-0.15777,0.31661 -0.40237,0.58156 -0.86956,0.85071z" fill="url(#color-19)"/><path d="M158.7952,98.57159c-0.18533,0.10676 -0.36713,0.17234 -0.54796,0.21364c-0.23067,0.06853 -0.47501,0.10533 -0.72794,0.10533c-0.1012,0 -0.20103,-0.00589 -0.29916,-0.01735c-0.07727,0.00408 -0.15522,0.00946 -0.234,0.01735c-0.96787,0.09691 -1.51498,0.16542 -2.44404,0.20415c-0.8376,0.03491 -1.69642,0.19983 -2.5347,0.20415c-0.8624,0.00445 -1.72501,-0.01797 -2.58724,0c-0.31658,0.0066 -0.31101,0.09561 -0.67906,0.10207c-0.62415,0.01095 -1.24874,-0.01735 -1.87274,0c-0.37749,0.01049 -0.76243,0.11798 -1.14884,0.11798c-1.12353,0 -2.71139,-0.52626 -2.89859,-0.52626c-1.40932,0 -3.6746,-2.67356 -3.6746,-4.08289c0,-1.40932 1.14248,-2.55181 2.55181,-2.55181c0.058,0 0.11554,0.00193 0.17258,0.00574c-0.11144,-0.28662 -0.17258,-0.59837 -0.17258,-0.92439c0,-1.40932 1.14248,-2.55181 2.55181,-2.55181c0.45396,0 0.88023,0.11853 1.24955,0.32634c0.28333,-0.86323 1.01473,-1.52331 1.91916,-1.70521c-0.00296,-0.05036 -0.00446,-0.10111 -0.00446,-0.15222c0,-1.40932 1.14248,-2.55181 2.55181,-2.55181c1.04227,0 1.9386,0.62488 2.33479,1.52043c0.44434,-0.37545 1.01875,-0.60178 1.64602,-0.60178c1.40932,0 2.55181,1.14248 2.55181,2.55181c0,0.14844 -0.01268,0.29391 -0.03699,0.4354c0.37214,-0.21213 0.80285,-0.33333 1.26186,-0.33333c1.40932,0 2.55181,1.14248 2.55181,2.55181c0,0.27053 -0.0421,0.53123 -0.1201,0.7759c0.9649,0.36404 1.65118,1.29604 1.65118,2.38833c0,1.12593 -0.72921,2.08155 -1.74112,2.42033c-0.02996,0.44301 -0.17299,0.855 -0.40045,1.20737c-0.15777,0.31661 -0.40237,0.58156 -0.86956,0.85071z" fill="url(#color-20)"/><path d="M219.7952,110.97159c-0.18533,0.10676 -0.36713,0.17234 -0.54796,0.21364c-0.23067,0.06853 -0.47501,0.10533 -0.72794,0.10533c-0.1012,0 -0.20103,-0.00589 -0.29916,-0.01735c-0.07727,0.00408 -0.15522,0.00946 -0.234,0.01735c-0.96787,0.09691 -1.51498,0.16542 -2.44404,0.20415c-0.8376,0.03491 -1.69642,0.19983 -2.5347,0.20415c-0.8624,0.00445 -1.72501,-0.01797 -2.58724,0c-0.31658,0.0066 -0.31101,0.09561 -0.67906,0.10207c-0.62415,0.01095 -1.24874,-0.01735 -1.87274,0c-0.37749,0.01049 -0.76243,0.11798 -1.14884,0.11798c-1.12353,0 -2.71139,-0.52626 -2.89859,-0.52626c-1.40932,0 -3.6746,-2.67356 -3.6746,-4.08289c0,-1.40932 1.14248,-2.55181 2.55181,-2.55181c0.058,0 0.11554,0.00193 0.17258,0.00574c-0.11144,-0.28662 -0.17258,-0.59837 -0.17258,-0.92439c0,-1.40932 1.14248,-2.55181 2.55181,-2.55181c0.45396,0 0.88023,0.11853 1.24955,0.32634c0.28333,-0.86323 1.01473,-1.52331 1.91916,-1.70521c-0.00296,-0.05036 -0.00446,-0.10111 -0.00446,-0.15222c0,-1.40932 1.14248,-2.55181 2.55181,-2.55181c1.04227,0 1.9386,0.62488 2.33479,1.52043c0.44434,-0.37545 1.01875,-0.60178 1.64602,-0.60178c1.40932,0 2.55181,1.14248 2.55181,2.55181c0,0.14844 -0.01268,0.29391 -0.03699,0.4354c0.37214,-0.21213 0.80285,-0.33333 1.26186,-0.33333c1.40932,0 2.55181,1.14248 2.55181,2.55181c0,0.27053 -0.0421,0.53123 -0.1201,0.7759c0.9649,0.36404 1.65118,1.29604 1.65118,2.38833c0,1.12593 -0.72921,2.08155 -1.74112,2.42033c-0.02996,0.44301 -0.17299,0.855 -0.40045,1.20737c-0.15777,0.31661 -0.40237,0.58156 -0.86956,0.85071z" fill="url(#color-21)"/><path d="M180.9952,134.77159c-0.18533,0.10676 -0.36713,0.17234 -0.54796,0.21364c-0.23067,0.06853 -0.47501,0.10533 -0.72794,0.10533c-0.1012,0 -0.20103,-0.00589 -0.29916,-0.01735c-0.07727,0.00408 -0.15522,0.00946 -0.234,0.01735c-0.96787,0.09691 -1.51498,0.16542 -2.44404,0.20415c-0.8376,0.03491 -1.69642,0.19983 -2.5347,0.20415c-0.8624,0.00445 -1.72501,-0.01797 -2.58724,0c-0.31658,0.0066 -0.31101,0.09561 -0.67906,0.10207c-0.62415,0.01095 -1.24874,-0.01735 -1.87274,0c-0.37749,0.01049 -0.76243,0.11798 -1.14884,0.11798c-1.12353,0 -2.71139,-0.52626 -2.89859,-0.52626c-1.40932,0 -3.6746,-2.67356 -3.6746,-4.08289c0,-1.40932 1.14248,-2.55181 2.55181,-2.55181c0.058,0 0.11554,0.00193 0.17258,0.00574c-0.11144,-0.28662 -0.17258,-0.59837 -0.17258,-0.92439c0,-1.40932 1.14248,-2.55181 2.55181,-2.55181c0.45396,0 0.88023,0.11853 1.24955,0.32634c0.28333,-0.86323 1.01473,-1.52331 1.91916,-1.70521c-0.00296,-0.05036 -0.00446,-0.10111 -0.00446,-0.15222c0,-1.40932 1.14248,-2.55181 2.55181,-2.55181c1.04227,0 1.9386,0.62488 2.33479,1.52043c0.44434,-0.37545 1.01875,-0.60178 1.64602,-0.60178c1.40932,0 2.55181,1.14248 2.55181,2.55181c0,0.14844 -0.01268,0.29391 -0.03699,0.4354c0.37214,-0.21213 0.80285,-0.33333 1.26186,-0.33333c1.40932,0 2.55181,1.14248 2.55181,2.55181c0,0.27053 -0.0421,0.53123 -0.1201,0.7759c0.9649,0.36404 1.65118,1.29604 1.65118,2.38833c0,1.12593 -0.72921,2.08155 -1.74112,2.42033c-0.02996,0.44301 -0.17299,0.855 -0.40045,1.20737c-0.15777,0.31661 -0.40237,0.58156 -0.86956,0.85071z" fill="url(#color-22)"/></g><path d="M311.15,186.05625c0,0 4.2,-5.82555 4.2,-7c0,-0.09388 -2.47029,-4.76919 -2.55194,-7.61286c-0.11313,-3.93999 4.35194,-11.18714 4.35194,-11.18714c0,0 -0.74582,9.49287 0.28809,11.26529c0.68605,1.17609 3.11192,3.13472 3.11192,3.13472c0,0 1.4,3.8306 1.4,5.6c0,2.00184 -1.4,5.8 -1.4,5.8z" fill="url(#color-23)" stroke-width="0"/><path d="M302.3,137.00625c0,0 4.2,-5.82555 4.2,-7c0,-0.09388 -2.47029,-4.76919 -2.55194,-7.61286c-0.11313,-3.93999 4.35194,-11.18713 4.35194,-11.18713c0,0 -0.74583,9.49287 0.28808,11.26529c0.68605,1.17609 3.11192,3.13472 3.11192,3.13472c0,0 1.4,3.83061 1.4,5.6c0,2.00184 -1.4,5.8 -1.4,5.8z" fill="url(#color-24)" stroke-width="0"/><path d="M357.15,152.45625c0,0 -1.4,-3.79816 -1.4,-5.8c0,-1.7694 1.4,-5.6 1.4,-5.6c0,0 2.42586,-1.95863 3.11192,-3.13471c1.03391,-1.77241 0.28809,-11.26529 0.28809,-11.26529c0,0 4.46507,7.24715 4.35194,11.18714c-0.08165,2.84367 -2.55194,7.51898 -2.55194,7.61286c0,1.17445 4.2,7 4.2,7z" data-paper-data="{&quot;index&quot;:null}" fill="url(#color-25)" stroke-width="0"/><path d="M379.55,180.05625c0,0 -1.4,-3.79816 -1.4,-5.8c0,-1.7694 1.4,-5.6 1.4,-5.6c0,0 2.42586,-1.95863 3.11192,-3.13471c1.03391,-1.77241 0.28808,-11.26529 0.28808,-11.26529c0,0 4.46507,7.24715 4.35194,11.18714c-0.08165,2.84367 -2.55194,7.51898 -2.55194,7.61286c0,1.17445 4.2,7 4.2,7z" data-paper-data="{&quot;index&quot;:null}" fill="url(#color-26)" stroke-width="0"/><path d="M391.75,139.85625c0,0 -1.4,-3.79816 -1.4,-5.8c0,-1.7694 1.4,-5.6 1.4,-5.6c0,0 2.42586,-1.95863 3.11192,-3.13472c1.03391,-1.77241 0.28808,-11.26528 0.28808,-11.26528c0,0 4.46507,7.24715 4.35194,11.18713c-0.08165,2.84368 -2.55194,7.51898 -2.55194,7.61286c0,1.17445 4.2,7 4.2,7z" data-paper-data="{&quot;index&quot;:null}" fill="url(#color-27)" stroke-width="0"/><path d="M346.1,216.60625c0,0 4.2,-5.82555 4.2,-7c0,-0.09388 -2.47029,-4.76919 -2.55194,-7.61286c-0.11313,-3.93999 4.35194,-11.18713 4.35194,-11.18713c0,0 -0.74583,9.49287 0.28808,11.26529c0.68605,1.17609 3.11192,3.13472 3.11192,3.13472c0,0 1.4,3.8306 1.4,5.6c0,2.00184 -1.4,5.8 -1.4,5.8z" data-paper-data="{&quot;index&quot;:null}" fill="url(#color-28)" stroke-width="0"/><g stroke-width="0.5"><path d="M423.73232,265.83144c-0.18533,0.10676 -0.36713,0.17234 -0.54796,0.21364c-0.23067,0.06853 -0.47501,0.10533 -0.72794,0.10533c-0.1012,0 -0.20103,-0.00589 -0.29916,-0.01735c-0.07727,0.00408 -0.15522,0.00946 -0.234,0.01735c-0.96787,0.09691 -1.51498,0.16542 -2.44404,0.20415c-0.8376,0.03491 -1.69642,0.19983 -2.5347,0.20415c-0.8624,0.00445 -1.72501,-0.01797 -2.58724,0c-0.31658,0.0066 -0.31101,0.09561 -0.67906,0.10207c-0.62415,0.01095 -1.24874,-0.01735 -1.87274,0c-0.37749,0.01049 -0.76243,0.11798 -1.14884,0.11798c-1.12353,0 -2.71139,-0.52626 -2.89859,-0.52626c-1.40932,0 -3.6746,-2.67356 -3.6746,-4.08289c0,-1.40932 1.14248,-2.55181 2.55181,-2.55181c0.058,0 0.11554,0.00193 0.17258,0.00574c-0.11144,-0.28662 -0.17258,-0.59837 -0.17258,-0.92439c0,-1.40932 1.14248,-2.55181 2.55181,-2.55181c0.45396,0 0.88023,0.11853 1.24955,0.32634c0.28333,-0.86323 1.01473,-1.52331 1.91916,-1.70521c-0.00296,-0.05036 -0.00446,-0.10111 -0.00446,-0.15222c0,-1.40932 1.14248,-2.55181 2.55181,-2.55181c1.04227,0 1.9386,0.62488 2.33479,1.52043c0.44434,-0.37545 1.01875,-0.60178 1.64602,-0.60178c1.40932,0 2.55181,1.14248 2.55181,2.55181c0,0.14844 -0.01268,0.29391 -0.03699,0.4354c0.37214,-0.21213 0.80285,-0.33333 1.26186,-0.33333c1.40932,0 2.55181,1.14248 2.55181,2.55181c0,0.27053 -0.0421,0.53123 -0.1201,0.7759c0.9649,0.36404 1.65118,1.29604 1.65118,2.38833c0,1.12593 -0.72921,2.08155 -1.74112,2.42033c-0.02996,0.44301 -0.17299,0.855 -0.40045,1.20737c-0.15777,0.31661 -0.40237,0.58156 -0.86956,0.85071z" fill="url(#color-29)"/><path d="M408.85732,230.45644c-0.18533,0.10676 -0.36713,0.17234 -0.54796,0.21364c-0.23067,0.06853 -0.47501,0.10533 -0.72794,0.10533c-0.1012,0 -0.20103,-0.00589 -0.29916,-0.01735c-0.07727,0.00408 -0.15522,0.00946 -0.234,0.01735c-0.96787,0.09691 -1.51498,0.16542 -2.44404,0.20415c-0.8376,0.03491 -1.69642,0.19983 -2.5347,0.20415c-0.8624,0.00445 -1.72501,-0.01797 -2.58724,0c-0.31658,0.0066 -0.31101,0.09561 -0.67906,0.10207c-0.62415,0.01095 -1.24874,-0.01735 -1.87274,0c-0.37749,0.01049 -0.76243,0.11798 -1.14884,0.11798c-1.12353,0 -2.71139,-0.52626 -2.89859,-0.52626c-1.40932,0 -3.6746,-2.67356 -3.6746,-4.08289c0,-1.40932 1.14248,-2.55181 2.55181,-2.55181c0.058,0 0.11554,0.00193 0.17258,0.00574c-0.11144,-0.28662 -0.17258,-0.59837 -0.17258,-0.92439c0,-1.40932 1.14248,-2.55181 2.55181,-2.55181c0.45396,0 0.88023,0.11853 1.24955,0.32634c0.28333,-0.86323 1.01473,-1.52331 1.91916,-1.70521c-0.00296,-0.05036 -0.00446,-0.10111 -0.00446,-0.15222c0,-1.40932 1.14248,-2.55181 2.55181,-2.55181c1.04227,0 1.9386,0.62488 2.33479,1.52043c0.44434,-0.37545 1.01875,-0.60178 1.64602,-0.60178c1.40932,0 2.55181,1.14248 2.55181,2.55181c0,0.14844 -0.01268,0.29391 -0.03699,0.4354c0.37214,-0.21213 0.80285,-0.33333 1.26186,-0.33333c1.40932,0 2.55181,1.14248 2.55181,2.55181c0,0.27053 -0.0421,0.53123 -0.1201,0.7759c0.9649,0.36404 1.65118,1.29604 1.65118,2.38833c0,1.12593 -0.72921,2.08155 -1.74112,2.42033c-0.02996,0.44301 -0.17299,0.855 -0.40045,1.20737c-0.15777,0.31661 -0.40237,0.58156 -0.86956,0.85071z" fill="url(#color-30)"/><path d="M373.47853,110.47159c-0.18533,0.10676 -0.36713,0.17234 -0.54796,0.21364c-0.23067,0.06853 -0.47501,0.10533 -0.72794,0.10533c-0.1012,0 -0.20103,-0.00589 -0.29916,-0.01735c-0.07727,0.00408 -0.15522,0.00946 -0.234,0.01735c-0.96787,0.09691 -1.51498,0.16542 -2.44404,0.20415c-0.8376,0.03491 -1.69642,0.19983 -2.5347,0.20415c-0.8624,0.00445 -1.72501,-0.01797 -2.58724,0c-0.31658,0.0066 -0.31101,0.09561 -0.67906,0.10207c-0.62415,0.01095 -1.24874,-0.01735 -1.87274,0c-0.37749,0.01049 -0.76243,0.11798 -1.14884,0.11798c-1.12353,0 -2.71139,-0.52626 -2.89859,-0.52626c-1.40932,0 -3.6746,-2.67356 -3.6746,-4.08289c0,-1.40932 1.14248,-2.55181 2.55181,-2.55181c0.058,0 0.11554,0.00193 0.17258,0.00574c-0.11144,-0.28662 -0.17258,-0.59837 -0.17258,-0.92439c0,-1.40932 1.14248,-2.55181 2.55181,-2.55181c0.45396,0 0.88023,0.11853 1.24955,0.32634c0.28333,-0.86323 1.01473,-1.52331 1.91916,-1.70521c-0.00296,-0.05036 -0.00446,-0.10111 -0.00446,-0.15222c0,-1.40932 1.14248,-2.55181 2.55181,-2.55181c1.04227,0 1.9386,0.62488 2.33479,1.52043c0.44434,-0.37545 1.01875,-0.60178 1.64602,-0.60178c1.40932,0 2.55181,1.14248 2.55181,2.55181c0,0.14844 -0.01268,0.29391 -0.03699,0.4354c0.37214,-0.21213 0.80285,-0.33333 1.26186,-0.33333c1.40932,0 2.55181,1.14248 2.55181,2.55181c0,0.27053 -0.0421,0.53123 -0.1201,0.7759c0.9649,0.36404 1.65118,1.29604 1.65118,2.38833c0,1.12593 -0.72921,2.08155 -1.74112,2.42033c-0.02996,0.44301 -0.17299,0.855 -0.40045,1.20737c-0.15777,0.31661 -0.40237,0.58156 -0.86956,0.85071z" fill="url(#color-31)"/><path d="M370.1452,233.80493c-0.18533,0.10676 -0.36713,0.17234 -0.54796,0.21364c-0.23067,0.06853 -0.47501,0.10533 -0.72794,0.10533c-0.1012,0 -0.20103,-0.00589 -0.29916,-0.01735c-0.07727,0.00408 -0.15522,0.00946 -0.234,0.01735c-0.96787,0.09691 -1.51498,0.16542 -2.44404,0.20415c-0.8376,0.03491 -1.69642,0.19983 -2.5347,0.20415c-0.8624,0.00445 -1.72501,-0.01797 -2.58724,0c-0.31658,0.0066 -0.31101,0.09561 -0.67906,0.10207c-0.62415,0.01095 -1.24874,-0.01735 -1.87274,0c-0.37749,0.01049 -0.76243,0.11798 -1.14884,0.11798c-1.12353,0 -2.71139,-0.52626 -2.89859,-0.52626c-1.40932,0 -3.6746,-2.67356 -3.6746,-4.08289c0,-1.40932 1.14248,-2.55181 2.55181,-2.55181c0.058,0 0.11554,0.00193 0.17258,0.00574c-0.11144,-0.28662 -0.17258,-0.59837 -0.17258,-0.92439c0,-1.40932 1.14248,-2.55181 2.55181,-2.55181c0.45396,0 0.88023,0.11853 1.24955,0.32634c0.28333,-0.86323 1.01473,-1.52331 1.91916,-1.70521c-0.00296,-0.05036 -0.00446,-0.10111 -0.00446,-0.15222c0,-1.40932 1.14248,-2.55181 2.55181,-2.55181c1.04227,0 1.9386,0.62488 2.33479,1.52043c0.44434,-0.37545 1.01875,-0.60178 1.64602,-0.60178c1.40932,0 2.55181,1.14248 2.55181,2.55181c0,0.14844 -0.01268,0.29391 -0.03699,0.4354c0.37214,-0.21213 0.80285,-0.33333 1.26186,-0.33333c1.40932,0 2.55181,1.14248 2.55181,2.55181c0,0.27053 -0.0421,0.53123 -0.1201,0.7759c0.9649,0.36404 1.65118,1.29604 1.65118,2.38833c0,1.12593 -0.72921,2.08155 -1.74112,2.42033c-0.02996,0.44301 -0.17299,0.855 -0.40045,1.20737c-0.15777,0.31661 -0.40237,0.58156 -0.86956,0.85071z" fill="url(#color-32)"/><path d="M383.31186,271.30493c-0.18533,0.10676 -0.36713,0.17234 -0.54796,0.21364c-0.23067,0.06853 -0.47501,0.10533 -0.72794,0.10533c-0.1012,0 -0.20103,-0.00589 -0.29916,-0.01735c-0.07727,0.00408 -0.15522,0.00946 -0.234,0.01735c-0.96787,0.09691 -1.51498,0.16542 -2.44404,0.20415c-0.8376,0.03491 -1.69642,0.19983 -2.5347,0.20415c-0.8624,0.00445 -1.72501,-0.01797 -2.58724,0c-0.31658,0.0066 -0.31101,0.09561 -0.67906,0.10207c-0.62415,0.01095 -1.24874,-0.01735 -1.87274,0c-0.37749,0.01049 -0.76243,0.11798 -1.14884,0.11798c-1.12353,0 -2.71139,-0.52626 -2.89859,-0.52626c-1.40932,0 -3.6746,-2.67356 -3.6746,-4.08289c0,-1.40932 1.14248,-2.55181 2.55181,-2.55181c0.058,0 0.11554,0.00193 0.17258,0.00574c-0.11144,-0.28662 -0.17258,-0.59837 -0.17258,-0.92439c0,-1.40932 1.14248,-2.55181 2.55181,-2.55181c0.45396,0 0.88023,0.11853 1.24955,0.32634c0.28333,-0.86323 1.01473,-1.52331 1.91916,-1.70521c-0.00296,-0.05036 -0.00446,-0.10111 -0.00446,-0.15222c0,-1.40932 1.14248,-2.55181 2.55181,-2.55181c1.04227,0 1.9386,0.62488 2.33479,1.52043c0.44434,-0.37545 1.01875,-0.60178 1.64602,-0.60178c1.40932,0 2.55181,1.14248 2.55181,2.55181c0,0.14844 -0.01268,0.29391 -0.03699,0.4354c0.37214,-0.21213 0.80285,-0.33333 1.26186,-0.33333c1.40932,0 2.55181,1.14248 2.55181,2.55181c0,0.27053 -0.0421,0.53123 -0.1201,0.7759c0.9649,0.36404 1.65118,1.29604 1.65118,2.38833c0,1.12593 -0.72921,2.08155 -1.74112,2.42033c-0.02996,0.44301 -0.17299,0.855 -0.40045,1.20737c-0.15777,0.31661 -0.40237,0.58156 -0.86956,0.85071z" fill="url(#color-33)"/><path d="M441.77398,245.08144c-0.18533,0.10676 -0.36713,0.17234 -0.54796,0.21364c-0.23067,0.06853 -0.47501,0.10533 -0.72794,0.10533c-0.1012,0 -0.20103,-0.00589 -0.29916,-0.01735c-0.07727,0.00408 -0.15522,0.00946 -0.234,0.01735c-0.96787,0.09691 -1.51498,0.16542 -2.44404,0.20415c-0.8376,0.03491 -1.69642,0.19983 -2.5347,0.20415c-0.8624,0.00445 -1.72501,-0.01797 -2.58724,0c-0.31658,0.0066 -0.31101,0.09561 -0.67906,0.10207c-0.62415,0.01095 -1.24874,-0.01735 -1.87274,0c-0.37749,0.01049 -0.76243,0.11798 -1.14884,0.11798c-1.12353,0 -2.71139,-0.52626 -2.89859,-0.52626c-1.40932,0 -3.6746,-2.67356 -3.6746,-4.08289c0,-1.40932 1.14248,-2.55181 2.55181,-2.55181c0.058,0 0.11554,0.00193 0.17258,0.00574c-0.11144,-0.28662 -0.17258,-0.59837 -0.17258,-0.92439c0,-1.40932 1.14248,-2.55181 2.55181,-2.55181c0.45396,0 0.88023,0.11853 1.24955,0.32634c0.28333,-0.86323 1.01473,-1.52331 1.91916,-1.70521c-0.00296,-0.05036 -0.00446,-0.10111 -0.00446,-0.15222c0,-1.40932 1.14248,-2.55181 2.55181,-2.55181c1.04227,0 1.9386,0.62488 2.33479,1.52043c0.44434,-0.37545 1.01875,-0.60178 1.64602,-0.60178c1.40932,0 2.55181,1.14248 2.55181,2.55181c0,0.14844 -0.01268,0.29391 -0.03699,0.4354c0.37214,-0.21213 0.80285,-0.33333 1.26186,-0.33333c1.40932,0 2.55181,1.14248 2.55181,2.55181c0,0.27053 -0.0421,0.53123 -0.1201,0.7759c0.9649,0.36404 1.65118,1.29604 1.65118,2.38833c0,1.12593 -0.72921,2.08155 -1.74112,2.42033c-0.02996,0.44301 -0.17299,0.855 -0.40045,1.20737c-0.15777,0.31661 -0.40237,0.58156 -0.86956,0.85071z" fill="url(#color-34)"/><path d="M338.39898,112.33144c-0.18533,0.10676 -0.36713,0.17234 -0.54796,0.21364c-0.23067,0.06853 -0.47501,0.10533 -0.72794,0.10533c-0.1012,0 -0.20103,-0.00589 -0.29916,-0.01735c-0.07727,0.00408 -0.15522,0.00946 -0.234,0.01735c-0.96787,0.09691 -1.51498,0.16542 -2.44404,0.20415c-0.8376,0.03491 -1.69642,0.19983 -2.5347,0.20415c-0.8624,0.00445 -1.72501,-0.01797 -2.58724,0c-0.31658,0.0066 -0.31101,0.09561 -0.67906,0.10207c-0.62415,0.01095 -1.24874,-0.01735 -1.87274,0c-0.37749,0.01049 -0.76243,0.11798 -1.14884,0.11798c-1.12353,0 -2.71139,-0.52626 -2.89859,-0.52626c-1.40932,0 -3.6746,-2.67356 -3.6746,-4.08289c0,-1.40932 1.14248,-2.55181 2.55181,-2.55181c0.058,0 0.11554,0.00193 0.17258,0.00574c-0.11144,-0.28662 -0.17258,-0.59837 -0.17258,-0.92439c0,-1.40932 1.14248,-2.55181 2.55181,-2.55181c0.45396,0 0.88023,0.11853 1.24955,0.32634c0.28333,-0.86323 1.01473,-1.52331 1.91916,-1.70521c-0.00296,-0.05036 -0.00446,-0.10111 -0.00446,-0.15222c0,-1.40932 1.14248,-2.55181 2.55181,-2.55181c1.04227,0 1.9386,0.62488 2.33479,1.52043c0.44434,-0.37545 1.01875,-0.60178 1.64602,-0.60178c1.40932,0 2.55181,1.14248 2.55181,2.55181c0,0.14844 -0.01268,0.29391 -0.03699,0.4354c0.37214,-0.21213 0.80285,-0.33333 1.26186,-0.33333c1.40932,0 2.55181,1.14248 2.55181,2.55181c0,0.27053 -0.0421,0.53123 -0.1201,0.7759c0.9649,0.36404 1.65118,1.29604 1.65118,2.38833c0,1.12593 -0.72921,2.08155 -1.74112,2.42033c-0.02996,0.44301 -0.17299,0.855 -0.40045,1.20737c-0.15777,0.31661 -0.40237,0.58156 -0.86956,0.85071z" fill="url(#color-35)"/><path d="M429.2452,195.27159c-0.18533,0.10676 -0.36713,0.17234 -0.54796,0.21364c-0.23067,0.06853 -0.47501,0.10533 -0.72794,0.10533c-0.1012,0 -0.20103,-0.00589 -0.29916,-0.01735c-0.07727,0.00408 -0.15522,0.00946 -0.234,0.01735c-0.96787,0.09691 -1.51498,0.16542 -2.44404,0.20415c-0.8376,0.03491 -1.69642,0.19983 -2.5347,0.20415c-0.8624,0.00445 -1.72501,-0.01797 -2.58724,0c-0.31658,0.0066 -0.31101,0.09561 -0.67906,0.10207c-0.62415,0.01095 -1.24874,-0.01735 -1.87274,0c-0.37749,0.01049 -0.76243,0.11798 -1.14884,0.11798c-1.12353,0 -2.71139,-0.52626 -2.89859,-0.52626c-1.40932,0 -3.6746,-2.67356 -3.6746,-4.08289c0,-1.40932 1.14248,-2.55181 2.55181,-2.55181c0.058,0 0.11554,0.00193 0.17258,0.00574c-0.11144,-0.28662 -0.17258,-0.59837 -0.17258,-0.92439c0,-1.40932 1.14248,-2.55181 2.55181,-2.55181c0.45396,0 0.88023,0.11853 1.24955,0.32634c0.28333,-0.86323 1.01473,-1.52331 1.91916,-1.70521c-0.00296,-0.05036 -0.00446,-0.10111 -0.00446,-0.15222c0,-1.40932 1.14248,-2.55181 2.55181,-2.55181c1.04227,0 1.9386,0.62488 2.33479,1.52043c0.44434,-0.37545 1.01875,-0.60178 1.64602,-0.60178c1.40932,0 2.55181,1.14248 2.55181,2.55181c0,0.14844 -0.01268,0.29391 -0.03699,0.4354c0.37214,-0.21213 0.80285,-0.33333 1.26186,-0.33333c1.40932,0 2.55181,1.14248 2.55181,2.55181c0,0.27053 -0.0421,0.53123 -0.1201,0.7759c0.9649,0.36404 1.65118,1.29604 1.65118,2.38833c0,1.12593 -0.72921,2.08155 -1.74112,2.42033c-0.02996,0.44301 -0.17299,0.855 -0.40045,1.20737c-0.15777,0.31661 -0.40237,0.58156 -0.86956,0.85071z" fill="url(#color-36)"/><path d="M347.0452,158.07159c-0.18533,0.10676 -0.36713,0.17234 -0.54796,0.21364c-0.23067,0.06853 -0.47501,0.10533 -0.72794,0.10533c-0.1012,0 -0.20103,-0.00589 -0.29916,-0.01735c-0.07727,0.00408 -0.15522,0.00946 -0.234,0.01735c-0.96787,0.09691 -1.51498,0.16542 -2.44404,0.20415c-0.8376,0.03491 -1.69642,0.19983 -2.5347,0.20415c-0.8624,0.00445 -1.72501,-0.01797 -2.58724,0c-0.31658,0.0066 -0.31101,0.09561 -0.67906,0.10207c-0.62415,0.01095 -1.24874,-0.01735 -1.87274,0c-0.37749,0.01049 -0.76243,0.11798 -1.14884,0.11798c-1.12353,0 -2.71139,-0.52626 -2.89859,-0.52626c-1.40932,0 -3.6746,-2.67356 -3.6746,-4.08289c0,-1.40932 1.14248,-2.55181 2.55181,-2.55181c0.058,0 0.11554,0.00193 0.17258,0.00574c-0.11144,-0.28662 -0.17258,-0.59837 -0.17258,-0.92439c0,-1.40932 1.14248,-2.55181 2.55181,-2.55181c0.45396,0 0.88023,0.11853 1.24955,0.32634c0.28333,-0.86323 1.01473,-1.52331 1.91916,-1.70521c-0.00296,-0.05036 -0.00446,-0.10111 -0.00446,-0.15222c0,-1.40932 1.14248,-2.55181 2.55181,-2.55181c1.04227,0 1.9386,0.62488 2.33479,1.52043c0.44434,-0.37545 1.01875,-0.60178 1.64602,-0.60178c1.40932,0 2.55181,1.14248 2.55181,2.55181c0,0.14844 -0.01268,0.29391 -0.03699,0.4354c0.37214,-0.21213 0.80285,-0.33333 1.26186,-0.33333c1.40932,0 2.55181,1.14248 2.55181,2.55181c0,0.27053 -0.0421,0.53123 -0.1201,0.7759c0.9649,0.36404 1.65118,1.29604 1.65118,2.38833c0,1.12593 -0.72921,2.08155 -1.74112,2.42033c-0.02996,0.44301 -0.17299,0.855 -0.40045,1.20737c-0.15777,0.31661 -0.40237,0.58156 -0.86956,0.85071z" fill="url(#color-37)"/><path d="M408.0452,170.47159c-0.18533,0.10676 -0.36713,0.17234 -0.54796,0.21364c-0.23067,0.06853 -0.47501,0.10533 -0.72794,0.10533c-0.1012,0 -0.20103,-0.00589 -0.29916,-0.01735c-0.07727,0.00408 -0.15522,0.00946 -0.234,0.01735c-0.96787,0.09691 -1.51498,0.16542 -2.44404,0.20415c-0.8376,0.03491 -1.69642,0.19983 -2.5347,0.20415c-0.8624,0.00445 -1.72501,-0.01797 -2.58724,0c-0.31658,0.0066 -0.31101,0.09561 -0.67906,0.10207c-0.62415,0.01095 -1.24874,-0.01735 -1.87274,0c-0.37749,0.01049 -0.76243,0.11798 -1.14884,0.11798c-1.12353,0 -2.71139,-0.52626 -2.89859,-0.52626c-1.40932,0 -3.6746,-2.67356 -3.6746,-4.08289c0,-1.40932 1.14248,-2.55181 2.55181,-2.55181c0.058,0 0.11554,0.00193 0.17258,0.00574c-0.11144,-0.28662 -0.17258,-0.59837 -0.17258,-0.92439c0,-1.40932 1.14248,-2.55181 2.55181,-2.55181c0.45396,0 0.88023,0.11853 1.24955,0.32634c0.28333,-0.86323 1.01473,-1.52331 1.91916,-1.70521c-0.00296,-0.05036 -0.00446,-0.10111 -0.00446,-0.15222c0,-1.40932 1.14248,-2.55181 2.55181,-2.55181c1.04227,0 1.9386,0.62488 2.33479,1.52043c0.44434,-0.37545 1.01875,-0.60178 1.64602,-0.60178c1.40932,0 2.55181,1.14248 2.55181,2.55181c0,0.14844 -0.01268,0.29391 -0.03699,0.4354c0.37214,-0.21213 0.80285,-0.33333 1.26186,-0.33333c1.40932,0 2.55181,1.14248 2.55181,2.55181c0,0.27053 -0.0421,0.53123 -0.1201,0.7759c0.9649,0.36404 1.65118,1.29604 1.65118,2.38833c0,1.12593 -0.72921,2.08155 -1.74112,2.42033c-0.02996,0.44301 -0.17299,0.855 -0.40045,1.20737c-0.15777,0.31661 -0.40237,0.58156 -0.86956,0.85071z" fill="url(#color-38)"/><path d="M369.2452,194.27159c-0.18533,0.10676 -0.36713,0.17234 -0.54796,0.21364c-0.23067,0.06853 -0.47501,0.10533 -0.72794,0.10533c-0.1012,0 -0.20103,-0.00589 -0.29916,-0.01735c-0.07727,0.00408 -0.15522,0.00946 -0.234,0.01735c-0.96787,0.09691 -1.51498,0.16542 -2.44404,0.20415c-0.8376,0.03491 -1.69642,0.19983 -2.5347,0.20415c-0.8624,0.00445 -1.72501,-0.01797 -2.58724,0c-0.31658,0.0066 -0.31101,0.09561 -0.67906,0.10207c-0.62415,0.01095 -1.24874,-0.01735 -1.87274,0c-0.37749,0.01049 -0.76243,0.11798 -1.14884,0.11798c-1.12353,0 -2.71139,-0.52626 -2.89859,-0.52626c-1.40932,0 -3.6746,-2.67356 -3.6746,-4.08289c0,-1.40932 1.14248,-2.55181 2.55181,-2.55181c0.058,0 0.11554,0.00193 0.17258,0.00574c-0.11144,-0.28662 -0.17258,-0.59837 -0.17258,-0.92439c0,-1.40932 1.14248,-2.55181 2.55181,-2.55181c0.45396,0 0.88023,0.11853 1.24955,0.32634c0.28333,-0.86323 1.01473,-1.52331 1.91916,-1.70521c-0.00296,-0.05036 -0.00446,-0.10111 -0.00446,-0.15222c0,-1.40932 1.14248,-2.55181 2.55181,-2.55181c1.04227,0 1.9386,0.62488 2.33479,1.52043c0.44434,-0.37545 1.01875,-0.60178 1.64602,-0.60178c1.40932,0 2.55181,1.14248 2.55181,2.55181c0,0.14844 -0.01268,0.29391 -0.03699,0.4354c0.37214,-0.21213 0.80285,-0.33333 1.26186,-0.33333c1.40932,0 2.55181,1.14248 2.55181,2.55181c0,0.27053 -0.0421,0.53123 -0.1201,0.7759c0.9649,0.36404 1.65118,1.29604 1.65118,2.38833c0,1.12593 -0.72921,2.08155 -1.74112,2.42033c-0.02996,0.44301 -0.17299,0.855 -0.40045,1.20737c-0.15777,0.31661 -0.40237,0.58156 -0.86956,0.85071z" fill="url(#color-39)"/></g><g stroke-width="0"><path d="M257.15,319.78958c0,0 -1.4,-3.79816 -1.4,-5.8c0,-1.7694 1.4,-5.6 1.4,-5.6c0,0 2.42586,-1.95863 3.11192,-3.13471c1.03391,-1.77241 0.28809,-11.26529 0.28809,-11.26529c0,0 4.46507,7.24715 4.35194,11.18714c-0.08165,2.84367 -2.55194,7.51898 -2.55194,7.61286c0,1.17445 4.2,7 4.2,7z" data-paper-data="{&quot;index&quot;:null}" fill="url(#color-40)"/><path d="M305.81667,289.12292c0,0 -1.4,-3.79816 -1.4,-5.8c0,-1.7694 1.4,-5.6 1.4,-5.6c0,0 2.42586,-1.95863 3.11192,-3.13471c1.03391,-1.77241 0.28809,-11.26529 0.28809,-11.26529c0,0 4.46507,7.24715 4.35194,11.18714c-0.08165,2.84367 -2.55194,7.51898 -2.55194,7.61286c0,1.17445 4.2,7 4.2,7z" data-paper-data="{&quot;index&quot;:null}" fill="url(#color-41)"/><path d="M319.48333,338.78959c0,0 -1.4,-3.79816 -1.4,-5.8c0,-1.7694 1.4,-5.6 1.4,-5.6c0,0 2.42586,-1.95863 3.11192,-3.13471c1.03391,-1.77241 0.28809,-11.26529 0.28809,-11.26529c0,0 4.46507,7.24715 4.35194,11.18714c-0.08165,2.84367 -2.55194,7.51898 -2.55194,7.61286c0,1.17445 4.2,7 4.2,7z" data-paper-data="{&quot;index&quot;:null}" fill="url(#color-42)"/></g></g></g></g></g></svg>