<svg version="1.1" xmlns="http://www.w3.org/2000/svg" xmlns:xlink="http://www.w3.org/1999/xlink" width="185.64228" height="51.83908" viewBox="0,0,185.64228,51.83908"><defs><radialGradient cx="310.15702" cy="186.97252" r="90.68363" gradientUnits="userSpaceOnUse" id="color-1"><stop offset="0" stop-color="#000000"/><stop offset="1" stop-color="#000000" stop-opacity="0"/></radialGradient><linearGradient x1="229.14005" y1="173.72828" x2="229.14005" y2="200.21675" gradientUnits="userSpaceOnUse" id="color-2"><stop offset="0" stop-color="#000000" stop-opacity="0"/><stop offset="1" stop-color="#000000" stop-opacity="0"/></linearGradient><linearGradient x1="228.95933" y1="152.42389" x2="228.95933" y2="195.67777" gradientUnits="userSpaceOnUse" id="color-3"><stop offset="0" stop-color="#e5e5e5"/><stop offset="1" stop-color="#ffffff"/></linearGradient><linearGradient x1="228.95933" y1="152.42389" x2="228.95933" y2="195.67777" gradientUnits="userSpaceOnUse" id="color-4"><stop offset="0" stop-color="#000000" stop-opacity="0"/><stop offset="1" stop-color="#000000" stop-opacity="0"/></linearGradient><radialGradient cx="246.5" cy="174.00001" r="20.875" gradientUnits="userSpaceOnUse" id="color-5"><stop offset="0" stop-color="#000000"/><stop offset="1" stop-color="#000000" stop-opacity="0"/></radialGradient><linearGradient x1="262.15427" y1="174.00002" x2="220.40427" y2="174.00002" gradientUnits="userSpaceOnUse" id="color-6"><stop offset="0" stop-color="#1fb24d"/><stop offset="1" stop-color="#70ff6f"/></linearGradient></defs><g transform="translate(-217.31966,-150.43728)"><g data-paper-data="{&quot;isPaintingLayer&quot;:true}" fill-rule="nonzero" stroke-linejoin="miter" stroke-miterlimit="10" stroke-dasharray="" stroke-dashoffset="0" style="mix-blend-mode: normal"><path d="M219.47339,173.72828h181.36726v5.54636l-18.04072,20.94211h-142.15769c0,0 -10.17428,-1.36164 -14.51303,-5.60996c-4.33875,-4.24832 -6.38654,-14.85405 -6.38654,-14.85405z" data-paper-data="{&quot;origPos&quot;:null}" fill="url(#color-1)" stroke="url(#color-2)" stroke-width="4.11923" stroke-linecap="round"/><path d="M239.93423,152.42389h142.68497l17.77145,21.76077l-17.77145,21.49312h-142.03224z" data-paper-data="{&quot;origPos&quot;:null}" fill="url(#color-3)" stroke="url(#color-4)" stroke-width="3.97321" stroke-linecap="round"/><text transform="translate(266.17463,171.33052) scale(0.27806,0.27806)" font-size="40" xml:space="preserve" data-paper-data="{&quot;index&quot;:null}" fill="#3e444c" fill-rule="nonzero" stroke="#3e444c" stroke-width="1" stroke-linecap="butt" stroke-linejoin="miter" stroke-miterlimit="10" stroke-dasharray="" stroke-dashoffset="0" font-family="&quot;ヒラギノ角ゴ Pro W3&quot;, &quot;Hiragino Kaku Gothic Pro&quot;, Osaka, &quot;メイリオ&quot;, Meiryo, &quot;ＭＳ Ｐゴシック&quot;, &quot;MS PGothic&quot;" font-weight="normal" text-anchor="start" style="mix-blend-mode: normal"><tspan x="0" dy="0">Save code successfully</tspan><tspan x="0" dy="46.150000000000006px">loaded!</tspan></text><path d="M246.5,194.87501c-11.52894,0 -20.875,-9.34606 -20.875,-20.875c0,-11.52894 9.34606,-20.875 20.875,-20.875c11.52894,0 20.875,9.34606 20.875,20.875c0,11.52894 -9.34606,20.875 -20.875,20.875z" data-paper-data="{&quot;index&quot;:null}" fill="url(#color-5)" stroke="#247e32" stroke-width="0" stroke-linecap="butt"/><path d="M241.27927,194.87502c-11.52894,0 -20.875,-9.34606 -20.875,-20.875c0,-11.52894 9.34606,-20.875 20.875,-20.875c11.52894,0 20.875,9.34606 20.875,20.875c0,11.52894 -9.34606,20.875 -20.875,20.875z" data-paper-data="{&quot;index&quot;:null}" fill="url(#color-6)" stroke="#247e32" stroke-width="2" stroke-linecap="butt"/><path d="M225.76714,179.32814l6,-6.5l9.25,8.5c0,0 11.63825,-23.11568 11.40816,-20.48616c-0.32186,3.67841 -7.90816,29.23616 -7.90816,29.23616z" fill="#ffffff" stroke="none" stroke-width="0" stroke-linecap="butt"/></g></g></svg>