<svg version="1.1" xmlns="http://www.w3.org/2000/svg" xmlns:xlink="http://www.w3.org/1999/xlink" width="67.07455" height="63.53609" viewBox="0,0,67.07455,63.53609"><defs><linearGradient x1="208.95714" y1="180.01312" x2="267.9883" y2="180.01312" gradientUnits="userSpaceOnUse" id="color-1"><stop offset="0" stop-color="#ffab19"/><stop offset="1" stop-color="#ee8518"/></linearGradient></defs><g transform="translate(-206.46273,-148.23196)"><g data-paper-data="{&quot;isPaintingLayer&quot;:true}" fill-rule="nonzero" stroke-linejoin="miter" stroke-miterlimit="10" stroke-dasharray="" stroke-dashoffset="0" style="mix-blend-mode: normal"><path d="M267.9883,179.11739l-57.87782,30.04962c0,0 -1.02779,-0.16788 -1.14777,-30.64332c-0.10763,-27.34244 1.37928,-27.66445 1.37928,-27.66445z" fill="url(#color-1)" stroke="#4782a6" stroke-width="5" stroke-linecap="round"/><path d="M209.89489,179.68239h53.57832" fill="none" stroke="#4782a6" stroke-width="5" stroke-linecap="round"/><path d="M225.22496,163.34075c1.27477,1.28018 2.06285,3.04927 2.06285,5.00171c0,1.95245 -0.78808,3.72154 -2.06285,5.00172c-1.27477,1.28179 -3.0362,2.07467 -4.97799,2.07467c-1.94179,0 -3.70324,-0.79288 -4.978,-2.07467c-1.27477,-1.28018 -2.06284,-3.04928 -2.06284,-5.00172c0,-1.95245 0.78808,-3.72154 2.06284,-5.00171c1.27477,-1.28179 3.03621,-2.07467 4.978,-2.07467c1.94179,0 3.70323,0.79288 4.97799,2.07467z" data-paper-data="{&quot;index&quot;:null}" fill="#ffffff" stroke="none" stroke-width="1" stroke-linecap="butt"/><path d="M225.42496,186.14075c1.27477,1.28018 2.06285,3.04927 2.06285,5.00171c0,1.95245 -0.78808,3.72154 -2.06285,5.00172c-1.27477,1.28179 -3.0362,2.07467 -4.97799,2.07467c-1.94179,0 -3.70324,-0.79288 -4.978,-2.07467c-1.27477,-1.28018 -2.06284,-3.04928 -2.06284,-5.00172c0,-1.95245 0.78808,-3.72154 2.06284,-5.00171c1.27477,-1.28179 3.03621,-2.07467 4.978,-2.07467c1.94179,0 3.70323,0.79288 4.97799,2.07467z" data-paper-data="{&quot;index&quot;:null}" fill="#ffffff" stroke="none" stroke-width="1" stroke-linecap="butt"/><text transform="translate(215.16004,187.89625) rotate(90.03398) scale(0.22764,0.34967) skewX(0.02954)" font-size="40" xml:space="preserve" data-paper-data="{&quot;origRot&quot;:-5.90372,&quot;index&quot;:null}" fill="#ffab19" fill-rule="nonzero" stroke="none" stroke-width="1" stroke-linecap="butt" stroke-linejoin="miter" stroke-miterlimit="10" stroke-dasharray="" stroke-dashoffset="0" font-family="Marker" font-weight="normal" text-anchor="start" style="mix-blend-mode: normal"><tspan x="0" dy="0">S</tspan></text><text transform="translate(215.36004,164.97125) rotate(90.03398) scale(0.22764,0.34967) skewX(0.02954)" font-size="40" xml:space="preserve" data-paper-data="{&quot;origRot&quot;:-5.90372,&quot;index&quot;:null}" fill="#ffab19" fill-rule="nonzero" stroke="none" stroke-width="1" stroke-linecap="butt" stroke-linejoin="miter" stroke-miterlimit="10" stroke-dasharray="" stroke-dashoffset="0" font-family="Marker" font-weight="normal" text-anchor="start" style="mix-blend-mode: normal"><tspan x="0" dy="0">S</tspan></text></g></g></svg>