<svg version="1.1" xmlns="http://www.w3.org/2000/svg" xmlns:xlink="http://www.w3.org/1999/xlink" width="731.99999" height="27.49999" viewBox="0,0,731.99999,27.49999"><g transform="translate(126,1.75)"><g data-paper-data="{&quot;isPaintingLayer&quot;:true}" fill="none" fill-rule="nonzero" stroke-opacity="0.57252" stroke="#ffffff" stroke-width="3.5" stroke-linecap="round" stroke-linejoin="miter" stroke-miterlimit="10" stroke-dasharray="" stroke-dashoffset="0" style="mix-blend-mode: normal"><g><g><path d="M61.25001,1.45945v12.81081"/><path d="M69.50001,1.94594v18.16216"/><path d="M77.50001,1.29729v22.05406"/><path d="M86.00001,1.78378v22.21621"/><path d="M94.50001,21.24325v-21.24324"/><path d="M103.00001,0.48648v16.7027"/><path d="M111.75001,12.8108v-12.32432"/><path d="M119.75001,1.13513v6.48648"/><path d="M128.75001,5.18919v-3.24325"/><path d="M137.25001,3.72973v2.91892"/><path d="M144.75001,10.86486v-7.94595"/></g><g><path d="M153.75001,1.45945v12.81081"/><path d="M162.00001,1.94594v18.16216"/><path d="M170.00001,23.35136v-22.05406"/><path d="M178.50001,24v-22.21621"/><path d="M187.00001,0v21.24324"/><path d="M195.50001,0.48648v16.7027"/><path d="M204.25001,0.48648v12.32432"/><path d="M212.25001,7.62161v-6.48648"/><path d="M221.25001,1.94594v3.24325"/><path d="M229.75001,3.72973v2.91892"/><path d="M237.25001,2.91891v7.94595"/></g></g><g><g><path d="M-124.25,14.27026v-12.81081"/><path d="M-116,20.1081v-18.16216"/><path d="M-108,1.29729v22.05406"/><path d="M-99.5,1.78378v22.21621"/><path d="M-91,21.24325v-21.24324"/><path d="M-82.5,0.48648v16.7027"/><path d="M-73.75001,12.8108v-12.32432"/><path d="M-65.75,7.62161v-6.48648"/><path d="M-56.75,5.1892v-3.24325"/><path d="M-48.25,3.72973v2.91892"/><path d="M-40.75,2.91891v7.94595"/></g><g><path d="M-31.75,1.45945v12.81081"/><path d="M-23.5,1.94594v18.16216"/><path d="M-15.5,1.29729v22.05406"/><path d="M-7,1.78378v22.21621"/><path d="M1.5,0.00001v21.24324"/><path d="M10,17.18918v-16.7027"/><path d="M18.74999,12.8108v-12.32432"/><path d="M26.74999,7.62161v-6.48648"/><path d="M35.74999,1.94594v3.24325"/><path d="M44.24999,3.72973v2.91892"/><path d="M51.74999,2.91891v7.94595"/></g></g><g><g><path d="M245.25001,14.27027v-12.81081"/><path d="M253.50001,20.1081v-18.16216"/><path d="M261.50001,1.29729v22.05406"/><path d="M270.00001,23.99999v-22.21621"/><path d="M278.50001,21.24325v-21.24324"/><path d="M287.00001,17.18918v-16.7027"/><path d="M295.75001,0.48648v12.32432"/><path d="M303.75001,7.62161v-6.48648"/><path d="M312.75001,5.1892v-3.24325"/><path d="M321.25001,6.64865v-2.91892"/><path d="M328.75001,2.91891v7.94595"/></g><g><path d="M337.75001,1.45946v12.81081"/><path d="M346.00001,20.1081v-18.16216"/><path d="M354.00001,23.35135v-22.05406"/><path d="M362.50001,1.78378v22.21621"/><path d="M371.00001,21.24325v-21.24324"/><path d="M379.49999,17.18918v-16.7027"/><path d="M388.24999,12.8108v-12.32432"/><path d="M396.24999,1.13514v6.48648"/><path d="M405.25,1.94595v3.24325"/><path d="M413.75,3.72973v2.91892"/><path d="M421.25,2.91891v7.94595"/></g></g><g><g><path d="M428.25,14.27027v-12.81081"/><path d="M436.5,20.10811v-18.16216"/><path d="M444.5,1.2973v22.05406"/><path d="M453,24v-22.21621"/><path d="M461.5,21.24325v-21.24324"/><path d="M470,17.18919v-16.7027"/><path d="M478.75,0.48649v12.32432"/><path d="M486.75,7.62162v-6.48648"/><path d="M495.75,5.1892v-3.24325"/><path d="M504.25,6.64865v-2.91892"/><path d="M511.75,2.91892v7.94595"/></g><g><path d="M520.75,1.45946v12.81081"/><path d="M529,20.10811v-18.16216"/><path d="M537,23.35136v-22.05406"/><path d="M545.5,1.78379v22.21621"/><path d="M554,21.24325v-21.24324"/><path d="M562.49999,17.18919v-16.7027"/><path d="M571.24999,12.81081v-12.32432"/><path d="M579.24999,1.13514v6.48648"/><path d="M588.24999,1.94595v3.24325"/><path d="M596.74999,3.72973v2.91892"/><path d="M604.25,2.91892v7.94595"/></g></g></g></g></svg>