<svg version="1.1" xmlns="http://www.w3.org/2000/svg" xmlns:xlink="http://www.w3.org/1999/xlink" width="726.04832" height="360.8859" viewBox="0,0,726.04832,360.8859"><defs><linearGradient x1="240.00003" y1="8059.34178" x2="240.00003" y2="-5574.12492" gradientUnits="userSpaceOnUse" id="color-1"><stop offset="0" stop-color="#000000"/><stop offset="1" stop-color="#000000" stop-opacity="0"/></linearGradient><linearGradient x1="7761.87686" y1="262.91019" x2="-5253.1616" y2="269.59725" gradientUnits="userSpaceOnUse" id="color-2"><stop offset="0" stop-color="#000000"/><stop offset="1" stop-color="#000000" stop-opacity="0"/></linearGradient><linearGradient x1="241.47608" y1="142.69805" x2="241.6762" y2="225.88348" gradientUnits="userSpaceOnUse" id="color-3"><stop offset="0" stop-color="#8e8e8e" stop-opacity="0"/><stop offset="1" stop-color="#8e8e8e"/></linearGradient><linearGradient x1="241.47608" y1="302.43466" x2="241.67619" y2="272.63009" gradientUnits="userSpaceOnUse" id="color-4"><stop offset="0" stop-color="#8e8e8e" stop-opacity="0"/><stop offset="1" stop-color="#8e8e8e"/></linearGradient><linearGradient x1="239.84825" y1="-5192.15363" x2="239.84825" y2="4104.6235" gradientUnits="userSpaceOnUse" id="color-5"><stop offset="0" stop-color="#fafafa" stop-opacity="0"/><stop offset="1" stop-color="#fafafa"/></linearGradient><linearGradient x1="241.54464" y1="64.88802" x2="241.74474" y2="335.03367" gradientUnits="userSpaceOnUse" id="color-6"><stop offset="0" stop-color="#2c6480" stop-opacity="0"/><stop offset="1" stop-color="#2c6480"/></linearGradient></defs><g transform="translate(123.02416,0.44295)"><g data-paper-data="{&quot;isPaintingLayer&quot;:true}" fill-rule="nonzero" stroke-linejoin="miter" stroke-miterlimit="10" stroke-dasharray="" stroke-dashoffset="0" style="mix-blend-mode: normal"><path d="M603.02416,-0.44295v360.8859h-726.04832v-360.8859z" fill="url(#color-1)" stroke="none" stroke-width="0" stroke-linecap="butt"/><path d="" data-paper-data="{&quot;origPos&quot;:null}" fill="url(#color-2)" stroke="none" stroke-width="0" stroke-linecap="butt"/><text transform="translate(188.94913,38.12891) scale(0.69502,0.69502)" font-size="40" xml:space="preserve" data-paper-data="{&quot;origPos&quot;:null}" fill="#ffffff" fill-rule="nonzero" stroke="none" stroke-width="1" stroke-linecap="butt" stroke-linejoin="miter" stroke-miterlimit="10" stroke-dasharray="" stroke-dashoffset="0" font-family="Sans Serif" font-weight="normal" text-anchor="start" style="mix-blend-mode: normal"><tspan x="0" dy="0">Paused</tspan></text><g data-paper-data="{&quot;origPos&quot;:null}" stroke-linecap="butt"><path d="M46.80988,142.80403l386.19278,-0.21028l0.12831,118.32413l-386.19277,0.21028z" data-paper-data="{&quot;origPos&quot;:null}" fill="url(#color-3)" stroke="none" stroke-width="0"/><path d="M46.93817,260.00223l386.19277,0.07535l-0.12831,42.39444l-386.19278,-0.07533z" data-paper-data="{&quot;origPos&quot;:null}" fill="url(#color-4)" stroke="none" stroke-width="0"/><path d="M422.64017,303.88226c-11.20056,0 -365.99764,0 -365.99764,0c-7.46816,0 -9.71341,-3.39178 -9.71341,-9.3007c0,-7.59368 -0.28122,-222.64381 0,-228.34616c0.25352,-5.14072 2.12954,-10.13313 10.59987,-10.13313c138.26939,0 341.94264,0.19033 366.55131,0.6647c9.32342,0.17972 8.68704,8.90548 8.68704,8.90548c0,0 0,223.19658 0,229.47208c0,6.59544 -2.47024,8.73775 -10.12717,8.73775z" data-paper-data="{&quot;origPos&quot;:null,&quot;index&quot;:null}" fill="url(#color-5)" stroke="#788c96" stroke-width="1"/><path d="M46.8784,65.2322l386.19278,-0.6828c0,0 0.12061,221.1319 0.12477,228.84896c0.00415,7.71705 -3.03634,10.3986 -10.1834,10.40332c-7.14706,0.00471 -220.81584,-0.16114 -366.27474,0.09605c-5.95755,0.00459 -9.73345,-3.71988 -9.73497,-9.9364c-0.00209,-8.51646 -0.12439,-228.7291 -0.12439,-228.7291z" data-paper-data="{&quot;origPos&quot;:null}" fill="url(#color-6)" stroke="none" stroke-width="0"/></g><text transform="translate(56.88718,73.1888) scale(0.33643,0.33643)" font-size="40" xml:space="preserve" data-paper-data="{&quot;origPos&quot;:null}" fill="#305669" fill-rule="nonzero" stroke="none" stroke-width="1" stroke-linecap="butt" stroke-linejoin="miter" stroke-miterlimit="10" stroke-dasharray="" stroke-dashoffset="0" font-family="Sans Serif" font-weight="normal" text-anchor="start" style="mix-blend-mode: normal"><tspan x="0" dy="0">Visuals</tspan></text><text transform="translate(55.48926,107.2248) scale(0.43841,0.44063)" font-size="40" xml:space="preserve" data-paper-data="{&quot;origPos&quot;:null}" fill="#ffffff" fill-rule="nonzero" stroke="none" stroke-width="1" stroke-linecap="butt" stroke-linejoin="miter" stroke-miterlimit="10" stroke-dasharray="" stroke-dashoffset="0" font-family="Sans Serif" font-weight="normal" text-anchor="start" style="mix-blend-mode: normal"><tspan x="0" dy="0">Extended camera</tspan><tspan x="0" dy="46.150000000000006px">Minimap</tspan></text><text transform="translate(84.04372,212.94977) scale(0.32637,0.33566)" font-size="40" xml:space="preserve" data-paper-data="{&quot;origPos&quot;:null}" fill="#ffffff" fill-rule="nonzero" stroke="none" stroke-width="1" stroke-linecap="butt" stroke-linejoin="miter" stroke-miterlimit="10" stroke-dasharray="" stroke-dashoffset="0" font-family="Sans Serif" font-weight="normal" text-anchor="start" style="mix-blend-mode: normal"><tspan x="0" dy="0">Position</tspan></text><text transform="translate(203.04373,214.32678) scale(0.32637,0.33566)" font-size="40" xml:space="preserve" data-paper-data="{&quot;origPos&quot;:null}" fill="#ffffff" fill-rule="nonzero" stroke="none" stroke-width="1" stroke-linecap="butt" stroke-linejoin="miter" stroke-miterlimit="10" stroke-dasharray="" stroke-dashoffset="0" font-family="Sans Serif" font-weight="normal" text-anchor="start" style="mix-blend-mode: normal"><tspan x="0" dy="0">Size</tspan></text><path d="M432.55992,82.04996h-385.34009" data-paper-data="{&quot;origPos&quot;:null}" fill="none" stroke="#305669" stroke-width="1" stroke-linecap="round"/><text transform="translate(59.48926,266.2248) scale(0.43841,0.44063)" font-size="40" xml:space="preserve" data-paper-data="{&quot;origPos&quot;:null}" fill="#ffffff" fill-rule="nonzero" stroke="none" stroke-width="1" stroke-linecap="butt" stroke-linejoin="miter" stroke-miterlimit="10" stroke-dasharray="" stroke-dashoffset="0" font-family="Sans Serif" font-weight="normal" text-anchor="start" style="mix-blend-mode: normal"><tspan x="0" dy="0">Music volume</tspan><tspan x="0" dy="46.150000000000006px">Sound volume</tspan></text><text transform="translate(56.88718,232.1888) scale(0.33643,0.33643)" font-size="40" xml:space="preserve" data-paper-data="{&quot;origPos&quot;:null}" fill="#305669" fill-rule="nonzero" stroke="none" stroke-width="1" stroke-linecap="butt" stroke-linejoin="miter" stroke-miterlimit="10" stroke-dasharray="" stroke-dashoffset="0" font-family="Sans Serif" font-weight="normal" text-anchor="start" style="mix-blend-mode: normal"><tspan x="0" dy="0">Sound</tspan></text><path d="M47.21985,241.04996h385.34009" data-paper-data="{&quot;origPos&quot;:null}" fill="none" stroke="#305669" stroke-width="1" stroke-linecap="round"/><text transform="translate(57.04372,151.94977) scale(0.32637,0.33566)" font-size="40" xml:space="preserve" data-paper-data="{&quot;origPos&quot;:null}" fill="#ffffff" fill-rule="nonzero" stroke="none" stroke-width="1" stroke-linecap="butt" stroke-linejoin="miter" stroke-miterlimit="10" stroke-dasharray="" stroke-dashoffset="0" font-family="Sans Serif" font-weight="normal" text-anchor="start" style="mix-blend-mode: normal"><tspan x="0" dy="0">X</tspan><tspan x="0" dy="48px"> </tspan><tspan x="0" dy="48px">Y</tspan></text><g data-paper-data="{&quot;origPos&quot;:null}" fill="#e0e0e0" stroke-width="0" stroke-linecap="butt"><path d="M72.34415,177.55c0,-4.41828 3.58172,-8 8,-8c4.41828,0 8,3.58172 8,8c0,4.41828 -3.58172,8 -8,8c-4.41828,0 -8,-3.58172 -8,-8z" data-paper-data="{&quot;origPos&quot;:null}" stroke="#000000"/><path d="M80.34415,185.55v-16h76.5v16z" data-paper-data="{&quot;origPos&quot;:null}" stroke="none"/><path d="M150.34413,177.55c0,-4.41828 3.58172,-8 8,-8c4.41828,0 8,3.58172 8,8c0,4.41828 -3.58172,8 -8,8c-4.41828,0 -8,-3.58172 -8,-8z" data-paper-data="{&quot;origPos&quot;:null}" stroke="#000000"/></g><g data-paper-data="{&quot;origPos&quot;:null}" fill="#e0e0e0" stroke-width="0" stroke-linecap="butt"><path d="M72.34415,146.55c0,-4.41828 3.58172,-8 8,-8c4.41828,0 8,3.58172 8,8c0,4.41828 -3.58172,8 -8,8c-4.41828,0 -8,-3.58172 -8,-8z" data-paper-data="{&quot;origPos&quot;:null}" stroke="#000000"/><path d="M80.34415,154.55v-16h76.5v16z" data-paper-data="{&quot;origPos&quot;:null}" stroke="none"/><path d="M150.34413,146.55c0,-4.41828 3.58172,-8 8,-8c4.41828,0 8,3.58172 8,8c0,4.41828 -3.58172,8 -8,8c-4.41828,0 -8,-3.58172 -8,-8z" data-paper-data="{&quot;origPos&quot;:null}" stroke="#000000"/></g><g data-paper-data="{&quot;origPos&quot;:null}" fill="#e0e0e0" stroke-width="0" stroke-linecap="butt"><path d="M173.84416,162.55c0,-4.41828 3.58172,-8 8,-8c4.41828,0 8,3.58172 8,8c0,4.41828 -3.58172,8 -8,8c-4.41828,0 -8,-3.58172 -8,-8z" data-paper-data="{&quot;origPos&quot;:null}" stroke="#000000"/><path d="M181.84416,170.55v-16h76.5v16z" data-paper-data="{&quot;origPos&quot;:null}" stroke="none"/><path d="M251.84416,162.55c0,-4.41828 3.58172,-8 8,-8c4.41828,0 8,3.58172 8,8c0,4.41828 -3.58172,8 -8,8c-4.41828,0 -8,-3.58172 -8,-8z" data-paper-data="{&quot;origPos&quot;:null}" stroke="#000000"/></g><g data-paper-data="{&quot;origPos&quot;:null}" fill="#e0e0e0" stroke-width="0" stroke-linecap="butt"><path d="M305.14715,282.05c0,-4.41828 3.58172,-8 8,-8c4.41828,0 8,3.58172 8,8c0,4.41828 -3.58172,8 -8,8c-4.41828,0 -8,-3.58172 -8,-8z" data-paper-data="{&quot;origPos&quot;:null}" stroke="#000000"/><path d="M314.14715,290.05v-16h98.68293v16z" data-paper-data="{&quot;origPos&quot;:null}" stroke="none"/><path d="M405.33712,282.05c0,-4.41828 3.58172,-8 8,-8c4.41828,0 8,3.58172 8,8c0,4.41828 -3.58172,8 -8,8c-4.41828,0 -8,-3.58172 -8,-8z" data-paper-data="{&quot;origPos&quot;:null}" stroke="#000000"/></g><g data-paper-data="{&quot;origPos&quot;:null}" fill="#e0e0e0" stroke-width="0" stroke-linecap="butt"><path d="M305.18233,261.23293c0,-4.41828 3.58172,-8 8,-8c4.41828,0 8,3.58172 8,8c0,4.41828 -3.58172,8 -8,8c-4.41828,0 -8,-3.58172 -8,-8z" data-paper-data="{&quot;origPos&quot;:null}" stroke="#000000"/><path d="M314.18233,269.23293v-16h98.68293v16z" data-paper-data="{&quot;origPos&quot;:null}" stroke="none"/><path d="M405.3723,261.23293c0,-4.41828 3.58172,-8 8,-8c4.41828,0 8,3.58172 8,8c0,4.41828 -3.58172,8 -8,8c-4.41828,0 -8,-3.58172 -8,-8z" data-paper-data="{&quot;origPos&quot;:null}" stroke="#000000"/></g><g data-paper-data="{&quot;origPos&quot;:null}" fill="#e0e0e0" stroke-width="0" stroke-linecap="butt"><path d="M235.168,121.83044c0,-4.41828 3.58172,-8 8,-8c4.41828,0 8,3.58172 8,8c0,4.41828 -3.58172,8 -8,8c-4.41828,0 -8,-3.58172 -8,-8z" data-paper-data="{&quot;origPos&quot;:null}" stroke="#000000"/><path d="M244.168,129.83044v-16h15.40962v16z" data-paper-data="{&quot;origPos&quot;:null}" stroke="none"/><path d="M251.42111,121.83044c0,-4.41828 3.58172,-8 8,-8c4.41828,0 8,3.58172 8,8c0,4.41828 -3.58172,8 -8,8c-4.41828,0 -8,-3.58172 -8,-8z" data-paper-data="{&quot;origPos&quot;:null}" stroke="#000000"/></g><g data-paper-data="{&quot;origPos&quot;:null}" fill="#e0e0e0" stroke-width="0" stroke-linecap="butt"><path d="M235.20318,101.01337c0,-4.41828 3.58172,-8 8,-8c4.41828,0 8,3.58172 8,8c0,4.41828 -3.58172,8 -8,8c-4.41828,0 -8,-3.58172 -8,-8z" data-paper-data="{&quot;origPos&quot;:null}" stroke="#000000"/><path d="M244.20318,109.01337v-16h15.40962v16z" data-paper-data="{&quot;origPos&quot;:null}" stroke="none"/><path d="M251.45629,101.01337c0,-4.41828 3.58172,-8 8,-8c4.41828,0 8,3.58172 8,8c0,4.41828 -3.58172,8 -8,8c-4.41828,0 -8,-3.58172 -8,-8z" data-paper-data="{&quot;origPos&quot;:null}" stroke="#000000"/></g><text transform="translate(353.48926,228.2248) scale(0.43841,0.44063)" font-size="40" xml:space="preserve" data-paper-data="{&quot;origPos&quot;:null}" fill="#ffffff" fill-rule="nonzero" stroke="none" stroke-width="1" stroke-linecap="butt" stroke-linejoin="miter" stroke-miterlimit="10" stroke-dasharray="" stroke-dashoffset="0" font-family="Sans Serif" font-weight="normal" text-anchor="start" style="mix-blend-mode: normal"><tspan x="0" dy="0">Preview</tspan></text><text transform="translate(325.90986,319.89371) scale(0.27917,0.27917)" font-size="40" xml:space="preserve" fill="#ffffff" fill-rule="nonzero" stroke="none" stroke-width="1" stroke-linecap="butt" stroke-linejoin="miter" stroke-miterlimit="10" stroke-dasharray="" stroke-dashoffset="0" font-family="Sans Serif" font-weight="normal" text-anchor="start" style="mix-blend-mode: normal"><tspan x="0" dy="0">press P to unpause</tspan></text></g></g></svg>