<svg version="1.1" xmlns="http://www.w3.org/2000/svg" xmlns:xlink="http://www.w3.org/1999/xlink" width="89.92046" height="100.3006" viewBox="0,0,89.92046,100.3006"><g transform="translate(-191.45118,-123.9722)"><g data-paper-data="{&quot;isPaintingLayer&quot;:true}" fill-rule="nonzero" stroke-linejoin="miter" stroke-miterlimit="10" stroke-dasharray="" stroke-dashoffset="0" style="mix-blend-mode: normal"><path d="" data-paper-data="{&quot;origPos&quot;:null,&quot;index&quot;:null}" fill="#4eddff" stroke="none" stroke-width="2.02785" stroke-linecap="butt"/><path d="" data-paper-data="{&quot;origPos&quot;:null,&quot;index&quot;:null}" fill="#4eddff" stroke="none" stroke-width="2.02785" stroke-linecap="butt"/><path d="" data-paper-data="{&quot;origPos&quot;:null,&quot;index&quot;:null}" fill="#ffd7a5" stroke="none" stroke-width="2.02785" stroke-linecap="butt"/><path d="" data-paper-data="{&quot;origPos&quot;:null,&quot;index&quot;:null}" fill="#ffd7a5" stroke="none" stroke-width="2.02785" stroke-linecap="butt"/><path d="M277.8044,179.52256c0,22.28491 -19.33081,40.35037 -43.17659,40.35037c-23.8458,0 -43.17661,-18.06548 -43.17661,-40.35037c0,-22.2849 11.86243,-38.60549 35.70822,-38.60549c8.87405,0 17.69036,-2.10196 25.84904,1.88479c13.76484,6.7262 24.79596,22.72898 24.79596,36.72069z" fill="#a65012" stroke="none" stroke-width="0" stroke-linecap="butt"/><path d="M211.14228,210.25172c0,0 -1.82102,1.25371 -3.83776,-0.21145c-2.01672,-1.46516 -3.4778,-4.85327 -0.55845,-6.47135c3.49183,-1.93538 2.58602,-8.44478 4.60276,-6.97964c0,0 7.74658,1.09423 8.34442,4.19344c0,0 3.26735,8.94995 1.92844,10.3815c0,0 -1.90833,1.4157 -6.88358,1.18059c-2.69567,-0.12737 -3.59584,-2.09309 -3.59584,-2.09309z" data-paper-data="{&quot;origRot&quot;:0,&quot;origPos&quot;:null}" fill="#5a2c0a" stroke="none" stroke-width="0" stroke-linecap="butt"/><path d="M216.30838,168.87942c4.62033,1.07863 39.88782,-2.32219 46.09305,-1.9773c9.18054,0.51026 6.64248,8.7969 7.29054,17.96875c0.74513,10.54565 8.09993,15.34805 4.40602,25.25364c-1.42421,3.81914 -4.62796,5.81782 -7.82979,8.34023c-1.81638,1.43096 -6.88552,2.82099 -18.43986,3.05864c-16.33275,0.33592 -20.96371,-2.30859 -27.69741,-7.44078c-4.2757,-3.2588 -2.4102,-7.88867 -5.81091,-13.03701c-1.04245,-1.57816 -2.27857,-2.42001 -2.4869,-2.42001c-11.10687,0 -17.21273,-9.17485 -17.21273,-17.85024c0,-8.67541 3.96384,-15.70821 10.17464,-15.70821c6.2108,0 9.90688,3.43727 11.5134,3.81231z" data-paper-data="{&quot;origPos&quot;:null}" fill="#ffdebd" stroke="#a65012" stroke-width="5.5" stroke-linecap="butt"/><path d="M267.91346,174.45557c0.37738,5.23602 -1.94716,9.67026 -5.19204,9.90411c-3.24487,0.23387 -6.18125,-3.8212 -6.55862,-9.05721c-0.37738,-5.23602 1.94716,-9.67024 5.19204,-9.90411c3.24488,-0.23387 6.18127,3.8212 6.55864,9.05721z" data-paper-data="{&quot;origPos&quot;:null,&quot;origRot&quot;:0}" fill="#ffffff" stroke="none" stroke-width="0" stroke-linecap="butt"/><path d="M219.53217,167.52763c12.44366,-0.459 7.9255,4.99888 7.9255,9.73091c0,2.79372 3.27521,6.88013 0.76268,8.10164c-2.92288,1.42102 -4.41913,-0.54571 -4.41913,-0.54571c0,0 0.62362,1.68761 -3.28983,2.41979c-2.90707,0.54388 -3.91683,-5.5497 -3.91683,-10.28174c0,-4.73204 -0.01789,-9.31591 2.93763,-9.42493z" data-paper-data="{&quot;origPos&quot;:null}" fill="#5a2c0a" stroke="none" stroke-width="0" stroke-linecap="butt"/><path d="M247.00773,171.06129c3.23113,-0.37896 6.34619,3.54052 6.95768,8.75439c0.6115,5.21388 -1.51214,9.74776 -4.74327,10.12671c-3.23114,0.37897 -6.3462,-3.54053 -6.95769,-8.7544c-0.61148,-5.21387 1.51216,-9.74774 4.74329,-10.12669z" data-paper-data="{&quot;origPos&quot;:null,&quot;origRot&quot;:0}" fill="#ffffff" stroke="none" stroke-width="0" stroke-linecap="butt"/><path d="M247.33286,175.54415c1.0196,0 1.94281,0.74434 2.6122,1.94603c0.66832,1.20167 1.08281,2.86176 1.08281,4.69426c0,1.83252 -0.41451,3.49257 -1.08281,4.69426c-0.66939,1.20167 -1.5926,1.94603 -2.6122,1.94603c-1.0196,0 -1.94281,-0.74434 -2.6122,-1.94603c-0.66832,-1.20167 -1.08281,-2.86176 -1.08281,-4.69426c0,-1.8325 0.41451,-3.49257 1.08281,-4.69426c0.66937,-1.20167 1.5926,-1.94603 2.6122,-1.94603z" data-paper-data="{&quot;origPos&quot;:null}" fill="#000000" stroke="none" stroke-width="1" stroke-linecap="butt"/><path d="M259.37205,173.70943c0.66939,-1.20167 1.5926,-1.94603 2.6122,-1.94603c1.0196,0 1.94283,0.74434 2.61222,1.94603c0.66834,1.20167 0.83005,3.11023 1.08281,4.69426c0.08888,0.57728 -0.47871,1.7811 -0.8889,2.29196c-0.5173,0.61796 -0.64372,0.54944 -1.41379,0.81398c-1.34519,0.27848 -2.94313,1.11065 -4.1234,0.42841c-1.03459,-0.62118 -0.9532,-2.28981 -0.96391,-3.53434c-0.0139,-1.60761 0.41451,-3.49257 1.08281,-4.69426z" data-paper-data="{&quot;origPos&quot;:null}" fill="#000000" stroke="none" stroke-width="1" stroke-linecap="round"/><path d="M273.4176,210.49027c-0.39746,2.72933 -2.45914,4.09768 -4.00743,4.51754c-4.72542,1.28142 -11.60835,1.09472 -16.29617,-0.318c-2.69421,-0.81193 -2.74204,-2.5549 -3.00219,-2.79855c-0.27486,-0.25743 -3.18064,1.67816 -6.68259,1.67816c-5.61929,0 -9.50525,-3.9599 -9.50525,-9.50525c0,-6.08088 0.52772,-9.45995 1.44236,-9.6349c5.32698,-1.01894 6.91413,3.67618 11.00818,5.88635c0,0 13.68961,4.50633 20.08505,4.14207c0,0 10.32329,-4.83139 13.52307,-4.61956c1.58694,0.10507 1.59734,3.43062 1.09669,5.11025c0,0 0.16293,4.58753 -2.05771,5.80707c-5.25069,2.88356 -5.48893,-1.0551 -5.60397,-0.26522z" data-paper-data="{&quot;origPos&quot;:null}" fill="#38291e" stroke="none" stroke-width="0" stroke-linecap="butt"/><path d="M265.25117,179.5647c10.31107,-0.80325 15.04764,2.44959 14.19092,13.78932c-0.53551,7.08799 1.20748,11.91502 -14.19092,11.64727c-7.09699,-0.12341 -13.92318,-4.55928 -13.92318,-10.84401c0,-6.28472 6.84656,-14.04127 13.92318,-14.59257z" data-paper-data="{&quot;origPos&quot;:null}" fill="#ffdebd" stroke="none" stroke-width="0" stroke-linecap="butt"/><path d="M256.55097,153.1711c7.58625,0.10581 17.92321,9.71424 17.05524,13.11311c-0.2348,0.91946 -45.40175,4.59976 -58.26562,5.88498c-6.25199,0.62464 -18.90164,0.16974 -18.66683,-0.74971c0.86799,-3.39885 3.293,-8.83048 9.27472,-10.60304c7.2286,-2.14201 32.04485,-7.90413 50.6025,-7.64532z" fill="#c76016" stroke="none" stroke-width="0" stroke-linecap="butt"/><g data-paper-data="{&quot;origPos&quot;:null}" fill="none" stroke="#f6b09a" stroke-width="2.5" stroke-linecap="round"><path d="M201.44705,176.1569c0,0 3.17375,-1.85283 7.23469,1.28465c5.82406,4.49966 2.40444,12.17952 2.40444,12.17952" data-paper-data="{&quot;origPos&quot;:null}"/><path d="M210.7802,183.348h-6.42609" data-paper-data="{&quot;origPos&quot;:null}"/><path d="M208.79115,189.7741h1.37701" data-paper-data="{&quot;origPos&quot;:null}"/></g><path d="M243.65123,168.41258c-1.47346,0.4394 -1.40369,0.64757 -2.11893,2.00868c-0.73787,1.40417 -2.29901,3.21252 -2.29901,3.21252c0,0 -1.5619,-3.88464 -1.5619,-6.76823c0,-1.95793 1.06391,-5.37051 4.08172,-6.05492c10.20797,-0.34366 7.16938,9.26529 7.16938,9.26529c0,0 -3.72425,-2.16689 -5.27127,-1.66333z" data-paper-data="{&quot;origPos&quot;:null}" fill="#38291e" stroke="none" stroke-width="0" stroke-linecap="butt"/><path d="M262.13777,165.40727c-1.6241,0.09549 -4.30121,3.47164 -4.30121,3.47164c0,0 -6.33455,-7.83827 3.29531,-11.24216c3.05952,-0.46365 5.29503,2.32563 6.00928,4.14862c1.05195,2.68486 1.01482,6.87157 1.01482,6.87157c0,0 -2.11326,-1.11422 -3.31252,-2.15245c-1.16248,-1.00638 -1.17345,-1.22565 -2.70567,-1.09726z" data-paper-data="{&quot;origPos&quot;:null,&quot;index&quot;:null,&quot;origRot&quot;:0}" fill="#38291e" stroke="none" stroke-width="0" stroke-linecap="butt"/><path d="M267.71774,138.81091c0.4388,2.46829 0.05982,4.27455 -0.91664,5.63442c-1.90254,2.64957 -6.07325,3.60443 -10.88248,4.45941c-7.27752,1.29378 -13.26134,1.86887 -14.55512,-5.40865c-1.29378,-7.27752 2.86799,-18.10155 10.14551,-19.39533c7.27751,-1.29378 14.91493,7.43261 16.20871,14.71013z" fill="#d06417" stroke="none" stroke-width="0" stroke-linecap="butt"/><path d="M260.77606,140.24485c0.62787,3.53174 -1.72619,6.90377 -5.25793,7.53162c-3.53173,0.62787 -6.90377,-1.72618 -7.53162,-5.25791c-0.62787,-3.53173 1.72619,-6.90377 5.25793,-7.53162c3.53173,-0.62785 6.90377,1.7262 7.53162,5.25793z" fill="#e36d19" stroke="none" stroke-width="0" stroke-linecap="butt"/><path d="M224.02379,143.14094c1.29378,7.27752 -4.52159,8.80005 -11.79911,10.09383c-7.27752,1.29378 -13.26134,1.86887 -14.55512,-5.40865c-1.29378,-7.27752 2.86801,-18.10155 10.14553,-19.39533c7.27751,-1.29378 14.91493,7.43261 16.20871,14.71013z" fill="#d06417" stroke="none" stroke-width="0" stroke-linecap="butt"/><path d="M217.08215,144.57488c0.62787,3.53174 -1.7262,6.90377 -5.25793,7.53162c-3.53175,0.62787 -6.90379,-1.72617 -7.53164,-5.25791c-0.62787,-3.53173 1.7262,-6.90377 5.25793,-7.53162c3.53175,-0.62785 6.90379,1.7262 7.53164,5.25793z" fill="#e36d19" stroke="none" stroke-width="0" stroke-linecap="butt"/></g></g></svg>