<svg version="1.1" xmlns="http://www.w3.org/2000/svg" xmlns:xlink="http://www.w3.org/1999/xlink" width="97.45739" height="60.83853" viewBox="0,0,97.45739,60.83853"><defs><linearGradient x1="250.24763" y1="171.4066" x2="257.11848" y2="177.60026" gradientUnits="userSpaceOnUse" id="color-1"><stop offset="0" stop-color="#ffcf33"/><stop offset="1" stop-color="#ff6034"/></linearGradient><linearGradient x1="250.24763" y1="171.4066" x2="257.11848" y2="177.60026" gradientUnits="userSpaceOnUse" id="color-2"><stop offset="0" stop-color="#b8712c"/><stop offset="1" stop-color="#b8362c"/></linearGradient><linearGradient x1="250.24761" y1="171.4066" x2="257.11846" y2="177.60027" gradientUnits="userSpaceOnUse" id="color-3"><stop offset="0" stop-color="#ffcf33"/><stop offset="1" stop-color="#ff6034"/></linearGradient><linearGradient x1="250.24761" y1="171.4066" x2="257.11846" y2="177.60027" gradientUnits="userSpaceOnUse" id="color-4"><stop offset="0" stop-color="#b8712c"/><stop offset="1" stop-color="#b8362c"/></linearGradient><linearGradient x1="250.23412" y1="171.3944" x2="257.13194" y2="177.61235" gradientUnits="userSpaceOnUse" id="color-5"><stop offset="0" stop-color="#ffcf33"/><stop offset="1" stop-color="#ff6034"/></linearGradient><linearGradient x1="239.85356" y1="192.60623" x2="239.85356" y2="205.72407" gradientUnits="userSpaceOnUse" id="color-6"><stop offset="0" stop-color="#ffffff"/><stop offset="1" stop-color="#d6d6d6"/></linearGradient><radialGradient cx="283.27594" cy="154.91107" r="10.02553" gradientUnits="userSpaceOnUse" id="color-7"><stop offset="0" stop-color="#ff8585"/><stop offset="1" stop-color="#ff8585" stop-opacity="0"/></radialGradient></defs><g transform="translate(-195.84407,-144.88554)"><g data-paper-data="{&quot;isPaintingLayer&quot;:true}" fill-rule="nonzero" stroke-linecap="butt" stroke-linejoin="miter" stroke-miterlimit="10" stroke-dasharray="" stroke-dashoffset="0" style="mix-blend-mode: normal"><path d="M196.4107,154.27593h87.4523v50.9249h-87.4523z" fill="#84ff80" stroke="none" stroke-width="0.85738"/><path d="M283.63516,154.45669l0.5208,39.02957c0,0 -18.0188,-0.31381 -22.01737,-0.31381c-12.96254,0 -23.47075,-8.54083 -23.47075,-18.53531c0,-9.99448 10.50821,-20.07078 23.47075,-20.07078c12.96254,0 21.49657,-0.10968 21.49657,-0.10968z" fill="#fff7a3" stroke="none" stroke-width="0"/><g stroke="none" stroke-width="0"><g><path d="M265.26662,192.27503c0,-0.61768 1.10248,-0.95277 2.40258,-0.95277c1.30009,0 2.43416,0.50137 2.40258,1.11846c-0.04854,0.94914 -0.27762,1.09661 -2.40258,1.11846c-2.46531,0.02535 -2.40258,-0.37645 -2.40258,-1.28417z" data-paper-data="{&quot;origPos&quot;:null}" fill="#f3c08d"/><path d="M267.66925,189.83098c1.39555,0 2.6512,0.81108 2.6512,1.76055c0,0.94947 0.15282,1.6777 -2.6512,1.6777c-2.67973,0 -2.69259,-0.68681 -2.69259,-1.63628c0,-0.94947 1.29704,-1.80197 2.69259,-1.80197z" data-paper-data="{&quot;origPos&quot;:null}" fill="#94612e"/></g><path d="M263.67402,183.86771c-0.60494,-0.77581 -0.04987,-1.99496 0.38041,-2.38893c0.99125,-0.90764 1.1669,0.50939 1.77184,1.2852c0.60494,0.77581 1.97293,1.7807 2.0742,2.28825c0.27817,1.3941 -3.62151,-0.40871 -4.22643,-1.18452z" data-paper-data="{&quot;origRot&quot;:0,&quot;index&quot;:null}" fill="#ffdfc0"/><g><path d="M266.69757,187.98574c0,-2.01328 0.63476,-2.71927 1.44241,-3.72604c0.91467,-1.14022 2.92793,-1.03783 2.92793,-1.03783c1.39036,0 2.15654,0.30471 3.04007,1.3782c0.85276,1.03611 1.24736,2.04378 1.24736,3.38568c0,2.01328 -1.93811,3.6454 -4.32891,3.6454c-2.39078,0 -4.32891,-1.63209 -4.32891,-3.6454z" data-paper-data="{&quot;origPos&quot;:null}" fill="#ffdfc0"/><path d="M266.75044,187.05767l4.25354,0.03921c1.39036,0 4.0757,-0.03025 4.0757,-0.03025c0,0 0.33603,0.51103 0.29459,0.94163c0.05575,2.12831 -1.93809,3.6454 -4.32887,3.6454c-2.39078,0 -4.15599,-1.63954 -4.32891,-3.6454c-0.04142,-0.48055 0.03395,-0.95056 0.03395,-0.95056z" data-paper-data="{&quot;origPos&quot;:null}" fill="#ffffff"/></g><g><path d="M271.91713,192.25252c0,-0.61768 1.10251,-0.95274 2.40261,-0.95274c1.30009,0 2.43413,0.50137 2.40257,1.11846c-0.04854,0.94914 -0.27755,1.09663 -2.40257,1.11845c-2.46531,0.02535 -2.40261,-0.3765 -2.40261,-1.28417z" data-paper-data="{&quot;origPos&quot;:null}" fill="#f3c08d"/><path d="M274.31978,189.80846c1.39555,0 2.65119,0.81109 2.65119,1.76056c0,0.94947 0.15282,1.6777 -2.65119,1.6777c-2.67973,0 -2.69263,-0.68681 -2.69263,-1.63628c0,-0.94947 1.29708,-1.80197 2.69263,-1.80197z" data-paper-data="{&quot;origPos&quot;:null}" fill="#94612e"/></g><g><path d="M269.33041,186.7597c0,1.05557 0.37547,2.0292 -0.51367,2.46541c-0.4518,0.22163 -2.42089,-0.14559 -2.42089,-0.14559c0,0 0.15274,-1.067 0.15274,-2.48547c0,-1.41844 1.32677,-2.81692 2.22622,-2.81692c0.89943,0 0.55565,1.56411 0.55565,2.98257z" data-paper-data="{&quot;index&quot;:null,&quot;origPos&quot;:null}" fill="#3c53ff"/><path d="M266.34536,189.70667l-0.00168,-0.95962l2.39287,0.02429l-0.07139,-5.44407h1.07706l-0.04143,6.33802z" data-paper-data="{&quot;index&quot;:null,&quot;origPos&quot;:null}" fill="#ffef45"/></g><g><path d="M272.78702,186.90285c0,-1.41844 -0.37167,-2.98258 0.60066,-2.98258c0.97233,0 2.63048,1.48132 2.63048,2.89976c0,1.41844 -0.02071,2.15408 -0.02071,2.15408c0,0 -2.04248,0.49146 -2.53086,0.26982c-0.96123,-0.43621 -0.67957,-1.28554 -0.67957,-2.3411z" data-paper-data="{&quot;origPos&quot;:null}" fill="#3c53ff"/><path d="M272.49708,189.64271l-0.04144,-6.33799h1.07704l-0.07142,5.44411l2.64147,0.01713l-0.12596,0.91819z" data-paper-data="{&quot;origPos&quot;:null}" fill="#ffef45"/></g><path d="M278.26644,183.61456c-0.5567,0.81113 -4.33962,2.84746 -4.14665,1.43903c0.07025,-0.51273 1.37468,-1.59886 1.93138,-2.40999c0.5567,-0.81113 0.64592,-2.23623 1.69045,-1.39047c0.4534,0.36714 1.08155,1.55028 0.52486,2.36139z" data-paper-data="{&quot;origRot&quot;:0}" fill="#ffdfc0"/><g><path d="M274.417,167.82898c3.30189,0.71859 5.54709,1.48401 7.63547,4.28861c0.89145,1.19719 0.88655,2.68484 0.53962,4.13661c-0.88678,3.71129 -2.5769,4.18637 -6.90004,3.16642c-1.97787,-0.46665 -7.64814,-1.68132 -9.5248,-2.46114c-2.45087,-1.0184 -2.58204,-2.20521 -2.06657,-4.80869c0.96665,-4.88226 5.37239,-5.39779 10.31627,-4.32185z" data-paper-data="{&quot;origPos&quot;:null}" fill="#ffffff"/><path d="M272.18807,169.1636c1.91919,0.41767 3.11136,2.42691 2.66287,4.4877c-0.4485,2.06083 -2.36784,3.39285 -4.28701,2.97518c-1.91919,-0.41767 -3.11133,-2.42684 -2.66283,-4.48767c0.4485,-2.06083 2.36783,-3.39288 4.28698,-2.97521z" data-paper-data="{&quot;origPos&quot;:null}" fill="#ff1f1f"/><path d="M282.48044,177.67362c-0.57509,1.46868 -0.90445,1.84681 -1.7914,2.27425c-0.7231,0.24124 -2.09221,-0.2668 -2.09221,-0.2668c0,0 -0.10467,-0.08597 -0.3544,-0.64482c-0.51565,-1.15394 -0.49994,-1.9422 -0.16644,-3.08639c0.31712,-1.08808 0.667,-2.12258 1.66622,-2.65749c0.85153,-0.45583 2.8279,-0.24739 2.8279,-0.24739c0,0 0.4086,1.02775 0.28612,1.71433c0.05651,1.79603 -0.12017,2.0309 -0.37579,2.91434z" data-paper-data="{&quot;origPos&quot;:null,&quot;origRot&quot;:0}" fill="#ff1f1f"/><path d="M266.11918,172.62715c-0.63783,2.82655 -2.05761,2.75693 -2.05761,2.75693c0,0 -0.57397,-0.91638 -0.06233,-3.16309c0.58366,-2.56306 1.26685,-2.65028 1.26685,-2.65028c0,0 1.43165,0.49224 0.85305,3.05647z" data-paper-data="{&quot;origPos&quot;:null}" fill="#ff1f1f"/></g><path d="M267.22283,177.49665c0,0 2.42889,-0.15344 4.82103,0.28402c1.23494,0.22581 4.6723,1.51407 4.6723,1.51407c0,0 -0.41784,1.28573 -0.75234,2.56906c-0.61993,2.37843 -3.12133,2.71595 -5.58126,2.1806c-2.45993,-0.53535 -4.0142,-2.03139 -3.5858,-4.45169c0.24054,-1.35898 0.42602,-2.09607 0.42602,-2.09607z" fill="#ffdfc0"/><path d="M269.77088,181.91649c0,0 0.70082,0.45366 1.41664,0.48019c0.71581,0.02657 1.56333,-0.44098 1.56333,-0.44098c0,0 -0.582,1.39503 -1.48175,1.36164c-0.89974,-0.03335 -1.49824,-1.40086 -1.49824,-1.40086z" data-paper-data="{&quot;origRot&quot;:0}" fill="#000000"/><g><path d="M270.62658,178.36013c0.49251,0.10718 0.5144,0.68044 0.36868,1.35003c-0.14571,0.66957 -0.38257,1.20054 -0.89637,1.07469c-0.46571,-0.11408 -0.51441,-0.68044 -0.36869,-1.35001c0.14571,-0.66957 0.40387,-1.1819 0.89638,-1.07471z" data-paper-data="{&quot;origPos&quot;:null}" fill="#000000"/><path d="M270.51617,178.64345c0.29638,0.0645 0.34127,0.26382 0.29268,0.48712c-0.04859,0.2233 -0.15865,0.39362 -0.46865,0.32149c-0.28096,-0.06539 -0.34127,-0.26388 -0.29267,-0.48718c0.04859,-0.2233 0.17227,-0.38593 0.46865,-0.32143z" data-paper-data="{&quot;origPos&quot;:null}" fill="#ffffff"/></g><g><path d="M272.75471,178.86489c0.49251,0.10718 0.51444,0.68046 0.36872,1.35002c-0.14571,0.66957 -0.38262,1.20054 -0.89641,1.07468c-0.46571,-0.11408 -0.51441,-0.68045 -0.3687,-1.35001c0.14571,-0.66957 0.40387,-1.18187 0.89639,-1.07469z" data-paper-data="{&quot;origPos&quot;:null}" fill="#000000"/><path d="M272.68602,179.12568c0.29638,0.0645 0.34126,0.26384 0.29266,0.48713c-0.04859,0.2233 -0.15863,0.39359 -0.46863,0.32144c-0.28096,-0.06539 -0.34127,-0.26386 -0.29268,-0.48712c0.04859,-0.2233 0.17226,-0.38596 0.46864,-0.32145z" data-paper-data="{&quot;origPos&quot;:null}" fill="#ffffff"/></g></g><path d="M220.23501,193.359c0,0 -6.06342,-9.4403 -6.95402,-14.2405c-0.74921,-4.03812 2.22065,-3.34897 0.22432,-7.2397c-0.73295,-1.42847 -3.55815,0.88187 -8.34501,0.26186c-4.68785,-0.60719 -8.49526,-0.43047 -8.49526,-0.43047c0,0 -0.07516,-9.76233 -0.09313,-10.78532c-0.00732,-0.41671 -0.45416,-0.87969 -0.45416,-0.87969c0,0 25.87214,-1.71971 37.08541,3.65119c2.60617,1.2483 0.05086,3.52218 0.45195,4.67798c1.27204,3.66558 1.13433,6.01998 7.91391,10.84724c6.17801,4.39894 15.59805,13.25999 15.59805,13.25999z" data-paper-data="{&quot;index&quot;:null}" fill="#828282" stroke="none" stroke-width="0"/><g><path d="M260.8497,173.46107l-7.52373,8.23191l-6.80958,-6.1472l7.52373,-8.23191z" data-paper-data="{&quot;origPos&quot;:null,&quot;origRot&quot;:0,&quot;index&quot;:null}" fill="url(#color-1)" stroke="url(#color-2)" stroke-width="0.5"/><path d="M254.47919,173.25586c1.48627,0.29338 3.02874,0.24165 3.02874,0.24165l-0.40393,1.93751c0,0 -1.21945,-0.01023 -2.34495,-0.33321c-0.73066,-0.20967 -1.03653,-0.43761 -1.03653,-0.43761c0,0 0.25885,0.47086 0.52826,1.20095c0.52951,1.43497 0.32369,2.46576 0.32369,2.46576l-1.78905,0.40546c0,0 -0.03557,-1.83115 -0.48107,-3.42127c-0.37473,-1.33748 -1.15247,-3.0908 -1.15247,-3.0908c0,0 1.68437,0.70725 3.32732,1.03155z" fill="#fff4e3" stroke="none" stroke-width="0"/><g><path d="M260.8497,173.46107l-7.52373,8.23191l-6.80958,-6.1472l7.52372,-8.23191z" data-paper-data="{&quot;origPos&quot;:null,&quot;origRot&quot;:0,&quot;index&quot;:null}" fill="url(#color-3)" stroke="url(#color-4)" stroke-width="0.5"/><path d="M254.47918,173.25586c1.48627,0.29338 3.02874,0.24165 3.02874,0.24165l-0.40393,1.93751c0,0 -1.21945,-0.01023 -2.34495,-0.33321c-0.73066,-0.20967 -1.03653,-0.43761 -1.03653,-0.43761c0,0 0.25885,0.47086 0.52826,1.20095c0.52951,1.43497 0.32369,2.46576 0.32369,2.46576l-1.78906,0.40547c0,0 -0.03556,-1.83116 -0.48107,-3.42127c-0.37473,-1.33748 -1.15247,-3.09079 -1.15247,-3.09079c0,0 1.68438,0.70724 3.32733,1.03155z" fill="#fff4e3" stroke="none" stroke-width="0"/><g><path d="M254.93581,173.004c1.58987,0.17846 3.27511,-0.03167 3.27511,-0.03167l-0.63178,2.19028c0,0 -1.32727,0.10938 -2.52124,-0.13764c-0.77511,-0.16036 -1.08571,-0.38305 -1.08571,-0.38305c0,0 0.23533,0.49694 0.4565,1.28054c0.4347,1.54014 0.10846,2.70451 0.10846,2.70451l-1.98887,0.62713c0,0 0.14255,-2.02875 -0.18528,-3.74939c-0.27576,-1.44727 -0.94933,-3.31615 -0.94933,-3.31615c0,0 1.76468,0.61817 3.52214,0.81543z" fill="#fff4e3" stroke="none" stroke-width="0"/><path d="M260.794,173.54991c0,0 -0.09674,0.10581 -0.23374,0.25566c-0.06745,0.07378 -0.14466,0.15822 -0.22488,0.24597c-0.94506,1.03369 -6.92689,7.5765 -6.92689,7.5765c0,0 -0.18791,-0.16961 -0.40261,-0.36342c-0.85826,-0.77474 -6.4338,-5.80778 -6.4338,-5.80778l7.38551,-8.07814z" data-paper-data="{&quot;origRot&quot;:0,&quot;index&quot;:null}" fill="url(#color-5)" stroke="#8e8885" stroke-width="1"/><g stroke="none" stroke-width="0.5"><g><path d="M253.51478,168.88161c0.1625,-0.18026 0.41611,-0.21654 0.56645,-0.08102c0.15034,0.13552 0.14049,0.39151 -0.02202,0.57179c-0.1625,0.18026 -0.41611,0.21654 -0.56645,0.08102c-0.15034,-0.13552 -0.14048,-0.39151 0.02202,-0.57179z" fill="#ffcf33"/><path d="M254.26208,169.519c0.1625,-0.18026 0.41611,-0.21655 0.56645,-0.08102c0.15034,0.13552 0.14049,0.39152 -0.02202,0.5718c-0.1625,0.18026 -0.41611,0.21654 -0.56645,0.08102c-0.15034,-0.13552 -0.14049,-0.39152 0.02202,-0.57179z" fill="#ffc250"/></g><g><path d="M255.02856,170.24143c0.1625,-0.18026 0.41611,-0.21653 0.56644,-0.08101c0.15034,0.13552 0.14049,0.39151 -0.02201,0.57179c-0.1625,0.18026 -0.41612,0.21654 -0.56646,0.08102c-0.15034,-0.13552 -0.14047,-0.39154 0.02203,-0.5718z" fill="#ffb648"/><path d="M255.77404,170.9261c0.1625,-0.18026 0.41611,-0.21654 0.56644,-0.08102c0.15033,0.13552 0.14049,0.39151 -0.02202,0.57179c-0.16249,0.18026 -0.41611,0.21654 -0.56645,0.08102c-0.15034,-0.13552 -0.14048,-0.39153 0.02202,-0.57179z" fill="#ffad4a"/></g><g><path d="M256.56411,171.62741c0.16249,-0.18026 0.41611,-0.21654 0.56644,-0.08102c0.15033,0.13552 0.14049,0.39151 -0.02201,0.57179c-0.16249,0.18026 -0.41612,0.21654 -0.56645,0.08102c-0.15033,-0.13552 -0.14047,-0.39153 0.02202,-0.57179z" fill="#ff9b43"/><path d="M257.30958,172.31208c0.16249,-0.18026 0.41611,-0.21655 0.56644,-0.08103c0.15033,0.13552 0.14047,0.39153 -0.02202,0.57179c-0.16249,0.18026 -0.41611,0.21653 -0.56644,0.08101c-0.15033,-0.13552 -0.14048,-0.39151 0.02202,-0.57178z" fill="#ff9243"/></g><g><path d="M258.03178,172.95602c0.16249,-0.18026 0.41611,-0.21653 0.56644,-0.08101c0.15033,0.13552 0.14049,0.39151 -0.02202,0.57178c-0.16249,0.18026 -0.41612,0.21655 -0.56646,0.08103c-0.15033,-0.13552 -0.14047,-0.39154 0.02203,-0.5718z" fill="#ff9058"/><path d="M258.77725,173.64069c0.16249,-0.18026 0.41611,-0.21654 0.56644,-0.08102c0.15033,0.13552 0.14049,0.39151 -0.02202,0.57179c-0.16249,0.18026 -0.41611,0.21654 -0.56645,0.08102c-0.15033,-0.13552 -0.14047,-0.39153 0.02202,-0.57179z" fill="#ff7d52"/></g></g><g stroke="none" stroke-width="0.5"><g><path d="M252.84575,169.6238c0.1625,-0.18026 0.41611,-0.21655 0.56645,-0.08102c0.15034,0.13552 0.14049,0.39152 -0.02202,0.57179c-0.1625,0.18026 -0.41611,0.21654 -0.56645,0.08102c-0.15034,-0.13552 -0.14048,-0.39151 0.02202,-0.57179z" fill="#ffcf33"/><path d="M253.59303,170.26119c0.1625,-0.18026 0.41611,-0.21655 0.56645,-0.08102c0.15034,0.13552 0.14049,0.39152 -0.02202,0.57179c-0.1625,0.18026 -0.4161,0.21654 -0.56644,0.08101c-0.15034,-0.13552 -0.14049,-0.39151 0.02201,-0.57178z" fill="#ffc250"/></g><g><path d="M254.35952,170.98362c0.1625,-0.18026 0.41611,-0.21654 0.56645,-0.08102c0.15034,0.13552 0.14048,0.39153 -0.02202,0.57179c-0.1625,0.18026 -0.41612,0.21654 -0.56646,0.08102c-0.15034,-0.13552 -0.14047,-0.39153 0.02203,-0.57179z" fill="#ffb648"/><path d="M255.10499,171.6683c0.1625,-0.18026 0.41611,-0.21653 0.56645,-0.08101c0.15034,0.13552 0.14048,0.39151 -0.02202,0.57178c-0.1625,0.18026 -0.41611,0.21655 -0.56645,0.08103c-0.15034,-0.13552 -0.14048,-0.39154 0.02202,-0.5718z" fill="#ffad4a"/></g><g><path d="M255.89509,172.3696c0.1625,-0.18026 0.4161,-0.21655 0.56644,-0.08103c0.15033,0.13552 0.14049,0.39151 -0.02201,0.57179c-0.16249,0.18026 -0.41612,0.21654 -0.56645,0.08102c-0.15034,-0.13552 -0.14047,-0.39152 0.02203,-0.57178z" fill="#ff9b43"/><path d="M256.64054,173.05427c0.16249,-0.18026 0.41611,-0.21655 0.56644,-0.08103c0.15033,0.13552 0.14047,0.39153 -0.02202,0.57179c-0.16249,0.18026 -0.41611,0.21653 -0.56644,0.08101c-0.15033,-0.13552 -0.14048,-0.3915 0.02202,-0.57178z" fill="#ff9243"/></g><g><path d="M257.36271,173.69821c0.16249,-0.18026 0.41612,-0.21654 0.56645,-0.08102c0.15033,0.13552 0.14047,0.39154 -0.02202,0.5718c-0.16249,0.18026 -0.41612,0.21654 -0.56645,0.08102c-0.15033,-0.13552 -0.14047,-0.39154 0.02202,-0.5718z" fill="#ff9058"/><path d="M258.10821,174.38289c0.16249,-0.18026 0.41611,-0.21654 0.56644,-0.08102c0.15033,0.13552 0.14049,0.39151 -0.02201,0.57179c-0.16249,0.18026 -0.41612,0.21654 -0.56645,0.08102c-0.15033,-0.13552 -0.14047,-0.39153 0.02202,-0.57179z" fill="#ff7d52"/></g></g><g stroke="none" stroke-width="0.5"><g><path d="M252.15442,170.39072c0.1625,-0.18026 0.41611,-0.21655 0.56645,-0.08103c0.15034,0.13552 0.14049,0.39152 -0.02202,0.5718c-0.1625,0.18026 -0.4161,0.21653 -0.56644,0.08101c-0.15034,-0.13552 -0.14049,-0.39151 0.02201,-0.57178z" fill="#ffcf33"/><path d="M252.90171,171.02811c0.1625,-0.18026 0.41611,-0.21654 0.56645,-0.08102c0.15034,0.13552 0.14049,0.39152 -0.02202,0.5718c-0.1625,0.18026 -0.41611,0.21654 -0.56645,0.08102c-0.15034,-0.13552 -0.14049,-0.39152 0.02202,-0.5718z" fill="#ffc250"/></g><g><path d="M253.66817,171.75055c0.1625,-0.18026 0.41611,-0.21655 0.56645,-0.08103c0.15034,0.13552 0.14048,0.39154 -0.02202,0.5718c-0.1625,0.18026 -0.41611,0.21654 -0.56645,0.08102c-0.15034,-0.13552 -0.14048,-0.39153 0.02202,-0.57179z" fill="#ffb648"/><path d="M254.41366,172.43522c0.1625,-0.18026 0.41611,-0.21653 0.56645,-0.08101c0.15034,0.13552 0.14048,0.39151 -0.02202,0.57178c-0.1625,0.18026 -0.41611,0.21654 -0.56645,0.08102c-0.15034,-0.13552 -0.14048,-0.39153 0.02202,-0.57179z" fill="#ffad4a"/></g><g><path d="M255.20375,173.13652c0.1625,-0.18026 0.4161,-0.21654 0.56644,-0.08102c0.15034,0.13552 0.14048,0.39151 -0.02202,0.57179c-0.1625,0.18026 -0.41612,0.21654 -0.56645,0.08102c-0.15034,-0.13552 -0.14047,-0.39152 0.02203,-0.57178z" fill="#ff9b43"/><path d="M255.94921,173.8212c0.1625,-0.18026 0.41611,-0.21655 0.56645,-0.08103c0.15033,0.13552 0.14047,0.39153 -0.02202,0.57179c-0.16249,0.18026 -0.41611,0.21654 -0.56645,0.08102c-0.15034,-0.13552 -0.14048,-0.39151 0.02202,-0.57178z" fill="#ff9243"/></g><g><path d="M256.67139,174.46514c0.16249,-0.18026 0.41611,-0.21655 0.56645,-0.08103c0.15033,0.13552 0.14047,0.39154 -0.02202,0.5718c-0.16249,0.18026 -0.41611,0.21654 -0.56645,0.08102c-0.15033,-0.13552 -0.14047,-0.39153 0.02202,-0.57179z" fill="#ff9058"/><path d="M257.41686,175.14981c0.16249,-0.18026 0.41611,-0.21654 0.56644,-0.08102c0.15033,0.13552 0.14049,0.39151 -0.02201,0.57179c-0.16249,0.18026 -0.41612,0.21654 -0.56645,0.08102c-0.15033,-0.13552 -0.14047,-0.39153 0.02202,-0.57179z" fill="#ff7d52"/></g></g><g stroke="none" stroke-width="0.5"><g><path d="M251.46964,171.15037c0.1625,-0.18026 0.41611,-0.21654 0.56645,-0.08102c0.15034,0.13552 0.14049,0.39151 -0.02202,0.57179c-0.1625,0.18026 -0.41611,0.21654 -0.56645,0.08102c-0.15034,-0.13552 -0.14049,-0.39151 0.02202,-0.57179z" fill="#ffcf33"/><path d="M252.21692,171.78777c0.1625,-0.18026 0.41611,-0.21654 0.56645,-0.08102c0.15034,0.13552 0.14048,0.39151 -0.02202,0.57179c-0.1625,0.18026 -0.41611,0.21654 -0.56645,0.08102c-0.15034,-0.13552 -0.14049,-0.39151 0.02202,-0.57179z" fill="#ffc250"/></g><g><path d="M252.9834,172.5102c0.1625,-0.18026 0.41611,-0.21654 0.56645,-0.08102c0.15034,0.13552 0.14048,0.39151 -0.02202,0.57179c-0.1625,0.18026 -0.41611,0.21654 -0.56645,0.08102c-0.15034,-0.13552 -0.14048,-0.39153 0.02202,-0.57179z" fill="#ffb648"/><path d="M253.72889,173.19487c0.1625,-0.18026 0.41611,-0.21654 0.56645,-0.08102c0.15034,0.13552 0.14048,0.39153 -0.02202,0.57179c-0.1625,0.18026 -0.41611,0.21653 -0.56645,0.08101c-0.15034,-0.13552 -0.14048,-0.39151 0.02202,-0.57179z" fill="#ffad4a"/></g><g><path d="M254.51896,173.89618c0.1625,-0.18026 0.41611,-0.21655 0.56644,-0.08103c0.15034,0.13552 0.14047,0.39154 -0.02202,0.5718c-0.1625,0.18026 -0.4161,0.21654 -0.56644,0.08102c-0.15034,-0.13552 -0.14048,-0.39151 0.02202,-0.57178z" fill="#ff9b43"/><path d="M255.26444,174.58084c0.1625,-0.18026 0.41611,-0.21654 0.56645,-0.08102c0.15034,0.13552 0.14048,0.39153 -0.02202,0.57179c-0.1625,0.18026 -0.41611,0.21654 -0.56645,0.08102c-0.15034,-0.13552 -0.14047,-0.39153 0.02202,-0.57179z" fill="#ff9243"/></g><g><path d="M255.98662,175.22479c0.1625,-0.18026 0.41611,-0.21653 0.56645,-0.08101c0.15033,0.13552 0.14049,0.39151 -0.02202,0.57178c-0.16249,0.18026 -0.41611,0.21654 -0.56645,0.08102c-0.15034,-0.13552 -0.14048,-0.39153 0.02202,-0.57179z" fill="#ff9058"/><path d="M256.73209,175.90946c0.16249,-0.18026 0.41611,-0.21654 0.56645,-0.08102c0.15033,0.13552 0.14047,0.39153 -0.02202,0.57179c-0.16249,0.18026 -0.41611,0.21653 -0.56644,0.08101c-0.15033,-0.13552 -0.14049,-0.39151 0.02202,-0.57179z" fill="#ff7d52"/></g></g><g stroke="none" stroke-width="0.5"><g><path d="M250.79141,171.90275c0.1625,-0.18026 0.4161,-0.21654 0.56644,-0.08101c0.15034,0.13552 0.14048,0.39151 -0.02202,0.57178c-0.1625,0.18026 -0.41611,0.21655 -0.56645,0.08103c-0.15034,-0.13552 -0.14049,-0.39152 0.02202,-0.5718z" fill="#ffcf33"/><path d="M251.53871,172.54014c0.1625,-0.18026 0.4161,-0.21654 0.56644,-0.08102c0.15034,0.13552 0.14049,0.39151 -0.02201,0.57179c-0.1625,0.18026 -0.41611,0.21654 -0.56645,0.08102c-0.15034,-0.13552 -0.14049,-0.39151 0.02202,-0.57179z" fill="#ffc250"/></g><g><path d="M252.30519,173.26257c0.1625,-0.18026 0.41612,-0.21654 0.56645,-0.08102c0.15034,0.13552 0.14047,0.39153 -0.02203,0.57179c-0.1625,0.18026 -0.4161,0.21654 -0.56644,0.08102c-0.15034,-0.13552 -0.14049,-0.39151 0.02201,-0.57179z" fill="#ffb648"/><path d="M253.05066,173.94724c0.1625,-0.18026 0.41611,-0.21654 0.56645,-0.08102c0.15034,0.13552 0.14048,0.39153 -0.02202,0.57179c-0.1625,0.18026 -0.41611,0.21653 -0.56645,0.08101c-0.15034,-0.13552 -0.14048,-0.39151 0.02202,-0.57179z" fill="#ffad4a"/></g><g><path d="M253.84075,174.64856c0.1625,-0.18026 0.41611,-0.21655 0.56644,-0.08103c0.15034,0.13552 0.14047,0.39153 -0.02203,0.57179c-0.1625,0.18026 -0.41611,0.21654 -0.56644,0.08102c-0.15034,-0.13552 -0.14047,-0.39151 0.02203,-0.57178z" fill="#ff9b43"/><path d="M254.58622,175.33322c0.1625,-0.18026 0.4161,-0.21654 0.56644,-0.08102c0.15034,0.13552 0.14049,0.39151 -0.02201,0.57178c-0.1625,0.18026 -0.41612,0.21654 -0.56645,0.08102c-0.15034,-0.13552 -0.14047,-0.39153 0.02203,-0.57179z" fill="#ff9243"/></g><g><path d="M255.30839,175.97716c0.1625,-0.18026 0.4161,-0.21653 0.56644,-0.08101c0.15034,0.13552 0.14049,0.39151 -0.02201,0.57178c-0.1625,0.18026 -0.41611,0.21654 -0.56645,0.08102c-0.15034,-0.13552 -0.14047,-0.39154 0.02202,-0.5718z" fill="#ff9058"/><path d="M256.05386,176.66183c0.16249,-0.18026 0.41612,-0.21654 0.56645,-0.08102c0.15033,0.13552 0.14047,0.39153 -0.02202,0.57179c-0.16249,0.18026 -0.41611,0.21654 -0.56645,0.08102c-0.15034,-0.13552 -0.14049,-0.39151 0.02201,-0.57179z" fill="#ff7d52"/></g></g><g stroke="none" stroke-width="0.5"><g><path d="M250.12237,172.64494c0.1625,-0.18026 0.41611,-0.21655 0.56645,-0.08103c0.15034,0.13552 0.14049,0.39152 -0.02202,0.5718c-0.1625,0.18026 -0.41611,0.21654 -0.56645,0.08102c-0.15034,-0.13552 -0.14049,-0.39151 0.02202,-0.57179z" fill="#ffcf33"/><path d="M250.86967,173.28233c0.1625,-0.18026 0.4161,-0.21654 0.56644,-0.08102c0.15034,0.13552 0.14048,0.39151 -0.02202,0.57179c-0.1625,0.18026 -0.41611,0.21654 -0.56645,0.08102c-0.15034,-0.13552 -0.14049,-0.39151 0.02202,-0.57179z" fill="#ffc250"/></g><g><path d="M251.63615,174.00476c0.1625,-0.18026 0.41611,-0.21653 0.56645,-0.08101c0.15034,0.13552 0.14048,0.39151 -0.02202,0.57178c-0.1625,0.18026 -0.41611,0.21654 -0.56645,0.08102c-0.15034,-0.13552 -0.14048,-0.39153 0.02202,-0.57179z" fill="#ffb648"/><path d="M252.38162,174.68944c0.1625,-0.18026 0.41611,-0.21654 0.56645,-0.08102c0.15034,0.13552 0.14048,0.39154 -0.02202,0.5718c-0.1625,0.18026 -0.41611,0.21653 -0.56644,0.08101c-0.15034,-0.13552 -0.14048,-0.39151 0.02202,-0.57179z" fill="#ffad4a"/></g><g><path d="M253.1717,175.39074c0.1625,-0.18026 0.41611,-0.21655 0.56644,-0.08103c0.15034,0.13552 0.14048,0.39153 -0.02202,0.57179c-0.1625,0.18026 -0.41611,0.21653 -0.56644,0.08101c-0.15034,-0.13552 -0.14048,-0.3915 0.02202,-0.57178z" fill="#ff9b43"/><path d="M253.91717,176.07541c0.1625,-0.18026 0.41611,-0.21655 0.56645,-0.08103c0.15034,0.13552 0.14048,0.39153 -0.02202,0.57179c-0.1625,0.18026 -0.41611,0.21654 -0.56645,0.08102c-0.15034,-0.13552 -0.14047,-0.39152 0.02202,-0.57178z" fill="#ff9243"/></g><g><path d="M254.63936,176.71935c0.1625,-0.18026 0.4161,-0.21654 0.56644,-0.08102c0.15034,0.13552 0.14049,0.39151 -0.02201,0.57179c-0.1625,0.18026 -0.41612,0.21654 -0.56645,0.08102c-0.15034,-0.13552 -0.14047,-0.39153 0.02202,-0.57179z" fill="#ff9058"/><path d="M255.38482,177.40403c0.1625,-0.18026 0.41611,-0.21655 0.56645,-0.08103c0.15034,0.13552 0.14047,0.39154 -0.02202,0.5718c-0.1625,0.18026 -0.41611,0.21654 -0.56644,0.08102c-0.15034,-0.13552 -0.14048,-0.39151 0.02202,-0.57179z" fill="#ff7d52"/></g></g><g stroke="none" stroke-width="0.5"><g><path d="M249.43103,173.41186c0.1625,-0.18026 0.41611,-0.21655 0.56645,-0.08103c0.15034,0.13552 0.14049,0.39152 -0.02202,0.5718c-0.1625,0.18026 -0.41611,0.21654 -0.56645,0.08102c-0.15034,-0.13552 -0.14048,-0.39151 0.02203,-0.57179z" fill="#ffcf33"/><path d="M250.17833,174.04926c0.1625,-0.18026 0.4161,-0.21654 0.56644,-0.08102c0.15034,0.13552 0.14049,0.39151 -0.02201,0.57179c-0.1625,0.18026 -0.41611,0.21654 -0.56645,0.08102c-0.15034,-0.13552 -0.14049,-0.39151 0.02202,-0.57179z" fill="#ffc250"/></g><g><path d="M250.9448,174.77169c0.1625,-0.18026 0.41611,-0.21654 0.56645,-0.08102c0.15034,0.13552 0.14048,0.39151 -0.02202,0.57179c-0.1625,0.18026 -0.41611,0.21654 -0.56645,0.08102c-0.15034,-0.13552 -0.14048,-0.39153 0.02202,-0.57179z" fill="#ffb648"/><path d="M251.69028,175.45636c0.1625,-0.18026 0.41611,-0.21654 0.56645,-0.08102c0.15034,0.13552 0.14048,0.39153 -0.02202,0.57179c-0.1625,0.18026 -0.41611,0.21653 -0.56645,0.08101c-0.15034,-0.13552 -0.14048,-0.39151 0.02202,-0.57178z" fill="#ffad4a"/></g><g><path d="M252.48037,176.15767c0.1625,-0.18026 0.41611,-0.21655 0.56645,-0.08103c0.15034,0.13552 0.14047,0.39153 -0.02203,0.57179c-0.1625,0.18026 -0.4161,0.21654 -0.56644,0.08102c-0.15034,-0.13552 -0.14048,-0.3915 0.02202,-0.57178z" fill="#ff9b43"/><path d="M253.22583,176.84234c0.1625,-0.18026 0.41611,-0.21655 0.56645,-0.08103c0.15034,0.13552 0.14047,0.39153 -0.02203,0.57179c-0.1625,0.18026 -0.41611,0.21654 -0.56645,0.08102c-0.15034,-0.13552 -0.14047,-0.39152 0.02203,-0.57178z" fill="#ff9243"/></g><g><path d="M253.94802,177.48628c0.1625,-0.18026 0.41611,-0.21653 0.56644,-0.08101c0.15034,0.13552 0.14048,0.39151 -0.02202,0.57179c-0.1625,0.18026 -0.41611,0.21654 -0.56645,0.08102c-0.15034,-0.13552 -0.14047,-0.39153 0.02202,-0.57179z" fill="#ff9058"/><path d="M254.69348,178.17095c0.1625,-0.18026 0.41611,-0.21654 0.56645,-0.08102c0.15034,0.13552 0.14048,0.39154 -0.02202,0.5718c-0.1625,0.18026 -0.41611,0.21653 -0.56645,0.08101c-0.15034,-0.13552 -0.14048,-0.39151 0.02202,-0.57179z" fill="#ff7d52"/></g></g><g stroke="none" stroke-width="0.5"><g><path d="M248.74625,174.17151c0.1625,-0.18026 0.4161,-0.21654 0.56644,-0.08102c0.15034,0.13552 0.14049,0.39151 -0.02201,0.57179c-0.1625,0.18026 -0.41611,0.21655 -0.56645,0.08102c-0.15034,-0.13552 -0.14049,-0.39152 0.02202,-0.57179z" fill="#ffcf33"/><path d="M249.49353,174.80891c0.1625,-0.18026 0.41611,-0.21654 0.56645,-0.08102c0.15034,0.13552 0.14049,0.39151 -0.02202,0.57179c-0.1625,0.18026 -0.4161,0.21654 -0.56644,0.08102c-0.15034,-0.13552 -0.14049,-0.39151 0.02201,-0.57179z" fill="#ffc250"/></g><g><path d="M250.26002,175.53134c0.1625,-0.18026 0.41611,-0.21655 0.56645,-0.08103c0.15034,0.13552 0.14048,0.39154 -0.02202,0.5718c-0.1625,0.18026 -0.41611,0.21654 -0.56644,0.08102c-0.15034,-0.13552 -0.14049,-0.39151 0.02201,-0.57179z" fill="#ffb648"/><path d="M251.00551,176.21601c0.1625,-0.18026 0.41611,-0.21653 0.56644,-0.08101c0.15034,0.13552 0.14049,0.39151 -0.02201,0.57178c-0.1625,0.18026 -0.41611,0.21655 -0.56645,0.08103c-0.15034,-0.13552 -0.14048,-0.39154 0.02202,-0.5718z" fill="#ffad4a"/></g><g><path d="M251.7956,176.91732c0.1625,-0.18026 0.41611,-0.21655 0.56644,-0.08103c0.15034,0.13552 0.14047,0.39154 -0.02202,0.5718c-0.1625,0.18026 -0.41611,0.21654 -0.56645,0.08102c-0.15034,-0.13552 -0.14047,-0.39153 0.02203,-0.57179z" fill="#ff9b43"/><path d="M252.54106,177.60198c0.1625,-0.18026 0.4161,-0.21654 0.56644,-0.08102c0.15034,0.13552 0.14049,0.39151 -0.02201,0.57179c-0.1625,0.18026 -0.41612,0.21654 -0.56646,0.08102c-0.15034,-0.13552 -0.14047,-0.39153 0.02203,-0.57179z" fill="#ff9243"/></g><g><path d="M253.26323,178.24593c0.1625,-0.18026 0.41611,-0.21654 0.56645,-0.08102c0.15034,0.13552 0.14048,0.39153 -0.02202,0.57179c-0.1625,0.18026 -0.41611,0.21654 -0.56644,0.08102c-0.15034,-0.13552 -0.14048,-0.39151 0.02202,-0.57179z" fill="#ff9058"/><path d="M254.00872,178.9306c0.1625,-0.18026 0.41611,-0.21653 0.56645,-0.08101c0.15034,0.13552 0.14048,0.39151 -0.02202,0.57178c-0.1625,0.18026 -0.41611,0.21654 -0.56645,0.08102c-0.15034,-0.13552 -0.14048,-0.39153 0.02202,-0.57179z" fill="#ff7d52"/></g></g><g stroke="none" stroke-width="0.5"><g><path d="M248.08261,174.93702c0.1625,-0.18026 0.41611,-0.21654 0.56645,-0.08102c0.15034,0.13552 0.14049,0.39151 -0.02202,0.57179c-0.1625,0.18026 -0.41611,0.21654 -0.56645,0.08102c-0.15034,-0.13552 -0.14049,-0.39151 0.02202,-0.57179z" fill="#ffcf33"/><path d="M248.8299,175.57441c0.1625,-0.18026 0.4161,-0.21654 0.56644,-0.08102c0.15034,0.13552 0.14048,0.39151 -0.02202,0.57179c-0.1625,0.18026 -0.41611,0.21654 -0.56645,0.08102c-0.15034,-0.13552 -0.14049,-0.39151 0.02202,-0.57179z" fill="#ffc250"/></g><g><path d="M249.59638,176.29684c0.1625,-0.18026 0.41611,-0.21653 0.56644,-0.08101c0.15034,0.13552 0.14048,0.39151 -0.02202,0.57179c-0.1625,0.18026 -0.41611,0.21654 -0.56645,0.08102c-0.15034,-0.13552 -0.14048,-0.39153 0.02202,-0.57179z" fill="#ffb648"/><path d="M250.34185,176.98151c0.1625,-0.18026 0.41611,-0.21654 0.56645,-0.08102c0.15034,0.13552 0.14048,0.39153 -0.02202,0.57179c-0.1625,0.18026 -0.41611,0.21654 -0.56645,0.08102c-0.15034,-0.13552 -0.14048,-0.39151 0.02202,-0.57179z" fill="#ffad4a"/></g><g><path d="M251.13194,177.68282c0.1625,-0.18026 0.41611,-0.21655 0.56644,-0.08103c0.15034,0.13552 0.14048,0.39154 -0.02202,0.5718c-0.1625,0.18026 -0.41611,0.21653 -0.56644,0.08101c-0.15034,-0.13552 -0.14048,-0.3915 0.02202,-0.57178z" fill="#ff9b43"/><path d="M251.87741,178.36749c0.1625,-0.18026 0.41611,-0.21655 0.56644,-0.08103c0.15034,0.13552 0.14048,0.39153 -0.02202,0.57179c-0.1625,0.18026 -0.41611,0.21654 -0.56645,0.08102c-0.15034,-0.13552 -0.14047,-0.39152 0.02203,-0.57178z" fill="#ff9243"/></g><g><path d="M252.59958,179.01143c0.1625,-0.18026 0.41611,-0.21654 0.56644,-0.08102c0.15034,0.13552 0.14049,0.39151 -0.02201,0.57179c-0.1625,0.18026 -0.41611,0.21654 -0.56645,0.08102c-0.15034,-0.13552 -0.14048,-0.39153 0.02202,-0.57179z" fill="#ff9058"/><path d="M253.34506,179.6961c0.1625,-0.18026 0.41611,-0.21654 0.56645,-0.08102c0.15034,0.13552 0.14048,0.39153 -0.02202,0.57179c-0.1625,0.18026 -0.41611,0.21654 -0.56644,0.08102c-0.15034,-0.13552 -0.14049,-0.39151 0.02201,-0.57179z" fill="#ff7d52"/></g></g><g stroke="none" stroke-width="0.5"><g><g><path d="M252.87154,169.66278c0.1625,-0.18026 0.4161,-0.21654 0.56644,-0.08102c0.15034,0.13552 0.14049,0.39151 -0.02201,0.57179c-0.1625,0.18026 -0.41611,0.21654 -0.56645,0.08102c-0.15034,-0.13552 -0.14048,-0.39151 0.02203,-0.57179z" fill="#ffcf33"/><path d="M253.61882,170.30017c0.1625,-0.18026 0.41611,-0.21655 0.56645,-0.08103c0.15034,0.13552 0.14049,0.39152 -0.02202,0.5718c-0.1625,0.18026 -0.41611,0.21654 -0.56645,0.08102c-0.15034,-0.13552 -0.14048,-0.39151 0.02202,-0.57179z" fill="#ffc250"/></g><g><path d="M254.38529,171.02261c0.1625,-0.18026 0.41611,-0.21654 0.56645,-0.08102c0.15034,0.13552 0.14048,0.39153 -0.02202,0.57179c-0.1625,0.18026 -0.41611,0.21654 -0.56644,0.08102c-0.15034,-0.13552 -0.14049,-0.39151 0.02201,-0.57179z" fill="#ffb648"/><path d="M255.13078,171.70728c0.1625,-0.18026 0.41611,-0.21654 0.56645,-0.08102c0.15034,0.13552 0.14048,0.39153 -0.02202,0.57179c-0.1625,0.18026 -0.41612,0.21654 -0.56646,0.08102c-0.15034,-0.13552 -0.14047,-0.39154 0.02203,-0.5718z" fill="#ffad4a"/></g><g><path d="M255.92087,172.40858c0.1625,-0.18026 0.41611,-0.21655 0.56645,-0.08103c0.15033,0.13552 0.14047,0.39153 -0.02202,0.57179c-0.16249,0.18026 -0.41612,0.21655 -0.56645,0.08103c-0.15034,-0.13552 -0.14047,-0.39153 0.02203,-0.57179z" fill="#ffe9c0"/><path d="M256.66632,173.09325c0.16249,-0.18026 0.41611,-0.21654 0.56644,-0.08102c0.15033,0.13552 0.14049,0.39151 -0.02201,0.57179c-0.16249,0.18026 -0.41612,0.21654 -0.56645,0.08102c-0.15033,-0.13552 -0.14047,-0.39153 0.02202,-0.57179z" fill="#fff4e3"/></g><g><path d="M257.38852,173.73719c0.16249,-0.18026 0.41612,-0.21654 0.56645,-0.08102c0.15033,0.13552 0.14047,0.39153 -0.02202,0.57179c-0.16249,0.18026 -0.41611,0.21653 -0.56644,0.08101c-0.15033,-0.13552 -0.14049,-0.39151 0.02202,-0.57179z" fill="#ffe4bc"/><path d="M258.13399,174.42187c0.16249,-0.18026 0.41611,-0.21655 0.56645,-0.08103c0.15033,0.13552 0.14047,0.39154 -0.02202,0.5718c-0.16249,0.18026 -0.41612,0.21654 -0.56645,0.08102c-0.15033,-0.13552 -0.14047,-0.39153 0.02202,-0.57179z" fill="#ff7d52"/></g></g><g><g><path d="M252.1802,170.4297c0.1625,-0.18026 0.4161,-0.21654 0.56644,-0.08101c0.15034,0.13552 0.14048,0.39151 -0.02202,0.57178c-0.1625,0.18026 -0.41611,0.21655 -0.56645,0.08102c-0.15034,-0.13552 -0.14049,-0.39152 0.02202,-0.57179z" fill="#ffcf33"/><path d="M252.92748,171.06709c0.1625,-0.18026 0.41611,-0.21654 0.56645,-0.08102c0.15034,0.13552 0.14049,0.39152 -0.02202,0.57179c-0.1625,0.18026 -0.4161,0.21654 -0.56644,0.08101c-0.15034,-0.13552 -0.14049,-0.39151 0.02201,-0.57179z" fill="#ffc250"/></g><g><path d="M253.69397,171.78953c0.1625,-0.18026 0.41611,-0.21655 0.56645,-0.08103c0.15034,0.13552 0.14048,0.39154 -0.02202,0.5718c-0.1625,0.18026 -0.41611,0.21654 -0.56645,0.08102c-0.15034,-0.13552 -0.14048,-0.39151 0.02202,-0.57179z" fill="#ffb648"/><path d="M254.43943,172.4742c0.1625,-0.18026 0.41611,-0.21653 0.56644,-0.08101c0.15034,0.13552 0.14049,0.39151 -0.02201,0.57178c-0.1625,0.18026 -0.41611,0.21655 -0.56645,0.08103c-0.15034,-0.13552 -0.14048,-0.39154 0.02202,-0.5718z" fill="#ffe9c0"/></g><g><path d="M255.22954,173.1755c0.1625,-0.18026 0.41611,-0.21654 0.56644,-0.08102c0.15034,0.13552 0.14047,0.39153 -0.02203,0.57179c-0.1625,0.18026 -0.41611,0.21654 -0.56645,0.08102c-0.15034,-0.13552 -0.14047,-0.39153 0.02203,-0.57179z" fill="#fff4e3"/><path d="M255.97499,173.86018c0.16249,-0.18026 0.4161,-0.21654 0.56644,-0.08102c0.15033,0.13552 0.14049,0.39151 -0.02202,0.57179c-0.16249,0.18026 -0.41611,0.21654 -0.56645,0.08102c-0.15034,-0.13552 -0.14047,-0.39153 0.02203,-0.57179z" fill="#ffe0ca"/></g><g><path d="M256.69717,174.50412c0.16249,-0.18026 0.41611,-0.21654 0.56645,-0.08102c0.15033,0.13552 0.14047,0.39153 -0.02202,0.57179c-0.16249,0.18026 -0.41611,0.21654 -0.56644,0.08102c-0.15033,-0.13552 -0.14049,-0.39151 0.02202,-0.57179z" fill="#ff9058"/><path d="M257.44264,175.18879c0.16249,-0.18026 0.41611,-0.21653 0.56644,-0.08101c0.15033,0.13552 0.14049,0.39151 -0.02201,0.57178c-0.16249,0.18026 -0.41612,0.21654 -0.56646,0.08102c-0.15033,-0.13552 -0.14047,-0.39154 0.02202,-0.5718z" fill="#ff7d52"/></g></g><g><g><path d="M251.49541,171.18935c0.1625,-0.18026 0.41611,-0.21655 0.56645,-0.08102c0.15034,0.13552 0.14049,0.39152 -0.02202,0.57179c-0.1625,0.18026 -0.4161,0.21654 -0.56644,0.08101c-0.15034,-0.13552 -0.14049,-0.39151 0.02201,-0.57178z" fill="#ffcf33"/><path d="M252.24271,171.82675c0.1625,-0.18026 0.41612,-0.21655 0.56646,-0.08102c0.15034,0.13552 0.14048,0.39152 -0.02203,0.57179c-0.1625,0.18026 -0.41611,0.21654 -0.56645,0.08102c-0.15034,-0.13552 -0.14049,-0.39151 0.02202,-0.57179z" fill="#ffc250"/></g><g><path d="M253.00918,172.54918c0.1625,-0.18026 0.41611,-0.21654 0.56644,-0.08102c0.15034,0.13552 0.14049,0.39151 -0.02201,0.57179c-0.1625,0.18026 -0.41611,0.21654 -0.56645,0.08102c-0.15034,-0.13552 -0.14048,-0.39153 0.02202,-0.57179z" fill="#ffe9c0"/><path d="M253.75466,173.23385c0.1625,-0.18026 0.41611,-0.21654 0.56645,-0.08102c0.15034,0.13552 0.14048,0.39153 -0.02202,0.57179c-0.1625,0.18026 -0.41611,0.21654 -0.56644,0.08102c-0.15034,-0.13552 -0.14049,-0.39151 0.02201,-0.57179z" fill="#fff4e3"/></g><g><path d="M254.54475,173.93516c0.1625,-0.18026 0.4161,-0.21654 0.56644,-0.08102c0.15034,0.13552 0.14048,0.39151 -0.02202,0.57179c-0.1625,0.18026 -0.41611,0.21654 -0.56645,0.08102c-0.15034,-0.13552 -0.14047,-0.39153 0.02203,-0.57179z" fill="#ffd1a9"/><path d="M255.29023,174.61982c0.1625,-0.18026 0.41611,-0.21655 0.56644,-0.08103c0.15034,0.13552 0.14047,0.39153 -0.02202,0.57179c-0.1625,0.18026 -0.41611,0.21653 -0.56645,0.08101c-0.15034,-0.13552 -0.14047,-0.39151 0.02203,-0.57178z" fill="#ff9243"/></g><g><path d="M256.01239,175.26377c0.16249,-0.18026 0.41611,-0.21654 0.56644,-0.08102c0.15033,0.13552 0.14049,0.39151 -0.02202,0.57179c-0.16249,0.18026 -0.41611,0.21654 -0.56645,0.08102c-0.15034,-0.13552 -0.14048,-0.39153 0.02202,-0.57179z" fill="#ff9058"/><path d="M256.75786,175.94844c0.16249,-0.18026 0.41611,-0.21653 0.56644,-0.08101c0.15033,0.13552 0.14049,0.39151 -0.02201,0.57179c-0.16249,0.18026 -0.41612,0.21654 -0.56646,0.08102c-0.15033,-0.13552 -0.14047,-0.39153 0.02202,-0.57179z" fill="#ff7d52"/></g></g><g><g><path d="M250.78805,171.91547c0.1625,-0.18026 0.41611,-0.21654 0.56645,-0.08102c0.15034,0.13552 0.14049,0.39151 -0.02202,0.57179c-0.1625,0.18026 -0.4161,0.21654 -0.56644,0.08102c-0.15034,-0.13552 -0.14049,-0.39151 0.02201,-0.57179z" fill="#ffcf33"/><path d="M251.53536,172.55286c0.1625,-0.18026 0.41611,-0.21654 0.56645,-0.08102c0.15034,0.13552 0.14048,0.39151 -0.02202,0.57179c-0.1625,0.18026 -0.41611,0.21654 -0.56645,0.08102c-0.15034,-0.13552 -0.14049,-0.39151 0.02202,-0.57179z" fill="#ffe9c0"/></g><g><path d="M252.30184,173.27529c0.1625,-0.18026 0.41611,-0.21653 0.56644,-0.08101c0.15034,0.13552 0.14048,0.39151 -0.02202,0.57178c-0.1625,0.18026 -0.41611,0.21655 -0.56645,0.08103c-0.15034,-0.13552 -0.14047,-0.39154 0.02202,-0.5718z" fill="#fff4e3"/><path d="M253.04732,173.95996c0.1625,-0.18026 0.41611,-0.21654 0.56645,-0.08102c0.15034,0.13552 0.14047,0.39153 -0.02203,0.57179c-0.1625,0.18026 -0.4161,0.21654 -0.56644,0.08102c-0.15034,-0.13552 -0.14048,-0.39151 0.02202,-0.57179z" fill="#ffe0bb"/></g><g><path d="M253.83739,174.66128c0.1625,-0.18026 0.41611,-0.21654 0.56644,-0.08102c0.15034,0.13552 0.14048,0.39151 -0.02202,0.57178c-0.1625,0.18026 -0.41611,0.21655 -0.56644,0.08103c-0.15034,-0.13552 -0.14048,-0.39153 0.02202,-0.57179z" fill="#ff9b43"/><path d="M254.58288,175.34595c0.1625,-0.18026 0.41611,-0.21655 0.56645,-0.08103c0.15034,0.13552 0.14047,0.39153 -0.02203,0.57179c-0.1625,0.18026 -0.4161,0.21654 -0.56643,0.08102c-0.15034,-0.13552 -0.14049,-0.39151 0.02201,-0.57178z" fill="#ff9243"/></g><g><path d="M255.30506,175.98989c0.1625,-0.18026 0.41611,-0.21654 0.56645,-0.08102c0.15034,0.13552 0.14048,0.39151 -0.02202,0.57179c-0.1625,0.18026 -0.41611,0.21654 -0.56645,0.08102c-0.15034,-0.13552 -0.14048,-0.39153 0.02202,-0.57179z" fill="#ff9058"/><path d="M256.05053,176.67456c0.16249,-0.18026 0.41611,-0.21655 0.56645,-0.08103c0.15033,0.13552 0.14047,0.39154 -0.02202,0.5718c-0.16249,0.18026 -0.41611,0.21653 -0.56644,0.08101c-0.15034,-0.13552 -0.14048,-0.39151 0.02202,-0.57178z" fill="#ff7d52"/></g></g><g><g><path d="M250.17637,172.59404c0.1625,-0.18026 0.41611,-0.21655 0.56645,-0.08102c0.15034,0.13552 0.14049,0.39152 -0.02202,0.57179c-0.1625,0.18026 -0.4161,0.21654 -0.56644,0.08101c-0.15034,-0.13552 -0.14049,-0.39151 0.02201,-0.57178z" fill="#ffcf33"/><path d="M250.92367,173.23143c0.1625,-0.18026 0.41611,-0.21655 0.56645,-0.08102c0.15034,0.13552 0.14049,0.39152 -0.02202,0.57179c-0.1625,0.18026 -0.41611,0.21655 -0.56645,0.08102c-0.15034,-0.13552 -0.14049,-0.39152 0.02202,-0.57179z" fill="#ffc250"/></g><g><path d="M251.69014,173.95387c0.1625,-0.18026 0.41611,-0.21654 0.56645,-0.08102c0.15034,0.13552 0.14048,0.39153 -0.02202,0.57179c-0.1625,0.18026 -0.41611,0.21655 -0.56645,0.08103c-0.15034,-0.13552 -0.14048,-0.39154 0.02202,-0.5718z" fill="#ffe9c0"/><path d="M252.4356,174.63854c0.1625,-0.18026 0.41611,-0.21654 0.56645,-0.08102c0.15034,0.13552 0.14048,0.39151 -0.02202,0.57179c-0.1625,0.18026 -0.41612,0.21654 -0.56645,0.08102c-0.15034,-0.13552 -0.14047,-0.39153 0.02202,-0.57179z" fill="#fff4e3"/></g><g><path d="M253.2257,175.33984c0.1625,-0.18026 0.41611,-0.21654 0.56644,-0.08102c0.15034,0.13552 0.14048,0.39151 -0.02202,0.57178c-0.1625,0.18026 -0.4161,0.21655 -0.56644,0.08103c-0.15034,-0.13552 -0.14048,-0.39154 0.02202,-0.5718z" fill="#ffd1a9"/><path d="M253.97119,176.02452c0.1625,-0.18026 0.41611,-0.21654 0.56645,-0.08102c0.15034,0.13552 0.14047,0.39153 -0.02203,0.57179c-0.1625,0.18026 -0.4161,0.21654 -0.56643,0.08102c-0.15034,-0.13552 -0.14049,-0.39151 0.02201,-0.57179z" fill="#ff9243"/></g><g><path d="M254.69337,176.66846c0.1625,-0.18026 0.41611,-0.21654 0.56645,-0.08102c0.15034,0.13552 0.14048,0.39154 -0.02202,0.5718c-0.1625,0.18026 -0.41611,0.21654 -0.56645,0.08102c-0.15034,-0.13552 -0.14048,-0.39154 0.02202,-0.5718z" fill="#ff9058"/><path d="M255.43882,177.35314c0.1625,-0.18026 0.41611,-0.21653 0.56644,-0.08101c0.15034,0.13552 0.14049,0.39151 -0.02201,0.57178c-0.1625,0.18026 -0.41611,0.21654 -0.56645,0.08102c-0.15034,-0.13552 -0.14048,-0.39153 0.02202,-0.57179z" fill="#ff7d52"/></g></g><g><g><path d="M249.48504,173.36096c0.1625,-0.18026 0.41611,-0.21654 0.56645,-0.08102c0.15034,0.13552 0.14049,0.39151 -0.02202,0.57179c-0.1625,0.18026 -0.4161,0.21654 -0.56644,0.08102c-0.15034,-0.13552 -0.14049,-0.39151 0.02201,-0.57179z" fill="#ffcf33"/><path d="M250.23232,173.99836c0.1625,-0.18026 0.41611,-0.21654 0.56645,-0.08102c0.15034,0.13552 0.14049,0.39151 -0.02202,0.57179c-0.1625,0.18026 -0.41612,0.21654 -0.56646,0.08102c-0.15034,-0.13552 -0.14048,-0.39151 0.02203,-0.57179z" fill="#ffc250"/></g><g><path d="M250.9988,174.72079c0.1625,-0.18026 0.41611,-0.21653 0.56645,-0.08101c0.15034,0.13552 0.14048,0.39151 -0.02202,0.57179c-0.1625,0.18026 -0.41611,0.21654 -0.56645,0.08102c-0.15034,-0.13552 -0.14048,-0.39154 0.02202,-0.5718z" fill="#ffb648"/><path d="M251.74429,175.40547c0.1625,-0.18026 0.4161,-0.21653 0.56644,-0.08101c0.15034,0.13552 0.14048,0.39151 -0.02202,0.57179c-0.1625,0.18026 -0.41611,0.21654 -0.56645,0.08102c-0.15034,-0.13552 -0.14047,-0.39153 0.02203,-0.57179z" fill="#ffe9c0"/></g><g><path d="M252.53436,176.10677c0.1625,-0.18026 0.41611,-0.21653 0.56644,-0.08101c0.15034,0.13552 0.14048,0.39151 -0.02202,0.57178c-0.1625,0.18026 -0.4161,0.21655 -0.56644,0.08103c-0.15034,-0.13552 -0.14048,-0.39153 0.02202,-0.57179z" fill="#fff4e3"/><path d="M253.27985,176.79145c0.1625,-0.18026 0.41611,-0.21654 0.56645,-0.08102c0.15034,0.13552 0.14047,0.39153 -0.02203,0.57179c-0.1625,0.18026 -0.4161,0.21654 -0.56644,0.08102c-0.15034,-0.13552 -0.14048,-0.39151 0.02202,-0.57179z" fill="#ffe0ca"/></g><g><path d="M254.00202,177.43539c0.1625,-0.18026 0.41611,-0.21654 0.56644,-0.08102c0.15034,0.13552 0.14049,0.39151 -0.02201,0.57179c-0.1625,0.18026 -0.41611,0.21654 -0.56645,0.08102c-0.15034,-0.13552 -0.14048,-0.39153 0.02202,-0.57179z" fill="#ff9058"/><path d="M254.74749,178.12006c0.1625,-0.18026 0.41611,-0.21653 0.56645,-0.08101c0.15034,0.13552 0.14048,0.39151 -0.02202,0.57179c-0.1625,0.18026 -0.41611,0.21654 -0.56645,0.08102c-0.15034,-0.13552 -0.14048,-0.39154 0.02202,-0.5718z" fill="#ff7d52"/></g></g><g><g><path d="M248.80026,174.12062c0.1625,-0.18026 0.4161,-0.21654 0.56644,-0.08102c0.15034,0.13552 0.14049,0.39151 -0.02201,0.57179c-0.1625,0.18026 -0.41611,0.21654 -0.56645,0.08102c-0.15034,-0.13552 -0.14049,-0.39151 0.02202,-0.57179z" fill="#ffcf33"/><path d="M249.54754,174.75801c0.1625,-0.18026 0.4161,-0.21654 0.56644,-0.08102c0.15034,0.13552 0.14049,0.39151 -0.02201,0.57179c-0.1625,0.18026 -0.41611,0.21654 -0.56645,0.08102c-0.15034,-0.13552 -0.14049,-0.39151 0.02202,-0.57179z" fill="#ffc250"/></g><g><path d="M250.31402,175.48044c0.1625,-0.18026 0.41611,-0.21654 0.56645,-0.08102c0.15034,0.13552 0.14048,0.39153 -0.02202,0.57179c-0.1625,0.18026 -0.41611,0.21654 -0.56644,0.08102c-0.15034,-0.13552 -0.14049,-0.39151 0.02201,-0.57179z" fill="#ffb648"/><path d="M251.0595,176.16512c0.1625,-0.18026 0.41612,-0.21654 0.56645,-0.08102c0.15034,0.13552 0.14047,0.39153 -0.02202,0.57179c-0.1625,0.18026 -0.41611,0.21654 -0.56645,0.08102c-0.15034,-0.13552 -0.14048,-0.39151 0.02202,-0.57179z" fill="#ffad4a"/></g><g><path d="M251.8496,176.86642c0.1625,-0.18026 0.41611,-0.21655 0.56645,-0.08103c0.15034,0.13552 0.14047,0.39153 -0.02203,0.57179c-0.1625,0.18026 -0.4161,0.21655 -0.56644,0.08103c-0.15034,-0.13552 -0.14048,-0.39151 0.02202,-0.57179z" fill="#ffe9c0"/><path d="M252.59506,177.55109c0.1625,-0.18026 0.41611,-0.21654 0.56644,-0.08102c0.15034,0.13552 0.14048,0.39151 -0.02202,0.57178c-0.1625,0.18026 -0.41611,0.21655 -0.56644,0.08103c-0.15034,-0.13552 -0.14048,-0.39153 0.02202,-0.57179z" fill="#fff4e3"/></g><g><path d="M253.31724,178.19504c0.1625,-0.18026 0.41611,-0.21654 0.56644,-0.08102c0.15034,0.13552 0.14049,0.39151 -0.02201,0.57179c-0.1625,0.18026 -0.41611,0.21654 -0.56645,0.08102c-0.15034,-0.13552 -0.14048,-0.39153 0.02202,-0.57179z" fill="#ffe4bc"/><path d="M254.06273,178.87971c0.1625,-0.18026 0.41611,-0.21654 0.56645,-0.08102c0.15034,0.13552 0.14048,0.39154 -0.02202,0.5718c-0.1625,0.18026 -0.41611,0.21653 -0.56644,0.08101c-0.15034,-0.13552 -0.14049,-0.39151 0.02201,-0.57179z" fill="#ff7d52"/></g></g></g></g></g></g><path d="M195.84407,205.72407v-13.11784h88.01899v13.11784z" fill="url(#color-6)" stroke="none" stroke-width="0"/><text transform="translate(216.70904,202.20463) scale(0.39251,0.39251)" font-size="22" xml:space="preserve" fill="#112739" fill-rule="nonzero" stroke="none" stroke-width="1" stroke-linecap="butt" stroke-linejoin="miter" stroke-miterlimit="10" stroke-dasharray="" stroke-dashoffset="0" font-family="Sans Serif" font-weight="400" text-anchor="start" style="mix-blend-mode: normal"><tspan x="0" dy="0">Toad Circuit</tspan></text><path d="M196.27029,192.87951v-6.83221h21.49394l2.18817,6.83221z" fill="#ffffff" stroke="none" stroke-width="0"/><text transform="translate(202.05666,192.65519) scale(0.16414,0.16414)" font-size="40" xml:space="preserve" fill="#112739" fill-rule="nonzero" stroke="none" stroke-width="1" stroke-linecap="butt" stroke-linejoin="miter" stroke-miterlimit="10" stroke-dasharray="" stroke-dashoffset="0" font-family="Sans Serif" font-weight="normal" text-anchor="start" style="mix-blend-mode: normal"><tspan x="0" dy="0">3DS</tspan></text><path d="M248.62549,185.93758l-4.39703,-3.09859l2.26445,-2.54657l4.39703,3.0986z" fill="#ff6666" stroke="none" stroke-width="NaN"/><path d="M244.32756,182.62645l-4.18945,-3.37397l2.42298,-2.39623l4.18945,3.37397z" fill="#ffffff" stroke="none" stroke-width="NaN"/><path d="M239.87792,179.59901l-4.39703,-3.09859l2.26445,-2.54656l4.39702,3.09859z" fill="#ff6666" stroke="none" stroke-width="NaN"/><path d="M235.09505,176.41593l-2.78155,-4.60414l3.0968,-1.42216l2.78155,4.60414z" fill="#ffffff" stroke="none" stroke-width="NaN"/><path d="M231.67541,171.29802l0.56877,-5.34899l3.32644,0.73998l-0.56878,5.34898z" fill="#ff6666" stroke="none" stroke-width="NaN"/><path d="M232.27733,166.92713l-2.78156,-4.60414l3.09681,-1.42216l2.78155,4.60413z" fill="#ffffff" stroke="none" stroke-width="NaN"/><path d="M231.59979,162.17515l-5.37802,-0.11037l0.45349,-3.37744l5.37801,0.11037z" fill="#ff6666" stroke="none" stroke-width="NaN"/><path d="M226.4549,162.18771l-5.37039,-0.30676l0.57657,-3.35862l5.37038,0.30676z" fill="#ffffff" stroke="none" stroke-width="NaN"/><path d="M220.99915,161.76642l-5.37802,-0.11037l0.45349,-3.37743l5.37801,0.11037z" fill="#ff6666" stroke="none" stroke-width="NaN"/><path d="M215.85426,161.40837l-5.37039,-0.30676l0.57657,-3.35862l5.37038,0.30676z" fill="#ffffff" stroke="none" stroke-width="NaN"/><path d="M210.3985,160.98708l-5.37801,-0.11037l0.45349,-3.37743l5.37801,0.11037z" fill="#ff6666" stroke="none" stroke-width="NaN"/><path d="M204.92109,160.85245l-5.37038,-0.30676l0.57657,-3.35862l5.37038,0.30676z" fill="#ffffff" stroke="none" stroke-width="NaN"/><path d="M211.86079,174.30507l-5.37039,-0.30676l0.57657,-3.35862l5.37038,0.30676z" fill="#ffffff" stroke="none" stroke-width="NaN"/><path d="M206.40503,173.88378l-5.37801,-0.11037l0.45349,-3.37744l5.37801,0.11037z" fill="#ff6666" stroke="none" stroke-width="NaN"/><path d="M201.01271,173.74915l-4.57804,-0.30676l0.4915,-3.35862l4.57804,0.30677z" fill="#ffffff" stroke="none" stroke-width="NaN"/><path d="M212.95427,183.32551l-1.46254,-5.1765l3.3629,-0.55101l1.46254,5.17649z" fill="#ffffff" stroke="none" stroke-width="NaN"/><path d="M211.48596,178.04687l-1.27245,-5.22647l3.38079,-0.42778l1.27245,5.22647z" fill="#ff6666" stroke="none" stroke-width="NaN"/><path d="M214.07308,186.33716l-1.27245,-4.21268l3.38079,-0.34481l1.27245,4.21268z" fill="#ff6666" stroke="none" stroke-width="NaN"/><path d="M252.83719,189.38127l-4.18945,-3.37397l2.42298,-2.39623l4.18944,3.37397z" fill="#ffffff" stroke="none" stroke-width="NaN"/><path d="M256.91578,192.91176l-4.39703,-3.09859l2.26445,-2.54657l4.39702,3.0986z" fill="#ff6666" stroke="none" stroke-width="NaN"/><path d="M200.19731,160.50326l-3.55735,-0.11037l0.29996,-3.37743l3.55735,0.11037z" fill="#ff6666" stroke="none" stroke-width="NaN"/><path d="M253.13753,161.77556c0,-0.27614 0.22386,-0.5 0.5,-0.5c0.27614,0 0.5,0.22386 0.5,0.5c0,0.27614 -0.22386,0.5 -0.5,0.5c-0.27614,0 -0.5,-0.22386 -0.5,-0.5z" fill="#dad38c" stroke="none" stroke-width="0.5"/><path d="M257.52459,158.48527c0,-0.27614 0.22386,-0.5 0.5,-0.5c0.27614,0 0.5,0.22386 0.5,0.5c0,0.27614 -0.22386,0.5 -0.5,0.5c-0.27614,0 -0.5,-0.22386 -0.5,-0.5z" fill="#dad38c" stroke="none" stroke-width="0.5"/><path d="M261.6923,160.6788c0,-0.27614 0.22386,-0.5 0.5,-0.5c0.27614,0 0.5,0.22386 0.5,0.5c0,0.27614 -0.22386,0.5 -0.5,0.5c-0.27614,0 -0.5,-0.22386 -0.5,-0.5z" fill="#dad38c" stroke="none" stroke-width="0.5"/><path d="M267.7374,159.36268c0,0.5 -0.5,0.5 -0.5,0.5h-0.87741c0,0 -0.5,0 -0.5,-0.5c0,-0.5 0.5,-0.5 0.5,-0.5h0.87741c0,0 0.5,0 0.5,0.5z" fill="#dad38c" stroke="none" stroke-width="0.5"/><path d="M270.46639,161.33686c0,-0.27614 0.22386,-0.5 0.5,-0.5c0.27614,0 0.5,0.22386 0.5,0.5c0,0.27614 -0.22386,0.5 -0.5,0.5c-0.27614,0 -0.5,-0.22386 -0.5,-0.5z" fill="#dad38c" stroke="none" stroke-width="0.5"/><path d="M276.16956,158.92398c0,-0.27614 0.22386,-0.5 0.5,-0.5c0.27614,0 0.5,0.22386 0.5,0.5c0,0.27614 -0.22386,0.5 -0.5,0.5c-0.27614,0 -0.5,-0.22386 -0.5,-0.5z" fill="#dad38c" stroke="none" stroke-width="0.5"/><path d="M278.14376,162.65297c0,-0.27614 0.22386,-0.5 0.5,-0.5c0.27614,0 0.5,0.22386 0.5,0.5c0,0.27614 -0.22386,0.5 -0.5,0.5c-0.27614,0 -0.5,-0.22386 -0.5,-0.5z" fill="#dad38c" stroke="none" stroke-width="0.5"/><path d="M280.99532,158.92398c0,-0.27614 0.22386,-0.5 0.5,-0.5c0.27614,0 0.5,0.22386 0.5,0.5c0,0.27614 -0.22386,0.5 -0.5,0.5c-0.27614,0 -0.5,-0.22386 -0.5,-0.5z" fill="#dad38c" stroke="none" stroke-width="0.5"/><path d="M247.43436,165.06585c0,-0.27614 0.22386,-0.5 0.5,-0.5c0.27614,0 0.5,0.22386 0.5,0.5c0,0.27614 -0.22386,0.5 -0.5,0.5c-0.27614,0 -0.5,-0.22386 -0.5,-0.5z" fill="#dad38c" stroke="none" stroke-width="0.5"/><path d="M249.18917,161.1175c0,-0.27614 0.22386,-0.5 0.5,-0.5c0.27614,0 0.5,0.22386 0.5,0.5c0,0.27614 -0.22386,0.5 -0.5,0.5c-0.27614,0 -0.5,-0.22386 -0.5,-0.5z" fill="#dad38c" stroke="none" stroke-width="0.5"/><path d="M245.67951,166.82068c0,-0.27614 0.22386,-0.5 0.5,-0.5c0.27614,0 0.5,0.22386 0.5,0.5c0,0.27614 -0.22386,0.5 -0.5,0.5c-0.27614,0 -0.5,-0.22386 -0.5,-0.5z" fill="#dad38c" stroke="none" stroke-width="0.5"/><path d="M242.60859,168.35615c0,-0.27614 0.22386,-0.5 0.5,-0.5c0.27614,0 0.5,0.22386 0.5,0.5c0,0.27614 -0.22386,0.5 -0.5,0.5c-0.27614,0 -0.5,-0.22386 -0.5,-0.5z" fill="#dad38c" stroke="none" stroke-width="0.5"/><path d="M242.60859,171.86579c0,-0.27614 0.22386,-0.5 0.5,-0.5c0.27614,0 0.5,0.22386 0.5,0.5c0,0.27614 -0.22386,0.5 -0.5,0.5c-0.27614,0 -0.5,-0.22386 -0.5,-0.5z" fill="#dad38c" stroke="none" stroke-width="0.5"/><path d="M251.60205,165.50456c0,-0.27614 0.22386,-0.5 0.5,-0.5c0.27614,0 0.5,0.22386 0.5,0.5c0,0.27614 -0.22386,0.5 -0.5,0.5c-0.27614,0 -0.5,-0.22386 -0.5,-0.5z" fill="#dad38c" stroke="none" stroke-width="0.5"/><path d="M257.30521,165.06585c0,-0.27614 0.22386,-0.5 0.5,-0.5c0.27614,0 0.5,0.22386 0.5,0.5c0,0.27614 -0.22386,0.5 -0.5,0.5c-0.27614,0 -0.5,-0.22386 -0.5,-0.5z" fill="#dad38c" stroke="none" stroke-width="0.5"/><path d="M263.66646,165.28521c0,-0.27614 0.22386,-0.5 0.5,-0.5c0.27614,0 0.5,0.22386 0.5,0.5c0,0.27614 -0.22386,0.5 -0.5,0.5c-0.27614,0 -0.5,-0.22386 -0.5,-0.5z" fill="#dad38c" stroke="none" stroke-width="0.5"/><path d="M273.09864,164.8465c0,-0.27614 0.22386,-0.5 0.5,-0.5c0.27614,0 0.5,0.22386 0.5,0.5c0,0.27614 -0.22386,0.5 -0.5,0.5c-0.27614,0 -0.5,-0.22386 -0.5,-0.5z" fill="#dad38c" stroke="none" stroke-width="0.5"/><path d="M279.02117,167.47873c0,-0.27614 0.22386,-0.5 0.5,-0.5c0.27614,0 0.5,0.22386 0.5,0.5c0,0.27614 -0.22386,0.5 -0.5,0.5c-0.27614,0 -0.5,-0.22386 -0.5,-0.5z" fill="#dad38c" stroke="none" stroke-width="0.5"/><path d="M268.27288,165.50456c0,-0.27614 0.22386,-0.5 0.5,-0.5c0.27614,0 0.5,0.22386 0.5,0.5c0,0.27614 -0.22386,0.5 -0.5,0.5c-0.27614,0 -0.5,-0.22386 -0.5,-0.5z" fill="#dad38c" stroke="none" stroke-width="0.5"/><path d="M261.47292,190.73013c0,-0.27614 0.22386,-0.5 0.5,-0.5c0.27614,0 0.5,0.22386 0.5,0.5c0,0.27614 -0.22386,0.5 -0.5,0.5c-0.27614,0 -0.5,-0.22386 -0.5,-0.5z" fill="#dad38c" stroke="none" stroke-width="0.5"/><path d="M262.13097,188.97531c0,-0.27614 0.22386,-0.5 0.5,-0.5c0.27614,0 0.5,0.22386 0.5,0.5c0,0.27614 -0.22386,0.5 -0.5,0.5c-0.27614,0 -0.5,-0.22386 -0.5,-0.5z" fill="#dad38c" stroke="none" stroke-width="0.5"/><path d="M259.27941,187.43984c0,-0.27614 0.22386,-0.5 0.5,-0.5c0.27614,0 0.5,0.22386 0.5,0.5c0,0.27614 -0.22386,0.5 -0.5,0.5c-0.27614,0 -0.5,-0.22386 -0.5,-0.5z" fill="#dad38c" stroke="none" stroke-width="0.5"/><path d="M260.59551,185.24631c0,-0.27614 0.22386,-0.5 0.5,-0.5c0.27614,0 0.5,0.22386 0.5,0.5c0,0.27614 -0.22386,0.5 -0.5,0.5c-0.27614,0 -0.5,-0.22386 -0.5,-0.5z" fill="#dad38c" stroke="none" stroke-width="0.5"/><path d="M258.18262,183.27213c0,-0.27614 0.22386,-0.5 0.5,-0.5c0.27614,0 0.5,0.22386 0.5,0.5c0,0.27614 -0.22386,0.5 -0.5,0.5c-0.27614,0 -0.5,-0.22386 -0.5,-0.5z" fill="#dad38c" stroke="none" stroke-width="0.5"/><path d="M261.47292,179.98184c0,-0.27614 0.22386,-0.5 0.5,-0.5c0.27614,0 0.5,0.22386 0.5,0.5c0,0.27614 -0.22386,0.5 -0.5,0.5c-0.27614,0 -0.5,-0.22386 -0.5,-0.5z" fill="#dad38c" stroke="none" stroke-width="0.5"/><path d="M264.32451,178.66573c0,-0.27614 0.22386,-0.5 0.5,-0.5c0.27614,0 0.5,0.22386 0.5,0.5c0,0.27614 -0.22386,0.5 -0.5,0.5c-0.27614,0 -0.5,-0.22386 -0.5,-0.5z" fill="#dad38c" stroke="none" stroke-width="0.5"/><path d="M260.15682,178.22702c0,-0.27614 0.22386,-0.5 0.5,-0.5c0.27614,0 0.5,0.22386 0.5,0.5c0,0.27614 -0.22386,0.5 -0.5,0.5c-0.27614,0 -0.5,-0.22386 -0.5,-0.5z" fill="#dad38c" stroke="none" stroke-width="0.5"/><path d="M262.35033,171.86579c0,-0.27614 0.22386,-0.5 0.5,-0.5c0.27614,0 0.5,0.22386 0.5,0.5c0,0.27614 -0.22386,0.5 -0.5,0.5c-0.27614,0 -0.5,-0.22386 -0.5,-0.5z" fill="#dad38c" stroke="none" stroke-width="0.5"/><path d="M260.81487,168.5755c0,-0.27614 0.22386,-0.5 0.5,-0.5c0.27614,0 0.5,0.22386 0.5,0.5c0,0.27614 -0.22386,0.5 -0.5,0.5c-0.27614,0 -0.5,-0.22386 -0.5,-0.5z" fill="#dad38c" stroke="none" stroke-width="0.5"/><path d="M247.6537,170.33032c0,-0.27614 0.22386,-0.5 0.5,-0.5c0.27614,0 0.5,0.22386 0.5,0.5c0,0.27614 -0.22386,0.5 -0.5,0.5c-0.27614,0 -0.5,-0.22386 -0.5,-0.5z" fill="#dad38c" stroke="none" stroke-width="0.5"/><path d="M263.22776,155.85304c0,-0.27614 0.22386,-0.5 0.5,-0.5c0.27614,0 0.5,0.22386 0.5,0.5c0,0.27614 -0.22386,0.5 -0.5,0.5c-0.27614,0 -0.5,-0.22386 -0.5,-0.5z" fill="#dad38c" stroke="none" stroke-width="0.5"/><path d="M280.99532,183.05278c0,-0.27614 0.22386,-0.5 0.5,-0.5c0.27614,0 0.5,0.22386 0.5,0.5c0,0.27614 -0.22386,0.5 -0.5,0.5c-0.27614,0 -0.5,-0.22386 -0.5,-0.5z" fill="#dad38c" stroke="none" stroke-width="0.5"/><path d="M278.14376,187.22048c0,-0.27614 0.22386,-0.5 0.5,-0.5c0.27614,0 0.5,0.22386 0.5,0.5c0,0.27614 -0.22386,0.5 -0.5,0.5c-0.27614,0 -0.5,-0.22386 -0.5,-0.5z" fill="#dad38c" stroke="none" stroke-width="0.5"/><path d="M279.45984,190.73013c0,-0.27614 0.22386,-0.5 0.5,-0.5c0.27614,0 0.5,0.22386 0.5,0.5c0,0.27614 -0.22386,0.5 -0.5,0.5c-0.27614,0 -0.5,-0.22386 -0.5,-0.5z" fill="#dad38c" stroke="none" stroke-width="0.5"/><path d="M281.87273,187.87854c0,-0.27614 0.22386,-0.5 0.5,-0.5c0.27614,0 0.5,0.22386 0.5,0.5c0,0.27614 -0.22386,0.5 -0.5,0.5c-0.27614,0 -0.5,-0.22386 -0.5,-0.5z" fill="#dad38c" stroke="none" stroke-width="0.5"/><path d="M254.01495,184.14955c0,-0.27614 0.22386,-0.5 0.5,-0.5c0.27614,0 0.5,0.22386 0.5,0.5c0,0.27614 -0.22386,0.5 -0.5,0.5c-0.27614,0 -0.5,-0.22386 -0.5,-0.5z" fill="#dad38c" stroke="none" stroke-width="0.5"/><path d="M242.60859,175.15608c0,-0.27614 0.22386,-0.5 0.5,-0.5c0.27614,0 0.5,0.22386 0.5,0.5c0,0.27614 -0.22386,0.5 -0.5,0.5c-0.27614,0 -0.5,-0.22386 -0.5,-0.5z" fill="#dad38c" stroke="none" stroke-width="0.5"/><path d="M247.43436,178.88508c0,-0.27614 0.22386,-0.5 0.5,-0.5c0.27614,0 0.5,0.22386 0.5,0.5c0,0.27614 -0.22386,0.5 -0.5,0.5c-0.27614,0 -0.5,-0.22386 -0.5,-0.5z" fill="#dad38c" stroke="none" stroke-width="0.5"/><path d="M278.34711,154.73203c0,-2.51604 2.03966,-4.5557 4.5557,-4.5557c2.51604,0 4.5557,2.03966 4.5557,4.5557c0,2.51605 -2.03966,4.55571 -4.5557,4.55571c-2.51605,0 -4.5557,-2.03966 -4.5557,-4.55571z" fill="#ff8585" stroke="none" stroke-width="0"/><path d="M273.25041,154.91107c0,-5.53695 4.48858,-10.02552 10.02552,-10.02552c5.53695,0 10.02553,4.48858 10.02553,10.02552c0,5.53695 -4.48859,10.02553 -10.02553,10.02553c-5.53695,0 -10.02552,-4.48859 -10.02552,-10.02553z" fill="url(#color-7)" stroke="none" stroke-width="0"/></g></g></svg>