<svg version="1.1" xmlns="http://www.w3.org/2000/svg" xmlns:xlink="http://www.w3.org/1999/xlink" width="338.48848" height="464.77451" viewBox="0,0,338.48848,464.77451"><defs><linearGradient x1="220.55415" y1="227.57788" x2="220.55415" y2="326.57788" gradientUnits="userSpaceOnUse" id="color-1"><stop offset="0" stop-color="#8be4ff"/><stop offset="1" stop-color="#46beff"/></linearGradient><linearGradient x1="336.90578" y1="200.57788" x2="336.90578" y2="356.57788" gradientUnits="userSpaceOnUse" id="color-2"><stop offset="0" stop-color="#8be4ff"/><stop offset="1" stop-color="#46beff"/></linearGradient><linearGradient x1="304.90578" y1="33.57788" x2="304.90578" y2="170.57788" gradientUnits="userSpaceOnUse" id="color-3"><stop offset="0" stop-color="#8be4ff"/><stop offset="1" stop-color="#46beff"/></linearGradient><linearGradient x1="309.5" y1="166.78045" x2="309.5" y2="191.28045" gradientUnits="userSpaceOnUse" id="color-4"><stop offset="0" stop-color="#78c3da"/><stop offset="1" stop-color="#3fafea"/></linearGradient><linearGradient x1="309.75" y1="-44.71955" x2="309.75" y2="11.78045" gradientUnits="userSpaceOnUse" id="color-5"><stop offset="0" stop-color="#8be4ff"/><stop offset="1" stop-color="#46beff"/></linearGradient><linearGradient x1="309.5" y1="9.78045" x2="309.5" y2="34.28045" gradientUnits="userSpaceOnUse" id="color-6"><stop offset="0" stop-color="#78c3da"/><stop offset="1" stop-color="#3fafea"/></linearGradient><linearGradient x1="202.65118" y1="73.63652" x2="202.65118" y2="121.30319" gradientUnits="userSpaceOnUse" id="color-7"><stop offset="0" stop-color="#8be4ff"/><stop offset="1" stop-color="#46beff"/></linearGradient><linearGradient x1="209.15118" y1="175.30319" x2="209.15118" y2="202.63652" gradientUnits="userSpaceOnUse" id="color-8"><stop offset="0" stop-color="#8be4ff"/><stop offset="1" stop-color="#46beff"/></linearGradient></defs><g transform="translate(-135.32309,42.55937)"><g data-paper-data="{&quot;isPaintingLayer&quot;:true}" fill-rule="nonzero" stroke-linecap="butt" stroke-linejoin="miter" stroke-miterlimit="10" stroke-dasharray="" stroke-dashoffset="0" style="mix-blend-mode: normal"><path d="M266.05413,277.07788c0,27.3381 -20.37104,49.5 -45.5,49.5c-25.12895,0 -45.5,-22.1619 -45.5,-49.5c0,-27.3381 20.37105,-49.5 45.5,-49.5c25.12895,0 45.5,22.1619 45.5,49.5z" fill="url(#color-1)" stroke="none" stroke-width="0"/><g stroke-width="1"><g><g><path d="M277.73947,189.07994h6.13027v218.49148c-0.53341,-0.23071 -1.06349,-0.46078 -1.58916,-0.69047c-1.27585,-0.5575 -3.10559,-0.84765 -4.54111,-1.44104z" fill="#13ff00" stroke="#13ff00"/><path d="M283.86973,189.07994h6.13027v221.15027c-2.05075,-0.90553 -4.1142,-1.78679 -6.13027,-2.65879z" fill="#0ba100" stroke="#0ba100"/></g><g><path d="M265,189.94475h6.13027v210.70377c-1.44057,-1.06548 -2.89758,-2.13435 -4.39566,-3.2694c-0.5598,-0.42415 -1.13846,-0.85425 -1.73461,-1.28828z" fill="#13ff00" stroke="#13ff00"/><path d="M271.13027,189.94475h6.13027v215.27717c-0.28924,-0.14565 -0.55473,-0.3087 -0.7868,-0.49497c-1.78732,-1.43466 -3.5527,-2.75393 -5.34347,-4.07842z" fill="#0ba100" stroke="#0ba100"/></g></g><g><g><path d="M251.98947,189.94475h6.13027v201.50964c-1.95458,-1.21438 -4.00773,-2.40369 -6.13027,-3.52404v-79.71577c4.83584,-11.63362 4.49668,-25.86127 0,-37.97034z" fill="#13ff00" stroke="#13ff00"/><path d="M258.11973,189.94475h6.13027v205.60465c-1.89391,-1.35565 -3.95081,-2.74093 -6.13027,-4.09502z" fill="#0ba100" stroke="#0ba100"/></g><g><path d="M245.38027,384.79373c-2.01798,-0.84634 -4.06858,-1.60019 -6.13027,-2.22918v-56.12337c0.92387,-1.3711 1.83863,-2.78937 2.98037,-4.31407c0.9229,-1.23246 2.02143,-2.52774 3.1499,-3.87338z" fill="#13ff00" stroke="#13ff00"/><path d="M239.25,190.80957h6.13027v66.16229c-0.60765,-2.04753 -0.81351,-4.29018 -1.60905,-6.29968c-1.08318,-2.73606 -2.60022,-5.59815 -4.52122,-8.17594z" fill="#13ff00" stroke="#13ff00"/><path d="M245.38027,190.80957h6.13027v78.19234c-1.32759,-3.32 -2.97296,-6.46418 -4.91436,-9.33168c-0.56041,-0.82774 -0.93202,-1.74176 -1.21591,-2.69837z" fill="#0ba100" stroke="#0ba100"/><path d="M251.51054,387.67935c-1.99269,-1.03686 -4.04405,-2.01066 -6.13027,-2.88562v-66.54c2.15862,-2.57403 4.42684,-5.33236 5.7851,-8.1879c0.11754,-0.2471 0.23259,-0.49555 0.34517,-0.7453z" fill="#0ba100" stroke="#0ba100"/></g></g></g><g stroke-width="1"><g><g><path d="M318.73947,420.85031v-231.77037h6.13027v231.77037z" fill="#13ff00" stroke="#13ff00"/><path d="M324.86973,420.85031v-231.77037h6.13027v231.67821c-0.1812,0.03048 -0.36243,0.0612 -0.5437,0.09216z" fill="#0ba100" stroke="#0ba100"/></g><g><path d="M306,189.94475h6.13027v230.87516c-2.04481,-0.44211 -4.10199,-0.84971 -6.13027,-1.37354z" fill="#13ff00" stroke="#13ff00"/><path d="M312.13027,189.94475h6.13027v231.77038h-2.70824c-0.39385,-0.15582 -0.78856,-0.29361 -1.18478,-0.38876c-0.74275,-0.17836 -1.48917,-0.34472 -2.23725,-0.50646z" fill="#0ba100" stroke="#0ba100"/></g></g><g><g><path d="M292.98947,189.94475h6.13027v225.15402c-1.03226,-0.81516 -1.98268,-1.52542 -2.66214,-1.86412c-1.13407,-0.56531 -2.29403,-1.11706 -3.46813,-1.65818z" fill="#13ff00" stroke="#13ff00"/><path d="M299.11973,189.94475h6.13027v229.30196c-0.16011,-0.04397 -0.32,-0.08878 -0.47967,-0.13452c-1.20993,-0.34659 -3.59287,-2.38846 -5.6506,-4.01343z" fill="#0ba100" stroke="#0ba100"/></g><g><path d="M280.25,190.80957h6.13027v217.84486c-1.38311,-0.59668 -2.75588,-1.18629 -4.09969,-1.77348c-0.58974,-0.25769 -1.2978,-0.45826 -2.03058,-0.65806z" fill="#13ff00" stroke="#13ff00"/><path d="M286.38027,190.80957h6.13027v220.5471c-2.02616,-0.92606 -4.08949,-1.82184 -6.13027,-2.70224z" fill="#0ba100" stroke="#0ba100"/></g></g></g><g stroke-width="1"><g><g><path d="M420.23947,192.07994h6.13027v196.28711c-1.60714,1.80262 -3.19592,3.62074 -4.44061,5.71289c-0.59882,1.00653 -1.17524,2.03309 -1.68966,3.08768z" fill="#13ff00" stroke="#13ff00"/><path d="M426.36973,192.07994h6.13027v187.71621c-1.41252,3.35575 -3.79084,5.94692 -6.13027,8.57091z" fill="#0ba100" stroke="#0ba100"/></g><g><path d="M407.5,192.92068h6.13027v215.19553c-0.38484,0.19034 -0.77097,0.37549 -1.15106,0.55688c-1.67109,0.31077 -3.41384,0.80131 -4.97921,1.35244z" fill="#13ff00" stroke="#13ff00"/><path d="M413.63027,192.92068h6.13027v205.28063c-0.1929,0.44054 -0.37321,0.88623 -0.53817,1.33763c-0.52355,1.43259 0.16116,3.73134 -0.87931,5.21587c-0.95359,1.36056 -2.81736,2.42393 -4.71278,3.36141z" fill="#0ba100" stroke="#0ba100"/></g></g><g><g><path d="M394.48947,192.92068h6.13027v220.80314c-0.7462,0.46218 -1.4383,0.8091 -1.87357,0.79381c-1.43317,-0.05032 -2.85065,-0.09624 -4.2567,-0.13493z" fill="#13ff00" stroke="#13ff00"/><path d="M400.61973,192.92068h6.13027v217.37856c-1.23631,0.46761 -2.32477,0.96315 -3.12621,1.42002c-0.68559,0.39082 -1.90365,1.323 -3.00406,2.00456z" fill="#0ba100" stroke="#0ba100"/></g><g><path d="M381.75,193.76142h6.13027v220.50308c-2.04904,-0.01295 -4.0878,-0.00012 -6.13027,0.04771z" fill="#13ff00" stroke="#13ff00"/><path d="M387.88027,193.76142h6.13027v220.60838c-2.06252,-0.05439 -4.10143,-0.09248 -6.13027,-0.1053z" fill="#0ba100" stroke="#0ba100"/></g></g></g><g stroke-width="1"><g><g><path d="M368.73947,186.07994h6.13027v228.53664c-2.02065,0.13444 -4.05974,0.31215 -6.13027,0.54174z" fill="#13ff00" stroke="#13ff00"/><path d="M374.86973,186.07994h6.13027v228.25142c-2.03348,0.05626 -4.07232,0.1483 -6.13027,0.28522z" fill="#0ba100" stroke="#0ba100"/></g><g><path d="M356,186.94475h6.13027v229.65302c-1.12181,0.27904 -2.2502,0.52265 -3.40161,0.64991c-0.9133,0.10095 -1.8227,0.2007 -2.72866,0.29993z" fill="#13ff00" stroke="#13ff00"/><path d="M362.13027,186.94475h6.13027v228.26831c-2.08704,0.25725 -4.09786,0.87915 -6.13027,1.38471z" fill="#0ba100" stroke="#0ba100"/></g></g><g><g><path d="M342.98947,418.71513v-231.77038h6.13027v231.36382c-1.17483,0.13298 -2.34564,0.26799 -3.51343,0.40657z" fill="#13ff00" stroke="#13ff00"/><path d="M349.11973,186.94475h6.13027v230.68498c-2.05892,0.22544 -4.10061,0.4491 -6.13027,0.67884z" fill="#0ba100" stroke="#0ba100"/></g><g><path d="M330.25,419.57994v-231.77037h6.13027v231.77037z" fill="#13ff00" stroke="#13ff00"/><path d="M336.38027,419.57994v-231.77037h6.13027v231.28308c-1.24399,0.1562 -2.48556,0.31801 -3.72593,0.48729z" fill="#0ba100" stroke="#0ba100"/></g></g></g><path d="M407.40578,278.57788c0,29.3458 22.16955,53.20026 6.14347,55.86336c-3.99463,0.6638 -9.59483,3.38942 -18.63665,1.11861c-7.93311,-1.99236 -33.20617,-14.98198 -39.00682,-14.98198c-6.08117,0 -13.86081,6.02644 -21.53059,6.46515c-9.11911,0.52161 -18.08293,-4.78764 -23.8521,-8.64079c-20.44628,-13.65582 -44.11731,-11.47372 -44.11731,-39.82435c0,-18.02242 5.68747,-31.36132 10.84699,-51.04012c2.22353,-8.48072 -1.35093,-29.53877 3.8997,-33.81537c8.48589,-6.9117 23.80218,-11.17307 38.63375,-6.96226c5.59621,1.58881 12.83867,13.81775 17.11956,13.81775c38.93607,0 70.5,34.92179 70.5,78z" fill="url(#color-2)" stroke="none" stroke-width="0"/><path d="M270.40578,170.57788v-137h69v137z" fill="url(#color-3)" stroke="none" stroke-width="0"/><g stroke-width="1"><g><g><path d="M211.73947,318.83333l7.46361,2v27.74954c-0.39064,-0.08782 -0.77043,-0.16599 -1.13816,-0.23406c-1.79779,-0.3328 -3.82725,-0.58408 -5.76727,-0.62964z" fill="#13ff00" stroke="#13ff00"/><path d="M219.5364,320.83333h6.13027v29.71338c-2.19125,-0.8071 -4.27566,-1.45128 -6.13027,-1.88719z" fill="#0ba100" stroke="#0ba100"/></g><g><path d="M199.66667,311.41667l6.13027,3l0.46752,34.44014c-0.31492,0.01913 -0.61942,-0.03221 -0.90865,-0.19441c-2.00597,-1.12498 -3.65992,-2.73431 -5.26095,-4.41807z" fill="#13ff00" stroke="#13ff00"/><path d="M205.13027,314.08333l5.46361,4l0.70551,29.63132c-0.56922,0.00882 -1.12543,0.03805 -1.65996,0.09102c-1.35784,0.13457 -2.81706,1.39462 -4.04038,0.96667z" fill="#0ba100" stroke="#0ba100"/></g></g><g><g><path d="M189.32281,292.08333l5.13027,13.33333l-0.26668,33.06828c-1.73066,-1.50581 -3.60775,-3.06383 -5.58969,-4.57847z" fill="#13ff00" stroke="#13ff00"/><path d="M193.7864,307.08333l6.13027,3.66667v33.30642c-1.2198,-1.28944 -2.41522,-2.61339 -3.71942,-3.78938c-0.76787,-0.69238 -1.573,-1.40545 -2.41085,-2.12878z" fill="#0ba100" stroke="#0ba100"/></g><g><path d="M174.41667,321.33333h6.13027v7.16435c-0.01203,-0.00687 -0.02406,-0.01374 -0.03609,-0.0206c-1.85473,-1.3514 -3.9025,-2.45381 -6.09418,-3.25807z" fill="#13ff00" stroke="#13ff00"/><path d="M174.41667,388.33334v-0.20349c0.07558,0.06802 0.15139,0.13584 0.22741,0.20349z" fill="#13ff00" stroke="#13ff00"/><path d="M184.04694,279.66667l4.46361,11.33333l-0.58084,42.40143c-1.69221,-1.26929 -3.45583,-2.5001 -5.26588,-3.63494z" fill="#0ba100" stroke="#0ba100"/></g></g></g><g stroke-width="1"><g><g><path d="M173.80878,307.98395v-180.81728h5.92894v180.81729z" fill="#13ff00" stroke="#13ff00"/><path d="M179.73772,307.98395v-180.81728h5.92895c0,0 0,106.93964 0,139.6959c0,3.94194 -2.33333,7.4916 -2.33333,11.66667c0,4.51462 2.33333,9.64765 2.33333,13.66666c0,9.02094 0,15.78805 0,15.78805z" fill="#0ba100" stroke="#0ba100"/></g><g><path d="M161.48769,127.84136h5.92894v162.00302c-1.64495,-2.22395 -3.64997,-4.16544 -5.92894,-5.73833z" fill="#13ff00" stroke="#13ff00"/><path d="M167.41663,127.84136h5.92895v180.81728h-1.35377c0.20555,-1.29065 0.31231,-2.61422 0.31231,-3.96274c0,-5.56155 -1.81605,-10.69895 -4.8875,-14.85152z" fill="#0ba100" stroke="#0ba100"/></g></g><g><g><path d="M148.90443,127.84136h5.92894v153.00825c-1.88928,-0.59596 -3.87545,-0.97359 -5.92894,-1.10332z" fill="#13ff00" stroke="#13ff00"/><path d="M154.83336,127.84136h5.92895v155.78246c-1.82781,-1.1698 -3.81789,-2.1083 -5.92895,-2.77421z" fill="#0ba100" stroke="#0ba100"/></g><g><path d="M136.58333,128.51605h5.92895v151.63861c-2.0799,0.40375 -4.06776,1.06534 -5.92895,1.95016v-82.90892l5,-28z" fill="#13ff00" stroke="#13ff00"/><path d="M142.51227,128.51605h5.92894v151.20525c-0.37692,-0.01688 -0.75601,-0.0254 -1.1371,-0.0254c-1.6389,0 -3.24096,0.1577 -4.79185,0.45876z" fill="#0ba100" stroke="#0ba100"/></g></g></g><g stroke-width="1"><g><g><path d="M223.14212,239.51111v-132.51111h5.92894v132.51111z" fill="#13ff00" stroke="#13ff00"/><path d="M229.07105,239.51111v-132.51111h5.92895v132.51111z" fill="#0ba100" stroke="#0ba100"/></g><g><path d="M210.82102,240.00556v-132.51111h5.92894v132.51111z" fill="#13ff00" stroke="#13ff00"/><path d="M216.74997,240.00556v-132.51111h5.92895v132.51111z" fill="#0ba100" stroke="#0ba100"/></g></g><g><g><path d="M198.23777,240.00556v-132.51111h5.92894v132.51111z" fill="#13ff00" stroke="#13ff00"/><path d="M204.1667,240.00556v-132.51111h5.92895v132.51111z" fill="#0ba100" stroke="#0ba100"/></g><g><path d="M185.91667,240.5v-132.51111h5.92895v132.51111z" fill="#13ff00" stroke="#13ff00"/><path d="M191.84562,240.5v-132.51111h5.92894v132.51111z" fill="#0ba100" stroke="#0ba100"/></g></g></g><g stroke-width="1"><g><g><path d="M471.72622,145.88165c0.41125,1.36026 1.94607,2.63626 1.50723,3.98788c-1.08639,3.34608 -1.89366,6.61748 -2.49398,9.86941v-17.80121c0.31128,1.31899 0.59458,2.64675 0.98675,3.94393z" fill="#13ff00" stroke="#13ff00"/><path d="" fill="#0ba100" stroke="#0ba100"/></g><g><path d="M460.37041,60.72451c0.43342,4.14603 2.07914,8.51424 3.75986,12.67687v125.29305c-0.25744,0.44867 -0.49961,0.90054 -0.71814,1.35743c-1.90319,3.97903 -3.67406,7.959 -5.41213,11.94099v-174.74885c1.08253,7.79077 1.56022,15.73055 2.37041,23.48052z" fill="#13ff00" stroke="#13ff00"/><path d="M466.2627,78.72396c1.10023,2.88956 3.68888,6.74897 3.71708,9.90886c0.06906,7.73802 0.01517,15.47667 0,23.21498c-0.00459,2.34033 -1.15577,4.90867 -1.15577,7.368c0,7.2283 0.06887,13.66424 1.43653,20.52826v22.86799c-1.22816,8.22561 -1.26341,16.43063 -1.28076,25.5139c-0.00741,3.88071 -2.8769,7.13062 -4.84951,10.56848v-125.29305c0.73719,1.82577 1.48111,3.612 2.13243,5.32258z" fill="#0ba100" stroke="#0ba100"/></g></g><g><g><path d="M447.62006,9.00214c0.48741,0.12783 0.98064,0.24131 1.47919,0.33997c0.25136,0.16587 0.49016,0.42577 0.71013,0.84061c0.42611,0.80363 0.87812,1.69989 1.31037,2.59417v214.8661c-1.76054,3.83769 -3.67237,6.66058 -4.89818,10.66348c-0.7652,2.49876 -1.03669,5.06042 -1.23209,7.63137v-237.78482c0.85517,0.32969 1.73303,0.61373 2.63058,0.84912z" fill="#13ff00" stroke="#13ff00"/><path d="M452.39181,15.54402c2.33998,5.42269 3.82553,11.1147 4.85819,16.93086v181.24039c-2.00512,4.61409 -3.98549,9.23111 -6.09594,13.85274c-0.01144,0.02505 -0.02288,0.05004 -0.03433,0.075v-214.86614c0.46609,0.96426 0.9092,1.9262 1.27208,2.76715z" fill="#0ba100" stroke="#0ba100"/></g><g><path d="M432.25,0.05988h1.69444c0.30127,0.30187 0.6127,0.59725 0.93259,0.88638c1.0538,1.2469 2.22747,2.38923 3.50324,3.4092v304.23341c-1.07594,2.90398 -2.24165,5.72292 -3.15871,8.71761c-1.92415,6.28338 -0.90555,12.24443 -1.24178,18.7351c-0.15152,2.92505 -0.933,5.82827 -1,8.7767c-0.09267,4.07819 0.05888,7.94824 0.88244,11.61314c-0.60116,0.94635 -1.14047,1.93586 -1.61222,2.96283z" fill="#13ff00" stroke="#13ff00"/><path d="M443.98792,254.73692c-1.57077,6.95007 -4.84238,13.90756 -5.00813,21.08135c-0.12493,5.40702 -0.41936,11.37135 0.39063,16.90625c0.16108,1.10071 2.70184,8.79493 2.43429,9.62543c-0.2917,0.90548 -1.99246,2.07279 -2.35961,3.20097c-0.33513,1.02979 -0.69466,2.0389 -1.06482,3.03795v-304.2334c1.84735,1.47695 3.90877,2.69734 6.13027,3.6072v243.68345c-0.12653,1.03646 -0.29145,2.06793 -0.52263,3.09082z" fill="#0ba100" stroke="#0ba100"/><path d="" fill="#0ba100" stroke="#0ba100"/></g></g></g><g stroke-width="1"><g><g><path d="M274.23947,173.95556v-72.95555h6.13027v72.95556z" fill="#13ff00" stroke="#13ff00"/><path d="M280.36973,173.95556v-72.95555h6.13027v72.95556z" fill="#0ba100" stroke="#0ba100"/></g><g><path d="M261.5,174.22778v-72.95556h6.13027v72.95556z" fill="#13ff00" stroke="#13ff00"/><path d="M267.63027,174.22778v-72.95556h6.13027v72.95556z" fill="#0ba100" stroke="#0ba100"/></g></g><g><g><path d="M248.48947,174.22778v-72.95556h6.13027v72.95556z" fill="#13ff00" stroke="#13ff00"/><path d="M254.61973,174.22778v-72.95556h6.13027v72.95556z" fill="#0ba100" stroke="#0ba100"/></g><g><path d="M236.08334,231.83334l-0.33334,-130.28889h6.13027l0.66666,136.28889z" fill="#13ff00" stroke="#13ff00"/><path d="M241.88027,174.5v-72.95555h6.13027v72.95556z" fill="#0ba100" stroke="#0ba100"/></g></g></g><g stroke-width="1"><g><g><path d="M184.73947,168.33334v-67h6.13027v67z" fill="#13ff00" stroke="#13ff00"/><path d="M190.86973,168.33334v-67h6.13027v67z" fill="#0ba100" stroke="#0ba100"/></g><g><path d="M172,168.58334v-67h6.13027v67z" fill="#13ff00" stroke="#13ff00"/><path d="M178.13027,168.58334v-67h6.13027v67z" fill="#0ba100" stroke="#0ba100"/></g></g><g><g><path d="M158.98947,168.58334v-67h6.13027v67z" fill="#13ff00" stroke="#13ff00"/><path d="M165.11972,168.58334v-67h6.13027v67z" fill="#0ba100" stroke="#0ba100"/></g><g><path d="M146.25,168.83334v-67h6.13027v67z" fill="#13ff00" stroke="#13ff00"/><path d="M152.38027,168.83334v-67h6.13027v67z" fill="#0ba100" stroke="#0ba100"/></g></g></g><g stroke-width="1"><g><g><path d="M184.73947,101.83334v-67h6.13027v67z" fill="#13ff00" stroke="#13ff00"/><path d="M190.86973,101.83334v-67h6.13027v67z" fill="#0ba100" stroke="#0ba100"/></g><g><path d="M172,102.08334v-67h6.13027v67z" fill="#13ff00" stroke="#13ff00"/><path d="M178.13027,102.08334v-67h6.13027v67z" fill="#0ba100" stroke="#0ba100"/></g></g><g><g><path d="M158.98947,102.08334v-67h6.13027v67z" fill="#13ff00" stroke="#13ff00"/><path d="M165.11972,102.08334v-67h6.13027v67z" fill="#0ba100" stroke="#0ba100"/></g><g><path d="M145.75,102.33334v-67h6.13027v67z" fill="#13ff00" stroke="#13ff00"/><path d="M152.38027,102.33334v-67h6.13027v67z" fill="#0ba100" stroke="#0ba100"/></g></g></g><path d="M142.81053,96.8l-3.00067,11.98695c-0.86084,0.11415 -1.72826,0.27896 -2.59505,0.49025l-1.38689,-75.79836c2.1394,-1.47458 4.13813,-3.14204 5.88815,-5.02423z" fill="#0ba100" stroke="#0ba100" stroke-width="1"/><g stroke-width="1"><g><g><path d="M180.73947,68.22593v-62.4005c2.15793,-1.01053 4.21786,-2.18041 6.13027,-3.50527v65.90578z" fill="#13ff00" stroke="#13ff00"/><path d="M186.86973,68.22593v-65.90577c0.25976,-0.17996 0.5168,-0.36277 0.77099,-0.54844c1.89546,-1.38444 3.56969,-3.09424 5.35927,-4.63344v71.08765z" fill="#0ba100" stroke="#0ba100"/></g><g><path d="M168,68.61297v-58.83061c2.05902,-0.35268 4.11353,-0.83379 6.13027,-1.44039v60.271z" fill="#13ff00" stroke="#13ff00"/><path d="M174.13027,68.61297v-60.27099c2.09671,-0.63065 4.15259,-1.39695 6.13027,-2.29561v62.56661z" fill="#0ba100" stroke="#0ba100"/></g></g><g><g><path d="M155.98947,80.21297l-0.60014,-69.21227c0.46267,-0.14875 0.91946,-0.31062 1.36994,-0.48517c1.09025,0.00445 2.19074,-0.00683 3.30395,-0.01552c0.38012,-0.00297 0.76162,-0.01064 1.14426,-0.023l0.11227,58.33597c0,0 -3.43083,4.17113 -4.38825,6.21881c-0.78476,1.6784 -0.94201,5.18119 -0.94201,5.18119z" fill="#13ff00" stroke="#13ff00"/><path d="M161.11972,68.61297v-58.13321c2.0219,-0.06154 4.07631,-0.25406 6.13027,-0.57464v58.70785z" fill="#0ba100" stroke="#0ba100"/></g><g><path d="M143.05,125.4l-0.48909,-97.89396c0.57208,-0.67121 1.11269,-1.36819 1.61745,-2.09182c1.59983,-2.29355 3.1003,-5.45326 4.46151,-8.17827l0.5404,108.16406z" fill="#13ff00" stroke="#13ff00"/><path d="M149.68027,101.6l-0.6249,-85.18957c0.18105,-0.35632 0.35944,-0.70214 0.53509,-1.03419c0.20581,-0.38908 1.57699,-3.25494 2.08604,-3.49011c1.12461,-0.17835 2.22425,-0.4317 3.29364,-0.75475l0.2404,69.06862l-5.16169,20.61968c0,0 7.98508,38.87002 8.15288,44.95741c0.10108,3.66691 -7.47668,-24.56787 -7.66494,-23.83937c-0.54316,2.10184 -0.85653,-20.33772 -0.85653,-20.33772z" fill="#0ba100" stroke="#0ba100"/></g></g></g><g stroke-width="1"><g><g><path d="M227.23947,46.87037v-72.12864c0.9135,-0.73596 1.84952,-1.51102 2.82107,-1.94592c0.83522,-0.37388 2.03093,-0.44338 3.3092,-0.4198v74.49437z" fill="#13ff00" stroke="#13ff00"/><path d="M233.36973,46.87037v-74.49437c1.73016,0.03191 3.61158,0.23434 4.95505,0.08329c0.39241,-0.04412 0.78412,-0.09201 1.17522,-0.14325v74.55433z" fill="#0ba100" stroke="#0ba100"/></g><g><path d="M214.5,47.18519v-65.59759c0.24909,-0.16549 0.50056,-0.32437 0.75477,-0.47568c1.71455,-1.02057 3.54696,-1.81515 5.3755,-2.63276v68.70604z" fill="#13ff00" stroke="#13ff00"/><path d="M220.63027,47.18519v-68.70603c1.7143,-0.76654 3.42521,-1.55332 5.0324,-2.56556c0.36318,-0.22874 0.72885,-0.50063 1.09787,-0.79005v72.06165z" fill="#0ba100" stroke="#0ba100"/></g></g><g><g><path d="M201.48947,47.18519v-55.54498c1.37773,-0.80299 2.73722,-1.63489 4.02665,-2.5746c0.71418,-0.52049 1.41254,-1.09117 2.10362,-1.6869v59.80649z" fill="#13ff00" stroke="#13ff00"/><path d="M207.61973,47.18519v-59.80648c2.03358,-1.753 4.00426,-3.72289 6.13027,-5.26887v65.07536z" fill="#0ba100" stroke="#0ba100"/></g><g><path d="M188.75,47.5v-46.59061c2.07747,-1.70519 3.95422,-3.70534 6.13027,-5.26364v51.85425z" fill="#13ff00" stroke="#13ff00"/><path d="M194.88027,47.5v-51.85425c0.10186,-0.07294 0.20437,-0.14492 0.30759,-0.21584c1.86608,-1.28232 3.85678,-2.37712 5.82268,-3.51198v55.58208z" fill="#0ba100" stroke="#0ba100"/></g></g></g><g stroke-width="1"><g><g><path d="M224.73947,107.5v-67h6.13027v67z" fill="#13ff00" stroke="#13ff00"/><path d="M230.86973,107.5v-67h6.13027v67z" fill="#0ba100" stroke="#0ba100"/></g><g><path d="M212,107.75v-67h6.13027v67z" fill="#13ff00" stroke="#13ff00"/><path d="M218.13027,107.75v-67h6.13027v67z" fill="#0ba100" stroke="#0ba100"/></g></g><g><g><path d="M198.98947,107.75v-67h6.13027v67z" fill="#13ff00" stroke="#13ff00"/><path d="M205.11973,107.75v-67h6.13027v67z" fill="#0ba100" stroke="#0ba100"/></g><g><path d="M185.75,108v-67h6.13027v67z" fill="#13ff00" stroke="#13ff00"/><path d="M192.38027,108v-67h6.13027v67z" fill="#0ba100" stroke="#0ba100"/></g></g></g><g stroke-width="1"><g><g><path d="M261.23947,221.45556v-72.95555h6.13027v72.95556z" fill="#13ff00" stroke="#13ff00"/><path d="M267.36973,221.45556c0,0 -0.5,-23.31014 -0.5,-35.25966c0,-12.35544 0.5,-37.6959 0.5,-37.6959h6.13027c0,0 -6.5,27.84046 -6.5,40.1959c0,11.94951 6.5,32.75966 6.5,32.75966z" fill="#0ba100" stroke="#0ba100"/></g><g><path d="M248.5,221.72778v-72.95556h6.13027v72.95556z" fill="#13ff00" stroke="#13ff00"/><path d="M254.63027,221.72778v-72.95556h6.13027v72.95556z" fill="#0ba100" stroke="#0ba100"/></g></g><g><g><path d="M235.48947,221.72778v-72.95556h6.13027v72.95556z" fill="#13ff00" stroke="#13ff00"/><path d="M241.61973,221.72778v-72.95556h6.13027v72.95556z" fill="#0ba100" stroke="#0ba100"/></g><g fill="#13ff00" stroke="#13ff00"><path d="M232.25,222v-72.95555h6.13027v72.95556z"/></g></g></g><g stroke-width="1"><g><g><path d="M369.98947,178.42346v-77.25679h6.13027v77.25679z" fill="#13ff00" stroke="#13ff00"/><path d="M376.11973,178.42346v-77.25679h6.13027v77.25679z" fill="#0ba100" stroke="#0ba100"/></g><g><path d="M357.25,178.71173v-77.25679h6.13027v77.25679z" fill="#13ff00" stroke="#13ff00"/><path d="M363.38027,178.71173v-77.25679h6.13027v77.25679z" fill="#0ba100" stroke="#0ba100"/></g></g><g><g><path d="M344.23947,178.71173v-77.25679h6.13027v77.25679z" fill="#13ff00" stroke="#13ff00"/><path d="M350.36973,178.71173v-77.25679h6.13027v77.25679z" fill="#0ba100" stroke="#0ba100"/></g><g><path d="M331.5,179v-77.25679h6.13027v77.25679z" fill="#13ff00" stroke="#13ff00"/><path d="M337.63027,179v-77.25679h6.13027v77.25679z" fill="#0ba100" stroke="#0ba100"/></g></g></g><g stroke-width="1"><g><g><path d="M421.48947,102.72593v-103.72592h6.13027v103.72594z" fill="#13ff00" stroke="#13ff00"/><path d="M427.61973,102.72593v-103.72592h5.33477c0.25529,0.29327 0.52089,0.58077 0.7955,0.86268v102.86326z" fill="#0ba100" stroke="#0ba100"/></g><g><path d="M408.75,103.11297v-103.72592h6.13027v103.72592z" fill="#13ff00" stroke="#13ff00"/><path d="M414.88027,103.11297v-103.72592h6.13026v103.72592z" fill="#0ba100" stroke="#0ba100"/></g></g><g><g><path d="M395.73947,103.11297v-103.72592h6.13026v103.72592z" fill="#13ff00" stroke="#13ff00"/><path d="M401.86973,103.11297v-103.72592h6.13027v103.72592z" fill="#0ba100" stroke="#0ba100"/></g><g><path d="M383,103.5v-103.72592h6.13027v103.72594z" fill="#13ff00" stroke="#13ff00"/><path d="M389.13027,103.5v-103.72592h6.13027v103.72594z" fill="#0ba100" stroke="#0ba100"/></g></g></g><g stroke-width="1"><g><g><path d="M369.98947,100.97408v-70.47407h6.13027v70.47408z" fill="#13ff00" stroke="#13ff00"/><path d="M376.11973,100.97408v-70.47407h6.13027v70.47408z" fill="#0ba100" stroke="#0ba100"/></g><g><path d="M357.25,101.23704v-70.47407h6.13027v70.47407z" fill="#13ff00" stroke="#13ff00"/><path d="M363.38027,101.23704v-70.47407h6.13026v70.47407z" fill="#0ba100" stroke="#0ba100"/></g></g><g><g><path d="M344.23947,101.23704v-70.47407h6.13026v70.47407z" fill="#13ff00" stroke="#13ff00"/><path d="M350.36973,101.23704v-70.47407h6.13027v70.47407z" fill="#0ba100" stroke="#0ba100"/></g><g><path d="M331.5,101.5v-70.47407h6.13027v70.47408z" fill="#13ff00" stroke="#13ff00"/><path d="M337.63027,101.5v-70.47407h6.13027v70.47408z" fill="#0ba100" stroke="#0ba100"/></g></g></g><g stroke-width="1"><g><g><path d="M421.54503,30v-32.22919c1.79834,0.45074 3.6012,0.88392 5.40487,1.31343c0.24414,0.14971 0.48611,0.3021 0.7254,0.45788v30.45788z" fill="#13ff00" stroke="#13ff00"/><path d="M427.56418,29.88889v-30.41874c0.27345,0.17624 0.54351,0.35672 0.8094,0.54249c1.12651,0.78708 1.7561,2.63822 2.33553,4.17354l-1.01466,14.03605z" fill="#0ba100" stroke="#0ba100"/></g><g><path d="M408.80556,30.25v-39.51994c1.09396,0.80649 2.1619,1.53798 3.17393,2.18056c1.01984,0.64753 1.96434,1.48982 2.95634,2.24786v35.09153z" fill="#13ff00" stroke="#13ff00"/><path d="M414.93583,30.25v-35.09153c0.97628,0.74602 1.99858,1.41044 3.18399,1.72729c0.98023,0.262 1.96252,0.5161 2.94627,0.76455v32.59969z" fill="#0ba100" stroke="#0ba100"/></g></g><g><g><path d="M395.79503,30.25v-51.92658c0.31387,0.18979 0.62642,0.38055 0.93772,0.57227c1.5079,2.08228 3.2939,4.09758 5.19254,5.96871v45.3856z" fill="#13ff00" stroke="#13ff00"/><path d="M401.92529,30.25v-45.3856c1.98336,1.95462 4.08965,3.75194 6.13027,5.304v40.0816z" fill="#0ba100" stroke="#0ba100"/></g><g><path d="M388.29694,41.61111l-3.60012,-11.11111c-0.70656,-2.85464 0.25312,-5.6861 -1.64126,-8.39651v-50.44232c0.44356,0.19574 0.87839,0.39052 1.30335,0.5847c1.61491,0.73791 3.1789,1.50283 4.70131,2.29197z" fill="#13ff00" stroke="#13ff00"/><path d="M389.18583,30.5v-55.89695c2.115,1.0998 4.15004,2.24635 6.13027,3.43217v52.46478z" fill="#0ba100" stroke="#0ba100"/></g></g></g><g stroke-width="1"><g><g><path d="M274.73947,20.5v-52.63439c1.17498,-0.27934 2.34298,-0.66493 3.50207,-1.19875c0.95765,-0.44105 1.83042,-0.88885 2.6282,-1.34638v55.17952z" fill="#13ff00" stroke="#13ff00"/><path d="M280.86973,20.5v-55.1795c2.85159,-1.6354 4.74485,-3.39501 6.13027,-5.41407v60.59358z" fill="#0ba100" stroke="#0ba100"/></g><g><path d="M262,20.75v-52.04433c1.10255,-0.05113 2.20511,-0.06556 3.3062,-0.07587c0.81162,0.07951 1.63464,0.1202 2.46715,0.1202c0.11917,0 0.23814,-0.00083 0.35692,-0.00249v52.0025z" fill="#13ff00" stroke="#13ff00"/><path d="M268.13027,20.75v-52.00249c1.64871,-0.02307 3.25883,-0.20574 4.81561,-0.53326c0.43908,-0.06777 0.87733,-0.14726 1.31466,-0.24064v52.77639z" fill="#0ba100" stroke="#0ba100"/></g></g><g><g><path d="M248.98947,20.75v-50.12231c2.03875,-0.40762 4.07831,-0.81085 6.13027,-1.14652v51.26884z" fill="#13ff00" stroke="#13ff00"/><path d="M255.11973,20.75v-51.26883c1.80631,-0.29549 3.62224,-0.53864 5.4557,-0.68638c0.22483,-0.01812 0.4497,-0.03412 0.67457,-0.04829v52.0035z" fill="#0ba100" stroke="#0ba100"/></g><g><path d="M236.25,21v-48.50367c0.75854,0.02734 1.47099,0.03085 2.07478,-0.03703c1.35906,-0.1528 2.7098,-0.35089 4.05549,-0.57642v49.11713z" fill="#13ff00" stroke="#13ff00"/><path d="M242.38027,21v-49.11712c2.05128,-0.34378 4.09082,-0.75131 6.13027,-1.15938v50.27651z" fill="#0ba100" stroke="#0ba100"/></g></g></g><g stroke-width="1"><g><g><path d="M274.73947,100.5v-67h6.13027v67z" fill="#13ff00" stroke="#13ff00"/><path d="M280.86973,100.5v-67h6.13027v67z" fill="#0ba100" stroke="#0ba100"/></g><g><path d="M262,100.75v-67h6.13027v67z" fill="#13ff00" stroke="#13ff00"/><path d="M268.13027,100.75v-67h6.13027v67z" fill="#0ba100" stroke="#0ba100"/></g></g><g><g><path d="M248.98947,100.75v-67h6.13027v67z" fill="#13ff00" stroke="#13ff00"/><path d="M255.11973,100.75v-67h6.13027v67z" fill="#0ba100" stroke="#0ba100"/></g><g><path d="M236.25,101v-67h6.13027v67z" fill="#13ff00" stroke="#13ff00"/><path d="M242.38027,101v-67h6.13027v67z" fill="#0ba100" stroke="#0ba100"/></g></g></g><g stroke-width="1"><g><g><path d="M369.98947,23v-57.04177c2.04922,0.97801 4.11662,1.88435 6.13027,2.74436v54.29742z" fill="#13ff00" stroke="#13ff00"/><path d="M376.11973,23v-54.29742c2.13214,0.9106 4.20401,1.76925 6.13027,2.60601v51.69142z" fill="#0ba100" stroke="#0ba100"/></g><g><path d="M357.25,23.25v-58.68992c2.04179,0.16816 4.08745,0.28274 6.13027,0.40629v58.28364z" fill="#13ff00" stroke="#13ff00"/><path d="M363.38027,23.25v-58.28364c1.7924,0.1084 3.58262,0.22372 5.36611,0.38819c0.25426,0.12571 0.50902,0.25023 0.76415,0.3736v57.52185z" fill="#0ba100" stroke="#0ba100"/></g></g><g><g><path d="M344.23947,23.25v-61.00455c1.34457,0.36554 2.67046,0.7083 3.97049,1.00812c0.71826,0.16565 1.43829,0.31271 2.15977,0.44401v59.55243z" fill="#13ff00" stroke="#13ff00"/><path d="M350.36973,23.25v-59.55242c2.03414,0.37019 4.07983,0.6151 6.13027,0.79819v58.75424z" fill="#0ba100" stroke="#0ba100"/></g><g><path d="M331.5,23.5v-64.69146c2.04379,0.46289 4.09476,1.01018 6.13027,1.57816v63.11331z" fill="#13ff00" stroke="#13ff00"/><path d="M337.63027,23.5v-63.1133c2.06729,0.57685 4.11862,1.17504 6.13027,1.72783v61.38548z" fill="#0ba100" stroke="#0ba100"/></g></g></g><g stroke-width="1"><g><g><path d="M420.98947,166.02593v-63.52592h6.13027v63.52593z" fill="#13ff00" stroke="#13ff00"/><path d="M427.11973,166.02593v-63.52592h6.13027v63.52593z" fill="#0ba100" stroke="#0ba100"/></g><g><path d="M408.25,166.26297v-78.85925l5.79694,5.66667l0.33333,73.19259z" fill="#13ff00" stroke="#13ff00"/><path d="M414.38027,166.26297v-72.19259l5.13026,9.66666l1,62.52592z" fill="#0ba100" stroke="#0ba100"/></g></g><g><g><path d="M395.23947,166.26297v-79.19259l5.13026,0.33333l1,78.85926z" fill="#13ff00" stroke="#13ff00"/><path d="M401.36973,166.26297l0.33333,-78.85925l6.13027,0.66667l-0.33333,78.19259z" fill="#0ba100" stroke="#0ba100"/></g><g><path d="M382.5,166.5c0,0 0.33333,-21.6157 0.33333,-31c0,-3.75073 -2.33333,-3.4663 -2.33333,-9c0,-6.0085 2,-12.52893 2,-17c0,-3.92377 0,-6.52592 0,-6.52592l6.13027,-9.66667v73.1926z" fill="#13ff00" stroke="#13ff00"/><path d="M388.63027,166.5l0.66667,-74.19259l5.4636,-3.66667v77.85927z" fill="#0ba100" stroke="#0ba100"/></g></g></g><path d="M286.25,193.28045l1,-26.5h44.5v26z" fill="url(#color-4)" stroke="none" stroke-width="0"/><path d="M324.5261,197.29843c-0.93353,1.80457 -2.50208,3.13183 -5.04753,3.47154c-1.68429,0.22478 -3.71253,-0.57773 -5.55325,-1.9364c-2.93065,1.74102 -4.8939,0.25655 -7.02712,-1.51206c-0.25117,-0.10719 -0.49887,-0.23082 -0.74272,-0.37193c-1.02632,2.52386 -2.64711,4.80458 -5.71094,4.81213c-1.33586,0.00329 -2.41658,-1.39786 -3.1556,-3.10968c-1.58299,0.87994 -3.25133,1.49075 -4.76751,1.11794c-0.62206,-0.15296 -1.16903,-0.30062 -1.64806,-0.44647c-0.27561,-0.00096 -0.54942,-0.01769 -0.81893,-0.05072c-4.61363,-0.56555 -6.92515,-2.64036 -4.44003,-7.29207c1.46855,-2.74886 3.02496,-3.09617 5.03183,-3.15806c0.2616,-0.61557 0.61308,-1.16197 1.14197,-1.57031c0.39185,-0.30253 0.81801,-0.52895 1.27098,-0.68926c0.16612,-0.19535 0.32663,-0.39348 0.47276,-0.59876c3.46655,-2.33734 9.41858,-6.26068 13.28073,-2.96326c1.53892,0.73331 3.04561,1.56427 4.16588,1.78987c1.1334,0.22825 2.51568,-0.87261 3.46219,-0.20867c0.63153,0.44299 1.15379,1.13448 1.5621,1.97922c0.34509,0.11641 0.68716,0.23784 1.02101,0.3662c2.23538,-2.42017 5.18922,-3.81286 8.89346,-2.55651c3.26996,1.10905 6.44678,5.22908 5.86864,8.95252c0.27547,0.68245 0.55241,1.36332 0.91297,1.9541l-0.19647,0.50266h0.24753v2.5c0,1.38071 -1.11929,2.5 -2.5,2.5c-1.18975,0 -2.18539,-0.83109 -2.43804,-1.9444l-0.6036,-2.41439c-0.84061,0.47268 -1.76039,0.86035 -2.68227,0.87677zM325.82373,191.14655c0.11775,-0.11981 0.23882,-0.24364 0.36378,-0.36668c-0.06379,-0.2277 -0.14606,-0.44145 -0.2541,-0.6348c-0.02322,0.33136 -0.06814,0.66929 -0.10967,1.00147zM309.01277,192.30722c-0.04038,0.05169 -0.08229,0.10251 -0.12566,0.15245c0.08254,0.07421 0.16508,0.1478 0.24807,0.21959c-0.04386,-0.12399 -0.08471,-0.24804 -0.12241,-0.37204z" fill="#ffffff" stroke="none" stroke-width="0.5"/><path d="M287.75,11.78045v-52.99698c0.2391,-0.31723 0.47083,-0.64033 0.69492,-0.96905c11.16244,0.07509 22.18967,-0.56753 33.6138,-0.31441c3.15206,0.06984 6.41361,0.61255 9.69128,1.36556v52.91489z" fill="url(#color-5)" stroke="none" stroke-width="0"/><path d="M286.25,36.28045l1,-26.5h44.5v26z" fill="url(#color-6)" stroke="none" stroke-width="0"/><path d="M227.81785,97.46986c0,13.16279 -11.2675,23.83333 -25.16666,23.83333c-4.76167,0 -10.29112,3.33607 -15.06516,1.05732c-9.16124,-4.37286 -16.43484,-16.90392 -16.43484,-25.55732c0,-13.16278 17.60083,-23.16666 31.5,-23.16666c5.23484,0 10.4297,-0.15306 14.45656,2.43725c6.66499,4.28729 10.7101,13.19079 10.7101,21.39609z" fill="url(#color-7)" stroke="none" stroke-width="0"/><path d="M220.48452,188.96986c0,7.54789 -12.40744,24.33333 -18.66667,24.33333c-6.25922,0 -7.66666,-17.11878 -7.66666,-24.66667c0,-7.54789 8.74078,-13.33333 15,-13.33333c6.25922,0 11.33333,6.11878 11.33333,13.66667z" fill="url(#color-8)" stroke="none" stroke-width="0"/></g></g></svg>