<svg version="1.1" xmlns="http://www.w3.org/2000/svg" xmlns:xlink="http://www.w3.org/1999/xlink" width="96.56924" height="62.66947" viewBox="0,0,96.56924,62.66947"><defs><linearGradient x1="240" y1="154.04016" x2="240" y2="206.34005" gradientUnits="userSpaceOnUse" id="color-1"><stop offset="0" stop-color="#000000"/><stop offset="1" stop-color="#6c6d8e"/></linearGradient><radialGradient cx="240" cy="180.19013" r="43.72615" gradientUnits="userSpaceOnUse" id="color-2"><stop offset="0" stop-color="#000000" stop-opacity="0"/><stop offset="1" stop-color="#000000"/></radialGradient><linearGradient x1="240" y1="193.30798" x2="240" y2="206.42582" gradientUnits="userSpaceOnUse" id="color-3"><stop offset="0" stop-color="#fdff96"/><stop offset="1" stop-color="#ffd763"/></linearGradient><radialGradient cx="282.77579" cy="153.83601" r="10.02553" gradientUnits="userSpaceOnUse" id="color-4"><stop offset="0" stop-color="#7b98ff"/><stop offset="1" stop-color="#7b98ff" stop-opacity="0"/></radialGradient></defs><g transform="translate(-196.23208,-143.81049)"><g data-paper-data="{&quot;isPaintingLayer&quot;:true}" fill-rule="nonzero" stroke-linejoin="miter" stroke-miterlimit="10" stroke-dasharray="" stroke-dashoffset="0" style="mix-blend-mode: normal"><path d="M196.27385,154.04016h87.4523v52.2999h-87.4523z" fill="url(#color-1)" stroke="none" stroke-width="0.85738" stroke-linecap="butt"/><g stroke-width="0.5" stroke-linecap="round"><g data-paper-data="{&quot;origPos&quot;:null}" fill="#0078cf" stroke="#0078cf"><path d="M208.13622,170.51365l25.89809,15.75467l-12.30159,19.8552l-2.15817,-1.51073l11.22251,-17.4812l-24.38737,-14.67558z" data-paper-data="{&quot;origPos&quot;:null}"/><path d="M214.61074,160.80183l23.95573,11.00669l11.65414,-16.1863l2.80563,-0.21582l-14.02813,19.63938l-26.32972,-12.94904z" data-paper-data="{&quot;origPos&quot;:null}"/><path d="M267.48599,155.62222l-16.61793,29.56698l27.19299,14.24394l-0.86327,1.72654l-29.56698,-14.67558l17.4812,-31.07771z" data-paper-data="{&quot;origPos&quot;:null}"/><path d="M196.48208,181.08869l20.07101,13.38068l-1.94235,1.94235l-18.12866,-12.5174z" data-paper-data="{&quot;origPos&quot;:null}"/><path d="M282.3774,155.4064l-10.79087,27.84044l-3.02144,-1.07908l11.2225,-26.97717z" data-paper-data="{&quot;origPos&quot;:null}"/></g><path d="M208.13622,169.21871l25.89809,15.75467l-12.30159,19.8552l-2.15817,-1.51073l11.22251,-17.4812l-24.38737,-14.67558z" data-paper-data="{&quot;origPos&quot;:null}" fill="#0094ff" stroke="#0094ff"/><path d="M214.61074,159.50694l23.95573,11.00669l11.65414,-16.1863l2.80563,-0.21582l-14.02813,19.63938l-26.32972,-12.94904z" data-paper-data="{&quot;origPos&quot;:null}" fill="#0094ff" stroke="#0094ff"/><path d="M267.48599,154.32732l-16.61793,29.56698l27.19299,14.24394l-0.86327,1.72654l-29.56698,-14.67558l17.4812,-31.07771z" data-paper-data="{&quot;origPos&quot;:null}" fill="#0094ff" stroke="#0094ff"/><path d="M196.48208,179.79376l20.07101,13.38068l-1.94235,1.94235l-18.12866,-12.5174z" data-paper-data="{&quot;origPos&quot;:null}" fill="#0094ff" stroke="#0094ff"/><path d="M282.3774,154.11152l-10.79087,27.84044l-3.02144,-1.07908l11.2225,-26.97717z" data-paper-data="{&quot;origPos&quot;:null}" fill="#0094ff" stroke="#0094ff"/></g><path d="M211.5893,167.81593c0,-1.25152 1.01456,-2.26609 2.26609,-2.26609c1.25152,0 2.26608,1.01456 2.26608,2.26609c0,1.25152 -1.01456,2.26608 -2.26608,2.26608c-1.25152,0 -2.26609,-1.01456 -2.26609,-2.26608z" fill="#e6cc82" stroke="none" stroke-width="0.5" stroke-linecap="butt"/><path d="M219.43059,171.22746c0,-0.82843 0.67157,-1.5 1.5,-1.5c0.82843,0 1.5,0.67157 1.5,1.5c0,0.82843 -0.67157,1.5 -1.5,1.5c-0.82843,0 -1.5,-0.67157 -1.5,-1.5z" fill="#e6cc82" stroke="none" stroke-width="0.5" stroke-linecap="butt"/><path d="M225.82088,174.77762c0,-0.82843 0.67157,-1.5 1.5,-1.5c0.82843,0 1.5,0.67157 1.5,1.5c0,0.82843 -0.67157,1.5 -1.5,1.5c-0.82843,0 -1.5,-0.67157 -1.5,-1.5z" fill="#e6cc82" stroke="none" stroke-width="0.5" stroke-linecap="butt"/><path d="M232.7437,179.03782c0,-0.82843 0.67157,-1.5 1.5,-1.5c0.82843,0 1.5,0.67157 1.5,1.5c0,0.82843 -0.67157,1.5 -1.5,1.5c-0.82843,0 -1.5,-0.67157 -1.5,-1.5z" fill="#e6cc82" stroke="none" stroke-width="0.5" stroke-linecap="butt"/><path d="M240.90907,181.5229c0,-0.82843 0.67157,-1.5 1.5,-1.5c0.82843,0 1.5,0.67157 1.5,1.5c0,0.82843 -0.67157,1.5 -1.5,1.5c-0.82843,0 -1.5,-0.67157 -1.5,-1.5z" fill="#e6cc82" stroke="none" stroke-width="0.5" stroke-linecap="butt"/><path d="M237.00389,190.22079c0,-0.82843 0.67157,-1.5 1.5,-1.5c0.82843,0 1.5,0.67157 1.5,1.5c0,0.82843 -0.67157,1.5 -1.5,1.5c-0.82843,0 -1.5,-0.67157 -1.5,-1.5z" fill="#e6cc82" stroke="none" stroke-width="0.5" stroke-linecap="butt"/><path d="M245.52428,193.77099c0,-0.82843 0.67157,-1.5 1.5,-1.5c0.82843,0 1.5,0.67157 1.5,1.5c0,0.82843 -0.67157,1.5 -1.5,1.5c-0.82843,0 -1.5,-0.67157 -1.5,-1.5z" fill="#e6cc82" stroke="none" stroke-width="0.5" stroke-linecap="butt"/><path d="M245.70179,173.89008c0,-0.82843 0.67157,-1.5 1.5,-1.5c0.82843,0 1.5,0.67157 1.5,1.5c0,0.82843 -0.67157,1.5 -1.5,1.5c-0.82843,0 -1.5,-0.67157 -1.5,-1.5z" fill="#e6cc82" stroke="none" stroke-width="0.5" stroke-linecap="butt"/><path d="M249.78447,167.67727c0,-0.82843 0.67157,-1.5 1.5,-1.5c0.82843,0 1.5,0.67157 1.5,1.5c0,0.82843 -0.67157,1.5 -1.5,1.5c-0.82843,0 -1.5,-0.67157 -1.5,-1.5z" fill="#e6cc82" stroke="none" stroke-width="0.5" stroke-linecap="butt"/><path d="M252.6246,161.81953c0,-0.82843 0.67157,-1.5 1.5,-1.5c0.82843,0 1.5,0.67157 1.5,1.5c0,0.82843 -0.67157,1.5 -1.5,1.5c-0.82843,0 -1.5,-0.67157 -1.5,-1.5z" fill="#e6cc82" stroke="none" stroke-width="0.5" stroke-linecap="butt"/><path d="M256.52978,155.96174c0,-0.82843 0.67158,-1.5 1.5,-1.5c0.82842,0 1.5,0.67157 1.5,1.5c0,0.82843 -0.67158,1.5 -1.5,1.5c-0.82842,0 -1.5,-0.67157 -1.5,-1.5z" fill="#e6cc82" stroke="none" stroke-width="0.5" stroke-linecap="butt"/><path d="M261.85502,176.3752c0,-0.82843 0.67158,-1.5 1.5,-1.5c0.82842,0 1.5,0.67157 1.5,1.5c0,0.82843 -0.67158,1.5 -1.5,1.5c-0.82842,0 -1.5,-0.67157 -1.5,-1.5z" fill="#e6cc82" stroke="none" stroke-width="0.5" stroke-linecap="butt"/><path d="M265.9377,168.03229c0,-0.82843 0.67158,-1.5 1.5,-1.5c0.82842,0 1.5,0.67157 1.5,1.5c0,0.82843 -0.67158,1.5 -1.5,1.5c-0.82842,0 -1.5,-0.67157 -1.5,-1.5z" fill="#e6cc82" stroke="none" stroke-width="0.5" stroke-linecap="butt"/><path d="M268.95534,161.81953c0,-0.82843 0.67158,-1.5 1.5,-1.5c0.82842,0 1.5,0.67157 1.5,1.5c0,0.82843 -0.67158,1.5 -1.5,1.5c-0.82842,0 -1.5,-0.67157 -1.5,-1.5z" fill="#e6cc82" stroke="none" stroke-width="0.5" stroke-linecap="butt"/><path d="M271.79547,155.78425c0,-0.82843 0.67158,-1.5 1.5,-1.5c0.82842,0 1.5,0.67157 1.5,1.5c0,0.82843 -0.67158,1.5 -1.5,1.5c-0.82842,0 -1.5,-0.67157 -1.5,-1.5z" fill="#e6cc82" stroke="none" stroke-width="0.5" stroke-linecap="butt"/><path d="M259.36991,182.94299c0,-0.82843 0.67158,-1.5 1.5,-1.5c0.82842,0 1.5,0.67157 1.5,1.5c0,0.82843 -0.67158,1.5 -1.5,1.5c-0.82842,0 -1.5,-0.67157 -1.5,-1.5z" fill="#e6cc82" stroke="none" stroke-width="0.5" stroke-linecap="butt"/><path d="M265.9377,186.31565c0,-0.82843 0.67158,-1.5 1.5,-1.5c0.82842,0 1.5,0.67157 1.5,1.5c0,0.82843 -0.67158,1.5 -1.5,1.5c-0.82842,0 -1.5,-0.67157 -1.5,-1.5z" fill="#e6cc82" stroke="none" stroke-width="0.5" stroke-linecap="butt"/><path d="M273.92557,190.39833c0,-0.82843 0.67158,-1.5 1.5,-1.5c0.82842,0 1.5,0.67157 1.5,1.5c0,0.82843 -0.67158,1.5 -1.5,1.5c-0.82842,0 -1.5,-0.67157 -1.5,-1.5z" fill="#e6cc82" stroke="none" stroke-width="0.5" stroke-linecap="butt"/><path d="M275.79191,183.12048c0,-1.24264 1.00736,-2.25 2.25,-2.25c1.24264,0 2.25,1.00736 2.25,2.25c0,1.24264 -1.00736,2.25 -2.25,2.25c-1.24264,0 -2.25,-1.00736 -2.25,-2.25z" fill="#e6cc82" stroke="none" stroke-width="0.5" stroke-linecap="butt"/><path d="M279.91457,174.9551c0,-0.82843 0.67158,-1.5 1.5,-1.5c0.82842,0 1.5,0.67157 1.5,1.5c0,0.82843 -0.67158,1.5 -1.5,1.5c-0.82842,0 -1.5,-0.67157 -1.5,-1.5z" fill="#e6cc82" stroke="none" stroke-width="0.5" stroke-linecap="butt"/><path d="M221.58933,189.86581c0,-0.82843 0.67157,-1.5 1.5,-1.5c0.82843,0 1.5,0.67157 1.5,1.5c0,0.82843 -0.67157,1.5 -1.5,1.5c-0.82843,0 -1.5,-0.67157 -1.5,-1.5z" fill="#e6cc82" stroke="none" stroke-width="0.5" stroke-linecap="butt"/><path d="M215.73156,185.96063c0,-0.82843 0.67157,-1.5 1.5,-1.5c0.82843,0 1.5,0.67157 1.5,1.5c0,0.82843 -0.67157,1.5 -1.5,1.5c-0.82843,0 -1.5,-0.67157 -1.5,-1.5z" fill="#e6cc82" stroke="none" stroke-width="0.5" stroke-linecap="butt"/><path d="M209.34127,181.34541c0,-0.82843 0.67157,-1.5 1.5,-1.5c0.82843,0 1.5,0.67157 1.5,1.5c0,0.82843 -0.67157,1.5 -1.5,1.5c-0.82843,0 -1.5,-0.67157 -1.5,-1.5z" fill="#e6cc82" stroke="none" stroke-width="0.5" stroke-linecap="butt"/><path d="M203.306,178.50526c0,-0.82843 0.67157,-1.5 1.5,-1.5c0.82843,0 1.5,0.67157 1.5,1.5c0,0.82843 -0.67157,1.5 -1.5,1.5c-0.82843,0 -1.5,-0.67157 -1.5,-1.5z" fill="#e6cc82" stroke="none" stroke-width="0.5" stroke-linecap="butt"/><path d="M197.27072,173.18003c0,-0.82843 0.67157,-1.5 1.5,-1.5c0.82843,0 1.5,0.67157 1.5,1.5c0,0.82843 -0.67157,1.5 -1.5,1.5c-0.82843,0 -1.5,-0.67157 -1.5,-1.5z" fill="#e6cc82" stroke="none" stroke-width="0.5" stroke-linecap="butt"/><path d="M205.08107,163.94963c0,-0.82843 0.67157,-1.5 1.5,-1.5c0.82843,0 1.5,0.67157 1.5,1.5c0,0.82843 -0.67157,1.5 -1.5,1.5c-0.82843,0 -1.5,-0.67157 -1.5,-1.5z" fill="#e6cc82" stroke="none" stroke-width="0.5" stroke-linecap="butt"/><path d="M235.78997,162.52954c0,-0.82843 0.67157,-1.5 1.5,-1.5c0.82843,0 1.5,0.67157 1.5,1.5c0,0.82843 -0.67157,1.5 -1.5,1.5c-0.82843,0 -1.5,-0.67157 -1.5,-1.5z" fill="#e6cc82" stroke="none" stroke-width="0.5" stroke-linecap="butt"/><path d="M226.73706,158.62436c0,-0.82843 0.67157,-1.5 1.5,-1.5c0.82843,0 1.5,0.67157 1.5,1.5c0,0.82843 -0.67157,1.5 -1.5,1.5c-0.82843,0 -1.5,-0.67157 -1.5,-1.5z" fill="#e6cc82" stroke="none" stroke-width="0.5" stroke-linecap="butt"/><path d="M217.50664,155.0742c0,-0.82843 0.67157,-1.5 1.5,-1.5c0.82843,0 1.5,0.67157 1.5,1.5c0,0.82843 -0.67157,1.5 -1.5,1.5c-0.82843,0 -1.5,-0.67157 -1.5,-1.5z" fill="#e6cc82" stroke="none" stroke-width="0.5" stroke-linecap="butt"/><path d="M240.40518,156.49426c0,-0.82843 0.67157,-1.5 1.5,-1.5c0.82843,0 1.5,0.67157 1.5,1.5c0,0.82843 -0.67157,1.5 -1.5,1.5c-0.82843,0 -1.5,-0.67157 -1.5,-1.5z" fill="#e6cc82" stroke="none" stroke-width="0.5" stroke-linecap="butt"/><path d="M196.27385,154.04016h87.4523v52.2999h-87.4523z" fill="url(#color-2)" stroke="none" stroke-width="0.85738" stroke-linecap="butt"/><path d="M196.27385,206.42582v-13.11784h87.4523v13.11784z" fill="url(#color-3)" stroke="none" stroke-width="0" stroke-linecap="butt"/><text transform="translate(207.9599,202.90638) scale(0.39251,0.39251)" font-size="22" xml:space="preserve" fill="#382111" fill-rule="nonzero" stroke="none" stroke-width="1" stroke-linecap="butt" stroke-linejoin="miter" stroke-miterlimit="10" stroke-dasharray="" stroke-dashoffset="0" font-family="Sans Serif" font-weight="400" text-anchor="start" style="mix-blend-mode: normal"><tspan x="0" dy="0">Pac-Man Circuit</tspan></text><path d="M278.12977,154.2226c0,-2.51604 2.03966,-4.5557 4.5557,-4.5557c2.51604,0 4.5557,2.03966 4.5557,4.5557c0,2.51605 -2.03966,4.55571 -4.5557,4.55571c-2.51605,0 -4.5557,-2.03966 -4.5557,-4.55571z" fill="#859cff" stroke="none" stroke-width="0" stroke-linecap="butt"/><path d="M272.75027,153.83601c0,-5.53695 4.48858,-10.02552 10.02552,-10.02552c5.53695,0 10.02553,4.48858 10.02553,10.02552c0,5.53695 -4.48859,10.02553 -10.02553,10.02553c-5.53695,0 -10.02552,-4.48859 -10.02552,-10.02553z" fill="url(#color-4)" stroke="none" stroke-width="0" stroke-linecap="butt"/></g></g></svg>