<svg version="1.1" xmlns="http://www.w3.org/2000/svg" xmlns:xlink="http://www.w3.org/1999/xlink" width="97.00936" height="61.30728" viewBox="0,0,97.00936,61.30728"><defs><linearGradient x1="240" y1="153.80718" x2="240" y2="206.10708" gradientUnits="userSpaceOnUse" id="color-1"><stop offset="0" stop-color="#79bbff"/><stop offset="1" stop-color="#549fff"/></linearGradient><linearGradient x1="273.24275" y1="171.74689" x2="273.24275" y2="186.88322" gradientUnits="userSpaceOnUse" id="color-2"><stop offset="0" stop-color="#c7c4d7"/><stop offset="1" stop-color="#b0a1e0"/></linearGradient><linearGradient x1="247.40942" y1="175.91356" x2="247.40942" y2="191.04989" gradientUnits="userSpaceOnUse" id="color-3"><stop offset="0" stop-color="#c7c4d7"/><stop offset="1" stop-color="#b0a1e0"/></linearGradient><linearGradient x1="231" y1="177.41667" x2="231" y2="195.41667" gradientUnits="userSpaceOnUse" id="color-4"><stop offset="0" stop-color="#d5d1e6"/><stop offset="1" stop-color="#c8b8ff"/></linearGradient><linearGradient x1="256.80113" y1="171.91356" x2="256.80113" y2="193.18321" gradientUnits="userSpaceOnUse" id="color-5"><stop offset="0" stop-color="#d5d1e6"/><stop offset="1" stop-color="#c8b8ff"/></linearGradient><linearGradient x1="213.51264" y1="171.91355" x2="213.51264" y2="187.04989" gradientUnits="userSpaceOnUse" id="color-6"><stop offset="0" stop-color="#c7c4d7"/><stop offset="1" stop-color="#b0a1e0"/></linearGradient><linearGradient x1="204.16667" y1="173.41667" x2="204.16667" y2="191.41667" gradientUnits="userSpaceOnUse" id="color-7"><stop offset="0" stop-color="#d5d1e6"/><stop offset="1" stop-color="#c8b8ff"/></linearGradient><linearGradient x1="220.9678" y1="156.08022" x2="220.9678" y2="189.51654" gradientUnits="userSpaceOnUse" id="color-8"><stop offset="0" stop-color="#d5d1e6"/><stop offset="1" stop-color="#c8b8ff"/></linearGradient><linearGradient x1="276.63447" y1="169.08022" x2="276.63447" y2="191.51654" gradientUnits="userSpaceOnUse" id="color-9"><stop offset="0" stop-color="#d5d1e6"/><stop offset="1" stop-color="#c8b8ff"/></linearGradient><linearGradient x1="239.84657" y1="193.07498" x2="239.84657" y2="206.19282" gradientUnits="userSpaceOnUse" id="color-10"><stop offset="0" stop-color="#ffffff"/><stop offset="1" stop-color="#d6d6d6"/></linearGradient><linearGradient x1="206.78373" y1="157.16653" x2="206.78373" y2="171.40626" gradientUnits="userSpaceOnUse" id="color-11"><stop offset="0" stop-color="#e7e7e7"/><stop offset="1" stop-color="#8594e6"/></linearGradient><linearGradient x1="234.33107" y1="166.75" x2="234.33107" y2="173.25001" gradientUnits="userSpaceOnUse" id="color-12"><stop offset="0" stop-color="#d44cbc"/><stop offset="1" stop-color="#403ead"/></linearGradient><linearGradient x1="237.33334" y1="169.25001" x2="237.33334" y2="170.25001" gradientUnits="userSpaceOnUse" id="color-13"><stop offset="0" stop-color="#d44cbc"/><stop offset="1" stop-color="#403ead"/></linearGradient><linearGradient x1="239.61233" y1="166.91008" x2="239.61233" y2="173.08298" gradientUnits="userSpaceOnUse" id="color-14"><stop offset="0" stop-color="#d44cbc"/><stop offset="1" stop-color="#403ead"/></linearGradient><linearGradient x1="242.75" y1="167.25" x2="242.75" y2="173.58334" gradientUnits="userSpaceOnUse" id="color-15"><stop offset="0" stop-color="#d44cbc"/><stop offset="1" stop-color="#403ead"/></linearGradient><linearGradient x1="244.74502" y1="167.24339" x2="244.74502" y2="173.41667" gradientUnits="userSpaceOnUse" id="color-16"><stop offset="0" stop-color="#d44cbc"/><stop offset="1" stop-color="#403ead"/></linearGradient><linearGradient x1="245.91667" y1="167.25" x2="245.91667" y2="173.58334" gradientUnits="userSpaceOnUse" id="color-17"><stop offset="0" stop-color="#d44cbc"/><stop offset="1" stop-color="#403ead"/></linearGradient><linearGradient x1="249.05744" y1="167.08334" x2="249.05744" y2="173.62685" gradientUnits="userSpaceOnUse" id="color-18"><stop offset="0" stop-color="#d44cbc"/><stop offset="1" stop-color="#403ead"/></linearGradient><radialGradient cx="282.98383" cy="154.91106" r="10.02553" gradientUnits="userSpaceOnUse" id="color-19"><stop offset="0" stop-color="#ff8585"/><stop offset="1" stop-color="#ff8585" stop-opacity="0"/></radialGradient></defs><g transform="translate(-196,-144.88554)"><g data-paper-data="{&quot;isPaintingLayer&quot;:true}" fill-rule="nonzero" stroke-linejoin="miter" stroke-miterlimit="10" stroke-dasharray="" stroke-dashoffset="0" style="mix-blend-mode: normal"><path d="M196.27385,153.80718h87.4523v52.2999h-87.4523z" fill="url(#color-1)" stroke="none" stroke-width="0.85738" stroke-linecap="butt"/><path d="M282.71682,173.19539l-0.05219,11.37449c0,0 -8.85987,3.10358 -14.49369,1.64881c-7.24282,-1.87024 -10.06083,-6.30173 -6.29423,-9.89802c0.75454,-0.72042 2.16992,-1.01822 3.1103,-1.82601c0.63466,-0.54519 2.37097,-1.83119 3.20083,-2.16977c1.86926,-0.76265 2.75235,-0.4689 5.05691,-0.5738c1.32482,-0.0603 2.32586,0.54514 3.76155,0.8242c1.51612,0.2947 5.71051,0.6201 5.71051,0.6201z" fill="url(#color-2)" stroke="none" stroke-width="0" stroke-linecap="butt"/><path d="M256.88349,177.36206l-0.05219,11.37449c0,0 -8.85987,3.10358 -14.49369,1.64881c-7.24282,-1.87024 -10.06083,-6.30173 -6.29423,-9.89802c0.75453,-0.72042 2.66992,-1.35155 3.6103,-2.15935c0.63466,-0.54519 0.2043,-1.33119 1.03416,-1.66977c1.86926,-0.76265 4.41902,-0.63557 6.72357,-0.74047c1.32482,-0.0603 2.32586,0.54514 3.76155,0.8242c1.51612,0.2947 5.71052,0.6201 5.71052,0.6201z" fill="url(#color-3)" stroke="none" stroke-width="0" stroke-linecap="butt"/><path d="M223.25,195.41667v-18h15.5v18z" fill="url(#color-4)" stroke="none" stroke-width="0" stroke-linecap="butt"/><path d="M255.66709,173.07763c0.4326,-0.39215 0.73424,-1.24292 1.13344,-1.15818c0.69441,0.14741 1.46271,-0.03117 2.02596,1.04051c0.25006,0.47578 0.12037,1.58026 0.31161,2.34637c0.28336,1.13512 0.8605,2.02199 1.08786,3.03432c1.13496,5.05352 0.28583,11.28068 -1.89659,13.90875c-1.69759,2.04424 -3.23109,0.48913 -4.57197,-2.31692c-0.19842,-0.41523 -0.93934,-3.61831 -0.88121,-7.50495c0.05406,-3.61467 0.88238,-7.92371 1.34312,-8.47854c0.40347,-0.48587 0.99093,-0.45725 1.44777,-0.87137z" data-paper-data="{&quot;index&quot;:null}" fill="url(#color-5)" stroke="none" stroke-width="0" stroke-linecap="butt"/><path d="M218.21683,173.36205l-0.02592,11.37449c0,0 -4.39921,3.10358 -7.19658,1.64882c-3.59629,-1.87024 -4.99553,-6.30174 -3.12529,-9.89802c0.37465,-0.72042 1.3257,-1.35155 1.79263,-2.15935c0.31513,-0.54519 0.10144,-1.33118 0.5135,-1.66977c0.92814,-0.76265 2.19419,-0.63557 3.33847,-0.74047c0.65782,-0.06031 1.15487,0.54514 1.86773,0.82421c0.7528,0.2947 2.83546,0.6201 2.83546,0.6201z" fill="url(#color-6)" stroke="none" stroke-width="0" stroke-linecap="butt"/><path d="M196.41667,191.41667v-18h15.5v18z" fill="url(#color-7)" stroke="none" stroke-width="0" stroke-linecap="butt"/><path d="M223.54961,159.27997c0.46074,0.87219 1.28906,7.6461 1.34312,13.32843c0.05813,6.10988 -0.68279,11.14519 -0.88121,11.79794c-1.34087,4.41117 -2.87438,6.85584 -4.57197,3.64225c-2.18242,-4.13138 -3.03155,-13.9206 -1.89659,-21.86484c0.22736,-1.59141 0.8045,-2.98559 1.08786,-4.77002c0.19124,-1.20433 0.06156,-2.9406 0.31162,-3.68854c0.56325,-1.6847 1.33155,-1.40398 2.02596,-1.63571c0.3992,-0.13322 0.70084,1.20422 1.13344,1.82068c0.45684,0.651 1.0443,0.60601 1.44777,1.3698z" fill="url(#color-8)" stroke="none" stroke-width="0" stroke-linecap="butt"/><path d="M283.60739,171.2273l-0.03842,16.86021c0,0 -6.52087,4.60038 -10.66736,2.44401c-5.33071,-2.77222 -7.40478,-9.34096 -4.63255,-14.67167c0.55534,-1.06787 1.96506,-2.00338 2.65718,-3.20076c0.46712,-0.80812 0.15035,-1.97319 0.76114,-2.47507c1.37577,-1.13046 3.25241,-0.9421 4.94856,-1.09759c0.97507,-0.08939 1.71184,0.80805 2.7685,1.22171c1.11587,0.43683 4.20295,0.91916 4.20295,0.91916z" fill="url(#color-9)" stroke="none" stroke-width="0" stroke-linecap="butt"/><path d="M196.25,194.75v-7.16666l23.5,-1l2.83516,-2.45037l16.33602,-0.62949l12.69258,-0.25322l8.09216,0.50156l4.54767,2.805l19.32974,1.02652v7.16666z" fill="#306563" stroke="none" stroke-width="0" stroke-linecap="butt"/><path d="M196.12042,206.19282v-13.11784h87.4523v13.11784z" fill="url(#color-10)" stroke="none" stroke-width="0" stroke-linecap="butt"/><text transform="translate(220.23399,202.59057) scale(0.39251,0.39251)" font-size="22" xml:space="preserve" fill="#112739" fill-rule="nonzero" stroke="none" stroke-width="1" stroke-linecap="butt" stroke-linejoin="miter" stroke-miterlimit="10" stroke-dasharray="" stroke-dashoffset="0" font-family="Sans Serif" font-weight="400" text-anchor="start" style="mix-blend-mode: normal"><tspan x="0" dy="0">Mute City</tspan></text><path d="M203.38853,157.41292c0.73757,-0.50501 4.23461,-0.2525 6.6482,0.93204c2.59519,1.27367 4.0939,3.52082 4.20512,3.96753c0.75162,3.01878 0.52686,5.89163 -2.19073,7.75233c-3.49373,2.39211 -8.26514,1.49907 -10.65725,-1.99466c-0.4792,-0.69987 -0.59232,-1.88677 -1.10657,-2.71468c-0.34707,-0.55876 -1.17638,-0.74891 -1.2854,-1.29523c-0.24556,-1.23056 0.49491,-2.33431 0.96171,-3.44011c0.26835,-0.63569 1.07085,-0.79548 1.67895,-1.31477c0.64217,-0.54839 1.10006,-1.45021 1.74597,-1.89245z" fill="url(#color-11)" stroke="none" stroke-width="0" stroke-linecap="butt"/><path d="M200.09075,164.51469c-0.5404,-0.11395 -0.77835,-1.1555 -0.53146,-2.32637c0.24688,-1.17087 0.88511,-2.02768 1.42551,-1.91373c0.5404,0.11395 0.77835,1.1555 0.53146,2.32637c-0.24688,1.17087 -0.88511,2.02768 -1.42551,1.91373z" fill="#9297b5" stroke="none" stroke-width="0" stroke-linecap="butt"/><path d="M212.86003,165.40534c-0.11734,0.58669 -1.49293,0.8062 -3.07249,0.49029c-1.57955,-0.31591 -2.76491,-1.04761 -2.64757,-1.6343c0.11734,-0.58669 1.49293,-0.8062 3.07249,-0.49029c1.57955,0.31591 2.76491,1.04761 2.64757,1.6343z" fill="#9297b5" stroke="none" stroke-width="0" stroke-linecap="butt"/><path d="M222.75,184.08334l15.33334,-0.66667" fill="none" stroke="#04ff00" stroke-width="1" stroke-linecap="round"/><path d="M251.08334,183.08334l8.16666,0.66666" fill="none" stroke="#04ff00" stroke-width="1" stroke-linecap="round"/><path d="M215.39545,184.72514l5.98332,-12.65701l5.7258,2.70674l-5.98332,12.65701z" fill="#666666" stroke="none" stroke-width="0" stroke-linecap="butt"/><path d="M197.25,186.75l21.83334,-0.66666" fill="none" stroke="#04ff00" stroke-width="2.5" stroke-linecap="round"/><path d="M262.37876,187.43188l-5.98332,-12.65701l5.7258,-2.70674l5.98332,12.65701z" data-paper-data="{&quot;index&quot;:null}" fill="#666666" stroke="none" stroke-width="0" stroke-linecap="butt"/><path d="M264.41667,185.91667l18.16667,2.33334" fill="none" stroke="#04ff00" stroke-width="2.5" stroke-linecap="round"/><g><path d="M220.41667,174.91667v-9.33334h11.66667l2.83333,-1.66666h14l2.5,1.66666h11.33334v9.33334h-11.33334l-2.5,1.66666h-14.16666l-3,-1.66666z" fill="#65639f" stroke="none" stroke-width="0" stroke-linecap="butt"/><path d="M230.75001,167.58334h-8.83334" fill="none" stroke="#cf4cbb" stroke-width="1" stroke-linecap="round"/><path d="M230.75001,170.08334h-8.83334" fill="none" stroke="#453fae" stroke-width="1" stroke-linecap="round"/><path d="M221.91667,172.58334h8.83334" fill="none" stroke="#453fae" stroke-width="1" stroke-linecap="round"/><path d="M261.41667,167.58334h-8.83334" fill="none" stroke="#cf4cbb" stroke-width="1" stroke-linecap="round"/><path d="M252.58333,170.08334h8.83334" fill="none" stroke="#453fae" stroke-width="1" stroke-linecap="round"/><path d="M252.58333,172.58334h8.83334" fill="none" stroke="#453fae" stroke-width="1" stroke-linecap="round"/><g stroke="none" stroke-width="0.5" stroke-linecap="butt"><path d="M235.91667,169.75001c0,0.5 -0.5,0.5 -0.5,0.5c-0.27566,0 -0.66529,0 -0.98039,0c0.09522,0.6661 0.14705,1.33632 0.14705,2v0.5c0,0 0,0.5 -0.5,0.5c-0.5,0 -0.5,-0.5 -0.5,-0.5v-0.5c0,-1.55578 -0.30354,-3.15935 -0.79371,-4.63343c-0.00935,-0.02426 -0.01763,-0.05042 -0.02469,-0.07864c-0.03958,-0.15834 -0.01456,-0.27793 0.03712,-0.36718c0.04755,-0.09151 0.135,-0.17682 0.28984,-0.22843c0.03061,-0.01021 0.0599,-0.01777 0.08792,-0.02301c0.45876,-0.10829 0.93241,-0.1669 1.40353,-0.16932h0.66667c0,0 0.5,0 0.5,0.5c0,0.5 -0.5,0.5 -0.5,0.5h-0.66667c-0.22993,-0.00142 -0.4609,0.0149 -0.68945,0.0476c0.14171,0.47595 0.2652,0.96156 0.36698,1.4524c0.32971,0 0.65943,0 0.98914,0h0.16666c0,0 0.5,0 0.5,0.5z" fill="url(#color-12)"/><path d="M238.25,169.75001c0,0.5 -0.5,0.5 -0.5,0.5c-0.16666,0 -0.66666,0 -0.83333,0c0,0 -0.5,0 -0.5,-0.5c0,-0.5 0.5,-0.5 0.5,-0.5c0.16666,0 0.33334,0 0.5,0h0.33333c0,0 0.5,0 0.5,0.5z" fill="url(#color-13)"/><path d="M240.89101,172.74145c-0.15812,0.47434 -0.63245,0.31623 -0.63245,0.31623l-0.56156,-0.19185c-0.2594,-0.17293 -1.69743,-0.74759 -1.75326,-0.95356c-0.25239,-0.93107 2.78962,-2.6635 2.36544,-3.25967c-0.1919,-0.26971 -1.04284,-0.62412 -1.33652,-0.81991c0,0 -0.41602,-0.27735 -0.13867,-0.69338c0.27735,-0.41602 0.69338,-0.13868 0.69338,-0.13868c0.84403,0.56269 2.07923,0.95323 1.69699,2.2408c-0.06017,0.20269 -1.50225,1.78575 -2.09166,2.24003c0.30315,0.08906 0.78481,0.34014 1.00366,0.48604l0.43843,0.14148c0,0 0.47434,0.15811 0.31623,0.63245z" fill="url(#color-14)"/><path d="M244.08334,173.08334c0,0.5 -0.5,0.5 -0.5,0.5c-0.33334,0 -1.16666,0 -1.5,0c0,0 -0.02814,0 -0.07107,-0.00668c-0.02964,0.00435 -0.06145,0.00668 -0.0956,0.00668c-0.5,0 -0.5,-0.5 -0.5,-0.5c0,-1.66683 0,-3.48979 0,-5.16666c0,-0.05572 0,-0.11128 0,-0.16667c0,0 0,-0.5 0.5,-0.5c0.19348,0 0.31209,0.07487 0.38481,0.16667c0.20506,0 0.41013,0 0.61519,0h0.33333c0,0 0.5,0 0.5,0.5c0,0.5 -0.5,0.5 -0.5,0.5c-0.20391,0 -0.53256,0 -0.83333,0c0,0.38889 0,0.77777 0,1.16666c0.22222,0 0.44445,0 0.66666,0h0.33334c0,0 0.5,0 0.5,0.5c0,0.5 -0.5,0.5 -0.5,0.5c-0.24248,0 -0.66136,0 -1,0c0,0.66666 0,1.33334 0,2c0.22222,0 0.44445,0 0.66666,0h0.5c0,0 0.5,0 0.5,0.5z" fill="url(#color-15)"/><path d="M244.58334,173.41667c-0.5,0 -0.5,-0.5 -0.5,-0.5v-0.5c0,-1.51004 -0.102,-3.39115 0.35899,-4.82478c0,0 0.15811,-0.47435 0.63245,-0.31623c0.47434,0.15812 0.31623,0.63246 0.31623,0.63246c-0.4529,1.29602 -0.30767,3.12379 -0.30767,4.50856v0.5c0,0 0,0.5 -0.5,0.5z" fill="url(#color-16)"/><path d="M247.00946,172.59377c0.14458,0.02746 0.40722,0.1272 0.40722,0.48957c0,0.5 -0.5,0.5 -0.5,0.5l-0.56667,-0.2c-0.38509,-0.51344 -1.80969,-1.90488 -1.91995,-2.51845c-0.11083,-0.61673 3.61577,-2.61488 0.48663,-2.61488c0,0 -0.5,0 -0.5,-0.5c0,-0.5 0.5,-0.5 0.5,-0.5c1.28878,0 3.13317,1.16237 2.1075,2.73593c-0.31781,0.48758 -2.05369,0.26008 -1.62087,0.64919c0.62947,0.56591 1.09974,1.26873 1.60616,1.95864z" fill="url(#color-17)"/><path d="M248.72103,168.08334c0.02897,0.09179 0.02897,0.16666 0.02897,0.16666c0,0.52363 -0.25499,4.46674 0.59741,4.22583c0.04469,-0.01263 -0.09717,-1.0196 -0.09741,-1.05916c-0.00498,-0.83327 0,-1.66672 0,-2.5c0,-0.63034 0.22373,-0.87706 -0.5,-0.83334zM247.86379,167.91845c-0.06601,-0.07378 -0.11379,-0.18055 -0.11379,-0.33512c0,-0.5 0.5,-0.5 0.5,-0.5h0.5c1.33443,0.0444 1.5,0.65801 1.5,1.83334c0,1.06543 0.48883,3.83572 -0.43074,4.44083c-2.39539,1.57626 -2.06926,-4.24353 -2.06926,-5.10751c0,0 0,-0.18637 0.11379,-0.33155z" fill="url(#color-18)"/></g></g><path d="M278.055,154.73202c0,-2.51604 2.03966,-4.5557 4.5557,-4.5557c2.51604,0 4.5557,2.03966 4.5557,4.5557c0,2.51605 -2.03966,4.55571 -4.5557,4.55571c-2.51605,0 -4.5557,-2.03966 -4.5557,-4.55571z" fill="#ff8585" stroke="none" stroke-width="0" stroke-linecap="butt"/><path d="M272.95831,154.91106c0,-5.53695 4.48858,-10.02552 10.02552,-10.02552c5.53695,0 10.02553,4.48858 10.02553,10.02552c0,5.53695 -4.48859,10.02553 -10.02553,10.02553c-5.53695,0 -10.02552,-4.48859 -10.02552,-10.02553z" fill="url(#color-19)" stroke="none" stroke-width="0" stroke-linecap="butt"/></g></g></svg>