<svg version="1.1" xmlns="http://www.w3.org/2000/svg" xmlns:xlink="http://www.w3.org/1999/xlink" width="67.07455" height="63.53609" viewBox="0,0,67.07455,63.53609"><defs><linearGradient x1="208.95714" y1="180.01313" x2="267.98831" y2="180.01313" gradientUnits="userSpaceOnUse" id="color-1"><stop offset="0" stop-color="#00ffaa"/><stop offset="1" stop-color="#16b4c4"/></linearGradient><linearGradient x1="218.34244" y1="191.8889" x2="216.5178" y2="191.87371" gradientUnits="userSpaceOnUse" id="color-2"><stop offset="0" stop-color="#000000"/><stop offset="1" stop-color="#3f0000"/></linearGradient><linearGradient x1="218.37253" y1="190.19307" x2="216.54789" y2="190.17785" gradientUnits="userSpaceOnUse" id="color-3"><stop offset="0" stop-color="#000000"/><stop offset="1" stop-color="#3f0000"/></linearGradient><linearGradient x1="218.09244" y1="169.13891" x2="216.2678" y2="169.12372" gradientUnits="userSpaceOnUse" id="color-4"><stop offset="0" stop-color="#000000"/><stop offset="1" stop-color="#3f0000"/></linearGradient><linearGradient x1="218.12253" y1="167.44306" x2="216.29789" y2="167.42786" gradientUnits="userSpaceOnUse" id="color-5"><stop offset="0" stop-color="#000000"/><stop offset="1" stop-color="#3f0000"/></linearGradient></defs><g transform="translate(-206.46274,-148.23197)"><g data-paper-data="{&quot;isPaintingLayer&quot;:true}" fill-rule="nonzero" stroke-linejoin="miter" stroke-miterlimit="10" stroke-dasharray="" stroke-dashoffset="0" style="mix-blend-mode: normal"><path d="M267.98831,179.1174l-57.87782,30.04962c0,0 -1.02779,-0.16788 -1.14777,-30.64332c-0.10763,-27.34244 1.37928,-27.66445 1.37928,-27.66445z" fill="url(#color-1)" stroke="#666c82" stroke-width="5" stroke-linecap="round"/><path d="M209.8949,179.6824h53.57832" fill="none" stroke="#666c82" stroke-width="5" stroke-linecap="round"/><path d="M225.46253,186.0756c1.27477,1.28018 2.06284,3.04927 2.06284,5.00172c0,1.95245 -0.78808,3.72154 -2.06284,5.00172c-1.27477,1.28179 -3.03621,2.07466 -4.978,2.07466c-1.94179,0 -3.70323,-0.79287 -4.97799,-2.07466c-1.27477,-1.28018 -2.06285,-3.04927 -2.06285,-5.00172c0,-1.95245 0.78808,-3.72154 2.06285,-5.00172c1.27477,-1.28179 3.0362,-2.07467 4.97799,-2.07467c1.94179,0 3.70324,0.79288 4.978,2.07467z" data-paper-data="{&quot;index&quot;:null}" fill="#ffffff" stroke="none" stroke-width="1" stroke-linecap="butt"/><g data-paper-data="{&quot;index&quot;:null}"><path d="M225.21761,191.15484c-0.02542,1.4327 -0.54578,2.78796 -1.39812,3.65984c-1.03599,1.05957 -2.611,1.45438 -4.01723,1.51854c-0.68951,0.03149 -1.45915,-0.56648 -1.72189,-1.27915c-0.43481,-1.17959 -0.19339,-2.5555 -0.19898,-3.83587c-0.00593,-1.38017 -0.26152,-2.79786 0.15256,-4.08192c0.23301,-0.72169 0.97383,-1.46922 1.68096,-1.43006c1.49933,0.0864 3.11722,0.61554 4.23486,1.76655c0.83932,0.86447 1.29324,2.24937 1.26782,3.68207z" data-paper-data="{&quot;origPos&quot;:null}" fill="#00ffaa" stroke="none" stroke-width="0.93172" stroke-linecap="round"/><path d="M224.38662,191.03336c-0.01166,0.65661 -0.29999,1.24915 -0.75634,1.67638c-0.45657,0.42704 -1.0809,0.68853 -1.76485,0.68282c-0.68392,-0.00571 -1.29883,-0.27752 -1.7401,-0.71203c-0.44106,-0.4347 -0.70826,-1.03187 -0.6966,-1.68848c0.01166,-0.65659 0.29996,-1.24913 0.75631,-1.67637c0.45655,-0.42704 1.08091,-0.68854 1.76486,-0.68283c0.68395,0.00569 1.29886,0.27752 1.74013,0.71202c0.44106,0.4347 0.70828,1.03187 0.69662,1.68848z" data-paper-data="{&quot;origPos&quot;:null}" fill="#ffffff" stroke="none" stroke-width="1" stroke-linecap="butt"/><path d="M223.09281,186.78005c-0.05927,0.15865 -0.3426,0.20231 -0.52865,0.25752c-0.49558,0.14647 -0.92909,0.3279 -1.52011,0.32298c-0.59101,-0.00492 -1.12417,-0.13765 -1.5082,-0.3482c-0.38404,-0.21056 -0.49026,-0.50144 -0.61334,-0.81478c-0.04682,-0.1209 0.05092,-0.2862 0.17214,-0.34713c0.21019,-0.13031 0.47537,-0.1787 0.72923,-0.1732c0.45398,0.01036 0.90878,0.09183 1.34485,0.21037c0.5356,0.14548 1.07631,0.35414 1.58708,0.59085c0.13459,0.06168 0.37356,0.18079 0.33697,0.30158z" data-paper-data="{&quot;origPos&quot;:null}" fill="#ffffff" stroke="none" stroke-width="1" stroke-linecap="round"/><path d="M223.1168,195.36492c0.03523,0.11921 -0.16626,0.23782 -0.29572,0.2963c-0.51578,0.23432 -1.06697,0.42772 -1.60759,0.56423c-0.44017,0.11126 -0.89772,0.18514 -1.35191,0.18793c-0.25396,0.00126 -0.51736,-0.05152 -0.72288,-0.18529c-0.119,-0.06295 -0.21086,-0.22983 -0.15977,-0.34991c0.13417,-0.31119 0.25073,-0.60025 0.6421,-0.80432c0.39139,-0.20409 0.92909,-0.32787 1.52011,-0.32295c0.59101,0.00492 1.01773,0.19393 1.50817,0.34819c0.17041,0.054 0.41682,0.10405 0.46749,0.26581z" data-paper-data="{&quot;origPos&quot;:null}" fill="#ffffff" stroke="none" stroke-width="1" stroke-linecap="round"/><path d="M219.05302,191.06402c-0.01796,1.01125 -0.14052,1.79567 -0.5356,2.5872c-0.18531,0.37142 -0.65982,0.63327 -1.07636,0.63068c-0.48424,-0.00491 -1.06411,-0.22996 -1.28596,-0.65036c-0.41029,-0.7772 -0.46155,-1.58411 -0.44362,-2.59536c0.01793,-1.01126 0.1251,-1.80327 0.5356,-2.58721c0.21718,-0.41517 0.73799,-0.70777 1.20253,-0.69051c0.46163,-0.00955 0.96425,0.29769 1.15978,0.71021c0.37643,0.79326 0.46158,1.58409 0.44365,2.59534z" data-paper-data="{&quot;origPos&quot;:null}" fill="#ffffff" stroke="#00ffaa" stroke-width="0.5" stroke-linecap="butt"/><g data-paper-data="{&quot;origPos&quot;:null}" stroke="none" stroke-width="2.7956"><path d="M218.34207,191.90108c0.00242,0.11624 -0.08323,0.24003 -0.21626,0.30409c-0.20156,0.09752 -0.42195,0.12828 -0.69072,0.12604c-0.26874,-0.00224 -0.49678,-0.04644 -0.68603,-0.1375c-0.14961,-0.07129 -0.24502,-0.18443 -0.23034,-0.30782c-0.01013,-0.13431 0.08748,-0.25703 0.24164,-0.32819c0.19144,-0.08983 0.42193,-0.1283 0.6907,-0.12605c0.26874,0.00224 0.48693,0.03906 0.68603,0.13752c0.12829,0.06331 0.21189,0.19531 0.20497,0.33192z" data-paper-data="{&quot;origPos&quot;:null}" fill="url(#color-2)" stroke-linecap="round"/><path d="M218.15587,190.50933c-0.20159,0.09752 -0.42198,0.12829 -0.69074,0.12604c-0.26874,-0.00222 -0.49678,-0.04644 -0.68603,-0.1375c-0.14961,-0.07129 -0.24502,-0.18445 -0.23035,-0.30784c-0.01013,-0.13431 0.08748,-0.25701 0.24164,-0.32818c0.19146,-0.08982 0.42195,-0.1283 0.69072,-0.12605c0.26877,0.00222 0.48695,0.03906 0.68605,0.13752c0.12829,0.06331 0.21189,0.1953 0.20497,0.33192c0.00242,0.11624 -0.08323,0.24003 -0.21626,0.30409z" data-paper-data="{&quot;origPos&quot;:null}" fill="url(#color-3)" stroke-linecap="round"/><path d="M218.235,190.18395c-0.00124,0.07049 -0.03184,0.13397 -0.08012,0.17975c-0.0483,0.04579 -0.11426,0.07394 -0.18667,0.07334c-0.07244,-0.0006 -0.13736,-0.02985 -0.184,-0.07643c-0.04664,-0.04657 -0.07501,-0.11052 -0.07375,-0.18104c0.00124,-0.07052 0.03187,-0.13397 0.08014,-0.17977c0.04827,-0.04579 0.11421,-0.07394 0.18667,-0.07334c0.07244,0.0006 0.13736,0.02982 0.184,0.07642c0.04664,0.04659 0.07498,0.11054 0.07372,0.18106z" data-paper-data="{&quot;origPos&quot;:null}" fill="#ffffff" stroke-linecap="butt"/><path d="M218.15098,191.89672c-0.00124,0.07051 -0.03184,0.13397 -0.08012,0.17975c-0.0483,0.04579 -0.11426,0.07395 -0.18667,0.07336c-0.07244,-0.0006 -0.13736,-0.02985 -0.184,-0.07644c-0.04664,-0.04657 -0.07498,-0.11051 -0.07372,-0.18103c0.00124,-0.07051 0.03184,-0.13396 0.08011,-0.17976c0.04827,-0.04579 0.11421,-0.07392 0.18667,-0.07333c0.07244,0.0006 0.13736,0.02984 0.184,0.07642c0.04664,0.04659 0.07498,0.11052 0.07372,0.18104z" data-paper-data="{&quot;origPos&quot;:null}" fill="#ffffff" stroke-linecap="butt"/></g></g><path d="M225.21253,163.32558c1.27477,1.28018 2.06284,3.04927 2.06284,5.00172c0,1.95245 -0.78808,3.72154 -2.06284,5.00172c-1.27477,1.28179 -3.03621,2.07466 -4.978,2.07466c-1.94179,0 -3.70323,-0.79287 -4.97799,-2.07466c-1.27477,-1.28018 -2.06285,-3.04927 -2.06285,-5.00172c0,-1.95245 0.78808,-3.72154 2.06285,-5.00172c1.27477,-1.28179 3.0362,-2.07467 4.97799,-2.07467c1.94179,0 3.70324,0.79288 4.978,2.07467z" data-paper-data="{&quot;index&quot;:null}" fill="#ffffff" stroke="none" stroke-width="1" stroke-linecap="butt"/><g data-paper-data="{&quot;index&quot;:null}"><path d="M224.96761,168.40484c-0.02542,1.4327 -0.54578,2.78796 -1.39812,3.65984c-1.03599,1.05957 -2.611,1.45438 -4.01723,1.51854c-0.68951,0.03149 -1.45915,-0.56648 -1.72189,-1.27915c-0.43481,-1.17959 -0.19339,-2.5555 -0.19898,-3.83587c-0.00593,-1.38017 -0.26152,-2.79786 0.15256,-4.08192c0.23301,-0.72169 0.97383,-1.46922 1.68096,-1.43006c1.49933,0.0864 3.11722,0.61554 4.23486,1.76655c0.83932,0.86447 1.29324,2.24937 1.26782,3.68207z" data-paper-data="{&quot;origPos&quot;:null}" fill="#00ffaa" stroke="none" stroke-width="0.93172" stroke-linecap="round"/><path d="M224.13662,168.28337c-0.01166,0.65661 -0.29999,1.24915 -0.75634,1.67638c-0.45657,0.42704 -1.0809,0.68853 -1.76485,0.68282c-0.68392,-0.00571 -1.29883,-0.27752 -1.7401,-0.71203c-0.44106,-0.4347 -0.70826,-1.03187 -0.6966,-1.68848c0.01166,-0.65659 0.29996,-1.24913 0.75631,-1.67637c0.45655,-0.42704 1.08091,-0.68854 1.76486,-0.68283c0.68395,0.00569 1.29886,0.27752 1.74013,0.71202c0.44106,0.4347 0.70828,1.03187 0.69662,1.68848z" data-paper-data="{&quot;origPos&quot;:null}" fill="#ffffff" stroke="none" stroke-width="1" stroke-linecap="butt"/><path d="M222.84281,164.03006c-0.05927,0.15865 -0.3426,0.20231 -0.52865,0.25752c-0.49558,0.14647 -0.92909,0.3279 -1.52011,0.32298c-0.59101,-0.00492 -1.12417,-0.13765 -1.5082,-0.3482c-0.38404,-0.21056 -0.49026,-0.50144 -0.61334,-0.81478c-0.04682,-0.1209 0.05092,-0.2862 0.17214,-0.34713c0.21019,-0.13031 0.47537,-0.1787 0.72923,-0.1732c0.45398,0.01036 0.90878,0.09183 1.34485,0.21037c0.5356,0.14548 1.07631,0.35414 1.58708,0.59085c0.13459,0.06168 0.37356,0.18079 0.33697,0.30158z" data-paper-data="{&quot;origPos&quot;:null}" fill="#ffffff" stroke="none" stroke-width="1" stroke-linecap="round"/><path d="M222.8668,172.61492c0.03523,0.11921 -0.16626,0.23782 -0.29572,0.2963c-0.51578,0.23432 -1.06697,0.42772 -1.60759,0.56423c-0.44017,0.11126 -0.89772,0.18514 -1.35191,0.18793c-0.25396,0.00126 -0.51736,-0.05152 -0.72288,-0.18529c-0.119,-0.06295 -0.21086,-0.22983 -0.15977,-0.34991c0.13417,-0.31119 0.25073,-0.60025 0.6421,-0.80432c0.39139,-0.20409 0.92909,-0.32787 1.52011,-0.32295c0.59101,0.00492 1.01773,0.19393 1.50817,0.34819c0.17041,0.054 0.41682,0.10405 0.46749,0.26581z" data-paper-data="{&quot;origPos&quot;:null}" fill="#ffffff" stroke="none" stroke-width="1" stroke-linecap="round"/><path d="M218.80302,168.31403c-0.01796,1.01125 -0.14052,1.79567 -0.5356,2.5872c-0.18531,0.37142 -0.65982,0.63327 -1.07636,0.63068c-0.48424,-0.00491 -1.06411,-0.22996 -1.28596,-0.65036c-0.41029,-0.7772 -0.46155,-1.58411 -0.44362,-2.59536c0.01793,-1.01126 0.1251,-1.80327 0.5356,-2.58721c0.21718,-0.41517 0.73799,-0.70777 1.20253,-0.69051c0.46163,-0.00955 0.96425,0.29769 1.15978,0.71021c0.37643,0.79326 0.46158,1.58409 0.44365,2.59534z" data-paper-data="{&quot;origPos&quot;:null}" fill="#ffffff" stroke="#00ffaa" stroke-width="0.5" stroke-linecap="butt"/><g data-paper-data="{&quot;origPos&quot;:null}" stroke="none" stroke-width="2.7956"><path d="M218.09207,169.15109c0.00242,0.11624 -0.08323,0.24003 -0.21626,0.30409c-0.20156,0.09752 -0.42195,0.12828 -0.69072,0.12604c-0.26874,-0.00224 -0.49678,-0.04644 -0.68603,-0.1375c-0.14961,-0.07129 -0.24502,-0.18443 -0.23034,-0.30782c-0.01013,-0.13431 0.08748,-0.25703 0.24164,-0.32819c0.19144,-0.08983 0.42193,-0.1283 0.6907,-0.12605c0.26874,0.00224 0.48693,0.03906 0.68603,0.13752c0.12829,0.06331 0.21189,0.19531 0.20497,0.33192z" data-paper-data="{&quot;origPos&quot;:null}" fill="url(#color-4)" stroke-linecap="round"/><path d="M217.90587,167.75931c-0.20159,0.09752 -0.42198,0.12829 -0.69074,0.12604c-0.26874,-0.00222 -0.49678,-0.04644 -0.68603,-0.1375c-0.14961,-0.07129 -0.24502,-0.18445 -0.23035,-0.30784c-0.01013,-0.13431 0.08748,-0.25701 0.24164,-0.32818c0.19146,-0.08982 0.42195,-0.1283 0.69072,-0.12605c0.26877,0.00222 0.48695,0.03906 0.68605,0.13752c0.12829,0.06331 0.21189,0.1953 0.20497,0.33192c0.00242,0.11624 -0.08323,0.24003 -0.21626,0.30409z" data-paper-data="{&quot;origPos&quot;:null}" fill="url(#color-5)" stroke-linecap="round"/><path d="M217.985,167.43395c-0.00124,0.07049 -0.03184,0.13397 -0.08012,0.17975c-0.0483,0.04579 -0.11426,0.07394 -0.18667,0.07334c-0.07244,-0.0006 -0.13736,-0.02985 -0.184,-0.07643c-0.04664,-0.04657 -0.07501,-0.11052 -0.07375,-0.18104c0.00124,-0.07052 0.03187,-0.13397 0.08014,-0.17977c0.04827,-0.04579 0.11421,-0.07394 0.18667,-0.07334c0.07244,0.0006 0.13736,0.02982 0.184,0.07642c0.04664,0.04659 0.07498,0.11054 0.07372,0.18106z" data-paper-data="{&quot;origPos&quot;:null}" fill="#ffffff" stroke-linecap="butt"/><path d="M217.90098,169.14673c-0.00124,0.07051 -0.03184,0.13397 -0.08012,0.17975c-0.0483,0.04579 -0.11426,0.07395 -0.18667,0.07336c-0.07244,-0.0006 -0.13736,-0.02985 -0.184,-0.07644c-0.04664,-0.04657 -0.07498,-0.11051 -0.07372,-0.18103c0.00124,-0.07051 0.03184,-0.13396 0.08011,-0.17976c0.04827,-0.04579 0.11421,-0.07392 0.18667,-0.07333c0.07244,0.0006 0.13736,0.02984 0.184,0.07642c0.04664,0.04659 0.07498,0.11052 0.07372,0.18104z" data-paper-data="{&quot;origPos&quot;:null}" fill="#ffffff" stroke-linecap="butt"/></g></g></g></g></svg>