<svg version="1.1" xmlns="http://www.w3.org/2000/svg" xmlns:xlink="http://www.w3.org/1999/xlink" width="290.89257" height="293.02415" viewBox="0,0,290.89257,293.02415"><g transform="translate(-163.76306,14.00787)"><g data-paper-data="{&quot;isPaintingLayer&quot;:true}" fill-rule="nonzero" stroke-linejoin="miter" stroke-miterlimit="10" stroke-dasharray="" stroke-dashoffset="0" style="mix-blend-mode: normal"><path d="M379.49069,218.71831l2.77707,20.55976l-25.21443,-18.78141" data-paper-data="{&quot;index&quot;:null}" fill="none" stroke="#e6d981" stroke-width="32.12458" stroke-linecap="round"/><path d="M391.77209,216.40692c6.24215,3.63455 10.48394,10.35221 10.60732,18.10114c0.1875,11.77549 -9.20639,21.47312 -20.98164,21.66061c-11.77549,0.1875 -21.47311,-9.20639 -21.6606,-20.98164c-0.09168,-5.75779 2.10741,-11.01878 5.75555,-14.91413" data-paper-data="{&quot;index&quot;:null}" fill="none" stroke="#61737b" stroke-width="32.12458" stroke-linecap="butt"/><path d="M359.73717,234.18703c-0.1875,-11.77549 9.20639,-21.47312 20.98164,-21.66061c11.77549,-0.1875 21.47311,9.20639 21.6606,20.98164c0.1875,11.77549 -9.20639,21.47312 -20.98164,21.66061c-11.77549,0.1875 -21.47311,-9.20639 -21.6606,-20.98164z" data-paper-data="{&quot;index&quot;:null}" fill="none" stroke="#61737b" stroke-width="32.12458" stroke-linecap="butt"/><path d="M344.05632,123.81932c0.01906,-1.99595 0.01293,-4.0608 -0.84082,-5.7263c0.65137,0.0702 1.32991,0.14322 1.97769,0.24331c0.49816,0.07697 1.10603,-0.24415 1.53761,0.0163c1.37715,0.83107 -0.90308,3.59181 -2.67448,5.46669z" data-paper-data="{&quot;noHover&quot;:false,&quot;origItem&quot;:[&quot;Path&quot;,{&quot;applyMatrix&quot;:true,&quot;segments&quot;:[[[539.41159,255.63703],[-3.5428,-3.74975],[-0.03812,-3.9919]],[[541.07319,244.35977],[-1.7075,3.33101],[-1.30274,0.14039]],[[537.17477,244.86406],[1.29557,-0.20018],[-0.99633,0.15394]],[[534.15038,244.88267],[0.86316,-0.52089],[-2.75429,1.66215]]],&quot;closed&quot;:true}],&quot;index&quot;:null}" fill="#c5a46e" stroke="none" stroke-width="0.5" stroke-linecap="butt"/><g data-paper-data="{&quot;index&quot;:null}" fill="#8189e6" stroke="none" stroke-width="2.48203"><g data-paper-data="{&quot;origPos&quot;:null}"><path d="M290.22282,115.13984c2.26953,-0.10298 4.70097,1.80852 5.97346,4.83062c1.93775,4.57891 2.57376,9.61546 2.57376,15.77366c0,6.1586 -0.82624,11.40112 -2.57376,15.7741c-1.36739,3.45687 -3.48526,5.3798 -5.97346,5.40267c-2.58312,0.02288 -4.58737,-3.05599 -5.69844,-5.72343c-1.9373,-4.54418 -2.74454,-9.79851 -2.84921,-14.88085c-0.15169,-5.50609 0.06649,-11.40109 2.09917,-16.34615c1.12037,-2.72421 3.77977,-4.93357 6.44849,-4.83062z" data-paper-data="{&quot;origPos&quot;:null}" stroke-linecap="round"/><path d="M289.80798,118.3772c1.37673,0 2.62086,0.67542 3.5234,1.76274c0.90214,1.08735 1.46232,2.58696 1.46232,4.24672c0,1.65979 -0.56018,3.15941 -1.46232,4.24673c-0.90254,1.08772 -2.14667,1.76274 -3.5234,1.76274c-1.37712,0 -2.62126,-0.67502 -3.5238,-1.76274c-0.90214,-1.08735 -1.46232,-2.58697 -1.46232,-4.24673c0,-1.65979 0.56018,-3.1594 1.46232,-4.24672c0.90258,-1.08732 2.14667,-1.76274 3.52383,-1.76274z" data-paper-data="{&quot;origPos&quot;:null}" stroke-linecap="butt"/></g><g data-paper-data="{&quot;origPos&quot;:null}"><path d="M325.37662,114.94998c2.26997,-0.10298 4.70137,1.80852 5.97386,4.83062c1.93731,4.57848 2.5738,9.61506 2.5738,15.77366c0,6.15819 -0.82628,11.40112 -2.5738,15.7737c-1.36783,3.45686 -3.48566,5.38023 -5.97386,5.4031c-2.58309,0.02288 -4.58692,-3.05643 -5.69799,-5.72343c-1.93775,-4.54459 -2.745,-9.79852 -2.84922,-14.88086c-0.15213,-5.50605 0.06649,-11.40108 2.09877,-16.34614c1.12081,-2.72464 3.77977,-4.93357 6.44849,-4.83062z" data-paper-data="{&quot;origPos&quot;:null}" stroke-linecap="round"/><path d="M324.77195,117.9971c1.37672,0 2.62085,0.67542 3.52339,1.76274c0.90214,1.08732 1.46232,2.58696 1.46232,4.24672c0,1.65979 -0.56018,3.15941 -1.46232,4.24673c-0.90253,1.08775 -2.14666,1.76318 -3.52339,1.76318c-1.37713,0 -2.62127,-0.67546 -3.52381,-1.76318c-0.90214,-1.08735 -1.46232,-2.58697 -1.46232,-4.24673c0,-1.65979 0.56018,-3.1594 1.46232,-4.24672c0.90258,-1.08732 2.14668,-1.76274 3.52384,-1.76274z" data-paper-data="{&quot;origPos&quot;:null}" stroke-linecap="butt"/></g></g><path d="M256.72717,224.54236l-25.21443,18.78141l2.77707,-20.55976" data-paper-data="{&quot;origPos&quot;:null}" fill="none" stroke="#e6d981" stroke-width="32.12458" stroke-linecap="round"/><path d="M305.37854,46.42814c-11.77525,-0.18749 -21.16913,-9.88535 -20.98164,-21.6606c0.18749,-11.77525 9.88511,-21.16914 21.6606,-20.98164c11.77525,0.18749 21.16914,9.88511 20.98164,21.6606c-0.18749,11.77525 -9.88511,21.16913 -21.6606,20.98164z" fill="none" stroke="#e6d981" stroke-width="32.12458" stroke-linecap="butt"/><path d="M248.28778,224.3186c3.64814,3.89535 5.84723,9.15634 5.75555,14.91413c-0.18749,11.77525 -9.88511,21.16914 -21.6606,20.98164c-11.77525,-0.18749 -21.16914,-9.88512 -20.98164,-21.66061c0.12338,-7.74893 4.36517,-14.46659 10.60732,-18.10114" fill="none" stroke="#61737b" stroke-width="32.12458" stroke-linecap="butt"/><g data-paper-data="{&quot;origPos&quot;:null}" fill="none"><path d="M242.71205,161.87875l0.08894,-0.65847l-46.58727,-67.0632l74.12586,0.2555l32.12489,-61.44216" stroke="#d1ad75" stroke-width="32.12458" stroke-linecap="round"/><path d="M305.68464,26.81152l1.7902,-3.42394l2.12306,3.82736" stroke="#8189e6" stroke-width="32.12458" stroke-linecap="round"/><path d="M404.12854,96.18219l-57.01841,-1.34181l-33.64484,-60.65347" stroke="#8189e6" stroke-width="32.12458" stroke-linecap="round"/><path d="M373.69809,222.66389l-4.30751,-63.92905l42.8421,-54.39214" stroke="#d1ad75" stroke-width="32.12458" stroke-linecap="round"/><path d="M307.35168,186.08209l0.18326,-0.1365l55.48312,41.7883" stroke="#8189e6" stroke-width="32.12458" stroke-linecap="round"/><path d="M302.07073,190.0157l-70.22465,52.30807l9.9757,-73.854" stroke="#8189e6" stroke-width="32.12458" stroke-linecap="round"/><g data-paper-data="{&quot;origPos&quot;:null}" stroke="none" stroke-width="1" stroke-linecap="butt" font-family="sans-serif" font-weight="normal" font-size="12" text-anchor="start"/><g data-paper-data="{&quot;origPos&quot;:null}" stroke="none" stroke-width="1" stroke-linecap="butt" font-family="sans-serif" font-weight="normal" font-size="12" text-anchor="start"/></g><path d="M305.37854,45.42814c-11.77525,-0.18749 -21.16913,-9.88535 -20.98164,-21.6606c0.18749,-11.77525 9.88511,-21.16914 21.6606,-20.98164c11.77525,0.18749 21.16914,9.88511 20.98164,21.6606c-0.18749,11.77525 -9.88511,21.16913 -21.6606,20.98164z" fill="none" stroke="#e6d981" stroke-width="32.12458" stroke-linecap="butt"/><path d="M217.88708,125.83611l24.58057,35.38417l-7.30875,54.10954" fill="none" stroke="#6b7e87" stroke-width="32.12458" stroke-linecap="round"/><path d="M232.38273,259.21437c-11.77525,-0.18749 -21.16914,-9.88512 -20.98164,-21.66061c0.18749,-11.77525 9.88511,-21.16914 21.6606,-20.98164c11.77525,0.18749 21.16914,9.88512 20.98164,21.66061c-0.18749,11.77525 -9.88511,21.16914 -21.6606,20.98164z" fill="none" stroke="#61737b" stroke-width="32.12458" stroke-linecap="butt"/><path d="M288.83333,199.66667l18.33333,-13.33333l47.66667,35.66666" data-paper-data="{&quot;index&quot;:null}" fill="none" stroke="#6b7e87" stroke-width="32.12458" stroke-linecap="round"/><path d="M224.38558,175.00927l31.98445,4.13007l-0.75558,5.85142l-31.98445,-4.13007z" fill="#ffffff" stroke="none" stroke-width="1" stroke-linecap="butt"/><g stroke="none" stroke-width="0" stroke-linecap="butt"><path d="M269.1547,238.37967c0,20.92471 -17.19747,37.37066 -37.79731,37.37066c-20.59984,0 -36.50254,-16.23919 -36.50254,-37.16391c0,-20.92471 16.69948,-38.09429 37.29933,-38.09429c20.59984,0 37.00053,16.96283 37.00053,37.88754z" fill="#6b7e87"/><path d="M249.0858,237.32671c0,9.93424 -7.7589,17.98754 -17.32999,17.98754c-9.57109,0 -17.32999,-8.05329 -17.32999,-17.98754c0,-9.93424 7.7589,-17.98755 17.32999,-17.98755c9.57109,0 17.32999,8.0533 17.32999,17.98755z" fill="#b7ea34"/><path d="M195.77778,245.15588l-1.0147,-5.64855l19.49492,-2.13582l0.61631,5.54517z" fill="#61737b"/><g><g><path d="M195.26106,232.21821l1.56405,-5.34108l17.91512,5.65181l-1.56404,5.34108z" fill="#61737b"/><path d="M199.50619,220.22393l2.84352,-4.73832l15.89335,10.27528l-2.84352,4.73833z" fill="#61737b"/><path d="M208.00122,209.5765l4.36786,-3.25715l10.92521,15.78362l-4.36786,3.25715z" fill="#61737b"/><path d="M220.29329,202.73307l5.25424,-1.19195l3.99805,18.98663l-5.25424,1.19195z" fill="#61737b"/><path d="M230.7653,200.78615l5.37709,-0.11698l0.39237,19.43054l-5.37709,0.11698z" fill="#61737b"/><path d="M243.76288,201.62575l5.09311,1.79359l-6.0161,18.40435l-5.09311,-1.7936z" fill="#61737b"/><path d="M256.4532,208.89652l3.82435,3.92504l-13.1654,13.81961l-3.82435,-3.92504z" fill="#61737b"/><path d="M264.43984,219.2652l2.13277,5.12466l-17.18918,7.70695l-2.13278,-5.12466z" fill="#61737b"/><path d="M268.20707,230.83424l0.61966,5.54517l-18.59966,2.23919l-0.61966,-5.54517z" fill="#61737b"/><path d="M239.62457,224.05357c0,0 -4.64096,-2.38533 -8.99866,-1.531c-4.26,0.83517 -6.60428,2.82073 -6.60428,2.82073l-3.12335,-1.05329c0,0 5.3736,-4.46843 9.28338,-5.03335c4.63441,-0.66962 10.53345,1.74362 10.53345,1.74362z" fill="#e6e6e6"/><path d="M227.17322,223.80947c0,0 -4.96687,1.522 -7.60548,5.22161c-1.59982,2.2431 -3.08428,6.49186 -3.52718,9.39557c-0.2712,1.77806 0.22165,3.05177 0.22165,3.05177l-2.67605,0.67083c0,0 -0.75312,-2.75767 -0.47146,-4.48937c0.57248,-3.51967 2.3143,-8.58657 3.98945,-10.71216c2.96257,-3.75917 8.87091,-6.14779 8.87091,-6.14779z" fill="#e6e6e6"/><path d="M225.03948,224.75233l-1.89401,0.92098l-1.33096,-2.94881l1.89401,-0.92097z" fill="#ff65be"/><path d="M221.97984,226.54125l-1.54785,1.46004l-2.11001,-2.40988l1.54785,-1.46004z" fill="#ff65be"/><path d="M219.50886,228.89869l-0.99729,1.90823l-2.75772,-1.55269l0.99729,-1.90824z" fill="#ff65be"/><path d="M217.70988,232.68451l-0.52161,2.10231l-3.0382,-0.81211l0.52161,-2.10232z" fill="#ff65be"/><path d="M247.70066,234.68128c0,0 -1.08643,-5.25568 -4.44098,-8.26644c-3.27934,-2.94325 -8.15526,-3.77196 -8.15526,-3.77196l0.77235,-3.03578c0,0 6.71311,1.58897 9.57073,4.41561c3.38727,3.35054 5.23502,9.64618 5.23502,9.64618z" fill="#e6e6e6"/><path d="M246.9563,232.40161l-0.74148,-2.02991l2.93356,-1.15443l0.74149,2.02991z" fill="#ff65be"/><path d="M245.46916,229.09965l-1.28554,-1.71243l2.47476,-2.00147l1.28554,1.71243z" fill="#ff65be"/><path d="M243.39133,226.36394l-1.75777,-1.17651l1.70027,-2.73669l1.75776,1.17651z" fill="#ff65be"/><path d="M239.92933,224.2033l-1.9498,-0.78557l1.13529,-3.03569l1.94982,0.78557z" fill="#ff65be"/><path d="M228.65886,223.15199l-1.98079,0.6971l-1.00743,-3.08392l1.98078,-0.6971z" fill="#ff65be"/><path d="M232.23945,222.41144l-2.09145,-0.02l0.02891,-3.25623l2.09146,0.02001z" fill="#ff65be"/><path d="M236.22221,222.88864l-2.05797,-0.3875l0.56001,-3.20406l2.05795,0.3875z" fill="#ff65be"/></g><path d="M216.51176,236.36454l-0.23771,2.15684l-3.117,-0.37008l0.2377,-2.15684z" fill="#ff65be"/><path d="M216.08135,239.30504l0.53791,2.09788l-3.0318,0.83749l-0.53791,-2.09789z" fill="#ff65be"/></g><path d="M268.92635,243.77191l-1.55558,5.34108l-17.8181,-5.65181l1.55558,-5.34108z" fill="#61737b"/><path d="M264.7042,255.76617l-2.82812,4.73832l-15.80728,-10.27528l2.82813,-4.73832z" fill="#61737b"/><path d="M256.25516,266.41361l-4.3442,3.25715l-10.86605,-15.78362l4.34421,-3.25715z" fill="#61737b"/><path d="M244.02968,273.25704l-5.22579,1.19195l-3.97639,-18.98662l5.22578,-1.19195z" fill="#61737b"/><path d="M233.61438,275.20396l-5.34798,0.11698l-0.39025,-19.43054l5.34797,-0.11698z" fill="#61737b"/><path d="M220.68718,274.36437l-5.06553,-1.7936l5.98352,-18.40434l5.06553,1.7936z" fill="#61737b"/><path d="M208.06559,267.0936l-3.80364,-3.92503l13.09411,-13.81961l3.80364,3.92504z" fill="#61737b"/><path d="M200.12221,256.72491l-2.12123,-5.12466l17.09609,-7.70695l2.12122,5.12465z" fill="#61737b"/><path d="M224.80308,251.93655c0,0 4.61583,2.38533 8.94993,1.531c4.23693,-0.83517 6.56851,-2.82072 6.56851,-2.82072l3.10644,1.05328c0,0 -5.3445,4.46843 -9.23309,5.03335c-4.60932,0.66962 -10.4764,-1.74361 -10.4764,-1.74361z" fill="#e6e6e6"/><path d="M237.18701,252.18063c0,0 4.93997,-1.522 7.5643,-5.22161c1.59116,-2.2431 3.06758,-6.49186 3.50807,-9.39556c0.26973,-1.77806 -0.22046,-3.05178 -0.22046,-3.05178l2.66156,-0.67083c0,0 0.74904,2.75767 0.46891,4.48936c-0.56939,3.51967 -2.30177,8.58657 -3.96785,10.71215c-2.94653,3.75917 -8.82287,6.14779 -8.82287,6.14779z" fill="#e6e6e6"/><path d="M239.3092,251.23778l1.88375,-0.92098l1.32375,2.94881l-1.88375,0.92097z" fill="#ff65be"/><path d="M242.35227,249.44886l1.53946,-1.46005l2.09858,2.40989l-1.53947,1.46004z" fill="#ff65be"/><path d="M244.80986,247.09143l0.99189,-1.90824l2.74279,1.5527l-0.99189,1.90823z" fill="#ff65be"/><path d="M246.59909,243.3056l0.51879,-2.10231l3.02175,0.81211l-0.5188,2.10232z" fill="#ff65be"/><path d="M216.77074,241.30883c0,0 1.08054,5.25569 4.41692,8.26644c3.26158,2.94325 8.1111,3.77196 8.1111,3.77196l-0.76816,3.03578c0,0 -6.67675,-1.58897 -9.5189,-4.41561c-3.36893,-3.35054 -5.20667,-9.64617 -5.20667,-9.64617z" fill="#e6e6e6"/><path d="M217.51107,243.5885l0.73746,2.02991l-2.91766,1.15443l-0.73748,-2.02991z" fill="#ff65be"/><path d="M218.99014,246.89047l1.27858,1.71243l-2.46134,2.00147l-1.27858,-1.71243z" fill="#ff65be"/><path d="M221.05673,249.62618l1.74825,1.17651l-1.69106,2.73669l-1.74825,-1.17651z" fill="#ff65be"/><path d="M224.49997,251.78682l1.93925,0.78557l-1.12913,3.03569l-1.93925,-0.78557z" fill="#ff65be"/><path d="M235.70942,252.83813l1.97007,-0.6971l1.00196,3.08392l-1.97006,0.6971z" fill="#ff65be"/><path d="M232.14821,253.57868l2.08013,0.02l-0.02875,3.25622l-2.08015,-0.02z" fill="#ff65be"/><path d="M228.18701,253.10146l2.04682,0.3875l-0.55698,3.20406l-2.04681,-0.3875z" fill="#ff65be"/><path d="M247.79073,239.72894l0.23642,-2.15684l3.10012,0.37008l-0.23641,2.15684z" fill="#ff65be"/><path d="M248.21881,236.78844l-0.53499,-2.09788l3.01537,-0.83749l0.535,2.09789z" fill="#ff65be"/></g><g stroke="none" stroke-width="0" stroke-linecap="butt"><path d="M416.48806,235.04633c0,20.92471 -17.19747,37.37066 -37.79732,37.37066c-20.59985,0 -36.50254,-16.23919 -36.50254,-37.16391c0,-20.92471 16.69948,-38.09429 37.29933,-38.09429c20.59985,0 37.00053,16.96284 37.00053,37.88755z" fill="#6b7e87"/><path d="M396.41913,233.99337c0,9.93424 -7.7589,17.98754 -17.32999,17.98754c-9.57109,0 -17.32999,-8.05329 -17.32999,-17.98754c0,-9.93424 7.7589,-17.98755 17.32999,-17.98755c9.57109,0 17.32999,8.0533 17.32999,17.98755z" fill="#b7ea34"/><path d="M343.11111,241.82254l-1.0147,-5.64855l19.49493,-2.13582l0.61631,5.54517z" fill="#61737b"/><g><g><path d="M342.5944,228.88487l1.56405,-5.34108l17.91511,5.65181l-1.56404,5.34108z" fill="#61737b"/><path d="M346.83952,216.8906l2.84352,-4.73832l15.89335,10.27528l-2.84352,4.73832z" fill="#61737b"/><path d="M355.33455,206.24317l4.36786,-3.25715l10.92521,15.78361l-4.36786,3.25715z" fill="#61737b"/><path d="M367.62663,199.39973l5.25425,-1.19195l3.99805,18.98663l-5.25423,1.19195z" fill="#61737b"/><path d="M378.09863,197.45282l5.37709,-0.11698l0.39237,19.43055l-5.37709,0.11698z" fill="#61737b"/><path d="M391.09621,198.29241l5.09311,1.79359l-6.0161,18.40435l-5.09311,-1.7936z" fill="#61737b"/><path d="M403.78654,205.56318l3.82435,3.92504l-13.1654,13.81961l-3.82436,-3.92504z" fill="#61737b"/><path d="M411.77317,215.93187l2.13277,5.12466l-17.18918,7.70695l-2.13278,-5.12465z" fill="#61737b"/><path d="M415.54042,227.5009l0.61966,5.54517l-18.59966,2.2392l-0.61966,-5.54517z" fill="#61737b"/><path d="M386.95791,220.72023c0,0 -4.64096,-2.38533 -8.99866,-1.531c-4.26,0.83517 -6.60428,2.82073 -6.60428,2.82073l-3.12335,-1.05329c0,0 5.3736,-4.46843 9.28337,-5.03335c4.63441,-0.66962 10.53344,1.74362 10.53344,1.74362z" fill="#e6e6e6"/><path d="M374.50655,220.47614c0,0 -4.96687,1.52201 -7.60548,5.22162c-1.59981,2.2431 -3.08428,6.49186 -3.52718,9.39556c-0.2712,1.77806 0.22165,3.05177 0.22165,3.05177l-2.67605,0.67083c0,0 -0.75312,-2.75767 -0.47145,-4.48936c0.57248,-3.51967 2.3143,-8.58658 3.98945,-10.71216c2.96257,-3.75917 8.87091,-6.14779 8.87091,-6.14779z" fill="#e6e6e6"/><path d="M372.37281,221.419l-1.89402,0.92098l-1.33095,-2.94881l1.89401,-0.92098z" fill="#ff65be"/><path d="M369.31317,223.20792l-1.54785,1.46004l-2.11001,-2.40988l1.54785,-1.46004z" fill="#ff65be"/><path d="M366.8422,225.56535l-0.99728,1.90824l-2.75772,-1.55269l0.99728,-1.90823z" fill="#ff65be"/><path d="M365.04322,229.35118l-0.52162,2.10231l-3.0382,-0.81211l0.52161,-2.10232z" fill="#ff65be"/><path d="M395.03399,231.34795c0,0 -1.08643,-5.25569 -4.44098,-8.26644c-3.27934,-2.94325 -8.15526,-3.77196 -8.15526,-3.77196l0.77235,-3.03578c0,0 6.7131,1.58897 9.57072,4.41561c3.38727,3.35054 5.23503,9.64618 5.23503,9.64618z" fill="#e6e6e6"/><path d="M394.28963,229.06828l-0.74147,-2.02991l2.93356,-1.15443l0.74149,2.02991z" fill="#ff65be"/><path d="M392.80249,225.76631l-1.28554,-1.71243l2.47476,-2.00147l1.28554,1.71243z" fill="#ff65be"/><path d="M390.72466,223.0306l-1.75777,-1.17651l1.70027,-2.73669l1.75776,1.17651z" fill="#ff65be"/><path d="M387.26267,220.86996l-1.94981,-0.78557l1.13529,-3.03569l1.94982,0.78557z" fill="#ff65be"/><path d="M375.9922,219.81865l-1.98079,0.69711l-1.00743,-3.08392l1.98078,-0.6971z" fill="#ff65be"/><path d="M379.57278,219.0781l-2.09145,-0.02l0.02891,-3.25623l2.09146,0.02001z" fill="#ff65be"/><path d="M383.55555,219.5553l-2.05796,-0.3875l0.56001,-3.20406l2.05795,0.3875z" fill="#ff65be"/></g><path d="M363.8451,233.03121l-0.23771,2.15684l-3.117,-0.37008l0.2377,-2.15684z" fill="#ff65be"/><path d="M363.41468,235.97171l0.53791,2.09788l-3.0318,0.83749l-0.53791,-2.09788z" fill="#ff65be"/></g><path d="M416.25969,240.43857l-1.55558,5.34108l-17.8181,-5.65181l1.55558,-5.34108z" fill="#61737b"/><path d="M412.03754,252.43284l-2.82812,4.73832l-15.80728,-10.27528l2.82813,-4.73832z" fill="#61737b"/><path d="M403.58851,263.08027l-4.3442,3.25715l-10.86604,-15.78362l4.34421,-3.25715z" fill="#61737b"/><path d="M391.36301,269.92371l-5.22579,1.19195l-3.9764,-18.98663l5.22578,-1.19195z" fill="#61737b"/><path d="M380.94772,271.87063l-5.34798,0.11698l-0.39026,-19.43055l5.34798,-0.11698z" fill="#61737b"/><path d="M368.02052,271.03103l-5.06552,-1.79359l5.98352,-18.40435l5.06552,1.7936z" fill="#61737b"/><path d="M355.39893,263.76026l-3.80363,-3.92504l13.0941,-13.81961l3.80365,3.92504z" fill="#61737b"/><path d="M347.45554,253.39158l-2.12123,-5.12465l17.09609,-7.70695l2.12122,5.12465z" fill="#61737b"/><path d="M372.13641,248.60321c0,0 4.61583,2.38533 8.94993,1.531c4.23693,-0.83517 6.56851,-2.82072 6.56851,-2.82072l3.10644,1.05328c0,0 -5.34451,4.46843 -9.2331,5.03335c-4.60931,0.66962 -10.4764,-1.74362 -10.4764,-1.74362z" fill="#e6e6e6"/><path d="M384.52034,248.84729c0,0 4.93997,-1.522 7.5643,-5.22161c1.59116,-2.24311 3.06758,-6.49186 3.50808,-9.39556c0.26974,-1.77806 -0.22046,-3.05178 -0.22046,-3.05178l2.66156,-0.67083c0,0 0.74905,2.75767 0.46891,4.48936c-0.56939,3.51967 -2.30177,8.58657 -3.96785,10.71215c-2.94653,3.75917 -8.82287,6.14779 -8.82287,6.14779z" fill="#e6e6e6"/><path d="M386.64253,247.90445l1.88375,-0.92098l1.32375,2.94881l-1.88375,0.92097z" fill="#ff65be"/><path d="M389.6856,246.11553l1.53947,-1.46004l2.09857,2.40989l-1.53947,1.46004z" fill="#ff65be"/><path d="M392.14319,243.75809l0.99189,-1.90824l2.74279,1.5527l-0.99189,1.90823z" fill="#ff65be"/><path d="M393.93243,239.97227l0.51879,-2.10231l3.02175,0.81211l-0.5188,2.10231z" fill="#ff65be"/><path d="M364.10407,237.97549c0,0 1.08054,5.25569 4.41692,8.26644c3.26158,2.94325 8.1111,3.77196 8.1111,3.77196l-0.76815,3.03578c0,0 -6.67676,-1.58897 -9.51891,-4.41561c-3.36893,-3.35054 -5.20667,-9.64617 -5.20667,-9.64617z" fill="#e6e6e6"/><path d="M364.8444,240.25517l0.73746,2.02991l-2.91766,1.15443l-0.73748,-2.02991z" fill="#ff65be"/><path d="M366.32348,243.55713l1.27858,1.71243l-2.46134,2.00147l-1.27858,-1.71243z" fill="#ff65be"/><path d="M368.39007,246.29284l1.74825,1.17651l-1.69106,2.73669l-1.74825,-1.17651z" fill="#ff65be"/><path d="M371.83331,248.45348l1.93925,0.78556l-1.12913,3.03569l-1.93925,-0.78557z" fill="#ff65be"/><path d="M383.04275,249.50479l1.97006,-0.69711l1.00197,3.08392l-1.97006,0.6971z" fill="#ff65be"/><path d="M379.48155,250.24534l2.08013,0.02l-0.02875,3.25623l-2.08014,-0.02z" fill="#ff65be"/><path d="M375.52035,249.76813l2.04683,0.3875l-0.55699,3.20407l-2.04681,-0.3875z" fill="#ff65be"/><path d="M395.12407,236.3956l0.23642,-2.15684l3.10012,0.37007l-0.23641,2.15684z" fill="#ff65be"/><path d="M395.55214,233.45511l-0.53499,-2.09788l3.01537,-0.83749l0.53499,2.09789z" fill="#ff65be"/></g><path d="M267.0497,122.39833c0.43158,-0.26045 1.03945,0.06067 1.53761,-0.0163c0.64778,-0.10009 1.32632,-0.17311 1.97769,-0.24331c-0.85375,1.6655 -0.85988,3.73035 -0.84082,5.7263c-1.7714,-1.87488 -4.05163,-4.63562 -2.67448,-5.46669z" data-paper-data="{&quot;noHover&quot;:false,&quot;origItem&quot;:[&quot;Path&quot;,{&quot;applyMatrix&quot;:true,&quot;segments&quot;:[[[539.41159,255.63703],[-3.5428,-3.74975],[-0.03812,-3.9919]],[[541.07319,244.35977],[-1.7075,3.33101],[-1.30274,0.14039]],[[537.17477,244.86406],[1.29557,-0.20018],[-0.99633,0.15394]],[[534.15038,244.88267],[0.86316,-0.52089],[-2.75429,1.66215]]],&quot;closed&quot;:true}]}" fill="#c5a46e" stroke="none" stroke-width="0.5" stroke-linecap="butt"/><g stroke="none" stroke-width="0" stroke-linecap="butt"><path d="M238.15472,98.87967c0,20.92471 -17.19747,37.37066 -37.79731,37.37066c-20.59984,0 -36.50254,-16.23919 -36.50254,-37.16391c0,-20.92471 16.69948,-38.09429 37.29933,-38.09429c20.59984,0 37.00053,16.96283 37.00053,37.88754z" fill="#6b7e87"/><path d="M218.0858,97.82671c0,9.93424 -7.7589,17.98754 -17.32999,17.98754c-9.57109,0 -17.32999,-8.05329 -17.32999,-17.98754c0,-9.93424 7.7589,-17.98755 17.32999,-17.98755c9.57109,0 17.32999,8.0533 17.32999,17.98755z" fill="#b7ea34"/><path d="M164.77776,105.65588l-1.0147,-5.64855l19.49492,-2.13582l0.61631,5.54517z" fill="#61737b"/><g><g><path d="M164.26106,92.71821l1.56405,-5.34108l17.91512,5.65181l-1.56404,5.34108z" fill="#61737b"/><path d="M168.50619,80.72393l2.84352,-4.73832l15.89335,10.27528l-2.84352,4.73833z" fill="#61737b"/><path d="M177.00122,70.0765l4.36786,-3.25715l10.92521,15.78362l-4.36786,3.25715z" fill="#61737b"/><path d="M189.29329,63.23307l5.25424,-1.19195l3.99805,18.98663l-5.25424,1.19195z" fill="#61737b"/><path d="M199.7653,61.28615l5.37709,-0.11698l0.39237,19.43054l-5.37709,0.11698z" fill="#61737b"/><path d="M212.76288,62.12575l5.09311,1.79359l-6.0161,18.40435l-5.09311,-1.7936z" fill="#61737b"/><path d="M225.4532,69.39652l3.82435,3.92504l-13.1654,13.81961l-3.82435,-3.92504z" fill="#61737b"/><path d="M233.43984,79.7652l2.13277,5.12466l-17.18918,7.70695l-2.13278,-5.12466z" fill="#61737b"/><path d="M237.20709,91.33424l0.61966,5.54517l-18.59966,2.23919l-0.61966,-5.54517z" fill="#61737b"/><path d="M208.62457,84.55357c0,0 -4.64096,-2.38533 -8.99866,-1.531c-4.26,0.83517 -6.60428,2.82073 -6.60428,2.82073l-3.12335,-1.05329c0,0 5.3736,-4.46843 9.28338,-5.03335c4.63441,-0.66962 10.53345,1.74362 10.53345,1.74362z" fill="#e6e6e6"/><path d="M196.17322,84.30947c0,0 -4.96687,1.522 -7.60548,5.22161c-1.59982,2.2431 -3.08428,6.49186 -3.52718,9.39557c-0.2712,1.77806 0.22165,3.05177 0.22165,3.05177l-2.67605,0.67083c0,0 -0.75312,-2.75767 -0.47146,-4.48937c0.57248,-3.51967 2.3143,-8.58657 3.98945,-10.71216c2.96257,-3.75917 8.87091,-6.14779 8.87091,-6.14779z" fill="#e6e6e6"/><path d="M194.03948,85.25233l-1.89401,0.92098l-1.33096,-2.94881l1.89401,-0.92097z" fill="#ff65be"/><path d="M190.97984,87.04125l-1.54785,1.46004l-2.11001,-2.40988l1.54785,-1.46004z" fill="#ff65be"/><path d="M188.50886,89.39869l-0.99729,1.90823l-2.75772,-1.55269l0.99729,-1.90824z" fill="#ff65be"/><path d="M186.70988,93.18451l-0.52161,2.10231l-3.0382,-0.81211l0.52161,-2.10232z" fill="#ff65be"/><path d="M216.70066,95.18128c0,0 -1.08643,-5.25568 -4.44098,-8.26644c-3.27934,-2.94325 -8.15526,-3.77196 -8.15526,-3.77196l0.77235,-3.03578c0,0 6.71311,1.58897 9.57073,4.41561c3.38727,3.35054 5.23502,9.64618 5.23502,9.64618z" fill="#e6e6e6"/><path d="M215.9563,92.90161l-0.74148,-2.02991l2.93356,-1.15443l0.74149,2.02991z" fill="#ff65be"/><path d="M214.46916,89.59965l-1.28554,-1.71243l2.47476,-2.00147l1.28554,1.71243z" fill="#ff65be"/><path d="M212.39133,86.86394l-1.75777,-1.17651l1.70027,-2.73669l1.75776,1.17651z" fill="#ff65be"/><path d="M208.92933,84.7033l-1.9498,-0.78557l1.13529,-3.03569l1.94982,0.78557z" fill="#ff65be"/><path d="M197.65886,83.65199l-1.98079,0.6971l-1.00743,-3.08392l1.98078,-0.6971z" fill="#ff65be"/><path d="M201.23945,82.91144l-2.09145,-0.02l0.02891,-3.25623l2.09146,0.02001z" fill="#ff65be"/><path d="M205.22221,83.38864l-2.05797,-0.3875l0.56001,-3.20406l2.05795,0.3875z" fill="#ff65be"/></g><path d="M185.51176,96.86454l-0.23771,2.15684l-3.117,-0.37008l0.2377,-2.15684z" fill="#ff65be"/><path d="M185.08135,99.80504l0.53791,2.09788l-3.0318,0.83749l-0.53791,-2.09789z" fill="#ff65be"/></g><path d="M237.92635,104.27191l-1.55558,5.34108l-17.8181,-5.65181l1.55558,-5.34108z" fill="#61737b"/><path d="M233.7042,116.26617l-2.82812,4.73832l-15.80728,-10.27528l2.82813,-4.73832z" fill="#61737b"/><path d="M225.25518,126.91361l-4.3442,3.25715l-10.86605,-15.78362l4.34421,-3.25715z" fill="#61737b"/><path d="M213.02968,133.75704l-5.22579,1.19195l-3.97639,-18.98662l5.22578,-1.19195z" fill="#61737b"/><path d="M202.61438,135.70396l-5.34798,0.11698l-0.39025,-19.43054l5.34797,-0.11698z" fill="#61737b"/><path d="M189.68718,134.86437l-5.06553,-1.7936l5.98352,-18.40434l5.06553,1.7936z" fill="#61737b"/><path d="M177.06559,127.5936l-3.80364,-3.92503l13.09411,-13.81961l3.80364,3.92504z" fill="#61737b"/><path d="M169.12221,117.22491l-2.12123,-5.12466l17.09609,-7.70695l2.12122,5.12465z" fill="#61737b"/><path d="M193.80308,112.43655c0,0 4.61583,2.38533 8.94993,1.531c4.23693,-0.83517 6.56851,-2.82072 6.56851,-2.82072l3.10644,1.05328c0,0 -5.3445,4.46843 -9.23309,5.03335c-4.60932,0.66962 -10.4764,-1.74361 -10.4764,-1.74361z" fill="#e6e6e6"/><path d="M206.18701,112.68063c0,0 4.93997,-1.522 7.5643,-5.22161c1.59116,-2.2431 3.06758,-6.49186 3.50807,-9.39556c0.26973,-1.77806 -0.22046,-3.05178 -0.22046,-3.05178l2.66156,-0.67083c0,0 0.74904,2.75767 0.46891,4.48936c-0.56939,3.51967 -2.30177,8.58657 -3.96785,10.71215c-2.94653,3.75917 -8.82287,6.14779 -8.82287,6.14779z" fill="#e6e6e6"/><path d="M208.3092,111.73778l1.88375,-0.92098l1.32375,2.94881l-1.88375,0.92097z" fill="#ff65be"/><path d="M211.35227,109.94886l1.53946,-1.46005l2.09858,2.40989l-1.53947,1.46004z" fill="#ff65be"/><path d="M213.80986,107.59143l0.99189,-1.90824l2.74279,1.5527l-0.99189,1.90823z" fill="#ff65be"/><path d="M215.59909,103.8056l0.51879,-2.10231l3.02175,0.81211l-0.5188,2.10232z" fill="#ff65be"/><path d="M185.77074,101.80883c0,0 1.08054,5.25569 4.41692,8.26644c3.26158,2.94325 8.1111,3.77196 8.1111,3.77196l-0.76816,3.03578c0,0 -6.67675,-1.58897 -9.5189,-4.41561c-3.36893,-3.35054 -5.20667,-9.64617 -5.20667,-9.64617z" fill="#e6e6e6"/><path d="M186.51107,104.0885l0.73746,2.02991l-2.91766,1.15443l-0.73748,-2.02991z" fill="#ff65be"/><path d="M187.99014,107.39047l1.27858,1.71243l-2.46134,2.00147l-1.27858,-1.71243z" fill="#ff65be"/><path d="M190.05673,110.12618l1.74825,1.17651l-1.69106,2.73669l-1.74825,-1.17651z" fill="#ff65be"/><path d="M193.49997,112.28682l1.93925,0.78557l-1.12913,3.03569l-1.93925,-0.78557z" fill="#ff65be"/><path d="M204.70942,113.33813l1.97007,-0.6971l1.00196,3.08392l-1.97006,0.6971z" fill="#ff65be"/><path d="M201.14821,114.07868l2.08013,0.02l-0.02875,3.25622l-2.08015,-0.02z" fill="#ff65be"/><path d="M197.18701,113.60146l2.04682,0.3875l-0.55698,3.20406l-2.04681,-0.3875z" fill="#ff65be"/><path d="M216.79073,100.22894l0.23642,-2.15684l3.10012,0.37008l-0.23641,2.15684z" fill="#ff65be"/><path d="M217.21881,97.28844l-0.53499,-2.09788l3.01537,-0.83749l0.535,2.09789z" fill="#ff65be"/></g><g stroke="none" stroke-width="0" stroke-linecap="butt"><path d="M343.15472,23.87967c0,20.92471 -17.19747,37.37066 -37.79731,37.37066c-20.59984,0 -36.50254,-16.23919 -36.50254,-37.16391c0,-20.92471 16.69948,-38.09429 37.29933,-38.09429c20.59984,0 37.00053,16.96283 37.00053,37.88754z" fill="#6b7e87"/><path d="M323.0858,22.82671c0,9.93424 -7.7589,17.98754 -17.32999,17.98754c-9.57109,0 -17.32999,-8.05329 -17.32999,-17.98754c0,-9.93424 7.7589,-17.98755 17.32999,-17.98755c9.57109,0 17.32999,8.0533 17.32999,17.98755z" fill="#d3ff66"/><path d="M269.77778,30.65588l-1.0147,-5.64855l19.49492,-2.13582l0.61631,5.54517z" fill="#61737b"/><g><g><path d="M269.26105,17.71821l1.56405,-5.34108l17.91512,5.65181l-1.56404,5.34108z" fill="#61737b"/><path d="M273.50619,5.72393l2.84352,-4.73832l15.89335,10.27528l-2.84352,4.73833z" fill="#61737b"/><path d="M282.00122,-4.9235l4.36786,-3.25715l10.92521,15.78362l-4.36786,3.25715z" fill="#61737b"/><path d="M294.29329,-11.76693l5.25424,-1.19195l3.99805,18.98663l-5.25424,1.19195z" fill="#61737b"/><path d="M304.76529,-13.71385l5.37709,-0.11698l0.39237,19.43054l-5.37709,0.11698z" fill="#61737b"/><path d="M317.76288,-12.87425l5.09311,1.79359l-6.0161,18.40435l-5.09311,-1.7936z" fill="#61737b"/><path d="M330.45319,-5.60348l3.82435,3.92504l-13.1654,13.81961l-3.82435,-3.92504z" fill="#61737b"/><path d="M338.43984,4.7652l2.13277,5.12466l-17.18918,7.70695l-2.13278,-5.12466z" fill="#61737b"/><path d="M342.20709,16.33424l0.61966,5.54517l-18.59966,2.23919l-0.61966,-5.54517z" fill="#61737b"/><path d="M313.62457,9.55357c0,0 -4.64096,-2.38533 -8.99866,-1.531c-4.26,0.83517 -6.60428,2.82073 -6.60428,2.82073l-3.12335,-1.05329c0,0 5.3736,-4.46843 9.28338,-5.03335c4.63441,-0.66962 10.53345,1.74362 10.53345,1.74362z" fill="#e6e6e6"/><path d="M301.17322,9.30947c0,0 -4.96687,1.522 -7.60548,5.22161c-1.59982,2.2431 -3.08428,6.49186 -3.52718,9.39557c-0.2712,1.77806 0.22165,3.05177 0.22165,3.05177l-2.67605,0.67083c0,0 -0.75312,-2.75767 -0.47146,-4.48937c0.57248,-3.51967 2.3143,-8.58657 3.98945,-10.71216c2.96257,-3.75917 8.87091,-6.14779 8.87091,-6.14779z" fill="#e6e6e6"/><path d="M299.03948,10.25233l-1.89401,0.92098l-1.33096,-2.94881l1.89401,-0.92097z" fill="#ff65be"/><path d="M295.97983,12.04125l-1.54785,1.46004l-2.11001,-2.40988l1.54785,-1.46004z" fill="#ff65be"/><path d="M293.50886,14.39869l-0.99729,1.90823l-2.75772,-1.55269l0.99729,-1.90824z" fill="#ff65be"/><path d="M291.70988,18.18451l-0.52161,2.10231l-3.0382,-0.81211l0.52161,-2.10232z" fill="#ff65be"/><path d="M321.70066,20.18128c0,0 -1.08643,-5.25568 -4.44098,-8.26644c-3.27934,-2.94325 -8.15526,-3.77196 -8.15526,-3.77196l0.77235,-3.03578c0,0 6.71311,1.58897 9.57073,4.41561c3.38727,3.35054 5.23502,9.64618 5.23502,9.64618z" fill="#e6e6e6"/><path d="M320.95628,17.90161l-0.74148,-2.02991l2.93356,-1.15443l0.74149,2.02991z" fill="#ff65be"/><path d="M319.46916,14.59965l-1.28554,-1.71243l2.47476,-2.00147l1.28554,1.71243z" fill="#ff65be"/><path d="M317.39132,11.86394l-1.75777,-1.17651l1.70027,-2.73669l1.75776,1.17651z" fill="#ff65be"/><path d="M313.92931,9.7033l-1.9498,-0.78557l1.13529,-3.03569l1.94982,0.78557z" fill="#ff65be"/><path d="M302.65886,8.65199l-1.98079,0.6971l-1.00743,-3.08392l1.98078,-0.6971z" fill="#ff65be"/><path d="M306.23944,7.91144l-2.09145,-0.02l0.02891,-3.25623l2.09146,0.02001z" fill="#ff65be"/><path d="M310.2222,8.38864l-2.05797,-0.3875l0.56001,-3.20406l2.05795,0.3875z" fill="#ff65be"/></g><path d="M290.51176,21.86454l-0.23771,2.15684l-3.117,-0.37008l0.2377,-2.15684z" fill="#ff65be"/><path d="M290.08134,24.80504l0.53791,2.09788l-3.0318,0.83749l-0.53791,-2.09789z" fill="#ff65be"/></g><path d="M342.92635,29.27191l-1.55558,5.34108l-17.8181,-5.65181l1.55558,-5.34108z" fill="#61737b"/><path d="M338.7042,41.26617l-2.82812,4.73832l-15.80728,-10.27528l2.82813,-4.73832z" fill="#61737b"/><path d="M330.25518,51.91361l-4.3442,3.25715l-10.86605,-15.78362l4.34421,-3.25715z" fill="#61737b"/><path d="M318.02968,58.75704l-5.22579,1.19195l-3.97639,-18.98662l5.22578,-1.19195z" fill="#61737b"/><path d="M307.61438,60.70396l-5.34798,0.11698l-0.39025,-19.43054l5.34797,-0.11698z" fill="#61737b"/><path d="M294.68718,59.86437l-5.06553,-1.7936l5.98352,-18.40434l5.06553,1.7936z" fill="#61737b"/><path d="M282.06558,52.5936l-3.80364,-3.92503l13.09411,-13.81961l3.80364,3.92504z" fill="#61737b"/><path d="M274.12221,42.22491l-2.12123,-5.12466l17.09609,-7.70695l2.12122,5.12465z" fill="#61737b"/><path d="M298.80307,37.43655c0,0 4.61583,2.38533 8.94993,1.531c4.23693,-0.83517 6.56851,-2.82072 6.56851,-2.82072l3.10644,1.05328c0,0 -5.3445,4.46843 -9.23309,5.03335c-4.60932,0.66962 -10.4764,-1.74361 -10.4764,-1.74361z" fill="#e6e6e6"/><path d="M311.18701,37.68063c0,0 4.93997,-1.522 7.5643,-5.22161c1.59116,-2.2431 3.06758,-6.49186 3.50807,-9.39556c0.26973,-1.77806 -0.22046,-3.05178 -0.22046,-3.05178l2.66156,-0.67083c0,0 0.74904,2.75767 0.46891,4.48936c-0.56939,3.51967 -2.30177,8.58657 -3.96785,10.71215c-2.94653,3.75917 -8.82287,6.14779 -8.82287,6.14779z" fill="#e6e6e6"/><path d="M313.3092,36.73778l1.88375,-0.92098l1.32375,2.94881l-1.88375,0.92097z" fill="#ff65be"/><path d="M316.35227,34.94886l1.53946,-1.46005l2.09858,2.40989l-1.53947,1.46004z" fill="#ff65be"/><path d="M318.80986,32.59143l0.99189,-1.90824l2.74279,1.5527l-0.99189,1.90823z" fill="#ff65be"/><path d="M320.59908,28.8056l0.51879,-2.10231l3.02175,0.81211l-0.5188,2.10232z" fill="#ff65be"/><path d="M290.77073,26.80883c0,0 1.08054,5.25569 4.41692,8.26644c3.26158,2.94325 8.1111,3.77196 8.1111,3.77196l-0.76816,3.03578c0,0 -6.67675,-1.58897 -9.5189,-4.41561c-3.36893,-3.35054 -5.20667,-9.64617 -5.20667,-9.64617z" fill="#e6e6e6"/><path d="M291.51106,29.0885l0.73746,2.02991l-2.91766,1.15443l-0.73748,-2.02991z" fill="#ff65be"/><path d="M292.99014,32.39047l1.27858,1.71243l-2.46134,2.00147l-1.27858,-1.71243z" fill="#ff65be"/><path d="M295.05672,35.12618l1.74825,1.17651l-1.69106,2.73669l-1.74825,-1.17651z" fill="#ff65be"/><path d="M298.49996,37.28682l1.93925,0.78557l-1.12913,3.03569l-1.93925,-0.78557z" fill="#ff65be"/><path d="M309.70941,38.33813l1.97007,-0.6971l1.00196,3.08392l-1.97006,0.6971z" fill="#ff65be"/><path d="M306.14821,39.07868l2.08013,0.02l-0.02875,3.25622l-2.08015,-0.02z" fill="#ff65be"/><path d="M302.18701,38.60146l2.04682,0.3875l-0.55698,3.20406l-2.04681,-0.3875z" fill="#ff65be"/><path d="M321.79071,25.22894l0.23642,-2.15684l3.10012,0.37008l-0.23641,2.15684z" fill="#ff65be"/><path d="M322.2188,22.28844l-0.53499,-2.09788l3.01537,-0.83749l0.535,2.09789z" fill="#ff65be"/></g><g stroke="none" stroke-width="0" stroke-linecap="butt"><path d="M454.65563,103.60702c0,20.92471 -17.19747,37.37066 -37.79732,37.37066c-20.59985,0 -36.50254,-16.23919 -36.50254,-37.16391c0,-20.92471 16.69948,-38.09429 37.29933,-38.09429c20.59985,0 37.00053,16.96284 37.00053,37.88755z" fill="#6b7e87"/><path d="M434.5867,102.55406c0,9.93424 -7.7589,17.98754 -17.32999,17.98754c-9.57109,0 -17.32999,-8.05329 -17.32999,-17.98754c0,-9.93424 7.7589,-17.98755 17.32999,-17.98755c9.57109,0 17.32999,8.0533 17.32999,17.98755z" fill="#b7ea34"/><path d="M381.27868,110.38323l-1.0147,-5.64855l19.49493,-2.13582l0.61631,5.54517z" fill="#61737b"/><g><g><path d="M380.76197,97.44556l1.56405,-5.34108l17.91511,5.65181l-1.56404,5.34108z" fill="#61737b"/><path d="M385.00709,85.45129l2.84352,-4.73832l15.89335,10.27528l-2.84352,4.73832z" fill="#61737b"/><path d="M393.50212,74.80386l4.36786,-3.25715l10.92521,15.78361l-4.36786,3.25715z" fill="#61737b"/><path d="M405.7942,67.96042l5.25425,-1.19195l3.99805,18.98663l-5.25423,1.19195z" fill="#61737b"/><path d="M416.2662,66.01351l5.37709,-0.11698l0.39237,19.43055l-5.37709,0.11698z" fill="#61737b"/><path d="M429.26378,66.8531l5.09311,1.79359l-6.0161,18.40435l-5.09311,-1.7936z" fill="#61737b"/><path d="M441.95411,74.12387l3.82435,3.92504l-13.1654,13.81961l-3.82436,-3.92504z" fill="#61737b"/><path d="M449.94074,84.49256l2.13277,5.12466l-17.18918,7.70695l-2.13278,-5.12465z" fill="#61737b"/><path d="M453.70799,96.06159l0.61966,5.54517l-18.59966,2.2392l-0.61966,-5.54517z" fill="#61737b"/><path d="M425.12548,89.28092c0,0 -4.64096,-2.38533 -8.99866,-1.531c-4.26,0.83517 -6.60428,2.82073 -6.60428,2.82073l-3.12335,-1.05329c0,0 5.3736,-4.46843 9.28337,-5.03335c4.63441,-0.66962 10.53344,1.74362 10.53344,1.74362z" fill="#e6e6e6"/><path d="M412.67412,89.03683c0,0 -4.96687,1.52201 -7.60548,5.22162c-1.59981,2.2431 -3.08428,6.49186 -3.52718,9.39556c-0.2712,1.77806 0.22165,3.05177 0.22165,3.05177l-2.67605,0.67083c0,0 -0.75312,-2.75767 -0.47145,-4.48936c0.57248,-3.51967 2.3143,-8.58658 3.98945,-10.71216c2.96257,-3.75917 8.87091,-6.14779 8.87091,-6.14779z" fill="#e6e6e6"/><path d="M410.54038,89.97969l-1.89402,0.92098l-1.33095,-2.94881l1.89401,-0.92098z" fill="#ff65be"/><path d="M407.48074,91.76861l-1.54785,1.46004l-2.11001,-2.40988l1.54785,-1.46004z" fill="#ff65be"/><path d="M405.00977,94.12604l-0.99728,1.90824l-2.75772,-1.55269l0.99728,-1.90823z" fill="#ff65be"/><path d="M403.21079,97.91187l-0.52162,2.10231l-3.0382,-0.81211l0.52161,-2.10232z" fill="#ff65be"/><path d="M433.20156,99.90864c0,0 -1.08643,-5.25569 -4.44098,-8.26644c-3.27934,-2.94325 -8.15526,-3.77196 -8.15526,-3.77196l0.77235,-3.03578c0,0 6.7131,1.58897 9.57072,4.41561c3.38727,3.35054 5.23503,9.64618 5.23503,9.64618z" fill="#e6e6e6"/><path d="M432.4572,97.62897l-0.74147,-2.02991l2.93356,-1.15443l0.74149,2.02991z" fill="#ff65be"/><path d="M430.97006,94.327l-1.28554,-1.71243l2.47476,-2.00147l1.28554,1.71243z" fill="#ff65be"/><path d="M428.89223,91.59129l-1.75777,-1.17651l1.70027,-2.73669l1.75776,1.17651z" fill="#ff65be"/><path d="M425.43024,89.43065l-1.94981,-0.78557l1.13529,-3.03569l1.94982,0.78557z" fill="#ff65be"/><path d="M414.15977,88.37934l-1.98079,0.69711l-1.00743,-3.08392l1.98078,-0.6971z" fill="#ff65be"/><path d="M417.74035,87.63879l-2.09145,-0.02l0.02891,-3.25623l2.09146,0.02001z" fill="#ff65be"/><path d="M421.72312,88.11599l-2.05796,-0.3875l0.56001,-3.20406l2.05795,0.3875z" fill="#ff65be"/></g><path d="M402.01267,101.5919l-0.23771,2.15684l-3.117,-0.37008l0.2377,-2.15684z" fill="#ff65be"/><path d="M401.58225,104.5324l0.53791,2.09788l-3.0318,0.83749l-0.53791,-2.09788z" fill="#ff65be"/></g><path d="M454.42726,108.99926l-1.55558,5.34108l-17.8181,-5.65181l1.55558,-5.34108z" fill="#61737b"/><path d="M450.20511,120.99353l-2.82812,4.73832l-15.80728,-10.27528l2.82813,-4.73832z" fill="#61737b"/><path d="M441.75608,131.64096l-4.3442,3.25715l-10.86604,-15.78362l4.34421,-3.25715z" fill="#61737b"/><path d="M429.53058,138.4844l-5.22579,1.19195l-3.9764,-18.98663l5.22578,-1.19195z" fill="#61737b"/><path d="M419.11529,140.43132l-5.34798,0.11698l-0.39026,-19.43055l5.34798,-0.11698z" fill="#61737b"/><path d="M406.18809,139.59172l-5.06552,-1.79359l5.98352,-18.40435l5.06552,1.7936z" fill="#61737b"/><path d="M393.5665,132.32095l-3.80363,-3.92504l13.0941,-13.81961l3.80365,3.92504z" fill="#61737b"/><path d="M385.62311,121.95227l-2.12123,-5.12465l17.09609,-7.70695l2.12122,5.12465z" fill="#61737b"/><path d="M410.30398,117.1639c0,0 4.61583,2.38533 8.94993,1.531c4.23693,-0.83517 6.56851,-2.82072 6.56851,-2.82072l3.10644,1.05328c0,0 -5.34451,4.46843 -9.2331,5.03335c-4.60931,0.66962 -10.4764,-1.74362 -10.4764,-1.74362z" fill="#e6e6e6"/><path d="M422.68791,117.40798c0,0 4.93997,-1.522 7.5643,-5.22161c1.59116,-2.24311 3.06758,-6.49186 3.50808,-9.39556c0.26974,-1.77806 -0.22046,-3.05178 -0.22046,-3.05178l2.66156,-0.67083c0,0 0.74905,2.75767 0.46891,4.48936c-0.56939,3.51967 -2.30177,8.58657 -3.96785,10.71215c-2.94653,3.75917 -8.82287,6.14779 -8.82287,6.14779z" fill="#e6e6e6"/><path d="M424.8101,116.46514l1.88375,-0.92098l1.32375,2.94881l-1.88375,0.92097z" fill="#ff65be"/><path d="M427.85317,114.67622l1.53947,-1.46004l2.09857,2.40989l-1.53947,1.46004z" fill="#ff65be"/><path d="M430.31076,112.31878l0.99189,-1.90824l2.74279,1.5527l-0.99189,1.90823z" fill="#ff65be"/><path d="M432.1,108.53296l0.51879,-2.10231l3.02175,0.81211l-0.5188,2.10231z" fill="#ff65be"/><path d="M402.27164,106.53618c0,0 1.08054,5.25569 4.41692,8.26644c3.26158,2.94325 8.1111,3.77196 8.1111,3.77196l-0.76815,3.03578c0,0 -6.67676,-1.58897 -9.51891,-4.41561c-3.36893,-3.35054 -5.20667,-9.64617 -5.20667,-9.64617z" fill="#e6e6e6"/><path d="M403.01197,108.81586l0.73746,2.02991l-2.91766,1.15443l-0.73748,-2.02991z" fill="#ff65be"/><path d="M404.49105,112.11782l1.27858,1.71243l-2.46134,2.00147l-1.27858,-1.71243z" fill="#ff65be"/><path d="M406.55764,114.85353l1.74825,1.17651l-1.69106,2.73669l-1.74825,-1.17651z" fill="#ff65be"/><path d="M410.00088,117.01417l1.93925,0.78556l-1.12913,3.03569l-1.93925,-0.78557z" fill="#ff65be"/><path d="M421.21032,118.06548l1.97006,-0.69711l1.00197,3.08392l-1.97006,0.6971z" fill="#ff65be"/><path d="M417.64912,118.80603l2.08013,0.02l-0.02875,3.25623l-2.08014,-0.02z" fill="#ff65be"/><path d="M413.68792,118.32882l2.04683,0.3875l-0.55699,3.20407l-2.04681,-0.3875z" fill="#ff65be"/><path d="M433.29164,104.95629l0.23642,-2.15684l3.10012,0.37007l-0.23641,2.15684z" fill="#ff65be"/><path d="M433.71971,102.0158l-0.53499,-2.09788l3.01537,-0.83749l0.53499,2.09789z" fill="#ff65be"/></g></g></g></svg>