<svg version="1.1" xmlns="http://www.w3.org/2000/svg" xmlns:xlink="http://www.w3.org/1999/xlink" width="217.87214" height="32.59516" viewBox="0,0,217.87214,32.59516"><g transform="translate(-131.06393,-161.7842)"><g data-paper-data="{&quot;isPaintingLayer&quot;:true}" fill="#ffffff" fill-rule="nonzero" stroke="none" stroke-width="none" stroke-linecap="butt" stroke-linejoin="miter" stroke-miterlimit="10" stroke-dasharray="" stroke-dashoffset="0" font-family="none" font-weight="none" font-size="none" text-anchor="none" style="mix-blend-mode: normal"><g data-paper-data="{&quot;origPos&quot;:null}"><path d="M139.28238,167.549c2.73628,0.19338 4.10441,0.36741 4.10441,0.52212c1.0539,2.83296 1.69688,4.64103 1.92893,5.42422h0.08703c0.25139,-0.54146 1.21344,-2.03046 2.88614,-4.467h0.08703c2.62025,0.16437 3.93037,0.34324 3.93037,0.53662l2.36403,16.17108c0,0.09667 -2.06913,0.32872 -6.20738,0.69616l-0.08703,-0.17401c-0.23205,-4.91177 -0.34808,-7.91393 -0.34808,-9.00651h-0.08703l-3.5823,3.14719h-0.08703c-0.11602,-0.058 -0.93303,-1.33912 -2.45104,-3.84335h-0.08703c-1.86608,5.43388 -2.88614,8.32002 -3.06018,8.65843h-0.17403c-3.33574,-1.50833 -5.23083,-2.41237 -5.68526,-2.7121v-0.087c4.13825,-9.72683 6.2944,-14.68211 6.46844,-14.86581z" data-paper-data="{&quot;origPos&quot;:null}" id="path150" stroke="#004377" stroke-width="3.5"/><path d="M163.85084,171.94348l0.10153,0.18851l-1.95794,10.38429h0.10153l4.98911,-1.46481v-5.87382c0.01933,-0.13534 0.08218,-0.20301 0.18853,-0.20301c3.7515,0.26107 5.83996,0.39161 6.26539,0.39161c0,0.06767 0.03384,0.1015 0.10153,0.1015c0,1.65338 -0.52212,5.08098 -1.56635,10.28281c0,0.29972 -1.49867,0.52694 -4.496,0.68164c-0.1547,-0.1837 -0.28523,-0.57529 -0.39159,-1.17475c-3.83852,0.78317 -6.02851,1.17475 -6.56996,1.17475c-3.06501,-2.28185 -4.59752,-3.4566 -4.59752,-3.52427c0.52212,-6.85519 0.85085,-10.41332 0.98622,-10.67439h0.08703c2.44621,-0.06767 4.69904,-0.16435 6.7585,-0.29006z" data-paper-data="{&quot;origPos&quot;:null}" id="path152" stroke="#004377" stroke-width="3.5"/><path d="M186.80945,171.94348c2.78462,1.77907 4.32196,2.80396 4.61203,3.07469c-1.00556,2.2335 -1.58085,3.35024 -1.72588,3.35024l-5.27917,-3.06019h-0.18855c0,0.09667 -0.22722,0.63812 -0.68165,1.62436c4.86341,2.62025 7.29512,3.96422 7.29512,4.03191c-1.3633,3.15203 -2.13197,4.81506 -2.30601,4.9891l-8.25233,0.47861c-3.21005,-2.12714 -4.93593,-3.24872 -5.17765,-3.36474v-0.087c0,-0.24172 0.47861,-1.32946 1.43582,-3.26322l6.43943,3.35024l0.4786,-1.91444c-3.98355,-1.78872 -6.35241,-2.90547 -7.10658,-3.35024v-0.20301c0,-0.36742 0.76867,-1.99662 2.30601,-4.8876z" data-paper-data="{&quot;origPos&quot;:null}" id="path154" stroke="#004377" stroke-width="3.5"/><path d="M199.35473,167.5635c0.05802,0.08702 0.32874,2.73628 0.81218,7.94777c3.73216,-1.14092 5.7191,-1.71138 5.96082,-1.71138l3.69832,2.52355c-0.59947,5.51123 -0.99105,8.73094 -1.17476,9.65915l-5.13414,0.17401c0,-0.058 -0.03384,-0.087 -0.10153,-0.087l0.10153,-0.36258c0,-0.78317 0.11603,-3.16169 0.34808,-7.13557c-1.41165,-0.058 -2.46072,-0.087 -3.1472,-0.087h-0.36258c0.41576,4.41864 0.62364,6.82617 0.62364,7.2226l-4.87308,0.72516c-0.18371,-0.6188 -1.26662,-6.39591 -3.24872,-17.33135c0,-0.3094 0.75417,-0.55112 2.2625,-0.72516c1.90476,-0.54145 3.3164,-0.81218 4.23494,-0.81218z" data-paper-data="{&quot;origPos&quot;:null}" id="path156" stroke="#004377" stroke-width="3.5"/><path d="M221.60267,171.94348c1.91443,1.07324 3.08919,1.76939 3.52428,2.08847c-1.56635,3.25838 -2.40754,4.91658 -2.52356,4.9746h-0.10153l-2.07396,-1.81291l-2.45104,2.98768l0.27556,5.43871c-0.1257,0.116 -1.72589,0.38673 -4.80057,0.81217c-0.11602,-0.83152 -0.87019,-4.90692 -2.2625,-12.22622c0,-0.116 2.02078,-0.41574 6.06235,-0.89919c0.06768,0.07734 0.25139,0.98137 0.55112,2.7121c2.4172,-2.71694 3.68382,-4.07541 3.79984,-4.07541z" data-paper-data="{&quot;origPos&quot;:null}" id="path158" stroke="#004377" stroke-width="3.5"/><path d="M232.11751,171.95798c3.67415,0.98622 5.62242,1.58569 5.8448,1.79841c2.02078,2.86196 3.15687,4.51049 3.40826,4.9456c-1.30529,4.13825 -2.05462,6.20738 -2.248,6.20738c-4.35097,1.01522 -6.62797,1.52283 -6.83102,1.52283c-3.5968,-2.09813 -5.51122,-3.26805 -5.74328,-3.50977c-0.1257,-3.90621 -0.18855,-6.06236 -0.18855,-6.46845c-0.05802,-0.116 -0.08703,-0.20302 -0.08703,-0.26106c3.71283,-2.82329 5.63208,-4.23494 5.75778,-4.23494zM231.84195,177.26616c-0.05802,0.38676 -0.14504,1.79357 -0.26106,4.22044l3.23422,0.72516c0.77351,-2.4172 1.16026,-3.70798 1.16026,-3.87235c-2.57191,-0.77351 -3.94971,-1.16027 -4.13342,-1.16027z" data-paper-data="{&quot;origPos&quot;:null}" id="path160" stroke="#004377" stroke-width="3.5"/><path d="M248.53516,171.95798c3.67415,0.98622 5.62242,1.58569 5.8448,1.79841c2.02078,2.86196 3.15687,4.51049 3.40826,4.9456c-1.30529,4.13825 -2.05462,6.20738 -2.248,6.20738c-4.35097,1.01522 -6.62797,1.52283 -6.83102,1.52283c-3.5968,-2.09813 -5.51122,-3.26805 -5.74328,-3.50977c-0.1257,-3.90621 -0.18855,-6.06236 -0.18855,-6.46845c-0.05802,-0.116 -0.08703,-0.20302 -0.08703,-0.26106c3.71283,-2.82329 5.63209,-4.23494 5.75778,-4.23494zM248.2596,177.26616c-0.05802,0.38676 -0.14504,1.79357 -0.26106,4.22044l3.23422,0.72516c0.7735,-2.4172 1.16026,-3.70798 1.16026,-3.87235c-2.5719,-0.77351 -3.94971,-1.16027 -4.13342,-1.16027z" data-paper-data="{&quot;origPos&quot;:null}" id="path162" stroke="#004377" stroke-width="3.5"/><path d="M275.22109,171.94348c2.35919,0.97655 4.39447,1.89509 6.10586,2.75561c-0.44476,5.75295 -0.72999,8.90015 -0.85569,9.44161c-2.84263,0.70581 -4.43315,1.05872 -4.77156,1.05872c0,-1.25694 -0.09669,-3.73699 -0.29007,-7.44015c-1.07324,0.10634 -1.60986,0.19819 -1.60986,0.27556c0,0.36742 0.06285,2.46556 0.18855,6.2944c0.05802,0 0.08703,0.03383 0.08703,0.1015c0,0.116 -1.49383,0.43508 -4.4815,0.95722c-0.12569,-0.15467 -0.5076,-2.50903 -1.14575,-7.06307c-1.2086,0.30939 -1.8129,0.53177 -1.8129,0.66714l0.58013,5.91732c-0.11602,0.12567 -1.70654,0.63328 -4.77156,1.52283c-1.77906,-6.29439 -2.89098,-10.51966 -3.33574,-12.67581c3.35508,-0.83152 5.23083,-1.24728 5.62725,-1.24728c0.44477,1.75972 0.66715,2.77494 0.66715,3.04566h0.10153c1.63403,-1.50833 2.77495,-2.52355 3.42276,-3.04566h0.10153l3.04568,2.18997h0.10153c1.90476,-1.83707 2.91998,-2.75561 3.04568,-2.75561z" data-paper-data="{&quot;origPos&quot;:null}" id="path164" stroke="#004377" stroke-width="3.5"/><path d="M300.0216,167.5635c4.32195,1.68237 6.48293,2.57674 6.48293,2.68309c-1.38263,2.82331 -2.07394,4.29297 -2.07394,4.40899h-0.087c-0.6188,-0.17404 -1.97727,-0.77834 -4.07541,-1.81291l-3.45177,2.42205c0,2.99733 0.1692,4.49599 0.50761,4.49599c0.22239,0.116 1.66788,0.69613 4.33646,1.74039c1.0249,-1.01522 2.06431,-1.99661 3.11821,-2.94416c0.19337,0.17405 1.05873,1.5567 2.59608,4.14793v0.26106c-0.09667,0 -2.23348,1.15542 -6.41043,3.46627c-5.33719,-1.78874 -8.0783,-2.74111 -8.22334,-2.85713l-2.59608,-8.5714c2.43655,-3.46144 3.67899,-5.19215 3.72733,-5.19215c0.10634,0 2.15613,-0.74934 6.14937,-2.24801z" data-paper-data="{&quot;origPos&quot;:null}" id="path166" stroke="#004377" stroke-width="3.5"/><path d="M316.88884,171.94348l0.1015,0.18851l-1.95794,10.38429h0.1015l4.9891,-1.46481v-5.87382c0.01933,-0.13534 0.08217,-0.20301 0.18851,-0.20301c3.75149,0.26107 5.83996,0.39161 6.2654,0.39161c0,0.06767 0.03383,0.1015 0.1015,0.1015c0,1.65338 -0.52211,5.08098 -1.56633,10.28281c0,0.29972 -1.49867,0.52694 -4.49601,0.68164c-0.15467,-0.1837 -0.2852,-0.57529 -0.39158,-1.17475c-3.83851,0.78317 -6.0285,1.17475 -6.56996,1.17475c-3.06501,-2.28185 -4.59752,-3.4566 -4.59752,-3.52427c0.52211,-6.85519 0.85085,-10.41332 0.98622,-10.67439h0.087c2.4462,-0.06767 4.69903,-0.16435 6.75849,-0.29006z" data-paper-data="{&quot;origPos&quot;:null}" id="path168" stroke="#004377" stroke-width="3.5"/><path d="M335.42396,171.95798c0.29974,1.23761 0.50762,2.00145 0.62364,2.29152c4.27362,-0.97655 6.53129,-1.46483 6.77301,-1.46483c2.91031,4.1866 4.36546,6.37175 4.36546,6.55546l-3.33574,7.07757l-7.1791,-1.14575v0.21751c0.56079,4.30264 0.84119,6.58932 0.84119,6.86004c-0.06767,0 -0.1015,0.03383 -0.1015,0.1015c-0.69615,-0.06767 -1.21826,-0.1015 -1.56633,-0.1015h-1.2473c-0.72515,0 -1.83706,-0.03383 -3.33572,-0.1015c-0.13534,-0.40609 -1.17474,-6.57963 -3.11821,-18.52062c0.32874,-0.13534 2.75561,-0.72513 7.28062,-1.76939zM335.94607,177.8898c0.19339,2.22383 0.36743,3.33574 0.52213,3.33574c1.98211,0.68648 3.19554,1.02972 3.6403,1.02972l1.14575,-4.9891h-0.1015c-1.13124,0.06767 -2.86679,0.27555 -5.20666,0.62364z" data-paper-data="{&quot;origPos&quot;:null}" id="path170" stroke="#004377" stroke-width="3.5"/><path d="M139.28238,167.549c2.73628,0.19338 4.10441,0.36741 4.10441,0.52212c1.0539,2.83296 1.69688,4.64103 1.92893,5.42422h0.08703c0.25139,-0.54146 1.21344,-2.03046 2.88614,-4.467h0.08703c2.62025,0.16437 3.93037,0.34324 3.93037,0.53662l2.36403,16.17108c0,0.09667 -2.06913,0.32872 -6.20738,0.69616l-0.08703,-0.17401c-0.23205,-4.91177 -0.34808,-7.91393 -0.34808,-9.00651h-0.08703l-3.5823,3.14719h-0.08703c-0.11602,-0.058 -0.93303,-1.33912 -2.45104,-3.84335h-0.08703c-1.86608,5.43388 -2.88614,8.32002 -3.06018,8.65843h-0.17403c-3.33574,-1.50833 -5.23083,-2.41237 -5.68526,-2.7121v-0.087c4.13825,-9.72683 6.2944,-14.68211 6.46844,-14.86581z" data-paper-data="{&quot;origPos&quot;:null}" id="path150" stroke="none" stroke-width="0.26458"/><path d="M163.85084,171.94348l0.10153,0.18851l-1.95794,10.38429h0.10153l4.98911,-1.46481v-5.87382c0.01933,-0.13534 0.08218,-0.20301 0.18853,-0.20301c3.7515,0.26107 5.83996,0.39161 6.26539,0.39161c0,0.06767 0.03384,0.1015 0.10153,0.1015c0,1.65338 -0.52212,5.08098 -1.56635,10.28281c0,0.29972 -1.49867,0.52694 -4.496,0.68164c-0.1547,-0.1837 -0.28523,-0.57529 -0.39159,-1.17475c-3.83852,0.78317 -6.02851,1.17475 -6.56996,1.17475c-3.06501,-2.28185 -4.59752,-3.4566 -4.59752,-3.52427c0.52212,-6.85519 0.85085,-10.41332 0.98622,-10.67439h0.08703c2.44621,-0.06767 4.69904,-0.16435 6.7585,-0.29006z" data-paper-data="{&quot;origPos&quot;:null}" id="path152" stroke="none" stroke-width="0.26458"/><path d="M186.80945,171.94348c2.78462,1.77907 4.32196,2.80396 4.61203,3.07469c-1.00556,2.2335 -1.58085,3.35024 -1.72588,3.35024l-5.27917,-3.06019h-0.18855c0,0.09667 -0.22722,0.63812 -0.68165,1.62436c4.86341,2.62025 7.29512,3.96422 7.29512,4.03191c-1.3633,3.15203 -2.13197,4.81506 -2.30601,4.9891l-8.25233,0.47861c-3.21005,-2.12714 -4.93593,-3.24872 -5.17765,-3.36474v-0.087c0,-0.24172 0.47861,-1.32946 1.43582,-3.26322l6.43943,3.35024l0.4786,-1.91444c-3.98355,-1.78872 -6.35241,-2.90547 -7.10658,-3.35024v-0.20301c0,-0.36742 0.76867,-1.99662 2.30601,-4.8876z" data-paper-data="{&quot;origPos&quot;:null}" id="path154" stroke="none" stroke-width="0.26458"/><path d="M199.35473,167.5635c0.05802,0.08702 0.32874,2.73628 0.81218,7.94777c3.73216,-1.14092 5.7191,-1.71138 5.96082,-1.71138l3.69832,2.52355c-0.59947,5.51123 -0.99105,8.73094 -1.17476,9.65915l-5.13414,0.17401c0,-0.058 -0.03384,-0.087 -0.10153,-0.087l0.10153,-0.36258c0,-0.78317 0.11603,-3.16169 0.34808,-7.13557c-1.41165,-0.058 -2.46072,-0.087 -3.1472,-0.087h-0.36258c0.41576,4.41864 0.62364,6.82617 0.62364,7.2226l-4.87308,0.72516c-0.18371,-0.6188 -1.26662,-6.39591 -3.24872,-17.33135c0,-0.3094 0.75417,-0.55112 2.2625,-0.72516c1.90476,-0.54145 3.3164,-0.81218 4.23494,-0.81218z" data-paper-data="{&quot;origPos&quot;:null}" id="path156" stroke="none" stroke-width="0.26458"/><path d="M221.60267,171.94348c1.91443,1.07324 3.08919,1.76939 3.52428,2.08847c-1.56635,3.25838 -2.40754,4.91658 -2.52356,4.9746h-0.10153l-2.07396,-1.81291l-2.45104,2.98768l0.27556,5.43871c-0.1257,0.116 -1.72589,0.38673 -4.80057,0.81217c-0.11602,-0.83152 -0.87019,-4.90692 -2.2625,-12.22622c0,-0.116 2.02078,-0.41574 6.06235,-0.89919c0.06768,0.07734 0.25139,0.98137 0.55112,2.7121c2.4172,-2.71694 3.68382,-4.07541 3.79984,-4.07541z" data-paper-data="{&quot;origPos&quot;:null}" id="path158" stroke="none" stroke-width="0.26458"/><path d="M232.11751,171.95798c3.67415,0.98622 5.62242,1.58569 5.8448,1.79841c2.02078,2.86196 3.15687,4.51049 3.40826,4.9456c-1.30529,4.13825 -2.05462,6.20738 -2.248,6.20738c-4.35097,1.01522 -6.62797,1.52283 -6.83102,1.52283c-3.5968,-2.09813 -5.51122,-3.26805 -5.74328,-3.50977c-0.1257,-3.90621 -0.18855,-6.06236 -0.18855,-6.46845c-0.05802,-0.116 -0.08703,-0.20302 -0.08703,-0.26106c3.71283,-2.82329 5.63208,-4.23494 5.75778,-4.23494zM231.84195,177.26616c-0.05802,0.38676 -0.14504,1.79357 -0.26106,4.22044l3.23422,0.72516c0.77351,-2.4172 1.16026,-3.70798 1.16026,-3.87235c-2.57191,-0.77351 -3.94971,-1.16027 -4.13342,-1.16027z" data-paper-data="{&quot;origPos&quot;:null}" id="path160" stroke="none" stroke-width="0.26458"/><path d="M248.53516,171.95798c3.67415,0.98622 5.62242,1.58569 5.8448,1.79841c2.02078,2.86196 3.15687,4.51049 3.40826,4.9456c-1.30529,4.13825 -2.05462,6.20738 -2.248,6.20738c-4.35097,1.01522 -6.62797,1.52283 -6.83102,1.52283c-3.5968,-2.09813 -5.51122,-3.26805 -5.74328,-3.50977c-0.1257,-3.90621 -0.18855,-6.06236 -0.18855,-6.46845c-0.05802,-0.116 -0.08703,-0.20302 -0.08703,-0.26106c3.71283,-2.82329 5.63209,-4.23494 5.75778,-4.23494zM248.2596,177.26616c-0.05802,0.38676 -0.14504,1.79357 -0.26106,4.22044l3.23422,0.72516c0.7735,-2.4172 1.16026,-3.70798 1.16026,-3.87235c-2.5719,-0.77351 -3.94971,-1.16027 -4.13342,-1.16027z" data-paper-data="{&quot;origPos&quot;:null}" id="path162" stroke="none" stroke-width="0.26458"/><path d="M275.22109,171.94348c2.35919,0.97655 4.39447,1.89509 6.10586,2.75561c-0.44476,5.75295 -0.72999,8.90015 -0.85569,9.44161c-2.84263,0.70581 -4.43315,1.05872 -4.77156,1.05872c0,-1.25694 -0.09669,-3.73699 -0.29007,-7.44015c-1.07324,0.10634 -1.60986,0.19819 -1.60986,0.27556c0,0.36742 0.06285,2.46556 0.18855,6.2944c0.05802,0 0.08703,0.03383 0.08703,0.1015c0,0.116 -1.49383,0.43508 -4.4815,0.95722c-0.12569,-0.15467 -0.5076,-2.50903 -1.14575,-7.06307c-1.2086,0.30939 -1.8129,0.53177 -1.8129,0.66714l0.58013,5.91732c-0.11602,0.12567 -1.70654,0.63328 -4.77156,1.52283c-1.77906,-6.29439 -2.89098,-10.51966 -3.33574,-12.67581c3.35508,-0.83152 5.23083,-1.24728 5.62725,-1.24728c0.44477,1.75972 0.66715,2.77494 0.66715,3.04566h0.10153c1.63403,-1.50833 2.77495,-2.52355 3.42276,-3.04566h0.10153l3.04568,2.18997h0.10153c1.90476,-1.83707 2.91998,-2.75561 3.04568,-2.75561z" data-paper-data="{&quot;origPos&quot;:null}" id="path164" stroke="none" stroke-width="0.26458"/><path d="M300.0216,167.5635c4.32195,1.68237 6.48293,2.57674 6.48293,2.68309c-1.38263,2.82331 -2.07394,4.29297 -2.07394,4.40899h-0.087c-0.6188,-0.17404 -1.97727,-0.77834 -4.07541,-1.81291l-3.45177,2.42205c0,2.99733 0.1692,4.49599 0.50761,4.49599c0.22239,0.116 1.66788,0.69613 4.33646,1.74039c1.0249,-1.01522 2.06431,-1.99661 3.11821,-2.94416c0.19337,0.17405 1.05873,1.5567 2.59608,4.14793v0.26106c-0.09667,0 -2.23348,1.15542 -6.41043,3.46627c-5.33719,-1.78874 -8.0783,-2.74111 -8.22334,-2.85713l-2.59608,-8.5714c2.43655,-3.46144 3.67899,-5.19215 3.72733,-5.19215c0.10634,0 2.15613,-0.74934 6.14937,-2.24801z" data-paper-data="{&quot;origPos&quot;:null}" id="path166" stroke="none" stroke-width="0.26458"/><path d="M316.88884,171.94348l0.1015,0.18851l-1.95794,10.38429h0.1015l4.9891,-1.46481v-5.87382c0.01933,-0.13534 0.08217,-0.20301 0.18851,-0.20301c3.75149,0.26107 5.83996,0.39161 6.2654,0.39161c0,0.06767 0.03383,0.1015 0.1015,0.1015c0,1.65338 -0.52211,5.08098 -1.56633,10.28281c0,0.29972 -1.49867,0.52694 -4.49601,0.68164c-0.15467,-0.1837 -0.2852,-0.57529 -0.39158,-1.17475c-3.83851,0.78317 -6.0285,1.17475 -6.56996,1.17475c-3.06501,-2.28185 -4.59752,-3.4566 -4.59752,-3.52427c0.52211,-6.85519 0.85085,-10.41332 0.98622,-10.67439h0.087c2.4462,-0.06767 4.69903,-0.16435 6.75849,-0.29006z" data-paper-data="{&quot;origPos&quot;:null}" id="path168" stroke="none" stroke-width="0.26458"/><path d="M335.42396,171.95798c0.29974,1.23761 0.50762,2.00145 0.62364,2.29152c4.27362,-0.97655 6.53129,-1.46483 6.77301,-1.46483c2.91031,4.1866 4.36546,6.37175 4.36546,6.55546l-3.33574,7.07757l-7.1791,-1.14575v0.21751c0.56079,4.30264 0.84119,6.58932 0.84119,6.86004c-0.06767,0 -0.1015,0.03383 -0.1015,0.1015c-0.69615,-0.06767 -1.21826,-0.1015 -1.56633,-0.1015h-1.2473c-0.72515,0 -1.83706,-0.03383 -3.33572,-0.1015c-0.13534,-0.40609 -1.17474,-6.57963 -3.11821,-18.52062c0.32874,-0.13534 2.75561,-0.72513 7.28062,-1.76939zM335.94607,177.8898c0.19339,2.22383 0.36743,3.33574 0.52213,3.33574c1.98211,0.68648 3.19554,1.02972 3.6403,1.02972l1.14575,-4.9891h-0.1015c-1.13124,0.06767 -2.86679,0.27555 -5.20666,0.62364z" data-paper-data="{&quot;origPos&quot;:null}" id="path170" stroke="none" stroke-width="0.26458"/></g></g></g></svg>