<svg version="1.1" xmlns="http://www.w3.org/2000/svg" xmlns:xlink="http://www.w3.org/1999/xlink" width="96.38881" height="62.67442" viewBox="0,0,96.38881,62.67442"><defs><linearGradient x1="239.84657" y1="193.07498" x2="239.84657" y2="206.19282" gradientUnits="userSpaceOnUse" id="color-1"><stop offset="0" stop-color="#ffffff"/><stop offset="1" stop-color="#d6d6d6"/></linearGradient><radialGradient cx="282.4837" cy="153.54392" r="10.02553" gradientUnits="userSpaceOnUse" id="color-2"><stop offset="0" stop-color="#7b98ff"/><stop offset="1" stop-color="#7b98ff" stop-opacity="0"/></radialGradient></defs><g transform="translate(-196.12042,-143.5184)"><g data-paper-data="{&quot;isPaintingLayer&quot;:true}" fill-rule="nonzero" stroke-linecap="butt" stroke-linejoin="miter" stroke-miterlimit="10" stroke-dasharray="" stroke-dashoffset="0" style="mix-blend-mode: normal"><path d="M196.27385,153.80718h87.4523v52.2999h-87.4523z" fill="#587377" stroke="none" stroke-width="0.85738"/><path d="M209.47443,177.07698v-14h57.66667v14z" fill="#12555e" stroke="#fff47d" stroke-width="0"/><path d="M201.47443,200.91031v-21.16667h71.5v21.16667z" fill="#496063" stroke="#fff47d" stroke-width="0"/><path d="M260.97443,159.57697l3.66667,-4.33333l7.5,0.83333l1.66667,6.33333z" fill="#1f93a2" stroke="none" stroke-width="0"/><path d="M263.80776,194.24364l-17.91158,-11.29826c0,0 -1.25554,-0.82904 -2.16583,-1.14632c-0.91029,-0.31728 -2.50623,-0.48212 -2.50623,-0.48212l-18.55567,1.99304l-0.92621,-8.92451l18.9001,-1.96323c0,0 7.01999,-0.48838 10.65065,-0.48096c3.56294,0.00728 9.01476,2.46902 9.01476,2.46902l23.5,14.5v5.33333z" fill="#656f71" stroke="none" stroke-width="0"/><path d="M260.97443,174.91031v-15.16667l22.66667,4.5v25.16667z" fill="#12555e" stroke="#fff47d" stroke-width="0"/><path d="M196.47443,195.91031v-36h12.33333v36z" fill="#12555e" stroke="#fff47d" stroke-width="0"/><path d="M196.12042,206.19282v-13.11784h87.4523v13.11784z" fill="url(#color-1)" stroke="none" stroke-width="0"/><text transform="translate(206.21472,202.59057) scale(0.39251,0.39251)" font-size="22" xml:space="preserve" fill="#112739" fill-rule="nonzero" stroke="none" stroke-width="1" stroke-linecap="butt" stroke-linejoin="miter" stroke-miterlimit="10" stroke-dasharray="" stroke-dashoffset="0" font-family="Sans Serif" font-weight="400" text-anchor="start" style="mix-blend-mode: normal"><tspan x="0" dy="0">Neo Bowser City</tspan></text><path d="M196.34406,193.33251v-6.83221h16.12402l4.09933,6.83221z" fill="#ffffff" stroke="none" stroke-width="0"/><text transform="translate(199.35024,193.10819) scale(0.16414,0.16414)" font-size="40" xml:space="preserve" fill="#112739" fill-rule="nonzero" stroke="none" stroke-width="1" stroke-linecap="butt" stroke-linejoin="miter" stroke-miterlimit="10" stroke-dasharray="" stroke-dashoffset="0" font-family="Sans Serif" font-weight="normal" text-anchor="start" style="mix-blend-mode: normal"><tspan x="0" dy="0">3DS</tspan></text><path d="M200.97443,185.07697v-29.5l23.66667,2.16667v26z" fill="#f9f9f9" stroke="#fff47d" stroke-width="1"/><g stroke="none"><path d="M215.66925,168.71711c0.00774,1.1726 -1.2275,2.13004 -2.75898,2.13849c-1.53148,0.00845 -2.7793,-0.93529 -2.78702,-2.1079c-0.00774,-1.1726 1.2275,-2.13004 2.75898,-2.13849c1.53148,-0.00845 2.7793,0.93532 2.78702,2.10792z" fill="#fa6d6d" stroke-width="0"/><path d="M213.3079,170.30545c-0.0024,-0.36487 0.3193,-0.66245 0.71858,-0.66466c0.22954,-0.00125 0.43475,0.09538 0.56816,0.24708c0.36826,-0.53703 0.62795,-1.06677 0.96137,-1.58805c-0.05148,0.00286 -0.10412,0.0045 -0.15799,0.00478c-0.08579,0.00047 -0.17209,-0.01206 -0.25876,-0.03389c0.0333,0.07524 0.05185,0.15739 0.05241,0.2435c0.0024,0.36487 -0.3193,0.66245 -0.71856,0.66466c-0.39928,0.00218 -0.7249,-0.29181 -0.72729,-0.65668c-0.00201,-0.30473 0.22205,-0.56252 0.52857,-0.64049c-0.24208,-0.12015 -0.48282,-0.21873 -0.71876,-0.21743c-0.45253,0.0025 -0.80179,0.11633 -1.1309,0.25831c0.13339,0.11903 0.21668,0.28487 0.2179,0.46872c0.0024,0.36487 -0.3193,0.66245 -0.71858,0.66464c-0.39591,0.00218 -0.71943,-0.2869 -0.72715,-0.64751c-0.03584,0.00821 -0.07232,0.01585 -0.1095,0.02287c-0.10351,0.002 -0.20387,0.00127 -0.3011,-0.00205c0.16687,0.44783 0.34262,0.9776 0.52639,1.40498c0.12589,-0.18993 0.35361,-0.31739 0.61442,-0.31884c0.39928,-0.00218 0.7249,0.29181 0.72729,0.65668c0.00098,0.14897 -0.05205,0.28672 -0.14235,0.39772c0.24582,-0.01357 0.54935,-0.02921 0.83637,-0.04974c-0.02578,-0.06721 -0.04,-0.13941 -0.04051,-0.2146zM216.29998,168.34621l0.84551,0.14274c-0.62249,0.76813 -1.01197,1.75506 -1.70658,2.61212c-1.14291,1.06217 -3.84957,1.30635 -5.01997,0.10817c-0.64881,-0.66419 -0.64325,-1.7345 -1.05468,-2.58223l-0.40091,-0.07098l0.12437,-0.58672c-0.0001,-0.00512 -0.0001,-0.01027 -0.00006,-0.01544c-0.98195,-0.67155 -1.023,-1.93629 -0.43707,-3.05044c-0.79586,-0.68051 -0.88665,-1.56242 -0.70269,-2.57462l0.07269,-0.34286c0,0 -0.1561,-0.37121 0.54866,-0.51842c0.70476,-0.14721 0.87082,0.76974 0.87082,0.76974l-0.07269,0.34286c-0.19346,0.69325 -0.1948,0.95697 0.116,1.24015c0.37102,-0.34501 0.81518,-0.63189 1.31577,-0.82107c-0.22083,-0.45201 -0.34215,-0.96929 -0.38565,-1.19922l-0.36137,-0.04769c0,0 -0.36803,-0.56866 0.25423,-0.90499c0.39142,-0.21156 0.68221,-0.06505 0.84413,0.07277c0.1751,-0.21543 0.46701,-0.40801 0.94079,-0.58357c0.68022,-0.25207 1.42665,0.6531 1.78467,1.07634c0.00124,0.00146 0.00252,0.00294 0.00384,0.00439c0.05914,-0.11669 0.12624,-0.23573 0.16839,-0.33376l0.14148,-0.32895c0.10085,-0.25148 0.36432,-0.43161 0.67464,-0.43333c0.39928,-0.00218 0.7249,0.29181 0.72731,0.65668l0.00451,0.68491l-0.18908,0.00104c0.26857,0.46722 0.15911,0.94797 -0.16732,1.28815c0.35583,0.10622 0.69932,0.23445 1.00665,0.38709c0.00272,-0.00049 0.00544,-0.00096 0.00817,-0.00143l0.56802,-0.10708c0.19988,-0.05648 0.37779,-0.14806 0.47309,-0.3249c0.05209,-0.09666 -0.18613,0.24196 -0.28795,0.18767c-0.07114,-0.03794 -0.00614,-0.9282 -0.00677,-1.02735l-0.24972,-0.66113c0,0 0.27121,-0.6124 0.94136,-0.36456c0.67015,0.24784 0.39893,0.86026 0.39893,0.86026l0.35528,0.15745c0.00762,1.15158 -0.14739,1.89894 -1.04818,2.3162c0.03291,0.07428 0.05865,0.15121 0.07663,0.23079c0.19617,1.00435 0.18032,2.29858 -0.4906,3.05987c0.02769,0.64712 -0.68467,0.68132 -0.68467,0.68132z" fill="#ff0000" stroke-width="0.5"/><path d="M212.05675,166.45252c-0.70775,0.0039 -0.72679,-0.62921 -0.72727,-0.6558l0.0088,0.6125c-1.30858,-0.47 -1.46572,-1.10462 -1.08013,-1.67387l-0.12098,-0.02142l0.14282,-0.67371c0.05865,-0.30912 0.35257,-0.54506 0.70793,-0.54701c0.23954,-0.00133 0.45255,0.10393 0.58519,0.26717l0.38482,0.46306c0.15153,0.13603 0.34792,0.23596 0.52022,0.35258c0,0 0.58096,0.3932 0.15068,0.92412c-0.03616,0.04462 -0.07338,0.0827 -0.11123,0.11503l0.25772,0.17268c0,0 0.00437,0.66066 -0.71858,0.66464z" data-paper-data="{&quot;origPos&quot;:null}" fill="#fa6d6d" stroke-width="0.5"/><path d="M214.01465,165.80208l0.25543,-0.17551c-0.03827,-0.03192 -0.076,-0.0696 -0.11275,-0.11381c-0.43725,-0.52614 0.13847,-0.9257 0.13847,-0.9257c0.17075,-0.11849 0.3658,-0.2206 0.51552,-0.35829l0.37868,-0.46724c0.13047,-0.1647 0.34209,-0.27232 0.58161,-0.27365c0.35536,-0.00195 0.65239,0.23074 0.7151,0.53918l0.1517,0.67209l-0.12069,0.02274c0.3931,0.56496 0.24433,1.20127 -1.05795,1.68564l0.00073,-0.61255c-0.00014,0.02659 -0.01083,0.65988 -0.71858,0.66378c-0.72293,0.00398 -0.72729,-0.65668 -0.72729,-0.65668z" data-paper-data="{&quot;origPos&quot;:null,&quot;index&quot;:null}" fill="#fa6d6d" stroke-width="0.5"/></g><text transform="translate(206.24854,174.94099) rotate(-1.28214) scale(0.07949,0.06406) skewX(0.23854)" font-size="40" xml:space="preserve" fill="#ff0000" fill-rule="nonzero" stroke="#ff0000" stroke-width="3" stroke-linecap="butt" stroke-linejoin="miter" stroke-miterlimit="10" stroke-dasharray="" stroke-dashoffset="0" font-family="Marker" font-weight="normal" text-anchor="start" style="mix-blend-mode: normal"><tspan x="0" dy="0">   NEO</tspan><tspan x="0" dy="46.150000000000006px">BOWSER</tspan><tspan x="0" dy="46.150000000000006px">  CITY</tspan></text><path d="M196.97443,164.74364c0,-0.27614 0.22386,-0.5 0.5,-0.5c0.27614,0 0.5,0.22386 0.5,0.5c0,0.27614 -0.22386,0.5 -0.5,0.5c-0.27614,0 -0.5,-0.22386 -0.5,-0.5z" fill="#53ebff" stroke="none" stroke-width="0.5"/><path d="M198.97443,164.57697c0,-0.27614 0.22386,-0.5 0.5,-0.5c0.27614,0 0.5,0.22386 0.5,0.5c0,0.27614 -0.22386,0.5 -0.5,0.5c-0.27614,0 -0.5,-0.22386 -0.5,-0.5z" fill="#53ebff" stroke="none" stroke-width="0.5"/><path d="M197.1411,170.07697c0,-0.27614 0.22386,-0.5 0.5,-0.5c0.27614,0 0.5,0.22386 0.5,0.5c0,0.27614 -0.22386,0.5 -0.5,0.5c-0.27614,0 -0.5,-0.22386 -0.5,-0.5z" fill="#53ebff" stroke="none" stroke-width="0.5"/><path d="M198.97443,169.91031c0,-0.27614 0.22386,-0.5 0.5,-0.5c0.27614,0 0.5,0.22386 0.5,0.5c0,0.27614 -0.22386,0.5 -0.5,0.5c-0.27614,0 -0.5,-0.22386 -0.5,-0.5z" fill="#53ebff" stroke="none" stroke-width="0.5"/><path d="M196.97443,175.07697c0,-0.27614 0.22386,-0.5 0.5,-0.5c0.27614,0 0.5,0.22386 0.5,0.5c0,0.27614 -0.22386,0.5 -0.5,0.5c-0.27614,0 -0.5,-0.22386 -0.5,-0.5z" fill="#53ebff" stroke="none" stroke-width="0.5"/><path d="M198.80776,175.24364c0,-0.27614 0.22386,-0.5 0.5,-0.5c0.27614,0 0.5,0.22386 0.5,0.5c0,0.27614 -0.22386,0.5 -0.5,0.5c-0.27614,0 -0.5,-0.22386 -0.5,-0.5z" fill="#53ebff" stroke="none" stroke-width="0.5"/><path d="M197.1411,180.91031c0,-0.27614 0.22386,-0.5 0.5,-0.5c0.27614,0 0.5,0.22386 0.5,0.5c0,0.27614 -0.22386,0.5 -0.5,0.5c-0.27614,0 -0.5,-0.22386 -0.5,-0.5z" fill="#53ebff" stroke="none" stroke-width="0.5"/><path d="M198.97443,180.74364c0,-0.27614 0.22386,-0.5 0.5,-0.5c0.27614,0 0.5,0.22386 0.5,0.5c0,0.27614 -0.22386,0.5 -0.5,0.5c-0.27614,0 -0.5,-0.22386 -0.5,-0.5z" fill="#53ebff" stroke="none" stroke-width="0.5"/><path d="M197.30776,185.57697c0,-0.27614 0.22386,-0.5 0.5,-0.5c0.27614,0 0.5,0.22386 0.5,0.5c0,0.27614 -0.22386,0.5 -0.5,0.5c-0.27614,0 -0.5,-0.22386 -0.5,-0.5z" fill="#53ebff" stroke="none" stroke-width="0.5"/><path d="M199.30776,185.41031c0,-0.27614 0.22386,-0.5 0.5,-0.5c0.27614,0 0.5,0.22386 0.5,0.5c0,0.27614 -0.22386,0.5 -0.5,0.5c-0.27614,0 -0.5,-0.22386 -0.5,-0.5z" fill="#53ebff" stroke="none" stroke-width="0.5"/><path d="M264.1411,163.41031c0,-0.27614 0.22386,-0.5 0.5,-0.5c0.27614,0 0.5,0.22386 0.5,0.5c0,0.27614 -0.22386,0.5 -0.5,0.5c-0.27614,0 -0.5,-0.22386 -0.5,-0.5z" fill="#fff47d" stroke="none" stroke-width="0.5"/><path d="M265.97443,163.57697c0,-0.27614 0.22386,-0.5 0.5,-0.5c0.27614,0 0.5,0.22386 0.5,0.5c0,0.27614 -0.22386,0.5 -0.5,0.5c-0.27614,0 -0.5,-0.22386 -0.5,-0.5z" fill="#fff47d" stroke="none" stroke-width="0.5"/><path d="M268.1411,164.24364c0,-0.27614 0.22386,-0.5 0.5,-0.5c0.27614,0 0.5,0.22386 0.5,0.5c0,0.27614 -0.22386,0.5 -0.5,0.5c-0.27614,0 -0.5,-0.22386 -0.5,-0.5z" fill="#fff47d" stroke="none" stroke-width="0.5"/><path d="M264.97443,165.41031c0,-0.27614 0.22386,-0.5 0.5,-0.5c0.27614,0 0.5,0.22386 0.5,0.5c0,0.27614 -0.22386,0.5 -0.5,0.5c-0.27614,0 -0.5,-0.22386 -0.5,-0.5z" fill="#fff47d" stroke="none" stroke-width="0.5"/><path d="M266.30776,165.41031c0,-0.27614 0.22386,-0.5 0.5,-0.5c0.27614,0 0.5,0.22386 0.5,0.5c0,0.27614 -0.22386,0.5 -0.5,0.5c-0.27614,0 -0.5,-0.22386 -0.5,-0.5z" fill="#fff47d" stroke="none" stroke-width="0.5"/><path d="M263.97443,167.24364c0,-0.27614 0.22386,-0.5 0.5,-0.5c0.27614,0 0.5,0.22386 0.5,0.5c0,0.27614 -0.22386,0.5 -0.5,0.5c-0.27614,0 -0.5,-0.22386 -0.5,-0.5z" fill="#fff47d" stroke="none" stroke-width="0.5"/><path d="M265.47443,167.41031c0,-0.27614 0.22386,-0.5 0.5,-0.5c0.27614,0 0.5,0.22386 0.5,0.5c0,0.27614 -0.22386,0.5 -0.5,0.5c-0.27614,0 -0.5,-0.22386 -0.5,-0.5z" fill="#fff47d" stroke="none" stroke-width="0.5"/><path d="M267.6411,167.74364c0,-0.27614 0.22386,-0.5 0.5,-0.5c0.27614,0 0.5,0.22386 0.5,0.5c0,0.27614 -0.22386,0.5 -0.5,0.5c-0.27614,0 -0.5,-0.22386 -0.5,-0.5z" fill="#fff47d" stroke="none" stroke-width="0.5"/><path d="M274.97443,173.24364c-0.5,0 -0.5,-0.5 -0.5,-0.5c0,-0.33333 0,-1.16667 0,-1.5c0,0 0,-0.5 0.5,-0.5c0.5,0 0.5,0.5 0.5,0.5c0,0.33333 0,0.66667 0,1v0.5c0,0 0,0.5 -0.5,0.5z" fill="#fff47d" stroke="none" stroke-width="0.5"/><path d="M277.47443,173.91031c-0.5,0 -0.5,-0.5 -0.5,-0.5l0.02566,-0.00855c-0.18973,-0.59004 -0.19233,-1.04439 -0.19233,-1.65811c0,0 0,-0.5 0.5,-0.5c0.5,0 0.5,0.5 0.5,0.5c0,0.507 -0.0266,0.86226 0.14101,1.34189l0.02566,0.32478c0,0 0,0.5 -0.5,0.5z" fill="#fff47d" stroke="none" stroke-width="0.5"/><path d="M279.80776,174.74364c-0.5,0 -0.5,-0.5 -0.5,-0.5v-0.33333c0,-0.78164 -0.01188,-1.09163 0.41731,-1.77735c0,0 0.27735,-0.41603 0.69338,-0.13868c0.41603,0.27735 0.13868,0.69338 0.13868,0.69338c-0.34541,0.46878 -0.24936,0.6444 -0.24936,1.22265v0.33333c0,0 0,0.5 -0.5,0.5z" fill="#fff47d" stroke="none" stroke-width="0.5"/><path d="M261.1411,169.24364c0,-0.27614 0.22386,-0.5 0.5,-0.5c0.27614,0 0.5,0.22386 0.5,0.5c0,0.27614 -0.22386,0.5 -0.5,0.5c-0.27614,0 -0.5,-0.22386 -0.5,-0.5z" fill="#fff47d" stroke="none" stroke-width="0.5"/><path d="M262.6411,169.74364c0,-0.27614 0.22386,-0.5 0.5,-0.5c0.27614,0 0.5,0.22386 0.5,0.5c0,0.27614 -0.22386,0.5 -0.5,0.5c-0.27614,0 -0.5,-0.22386 -0.5,-0.5z" fill="#fff47d" stroke="none" stroke-width="0.5"/><path d="M264.6411,170.74364c0,-0.27614 0.22386,-0.5 0.5,-0.5c0.27614,0 0.5,0.22386 0.5,0.5c0,0.27614 -0.22386,0.5 -0.5,0.5c-0.27614,0 -0.5,-0.22386 -0.5,-0.5z" fill="#fff47d" stroke="none" stroke-width="0.5"/><path d="M267.1411,171.74364c0,-0.27614 0.22386,-0.5 0.5,-0.5c0.27614,0 0.5,0.22386 0.5,0.5c0,0.27614 -0.22386,0.5 -0.5,0.5c-0.27614,0 -0.5,-0.22386 -0.5,-0.5z" fill="#fff47d" stroke="none" stroke-width="0.5"/><path d="M263.63254,175.38465c-0.47434,0.15811 -0.63246,-0.31623 -0.63246,-0.31623l-0.18587,-0.57802c0,-0.31123 -0.04479,-0.62817 -0.14746,-0.92198c0,0 -0.15811,-0.47434 0.31623,-0.63246c0.47434,-0.15811 0.63246,0.31623 0.63246,0.31623c0.11163,0.34714 0.18587,0.71338 0.18587,1.07802l0.14746,0.42198c0,0 0.15811,0.47434 -0.31623,0.63246z" fill="#fff47d" stroke="none" stroke-width="0.5"/><path d="M264.6411,176.41031c-0.5,0 -0.5,-0.5 -0.5,-0.5l0.02566,-0.17522c-0.27076,-0.84203 -0.248,-1.17977 0.22498,-1.93546c0,0 0.27735,-0.41603 0.69338,-0.13868c0.41603,0.27735 0.13868,0.69338 0.13868,0.69338c-0.35173,0.47736 -0.30109,0.513 -0.10835,1.06454l0.02566,0.49145c0,0 0,0.5 -0.5,0.5z" fill="#fff47d" stroke="none" stroke-width="0.5"/><path d="M266.79921,177.21798c-0.47434,0.15811 -0.63246,-0.31623 -0.63246,-0.31623l-0.16182,-0.48614c-0.1781,-0.44526 -0.35302,-0.89231 -0.50485,-1.3472c0,0 -0.15811,-0.47434 0.31623,-0.63246c0.47434,-0.15811 0.63246,0.31623 0.63246,0.31623c0.14837,0.44573 0.32068,0.8833 0.49515,1.31947l0.17152,0.51386c0,0 0.15811,0.47434 -0.31623,0.63246z" fill="#fff47d" stroke="none" stroke-width="0.5"/><path d="M270.80776,164.7669l3.66667,-7.35659l7.5,1.41473l1.66667,10.75194z" fill="#ada43e" stroke="none" stroke-width="0"/><path d="M232.6411,165.91031c0,-0.27614 0.22386,-0.5 0.5,-0.5c0.27614,0 0.5,0.22386 0.5,0.5c0,0.27614 -0.22386,0.5 -0.5,0.5c-0.27614,0 -0.5,-0.22386 -0.5,-0.5z" fill="#53ebff" stroke="none" stroke-width="0.5"/><path d="M232.80776,169.41031c0,-0.27614 0.22386,-0.5 0.5,-0.5c0.27614,0 0.5,0.22386 0.5,0.5c0,0.27614 -0.22386,0.5 -0.5,0.5c-0.27614,0 -0.5,-0.22386 -0.5,-0.5z" fill="#53ebff" stroke="none" stroke-width="0.5"/><path d="M245.80776,165.74364c0,-0.27614 0.22386,-0.5 0.5,-0.5c0.27614,0 0.5,0.22386 0.5,0.5c0,0.27614 -0.22386,0.5 -0.5,0.5c-0.27614,0 -0.5,-0.22386 -0.5,-0.5z" fill="#53ebff" stroke="none" stroke-width="0.5"/><path d="M245.80776,168.91031c0,-0.27614 0.22386,-0.5 0.5,-0.5c0.27614,0 0.5,0.22386 0.5,0.5c0,0.27614 -0.22386,0.5 -0.5,0.5c-0.27614,0 -0.5,-0.22386 -0.5,-0.5z" fill="#53ebff" stroke="none" stroke-width="0.5"/><path d="M257.97443,167.57697c0,-0.27614 0.22386,-0.5 0.5,-0.5c0.27614,0 0.5,0.22386 0.5,0.5c0,0.27614 -0.22386,0.5 -0.5,0.5c-0.27614,0 -0.5,-0.22386 -0.5,-0.5z" fill="#53ebff" stroke="none" stroke-width="0.5"/><path d="M277.83768,153.93051c0,-2.51604 2.03966,-4.5557 4.5557,-4.5557c2.51604,0 4.5557,2.03966 4.5557,4.5557c0,2.51605 -2.03966,4.55571 -4.5557,4.55571c-2.51605,0 -4.5557,-2.03966 -4.5557,-4.55571z" fill="#859cff" stroke="none" stroke-width="0"/><path d="M272.45818,153.54392c0,-5.53695 4.48858,-10.02552 10.02552,-10.02552c5.53695,0 10.02553,4.48858 10.02553,10.02552c0,5.53695 -4.48859,10.02553 -10.02553,10.02553c-5.53695,0 -10.02552,-4.48859 -10.02552,-10.02553z" fill="url(#color-2)" stroke="none" stroke-width="0"/></g></g></svg>