<svg version="1.1" xmlns="http://www.w3.org/2000/svg" xmlns:xlink="http://www.w3.org/1999/xlink" width="49.7613" height="26.85" viewBox="0,0,49.7613,26.85"><defs><radialGradient cx="223.2495" cy="179.7994" r="11.1262" gradientUnits="userSpaceOnUse" id="color-1"><stop offset="0" stop-color="#b6becf"/><stop offset="1" stop-color="#999fae"/></radialGradient><linearGradient x1="216.05" y1="178.7" x2="225.55" y2="178.7" gradientUnits="userSpaceOnUse" id="color-2"><stop offset="0" stop-color="#b1b8c9"/><stop offset="1" stop-color="#c6d0e1"/></linearGradient><radialGradient cx="238.3624" cy="180.3404" r="11.7537" gradientUnits="userSpaceOnUse" id="color-3"><stop offset="0" stop-color="#535879"/><stop offset="1" stop-color="#434561"/></radialGradient><radialGradient cx="230.8379" cy="179.9522" r="11.614" gradientUnits="userSpaceOnUse" id="color-4"><stop offset="0" stop-color="#535879"/><stop offset="1" stop-color="#434561"/></radialGradient><radialGradient cx="246.1992" cy="180.2812" r="12.1585" gradientUnits="userSpaceOnUse" id="color-5"><stop offset="0" stop-color="#a9b1c0"/><stop offset="1" stop-color="#828893"/></radialGradient><linearGradient x1="0" y1="0" x2="0" y2="0" gradientUnits="userSpaceOnUse" id="color-6"><stop offset="0" stop-color="#000000" stop-opacity="0"/><stop offset="1" stop-color="#000000"/></linearGradient><linearGradient x1="243.5398" y1="180.25155" x2="260.2639" y2="180.25155" gradientUnits="userSpaceOnUse" id="color-7"><stop offset="0" stop-color="#d200bd"/><stop offset="1" stop-color="#a80096"/></linearGradient><linearGradient x1="222.703" y1="188.85" x2="231.953" y2="188.85" gradientUnits="userSpaceOnUse" id="color-8"><stop offset="0" stop-color="#4d4e5e"/><stop offset="1" stop-color="#6b6c84"/></linearGradient><linearGradient x1="241.453" y1="188.85" x2="250.703" y2="188.85" gradientUnits="userSpaceOnUse" id="color-9"><stop offset="0" stop-color="#4d4e5e"/><stop offset="1" stop-color="#6b6c84"/></linearGradient><linearGradient x1="222.653" y1="166.95" x2="231.903" y2="166.95" gradientUnits="userSpaceOnUse" id="color-10"><stop offset="0" stop-color="#4d4e5e"/><stop offset="1" stop-color="#6b6c84"/></linearGradient><linearGradient x1="241.403" y1="166.95" x2="250.653" y2="166.95" gradientUnits="userSpaceOnUse" id="color-11"><stop offset="0" stop-color="#4d4e5e"/><stop offset="1" stop-color="#6b6c84"/></linearGradient><radialGradient cx="221" cy="183.7997" r="2.3404" gradientUnits="userSpaceOnUse" id="color-12"><stop offset="0" stop-color="#d1dbed"/><stop offset="1" stop-color="#a9b1c0"/></radialGradient><radialGradient cx="220.85" cy="176.4" r="2.275" gradientUnits="userSpaceOnUse" id="color-13"><stop offset="0" stop-color="#d1dbed"/><stop offset="1" stop-color="#a9b1c0"/></radialGradient><radialGradient cx="251.60421" cy="177.09395" r="1.03571" gradientUnits="userSpaceOnUse" id="color-14"><stop offset="0" stop-color="#ffe264"/><stop offset="1" stop-color="#ff5d46"/></radialGradient><radialGradient cx="251.6017" cy="177.05347" r="1.01885" gradientUnits="userSpaceOnUse" id="color-15"><stop offset="0" stop-color="#ffe264"/><stop offset="1" stop-color="#ff5d46"/></radialGradient></defs><g transform="translate(-210.5887,-166.8)"><g data-paper-data="{&quot;isPaintingLayer&quot;:true}" fill-rule="nonzero" stroke-linejoin="miter" stroke-miterlimit="10" stroke-dasharray="" stroke-dashoffset="0" style="mix-blend-mode: normal"><path d="M223.55,178.9h25v2.1h-25z" fill="#ffffff" stroke="none" stroke-width="0.88389" stroke-linecap="butt"/><path d="M234.15,171h4.65v18.6h-4.65z" fill="#ffffff" stroke="none" stroke-width="1" stroke-linecap="butt"/><path d="M244.85,170.75h2.3v18.75h-2.3z" fill="#25262e" stroke="none" stroke-width="1" stroke-linecap="butt"/><path d="M226.2,170.75h2.3v18.75h-2.3z" fill="#25262e" stroke="none" stroke-width="1" stroke-linecap="butt"/><path d="M251.6,166.8l3.6,0.2l3.1,1.3l1.95,2.45l0.05,2.8l-4.7,-1l-1.85,-1.05l-2.15,-0.15z" fill="#ffffff" stroke="none" stroke-width="1" stroke-linecap="round"/><path d="M251.65,188.65l2.15,-0.15l1.85,-1.05l4.7,-1l-0.05,2.8l-1.95,2.45l-3.1,1.3l-3.6,0.2z" fill="#ffffff" stroke="none" stroke-width="1" stroke-linecap="round"/><path d="M216.35,173.65h8.95v12.9h-8.95z" fill="url(#color-1)" stroke="none" stroke-width="1" stroke-linecap="butt"/><path d="M216.05,178.7h9.5v2.6h-9.5z" fill="url(#color-2)" stroke="none" stroke-width="1" stroke-linecap="butt"/><g stroke="none" stroke-width="1.59028" stroke-linecap="round"><path d="M234.9734,172.7011c2.0833,-0.2481 4.7232,-0.5709 6.2419,0.8747c1.6157,1.5457 1.5203,4.2556 1.5108,6.4406c0.0095,2.43 0.186,5.4102 -1.5108,7.0768c-1.4933,1.4614 -4.1634,0.8428 -6.2419,0.6361c-1.5887,-0.159 -3.7578,-0.2417 -4.3335,-1.6698c-0.8174,-1.84 0.9749,-3.8962 1.1132,-5.884c0.1257,-1.8034 -1.234,-3.7452 -0.4771,-5.407c0.5216,-1.3056 2.2296,-1.8924 3.6974,-2.0674z" fill="url(#color-3)"/><path d="M228.2882,172.8077c1.18,-0.089 2.414,0.7475 2.942,1.7493c1.0194,1.7223 1.4201,3.8278 1.3517,5.8046c-0.0731,2.1071 -0.5247,4.3271 -1.5902,6.1226c-0.5201,0.8174 -1.8273,1.1768 -2.7035,0.9541c-1.0019,-0.256 -1.673,-0.819 -2.2487,-2.1437c-0.5757,-1.3247 -0.9319,-3.1535 -0.9319,-5.1716c0,-2.018 0.3562,-3.8469 0.9319,-5.1716c0.5757,-1.3247 1.2166,-2.0658 2.2487,-2.1437z" fill="url(#color-4)"/></g><path d="M236.75,176.4445h12.8v7.25h-12.8z" data-paper-data="{&quot;origPos&quot;:null}" fill="#a9a9a9" stroke="none" stroke-width="1" stroke-linecap="butt"/><path d="M244.5,173.0683h8.85v14.3h-8.85z" fill="url(#color-5)" stroke="none" stroke-width="1.14678" stroke-linecap="butt"/><path d="M243.725,176.85c0.683,0 1.302,0.387 1.75,1.011c0.448,0.625 0.725,1.487 0.725,2.439c0,0.952 -0.277,1.814 -0.725,2.439c-0.448,0.624 -1.067,1.011 -1.75,1.011c-0.683,0 -1.302,-0.387 -1.75,-1.011c-0.448,-0.625 -0.725,-1.487 -0.725,-2.439c0,-0.952 0.277,-1.814 0.725,-2.439c0.448,-0.624 1.067,-1.011 1.75,-1.011z" fill="url(#color-6)" stroke="#181a22" stroke-width="1" stroke-linecap="butt"/><path d="M243.5398,176.0097l16.7241,-4.8092v18.1021l-16.7241,-4.9173z" data-paper-data="{&quot;origPos&quot;:null}" fill="url(#color-7)" stroke="none" stroke-width="0.54036" stroke-linecap="butt"/><path d="M252.45,175.85c0.786,0 1.499,0.493 2.015,1.29c0.516,0.796 0.835,1.896 0.835,3.11c0,1.214 -0.319,2.314 -0.835,3.11c-0.516,0.797 -1.229,1.29 -2.015,1.29c-0.786,0 -1.499,-0.493 -2.015,-1.29c-0.516,-0.796 -0.835,-1.896 -0.835,-3.11c0,-1.214 0.319,-2.314 0.835,-3.11c0.516,-0.797 1.229,-1.29 2.015,-1.29z" fill="#ffffff" stroke="none" stroke-width="1" stroke-linecap="butt"/><g><path d="M222.703,188.85h9.25v4.55h-9.25z" fill="url(#color-8)" stroke="none" stroke-width="1.06234" stroke-linecap="butt"/><path d="M241.453,188.85h9.25v4.55h-9.25z" fill="url(#color-9)" stroke="none" stroke-width="1.06234" stroke-linecap="butt"/><path d="M233.5,189.4h6.3v3.75h-6.3z" data-paper-data="{&quot;origPos&quot;:null}" fill="#d100bc" stroke="#ffffff" stroke-width="1" stroke-linecap="round"/></g><g><path d="M222.653,166.95h9.25v4.55h-9.25z" fill="url(#color-10)" stroke="none" stroke-width="1.06234" stroke-linecap="butt"/><path d="M241.403,166.95h9.25v4.55h-9.25z" fill="url(#color-11)" stroke="none" stroke-width="1.06234" stroke-linecap="butt"/><path d="M233.45,167.5h6.3v3.75h-6.3z" data-paper-data="{&quot;origPos&quot;:null}" fill="#d100bc" stroke="#ffffff" stroke-width="1" stroke-linecap="round"/></g><g stroke="none"><path d="M213.0687,167.6636l9.0182,3.3334l1.7535,1.2727l0.6889,1.3939h-11.4606z" fill="#4e4f5f" stroke-width="1.23249" stroke-linecap="round"/><path d="M211.3531,172.8231c-0.3806,-0.5547 -0.6144,-1.3222 -0.6144,-2.169c0,-0.8468 0.2338,-1.6144 0.6144,-2.1691c0.3806,-0.5562 0.9051,-0.8996 1.4836,-0.8996c0.5784,0 1.1029,0.3434 1.4835,0.8996c0.3807,0.5547 0.6144,1.3223 0.6144,2.1691c0,0.8468 -0.2337,1.6143 -0.6144,2.169c-0.3806,0.5563 -0.9051,0.8996 -1.4835,0.8996c-0.5785,0 -1.103,-0.3433 -1.4836,-0.8996z" fill="#ffda3b" stroke-width="2.38714" stroke-linecap="butt"/><path d="M212.0358,171.7618c-0.1904,-0.3136 -0.3086,-0.7487 -0.3086,-1.2287c0,-0.48 0.1182,-0.9151 0.3086,-1.2288c0.1904,-0.315 0.4529,-0.51 0.7435,-0.51c0.2906,0 0.5531,0.195 0.7435,0.51c0.1904,0.3137 0.3086,0.7488 0.3086,1.2288c0,0.48 -0.1182,0.9151 -0.3086,1.2287c-0.1904,0.3151 -0.4529,0.5101 -0.7435,0.5101c-0.2906,0 -0.5531,-0.195 -0.7435,-0.5101z" fill="#30323a" stroke-width="1.19664" stroke-linecap="butt"/></g><g stroke="none"><path d="M212.9187,186.4864h11.4606l-0.6889,1.3939l-1.7535,1.2727l-9.0182,3.3334z" fill="#4e4f5f" stroke-width="1.23249" stroke-linecap="round"/><path d="M212.6867,186.3773c0.5784,0 1.1029,0.3433 1.4835,0.8996c0.3807,0.5547 0.6144,1.3222 0.6144,2.169c0,0.8468 -0.2337,1.6144 -0.6144,2.1691c-0.3806,0.5562 -0.9051,0.8996 -1.4835,0.8996c-0.5785,0 -1.103,-0.3434 -1.4836,-0.8996c-0.3806,-0.5547 -0.6144,-1.3223 -0.6144,-2.1691c0,-0.8468 0.2338,-1.6143 0.6144,-2.169c0.3806,-0.5563 0.9051,-0.8996 1.4836,-0.8996z" fill="#ffda3b" stroke-width="2.38714" stroke-linecap="butt"/><path d="M212.6293,187.8281c0.2906,0 0.5531,0.195 0.7435,0.5101c0.1904,0.3136 0.3086,0.7487 0.3086,1.2287c0,0.48 -0.1182,0.9151 -0.3086,1.2288c-0.1904,0.315 -0.4529,0.51 -0.7435,0.51c-0.2906,0 -0.5531,-0.195 -0.7435,-0.51c-0.1904,-0.3137 -0.3086,-0.7488 -0.3086,-1.2288c0,-0.48 0.1182,-0.9151 0.3086,-1.2287c0.1904,-0.3151 0.4529,-0.5101 0.7435,-0.5101z" fill="#30323a" stroke-width="1.19664" stroke-linecap="butt"/></g><path d="M220.9,182.2c0.469,0 0.894,0.19 1.202,0.498c0.308,0.308 0.498,0.733 0.498,1.202c0,0.469 -0.19,0.894 -0.498,1.202c-0.308,0.308 -0.733,0.498 -1.202,0.498c-0.469,0 -0.894,-0.19 -1.202,-0.498c-0.308,-0.308 -0.498,-0.733 -0.498,-1.202c0,-0.469 0.19,-0.894 0.498,-1.202c0.308,-0.308 0.733,-0.498 1.202,-0.498z" fill="url(#color-12)" stroke="none" stroke-width="1" stroke-linecap="butt"/><path d="M220.85,174.65c0.469,0 0.894,0.19 1.202,0.498c0.308,0.308 0.498,0.733 0.498,1.202c0,0.469 -0.19,0.894 -0.498,1.202c-0.308,0.308 -0.733,0.498 -1.202,0.498c-0.469,0 -0.894,-0.19 -1.202,-0.498c-0.308,-0.308 -0.498,-0.733 -0.498,-1.202c0,-0.469 0.19,-0.894 0.498,-1.202c0.308,-0.308 0.733,-0.498 1.202,-0.498z" fill="url(#color-13)" stroke="none" stroke-width="1" stroke-linecap="butt"/><path d="M258.75,171.6l1.55,-0.65v18.35l-1.55,-0.4z" fill="#ffffff" stroke="none" stroke-width="1" stroke-linecap="round"/><path d="M242.1,182.9c0,0 -1.181,1.237 -1.95,1.55c-0.944,0.383 -2.011,0.521 -3,0.45c-0.877,-0.048 -2.45,-0.8 -2.45,-0.8" data-paper-data="{&quot;origPos&quot;:null}" fill="none" stroke="#a9a9a9" stroke-width="2" stroke-linecap="round"/><path d="M234.6,175.95c0,0 1.573,-0.752 2.45,-0.8c0.989,-0.071 2.056,0.067 3,0.45c0.769,0.313 1.95,1.55 1.95,1.55" data-paper-data="{&quot;origPos&quot;:null}" fill="none" stroke="#a9a9a9" stroke-width="2" stroke-linecap="round"/><path d="M242.7701,182.0384c0.319,0.1794 0.5498,0.4442 0.6658,0.7275c0.1161,0.2833 0.1164,0.5847 -0.0257,0.8372c-0.1421,0.2526 -0.3998,0.4089 -0.7021,0.4568c-0.3024,0.048 -0.6485,-0.0118 -0.9675,-0.1912c-0.319,-0.1794 -0.5499,-0.4442 -0.6659,-0.7275c-0.116,-0.2833 -0.1163,-0.5847 0.0258,-0.8373c0.1421,-0.2525 0.3998,-0.4088 0.7021,-0.4567c0.3024,-0.048 0.6485,0.0118 0.9675,0.1912z" fill="#ff0000" stroke="none" stroke-width="1.0253" stroke-linecap="butt"/><path d="M241.7026,178.5528c-0.3023,-0.0479 -0.56,-0.2042 -0.7021,-0.4568c-0.1421,-0.2525 -0.1418,-0.5539 -0.0258,-0.8372c0.116,-0.2833 0.3469,-0.5481 0.6659,-0.7275c0.319,-0.1794 0.6651,-0.2392 0.9675,-0.1912c0.3023,0.0479 0.56,0.2042 0.7021,0.4568c0.1421,0.2525 0.1418,0.5539 0.0257,0.8372c-0.116,0.2833 -0.3468,0.5481 -0.6658,0.7275c-0.319,0.1794 -0.6651,0.2392 -0.9675,0.1912z" fill="#ff0000" stroke="none" stroke-width="1.0253" stroke-linecap="butt"/><path d="M238.89044,179.86675c0,2.74824 -2.22789,4.97613 -4.97613,4.97613c-2.74824,0 -4.97613,-2.22789 -4.97613,-4.97613c0,-2.74824 2.22789,-4.97613 4.97613,-4.97613c2.74824,0 4.97613,2.22789 4.97613,4.97613z" data-paper-data="{&quot;origPos&quot;:null}" fill="#a9a9a9" stroke="none" stroke-width="0" stroke-linecap="butt"/><path d="M240.28998,179.86675c0,1.88942 -1.26716,3.42109 -2.25481,3.42109c-0.98765,0 -1.7883,-1.53167 -1.7883,-3.42109c0,-1.88942 0.80065,-3.42109 1.7883,-3.42109c0.98765,0 2.25481,1.53168 2.25481,3.42109z" data-paper-data="{&quot;origPos&quot;:null}" fill="#deb284" stroke="none" stroke-width="0" stroke-linecap="butt"/><path d="M235.19069,174.34708c1.28821,-0.00718 2.3533,2.38887 2.37896,5.35173c0.02566,2.96286 -0.99784,5.37055 -2.28605,5.37774c-0.91301,0.00509 -1.79395,-0.87743 -1.79395,-0.87743c0,0 2.22677,-3.01475 2.21399,-4.48991l-2.37372,-4.50531c0,0 0.57255,-0.84964 1.86076,-0.85682z" data-paper-data="{&quot;origPos&quot;:null,&quot;origRot&quot;:0}" fill="#000000" stroke="none" stroke-width="0" stroke-linecap="butt"/><path d="M241.223,179.78899c0,0.81589 -0.34811,1.47729 -0.77752,1.47729c-0.42942,0 -0.77752,-0.6614 -0.77752,-1.47729c0,-0.81589 0.34811,-1.47729 0.77752,-1.47729c0.42942,0 0.77752,0.6614 0.77752,1.47729z" data-paper-data="{&quot;origPos&quot;:null}" fill="#000000" stroke="none" stroke-width="0" stroke-linecap="butt"/><path d="M231.58175,182.43256c0,1.84647 -1.18357,3.34334 -2.64357,3.34334c-1.46,0 -2.64357,-1.49687 -2.64357,-3.34334c0,-1.84647 1.18356,-3.34333 2.64357,-3.34333c1.46,0 2.64357,1.49686 2.64357,3.34333z" data-paper-data="{&quot;origPos&quot;:null}" fill="#a9a9a9" stroke="none" stroke-width="0" stroke-linecap="butt"/><path d="M231.89276,182.51031c0,1.37412 -0.73103,2.48807 -1.63279,2.48807c-0.90177,0 -1.63279,-1.11394 -1.63279,-2.48807c0,-1.37412 0.73103,-2.48807 1.63279,-2.48807c0.90177,0 1.63279,1.11394 1.63279,2.48807z" data-paper-data="{&quot;origPos&quot;:null}" fill="#ff8787" stroke="none" stroke-width="0" stroke-linecap="butt"/><path d="M231.29461,176.70278c0,1.84647 -1.18357,3.34334 -2.64357,3.34334c-1.46,0 -2.64357,-1.49687 -2.64357,-3.34334c0,-1.84647 1.18356,-3.34333 2.64357,-3.34333c1.46,0 2.64357,1.49686 2.64357,3.34333z" data-paper-data="{&quot;origPos&quot;:null}" fill="#a9a9a9" stroke="none" stroke-width="0" stroke-linecap="butt"/><path d="M231.60562,176.93604c0,1.37412 -0.73102,2.48807 -1.63279,2.48807c-0.90177,0 -1.63279,-1.11395 -1.63279,-2.48807c0,-1.37412 0.73103,-2.48806 1.63279,-2.48806c0.90177,0 1.63279,1.11394 1.63279,2.48806z" data-paper-data="{&quot;origPos&quot;:null}" fill="#ff8787" stroke="none" stroke-width="0" stroke-linecap="butt"/><path d="M253.47307,179.62529c0.74595,0.04589 1.32359,0.95192 1.29018,2.02367c-0.03341,1.07175 -0.6652,1.90338 -1.41116,1.85749c-0.74595,-0.04589 -1.32359,-0.95192 -1.29018,-2.02367c0.03341,-1.07175 0.6652,-1.90338 1.41116,-1.85749z" data-paper-data="{&quot;origPos&quot;:null,&quot;origRot&quot;:0}" fill="#ff0000" stroke="none" stroke-width="0" stroke-linecap="butt"/><path d="M251.56194,176.98537c0.19691,-0.02307 0.21333,0.25355 0.21333,0.25355l-0.00139,-0.32916c0.70493,0.04337 1.01094,1.52324 0.47092,2.21822c-0.25817,0.33225 -0.79879,-0.16016 -1.05122,0.16469c-0.61045,0.72199 -0.1606,1.98796 0.5873,1.77365c0,0 0.19361,-0.05548 0.2331,0.2165c0.03949,0.27198 -0.15411,0.32746 -0.15411,0.32746c-1.16474,0.33376 -1.76583,-1.60561 -0.93323,-2.72697c0.35029,-0.45081 0.95508,0.06632 1.23918,-0.2993c0.2286,-0.29419 -0.33362,-1.11497 -0.40922,-1.11963l-0.37514,-0.17933c0,0 -0.01642,-0.27662 0.18049,-0.29969z" data-paper-data="{&quot;origPos&quot;:null,&quot;origRot&quot;:0}" fill="#cfcfcf" stroke="none" stroke-width="0.5" stroke-linecap="butt"/><path d="M252.33528,182.57976l-0.73673,-0.04532l0.06452,-2.06995l0.73673,0.04532z" data-paper-data="{&quot;origPos&quot;:null,&quot;origRot&quot;:0}" fill="#ff0000" stroke="none" stroke-width="0" stroke-linecap="butt"/><path d="M250.93921,176.38406l0.78504,0.43502l0.60503,-0.43502l-0.075,1.47007l-0.84004,-0.45002l-0.62503,0.40002z" data-paper-data="{&quot;origPos&quot;:null}" fill="url(#color-14)" stroke="none" stroke-width="1" stroke-linecap="round"/><path d="M251.71754,175.98497l0.95592,1.18831l-1.04444,0.15354l-0.16335,0.81805l-0.95592,-1.18831l0.898,-0.01648z" data-paper-data="{&quot;origPos&quot;:null}" fill="url(#color-15)" stroke="none" stroke-width="1" stroke-linecap="round"/></g></g></svg>