<svg version="1.1" xmlns="http://www.w3.org/2000/svg" xmlns:xlink="http://www.w3.org/1999/xlink" width="120.81344" height="41.39914" viewBox="0,0,120.81344,41.39914"><defs><linearGradient x1="192.84844" y1="164.70791" x2="192.84844" y2="197.84287" gradientUnits="userSpaceOnUse" id="color-1"><stop offset="0" stop-color="#ffb500"/><stop offset="1" stop-color="#ff6e00"/></linearGradient><linearGradient x1="219.23583" y1="164.70791" x2="219.23583" y2="197.84298" gradientUnits="userSpaceOnUse" id="color-2"><stop offset="0" stop-color="#ffb500"/><stop offset="1" stop-color="#ff6e00"/></linearGradient><linearGradient x1="248.88726" y1="162.15695" x2="248.88726" y2="197.84307" gradientUnits="userSpaceOnUse" id="color-3"><stop offset="0" stop-color="#ffb500"/><stop offset="1" stop-color="#ff6e00"/></linearGradient><linearGradient x1="281.19939" y1="162.15695" x2="281.19939" y2="197.84296" gradientUnits="userSpaceOnUse" id="color-4"><stop offset="0" stop-color="#ffb500"/><stop offset="1" stop-color="#ff6e00"/></linearGradient></defs><g transform="translate(-179.07974,-159.23606)"><g data-paper-data="{&quot;isPaintingLayer&quot;:true}" fill-rule="nonzero" stroke-linecap="butt" stroke-linejoin="miter" stroke-miterlimit="10" stroke-dasharray="" stroke-dashoffset="0" style="mix-blend-mode: normal"><path d="M193.50675,164.70791c6.2174,0.69489 9.32609,1.13378 9.32609,1.31664c0.07316,13.67824 0.10974,24.13807 0.10974,31.37952v0.2194l-0.10974,0.2194l-9.65525,-0.32909c0,-0.07313 -0.03658,-0.10969 -0.10975,-0.10969c0.43888,-12.23363 0.65832,-18.74363 0.65832,-19.52994l-3.29156,3.18187c-0.18286,-0.10969 -2.74298,-2.8161 -7.68032,-8.11919c3.87671,-3.07209 7.46088,-5.81507 10.75242,-8.22888z" data-paper-data="{&quot;origPos&quot;:null}" fill="none" stroke="#000000" stroke-width="5"/><path d="M215.0116,164.70791l12.28848,2.19437c3.54758,7.20487 5.37621,11.0816 5.48593,11.63019c-8.00944,6.76597 -12.06905,10.24041 -12.17876,10.42329l10.97187,-1.2069l0.10969,0.2194c-0.84117,6.58312 -1.35321,9.87472 -1.53606,9.87472c-12.37992,-0.29253 -19.84081,-0.43878 -22.38261,-0.43878c-0.21942,0 -0.6583,-2.41382 -1.31661,-7.24143c1.24347,-0.96916 2.37724,-2.02979 3.40129,-3.18186l11.08158,-10.09411c-0.9326,-1.29833 -1.59092,-2.13951 -1.97494,-2.52353c-1.88351,2.17608 -3.56585,3.96816 -5.04705,5.3762c-4.68134,-3.58414 -7.42432,-5.74193 -8.22891,-6.47337v-0.2194c0.38401,-0.23768 3.27329,-2.83436 8.6678,-7.79005c0,-0.05485 0.21942,-0.23771 0.6583,-0.54858z" data-paper-data="{&quot;origPos&quot;:null}" fill="none" stroke="#000000" stroke-width="5"/><path d="M243.73044,162.15695l12.06907,2.13952l-1.15204,9.1615c2.39552,-0.12799 4.15103,-0.19196 5.2665,-0.19196h1.7555l0.38404,-0.19197l0.19201,0.38395c-0.38401,5.55909 -0.71319,8.68608 -0.98748,9.38099l-0.38404,-0.2194c-0.27432,0 -2.74298,-0.12799 -7.406,-0.38395c-0.25602,4.2973 -0.44804,9.43578 -0.57603,15.41547l-0.38404,0.19197c-5.88824,-0.38404 -9.39923,-0.71318 -10.53298,-0.9875l0.19201,-0.76802c0,-1.59091 0.25602,-6.52823 0.76804,-14.812c-4.93734,-0.27424 -7.40603,-0.6034 -7.40603,-0.98745c0.25602,-6.1077 0.58518,-9.16156 0.98747,-9.16156l7.21398,1.37149v-2.35894c0,-1.92007 -0.07313,-4.51675 -0.21944,-7.79001c0.14631,0 0.21944,-0.06398 0.21944,-0.19197z" data-paper-data="{&quot;origPos&quot;:null}" fill="none" stroke="#000000" stroke-width="5"/><path d="M277.44149,162.15695c0.10973,0.16454 0.62176,5.17502 1.53609,15.03145c7.05857,-2.15778 10.8164,-3.23667 11.27358,-3.23667l6.99457,4.77275c-1.13376,10.42327 -1.87435,16.51264 -2.22181,18.26815l-9.71009,0.32909c0,-0.10969 -0.064,-0.16454 -0.19201,-0.16454l0.19201,-0.68574c0,-1.48121 0.21942,-5.97969 0.6583,-13.49541c-2.66982,-0.10969 -4.65389,-0.16455 -5.95224,-0.16455h-0.68572c0.7863,8.35692 1.17947,12.91024 1.17947,13.65999l-9.21637,1.37149c-0.34745,-1.17034 -2.39552,-12.09649 -6.14426,-32.77843c0,-0.58519 1.42636,-1.04233 4.27904,-1.37149c3.60242,-1.02405 6.27224,-1.53609 8.00944,-1.53609z" data-paper-data="{&quot;origPos&quot;:null}" fill="none" stroke="#000000" stroke-width="5"/><path d="M193.50676,164.70791c6.2174,0.69489 9.32609,1.13378 9.32609,1.31664c0.07316,13.67826 0.10975,24.13804 0.10975,31.37952v0.2194l-0.10975,0.2194l-9.65526,-0.32909c0,-0.07317 -0.03658,-0.10969 -0.10975,-0.10969c0.43888,-12.23366 0.65832,-18.74361 0.65832,-19.52994l-3.29156,3.18187c-0.18286,-0.10969 -2.74298,-2.8161 -7.68032,-8.11919c3.87671,-3.07207 7.46088,-5.81509 10.75242,-8.22888z" data-paper-data="{&quot;origPos&quot;:null}" fill="url(#color-1)" stroke="none" stroke-width="0.26459"/><path d="M215.01162,164.70791l12.28847,2.19437c3.54758,7.2049 5.37621,11.0816 5.48596,11.63019c-8.00944,6.76597 -12.06907,10.24039 -12.17876,10.42329l10.97187,-1.2069l0.1097,0.2194c-0.84117,6.5831 -1.35323,9.87472 -1.53609,9.87472c-12.37993,-0.29255 -19.84081,-0.43878 -22.38261,-0.43878c-0.21944,0 -0.65828,-2.4138 -1.31659,-7.24143c1.24347,-0.96918 2.37726,-2.02977 3.40131,-3.18186l11.0816,-10.09411c-0.9326,-1.29833 -1.59093,-2.13951 -1.97497,-2.52353c-1.88353,2.17608 -3.56585,3.96818 -5.04703,5.3762c-4.68132,-3.58411 -7.42429,-5.74193 -8.22888,-6.47337v-0.2194c0.38404,-0.23766 3.27329,-2.83436 8.66781,-7.79005c0,-0.05485 0.2194,-0.23771 0.65829,-0.54858z" data-paper-data="{&quot;origPos&quot;:null}" fill="url(#color-2)" stroke="none" stroke-width="0.26459"/><path d="M243.73044,162.15695l12.06907,2.13952l-1.15204,9.1615c2.39552,-0.12797 4.15105,-0.19196 5.26651,-0.19196h1.75548l0.38404,-0.19197l0.19201,0.38395c-0.38404,5.55912 -0.71321,8.68608 -0.98746,9.38099l-0.38404,-0.2194c-0.27434,0 -2.74298,-0.12797 -7.40602,-0.38395c-0.25602,4.29733 -0.44804,9.43578 -0.576,15.41547l-0.38404,0.19197c-5.88826,-0.38404 -9.39921,-0.7132 -10.53299,-0.9875l0.19201,-0.76802c0,-1.59093 0.25601,-6.52823 0.76805,-14.812c-4.93734,-0.27424 -7.40602,-0.60338 -7.40602,-0.98745c0.25602,-6.1077 0.58516,-9.16156 0.98746,-9.16156l7.21397,1.37149v-2.35894c0,-1.92007 -0.07317,-4.51672 -0.21944,-7.79001c0.14628,0 0.21944,-0.064 0.21944,-0.19197z" data-paper-data="{&quot;origPos&quot;:null}" fill="url(#color-3)" stroke="none" stroke-width="0.26459"/><path d="M277.44149,162.15695c0.10969,0.16454 0.62178,5.175 1.53609,15.03145c7.05857,-2.15778 10.81638,-3.23667 11.27358,-3.23667l6.99457,4.77275c-1.13378,10.42329 -1.87433,16.51263 -2.22178,18.26815l-9.71012,0.32909c0,-0.10969 -0.064,-0.16454 -0.19201,-0.16454l0.19201,-0.68574c0,-1.48123 0.21944,-5.97969 0.65832,-13.49541c-2.66981,-0.10969 -4.65388,-0.16455 -5.95225,-0.16455h-0.68571c0.78629,8.35694 1.17948,12.91024 1.17948,13.65999l-9.21639,1.37149c-0.34745,-1.17036 -2.39552,-12.09649 -6.14424,-32.77843c0,-0.58517 1.42634,-1.04235 4.27906,-1.37149c3.60242,-1.02407 6.27224,-1.53609 8.00944,-1.53609z" data-paper-data="{&quot;origPos&quot;:null}" fill="url(#color-4)" stroke="none" stroke-width="0.26459"/></g></g></svg>