<svg version="1.1" xmlns="http://www.w3.org/2000/svg" xmlns:xlink="http://www.w3.org/1999/xlink" width="86.61889" height="87.88211" viewBox="0,0,86.61889,87.88211"><g transform="translate(-196.69056,-136.05895)"><g data-paper-data="{&quot;isPaintingLayer&quot;:true}" fill-rule="nonzero" stroke-linejoin="miter" stroke-miterlimit="10" stroke-dasharray="" stroke-dashoffset="0" style="mix-blend-mode: normal"><path d="M274.7546,168.07689c0,0.00993 0.00013,0.01987 0.00036,0.02974c-3.65447,1.83543 -6.05133,4.50512 -8.88304,7.59581c-0.90835,0.99142 -2.12163,1.71863 -2.8131,2.87107c0.01026,0.67004 -2.79402,2.13288 -3.35418,2.56384c-3.35995,2.58499 -6.96248,4.50929 -10.70727,6.64917c-1.33987,0.76813 -2.75719,1.9535 -4.2665,2.34465c-2.39848,0.62159 -5.51657,-0.05764 -8.0209,0.28099c-3.04913,0.4123 -5.55966,1.68693 -8.36629,2.80957c-2.68505,1.48731 -2.86574,3.77828 -2.86574,6.57131c0,4.70739 1.16242,7.86584 4.42174,11.19555c-0.75815,0.75583 -1.9742,2.14808 -2.34001,2.51389c-0.33334,0.33334 -0.91595,0.53608 -1.00089,0.99977c-0.09832,0.53674 -4.64818,-0.22493 -6.0339,-0.77921c-0.5254,-0.16371 -1.14121,0.08523 -1.64758,-0.13026c-5.18267,-2.20547 -1.45297,-8.92407 -1.45297,-12.96606c-0.02271,-1.94338 0.12418,-2.59637 -1.75001,-3.98024c-0.34119,-0.25194 -3.42524,0.22271 -4.00749,0.22271c-2.92124,0 -5.45373,-0.58289 -8.16545,-1.66758c-0.79666,0.10363 -1.77388,-1.8168 -2.09801,-2.40199c-1.10806,-2.00045 -0.16687,-7.22422 1.12853,-8.95142c0.3054,-0.51084 0.65797,-2.32212 1.01751,-2.68167c2.20191,-2.20191 4.99958,-3.17697 6.85648,-5.83104c0.28762,-0.4111 0.95849,-0.62729 1.00016,-1.12729l0.48845,-0.36708c0.31022,-0.22746 0.51192,-0.5967 0.51192,-1.01085c0,-0.69036 -0.5593,-1.25197 -1.24966,-1.25197c0,0 -0.21431,0.01897 -0.52681,0.01897v0c-0.3125,0 -0.62496,-0.00021 -0.62496,-0.00021v0.01819c-2.37235,0.13557 -4.52632,0.97855 -6.87451,0.97855c-1.31751,0.3679 -1.97654,-1.39742 -2.97412,-1.38818c-0.81779,0.00758 -0.56798,-1.53996 -0.76651,-2.33332c-0.56611,-2.26232 -0.23053,-4.85753 -0.23053,-7.17777c-0.30967,-0.55684 0.86868,-2.5487 1.19852,-3.11062c0.64666,-1.10166 1.64253,-3.89606 2.80626,-4.27357c1.33407,-0.43276 3.45292,-0.003 4.87715,-0.003c1.15845,-0.64425 3.56541,2.22537 4.26041,2.85164c1.69649,1.52874 3.73627,2.68682 5.5047,4.15924c0.58452,0.48668 1.13039,1.58887 1.80165,1.23118l0.72777,0.36344c0.17371,0.09145 0.37196,0.14273 0.58191,0.14273c0.69036,0 1.25287,-0.56275 1.25287,-1.25311c0,-0.4633 -0.18205,-0.79634 -0.55651,-1.01226l-0.93981,-0.56458c-0.32808,-0.30748 -1.30128,-1.02255 -1.97609,-1.49788c-2.77364,-2.63293 -3.52286,-6.35853 -3.52286,-10.30444c-0.40686,-6.36676 5.02706,-5.88246 9.51365,-5.88246c2.42969,0 4.16332,0.35869 6.12369,1.88182c1.15477,0.89721 2.19807,2.39571 2.94083,3.63366c0.25,0.41666 0.27441,1.15572 0.7511,1.24989l0.3638,0.60531c0.21591,0.37446 0.62232,0.62642 1.08563,0.62642c0.69036,0 1.25237,-0.55967 1.25237,-1.25003l-0.00001,-0.625c0,-3.03102 0.05054,-6.31882 1.79236,-8.93155c-0.21982,-0.8198 2.56906,-1.19297 3.214,-1.19297c2.41939,0 7.0992,0.58908 8.1004,3.09207c0.51104,1.05388 0.28089,2.14232 0.46082,3.25504c0.42118,2.60456 1.53999,5.11964 2.23395,7.656c0.19244,0.70335 0.57124,3.60451 1.59678,3.64251l0.50098,0.50087c0.2262,0.2262 0.5399,0.36724 0.88508,0.36724c0.69036,0 1.18014,-0.48809 1.18014,-1.17844l0.00075,-0.87429c0,-3.60543 1.23996,-8.94959 5.69156,-8.94959c1.07293,0 4.28337,-0.13159 4.74426,0.1368c2.37074,1.38052 1.63886,4.63365 1.63886,6.99698c0.20403,3.19273 -2.6169,6.1848 -4.24625,8.63103c-0.32589,0.48927 -2.20999,1.90204 -2.12422,2.25156l-0.36721,0.49035c-0.16156,0.21062 -0.25714,0.47509 -0.25714,0.76104c0,0.69036 0.56075,1.25269 1.25111,1.25269c0.17413,0 0.33999,-0.03547 0.49061,-0.0998l0.9034,-0.3614c0.26255,-0.08605 0.53937,-0.13516 0.8116,-0.18053c2.78891,-0.51084 9.04639,-1.40527 9.04639,2.14839z" data-paper-data="{&quot;noHover&quot;:false,&quot;origItem&quot;:[&quot;Path&quot;,{&quot;applyMatrix&quot;:true,&quot;segments&quot;:[[[533.37933,329.14666],[5.57782,-1.02168],[-0.54445,0.09074]],[[531.75628,329.50807],[0.5251,-0.17211],[0,0]],[[529.94945,330.23081],[0,0],[-0.30123,0.12865]],[[528.96833,330.43067],[0.34826,0],[-1.38071,0]],[[526.46833,327.93067],[0,1.38071],[0,-0.57191]],[[526.98348,326.41047],[-0.32311,0.42124],[0,0]],[[527.71833,325.43067],[0,0],[-0.17154,-0.69904]],[[531.96833,320.93067],[-0.65178,0.97855],[3.2587,-4.89246]],[[540.46833,303.68067],[0.40806,6.38546],[0,-4.72665]],[[537.20056,289.69844],[4.74147,2.76103],[-0.92179,-0.53677]],[[527.71833,289.43067],[2.14586,0],[-8.90321,0]],[[516.46833,307.18067],[0,-7.21086],[0,0]],[[516.46833,308.93067],[0,0],[0,1.38071]],[[513.96833,311.43067],[1.38071,0],[-0.69036,0]],[[512.20056,310.69844],[0.45241,0.45241],[0,0]],[[511.20056,309.69844],[0,0],[-2.05109,-0.076]],[[508.01688,302.42096],[0.38488,1.40669],[-1.38792,-5.07272]],[[503.56452,287.11748],[0.84236,5.20912],[-0.35987,-2.22543]],[[502.64714,280.60915],[1.02208,2.10776],[-2.00239,-5.00597]],[[486.46833,274.43067],[4.83878,0],[-1.28989,0]],[[480.04846,276.81742],[-0.43964,-1.6396],[-3.48364,5.22546]],[[476.46833,294.68067],[0,-6.06204],[0,0]],[[476.46833,295.93067],[0,0],[0,1.38071]],[[473.96833,298.43067],[1.38071,0],[-0.92661,0]],[[471.80103,297.17762],[0.43183,0.74893],[0,0]],[[471.0746,295.96691],[0,0],[-0.9534,-0.18835]],[[469.5746,293.46691],[0.5,0.83333],[-1.48553,-2.47589]],[[463.70056,286.19844],[2.30954,1.79442],[-3.92075,-3.04627]],[[451.46833,282.43067],[4.85937,0],[-8.97319,0]],[[432.46833,294.18067],[-0.81372,-12.73353],[0,7.89183]],[[439.52432,314.78043],[-5.54727,-5.26586],[1.34962,0.95066]],[[443.33479,317.63507],[-0.65615,-0.61495],[0,0]],[[445.21528,318.76337],[0,0],[0.74893,0.43183]],[[446.46833,320.93067],[0,-0.92661],[0,1.38071]],[[443.96833,323.43067],[1.38071,0],[-0.41989,0]],[[442.80531,323.14425],[0.34741,0.18291],[0,0]],[[441.3503,322.41674],[0,0],[-1.34251,0.71539]],[[437.59135,319.82881],[1.16904,0.97337],[-3.53685,-2.94485]],[[426.58158,311.5108],[3.39299,3.05748],[-1.39,-1.25255]],[[418.21833,305.93067],[2.31689,-1.28849],[-2.84846,0]],[[408.46833,305.93067],[2.66813,-0.86552],[-2.32748,0.75501]],[[402.86206,314.46691],[1.29332,-2.20333],[-0.65968,1.12385]],[[400.46833,320.68067],[-0.61934,-1.11367],[0,4.6405]],[[400.93432,335.01968],[-1.13222,-4.52463],[0.39705,1.58672]],[[402.46833,339.68067],[-1.63558,0.01515],[1.99516,-0.01848]],[[408.21833,342.43067],[-2.63501,0.7358],[4.69637,0]],[[421.96833,340.46712],[-4.7447,0.27115],[0,0]],[421.96833,340.43067],[[423.21833,340.43067],[-0.625,0],[0,0]],[[423.21833,340.43067],[0,0],[0.625,0]],[[424.46833,340.43067],[0,0],[1.38071,0]],[[426.96833,342.93067],[0,-1.38071],[0,0.82831]],[[425.94506,344.94813],[0.62044,-0.45492],[0,0]],[[424.96833,345.68067],[0,0],[-0.08333,1]],[[422.96833,347.93067],[0.57525,-0.82221],[-3.7138,5.30814]],[[409.25457,359.57441],[4.40381,-4.40381],[-0.71908,0.71908]],[[407.21833,364.93067],[0.61079,-1.02169],[-2.59081,3.45441]],[[404.9544,382.81264],[-2.21612,-4.00091],[0.64827,1.17037]],[[409.14681,387.60948],[-1.59333,0.20726],[5.42345,2.16938]],[[425.46833,390.93067],[-5.84248,0],[1.1645,0]],[[433.47804,390.47922],[-0.68239,-0.50387],[3.74838,2.76775]],[[436.96833,398.43067],[-0.04542,-3.88675],[0,8.08397]],[[439.85508,424.35055],[-10.36534,-4.41093],[1.01275,0.43097]],[[443.14681,424.60948],[-1.0508,-0.32743],[2.77143,1.10857]],[[455.20056,426.16291],[-0.19664,1.07348],[0.16988,-0.92738]],[[457.20056,424.16291],[-0.66667,0.66667],[0.73162,-0.73162]],[[461.83606,419.33005],[-1.51631,1.51167],[-6.51865,-6.65942]],[[452.96833,396.93067],[0,9.41478],[0,-5.58606]],[[458.78986,383.60948],[-5.3701,2.97463],[5.61325,-2.2453]],[[475.47804,377.97922],[-6.09825,0.82459],[5.00866,-0.67726]],[[491.46833,377.43067],[-4.79697,1.24317],[3.01863,-0.7823]],[[499.97798,372.76006],[-2.67974,1.53626],[7.48958,-4.27976]],[[521.36787,359.51012],[-6.7199,5.16999],[1.12031,-0.86191]],[[528.0746,354.39443],[0.02051,1.34009],[1.38293,-2.30489]],[[533.70056,348.66291],[-1.81669,1.98284],[5.66342,-6.18139]],[[551.46902,333.49007],[-7.30894,3.67087],[-0.00046,-0.01974]],[[551.46833,333.43067],[0,0.01985],[0,-7.10733]]],&quot;closed&quot;:true}],&quot;origPos&quot;:null}" fill="#fff300" stroke="none" stroke-width="0.5" stroke-linecap="butt"/><path d="M276.93858,169.84284c-4.15343,1.7249 -6.37805,4.38952 -9.34887,7.62893c-0.77834,0.84871 -1.87739,1.45153 -2.43702,2.38423c-3.30538,4.48301 -10.18488,7.34329 -14.95169,10.06718c-1.80231,1.02612 -3.42758,2.18268 -5.49518,2.6647c-3.51643,0.81978 -7.35352,-0.3281 -10.94098,0.86803c-1.51502,0.50514 -2.97147,1.44324 -4.46978,2.04256c-0.23423,-0.26854 -0.76082,0.47358 -0.90339,0.73469c-0.70489,1.29099 -0.43586,2.92968 -0.43586,4.35471c0,3.85532 1.15444,6.13667 3.88389,8.86612c0.25,0.83926 0.6777,1.64505 0.75,2.51776c0.00615,0.07425 -1.15353,1.23442 -1.25889,1.36612c-1.01671,1.27088 -2.89776,3.1131 -4.375,3.75c-1.71546,0.73961 -5.70173,-0.4344 -7.33924,-1.0894c-0.3255,-0.32517 -1.79325,-0.26382 -2.10414,-0.37053c-1.65149,-0.56685 -3.11124,-2.78556 -3.78235,-4.29492c-1.23315,-2.77341 1.22572,-7.75256 1.22572,-10.74514c0.00679,-0.41678 -0.09619,-0.89047 -0.11926,-1.25974c-0.04818,0.00299 -0.09218,0.00619 -0.13074,0.00974c-0.97985,0.09028 -2.01543,0 -3,0c-3.21542,0 -6.10311,-0.64496 -9.08924,-1.8394c-5.04916,-2.54579 -5.1712,-10.98001 -2.03576,-15.16059c0.26824,0.00872 0.51149,-1.53816 0.55313,-1.64312c0.15708,-0.39591 1.03716,-1.53715 1.17875,-1.67874c1.39381,-1.39381 3.81202,-2.13327 5.10306,-3.62151c0.06408,-0.07387 0.35506,-0.52327 0.72019,-1.06306c-1.6618,0.29601 -3.24737,0.75643 -5.05514,0.75643c-7.01477,-0.44102 -6.375,-8.20745 -6.375,-13.375c0.2758,-3.36014 3.07755,-8.87502 6.5,-9.875c1.38072,-0.40342 3.41858,0 4.875,0c1.91277,0.157 3.71179,1.26664 5.3965,2.6005c-0.54066,-1.84185 -0.7715,-3.84396 -0.7715,-5.9755c0.11124,-3.9878 2.3927,-7.81179 6.5,-8.625c1.78974,-0.35435 3.71384,0.25 5.5,0.25c3.70982,0 7.06744,1.17003 9.375,4.25c0.07964,0.1063 0.37473,0.4626 0.73891,0.91631c0.19799,-2.41959 0.72573,-4.80423 2.09603,-6.85968c3.47146,-3.92773 13.66272,-2.74069 15.70065,2.35414c1.1916,3.26635 1.40848,6.99454 2.50595,10.38461c0.87613,-3.92812 3.21007,-7.54538 7.70845,-7.54538c3.31592,0 7.04299,0.00645 8.60073,3.50485c0.74541,1.67406 0.27427,4.31281 0.27427,6.12015c-0.10625,3.80893 -2.45788,6.34664 -4.30313,9.39312c-0.05629,0.09294 -0.21936,0.33871 -0.43885,0.65179c3.39487,-0.3893 8.03017,-0.52822 9.65248,2.33009l0.58951,1.87164c0,0 0.09729,2.40682 -0.26721,2.38331zM265.66132,165.94588c-0.27223,0.04537 -0.54898,0.09465 -0.81153,0.1807l-0.90341,0.36137c-0.15062,0.06432 -0.31643,0.09993 -0.49056,0.09993c-0.69035,0 -1.25,-0.55964 -1.25,-1.25c0,-0.28596 0.09602,-0.54948 0.25757,-0.7601l0.36743,-0.4899c-0.08577,-0.34952 1.79911,-1.76073 2.125,-2.25c1.62935,-2.44623 4.45403,-5.43227 4.25,-8.625c0,-2.36333 0.73685,-5.6106 -1.63388,-6.99112c-0.4609,-0.26838 -3.66818,-0.13388 -4.74112,-0.13388c-4.4516,0 -5.625,5.26957 -5.625,8.875v0.875c0,0.69036 -0.55964,1.25 -1.25,1.25c-0.34518,0 -0.65768,-0.13991 -0.88388,-0.36612l-0.5,-0.5c-1.02555,-0.038 -1.3994,-2.93539 -1.59184,-3.63874c-0.69396,-2.53636 -1.805,-5.04718 -2.22618,-7.65174c-0.17994,-1.11272 0.05235,-2.20029 -0.45869,-3.25417c-1.0012,-2.50298 -5.67002,-3.08924 -8.08941,-3.08924c-0.64495,0 -3.42975,0.37358 -3.20994,1.19338c-1.74182,2.61273 -1.79006,5.9006 -1.79006,8.93162v0.625c0,0.69036 -0.55964,1.25 -1.25,1.25c-0.4633,0 -0.86773,-0.25206 -1.08365,-0.62653l-0.36322,-0.60536c-0.4767,-0.09418 -0.5,-0.83334 -0.75,-1.25c-0.74276,-1.23794 -1.78225,-2.73702 -2.93702,-3.63423c-1.96037,-1.52313 -3.68643,-1.88388 -6.11612,-1.88388c-4.48659,0 -9.90686,-0.49176 -9.5,5.875c0,3.94592 0.75436,7.66695 3.528,10.29988c0.67481,0.47533 1.57716,1.11984 1.90524,1.42732l0.94025,0.56415c0.37446,0.21591 0.62652,0.62035 0.62652,1.08365c0,0.69036 -0.55964,1.25 -1.25,1.25c-0.20995,0 -0.4078,-0.05176 -0.58151,-0.14321l-0.72751,-0.36375c-0.67126,0.3577 -1.29496,-0.80728 -1.87948,-1.29397c-1.76843,-1.47242 -3.80839,-2.63026 -5.50489,-4.159c-0.695,-0.62627 -3.02318,-3.43431 -4.18162,-2.79006c-1.42423,0 -3.54093,-0.43276 -4.875,0c-1.16374,0.37751 -2.15648,3.16645 -2.80313,4.26812c-0.32984,0.56193 -1.50654,2.55005 -1.19687,3.10688c0,2.32025 -0.33311,4.90719 0.233,7.1695c0.19852,0.79336 -0.05079,2.33807 0.767,2.3305c0.99758,-0.00924 1.55749,1.7429 2.875,1.375c2.34819,0 4.50265,-0.8462 6.875,-0.98177v-0.01823c0,0 0.3125,0 0.625,0v0c0.3125,0 0.625,0 0.625,0c0.69036,0 1.25,0.55964 1.25,1.25c0,0.41415 -0.20141,0.78127 -0.51163,1.00873l-0.48837,0.36627c-0.04166,0.5 -0.71238,0.7139 -1,1.125c-1.8569,2.65407 -4.65497,3.61996 -6.85688,5.82187c-0.35954,0.35954 -0.71273,2.16729 -1.01812,2.67813c-1.2954,1.7272 -2.24002,6.94053 -1.13196,8.94098c0.32414,0.58518 1.29954,2.50205 2.0962,2.39842c2.71173,1.08469 5.23952,1.6606 8.16076,1.6606c0.58225,0 3.66366,-0.47766 4.00486,-0.22573c1.87419,1.38387 1.72243,2.03235 1.74514,3.97573c0,4.04199 -3.73929,10.75447 1.44338,12.95994c0.50637,0.21549 1.12047,-0.03425 1.64587,0.12947c1.38572,0.55428 5.92855,1.31346 6.02687,0.77671c0.08494,-0.46369 0.66666,-0.66666 1,-1c0.36581,-0.36581 1.5596,-1.6606 2.31775,-2.41643c-3.25932,-3.32971 -4.43386,-6.4923 -4.43386,-11.19969c0,-2.79303 0.22572,-5.17328 2.91076,-6.6606c2.80662,-1.12265 5.29497,-2.40284 8.34409,-2.81513c2.50433,-0.33863 5.59666,0.34731 7.99514,-0.27427c1.50931,-0.39115 2.91496,-1.56717 4.25482,-2.33531c3.74479,-2.13988 7.335,-4.03998 10.69495,-6.62497c0.56016,-0.43096 3.36362,-1.8878 3.35336,-2.55784c0.69146,-1.15245 1.90463,-1.87434 2.81298,-2.86576c2.83171,-3.0907 5.22976,-5.75099 8.88423,-7.58642c-0.00023,-0.00987 -0.00035,-0.01977 -0.00035,-0.0297c0,-3.55366 -6.25559,-2.65285 -9.0445,-2.14201z" data-paper-data="{&quot;origPos&quot;:null}" fill="#ff5400" stroke="none" stroke-width="0.5" stroke-linecap="butt"/><path d="M274.32702,181.01491c0,11.56086 -38.81123,3.95439 -47.81003,11.21215c-6.9818,5.63101 24.09873,20.43715 15.12912,20.43715c-18.5961,0 -33.34112,-13.2583 -33.34112,-31.6493c0,-18.39101 13.75468,-33.29986 32.35079,-33.29986c18.5961,0 33.67124,14.90885 33.67124,33.29986z" data-paper-data="{&quot;origPos&quot;:null}" fill="#ff0000" stroke="none" stroke-width="0" stroke-linecap="butt"/><path d="M264.08052,164.97854c0,2.89921 -2.40903,5.24949 -5.38073,5.24949c-2.97169,0 -5.38073,-2.35028 -5.38073,-5.24949c0,-2.89921 2.40903,-5.24949 5.38073,-5.24949c2.97169,0 5.38073,2.35028 5.38073,5.24949z" data-paper-data="{&quot;origPos&quot;:null}" fill="#ffffff" stroke="none" stroke-width="0" stroke-linecap="butt"/><path d="M252.57356,153.25102c0,2.89921 -2.40903,5.24949 -5.38073,5.24949c-2.9717,0 -5.38072,-2.35027 -5.38072,-5.24949c0,-2.89921 2.40903,-5.24949 5.38072,-5.24949c2.9717,0 5.38073,2.35027 5.38073,5.24949z" data-paper-data="{&quot;origPos&quot;:null}" fill="#ffffff" stroke="none" stroke-width="0" stroke-linecap="butt"/><path d="M234.97479,155.37975c0,2.89921 -2.40903,5.24949 -5.38072,5.24949c-2.9717,0 -5.38073,-2.35028 -5.38073,-5.24949c0,-2.89921 2.40903,-5.24948 5.38073,-5.24948c2.97169,0 5.38072,2.35027 5.38072,5.24948z" data-paper-data="{&quot;origPos&quot;:null}" fill="#ffffff" stroke="none" stroke-width="0" stroke-linecap="butt"/><path d="M230.97479,168.71309c0,2.89921 -2.40903,5.24949 -5.38072,5.24949c-2.9717,0 -5.38073,-2.35028 -5.38073,-5.24949c0,-2.89921 2.40903,-5.24948 5.38073,-5.24948c2.97169,0 5.38072,2.35027 5.38072,5.24948z" data-paper-data="{&quot;origPos&quot;:null}" fill="#ffffff" stroke="none" stroke-width="0" stroke-linecap="butt"/><path d="M222.30812,193.71309c0,2.89921 -2.40903,5.24949 -5.38072,5.24949c-2.9717,0 -5.38073,-2.35028 -5.38073,-5.24949c0,-2.89921 2.40903,-5.24948 5.38073,-5.24948c2.97169,0 5.38072,2.35027 5.38072,5.24948z" data-paper-data="{&quot;origPos&quot;:null}" fill="#ffffff" stroke="none" stroke-width="0" stroke-linecap="butt"/><path d="M218.97479,179.04642c0,2.89921 -2.40903,5.24949 -5.38072,5.24949c-2.9717,0 -5.38073,-2.35028 -5.38073,-5.24949c0,-2.89921 2.40903,-5.24948 5.38073,-5.24948c2.97169,0 5.38072,2.35027 5.38072,5.24948z" data-paper-data="{&quot;origPos&quot;:null}" fill="#ffffff" stroke="none" stroke-width="0" stroke-linecap="butt"/><path d="M247.30812,168.04642c0,2.89921 -2.40903,5.24949 -5.38072,5.24949c-2.9717,0 -5.38073,-2.35028 -5.38073,-5.24949c0,-2.89921 2.40903,-5.24948 5.38073,-5.24948c2.97169,0 5.38072,2.35027 5.38072,5.24948z" data-paper-data="{&quot;origPos&quot;:null}" fill="#ffffff" stroke="none" stroke-width="0" stroke-linecap="butt"/><path d="M240.35238,181.37254c0,2.89921 -2.40903,5.24949 -5.38072,5.24949c-2.9717,0 -5.38073,-2.35028 -5.38073,-5.24949c0,-2.89921 2.40903,-5.24948 5.38073,-5.24948c2.97169,0 5.38072,2.35027 5.38072,5.24948z" data-paper-data="{&quot;origPos&quot;:null}" fill="#ffffff" stroke="none" stroke-width="0" stroke-linecap="butt"/><path d="M257.64144,178.37976c0,2.89921 -2.40903,5.24949 -5.38072,5.24949c-2.9717,0 -5.38073,-2.35028 -5.38073,-5.24949c0,-2.89921 2.40903,-5.24948 5.38073,-5.24948c2.97169,0 5.38072,2.35027 5.38072,5.24948z" data-paper-data="{&quot;origPos&quot;:null}" fill="#ffffff" stroke="none" stroke-width="0" stroke-linecap="butt"/><path d="M268.62271,191.20198l-5.33333,10l-6,-8l-6.66667,10l-7.33333,-11.33333l-11,16l13.66666,-5l4.66667,10.33333l7,-10.33333l8.66667,10.66666l-24.66667,7.33334l-17,-12.33334l4.66667,-17.66666l31.66666,-4.33334z" data-paper-data="{&quot;origPos&quot;:null}" fill="#ffffff" stroke="#ffffff" stroke-width="1" stroke-linecap="round"/><path d="M219.25681,186.23248c0.38195,-1.14584 1.60433,-0.56812 1.60433,-0.56812c2.32457,-0.86046 5.49384,-0.75576 7.75,0.24883c1.42599,0.63495 2.43914,1.87183 4.06829,2.04628c4.21359,0.70227 9.72163,-1.1127 13.85514,-1.93251c5.17543,-0.86257 8.91229,-2.58744 12.63054,-6.30568c3.46847,-3.46847 8.24454,-8.90246 13.53617,-9.05007c3.04079,0 7.62227,-0.13464 9.05865,3.3819c0.75879,1.85766 0.90429,3.98042 1.30515,5.92301c1.31008,6.55042 -2.79974,9.8336 -8.67755,11.0838c-2.62634,0.52526 -5.55839,1.80654 -8.08771,2.55988c-1.98924,0.59248 -3.35423,1.86772 -5.67676,1.93251c-1.78278,0 -3.53478,1.09724 -5.22818,1.60457c-2.75895,0.82656 -5.69718,0.56951 -8.54097,0.56951c-4.70878,0 -9.59161,-0.43052 -14.25228,-0.24157c-0.47948,0 -1.147,-0.00243 -1.77974,-0.04994c0.07764,0.11935 0.14827,0.22154 0.20957,0.29151c1.33274,1.52105 3.03242,2.39352 4.47753,3.73566c3.59536,3.59536 8.61016,5.19197 13.51431,6.07114c1.75905,0.35181 3.65105,-0.02911 5.43988,0.09733c3.49093,0.24675 6.75681,0.72469 10.26647,0.72469c4.22007,0 13.40681,-3.44416 13.40681,3.26112c0,2.0272 -1.41629,3.93875 -2.37693,5.62204c-1.99859,3.50206 -3.72922,4.20665 -7.68254,5.87245c-3.12239,1.24895 -6.57848,0.88246 -9.71423,0.24156c-2.4985,-0.51065 -5.51868,-0.15517 -8.12695,-0.15517c-2.42013,0 -4.68276,-0.2779 -7.08315,-0.49956c-2.00526,-0.18517 -4.63721,0.46907 -6.52222,-0.48313c-0.80756,-0.40793 -1.2221,-1.10906 -1.99302,-1.48429c-4.6527,-2.79163 -8.07254,-2.35023 -10.0662,-7.40336c-1.10807,-3.32421 -3.43788,-6.47439 -3.88054,-9.95426c-0.25446,-2.00036 0.13065,-4.30884 -0.38537,-6.25482c-0.66277,-3.31385 -1.11049,-6.12356 -1.11049,-9.53709c0,0 -0.31997,-0.20237 0.06198,-1.3482z" data-paper-data="{&quot;origPos&quot;:null}" fill="#5fb548" stroke="none" stroke-width="0.5" stroke-linecap="butt"/><path d="M231.30499,216.50589l2.06667,-7.33333l4.06667,-5.06667" data-paper-data="{&quot;origPos&quot;:null}" fill="none" stroke="#0d7a00" stroke-width="2" stroke-linecap="round"/><path d="M246.57166,219.37256l0.93333,-6.2l1.46667,-4.46667" data-paper-data="{&quot;origPos&quot;:null}" fill="none" stroke="#0d7a00" stroke-width="2" stroke-linecap="round"/><path d="M258.90499,208.90589v7l-0.8,3.4" data-paper-data="{&quot;origPos&quot;:null}" fill="none" stroke="#0d7a00" stroke-width="2" stroke-linecap="round"/><path d="M270.63831,208.70589l-0.6,4.4l-2.4,4.6" data-paper-data="{&quot;origPos&quot;:null}" fill="none" stroke="#0d7a00" stroke-width="2" stroke-linecap="round"/><path d="M226.97166,201.97255l3,-4" data-paper-data="{&quot;origPos&quot;:null}" fill="none" stroke="#0d7a00" stroke-width="2" stroke-linecap="round"/><path d="M232.57166,196.43922l1.4,-3.2" data-paper-data="{&quot;origPos&quot;:null}" fill="none" stroke="#0d7a00" stroke-width="2" stroke-linecap="round"/><path d="M240.77166,191.77255l0.8,2.2l-0.6,2.4" data-paper-data="{&quot;origPos&quot;:null}" fill="none" stroke="#0d7a00" stroke-width="2" stroke-linecap="round"/><path d="M249.77166,188.77255l1.4,1.4l0.2,6.8" data-paper-data="{&quot;origPos&quot;:null}" fill="none" stroke="#0d7a00" stroke-width="2" stroke-linecap="round"/><path d="M258.57166,184.77255l2.4,2.4l0.2,6.2" data-paper-data="{&quot;origPos&quot;:null}" fill="none" stroke="#0d7a00" stroke-width="2" stroke-linecap="round"/><path d="M269.77166,174.77255l3.13333,7.6l0.86667,7.26666" data-paper-data="{&quot;origPos&quot;:null}" fill="none" stroke="#0d7a00" stroke-width="2" stroke-linecap="round"/><path d="M276.70499,174.10589l2.6,5.46666l0.6,7.46667" data-paper-data="{&quot;origPos&quot;:null}" fill="none" stroke="#0d7a00" stroke-width="2" stroke-linecap="round"/></g></g></svg>