<svg version="1.1" xmlns="http://www.w3.org/2000/svg" xmlns:xlink="http://www.w3.org/1999/xlink" width="67.07455" height="63.53609" viewBox="0,0,67.07455,63.53609"><defs><linearGradient x1="209.11051" y1="180.3805" x2="268.14167" y2="180.3805" gradientUnits="userSpaceOnUse" id="color-1"><stop offset="0" stop-color="#ff3333"/><stop offset="1" stop-color="#dd2c2c"/></linearGradient></defs><g transform="translate(-206.6161,-148.59933)"><g data-paper-data="{&quot;isPaintingLayer&quot;:true}" fill-rule="nonzero" stroke-linejoin="miter" stroke-miterlimit="10" stroke-dasharray="" stroke-dashoffset="0" style="mix-blend-mode: normal"><path d="M268.14167,179.48477l-57.87782,30.04962c0,0 -1.02779,-0.16788 -1.14777,-30.64332c-0.10763,-27.34244 1.37928,-27.66445 1.37928,-27.66445z" fill="url(#color-1)" stroke="#666c82" stroke-width="5" stroke-linecap="round"/><path d="M210.04826,180.04977h53.57832" fill="none" stroke="#666c82" stroke-width="5" stroke-linecap="round"/><path d="M225.53079,163.61635c1.29193,1.30575 2.09064,3.11019 2.09064,5.10163c0,1.99144 -0.79871,3.79587 -2.09064,5.10163c-1.29193,1.30739 -3.07712,2.11611 -5.04507,2.11611c-1.96796,0 -3.75315,-0.80871 -5.04508,-2.11611c-1.29193,-1.30575 -2.09063,-3.11019 -2.09063,-5.10163c0,-1.99144 0.7987,-3.79587 2.09063,-5.10163c1.29193,-1.30739 3.07713,-2.11611 5.04508,-2.11611c1.96796,0 3.75314,0.80871 5.04507,2.11611z" data-paper-data="{&quot;index&quot;:null}" fill="#ffffff" stroke="none" stroke-width="1" stroke-linecap="butt"/><path d="M225.50525,166.62779l-2.14873,2.05968l2.23661,1.52114l-6.38309,4.09344l-2.30998,-1.76556l5.3896,-2.19304l-1.94593,-1.60135l1.75113,-1.98455l-5.51302,-1.60627l1.39009,-1.83314z" data-paper-data="{&quot;index&quot;:null}" fill="#ff3333" stroke="none" stroke-width="0.12106" stroke-linecap="round"/><path d="M225.67364,186.33064c1.29193,1.30576 2.09064,3.11019 2.09064,5.10163c0,1.99144 -0.79871,3.79587 -2.09064,5.10162c-1.29193,1.3074 -3.07712,2.11611 -5.04507,2.11611c-1.96795,0 -3.75315,-0.80871 -5.04508,-2.11611c-1.29193,-1.30576 -2.09063,-3.11018 -2.09063,-5.10162c0,-1.99144 0.7987,-3.79587 2.09063,-5.10163c1.29193,-1.3074 3.07713,-2.11611 5.04508,-2.11611c1.96795,0 3.75314,0.80871 5.04507,2.11611z" data-paper-data="{&quot;index&quot;:null}" fill="#ffffff" stroke="none" stroke-width="1" stroke-linecap="butt"/><path d="M225.64811,189.34208l-2.14873,2.05968l2.23662,1.52114l-6.38308,4.09344l-2.30998,-1.76556l5.3896,-2.19304l-1.94592,-1.60135l1.75113,-1.98455l-5.51302,-1.60627l1.39008,-1.83314z" data-paper-data="{&quot;index&quot;:null}" fill="#ff3333" stroke="none" stroke-width="0.12106" stroke-linecap="round"/></g></g></svg>