<svg version="1.1" xmlns="http://www.w3.org/2000/svg" xmlns:xlink="http://www.w3.org/1999/xlink" width="119.159" height="216.88255" viewBox="0,0,119.159,216.88255"><defs><linearGradient x1="180.98763" y1="247.16674" x2="300.14663" y2="247.16674" gradientUnits="userSpaceOnUse" id="color-1"><stop offset="0" stop-color="#7481a6"/><stop offset="1" stop-color="#596486"/></linearGradient><linearGradient x1="240.5" y1="217.00007" x2="240.5" y2="250.00007" gradientUnits="userSpaceOnUse" id="color-2"><stop offset="0" stop-color="#7481a6"/><stop offset="1" stop-color="#939fc4"/></linearGradient><linearGradient x1="235.14006" y1="202.27099" x2="242.52322" y2="216.17105" gradientUnits="userSpaceOnUse" id="color-3"><stop offset="0" stop-color="#e5e5e5"/><stop offset="1" stop-color="#ffffff"/></linearGradient><linearGradient x1="252.12115" y1="202.55099" x2="259.0254" y2="216.69502" gradientUnits="userSpaceOnUse" id="color-4"><stop offset="0" stop-color="#e5e5e5"/><stop offset="1" stop-color="#ffffff"/></linearGradient><linearGradient x1="240.84269" y1="124.21369" x2="240.84269" y2="218.62577" gradientUnits="userSpaceOnUse" id="color-5"><stop offset="0" stop-color="#4acae7"/><stop offset="1" stop-color="#40afc8"/></linearGradient><radialGradient cx="242.25263" cy="112.37807" r="25.05357" gradientUnits="userSpaceOnUse" id="color-6"><stop offset="0" stop-color="#8ad9e0"/><stop offset="1" stop-color="#eafbff"/></radialGradient><linearGradient x1="242.5637" y1="102.6871" x2="242.5637" y2="107.13156" gradientUnits="userSpaceOnUse" id="color-7"><stop offset="0" stop-color="#cfbcb0"/><stop offset="1" stop-color="#cfbcb0" stop-opacity="0"/></linearGradient><linearGradient x1="253.2909" y1="70.95765" x2="253.2909" y2="99.51209" gradientUnits="userSpaceOnUse" id="color-8"><stop offset="0" stop-color="#c3ba81"/><stop offset="1" stop-color="#d9d2a8"/></linearGradient><linearGradient x1="251.8698" y1="48.6473" x2="251.16623" y2="61.97302" gradientUnits="userSpaceOnUse" id="color-9"><stop offset="0" stop-color="#e0dcc1"/><stop offset="1" stop-color="#d6c7a9"/></linearGradient><linearGradient x1="255.87149" y1="74.74253" x2="255.87149" y2="103.29697" gradientUnits="userSpaceOnUse" id="color-10"><stop offset="0" stop-color="#c3ba81"/><stop offset="1" stop-color="#d9d2a8"/></linearGradient><linearGradient x1="237.37997" y1="83.05597" x2="237.37997" y2="89.01818" gradientUnits="userSpaceOnUse" id="color-11"><stop offset="0" stop-color="#03d0e0"/><stop offset="1" stop-color="#0ff9f1"/></linearGradient><linearGradient x1="248.44566" y1="82.41868" x2="248.44566" y2="88.06756" gradientUnits="userSpaceOnUse" id="color-12"><stop offset="0" stop-color="#03d0e0"/><stop offset="1" stop-color="#0ff9f1"/></linearGradient><linearGradient x1="242.7084" y1="106.99364" x2="242.7084" y2="122.85076" gradientUnits="userSpaceOnUse" id="color-13"><stop offset="0" stop-color="#ffffff"/><stop offset="1" stop-color="#d9d9d9"/></linearGradient><radialGradient cx="258.82584" cy="88.62345" r="3.56031" gradientUnits="userSpaceOnUse" id="color-14"><stop offset="0" stop-color="#fffaa9"/><stop offset="1" stop-color="#ffea66"/></radialGradient><linearGradient x1="250.15608" y1="72.4941" x2="251.23884" y2="93.00017" gradientUnits="userSpaceOnUse" id="color-15"><stop offset="0" stop-color="#c3ba81"/><stop offset="1" stop-color="#d9d2a8"/></linearGradient><linearGradient x1="217.24838" y1="60.46624" x2="218.39706" y2="82.22079" gradientUnits="userSpaceOnUse" id="color-16"><stop offset="0" stop-color="#f5e7b3"/><stop offset="1" stop-color="#d1bc7d"/></linearGradient><linearGradient x1="242.44484" y1="112.76472" x2="242.44484" y2="118.22883" gradientUnits="userSpaceOnUse" id="color-17"><stop offset="0" stop-color="#fffaa4"/><stop offset="1" stop-color="#fff54f"/></linearGradient></defs><g transform="translate(-180.98763,-48.11752)"><g data-paper-data="{&quot;isPaintingLayer&quot;:true}" fill-rule="nonzero" stroke-linejoin="miter" stroke-miterlimit="10" stroke-dasharray="" stroke-dashoffset="0" style="mix-blend-mode: normal"><path d="M300,248.50007c0,9.1127 -26.63905,16.5 -59.5,16.5c-32.86095,0 -59.5,-7.3873 -59.5,-16.5c0,-3.06185 -0.01237,-14.18471 -0.01237,-14.18471l60.17904,-4.98195l58.97996,4.35874c0,0 -0.14663,5.69523 -0.14663,14.80793z" data-paper-data="{&quot;origPos&quot;:null}" fill="url(#color-1)" stroke="none" stroke-width="0" stroke-linecap="butt"/><path d="M300,233.50007c0,9.1127 -26.63906,16.5 -59.5,16.5c-32.86094,0 -59.5,-7.3873 -59.5,-16.5c0,-9.1127 26.63906,-16.5 59.5,-16.5c32.86094,0 59.5,7.3873 59.5,16.5z" data-paper-data="{&quot;origPos&quot;:null}" fill="url(#color-2)" stroke="none" stroke-width="0" stroke-linecap="butt"/><path d="M242.52324,216.17107l-19.34748,10.27663l0.93367,-4.59l6.95631,-7.30752l-4.19046,-7.88925l8.46439,-4.01415z" data-paper-data="{&quot;index&quot;:null}" fill="url(#color-3)" stroke="none" stroke-width="1" stroke-linecap="round"/><path d="M259.02542,216.69506l-19.68708,9.61003l1.08984,-4.55543l7.20177,-7.06574l-3.91865,-8.02774l8.03252,-4.8782z" data-paper-data="{&quot;index&quot;:null}" fill="url(#color-4)" stroke="none" stroke-width="1" stroke-linecap="round"/><path d="" fill="#4eddff" stroke="none" stroke-width="2.02785" stroke-linecap="butt"/><path d="" fill="#4eddff" stroke="none" stroke-width="2.02785" stroke-linecap="butt"/><path d="" fill="#ffd7a5" stroke="none" stroke-width="2.02785" stroke-linecap="butt"/><path d="" fill="#ffd7a5" stroke="none" stroke-width="2.02785" stroke-linecap="butt"/><path d="" fill="#4eddff" stroke="none" stroke-width="2.02785" stroke-linecap="butt"/><path d="" fill="#4eddff" stroke="none" stroke-width="2.02785" stroke-linecap="butt"/><path d="" fill="#ffd7a5" stroke="none" stroke-width="2.02785" stroke-linecap="butt"/><path d="" fill="#ffd7a5" stroke="none" stroke-width="2.02785" stroke-linecap="butt"/><path d="M241.00036,117.2928l-18.79521,-8.12055c0,0 3.09915,-1.86422 6.13435,-2.74247c3.0352,-0.87825 2.63136,-1.04877 7.96409,-1.33698c0.68599,-0.03707 1.37348,-0.06561 2.05696,-0.08671c1.41772,-0.04377 -2.01223,-3.88501 3.59069,-4.0451c6.04895,-0.17283 3.16273,4.04307 4.31454,4.0881c1.45844,0.05702 2.73162,0.13392 3.71971,0.21083c2.92527,0.22771 5.41161,0.84782 7.36569,1.47124c1.95408,0.62342 4.68255,2.3726 4.68255,2.3726z" data-paper-data="{&quot;index&quot;:null}" fill="#f5ded0" stroke="#000000" stroke-width="0" stroke-linecap="round"/><g data-paper-data="{&quot;index&quot;:null,&quot;origRot&quot;:0}" stroke="none" stroke-width="1" stroke-linecap="round"><path d="M281.45524,144.11074c-0.53528,-1.6217 -1.35215,-3.50883 -0.75057,-5.12459c0.79464,-2.13109 2.23275,-4.6221 4.37933,-5.10465c2.34854,-0.49163 4.78467,1.25426 6.55874,2.73446c1.88272,1.57102 3.74426,3.63492 4.15855,6.07728c0.36027,2.35269 -0.0695,6.02987 -2.20621,6.82733c-2.25187,0.83797 -4.14401,-2.92547 -6.48402,-3.45342c-0.70735,-0.18231 0.28589,1.32541 0.22105,1.99005c-0.08747,0.85738 0.03893,1.74748 -0.53355,2.25401c-0.56747,0.48759 -1.70687,1.02546 -2.18607,0.45722c-1.50654,-1.78261 -2.38649,-4.32791 -3.15727,-6.65765z" fill="#f5ded0"/><path d="M260.21411,109.38893l26.91632,26.20195l-6.42917,4.2503l-25.74737,-21.95799z" data-paper-data="{&quot;origPos&quot;:null}" fill="#48c4e0"/></g><path d="M206.24243,214.39068c0,0 18.75666,-58.93273 20.97629,-67.19933c2.21964,-8.26659 3.96365,-23.89704 3.96365,-23.89704l21.04421,0.30325c0,0 -1.41811,-1.75806 5.11839,24.0096c6.5365,25.76765 18.09797,65.61558 18.09797,65.61558c0,0 -24.07362,5.53949 -35.67548,5.40047c-11.31493,-0.13559 -33.52502,-4.23255 -33.52502,-4.23255z" data-paper-data="{&quot;index&quot;:null}" fill="url(#color-5)" stroke="none" stroke-width="1" stroke-linecap="round"/><path d="M253.26862,114.89625c0.04837,5.04973 -0.80177,10.83173 -3.43437,15.1285c-1.52461,2.51131 -4.89044,3.5024 -7.62719,3.58916c-3.0501,-0.17745 -7.60926,-1.28462 -9.3763,-3.98122c-2.68423,-4.1404 -2.51047,-9.74561 -2.53272,-14.73644c-0.01632,-3.59986 22.93497,-3.59772 22.97058,0z" data-paper-data="{&quot;index&quot;:null}" fill="#4acae7" stroke="none" stroke-width="1" stroke-linecap="round"/><g data-paper-data="{&quot;index&quot;:null,&quot;origRot&quot;:0}" stroke="none" stroke-width="1" stroke-linecap="round"><path d="M203.90474,145.67944c-0.59341,2.38109 -1.27947,4.98536 -2.64771,6.87621c-0.43511,0.60267 -1.61173,0.15201 -2.21426,-0.29154c-0.60894,-0.46205 -0.54984,-1.35914 -0.70153,-2.20752c-0.11463,-0.65787 0.76242,-2.23602 0.07077,-2.00104c-2.29368,0.70242 -3.89747,4.59749 -6.20597,3.93122c-2.19063,-0.63452 -2.89569,-4.26897 -2.71336,-6.64209c0.22947,-2.4666 1.93053,-4.66464 3.68979,-6.37278c1.65773,-1.60942 3.95569,-3.53355 6.33454,-3.21991c2.17679,0.31977 3.79815,2.69559 4.75079,4.76089c0.72138,1.56594 0.04872,3.50916 -0.36309,5.16652z" fill="#f5ded0"/><path d="M228.96503,117.20275l-24.6295,24.16248l-6.73058,-3.75482l26.83195,-29.14045z" data-paper-data="{&quot;origPos&quot;:null}" fill="#48c4e0"/></g><path d="M267.30621,113.23127c0,0 -5.14791,2.57118 -8.25,3.52845c-3.10209,0.95727 -1.2089,0.89915 -7.85714,1.62148c-6.64824,0.72233 -13.40166,0.4005 -17.14286,0.28251c-3.7412,-0.11799 -6.01039,-0.32199 -9.5,-1.25364c-3.48961,-0.93165 -7.35715,-3.41661 -7.35715,-3.41661l4.35715,-7.03039c0,0 4.75818,2.39616 7.5,3.1341c2.74182,0.73794 2.8636,0.6376 7.25,0.83576c4.3864,0.19816 8.46829,0.19108 11.25,0c2.78171,-0.19108 3.97615,-0.18955 7,-1.25364c3.02385,-1.06409 7.25,-3.76092 7.25,-3.76092z" data-paper-data="{&quot;index&quot;:null}" fill="url(#color-6)" stroke="#000000" stroke-width="0" stroke-linecap="round"/><path d="M235.1052,166.61281l-4.89191,43.1765" data-paper-data="{&quot;index&quot;:null}" fill="none" stroke="#41b0c9" stroke-width="1" stroke-linecap="round"/><path d="M252.54619,209.78931l-4.67945,-43.1765" data-paper-data="{&quot;index&quot;:null}" fill="none" stroke="#41b0c9" stroke-width="1" stroke-linecap="round"/><path d="M239.17481,107.13156v-4.44445h6.77777v4.44445z" data-paper-data="{&quot;index&quot;:null}" fill="url(#color-7)" stroke="none" stroke-width="0" stroke-linecap="butt"/><path d="M257.13636,88.78527c0.76988,1.33236 2.73419,1.06196 4.06717,0.93814c0.92555,-0.08764 2.7411,-2.15386 2.53167,-1.28652c-0.80689,3.15848 -1.4793,7.5215 -4.13907,9.33673c-3.12866,2.13663 -7.39246,1.96765 -11.04075,1.26418c-1.9342,-0.37785 -3.48199,-2.63963 -4.35727,-4.64341c-1.15373,-2.6578 -1.68203,-5.91352 -1.17607,-8.84652c0.6422,-4.59407 1.6249,-9.54462 4.51149,-13.02465c1.48352,-1.78458 5.06224,-2.16533 6.59058,-0.50519c2.44268,2.66724 2.41047,7.14211 3.17185,10.83726c0.39674,1.92847 -1.08504,4.28312 -0.15958,5.92999z" data-paper-data="{&quot;index&quot;:null}" fill="url(#color-8)" stroke="none" stroke-width="1.93101" stroke-linecap="round"/><g data-paper-data="{&quot;index&quot;:null}" stroke="none"><path d="M249.18039,61.86819l-15.15477,-0.80018l-1.02412,-10.37759l3.44591,2.22571l5.3889,-4.79861l2.97237,5.2401l6.90938,-1.83615z" fill="url(#color-9)" stroke-width="2.02785" stroke-linecap="round"/><path d="M241.00417,52.86211c0.50477,0.02668 0.94635,0.33821 1.25319,0.81871c0.30683,0.48153 0.47793,1.13199 0.44061,1.83851c-0.03732,0.70652 -0.27592,1.33535 -0.63173,1.7819c-0.35575,0.44552 -0.8277,0.70878 -1.33252,0.68215c-0.50482,-0.02669 -0.94636,-0.33822 -1.25324,-0.81867c-0.30677,-0.48159 -0.47787,-1.13199 -0.44055,-1.83851c0.03732,-0.70657 0.27592,-1.33535 0.63173,-1.78195c0.35576,-0.44546 0.8277,-0.70879 1.33252,-0.68216z" fill="#ff4949" stroke-width="2.02785" stroke-linecap="butt"/><path d="M234.67723,53.81844c0.27281,-0.00924 0.52834,0.24107 0.72148,0.6516c0.19313,0.41145 0.32329,0.98319 0.34471,1.6189c0.02147,0.6357 -0.06983,1.21494 -0.23478,1.63846c-0.16501,0.42265 -0.40307,0.68958 -0.6759,0.69877c-0.27281,0.00918 -0.52839,-0.24107 -0.72153,-0.6516c-0.19313,-0.41145 -0.32324,-0.98325 -0.34471,-1.6189c-0.02148,-0.63571 0.06982,-1.21495 0.23477,-1.63847c0.16501,-0.42266 0.40313,-0.68958 0.67596,-0.69877z" fill="#4dddff" stroke-width="1.50375" stroke-linecap="butt"/><path d="M247.92335,54.53224c0.38172,0.07979 0.67415,0.40527 0.83942,0.86564c0.16505,0.46126 0.2021,1.05726 0.07199,1.67986c-0.13016,0.62259 -0.40289,1.15389 -0.73887,1.51042c-0.33578,0.35566 -0.73413,0.53672 -1.11579,0.45692c-0.38171,-0.0798 -0.67414,-0.40526 -0.83941,-0.86563c-0.16505,-0.46126 -0.20211,-1.05727 -0.072,-1.67987c0.13016,-0.6226 0.40289,-1.15389 0.73887,-1.51042c0.33579,-0.35561 0.73414,-0.53672 1.1158,-0.45692z" fill="#4dddff" stroke-width="1.69861" stroke-linecap="butt"/></g><path d="M259.71696,92.57014c0.7699,1.33236 2.73418,1.06197 4.06716,0.93816c0.92555,-0.08764 2.7411,-2.15387 2.53167,-1.28654c-0.80689,3.15848 -1.47929,7.52149 -4.13905,9.33673c-3.12865,2.13663 -7.39247,1.96765 -11.04076,1.26418c-1.9342,-0.37785 -3.48199,-2.63963 -4.35727,-4.64341c-1.15373,-2.6578 -1.68202,-5.91352 -1.17607,-8.84652c0.6422,-4.59407 1.62489,-9.54462 4.51149,-13.02465c1.48352,-1.78458 5.06224,-2.16533 6.59056,-0.50519c2.44269,2.66724 2.41048,7.14211 3.17185,10.83725c0.39673,1.92847 -1.08503,4.28311 -0.15958,5.92999z" data-paper-data="{&quot;index&quot;:null}" fill="url(#color-10)" stroke="none" stroke-width="1.93101" stroke-linecap="round"/><path d="M240.19236,68.7661c5.05316,-0.13372 11.28818,0.34829 14.68098,4.25556c3.23529,3.73009 2.15964,9.6802 1.72812,14.4769c-0.20878,3.25062 -1.51492,6.64198 -3.58857,8.88848c-2.88,3.13381 -6.35254,6.95712 -10.53314,7.0542c-4.4188,0.1012 -8.50187,-3.60297 -11.72239,-6.82237c-2.25564,-2.25687 -3.51394,-5.77902 -4.03196,-9.11495c-0.6708,-4.3853 -2.03769,-9.75365 0.55823,-13.44472c2.71886,-3.86107 8.27761,-5.06327 12.90873,-5.2931z" data-paper-data="{&quot;index&quot;:null}" fill="#f5ded0" stroke="none" stroke-width="1.99562" stroke-linecap="round"/><path d="M235.56217,80.55208c0.95843,-0.05062 1.88181,0.48649 2.5251,1.15682c0.85624,0.89278 1.633,2.14617 1.88601,3.48374c0.18178,1.14016 0.17915,2.59922 -0.65124,3.54542c-0.73346,0.83734 -2.13952,0.68732 -3.29629,0.59328c-0.9221,-0.07499 -1.854,-0.39576 -2.52511,-1.15683c-0.67007,-0.76117 -1.11785,-1.838 -1.1818,-3.04933c-0.064,-1.21133 0.2679,-2.32936 0.85412,-3.15685c0.58724,-0.82749 1.43084,-1.3657 2.38923,-1.41627z" data-paper-data="{&quot;index&quot;:null}" fill="#ffffff" stroke="none" stroke-width="2.02785" stroke-linecap="round"/><path d="M250.45206,81.71433c0.67007,0.76117 1.11785,1.83799 1.1818,3.04932c0.064,1.21133 -0.26791,2.32935 -0.85412,3.15678c-0.58724,0.82754 -1.48018,1.24467 -2.38922,1.41633c-1.14047,0.21533 -2.52289,0.51262 -3.34047,-0.24282c-0.92541,-0.8535 -1.08168,-2.30421 -1.02099,-3.45712c0.11076,-1.35682 0.75122,-2.685 1.50867,-3.66299c0.56913,-0.73439 1.43083,-1.36576 2.38922,-1.41633c0.95843,-0.05062 1.854,0.39578 2.52511,1.15684z" data-paper-data="{&quot;index&quot;:null}" fill="#ffffff" stroke="none" stroke-width="2.02785" stroke-linecap="round"/><path d="M237.22269,83.05839c0.61981,-0.03272 1.1997,0.27158 1.63475,0.78956c0.43499,0.51705 0.72624,1.24864 0.76963,2.0705c0.04335,0.82182 -0.16918,1.58004 -0.54729,2.14003c-0.37811,0.56091 -0.92277,0.92458 -1.54252,0.9573c-0.61981,0.03272 -1.19971,-0.27159 -1.63475,-0.78957c-0.43505,-0.51705 -0.72622,-1.24865 -0.76963,-2.07045c-0.04341,-0.82187 0.16918,-1.58004 0.54729,-2.14003c0.37811,-0.56091 0.92278,-0.92463 1.54253,-0.95735z" data-paper-data="{&quot;index&quot;:null}" fill="url(#color-11)" stroke="#06cdd6" stroke-width="0.5" stroke-linecap="butt"/><path d="M248.29666,82.42123c0.61981,-0.03272 1.19879,0.25399 1.63233,0.74358c0.43354,0.48871 0.72267,1.18108 0.76376,1.9597c0.04112,0.77857 -0.17347,1.49756 -0.55313,2.02923c-0.37955,0.53248 -0.92514,0.87859 -1.54495,0.91131c-0.61975,0.03272 -1.19879,-0.25399 -1.63233,-0.74358c-0.43348,-0.48871 -0.72262,-1.18108 -0.76376,-1.95969c-0.04109,-0.77857 0.17352,-1.49756 0.55313,-2.02922c0.3796,-0.53248 0.9252,-0.8786 1.54495,-0.91132z" data-paper-data="{&quot;index&quot;:null}" fill="url(#color-12)" stroke="#06cdd6" stroke-width="0.5" stroke-linecap="butt"/><path d="M240.21558,112.60249l2.56207,-5.60886l2.42358,5.88584h5.53961l-4.63943,3.60075l1.80037,6.37055l-5.40112,-3.46226l-4.77792,3.11603l1.45415,-6.23206l-4.50094,-3.66999z" data-paper-data="{&quot;index&quot;:null}" fill="url(#color-13)" stroke="#c8c8c8" stroke-width="0" stroke-linecap="round"/><path d="M259.0523,87.89568l3.1967,-1.00007l-2.76206,2.00265l1.00669,3.28547l-2.07314,-2.80276l-3.01782,0.91397l2.58317,-1.91655l-1.02102,-3.31528z" data-paper-data="{&quot;index&quot;:null}" fill="url(#color-14)" stroke="#c2b763" stroke-width="0.5" stroke-linecap="round"/><path d="M237.05774,84.23329c0.3825,-0.02023 0.74125,0.20423 1.01288,0.58414c0.27154,0.37893 0.45486,0.91343 0.48644,1.5114c0.03159,0.59803 -0.09446,1.14883 -0.32459,1.5543c-0.23008,0.4064 -0.56324,0.66734 -0.94573,0.68757c-0.38254,0.02018 -0.7413,-0.20428 -1.01288,-0.58414c-0.27158,-0.37899 -0.4549,-0.91343 -0.48644,-1.51146c-0.03159,-0.59803 0.09445,-1.14883 0.32453,-1.55429c0.23008,-0.40635 0.56324,-0.66733 0.9458,-0.68751z" data-paper-data="{&quot;index&quot;:null}" fill="#0f1f43" stroke="none" stroke-width="1.91288" stroke-linecap="butt"/><path d="M248.65164,83.42126c0.38254,-0.02018 0.74114,0.20134 1.01246,0.57649c0.27132,0.37423 0.45428,0.90219 0.4855,1.49299c0.03117,0.59079 -0.09521,1.13505 -0.32556,1.53575c-0.23035,0.40165 -0.56365,0.6597 -0.94615,0.67992c-0.38254,0.02018 -0.74116,-0.20134 -1.01247,-0.57649c-0.27132,-0.37423 -0.45428,-0.90218 -0.48551,-1.49298c-0.03117,-0.59079 0.09516,-1.13505 0.32556,-1.53576c0.23035,-0.40165 0.56361,-0.65969 0.94616,-0.67993z" data-paper-data="{&quot;index&quot;:null}" fill="#0f1f43" stroke="none" stroke-width="1.90282" stroke-linecap="butt"/><path d="M243.31364,91.18937c0,0 -0.56965,1.39992 -1.18248,1.42495c-0.62321,0.02658 -1.37819,-1.28973 -1.37819,-1.28973" data-paper-data="{&quot;index&quot;:null}" fill="none" stroke="#d3c4aa" stroke-width="1" stroke-linecap="round"/><path d="M257.28403,77.63158c0.72117,-0.03809 1.40178,0.44583 1.91836,1.25804c0.51766,0.81221 0.87136,1.95269 0.93871,3.22884c0.06741,1.27611 -0.16424,2.44754 -0.59349,3.30966c-0.42818,0.86213 -1.05401,1.41504 -1.77518,1.45307c-0.72117,0.03809 -1.40177,-0.44582 -1.91835,-1.25803c-0.51766,-0.81216 -0.87136,-1.95264 -0.93871,-3.22879c-0.06741,-1.27614 0.16423,-2.44754 0.59348,-3.30971c0.42818,-0.86213 1.05407,-1.41499 1.77519,-1.45308z" data-paper-data="{&quot;index&quot;:null}" fill="#f5ded0" stroke="none" stroke-width="2.02785" stroke-linecap="butt"/><path d="M225.77501,80.4186c0.72117,-0.03809 1.40178,0.44583 1.91836,1.25804c0.51766,0.81221 0.87136,1.95268 0.93872,3.22884c0.06741,1.27611 -0.16423,2.44754 -0.59349,3.30966c-0.42818,0.86213 -1.05401,1.41504 -1.77519,1.45308c-0.72117,0.03809 -1.40178,-0.44583 -1.91837,-1.25805c-0.51766,-0.81216 -0.87136,-1.95263 -0.93871,-3.22877c-0.06741,-1.27614 0.16422,-2.44754 0.59347,-3.30971c0.42818,-0.86213 1.05408,-1.41499 1.77519,-1.45308z" data-paper-data="{&quot;index&quot;:null}" fill="#f5ded0" stroke="none" stroke-width="2.02785" stroke-linecap="butt"/><path d="M255.7477,72.19888c0.76937,0.45826 1.27367,1.47445 1.47733,2.17534c0.65093,2.26406 0.87013,4.86741 0.89232,6.97492c0.02194,2.40103 0.21134,4.93574 -0.66993,7.16227c-0.63276,1.59296 -2.05776,2.67221 -3.37418,3.5844c-0.84912,0.53217 -2.80505,1.32193 -2.85206,0.56979c-0.08908,-1.66696 1.83413,-3.57226 2.33693,-5.36376c0.52226,-1.85958 0.61843,-3.82981 0.74439,-5.75126c0.15334,-2.39561 -0.34632,-5.40757 0.09764,-8.07529c0.10987,-0.63884 0.77155,-1.24813 1.34754,-1.27642z" data-paper-data="{&quot;index&quot;:null}" fill="url(#color-15)" stroke="none" stroke-width="2.02785" stroke-linecap="round"/><g data-paper-data="{&quot;index&quot;:null}" fill="none" stroke="#000000" stroke-width="1" stroke-linecap="round"><path d="M246.58975,81.68227c0,0 1.53844,-1.15703 2.3776,-1.04752c1.27068,0.16666 3.34155,1.79655 3.34155,1.79655"/><path d="M253.41887,79.81625c0,0 -0.50522,0.50543 -0.84843,0.71973c-0.47441,0.29945 -1.49267,0.78207 -1.49267,0.78207"/><path d="M252.08807,78.67159c0,0 -0.42111,0.57743 -0.72701,0.84215c-0.42249,0.36917 -1.35393,1.00339 -1.35393,1.00339"/><path d="M249.88976,78.11797c0,0 -0.24231,0.6723 -0.46171,1.01221c-0.30203,0.47282 -1.0183,1.34273 -1.0183,1.34273"/></g><g data-paper-data="{&quot;index&quot;:null}" fill="none" stroke="#000000" stroke-width="1" stroke-linecap="round"><path d="M231.99151,83.35042c0,0 1.8877,-1.83888 3.13376,-2.13842c0.82296,-0.19732 2.47468,0.79126 2.47468,0.79126"/><path d="M233.09481,82.12499c0,0 -1.06346,-0.37274 -1.56678,-0.62053c-0.36386,-0.17697 -0.91952,-0.62635 -0.91952,-0.62635"/><path d="M233.86372,81.00393c0,0 -0.99307,-0.53263 -1.45205,-0.8552c-0.33212,-0.23106 -0.81166,-0.76095 -0.81166,-0.76095"/><path d="M235.52944,80.78285c0,0 -0.80389,-0.78967 -1.15403,-1.22801c-0.25404,-0.31493 -0.56576,-0.95797 -0.56576,-0.95797"/></g><g data-paper-data="{&quot;index&quot;:null}" stroke-linecap="round"><path d="M242.07152,95.58362c0.69924,-0.03691 1.2181,0.28202 1.81985,0.4433c0.78033,0.20908 2.13365,0.46952 2.27758,1.11163c0.17176,0.79178 -0.74116,1.40909 -1.63595,1.89048c-1.03745,0.55839 -2.42194,0.79596 -3.54006,0.44231c-1.21509,-0.44355 -2.52781,-1.01699 -2.7437,-2.00975c-0.12598,-0.57971 1.3952,-1.02044 2.05934,-1.24552c0.591,-0.19974 1.06376,-0.59554 1.76295,-0.63245z" fill="#ffb8a3" stroke="none" stroke-width="2.00235"/><path d="M245.55362,97.54289c0,0 -2.21719,0.77583 -3.4021,0.8038c-1.26325,0.01429 -3.35018,-0.65692 -3.35018,-0.65692" fill="none" stroke="#cc9881" stroke-width="1"/></g><path d="M249.61438,84.08833c0.11127,0.33995 0.12215,0.77334 0.00732,1.21824c-0.1148,0.44491 -0.33407,0.81887 -0.59601,1.0625c-0.26209,0.24429 -0.56604,0.35844 -0.85064,0.285c-0.28456,-0.07348 -0.49533,-0.32045 -0.60646,-0.6611c-0.1113,-0.33996 -0.12219,-0.77334 -0.00734,-1.21824c0.11482,-0.44486 0.33409,-0.81887 0.596,-1.06246c0.26213,-0.24433 0.5661,-0.35848 0.85066,-0.285c0.2846,0.07344 0.49537,0.32046 0.6065,0.66107z" data-paper-data="{&quot;index&quot;:null}" fill="#ffffff" stroke="none" stroke-width="1.91288" stroke-linecap="butt"/><path d="M237.81606,83.93369c0.11222,0.33642 0.12434,0.76494 0.01091,1.20446c-0.11347,0.43952 -0.33146,0.80866 -0.59249,1.04875c-0.26118,0.2408 -0.56457,0.35275 -0.84917,0.27931c-0.28456,-0.07348 -0.49589,-0.3183 -0.60793,-0.65542c-0.11219,-0.33641 -0.12434,-0.76494 -0.01091,-1.20447c0.11347,-0.43952 0.33146,-0.80865 0.5925,-1.04874c0.26118,-0.2408 0.56457,-0.35275 0.84918,-0.27931c0.28459,0.07348 0.49589,0.3183 0.60793,0.65541z" data-paper-data="{&quot;index&quot;:null}" fill="#ffffff" stroke="none" stroke-width="1.90282" stroke-linecap="butt"/><path d="M239.89792,59.29981c3.20132,-0.34724 6.44239,0.11783 9.39293,1.23337c2.77718,1.04814 4.19934,3.64771 6.65136,4.88913c1.76713,0.895 4.81688,0.27706 5.83942,1.42098c0.59364,0.68345 -2.93341,1.41152 -2.60702,2.23381c0.42425,1.04869 4.06918,0.14988 4.38721,1.70727c0.38529,2.13657 -1.12663,4.58608 -2.83193,5.91389c-1.55398,1.1574 -4.05194,1.46742 -5.73458,0.56483c-2.08285,-1.11837 -2.68371,-2.0104 -4.07986,-3.91853c-0.35132,-0.48035 -4.79682,6.77028 -7.62319,10.84706c-3.60785,1.67687 -10.6537,17.00415 -12.96767,15.5914c-10.23868,-6.16273 -6.82338,-25.71152 -6.82338,-25.71152c0,0 1.10397,-3.71096 2.37989,-5.79756c1.27593,-2.0866 2.3826,-4.2231 4.65212,-5.7023c2.76711,-1.80311 6.08106,-2.91504 9.36471,-3.27183z" data-paper-data="{&quot;index&quot;:null}" fill="url(#color-16)" stroke="none" stroke-width="2.02785" stroke-linecap="round"/><path d="M242.44477,112.76472c0.56137,0 1.07039,0.30593 1.43859,0.80085c0.36864,0.49449 0.59661,1.17739 0.59661,1.93121c0,0.75382 -0.22797,1.43672 -0.59661,1.93121c-0.3682,0.49478 -0.87722,0.80085 -1.43859,0.80085c-0.56123,0 -1.07025,-0.30607 -1.43845,-0.80085c-0.36864,-0.49449 -0.59661,-1.17739 -0.59661,-1.93121c0,-0.75382 0.22797,-1.43672 0.59661,-1.93121c0.36821,-0.49492 0.87722,-0.80085 1.43845,-0.80085z" data-paper-data="{&quot;index&quot;:null}" fill="url(#color-17)" stroke="#e2cb38" stroke-width="0.5" stroke-linecap="butt"/><path d="M241.91504,113.69515c0.22769,0 0.43379,0.14426 0.58309,0.3777c0.1493,0.23344 0.24164,0.55548 0.24164,0.91088c0,0.35555 -0.09234,0.67758 -0.24164,0.91102c-0.1493,0.23344 -0.3554,0.3777 -0.58309,0.3777c-0.22754,0 -0.43379,-0.14426 -0.58309,-0.3777c-0.1493,-0.23344 -0.24164,-0.55547 -0.24164,-0.91102c0,-0.35541 0.09234,-0.67744 0.24164,-0.91088c0.1493,-0.23344 0.35555,-0.3777 0.58309,-0.3777z" data-paper-data="{&quot;index&quot;:null}" fill="#ffffff" stroke="none" stroke-width="1" stroke-linecap="butt"/><path d="M206.58334,138.75l-1.33334,7l-14,-8l10.83334,-3.91666z" fill="#b8e9ef" stroke="#b8e9ef" stroke-width="2" stroke-linecap="round"/><path d="M277.875,137.25l5.75,-4.25l8.25,3.5l-10.75,7.75z" fill="#b8e9ef" stroke="#b8e9ef" stroke-width="2" stroke-linecap="round"/></g></g></svg>