<svg version="1.1" xmlns="http://www.w3.org/2000/svg" xmlns:xlink="http://www.w3.org/1999/xlink" width="119.159" height="160.32449" viewBox="0,0,119.159,160.32449"><defs><linearGradient x1="180.98763" y1="247.16668" x2="300.14663" y2="247.16668" gradientUnits="userSpaceOnUse" id="color-1"><stop offset="0" stop-color="#7481a6"/><stop offset="1" stop-color="#596486"/></linearGradient><linearGradient x1="240.5" y1="217.00001" x2="240.5" y2="250.00001" gradientUnits="userSpaceOnUse" id="color-2"><stop offset="0" stop-color="#7481a6"/><stop offset="1" stop-color="#939fc4"/></linearGradient><linearGradient x1="198.49501" y1="230.0009" x2="237.62491" y2="230.0009" gradientUnits="userSpaceOnUse" id="color-3"><stop offset="0" stop-color="#ff4545"/><stop offset="1" stop-color="#cb0000"/></linearGradient><linearGradient x1="225.38959" y1="230.55174" x2="254.97704" y2="230.55174" gradientUnits="userSpaceOnUse" id="color-4"><stop offset="0" stop-color="#ff4545"/><stop offset="1" stop-color="#cb0000"/></linearGradient></defs><g transform="translate(-180.98763,-104.67552)"><g data-paper-data="{&quot;isPaintingLayer&quot;:true}" fill-rule="nonzero" stroke-linejoin="miter" stroke-miterlimit="10" stroke-dasharray="" stroke-dashoffset="0" style="mix-blend-mode: normal"><path d="M300,248.50001c0,9.1127 -26.63905,16.5 -59.5,16.5c-32.86095,0 -59.5,-7.3873 -59.5,-16.5c0,-3.06185 -0.01237,-14.18471 -0.01237,-14.18471l60.17904,-4.98195l58.97996,4.35874c0,0 -0.14663,5.69523 -0.14663,14.80793z" data-paper-data="{&quot;origPos&quot;:null}" fill="url(#color-1)" stroke="none" stroke-width="0" stroke-linecap="butt"/><path d="M300,233.50001c0,9.1127 -26.63906,16.5 -59.5,16.5c-32.86094,0 -59.5,-7.3873 -59.5,-16.5c0,-9.1127 26.63906,-16.5 59.5,-16.5c32.86094,0 59.5,7.3873 59.5,16.5z" data-paper-data="{&quot;origPos&quot;:null}" fill="url(#color-2)" stroke="none" stroke-width="0" stroke-linecap="butt"/><path d="M229.79053,218.3507v-30.65683h6.11241v30.65683z" data-paper-data="{&quot;origPos&quot;:null}" fill="#227cfd" stroke="none" stroke-width="0" stroke-linecap="butt"/><path d="M241.03736,218.3507v-31.29552h6.6014v31.29552z" data-paper-data="{&quot;origPos&quot;:null}" fill="#227cfd" stroke="none" stroke-width="0" stroke-linecap="butt"/><path d="M198.49501,235.70994c0,-4.72611 8.75718,-14.18078 19.5597,-14.18078c0.47698,0 17.85998,0.24806 18.33678,0.26093c1.4304,0.03858 1.22292,-0.17925 1.22292,8.29644c0,4.72611 0,7.57939 0,7.57939c0,0 -39.1194,2.77013 -39.1194,-1.95597z" data-paper-data="{&quot;origPos&quot;:null}" fill="url(#color-3)" stroke="none" stroke-width="0" stroke-linecap="butt"/><path d="M219.82248,221.37217c4.61116,0.57639 7.53554,1.36043 8.85366,6.28645c0.96968,3.62383 1.3073,10.70052 0.10621,10.48335c-1.94482,-0.03669 -6.50402,1.26154 -8.74566,0.00179c-0.27054,-0.15204 -0.33236,-5.38711 -0.765,-7.65785c-0.47678,-2.50241 -3.99308,-8.82736 -3.99308,-8.82736c0,0 4.2296,-0.32564 4.54387,-0.28636z" data-paper-data="{&quot;origPos&quot;:null}" fill="#c0c0c0" stroke="none" stroke-width="0.5" stroke-linecap="butt"/><path d="M203.53734,153.67869c1.103,-1.46491 2.56789,-0.36192 2.56789,-0.36192l0.82697,1.47606c1.86766,4.35787 3.18442,8.93712 5.12465,13.30264c0.44934,1.35814 1.72978,2.49741 2.65054,3.58556c0.24268,0.2868 2.78288,0.6295 3.5419,0.39239c2.33726,-0.73016 4.44956,-1.69346 6.46931,-3.13613c0,0 1.49216,-1.06583 2.55799,0.42633c1.06583,1.49216 -0.42633,2.55799 -0.42633,2.55799c-2.68333,1.91667 -5.45946,2.85607 -8.49034,4.0145c-0.89746,0.34301 -2.64648,0.93243 -3.57782,0.4835c-2.53223,-1.2206 -4.85607,-4.36534 -6.07661,-6.83464c-1.94572,-4.37787 -3.27215,-8.97932 -5.1442,-13.34745l0.33797,0.00908c0,0 -1.46491,-1.103 -0.36192,-2.56789z" data-paper-data="{&quot;origPos&quot;:null}" fill="#ffdaa1" stroke="none" stroke-width="0.5" stroke-linecap="butt"/><g data-paper-data="{&quot;origPos&quot;:null,&quot;origRot&quot;:0}" fill="#ffffff" stroke="none" stroke-width="3.5" stroke-linecap="butt"><path d="M195.94583,155.05226c-2.91648,-4.12246 1.20943,-6.18028 2.13517,-7.13045c1.63788,-1.3449 4.06535,-1.13899 4.48048,-3.21722c0.32935,-1.64885 -2.27278,-7.72846 -0.61075,-7.98303c1.17988,-0.18073 1.61878,-1.43278 2.50726,-0.63566c2.66544,2.39134 4.45814,7.87682 6.83742,12.01857c2.23989,3.89912 -2.37685,6.4681 -6.19374,8.37327c-3.81689,1.90517 -6.43264,2.42382 -9.15584,-1.42545z" data-paper-data="{&quot;origRot&quot;:0,&quot;origPos&quot;:null}"/><path d="M200.29037,160.35582c-1.4788,-2.73773 -0.12677,-2.1923 5.28765,-5.07321c4.75288,-2.5289 5.4437,-3.06363 6.91097,-0.63723c1.31159,2.16897 -2.33605,3.27721 -5.28095,4.75199c-2.94491,1.47478 -6.05413,2.55708 -6.91765,0.95844z" data-paper-data="{&quot;origRot&quot;:0,&quot;origPos&quot;:null}"/></g><path d="M229.21853,158.96412c1.14467,-0.49057 2.15654,-0.88176 3.4118,-0.88176c3.91018,0 8.73294,-0.10529 12.42075,1.403c0.67904,0.27773 1.61005,1.31554 2.21462,1.75027c2.4093,1.73246 4.33008,3.8867 6.04975,6.29424c1.93847,2.76802 3.73718,5.60952 5.53476,8.48379c0.44887,0.71772 2.31705,2.65616 2.02494,3.55175c-0.39748,1.21863 -0.94895,2.43785 -1.79496,3.40082c-0.00102,0.00116 -1.87781,-0.47057 -1.90902,-0.47791c-1.19089,-0.28019 -2.54625,-0.55602 -3.84337,-0.5533c1.71946,1.74278 3.31813,3.53781 3.72615,6.08698c0.2033,1.27018 -1.52499,2.1785 -2.64639,2.80869c-0.2438,0.13701 -2.51199,-0.23034 -2.82876,-0.23034c-2.70038,0 -5.49332,0.19863 -8.17358,-0.13641c-7.49149,-1.07888 -17.96329,1.55931 -20.37774,-8.09847c-1.48114,-7.0419 3.54602,-20.69732 3.76444,-20.83367z" data-paper-data="{&quot;origPos&quot;:null}" fill="#227cfd" stroke="none" stroke-width="0.5" stroke-linecap="butt"/><path d="M243.50306,114.74202l15.19531,-10.0665l-2.70394,16.03661z" data-paper-data="{&quot;origPos&quot;:null,&quot;origRot&quot;:0,&quot;index&quot;:null}" fill="#217eff" stroke="none" stroke-width="0" stroke-linecap="butt"/><path d="M218.52748,121.25611l-2.04514,-16.13387l14.77044,10.68016z" data-paper-data="{&quot;origPos&quot;:null,&quot;index&quot;:null}" fill="#217eff" stroke="none" stroke-width="0" stroke-linecap="butt"/><path d="M215.12729,124.77309c2.55543,-3.32178 9.6195,-9.68127 9.6195,-9.68127c3.02934,-1.42946 14.53595,-4.62023 14.53595,-4.62023c9.48961,-2.88159 25.49471,-2.20747 25.79025,-2.15825c9.063,2.04826 4.21742,1.32719 6.72263,2.17904c3.42212,0.27367 11.08023,5.13265 11.08023,5.13265c0,0 -4.81003,2.923 -10.43188,4.99312c-1.51583,1.02872 -8.72055,4.55765 -10.99137,5.99933c0.58537,0.16608 12.73934,2.6461 18.33998,5.87921c5.60064,3.23311 5.90037,8.98477 5.90037,8.98477c0,0 -9.16801,1.82184 -11.48365,2.32087c-2.36759,0.51023 -6.98984,2.90475 -12.41438,4.23912c1.29644,0.94634 6.71297,-1.98318 14.64242,5.32888c2.60478,2.40196 6.89342,14.15891 6.89342,14.15891c0,0 -12.14362,-4.78061 -18.18944,-5.19031c-6.04582,-0.4097 -14.24291,1.75438 -15.04943,1.73456c-2.41958,-0.05943 -5.75509,0.59214 -16.29189,0.03071c-6.49529,-0.34847 -14.08694,-0.69291 -17.46382,-6.82087c-1.49893,-2.72008 -4.68268,-6.05578 -4.60526,-9.06011c0.21255,-7.88766 -1.40956,-17.17708 3.39635,-23.45012z" data-paper-data="{&quot;origPos&quot;:null,&quot;index&quot;:null}" fill="#227cfd" stroke="none" stroke-width="0.5" stroke-linecap="butt"/><path d="M255.08216,147.95732c-0.95361,0.15813 -1.90725,0.31627 -2.86087,0.4744c-1.49571,0.21247 -2.92259,-0.05215 -4.40445,0.05808c-5.15583,0.38354 -10.63463,0.2728 -15.80528,-0.34211c-2.07416,-0.2525 -4.15995,-0.9451 -6.23167,-1.105c-1.43179,-0.1105 -2.78782,0.33287 -4.2083,0.32574c-0.80045,-0.00401 -5.8083,0.55492 -8.14039,-0.13953c-1.47215,-0.43837 -0.08702,-12.24019 0.06255,-13.69618c0.31971,-3.04039 4.10164,-10.69576 10.32781,-7.08237c6.22619,3.61339 7.51919,12.14898 9.87019,12.23413c2.95046,0.10686 1.16034,-5.58932 8.89949,-10.47602c6.12896,-3.86999 15.32494,2.27197 16.04901,6.68865c1.10827,6.76016 1.84996,5.00729 -0.6811,11.44993l-2.78897,1.25669c0,0 -0.04035,0.00425 -0.10923,0.00473z" data-paper-data="{&quot;origPos&quot;:null,&quot;index&quot;:null}" fill="#ffffff" stroke="none" stroke-width="0.5" stroke-linecap="butt"/><path d="M243.11058,148.34309c3.84141,0.01313 11.26359,-4.28415 14.04808,-0.81674c1.27809,0.14212 2.03632,8.99577 -0.65068,11.57429c-1.65804,1.5911 -3.61752,2.09034 -5.64449,3.03874c0,0 -10.22629,3.07909 -14.01812,2.68367c-2.90454,-0.3029 -6.11291,-0.16001 -9.02478,-0.11367c-1.56128,0.02485 -3.08602,-0.14763 -4.63442,-0.46337c-1.79586,-0.36619 -4.23774,-1.22637 -5.21794,-2.53128c-0.42586,-0.5962 -2.68792,-2.14896 -3.08525,-2.70703c-0.70902,-0.99582 -0.77575,-1.72427 -1.47906,-2.74457c-1.77535,-2.57555 -1.5116,-6.63041 1.38419,-8.59225c1.48903,-1.0088 2.7212,-1.51233 4.48551,-1.76887c2.85314,-0.35541 21.02056,2.43143 23.83695,2.44108z" data-paper-data="{&quot;origPos&quot;:null,&quot;index&quot;:null}" fill="#ffdaa1" stroke="none" stroke-width="0.5" stroke-linecap="butt"/><path d="M213.5965,150.76826l-0.09146,0.07987c-2.0412,-0.34794 -3.07046,-0.99466 -4.20364,-2.59355c0,0 -0.79988,-1.12862 -0.02991,-2.12007c0.41432,-1.21356 1.82054,-1.13761 1.82054,-1.13761l-1.05723,-0.08642c1.94058,-0.33402 5.22354,2.7602 7.0108,3.47391c0,0 -0.4976,0.75024 -0.96772,1.63037c-0.86394,1.61745 -2.48139,0.75349 -2.48139,0.75349z" data-paper-data="{&quot;origPos&quot;:null,&quot;index&quot;:null}" fill="#000000" stroke="none" stroke-width="0.5" stroke-linecap="butt"/><path d="M251.29304,154.52456c0,0 -1.57636,1.92341 -3.05479,2.68503c-1.67037,0.86049 -5.01358,1.47142 -5.01358,1.47142" data-paper-data="{&quot;origPos&quot;:null,&quot;index&quot;:null}" fill="none" stroke="#000000" stroke-width="2" stroke-linecap="round"/><path d="M247.34221,135.40096c1.31772,0 2.38594,1.97037 2.38594,4.40093c0,2.43057 -1.06822,4.40093 -2.38594,4.40093c-1.31772,0 -2.38594,-1.97037 -2.38594,-4.40093c0,-2.43057 1.06822,-4.40093 2.38594,-4.40093z" data-paper-data="{&quot;origPos&quot;:null,&quot;index&quot;:null}" fill="#000000" stroke="#34c200" stroke-width="1.5" stroke-linecap="butt"/><path d="M224.75867,134.54888c1.31772,0 2.38594,1.97037 2.38594,4.40093c0,2.43057 -1.06822,4.40093 -2.38594,4.40093c-1.31772,0 -2.38594,-1.97037 -2.38594,-4.40093c0,-2.43057 1.06822,-4.40093 2.38594,-4.40093z" data-paper-data="{&quot;origPos&quot;:null,&quot;index&quot;:null}" fill="#000000" stroke="#34c200" stroke-width="1.5" stroke-linecap="butt"/><path d="M244.22884,116.49104l12.6901,-9.17591l-1.75709,13.86148z" data-paper-data="{&quot;origPos&quot;:null,&quot;index&quot;:null}" fill="#ffdaa1" stroke="none" stroke-width="0" stroke-linecap="butt"/><path d="M241.67668,176.23622c0,6.38025 -3.73548,11.55245 -8.34344,11.55245c-4.60795,0 -8.34344,-5.1722 -8.34344,-11.55245c0,-6.38025 3.73548,-11.55245 8.34344,-11.55245c4.60795,0 8.34344,5.1722 8.34344,11.55245z" data-paper-data="{&quot;origPos&quot;:null}" fill="#ffdaa1" stroke="none" stroke-width="0" stroke-linecap="butt"/><path d="M246.9807,182.00235c-0.23663,0.3079 -0.61909,0.56496 -1.23472,0.63884c-1.82066,0.21848 -2.03914,-1.60219 -2.03914,-1.60219l3.4701,-2.0431c2.42248,0.24225 6.31194,0.8121 8.59282,-0.11453c2.37737,-0.96582 4.98751,-3.73429 4.00855,-6.1817c0.18533,-1.42474 -2.82635,-2.44823 -3.82835,-2.79222c-3.25175,-1.11634 -6.65763,-1.07008 -10.05572,-1.02427v0.01813h-2.0171c-0.23177,0 -0.45349,-0.043 -0.65763,-0.12144c-0.52603,-0.17872 -1.1761,-0.62047 -1.1761,-1.71228c0,-1.09181 0.65007,-1.53355 1.1761,-1.71228c0.05548,-0.02132 0.11225,-0.04002 0.17017,-0.05595l1.79426,-0.53828l0.13919,0.46397c6.39991,-0.06267 14.64159,-0.2712 17.8603,6.11255c1.67284,4.18213 -1.58532,9.12471 -5.5268,10.68855c-3.24978,1.2894 -7.43578,0.95985 -10.84463,0.61896z" data-paper-data="{&quot;origPos&quot;:null}" fill="#ffdaa1" stroke="none" stroke-width="0.5" stroke-linecap="butt"/><g data-paper-data="{&quot;origPos&quot;:null,&quot;origRot&quot;:0}" fill="#ffffff" stroke="none" stroke-width="3.5" stroke-linecap="butt"><path d="M244.29255,193.23907c-5.37612,2.52346 -6.99693,-2.16342 -9.67257,-6.93979c-2.45196,-4.37706 1.19397,-10.97243 4.80501,-12.26838c4.97758,-1.78638 6.99645,4.0901 8.41233,8.90319c1.41589,4.8131 1.47509,7.94874 -3.54477,10.30498z" data-paper-data="{&quot;origRot&quot;:0,&quot;origPos&quot;:null}"/><path d="M251.33155,189.30669c-3.47551,1.14556 -2.56432,-0.30686 -4.77928,-7.17135c-1.94433,-6.02579 -2.42045,-6.93623 0.69226,-8.13284c2.78245,-1.06965 3.31075,3.3826 4.40877,7.09715c1.09803,3.71455 1.70769,7.53812 -0.32176,8.20703z" data-paper-data="{&quot;origRot&quot;:0,&quot;origPos&quot;:null}"/></g><g data-paper-data="{&quot;origPos&quot;:null}" fill="#c0c0c0" stroke="none" stroke-width="3.5" stroke-linecap="butt"><path d="M225.54005,219.50013c-0.18031,-3.41197 0.90491,-2.23508 7.63222,-2.54828c5.90536,-0.27493 6.84229,-0.48076 7.15751,2.61685c0.28177,2.76895 -3.85889,2.15377 -7.47457,2.23267c-3.61567,0.07891 -7.20988,-0.3089 -7.31516,-2.30124z" data-paper-data="{&quot;origRot&quot;:0,&quot;origPos&quot;:null}"/><path d="M225.54005,223.90106c-0.18031,-3.41197 0.90491,-2.23508 7.63222,-2.54828c5.90536,-0.27493 6.84229,-0.48076 7.15751,2.61685c0.28177,2.76895 -3.85889,2.15377 -7.47457,2.23267c-3.61567,0.07891 -7.20988,-0.3089 -7.31516,-2.30124z" data-paper-data="{&quot;origRot&quot;:0,&quot;origPos&quot;:null}"/></g><path d="M236.5,237.25l-13.25,1.5h-11.5l-8,-0.75l-4.75,-1.5" data-paper-data="{&quot;origPos&quot;:null}" fill="none" stroke="#9c9c9c" stroke-width="2.5" stroke-linecap="round"/><path d="M253.25,234.75l-0.23058,3.12l-2.53641,1.82l-2.99757,1.3l-6.45631,0.26h-5.53398l-3.68932,-1.3l-2.30583,-2.34" data-paper-data="{&quot;origPos&quot;:null}" fill="none" stroke="#c0c0c0" stroke-width="2.5" stroke-linecap="round"/><path d="M229.05704,236.68793c0,-4.7261 4.84523,-14.91427 15.64776,-14.91427c0.42564,0 5.10489,1.45178 5.36192,1.79105c0.77107,1.01781 6.28335,7.71313 3.43951,13.38416c-1.96816,3.9248 -24.44919,4.46517 -24.44919,-0.26093z" data-paper-data="{&quot;origPos&quot;:null}" fill="url(#color-4)" stroke="none" stroke-width="0" stroke-linecap="butt"/><path d="M228.89969,236.08783c1.57803,-3.68205 3.53308,-8.70086 7.44227,-10.37622c6.91286,-2.96265 17.83708,0.31816 17.83708,9.14259c0,0 0.2445,2.91958 -1.58922,2.91958c-1.83372,0 -3.59476,-7.09971 -8.06837,-6.22027c-0.28779,0.05657 -6.35759,-0.18768 -6.73479,-0.02602c-2.50732,1.07457 -6.55765,6.19281 -7.07815,7.49195c-0.29212,0.72911 -1.80882,-2.9316 -1.80882,-2.9316z" data-paper-data="{&quot;origPos&quot;:null}" fill="#ffffff" stroke="none" stroke-width="0.5" stroke-linecap="butt"/><g data-paper-data="{&quot;origPos&quot;:null}" fill="#ffffff" stroke="none" stroke-width="3.5" stroke-linecap="butt"><path d="M236.05339,219.50013c-0.18031,-3.41197 0.90491,-2.23508 7.63222,-2.54828c5.90536,-0.27493 6.84229,-0.48076 7.15751,2.61685c0.28177,2.76895 -3.85889,2.15377 -7.47457,2.23267c-3.61567,0.07891 -7.20988,-0.3089 -7.31516,-2.30124z" data-paper-data="{&quot;origRot&quot;:0,&quot;origPos&quot;:null}"/><path d="M236.05339,223.90106c-0.18031,-3.41197 0.90491,-2.23508 7.63222,-2.54828c5.90536,-0.27493 6.84229,-0.48076 7.15751,2.61685c0.28177,2.76895 -3.85889,2.15377 -7.47457,2.23267c-3.61567,0.07891 -7.20988,-0.3089 -7.31516,-2.30124z" data-paper-data="{&quot;origRot&quot;:0,&quot;origPos&quot;:null}"/></g></g></g></svg>