<svg viewBox="0,0,226.56168,44.06373" height="44.06373" width="226.56168" xmlns:xlink="http://www.w3.org/1999/xlink" xmlns="http://www.w3.org/2000/svg" version="1.1"><defs><radialGradient id="color-1" gradientUnits="userSpaceOnUse" r="117.21791" cy="189.67182" cx="245.7777"><stop stop-color="#000000" offset="0"></stop><stop stop-opacity="0" stop-color="#000000" offset="1"></stop></radialGradient><linearGradient id="color-2" gradientUnits="userSpaceOnUse" y2="202.15507" x2="128.55978" y1="177.18857" x1="128.55978"><stop stop-opacity="0" stop-color="#000000" offset="0"></stop><stop stop-opacity="0" stop-color="#000000" offset="1"></stop></linearGradient><linearGradient id="color-3" gradientUnits="userSpaceOnUse" y2="179.63177" x2="354.21663" y1="179.63177" x1="136.09478"><stop stop-color="#fff18e" offset="0"></stop><stop stop-color="#eed16d" offset="1"></stop></linearGradient><linearGradient id="color-4" gradientUnits="userSpaceOnUse" y2="164.32732" x2="353.05423" y1="175.10256" x1="353.05423"><stop stop-color="#fff18e" offset="0"></stop><stop stop-color="#eed16d" offset="1"></stop></linearGradient><linearGradient id="color-5" gradientUnits="userSpaceOnUse" y2="196.10186" x2="353.05423" y1="185.85762" x1="353.05423"><stop stop-color="#fff18e" offset="0"></stop><stop stop-color="#eed16d" offset="1"></stop></linearGradient></defs><g transform="translate(-133.84627,-158.45842)"><g style="mix-blend-mode: normal" stroke-dashoffset="0" stroke-dasharray="" stroke-miterlimit="10" stroke-linejoin="miter" fill-rule="nonzero" data-paper-data="{&quot;isPaintingLayer&quot;:true}"><text style="mix-blend-mode: normal" text-anchor="start" font-weight="400" font-family="Sans Serif" stroke-dashoffset="0" stroke-dasharray="" stroke-miterlimit="10" stroke-linejoin="miter" stroke-linecap="butt" stroke-width="1" stroke="none" fill-rule="nonzero" fill="#3e444c" data-paper-data="{&quot;origPos&quot;:null}" xml:space="preserve" font-size="22" transform="translate(167.51071,186.89803) scale(1.36551,1.19327)"><tspan dy="0" x="0">Time Trials</tspan></text><path stroke-linecap="round" stroke-width="4.11922" stroke="url(#color-2)" fill="url(#color-1)" d="M136.04312,177.18857l217.21696,-0.66673v5.22768l-12.42931,18.71303h-190.84141l-13.57855,-17.59567z"></path><path stroke-linecap="butt" stroke-width="0" stroke="none" fill="#8e807f" d="M342.09874,162.22973l12.30649,18.70666l-12.30649,17.51262h-188.70588c-0.32192,-4.0464 -0.27292,-8.15462 -0.51273,-12.20327c-0.32298,-5.45295 -0.43268,-11.20799 0.1657,-16.6385c0.27138,-2.46286 0.59722,-4.9213 0.94443,-7.37751z"></path><path stroke-linecap="butt" stroke-width="0" stroke="none" fill="url(#color-3)" d="M148.82562,197.74141l-12.73084,-16.71659l12.73084,-19.50269h193.08452l12.30649,18.70666l-12.30649,17.51262z"></path><g stroke-linecap="butt" stroke="none" data-paper-data="{&quot;index&quot;:null}"><path stroke-width="NaN" fill="#8e807f" data-paper-data="{&quot;index&quot;:null}" d="M350.03197,163.76339l10.37598,16.63218h-4.07281l-10.37598,-16.63218z"></path><path stroke-width="NaN" fill="#8e807f" data-paper-data="{&quot;index&quot;:null}" d="M345.95914,197.88157l10.37598,-15.81253h4.07281l-10.37598,15.81253z"></path><path stroke-width="NaN" fill="url(#color-4)" data-paper-data="{&quot;index&quot;:null}" d="M350.03197,163.12589l10.37598,16.63218h-4.07281l-10.37598,-16.63218z"></path><path stroke-width="NaN" fill="url(#color-5)" data-paper-data="{&quot;index&quot;:null}" d="M345.95914,197.24408l10.37598,-15.81253h4.07281l-10.37598,15.81253z"></path></g><g stroke-linecap="round" stroke="#fff5ac"><path stroke-width="0.65" fill="none" data-paper-data="{&quot;index&quot;:null}" d="M247.82657,197.11534c0.38915,-0.8721 2.29132,-2.72147 5.06924,-4.71133l0.16352,-0.22875c-0.67599,-4.50881 -0.63617,-8.10636 -0.11451,-8.45543c0.48867,-0.31361 3.10207,1.4791 6.00559,4.46575l0.22498,0.02516c3.34445,-2.07746 5.96254,-3.08291 6.37965,-2.68174c0.24852,0.23899 0.52359,2.63813 -0.3551,5.3215c-0.30955,0.9453 -0.87584,1.72155 -1.26005,2.80044c0,0 0.97437,1.09611 2.10717,2.69995c0.13314,0.18851 0.26356,0.37951 0.39022,0.57088"></path><g stroke-width="0" fill="#fff5ac"><path d="M258.45781,190.61686c0.25005,-0.18277 0.62375,-0.10135 0.87777,0.13749c0.4609,0.43354 0.79928,1.0917 1.08119,1.72924c0.26365,0.58619 0.46919,1.23699 0.52833,1.87935c0.03718,0.37534 0.01105,0.85484 -0.23763,1.01783c-0.23955,0.15688 -0.54599,0.07335 -0.86309,-0.2332c-0.40283,-0.38658 -0.76426,-0.93141 -1.09583,-1.63357c-0.33159,-0.70221 -0.54182,-1.31724 -0.60278,-1.96348c-0.04085,-0.42613 0.08911,-0.79995 0.31203,-0.93368z"></path></g><g stroke-width="0" fill="#fff5ac"><path d="M255.08044,192.8484c0.25005,-0.18277 0.62375,-0.10135 0.87777,0.13748c0.4609,0.43354 0.79927,1.09171 1.08117,1.72925c0.26365,0.58619 0.46921,1.237 0.52833,1.87935c0.01267,0.12781 0.01798,0.26769 0.00966,0.40303c-0.48054,0.01237 -0.95722,0.02346 -1.42933,0.03201c-0.27777,-0.34422 -0.53524,-0.77232 -0.77685,-1.28396c-0.33159,-0.70221 -0.54181,-1.31724 -0.60278,-1.96348c-0.04085,-0.42613 0.08911,-0.79995 0.31203,-0.93368z"></path></g></g><g stroke-linecap="round" stroke="#fff5ac"><path stroke-width="0.65" fill="none" data-paper-data="{&quot;index&quot;:null}" d="M238.44745,177.50969c0.14891,-0.7957 0.83316,-2.54442 0.83316,-2.54442c0,0 -1.51713,-0.98619 -2.01948,-1.46379c-1.15058,-1.0939 -1.5786,-2.19277 -1.47201,-2.37367c0.13209,-0.22418 1.45219,-0.69264 2.71854,-0.92198c1.01265,-0.18339 1.7803,-0.24118 1.7803,-0.24118c0.2536,-0.92329 0.29491,-1.6008 0.53541,-2.34598c0.49211,-1.52481 1.42056,-2.49753 1.67896,-2.49483c0.35368,0.0037 1.24236,1.82839 2.09751,4.57283l0.10328,0.15351c2.48231,0.00542 4.39661,0.45842 4.52309,0.90351c0.11133,0.41538 -1.14409,2.22961 -3.06954,4.12845l-0.03919,0.17133c0.72518,2.8347 0.96171,4.98092 0.69998,5.25697c-0.15592,0.16448 -1.46707,0.09604 -2.79773,-0.89956c-0.46878,-0.35071 -0.81798,-0.88053 -1.34945,-1.30478c0,0 -0.69619,0.62623 -1.68136,1.31559c-1.11149,0.77776 -2.31722,1.33429 -2.50623,1.18588c-0.16213,-0.12732 -0.34538,-1.441 -0.03527,-3.09791z"></path><g stroke-width="0" fill="#fff5ac"><path d="M244.91626,174.21522c0.06885,0.21517 -0.01735,0.4951 -0.17383,0.66387c-0.284,0.3062 -0.67382,0.49109 -1.04615,0.63467c-0.34285,0.13545 -0.71351,0.21834 -1.0629,0.18875c-0.20445,-0.01524 -0.45723,-0.09176 -0.51569,-0.30353c-0.05626,-0.20398 0.02338,-0.43158 0.2232,-0.64125c0.2523,-0.26669 0.58429,-0.48277 0.99677,-0.65723c0.41251,-0.17448 0.76464,-0.2652 1.11631,-0.23656c0.23197,0.01835 0.41648,0.16292 0.46228,0.35131z"></path></g><g stroke-width="0" fill="#fff5ac"><path d="M244.11269,171.33692c0.06885,0.21517 -0.01735,0.49511 -0.17383,0.66388c-0.284,0.3062 -0.67382,0.49106 -1.04615,0.63465c-0.34285,0.13545 -0.71351,0.21834 -1.06289,0.18875c-0.20445,-0.01524 -0.45723,-0.09176 -0.51569,-0.30353c-0.05626,-0.20398 0.02338,-0.43158 0.2232,-0.64123c0.2523,-0.26669 0.5843,-0.48277 0.99678,-0.65723c0.41251,-0.17448 0.76462,-0.26517 1.1163,-0.23658c0.23197,0.01835 0.41648,0.16292 0.46228,0.35131z"></path></g></g><g stroke-linecap="round" stroke="#fff5ac"><path stroke-width="0.65" fill="none" data-paper-data="{&quot;index&quot;:null}" d="M283.14224,161.49584c0.23461,0.58786 0.46527,1.33028 0.63112,2.18908l-0.00001,-0.00002c0.20368,1.05446 0.22583,3.62651 0.22583,3.62651c0,0 2.28047,0.09349 3.10794,0.3045c1.89523,0.48325 2.9317,1.48767 2.89131,1.77926c-0.05004,0.36136 -1.39891,1.861 -2.79825,3.03732c-1.11903,0.94064 -2.0062,1.5569 -2.0062,1.5569c0.14,1.28119 0.4153,2.1181 0.48562,3.17769c0.14389,2.16813 -0.4967,3.98945 -0.80593,4.17049c-0.42328,0.24779 -2.35641,-1.29316 -4.69015,-3.95417l-0.19663,-0.1093c-2.96096,1.76358 -5.45942,2.58872 -5.82331,2.14847c-0.33164,-0.41566 0.29552,-3.47302 1.68069,-7.10901l-0.03538,-0.23213c-2.22207,-2.86125 -3.53201,-5.25042 -3.35232,-5.76604c0.10704,-0.3072 1.70243,-1.16059 3.76518,-0.92288c0.72668,0.08373 1.39663,0.46615 2.23323,0.59277c0,0 0.52977,-1.24275 1.37364,-2.76681c0.36067,-0.65133 0.75266,-1.27449 1.11658,-1.79507"></path><g stroke-width="0" fill="#fff5ac"><path d="M277.64198,172.22386c-0.18512,-0.20733 -0.21647,-0.60242 -0.11083,-0.91513c0.19182,-0.56742 0.56781,-1.06574 0.94275,-1.50235c0.34371,-0.40591 0.74576,-0.76897 1.17633,-0.98287c0.25097,-0.12763 0.58887,-0.21668 0.75998,-0.00598c0.16475,0.20299 0.17886,0.53101 0.04117,0.92337c-0.17294,0.49775 -0.46511,0.99199 -0.87313,1.49405c-0.40805,0.5021 -0.78426,0.86128 -1.21707,1.07793c-0.28525,0.14354 -0.57438,0.10282 -0.71921,-0.08904z"></path></g><g stroke-width="0" fill="#fff5ac"><path d="M279.97837,175.08117c-0.18512,-0.20733 -0.21647,-0.60245 -0.11083,-0.91515c0.19182,-0.56742 0.56782,-1.06572 0.94277,-1.50232c0.34371,-0.40591 0.74576,-0.76897 1.17632,-0.98287c0.25097,-0.12763 0.58887,-0.21668 0.75998,-0.00598c0.16475,0.20299 0.17886,0.53101 0.04116,0.92337c-0.17294,0.49775 -0.46511,0.99199 -0.87313,1.49405c-0.40805,0.5021 -0.78426,0.86126 -1.21707,1.07793c-0.28525,0.14354 -0.57439,0.10282 -0.71921,-0.08904z"></path></g></g><g stroke-linecap="round" stroke="#fff5ac" data-paper-data="{&quot;index&quot;:null}"><path stroke-width="0.65" fill="none" data-paper-data="{&quot;index&quot;:null}" d="M324.90548,161.59564c0.0773,0.43805 0.14079,0.91234 0.18264,1.41629h-0.00003c0.10454,1.25858 -0.19003,4.24047 -0.19003,4.24047c0,0 2.62863,0.5309 3.56035,0.92854c2.13407,0.91074 3.20901,2.26571 3.12595,2.5958c-0.10293,0.40909 -1.8513,1.89532 -3.61786,2.99788c-1.41268,0.88166 -2.51654,1.43071 -2.51654,1.43071c0.0026,1.50926 0.21713,2.52922 0.16661,3.76901c-0.10335,2.53686 -1.07172,4.5268 -1.45229,4.6791c-0.5209,0.20843 -2.56717,-1.9339 -4.93781,-5.44723l-0.21406,-0.16299c-3.64766,1.49305 -6.64299,1.98534 -7.00951,1.40818c-0.33222,-0.54268 0.77452,-3.96615 2.83088,-7.91908l-0.01206,-0.27533c-2.21644,-3.72448 -3.43558,-6.73332 -3.16333,-7.29699c0.16218,-0.33583 2.1155,-1.02819 4.47408,-0.37068c0.83088,0.2316 1.55893,0.79853 2.51175,1.10017c0,0 0.76807,-1.34062 1.93481,-2.94872c0.08805,-0.12134 0.17711,-0.2415 0.26678,-0.36003"></path><g stroke-width="0" fill="#fff5ac"><path d="M316.92636,171.76172c-0.18853,-0.27435 -0.17562,-0.7376 -0.01438,-1.08007c0.29273,-0.62141 0.79005,-1.12865 1.27853,-1.56466c0.44848,-0.40624 0.95915,-0.75209 1.48428,-0.91993c0.30645,-0.10124 0.70875,-0.14173 0.88061,0.13392c0.16546,0.26554 0.14096,0.64797 -0.06729,1.07669c-0.26221,0.54423 -0.662,1.06229 -1.1969,1.56794c-0.53494,0.50568 -1.0152,0.8518 -1.54329,1.02242c-0.34812,0.11332 -0.6778,0.01258 -0.8216,-0.2364z"></path></g><g stroke-width="0" fill="#fff5ac"><path d="M319.27564,175.50279c-0.18853,-0.27435 -0.17563,-0.7376 -0.0144,-1.08007c0.29273,-0.62141 0.79006,-1.12863 1.27854,-1.56462c0.44848,-0.40624 0.95917,-0.75209 1.48429,-0.91993c0.30645,-0.10124 0.70874,-0.14173 0.88061,0.13392c0.16546,0.26554 0.14096,0.64793 -0.06731,1.07666c-0.26221,0.54423 -0.66198,1.06229 -1.19689,1.56794c-0.53494,0.50568 -1.0152,0.85178 -1.54329,1.02244c-0.34812,0.11332 -0.6778,0.01258 -0.82159,-0.23638z"></path></g></g><g stroke-linecap="round" stroke="#fff5ac" data-paper-data="{&quot;index&quot;:null}"><path stroke-width="0.65" fill="none" data-paper-data="{&quot;index&quot;:null}" d="M324.04224,196.48004c0.22095,-0.62805 1.38155,-2.09755 3.03813,-3.62564l0.03919,-0.16026c-0.72517,-2.65151 -0.96171,-4.659 -0.69998,-4.91721c0.15592,-0.15385 1.46708,-0.08983 2.79773,0.84143c0.46878,0.32806 0.81797,0.82363 1.34944,1.22045c0,0 0.69619,-0.58574 1.68136,-1.23056c1.11151,-0.72749 2.31722,-1.24807 2.50623,-1.10922c0.16213,0.11908 0.34538,1.34786 0.03527,2.89768h-0.00001c-0.14891,0.74425 -0.83316,2.37997 -0.83316,2.37997c0,0 1.51713,0.92244 2.01948,1.36919c1.15058,1.02321 1.5786,2.05106 1.47203,2.22027c-0.12164,0.19309 -1.25071,0.57996 -2.4175,0.80748"></path><g stroke-width="0" fill="#fff5ac"><path d="M328.32078,193.4782c-0.06886,-0.20127 0.01735,-0.4631 0.17383,-0.62096c0.284,-0.28641 0.67382,-0.45934 1.04615,-0.59365c0.34285,-0.1267 0.71351,-0.20422 1.06289,-0.17656c0.20445,0.01425 0.45723,0.08583 0.51569,0.28392c0.05626,0.19079 -0.02338,0.40368 -0.22318,0.5998c-0.25232,0.24946 -0.5843,0.45156 -0.99678,0.61475c-0.41251,0.16321 -0.76464,0.24805 -1.11631,0.22128c-0.23197,-0.01717 -0.41647,-0.15239 -0.46228,-0.32861z"></path></g><g stroke-width="0" fill="#fff5ac"><path d="M329.29817,195.5495c0.284,-0.28641 0.67382,-0.45933 1.04615,-0.59362c0.34285,-0.1267 0.71352,-0.20422 1.0629,-0.17656c0.20445,0.01425 0.45723,0.08583 0.51569,0.28392c0.05626,0.19079 -0.02338,0.40368 -0.2232,0.59979c-0.22952,0.22692 -0.52495,0.41464 -0.88692,0.56956c-0.56748,-0.06734 -1.13718,-0.11245 -1.70647,-0.13557c-0.02951,-0.18811 0.05383,-0.40826 0.19186,-0.54752z"></path></g></g><g stroke-linecap="round" stroke="#fff5ac" data-paper-data="{&quot;index&quot;:null}"><path stroke-width="0.65" fill="none" data-paper-data="{&quot;index&quot;:null}" d="M287.85843,198.10887c-1.54281,-1.01256 -2.43896,-2.61082 -2.39965,-3.02128c0.05449,-0.56894 2.15497,-1.7393 5.24544,-2.72437l0.18078,-0.14441c0.36027,-3.99606 1.12355,-7.01367 1.623,-7.15375c0.46517,-0.11994 2.24821,2.16044 4.02712,5.53178l0.17973,0.08755c3.16956,-0.76292 5.52467,-0.83733 5.78591,-0.3765c0.15563,0.27454 -0.10558,2.37589 -1.37241,4.37628c-0.44628,0.70471 -1.06919,1.19133 -1.60393,1.98651c0,0 0.24148,0.50575 0.57564,1.31842"></path><g stroke-width="0" fill="#fff5ac"><path d="M295.63671,192.49883c0.24255,-0.08015 0.53301,0.09863 0.69322,0.37467c0.29063,0.50101 0.43498,1.15505 0.5371,1.77501c0.09757,0.57136 0.1343,1.18002 0.05241,1.73836c-0.04567,0.32704 -0.16453,0.7231 -0.40192,0.78701c-0.22865,0.06146 -0.46344,-0.09926 -0.66171,-0.45091c-0.25243,-0.44433 -0.43874,-1.00973 -0.56855,-1.69878c-0.12982,-0.68911 -0.17766,-1.26904 -0.09649,-1.83117c0.05297,-0.37089 0.23566,-0.64732 0.44598,-0.69417z"></path></g><g stroke-width="0" fill="#fff5ac"><path d="M292.4088,193.38176c0.24255,-0.08015 0.53304,0.09863 0.69323,0.37467c0.29063,0.50101 0.43495,1.15505 0.53707,1.77503c0.09757,0.57136 0.1343,1.18002 0.05241,1.73835c-0.03634,0.26006 -0.11892,0.56378 -0.2706,0.7094c-0.14749,0.00858 -0.29481,0.01767 -0.44185,0.02726c-0.12335,-0.07299 -0.24274,-0.20822 -0.35118,-0.40059c-0.25243,-0.44433 -0.43874,-1.00971 -0.56854,-1.69877c-0.12982,-0.68911 -0.17765,-1.269 -0.09651,-1.83117c0.05297,-0.37089 0.23567,-0.64732 0.44598,-0.69417z"></path></g></g><g stroke-linecap="round" stroke="#fff5ac" data-paper-data="{&quot;index&quot;:null}"><path stroke-width="0.65" fill="none" data-paper-data="{&quot;index&quot;:null}" d="M347.43772,184.34262c-0.39063,-0.25192 -1.18812,-1.08349 -1.18812,-1.08349c0,0 -0.77502,1.01243 -1.11065,1.32185c-0.7687,0.70869 -1.41647,0.85404 -1.49285,0.74015c-0.09464,-0.14115 -0.11397,-1.24885 -0.01745,-2.27381c0.0772,-0.81966 0.17819,-1.4271 0.17819,-1.4271c-0.43944,-0.35524 -0.78669,-0.5032 -1.13524,-0.81779c-0.71322,-0.64373 -1.06318,-1.53273 -1.0176,-1.73343c0.06239,-0.27469 1.16846,-0.65458 2.74976,-0.85116l0.09793,-0.05415c0.42715,-1.93141 0.99124,-3.34416 1.24559,-3.36654c0.23623,-0.01566 0.97035,1.27171 1.63417,3.09516l0.0829,0.05978c1.60629,-0.07997 2.769,0.10274 2.86863,0.3537c0.05935,0.14949 -0.20055,1.15845 -0.94862,2.02412c-0.26353,0.30495 -0.60027,0.48623 -0.91295,0.82744c0,0 0.20846,0.64901 0.40056,1.53371c0.21672,0.99819 0.30165,2.03189 0.19173,2.15365c-0.09429,0.10444 -0.81257,0.02254 -1.62598,-0.50207z"></path><g stroke-width="0" fill="#fff5ac"><path d="M346.82071,178.74389c0.12429,-0.01681 0.25594,0.09813 0.31743,0.24879c0.11156,0.27343 0.14162,0.60847 0.15305,0.92286c0.01223,0.29005 -0.00778,0.59274 -0.08298,0.85966c-0.04291,0.15657 -0.12613,0.34023 -0.24687,0.34956c-0.11627,0.00891 -0.22168,-0.09198 -0.29717,-0.28335c-0.09633,-0.24198 -0.15258,-0.53736 -0.17328,-0.88828c-0.02073,-0.35095 -0.00799,-0.64057 0.06711,-0.90944c0.04924,-0.17744 0.15638,-0.29635 0.26273,-0.29981z"></path></g><g stroke-width="0" fill="#fff5ac"><path d="M345.17824,178.87745c0.12429,-0.01681 0.25594,0.09813 0.31745,0.24879c0.11156,0.27343 0.14162,0.60849 0.15305,0.92286c0.01223,0.29005 -0.0078,0.59276 -0.08298,0.85966c-0.04291,0.15657 -0.12613,0.34023 -0.24687,0.34955c-0.11627,0.00891 -0.22168,-0.09196 -0.29717,-0.28335c-0.09633,-0.24198 -0.15258,-0.53736 -0.17331,-0.88828c-0.02073,-0.35095 -0.00797,-0.64055 0.06711,-0.90942c0.04924,-0.17744 0.15638,-0.29636 0.26271,-0.29981z"></path></g></g><g stroke-linecap="round" stroke="#fff5ac" data-paper-data="{&quot;index&quot;:null}"><path stroke-width="0.65" fill="none" data-paper-data="{&quot;index&quot;:null}" d="M309.95274,193.67702c-0.20194,-0.35194 -0.51965,-1.29538 -0.51965,-1.29538c0,0 -0.85129,0.37414 -1.18147,0.44465c-0.75627,0.16154 -1.25895,-0.02275 -1.27917,-0.13739c-0.02506,-0.14209 0.29133,-0.93614 0.66521,-1.62015c0.29899,-0.54697 0.55162,-0.93294 0.55162,-0.93294c-0.20577,-0.44685 -0.4079,-0.70581 -0.56132,-1.08352c-0.31395,-0.77287 -0.29718,-1.55852 -0.20505,-1.68061c0.1261,-0.16711 1.02363,0.05415 2.20354,0.61624l0.08558,0.00504c0.87844,-1.18012 1.69944,-1.93171 1.88647,-1.83474c0.1722,0.09368 0.30912,1.33225 0.23648,2.91977l0.04098,0.07917c1.16287,0.65586 1.93293,1.30121 1.92881,1.52335c-0.00246,0.13233 -0.48741,0.73252 -1.27586,1.01453c-0.27774,0.09935 -0.57056,0.07852 -0.89397,0.18176c0,0 -0.04559,0.55269 -0.17299,1.26527c-0.14377,0.80397 -0.39159,1.57467 -0.50582,1.61224c-0.09798,0.03223 -0.58294,-0.34448 -1.0034,-1.07732z"></path><g stroke-width="0" fill="#fff5ac"><path d="M311.18358,189.43314c0.09315,0.0432 0.15226,0.18312 0.15096,0.31723c-0.00236,0.24338 -0.0809,0.49432 -0.16647,0.72231c-0.07776,0.2111 -0.18215,0.41687 -0.31502,0.57281c-0.07709,0.09198 -0.19083,0.18532 -0.27923,0.13837c-0.0851,-0.04526 -0.12979,-0.16356 -0.1263,-0.33276c0.0038,-0.21433 0.05194,-0.44873 0.14182,-0.70678c0.08987,-0.25807 0.18522,-0.45777 0.31858,-0.61512c0.0878,-0.10397 0.1992,-0.14077 0.27565,-0.09605z"></path></g><g stroke-width="0" fill="#fff5ac"><path d="M309.97908,188.79923c0.09315,0.0432 0.15225,0.18312 0.15096,0.31723c-0.00236,0.24338 -0.0809,0.49432 -0.16647,0.72231c-0.07776,0.2111 -0.18215,0.41687 -0.31502,0.57281c-0.07709,0.09198 -0.19083,0.1853 -0.27923,0.13837c-0.0851,-0.04526 -0.12979,-0.16356 -0.1263,-0.33274c0.0038,-0.21433 0.05194,-0.44873 0.14182,-0.70678c0.08987,-0.25807 0.18522,-0.45776 0.31858,-0.61512c0.0878,-0.10397 0.19921,-0.14077 0.27565,-0.09605z"></path></g></g><g stroke-linecap="round" stroke="#fff5ac" data-paper-data="{&quot;index&quot;:null}"><path stroke-width="0.65" fill="none" data-paper-data="{&quot;index&quot;:null}" d="M297.44885,167.16573c0.18412,0.36618 0.45453,1.33133 0.45453,1.33133c0,0 0.86827,-0.31068 1.20134,-0.35673c0.76291,-0.10549 1.25551,0.11555 1.27003,0.23147c0.01797,0.14366 -0.33716,0.91294 -0.74425,1.56813c-0.32553,0.52392 -0.59684,0.89056 -0.59684,0.89056c0.18326,0.46121 0.37221,0.73459 0.50663,1.12293c0.27509,0.7946 0.21944,1.5776 0.12144,1.69267c-0.13415,0.15751 -1.01907,-0.12954 -2.169,-0.77758l-0.08518,-0.01134c-0.9353,1.1132 -1.79202,1.80286 -1.97392,1.69227c-0.16724,-0.10622 -0.24256,-1.3526 -0.09142,-2.93187l-0.03697,-0.08205c-1.12826,-0.74042 -1.86495,-1.44137 -1.84981,-1.6628c0.00901,-0.13191 0.52282,-0.69524 1.32379,-0.91859c0.28216,-0.07868 0.57341,-0.0363 0.90133,-0.11549c0,0 0.07288,-0.54831 0.23536,-1.2502c0.18334,-0.79189 0.46888,-1.54291 0.58475,-1.57201c0.0994,-0.02496 0.56481,0.38683 0.94821,1.14934z"></path><g stroke-width="0" fill="#fff5ac"><path d="M296.01004,171.3111c-0.09084,-0.04998 -0.1429,-0.19401 -0.13499,-0.32778c0.01442,-0.24278 0.10524,-0.48744 0.20195,-0.70872c0.08808,-0.20498 0.20248,-0.40268 0.34282,-0.54852c0.08149,-0.08613 0.19967,-0.1709 0.28557,-0.11753c0.08272,0.05145 0.12146,0.17283 0.10958,0.34146c-0.01442,0.21367 -0.07406,0.44409 -0.17658,0.69502c-0.10249,0.25097 -0.20756,0.44329 -0.34846,0.59051c-0.09279,0.09731 -0.2058,0.12584 -0.2799,0.07554z"></path></g><g stroke-width="0" fill="#fff5ac"><path d="M297.18095,172.03265c-0.09084,-0.04998 -0.14289,-0.19403 -0.13498,-0.32778c0.01442,-0.24278 0.10524,-0.48743 0.20195,-0.7087c0.08808,-0.20498 0.20248,-0.40268 0.34282,-0.54852c0.08149,-0.08613 0.19967,-0.1709 0.28557,-0.1175c0.08272,0.05145 0.12146,0.17283 0.10958,0.34146c-0.01442,0.21367 -0.07406,0.44409 -0.17658,0.69502c-0.10249,0.25097 -0.20756,0.44327 -0.34846,0.59049c-0.09279,0.09731 -0.20581,0.12584 -0.27988,0.07556z"></path></g></g><g stroke-linecap="round" stroke="#fff5ac" data-paper-data="{&quot;index&quot;:null}"><path stroke-width="0.65" fill="none" data-paper-data="{&quot;index&quot;:null}" d="M273.33477,194.18382c-0.1532,-0.30465 -0.37816,-1.10765 -0.37816,-1.10765c0,0 -0.72238,0.25847 -0.99949,0.2968c-0.63472,0.08776 -1.04458,-0.09614 -1.05665,-0.19259c-0.01495,-0.11954 0.28052,-0.75955 0.6192,-1.30466c0.27084,-0.4359 0.49656,-0.74093 0.49656,-0.74093c-0.15245,-0.38372 -0.30966,-0.61117 -0.4215,-0.93426c-0.22887,-0.6611 -0.18257,-1.31253 -0.10101,-1.40827c0.1116,-0.13105 0.84785,0.10778 1.80456,0.64695l0.07087,0.00943c0.77815,-0.92615 1.49095,-1.49994 1.64227,-1.40793c0.13913,0.08838 0.20181,1.12534 0.07606,2.43927l0.03076,0.06826c0.93869,0.61601 1.5516,1.1992 1.53901,1.38343c-0.0075,0.10975 -0.43498,0.57844 -1.10136,0.76425c-0.23475,0.06546 -0.47706,0.03019 -0.74989,0.09611c0,0 -0.06064,0.45619 -0.19582,1.04014c-0.15254,0.65886 -0.39008,1.28368 -0.48649,1.3079c-0.0827,0.02076 -0.46991,-0.32184 -0.7889,-0.95624z"></path><g stroke-width="0" fill="#fff5ac"><path d="M274.53184,190.73494c0.07558,0.0416 0.11889,0.16142 0.11232,0.27271c-0.01201,0.20199 -0.08755,0.40553 -0.16801,0.58964c-0.07327,0.17055 -0.16846,0.33502 -0.28523,0.45638c-0.06782,0.07166 -0.16612,0.14219 -0.23758,0.09777c-0.06883,-0.0428 -0.10105,-0.1438 -0.09117,-0.28408c0.01201,-0.17776 0.06162,-0.36948 0.1469,-0.57825c0.08527,-0.20878 0.17268,-0.36879 0.28992,-0.4913c0.0772,-0.08096 0.17123,-0.10468 0.23289,-0.06285z"></path></g><g stroke-width="0" fill="#fff5ac"><path d="M273.55769,190.13459c0.07558,0.0416 0.11889,0.16143 0.11232,0.27272c-0.01201,0.20199 -0.08755,0.40553 -0.16801,0.58964c-0.07327,0.17055 -0.16848,0.33502 -0.28523,0.45635c-0.06782,0.07166 -0.16612,0.14219 -0.23758,0.09777c-0.06883,-0.0428 -0.10105,-0.1438 -0.09116,-0.28408c0.01201,-0.17776 0.06162,-0.36948 0.1469,-0.57825c0.08527,-0.20878 0.17268,-0.36879 0.28992,-0.4913c0.0772,-0.08096 0.17123,-0.1047 0.23286,-0.06286z"></path></g></g><g stroke-linecap="round" stroke="#fff5ac" data-paper-data="{&quot;index&quot;:null}"><path stroke-width="0.65" fill="none" data-paper-data="{&quot;index&quot;:null}" d="M255.48671,176.23616c-0.1532,-0.30465 -0.37816,-1.10765 -0.37816,-1.10765c0,0 -0.72238,0.25847 -0.99949,0.2968c-0.63472,0.08776 -1.04458,-0.09614 -1.05665,-0.19257c-0.01495,-0.11954 0.28052,-0.75955 0.6192,-1.30466c0.27084,-0.4359 0.49655,-0.74093 0.49655,-0.74093c-0.15247,-0.3837 -0.30965,-0.61117 -0.4215,-0.93426c-0.22887,-0.6611 -0.18257,-1.31253 -0.10101,-1.40827c0.1116,-0.13105 0.84785,0.10776 1.80456,0.64695l0.07087,0.00945c0.77815,-0.92615 1.49095,-1.49994 1.64227,-1.40793c0.13913,0.08836 0.20182,1.12534 0.07607,2.43927l0.03076,0.06826c0.93869,0.61601 1.5516,1.19921 1.53901,1.38343c-0.0075,0.10975 -0.43496,0.57844 -1.10135,0.76425c-0.23475,0.06546 -0.47706,0.03019 -0.7499,0.09611c0,0 -0.06064,0.45619 -0.1958,1.04014c-0.15254,0.65886 -0.39008,1.28368 -0.48649,1.3079c-0.0827,0.02076 -0.4699,-0.32184 -0.7889,-0.95624z"></path><g stroke-width="0" fill="#fff5ac"><path d="M256.68377,172.78729c0.07558,0.0416 0.11889,0.16142 0.11232,0.27271c-0.01201,0.20199 -0.08754,0.40554 -0.168,0.58964c-0.07327,0.17055 -0.16846,0.33502 -0.28523,0.45638c-0.0678,0.07166 -0.16612,0.14219 -0.23758,0.09777c-0.06881,-0.0428 -0.10106,-0.1438 -0.09117,-0.28408c0.01201,-0.17776 0.06162,-0.36948 0.1469,-0.57825c0.08527,-0.20878 0.17268,-0.36881 0.28992,-0.4913c0.0772,-0.08096 0.17123,-0.10468 0.23289,-0.06285z"></path></g><g stroke-width="0" fill="#fff5ac"><path d="M255.70961,172.18697c0.07558,0.0416 0.11889,0.16142 0.11232,0.27271c-0.01201,0.20199 -0.08756,0.40554 -0.16803,0.58964c-0.07327,0.17055 -0.16846,0.335 -0.28522,0.45635c-0.0678,0.07166 -0.16612,0.14219 -0.23758,0.09777c-0.06881,-0.0428 -0.10105,-0.1438 -0.09116,-0.28408c0.01201,-0.17776 0.06161,-0.36948 0.14689,-0.57825c0.08527,-0.20878 0.17268,-0.36879 0.28992,-0.49128c0.0772,-0.08096 0.17123,-0.1047 0.23286,-0.06286z"></path></g></g><text style="mix-blend-mode: normal" text-anchor="start" font-weight="normal" font-family="Sans Serif" stroke-dashoffset="0" stroke-dasharray="" stroke-miterlimit="10" stroke-linejoin="miter" stroke-linecap="butt" stroke-width="1" stroke="none" fill-rule="nonzero" fill="#696d7a" xml:space="preserve" font-size="40" transform="translate(330.29343,169.98591) scale(0.20636,0.20456)"><tspan dy="0" x="0">1P</tspan></text><text style="mix-blend-mode: normal" text-anchor="start" font-weight="normal" font-family="Sans Serif" stroke-dashoffset="0" stroke-dasharray="" stroke-miterlimit="10" stroke-linejoin="miter" stroke-linecap="butt" stroke-width="0.4" stroke="#2c2a26" fill-rule="nonzero" fill="#696d7a" xml:space="preserve" font-size="40" transform="translate(187.07732,185.22082) scale(0.3388,0.32543)"><tspan dy="0" x="0">Mission</tspan></text><g stroke="#ffffff"><path stroke-linecap="butt" stroke-width="2" fill="none" d="M162.25541,171.33119c1.26194,-0.53969 2.65068,-0.83832 4.10888,-0.83832c5.79638,0 10.49527,4.71868 10.49527,10.53948c0,5.8208 -4.69889,10.53949 -10.49527,10.53949c-5.79638,0 -10.49526,-4.71869 -10.49526,-10.53949c0,-2.0175 0.56449,-3.9026 1.54352,-5.50472"></path><path stroke-linecap="butt" stroke-width="1" fill="none" d="M164.15382,175.56213c0.7197,-0.29857 1.5117,-0.46378 2.34331,-0.46378c3.3057,0 5.98551,2.61048 5.98551,5.83067c0,3.22019 -2.6798,5.83066 -5.98551,5.83066c-3.3057,0 -5.9855,-2.61047 -5.9855,-5.83066c0,-1.11613 0.32193,-2.159 0.88027,-3.04533"></path><path stroke-linecap="butt" stroke-width="1" fill="#ffffff" d="M167.88475,181.06187c0,0.83154 -0.64105,1.50564 -1.43184,1.50564c-0.79078,0 -1.43183,-0.6741 -1.43183,-1.50564c0,-0.83154 0.64105,-1.50564 1.43183,-1.50564c0.79078,0 1.43184,0.6741 1.43184,1.50564z"></path><path stroke-linecap="round" stroke-width="1" fill="none" d="M165.61153,179.76289l-3.33603,-3.48364"></path><path stroke-linecap="round" stroke-width="1" fill="#ffffff" d="M162.06885,176.10211l-2.92272,-0.11809l-4.51692,-5.10737l2.56844,-0.23618l0.47236,-2.74558l4.7531,5.46164l-0.17713,2.36179"></path></g></g></g></svg>