<svg version="1.1" xmlns="http://www.w3.org/2000/svg" xmlns:xlink="http://www.w3.org/1999/xlink" width="983.25422" height="683.70906" viewBox="0,0,983.25422,683.70906"><defs><linearGradient x1="-107.16874" y1="-26.28594" x2="-121.89571" y2="363.65787" gradientUnits="userSpaceOnUse" id="color-1"><stop offset="0" stop-color="#38c0ff"/><stop offset="1" stop-color="#3364ff"/></linearGradient><linearGradient x1="371.69848" y1="35.94796" x2="233.4787" y2="369.79982" gradientUnits="userSpaceOnUse" id="color-2"><stop offset="0" stop-color="#38f0ff"/><stop offset="1" stop-color="#38f0ff" stop-opacity="0"/></linearGradient></defs><g transform="translate(189.0385,138.98063)"><g data-paper-data="{&quot;isPaintingLayer&quot;:true}" fill-rule="nonzero" stroke="none" stroke-linecap="butt" stroke-linejoin="miter" stroke-miterlimit="10" stroke-dasharray="" stroke-dashoffset="0" style="mix-blend-mode: normal"><path d="M-120.68225,-26.28594l718.57799,-0.39893l-1.21345,416.97085l-718.57798,1.90044z" fill="url(#color-1)" stroke-width="1"/><path d="M-50.81874,-138.98063c0,0 416.10921,85.30412 567.03109,147.78809c126.3767,52.32188 278.00337,202.06909 278.00337,202.06909l-138.21977,333.85188l-845.03445,-349.85716z" fill="url(#color-2)" stroke-width="1"/><g fill-opacity="0.40392" fill="#ffffff" stroke-width="0.5"><g><path d="M270.20588,113.65893c0,-1.38071 1.11929,-2.5 2.5,-2.5c1.38071,0 2.5,1.11929 2.5,2.5c0,1.38071 -1.11929,2.5 -2.5,2.5c-1.38071,0 -2.5,-1.11929 -2.5,-2.5z"/><path d="M436.20588,58.65893c0,-1.38071 1.11929,-2.5 2.5,-2.5c1.38071,0 2.5,1.11929 2.5,2.5c0,1.38071 -1.11929,2.5 -2.5,2.5c-1.38071,0 -2.5,-1.11929 -2.5,-2.5z"/><path d="M130.20588,37.65893c0,-1.38071 1.11929,-2.5 2.5,-2.5c1.38071,0 2.5,1.11929 2.5,2.5c0,1.38071 -1.11929,2.5 -2.5,2.5c-1.38071,0 -2.5,-1.11929 -2.5,-2.5z"/><path d="M439.20588,150.65893c0,-1.38071 1.11929,-2.5 2.5,-2.5c1.38071,0 2.5,1.11929 2.5,2.5c0,1.38071 -1.11929,2.5 -2.5,2.5c-1.38071,0 -2.5,-1.11929 -2.5,-2.5z"/><path d="M308.20588,24.65893c0,-1.38071 1.11929,-2.5 2.5,-2.5c1.38071,0 2.5,1.11929 2.5,2.5c0,1.38071 -1.11929,2.5 -2.5,2.5c-1.38071,0 -2.5,-1.11929 -2.5,-2.5z"/><path d="M34.20588,115.65893c0,-1.38071 1.11929,-2.5 2.5,-2.5c1.38071,0 2.5,1.11929 2.5,2.5c0,1.38071 -1.11929,2.5 -2.5,2.5c-1.38071,0 -2.5,-1.11929 -2.5,-2.5z"/><path d="M513.20588,46.65893c0,-1.38071 1.11929,-2.5 2.5,-2.5c1.38071,0 2.5,1.11929 2.5,2.5c0,1.38071 -1.11929,2.5 -2.5,2.5c-1.38071,0 -2.5,-1.11929 -2.5,-2.5z"/><path d="M-28.29412,161.65893c0,-1.10457 0.89543,-2 2,-2c1.10457,0 2,0.89543 2,2c0,1.10457 -0.89543,2 -2,2c-1.10457,0 -2,-0.89543 -2,-2z"/><path d="M22.70588,26.65893c0,-1.10457 0.89543,-2 2,-2c1.10457,0 2,0.89543 2,2c0,1.10457 -0.89543,2 -2,2c-1.10457,0 -2,-0.89543 -2,-2z"/><path d="M138.70588,150.65893c0,-1.10457 0.89543,-2 2,-2c1.10457,0 2,0.89543 2,2c0,1.10457 -0.89543,2 -2,2c-1.10457,0 -2,-0.89543 -2,-2z"/><path d="M234.70588,52.65893c0,-1.10457 0.89543,-2 2,-2c1.10457,0 2,0.89543 2,2c0,1.10457 -0.89543,2 -2,2c-1.10457,0 -2,-0.89543 -2,-2z"/><path d="M350.70588,134.65893c0,-1.10457 0.89543,-2 2,-2c1.10457,0 2,0.89543 2,2c0,1.10457 -0.89543,2 -2,2c-1.10457,0 -2,-0.89543 -2,-2z"/><path d="M522.70588,110.65893c0,-1.10457 0.89543,-2 2,-2c1.10457,0 2,0.89543 2,2c0,1.10457 -0.89543,2 -2,2c-1.10457,0 -2,-0.89543 -2,-2z"/><path d="M420.70588,28.65893c0,-1.10457 0.89543,-2 2,-2c1.10457,0 2,0.89543 2,2c0,1.10457 -0.89543,2 -2,2c-1.10457,0 -2,-0.89543 -2,-2z"/><path d="M178.20588,95.65893c0,-0.82843 0.67157,-1.5 1.5,-1.5c0.82843,0 1.5,0.67157 1.5,1.5c0,0.82843 -0.67157,1.5 -1.5,1.5c-0.82843,0 -1.5,-0.67157 -1.5,-1.5z"/><path d="M363.20588,78.65892c0,-0.82843 0.67157,-1.5 1.5,-1.5c0.82843,0 1.5,0.67157 1.5,1.5c0,0.82843 -0.67157,1.5 -1.5,1.5c-0.82843,0 -1.5,-0.67157 -1.5,-1.5z"/><path d="M75.20587,88.65893c0,-0.82843 0.67157,-1.5 1.5,-1.5c0.82843,0 1.5,0.67157 1.5,1.5c0,0.82843 -0.67157,1.5 -1.5,1.5c-0.82843,0 -1.5,-0.67157 -1.5,-1.5z"/><path d="M91.95588,147.65893c0,-0.41421 0.33579,-0.75 0.75,-0.75c0.41421,0 0.75,0.33579 0.75,0.75c0,0.41421 -0.33579,0.75 -0.75,0.75c-0.41421,0 -0.75,-0.33579 -0.75,-0.75z"/><path d="M55.95587,53.65893c0,-0.41421 0.33579,-0.75 0.75,-0.75c0.41421,0 0.75,0.33579 0.75,0.75c0,0.41421 -0.33579,0.75 -0.75,0.75c-0.41421,0 -0.75,-0.33579 -0.75,-0.75z"/><path d="M464.95588,114.65893c0,-0.41421 0.33579,-0.75 0.75,-0.75c0.41421,0 0.75,0.33579 0.75,0.75c0,0.41421 -0.33579,0.75 -0.75,0.75c-0.41421,0 -0.75,-0.33579 -0.75,-0.75z"/><path d="M350.95588,0.65893c0,-0.41421 0.33579,-0.75 0.75,-0.75c0.41421,0 0.75,0.33579 0.75,0.75c0,0.41421 -0.33579,0.75 -0.75,0.75c-0.41421,0 -0.75,-0.33579 -0.75,-0.75z"/><path d="M374.95588,159.65893c0,-0.41421 0.33579,-0.75 0.75,-0.75c0.41421,0 0.75,0.33579 0.75,0.75c0,0.41421 -0.33579,0.75 -0.75,0.75c-0.41421,0 -0.75,-0.33579 -0.75,-0.75z"/><path d="M192.95588,13.65893c0,-0.41421 0.33579,-0.75 0.75,-0.75c0.41421,0 0.75,0.33579 0.75,0.75c0,0.41421 -0.33579,0.75 -0.75,0.75c-0.41421,0 -0.75,-0.33579 -0.75,-0.75z"/><path d="M543.95588,150.65893c0,-0.41421 0.33579,-0.75 0.75,-0.75c0.41421,0 0.75,0.33579 0.75,0.75c0,0.41421 -0.33579,0.75 -0.75,0.75c-0.41421,0 -0.75,-0.33579 -0.75,-0.75z"/><path d="M557.95588,21.65893c0,-0.41421 0.33579,-0.75 0.75,-0.75c0.41421,0 0.75,0.33579 0.75,0.75c0,0.41421 -0.33579,0.75 -0.75,0.75c-0.41421,0 -0.75,-0.33579 -0.75,-0.75z"/><path d="M227.95588,135.65893c0,-0.41421 0.33579,-0.75 0.75,-0.75c0.41421,0 0.75,0.33579 0.75,0.75c0,0.41421 -0.33579,0.75 -0.75,0.75c-0.41421,0 -0.75,-0.33579 -0.75,-0.75z"/><path d="M83.95588,10.65893c0,-0.41421 0.33579,-0.75 0.75,-0.75c0.41421,0 0.75,0.33579 0.75,0.75c0,0.41421 -0.33579,0.75 -0.75,0.75c-0.41421,0 -0.75,-0.33579 -0.75,-0.75z"/><path d="M300.95588,80.65892c0,-0.41421 0.33579,-0.75 0.75,-0.75c0.41421,0 0.75,0.33579 0.75,0.75c0,0.41421 -0.33579,0.75 -0.75,0.75c-0.41421,0 -0.75,-0.33579 -0.75,-0.75z"/><path d="M379.95588,10.65893c0,-0.41421 0.33579,-0.75 0.75,-0.75c0.41421,0 0.75,0.33579 0.75,0.75c0,0.41421 -0.33579,0.75 -0.75,0.75c-0.41421,0 -0.75,-0.33579 -0.75,-0.75z"/><path d="M463.95588,18.65893c0,-0.41421 0.33579,-0.75 0.75,-0.75c0.41421,0 0.75,0.33579 0.75,0.75c0,0.41421 -0.33579,0.75 -0.75,0.75c-0.41421,0 -0.75,-0.33579 -0.75,-0.75z"/><path d="M547.95588,64.65892c0,-0.41421 0.33579,-0.75 0.75,-0.75c0.41421,0 0.75,0.33579 0.75,0.75c0,0.41421 -0.33579,0.75 -0.75,0.75c-0.41421,0 -0.75,-0.33579 -0.75,-0.75z"/><path d="M501.95588,168.65893c0,-0.41421 0.33579,-0.75 0.75,-0.75c0.41421,0 0.75,0.33579 0.75,0.75c0,0.41421 -0.33579,0.75 -0.75,0.75c-0.41421,0 -0.75,-0.33579 -0.75,-0.75z"/><path d="M-20.04413,103.65893c0,-0.41421 0.33579,-0.75 0.75,-0.75c0.41421,0 0.75,0.33579 0.75,0.75c0,0.41421 -0.33579,0.75 -0.75,0.75c-0.41421,0 -0.75,-0.33579 -0.75,-0.75z"/></g><g><path d="M247.20588,294.65891c0,-1.38071 1.11929,-2.5 2.5,-2.5c1.38071,0 2.5,1.11929 2.5,2.5c0,1.38071 -1.11929,2.5 -2.5,2.5c-1.38071,0 -2.5,-1.11929 -2.5,-2.5z"/><path d="M413.20588,239.65893c0,-1.38071 1.11929,-2.5 2.5,-2.5c1.38071,0 2.5,1.11929 2.5,2.5c0,1.38071 -1.11929,2.5 -2.5,2.5c-1.38071,0 -2.5,-1.11929 -2.5,-2.5z"/><path d="M107.20588,218.65893c0,-1.38071 1.11929,-2.5 2.5,-2.5c1.38071,0 2.5,1.11929 2.5,2.5c0,1.38071 -1.11929,2.5 -2.5,2.5c-1.38071,0 -2.5,-1.11929 -2.5,-2.5z"/><path d="M416.20588,331.65891c0,-1.38071 1.11929,-2.5 2.5,-2.5c1.38071,0 2.5,1.11929 2.5,2.5c0,1.38071 -1.11929,2.5 -2.5,2.5c-1.38071,0 -2.5,-1.11929 -2.5,-2.5z"/><path d="M285.20588,205.65893c0,-1.38071 1.11929,-2.5 2.5,-2.5c1.38071,0 2.5,1.11929 2.5,2.5c0,1.38071 -1.11929,2.5 -2.5,2.5c-1.38071,0 -2.5,-1.11929 -2.5,-2.5z"/><path d="M11.20588,296.65891c0,-1.38071 1.11929,-2.5 2.5,-2.5c1.38071,0 2.5,1.11929 2.5,2.5c0,1.38071 -1.11929,2.5 -2.5,2.5c-1.38071,0 -2.5,-1.11929 -2.5,-2.5z"/><path d="M490.20588,227.65893c0,-1.38071 1.11929,-2.5 2.5,-2.5c1.38071,0 2.5,1.11929 2.5,2.5c0,1.38071 -1.11929,2.5 -2.5,2.5c-1.38071,0 -2.5,-1.11929 -2.5,-2.5z"/><path d="M-51.29412,342.65893c0,-1.10457 0.89543,-2 2,-2c1.10457,0 2,0.89543 2,2c0,1.10457 -0.89543,2 -2,2c-1.10457,0 -2,-0.89543 -2,-2z"/><path d="M-0.29413,207.65893c0,-1.10457 0.89543,-2 2,-2c1.10457,0 2,0.89543 2,2c0,1.10457 -0.89543,2 -2,2c-1.10457,0 -2,-0.89543 -2,-2z"/><path d="M115.70588,331.65891c0,-1.10457 0.89543,-2 2,-2c1.10457,0 2,0.89543 2,2c0,1.10457 -0.89543,2 -2,2c-1.10457,0 -2,-0.89543 -2,-2z"/><path d="M211.70588,233.65893c0,-1.10457 0.89543,-2 2,-2c1.10457,0 2,0.89543 2,2c0,1.10457 -0.89543,2 -2,2c-1.10457,0 -2,-0.89543 -2,-2z"/><path d="M327.70588,315.65891c0,-1.10457 0.89543,-2 2,-2c1.10457,0 2,0.89543 2,2c0,1.10457 -0.89543,2 -2,2c-1.10457,0 -2,-0.89543 -2,-2z"/><path d="M499.70588,291.65891c0,-1.10457 0.89543,-2 2,-2c1.10457,0 2,0.89543 2,2c0,1.10457 -0.89543,2 -2,2c-1.10457,0 -2,-0.89543 -2,-2z"/><path d="M397.70588,209.65893c0,-1.10457 0.89543,-2 2,-2c1.10457,0 2,0.89543 2,2c0,1.10457 -0.89543,2 -2,2c-1.10457,0 -2,-0.89543 -2,-2z"/><path d="M155.20588,276.65891c0,-0.82843 0.67157,-1.5 1.5,-1.5c0.82843,0 1.5,0.67157 1.5,1.5c0,0.82843 -0.67157,1.5 -1.5,1.5c-0.82843,0 -1.5,-0.67157 -1.5,-1.5z"/><path d="M340.20588,259.65891c0,-0.82843 0.67157,-1.5 1.5,-1.5c0.82843,0 1.5,0.67157 1.5,1.5c0,0.82843 -0.67157,1.5 -1.5,1.5c-0.82843,0 -1.5,-0.67157 -1.5,-1.5z"/><path d="M52.20587,269.65891c0,-0.82843 0.67157,-1.5 1.5,-1.5c0.82843,0 1.5,0.67157 1.5,1.5c0,0.82843 -0.67157,1.5 -1.5,1.5c-0.82843,0 -1.5,-0.67157 -1.5,-1.5z"/><path d="M68.95587,328.65891c0,-0.41421 0.33579,-0.75 0.75,-0.75c0.41421,0 0.75,0.33579 0.75,0.75c0,0.41421 -0.33579,0.75 -0.75,0.75c-0.41421,0 -0.75,-0.33579 -0.75,-0.75z"/><path d="M32.95587,234.65893c0,-0.41421 0.33579,-0.75 0.75,-0.75c0.41421,0 0.75,0.33579 0.75,0.75c0,0.41421 -0.33579,0.75 -0.75,0.75c-0.41421,0 -0.75,-0.33579 -0.75,-0.75z"/><path d="M441.95588,295.65891c0,-0.41421 0.33579,-0.75 0.75,-0.75c0.41421,0 0.75,0.33579 0.75,0.75c0,0.41421 -0.33579,0.75 -0.75,0.75c-0.41421,0 -0.75,-0.33579 -0.75,-0.75z"/><path d="M327.95588,181.65893c0,-0.41421 0.33579,-0.75 0.75,-0.75c0.41421,0 0.75,0.33579 0.75,0.75c0,0.41421 -0.33579,0.75 -0.75,0.75c-0.41421,0 -0.75,-0.33579 -0.75,-0.75z"/><path d="M351.95588,340.65893c0,-0.41421 0.33579,-0.75 0.75,-0.75c0.41421,0 0.75,0.33579 0.75,0.75c0,0.41421 -0.33579,0.75 -0.75,0.75c-0.41421,0 -0.75,-0.33579 -0.75,-0.75z"/><path d="M169.95588,194.65893c0,-0.41421 0.33579,-0.75 0.75,-0.75c0.41421,0 0.75,0.33579 0.75,0.75c0,0.41421 -0.33579,0.75 -0.75,0.75c-0.41421,0 -0.75,-0.33579 -0.75,-0.75z"/><path d="M520.95588,331.65891c0,-0.41421 0.33579,-0.75 0.75,-0.75c0.41421,0 0.75,0.33579 0.75,0.75c0,0.41421 -0.33579,0.75 -0.75,0.75c-0.41421,0 -0.75,-0.33579 -0.75,-0.75z"/><path d="M534.95588,202.65893c0,-0.41421 0.33579,-0.75 0.75,-0.75c0.41421,0 0.75,0.33579 0.75,0.75c0,0.41421 -0.33579,0.75 -0.75,0.75c-0.41421,0 -0.75,-0.33579 -0.75,-0.75z"/><path d="M204.95588,316.65891c0,-0.41421 0.33579,-0.75 0.75,-0.75c0.41421,0 0.75,0.33579 0.75,0.75c0,0.41421 -0.33579,0.75 -0.75,0.75c-0.41421,0 -0.75,-0.33579 -0.75,-0.75z"/><path d="M60.95588,191.65893c0,-0.41421 0.33579,-0.75 0.75,-0.75c0.41421,0 0.75,0.33579 0.75,0.75c0,0.41421 -0.33579,0.75 -0.75,0.75c-0.41421,0 -0.75,-0.33579 -0.75,-0.75z"/><path d="M277.95588,261.65891c0,-0.41421 0.33579,-0.75 0.75,-0.75c0.41421,0 0.75,0.33579 0.75,0.75c0,0.41421 -0.33579,0.75 -0.75,0.75c-0.41421,0 -0.75,-0.33579 -0.75,-0.75z"/><path d="M356.95588,191.65893c0,-0.41421 0.33579,-0.75 0.75,-0.75c0.41421,0 0.75,0.33579 0.75,0.75c0,0.41421 -0.33579,0.75 -0.75,0.75c-0.41421,0 -0.75,-0.33579 -0.75,-0.75z"/><path d="M440.95588,199.65893c0,-0.41421 0.33579,-0.75 0.75,-0.75c0.41421,0 0.75,0.33579 0.75,0.75c0,0.41421 -0.33579,0.75 -0.75,0.75c-0.41421,0 -0.75,-0.33579 -0.75,-0.75z"/><path d="M524.95588,245.65893c0,-0.41421 0.33579,-0.75 0.75,-0.75c0.41421,0 0.75,0.33579 0.75,0.75c0,0.41421 -0.33579,0.75 -0.75,0.75c-0.41421,0 -0.75,-0.33579 -0.75,-0.75z"/><path d="M478.95588,349.65893c0,-0.41421 0.33579,-0.75 0.75,-0.75c0.41421,0 0.75,0.33579 0.75,0.75c0,0.41421 -0.33579,0.75 -0.75,0.75c-0.41421,0 -0.75,-0.33579 -0.75,-0.75z"/><path d="M-43.04412,284.65891c0,-0.41421 0.33579,-0.75 0.75,-0.75c0.41421,0 0.75,0.33579 0.75,0.75c0,0.41421 -0.33579,0.75 -0.75,0.75c-0.41421,0 -0.75,-0.33579 -0.75,-0.75z"/></g><g><path d="M338.58088,170.83604c1.38071,0 2.5,0.76889 2.5,1.71735c0,0.94847 -1.11929,1.71735 -2.5,1.71735c-1.38071,0 -2.5,-0.76889 -2.5,-1.71735c0,-0.94847 1.11929,-1.71735 2.5,-1.71735z"/><path d="M393.58087,284.86834c1.38071,0 2.5,0.76889 2.5,1.71735c0,0.94847 -1.11929,1.71735 -2.5,1.71735c-1.38071,0 -2.5,-0.76889 -2.5,-1.71735c0,-0.94847 1.11929,-1.71735 2.5,-1.71735z"/><path d="M414.58087,74.66419c1.38071,0 2.5,0.76889 2.5,1.71735c0,0.94847 -1.11929,1.71735 -2.5,1.71735c-1.38071,0 -2.5,-0.76889 -2.5,-1.71735c0,-0.94847 1.11929,-1.71735 2.5,-1.71735z"/><path d="M301.58088,286.92918c1.38071,0 2.5,0.76889 2.5,1.71735c0,0.94847 -1.11929,1.71735 -2.5,1.71735c-1.38071,0 -2.5,-0.76889 -2.5,-1.71735c0,-0.94847 1.11929,-1.71735 2.5,-1.71735z"/><path d="M427.58087,196.93982c1.38071,0 2.5,0.76889 2.5,1.71735c0,0.94847 -1.11929,1.71735 -2.5,1.71735c-1.38071,0 -2.5,-0.76889 -2.5,-1.71735c0,-0.94847 1.11929,-1.71735 2.5,-1.71735z"/><path d="M336.58088,8.71779c1.38071,0 2.5,0.76889 2.5,1.71735c0,0.94847 -1.11929,1.71735 -2.5,1.71735c-1.38071,0 -2.5,-0.76889 -2.5,-1.71735c0,-0.94847 1.11929,-1.71735 2.5,-1.71735z"/><path d="M405.58087,337.76288c1.38071,0 2.5,0.76889 2.5,1.71735c0,0.94847 -1.11929,1.71735 -2.5,1.71735c-1.38071,0 -2.5,-0.76889 -2.5,-1.71735c0,-0.94847 1.11929,-1.71735 2.5,-1.71735z"/><path d="M290.58088,-34.21607c1.10457,0 2,0.61511 2,1.37388c0,0.75878 -0.89543,1.37388 -2,1.37388c-1.10457,0 -2,-0.61511 -2,-1.37388c0,-0.75878 0.89543,-1.37388 2,-1.37388z"/><path d="M425.58088,0.81796c1.10457,0 2,0.61511 2,1.37388c0,0.75878 -0.89543,1.37388 -2,1.37388c-1.10457,0 -2,-0.61511 -2,-1.37388c0,-0.75878 0.89543,-1.37388 2,-1.37388z"/><path d="M301.58088,80.5032c1.10457,0 2,0.61511 2,1.37388c0,0.75878 -0.89543,1.37388 -2,1.37388c-1.10457,0 -2,-0.61511 -2,-1.37388c0,-0.75878 0.89543,-1.37388 2,-1.37388z"/><path d="M399.58087,146.4496c1.10457,0 2,0.61511 2,1.37388c0,0.75878 -0.89543,1.37388 -2,1.37388c-1.10457,0 -2,-0.61511 -2,-1.37388c0,-0.75878 0.89543,-1.37388 2,-1.37388z"/><path d="M317.58088,226.13483c1.10457,0 2,0.61511 2,1.37388c0,0.75878 -0.89543,1.37388 -2,1.37388c-1.10457,0 -2,-0.61511 -2,-1.37388c0,-0.75878 0.89543,-1.37388 2,-1.37388z"/><path d="M341.58088,344.28882c1.10457,0 2,0.61511 2,1.37388c0,0.75878 -0.89543,1.37388 -2,1.37388c-1.10457,0 -2,-0.61511 -2,-1.37388c0,-0.75878 0.89543,-1.37388 2,-1.37388z"/><path d="M423.58087,274.22077c1.10457,0 2,0.61511 2,1.37388c0,0.75878 -0.89543,1.37388 -2,1.37388c-1.10457,0 -2,-0.61511 -2,-1.37388c0,-0.75878 0.89543,-1.37388 2,-1.37388z"/><path d="M356.58088,107.6374c0.82843,0 1.5,0.46133 1.5,1.03041c0,0.56908 -0.67157,1.03041 -1.5,1.03041c-0.82843,0 -1.5,-0.46133 -1.5,-1.03041c0,-0.56908 0.67157,-1.03041 1.5,-1.03041z"/><path d="M373.58087,234.72162c0.82843,0 1.5,0.46133 1.5,1.03041c0,0.56908 -0.67157,1.03041 -1.5,1.03041c-0.82843,0 -1.5,-0.46133 -1.5,-1.03041c0,-0.56908 0.67157,-1.03041 1.5,-1.03041z"/><path d="M363.58088,36.8824c0.82843,0 1.5,0.46133 1.5,1.03041c0,0.56908 -0.67157,1.03041 -1.5,1.03041c-0.82843,0 -1.5,-0.46133 -1.5,-1.03041c0,-0.56908 0.67157,-1.03041 1.5,-1.03041z"/><path d="M304.58088,48.38867c0.41421,0 0.75,0.23067 0.75,0.51521c0,0.28454 -0.33579,0.51521 -0.75,0.51521c-0.41421,0 -0.75,-0.23067 -0.75,-0.51521c0,-0.28454 0.33579,-0.51521 0.75,-0.51521z"/><path d="M398.58088,23.65877c0.41421,0 0.75,0.23067 0.75,0.51521c0,0.28454 -0.33579,0.51521 -0.75,0.51521c-0.41421,0 -0.75,-0.23067 -0.75,-0.51521c0,-0.28454 0.33579,-0.51521 0.75,-0.51521z"/><path d="M337.58087,304.61794c0.41421,0 0.75,0.23067 0.75,0.51521c0,0.28454 -0.33579,0.51521 -0.75,0.51521c-0.41421,0 -0.75,-0.23067 -0.75,-0.51521c0,-0.28454 0.33579,-0.51521 0.75,-0.51521z"/><path d="M451.58087,226.30657c0.41421,0 0.75,0.23067 0.75,0.51521c0,0.28454 -0.33579,0.51521 -0.75,0.51521c-0.41421,0 -0.75,-0.23067 -0.75,-0.51521c0,-0.28454 0.33579,-0.51521 0.75,-0.51521z"/><path d="M292.58088,242.79318c0.41421,0 0.75,0.23067 0.75,0.51521c0,0.28454 -0.33579,0.51521 -0.75,0.51521c-0.41421,0 -0.75,-0.23067 -0.75,-0.51521c0,-0.28454 0.33579,-0.51521 0.75,-0.51521z"/><path d="M438.58087,117.76979c0.41421,0 0.75,0.23067 0.75,0.51521c0,0.28454 -0.33579,0.51521 -0.75,0.51521c-0.41421,0 -0.75,-0.23067 -0.75,-0.51521c0,-0.28454 0.33579,-0.51521 0.75,-0.51521z"/><path d="M301.58088,358.88633c0.41421,0 0.75,0.23067 0.75,0.51521c0,0.28454 -0.33579,0.51521 -0.75,0.51521c-0.41421,0 -0.75,-0.23067 -0.75,-0.51521c0,-0.28454 0.33579,-0.51521 0.75,-0.51521z"/><path d="M430.58087,368.50352c0.41421,0 0.75,0.23067 0.75,0.51521c0,0.28454 -0.33579,0.51521 -0.75,0.51521c-0.41421,0 -0.75,-0.23067 -0.75,-0.51521c0,-0.28454 0.33579,-0.51521 0.75,-0.51521z"/><path d="M316.58088,141.81275c0.41421,0 0.75,0.23067 0.75,0.51521c0,0.28454 -0.33579,0.51521 -0.75,0.51521c-0.41421,0 -0.75,-0.23067 -0.75,-0.51521c0,-0.28454 0.33579,-0.51521 0.75,-0.51521z"/><path d="M441.58087,42.89314c0.41421,0 0.75,0.23067 0.75,0.51521c0,0.28454 -0.33579,0.51521 -0.75,0.51521c-0.41421,0 -0.75,-0.23067 -0.75,-0.51521c0,-0.28454 0.33579,-0.51521 0.75,-0.51521z"/><path d="M371.58087,191.95949c0.41421,0 0.75,0.23067 0.75,0.51521c0,0.28454 -0.33579,0.51521 -0.75,0.51521c-0.41421,0 -0.75,-0.23067 -0.75,-0.51521c0,-0.28454 0.33579,-0.51521 0.75,-0.51521z"/><path d="M441.58087,246.22789c0.41421,0 0.75,0.23067 0.75,0.51521c0,0.28454 -0.33579,0.51521 -0.75,0.51521c-0.41421,0 -0.75,-0.23067 -0.75,-0.51521c0,-0.28454 0.33579,-0.51521 0.75,-0.51521z"/><path d="M433.58088,303.931c0.41421,0 0.75,0.23067 0.75,0.51521c0,0.28454 -0.33579,0.51521 -0.75,0.51521c-0.41421,0 -0.75,-0.23067 -0.75,-0.51521c0,-0.28454 0.33579,-0.51521 0.75,-0.51521z"/><path d="M387.58087,361.6341c0.41421,0 0.75,0.23067 0.75,0.51521c0,0.28454 -0.33579,0.51521 -0.75,0.51521c-0.41421,0 -0.75,-0.23067 -0.75,-0.51521c0,-0.28454 0.33579,-0.51521 0.75,-0.51521z"/><path d="M283.58088,330.03477c0.41421,0 0.75,0.23067 0.75,0.51521c0,0.28454 -0.33579,0.51521 -0.75,0.51521c-0.41421,0 -0.75,-0.23067 -0.75,-0.51521c0,-0.28454 0.33579,-0.51521 0.75,-0.51521z"/><path d="M348.58088,-28.5488c0.41421,0 0.75,0.23067 0.75,0.51521c0,0.28454 -0.33579,0.51521 -0.75,0.51521c-0.41421,0 -0.75,-0.23067 -0.75,-0.51521c0,-0.28454 0.33579,-0.51521 0.75,-0.51521z"/></g><g><path d="M158.5358,194.33507c0.92393,-1.02602 2.2443,-1.34325 2.94911,-0.70856c0.70481,0.63469 0.52718,1.98096 -0.39675,3.00697c-0.92393,1.02602 -2.2443,1.34325 -2.94911,0.70856c-0.70481,-0.63469 -0.52718,-1.98096 0.39675,-3.00697z"/><path d="M280.07853,229.77145c0.92393,-1.02602 2.2443,-1.34325 2.94911,-0.70856c0.70481,0.63469 0.52718,1.98096 -0.39675,3.00697c-0.92393,1.02602 -2.2443,1.34325 -2.94911,0.70856c-0.70481,-0.63469 -0.52718,-1.98096 0.39675,-3.00697z"/><path d="M137.92692,73.50338c0.92393,-1.02602 2.2443,-1.34325 2.94911,-0.70856c0.70481,0.63469 0.52718,1.98096 -0.39676,3.00697c-0.92393,1.02602 -2.24429,1.34325 -2.94911,0.70856c-0.70481,-0.63469 -0.52718,-1.98096 0.39675,-3.00697z"/><path d="M220.04607,299.51635c0.92393,-1.02602 2.2443,-1.34325 2.94911,-0.70856c0.70481,0.63469 0.52718,1.98096 -0.39675,3.00697c-0.92393,1.02602 -2.2443,1.34325 -2.94911,0.70856c-0.70481,-0.63469 -0.52718,-1.98096 0.39675,-3.00697z"/><path d="M237.49006,145.66646c0.92393,-1.02602 2.2443,-1.34325 2.94911,-0.70856c0.70481,0.63469 0.52718,1.98096 -0.39675,3.00697c-0.92393,1.02602 -2.2443,1.34325 -2.94911,0.70856c-0.70481,-0.63469 -0.52718,-1.98096 0.39675,-3.00697z"/><path d="M36.72623,87.33623c0.92393,-1.02602 2.24429,-1.34325 2.94911,-0.70856c0.70481,0.63469 0.52718,1.98096 -0.39675,3.00697c-0.92393,1.02602 -2.2443,1.34325 -2.94911,0.70856c-0.70481,-0.63469 -0.52718,-1.98096 0.39676,-3.00697z"/><path d="M327.41489,256.24972c0.92393,-1.02602 2.2443,-1.34325 2.94911,-0.70856c0.70481,0.63469 0.52718,1.98096 -0.39675,3.00697c-0.92393,1.02602 -2.2443,1.34325 -2.94911,0.70856c-0.70481,-0.63469 -0.52718,-1.98096 0.39675,-3.00697z"/><path d="M-25.96016,92.78901c0.73915,-0.82081 1.79544,-1.0746 2.35929,-0.56685c0.56385,0.50775 0.42174,1.58476 -0.3174,2.40558c-0.73915,0.82081 -1.79543,1.0746 -2.35928,0.56685c-0.56385,-0.50775 -0.42175,-1.58477 0.3174,-2.40558z"/><path d="M90.41215,15.91334c0.73915,-0.82081 1.79543,-1.0746 2.35928,-0.56685c0.56385,0.50775 0.42175,1.58477 -0.3174,2.40558c-0.73915,0.82081 -1.79544,1.0746 -2.35929,0.56685c-0.56385,-0.50775 -0.42174,-1.58476 0.3174,-2.40558z"/><path d="M66.64945,161.3818c0.73915,-0.82081 1.79543,-1.0746 2.35928,-0.56685c0.56385,0.50775 0.42175,1.58477 -0.3174,2.40558c-0.73915,0.82081 -1.79544,1.0746 -2.35929,0.56685c-0.56385,-0.50775 -0.42174,-1.58476 0.3174,-2.40558z"/><path d="M181.23359,132.68679c0.73915,-0.82081 1.79544,-1.0746 2.35929,-0.56685c0.56385,0.50775 0.42174,1.58476 -0.3174,2.40558c-0.73915,0.82081 -1.79543,1.0746 -2.35928,0.56685c-0.56385,-0.50775 -0.42175,-1.58477 0.3174,-2.40558z"/><path d="M185.57613,246.94476c0.73915,-0.82081 1.79544,-1.0746 2.35929,-0.56685c0.56385,0.50775 0.42174,1.58476 -0.3174,2.40558c-0.73915,0.82081 -1.79543,1.0746 -2.35928,0.56685c-0.56385,-0.50775 -0.42175,-1.58477 0.3174,-2.40558z"/><path d="M289.43733,308.17556c0.73915,-0.82081 1.79544,-1.0746 2.35929,-0.56685c0.56385,0.50775 0.42175,1.58477 -0.3174,2.40558c-0.73915,0.82081 -1.79544,1.0746 -2.35929,0.56685c-0.56385,-0.50775 -0.42175,-1.58477 0.3174,-2.40558z"/><path d="M292.2414,200.35317c0.73915,-0.82081 1.79544,-1.0746 2.35929,-0.56685c0.56385,0.50775 0.42174,1.58476 -0.3174,2.40558c-0.73915,0.82081 -1.79543,1.0746 -2.35928,0.56685c-0.56385,-0.50775 -0.42175,-1.58477 0.3174,-2.40558z"/><path d="M123.61754,138.66835c0.55436,-0.61561 1.34658,-0.80595 1.76947,-0.42514c0.42289,0.38082 0.31631,1.18857 -0.23805,1.80418c-0.55436,0.61561 -1.34657,0.80595 -1.76946,0.42514c-0.42289,-0.38082 -0.31631,-1.18857 0.23805,-1.80419z"/><path d="M229.43066,211.07678c0.55436,-0.61561 1.34658,-0.80595 1.76947,-0.42514c0.42289,0.38082 0.31631,1.18857 -0.23805,1.80418c-0.55436,0.61561 -1.34657,0.80595 -1.76946,0.42514c-0.42289,-0.38082 -0.31631,-1.18857 0.23805,-1.80419z"/><path d="M75.7232,86.11931c0.55436,-0.61561 1.34657,-0.80595 1.76946,-0.42514c0.42289,0.38082 0.31631,1.18857 -0.23805,1.80419c-0.55436,0.61561 -1.34658,0.80595 -1.76947,0.42514c-0.42289,-0.38082 -0.31631,-1.18857 0.23805,-1.80418z"/><path d="M44.79243,137.66232c0.27718,-0.3078 0.67329,-0.40298 0.88473,-0.21257c0.21144,0.19041 0.15815,0.59429 -0.11903,0.90209c-0.27718,0.3078 -0.67329,0.40298 -0.88473,0.21257c-0.21144,-0.19041 -0.15815,-0.59429 0.11903,-0.90209z"/><path d="M89.31766,51.26167c0.27718,-0.3078 0.67329,-0.40298 0.88473,-0.21257c0.21144,0.19041 0.15815,0.59429 -0.11902,0.90209c-0.27718,0.3078 -0.67329,0.40297 -0.88474,0.21257c-0.21144,-0.19041 -0.15815,-0.59429 0.11903,-0.90209z"/><path d="M257.28092,284.60132c0.27718,-0.3078 0.67329,-0.40297 0.88474,-0.21257c0.21144,0.19041 0.15815,0.59429 -0.11903,0.90209c-0.27718,0.3078 -0.67329,0.40298 -0.88473,0.21257c-0.21144,-0.19041 -0.15815,-0.59429 0.11902,-0.90209z"/><path d="M275.37285,147.48331c0.27718,-0.3078 0.67329,-0.40298 0.88473,-0.21257c0.21144,0.19041 0.15815,0.59429 -0.11902,0.90209c-0.27718,0.3078 -0.67329,0.40297 -0.88474,0.21257c-0.21144,-0.19041 -0.15815,-0.59429 0.11903,-0.90209z"/><path d="M181.22575,276.66974c0.27718,-0.3078 0.67329,-0.40297 0.88474,-0.21257c0.21144,0.19041 0.15815,0.59429 -0.11903,0.90209c-0.27718,0.3078 -0.67329,0.40298 -0.88473,0.21257c-0.21144,-0.19041 -0.15815,-0.59429 0.11902,-0.90209z"/><path d="M186.01913,84.51388c0.27718,-0.3078 0.67329,-0.40297 0.88474,-0.21257c0.21144,0.19041 0.15815,0.59429 -0.11903,0.90209c-0.27718,0.3078 -0.67329,0.40298 -0.88473,0.21257c-0.21144,-0.19041 -0.15815,-0.59429 0.11902,-0.90209z"/><path d="M273.51795,347.66811c0.27718,-0.3078 0.67329,-0.40298 0.88473,-0.21257c0.21144,0.19041 0.15815,0.59429 -0.11903,0.90209c-0.27718,0.3078 -0.67329,0.40298 -0.88473,0.21257c-0.21144,-0.19041 -0.15815,-0.59429 0.11903,-0.90209z"/><path d="M366.98779,258.24283c0.27718,-0.3078 0.67329,-0.40297 0.88474,-0.21257c0.21144,0.19041 0.15815,0.59429 -0.11903,0.90209c-0.27718,0.3078 -0.67329,0.40298 -0.88473,0.21257c-0.21144,-0.19041 -0.15815,-0.59429 0.11902,-0.90209z"/><path d="M122.2466,191.26185c0.27718,-0.3078 0.67329,-0.40298 0.88473,-0.21257c0.21144,0.19041 0.15815,0.59429 -0.11903,0.90209c-0.27718,0.3078 -0.67329,0.40298 -0.88473,0.21257c-0.21144,-0.19041 -0.15815,-0.59429 0.11903,-0.90209z"/><path d="M132.38527,32.17917c0.27718,-0.3078 0.67329,-0.40298 0.88473,-0.21257c0.21144,0.19041 0.15815,0.59429 -0.11903,0.90209c-0.27718,0.3078 -0.67329,0.40298 -0.88473,0.21257c-0.21144,-0.19041 -0.15815,-0.59429 0.11903,-0.90209z"/><path d="M196.31549,183.94777c0.27718,-0.3078 0.67329,-0.40298 0.88473,-0.21257c0.21144,0.19041 0.15815,0.59429 -0.11903,0.90209c-0.27718,0.3078 -0.67329,0.40298 -0.88473,0.21257c-0.21144,-0.19041 -0.15815,-0.59429 0.11903,-0.90209z"/><path d="M283.48479,168.24518c0.27718,-0.3078 0.67329,-0.40298 0.88473,-0.21257c0.21144,0.19041 0.15815,0.59429 -0.11902,0.90209c-0.27718,0.3078 -0.67329,0.40297 -0.88474,0.21257c-0.21144,-0.19041 -0.15815,-0.59429 0.11903,-0.90209z"/><path d="M321.01099,212.80336c0.27718,-0.3078 0.67329,-0.40298 0.88473,-0.21257c0.21144,0.19041 0.15815,0.59429 -0.11902,0.90209c-0.27718,0.3078 -0.67329,0.40297 -0.88474,0.21257c-0.21144,-0.19041 -0.15815,-0.59429 0.11903,-0.90209z"/><path d="M333.10866,285.59961c0.27718,-0.3078 0.67329,-0.40298 0.88473,-0.21257c0.21144,0.19041 0.15815,0.59429 -0.11902,0.90209c-0.27718,0.3078 -0.67329,0.40297 -0.88474,0.21257c-0.21144,-0.19041 -0.15815,-0.59429 0.11903,-0.90209z"/><path d="M240.03306,341.73737c0.27718,-0.3078 0.67329,-0.40298 0.88473,-0.21257c0.21144,0.19041 0.15815,0.59429 -0.11902,0.90209c-0.27718,0.3078 -0.67329,0.40297 -0.88474,0.21257c-0.21144,-0.19041 -0.15815,-0.59429 0.11903,-0.90209z"/><path d="M17.06322,53.48117c0.27718,-0.3078 0.67329,-0.40298 0.88473,-0.21257c0.21144,0.19041 0.15815,0.59429 -0.11903,0.90209c-0.27718,0.3078 -0.67329,0.40298 -0.88473,0.21257c-0.21144,-0.19041 -0.15815,-0.59429 0.11903,-0.90209z"/></g></g><g data-paper-data="{&quot;index&quot;:null}" fill-opacity="0.40392" fill="#ffffff" stroke-width="0.5"><path d="M237.95588,221.65894c0,1.38071 -1.11929,2.5 -2.5,2.5c-1.38071,0 -2.5,-1.11929 -2.5,-2.5c0,-1.38071 1.11929,-2.5 2.5,-2.5c1.38071,0 2.5,1.11929 2.5,2.5z"/><path d="M71.95587,276.65894c0,1.38071 -1.11929,2.5 -2.5,2.5c-1.38071,0 -2.5,-1.11929 -2.5,-2.5c0,-1.38071 1.11929,-2.5 2.5,-2.5c1.38071,0 2.5,1.11929 2.5,2.5z"/><path d="M377.95588,297.65894c0,1.38071 -1.11929,2.5 -2.5,2.5c-1.38071,0 -2.5,-1.11929 -2.5,-2.5c0,-1.38071 1.11929,-2.5 2.5,-2.5c1.38071,0 2.5,1.11929 2.5,2.5z"/><path d="M68.95587,184.65894c0,1.38071 -1.11929,2.5 -2.5,2.5c-1.38071,0 -2.5,-1.11929 -2.5,-2.5c0,-1.38071 1.11929,-2.5 2.5,-2.5c1.38071,0 2.5,1.11929 2.5,2.5z"/><path d="M199.95588,310.65894c0,1.38071 -1.11929,2.5 -2.5,2.5c-1.38071,0 -2.5,-1.11929 -2.5,-2.5c0,-1.38071 1.11929,-2.5 2.5,-2.5c1.38071,0 2.5,1.11929 2.5,2.5z"/><path d="M473.95588,219.65894c0,1.38071 -1.11929,2.5 -2.5,2.5c-1.38071,0 -2.5,-1.11929 -2.5,-2.5c0,-1.38071 1.11929,-2.5 2.5,-2.5c1.38071,0 2.5,1.11929 2.5,2.5z"/><path d="M-5.04413,288.65894c0,1.38071 -1.11929,2.5 -2.5,2.5c-1.38071,0 -2.5,-1.11929 -2.5,-2.5c0,-1.38071 1.11929,-2.5 2.5,-2.5c1.38071,0 2.5,1.11929 2.5,2.5z"/><path d="M536.45588,173.65894c0,1.10457 -0.89543,2 -2,2c-1.10457,0 -2,-0.89543 -2,-2c0,-1.10457 0.89543,-2 2,-2c1.10457,0 2,0.89543 2,2z"/><path d="M485.45588,308.65894c0,1.10457 -0.89543,2 -2,2c-1.10457,0 -2,-0.89543 -2,-2c0,-1.10457 0.89543,-2 2,-2c1.10457,0 2,0.89543 2,2z"/><path d="M369.45588,184.65894c0,1.10457 -0.89543,2 -2,2c-1.10457,0 -2,-0.89543 -2,-2c0,-1.10457 0.89543,-2 2,-2c1.10457,0 2,0.89543 2,2z"/><path d="M273.45588,282.65894c0,1.10457 -0.89543,2 -2,2c-1.10457,0 -2,-0.89543 -2,-2c0,-1.10457 0.89543,-2 2,-2c1.10457,0 2,0.89543 2,2z"/><path d="M157.45588,200.65894c0,1.10457 -0.89543,2 -2,2c-1.10457,0 -2,-0.89543 -2,-2c0,-1.10457 0.89543,-2 2,-2c1.10457,0 2,0.89543 2,2z"/><path d="M-14.54413,224.65894c0,1.10457 -0.89543,2 -2,2c-1.10457,0 -2,-0.89543 -2,-2c0,-1.10457 0.89543,-2 2,-2c1.10457,0 2,0.89543 2,2z"/><path d="M87.45588,306.65894c0,1.10457 -0.89543,2 -2,2c-1.10457,0 -2,-0.89543 -2,-2c0,-1.10457 0.89543,-2 2,-2c1.10457,0 2,0.89543 2,2z"/><path d="M329.95588,239.65894c0,0.82843 -0.67157,1.5 -1.5,1.5c-0.82843,0 -1.5,-0.67157 -1.5,-1.5c0,-0.82843 0.67157,-1.5 1.5,-1.5c0.82843,0 1.5,0.67157 1.5,1.5z"/><path d="M144.95588,256.65894c0,0.82843 -0.67157,1.5 -1.5,1.5c-0.82843,0 -1.5,-0.67157 -1.5,-1.5c0,-0.82843 0.67157,-1.5 1.5,-1.5c0.82843,0 1.5,0.67157 1.5,1.5z"/><path d="M432.95588,246.65894c0,0.82843 -0.67157,1.5 -1.5,1.5c-0.82843,0 -1.5,-0.67157 -1.5,-1.5c0,-0.82843 0.67157,-1.5 1.5,-1.5c0.82843,0 1.5,0.67157 1.5,1.5z"/><path d="M416.20588,187.65894c0,0.41421 -0.33579,0.75 -0.75,0.75c-0.41421,0 -0.75,-0.33579 -0.75,-0.75c0,-0.41421 0.33579,-0.75 0.75,-0.75c0.41421,0 0.75,0.33579 0.75,0.75z"/><path d="M452.20589,281.65894c0,0.41421 -0.33579,0.75 -0.75,0.75c-0.41421,0 -0.75,-0.33579 -0.75,-0.75c0,-0.41421 0.33579,-0.75 0.75,-0.75c0.41421,0 0.75,0.33579 0.75,0.75z"/><path d="M43.20587,220.65894c0,0.41421 -0.33579,0.75 -0.75,0.75c-0.41421,0 -0.75,-0.33579 -0.75,-0.75c0,-0.41421 0.33579,-0.75 0.75,-0.75c0.41421,0 0.75,0.33579 0.75,0.75z"/><path d="M157.20588,334.65894c0,0.41421 -0.33579,0.75 -0.75,0.75c-0.41421,0 -0.75,-0.33579 -0.75,-0.75c0,-0.41421 0.33579,-0.75 0.75,-0.75c0.41421,0 0.75,0.33579 0.75,0.75z"/><path d="M133.20588,175.65894c0,0.41421 -0.33579,0.75 -0.75,0.75c-0.41421,0 -0.75,-0.33579 -0.75,-0.75c0,-0.41421 0.33579,-0.75 0.75,-0.75c0.41421,0 0.75,0.33579 0.75,0.75z"/><path d="M315.20588,321.65894c0,0.41421 -0.33579,0.75 -0.75,0.75c-0.41421,0 -0.75,-0.33579 -0.75,-0.75c0,-0.41421 0.33579,-0.75 0.75,-0.75c0.41421,0 0.75,0.33579 0.75,0.75z"/><path d="M-35.79413,184.65894c0,0.41421 -0.33579,0.75 -0.75,0.75c-0.41421,0 -0.75,-0.33579 -0.75,-0.75c0,-0.41421 0.33579,-0.75 0.75,-0.75c0.41421,0 0.75,0.33579 0.75,0.75z"/><path d="M-49.79413,313.65894c0,0.41421 -0.33579,0.75 -0.75,0.75c-0.41421,0 -0.75,-0.33579 -0.75,-0.75c0,-0.41421 0.33579,-0.75 0.75,-0.75c0.41421,0 0.75,0.33579 0.75,0.75z"/><path d="M280.20588,199.65894c0,0.41421 -0.33579,0.75 -0.75,0.75c-0.41421,0 -0.75,-0.33579 -0.75,-0.75c0,-0.41421 0.33579,-0.75 0.75,-0.75c0.41421,0 0.75,0.33579 0.75,0.75z"/><path d="M424.20588,324.65894c0,0.41421 -0.33579,0.75 -0.75,0.75c-0.41421,0 -0.75,-0.33579 -0.75,-0.75c0,-0.41421 0.33579,-0.75 0.75,-0.75c0.41421,0 0.75,0.33579 0.75,0.75z"/><path d="M207.20588,254.65894c0,0.41421 -0.33579,0.75 -0.75,0.75c-0.41421,0 -0.75,-0.33579 -0.75,-0.75c0,-0.41421 0.33579,-0.75 0.75,-0.75c0.41421,0 0.75,0.33579 0.75,0.75z"/><path d="M128.20588,324.65894c0,0.41421 -0.33579,0.75 -0.75,0.75c-0.41421,0 -0.75,-0.33579 -0.75,-0.75c0,-0.41421 0.33579,-0.75 0.75,-0.75c0.41421,0 0.75,0.33579 0.75,0.75z"/><path d="M44.20587,316.65894c0,0.41421 -0.33579,0.75 -0.75,0.75c-0.41421,0 -0.75,-0.33579 -0.75,-0.75c0,-0.41421 0.33579,-0.75 0.75,-0.75c0.41421,0 0.75,0.33579 0.75,0.75z"/><path d="M-39.79413,270.65894c0,0.41421 -0.33579,0.75 -0.75,0.75c-0.41421,0 -0.75,-0.33579 -0.75,-0.75c0,-0.41421 0.33579,-0.75 0.75,-0.75c0.41421,0 0.75,0.33579 0.75,0.75z"/><path d="M6.20587,166.65894c0,0.41421 -0.33579,0.75 -0.75,0.75c-0.41421,0 -0.75,-0.33579 -0.75,-0.75c0,-0.41421 0.33579,-0.75 0.75,-0.75c0.41421,0 0.75,0.33579 0.75,0.75z"/><path d="M528.20589,231.65894c0,0.41421 -0.33579,0.75 -0.75,0.75c-0.41421,0 -0.75,-0.33579 -0.75,-0.75c0,-0.41421 0.33579,-0.75 0.75,-0.75c0.41421,0 0.75,0.33579 0.75,0.75z"/></g><g data-paper-data="{&quot;index&quot;:null}" fill-opacity="0.40392" fill="#ffffff" stroke-width="0.5"><path d="M260.95588,40.65894c0,1.38071 -1.11929,2.5 -2.5,2.5c-1.38071,0 -2.5,-1.11929 -2.5,-2.5c0,-1.38071 1.11929,-2.5 2.5,-2.5c1.38071,0 2.5,1.11929 2.5,2.5z"/><path d="M94.95588,95.65894c0,1.38071 -1.11929,2.5 -2.5,2.5c-1.38071,0 -2.5,-1.11929 -2.5,-2.5c0,-1.38071 1.11929,-2.5 2.5,-2.5c1.38071,0 2.5,1.11929 2.5,2.5z"/><path d="M400.95588,116.65894c0,1.38071 -1.11929,2.5 -2.5,2.5c-1.38071,0 -2.5,-1.11929 -2.5,-2.5c0,-1.38071 1.11929,-2.5 2.5,-2.5c1.38071,0 2.5,1.11929 2.5,2.5z"/><path d="M91.95588,3.65894c0,1.38071 -1.11929,2.5 -2.5,2.5c-1.38071,0 -2.5,-1.11929 -2.5,-2.5c0,-1.38071 1.11929,-2.5 2.5,-2.5c1.38071,0 2.5,1.11929 2.5,2.5z"/><path d="M222.95588,129.65894c0,1.38071 -1.11929,2.5 -2.5,2.5c-1.38071,0 -2.5,-1.11929 -2.5,-2.5c0,-1.38071 1.11929,-2.5 2.5,-2.5c1.38071,0 2.5,1.11929 2.5,2.5z"/><path d="M496.95588,38.65894c0,1.38071 -1.11929,2.5 -2.5,2.5c-1.38071,0 -2.5,-1.11929 -2.5,-2.5c0,-1.38071 1.11929,-2.5 2.5,-2.5c1.38071,0 2.5,1.11929 2.5,2.5z"/><path d="M17.95587,107.65894c0,1.38071 -1.11929,2.5 -2.5,2.5c-1.38071,0 -2.5,-1.11929 -2.5,-2.5c0,-1.38071 1.11929,-2.5 2.5,-2.5c1.38071,0 2.5,1.11929 2.5,2.5z"/><path d="M559.45588,-7.34106c0,1.10457 -0.89543,2 -2,2c-1.10457,0 -2,-0.89543 -2,-2c0,-1.10457 0.89543,-2 2,-2c1.10457,0 2,0.89543 2,2z"/><path d="M508.45588,127.65894c0,1.10457 -0.89543,2 -2,2c-1.10457,0 -2,-0.89543 -2,-2c0,-1.10457 0.89543,-2 2,-2c1.10457,0 2,0.89543 2,2z"/><path d="M392.45588,3.65894c0,1.10457 -0.89543,2 -2,2c-1.10457,0 -2,-0.89543 -2,-2c0,-1.10457 0.89543,-2 2,-2c1.10457,0 2,0.89543 2,2z"/><path d="M296.45588,101.65894c0,1.10457 -0.89543,2 -2,2c-1.10457,0 -2,-0.89543 -2,-2c0,-1.10457 0.89543,-2 2,-2c1.10457,0 2,0.89543 2,2z"/><path d="M180.45588,19.65894c0,1.10457 -0.89543,2 -2,2c-1.10457,0 -2,-0.89543 -2,-2c0,-1.10457 0.89543,-2 2,-2c1.10457,0 2,0.89543 2,2z"/><path d="M8.45587,43.65894c0,1.10457 -0.89543,2 -2,2c-1.10457,0 -2,-0.89543 -2,-2c0,-1.10457 0.89543,-2 2,-2c1.10457,0 2,0.89543 2,2z"/><path d="M110.45588,125.65894c0,1.10457 -0.89543,2 -2,2c-1.10457,0 -2,-0.89543 -2,-2c0,-1.10457 0.89543,-2 2,-2c1.10457,0 2,0.89543 2,2z"/><path d="M352.95588,58.65894c0,0.82843 -0.67157,1.5 -1.5,1.5c-0.82843,0 -1.5,-0.67157 -1.5,-1.5c0,-0.82843 0.67157,-1.5 1.5,-1.5c0.82843,0 1.5,0.67157 1.5,1.5z"/><path d="M167.95588,75.65894c0,0.82843 -0.67157,1.5 -1.5,1.5c-0.82843,0 -1.5,-0.67157 -1.5,-1.5c0,-0.82843 0.67157,-1.5 1.5,-1.5c0.82843,0 1.5,0.67157 1.5,1.5z"/><path d="M455.95589,65.65894c0,0.82843 -0.67157,1.5 -1.5,1.5c-0.82843,0 -1.5,-0.67157 -1.5,-1.5c0,-0.82843 0.67157,-1.5 1.5,-1.5c0.82843,0 1.5,0.67157 1.5,1.5z"/><path d="M439.20588,6.65894c0,0.41421 -0.33579,0.75 -0.75,0.75c-0.41421,0 -0.75,-0.33579 -0.75,-0.75c0,-0.41421 0.33579,-0.75 0.75,-0.75c0.41421,0 0.75,0.33579 0.75,0.75z"/><path d="M475.20589,100.65894c0,0.41421 -0.33579,0.75 -0.75,0.75c-0.41421,0 -0.75,-0.33579 -0.75,-0.75c0,-0.41421 0.33579,-0.75 0.75,-0.75c0.41421,0 0.75,0.33579 0.75,0.75z"/><path d="M66.20587,39.65894c0,0.41421 -0.33579,0.75 -0.75,0.75c-0.41421,0 -0.75,-0.33579 -0.75,-0.75c0,-0.41421 0.33579,-0.75 0.75,-0.75c0.41421,0 0.75,0.33579 0.75,0.75z"/><path d="M180.20588,153.65894c0,0.41421 -0.33579,0.75 -0.75,0.75c-0.41421,0 -0.75,-0.33579 -0.75,-0.75c0,-0.41421 0.33579,-0.75 0.75,-0.75c0.41421,0 0.75,0.33579 0.75,0.75z"/><path d="M156.20588,-5.34106c0,0.41421 -0.33579,0.75 -0.75,0.75c-0.41421,0 -0.75,-0.33579 -0.75,-0.75c0,-0.41421 0.33579,-0.75 0.75,-0.75c0.41421,0 0.75,0.33579 0.75,0.75z"/><path d="M338.20588,140.65894c0,0.41421 -0.33579,0.75 -0.75,0.75c-0.41421,0 -0.75,-0.33579 -0.75,-0.75c0,-0.41421 0.33579,-0.75 0.75,-0.75c0.41421,0 0.75,0.33579 0.75,0.75z"/><path d="M-12.79413,3.65894c0,0.41421 -0.33579,0.75 -0.75,0.75c-0.41421,0 -0.75,-0.33579 -0.75,-0.75c0,-0.41421 0.33579,-0.75 0.75,-0.75c0.41421,0 0.75,0.33579 0.75,0.75z"/><path d="M-26.79413,132.65894c0,0.41421 -0.33579,0.75 -0.75,0.75c-0.41421,0 -0.75,-0.33579 -0.75,-0.75c0,-0.41421 0.33579,-0.75 0.75,-0.75c0.41421,0 0.75,0.33579 0.75,0.75z"/><path d="M303.20588,18.65894c0,0.41421 -0.33579,0.75 -0.75,0.75c-0.41421,0 -0.75,-0.33579 -0.75,-0.75c0,-0.41421 0.33579,-0.75 0.75,-0.75c0.41421,0 0.75,0.33579 0.75,0.75z"/><path d="M447.20588,143.65894c0,0.41421 -0.33579,0.75 -0.75,0.75c-0.41421,0 -0.75,-0.33579 -0.75,-0.75c0,-0.41421 0.33579,-0.75 0.75,-0.75c0.41421,0 0.75,0.33579 0.75,0.75z"/><path d="M230.20588,73.65894c0,0.41421 -0.33579,0.75 -0.75,0.75c-0.41421,0 -0.75,-0.33579 -0.75,-0.75c0,-0.41421 0.33579,-0.75 0.75,-0.75c0.41421,0 0.75,0.33579 0.75,0.75z"/><path d="M151.20588,143.65894c0,0.41421 -0.33579,0.75 -0.75,0.75c-0.41421,0 -0.75,-0.33579 -0.75,-0.75c0,-0.41421 0.33579,-0.75 0.75,-0.75c0.41421,0 0.75,0.33579 0.75,0.75z"/><path d="M67.20587,135.65894c0,0.41421 -0.33579,0.75 -0.75,0.75c-0.41421,0 -0.75,-0.33579 -0.75,-0.75c0,-0.41421 0.33579,-0.75 0.75,-0.75c0.41421,0 0.75,0.33579 0.75,0.75z"/><path d="M-16.79413,89.65894c0,0.41421 -0.33579,0.75 -0.75,0.75c-0.41421,0 -0.75,-0.33579 -0.75,-0.75c0,-0.41421 0.33579,-0.75 0.75,-0.75c0.41421,0 0.75,0.33579 0.75,0.75z"/><path d="M29.20587,-14.34106c0,0.41421 -0.33579,0.75 -0.75,0.75c-0.41421,0 -0.75,-0.33579 -0.75,-0.75c0,-0.41421 0.33579,-0.75 0.75,-0.75c0.41421,0 0.75,0.33579 0.75,0.75z"/><path d="M551.20588,50.65894c0,0.41421 -0.33579,0.75 -0.75,0.75c-0.41421,0 -0.75,-0.33579 -0.75,-0.75c0,-0.41421 0.33579,-0.75 0.75,-0.75c0.41421,0 0.75,0.33579 0.75,0.75z"/></g><g data-paper-data="{&quot;index&quot;:null}" fill-opacity="0.40392" fill="#ffffff" stroke-width="0.5"><path d="M169.58088,164.48183c-1.38071,0 -2.5,-0.76889 -2.5,-1.71735c0,-0.94847 1.11929,-1.71735 2.5,-1.71735c1.38071,0 2.5,0.76889 2.5,1.71735c0,0.94847 -1.11929,1.71735 -2.5,1.71735z"/><path d="M114.58088,50.44951c-1.38071,0 -2.5,-0.76889 -2.5,-1.71735c0,-0.94847 1.11929,-1.71735 2.5,-1.71735c1.38071,0 2.5,0.76889 2.5,1.71735c0,0.94847 -1.11929,1.71735 -2.5,1.71735z"/><path d="M93.58088,260.65368c-1.38071,0 -2.5,-0.76889 -2.5,-1.71735c0,-0.94847 1.11929,-1.71735 2.5,-1.71735c1.38071,0 2.5,0.76889 2.5,1.71735c0,0.94847 -1.11929,1.71735 -2.5,1.71735z"/><path d="M206.58088,48.38868c-1.38071,0 -2.5,-0.76889 -2.5,-1.71735c0,-0.94847 1.11929,-1.71735 2.5,-1.71735c1.38071,0 2.5,0.76889 2.5,1.71735c0,0.94847 -1.11929,1.71735 -2.5,1.71735z"/><path d="M80.58087,138.37805c-1.38071,0 -2.5,-0.76889 -2.5,-1.71735c0,-0.94847 1.11929,-1.71735 2.5,-1.71735c1.38071,0 2.5,0.76889 2.5,1.71735c0,0.94847 -1.11929,1.71735 -2.5,1.71735z"/><path d="M171.58088,326.60008c-1.38071,0 -2.5,-0.76889 -2.5,-1.71735c0,-0.94847 1.11929,-1.71735 2.5,-1.71735c1.38071,0 2.5,0.76889 2.5,1.71735c0,0.94847 -1.11929,1.71735 -2.5,1.71735z"/><path d="M102.58088,-2.44501c-1.38071,0 -2.5,-0.76889 -2.5,-1.71735c0,-0.94847 1.11929,-1.71735 2.5,-1.71735c1.38071,0 2.5,0.76889 2.5,1.71735c0,0.94847 -1.11929,1.71735 -2.5,1.71735z"/><path d="M217.58088,369.53394c-1.10457,0 -2,-0.61511 -2,-1.37388c0,-0.75878 0.89543,-1.37388 2,-1.37388c1.10457,0 2,0.61511 2,1.37388c0,0.75878 -0.89543,1.37388 -2,1.37388z"/><path d="M82.58087,334.49991c-1.10457,0 -2,-0.61511 -2,-1.37388c0,-0.75878 0.89543,-1.37388 2,-1.37388c1.10457,0 2,0.61511 2,1.37388c0,0.75878 -0.89543,1.37388 -2,1.37388z"/><path d="M206.58088,254.81467c-1.10457,0 -2,-0.61511 -2,-1.37388c0,-0.75878 0.89543,-1.37388 2,-1.37388c1.10457,0 2,0.61511 2,1.37388c0,0.75878 -0.89543,1.37388 -2,1.37388z"/><path d="M108.58088,188.86827c-1.10457,0 -2,-0.61511 -2,-1.37388c0,-0.75878 0.89543,-1.37388 2,-1.37388c1.10457,0 2,0.61511 2,1.37388c0,0.75878 -0.89543,1.37388 -2,1.37388z"/><path d="M190.58088,109.18303c-1.10457,0 -2,-0.61511 -2,-1.37388c0,-0.75878 0.89543,-1.37388 2,-1.37388c1.10457,0 2,0.61511 2,1.37388c0,0.75878 -0.89543,1.37388 -2,1.37388z"/><path d="M166.58088,-8.97095c-1.10457,0 -2,-0.61511 -2,-1.37388c0,-0.75878 0.89543,-1.37388 2,-1.37388c1.10457,0 2,0.61511 2,1.37388c0,0.75878 -0.89543,1.37388 -2,1.37388z"/><path d="M84.58088,61.0971c-1.10457,0 -2,-0.61511 -2,-1.37388c0,-0.75878 0.89543,-1.37388 2,-1.37388c1.10457,0 2,0.61511 2,1.37388c0,0.75878 -0.89543,1.37388 -2,1.37388z"/><path d="M151.58088,227.68047c-0.82843,0 -1.5,-0.46133 -1.5,-1.03041c0,-0.56908 0.67157,-1.03041 1.5,-1.03041c0.82843,0 1.5,0.46133 1.5,1.03041c0,0.56908 -0.67157,1.03041 -1.5,1.03041z"/><path d="M134.58088,100.59625c-0.82843,0 -1.5,-0.46133 -1.5,-1.03041c0,-0.56908 0.67157,-1.03041 1.5,-1.03041c0.82843,0 1.5,0.46133 1.5,1.03041c0,0.56908 -0.67157,1.03041 -1.5,1.03041z"/><path d="M144.58088,298.43547c-0.82843,0 -1.5,-0.46133 -1.5,-1.03041c0,-0.56908 0.67157,-1.03041 1.5,-1.03041c0.82843,0 1.5,0.46133 1.5,1.03041c0,0.56908 -0.67157,1.03041 -1.5,1.03041z"/><path d="M203.58088,286.9292c-0.41421,0 -0.75,-0.23067 -0.75,-0.51521c0,-0.28454 0.33579,-0.51521 0.75,-0.51521c0.41421,0 0.75,0.23067 0.75,0.51521c0,0.28454 -0.33579,0.51521 -0.75,0.51521z"/><path d="M109.58088,311.65909c-0.41421,0 -0.75,-0.23067 -0.75,-0.51521c0,-0.28454 0.33579,-0.51521 0.75,-0.51521c0.41421,0 0.75,0.23067 0.75,0.51521c0,0.28454 -0.33579,0.51521 -0.75,0.51521z"/><path d="M170.58088,30.69993c-0.41421,0 -0.75,-0.23067 -0.75,-0.51521c0,-0.28454 0.33579,-0.51521 0.75,-0.51521c0.41421,0 0.75,0.23067 0.75,0.51521c0,0.28454 -0.33579,0.51521 -0.75,0.51521z"/><path d="M56.58088,109.01129c-0.41421,0 -0.75,-0.23067 -0.75,-0.51521c0,-0.28454 0.33579,-0.51521 0.75,-0.51521c0.41421,0 0.75,0.23067 0.75,0.51521c0,0.28454 -0.33579,0.51521 -0.75,0.51521z"/><path d="M215.58088,92.52469c-0.41421,0 -0.75,-0.23067 -0.75,-0.51521c0,-0.28454 0.33579,-0.51521 0.75,-0.51521c0.41421,0 0.75,0.23067 0.75,0.51521c0,0.28454 -0.33579,0.51521 -0.75,0.51521z"/><path d="M69.58087,217.54808c-0.41421,0 -0.75,-0.23067 -0.75,-0.51521c0,-0.28454 0.33579,-0.51521 0.75,-0.51521c0.41421,0 0.75,0.23067 0.75,0.51521c0,0.28454 -0.33579,0.51521 -0.75,0.51521z"/><path d="M206.58088,-23.56846c-0.41421,0 -0.75,-0.23067 -0.75,-0.51521c0,-0.28454 0.33579,-0.51521 0.75,-0.51521c0.41421,0 0.75,0.23067 0.75,0.51521c0,0.28454 -0.33579,0.51521 -0.75,0.51521z"/><path d="M77.58087,-33.18565c-0.41421,0 -0.75,-0.23067 -0.75,-0.51521c0,-0.28454 0.33579,-0.51521 0.75,-0.51521c0.41421,0 0.75,0.23067 0.75,0.51521c0,0.28454 -0.33579,0.51521 -0.75,0.51521z"/><path d="M191.58088,193.50512c-0.41421,0 -0.75,-0.23067 -0.75,-0.51521c0,-0.28454 0.33579,-0.51521 0.75,-0.51521c0.41421,0 0.75,0.23067 0.75,0.51521c0,0.28454 -0.33579,0.51521 -0.75,0.51521z"/><path d="M66.58087,292.42472c-0.41421,0 -0.75,-0.23067 -0.75,-0.51521c0,-0.28454 0.33579,-0.51521 0.75,-0.51521c0.41421,0 0.75,0.23067 0.75,0.51521c0,0.28454 -0.33579,0.51521 -0.75,0.51521z"/><path d="M136.58088,143.35838c-0.41421,0 -0.75,-0.23067 -0.75,-0.51521c0,-0.28454 0.33579,-0.51521 0.75,-0.51521c0.41421,0 0.75,0.23067 0.75,0.51521c0,0.28454 -0.33579,0.51521 -0.75,0.51521z"/><path d="M66.58087,89.08998c-0.41421,0 -0.75,-0.23067 -0.75,-0.51521c0,-0.28454 0.33579,-0.51521 0.75,-0.51521c0.41421,0 0.75,0.23067 0.75,0.51521c0,0.28454 -0.33579,0.51521 -0.75,0.51521z"/><path d="M74.58087,31.38687c-0.41421,0 -0.75,-0.23067 -0.75,-0.51521c0,-0.28454 0.33579,-0.51521 0.75,-0.51521c0.41421,0 0.75,0.23067 0.75,0.51521c0,0.28454 -0.33579,0.51521 -0.75,0.51521z"/><path d="M120.58088,-26.31623c-0.41421,0 -0.75,-0.23067 -0.75,-0.51521c0,-0.28454 0.33579,-0.51521 0.75,-0.51521c0.41421,0 0.75,0.23067 0.75,0.51521c0,0.28454 -0.33579,0.51521 -0.75,0.51521z"/><path d="M224.58088,5.28309c-0.41421,0 -0.75,-0.23067 -0.75,-0.51521c0,-0.28454 0.33579,-0.51521 0.75,-0.51521c0.41421,0 0.75,0.23067 0.75,0.51521c0,0.28454 -0.33579,0.51521 -0.75,0.51521z"/><path d="M159.58088,363.86667c-0.41421,0 -0.75,-0.23067 -0.75,-0.51521c0,-0.28454 0.33579,-0.51521 0.75,-0.51521c0.41421,0 0.75,0.23067 0.75,0.51521c0,0.28454 -0.33579,0.51521 -0.75,0.51521z"/></g><g data-paper-data="{&quot;index&quot;:null}" fill-opacity="0.40392" fill="#ffffff" stroke-width="0.5"><path d="M349.62596,140.9828c-0.92393,1.02602 -2.2443,1.34325 -2.94911,0.70856c-0.70481,-0.63469 -0.52718,-1.98096 0.39675,-3.00697c0.92393,-1.02602 2.2443,-1.34325 2.94911,-0.70856c0.70481,0.63469 0.52718,1.98096 -0.39675,3.00697z"/><path d="M228.08322,105.54641c-0.92393,1.02602 -2.2443,1.34325 -2.94911,0.70856c-0.70481,-0.63469 -0.52718,-1.98096 0.39675,-3.00697c0.92393,-1.02602 2.2443,-1.34325 2.94911,-0.70856c0.70481,0.63469 0.52718,1.98096 -0.39675,3.00697z"/><path d="M370.23484,261.81449c-0.92393,1.02602 -2.2443,1.34325 -2.94911,0.70856c-0.70481,-0.63469 -0.52718,-1.98096 0.39676,-3.00697c0.92393,-1.02602 2.24429,-1.34325 2.94911,-0.70856c0.70481,0.63469 0.52718,1.98096 -0.39675,3.00697z"/><path d="M288.11568,35.8015c-0.92393,1.02602 -2.2443,1.34325 -2.94911,0.70856c-0.70481,-0.63469 -0.52718,-1.98096 0.39675,-3.00697c0.92393,-1.02602 2.2443,-1.34325 2.94911,-0.70856c0.70481,0.63469 0.52718,1.98096 -0.39675,3.00697z"/><path d="M270.6717,189.65141c-0.92393,1.02602 -2.2443,1.34325 -2.94911,0.70856c-0.70481,-0.63469 -0.52718,-1.98096 0.39675,-3.00697c0.92393,-1.02602 2.2443,-1.34325 2.94911,-0.70856c0.70481,0.63469 0.52718,1.98096 -0.39675,3.00697z"/><path d="M471.43553,247.98164c-0.92393,1.02602 -2.24429,1.34325 -2.94911,0.70856c-0.70481,-0.63469 -0.52718,-1.98096 0.39675,-3.00697c0.92393,-1.02602 2.2443,-1.34325 2.94911,-0.70856c0.70481,0.63469 0.52718,1.98096 -0.39676,3.00697z"/><path d="M180.74686,79.06815c-0.92393,1.02602 -2.2443,1.34325 -2.94911,0.70856c-0.70481,-0.63469 -0.52718,-1.98096 0.39675,-3.00697c0.92393,-1.02602 2.2443,-1.34325 2.94911,-0.70856c0.70481,0.63469 0.52718,1.98096 -0.39675,3.00697z"/><path d="M534.12191,242.52886c-0.73915,0.82081 -1.79544,1.0746 -2.35929,0.56685c-0.56385,-0.50775 -0.42174,-1.58476 0.3174,-2.40558c0.73915,-0.82081 1.79543,-1.0746 2.35928,-0.56685c0.56385,0.50775 0.42175,1.58477 -0.3174,2.40558z"/><path d="M417.74961,319.40453c-0.73915,0.82081 -1.79543,1.0746 -2.35928,0.56685c-0.56385,-0.50775 -0.42175,-1.58477 0.3174,-2.40558c0.73915,-0.82081 1.79544,-1.0746 2.35929,-0.56685c0.56385,0.50775 0.42174,1.58476 -0.3174,2.40558z"/><path d="M441.51231,173.93607c-0.73915,0.82081 -1.79543,1.0746 -2.35928,0.56685c-0.56385,-0.50775 -0.42175,-1.58477 0.3174,-2.40558c0.73915,-0.82081 1.79544,-1.0746 2.35929,-0.56685c0.56385,0.50775 0.42174,1.58476 -0.3174,2.40558z"/><path d="M326.92816,202.63107c-0.73915,0.82081 -1.79544,1.0746 -2.35929,0.56685c-0.56385,-0.50775 -0.42174,-1.58476 0.3174,-2.40558c0.73915,-0.82081 1.79543,-1.0746 2.35928,-0.56685c0.56385,0.50775 0.42175,1.58477 -0.3174,2.40558z"/><path d="M322.58563,88.37311c-0.73915,0.82081 -1.79544,1.0746 -2.35929,0.56685c-0.56385,-0.50775 -0.42174,-1.58476 0.3174,-2.40558c0.73915,-0.82081 1.79543,-1.0746 2.35928,-0.56685c0.56385,0.50775 0.42175,1.58477 -0.3174,2.40558z"/><path d="M218.72443,27.14231c-0.73915,0.82081 -1.79544,1.0746 -2.35929,0.56685c-0.56385,-0.50775 -0.42175,-1.58477 0.3174,-2.40558c0.73915,-0.82081 1.79544,-1.0746 2.35929,-0.56685c0.56385,0.50775 0.42175,1.58477 -0.3174,2.40558z"/><path d="M215.92035,134.9647c-0.73915,0.82081 -1.79544,1.0746 -2.35929,0.56685c-0.56385,-0.50775 -0.42174,-1.58476 0.3174,-2.40558c0.73915,-0.82081 1.79543,-1.0746 2.35928,-0.56685c0.56385,0.50775 0.42175,1.58477 -0.3174,2.40558z"/><path d="M384.54422,196.64952c-0.55436,0.61561 -1.34658,0.80595 -1.76947,0.42514c-0.42289,-0.38082 -0.31631,-1.18857 0.23805,-1.80418c0.55436,-0.61561 1.34657,-0.80595 1.76946,-0.42514c0.42289,0.38082 0.31631,1.18857 -0.23805,1.80419z"/><path d="M278.73109,124.24109c-0.55436,0.61561 -1.34658,0.80595 -1.76947,0.42514c-0.42289,-0.38082 -0.31631,-1.18857 0.23805,-1.80418c0.55436,-0.61561 1.34657,-0.80595 1.76946,-0.42514c0.42289,0.38082 0.31631,1.18857 -0.23805,1.80419z"/><path d="M432.43855,249.19856c-0.55436,0.61561 -1.34657,0.80595 -1.76946,0.42514c-0.42289,-0.38082 -0.31631,-1.18857 0.23805,-1.80419c0.55436,-0.61561 1.34658,-0.80595 1.76947,-0.42514c0.42289,0.38082 0.31631,1.18857 -0.23805,1.80418z"/><path d="M463.36933,197.65555c-0.27718,0.3078 -0.67329,0.40298 -0.88473,0.21257c-0.21144,-0.19041 -0.15815,-0.59429 0.11903,-0.90209c0.27718,-0.3078 0.67329,-0.40298 0.88473,-0.21257c0.21144,0.19041 0.15815,0.59429 -0.11903,0.90209z"/><path d="M418.8441,284.0562c-0.27718,0.3078 -0.67329,0.40298 -0.88473,0.21257c-0.21144,-0.19041 -0.15815,-0.59429 0.11902,-0.90209c0.27718,-0.3078 0.67329,-0.40297 0.88474,-0.21257c0.21144,0.19041 0.15815,0.59429 -0.11903,0.90209z"/><path d="M250.88084,50.71654c-0.27718,0.3078 -0.67329,0.40297 -0.88474,0.21257c-0.21144,-0.19041 -0.15815,-0.59429 0.11903,-0.90209c0.27718,-0.3078 0.67329,-0.40298 0.88473,-0.21257c0.21144,0.19041 0.15815,0.59429 -0.11902,0.90209z"/><path d="M232.78891,187.83456c-0.27718,0.3078 -0.67329,0.40298 -0.88473,0.21257c-0.21144,-0.19041 -0.15815,-0.59429 0.11902,-0.90209c0.27718,-0.3078 0.67329,-0.40297 0.88474,-0.21257c0.21144,0.19041 0.15815,0.59429 -0.11903,0.90209z"/><path d="M326.93601,58.64813c-0.27718,0.3078 -0.67329,0.40297 -0.88474,0.21257c-0.21144,-0.19041 -0.15815,-0.59429 0.11903,-0.90209c0.27718,-0.3078 0.67329,-0.40298 0.88473,-0.21257c0.21144,0.19041 0.15815,0.59429 -0.11902,0.90209z"/><path d="M322.14262,250.80399c-0.27718,0.3078 -0.67329,0.40297 -0.88474,0.21257c-0.21144,-0.19041 -0.15815,-0.59429 0.11903,-0.90209c0.27718,-0.3078 0.67329,-0.40298 0.88473,-0.21257c0.21144,0.19041 0.15815,0.59429 -0.11902,0.90209z"/><path d="M234.6438,-12.35024c-0.27718,0.3078 -0.67329,0.40298 -0.88473,0.21257c-0.21144,-0.19041 -0.15815,-0.59429 0.11903,-0.90209c0.27718,-0.3078 0.67329,-0.40298 0.88473,-0.21257c0.21144,0.19041 0.15815,0.59429 -0.11903,0.90209z"/><path d="M141.17397,77.07504c-0.27718,0.3078 -0.67329,0.40297 -0.88474,0.21257c-0.21144,-0.19041 -0.15815,-0.59429 0.11903,-0.90209c0.27718,-0.3078 0.67329,-0.40298 0.88473,-0.21257c0.21144,0.19041 0.15815,0.59429 -0.11902,0.90209z"/><path d="M385.91516,144.05602c-0.27718,0.3078 -0.67329,0.40298 -0.88473,0.21257c-0.21144,-0.19041 -0.15815,-0.59429 0.11903,-0.90209c0.27718,-0.3078 0.67329,-0.40298 0.88473,-0.21257c0.21144,0.19041 0.15815,0.59429 -0.11903,0.90209z"/><path d="M375.77648,303.1387c-0.27718,0.3078 -0.67329,0.40298 -0.88473,0.21257c-0.21144,-0.19041 -0.15815,-0.59429 0.11903,-0.90209c0.27718,-0.3078 0.67329,-0.40298 0.88473,-0.21257c0.21144,0.19041 0.15815,0.59429 -0.11903,0.90209z"/><path d="M311.84627,151.3701c-0.27718,0.3078 -0.67329,0.40298 -0.88473,0.21257c-0.21144,-0.19041 -0.15815,-0.59429 0.11903,-0.90209c0.27718,-0.3078 0.67329,-0.40298 0.88473,-0.21257c0.21144,0.19041 0.15815,0.59429 -0.11903,0.90209z"/><path d="M224.67697,167.07269c-0.27718,0.3078 -0.67329,0.40298 -0.88473,0.21257c-0.21144,-0.19041 -0.15815,-0.59429 0.11902,-0.90209c0.27718,-0.3078 0.67329,-0.40297 0.88474,-0.21257c0.21144,0.19041 0.15815,0.59429 -0.11903,0.90209z"/><path d="M187.15076,122.51451c-0.27718,0.3078 -0.67329,0.40298 -0.88473,0.21257c-0.21144,-0.19041 -0.15815,-0.59429 0.11902,-0.90209c0.27718,-0.3078 0.67329,-0.40297 0.88474,-0.21257c0.21144,0.19041 0.15815,0.59429 -0.11903,0.90209z"/><path d="M175.05309,49.71825c-0.27718,0.3078 -0.67329,0.40298 -0.88473,0.21257c-0.21144,-0.19041 -0.15815,-0.59429 0.11902,-0.90209c0.27718,-0.3078 0.67329,-0.40297 0.88474,-0.21257c0.21144,0.19041 0.15815,0.59429 -0.11903,0.90209z"/><path d="M268.1287,-6.4195c-0.27718,0.3078 -0.67329,0.40298 -0.88473,0.21257c-0.21144,-0.19041 -0.15815,-0.59429 0.11902,-0.90209c0.27718,-0.3078 0.67329,-0.40297 0.88474,-0.21257c0.21144,0.19041 0.15815,0.59429 -0.11903,0.90209z"/><path d="M491.09854,281.83669c-0.27718,0.3078 -0.67329,0.40298 -0.88473,0.21257c-0.21144,-0.19041 -0.15815,-0.59429 0.11903,-0.90209c0.27718,-0.3078 0.67329,-0.40298 0.88473,-0.21257c0.21144,0.19041 0.15815,0.59429 -0.11903,0.90209z"/></g><path d="M641.5,180c0,126.74935 -179.75767,229.5 -401.5,229.5c-221.74233,0 -401.5,-102.75065 -401.5,-229.5c0,-126.74935 179.75767,-229.5 401.5,-229.5c221.74233,0 401.5,102.75065 401.5,229.5z" fill-opacity="0.24017" fill="#0088ec" stroke-width="0"/></g></g></svg>