<svg version="1.1" xmlns="http://www.w3.org/2000/svg" xmlns:xlink="http://www.w3.org/1999/xlink" width="169.45418" height="113.88014" viewBox="0,0,169.45418,113.88014"><defs><linearGradient x1="236.58206" y1="134.81045" x2="244.77702" y2="241.51027" gradientUnits="userSpaceOnUse" id="color-1"><stop offset="0" stop-color="#9af26d"/><stop offset="1" stop-color="#589136"/></linearGradient><linearGradient x1="252.68382" y1="138.42911" x2="260.48853" y2="240.04802" gradientUnits="userSpaceOnUse" id="color-2"><stop offset="0" stop-color="#8dd660"/><stop offset="1" stop-color="#488732"/></linearGradient><linearGradient x1="236.58206" y1="134.81046" x2="244.77702" y2="241.51027" gradientUnits="userSpaceOnUse" id="color-3"><stop offset="0" stop-color="#76c75a"/><stop offset="1" stop-color="#316626"/></linearGradient></defs><g transform="translate(-156.31086,-131.37946)"><g data-paper-data="{&quot;isPaintingLayer&quot;:true}" fill-rule="nonzero" stroke-width="4.5" stroke-linecap="butt" stroke-linejoin="miter" stroke-miterlimit="10" stroke-dasharray="" stroke-dashoffset="0" style="mix-blend-mode: normal"><path d="M195.96017,245.2596l-31.32521,-7.91494l-8.32409,-56.86255l124.94369,-49.10265l28.84351,2.89561l14.1423,51.04514z" fill="url(#color-1)" stroke="none"/><path d="M194.94438,245.08205l-7.81024,-55.10911l123.47242,-55.99249l15.15849,50.9671z" fill="url(#color-2)" stroke="none"/><path d="M195.96017,245.2596l-31.32521,-7.91494l-8.3241,-56.86256l31.76102,8.65221z" fill="url(#color-3)" stroke="none"/><path d="M298.65813,149.20869c-0.17242,-2.2449 1.50766,-4.20453 3.75256,-4.37695c2.2449,-0.17242 4.20453,1.50766 4.37695,3.75256c0.17242,2.2449 -1.50766,4.20453 -3.75257,4.37694c-2.2449,0.17242 -4.20452,-1.50766 -4.37694,-3.75256z" fill="#e6eb4a" stroke="#ff6767"/><path d="M294.22418,186.85888c-0.17242,-2.2449 1.50766,-4.20453 3.75257,-4.37694c2.2449,-0.17242 4.20452,1.50766 4.37694,3.75256c0.17242,2.2449 -1.50766,4.20452 -3.75256,4.37694c-2.2449,0.17242 -4.20453,-1.50766 -4.37695,-3.75256z" fill="#e6eb4a" stroke="#ff6767"/><path d="M289.93985,171.0034c-0.17242,-2.2449 1.50766,-4.20453 3.75256,-4.37695c2.2449,-0.17242 4.20453,1.50766 4.37694,3.75257c0.17242,2.2449 -1.50766,4.20452 -3.75256,4.37694c-2.2449,0.17242 -4.20453,-1.50766 -4.37695,-3.75256z" fill="#e6eb4a" stroke="#ff6767"/><path d="M237.63164,179.79108c-0.17242,-2.2449 1.50766,-4.20452 3.75256,-4.37694c2.2449,-0.17242 4.20452,1.50766 4.37694,3.75256c0.17242,2.2449 -1.50766,4.20452 -3.75256,4.37694c-2.2449,0.17242 -4.20452,-1.50766 -4.37694,-3.75256z" fill="#e6eb4a" stroke="#ff6767"/><path d="M249.43174,206.99477c-0.17242,-2.2449 1.50766,-4.20453 3.75257,-4.37694c2.2449,-0.17242 4.20452,1.50766 4.37694,3.75256c0.17242,2.2449 -1.50766,4.20452 -3.75256,4.37694c-2.2449,0.17242 -4.20453,-1.50766 -4.37695,-3.75256z" fill="#e6eb4a" stroke="#ff6767"/><path d="M229.69566,196.24443c-0.17242,-2.2449 1.50766,-4.20453 3.75256,-4.37695c2.2449,-0.17242 4.20453,1.50766 4.37694,3.75257c0.17242,2.2449 -1.50766,4.20452 -3.75256,4.37694c-2.2449,0.17242 -4.20453,-1.50766 -4.37695,-3.75256z" fill="#e6eb4a" stroke="#ff6767"/><path d="M271.8579,164.04435c-0.17242,-2.2449 1.50766,-4.20453 3.75256,-4.37695c2.2449,-0.17242 4.20453,1.50766 4.37694,3.75257c0.17242,2.2449 -1.50766,4.20452 -3.75256,4.37694c-2.2449,0.17242 -4.20453,-1.50766 -4.37695,-3.75256z" fill="#e6eb4a" stroke="#ff6767"/><path d="M267.06051,190.3081c-0.17242,-2.2449 1.50766,-4.20453 3.75256,-4.37695c2.2449,-0.17242 4.20453,1.50766 4.37694,3.75257c0.17242,2.2449 -1.50766,4.20452 -3.75256,4.37694c-2.2449,0.17242 -4.20453,-1.50766 -4.37695,-3.75256z" fill="#e6eb4a" stroke="#ff6767"/><path d="M220.91236,217.19231c-0.17242,-2.2449 1.50766,-4.20452 3.75256,-4.37694c2.2449,-0.17242 4.20452,1.50766 4.37694,3.75256c0.17242,2.2449 -1.50766,4.20453 -3.75256,4.37695c-2.2449,0.17242 -4.20453,-1.50766 -4.37694,-3.75257z" fill="#e6eb4a" stroke="#ff6767"/><path d="M199.23603,198.92455c-0.17242,-2.2449 1.50766,-4.20452 3.75256,-4.37694c2.2449,-0.17242 4.20453,1.50766 4.37695,3.75256c0.17242,2.2449 -1.50766,4.20453 -3.75256,4.37695c-2.2449,0.17242 -4.20453,-1.50766 -4.37694,-3.75257z" fill="#e6eb4a" stroke="#ff6767"/><path d="M201.81212,228.0293c-0.17242,-2.2449 1.50766,-4.20453 3.75257,-4.37694c2.2449,-0.17242 4.20452,1.50766 4.37694,3.75256c0.17242,2.2449 -1.50766,4.20452 -3.75256,4.37694c-2.2449,0.17242 -4.20453,-1.50766 -4.37695,-3.75256z" fill="#e6eb4a" stroke="#ff6767"/><path d="M180.32955,216.56123c-0.17242,-2.2449 1.04997,-4.16937 2.7303,-4.29843c1.68033,-0.12906 3.18225,1.58618 3.35467,3.83108c0.17242,2.2449 -1.04997,4.16937 -2.7303,4.29843c-1.68033,0.12906 -3.18225,-1.58618 -3.35467,-3.83108z" fill="#ebc249" stroke="#c73e3e"/><path d="M165.85842,199.10301c-0.17242,-2.2449 1.04997,-4.16937 2.7303,-4.29843c1.68033,-0.12906 3.18225,1.58618 3.35467,3.83108c0.17242,2.2449 -1.04996,4.16937 -2.73029,4.29843c-1.68033,0.12906 -3.18225,-1.58618 -3.35467,-3.83108z" fill="#ebc249" stroke="#c73e3e"/><path d="M174.37089,179.71901c-0.46871,-1.36701 0.89408,-2.91855 3.04388,-3.46545c2.14979,-0.5469 4.27252,0.11793 4.74124,1.48495c0.46871,1.36701 -0.89408,2.91855 -3.04387,3.46545c-2.14979,0.5469 -4.27253,-0.11794 -4.74124,-1.48495z" data-paper-data="{&quot;origRot&quot;:0}" fill="#e5ea49" stroke="#ff8484"/><path d="M192.1149,180.05986c-0.46871,-1.36701 0.89408,-2.91854 3.04387,-3.46544c2.14979,-0.5469 4.27253,0.11794 4.74124,1.48494c0.46871,1.36701 -0.89408,2.91855 -3.04387,3.46545c-2.14979,0.5469 -4.27253,-0.11794 -4.74124,-1.48495z" data-paper-data="{&quot;origRot&quot;:0}" fill="#e5ea49" stroke="#ff8484"/><path d="M205.431,167.11164c-0.46871,-1.36701 0.89408,-2.91855 3.04387,-3.46545c2.14979,-0.5469 4.27253,0.11794 4.74124,1.48495c0.46871,1.36701 -0.89409,2.91854 -3.04388,3.46544c-2.14979,0.5469 -4.27252,-0.11793 -4.74123,-1.48495z" data-paper-data="{&quot;origRot&quot;:0}" fill="#e5ea49" stroke="#ff8484"/><path d="M227.57901,162.68478c-0.46871,-1.36701 0.89408,-2.91855 3.04387,-3.46545c2.14979,-0.5469 4.27253,0.11794 4.74124,1.48495c0.46871,1.36701 -0.89408,2.91855 -3.04387,3.46545c-2.14979,0.5469 -4.27253,-0.11794 -4.74124,-1.48495z" data-paper-data="{&quot;origRot&quot;:0}" fill="#e5ea49" stroke="#ff8484"/><path d="M242.49717,152.85044c-0.46871,-1.36701 0.89408,-2.91854 3.04387,-3.46544c2.14979,-0.5469 4.27253,0.11794 4.74124,1.48495c0.46871,1.36701 -0.89408,2.91854 -3.04387,3.46544c-2.14979,0.5469 -4.27253,-0.11794 -4.74124,-1.48495z" data-paper-data="{&quot;origRot&quot;:0}" fill="#e5ea49" stroke="#ff8484"/><path d="M258.93883,149.54328c-0.46871,-1.36701 0.89408,-2.91855 3.04387,-3.46545c2.14979,-0.5469 4.27253,0.11794 4.74124,1.48495c0.46871,1.36701 -0.89408,2.91854 -3.04387,3.46544c-2.14979,0.5469 -4.27253,-0.11794 -4.74124,-1.48494z" data-paper-data="{&quot;origRot&quot;:0}" fill="#e5ea49" stroke="#ff8484"/><path d="M276.48823,142.91415c-0.46871,-1.36701 0.89408,-2.91855 3.04387,-3.46545c2.14979,-0.5469 4.27253,0.11794 4.74124,1.48495c0.46871,1.36701 -0.89408,2.91854 -3.04387,3.46544c-2.14979,0.5469 -4.27253,-0.11794 -4.74124,-1.48494z" data-paper-data="{&quot;origRot&quot;:0}" fill="#e5ea49" stroke="#ff8484"/></g></g></svg>