<svg version="1.1" xmlns="http://www.w3.org/2000/svg" xmlns:xlink="http://www.w3.org/1999/xlink" width="494.07928" height="440.27884" viewBox="0,0,494.07928,440.27884"><g transform="translate(62.77778,24.62389)"><g data-paper-data="{&quot;isPaintingLayer&quot;:true}" fill-rule="nonzero" stroke="none" stroke-linecap="butt" stroke-linejoin="miter" stroke-miterlimit="10" stroke-dasharray="" stroke-dashoffset="0" style="mix-blend-mode: normal"><path d="M142.24096,100.4064c0,0 -5.40359,-3.17344 -8.7461,-7.71143c-3.61467,-4.9075 -5.25959,-11.27522 -7.27056,-13.1919c-4.18417,-3.98797 -7.98118,-12.63192 -9.82623,-17.1869c-1.30066,-3.211 -4.90808,-8.27982 -6.31156,-13.60531c-1.0641,-4.03771 -4.5082,-17.64648 0.15969,-23.96368c17.03442,-23.05322 68.19476,-47.54079 68.19476,-47.54079c0,0 12.65078,-4.20597 16.89914,0.13388c0.81431,0.83186 4.64535,-0.37704 7.34453,2.22688c3.66026,3.5311 6.41358,11.22133 7.69701,13.91059c1.28716,2.69706 3.31406,5.18176 3.54505,7.36944c0.21031,1.99185 4.696,4.27164 11.56856,5.09339c2.49691,0.29856 6.03163,-1.29876 8.82618,-1.16646c12.0532,0.57066 24.41954,1.63228 24.41954,1.63228c0,0 -4.23592,3.131 -6.95281,7.28023c-0.91714,1.40066 6.77841,18.64281 5.19518,21.14846c-11.35339,17.96815 -46.04237,44.57131 -46.04237,44.57131c0,0 -49.04865,35.46378 -61.71307,39.335c-2.285,0.69847 -4.03238,1.65179 -5.07778,-0.47116c-2.56141,-5.20162 -1.90915,-17.86384 -1.90915,-17.86384z" fill-opacity="0.65185" fill="#7bbab8" stroke-width="0"/><path d="M36.72222,186.08935c0,22.91982 45.69596,55 22.5,55c-1.85207,0 -5.7628,2.35349 -16.74911,4.68317c-7.03863,1.49256 -9.41602,7.86408 -12.20966,14.01664c-1.94138,4.27557 -3.82524,8.96247 -8.69114,9.67868c-2.81527,0.41438 -9.70281,-1.31647 -15.35719,-2.85233c-4.3203,-1.17349 -7.29637,-1.81693 -10.89986,-3.77858c-5.64243,-3.0716 -9.06537,-4.77348 -9.56864,-4.96331c-0.75628,-0.28528 -9.24717,-2.17579 -14.70449,-0.31141c-3.30649,1.12959 -3.91711,6.80211 -5.54893,5.98559c-7.13896,-3.57215 -4.9434,-18.39931 -6.92336,-20.95254c-7.31694,-9.43544 -3.04485,-23.96087 -2.40623,-35.95578c0.44602,-8.37741 -18.94139,-19.75213 -18.94139,-25.55012c0,-6.25777 0.05718,-7.31932 4.24728,-12.09834c0.89354,-1.01913 0.03708,-8.91132 2.20064,-13.10435c2.69127,-5.21572 8.50475,-6.89694 10.04805,-8.09292c8.59708,-6.66225 19.78375,-10.91684 29.00281,-15.66755c4.4075,-2.27124 6.69384,-7.87018 11.16787,-7.87018c6.63285,0 8.91231,10.28832 15.80952,14.0029c13.15414,7.08435 29.91794,11.35645 33.15422,22.8363c1.00111,3.55118 -6.1304,21.12757 -6.1304,24.99413z" fill-opacity="0.65185" fill="#7bbab8" stroke-width="0"/><path d="M431.26738,322.65495c-1.2067,32.70061 -48.36253,93 -86.125,93c-11.11795,0 -20.2351,-25.32216 -33.50979,-44.90865c-4.44247,-6.55475 -6.68654,-11.57913 -13.18791,-15.98405c-16.40618,-11.11579 -57.60844,0.22363 -60.74282,0.75936c-4.51828,0.77227 -6.18448,2.11174 -6.18448,-9.61666c0,-3.24098 -8.75854,-7.45419 -15.80121,-12.681c-5.1091,-3.7918 -8.84146,-8.70918 -9.96159,-11.31349c-1.33055,-3.09351 -3.06029,-9.2775 -3.64879,-17.31688c-0.72675,-9.92809 -2.8236,-18.13357 -1.73087,-29.20269c0.31082,-3.1486 3.63698,-9.28616 3.94534,-12.38016c1.27361,-12.77927 1.99836,-25.14194 5.13434,-27.73417c2.40974,-1.99192 10.37476,-14.05326 14.92807,-15.27634c10.0732,-2.70578 21.75703,1.81262 33.83786,4.23819c10.2663,2.06125 21.16659,1.91654 27.92185,1.91654c37.76247,0 147.375,35.52713 145.125,96.5z" fill-opacity="0.65185" fill="#7bbab8" stroke-width="0"/><path d="M354.03493,90.12737l0.17458,-0.04114l0.97148,-0.1392l0.3338,-0.00017l0.05018,-0.01256l0.07274,0.03969l0.86942,-0.27553l0.88473,-0.22143l0.04118,-0.07197l0.04932,-0.01562l2.32911,-1.43278l1.45259,-0.58101l5.54451,-1.33862l0.31886,-0.16661l0.35386,-0.06499l1.71585,-0.7793l1.7665,0.27118l0.22682,-0.021l0.21902,0.06248l5.86232,0.19504l3.46014,0.38441l0.20952,-0.02824l0.20512,0.05125l1.18161,0.00024l2.6916,0.31699l1.54076,0.61606l0.11187,0.01528l0.09526,0.06058l1.09683,0.36559l0.65676,0.26266l1.1755,0.67142l0.4968,0.13979l0.4554,0.24282l0.80094,0.20041l0.05959,0.00003l0.05344,0.02641l4.06363,0.8847l1.31779,0.73218l0.08076,0.0217l0.06351,0.05441l1.61253,0.80656l0.52983,0.44144l0.33771,0.44996l0.49338,0.40084l0.4277,0.47027l0.60068,0.40055l0.32702,0.11693l0.27654,0.21019l2.13818,0.91729l0.28586,0.28584l0.00662,0.03535l0.08335,0.0546l0.11413,0.11411l0.71928,0.43183l0.70178,0.45976l0.15236,0.05307l0.0854,0.05129l0.03469,-0.00944l1.89531,0.66027l-0.44501,1.1885l-0.05989,0.52677l-0.16734,0.50293l-0.16819,2.20404l-0.71361,0.81599l-0.18246,0.35622l-0.27329,0.29228l-0.95404,1.71939l-0.04845,0.02767l-0.24009,0.96316l-0.25654,0.95891l0.02895,0.04781l0.00133,2.0594l-0.02917,0.04955l0.26333,0.9351l0.23594,0.94239l0.04994,0.02858l0.73749,1.29098l-0.00117,0.05655l0.69668,0.6974l0.68167,0.71205l0.0565,0.00003l0.23533,0.14141l0.61939,0.53158l0.71819,0.65369l0.05734,-0.00393l0.66282,0.33199l0.32393,0.1854l0.30839,0.61717l0.10031,0.4012l0.01004,0.01884l-0.01799,0.06612l0.47949,0.79985l0.43856,0.82301l0.06592,0.01857l0.01096,0.0183l1.45614,1.45796l0.44312,1.10876l0.20313,0.71152l0.00001,0.07489l0.00518,0.02071l-0.0335,0.05978l0.2713,0.89222l0.22598,0.90476l0.05945,0.03402l0.0062,0.02041l0.06561,0.10947v4.16667l0.09057,0.36282l-0.01779,0.37357l0.12711,0.63669l-0.00013,1.02997l0.10011,0.40114l-0.01093,0.41336l0.35573,1.60401l0.15436,1.39372l-0.00068,2.42381l-0.12739,0.63665l0.01764,0.3735l-0.09072,0.36278l-0.00005,0.13597l-0.26807,0.47813l-0.48678,1.78424l-0.21645,0.32487l-0.11685,0.32711l-0.21007,0.27659l-0.60073,1.4017l-0.03851,0.23836l-0.12064,0.20916l-0.27585,0.96476l-0.57549,1.00725l-0.11304,0.40152l-0.21569,0.35706l-1.46901,4.76918l-0.36596,0.60981l-0.04291,0.1408l-0.09579,0.11177l-0.29605,0.59178l-1.01409,1.52079l-0.27508,0.36671l-2.06561,1.72187l-0.04328,0.05921l-0.06477,0.03439l-2.00228,1.80219l-0.1071,0.15882l-0.15938,0.10629l-2.00266,2.20218l-0.0697,0.12964l-0.11586,0.09081l-1.40205,1.80147l-0.05668,0.12808l-0.10368,0.09423l-0.19701,0.29527l-0.68779,0.30583l-2.0797,0.75676l-0.12373,0.08351l-0.14679,0.02702l-1.78814,0.81294l-2.75606,0.51755l-0.1617,0.07422l-0.1778,0.00599l-2.4894,0.71152l-3.28377,0.34638l-3.32553,0.00084l-3.9767,-0.17208l-4.68881,-1.62088l-0.02211,-0.00196l-0.01874,-0.01191l-1.92614,-0.64136l-0.78325,-0.52155l-0.22346,-0.07973l-0.18018,-0.15424l-2.80399,-1.40067l-0.15555,-0.03456l-0.12919,-0.0932l-2.00286,-0.80071l-0.22231,-0.03036l-0.19608,-0.10907l-5.14254,-1.38525l-2.24255,-0.69054l-1.96562,-0.983l-0.86499,-0.54063l-0.462,-0.41985l-0.58281,-0.58253l-0.17137,-0.10285l-0.06821,-0.06199l-0.0315,0.00215l-0.13589,-0.08155l-0.20333,-0.18479l-0.31976,-0.43722l-1.20166,-1.00133l-0.18371,-0.08875l-0.13727,-0.15095l-0.60073,-0.40064l-0.47217,-0.16888l-0.42306,-0.26936l-0.55246,-0.18447l-1.46854,-0.53486l-1.10921,-0.99851l-0.86834,-1.30205l-0.73712,-1.28939l-0.20473,-0.21371l-0.12338,-0.26899l-0.6992,-0.87414l-0.18046,-0.2707l-0.29609,-0.5919l-0.39272,-0.45836l-0.31057,-0.51758l-1.60142,-1.6025l-0.26893,-0.16157l-0.20343,-0.23894l-0.79471,-0.56829l-0.36935,-0.59115l-0.16613,-0.49819l-0.10092,-0.60433l-0.00032,-0.6904l0.19968,-0.80081l-0.00005,-0.10461l0.02333,-0.10525l-0.02339,-0.03509l-0.0002,-0.44548l0.14862,-0.89485l-0.02512,-0.31281l0.07591,-0.30441l-0.0012,-3.40428l-0.1464,-0.58563l-0.04639,-0.60183l-1.00065,-3.00422l-0.08545,-0.13444l-0.02536,-0.1573l-1.20025,-2.80384l-0.07451,-0.09817l0.00792,-0.11501l-0.52595,-0.5793l-0.35818,-0.9564l-0.35759,-4.4809l-0.01893,-0.05631l0.00796,-0.0589l-0.19152,-1.72874l-0.18458,-2.59601l0.0008,-2.54425l0.18863,-2.81657l0.17652,-1.75961l0.0874,-0.0729l0.04891,-0.06696l0.073,-0.03925l1.92645,-1.75281l0.64774,-0.38912l0.91673,-0.52452l0.29827,-0.07476l0.22774,-0.12162l0.25569,-0.03503l2.00113,-0.80187l0.44814,-0.32395l0.50245,-0.23065l1.00092,-0.80133l0.35056,-0.46013l0.42792,-0.3892l0.06871,-0.10305l0.39892,-0.26907l1.79604,-1.99575l1.99647,-2.19588l0.04743,-0.08822l0.08032,-0.05984l1.8028,-2.20242l0.17927,-0.37954l0.2733,-0.31868l0.80165,-1.60121l0.03464,-0.15542l0.09333,-0.12911l0.34287,-0.85571l0.3309,-0.66092l0.019,-0.08527l0.05385,-0.06885l0.4046,-0.90895l0.01948,-0.01462l0.17048,-0.20964z" data-paper-data="{&quot;noHover&quot;:false,&quot;origItem&quot;:[&quot;Path&quot;,{&quot;applyMatrix&quot;:true,&quot;segments&quot;:[[707.9182,180.46248],[707.57778,180.88144],[707.53886,180.91064],[706.73138,182.72748],[706.62386,182.86508],[706.58598,183.03554],[705.9255,184.35652],[705.24136,186.06686],[705.05502,186.32486],[704.98598,186.63554],[703.38598,189.83554],[702.84024,190.47224],[702.48246,191.2307],[698.88246,195.6307],[698.722,195.7502],[698.62734,195.92646],[694.63994,200.3126],[691.05248,204.29866],[690.25538,204.83584],[690.11816,205.04168],[689.26322,205.81888],[688.563,206.73792],[686.563,208.33792],[685.55876,208.7982],[684.6632,209.44498],[680.6632,211.04498],[680.15202,211.1147],[679.6968,211.35748],[679.10052,211.50654],[677.2681,212.55366],[675.97332,213.33052],[672.12284,216.83096],[671.9769,216.90932],[671.87916,217.04306],[671.70446,217.18864],[671.35292,220.70416],[670.97778,226.33114],[670.97778,231.4139],[671.34822,236.59986],[671.73192,240.05318],[671.71602,240.17082],[671.7539,240.28332],[672.46994,249.23382],[673.18632,251.14414],[674.2382,252.30122],[674.22236,252.53094],[674.37138,252.72702],[676.77138,258.32702],[676.82206,258.6412],[676.99292,258.9097],[678.99292,264.9097],[679.08538,266.11176],[679.3778,267.2814],[679.3778,274.0814],[679.22576,274.68954],[679.27574,275.3144],[678.97778,277.10212],[678.97778,277.99204],[679.02452,278.06212],[678.97778,278.2724],[678.97778,278.48138],[678.57778,280.08138],[678.57778,281.46068],[678.779,282.66794],[679.11072,283.6631],[679.84866,284.8438],[681.43708,285.97838],[681.84358,286.45556],[682.3811,286.77808],[685.5811,289.97808],[686.2014,291.0119],[686.986,291.92728],[687.5772,293.10964],[687.93764,293.65032],[689.33432,295.39618],[689.58062,295.93356],[689.98962,296.36036],[691.46146,298.93608],[693.19548,301.53708],[695.41124,303.53126],[698.34566,304.59832],[699.44954,304.96628],[700.29468,305.5041],[701.23808,305.84102],[702.43808,306.64102],[702.7122,306.94256],[703.0792,307.11972],[705.4792,309.11972],[706.11758,309.99332],[706.52364,310.36246],[706.79508,310.52532],[706.85802,310.52098],[706.99424,310.6448],[707.33654,310.85018],[708.50036,312.014],[709.42298,312.85276],[711.15064,313.93254],[715.07674,315.8956],[719.5562,317.27388],[729.82762,320.03928],[730.2192,320.25726],[730.66324,320.31782],[734.66324,321.91782],[734.92124,322.10414],[735.2319,322.17318],[740.8319,324.97318],[741.19174,325.2816],[741.63806,325.441],[743.20236,326.48386],[747.04952,327.76626],[747.08694,327.79008],[747.13112,327.794],[756.49694,331.036],[764.44078,331.38138],[771.08416,331.38138],[777.6443,330.69084],[782.6174,329.26996],[782.97264,329.25812],[783.29566,329.10984],[788.80202,328.0774],[792.3743,326.45364],[792.6676,326.39976],[792.91476,326.23292],[797.06988,324.72196],[798.44404,324.11122],[798.83744,323.5211],[799.04454,323.33282],[799.15768,323.0768],[801.95768,319.4768],[802.18912,319.29538],[802.32826,319.0363],[806.32826,314.6363],[806.6467,314.42402],[806.86058,314.10666],[810.86058,310.50666],[810.99,310.438],[811.07644,310.3197],[815.20346,306.88054],[815.75294,306.14792],[817.77846,303.10964],[818.36964,301.92728],[818.56102,301.704],[818.64664,301.42266],[819.3776,300.20438],[822.3095,290.67572],[822.7404,289.9625],[822.96602,289.16032],[824.11574,287.14832],[824.6664,285.22098],[824.90744,284.80318],[824.98424,284.32698],[826.18424,281.52698],[826.60408,280.97456],[826.83746,280.32112],[827.27004,279.67226],[828.24212,276.108],[828.77786,275.153],[828.77786,274.88136],[828.95904,274.15666],[828.92352,273.41048],[829.17788,272.1387],[829.17788,267.29672],[828.86854,264.51254],[828.1565,261.30832],[828.17822,260.48264],[827.97788,259.68132],[827.97788,257.62398],[827.72354,256.3522],[827.75906,255.60602],[827.57788,254.8813],[827.57788,246.55868],[827.44668,246.34002],[827.43428,246.29924],[827.3154,246.2313],[826.8636,244.42414],[826.32122,242.64206],[826.38822,242.52264],[826.37788,242.48128],[826.37788,242.3317],[825.97184,240.91054],[825.08604,238.69604],[822.17458,235.78458],[822.15266,235.74802],[822.02084,235.71096],[821.14424,234.06734],[820.18584,232.47002],[820.22186,232.33792],[820.2018,232.3003],[820.00148,231.499],[819.38522,230.26646],[818.73758,229.89638],[817.41236,229.23376],[817.29768,229.24166],[815.86206,227.93656],[814.62398,226.87534],[814.15354,226.5931],[814.04056,226.5931],[812.6782,225.1715],[811.2859,223.7792],[811.2883,223.66624],[809.8152,221.0883],[809.71538,221.03126],[809.2448,219.149],[808.7195,217.28126],[808.77788,217.18222],[808.77788,213.0678],[808.72006,212.97232],[809.23418,211.05606],[809.71538,209.13126],[809.81228,209.0759],[811.72168,205.63896],[812.26838,205.05456],[812.63356,204.34248],[814.06112,202.71096],[814.39996,198.30604],[814.73506,197.3007],[814.8554,196.24784],[815.74636,193.87192],[811.95848,192.5544],[811.88912,192.57332],[811.71846,192.47092],[811.41396,192.36502],[810.01176,191.4469],[808.57458,190.5846],[808.3466,190.35664],[808.18008,190.2476],[808.1669,190.17694],[807.59588,189.60592],[803.32348,187.77488],[802.77104,187.35504],[802.11762,187.12168],[800.91762,186.32168],[800.06342,185.38208],[799.07788,184.58132],[798.40352,183.68216],[797.34522,182.80024],[794.12378,181.18952],[793.99694,181.0808],[793.83558,181.0375],[791.20312,179.57502],[783.08468,177.81014],[782.97794,177.75738],[782.85888,177.75738],[781.25888,177.35738],[780.34926,176.87224],[779.35686,176.59314],[777.00898,175.25148],[775.69712,174.72674],[773.5062,173.99644],[773.31594,173.87536],[773.09248,173.84488],[770.0149,172.61384],[764.63824,171.9813],[762.2779,171.9813],[761.86818,171.87888],[761.44964,171.93544],[754.53804,171.16748],[742.82802,170.77716],[742.39052,170.65216],[741.93744,170.6941],[738.40866,170.15122],[734.98138,171.70908],[734.27454,171.8389],[733.63766,172.17194],[722.56224,174.84532],[719.66066,176.00594],[715.0086,178.86876],[714.91008,178.89996],[714.82786,179.04382],[713.06038,179.48568],[711.32352,180.03568],[711.17812,179.95624],[711.07786,179.9813],[710.41088,179.9813],[708.46986,180.25858],[708.12106,180.34064]],&quot;closed&quot;:true,&quot;fillColor&quot;:[0,0,0,1]}]}" fill-opacity="0.71757" fill="#80c2c1" stroke-width="0.5"/><g stroke-width="0.5"><path d="M372.98809,174.61977c-7.52972,-0.40895 -8.87342,-2.34686 -6.51424,-4.29981c1.03201,-1.3426 4.28197,-2.70652 8.90672,-3.54852c0.88664,-0.16143 1.78144,-0.29593 2.67275,-0.40419c2.51642,-0.37464 5.27302,-0.58015 8.13873,-0.53659c5.53264,0.0841 7.80726,-0.01957 9.95581,1.66792c1.59493,1.25269 -0.98019,4.67688 -7.28766,5.788c-6.56892,1.15716 -9.39703,1.26785 -15.61811,1.37345z" fill="#785449"/><path d="M392.36613,165.83071c1.92831,0.27051 3.44063,0.73612 4.26283,1.3819c0.75626,0.59398 0.8333,1.26547 0.34019,1.94419c0.24431,1.39636 -3.65209,2.69368 -8.60215,3.53628c-0.11354,0.02163 -0.22797,0.04293 -0.34323,0.06392c-1.66701,0.30349 -3.36284,0.51193 -5.0102,0.62943c-5.66217,0.5203 -11.31559,0.38444 -13.21653,-0.83891c-4.34576,-2.79672 5.63822,-6.68147 16.87613,-7.00284c2.7642,-0.07904 4.40333,0.03185 5.69296,0.28605z" fill="#8c6256"/></g><g stroke-width="0.5"><path d="M413.69717,103.39635c0.29923,-7.53487 2.21737,-8.90667 4.20447,-6.57618c1.35749,1.01234 2.76861,4.2421 3.67788,8.85409c0.17433,0.8842 0.32185,1.77694 0.44307,2.66658c0.41126,2.51069 0.6569,5.26401 0.65509,8.13005c-0.0035,5.53328 0.13329,7.80615 -1.52273,9.97905c-1.22932,1.61301 -4.69067,-0.91196 -5.89354,-7.20258c-1.25272,-6.55137 -1.40459,-9.37757 -1.6008,-15.59645z" fill="#785449"/><path d="M422.76756,122.6443c-0.2424,1.93204 -0.68592,3.45099 -1.31966,4.28252c-0.5829,0.76483 -1.2532,0.85164 -1.93903,0.36847c-1.39265,0.26463 -2.74659,-3.61247 -3.6612,-8.54972c-0.02328,-0.11321 -0.04626,-0.22732 -0.06892,-0.34226c-0.32774,-1.66241 -0.56085,-3.35502 -0.70234,-5.0005c-0.60272,-5.65399 -0.54923,-11.30878 0.6463,-13.22734c2.73312,-4.38603 6.76288,5.5403 7.24791,16.77233c0.1193,2.76275 0.0323,4.40333 -0.20309,5.69652z" fill="#8c6256"/></g><g stroke-width="0.5"><path d="M416.23144,128.92179c2.10507,-7.24103 4.29712,-8.1105 5.66447,-5.37005c1.07373,1.30947 1.66548,4.78401 1.43727,9.47924c-0.04375,0.90016 -0.11557,1.80215 -0.21217,2.6948c-0.20551,2.53584 -0.63018,5.26728 -1.32218,8.04853c-1.336,5.36957 -1.75061,7.60849 -3.88119,9.3186c-1.5816,1.26946 -4.33297,-2.01478 -3.98546,-8.40994c0.36194,-6.66024 0.89517,-9.43983 2.20246,-15.52292z" fill="#785449"/><path d="M420.39931,149.78766c-0.70056,1.8168 -1.49685,3.18422 -2.31219,3.83865c-0.74994,0.60193 -1.42141,0.52475 -1.97069,-0.10936c-1.41539,-0.07855 -1.79575,-4.16761 -1.49439,-9.17981c0.00468,-0.11549 0.00985,-0.23177 0.01554,-0.34878c0.08227,-1.69241 0.26365,-3.39134 0.52261,-5.02246c0.77669,-5.63273 2.19047,-11.1082 3.81287,-12.68237c3.70898,-3.59871 5.22954,7.00595 2.99524,18.0242c-0.54958,2.71017 -1.02911,4.28151 -1.56902,5.47994z" fill="#8c6256"/></g><g stroke-width="0.5"><path d="M412.15863,154.20225c6.67178,-3.51444 8.81975,-2.54116 7.79769,0.34591c-0.19642,1.68197 -2.2853,4.52084 -5.82192,7.61755c-0.67803,0.59369 -1.37687,1.16846 -2.08621,1.71892c-1.96721,1.61332 -4.22737,3.20479 -6.70903,4.63853c-4.79116,2.76802 -6.68998,4.02466 -9.40009,3.67945c-2.0118,-0.25627 -1.55971,-4.51678 3.28283,-8.70827c5.04327,-4.36522 7.41348,-5.91202 12.69806,-9.19625z" fill="#785449"/><path d="M400.0407,171.69258c-1.7937,0.75774 -3.33057,1.13453 -4.36768,1.00242c-0.95392,-0.12152 -1.36474,-0.65823 -1.28999,-1.49383c-0.92649,-1.0729 1.75134,-4.18646 5.56682,-7.45068c0.08634,-0.07684 0.1736,-0.15388 0.26174,-0.23105c1.27479,-1.11622 2.62311,-2.16564 3.97652,-3.11216c4.59206,-3.3532 9.51343,-6.1388 11.77279,-6.06479c5.16514,0.16918 -1.40865,8.62828 -10.8878,14.67307c-2.33161,1.48684 -3.79519,2.23314 -5.03241,2.67702z" fill="#8c6256"/></g><g data-paper-data="{&quot;index&quot;:null}" stroke-width="0.5"><g><path d="M401.6133,165.99803c-4.51155,5.49873 -11.73526,7.38454 -17.48428,6.67104c-4.19547,-0.07528 -7.54998,-1.70152 -8.5414,-4.54863c-0.19007,-0.54585 -0.2842,-1.11047 -0.28936,-1.68538c-0.25206,-1.58968 0.17703,-3.43045 1.50831,-5.46883c2.57021,-3.93537 3.15109,-5.48628 9.84478,-7.81717c4.96893,-1.73029 15.69259,-1.57836 16.91661,2.32274c1.27473,4.06281 0.48983,5.99992 -1.71128,10.3279z" fill="#785449"/><path d="M379.35189,156.62011c1.72599,-1.48861 3.95189,-2.77898 6.51343,-3.67096c2.35608,-0.82044 4.69894,-1.20035 6.83168,-1.18244c4.90666,-0.84923 7.76545,1.26434 8.62487,4.34016c0.02763,0.06943 0.05379,0.13965 0.07851,0.21061c0.35737,1.02626 0.3756,2.11891 0.10091,3.22154c-0.54339,3.73341 -3.34156,7.77892 -8.33568,9.71039c-11.41708,4.41555 -20.67172,-0.7283 -17.14506,-8.48311c0.86746,-1.90746 1.92481,-3.11509 3.33135,-4.14619z" fill="#8c6256"/></g><g data-paper-data="{&quot;index&quot;:null}"><path d="M376.902,166.30896c-0.76093,-3.15189 -0.932,-4.6092 1.18232,-8.34567c2.03017,-3.58775 11.14797,-6.21258 14.91406,-5.90428c5.0733,0.41531 5.17,1.59313 6.34346,4.32672c0.6078,1.41591 0.50214,2.87448 -0.11625,4.27905c-0.15084,0.48795 -0.37437,0.9879 -0.67434,1.49428c-1.56471,2.64127 -4.8191,4.79894 -8.39031,5.83927c-5.04913,1.9423 -10.6846,2.02719 -13.10339,-1.57808z" fill="#785449"/><path d="M398.29409,153.2986c0.92813,0.54557 1.51567,1.32187 1.76414,2.73489c1.01018,5.74464 -8.13563,12.25386 -16.6769,11.17308c-3.73615,-0.47277 -5.07456,-3.24652 -4.58349,-6.28088c0.04838,-0.86961 0.34215,-1.79894 0.90616,-2.75099c0.03899,-0.06582 0.07905,-0.13136 0.12013,-0.19658c1.51122,-2.80416 4.47005,-5.25905 8.40787,-5.68219c1.81023,-0.51162 3.69704,-0.73533 5.48275,-0.58915c1.94148,0.15893 3.49728,0.73328 4.57933,1.59182z" fill="#8c6256"/></g><g data-paper-data="{&quot;index&quot;:null}"><path d="M378.35398,160.13929c0.82765,-2.77858 1.32918,-4.02725 4.29375,-6.71956c2.84659,-2.58517 9.94793,-2.95422 12.29446,-1.94616c3.161,1.35797 2.72832,2.35887 2.3482,4.87109c-0.19689,1.30124 -0.88093,2.49578 -1.87935,3.54303c-0.30478,0.37659 -0.66242,0.74866 -1.07301,1.11085c-2.14175,1.88917 -5.19076,3.03833 -7.97737,3.19311c-4.13844,0.61171 -7.87984,-0.44149 -7.95132,-3.92858z" fill="#785449"/><path d="M397.90208,153.56288c0.38045,0.63978 0.43971,1.40392 0.00775,2.63111c-1.75612,4.98909 -10.51254,8.58988 -15.67353,5.98565c-2.25754,-1.13916 -1.96894,-3.71777 -0.36756,-6.14871c0.39819,-0.7151 0.98293,-1.431 1.75493,-2.11196c0.05338,-0.04709 0.10732,-0.09371 0.16181,-0.13987c2.17519,-2.03562 5.15512,-3.49142 7.92273,-3.05869c1.40589,-0.06535 2.74081,0.12453 3.85343,0.60251c1.20966,0.51967 1.99068,1.30865 2.34046,2.23997z" fill="#8c6256"/></g></g><g data-paper-data="{&quot;index&quot;:null}" stroke-width="0.5"><g><path d="M421.4212,149.86228c0.81907,6.57045 -2.53927,12.65524 -6.70661,16.07823c-2.74057,2.78355 -5.98885,4.00513 -8.54617,2.84901c-0.49028,-0.22165 -0.93173,-0.52011 -1.32309,-0.88521c-1.23458,-0.84903 -2.20195,-2.31878 -2.72431,-4.52419c-1.00847,-4.25782 -1.68286,-5.64419 1.03526,-11.65659c2.01774,-4.46319 8.99534,-11.60392 12.41319,-9.92906c3.55951,1.74431 4.36379,3.516 5.87389,7.7764z" fill="#785449"/><path d="M400.81935,158.87575c0.10179,-2.11935 0.65787,-4.44904 1.69804,-6.74986c0.95674,-2.11628 2.20234,-3.94119 3.58176,-5.36925c2.57251,-3.8563 5.8319,-4.43086 8.45896,-3.03899c0.06458,0.02587 0.12875,0.05321 0.19249,0.08203c0.92181,0.41673 1.67099,1.10495 2.23913,1.99726c2.17156,2.7603 3.10822,7.24259 1.21012,11.85175c-4.33925,10.53703 -13.74444,13.48586 -16.71772,6.13377c-0.73134,-1.80841 -0.86858,-3.2963 -0.66279,-4.90672z" fill="#8c6256"/></g><g data-paper-data="{&quot;index&quot;:null}"><path d="M405.78837,166.74098c-2.61527,-1.5071 -3.70857,-2.32595 -4.87507,-6.14854c-1.12005,-3.67045 2.95379,-11.50749 5.57636,-13.85183c3.53287,-3.15805 4.38986,-2.4682 6.98726,-1.50772c1.34537,0.4975 2.26211,1.50394 2.81369,2.82182c0.23265,0.41465 0.42679,0.88604 0.57626,1.41315c0.77961,2.74948 0.14956,6.3294 -1.43779,9.40681c-1.92606,4.65323 -5.48172,8.51143 -9.46588,7.83266z" fill="#785449"/><path d="M410.72149,143.96087c0.96328,-0.27669 1.86392,-0.17557 2.97697,0.56262c4.52509,3.00111 3.05514,13.34739 -3.15026,18.41958c-2.71439,2.21869 -5.44466,1.34379 -7.17793,-0.93303c-0.55595,-0.59017 -0.99487,-1.38426 -1.27587,-2.37533c-0.01943,-0.06852 -0.03799,-0.13757 -0.05567,-0.20711c-0.92386,-2.8178 -0.6839,-6.38878 1.55507,-9.31797c0.81523,-1.54986 1.87388,-2.96681 3.11739,-4.0784c1.35197,-1.20854 2.73709,-1.89044 4.01029,-2.07037z" fill="#8c6256"/></g><g data-paper-data="{&quot;index&quot;:null}"><path d="M402.5549,161.80549c-1.34484,-2.34002 -1.86611,-3.47906 -1.78273,-7.20612c0.08007,-3.57874 4.38372,-8.60852 6.56851,-9.54608c2.94314,-1.26298 3.34132,-0.32925 4.79329,1.53794c0.75207,0.96714 1.1198,2.19467 1.18656,3.53998c0.05879,0.44715 0.08062,0.92709 0.06186,1.43643c-0.09796,2.65679 -1.27707,5.45151 -2.95913,7.43161c-2.24032,3.1855 -5.34983,5.0356 -7.74934,2.84823z" fill="#785449"/><path d="M410.64855,144.39492c0.67574,0.15338 1.22951,0.60328 1.78089,1.68161c2.24162,4.38389 -0.9418,12.6027 -6.00834,14.41661c-2.21623,0.79343 -3.77169,-1.05453 -4.38583,-3.69391c-0.22739,-0.72722 -0.33571,-1.58088 -0.30041,-2.53853c0.00244,-0.06621 0.00554,-0.13251 0.00932,-0.19889c0.02056,-2.77325 0.9484,-5.71794 3.01483,-7.30856c0.85723,-0.99083 1.84122,-1.77012 2.87715,-2.21467c1.12629,-0.48333 2.15955,-0.50465 3.01241,-0.14367z" fill="#8c6256"/></g></g><g data-paper-data="{&quot;index&quot;:null}" stroke-width="0.5"><g><path d="M422.3201,96.88709c2.77188,4.96312 1.41564,10.58922 -1.51828,14.32404c-1.76805,2.87496 -4.49332,4.64836 -7.28075,4.37871c-0.5344,-0.05169 -1.04554,-0.17602 -1.52915,-0.36529c-1.43383,-0.35898 -2.80116,-1.27304 -3.96734,-2.87704c-2.25147,-3.09673 -3.31432,-4.0185 -2.54624,-9.4275c0.57017,-4.01527 5.05542,-11.37727 8.82013,-10.91488c3.92075,0.48158 5.22415,1.67392 7.95444,4.6472z" fill="#785449"/><path d="M405.41897,109.13021c-0.54532,-1.69245 -0.72146,-3.66397 -0.42753,-5.73389c0.27035,-1.90389 0.90429,-3.65087 1.78602,-5.11917c1.28278,-3.6767 4.21472,-4.94395 7.14006,-4.50633c0.06939,0.00419 0.13882,0.00965 0.2083,0.01637c1.00475,0.09719 1.92728,0.4511 2.73914,1.01084c2.906,1.62791 5.15708,4.91916 4.74517,9.01932c-0.94166,9.3734 -9.01078,14.04551 -14.07245,9.00646c-1.24502,-1.23946 -1.82675,-2.37544 -2.11871,-3.6936z" fill="#8c6256"/></g><g data-paper-data="{&quot;index&quot;:null}"><path d="M412.53803,114.07363c-2.94903,-0.53121 -4.23908,-0.90178 -6.50924,-3.61666c-2.17979,-2.60683 -0.67277,-9.79014 1.11595,-12.29012c2.40958,-3.36772 3.43534,-3.0395 6.20167,-2.93377c1.43287,0.05478 2.61153,0.61706 3.53658,1.51566c0.34737,0.26794 0.67526,0.59015 0.97746,0.96737c1.57624,1.96759 2.06079,4.941 1.4808,7.75863c-0.4252,4.14182 -2.6443,8.06594 -6.64679,8.52869z" fill="#785449"/><path d="M410.33507,94.92186c0.83411,-0.4586 1.72305,-0.60435 3.00747,-0.30215c5.22182,1.22858 6.9567,9.7342 2.58041,15.27602c-1.91429,2.42413 -4.78132,2.41895 -7.12311,1.06168c-0.70866,-0.32512 -1.36761,-0.83993 -1.93577,-1.54916c-0.03928,-0.04904 -0.07789,-0.09871 -0.11582,-0.14898c-1.73442,-1.98525 -2.58801,-4.85403 -1.34211,-7.71807c0.30717,-1.42297 0.88659,-2.80231 1.73471,-3.98769c0.9221,-1.28878 2.0354,-2.17161 3.19419,-2.63162z" fill="#8c6256"/></g><g data-paper-data="{&quot;index&quot;:null}"><path d="M407.96083,111.00045c-1.99079,-1.50414 -2.83275,-2.26967 -3.88287,-5.22205c-1.00832,-2.8349 1.56851,-7.86765 3.3664,-9.15161c2.42194,-1.72962 3.08438,-1.09479 5.03395,0.01064c1.00981,0.57258 1.73228,1.44611 2.20363,2.48757c0.19155,0.337 0.35781,0.70903 0.4943,1.11435c0.71184,2.11421 0.43521,4.60736 -0.56762,6.58559c-1.16951,3.06597 -3.57206,5.29903 -6.52164,4.17878z" fill="#785449"/><path d="M410.3971,95.2815c0.69045,-0.04839 1.35452,0.16695 2.20677,0.87718c3.46483,2.88742 2.92206,10.14828 -1.35645,12.84242c-1.87153,1.17847 -3.9139,0.11404 -5.29908,-1.80834c-0.43709,-0.51511 -0.79905,-1.15947 -1.05564,-1.92154c-0.01774,-0.05269 -0.03487,-0.10562 -0.05139,-0.15877c-0.8209,-2.18645 -0.82917,-4.73471 0.65799,-6.50273c0.51662,-0.99377 1.21814,-1.85287 2.07062,-2.46167c0.92683,-0.6619 1.90503,-0.93715 2.82718,-0.86656z" fill="#8c6256"/></g></g></g></g></svg>