<svg version="1.1" xmlns="http://www.w3.org/2000/svg" xmlns:xlink="http://www.w3.org/1999/xlink" width="96.07141" height="90.7025" viewBox="0,0,96.07141,90.7025"><defs><radialGradient cx="239.9752" cy="179.78685" r="54.4155" gradientUnits="userSpaceOnUse" id="color-1"><stop offset="0" stop-color="#000000" stop-opacity="0"/><stop offset="1" stop-color="#000000"/></radialGradient><radialGradient cx="240.0796" cy="147.78573" r="95.2331" gradientUnits="userSpaceOnUse" id="color-2"><stop offset="0" stop-color="#ffffff"/><stop offset="1" stop-color="#ffffff" stop-opacity="0"/></radialGradient><linearGradient x1="199.1177" y1="137.28275" x2="199.1177" y2="220.02285" gradientUnits="userSpaceOnUse" id="color-3"><stop offset="0" stop-color="#000000" stop-opacity="0"/><stop offset="1" stop-color="#000000" stop-opacity="0"/></linearGradient><radialGradient cx="243.23472" cy="140.37723" r="103.53931" gradientUnits="userSpaceOnUse" id="color-4"><stop offset="0" stop-color="#ffffff"/><stop offset="1" stop-color="#b2b2b2"/></radialGradient><linearGradient x1="208.8967" y1="204.29195" x2="208.8967" y2="221.79195" gradientUnits="userSpaceOnUse" id="color-5"><stop offset="0" stop-color="#ffffff" stop-opacity="0"/><stop offset="1" stop-color="#ffffff"/></linearGradient><linearGradient x1="199.0677" y1="138.43275" x2="199.0677" y2="221.17285" gradientUnits="userSpaceOnUse" id="color-6"><stop offset="0" stop-color="#000000" stop-opacity="0"/><stop offset="1" stop-color="#000000" stop-opacity="0"/></linearGradient><radialGradient cx="241.52165" cy="140.31922" r="105.10971" gradientUnits="userSpaceOnUse" id="color-7"><stop offset="0" stop-color="#b2b2b2"/><stop offset="1" stop-color="#666666"/></radialGradient><radialGradient cx="258.5011" cy="161.15723" r="10.54998" gradientUnits="userSpaceOnUse" id="color-8"><stop offset="0" stop-color="#6f6f6f"/><stop offset="1" stop-color="#ffffff"/></radialGradient><radialGradient cx="271.7972" cy="154.0865" r="24.01251" gradientUnits="userSpaceOnUse" id="color-9"><stop offset="0" stop-color="#000000" stop-opacity="0"/><stop offset="1" stop-color="#000000"/></radialGradient><radialGradient cx="271.84326" cy="139.96504" r="42.02453" gradientUnits="userSpaceOnUse" id="color-10"><stop offset="0" stop-color="#ffffff"/><stop offset="1" stop-color="#ffffff" stop-opacity="0"/></radialGradient><linearGradient x1="253.76757" y1="135.33027" x2="253.76757" y2="171.84188" gradientUnits="userSpaceOnUse" id="color-11"><stop offset="0" stop-color="#000000" stop-opacity="0"/><stop offset="1" stop-color="#000000" stop-opacity="0"/></linearGradient><radialGradient cx="273.23556" cy="136.6958" r="45.68989" gradientUnits="userSpaceOnUse" id="color-12"><stop offset="0" stop-color="#ffffff"/><stop offset="1" stop-color="#b2b2b2"/></radialGradient><linearGradient x1="253.74551" y1="135.83773" x2="253.74551" y2="172.34935" gradientUnits="userSpaceOnUse" id="color-13"><stop offset="0" stop-color="#000000" stop-opacity="0"/><stop offset="1" stop-color="#000000" stop-opacity="0"/></linearGradient><radialGradient cx="272.47962" cy="136.6702" r="46.38288" gradientUnits="userSpaceOnUse" id="color-14"><stop offset="0" stop-color="#b2b2b2"/><stop offset="1" stop-color="#666666"/></radialGradient></defs><g transform="translate(-196.63773,-132.9003)"><g data-paper-data="{&quot;isPaintingLayer&quot;:true}" fill-rule="nonzero" stroke-linejoin="miter" stroke-miterlimit="10" stroke-dasharray="" stroke-dashoffset="0" style="mix-blend-mode: normal"><path d="M265.32205,183.33674c-0.81455,1.63676 -2.21923,2.20062 -4.04747,2.20062c-2.57094,0 -3.64528,-4.3775 -3.64528,-4.3775l-6.46532,-1.16255l0.90936,-3.09957l5.58203,-1.17978c0,0 1.17985,-5.69276 3.61921,-5.69276c0,0 3.11598,0.45601 3.93493,1.98281c0,0 0.62118,2.61878 0.05616,3.82232c-0.47346,1.00848 0.02546,-0.67057 0.02546,3.61298c0,0 0.92817,2.09047 0.03091,3.89345zM261.96708,174.85921c0.59219,0 1.07227,-0.48009 1.07227,-1.07227c0,-0.59219 -0.48008,-1.07227 -1.07227,-1.07227c-0.59219,0 -1.07227,0.48009 -1.07227,1.07227c0,0.59219 0.48008,1.07227 1.07227,1.07227zM262.24411,182.73159c0.59219,0 1.07228,-0.48009 1.07228,-1.07227c0,-0.59219 -0.48009,-1.07227 -1.07228,-1.07227c-0.59219,0 -1.07227,0.48008 -1.07227,1.07227c0,0.59219 0.48008,1.07227 1.07227,1.07227z" data-paper-data="{&quot;origPos&quot;:null}" fill="#fff300" stroke="none" stroke-width="0" stroke-linecap="butt"/><g data-paper-data="{&quot;origPos&quot;:null}"><path d="M240.9083,139.04191c11.291,0 21.522,4.586 28.931,11.994c7.408,7.409 11.994,17.64 11.994,28.931c0,11.291 -4.586,21.522 -11.994,28.931c-7.409,7.408 -17.64,11.994 -28.931,11.994c-11.291,0 -21.522,-4.586 -28.931,-11.994c-7.408,-7.409 -11.994,-17.64 -11.994,-28.931c0,-11.291 4.586,-21.522 11.994,-28.931c7.409,-7.408 17.64,-11.994 28.931,-11.994z" fill="url(#color-1)" stroke="none" stroke-width="1" stroke-linecap="butt"/><path d="M240.6583,145.89192c10.367,0 19.76,4.21 26.562,11.013c6.803,6.802 11.013,16.195 11.013,26.562c0,10.367 -4.21,19.76 -11.013,26.562c-6.802,6.803 -16.195,11.013 -26.562,11.013c-10.367,0 -19.76,-4.21 -26.562,-11.013c-6.803,-6.802 -11.013,-16.195 -11.013,-26.562c0,-10.367 4.21,-19.76 11.013,-26.562c6.802,-6.803 16.195,-11.013 26.562,-11.013z" fill="url(#color-2)" stroke="none" stroke-width="1" stroke-linecap="butt"/><path d="M240.4877,137.28275c11.4135,0 21.7567,4.6352 29.2458,12.1243c7.4891,7.4892 12.1243,17.8323 12.1243,29.2458c0,11.4135 -4.6352,21.7566 -12.1243,29.2457c-7.4891,7.4892 -17.8323,12.1243 -29.2458,12.1243c-11.4135,0 -21.7566,-4.6351 -29.2457,-12.1243c-7.4892,-7.4891 -12.1243,-17.8322 -12.1243,-29.2457c0,-11.4135 4.6351,-21.7566 12.1243,-29.2458c7.4891,-7.4891 17.8322,-12.1243 29.2457,-12.1243z" fill="url(#color-3)" stroke="url(#color-4)" stroke-width="4.85992" stroke-linecap="round"/><path d="M208.8966,204.29195h63.45l-9.9865,11.62l-22.0411,5.88l-24.462,-7.98z" fill="url(#color-5)" stroke="none" stroke-width="1.22016" stroke-linecap="round"/><path d="M240.4377,138.43275c11.4135,0 21.7567,4.6352 29.2458,12.1243c7.4891,7.4892 12.1243,17.8323 12.1243,29.2458c0,11.4135 -4.6352,21.7566 -12.1243,29.2457c-7.4891,7.4892 -17.8323,12.1243 -29.2458,12.1243c-11.4135,0 -21.7566,-4.6351 -29.2457,-12.1243c-7.4892,-7.4891 -12.1243,-17.8322 -12.1243,-29.2457c0,-11.4135 4.6351,-21.7566 12.1243,-29.2458c7.4891,-7.4891 17.8322,-12.1243 29.2457,-12.1243z" fill="url(#color-6)" stroke="url(#color-7)" stroke-width="4.85992" stroke-linecap="round"/></g><path d="M265.32205,183.33674c-0.81455,1.63676 -2.21923,2.20062 -4.04747,2.20062c-2.57094,0 -3.64528,-4.3775 -3.64528,-4.3775l-6.46532,-1.16255l0.90936,-3.09957l5.58203,-1.17978c0,0 1.17985,-5.69276 3.61921,-5.69276c0,0 3.11598,0.45601 3.93493,1.98281c0,0 0.62118,2.61878 0.05616,3.82232c-0.47346,1.00848 0.02546,-0.67057 0.02546,3.61298c0,0 0.92817,2.09047 0.03091,3.89345zM261.96708,174.85921c0.59219,0 1.07227,-0.48009 1.07227,-1.07227c0,-0.59219 -0.48008,-1.07227 -1.07227,-1.07227c-0.59219,0 -1.07227,0.48009 -1.07227,1.07227c0,0.59219 0.48008,1.07227 1.07227,1.07227zM262.24411,182.73159c0.59219,0 1.07228,-0.48009 1.07228,-1.07227c0,-0.59219 -0.48009,-1.07227 -1.07228,-1.07227c-0.59219,0 -1.07227,0.48008 -1.07227,1.07227c0,0.59219 0.48008,1.07227 1.07227,1.07227z" data-paper-data="{&quot;origPos&quot;:null}" fill="#fff300" stroke="none" stroke-width="0" stroke-linecap="butt"/><path d="M265.32205,183.33674c-0.81455,1.63676 -2.21923,2.20062 -4.04747,2.20062c-2.57094,0 -3.64528,-4.3775 -3.64528,-4.3775l-6.46532,-1.16255l0.90936,-3.09957l5.58203,-1.17978c0,0 1.17985,-5.69276 3.61921,-5.69276c0,0 3.11598,0.45601 3.93493,1.98281c0,0 0.62118,2.61878 0.05616,3.82232c-0.47346,1.00848 0.02546,-0.67057 0.02546,3.61298c0,0 0.92817,2.09047 0.03091,3.89345zM261.96708,174.85921c0.59219,0 1.07227,-0.48009 1.07227,-1.07227c0,-0.59219 -0.48008,-1.07227 -1.07227,-1.07227c-0.59219,0 -1.07227,0.48009 -1.07227,1.07227c0,0.59219 0.48008,1.07227 1.07227,1.07227zM262.24411,182.73159c0.59219,0 1.07228,-0.48009 1.07228,-1.07227c0,-0.59219 -0.48009,-1.07227 -1.07228,-1.07227c-0.59219,0 -1.07227,0.48008 -1.07227,1.07227c0,0.59219 0.48008,1.07227 1.07227,1.07227z" data-paper-data="{&quot;origPos&quot;:null}" fill="#fff300" stroke="none" stroke-width="0" stroke-linecap="butt"/><g stroke="none" stroke-linecap="butt"><path d="M265.32205,183.33674c-0.81455,1.63676 -2.21923,2.20062 -4.04747,2.20062c-2.57094,0 -3.64528,-4.3775 -3.64528,-4.3775l-6.46532,-1.16255l0.90936,-3.09957l5.58203,-1.17978c0,0 1.17985,-5.69276 3.61921,-5.69276c0,0 3.11598,0.45601 3.93493,1.98281c0,0 0.62118,2.61878 0.05616,3.82232c-0.47346,1.00848 0.02546,-0.67057 0.02546,3.61298c0,0 0.92817,2.09047 0.03091,3.89345zM261.96708,174.85921c0.59219,0 1.07227,-0.48009 1.07227,-1.07227c0,-0.59219 -0.48008,-1.07227 -1.07227,-1.07227c-0.59219,0 -1.07227,0.48009 -1.07227,1.07227c0,0.59219 0.48008,1.07227 1.07227,1.07227zM262.24411,182.73159c0.59219,0 1.07228,-0.48009 1.07228,-1.07227c0,-0.59219 -0.48009,-1.07227 -1.07228,-1.07227c-0.59219,0 -1.07227,0.48008 -1.07227,1.07227c0,0.59219 0.48008,1.07227 1.07227,1.07227z" data-paper-data="{&quot;origPos&quot;:null}" fill="#fff300" stroke-width="0"/><path d="M236.69655,207.0081c0,1.3919 -8.96087,0.84008 -8.96087,0.84008c0,0 -6.1606,0.55182 -6.1606,-0.84008c0,-1.91199 3.20472,-3.10203 5.02039,-3.70126c2.04585,-0.67518 2.8556,-0.84237 2.8556,-0.84237l-0.32466,-12.20322l2.57654,-0.48813c0,0 0.94565,13.31459 1.91331,13.31459c3.4024,0 3.0803,2.52849 3.0803,3.92038z" data-paper-data="{&quot;origPos&quot;:null}" fill="#ffde00" stroke-width="0"/><path d="M252.93814,177.74526c0,8.73799 -7.02086,15.82154 -15.68153,15.82154c-8.66067,0 -15.68153,-7.08354 -15.68153,-15.82154c0,-8.73799 7.02086,-15.82154 15.68153,-15.82154c8.66067,0 15.68153,7.08354 15.68153,15.82154z" data-paper-data="{&quot;origPos&quot;:null}" fill="#2b3073" stroke-width="0"/><path d="M248.12345,207.23394c0,1.39189 -8.96087,0.84008 -8.96087,0.84008c0,0 -6.1606,0.55182 -6.1606,-0.84008c0,-1.91199 3.20473,-3.10203 5.0204,-3.70126c2.04585,-0.67518 2.85558,-0.84237 2.85558,-0.84237l-0.32466,-12.20322l2.57654,-0.48813c0,0 0.94565,13.31459 1.91329,13.31459c3.40242,0 3.0803,2.5285 3.0803,3.92038z" data-paper-data="{&quot;origPos&quot;:null}" fill="#ffde00" stroke-width="0"/><path d="M241.1919,175.28825c0,3.67164 -0.99215,6.64808 -2.21602,6.64808c-1.22388,0 -2.21603,-2.97643 -2.21603,-6.64808c0,-3.67164 0.99215,-6.64807 2.21603,-6.64807c1.22388,0 2.21602,2.97643 2.21602,6.64807z" data-paper-data="{&quot;origPos&quot;:null}" fill="#ffffff" stroke-width="0"/><path d="M233.1052,174.95764c0,3.67164 -0.99215,6.64807 -2.21602,6.64807c-1.22388,0 -2.21602,-2.97643 -2.21602,-6.64807c0,-3.67164 0.99215,-6.64808 2.21602,-6.64808c1.22388,0 2.21602,2.97643 2.21602,6.64808z" data-paper-data="{&quot;origPos&quot;:null}" fill="#ffffff" stroke-width="0"/><path d="M259.34791,161.28025c-0.10474,0.61967 -0.19939,0.66335 -0.19939,0.66335c-1.03742,1.03742 -2.14114,1.87139 -3.69101,1.87139c-4.49745,-0.25716 -3.33024,-5.25941 -4.2792,-8.10636c-0.86641,-2.59921 -3.35965,-3.82506 -6.29785,-3.70293c-0.84291,0.06448 -3.00067,0.0121 -3.27446,0.47389c-0.90922,1.53354 -1.37507,3.85274 -1.95201,5.58356c0,0 -0.22605,0.67816 -0.90422,0.45211c-0.67816,-0.22605 -0.45211,-0.90422 -0.45211,-0.90422c0.61092,-1.83273 1.26984,-5.5752 3.05167,-6.46279c0.98122,-0.48878 2.21522,-0.46329 3.079,-0.49886c3.62814,-0.24494 6.99236,1.26537 8.1063,4.60716c0.49501,1.48504 -0.05806,7.70598 2.92288,7.12878c1.21356,0 1.8915,-0.66407 2.68006,-1.45263l0.62461,-0.47638c0,0 0.70484,0.11914 0.58571,0.82397z" data-paper-data="{&quot;origPos&quot;:null}" fill="url(#color-8)" stroke-width="0.5"/><path d="M233.16647,163.40843l0.58561,-6.3441l11.03323,1.01845l-0.58561,6.34411z" data-paper-data="{&quot;origPos&quot;:null,&quot;origRot&quot;:0}" fill="#69c0ff" stroke-width="0"/></g><g><path d="M272.20896,136.10655c4.9825,0 9.49724,2.02372 12.76669,5.29272c3.269,3.26945 5.29272,7.78419 5.29272,12.76669c0,4.9825 -2.02372,9.49724 -5.29272,12.76669c-3.26945,3.269 -7.78419,5.29272 -12.76669,5.29272c-4.9825,0 -9.49724,-2.02372 -12.76669,-5.29272c-3.269,-3.26945 -5.29272,-7.78419 -5.29272,-12.76669c0,-4.9825 2.02372,-9.49724 5.29272,-12.76669c3.26945,-3.269 7.78419,-5.29272 12.76669,-5.29272z" fill="url(#color-9)" stroke="none" stroke-width="1" stroke-linecap="butt"/><path d="M272.09864,139.12934c4.57475,0 8.7197,1.8578 11.72129,4.85983c3.00203,3.00159 4.85983,7.14654 4.85983,11.7213c0,4.57476 -1.8578,8.71971 -4.85983,11.72129c-3.00159,3.00203 -7.14654,4.85983 -11.72129,4.85983c-4.57475,0 -8.71971,-1.8578 -11.7213,-4.85983c-3.00203,-3.00159 -4.85982,-7.14654 -4.85982,-11.72129c0,-4.57476 1.85779,-8.71971 4.85982,-11.7213c3.00159,-3.00203 7.14655,-4.85983 11.7213,-4.85983z" fill="url(#color-10)" stroke="none" stroke-width="1" stroke-linecap="butt"/><path d="M272.02335,135.33027c5.03656,0 9.60082,2.04542 12.90561,5.35022c3.3048,3.30484 5.35022,7.86906 5.35022,12.90561c0,5.03655 -2.04542,9.60076 -5.35022,12.90556c-3.3048,3.30484 -7.86906,5.35022 -12.90561,5.35022c-5.03656,0 -9.60076,-2.04538 -12.90556,-5.35022c-3.30484,-3.3048 -5.35022,-7.86901 -5.35022,-12.90556c0,-5.03655 2.04538,-9.60077 5.35022,-12.90561c3.3048,-3.3048 7.869,-5.35022 12.90556,-5.35022z" fill="url(#color-11)" stroke="url(#color-12)" stroke-width="4.85992" stroke-linecap="round"/><path d="M272.00129,135.83773c5.03656,0 9.60081,2.04542 12.90561,5.35022c3.3048,3.30484 5.35022,7.86905 5.35022,12.90561c0,5.03655 -2.04542,9.60077 -5.35022,12.90556c-3.3048,3.30484 -7.86905,5.35022 -12.90561,5.35022c-5.03656,0 -9.60077,-2.04538 -12.90556,-5.35022c-3.30484,-3.3048 -5.35022,-7.86901 -5.35022,-12.90556c0,-5.03655 2.04538,-9.60076 5.35022,-12.90561c3.3048,-3.3048 7.86901,-5.35022 12.90556,-5.35022z" fill="url(#color-13)" stroke="url(#color-14)" stroke-width="4.85992" stroke-linecap="round"/></g></g></g></svg>