<svg version="1.1" xmlns="http://www.w3.org/2000/svg" xmlns:xlink="http://www.w3.org/1999/xlink" width="55.04058" height="42.49688" viewBox="0,0,55.04058,42.49688"><defs><linearGradient x1="246.73662" y1="166.68623" x2="246.73662" y2="180.01403" gradientUnits="userSpaceOnUse" id="color-1"><stop offset="0" stop-color="#ffffff"/><stop offset="1" stop-color="#d5d5d5"/></linearGradient><linearGradient x1="242.41853" y1="162.07153" x2="242.41853" y2="166.90056" gradientUnits="userSpaceOnUse" id="color-2"><stop offset="0" stop-color="#ffffff"/><stop offset="1" stop-color="#ffffff" stop-opacity="0"/></linearGradient><linearGradient x1="241.60467" y1="166.20861" x2="241.60467" y2="168.62504" gradientUnits="userSpaceOnUse" id="color-3"><stop offset="0" stop-color="#fdb700"/><stop offset="1" stop-color="#d19a00"/></linearGradient><linearGradient x1="241.69771" y1="168.40973" x2="241.69771" y2="171.64636" gradientUnits="userSpaceOnUse" id="color-4"><stop offset="0" stop-color="#e9aa00"/><stop offset="1" stop-color="#ba8500"/></linearGradient><linearGradient x1="241.732" y1="169.03385" x2="241.732" y2="171.20029" gradientUnits="userSpaceOnUse" id="color-5"><stop offset="0" stop-color="#000000"/><stop offset="1" stop-color="#7e4c4c"/></linearGradient><linearGradient x1="241.79167" y1="176.66669" x2="241.79167" y2="185.16669" gradientUnits="userSpaceOnUse" id="color-6"><stop offset="0" stop-color="#ffffff"/><stop offset="1" stop-color="#cccccc"/></linearGradient><linearGradient x1="251.86123" y1="176.04169" x2="251.86123" y2="184.16669" gradientUnits="userSpaceOnUse" id="color-7"><stop offset="0" stop-color="#ffffff"/><stop offset="1" stop-color="#cccccc"/></linearGradient><linearGradient x1="256.91667" y1="179.91669" x2="256.91667" y2="192.91669" gradientUnits="userSpaceOnUse" id="color-8"><stop offset="0" stop-color="#ffffff"/><stop offset="1" stop-color="#cccccc"/></linearGradient><linearGradient x1="250.97917" y1="187.91669" x2="250.97917" y2="198.66669" gradientUnits="userSpaceOnUse" id="color-9"><stop offset="0" stop-color="#ffffff"/><stop offset="1" stop-color="#cccccc"/></linearGradient><linearGradient x1="243.97917" y1="190.04169" x2="243.97917" y2="198.29169" gradientUnits="userSpaceOnUse" id="color-10"><stop offset="0" stop-color="#ffffff"/><stop offset="1" stop-color="#cccccc"/></linearGradient><linearGradient x1="238.41667" y1="182.79169" x2="238.41667" y2="193.16669" gradientUnits="userSpaceOnUse" id="color-11"><stop offset="0" stop-color="#ffffff"/><stop offset="1" stop-color="#cccccc"/></linearGradient><linearGradient x1="245.10417" y1="181.04169" x2="245.10417" y2="192.91669" gradientUnits="userSpaceOnUse" id="color-12"><stop offset="0" stop-color="#ffffff"/><stop offset="1" stop-color="#cccccc"/></linearGradient><linearGradient x1="245.22807" y1="183.90002" x2="245.22807" y2="186.40208" gradientUnits="userSpaceOnUse" id="color-13"><stop offset="0" stop-color="#000000"/><stop offset="1" stop-color="#1a1a1a"/></linearGradient><linearGradient x1="241.19057" y1="184.02502" x2="241.19057" y2="186.52708" gradientUnits="userSpaceOnUse" id="color-14"><stop offset="0" stop-color="#000000"/><stop offset="1" stop-color="#1a1a1a"/></linearGradient><linearGradient x1="250.85417" y1="182.66669" x2="250.85417" y2="192.66669" gradientUnits="userSpaceOnUse" id="color-15"><stop offset="0" stop-color="#ffffff"/><stop offset="1" stop-color="#cccccc"/></linearGradient></defs><g transform="translate(-206.37609,-156.16981)"><g data-paper-data="{&quot;isPaintingLayer&quot;:true}" fill-rule="nonzero" stroke-linecap="butt" stroke-linejoin="miter" stroke-dasharray="" stroke-dashoffset="0" style="mix-blend-mode: normal"><path d="M220.38875,177.37283c-0.39756,-0.01316 -0.39058,-0.76304 -0.39058,-0.76304l-0.00006,-0.18684c0,-1.21769 -0.09187,-2.59918 0.06489,-3.7819c0.37481,-1.9868 0.04115,-5.29421 0.04115,-7.4181c0,0 0,-0.75 0.39762,-0.75c0.39762,0 0.39762,0.75 0.39762,0.75c0,2.48522 0.20598,5.35273 -0.06489,7.7819c-0.13951,1.05257 -0.04115,2.32873 -0.04115,3.4181l-0.00006,0.21316c0,0 -0.00698,0.74988 -0.40454,0.73673z" data-paper-data="{&quot;origPos&quot;:null}" fill="#c8c8c8" stroke="none" stroke-width="0.5" stroke-miterlimit="10"/><path d="M207.12609,192.63568v-18.30587h24.77653v18.30587z" data-paper-data="{&quot;origPos&quot;:null}" fill="#555555" stroke="#303030" stroke-width="1.5" stroke-miterlimit="10"/><path d="M248.76295,170.12657c-0.14754,-0.03345 -0.29574,-1.81488 -0.44433,-1.84459c0,0 -0.4903,-0.09806 -0.39223,-0.58835c0.09806,-0.49029 0.58835,-0.39223 0.58835,-0.39223c1.82707,0.36542 3.62758,1.00882 4.94299,2.32424c1.70197,1.70197 0.96213,3.93125 0.63152,5.91232c-0.82743,3.30973 -3.80661,-1.89632 -4.36978,-3.02266c-0.67158,-1.34318 -0.95651,-2.38872 -0.95651,-2.38872z" data-paper-data="{&quot;origPos&quot;:null}" fill="#07980f" stroke="none" stroke-width="0.5" stroke-miterlimit="10"/><path d="M239.76991,168.0499c-0.13988,-1.05275 7.38737,-1.12615 8.75032,-1.36176c0.56078,-0.09694 1.92792,3.52345 2.11069,3.98036c0.72626,1.81565 2.36106,3.73783 2.83333,5.62693c0.24583,0.98332 0.75156,3.92618 -1.27612,2.47482c-0.88731,-0.63511 -9.81701,1.91308 -10.44824,1.07145c-1.14638,-1.59416 -1.39856,-4.32362 -1.77779,-6.2198c0,0 -0.15971,-5.34469 -0.19218,-5.572z" data-paper-data="{&quot;origPos&quot;:null}" fill="url(#color-1)" stroke="none" stroke-width="0.5" stroke-miterlimit="10"/><path d="M237.95736,181.08027c-0.04485,0.11168 -0.0823,0.22691 -0.10945,0.34602l-0.09337,0.50767c-0.08239,0.21294 -0.30357,0.34841 -0.53899,0.31379c-0.2732,-0.04018 -0.46212,-0.29423 -0.42194,-0.56743l0.07275,-0.49468l0.00433,0.00064c0.17444,-0.94932 0.53322,-1.73194 1.15883,-2.13744c0.64552,-0.88868 1.41199,-1.82506 1.43754,-2.66086c0.00862,-0.05861 0.02183,-0.14846 0.03637,-0.24734c0.02637,-0.17934 0.05711,-0.38839 0.07274,-0.49468c0.04017,-0.2732 0.43285,-2.08421 0.50559,-2.57889c0.07274,-0.49468 0.56743,-0.42193 0.56743,-0.42193c1.31942,0.19403 1.20533,2.11338 1.04755,3.18632c-0.03063,0.20828 0.05905,1.58592 0.19935,1.50396c0.48354,0.65029 1.02456,1.28806 1.45247,1.98008l0.00971,-0.00527l0.29585,0.5448c0.05167,0.09275 0.07433,0.20263 0.05769,0.3158c-0.04017,0.2732 -0.29422,0.46211 -0.56742,0.42193c-0.10687,-0.01572 -0.20084,-0.06415 -0.27324,-0.13366l-0.67274,-0.62868c-0.24586,-0.05261 -0.46453,-0.12976 -0.61276,-0.23254c0.06629,0.48789 0.1267,1.2165 0.17538,1.68062l0.00404,-0.0004l0.04981,0.5017c0.00526,0.04332 0.00489,0.08805 -0.00176,0.13331c-0.04018,0.2732 -0.29423,0.46211 -0.56743,0.42193c-0.19747,-0.02904 -0.35092,-0.16982 -0.40563,-0.34881l-0.17121,-0.52076c0,0 -0.48867,-0.88346 -0.63792,-1.42925c-0.11294,0.21675 -0.23991,0.44176 -0.359,0.67166c-0.06266,0.56082 -0.42612,1.58575 -0.42612,1.58575l0.03571,0.51063c-0.04018,0.2732 -0.29423,0.46211 -0.56743,0.42193c-0.23542,-0.03462 -0.40824,-0.22804 -0.42584,-0.45568l-0.04989,-0.50246l0.01909,-0.0019c0.00337,-0.41825 0.06955,-0.88627 0.19071,-1.35361c0.02054,-0.15181 0.04825,-0.30765 0.07978,-0.46537c-0.18707,0.23742 -0.37869,0.45199 -0.57062,0.63309z" data-paper-data="{&quot;origPos&quot;:null,&quot;origRot&quot;:0,&quot;index&quot;:null}" fill="#fec401" stroke="none" stroke-width="0.5" stroke-miterlimit="10"/><path d="M239.08618,178.71499c-0.65247,0.54526 -1.34331,0.03029 -1.34331,0.03029l-0.70426,-0.60985c-0.73389,-1.15848 -1.04701,-2.45274 -1.7738,-3.6c-1.49651,-2.54599 -1.41428,-6.65909 -5.71553,-7.5078c-3.04735,-0.68129 -6.15505,-1.67761 -9.39872,-1.67761c0,0 -0.95025,0 -0.95025,-0.75c0,-0.75 0.95025,-0.75 0.95025,-0.75c3.54233,0 6.54195,1.26332 9.85965,1.72239c5.43974,1.07335 4.76282,5.31499 6.95445,8.2922c0.73022,1.15268 1.04054,2.44252 1.7738,3.6l0.30934,0.19015c0,0 0.69085,0.51497 0.03838,1.06023z" data-paper-data="{&quot;origPos&quot;:null}" fill="#bb751f" stroke="none" stroke-width="0.5" stroke-miterlimit="10"/><path d="M241.82004,172.05999c1.29752,-1.26999 2.77373,-2.5183 4.65913,-2.5183c2.20753,0 2.42985,3.36479 3.525,4.825c0.68918,0.95982 2.44597,2.89153 1.4125,3.925c-0.35396,0.35396 -2.53952,0.34682 -3.0428,0.4307c-1.24235,0.20614 -5.73794,0.87583 -6.40441,-0.45709c-0.45503,-1.21214 -0.70397,-3.21596 -0.77855,-4.77748c-0.44434,-0.22396 -0.49069,-1.01589 -0.49069,-1.01589c0,0 0.46644,-0.43024 0.96644,-0.43024c0.05748,0 0.10835,0.00661 0.15337,0.0183z" data-paper-data="{&quot;origPos&quot;:null}" fill="#d5bf88" stroke="none" stroke-width="0.5" stroke-miterlimit="10"/><path d="M251.95264,165.07378c-0.00363,0.26386 -0.03212,0.55012 -0.08053,0.84848c0.09487,-0.12988 0.19093,-0.25568 0.28888,-0.37347c0.26236,-0.40528 0.5624,-0.77052 0.86824,-1.05584l-0.01151,-0.01535l0.4039,-0.30302c0.17961,-0.14097 0.43896,-0.14445 0.62366,0.00557c0.21435,0.17409 0.24697,0.489 0.07288,0.70335l-0.40033,0.31899c0,0 -0.50928,0.96084 -0.88007,1.38624c-0.08883,0.24319 -0.16875,0.48889 -0.25205,0.71866c0.50301,-0.25913 1.48431,-0.49653 1.48431,-0.49653l0.49941,-0.22602c0.16886,-0.08073 0.37634,-0.06288 0.53126,0.06296c0.21435,0.17409 0.24697,0.489 0.07288,0.70334c-0.02884,0.03551 -0.06155,0.06602 -0.09702,0.09144l-0.40329,0.30257l-0.00243,-0.00325c-0.37483,0.27799 -0.95245,0.72619 -1.35671,1.00727c0.17595,0.0397 0.38066,0.14862 0.58567,0.29417l0.91807,0.07048c0.10017,0.00634 0.19939,0.04281 0.28324,0.11091c0.21435,0.17409 0.24697,0.489 0.07287,0.70334c-0.07212,0.08879 -0.16839,0.1464 -0.27166,0.17105l-0.60142,0.15045l-0.00268,-0.01071c-0.79917,0.15272 -1.63486,0.18542 -2.44091,0.26894c-0.03449,-0.15878 -1.11005,0.70674 -1.24277,0.87015c-0.68374,0.84178 -2.02057,2.22374 -3.05573,1.38294c0,0 -0.38811,-0.31524 -0.07287,-0.70334c0.31524,-0.3881 1.38387,-1.90204 1.55797,-2.11637c0.06773,-0.08339 0.20095,-0.2474 0.31524,-0.3881c0.06301,-0.07757 0.12027,-0.14807 0.15762,-0.19405c0.59846,-0.58401 0.76998,-1.78187 0.98816,-2.85837c-0.12432,-0.7351 0.20962,-1.52863 0.79102,-2.29909l-0.0034,-0.00276l0.31524,-0.3881c0.17409,-0.21435 0.489,-0.24696 0.70335,-0.07287c0.1847,0.15002 0.23447,0.40457 0.13331,0.60926l-0.31086,0.41209c-0.06939,0.10055 -0.12895,0.20606 -0.1809,0.31462z" data-paper-data="{&quot;origPos&quot;:null,&quot;origRot&quot;:0}" fill="#fec401" stroke="none" stroke-width="0.5" stroke-miterlimit="10"/><path d="M237.76417,168.11679l-0.08258,-0.07136c0.02084,-0.08334 0.04166,-0.16666 0.0625,-0.25c0.45748,-1.82994 0.88414,-3.9199 1.72536,-5.60234c0.99238,-1.98475 3.32219,-2.60429 5.44348,-2.07397c2.62939,0.65735 2.86186,2.52081 3.95094,4.69897c1.07225,2.31977 0.43108,4.05241 -1.28116,5.76466c-1.73833,1.73833 -3.49651,1.95895 -5.79105,1.95895c-2.11522,-0.08506 -3.8407,-1.904 -4.24029,-3.90194c0,0 -0.07148,-0.35743 0.21279,-0.52296z" fill="#fec401" stroke="none" stroke-width="0.5" stroke-miterlimit="10"/><path d="M248.93524,159.48216c-0.05424,0.24404 -0.29828,0.18982 -0.29828,0.18982l-0.2791,0.00596c-1.05256,0 -1.97477,0.50563 -2.91656,0.68678l-0.24,0.24c-0.04524,0.04524 -0.10774,0.07323 -0.17677,0.07323c-0.13807,0 -0.25,-0.11193 -0.25,-0.25v-0.16667c0,-0.07788 -0.00259,-0.1531 -0.0077,-0.22572c-0.1282,-0.2061 -0.18335,-0.46745 -0.18178,-0.7554c-0.30785,-0.65583 -0.97591,-0.93554 -1.89385,-0.93554c0,0 -0.25,0 -0.25,-0.25c0,-0.25 0.25,-0.25 0.25,-0.25c0.83854,0 1.53563,0.24026 1.99349,0.72578c0.2308,-0.8983 0.82575,-1.83158 1.39471,-2.11606c1.00185,-0.50092 0.85715,-0.28168 0.44861,0.20314c0.12741,-0.0123 0.10805,0.07237 -0.19297,0.22781c-0.33186,0.39294 -0.73199,0.88662 -0.88308,1.31761c-0.0236,0.14757 -0.03801,0.29816 -0.04857,0.44806c0.00836,0.03823 0.02084,0.07506 0.03781,0.11033c0,0.28012 -0.06029,0.55165 -0.10835,0.83432c-0.0038,0.02534 -0.00791,0.05034 -0.01236,0.07497c-0.01116,0.0701 -0.02119,0.14099 -0.02901,0.21294c0.52376,-0.5293 2.52987,-0.70557 3.0664,-0.70557l0.38756,0.00595c0,0 0.24405,0.05423 0.18982,0.29828z" data-paper-data="{&quot;origPos&quot;:null}" fill="#000000" stroke="none" stroke-width="0.5" stroke-miterlimit="10"/><path d="M243.36554,165.98199c-0.52239,0 -0.52238,-0.52239 -0.52238,-0.52239c0,-0.17413 0,-0.60945 0,-0.78358c0,0 -0.00001,-0.52239 0.52238,-0.52239c0.52239,0 0.52239,0.52239 0.52239,0.52239c0,0.17413 0,0.34826 0,0.52239v0.26119c0,0 0,0.52239 -0.52239,0.52239z" data-paper-data="{&quot;origPos&quot;:null}" fill="#000000" stroke="none" stroke-width="0.5" stroke-miterlimit="10"/><path d="M240.47282,165.9717c-0.52239,0 -0.52239,-0.52239 -0.52239,-0.52239c0,-0.17413 0,-0.55721 0,-0.73134c0,0 0,-0.52239 0.52239,-0.52239c0.52239,0 0.52239,0.52239 0.52239,0.52239c0,0.17413 0,0.34826 0,0.52239v0.20896c0,0 0,0.52239 -0.52239,0.52239z" data-paper-data="{&quot;origPos&quot;:null}" fill="#000000" stroke="none" stroke-width="0.5" stroke-miterlimit="10"/><path d="M249.55607,165.33047c-0.16445,0.60297 -0.76743,0.43853 -0.76743,0.43853l-0.49626,-0.10297c-0.09751,-0.07314 -0.20645,-0.1346 -0.32164,-0.18268c-0.53009,2.09818 -3.11939,3.37906 -5.41063,2.00432c-0.31149,-0.18902 -0.81026,-0.3057 -0.86351,-0.52018c-0.15143,0.22258 -0.37472,0.51543 -0.51138,0.63598c-0.42092,0.37126 -1.48253,0.50881 -2.01784,0.47327c-1.67561,-0.11125 -2.41071,-1.74122 -2.41071,-3.26785c0.0779,-3.07924 2.03874,-4.79225 4.46183,-2.90825l0.03368,-0.03369l0.35147,0.35147c1.92172,-1.424 4.82587,-1.63994 6.05132,0.81096c0.18342,0.36684 0.30177,0.72993 0.36302,1.08308h0.07796v0.07098c0.31988,0.077 1.02159,0.37962 1.02159,0.37962c0,0 0.60298,0.16445 0.43853,0.76743zM246.75666,164.73745c0,-0.12111 0.02346,-0.21874 0.0613,-0.29746c-0.04321,-0.27282 -0.13451,-0.55855 -0.28103,-0.8516c-0.8493,-1.6986 -2.76347,-1.36772 -4.08756,-0.43892c0.00177,0.10771 -0.41069,0.50466 -0.50366,0.56498c-0.23164,0.15027 -0.48216,-0.02839 -0.48216,-0.02839c0,0 -0.12384,-0.16718 -0.18514,-0.18075l-0.56342,-0.39552c-0.67238,-0.60073 -0.88021,-1.33551 -1.80654,-0.87234c-0.20551,0.10276 -0.59324,0.55709 -0.61607,0.78572c-0.05955,0.59637 -0.31678,1.18525 -0.28571,1.78572c0,0.67001 0.07174,1.79811 0.72947,1.92583c1.04614,0.20314 1.76678,-0.81351 2.82421,-0.94594c0.53018,-0.0664 1.18362,0.35394 1.64288,0.62703c1.71336,1.02802 3.45448,0.15892 3.63003,-1.35146c-0.04671,-0.08344 -0.07659,-0.19022 -0.07659,-0.3269z" data-paper-data="{&quot;origPos&quot;:null}" fill="#353535" stroke="none" stroke-width="0.5" stroke-miterlimit="10"/><path d="M246.88282,165.07092c-0.17555,1.51038 -1.94748,2.41923 -3.66084,1.39121c-0.45926,-0.27309 -1.15883,-0.69794 -1.68901,-0.63154c-1.05742,0.13243 -1.79331,1.13338 -2.83946,0.93024c-0.65772,-0.12772 -0.73671,-1.27821 -0.73671,-1.94822c-0.03107,-0.60047 0.22887,-1.20971 0.28842,-1.80608c0.02283,-0.22863 0.41557,-0.69324 0.62108,-0.796c0.92633,-0.46317 1.21531,0.3298 1.88769,0.93053l0.48637,0.33179c0.0613,0.01356 0.18469,0.18129 0.18469,0.18129c0,0 0.26267,0.16807 0.49432,0.0178c0.09297,-0.06032 0.53294,-0.46476 0.53117,-0.57247c1.32409,-0.9288 3.28598,-1.22025 4.13528,0.47835c0.14652,0.29305 0.23896,0.58891 0.28216,0.86173c-0.03784,0.07872 -0.0614,0.17977 -0.0614,0.30087c0,0.13667 0.02954,0.24706 0.07625,0.3305z" data-paper-data="{&quot;origPos&quot;:null,&quot;noHover&quot;:false,&quot;origItem&quot;:[&quot;Path&quot;,{&quot;applyMatrix&quot;:true,&quot;data&quot;:{&quot;origPos&quot;:null},&quot;segments&quot;:[[[493.51332,329.47486],[0,0.27334],[0,-0.24221]],[[493.63593,328.87994],[-0.07568,0.15744],[-0.08641,-0.54563]],[[493.07386,327.17674],[0.29305,0.5861],[-1.6986,-3.39721]],[[484.89874,326.29891],[2.64818,-1.8576],[0.00353,0.21541]],[[483.89141,327.42886],[0.18595,-0.12063],[-0.46329,0.30054]],[482.92709,327.37207],[[482.55682,327.01058],[0.12259,0.02713],[0,0]],[[481.42999,326.21954],[0,0],[-1.34477,-1.20146]],[[477.8169,324.47486],[1.85267,-0.92634],[-0.41102,0.20551]],[[476.58475,326.04629],[0.04566,-0.45726],[-0.1191,1.19275]],[[476.01332,329.61772],[-0.06214,-1.20094],[0,1.34002]],[[477.47226,333.46939],[-1.31545,-0.25544],[2.09229,0.40628]],[[483.12068,331.57751],[-2.11485,0.26485],[1.06037,-0.1328]],[[486.40644,332.83157],[-0.91853,-0.54618],[3.42672,2.05603]],[[493.6665,330.12865],[-0.3511,3.02075],[-0.09341,-0.16687]]],&quot;closed&quot;:true}]}" fill="url(#color-2)" stroke="none" stroke-width="0.5" stroke-miterlimit="10"/><path d="M242.95832,167.19849c0.13046,0.88243 -1.13005,1.94833 -2.07997,1.13899c-1.48284,-1.2634 -0.10548,-2.43023 1.38009,-2.05883c0,0 0.79076,0.37077 0.69988,0.91984z" data-paper-data="{&quot;origPos&quot;:null}" fill="url(#color-3)" stroke="none" stroke-width="0.5" stroke-miterlimit="10"/><path d="M244.13769,168.52435c0.10896,0.16344 0.00389,0.28407 -0.04614,0.32827l0.1548,-0.12293c0,0.24344 0.01854,0.48996 -0.0408,0.7273c-0.37003,1.46608 -0.85522,2.18937 -2.47587,2.18937c-0.9877,-0.03801 -2.06861,-1.00001 -2.30806,-1.98562l-0.02528,0.01896l-0.19848,-0.26465c-0.03231,-0.04212 -0.05152,-0.09483 -0.05152,-0.15202c0,-0.13807 0.11193,-0.25 0.25,-0.25h0.4v0.0162c0.44526,0.05031 0.86976,0.1838 1.33333,0.1838c0.97478,0 1.60606,-0.28835 2.50715,-0.64879c0,0 0.06447,-0.02579 0.13905,-0.01621l0.01512,-0.09302c0,0 0.20801,-0.13868 0.34669,0.06934zM243.75161,169.05687c-0.89613,0.35909 -1.6203,0.65615 -2.62194,0.65615c-0.42775,0 -0.91097,-0.18459 -1.33333,-0.20468v0.00468h-0.08035c0.48506,0.31226 1.13932,1.72311 2.01368,1.63333c1.39754,0 1.67709,-0.54561 1.9908,-1.81063c0.02276,-0.09104 0.02996,-0.18452 0.03114,-0.27885z" fill="url(#color-4)" stroke="none" stroke-width="0.5" stroke-miterlimit="10"/><path d="M243.76711,169.3177c-0.31371,1.26502 -0.6401,1.87866 -2.03763,1.87866c-0.87435,0.08977 -1.57641,-1.38512 -2.06147,-1.69738l0.08051,-0.00053l0.00003,-0.00478c0.42236,0.02008 0.91139,0.19221 1.33914,0.19221c1.00164,0 1.81218,-0.29294 2.70831,-0.65203c-0.00118,0.09433 -0.00613,0.19282 -0.02888,0.28385z" data-paper-data="{&quot;noHover&quot;:false,&quot;origItem&quot;:[&quot;Path&quot;,{&quot;applyMatrix&quot;:true,&quot;segments&quot;:[[[243.75161,169.05685],[-0.00118,0.09433],[-0.89613,0.35909]],[[241.12968,169.71301],[1.00164,0],[-0.42775,0]],[[239.79634,169.50833],[0.42236,0.02008],[0,0]],[239.79634,169.51301],[[239.716,169.51301],[0,0],[0.48506,0.31226]],[[241.72968,171.14634],[-0.87435,0.08977],[1.39754,0]],[[243.72047,169.33571],[-0.31371,1.26502],[0.02276,-0.09104]]],&quot;closed&quot;:true}]}" fill="url(#color-5)" stroke="none" stroke-width="0.5" stroke-miterlimit="10"/><path d="M247.16667,180.91669c0,2.34721 -2.40647,4.25 -5.375,4.25c-2.96853,0 -5.375,-1.90279 -5.375,-4.25c0,-2.34721 2.40647,-4.25 5.375,-4.25c2.96853,0 5.375,1.90279 5.375,4.25z" data-paper-data="{&quot;origPos&quot;:null}" fill="url(#color-6)" stroke="none" stroke-width="0" stroke-miterlimit="10"/><path d="M257.43078,180.10419c0,2.24365 -2.49358,4.0625 -5.56956,4.0625c-3.07598,0 -5.56956,-1.81885 -5.56956,-4.0625c0,-2.24365 2.49358,-4.0625 5.56956,-4.0625c3.07598,0 5.56956,1.81885 5.56956,4.0625z" data-paper-data="{&quot;origPos&quot;:null}" fill="url(#color-7)" stroke="none" stroke-width="0" stroke-miterlimit="10"/><path d="M261.41667,186.41669c0,3.58985 -2.01472,6.5 -4.5,6.5c-2.48528,0 -4.5,-2.91015 -4.5,-6.5c0,-3.58985 2.01472,-6.5 4.5,-6.5c2.48528,0 4.5,2.91015 4.5,6.5z" data-paper-data="{&quot;origPos&quot;:null}" fill="url(#color-8)" stroke="none" stroke-width="0" stroke-miterlimit="10"/><path d="M250.97917,198.66669c-3.4863,0 -6.3125,-2.40647 -6.3125,-5.375c0,-2.96853 2.8262,-5.375 6.3125,-5.375c3.48629,0 6.3125,2.40647 6.3125,5.375c0,2.96853 -2.8262,5.375 -6.3125,5.375z" data-paper-data="{&quot;origPos&quot;:null}" fill="url(#color-9)" stroke="none" stroke-width="0" stroke-miterlimit="10"/><path d="M249.79167,194.16669c0,2.27818 -2.60235,4.125 -5.8125,4.125c-3.21015,0 -5.8125,-1.84682 -5.8125,-4.125c0,-2.27818 2.60235,-4.125 5.8125,-4.125c3.21015,0 5.8125,1.84682 5.8125,4.125z" data-paper-data="{&quot;origPos&quot;:null}" fill="url(#color-10)" stroke="none" stroke-width="0" stroke-miterlimit="10"/><path d="M242.91667,187.97919c0,2.86497 -2.01472,5.1875 -4.5,5.1875c-2.48528,0 -4.5,-2.32253 -4.5,-5.1875c0,-2.86497 2.01472,-5.1875 4.5,-5.1875c2.48528,0 4.5,2.32253 4.5,5.1875z" data-paper-data="{&quot;origPos&quot;:null}" fill="url(#color-11)" stroke="none" stroke-width="0" stroke-miterlimit="10"/><path d="M251.04167,186.97919c0,3.27919 -2.65831,5.9375 -5.9375,5.9375c-3.27919,0 -5.9375,-2.65831 -5.9375,-5.9375c0,-3.27919 2.65831,-5.9375 5.9375,-5.9375c3.27919,0 5.9375,2.65831 5.9375,5.9375z" data-paper-data="{&quot;origPos&quot;:null}" fill="url(#color-12)" stroke="none" stroke-width="0" stroke-miterlimit="10"/><g data-paper-data="{&quot;origPos&quot;:null}" stroke="none" stroke-width="0.5" stroke-miterlimit="10"><path d="M245.05892,186.39564c-0.49561,-0.06608 -0.42421,-0.59367 -0.42421,-0.59367l0.05,-0.25c0.08,-0.40002 0.14029,-0.74368 0.14029,-1.15194v0c0,-0.0632 0.01173,-0.12366 0.03312,-0.17932c0.04873,-0.14343 0.16918,-0.32068 0.46688,-0.32068c0.29771,0 0.41815,0.17726 0.46689,0.32068c0.02139,0.05566 0.03311,0.11612 0.03311,0.17932v0.5h-0.02535c-0.02789,0.28234 -0.07653,0.55888 -0.13436,0.84806l-0.05,0.25c0,0 -0.06076,0.46363 -0.55637,0.39755z" data-paper-data="{&quot;origPos&quot;:null}" fill="url(#color-13)"/><path d="M244.975,184.40002c0,-0.13807 0.11193,-0.25 0.25,-0.25c0.13807,0 0.25,0.11193 0.25,0.25c0,0.13807 -0.11193,0.25 -0.25,0.25c-0.13807,0 -0.25,-0.11193 -0.25,-0.25z" data-paper-data="{&quot;origPos&quot;:null}" fill="#ffffff"/></g><g data-paper-data="{&quot;origPos&quot;:null}" stroke="none" stroke-width="0.5" stroke-miterlimit="10"><path d="M241.02142,186.52064c-0.49561,-0.06608 -0.42421,-0.59367 -0.42421,-0.59367l0.05,-0.25c0.08,-0.40002 0.14029,-0.74368 0.14029,-1.15194v0c0,-0.0632 0.01173,-0.12366 0.03312,-0.17932c0.04873,-0.14343 0.16918,-0.32068 0.46688,-0.32068c0.29771,0 0.41815,0.17726 0.46689,0.32068c0.02139,0.05566 0.03311,0.11612 0.03311,0.17932v0.5h-0.02535c-0.02789,0.28234 -0.07652,0.55888 -0.13436,0.84806l-0.05,0.25c0,0 -0.06076,0.46363 -0.55637,0.39755z" data-paper-data="{&quot;origPos&quot;:null}" fill="url(#color-14)"/><path d="M240.9375,184.52502c0,-0.13807 0.11193,-0.25 0.25,-0.25c0.13807,0 0.25,0.11193 0.25,0.25c0,0.13807 -0.11193,0.25 -0.25,0.25c-0.13807,0 -0.25,-0.11193 -0.25,-0.25z" data-paper-data="{&quot;origPos&quot;:null}" fill="#ffffff"/></g><path d="M250.85417,182.66669c2.7269,0 4.9375,2.23857 4.9375,5c0,2.76143 -2.2106,5 -4.9375,5c-2.7269,0 -4.9375,-2.23857 -4.9375,-5c0,-2.76143 2.2106,-5 4.9375,-5z" data-paper-data="{&quot;origPos&quot;:null}" fill="url(#color-15)" stroke="none" stroke-width="0" stroke-miterlimit="10"/><path d="M247.30531,189.1845c-0.05808,0.33881 -0.30916,0.40475 -0.46041,0.41288l0.0676,0.00263c-0.74228,0.55671 -1.44781,0.63764 -2.26431,0.96424c-2.31311,0.72076 -3.77071,-0.17016 -4.9514,-1.91482l-0.01304,0.00782l-0.35361,-0.6251c-0.00398,-0.01456 -0.00732,-0.02938 -0.00998,-0.04443c-0.03185,-0.1458 -0.02127,-0.35618 0.22329,-0.50924c0.00859,-0.00549 0.01735,-0.01073 0.02628,-0.01569c0.24982,-0.14222 0.43999,-0.05162 0.55312,0.04517c0.0494,0.03915 0.09123,0.08745 0.12292,0.14233c0.63657,1.05749 1.6321,2.58286 4.03103,1.98548c0.82086,-0.32835 1.35261,-0.32344 2.0357,-0.83576l0.58448,-0.19281c0,0 0.49281,0.08448 0.40833,0.57729z" data-paper-data="{&quot;origPos&quot;:null}" fill="#949494" stroke="none" stroke-width="0.5" stroke-miterlimit="10"/><g fill="#ffffff" stroke="#000000" stroke-width="0.2" stroke-miterlimit="4"><path d="M210.41375,180.10922l0.02733,0.03188l0.09566,4.13603h0.02733l2.7194,-0.95657l0.03191,0.03188l-0.0911,2.28666l-4.23169,0.40085l-0.89735,-5.68476l2.31854,-0.24597z"/><path d="M214.391,181.2043l2.70573,0.46007l1.06589,0.97934l-0.49195,1.64439l0.49195,1.14789l-1.41208,0.29153l-0.25964,-0.34619l-2.0999,0.37352l-0.69237,-1.87214l1.52596,-0.80625l1.15244,0.05922l0.02733,-0.60583l-2.35954,0.17309l-0.02733,-0.05922l0.37352,-1.43941zM215.33846,183.8827l0.29153,1.06589h0.02733l0.57394,-0.49195l0.05922,-0.48739l-0.95201,-0.08655z"/><path d="M220.69234,180.9032l0.19587,0.7197l2.12723,-0.46007l1.37109,2.05891l-1.04768,2.22289l-2.25477,-0.35985v0.06833l0.26419,2.15456l-0.03191,0.03188l-0.49196,-0.03188h-0.39173l-1.04768,-0.03188l-0.97935,-5.81686l2.28666,-0.55572zM220.85633,182.76624l0.16398,1.04767l1.14333,0.32341l0.35986,-1.56696z"/><path d="M228.19022,180.38216h0.03644l1.45763,0.91101l-1.73094,2.20467v0.05465l0.81992,-0.0729l0.01822,-0.92924l0.01822,-0.01825l0.85636,-0.01825h0.20042l0.27331,-0.01824l0.01822,0.0364l-0.03644,0.74703l-0.01822,0.01825l0.03644,0.01824h0.72882l0.03644,0.03641l-0.0911,1.27542l-0.03644,0.01825h-0.74704l-0.08199,1.12056l-1.49407,-0.04549l-0.0091,-0.91104l-1.80382,0.0911l-0.51017,-1.33008z"/></g></g></g></svg>