<svg version="1.1" xmlns="http://www.w3.org/2000/svg" xmlns:xlink="http://www.w3.org/1999/xlink" width="122.59201" height="28.86104" viewBox="0,0,122.59201,28.86104"><g transform="translate(-178.58352,-165.51107)"><g data-paper-data="{&quot;isPaintingLayer&quot;:true}" fill="#ffffff" fill-rule="nonzero" stroke-linecap="butt" stroke-linejoin="miter" stroke-miterlimit="10" stroke-dasharray="" stroke-dashoffset="0" style="mix-blend-mode: normal"><g><path d="M191.90149,167.55625c3.46144,2.5139 5.47738,4.06575 6.04784,4.65554c-1.11191,3.2874 -1.66787,4.98428 -1.66787,5.09063c0.27073,0.27072 1.00072,1.20377 2.18999,2.79913v0.17401c-1.7984,3.17138 -2.84747,4.92627 -3.1472,5.26468l-12.02317,0.88469c-0.18371,-0.7155 -1.09258,-6.27507 -2.72661,-16.67871zM187.15894,172.03776l0.52212,5.17763c2.55257,-0.6188 3.83852,-0.9717 3.85786,-1.05872c0.11604,-0.29007 0.38193,-1.22795 0.79768,-2.81363zM189.26191,179.0573h-0.95721c-0.1257,0.01933 -0.18855,0.07734 -0.18855,0.17401c-0.05802,1.25694 -0.08703,2.18998 -0.08703,2.79911c-0.05802,0.30941 -0.08703,0.48828 -0.08703,0.53663l4.56851,-0.71066l-0.08703,-0.43511v-0.52211c0,-0.41576 -0.02901,-1.05873 -0.08703,-1.92891c-1.38264,0.058 -2.40754,0.087 -3.07468,0.087z" stroke="#004377" stroke-width="3.5"/><path d="M207.85219,171.95073c4.37997,2.25283 6.80685,3.56779 7.28062,3.94488c-0.62847,2.93931 -1.00072,4.45247 -1.11675,4.53949h-9.16604v0.15951l2.56707,3.17619l4.03189,-2.05944c0.39642,0.68648 0.96688,1.88541 1.71138,3.5968c-0.34808,0.116 -2.88614,0.48825 -7.61419,1.11675c-3.91587,-2.58157 -5.88831,-3.92554 -5.91731,-4.03191c0.62847,-5.01812 1.00072,-7.52718 1.11675,-7.52718c4.08991,-1.74039 6.45877,-2.7121 7.10658,-2.91513zM206.90948,175.46051c-0.07735,0.19339 -0.5898,0.96206 -1.53734,2.30602c0,0.40609 0.57046,0.60914 1.71138,0.60914c0,0.058 0.82668,0.1982 2.48005,0.42058c0.45443,-0.62846 0.68165,-0.99588 0.68165,-1.10225c-0.14504,-0.86052 -0.45927,-1.29078 -0.94271,-1.29078z" data-paper-data="{&quot;origPos&quot;:null}" stroke="#004377" stroke-width="3.5"/><path d="M216.4526,167.57077c2.95866,0.058 5.12931,0.087 6.51195,0.087c0.12569,0 0.5076,5.93665 1.14575,17.80996c-0.49311,0.12567 -2.21416,0.44474 -5.16315,0.95722c-0.14504,0 -0.62364,-3.63547 -1.43582,-10.90642c-0.06768,-0.17404 -0.4206,-2.82329 -1.05873,-7.94776z" data-paper-data="{&quot;origPos&quot;:null}" stroke="#004377" stroke-width="3.5"/><path d="M225.73466,167.57077c2.95866,0.058 5.12931,0.087 6.51195,0.087c0.12569,0 0.5076,5.93665 1.14575,17.80996c-0.49311,0.12567 -2.21416,0.44474 -5.16315,0.95722c-0.14504,0 -0.62364,-3.63547 -1.43582,-10.90642c-0.06768,-0.17404 -0.4206,-2.82329 -1.05873,-7.94776z" data-paper-data="{&quot;origPos&quot;:null}" stroke="#004377" stroke-width="3.5"/><path d="M252.26108,167.55625c4.32195,1.68238 6.48293,2.57675 6.48293,2.6831c-1.38264,2.82329 -2.07397,4.29295 -2.07397,4.40899h-0.087c-0.61881,-0.17404 -1.97728,-0.77834 -4.07541,-1.81291l-3.45177,2.42205c0,2.99733 0.1692,4.49599 0.50761,4.49599c0.22239,0.116 1.66788,0.69613 4.33646,1.74039c1.02489,-1.01522 2.06428,-1.99661 3.11819,-2.94416c0.19337,0.17404 1.05873,1.55668 2.59608,4.14793v0.26106c-0.09667,0 -2.23348,1.15542 -6.41043,3.46627c-5.33718,-1.78874 -8.07828,-2.74111 -8.22332,-2.85713l-2.59608,-8.5714c2.43653,-3.46144 3.67898,-5.19215 3.72733,-5.19215c0.10634,0 2.15613,-0.74934 6.14937,-2.24802z" data-paper-data="{&quot;origPos&quot;:null}" stroke="#004377" stroke-width="3.5"/><path d="M269.12832,171.93623l0.1015,0.18851l-1.95794,10.38431h0.1015l4.9891,-1.46483v-5.87379c0.01933,-0.13534 0.08217,-0.20301 0.18851,-0.20301c3.75151,0.26106 5.83998,0.39158 6.2654,0.39158c0,0.06767 0.03383,0.1015 0.1015,0.1015c0,1.65337 -0.52212,5.08096 -1.56636,10.28278c0,0.29974 -1.49866,0.52696 -4.49599,0.68166c-0.15467,-0.1837 -0.2852,-0.57529 -0.39158,-1.17477c-3.83853,0.78318 -6.02851,1.17477 -6.56996,1.17477c-3.06501,-2.28185 -4.59752,-3.45661 -4.59752,-3.5243c0.52211,-6.85519 0.85084,-10.41331 0.9862,-10.67437h0.087c2.44622,-0.06767 4.69905,-0.16435 6.75851,-0.29006z" data-paper-data="{&quot;origPos&quot;:null}" stroke="#004377" stroke-width="3.5"/><path d="M287.66342,171.95073c0.29974,1.23761 0.50762,2.00144 0.62364,2.2915c4.27362,-0.97654 6.53129,-1.46481 6.77301,-1.46481c2.91031,4.18659 4.36546,6.37174 4.36546,6.55546l-3.33574,7.07757l-7.1791,-1.14575v0.21751c0.56079,4.30262 0.84119,6.5893 0.84119,6.86004c-0.06767,0 -0.1015,0.03383 -0.1015,0.1015c-0.69615,-0.06767 -1.21827,-0.1015 -1.56636,-0.1015h-1.24728c-0.72516,0 -1.83708,-0.03383 -3.33574,-0.1015c-0.13534,-0.40609 -1.17473,-6.57963 -3.11819,-18.52062c0.32874,-0.13534 2.75561,-0.72513 7.28062,-1.76939zM288.18553,177.88255c0.19339,2.22383 0.36742,3.33574 0.52211,3.33574c1.98211,0.68648 3.19555,1.02972 3.64032,1.02972l1.14575,-4.9891h-0.1015c-1.13124,0.06767 -2.86679,0.27555 -5.20666,0.62364z" data-paper-data="{&quot;origPos&quot;:null}" stroke="#004377" stroke-width="3.5"/><path d="M191.90149,167.55625c3.46144,2.5139 5.47738,4.06575 6.04784,4.65554c-1.11191,3.2874 -1.66787,4.98428 -1.66787,5.09063c0.27073,0.27072 1.00072,1.20377 2.18999,2.79913v0.17401c-1.7984,3.17138 -2.84747,4.92627 -3.1472,5.26468l-12.02317,0.88469c-0.18371,-0.7155 -1.09258,-6.27507 -2.72661,-16.67871zM187.15894,172.03776l0.52212,5.17763c2.55257,-0.6188 3.83852,-0.9717 3.85786,-1.05872c0.11604,-0.29007 0.38193,-1.22795 0.79768,-2.81363zM189.26191,179.0573h-0.95721c-0.1257,0.01933 -0.18855,0.07734 -0.18855,0.17401c-0.05802,1.25694 -0.08703,2.18998 -0.08703,2.79911c-0.05802,0.30941 -0.08703,0.48828 -0.08703,0.53663l4.56851,-0.71066l-0.08703,-0.43511v-0.52211c0,-0.41576 -0.02901,-1.05873 -0.08703,-1.92891c-1.38264,0.058 -2.40754,0.087 -3.07468,0.087z" stroke="none" stroke-width="0.26458"/><path d="M207.85219,171.95073c4.37997,2.25283 6.80685,3.56779 7.28062,3.94488c-0.62847,2.93931 -1.00072,4.45247 -1.11675,4.53949h-9.16604v0.15951l2.56707,3.17619l4.03189,-2.05944c0.39642,0.68648 0.96688,1.88541 1.71138,3.5968c-0.34808,0.116 -2.88614,0.48825 -7.61419,1.11675c-3.91587,-2.58157 -5.88831,-3.92554 -5.91731,-4.03191c0.62847,-5.01812 1.00072,-7.52718 1.11675,-7.52718c4.08991,-1.74039 6.45877,-2.7121 7.10658,-2.91513zM206.90948,175.46051c-0.07735,0.19339 -0.5898,0.96206 -1.53734,2.30602c0,0.40609 0.57046,0.60914 1.71138,0.60914c0,0.058 0.82668,0.1982 2.48005,0.42058c0.45443,-0.62846 0.68165,-0.99588 0.68165,-1.10225c-0.14504,-0.86052 -0.45927,-1.29078 -0.94271,-1.29078z" data-paper-data="{&quot;origPos&quot;:null}" stroke="none" stroke-width="0.26458"/><path d="M216.4526,167.57077c2.95866,0.058 5.12931,0.087 6.51195,0.087c0.12569,0 0.5076,5.93665 1.14575,17.80996c-0.49311,0.12567 -2.21416,0.44474 -5.16315,0.95722c-0.14504,0 -0.62364,-3.63547 -1.43582,-10.90642c-0.06768,-0.17404 -0.4206,-2.82329 -1.05873,-7.94776z" data-paper-data="{&quot;origPos&quot;:null}" stroke="none" stroke-width="0.26458"/><path d="M225.73466,167.57077c2.95866,0.058 5.12931,0.087 6.51195,0.087c0.12569,0 0.5076,5.93665 1.14575,17.80996c-0.49311,0.12567 -2.21416,0.44474 -5.16315,0.95722c-0.14504,0 -0.62364,-3.63547 -1.43582,-10.90642c-0.06768,-0.17404 -0.4206,-2.82329 -1.05873,-7.94776z" data-paper-data="{&quot;origPos&quot;:null}" stroke="none" stroke-width="0.26458"/><path d="M252.26108,167.55625c4.32195,1.68238 6.48293,2.57675 6.48293,2.6831c-1.38264,2.82329 -2.07397,4.29295 -2.07397,4.40899h-0.087c-0.61881,-0.17404 -1.97728,-0.77834 -4.07541,-1.81291l-3.45177,2.42205c0,2.99733 0.1692,4.49599 0.50761,4.49599c0.22239,0.116 1.66788,0.69613 4.33646,1.74039c1.02489,-1.01522 2.06428,-1.99661 3.11819,-2.94416c0.19337,0.17404 1.05873,1.55668 2.59608,4.14793v0.26106c-0.09667,0 -2.23348,1.15542 -6.41043,3.46627c-5.33718,-1.78874 -8.07828,-2.74111 -8.22332,-2.85713l-2.59608,-8.5714c2.43653,-3.46144 3.67898,-5.19215 3.72733,-5.19215c0.10634,0 2.15613,-0.74934 6.14937,-2.24802z" data-paper-data="{&quot;origPos&quot;:null}" stroke="none" stroke-width="0.26458"/><path d="M269.12832,171.93623l0.1015,0.18851l-1.95794,10.38431h0.1015l4.9891,-1.46483v-5.87379c0.01933,-0.13534 0.08217,-0.20301 0.18851,-0.20301c3.75151,0.26106 5.83998,0.39158 6.2654,0.39158c0,0.06767 0.03383,0.1015 0.1015,0.1015c0,1.65337 -0.52212,5.08096 -1.56636,10.28278c0,0.29974 -1.49866,0.52696 -4.49599,0.68166c-0.15467,-0.1837 -0.2852,-0.57529 -0.39158,-1.17477c-3.83853,0.78318 -6.02851,1.17477 -6.56996,1.17477c-3.06501,-2.28185 -4.59752,-3.45661 -4.59752,-3.5243c0.52211,-6.85519 0.85084,-10.41331 0.9862,-10.67437h0.087c2.44622,-0.06767 4.69905,-0.16435 6.75851,-0.29006z" data-paper-data="{&quot;origPos&quot;:null}" stroke="none" stroke-width="0.26458"/><path d="M287.66342,171.95073c0.29974,1.23761 0.50762,2.00144 0.62364,2.2915c4.27362,-0.97654 6.53129,-1.46481 6.77301,-1.46481c2.91031,4.18659 4.36546,6.37174 4.36546,6.55546l-3.33574,7.07757l-7.1791,-1.14575v0.21751c0.56079,4.30262 0.84119,6.5893 0.84119,6.86004c-0.06767,0 -0.1015,0.03383 -0.1015,0.1015c-0.69615,-0.06767 -1.21827,-0.1015 -1.56636,-0.1015h-1.24728c-0.72516,0 -1.83708,-0.03383 -3.33574,-0.1015c-0.13534,-0.40609 -1.17473,-6.57963 -3.11819,-18.52062c0.32874,-0.13534 2.75561,-0.72513 7.28062,-1.76939zM288.18553,177.88255c0.19339,2.22383 0.36742,3.33574 0.52211,3.33574c1.98211,0.68648 3.19555,1.02972 3.64032,1.02972l1.14575,-4.9891h-0.1015c-1.13124,0.06767 -2.86679,0.27555 -5.20666,0.62364z" data-paper-data="{&quot;origPos&quot;:null}" stroke="none" stroke-width="0.26458"/></g></g></g></svg>