<svg version="1.1" xmlns="http://www.w3.org/2000/svg" xmlns:xlink="http://www.w3.org/1999/xlink" width="122.20156" height="152.55975" viewBox="0,0,122.20156,152.55975"><defs><linearGradient x1="180.98769" y1="247.16668" x2="300.14667" y2="247.16668" gradientUnits="userSpaceOnUse" id="color-1"><stop offset="0" stop-color="#7481a6"/><stop offset="1" stop-color="#596486"/></linearGradient><linearGradient x1="240.63433" y1="217.00001" x2="240.63433" y2="250.00001" gradientUnits="userSpaceOnUse" id="color-2"><stop offset="0" stop-color="#7481a6"/><stop offset="1" stop-color="#939fc4"/></linearGradient><linearGradient x1="246.01308" y1="147.80308" x2="246.01308" y2="212.93334" gradientUnits="userSpaceOnUse" id="color-3"><stop offset="0" stop-color="#e5e5e5"/><stop offset="1" stop-color="#ffffff"/></linearGradient></defs><g transform="translate(-177.94514,-112.44026)"><g data-paper-data="{&quot;isPaintingLayer&quot;:true}" fill-rule="nonzero" stroke-linejoin="miter" stroke-miterlimit="10" stroke-dasharray="" stroke-dashoffset="0" style="mix-blend-mode: normal"><path d="M181.13433,248.50002c0,-9.1127 -0.14663,-14.80793 -0.14663,-14.80793l58.97996,-4.35874l60.17904,4.98195c0,0 -0.01237,11.12286 -0.01237,14.18471c0,9.1127 -26.63905,16.5 -59.5,16.5c-32.86095,0 -59.5,-7.3873 -59.5,-16.5z" data-paper-data="{&quot;origPos&quot;:null,&quot;index&quot;:null}" fill="url(#color-1)" stroke="none" stroke-width="0" stroke-linecap="butt"/><path d="M240.63433,217.00001c32.86094,0 59.5,7.3873 59.5,16.5c0,9.1127 -26.63906,16.5 -59.5,16.5c-32.86094,0 -59.5,-7.3873 -59.5,-16.5c0,-9.1127 26.63906,-16.5 59.5,-16.5z" data-paper-data="{&quot;origPos&quot;:null,&quot;index&quot;:null}" fill="url(#color-2)" stroke="none" stroke-width="0" stroke-linecap="butt"/><path d="M262.38809,210.70983c-1.11803,-2.23607 1.11803,-3.3541 1.11803,-3.3541l0.18424,-0.01782c2.85296,-2.06838 2.91252,-6.94977 1.61405,-10.14736c-2.83641,-6.98493 -10.66265,-11.32251 -17.47083,-13.56038c0,0 -2.37171,-0.79057 -1.58114,-3.16228c0.79057,-2.37171 3.16228,-1.58114 3.16228,-1.58114c11.33296,3.82265 24.20373,12.98342 20.98186,26.58684c-0.51442,2.17198 -1.84388,4.21485 -3.5053,5.70542l-1.14909,0.64885c0,0 -2.23607,1.11803 -3.3541,-1.11803z" fill="#000000" stroke="none" stroke-width="0.5" stroke-linecap="butt"/><path d="M226.60581,196.75555c0,0 -0.5,-5.79251 -0.5,-9.5c0,-3.31724 0.5,-8.5 0.5,-8.5c0,0 4.87789,-0.75 8,-0.75c3.12211,0 8,0.75 8,0.75c0,0 0.75,5.03033 0.75,8.25c0,3.80507 -0.75,9.75 -0.75,9.75c0,0 -4.87789,1 -8,1c-3.12211,0 -8,-1 -8,-1z" data-paper-data="{&quot;origPos&quot;:null}" fill="#e6e6e6" stroke="none" stroke-width="NaN" stroke-linecap="butt"/><path d="M277.40112,235.68969c-3.03366,0 -5.49291,-2.54709 -5.49291,-5.68909c0,-3.142 2.45925,-5.68909 5.49291,-5.68909c3.03366,0 5.49292,2.54709 5.49292,5.68909c0,3.14199 -2.45926,5.68909 -5.49292,5.68909z" data-paper-data="{&quot;origPos&quot;:null}" fill="#000000" stroke="#000000" stroke-width="2.5" stroke-linecap="butt"/><path d="M212.27089,235.68969c-3.03366,0 -5.49292,-2.54709 -5.49292,-5.68909c0,-3.142 2.45926,-5.68909 5.49292,-5.68909c3.03366,0 5.49292,2.54709 5.49292,5.68909c0,3.14199 -2.45926,5.68909 -5.49292,5.68909z" data-paper-data="{&quot;origPos&quot;:null}" fill="#000000" stroke="#000000" stroke-width="2.5" stroke-linecap="butt"/><path d="M242.48192,240.00555c-3.03365,0 -5.49292,-2.54709 -5.49292,-5.68909c0,-3.142 2.45927,-5.68909 5.49292,-5.68909c3.03365,0 5.49291,2.54709 5.49291,5.68909c0,3.142 -2.45926,5.68909 -5.49291,5.68909z" data-paper-data="{&quot;origPos&quot;:null}" fill="#000000" stroke="#000000" stroke-width="2.5" stroke-linecap="butt"/><path d="M245.36356,222.34976c21.59428,0 39.09991,3.51323 39.09991,7.84702c0,4.33379 -17.50563,7.84702 -39.09991,7.84702c-21.59429,0 -39.09992,-3.51323 -39.09992,-7.84702c0,-4.33378 17.50564,-7.84702 39.09992,-7.84702z" data-paper-data="{&quot;origPos&quot;:null}" fill="#000000" stroke="none" stroke-width="0" stroke-linecap="butt"/><path d="M245.36356,219.21095c21.59428,0 39.09991,3.51323 39.09991,7.84702c0,4.33379 -17.50563,7.84702 -39.09991,7.84702c-21.59429,0 -39.09992,-3.51323 -39.09992,-7.84702c0,-4.33378 17.50564,-7.84702 39.09992,-7.84702z" data-paper-data="{&quot;origPos&quot;:null}" fill="#ffffff" stroke="none" stroke-width="0" stroke-linecap="butt"/><path d="M205.99328,227.45032v-12.94758h78.47019v12.94758z" data-paper-data="{&quot;origPos&quot;:null}" fill="#ffffff" stroke="none" stroke-width="0" stroke-linecap="butt"/><path d="M245.48554,206.26338c21.59429,0 39.09992,3.51322 39.09992,7.84701c0,4.33379 -17.50563,7.84702 -39.09992,7.84702c-21.59429,0 -39.09992,-3.51323 -39.09992,-7.84702c0,-4.33378 17.50563,-7.84701 39.09992,-7.84701z" data-paper-data="{&quot;origPos&quot;:null}" fill="#e6e6e6" stroke="none" stroke-width="0" stroke-linecap="butt"/><path d="M270.45887,213.15045c0,2.30119 -10.74517,4.16667 -24,4.16667c-13.25483,0 -24,-1.86548 -24,-4.16667c0,-2.30119 10.74517,-4.16667 24,-4.16667c13.25483,0 24,1.86548 24,4.16667z" data-paper-data="{&quot;origPos&quot;:null}" fill="#ffffff" stroke="none" stroke-width="0" stroke-linecap="butt"/><path d="M235.81194,212.93334v-65.13026h20.40225v65.13026z" data-paper-data="{&quot;origPos&quot;:null}" fill="url(#color-3)" stroke="none" stroke-width="NaN" stroke-linecap="butt"/><g data-paper-data="{&quot;origPos&quot;:null}" fill="#ff0000" stroke="none" stroke-width="0" stroke-linecap="butt"><path d="M194.6151,190.04147v-9.02407h38.05805v9.02407z" data-paper-data="{&quot;origPos&quot;:null}"/><path d="M197.65666,177.66658l-1.04485,17.71151l-18.61341,1.17145l-0.05326,-20.92781z" data-paper-data="{&quot;origPos&quot;:null}"/></g><path d="M232.35519,113.28284c0.67118,0.5202 1.08687,1.23889 1.08687,2.03218c0,0.7933 -0.41569,1.51198 -1.08687,2.03218c-0.67118,0.5202 -1.59784,0.84258 -2.62085,0.84258c-1.02301,0 -1.94966,-0.32238 -2.62084,-0.84258c-0.67118,-0.5202 -1.08688,-1.23888 -1.08688,-2.03218c0,-0.7933 0.4157,-1.51199 1.08688,-2.03218c0.67118,-0.5202 1.59783,-0.84258 2.62084,-0.84258c1.02301,0 1.94967,0.32239 2.62085,0.84258z" data-paper-data="{&quot;origPos&quot;:null,&quot;index&quot;:null}" fill="#ff0000" stroke="none" stroke-width="1" stroke-linecap="butt"/><path d="M224.58105,115.60026h12.24135" data-paper-data="{&quot;origPos&quot;:null,&quot;index&quot;:null}" fill="none" stroke="#e5e5e5" stroke-width="2" stroke-linecap="round"/><path d="M281.50723,147.77304h-70.98837v-30.99572h70.98837z" data-paper-data="{&quot;origPos&quot;:null,&quot;index&quot;:null}" fill="#ffffff" stroke="#ffffff" stroke-width="2.17374" stroke-linecap="butt"/><path d="M244.87746,121.02458c2.43219,1.73216 1.99008,7.3525 1.85441,11.19403c0.13567,3.94565 0.52889,9.56063 -1.85441,11.41091c-4.57984,3.56519 -10.25401,2.68277 -15.435,2.68068c-5.20579,0.00211 -10.92949,0.97441 -15.50791,-2.68068c-2.31401,-1.85028 -1.97188,-7.65274 -2.00036,-11.79031c0.02848,-3.63994 -0.32754,-9.02393 2.00036,-10.81463c4.46095,-3.42749 10.01036,-1.81134 15.03371,-1.81355c5.31455,0.00222 11.12143,-1.60426 15.90921,1.81355z" data-paper-data="{&quot;origPos&quot;:null,&quot;index&quot;:null}" fill="#000000" stroke="none" stroke-width="0.92967" stroke-linecap="butt"/><path d="M239.62003,129.10507c0.81452,0.95367 1.31838,2.27029 1.31838,3.72314c0,1.45296 -0.50386,2.76956 -1.31838,3.72313c-0.8146,0.95365 -1.93923,1.54353 -3.18031,1.54353c-1.24101,0 -2.36564,-0.58987 -3.18024,-1.54353c-0.81452,-0.95357 -1.31838,-2.27019 -1.31838,-3.72313c0,-1.45286 0.50386,-2.76948 1.31838,-3.72314c0.8146,-0.95357 1.93924,-1.54344 3.18024,-1.54344c1.24108,0 2.36571,0.58987 3.18031,1.54344z" data-paper-data="{&quot;origPos&quot;:null,&quot;index&quot;:null}" fill="#a6a1b9" stroke="none" stroke-width="0.76439" stroke-linecap="butt"/><path d="M225.33846,129.33472c0.81452,0.95367 1.31838,2.27029 1.31838,3.72314c0,1.45296 -0.50386,2.76956 -1.31838,3.72313c-0.8146,0.95365 -1.93923,1.54353 -3.18031,1.54353c-1.24101,0 -2.36564,-0.58987 -3.18024,-1.54353c-0.81452,-0.95357 -1.31838,-2.27019 -1.31838,-3.72313c0,-1.45286 0.50386,-2.76949 1.31838,-3.72314c0.8146,-0.95357 1.93923,-1.54344 3.18024,-1.54344c1.24108,0 2.36571,0.58987 3.18031,1.54344z" data-paper-data="{&quot;origPos&quot;:null,&quot;index&quot;:null}" fill="#a6a1b9" stroke="none" stroke-width="0.76439" stroke-linecap="butt"/><path d="M252.18389,148.63903h-2.15793v-32.72206h2.15793z" data-paper-data="{&quot;origPos&quot;:null,&quot;index&quot;:null}" fill="#e5e5e5" stroke="none" stroke-width="0.77565" stroke-linecap="butt"/><path d="M276.91535,127.34803c2.18068,1.10093 3.53037,2.62169 3.53037,4.29938c0,1.6777 -1.34969,3.19845 -3.53037,4.29939c-2.18068,1.10093 -5.19158,1.78205 -8.5148,1.78205c-3.32322,0 -6.33412,-0.68112 -8.5148,-1.78205c-2.18068,-1.10093 -3.53037,-2.62169 -3.53037,-4.29939c0,-1.67769 1.34969,-3.19845 3.53037,-4.29938c2.18068,-1.10094 5.19159,-1.78206 8.5148,-1.78206c3.32322,0 6.33411,0.68112 8.5148,1.78206z" data-paper-data="{&quot;origPos&quot;:null,&quot;index&quot;:null}" fill="none" stroke="#e5e5e5" stroke-width="2" stroke-linecap="butt"/><path d="M273.57957,126.86073v9.69107" data-paper-data="{&quot;origPos&quot;:null,&quot;index&quot;:null}" fill="none" stroke="#e5e5e5" stroke-width="2" stroke-linecap="round"/><path d="M268.479,137.65038v-11.57435" data-paper-data="{&quot;origPos&quot;:null,&quot;index&quot;:null}" fill="none" stroke="#e5e5e5" stroke-width="2" stroke-linecap="round"/><path d="M263.26072,126.66456v10.00495" data-paper-data="{&quot;origPos&quot;:null,&quot;index&quot;:null}" fill="none" stroke="#e5e5e5" stroke-width="2" stroke-linecap="round"/><path d="M208.34738,191.39558v-16.47874h76.50843v16.47874z" data-paper-data="{&quot;origPos&quot;:null}" fill="#ffffff" stroke="none" stroke-width="0" stroke-linecap="butt"/><path d="M232.2808,188.25677v-9.02407h38.05804v9.02407z" data-paper-data="{&quot;origPos&quot;:null}" fill="#ff0000" stroke="none" stroke-width="0" stroke-linecap="butt"/><path d="M271.51588,219.99565v7.45467" data-paper-data="{&quot;origPos&quot;:null}" fill="none" stroke="#c9c9c9" stroke-width="2.5" stroke-linecap="round"/><path d="M247.0742,234.51264v-9.02407l5.21648,-4.31586" data-paper-data="{&quot;origPos&quot;:null}" fill="none" stroke="#e6e6e6" stroke-width="1.5" stroke-linecap="round"/><path d="M236.989,234.12029v-9.02407l5.21649,-4.31586" data-paper-data="{&quot;origPos&quot;:null}" fill="none" stroke="#e6e6e6" stroke-width="1.5" stroke-linecap="round"/><path d="M215.07086,231.37384v-9.02408l3.47765,-4.31586" data-paper-data="{&quot;origPos&quot;:null}" fill="none" stroke="#e6e6e6" stroke-width="1.5" stroke-linecap="round"/><path d="M208.34738,229.01972v-9.02407l3.47765,-4.31586" data-paper-data="{&quot;origPos&quot;:null}" fill="none" stroke="#e6e6e6" stroke-width="1.5" stroke-linecap="round"/><path d="M226.78788,220.78036v7.45467" data-paper-data="{&quot;origPos&quot;:null}" fill="none" stroke="#c9c9c9" stroke-width="2.5" stroke-linecap="round"/><path d="M269.8558,192.33888c0,0 -0.5,-5.79251 -0.5,-9.5c0,-3.31724 0.5,-8.5 0.5,-8.5c0,0 4.8779,-0.75 8,-0.75c3.1221,0 8,0.75 8,0.75c0,0 0.75,5.03033 0.75,8.25c0,3.80507 -0.75,9.75 -0.75,9.75c0,0 -4.8779,1 -8,1c-3.1221,0 -8,-1 -8,-1z" data-paper-data="{&quot;origPos&quot;:null}" fill="#e6e6e6" stroke="none" stroke-width="NaN" stroke-linecap="butt"/><path d="M241.02086,219.73191l-23.24737,-2.80915" data-paper-data="{&quot;origPos&quot;:null,&quot;origRot&quot;:0}" fill="none" stroke="#ff0000" stroke-width="1.5" stroke-linecap="round"/><path d="M238.32331,174.99991l-1.04485,17.71151l-18.61342,1.17145l-0.05325,-20.92781z" fill="#ff0000" stroke="none" stroke-width="0" stroke-linecap="butt"/></g></g></svg>