<svg version="1.1" xmlns="http://www.w3.org/2000/svg" xmlns:xlink="http://www.w3.org/1999/xlink" width="9.25033" height="18.01176" viewBox="0,0,9.25033,18.01176"><defs><radialGradient cx="236.2353" cy="188.09785" r="0.45587" gradientUnits="userSpaceOnUse" id="color-1"><stop offset="0" stop-color="#b4a093" stop-opacity="0.88295"/><stop offset="1" stop-color="#b4a093" stop-opacity="0"/></radialGradient><radialGradient cx="243.76471" cy="188.09785" r="0.45588" gradientUnits="userSpaceOnUse" id="color-2"><stop offset="0" stop-color="#b4a093" stop-opacity="0.88295"/><stop offset="1" stop-color="#b4a093" stop-opacity="0"/></radialGradient><radialGradient cx="236.2353" cy="171.89197" r="0.45587" gradientUnits="userSpaceOnUse" id="color-3"><stop offset="0" stop-color="#b4a093" stop-opacity="0.88295"/><stop offset="1" stop-color="#b4a093" stop-opacity="0"/></radialGradient><radialGradient cx="243.76471" cy="171.89197" r="0.45588" gradientUnits="userSpaceOnUse" id="color-4"><stop offset="0" stop-color="#b4a093" stop-opacity="0.88295"/><stop offset="1" stop-color="#b4a093" stop-opacity="0"/></radialGradient></defs><g transform="translate(-235.37483,-170.99412)"><g data-paper-data="{&quot;isPaintingLayer&quot;:true}" fill-rule="nonzero" stroke-linecap="butt" stroke-linejoin="miter" stroke-miterlimit="10" stroke-dasharray="" stroke-dashoffset="0" style="mix-blend-mode: normal"><g><path d="M244.37413,171.25463l-0.07247,17.50096l-8.67579,-0.01021l0.07247,-17.50096z" data-paper-data="{&quot;origRot&quot;:0,&quot;index&quot;:null}" fill="#dfd5cf" stroke="#b19f90" stroke-width="0.5"/><g><g fill="none" stroke="none" stroke-width="1" font-family="sans-serif" font-weight="normal" font-size="12" text-anchor="start"><g><g/></g></g><g><path d="M236.71015,180.06199v-7.68646h6.57971v7.68646z" fill="#fffff4" stroke="#c3bdb6" stroke-width="0.25"/><g fill="#e84256" stroke="none" stroke-width="0"><g><path d="M242.43112,179.61698l-4.78487,-3.42607l2.55395,0.02146l2.23092,1.49765z"/><path d="M242.43112,174.69642l-2.23092,1.49764l-2.55395,0.02147l4.78487,-3.42607z" data-paper-data="{&quot;index&quot;:null}"/><path d="M240.20603,176.43183h-1.41381v-0.46155h1.41381z"/></g><path d="M238.03431,176.4102v-0.32119h1.43689v0.32119z"/></g></g><g><path d="M236.71015,187.69629v-7.68646h6.57971v7.68646z" fill="#fffff4" stroke="#c3bdb6" stroke-width="0.25"/><g fill="#e84256" stroke="none" stroke-width="0"><g><path d="M242.43112,187.25128l-4.78487,-3.42607l2.55395,0.02146l2.23092,1.49765z"/><path d="M242.43112,182.33072l-2.23092,1.49764l-2.55395,0.02147l4.78487,-3.42606z" data-paper-data="{&quot;index&quot;:null}"/><path d="M240.20603,184.06613h-1.41381v-0.46155h1.41381z"/></g><path d="M238.03431,184.0445v-0.32119h1.43689v0.32119z"/></g></g></g><g stroke="none" stroke-width="0.5"><g><path d="M235.77942,188.09785c0,-0.25178 0.20411,-0.45588 0.45588,-0.45588c0.25178,0 0.45587,0.20411 0.45587,0.45588c0,0.25178 -0.2041,0.45588 -0.45587,0.45588c-0.25178,0 -0.45588,-0.2041 -0.45588,-0.45588z" fill="url(#color-1)"/><path d="M235.9853,188.09785c0,-0.13807 0.11193,-0.25 0.25,-0.25c0.13807,0 0.25,0.11193 0.25,0.25c0,0.13807 -0.11193,0.25 -0.25,0.25c-0.13807,0 -0.25,-0.11193 -0.25,-0.25z" fill="#d8cec9"/></g><g><path d="M243.30883,188.09785c0,-0.25178 0.20411,-0.45588 0.45588,-0.45588c0.25178,0 0.45588,0.20411 0.45588,0.45588c0,0.25178 -0.2041,0.45588 -0.45588,0.45588c-0.25178,0 -0.45588,-0.2041 -0.45588,-0.45588z" fill="url(#color-2)"/><path d="M243.51471,188.09785c0,-0.13807 0.11193,-0.25 0.25,-0.25c0.13807,0 0.25,0.11193 0.25,0.25c0,0.13807 -0.11193,0.25 -0.25,0.25c-0.13807,0 -0.25,-0.11193 -0.25,-0.25z" fill="#d8cec9"/></g></g><g stroke="none" stroke-width="0.5"><g><path d="M235.77942,171.89197c0,-0.25178 0.20411,-0.45588 0.45588,-0.45588c0.25178,0 0.45587,0.20411 0.45587,0.45588c0,0.25178 -0.2041,0.45588 -0.45587,0.45588c-0.25178,0 -0.45588,-0.2041 -0.45588,-0.45588z" fill="url(#color-3)"/><path d="M235.9853,171.89197c0,-0.13807 0.11193,-0.25 0.25,-0.25c0.13807,0 0.25,0.11193 0.25,0.25c0,0.13807 -0.11193,0.25 -0.25,0.25c-0.13807,0 -0.25,-0.11193 -0.25,-0.25z" fill="#d8cec9"/></g><g><path d="M243.30883,171.89197c0,-0.25178 0.20411,-0.45588 0.45588,-0.45588c0.25178,0 0.45588,0.20411 0.45588,0.45588c0,0.25178 -0.2041,0.45588 -0.45588,0.45588c-0.25178,0 -0.45588,-0.2041 -0.45588,-0.45588z" fill="url(#color-4)"/><path d="M243.51471,171.89197c0,-0.13807 0.11193,-0.25 0.25,-0.25c0.13807,0 0.25,0.11193 0.25,0.25c0,0.13807 -0.11193,0.25 -0.25,0.25c-0.13807,0 -0.25,-0.11193 -0.25,-0.25z" fill="#d8cec9"/></g></g><path d="M236.48333,187.86876v-15.675h7.03333v15.675z" fill="none" stroke-opacity="0.21799" stroke="#75726d" stroke-width="0.25"/></g></g></g></svg>