<svg version="1.1" xmlns="http://www.w3.org/2000/svg" xmlns:xlink="http://www.w3.org/1999/xlink" width="96.53415" height="91.16516" viewBox="0,0,96.53415,91.16516"><defs><radialGradient cx="239.51245" cy="180.2495" r="54.4155" gradientUnits="userSpaceOnUse" id="color-1"><stop offset="0" stop-color="#000000" stop-opacity="0"/><stop offset="1" stop-color="#000000"/></radialGradient><radialGradient cx="239.61685" cy="148.2484" r="95.2331" gradientUnits="userSpaceOnUse" id="color-2"><stop offset="0" stop-color="#ffffff"/><stop offset="1" stop-color="#ffffff" stop-opacity="0"/></radialGradient><linearGradient x1="198.65495" y1="137.7454" x2="198.65495" y2="220.4855" gradientUnits="userSpaceOnUse" id="color-3"><stop offset="0" stop-color="#000000" stop-opacity="0"/><stop offset="1" stop-color="#000000" stop-opacity="0"/></linearGradient><radialGradient cx="242.77197" cy="140.83988" r="103.53931" gradientUnits="userSpaceOnUse" id="color-4"><stop offset="0" stop-color="#ffffff"/><stop offset="1" stop-color="#b2b2b2"/></radialGradient><linearGradient x1="208.43395" y1="204.7546" x2="208.43395" y2="222.2546" gradientUnits="userSpaceOnUse" id="color-5"><stop offset="0" stop-color="#ffffff" stop-opacity="0"/><stop offset="1" stop-color="#ffffff"/></linearGradient><linearGradient x1="198.60495" y1="138.8954" x2="198.60495" y2="221.6355" gradientUnits="userSpaceOnUse" id="color-6"><stop offset="0" stop-color="#000000" stop-opacity="0"/><stop offset="1" stop-color="#000000" stop-opacity="0"/></linearGradient><radialGradient cx="241.0589" cy="140.78187" r="105.10971" gradientUnits="userSpaceOnUse" id="color-7"><stop offset="0" stop-color="#b2b2b2"/><stop offset="1" stop-color="#666666"/></radialGradient><radialGradient cx="271.7972" cy="154.0865" r="24.01251" gradientUnits="userSpaceOnUse" id="color-8"><stop offset="0" stop-color="#000000" stop-opacity="0"/><stop offset="1" stop-color="#000000"/></radialGradient><radialGradient cx="271.84326" cy="139.96504" r="42.02453" gradientUnits="userSpaceOnUse" id="color-9"><stop offset="0" stop-color="#ffffff"/><stop offset="1" stop-color="#ffffff" stop-opacity="0"/></radialGradient><linearGradient x1="253.76757" y1="135.33027" x2="253.76757" y2="171.84188" gradientUnits="userSpaceOnUse" id="color-10"><stop offset="0" stop-color="#000000" stop-opacity="0"/><stop offset="1" stop-color="#000000" stop-opacity="0"/></linearGradient><radialGradient cx="273.23556" cy="136.6958" r="45.68989" gradientUnits="userSpaceOnUse" id="color-11"><stop offset="0" stop-color="#ffffff"/><stop offset="1" stop-color="#b2b2b2"/></radialGradient><linearGradient x1="253.74551" y1="135.83773" x2="253.74551" y2="172.34935" gradientUnits="userSpaceOnUse" id="color-12"><stop offset="0" stop-color="#000000" stop-opacity="0"/><stop offset="1" stop-color="#000000" stop-opacity="0"/></linearGradient><radialGradient cx="272.47962" cy="136.6702" r="46.38288" gradientUnits="userSpaceOnUse" id="color-13"><stop offset="0" stop-color="#b2b2b2"/><stop offset="1" stop-color="#666666"/></radialGradient></defs><g transform="translate(-196.17499,-132.9003)"><g data-paper-data="{&quot;isPaintingLayer&quot;:true}" fill-rule="nonzero" stroke-linejoin="miter" stroke-miterlimit="10" stroke-dasharray="" stroke-dashoffset="0" style="mix-blend-mode: normal"><g data-paper-data="{&quot;origPos&quot;:null}"><path d="M240.44555,139.5046c11.291,0 21.522,4.586 28.931,11.994c7.408,7.409 11.994,17.64 11.994,28.931c0,11.291 -4.586,21.522 -11.994,28.931c-7.409,7.408 -17.64,11.994 -28.931,11.994c-11.291,0 -21.522,-4.586 -28.931,-11.994c-7.408,-7.409 -11.994,-17.64 -11.994,-28.931c0,-11.291 4.586,-21.522 11.994,-28.931c7.409,-7.408 17.64,-11.994 28.931,-11.994z" fill="url(#color-1)" stroke="none" stroke-width="1" stroke-linecap="butt"/><path d="M240.19555,146.3546c10.367,0 19.76,4.21 26.562,11.013c6.803,6.802 11.013,16.195 11.013,26.562c0,10.367 -4.21,19.76 -11.013,26.562c-6.802,6.803 -16.195,11.013 -26.562,11.013c-10.367,0 -19.76,-4.21 -26.562,-11.013c-6.803,-6.802 -11.013,-16.195 -11.013,-26.562c0,-10.367 4.21,-19.76 11.013,-26.562c6.802,-6.803 16.195,-11.013 26.562,-11.013z" fill="url(#color-2)" stroke="none" stroke-width="1" stroke-linecap="butt"/><path d="M240.02495,137.7454c11.4135,0 21.7567,4.6352 29.2458,12.1243c7.4891,7.4892 12.1243,17.8323 12.1243,29.2458c0,11.4135 -4.6352,21.7566 -12.1243,29.2457c-7.4891,7.4892 -17.8323,12.1243 -29.2458,12.1243c-11.4135,0 -21.7566,-4.6351 -29.2457,-12.1243c-7.4892,-7.4891 -12.1243,-17.8322 -12.1243,-29.2457c0,-11.4135 4.6351,-21.7566 12.1243,-29.2458c7.4891,-7.4891 17.8322,-12.1243 29.2457,-12.1243z" fill="url(#color-3)" stroke="url(#color-4)" stroke-width="4.85992" stroke-linecap="round"/><path d="M208.43385,204.7546h63.45l-9.9865,11.62l-22.0411,5.88l-24.462,-7.98z" fill="url(#color-5)" stroke="none" stroke-width="1.22016" stroke-linecap="round"/><path d="M239.97495,138.8954c11.4135,0 21.7567,4.6352 29.2458,12.1243c7.4891,7.4892 12.1243,17.8323 12.1243,29.2458c0,11.4135 -4.6352,21.7566 -12.1243,29.2457c-7.4891,7.4892 -17.8323,12.1243 -29.2458,12.1243c-11.4135,0 -21.7566,-4.6351 -29.2457,-12.1243c-7.4892,-7.4891 -12.1243,-17.8322 -12.1243,-29.2457c0,-11.4135 4.6351,-21.7566 12.1243,-29.2458c7.4891,-7.4891 17.8322,-12.1243 29.2457,-12.1243z" fill="url(#color-6)" stroke="url(#color-7)" stroke-width="4.85992" stroke-linecap="round"/></g><g stroke="none"><g><path d="M253.8853,170.05646c-0.2211,3.53522 -2.96985,6.34533 -14.39481,6.54731c-11.01745,-0.07367 -13.21151,-4.12272 -13.45309,-6.92445c-0.24158,-2.80173 1.2333,-13.91843 13.64545,-13.85931c13.11947,0.06249 14.44667,10.33165 14.20245,14.23645z" fill="#ff1919" stroke-width="0.93172" stroke-linecap="round"/><path d="M236.10975,165.32501c0,-2.83061 1.58976,-5.10854 5.77225,-5.12527c3.85025,-0.0154 5.77225,2.29467 5.77225,5.12527c0,2.83061 -1.19247,5.06972 -5.77225,5.12527c-3.71777,0.04509 -5.77225,-2.29467 -5.77225,-5.12527z" fill="#ffffff" stroke-width="0" stroke-linecap="butt"/><path d="M233.73477,168.10531c0.32893,1.54403 0.00208,3.00463 -2.32286,3.62596c-2.16619,0.5789 -3.70645,-0.37483 -4.03539,-1.91886c-0.32893,-1.54403 0.39791,-3.24164 2.46688,-3.81539c2.41315,-0.66919 3.56244,0.56426 3.89138,2.10828z" fill="#ffffff" stroke-width="0" stroke-linecap="butt"/><path d="M233.48771,162.15725c-3.69087,1.41187 -5.10943,-0.9186 -5.10943,-0.9186c0,0 1.32799,-2.58628 3.70312,-3.77643c3.04459,-1.52561 4.97372,-1.50486 4.97372,-1.50486c0,0 0.72525,4.55782 -3.56742,6.1999z" fill="#ffffff" stroke-width="0" stroke-linecap="butt"/><path d="M248.7461,161.67596c-2.6424,-1.75297 -2.19622,-4.60986 -2.19622,-4.60986c0,0 1.63183,0.47862 3.63273,2.27409c2.02995,1.82153 2.25788,3.29965 2.25788,3.29965c0,0 -1.40916,0.55216 -3.69441,-0.96388z" fill="#ffffff" stroke-width="0" stroke-linecap="butt"/><path d="M250.87943,174.59974c0,0 -1.6306,-1.92846 -0.37323,-4.03135c1.4795,-2.4744 3.45639,-1.53707 3.45639,-1.53707c0,0 0.22457,1.97356 -0.73034,3.52582c-0.89217,1.45025 -2.3528,2.04259 -2.3528,2.04259z" fill="#ffffff" stroke-width="0" stroke-linecap="butt"/></g><path d="M248.34719,176.5583c-0.03086,1.93462 -0.35518,4.05448 -8.6728,4.18107c-8.31926,0.12661 -7.99038,-2.67305 -8.03541,-4.42565c-0.06248,-2.43159 1.61033,-4.5629 8.15521,-4.56382c7.50276,0.05687 8.58779,2.62716 8.55299,4.80839z" fill="#ffdea8" stroke-width="1" stroke-linecap="butt"/><g stroke-width="0" stroke-linecap="butt"><path d="M242.24778,173.52345c0.75079,0 0.99767,0.74994 0.99767,2.51139c0,1.69904 -0.31347,2.51139 -0.99767,2.51139c-0.68419,0 -0.99768,-0.87476 -0.99768,-2.51139c0,-1.76146 0.24688,-2.51139 0.99768,-2.51139z" fill="#000000"/><path d="M241.71866,174.68856c0,-0.57663 0.19668,-0.70007 0.43927,-0.70007c0.2426,0 0.45106,0.13426 0.43925,0.71077c-0.0107,0.5231 -0.07945,0.74025 -0.43925,0.74025c-0.38122,0 -0.43927,-0.25997 -0.43927,-0.75095z" fill="#ffffff"/></g><g stroke-width="0" stroke-linecap="butt"><path d="M237.62549,173.53652c0.75079,0 0.99767,0.74994 0.99767,2.51139c0,1.69904 -0.31347,2.51139 -0.99767,2.51139c-0.6842,0 -0.99767,-0.87476 -0.99767,-2.51139c0,-1.76146 0.24688,-2.51139 0.99767,-2.51139z" fill="#000000"/><path d="M237.09637,174.70163c0,-0.57662 0.19667,-0.70007 0.43926,-0.70007c0.2426,0 0.45106,0.13427 0.43926,0.71077c-0.0107,0.5231 -0.07946,0.74025 -0.43926,0.74025c-0.38122,0 -0.43926,-0.25997 -0.43926,-0.75095z" fill="#ffffff"/></g></g><g stroke="none"><g><path d="M269.78437,190.16036c-0.25385,4.0588 -3.4097,7.28511 -16.52676,7.517c-12.6492,-0.08459 -15.16821,-4.73333 -15.44557,-7.95c-0.27737,-3.21668 1.41596,-15.97983 15.66642,-15.91196c15.06254,0.07174 16.58631,11.86183 16.30592,16.34496z" fill="#ff1919" stroke-width="0.93172" stroke-linecap="round"/><path d="M249.37616,184.72815c0,-3.24985 1.8252,-5.86514 6.62716,-5.88436c4.42049,-0.01768 6.62715,2.63452 6.62715,5.88436c0,3.24985 -1.36909,5.82058 -6.62715,5.88435c-4.26839,0.05176 -6.62716,-2.63452 -6.62716,-5.88435z" fill="#ffffff" stroke-width="0" stroke-linecap="butt"/><path d="M246.64943,187.92023c0.37764,1.77271 0.00238,3.44963 -2.66689,4.16299c-2.48701,0.66464 -4.2554,-0.43035 -4.63305,-2.20305c-0.37764,-1.77271 0.45684,-3.72175 2.83223,-4.38047c2.77055,-0.7683 4.09007,0.64783 4.46771,2.42053z" fill="#ffffff" stroke-width="0" stroke-linecap="butt"/><path d="M246.36578,181.09122c-4.23752,1.62097 -5.86616,-1.05466 -5.86616,-1.05466c0,0 1.52468,-2.96932 4.25157,-4.33573c3.49552,-1.75156 5.71037,-1.72775 5.71037,-1.72775c0,0 0.83266,5.23286 -4.09577,7.11814z" fill="#ffffff" stroke-width="0" stroke-linecap="butt"/><path d="M263.88402,180.53864c-3.03376,-2.01259 -2.52148,-5.29261 -2.52148,-5.29261c0,0 1.87352,0.54951 4.17077,2.6109c2.3306,2.09131 2.59228,3.78834 2.59228,3.78834c0,0 -1.61786,0.63394 -4.24158,-1.10663z" fill="#ffffff" stroke-width="0" stroke-linecap="butt"/><path d="M266.33331,195.37652c0,0 -1.8721,-2.21407 -0.42851,-4.62841c1.69863,-2.84087 3.9683,-1.76472 3.9683,-1.76472c0,0 0.25783,2.26585 -0.83852,4.04801c-1.0243,1.66504 -2.70128,2.34512 -2.70128,2.34512z" fill="#ffffff" stroke-width="0" stroke-linecap="butt"/></g><path d="M263.42603,197.62516c-0.03544,2.22115 -0.40779,4.65498 -9.9573,4.80031c-9.55139,0.14536 -9.1738,-3.06894 -9.2255,-5.0811c-0.07173,-2.79171 1.84882,-5.23869 9.36305,-5.23975c8.61396,0.06529 9.8597,3.01627 9.81975,5.52055z" fill="#ffdea8" stroke-width="1" stroke-linecap="butt"/><g stroke-width="0" stroke-linecap="butt"><path d="M256.42326,194.14082c0.862,0 1.14544,0.86101 1.14544,2.88334c0,1.95068 -0.3599,2.88334 -1.14544,2.88334c-0.78553,0 -1.14545,-1.00432 -1.14545,-2.88335c0,-2.02234 0.28344,-2.88335 1.14545,-2.88335z" fill="#000000"/><path d="M255.81578,195.47849c0,-0.66203 0.2258,-0.80376 0.50432,-0.80376c0.27853,0 0.51786,0.15415 0.50431,0.81604c-0.01229,0.60057 -0.09122,0.84989 -0.50431,0.84989c-0.43768,0 -0.50432,-0.29847 -0.50432,-0.86217z" fill="#ffffff"/></g><g stroke-width="0" stroke-linecap="butt"><path d="M251.11638,194.15583c0.862,0 1.14543,0.86101 1.14543,2.88334c0,1.95068 -0.3599,2.88334 -1.14543,2.88334c-0.78554,0 -1.14544,-1.00432 -1.14544,-2.88335c0,-2.02234 0.28344,-2.88335 1.14544,-2.88335z" fill="#000000"/><path d="M250.5089,195.4935c0,-0.66203 0.22579,-0.80376 0.50432,-0.80376c0.27852,0 0.51786,0.15416 0.50431,0.81605c-0.01229,0.60057 -0.09122,0.84989 -0.50431,0.84989c-0.43768,0 -0.50432,-0.29847 -0.50432,-0.86217z" fill="#ffffff"/></g></g><g stroke="none"><g><path d="M242.09922,190.16035c-0.25385,4.0588 -3.4097,7.28511 -16.52677,7.517c-12.6492,-0.08458 -15.1682,-4.73332 -15.44557,-7.95c-0.27736,-3.21668 1.41596,-15.97983 15.66642,-15.91196c15.06254,0.07174 16.58631,11.86183 16.30592,16.34496z" fill="#ff1919" stroke-width="0.93172" stroke-linecap="round"/><path d="M221.69101,184.72815c0,-3.24984 1.82521,-5.86514 6.62716,-5.88435c4.4205,-0.01769 6.62716,2.63452 6.62716,5.88435c0,3.24984 -1.3691,5.82058 -6.62716,5.88436c-4.26839,0.05177 -6.62716,-2.63452 -6.62716,-5.88436z" fill="#ffffff" stroke-width="0" stroke-linecap="butt"/><path d="M218.96428,187.92023c0.37765,1.7727 0.00238,3.44963 -2.66689,4.16299c-2.48701,0.66464 -4.2554,-0.43035 -4.63305,-2.20305c-0.37765,-1.7727 0.45684,-3.72175 2.83223,-4.38046c2.77055,-0.7683 4.09006,0.64783 4.46771,2.42053z" fill="#ffffff" stroke-width="0" stroke-linecap="butt"/><path d="M218.68063,181.09122c-4.23752,1.62097 -5.86616,-1.05466 -5.86616,-1.05466c0,0 1.52468,-2.96932 4.25157,-4.33573c3.49551,-1.75156 5.71036,-1.72775 5.71036,-1.72775c0,0 0.83266,5.23286 -4.09577,7.11814z" fill="#ffffff" stroke-width="0" stroke-linecap="butt"/><path d="M236.19888,180.53864c-3.03375,-2.01259 -2.52148,-5.29261 -2.52148,-5.29261c0,0 1.87351,0.5495 4.17077,2.61089c2.3306,2.09131 2.59229,3.78834 2.59229,3.78834c0,0 -1.61786,0.63393 -4.24158,-1.10664z" fill="#ffffff" stroke-width="0" stroke-linecap="butt"/><path d="M238.64817,195.37651c0,0 -1.87211,-2.21408 -0.42851,-4.62841c1.69863,-2.84087 3.9683,-1.76472 3.9683,-1.76472c0,0 0.25783,2.26586 -0.83852,4.04802c-1.0243,1.66504 -2.70127,2.34511 -2.70127,2.34511z" fill="#ffffff" stroke-width="0" stroke-linecap="butt"/></g><path d="M235.74088,197.62516c-0.03544,2.22115 -0.40778,4.65498 -9.95729,4.80031c-9.55139,0.14536 -9.1738,-3.06894 -9.2255,-5.0811c-0.07173,-2.79171 1.84882,-5.23869 9.36305,-5.23975c8.61396,0.0653 9.85971,3.01627 9.81975,5.52055z" fill="#ffdea8" stroke-width="1" stroke-linecap="butt"/><g stroke-width="0" stroke-linecap="butt"><path d="M228.73811,194.14081c0.862,0 1.14544,0.86101 1.14544,2.88334c0,1.95068 -0.3599,2.88334 -1.14544,2.88334c-0.78553,0 -1.14544,-1.00432 -1.14544,-2.88334c0,-2.02234 0.28344,-2.88334 1.14544,-2.88334z" fill="#000000"/><path d="M228.13063,195.47848c0,-0.66203 0.2258,-0.80375 0.50432,-0.80375c0.27852,0 0.51786,0.15415 0.50431,0.81604c-0.01229,0.60057 -0.09122,0.84989 -0.50431,0.84989c-0.43768,0 -0.50432,-0.29846 -0.50432,-0.86217z" fill="#ffffff"/></g><g stroke-width="0" stroke-linecap="butt"><path d="M223.43123,194.15582c0.862,0 1.14543,0.86101 1.14543,2.88334c0,1.95068 -0.3599,2.88334 -1.14543,2.88334c-0.78554,0 -1.14544,-1.00432 -1.14544,-2.88334c0,-2.02234 0.28344,-2.88334 1.14544,-2.88334z" fill="#000000"/><path d="M222.82375,195.4935c0,-0.66203 0.2258,-0.80376 0.50432,-0.80376c0.27852,0 0.51786,0.15415 0.50431,0.81605c-0.01229,0.60057 -0.09122,0.84988 -0.50431,0.84988c-0.43767,0 -0.50432,-0.29846 -0.50432,-0.86217z" fill="#ffffff"/></g></g><g><path d="M272.20896,136.10655c4.9825,0 9.49724,2.02372 12.76669,5.29272c3.269,3.26945 5.29272,7.78419 5.29272,12.76669c0,4.9825 -2.02372,9.49724 -5.29272,12.76669c-3.26945,3.269 -7.78419,5.29272 -12.76669,5.29272c-4.9825,0 -9.49724,-2.02372 -12.76669,-5.29272c-3.269,-3.26945 -5.29272,-7.78419 -5.29272,-12.76669c0,-4.9825 2.02372,-9.49724 5.29272,-12.76669c3.26945,-3.269 7.78419,-5.29272 12.76669,-5.29272z" fill="url(#color-8)" stroke="none" stroke-width="1" stroke-linecap="butt"/><path d="M272.09864,139.12934c4.57475,0 8.7197,1.8578 11.72129,4.85983c3.00203,3.00159 4.85983,7.14654 4.85983,11.7213c0,4.57476 -1.8578,8.71971 -4.85983,11.72129c-3.00159,3.00203 -7.14654,4.85983 -11.72129,4.85983c-4.57475,0 -8.71971,-1.8578 -11.7213,-4.85983c-3.00203,-3.00159 -4.85982,-7.14654 -4.85982,-11.72129c0,-4.57476 1.85779,-8.71971 4.85982,-11.7213c3.00159,-3.00203 7.14655,-4.85983 11.7213,-4.85983z" fill="url(#color-9)" stroke="none" stroke-width="1" stroke-linecap="butt"/><path d="M272.02335,135.33027c5.03656,0 9.60082,2.04542 12.90561,5.35022c3.3048,3.30484 5.35022,7.86906 5.35022,12.90561c0,5.03655 -2.04542,9.60076 -5.35022,12.90556c-3.3048,3.30484 -7.86906,5.35022 -12.90561,5.35022c-5.03656,0 -9.60076,-2.04538 -12.90556,-5.35022c-3.30484,-3.3048 -5.35022,-7.86901 -5.35022,-12.90556c0,-5.03655 2.04538,-9.60077 5.35022,-12.90561c3.3048,-3.3048 7.869,-5.35022 12.90556,-5.35022z" fill="url(#color-10)" stroke="url(#color-11)" stroke-width="4.85992" stroke-linecap="round"/><path d="M272.00129,135.83773c5.03656,0 9.60081,2.04542 12.90561,5.35022c3.3048,3.30484 5.35022,7.86905 5.35022,12.90561c0,5.03655 -2.04542,9.60077 -5.35022,12.90556c-3.3048,3.30484 -7.86905,5.35022 -12.90561,5.35022c-5.03656,0 -9.60077,-2.04538 -12.90556,-5.35022c-3.30484,-3.3048 -5.35022,-7.86901 -5.35022,-12.90556c0,-5.03655 2.04538,-9.60076 5.35022,-12.90561c3.3048,-3.3048 7.86901,-5.35022 12.90556,-5.35022z" fill="url(#color-12)" stroke="url(#color-13)" stroke-width="4.85992" stroke-linecap="round"/></g></g></g></svg>