<svg version="1.1" xmlns="http://www.w3.org/2000/svg" xmlns:xlink="http://www.w3.org/1999/xlink" width="97.18315" height="62.78564" viewBox="0,0,97.18315,62.78564"><defs><linearGradient x1="240.03451" y1="153.9184" x2="240.03451" y2="206.2183" gradientUnits="userSpaceOnUse" id="color-1"><stop offset="0" stop-color="#000000"/><stop offset="1" stop-color="#549fff"/></linearGradient><linearGradient x1="266.74636" y1="171.72139" x2="272.74636" y2="171.72139" gradientUnits="userSpaceOnUse" id="color-2"><stop offset="0" stop-color="#b55d27"/><stop offset="1" stop-color="#db7739"/></linearGradient><linearGradient x1="260.49636" y1="157.75224" x2="270.49636" y2="157.75224" gradientUnits="userSpaceOnUse" id="color-3"><stop offset="0" stop-color="#a0c6d4"/><stop offset="1" stop-color="#ffffff"/></linearGradient><linearGradient x1="270.29636" y1="165.15223" x2="280.29636" y2="165.15223" gradientUnits="userSpaceOnUse" id="color-4"><stop offset="0" stop-color="#a0c6d4"/><stop offset="1" stop-color="#ffffff"/></linearGradient><linearGradient x1="262.49636" y1="163.01569" x2="276.09636" y2="163.01569" gradientUnits="userSpaceOnUse" id="color-5"><stop offset="0" stop-color="#a0c6d4"/><stop offset="1" stop-color="#ffffff"/></linearGradient><linearGradient x1="221.81831" y1="153.91125" x2="221.81831" y2="173.71519" gradientUnits="userSpaceOnUse" id="color-6"><stop offset="0" stop-color="#2a7794"/><stop offset="1" stop-color="#91fdff"/></linearGradient><linearGradient x1="248.35149" y1="171.15538" x2="253.17735" y2="171.15538" gradientUnits="userSpaceOnUse" id="color-7"><stop offset="0" stop-color="#b55d27"/><stop offset="1" stop-color="#db7739"/></linearGradient><linearGradient x1="243.32456" y1="159.91986" x2="251.36765" y2="159.91986" gradientUnits="userSpaceOnUse" id="color-8"><stop offset="0" stop-color="#a0c6d4"/><stop offset="1" stop-color="#ffffff"/></linearGradient><linearGradient x1="251.20679" y1="165.87175" x2="259.24987" y2="165.87175" gradientUnits="userSpaceOnUse" id="color-9"><stop offset="0" stop-color="#a0c6d4"/><stop offset="1" stop-color="#ffffff"/></linearGradient><linearGradient x1="244.93317" y1="164.15331" x2="255.87177" y2="164.15331" gradientUnits="userSpaceOnUse" id="color-10"><stop offset="0" stop-color="#a0c6d4"/><stop offset="1" stop-color="#ffffff"/></linearGradient><linearGradient x1="223.86328" y1="158.58024" x2="223.86328" y2="173.49993" gradientUnits="userSpaceOnUse" id="color-11"><stop offset="0" stop-color="#000000"/><stop offset="1" stop-color="#2a7794"/></linearGradient><linearGradient x1="240.13099" y1="173.33774" x2="240.13099" y2="193.36896" gradientUnits="userSpaceOnUse" id="color-12"><stop offset="0" stop-color="#66fdff"/><stop offset="1" stop-color="#66e8ff"/></linearGradient><linearGradient x1="226.06506" y1="181.8443" x2="226.06506" y2="198.96746" gradientUnits="userSpaceOnUse" id="color-13"><stop offset="0" stop-color="#2e73ff"/><stop offset="1" stop-color="#3facff"/></linearGradient><linearGradient x1="240.03451" y1="193.18621" x2="240.03451" y2="206.30405" gradientUnits="userSpaceOnUse" id="color-14"><stop offset="0" stop-color="#ffffff"/><stop offset="1" stop-color="#d6d6d6"/></linearGradient><linearGradient x1="263.02104" y1="168.88898" x2="263.02104" y2="190.02282" gradientUnits="userSpaceOnUse" id="color-15"><stop offset="0" stop-color="#0054ff"/><stop offset="1" stop-color="#3ad9ff"/></linearGradient><linearGradient x1="205.52286" y1="171.37852" x2="205.52286" y2="179.09357" gradientUnits="userSpaceOnUse" id="color-16"><stop offset="0" stop-color="#0054ff"/><stop offset="1" stop-color="#3ad9ff"/></linearGradient><radialGradient cx="283.35997" cy="153.54392" r="10.02553" gradientUnits="userSpaceOnUse" id="color-17"><stop offset="0" stop-color="#7b98ff"/><stop offset="1" stop-color="#7b98ff" stop-opacity="0"/></radialGradient></defs><g transform="translate(-196.20235,-143.5184)"><g data-paper-data="{&quot;isPaintingLayer&quot;:true}" fill-rule="nonzero" stroke-linejoin="miter" stroke-miterlimit="10" stroke-dasharray="" stroke-dashoffset="0" style="mix-blend-mode: normal"><path d="M196.30835,153.9184h69.26259c1.90726,0.10553 3.98636,0.15302 6.02862,0h12.16109v52.2999h-87.4523z" fill="url(#color-1)" stroke="none" stroke-width="0.85738" stroke-linecap="butt"/><path d="M196.20235,202.56004v-29.7059h87.39563v29.7059z" fill="#a0c6d4" stroke="none" stroke-width="0" stroke-linecap="butt"/><g stroke="#95ff72" stroke-width="0" stroke-linecap="butt"><path d="M266.74636,179.57852v-15.71429h6v15.71429z" data-paper-data="{&quot;origPos&quot;:null}" fill="url(#color-2)"/><path d="M265.49636,162.57595c-2.76142,0 -5,-2.15964 -5,-4.82371c0,-1.68261 0.74961,-3.02062 2.10332,-3.88376c1.74437,0.13291 3.79565,-0.00278 5.91595,0.00404c1.12147,0.88458 1.98073,2.37319 1.98073,3.87972c0,2.66407 -2.23858,4.82371 -5,4.82371z" data-paper-data="{&quot;origPos&quot;:null}" fill="url(#color-3)"/><path d="M275.29636,169.97596c-2.76142,0 -5,-2.15965 -5,-4.82372c0,-2.66407 2.23858,-4.82372 5,-4.82372c2.76142,0 5,2.15965 5,4.82372c0,2.66407 -2.23858,4.82372 -5,4.82372z" data-paper-data="{&quot;origPos&quot;:null}" fill="url(#color-4)"/><path d="M269.29636,169.57597c-3.75553,0 -6.8,-2.93712 -6.8,-6.56025c0,-3.62313 3.04447,-6.56026 6.8,-6.56026c3.75553,0 6.8,2.93713 6.8,6.56026c0,3.62313 -3.04447,6.56025 -6.8,6.56025z" data-paper-data="{&quot;origPos&quot;:null}" fill="url(#color-5)"/></g><path d="M196.41761,173.71519l4.3007,-10.97915l-0.42601,-8.82478l37.45527,-0.21526l7.93247,7.33406l1.53897,12.68514z" fill="url(#color-6)" stroke="none" stroke-width="0" stroke-linecap="butt"/><g stroke="#95ff72" stroke-width="0" stroke-linecap="butt"><path d="M248.35149,177.47494v-12.63914h4.82585v12.63914z" data-paper-data="{&quot;origPos&quot;:null}" fill="url(#color-7)"/><path d="M247.34611,163.79962c-2.22103,0 -4.02154,-1.73702 -4.02154,-3.87975c0,-2.14274 1.80051,-3.87976 4.02154,-3.87976c2.22103,0 4.02154,1.73703 4.02154,3.87976c0,2.14274 -1.80051,3.87975 -4.02154,3.87975z" data-paper-data="{&quot;origPos&quot;:null}" fill="url(#color-8)"/><path d="M255.22834,169.75151c-2.22103,0 -4.02154,-1.73703 -4.02154,-3.87976c0,-2.14274 1.80051,-3.87976 4.02154,-3.87976c2.22103,0 4.02154,1.73703 4.02154,3.87976c0,2.14274 -1.80051,3.87976 -4.02154,3.87976z" data-paper-data="{&quot;origPos&quot;:null}" fill="url(#color-9)"/><path d="M250.40248,169.42979c-3.02061,0 -5.4693,-2.36235 -5.4693,-5.27647c0,-2.91412 2.44869,-5.27648 5.4693,-5.27648c3.02061,0 5.4693,2.36236 5.4693,5.27648c0,2.91412 -2.44869,5.27647 -5.4693,5.27647z" data-paper-data="{&quot;origPos&quot;:null}" fill="url(#color-10)"/></g><path d="M209.11796,173.49993l3.2289,-8.61041l6.18708,-6.30927l10.82813,3.34138l6.87867,5.33575l2.36786,6.24254z" fill="url(#color-11)" stroke="none" stroke-width="0" stroke-linecap="butt"/><path d="M196.46432,190.35532v-9.50078l4.5674,-6.17294l8.38025,-0.92751l29.49844,-0.41633l-6.74738,3.51099l-5.99288,1.13503l12.53648,0.68917l45.09102,4.3342v7.34817z" fill="#ffffff" stroke="none" stroke-width="0.5" stroke-linecap="butt"/><path d="M196.46432,193.36896v-5.93738l4.5674,-10.95198l8.38025,-2.90214l29.49844,-0.23971l-6.74738,2.3893l-10.51335,2.37966l17.05695,3.6445l45.09102,5.68036v5.93738z" fill="url(#color-12)" stroke="none" stroke-width="0.5" stroke-linecap="butt"/><path d="M241.4628,198.31239c-0.42916,2.58921 -4.79572,-3.2513 -13.0694,-4.4546c-4.21176,-0.61254 -13.49439,-2.54603 -17.12012,-4.28114c-2.37629,-1.13718 2.61173,-0.74783 2.91638,-2.5858c0.28169,-1.6995 -1.79012,-4.57085 0.61312,-5.00953c4.16142,-0.75963 10.72502,1.85732 15.14475,2.50011c8.27368,1.2033 11.94444,11.24175 11.51528,13.83097z" data-paper-data="{&quot;origRot&quot;:0}" fill="url(#color-13)" stroke="none" stroke-width="NaN" stroke-linecap="butt"/><path d="M196.30835,206.30405v-13.11784h87.4523v13.11784z" fill="url(#color-14)" stroke="none" stroke-width="0" stroke-linecap="butt"/><text transform="translate(211.04519,202.78461) scale(0.39251,0.39251)" font-size="22" xml:space="preserve" fill="#112739" fill-rule="nonzero" stroke="none" stroke-width="1" stroke-linecap="butt" stroke-linejoin="miter" stroke-miterlimit="10" stroke-dasharray="" stroke-dashoffset="0" font-family="Sans Serif" font-weight="400" text-anchor="start" style="mix-blend-mode: normal"><tspan x="0" dy="0">Sherbet Land</tspan></text><g><path d="M254.82227,190.02282l-2.65128,-8.65846l2.33252,-7.23842l2.73937,-5.06344l2.40713,5.22957l3.05075,-5.39417l2.5725,5.38524l3.05075,-5.39417l3.21459,5.36588l1.5386,7.53724l-1.70624,8.21363z" data-paper-data="{&quot;origPos&quot;:null,&quot;origRot&quot;:0}" fill="url(#color-15)" stroke="none" stroke-width="0" stroke-linecap="round"/><path d="M260.02941,181.39394c-0.75357,0.02273 -1.40403,-1.27047 -1.45282,-2.88844c-0.04879,-1.61796 0.52254,-2.94801 1.27612,-2.97074c0.75357,-0.02273 1.40403,1.27047 1.45282,2.88844c0.04879,1.61797 -0.52254,2.94801 -1.27612,2.97074z" data-paper-data="{&quot;origPos&quot;:null,&quot;origRot&quot;:0}" fill="#ffffff" stroke="none" stroke-width="0" stroke-linecap="butt"/><path d="M266.09357,178.25413c0.04879,1.61797 -0.52253,2.94801 -1.27611,2.97074c-0.75358,0.02273 -1.40404,-1.27047 -1.45283,-2.88844c-0.04879,-1.61797 0.52254,-2.94801 1.27612,-2.97074c0.75357,-0.02273 1.40402,1.27047 1.45282,2.88844z" data-paper-data="{&quot;origPos&quot;:null,&quot;origRot&quot;:0}" fill="#ffffff" stroke="none" stroke-width="0" stroke-linecap="butt"/><path d="M257.74413,185.87417l1.73878,-1.71495l1.87547,1.74362l1.25962,-1.80974l2.27436,1.83598l1.02367,-1.97752l2.42037,2.3224" data-paper-data="{&quot;origPos&quot;:null,&quot;origRot&quot;:0,&quot;index&quot;:null}" fill="none" stroke="#ffffff" stroke-width="0.5" stroke-linecap="round"/></g><g><path d="M202.52985,179.09357l-0.96787,-3.16083l0.8515,-2.64244l1.00003,-1.84844l0.87873,1.90909l1.1137,-1.96918l0.93911,1.96592l1.1137,-1.96918l1.17351,1.95885l0.56167,2.75152l-0.62287,2.99844z" data-paper-data="{&quot;origPos&quot;:null,&quot;origRot&quot;:0}" fill="url(#color-16)" stroke="none" stroke-width="0" stroke-linecap="round"/><path d="M204.43075,175.94355c-0.27509,0.0083 -0.51255,-0.46379 -0.53037,-1.05444c-0.01782,-0.59064 0.19075,-1.07619 0.46586,-1.08449c0.27509,-0.0083 0.51254,0.4638 0.53036,1.05445c0.01782,0.59065 -0.19075,1.07619 -0.46585,1.08449z" data-paper-data="{&quot;origPos&quot;:null,&quot;origRot&quot;:0}" fill="#ffffff" stroke="none" stroke-width="0" stroke-linecap="butt"/><path d="M206.64451,174.79733c0.01782,0.59065 -0.19075,1.07619 -0.46585,1.08449c-0.2751,0.0083 -0.51255,-0.46379 -0.53037,-1.05444c-0.01782,-0.59065 0.19075,-1.07619 0.46586,-1.08449c0.27509,-0.0083 0.51255,0.46379 0.53036,1.05444z" data-paper-data="{&quot;origPos&quot;:null,&quot;origRot&quot;:0}" fill="#ffffff" stroke="none" stroke-width="0" stroke-linecap="butt"/><path d="M203.59649,177.57909l0.63475,-0.62605l0.68465,0.63652l0.45983,-0.66065l0.83027,0.67023l0.3737,-0.7219l0.88357,0.84781" data-paper-data="{&quot;origPos&quot;:null,&quot;origRot&quot;:0,&quot;index&quot;:null}" fill="none" stroke="#ffffff" stroke-width="0.5" stroke-linecap="round"/></g><path d="M196.58427,193.45949v-6.83221h15.10674l3.8407,6.83221z" fill="#ffffff" stroke="none" stroke-width="0" stroke-linecap="butt"/><text transform="translate(197.73783,193.23515) scale(0.16414,0.16414)" font-size="40" xml:space="preserve" fill="#112739" fill-rule="nonzero" stroke="none" stroke-width="1" stroke-linecap="butt" stroke-linejoin="miter" stroke-miterlimit="10" stroke-dasharray="" stroke-dashoffset="0" font-family="Sans Serif" font-weight="normal" text-anchor="start" style="mix-blend-mode: normal"><tspan x="0" dy="0">GCN</tspan></text><path d="M278.71395,153.93051c0,-2.51604 2.03966,-4.5557 4.5557,-4.5557c2.51604,0 4.5557,2.03966 4.5557,4.5557c0,2.51605 -2.03966,4.55571 -4.5557,4.55571c-2.51605,0 -4.5557,-2.03966 -4.5557,-4.55571z" fill="#859cff" stroke="none" stroke-width="0" stroke-linecap="butt"/><path d="M273.33445,153.54392c0,-5.53695 4.48858,-10.02552 10.02552,-10.02552c5.53695,0 10.02553,4.48858 10.02553,10.02552c0,5.53695 -4.48859,10.02553 -10.02553,10.02553c-5.53695,0 -10.02552,-4.48859 -10.02552,-10.02553z" fill="url(#color-17)" stroke="none" stroke-width="0" stroke-linecap="butt"/></g></g></svg>