<svg version="1.1" xmlns="http://www.w3.org/2000/svg" xmlns:xlink="http://www.w3.org/1999/xlink" width="97.01594" height="61.26442" viewBox="0,0,97.01594,61.26442"><defs><linearGradient x1="239.71959" y1="153.85006" x2="239.71959" y2="206.14995" gradientUnits="userSpaceOnUse" id="color-1"><stop offset="0" stop-color="#546fff"/><stop offset="1" stop-color="#549fff"/></linearGradient><linearGradient x1="224.74158" y1="162.9423" x2="218.47474" y2="184.49409" gradientUnits="userSpaceOnUse" id="color-2"><stop offset="0" stop-color="#ff9400"/><stop offset="1" stop-color="#ffe466"/></linearGradient><linearGradient x1="239.71959" y1="178.29451" x2="239.71959" y2="206.14995" gradientUnits="userSpaceOnUse" id="color-3"><stop offset="0" stop-color="#84c1ff"/><stop offset="1" stop-color="#54eeff"/></linearGradient><linearGradient x1="219.67845" y1="166.69207" x2="219.71626" y2="180.81285" gradientUnits="userSpaceOnUse" id="color-4"><stop offset="0" stop-color="#4adb00"/><stop offset="1" stop-color="#39a900"/></linearGradient><linearGradient x1="219.93085" y1="166.69176" x2="219.97014" y2="181.36088" gradientUnits="userSpaceOnUse" id="color-5"><stop offset="0" stop-color="#ff7373"/><stop offset="1" stop-color="#760000"/></linearGradient><linearGradient x1="260.59301" y1="165.26358" x2="254.12661" y2="188.89974" gradientUnits="userSpaceOnUse" id="color-6"><stop offset="0" stop-color="#4adb00"/><stop offset="1" stop-color="#39a900"/></linearGradient><linearGradient x1="260.30082" y1="165.18365" x2="253.58331" y2="189.73766" gradientUnits="userSpaceOnUse" id="color-7"><stop offset="0" stop-color="#ff7373"/><stop offset="1" stop-color="#760000"/></linearGradient><linearGradient x1="250.71927" y1="170.16264" x2="250.71927" y2="192.60707" gradientUnits="userSpaceOnUse" id="color-8"><stop offset="0" stop-color="#ff9400"/><stop offset="1" stop-color="#ffe466"/></linearGradient><linearGradient x1="261.08514" y1="181.49597" x2="261.08514" y2="201.33404" gradientUnits="userSpaceOnUse" id="color-9"><stop offset="0" stop-color="#4adb00"/><stop offset="1" stop-color="#39a900"/></linearGradient><linearGradient x1="261.33038" y1="181.49597" x2="261.33038" y2="202.1044" gradientUnits="userSpaceOnUse" id="color-10"><stop offset="0" stop-color="#ff7373"/><stop offset="1" stop-color="#760000"/></linearGradient><linearGradient x1="217.88594" y1="161.49597" x2="217.88594" y2="190.8293" gradientUnits="userSpaceOnUse" id="color-11"><stop offset="0" stop-color="#ffffff"/><stop offset="1" stop-color="#dddddd"/></linearGradient><linearGradient x1="212.99705" y1="160.94042" x2="212.99705" y2="193.49598" gradientUnits="userSpaceOnUse" id="color-12"><stop offset="0" stop-color="#ffffff"/><stop offset="1" stop-color="#dddddd"/></linearGradient><linearGradient x1="215.88594" y1="160.38485" x2="215.88594" y2="193.38486" gradientUnits="userSpaceOnUse" id="color-13"><stop offset="0" stop-color="#ffffff"/><stop offset="1" stop-color="#dddddd"/></linearGradient><linearGradient x1="234.94149" y1="159.94042" x2="234.94149" y2="185.16264" gradientUnits="userSpaceOnUse" id="color-14"><stop offset="0" stop-color="#ffffff"/><stop offset="1" stop-color="#dddddd"/></linearGradient><linearGradient x1="241.44149" y1="160.05153" x2="241.44149" y2="185.8293" gradientUnits="userSpaceOnUse" id="color-15"><stop offset="0" stop-color="#ffffff"/><stop offset="1" stop-color="#dddddd"/></linearGradient><linearGradient x1="226.49705" y1="162.38485" x2="226.49705" y2="200.38486" gradientUnits="userSpaceOnUse" id="color-16"><stop offset="0" stop-color="#ff7373"/><stop offset="1" stop-color="#760000"/></linearGradient><linearGradient x1="230.88594" y1="182.8293" x2="230.88594" y2="196.49598" gradientUnits="userSpaceOnUse" id="color-17"><stop offset="0" stop-color="#ff7373"/><stop offset="1" stop-color="#760000"/></linearGradient><linearGradient x1="239.71959" y1="192.86786" x2="239.71959" y2="205.9857" gradientUnits="userSpaceOnUse" id="color-18"><stop offset="0" stop-color="#ffffff"/><stop offset="1" stop-color="#d6d6d6"/></linearGradient><radialGradient cx="282.98384" cy="154.91106" r="10.02553" gradientUnits="userSpaceOnUse" id="color-19"><stop offset="0" stop-color="#ff8585"/><stop offset="1" stop-color="#ff8585" stop-opacity="0"/></radialGradient></defs><g transform="translate(-195.99344,-144.88554)"><g data-paper-data="{&quot;isPaintingLayer&quot;:true}" fill-rule="nonzero" stroke-linejoin="miter" stroke-miterlimit="10" stroke-dasharray="" stroke-dashoffset="0" style="mix-blend-mode: normal"><path d="M195.99344,153.85006h87.4523v52.2999h-87.4523z" fill="url(#color-1)" stroke="none" stroke-width="0.85738" stroke-linecap="butt"/><path d="M196.38949,178.07213l-0.21909,-13.70675c0,0 8.6804,6.97744 9.5735,6.02824c5.47568,-5.8197 12.49538,-14.92296 18.27797,-14.4885c0.60827,0.0457 11.98256,15.021 13.19403,14.95905c6.99281,-0.3576 18.05737,-13.46816 18.05737,-13.46816l14.64925,11.75478l13.42095,-8.63766l0.17967,18.58662l-72.35414,1.07143z" data-paper-data="{&quot;index&quot;:null}" fill="url(#color-2)" stroke="#000000" stroke-width="0" stroke-linecap="round"/><path d="M195.99344,178.29451h87.4523v27.85546h-87.4523z" fill="url(#color-3)" stroke="none" stroke-width="0.85738" stroke-linecap="butt"/><path d="M242.99357,173.99681c0.01085,4.05077 2.96685,6.75098 -9.75949,6.76728c-12.72634,0.0163 -37.10747,0.64845 -37.11832,-3.40232c-0.01085,-4.05077 11.08875,-10.65371 23.81509,-10.67001c12.72634,-0.0163 23.05187,3.25428 23.06272,7.30505z" data-paper-data="{&quot;index&quot;:null}" fill="url(#color-4)" stroke="url(#color-5)" stroke-width="0" stroke-linecap="butt"/><path d="M218.88708,173.49597c-3.88588,-0.05009 -5.90861,0.05351 -9.16781,0.77778c-1.17246,0.26055 -13.40574,3.86656 -10.67705,-1.34026c0.66519,-1.26929 11.33691,-3.39398 13.01038,-3.43752c2.61011,-0.06792 5.22222,0.03823 7.83219,0.11111c2.80295,0.07827 5.59426,0.39165 8.39003,0.66667c0.07145,0.00703 0.14889,0.01 0.22838,0.0129c0.99702,0.11333 1.77162,0.95976 1.77162,1.9871c0,1.10457 -0.89543,2 -2,2c-0.25282,0 -0.49467,-0.04691 -0.71735,-0.1325c-2.62695,0.53687 -6.19113,-0.61332 -8.6704,-0.64528z" fill="#ffb84d" stroke="none" stroke-width="0.5" stroke-linecap="butt"/><path d="M260.30082,165.18365c14.73238,4.0305 24.58483,18.57993 22.72984,25.36033c-1.85499,6.7804 -29.80598,-1.94759 -44.53836,-5.97809c-14.73238,-4.0305 -10.08056,-7.6227 -8.22557,-14.4031c1.85499,-6.7804 15.30171,-9.00963 30.03409,-4.97914z" data-paper-data="{&quot;index&quot;:null}" fill="url(#color-6)" stroke="url(#color-7)" stroke-width="0" stroke-linecap="butt"/><path d="M258.9415,190.49597l-28.33333,-8.66667l-2.88889,-2.22222l2.44444,-9.44444c0,0 9.8296,0.59302 16.44444,2.88889c6.61485,2.29587 10.8656,4.70998 15.88889,8.33333c5.02328,3.62335 11.22222,11.22222 11.22222,11.22222z" fill="url(#color-8)" stroke="#000000" stroke-width="0" stroke-linecap="round"/><path d="M283.71927,191.80019c0,5.69086 2.86504,9.48965 -9.5,9.48965c-12.36504,0 -36.05556,0.84422 -36.05556,-4.84665c0,-5.69086 10.80163,-14.94722 23.16667,-14.94722c12.36504,0 22.38889,4.61335 22.38889,10.30421z" fill="url(#color-9)" stroke="url(#color-10)" stroke-width="0" stroke-linecap="butt"/><path d="M271.05849,181.58689c-3.11001,-6.38106 -17.98317,-12.5435 -24.81469,-12.64647c-3.55411,-0.05357 -9.92553,0.88544 -12.85786,0.55556c-2.14113,-0.24088 -2.4452,-2.3048 -1,-3.75c1.58379,-1.58379 9.11125,-0.82086 9.9433,-0.80556c10.14492,0.18665 21.51566,3.0793 28.21401,10.50916c1.58924,1.76279 4.85756,3.76004 4.9538,6.37973c0.26043,7.08943 -5.8233,6.46024 -11.36102,6.44444c-1.62802,-0.00464 -4.06854,1.13716 -4.87627,-0.27637c-0.58948,-0.3479 -0.98493,-0.98959 -0.98493,-1.72363c0,-1.10457 0.89543,-2 2,-2c0.37816,0 0.7318,0.10495 1.0334,0.28732c4.60221,-0.77056 11.93835,1.51529 9.75027,-2.97418z" fill="#ffb84d" stroke="none" stroke-width="0.5" stroke-linecap="butt"/><path d="M212.71926,190.8293l10.33334,-29.33333l-5.55555,27.55555" fill="none" stroke="url(#color-11)" stroke-width="0.5" stroke-linecap="round"/><path d="M202.83038,193.49599l20.33334,-32.55556l-17,31.66666" fill="none" stroke="url(#color-12)" stroke-width="0.5" stroke-linecap="round"/><path d="M199.49705,193.38486l23.55556,-33l9.22222,25.11111" fill="none" stroke="url(#color-13)" stroke-width="0.5" stroke-linecap="round"/><path d="M241.05261,185.16264l-17.66667,-25.22222l23.11111,25.11111" fill="none" stroke="url(#color-14)" stroke-width="0.5" stroke-linecap="round"/><path d="M254.71927,185.8293l-31.22222,-25.77778l36.66667,25.77778" fill="none" stroke="url(#color-15)" stroke-width="0.5" stroke-linecap="round"/><path d="M233.0526,199.60707l-13.11111,0.77778l3.55556,-40.77778z" fill="#db0000" stroke="url(#color-16)" stroke-width="0.5" stroke-linecap="round"/><path d="M198.49706,189.82931l26.55555,-7l37.77777,1.55555l0.44445,5l-37.66667,-1l-27,8.11111z" fill="#db0000" stroke="url(#color-17)" stroke-width="0.5" stroke-linecap="round"/><path d="M195.99344,205.9857v-13.11784h87.4523v13.11784z" fill="url(#color-18)" stroke="none" stroke-width="0" stroke-linecap="butt"/><text transform="translate(215.94391,202.46626) scale(0.39251,0.39251)" font-size="22" xml:space="preserve" fill="#112739" fill-rule="nonzero" stroke="none" stroke-width="1" stroke-linecap="butt" stroke-linejoin="miter" stroke-miterlimit="10" stroke-dasharray="" stroke-dashoffset="0" font-family="Sans Serif" font-weight="400" text-anchor="start" style="mix-blend-mode: normal"><tspan x="0" dy="0">Wuhu Loop</tspan></text><path d="M195.99344,193.14114v-6.83221h16.12402l4.09933,6.83221z" fill="#ffffff" stroke="none" stroke-width="0" stroke-linecap="butt"/><text transform="translate(199.25784,192.91679) scale(0.16414,0.16414)" font-size="40" xml:space="preserve" fill="#112739" fill-rule="nonzero" stroke="none" stroke-width="1" stroke-linecap="butt" stroke-linejoin="miter" stroke-miterlimit="10" stroke-dasharray="" stroke-dashoffset="0" font-family="Sans Serif" font-weight="normal" text-anchor="start" style="mix-blend-mode: normal"><tspan x="0" dy="0">3DS</tspan></text><path d="M278.05501,154.73202c0,-2.51604 2.03966,-4.5557 4.5557,-4.5557c2.51604,0 4.5557,2.03966 4.5557,4.5557c0,2.51605 -2.03966,4.55571 -4.5557,4.55571c-2.51605,0 -4.5557,-2.03966 -4.5557,-4.55571z" fill="#ff8585" stroke="none" stroke-width="0" stroke-linecap="butt"/><path d="M272.95832,154.91106c0,-5.53695 4.48858,-10.02552 10.02552,-10.02552c5.53695,0 10.02553,4.48858 10.02553,10.02552c0,5.53695 -4.48859,10.02553 -10.02553,10.02553c-5.53695,0 -10.02552,-4.48859 -10.02552,-10.02553z" fill="url(#color-19)" stroke="none" stroke-width="0" stroke-linecap="butt"/></g></g></svg>