<svg version="1.1" xmlns="http://www.w3.org/2000/svg" xmlns:xlink="http://www.w3.org/1999/xlink" width="96.61988" height="62.50655" viewBox="0,0,96.61988,62.50655"><defs><linearGradient x1="240.01077" y1="192.86785" x2="240.01077" y2="205.98569" gradientUnits="userSpaceOnUse" id="color-1"><stop offset="0" stop-color="#fdff96"/><stop offset="1" stop-color="#ffd763"/></linearGradient><linearGradient x1="259.05253" y1="158.73667" x2="259.05253" y2="160.16525" gradientUnits="userSpaceOnUse" id="color-2"><stop offset="0" stop-color="#505050"/><stop offset="1" stop-color="#505050" stop-opacity="0"/></linearGradient><radialGradient cx="282.7758" cy="153.54392" r="10.02553" gradientUnits="userSpaceOnUse" id="color-3"><stop offset="0" stop-color="#7b98ff"/><stop offset="1" stop-color="#7b98ff" stop-opacity="0"/></radialGradient></defs><g transform="translate(-196.18144,-143.5184)"><g data-paper-data="{&quot;isPaintingLayer&quot;:true}" fill-rule="nonzero" stroke-linejoin="miter" stroke-miterlimit="10" stroke-dasharray="" stroke-dashoffset="0" style="mix-blend-mode: normal"><path d="M196.28463,153.85005h87.4523v52.1749h-87.4523z" fill="#00f3ff" stroke="none" stroke-width="0.85738" stroke-linecap="butt"/><g fill="#e4e4e4" stroke="none" stroke-width="0" stroke-linecap="butt"><path d="M248.76685,169.85096c0,1.65685 -3.22355,3 -7.2,3c-3.97645,0 -7.2,-1.34315 -7.2,-3c0,-1.65685 3.22355,-3 7.2,-3c3.97645,0 7.2,1.34315 7.2,3z"/><path d="M247.96683,165.35096c0,2.7062 -3.98467,4.9 -8.9,4.9c-4.91533,0 -8.9,-2.1938 -8.9,-4.9c0,-2.7062 3.98467,-4.9 8.9,-4.9c4.91533,0 8.9,2.1938 8.9,4.9z"/><path d="M233.66685,171.45096c-4.36305,0 -7.9,-1.38792 -7.9,-3.1c0,-1.71208 3.53695,-3.1 7.9,-3.1c4.36305,0 7.9,1.38792 7.9,3.1c0,1.71208 -3.53695,3.1 -7.9,3.1z"/></g><path d="M238.16685,197.05096v-7.6h45.4v7.6z" fill="#8ce698" stroke="none" stroke-width="0" stroke-linecap="butt"/><path d="M196.28466,205.98569v-13.11784h87.4523v13.11784z" fill="url(#color-1)" stroke="none" stroke-width="0" stroke-linecap="butt"/><path d="M196.93145,189.20096v-9.75h85.75v9.75z" fill="#e2c3a1" stroke="#c4a88b" stroke-width="1.5" stroke-linecap="butt"/><text transform="translate(209.03638,202.09057) scale(0.39251,0.39251)" font-size="22" xml:space="preserve" fill="#382111" fill-rule="nonzero" stroke="none" stroke-width="1" stroke-linecap="butt" stroke-linejoin="miter" stroke-miterlimit="10" stroke-dasharray="" stroke-dashoffset="0" font-family="Sans Serif" font-weight="400" text-anchor="start" style="mix-blend-mode: normal"><tspan x="0" dy="0">Stardew Sprint</tspan></text><path d="M243.43145,190.45096v-32.01404h32.75v32.01404z" fill="#e45b5b" stroke="#d25454" stroke-width="1.5" stroke-linecap="butt"/><path d="M276.18143,190.45096v-32.01404h6.75v32.01404z" fill="#c64f4f" stroke="#ae4646" stroke-width="1.5" stroke-linecap="butt"/><path d="M275.75284,158.45096l1,-3.87118h6.17857v3.87118z" fill="#c64f4f" stroke="#ae4646" stroke-width="1.5" stroke-linecap="butt"/><path d="M242.76685,160.16525v-1.42857h32.57143v1.42857z" fill="url(#color-2)" stroke="none" stroke-width="0" stroke-linecap="butt"/><path d="M242.53842,158.34482l0.75134,-3.81757h34.00943l-0.90161,3.81757z" fill="#505050" stroke="#6c6c6c" stroke-width="1.5" stroke-linecap="butt"/><g fill="#efefef" stroke="none" stroke-width="0" stroke-linecap="butt"><path d="M253.36683,191.25096v-19h1v19z"/><path d="M263.16684,191.25096v-19h1v19z"/><path d="M253.56685,172.85096v-0.8h10.4v0.8z"/></g><path d="M253.76685,190.85096v-18.2h10.2v18.2z" fill="#382111" stroke="#efefef" stroke-width="1" stroke-linecap="butt"/><path d="M253.76685,169.65096v-8.4h10.2v8.4z" fill="none" stroke="#efefef" stroke-width="1" stroke-linecap="butt"/><path d="M262.96684,169.65096l-9,-8.4" fill="none" stroke="#efefef" stroke-width="1" stroke-linecap="round"/><path d="M253.96683,169.65096l9.4,-7.8" fill="none" stroke="#efefef" stroke-width="1" stroke-linecap="round"/><g fill="#e4e4e4" stroke="none" stroke-width="0" stroke-linecap="butt"><path d="M222.56685,159.25096c0,1.87777 -3.22355,3.4 -7.2,3.4c-3.97645,0 -7.2,-1.52223 -7.2,-3.4c0,-1.87777 3.22355,-3.4 7.2,-3.4c3.97645,0 7.2,1.52223 7.2,3.4z"/><path d="M213.56685,160.95096c0,1.71208 -2.99969,3.1 -6.7,3.1c-3.70031,0 -6.7,-1.38792 -6.7,-3.1c0,-1.71208 2.99969,-3.1 6.7,-3.1c3.70031,0 6.7,1.38792 6.7,3.1z"/></g><g fill="#75c07f" stroke="none" stroke-width="0.5" stroke-linecap="butt"><path d="M241.40989,189.22249c0.11181,-0.2236 0.33541,-0.1118 0.33541,-0.1118l0.39831,0.21349c0.4145,0.8046 0.41894,1.35813 0.72706,2.26439c0,0 0.07905,0.23717 -0.15812,0.31623c-0.23717,0.07906 -0.31623,-0.15812 -0.31623,-0.15812c-0.28203,-0.86086 -0.25301,-1.31396 -0.60627,-2.06894l-0.26836,-0.11984c0,0 -0.22361,-0.11181 -0.11181,-0.33541z"/><path d="M243.74021,189.46699l-0.26836,0.11984c-0.35326,0.75499 -0.32425,1.20809 -0.60628,2.06895c0,0 -0.07905,0.23717 -0.31622,0.15811c-0.23717,-0.07906 -0.15812,-0.31623 -0.15812,-0.31623c0.30812,-0.90626 0.31256,-1.45979 0.72706,-2.26439l0.39831,-0.21349c0,0 0.2236,-0.11181 0.33541,0.1118c0.11181,0.2236 -0.11181,0.33541 -0.11181,0.33541z" data-paper-data="{&quot;index&quot;:null}"/></g><g fill="#75c07f" stroke="none" stroke-width="0.5" stroke-linecap="butt"><path d="M243.80991,189.82249c0.11181,-0.2236 0.33541,-0.1118 0.33541,-0.1118l0.39831,0.21349c0.4145,0.8046 0.41894,1.35813 0.72706,2.26439c0,0 0.07905,0.23717 -0.15812,0.31623c-0.23717,0.07906 -0.31623,-0.15812 -0.31623,-0.15812c-0.28203,-0.86086 -0.25301,-1.31396 -0.60627,-2.06894l-0.26836,-0.11984c0,0 -0.22361,-0.11181 -0.11181,-0.33541z"/><path d="M246.14023,190.06699l-0.26836,0.11984c-0.35326,0.75499 -0.32425,1.20809 -0.60628,2.06895c0,0 -0.07905,0.23717 -0.31622,0.15811c-0.23717,-0.07906 -0.15812,-0.31623 -0.15812,-0.31623c0.30812,-0.90626 0.31256,-1.45979 0.72706,-2.26439l0.39831,-0.21349c0,0 0.2236,-0.11181 0.33541,0.1118c0.11181,0.2236 -0.11181,0.33541 -0.11181,0.33541z" data-paper-data="{&quot;index&quot;:null}"/></g><g fill="#75c07f" stroke="none" stroke-width="0.5" stroke-linecap="butt"><path d="M280.00989,188.62249c0.11181,-0.2236 0.33541,-0.1118 0.33541,-0.1118l0.39831,0.2135c0.4145,0.8046 0.41894,1.35812 0.72706,2.26438c0,0 0.07905,0.23718 -0.15812,0.31623c-0.23717,0.07906 -0.31622,-0.15812 -0.31622,-0.15812c-0.28203,-0.86086 -0.25301,-1.31396 -0.60628,-2.06894l-0.26836,-0.11984c0,0 -0.22361,-0.11181 -0.11181,-0.33541z"/><path d="M282.34022,188.86699l-0.26836,0.11984c-0.35327,0.75499 -0.32424,1.20808 -0.60627,2.06894c0,0 -0.07905,0.23717 -0.31622,0.15812c-0.23717,-0.07906 -0.15812,-0.31623 -0.15812,-0.31623c0.30812,-0.90626 0.31256,-1.45979 0.72706,-2.26439l0.39831,-0.21349c0,0 0.2236,-0.11181 0.33541,0.1118c0.11181,0.2236 -0.11181,0.33541 -0.11181,0.33541z" data-paper-data="{&quot;index&quot;:null}"/></g><g fill="#75c07f" stroke="none" stroke-width="0.5" stroke-linecap="butt"><path d="M272.00989,189.62249c0.11181,-0.2236 0.33541,-0.1118 0.33541,-0.1118l0.39831,0.21349c0.4145,0.8046 0.41894,1.35813 0.72706,2.26439c0,0 0.07906,0.23717 -0.15811,0.31623c-0.23717,0.07906 -0.31623,-0.15812 -0.31623,-0.15812c-0.28203,-0.86086 -0.25301,-1.31396 -0.60627,-2.06894l-0.26836,-0.11984c0,0 -0.22361,-0.11181 -0.11181,-0.33541z"/><path d="M274.34022,189.86699l-0.26836,0.11984c-0.35326,0.75499 -0.32424,1.20809 -0.60627,2.06895c0,0 -0.07906,0.23717 -0.31623,0.15811c-0.23717,-0.07906 -0.15811,-0.31623 -0.15811,-0.31623c0.30812,-0.90626 0.31256,-1.45979 0.72706,-2.26439l0.39831,-0.21349c0,0 0.22361,-0.11181 0.33541,0.1118c0.11181,0.2236 -0.11181,0.33541 -0.11181,0.33541z" data-paper-data="{&quot;index&quot;:null}"/></g><g data-paper-data="{&quot;index&quot;:null}" fill="#75c07f" stroke="none" stroke-width="0.5" stroke-linecap="butt"><g><path d="M266.94021,189.5579l-0.26836,0.11984c-0.35326,0.75499 -0.32425,1.20808 -0.60627,2.06894c0,0 -0.07906,0.23717 -0.31623,0.15812c-0.23717,-0.07906 -0.15811,-0.31623 -0.15811,-0.31623c0.30812,-0.90626 0.31256,-1.45979 0.72706,-2.26438l0.39831,-0.2135c0,0 0.22361,-0.1118 0.33541,0.1118c0.11181,0.2236 -0.11181,0.33541 -0.11181,0.33541z"/><path d="M264.6099,189.13158c0.11181,-0.2236 0.33541,-0.1118 0.33541,-0.1118l0.39831,0.21349c0.4145,0.8046 0.41894,1.35813 0.72706,2.26439c0,0 0.07906,0.23717 -0.15811,0.31623c-0.23717,0.07906 -0.31623,-0.15812 -0.31623,-0.15812c-0.28203,-0.86086 -0.25301,-1.31396 -0.60627,-2.06894l-0.26836,-0.11984c0,0 -0.22361,-0.11181 -0.11181,-0.33541z" data-paper-data="{&quot;index&quot;:null}"/></g><g><path d="M264.54022,190.1579l-0.26836,0.11984c-0.35326,0.75499 -0.32425,1.20808 -0.60627,2.06894c0,0 -0.07906,0.23717 -0.31623,0.15812c-0.23717,-0.07906 -0.15812,-0.31623 -0.15812,-0.31623c0.30812,-0.90626 0.31256,-1.45979 0.72706,-2.26439l0.39831,-0.21349c0,0 0.22361,-0.11181 0.33541,0.1118c0.11181,0.2236 -0.11181,0.33541 -0.11181,0.33541z"/><path d="M262.20989,189.73158c0.11181,-0.2236 0.33541,-0.1118 0.33541,-0.1118l0.39831,0.21349c0.4145,0.8046 0.41894,1.35813 0.72706,2.26439c0,0 0.07905,0.23717 -0.15812,0.31623c-0.23717,0.07906 -0.31623,-0.15811 -0.31623,-0.15811c-0.28203,-0.86086 -0.25301,-1.31396 -0.60627,-2.06895l-0.26836,-0.11984c0,0 -0.22361,-0.11181 -0.11181,-0.33541z" data-paper-data="{&quot;index&quot;:null}"/></g></g><path d="M278.12978,153.93051c0,-2.51604 2.03966,-4.5557 4.5557,-4.5557c2.51604,0 4.5557,2.03966 4.5557,4.5557c0,2.51605 -2.03966,4.55571 -4.5557,4.55571c-2.51605,0 -4.5557,-2.03966 -4.5557,-4.55571z" fill="#859cff" stroke="none" stroke-width="0" stroke-linecap="butt"/><path d="M272.75028,153.54392c0,-5.53695 4.48858,-10.02552 10.02552,-10.02552c5.53695,0 10.02553,4.48858 10.02553,10.02552c0,5.53695 -4.48859,10.02553 -10.02553,10.02553c-5.53695,0 -10.02552,-4.48859 -10.02552,-10.02553z" fill="url(#color-3)" stroke="none" stroke-width="0" stroke-linecap="butt"/></g></g></svg>