<svg version="1.1" xmlns="http://www.w3.org/2000/svg" xmlns:xlink="http://www.w3.org/1999/xlink" width="113.90113" height="41.3863" viewBox="0,0,113.90113,41.3863"><defs><linearGradient x1="196.30457" y1="164.70791" x2="196.30457" y2="197.84287" gradientUnits="userSpaceOnUse" id="color-1"><stop offset="0" stop-color="#ffb500"/><stop offset="1" stop-color="#ff6e00"/></linearGradient><linearGradient x1="219.23572" y1="164.70791" x2="219.23572" y2="197.84287" gradientUnits="userSpaceOnUse" id="color-2"><stop offset="0" stop-color="#ffb500"/><stop offset="1" stop-color="#ff6e00"/></linearGradient><linearGradient x1="245.43105" y1="162.15696" x2="245.43105" y2="197.84305" gradientUnits="userSpaceOnUse" id="color-3"><stop offset="0" stop-color="#ffb500"/><stop offset="1" stop-color="#ff6e00"/></linearGradient><linearGradient x1="277.74327" y1="162.15694" x2="277.74327" y2="197.84295" gradientUnits="userSpaceOnUse" id="color-4"><stop offset="0" stop-color="#ffb500"/><stop offset="1" stop-color="#ff6e00"/></linearGradient></defs><g transform="translate(-182.53587,-159.24889)"><g data-paper-data="{&quot;isPaintingLayer&quot;:true}" fill-rule="nonzero" stroke-linecap="butt" stroke-linejoin="miter" stroke-miterlimit="10" stroke-dasharray="" stroke-dashoffset="0" style="mix-blend-mode: normal"><path d="M196.96288,164.70791c6.21739,0.69489 9.32609,1.13378 9.32609,1.31664c0.07317,13.67824 0.10975,24.13807 0.10975,31.37952v0.2194l-0.10975,0.2194l-9.65525,-0.32909c0,-0.07314 -0.03658,-0.10969 -0.10975,-0.10969c0.43888,-12.23363 0.65832,-18.74363 0.65832,-19.52994l-3.29156,3.18186c-0.18286,-0.10969 -2.74298,-2.8161 -7.68032,-8.11919c3.87671,-3.0721 7.46088,-5.81507 10.75242,-8.22889z" data-paper-data="{&quot;origPos&quot;:null}" id="path3801" fill="none" stroke="#000000" stroke-width="5"/><path d="M219.89406,164.70791c6.21739,0.69489 9.32609,1.13378 9.32609,1.31664c0.07317,13.67824 0.10975,24.13807 0.10975,31.37952v0.2194l-0.10975,0.2194l-9.65525,-0.32909c0,-0.07314 -0.03658,-0.10969 -0.10975,-0.10969c0.43888,-12.23363 0.65832,-18.74363 0.65832,-19.52994l-3.29156,3.18186c-0.18286,-0.10969 -2.74298,-2.8161 -7.68032,-8.11919c3.87673,-3.0721 7.46088,-5.81507 10.75242,-8.22889z" data-paper-data="{&quot;origPos&quot;:null}" id="path3803" fill="none" stroke="#000000" stroke-width="5"/><path d="M240.2743,162.15696l12.06905,2.13951l-1.15203,9.1615c2.39552,-0.12799 4.15103,-0.19197 5.26649,-0.19197h1.7555l0.38404,-0.19197l0.19201,0.38395c-0.38401,5.55909 -0.71318,8.68608 -0.98748,9.38098l-0.38404,-0.2194c-0.27431,0 -2.74298,-0.12799 -7.40601,-0.38395c-0.25602,4.29733 -0.44804,9.4358 -0.57603,15.41547l-0.38404,0.19197c-5.88824,-0.38404 -9.39923,-0.71318 -10.53299,-0.9875l0.19201,-0.76802c0,-1.59091 0.25602,-6.52823 0.76804,-14.812c-4.93734,-0.27424 -7.40603,-0.60341 -7.40603,-0.98746c0.25602,-6.10768 0.58519,-9.1615 0.98748,-9.1615l7.21401,1.37145v-2.35894c0,-1.92007 -0.07314,-4.51675 -0.21944,-7.79002c0.1463,0 0.21944,-0.06398 0.21944,-0.19197z" data-paper-data="{&quot;origPos&quot;:null}" id="path3805" fill="none" stroke="#000000" stroke-width="5"/><path d="M273.98535,162.15696c0.10973,0.16455 0.62174,5.17501 1.53605,15.03144c7.05858,-2.15778 10.81644,-3.23667 11.2736,-3.23667l6.99455,4.77275c-1.13376,10.42327 -1.87435,16.51265 -2.22181,18.26815l-9.7101,0.32909c0,-0.10969 -0.064,-0.16455 -0.19201,-0.16455l0.19201,-0.68574c0,-1.48121 0.21944,-5.97969 0.65832,-13.49541c-2.66982,-0.10969 -4.65391,-0.16455 -5.95224,-0.16455h-0.68574c0.7863,8.35692 1.17948,12.91025 1.17948,13.65999l-9.21635,1.37149c-0.34745,-1.17034 -2.39552,-12.09649 -6.14426,-32.77844c0,-0.58519 1.42636,-1.04233 4.27904,-1.37149c3.60242,-1.02406 6.27225,-1.53608 8.00945,-1.53608z" data-paper-data="{&quot;origPos&quot;:null}" id="path3807" fill="none" stroke="#000000" stroke-width="5"/><path d="M196.96289,164.70791c6.21739,0.69489 9.32609,1.13378 9.32609,1.31664c0.07317,13.67826 0.10975,24.13804 0.10975,31.37952v0.2194l-0.10975,0.2194l-9.65527,-0.32909c0,-0.07317 -0.03658,-0.10969 -0.10975,-0.10969c0.43888,-12.23366 0.65832,-18.74361 0.65832,-19.52994l-3.29156,3.18186c-0.18286,-0.10969 -2.74298,-2.8161 -7.68032,-8.11919c3.87671,-3.07208 7.46088,-5.81509 10.75242,-8.22889z" data-paper-data="{&quot;origPos&quot;:null}" id="path3801" fill="url(#color-1)" stroke="none" stroke-width="0.26459"/><path d="M219.89404,164.70791c6.21739,0.69489 9.32609,1.13378 9.32609,1.31664c0.07317,13.67826 0.10975,24.13804 0.10975,31.37952v0.2194l-0.10975,0.2194l-9.65527,-0.32909c0,-0.07317 -0.03658,-0.10969 -0.10975,-0.10969c0.43888,-12.23366 0.65832,-18.74361 0.65832,-19.52994l-3.29156,3.18186c-0.18286,-0.10969 -2.74298,-2.8161 -7.68032,-8.11919c3.87671,-3.07208 7.46088,-5.81509 10.75242,-8.22889z" data-paper-data="{&quot;origPos&quot;:null}" id="path3803" fill="url(#color-2)" stroke="none" stroke-width="0.26459"/><path d="M240.27433,162.15696l12.06907,2.13951l-1.15205,9.1615c2.39552,-0.12797 4.15101,-0.19197 5.26646,-0.19197h1.75547l0.38404,-0.19197l0.19201,0.38395c-0.38404,5.55912 -0.71321,8.68608 -0.98746,9.38098l-0.38404,-0.2194c-0.27433,0 -2.74298,-0.12797 -7.40598,-0.38395c-0.25602,4.29733 -0.44804,9.43583 -0.57605,15.41547l-0.38404,0.19197c-5.88826,-0.38404 -9.39921,-0.71321 -10.53299,-0.9875l0.19201,-0.76802c0,-1.59093 0.25602,-6.52822 0.76802,-14.812c-4.93734,-0.27424 -7.40603,-0.60339 -7.40603,-0.98746c0.25602,-6.1077 0.58521,-9.1615 0.9875,-9.1615l7.21401,1.37145v-2.35894c0,-1.92007 -0.07317,-4.51672 -0.21944,-7.79002c0.14628,0 0.21944,-0.064 0.21944,-0.19197z" data-paper-data="{&quot;origPos&quot;:null}" id="path3805" fill="url(#color-3)" stroke="none" stroke-width="0.26459"/><path d="M273.98537,162.15696c0.10969,0.16455 0.62174,5.175 1.53603,15.03144c7.05858,-2.15778 10.81644,-3.23667 11.27363,-3.23667l6.99457,4.77275c-1.13378,10.42329 -1.87433,16.51264 -2.22183,18.26815l-9.71008,0.32909c0,-0.10969 -0.064,-0.16455 -0.19201,-0.16455l0.19201,-0.68574c0,-1.48123 0.21944,-5.97969 0.65832,-13.49541c-2.66982,-0.10969 -4.65389,-0.16455 -5.95222,-0.16455h-0.68574c0.78629,8.35695 1.17948,12.91025 1.17948,13.65999l-9.21635,1.37149c-0.34745,-1.17036 -2.39552,-12.09649 -6.14424,-32.77844c0,-0.58516 1.42634,-1.04235 4.27902,-1.37149c3.60242,-1.02408 6.27225,-1.53608 8.00945,-1.53608z" data-paper-data="{&quot;origPos&quot;:null}" id="path3807" fill="url(#color-4)" stroke="none" stroke-width="0.26459"/></g></g></svg>