<svg version="1.1" xmlns="http://www.w3.org/2000/svg" xmlns:xlink="http://www.w3.org/1999/xlink" width="213.98518" height="41.94219" viewBox="0,0,213.98518,41.94219"><defs><radialGradient cx="240.43057" cy="189.99671" r="109.56632" gradientUnits="userSpaceOnUse" id="color-1"><stop offset="0" stop-color="#000000"/><stop offset="1" stop-color="#000000" stop-opacity="0"/></radialGradient><linearGradient x1="130.86425" y1="177.40728" x2="130.86425" y2="202.58614" gradientUnits="userSpaceOnUse" id="color-2"><stop offset="0" stop-color="#000000" stop-opacity="0"/><stop offset="1" stop-color="#000000" stop-opacity="0"/></linearGradient><radialGradient cx="240.89688" cy="188.34048" r="103.03779" gradientUnits="userSpaceOnUse" id="color-3"><stop offset="0" stop-color="#658585"/><stop offset="1" stop-color="#658585" stop-opacity="0"/></radialGradient><linearGradient x1="130.86425" y1="177.06678" x2="130.86425" y2="202.24563" gradientUnits="userSpaceOnUse" id="color-4"><stop offset="0" stop-color="#000000" stop-opacity="0"/><stop offset="1" stop-color="#000000" stop-opacity="0"/></linearGradient><linearGradient x1="135.94141" y1="180.33274" x2="153.64016" y2="180.33274" gradientUnits="userSpaceOnUse" id="color-5"><stop offset="0" stop-color="#a28f90"/><stop offset="1" stop-color="#8e807f"/></linearGradient><linearGradient x1="135.76143" y1="179.61913" x2="343.89323" y2="179.61913" gradientUnits="userSpaceOnUse" id="color-6"><stop offset="0" stop-color="#fff18e"/><stop offset="1" stop-color="#eed16d"/></linearGradient><linearGradient x1="342.30423" y1="174.94715" x2="342.30423" y2="163.86188" gradientUnits="userSpaceOnUse" id="color-7"><stop offset="0" stop-color="#fff18e"/><stop offset="1" stop-color="#eed16d"/></linearGradient><linearGradient x1="342.30423" y1="186.01166" x2="342.30423" y2="196.55065" gradientUnits="userSpaceOnUse" id="color-8"><stop offset="0" stop-color="#fff18e"/><stop offset="1" stop-color="#eed16d"/></linearGradient></defs><g transform="translate(-135.67277,-160.99665)"><g data-paper-data="{&quot;isPaintingLayer&quot;:true}" fill-rule="nonzero" stroke-linejoin="miter" stroke-miterlimit="10" stroke-dasharray="" stroke-dashoffset="0" style="mix-blend-mode: normal"><path d="M137.85909,177.40728l206.07559,-0.92452v5.27214l-14.65582,19.12432h-178.38392l-12.6922,-17.74532z" fill="url(#color-1)" stroke="url(#color-2)" stroke-width="4.11922" stroke-linecap="round"/><path d="M137.85909,177.06678l206.07559,-0.92452v5.27215l-14.65582,19.12432h-178.38393l-12.69219,-17.74532z" fill="url(#color-3)" stroke="url(#color-4)" stroke-width="4.11922" stroke-linecap="round"/><path d="M332.33036,162.06908l11.74285,18.86577l-11.74285,17.66157h-180.06309c-0.30718,-4.08083 -0.26042,-8.22398 -0.48925,-12.30707c-0.3082,-5.49933 -0.41286,-11.30332 0.15811,-16.78002c0.25896,-2.48381 0.56987,-4.96315 0.90118,-7.44025z" fill="#8e807f" stroke="none" stroke-width="0" stroke-linecap="butt"/><path d="M148.08915,198.59642l-12.14777,-16.85877l12.14777,-19.66857h5.55101c-0.32705,2.44966 -0.63384,4.90148 -0.88991,7.35773c-0.57534,5.51836 -0.47172,11.36581 -0.16116,16.90708c0.228,4.06833 0.18398,8.19572 0.48594,12.26254z" fill="url(#color-5)" stroke="none" stroke-width="0" stroke-linecap="butt"/><path d="M147.9092,197.88281l-12.14777,-16.85877l12.14777,-19.66857h184.24118l11.74285,18.86577l-11.74285,17.66157z" fill="url(#color-6)" stroke="none" stroke-width="0" stroke-linecap="butt"/><g stroke="#ffffff" stroke-width="0.5"><path d="M155.46766,186.67682c0,0 -1.07357,-0.00324 -1.6928,-0.25171c-0.61922,-0.24847 -1.26411,-0.59882 -1.86211,-1.17466c-0.59798,-0.57583 -1.52352,-2.09759 -1.52352,-2.09759c0,0 -0.77922,-1.3325 -1.01568,-2.601c-0.23646,-1.26851 -0.08465,-4.69859 -0.08465,-4.69859c0,0 0.37496,-1.91805 0.93104,-3.02052c0.2466,-0.48891 1.20702,-1.99657 2.26091,-2.96886c1.32255,-1.22015 2.84101,-1.9348 3.83322,-2.56878c1.78289,-1.13916 5.84019,-1.09073 5.84019,-1.09073" fill="none" stroke-linecap="round"/><path d="M151.65887,178.03475c0,2.59496 -0.49262,4.69859 -1.10031,4.69859c-0.60769,0 -1.10033,-2.10363 -1.10033,-4.69859c0,-2.59496 0.49264,-4.69859 1.10033,-4.69859c0.60769,0 1.10031,2.10363 1.10031,4.69859z" fill="#ffffff" stroke-linecap="butt"/><path d="M162.06966,177.61524c-2.10404,0.40602 -4.55827,-0.88943 -5.47874,-2.85154c-0.28392,-0.60523 -0.19218,-1.50165 -0.19218,-2.14072c0,-2.71081 2.70813,-5.157 5.50163,-4.90836c0.48732,0.04339 0.46295,2.58145 0.42918,5.11597c-0.03156,2.36827 -0.04987,4.74411 -0.25989,4.78463z" fill="#ffffff" stroke-linecap="butt"/><path d="M160.12293,184.24362c0,0.78775 -0.22737,1.42636 -0.50784,1.42636c-0.28046,0 -0.50784,-0.63862 -0.50784,-1.42636c0,-0.78775 0.22736,-1.42634 0.50784,-1.42634c0.28046,0 0.50784,0.63859 0.50784,1.42634z" fill="#ffffff" stroke-linecap="butt"/><path d="M161.98504,188.43879c0,0 -1.02526,-0.09063 -1.43889,-0.25171c-0.41364,-0.16109 -0.93106,-0.67123 -0.93106,-0.67123" fill="#ffffff" stroke-linecap="round"/><path d="M159.0226,192.13054l-0.59247,1.00684l-1.0157,2.0976h-1.60816l-0.08465,1.25857l2.79313,0.1678l-0.08463,0.67123l-3.13171,-0.16782v-0.67122l0.67713,-1.76198l2.03138,-2.85273l0.84641,-0.50341z" fill="#ffffff" stroke-linecap="round"/><path d="M158.43013,197.33255l1.60817,-5.20201" fill="#ffffff" stroke-linecap="round"/><path d="M162.49285,194.89934l-2.96242,0.08391" fill="#ffffff" stroke-linecap="round"/><path d="M162.49287,191.4593c0,0 -1.9698,0.0416 -3.13171,-0.33561c-1.16191,-0.37721 -1.79771,-0.78251 -2.26718,-1.41715c-0.4614,-0.62374 -1.11843,-2.19071 -1.11843,-2.19071c0,0 -0.3684,-3.08598 0.21482,-5.06994c0.34048,-1.1582 1.56321,-1.60895 1.90119,-1.72623c0.44864,-0.15567 1.5727,-0.49105 2.60384,-0.53593c1.07633,-0.04684 1.79746,-0.05139 1.79746,-0.05139" fill="none" stroke-linecap="round"/><path d="M162.10632,166.20438c0,0 4.0573,-0.04841 5.84019,1.09073c0.99221,0.63397 2.51065,1.34863 3.83322,2.56878c1.0539,0.97229 2.01431,2.47994 2.26091,2.96886c0.55608,1.10246 0.93106,3.02052 0.93106,3.02052c0,0 0.15182,3.43008 -0.08465,4.69859c-0.23646,1.26851 -1.01568,2.601 -1.01568,2.601c0,0 -0.92554,1.52175 -1.52352,2.09759c-0.59798,0.57583 -1.24286,0.92619 -1.8621,1.17466c-0.61922,0.24847 -1.69281,0.25171 -1.69281,0.25171" data-paper-data="{&quot;index&quot;:null}" fill="none" stroke-linecap="round"/><path d="M173.70206,173.33617c0.60769,0 1.10033,2.10363 1.10033,4.69859c0,2.59496 -0.49264,4.69859 -1.10033,4.69859c-0.60769,0 -1.10033,-2.10363 -1.10033,-4.69859c0,-2.59496 0.49264,-4.69859 1.10033,-4.69859z" data-paper-data="{&quot;index&quot;:null}" fill="#ffffff" stroke-linecap="butt"/><path d="M161.93107,172.83061c-0.03377,-2.53453 -0.05813,-5.07259 0.42918,-5.11597c2.7935,-0.24864 5.50163,2.19756 5.50163,4.90836c0,0.63907 0.09174,1.53549 -0.19218,2.14072c-0.92047,1.9621 -3.3747,3.25754 -5.47874,2.85154c-0.21003,-0.04052 -0.22833,-2.41636 -0.25989,-4.78463z" data-paper-data="{&quot;index&quot;:null}" fill="#ffffff" stroke-linecap="butt"/><path d="M164.64554,182.81725c0.28046,0 0.50784,0.63859 0.50784,1.42634c0,0.78775 -0.22736,1.42636 -0.50784,1.42636c-0.28046,0 -0.50784,-0.63862 -0.50784,-1.42636c0,-0.78775 0.22737,-1.42634 0.50784,-1.42634z" data-paper-data="{&quot;index&quot;:null}" fill="#ffffff" stroke-linecap="butt"/><path d="M164.64554,187.51584c0,0 -0.51741,0.51014 -0.93106,0.67123c-0.41364,0.16108 -1.43889,0.25171 -1.43889,0.25171" data-paper-data="{&quot;index&quot;:null}" fill="#ffffff" stroke-linecap="round"/><path d="M165.40731,191.37541l0.84641,0.50341l2.03138,2.85273l0.67712,1.76198v0.67122l-3.1317,0.16782l-0.08465,-0.67123l2.79313,-0.1678l-0.08465,-1.25857h-1.60816l-1.0157,-2.0976l-0.59247,-1.00684z" data-paper-data="{&quot;index&quot;:null}" fill="#ffffff" stroke-linecap="round"/><path d="M165.8305,197.33255l-1.60817,-5.20201" data-paper-data="{&quot;index&quot;:null}" fill="#ffffff" stroke-linecap="round"/><path d="M161.76775,194.89934l2.9624,0.08391" data-paper-data="{&quot;index&quot;:null}" fill="#ffffff" stroke-linecap="round"/><path d="M161.76772,180.13234c0,0 0.72114,0.00456 1.79746,0.05139c1.03112,0.04488 2.15517,0.38027 2.60384,0.53593c0.33799,0.11727 1.56073,0.56803 1.90119,1.72623c0.58322,1.98396 0.21484,5.06994 0.21484,5.06994c0,0 -0.65701,1.56698 -1.11844,2.19071c-0.46949,0.63463 -1.10529,1.03993 -2.26719,1.41715c-1.16191,0.37721 -3.1317,0.33561 -3.1317,0.33561" data-paper-data="{&quot;index&quot;:null}" fill="none" stroke-linecap="round"/></g><g data-paper-data="{&quot;index&quot;:null}" stroke="none" stroke-linecap="butt"><path d="M339.28197,163.28173l10.37598,17.11073h-4.07281l-10.37598,-17.11073z" data-paper-data="{&quot;index&quot;:null}" fill="#8e807f" stroke-width="NaN"/><path d="M335.20914,198.38156l10.37598,-16.26749h4.07281l-10.37598,16.26749z" data-paper-data="{&quot;index&quot;:null}" fill="#8e807f" stroke-width="NaN"/><path d="M339.28197,162.62588l10.37598,17.11073h-4.07281l-10.37598,-17.11073z" data-paper-data="{&quot;index&quot;:null}" fill="url(#color-7)" stroke-width="NaN"/><path d="M335.20914,197.72573l10.37598,-16.26749h4.07281l-10.37598,16.26749z" data-paper-data="{&quot;index&quot;:null}" fill="url(#color-8)" stroke-width="NaN"/></g><g stroke="#fff5ac" stroke-linecap="round"><path d="M233.57656,197.11533c0.38915,-0.8721 2.29132,-2.72147 5.06924,-4.71133l0.16352,-0.22875c-0.67599,-4.50881 -0.63617,-8.10636 -0.11451,-8.45543c0.48867,-0.31361 3.10207,1.4791 6.00559,4.46575l0.22498,0.02516c3.34445,-2.07746 5.96254,-3.08291 6.37965,-2.68174c0.24852,0.23899 0.52359,2.63813 -0.3551,5.3215c-0.30955,0.9453 -0.87584,1.72155 -1.26005,2.80044c0,0 0.97437,1.09611 2.10717,2.69995c0.13314,0.18851 0.26356,0.37951 0.39022,0.57088" data-paper-data="{&quot;index&quot;:null}" fill="none" stroke-width="0.65"/><g fill="#fff5ac" stroke-width="0"><path d="M244.2078,190.61685c0.25005,-0.18277 0.62375,-0.10135 0.87777,0.13749c0.4609,0.43354 0.79928,1.0917 1.08119,1.72924c0.26365,0.58619 0.46919,1.23699 0.52833,1.87935c0.03718,0.37534 0.01105,0.85484 -0.23763,1.01783c-0.23955,0.15688 -0.54599,0.07335 -0.86309,-0.2332c-0.40283,-0.38658 -0.76426,-0.93141 -1.09583,-1.63357c-0.33159,-0.70221 -0.54182,-1.31724 -0.60278,-1.96348c-0.04085,-0.42613 0.08911,-0.79995 0.31203,-0.93368z"/></g><g fill="#fff5ac" stroke-width="0"><path d="M240.83043,192.84839c0.25005,-0.18277 0.62375,-0.10135 0.87777,0.13748c0.4609,0.43354 0.79927,1.09171 1.08117,1.72925c0.26365,0.58619 0.46921,1.237 0.52833,1.87935c0.01267,0.12781 0.01798,0.26769 0.00966,0.40303c-0.48054,0.01237 -0.95722,0.02346 -1.42933,0.03201c-0.27777,-0.34422 -0.53524,-0.77232 -0.77685,-1.28396c-0.33159,-0.70221 -0.54181,-1.31724 -0.60278,-1.96348c-0.04085,-0.42613 0.08911,-0.79995 0.31203,-0.93368z"/></g></g><g stroke="#fff5ac" stroke-linecap="round"><path d="M224.19744,177.50968c0.14891,-0.7957 0.83316,-2.54442 0.83316,-2.54442c0,0 -1.51713,-0.98619 -2.01948,-1.46379c-1.15058,-1.0939 -1.5786,-2.19277 -1.47201,-2.37367c0.13209,-0.22418 1.45219,-0.69264 2.71854,-0.92198c1.01265,-0.18339 1.7803,-0.24118 1.7803,-0.24118c0.2536,-0.92329 0.29491,-1.6008 0.53541,-2.34598c0.49211,-1.52481 1.42056,-2.49753 1.67896,-2.49483c0.35368,0.0037 1.24236,1.82839 2.09751,4.57283l0.10328,0.15351c2.48231,0.00542 4.39661,0.45842 4.52309,0.90351c0.11133,0.41538 -1.14409,2.22961 -3.06954,4.12845l-0.03919,0.17133c0.72518,2.8347 0.96171,4.98092 0.69998,5.25697c-0.15592,0.16448 -1.46707,0.09604 -2.79773,-0.89956c-0.46878,-0.35071 -0.81798,-0.88053 -1.34945,-1.30478c0,0 -0.69619,0.62623 -1.68136,1.31559c-1.11149,0.77776 -2.31722,1.33429 -2.50623,1.18588c-0.16213,-0.12732 -0.34538,-1.441 -0.03527,-3.09791z" data-paper-data="{&quot;index&quot;:null}" fill="none" stroke-width="0.65"/><g fill="#fff5ac" stroke-width="0"><path d="M230.66625,174.21521c0.06885,0.21517 -0.01735,0.4951 -0.17383,0.66387c-0.284,0.3062 -0.67382,0.49109 -1.04615,0.63467c-0.34285,0.13545 -0.71351,0.21834 -1.0629,0.18875c-0.20445,-0.01524 -0.45723,-0.09176 -0.51569,-0.30353c-0.05626,-0.20398 0.02338,-0.43158 0.2232,-0.64125c0.2523,-0.26669 0.58429,-0.48277 0.99677,-0.65723c0.41251,-0.17448 0.76464,-0.2652 1.11631,-0.23656c0.23197,0.01835 0.41648,0.16292 0.46228,0.35131z"/></g><g fill="#fff5ac" stroke-width="0"><path d="M229.86268,171.33691c0.06885,0.21517 -0.01735,0.49511 -0.17383,0.66388c-0.284,0.3062 -0.67382,0.49106 -1.04615,0.63465c-0.34285,0.13545 -0.71351,0.21834 -1.06289,0.18875c-0.20445,-0.01524 -0.45723,-0.09176 -0.51569,-0.30353c-0.05626,-0.20398 0.02338,-0.43158 0.2232,-0.64123c0.2523,-0.26669 0.5843,-0.48277 0.99678,-0.65723c0.41251,-0.17448 0.76462,-0.26517 1.1163,-0.23658c0.23197,0.01835 0.41648,0.16292 0.46228,0.35131z"/></g></g><g stroke="#fff5ac" stroke-linecap="round"><path d="M268.89223,161.49583c0.23461,0.58786 0.46527,1.33028 0.63112,2.18908l-0.00001,-0.00002c0.20368,1.05446 0.22583,3.62651 0.22583,3.62651c0,0 2.28047,0.09349 3.10794,0.3045c1.89523,0.48325 2.9317,1.48767 2.89131,1.77926c-0.05004,0.36136 -1.39891,1.861 -2.79825,3.03732c-1.11903,0.94064 -2.0062,1.5569 -2.0062,1.5569c0.14,1.28119 0.4153,2.1181 0.48562,3.17769c0.14389,2.16813 -0.4967,3.98945 -0.80593,4.17049c-0.42328,0.24779 -2.35641,-1.29316 -4.69015,-3.95417l-0.19663,-0.1093c-2.96096,1.76358 -5.45942,2.58872 -5.82331,2.14847c-0.33164,-0.41566 0.29552,-3.47302 1.68069,-7.10901l-0.03538,-0.23213c-2.22207,-2.86125 -3.53201,-5.25042 -3.35232,-5.76604c0.10704,-0.3072 1.70243,-1.16059 3.76518,-0.92288c0.72668,0.08373 1.39663,0.46615 2.23323,0.59277c0,0 0.52977,-1.24275 1.37364,-2.76681c0.36067,-0.65133 0.75266,-1.27449 1.11658,-1.79507" data-paper-data="{&quot;index&quot;:null}" fill="none" stroke-width="0.65"/><g fill="#fff5ac" stroke-width="0"><path d="M263.39197,172.22385c-0.18512,-0.20733 -0.21647,-0.60242 -0.11083,-0.91513c0.19182,-0.56742 0.56781,-1.06574 0.94275,-1.50235c0.34371,-0.40591 0.74576,-0.76897 1.17633,-0.98287c0.25097,-0.12763 0.58887,-0.21668 0.75998,-0.00598c0.16475,0.20299 0.17886,0.53101 0.04117,0.92337c-0.17294,0.49775 -0.46511,0.99199 -0.87313,1.49405c-0.40805,0.5021 -0.78426,0.86128 -1.21707,1.07793c-0.28525,0.14354 -0.57438,0.10282 -0.71921,-0.08904z"/></g><g fill="#fff5ac" stroke-width="0"><path d="M265.72836,175.08116c-0.18512,-0.20733 -0.21647,-0.60245 -0.11083,-0.91515c0.19182,-0.56742 0.56782,-1.06572 0.94277,-1.50232c0.34371,-0.40591 0.74576,-0.76897 1.17632,-0.98287c0.25097,-0.12763 0.58887,-0.21668 0.75998,-0.00598c0.16475,0.20299 0.17886,0.53101 0.04116,0.92337c-0.17294,0.49775 -0.46511,0.99199 -0.87313,1.49405c-0.40805,0.5021 -0.78426,0.86126 -1.21707,1.07793c-0.28525,0.14354 -0.57439,0.10282 -0.71921,-0.08904z"/></g></g><g data-paper-data="{&quot;index&quot;:null}" stroke="#fff5ac" stroke-linecap="round"><path d="M310.65547,161.59564c0.0773,0.43805 0.14079,0.91234 0.18264,1.41629h-0.00003c0.10454,1.25858 -0.19003,4.24047 -0.19003,4.24047c0,0 2.62863,0.5309 3.56035,0.92854c2.13407,0.91074 3.20901,2.26571 3.12595,2.5958c-0.10293,0.40909 -1.8513,1.89532 -3.61786,2.99788c-1.41268,0.88166 -2.51654,1.43071 -2.51654,1.43071c0.0026,1.50926 0.21713,2.52922 0.16661,3.76901c-0.10335,2.53686 -1.07172,4.5268 -1.45229,4.6791c-0.5209,0.20843 -2.56717,-1.9339 -4.93781,-5.44723l-0.21406,-0.16299c-3.64766,1.49305 -6.64299,1.98534 -7.00951,1.40818c-0.33222,-0.54268 0.77452,-3.96615 2.83088,-7.91908l-0.01206,-0.27533c-2.21644,-3.72448 -3.43558,-6.73332 -3.16333,-7.29699c0.16218,-0.33583 2.1155,-1.02819 4.47408,-0.37068c0.83088,0.2316 1.55893,0.79853 2.51175,1.10017c0,0 0.76807,-1.34062 1.93481,-2.94872c0.08805,-0.12134 0.17711,-0.2415 0.26678,-0.36003" data-paper-data="{&quot;index&quot;:null}" fill="none" stroke-width="0.65"/><g fill="#fff5ac" stroke-width="0"><path d="M302.67636,171.76171c-0.18853,-0.27435 -0.17562,-0.7376 -0.01438,-1.08007c0.29273,-0.62141 0.79005,-1.12865 1.27853,-1.56466c0.44848,-0.40624 0.95915,-0.75209 1.48428,-0.91993c0.30645,-0.10124 0.70875,-0.14173 0.88061,0.13392c0.16546,0.26554 0.14096,0.64797 -0.06729,1.07669c-0.26221,0.54423 -0.662,1.06229 -1.1969,1.56794c-0.53494,0.50568 -1.0152,0.8518 -1.54329,1.02242c-0.34812,0.11332 -0.6778,0.01258 -0.8216,-0.2364z"/></g><g fill="#fff5ac" stroke-width="0"><path d="M305.02563,175.50278c-0.18853,-0.27435 -0.17563,-0.7376 -0.0144,-1.08007c0.29273,-0.62141 0.79006,-1.12863 1.27854,-1.56462c0.44848,-0.40624 0.95917,-0.75209 1.48429,-0.91993c0.30645,-0.10124 0.70874,-0.14173 0.88061,0.13392c0.16546,0.26554 0.14096,0.64793 -0.06731,1.07666c-0.26221,0.54423 -0.66198,1.06229 -1.19689,1.56794c-0.53494,0.50568 -1.0152,0.85178 -1.54329,1.02244c-0.34812,0.11332 -0.6778,0.01258 -0.82159,-0.23638z"/></g></g><g data-paper-data="{&quot;index&quot;:null}" stroke="#fff5ac" stroke-linecap="round"><path d="M309.79224,196.48003c0.22095,-0.62805 1.38155,-2.09755 3.03813,-3.62564l0.03919,-0.16026c-0.72517,-2.65151 -0.96171,-4.659 -0.69998,-4.91721c0.15592,-0.15385 1.46708,-0.08983 2.79773,0.84143c0.46878,0.32806 0.81797,0.82363 1.34944,1.22045c0,0 0.69619,-0.58574 1.68136,-1.23056c1.11151,-0.72749 2.31722,-1.24807 2.50623,-1.10922c0.16213,0.11908 0.34538,1.34786 0.03527,2.89768h-0.00001c-0.14891,0.74425 -0.83316,2.37997 -0.83316,2.37997c0,0 1.51713,0.92244 2.01948,1.36919c1.15058,1.02321 1.5786,2.05106 1.47203,2.22027c-0.12164,0.19309 -1.25071,0.57996 -2.4175,0.80748" data-paper-data="{&quot;index&quot;:null}" fill="none" stroke-width="0.65"/><g fill="#fff5ac" stroke-width="0"><path d="M314.07077,193.47819c-0.06886,-0.20127 0.01735,-0.4631 0.17383,-0.62096c0.284,-0.28641 0.67382,-0.45934 1.04615,-0.59365c0.34285,-0.1267 0.71351,-0.20422 1.06289,-0.17656c0.20445,0.01425 0.45723,0.08583 0.51569,0.28392c0.05626,0.19079 -0.02338,0.40368 -0.22318,0.5998c-0.25232,0.24946 -0.5843,0.45156 -0.99678,0.61475c-0.41251,0.16321 -0.76464,0.24805 -1.11631,0.22128c-0.23197,-0.01717 -0.41647,-0.15239 -0.46228,-0.32861z"/></g><g fill="#fff5ac" stroke-width="0"><path d="M315.04816,195.54949c0.284,-0.28641 0.67382,-0.45933 1.04615,-0.59362c0.34285,-0.1267 0.71352,-0.20422 1.0629,-0.17656c0.20445,0.01425 0.45723,0.08583 0.51569,0.28392c0.05626,0.19079 -0.02338,0.40368 -0.2232,0.59979c-0.22952,0.22692 -0.52495,0.41464 -0.88692,0.56956c-0.56748,-0.06734 -1.13718,-0.11245 -1.70647,-0.13557c-0.02951,-0.18811 0.05383,-0.40826 0.19186,-0.54752z"/></g></g><g data-paper-data="{&quot;index&quot;:null}" stroke="#fff5ac" stroke-linecap="round"><path d="M273.60842,198.10886c-1.54281,-1.01256 -2.43896,-2.61082 -2.39965,-3.02128c0.05449,-0.56894 2.15497,-1.7393 5.24544,-2.72437l0.18078,-0.14441c0.36027,-3.99606 1.12355,-7.01367 1.623,-7.15375c0.46517,-0.11994 2.24821,2.16044 4.02712,5.53178l0.17973,0.08755c3.16956,-0.76292 5.52467,-0.83733 5.78591,-0.3765c0.15563,0.27454 -0.10558,2.37589 -1.37241,4.37628c-0.44628,0.70471 -1.06919,1.19133 -1.60393,1.98651c0,0 0.24148,0.50575 0.57564,1.31842" data-paper-data="{&quot;index&quot;:null}" fill="none" stroke-width="0.65"/><g fill="#fff5ac" stroke-width="0"><path d="M281.3867,192.49882c0.24255,-0.08015 0.53301,0.09863 0.69322,0.37467c0.29063,0.50101 0.43498,1.15505 0.5371,1.77501c0.09757,0.57136 0.1343,1.18002 0.05241,1.73836c-0.04567,0.32704 -0.16453,0.7231 -0.40192,0.78701c-0.22865,0.06146 -0.46344,-0.09926 -0.66171,-0.45091c-0.25243,-0.44433 -0.43874,-1.00973 -0.56855,-1.69878c-0.12982,-0.68911 -0.17766,-1.26904 -0.09649,-1.83117c0.05297,-0.37089 0.23566,-0.64732 0.44598,-0.69417z"/></g><g fill="#fff5ac" stroke-width="0"><path d="M278.1588,193.38175c0.24255,-0.08015 0.53304,0.09863 0.69323,0.37467c0.29063,0.50101 0.43495,1.15505 0.53707,1.77503c0.09757,0.57136 0.1343,1.18002 0.05241,1.73835c-0.03634,0.26006 -0.11892,0.56378 -0.2706,0.7094c-0.14749,0.00858 -0.29481,0.01767 -0.44185,0.02726c-0.12335,-0.07299 -0.24274,-0.20822 -0.35118,-0.40059c-0.25243,-0.44433 -0.43874,-1.00971 -0.56854,-1.69877c-0.12982,-0.68911 -0.17765,-1.269 -0.09651,-1.83117c0.05297,-0.37089 0.23567,-0.64732 0.44598,-0.69417z"/></g></g><g data-paper-data="{&quot;index&quot;:null}" stroke="#fff5ac" stroke-linecap="round"><path d="M333.18771,184.34261c-0.39063,-0.25192 -1.18812,-1.08349 -1.18812,-1.08349c0,0 -0.77502,1.01243 -1.11065,1.32185c-0.7687,0.70869 -1.41647,0.85404 -1.49285,0.74015c-0.09464,-0.14115 -0.11397,-1.24885 -0.01745,-2.27381c0.0772,-0.81966 0.17819,-1.4271 0.17819,-1.4271c-0.43944,-0.35524 -0.78669,-0.5032 -1.13524,-0.81779c-0.71322,-0.64373 -1.06318,-1.53273 -1.0176,-1.73343c0.06239,-0.27469 1.16846,-0.65458 2.74976,-0.85116l0.09793,-0.05415c0.42715,-1.93141 0.99124,-3.34416 1.24559,-3.36654c0.23623,-0.01566 0.97035,1.27171 1.63417,3.09516l0.0829,0.05978c1.60629,-0.07997 2.769,0.10274 2.86863,0.3537c0.05935,0.14949 -0.20055,1.15845 -0.94862,2.02412c-0.26353,0.30495 -0.60027,0.48623 -0.91295,0.82744c0,0 0.20846,0.64901 0.40056,1.53371c0.21672,0.99819 0.30165,2.03189 0.19173,2.15365c-0.09429,0.10444 -0.81257,0.02254 -1.62598,-0.50207z" data-paper-data="{&quot;index&quot;:null}" fill="none" stroke-width="0.65"/><g fill="#fff5ac" stroke-width="0"><path d="M332.5707,178.74388c0.12429,-0.01681 0.25594,0.09813 0.31743,0.24879c0.11156,0.27343 0.14162,0.60847 0.15305,0.92286c0.01223,0.29005 -0.00778,0.59274 -0.08298,0.85966c-0.04291,0.15657 -0.12613,0.34023 -0.24687,0.34956c-0.11627,0.00891 -0.22168,-0.09198 -0.29717,-0.28335c-0.09633,-0.24198 -0.15258,-0.53736 -0.17328,-0.88828c-0.02073,-0.35095 -0.00799,-0.64057 0.06711,-0.90944c0.04924,-0.17744 0.15638,-0.29635 0.26273,-0.29981z"/></g><g fill="#fff5ac" stroke-width="0"><path d="M330.92823,178.87744c0.12429,-0.01681 0.25594,0.09813 0.31745,0.24879c0.11156,0.27343 0.14162,0.60849 0.15305,0.92286c0.01223,0.29005 -0.0078,0.59276 -0.08298,0.85966c-0.04291,0.15657 -0.12613,0.34023 -0.24687,0.34955c-0.11627,0.00891 -0.22168,-0.09196 -0.29717,-0.28335c-0.09633,-0.24198 -0.15258,-0.53736 -0.17331,-0.88828c-0.02073,-0.35095 -0.00797,-0.64055 0.06711,-0.90942c0.04924,-0.17744 0.15638,-0.29636 0.26271,-0.29981z"/></g></g><g data-paper-data="{&quot;index&quot;:null}" stroke="#fff5ac" stroke-linecap="round"><path d="M295.70273,193.67701c-0.20194,-0.35194 -0.51965,-1.29538 -0.51965,-1.29538c0,0 -0.85129,0.37414 -1.18147,0.44465c-0.75627,0.16154 -1.25895,-0.02275 -1.27917,-0.13739c-0.02506,-0.14209 0.29133,-0.93614 0.66521,-1.62015c0.29899,-0.54697 0.55162,-0.93294 0.55162,-0.93294c-0.20577,-0.44685 -0.4079,-0.70581 -0.56132,-1.08352c-0.31395,-0.77287 -0.29718,-1.55852 -0.20505,-1.68061c0.1261,-0.16711 1.02363,0.05415 2.20354,0.61624l0.08558,0.00504c0.87844,-1.18012 1.69944,-1.93171 1.88647,-1.83474c0.1722,0.09368 0.30912,1.33225 0.23648,2.91977l0.04098,0.07917c1.16287,0.65586 1.93293,1.30121 1.92881,1.52335c-0.00246,0.13233 -0.48741,0.73252 -1.27586,1.01453c-0.27774,0.09935 -0.57056,0.07852 -0.89397,0.18176c0,0 -0.04559,0.55269 -0.17299,1.26527c-0.14377,0.80397 -0.39159,1.57467 -0.50582,1.61224c-0.09798,0.03223 -0.58294,-0.34448 -1.0034,-1.07732z" data-paper-data="{&quot;index&quot;:null}" fill="none" stroke-width="0.65"/><g fill="#fff5ac" stroke-width="0"><path d="M296.93357,189.43313c0.09315,0.0432 0.15226,0.18312 0.15096,0.31723c-0.00236,0.24338 -0.0809,0.49432 -0.16647,0.72231c-0.07776,0.2111 -0.18215,0.41687 -0.31502,0.57281c-0.07709,0.09198 -0.19083,0.18532 -0.27923,0.13837c-0.0851,-0.04526 -0.12979,-0.16356 -0.1263,-0.33276c0.0038,-0.21433 0.05194,-0.44873 0.14182,-0.70678c0.08987,-0.25807 0.18522,-0.45777 0.31858,-0.61512c0.0878,-0.10397 0.1992,-0.14077 0.27565,-0.09605z"/></g><g fill="#fff5ac" stroke-width="0"><path d="M295.72907,188.79922c0.09315,0.0432 0.15225,0.18312 0.15096,0.31723c-0.00236,0.24338 -0.0809,0.49432 -0.16647,0.72231c-0.07776,0.2111 -0.18215,0.41687 -0.31502,0.57281c-0.07709,0.09198 -0.19083,0.1853 -0.27923,0.13837c-0.0851,-0.04526 -0.12979,-0.16356 -0.1263,-0.33274c0.0038,-0.21433 0.05194,-0.44873 0.14182,-0.70678c0.08987,-0.25807 0.18522,-0.45776 0.31858,-0.61512c0.0878,-0.10397 0.19921,-0.14077 0.27565,-0.09605z"/></g></g><g data-paper-data="{&quot;index&quot;:null}" stroke="#fff5ac" stroke-linecap="round"><path d="M283.19884,167.16572c0.18412,0.36618 0.45453,1.33133 0.45453,1.33133c0,0 0.86827,-0.31068 1.20134,-0.35673c0.76291,-0.10549 1.25551,0.11555 1.27003,0.23147c0.01797,0.14366 -0.33716,0.91294 -0.74425,1.56813c-0.32553,0.52392 -0.59684,0.89056 -0.59684,0.89056c0.18326,0.46121 0.37221,0.73459 0.50663,1.12293c0.27509,0.7946 0.21944,1.5776 0.12144,1.69267c-0.13415,0.15751 -1.01907,-0.12954 -2.169,-0.77758l-0.08518,-0.01134c-0.9353,1.1132 -1.79202,1.80286 -1.97392,1.69227c-0.16724,-0.10622 -0.24256,-1.3526 -0.09142,-2.93187l-0.03697,-0.08205c-1.12826,-0.74042 -1.86495,-1.44137 -1.84981,-1.6628c0.00901,-0.13191 0.52282,-0.69524 1.32379,-0.91859c0.28216,-0.07868 0.57341,-0.0363 0.90133,-0.11549c0,0 0.07288,-0.54831 0.23536,-1.2502c0.18334,-0.79189 0.46888,-1.54291 0.58475,-1.57201c0.0994,-0.02496 0.56481,0.38683 0.94821,1.14934z" data-paper-data="{&quot;index&quot;:null}" fill="none" stroke-width="0.65"/><g fill="#fff5ac" stroke-width="0"><path d="M281.76003,171.31109c-0.09084,-0.04998 -0.1429,-0.19401 -0.13499,-0.32778c0.01442,-0.24278 0.10524,-0.48744 0.20195,-0.70872c0.08808,-0.20498 0.20248,-0.40268 0.34282,-0.54852c0.08149,-0.08613 0.19967,-0.1709 0.28557,-0.11753c0.08272,0.05145 0.12146,0.17283 0.10958,0.34146c-0.01442,0.21367 -0.07406,0.44409 -0.17658,0.69502c-0.10249,0.25097 -0.20756,0.44329 -0.34846,0.59051c-0.09279,0.09731 -0.2058,0.12584 -0.2799,0.07554z"/></g><g fill="#fff5ac" stroke-width="0"><path d="M282.93094,172.03264c-0.09084,-0.04998 -0.14289,-0.19403 -0.13498,-0.32778c0.01442,-0.24278 0.10524,-0.48743 0.20195,-0.7087c0.08808,-0.20498 0.20248,-0.40268 0.34282,-0.54852c0.08149,-0.08613 0.19967,-0.1709 0.28557,-0.1175c0.08272,0.05145 0.12146,0.17283 0.10958,0.34146c-0.01442,0.21367 -0.07406,0.44409 -0.17658,0.69502c-0.10249,0.25097 -0.20756,0.44327 -0.34846,0.59049c-0.09279,0.09731 -0.20581,0.12584 -0.27988,0.07556z"/></g></g><g data-paper-data="{&quot;index&quot;:null}" stroke="#fff5ac" stroke-linecap="round"><path d="M259.08477,194.18381c-0.1532,-0.30465 -0.37816,-1.10765 -0.37816,-1.10765c0,0 -0.72238,0.25847 -0.99949,0.2968c-0.63472,0.08776 -1.04458,-0.09614 -1.05665,-0.19259c-0.01495,-0.11954 0.28052,-0.75955 0.6192,-1.30466c0.27084,-0.4359 0.49656,-0.74093 0.49656,-0.74093c-0.15245,-0.38372 -0.30966,-0.61117 -0.4215,-0.93426c-0.22887,-0.6611 -0.18257,-1.31253 -0.10101,-1.40827c0.1116,-0.13105 0.84785,0.10778 1.80456,0.64695l0.07087,0.00943c0.77815,-0.92615 1.49095,-1.49994 1.64227,-1.40793c0.13913,0.08838 0.20181,1.12534 0.07606,2.43927l0.03076,0.06826c0.93869,0.61601 1.5516,1.1992 1.53901,1.38343c-0.0075,0.10975 -0.43498,0.57844 -1.10136,0.76425c-0.23475,0.06546 -0.47706,0.03019 -0.74989,0.09611c0,0 -0.06064,0.45619 -0.19582,1.04014c-0.15254,0.65886 -0.39008,1.28368 -0.48649,1.3079c-0.0827,0.02076 -0.46991,-0.32184 -0.7889,-0.95624z" data-paper-data="{&quot;index&quot;:null}" fill="none" stroke-width="0.65"/><g fill="#fff5ac" stroke-width="0"><path d="M260.28184,190.73493c0.07558,0.0416 0.11889,0.16142 0.11232,0.27271c-0.01201,0.20199 -0.08755,0.40553 -0.16801,0.58964c-0.07327,0.17055 -0.16846,0.33502 -0.28523,0.45638c-0.06782,0.07166 -0.16612,0.14219 -0.23758,0.09777c-0.06883,-0.0428 -0.10105,-0.1438 -0.09117,-0.28408c0.01201,-0.17776 0.06162,-0.36948 0.1469,-0.57825c0.08527,-0.20878 0.17268,-0.36879 0.28992,-0.4913c0.0772,-0.08096 0.17123,-0.10468 0.23289,-0.06285z"/></g><g fill="#fff5ac" stroke-width="0"><path d="M259.30768,190.13458c0.07558,0.0416 0.11889,0.16143 0.11232,0.27272c-0.01201,0.20199 -0.08755,0.40553 -0.16801,0.58964c-0.07327,0.17055 -0.16848,0.33502 -0.28523,0.45635c-0.06782,0.07166 -0.16612,0.14219 -0.23758,0.09777c-0.06883,-0.0428 -0.10105,-0.1438 -0.09116,-0.28408c0.01201,-0.17776 0.06162,-0.36948 0.1469,-0.57825c0.08527,-0.20878 0.17268,-0.36879 0.28992,-0.4913c0.0772,-0.08096 0.17123,-0.1047 0.23286,-0.06286z"/></g></g><g data-paper-data="{&quot;index&quot;:null}" stroke="#fff5ac" stroke-linecap="round"><path d="M241.2367,176.23615c-0.1532,-0.30465 -0.37816,-1.10765 -0.37816,-1.10765c0,0 -0.72238,0.25847 -0.99949,0.2968c-0.63472,0.08776 -1.04458,-0.09614 -1.05665,-0.19257c-0.01495,-0.11954 0.28052,-0.75955 0.6192,-1.30466c0.27084,-0.4359 0.49655,-0.74093 0.49655,-0.74093c-0.15247,-0.3837 -0.30965,-0.61117 -0.4215,-0.93426c-0.22887,-0.6611 -0.18257,-1.31253 -0.10101,-1.40827c0.1116,-0.13105 0.84785,0.10776 1.80456,0.64695l0.07087,0.00945c0.77815,-0.92615 1.49095,-1.49994 1.64227,-1.40793c0.13913,0.08836 0.20182,1.12534 0.07607,2.43927l0.03076,0.06826c0.93869,0.61601 1.5516,1.19921 1.53901,1.38343c-0.0075,0.10975 -0.43496,0.57844 -1.10135,0.76425c-0.23475,0.06546 -0.47706,0.03019 -0.7499,0.09611c0,0 -0.06064,0.45619 -0.1958,1.04014c-0.15254,0.65886 -0.39008,1.28368 -0.48649,1.3079c-0.0827,0.02076 -0.4699,-0.32184 -0.7889,-0.95624z" data-paper-data="{&quot;index&quot;:null}" fill="none" stroke-width="0.65"/><g fill="#fff5ac" stroke-width="0"><path d="M242.43377,172.78728c0.07558,0.0416 0.11889,0.16142 0.11232,0.27271c-0.01201,0.20199 -0.08754,0.40554 -0.168,0.58964c-0.07327,0.17055 -0.16846,0.33502 -0.28523,0.45638c-0.0678,0.07166 -0.16612,0.14219 -0.23758,0.09777c-0.06881,-0.0428 -0.10106,-0.1438 -0.09117,-0.28408c0.01201,-0.17776 0.06162,-0.36948 0.1469,-0.57825c0.08527,-0.20878 0.17268,-0.36881 0.28992,-0.4913c0.0772,-0.08096 0.17123,-0.10468 0.23289,-0.06285z"/></g><g fill="#fff5ac" stroke-width="0"><path d="M241.4596,172.18696c0.07558,0.0416 0.11889,0.16142 0.11232,0.27271c-0.01201,0.20199 -0.08756,0.40554 -0.16803,0.58964c-0.07327,0.17055 -0.16846,0.335 -0.28522,0.45635c-0.0678,0.07166 -0.16612,0.14219 -0.23758,0.09777c-0.06881,-0.0428 -0.10105,-0.1438 -0.09116,-0.28408c0.01201,-0.17776 0.06161,-0.36948 0.14689,-0.57825c0.08527,-0.20878 0.17268,-0.36879 0.28992,-0.49128c0.0772,-0.08096 0.17123,-0.1047 0.23286,-0.06286z"/></g></g><text transform="translate(185.11735,185.95804) scale(0.37218,0.35437)" font-size="40" xml:space="preserve" fill="#696d7a" fill-rule="nonzero" stroke="#2c2a26" stroke-width="0.4" stroke-linecap="butt" stroke-linejoin="miter" stroke-miterlimit="10" stroke-dasharray="" stroke-dashoffset="0" font-family="Sans Serif" font-weight="normal" text-anchor="start" style="mix-blend-mode: normal"><tspan x="0" dy="0">Grand Prix</tspan></text><text transform="translate(320.04343,169.7359) scale(0.20636,0.20456)" font-size="40" xml:space="preserve" fill="#696d7a" fill-rule="nonzero" stroke="none" stroke-width="1" stroke-linecap="butt" stroke-linejoin="miter" stroke-miterlimit="10" stroke-dasharray="" stroke-dashoffset="0" font-family="Sans Serif" font-weight="normal" text-anchor="start" style="mix-blend-mode: normal"><tspan x="0" dy="0">1P</tspan></text></g></g></svg>