<svg version="1.1" xmlns="http://www.w3.org/2000/svg" xmlns:xlink="http://www.w3.org/1999/xlink" width="104.11242" height="87.84249" viewBox="0,0,104.11242,87.84249"><defs><linearGradient x1="241.70874" y1="137.92918" x2="241.70874" y2="198.22336" gradientUnits="userSpaceOnUse" id="color-1"><stop offset="0" stop-color="#a06331"/><stop offset="1" stop-color="#804828"/></linearGradient><linearGradient x1="241.45684" y1="141.89128" x2="241.45684" y2="193.53332" gradientUnits="userSpaceOnUse" id="color-2"><stop offset="0" stop-color="#a06331"/><stop offset="1" stop-color="#804828"/></linearGradient><linearGradient x1="241.45684" y1="141.89128" x2="241.45684" y2="193.53332" gradientUnits="userSpaceOnUse" id="color-3"><stop offset="0" stop-color="#a06331"/><stop offset="1" stop-color="#804828"/></linearGradient></defs><g transform="translate(-190.88383,-137.92923)"><g data-paper-data="{&quot;isPaintingLayer&quot;:true}" fill-rule="nonzero" stroke-linejoin="miter" stroke-miterlimit="10" stroke-dasharray="" stroke-dashoffset="0" style="mix-blend-mode: normal"><g><path d="M207.84227,190.1958c0,-18.65262 16.28408,-33.77355 36.37152,-33.77355c20.08744,0 36.37152,15.12093 36.37152,33.77355c0,18.65262 -16.28408,33.77356 -36.37152,33.77356c-20.08743,0 -36.37152,-15.12094 -36.37152,-33.77355z" fill="#ffcda2" stroke="none" stroke-width="0" stroke-linecap="butt"/><path d="M233.28942,185.85786c0,4.97403 -2.63648,9.00628 -5.88872,9.00628c-3.25225,0 -5.88872,-4.03225 -5.88872,-9.00628c0,-4.97403 2.63647,-9.00628 5.88872,-9.00628c3.25225,0 5.88872,4.03226 5.88872,9.00628z" fill="#ffffff" stroke="#000000" stroke-width="1.5" stroke-linecap="butt"/><path d="M199.87517,197.9031c0,-5.69144 4.61383,-10.30527 10.30527,-10.30527c5.69144,0 10.30525,4.61383 10.30525,10.30527c0,5.69144 -4.61382,10.30525 -10.30525,10.30525c-5.69144,0 -10.30527,-4.61382 -10.30527,-10.30525z" fill="#ffcda2" stroke="none" stroke-width="0" stroke-linecap="butt"/><path d="M266.72948,197.3835c0,-5.69144 4.61382,-10.30526 10.30526,-10.30526c5.69144,0 10.30527,4.61382 10.30527,10.30526c0,5.69144 -4.61383,10.30527 -10.30527,10.30527c-5.69144,0 -10.30526,-4.61382 -10.30526,-10.30527z" fill="#ffcda2" stroke="none" stroke-width="0" stroke-linecap="butt"/><path d="M246.95077,146.02964c1.74047,0.69674 3.41215,1.9443 5.20586,2.53422c0.99107,0.32595 2.02347,0.50615 3.04449,0.72541c2.86514,-1.65383 5.69291,-3.70535 9.19817,-3.22874c0.8164,0.11101 1.82645,0.02659 2.39094,0.62674c1.5994,1.70043 0.37522,2.45196 0.27985,3.978c-0.03181,0.509 0.02124,1.01748 0.07733,1.52629l0.09805,0.01649c0.50455,0.33673 1.00908,0.67346 1.51362,1.01019c3.81176,2.17587 6.35572,5.16394 8.80374,8.79427c1.70779,2.5326 2.83429,5.6188 4.75965,8.01507c2.7958,3.4796 6.02615,6.70536 9.18755,9.8662c0.24883,0.15271 0.47424,0.40257 0.59634,0.80769c0.11175,0.27495 0.17215,0.62453 0.0353,1.00012c-0.10694,0.38517 -0.35929,0.63453 -0.61003,0.79331c-0.35746,0.27617 -0.70787,0.33991 -1.01324,0.30525l-0.37628,0.04717c-1.16216,0.44082 -2.32434,0.88164 -3.4865,1.32246c0.97217,1.81096 1.9468,3.67999 3.25706,5.21881c0.48688,0.57182 2.21138,1.99357 2.31452,2.62852c0.02423,0.14915 0.03613,0.29836 0.03816,0.44765l0.08306,-0.01038l0.17016,1.36119c0.00995,0.07116 0.01508,0.14384 0.01508,0.21773c0,0.86088 -0.69789,1.55878 -1.55878,1.55878c-0.38331,0 -0.7343,-0.13835 -1.00577,-0.36784l-0.92611,-0.77176c-2.06063,-1.0112 -4.10866,-2.00407 -6.18088,-2.99304c-0.41746,-0.19924 -0.96362,-0.79533 -1.54088,-0.55639c-0.4959,0.20526 -0.10171,1.08553 -0.31076,1.57985c-0.37615,0.88943 -0.88461,1.784 -1.38461,2.68283c0.02717,0.32726 0.05524,0.65335 0.08476,0.97802l-0.79656,1.58975c0,0 -0.64712,0.64711 -1.44552,0.45383c-0.27208,0.06017 -0.59857,0.03904 -0.98258,-0.13163c-1.42443,-0.63308 -0.79135,-2.05751 -0.79135,-2.05751c0.2203,-0.49563 0.48024,-0.98965 0.75257,-1.48211c-0.26884,-3.45723 -0.49203,-7.01953 -1.36309,-10.33611c-0.74218,-2.82585 -2.39933,-5.23201 -3.68921,-7.8085c0,0 -0.00018,-0.0004 -0.00056,-0.00116l-0.21116,-0.42832c-0.68326,-1.92634 -3.59308,-3.54736 -5.15212,-4.85969c-2.2253,-1.87316 -3.97169,-3.70017 -5.73642,-5.91907l-0.03727,0.01489c-5.85485,2.50922 -11.643,4.65865 -17.91235,5.93696l-0.86729,0.58535c-1.95992,0.24066 -3.83315,0.92736 -5.81201,1.04821c-2.66445,0.16273 -5.33334,-0.32048 -7.97774,-0.17257c-1.23953,0.06933 -3.46397,0.6761 -4.4324,-0.42391c-0.57728,-0.65573 -0.00385,-1.74809 0.04084,-2.62059c0.06056,-1.18259 0.25918,-2.36735 0.56881,-3.52494c-2.09242,1.3151 -3.33445,2.75735 -4.94634,4.63502c-1.8887,2.20013 -4.11202,3.8269 -5.30869,6.5566c-2.45063,5.59007 -2.11629,12.46609 -2.11581,18.4155c0,0 0,0.06334 -0.01277,0.16448c-0.02644,0.30639 -0.13268,0.7184 -0.47749,1.01773c-0.21023,0.19781 -0.51062,0.34788 -0.93981,0.37289c-0.42747,0.04588 -0.74844,-0.05276 -0.98833,-0.21332c-0.38933,-0.23857 -0.56186,-0.62752 -0.63832,-0.92539c-0.02922,-0.09767 -0.03963,-0.16013 -0.03963,-0.16013l-0.09516,-0.74813c-0.62612,-1.67111 -1.34307,-3.08551 -2.19905,-4.61743c-0.08504,-0.15218 0.01896,-0.39952 -0.11592,-0.50999c-0.08283,-0.06785 -0.11982,0.17928 -0.19609,0.25443c-0.23627,0.2328 -0.48886,0.44854 -0.73874,0.66667c-1.1277,0.9844 -2.31448,1.79424 -3.36792,2.85605c-0.70343,0.70263 -2.20594,2.27958 -2.97874,2.60852c-1.43778,0.61201 -3.59267,0.03071 -4.9395,-0.47425c-0.74903,-0.28083 -1.90518,-0.08155 -2.26377,-0.79662c-0.46487,-0.92699 -0.03685,-2.11879 0.31202,-3.09536c0.17501,-0.48989 0.83293,-0.63804 1.16481,-1.03863c0.55235,-0.66672 0.9802,-1.42745 1.47303,-2.1393c1.66039,-2.39834 3.55591,-4.58855 5.76229,-6.48856c0.10671,-0.09189 0.20687,-0.17735 0.30156,-0.25684c-2.24773,-0.50662 -4.72672,-0.32152 -6.90673,-1.04055l-1.34033,-0.16754c-0.77956,-0.08598 -1.38595,-0.74683 -1.38595,-1.54931c0,-0.5902 0.32801,-1.10379 0.81168,-1.36841l1.18611,-0.67778l0.0171,0.02993l0.06143,-0.07187c2.49313,-1.07379 4.5793,-2.39272 6.73456,-3.91385c-0.63963,-0.59883 -1.26116,-1.21786 -1.88101,-1.83724c-0.21433,-0.14079 -0.41242,-0.36307 -0.56001,-0.70537c-0.12446,-0.2522 -0.21945,-0.58707 -0.13733,-0.95537c0.06959,-0.37087 0.28881,-0.64124 0.50256,-0.82402c0.28297,-0.2683 0.56498,-0.39413 0.82738,-0.43345l0.32404,-0.12184c2.7503,-1.53862 6.30408,-1.77025 8.96514,-3.4396c0.75482,-0.47351 1.38839,-1.11884 2.11346,-1.63675c1.29994,-1.07316 2.01408,-2.64924 3.13879,-3.80272c-0.68798,-0.32617 -1.44352,-0.70454 -1.58578,-1.39603c-0.21077,-1.02447 0.34774,-2.18755 1.06028,-2.95322c0.49544,-0.53238 1.41429,-0.3428 2.12953,-0.47444c1.27445,-0.23457 2.72566,-0.08979 3.94212,-0.59244c2.40624,-0.99429 4.5762,-2.72241 6.85085,-4.03047c-0.72392,-3.3908 -1.10399,-6.80256 -1.57872,-10.24433c0,0 -0.21298,-1.54416 1.33117,-1.75715c0.03903,-0.00538 0.07719,-0.00964 0.11452,-0.01283c0.69039,-0.4094 1.48836,-0.01042 1.48836,-0.01042c3.26489,1.63398 6.18688,3.97899 9.49296,5.52635c0.26947,0.12613 0.54428,0.24128 0.82057,0.35331c3.41877,0.05864 6.69959,0.76648 9.89717,2.04652zM235.57827,146.84353c0,0 -0.31188,-0.10396 -0.60144,-0.35962c-0.02411,-0.01113 -0.04819,-0.02236 -0.07219,-0.03371c-2.68289,-1.2687 -5.11577,-3.03732 -7.68217,-4.53617c0.36793,2.79002 0.74202,5.56193 1.37853,8.3178l0.03992,0.6969c0,0 -0.00001,1.341 -1.24381,1.5354c-0.20409,0.22131 -0.40759,0.3376 -0.40759,0.3376c-2.85918,1.63382 -5.69933,4.07344 -8.98434,4.68394c-0.54208,0.10075 -1.08807,0.19134 -1.63641,0.25668c0.19969,0.21296 0.35123,0.44317 0.41391,0.65814c0.24862,0.85272 -0.46896,1.72243 -0.8448,2.52722c-0.86988,1.86271 -2.63563,3.61838 -4.1837,4.91745c-0.81596,0.58283 -1.53252,1.30688 -2.38969,1.82721c-2.41608,1.46664 -5.43393,1.79765 -7.99864,2.94998c0.52065,0.50154 1.05203,0.99134 1.6056,1.45564l0.19531,0.54104c0.02095,0.02617 0.04173,0.05342 0.06235,0.08176c0.48527,0.66724 0.36053,1.23817 0.13557,1.62781c-0.12314,0.27693 -0.33954,0.56546 -0.71988,0.72431c-1.74636,1.2662 -3.41585,2.43007 -5.21036,3.4493c2.97578,0.48503 5.30332,1.05929 8.06177,2.26554l1.7471,0.31766c0.74101,0.1205 1.30668,0.76344 1.30668,1.53849c0,0.86088 -0.6979,1.55878 -1.55878,1.55878c-0.06592,0 -0.13088,-0.00408 -0.19465,-0.01203l-1.45883,-0.16209c-0.16912,0.02095 -1.97151,-0.05181 -2.28263,0.06734c-0.66574,0.25495 -1.13471,1.18294 -1.58498,1.59569c-1.05328,0.96551 -2.03864,1.78654 -3.02693,2.853c-1.23024,1.32755 -1.92243,3.08 -3.07397,4.45333c-0.0315,0.03757 -0.07244,0.07662 -0.12028,0.11581c0.84741,0.17999 1.91507,0.57497 2.36094,0.36804c0.80505,-0.37365 1.24361,-1.26666 1.87081,-1.89463c1.59669,-1.58611 4.93331,-5.22155 7.47468,-4.53634c0.65335,0.17615 1.03953,0.85078 1.47209,1.39525c0.14649,-4.30764 0.65315,-8.64604 2.33668,-12.50032c1.3222,-3.02704 3.68647,-4.85725 5.77596,-7.29922c1.9425,-2.27017 3.53833,-3.97791 6.1548,-5.55481c1.22968,-0.61529 2.20028,-0.81198 3.01657,-1.88304l0.28612,-0.11708c0.31501,-0.32184 0.89098,-0.69174 1.69371,-0.32273c0.27258,0.10143 0.57436,0.28781 0.76301,0.63033c0.20781,0.33125 0.22418,0.68557 0.18046,0.97311c-0.02993,0.39202 -0.16597,0.67371 -0.34602,0.87613c-0.71549,1.33899 -1.06296,2.4713 -1.42148,3.99261c-0.17398,0.73828 -0.1254,1.54045 -0.29836,2.27259c0.31216,-0.02934 0.6354,-0.01491 0.94665,-0.03037c1.10038,-0.05466 2.20045,0.1152 3.30061,0.17382c3.4202,0.18224 6.41567,-0.50326 9.7176,-0.95646c0.16001,-0.19572 0.35993,-0.32928 0.53619,-0.41803c0.1928,-0.10947 0.44925,-0.21239 0.73977,-0.22015c6.02748,-1.23764 11.58297,-3.31415 17.21956,-5.72983l0.9011,-0.36095c0,0 0.67742,-0.27097 1.29074,0.02133c0.62273,0.10277 1.02606,0.6271 1.02606,0.6271c1.79953,2.34519 3.52174,4.19465 5.78872,6.09477c2.151,1.80292 4.82046,3.47347 6.01275,6.01904l0.13317,0.26038c0.001,0.00194 0.0015,0.00293 0.0015,0.00293v0.00001c1.40138,2.80655 3.1207,5.3962 3.93149,8.47207c0.45591,1.72958 0.74363,3.5216 0.95285,5.33149c0.22529,-0.2532 0.48125,-0.47115 0.77711,-0.62354c1.96877,-1.01399 2.7278,-0.24715 4.34785,0.4828c0.68358,0.308 1.35836,0.62365 2.02822,0.94515c-0.77163,-1.21433 -1.4492,-2.51527 -2.13765,-3.70846c-0.34672,-0.6009 -0.69337,-1.20184 -1.04005,-1.80276l0.09692,-0.14874c-0.01061,-0.02515 -0.02095,-0.05094 -0.03099,-0.0774c-0.55282,-1.45745 0.90463,-2.01028 0.90463,-2.01028c1.21625,-0.46134 2.4325,-0.92267 3.64874,-1.38401c-2.70662,-2.71879 -5.40631,-5.50754 -7.77974,-8.48515c-1.98647,-2.49215 -3.16629,-5.64384 -4.93942,-8.26552c-2.20651,-3.26247 -4.40897,-5.87972 -7.82324,-7.83271c-0.40848,-0.27203 -0.81694,-0.54406 -1.22542,-0.81609c-0.06565,0.00638 -0.13448,0.00971 -0.20665,0.00971c-0.54136,0 -0.8947,-0.18801 -1.12534,-0.43345c-0.24543,-0.23064 -0.43345,-0.58398 -0.43345,-1.12534c0,-0.00213 0.00001,-0.00425 0.00001,-0.00637c0.00091,-1.01575 -0.22606,-2.0284 -0.16969,-3.0426c0.02613,-0.47019 0.16908,-0.93292 0.34386,-1.37028c-0.80935,0.40998 -2.02785,0.01334 -2.9434,0.34588c-1.65636,0.60161 -3.24532,1.78385 -4.7709,2.65561l-0.442,0.16496c-0.26284,0.15546 -0.5497,0.20181 -0.77717,0.20792c-0.2118,0.01444 -0.47835,-0.00108 -0.73758,-0.10864c-4.99167,-1.21895 -9.34892,-3.85955 -14.26642,-4.85989c-0.44479,0.31955 -0.98674,0.31955 -0.98674,0.31955l-1.81256,-0.20538c-0.3962,-0.22961 -0.81787,-0.40814 -1.24487,-0.57635z" fill="url(#color-1)" stroke="none" stroke-width="0.5" stroke-linecap="butt"/><path d="M236.3155,147.00421c0.42701,0.16821 0.85,0.34644 1.24621,0.57606l1.8148,0.20505c0,0 0.54323,-0.0001 0.98802,-0.31965c4.91751,1.00034 9.29307,3.64716 14.28474,4.86611c0.25922,0.10756 0.52638,0.1236 0.73818,0.10916c0.22748,-0.00611 0.51472,-0.0521 0.77756,-0.20756l0.44218,-0.16479c1.52558,-0.87176 3.1156,-2.05292 4.77196,-2.65453c0.91555,-0.33253 2.13505,0.06527 2.9444,-0.34471c-0.17479,0.43735 -0.31725,0.9007 -0.34338,1.37088c-0.05637,1.01421 0.17199,2.02886 0.17109,3.04462c0,0.00212 -0.00001,0.00424 -0.00001,0.00637c0,0.54135 0.18861,0.8957 0.43404,1.12633c0.23064,0.24543 0.5844,0.43422 1.12576,0.43422c0.07217,0 0.14104,-0.00327 0.20669,-0.00965c0.40848,0.27203 0.81746,0.54514 1.22594,0.81717c3.41427,1.95299 5.61894,4.57804 7.82545,7.8405c1.77313,2.62168 2.95297,5.77931 4.93944,8.27146c2.37343,2.97762 5.07234,5.77041 7.77896,8.4892c-1.21625,0.46134 -2.43288,0.92395 -3.64913,1.38528c0,0 -1.45788,0.55403 -0.90506,2.01149c0.01004,0.02646 0.02036,0.05228 0.03097,0.07743l-0.09695,0.14883c0.34668,0.60092 0.69306,1.20252 1.03977,1.80343c0.68845,1.19318 1.36545,2.49536 2.13708,3.70969c-0.66987,-0.3215 -1.34465,-0.63713 -2.02823,-0.94514c-1.62005,-0.72995 -2.37947,-1.496 -4.34825,-0.48201c-0.29587,0.15239 -0.59743,0.34544 -0.82271,0.59864c-0.20923,-1.80989 -0.49814,-3.59946 -0.95405,-5.32904c-0.81079,-3.07587 -2.5316,-5.6609 -3.93298,-8.46745c0,-0.00001 -0.00001,-0.00001 -0.00001,-0.00001c0,0 -0.0005,-0.001 -0.0015,-0.00294l-0.1332,-0.26021c-1.19229,-2.54556 -3.86231,-4.21163 -6.01332,-6.01455c-2.26697,-1.90012 -3.98844,-3.74241 -5.78798,-6.0876c0,0 -0.40305,-0.52329 -1.02578,-0.62606c-0.61332,-0.29229 -1.29059,-0.02084 -1.29059,-0.02084l-0.85147,0.34557c-5.63659,2.41568 -11.19779,4.51741 -17.22526,5.75505c-0.29053,0.00776 -0.58109,0.11431 -0.7739,0.22378c-0.17627,0.08875 -0.37914,0.21987 -0.53916,0.41559c-3.30193,0.4532 -6.30501,1.12455 -9.72521,0.94231c-1.10017,-0.05862 -2.20046,-0.22987 -3.30083,-0.17521c-0.31125,0.01547 -0.6345,0.00089 -0.94666,0.03023c0.17296,-0.73214 0.1242,-1.53827 0.29819,-2.27656c0.35852,-1.52131 0.70737,-2.66112 1.42286,-4.00012c0.18005,-0.20243 0.31671,-0.48577 0.34664,-0.87778c0.04372,-0.28754 0.02796,-0.6432 -0.17985,-0.97446c-0.18865,-0.34252 -0.44389,-0.50579 -0.71648,-0.60721c-0.80273,-0.36901 -1.37801,-0.00059 -1.69302,0.32125l-0.28599,0.11677c-0.81629,1.07106 -1.78566,1.26404 -3.01535,1.87933c-2.61647,1.57691 -4.21156,3.27746 -6.15406,5.54762c-2.0895,2.44196 -4.45463,4.26641 -5.77683,7.29345c-1.68354,3.85429 -2.19329,8.18559 -2.33976,12.49323c-0.43256,-0.54448 -0.86343,-1.1926 -1.51677,-1.36876c-2.54137,-0.6852 -5.83274,2.9247 -7.42943,4.51081c-0.6272,0.62797 -1.11074,1.54697 -1.9158,1.9206c-0.44586,0.20693 -1.5139,-0.1887 -2.36131,-0.3687c0.04784,-0.03919 0.08877,-0.07825 0.12027,-0.11582c1.15154,-1.37332 1.84312,-3.12696 3.07336,-4.45451c0.98829,-1.06646 1.97335,-1.88817 3.02663,-2.85368c0.45027,-0.41275 0.96683,-1.36156 1.63258,-1.61651c0.31113,-0.11915 2.11329,-0.0469 2.28241,-0.06784l1.45863,0.16164c0.06376,0.00795 0.1287,0.01198 0.19462,0.01198c0.86088,0 1.51167,-0.67597 1.51167,-1.53685c0,-0.77506 -0.5662,-1.41926 -1.30721,-1.53977l-1.74732,-0.31825c-2.75844,-1.20625 -5.0868,-1.78317 -8.06258,-2.26821c1.79451,-1.01923 3.4637,-2.18446 5.21006,-3.45067c0.38034,-0.15884 0.59668,-0.44777 0.71982,-0.72469c0.22496,-0.38965 0.34954,-0.96166 -0.13574,-1.6289c-0.02061,-0.02835 -0.04141,-0.05565 -0.06235,-0.08182l-0.19535,-0.54141c-0.55357,-0.4643 -1.08507,-0.95515 -1.60571,-1.45668c2.56471,-1.15234 5.58249,-1.48525 7.99857,-2.9519c0.85717,-0.52034 1.57378,-1.24598 2.38974,-1.82881c1.54807,-1.29907 3.31465,-3.05978 4.18452,-4.92249c0.37583,-0.80479 1.09421,-1.677 0.8456,-2.52972c-0.06268,-0.21497 -0.21406,-0.44561 -0.41375,-0.65857c0.54835,-0.06533 1.09466,-0.15672 1.63674,-0.25747c3.28501,-0.61051 6.13088,-3.05837 8.99007,-4.69219c0,0 0.20399,-0.11674 0.40808,-0.33805c1.2438,-0.1944 1.24564,-1.53695 1.24564,-1.53695l-0.03955,-0.69719c-0.63652,-2.75587 -1.00776,-5.52959 -1.3757,-8.31961c2.5664,1.49885 5.00418,3.26539 7.68708,4.53409c0.024,0.01135 0.04813,0.02256 0.07225,0.03368c0.28956,0.25566 0.60198,0.35946 0.60198,0.35946z" data-paper-data="{&quot;noHover&quot;:false,&quot;origItem&quot;:[&quot;Path&quot;,{&quot;applyMatrix&quot;:true,&quot;segments&quot;:[[231.63024,36.65664],[[230.47273,35.96452],[0.55728,0.49204],[-0.04641,-0.02141]],[[230.3338,35.89965],[0.0462,0.02185],[-5.16345,-2.44172]],[[215.54882,27.16941],[4.93924,2.88466],[0.70812,5.36962]],[[218.20193,43.1777],[-1.22503,-5.3039],[0,0]],[218.27876,44.51895],[[215.88496,47.47395],[2.3938,-0.37414],[-0.39279,0.42592]],[[215.10051,48.12368],[0,0],[-5.50274,3.14442]],[[197.80941,57.13831],[6.32228,-1.17496],[-1.04329,0.19389]],[[194.65999,57.63231],[1.05534,-0.12573],[0.38432,0.40986]],[[195.45659,58.89896],[-0.12063,-0.41374],[0.47849,1.64113]],[[193.83071,63.76281],[0.72332,-1.5489],[-1.67414,3.58494]],[[185.77883,73.22686],[2.97938,-2.50017],[-1.57038,1.1217]],[[181.17968,76.74348],[1.64969,-1.00142],[-4.64993,2.82268]],[[165.78563,82.42097],[4.93598,-2.21777],[1.00203,0.96526]],[[168.87576,85.22247],[-1.0654,-0.89358],[0,0]],[[169.25165,86.26374],[0,0],[0.04031,0.05038]],[[169.37163,86.4211],[-0.03967,-0.05455],[0.93394,1.28417]],[[169.63254,89.55396],[0.43295,-0.7499],[-0.23699,0.53297]],[[168.24707,90.94796],[0.73198,-0.30571],[-3.36101,2.43692]],[[158.21931,97.58643],[3.45368,-1.96159],[5.72714,0.93349]],[[173.73485,101.94663],[-5.30885,-2.32152],[0,0]],[[177.09728,102.55798],[0,0],[1.42614,0.23191]],[[179.61209,105.51895],[0,-1.49167],[0,1.65685]],[[176.61209,108.51895],[1.65685,0],[-0.12687,0]],[[176.23748,108.49578],[0.12272,0.01529],[0,0]],[[173.42983,108.18382],[0,0],[-0.32549,0.04032]],[[169.03671,108.31342],[0.59879,-0.22932],[-1.28128,0.49069]],[[165.98629,111.38445],[0.86658,-0.79437],[-2.02712,1.8582]],[[160.16069,116.8753],[1.90206,-2.05249],[-2.36771,2.55498]],[[154.24458,125.44609],[2.21623,-2.64308],[-0.06063,0.0723]],[[154.01309,125.66897],[0.09207,-0.07542],[1.63092,0.34641]],[[158.55691,126.37731],[-0.85809,0.39826],[1.54939,-0.71911]],[[162.15744,122.73096],[-1.2071,1.20857],[3.07296,-3.0526]],[[176.54308,114.00039],[-4.89108,-1.31874],[1.25741,0.33902]],[[179.37624,116.68568],[-0.8325,-1.04789],[0.28192,-8.29041]],[[183.87337,92.62777],[-3.2401,7.41789],[2.54468,-5.82579]],[[194.9897,78.57982],[-4.02142,4.69976],[3.7385,-4.36912]],[[206.83513,67.88913],[-5.03561,3.0349],[2.36663,-1.18417]],[[212.64076,64.26506],[-1.57102,2.06133],[0,0]],[[213.19143,64.03973],[0,0],[0.60625,-0.61941]],[[216.45111,63.41862],[-1.54492,-0.71019],[0.5246,0.1952]],[[217.91958,64.63175],[-0.36306,-0.65921],[0.39994,0.63752]],[[218.26689,66.50457],[0.08414,-0.55338],[-0.05761,0.75446]],[[217.60094,68.19076],[0.34652,-0.38959],[-1.37702,2.577]],[[214.86517,75.87487],[0.69001,-2.92789],[-0.33485,1.42088]],[[214.29097,80.24867],[0.33287,-1.40907],[0.60078,-0.05646]],[[216.11286,80.1902],[-0.59902,0.02976],[2.11776,-0.10521]],[[222.46517,80.52474],[-2.11737,-0.11282],[6.58245,0.35074]],[[241.16751,78.68395],[-6.35484,0.87223],[0.30796,-0.37667]],[[242.19946,77.87943],[-0.33924,0.1708],[0.37107,-0.21068]],[[243.62321,77.45572],[-0.55914,0.01494],[11.60037,-2.38194]],[[276.76367,66.42818],[-10.84809,4.64918],[0,0]],[278.49792,65.73352],[[280.98205,65.77455],[-1.18037,-0.56254],[1.19851,0.19779]],[[282.9568,66.98146],[0,0],[3.46335,4.51352]],[[294.09765,78.71135],[-4.36297,-3.65694],[4.13979,3.46987]],[[305.6697,90.2955],[-2.29466,-4.89915],[0,0]],[[305.92598,90.79663],[0,0],[0.00193,0.00372]],[305.92888,90.80228],[[305.92889,90.80231],[-0.00001,-0.00001],[2.69707,5.40142]],[[313.49537,107.1075],[-1.56043,-5.91978],[0.87744,3.32872]],[[315.32921,117.3684],[-0.40267,-3.48328],[0.43358,-0.4873]],[[316.82484,116.16835],[-0.56943,0.29328],[3.78907,-1.95152]],[[325.19262,117.09753],[-3.11791,-1.40485],[1.3156,0.59278]],[[329.0961,118.91655],[-1.28921,-0.61875],[-1.48506,-2.33707]],[[324.98204,111.77931],[1.32498,2.29638],[-0.66728,-1.15649]],[[322.98037,108.30976],[0.66722,1.15652],[0,0]],[[323.1669,108.02351],[0,0],[-0.02043,-0.0484]],[[323.10727,107.87455],[0.01931,0.05092],[-1.06396,-2.80499]],[[324.8483,104.0056],[0,0],[2.34077,-0.88788]],[[331.87062,101.34196],[-2.34077,0.88788],[-5.20911,-5.23255]],[[316.89786,85.01158],[4.56786,5.73066],[-3.82313,-4.79636]],[[307.39154,69.1039],[3.41254,5.04564],[-4.24662,-6.27888]],[[292.33507,54.02921],[6.57104,3.75869],[-0.78614,-0.52355]],[[289.97664,52.45856],[0.78614,0.52355],[-0.12634,0.01227]],[[289.57893,52.47726],[0.1389,0],[-1.04189,0]],[[287.41313,51.64306],[0.44387,0.47235],[-0.47235,-0.44387]],[[286.57893,49.47726],[0,1.04189],[0,-0.00409]],[[286.57894,49.46499],[-0.00001,0.00408],[0.00175,-1.95491]],[[286.25236,43.60926],[-0.10848,1.95193],[0.05029,-0.90491]],[[286.91414,40.97204],[-0.3364,0.84173],[-1.55766,0.78904]],[[281.24933,41.63769],[1.76204,-0.63999],[-3.1878,1.15784]],[[272.06734,46.74865],[2.93611,-1.67778],[0,0]],[[271.21668,47.06614],[0,0],[-0.50587,0.29919]],[[269.72094,47.4663],[0.43781,-0.01177],[-0.40763,0.02779]],[[268.3014,47.25721],[0.4989,0.20701],[-9.60688,-2.34598]],[[240.84447,37.90395],[9.46415,1.92524],[-0.85603,0.615]],[238.94543,38.51895],[[235.45701,38.12368],[0,0],[-0.76252,-0.44192]],[[233.06114,37.01445],[0.82181,0.32373],[0,0]]],&quot;closed&quot;:true}]}" fill="url(#color-2)" stroke="url(#color-3)" stroke-width="1" stroke-linecap="butt"/><path d="M264.9846,185.68467c0,4.97403 -2.63648,9.00627 -5.88872,9.00627c-3.25224,0 -5.88872,-4.03224 -5.88872,-9.00627c0,-4.97403 2.63648,-9.00628 5.88872,-9.00628c3.25225,0 5.88872,4.03226 5.88872,9.00628z" fill="#ffffff" stroke="#000000" stroke-width="1.5" stroke-linecap="butt"/><path d="M264.8114,185.85786c0,3.25225 -1.78349,5.88872 -3.98355,5.88872c-2.20005,0 -3.98354,-2.63647 -3.98354,-5.88872c0,-3.25225 1.78349,-5.88872 3.98354,-5.88872c2.20005,0 3.98355,2.63648 3.98355,5.88872z" fill="#3c8269" stroke="none" stroke-width="0" stroke-linecap="butt"/><path d="M233.11622,185.85787c0,3.25225 -1.78349,5.88872 -3.98354,5.88872c-2.20005,0 -3.98355,-2.63648 -3.98355,-5.88872c0,-3.25225 1.7835,-5.88872 3.98355,-5.88872c2.20005,0 3.98354,2.63647 3.98354,5.88872z" fill="#3c8269" stroke="none" stroke-width="0" stroke-linecap="butt"/><path d="M252.89783,200.71835c0.64849,0.43232 0.21616,1.08083 0.21616,1.08083l-0.52725,0.71078c-0.41628,0.30553 -0.7844,0.6842 -1.09122,1.09954c-0.89974,0.89974 -2.04295,1.99254 -3.25211,2.46786c-0.89984,0.35373 -1.93883,0.22563 -2.87901,0.22563c-3.74595,0 -6.7718,-0.88262 -9.1102,-3.94891c0,0 -0.46764,-0.62351 0.15588,-1.09114c0.62351,-0.46764 1.09115,0.15588 1.09115,0.15588c1.98895,2.71 4.62715,3.3254 7.86317,3.3254c0.70319,0 1.64293,0.1559 2.31692,-0.12077c0.96777,-0.39727 1.91096,-1.30963 2.63661,-2.03527c0.3792,-0.49893 1.49908,-1.65365 1.49908,-1.65365c0,0 0.43233,-0.64849 1.08083,-0.21617z" fill="#000000" stroke="none" stroke-width="0.5" stroke-linecap="butt"/><path d="M244.76915,185.36531l2.87775,12.59014h-6.23511z" fill="#ec4d28" stroke="#000000" stroke-width="0" stroke-linecap="round"/><path d="M232.34375,195.85961c-0.47481,0.21103 -0.68584,-0.26378 -0.68584,-0.26378l-0.18335,-0.4142c-0.19969,-0.51933 -0.39687,-1.00839 -0.66398,-1.4965c0,0 -0.24881,-0.45615 0.20734,-0.70496c0.45615,-0.24881 0.70496,0.20734 0.70496,0.20734c0.28758,0.5288 0.50556,1.05949 0.7216,1.62106l0.16305,0.36519c0,0 0.21103,0.47482 -0.26378,0.68584z" fill="#000000" stroke="none" stroke-width="0.5" stroke-linecap="butt"/><path d="M228.17172,197.63319c-0.51641,-0.05738 -0.45903,-0.5738 -0.45903,-0.5738l0.04012,-0.33232c0.00044,-0.52982 0.04388,-1.03366 0.00154,-1.56223c0,0 -0.03986,-0.51806 0.47821,-0.55791c0.51806,-0.03985 0.55792,0.47821 0.55792,0.47821c0.04133,0.55715 0.00102,1.08503 0.00153,1.64193l-0.04648,0.44708c0,0 -0.05738,0.51641 -0.5738,0.45904z" fill="#000000" stroke="none" stroke-width="0.5" stroke-linecap="butt"/><path d="M223.57504,195.8388c-0.36741,-0.36741 0,-0.73481 0,-0.73481l0.22147,-0.21698c0.20963,-0.25994 0.39705,-0.53971 0.55578,-0.83351c0,0 0.24881,-0.45615 0.70496,-0.20734c0.45615,0.24881 0.20734,0.70496 0.20734,0.70496c-0.19014,0.34579 -0.41112,0.6761 -0.65661,0.98506l-0.29812,0.30262c0,0 -0.36741,0.36741 -0.73481,0z" fill="#000000" stroke="none" stroke-width="0.5" stroke-linecap="butt"/><path d="M256.48216,196.20748c-0.5196,0 -0.5196,-0.51959 -0.5196,-0.51959l0.09393,-0.47117c0.19382,-0.27593 0.3714,-0.56386 0.5324,-0.86013c0,0 0.24881,-0.45616 0.70496,-0.20734c0.45615,0.24881 0.20734,0.70496 0.20734,0.70496c-0.18039,0.32962 -0.37834,0.65031 -0.59338,0.95845l0.09393,-0.12477c0,0 0.00001,0.51959 -0.51959,0.51959z" fill="#000000" stroke="none" stroke-width="0.5" stroke-linecap="butt"/><path d="M260.4224,197.80956c-0.5196,0 -0.51959,-0.5196 -0.51959,-0.5196l0.00153,-0.29965c0.05722,-0.73705 0.04177,-1.47262 0.04177,-2.21172c0,0 0,-0.51959 0.5196,-0.51959c0.51959,0 0.51959,0.51959 0.51959,0.51959c0,0.76598 0.01344,1.52745 -0.04483,2.29143l0.00153,0.21994c0,0 0,0.51959 -0.51959,0.51959z" fill="#000000" stroke="none" stroke-width="0.5" stroke-linecap="butt"/><path d="M263.89502,196.14687c-0.41568,0.31176 -0.72742,-0.10392 -0.72742,-0.10392l-0.11638,-0.15593c-0.47559,-0.58297 -0.93346,-1.19075 -1.3658,-1.80634c0,0 -0.29797,-0.42566 0.1277,-0.72362c0.42566,-0.29797 0.72364,0.1277 0.72364,0.1277c0.41481,0.5948 0.85861,1.18363 1.31876,1.74422l0.14343,0.19047c0,0 0.31176,0.41567 -0.10392,0.72743z" fill="#000000" stroke="none" stroke-width="0.5" stroke-linecap="butt"/></g><g><path d="M269.50533,193.31717c0,-2.67801 2.17096,-4.84897 4.84897,-4.84897c2.67802,0 4.84897,2.17096 4.84897,4.84897c0,2.67801 -2.17096,4.84898 -4.84897,4.84898c-2.67802,0 -4.84897,-2.17096 -4.84897,-4.84898z" fill="#e7778b" stroke="none" stroke-width="0" stroke-linecap="butt"/><path d="M256.45635,209.39855c0,-9.04265 7.8944,-16.37315 17.63263,-16.37315c9.73823,0 17.63263,7.3305 17.63263,16.37315c0,9.04265 -7.8944,16.37317 -17.63263,16.37317c-9.73823,0 -17.63263,-7.33051 -17.63263,-16.37316z" fill="#ffd7b4" stroke="none" stroke-width="0" stroke-linecap="butt"/><path d="M268.79294,207.29556c0,2.41137 -1.27815,2.53993 -2.85481,2.53993c-1.57666,0 -2.8548,-0.12856 -2.8548,-2.53993c0,-2.41137 1.27814,-4.36618 2.8548,-4.36618c1.57666,0 2.85481,1.9548 2.85481,4.36618z" fill="#ffffff" stroke="#000000" stroke-width="1.5" stroke-linecap="butt"/><path d="M252.59397,213.135c0,-2.75916 2.23675,-4.99591 4.99591,-4.99591c2.75916,0 4.99591,2.23675 4.99591,4.99591c0,2.75916 -2.23674,4.99591 -4.99591,4.99591c-2.75916,0 -4.99591,-2.23675 -4.99591,-4.99591z" fill="#ffd7b4" stroke="none" stroke-width="0" stroke-linecap="butt"/><path d="M285.00442,212.8831c0,-2.75916 2.23675,-4.99592 4.99592,-4.99592c2.75916,0 4.99591,2.23675 4.99591,4.99592c0,2.75916 -2.23674,4.99591 -4.99591,4.99591c-2.75916,0 -4.99592,-2.23675 -4.99592,-4.99591z" fill="#ffd7b4" stroke="none" stroke-width="0" stroke-linecap="butt"/><path d="M284.15852,207.21159c0,2.41137 -1.34112,2.53994 -2.91779,2.53994c-1.57666,0 -2.79183,-0.12857 -2.79183,-2.53994c0,-2.41137 1.27814,-4.36617 2.8548,-4.36617c1.57666,0 2.85481,1.9548 2.85481,4.36617z" fill="#ffffff" stroke="#000000" stroke-width="1.5" stroke-linecap="butt"/><path d="M278.29894,214.49981c0.31439,0.20959 0.1048,0.52397 0.1048,0.52397l-0.25562,0.34458c-0.20181,0.14811 -0.38026,0.3317 -0.52901,0.53305c-0.43619,0.43619 -0.99041,0.96597 -1.57659,1.1964c-0.43624,0.17148 -0.93994,0.10939 -1.39573,0.10939c-1.81601,0 -3.28292,-0.42789 -4.41655,-1.9144c0,0 -0.22671,-0.30227 0.07557,-0.52898c0.30228,-0.22671 0.52898,0.07556 0.52898,0.07556c0.96423,1.31378 2.24322,1.61213 3.812,1.61213c0.3409,0 0.79649,0.07558 1.12322,-0.05855c0.46917,-0.1926 0.92642,-0.6349 1.27821,-0.98668c0.18383,-0.24188 0.72674,-0.80167 0.72674,-0.80167c0,0 0.20959,-0.31439 0.52398,-0.1048z" fill="#000000" stroke="none" stroke-width="0.5" stroke-linecap="butt"/><path d="M274.35823,207.05677l1.39511,6.1036h-3.02274z" fill="#ec4d28" stroke="#000000" stroke-width="0" stroke-linecap="round"/><path d="M268.37456,206.03189c0,1.44831 -0.80839,2.6224 -1.80559,2.6224c-0.9972,0 -1.80559,-1.17409 -1.80559,-2.6224c0,-1.44831 0.80839,-2.6224 1.80559,-2.6224c0.9972,0 1.80559,1.17409 1.80559,2.6224z" fill="#c35440" stroke="none" stroke-width="0" stroke-linecap="butt"/><path d="M263.10377,202.98808c0.1048,-0.15719 0.26199,-0.05239 0.26199,-0.05239l0.17993,0.12436c0.26146,0.26851 0.6283,0.24244 0.97931,0.15182c0,0 0.18329,-0.04582 0.22911,0.13746c0.04582,0.18328 -0.13746,0.2291 -0.13746,0.2291c-0.491,0.11956 -0.96389,0.1156 -1.33812,-0.25122l-0.12235,-0.07715c0,0 -0.1572,-0.10479 -0.0524,-0.26198z" fill="#000000" stroke="none" stroke-width="0.5" stroke-linecap="butt"/><path d="M284.32918,203.23638c0.13358,0.13359 0,0.26717 0,0.26717l-0.10076,0.10076c-0.45231,0.44335 -0.94248,0.30722 -1.53504,0.30722c0,0 -0.14311,-0.04579 -0.14311,-0.23472c0,-0.18892 -0.01718,-0.14312 -0.01718,-0.14312c0.45442,0 1.09281,0.14782 1.42816,-0.19656l0.10075,-0.10075c0,0 0.13359,-0.13359 0.26718,0z" fill="#000000" stroke="none" stroke-width="0.5" stroke-linecap="butt"/><path d="M265.86354,194.44047c0.19914,0.59742 -0.39828,0.79656 -0.39828,0.79656l-0.19914,0.03232c-1.02605,0.76522 -1.99189,1.61986 -3.02274,2.393c-0.81162,0.57994 -1.24513,1.60168 -1.71807,2.44963c-0.21596,0.38719 -0.54318,0.70783 -0.74052,1.10484c-1.0504,2.11321 -2.71504,7.26234 -3.33254,7.13884c-0.6175,-0.1235 -0.24211,-0.74101 -0.24211,-0.74101c0.48538,-2.42691 1.34077,-4.75702 2.44636,-6.95749c0.20871,-0.41539 0.54582,-0.75544 0.77085,-1.16222c0.57078,-1.0318 1.10699,-2.10156 2.06035,-2.84016c1.0322,-0.77415 1.99858,-1.6211 3.02274,-2.393l0.55654,-0.21958c0,0 0.59742,-0.19914 0.79656,0.39828z" fill="#e7778b" stroke="none" stroke-width="0.5" stroke-linecap="butt"/><path d="M282.18265,194.18901c0,-0.62974 0.62973,-0.62974 0.62973,-0.62974l0.57589,0.08974c1.52751,0.91652 2.8783,1.80064 4.27756,2.86556c0.73897,0.98302 1.08423,2.10056 1.63022,3.1882c0.54105,1.07781 0.95511,2.0946 1.29895,3.24907c0.52198,1.75256 1.42879,3.40562 2.00895,5.14415c0,0 0.32509,0.4085 -0.27233,0.60764c-0.59742,0.19914 -2.41037,-3.62621 -2.94387,-5.3929c-0.32751,-1.08453 -0.71401,-2.03256 -1.21999,-3.04829c-0.47197,-0.94746 -0.75476,-2.00349 -1.39251,-2.85727c-1.32277,-0.97543 -2.59971,-1.81497 -4.03498,-2.67614l0.0721,0.08974c0,0 -0.62974,0 -0.62974,-0.62974z" fill="#e7778b" stroke="none" stroke-width="0.5" stroke-linecap="butt"/><path d="M288.47342,199.21712c0,1.3564 -6.64785,1.85143 -14.78623,1.85143c-8.13838,0 -13.55194,-0.36908 -13.55194,-1.72548c0,-0.82993 1.90346,-3.68613 5.53858,-5.48501c2.30599,-1.14115 5.53463,-1.63102 8.69348,-1.63102c4.16109,0 8.63635,0.84301 11.15501,2.4638c2.40742,1.54921 2.9511,3.86339 2.9511,4.52628z" fill="#e7778b" stroke="none" stroke-width="0" stroke-linecap="butt"/><path d="M284.50809,196.61432c0,0 1.02501,1.88729 1.3379,2.80874c0.28749,0.84668 0.46973,2.51465 0.46973,2.51465c0,0 -8.41429,-0.77676 -12.49627,-0.77676c-3.76321,0 -11.11713,0.77676 -11.11713,0.77676c0,0 0.07477,-2.04097 0.37156,-2.91856c0.28535,-0.84376 1.37623,-2.24948 1.37623,-2.24948" fill="#e7778b" stroke="#000000" stroke-width="1.5" stroke-linecap="round"/><path d="M269.09421,201.21823l0.05039,-2.92198" fill="none" stroke="#000000" stroke-width="1" stroke-linecap="round"/><path d="M280.17758,201.2686v-2.82122" fill="none" stroke="#000000" stroke-width="1" stroke-linecap="round"/><path d="M256.67134,210.50018c-0.35845,0.11948 -0.47794,-0.23897 -0.47794,-0.23897l-0.10336,-0.37138c0,-0.55976 0,-1.11953 0,-1.67929c0,0 0,-0.37785 0.37784,-0.37785c0.37784,0 0.37784,0.37785 0.37784,0.37785c0,0.55976 0,1.11953 0,1.67929l0.06458,0.13241c0,0 0.11949,0.35845 -0.23897,0.47794z" fill="#e7778b" stroke="none" stroke-width="0.5" stroke-linecap="butt"/><path d="M292.62084,211.18001c-0.36656,0.09164 -0.4582,-0.77871 -0.4582,-0.77871l-0.09524,-0.4275c0,-0.41982 0,-0.83965 0,-1.25947c0,0 0,-0.37785 0.37784,-0.37785c0.37784,0 0.37784,0.37785 0.37784,0.37785c0,0.41982 0,0.83965 0,1.25947l0.07269,0.24422c0,0 0.09164,0.87035 -0.27492,0.96199z" fill="#e7778b" stroke="none" stroke-width="0.5" stroke-linecap="butt"/><path d="M283.74014,206.03189c0,1.44831 -0.80839,2.6224 -1.80559,2.6224c-0.9972,0 -1.80559,-1.17409 -1.80559,-2.6224c0,-1.44831 0.80839,-2.6224 1.80559,-2.6224c0.9972,0 1.80559,1.17409 1.80559,2.6224z" fill="#c35440" stroke="none" stroke-width="0" stroke-linecap="butt"/></g></g></g></svg>