<svg version="1.1" xmlns="http://www.w3.org/2000/svg" xmlns:xlink="http://www.w3.org/1999/xlink" width="52.56196" height="45.50439" viewBox="0,0,52.56196,45.50439"><defs><radialGradient cx="240" cy="180.00005" r="26.28098" gradientUnits="userSpaceOnUse" id="color-1"><stop offset="0" stop-color="#000000" stop-opacity="0.70156"/><stop offset="1" stop-color="#000000" stop-opacity="0"/></radialGradient></defs><g transform="translate(-213.71902,-157.24785)"><g data-paper-data="{&quot;isPaintingLayer&quot;:true}" fill-rule="nonzero" stroke-linecap="butt" stroke-linejoin="miter" stroke-miterlimit="10" stroke-dasharray="" stroke-dashoffset="0" style="mix-blend-mode: normal"><g stroke-width="1"><path d="M266.28098,196.39727c0,3.50494 -2.83792,6.35497 -6.35498,6.35497c-9.24139,0 -30.61061,0 -39.852,0c-3.50494,0 -6.35498,-2.85003 -6.35498,-6.35497c0,-9.73982 0,-29.3386 0,-39.14942c5.34748,0 10.69494,0 16.0424,0c6.83129,0 13.66259,0 20.49388,0c5.34189,0 10.68379,0 16.02568,0c0,9.81081 0,29.40958 0,39.14942z" fill="url(#color-1)" stroke="none"/><g><path d="M259.66466,194.29526c0,2.62256 -2.12346,4.75509 -4.75509,4.75509c-6.91484,0 -22.90429,0 -29.81913,0c-2.62256,0 -4.75509,-2.13253 -4.75509,-4.75509c0,-7.28779 0,-21.95252 0,-29.29342c4.00123,0 8.00245,0 12.00367,0c5.11149,0 10.22298,0 15.33447,0c3.99705,0 7.99411,0 11.99116,0c0,7.3409 0,22.00562 0,29.29342z" fill="#f9fffe" stroke="none"/><path d="M257.71002,192.90105c0,2.44391 -1.91238,4.43115 -4.28243,4.43115c-6.22751,0 -20.6276,0 -26.85512,0c-2.36187,0 -4.28243,-1.98726 -4.28243,-4.43115c0,-6.79133 0,-22.08927 0,-28.93009c3.60351,0 7.207,0 10.81051,0c4.60341,0 9.20683,0 13.81024,0c3.33261,0 6.6652,0 9.99779,0c0.26716,0 0.53431,0 0.80147,0c0,6.84082 0,22.13877 0,28.93009z" fill="none" stroke="#ded9d2"/><path d="M254.90958,160.94973c2.41003,0 4.39385,1.78089 4.71088,4.09507c-3.98232,0 -7.96463,0 -11.94695,0c-5.11149,0 -10.22298,0 -15.33447,0c-3.98642,0 -7.97285,0 -11.95928,0c0.31825,-2.31419 2.30899,-4.09507 4.7107,-4.09507c6.91484,0 22.90429,0 29.81913,0z" fill="#ffd966" stroke="none"/></g></g><g stroke="none" stroke-width="0.5"><path d="M247.76814,191.71463c-1.65836,1.64141 -4.24067,2.01134 -6.64425,1.61737c-5.89461,1.30203 -10.71212,-0.92152 -13.01661,-6.30367c-0.22622,-0.52834 -0.50422,-1.76677 -0.65399,-3.14577c-0.55935,-0.89332 -0.95848,-1.77412 -1.13253,-2.4476c-0.72628,-2.81042 0.02896,-5.15401 1.56438,-7.02323c0.05991,-0.61691 0.18129,-1.18898 0.36775,-1.69402c1.03237,-2.7964 4.33179,-4.50653 7.47918,-4.64013c0.11113,-0.07315 0.22714,-0.14492 0.34851,-0.21536c5.98237,-3.4724 13.02893,-0.83519 15.93013,4.91872c0.3594,0.71279 0.49112,1.7966 0.40392,2.97001c1.55421,2.9877 1.99369,6.9452 1.04593,9.51242c-0.42814,1.15972 -1.58736,2.24728 -3.0305,3.03259c-0.83432,1.37916 -1.90128,2.66581 -2.66191,3.41867z" fill="#393247"/><path d="M242.90801,169.58528c2.30791,0.01789 7.46897,4.4584 6.95922,6.66737c-0.16812,0.72851 -0.42762,1.57956 -1.06164,1.97582c-2.95155,1.84472 -3.35157,-2.24509 -4.7954,-3.38124c-0.66003,-0.51938 -3.0346,-0.90926 -3.0346,-1.91397c-0.18658,-0.32559 -0.29325,-0.70284 -0.29325,-1.105c0,-1.13609 0.85122,-2.07336 1.95066,-2.20884c0.08692,-0.02292 0.17834,-0.03489 0.27499,-0.03414z" fill="#4a405c"/><path d="M232.52885,174.17385c0.13471,-0.11547 0.2662,-0.22317 0.39484,-0.32222c0.40799,-0.46688 1.00783,-0.76181 1.67656,-0.76181c1.22919,0 2.22566,0.99646 2.22566,2.22566c0.45995,0.92002 -2.25653,3.85043 -2.63219,4.559c-0.21287,0.40152 -1.09171,3.99955 -1.54349,4.45132c-1.91119,1.91119 -4.37201,0.80102 -4.17311,-1.72822c0.21958,-2.79225 2.20902,-6.17023 4.04556,-8.31286z" fill="#4a405c"/><path d="M237.38489,184.85528c1.84247,-1.03641 2.90853,0.70595 4.47804,0.95257c1.02106,0.16044 2.42618,-0.07404 2.9995,0.78595c0.41473,0.62209 0.30095,1.50452 0.15432,2.23766c-0.46841,2.34205 -6.94477,1.12112 -7.64863,-0.11063c-0.65599,-0.38715 -1.09606,-1.10124 -1.09606,-1.91811c0,-0.7243 0.34598,-1.36778 0.88168,-1.77421c0.06852,-0.06633 0.14492,-0.12473 0.23115,-0.17324z" fill="#3d3847"/><path d="M237.9131,179.11036c0,-1.22919 0.99646,-2.22566 2.22566,-2.22566c1.22919,0 2.22566,0.99646 2.22566,2.22566c0,1.22919 -0.99646,2.22566 -2.22566,2.22566c-1.22919,0 -2.22566,-0.99646 -2.22566,-2.22566z" fill="#4f485c"/><path d="M231.17523,179.97544c-1.27534,-0.75834 -0.517,-2.03368 -0.517,-2.03368l0.81856,-1.30231c1.77281,-1.85313 3.4654,-3.67509 5.02177,-5.71251c0,0 0.90132,-1.17865 2.07997,-0.27733c1.17865,0.90132 0.27733,2.07997 0.27733,2.07997c-1.62456,2.12227 -3.38709,4.02936 -5.23459,5.96111l-0.41235,0.76776c0,0 -0.75834,1.27534 -2.03368,0.517z" fill="#3d3847"/><path d="M237.70074,188.67243c-1.04918,1.04918 -2.09837,0 -2.09837,0l-0.6334,-0.69605c-0.3077,-0.51282 -0.61539,-1.02565 -0.92308,-1.53847c0,0 -0.76339,-1.27233 0.50893,-2.03572c1.27233,-0.76339 2.03572,0.50893 2.03572,0.50893c0.3077,0.51282 0.61539,1.02565 0.92308,1.53847l0.18712,0.12447c0,0 1.04918,1.04918 0,2.09837z" fill="#4f485c"/><path d="M247.49847,185.82662c-1.38288,-0.53779 -0.8451,-1.92067 -0.8451,-1.92067l0.71795,-1.84617c0,0 0.53779,-1.38288 1.92067,-0.8451c1.38288,0.53779 0.8451,1.92067 0.8451,1.92067l-0.71795,1.84617c0,0 -0.53779,1.38288 -1.92067,0.8451z" fill="#3d3847"/><path d="M236.08047,190.32817c-0.55106,1.37765 -1.9287,0.82659 -1.9287,0.82659l-0.54625,-0.21898c-0.47864,-0.20513 -0.95727,-0.41026 -1.43591,-0.61539c0,0 -1.3638,-0.58449 -0.77931,-1.94829c0.58449,-1.3638 1.94829,-0.77931 1.94829,-0.77931c0.47864,0.20513 0.95727,0.41026 1.43591,0.61539l0.4794,0.19128c0,0 1.37765,0.55106 0.82659,1.9287z" fill="#3d3847"/><path d="M247.47557,185.57195c0,-0.81947 0.66431,-1.48377 1.48377,-1.48377c0.81947,0 1.48377,0.66431 1.48377,1.48377c0,0.81947 -0.66431,1.48377 -1.48377,1.48377c-0.81947,0 -1.48377,-0.66431 -1.48377,-1.48377z" fill="#4f485c"/><path d="M242.78152,189.87967c0,-0.40973 0.33216,-0.74189 0.74189,-0.74189c0.40973,0 0.74189,0.33216 0.74189,0.74189c0,0.40973 -0.33216,0.74189 -0.74189,0.74189c-0.40973,0 -0.74189,-0.33216 -0.74189,-0.74189z" fill="#4f485c"/></g></g></g></svg>