<svg version="1.1" xmlns="http://www.w3.org/2000/svg" xmlns:xlink="http://www.w3.org/1999/xlink" width="243.57859" height="40.25004" viewBox="0,0,243.57859,40.25004"><defs><linearGradient x1="136.27431" y1="180.35924" x2="153.93047" y2="180.35924" gradientUnits="userSpaceOnUse" id="color-1"><stop offset="0" stop-color="#a28f90"/><stop offset="1" stop-color="#8e807f"/></linearGradient><radialGradient cx="231.41711" cy="189.6972" r="99.78222" gradientUnits="userSpaceOnUse" id="color-2"><stop offset="0" stop-color="#000000"/><stop offset="1" stop-color="#000000" stop-opacity="0"/></radialGradient><linearGradient x1="131.6349" y1="177.53247" x2="131.6349" y2="201.8619" gradientUnits="userSpaceOnUse" id="color-3"><stop offset="0" stop-color="#000000" stop-opacity="0"/><stop offset="1" stop-color="#000000" stop-opacity="0"/></linearGradient><linearGradient x1="136.09477" y1="179.6697" x2="377.30739" y2="179.6697" gradientUnits="userSpaceOnUse" id="color-4"><stop offset="0" stop-color="#fff18e"/><stop offset="1" stop-color="#eed16d"/></linearGradient><radialGradient cx="283.58186" cy="171.69723" r="94.77298" gradientUnits="userSpaceOnUse" id="color-5"><stop offset="0" stop-color="#fefefd"/><stop offset="1" stop-color="#ebebfb"/></radialGradient><radialGradient cx="251.91519" cy="171.69724" r="94.77298" gradientUnits="userSpaceOnUse" id="color-6"><stop offset="0" stop-color="#fefefd"/><stop offset="1" stop-color="#ebebfb"/></radialGradient></defs><g transform="translate(-135.82617,-162.02215)"><g data-paper-data="{&quot;isPaintingLayer&quot;:true}" fill-rule="nonzero" stroke-linejoin="miter" stroke-miterlimit="10" stroke-dasharray="" stroke-dashoffset="0" style="mix-blend-mode: normal"><path d="M148.39281,198.00678l-12.11853,-16.29004l12.11853,-19.00505h5.53765c-0.32627,2.36702 -0.63231,4.73613 -0.88777,7.10952c-0.57395,5.3322 -0.47058,10.98239 -0.16077,16.33672c0.22745,3.93108 0.18353,7.91924 0.48477,11.84886z" fill="url(#color-1)" stroke="none" stroke-width="0" stroke-linecap="butt"/><path d="M138.0051,177.53247l239.34004,-0.89334v5.09429l-13.34708,18.47916h-214.12118l-11.5588,-17.1467z" fill="url(#color-2)" stroke="url(#color-3)" stroke-width="4.11922" stroke-linecap="round"/><path d="M366.77705,162.71168l10.69423,18.22934l-10.69423,17.06576h-215.65041c-0.27975,-3.94316 -0.23716,-7.94654 -0.44556,-11.89189c-0.28067,-5.31381 -0.376,-10.922 0.14399,-16.21394c0.23583,-2.40001 0.51898,-4.79573 0.8207,-7.18926z" fill="#8e807f" stroke="none" stroke-width="0" stroke-linecap="butt"/><path d="M147.15776,197.31724l-11.06299,-16.29004l11.06299,-19.00505h219.4554l10.69423,18.22934l-10.69423,17.06576z" fill="url(#color-4)" stroke="none" stroke-width="0" stroke-linecap="butt"/><text transform="translate(185.45371,186.0148) scale(0.34039,0.31393)" font-size="40" xml:space="preserve" fill="#696d7a" fill-rule="nonzero" stroke="#2c2a26" stroke-width="0.4" stroke-linecap="butt" stroke-linejoin="miter" stroke-miterlimit="10" stroke-dasharray="" stroke-dashoffset="0" font-family="Sans Serif" font-weight="normal" text-anchor="start" style="mix-blend-mode: normal"><tspan x="0" dy="0">More Modes</tspan></text><g data-paper-data="{&quot;index&quot;:null}" fill="none" stroke-linecap="round"><path d="M282.8647,178.96775l2.02551,2.15891l-1.90077,2.32092" data-paper-data="{&quot;index&quot;:null}" stroke="#818796" stroke-width="3"/><path d="M282.8647,178.96775l2.02551,2.15891l-1.90077,2.32092" data-paper-data="{&quot;index&quot;:null}" stroke="#d8e0e6" stroke-width="1"/></g><path d="M336.15776,195.02755l10.27034,-15.60471l-10.27034,-15.06738l28.78873,0.28967l9.3609,15.84163l-9.3609,14.83046z" fill="url(#color-5)" stroke="none" stroke-width="0" stroke-linecap="butt"/><path d="M304.49109,195.02756l10.27034,-15.60471l-10.27034,-15.06738l28.78873,0.28967l9.3609,15.84163l-9.3609,14.83046z" fill="url(#color-6)" stroke="none" stroke-width="0" stroke-linecap="butt"/><g stroke-linecap="butt"><path d="M176.27998,180.25264c0,6.33104 -5.21189,11.46335 -11.64108,11.46335c-6.4292,0 -11.64108,-5.13232 -11.64108,-11.46335c0,-6.33104 5.21189,-11.46336 11.64108,-11.46336c6.4292,0 11.64108,5.13233 11.64108,11.46336z" fill="none" stroke="#ffffff" stroke-width="1.5"/><g fill="#ffffff" stroke="none" stroke-width="0.5"><path d="M155.82426,180.34444c0,-1.26775 1.02772,-2.29547 2.29547,-2.29547c1.26775,0 2.29547,1.02772 2.29547,2.29547c0,1.26775 -1.02772,2.29547 -2.29547,2.29547c-1.26775,0 -2.29547,-1.02772 -2.29547,-2.29547z"/><path d="M162.2516,180.34444c0,-1.26775 1.02772,-2.29547 2.29547,-2.29547c1.26775,0 2.29548,1.02772 2.29548,2.29547c0,1.26775 -1.02772,2.29547 -2.29548,2.29547c-1.26775,0 -2.29547,-1.02772 -2.29547,-2.29547z"/></g><path d="M168.67892,180.34444c0,-1.26775 1.02772,-2.29547 2.29547,-2.29547c1.26775,0 2.29548,1.02772 2.29548,2.29547c0,1.26775 -1.02772,2.29547 -2.29548,2.29547c-1.26775,0 -2.29547,-1.02772 -2.29547,-2.29547z" fill="#ffffff" stroke="none" stroke-width="0.5"/></g></g></g></svg>