<svg version="1.1" xmlns="http://www.w3.org/2000/svg" xmlns:xlink="http://www.w3.org/1999/xlink" width="800.46322" height="587.71603" viewBox="0,0,800.46322,587.71603"><defs><linearGradient x1="406.48411" y1="309.32473" x2="406.48411" y2="471.32474" gradientUnits="userSpaceOnUse" id="color-1"><stop offset="0" stop-color="#45341e"/><stop offset="1" stop-color="#3d2912"/></linearGradient><linearGradient x1="259.07302" y1="34.9119" x2="259.07302" y2="332.9119" gradientUnits="userSpaceOnUse" id="color-2"><stop offset="0" stop-color="#45341e"/><stop offset="1" stop-color="#3d2912"/></linearGradient></defs><g transform="translate(46.11747,87.30413)"><g data-paper-data="{&quot;isPaintingLayer&quot;:true}" fill-rule="nonzero" stroke-linejoin="miter" stroke-miterlimit="10" stroke-dasharray="" stroke-dashoffset="0" style="mix-blend-mode: normal"><path d="M-46.11746,41.55473v-128.85886h375.37538v128.85886z" fill="#1d5618" stroke="none" stroke-width="0" stroke-linecap="butt"/><path d="M-45.28487,330.9119v-331h285.63063v331z" fill="#1d5618" stroke="none" stroke-width="0" stroke-linecap="butt"/><path d="M324.34576,157.91189v-240.27886h430v240.27886z" fill="#12360f" stroke="none" stroke-width="0" stroke-linecap="butt"/><path d="M436.35407,113.31363c-0.67082,1.34164 -2.01247,0.67082 -2.01247,0.67082l-1.19584,-0.77497c-1.41248,-1.92454 -2.95463,-2.34513 -5.13321,-3.22289c-3.69033,-2.20764 -8.04599,-4.0289 -11.31626,-6.87725c-1.425,-1.24115 -2.60578,-2.76 -4.01758,-4.01549c-1.45188,-1.29113 -10.59475,-10.25435 -12.63249,-11.97032c0,0 -1.14737,-0.9662 -0.18116,-2.11357c0.96621,-1.14737 2.11357,-0.18117 2.11357,-0.18117c2.10807,1.77521 11.48758,10.95165 12.70084,12.02968c1.40106,1.24489 2.5757,2.74695 3.98242,3.98451c3.05111,2.68422 7.2315,4.3772 10.68375,6.45608c2.628,1.04249 4.44481,1.80873 6.20012,4.11044l0.13749,-0.1083c0,0 1.34164,0.67082 0.67082,2.01246z" fill="#0c0905" stroke="none" stroke-width="0.5" stroke-linecap="butt"/><path d="M415.22744,116.17559c-0.3326,1.09716 -1.21377,2.55055 -3.54835,2.55055c-3.75,0 -3.75,-3.75 -3.75,-3.75l0.86917,-2.73402c2.1753,-2.51142 2.84358,-5.60281 4.06755,-8.66331c2.69239,-6.73218 5.57976,-13.3385 7.15257,-20.41616c0,0 0.81349,-3.66071 4.47419,-2.84722c3.6607,0.81349 2.84721,4.47419 2.84721,4.47419c-1.27638,5.74368 -3.43633,10.70967 -5.48883,16.18586c-1.93056,5.15082 -3.37176,10.73637 -6.62353,15.20011z" fill="#281e11" stroke="none" stroke-width="0.5" stroke-linecap="butt"/><path d="M325.03767,433.86083v-277h371v277z" fill="#1d5618" stroke="none" stroke-width="0" stroke-linecap="butt"/><path d="M-6.58314,500.4119v-172h705.15616c0,0 0,61.5492 0,91c0,27.78555 0,81 0,81z" fill="#56fd47" stroke="none" stroke-width="0" stroke-linecap="butt"/><path d="M366.23411,471.32474v-162h80.5v162z" fill="url(#color-1)" stroke="none" stroke-width="0" stroke-linecap="butt"/><path d="M621.18103,252.91341c0,23.33403 -28.31799,42.25 -63.25,42.25c-34.93201,0 -63.25,-18.91597 -63.25,-42.25c0,-23.33403 28.31799,-42.25 63.25,-42.25c34.93201,0 63.25,18.91597 63.25,42.25z" fill="#222c40" stroke="none" stroke-width="0" stroke-linecap="butt"/><path d="M467.80796,61.30537c0.28463,0.39022 0.55889,1.23063 0.81441,2.22199c0.32954,0.62282 0.62716,1.26512 0.89067,1.92475c0.57335,1.24162 1.09586,2.51606 1.61329,3.79754c4.61325,11.42531 13.93124,24.95335 13.93124,37.73626c0,10.26355 -5.10536,18.78235 -12.86389,21.93971c0.15732,1.21955 0.23928,2.53132 0.23928,3.94225c0,11.53974 -6.82558,17.17515 -16.875,19.6875c-10.05899,2.51475 -29.04903,-0.28081 -39.93814,-0.1875c-1.64198,0.01407 -3.63296,0.08161 -5.79339,0.09631c-0.54134,0.19127 -1.08772,0.36225 -1.63696,0.51205c-3.68108,1.00393 -7.28987,0.31396 -10.74795,-1.36437c-0.53517,-0.1997 -1.05949,-0.42167 -1.57183,-0.66477c-3.69275,-1.15563 -6.76167,-3.15647 -8.22436,-6.58432c-4.56367,-4.36519 -8.62531,-9.35901 -11.92989,-12.68749c-3.25619,-3.27974 -9.10105,-8.65945 -11.41385,-14.12369c-0.98959,-1.40193 -2.02817,-2.7713 -3.4241,-3.95491c-7.02779,-5.95885 -14.61929,-10.95281 -22.32339,-15.94319c-2.48658,-1.61071 -4.9849,-3.22103 -7.47978,-4.86331c-2.59723,-1.70965 -5.40046,-6.66994 -5.21866,-9.81244c-0.27705,-1.32644 -0.4227,-2.70113 -0.4227,-4.10984c0,-4.8501 1.72643,-9.29698 4.59827,-12.75962c0.7776,-1.37954 1.75128,-2.59717 3.04908,-3.54588c2.92326,-2.13692 6.02137,-3.2419 9.19985,-3.57169c2.50312,-4.67654 6.3089,-7.51351 10.77929,-9.21972c0.56946,-0.22597 1.15175,-0.42656 1.7455,-0.60034c9.71138,-2.99681 22.32129,11.58275 31.27449,11.19724c7.05998,-0.304 51.47638,2.16114 55.39574,3.43361c3.72823,1.21042 25.27241,-3.94989 26.33279,-2.49611zM444.92639,109.8773c-0.32568,-1.91862 -5.64098,-4.22232 -6.2722,-6.20613c-1.5661,-4.92205 -4.21893,-15.77699 -7.20162,-15.8033c-3.62608,-0.03198 -13.38275,0.47325 -19.22512,0.30632c-0.91318,0.12767 -1.84613,0.19368 -2.79449,0.19368c-2.6575,0 -5.19393,-0.51831 -7.51374,-1.45936c-0.23393,-0.02195 -0.46747,-0.03613 -0.70055,-0.04064c-3.44828,-0.06673 -6.7729,0.10925 -10.09429,0.29124c0.77414,0.79291 1.57736,1.64077 2.45071,2.56663c2.2148,2.34794 4.50314,5.35853 6.35014,8.68436c4.74846,4.4463 8.94813,9.84257 12.73784,13.88021c8.84754,-0.35506 17.80665,0.47386 23.51504,0.57757c2.91932,0.05304 6.07583,-0.01777 9.26659,0.00138c-0.18509,-1.00302 -0.35086,-2.00539 -0.51832,-2.99195z" fill="#45341e" stroke="none" stroke-width="0.5" stroke-linecap="butt"/><path d="M389.36598,156.37142c0,0 13.1135,0 22,0c13.66222,0 52,0 52,0" fill="none" stroke="#8f6915" stroke-width="12.5" stroke-linecap="round"/><path d="M385.19282,330.99629c-4.85072,1.21268 -6.06339,-3.63804 -6.06339,-3.63804l-0.29167,-5.06963c1.07364,-2.58687 2.92234,-4.32289 4.07785,-6.6839c0.62676,-1.28062 0.45655,-3.05517 1.52899,-3.99468c3.09462,-2.71105 7.96022,-1.96899 11.62314,-2.44743c2.34436,-0.30622 4.58051,-0.76287 6.808,-1.16437c-0.46527,-0.85498 -0.91571,-1.71363 -1.34741,-2.57641c-0.29537,-0.59031 -0.56268,-1.19429 -0.81396,-1.80596c-5.68696,-0.15455 -10.44953,-0.92757 -16.15896,-2.67758c-4.526,-1.38727 -9.43909,-1.34425 -13.87824,-3.12911c-0.75356,-0.30299 -1.25858,-1.09613 -2.03169,-1.34503c-0.52844,-0.17013 -1.10475,0.20272 -1.65802,0.15709c-3.8477,-0.31732 -7.61335,-0.45271 -11.51463,-0.5c-1.55729,0.14539 -2.75772,1.59811 -3.99269,2.52433l-2,1.5c0,0 -4,3 -7,-1c-3,-4 1,-7 1,-7l2,-1.5c3.1798,-2.38485 5.03535,-3.58168 9.00732,-4.47567c4.56482,-0.03712 8.97511,-0.00731 13.48537,0.5c1.10824,0.12465 2.27008,-0.15071 3.34198,0.15709c1.08883,0.31267 1.91578,1.23605 2.96832,1.65496c3.15541,1.25586 6.75581,1.62154 10.09842,2.24554c3.04768,0.56894 5.6932,1.8321 8.69816,2.54047c1.07697,0.25388 2.18218,0.37955 3.29896,0.43458c-2.70612,-5.23651 -5.5305,-10.73365 -6.62788,-16.4343l-2.24277,-4.38662c0,0 -2.23606,-4.47213 2.23607,-6.7082c4.47214,-2.23607 6.7082,2.23606 6.7082,2.23606l2.75723,5.61338c1.34698,6.51645 4.8182,12.50526 7.74987,18.40087c1.35272,2.72034 2.11239,5.72272 3.47258,8.44555c0.6344,1.26994 1.31188,2.53167 2.01892,3.78629c2.93205,1.5495 6.11426,2.54556 9.11855,3.94741c3.13866,1.46454 5.35449,4.34317 8.69405,5.21007c3.27502,0.85014 6.87284,0.25099 10.1622,0.92271c3.99553,0.81593 7.1821,2.65558 10.09,5.37425l1.4366,2.29946c0,0 2.23607,4.47213 -2.23607,6.7082c-4.47214,2.23607 -6.7082,-2.23607 -6.7082,-2.23607l0.4366,0.29946c-3.55838,-4.17413 -10.89536,-2.34768 -15.7478,-3.70303c-2.40981,-0.67309 -4.15197,-1.88452 -5.89664,-3.11596c0.42622,1.4702 0.55785,3.8877 -2.24755,5.57093c-4.28746,2.57248 -6.85994,-1.71499 -6.85994,-1.71499c-1.39058,-2.32388 -2.86143,-4.65212 -4.32671,-6.99537c-3.8562,0.30765 -7.87177,1.43668 -11.47342,1.90586c-1.60199,0.20869 -3.23176,0.61229 -4.83597,0.52299c-0.00353,0.01187 -0.0075,0.0235 -0.01191,0.03489c-0.93037,2.40206 -3.00122,3.86437 -3.92215,6.3161l0.70833,-1.06963c0,0 1.21268,4.85071 -3.63804,6.06339z" fill="#846420" stroke="none" stroke-width="0.5" stroke-linecap="butt"/><path d="M575.06508,263.4119c0,0 -21.77458,-22.61058 -23.42948,-39.06129c-1.15321,-11.46354 -59.40688,-48.90619 -75.92705,-70.92227c-24.14667,-32.17976 -9.13553,-49.01643 -9.13553,-49.01643c0,0 40.66582,1.3554 63.38091,5.51984c33.20547,6.08767 116.61909,27.48017 116.61909,27.48017c0,0 12.0073,60.07915 -11.5,101.5c-23.50729,41.42085 -60.00793,24.5 -60.00793,24.5z" fill="#3b751d" stroke="none" stroke-width="NaN" stroke-linecap="butt"/><path d="M191.57302,331.9119l1,-295l133.5,-2l0.5,298z" fill="url(#color-2)" stroke="none" stroke-width="0" stroke-linecap="butt"/><g fill="#28e417" stroke="none" stroke-width="0" stroke-linecap="butt"><path d="M627.57302,126.53216c0,-6.2132 5.03679,-11.25 11.25,-11.25c6.21321,0 11.25,5.03679 11.25,11.25c0,6.2132 -5.03679,11.25 -11.25,11.25c-6.21321,0 -11.25,-5.0368 -11.25,-11.25z"/><path d="M610.57302,123.28216c0,-7.45584 6.04415,-13.5 13.5,-13.5c7.45585,0 13.5,6.04415 13.5,13.5c0,7.45585 -6.04415,13.5 -13.5,13.5c-7.45585,0 -13.5,-6.04416 -13.5,-13.5z"/><path d="M621.07302,110.28216c0,-7.1797 5.8203,-13 13,-13c7.1797,0 13,5.8203 13,13c0,7.1797 -5.8203,13 -13,13c-7.1797,0 -13,-5.8203 -13,-13z"/><path d="M593.07302,120.28216c0,-8.83656 7.16345,-16 16,-16c8.83655,0 16,7.16344 16,16c0,8.83656 -7.16345,16 -16,16c-8.83655,0 -16,-7.16345 -16,-16z"/><path d="M576.07302,120.03216c0,-6.2132 5.03679,-11.25 11.25,-11.25c6.21321,0 11.25,5.03679 11.25,11.25c0,6.2132 -5.03679,11.25 -11.25,11.25c-6.21321,0 -11.25,-5.0368 -11.25,-11.25z"/><path d="M478.57302,100.78216c0,-6.62742 5.37259,-12 12,-12c6.62741,0 12,5.37258 12,12c0,6.62742 -5.37259,12 -12,12c-6.62741,0 -12,-5.37258 -12,-12z"/><path d="M493.07302,98.53216c0,-8.42234 6.82766,-15.25 15.25,-15.25c8.42234,0 15.25,6.82766 15.25,15.25c0,8.42234 -6.82766,15.25 -15.25,15.25c-8.42234,0 -15.25,-6.82766 -15.25,-15.25z"/><path d="M510.07302,104.53216c0,-5.66092 4.58908,-10.25 10.25,-10.25c5.66092,0 10.25,4.58908 10.25,10.25c0,5.66092 -4.58908,10.25 -10.25,10.25c-5.66092,0 -10.25,-4.58908 -10.25,-10.25z"/><path d="M561.57302,114.03216c0,-6.76549 5.48451,-12.25 12.25,-12.25c6.76549,0 12.25,5.48451 12.25,12.25c0,6.76549 -5.48451,12.25 -12.25,12.25c-6.76549,0 -12.25,-5.48451 -12.25,-12.25z"/><path d="M525.57302,107.03216c0,-5.66092 4.58908,-10.25 10.25,-10.25c5.66092,0 10.25,4.58908 10.25,10.25c0,5.66092 -4.58908,10.25 -10.25,10.25c-5.66092,0 -10.25,-4.58908 -10.25,-10.25z"/><path d="M539.07302,108.28216c0,-9.38884 7.61116,-17 17,-17c9.38884,0 17,7.61116 17,17c0,9.38884 -7.61116,17 -17,17c-9.38884,0 -17,-7.61116 -17,-17z"/><path d="M595.75704,91.76399c6.98188,1.67374 11.28499,8.69051 9.61124,15.6724c-1.67374,6.98189 -8.69051,11.28499 -15.67239,9.61125c-6.98188,-1.67374 -11.28499,-8.69051 -9.61124,-15.67239c1.67374,-6.98188 8.69051,-11.28498 15.67239,-9.61124z" data-paper-data="{&quot;index&quot;:null}"/><path d="M619.97642,82.29415c8.59309,2.05999 13.88921,10.69601 11.82923,19.2891c-2.05998,8.59309 -10.69601,13.88921 -19.2891,11.82923c-8.59309,-2.05999 -13.88921,-10.69601 -11.82923,-19.2891c2.05998,-8.59309 10.69601,-13.88921 19.2891,-11.82922z" data-paper-data="{&quot;index&quot;:null}"/><path d="M514.26303,70.02182c6.44482,1.54499 10.41691,8.02201 8.87192,14.46682c-1.54499,6.44482 -8.02201,10.41691 -14.46683,8.87192c-6.44482,-1.54499 -10.41691,-8.02201 -8.87192,-14.46683c1.54499,-6.44481 8.02201,-10.41691 14.46683,-8.87192z" data-paper-data="{&quot;index&quot;:null}"/><path d="M531.75708,73.18727c8.19029,1.96343 13.23816,10.19464 11.27473,18.38493c-1.96342,8.19028 -10.19464,13.23816 -18.38493,11.27474c-8.19029,-1.96342 -13.23816,-10.19464 -11.27473,-18.38493c1.96342,-8.19028 10.19464,-13.23816 18.38493,-11.27473z" data-paper-data="{&quot;index&quot;:null}"/><path d="M543.6596,75.01228c5.50495,1.31968 8.89778,6.85213 7.5781,12.35708c-1.31968,5.50495 -6.85213,8.89778 -12.35708,7.5781c-5.50495,-1.31968 -8.89778,-6.85213 -7.5781,-12.35708c1.31968,-5.50495 6.85213,-8.89778 12.35708,-7.5781z" data-paper-data="{&quot;index&quot;:null}"/><path d="M598.36641,76.30111c6.57909,1.57718 10.63393,8.18913 9.05675,14.76822c-1.57718,6.57909 -8.18913,10.63394 -14.76822,9.05675c-6.57909,-1.57718 -10.63393,-8.18913 -9.05675,-14.76822c1.57718,-6.57908 8.18913,-10.63393 14.76821,-9.05675z" data-paper-data="{&quot;index&quot;:null}"/><path d="M559.31534,76.19454c5.50495,1.31968 8.89778,6.85213 7.5781,12.35708c-1.31968,5.50495 -6.85213,8.89777 -12.35708,7.57809c-5.50495,-1.31968 -8.89778,-6.85213 -7.5781,-12.35708c1.31968,-5.50495 6.85213,-8.89777 12.35708,-7.5781z" data-paper-data="{&quot;index&quot;:null}"/><path d="M580.87236,73.13566c9.13016,2.18874 14.75729,11.36451 12.56856,20.49466c-2.18874,9.13016 -11.36451,14.75729 -20.49467,12.56856c-9.13016,-2.18873 -14.75729,-11.36451 -12.56856,-20.49467c2.18874,-9.13016 11.36451,-14.75728 20.49467,-12.56855z" data-paper-data="{&quot;index&quot;:null}"/><path d="M547.31534,85.19454c5.50495,1.31968 8.89778,6.85213 7.5781,12.35708c-1.31968,5.50495 -6.85213,8.89777 -12.35708,7.5781c-5.50495,-1.31968 -8.89778,-6.85213 -7.5781,-12.35708c1.31968,-5.50495 6.85213,-8.89777 12.35708,-7.5781z" data-paper-data="{&quot;index&quot;:null}"/></g><g fill="#28e417" stroke="none" stroke-width="0" stroke-linecap="butt"><path d="M474.47351,159.51538c-3.7355,4.81829 -10.66971,5.69605 -15.488,1.96055c-4.81829,-3.7355 -5.69606,-10.66971 -1.96055,-15.488c3.7355,-4.81829 10.66972,-5.69606 15.488,-1.96055c4.81829,3.7355 5.69605,10.66972 1.96055,15.48801z"/><path d="M497.74571,173.88506c-3.23264,4.16967 -9.23341,4.92928 -13.40308,1.69664c-4.16967,-3.23265 -4.92927,-9.23341 -1.69663,-13.40308c3.23264,-4.16967 9.23341,-4.92928 13.40308,-1.69663c4.16967,3.23264 4.92927,9.23341 1.69663,13.40308z"/><path d="M558.16225,234.53163c-3.44815,4.44764 -9.84897,5.2579 -14.29661,1.80974c-4.44765,-3.44816 -5.2579,-9.84897 -1.80974,-14.29662c3.44815,-4.44764 9.84897,-5.2579 14.29662,-1.80974c4.44765,3.44816 5.25789,9.84897 1.80974,14.29662z"/><path d="M547.26071,228.49745c-4.38203,5.65222 -12.5164,6.68191 -18.16861,2.29988c-5.65222,-4.38203 -6.6819,-12.5164 -2.29987,-18.16862c4.38203,-5.65221 12.5164,-6.68191 18.16861,-2.29988c5.65222,4.38203 6.6819,12.5164 2.29987,18.16862z"/><path d="M538.97372,215.62599c-2.9453,3.79904 -8.41265,4.49112 -12.21169,1.54582c-3.79904,-2.9453 -4.49112,-8.41266 -1.54582,-12.21169c2.9453,-3.79904 8.41266,-4.49112 12.21169,-1.54582c3.79904,2.9453 4.49112,8.41265 1.54582,12.21169z"/><path d="M504.85492,182.9558c-3.51999,4.54031 -10.05415,5.36744 -14.59446,1.84745c-4.54031,-3.51999 -5.36744,-10.05415 -1.84744,-14.59446c3.51999,-4.54031 10.05416,-5.36744 14.59447,-1.84744c4.54031,3.51999 5.36744,10.05415 1.84744,14.59446z"/><path d="M529.87245,205.8838c-2.9453,3.79904 -8.41265,4.49112 -12.21169,1.54582c-3.79904,-2.9453 -4.49112,-8.41265 -1.54582,-12.21169c2.9453,-3.79904 8.41265,-4.49112 12.21169,-1.54582c3.79904,2.9453 4.49112,8.41266 1.54582,12.21169z"/><path d="M521.46299,198.02106c-4.88488,6.30084 -13.95271,7.44868 -20.25354,2.5638c-6.30084,-4.88488 -7.44868,-13.9527 -2.5638,-20.25354c4.88488,-6.30084 13.9527,-7.44868 20.25354,-2.5638c6.30084,4.88488 7.44869,13.9527 2.5638,20.25354z"/><path d="M474.82825,179.61444c-3.81471,-4.75583 -3.05178,-11.70361 1.70405,-15.51831c4.75583,-3.8147 11.70362,-3.05178 15.51832,1.70404c3.81471,4.75582 3.05178,11.70362 -1.70405,15.51832c-4.75583,3.81471 -11.70361,3.05177 -15.51832,-1.70405z" data-paper-data="{&quot;index&quot;:null}"/><path d="M463.64764,173.36862c-4.69502,-5.85332 -3.75603,-14.40444 2.09728,-19.09947c5.85332,-4.69503 14.40445,-3.75603 19.09947,2.09729c4.69502,5.85332 3.75603,14.40444 -2.09729,19.09947c-5.85332,4.69503 -14.40444,3.75603 -19.09947,-2.09729z" data-paper-data="{&quot;index&quot;:null}"/><path d="M518.20656,236.60581c-3.52127,-4.38999 -2.81703,-10.80334 1.57297,-14.3246c4.38999,-3.52126 10.80333,-2.81703 14.3246,1.57296c3.52127,4.38999 2.81703,10.80334 -1.57296,14.3246c-4.38999,3.52126 -10.80334,2.81703 -14.3246,-1.57297z" data-paper-data="{&quot;index&quot;:null}"/><path d="M508.11328,225.37955c-4.47494,-5.57895 -3.57997,-13.72924 1.99898,-18.20418c5.57894,-4.47494 13.72924,-3.57997 18.20418,1.99898c4.47494,5.57895 3.57996,13.72924 -1.99898,18.20418c-5.57894,4.47494 -13.72924,3.57997 -18.20418,-1.99897z" data-paper-data="{&quot;index&quot;:null}"/><path d="M501.07507,217.96209c-3.00775,-3.74979 -2.40621,-9.22785 1.34357,-12.2356c3.74978,-3.00775 9.22785,-2.40622 12.23559,1.34357c3.00775,3.74979 2.40621,9.22785 -1.34357,12.2356c-3.74978,3.00775 -9.22785,2.40621 -12.23559,-1.34358z" data-paper-data="{&quot;index&quot;:null}"/><path d="M465.03197,188.63393c-3.59463,-4.48145 -2.87572,-11.02841 1.60573,-14.62303c4.48145,-3.59462 11.02841,-2.87571 14.62303,1.60573c3.59463,4.48145 2.87572,11.02841 -1.60573,14.62303c-4.48145,3.59462 -11.0284,2.87571 -14.62303,-1.60573z" data-paper-data="{&quot;index&quot;:null}"/><path d="M491.18364,209.0232c-3.00775,-3.74979 -2.40621,-9.22785 1.34358,-12.2356c3.74978,-3.00775 9.22785,-2.40621 12.23559,1.34358c3.00775,3.74979 2.40621,9.22785 -1.34358,12.2356c-3.74978,3.00775 -9.22785,2.40621 -12.23559,-1.34358z" data-paper-data="{&quot;index&quot;:null}"/><path d="M475.12526,199.86018c-4.98846,-6.21915 -3.99079,-15.30472 2.22836,-20.29318c6.21915,-4.98846 15.30473,-3.99079 20.29318,2.22836c4.98846,6.21915 3.99079,15.30472 -2.22836,20.29318c-6.21915,4.98846 -15.30473,3.99078 -20.29318,-2.22837z" data-paper-data="{&quot;index&quot;:null}"/><path d="M503.9194,209.22676c-3.00775,-3.74979 -2.40621,-9.22784 1.34357,-12.23559c3.74978,-3.00775 9.22785,-2.40621 12.23559,1.34358c3.00775,3.74979 2.40621,9.22784 -1.34357,12.23559c-3.74978,3.00775 -9.22785,2.40621 -12.23559,-1.34358z" data-paper-data="{&quot;index&quot;:null}"/></g><path d="M526.14699,233.34972c0,-4.55635 3.69365,-8.25 8.25,-8.25c4.55635,0 8.25,3.69365 8.25,8.25c0,4.55635 -3.69365,8.25 -8.25,8.25c-4.55635,0 -8.25,-3.69365 -8.25,-8.25z" fill="#28e417" stroke="none" stroke-width="0" stroke-linecap="butt"/><g fill="#28e417" stroke="none" stroke-width="0" stroke-linecap="butt"><path d="M457.97351,168.51538c-3.7355,4.81829 -10.66971,5.69605 -15.488,1.96055c-4.81829,-3.7355 -5.69606,-10.66971 -1.96055,-15.488c3.7355,-4.81829 10.66972,-5.69606 15.488,-1.96055c4.81829,3.7355 5.69605,10.66972 1.96055,15.48801z"/><path d="M481.24571,182.88506c-3.23264,4.16967 -9.23341,4.92928 -13.40308,1.69664c-4.16967,-3.23265 -4.92927,-9.23341 -1.69663,-13.40308c3.23264,-4.16967 9.23341,-4.92927 13.40308,-1.69663c4.16967,3.23265 4.92927,9.23341 1.69663,13.40308z"/><path d="M541.66225,243.53163c-3.44815,4.44764 -9.84897,5.2579 -14.29661,1.80974c-4.44765,-3.44816 -5.2579,-9.84897 -1.80974,-14.29662c3.44815,-4.44764 9.84897,-5.2579 14.29662,-1.80974c4.44765,3.44816 5.25789,9.84897 1.80974,14.29662z"/><path d="M530.76071,237.49745c-4.38203,5.65222 -12.5164,6.68191 -18.16861,2.29988c-5.65222,-4.38203 -6.6819,-12.5164 -2.29987,-18.16862c4.38203,-5.65221 12.5164,-6.68191 18.16861,-2.29988c5.65222,4.38203 6.6819,12.5164 2.29987,18.16862z"/><path d="M522.47372,224.62599c-2.9453,3.79904 -8.41265,4.49112 -12.21169,1.54582c-3.79904,-2.9453 -4.49112,-8.41266 -1.54582,-12.21169c2.9453,-3.79904 8.41266,-4.49112 12.21169,-1.54582c3.79904,2.9453 4.49112,8.41265 1.54582,12.21169z"/><path d="M488.35492,191.9558c-3.51999,4.54031 -10.05415,5.36744 -14.59446,1.84745c-4.54031,-3.51999 -5.36744,-10.05415 -1.84744,-14.59446c3.51999,-4.54031 10.05416,-5.36743 14.59447,-1.84744c4.54031,3.51999 5.36744,10.05415 1.84744,14.59446z"/><path d="M513.37245,214.8838c-2.9453,3.79904 -8.41265,4.49112 -12.21169,1.54582c-3.79904,-2.9453 -4.49112,-8.41265 -1.54582,-12.21169c2.9453,-3.79904 8.41265,-4.49112 12.21169,-1.54582c3.79904,2.9453 4.49112,8.41266 1.54582,12.21169z"/><path d="M504.96299,207.02106c-4.88488,6.30084 -13.95271,7.44868 -20.25354,2.5638c-6.30084,-4.88488 -7.44868,-13.9527 -2.5638,-20.25354c4.88488,-6.30084 13.9527,-7.44868 20.25354,-2.5638c6.30084,4.88488 7.44869,13.9527 2.5638,20.25354z"/><path d="M458.32825,188.61444c-3.81471,-4.75583 -3.05178,-11.70361 1.70405,-15.51832c4.75583,-3.81471 11.70362,-3.05178 15.51832,1.70405c3.81471,4.75583 3.05178,11.70362 -1.70405,15.51832c-4.75583,3.81471 -11.70361,3.05177 -15.51832,-1.70405z" data-paper-data="{&quot;index&quot;:null}"/><path d="M447.14764,182.36862c-4.69502,-5.85332 -3.75603,-14.40444 2.09728,-19.09947c5.85332,-4.69503 14.40445,-3.75603 19.09947,2.09729c4.69502,5.85332 3.75603,14.40444 -2.09729,19.09947c-5.85332,4.69503 -14.40444,3.75603 -19.09947,-2.09729z" data-paper-data="{&quot;index&quot;:null}"/><path d="M501.70658,245.60581c-3.52127,-4.38999 -2.81703,-10.80334 1.57297,-14.3246c4.38999,-3.52126 10.80333,-2.81702 14.3246,1.57297c3.52127,4.38999 2.81703,10.80334 -1.57296,14.3246c-4.38999,3.52126 -10.80334,2.81703 -14.3246,-1.57297z" data-paper-data="{&quot;index&quot;:null}"/><path d="M491.61328,234.37955c-4.47494,-5.57895 -3.57997,-13.72924 1.99898,-18.20418c5.57894,-4.47494 13.72924,-3.57997 18.20418,1.99898c4.47494,5.57895 3.57996,13.72924 -1.99898,18.20418c-5.57894,4.47494 -13.72924,3.57997 -18.20418,-1.99898z" data-paper-data="{&quot;index&quot;:null}"/><path d="M484.57507,226.96209c-3.00775,-3.74979 -2.40621,-9.22785 1.34357,-12.2356c3.74978,-3.00775 9.22785,-2.40622 12.23559,1.34357c3.00775,3.74979 2.40621,9.22785 -1.34357,12.2356c-3.74978,3.00775 -9.22785,2.40621 -12.23559,-1.34358z" data-paper-data="{&quot;index&quot;:null}"/><path d="M448.53197,197.63393c-3.59463,-4.48145 -2.87572,-11.02841 1.60573,-14.62303c4.48145,-3.59462 11.02841,-2.87571 14.62303,1.60573c3.59463,4.48145 2.87572,11.02841 -1.60573,14.62303c-4.48145,3.59462 -11.02841,2.87571 -14.62303,-1.60573z" data-paper-data="{&quot;index&quot;:null}"/><path d="M474.68364,218.0232c-3.00775,-3.74979 -2.40621,-9.22785 1.34358,-12.2356c3.74978,-3.00775 9.22785,-2.40621 12.23559,1.34358c3.00775,3.74979 2.40621,9.22785 -1.34358,12.2356c-3.74978,3.00775 -9.22785,2.40621 -12.23559,-1.34358z" data-paper-data="{&quot;index&quot;:null}"/><path d="M458.62526,208.86018c-4.98846,-6.21915 -3.99079,-15.30472 2.22836,-20.29318c6.21915,-4.98846 15.30473,-3.99079 20.29318,2.22836c4.98846,6.21915 3.99079,15.30472 -2.22836,20.29318c-6.21915,4.98846 -15.30473,3.99078 -20.29318,-2.22837z" data-paper-data="{&quot;index&quot;:null}"/><path d="M487.4194,218.22676c-3.00775,-3.74979 -2.40621,-9.22784 1.34357,-12.23559c3.74978,-3.00775 9.22785,-2.40621 12.23559,1.34358c3.00775,3.74979 2.40621,9.22784 -1.34357,12.23559c-3.74978,3.00775 -9.22785,2.40621 -12.23559,-1.34358z" data-paper-data="{&quot;index&quot;:null}"/></g><path d="M399.36598,170.87142l9,-8.5" fill="none" stroke="#8f6915" stroke-width="5" stroke-linecap="round"/><path d="M409.86598,149.87142l-24,-7" fill="none" stroke="#8f6915" stroke-width="5" stroke-linecap="round"/><g fill="#e54040" stroke="none" stroke-width="0" stroke-linecap="butt"><path d="M221.67908,386.25982c0,-6.44332 5.22335,-11.66667 11.66667,-11.66667c6.44332,0 11.66667,5.22335 11.66667,11.66667c0,6.44332 -5.22335,11.66667 -11.66667,11.66667c-6.44332,0 -11.66667,-5.22334 -11.66667,-11.66667z"/><path d="M212.01241,386.59316c0,-5.15466 4.17868,-9.33333 9.33334,-9.33333c5.15466,0 9.33333,4.17867 9.33333,9.33333c0,5.15466 -4.17867,9.33333 -9.33333,9.33333c-5.15466,0 -9.33334,-4.17867 -9.33334,-9.33333z"/><path d="M236.01241,386.59316c0,-5.15466 4.17867,-9.33333 9.33333,-9.33333c5.15466,0 9.33333,4.17867 9.33333,9.33333c0,5.15466 -4.17867,9.33333 -9.33333,9.33333c-5.15466,0 -9.33333,-4.17867 -9.33333,-9.33333z"/></g><g fill="#e67040" stroke="none" stroke-width="0" stroke-linecap="butt"><path d="M224.01241,426.25982c0,-6.44332 5.22334,-11.66667 11.66666,-11.66667c6.44332,0 11.66667,5.22335 11.66667,11.66667c0,6.44332 -5.22335,11.66667 -11.66667,11.66667c-6.44332,0 -11.66666,-5.22334 -11.66666,-11.66667z"/><path d="M214.34574,426.59316c0,-5.15466 4.17868,-9.33333 9.33334,-9.33333c5.15466,0 9.33334,4.17867 9.33334,9.33333c0,5.15466 -4.17867,9.33333 -9.33334,9.33333c-5.15466,0 -9.33334,-4.17867 -9.33334,-9.33333z"/><path d="M238.34574,426.59316c0,-5.15466 4.17867,-9.33333 9.33333,-9.33333c5.15466,0 9.33334,4.17867 9.33334,9.33333c0,5.15466 -4.17868,9.33333 -9.33334,9.33333c-5.15466,0 -9.33333,-4.17867 -9.33333,-9.33333z"/></g><g fill="#d7e640" stroke="none" stroke-width="0" stroke-linecap="butt"><path d="M399.10289,444.09316c0,-5.61489 4.55177,-10.16667 10.16666,-10.16667c5.61489,0 10.16666,4.55178 10.16666,10.16667c0,5.61489 -4.55177,10.16666 -10.16666,10.16666c-5.61489,0 -10.16666,-4.55177 -10.16666,-10.16666z"/><path d="M390.67908,444.38363c0,-4.49192 3.64141,-8.13333 8.13333,-8.13333c4.49192,0 8.13334,3.64141 8.13334,8.13333c0,4.49192 -3.64142,8.13334 -8.13334,8.13334c-4.49192,0 -8.13333,-3.64142 -8.13333,-8.13334z"/></g><g fill="#40e6e2" stroke="none" stroke-width="0" stroke-linecap="butt"><path d="M205.34575,354.59316c0,-6.44332 5.22335,-11.66667 11.66667,-11.66667c6.44332,0 11.66666,5.22335 11.66666,11.66667c0,6.44332 -5.22334,11.66666 -11.66666,11.66666c-6.44332,0 -11.66666,-5.22334 -11.66666,-11.66666z"/><path d="M195.67908,354.92649c0,-5.15466 4.17868,-9.33333 9.33334,-9.33333c5.15466,0 9.33334,4.17867 9.33334,9.33333c0,5.15466 -4.17868,9.33333 -9.33334,9.33333c-5.15466,0 -9.33333,-4.17867 -9.33333,-9.33333z"/><path d="M219.67908,354.92649c0,-5.15466 4.17868,-9.33333 9.33334,-9.33333c5.15466,0 9.33333,4.17867 9.33333,9.33333c0,5.15466 -4.17867,9.33333 -9.33333,9.33333c-5.15466,0 -9.33334,-4.17867 -9.33334,-9.33333z"/></g><g fill="#9740e6" stroke="none" stroke-width="0" stroke-linecap="butt"><path d="M320.67904,362.92649c0,-6.44332 5.22334,-11.66667 11.66666,-11.66667c6.44332,0 11.66666,5.22335 11.66666,11.66667c0,6.44332 -5.22334,11.66667 -11.66666,11.66667c-6.44332,0 -11.66666,-5.22335 -11.66666,-11.66667z"/><path d="M311.01241,363.25982c0,-5.15466 4.17868,-9.33333 9.33334,-9.33333c5.15466,0 9.33333,4.17867 9.33333,9.33333c0,5.15466 -4.17867,9.33334 -9.33333,9.33334c-5.15466,0 -9.33334,-4.17868 -9.33334,-9.33334z"/><path d="M335.0124,363.25982c0,-5.15466 4.17867,-9.33333 9.33334,-9.33333c5.15466,0 9.33334,4.17867 9.33334,9.33333c0,5.15466 -4.17867,9.33334 -9.33334,9.33334c-5.15466,0 -9.33334,-4.17868 -9.33334,-9.33334z"/></g><g fill="#e67040" stroke="none" stroke-width="0" stroke-linecap="butt"><path d="M244.01241,446.25983c0,-6.44332 5.22334,-11.66667 11.66666,-11.66667c6.44332,0 11.66667,5.22335 11.66667,11.66667c0,6.44332 -5.22335,11.66667 -11.66667,11.66667c-6.44332,0 -11.66666,-5.22334 -11.66666,-11.66667z"/><path d="M234.34574,446.59316c0,-5.15466 4.17867,-9.33333 9.33333,-9.33333c5.15466,0 9.33334,4.17867 9.33334,9.33333c0,5.15466 -4.17868,9.33333 -9.33334,9.33333c-5.15466,0 -9.33333,-4.17867 -9.33333,-9.33333z"/><path d="M258.34574,446.59316c0,-5.15466 4.17867,-9.33333 9.33333,-9.33333c5.15466,0 9.33334,4.17867 9.33334,9.33333c0,5.15466 -4.17867,9.33333 -9.33334,9.33333c-5.15466,0 -9.33333,-4.17867 -9.33333,-9.33333z"/></g><g fill="#28e417" stroke="none" stroke-width="0" stroke-linecap="butt"><path d="M311.35859,28.95758c-2.54798,-5.87349 -0.01977,-12.77582 5.64695,-15.41679c5.66672,-2.64096 12.32605,-0.02049 14.87404,5.85301c2.54799,5.87349 0.01977,12.77582 -5.64695,15.41679c-5.66672,2.64096 -12.32605,0.02048 -14.87404,-5.85301z"/><path d="M294.52108,33.11124c-3.05759,-7.04819 -0.02372,-15.33098 6.77634,-18.50015c6.80007,-3.16916 14.79125,-0.02458 17.84884,7.02361c3.05759,7.04819 0.02372,15.33098 -6.77634,18.50014c-6.80007,3.16916 -14.79126,0.02458 -17.84884,-7.02361z"/><path d="M298.76633,16.35893c-2.94434,-6.78714 -0.02283,-14.76317 6.52537,-17.81495c6.5482,-3.05178 14.24343,-0.02367 17.18777,6.76348c2.94434,6.78714 0.02283,14.76317 -6.52537,17.81495c-6.5482,3.05178 -14.24344,0.02367 -17.18778,-6.76347z"/><path d="M277.33002,37.71376c-3.62381,-8.35341 -0.0281,-18.17006 8.03122,-21.9261c8.05932,-3.75603 17.53038,-0.02913 21.15419,8.32428c3.62381,8.35341 0.0281,18.17006 -8.03122,21.92609c-8.05932,3.75603 -17.53038,0.02913 -21.15418,-8.32428z"/><path d="M261.72274,44.70339c-2.54798,-5.87349 -0.01977,-12.77582 5.64695,-15.41678c5.66672,-2.64096 12.32605,-0.02049 14.87404,5.85301c2.54798,5.87349 0.01977,12.77582 -5.64695,15.41678c-5.66672,2.64097 -12.32605,0.02048 -14.87404,-5.85301z"/><path d="M164.90419,67.94893c-2.71785,-6.26506 -0.02107,-13.62754 6.02342,-16.44457c6.04449,-2.81703 13.14779,-0.02185 15.86564,6.24321c2.71786,6.26506 0.02107,13.62755 -6.02342,16.44457c-6.04449,2.81703 -13.14778,0.02185 -15.86563,-6.24321z"/><path d="M177.20613,59.65863c-3.45394,-7.96184 -0.02679,-17.31834 7.65476,-20.89831c7.68155,-3.57997 16.70864,-0.02776 20.16258,7.93408c3.45394,7.96184 0.02679,17.31834 -7.65475,20.89831c-7.68154,3.57997 -16.70864,0.02776 -20.16258,-7.93408z"/><path d="M195.17143,58.10461c-2.3215,-5.3514 -0.01801,-11.64019 5.145,-14.0464c5.16301,-2.40621 11.2304,-0.01866 13.5519,5.33275c2.3215,5.35141 0.01801,11.64019 -5.145,14.0464c-5.16301,2.40621 -11.2304,0.01866 -13.5519,-5.33274z"/><path d="M246.03757,45.19477c-2.77448,-6.39558 -0.02152,-13.91145 6.1489,-16.78717c6.17042,-2.87571 13.4217,-0.0223 16.19617,6.37328c2.77447,6.39558 0.02152,13.91145 -6.1489,16.78716c-6.17043,2.87571 -13.42169,0.02231 -16.19617,-6.37327z"/><path d="M210.33333,53.87954c-2.3215,-5.3514 -0.018,-11.64019 5.14501,-14.0464c5.16301,-2.40621 11.23039,-0.01867 13.55189,5.33274c2.3215,5.35141 0.01801,11.64019 -5.145,14.04641c-5.16301,2.40621 -11.2304,0.01866 -13.5519,-5.33274z"/><path d="M223.15855,49.32293c-3.85029,-8.8755 -0.02986,-19.30569 8.53317,-23.29648c8.56303,-3.99079 18.62602,-0.03094 22.47632,8.84455c3.8503,8.8755 0.02986,19.30568 -8.53317,23.29647c-8.56303,3.99079 -18.62602,0.03095 -22.47632,-8.84455z"/><path d="M268.08288,9.61397c7.05417,-1.38547 13.85632,3.41858 15.19301,10.73017c1.3367,7.31158 -3.29824,14.36194 -10.35241,15.74741c-7.05417,1.38547 -13.85632,-3.41859 -15.193,-10.73017c-1.33669,-7.31158 3.29824,-14.36192 10.35241,-15.74739z" data-paper-data="{&quot;index&quot;:null}"/><path d="M286.28853,-9.63271c8.68206,-1.70519 17.05392,4.2075 18.69909,13.20636c1.64517,8.99886 -4.05936,17.67622 -12.74142,19.38142c-8.68206,1.70519 -17.05393,-4.2075 -18.69909,-13.20636c-1.64517,-8.99886 4.05937,-17.67622 12.74143,-19.38141z" data-paper-data="{&quot;index&quot;:null}"/><path d="M184.84048,23.70015c6.51155,-1.2789 12.79045,3.15562 14.02432,9.90476c1.23388,6.74916 -3.04452,13.25717 -9.55607,14.53607c-6.51155,1.2789 -12.79044,-3.15562 -14.02432,-9.90478c-1.23387,-6.74914 3.04453,-13.25716 9.55608,-14.53606z" data-paper-data="{&quot;index&quot;:null}"/><path d="M202.09396,19.25655c8.27509,-1.62526 16.25454,4.01027 17.82258,12.58732c1.56805,8.57704 -3.86909,16.84765 -12.14418,18.47292c-8.27509,1.62527 -16.25453,-4.01026 -17.82257,-12.58731c-1.56804,-8.57703 3.86909,-16.84766 12.14418,-18.47291z" data-paper-data="{&quot;index&quot;:null}"/><path d="M213.69798,15.92255c5.56195,-1.09239 10.92517,2.69542 11.9791,8.46032c1.05394,5.7649 -2.60054,11.32384 -8.16248,12.41623c-5.56194,1.09239 -10.92517,-2.69543 -11.9791,-8.46033c-1.05393,-5.7649 2.60054,-11.32383 8.16248,-12.41622z" data-paper-data="{&quot;index&quot;:null}"/><path d="M264.12156,-6.1126c6.64721,-1.30554 13.05691,3.22136 14.31649,10.11113c1.25958,6.88976 -3.10795,13.53337 -9.75516,14.8389c-6.64721,1.30554 -13.05691,-3.22136 -14.31649,-10.11113c-1.25957,-6.88975 3.10795,-13.53335 9.75515,-14.83889z" data-paper-data="{&quot;index&quot;:null}"/><path d="M228.46154,10.38559c5.56195,-1.09239 10.92517,2.69543 11.97911,8.46032c1.05394,5.7649 -2.60054,11.32382 -8.16248,12.41621c-5.56195,1.09239 -10.92517,-2.69542 -11.9791,-8.46032c-1.05393,-5.7649 2.60053,-11.32382 8.16247,-12.41622z" data-paper-data="{&quot;index&quot;:null}"/><path d="M246.86808,-1.66901c9.2247,-1.81176 18.1198,4.47047 19.86779,14.03175c1.74799,9.5613 -4.31308,18.78099 -13.53777,20.59276c-9.22469,1.81177 -18.11979,-4.47046 -19.86779,-14.03176c-1.74798,-9.5613 4.31308,-18.78098 13.53777,-20.59275z" data-paper-data="{&quot;index&quot;:null}"/><path d="M221.20784,23.99419c5.56194,-1.09239 10.92518,2.69542 11.97911,8.46032c1.05394,5.7649 -2.60054,11.32383 -8.16248,12.41623c-5.56195,1.09239 -10.92517,-2.69543 -11.9791,-8.46033c-1.05393,-5.7649 2.60053,-11.32382 8.16248,-12.41622z" data-paper-data="{&quot;index&quot;:null}"/></g></g></g></svg>