<svg version="1.1" xmlns="http://www.w3.org/2000/svg" xmlns:xlink="http://www.w3.org/1999/xlink" width="70.41709" height="72.06581" viewBox="0,0,70.41709,72.06581"><g transform="translate(-208.38608,-143.93537)"><g data-paper-data="{&quot;isPaintingLayer&quot;:true}" fill-rule="nonzero" stroke-linecap="butt" stroke-linejoin="miter" stroke-miterlimit="10" stroke-dasharray="" stroke-dashoffset="0" style="mix-blend-mode: normal"><path d="M238.39748,201.95223c-0.53994,2.81586 -6.20843,5.37632 -9.83457,7.49934c-3.19266,1.86923 -6.17409,2.91442 -8.79794,2.43042c-1.72877,-0.31888 -3.53975,-1.50958 -4.31193,-2.82849c-1.94416,-3.32065 0.77323,-8.52627 6.06945,-11.62708c5.29622,-3.1008 13.98239,-4.1629 15.92655,-0.84224c0.61305,1.0471 1.19714,4.07117 0.94846,5.36803z" fill="#ffffff" stroke="#ffffff" stroke-width="6"/><path d="M257.08759,184.47826c0,7.67531 3.90008,20.09929 -16.34257,20.53723c-17.28323,0.37391 -16.74117,-12.08985 -16.74117,-19.76516c0,-7.67532 8.08232,-8.02959 16.74117,-8.02959c8.65885,0 16.34257,-0.41779 16.34257,7.25752z" fill="#ffffff" stroke="#ffffff" stroke-width="6"/><path d="M261.68313,212.85457c-2.28836,0.8274 -7.9557,-2.03862 -11.76654,-3.80887c-3.35526,-1.55862 -5.91299,-3.41318 -7.0103,-5.84521c-0.72299,-1.60239 -0.1325,-5.15515 -0.1325,-5.15515c0,0 7.44737,-4.22276 13.01334,-1.63721c5.56596,2.58556 11.38807,9.11857 9.76696,12.60834c-0.51118,1.10043 -2.66352,3.30352 -3.87097,3.8381z" fill="#ffffff" stroke="#ffffff" stroke-width="6"/><path d="M241.01902,184.85848c-13.93043,0 -29.21788,5.03053 -29.63294,-4.40966c-0.52916,-12.03538 1.69513,-16.4197 4.91636,-22.46285c4.22124,-4.37648 12.82809,-10.66204 24.89297,-11.0506c16.33599,-0.52613 19.22245,7.38606 23.60054,12.41087c4.37808,5.0248 3.56298,9.32696 3.91576,21.45535c0.27473,9.44532 -13.76226,4.05689 -27.69269,4.05689z" fill="#ffffff" stroke="#ffffff" stroke-width="6"/><path d="M232.17179,173.45072c-5.02969,-0.2707 -7.07459,-2.403 -7.07459,-7.71629c0,-5.3133 2.94561,-9.62058 6.57921,-9.62058c3.6336,0 6.57922,4.30729 6.57922,9.62058c0,5.31329 -1.98246,7.93703 -6.08384,7.71629z" fill="#ffffff" stroke="#ffffff" stroke-width="6"/><path d="M249.85521,174.13275c-5.24543,-0.2707 -7.37806,-2.403 -7.37806,-7.71629c0,-5.31329 3.07197,-9.62057 6.86144,-9.62057c3.78946,0 6.86143,4.30728 6.86143,9.62057c0,5.31329 -2.0675,7.93702 -6.34481,7.71629z" fill="#ffffff" stroke="#ffffff" stroke-width="6"/><path d="M229.11293,171.12973c-1.94147,0.1631 -3.52773,-2.33754 -3.52773,-5.22105c0,-2.8835 1.58128,-5.30639 3.52773,-5.22104c3.2183,0.14111 3.52773,2.33754 3.52773,5.22104c0,2.8835 -0.16832,4.93883 -3.52773,5.22105z" fill="#ffffff" stroke="#ffffff" stroke-width="6"/><path d="M246.3753,171.15325c-1.94147,0.1631 -3.52773,-2.33754 -3.52773,-5.22105c0,-2.8835 1.58129,-5.30639 3.52773,-5.22104c3.2183,0.14111 3.52773,2.33754 3.52773,5.22104c0,2.88351 -0.16832,4.93883 -3.52773,5.22105z" fill="#ffffff" stroke="#ffffff" stroke-width="6"/><path d="M222.24562,182.15977c0,0 -4.33434,-1.56633 -1.99905,-2.75163c1.18361,-0.60075 13.76878,-2.23423 19.57891,-2.23423c5.71213,0 10.94321,0.16928 17.57986,2.11664c6.63664,1.94736 -0.58795,2.86922 -0.58795,2.86922c0,0 -11.34174,-3.29255 -16.99191,-3.29255c-5.86568,0 -17.57986,3.29255 -17.57986,3.29255z" fill="#ffffff" stroke="#ffffff" stroke-width="6"/><path d="M221.54586,179.54154c0,0 -1.41045,-4.94337 -0.66382,-5.01299c0.96539,-0.09 6.35873,3.86909 6.35873,3.86909z" fill="#ffffff" stroke="#ffffff" stroke-width="6"/><path d="M251.47942,177.94436c0,0 5.64282,-4.14863 6.57746,-3.89069c0.72284,0.19949 -1.9159,3.73841 -1.59533,5.29139c0.13028,0.63118 -4.98213,-1.4007 -4.98213,-1.4007z" data-paper-data="{&quot;index&quot;:null}" fill="#ffffff" stroke="#ffffff" stroke-width="6"/><path d="M225.65573,154.58333c-6.72168,0 -11.58272,1.39206 -11.58272,-1.82265c0,-3.21472 4.1555,-4.52726 10.87717,-4.52726c6.72168,0 14.64008,13.22899 14.64008,13.22899c0,0 -7.21286,-6.87907 -13.93454,-6.87907z" fill="#ffffff" stroke="#ffffff" stroke-width="6"/><path d="M241.43657,161.75686c0,0 7.9184,-13.22899 14.64008,-13.22899c6.72168,0 10.87717,1.31254 10.87717,4.52725c0,3.21472 -4.86104,1.82266 -11.58271,1.82266c-6.72168,0 -13.93454,6.87908 -13.93454,6.87908z" data-paper-data="{&quot;index&quot;:null}" fill="#ffffff" stroke="#ffffff" stroke-width="6"/><path d="M234.41628,155.14911c0,-1.21484 2.70459,-0.23518 2.70459,-0.23518c0,0 -0.26319,6.34992 2.35182,6.34992c3.37932,0 2.70459,-6.34992 2.70459,-6.34992c0,0 2.82218,-0.91757 2.82218,0.23518c0,1.64647 -1.05688,8.94001 -5.2916,8.93692c-4.67647,-0.00341 -5.2916,-7.30033 -5.2916,-8.93692z" fill="#ffffff" stroke="#ffffff" stroke-width="6"/><path d="M238.37622,201.96312c-0.53994,2.81586 -6.20843,5.37632 -9.83457,7.49934c-3.19266,1.86923 -6.17409,2.91442 -8.79794,2.43042c-1.72877,-0.31888 -3.53975,-1.50958 -4.31193,-2.82849c-1.94416,-3.32065 0.77323,-8.52627 6.06945,-11.62708c5.29622,-3.1008 13.98239,-4.1629 15.92655,-0.84224c0.61305,1.0471 1.19714,4.07117 0.94846,5.36803z" fill="#59470a" stroke="#000000" stroke-width="2"/><path d="M257.06374,184.47692c0,7.67531 3.90008,20.09929 -16.34256,20.53723c-17.28323,0.37391 -16.74117,-12.08985 -16.74117,-19.76516c0,-7.67532 8.08232,-8.02959 16.74117,-8.02959c8.65885,0 16.34256,-0.41779 16.34256,7.25752z" fill="#fcdda0" stroke="#000000" stroke-width="2"/><path d="M261.66206,212.84331c-2.6217,1.16073 -7.9557,-2.03862 -11.76654,-3.80887c-3.35526,-1.55862 -5.91299,-3.41318 -7.0103,-5.84521c-0.72299,-1.60239 -0.1325,-5.15515 -0.1325,-5.15515c0,0 7.44737,-4.22276 13.01334,-1.63721c5.56597,2.58556 11.38808,9.11858 9.76697,12.60834c-0.51118,1.10043 -2.66352,3.30352 -3.87098,3.8381z" fill="#59470a" stroke="#000000" stroke-width="2"/><path d="M240.99517,184.85714c-13.93043,0 -29.21788,5.03053 -29.63294,-4.40966c-0.52916,-12.03538 1.69513,-16.4197 4.91636,-22.46285c4.22124,-4.37648 12.82809,-10.66204 24.89297,-11.0506c16.33599,-0.52613 19.22246,7.38606 23.60054,12.41087c4.37808,5.0248 3.56298,9.32696 3.91576,21.45535c0.27474,9.44532 -13.76226,4.05689 -27.69269,4.05689z" fill="#8f7009" stroke="#000000" stroke-width="2"/><path d="M232.14794,173.44938c-5.02969,-0.2707 -7.07459,-2.403 -7.07459,-7.71629c0,-5.3133 2.94561,-9.62058 6.57921,-9.62058c3.6336,0 6.57922,4.30729 6.57922,9.62058c0,5.31329 -1.98246,7.93703 -6.08384,7.71629z" fill="#ffffff" stroke="#000000" stroke-width="2"/><path d="M249.83136,174.13141c-5.24543,-0.2707 -7.37806,-2.403 -7.37806,-7.71629c0,-5.31329 3.07197,-9.62057 6.86144,-9.62057c3.78947,0 6.86144,4.30728 6.86144,9.62057c0,5.31329 -2.0675,7.93702 -6.34481,7.71629z" fill="#ffffff" stroke="#000000" stroke-width="2"/><path d="M229.08908,171.12839c-1.94147,0.1631 -3.52773,-2.33754 -3.52773,-5.22105c0,-2.8835 1.58128,-5.30639 3.52773,-5.22104c3.2183,0.14111 3.52773,2.33754 3.52773,5.22104c0,2.8835 -0.16832,4.93883 -3.52773,5.22105z" fill="#000000" stroke="none" stroke-width="0"/><path d="M246.35145,171.15191c-1.94147,0.1631 -3.52773,-2.33754 -3.52773,-5.22105c0,-2.8835 1.58129,-5.30639 3.52773,-5.22104c3.2183,0.14111 3.52773,2.33754 3.52773,5.22104c0,2.88351 -0.16832,4.93883 -3.52773,5.22105z" fill="#000000" stroke="none" stroke-width="0"/><path d="M222.22177,182.15843c0,0 -4.33434,-1.56633 -1.99905,-2.75163c1.18361,-0.60075 13.76878,-2.23423 19.57891,-2.23423c5.71213,0 10.94321,0.16928 17.57986,2.11664c6.63664,1.94736 -0.58795,2.86922 -0.58795,2.86922c0,0 -11.34174,-3.29255 -16.99191,-3.29255c-5.86568,0 -17.57986,3.29255 -17.57986,3.29255z" fill="#594a0a" stroke="none" stroke-width="0"/><path d="M221.52201,179.5402c0,0 -1.41045,-4.94337 -0.66382,-5.01299c0.96539,-0.09 6.35873,3.86909 6.35873,3.86909z" fill="#ffffff" stroke="#000000" stroke-width="0"/><path d="M251.45557,177.94302c0,0 5.64282,-4.14863 6.57746,-3.89069c0.72284,0.19949 -1.91589,3.73841 -1.59533,5.29139c0.13029,0.63118 -4.98213,-1.4007 -4.98213,-1.4007z" data-paper-data="{&quot;index&quot;:null}" fill="#ffffff" stroke="#000000" stroke-width="0"/><path d="M225.63188,154.58199c-6.72168,0 -11.58272,1.39206 -11.58272,-1.82266c0,-3.21472 4.1555,-4.52726 10.87717,-4.52726c6.72168,0 14.64008,13.22899 14.64008,13.22899c0,0 -7.21286,-6.87907 -13.93454,-6.87907z" fill="#000000" stroke="none" stroke-width="0"/><path d="M241.41272,161.75552c0,0 7.91841,-13.22899 14.64008,-13.22899c6.72168,0 10.87716,1.31254 10.87716,4.52725c0,3.21472 -4.86104,1.82266 -11.58271,1.82266c-6.72168,0 -13.93454,6.87908 -13.93454,6.87908z" data-paper-data="{&quot;index&quot;:null}" fill="#000000" stroke="none" stroke-width="0"/><path d="M234.39243,155.14777c0,-1.21484 2.70459,-0.23518 2.70459,-0.23518c0,0 -0.26319,6.34992 2.35182,6.34992c3.37932,0 2.70459,-6.34992 2.70459,-6.34992c0,0 2.82218,-0.91757 2.82218,0.23518c0,1.64647 -1.05688,8.94001 -5.2916,8.93692c-4.67647,-0.00341 -5.2916,-7.30033 -5.2916,-8.93692z" fill="#59470a" stroke="none" stroke-width="0"/></g></g></svg>