<svg version="1.1" xmlns="http://www.w3.org/2000/svg" xmlns:xlink="http://www.w3.org/1999/xlink" width="484.54535" height="367.84425" viewBox="0,0,484.54535,367.84425"><g transform="translate(3.43666,6.89491)"><g data-paper-data="{&quot;isPaintingLayer&quot;:true}" fill-rule="nonzero" stroke-linejoin="miter" stroke-miterlimit="10" stroke-dasharray="" stroke-dashoffset="0" style="mix-blend-mode: normal"><path d="M-1.1087,359.73947v-365.03015h482.2174v365.03015z" fill="#a5e85d" stroke="none" stroke-width="0" stroke-linecap="butt"/><path d="M50.73913,359.69934v-361.4757h53.86956v361.4757z" fill="#b6ff66" stroke="#9fe05a" stroke-width="2.5" stroke-linecap="butt"/><path d="M161.23913,359.69934v-361.4757h53.86956v361.4757z" fill="#b6ff66" stroke="#9fe05a" stroke-width="2.5" stroke-linecap="butt"/><path d="M273.2391,357.76506v-361.4757h53.86957v361.4757z" fill="#b6ff66" stroke="#9fe05a" stroke-width="2.5" stroke-linecap="butt"/><path d="M384.23917,355.83079v-361.4757h53.86957v361.4757z" fill="#b6ff66" stroke="#9fe05a" stroke-width="2.5" stroke-linecap="butt"/><path d="M-1.66278,134.94845c26.51838,-1.26807 68.37119,43.93691 97.24592,44.66075c12.31683,0.30875 30.86108,-6.27927 51.64574,-7.73192c10.90844,-0.76241 24.48712,7.46784 36.84123,6.47389c16.11568,-1.29659 36.71639,10.56831 54.05923,8.66717c16.41353,-1.79926 31.00862,-16.52092 47.22834,-19.24758c12.35917,-2.07769 23.64992,-16.45748 35.44887,-18.32914c9.34017,-1.48162 28.91305,11.79702 37.66253,10.90424c14.37659,-1.46697 32.74163,11.16749 43.48013,9.25662c28.29272,-5.03454 78.79303,-36.97749 78.79303,-36.97749l-0.26297,67.49402l-20.37484,25.57873c0,0 -15.71525,8.67266 -47.11529,10.36405c-11.6641,0.6283 -30.08499,-5.73848 -44.05968,-5.19083c-13.41278,0.52562 -25.39117,-5.35354 -40.35391,-3.89993c-10.53878,1.02383 -22.92871,11.85849 -33.82113,13.00927c-15.45033,1.63233 -29.2493,14.29008 -44.83063,15.30318c-18.46826,1.2008 -38.60085,-9.02843 -55.86426,-8.25559c-15.56024,0.69659 -30.20117,-7.45944 -43.71449,-6.88137c-23.71667,1.01454 -38.17265,9.088 -51.8809,8.67855c-34.00875,-1.01579 -65.81093,-59.87701 -100.41083,-48.35345c-0.65206,0.21717 -3.15346,-65.3588 0.28391,-65.52317z" fill="#ff9f66" stroke="none" stroke-width="0" stroke-linecap="butt"/><g data-paper-data="{&quot;index&quot;:null}"><path d="M256.55051,122.91719c11.63887,0 21.074,3.1524 21.074,7.04111c0,3.88871 -9.43516,7.04112 -21.074,7.04112c-11.63882,0 -21.07399,-3.1524 -21.07399,-7.04112c0,-3.88871 9.43516,-7.04111 21.07399,-7.04111z" fill="#7dc333" stroke="none" stroke-width="0" stroke-linecap="butt"/><path d="M267.12676,133.30566c-4.96667,0 -10.67908,2.32339 -10.67908,0.22365c0,-1.88374 3.2405,-6.57851 7.49341,-6.8803c0.48762,-0.03458 0.98859,0.61833 1.49948,0.61833c0.18405,0 -0.19326,-1.11865 -0.00819,-1.11936c4.80793,-0.01858 9.00109,0.88656 9.00109,2.90849c0,2.09975 -2.3401,4.2492 -7.30674,4.2492z" data-paper-data="{&quot;index&quot;:null}" fill="#82cb35" stroke="none" stroke-width="NaN" stroke-linecap="butt"/><path d="M239.04205,128.68858c0,-2.08715 4.32838,-3.02149 9.29143,-3.00231c0.19103,0.00074 -0.19845,1.15546 -0.00844,1.15546c0.52735,0 1.04448,-0.67396 1.54783,-0.63826c4.39007,0.31155 7.73515,5.15773 7.73515,7.10225c0,2.16746 -5.89668,-0.23087 -11.02354,-0.23087c-5.12686,0 -7.54244,-2.21882 -7.54244,-4.38627z" fill="#87d237" stroke="none" stroke-width="NaN" stroke-linecap="butt"/><g data-paper-data="{&quot;index&quot;:null}"><path d="M251.74449,113.84842c2.70514,-1.08488 6.20466,-0.75849 7.3521,1.24933c1.14745,2.00778 -0.36387,6.78124 -3.069,7.8661c-2.70509,1.08487 -5.8282,0.33668 -6.97565,-1.67114c-1.14745,-2.00781 -0.01255,-6.35946 2.69259,-7.44432z" data-paper-data="{&quot;index&quot;:null}" fill="#d0984a" stroke="none" stroke-width="0" stroke-linecap="butt"/><path d="M256.19683,122.64496c2.97229,-0.39714 7.57262,2.78091 8.05283,4.96288c0.48022,2.182 -2.14464,4.1071 -5.11693,4.50424c-2.97229,0.39714 -6.96795,-2.61521 -7.44818,-4.79718c-0.48022,-2.182 1.53997,-4.27278 4.51226,-4.66994z" data-paper-data="{&quot;index&quot;:null}" fill="#d0984a" stroke="none" stroke-width="0" stroke-linecap="butt"/><path d="M268.82596,123.47018c1.12213,2.4613 0.40582,5.44328 -2.21121,6.19889c-2.61703,0.75563 -8.4667,-1.10651 -9.58883,-3.5678c-1.12214,-2.4613 0.08975,-5.06911 2.70678,-5.82474c2.61703,-0.75561 7.97112,0.73235 9.09325,3.19365z" data-paper-data="{&quot;index&quot;:null}" fill="#d0984a" stroke="none" stroke-width="0" stroke-linecap="butt"/><path d="M252.34758,122.05152c2.56036,-0.14701 4.81292,1.68585 5.03125,4.09385c0.21838,2.40798 -3.82661,5.72627 -6.38697,5.87327c-2.56036,0.14701 -4.57251,-2.14917 -4.79084,-4.55715c-0.21833,-2.40798 3.5862,-5.26295 6.14656,-5.40996z" data-paper-data="{&quot;index&quot;:null}" fill="#d0984a" stroke="none" stroke-width="0" stroke-linecap="butt"/><path d="M261.37909,124.09024c-2.77673,0.15945 -5.21968,-1.82834 -5.45648,-4.43985c-0.2368,-2.61151 4.14999,-6.2102 6.92676,-6.36965c2.77676,-0.15942 4.95896,2.3308 5.19576,4.94232c0.2368,2.61151 -3.88928,5.70775 -6.66604,5.8672z" data-paper-data="{&quot;index&quot;:null}" fill="#d0984a" stroke="none" stroke-width="0" stroke-linecap="butt"/><path d="M244.37998,121.98922c-1.12214,-2.4613 -0.40582,-5.44326 2.21121,-6.19888c2.61703,-0.75563 8.46671,1.10651 9.58886,3.5678c1.12211,2.4613 -0.08979,5.06911 -2.70682,5.82474c-2.61703,0.75563 -7.97115,-0.73233 -9.09325,-3.19362z" fill="#d0984a" stroke="none" stroke-width="0" stroke-linecap="butt"/><path d="M256.38103,118.17281c2.8361,-0.48116 5.62533,0.95844 6.22993,3.21541c0.6046,2.25697 -1.2044,4.47665 -4.04049,4.95778c-2.83609,0.48113 -5.62534,-0.95847 -6.22993,-3.21543c-0.6046,-2.25697 1.2044,-4.47665 4.0405,-4.95778z" fill="#d0984a" stroke="none" stroke-width="0" stroke-linecap="butt"/><path d="M245.71415,116.68408l13.92451,14.77479" fill="none" stroke="#aa7d3d" stroke-width="0.5" stroke-linecap="round"/><path d="M244.2638,117.60747l10.15326,-3.46283l11.31364,15.46735l3.191,-3.92455l-9.8632,-11.31195l-11.60376,9.46509l-2.90096,-3.92454l19.14619,-5.77141l3.77122,3.23202l-8.23977,11.99211l8.52982,-6.91327" fill="none" stroke="#aa7d3d" stroke-width="1" stroke-linecap="round"/><path d="M248.90519,130.53544l17.6957,-15.23652" fill="none" stroke="#aa7d3d" stroke-width="1" stroke-linecap="round"/><path d="M248.32502,127.76519l3.48113,3.6937l-4.0613,-4.15542l10.15326,2.77026" fill="none" stroke="#aa7d3d" stroke-width="1" stroke-linecap="round"/><path d="M251.22594,131.22803l13.92451,-2.77027" fill="none" stroke="#aa7d3d" stroke-width="0.5" stroke-linecap="round"/></g><g stroke="none" stroke-width="0" stroke-linecap="butt"><path d="M253.96856,112.84806c2.70514,-1.08486 6.20466,-0.75847 7.3521,1.24935c1.14745,2.00781 -0.36386,6.78125 -3.069,7.86612c-2.70514,1.08486 -5.8282,0.33668 -6.97565,-1.67114c-1.14745,-2.00781 -0.01255,-6.35946 2.69255,-7.44433z" data-paper-data="{&quot;index&quot;:null}" fill="#f252b3"/><path d="M253.90856,126.31454c-0.48022,-2.182 1.54003,-4.27279 4.5123,-4.66994c2.97229,-0.39714 7.57261,2.78091 8.05283,4.96287c0.48022,2.18197 -2.14464,4.10707 -5.11693,4.50422c-2.97229,0.39714 -6.96791,-2.61521 -7.44814,-4.79718z" data-paper-data="{&quot;index&quot;:null}" fill="#f252b3"/><path d="M271.04998,122.46984c1.12214,2.4613 0.40587,5.44328 -2.21121,6.19889c-2.61707,0.75563 -8.46668,-1.10651 -9.58882,-3.5678c-1.12214,-2.4613 0.08975,-5.06911 2.70678,-5.82474c2.61703,-0.75561 7.9711,0.73236 9.09325,3.19365z" data-paper-data="{&quot;index&quot;:null}" fill="#e64eaa"/><path d="M248.42506,126.46106c-0.21833,-2.40798 3.5862,-5.26293 6.14656,-5.40996c2.56036,-0.14701 4.81292,1.68587 5.03126,4.09386c0.21838,2.40798 -3.82661,5.72627 -6.38697,5.87327c-2.56036,0.14701 -4.57251,-2.14918 -4.79084,-4.55715z" data-paper-data="{&quot;index&quot;:null}" fill="#e637a1"/><path d="M263.60312,123.08985c-2.77673,0.15942 -5.21968,-1.82834 -5.45648,-4.43984c-0.2368,-2.61151 4.15,-6.21023 6.92676,-6.36968c2.77676,-0.15942 4.95895,2.3308 5.19575,4.94234c0.23676,2.61151 -3.8893,5.70775 -6.66603,5.8672z" data-paper-data="{&quot;index&quot;:null}" fill="#e637a1"/><path d="M246.60404,120.98883c-1.12214,-2.4613 -0.40588,-5.44328 2.2112,-6.19889c2.61703,-0.75563 8.46671,1.10651 9.58884,3.56777c1.12213,2.46129 -0.08976,5.06911 -2.70679,5.82474c-2.61707,0.75561 -7.97111,-0.73235 -9.09325,-3.19365z" fill="#e64eaa"/><path d="M258.60513,117.17242c2.8361,-0.48113 5.6253,0.95846 6.2299,3.21543c0.6046,2.25697 -1.2044,4.47665 -4.04049,4.95778c-2.83609,0.48116 -5.62533,-0.95844 -6.22993,-3.21541c-0.60463,-2.25697 1.20441,-4.47665 4.0405,-4.95778z" fill="#ffe076"/></g></g><g data-paper-data="{&quot;index&quot;:null}"><path d="M151.5505,52.41719c11.63887,0 21.074,3.1524 21.074,7.04111c0,3.8887 -9.43516,7.04112 -21.074,7.04112c-11.63882,0 -21.07399,-3.1524 -21.07399,-7.04112c0,-3.88871 9.43515,-7.04111 21.07399,-7.04111z" fill="#7dc333" stroke="none" stroke-width="0" stroke-linecap="butt"/><path d="M162.12676,62.80566c-4.96667,0 -10.67908,2.32339 -10.67908,0.22366c0,-1.88374 3.2405,-6.57851 7.49341,-6.8803c0.48762,-0.03458 0.98859,0.61833 1.49948,0.61833c0.18405,0 -0.19326,-1.11865 -0.00819,-1.11936c4.80793,-0.01858 9.00109,0.88656 9.00109,2.90849c0,2.09975 -2.3401,4.2492 -7.30674,4.2492z" data-paper-data="{&quot;index&quot;:null}" fill="#82cb35" stroke="none" stroke-width="NaN" stroke-linecap="butt"/><path d="M134.04205,58.18858c0,-2.08715 4.32839,-3.02149 9.29143,-3.00231c0.19103,0.00074 -0.19846,1.15546 -0.00845,1.15546c0.52735,0 1.04448,-0.67396 1.54783,-0.63826c4.39007,0.31155 7.73515,5.15773 7.73515,7.10224c0,2.16745 -5.89668,-0.23086 -11.02354,-0.23086c-5.12686,0 -7.54245,-2.21882 -7.54245,-4.38627z" fill="#87d237" stroke="none" stroke-width="NaN" stroke-linecap="butt"/><g data-paper-data="{&quot;index&quot;:null}"><path d="M146.74449,43.34842c2.70514,-1.08488 6.20466,-0.75849 7.3521,1.24933c1.14745,2.00778 -0.36387,6.78124 -3.069,7.8661c-2.70509,1.08487 -5.8282,0.33668 -6.97565,-1.67114c-1.14745,-2.00781 -0.01255,-6.35946 2.69259,-7.44432z" data-paper-data="{&quot;index&quot;:null}" fill="#d0984a" stroke="none" stroke-width="0" stroke-linecap="butt"/><path d="M151.19683,52.14496c2.97229,-0.39714 7.57262,2.78091 8.05283,4.96288c0.48022,2.182 -2.14464,4.1071 -5.11693,4.50424c-2.97229,0.39714 -6.96795,-2.61521 -7.44818,-4.79718c-0.48022,-2.182 1.53997,-4.27278 4.51226,-4.66994z" data-paper-data="{&quot;index&quot;:null}" fill="#d0984a" stroke="none" stroke-width="0" stroke-linecap="butt"/><path d="M163.82596,52.97018c1.12213,2.4613 0.40582,5.44328 -2.21121,6.19889c-2.61703,0.75563 -8.4667,-1.10651 -9.58883,-3.5678c-1.12214,-2.4613 0.08975,-5.06911 2.70678,-5.82474c2.61703,-0.75561 7.97112,0.73235 9.09325,3.19365z" data-paper-data="{&quot;index&quot;:null}" fill="#d0984a" stroke="none" stroke-width="0" stroke-linecap="butt"/><path d="M147.34758,51.55152c2.56036,-0.14701 4.81292,1.68585 5.03125,4.09385c0.21838,2.40798 -3.82661,5.72626 -6.38697,5.87327c-2.56036,0.14702 -4.57251,-2.14917 -4.79084,-4.55715c-0.21833,-2.40798 3.5862,-5.26295 6.14656,-5.40996z" data-paper-data="{&quot;index&quot;:null}" fill="#d0984a" stroke="none" stroke-width="0" stroke-linecap="butt"/><path d="M156.37909,53.59024c-2.77673,0.15945 -5.21968,-1.82834 -5.45648,-4.43985c-0.2368,-2.61151 4.14999,-6.2102 6.92676,-6.36965c2.77676,-0.15942 4.95896,2.3308 5.19576,4.94232c0.2368,2.61151 -3.88928,5.70775 -6.66604,5.8672z" data-paper-data="{&quot;index&quot;:null}" fill="#d0984a" stroke="none" stroke-width="0" stroke-linecap="butt"/><path d="M139.37998,51.48922c-1.12214,-2.4613 -0.40583,-5.44326 2.2112,-6.19888c2.61703,-0.75563 8.46672,1.10651 9.58887,3.5678c1.12211,2.4613 -0.08979,5.06911 -2.70682,5.82474c-2.61703,0.75563 -7.97114,-0.73233 -9.09325,-3.19362z" fill="#d0984a" stroke="none" stroke-width="0" stroke-linecap="butt"/><path d="M151.38103,47.67281c2.8361,-0.48116 5.62533,0.95844 6.22993,3.21541c0.6046,2.25697 -1.2044,4.47665 -4.04049,4.95778c-2.83609,0.48113 -5.62534,-0.95847 -6.22993,-3.21543c-0.6046,-2.25697 1.2044,-4.47665 4.0405,-4.95778z" fill="#d0984a" stroke="none" stroke-width="0" stroke-linecap="butt"/><path d="M140.71415,46.18408l13.92451,14.77479" fill="none" stroke="#aa7d3d" stroke-width="0.5" stroke-linecap="round"/><path d="M139.2638,47.10747l10.15326,-3.46283l11.31364,15.46735l3.191,-3.92455l-9.8632,-11.31195l-11.60376,9.46509l-2.90095,-3.92454l19.14618,-5.77141l3.77122,3.23202l-8.23977,11.99211l8.52982,-6.91327" fill="none" stroke="#aa7d3d" stroke-width="1" stroke-linecap="round"/><path d="M143.90519,60.03544l17.6957,-15.23652" fill="none" stroke="#aa7d3d" stroke-width="1" stroke-linecap="round"/><path d="M143.32502,57.26519l3.48113,3.69371l-4.0613,-4.15543l10.15326,2.77026" fill="none" stroke="#aa7d3d" stroke-width="1" stroke-linecap="round"/><path d="M160.15044,57.95776l-13.92451,2.77027" fill="none" stroke="#aa7d3d" stroke-width="0.5" stroke-linecap="round"/></g><g stroke="none" stroke-width="0" stroke-linecap="butt"><path d="M148.96856,42.34806c2.70514,-1.08486 6.20466,-0.75847 7.3521,1.24935c1.14745,2.00781 -0.36386,6.78125 -3.069,7.86612c-2.70514,1.08486 -5.8282,0.33668 -6.97565,-1.67114c-1.14745,-2.00781 -0.01255,-6.35946 2.69255,-7.44433z" data-paper-data="{&quot;index&quot;:null}" fill="#f25252"/><path d="M148.90856,55.81454c-0.48022,-2.182 1.54003,-4.27279 4.5123,-4.66994c2.97229,-0.39714 7.57261,2.78091 8.05283,4.96287c0.48022,2.18197 -2.14464,4.10707 -5.11693,4.50422c-2.97229,0.39714 -6.96791,-2.61522 -7.44814,-4.79719z" data-paper-data="{&quot;index&quot;:null}" fill="#f25252"/><path d="M166.04998,51.96984c1.12214,2.4613 0.40587,5.44328 -2.21121,6.19889c-2.61707,0.75563 -8.46668,-1.10651 -9.58882,-3.5678c-1.12214,-2.4613 0.08975,-5.06911 2.70678,-5.82474c2.61703,-0.75561 7.9711,0.73236 9.09325,3.19365z" data-paper-data="{&quot;index&quot;:null}" fill="#e64e4e"/><path d="M143.42507,55.96106c-0.21833,-2.40798 3.58619,-5.26293 6.14655,-5.40996c2.56036,-0.14701 4.81292,1.68587 5.03126,4.09386c0.21838,2.40798 -3.82661,5.72626 -6.38697,5.87327c-2.56036,0.14702 -4.5725,-2.14918 -4.79084,-4.55715z" data-paper-data="{&quot;index&quot;:null}" fill="#e63737"/><path d="M158.60312,52.58985c-2.77673,0.15942 -5.21968,-1.82834 -5.45648,-4.43984c-0.2368,-2.61151 4.15,-6.21023 6.92676,-6.36968c2.77676,-0.15942 4.95895,2.3308 5.19575,4.94234c0.23676,2.61151 -3.8893,5.70775 -6.66603,5.8672z" data-paper-data="{&quot;index&quot;:null}" fill="#e63737"/><path d="M141.60404,50.48883c-1.12214,-2.4613 -0.40587,-5.44328 2.2112,-6.19889c2.61703,-0.75563 8.46671,1.10651 9.58884,3.56777c1.12213,2.46129 -0.08976,5.06911 -2.70679,5.82474c-2.61707,0.75561 -7.97111,-0.73235 -9.09325,-3.19365z" fill="#e64e4e"/><path d="M153.60513,46.67242c2.8361,-0.48113 5.6253,0.95846 6.2299,3.21543c0.6046,2.25697 -1.2044,4.47665 -4.04049,4.95778c-2.83609,0.48116 -5.62533,-0.95844 -6.22993,-3.21541c-0.60463,-2.25697 1.20441,-4.47665 4.0405,-4.95778z" fill="#ffe076"/></g></g><g data-paper-data="{&quot;index&quot;:null}"><path d="M87.55051,108.41719c11.63887,0 21.074,3.1524 21.074,7.04111c0,3.8887 -9.43516,7.04112 -21.074,7.04112c-11.63882,0 -21.07399,-3.1524 -21.07399,-7.04112c0,-3.8887 9.43515,-7.04111 21.07399,-7.04111z" fill="#7dc333" stroke="none" stroke-width="0" stroke-linecap="butt"/><path d="M98.12676,118.80566c-4.96667,0 -10.67908,2.32339 -10.67908,0.22366c0,-1.88374 3.2405,-6.57851 7.49341,-6.8803c0.48762,-0.03458 0.98859,0.61834 1.49948,0.61834c0.18405,0 -0.19326,-1.11865 -0.00819,-1.11936c4.80793,-0.01858 9.00109,0.88655 9.00109,2.90849c0,2.09975 -2.3401,4.2492 -7.30674,4.2492z" data-paper-data="{&quot;index&quot;:null}" fill="#82cb35" stroke="none" stroke-width="NaN" stroke-linecap="butt"/><path d="M70.04205,114.18858c0,-2.08715 4.32839,-3.02148 9.29143,-3.0023c0.19103,0.00074 -0.19846,1.15546 -0.00845,1.15546c0.52735,0 1.04448,-0.67396 1.54783,-0.63826c4.39007,0.31155 7.73515,5.15773 7.73515,7.10224c0,2.16745 -5.89668,-0.23086 -11.02354,-0.23086c-5.12686,0 -7.54245,-2.21882 -7.54245,-4.38628z" fill="#87d237" stroke="none" stroke-width="NaN" stroke-linecap="butt"/><g data-paper-data="{&quot;index&quot;:null}"><path d="M82.74449,99.34842c2.70513,-1.08488 6.20466,-0.75849 7.35211,1.24933c1.14745,2.00778 -0.36387,6.78124 -3.069,7.8661c-2.70509,1.08487 -5.8282,0.33669 -6.97566,-1.67114c-1.14745,-2.00781 -0.01255,-6.35946 2.69259,-7.44432z" data-paper-data="{&quot;index&quot;:null}" fill="#d0984a" stroke="none" stroke-width="0" stroke-linecap="butt"/><path d="M87.19683,108.14496c2.97229,-0.39714 7.57262,2.78091 8.05283,4.96288c0.48022,2.182 -2.14464,4.10709 -5.11693,4.50424c-2.97229,0.39714 -6.96795,-2.61521 -7.44818,-4.79718c-0.48023,-2.182 1.53997,-4.27277 4.51226,-4.66994z" data-paper-data="{&quot;index&quot;:null}" fill="#d0984a" stroke="none" stroke-width="0" stroke-linecap="butt"/><path d="M99.82596,108.97018c1.12213,2.46131 0.40582,5.44328 -2.21121,6.19889c-2.61703,0.75564 -8.4667,-1.10651 -9.58883,-3.5678c-1.12214,-2.46131 0.08975,-5.06911 2.70678,-5.82474c2.61703,-0.75561 7.97112,0.73236 9.09325,3.19365z" data-paper-data="{&quot;index&quot;:null}" fill="#d0984a" stroke="none" stroke-width="0" stroke-linecap="butt"/><path d="M83.34758,107.55152c2.56036,-0.14702 4.81292,1.68585 5.03125,4.09385c0.21837,2.40798 -3.82661,5.72626 -6.38697,5.87327c-2.56036,0.14702 -4.57251,-2.14916 -4.79084,-4.55714c-0.21833,-2.40798 3.5862,-5.26295 6.14656,-5.40996z" data-paper-data="{&quot;index&quot;:null}" fill="#d0984a" stroke="none" stroke-width="0" stroke-linecap="butt"/><path d="M92.37909,109.59024c-2.77673,0.15945 -5.21968,-1.82834 -5.45648,-4.43985c-0.2368,-2.61151 4.14999,-6.2102 6.92676,-6.36965c2.77676,-0.15942 4.95896,2.3308 5.19576,4.94232c0.2368,2.61151 -3.88928,5.70775 -6.66604,5.8672z" data-paper-data="{&quot;index&quot;:null}" fill="#d0984a" stroke="none" stroke-width="0" stroke-linecap="butt"/><path d="M75.37998,107.48922c-1.12214,-2.46131 -0.40583,-5.44327 2.2112,-6.19888c2.61703,-0.75564 8.46672,1.10652 9.58887,3.56781c1.12211,2.46131 -0.08979,5.06911 -2.70682,5.82474c-2.61703,0.75564 -7.97114,-0.73233 -9.09325,-3.19362z" fill="#d0984a" stroke="none" stroke-width="0" stroke-linecap="butt"/><path d="M87.38103,103.67281c2.83609,-0.48116 5.62533,0.95845 6.22993,3.21541c0.6046,2.25697 -1.2044,4.47664 -4.0405,4.95778c-2.83609,0.48113 -5.62534,-0.95846 -6.22993,-3.21543c-0.6046,-2.25697 1.2044,-4.47665 4.04049,-4.95778z" fill="#d0984a" stroke="none" stroke-width="0" stroke-linecap="butt"/><path d="M76.71415,102.18408l13.92451,14.77479" fill="none" stroke="#aa7d3d" stroke-width="0.5" stroke-linecap="round"/><path d="M75.2638,103.10747l10.15326,-3.46283l11.31364,15.46734l3.191,-3.92454l-9.8632,-11.31195l-11.60376,9.46509l-2.90095,-3.92455l19.14618,-5.7714l3.77122,3.23202l-8.23977,11.99211l8.52982,-6.91327" fill="none" stroke="#aa7d3d" stroke-width="1" stroke-linecap="round"/><path d="M97.60089,100.79892l-17.6957,15.23652" fill="none" stroke="#aa7d3d" stroke-width="1" stroke-linecap="round"/><path d="M79.32502,113.26519l3.48113,3.69371l-4.0613,-4.15543l10.15326,2.77026" fill="none" stroke="#aa7d3d" stroke-width="1" stroke-linecap="round"/><path d="M96.15044,113.95776l-13.92451,2.77027" fill="none" stroke="#aa7d3d" stroke-width="0.5" stroke-linecap="round"/></g><g stroke="none" stroke-width="0" stroke-linecap="butt"><path d="M84.96856,98.34805c2.70513,-1.08486 6.20466,-0.75847 7.3521,1.24936c1.14745,2.00781 -0.36386,6.78125 -3.069,7.86612c-2.70513,1.08486 -5.8282,0.33668 -6.97566,-1.67114c-1.14745,-2.00781 -0.01255,-6.35946 2.69255,-7.44433z" data-paper-data="{&quot;index&quot;:null}" fill="#f3cd52"/><path d="M84.90856,111.81454c-0.48023,-2.182 1.54003,-4.27279 4.5123,-4.66994c2.97229,-0.39714 7.57261,2.78091 8.05283,4.96287c0.48022,2.18197 -2.14464,4.10707 -5.11693,4.50422c-2.97229,0.39714 -6.96791,-2.61522 -7.44814,-4.79719z" data-paper-data="{&quot;index&quot;:null}" fill="#f3cd52"/><path d="M102.04998,107.96984c1.12214,2.46131 0.40587,5.44328 -2.21121,6.19889c-2.61707,0.75564 -8.46668,-1.10652 -9.58882,-3.5678c-1.12214,-2.46131 0.08975,-5.06911 2.70678,-5.82474c2.61703,-0.75561 7.9711,0.73236 9.09325,3.19365z" data-paper-data="{&quot;index&quot;:null}" fill="#e6c24e"/><path d="M79.42507,111.96106c-0.21833,-2.40798 3.58619,-5.26293 6.14655,-5.40996c2.56036,-0.14702 4.81292,1.68587 5.03126,4.09387c0.21838,2.40798 -3.82661,5.72626 -6.38697,5.87327c-2.56036,0.14702 -4.57251,-2.14918 -4.79084,-4.55714z" data-paper-data="{&quot;index&quot;:null}" fill="#e6bd38"/><path d="M94.60312,108.58985c-2.77673,0.15942 -5.21968,-1.82834 -5.45648,-4.43984c-0.2368,-2.61151 4.15,-6.21023 6.92676,-6.36968c2.77676,-0.15942 4.95895,2.33081 5.19575,4.94234c0.23676,2.61151 -3.8893,5.70775 -6.66603,5.8672z" data-paper-data="{&quot;index&quot;:null}" fill="#e6bd38"/><path d="M77.60404,106.48883c-1.12214,-2.46131 -0.40587,-5.44328 2.2112,-6.19889c2.61703,-0.75564 8.46671,1.10651 9.58884,3.56777c1.12213,2.46129 -0.08976,5.06911 -2.70679,5.82474c-2.61707,0.75561 -7.97111,-0.73236 -9.09325,-3.19365z" fill="#e6c24e"/><path d="M89.60513,102.67242c2.8361,-0.48113 5.6253,0.95846 6.2299,3.21543c0.6046,2.25697 -1.2044,4.47665 -4.04049,4.95778c-2.83609,0.48116 -5.62533,-0.95845 -6.22993,-3.21542c-0.60463,-2.25697 1.2044,-4.47664 4.0405,-4.95778z" fill="#ffe076"/></g></g><g data-paper-data="{&quot;index&quot;:null}"><path d="M397.55051,71.41719c11.63887,0 21.074,3.1524 21.074,7.04111c0,3.88871 -9.43516,7.04112 -21.074,7.04112c-11.63882,0 -21.07399,-3.1524 -21.07399,-7.04112c0,-3.88871 9.43516,-7.04111 21.07399,-7.04111z" fill="#7dc333" stroke="none" stroke-width="0" stroke-linecap="butt"/><path d="M408.12676,81.80566c-4.96667,0 -10.67908,2.32339 -10.67908,0.22365c0,-1.88374 3.2405,-6.57851 7.49341,-6.8803c0.48762,-0.03458 0.98859,0.61833 1.49948,0.61833c0.18405,0 -0.19326,-1.11865 -0.00819,-1.11936c4.80793,-0.01858 9.00109,0.88656 9.00109,2.90849c0,2.09975 -2.3401,4.2492 -7.30674,4.2492z" data-paper-data="{&quot;index&quot;:null}" fill="#82cb35" stroke="none" stroke-width="NaN" stroke-linecap="butt"/><path d="M380.04205,77.18858c0,-2.08715 4.32838,-3.02149 9.29143,-3.00231c0.19103,0.00074 -0.19845,1.15546 -0.00844,1.15546c0.52735,0 1.04448,-0.67396 1.54783,-0.63826c4.39007,0.31155 7.73515,5.15773 7.73515,7.10225c0,2.16746 -5.89668,-0.23087 -11.02354,-0.23087c-5.12686,0 -7.54244,-2.21882 -7.54244,-4.38627z" fill="#87d237" stroke="none" stroke-width="NaN" stroke-linecap="butt"/><g data-paper-data="{&quot;index&quot;:null}"><path d="M392.74449,62.34842c2.70514,-1.08488 6.20466,-0.75849 7.3521,1.24933c1.14745,2.00778 -0.36387,6.78124 -3.069,7.8661c-2.70509,1.08487 -5.8282,0.33668 -6.97565,-1.67114c-1.14745,-2.00781 -0.01255,-6.35946 2.69259,-7.44432z" data-paper-data="{&quot;index&quot;:null}" fill="#d0984a" stroke="none" stroke-width="0" stroke-linecap="butt"/><path d="M397.19683,71.14496c2.97229,-0.39714 7.57262,2.78091 8.05283,4.96288c0.48023,2.182 -2.14464,4.1071 -5.11693,4.50424c-2.97229,0.39714 -6.96795,-2.61521 -7.44818,-4.79718c-0.48022,-2.182 1.53997,-4.27278 4.51226,-4.66994z" data-paper-data="{&quot;index&quot;:null}" fill="#d0984a" stroke="none" stroke-width="0" stroke-linecap="butt"/><path d="M409.82596,71.97018c1.12214,2.4613 0.40582,5.44328 -2.21121,6.19889c-2.61703,0.75563 -8.4667,-1.10651 -9.58884,-3.5678c-1.12214,-2.4613 0.08975,-5.06911 2.70678,-5.82474c2.61703,-0.75561 7.97112,0.73235 9.09326,3.19365z" data-paper-data="{&quot;index&quot;:null}" fill="#d0984a" stroke="none" stroke-width="0" stroke-linecap="butt"/><path d="M393.34758,70.55152c2.56036,-0.14701 4.81292,1.68585 5.03125,4.09385c0.21838,2.40798 -3.82661,5.72627 -6.38697,5.87327c-2.56036,0.14701 -4.57251,-2.14917 -4.79084,-4.55715c-0.21833,-2.40798 3.5862,-5.26295 6.14656,-5.40996z" data-paper-data="{&quot;index&quot;:null}" fill="#d0984a" stroke="none" stroke-width="0" stroke-linecap="butt"/><path d="M402.37909,72.59024c-2.77673,0.15945 -5.21968,-1.82834 -5.45648,-4.43985c-0.2368,-2.61151 4.14999,-6.2102 6.92676,-6.36965c2.77676,-0.15942 4.95896,2.3308 5.19576,4.94232c0.2368,2.61151 -3.88928,5.70775 -6.66604,5.8672z" data-paper-data="{&quot;index&quot;:null}" fill="#d0984a" stroke="none" stroke-width="0" stroke-linecap="butt"/><path d="M385.37998,70.48922c-1.12214,-2.4613 -0.40582,-5.44326 2.21121,-6.19888c2.61703,-0.75563 8.46671,1.10651 9.58886,3.5678c1.12211,2.4613 -0.08979,5.06911 -2.70682,5.82474c-2.61703,0.75563 -7.97115,-0.73233 -9.09325,-3.19362z" fill="#d0984a" stroke="none" stroke-width="0" stroke-linecap="butt"/><path d="M397.38103,66.67281c2.8361,-0.48116 5.62533,0.95844 6.22993,3.21541c0.6046,2.25697 -1.2044,4.47665 -4.04049,4.95778c-2.83609,0.48113 -5.62534,-0.95847 -6.22993,-3.21543c-0.6046,-2.25697 1.2044,-4.47665 4.0405,-4.95778z" fill="#d0984a" stroke="none" stroke-width="0" stroke-linecap="butt"/><path d="M386.71415,65.18408l13.92451,14.77479" fill="none" stroke="#aa7d3d" stroke-width="0.5" stroke-linecap="round"/><path d="M385.2638,66.10747l10.15326,-3.46283l11.31364,15.46735l3.191,-3.92455l-9.8632,-11.31195l-11.60376,9.46509l-2.90096,-3.92454l19.14619,-5.77141l3.77121,3.23202l-8.23977,11.99211l8.52982,-6.91327" fill="none" stroke="#aa7d3d" stroke-width="1" stroke-linecap="round"/><path d="M407.60089,63.79892l-17.6957,15.23652" fill="none" stroke="#aa7d3d" stroke-width="1" stroke-linecap="round"/><path d="M389.32502,76.26519l3.48113,3.6937l-4.0613,-4.15542l10.15326,2.77026" fill="none" stroke="#aa7d3d" stroke-width="1" stroke-linecap="round"/><path d="M392.22594,79.72803l13.92451,-2.77027" fill="none" stroke="#aa7d3d" stroke-width="0.5" stroke-linecap="round"/></g><g stroke="none" stroke-width="0" stroke-linecap="butt"><path d="M394.96856,61.34806c2.70514,-1.08486 6.20466,-0.75847 7.3521,1.24935c1.14745,2.00781 -0.36386,6.78125 -3.069,7.86612c-2.70514,1.08486 -5.8282,0.33668 -6.97565,-1.67114c-1.14745,-2.00781 -0.01255,-6.35946 2.69255,-7.44433z" data-paper-data="{&quot;index&quot;:null}" fill="#52f2df"/><path d="M394.90856,74.81454c-0.48022,-2.182 1.54003,-4.27279 4.5123,-4.66994c2.97229,-0.39714 7.57261,2.78091 8.05284,4.96287c0.48023,2.18197 -2.14465,4.10707 -5.11694,4.50422c-2.97229,0.39714 -6.96791,-2.61521 -7.44814,-4.79718z" data-paper-data="{&quot;index&quot;:null}" fill="#52f2df"/><path d="M412.04998,70.96984c1.12214,2.4613 0.40587,5.44328 -2.21121,6.19889c-2.61707,0.75563 -8.46668,-1.10651 -9.58882,-3.5678c-1.12214,-2.4613 0.08975,-5.06911 2.70678,-5.82474c2.61703,-0.75561 7.97111,0.73236 9.09326,3.19365z" data-paper-data="{&quot;index&quot;:null}" fill="#4ee6db"/><path d="M389.42507,74.96106c-0.21833,-2.40798 3.5862,-5.26293 6.14656,-5.40996c2.56036,-0.14701 4.81292,1.68587 5.03126,4.09386c0.21838,2.40798 -3.82661,5.72627 -6.38697,5.87327c-2.56036,0.14701 -4.57251,-2.14918 -4.79084,-4.55715z" data-paper-data="{&quot;index&quot;:null}" fill="#37e6d0"/><path d="M404.60312,71.58985c-2.77673,0.15942 -5.21968,-1.82834 -5.45648,-4.43984c-0.2368,-2.61151 4.15,-6.21023 6.92676,-6.36968c2.77676,-0.15942 4.95894,2.3308 5.19574,4.94234c0.23676,2.61151 -3.8893,5.70775 -6.66602,5.8672z" data-paper-data="{&quot;index&quot;:null}" fill="#37e6d0"/><path d="M387.60404,69.48883c-1.12214,-2.4613 -0.40588,-5.44328 2.2112,-6.19889c2.61703,-0.75563 8.46671,1.10651 9.58884,3.56777c1.12213,2.46129 -0.08976,5.06911 -2.70679,5.82474c-2.61707,0.75561 -7.97111,-0.73235 -9.09325,-3.19365z" fill="#4ee6d3"/><path d="M399.60513,65.67242c2.8361,-0.48113 5.6253,0.95846 6.2299,3.21543c0.6046,2.25697 -1.2044,4.47665 -4.0405,4.95778c-2.83609,0.48116 -5.62533,-0.95844 -6.22993,-3.21541c-0.60463,-2.25697 1.20441,-4.47665 4.0405,-4.95778z" fill="#ffe076"/></g></g><g data-paper-data="{&quot;index&quot;:null}"><path d="M180.55051,336.41719c11.63887,0 21.074,3.1524 21.074,7.04111c0,3.88871 -9.43516,7.04112 -21.074,7.04112c-11.63882,0 -21.07399,-3.1524 -21.07399,-7.04112c0,-3.88871 9.43516,-7.04111 21.07399,-7.04111z" fill="#7dc333" stroke="none" stroke-width="0" stroke-linecap="butt"/><path d="M191.12676,346.80566c-4.96667,0 -10.67908,2.32339 -10.67908,0.22365c0,-1.88374 3.2405,-6.57851 7.49341,-6.8803c0.48762,-0.03458 0.98859,0.61833 1.49948,0.61833c0.18405,0 -0.19326,-1.11865 -0.00819,-1.11936c4.80793,-0.01858 9.00109,0.88656 9.00109,2.90849c0,2.09975 -2.3401,4.2492 -7.30674,4.2492z" data-paper-data="{&quot;index&quot;:null}" fill="#82cb35" stroke="none" stroke-width="NaN" stroke-linecap="butt"/><path d="M163.04205,342.18858c0,-2.08715 4.32838,-3.02149 9.29143,-3.00231c0.19103,0.00074 -0.19845,1.15546 -0.00844,1.15546c0.52735,0 1.04448,-0.67396 1.54783,-0.63826c4.39007,0.31155 7.73515,5.15773 7.73515,7.10225c0,2.16746 -5.89668,-0.23087 -11.02354,-0.23087c-5.12686,0 -7.54244,-2.21882 -7.54244,-4.38627z" fill="#87d237" stroke="none" stroke-width="NaN" stroke-linecap="butt"/><g data-paper-data="{&quot;index&quot;:null}"><path d="M175.74449,327.34842c2.70514,-1.08488 6.20466,-0.75849 7.3521,1.24933c1.14745,2.00778 -0.36387,6.78124 -3.069,7.8661c-2.70509,1.08487 -5.8282,0.33668 -6.97565,-1.67114c-1.14745,-2.00781 -0.01255,-6.35946 2.69259,-7.44432z" data-paper-data="{&quot;index&quot;:null}" fill="#d0984a" stroke="none" stroke-width="0" stroke-linecap="butt"/><path d="M180.19683,336.14496c2.97229,-0.39714 7.57262,2.78091 8.05283,4.96288c0.48023,2.182 -2.14464,4.1071 -5.11693,4.50424c-2.97229,0.39714 -6.96795,-2.61521 -7.44818,-4.79718c-0.48022,-2.182 1.53997,-4.27278 4.51226,-4.66994z" data-paper-data="{&quot;index&quot;:null}" fill="#d0984a" stroke="none" stroke-width="0" stroke-linecap="butt"/><path d="M192.82596,336.97018c1.12214,2.4613 0.40582,5.44328 -2.21121,6.19889c-2.61703,0.75563 -8.4667,-1.10651 -9.58884,-3.5678c-1.12214,-2.4613 0.08975,-5.06911 2.70678,-5.82474c2.61703,-0.75561 7.97112,0.73235 9.09326,3.19365z" data-paper-data="{&quot;index&quot;:null}" fill="#d0984a" stroke="none" stroke-width="0" stroke-linecap="butt"/><path d="M176.34758,335.55152c2.56036,-0.14701 4.81292,1.68585 5.03125,4.09385c0.21838,2.40798 -3.82661,5.72627 -6.38697,5.87327c-2.56036,0.14701 -4.57251,-2.14917 -4.79084,-4.55715c-0.21833,-2.40798 3.5862,-5.26295 6.14656,-5.40996z" data-paper-data="{&quot;index&quot;:null}" fill="#d0984a" stroke="none" stroke-width="0" stroke-linecap="butt"/><path d="M185.37909,337.59024c-2.77673,0.15945 -5.21968,-1.82834 -5.45648,-4.43985c-0.2368,-2.61151 4.14999,-6.2102 6.92676,-6.36965c2.77676,-0.15942 4.95896,2.3308 5.19576,4.94232c0.2368,2.61151 -3.88928,5.70775 -6.66604,5.8672z" data-paper-data="{&quot;index&quot;:null}" fill="#d0984a" stroke="none" stroke-width="0" stroke-linecap="butt"/><path d="M168.37998,335.48922c-1.12214,-2.4613 -0.40582,-5.44326 2.21121,-6.19888c2.61703,-0.75563 8.46671,1.10651 9.58886,3.5678c1.12211,2.4613 -0.08979,5.06911 -2.70682,5.82474c-2.61703,0.75563 -7.97115,-0.73233 -9.09325,-3.19362z" fill="#d0984a" stroke="none" stroke-width="0" stroke-linecap="butt"/><path d="M180.38103,331.67281c2.8361,-0.48116 5.62533,0.95844 6.22993,3.21541c0.6046,2.25697 -1.2044,4.47665 -4.04049,4.95778c-2.83609,0.48113 -5.62534,-0.95847 -6.22993,-3.21543c-0.6046,-2.25697 1.2044,-4.47665 4.0405,-4.95778z" fill="#d0984a" stroke="none" stroke-width="0" stroke-linecap="butt"/><path d="M169.71415,330.18408l13.92451,14.77479" fill="none" stroke="#aa7d3d" stroke-width="0.5" stroke-linecap="round"/><path d="M168.2638,331.10747l10.15326,-3.46283l11.31364,15.46735l3.191,-3.92455l-9.8632,-11.31195l-11.60376,9.46509l-2.90096,-3.92454l19.14619,-5.77141l3.77121,3.23202l-8.23977,11.99211l8.52982,-6.91327" fill="none" stroke="#aa7d3d" stroke-width="1" stroke-linecap="round"/><path d="M172.90519,344.03544l17.6957,-15.23652" fill="none" stroke="#aa7d3d" stroke-width="1" stroke-linecap="round"/><path d="M172.32502,341.26519l3.48113,3.6937l-4.0613,-4.15542l10.15326,2.77026" fill="none" stroke="#aa7d3d" stroke-width="1" stroke-linecap="round"/><path d="M189.15045,341.95776l-13.92451,2.77027" fill="none" stroke="#aa7d3d" stroke-width="0.5" stroke-linecap="round"/></g><g stroke="none" stroke-width="0" stroke-linecap="butt"><path d="M177.96856,326.34806c2.70514,-1.08486 6.20466,-0.75847 7.3521,1.24935c1.14745,2.00781 -0.36386,6.78125 -3.069,7.86612c-2.70514,1.08486 -5.8282,0.33668 -6.97565,-1.67114c-1.14745,-2.00781 -0.01255,-6.35946 2.69255,-7.44433z" data-paper-data="{&quot;index&quot;:null}" fill="#52f2df"/><path d="M177.90856,339.81454c-0.48022,-2.182 1.54003,-4.27279 4.5123,-4.66994c2.97229,-0.39714 7.57261,2.78091 8.05284,4.96287c0.48023,2.18197 -2.14465,4.10707 -5.11694,4.50422c-2.97229,0.39714 -6.96791,-2.61521 -7.44814,-4.79718z" data-paper-data="{&quot;index&quot;:null}" fill="#52f2df"/><path d="M195.04998,335.96984c1.12214,2.4613 0.40587,5.44328 -2.21121,6.19889c-2.61707,0.75563 -8.46668,-1.10651 -9.58882,-3.5678c-1.12214,-2.4613 0.08975,-5.06911 2.70678,-5.82474c2.61703,-0.75561 7.97111,0.73236 9.09326,3.19365z" data-paper-data="{&quot;index&quot;:null}" fill="#4ee6db"/><path d="M172.42507,339.96106c-0.21833,-2.40798 3.5862,-5.26293 6.14656,-5.40996c2.56036,-0.14701 4.81292,1.68587 5.03126,4.09386c0.21838,2.40798 -3.82661,5.72627 -6.38697,5.87327c-2.56036,0.14701 -4.57251,-2.14918 -4.79084,-4.55715z" data-paper-data="{&quot;index&quot;:null}" fill="#37e6d0"/><path d="M187.60312,336.58985c-2.77673,0.15942 -5.21968,-1.82834 -5.45648,-4.43984c-0.2368,-2.61151 4.15,-6.21023 6.92676,-6.36968c2.77676,-0.15942 4.95894,2.3308 5.19574,4.94234c0.23676,2.61151 -3.8893,5.70775 -6.66602,5.8672z" data-paper-data="{&quot;index&quot;:null}" fill="#37e6d0"/><path d="M170.60404,334.48883c-1.12214,-2.4613 -0.40588,-5.44328 2.2112,-6.19889c2.61703,-0.75563 8.46671,1.10651 9.58884,3.56777c1.12213,2.46129 -0.08976,5.06911 -2.70679,5.82474c-2.61707,0.75561 -7.97111,-0.73235 -9.09325,-3.19365z" fill="#4ee6d3"/><path d="M182.60513,330.67242c2.8361,-0.48113 5.6253,0.95846 6.2299,3.21543c0.6046,2.25697 -1.2044,4.47665 -4.0405,4.95778c-2.83609,0.48116 -5.62533,-0.95844 -6.22993,-3.21541c-0.60463,-2.25697 1.20441,-4.47665 4.0405,-4.95778z" fill="#ffe076"/></g></g><g data-paper-data="{&quot;index&quot;:null}"><path d="M65.55051,315.91719c11.63887,0 21.074,3.1524 21.074,7.04111c0,3.88871 -9.43516,7.04112 -21.074,7.04112c-11.63882,0 -21.07399,-3.1524 -21.07399,-7.04112c0,-3.88871 9.43516,-7.04111 21.07399,-7.04111z" fill="#7dc333" stroke="none" stroke-width="0" stroke-linecap="butt"/><path d="M76.12676,326.30566c-4.96667,0 -10.67908,2.32339 -10.67908,0.22365c0,-1.88374 3.2405,-6.57851 7.49341,-6.8803c0.48762,-0.03458 0.98859,0.61833 1.49948,0.61833c0.18405,0 -0.19326,-1.11865 -0.00819,-1.11936c4.80793,-0.01858 9.00109,0.88656 9.00109,2.90849c0,2.09975 -2.3401,4.2492 -7.30674,4.2492z" data-paper-data="{&quot;index&quot;:null}" fill="#82cb35" stroke="none" stroke-width="NaN" stroke-linecap="butt"/><path d="M48.04205,321.68858c0,-2.08715 4.32838,-3.02149 9.29143,-3.00231c0.19103,0.00074 -0.19845,1.15546 -0.00844,1.15546c0.52735,0 1.04448,-0.67396 1.54783,-0.63826c4.39007,0.31155 7.73515,5.15773 7.73515,7.10225c0,2.16746 -5.89668,-0.23087 -11.02354,-0.23087c-5.12686,0 -7.54244,-2.21882 -7.54244,-4.38627z" fill="#87d237" stroke="none" stroke-width="NaN" stroke-linecap="butt"/><g data-paper-data="{&quot;index&quot;:null}"><path d="M60.74449,306.84842c2.70514,-1.08488 6.20466,-0.75849 7.3521,1.24933c1.14745,2.00778 -0.36387,6.78124 -3.069,7.8661c-2.70509,1.08487 -5.8282,0.33668 -6.97565,-1.67114c-1.14745,-2.00781 -0.01255,-6.35946 2.69259,-7.44432z" data-paper-data="{&quot;index&quot;:null}" fill="#d0984a" stroke="none" stroke-width="0" stroke-linecap="butt"/><path d="M65.19683,315.64496c2.97229,-0.39714 7.57262,2.78091 8.05283,4.96288c0.48022,2.182 -2.14464,4.1071 -5.11693,4.50424c-2.97229,0.39714 -6.96795,-2.61521 -7.44818,-4.79718c-0.48022,-2.182 1.53997,-4.27278 4.51226,-4.66994z" data-paper-data="{&quot;index&quot;:null}" fill="#d0984a" stroke="none" stroke-width="0" stroke-linecap="butt"/><path d="M77.82596,316.47018c1.12213,2.4613 0.40582,5.44328 -2.21121,6.19889c-2.61703,0.75563 -8.4667,-1.10651 -9.58883,-3.5678c-1.12214,-2.4613 0.08975,-5.06911 2.70678,-5.82474c2.61703,-0.75561 7.97112,0.73235 9.09325,3.19365z" data-paper-data="{&quot;index&quot;:null}" fill="#d0984a" stroke="none" stroke-width="0" stroke-linecap="butt"/><path d="M61.34758,315.05152c2.56036,-0.14701 4.81292,1.68585 5.03125,4.09385c0.21838,2.40798 -3.82661,5.72627 -6.38697,5.87327c-2.56036,0.14701 -4.57251,-2.14917 -4.79084,-4.55715c-0.21833,-2.40798 3.5862,-5.26295 6.14656,-5.40996z" data-paper-data="{&quot;index&quot;:null}" fill="#d0984a" stroke="none" stroke-width="0" stroke-linecap="butt"/><path d="M70.37909,317.09024c-2.77673,0.15945 -5.21968,-1.82834 -5.45648,-4.43985c-0.2368,-2.61151 4.14999,-6.2102 6.92676,-6.36965c2.77676,-0.15942 4.95896,2.3308 5.19576,4.94232c0.2368,2.61151 -3.88928,5.70775 -6.66604,5.8672z" data-paper-data="{&quot;index&quot;:null}" fill="#d0984a" stroke="none" stroke-width="0" stroke-linecap="butt"/><path d="M53.37998,314.98922c-1.12214,-2.4613 -0.40582,-5.44326 2.21121,-6.19888c2.61703,-0.75563 8.46671,1.10651 9.58886,3.5678c1.12211,2.4613 -0.08979,5.06911 -2.70682,5.82474c-2.61703,0.75563 -7.97115,-0.73233 -9.09325,-3.19362z" fill="#d0984a" stroke="none" stroke-width="0" stroke-linecap="butt"/><path d="M65.38103,311.17281c2.8361,-0.48116 5.62533,0.95844 6.22993,3.21541c0.6046,2.25697 -1.2044,4.47665 -4.04049,4.95778c-2.83609,0.48113 -5.62534,-0.95847 -6.22993,-3.21543c-0.6046,-2.25697 1.2044,-4.47665 4.0405,-4.95778z" fill="#d0984a" stroke="none" stroke-width="0" stroke-linecap="butt"/><path d="M54.71415,309.68408l13.92451,14.77479" fill="none" stroke="#aa7d3d" stroke-width="0.5" stroke-linecap="round"/><path d="M53.2638,310.60747l10.15326,-3.46283l11.31364,15.46735l3.191,-3.92455l-9.8632,-11.31195l-11.60376,9.46509l-2.90096,-3.92454l19.14619,-5.77141l3.77122,3.23202l-8.23977,11.99211l8.52982,-6.91327" fill="none" stroke="#aa7d3d" stroke-width="1" stroke-linecap="round"/><path d="M57.90519,323.53544l17.6957,-15.23652" fill="none" stroke="#aa7d3d" stroke-width="1" stroke-linecap="round"/><path d="M57.32502,320.76519l3.48113,3.6937l-4.0613,-4.15542l10.15326,2.77026" fill="none" stroke="#aa7d3d" stroke-width="1" stroke-linecap="round"/><path d="M74.15045,321.45776l-13.92451,2.77027" fill="none" stroke="#aa7d3d" stroke-width="0.5" stroke-linecap="round"/></g><g stroke="none" stroke-width="0" stroke-linecap="butt"><path d="M62.96856,305.84806c2.70514,-1.08486 6.20466,-0.75847 7.3521,1.24935c1.14745,2.00781 -0.36386,6.78125 -3.069,7.86612c-2.70514,1.08486 -5.8282,0.33668 -6.97565,-1.67114c-1.14745,-2.00781 -0.01255,-6.35946 2.69255,-7.44433z" data-paper-data="{&quot;index&quot;:null}" fill="#f252b3"/><path d="M62.90856,319.31454c-0.48022,-2.182 1.54003,-4.27279 4.5123,-4.66994c2.97229,-0.39714 7.57261,2.78091 8.05283,4.96287c0.48022,2.18197 -2.14464,4.10707 -5.11693,4.50422c-2.97229,0.39714 -6.96791,-2.61521 -7.44814,-4.79718z" data-paper-data="{&quot;index&quot;:null}" fill="#f252b3"/><path d="M80.04998,315.46984c1.12214,2.4613 0.40587,5.44328 -2.21121,6.19889c-2.61707,0.75563 -8.46668,-1.10651 -9.58882,-3.5678c-1.12214,-2.4613 0.08975,-5.06911 2.70678,-5.82474c2.61703,-0.75561 7.9711,0.73236 9.09325,3.19365z" data-paper-data="{&quot;index&quot;:null}" fill="#e64eaa"/><path d="M57.42506,319.46106c-0.21833,-2.40798 3.5862,-5.26293 6.14656,-5.40996c2.56036,-0.14701 4.81292,1.68587 5.03126,4.09386c0.21838,2.40798 -3.82661,5.72627 -6.38697,5.87327c-2.56036,0.14701 -4.57251,-2.14918 -4.79084,-4.55715z" data-paper-data="{&quot;index&quot;:null}" fill="#e637a1"/><path d="M72.60312,316.08985c-2.77673,0.15942 -5.21968,-1.82834 -5.45648,-4.43984c-0.2368,-2.61151 4.15,-6.21023 6.92676,-6.36968c2.77676,-0.15942 4.95895,2.3308 5.19575,4.94234c0.23676,2.61151 -3.8893,5.70775 -6.66603,5.8672z" data-paper-data="{&quot;index&quot;:null}" fill="#e637a1"/><path d="M55.60404,313.98883c-1.12214,-2.4613 -0.40588,-5.44328 2.2112,-6.19889c2.61703,-0.75563 8.46671,1.10651 9.58884,3.56777c1.12213,2.46129 -0.08976,5.06911 -2.70679,5.82474c-2.61707,0.75561 -7.97111,-0.73235 -9.09325,-3.19365z" fill="#e64eaa"/><path d="M67.60513,310.17242c2.8361,-0.48113 5.6253,0.95846 6.2299,3.21543c0.6046,2.25697 -1.2044,4.47665 -4.04049,4.95778c-2.83609,0.48116 -5.62533,-0.95844 -6.22993,-3.21541c-0.60463,-2.25697 1.20441,-4.47665 4.0405,-4.95778z" fill="#ffe076"/></g></g><g data-paper-data="{&quot;index&quot;:null}"><path d="M299.5505,261.41719c11.63887,0 21.074,3.1524 21.074,7.04111c0,3.8887 -9.43516,7.04112 -21.074,7.04112c-11.63882,0 -21.07399,-3.1524 -21.07399,-7.04112c0,-3.88871 9.43515,-7.04111 21.07399,-7.04111z" fill="#7dc333" stroke="none" stroke-width="0" stroke-linecap="butt"/><path d="M310.12676,271.80566c-4.96667,0 -10.67908,2.32339 -10.67908,0.22366c0,-1.88374 3.2405,-6.57851 7.49341,-6.8803c0.48762,-0.03458 0.98859,0.61833 1.49948,0.61833c0.18405,0 -0.19326,-1.11865 -0.00819,-1.11936c4.80793,-0.01858 9.00109,0.88656 9.00109,2.90849c0,2.09975 -2.3401,4.2492 -7.30674,4.2492z" data-paper-data="{&quot;index&quot;:null}" fill="#82cb35" stroke="none" stroke-width="NaN" stroke-linecap="butt"/><path d="M282.04205,267.18858c0,-2.08715 4.32839,-3.02149 9.29143,-3.00231c0.19103,0.00074 -0.19846,1.15546 -0.00845,1.15546c0.52735,0 1.04448,-0.67396 1.54783,-0.63826c4.39007,0.31155 7.73515,5.15773 7.73515,7.10224c0,2.16745 -5.89668,-0.23086 -11.02354,-0.23086c-5.12686,0 -7.54245,-2.21882 -7.54245,-4.38627z" fill="#87d237" stroke="none" stroke-width="NaN" stroke-linecap="butt"/><g data-paper-data="{&quot;index&quot;:null}"><path d="M294.74449,252.34842c2.70514,-1.08488 6.20466,-0.75849 7.3521,1.24933c1.14745,2.00778 -0.36387,6.78124 -3.069,7.8661c-2.70509,1.08487 -5.8282,0.33668 -6.97565,-1.67114c-1.14745,-2.00781 -0.01255,-6.35946 2.69259,-7.44432z" data-paper-data="{&quot;index&quot;:null}" fill="#d0984a" stroke="none" stroke-width="0" stroke-linecap="butt"/><path d="M299.19683,261.14496c2.97229,-0.39714 7.57262,2.78091 8.05283,4.96288c0.48022,2.182 -2.14464,4.1071 -5.11693,4.50424c-2.97229,0.39714 -6.96795,-2.61521 -7.44818,-4.79718c-0.48022,-2.182 1.53997,-4.27278 4.51226,-4.66994z" data-paper-data="{&quot;index&quot;:null}" fill="#d0984a" stroke="none" stroke-width="0" stroke-linecap="butt"/><path d="M311.82596,261.97018c1.12213,2.4613 0.40582,5.44328 -2.21121,6.19889c-2.61703,0.75563 -8.4667,-1.10651 -9.58883,-3.5678c-1.12214,-2.4613 0.08975,-5.06911 2.70678,-5.82474c2.61703,-0.75561 7.97112,0.73235 9.09325,3.19365z" data-paper-data="{&quot;index&quot;:null}" fill="#d0984a" stroke="none" stroke-width="0" stroke-linecap="butt"/><path d="M295.34758,260.55152c2.56036,-0.14701 4.81292,1.68585 5.03125,4.09385c0.21838,2.40798 -3.82661,5.72626 -6.38697,5.87327c-2.56036,0.14702 -4.57251,-2.14917 -4.79084,-4.55715c-0.21833,-2.40798 3.5862,-5.26295 6.14656,-5.40996z" data-paper-data="{&quot;index&quot;:null}" fill="#d0984a" stroke="none" stroke-width="0" stroke-linecap="butt"/><path d="M304.37909,262.59024c-2.77673,0.15945 -5.21968,-1.82834 -5.45648,-4.43985c-0.2368,-2.61151 4.14999,-6.2102 6.92676,-6.36965c2.77676,-0.15942 4.95896,2.3308 5.19576,4.94232c0.2368,2.61151 -3.88928,5.70775 -6.66604,5.8672z" data-paper-data="{&quot;index&quot;:null}" fill="#d0984a" stroke="none" stroke-width="0" stroke-linecap="butt"/><path d="M287.37998,260.48922c-1.12214,-2.4613 -0.40583,-5.44326 2.2112,-6.19888c2.61703,-0.75563 8.46672,1.10651 9.58887,3.5678c1.12211,2.4613 -0.08979,5.06911 -2.70682,5.82474c-2.61703,0.75563 -7.97114,-0.73233 -9.09325,-3.19362z" fill="#d0984a" stroke="none" stroke-width="0" stroke-linecap="butt"/><path d="M299.38103,256.67281c2.8361,-0.48116 5.62533,0.95844 6.22993,3.21541c0.6046,2.25697 -1.2044,4.47665 -4.04049,4.95778c-2.83609,0.48113 -5.62534,-0.95847 -6.22993,-3.21543c-0.6046,-2.25697 1.2044,-4.47665 4.0405,-4.95778z" fill="#d0984a" stroke="none" stroke-width="0" stroke-linecap="butt"/><path d="M288.71415,255.18408l13.92451,14.77479" fill="none" stroke="#aa7d3d" stroke-width="0.5" stroke-linecap="round"/><path d="M287.2638,256.10747l10.15326,-3.46283l11.31364,15.46735l3.191,-3.92455l-9.8632,-11.31195l-11.60376,9.46509l-2.90095,-3.92454l19.14618,-5.77141l3.77122,3.23202l-8.23977,11.99211l8.52982,-6.91327" fill="none" stroke="#aa7d3d" stroke-width="1" stroke-linecap="round"/><path d="M291.90519,269.03544l17.6957,-15.23652" fill="none" stroke="#aa7d3d" stroke-width="1" stroke-linecap="round"/><path d="M291.32502,266.26519l3.48113,3.69371l-4.0613,-4.15543l10.15326,2.77026" fill="none" stroke="#aa7d3d" stroke-width="1" stroke-linecap="round"/><path d="M308.15044,266.95776l-13.92451,2.77027" fill="none" stroke="#aa7d3d" stroke-width="0.5" stroke-linecap="round"/></g><g stroke="none" stroke-width="0" stroke-linecap="butt"><path d="M296.96856,251.34806c2.70514,-1.08486 6.20466,-0.75847 7.3521,1.24935c1.14745,2.00781 -0.36386,6.78125 -3.069,7.86612c-2.70514,1.08486 -5.8282,0.33668 -6.97565,-1.67114c-1.14745,-2.00781 -0.01255,-6.35946 2.69255,-7.44433z" data-paper-data="{&quot;index&quot;:null}" fill="#f25252"/><path d="M296.90856,264.81454c-0.48022,-2.182 1.54003,-4.27279 4.5123,-4.66994c2.97229,-0.39714 7.57261,2.78091 8.05283,4.96287c0.48022,2.18197 -2.14464,4.10707 -5.11693,4.50422c-2.97229,0.39714 -6.96791,-2.61522 -7.44814,-4.79719z" data-paper-data="{&quot;index&quot;:null}" fill="#f25252"/><path d="M314.04998,260.96984c1.12214,2.4613 0.40587,5.44328 -2.21121,6.19889c-2.61707,0.75563 -8.46668,-1.10651 -9.58882,-3.5678c-1.12214,-2.4613 0.08975,-5.06911 2.70678,-5.82474c2.61703,-0.75561 7.9711,0.73236 9.09325,3.19365z" data-paper-data="{&quot;index&quot;:null}" fill="#e64e4e"/><path d="M291.42507,264.96106c-0.21833,-2.40798 3.58619,-5.26293 6.14655,-5.40996c2.56036,-0.14701 4.81292,1.68587 5.03126,4.09386c0.21838,2.40798 -3.82661,5.72626 -6.38697,5.87327c-2.56036,0.14702 -4.5725,-2.14918 -4.79084,-4.55715z" data-paper-data="{&quot;index&quot;:null}" fill="#e63737"/><path d="M306.60312,261.58985c-2.77673,0.15942 -5.21968,-1.82834 -5.45648,-4.43984c-0.2368,-2.61151 4.15,-6.21023 6.92676,-6.36968c2.77676,-0.15942 4.95895,2.3308 5.19575,4.94234c0.23676,2.61151 -3.8893,5.70775 -6.66603,5.8672z" data-paper-data="{&quot;index&quot;:null}" fill="#e63737"/><path d="M289.60404,259.48883c-1.12214,-2.4613 -0.40587,-5.44328 2.2112,-6.19889c2.61703,-0.75563 8.46671,1.10651 9.58884,3.56777c1.12213,2.46129 -0.08976,5.06911 -2.70679,5.82474c-2.61707,0.75561 -7.97111,-0.73235 -9.09325,-3.19365z" fill="#e64e4e"/><path d="M301.60513,255.67242c2.8361,-0.48113 5.6253,0.95846 6.2299,3.21543c0.6046,2.25697 -1.2044,4.47665 -4.04049,4.95778c-2.83609,0.48116 -5.62533,-0.95844 -6.22993,-3.21541c-0.60463,-2.25697 1.20441,-4.47665 4.0405,-4.95778z" fill="#ffe076"/></g></g><g data-paper-data="{&quot;index&quot;:null}"><path d="M390.55051,321.41719c11.63887,0 21.074,3.1524 21.074,7.04111c0,3.8887 -9.43516,7.04112 -21.074,7.04112c-11.63882,0 -21.07399,-3.1524 -21.07399,-7.04112c0,-3.8887 9.43515,-7.04111 21.07399,-7.04111z" fill="#7dc333" stroke="none" stroke-width="0" stroke-linecap="butt"/><path d="M401.12676,331.80566c-4.96667,0 -10.67908,2.32339 -10.67908,0.22366c0,-1.88374 3.2405,-6.57851 7.49341,-6.8803c0.48762,-0.03458 0.98859,0.61834 1.49948,0.61834c0.18405,0 -0.19326,-1.11865 -0.00819,-1.11936c4.80793,-0.01858 9.00109,0.88655 9.00109,2.90849c0,2.09975 -2.3401,4.2492 -7.30674,4.2492z" data-paper-data="{&quot;index&quot;:null}" fill="#82cb35" stroke="none" stroke-width="NaN" stroke-linecap="butt"/><path d="M373.04205,327.18858c0,-2.08715 4.32839,-3.02148 9.29143,-3.0023c0.19103,0.00074 -0.19846,1.15546 -0.00845,1.15546c0.52735,0 1.04448,-0.67396 1.54783,-0.63826c4.39007,0.31155 7.73515,5.15773 7.73515,7.10224c0,2.16745 -5.89668,-0.23086 -11.02354,-0.23086c-5.12686,0 -7.54245,-2.21882 -7.54245,-4.38628z" fill="#87d237" stroke="none" stroke-width="NaN" stroke-linecap="butt"/><g data-paper-data="{&quot;index&quot;:null}"><path d="M385.74449,312.34842c2.70513,-1.08488 6.20466,-0.75849 7.35211,1.24933c1.14745,2.00778 -0.36387,6.78124 -3.069,7.8661c-2.70509,1.08487 -5.8282,0.33669 -6.97566,-1.67114c-1.14745,-2.00781 -0.01255,-6.35946 2.69259,-7.44432z" data-paper-data="{&quot;index&quot;:null}" fill="#d0984a" stroke="none" stroke-width="0" stroke-linecap="butt"/><path d="M390.19683,321.14496c2.97229,-0.39714 7.57262,2.78091 8.05283,4.96288c0.48022,2.182 -2.14464,4.10709 -5.11693,4.50424c-2.97229,0.39714 -6.96795,-2.61521 -7.44818,-4.79718c-0.48023,-2.182 1.53997,-4.27277 4.51226,-4.66994z" data-paper-data="{&quot;index&quot;:null}" fill="#d0984a" stroke="none" stroke-width="0" stroke-linecap="butt"/><path d="M402.82596,321.97018c1.12213,2.46131 0.40582,5.44328 -2.21121,6.19889c-2.61703,0.75564 -8.4667,-1.10651 -9.58883,-3.5678c-1.12214,-2.46131 0.08975,-5.06911 2.70678,-5.82474c2.61703,-0.75561 7.97112,0.73236 9.09325,3.19365z" data-paper-data="{&quot;index&quot;:null}" fill="#d0984a" stroke="none" stroke-width="0" stroke-linecap="butt"/><path d="M386.34758,320.55152c2.56036,-0.14702 4.81292,1.68585 5.03125,4.09385c0.21837,2.40798 -3.82661,5.72626 -6.38697,5.87327c-2.56036,0.14702 -4.57251,-2.14916 -4.79084,-4.55714c-0.21833,-2.40798 3.5862,-5.26295 6.14656,-5.40996z" data-paper-data="{&quot;index&quot;:null}" fill="#d0984a" stroke="none" stroke-width="0" stroke-linecap="butt"/><path d="M395.37909,322.59024c-2.77673,0.15945 -5.21968,-1.82834 -5.45648,-4.43985c-0.2368,-2.61151 4.14999,-6.2102 6.92676,-6.36965c2.77676,-0.15942 4.95896,2.3308 5.19576,4.94232c0.2368,2.61151 -3.88928,5.70775 -6.66604,5.8672z" data-paper-data="{&quot;index&quot;:null}" fill="#d0984a" stroke="none" stroke-width="0" stroke-linecap="butt"/><path d="M378.37998,320.48922c-1.12214,-2.46131 -0.40583,-5.44327 2.2112,-6.19888c2.61703,-0.75564 8.46672,1.10652 9.58887,3.56781c1.12211,2.46131 -0.08979,5.06911 -2.70682,5.82474c-2.61703,0.75564 -7.97114,-0.73233 -9.09325,-3.19362z" fill="#d0984a" stroke="none" stroke-width="0" stroke-linecap="butt"/><path d="M390.38103,316.67281c2.83609,-0.48116 5.62533,0.95845 6.22993,3.21541c0.6046,2.25697 -1.2044,4.47664 -4.0405,4.95778c-2.83609,0.48113 -5.62534,-0.95846 -6.22993,-3.21543c-0.6046,-2.25697 1.2044,-4.47665 4.04049,-4.95778z" fill="#d0984a" stroke="none" stroke-width="0" stroke-linecap="butt"/><path d="M379.71415,315.18408l13.92451,14.77479" fill="none" stroke="#aa7d3d" stroke-width="0.5" stroke-linecap="round"/><path d="M378.2638,316.10747l10.15326,-3.46283l11.31364,15.46734l3.191,-3.92454l-9.8632,-11.31195l-11.60376,9.46509l-2.90095,-3.92455l19.14618,-5.7714l3.77122,3.23202l-8.23977,11.99211l8.52982,-6.91327" fill="none" stroke="#aa7d3d" stroke-width="1" stroke-linecap="round"/><path d="M400.60089,313.79892l-17.6957,15.23652" fill="none" stroke="#aa7d3d" stroke-width="1" stroke-linecap="round"/><path d="M382.32502,326.26519l3.48113,3.69371l-4.0613,-4.15543l10.15326,2.77026" fill="none" stroke="#aa7d3d" stroke-width="1" stroke-linecap="round"/><path d="M399.15044,326.95776l-13.92451,2.77027" fill="none" stroke="#aa7d3d" stroke-width="0.5" stroke-linecap="round"/></g><g stroke="none" stroke-width="0" stroke-linecap="butt"><path d="M387.96856,311.34805c2.70513,-1.08486 6.20466,-0.75847 7.3521,1.24936c1.14745,2.00781 -0.36386,6.78125 -3.069,7.86612c-2.70513,1.08486 -5.8282,0.33668 -6.97566,-1.67114c-1.14745,-2.00781 -0.01255,-6.35946 2.69255,-7.44433z" data-paper-data="{&quot;index&quot;:null}" fill="#f3cd52"/><path d="M387.90856,324.81454c-0.48023,-2.182 1.54003,-4.27279 4.5123,-4.66994c2.97229,-0.39714 7.57261,2.78091 8.05283,4.96287c0.48022,2.18197 -2.14464,4.10707 -5.11693,4.50422c-2.97229,0.39714 -6.96791,-2.61522 -7.44814,-4.79719z" data-paper-data="{&quot;index&quot;:null}" fill="#f3cd52"/><path d="M405.04998,320.96984c1.12214,2.46131 0.40587,5.44328 -2.21121,6.19889c-2.61707,0.75564 -8.46668,-1.10652 -9.58882,-3.5678c-1.12214,-2.46131 0.08975,-5.06911 2.70678,-5.82474c2.61703,-0.75561 7.9711,0.73236 9.09325,3.19365z" data-paper-data="{&quot;index&quot;:null}" fill="#e6c24e"/><path d="M382.42507,324.96106c-0.21833,-2.40798 3.58619,-5.26293 6.14655,-5.40996c2.56036,-0.14702 4.81292,1.68587 5.03126,4.09387c0.21838,2.40798 -3.82661,5.72626 -6.38697,5.87327c-2.56036,0.14702 -4.57251,-2.14918 -4.79084,-4.55714z" data-paper-data="{&quot;index&quot;:null}" fill="#e6bd38"/><path d="M397.60312,321.58985c-2.77673,0.15942 -5.21968,-1.82834 -5.45648,-4.43984c-0.2368,-2.61151 4.15,-6.21023 6.92676,-6.36968c2.77676,-0.15942 4.95895,2.33081 5.19575,4.94234c0.23676,2.61151 -3.8893,5.70775 -6.66603,5.8672z" data-paper-data="{&quot;index&quot;:null}" fill="#e6bd38"/><path d="M380.60404,319.48883c-1.12214,-2.46131 -0.40587,-5.44328 2.2112,-6.19889c2.61703,-0.75564 8.46671,1.10651 9.58884,3.56777c1.12213,2.46129 -0.08976,5.06911 -2.70679,5.82474c-2.61707,0.75561 -7.97111,-0.73236 -9.09325,-3.19365z" fill="#e6c24e"/><path d="M392.60513,315.67242c2.8361,-0.48113 5.6253,0.95846 6.2299,3.21543c0.6046,2.25697 -1.2044,4.47665 -4.04049,4.95778c-2.83609,0.48116 -5.62533,-0.95845 -6.22993,-3.21542c-0.60463,-2.25697 1.2044,-4.47664 4.0405,-4.95778z" fill="#ffe076"/></g></g></g></g></svg>