<svg version="1.1" xmlns="http://www.w3.org/2000/svg" xmlns:xlink="http://www.w3.org/1999/xlink" width="638.5" height="366" viewBox="0,0,638.5,366"><g transform="translate(79.25,3.25)"><g data-paper-data="{&quot;isPaintingLayer&quot;:true}" fill-rule="nonzero" stroke-linecap="butt" stroke-linejoin="miter" stroke-dasharray="" stroke-dashoffset="0" style="mix-blend-mode: normal"><path d="M-1.82328,361.79726v-361.99999h484.5v362z" fill="#cef2f0" stroke="none" stroke-width="0" stroke-miterlimit="10"/><path d="M-12.025,360.99999v-361.99999h504.05v362z" fill="#9fdeda" stroke="none" stroke-width="0" stroke-miterlimit="10"/><g stroke="#9ad6d2" stroke-miterlimit="10"><path d="M73.60931,84.26371c0,10.73559 -8.88051,19.43846 -19.83518,19.43846c-10.95467,0 -19.83517,-8.70287 -19.83517,-19.43846c0,-10.73559 8.88051,-19.43846 19.83518,-19.43846c10.95467,0 19.83518,8.70291 19.83518,19.43846z" fill="none" stroke-width="6.5"/><path d="M46.40354,65.84853v-8.33074h13.88463v8.33075z" fill="#9ad6d2" stroke-width="0"/><path d="M63.52086,67.43656l6.98704,-6.23458l8.3927,9.40565l-6.98703,6.23458z" fill="#9ad6d2" stroke-width="0"/><path d="M34.77815,75.65214l-6.98704,-6.23458l8.3927,-9.40565l6.98704,6.23458z" data-paper-data="{&quot;index&quot;:null}" fill="#9ad6d2" stroke-width="0"/><path d="M40.23557,97.99039l-8.74094,4.97148l-6.69238,-11.76664l8.74094,-4.97147z" data-paper-data="{&quot;index&quot;:null}" fill="#9ad6d2" stroke-width="0"/><path d="M74.27288,86.62039l8.13698,4.62794l-6.22996,10.95358l-8.13697,-4.62794z" data-paper-data="{&quot;index&quot;:null}" fill="#9ad6d2" stroke-width="0"/><path d="M46.80024,110.70013v-7.53735h13.88462v7.53735z" fill="#9ad6d2" stroke-width="0"/></g><path d="M-79.25,361.75l95,-363l58,0.5l-95,362.5z" fill="#a3e2de" stroke="none" stroke-width="0" stroke-miterlimit="10"/><path d="M159.75,362.75l95,-363l58,0.5l-95,362.5z" fill="#a3e2de" stroke="none" stroke-width="0" stroke-miterlimit="10"/><g stroke="#9ad6d2" stroke-miterlimit="10"><path d="M107.60381,46.62684c0,10.73559 -8.88051,19.43846 -19.83518,19.43846c-10.95467,0 -19.83517,-8.70287 -19.83517,-19.43846c0,-10.73559 8.8805,-19.43846 19.83518,-19.43846c10.95467,0 19.83518,8.70292 19.83518,19.43846z" fill="none" stroke-width="6.5"/><path d="M80.39804,28.21165v-8.33074h13.88463v8.33074z" fill="#9ad6d2" stroke-width="0"/><path d="M97.51536,29.79994l6.98703,-6.23458l8.3927,9.40565l-6.98703,6.23458z" fill="#9ad6d2" stroke-width="0"/><path d="M68.77265,38.0153l-6.98704,-6.23458l8.3927,-9.40565l6.98704,6.23459z" data-paper-data="{&quot;index&quot;:null}" fill="#9ad6d2" stroke-width="0"/><path d="M74.23008,60.35351l-8.74094,4.97148l-6.69237,-11.76664l8.74094,-4.97148z" data-paper-data="{&quot;index&quot;:null}" fill="#9ad6d2" stroke-width="0"/><path d="M108.26738,48.98355l8.13697,4.62794l-6.22995,10.95358l-8.13698,-4.62794z" data-paper-data="{&quot;index&quot;:null}" fill="#9ad6d2" stroke-width="0"/><path d="M80.79476,73.06329v-7.53735h13.88462v7.53735z" fill="#9ad6d2" stroke-width="0"/></g><path d="M33.75,362.75l95,-363h58l-95,363z" fill="#a3e2de" stroke="none" stroke-width="0" stroke-miterlimit="10"/><g stroke="#8bc1bd" stroke-miterlimit="10"><path d="M68.60931,79.26371c0,10.73559 -8.88051,19.43846 -19.83518,19.43846c-10.95467,0 -19.83517,-8.70287 -19.83517,-19.43846c0,-10.73559 8.88051,-19.43846 19.83518,-19.43846c10.95467,0 19.83518,8.70291 19.83518,19.43846z" fill="none" stroke-width="6.5"/><path d="M41.40354,60.84853v-8.33074h13.88463v8.33075z" fill="#8cc3bf" stroke-width="0"/><path d="M58.52086,62.43656l6.98703,-6.23458l8.3927,9.40565l-6.98703,6.23458z" fill="#8cc3bf" stroke-width="0"/><path d="M29.77815,70.65214l-6.98704,-6.23458l8.3927,-9.40565l6.98704,6.23458z" data-paper-data="{&quot;index&quot;:null}" fill="#8cc3bf" stroke-width="0"/><path d="M35.23558,92.99039l-8.74094,4.97148l-6.69238,-11.76664l8.74094,-4.97147z" data-paper-data="{&quot;index&quot;:null}" fill="#8cc3bf" stroke-width="0"/><path d="M69.27288,81.62039l8.13698,4.62794l-6.22996,10.95358l-8.13697,-4.62794z" data-paper-data="{&quot;index&quot;:null}" fill="#8cc3bf" stroke-width="0"/><path d="M41.80024,105.70013v-7.53735h13.88462v7.53735z" fill="#8cc3bf" stroke-width="0"/></g><g stroke="#8bc1bd" stroke-miterlimit="10"><path d="M103.10381,41.62683c0,10.73559 -8.88051,19.43846 -19.83518,19.43846c-10.95467,0 -19.83517,-8.70287 -19.83517,-19.43846c0,-10.73559 8.8805,-19.43846 19.83518,-19.43846c10.95467,0 19.83518,8.70291 19.83518,19.43846z" fill="none" stroke-width="6.5"/><path d="M75.89804,23.21165v-8.33074h13.88463v8.33074z" fill="#8cc3bf" stroke-width="0"/><path d="M93.01536,24.79994l6.98703,-6.23458l8.3927,9.40565l-6.98703,6.23458z" fill="#8cc3bf" stroke-width="0"/><path d="M64.27265,33.0153l-6.98704,-6.23458l8.3927,-9.40565l6.98704,6.23459z" data-paper-data="{&quot;index&quot;:null}" fill="#8cc3bf" stroke-width="0"/><path d="M69.73008,55.35351l-8.74094,4.97148l-6.69237,-11.76664l8.74094,-4.97148z" data-paper-data="{&quot;index&quot;:null}" fill="#8cc3bf" stroke-width="0"/><path d="M103.76738,43.98355l8.13697,4.62794l-6.22995,10.95358l-8.13698,-4.62794z" data-paper-data="{&quot;index&quot;:null}" fill="#8cc3bf" stroke-width="0"/><path d="M76.29476,68.06329v-7.53735h13.88462v7.53735z" fill="#8cc3bf" stroke-width="0"/></g><g stroke="#9ad6d2" stroke-miterlimit="10"><path d="M435.60931,334.26372c0,10.73559 -8.88051,19.43846 -19.83518,19.43846c-10.95467,0 -19.83517,-8.70287 -19.83517,-19.43846c0,-10.73559 8.88051,-19.43847 19.83517,-19.43847c10.95467,0 19.83518,8.70292 19.83518,19.43847z" fill="none" stroke-width="6.5"/><path d="M408.40354,315.84853v-8.33075h13.88463v8.33075z" fill="#9ad6d2" stroke-width="0"/><path d="M425.52086,317.43656l6.98703,-6.23458l8.3927,9.40565l-6.98703,6.23458z" fill="#9ad6d2" stroke-width="0"/><path d="M396.77815,325.65214l-6.98704,-6.23458l8.3927,-9.40565l6.98704,6.23458z" data-paper-data="{&quot;index&quot;:null}" fill="#9ad6d2" stroke-width="0"/><path d="M402.23558,347.99039l-8.74094,4.97148l-6.69237,-11.76664l8.74093,-4.97147z" data-paper-data="{&quot;index&quot;:null}" fill="#9ad6d2" stroke-width="0"/><path d="M436.27288,336.62039l8.13698,4.62794l-6.22995,10.95358l-8.13698,-4.62794z" data-paper-data="{&quot;index&quot;:null}" fill="#9ad6d2" stroke-width="0"/><path d="M408.80026,360.70013v-7.53735h13.88462v7.53735z" fill="#9ad6d2" stroke-width="0"/></g><g stroke="#9ad6d2" stroke-miterlimit="10"><path d="M469.60381,296.62684c0,10.73559 -8.88051,19.43846 -19.83518,19.43846c-10.95467,0 -19.83518,-8.70287 -19.83518,-19.43846c0,-10.73559 8.88051,-19.43847 19.83518,-19.43847c10.95467,0 19.83518,8.70292 19.83518,19.43847z" fill="none" stroke-width="6.5"/><path d="M442.39804,278.21165v-8.33074h13.88463v8.33074z" fill="#9ad6d2" stroke-width="0"/><path d="M459.51536,279.79993l6.98703,-6.23458l8.3927,9.40565l-6.98703,6.23458z" fill="#9ad6d2" stroke-width="0"/><path d="M430.77265,288.0153l-6.98704,-6.23459l8.3927,-9.40565l6.98703,6.23458z" data-paper-data="{&quot;index&quot;:null}" fill="#9ad6d2" stroke-width="0"/><path d="M436.23008,310.35351l-8.74094,4.97148l-6.69237,-11.76664l8.74093,-4.97148z" data-paper-data="{&quot;index&quot;:null}" fill="#9ad6d2" stroke-width="0"/><path d="M470.26738,298.98355l8.13698,4.62794l-6.22996,10.95358l-8.13698,-4.62794z" data-paper-data="{&quot;index&quot;:null}" fill="#9ad6d2" stroke-width="0"/><path d="M442.79476,323.06328v-7.53735h13.88462v7.53735z" fill="#9ad6d2" stroke-width="0"/></g><path d="M406.25,360.25l95,-363l58,0.5l-95,362.5z" fill="#a3e2de" stroke="none" stroke-width="0" stroke-miterlimit="10"/><path d="M281.75,359.75l95,-363h58l-95,363z" fill="#a3e2de" stroke="none" stroke-width="0" stroke-miterlimit="10"/><g stroke="#8bc1bd" stroke-miterlimit="10"><path d="M430.60931,329.26372c0,10.73559 -8.88051,19.43846 -19.83518,19.43846c-10.95467,0 -19.83517,-8.70287 -19.83517,-19.43846c0,-10.73559 8.88051,-19.43847 19.83517,-19.43847c10.95467,0 19.83518,8.70292 19.83518,19.43847z" fill="none" stroke-width="6.5"/><path d="M403.40354,310.84853v-8.33075h13.88463v8.33075z" fill="#8cc3bf" stroke-width="0"/><path d="M420.52086,312.43656l6.98703,-6.23458l8.3927,9.40565l-6.98703,6.23458z" fill="#8cc3bf" stroke-width="0"/><path d="M391.77815,320.65214l-6.98704,-6.23458l8.3927,-9.40565l6.98704,6.23458z" data-paper-data="{&quot;index&quot;:null}" fill="#8cc3bf" stroke-width="0"/><path d="M397.23558,342.99039l-8.74094,4.97148l-6.69237,-11.76664l8.74093,-4.97147z" data-paper-data="{&quot;index&quot;:null}" fill="#8cc3bf" stroke-width="0"/><path d="M431.27288,331.62039l8.13698,4.62794l-6.22995,10.95358l-8.13698,-4.62794z" data-paper-data="{&quot;index&quot;:null}" fill="#8cc3bf" stroke-width="0"/><path d="M403.80026,355.70013v-7.53735h13.88462v7.53735z" fill="#8cc3bf" stroke-width="0"/></g><g stroke="#8bc1bd" stroke-miterlimit="10"><path d="M464.60381,291.62684c0,10.73559 -8.88051,19.43846 -19.83518,19.43846c-10.95467,0 -19.83518,-8.70287 -19.83518,-19.43846c0,-10.73559 8.88051,-19.43847 19.83518,-19.43847c10.95467,0 19.83518,8.70292 19.83518,19.43847z" fill="none" stroke-width="6.5"/><path d="M437.39804,273.21165v-8.33074h13.88463v8.33074z" fill="#8cc3bf" stroke-width="0"/><path d="M454.51536,274.79993l6.98703,-6.23458l8.3927,9.40565l-6.98704,6.23458z" fill="#8cc3bf" stroke-width="0"/><path d="M425.77265,283.0153l-6.98704,-6.23458l8.3927,-9.40565l6.98703,6.23459z" data-paper-data="{&quot;index&quot;:null}" fill="#8cc3bf" stroke-width="0"/><path d="M431.23008,305.35351l-8.74094,4.97148l-6.69237,-11.76664l8.74093,-4.97148z" data-paper-data="{&quot;index&quot;:null}" fill="#8cc3bf" stroke-width="0"/><path d="M465.26738,293.98355l8.13698,4.62794l-6.22996,10.95358l-8.13698,-4.62794z" data-paper-data="{&quot;index&quot;:null}" fill="#8cc3bf" stroke-width="0"/><path d="M437.79476,318.06328v-7.53735h13.88462v7.53735z" fill="#8cc3bf" stroke-width="0"/></g><g stroke="none" stroke-width="0" stroke-miterlimit="4"><g fill="#9ad6d2"><path d="M121.8197,143.59454l5.65665,0.86883l3.53078,10.58311l-4.26097,0.53608l-0.60079,-2.80059l-3.32744,0.53608l-0.60079,2.13511h-0.06469l-3.92823,-0.86883zM123.6128,149.99062h2.0057l-0.73943,-2.93l-0.8596,0.33275z"/><path d="M177.92926,146.59734l5.49028,0.93354l2.16284,1.98721l-0.99823,3.33669l0.99823,2.32922l-2.8653,0.59154l-0.52684,-0.70246l-4.26097,0.75792l-1.40491,-3.79883l3.09637,-1.636l2.33846,0.12015l0.05546,-1.2293l-4.78782,0.35122l-0.05546,-0.12015l0.75792,-2.92076zM179.85179,152.03216l0.59154,2.16284h0.05546l1.16461,-0.99823l0.12015,-0.98898z"/><path d="M235.64987,147.02005l4.36264,0.89655v0.11091l-0.89655,2.62498h-0.05546l-2.23679,-0.72094l-1.11839,2.0057l1.84858,1.79312l2.18131,-2.01495l1.67297,2.45861l-3.1888,2.07041l-4.75085,-1.06293l-1.45114,-4.69539l3.63245,-3.46607z"/><path d="M191.82958,143.79673h0.05546l4.17778,0.54533l1.2293,10.87888l-3.68791,0.61002l-0.05546,-0.12015v-0.98898l-4.36264,1.10915l-2.94848,-4.23324l2.20905,-3.80807l3.87277,0.18486zM190.11041,150.4239l1.16461,3.13334l1.83933,-1.59902l-0.42518,-1.65448h-2.45861z"/><path d="M354.81737,146.08841l4.63993,2.51406l-0.71169,2.89302h-5.8415v0.10166l1.636,2.02419l2.56952,-1.31248l1.09066,2.29223l-4.85251,0.71169l-3.7711,-2.56952l0.71169,-4.79706zM354.21658,148.32518l-0.97975,1.46962l1.09066,0.38821l1.58054,0.26804l0.43441,-0.70246l-0.60079,-0.82262z"/><path d="M269.29505,145.94151l3.92823,0.34199l0.67474,10.88813l-4.26097,2.56952l-4.52902,-1.62675l1.69144,-2.16284l2.83758,1.22005l0.87808,-1.15536l-0.47139,-1.69144l-5.00964,0.81337l-2.63423,-4.39038l2.77287,-4.26097h0.06469l3.99292,0.87808v-0.20335l-0.06469,-1.15536l0.12941,-0.06469zM266.39278,149.86049l0.81337,3.05016l2.63423,-1.01672l-0.34199,-1.89479l-0.33275,-0.06469h-0.40668l-2.36617,-0.07394z"/><path d="M244.73408,143.30442l3.63245,0.57307l-0.89655,2.61573l-2.8653,-0.37896zM243.71736,147.70402h0.05546l4.21477,0.89655l-1.46962,7.64387h-2.93l0.12938,-8.54044z"/><path d="M308.77601,142.96628l4.15007,0.05546l0.73019,11.35026l-3.29046,0.61002l-0.91506,-6.95065l-0.67474,-5.0651z"/><path d="M228.37589,147.01081l3.07788,2.11662l-0.4529,6.15576l-3.26274,0.1941l-0.06475,-0.12941l-0.32349,-4.93571l-0.1295,-0.06469l-2.43089,0.57307l0.18487,4.55674l-3.01319,0.76717l-1.79312,-8.33709l4.23323,-0.50836v0.06469l0.1941,1.92252l3.78034,-2.37542z"/><path d="M159.34352,146.60659l3.72487,1.14612l2.17207,3.15182l-1.43265,3.95596l-4.35339,0.9705l-3.66018,-2.23679l-0.12019,-4.12234l-0.05545,-0.16638l3.66941,-2.69892h0.05545zM159.16788,149.98948l-0.16634,2.68967l2.06116,0.46214l0.73943,-2.46785l-2.63423,-0.73943v0.05546z"/><path d="M148.14736,143.80598l4.06686,0.72094l-0.38821,3.08713l2.56042,0.00001v0l-0.46223,3.08713l-2.49558,-0.12941l-0.1941,5.1945l-3.67858,-0.26804l0.32354,-5.24996l-2.49555,-0.33275l0.33273,-3.08713l2.43089,0.46214v-0.79489z"/><path d="M137.33123,146.59734l-1.18304,6.73807h0.06475l3.17957,-0.93354v-3.74337l4.11312,0.12015l-0.93348,6.6179l-2.86528,0.43441l-0.24956,-0.74868l-4.18704,0.74868l-2.92998,-2.24602l0.62851,-6.80276h0.05545z"/><path d="M201.16201,147.01081l2.4124,5.3886l1.30325,-4.51978l3.53078,0.55457l-2.66196,7.19096l-3.66018,0.61927l-4.51976,-6.69184l3.59547,-2.5418z"/><path d="M174.59156,152.10167l-6.51623,0.47605l-0.38821,-2.70816l4.78782,-0.09247h1.01672l1.22005,0.00537z"/><path d="M211.00736,147.01081l5.49028,0.93354l2.16284,1.98721l-0.99823,3.33669l0.99823,2.32922l-2.8653,0.59154l-0.52684,-0.70246l-4.26097,0.75792l-1.40491,-3.79883l3.09637,-1.636l2.33846,0.12015l0.05546,-1.2293l-4.78782,0.35122l-0.05546,-0.12015l0.75792,-2.92076zM212.92987,152.44564l0.59154,2.16284h0.05546l1.16461,-0.99823l0.12015,-0.98898z"/><path d="M258.14616,147.01081l3.07788,2.11662l-0.4529,6.15576l-3.26274,0.1941l-0.06475,-0.12941l-0.32349,-4.93571l-0.1295,-0.06469l-2.43089,0.57307l0.18487,4.55674l-3.01319,0.76717l-1.79312,-8.33709l4.23323,-0.50836v0.06469l0.1941,1.92252l3.78034,-2.37542z"/><path d="M299.65664,146.10116l5.49028,0.93354l2.16284,1.98721l-0.99823,3.33669l0.99823,2.32922l-2.8653,0.59154l-0.52684,-0.70246l-4.26097,0.75792l-1.40491,-3.79883l3.09637,-1.636l2.33846,0.12015l0.05546,-1.2293l-4.78782,0.35122l-0.05546,-0.12015l0.75792,-2.92076zM301.57915,151.53598l0.59154,2.16284h0.05546l1.16461,-0.99823l0.12015,-0.98898z"/><path d="M286.10214,143.21787h0.05546l4.17778,0.54533l1.2293,10.87888l-3.68791,0.61002l-0.05546,-0.12015v-0.98898l-4.36264,1.10915l-2.94848,-4.23324l2.20905,-3.80807l3.87277,0.18486zM284.38297,149.84502l1.16461,3.13334l1.83933,-1.59902l-0.42518,-1.65448h-2.45861z"/><path d="M332.14342,146.27229l3.92823,0.34199l0.67474,10.88813l-4.26097,2.56952l-4.52902,-1.62675l1.69144,-2.16284l2.83758,1.22005l0.87808,-1.15536l-0.47139,-1.69144l-5.00964,0.81337l-2.63423,-4.39038l2.77287,-4.26097h0.06469l3.99292,0.87808v-0.20335l-0.06469,-1.15536l0.12941,-0.06469zM329.24117,150.19127l0.81337,3.05016l2.63423,-1.01672l-0.34199,-1.89479l-0.33275,-0.06469h-0.40668l-2.36617,-0.07394z"/><path d="M294.35121,142.14667l3.63245,0.57307l-0.89655,2.61573l-2.8653,-0.37896zM293.3345,146.5463h0.05546l4.21477,0.89655l-1.46962,7.64387h-2.93l0.12938,-8.54044z"/><path d="M318.94531,146.27581l3.72487,1.14612l2.17207,3.15182l-1.43265,3.95596l-4.35339,0.9705l-3.66018,-2.23679l-0.12019,-4.12234l-0.05545,-0.16638l3.66941,-2.69892h0.05545zM318.76967,149.6587l-0.16634,2.68967l2.06116,0.46214l0.73943,-2.46785l-2.63423,-0.73943v0.05546z"/><path d="M342.25001,145.93578l-1.18304,6.73807h0.06475l3.17957,-0.93354v-3.74337l4.11312,0.12015l-0.93348,6.6179l-2.86528,0.43441l-0.24956,-0.74868l-4.18704,0.74868l-2.92998,-2.24602l0.62851,-6.80276h0.05545z"/></g><g fill="#000000"><path d="M119.6145,141.38932l5.65665,0.86883l3.53078,10.58311l-4.26097,0.53608l-0.60079,-2.80059l-3.32744,0.53608l-0.60079,2.13511h-0.06469l-3.92823,-0.86883zM121.4076,147.78541h2.0057l-0.73943,-2.93l-0.8596,0.33275z"/><path d="M175.72405,144.39214l5.49028,0.93354l2.16284,1.98721l-0.99823,3.33669l0.99823,2.32922l-2.8653,0.59154l-0.52684,-0.70246l-4.26097,0.75792l-1.40491,-3.79883l3.09637,-1.636l2.33846,0.12015l0.05546,-1.2293l-4.78782,0.35122l-0.05546,-0.12015l0.75792,-2.92076zM177.64659,149.82696l0.59154,2.16284h0.05546l1.16461,-0.99823l0.12015,-0.98898z"/><path d="M233.44467,144.81485l4.36264,0.89655v0.11091l-0.89655,2.62498h-0.05546l-2.23679,-0.72094l-1.11839,2.0057l1.84858,1.79312l2.18131,-2.01495l1.67297,2.45861l-3.1888,2.07041l-4.75085,-1.06293l-1.45114,-4.69539l3.63245,-3.46607z"/><path d="M189.62437,141.59153h0.05546l4.17778,0.54533l1.2293,10.87888l-3.68791,0.61002l-0.05546,-0.12015v-0.98898l-4.36264,1.10915l-2.94848,-4.23324l2.20905,-3.80807l3.87277,0.18486zM187.90521,148.21868l1.16461,3.13334l1.83933,-1.59902l-0.42518,-1.65448h-2.45861z"/><path d="M352.61217,143.88321l4.63993,2.51406l-0.71169,2.89302h-5.8415v0.10166l1.636,2.02419l2.56952,-1.31248l1.09066,2.29223l-4.85251,0.71169l-3.7711,-2.56952l0.71169,-4.79706zM352.01138,146.11998l-0.97975,1.46962l1.09066,0.38821l1.58054,0.26804l0.43441,-0.70246l-0.60079,-0.82262z"/><path d="M267.08985,143.7363l3.92823,0.34199l0.67474,10.88813l-4.26097,2.56952l-4.52902,-1.62675l1.69144,-2.16284l2.83758,1.22005l0.87808,-1.15536l-0.47139,-1.69144l-5.00964,0.81337l-2.63423,-4.39038l2.77287,-4.26097h0.06469l3.99292,0.87808v-0.20335l-0.06469,-1.15536l0.12941,-0.06469zM264.18758,147.65529l0.81337,3.05016l2.63423,-1.01672l-0.34199,-1.89479l-0.33275,-0.06469h-0.40668l-2.36617,-0.07394z"/><path d="M242.52888,141.09921l3.63245,0.57307l-0.89655,2.61573l-2.8653,-0.37896zM241.51216,145.49882h0.05546l4.21477,0.89655l-1.46962,7.64387h-2.93l0.12938,-8.54044z"/><path d="M306.5708,140.76108l4.15007,0.05546l0.73019,11.35026l-3.29046,0.61002l-0.91506,-6.95065l-0.67474,-5.0651z"/><path d="M226.17067,144.8056l3.07788,2.11662l-0.4529,6.15576l-3.26274,0.1941l-0.06475,-0.12941l-0.32349,-4.93571l-0.1295,-0.06469l-2.43089,0.57307l0.18487,4.55674l-3.01319,0.76717l-1.79312,-8.33709l4.23323,-0.50836v0.06469l0.1941,1.92252l3.78034,-2.37542z"/><path d="M157.13832,144.40138l3.72487,1.14612l2.17207,3.15182l-1.43265,3.95596l-4.35339,0.9705l-3.66018,-2.23679l-0.12019,-4.12234l-0.05545,-0.16638l3.66941,-2.69892h0.05545zM156.96268,147.78427l-0.16634,2.68967l2.06116,0.46214l0.73943,-2.46785l-2.63423,-0.73943v0.05546z"/><path d="M145.94216,141.60078l4.06686,0.72094l-0.38821,3.08713l2.56042,0.00001v0l-0.46223,3.08713l-2.49558,-0.12941l-0.1941,5.1945l-3.67858,-0.26804l0.32354,-5.24996l-2.49555,-0.33275l0.33273,-3.08713l2.43089,0.46214v-0.79489z"/><path d="M135.12603,144.39214l-1.18304,6.73807h0.06475l3.17957,-0.93354v-3.74337l4.11312,0.12015l-0.93348,6.6179l-2.86528,0.43441l-0.24956,-0.74868l-4.18704,0.74868l-2.92998,-2.24602l0.62851,-6.80276h0.05545z"/><path d="M198.95681,144.8056l2.4124,5.3886l1.30325,-4.51978l3.53078,0.55457l-2.66196,7.19096l-3.66018,0.61927l-4.51976,-6.69184l3.59547,-2.5418z"/><path d="M172.38635,149.89646l-6.51623,0.47605l-0.38821,-2.70816l4.78782,-0.09247h1.01672l1.22005,0.00537z"/><path d="M208.80215,144.8056l5.49028,0.93354l2.16284,1.98721l-0.99823,3.33669l0.99823,2.32922l-2.8653,0.59154l-0.52684,-0.70246l-4.26097,0.75792l-1.40491,-3.79883l3.09637,-1.636l2.33846,0.12015l0.05546,-1.2293l-4.78782,0.35122l-0.05546,-0.12015l0.75792,-2.92076zM210.72467,150.24042l0.59154,2.16284h0.05546l1.16461,-0.99823l0.12015,-0.98898z"/><path d="M255.94095,144.8056l3.07788,2.11662l-0.4529,6.15576l-3.26274,0.1941l-0.06475,-0.12941l-0.32349,-4.93571l-0.1295,-0.06469l-2.43089,0.57307l0.18487,4.55674l-3.01319,0.76717l-1.79312,-8.33709l4.23323,-0.50836v0.06469l0.1941,1.92252l3.78034,-2.37542z"/><path d="M297.45143,143.89596l5.49028,0.93354l2.16284,1.98721l-0.99823,3.33669l0.99823,2.32922l-2.8653,0.59154l-0.52684,-0.70246l-4.26097,0.75792l-1.40491,-3.79883l3.09637,-1.636l2.33846,0.12015l0.05546,-1.2293l-4.78782,0.35122l-0.05546,-0.12015l0.75792,-2.92076zM299.37395,149.33078l0.59154,2.16284h0.05546l1.16461,-0.99823l0.12015,-0.98898z"/><path d="M283.89694,141.01267h0.05546l4.17778,0.54533l1.2293,10.87888l-3.68791,0.61002l-0.05546,-0.12015v-0.98898l-4.36264,1.10915l-2.94848,-4.23324l2.20905,-3.80807l3.87277,0.18486zM282.17777,147.63982l1.16461,3.13334l1.83933,-1.59902l-0.42518,-1.65448h-2.45861z"/><path d="M329.93822,144.06708l3.92823,0.34199l0.67474,10.88813l-4.26097,2.56952l-4.52902,-1.62675l1.69144,-2.16284l2.83758,1.22005l0.87808,-1.15536l-0.47139,-1.69144l-5.00964,0.81337l-2.63423,-4.39038l2.77287,-4.26097h0.06469l3.99292,0.87808v-0.20335l-0.06469,-1.15536l0.12941,-0.06469zM327.03595,147.98607l0.81337,3.05016l2.63423,-1.01672l-0.34199,-1.89479l-0.33275,-0.06469h-0.40668l-2.36617,-0.07394z"/><path d="M292.14601,139.94147l3.63245,0.57307l-0.89655,2.61573l-2.8653,-0.37896zM291.12929,144.34109h0.05546l4.21477,0.89655l-1.46962,7.64387h-2.93l0.12938,-8.54044z"/><path d="M316.7401,144.0706l3.72487,1.14612l2.17207,3.15182l-1.43265,3.95596l-4.35339,0.9705l-3.66018,-2.23679l-0.12019,-4.12234l-0.05545,-0.16638l3.66941,-2.69892h0.05545zM316.56446,147.45349l-0.16634,2.68967l2.06116,0.46214l0.73943,-2.46785l-2.63423,-0.73943v0.05546z"/><path d="M340.0448,143.73057l-1.18304,6.73807h0.06475l3.17957,-0.93354v-3.74337l4.11312,0.12015l-0.93348,6.6179l-2.86528,0.43441l-0.24956,-0.74868l-4.18704,0.74868l-2.92998,-2.24602l0.62851,-6.80276h0.05545z"/></g></g><g fill="#4e6d6b" stroke="none" stroke-width="0" stroke-miterlimit="4"><path d="M21.118,340.82308l-3.71078,4.05727l5.94619,2.36954l-3.28605,4.05727l-4.25845,-3.56548l-2.83338,5.17498l-4.577,-1.78274l3.84491,-5.06879l-5.73383,-2.5819l2.66014,-4.26963l5.1638,3.56548l2.55395,-4.40376z"/><path d="M76.82158,343.1289l5.61088,3.04016l-0.86063,3.49842h-7.0639v0.12294l1.97834,2.44778l3.10722,-1.58714l1.31889,2.77191l-5.86795,0.86063l-4.56024,-3.10722l0.86063,-5.80089zM76.09507,345.83374l-1.18477,1.77715l1.31889,0.46944l1.91128,0.32413l0.52532,-0.84946l-0.72651,-0.99476z"/><path d="M100.50229,338.46232l4.39258,0.69298l-1.08417,3.1631l-3.46489,-0.45826zM99.27281,343.7826h0.06707l5.09674,1.08417l-1.77715,9.24342h-3.54313l0.15646,-10.3276z"/><path d="M52.24293,342.9555l4.50434,1.38596l2.6266,3.81137l-1.73244,4.78378l-5.26439,1.17359l-4.42611,-2.70485l-0.14535,-4.98497l-0.06705,-0.20119l4.43727,-3.2637h0.06705zM52.03054,347.0463l-0.20115,3.25252l2.49248,0.55885l0.89416,-2.98427l-3.18547,-0.89416v0.06707z"/><path d="M38.70387,338.56885l4.91789,0.87181l-0.46944,3.73313l3.09621,0.00002v0l-0.55896,3.73314l-3.01781,-0.15649l-0.23472,6.2815l-4.44837,-0.32414l0.39125,-6.34857l-3.01778,-0.40237l0.40236,-3.73313l2.93957,0.55885v-0.96123z"/><path d="M91.83415,342.55119h0.04471l3.21899,1.83303v0.1006l-2.83897,3.06251l4.56024,1.82186l-2.52601,3.1184l-3.2637,-2.73838l-2.15717,3.96785h-0.04471l-3.48724,-1.34125v-0.05589l2.95074,-3.85608l-4.40376,-1.98951l2.03422,-3.27488l3.97903,2.73838z"/><path d="M110.70387,339.56885l4.91789,0.87181l-0.46944,3.73313l3.09621,0.00002v0l-0.55896,3.73314l-3.01781,-0.15649l-0.23472,6.2815l-4.44837,-0.32414l0.39125,-6.34857l-3.01778,-0.40237l0.40236,-3.73313l2.93957,0.55885v-0.96123z"/></g></g></g></svg>