<svg version="1.1" xmlns="http://www.w3.org/2000/svg" xmlns:xlink="http://www.w3.org/1999/xlink" width="78.9645" height="78.9645" viewBox="0,0,78.9645,78.9645"><g transform="translate(-200.51775,-140.51775)"><g data-paper-data="{&quot;isPaintingLayer&quot;:true}" fill-rule="nonzero" stroke="none" stroke-linecap="butt" stroke-linejoin="miter" stroke-miterlimit="10" stroke-dasharray="" stroke-dashoffset="0" style="mix-blend-mode: normal"><path d="M200.51775,180c0,-21.80544 17.67681,-39.48225 39.48225,-39.48225c21.80545,0 39.48225,17.67681 39.48225,39.48225c0,21.80544 -17.67681,39.48225 -39.48225,39.48225c-21.80544,0 -39.48225,-17.67681 -39.48225,-39.48225z" fill="#fffdf7" stroke-width="0"/><g><path d="M234.10374,181.39664l5.13887,2.98181l-13.32299,25.50401l-5.70985,-3.67968z" fill="#af812c" stroke-width="0"/><path d="M238.60818,184.50534c0,0 -0.19908,0.68911 -0.06344,0.82476c0.24265,0.24265 1.90328,0 1.90328,0l-14.14775,25.56745c0,0 -0.14887,-0.39699 -0.2458,-0.65547c-0.14038,-0.37434 -0.51551,-1.3747 -0.51551,-1.3747z" fill="#111111" stroke-width="0"/><path d="M233.02522,180.95254c0,0 -0.19909,0.68911 -0.06345,0.82476c0.24265,0.24265 1.45919,0.82475 1.45919,0.82475c0,0 -11.24797,20.41299 -12.93671,23.47773c-0.12267,0.22263 -1.19686,-0.5175 -1.19686,-0.5175l5.3248,5.03725l1.25907,-0.39987l-7.16904,-3.9969c0,0 0.41064,-0.67459 0.61863,-1.06432c1.22732,-2.29974 12.70436,-24.18591 12.70436,-24.18591z" fill="#111111" stroke-width="0"/><path d="M238.39325,150.58805c0,0 13.09047,5.8443 16.66083,8.22111c3.75821,2.50187 5.35381,6.43417 5.35381,6.43417l-11.29282,21.31678c0,0 -9.85556,-0.28048 -12.26613,-2.58147c-3.02965,-2.89194 -10.95393,-9.47266 -10.95393,-9.47266c0,0 0.17237,-9.86561 2.29239,-13.92271c2.04321,-3.91012 10.20584,-9.99523 10.20584,-9.99523z" fill="#d7aa4b" stroke-width="0"/><path d="M225.76813,175.64795c-0.26329,-0.26329 -2.31664,-8.17235 0.14618,-13.78645c2.78111,-6.33965 10.15144,-10.46859 10.44876,-10.76591c0.56061,-0.56061 2.67497,0.01037 3.23559,0.57098c0.56061,0.56061 -0.2007,0.07381 -0.76131,0.63443c-0.10778,0.10778 -1.65708,0.75175 -3.11971,1.61179c-0.62468,0.36732 -1.44143,0.86398 -2.14665,1.46212c-0.70554,0.59843 -0.13535,1.93286 -0.79582,2.70655c-0.91729,1.07455 -2.39534,1.02238 -3.0814,2.30649c-0.30328,0.56766 0.43336,1.54902 0.17754,2.17105c-0.48001,1.16715 -1.80824,1.76011 -2.20742,2.9763c-0.43113,1.31353 1.08806,3.35674 0.84555,4.62003c-0.2668,1.38986 -1.88555,2.36401 -1.33043,3.22193c1.2542,1.93829 -1.31577,2.36581 -1.41089,2.27069z" fill="#dcc869" stroke-width="0"/><path d="M250.57061,151.42167l4.06855,4.58356l-3.03854,3.75954l-6.18007,-2.57503l1.04926,-3.88307z" fill="#af812c" stroke-width="0"/><path d="M249.20585,151.96243l4.37755,2.72953l-1.77677,1.10726l-4.17155,-2.62653z" fill="#79501f" stroke-width="0"/><path d="M254.94106,168.82402c-0.36181,-0.36181 -0.42733,-1.54377 0.55601,-2.4396c0.56273,-0.51265 2.05775,-0.68916 2.5469,-1.17831c1.34393,-1.34393 2.89456,-1.97226 3.46342,-1.40339c0.56886,0.56886 4.03484,0.80622 2.69091,2.15015c-1.01935,1.01935 -12.77885,23.06 -14.65519,23.41079c-0.11287,0.0211 -1.65019,-2.21859 -1.27198,-3.40208c0.32928,-1.03036 -0.82582,-2.19472 -0.16796,-3.64368c0.25347,-0.55827 0.86137,-0.86756 0.98963,-1.64057c0.22962,-1.38384 -0.05598,-3.34544 0.60336,-4.42224c0.50147,-0.81895 1.57149,-1.27263 1.98472,-2.13401c0.65414,-1.36357 0.63183,-3.08959 1.46712,-3.89581c1.5106,-1.45803 1.82699,-1.36732 1.79306,-1.40125z" fill="#dcc869" stroke-width="0"/><path d="M254.51536,174.73274c1.76754,-2.80868 6.92281,-10.82974 9.28322,-9.08081c1.43412,1.0626 -1.40138,10.66755 -3.16892,13.47624c-1.76754,2.80868 -8.44208,10.28899 -9.95273,9.33832c-1.51065,-0.95066 2.07089,-10.92506 3.83843,-13.73374z" fill="#f0dc82" stroke-width="0"/><path d="M265.62591,164.53191c0,0 1.04653,2.9444 0.52733,5.42503c-0.48922,2.33737 -3.55793,9.05456 -3.55793,9.05456c0,0 -2.68118,4.98747 -4.29469,6.91626c-1.64113,1.96181 -5.47061,4.75721 -5.47061,4.75721c0,0 -2.27556,0.48847 -3.96501,-0.36063c-0.98979,-0.49746 -1.76148,-2.4518 -1.80151,-2.5807c-0.06166,-0.19851 1.83352,-0.74938 1.83352,-0.74938c0,0 0.72974,1.18209 1.04518,1.221c1.1443,0.14115 2.08202,-0.12487 2.08202,-0.12487c0,0 1.47392,-0.52385 5.38244,-5.2732c1.88063,-2.2852 2.94123,-4.95713 3.46337,-6.25818c0.76699,-1.91113 1.93539,-5.11799 2.33073,-7.65505c0.3342,-2.14474 -0.04421,-3.81082 -0.04421,-3.81082c0,0 -0.22587,-0.50247 -0.96994,-0.83688c-0.40478,-0.18192 -0.92495,-0.58319 -1.47429,-0.4646c-0.48967,0.10571 -1.03953,0.72497 -0.9727,0.70978c0.03826,-0.0087 -1.57039,-2.02712 -3.30309,-3.54847c-1.50932,-1.32521 -3.16868,-2.16765 -3.20169,-2.32466c-0.00055,-0.00265 -0.72506,1.41594 -0.72506,1.41594c0,0 -2.63115,0.91808 -2.73822,0.77345c-0.05781,-0.07809 -5.63448,-2.94912 -5.3303,-3.26527c0.19104,-0.19856 0.15591,-3.11726 1.27498,-2.90912c0.16084,0.02992 -0.94823,-1.09503 -2.56076,-1.34672c-1.69079,-0.2639 -2.63516,0.61153 -2.82913,0.30959c-0.02796,-0.04351 -1.60231,-2.0812 -3.77752,-1.72437c-2.21845,0.36392 -4.70438,3.40248 -4.78935,3.01599c-0.035,-0.1592 -3.04904,2.66786 -5.37724,9.45675c-2.05271,8.05455 -1.01407,10.10899 -1.16855,9.95213c-0.05884,-0.05976 0.61685,0.65342 1.4345,0.93327c0.58918,0.20165 1.31397,-0.10641 1.59881,0.25217c0.07352,0.09256 4.08403,4.51216 9.24824,6.81411c1.71546,0.76467 3.75714,1.67664 5.66054,2.22601c3.10046,0.89487 5.79147,1.21081 5.79147,1.21081c0,0 0.00642,0.73989 -0.00056,0.78414c-0.05146,0.32611 -1.86639,1.24544 -1.86639,1.24544c0,0 -5.84186,-0.82989 -11.03886,-3.5377c-4.54477,-2.36798 -8.52975,-6.66277 -8.56222,-6.62392c-0.0422,0.05051 -1.01922,0.31727 -1.73675,0.02143c-1.17605,-0.48489 -2.30638,-1.6561 -2.30638,-1.6561c0,0 -2.00711,-3.42962 0.04395,-11.07691c2.16488,-8.07164 6.63822,-11.84431 6.63822,-11.84431c0,0 1.97742,-2.7278 4.53699,-3.49212c3.55675,-1.0621 4.95556,0.05037 4.97769,0.01379c0.16601,-0.27435 1.16966,0.42882 1.58669,1.12108c0.2676,0.44421 0.03614,0.95967 0.03614,0.95967c0,0 1.67987,0.15315 2.66522,0.52073c1.06502,0.3973 3.42725,1.7551 3.42725,1.7551l-1.29237,3.42868l4.22136,1.70272l1.35054,-0.21194l2.02505,-4.18301c0,0 -1.54985,-0.85785 -2.25244,-1.19159c-0.76587,-0.3638 -2.16934,-0.90878 -2.16934,-0.90878c0,0 -0.15455,-0.08074 -0.79988,0.15837c-0.68188,0.25266 -1.06546,1.7157 -1.34783,1.26314c-0.21743,-0.34847 -1.61523,-0.59094 -1.61523,-0.59094c0,0 1.2608,-1.73381 1.93165,-2.01686c0.57561,-0.24287 1.36736,-0.22986 1.4612,-0.39565c0.45131,-0.79732 4.38098,1.43998 6.01446,2.5109c0.4253,0.27883 0.62294,0.93467 0.6482,0.89762c0.08774,-0.12869 -0.01653,0.7431 -0.47564,1.59408c-0.42119,0.7807 -0.91895,1.15355 -0.81651,1.19378c0.76513,0.30045 2.13992,0.98913 3.22901,1.91138c1.28679,1.08965 2.26653,2.41357 2.69045,2.4886c0.36064,0.06383 2.18543,-0.18798 3.03404,0.22833c1.584,0.77707 2.44097,2.71969 2.44097,2.71969z" fill="#000000" stroke-width="0"/><path d="M251.56269,181.52196c0,0 -0.41166,1.88506 -0.5277,3.69261c-0.09096,1.41681 0.17222,2.77608 0.39003,3.20897c0,0 0.21066,0.42131 -0.21065,0.63196c-0.42131,0.21065 -0.63197,-0.21065 -0.63197,-0.21065c-0.24306,-0.48881 -0.74506,-2.20648 -0.4946,-3.60224c0.35677,-1.98817 1.47489,-3.72065 1.47489,-3.72065z" fill="#000000" stroke-width="0.5"/><path d="M260.80376,165.8743c0.87128,-0.8141 2.31342,-1.2438 2.76957,-1.29533c0,0 0.39369,-0.04359 0.43728,0.3501c0.04359,0.39369 -0.3501,0.43728 -0.3501,0.43728c-0.40513,0.04382 -1.48514,0.47854 -2.44412,1.18962c-1.22345,0.90718 -2.36666,2.0585 -2.36666,2.0585c0,0 0.71294,-1.58053 1.95403,-2.74017z" data-paper-data="{&quot;index&quot;:null}" fill="#000000" stroke-width="0.5"/><path d="M248.28905,188.37124c-0.41474,0.22332 -0.63805,-0.19142 -0.63805,-0.19142l-0.23611,-0.57853c0.04295,-0.98781 0.10833,-1.66103 0.64328,-2.36609l-0.11557,-0.09126c-0.6457,-1.74384 -0.09867,-3.27158 1.27034,-4.40872c-0.25429,-0.75396 -0.50746,-1.50185 -0.48512,-2.31648c0.04054,-1.47854 1.33199,-3.79741 2.72021,-4.54718c-0.19402,-0.80194 -0.33551,-1.9077 -0.10004,-2.6581c0.39031,-1.24387 1.65443,-2.25742 2.89748,-2.64713c-0.13402,-0.46309 -0.23168,-0.98005 -0.12446,-1.44215c0.40708,-1.75445 2.64043,-2.84808 4.3573,-2.57338c0.11706,-0.32241 0.29892,-0.62789 0.53299,-0.87514c0,0 0.33308,-0.33308 0.66615,0c0.33308,0.33308 0,0.66615 0,0.66615c-0.17238,0.15704 -0.29137,0.38297 -0.34105,0.61081l0.00351,0.04274c0.02789,0.08409 0.03037,0.188 -0.01863,0.31365c-0.0269,0.08 -0.07744,0.1715 -0.17236,0.23299c-0.093,0.06436 -0.19685,0.07625 -0.28107,0.07067c-0.11097,-0.00209 -0.19505,-0.03081 -0.25876,-0.07313c-1.19867,-0.44402 -3.26926,0.48066 -3.56895,1.79132c-0.08923,0.39023 0.07059,0.88107 0.19331,1.24122l0.02484,0.05634c0.03267,0.05193 0.05785,0.11727 0.07082,0.1994c0.02065,0.13075 -0.00125,0.23055 -0.04341,0.30648c-0.04183,0.07612 -0.11465,0.1478 -0.23631,0.19994c-0.07088,0.03038 -0.13514,0.04417 -0.19303,0.04601c-1.03431,0.1917 -2.27096,1.05328 -2.60526,2.10141c-0.18514,0.58047 -0.04399,1.61514 0.09437,2.19642l0.24948,0.27271c0,0 0.30654,0.35764 -0.05109,0.66419c-0.23377,0.20037 -0.44572,0.11696 -0.56449,0.03515c-0.53757,0.19316 -0.85745,0.77277 -1.18309,1.24016c-0.42335,0.60763 -0.91612,1.35121 -1.08853,2.08434c-0.21322,0.90663 0.19944,1.86397 0.47865,2.70008l0.00991,0.02972c0.06768,0.13148 0.0594,0.24805 0.02411,0.34135c-0.0251,0.09642 -0.08561,0.19621 -0.21653,0.26438c-1.10781,0.82314 -1.65638,1.91033 -1.29998,3.27883l0.28417,0.18088c0,0 0.01984,0.01454 0.04712,0.04153c0.01104,0.00962 0.02209,0.01995 0.03314,0.031c0.33308,0.33308 0,0.66615 0,0.66615c-0.68865,0.68142 -0.67132,1.19241 -0.71224,2.13366l0.1244,0.09098c0,0 0.22332,0.41474 -0.19142,0.63806z" fill="#000000" stroke-width="0.5"/><path d="M245.04732,176.2245c0,0 -4.22623,-0.63321 -5.22222,-1.05003c-1.11218,-0.46545 -5.78129,-4.44012 -5.78129,-4.44012c0,0 4.83871,2.80718 5.77458,3.22479c1.02779,0.45863 5.22894,2.26536 5.22894,2.26536z" fill="#000000" stroke-width="0.5"/><path d="M243.34889,162.85691c-0.8029,-0.36617 -5.37244,-1.89012 -5.37244,-1.89012c0,0 5.22657,0.74915 6.16083,1.20189c0.83664,0.40543 3.73102,3.57111 3.73102,3.57111c0,0 -3.63765,-2.48074 -4.5194,-2.88288z" data-paper-data="{&quot;index&quot;:null}" fill="#000000" stroke-width="0.5"/><path d="M249.50188,161.81651c-0.06014,-0.02743 -4.13207,-2.31827 -4.13207,-2.31827c0,0 3.88204,1.34389 4.65881,1.7203c0.69561,0.33709 3.33384,2.89187 3.33384,2.89187c0,0 -3.12746,-1.95956 -3.86058,-2.29391z" data-paper-data="{&quot;index&quot;:null}" fill="#000000" stroke-width="0.5"/><path d="M244.60974,181.94699c0,0 -3.59495,-0.75068 -4.26425,-1.1374c-0.74738,-0.43184 -4.03771,-2.89149 -4.03771,-2.89149c0,0 4.18077,2.0856 4.23722,2.11999c0.68806,0.41931 4.06474,1.90891 4.06474,1.90891z" data-paper-data="{&quot;index&quot;:null}" fill="#000000" stroke-width="0.5"/><path d="M240.19854,151.60673c0.43295,0.18555 0.2474,0.6185 0.2474,0.6185l-0.17713,0.32778c-0.25559,0.25559 -0.51434,0.508 -0.77447,0.75896c-0.39888,0.15261 -0.81338,0.28507 -1.23814,0.32954c-0.24886,0.02606 -0.5553,-0.13911 -0.75046,0.01749c-0.34632,0.2779 -0.50812,0.90056 -0.95947,1.21496c-0.43856,0.30549 -1.16722,0.57619 -1.6974,0.64529c-0.31013,0.04042 -0.62428,-0.19649 -0.92947,-0.12812c-0.27628,0.0619 -0.44014,1.35927 -0.47235,1.54549c-0.16188,0.93588 -0.6562,1.77345 -1.40683,2.34046c-0.43648,0.28215 -0.88795,0.52468 -1.32471,0.8059c-0.19761,0.12724 -0.55717,0.14002 -0.59944,0.37121c-0.05217,0.28539 0.21779,0.54616 0.24578,0.83492c0.08221,0.84826 -0.18805,1.84038 -0.48995,2.62896c-0.26261,0.68595 -0.58571,0.96018 -1.17271,1.38c-0.22154,0.15844 -0.54874,0.21414 -0.68025,0.45265c-0.19473,0.35317 0.37429,1.35864 0.47356,1.68874c0.26369,1.00344 0.2281,1.81708 0.44447,2.83366c0.10624,0.49914 -1.07138,2.27087 -1.30311,2.93453c-0.14515,0.41568 0.15466,0.77045 0.24417,1.14621c0.12266,0.51494 0.09117,1.10815 0.09133,1.63359c0,0 0,0.47104 -0.47104,0.47104c-0.47104,0 -0.47104,-0.47104 -0.47104,-0.47104c0.00015,-0.44075 0.04475,-0.97245 -0.06317,-1.40495c-0.14991,-0.60076 -0.45378,-1.02098 -0.21934,-1.68633c0.30053,-0.85289 1.13318,-2.06141 1.14317,-2.29278c0.08297,-1.92165 -0.04267,-1.92345 -0.30229,-2.90866c-0.2153,-0.71971 -0.77258,-1.6123 -0.40194,-2.37981c0.30772,-0.63722 1.27441,-0.75438 1.65688,-1.31807c0.02818,-0.04153 0.27993,-0.79519 0.28956,-0.83004c0.15471,-0.55995 0.35542,-1.19673 0.29421,-1.78487c-0.02248,-0.2159 -0.25409,-1.05172 -0.21772,-1.17362c0.23487,-0.78713 1.66777,-1.29807 2.2989,-1.70691c1.19963,-0.83992 0.74054,-2.29739 1.4809,-3.37413c0.62705,-0.91195 1.70726,-0.46974 2.6754,-0.84504c0.73792,-0.28606 0.73562,-1.00657 1.29632,-1.38987c0.49427,-0.33788 1.44827,-0.17493 2.02844,-0.37397c0.2023,-0.21345 0.4081,-0.42361 0.61605,-0.63156l-0.02263,-0.03273c0,0 0.18555,-0.43295 0.6185,-0.2474z" fill="#000000" stroke-width="0.5"/></g></g></g></svg>