<svg version="1.1" xmlns="http://www.w3.org/2000/svg" xmlns:xlink="http://www.w3.org/1999/xlink" width="465.80667" height="297.10458" viewBox="0,0,465.80667,297.10458"><defs><linearGradient x1="75.23411" y1="147.59759" x2="75.23411" y2="166.09106" gradientUnits="userSpaceOnUse" id="color-1"><stop offset="0" stop-color="#d14a46"/><stop offset="1" stop-color="#f1580c"/></linearGradient><linearGradient x1="12.50437" y1="242.56383" x2="12.50437" y2="257.6692" gradientUnits="userSpaceOnUse" id="color-2"><stop offset="0" stop-color="#d14a46"/><stop offset="1" stop-color="#f1580c"/></linearGradient><linearGradient x1="30.20334" y1="240.37511" x2="30.20334" y2="257.38686" gradientUnits="userSpaceOnUse" id="color-3"><stop offset="0" stop-color="#d14a46"/><stop offset="1" stop-color="#f1580c"/></linearGradient><linearGradient x1="47.89893" y1="240.58179" x2="47.89893" y2="258.40894" gradientUnits="userSpaceOnUse" id="color-4"><stop offset="0" stop-color="#d14a46"/><stop offset="1" stop-color="#f1580c"/></linearGradient><linearGradient x1="65.40873" y1="240.65745" x2="65.40873" y2="257.70421" gradientUnits="userSpaceOnUse" id="color-5"><stop offset="0" stop-color="#d14a46"/><stop offset="1" stop-color="#f1580c"/></linearGradient><linearGradient x1="82.00091" y1="242.55141" x2="82.00091" y2="257.51899" gradientUnits="userSpaceOnUse" id="color-6"><stop offset="0" stop-color="#d14a46"/><stop offset="1" stop-color="#f1580c"/></linearGradient><linearGradient x1="96.53933" y1="240.29605" x2="96.53933" y2="257.32813" gradientUnits="userSpaceOnUse" id="color-7"><stop offset="0" stop-color="#d14a46"/><stop offset="1" stop-color="#f1580c"/></linearGradient><linearGradient x1="112.63685" y1="240.23168" x2="112.63685" y2="258.18645" gradientUnits="userSpaceOnUse" id="color-8"><stop offset="0" stop-color="#d14a46"/><stop offset="1" stop-color="#f1580c"/></linearGradient><linearGradient x1="130.59332" y1="241.15325" x2="130.59332" y2="257.93234" gradientUnits="userSpaceOnUse" id="color-9"><stop offset="0" stop-color="#d14a46"/><stop offset="1" stop-color="#f1580c"/></linearGradient><linearGradient x1="143.8019" y1="242.90152" x2="143.8019" y2="257.26601" gradientUnits="userSpaceOnUse" id="color-10"><stop offset="0" stop-color="#d14a46"/><stop offset="1" stop-color="#f1580c"/></linearGradient><linearGradient x1="155.09732" y1="241.24924" x2="155.09732" y2="258.34569" gradientUnits="userSpaceOnUse" id="color-11"><stop offset="0" stop-color="#d14a46"/><stop offset="1" stop-color="#f1580c"/></linearGradient><linearGradient x1="172.21467" y1="240.48579" x2="172.21467" y2="257.51899" gradientUnits="userSpaceOnUse" id="color-12"><stop offset="0" stop-color="#d14a46"/><stop offset="1" stop-color="#f1580c"/></linearGradient><linearGradient x1="188.44037" y1="241.31249" x2="188.44037" y2="257.67823" gradientUnits="userSpaceOnUse" id="color-13"><stop offset="0" stop-color="#d14a46"/><stop offset="1" stop-color="#f1580c"/></linearGradient><linearGradient x1="206.08287" y1="240.89914" x2="206.08287" y2="258.18645" gradientUnits="userSpaceOnUse" id="color-14"><stop offset="0" stop-color="#d14a46"/><stop offset="1" stop-color="#f1580c"/></linearGradient><linearGradient x1="225.24043" y1="240.89914" x2="225.24043" y2="258.18645" gradientUnits="userSpaceOnUse" id="color-15"><stop offset="0" stop-color="#d14a46"/><stop offset="1" stop-color="#f1580c"/></linearGradient><linearGradient x1="243.3375" y1="242.49268" x2="243.3375" y2="258.51623" gradientUnits="userSpaceOnUse" id="color-16"><stop offset="0" stop-color="#d14a46"/><stop offset="1" stop-color="#f1580c"/></linearGradient><linearGradient x1="260.2781" y1="240.27008" x2="260.2781" y2="257.28069" gradientUnits="userSpaceOnUse" id="color-17"><stop offset="0" stop-color="#d14a46"/><stop offset="1" stop-color="#f1580c"/></linearGradient><linearGradient x1="277.83646" y1="240.9398" x2="277.83646" y2="259.75176" gradientUnits="userSpaceOnUse" id="color-18"><stop offset="0" stop-color="#d14a46"/><stop offset="1" stop-color="#f1580c"/></linearGradient><linearGradient x1="296.06567" y1="240.37511" x2="296.06567" y2="258.19888" gradientUnits="userSpaceOnUse" id="color-19"><stop offset="0" stop-color="#d14a46"/><stop offset="1" stop-color="#f1580c"/></linearGradient><linearGradient x1="312.98029" y1="240.7094" x2="312.98029" y2="257.7731" gradientUnits="userSpaceOnUse" id="color-20"><stop offset="0" stop-color="#d14a46"/><stop offset="1" stop-color="#f1580c"/></linearGradient><linearGradient x1="329.96324" y1="241.15325" x2="329.96324" y2="257.36088" gradientUnits="userSpaceOnUse" id="color-21"><stop offset="0" stop-color="#d14a46"/><stop offset="1" stop-color="#f1580c"/></linearGradient><linearGradient x1="347.72489" y1="242.45654" x2="347.72489" y2="257.07401" gradientUnits="userSpaceOnUse" id="color-22"><stop offset="0" stop-color="#d14a46"/><stop offset="1" stop-color="#f1580c"/></linearGradient><linearGradient x1="365.61981" y1="241.12163" x2="365.61981" y2="257.42413" gradientUnits="userSpaceOnUse" id="color-23"><stop offset="0" stop-color="#d14a46"/><stop offset="1" stop-color="#f1580c"/></linearGradient><linearGradient x1="386.62163" y1="240.96351" x2="386.62163" y2="257.67823" gradientUnits="userSpaceOnUse" id="color-24"><stop offset="0" stop-color="#d14a46"/><stop offset="1" stop-color="#f1580c"/></linearGradient><linearGradient x1="407.24116" y1="240.96351" x2="407.24116" y2="258.75904" gradientUnits="userSpaceOnUse" id="color-25"><stop offset="0" stop-color="#d14a46"/><stop offset="1" stop-color="#f1580c"/></linearGradient><linearGradient x1="426.17397" y1="240.48579" x2="426.17397" y2="257.51899" gradientUnits="userSpaceOnUse" id="color-26"><stop offset="0" stop-color="#d14a46"/><stop offset="1" stop-color="#f1580c"/></linearGradient><linearGradient x1="444.1406" y1="241.40736" x2="444.1406" y2="257.83748" gradientUnits="userSpaceOnUse" id="color-27"><stop offset="0" stop-color="#d14a46"/><stop offset="1" stop-color="#f1580c"/></linearGradient><linearGradient x1="10.9865" y1="268.60944" x2="10.9865" y2="281.63337" gradientUnits="userSpaceOnUse" id="color-28"><stop offset="0" stop-color="#d14a46"/><stop offset="1" stop-color="#f1580c"/></linearGradient><linearGradient x1="26.51538" y1="264.72778" x2="26.51538" y2="281.24485" gradientUnits="userSpaceOnUse" id="color-29"><stop offset="0" stop-color="#d14a46"/><stop offset="1" stop-color="#f1580c"/></linearGradient><linearGradient x1="42.19277" y1="268.35646" x2="42.19277" y2="282.02074" gradientUnits="userSpaceOnUse" id="color-30"><stop offset="0" stop-color="#d14a46"/><stop offset="1" stop-color="#f1580c"/></linearGradient><linearGradient x1="57.6968" y1="265.01012" x2="57.6968" y2="281.66838" gradientUnits="userSpaceOnUse" id="color-31"><stop offset="0" stop-color="#d14a46"/><stop offset="1" stop-color="#f1580c"/></linearGradient><linearGradient x1="73.0495" y1="268.25707" x2="73.0495" y2="282.02074" gradientUnits="userSpaceOnUse" id="color-32"><stop offset="0" stop-color="#d14a46"/><stop offset="1" stop-color="#f1580c"/></linearGradient><linearGradient x1="86.58165" y1="264.16084" x2="86.58165" y2="281.63901" gradientUnits="userSpaceOnUse" id="color-33"><stop offset="0" stop-color="#d14a46"/><stop offset="1" stop-color="#f1580c"/></linearGradient><linearGradient x1="100.01328" y1="269.06908" x2="100.01328" y2="286.36205" gradientUnits="userSpaceOnUse" id="color-34"><stop offset="0" stop-color="#d14a46"/><stop offset="1" stop-color="#f1580c"/></linearGradient><linearGradient x1="115.37445" y1="264.70068" x2="115.37445" y2="281.32166" gradientUnits="userSpaceOnUse" id="color-35"><stop offset="0" stop-color="#d14a46"/><stop offset="1" stop-color="#f1580c"/></linearGradient><linearGradient x1="126.97706" y1="264.72778" x2="126.97706" y2="281.35102" gradientUnits="userSpaceOnUse" id="color-36"><stop offset="0" stop-color="#d14a46"/><stop offset="1" stop-color="#f1580c"/></linearGradient><linearGradient x1="134.91769" y1="265.1513" x2="134.91769" y2="286.64439" gradientUnits="userSpaceOnUse" id="color-37"><stop offset="0" stop-color="#d14a46"/><stop offset="1" stop-color="#f1580c"/></linearGradient><linearGradient x1="147.38371" y1="264.89153" x2="147.38371" y2="281.63901" gradientUnits="userSpaceOnUse" id="color-38"><stop offset="0" stop-color="#d14a46"/><stop offset="1" stop-color="#f1580c"/></linearGradient><linearGradient x1="159.09756" y1="265.05078" x2="159.09756" y2="281.54302" gradientUnits="userSpaceOnUse" id="color-39"><stop offset="0" stop-color="#d14a46"/><stop offset="1" stop-color="#f1580c"/></linearGradient><linearGradient x1="173.3926" y1="268.54618" x2="173.3926" y2="282.30647" gradientUnits="userSpaceOnUse" id="color-40"><stop offset="0" stop-color="#d14a46"/><stop offset="1" stop-color="#f1580c"/></linearGradient><linearGradient x1="192.14584" y1="268.86467" x2="192.14584" y2="282.21161" gradientUnits="userSpaceOnUse" id="color-41"><stop offset="0" stop-color="#d14a46"/><stop offset="1" stop-color="#f1580c"/></linearGradient><linearGradient x1="207.42739" y1="268.64558" x2="207.42739" y2="282.02074" gradientUnits="userSpaceOnUse" id="color-42"><stop offset="0" stop-color="#d14a46"/><stop offset="1" stop-color="#f1580c"/></linearGradient><linearGradient x1="223.13245" y1="269.31529" x2="223.13245" y2="285.79737" gradientUnits="userSpaceOnUse" id="color-43"><stop offset="0" stop-color="#d14a46"/><stop offset="1" stop-color="#f1580c"/></linearGradient><linearGradient x1="239.73762" y1="269.31529" x2="239.73762" y2="286.07971" gradientUnits="userSpaceOnUse" id="color-44"><stop offset="0" stop-color="#d14a46"/><stop offset="1" stop-color="#f1580c"/></linearGradient><linearGradient x1="254.76845" y1="268.26045" x2="254.76845" y2="281.63901" gradientUnits="userSpaceOnUse" id="color-45"><stop offset="0" stop-color="#d14a46"/><stop offset="1" stop-color="#f1580c"/></linearGradient><linearGradient x1="268.47226" y1="268.92792" x2="268.47226" y2="281.48089" gradientUnits="userSpaceOnUse" id="color-46"><stop offset="0" stop-color="#d14a46"/><stop offset="1" stop-color="#f1580c"/></linearGradient><linearGradient x1="282.817" y1="265.36927" x2="282.817" y2="281.35328" gradientUnits="userSpaceOnUse" id="color-47"><stop offset="0" stop-color="#d14a46"/><stop offset="1" stop-color="#f1580c"/></linearGradient><linearGradient x1="296.4649" y1="269.34127" x2="296.4649" y2="281.57577" gradientUnits="userSpaceOnUse" id="color-48"><stop offset="0" stop-color="#d14a46"/><stop offset="1" stop-color="#f1580c"/></linearGradient><linearGradient x1="311.88198" y1="268.64219" x2="311.88198" y2="281.32166" gradientUnits="userSpaceOnUse" id="color-49"><stop offset="0" stop-color="#d14a46"/><stop offset="1" stop-color="#f1580c"/></linearGradient><linearGradient x1="329.05974" y1="268.70543" x2="329.05974" y2="281.60739" gradientUnits="userSpaceOnUse" id="color-50"><stop offset="0" stop-color="#d14a46"/><stop offset="1" stop-color="#f1580c"/></linearGradient><linearGradient x1="345.66153" y1="268.41857" x2="345.66153" y2="282.02074" gradientUnits="userSpaceOnUse" id="color-51"><stop offset="0" stop-color="#d14a46"/><stop offset="1" stop-color="#f1580c"/></linearGradient><linearGradient x1="361.29205" y1="269.2769" x2="361.29205" y2="286.97869" gradientUnits="userSpaceOnUse" id="color-52"><stop offset="0" stop-color="#d14a46"/><stop offset="1" stop-color="#f1580c"/></linearGradient><linearGradient x1="376.09022" y1="269.08603" x2="376.09022" y2="281.82988" gradientUnits="userSpaceOnUse" id="color-53"><stop offset="0" stop-color="#d14a46"/><stop offset="1" stop-color="#f1580c"/></linearGradient><linearGradient x1="10.4252" y1="287.64502" x2="10.4252" y2="305.18757" gradientUnits="userSpaceOnUse" id="color-54"><stop offset="0" stop-color="#d14a46"/><stop offset="1" stop-color="#f1580c"/></linearGradient><linearGradient x1="25.14827" y1="287.55015" x2="25.14827" y2="304.96396" gradientUnits="userSpaceOnUse" id="color-55"><stop offset="0" stop-color="#d14a46"/><stop offset="1" stop-color="#f1580c"/></linearGradient><linearGradient x1="41.70375" y1="287.51853" x2="41.70375" y2="305.3773" gradientUnits="userSpaceOnUse" id="color-56"><stop offset="0" stop-color="#d14a46"/><stop offset="1" stop-color="#f1580c"/></linearGradient><linearGradient x1="57.25366" y1="287.63551" x2="57.25366" y2="305.20743" gradientUnits="userSpaceOnUse" id="color-57"><stop offset="0" stop-color="#d14a46"/><stop offset="1" stop-color="#f1580c"/></linearGradient><linearGradient x1="75.34062" y1="287.4278" x2="75.34062" y2="305.63669" gradientUnits="userSpaceOnUse" id="color-58"><stop offset="0" stop-color="#d14a46"/><stop offset="1" stop-color="#f1580c"/></linearGradient><linearGradient x1="92.54869" y1="287.70375" x2="92.54869" y2="306.30226" gradientUnits="userSpaceOnUse" id="color-59"><stop offset="0" stop-color="#d14a46"/><stop offset="1" stop-color="#f1580c"/></linearGradient><linearGradient x1="109.16685" y1="288.3441" x2="109.16685" y2="305.34568" gradientUnits="userSpaceOnUse" id="color-60"><stop offset="0" stop-color="#d14a46"/><stop offset="1" stop-color="#f1580c"/></linearGradient><linearGradient x1="125.90077" y1="287.59758" x2="125.90077" y2="306.09107" gradientUnits="userSpaceOnUse" id="color-61"><stop offset="0" stop-color="#d14a46"/><stop offset="1" stop-color="#f1580c"/></linearGradient><linearGradient x1="143.17679" y1="287.94995" x2="143.17679" y2="306.01992" gradientUnits="userSpaceOnUse" id="color-62"><stop offset="0" stop-color="#d14a46"/><stop offset="1" stop-color="#f1580c"/></linearGradient><linearGradient x1="160.06431" y1="287.73876" x2="160.06431" y2="306.05606" gradientUnits="userSpaceOnUse" id="color-63"><stop offset="0" stop-color="#d14a46"/><stop offset="1" stop-color="#f1580c"/></linearGradient><linearGradient x1="7.2957" y1="323.96792" x2="7.2957" y2="328.67062" gradientUnits="userSpaceOnUse" id="color-64"><stop offset="0" stop-color="#d14a46"/><stop offset="1" stop-color="#f1580c"/></linearGradient><linearGradient x1="22.48747" y1="324.00067" x2="22.48747" y2="332.03954" gradientUnits="userSpaceOnUse" id="color-65"><stop offset="0" stop-color="#d14a46"/><stop offset="1" stop-color="#f1580c"/></linearGradient><linearGradient x1="38.70922" y1="312.44379" x2="38.70922" y2="328.60738" gradientUnits="userSpaceOnUse" id="color-66"><stop offset="0" stop-color="#d14a46"/><stop offset="1" stop-color="#f1580c"/></linearGradient><linearGradient x1="59.7613" y1="311.42058" x2="59.7613" y2="328.85471" gradientUnits="userSpaceOnUse" id="color-67"><stop offset="0" stop-color="#d14a46"/><stop offset="1" stop-color="#f1580c"/></linearGradient><linearGradient x1="80.63719" y1="316.32545" x2="80.63719" y2="328.74854" gradientUnits="userSpaceOnUse" id="color-68"><stop offset="0" stop-color="#d14a46"/><stop offset="1" stop-color="#f1580c"/></linearGradient><linearGradient x1="95.9018" y1="316.29044" x2="95.9018" y2="332.20782" gradientUnits="userSpaceOnUse" id="color-69"><stop offset="0" stop-color="#d14a46"/><stop offset="1" stop-color="#f1580c"/></linearGradient><linearGradient x1="112.02303" y1="311.98753" x2="112.02303" y2="320.02753" gradientUnits="userSpaceOnUse" id="color-70"><stop offset="0" stop-color="#d14a46"/><stop offset="1" stop-color="#f1580c"/></linearGradient><linearGradient x1="132.18291" y1="312.05529" x2="132.18291" y2="320.10207" gradientUnits="userSpaceOnUse" id="color-71"><stop offset="0" stop-color="#d14a46"/><stop offset="1" stop-color="#f1580c"/></linearGradient><linearGradient x1="158.14042" y1="311.77295" x2="158.14042" y2="329.84292" gradientUnits="userSpaceOnUse" id="color-72"><stop offset="0" stop-color="#d14a46"/><stop offset="1" stop-color="#f1580c"/></linearGradient><linearGradient x1="185.24594" y1="313.00847" x2="185.24594" y2="328.53736" gradientUnits="userSpaceOnUse" id="color-73"><stop offset="0" stop-color="#d14a46"/><stop offset="1" stop-color="#f1580c"/></linearGradient><linearGradient x1="211.35309" y1="309.57293" x2="211.35309" y2="331.14959" gradientUnits="userSpaceOnUse" id="color-74"><stop offset="0" stop-color="#d14a46"/><stop offset="1" stop-color="#f1580c"/></linearGradient><linearGradient x1="238.23782" y1="311.38444" x2="238.23782" y2="329.84292" gradientUnits="userSpaceOnUse" id="color-75"><stop offset="0" stop-color="#d14a46"/><stop offset="1" stop-color="#f1580c"/></linearGradient><linearGradient x1="265.81937" y1="311.17325" x2="265.81937" y2="329.38439" gradientUnits="userSpaceOnUse" id="color-76"><stop offset="0" stop-color="#d14a46"/><stop offset="1" stop-color="#f1580c"/></linearGradient><linearGradient x1="288.96079" y1="310.49337" x2="288.96079" y2="332.19879" gradientUnits="userSpaceOnUse" id="color-77"><stop offset="0" stop-color="#d14a46"/><stop offset="1" stop-color="#f1580c"/></linearGradient><linearGradient x1="307.11433" y1="310.49337" x2="307.11433" y2="332.19879" gradientUnits="userSpaceOnUse" id="color-78"><stop offset="0" stop-color="#d14a46"/><stop offset="1" stop-color="#f1580c"/></linearGradient><linearGradient x1="326.47517" y1="320.12352" x2="326.47517" y2="324.82511" gradientUnits="userSpaceOnUse" id="color-79"><stop offset="0" stop-color="#d14a46"/><stop offset="1" stop-color="#f1580c"/></linearGradient><linearGradient x1="348.70575" y1="330.54652" x2="348.70575" y2="332.89787" gradientUnits="userSpaceOnUse" id="color-80"><stop offset="0" stop-color="#d14a46"/><stop offset="1" stop-color="#f1580c"/></linearGradient><linearGradient x1="10.7753" y1="339.76107" x2="10.7753" y2="352.3773" gradientUnits="userSpaceOnUse" id="color-81"><stop offset="0" stop-color="#d14a46"/><stop offset="1" stop-color="#f1580c"/></linearGradient><linearGradient x1="32.46209" y1="341.52515" x2="32.46209" y2="351.72452" gradientUnits="userSpaceOnUse" id="color-82"><stop offset="0" stop-color="#d14a46"/><stop offset="1" stop-color="#f1580c"/></linearGradient><linearGradient x1="53.42777" y1="335.56658" x2="53.42777" y2="353.36324" gradientUnits="userSpaceOnUse" id="color-83"><stop offset="0" stop-color="#d14a46"/><stop offset="1" stop-color="#f1580c"/></linearGradient><linearGradient x1="74.03431" y1="335.56658" x2="74.03431" y2="353.36324" gradientUnits="userSpaceOnUse" id="color-84"><stop offset="0" stop-color="#d14a46"/><stop offset="1" stop-color="#f1580c"/></linearGradient><linearGradient x1="92.36799" y1="334.55127" x2="92.36799" y2="357.14551" gradientUnits="userSpaceOnUse" id="color-85"><stop offset="0" stop-color="#d14a46"/><stop offset="1" stop-color="#f1580c"/></linearGradient><linearGradient x1="109.49324" y1="334.58177" x2="109.49324" y2="355.5881" gradientUnits="userSpaceOnUse" id="color-86"><stop offset="0" stop-color="#d14a46"/><stop offset="1" stop-color="#f1580c"/></linearGradient><linearGradient x1="127.83539" y1="334.58177" x2="127.83539" y2="355.5881" gradientUnits="userSpaceOnUse" id="color-87"><stop offset="0" stop-color="#d14a46"/><stop offset="1" stop-color="#f1580c"/></linearGradient><linearGradient x1="146.55813" y1="333.31122" x2="146.55813" y2="356.95465" gradientUnits="userSpaceOnUse" id="color-88"><stop offset="0" stop-color="#d14a46"/><stop offset="1" stop-color="#f1580c"/></linearGradient><linearGradient x1="165.67447" y1="333.31122" x2="165.67447" y2="356.95465" gradientUnits="userSpaceOnUse" id="color-89"><stop offset="0" stop-color="#d14a46"/><stop offset="1" stop-color="#f1580c"/></linearGradient><linearGradient x1="185.20472" y1="339.60296" x2="185.20472" y2="353.07638" gradientUnits="userSpaceOnUse" id="color-90"><stop offset="0" stop-color="#d14a46"/><stop offset="1" stop-color="#f1580c"/></linearGradient><linearGradient x1="205.22229" y1="339.60296" x2="205.22229" y2="353.07638" gradientUnits="userSpaceOnUse" id="color-91"><stop offset="0" stop-color="#d14a46"/><stop offset="1" stop-color="#f1580c"/></linearGradient><linearGradient x1="223.85751" y1="334.00917" x2="223.85751" y2="340.23879" gradientUnits="userSpaceOnUse" id="color-92"><stop offset="0" stop-color="#d14a46"/><stop offset="1" stop-color="#f1580c"/></linearGradient><linearGradient x1="245.67022" y1="342.24004" x2="245.67022" y2="351.04351" gradientUnits="userSpaceOnUse" id="color-93"><stop offset="0" stop-color="#d14a46"/><stop offset="1" stop-color="#f1580c"/></linearGradient><linearGradient x1="30.1864" y1="147.6965" x2="30.1864" y2="166.01379" gradientUnits="userSpaceOnUse" id="color-94"><stop offset="0" stop-color="#d14a46"/><stop offset="1" stop-color="#f1580c"/></linearGradient><linearGradient x1="40.1769" y1="161.33819" x2="40.1769" y2="166.0409" gradientUnits="userSpaceOnUse" id="color-95"><stop offset="0" stop-color="#d14a46"/><stop offset="1" stop-color="#f1580c"/></linearGradient><linearGradient x1="51.77386" y1="147.6965" x2="51.77386" y2="166.01379" gradientUnits="userSpaceOnUse" id="color-96"><stop offset="0" stop-color="#d14a46"/><stop offset="1" stop-color="#f1580c"/></linearGradient><linearGradient x1="62.26436" y1="161.33819" x2="62.26436" y2="166.0409" gradientUnits="userSpaceOnUse" id="color-97"><stop offset="0" stop-color="#d14a46"/><stop offset="1" stop-color="#f1580c"/></linearGradient><linearGradient x1="154.14827" y1="121.55015" x2="154.14827" y2="138.96396" gradientUnits="userSpaceOnUse" id="color-98"><stop offset="0" stop-color="#d14a46"/><stop offset="1" stop-color="#f1580c"/></linearGradient><linearGradient x1="85.04046" y1="64.89501" x2="85.04046" y2="105.21326" gradientUnits="userSpaceOnUse" id="color-99"><stop offset="0" stop-color="#cbcbcb"/><stop offset="1" stop-color="#b3b3b3"/></linearGradient><linearGradient x1="83.27131" y1="61.89501" x2="83.27131" y2="102.21326" gradientUnits="userSpaceOnUse" id="color-100"><stop offset="0" stop-color="#cbcbcb"/><stop offset="1" stop-color="#b3b3b3"/></linearGradient><linearGradient x1="83.27131" y1="61.89501" x2="83.27131" y2="102.21326" gradientUnits="userSpaceOnUse" id="color-101"><stop offset="0" stop-color="#ffffff"/><stop offset="1" stop-color="#000000"/></linearGradient><linearGradient x1="83.29047" y1="61.89501" x2="83.29047" y2="102.21326" gradientUnits="userSpaceOnUse" id="color-102"><stop offset="0" stop-color="#ff0d00"/><stop offset="1" stop-color="#ffbc00"/></linearGradient><linearGradient x1="239.41966" y1="158.73941" x2="239.41966" y2="200.4714" gradientUnits="userSpaceOnUse" id="color-103"><stop offset="0" stop-color="#d14c45"/><stop offset="1" stop-color="#f25c0c"/></linearGradient><linearGradient x1="239.41966" y1="158.73941" x2="239.41966" y2="200.4714" gradientUnits="userSpaceOnUse" id="color-104"><stop offset="0" stop-color="#ffffff"/><stop offset="1" stop-color="#000000"/></linearGradient><linearGradient x1="239.41966" y1="158.73941" x2="239.41966" y2="200.4714" gradientUnits="userSpaceOnUse" id="color-105"><stop offset="0" stop-color="#d14c45"/><stop offset="1" stop-color="#f25c0c"/></linearGradient><linearGradient x1="239.41966" y1="158.73941" x2="239.41966" y2="200.4714" gradientUnits="userSpaceOnUse" id="color-106"><stop offset="0" stop-color="#ffffff"/><stop offset="1" stop-color="#000000"/></linearGradient><linearGradient x1="239.08633" y1="158.40608" x2="239.08633" y2="200.13807" gradientUnits="userSpaceOnUse" id="color-107"><stop offset="0" stop-color="#ff0d00"/><stop offset="1" stop-color="#ffbc00"/></linearGradient></defs><g transform="translate(-4.0335,-60.04093)"><g data-paper-data="{&quot;isPaintingLayer&quot;:true}" fill-rule="nonzero" stroke-linecap="butt" stroke-linejoin="miter" stroke-miterlimit="10" stroke-dasharray="" stroke-dashoffset="0" style="mix-blend-mode: normal"><path d="M79.92779,148.76197l3.24695,5.92921l-3.5643,2.92959l1.9764,2.75228l-1.12937,3.95281l-6.31771,1.76521l-5.92921,-2.22374l-0.91705,-4.44634l2.64612,-2.64725l-2.64612,-4.69367l4.69367,-4.48248zM74.31592,152.15008l-1.44673,1.41172l2.04755,2.50608l2.22261,-1.9764l-0.70586,-2.08256zM72.30451,160.37304l0.91818,1.76521l1.9764,0.17618l1.12937,-1.51788l-1.69406,-2.01141z" fill="url(#color-1)" stroke="none" stroke-width="1"/><path d="M16.4216,243.51703l4.05897,13.51634l-5.68188,0.63584l-0.60083,-3.42313l-3.84664,0.2462l-0.63471,3.14192l-5.18834,-1.16551l4.12899,-13.90484zM11.12823,250.3983l2.43493,0.31848l-0.88204,-3.56543h-0.742z" fill="url(#color-2)" stroke="none" stroke-width="1"/><path d="M38.12702,244.61026l-1.87024,4.34131l2.32877,2.82343l-3.31697,5.22335l-11.1887,0.3885l-2.25875,-14.9992l10.37668,-2.01254zM28.4562,248.35187l3.28309,-0.70586l0.28234,-1.72907l-3.77662,-1.05935zM28.91586,253.7514l3.06964,-0.3885l0.21232,-2.15259l-3.49428,-0.10616z" fill="url(#color-3)" stroke="none" stroke-width="1"/><path d="M49.23328,245.98358l-3.08206,2.31973l0.22249,3.46492l3.7179,1.36541l3.52703,-2.76471l2.66984,4.5446l-6.4826,3.49541l-8.00951,-2.50947l-2.28698,-8.23087l3.84439,-5.33855l5.87952,-1.74827l6.102,2.54222l-2.13,4.86195z" fill="url(#color-4)" stroke="none" stroke-width="1"/><path d="M73.63226,245.17495l-0.56469,7.58826l-4.02396,4.37632l-9.56466,0.56469l-2.29376,-15.10536l8.43529,-1.94139zM64.38495,253.3629l2.92959,-1.05822l0.77588,-4.41133l-4.34018,-1.55289z" fill="url(#color-5)" stroke="none" stroke-width="1"/><path d="M88.92848,244.04557l-0.88995,4.57622l-6.00601,-1.59016l-0.3806,1.49529l4.63946,0.50822l-0.7307,3.46379l-4.19562,-0.57259l0.19199,1.58903l5.91001,-0.34898l0.54097,4.3526l-11.28244,-0.50709l-1.65227,-5.7519l2.06562,-8.7086z" fill="url(#color-6)" stroke="none" stroke-width="1"/><path d="M103.41947,240.29605l-0.06324,5.46617l-6.48373,0.09487v2.03287l5.08444,-0.47547l-0.28573,4.54347l-4.48022,-0.34898l0.06324,5.37017l-5.2753,0.34898l-2.31973,-15.41143z" fill="url(#color-7)" stroke="none" stroke-width="1"/><path d="M113.57479,245.28449l-2.54222,2.13l-0.06437,4.35373l2.92395,1.49303l2.95557,-1.14405l-0.38173,-0.88995l-3.30455,0.85832l-0.18973,-4.068l8.03888,-0.60309l0.25411,7.75315l-8.07163,3.01881l-6.76833,-2.4146l-2.41573,-8.00838l3.71903,-5.81514l6.29174,-1.71665l5.84676,2.00238l-2.034,4.73546z" fill="url(#color-8)" stroke="none" stroke-width="1"/><path d="M128.62256,241.15325l0.69908,6.00714l3.75065,0.12649l-0.4766,-5.72027l6.29174,-0.19086l-0.15811,15.66666l-4.70384,0.12649l-0.50822,-5.71915l-3.52816,0.76346l0.60421,4.79871l-4.79871,0.92044l-3.49541,-15.76153z" fill="url(#color-9)" stroke="none" stroke-width="1"/><path d="M141.19587,242.90152l6.06925,1.27054l-2.31973,12.80709l-4.60671,0.28686z" fill="url(#color-10)" stroke="none" stroke-width="1"/><path d="M162.54893,241.6626l-0.03162,12.64672l-5.24255,4.03638l-6.67459,-1.33379l-2.95444,-5.40292l5.84676,-2.47897l0.88995,4.38536l3.01881,-1.71552l-1.96963,-10.5506z" fill="url(#color-11)" stroke="none" stroke-width="1"/><path d="M169.95874,241.34411l0.53984,5.2753l3.81389,-6.13363l4.95682,3.46379l-4.57622,5.02119l5.72027,4.63946l-4.57622,3.81389l-4.67109,-5.18043l0.12762,4.83033l-5.11719,0.44497l-2.16049,-15.60229z" fill="url(#color-12)" stroke="none" stroke-width="1"/><path d="M188.05921,241.31249l0.15924,10.80471l7.21331,-2.12887l-0.22249,6.64071l-11.47217,1.04919l-2.28811,-15.50742z" fill="url(#color-13)" stroke="none" stroke-width="1"/><path d="M206.06706,241.24924l1.30217,4.60784l2.8607,-4.03638l3.94038,0.57146l2.00238,15.41368l-6.26011,0.3806l-0.06437,-7.78477l-3.20968,2.73195l-2.31973,-3.74952l-2.4146,7.6899l-5.91114,-2.66871l5.78352,-13.50617z" fill="url(#color-14)" stroke="none" stroke-width="1"/><path d="M222.50734,241.43898l5.49779,7.7554l-0.53984,-7.7554l6.29174,-0.53984l-0.03162,15.12682l-4.79871,1.39816l-4.98957,-6.22849l0.38173,6.26011l-5.21206,0.7307l-2.38298,-14.96758z" fill="url(#color-15)" stroke="none" stroke-width="1"/><path d="M247.20222,243.44588l4.27016,4.34131l-0.88204,7.72943l-6.8824,2.99961l-6.98743,-2.75341l-1.51788,-7.65828l5.15333,-5.61185zM240.92064,248.84541l0.2462,3.60044l2.85957,1.02321l2.54109,-2.43493l-1.76521,-3.35311z" fill="url(#color-16)" stroke="none" stroke-width="1"/><path d="M267.95445,244.46909l-1.34057,5.8942l-3.24695,2.43493l-4.3063,-0.28234l-0.03501,4.51749l-5.22335,0.24733l-1.20052,-15.70506l9.49464,-1.30556zM259.02562,249.23391l2.64725,-0.31735l0.66972,-3.14079l-3.45814,-0.95319z" fill="url(#color-17)" stroke="none" stroke-width="1"/><path d="M281.01339,241.25828l5.08218,4.48135l-0.49467,7.2709l-1.62291,1.37671l3.21081,1.9764l-4.41133,3.38812l-2.32877,-2.92959l-1.76521,1.62291l-7.97563,-2.68226l-2.22374,-8.29299l4.906,-6.53004zM274.73068,247.75217l0.24733,3.77549l3.45814,1.27054l2.82343,-3.10578l-2.61111,-3.63432z" fill="url(#color-18)" stroke="none" stroke-width="1"/><path d="M303.28237,244.50523l-1.02321,5.04604l-2.61111,1.90638l4.51749,3.88166l-5.71802,2.85957l-4.09398,-5.85919v4.76483l-5.08218,0.24733l-1.30556,-15.7412l9.56466,-1.23553zM294.35354,249.23391l2.82343,-0.56469l0.49467,-2.89345l-3.49428,-0.9882z" fill="url(#color-19)" stroke="none" stroke-width="1"/><path d="M312.18521,253.22963l1.11243,-1.68502l-8.48385,-4.28936l3.24017,-5.52941l7.21331,-1.01644l4.98957,2.7952l-2.25536,4.25887l-4.44973,-2.89232l-1.04806,1.77989l8.70747,4.16287l-3.11481,6.198l-8.32574,0.7612l-5.02119,-3.59028l2.31973,-3.78114z" fill="url(#color-20)" stroke="none" stroke-width="1"/><path d="M337.892,241.15325l0.28573,4.8947l-5.33855,0.76233l1.6839,10.26374l-6.41936,0.28686l-0.22136,-9.72503l-5.53054,0.70021l-0.60309,-6.48373z" fill="url(#color-21)" stroke="none" stroke-width="1"/><path d="M347.04105,243.28325l-1.11243,9.40542l3.36892,-0.50822l0.41335,-7.40417l6.16525,0.92157l-1.39816,8.136l-2.95557,3.24017l-8.45336,-0.03162l-3.49541,-2.92282l0.60309,-11.66304z" fill="url(#color-22)" stroke="none" stroke-width="1"/><path d="M363.18883,241.12163l3.49541,10.10563l1.49416,-8.80233l6.45098,1.17455l-4.44973,13.41243l-6.54585,0.41222l-7.02357,-12.83871z" fill="url(#color-23)" stroke="none" stroke-width="1"/><path d="M384.42782,257.23326l-5.59266,-0.63471l-2.85957,-14.61861l7.43579,-1.01644l0.57259,9.27893l2.98719,-3.30568l2.47897,3.87714l1.96963,-7.43579l5.84789,1.84314l-3.94151,12.20288l-5.33855,0.25411l-1.52465,-3.94038z" fill="url(#color-24)" stroke="none" stroke-width="1"/><path d="M398.3112,245.98358l4.95795,-4.73433l3.87714,4.51297l3.17806,-4.79871l5.24255,3.59028l-4.38536,4.86195l4.98957,3.78114l-4.22611,4.73546l-4.06687,-3.97201l-3.21081,4.79871l-5.02006,-3.84552l4.28936,-4.86195z" fill="url(#color-25)" stroke="none" stroke-width="1"/><path d="M416.83066,242.67903l6.99195,-2.19324l2.16049,6.9592l4.00363,-5.87839l5.53054,3.1453l-7.34205,7.56341l0.4461,5.24368l-6.5786,-0.35011l1.11243,-5.08331z" fill="url(#color-26)" stroke="none" stroke-width="1"/><path d="M436.38689,241.9167l13.56942,-0.50935l1.58903,4.98957l-6.48373,6.102l6.67459,-1.55741l0.15811,5.91114l-13.72753,0.98481l-0.63584,-3.84552l6.73671,-7.11844l-7.7859,1.33492z" fill="url(#color-27)" stroke="none" stroke-width="1"/><path d="M14.23401,269.38644l3.5643,3.07077l-1.51788,5.01103l1.65905,3.28196l-4.906,0.84703l-0.5997,-1.16438l-6.4939,1.20052l-1.90638,-5.57684l4.79984,-2.68226l3.21194,1.12937l0.21232,-1.80022l-7.23589,0.52968l1.58903,-4.62365zM9.57534,279.12728l2.04642,-1.20052l0.10616,-1.16438l-2.89458,-0.17618z" fill="url(#color-28)" stroke="none" stroke-width="1"/><path d="M25.03307,270.62198l4.76483,-1.65905l4.41133,4.86986l-2.9646,7.37706l-5.29337,-1.09436l-0.17731,0.91705l-5.32838,0.21232l-1.62404,-15.38771l5.71802,-1.12937zM25.28041,274.18628l0.24733,2.54109l2.50495,0.91705l0.70586,-4.02283z" fill="url(#color-29)" stroke="none" stroke-width="1"/><path d="M42.55756,272.99592l-1.938,2.47897l2.5106,2.50947l3.2413,-3.05044l2.92395,3.71903l-5.02119,3.36779l-6.92757,-1.68502l-2.25649,-6.73671l5.72027,-5.24255l6.54585,1.42866l-1.77876,4.67222z" fill="url(#color-30)" stroke="none" stroke-width="1"/><path d="M63.60907,265.57481l1.62291,15.3527l-5.08218,0.74087l-0.3885,-1.5879l-5.61073,1.5879l-3.98895,-6.42387l3.38812,-5.64687l4.906,0.91818l-0.74087,-5.50569zM56.93786,277.92676l2.3299,-1.05822l-0.3885,-2.68226l-3.38812,-0.17618z" fill="url(#color-31)" stroke="none" stroke-width="1"/><path d="M80.12615,271.89252l-0.88317,4.72869l-8.04678,0.14117l2.29489,1.90638l3.63432,-1.51788l1.80022,3.59931l-7.23476,1.27054l-5.71802,-3.77549l1.02434,-7.44709l6.21155,-2.54109zM71.30236,273.79778l3.67046,0.67085l0.28234,-1.3417l-2.68226,-1.16438z" fill="url(#color-32)" stroke="none" stroke-width="1"/><path d="M88.32879,268.57781l-0.09487,2.25762l3.55865,-0.35011l0.28686,4.16287l-3.17806,0.09487l1.11243,6.16525l-5.05282,0.7307l-0.44497,-6.19687l-3.05044,0.57259l-0.41335,-4.48022l2.82795,-0.096l-0.7307,-4.79871l3.52816,-2.47897l5.43341,1.23892l-0.60421,4.25887z" fill="url(#color-33)" stroke="none" stroke-width="1"/><path d="M106.10173,269.35143l1.09323,13.72866l-5.46955,3.28196l-5.43567,-1.94139l2.11757,-3.06964l3.14079,1.27054l0.9882,-1.02434l-0.31735,-1.69406l-6.28157,1.16551l-3.10578,-6.14153l3.52929,-5.50569l4.62252,1.44673l-0.14117,-1.79909zM99.28935,277.64441l2.47107,-1.16438l-0.17618,-1.9764l-3.3181,-0.31735z" fill="url(#color-34)" stroke="none" stroke-width="1"/><path d="M113.96104,264.70068l0.7307,5.91114l4.57509,-1.65227l3.68627,2.66984l-1.04806,9.46979l-4.86195,0.22249l0.35011,-7.62666l-2.54222,0.34898l0.34898,6.64184l-4.57509,0.63584l-2.82908,-15.50855z" fill="url(#color-35)" stroke="none" stroke-width="1"/><path d="M130.24208,265.57481l-1.05935,4.34131l-4.86986,-0.14117l-0.60083,-5.04717zM129.46507,271.2917l-1.05822,9.63581l-4.6948,0.42351v-10.65902z" fill="url(#color-36)" stroke="none" stroke-width="1"/><path d="M137.86535,269.59764l-5.15333,0.77701l-1.34057,-4.87099l6.67008,-0.35236zM139.3821,282.55042l-6.31658,4.09398l-2.61224,-4.79984l4.02396,-1.51788l-2.22374,-8.68149l6.24656,-0.35349z" fill="url(#color-37)" stroke="none" stroke-width="1"/><path d="M146.33565,264.89153l0.66746,7.37255l3.55865,-4.03525l3.40054,3.43216l-3.27405,3.2413l3.71903,2.57384l-3.14643,3.59141l-3.78227,-3.43216l0.06437,3.30455l-4.60784,0.69908l-2.57497,-15.79428z" fill="url(#color-38)" stroke="none" stroke-width="1"/><path d="M161.63978,265.559l0.95319,15.28606l-4.76595,0.69795l-2.22486,-16.49224z" fill="url(#color-39)" stroke="none" stroke-width="1"/><path d="M169.00668,268.80143l0.4766,2.85957l3.21081,-2.85957l2.57384,2.09612l2.25536,-2.35135l6.102,2.89232l-0.73183,9.05644l-4.83033,0.38173l0.15924,-6.5786l-1.65227,0.25524l0.12649,5.94163l-4.3526,1.01757l-0.76233,-6.89595l-1.46254,0.60421l0.79508,5.68752l-4.76821,1.39816l-2.98606,-12.39374z" fill="url(#color-40)" stroke="none" stroke-width="1"/><path d="M190.84311,269.37289l0.19086,2.54222l4.16287,-3.05044l4.48022,2.66984l-0.53984,9.11969l-4.76708,0.25411l-0.41222,-6.67347l-2.60659,0.73183l0.57259,5.68752l-4.73433,1.55741l-2.57497,-11.88552z" fill="url(#color-41)" stroke="none" stroke-width="1"/><path d="M210.92111,270.33964l3.49428,4.30517l-1.76521,5.8942l-7.05858,1.48174l-4.7637,-3.24695l-0.3885,-6.17541l5.39953,-3.95281zM205.27424,277.11587l3.03575,0.84703l1.02321,-3.07077l-3.74161,-1.37671z" fill="url(#color-42)" stroke="none" stroke-width="1"/><path d="M221.68516,270.90432l5.43567,-1.20052l4.02283,5.39953l-3.67046,5.82418l-5.11719,-0.88317l0.28234,5.75303l-4.65866,-0.07002l-2.85844,-15.03534l6.56392,-1.37671zM222.14482,274.6098l-0.03614,2.08256l3.14192,0.63471l0.45853,-3.38812z" fill="url(#color-43)" stroke="none" stroke-width="1"/><path d="M246.35519,269.7038l1.30556,15.07035l-4.34018,1.30556l-1.3417,-6.28157l-5.5407,1.65792l-4.62365,-5.82305l3.60044,-5.71689l4.7637,0.88204l-0.03501,-1.48287zM238.83808,277.99791l2.50608,-1.65905l-0.56469,-2.29376l-3.49428,-0.03501z" fill="url(#color-44)" stroke="none" stroke-width="1"/><path d="M254.10043,269.02279l0.25524,2.98719l3.17693,-3.74952l3.75065,2.54222l-2.47897,4.92633l-1.96963,-1.84427l-2.13,2.06562l0.28573,4.83033l-4.73433,0.85832l-2.00238,-11.28131z" fill="url(#color-45)" stroke="none" stroke-width="1"/><path d="M269.82243,272.16922l-0.79395,1.14405l6.38773,3.20968l-1.97076,4.35373l-7.50017,0.60421l-4.41698,-3.40054l2.09725,-2.89232l4.60897,2.92395l0.63471,-1.49416l-6.16412,-3.01881l2.06562,-4.25774l6.9592,-0.41335l3.65352,2.38298l-1.39703,3.43216z" fill="url(#color-46)" stroke="none" stroke-width="1"/><path d="M286.01086,266.13158l-0.76346,3.68627l3.3373,0.06324l-0.38173,4.57622l-3.17693,-0.57259l-0.35011,7.46854l-5.24368,-0.53984l0.76233,-7.15006l-3.08206,-0.12762l-0.06324,-4.5446l3.43216,0.47772v-4.09962z" fill="url(#color-47)" stroke="none" stroke-width="1"/><path d="M296.05212,269.37289l-1.33605,7.81752l2.82908,-0.92157l0.19086,-5.02119l5.87839,0.7307l-1.49303,8.86671l-4.48135,0.7307l-0.09487,-1.2073l-4.16287,0.85832l-4.06687,-2.76583l0.69908,-9.11969z" fill="url(#color-48)" stroke="none" stroke-width="1"/><path d="M304.30332,271.34252l5.72027,-2.70033l2.25649,7.18168l1.71552,-6.38773l5.46504,0.95319l-3.93925,10.2005l-5.53054,0.73183z" fill="url(#color-49)" stroke="none" stroke-width="1"/><path d="M326.23123,268.70543l1.71665,6.57747l1.58903,-2.70033l2.22374,2.19211l0.4461,-5.1793l5.27417,0.28573l-1.96963,10.5506l-3.43216,0.8267l-2.16049,-3.08319l-1.33605,3.43216l-3.74839,-0.19086l-4.19562,-10.96395z" fill="url(#color-50)" stroke="none" stroke-width="1"/><path d="M338.47928,272.32846l3.7179,-3.7179l3.24243,3.52703l2.4146,-3.71903l4.19449,2.57497l-2.92282,3.94038l3.7179,2.95557l-3.52816,3.7179l-3.01881,-2.79633l-2.22374,3.20968l-4.67222,-2.79746l3.40054,-3.59028z" fill="url(#color-51)" stroke="none" stroke-width="1"/><path d="M361.14918,269.2769l-1.77989,7.59616l2.82908,-0.22362l0.79395,-5.02006l5.52941,1.17568l-2.63709,10.45461l-5.40292,3.71903l-6.41936,-1.33492l2.22486,-5.05394l3.43216,2.57497l1.71552,-3.05044l-1.33379,0.44497l-1.43092,-0.03275l-4.60784,-2.76471l1.01757,-8.19812z" fill="url(#color-52)" stroke="none" stroke-width="1"/><path d="M380.25366,269.08603l1.84427,4.19562l-4.70384,3.7179l4.38536,-0.88995l0.88882,4.38536l-10.80358,1.33492l-0.95319,-3.36892l4.22611,-4.76595l-4.79871,0.60309l-0.8267,-4.73433z" fill="url(#color-53)" stroke="none" stroke-width="1"/><path d="M4.68968,291.68027l6.89595,-4.03525l4.57509,0.98594l-0.98368,16.55661l-5.43454,-0.4461l1.27054,-11.09044l-2.25649,2.35248z" fill="url(#color-54)" stroke="none" stroke-width="1"/><path d="M17.53742,292.31724l5.40292,-4.76708l7.11844,1.42979l2.70033,6.1325l-7.40417,5.53054l6.4826,-0.76233l-0.63584,5.08331l-12.64672,-0.34898l-0.50935,-3.81276l8.32687,-6.45211l-1.20843,-1.77876l-2.79633,3.08206z" fill="url(#color-55)" stroke="none" stroke-width="1"/><path d="M34.10872,292.31724l5.27643,-4.79871l6.99082,1.42979l2.92282,5.68865l-2.73308,2.25536l2.06675,3.55978l-3.2413,4.9252l-7.3093,-0.50822l-3.90876,-4.41698l4.51297,-3.27405l2.25536,4.19562l2.16049,-1.39816l-2.35023,-2.98719l2.54109,-2.31973l-1.46141,-2.16162l-2.95557,3.3373z" fill="url(#color-56)" stroke="none" stroke-width="1"/><path d="M61.22567,290.58995l-5.97438,7.3093l2.79633,-0.41335l0.60421,-2.95557l4.068,0.22362l-0.12762,2.35135l2.66984,-0.19086l-0.4461,4.32098l-2.54109,0.22362l-0.54097,3.74839l-5.02006,-0.44384l0.3806,-2.89232l-6.35611,0.15924l-1.49303,-4.41698l6.9287,-9.97801z" fill="url(#color-57)" stroke="none" stroke-width="1"/><path d="M75.27738,301.3462l2.44622,-1.5879l-1.77989,-2.31973l-3.04931,1.07968l-3.81389,-3.11368l1.77876,-7.97676l11.79065,1.14405l-1.49416,5.02119l-5.81514,-1.87589l-0.69908,2.44848l3.33617,-0.98594l4.95795,4.068l-1.65227,6.41823l-6.76833,1.97076l-6.76946,-3.52703l3.05044,-4.22724z" fill="url(#color-58)" stroke="none" stroke-width="1"/><path d="M97.7726,291.05573l-4.62365,3.60044l4.30517,-0.21232l2.92959,5.68301l-2.01141,4.27016l-6.63507,1.90525l-6.42387,-2.89345l-0.5997,-6.91741l7.83559,-8.78765zM91.24257,298.04429l-0.95206,2.32877l2.68226,1.90638l1.69406,-2.11757l-1.27054,-2.36491z" fill="url(#color-59)" stroke="none" stroke-width="1"/><path d="M101.76268,293.74589l1.62065,-5.40179l12.58347,0.98594l0.60421,3.68627l-3.7179,5.14768l-1.17568,7.18168l-6.89595,-0.82557l5.2753,-10.93233z" fill="url(#color-60)" stroke="none" stroke-width="1"/><path d="M130.59445,288.76196l3.24695,5.92921l-3.5643,2.92959l1.9764,2.75228l-1.12937,3.95281l-6.31771,1.76521l-5.92921,-2.22374l-0.91705,-4.44634l2.64612,-2.64725l-2.64612,-4.69367l4.69367,-4.48248zM124.98259,292.15009l-1.44673,1.41172l2.04755,2.50608l2.22261,-1.9764l-0.70586,-2.08256zM122.97118,300.37305l0.91818,1.76521l1.9764,0.17618l1.12937,-1.51788l-1.69406,-2.01141z" fill="url(#color-61)" stroke="none" stroke-width="1"/><path d="M146.97036,288.6208l4.16513,3.77662l-1.48287,7.09359l-5.78804,6.52891l-3.98782,-1.94026l3.67046,-4.65866l-5.2945,0.31735l-3.03463,-6.4939l4.37632,-5.2945zM141.46466,293.45563l0.63584,2.50608l2.78729,0.17618l0.42351,-2.9646l-2.22261,-0.95206z" fill="url(#color-62)" stroke="none" stroke-width="1"/><path d="M165.00531,289.46783l2.54109,6.00036l-2.50608,8.36414l-6.28157,2.22374l-5.85919,-3.88278l-0.31735,-9.42349l5.5407,-5.01103zM157.34703,298.64398l1.94026,2.36491l2.50608,-1.69406l0.03501,-5.50569l-3.1758,-0.45853z" fill="url(#color-63)" stroke="none" stroke-width="1"/><path d="M9.74249,324.09554l-0.25411,4.32098l-4.32211,0.25411l-0.31735,-4.70271z" fill="url(#color-64)" stroke="none" stroke-width="1"/><path d="M25.01387,324.31689l-0.19086,4.25887l-2.63709,3.46379l-1.81151,-1.14405l1.52465,-1.71552v-0.88995l-1.46141,0.41335l-0.4766,-4.70271z" fill="url(#color-65)" stroke="none" stroke-width="1"/><path d="M42.25601,313.71434l-1.65905,9.28232l-4.51749,-0.35349l-0.31735,-10.19937zM40.42078,324.5134v4.09398l-5.25836,-0.38737l0.67085,-4.20014z" fill="url(#color-66)" stroke="none" stroke-width="1"/><path d="M65.62048,313.11464l2.46994,6.63507l-5.96422,2.11757l-0.17618,1.79909l-4.48248,-0.2462l-0.03501,-4.20014l4.83485,-1.30556l-0.10616,-1.37671l-4.30517,-0.03501l-1.90638,3.49315l-4.51749,-2.85844l4.23515,-5.71689zM61.91501,324.79575l0.03501,4.05897l-5.15333,-0.49354l0.63584,-3.95281z" fill="url(#color-67)" stroke="none" stroke-width="1"/><path d="M83.16078,316.53776l-0.21119,4.27016l-4.48248,0.31735l-0.35349,-4.79984zM83.12577,324.23106l-0.28234,4.3063l-4.3063,0.21119l-0.2462,-4.72869z" fill="url(#color-68)" stroke="none" stroke-width="1"/><path d="M98.47846,316.60778l-0.45965,4.20014l-4.30517,0.31735l-0.3885,-4.83485zM98.3723,324.5134l-0.14117,4.13012l-2.75341,3.5643l-1.48174,-1.48287l1.12937,-1.94026l-1.30556,-0.28234l-0.35349,-4.09398z" fill="url(#color-69)" stroke="none" stroke-width="1"/><path d="M108.55925,319.67743l2.06562,-7.6899l4.86195,1.58903l-3.6219,6.45098z" fill="url(#color-70)" stroke="none" stroke-width="1"/><path d="M138.7824,313.67933l-4.37632,6.42274l-3.24695,-1.05822l2.61224,-6.98856zM132.60586,313.57317l-3.52929,6.4939l-3.49315,-0.31735l1.90525,-7.65941z" fill="url(#color-71)" stroke="none" stroke-width="1"/><path d="M167.47525,317.20862l-0.2462,8.01064l-4.65866,2.68226l-3.3181,-2.15259l0.03501,-0.5997l-2.15259,1.05822l-2.89345,-1.9764l-0.45965,-5.36452l4.58864,-2.25875l1.80022,1.44786l0.14117,-1.3417l3.24695,1.62404l-1.44786,6.56392l1.87137,-0.56469l0.84703,-5.61185l-4.83598,-3.70547l-6.42274,1.62404l-1.05935,5.89307l2.64725,5.01216l4.34131,-0.45853l0.9882,2.61111l-6.56505,0.14117l-5.11719,-6.38773l1.72907,-8.71763l10.16436,-2.9646zM157.91172,323.31401l1.27054,-0.21232l0.74087,-2.39992l-2.85844,-0.66972z" fill="url(#color-72)" stroke="none" stroke-width="1"/><path d="M185.86371,313.67933l-0.63584,2.68226l1.51788,0.03501l0.81202,-3.35311l4.23515,1.09436l-1.02434,2.75228l2.18873,0.10616l-1.44673,3.10578l-1.9764,-0.03501l-0.49467,1.48174l1.9764,0.10616l-1.05822,3.07077l-2.22374,0.07002l-1.51788,3.74161l-2.85844,-0.81202l0.77588,-2.92959l-0.95206,-0.03501l-1.16551,3.77662l-2.85844,-0.74087l0.45853,-2.78842l-2.08143,-0.07115l0.49354,-3.70547l2.29376,0.14117l0.28234,-1.76408l-2.04642,-0.17731l0.35236,-3.45814l2.36491,0.10616l0.52968,-3.07077zM183.53381,321.72611l1.80022,0.03501l0.5997,-2.25875l-1.9764,-0.03501z" fill="url(#color-73)" stroke="none" stroke-width="1"/><path d="M212.97431,309.57293l0.12649,2.8912l2.92395,0.12762l3.08206,2.50947l-2.70033,4.10075l-4.83033,-3.27405l-1.14518,1.39816l9.3433,4.70384l-3.27292,5.94276l-2.19211,0.34898l0.3806,2.66871l-3.65465,0.15924l-0.09487,-2.47897h-2.92395l-5.08444,-3.27292l3.01881,-4.16287l5.7519,3.87714l1.36654,-1.62065l-9.46979,-4.67222l3.59141,-5.71915l2.22374,-0.28686l-0.57146,-2.8912z" fill="url(#color-74)" stroke="none" stroke-width="1"/><path d="M237.46137,315.0549l-1.69406,4.09398l-4.79984,-0.49354l-1.23553,-5.15333l4.6948,-2.11757zM246.03783,314.73755l-12.88163,15.10536l-2.57723,-2.15259l12.28193,-15.7412zM232.37919,314.70254l1.09436,2.15259l1.5879,-1.12937l-0.81202,-1.5879zM246.74369,323.73751l-0.81202,4.83485l-4.58751,0.49467l-2.57723,-3.45927l3.07077,-3.77662zM241.83769,325.89011l1.30556,1.20052l1.30668,-1.55289l-1.55289,-1.09436z" fill="url(#color-75)" stroke="none" stroke-width="1"/><path d="M271.30755,314.42019l-0.42351,4.09398l-3.17693,1.72907l1.30668,1.23553l0.88204,-1.72907l4.94101,1.34057l-2.04755,3.07077l2.11757,1.48174l-1.62291,3.21194l-2.5761,-1.80022l-1.55289,2.3299l-10.23551,-0.88204l-2.1876,-5.54183l4.12899,-2.61111l-2.04755,-1.55289l-0.31735,-4.97602l7.09359,-2.64725zM262.80225,316.92627l1.87024,1.2344l2.25875,-1.30556l-0.07115,-1.30556l-3.49315,-0.49467zM262.76611,323.56134l0.56469,2.01141l3.38812,-0.10616l0.21232,-0.91705l-2.89458,-2.08256z" fill="url(#color-76)" stroke="none" stroke-width="1"/><path d="M292.58268,315.10121l-2.92395,1.49416l-0.50822,9.88314l3.87827,1.42979l-1.55853,4.29049l-5.87839,-3.81276l-0.69908,-13.66541l6.4826,-4.22724z" fill="url(#color-77)" stroke="none" stroke-width="1"/><path d="M304.6986,310.49337l6.48373,4.22724l-0.69908,13.66541l-5.87952,3.81276l-1.55741,-4.29049l3.87714,-1.42979l-0.50822,-9.88314l-2.92395,-1.49416z" fill="url(#color-78)" stroke="none" stroke-width="1"/><path d="M331.62285,320.50413l-0.22136,4.09962l-9.69228,0.22136l-0.38173,-4.70158z" fill="url(#color-79)" stroke="none" stroke-width="1"/><path d="M355.34759,330.769l-0.12762,1.87363l-12.83871,0.25524l-0.31735,-2.35135z" fill="url(#color-80)" stroke="none" stroke-width="1"/><path d="M8.3127,343.8302l-0.096,-4.06913l5.33855,0.28686l-0.3806,3.94038l3.62303,0.06324l-0.25411,4.60784l-3.59141,-0.15811l0.03162,3.87601l-5.11606,-0.22136l0.25411,-3.81389l-3.36892,0.06324v-4.79871z" fill="url(#color-81)" stroke="none" stroke-width="1"/><path d="M37.98585,341.80749l-0.28234,3.59931l-10.12935,0.3885l-0.67085,-4.27016zM37.80967,351.05367l-10.34167,0.67085l-0.42351,-4.27016l10.97638,-0.07115z" fill="url(#color-82)" stroke="none" stroke-width="1"/><path d="M48.13666,351.9967l6.03763,-16.43012l4.5446,2.31973l-7.15006,15.47693z" fill="url(#color-83)" stroke="none" stroke-width="1"/><path d="M75.89326,353.36324l-7.15006,-15.47693l4.54347,-2.31973l6.03876,16.43012z" fill="url(#color-84)" stroke="none" stroke-width="1"/><path d="M95.35462,334.83587l-0.92044,22.18089l-4.03638,0.12875l-1.01644,-22.59424z" fill="url(#color-85)" stroke="none" stroke-width="1"/><path d="M113.62449,334.58177l-0.15811,4.44973l-3.43216,-0.44497l0.25411,13.21931l3.01881,-0.25411l0.09487,4.03638l-6.73671,-0.25411l-1.3033,-20.4665z" fill="url(#color-86)" stroke="none" stroke-width="1"/><path d="M131.96663,334.8675l-1.3033,20.4665l-6.73671,0.25411l0.096,-4.03638l3.01881,0.25411l0.25411,-13.21931l-3.43216,0.44497l-0.15924,-4.44973z" fill="url(#color-87)" stroke="none" stroke-width="1"/><path d="M151.03836,337.95069l-3.11368,0.44384l0.53984,5.02232l-1.71552,1.39816l1.84314,1.84314l-0.41335,5.08444l2.95557,0.76233l-0.69908,4.44973l-7.05519,-3.43216l0.76233,-6.102l-2.16049,-2.47784l2.034,-1.84427l-1.24005,-7.18168l7.56341,-2.60546z" fill="url(#color-88)" stroke="none" stroke-width="1"/><path d="M161.89276,333.31122l7.56341,2.60546l-1.23892,7.18168l2.03287,1.84427l-2.16049,2.47784l0.76346,6.102l-7.05519,3.43216l-0.69908,-4.44973l2.95557,-0.76233l-0.41335,-5.08444l1.84314,-1.84314l-1.71552,-1.39816l0.53984,-5.02232l-3.11481,-0.44384z" fill="url(#color-89)" stroke="none" stroke-width="1"/><path d="M189.93961,339.60296l0.19086,5.05282l-4.25887,1.84314l4.29049,1.90638l-0.22249,4.67109l-9.3738,-4.73433l-0.31848,-3.84552z" fill="url(#color-90)" stroke="none" stroke-width="1"/><path d="M210.17911,344.49653l-0.31735,3.84552l-9.37493,4.73433l-0.22136,-4.67109l4.28936,-1.90638l-4.25887,-1.84314l0.19086,-5.05282z" fill="url(#color-91)" stroke="none" stroke-width="1"/><path d="M227.46416,338.49053l-2.54222,1.74827l-4.67109,-3.87714l3.52703,-2.35248z" fill="url(#color-92)" stroke="none" stroke-width="1"/><path d="M237.53478,346.2448l5.78465,-3.90876l3.84552,3.14643l3.08206,-3.24243l3.55865,5.02232l-6.29174,3.78114l-3.78114,-3.05157l-2.82908,2.79746z" fill="url(#color-93)" stroke="none" stroke-width="1"/><path d="M35.12741,149.42557l2.54109,6.00036l-2.50608,8.36414l-6.28157,2.22374l-5.85919,-3.88278l-0.31735,-9.42349l5.5407,-5.01103zM27.46913,158.60172l1.94026,2.36491l2.50608,-1.69406l0.03501,-5.50569l-3.1758,-0.45853z" fill="url(#color-94)" stroke="none" stroke-width="1"/><path d="M42.62368,161.4658l-0.25411,4.32098l-4.32211,0.25411l-0.31735,-4.70271z" fill="url(#color-95)" stroke="none" stroke-width="1"/><path d="M56.71487,149.42557l2.54109,6.00036l-2.50608,8.36414l-6.28157,2.22374l-5.85919,-3.88278l-0.31735,-9.42349l5.5407,-5.01103zM49.05659,158.60172l1.94026,2.36491l2.50608,-1.69406l0.03501,-5.50569l-3.1758,-0.45853z" fill="url(#color-96)" stroke="none" stroke-width="1"/><path d="M64.71114,161.4658l-0.25411,4.32098l-4.32211,0.25411l-0.31735,-4.70271z" fill="url(#color-97)" stroke="none" stroke-width="1"/><text transform="translate(14.04013,129.72195) scale(0.34777,0.34777)" font-size="40" xml:space="preserve" fill="#fdfdfd" fill-rule="nonzero" stroke="none" stroke-width="1" stroke-linecap="butt" stroke-linejoin="miter" stroke-miterlimit="10" stroke-dasharray="" stroke-dashoffset="0" font-family="Handwriting" font-weight="normal" text-anchor="start" style="mix-blend-mode: normal"><tspan x="0" dy="0">Yeah okay, these colours are pretty ugly on the thumb. Feel free to experiment</tspan></text><text transform="translate(5.75,225.57314) scale(0.28555,0.28555)" font-size="40" xml:space="preserve" fill="#ffffff" fill-rule="nonzero" stroke="none" stroke-width="1" stroke-linecap="butt" stroke-linejoin="miter" stroke-miterlimit="10" stroke-dasharray="" stroke-dashoffset="0" font-family="Handwriting" font-weight="normal" text-anchor="start" style="mix-blend-mode: normal"><tspan x="0" dy="0">Update I changed it on the thumb to match "Paper Mario" honestly just feel free to delete this costume</tspan><tspan x="0" dy="48px">Wait now it's basically just how it already looked. Agh!</tspan></text><path d="M146.53742,126.31724l5.40292,-4.76708l7.11844,1.42979l2.70033,6.1325l-7.40417,5.53054l6.4826,-0.76233l-0.63584,5.08331l-12.64672,-0.34898l-0.50935,-3.81276l8.32687,-6.45211l-1.20843,-1.77876l-2.79633,3.08206z" fill="url(#color-98)" stroke="none" stroke-width="1"/><g><path d="M71.85845,74.16928l15.84905,-9.27427l10.51498,2.266l-2.26081,38.05226l-12.49027,-1.02528l2.9201,-25.48929l-5.18612,5.40674z" fill="url(#color-99)" stroke="#000000" stroke-width="1"/><path d="M70.08928,71.16928l15.84905,-9.27427l10.51498,2.266l-2.26081,38.05226l-12.49027,-1.02528l2.9201,-25.48929l-5.18612,5.40674z" fill="url(#color-100)" stroke="url(#color-101)" stroke-width="3.5"/><path d="M70.10845,71.16928l15.84904,-9.27427l10.51499,2.266l-2.26081,38.05226l-12.49027,-1.02528l2.9201,-25.48929l-5.18612,5.40674z" fill="url(#color-102)" stroke="#000000" stroke-width="1"/></g><path d="M250.84744,162.28871l9.61923,8.72199l-3.42463,16.38241l-13.36728,15.07829l-9.20973,-4.48097l8.47681,-10.75903l-12.22747,0.73291l-7.00837,-14.99743l10.10697,-12.22747zM238.13222,173.45463l1.46845,5.7877l6.43716,0.40689l0.97809,-6.84665l-5.13304,-2.19876z" fill="#c2c2c2" stroke="#000000" stroke-width="1"/><path d="M248.18077,160.28871l9.61922,8.72199l-3.42463,16.38241l-13.36728,15.07829l-9.20973,-4.48097l8.47681,-10.75903l-12.22747,0.73291l-7.00836,-14.99743l10.10697,-12.22747zM235.46556,171.45463l1.46845,5.7877l6.43716,0.40689l0.9781,-6.84665l-5.13304,-2.19876z" fill="url(#color-103)" stroke="url(#color-104)" stroke-width="3.5"/><path d="M248.18077,160.28871l9.61922,8.72199l-3.42463,16.38241l-13.36728,15.07829l-9.20973,-4.48097l8.47681,-10.75903l-12.22747,0.73291l-7.00836,-14.99743l10.10697,-12.22747zM235.46556,171.45463l1.46845,5.7877l6.43716,0.40689l0.97809,-6.84665l-5.13303,-2.19876z" fill="url(#color-105)" stroke="url(#color-106)" stroke-width="3.5"/><path d="M247.84744,159.95538l9.61923,8.72199l-3.42463,16.38241l-13.36728,15.07829l-9.20973,-4.48097l8.47681,-10.75903l-12.22747,0.73292l-7.00837,-14.99743l10.10697,-12.22748zM235.13222,171.12129l1.46845,5.78771l6.43716,0.40689l0.97809,-6.84665l-5.13304,-2.19876z" fill="url(#color-107)" stroke="#000000" stroke-width="1"/></g></g></svg>