<svg version="1.1" xmlns="http://www.w3.org/2000/svg" xmlns:xlink="http://www.w3.org/1999/xlink" width="193.88677" height="152.15672" viewBox="0,0,193.88677,152.15672"><defs><radialGradient cx="245.37781" cy="190.04175" r="20.16152" gradientUnits="userSpaceOnUse" id="color-1"><stop offset="0" stop-color="#7f7f7f"/><stop offset="1" stop-color="#4d4d4d"/></radialGradient><radialGradient cx="258.77264" cy="180.61166" r="3.86808" gradientUnits="userSpaceOnUse" id="color-2"><stop offset="0" stop-color="#ffffff"/><stop offset="1" stop-color="#dadada"/></radialGradient><radialGradient cx="240.7389" cy="181.15681" r="5.27531" gradientUnits="userSpaceOnUse" id="color-3"><stop offset="0" stop-color="#ffffff"/><stop offset="1" stop-color="#dadada"/></radialGradient><radialGradient cx="232.45052" cy="197.78336" r="3.8684" gradientUnits="userSpaceOnUse" id="color-4"><stop offset="0" stop-color="#ffffff"/><stop offset="1" stop-color="#dadada"/></radialGradient><radialGradient cx="268.36404" cy="212.97325" r="17.06024" gradientUnits="userSpaceOnUse" id="color-5"><stop offset="0" stop-color="#7f7f7f"/><stop offset="1" stop-color="#4d4d4d"/></radialGradient><radialGradient cx="270.47915" cy="198.77129" r="3.27308" gradientUnits="userSpaceOnUse" id="color-6"><stop offset="0" stop-color="#ffffff"/><stop offset="1" stop-color="#dadada"/></radialGradient><radialGradient cx="259.88328" cy="209.84466" r="4.46385" gradientUnits="userSpaceOnUse" id="color-7"><stop offset="0" stop-color="#ffffff"/><stop offset="1" stop-color="#dadada"/></radialGradient><radialGradient cx="260.26593" cy="222.82164" r="3.27336" gradientUnits="userSpaceOnUse" id="color-8"><stop offset="0" stop-color="#ffffff"/><stop offset="1" stop-color="#dadada"/></radialGradient><linearGradient x1="257.28435" y1="200.96949" x2="209.07684" y2="186.39627" gradientUnits="userSpaceOnUse" id="color-9"><stop offset="0" stop-color="#ffdea5"/><stop offset="1" stop-color="#ffc79a"/></linearGradient><radialGradient cx="263.16665" cy="176.1599" r="20.16152" gradientUnits="userSpaceOnUse" id="color-10"><stop offset="0" stop-color="#7f7f7f"/><stop offset="1" stop-color="#4d4d4d"/></radialGradient><radialGradient cx="257.39559" cy="181.45941" r="5.27531" gradientUnits="userSpaceOnUse" id="color-11"><stop offset="0" stop-color="#ffffff"/><stop offset="1" stop-color="#dadada"/></radialGradient><linearGradient x1="178.71899" y1="221.61235" x2="167.9676" y2="221.7489" gradientUnits="userSpaceOnUse" id="color-12"><stop offset="0" stop-color="#ffea4d"/><stop offset="1" stop-color="#e5d745"/></linearGradient><linearGradient x1="167.90718" y1="228.73617" x2="158.97272" y2="227.96306" gradientUnits="userSpaceOnUse" id="color-13"><stop offset="0" stop-color="#ffea4d"/><stop offset="1" stop-color="#e5d745"/></linearGradient><linearGradient x1="181.01025" y1="182.37344" x2="173.086" y2="200.62157" gradientUnits="userSpaceOnUse" id="color-14"><stop offset="0" stop-color="#ffea4d"/><stop offset="1" stop-color="#e5d745"/></linearGradient><linearGradient x1="188.41171" y1="157.19124" x2="174.56511" y2="171.47619" gradientUnits="userSpaceOnUse" id="color-15"><stop offset="0" stop-color="#ffea4d"/><stop offset="1" stop-color="#e5d745"/></linearGradient><linearGradient x1="217.61015" y1="143.6298" x2="197.83008" y2="145.75974" gradientUnits="userSpaceOnUse" id="color-16"><stop offset="0" stop-color="#ffea4d"/><stop offset="1" stop-color="#e5d745"/></linearGradient><linearGradient x1="263.6806" y1="187.93288" x2="172.32567" y2="187.93288" gradientUnits="userSpaceOnUse" id="color-17"><stop offset="0" stop-color="#35cb4e"/><stop offset="1" stop-color="#109a23"/></linearGradient><radialGradient cx="223.43059" cy="189.18288" r="53.5" gradientUnits="userSpaceOnUse" id="color-18"><stop offset="0" stop-color="#ffffff"/><stop offset="1" stop-color="#dadada"/></radialGradient><linearGradient x1="234.427" y1="144.36761" x2="214.75705" y2="141.38743" gradientUnits="userSpaceOnUse" id="color-19"><stop offset="0" stop-color="#ffea4d"/><stop offset="1" stop-color="#e5d745"/></linearGradient><linearGradient x1="210.99044" y1="151.56659" x2="191.52273" y2="155.66492" gradientUnits="userSpaceOnUse" id="color-20"><stop offset="0" stop-color="#ffea4d"/><stop offset="1" stop-color="#e5d745"/></linearGradient><linearGradient x1="189.3678" y1="175.60124" x2="177.37919" y2="191.47767" gradientUnits="userSpaceOnUse" id="color-21"><stop offset="0" stop-color="#ffea4d"/><stop offset="1" stop-color="#e5d745"/></linearGradient><radialGradient cx="228.37781" cy="188.04175" r="20.16152" gradientUnits="userSpaceOnUse" id="color-22"><stop offset="0" stop-color="#7f7f7f"/><stop offset="1" stop-color="#4d4d4d"/></radialGradient><radialGradient cx="241.77264" cy="178.61166" r="3.86808" gradientUnits="userSpaceOnUse" id="color-23"><stop offset="0" stop-color="#ffffff"/><stop offset="1" stop-color="#dadada"/></radialGradient><radialGradient cx="223.7389" cy="179.15681" r="5.27531" gradientUnits="userSpaceOnUse" id="color-24"><stop offset="0" stop-color="#ffffff"/><stop offset="1" stop-color="#dadada"/></radialGradient><radialGradient cx="215.45052" cy="195.78336" r="3.8684" gradientUnits="userSpaceOnUse" id="color-25"><stop offset="0" stop-color="#ffffff"/><stop offset="1" stop-color="#dadada"/></radialGradient><radialGradient cx="251.36404" cy="210.97325" r="17.06024" gradientUnits="userSpaceOnUse" id="color-26"><stop offset="0" stop-color="#7f7f7f"/><stop offset="1" stop-color="#4d4d4d"/></radialGradient><radialGradient cx="253.47915" cy="196.77129" r="3.27308" gradientUnits="userSpaceOnUse" id="color-27"><stop offset="0" stop-color="#ffffff"/><stop offset="1" stop-color="#dadada"/></radialGradient><radialGradient cx="242.88328" cy="207.84466" r="4.46385" gradientUnits="userSpaceOnUse" id="color-28"><stop offset="0" stop-color="#ffffff"/><stop offset="1" stop-color="#dadada"/></radialGradient><radialGradient cx="243.26593" cy="220.82164" r="3.27336" gradientUnits="userSpaceOnUse" id="color-29"><stop offset="0" stop-color="#ffffff"/><stop offset="1" stop-color="#dadada"/></radialGradient><linearGradient x1="311.69167" y1="129.28447" x2="233.37566" y2="129.28447" gradientUnits="userSpaceOnUse" id="color-30"><stop offset="0" stop-color="#f28943"/><stop offset="1" stop-color="#e66022"/></linearGradient><linearGradient x1="308.23193" y1="133.95648" x2="295.19855" y2="137.43756" gradientUnits="userSpaceOnUse" id="color-31"><stop offset="0" stop-color="#ffea4d"/><stop offset="1" stop-color="#e5d745"/></linearGradient><linearGradient x1="308.70128" y1="148.40165" x2="253.90558" y2="148.40165" gradientUnits="userSpaceOnUse" id="color-32"><stop offset="0" stop-color="#35cb4e"/><stop offset="1" stop-color="#109a23"/></linearGradient><linearGradient x1="259.0876" y1="133.45648" x2="272.12098" y2="136.93756" gradientUnits="userSpaceOnUse" id="color-33"><stop offset="0" stop-color="#ffea4d"/><stop offset="1" stop-color="#e5d745"/></linearGradient><linearGradient x1="297.28342" y1="138.23096" x2="281.03584" y2="134.15946" gradientUnits="userSpaceOnUse" id="color-34"><stop offset="0" stop-color="#f37623"/><stop offset="1" stop-color="#e66022"/></linearGradient><linearGradient x1="310.05153" y1="193.43289" x2="239.05153" y2="193.43289" gradientUnits="userSpaceOnUse" id="color-35"><stop offset="0" stop-color="#ffdea5"/><stop offset="1" stop-color="#ffc79a"/></linearGradient></defs><g transform="translate(-142.15188,-104.28552)"><g data-paper-data="{&quot;isPaintingLayer&quot;:true}" fill-rule="nonzero" stroke-linejoin="miter" stroke-miterlimit="10" stroke-dasharray="" stroke-dashoffset="0" style="mix-blend-mode: normal"><g stroke="#000000"><g stroke-width="1.5" stroke-linecap="butt"><path d="M199.8793,210.20772c-7.48174,-12.81917 19.91807,-18.71224 38.61668,-10.20239c6.22124,2.83132 8.83766,9.08899 6.66189,14.99637c-2.15962,5.86354 -4.08862,11.38755 -4.08862,11.38755c0,0 1.82163,-0.1725 4.56784,0.40655c2.54299,0.5362 10.30069,5.37687 10.30069,5.37687l-6.29533,11.86262c0,0 -37.58572,-1.90086 -39.65045,-1.90086c-7.63584,0 -1.53892,-20.30926 -1.53892,-20.30926c0,0 -4.13796,-4.01716 -8.57378,-11.61745z" fill="#f29a18"/><path d="M253.61692,230.57836c0,0 7.0275,4.13164 6.58457,6.1083c-0.40272,1.79722 -8.48243,0.86392 -8.48243,0.86392c0,0 -0.15997,-2.66614 0.14663,-3.79251c0.32495,-1.19379 1.75123,-3.17972 1.75123,-3.17972z" fill="#ffffff"/><path d="M250.3349,232.75366c0,0 9.41865,5.53745 8.82501,8.18668c-0.53974,2.40873 -11.36862,1.15788 -11.36862,1.15788c0,0 -0.2144,-3.57331 0.19653,-5.08294c0.43552,-1.59998 2.34709,-4.26163 2.34709,-4.26163z" fill="#ffffff"/><path d="M247.42279,237.64647c0,0 8.52487,4.00738 8.03079,6.21227c-0.44922,2.00473 -9.46182,0.96367 -9.46182,0.96367c0,0 -0.17843,-2.97397 0.16357,-4.2304c0.36247,-1.33162 1.26747,-2.94554 1.26747,-2.94554z" fill="#ffffff"/></g><path d="M242.65899,225.34753c0,0 8.13122,2.612 11.1723,4.3349c1.95627,1.10831 4.12303,3.61197 5.60526,4.98399c1.32401,1.22557 -0.01323,3.04763 -0.01323,3.04763c0,0 1.62227,3.71107 0.26702,4.40562c-0.81974,0.4201 -3.55546,0.84442 -3.55546,0.84442c0,0 -0.70936,1.7155 -1.951,1.932c-1.79854,0.31361 -7.61356,-0.0326 -8.48273,-0.08675" fill="none" stroke-width="3" stroke-linecap="round"/></g><g stroke="#000000"><g><g data-paper-data="{&quot;index&quot;:null}"><path d="M269.14368,199.95978c0,0 -4.29565,3.62674 -8.46044,7.42877c-4.16479,3.80203 -3.39503,13.29525 -3.39503,13.29525c0,0 -9.07158,-0.52814 -13.42561,-4.76864c-4.14139,-4.03341 -6.19141,-11.84688 -6.54268,-14.3544c-0.58082,-4.14615 3.74517,-9.91282 7.24287,-13.10587c3.49771,-3.19305 8.98331,-4.6934 11.78156,-3.67115c2.03347,0.74286 3.96094,7.76619 7.81384,12.38004c3.61866,4.33334 4.9855,2.796 4.9855,2.796z" fill="#f29a18" stroke-width="1.5" stroke-linecap="butt"/><g fill="none" stroke-width="1" stroke-linecap="round"><path d="M247.57954,201.68772c0,0 2.88957,1.75128 2.3308,2.91267c-0.55877,1.16139 -4.17447,0.91938 -4.17447,0.91938"/><path d="M245.90733,206.30707c0,0 2.88956,1.75128 2.33079,2.91267c-0.55877,1.16139 -4.17447,0.91937 -4.17447,0.91937"/><path d="M250.6739,205.73621c0,0 2.88957,1.75128 2.3308,2.91267c-0.55877,1.16139 -4.17447,0.91938 -4.17447,0.91938"/><path d="M248.62077,210.70262c0,0 2.88957,1.75128 2.3308,2.91267c-0.55877,1.16139 -4.17447,0.91937 -4.17447,0.91937"/><path d="M244.23512,210.92642c0,0 2.88956,1.75128 2.33079,2.91267c-0.55877,1.16139 -4.17447,0.91937 -4.17447,0.91937"/></g></g><g stroke-width="1.5" stroke-linecap="butt"><path d="M232.01338,181.88426c4.90139,-8.65477 14.85822,-12.01862 22.23919,-7.51337c3.0474,1.86009 5.70989,16.05299 5.70989,16.05299c0,0 -3.3898,-11.13882 -14.37742,-1.39983c-11.65729,10.33256 -6.84585,18.73039 -6.84585,18.73039c0,0 -6.66962,-5.2862 -8.79507,-12.71368c-0.93502,-3.26749 0.5718,-10.51231 2.06926,-13.15649z" fill="url(#color-1)"/><path d="M256.28821,177.64693c0.90641,-0.68403 2.75351,0.08881 4.12563,1.72619c1.37212,1.63737 1.74964,3.51923 0.84323,4.20326c-0.90641,0.68403 -2.75352,-0.0888 -4.12564,-1.72618c-1.37212,-1.63737 -1.74964,-3.51924 -0.84323,-4.20327z" fill="url(#color-2)"/><path d="M241.6283,176.75135c2.7935,0.82746 4.65987,3.47064 4.16867,5.90371c-0.4912,2.43307 -3.15397,3.73467 -5.94747,2.90722c-2.7935,-0.82745 -4.65988,-3.47064 -4.16868,-5.90371c0.4912,-2.43307 3.15398,-3.73467 5.94748,-2.90722z" fill="url(#color-3)"/><path d="M229.4861,195.29804c0.8883,-1.04576 2.93561,-0.7808 4.57281,0.59181c1.6372,1.37261 2.24431,3.33308 1.35601,4.37885c-0.8883,1.04576 -2.93561,0.7808 -4.57281,-0.59181c-1.63719,-1.37261 -2.2443,-3.33308 -1.356,-4.37885z" fill="url(#color-4)"/></g><g stroke-width="1.5"><g stroke-linecap="butt"><path d="M255.39251,210.2764c1.44255,-8.29179 8.41953,-13.8062 15.58351,-12.31678c2.95782,0.61494 10.82654,9.65875 10.82654,9.65875c0,0 -7.57907,-6.40308 -13.56302,4.48491c-6.34866,11.5516 0.27026,15.07178 0.27026,15.07178c0,0 -7.21406,-0.51173 -11.02174,-5.8256c-1.67507,-2.33766 -2.53627,-8.53976 -2.09555,-11.07304z" fill="url(#color-5)"/><path d="M267.65557,197.11588c0.52762,-0.80307 2.4695,-1.46292 4.02892,-0.54865c1.55942,0.91427 2.14587,3.05642 1.61825,3.85949c-0.52762,0.80306 -2.2195,0.71292 -3.77892,-0.20135c-1.55942,-0.91427 -2.39587,-2.30643 -1.86825,-3.1095z" fill="url(#color-6)"/><path d="M257.04544,209.51199c-0.06556,-1.50105 0.65087,-2.75433 2.43732,-3.02628c1.78645,-0.27195 3.92875,-0.0238 4.01905,2.04341c0.0903,2.06722 -2.1096,3.22528 -3.65175,3.46004c-1.54216,0.23477 -2.73905,-0.97611 -2.80462,-2.47716z" fill="url(#color-7)"/><path d="M261.00871,220.85496c1.69531,0.62784 2.73708,2.01731 2.32685,3.10347c-0.41023,1.08616 -2.1171,1.45772 -3.81241,0.82988c-1.6953,-0.62783 -2.73707,-2.01731 -2.32684,-3.10347c0.41022,-1.08616 2.11709,-1.45772 3.8124,-0.82988z" fill="url(#color-8)"/></g><path d="M265.48922,217.62652c0,-7.77595 6.19007,-16.61646 13.82591,-16.61646c9.18639,0 11.56162,8.07732 11.56162,8.07732l-2.96059,6.37293l-5.54236,9.68263c0,0 -2.76974,4.53368 -4.83447,4.53368c-7.63584,0 -12.05011,-4.27417 -12.05011,-12.05011z" fill="#f29a18" stroke-linecap="butt"/><path d="M277.61493,222.40749l4.60967,2.30483" fill="none" stroke-linecap="round"/><path d="M287.27328,215.493l-5.26819,-1.75606" fill="none" stroke-linecap="round"/><path d="M295.00662,214.27562c-0.40272,1.64017 -8.48243,0.78843 -8.48243,0.78843c0,0 -0.15997,-2.43317 0.14663,-3.46112c0.32495,-1.08947 1.75123,-2.90188 1.75123,-2.90188c0,0 7.0275,3.77063 6.58457,5.57457z" fill="#ffffff" stroke-linecap="butt"/><path d="M284.94004,215.28628c0,0 9.41865,5.0536 8.82501,7.47134c-0.53974,2.19825 -11.36862,1.0567 -11.36862,1.0567c0,0 -0.2144,-3.26107 0.19653,-4.63879c0.43552,-1.46017 2.34709,-3.88925 2.34709,-3.88925z" fill="#ffffff" stroke-linecap="butt"/><path d="M279.42793,223.35158c0,0 8.52487,3.65721 8.03079,5.66944c-0.44922,1.82955 -9.46182,0.87946 -9.46182,0.87946c0,0 -0.17843,-2.71411 0.16357,-3.86075c0.36247,-1.21527 1.26747,-2.68816 1.26747,-2.68816z" fill="#ffffff" stroke-linecap="butt"/><path d="M286.50137,203.35055c0,0 7.0275,3.77063 6.58457,5.57457c-0.40272,1.64018 -9.1424,0.85527 -8.8358,-0.17269c0.32495,-1.08947 2.25122,-5.40188 2.25122,-5.40188z" fill="#ffffff" stroke-linecap="butt"/><path d="M282.73331,207.1466c0,0 1.09651,2.0222 0.42606,2.87144c-0.91746,1.16212 -5.42606,3.46189 -5.42606,3.46189" fill="none" stroke-linecap="round"/></g></g><path d="M290.62537,205.23574c0,0 3.1178,3.35072 3,4c-0.18383,1.01319 -3.33333,1 -3.33333,1c0,0 5.26446,2.2445 5.33333,3.33334c0.06013,0.95051 -6.66666,2.33334 -6.66666,2.33334c0,0 5.91631,4.6718 5.66666,6.33333c-0.21065,1.40202 -10.66666,2.33334 -10.66666,2.33334c0,0 3.37198,2.49252 3.4,4.7c0.02216,1.74589 -16.4,-0.03333 -16.4,-0.03333" fill="none" stroke-width="3" stroke-linecap="round"/></g><g stroke="#000000"><path d="M253.6157,174.43779c13.31213,4.02428 -1.1165,35.91341 -17.33136,51.0317c-7.15857,6.67446 -23.22672,15.98276 -36.53886,11.95848c-13.31213,-4.02428 19.17278,-22.35724 23.83136,-44.0317c4.65857,-21.67446 16.72672,-22.98276 30.03886,-18.95848z" fill="url(#color-9)" stroke-width="1.5" stroke-linecap="butt"/><path d="M235.543,225.76489l-4.36061,-3.13419" fill="none" stroke-width="2" stroke-linecap="round"/><path d="M244.55259,216.7553l-18.01918,-12.38819" fill="none" stroke-width="2" stroke-linecap="round"/><path d="M250.55899,206.99491l-19.89618,-10.88659" fill="none" stroke-width="2" stroke-linecap="round"/><path d="M237.42,187.47413l17.64378,9.38499" fill="none" stroke-width="2" stroke-linecap="round"/></g><g stroke="#000000" stroke-width="1.5" stroke-linecap="butt"><path d="M239.54388,160.30596l6.69348,0.22885c0,0 4.07923,6.91264 15.89076,15.63407c12.53142,9.25299 17.74033,25.38349 17.74033,25.38349c0,0 -19.00302,-9.70884 -21.90085,-10.62351c-9.48502,-2.99387 -18.42372,-30.6229 -18.42372,-30.6229z" fill="url(#color-10)"/><path d="M256.98227,186.71849c-2.48202,0.02566 -4.30905,-2.30812 -4.08078,-5.21264c0.22826,-2.90451 2.42539,-5.27988 4.90742,-5.30554c2.48203,-0.02565 4.30906,2.30813 4.08079,5.21265c-0.22827,2.90451 -2.4254,5.27988 -4.90743,5.30554z" fill="url(#color-11)"/></g><path d="M241.67829,138.50546c0,0 0.96857,0.03068 2.02533,0.16174c0.86405,0.10716 1.78704,0.28142 2.28778,0.56087" fill="none" stroke="#000000" stroke-width="1" stroke-linecap="round"/><path d="M249.1806,132.68289c0,0 -1.97831,0.25272 -3.13846,0.1077c-1.44392,-0.18049 -4.86154,-1.1077 -4.86154,-1.1077" fill="none" stroke="#000000" stroke-width="1.5" stroke-linecap="round"/><g stroke="#000000"><path d="M165.46708,248.16634c-10.27244,-2.82534 -20.11566,-6.43144 -20.50484,-8.29545c-0.18464,-0.88435 11.71366,-3.41315 24.91257,-11.00896c16.80318,-9.67002 35.81773,-24.75897 35.81773,-24.75897c0,0 3.66989,-11.48171 9.99401,-20.772c6.0429,-8.87718 27.64541,-19.28681 27.64541,-19.28681l9.50646,6.47127c0,0 -13.87891,11.30085 -23.65806,26.35461c-6.07706,9.35487 -6.42317,22.46332 -13.48136,28.20419c-32.39202,29.45355 -42.75689,25.14806 -50.23192,23.09212z" fill="#f29a18" stroke-width="1.5" stroke-linecap="butt"/><g><path d="M175.15888,229.40149c-2.07563,0.91371 -6.22316,-0.28222 -6.22316,-0.28222c0,0 -2.1123,-14.64076 -0.34989,-15.4166c1.46441,-0.64466 10.19693,11.08179 10.19693,11.08179c0,0 -1.54826,3.70331 -3.62388,4.61702z" fill="url(#color-12)" stroke-width="1.5" stroke-linecap="butt"/><path d="M169.48554,228.33048c0,0 -2.66325,-13.01466 -0.95193,-13.76751c1.2842,-0.56495 10.33895,9.98223 10.33895,9.98223" fill="none" stroke-width="3" stroke-linecap="round"/></g><g><path d="M164.31022,234.90728c-1.79801,0.58721 -5.14168,-0.74732 -5.14168,-0.74732c0,0 -0.54601,-12.32537 0.98069,-12.82397c1.26855,-0.4143 7.54934,10.03815 7.54934,10.03815c0,0 -1.59034,2.94593 -3.38834,3.53314z" fill="url(#color-13)" stroke-width="1.5" stroke-linecap="butt"/><path d="M159.6899,233.55064c0,0 -1.13734,-11.02121 0.34506,-11.50494c1.11242,-0.363 7.75786,9.13727 7.75786,9.13727" fill="none" stroke-width="3" stroke-linecap="round"/></g><path d="M190.73889,244.65124c-1.68269,1.49298 -9.87355,7.71447 -25.8315,3.80501c-15.74473,-3.85723 -20.10077,-8.31219 -20.10077,-8.31219l14.30769,-5.61538" fill="none" stroke-width="3" stroke-linecap="round"/></g><g stroke="#000000"><g stroke-width="1.5" stroke-linecap="butt"><path d="M184.8793,221.20772c-7.48174,-12.81917 19.91807,-18.71224 38.61668,-10.20239c6.22124,2.83132 8.83766,9.08899 6.66189,14.99637c-2.15962,5.86354 -4.08862,11.38755 -4.08862,11.38755c0,0 1.82163,-0.1725 4.56784,0.40655c2.54299,0.5362 10.30069,5.37687 10.30069,5.37687l-6.29533,11.86262c0,0 -37.58572,-1.90086 -39.65045,-1.90086c-7.63584,0 -1.53892,-20.30926 -1.53892,-20.30926c0,0 -4.13796,-4.01716 -8.57378,-11.61745z" fill="#f29a18"/><path d="M238.61692,240.57836c0,0 7.0275,4.13164 6.58457,6.1083c-0.40272,1.79722 -8.48243,0.86392 -8.48243,0.86392c0,0 -0.15997,-2.66614 0.14663,-3.79251c0.32495,-1.19379 1.75123,-3.17972 1.75123,-3.17972z" fill="#ffffff"/><path d="M235.3349,242.75366c0,0 9.41865,5.53745 8.82501,8.18668c-0.53974,2.40873 -11.36862,1.15788 -11.36862,1.15788c0,0 -0.2144,-3.57331 0.19653,-5.08294c0.43552,-1.59998 2.34709,-4.26163 2.34709,-4.26163z" fill="#ffffff"/><path d="M232.42279,247.64647c0,0 8.52487,4.00738 8.03079,6.21227c-0.44922,2.00473 -9.46182,0.96367 -9.46182,0.96367c0,0 -0.17843,-2.97397 0.16357,-4.2304c0.36247,-1.33162 1.26747,-2.94554 1.26747,-2.94554z" fill="#ffffff"/></g><path d="M245.55904,246.75475c-0.55092,1.14894 -2.4375,0.9125 -2.4375,0.9125c0,0 2.24307,2.29304 1.5375,3.875c-0.70557,1.58196 -3.975,1.1375 -3.975,1.1375c0,0 0.51261,1.58314 -0.025,2.2625c-1.66729,2.10691 -10.11013,0.78436 -10.11013,0.78436c0,0 -36.36428,-1.72272 -37.10915,-3.19807c-1.03022,-2.04056 -1.91611,-5.98331 -2.24023,-7.53608" fill="none" stroke-width="3" stroke-linecap="round"/></g><g stroke="#000000"><path d="M186.25887,204.57798c0,0 -26.31057,-7.53988 -26.28315,-11.10267c0.02277,-2.96037 26.43631,-8.80351 26.43631,-8.80351c0,0 5.07553,5.42181 5.04325,9.61775c-0.03229,4.19595 -5.19641,10.28843 -5.19641,10.28843z" fill="url(#color-14)" stroke-width="3" stroke-linecap="butt"/><path d="M193.98738,172.02379c-1.50888,3.91539 -8.48873,7.79717 -8.48873,7.79717c0,0 -21.96561,-16.32813 -20.68441,-19.65269c1.06456,-2.76244 27.84276,1.0775 27.84276,1.0775c0,0 2.83925,6.86262 1.33038,10.77801z" fill="url(#color-15)" stroke-width="3" stroke-linecap="butt"/><path d="M200.90105,159.16671c0,0 -6.44876,-26.59904 -3.33796,-28.33604c2.58481,-1.44331 20.71875,18.63099 20.71875,18.63099c0,0 -2.20489,7.09193 -5.86851,9.13762c-3.66363,2.04569 -11.51228,0.56743 -11.51228,0.56743z" fill="url(#color-16)" stroke-width="3" stroke-linecap="butt"/><path d="M218.00313,143.18288c10.30405,0 19.81121,3.34258 27.45341,8.98131c2.16962,1.60084 0.61992,10.61757 -3.97825,14.26356c-5.50329,4.36368 -14.94087,3.84495 -21.73381,11.80963c-7.0509,8.26713 -6.56138,24.78175 -12.07429,32.58491c-7.37609,10.44038 -19.96638,10.81696 -22.67589,8.04252c-7.84777,-8.03584 -12.66863,-18.93233 -12.66863,-30.93193c0,-24.71474 20.45049,-44.75 45.67746,-44.75z" fill="url(#color-17)" stroke-width="1.5" stroke-linecap="butt"/><path d="M177.75688,212.60741c0,0 -1.76906,1.75641 18.51201,0.33608c1.34093,-0.09391 6.61011,-1.34979 11.19558,-11.09749c3.57777,-7.60553 1.65246,-22.31486 5.45844,-27.48474c3.55382,-4.82737 12.15947,-6.74629 21.48834,-11.31179c9.32887,-4.5655 -1.52483,-20.60856 17.54496,-15.8212c3.72763,0.9358 -1.68518,4.41557 -2.51764,8.90978c-1.19234,6.43716 0.70284,14.42973 -1.25797,15.54483c-7.40564,4.21156 -19.95456,3.27062 -25.98948,8.58026c-4.80697,4.22928 -0.9455,29.45988 -4.75232,34.22663c-6.28563,7.87061 -23.71184,13.57916 -32.29987,10.98924c-7.98572,-2.40828 -7.38206,-12.87161 -7.38206,-12.87161z" fill="url(#color-18)" stroke-width="1.5" stroke-linecap="butt"/><path d="M214.31067,155.13438c0,0 0.54131,-27.36426 3.99201,-28.25132c2.86724,-0.73708 15.28791,23.29507 15.28791,23.29507c0,0 -3.93909,6.29608 -8.00302,7.34079c-4.06394,1.04471 -11.2769,-2.38454 -11.2769,-2.38454z" fill="url(#color-19)" stroke-width="1.5" stroke-linecap="butt"/><path d="M195.91973,168.69735c0,0 -9.07777,-25.82034 -6.15638,-27.85987c2.42743,-1.69468 22.47891,16.46449 22.47891,16.46449c0,0 -1.48425,7.27695 -4.9248,9.67894c-3.44056,2.40199 -11.39773,1.71644 -11.39773,1.71644z" fill="url(#color-20)" stroke-width="1.5" stroke-linecap="butt"/><path d="M189.25428,198.41738c0,0 -23.80359,-13.50868 -22.94013,-16.96536c0.71746,-2.87221 27.7645,-2.34798 27.7645,-2.34798c0,0 3.66009,6.46226 2.64318,10.53324c-1.01691,4.07098 -7.46755,8.7801 -7.46755,8.7801z" fill="url(#color-21)" stroke-width="1.5" stroke-linecap="butt"/><path d="M212.43185,142.25473c0,0 3.45626,-13.75541 6.01799,-13.75541c1.60862,0 12.66137,16.54488 12.66137,16.54488l4.96274,1.07923" fill="none" stroke-width="3" stroke-linecap="round"/><path d="M180.62247,159.01912l8.98045,-6.80059c0,0 -0.69666,-8.84236 0.79654,-9.96956c1.37891,-1.04091 7.84712,3.01475 7.84712,3.01475" fill="none" stroke-width="3" stroke-linecap="round"/><path d="M170.73578,187.60457c0,0 -4.74438,-4.82962 -4.24446,-6.55661c0.36622,-1.26511 6.96972,-2.85793 6.96972,-2.85793l2.00315,-6.92" fill="none" stroke-width="3" stroke-linecap="round"/></g><g fill="none" stroke="#000000" stroke-width="1" stroke-linecap="round"><path d="M229.71481,222.06879c0,0 -0.50262,3.34126 -1.78963,3.27315c-1.28701,-0.06811 -2.45693,-3.49785 -2.45693,-3.49785"/><path d="M224.80782,222.30568c0,0 -0.50262,3.34125 -1.78963,3.27314c-1.28701,-0.0681 -2.45692,-3.49785 -2.45692,-3.49785"/><path d="M227.1713,226.4842c0,0 -0.50262,3.34126 -1.78963,3.27315c-1.28701,-0.06811 -2.45693,-3.49785 -2.45693,-3.49785"/><path d="M221.79727,226.50333c0,0 -0.50262,3.34126 -1.78963,3.27315c-1.28702,-0.06811 -2.45692,-3.49786 -2.45692,-3.49786"/><path d="M219.90083,222.54257c0,0 -0.50262,3.34125 -1.78963,3.27314c-1.28702,-0.0681 -2.45692,-3.49785 -2.45692,-3.49785"/></g><g stroke="#000000"><g><g data-paper-data="{&quot;index&quot;:null}"><path d="M252.14368,197.95978c0,0 -4.29565,3.62674 -8.46044,7.42877c-4.16479,3.80203 -3.39503,13.29525 -3.39503,13.29525c0,0 -9.07158,-0.52814 -13.42561,-4.76864c-4.14139,-4.03341 -6.19141,-11.84688 -6.54268,-14.3544c-0.58082,-4.14615 3.74517,-9.91282 7.24287,-13.10587c3.49771,-3.19305 8.98331,-4.6934 11.78156,-3.67115c2.03347,0.74286 3.96094,7.76619 7.81384,12.38004c3.61866,4.33334 4.9855,2.796 4.9855,2.796z" fill="#f29a18" stroke-width="1.5" stroke-linecap="butt"/><g fill="none" stroke-width="1" stroke-linecap="round"><path d="M230.57954,199.68772c0,0 2.88957,1.75128 2.3308,2.91267c-0.55877,1.16139 -4.17447,0.91938 -4.17447,0.91938"/><path d="M228.90733,204.30707c0,0 2.88956,1.75128 2.33079,2.91267c-0.55877,1.16139 -4.17447,0.91937 -4.17447,0.91937"/><path d="M233.6739,203.73621c0,0 2.88957,1.75128 2.3308,2.91267c-0.55877,1.16139 -4.17447,0.91938 -4.17447,0.91938"/><path d="M231.62077,208.70262c0,0 2.88957,1.75128 2.3308,2.91267c-0.55877,1.16139 -4.17447,0.91937 -4.17447,0.91937"/><path d="M227.23512,208.92642c0,0 2.88956,1.75128 2.33079,2.91267c-0.55877,1.16139 -4.17447,0.91937 -4.17447,0.91937"/></g></g><g stroke-width="1.5" stroke-linecap="butt"><path d="M215.01338,179.88426c4.90139,-8.65477 14.85822,-12.01862 22.23919,-7.51337c3.0474,1.86009 5.70989,16.05299 5.70989,16.05299c0,0 -3.3898,-11.13882 -14.37742,-1.39983c-11.65729,10.33256 -6.84585,18.73039 -6.84585,18.73039c0,0 -6.66962,-5.2862 -8.79507,-12.71368c-0.93502,-3.26749 0.5718,-10.51231 2.06926,-13.15649z" fill="url(#color-22)"/><path d="M239.28821,175.64693c0.90641,-0.68403 2.75351,0.08881 4.12563,1.72619c1.37212,1.63737 1.74964,3.51923 0.84323,4.20326c-0.90641,0.68403 -2.75352,-0.0888 -4.12564,-1.72618c-1.37212,-1.63737 -1.74964,-3.51924 -0.84323,-4.20327z" fill="url(#color-23)"/><path d="M224.6283,174.75135c2.7935,0.82746 4.65987,3.47064 4.16867,5.90371c-0.4912,2.43307 -3.15397,3.73467 -5.94747,2.90722c-2.7935,-0.82745 -4.65988,-3.47064 -4.16868,-5.90371c0.4912,-2.43307 3.15398,-3.73467 5.94748,-2.90722z" fill="url(#color-24)"/><path d="M212.4861,193.29804c0.8883,-1.04576 2.93561,-0.7808 4.57281,0.59181c1.6372,1.37261 2.24431,3.33308 1.35601,4.37885c-0.8883,1.04576 -2.93561,0.7808 -4.57281,-0.59181c-1.63719,-1.37261 -2.2443,-3.33308 -1.356,-4.37885z" fill="url(#color-25)"/></g><g stroke-width="1.5" stroke-linecap="butt"><path d="M238.39251,208.2764c1.44255,-8.29179 8.41953,-13.8062 15.58351,-12.31678c2.95782,0.61494 10.82654,9.65875 10.82654,9.65875c0,0 -7.57907,-6.40308 -13.56302,4.48491c-6.34866,11.5516 0.27026,15.07178 0.27026,15.07178c0,0 -7.21406,-0.51173 -11.02174,-5.8256c-1.67507,-2.33766 -2.53627,-8.53976 -2.09555,-11.07304z" fill="url(#color-26)"/><path d="M250.65557,195.11588c0.52762,-0.80307 2.4695,-1.46292 4.02892,-0.54865c1.55942,0.91427 2.14587,3.05642 1.61825,3.85949c-0.52762,0.80306 -2.2195,0.71292 -3.77892,-0.20135c-1.55942,-0.91427 -2.39587,-2.30643 -1.86825,-3.1095z" fill="url(#color-27)"/><path d="M240.04544,207.51199c-0.06556,-1.50105 0.65087,-2.75433 2.43732,-3.02628c1.78645,-0.27195 3.92875,-0.0238 4.01905,2.04341c0.0903,2.06722 -2.1096,3.22528 -3.65175,3.46004c-1.54216,0.23477 -2.73905,-0.97611 -2.80462,-2.47716z" fill="url(#color-28)"/><path d="M244.00871,218.85496c1.69531,0.62784 2.73708,2.01731 2.32685,3.10347c-0.41023,1.08616 -2.1171,1.45772 -3.81241,0.82988c-1.6953,-0.62783 -2.73707,-2.01731 -2.32684,-3.10347c0.41022,-1.08616 2.11709,-1.45772 3.8124,-0.82988z" fill="url(#color-29)"/></g><g stroke-width="1.5"><path d="M248.48922,215.62652c0,-7.77595 6.19007,-16.61646 13.82591,-16.61646c9.18639,0 11.56162,8.07732 11.56162,8.07732l-2.96059,6.37293l-5.54236,9.68263c0,0 -2.76974,4.53368 -4.83447,4.53368c-7.63584,0 -12.05011,-4.27417 -12.05011,-12.05011z" fill="#f29a18" stroke-linecap="butt"/><path d="M260.61493,220.40749l4.60967,2.30483" fill="none" stroke-linecap="round"/><path d="M270.27328,213.493l-5.26819,-1.75606" fill="none" stroke-linecap="round"/><path d="M273.62077,207.09984l-7.51814,-3.0731" fill="none" stroke-linecap="round"/><path d="M269.50137,201.35055c0,0 7.0275,3.77063 6.58457,5.57457c-0.40272,1.64018 -8.6424,-1.64473 -8.3358,-2.67269c0.32495,-1.08947 1.75122,-2.90188 1.75122,-2.90188z" fill="#ffffff" stroke-linecap="butt"/><path d="M278.00662,212.27562c-0.40272,1.64017 -8.48243,0.78843 -8.48243,0.78843c0,0 -0.15997,-2.43317 0.14663,-3.46112c0.32495,-1.08947 1.75123,-2.90188 1.75123,-2.90188c0,0 7.0275,3.77063 6.58457,5.57457z" fill="#ffffff" stroke-linecap="butt"/><path d="M267.94004,213.28628c0,0 9.41865,5.0536 8.82501,7.47134c-0.53974,2.19825 -11.36862,1.0567 -11.36862,1.0567c0,0 -0.2144,-3.26107 0.19653,-4.63879c0.43552,-1.46017 2.34709,-3.88925 2.34709,-3.88925z" fill="#ffffff" stroke-linecap="butt"/><path d="M262.42793,221.35158c0,0 8.52487,3.65721 8.03079,5.66944c-0.44922,1.82955 -9.46182,0.87946 -9.46182,0.87946c0,0 -0.17843,-2.71411 0.16357,-3.86075c0.36247,-1.21527 1.26747,-2.68816 1.26747,-2.68816z" fill="#ffffff" stroke-linecap="butt"/></g></g><path d="M269.95678,229.28828c-1.8972,0.0942 -5.90819,0.26653 -6.84281,0.09264c-1.10529,-0.20564 -2.58509,-1.64374 -3.95604,-1.8988c-7.25719,-1.35018 -15.76849,-3.37553 -15.76849,-3.37553" fill="none" stroke-width="3" stroke-linecap="round"/></g><g><g stroke-linecap="butt"><path d="M255.09929,121.38815c2.1893,-0.45897 1.93705,-4.09423 3.84267,-5.28808c2.83616,-1.77683 7.41451,-1.18344 7.41451,-1.18344c0,0 -0.60921,-8.22584 3.03139,-8.91132c3.64061,-0.68548 2.66402,2.40471 6.58952,3.78811c3.69795,1.30321 -0.16494,-1.91542 10.20937,-0.16128c5.92262,1.00143 10.69639,7.17278 12.65568,8.7564c4.73643,3.82828 -2.94856,19.79435 -2.94856,19.79435c0,0 18.5899,-6.22224 15.43793,-1c-1.08023,1.78975 -8.14985,8 -13.11687,8c-1.30235,0 -11.80835,-17.72826 -20.16039,-15.55977c-8.55878,2.22218 -13.16062,15.96339 -22.3788,16.13422c-26.66725,0.49418 -14.53147,7.88859 -17.1804,6.79379c-4.12175,-2.06431 2.05069,-12.26343 2.05069,-12.26343c0,0 -8.34107,-0.16609 -7.03069,-1.95502c2.53677,-3.46318 9.21756,-6.21393 9.21756,-6.21393c0,0 -10.39344,-11.5533 -0.17226,-7.93586c9.19478,3.25418 7.23149,-1.68215 12.53865,-2.79474z" fill="url(#color-30)" stroke="#000000" stroke-width="3.5"/><path d="M293.94986,131.31823c0,0 3.92192,-1.0828 5.72803,-2.92597c1.8642,-1.90245 7.78841,-8.31653 7.78841,-8.31653c0,0 1.06066,2.12201 0.45858,4.78486c-0.73781,3.26319 -3.22,7.33857 -3.93756,9.31638c-1.50687,4.1534 -7.54005,9.37992 -7.54005,9.37992c0,0 -3.53294,-3.562 -4.1348,-6.51144c-0.60186,-2.94944 1.63739,-5.72722 1.63739,-5.72722z" data-paper-data="{&quot;index&quot;:null}" fill="url(#color-31)" stroke="#000000" stroke-width="3.5"/><path d="M281.30343,125.40165c15.13142,0 28.60215,19.5 28.60215,19.5l-28.60215,13c0,0 -27.39785,2.9264 -27.39785,-9.5c0,-12.4264 12.26643,-23 27.39785,-23z" fill="url(#color-32)" stroke="#000000" stroke-width="1.5"/><path d="M273.36968,130.81823c0,0 2.23925,2.77778 1.63739,5.72722c-0.60186,2.94945 -4.1348,6.51144 -4.1348,6.51144c0,0 -6.03318,-5.22652 -7.54005,-9.37992c-0.71755,-1.97781 -3.19975,-6.05319 -3.93756,-9.31638c-0.60207,-2.66285 0.45859,-4.78486 0.45859,-4.78486c0,0 5.92422,6.41408 7.78841,8.31653c1.80611,1.84317 5.72802,2.92597 5.72802,2.92597z" fill="url(#color-33)" stroke="#000000" stroke-width="1.5"/><g><path d="M287.4306,137.68289c4.00407,0 7.25,3.80558 7.25,8.5c0,4.69442 -3.24593,8.5 -7.25,8.5c-4.00407,0 -7.25,-3.80558 -7.25,-8.5c0,-4.69442 3.24593,-8.5 7.25,-8.5z" fill="#ffffff" stroke="#000000" stroke-width="1.5"/><path d="M295.99138,143.38697c0,0 -6.12912,-3.22198 -8.92976,-3.9238c-2.60033,-0.65162 -7.31782,-0.14769 -7.31782,-0.14769l3.79849,-4.94944l-3.11363,-2.88786c0,0 8.93648,-0.76595 11.12254,1.53532c2.35574,2.47987 4.44019,10.37347 4.44019,10.37347z" fill="url(#color-34)" stroke="#000000" stroke-width="1.5"/><path d="M291.6806,142.18289c1.933,0 3.5,2.3505 3.5,5.25c0,2.8995 -1.567,5.25 -3.5,5.25c-1.933,0 -3.5,-2.3505 -3.5,-5.25c0,-2.8995 1.567,-5.25 3.5,-5.25z" fill="#000000" stroke="none" stroke-width="0"/></g></g><g stroke="#000000"><g><g stroke-linecap="butt"><g><g stroke-width="1.5"><path d="M280.2753,162.46548c8.95173,0 14.88544,9.23551 18.86084,17.97674c3.83111,8.42396 4.23651,17.38734 -13.26153,17.38734c-8.95172,0 -21.80784,-8.37398 -21.80784,-17.97674c0,-9.60276 7.2568,-17.38734 16.20853,-17.38734z" fill="#720000"/><path d="M283.22863,175.79967c6.39251,3.51588 9.42776,10.2695 6.77944,15.08463c-2.64833,4.81514 -9.97737,5.8684 -16.36988,2.35252c-6.39251,-3.51588 -9.42777,-10.26951 -6.77944,-15.08464c2.64833,-4.81514 9.97737,-5.86839 16.36988,-2.35251z" fill="#ff0000"/></g><path d="M281.51423,179.30964c2.25962,0.30767 1.27209,14.15727 1.27209,14.15727l-8.7736,-1.76063c0,0 5.01628,-12.73502 7.50151,-12.39664z" data-paper-data="{&quot;index&quot;:null}" fill="#ffffff" stroke-width="1.5"/><path d="M302.14818,182.55503c1.99506,0.46988 0.22124,14.21215 0.22124,14.21215l-7.70986,-2.38897c0,0 5.29437,-12.33997 7.48862,-11.82318z" data-paper-data="{&quot;index&quot;:null}" fill="#ffffff" stroke-width="2.5"/><path d="M303.5961,172.92822c0,0 -5.92192,12.33997 -8.37626,11.82318c-2.23153,-0.46987 -0.24746,-14.21215 -0.24746,-14.21215l8.62373,2.38897z" fill="#ffffff" stroke-width="2.5"/><path d="M314.71985,190.7514c-2.23153,-0.46987 -0.24747,-14.21215 -0.24747,-14.21215l8.62373,2.38897c0,0 -5.92192,12.33997 -8.37626,11.82318z" fill="#ffffff" stroke-width="2.5"/></g><path d="M291.5961,162.42822c0,0 -5.92192,12.33997 -8.37626,11.82318c-2.23153,-0.46987 -0.24746,-14.21215 -0.24746,-14.21215l8.62373,2.38897z" fill="#ffffff" stroke-width="1.5"/></g><g><path d="M247.55154,161.93289c-1.88052,-33.20088 41,-7.25 41,-7.25c0,0 13.92629,-15.47201 26.90613,-13.36868c8.90944,1.44374 20.03437,2.98924 18.57097,22.60073c-0.88499,11.85991 -5.09089,13.15213 -7.81007,14.7107c-4.16329,2.38631 -9.70479,-0.03023 -9.70479,-0.03023c0,0 -1.95083,1.76621 -13.49776,-0.56551c-11.54693,-2.33172 -24.80226,-12.05471 -24.80226,-12.05471l-9.84591,8.71208l9.2398,14.77563c0,0 18.3344,-2.36964 24.44387,-0.78001c9.6282,2.50517 10.14395,10.02855 7.16545,12.92163c-9.47331,9.20161 -15.41441,-0.49146 -15.41441,-0.49146c0,0 -6.63818,7.61445 -12.50461,6.78095c-12.81596,-1.82089 -12.93723,-14.99694 -12.93723,-14.99694c0,0 -4.24726,-4.32395 -5.71811,-6.96192c-1.29192,-2.31705 -2.64002,-8.02835 -2.64002,-8.02835c0,0 -11.50239,0.77502 -12.45106,-15.97391z" fill="url(#color-35)" stroke-width="1.5" stroke-linecap="butt"/><path d="M308.34286,149.89546c0,0 2.3313,-0.88555 4.4561,0.09512c2.12479,0.98067 2.0439,2.90488 2.0439,2.90488" fill="none" stroke-width="2" stroke-linecap="round"/><path d="M319.91733,175.97488c-0.75365,1.13048 -3.50976,2.4834 -3.50976,2.4834" fill="none" stroke-width="1.5" stroke-linecap="round"/><path d="M307.80893,140.77059c0,0 21.29883,-2.96226 25.61249,15.47586c4.31366,18.43811 -8.86736,23.01696 -8.86736,23.01696" fill="none" stroke-width="3.5" stroke-linecap="round"/></g></g><path d="M304.29204,188.56908c0,0 12.22404,7.4539 4.79917,13.56198c-8.55331,7.0364 -15.32274,0.00335 -15.32274,0.00335l-2.20572,2.02334" fill="none" stroke-width="3" stroke-linecap="round"/></g></g></g></g></svg>