<svg version="1.1" xmlns="http://www.w3.org/2000/svg" xmlns:xlink="http://www.w3.org/1999/xlink" width="61" height="66" viewBox="0,0,61,66"><g transform="translate(-209.5,-147)"><g data-paper-data="{&quot;isPaintingLayer&quot;:true}" fill-rule="nonzero" stroke="none" stroke-width="0" stroke-linecap="butt" stroke-linejoin="miter" stroke-miterlimit="10" stroke-dasharray="" stroke-dashoffset="0" style="mix-blend-mode: normal"><path d="M270.5,180c0,18.2254 -13.65532,33 -30.5,33c-16.84468,0 -30.5,-14.7746 -30.5,-33c0,-18.2254 13.65532,-33 30.5,-33c16.84468,0 30.5,14.7746 30.5,33z" fill="#7df463"/><g fill="#e88282"><path d="M224.49306,153.89093c0,3.25347 -1.96652,5.89093 -4.39236,5.89093c-2.42584,0 -4.39236,-2.63747 -4.39236,-5.89093c0,-3.25347 1.96652,-5.89093 4.39236,-5.89093c2.42584,0 4.39236,2.63746 4.39236,5.89093z"/><path d="M230.64236,154.1875c0,3.25347 -1.96652,5.89093 -4.39236,5.89093c-2.42584,0 -4.39236,-2.63746 -4.39236,-5.89093c0,-3.25347 1.96652,-5.89093 4.39236,-5.89093c2.42584,0 4.39236,2.63746 4.39236,5.89093z"/><path d="M231.29167,163.00367c0,3.25347 -1.96652,5.89094 -4.39236,5.89094c-2.42584,0 -4.39236,-2.63747 -4.39236,-5.89094c0,-3.25347 1.96652,-5.89093 4.39236,-5.89093c2.42584,0 4.39236,2.63746 4.39236,5.89093z"/><path d="M224.49306,163.1924c0,3.25347 -1.96652,5.89094 -4.39236,5.89094c-2.42584,0 -4.39236,-2.63747 -4.39236,-5.89094c0,-3.25347 1.96652,-5.89093 4.39236,-5.89093c2.42584,0 4.39236,2.63746 4.39236,5.89093z"/></g><g fill="#e882dc"><path d="M254.49306,164.89093c0,3.25347 -1.96652,5.89093 -4.39236,5.89093c-2.42584,0 -4.39236,-2.63746 -4.39236,-5.89093c0,-3.25347 1.96652,-5.89093 4.39236,-5.89093c2.42584,0 4.39236,2.63746 4.39236,5.89093z"/><path d="M260.64236,165.1875c0,3.25347 -1.96652,5.89093 -4.39236,5.89093c-2.42584,0 -4.39236,-2.63746 -4.39236,-5.89093c0,-3.25347 1.96653,-5.89093 4.39236,-5.89093c2.42584,0 4.39236,2.63746 4.39236,5.89093z"/><path d="M261.29167,174.00367c0,3.25347 -1.96652,5.89094 -4.39236,5.89094c-2.42584,0 -4.39236,-2.63747 -4.39236,-5.89094c0,-3.25347 1.96652,-5.89093 4.39236,-5.89093c2.42584,0 4.39236,2.63746 4.39236,5.89093z"/><path d="M254.49306,174.1924c0,3.25347 -1.96652,5.89094 -4.39236,5.89094c-2.42584,0 -4.39236,-2.63747 -4.39236,-5.89094c0,-3.25347 1.96652,-5.89093 4.39236,-5.89093c2.42584,0 4.39236,2.63746 4.39236,5.89093z"/></g><g fill="#e8da82"><path d="M239.49306,182.89093c0,3.25347 -1.96652,5.89094 -4.39236,5.89094c-2.42584,0 -4.39236,-2.63747 -4.39236,-5.89094c0,-3.25347 1.96652,-5.89093 4.39236,-5.89093c2.42584,0 4.39236,2.63746 4.39236,5.89093z"/><path d="M245.64236,183.1875c0,3.25347 -1.96652,5.89093 -4.39236,5.89093c-2.42584,0 -4.39236,-2.63746 -4.39236,-5.89093c0,-3.25347 1.96653,-5.89093 4.39236,-5.89093c2.42584,0 4.39236,2.63746 4.39236,5.89093z"/><path d="M246.29167,192.00367c0,3.25347 -1.96652,5.89094 -4.39236,5.89094c-2.42584,0 -4.39236,-2.63747 -4.39236,-5.89094c0,-3.25347 1.96652,-5.89093 4.39236,-5.89093c2.42584,0 4.39236,2.63746 4.39236,5.89093z"/><path d="M239.49306,192.1924c0,3.25347 -1.96652,5.89094 -4.39236,5.89094c-2.42584,0 -4.39236,-2.63747 -4.39236,-5.89094c0,-3.25347 1.96652,-5.89093 4.39236,-5.89093c2.42584,0 4.39236,2.63746 4.39236,5.89093z"/></g><g fill="#82b3e8"><path d="M260.49306,194.89093c0,3.25347 -1.96652,5.89094 -4.39236,5.89094c-2.42584,0 -4.39236,-2.63747 -4.39236,-5.89094c0,-3.25347 1.96652,-5.89093 4.39236,-5.89093c2.42584,0 4.39236,2.63746 4.39236,5.89093z"/><path d="M266.64236,195.1875c0,3.25347 -1.96652,5.89093 -4.39236,5.89093c-2.42584,0 -4.39236,-2.63746 -4.39236,-5.89093c0,-3.25347 1.96653,-5.89093 4.39236,-5.89093c2.42584,0 4.39236,2.63746 4.39236,5.89093z"/><path d="M267.29167,204.00367c0,3.25347 -1.96652,5.89094 -4.39236,5.89094c-2.42584,0 -4.39236,-2.63747 -4.39236,-5.89094c0,-3.25347 1.96652,-5.89093 4.39236,-5.89093c2.42584,0 4.39236,2.63746 4.39236,5.89093z"/><path d="M260.49306,204.1924c0,3.25347 -1.96652,5.89094 -4.39236,5.89094c-2.42584,0 -4.39236,-2.63747 -4.39236,-5.89094c0,-3.25347 1.96652,-5.89093 4.39236,-5.89093c2.42584,0 4.39236,2.63746 4.39236,5.89093z"/></g><g fill="#82e8bf"><path d="M221.49306,191.89093c0,3.25347 -1.96652,5.89094 -4.39236,5.89094c-2.42584,0 -4.39236,-2.63747 -4.39236,-5.89094c0,-3.25347 1.96652,-5.89093 4.39236,-5.89093c2.42584,0 4.39236,2.63746 4.39236,5.89093z"/><path d="M227.64236,192.1875c0,3.25347 -1.96652,5.89093 -4.39236,5.89093c-2.42584,0 -4.39236,-2.63746 -4.39236,-5.89093c0,-3.25347 1.96653,-5.89093 4.39236,-5.89093c2.42584,0 4.39236,2.63746 4.39236,5.89093z"/><path d="M228.29167,201.00367c0,3.25347 -1.96652,5.89094 -4.39236,5.89094c-2.42584,0 -4.39236,-2.63747 -4.39236,-5.89094c0,-3.25347 1.96652,-5.89093 4.39236,-5.89093c2.42584,0 4.39236,2.63746 4.39236,5.89093z"/><path d="M221.49306,201.1924c0,3.25347 -1.96652,5.89094 -4.39236,5.89094c-2.42584,0 -4.39236,-2.63747 -4.39236,-5.89094c0,-3.25347 1.96652,-5.89093 4.39236,-5.89093c2.42584,0 4.39236,2.63746 4.39236,5.89093z"/></g></g></g></svg>