<svg version="1.1" xmlns="http://www.w3.org/2000/svg" xmlns:xlink="http://www.w3.org/1999/xlink" width="464.58297" height="556.97268" viewBox="0,0,464.58297,556.97268"><g transform="translate(-133.79179,98.48634)"><g data-paper-data="{&quot;isPaintingLayer&quot;:true}" fill-rule="nonzero" stroke-linejoin="miter" stroke-dasharray="" stroke-dashoffset="0" style="mix-blend-mode: normal"><path d="M138.85915,270.95669v-207.14146h206.90447v207.14146z" fill="#e4c2af" stroke="#000000" stroke-width="1.5" stroke-linecap="butt" stroke-miterlimit="10"/><path d="M139.26362,254.95669v-200.14146h207v200.14146z" fill="#ffefd7" stroke="#000000" stroke-width="1.5" stroke-linecap="butt" stroke-miterlimit="10"/><path d="M344.5,62.00007v185.5" fill="none" stroke="#531d11" stroke-width="0.5" stroke-linecap="round" stroke-miterlimit="10"/><path d="M141.27478,55.00007l0.79087,190.5" fill="none" stroke="#000000" stroke-width="0.5" stroke-linecap="round" stroke-miterlimit="10"/><path d="M598.37476,458.48634h-464.58297v-556.97268h464.58297z" fill="none" stroke="none" stroke-width="NaN" stroke-linecap="butt" stroke-miterlimit="10"/><path d="M268.65858,173.27074l2.41249,0.37054l1.50582,4.51355l-1.81725,0.22863l-0.25622,-1.19442l-1.41911,0.22863l-0.25623,0.9106h-0.02759l-1.67533,-0.37054zM269.42332,175.99858h0.85541l-0.31536,-1.24961l-0.3666,0.14191z" fill="#000000" stroke="#000000" stroke-width="2" stroke-linecap="butt" stroke-miterlimit="4"/><path d="M278.06804,173.25497l1.64379,1.26536l-0.45332,1.38364l0.59524,0.7608v0.0473l-0.85541,1.43094l-3.26789,0.24046l-0.7411,-4.53326l3.07868,-0.59523zM276.77903,174.47303l0.14191,1.40728l1.04856,-0.28776l0.2168,-0.76474zM277.3506,176.38094h-0.26017l-0.09856,0.95396l1.24171,-0.19317l-0.0473,-0.78444z" fill="#000000" stroke="#000000" stroke-width="2" stroke-linecap="butt" stroke-miterlimit="4"/><path d="M284.93886,173.25497l1.76206,0.72926l-0.56371,1.19835h-0.02366l-1.10769,-0.49274l-0.93818,0.65831l0.13797,1.222l1.17865,0.47303l0.84752,-0.80021l0.70561,1.1274v0.07095l-1.74235,0.94213l-2.2351,-0.77657l-0.70561,-2.32969l1.01308,-1.41121l1.67139,-0.61101z" fill="#000000" stroke="#000000" stroke-width="2" stroke-linecap="butt" stroke-miterlimit="4"/><path d="M291.91221,173.25497l2.38883,1.36787l-0.20104,2.26663l-1.31661,1.29296l-2.68843,0.20104l-0.69773,-4.52932zM291.26573,174.77263v0.02759l0.1971,2.33759l1.09586,-0.32324l0.24834,-1.46641l-1.54131,-0.57552z" fill="#000000" stroke="#000000" stroke-width="2" stroke-linecap="butt" stroke-miterlimit="4"/><path d="M297.4625,173.25497l3.90649,0.5164l-0.37843,1.38363l-1.98281,-0.54399l-0.40602,0.89483h0.02759l1.78966,-0.16162l0.02759,0.05519l-0.2444,1.24566l-1.51766,-0.2168l0.02366,0.67802v0.13797l0.02759,0.0552l2.038,-0.16556l0.18921,1.222l-0.02759,0.02759l-3.63448,-0.2444l-0.57159,-1.62804z" fill="#000000" stroke="#000000" stroke-width="2" stroke-linecap="butt" stroke-miterlimit="4"/><path d="M307.7392,173.24708l0.02366,0.07489l-0.02366,1.35998l-0.05124,0.02366l-2.07348,0.0473l-0.02366,0.05124l0.02366,0.71744v0.1222h0.02366l1.60438,-0.1971l0.02759,0.0473v1.21018l-0.05124,0.05124l-1.50582,-0.17346v0.14585l0.02759,1.48218l-1.33632,0.17345l-0.68984,-4.56874h0.02366l4.0011,-0.56764z" fill="#000000" stroke="#000000" stroke-width="2" stroke-linecap="butt" stroke-miterlimit="4"/><path d="M269.04509,183.92559l1.59256,0.44938l-0.57159,1.30479l-1.28114,-0.44938l-0.68591,0.71349l-0.05124,1.37574l0.97366,0.42573l0.87905,-0.40209l-0.14191,-0.45332l-0.85541,0.35872l-0.02366,-0.0473v-0.19316l-0.02366,-0.75686l2.16019,-0.23652l0.16556,2.0853l-2.37305,0.95001l-1.99463,-0.8081l-0.61494,-2.25087l0.92636,-1.5689l1.91973,-0.49669z" fill="#000000" stroke="#000000" stroke-width="2" stroke-linecap="butt" stroke-miterlimit="4"/><path d="M276.63337,185.731l-0.09461,-1.51372l1.79359,-0.25229l-0.09461,4.69093l-1.27326,0.05124l-0.23651,-1.46247l-0.94214,0.14979l0.0473,1.35998l-1.36787,0.20499l-0.85146,-4.69093l1.8882,-0.15373l0.09461,1.66745l1.03673,-0.05124z" fill="#000000" stroke="#000000" stroke-width="2" stroke-linecap="butt" stroke-miterlimit="4"/><path d="M281.32824,184.05566l1.69505,0.3469l-0.70561,4.61999l-1.27326,-0.11431z" fill="#000000" stroke="#000000" stroke-width="2" stroke-linecap="butt" stroke-miterlimit="4"/><path d="M288.02564,183.92559l2.11684,0.07884l0.18527,3.88678l-1.87244,1.55313l-2.22327,-0.53611l-0.83176,-1.60833l1.52554,-0.80416l0.2168,1.50189h0.02759l1.60438,-0.5913l-0.80416,-3.45316z" fill="#000000" stroke="#000000" stroke-width="2" stroke-linecap="butt" stroke-miterlimit="4"/><path d="M295.63364,183.92164l1.22201,1.0525l-1.55707,2.03799l1.50977,0.81599l-0.79234,1.19837h-0.02366l-1.34421,-1.34422v0.02759l0.09855,1.00521l-1.36787,0.33506l-0.64649,-4.60028l1.50977,-0.40996l0.24046,2.39672h0.02366l1.12739,-2.51498z" fill="#000000" stroke="#000000" stroke-width="2" stroke-linecap="butt" stroke-miterlimit="4"/><path d="M301.22335,183.9177l0.02365,0.02759l0.08279,3.5793h0.02365l2.35335,-0.82782l0.02762,0.0276l-0.07884,1.97887l-3.66209,0.34689l-0.77657,-4.91957l2.00646,-0.21287z" fill="#000000" stroke="#000000" stroke-width="2" stroke-linecap="butt" stroke-miterlimit="4"/><path d="M307.89314,183.9177l1.11557,0.14191l0.52428,1.47429h0.02365l0.78446,-1.21413h0.02365l1.06826,0.14585l0.64255,4.39529l-1.68717,0.18922l-0.02365,-0.0473l-0.09461,-2.44796h-0.02366l-0.97367,0.85541h-0.02365l-0.6662,-1.04462h-0.02365l-0.83175,2.35334h-0.0473l-1.54525,-0.73714v-0.02366z" fill="#000000" stroke="#000000" stroke-width="2" stroke-linecap="butt" stroke-miterlimit="4"/><path d="M315.26855,188.93582l-0.54005,-4.31251l1.68322,-0.31141l1.73446,2.46766l-0.272,-2.7239l1.95522,0.05124l-0.2168,4.46624l-1.24961,0.41391l-1.78966,-2.30999l0.37843,2.36124l-1.68323,-0.10249z" fill="#000000" stroke="#000000" stroke-width="2" stroke-linecap="butt" stroke-miterlimit="4"/><path d="M324.46908,183.97288l1.84878,0.62282l1.07615,1.71081l-0.70955,2.15231l-2.16019,0.52428l-1.81725,-1.21413l-0.05912,-2.23904l-0.02762,-0.09066l1.82119,-1.4664h0.02762zM324.35478,185.81379l-0.08279,1.33632l1.01308,0.22863l0.36267,-1.22595l-1.29296,-0.36661v0.02759z" fill="#000000" stroke="#000000" stroke-width="2" stroke-linecap="butt" stroke-miterlimit="4"/><path d="M332.73146,183.92164l1.71869,1.26931l-0.44938,1.62015l-0.94607,0.79629l-1.31661,-0.0749l-0.05126,1.41911l-1.39545,0.09855l-0.1498,-0.84752l-0.272,-3.78428l2.86187,-0.49669zM331.66319,185.04116v1.6438l0.96973,-0.20104l0.22469,-0.96972z" fill="#000000" stroke="#000000" stroke-width="2" stroke-linecap="butt" stroke-miterlimit="4"/><path d="M160.72434,149.05854l2.34152,0.39813l0.92242,0.84752l-0.42573,1.42306l0.42573,0.99337l-1.22201,0.25229l-0.22469,-0.29959l-1.81725,0.32324l-0.59917,-1.62015l1.32056,-0.69773l0.99732,0.05124l0.02366,-0.52428l-2.04194,0.14979l-0.02366,-0.05124l0.32324,-1.24566zM161.54425,151.37641l0.25229,0.92242h0.02366l0.4967,-0.42573l0.05124,-0.42179l-0.82387,-0.0749z" fill="#000000" stroke="#000000" stroke-width="2" stroke-linecap="butt" stroke-miterlimit="4"/><path d="M168.20617,147.86806l0.02759,0.05124l0.10249,1.7384l1.58072,-0.47304l1.41911,1.52554l-0.97366,2.12866l-1.8133,-0.07885v0.18527l-0.05519,0.05124h-1.52554l-0.31535,-2.36518l-0.28777,-2.36912l1.84089,-0.3942zM168.47029,150.76146l0.10249,0.97366h0.79234l0.28777,-1.10376z" fill="#000000" stroke="#000000" stroke-width="2" stroke-linecap="butt" stroke-miterlimit="4"/><path d="M175.28986,149.06247l1.86061,0.38237v0.0473l-0.38238,1.11952h-0.02366l-0.95396,-0.30748l-0.47698,0.85541l0.78839,0.76474l0.9303,-0.85935l0.71349,1.04856l-1.35998,0.88299l-2.02617,-0.45332l-0.61888,-2.00251l1.54919,-1.47824z" fill="#000000" stroke="#000000" stroke-width="2" stroke-linecap="butt" stroke-miterlimit="4"/><path d="M182.52338,147.86412h0.02366l1.78177,0.23258l0.52428,4.63969l-1.57284,0.26016l-0.02366,-0.05124v-0.42179l-1.8606,0.47303l-1.25748,-1.80542l0.94214,-1.62409l1.65168,0.07885zM181.79018,150.69051l0.49669,1.33632l0.78445,-0.68196l-0.18133,-0.70561h-1.04856z" fill="#000000" stroke="#000000" stroke-width="2" stroke-linecap="butt" stroke-miterlimit="4"/><path d="M189.5046,149.06247l1.97887,1.07221l-0.30353,1.23384h-2.49132v0.04337l0.69773,0.86328l1.09586,-0.55975l0.46515,0.9776l-2.06953,0.30353l-1.60833,-1.09586l0.30353,-2.04588zM189.24839,150.01643l-0.41784,0.62677l0.46515,0.16556l0.67407,0.11431l0.18527,-0.29959l-0.25623,-0.35083z" fill="#000000" stroke="#000000" stroke-width="2" stroke-linecap="butt" stroke-miterlimit="4"/><path d="M195.48457,147.86806l1.52159,0.35084l0.02366,0.0473l-0.23258,1.07615h-0.02366l-0.63466,-0.32719l-0.07095,0.9855l0.86723,-0.21287l0.07095,1.0525l-0.86723,0.14191l0.35084,1.73446l-1.45065,0.27988l-0.02366,-0.0473l-0.18527,-1.82512l-0.81993,0.20892l-0.16556,-1.24171l0.0473,-0.02366h0.84358l-0.21287,-1.52159l0.96184,-0.67802z" fill="#000000" stroke="#000000" stroke-width="2" stroke-linecap="butt" stroke-miterlimit="4"/><path d="M202.3357,149.07035l1.67533,0.14585l0.28777,4.64363l-1.81725,1.09586l-1.93157,-0.69378l0.72139,-0.92242l1.21018,0.52034l0.37449,-0.49274l-0.20104,-0.72139l-2.13655,0.3469l-1.12346,-1.87244l1.18259,-1.81725h0.02759l1.70293,0.37449v-0.08672l-0.02759,-0.49275zM201.09791,150.74175l0.3469,1.30085l1.12346,-0.43362l-0.14585,-0.8081l-0.14191,-0.0276h-0.17345z" fill="#000000" stroke="#000000" stroke-width="2" stroke-linecap="butt" stroke-miterlimit="4"/><path d="M208.49303,147.86806l0.22075,2.16019l1.62015,-0.46514l1.00521,0.68591l-0.3193,2.62535l-1.39546,0.0473l-0.02759,-0.02366l0.02759,-0.09856l0.09461,-1.93944l-0.85541,-0.02366h-0.09855l0.16951,1.9631l-1.32451,0.1971l-0.88299,-4.71064l0.61494,-0.1971l1.15105,-0.22074z" fill="#000000" stroke="#000000" stroke-width="2" stroke-linecap="butt" stroke-miterlimit="4"/><path d="M214.25618,147.4778l1.54919,0.24441l-0.38237,1.11557l-1.222,-0.16162zM213.82258,149.35418h0.02366l1.79754,0.38237l-0.62677,3.26h-1.24961l0.05518,-3.64238z" fill="#000000" stroke="#000000" stroke-width="2" stroke-linecap="butt" stroke-miterlimit="4"/><path d="M223.57106,147.65519l-0.38237,1.11952l-1.22595,-0.16556l0.02759,-1.17076zM221.58037,149.0743l1.88031,0.48881l-0.62678,3.51623l-2.01433,1.00915l-1.85273,-0.89876l-0.43756,-1.60833l1.55314,-0.43756l0.02759,0.02759l-0.02759,0.08278l-0.11038,1.28114l1.58072,-0.2168l0.0276,-3.24423z" fill="#000000" stroke="#000000" stroke-width="2" stroke-linecap="butt" stroke-miterlimit="4"/><path d="M227.74165,147.86806l0.24834,2.2351l1.18259,-1.32451h0.02759l1.02097,0.96579v0.02759l-1.13135,0.93424l1.35209,0.96579l-0.96579,1.02097l-1.37575,-1.26931l0.08278,1.26931l-1.46247,0.30353l-0.71744,-4.74218l1.7384,-0.38631z" fill="#000000" stroke="#000000" stroke-width="2" stroke-linecap="butt" stroke-miterlimit="4"/><path d="M232.78737,147.872l1.76994,0.02366l0.31141,4.84073l-1.40333,0.26016l-0.39026,-2.96435l-0.28777,-2.16019z" fill="#000000" stroke="#000000" stroke-width="2" stroke-linecap="butt" stroke-miterlimit="4"/><path d="M241.69621,149.05854l1.65957,0.74897l-0.23258,2.56622l-1.2969,0.28777l-0.07885,-2.02224l-0.43756,0.0749l0.05126,1.7108l0.02365,0.02759l-1.21806,0.26016l-0.31141,-1.91973l-0.49274,0.18133l0.15769,1.60833l-1.29691,0.41391l-0.90665,-3.44527l1.52948,-0.33901l0.18133,0.82782h0.02762l0.93031,-0.82782h0.02762l0.82781,0.59523h0.02762z" fill="#000000" stroke="#000000" stroke-width="2" stroke-linecap="butt" stroke-miterlimit="4"/><path d="M179.58235,228.39187l1.31267,0.90271l-0.19316,2.62535l-1.39151,0.08278l-0.02761,-0.05519l-0.13797,-2.10501l-0.05522,-0.02759l-1.03674,0.2444l0.07885,1.94339l-1.28508,0.32719l-0.76474,-3.55565l1.80541,-0.2168v0.02759l0.08278,0.81993l1.61227,-1.01308z" fill="#000000" stroke="#000000" stroke-width="2" stroke-linecap="butt" stroke-miterlimit="4"/><path d="M184.88036,228.3958l1.58861,0.48881l0.92636,1.34421l-0.611,1.68716l-1.85667,0.41391l-1.56101,-0.95396l-0.05126,-1.75813l-0.02365,-0.07095l1.56495,-1.15105h0.02365zM184.80544,229.83857l-0.07094,1.14711l0.87905,0.1971l0.31536,-1.05249l-1.12347,-0.31536v0.02366z" fill="#000000" stroke="#000000" stroke-width="2" stroke-linecap="butt" stroke-miterlimit="4"/><path d="M191.73542,228.3958l0.16951,0.62282l1.84089,-0.39813l1.18654,1.78177l-0.90665,1.92368l-1.95127,-0.31141v0.05913l0.22863,1.86455l-0.02762,0.02759l-0.42574,-0.02759h-0.33901l-0.90665,-0.02759l-0.84752,-5.03389l1.97887,-0.48091zM191.87733,230.00807l0.14191,0.90665l0.98943,0.27988l0.31141,-1.35604z" fill="#000000" stroke="#000000" stroke-width="2" stroke-linecap="butt" stroke-miterlimit="4"/><path d="M200.54966,228.38398l1.99069,0.48091l-0.85146,5.04965l-0.9106,0.02759h-0.34296l-0.42573,0.0276l-0.02762,-0.0276l0.22863,-1.87243v-0.0552l-1.96309,0.31141l-0.91061,-1.92763l1.19443,-1.7857l1.84878,0.3942l0.16951,-0.62283zM200.40775,230.00018l-1.42306,-0.16951h-0.02762l0.31141,1.35998l0.99732,-0.28382l0.14191,-0.90665z" fill="#000000" stroke="#000000" stroke-width="2" stroke-linecap="butt" stroke-miterlimit="4"/><path d="M207.79103,228.39187l0.9579,0.56764l-0.68591,1.35209h-0.02762l-0.5637,-0.49274l-0.66619,0.81204l0.07491,1.47824l-1.30479,0.22074l-0.61494,-3.32307l1.64774,-0.2444l0.14979,0.73714z" fill="#000000" stroke="#000000" stroke-width="2" stroke-linecap="butt" stroke-miterlimit="4"/><path d="M214.24798,228.39187l1.25355,0.8357l-0.4691,0.9106l-1.43486,-0.83175v0l-0.23654,0.4415l1.9828,1.09586l-0.62678,1.35604l-2.24298,0.13009l-1.40728,-0.91454l0.39025,-0.9106l1.75023,0.9106l0.13009,-0.52034l-1.93156,-0.9106l0.62678,-1.38363z" fill="#000000" stroke="#000000" stroke-width="2" stroke-linecap="butt" stroke-miterlimit="4"/><path d="M219.07691,227.20139l1.73446,0.30748l-0.16556,1.31661l1.09198,0.00001v0l-0.19714,1.31661l-1.06433,-0.05519l-0.08278,2.21538l-1.56887,-0.11432l0.13799,-2.23903l-1.06432,-0.14191l0.1419,-1.31661l1.03674,0.1971v-0.33901z" fill="#000000" stroke="#000000" stroke-width="2" stroke-linecap="butt" stroke-miterlimit="4"/><path d="M226.27887,228.39187l-0.50454,2.8737h0.02762l1.35604,-0.39814v-1.5965l1.75419,0.05124l-0.39812,2.82244l-1.222,0.18527l-0.10643,-0.3193l-1.78571,0.3193l-1.2496,-0.95789l0.26806,-2.90128h0.02366z" fill="#000000" stroke="#000000" stroke-width="2" stroke-linecap="butt" stroke-miterlimit="4"/><path d="M232.86982,228.39187l1.02885,2.29816l0.55582,-1.92763l1.50582,0.23651l-1.13529,3.06685l-1.56101,0.26411l-1.92762,-2.85398l1.53342,-1.08405z" fill="#000000" stroke="#000000" stroke-width="2" stroke-linecap="butt" stroke-miterlimit="4"/><path d="M269.18901,194.92956l0.53217,2.28635h0.02759l0.58341,-0.90271l0.93031,0.71744h0.05519v-0.02759l0.15768,-1.70293l1.62409,0.13402l-0.79628,3.11415l-1.04068,0.15768l-0.74502,-1.08798l-0.53217,1.24961h-1.06433l-0.9303,-2.04983l-0.53217,-1.222z" fill="#000000" stroke="#000000" stroke-width="2" stroke-linecap="butt" stroke-miterlimit="4"/><path d="M278.32649,194.92956h0.01577l1.13529,0.64649v0.03548l-1.00126,1.0801l1.60833,0.64254l-0.89089,1.09981l-1.15105,-0.96579l-0.7608,1.3994h-0.01577l-1.2299,-0.47303v-0.01971l1.04068,-1.35997l-1.55313,-0.70168l0.71743,-1.155l1.40334,0.96579z" fill="#000000" stroke="#000000" stroke-width="2" stroke-linecap="butt" stroke-miterlimit="4"/><path d="M283.90042,197.2632l1.17471,-0.22074l0.30353,-1.52948l1.61226,0.35477l-0.9303,3.03532l-1.66745,1.15106l-1.8882,-0.46515v-0.02759l0.60312,-1.06827l1.20229,0.60312l0.57552,-0.9855l-0.90271,0.19317l-1.53342,-0.79628l0.35477,-2.57017l1.47824,0.02759z" fill="#000000" stroke="#000000" stroke-width="2" stroke-linecap="butt" stroke-miterlimit="4"/><path d="M292.68311,194.92562l0.56764,1.16683l-1.38757,1.33632h0.02366l1.26538,-0.42179l0.24834,1.41516l-3.19694,0.44544l-0.24834,-0.96579l1.28903,-1.53737h-0.0276l-1.46247,0.49274l-0.37054,-1.71081l1.19047,-0.14584l2.10894,-0.0749z" fill="#000000" stroke="#000000" stroke-width="2" stroke-linecap="butt" stroke-miterlimit="4"/><path d="M161.6704,134.84775l1.34027,0.18922l0.01577,4.5096v0.03158l-0.01577,0.0315l-1.38757,-0.04729l-0.01577,-0.01579l0.09461,-2.80667l-0.47304,0.45728l-1.10374,-1.16683z" fill="#000000" stroke="#000000" stroke-width="2" stroke-linecap="butt" stroke-miterlimit="4"/><path d="M166.75948,134.84775l1.766,0.31536l0.78839,1.67139l-1.75023,1.49795l1.57678,-0.17346l0.01577,0.0315l-0.22075,1.41912l-3.21664,-0.06309l-0.18921,-1.04068l0.48881,-0.45727l1.59256,-1.45065l-0.28382,-0.36267l-0.72532,0.77262l-1.18259,-0.9303v-0.0315l1.24566,-1.11952l0.09461,-0.07885z" fill="#000000" stroke="#000000" stroke-width="2" stroke-linecap="butt" stroke-miterlimit="4"/><path d="M173.00748,134.9266l1.84483,0.33112l0.70955,1.40334l-0.63071,0.61494l0.63071,0.94607v0.01578l-0.75685,1.3718h-1.89214l-1.07221,-1.08798l1.08798,-0.89876l0.66225,1.04068h0.01577l0.52034,-0.45728l-0.59917,-0.70955l0.55188,-0.75686l-0.3942,-0.5834l-0.7411,0.9776l-1.2299,-0.81993z" fill="#000000" stroke="#000000" stroke-width="2" stroke-linecap="butt" stroke-miterlimit="4"/><path d="M179.6694,134.94237h0.03153l1.26143,0.78838l-1.49795,1.90791v0.0473l0.70955,-0.06309l0.01577,-0.80416l0.01577,-0.01579l0.7411,-0.01578h0.17345l0.23652,-0.01579l0.01577,0.0315l-0.03153,0.64648l-0.01577,0.01579l0.03153,0.01578h0.63071l0.03153,0.0315l-0.07885,1.10374l-0.03153,0.01579h-0.64649l-0.07095,0.96974l-1.29296,-0.03937l-0.00788,-0.7884l-1.56101,0.07884l-0.4415,-1.15105z" fill="#000000" stroke="#000000" stroke-width="2" stroke-linecap="butt" stroke-miterlimit="4"/><path d="M184.73088,134.87929l2.96435,0.0473l0.01577,0.0315l-0.12614,1.19837l-0.03153,0.01579l-1.56101,-0.18922l-0.09461,0.48881l0.07885,0.01578l0.80416,-0.22075l1.3245,0.9776l-0.25228,1.7187l-1.63986,0.64648l-1.82907,-0.7411l0.56764,-1.18259h0.01577l1.27719,0.67803h0.01577l0.47304,-0.47304l-0.47304,-0.50456h-0.01577l-0.64649,0.40996l-1.08798,-0.85146l0.20498,-2.06558z" fill="#000000" stroke="#000000" stroke-width="2" stroke-linecap="butt" stroke-miterlimit="4"/><path d="M192.40194,134.48509l1.41911,0.77263v0.0315l-0.94607,1.04068l0.99337,-0.06309l0.85146,1.48218l-0.48881,1.2299l-1.59256,0.63071l-1.82907,-0.81993l-0.33113,-1.65562l1.92368,-2.649zM192.03928,137.92249l0.69378,0.52034l0.48881,-0.69378l-0.3942,-0.48881l-0.53611,0.20499z" fill="#000000" stroke="#000000" stroke-width="2" stroke-linecap="butt" stroke-miterlimit="4"/><path d="M200.82986,134.7768l0.39025,1.12346l-0.96184,1.65562l-0.08672,1.93157l-0.03153,0.01579l-1.8882,-0.0315l-0.07095,-0.03547l1.14711,-3.17723l-0.13402,-0.05126l-1.97098,0.13797l-0.03549,-0.03157l0.30353,-1.52159h0.01577z" fill="#000000" stroke="#000000" stroke-width="2" stroke-linecap="butt" stroke-miterlimit="4"/><path d="M204.5235,134.70584l2.12866,0.1419l0.85146,1.51372l-0.78839,0.80417l0.52034,0.70955l-0.28382,1.07221l-1.43488,0.66225l-1.60833,-0.7411l-0.25229,-1.07221l0.63071,-0.61494l-0.78838,-1.27719v-0.01578l1.02491,-1.18259zM204.96498,136.26686l0.50457,0.59917l0.53611,-0.66225l-0.25229,-0.40997l-0.56764,0.07885zM205.1069,137.98556l0.25229,0.48881l0.33113,-0.1419l0.25229,-0.36267l-0.37843,-0.36267h-0.01577z" fill="#000000" stroke="#000000" stroke-width="2" stroke-linecap="butt" stroke-miterlimit="4"/><path d="M209.9634,136.01064l1.17471,-1.40727l1.9355,0.272l0.9855,1.04068l-0.53611,2.0104l-1.50977,1.68323l-1.08798,-0.77263l1.2299,-1.15894l-1.63197,-0.06309l-0.55975,-1.60439zM211.23664,136.12102l0.36661,0.73321l0.95001,-0.01579l0.14191,-0.99731l-0.72138,-0.15768l-0.73715,0.43756z" fill="#000000" stroke="#000000" stroke-width="2" stroke-linecap="butt" stroke-miterlimit="4"/><path d="M218.15414,134.51884l1.75683,0.51868l0.83598,1.56034l-0.57288,1.81325l-0.6917,0.89592l-1.3537,0.28291l-1.5192,-0.89592l-0.1655,-3.09066zM218.45119,135.92915l-0.73838,0.75446l0.09335,1.43601l0.47529,0.33008l0.5941,-0.18432l0.45406,-1.53461l-0.30978,-0.54012z" fill="#000000" stroke="#000000" stroke-width="2" stroke-linecap="butt" stroke-miterlimit="4"/><path d="M176.97577,239.56826l2.41249,0.37054l1.50582,4.51355l-1.81725,0.22863l-0.25622,-1.19442l-1.41911,0.22863l-0.25623,0.9106h-0.02759l-1.67533,-0.37054zM177.74049,242.2961h0.85541l-0.31536,-1.24961l-0.3666,0.14191z" fill="#000000" stroke="#000000" stroke-width="2" stroke-linecap="butt" stroke-miterlimit="4"/><path d="M186.38524,239.55249l1.64379,1.26536l-0.45332,1.38364l0.59524,0.7608v0.0473l-0.85541,1.43094l-3.26789,0.24046l-0.7411,-4.53326l3.07868,-0.59523zM185.09621,240.77056l0.14191,1.40728l1.04856,-0.28776l0.2168,-0.76474zM185.66779,242.67848h-0.26017l-0.09856,0.95396l1.24171,-0.19317l-0.0473,-0.78444z" fill="#000000" stroke="#000000" stroke-width="2" stroke-linecap="butt" stroke-miterlimit="4"/><path d="M193.25607,239.55249l1.76206,0.72926l-0.56371,1.19835h-0.02366l-1.10769,-0.49274l-0.93818,0.65831l0.13797,1.222l1.17865,0.47303l0.84752,-0.80021l0.70561,1.1274v0.07095l-1.74235,0.94213l-2.2351,-0.77657l-0.70561,-2.32969l1.01308,-1.41121l1.67139,-0.61101z" fill="#000000" stroke="#000000" stroke-width="2" stroke-linecap="butt" stroke-miterlimit="4"/><path d="M200.22941,239.55249l2.38883,1.36787l-0.20104,2.26663l-1.31661,1.29296l-2.68843,0.20104l-0.69773,-4.52932zM199.58293,241.07015v0.02759l0.1971,2.33759l1.09586,-0.32324l0.24834,-1.46641l-1.54131,-0.57552z" fill="#000000" stroke="#000000" stroke-width="2" stroke-linecap="butt" stroke-miterlimit="4"/><path d="M205.77969,239.55249l3.90649,0.5164l-0.37843,1.38363l-1.98281,-0.54399l-0.40602,0.89483h0.02759l1.78966,-0.16162l0.02759,0.05519l-0.2444,1.24566l-1.51766,-0.2168l0.02366,0.67802v0.13797l0.02759,0.0552l2.038,-0.16556l0.18921,1.222l-0.02759,0.02759l-3.63448,-0.2444l-0.57159,-1.62804z" fill="#000000" stroke="#000000" stroke-width="2" stroke-linecap="butt" stroke-miterlimit="4"/><path d="M216.05639,239.54461l0.02366,0.07489l-0.02366,1.35998l-0.05124,0.02366l-2.07348,0.0473l-0.02366,0.05124l0.02366,0.71744v0.1222h0.02366l1.60438,-0.1971l0.02759,0.0473v1.21018l-0.05124,0.05124l-1.50582,-0.17346v0.14585l0.02759,1.48218l-1.33632,0.17345l-0.68984,-4.56874h0.02366l4.0011,-0.56764z" fill="#000000" stroke="#000000" stroke-width="2" stroke-linecap="butt" stroke-miterlimit="4"/><path d="M221.36229,239.55643l1.59256,0.44938l-0.57159,1.30479l-1.28114,-0.44938l-0.68591,0.71349l-0.05124,1.37574l0.97366,0.42573l0.87905,-0.40209l-0.14191,-0.45332l-0.85541,0.35872l-0.02366,-0.0473v-0.19316l-0.02366,-0.75686l2.16019,-0.23652l0.16556,2.0853l-2.37305,0.95001l-1.99463,-0.8081l-0.61494,-2.25087l0.92636,-1.5689l1.91973,-0.49669z" fill="#000000" stroke="#000000" stroke-width="2" stroke-linecap="butt" stroke-miterlimit="4"/><path d="M228.95055,241.36186l-0.09461,-1.51372l1.79359,-0.25229l-0.09461,4.69093l-1.27326,0.05124l-0.23651,-1.46247l-0.94214,0.14979l0.0473,1.35998l-1.36787,0.20499l-0.85146,-4.69093l1.8882,-0.15373l0.09461,1.66745l1.03673,-0.05124z" fill="#000000" stroke="#000000" stroke-width="2" stroke-linecap="butt" stroke-miterlimit="4"/><path d="M233.64544,239.68652l1.69505,0.3469l-0.70561,4.61999l-1.27326,-0.11431z" fill="#000000" stroke="#000000" stroke-width="2" stroke-linecap="butt" stroke-miterlimit="4"/><path d="M240.34284,239.55643l2.11684,0.07884l0.18527,3.88678l-1.87244,1.55313l-2.22327,-0.53611l-0.83176,-1.60833l1.52554,-0.80416l0.2168,1.50189h0.02759l1.60438,-0.5913l-0.80416,-3.45316z" fill="#000000" stroke="#000000" stroke-width="2" stroke-linecap="butt" stroke-miterlimit="4"/><path d="M247.95082,239.55249l1.22201,1.0525l-1.55707,2.03799l1.50977,0.81599l-0.79234,1.19837h-0.02366l-1.34421,-1.34422v0.02759l0.09855,1.00521l-1.36787,0.33506l-0.64649,-4.60028l1.50977,-0.40996l0.24046,2.39672h0.02366l1.12739,-2.51498z" fill="#000000" stroke="#000000" stroke-width="2" stroke-linecap="butt" stroke-miterlimit="4"/><path d="M253.54053,239.54855l0.02365,0.02759l0.08279,3.5793h0.02365l2.35335,-0.82782l0.02762,0.0276l-0.07884,1.97887l-3.66209,0.34689l-0.77657,-4.91957l2.00646,-0.21287z" fill="#000000" stroke="#000000" stroke-width="2" stroke-linecap="butt" stroke-miterlimit="4"/><path d="M260.21035,239.54855l1.11557,0.14191l0.52428,1.47429h0.02365l0.78446,-1.21413h0.02365l1.06826,0.14585l0.64255,4.39529l-1.68717,0.18922l-0.02365,-0.0473l-0.09461,-2.44796h-0.02366l-0.97367,0.85541h-0.02365l-0.6662,-1.04462h-0.02365l-0.83175,2.35334h-0.0473l-1.54525,-0.73714v-0.02366z" fill="#000000" stroke="#000000" stroke-width="2" stroke-linecap="butt" stroke-miterlimit="4"/><path d="M267.58576,244.56668l-0.54005,-4.31251l1.68322,-0.31141l1.73446,2.46766l-0.272,-2.7239l1.95522,0.05124l-0.2168,4.46624l-1.24961,0.41391l-1.78966,-2.30999l0.37843,2.36124l-1.68323,-0.10249z" fill="#000000" stroke="#000000" stroke-width="2" stroke-linecap="butt" stroke-miterlimit="4"/><path d="M276.78629,239.60375l1.84878,0.62282l1.07615,1.71081l-0.70955,2.15231l-2.16019,0.52428l-1.81725,-1.21413l-0.05912,-2.23904l-0.02762,-0.09066l1.82119,-1.4664h0.02762zM276.67197,241.44464l-0.08279,1.33632l1.01308,0.22863l0.36267,-1.22595l-1.29296,-0.36661v0.02759z" fill="#000000" stroke="#000000" stroke-width="2" stroke-linecap="butt" stroke-miterlimit="4"/><path d="M285.04866,239.55249l1.71869,1.26931l-0.44938,1.62015l-0.94607,0.79629l-1.31661,-0.0749l-0.05126,1.41911l-1.39545,0.09855l-0.1498,-0.84752l-0.272,-3.78428l2.86187,-0.49669zM283.98039,240.67201v1.6438l0.96973,-0.20104l0.22469,-0.96972z" fill="#000000" stroke="#000000" stroke-width="2" stroke-linecap="butt" stroke-miterlimit="4"/><path d="M179.37485,63.02273l2.34152,0.39813l0.92242,0.84752l-0.42573,1.42306l0.42573,0.99337l-1.22201,0.25229l-0.22469,-0.29959l-1.81725,0.32324l-0.59917,-1.62015l1.32056,-0.69773l0.99732,0.05124l0.02366,-0.52428l-2.04194,0.14979l-0.02366,-0.05124l0.32324,-1.24566zM180.19478,65.34061l0.25229,0.92242h0.02366l0.4967,-0.42573l0.05124,-0.42179l-0.82387,-0.0749z" fill="#000000" stroke="#000000" stroke-width="2" stroke-linecap="butt" stroke-miterlimit="4"/><path d="M186.85672,61.83226l0.02759,0.05124l0.10249,1.7384l1.58072,-0.47304l1.41911,1.52554l-0.97366,2.12866l-1.8133,-0.07885v0.18527l-0.05519,0.05124h-1.52554l-0.31535,-2.36518l-0.28777,-2.36912l1.84089,-0.3942zM187.12082,64.72566l0.10249,0.97366h0.79234l0.28777,-1.10376z" fill="#000000" stroke="#000000" stroke-width="2" stroke-linecap="butt" stroke-miterlimit="4"/><path d="M193.94041,63.02668l1.86061,0.38237v0.0473l-0.38238,1.11952h-0.02366l-0.95396,-0.30748l-0.47698,0.85541l0.78839,0.76474l0.9303,-0.85935l0.71349,1.04856l-1.35998,0.88299l-2.02617,-0.45332l-0.61888,-2.00251l1.54919,-1.47824z" fill="#000000" stroke="#000000" stroke-width="2" stroke-linecap="butt" stroke-miterlimit="4"/><path d="M201.17392,61.8283h0.02366l1.78177,0.23258l0.52428,4.63969l-1.57284,0.26016l-0.02366,-0.05124v-0.42179l-1.8606,0.47303l-1.25748,-1.80542l0.94214,-1.62409l1.65168,0.07885zM200.44073,64.65471l0.49669,1.33632l0.78445,-0.68196l-0.18133,-0.70561h-1.04856z" fill="#000000" stroke="#000000" stroke-width="2" stroke-linecap="butt" stroke-miterlimit="4"/><path d="M208.15515,63.02668l1.97887,1.07221l-0.30353,1.23384h-2.49132v0.04337l0.69773,0.86328l1.09586,-0.55975l0.46515,0.9776l-2.06953,0.30353l-1.60833,-1.09586l0.30353,-2.04588zM207.8989,63.98062l-0.41784,0.62677l0.46515,0.16556l0.67407,0.11431l0.18527,-0.29959l-0.25623,-0.35083z" fill="#000000" stroke="#000000" stroke-width="2" stroke-linecap="butt" stroke-miterlimit="4"/><path d="M214.13511,61.83226l1.52159,0.35084l0.02366,0.0473l-0.23258,1.07615h-0.02366l-0.63466,-0.32719l-0.07095,0.9855l0.86723,-0.21287l0.07095,1.0525l-0.86723,0.14191l0.35084,1.73446l-1.45065,0.27988l-0.02366,-0.0473l-0.18527,-1.82512l-0.81993,0.20892l-0.16556,-1.24171l0.0473,-0.02366h0.84358l-0.21287,-1.52159l0.96184,-0.67802z" fill="#000000" stroke="#000000" stroke-width="2" stroke-linecap="butt" stroke-miterlimit="4"/><path d="M220.98622,63.03455l1.67533,0.14585l0.28777,4.64363l-1.81725,1.09586l-1.93157,-0.69378l0.72139,-0.92242l1.21018,0.52034l0.37449,-0.49274l-0.20104,-0.72139l-2.13655,0.3469l-1.12346,-1.87244l1.18259,-1.81725h0.02759l1.70293,0.37449v-0.08672l-0.02759,-0.49275zM219.74845,64.70595l0.3469,1.30085l1.12346,-0.43362l-0.14585,-0.8081l-0.14191,-0.0276h-0.17345z" fill="#000000" stroke="#000000" stroke-width="2" stroke-linecap="butt" stroke-miterlimit="4"/><path d="M227.14358,61.83226l0.22075,2.16019l1.62015,-0.46514l1.00521,0.68591l-0.3193,2.62535l-1.39546,0.0473l-0.02759,-0.02366l0.02759,-0.09856l0.09461,-1.93944l-0.85541,-0.02366h-0.09855l0.16951,1.9631l-1.32451,0.1971l-0.88299,-4.71064l0.61494,-0.1971l1.15105,-0.22074z" fill="#000000" stroke="#000000" stroke-width="2" stroke-linecap="butt" stroke-miterlimit="4"/><path d="M232.90673,61.442l1.54919,0.24441l-0.38237,1.11557l-1.222,-0.16162zM232.47313,63.31837h0.02366l1.79754,0.38237l-0.62677,3.26h-1.24961l0.05518,-3.64238z" fill="#000000" stroke="#000000" stroke-width="2" stroke-linecap="butt" stroke-miterlimit="4"/><path d="M242.22158,61.61938l-0.38237,1.11952l-1.22595,-0.16556l0.02759,-1.17076zM240.23089,63.0385l1.88031,0.48881l-0.62678,3.51623l-2.01433,1.00915l-1.85273,-0.89876l-0.43756,-1.60833l1.55314,-0.43756l0.02759,0.02759l-0.02759,0.08278l-0.11038,1.28114l1.58072,-0.2168l0.0276,-3.24423z" fill="#000000" stroke="#000000" stroke-width="2" stroke-linecap="butt" stroke-miterlimit="4"/><path d="M246.39219,61.83226l0.24834,2.2351l1.18259,-1.32451h0.02759l1.02097,0.96579v0.02759l-1.13135,0.93424l1.35209,0.96579l-0.96579,1.02097l-1.37575,-1.26931l0.08278,1.26931l-1.46247,0.30353l-0.71744,-4.74218l1.7384,-0.38631z" fill="#000000" stroke="#000000" stroke-width="2" stroke-linecap="butt" stroke-miterlimit="4"/><path d="M251.4379,61.8362l1.76994,0.02366l0.31141,4.84073l-1.40333,0.26016l-0.39026,-2.96435l-0.28777,-2.16019z" fill="#000000" stroke="#000000" stroke-width="2" stroke-linecap="butt" stroke-miterlimit="4"/><path d="M260.34675,63.02273l1.65957,0.74897l-0.23258,2.56622l-1.2969,0.28777l-0.07885,-2.02224l-0.43756,0.0749l0.05126,1.7108l0.02365,0.02759l-1.21806,0.26016l-0.31141,-1.91973l-0.49274,0.18133l0.15769,1.60833l-1.29691,0.41391l-0.90665,-3.44527l1.52948,-0.33901l0.18133,0.82782h0.02762l0.93031,-0.82782h0.02762l0.82781,0.59523h0.02762z" fill="#000000" stroke="#000000" stroke-width="2" stroke-linecap="butt" stroke-miterlimit="4"/><path d="M267.89954,63.02273l1.31267,0.90271l-0.19316,2.62535l-1.39151,0.08278l-0.02761,-0.05519l-0.13797,-2.10501l-0.05522,-0.02759l-1.03674,0.2444l0.07885,1.94339l-1.28508,0.32719l-0.76474,-3.55565l1.80541,-0.2168v0.02759l0.08278,0.81993l1.61227,-1.01308z" fill="#000000" stroke="#000000" stroke-width="2" stroke-linecap="butt" stroke-miterlimit="4"/><path d="M273.19754,63.02668l1.58861,0.48881l0.92636,1.34421l-0.611,1.68716l-1.85667,0.41391l-1.56101,-0.95396l-0.05126,-1.75813l-0.02365,-0.07095l1.56495,-1.15105h0.02365zM273.12264,64.46942l-0.07094,1.14711l0.87905,0.1971l0.31536,-1.05249l-1.12347,-0.31536v0.02366z" fill="#000000" stroke="#000000" stroke-width="2" stroke-linecap="butt" stroke-miterlimit="4"/><path d="M280.05262,63.02668l0.16951,0.62282l1.84089,-0.39813l1.18654,1.78177l-0.90665,1.92368l-1.95127,-0.31141v0.05913l0.22863,1.86455l-0.02762,0.02759l-0.42574,-0.02759h-0.33901l-0.90665,-0.02759l-0.84752,-5.03389l1.97887,-0.48091zM280.19453,64.63893l0.14191,0.90665l0.98943,0.27988l0.31141,-1.35604z" fill="#000000" stroke="#000000" stroke-width="2" stroke-linecap="butt" stroke-miterlimit="4"/><path d="M288.86685,63.01484l1.99069,0.48091l-0.85146,5.04965l-0.9106,0.02759h-0.34296l-0.42573,0.0276l-0.02762,-0.0276l0.22863,-1.87243v-0.0552l-1.96309,0.31141l-0.91061,-1.92763l1.19443,-1.7857l1.84878,0.3942l0.16951,-0.62283zM288.72495,64.63105l-1.42306,-0.16951h-0.02762l0.31141,1.35998l0.99732,-0.28382l0.14191,-0.90665z" fill="#000000" stroke="#000000" stroke-width="2" stroke-linecap="butt" stroke-miterlimit="4"/><path d="M296.10823,63.02273l0.9579,0.56764l-0.68591,1.35209h-0.02762l-0.5637,-0.49274l-0.66619,0.81204l0.07491,1.47824l-1.30479,0.22074l-0.61494,-3.32307l1.64774,-0.2444l0.14979,0.73714z" fill="#000000" stroke="#000000" stroke-width="2" stroke-linecap="butt" stroke-miterlimit="4"/><path d="M302.56516,63.02273l1.25355,0.8357l-0.4691,0.9106l-1.43486,-0.83175v0l-0.23654,0.4415l1.9828,1.09586l-0.62678,1.35604l-2.24298,0.13009l-1.40728,-0.91454l0.39025,-0.9106l1.75023,0.9106l0.13009,-0.52034l-1.93156,-0.9106l0.62678,-1.38363z" fill="#000000" stroke="#000000" stroke-width="2" stroke-linecap="butt" stroke-miterlimit="4"/><path d="M307.39408,61.83226l1.73446,0.30748l-0.16556,1.31661l1.09198,0.00001v0l-0.19714,1.31661l-1.06433,-0.05519l-0.08278,2.21538l-1.56887,-0.11432l0.13799,-2.23903l-1.06432,-0.14191l0.1419,-1.31661l1.03674,0.1971v-0.33901z" fill="#000000" stroke="#000000" stroke-width="2" stroke-linecap="butt" stroke-miterlimit="4"/><path d="" fill="#000000" stroke="#000000" stroke-width="2" stroke-linecap="butt" stroke-miterlimit="4"/><path d="" fill="#000000" stroke="#000000" stroke-width="2" stroke-linecap="butt" stroke-miterlimit="4"/><path d="" fill="#000000" stroke="#000000" stroke-width="2" stroke-linecap="butt" stroke-miterlimit="4"/><path d="" fill="#000000" stroke="#000000" stroke-width="2" stroke-linecap="butt" stroke-miterlimit="4"/><path d="" fill="#000000" stroke="#000000" stroke-width="2" stroke-linecap="butt" stroke-miterlimit="4"/><path d="" fill="#000000" stroke="#000000" stroke-width="2" stroke-linecap="butt" stroke-miterlimit="4"/><path d="" fill="#000000" stroke="#000000" stroke-width="2" stroke-linecap="butt" stroke-miterlimit="4"/><path d="" fill="#000000" stroke="#000000" stroke-width="2" stroke-linecap="butt" stroke-miterlimit="4"/><path d="" fill="#000000" stroke="#000000" stroke-width="2" stroke-linecap="butt" stroke-miterlimit="4"/><path d="" fill="#000000" stroke="#000000" stroke-width="2" stroke-linecap="butt" stroke-miterlimit="4"/><path d="" fill="#000000" stroke="#000000" stroke-width="2" stroke-linecap="butt" stroke-miterlimit="4"/><path d="" fill="#000000" stroke="#000000" stroke-width="2" stroke-linecap="butt" stroke-miterlimit="4"/><path d="" fill="#000000" stroke="#000000" stroke-width="2" stroke-linecap="butt" stroke-miterlimit="4"/><path d="" fill="#000000" stroke="#000000" stroke-width="2" stroke-linecap="butt" stroke-miterlimit="4"/><path d="" fill="#000000" stroke="#000000" stroke-width="2" stroke-linecap="butt" stroke-miterlimit="4"/><path d="" fill="#000000" stroke="#000000" stroke-width="2" stroke-linecap="butt" stroke-miterlimit="4"/><path d="" fill="#000000" stroke="#000000" stroke-width="2" stroke-linecap="butt" stroke-miterlimit="4"/><path d="" fill="#000000" stroke="#000000" stroke-width="2" stroke-linecap="butt" stroke-miterlimit="4"/><path d="" fill="#000000" stroke="#000000" stroke-width="2" stroke-linecap="butt" stroke-miterlimit="4"/><path d="" fill="#000000" stroke="#000000" stroke-width="2" stroke-linecap="butt" stroke-miterlimit="4"/><path d="" fill="#000000" stroke="#000000" stroke-width="2" stroke-linecap="butt" stroke-miterlimit="4"/><path d="" fill="#000000" stroke="#000000" stroke-width="2" stroke-linecap="butt" stroke-miterlimit="4"/><path d="" fill="#000000" stroke="#000000" stroke-width="2" stroke-linecap="butt" stroke-miterlimit="4"/><path d="" fill="#000000" stroke="#000000" stroke-width="2" stroke-linecap="butt" stroke-miterlimit="4"/><path d="" fill="#000000" stroke="#000000" stroke-width="2" stroke-linecap="butt" stroke-miterlimit="4"/><path d="" fill="#000000" stroke="#000000" stroke-width="2" stroke-linecap="butt" stroke-miterlimit="4"/><path d="" fill="#000000" stroke="#000000" stroke-width="2" stroke-linecap="butt" stroke-miterlimit="4"/><path d="" fill="#000000" stroke="#000000" stroke-width="2" stroke-linecap="butt" stroke-miterlimit="4"/><path d="" fill="#000000" stroke="#000000" stroke-width="2" stroke-linecap="butt" stroke-miterlimit="4"/><path d="" fill="#000000" stroke="#000000" stroke-width="2" stroke-linecap="butt" stroke-miterlimit="4"/></g></g></svg>