<svg version="1.1" xmlns="http://www.w3.org/2000/svg" xmlns:xlink="http://www.w3.org/1999/xlink" width="543.59625" height="310.63014" viewBox="0,0,543.59625,310.63014"><g transform="translate(31.32035,89.14257)"><g data-paper-data="{&quot;isPaintingLayer&quot;:true}" fill-rule="nonzero" stroke-linecap="butt" stroke-linejoin="miter" stroke-miterlimit="10" stroke-dasharray="" stroke-dashoffset="0" style="mix-blend-mode: normal"><path d="M235.43415,172.15618c-1.54298,-0.34143 -8.49108,-4.38126 -8.49108,-4.38126c0,0 6.89506,2.49439 8.19946,2.81517c1.43252,0.35229 1.6734,1.87186 0.29162,1.56609z" fill="#000000" stroke="#ffffff" stroke-width="20.5"/><path d="M237.1116,155.44729c-1.12091,-0.28539 -7.37,-1.1872 -7.37,-1.1872c0,0 6.91619,-0.25057 8.2267,0.11589c1.17359,0.32817 0.37431,1.38474 -0.85669,1.07131z" data-paper-data="{&quot;index&quot;:null}" fill="#000000" stroke="#ffffff" stroke-width="20.5"/><path d="M229.50285,181.51425l7.32288,2.64976l-11.24725,35.99963l-8.22189,-3.417z" fill="#af812c" stroke="none" stroke-width="0"/><path d="M236.03696,184.47543c0,0 -0.09636,0.93524 0.11019,1.07863c0.36949,0.2565 2.45505,-0.44313 2.45505,-0.44313l-12.29633,36.27348c0,0 -0.28445,-0.4774 -0.46967,-0.78826c-0.26823,-0.45018 -0.98503,-1.6532 -0.98503,-1.6532z" fill="#111111" stroke="none" stroke-width="0"/><path d="M228.00828,181.19254c0,0 -0.09636,0.93524 0.11019,1.07863c0.36949,0.2565 2.07423,0.72411 2.07423,0.72411c0,0 -9.75602,28.9496 -11.22076,33.29599c-0.10639,0.31573 -1.66432,-0.38885 -1.66432,-0.38885l8.04129,5.25777l1.53098,-0.80893l-10.17795,-3.48644c0,0 0.37262,-0.96578 0.55017,-1.51692c1.04768,-3.25219 10.75617,-34.15537 10.75617,-34.15537z" fill="#111111" stroke="none" stroke-width="0"/><path d="M227.86278,140.77551c0,0 18.24612,4.49072 23.40494,6.72528c5.43023,2.35213 8.40396,7.05292 8.40396,7.05292l-9.60344,30.12584c0,0 -12.77801,1.93288 -16.42314,-0.47393c-4.58128,-3.02493 -16.335,-9.6684 -16.335,-9.6684c0,0 -2.07466,-12.76579 -0.28466,-18.49265c1.72516,-5.51938 10.83733,-15.26907 10.83733,-15.26907z" fill="#d7aa4b" stroke="none" stroke-width="0"/><path d="M217.41229,176.03979c-0.40092,-0.27832 -4.89101,-10.00215 -3.02134,-17.81719c2.1113,-8.82503 10.65696,-15.867 10.97125,-16.31974c0.59261,-0.85367 3.45286,-0.60944 4.30652,-0.01683c0.85367,0.59261 -0.24169,0.14194 -0.8343,0.9956c-0.11393,0.16412 -1.96245,1.35548 -3.64885,2.80541c-0.72025,0.61925 -1.65815,1.45006 -2.42853,2.3858c-0.77076,0.93618 0.27544,2.52471 -0.39635,3.67647c-0.93303,1.59963 -2.85172,1.87647 -3.4377,3.69258c-0.25904,0.80284 0.91965,1.89718 0.73449,2.7591c-0.34742,1.61727 -1.92265,2.69138 -2.15438,4.35309c-0.25028,1.7947 2.18504,4.07653 2.16636,5.7625c-0.02055,1.8549 -1.88177,3.48836 -0.96597,4.46574c2.06908,2.20817 -1.14637,3.358 -1.29121,3.25745z" fill="#dcc869" stroke="none" stroke-width="0"/><path d="M243.76444,139.01555l6.31521,4.96506l-3.04408,5.55689l-8.57123,-1.88263l0.44934,-5.25307z" fill="#af812c" stroke="none" stroke-width="0"/><path d="M243.80312,139.70475l6.28212,2.50161l-2.03406,1.84194l-5.99242,-2.4167z" fill="#79501f" stroke="none" stroke-width="0"/><path d="M253.45368,160.44528c-0.55093,-0.38245 -0.91066,-1.89182 0.14917,-3.27629c0.60651,-0.7923 2.49383,-1.36805 3.01091,-2.1129c1.42063,-2.04644 3.27449,-3.21795 4.14072,-2.61662c0.86622,0.60132 5.39226,0.10051 3.97162,2.14695c-1.07752,1.55218 -11.1144,32.72043 -13.45302,33.60978c-0.14067,0.0535 -2.64514,-2.47757 -2.43283,-4.09219c0.18484,-1.40573 -1.57622,-2.6387 -1.06501,-4.66088c0.19696,-0.77912 0.90909,-1.31961 0.89456,-2.34659c-0.02602,-1.83848 -0.85113,-4.30225 -0.25135,-5.84474c0.45616,-1.17312 1.73077,-2.00746 2.06323,-3.21476c0.52629,-1.91118 0.09564,-4.13238 0.98537,-5.3668c1.60905,-2.23243 2.03829,-2.18907 1.98662,-2.22494z" fill="#dcc869" stroke="none" stroke-width="0"/><path d="M254.28028,168.16607c1.626,-4.03446 6.40825,-15.58111 9.86015,-13.87475c2.09728,1.03674 0.67608,14.08637 -0.94992,18.12083c-1.626,4.03446 -8.49386,15.23733 -10.66379,14.36279c-2.16993,-0.87454 0.12757,-14.57441 1.75357,-18.60887z" fill="#f0dc82" stroke="none" stroke-width="0"/><path d="M266.23676,152.42113c0,0 2.03546,3.55434 1.9433,6.87498c-0.08683,3.12889 -2.48122,12.50788 -2.48122,12.50788c0,0 -2.29722,7.05759 -3.92941,9.92122c-1.66013,2.91263 -5.94892,7.41006 -5.94892,7.41006c0,0 -2.82151,1.15989 -5.19843,0.45799c-1.39254,-0.41121 -2.843,-2.75246 -2.92465,-2.90941c-0.12575,-0.24171 2.19058,-1.39351 2.19058,-1.39351c0,0 1.21652,1.35487 1.63246,1.33161c1.50888,-0.08436 2.65653,-0.64583 2.65653,-0.64583c0,0 1.77924,-1.01889 5.71506,-8.0551c1.89376,-3.38554 2.63971,-7.07901 3.01031,-8.87879c0.54438,-2.64375 1.30485,-7.05231 1.22409,-10.41693c-0.06828,-2.84431 -0.94429,-4.90529 -0.94429,-4.90529c0,0 -0.40833,-0.59555 -1.44598,-0.85367c-0.56448,-0.14042 -1.32887,-0.53689 -2.00985,-0.25603c-0.60701,0.25036 -1.17211,1.17718 -1.08943,1.14203c0.04733,-0.02013 -2.49761,-2.24915 -5.08685,-3.80811c-2.25542,-1.35798 -4.59198,-2.05829 -4.67111,-2.25313c-0.00133,-0.00329 -0.60557,1.99523 -0.60557,1.99523c0,0 -3.18017,1.79684 -3.35195,1.63522c-0.09275,-0.08727 -7.95457,-2.49221 -7.63582,-2.97082c0.20019,-0.3006 -0.52469,-4.05725 0.96727,-4.04933c0.21443,0.00113 -1.47808,-1.19172 -3.61669,-1.14091c-2.24241,0.05326 -3.25671,1.40234 -3.57723,1.05805c-0.04619,-0.04962 -2.55138,-2.31147 -5.27411,-1.34475c-2.77684,0.98594 -5.27599,5.48419 -5.47557,5.00544c-0.08221,-0.1972 -3.3118,4.15118 -4.73429,13.45025c-0.77246,10.86751 1.04562,13.27569 0.80984,13.10932c-0.08981,-0.06338 0.9478,0.69922 2.06765,0.86984c0.80694,0.12294 1.67011,-0.44319 2.12102,-0.04698c0.11639,0.10227 6.31855,4.86937 13.51583,6.63627c2.39082,0.58694 5.23671,1.28793 7.81982,1.55339c4.20764,0.43242 7.75234,0.2134 7.75234,0.2134c0,0 0.18056,0.95289 0.18185,1.01159c0.00956,0.43263 -2.1175,2.04105 -2.1175,2.04105c0,0 -7.72863,0.28967 -15.06271,-1.99311c-6.41364,-1.9963 -12.55383,-6.60834 -12.58665,-6.55066c-0.04267,0.07497 -1.24082,0.64655 -2.23525,0.43201c-1.62987,-0.35165 -3.3606,-1.59921 -3.3606,-1.59921c0,0 -3.38748,-3.95656 -2.52233,-14.29835c0.91317,-10.91566 5.80494,-16.82356 5.80494,-16.82356c0,0 1.91557,-3.979 5.0392,-5.56085c4.34057,-2.19812 6.4039,-1.08882 6.42393,-1.14116c0.15026,-0.39252 1.60859,0.2808 2.30768,1.07665c0.4486,0.5107 0.27006,1.22948 0.27006,1.22948c0,0 2.20253,-0.19358 3.55911,0.05114c1.46628,0.2645 4.82944,1.46593 4.82944,1.46593l-0.86874,4.72356l5.84159,1.21349l1.69272,-0.58782l1.63818,-5.86716c0,0 -2.19888,-0.7457 -3.18286,-1.01261c-1.0726,-0.29094 -3.00982,-0.66715 -3.00982,-0.66715c0,0 -0.21815,-0.06817 -0.99489,0.39051c-0.82073,0.48466 -0.97487,2.46117 -1.44447,1.94315c-0.3616,-0.39888 -2.22107,-0.38618 -2.22107,-0.38618c0,0 1.22263,-2.52998 2.02206,-3.0513c0.68593,-0.4473 1.71024,-0.61485 1.79268,-0.85056c0.3965,-1.13354 5.98629,0.83742 8.34268,1.83847c0.61351,0.26064 1.02115,1.0606 1.0451,1.00692c0.08321,-0.18642 0.1517,0.96238 -0.24238,2.16696c-0.36153,1.10509 -0.91678,1.70193 -0.77528,1.72996c1.0569,0.2094 2.99058,0.77765 4.61013,1.71368c1.91353,1.10593 3.48555,2.58555 4.04983,2.58363c0.48005,-0.00164 2.77523,-0.75131 3.96678,-0.41189c2.22411,0.63355 3.78183,2.9398 3.78183,2.9398z" fill="#000000" stroke="none" stroke-width="0"/><path d="M252.05237,177.61095c0,0 -0.09211,2.52739 0.17906,4.88597c0.21256,1.84873 0.8685,3.54078 1.25024,4.04843c0,0 0.36982,0.4944 -0.12458,0.86422c-0.4944,0.36982 -0.86422,-0.12458 -0.86422,-0.12458c-0.42734,-0.57393 -1.47479,-2.67266 -1.47669,-4.53137c-0.0027,-2.64761 1.03618,-5.14267 1.03618,-5.14267z" fill="#000000" stroke="none" stroke-width="0.5"/><path d="M260.3292,155.27544c0.93433,-1.25297 2.69449,-2.143 3.27088,-2.31569c0,0 0.49767,-0.14789 0.64556,0.34978c0.14789,0.49766 -0.34978,0.64556 -0.34978,0.64556c-0.51237,0.15085 -1.80427,0.96306 -2.87569,2.10356c-1.36691,1.45502 -2.57348,3.20628 -2.57348,3.20628c0,0 0.55164,-2.20472 1.88251,-3.98949z" data-paper-data="{&quot;index&quot;:null}" fill="#000000" stroke="none" stroke-width="0.5"/><path d="M249.42442,187.20803c-0.48298,0.38463 -0.8676,-0.09835 -0.8676,-0.09835l-0.43926,-0.69128c-0.17459,-1.28418 -0.24699,-2.16777 0.27888,-3.2018l-0.17032,-0.09081c-1.23892,-2.09904 -0.88899,-4.19703 0.61214,-5.98258c-0.50356,-0.91333 -1.00424,-1.81909 -1.16511,-2.87508c-0.29195,-1.91662 0.83399,-5.20841 2.45007,-6.49876c-0.43698,-0.98925 -0.87693,-2.38264 -0.74793,-3.40541c0.21385,-1.69535 1.60847,-3.29706 3.12114,-4.08916c-0.2807,-0.56615 -0.52704,-1.21023 -0.49633,-1.83126c0.11661,-2.35785 2.74278,-4.28852 5.02133,-4.33392c0.07593,-0.44314 0.23939,-0.87952 0.48375,-1.25294c0,0 0.35208,-0.50718 0.85926,-0.1551c0.50718,0.35208 0.1551,0.85926 0.1551,0.85926c-0.1858,0.24271 -0.28666,0.56184 -0.29772,0.8673l0.01448,0.05432c0.05555,0.10197 0.08294,0.23543 0.049,0.4089c-0.01608,0.10945 -0.05996,0.23925 -0.16808,0.34067c-0.10497,0.10468 -0.23617,0.14419 -0.3461,0.1566c-0.14362,0.02314 -0.25876,0.00567 -0.3508,-0.03408c-1.64956,-0.29365 -4.10511,1.38119 -4.18652,3.14159c-0.02424,0.52413 0.29619,1.12006 0.53834,1.55605l0.04516,0.06688c0.05424,0.05937 0.10193,0.1378 0.13778,0.24073c0.05707,0.16384 0.05206,0.29768 0.01536,0.40544c-0.03623,0.10792 -0.11347,0.21733 -0.25827,0.31291c-0.08436,0.0557 -0.16403,0.08845 -0.23828,0.1043c-1.28953,0.48809 -2.68407,1.88738 -2.87125,3.3172c-0.10367,0.79185 0.31932,2.0936 0.63312,2.81119l0.3853,0.29369c0,0 0.47869,0.38996 0.08874,0.86863c-0.25489,0.31289 -0.5477,0.25465 -0.71995,0.17677c-0.64845,0.37432 -0.92611,1.19644 -1.23733,1.87515c-0.40461,0.88235 -0.8671,1.95623 -0.9188,2.94204c-0.06393,1.21911 0.69125,2.35789 1.24607,3.37138l0.01969,0.03602c0.11792,0.15385 0.13438,0.30613 0.11058,0.4347c-0.00992,0.13021 -0.06476,0.27303 -0.21775,0.39144c-1.23731,1.3197 -1.69179,2.84979 -0.91344,4.53204l0.40867,0.16716c0,0 0.02898,0.01414 0.07045,0.0426c0.01648,0.00984 0.03314,0.02058 0.04997,0.03227c0.50718,0.35208 0.1551,0.85926 0.1551,0.85926c-0.72965,1.0393 -0.58831,1.69442 -0.42194,2.91805l0.18164,0.08838c0,0 0.38463,0.48298 -0.09834,0.8676z" fill="#000000" stroke="none" stroke-width="0.5"/><path d="M242.41482,172.29474c0,0 -5.59886,0.16721 -6.98063,-0.13855c-1.54298,-0.34143 -8.49108,-4.38126 -8.49108,-4.38126c0,0 6.89506,2.49439 8.19946,2.81517c1.43252,0.35229 7.27226,1.70465 7.27226,1.70465z" fill="#000000" stroke="none" stroke-width="0.5"/><path d="M237.1116,155.44729c-1.12091,-0.28539 -7.37,-1.1872 -7.37,-1.1872c0,0 6.91619,-0.25057 8.2267,0.11589c1.17359,0.32817 5.64411,3.73768 5.64411,3.73768c0,0 -5.26979,-2.35295 -6.5008,-2.66636z" data-paper-data="{&quot;index&quot;:null}" fill="#000000" stroke="none" stroke-width="0.5"/><path d="M244.80611,152.67269c-0.08396,-0.02138 -5.86973,-2.02826 -5.86973,-2.02826c0,0 5.32034,0.82962 6.40994,1.1343c0.97576,0.27286 4.97364,2.95402 4.97364,2.95402c0,0 -4.49035,-1.79947 -5.51385,-2.06007z" data-paper-data="{&quot;index&quot;:null}" fill="#000000" stroke="none" stroke-width="0.5"/><path d="M243.18271,179.77805c0,0 -4.81191,-0.13129 -5.76527,-0.4743c-1.06458,-0.38302 -5.88148,-2.78964 -5.88148,-2.78964c0,0 5.87837,1.7168 5.95918,1.74803c0.98517,0.38067 5.68757,1.51591 5.68757,1.51591z" data-paper-data="{&quot;index&quot;:null}" fill="#000000" stroke="none" stroke-width="0.5"/><path d="M230.42857,141.66918c0.60167,0.13854 0.46313,0.7402 0.46313,0.7402l-0.15216,0.46404c-0.27017,0.38919 -0.54516,0.77502 -0.82228,1.15931c-0.47899,0.28972 -0.98281,0.55709 -1.52036,0.71335c-0.31493,0.09155 -0.74867,-0.05016 -0.96395,0.19728c-0.38202,0.43909 -0.44574,1.27995 -0.95473,1.79058c-0.49456,0.49618 -1.37146,1.01499 -2.03924,1.22756c-0.39063,0.12435 -0.85102,-0.10811 -1.22875,0.05115c-0.34196,0.14418 -0.25125,1.8558 -0.24944,2.10351c0.0091,1.24488 -0.43353,2.44035 -1.26976,3.34652c-0.49731,0.46557 -1.02321,0.88353 -1.5211,1.34797c-0.22527,0.21013 -0.6861,0.31034 -0.68678,0.6184c-0.00085,0.38027 0.4081,0.65377 0.51143,1.01973c0.30354,1.07503 0.18593,2.4177 -0.01989,3.50517c-0.17903,0.94596 -0.53194,1.37491 -1.19137,2.05311c-0.24887,0.25596 -0.65796,0.40399 -0.77207,0.74226c-0.16896,0.5009 0.79912,1.66537 1.00404,2.06805c0.57376,1.23296 0.71729,2.29074 1.23309,3.55165c0.25326,0.6191 -0.85325,3.17866 -0.99763,4.08866c-0.09045,0.56998 0.37886,0.95779 0.58181,1.42164c0.27811,0.63566 0.37561,1.40818 0.49816,2.0859c0,0 0.10968,0.60759 -0.49792,0.71726c-0.60759,0.10966 -0.71726,-0.49792 -0.71726,-0.49792c-0.10243,-0.56856 -0.16869,-1.26478 -0.4086,-1.79754c-0.33324,-0.74002 -0.82305,-1.21131 -0.67555,-2.12413c0.18908,-1.17012 0.98173,-2.92286 0.94075,-3.22363c-0.3404,-2.49805 -0.50287,-2.47115 -1.06714,-3.6815c-0.44528,-0.87823 -1.37194,-1.89982 -1.07256,-2.97613c0.24856,-0.8936 1.46822,-1.2698 1.83032,-2.08595c0.02669,-0.06014 0.17593,-1.09089 0.18025,-1.13809c0.06918,-0.7583 0.17982,-1.62642 -0.03608,-2.37081c-0.07925,-0.27326 -0.57262,-1.29745 -0.55409,-1.46315c0.11969,-1.07001 1.84903,-2.0627 2.56794,-2.737c1.35183,-1.36273 0.42033,-3.13582 1.12461,-4.69709c0.5965,-1.32232 2.09282,-1.00341 3.25425,-1.71294c0.88523,-0.5408 0.71453,-1.46964 1.34853,-2.0946c0.5589,-0.55092 1.82739,-0.56287 2.52941,-0.95468c0.21126,-0.32243 0.42778,-0.64143 0.6476,-0.95808l-0.03681,-0.03695c0,0 0.13854,-0.60167 0.7402,-0.46313z" fill="#000000" stroke="none" stroke-width="0.5"/><path d="M217.48978,215.19807l9.45885,3.91029l-0.87697,2.37921l-9.37801,-4.18616z" fill="#111111" stroke="none" stroke-width="0"/><path d="M512.2759,221.48757h-543.59625v-310.63014h543.59625z" fill="none" stroke="none" stroke-width="NaN"/></g></g></svg>