<svg version="1.1" xmlns="http://www.w3.org/2000/svg" xmlns:xlink="http://www.w3.org/1999/xlink" width="50.4261" height="90.30641" viewBox="0,0,50.4261,90.30641"><g transform="translate(-215.23055,-134.5968)"><g data-paper-data="{&quot;isPaintingLayer&quot;:true}" fill-rule="nonzero" stroke-linecap="butt" stroke-linejoin="miter" stroke-miterlimit="10" stroke-dasharray="" stroke-dashoffset="0" style="mix-blend-mode: normal"><g><g stroke="#000000" stroke-width="2.10416"><path d="M241.08845,219.39058c0,0 -2.4664,0.05352 -3.04721,-1.26819c-0.49136,-1.118 -0.52546,-3.41275 0.18134,-3.74524c3.04267,-1.43168 13.47936,-1.60009 16.83733,-1.42565c4.60978,0.23946 4.0534,3.34368 3.93191,5.68243c-0.12149,2.33875 -3.34591,4.11757 -8.97809,3.65487c-7.33316,-0.60163 -8.92527,-2.89822 -8.92527,-2.89822z" fill="#f9c869"/><path d="M250.24425,219.77868c-8.80005,-0.59562 -8.79642,-3.08859 -8.79642,-3.08859c0,0 -0.70274,0.16366 -1.73773,0.09047c-1.00556,-0.07126 -1.8163,-0.47516 -1.8163,-0.47516c0,0 -0.7395,-0.88285 -0.71124,-2.86666c0.02706,-1.89915 1.6055,-4.2281 1.6055,-4.2281c0,0 -0.76013,-0.96173 -0.45867,-2.40463c0.28793,-1.33466 3.69829,-1.49035 7.24983,-1.3333c4.12028,0.18249 3.32067,2.58505 3.32067,2.58505c0,0 1.55955,-0.22079 3.40297,-0.12503c5.21177,0.27073 8.36514,4.11019 6.50075,8.55496c-0.97931,2.33424 -3.35234,3.6437 -8.55935,3.291z" fill="#8e4108"/></g><g><path d="M241.08845,219.39058c0,0 -2.4664,0.05352 -3.04721,-1.26819c-0.49136,-1.118 -0.52546,-3.41275 0.18134,-3.74524c3.04267,-1.43168 13.47936,-1.60009 16.83733,-1.42565c4.60978,0.23946 4.0534,3.34368 3.93191,5.68243c-0.12149,2.33875 -3.34591,4.11757 -8.97809,3.65487c-7.33316,-0.60163 -8.92527,-2.89822 -8.92527,-2.89822z" fill="#f9c869" stroke="#000000" stroke-width="1.05208"/><path d="M250.24425,219.77868c-8.80005,-0.59562 -8.79642,-3.08859 -8.79642,-3.08859c0,0 -0.70274,0.16366 -1.73773,0.09047c-1.00556,-0.07126 -1.8163,-0.47516 -1.8163,-0.47516c0,0 -0.7395,-0.88285 -0.71124,-2.86666c0.02706,-1.89915 1.6055,-4.2281 1.6055,-4.2281c0,0 -0.76013,-0.96173 -0.45867,-2.40463c0.28793,-1.33466 3.69829,-1.49035 7.24983,-1.3333c4.12028,0.18249 3.32067,2.58505 3.32067,2.58505c0,0 1.55955,-0.22079 3.40297,-0.12503c5.21177,0.27073 8.36514,4.11019 6.50075,8.55496c-0.97931,2.33424 -3.35234,3.6437 -8.55935,3.291z" fill="#8e4108" stroke="#000000" stroke-width="1.05208"/><path d="M245.45457,208.7953c0,0 -1.11072,1.07112 -3.04905,1.1706c-2.63285,0.13503 -3.47032,-0.28194 -3.47032,-0.28194l-0.20601,-1.10422c0,0 1.08283,0.35808 3.35199,0.45067c1.90488,0.07788 3.3734,-0.2351 3.3734,-0.2351z" fill="#000000" stroke="none" stroke-width="0"/></g></g><g><g stroke="#000000"><path d="M247.06757,193.27072c0,0 -2.0458,-3.6029 -3.0242,-6.717c-0.938,-2.9837 -0.8249,-5.2898 0.1941,-5.9763c1.0442,-0.7039 3.4897,0.94 5.7848,3.8495c1.4682,1.8622 3.8496,5.3198 3.8496,5.3198z" fill="#ff0021" stroke-width="2.10416"/><g fill="#ffffff" stroke-width="3.15623"><path d="M256.72037,203.34642c-4.2904,2.7307 -7.8122,1.9495 -10.9821,-3.2793c-2.1126,-3.4855 0.5597,-7.314 4.1625,-9.4445c3.6029,-2.1299 6.8543,-3.545 9.2394,-0.7927c3.4813,3.9495 0.3229,6.7559 0.3229,6.7559c0,0 4.3467,2.2099 -2.7427,6.7606z"/><path d="M250.50787,191.57372c-1.5177,0.8953 -5.9958,3.7801 -6.5692,1.8111c-0.7906,-2.7127 2.6218,-4.3934 4.3272,-5.5744c2.5944,-1.7964 6.131,-2.809 7.8122,-1.1915c1.2304,1.1841 -4.1489,4.1163 -5.5702,4.9548z"/></g></g><g><path d="M247.06757,193.27072c0,0 -2.0458,-3.6029 -3.0242,-6.717c-0.938,-2.9837 -0.8249,-5.2898 0.1941,-5.9763c1.0442,-0.7039 3.4897,0.94 5.7848,3.8495c1.4682,1.8622 3.8496,5.3198 3.8496,5.3198z" fill="#ff0021" stroke="#000000" stroke-width="1.05208"/><g fill="#ffffff" stroke="#000000" stroke-width="2.10416"><path d="M256.72037,203.34642c-4.2904,2.7307 -7.8122,1.9495 -10.9821,-3.2793c-2.1126,-3.4855 0.5597,-7.314 4.1625,-9.4445c3.6029,-2.1299 6.8543,-3.545 9.2394,-0.7927c3.4813,3.9495 0.3229,6.7559 0.3229,6.7559c0,0 4.3467,2.2099 -2.7427,6.7606z"/><path d="M250.50787,191.57372c-1.5177,0.8953 -5.9958,3.7801 -6.5692,1.8111c-0.7906,-2.7127 2.6218,-4.3934 4.3272,-5.5744c2.5944,-1.7964 6.131,-2.809 7.8122,-1.1915c1.2304,1.1841 -4.1489,4.1163 -5.5702,4.9548z"/></g><g fill="#ffffff" stroke="none" stroke-width="0"><path d="M256.72035,203.34644c-4.29037,2.73066 -7.8122,1.9495 -10.98211,-3.27933c-2.11257,-3.48553 0.5597,-7.31404 4.16254,-9.44449c3.60284,-2.12993 6.85429,-3.54498 9.23935,-0.79274c3.48132,3.9495 0.32299,6.75592 0.32299,6.75592c0,0 4.34666,2.20988 -2.74276,6.76065z"/><path d="M250.50783,191.5737c-1.51762,0.89532 -5.99579,3.78012 -6.56917,1.81115c-0.79063,-2.71278 2.62177,-4.39348 4.32772,-5.57443c2.5939,-1.79642 6.13046,-2.80852 7.81168,-1.19148c1.23041,1.18412 -4.14887,4.11625 -5.57023,4.95476z"/></g><path d="M256.47101,193.6384c-0.51026,0.25355 -0.77223,0.44661 -1.11047,0.90847c-0.85323,1.13256 -0.59284,2.53708 0.07944,3.46922c0.24198,0.33614 0.8122,0.90479 1.28195,0.87901c1.42451,-0.07785 2.02052,-1.27143 2.75802,-2.26407c0,0 0.30247,-0.40453 0.707,-0.10206c0.40453,0.30247 0.10205,0.707 0.10205,0.707c-0.89795,1.192 -1.80168,2.71594 -3.56549,2.66965c-2.79221,-0.07364 -3.49921,-4.17622 -2.17202,-5.9637c1.03366,-1.04735 2.57496,-0.7554 2.57496,-0.7554z" fill="#000000" stroke="none" stroke-width="0"/></g></g><g stroke="#000000"><g stroke-width="2.10416"><path d="M254.66087,195.82202c-0.3535,11.2325 -7.1841,14.2162 -14.8706,13.9552c-8.0552,-0.2735 -14.4213,-5.931 -14.152,-11.3171c0.292,-5.8428 2.2567,-9.8759 6.9495,-13.3693c1.3851,-1.0316 0.8722,-2.5823 3.919,-2.9811c3.161,-0.4134 2.8191,-0.1031 7.0847,0.0884c4.4687,0.2009 11.1578,5.314 11.0694,13.6239z" fill="#0052ef"/><path d="M236.74247,189.06182c-0.423,3.2494 -1.7417,4.756 -4.7107,5.5356c-2.7733,0.728 -6.0494,-0.3194 -6.0494,-0.3194c0,0 0.5839,-4.8558 4.7143,-8.7175c2.6071,-2.4371 4.4703,-3.1036 4.4703,-3.1036c0,0 1.9274,3.9032 1.5755,6.6049z" fill="#ff0021"/><path d="M249.42157,187.91462l-6.4645,0.6459c0,0 -0.5166,-1.2093 -1.4087,-3.0641c-0.9343,-2.1005 -2.9259,-3.4603 -2.9259,-3.4603l7.0058,0.3945c0,0 1.1589,0.617 2.4619,2.4335c1.0884,1.5171 1.3314,3.0505 1.3314,3.0505z" fill="#ff0021"/><path d="M253.01437,188.88672c0,0 1.8633,0.1678 2.525,3.5229c0.6092,3.0899 -1.0636,4.5081 -1.0636,4.5081c0,0 -2.0779,-0.3819 -2.7407,-3.8732c-0.6123,-3.2246 1.2793,-4.1578 1.2793,-4.1578z" fill="#ffe84f"/></g><g stroke-width="1.05208"><path d="M254.66087,195.82202c-0.3535,11.2325 -7.1841,14.2162 -14.8706,13.9552c-8.0552,-0.2735 -14.4213,-5.931 -14.152,-11.3171c0.292,-5.8428 2.2567,-9.8759 6.9495,-13.3693c1.3851,-1.0316 0.8722,-2.5823 3.919,-2.9811c3.161,-0.4134 2.8191,-0.1031 7.0847,0.0884c4.4687,0.2009 11.1578,5.314 11.0694,13.6239z" fill="#0052ef"/><path d="M236.74247,189.06182c-0.423,3.2494 -1.7417,4.756 -4.7107,5.5356c-2.7733,0.728 -6.0494,-0.3194 -6.0494,-0.3194c0,0 0.5839,-4.8558 4.7143,-8.7175c2.6071,-2.4371 4.4703,-3.1036 4.4703,-3.1036c0,0 1.9274,3.9032 1.5755,6.6049z" fill="#ff0021"/><path d="M249.42157,187.91462l-6.4645,0.6459c0,0 -0.5166,-1.2093 -1.4087,-3.0641c-0.9343,-2.1005 -2.9259,-3.4603 -2.9259,-3.4603l7.0058,0.3945c0,0 1.1589,0.617 2.4619,2.4335c1.0884,1.5171 1.3314,3.0505 1.3314,3.0505z" fill="#ff0021"/><path d="M238.56887,195.03342c-0.1289,-2.4061 1.4003,-4.4397 3.4156,-4.5428c2.0147,-0.1031 3.7532,1.7638 3.8821,4.1699c0.1294,2.4061 -1.3998,4.4403 -3.415,4.5434c-2.0153,0.1031 -3.7533,-1.7638 -3.8827,-4.1705z" fill="#ffe84f"/><path d="M253.01437,188.88672c0,0 1.8633,0.1678 2.525,3.5229c0.6092,3.0899 -1.0636,4.5081 -1.0636,4.5081c0,0 -2.0779,-0.3819 -2.7407,-3.8732c-0.6123,-3.2246 1.2793,-4.1578 1.2793,-4.1578z" fill="#ffe84f"/></g></g><g><g stroke="#000000" stroke-width="2.10416"><path d="M231.21353,220.8792c0,0 -2.4663,0.05363 -3.04711,-1.26818c-0.49136,-1.118 -0.52547,-3.41265 0.18134,-3.74524c3.04256,-1.43159 13.47936,-1.60009 16.83733,-1.42565c4.60978,0.23946 4.0534,3.34368 3.93191,5.68243c-0.1215,2.33885 -3.34592,4.11767 -8.9781,3.65497c-7.33326,-0.60174 -8.92536,-2.89832 -8.92536,-2.89832z" fill="#f9c869"/><path d="M240.36932,221.2674c-8.79995,-0.59572 -8.79632,-3.08858 -8.79632,-3.08858c0,0 -0.70274,0.16366 -1.73773,0.09037c-1.00556,-0.07116 -1.8163,-0.47516 -1.8163,-0.47516c0,0 -0.7395,-0.88275 -0.71124,-2.86666c0.02695,-1.89906 1.6055,-4.228 1.6055,-4.228c0,0 -0.76023,-0.96183 -0.45877,-2.40474c0.28792,-1.33456 3.69829,-1.49035 7.24992,-1.33319c4.12019,0.18239 3.32067,2.58495 3.32067,2.58495c0,0 1.55955,-0.22079 3.40297,-0.12503c5.21177,0.27073 8.36514,4.11019 6.50075,8.55496c-0.97931,2.33424 -3.35244,3.64369 -8.55946,3.29109z" fill="#8e4108"/></g><g><path d="M231.21353,220.8792c0,0 -2.4663,0.05363 -3.04711,-1.26818c-0.49136,-1.118 -0.52547,-3.41265 0.18134,-3.74524c3.04256,-1.43159 13.47936,-1.60009 16.83733,-1.42565c4.60978,0.23946 4.0534,3.34368 3.93191,5.68243c-0.1215,2.33885 -3.34592,4.11767 -8.9781,3.65497c-7.33326,-0.60174 -8.92536,-2.89832 -8.92536,-2.89832z" fill="#f9c869" stroke="#000000" stroke-width="1.05208"/><path d="M240.36932,221.2674c-8.79995,-0.59572 -8.79632,-3.08858 -8.79632,-3.08858c0,0 -0.70274,0.16366 -1.73773,0.09037c-1.00556,-0.07116 -1.8163,-0.47516 -1.8163,-0.47516c0,0 -0.7395,-0.88275 -0.71124,-2.86666c0.02695,-1.89906 1.6055,-4.228 1.6055,-4.228c0,0 -0.76023,-0.96183 -0.45877,-2.40474c0.28792,-1.33456 3.69829,-1.49035 7.24992,-1.33319c4.12019,0.18239 3.32067,2.58495 3.32067,2.58495c0,0 1.55955,-0.22079 3.40297,-0.12503c5.21177,0.27073 8.36514,4.11019 6.50075,8.55496c-0.97931,2.33424 -3.35244,3.64369 -8.55946,3.29109z" fill="#8e4108" stroke="#000000" stroke-width="1.05208"/><path d="M235.5797,210.28451c0,0 -1.11068,1.07059 -3.04901,1.17006c-2.63285,0.13503 -3.47033,-0.28193 -3.47033,-0.28193l-0.20601,-1.10423c0,0 1.08283,0.35808 3.35199,0.45067c1.90488,0.07788 3.37336,-0.23457 3.37336,-0.23457z" fill="#000000" stroke="none" stroke-width="0"/></g></g><g><g stroke="#000000"><path d="M231.53677,195.29652l-7.1347,-2.7949c0,0 2.0074,-3.6875 3.2736,-5.6928c1.9784,-3.1331 4.2393,-5.0231 5.3514,-4.4324c1.0852,0.5771 1.4382,2.8585 0.8169,5.9237c-0.6486,3.1994 -2.3072,6.9964 -2.3072,6.9964z" fill="#ff0021" stroke-width="2.10416"/><g fill="#ffffff" stroke-width="3.15623"><path d="M221.99447,206.36642c-4.8065,-1.6628 -6.3846,-4.9069 -4.2599,-10.6402c1.4161,-3.8222 6.0763,-4.1094 9.9847,-2.6123c3.9085,1.4971 7.0384,3.1641 6.3662,6.7433c-0.6502,3.4613 -5.1605,2.8601 -5.1605,2.8601c0,0 2.0752,1.9395 1.2767,3.3656c-1.2346,2.2041 -4.3335,1.6233 -8.2072,0.2835z"/><path d="M227.35217,194.18072c-1.645,-0.6323 -6.6881,-2.3456 -5.5029,-4.0194c1.6328,-2.3051 5.071,-0.6781 7.0563,-0.0763c3.0199,0.9148 6.0121,3.0552 5.7901,5.3777c-0.1621,1.6996 -5.8033,-0.6902 -7.3435,-1.282z"/></g></g><g><path d="M231.53677,195.29652l-7.1347,-2.7949c0,0 2.0074,-3.6875 3.2736,-5.6928c1.9784,-3.1331 4.2393,-5.0231 5.3514,-4.4324c1.0852,0.5771 1.4382,2.8585 0.8169,5.9237c-0.6486,3.1994 -2.3072,6.9964 -2.3072,6.9964z" fill="#ff0021" stroke="#000000" stroke-width="1.05208"/><g fill="#ffffff" stroke="#000000" stroke-width="2.10416"><path d="M221.99447,206.36642c-4.8065,-1.6628 -6.3846,-4.9069 -4.2599,-10.6402c1.4161,-3.8222 6.0763,-4.1094 9.9847,-2.6123c3.9085,1.4971 7.0384,3.1641 6.3662,6.7433c-0.6502,3.4613 -5.1605,2.8601 -5.1605,2.8601c0,0 2.0752,1.9395 1.2767,3.3656c-1.2346,2.2041 -4.3335,1.6233 -8.2072,0.2835z"/><path d="M227.35217,194.18072c-1.645,-0.6323 -6.6881,-2.3456 -5.5029,-4.0194c1.6328,-2.3051 5.071,-0.6781 7.0563,-0.0763c3.0199,0.9148 6.0121,3.0552 5.7901,5.3777c-0.1621,1.6996 -5.8033,-0.6902 -7.3435,-1.282z"/></g><g fill="#ffffff" stroke="none" stroke-width="0"><path d="M221.99443,206.36643c-4.80642,-1.66281 -6.38453,-4.90689 -4.25986,-10.64019c1.41609,-3.8222 6.07627,-4.10941 9.98474,-2.6123c3.90847,1.4971 7.03839,3.16413 6.36612,6.74329c-0.65018,3.46134 -5.16044,2.86007 -5.16044,2.86007c0,0 2.07522,1.9395 1.27669,3.36559c-1.23462,2.2041 -4.3335,1.62336 -8.20725,0.28354z"/><path d="M227.35214,194.18075c-1.64493,-0.6323 -6.68806,-2.3456 -5.50289,-4.01946c1.63282,-2.3051 5.07101,-0.67807 7.05628,-0.07628c3.01999,0.91478 6.0121,3.05523 5.79011,5.37769c-0.16202,1.69963 -5.80326,-0.69016 -7.3435,-1.28196z"/></g><path d="M221.50101,195.68732c0,0 0.0526,1.18254 -0.25829,2.80116c-0.25566,1.32983 -0.62703,2.0789 -1.1536,2.04681c-0.50499,-0.03051 -0.93214,-1.10941 -0.54603,-2.42766c0.30142,-1.02893 1.95791,-2.41978 1.95791,-2.41978z" fill="#000000" stroke="none" stroke-width="0"/><path d="M230.67197,201.08711c-0.71909,0.51972 -0.9858,0.96528 -1.35876,1.84166c-0.32246,0.7575 -0.56181,1.56234 -0.50973,2.33088c-0.6302,-0.75276 -0.64545,-1.68228 -0.16886,-2.69858c0.47607,-1.0163 0.98528,-1.47764 2.03735,-1.47396z" fill="#000000" stroke="none" stroke-width="0"/><path d="M224.57465,196.47059c0,0 0.0526,1.18253 -0.25829,2.80115c-0.25566,1.3293 -0.62703,2.07838 -1.1536,2.04682c-0.50499,-0.03051 -0.93162,-1.10942 -0.54551,-2.42767c0.30089,-1.02893 1.95739,-2.4203 1.95739,-2.4203z" fill="#000000" stroke="none" stroke-width="0"/></g></g><g><g stroke="#000000"><path d="M264.46307,155.30172c-0.1725,2.0495 -6.0652,5.0127 -10.8327,5.3204c-3.8422,0.2483 -3.1231,-3.4282 -3.2488,-5.3782c-0.1257,-1.9506 7.4303,-2.0111 11.2725,-2.2594c3.8417,-0.2477 2.9211,0.9911 2.809,2.3172z" fill="#880010" stroke-width="2.10416"/><path d="M226.68567,179.72362c0,0 -0.8696,0.6849 -1.9243,0.0179c-1.0547,-0.667 -1.8942,-2.3125 -0.4876,-3.2152c1.6823,-1.0794 1.0195,-4.3024 2.0747,-3.6354c0,0 3.9053,0.2967 4.304,1.8259c0,0 1.9211,4.3661 1.2983,5.1246c0,0 -0.9079,0.7691 -3.4014,0.8117c-1.3508,0.0237 -1.8637,-0.9295 -1.8637,-0.9295z" fill="#5a2c0a" stroke-width="2.10416"/><path d="M227.93237,158.88672c2.3435,0.3898 19.8537,-2.4466 22.9653,-2.4745c4.6033,-0.041 3.6023,4.181 4.2219,8.7428c0.7123,5.2446 3.2436,6.6175 1.7176,11.6854c-0.5887,1.9542 -5.9537,6.8338 -15.2494,6.5786c-10.8322,0.403 -13.496,-8.9205 -13.496,-8.9205c0,0 -8.6265,0.1436 -10.6113,-8.969c-0.9242,-4.2441 1.474,-7.9758 4.5771,-8.1762c3.1031,-0.2004 5.0605,1.3977 5.8748,1.5334z" fill="#ffdebd" stroke-width="2.10416"/><path d="M255.98177,141.32802c1.7985,7.9143 0.282,8.4687 -3.849,11.3062c-6.02,4.1341 -14.2578,3.9074 -20.758,7.2357c-1.7065,0.8742 -6.3009,-0.6849 -8.2146,-0.5619c-3.9138,0.2531 -6.3025,-2.4018 -6.6791,-5.7227c-0.8312,-7.3256 2.7853,-7.5881 6.6991,-7.8406c0,0 4.3534,0.4361 5.9884,2.6249c0,0 5.3629,-10.1352 11.6012,-11.7475c8.0305,-2.0752 13.9206,-0.9774 15.212,4.7059z" fill="#ff0021" stroke-width="2.10416"/><path d="M264.60457,154.16442c-0.0773,0.4661 -20.8274,4.837 -26.6491,5.8575c-2.8295,0.496 -8.6096,0.6407 -8.5323,0.1746c0.2861,-1.7238 1.2162,-4.5086 3.8853,-5.5702c3.2257,-1.283 14.3509,-4.8916 22.8175,-5.3083c3.4608,-0.1704 8.7648,3.1226 8.4786,4.8464z" fill="#bc041a" stroke-width="2.10416"/><path d="M255.95597,180.30542c-2.1636,0.9469 -5.7701,0.8364 -8.1572,0.282c-1.3725,-0.3188 -1.596,-1.3861 -1.596,-1.3861c0,0 -1.5292,1.0257 -3.2788,1.1388c-2.8075,0.181 -4.8769,-1.6723 -5.0558,-4.4429c-0.1962,-3.0379 0.3251,-4.8543 0.3251,-4.8543c0,0 3.3803,1.979 5.7743,2.5802c2.3945,0.6013 6.1726,1.737 10.1683,1.4219c3.9964,-0.3151 6.3425,-2.8974 6.3425,-2.8974c0,0 1.0153,3.5739 0.1315,5.5539c-0.5271,1.181 -3.0926,0.9185 -3.0926,0.9185c0,0 0.0873,0.9642 -1.5613,1.6854z" fill="#38291e" stroke-width="2.10416"/><path d="M260.91497,168.33862c0.08,4.3435 -1.9479,7.0536 -6.9016,6.9868c-4.7033,-0.0631 -6.4077,-1.8737 -6.6102,-5.0137c-0.2025,-3.1399 2.3172,-6.4955 5.8348,-6.9994c3.5181,-0.5035 7.5839,-0.0195 7.677,5.0263z" fill="#ffdebd" stroke-width="3.15623"/></g><path d="M264.46307,155.30232c-0.1725,2.0489 -6.0652,5.0121 -10.8327,5.3198c-3.8422,0.2483 -3.1231,-3.4282 -3.2488,-5.3782c-0.1257,-1.9506 7.4303,-2.0111 11.2725,-2.2594c3.8417,-0.2477 2.9211,0.9911 2.809,2.3178z" fill="#880010" stroke="#000000" stroke-width="1.05208"/><path d="M226.68567,179.72362c0,0 -0.8696,0.6849 -1.9243,0.0179c-1.0547,-0.667 -1.8942,-2.3125 -0.4876,-3.2152c1.6823,-1.0794 1.0195,-4.3024 2.0747,-3.6354c0,0 3.9053,0.2967 4.304,1.8259c0,0 1.9211,4.3661 1.2983,5.1246c0,0 -0.9079,0.7691 -3.4014,0.8117c-1.3508,0.0237 -1.8637,-0.9295 -1.8637,-0.9295z" fill="#5a2c0a" stroke="#000000" stroke-width="1.05208"/><path d="M227.93237,158.88672c2.3435,0.3898 19.8537,-2.4466 22.9653,-2.4745c4.6033,-0.041 3.6023,4.181 4.2219,8.7428c0.7123,5.2446 3.2436,6.6175 1.7176,11.6854c-0.5887,1.9542 -5.9537,6.8338 -15.2494,6.5786c-10.8322,0.403 -13.496,-8.9205 -13.496,-8.9205c0,0 -8.6265,0.1436 -10.6113,-8.969c-0.9242,-4.2441 1.474,-7.9758 4.5771,-8.1762c3.1031,-0.2004 5.0605,1.3977 5.8748,1.5334z" fill="#ffdebd" stroke="#000000" stroke-width="1.05208"/><path d="M233.77297,162.71362c0.0905,1.3956 1.8585,3.3314 0.6423,4.0232c-1.4145,0.8038 -2.2252,-0.1305 -2.2252,-0.1305c0,0 0.3656,0.8233 -1.566,1.3151c-1.4345,0.3656 -2.1357,-2.6465 -2.2882,-5.0105c-0.1526,-2.364 -0.3094,-4.6539 1.1636,-4.8038c6.2025,-0.6302 4.1209,2.242 4.2735,4.6065z" fill="#5a2c0a" stroke="#000000" stroke-width="1.05208"/><path d="M244.60778,159.5774c0.43451,-0.04208 0.86796,0.32983 1.21778,0.96371c0.34877,0.63387 0.61389,1.53078 0.71121,2.53972c0.09731,1.00894 0.00894,1.94003 -0.21252,2.62914c-0.22146,0.68911 -0.57601,1.13729 -1.01052,1.17938c-0.43503,0.04155 -0.86849,-0.32982 -1.21778,-0.96423c-0.34929,-0.63387 -0.61442,-1.53078 -0.71173,-2.53972c-0.09731,-1.00894 -0.00894,-1.94003 0.21252,-2.62914c0.22146,-0.68911 0.57601,-1.13677 1.01105,-1.17885z" fill="#000000" stroke="none" stroke-width="0"/><path d="M255.98177,141.32802c1.7985,7.9143 0.282,8.4687 -3.849,11.3062c-6.02,4.1341 -14.2578,3.9074 -20.758,7.2357c-1.7065,0.8742 -6.3009,-0.6849 -8.2146,-0.5619c-3.9138,0.2531 -6.3025,-2.4018 -6.6791,-5.7227c-0.8312,-7.3256 2.7853,-7.5881 6.6991,-7.8406c0,0 4.3534,0.4361 5.9884,2.6249c0,0 5.3629,-10.1352 11.6012,-11.7475c8.0305,-2.0752 13.9206,-0.9774 15.212,4.7059z" fill="#ff0021" stroke="#000000" stroke-width="1.05208"/><path d="M254.72767,145.98982c0.1889,2.9258 -0.4518,5.1773 -6.1862,5.7191c-6.0536,0.5713 -6.6812,-1.9506 -6.87,-4.8764c-0.1889,-2.9258 2.5807,-5.486 6.1862,-5.7185c3.6054,-0.2331 6.6812,1.95 6.87,4.8758z" fill="#ffffff" stroke="#000000" stroke-width="1.05208"/><path d="M264.60457,154.16442c-0.0773,0.4661 -20.8274,4.837 -26.6491,5.8575c-2.8295,0.496 -8.6096,0.6407 -8.5323,0.1746c0.2861,-1.7238 1.2162,-4.5086 3.8853,-5.5702c3.2257,-1.283 14.3509,-4.8916 22.8175,-5.3083c3.4608,-0.1704 8.7648,3.1226 8.4786,4.8464z" fill="#bc041a" stroke="#000000" stroke-width="1.05208"/><path d="M243.90237,149.7631l2.14045,-7.02788l2.56181,3.02577l1.27354,-2.93529l3.202,5.21094l-1.88164,1.30879l-1.07575,-4.03629l-1.29143,2.59179l-2.07364,-2.38611l-0.55707,4.09994z" fill="#ff0021" stroke="none" stroke-width="0"/><path d="M255.95597,180.30542c-2.1636,0.9469 -5.7701,0.8364 -8.1572,0.282c-1.3725,-0.3188 -1.596,-1.3861 -1.596,-1.3861c0,0 -1.5292,1.0257 -3.2788,1.1388c-2.8075,0.181 -4.8769,-1.6723 -5.0558,-4.4429c-0.1962,-3.0379 0.3251,-4.8543 0.3251,-4.8543c0,0 3.3803,1.979 5.7743,2.5802c2.3945,0.6013 6.1726,1.737 10.1689,1.4219c3.9958,-0.3151 6.3419,-2.8974 6.3419,-2.8974c0,0 1.0153,3.5739 0.1315,5.5539c-0.5271,1.181 -3.0926,0.9185 -3.0926,0.9185c0,0 0.0873,0.9642 -1.5613,1.6854z" fill="#38291e" stroke="#000000" stroke-width="1.05208"/><path d="M252.77033,158.21548c0.43503,-0.04208 0.86849,0.32983 1.21778,0.96371c0.34877,0.6344 0.61389,1.5313 0.7112,2.54024c0.09785,1.00894 0.00894,1.94003 -0.21199,2.62914c-0.22199,0.68911 -0.57601,1.13677 -1.01105,1.17885c-0.43503,0.04208 -0.86849,-0.32983 -1.21778,-0.96371c-0.34877,-0.63441 -0.61389,-1.5313 -0.7112,-2.54024c-0.09785,-1.00894 -0.00894,-1.94003 0.21199,-2.62914c0.22199,-0.68911 0.57601,-1.13677 1.01105,-1.17886z" fill="#000000" stroke="none" stroke-width="0"/><path d="M260.91497,168.33862c0.08,4.3435 -2.395,7.0536 -7.3488,6.9868c-7.769,-0.5744 -5.9605,-1.8737 -6.163,-5.0137c-0.2025,-3.1399 2.3172,-6.4955 5.8348,-6.9994c3.5181,-0.5035 7.5839,-0.0195 7.677,5.0263z" fill="#ffdebd" stroke="#000000" stroke-width="2.10416"/><path d="M260.91498,168.33857c0.07996,4.3435 -2.41137,7.08363 -7.36507,7.01683c-4.70331,-0.06365 -7.93055,-1.3677 -8.19305,-5.43503c-0.2625,-4.06681 3.90005,-6.07417 7.41767,-6.57812c3.51815,-0.50342 8.04734,-0.04945 8.14045,4.99632z" fill="#ffdebd" stroke="none" stroke-width="0"/><g fill="#000000" stroke="none" stroke-width="0"><path d="M226.71774,167.66419c-1.7596,2.69542 -4.96739,1.65229 -4.96739,1.65229c0,0 1.50289,0.58759 3.65754,-1.44976c2.84744,-3.01894 -3.51604,-5.75644 -3.51604,-5.75644c0,0 7.55339,1.37611 4.82588,5.55391z"/><path d="M222.22694,165.87934c0,0 2.53709,-0.83851 4.81273,0.16412c-0.13519,0.26196 -0.23882,0.53551 -0.30721,0.81904c-2.0142,-1.23514 -4.50552,-0.98316 -4.50552,-0.98316z"/></g></g></g></g></svg>