<svg version="1.1" xmlns="http://www.w3.org/2000/svg" xmlns:xlink="http://www.w3.org/1999/xlink" width="362.57249" height="98.35444" viewBox="0,0,362.57249,98.35444"><g transform="translate(-57.71375,-130.82279)"><g data-paper-data="{&quot;isPaintingLayer&quot;:true}" fill-rule="nonzero" stroke-linejoin="miter" stroke-miterlimit="10" stroke-dasharray="" stroke-dashoffset="0" style="mix-blend-mode: normal"><g stroke="#8459b2"><path d="M61.71375,180.00001h55.09749" fill="none" stroke-width="8" stroke-linecap="round"/><g><path d="M116.81124,180.00001h68.87187" fill="none" stroke-width="8" stroke-linecap="round"/><path d="M104.06995,180.00001c0,-7.03682 5.70447,-12.74129 12.74129,-12.74129c7.03682,0 12.74129,5.70447 12.74129,12.74129c0,7.03682 -5.70447,12.7413 -12.74129,12.7413c-7.03682,0 -12.74129,-5.70448 -12.74129,-12.7413z" fill="#bcaccb" stroke-width="4" stroke-linecap="butt"/></g><g><path d="M185.6831,180.00001h68.87187" fill="none" stroke-width="8" stroke-linecap="round"/><path d="M172.94181,180.00001c0,-7.03682 5.70447,-12.74129 12.74129,-12.74129c7.03682,0 12.74129,5.70447 12.74129,12.74129c0,7.03682 -5.70448,12.7413 -12.74129,12.7413c-7.03682,0 -12.74129,-5.70448 -12.74129,-12.7413z" fill="#a08eb2" stroke-width="4" stroke-linecap="butt"/></g><g><path d="M254.55496,180.00001h68.87186" fill="none" stroke-width="8" stroke-linecap="round"/><path d="M241.81367,180.00001c0,-7.03682 5.70447,-12.74129 12.74129,-12.74129c7.03682,0 12.74129,5.70447 12.74129,12.74129c0,7.03682 -5.70448,12.7413 -12.74129,12.7413c-7.03682,0 -12.74129,-5.70448 -12.74129,-12.7413z" fill="#a08eb2" stroke-width="4" stroke-linecap="butt"/></g></g><path d="M323.9318,180.00001c0,-26.05526 21.12196,-47.17722 47.17722,-47.17722c26.05526,0 47.17722,21.12196 47.17722,47.17722c0,26.05526 -21.12196,47.17722 -47.17722,47.17722c-26.05526,0 -47.17722,-21.12196 -47.17722,-47.17722z" fill="#a08eb2" stroke="#8459b2" stroke-width="4" stroke-linecap="butt"/><path d="M360.57696,166.90813l10.71851,-23.46485l10.13913,22.88547l25.49268,2.8969l-19.11951,16.802l4.92472,24.9133l-20.85764,-12.16696l-22.88547,12.45665l5.5041,-25.49267l-18.54013,-16.80199z" fill="#dac2f3" stroke="#000000" stroke-width="0" stroke-linecap="round"/></g></g></svg>