<svg version="1.1" xmlns="http://www.w3.org/2000/svg" xmlns:xlink="http://www.w3.org/1999/xlink" width="488.48647" height="367.9739" viewBox="0,0,488.48647,367.9739"><g transform="translate(4.994,4.7409)"><g data-paper-data="{&quot;isPaintingLayer&quot;:true}" fill="#000000" fill-rule="nonzero" stroke="#000000" stroke-width="2" stroke-linecap="butt" stroke-linejoin="miter" stroke-miterlimit="10" stroke-dasharray="" stroke-dashoffset="0" style="mix-blend-mode: normal"><path d="M-3.99399,362.23301v-364.46603l196.11102,-1.5015c0.59279,3.16182 23.29459,62.46841 23.29459,62.46841l6.23051,47.54231c0,0 21.65767,105.54209 21.65479,119.76469c-0.00288,14.21875 -0.00576,28.4375 -0.00864,42.65625c-0.00288,14.21882 -0.00781,28.43764 -0.00782,42.65645c-0.00001,14.21875 -0.00002,28.4375 -0.00003,42.65625c0,2.74105 0,5.48211 0,8.22316z"/><path d="M482.49248,-2.23302v364.46603h-238.68234c0,-2.74105 0,-5.48211 0,-8.22316c0.00001,-14.21875 0.00002,-28.4375 0.00003,-42.65625c0.00001,-14.21868 0.00495,-28.43736 0.00782,-42.65605c0.00156,-7.72339 4.70476,-32.79625 4.88596,-65.06646c0.15239,-27.13917 -4.21209,-62.88505 -4.21209,-62.88505c0,0 15.24841,-136.41704 14.3154,-141.4541z"/></g></g></svg>