<svg version="1.1" xmlns="http://www.w3.org/2000/svg" xmlns:xlink="http://www.w3.org/1999/xlink" width="485.16807" height="364.09844" viewBox="0,0,485.16807,364.09844"><g transform="translate(3.21843,3.14845)"><g data-paper-data="{&quot;isPaintingLayer&quot;:true}" fill-rule="nonzero" stroke-linejoin="miter" stroke-miterlimit="10" stroke-dasharray="" stroke-dashoffset="0" style="mix-blend-mode: normal"><path d="M-1.1087,359.73947v-359.13043h482.2174v359.13043z" fill="#a5e85d" stroke="none" stroke-width="0" stroke-linecap="butt"/><path d="M50.73913,359.69999v-355.63343h53.86956v355.63343z" fill="#b6ff66" stroke="#9fe05a" stroke-width="2.5" stroke-linecap="butt"/><path d="M161.23913,359.69999v-355.63343h53.86956v355.63343z" fill="#b6ff66" stroke="#9fe05a" stroke-width="2.5" stroke-linecap="butt"/><path d="M273.2391,357.79697v-355.63343h53.86957v355.63343z" fill="#b6ff66" stroke="#9fe05a" stroke-width="2.5" stroke-linecap="butt"/><path d="M384.23917,355.89396v-355.63343h53.86957v355.63343z" fill="#b6ff66" stroke="#9fe05a" stroke-width="2.5" stroke-linecap="butt"/><path d="M-3.21843,197.89844v-129.96711h484.43685v129.96711z" fill="#8cc64f" stroke="none" stroke-width="NaN" stroke-linecap="butt"/><path d="M-0.21843,185.89844v-123.96711h276.93685v123.96711z" fill="#ae9e92" stroke="none" stroke-width="NaN" stroke-linecap="butt"/><path d="M-1.39826,68.92549v-69.49298h278.3656v69.49298z" fill="#a3e859" stroke="none" stroke-width="0" stroke-linecap="butt"/><path d="M29.11787,96.86005l-0.58637,-96.7585h31.09683l0.58636,109.51473z" fill="#b6ff68" stroke="#9fe05a" stroke-width="2.5" stroke-linecap="butt"/><path d="M92.90529,88.96335l-0.58636,-88.86179h31.09683l0.58636,73.06837z" fill="#b2ff60" stroke="#9fe05a" stroke-width="2.5" stroke-linecap="butt"/><path d="M37.97657,132.50522c0,-5.19562 4.90998,-10.86729 10.96677,-10.86729c3.00692,0 10.50068,-5.11959 16.1426,-6.69946c5.72252,-1.60245 9.57257,0.35267 9.57257,2.9689c0,2.04056 -7.56432,13.1747 -8.85108,14.71621c-1.98954,2.38344 -13.1861,5.39639 -16.86409,5.39639c-6.05678,0 -10.96677,-0.31912 -10.96677,-5.51475z" fill="#84786f" stroke="none" stroke-width="0" stroke-linecap="butt"/><path d="M147.69884,99.97301c0,5.19562 -0.93926,7.94772 -6.99603,7.94772c-3.00691,0 -5.9627,2.6866 -11.60464,4.26648c-5.72252,1.60245 -12.4088,-7.16499 -12.4088,-9.78123c0,-2.04056 5.86258,-3.9294 7.14934,-5.47091c1.98954,-2.38345 8.08088,-4.42319 11.75889,-4.42319c6.05678,0 12.10125,2.2655 12.10125,7.46112z" data-paper-data="{&quot;index&quot;:null}" fill="#84786f" stroke="none" stroke-width="0" stroke-linecap="butt"/><path d="M166.11788,94.86005l-0.58637,-96.7585h31.09683l0.58636,109.51473z" fill="#b6ff68" stroke="#9fe05a" stroke-width="2.5" stroke-linecap="butt"/><path d="M108.93624,152.973c0,-5.19562 6.04447,-7.46112 12.10125,-7.46112c3.67801,0 15.76935,-5.96026 17.75889,-3.57681c1.28676,1.54151 8.14934,13.43035 8.14934,15.47091c0,2.61624 -5.68628,12.38368 -11.4088,10.78123c-5.64194,-1.57988 -16.59773,-7.26648 -19.60464,-7.26648c-6.05677,0 -6.99603,-2.7521 -6.99603,-7.94772z" data-paper-data="{&quot;index&quot;:null}" fill="#84786f" stroke="none" stroke-width="0" stroke-linecap="butt"/><path d="M30.94334,157.3584c3.67799,0 15.87455,-1.98705 17.86409,0.39639c1.28676,1.54151 14.85108,9.67565 14.85108,11.71621c0,2.61623 -10.85005,12.57135 -16.57257,10.9689c-5.64192,-1.57987 -13.13568,-6.69946 -16.1426,-6.69946c-6.05679,0 -10.96677,-5.67167 -10.96677,-10.86729c0,-5.19563 4.90999,-5.51475 10.96677,-5.51475z" data-paper-data="{&quot;index&quot;:null}" fill="#84786f" stroke="none" stroke-width="0" stroke-linecap="butt"/><path d="M198.7835,185.89846v-123.96711h281.93492v123.96711z" fill="#ae9e92" stroke="none" stroke-width="NaN" stroke-linecap="butt"/><path d="M198.60174,68.92549v-69.49298h281.35753v69.49298z" fill="#a3e859" stroke="none" stroke-width="0" stroke-linecap="butt"/><path d="M229.11787,83.60724l-0.58637,-83.50569h31.09683l0.58636,94.51473z" fill="#b6ff68" stroke="#9fe05a" stroke-width="2.5" stroke-linecap="butt"/><path d="M292.90529,88.96335l-0.58636,-88.86179h31.09683l0.58636,73.06837z" fill="#b2ff60" stroke="#9fe05a" stroke-width="2.5" stroke-linecap="butt"/><path d="M421.63465,87.01198l-0.58637,-87.64691h31.09684l0.58636,99.18826z" fill="#b3ff62" stroke="#9fe05a" stroke-width="2.5" stroke-linecap="butt"/><path d="M224.97658,131.50522c0,-5.19562 4.90998,-10.86729 10.96677,-10.86729c3.00692,0 10.50068,-5.11959 16.1426,-6.69946c5.72252,-1.60245 9.57257,0.35267 9.57257,2.9689c0,2.04056 -7.56432,13.1747 -8.85108,14.71621c-1.98954,2.38344 -13.1861,5.39639 -16.86409,5.39639c-6.05678,0 -10.96677,-0.31912 -10.96677,-5.51475z" fill="#84786f" stroke="none" stroke-width="0" stroke-linecap="butt"/><path d="M347.69884,99.97301c0,5.19562 -0.93926,7.94772 -6.99603,7.94772c-3.00691,0 -5.9627,2.6866 -11.60464,4.26648c-5.72252,1.60245 -12.4088,-7.16499 -12.4088,-9.78123c0,-2.04056 5.86258,-3.9294 7.14934,-5.47091c1.98954,-2.38345 8.08088,-4.42319 11.75889,-4.42319c6.05678,0 12.10125,2.2655 12.10125,7.46112z" data-paper-data="{&quot;index&quot;:null}" fill="#84786f" stroke="none" stroke-width="0" stroke-linecap="butt"/><path d="M366.11788,94.86005l-0.58637,-96.7585h31.09683l0.58636,109.51473z" fill="#b6ff68" stroke="#9fe05a" stroke-width="2.5" stroke-linecap="butt"/><path d="M430.65852,116.87315c0,5.19562 -4.90998,10.86729 -10.96677,10.86729c-3.00692,0 -10.50068,5.11959 -16.1426,6.69946c-5.72252,1.60245 -9.57257,-0.35267 -9.57257,-2.9689c0,-2.04056 7.56432,-13.1747 8.85108,-14.71621c1.98954,-2.38344 13.1861,-5.39639 16.86409,-5.39639c6.05678,0 10.96677,0.31912 10.96677,5.51475z" data-paper-data="{&quot;index&quot;:null}" fill="#84786f" stroke="none" stroke-width="0" stroke-linecap="butt"/><path d="M423.69173,180.01996c-3.67799,0 -13.87455,-6.01295 -15.86409,-8.39639c-1.28676,-1.54151 -8.85108,-7.67565 -8.85108,-9.71621c0,-2.61623 3.85005,-9.57135 9.57257,-7.9689c5.64192,1.57987 14.13568,4.69946 17.1426,4.69946c6.05679,0 11.96677,7.67167 11.96677,12.86729c0,5.19563 -7.90999,8.51475 -13.96677,8.51475z" data-paper-data="{&quot;index&quot;:null}" fill="#84786f" stroke="none" stroke-width="0" stroke-linecap="butt"/><path d="M308.93623,152.973c0,-5.19562 6.04447,-7.46112 12.10125,-7.46112c3.67801,0 15.76935,-5.96026 17.75889,-3.57681c1.28676,1.54151 8.14934,13.43035 8.14934,15.47091c0,2.61624 -5.68628,12.38368 -11.4088,10.78123c-5.64194,-1.57988 -16.59773,-7.26648 -19.60464,-7.26648c-6.05677,0 -6.99603,-2.7521 -6.99603,-7.94772z" data-paper-data="{&quot;index&quot;:null}" fill="#84786f" stroke="none" stroke-width="0" stroke-linecap="butt"/><path d="M204.94335,156.3584c3.67799,0 15.87455,-1.98705 17.86409,0.39639c1.28676,1.54151 14.85108,9.67565 14.85108,11.71621c0,2.61623 -10.85005,12.57135 -16.57257,10.9689c-5.64192,-1.57987 -13.13568,-6.69946 -16.1426,-6.69946c-6.05679,0 -10.96677,-5.67167 -10.96677,-10.86729c0,-5.19563 4.90999,-5.51475 10.96677,-5.51475z" data-paper-data="{&quot;index&quot;:null}" fill="#84786f" stroke="none" stroke-width="0" stroke-linecap="butt"/><path d="M3.69965,2.10155h477" fill="none" stroke="#8cc64f" stroke-width="2.5" stroke-linecap="round"/></g></g></svg>