<svg version="1.1" xmlns="http://www.w3.org/2000/svg" xmlns:xlink="http://www.w3.org/1999/xlink" width="46.49867" height="77.37199" viewBox="0,0,46.49867,77.37199"><g transform="translate(-216.61773,-141.30749)"><g data-paper-data="{&quot;isPaintingLayer&quot;:true}" fill-rule="nonzero" stroke-linejoin="miter" stroke-miterlimit="10" stroke-dasharray="" stroke-dashoffset="0" style="mix-blend-mode: normal"><g stroke="#000000" stroke-width="1.5" stroke-linecap="round"><path d="M253.14283,212.87533c0,0 -0.02493,3.72857 -4.85879,4.45415c-0.84163,0.12634 -5.75965,-0.70791 -5.75965,-0.70791c0,0 -4.8356,0.58811 -6.23265,-0.2781c-2.02623,-1.25634 -0.50809,-4.92017 -0.50809,-4.92017l3.47249,-1.05264l8.57303,0.51417l3.66324,0.90142z" fill="#ebddc5"/><path d="M236.46816,206.73296c0,0 -0.30458,-1.64211 1.85187,-2.75013c1.3017,-0.66884 3.39802,-1.33571 7.28916,-0.78255c1.61859,0.2301 1.28402,1.47961 1.28402,1.47961c1.33518,-0.51328 2.45953,-0.34259 3.39255,-0.1537c0.95378,0.19311 1.70705,0.41582 2.22904,0.92891c1.96886,1.9353 1.31721,5.96997 1.31721,5.96997c0,0 -0.18716,3.22933 -4.94482,3.09982c-0.33614,-0.00916 -2.6153,-0.12473 -4.814,-0.13132c-2.19637,-0.00659 -4.31198,0.09585 -5.24331,0.00303c-2.03698,-0.20301 -3.01414,-0.92406 -3.01414,-0.92406c0,0 -0.80138,-0.48722 -1.10874,-1.44743c-0.51639,-1.61322 -0.41054,-4.17303 1.5951,-5.16421c0.58394,-0.28858 1.8714,0.17487 3.09925,0.18437c1.3498,0.01046 3.03911,-0.51308 3.08853,-0.5194" fill="#864824"/></g><g stroke="#000000" stroke-linecap="round"><path d="M244.99661,197.65542c0,0 -4.1409,-8.43877 -3.32595,-13.88182c0.14358,-0.95898 0.35869,-2.23035 0.86591,-2.91027c1.407,-1.88611 2.41274,-0.14972 3.62521,1.74592c1.96685,3.07509 3.73213,8.10947 3.73213,8.10947c0,0 2.47785,4.91324 -0.01133,7.53512c-3.05765,3.22065 -4.88596,-0.59842 -4.88596,-0.59842z" data-paper-data="{&quot;index&quot;:null}" fill="#c12929" stroke-width="1.5"/><g><path d="M243.19141,197.00724c0,0 -5.49094,-2.5756 0.67525,-8.74326c4.33852,-4.33955 7.72173,-0.89905 7.72173,-0.89905l-0.05237,2.37778l-3.82128,3.76744z" fill="#cdcbcc" stroke-width="1"/><g><path d="M249.72165,188.54159c0,0 1.45829,-1.32685 4.01958,-0.73079c5.77024,1.21968 4.38919,5.98535 4.38919,5.98535c0,0 1.89233,-0.19204 1.57736,3.23006c-0.12193,1.32473 -3.6401,3.22204 -3.6401,3.22204c0,0 -3.83635,5.74638 -8.73706,2.51639c-1.06752,-0.46518 -2.00345,-1.41305 -2.84407,-2.39025c-0.95573,-1.11101 -1.75442,-2.29231 -1.87783,-3.42459c-0.27279,-2.50287 1.66071,-4.3994 1.66071,-4.3994" fill="#cdcbcc" stroke-width="1.5"/><g fill="none"><path d="M258.24116,193.91186c0,0 -3.61332,4.92611 -6.38962,2.21434c-1.37351,-1.34158 1.4954,-3.73813 1.4954,-3.73813" stroke-width="1.5"/><path d="M248.53133,200.15512c0,0 0.216,-1.36081 0.54495,-2.20846c0.60623,-1.56217 2.16648,-2.60297 2.16648,-2.60297" stroke-width="1"/></g></g></g></g><g stroke="#000000"><g stroke-linecap="round"><path d="M245.37689,181.73786c0,0 9.24802,6.3677 7.41731,14.3482c-2.01326,8.77623 -12.7374,9.18285 -12.7374,9.18285c0,0 -4.08007,-0.08406 -7.96808,-1.24627c-5.07206,-1.51615 -7.28075,-6.75299 -7.05089,-10.04733c1.21254,-17.37832 20.33905,-12.23746 20.33905,-12.23746z" fill="#1c4787" stroke-width="1.5"/><g fill="#c12929" stroke-width="1"><path d="M243.67174,182.19626c0,0 1.428,1.43903 1.97847,2.16521c0.5247,0.69215 1.25077,2.09465 1.25077,2.09465c0,0 -1.28928,0.02398 -1.92589,0.0477c-0.7737,0.02883 -2.38572,0.113 -2.38572,0.113c0,0 -0.43818,-1.26748 -0.82535,-1.87338c-0.3737,-0.58483 -1.45866,-1.70104 -1.45866,-1.70104l-2.24488,-1.77974l4.97341,-0.24642z"/><path d="M234.89855,181.76738c0,0 4.32813,4.14619 0.21211,8.97067c-3.62224,4.24571 -9.32929,0.10388 -9.32929,0.10388c0,0 0.79231,-3.08867 2.12099,-4.69754c3.19059,-3.86336 6.9962,-4.37702 6.9962,-4.37702z"/></g></g><path d="M238.78746,192.98761c-0.45784,-1.9615 0.76113,-3.92273 2.72262,-4.38056c1.9615,-0.45784 3.92274,0.76113 4.38056,2.72262c0.45784,1.9615 -0.76114,3.92274 -2.72263,4.38057c-1.9615,0.45784 -3.92273,-0.76114 -4.38057,-2.72263z" fill="#e0c543" stroke-width="1" stroke-linecap="butt"/><path d="M250.50161,191.41623c-0.45784,-1.9615 -0.17499,-3.70424 0.63176,-3.89255c0.80674,-0.18829 1.83188,1.24916 2.28971,3.21065c0.45784,1.9615 0.17498,3.70424 -0.63176,3.89256c-0.80674,0.18829 -1.83188,-1.24916 -2.28971,-3.21066z" fill="#e0c543" stroke-width="1" stroke-linecap="butt"/></g><g><path d="M262.26777,156.37884c0.1308,1.31505 -2.46808,2.65015 -5.80478,2.98203c-3.3367,0.33188 -7.34765,-0.46511 -7.47845,-1.78017c-0.1308,-1.31505 3.66809,-2.65016 7.00478,-2.98204c3.3367,-0.33188 6.14765,0.46512 6.27845,1.78018z" fill="#000000" stroke="#000000" stroke-width="1.5" stroke-linecap="butt"/><g><g stroke="#000000"><g stroke-linecap="round"><path d="M227.53056,175.35688l6.43791,2.66157l-1.96973,1.84689c0,0 -1.21404,0.89485 -4.74932,-0.35183c-1.17738,-0.41518 -1.36892,-1.98266 -1.36892,-1.98266z" fill="#511f13" stroke-width="1.5"/><path d="M249.18881,155.1651l1.74379,2.49516c0,0 1.01342,1.35373 1.55209,3.13722c1.01521,3.36127 1.07529,7.84899 1.05116,8.07788c-0.29962,2.84214 -1.37357,6.85545 -1.37357,6.85545c0,0 -1.14015,5.29348 -10.52153,5.9269c-9.53823,0.64401 -12.76507,-3.93064 -12.76507,-3.93064c0,0 -4.14982,0.49598 -6.48172,-0.78013c-2.3319,-1.2761 -3.91923,-2.02916 -4.11661,-5.17255c-0.12666,-2.0171 0.79881,-5.22822 4.36122,-5.88666c2.25156,-0.41616 4.72244,0.4714 4.72244,0.4714l2.88301,-6.07806l4.07233,-2.48481l10.49131,-3.25125l2.33507,-0.32825z" fill="#e2bd7d" stroke-width="1.5"/><g fill="none" stroke-width="0.5"><path d="M225.27488,169.74928c0,0 2.23555,1.35277 2.13221,3.13618c-0.18469,3.1875 -3.23436,2.18883 -3.23436,2.18883"/><path d="M224.98557,171.66583c0,0 1.1091,0.20424 1.52135,0.39366c0.3641,0.16729 0.82566,0.68474 0.82566,0.68474"/></g></g><g><path d="M226.1103,163.75894l0.10029,-1.17278l1.31853,-0.74224c0,0 2.13529,-0.77988 2.75958,-0.8658c0.27246,-0.0375 0.90954,0.36084 0.90954,0.36084c0,0 -0.56635,2.43861 0.8896,4.04349c0.80118,0.88312 2.57535,1.74271 2.70655,2.52756c0.20849,1.24713 -1.92104,1.89774 -1.92104,1.89774c0,0 0.21566,2.2023 -1.50871,1.97642c-2.50126,-0.54668 -4.52117,-5.95774 -4.52117,-5.95774z" fill="#511f13" stroke-width="1" stroke-linecap="round"/><g><path d="M244.15462,164.49138c0.16099,1.61855 -0.29008,2.9885 -1.00749,3.05986c-0.71741,0.07136 -1.4295,-1.18289 -1.59049,-2.80144c-0.16099,-1.61855 0.29008,-2.9885 1.00749,-3.05986c0.71741,-0.07136 1.4295,1.18289 1.59049,2.80144z" fill="#000000" stroke-width="0.5" stroke-linecap="butt"/><path d="M251.83261,163.29912c0.16099,1.61855 -0.29008,2.9885 -1.00749,3.05986c-0.71741,0.07136 -1.4295,-1.18289 -1.59049,-2.80144c-0.16099,-1.61855 0.29008,-2.9885 1.00749,-3.05986c0.71741,-0.07136 1.4295,1.18289 1.59049,2.80144z" fill="#000000" stroke-width="0.5" stroke-linecap="butt"/><g stroke-width="1.5" stroke-linecap="round"><path d="M255.33928,173.0889c0,0 0.90702,1.22466 0.55506,2.51376c-0.15185,0.55614 -1.56139,1.279 -1.56139,1.279c0,0 -1.081,1.98346 -1.39416,2.33821c-1.29662,0.97536 -2.32638,-0.06959 -2.32638,-0.06959c0,0 -1.57109,0.823 -1.84745,0.8638c-1.2028,0.17762 -2.81926,-0.67946 -2.81926,-0.67946c0,0 -2.03869,1.63402 -4.41303,-0.33264c-0.65453,-0.51174 -0.88459,-3.05815 -0.88459,-3.05815c0,0 -2.10987,-0.96914 -2.55072,-1.7071c-0.9774,-1.63613 0.43613,-4.20355 0.63326,-4.39121c0.21376,-0.2035 1.48563,0.77966 3.22012,1.67684c1.3227,0.68418 2.76307,0.89565 2.76307,0.89565z" fill="#511f13"/><path d="M248.64312,165.37059c0,0 3.09934,-1.80036 4.71667,-1.94073c7.1532,-0.62083 7.16163,5.87863 7.16163,5.87863c0,0 -0.2022,4.6304 -4.24383,5.68172c-6.21562,1.61682 -8.83234,-3.00525 -8.83234,-3.00525" fill="#e2bd7d"/></g></g></g></g><g><path d="M250.05896,152.87339c0,0 -3.80481,0.46523 -5.6002,0.75344c-1.6714,0.26833 -6.60194,2.0125 -9.96156,4.42978c-1.40409,1.01025 -8.34249,8.13868 -8.34249,8.13868c0,0 -2.45211,-0.40847 -2.91323,-0.43042c-0.56005,-0.02667 -1.76631,0.204 -2.60977,0.76768c-1.00909,0.67437 -1.61945,1.70484 -1.61945,1.70484c0,0 -3.06353,-1.38258 -0.82797,-7.06742c1.37536,-3.4974 5.46795,-3.33788 5.46795,-3.33788c0,0 -0.42845,1.72934 -0.39365,1.59728c0.66282,-2.51548 7.24328,-16.67239 18.57407,-17.21671c11.24685,-1.61754 9.87012,9.94443 9.87012,9.94443z" fill="#c12929" stroke="#000000" stroke-width="1.5" stroke-linecap="round"/><g stroke-linecap="butt"><path d="M249.65457,150.35624c0.28369,2.85216 -1.7559,5.39002 -4.55556,5.66849c-2.79967,0.27847 -5.29922,-1.80791 -5.5829,-4.66006c-0.28369,-2.85216 1.7559,-5.39002 4.55557,-5.66849c2.79967,-0.27847 5.29921,1.80791 5.58289,4.66006z" fill="#e5e5e5" stroke="#000000" stroke-width="1"/><path d="M241.49621,152.66773l1.04379,-5.45235l2.23492,1.75197l1.19885,-2.31078l2.29408,4.69378l-1.27439,0.87917l-1.02996,-2.26567l-0.82496,2.04978l-1.60602,-1.98595l-0.06055,2.84929z" fill="#c12929" stroke="none" stroke-width="0"/></g><path d="M240.1418,161.62569c-0.81078,0.26911 -2.83574,0.51607 -4.6389,0.48324c-2.3413,-0.04262 -4.44585,-0.41976 -4.44585,-0.41976c0,0 0.88964,-2.26548 3.58647,-4.15971c4.51017,-3.16789 13.01935,-6.95293 21.48543,-6.15565c1.31169,0.12353 4.07296,1.05111 5.55829,2.33231c0.83857,0.72333 0.99794,1.69563 0.93162,2.36387c-0.0198,0.19948 -3.62206,-0.35761 -6.38534,0.15122c-2.96097,0.54523 -6.93648,2.16616 -8.23944,2.64436c-3.87623,1.42264 -6.2684,2.2344 -7.85227,2.76011z" fill="#c12929" stroke="#000000" stroke-width="1" stroke-linecap="round"/></g></g></g><g stroke="#000000" stroke-width="1.5" stroke-linecap="round"><path d="M244.34283,213.47533c0,0 -0.02493,3.72857 -4.8588,4.45415c-0.84163,0.12634 -5.75964,-0.70791 -5.75964,-0.70791c0,0 -4.83561,0.58811 -6.23266,-0.2781c-2.02623,-1.25634 -0.50809,-4.92017 -0.50809,-4.92017l3.47249,-1.05264l8.57303,0.51418l3.66324,0.90141z" fill="#ebddc5"/><path d="M227.66816,207.33296c0,0 -0.30458,-1.6421 1.85187,-2.75013c1.3017,-0.66884 3.39802,-1.33572 7.28916,-0.78255c1.61859,0.2301 1.28403,1.47961 1.28403,1.47961c1.33518,-0.51328 2.45952,-0.34259 3.39254,-0.1537c0.95378,0.19311 1.70706,0.41582 2.22905,0.92891c1.96886,1.9353 1.31721,5.96997 1.31721,5.96997c0,0 -0.18716,3.22933 -4.94483,3.09982c-0.33614,-0.00916 -2.6153,-0.12473 -4.814,-0.13132c-2.19636,-0.00659 -4.31198,0.09585 -5.24331,0.00303c-2.03698,-0.20301 -3.01415,-0.92406 -3.01415,-0.92406c0,0 -0.80138,-0.48722 -1.10874,-1.44743c-0.51639,-1.61322 -0.41054,-4.17303 1.5951,-5.16421c0.58394,-0.28858 1.8714,0.17487 3.09925,0.18437c1.3498,0.01046 3.03911,-0.51308 3.08853,-0.5194" fill="#864824"/></g><g stroke="#000000"><path d="M221.17654,197.50752c0,0 3.47749,-10.62151 8.06389,-14.21192c0.80806,-0.63258 2.09598,-1.64805 2.94143,-1.71735c2.34528,-0.19223 1.53308,2.33706 0.94168,4.98704c-0.95937,4.2988 -3.50798,9.97584 -3.50798,9.97584c0,0 -1.97967,6.24668 -5.59839,6.01505c-4.44515,-0.28453 -2.84063,-5.04868 -2.84063,-5.04868zM227.06476,194.35398l-0.07919,0.14392c-0.18022,0.38073 -0.24525,0.79142 -0.36426,1.1943c0,0 -0.07077,0.23977 0.16901,0.31054c0.23977,0.07077 0.31054,-0.16901 0.31054,-0.16901c0.11047,-0.37465 0.16458,-0.76817 0.33562,-1.11975l0.06572,-0.11782c0,0 0.12109,-0.21872 -0.09761,-0.33981c-0.21872,-0.12108 -0.33982,0.09761 -0.33982,0.09761z" fill="#c12929" stroke-width="1.5" stroke-linecap="round"/><g><path d="M233.08151,198.11789c0,0 -0.72744,1.67696 -1.23428,1.62984c-0.96093,-0.08933 -4.10119,-2.1258 -4.10119,-2.1258l-3.10253,-1.02163l-1.37203,-1.65662l-1.60903,-3.50144c0,0 -1.44187,-4.45261 6.44491,-3.7011c7.15882,0.56943 5.47008,5.22422 5.47008,5.22422z" fill="#e8e4db" stroke-width="1.5" stroke-linecap="round"/><g><g><path d="M233.87825,199.07114c0,0 0.1716,0.15619 0.23487,1.32676c0.04651,0.86062 -0.67369,2.06505 -0.67369,2.06505c0,0 -2.52174,3.35389 -7.07297,2.15082c-9.13296,-2.41421 -8.11102,-8.54705 -5.92899,-11.53362c0.82274,-1.1261 2.75617,-1.74294 2.75617,-1.74294" fill="#e8e4db" stroke-width="1.5" stroke-linecap="round"/><path d="M224.04228,194.59135c0.1042,0.00446 0.30226,0.94944 0.0469,1.85988c-0.25536,0.91045 -0.7789,1.52017 -1.16933,1.36185c-0.39044,-0.15831 -0.33707,-0.91742 -0.08171,-1.82787c0.25536,-0.91045 1.05178,-1.40039 1.20415,-1.39388z" fill="#000000" stroke-width="0.5" stroke-linecap="butt"/><path d="M227.02994,195.16021c0.10295,-0.01669 0.48782,0.86881 0.42167,1.81205c-0.06617,0.94324 -0.45572,1.64616 -0.8701,1.57c-0.41436,-0.07617 -0.51546,-0.83042 -0.44929,-1.77367c0.06617,-0.94324 0.74718,-1.58399 0.89773,-1.60839z" fill="#000000" stroke-width="0.5" stroke-linecap="butt"/></g><g stroke-linecap="round"><path d="M231.68074,191.94198c0,0 4.44886,2.88264 3.38395,5.37676c-0.59046,1.38292 -3.53932,2.06099 -3.53932,2.06099" fill="#e8e4db" stroke-width="1.5"/><path d="M231.35471,200.94528c0,0 -0.17774,-1.24873 -0.09329,-1.81793c0.07203,-0.48546 0.56873,-1.38619 0.56873,-1.38619" fill="none" stroke-width="1"/></g></g></g></g></g></g></svg>