<svg version="1.1" xmlns="http://www.w3.org/2000/svg" xmlns:xlink="http://www.w3.org/1999/xlink" width="71.52824" height="40.99629" viewBox="0,0,71.52824,40.99629"><g transform="translate(-217.10338,-159.43141)"><g data-paper-data="{&quot;isPaintingLayer&quot;:true}" fill-rule="nonzero" stroke-linejoin="miter" stroke-miterlimit="10" stroke-dasharray="" stroke-dashoffset="0" style="mix-blend-mode: normal"><path d="M222.50519,193.53781c0,0 -5.11319,0.81094 -5.38959,-9.76277c-0.31027,-11.87033 5.38959,-10.51697 5.38959,-10.51697h48.38402c0,0 5.80413,-0.88438 5.83305,10.33142c0.02846,11.03337 -5.83305,9.94833 -5.83305,9.94833z" fill="#f1fffe" stroke="none" stroke-width="0" stroke-linecap="butt"/><g stroke="#844000" stroke-width="2.5"><path d="M256.0412,186.44124c-0.73385,-0.76251 -10.16356,-7.90811 -10.16356,-9.10645c0,-1.67034 14.12661,-3.23489 14.12661,-3.23489c0,0 4.66156,-13.49528 6.3235,-13.41816c1.66193,0.07712 6.86331,13.26392 6.86331,13.26392c0,0 14.34449,1.72548 14.18931,3.3931c-0.1431,1.53792 -10.15164,7.94121 -10.88254,8.73949c-1.08515,1.18518 3.58854,12.20851 2.37682,13.09945c-1.43492,1.05505 -10.94511,-5.39143 -12.36,-5.25831c-1.13503,0.1068 -12.07391,6.21321 -12.83539,5.30761c-0.70538,-0.83888 2.99085,-12.13228 2.36193,-12.78577z" fill="#ffc000" stroke-linecap="butt"/><path d="M262.50655,182.89322v-6.8123" fill="none" stroke-linecap="round"/><path d="M270.51399,182.89322v-6.8123" fill="none" stroke-linecap="round"/></g></g></g></svg>