<svg version="1.1" xmlns="http://www.w3.org/2000/svg" xmlns:xlink="http://www.w3.org/1999/xlink" width="47.04655" height="49.10214" viewBox="0,0,47.04655,49.10214"><g transform="translate(-216.47672,-155.44893)"><g data-paper-data="{&quot;isPaintingLayer&quot;:true}" fill-rule="nonzero" stroke-linejoin="miter" stroke-miterlimit="10" stroke-dasharray="" stroke-dashoffset="0" style="mix-blend-mode: normal"><path d="M260.66855,173.31662c3.76875,0 2.7913,1.15199 2.59834,2.44088c-0.29813,1.99116 -6.24129,4.5143 -10.91833,4.5143c-3.76877,0 -2.83456,-3.54578 -2.83456,-5.45916c0,-1.91336 7.38577,-1.49601 11.15454,-1.49601z" data-paper-data="{&quot;index&quot;:null}" fill="#000000" stroke="none" stroke-width="0" stroke-linecap="butt"/><path d="M223.81559,197.4795c-0.98844,-0.71809 -1.22945,-1.90912 -0.44868,-3.34666c0.9059,-1.6679 0.56757,-4.31388 1.55599,-3.59579c0,0 3.79672,0.5363 4.08972,2.05527c0,0 1.60136,4.38651 0.94515,5.08811c0,0 -0.93528,0.69386 -3.37373,0.57862c-1.32117,-0.06242 -1.78001,-0.06146 -2.76844,-0.77955z" data-paper-data="{&quot;origRot&quot;:0,&quot;index&quot;:null}" fill="#000000" stroke="none" stroke-width="0" stroke-linecap="butt"/><path d="M227.3537,176.95604c2.26449,0.52864 19.54958,-1.13814 22.59085,-0.96911c4.4995,0.25009 3.25554,4.3115 3.57318,8.80675c0.36519,5.16859 3.96987,7.52229 2.15944,12.37716c-0.69803,1.87184 -2.92436,3.24509 -4.49363,4.48137c-0.89024,0.70132 -2.10614,2.78239 -7.76909,2.89887c-9.92963,-1.97878 -12.694,-4.57956 -14.36227,-6.66512c-1.72553,-1.99044 -1.00631,-2.64153 -2.67305,-5.16482c-0.51092,-0.77349 -1.11676,-1.1861 -1.21886,-1.1861c-5.44363,0 -8.43622,-4.49669 -8.43622,-8.74864c0,-4.25197 1.94273,-7.69882 4.98674,-7.69882c3.04402,0 4.85553,1.68464 5.64289,1.86846z" data-paper-data="{&quot;index&quot;:null}" fill="#ffdebd" stroke="none" stroke-width="0" stroke-linecap="butt"/><path d="M228.93368,176.29351c6.09881,-0.22499 3.88441,2.45002 3.88441,4.76925c0,1.36924 2.02518,5.26175 0.79375,5.86044c-1.43257,0.69648 -1.86026,-1.54001 -3.7783,-1.18116c-1.4248,0.26656 -2.33965,-2.51003 -2.33965,-4.82926c0,-2.31926 -0.00877,-4.56589 1.43977,-4.6193z" data-paper-data="{&quot;index&quot;:null}" fill="#000000" stroke="none" stroke-width="0" stroke-linecap="butt"/><path d="M241.29828,156.01492c7.97609,-1.5209 13.66068,-0.0771 14.56406,5.55644c1.25796,7.84473 -0.25834,8.29083 -4.47319,10.80225c-6.14137,3.65932 -14.17473,2.91851 -20.73463,5.76015c-1.72245,0.74615 -6.11259,-1.06672 -7.98971,-1.06672c-3.83925,0 -6.00553,-2.74387 -6.1642,-6.01212c-0.34993,-7.20899 3.19983,-7.23693 7.03907,-7.23693c0,0 4.22521,0.70031 5.68467,2.94193c0,0 5.87786,-9.5635 12.07395,-10.74499z" data-paper-data="{&quot;index&quot;:null}" fill="#000000" stroke="none" stroke-width="0" stroke-linecap="butt"/><path d="M254.34326,166.0465c0,2.87007 -0.76805,5.02935 -6.40401,5.19671c-5.94976,0.17667 -6.404,-2.32665 -6.404,-5.19671c0,-2.87007 2.86716,-5.19671 6.404,-5.19671c3.53683,0 6.40401,2.32665 6.40401,5.19671z" data-paper-data="{&quot;index&quot;:null}" fill="#ffffff" stroke="none" stroke-width="0" stroke-linecap="butt"/><path d="M263.47688,174.65514c-0.10499,0.45064 -20.65183,3.41197 -26.40344,4.04188c-2.79534,0.30614 -8.4512,0.08321 -8.34621,-0.36744c0.38809,-1.66584 1.47234,-4.32796 4.14685,-5.19671c3.23201,-1.04984 14.32773,-3.87393 22.62513,-3.74708c3.39193,0.05185 8.36577,3.60351 7.97767,5.26935z" data-paper-data="{&quot;index&quot;:null}" fill="#270000" stroke="none" stroke-width="0" stroke-linecap="butt"/><path d="M252.9422,199.73918c-1.68884,0.10611 -4.11852,-0.38038 -8.05698,-1.03072c-5.10662,-0.84321 -5.83148,-4.43351 -5.83148,-4.43351c0,0 -1.9139,-0.69935 -2.97892,-1.29917c-0.83363,-0.46951 0.17114,-3.41166 0.61943,-3.4974c2.61083,-0.49941 3.38872,1.80174 5.39527,2.88499c0,0 6.70945,2.20864 9.84394,2.0301c0,0 5.0596,-2.36794 6.62785,-2.26412c0.77777,0.05149 0.78285,1.68139 0.5375,2.50459c0,0 -0.68035,2.20479 -1.79591,2.97737c-1.11555,0.77259 -2.67191,2.02178 -4.36074,2.12787z" data-paper-data="{&quot;index&quot;:null}" fill="#000000" stroke="none" stroke-width="0" stroke-linecap="butt"/><g data-paper-data="{&quot;index&quot;:null}" fill="none" stroke="#f6b09a" stroke-width="1.5" stroke-linecap="round"><path d="M220.06991,180.52282c0,0 1.55552,-0.90808 3.54583,0.62964c2.85444,2.20532 1.17843,5.96935 1.17843,5.96935" data-paper-data="{&quot;origPos&quot;:null}"/><path d="M224.64421,184.04729h-3.14951" data-paper-data="{&quot;origPos&quot;:null}"/><path d="M224.34424,187.19682h-0.67489" data-paper-data="{&quot;origPos&quot;:null}"/></g><path d="M240.75475,176.72721c-0.72215,0.21535 -0.68797,0.31736 -1.03852,0.98447c-0.36163,0.68821 -1.12677,1.5745 -1.12677,1.5745c0,0 -0.7655,-1.90392 -0.7655,-3.31719c0,-0.95961 0.52143,-2.63216 2.00051,-2.9676c5.00306,-0.16843 3.5138,4.54104 3.5138,4.54104c0,0 -1.8253,-1.06203 -2.58351,-0.81522z" data-paper-data="{&quot;index&quot;:null}" fill="#38291e" stroke="none" stroke-width="0" stroke-linecap="butt"/><path d="M249.81531,175.2543c-0.796,0.0468 -2.10809,1.7015 -2.10809,1.7015c0,0 -3.10466,-3.84166 1.61507,-5.50995c1.49953,-0.22725 2.59518,1.1398 2.94524,2.03328c0.51556,1.31589 0.49737,3.36786 0.49737,3.36786c0,0 -1.03574,-0.5461 -1.62351,-1.05494c-0.56975,-0.49323 -0.57515,-0.6007 -1.3261,-0.53778z" data-paper-data="{&quot;index&quot;:null,&quot;origRot&quot;:0}" fill="#38291e" stroke="none" stroke-width="0" stroke-linecap="butt"/><g stroke="none" stroke-width="1" stroke-linecap="butt"><path d="M241.54163,182.63801c1.85155,-1.85469 8.41931,-2.57722 10.40307,-0.70648c0.23415,1.5663 0.21253,3.12951 0.21253,3.12951c-4.1692,-2.38216 -6.42001,-2.64359 -10.40308,0.70647c0.23553,-1.30173 -0.21252,-3.1295 -0.21252,-3.1295z" fill="#272525"/><path d="M229.91065,178.30892c2.05797,0.03095 3.52361,-0.0686 7.85694,-0.36287c4.33283,-0.29424 8.00047,1.75811 8.1924,4.58407c0.19192,2.82595 -3.20416,6.30136 -7.49745,5.64908c-7.01162,-1.06561 -8.35997,-7.04432 -8.55189,-9.87028z" fill="#272525"/><path d="M255.8197,187.00046c-4.16569,1.22673 -8.00045,-1.75762 -8.19236,-4.58357c-0.19192,-2.82595 3.16459,-5.35533 7.49743,-5.64957c4.33283,-0.29424 5.79847,-0.39378 7.83337,-0.70267c0.19192,2.82595 -0.33575,8.93207 -7.13843,10.93582z" fill="#272525"/><path d="M244.4864,182.63018c0.11842,1.74386 -2.29955,4.62129 -5.80211,4.08851c-4.8869,-0.74273 -6.55176,-4.2383 -7.09053,-6.93887c1.45761,-0.0341 3.11413,-0.1451 6.27395,-0.35969c4.14006,-0.28116 6.51636,1.70319 6.61869,3.21006z" fill="#ff0000"/><path d="M249.10043,182.31684c-0.10231,-1.50638 1.98387,-3.79426 6.12443,-4.07546c3.15883,-0.21452 4.81614,-0.32856 6.26448,-0.4918c-0.1687,2.74863 -1.3452,6.43714 -6.08732,7.83379c-3.39837,1.00142 -6.18322,-1.52316 -6.3016,-3.26652z" fill="#ff0000"/></g><path d="M251.34118,182.19304c5.05361,-0.3937 7.37507,1.20057 6.95517,6.75833c-0.26246,3.47394 0.5918,5.83973 -6.95517,5.70851c-3.47834,-0.0605 -6.82396,-2.23457 -6.82396,-5.31481c0,-3.08025 3.3556,-6.88183 6.82396,-7.15204z" data-paper-data="{&quot;index&quot;:null}" fill="#ffdebd" stroke="none" stroke-width="0" stroke-linecap="butt"/><text transform="translate(245.54531,168.92454) scale(0.21145,0.21145)" font-size="40" xml:space="preserve" fill="#ff0000" fill-rule="nonzero" stroke="#ff0000" stroke-width="2" stroke-linecap="butt" stroke-linejoin="miter" stroke-miterlimit="10" stroke-dasharray="" stroke-dashoffset="0" font-family="Curly" font-weight="normal" text-anchor="start" style="mix-blend-mode: normal"><tspan x="0" dy="0">Z</tspan></text></g></g></svg>