<svg version="1.1" xmlns="http://www.w3.org/2000/svg" xmlns:xlink="http://www.w3.org/1999/xlink" width="85" height="85" viewBox="0,0,85,85"><g transform="translate(-197.5,-137.5)"><g data-paper-data="{&quot;isPaintingLayer&quot;:true}" fill-rule="nonzero" stroke="none" stroke-linecap="butt" stroke-linejoin="miter" stroke-miterlimit="10" stroke-dasharray="" stroke-dashoffset="0" style="mix-blend-mode: normal"><path d="M197.5,222.5v-85h85v85z" fill="none" stroke-width="0"/><path d="M240.64775,166c3.6,0 5.2,0.6 7.7,2.8c3.3,3 3.3,5.2 0,5.2c-1,0 -2.4,-0.7 -3.1,-1.5c-2,-2.4 -6.6,-1.8 -8.9,1.1c-2.8,3.5 -2.6,6.9 0.4,9.9c2.9,3 5.8,3.2 8.5,0.5c4.2,-4.2 8,-0.8 4,3.5c-4.4,4.7 -12.2,4.5 -17.1,-0.5c-2.5,-2.5 -2.9,-3.6 -2.9,-8.5c0,-5.1 0.3,-6 3.4,-9.1c2.9,-2.9 4.1,-3.4 8,-3.4z" fill="#ff0000" stroke-width="1"/></g></g></svg>