<svg version="1.1" xmlns="http://www.w3.org/2000/svg" xmlns:xlink="http://www.w3.org/1999/xlink" width="85" height="85" viewBox="0,0,85,85"><g transform="translate(-197.5,-137.5)"><g data-paper-data="{&quot;isPaintingLayer&quot;:true}" fill-rule="nonzero" stroke="none" stroke-linecap="butt" stroke-linejoin="miter" stroke-miterlimit="10" stroke-dasharray="" stroke-dashoffset="0" style="mix-blend-mode: normal"><path d="M197.5,222.5v-85h85v85z" fill="none" stroke-width="0"/><path d="M240.50001,158.20001c6,0.4 9.8,2.5 12.3,6.8c3.3,5.7 2.7,13.7 -1.3,19.2c-1.5,2.1 -1.7,2.9 -0.8,3.2c0.7,0.2 2.1,0.7 3.1,1c2,0.6 2.3,4.2 0.5,4.9c-0.7,0.2 -3.3,-0.2 -5.8,-1c-2.5,-0.8 -6.9,-1.9 -9.9,-2.3c-3,-0.5 -6.6,-1.7 -8,-2.8c-8.5,-6.2 -8,-21 0.9,-27c2.9,-2 4.5,-2.3 9,-2zM230.90001,169.70001c-4.3,10.3 7.7,19.7 15.4,12c2.2,-2.3 2.7,-3.6 2.7,-7.8c0,-4.5 -0.4,-5.4 -3.3,-8c-5.4,-4.9 -11.9,-3.2 -14.8,3.8z" fill="#ff0000" stroke-width="1"/></g></g></svg>