<svg version="1.1" xmlns="http://www.w3.org/2000/svg" xmlns:xlink="http://www.w3.org/1999/xlink" width="85" height="85" viewBox="0,0,85,85"><g transform="translate(-197.5,-137.5)"><g data-paper-data="{&quot;isPaintingLayer&quot;:true}" fill-rule="nonzero" stroke="none" stroke-linecap="butt" stroke-linejoin="miter" stroke-miterlimit="10" stroke-dasharray="" stroke-dashoffset="0" style="mix-blend-mode: normal"><path d="M197.5,222.5v-85h85v85z" fill="none" stroke-width="0"/><path d="M246.07143,159.2c1.9,0.3 2,1.1 2.3,15.4c0.2,13.3 0.1,15.2 -1.4,15.8c-0.9,0.3 -2.2,0.1 -3,-0.5c-0.9,-0.7 -1.8,-0.7 -3.3,0c-3.9,2.1 -8.1,1.3 -11.7,-2.3c-3,-3 -3.4,-4 -3.4,-8.6c0,-5.7 1.1,-8.6 4.4,-11.2c2.4,-2 9.6,-2.4 11.4,-0.6c0.9,0.9 1.2,0.3 1.2,-2.8c0,-2.3 0.3,-4.4 0.7,-4.8c0.4,-0.4 1.6,-0.6 2.8,-0.4zM233.97143,171.8c-1.6,1.1 -3.4,4.8 -3.4,7.2c0,2.4 4.2,7 6.5,7c4.8,0 7.6,-9.8 3.7,-13.3c-1.9,-1.8 -4.9,-2.2 -6.8,-0.9z" fill="#ff0000" stroke-width="1"/></g></g></svg>