<svg version="1.1" xmlns="http://www.w3.org/2000/svg" xmlns:xlink="http://www.w3.org/1999/xlink" width="85" height="85" viewBox="0,0,85,85"><g transform="translate(-197.5,-137.5)"><g data-paper-data="{&quot;isPaintingLayer&quot;:true}" fill-rule="nonzero" stroke="none" stroke-linecap="butt" stroke-linejoin="miter" stroke-miterlimit="10" stroke-dasharray="" stroke-dashoffset="0" style="mix-blend-mode: normal"><path d="M197.5,222.5v-85h85v85z" data-paper-data="{&quot;index&quot;:null}" fill="none" stroke-width="0"/><path d="M240.10001,158.2c3,0.3 3.3,0.8 6,8.3c3.4,9.5 3.5,10.5 1.1,10.5c-1.2,0 -2.6,-1.7 -4.2,-5c-1.3,-2.8 -2.6,-5 -3,-5c-0.4,0 -1.7,2.2 -3,5c-1.6,3.3 -3,5 -4.2,5c-2.4,0 -2.3,-1.5 0.7,-9.6c1.4,-3.8 2.8,-7.5 3,-8.2c0.3,-0.8 1.7,-1.2 3.6,-1z" fill="#ff0000" stroke-width="1"/></g></g></svg>