<svg version="1.1" xmlns="http://www.w3.org/2000/svg" xmlns:xlink="http://www.w3.org/1999/xlink" width="34.96405" height="29.74798" viewBox="0,0,34.96405,29.74798"><defs><linearGradient x1="254.98204" y1="180.00002" x2="225.01799" y2="180.00002" gradientUnits="userSpaceOnUse" id="color-1"><stop offset="0" stop-color="#0160c0"/><stop offset="1" stop-color="#23f4f4"/></linearGradient><linearGradient x1="254.98204" y1="180.00001" x2="225.01799" y2="180.00001" gradientUnits="userSpaceOnUse" id="color-2"><stop offset="0" stop-color="#e67c02"/><stop offset="1" stop-color="#ffd000"/></linearGradient></defs><g transform="translate(-222.51799,-165.24649)"><g data-paper-data="{&quot;isPaintingLayer&quot;:true}" fill-rule="nonzero" stroke="#000000" stroke-linecap="butt" stroke-linejoin="miter" stroke-miterlimit="10" stroke-dasharray="" stroke-dashoffset="0" style="mix-blend-mode: normal"><path d="M254.98204,176.1801l-1.98438,11.1125c-6.51536,3.20807 -10.02109,4.86171 -10.51718,4.96093c-6.11849,-7.24297 -9.26042,-10.91405 -9.42578,-11.01327l1.0914,9.92188l-0.19844,0.09922c-5.95312,-0.76068 -8.92968,-1.2237 -8.92968,-1.38906c0.26458,-11.19518 0.39687,-17.94206 0.39687,-20.24062c0,-0.19844 2.18281,-0.59531 6.54844,-1.19063c0.87643,1.12448 1.83555,2.14973 2.87734,3.07577l9.12813,10.02109c1.17409,-0.84336 1.93476,-1.43867 2.28203,-1.78593c-1.96784,-1.70326 -3.58841,-3.22461 -4.86172,-4.56406c3.24115,-4.23333 5.19245,-6.71381 5.85391,-7.44142l0.19843,0c0.21498,0.34727 2.56316,2.96003 7.04454,7.83828c0.0496,0 0.21496,0.19844 0.49609,0.59531z" data-paper-data="{&quot;origPos&quot;:null}" fill="url(#color-1)" stroke-width="5"/><path d="M254.98204,176.1801l-1.98438,11.1125c-6.51536,3.20807 -10.02109,4.86171 -10.51718,4.96093c-6.11849,-7.24297 -9.26042,-10.91405 -9.42578,-11.01327l1.0914,9.92188l-0.19844,0.09922c-5.95312,-0.76068 -8.92968,-1.2237 -8.92968,-1.38906c0.26458,-11.19518 0.39687,-17.94206 0.39687,-20.24062c0,-0.19844 2.18281,-0.59531 6.54844,-1.19063c0.87643,1.12448 1.83555,2.14973 2.87734,3.07577l9.12813,10.02109c1.17409,-0.84336 1.93476,-1.43867 2.28203,-1.78593c-1.96784,-1.70326 -3.58841,-3.22461 -4.86172,-4.56406c3.24115,-4.23333 5.19245,-6.71381 5.85391,-7.44142l0.19843,0c0.21498,0.34727 2.56316,2.96003 7.04454,7.83828c0.0496,0 0.21496,0.19844 0.49609,0.59531z" data-paper-data="{&quot;origPos&quot;:null}" fill="url(#color-2)" stroke-width="0"/></g></g></svg>