<svg version="1.1" xmlns="http://www.w3.org/2000/svg" xmlns:xlink="http://www.w3.org/1999/xlink" width="34.84779" height="34.22517" viewBox="0,0,34.84779,34.22517"><defs><linearGradient x1="254.75791" y1="155.64027" x2="254.75791" y2="176.07401" gradientUnits="userSpaceOnUse" id="color-1"><stop offset="0" stop-color="#ff3030"/><stop offset="1" stop-color="#f00000"/></linearGradient><linearGradient x1="254.71424" y1="157.79118" x2="254.71424" y2="173.70799" gradientUnits="userSpaceOnUse" id="color-2"><stop offset="0" stop-color="#e62c2c"/><stop offset="1" stop-color="#c92626"/></linearGradient><linearGradient x1="254.63445" y1="161.01757" x2="254.63445" y2="170.69672" gradientUnits="userSpaceOnUse" id="color-3"><stop offset="0" stop-color="#ff3030"/><stop offset="1" stop-color="#f00000"/></linearGradient></defs><g transform="translate(-229.99746,-151.81261)"><g data-paper-data="{&quot;isPaintingLayer&quot;:true}" fill-rule="nonzero" stroke-linejoin="miter" stroke-miterlimit="10" stroke-dasharray="" stroke-dashoffset="0" style="mix-blend-mode: normal"><path d="M239.4454,152.31867l0.02586,32.52715l-8.24242,-8.01515h17.21212l-8,8v-32.5z" fill="#ff0000" stroke="#ff0000" stroke-width="1" stroke-linecap="round"/><g data-paper-data="{&quot;index&quot;:null}" stroke="none" stroke-width="0" stroke-linecap="butt"><path d="M264.84525,165.85714c0,5.64262 -4.51627,10.21687 -10.08734,10.21687c-5.57109,0 -10.08734,-4.57425 -10.08734,-10.21687c0,-5.64262 4.51627,-10.21687 10.08734,-10.21687c5.57109,0 10.08734,4.57425 10.08734,10.21687z" data-paper-data="{&quot;index&quot;:null}" fill="url(#color-1)"/><path d="M262.25355,165.74958c0,4.39531 -3.37545,7.9584 -7.53931,7.9584c-4.16387,0 -7.53931,-3.56309 -7.53931,-7.9584c0,-4.3953 3.37545,-7.9584 7.53931,-7.9584c4.16385,0 7.53931,3.56309 7.53931,7.9584z" data-paper-data="{&quot;index&quot;:null}" fill="url(#color-2)"/><path d="M253.26703,170.69672v-9.67914h2.73485v9.67914z" data-paper-data="{&quot;index&quot;:null}" fill="url(#color-3)"/></g></g></g></svg>