<svg version="1.1" xmlns="http://www.w3.org/2000/svg" xmlns:xlink="http://www.w3.org/1999/xlink" width="30.80057" height="36.17005" viewBox="0,0,30.80057,36.17005"><defs><linearGradient x1="240.00002" y1="164.57149" x2="240.00002" y2="195.42852" gradientUnits="userSpaceOnUse" id="color-1"><stop offset="0" stop-color="#0160c0"/><stop offset="1" stop-color="#23f4f4"/></linearGradient><linearGradient x1="240.00001" y1="164.57149" x2="240.00001" y2="195.42852" gradientUnits="userSpaceOnUse" id="color-2"><stop offset="0" stop-color="#e67c02"/><stop offset="1" stop-color="#ffd000"/></linearGradient></defs><g transform="translate(-224.89923,-162.00258)"><g data-paper-data="{&quot;isPaintingLayer&quot;:true}" fill-rule="nonzero" stroke="#000000" stroke-linecap="butt" stroke-linejoin="miter" stroke-miterlimit="10" stroke-dasharray="" stroke-dashoffset="0" style="mix-blend-mode: normal"><path d="M247.24299,165.46445l5.3578,9.525l-4.96094,5.06016l3.27423,4.46484c-0.9095,4.49792 -1.50482,6.74688 -1.78593,6.74688c-0.66146,0.26458 -3.6711,1.65364 -9.02891,4.16718c-6.39961,-2.79466 -9.77304,-4.34909 -10.12031,-4.66328l-1.5875,-6.74687l3.96875,-3.86953c-3.30729,-5.24206 -4.96094,-7.92097 -4.96094,-8.03672v-0.0992c0.14883,-0.08269 2.29857,-2.56316 6.44922,-7.44141c0,0 13.19609,0.7772 13.39453,0.89295zM236.62658,174.39414c1.98438,2.18281 3.04271,3.43958 3.175,3.77031l3.37344,-4.16719l-1.5875,-2.57968c-2.38125,0 -3.57187,0.16536 -3.57187,0.49609c-0.92605,1.52135 -1.38907,2.34818 -1.38907,2.48047zM237.51955,185.20899c0.95911,2.05052 1.48828,3.07578 1.5875,3.07578c1.20716,0 1.90168,-0.29766 2.0836,-0.89297c0.71107,-0.9095 1.24023,-1.67018 1.5875,-2.28203l-2.38125,-2.28203h-0.0992c-1.85209,1.53789 -2.77813,2.33164 -2.77813,2.38125z" data-paper-data="{&quot;origPos&quot;:null}" fill="url(#color-1)" stroke-width="5"/><path d="M233.84846,164.57149c8.73125,0.47956 13.19609,0.77722 13.39453,0.89297l5.3578,9.525l-4.96094,5.06016l3.27423,4.46484c-0.9095,4.49792 -1.50482,6.74688 -1.78593,6.74688c-0.66146,0.26458 -3.6711,1.65364 -9.02891,4.16718c-6.39961,-2.79466 -9.77304,-4.34909 -10.12031,-4.66328l-1.5875,-6.74687l3.96875,-3.86953c-3.30729,-5.24206 -4.96094,-7.92097 -4.96094,-8.03672v-0.0992c0.14883,-0.08269 2.29857,-2.56316 6.44922,-7.44141zM236.62658,174.39416c1.98438,2.18281 3.04271,3.43958 3.175,3.77031l3.37344,-4.16719l-1.5875,-2.57968c-2.38125,0 -3.57187,0.16536 -3.57187,0.49609c-0.92605,1.52135 -1.38907,2.34818 -1.38907,2.48047zM237.51955,185.209c0.95911,2.05052 1.48828,3.07578 1.5875,3.07578c1.20716,0 1.90168,-0.29766 2.0836,-0.89297c0.71107,-0.9095 1.24023,-1.67018 1.5875,-2.28203l-2.38125,-2.28203h-0.0992c-1.85209,1.53789 -2.77813,2.33164 -2.77813,2.38125z" data-paper-data="{&quot;origPos&quot;:null}" fill="url(#color-2)" stroke-width="0"/></g></g></svg>