<svg version="1.1" xmlns="http://www.w3.org/2000/svg" xmlns:xlink="http://www.w3.org/1999/xlink" width="84.74855" height="113.20735" viewBox="0,0,84.74855,113.20735"><defs><linearGradient x1="251.8247" y1="191.53835" x2="251.8247" y2="209.03294" gradientUnits="userSpaceOnUse" id="color-1"><stop offset="0" stop-color="#3b2f49"/><stop offset="1" stop-color="#342842"/></linearGradient><linearGradient x1="268.43696" y1="223.70329" x2="272.66554" y2="233.32896" gradientUnits="userSpaceOnUse" id="color-2"><stop offset="0" stop-color="#ff7f01"/><stop offset="1" stop-color="#e57300"/></linearGradient><linearGradient x1="228.17531" y1="191.70011" x2="228.17531" y2="209.19471" gradientUnits="userSpaceOnUse" id="color-3"><stop offset="0" stop-color="#3b2f49"/><stop offset="1" stop-color="#342842"/></linearGradient><linearGradient x1="212.75967" y1="220.93254" x2="208.52396" y2="230.55506" gradientUnits="userSpaceOnUse" id="color-4"><stop offset="0" stop-color="#ff7f01"/><stop offset="1" stop-color="#e57300"/></linearGradient><linearGradient x1="238.93716" y1="170.56615" x2="238.93716" y2="200.91858" gradientUnits="userSpaceOnUse" id="color-5"><stop offset="0" stop-color="#4c405a"/><stop offset="1" stop-color="#342842"/></linearGradient><radialGradient cx="251.77916" cy="152.72779" r="9.10668" gradientUnits="userSpaceOnUse" id="color-6"><stop offset="0" stop-color="#fbc5fc"/><stop offset="1" stop-color="#f991fd"/></radialGradient></defs><g transform="translate(-198.22425,-123.11582)"><g data-paper-data="{&quot;isPaintingLayer&quot;:true}" fill-rule="nonzero" stroke-linejoin="miter" stroke-miterlimit="10" stroke-dasharray="" stroke-dashoffset="0" style="mix-blend-mode: normal"><g stroke="none" stroke-width="0" stroke-linecap="butt"><path d="M271.53057,195.07871c6.3095,-0.40159 7.96692,3.14901 7.76702,6.53063c-0.47002,3.35966 -2.82021,4.80847 -8.78765,5.02675c-5.33592,-0.08325 -7.15769,-3.46581 -7.16363,-6.72869c1.35018,-5.17673 3.01493,-5.00028 8.18425,-4.82871z" data-paper-data="{&quot;origRot&quot;:0}" fill="#ffffff"/><path d="M270.75148,191.80299c3.58509,0.22547 7.71946,-0.21651 7.32711,2.52001c-0.43891,3.06133 -1.36037,2.81893 -7.20984,2.30571c-6.66362,-0.58464 -7.78853,0.53916 -7.47071,-2.83965c0.18558,-1.97298 3.76834,-2.21154 7.35344,-1.98607z" data-paper-data="{&quot;origRot&quot;:0}" fill="#ffffff"/><path d="M266.44555,190.65883c0.32598,-2.25058 -0.01585,-4.39656 -0.32791,-6.9844c-0.29459,-2.44297 -0.63833,-5.3578 2.11617,-6.56118c3.84124,-1.67814 4.49773,2.52643 5.65203,6.82329c1.15429,4.29686 2.72952,9.4174 0.76228,9.94588c-1.96724,0.52846 -8.84034,1.17967 -8.20257,-3.22359z" fill="#7100f3"/></g><path d="M248.3199,180.43562c-2.24894,-1.62129 -2.64352,-3.32819 -2.05653,-6.04762c0.58699,-2.71942 5.79601,-3.69518 7.71453,-3.15105c5.96257,1.6911 12.29554,5.07289 17.65488,7.12526c0.51636,0.19775 -1.25287,3.90234 -1.64341,5.50942c-0.17458,0.71843 -8.00288,-1.17382 -10.4277,-1.67719c-4.94885,-1.02737 -10.03414,-0.88822 -11.24176,-1.75882z" fill="#7100f3" stroke="none" stroke-width="0" stroke-linecap="butt"/><path d="M240.72339,193.32558c1.2018,-2.50907 6.59137,-1.94986 8.28486,-0.89681c5.26319,3.27277 10.79595,9.19369 13.86646,11.72601c0.82539,0.68072 0.76373,3.20116 -0.70458,4.31504c-1.46831,1.11388 -2.27926,0.30335 -3.69126,-0.12126c-1.41201,-0.42461 -6.23462,-2.36876 -8.42596,-3.52254c-4.47233,-2.35477 -6.97158,-2.97906 -7.89165,-4.14944c0,0 -3.07691,-3.92906 -1.43785,-7.35102z" data-paper-data="{&quot;index&quot;:null}" fill="url(#color-1)" stroke="none" stroke-width="0" stroke-linecap="butt"/><g stroke="none" stroke-width="0" stroke-linecap="butt"><path d="M268.87652,222.38257c1.94722,6.29715 -7.92046,8.07047 -10.9211,7.75003c-3.00065,-0.32043 -2.7573,-9.08243 -2.0574,-15.63652c0.6999,-6.55407 1.04975,-12.04529 4.98791,-11.50481c3.76606,1.365 2.57243,4.60002 4.23398,8.6322c1.66154,4.03218 2.76136,7.54053 3.75662,10.7591z" fill="#342842"/><path d="M281.26865,218.12068c1.27804,-0.41999 2.82919,6.38786 0.50736,9.64174c-3.07502,4.30941 -10.86416,5.60173 -14.67249,7.18235c-7.28301,3.02275 -10.59275,0.86728 -10.78858,-4.44835c-0.12174,-3.30455 1.31539,2.04462 7.13819,-2.25238c0.9342,-0.6894 4.97785,-3.43309 7.72159,-5.34825c2.44816,-1.12827 4.33459,-0.68244 5.88051,-1.62838c1.34227,-1.46241 0.04467,-1.77677 4.21344,-3.14673z" fill="url(#color-2)"/></g><path d="M237.83876,200.83838c-0.92006,1.17037 -3.41933,1.79467 -7.89165,4.14944c-2.19134,1.15378 -7.01396,3.09793 -8.42596,3.52254c-1.41201,0.42461 -2.22295,1.23514 -3.69126,0.12126c-1.46831,-1.11388 -1.52998,-3.63432 -0.70458,-4.31504c3.07052,-2.53232 8.60326,-8.45325 13.86646,-11.72601c1.69349,-1.05305 7.08305,-1.61227 8.28486,0.89681c1.63906,3.42196 -1.43785,7.35102 -1.43785,7.35102z" data-paper-data="{&quot;index&quot;:null}" fill="url(#color-3)" stroke="none" stroke-width="0" stroke-linecap="butt"/><g stroke="none" stroke-width="0" stroke-linecap="butt"><path d="M212.32108,219.61147c0.99765,-3.21784 2.10007,-6.72537 3.7646,-10.75631c1.66453,-4.03094 0.4733,-7.26685 4.24038,-8.62905c3.93857,-0.53756 4.28435,4.9539 4.97938,11.50851c0.69504,6.55459 0.93189,15.31679 -2.06899,15.63499c-3.00089,0.3182 -12.86726,-1.46241 -10.91535,-7.75813z" fill="#342842"/><path d="M199.93213,215.34042c4.16775,1.37303 2.86991,1.68643 4.2111,3.14985c1.54521,0.94708 3.43197,0.50265 5.8793,1.63274c2.74231,1.91717 6.78393,4.66388 7.71762,5.35397c5.81962,4.30132 7.26071,-1.0468 7.13652,2.25767c-0.19977,5.31548 -3.51111,7.4685 -10.79188,4.44035c-3.80715,-1.58344 -11.59532,-2.88152 -14.66716,-7.19322c-2.31942,-3.2556 -0.76323,-10.06229 0.51451,-9.64136z" fill="url(#color-4)"/></g><g><path d="M248.41693,172.30107c4.27623,4.16123 4.53698,13.22043 4.53698,19.75832c0,6.02663 -6.15847,8.85919 -13.7967,8.85919c-3.77417,0 -6.20051,0.28617 -8.84811,-2.10956c-2.6476,-2.39572 -2.23351,-6.94388 -2.95349,-8.56931c-0.97433,-2.1996 -2.31757,-4.78878 -2.26027,-8.44176c0.32718,-4.59926 1.62904,-10.59698 9.26728,-10.59698c0,0 10.86842,-2.00014 14.05434,1.1001z" data-paper-data="{&quot;origPos&quot;:null,&quot;index&quot;:null}" fill="url(#color-5)" stroke="none" stroke-width="0" stroke-linecap="butt"/><path d="M235.8379,169.18184c4.13061,0 9.01427,-1.08235 12.20019,2.01788c2.15667,2.09867 4.28571,9.92885 4.28571,9.92885c0,0 -9.26022,-1.00979 -11.70901,0.4152c-1.09796,0.63891 -4.4149,2.6182 -5.88358,3.16889c-0.76971,0.28859 -9.19883,0.60424 -8.46538,-6.44604c0.32718,-4.59926 1.93385,-9.08477 9.57208,-9.08477z" data-paper-data="{&quot;origPos&quot;:null,&quot;index&quot;:null}" fill="#7100f3" stroke="none" stroke-width="0" stroke-linecap="butt"/><path d="M233.25443,171.21933c0,0 2.62106,3.43459 3.45303,5.4445c0.96794,2.33834 2.8175,7.42637 2.8175,7.42637" data-paper-data="{&quot;origPos&quot;:null}" fill="none" stroke="#433751" stroke-width="10.5" stroke-linecap="round"/><path d="M241.4205,183.92657c0,1.16878 -1.01135,2.23288 -2.04838,2.23288c-1.03701,0 -2.04837,-1.06411 -2.04837,-2.23288c0,-1.16878 1.01135,-2.23288 2.04837,-2.23288c1.03701,0 2.04838,1.06411 2.04838,2.23288z" fill="#ffea12" stroke="none" stroke-width="0" stroke-linecap="butt"/><path d="M244.76312,170.5256c0,0 1.9139,2.1874 2.74958,3.97646c0.83568,1.78907 3.08954,8.70881 3.08954,8.70881" data-paper-data="{&quot;origPos&quot;:null,&quot;origRot&quot;:0}" fill="none" stroke="#433751" stroke-width="9.5" stroke-linecap="round"/><path d="M252.04045,182.25275c0,1.16878 -0.84067,2.05587 -1.87769,2.05587c-1.03701,0 -1.87769,-0.8871 -1.87769,-2.05587c0,-1.16878 0.84067,-2.05587 1.87769,-2.05587c1.03701,0 1.87769,0.8871 1.87769,2.05587z" data-paper-data="{&quot;origPos&quot;:null}" fill="#ffea12" stroke="none" stroke-width="0" stroke-linecap="butt"/></g><g><path d="M257.97015,141.59695c-0.29624,1.78895 -6.20182,4.05586 -10.84929,4.05586c-3.74494,0 -2.81665,-3.1857 -2.81665,-4.90476c0,-1.71907 7.33907,-1.34411 11.084,-1.34411c3.74492,0 2.77367,1.03502 2.58192,2.19299z" data-paper-data="{&quot;index&quot;:null}" fill="#2d0757" stroke="none" stroke-width="0" stroke-linecap="butt"/><path d="M248.37825,153.56286c0.03189,-0.0192 0.06571,-0.03782 0.10157,-0.05575c0.94715,-0.47358 1.42071,0.47358 1.42071,0.47358l-0.05073,0.05267c0.13093,0.12851 0.19951,0.24851 0.19951,0.24851c1.26387,2.21175 1.44618,5.90587 1.02196,8.46735c-0.16069,0.97023 -1.52237,2.26613 -1.46625,2.98219c-0.42584,1.27751 -1.90091,1.66669 -3.12485,1.76859c-3.07225,0.25577 -6.26754,0.01441 -9.35149,0.01441c-0.67621,0 -2.03744,0.26652 -2.64733,0c-3.97408,-1.7366 -2.11786,-7.0144 -2.11786,-10.32457c0,-2.05223 1.11538,-3.45153 3.23886,-3.75374c2.92709,-0.4166 6.15866,-0.04074 9.11532,-0.04074c1.23542,0 2.47084,0 3.70625,0z" data-paper-data="{&quot;index&quot;:null}" fill="#ffffff" stroke="none" stroke-width="0.5" stroke-linecap="butt"/><path d="M248.39846,157.85213c0.66135,-0.02543 0.68677,0.63591 0.68677,0.63591l0.00049,0.20193c0,0.45957 0.01764,0.92143 0.04176,1.38504c0.25675,-0.13084 0.51176,-0.26182 0.76531,-0.38859l0.5243,-0.05803c0,0 0.64998,-0.12465 0.77464,0.52534c0.12465,0.64998 -0.52534,0.77464 -0.52534,0.77464l-0.18165,-0.05803c-0.41934,0.20967 -0.84404,0.42904 -1.27429,0.64157c0.01295,0.23567 0.02463,0.47164 0.0336,0.70784h0.01813v0.88244c0,0.08365 -0.01552,0.16367 -0.04384,0.23735c-0.0645,0.18987 -0.22395,0.42448 -0.61799,0.42448c-0.39406,0 -0.55349,-0.23463 -0.618,-0.42448c-0.02832,-0.07366 -0.04384,-0.15371 -0.04384,-0.23735c0,-0.33263 -0.00884,-0.6643 -0.02258,-0.99514c-0.47635,0.19725 -0.95942,0.36752 -1.44943,0.49003c-0.48265,0.08462 -0.96213,0.16344 -1.44006,0.23608c0,0.56031 0,1.12062 0,1.68094v0.17648c0,0 0,0.66183 -0.66183,0.66183c-0.66183,0 -0.66183,-0.66183 -0.66183,-0.66183c0,-0.54402 0,-1.10481 0,-1.67203c-1.19751,0.15298 -2.39484,0.26467 -3.61801,0.32894c0,0.21238 0,0.42475 0,0.63713v0.52946c0,0 0,0.66183 -0.66183,0.66183c-0.66183,0 -0.66183,-0.66183 -0.66183,-0.66183c0,-0.34164 0,-0.72018 0,-1.11612c-0.36445,0.00866 -0.73192,0.01305 -1.10304,0.01305c0,0 -0.66183,0 -0.66183,-0.66183c0,-0.66183 0.66183,-0.66183 0.66183,-0.66183c0.36694,0 0.73485,-0.00029 1.10304,-0.00234c0,-0.70405 0,-1.39776 0,-1.98316c0,0 0,-0.66183 0.66183,-0.66183c0.66183,0 0.66183,0.66183 0.66183,0.66183c0,0.65519 0,1.31036 0,1.96554c1.21959,-0.02807 2.4337,-0.09541 3.61801,-0.2567c0,-0.87835 0,-1.75464 0,-2.59128c0,0 0,-0.66183 0.66183,-0.66183c0.66183,0 0.66183,0.66183 0.66183,0.66183c0,0.78875 0,1.57748 0,2.36623c0.37741,-0.07813 0.7507,-0.1684 1.11903,-0.27273c0.5763,-0.14408 1.13999,-0.36095 1.69379,-0.61019c-0.04015,-0.67311 -0.07723,-1.34361 -0.07723,-2.01276l0.00049,-0.15104c0,0 -0.02543,-0.66135 0.63591,-0.68677z" data-paper-data="{&quot;index&quot;:null}" fill="#a5b5ff" stroke="none" stroke-width="0.5" stroke-linecap="butt"/><path d="M221.34068,154.43474l0.01799,-0.19343c0.05883,-0.10707 0.11765,-0.21414 0.17648,-0.32121c2.61714,-2.22775 4.72971,2.10432 5.83229,3.75715c0.36893,0.55304 0.79541,0.99832 1.07437,1.60198c0.87825,1.91402 5.47211,6.43015 1.25833,7.29861c-0.53507,0.11028 -1.0278,0.09829 -1.57242,0.09829c-0.31498,-0.11097 -0.66057,-0.16706 -0.94493,-0.33292c-0.24372,-0.14216 -1.80233,-1.2963 -2.34686,-1.61009c-0.22881,-0.13185 -3.12553,-2.83217 -3.26262,-3.33119c-0.6282,-2.30518 -0.2845,-4.41385 -0.2845,-6.73067c0,-0.07611 0.01552,-0.14893 0.04384,-0.21597c0.00253,-0.00679 0.00521,-0.01363 0.00805,-0.02052z" data-paper-data="{&quot;index&quot;:null}" fill="#8e4108" stroke="none" stroke-width="0.5" stroke-linecap="butt"/><path d="M250.91405,168.4983c0.09244,2.11676 0.79734,4.21388 -0.44404,5.78999c-0.53486,0.67909 -1.51809,1.37611 -1.86631,1.34471c-1.73864,0.00711 -3.94944,0.30342 -5.58301,-0.36751c-1.17825,-0.48391 -3.64579,-2.14391 -3.66321,-2.14974c-0.0177,-0.00485 -0.02734,-0.00806 -0.02734,-0.00806c-1.5297,-0.5099 -2.86335,-1.49027 -4.37442,-1.99883c-0.70292,-0.23657 -2.93764,-0.9485 -2.93764,-0.9485c-3.30173,-2.20115 -5.53568,-5.47934 -6.83631,-9.19415c-0.5273,-1.58194 -0.88831,-3.19442 -1.4119,-4.76519l0.04429,-0.17836c-1.56858,-0.89743 -2.88373,-2.17145 -4.46639,-3.03588c-0.84287,-0.46035 -2.01296,-0.8267 -2.81236,-1.46815c-0.84293,-0.67637 -1.32192,-1.0733 -1.99452,-1.91925c-2.61607,-2.68005 -3.00305,-5.07288 -3.00305,-8.73474l0.04349,-0.50658c-0.04748,-0.13545 -0.06674,-0.29691 -0.03975,-0.48871c0.01203,-0.19826 0.07436,-0.43129 0.26176,-0.62159c0.1753,-0.20151 0.4028,-0.28162 0.59955,-0.30892c0.27094,-0.05972 0.48711,-0.02008 0.65715,0.06523c2.7234,0.6707 4.85613,1.96089 7.42281,3.03127c1.03324,0.4309 2.28842,0.33394 3.40678,0.52033c0.52946,0.08825 2.12026,0.25033 2.12026,0.25033c2.41034,0 3.92745,-1.45793 6.15825,-2.31518c1.74005,-0.66865 3.50817,-0.63313 5.3159,-0.93547c3.09366,-0.51561 6.56912,-0.10265 9.70446,-0.10265c0,0 1.23297,0.36046 1.38923,0.58072c1.29312,1.18514 1.2581,2.44777 1.2581,4.18447c0,2.50266 -0.22526,5.13827 0.13066,7.61624c0.15706,1.17796 0.39428,2.27877 0.39874,3.46848c0.05719,0.23891 0.00694,0.45115 -0.07469,0.62045c-0.07169,0.20268 -0.2122,0.4158 -0.48442,0.54136c-1.48056,1.09287 -2.73598,0.77372 -4.38489,1.32866c-0.72808,0.24502 -1.36673,0.73362 -2.17752,0.85611c-1.30935,0.19779 -2.70483,0.02208 -3.99958,0.29107c-1.5237,0.25394 -3.24766,0.20498 -4.80473,-0.01378c-0.03255,0.63925 -0.0573,1.29309 0.04193,1.8813c0.41446,2.45679 3.38457,4.26102 5.60249,4.50864c2.67187,0.334 4.66316,-0.45761 7.12279,-1.2775c0.71506,-0.23835 1.60991,-0.28168 2.27863,-0.56939c0.69706,-0.29991 1.23812,-0.73582 2.11786,-0.88244l0.86759,0.57131c0,0 1.00269,0.34053 0.66215,1.34322z" data-paper-data="{&quot;index&quot;:null}" fill="#ffdebd" stroke="none" stroke-width="0.5" stroke-linecap="butt"/><path d="M257.25591,140.40822c0,0 -0.00761,1.28597 -0.47162,1.88645c-0.46401,0.60048 -2.20086,1.57203 -2.20086,1.57203l-5.34493,2.51526" data-paper-data="{&quot;index&quot;:null}" fill="none" stroke="#a5b5ff" stroke-width="4.5" stroke-linecap="round"/><path d="M233.71229,144.06576c-0.12706,0.60804 -0.37278,1.16204 -0.47744,1.79655c-0.14063,0.85258 0.02717,1.92917 0.02717,2.80694c0,0.53915 2.09507,0.81223 3.08854,0.81223c0.26647,0 1.8593,0.01908 1.82418,-0.08955c0.40325,-0.27495 1.10298,-0.29993 1.44992,-0.60465c1.07778,-0.94662 2.04652,-2.27101 2.5772,-3.89916c0.06637,-0.20367 0.26728,-0.68113 0.06107,-0.64099c-0.1097,0.02135 -0.04838,0.2846 -0.15878,0.30166c-0.30309,0.04684 -0.96073,-0.43837 -1.27329,-0.52089c-0.40953,-0.10812 -1.10514,-0.09121 -1.55918,-0.16955c-1.00595,-0.17356 -2.24625,0.02778 -3.27409,0.02778c-0.79362,0 -1.51571,0.16623 -2.28531,0.17964zM233.26204,142.80317c0.20469,0 0.33025,0.08093 0.40727,0.18022c0.76794,-0.00793 1.52852,-0.18022 2.32831,-0.18022c1.70909,0 4.007,-0.27967 5.6174,0.37911c1.01157,0.41381 2.0023,0.78775 1.59145,2.04831c-0.63571,1.9504 -0.37244,2.7517 -1.91557,3.99239c-0.31442,0.25279 -2.02353,1.04676 -2.52876,1.07004c-0.50523,0.02329 -3.98167,0.47264 -5.26434,-0.18049c-0.53582,-0.27285 -1.29469,-0.80087 -1.29469,-1.44327c0,-1.0154 -0.13518,-2.14687 0.02716,-3.14941c0.12356,-0.76302 0.5023,-1.37834 0.5023,-2.17521c0,0 0,-0.54149 0.52946,-0.54149z" data-paper-data="{&quot;index&quot;:null}" fill="#18c6ff" stroke="none" stroke-width="0.5" stroke-linecap="butt"/><path d="M239.17336,142.70549c1.20912,0.30327 1.00102,0.33101 1.67768,0.75051c0.67665,0.41951 1.44184,1.21874 1.37545,1.4224c-0.53067,1.62817 -0.32331,2.53849 -1.4011,3.48513c-0.34694,0.30472 -2.04516,0.872 -2.64677,0.99911c-0.60161,0.1271 -1.57337,0.14255 -1.83983,0.14255c-0.99348,0 -3.10089,-0.28588 -3.10089,-0.82504c0,-0.87776 -0.16978,-1.9697 -0.02914,-2.82228c0.10466,-0.6345 0.35409,-1.80337 0.48116,-2.41141c0.76959,-0.17982 1.29205,-0.55966 2.29334,-0.71213c1.00129,-0.15247 1.98097,-0.33209 3.19008,-0.02881z" data-paper-data="{&quot;noHover&quot;:false,&quot;origItem&quot;:[&quot;Path&quot;,{&quot;applyMatrix&quot;:true,&quot;segments&quot;:[[[469.86056,340.47788],[2.90705,-0.05065],[-0.47996,2.2968]],[[468.0571,347.26415],[0.39535,-2.39679],[-0.53123,3.22051]],[[468.15973,357.86707],[0,-3.31566],[0,2.03658]],[[479.8264,360.93518],[-3.75277,0],[1.00657,0]],[[486.717,360.5969],[0.13271,0.41035],[1.52326,-1.03856]],[[492.19394,358.31293],[-1.31054,1.15106],[4.07119,-3.57579]],[[501.92903,343.58421],[-2.00456,6.15021],[0.25074,-0.76931]],[[502.15973,341.16292],[0.77893,-0.15165],[-0.41434,0.08067]],[[501.56,342.30239],[0.41704,-0.06448],[-1.14489,0.17701]],[[496.75028,340.33482],[1.18068,0.3117],[-1.54698,-0.4084]],[[490.86061,339.69435],[1.71512,0.2959],[-3.79987,-0.65558]],[[478.49306,339.79931],[3.88259,0],[-2.99782,0]]],&quot;closed&quot;:true}],&quot;index&quot;:null}" fill="#ffffff" stroke="none" stroke-width="0.5" stroke-linecap="butt"/><path d="M245.7927,144.34491c0,0.69165 0,1.38331 0,2.07496c0,0.05299 -0.00224,0.79413 0,0.79419c0.08851,0.00208 -0.0559,-0.23874 0.02896,-0.26406c0.24531,-0.07314 1.27219,0.26406 1.82418,0.26406c0.1074,0 1.32356,0.00442 1.32367,0c0.00208,-0.08851 -0.23874,0.0559 -0.26406,-0.02896c-0.20002,-0.67088 0.0433,-2.53968 0.08241,-3.67206c-0.30628,0.21453 -0.96247,-0.18172 -1.40676,-0.18172c-0.41897,0 -0.95072,0.43629 -1.30226,0.81561l-0.26474,0.26474c0,0 -0.0084,-0.02518 -0.02141,-0.06675zM245.3301,143.39813c0.97,-0.92918 2.38455,-1.73168 3.69747,-1.6805c0.59471,0.0232 0.8244,0.78578 0.8244,1.52542c0,1.44255 0.54537,4.21947 -0.88244,5.02993c-0.25155,0.14278 -1.02597,0 -1.32367,0c-1.03841,0 -2.34452,-0.05906 -2.91206,-1.05893c-0.33657,-0.59295 0,-2.31165 0,-3.0003c0,0 0,-0.45615 0.4234,-0.52167z" data-paper-data="{&quot;index&quot;:null}" fill="#18c6ff" stroke="none" stroke-width="0.5" stroke-linecap="butt"/><path d="M247.3811,142.19537c0.44429,0 1.53423,0.19257 1.53423,0.19257c0,0 0.07302,4.75807 0.07095,4.84659c-0.0001,0.00442 -1.22945,0.00574 -1.33684,0.00574c-0.55199,0 -1.78497,-0.00366 -1.87349,-0.00573c-0.00224,-0.00006 -0.0047,-0.74621 -0.0047,-0.79918c0,-0.69165 0.01968,-2.03646 0.01968,-2.03646c0,0 1.17122,-2.20352 1.59018,-2.20352z" data-paper-data="{&quot;noHover&quot;:false,&quot;origItem&quot;:[&quot;Path&quot;,{&quot;applyMatrix&quot;:true,&quot;segments&quot;:[[[515.49306,341.5323],[0.04917,0.15701],[0,2.61264]],[[515.49306,349.37022],[0,-2.61264],[0,0.20016]],[[515.49306,352.37022],[-0.00844,-0.0002],[0.33438,0.00784]],[[515.60246,351.37279],[-0.32053,0.09557],[0.92664,-0.27628]],[[522.49306,352.37022],[-2.08504,0],[0.4057,0]],[[527.49306,352.37022],[-0.00039,0.0167],[0.00784,-0.33438]],[[526.49563,352.26082],[0.09557,0.32053],[-0.75555,-2.53413]],[[526.80695,338.39],[-0.14773,4.27747],[-1.15693,0.81042]],[[521.49306,337.70356],[1.67827,0],[-1.5826,0]],[[516.57394,340.78444],[1.32792,-1.43284],[0,0]],[515.57394,341.78444]],&quot;closed&quot;:true}],&quot;index&quot;:null}" fill="#ffffff" stroke="none" stroke-width="0.5" stroke-linecap="butt"/><path d="M216.10087,144.55146l2.75974,1.57203c0,0 1.94426,0.42219 3.03571,1.10043c1.09144,0.67824 1.08102,0.91487 1.51784,1.72924c0.43682,0.81436 0.33358,0.90041 0,1.10043c-0.33357,0.20003 -1.60601,0.70305 -2.62175,0.47162c-1.01574,-0.23144 -1.51786,-1.41484 -1.51786,-1.41484l-0.42775,-2.95543" data-paper-data="{&quot;index&quot;:null}" fill="none" stroke="#f6b09a" stroke-width="3" stroke-linecap="round"/><path d="M234.73166,146.84254c0.30354,0 0.57826,0.12297 0.7774,0.32192c0.19917,0.1985 0.32233,0.473 0.32233,0.77603c0,0.30303 -0.12316,0.57752 -0.32233,0.77603c-0.19913,0.19895 -0.47386,0.32192 -0.7774,0.32192c-0.3035,0 -0.57823,-0.12297 -0.7774,-0.32192c-0.19913,-0.1985 -0.3223,-0.47301 -0.3223,-0.77603c0,-0.30303 0.12316,-0.57752 0.3223,-0.77603c0.19917,-0.19895 0.47389,-0.32192 0.7774,-0.32192z" data-paper-data="{&quot;index&quot;:null}" fill="#000000" stroke="none" stroke-width="1.05702" stroke-linecap="butt"/><path d="M251.87576,128.81869c1.17176,7.30713 -0.24064,7.72268 -4.16666,10.06198c-5.72053,3.40856 -13.20338,2.71853 -19.31375,5.36543c-1.60441,0.695 -5.69372,-0.99362 -7.44221,-0.99362c-3.57616,0 -5.59401,-2.55585 -5.74179,-5.60012c-0.32595,-6.71497 2.98055,-6.74101 6.55671,-6.74101c0,0 3.93567,0.65232 5.29512,2.74034c0,0 5.47507,-8.90814 11.24655,-10.00867c7.42951,-1.41668 12.72455,-0.07181 13.56603,5.17569z" data-paper-data="{&quot;index&quot;:null}" fill="#7100f3" stroke="none" stroke-width="0" stroke-linecap="butt"/><path d="M250.46077,132.98715c0,2.67339 -0.71541,4.68469 -5.96517,4.84059c-5.54206,0.16457 -5.96517,-2.1672 -5.96517,-4.84059c0,-2.67339 2.6707,-4.84059 5.96517,-4.84059c3.29447,0 5.96517,2.1672 5.96517,4.84059z" data-paper-data="{&quot;index&quot;:null}" fill="#ffffff" stroke="none" stroke-width="0" stroke-linecap="butt"/><path d="M246.75731,129.31744l0.19636,1.72991l-2.635,0.21978l0.3656,4.28849l-2.21736,0.26197l-0.41063,-6.10402z" data-paper-data="{&quot;index&quot;:null,&quot;origRot&quot;:0}" fill="#ffea12" stroke="#7100f3" stroke-width="1" stroke-linecap="butt"/><path d="M258.30725,155.33671l-2.82381,6.00061l-1.41192,-0.17648l-4.94167,-2.11786l-14.29555,3.35327h-2.11786l-1.5884,-1.76488l-2.82381,-6.53008l0.70596,-0.88244l5.11817,4.94167l7.76548,-0.88244l6.17709,-1.76488l5.47113,2.11786l3.35327,-2.82381z" data-paper-data="{&quot;index&quot;:null}" fill="#000000" stroke="#ff0000" stroke-width="0" stroke-linecap="round"/><path d="M227.24927,143.18244c0.49152,0 1.28344,0.8826 1.31598,1.07047c0.82201,0.82295 1.54918,2.08863 1.72613,3.24063c0.0567,0.36921 -0.81312,2.30612 -1.0125,2.57197c-1.05449,0.82018 -2.48943,1.52837 -3.08578,0.1165c-0.13881,-0.32864 0.39433,-1.74014 0.39433,-2.10199c0,-1.23542 0,-2.47083 0,-3.70625c0,0 0,-0.17024 0.08634,-0.33805l-0.08634,-0.19142c0,0 0,-0.66183 0.66183,-0.66183z" data-paper-data="{&quot;index&quot;:null}" fill="#8e4108" stroke="none" stroke-width="0.5" stroke-linecap="butt"/><path d="M250.3403,135.96109c3.3705,0.04659 8.31285,3.23757 7.92723,4.73423c-0.10432,0.40486 -19.72241,1.29033 -25.43767,1.85626c-2.77768,0.27506 -8.30901,2.02739 -8.20468,1.62254c0.38564,-1.49665 2.70563,-4.50973 5.36324,-5.29024c3.21158,-0.94322 12.10697,-3.03673 20.35191,-2.92277z" data-paper-data="{&quot;index&quot;:null}" fill="#4f05a3" stroke="none" stroke-width="0" stroke-linecap="butt"/><path d="M225.61865,144.41691l14.81646,-2.90827l16.97802,-1.10043" data-paper-data="{&quot;index&quot;:null}" fill="none" stroke="#ffffff" stroke-width="4.5" stroke-linecap="round"/><path d="M244.15004,144.78923c-0.04599,1.05792 -1.10392,1.01194 -1.10392,1.01194l-0.96849,-0.58402c-0.44122,-0.35297 -0.88244,-0.70596 -1.32367,-1.05893c-2.5179,-2.14952 -6.5159,-0.72968 -9.06771,0.72851c0,0 -0.91941,0.52537 -1.44479,-0.39404c-0.52537,-0.91941 0.39404,-1.44478 0.39404,-1.44478c3.4084,-1.94765 7.99409,-3.20357 11.44149,-0.54346c0.44122,0.35297 1.23865,0.91459 1.23865,0.91459c0,0 0.88042,0.31227 0.83442,1.3702z" data-paper-data="{&quot;index&quot;:null}" fill="#000000" stroke="none" stroke-width="0.5" stroke-linecap="butt"/><path d="M250.59629,141.04491c0.5174,0.92392 -0.40653,1.44133 -0.40653,1.44133l-1.22335,0.13501c-1.49184,0 -2.219,0.29876 -2.70166,1.74677c0,0 -0.33487,1.00459 -1.33945,0.66973c-1.0046,-0.33486 -0.66973,-1.33945 -0.66973,-1.33945c0.75221,-2.25665 3.27219,-2.91196 3.27219,-2.91196c0,0 2.55113,-0.66533 3.06854,0.2586z" data-paper-data="{&quot;index&quot;:null}" fill="#000000" stroke="none" stroke-width="0.5" stroke-linecap="butt"/><path d="M247.04809,144.97949c0.26271,0 0.50048,0.10643 0.67283,0.27863c0.17238,0.1718 0.27898,0.40938 0.27898,0.67164c0,0.26227 -0.10659,0.49984 -0.27898,0.67164c-0.17235,0.1722 -0.41011,0.27863 -0.67283,0.27863c-0.26269,0 -0.50044,-0.10643 -0.67283,-0.27863c-0.17234,-0.1718 -0.27895,-0.40937 -0.27895,-0.67164c0,-0.26227 0.10659,-0.49984 0.27895,-0.67164c0.17238,-0.1722 0.41014,-0.27863 0.67283,-0.27863z" data-paper-data="{&quot;index&quot;:null}" fill="#000000" stroke="none" stroke-width="1.05702" stroke-linecap="butt"/><path d="M242.40051,150.49929c0.11498,-0.759 0.07029,-1.70894 0.29171,-2.30702c0.48914,-1.32118 1.95965,-1.93635 3.25301,-1.93635c4.33983,0 11.09465,1.65875 11.09465,6.98964c-0.03255,1.57121 -0.33195,2.94033 -1.58499,4.02567c-0.61398,0.53181 -1.75058,0.55159 -2.52057,0.62858c-2.39688,0.2397 -5.1598,0.57084 -7.53951,0.0949c-2.08146,-0.55194 -4.09526,-0.32825 -5.74486,-2.10237c-1.15955,-1.24707 -0.99992,-3.61018 -0.10788,-4.89731c0.43113,-0.62207 1.95216,-0.52315 2.63098,-0.52315c0,0 0.09409,0 0.22746,0.0274z" fill="url(#color-6)" stroke="none" stroke-width="0.5" stroke-linecap="butt"/></g><path d="M230.99333,174.97786c-0.60963,1.27318 -4.90532,3.46742 -8.55755,6.57059c-1.78952,1.52048 -7.44542,6.6515 -7.91708,6.13285c-1.05508,-1.16017 -4.21047,-3.43979 -3.87052,-3.83894c3.52825,-4.14273 7.26296,-9.83423 11.4574,-13.95032c1.34961,-1.3244 6.12832,-2.87854 7.8522,-0.88181c1.72388,1.99672 2.17085,3.59662 1.03556,5.96764z" fill="#7100f3" stroke="none" stroke-width="0" stroke-linecap="butt"/><g stroke-linecap="butt"><path d="M223.77549,201.54143c0.78876,2.99163 -0.05742,6.53491 -4.92713,7.90998c-5.52183,1.25244 -8.02824,0.49676 -9.27674,-2.4677c-1.0063,-3.05035 -0.35162,-6.70761 5.5283,-7.87535c4.69553,-1.41546 6.1782,-1.98235 8.67558,2.43306z" data-paper-data="{&quot;origRot&quot;:0}" fill="#ffffff" stroke="none" stroke-width="0"/><path d="M222.23886,195.94702c1.11366,3.01905 -0.19075,2.26298 -6.15516,4.42072c-5.23566,1.89411 -6.02111,2.34053 -7.16848,-0.3581c-1.02563,-2.41231 2.87077,-3.01358 6.10136,-4.09283c3.23057,-1.07927 6.57197,-1.73268 7.22229,0.03022z" data-paper-data="{&quot;origRot&quot;:0}" fill="#ffffff" stroke="none" stroke-width="0"/><path d="M218.68413,193.82017c1.65624,3.88002 -4.80094,4.95617 -6.73239,4.95071c-1.93146,-0.00547 -1.73423,-5.08146 -1.72229,-9.30017c0.01194,-4.2187 -0.40984,-8.23166 3.51885,-7.62874c2.81719,0.43234 3.21166,3.18724 3.53632,5.49774c0.34391,2.44751 0.553,4.49733 1.39952,6.48047z" fill="#7100f3" stroke="none" stroke-width="0"/><path d="M215.7282,207.81095l-0.61738,-1.63077l2.50356,-0.86339l-1.41288,-4.07262l2.08775,-0.80132l1.90449,5.82384z" data-paper-data="{&quot;index&quot;:null,&quot;origRot&quot;:0}" fill="#ffea12" stroke="#7100f3" stroke-width="1"/></g></g></g></svg>