<svg version="1.1" xmlns="http://www.w3.org/2000/svg" xmlns:xlink="http://www.w3.org/1999/xlink" width="152.33426" height="123.5" viewBox="0,0,152.33426,123.5"><defs><radialGradient cx="401.79523" cy="142.50001" r="61.75" gradientUnits="userSpaceOnUse" id="color-1"><stop offset="0" stop-color="#ffffff"/><stop offset="1" stop-color="#ffffff" stop-opacity="0"/></radialGradient></defs><g transform="translate(-319.55124,-80.75001)"><g data-paper-data="{&quot;isPaintingLayer&quot;:true}" fill-rule="nonzero" stroke-linejoin="miter" stroke-miterlimit="10" stroke-dasharray="" stroke-dashoffset="0" style="mix-blend-mode: normal"><path d="M340.04523,142.50001c0,-34.10357 27.64643,-61.75 61.75,-61.75c34.10357,0 61.75,27.64643 61.75,61.75c0,34.10357 -27.64643,61.75 -61.75,61.75c-34.10357,0 -61.75,-27.64643 -61.75,-61.75z" fill="url(#color-1)" stroke="none" stroke-width="0.5" stroke-linecap="butt"/><g><path d="M464.42113,146.92382c0,13.16586 -9.32974,16.79478 -23.89596,17.68405c-0.27885,0.01703 -9.4956,-0.17746 -18.37095,-1.97136c-8.17545,-1.65244 -16.06121,-4.905 -16.40468,-5.12688c-6.0365,-3.8996 -7.80822,-7.94122 -7.80822,-15.65093c0,-15.44393 14.97649,-32.60675 33.45094,-32.60675c18.47444,0 33.02885,22.22795 33.02885,37.67188z" fill="#474e5c" stroke="none" stroke-width="0" stroke-linecap="butt"/><path d="M431.22502,160.63264c0,10.44876 -17.23489,18.91915 -38.49521,18.91915c-21.26032,0 -38.49521,-8.47039 -38.49521,-18.91915c0,-10.44875 17.23489,-18.91915 38.49521,-18.91915c21.26032,0 38.49521,8.4704 38.49521,18.91915z" fill="#586173" stroke="none" stroke-width="0" stroke-linecap="butt"/><path d="M415.1963,150.51615c0,0.24417 -0.30023,-5.5774 -0.37311,-5.37563c-1.59471,4.41453 -19.88625,5.15915 -34.12108,9.31425c-15.67755,4.57624 -26.68986,19.21328 -27.40007,13.68166c-0.07846,-0.61114 -2.22064,-16.99555 -2.22064,-17.62028c0,-11.82741 14.3526,-21.41543 32.05745,-21.41543c17.70484,0 32.05745,9.58801 32.05745,21.41543z" fill="#31363f" stroke="#9aa9c8" stroke-width="0" stroke-linecap="butt"/><path d="M444.62608,158.94384c0,19.41053 -13.7549,24.76068 -35.23,26.07174c-0.78979,0.04821 -3.59574,-45.49126 -25.02642,-49.34572c-22.19404,-3.99174 -25.18748,39.56296 -26.24357,38.88072c-8.89966,-5.74922 -11.51172,-11.70781 -11.51172,-23.0743c0,-22.76912 22.07997,-48.07241 49.317,-48.07241c27.23703,0 48.6947,32.77085 48.6947,55.53997z" fill="#586173" stroke="none" stroke-width="0" stroke-linecap="butt"/><path d="M357.38779,174.55923c0,0 2.8769,-41.59626 26.08101,-38.4162c25.13345,3.44446 25.68388,49.45237 25.68388,49.45237" fill="none" stroke="#9aa9c8" stroke-width="4" stroke-linecap="round"/><path d="M373.56314,121.49609l25.09054,-20.36969" fill="none" stroke="#9aa9c8" stroke-width="6.5" stroke-linecap="round"/><path d="M412.29323,99.61476c-1.58018,1.42286 -3.69211,2.25919 -5.9851,2.18131c-4.69923,-0.15959 -8.37933,-4.09846 -8.21974,-8.79769c0.0674,-1.9848 0.809,-3.78778 1.99734,-5.19644" fill="none" stroke="#9aa9c8" stroke-width="6.5" stroke-linecap="butt"/><path d="M360.15467,121.58836c1.61763,-1.69412 3.9233,-2.71714 6.44852,-2.63137c4.69923,0.15959 8.37933,4.09846 8.21974,8.79769c-0.0753,2.21704 -0.99179,4.20725 -2.43249,5.67441" fill="none" stroke="#9aa9c8" stroke-width="6.5" stroke-linecap="butt"/><path d="M375.96746,98.81104l20.45821,25.01841" data-paper-data="{&quot;index&quot;:null}" fill="none" stroke="#9aa9c8" stroke-width="6.5" stroke-linecap="round"/><path d="M377.25669,85.472c0.87926,1.61968 1.24133,3.53532 0.90638,5.4928c-0.79302,4.63458 -5.19296,7.74879 -9.82754,6.95577c-2.26144,-0.38695 -4.16089,-1.63268 -5.42104,-3.34543" data-paper-data="{&quot;index&quot;:null}" fill="none" stroke="#9aa9c8" stroke-width="6.5" stroke-linecap="butt"/><path d="M395.16352,135.75332c-1.1146,-1.72796 -1.61014,-3.86227 -1.236,-6.04882c0.79302,-4.63458 5.19296,-7.74879 9.82754,-6.95577c2.4905,0.42614 4.54195,1.89386 5.78398,3.87982" data-paper-data="{&quot;index&quot;:null}" fill="none" stroke="#9aa9c8" stroke-width="6.5" stroke-linecap="butt"/><path d="M438.89779,158.33344c0,0 -2.94412,7.49634 -10.56999,12.20479c-9.31942,5.75409 -17.80873,4.74362 -17.80873,4.74362" fill="none" stroke="#9aa9c8" stroke-width="6.5" stroke-linecap="round"/><path d="M429.56959,152.4212c0,0 -3.03572,4.4924 -10.02484,8.91015c-3.68869,2.33159 -12.17889,1.86325 -12.17889,1.86325" fill="none" stroke="#9aa9c8" stroke-width="6.5" stroke-linecap="round"/><path d="M419.4531,144.53822c0,0 -3.78306,5.35616 -6.02724,6.46849c-2.70544,1.34097 -9.0818,1.02034 -9.0818,1.02034" fill="none" stroke="#9aa9c8" stroke-width="6.5" stroke-linecap="round"/><path d="M412.75257,141.51641c0,0 3.97374,11.55511 5.65628,17.38091c1.81148,6.27223 4.85436,19.01218 4.85436,19.01218" fill="none" stroke="#586173" stroke-width="2" stroke-linecap="round"/><path d="M420.37279,139.15152c0,0 4.19298,12.12908 5.81049,17.72814c1.78242,6.1699 4.43738,17.74527 4.43738,17.74527" fill="none" stroke="#586173" stroke-width="2" stroke-linecap="round"/><path d="M429.96374,142.96163c0,0 3.19963,9.09476 4.18415,12.40931c1.4548,4.89784 3.69883,14.13006 3.69883,14.13006" fill="none" stroke="#586173" stroke-width="2" stroke-linecap="round"/><path d="M356.67376,164.26906c0,0 -4.93188,-0.19162 -8.6811,-7.06034c-3.06791,-5.62052 -1.82377,-11.32865 -1.82377,-11.32865" data-paper-data="{&quot;index&quot;:null}" fill="none" stroke="#9aa9c8" stroke-width="5" stroke-linecap="round"/><path d="M361.34666,152.97813c0,0 -4.80085,-0.71769 -6.27171,-3.48884c-2.78687,-5.25061 -2.84754,-9.89651 -2.84754,-9.89651" data-paper-data="{&quot;index&quot;:null}" fill="none" stroke="#9aa9c8" stroke-width="5" stroke-linecap="round"/><path d="M365.72394,142.56127c0,0 -3.59802,-0.56917 -4.76634,-2.24356c-0.96913,-1.38891 -1.75839,-7.10733 -1.75839,-7.10733" data-paper-data="{&quot;index&quot;:null}" fill="none" stroke="#9aa9c8" stroke-width="5" stroke-linecap="round"/><path d="M440.21162,155.04886c0,0 -4.25795,10.78092 -11.88382,15.48936c-9.31942,5.75409 -17.80873,4.74362 -17.80873,4.74362" fill="none" stroke="#586173" stroke-width="1" stroke-linecap="round"/><path d="M431.67172,149.79354c0,0 -5.13785,7.12006 -12.12696,11.53781c-3.68869,2.33159 -12.17889,1.86325 -12.17889,1.86325" fill="none" stroke="#586173" stroke-width="1" stroke-linecap="round"/><path d="M421.29247,142.56747c0,0 -3.13403,4.08413 -5.65629,6.61687c-0.85606,0.85961 -1.64165,1.54051 -2.21031,1.82238c-2.70544,1.34097 -9.0818,1.02034 -9.0818,1.02034" fill="none" stroke="#586173" stroke-width="1" stroke-linecap="round"/><path d="M356.67376,164.26906c0,0 -4.93188,-0.19162 -8.6811,-7.06034c-3.06791,-5.62052 -1.03548,-13.29939 -1.03548,-13.29939" data-paper-data="{&quot;index&quot;:null}" fill="none" stroke="#586173" stroke-width="1" stroke-linecap="round"/><path d="M361.34666,152.97813c0,0 -4.80085,-0.71769 -6.27171,-3.48884c-2.78687,-5.25061 -3.50446,-13.0497 -3.50446,-13.0497" data-paper-data="{&quot;index&quot;:null}" fill="none" stroke="#586173" stroke-width="1" stroke-linecap="round"/><path d="M365.72394,142.56127c0,0 -3.59802,-0.56917 -4.76634,-2.24356c-0.96913,-1.38891 -2.4153,-10.12913 -2.4153,-10.12913" data-paper-data="{&quot;index&quot;:null}" fill="none" stroke="#586173" stroke-width="1" stroke-linecap="round"/></g><g fill="#081e76" stroke="none" stroke-width="0.24686" stroke-linecap="butt"><path d="M333.08466,85.41839c4.04447,2.04513 6.12245,3.06699 6.23484,3.06699c0,0.17955 -0.84223,1.80283 -2.52744,4.86983c-0.03973,0 -0.07871,0 -0.11844,0c-0.1345,0 -2.07266,-0.91555 -5.81298,-2.74671l-1.90457,2.54496c3.22443,1.54996 7.13899,3.52711 11.74523,5.93143c-2.08953,3.71813 -3.57216,6.18978 -4.4488,7.41414l-9.52046,0.84297c-4.34787,-2.9325 -6.64521,-4.4488 -6.89211,-4.54963c0,-0.03973 0,-0.07871 0,-0.11844c0,-0.31414 0.88196,-1.75786 2.64515,-4.33035c0.07331,0 0.14597,0 0.21937,0c0.69618,0.41579 2.88122,1.61181 6.55503,3.58895c0.74132,-0.84215 1.48271,-1.6852 2.22403,-2.52736c-6.75154,-3.43766 -10.4926,-5.38122 -11.22245,-5.83059c0,-0.03367 0,-0.06725 0,-0.10091c2.14531,-4.17898 3.31389,-6.29676 3.50491,-6.35328c5.5837,-1.13417 8.68969,-1.702 9.31871,-1.702z"/><path d="M352.04219,90.52438c5.08845,2.61762 7.90857,4.14539 8.45887,4.5833c-0.72993,3.41554 -1.16243,5.17332 -1.29775,5.27497c-3.54996,0 -7.1,0 -10.64922,0c0,0.06111 0,0.12304 0,0.18496c0.99353,1.23042 1.98788,2.46018 2.98214,3.6906l4.68495,-2.39294c0.4601,0.79792 1.12344,2.19045 1.98788,4.17905c-0.40432,0.1345 -3.35287,0.56709 -8.84639,1.29767c-4.54963,-2.99975 -6.84165,-4.5611 -6.87531,-4.68495c0.73067,-5.83051 1.16243,-8.7454 1.29775,-8.7454c4.75221,-2.02228 7.50432,-3.15112 8.2571,-3.38728zM350.94619,94.60252c-0.08937,0.22469 -0.6848,1.11738 -1.78604,2.67955c0,0.4715 0.66334,0.70765 1.98861,0.70765c0,0.06725 0.96068,0.2301 2.88122,0.48837c0.52818,-0.72985 0.7926,-1.15711 0.7926,-1.28088c-0.16891,-0.99967 -0.53423,-1.4995 -1.09518,-1.4995c-0.92709,-0.36533 -1.85411,-0.72985 -2.7812,-1.09518z"/><path d="M367.07296,85.41839l7.41406,1.31454c-0.07028,0.56323 -0.63663,5.06552 -0.70765,5.62802c1.47198,-0.07798 2.55029,-0.11771 3.23583,-0.11771c0.35927,0 0.71847,0 1.07839,0c0.07871,-0.03899 0.15744,-0.07871 0.23542,-0.11771l0.11844,0.23542c-0.23615,3.41545 -0.4379,5.33682 -0.60681,5.76326c-0.07871,-0.04505 -0.15744,-0.09019 -0.23615,-0.1345c-0.16817,0 -1.68447,-0.07871 -4.54963,-0.23615c-0.15744,2.63982 -0.27515,5.79692 -0.35386,9.47l-0.23542,0.11844c-3.61803,-0.23615 -5.77472,-0.43865 -6.47099,-0.60681l0.11771,-0.47157c0,-0.97747 0.15744,-4.01081 0.47232,-9.10008c-3.03341,-0.16809 -4.55044,-0.37066 -4.55044,-0.60599c0.15744,-3.75253 0.36001,-5.62884 0.60681,-5.62884l4.432,0.84297c0,-0.48296 0,-0.966 0,-1.44905c0,-1.17997 -0.04513,-2.77498 -0.1345,-4.78579c0.08937,0 0.1345,-0.03973 0.1345,-0.11844z"/><path d="M385.23789,85.41839c2.47165,0.43865 4.94331,0.87656 7.41496,1.31454c-0.03211,0.25598 -0.67562,5.37269 -0.70773,5.62802c1.47116,-0.07798 2.54956,-0.11771 3.23508,-0.11771c0.35919,0 0.7192,0 1.07839,0c0.07871,-0.03899 0.15744,-0.07871 0.23615,-0.11771c0.03899,0.07871 0.07871,0.15744 0.11771,0.23542c-0.23542,3.41545 -0.4379,5.33682 -0.60681,5.76326c-0.07798,-0.04505 -0.1567,-0.09019 -0.23542,-0.1345c-0.16891,0 -1.6852,-0.07871 -4.54963,-0.23615c-0.15744,2.63982 -0.27515,5.79692 -0.35386,9.47c-0.07871,0.03973 -0.15744,0.07871 -0.23615,0.11844c-3.61729,-0.23615 -5.77399,-0.43865 -6.47099,-0.60681c0.03973,-0.15744 0.07871,-0.31488 0.11844,-0.47157c0,-0.97747 0.1567,-4.01081 0.47157,-9.10008c-3.03341,-0.16809 -4.54971,-0.37066 -4.54971,-0.60599c0.15744,-3.75253 0.35919,-5.62884 0.60681,-5.62884c1.4773,0.28129 2.95388,0.56176 4.43118,0.84297c0,-0.48296 0,-0.966 0,-1.44905c0,-1.17997 -0.04431,-2.77498 -0.1345,-4.78579c0.09019,0 0.1345,-0.03973 0.1345,-0.11844z"/><path d="M400.69061,83.75072c2.20715,0.34781 4.41513,0.69627 6.62228,1.0448c-0.83151,3.17856 -1.37639,4.76817 -1.63474,4.76817c-3.48197,-0.23533 -5.22369,-0.46617 -5.22369,-0.69085c0,-1.62869 0,-3.25728 0,-4.8867c0.03358,-0.1567 0.11231,-0.23542 0.23615,-0.23542zM398.83722,91.77168c0.03367,0 0.06725,0 0.10091,0c5.12286,0.93242 7.68388,1.4773 7.68388,1.634c-1.47125,8.33583 -2.36467,12.98105 -2.67955,13.93633c-1.77989,0 -3.56069,0 -5.3414,0c-0.15744,0 -0.23615,-0.07871 -0.23615,-0.23615c0.15744,-5.1114 0.31488,-10.22278 0.47232,-15.33418z"/><path d="M422.79918,90.50758c1.87017,1.28628 3.74106,2.57249 5.61123,3.85877c-0.39359,6.40374 -0.66874,10.14481 -0.82544,11.22319c-0.65187,0.07871 -2.63442,0.19643 -5.94896,0.35386c-0.03899,-0.07871 -0.07798,-0.15744 -0.11771,-0.23615c-0.19643,-2.99975 -0.39286,-5.99867 -0.59003,-8.99842c-0.07871,-0.03899 -0.1567,-0.07871 -0.23542,-0.11771c-2.14605,0.4601 -3.62335,0.80856 -4.43192,1.04473c0.22469,3.83052 0.33699,6.59943 0.33699,8.30757c-3.34747,0.93242 -5.17864,1.39859 -5.49352,1.39859c-2.17963,-9.59377 -3.26876,-14.66085 -3.26876,-15.19968c4.74073,-0.61828 7.31322,-0.92702 7.71754,-0.92702c0,0.03973 0,0.07871 0,0.11771c0.07871,0.05652 0.19643,1.2251 0.35386,3.50564c4.34714,-2.88737 6.64448,-4.33109 6.89211,-4.33109z"/><path d="M442.68297,90.55804c4.7744,0.12377 7.16193,0.33166 7.16193,0.62361c0.82003,12.43608 1.22968,19.05312 1.22968,19.85022c-3.61722,2.30348 -6.20657,3.86492 -7.76792,4.68495c-5.50499,-1.73033 -8.2571,-2.71846 -8.2571,-2.96608c1.77539,-2.59469 2.80332,-3.90923 3.08379,-3.9429c2.99975,1.48271 4.72394,2.22403 5.17332,2.22403c0.53341,-0.70159 1.06692,-1.40392 1.60108,-2.10632c-0.42717,-1.74098 -0.71379,-2.76891 -0.85976,-3.08379c-0.24688,0 -3.29169,0.49452 -9.13292,1.48345c-3.20223,-5.20158 -4.80266,-7.86966 -4.80266,-8.00416c2.76359,-4.41513 4.4488,-7.0044 5.05487,-7.76874c0.03973,0 0.07871,0 0.11844,0c0.32561,0 2.75213,0.5335 7.27964,1.60116c0,-0.12377 0,-0.24762 0,-0.37066c0,-0.43872 -0.03981,-1.14032 -0.11853,-2.10632c0.07871,-0.03973 0.15744,-0.07871 0.23615,-0.11844zM437.39203,97.7031c0.15744,0.34854 0.65113,2.20192 1.48263,5.56085c1.0448,-0.33708 2.64589,-0.95535 4.80266,-1.85337c-0.41579,-2.02228 -0.62361,-3.17398 -0.62361,-3.45445c-0.20184,-0.03973 -0.40432,-0.07871 -0.60689,-0.11844c-0.2468,0 -0.4937,0 -0.74132,0c-0.94307,0 -2.38147,-0.04513 -4.31347,-0.13459z"/><path d="M466.5273,90.50758c3.23508,2.06733 5.02121,3.2581 5.3582,3.57216c-1.16775,2.59542 -1.83649,3.89317 -2.00466,3.89317c-2.04513,-1.18537 -4.08952,-2.37074 -6.134,-3.55611c-0.07331,0 -0.14597,0 -0.21928,0c0,0.11231 -0.26368,0.74205 -0.79178,1.88769c5.65095,3.04406 8.47565,4.6055 8.47565,4.68421c-1.58354,3.66235 -2.47698,5.59435 -2.67873,5.79692c-3.19618,0.1857 -6.39227,0.37066 -9.58845,0.55636c-3.72959,-2.47157 -5.73508,-3.77464 -6.01555,-3.90997c0,-0.03358 0,-0.06725 0,-0.10084c0,-0.28055 0.55561,-1.54464 1.66767,-3.79152c2.49451,1.29767 4.98836,2.59542 7.48212,3.89236c0.1857,-0.74132 0.37066,-1.48263 0.55636,-2.22403c-4.62835,-2.07797 -7.38121,-3.37573 -8.2571,-3.89236c0,-0.07871 0,-0.15744 0,-0.23615c0,-0.42717 0.89269,-2.31954 2.67955,-5.67848c3.15637,-0.29808 6.31282,-0.59534 9.47,-0.89343z"/></g><g fill="#ffffff" stroke="none" stroke-width="0.24686" stroke-linecap="butt"><path d="M332.79597,83.97513c4.04447,2.04513 6.12245,3.06699 6.23484,3.06699c0,0.17955 -0.84223,1.80283 -2.52744,4.86983c-0.03973,0 -0.07871,0 -0.11844,0c-0.1345,0 -2.07266,-0.91555 -5.81298,-2.74671l-1.90457,2.54496c3.22443,1.54996 7.13899,3.52711 11.74523,5.93143c-2.08953,3.71813 -3.57216,6.18978 -4.4488,7.41414l-9.52046,0.84297c-4.34787,-2.9325 -6.64521,-4.4488 -6.89211,-4.54963c0,-0.03973 0,-0.07871 0,-0.11844c0,-0.31414 0.88196,-1.75786 2.64515,-4.33035c0.07331,0 0.14597,0 0.21937,0c0.69618,0.41579 2.88122,1.61181 6.55503,3.58895c0.74132,-0.84215 1.48271,-1.6852 2.22403,-2.52736c-6.75154,-3.43766 -10.4926,-5.38122 -11.22245,-5.83059c0,-0.03367 0,-0.06725 0,-0.10091c2.14531,-4.17898 3.31389,-6.29676 3.50491,-6.35328c5.5837,-1.13417 8.68969,-1.702 9.31871,-1.702z"/><path d="M351.75351,89.08111c5.08845,2.61762 7.90857,4.14539 8.45887,4.5833c-0.72993,3.41554 -1.16243,5.17332 -1.29775,5.27497c-3.54996,0 -7.1,0 -10.64922,0c0,0.06111 0,0.12304 0,0.18496c0.99353,1.23042 1.98788,2.46018 2.98214,3.6906l4.68495,-2.39294c0.4601,0.79792 1.12344,2.19045 1.98788,4.17905c-0.40432,0.1345 -3.35287,0.56709 -8.84639,1.29767c-4.54963,-2.99975 -6.84165,-4.5611 -6.87531,-4.68495c0.73067,-5.83051 1.16243,-8.7454 1.29775,-8.7454c4.75221,-2.02228 7.50432,-3.15112 8.2571,-3.38728zM350.6575,93.15925c-0.08937,0.22469 -0.6848,1.11738 -1.78604,2.67955c0,0.4715 0.66334,0.70765 1.98861,0.70765c0,0.06725 0.96068,0.2301 2.88122,0.48837c0.52818,-0.72985 0.7926,-1.15711 0.7926,-1.28088c-0.16891,-0.99967 -0.53423,-1.4995 -1.09518,-1.4995c-0.92709,-0.36533 -1.85411,-0.72985 -2.7812,-1.09518z"/><path d="M366.78426,83.97513l7.41406,1.31454c-0.07028,0.56323 -0.63663,5.06552 -0.70765,5.62802c1.47198,-0.07798 2.55029,-0.11771 3.23583,-0.11771c0.35927,0 0.71847,0 1.07839,0c0.07871,-0.03899 0.15744,-0.07871 0.23542,-0.11771l0.11844,0.23542c-0.23615,3.41545 -0.4379,5.33682 -0.60681,5.76326c-0.07871,-0.04505 -0.15744,-0.09019 -0.23615,-0.1345c-0.16817,0 -1.68447,-0.07871 -4.54963,-0.23615c-0.15744,2.63982 -0.27515,5.79692 -0.35386,9.47l-0.23542,0.11844c-3.61803,-0.23615 -5.77472,-0.43865 -6.47099,-0.60681l0.11771,-0.47157c0,-0.97747 0.15744,-4.01081 0.47232,-9.10008c-3.03341,-0.16809 -4.55044,-0.37066 -4.55044,-0.60599c0.15744,-3.75253 0.36001,-5.62884 0.60681,-5.62884l4.432,0.84297c0,-0.48296 0,-0.966 0,-1.44905c0,-1.17997 -0.04513,-2.77498 -0.1345,-4.78579c0.08937,0 0.1345,-0.03973 0.1345,-0.11844z"/><path d="M384.9492,83.97513c2.47165,0.43865 4.94331,0.87656 7.41496,1.31454c-0.03211,0.25598 -0.67562,5.37269 -0.70773,5.62802c1.47116,-0.07798 2.54956,-0.11771 3.23508,-0.11771c0.35919,0 0.7192,0 1.07839,0c0.07871,-0.03899 0.15744,-0.07871 0.23615,-0.11771c0.03899,0.07871 0.07871,0.15744 0.11771,0.23542c-0.23542,3.41545 -0.4379,5.33682 -0.60681,5.76326c-0.07798,-0.04505 -0.1567,-0.09019 -0.23542,-0.1345c-0.16891,0 -1.6852,-0.07871 -4.54963,-0.23615c-0.15744,2.63982 -0.27515,5.79692 -0.35386,9.47c-0.07871,0.03973 -0.15744,0.07871 -0.23615,0.11844c-3.61729,-0.23615 -5.77399,-0.43865 -6.47099,-0.60681c0.03973,-0.15744 0.07871,-0.31488 0.11844,-0.47157c0,-0.97747 0.1567,-4.01081 0.47157,-9.10008c-3.03341,-0.16809 -4.54971,-0.37066 -4.54971,-0.60599c0.15744,-3.75253 0.35919,-5.62884 0.60681,-5.62884c1.4773,0.28129 2.95388,0.56176 4.43118,0.84297c0,-0.48296 0,-0.966 0,-1.44905c0,-1.17997 -0.04431,-2.77498 -0.1345,-4.78579c0.09019,0 0.1345,-0.03973 0.1345,-0.11844z"/><path d="M400.40191,82.30746c2.20715,0.34781 4.41513,0.69627 6.62228,1.0448c-0.83151,3.17856 -1.37639,4.76817 -1.63474,4.76817c-3.48197,-0.23533 -5.22369,-0.46617 -5.22369,-0.69085c0,-1.62869 0,-3.25728 0,-4.8867c0.03358,-0.1567 0.11231,-0.23542 0.23615,-0.23542zM398.54854,90.32841c0.03367,0 0.06725,0 0.10091,0c5.12286,0.93242 7.68388,1.4773 7.68388,1.634c-1.47125,8.33583 -2.36467,12.98105 -2.67955,13.93633c-1.77989,0 -3.56069,0 -5.3414,0c-0.15744,0 -0.23615,-0.07871 -0.23615,-0.23615c0.15744,-5.1114 0.31488,-10.22278 0.47232,-15.33418z"/><path d="M422.51048,89.06432c1.87017,1.28628 3.74106,2.57249 5.61123,3.85877c-0.39359,6.40374 -0.66874,10.14481 -0.82544,11.22319c-0.65187,0.07871 -2.63442,0.19643 -5.94896,0.35386c-0.03899,-0.07871 -0.07798,-0.15744 -0.11771,-0.23615c-0.19643,-2.99975 -0.39286,-5.99867 -0.59003,-8.99842c-0.07871,-0.03899 -0.1567,-0.07871 -0.23542,-0.11771c-2.14605,0.4601 -3.62335,0.80856 -4.43192,1.04473c0.22469,3.83052 0.33699,6.59943 0.33699,8.30757c-3.34747,0.93242 -5.17864,1.39859 -5.49352,1.39859c-2.17963,-9.59377 -3.26876,-14.66085 -3.26876,-15.19968c4.74073,-0.61828 7.31322,-0.92702 7.71754,-0.92702c0,0.03973 0,0.07871 0,0.11771c0.07871,0.05652 0.19643,1.2251 0.35386,3.50564c4.34714,-2.88737 6.64448,-4.33109 6.89211,-4.33109z"/><path d="M442.39429,89.11479c4.7744,0.12377 7.16193,0.33166 7.16193,0.62361c0.82003,12.43608 1.22968,19.05312 1.22968,19.85022c-3.61722,2.30348 -6.20657,3.86492 -7.76792,4.68495c-5.50499,-1.73033 -8.2571,-2.71846 -8.2571,-2.96608c1.77539,-2.59469 2.80332,-3.90923 3.08379,-3.9429c2.99975,1.48271 4.72394,2.22403 5.17332,2.22403c0.53341,-0.70159 1.06692,-1.40392 1.60108,-2.10632c-0.42717,-1.74098 -0.71379,-2.76891 -0.85976,-3.08379c-0.24688,0 -3.29169,0.49452 -9.13292,1.48345c-3.20223,-5.20158 -4.80266,-7.86966 -4.80266,-8.00416c2.76359,-4.41513 4.4488,-7.0044 5.05487,-7.76874c0.03973,0 0.07871,0 0.11844,0c0.32561,0 2.75213,0.5335 7.27964,1.60116c0,-0.12377 0,-0.24762 0,-0.37066c0,-0.43872 -0.03981,-1.14032 -0.11853,-2.10632c0.07871,-0.03973 0.15744,-0.07871 0.23615,-0.11844zM437.10334,96.25983c0.15744,0.34854 0.65113,2.20192 1.48263,5.56085c1.0448,-0.33708 2.64589,-0.95535 4.80266,-1.85337c-0.41579,-2.02228 -0.62361,-3.17398 -0.62361,-3.45445c-0.20184,-0.03973 -0.40432,-0.07871 -0.60689,-0.11844c-0.2468,0 -0.4937,0 -0.74132,0c-0.94307,0 -2.38147,-0.04513 -4.31347,-0.13459z"/><path d="M466.2386,89.06432c3.23508,2.06733 5.02121,3.2581 5.3582,3.57216c-1.16775,2.59542 -1.83649,3.89317 -2.00466,3.89317c-2.04513,-1.18537 -4.08952,-2.37074 -6.134,-3.55611c-0.07331,0 -0.14597,0 -0.21928,0c0,0.11231 -0.26368,0.74205 -0.79178,1.88769c5.65095,3.04406 8.47565,4.6055 8.47565,4.68421c-1.58354,3.66235 -2.47698,5.59435 -2.67873,5.79692c-3.19618,0.1857 -6.39227,0.37066 -9.58845,0.55636c-3.72959,-2.47157 -5.73508,-3.77464 -6.01555,-3.90997c0,-0.03358 0,-0.06725 0,-0.10084c0,-0.28055 0.55561,-1.54464 1.66767,-3.79152c2.49451,1.29767 4.98836,2.59542 7.48212,3.89236c0.1857,-0.74132 0.37066,-1.48263 0.55636,-2.22403c-4.62835,-2.07797 -7.38121,-3.37573 -8.2571,-3.89236c0,-0.07871 0,-0.15744 0,-0.23615c0,-0.42717 0.89269,-2.31954 2.67955,-5.67848c3.15637,-0.29808 6.31282,-0.59534 9.47,-0.89343z"/></g></g></g></svg>