<svg version="1.1" xmlns="http://www.w3.org/2000/svg" xmlns:xlink="http://www.w3.org/1999/xlink" width="11.89251" height="31.3753" viewBox="0,0,11.89251,31.3753"><defs><linearGradient x1="243.38264" y1="179.91666" x2="236.49239" y2="179.91666" gradientUnits="userSpaceOnUse" id="color-1"><stop offset="0" stop-color="#0160c0"/><stop offset="1" stop-color="#23f4f4"/></linearGradient><linearGradient x1="243.38263" y1="179.91666" x2="236.49239" y2="179.91666" gradientUnits="userSpaceOnUse" id="color-2"><stop offset="0" stop-color="#e67c02"/><stop offset="1" stop-color="#ffd000"/></linearGradient></defs><g transform="translate(-233.99161,-165.56004)"><g data-paper-data="{&quot;isPaintingLayer&quot;:true}" fill-rule="nonzero" stroke="#000000" stroke-linecap="butt" stroke-linejoin="miter" stroke-miterlimit="10" stroke-dasharray="" stroke-dashoffset="0" style="mix-blend-mode: normal"><g><path d="M241.74809,191.77329c-1.513,-3.77031 -2.3177,-5.65547 -2.4141,-5.65547l-2.81645,-0.4961l-0.02514,-0.19843c0.03353,-6.74688 0.05029,-10.45105 0.05029,-11.1125l0.0503,-0.39688c2.99248,4.43177 4.53482,6.68073 4.62702,6.74688c0.0503,-0.33073 0.07544,-0.59532 0.07544,-0.79375l-0.20118,-11.6086c-0.01676,0 -0.02514,-0.03307 -0.02514,-0.0992c0.03353,-0.06613 0.05867,-0.0992 0.07544,-0.0992c1.47528,0.99219 2.21293,1.58751 2.21293,1.78594v0.0992c0,3.98529 0.00838,10.50065 0.02514,19.54609z" data-paper-data="{&quot;origPos&quot;:null}" fill="url(#color-1)" stroke-width="5"/><path d="M243.38262,189.49125l-1.63454,2.28204c-1.513,-3.77031 -2.3177,-5.65547 -2.4141,-5.65547l-2.81645,-0.4961l-0.02514,-0.19843c0.03353,-6.74688 0.05029,-10.45105 0.05029,-11.1125l0.0503,-0.39688c2.99248,4.43177 4.53482,6.68073 4.62702,6.74688c0.0503,-0.33073 0.07545,-0.59532 0.07545,-0.79375l-0.20118,-11.6086c-0.01676,0 -0.02515,-0.03307 -0.02515,-0.0992c0.03353,-0.06613 0.05868,-0.0992 0.07545,-0.0992c1.47528,0.99219 2.21293,1.58751 2.21293,1.78594v0.0992c0,3.98529 0.00838,10.50065 0.02514,19.54609z" data-paper-data="{&quot;origPos&quot;:null}" fill="url(#color-2)" stroke-width="0"/></g></g></g></svg>