<svg version="1.1" xmlns="http://www.w3.org/2000/svg" xmlns:xlink="http://www.w3.org/1999/xlink" width="14.93864" height="17.7584" viewBox="0,0,14.93864,17.7584"><defs><linearGradient x1="244.23726" y1="171.79895" x2="244.23726" y2="178.79073" gradientUnits="userSpaceOnUse" id="color-1"><stop offset="0" stop-color="#1e2f51"/><stop offset="1" stop-color="#152138"/></linearGradient><linearGradient x1="241.64282" y1="171.13934" x2="241.64282" y2="178.13113" gradientUnits="userSpaceOnUse" id="color-2"><stop offset="0" stop-color="#091952"/><stop offset="1" stop-color="#06123b"/></linearGradient></defs><g transform="translate(-232.53068,-171.13933)"><g data-paper-data="{&quot;isPaintingLayer&quot;:true}" fill-rule="nonzero" stroke-linejoin="miter" stroke-miterlimit="10" stroke-dasharray="" stroke-dashoffset="0" style="mix-blend-mode: normal"><path d="M239.24626,177.95523l7.4755,-6.1563l0.74756,1.75894c0,0 -1.18154,1.75892 -1.64642,2.76133c-0.47307,1.02007 -1.16788,3.30701 -1.16788,3.30701z" fill="url(#color-1)" stroke="#1e2f51" stroke-width="0" stroke-linecap="butt"/><path d="M236.65183,177.29563l7.4755,-6.1563l2.50649,0.61562l-4.70517,6.37616z" fill="url(#color-2)" stroke="#1e2f51" stroke-width="0" stroke-linecap="butt"/><path d="M237.35541,179.75816v-3.42993c0,0 1.9009,0.09562 2.80813,0.34762c0.9386,0.26071 2.73253,1.19144 2.73253,1.19144l0.4837,1.89087z" fill="#081953" stroke="#1e2f51" stroke-width="0" stroke-linecap="butt"/><path d="M240.76784,181.86285c-0.39405,3.04546 -2.54343,5.51428 -4.80081,5.51428c-2.25738,0 -3.7679,-2.46882 -3.37387,-5.51428c0.39405,-3.04546 2.54343,-5.51428 4.80081,-5.51428c2.25738,0 3.7679,2.46882 3.37387,5.51428z" fill="#081953" stroke="#000000" stroke-width="0" stroke-linecap="butt"/><path d="M245.65331,183.2656c-0.39405,3.04546 -2.54343,5.51428 -4.80081,5.51428c-2.25738,0 -3.7679,-2.46882 -3.37387,-5.51428c0.39405,-3.04546 2.54343,-5.51428 4.80081,-5.51428c2.25738,0 3.7679,2.46882 3.37387,5.51428z" fill="#1e2f51" stroke="#000000" stroke-width="0" stroke-linecap="butt"/><path d="M241.81234,181.5487c-0.11012,0.85108 -0.71078,1.541 -1.34162,1.541c-0.63084,0 -1.05296,-0.68994 -0.94286,-1.541c0.11012,-0.85108 0.71078,-1.541 1.34162,-1.541c0.63084,0 1.05296,0.68992 0.94286,1.541z" fill="#ffffff" stroke="#000000" stroke-width="0" stroke-linecap="butt"/><path d="M241.33593,181.5487c-0.06419,0.49609 -0.41432,0.89825 -0.78204,0.89825c-0.36772,0 -0.61378,-0.40216 -0.5496,-0.89825c0.06419,-0.49609 0.41432,-0.89825 0.78204,-0.89825c0.36772,0 0.61378,0.40216 0.5496,0.89825z" fill="#000000" stroke="#000000" stroke-width="0" stroke-linecap="butt"/><path d="M238.45473,187.89325c-0.55239,-0.59766 -0.79152,-2.02279 -0.79152,-2.02279l4.88106,-2.85827l-2.24265,5.84848c0,0 -1.2945,-0.36974 -1.84689,-0.96742z" fill="#ffffff" stroke="#000000" stroke-width="0" stroke-linecap="butt"/><path d="M235.42056,187.67339c-2.19381,-1.16748 -2.59443,-2.94623 -2.59443,-2.94623l4.79312,1.14331c0,0 0.70863,1.2748 1.06291,1.70125c0.42448,0.51094 1.5755,1.28894 1.5755,1.28894c0,0 -2.64327,-0.01981 -4.83708,-1.18728z" fill="#d9d9d9" stroke="none" stroke-width="0" stroke-linecap="butt"/><path d="M235.46454,187.76134l-0.30782,-2.28663l2.50649,2.99019" fill="none" stroke="#091952" stroke-width="0.25" stroke-linecap="round"/><path d="M239.81792,188.77273l-1.05536,-3.6498l2.68239,1.23126l-0.35178,-2.55047" fill="none" stroke="#1e2f51" stroke-width="0.25" stroke-linecap="round"/><path d="M239.5101,175.71258l2.06675,-1.58305l1.84689,0.43974l-1.09934,2.02279z" fill="#020614" stroke="#1e2f51" stroke-width="0" stroke-linecap="butt"/></g></g></svg>