<svg version="1.1" xmlns="http://www.w3.org/2000/svg" xmlns:xlink="http://www.w3.org/1999/xlink" width="109.56844" height="139.66667" viewBox="0,0,109.56844,139.66667"><defs><linearGradient x1="240.00005" y1="112.66666" x2="240.00005" y2="247.33333" gradientUnits="userSpaceOnUse" id="color-1"><stop offset="0" stop-color="#00c1ff"/><stop offset="1" stop-color="#0066ff"/></linearGradient></defs><g transform="translate(-185.33339,-110.16666)"><g data-paper-data="{&quot;isPaintingLayer&quot;:true}" fill-rule="nonzero" stroke-linecap="butt" stroke-linejoin="miter" stroke-miterlimit="10" stroke-dasharray="" stroke-dashoffset="0" style="mix-blend-mode: normal"><path d="M187.83339,232.29545c0,-15.63404 0,-74.95098 0,-103.75c0,-9.65412 8.39549,-15.87879 15.8009,-15.87879c12.13701,0 49.90994,0 72,0c9.81391,0 16.53243,6.23632 16.53243,15.87879c0,29.62295 0,91.39311 0,103.25c0,7.61017 -6.49271,15.53788 -16.03243,15.53788c-21.93761,0 -59.9884,0 -72.25,0c-7.50185,0 -16.0509,-7.6367 -16.0509,-15.03788z" fill="none" stroke="url(#color-1)" stroke-width="5"/><path d="M261.90183,127.01691c0,-9.1127 7.3873,-16.5 16.5,-16.5c9.1127,0 16.5,7.3873 16.5,16.5c0,9.1127 -7.3873,16.5 -16.5,16.5c-9.1127,0 -16.5,-7.3873 -16.5,-16.5z" fill="#00c1ff" stroke="none" stroke-width="0"/><path d="M265.23515,127.01691c0,-7.27175 5.89492,-13.16667 13.16667,-13.16667c7.27175,0 13.16667,5.89492 13.16667,13.16667c0,7.27175 -5.89492,13.16667 -13.16667,13.16667c-7.27175,0 -13.16667,-5.89492 -13.16667,-13.16667z" fill="#ffffff" stroke="none" stroke-width="0"/><text transform="translate(268.94551,133.0169) scale(0.42777,0.42777)" font-size="40" xml:space="preserve" fill="#0066ff" fill-rule="nonzero" stroke="none" stroke-width="1" stroke-linecap="butt" stroke-linejoin="miter" stroke-miterlimit="10" stroke-dasharray="" stroke-dashoffset="0" font-family="Sans Serif" font-weight="normal" text-anchor="start" style="mix-blend-mode: normal"><tspan x="0" dy="0">P1</tspan></text></g></g></svg>