<svg version="1.1" xmlns="http://www.w3.org/2000/svg" xmlns:xlink="http://www.w3.org/1999/xlink" width="106.03623" height="136.7567" viewBox="0,0,106.03623,136.7567"><defs><linearGradient x1="240.00001" y1="112.56667" x2="240.00001" y2="247.23334" gradientUnits="userSpaceOnUse" id="color-1"><stop offset="0" stop-color="#808200"/><stop offset="1" stop-color="#4d4500"/></linearGradient><linearGradient x1="256.68059" y1="218.46804" x2="267.94186" y2="216.8813" gradientUnits="userSpaceOnUse" id="color-2"><stop offset="0" stop-color="#008c4d"/><stop offset="1" stop-color="#006638"/></linearGradient><linearGradient x1="241.32806" y1="179.04477" x2="241.32806" y2="223.75399" gradientUnits="userSpaceOnUse" id="color-3"><stop offset="0" stop-color="#b100c6"/><stop offset="1" stop-color="#9900aa"/></linearGradient><linearGradient x1="233.02081" y1="222.39932" x2="230.02678" y2="233.37065" gradientUnits="userSpaceOnUse" id="color-4"><stop offset="0" stop-color="#008c4d"/><stop offset="1" stop-color="#006638"/></linearGradient><radialGradient cx="221.53532" cy="167.81476" r="11.09668" gradientUnits="userSpaceOnUse" id="color-5"><stop offset="0" stop-color="#fbc5fc"/><stop offset="1" stop-color="#f991fd"/></radialGradient><linearGradient x1="239.99999" y1="219.82727" x2="239.99999" y2="247.43333" gradientUnits="userSpaceOnUse" id="color-6"><stop offset="0" stop-color="#ffffff"/><stop offset="1" stop-color="#e5e5e5"/></linearGradient></defs><g transform="translate(-187.83333,-112.56667)"><g data-paper-data="{&quot;isPaintingLayer&quot;:true}" fill-rule="nonzero" stroke-linejoin="miter" stroke-miterlimit="10" stroke-dasharray="" stroke-dashoffset="0" style="mix-blend-mode: normal"><path d="M187.83334,232.19546c0,-15.63404 0,-74.95098 0,-103.75c0,-9.65412 8.39549,-15.87879 15.8009,-15.87879c12.13701,0 49.90994,0 72,0c9.81391,0 16.53243,6.23632 16.53243,15.87879c0,29.62295 0,91.39311 0,103.25c0,7.61017 -6.49271,15.53788 -16.03243,15.53788c-21.93761,0 -59.9884,0 -72.25,0c-7.50185,0 -16.0509,-7.6367 -16.0509,-15.03788z" fill="url(#color-1)" stroke="none" stroke-width="0" stroke-linecap="butt"/><g><g data-paper-data="{&quot;origPos&quot;:null,&quot;origRot&quot;:0,&quot;index&quot;:null}" stroke-width="0" stroke-linecap="round"><path d="M257.00348,220.62908c-0.83521,-5.92753 -1.88743,-12.0823 -1.41016,-14.40051c0.47727,-2.3182 4.12263,-3.44002 5.23792,-3.6506c0.45337,-0.0856 1.85347,0.65762 2.10927,0.7586c0.84871,0.335 1.99748,-0.0141 3.54252,5.76285c1.54504,5.77695 2.02755,13.28525 2.13775,15.17175c0.11019,1.8865 0.06431,2.98841 -0.97767,4.68863c-1.04199,1.70022 -2.76409,2.65096 -3.90654,3.28097c-1.14244,0.63001 -2.2637,1.16154 -3.18769,0.63118c-0.92399,-0.53034 -0.48824,-0.89907 -0.37725,-2.67737c0.111,-1.7783 0.88543,-3.87594 0.82432,-4.48499c-0.06111,-0.60905 -1.50399,-1.22433 -1.58908,-1.32729c-0.25527,-0.30887 -1.03127,-1.00533 -1.46055,-1.67567c-0.36539,-0.57059 -0.90469,-1.80668 -0.94285,-2.07758z" data-paper-data="{&quot;origPos&quot;:null}" fill="url(#color-2)" stroke="#000000"/><path d="M253.71686,206.34734c1.78162,0.69846 1.92863,1.02812 2.67248,2.17193c0.74386,1.14381 2.00675,3.08597 2.20758,5.33203c0.20083,2.24606 -0.46293,3.29146 -1.2592,5.27441c-0.79628,1.98295 -0.86451,1.71835 -1.84009,2.44369c-0.97558,0.72534 -2.5103,1.38203 -3.59741,1.5991c-1.51085,0.30168 -7.38528,3.86157 -9.357,0.77233c-1.97171,-3.08925 -3.58421,-17.53846 -1.62254,-17.97488c1.77361,-0.39457 3.91243,-0.5131 7.95422,-0.39263c4.04178,0.12047 3.06036,0.07556 4.84197,0.77402z" data-paper-data="{&quot;origPos&quot;:null}" fill="#9900aa" stroke="#b100c6"/></g><g data-paper-data="{&quot;origRot&quot;:0,&quot;index&quot;:null}" stroke-width="0" stroke-linecap="butt"><g data-paper-data="{&quot;origPos&quot;:null}" stroke="none"><path d="M207.36459,193.88186c-2.7687,-4.95315 -5.69687,-7.38366 -3.02478,-8.87731c5.58775,-3.12345 7.98695,-5.65904 9.29183,-4.93884c1.67743,0.92582 8.08234,13.51251 8.78209,15.29611c0.83657,2.13227 -6.57171,3.89899 -9.2438,5.39263c-2.6721,1.49365 -3.03663,-1.91946 -5.80535,-6.8726z" data-paper-data="{&quot;origRot&quot;:0,&quot;origPos&quot;:null}" fill="#ffdebd"/><path d="M217.04216,189.39064c-2.7687,-4.95315 -7.14585,-7.52706 -5.2529,-8.7951c5.58776,-3.12345 12.16335,-0.95711 14.47999,2.28501c1.67742,0.92583 1.06921,4.84669 1.17434,6.52098c0.83657,2.13227 -1.47976,4.95793 -4.15185,6.45158c-2.67208,1.49364 -3.48085,-1.50932 -6.24956,-6.46247z" data-paper-data="{&quot;origRot&quot;:0,&quot;origPos&quot;:null}" fill="#fff70c"/></g><g data-paper-data="{&quot;origPos&quot;:null}"><path d="M208.01035,181.83359c4.34581,-3.5315 6.27559,0.25603 9.24205,3.90652c2.96645,3.65048 1.84826,9.47263 -2.49755,13.00412c-4.3458,3.5315 -7.48494,4.3165 -10.4514,0.66601c-1.65951,-2.04217 -5.29329,-6.96986 -4.47771,-9.4717c1.49653,-4.59076 4.43734,-5.05984 8.18461,-8.10495z" data-paper-data="{&quot;origPos&quot;:null,&quot;origRot&quot;:0}" fill="#ffdebd" stroke="#ffdebd"/><g data-paper-data="{&quot;origPos&quot;:null,&quot;origRot&quot;:0}" fill="#ffffff" stroke="none"><path d="M208.057,172.45208c4.29692,6.22569 1.76499,6.87303 -3.21044,11.57236c-4.97543,4.69934 -8.76085,8.63117 -13.39946,3.1061c-3.36515,-4.00823 -5.78876,-9.85654 0.10807,-13.33016c6.43479,-3.79053 11.89994,-8.01583 16.50181,-1.34831z" data-paper-data="{&quot;origRot&quot;:0,&quot;origPos&quot;:null}"/><path d="M208.08327,188.80807c-3.84609,3.6231 -7.5276,8.50701 -10.07175,5.33477c-2.84611,-3.54878 -1.6595,-4.29458 4.77188,-10.05997c7.32653,-6.56786 7.25059,-8.90553 10.55934,-5.16765c1.93207,2.18266 -1.41338,6.26977 -5.25947,9.89285z" data-paper-data="{&quot;origRot&quot;:0,&quot;origPos&quot;:null}"/></g></g></g><g data-paper-data="{&quot;origPos&quot;:null,&quot;index&quot;:null}"><path d="M250.55023,179.97989c15.39835,0 18.36694,14.04947 19.02653,20.82418c0.39706,18.49654 -13.29392,22.94993 -28.69226,22.94993c-15.39835,0 -27.81356,-4.17237 -27.81356,-13.04961c0,-9.63033 0.52565,-22.97456 9.14634,-29.10406c6.42268,-4.56666 20.00582,-1.62045 28.33295,-1.62045z" data-paper-data="{&quot;origPos&quot;:null,&quot;index&quot;:null}" fill="url(#color-3)" stroke="none" stroke-width="0" stroke-linecap="butt"/><path d="M266.87294,191.34072c1.47858,10.38509 -15.51415,10.39672 -17.06585,9.97161c-2.96079,-0.81114 -9.64762,-3.72666 -11.86105,-4.66778c-4.93664,-2.099 -24.90933,-0.61159 -24.90933,-0.61159c0,0 4.29205,-12.96358 8.63981,-16.05492c6.42268,-4.56666 17.57239,-2.97236 25.89952,-2.97236c15.39835,0 18.63732,7.56031 19.29691,14.33503z" data-paper-data="{&quot;origPos&quot;:null,&quot;index&quot;:null}" fill="#fff70c" stroke="none" stroke-width="0" stroke-linecap="butt"/><path d="M245.37887,199.15909l0.81114,-19.19709" data-paper-data="{&quot;origPos&quot;:null}" fill="none" stroke="#b100c6" stroke-width="10" stroke-linecap="round"/><path d="M245.37887,195.37375c2.09059,0 3.78534,1.69476 3.78534,3.78534c0,2.09059 -1.69476,3.78534 -3.78534,3.78534c-2.09059,0 -3.78534,-1.69476 -3.78534,-3.78534c0,-2.09059 1.69476,-3.78534 3.78534,-3.78534z" data-paper-data="{&quot;origPos&quot;:null}" fill="#f3f3f3" stroke="none" stroke-width="0" stroke-linecap="butt"/><path d="M216.43541,197.67049l5.25005,-12.8281l4.23857,-6.09562" data-paper-data="{&quot;origPos&quot;:null,&quot;origRot&quot;:0}" fill="none" stroke="#b100c6" stroke-width="7.5" stroke-linecap="round"/><path d="M216.8369,192.66995c2.09059,0 3.78534,1.69476 3.78534,3.78534c0,2.09059 -1.69476,3.78534 -3.78534,3.78534c-2.09059,0 -3.78534,-1.69476 -3.78534,-3.78534c0,-2.09059 1.69476,-3.78534 3.78534,-3.78534z" data-paper-data="{&quot;origPos&quot;:null}" fill="#f3f3f3" stroke="none" stroke-width="0" stroke-linecap="butt"/></g><g data-paper-data="{&quot;origPos&quot;:null,&quot;origRot&quot;:0,&quot;index&quot;:null}" stroke-width="0" stroke-linecap="round"><path d="M230.90814,221.84164c5.7749,1.57595 11.84434,3.04238 13.78507,4.39716c1.94073,1.35477 1.53018,5.14669 1.28274,6.25438c-0.10059,0.45029 -1.33673,1.44255 -1.5306,1.63761c-0.64322,0.64717 -0.77665,1.84037 -6.69384,0.97597c-5.91719,-0.86439 -13.00471,-3.38919 -14.78112,-4.03369c-1.77641,-0.6445 -2.77044,-1.12223 -3.92029,-2.75144c-1.14985,-1.62921 -1.34241,-3.58687 -1.4695,-4.88532c-0.12709,-1.29845 -0.1721,-2.53848 0.6803,-3.17757c0.85241,-0.63909 1.01884,-0.09309 2.60843,0.71183c1.58959,0.80492 3.21025,2.34547 3.79385,2.53009c0.5836,0.18462 1.71914,-0.89752 1.84734,-0.93498c0.38463,-0.11239 1.33111,-0.54988 2.11654,-0.6792c0.66856,-0.11008 2.01714,-0.11684 2.28107,-0.04481z" data-paper-data="{&quot;origPos&quot;:null}" fill="url(#color-4)" stroke="#000000"/><path d="M245.32586,224.46826c-1.34584,1.36041 -1.70676,1.36514 -3.05146,1.59626c-1.34469,0.23113 -3.62789,0.62344 -5.7704,-0.07995c-2.14251,-0.70338 -2.84039,-1.72632 -4.34707,-3.2416c-1.50669,-1.51528 -1.23665,-1.47335 -1.51728,-2.65621c-0.28063,-1.18285 -0.27716,-2.85217 -0.04681,-3.93654c0.32013,-1.50704 -0.62769,-8.31024 2.98936,-8.9002c3.61706,-0.58996 17.52685,3.64059 17.15227,5.615c-0.33866,1.78513 -1.07526,3.79662 -2.78361,7.46159c-1.70835,3.66497 -1.27916,2.78123 -2.625,4.14164z" data-paper-data="{&quot;origPos&quot;:null}" fill="#9900aa" stroke="#b100c6"/></g><g data-paper-data="{&quot;origRot&quot;:0,&quot;index&quot;:null}" stroke-linecap="butt"><g data-paper-data="{&quot;origPos&quot;:null}" stroke="none" stroke-width="0"><path d="M277.91385,186.20729c2.7688,1.30568 0.01535,3.93249 -2.40493,9.06489c-2.42028,5.13241 -2.54841,8.56254 -5.31721,7.25686c-2.7688,-1.30568 -10.28134,-2.55691 -9.59392,-4.74184c0.575,-1.82764 6.09601,-14.82634 7.70554,-15.86571c1.25207,-0.80854 3.82053,1.55543 9.61052,4.28581z" data-paper-data="{&quot;origRot&quot;:0,&quot;origPos&quot;:null}" fill="#ffdebd"/><path d="M270.17787,182.3229c1.97596,1.13439 -2.21311,4.00426 -4.63339,9.13666c-2.42029,5.13241 -3.01988,8.18405 -5.78868,6.87837c-2.7688,-1.30568 -5.27462,-3.96474 -4.5872,-6.14968c-0.01066,-1.67755 -0.88802,-5.5471 0.72151,-6.58647c2.08736,-3.39427 8.49777,-6.00925 14.28776,-3.27887z" data-paper-data="{&quot;origRot&quot;:0,&quot;origPos&quot;:null}" fill="#fff70c"/></g><g data-paper-data="{&quot;origPos&quot;:null}"><path d="M274.03322,183.29722c3.94848,2.77924 6.91465,3.04426 8.72445,7.52078c0.98629,2.43959 -2.29876,7.60632 -3.81337,9.75814c-2.70746,3.84651 -5.89329,3.28002 -10.47246,0.05686c-4.57916,-3.22317 -6.09649,-8.95426 -3.38903,-12.80077c2.70745,-3.84651 4.37124,-7.75818 8.95041,-4.53502z" data-paper-data="{&quot;origPos&quot;:null,&quot;origRot&quot;:0}" fill="#ffdebd" stroke="#ffdebd" stroke-width="0"/><g data-paper-data="{&quot;origPos&quot;:null,&quot;origRot&quot;:0}" fill="#ffffff" stroke="none" stroke-width="0"><path d="M273.33926,173.94132c4.13076,-6.96921 9.87449,-3.13115 16.55552,0.20626c6.12249,3.05839 4.10827,9.06002 1.02777,13.29093c-4.24626,5.832 -8.29399,2.17079 -13.58188,-2.17398c-5.28788,-4.34477 -7.85846,-4.81583 -4.00142,-11.32322z" data-paper-data="{&quot;origRot&quot;:0,&quot;origPos&quot;:null}"/><path d="M268.51215,180.75382c3.0429,-3.95731 3.12847,-1.61997 10.8908,4.4266c6.81392,5.3078 8.04918,5.96994 5.45476,9.70667c-2.31914,3.34025 -6.32894,-1.27794 -10.4159,-4.62698c-4.08696,-3.34904 -7.70651,-7.19552 -5.92966,-9.5063z" data-paper-data="{&quot;origRot&quot;:0,&quot;origPos&quot;:null}"/></g><path d="M287.00942,188.16345c-0.71465,0.81177 -1.52642,0.09712 -1.52642,0.09712l-0.17118,-1.83303c0.19984,-0.92499 0.3997,-1.84998 0.59955,-2.77497c0.19985,-0.92499 0.3997,-1.84998 0.59956,-2.77497c0.04284,-0.19831 0.24653,-0.35755 0.23786,-0.56026c-0.00133,-0.03119 -0.01036,-0.06502 -0.02398,-0.10021c-0.22882,0.10019 -0.44308,0.23769 -0.65533,0.3991c-1.06605,0.81075 -1.72582,1.38663 -3.12966,1.42613c-2.10478,0.05923 -1.81091,-1.86086 -1.54326,-3.09964c0.11829,-0.45757 0.86058,-1.71895 0.84475,-2.08885c-0.00446,-0.1041 -0.0934,-0.23466 -0.15295,-0.3481c-0.57634,0.08646 -1.46768,0.23759 -1.97044,0.45351c-0.68991,0.2963 -1.33022,0.82533 -1.9392,1.37495l0.0506,0.06216l-1.33488,1.0867c-0.10356,0.0858 -0.22262,0.15199 -0.35087,0.19455c-0.30418,0.11384 -0.76169,0.15597 -1.16664,-0.32988c-0.00704,-0.00838 -0.01396,-0.01684 -0.02074,-0.02541c-0.39562,-0.49487 -0.26343,-0.93447 -0.09066,-1.21003c0.05332,-0.09298 0.11967,-0.17642 0.19609,-0.24839l0.68926,-0.66835l0.05408,0.05577c1.64471,-1.34904 3.14082,-2.51849 5.40118,-2.84909c1.30181,-0.1904 2.68447,0.27711 2.73055,1.91465c0.03385,1.203 -0.719,1.98847 -0.82583,3.08261c-0.03807,0.17619 -0.07614,0.35237 -0.1142,0.52856c0.24459,-0.01046 0.46014,-0.17236 0.67446,-0.29071c0.57555,-0.31783 2.18356,-2.38369 3.15674,-1.80754c2.53772,1.50241 1.28989,4.00201 0.79781,6.27953c-0.19984,0.92499 -0.3997,1.84998 -0.59955,2.77497c0,0 0.29798,0.46732 -0.41667,1.27909z" data-paper-data="{&quot;origPos&quot;:null}" fill="#0052ef" stroke="none" stroke-width="0.5"/></g></g><g data-paper-data="{&quot;origPos&quot;:null,&quot;index&quot;:null}"><path d="M236.91511,163.4692l17.84518,2.16305l-3.9656,14.78086l-1.44203,2.52356l-1.98279,0.72102l-22.89231,-2.34331l4.14585,-14.96111l-1.26178,-2.88407z" data-paper-data="{&quot;origPos&quot;:null}" fill="#a10114" stroke="#a10114" stroke-width="0.5" stroke-linecap="round"/><path d="M252.56752,176.16651c-0.63291,2.66351 -4.5222,4.02044 -8.68695,3.0308c-4.16476,-0.98965 -7.02788,-3.95111 -6.39497,-6.61462c0.63291,-2.66351 4.5222,-4.02044 8.68695,-3.0308c4.16476,0.98965 7.02788,3.95111 6.39497,6.61462z" data-paper-data="{&quot;origPos&quot;:null,&quot;origRot&quot;:0}" fill="#f4c4f6" stroke="none" stroke-width="0" stroke-linecap="butt"/><g data-paper-data="{&quot;origPos&quot;:null}" stroke-linecap="round"><path d="M220.51196,181.13413l0.54076,-3.96559l0.72102,-1.62229l1.62229,-1.26178l3.60509,0.18026l21.63053,2.70382l-2.52356,5.58788z" data-paper-data="{&quot;origPos&quot;:null}" fill="#ffffff" stroke="#000000" stroke-width="0"/><path d="M227.36163,174.82523l-2.52356,5.40763" data-paper-data="{&quot;origPos&quot;:null}" fill="none" stroke="#a5b5ff" stroke-width="1.5"/><path d="M232.00842,180.80039l1.52169,-5.1007" data-paper-data="{&quot;origPos&quot;:null,&quot;origRot&quot;:0}" fill="none" stroke="#a5b5ff" stroke-width="1.5"/><path d="M240.11987,181.70167l1.52169,-5.10071" data-paper-data="{&quot;origPos&quot;:null,&quot;origRot&quot;:0}" fill="none" stroke="#a5b5ff" stroke-width="1.5"/></g><g data-paper-data="{&quot;origPos&quot;:null}"><path d="M254.50041,163.70196c2.65131,-0.53026 3.18157,2.12105 3.18157,2.12105c0,0 0.03332,4.60782 -0.32191,6.13992c-0.99815,4.30492 -1.97697,8.31788 -4.62765,11.96514c-2.35491,3.13988 -5.57382,5.65986 -9.42443,6.58756c-1.36291,0.32836 -11.15409,0.667 -13.07509,-0.29179c-0.54725,-0.27314 -1.04713,-0.63435 -1.58579,-0.92354c-0.16095,0.03227 -0.35915,0.06101 -0.46159,0.11239c-0.34162,0.17136 -0.60949,0.47888 -0.96498,0.61922c-1.38643,0.54735 -2.62968,0.6557 -4.09492,0.6557c-0.45063,0 -1.00395,0.28636 -1.35191,0c-1.02579,-0.8442 -1.85767,-1.89967 -2.7865,-2.84951c-0.44311,-2.21554 -0.79462,-7.31281 1.97535,-8.23614c0.74662,-0.24888 4.33375,-0.04503 5.33028,0.19338c1.23754,0.29607 12.84935,1.42891 16.02987,1.42891c0.82797,0 1.8982,0.17838 2.70382,0c0.10972,-0.02429 2.40901,-1.49485 0.79089,-0.71515c0.41136,-0.68561 6.25295,-12.87082 6.42673,-13.73976c0.0307,-0.15349 0.39089,-2.69431 2.25624,-3.06739z" data-paper-data="{&quot;origPos&quot;:null}" fill="#ffdebd" stroke="none" stroke-width="0.5" stroke-linecap="butt"/><path d="M227.90239,189.24557l-1.08153,-1.08153v-1.62229v-1.44203l0.90127,-1.98279" data-paper-data="{&quot;origPos&quot;:null}" fill="none" stroke="#f6b09a" stroke-width="1.5" stroke-linecap="round"/></g></g><g data-paper-data="{&quot;origPos&quot;:null,&quot;index&quot;:null}"><path d="M217.72846,151.52187c4.29405,0 12.70924,-0.42995 12.70924,1.54118c0,1.97113 1.06441,5.62394 -3.22964,5.62394c-5.32892,0 -12.10044,-2.59929 -12.44011,-4.65056c-0.21986,-1.32777 -1.33354,-2.51455 2.96051,-2.51455z" data-paper-data="{&quot;origPos&quot;:null}" fill="#b49416" stroke="none" stroke-width="0" stroke-linecap="butt"/><path d="M224.7799,159.52306l-6.12865,-2.88407l-2.52356,-1.80254l-0.54076,-2.16305" data-paper-data="{&quot;origPos&quot;:null}" fill="none" stroke="#a5b5ff" stroke-width="4.5" stroke-linecap="round"/><path d="M261.75094,168.1602c0.61502,-0.13884 1.4332,1.4869 1.4332,1.4869c0,1.20008 0.52001,4.19219 -0.23884,5.18031c-0.83049,1.08139 -2.60851,0.95476 -3.16797,1.95776c-0.05558,0.09964 -0.26076,1.28409 -0.28191,1.31886c-1.44289,1.68336 -4.95196,1.61632 -5.40162,-0.91145c-0.52089,-2.92814 1.76548,-6.14731 4.07341,-7.75314c1.25363,-0.78352 2.04463,-1.26817 3.58373,-1.27926z" data-paper-data="{&quot;origPos&quot;:null}" fill="#8e4108" stroke="none" stroke-width="0.5" stroke-linecap="butt"/><path d="M247.24063,180.48301c0,0 1.11553,-4.46745 1.76152,-5.35378c0.13337,-0.18299 -0.48508,-0.83789 -0.66922,-0.80307c-1.42661,0.2698 -3.32861,0.0011 -4.76795,-0.08894c-5.77263,-0.37243 -11.5343,-0.31259 -17.31637,-0.31259c-1.20054,0 -4.6556,-0.19988 -4.95157,-0.54202c-0.65374,-0.75572 -1.49749,-1.96666 -1.3357,-3.11026c0.30551,-2.15961 3.20315,-13.46455 4.01938,-15.01527c0.22298,-0.42362 0.31001,-0.97334 0.69635,-1.25603c2.68877,-1.96745 21.70177,-0.1812 25.35754,1.28111c1.34963,0.53985 3.46483,1.83549 4.92511,1.86331c0.16495,0.00314 0.83884,-1.02607 1.18528,-1.29251c0.91516,-0.70385 1.93134,-0.92886 3.0676,-1.24002c2.34092,-0.64106 5.82902,-0.63379 6.9376,-0.8442c0.23562,-0.04472 7.20367,-0.62096 7.20367,-0.62096c0,0 0.60259,1.80076 0.10181,4.10325c-0.61757,2.83948 -2.27986,5.36384 -4.05655,7.65778c-1.12828,1.45064 -2.54435,2.83293 -4.22106,3.62747c-0.90263,0.42773 -1.88643,0.81333 -2.82981,1.14346c-0.4771,0.16696 -1.06001,0.40245 -1.06205,0.53588c-0.00808,0.53126 -0.86274,1.44363 -1.07576,1.94984c-0.49335,1.17236 -0.81624,2.27564 -1.52865,3.37162c-0.99329,1.48993 -3.66283,4.84188 -3.66283,4.84188z" data-paper-data="{&quot;origPos&quot;:null}" fill="#ffdebd" stroke="none" stroke-width="0.5" stroke-linecap="butt"/><path d="M234.92926,162.74073l0.8447,-6.12596c0,0 10.48799,0.167 12.99883,0.167c1.08505,0 0.43261,6.26381 -1.40598,7.07278c-2.11473,0.93046 -4.9715,-1.39228 -8.43591,-1.39228c-3.4644,0 -4.00165,0.27846 -4.00165,0.27846z" data-paper-data="{&quot;origPos&quot;:null}" fill="#ffffff" stroke="#f6b09a" stroke-width="0" stroke-linecap="butt"/><path d="M227.56049,160.2378c-3.4644,0 -1.12985,0.09234 -3.24458,-0.81114c-1.83859,-0.78551 1.51414,-4.81279 1.51414,-4.81279c0,0 2.35842,0.38303 3.80586,1.13567c1.39001,0.72278 2.35884,3.13636 2.35884,3.13636c0,0 -0.96986,1.35191 -4.43426,1.35191z" data-paper-data="{&quot;index&quot;:null,&quot;origPos&quot;:null}" fill="#ffffff" stroke="#f6b09a" stroke-width="0" stroke-linecap="butt"/><path d="M247.31212,163.47663l0.55003,-0.92842c1.06674,-1.70678 0.93768,-3.12297 0.93768,-5.12238c0,0 0,-0.94634 0.94634,-0.94634c0.94634,0 0.94634,0.94634 0.94634,0.94634c0,2.33161 0.05074,4.08372 -1.22537,6.12549l-0.31519,0.36941c0,0 -0.22205,0.91991 -1.14196,0.69787c-0.91992,-0.22205 -0.69787,-1.14196 -0.69787,-1.14196z" data-paper-data="{&quot;origPos&quot;:null}" fill="#18c6ff" stroke="none" stroke-width="0.5" stroke-linecap="butt"/><path d="M256.09085,157.20608c0.00929,0.0682 0.00929,0.11159 0.00929,0.11159l-0.0083,-0.00141c0.0146,0.16024 -0.00697,0.27884 -0.00697,0.27884c-0.32269,1.77478 -0.85716,3.43127 -1.4477,5.12914c-0.00575,0.01653 -0.42326,1.27316 -0.4242,1.27369c-3.00758,1.70745 -3.68046,-2.25663 -3.79086,-4.35498c0,-1.80399 -1.08381,-2.97608 0.16824,-4.66608c0.45649,-0.61615 1.29182,-0.51471 1.96778,-0.55228c2.07096,-0.1151 3.82757,0.15901 3.53621,2.78128l-0.0035,0.00021z" data-paper-data="{&quot;origPos&quot;:null}" fill="#8e4108" stroke="none" stroke-width="0.5" stroke-linecap="butt"/><path d="M223.05289,159.78954c-0.85185,-0.42062 -0.43966,-1.28991 -0.43966,-1.28991l-0.04592,-0.65732c0.3939,-1.20586 1.0018,-2.01973 1.80155,-2.97187c0,0 0.61586,-0.73322 1.33438,-0.10475c0.71851,0.62847 0.10264,1.36168 0.10264,1.36168c-0.64545,0.76845 -1.13406,1.37983 -1.44303,2.32569l-0.04592,0.8878c0,0 -0.41219,0.86929 -1.26404,0.44867z" data-paper-data="{&quot;origPos&quot;:null}" fill="#18c6ff" stroke="none" stroke-width="0.5" stroke-linecap="butt"/><path d="M223.20452,139.4221c1.02929,-5.80358 7.50619,-7.29096 16.59399,-5.72415c7.05968,1.21715 13.75678,11.06931 13.75678,11.06931c1.66288,-2.30929 6.477,-3.03074 6.477,-3.03074c4.37436,0 8.41887,0.0288 8.02016,7.45537c-0.18076,3.36688 -2.64899,6.19359 -7.02335,6.19359c-2.13875,0 -7.14078,1.86758 -9.1033,1.09892c-7.47421,-2.92741 -16.62725,-2.16425 -23.6246,-5.93402c-4.80231,-2.58721 -6.52995,-3.04678 -5.09666,-11.12828z" data-paper-data="{&quot;origPos&quot;:null}" fill="#fff70c" stroke="none" stroke-width="0" stroke-linecap="butt"/><path d="M232.69929,139.3778c3.97211,0 7.19215,2.30002 7.19215,5.13725c0,2.83723 -3.22004,5.13725 -7.19215,5.13725c-3.97212,0 -7.19215,-2.30002 -7.19215,-5.13725c0,-2.83723 3.22003,-5.13725 7.19215,-5.13725z" data-paper-data="{&quot;origPos&quot;:null}" fill="#ffffff" stroke="none" stroke-width="0" stroke-linecap="butt"/><path d="M241.13194,138.83382c0.00887,1.20461 -0.58292,1.38035 -0.58292,1.38035c-0.50692,0.92416 -1.01384,1.84832 -1.52077,2.77248c-1.24814,2.27547 -2.02247,5.28937 -5.25423,4.70143c-1.23934,-0.22547 -1.08464,-3.13728 -1.33695,-3.82476c-0.09395,-0.25599 -0.15717,-0.54952 -0.35534,-0.73684c-0.09656,0.17603 -0.19311,0.35206 -0.28967,0.52809c-0.70864,0.99859 -0.64843,2.20895 -1.55489,3.19647c-1.23389,1.34422 -2.73848,0.72849 -3.69488,-0.38179c-1.66064,-1.92783 -2.06598,-4.00372 -2.46531,-6.33917l-0.08621,0.00746l-0.09218,-1.0654c-0.01178,-0.11632 -0.00671,-0.23496 0.01629,-0.3521c0.05574,-0.35795 0.26534,-0.82432 0.95939,-0.95198c0.01196,-0.00226 0.02396,-0.00434 0.03599,-0.00624c0.69531,-0.11327 1.04953,0.25608 1.22239,0.57387c0.07685,0.12941 0.12872,0.272 0.15324,0.41977l0.3301,1.8886l-0.08794,0.01537c0.11128,0.9069 0.26395,1.81935 0.62821,2.57218c0.26545,0.54861 0.90514,1.32629 1.32698,1.81967c0.1329,-0.05199 0.30302,-0.09693 0.38274,-0.18127c0.28328,-0.29968 0.5793,-1.90277 0.81371,-2.37411c0.67889,-1.23767 1.83295,-3.06774 3.56071,-1.48178c1.15238,1.05779 1.28723,2.02384 1.59252,3.48406c0.06079,0.29073 0.14071,0.56278 0.26012,0.81409c0.03713,-0.01967 0.06942,-0.04155 0.09331,-0.06682c0.15524,-0.16422 0.10007,-0.44687 0.20875,-0.645c0.50692,-0.92416 1.01384,-1.84832 1.52076,-2.77248c0.50692,-0.92416 1.01384,-1.84832 1.52076,-2.77248l1.48182,-1.41741c0,0 1.20461,-0.00887 1.21348,1.19574z" data-paper-data="{&quot;origPos&quot;:null,&quot;origRot&quot;:0}" fill="#0052ef" stroke="none" stroke-width="0.5" stroke-linecap="butt"/><path d="M214.52873,152.90081c-0.44218,-1.71611 5.22488,-5.37498 9.08957,-5.4284c9.45388,-0.13068 22.0961,2.77866 25.77859,3.86018c3.04729,0.89497 4.28267,3.63744 4.72485,5.35356c0.11962,0.46423 -6.32452,0.69392 -9.5095,0.37853c-6.55328,-0.64892 -29.96389,-3.69964 -30.08351,-4.16388z" data-paper-data="{&quot;origPos&quot;:null}" fill="#ffd412" stroke="none" stroke-width="0" stroke-linecap="butt"/><path d="M264.63414,159.46508l-0.55879,3.38878c0,0 -0.65593,1.35692 -1.9828,1.62229c-1.32687,0.26537 -2.98907,-0.31141 -3.42483,-0.54076c-0.43576,-0.22934 -0.57064,-0.328 0,-1.26178c0.57064,-0.93378 0.55702,-1.20511 1.98279,-1.9828c1.42578,-0.77769 3.9656,-1.26178 3.9656,-1.26178l3.60508,-1.80254" data-paper-data="{&quot;origPos&quot;:null}" fill="none" stroke="#f6b09a" stroke-width="3" stroke-linecap="round"/><path d="M215.40666,152.67336l19.46747,1.26178l16.98898,3.33471" data-paper-data="{&quot;origPos&quot;:null}" fill="none" stroke="#ffffff" stroke-width="4.5" stroke-linecap="round"/><path d="M221.98595,153.98021l0.27038,-1.89267l2.16305,-0.54076l2.29824,0.13519l2.56863,1.08153l2.16305,2.29824l1.4871,0.54076l2.16305,0.40557l2.16305,-0.27038l2.29824,-1.35191l3.51496,-0.81114l2.70382,-0.40557l3.24458,0.13519l4.59649,0.40557l-0.54076,5.40763l-6.08359,-1.75748l-2.9742,-0.54076l-2.9742,0.13519l-3.78534,1.08153l-1.4871,0.67595h-3.65015l-1.35191,-1.21672l-1.62229,-1.89267l-1.75748,-0.40557l-2.9742,-0.27038v1.21672z" data-paper-data="{&quot;origPos&quot;:null}" fill="#000001" stroke="#ff0000" stroke-width="0" stroke-linecap="round"/><path d="M231.58651,154.4606c0.15753,-1.96349 1.4913,-0.91463 2.97906,-0.77025c1.48776,0.14438 2.56613,-0.67042 2.4086,1.29308c-0.15752,1.96349 -1.4913,3.43819 -2.97906,3.29381c-1.48776,-0.14438 -2.56613,-1.85315 -2.4086,-3.81664z" data-paper-data="{&quot;origPos&quot;:null,&quot;origRot&quot;:0}" fill="#ffdebd" stroke="#f6b09a" stroke-width="2.5" stroke-linecap="butt"/><path d="M231.41325,153.53859l3.13643,0.28841l2.73987,0.46866" data-paper-data="{&quot;origPos&quot;:null}" fill="none" stroke="#ffffff" stroke-width="4.5" stroke-linecap="round"/><g data-paper-data="{&quot;origPos&quot;:null,&quot;index&quot;:null}" stroke-linecap="round"><path d="M249.14524,171.59244l1.51426,0.49245l-1.83546,3.97746c0,0 -0.44707,1.1583 -0.65142,1.28951c-0.06811,0.04374 -5.63506,-0.1531 -5.63506,-0.1531l-22.0256,-2.27283l2.56965,-4.69719z" data-paper-data="{&quot;origPos&quot;:null}" fill="#ffffff" stroke="#000000" stroke-width="0"/><path d="M244.74013,172.35004l-2.56966,4.54567" data-paper-data="{&quot;origPos&quot;:null}" fill="none" stroke="#a5b5ff" stroke-width="1.5"/><path d="M237.43881,171.87296l-1.54949,4.28766" data-paper-data="{&quot;origPos&quot;:null,&quot;origRot&quot;:0}" fill="none" stroke="#a5b5ff" stroke-width="1.5"/><path d="M227.62973,175.40299l1.54949,-4.28767" data-paper-data="{&quot;origPos&quot;:null,&quot;origRot&quot;:0}" fill="none" stroke="#a5b5ff" stroke-width="1.5"/></g><path d="M216.53048,172.58065l0.54076,-0.43261l1.29783,-1.18968l1.18968,1.51414l0.97337,-1.40598l1.62229,-0.54076l1.51414,1.29783l1.62229,-2.0549l1.51414,0.10815l1.29783,1.51414l0.64892,-1.40598l1.08153,-0.75707l1.40598,-0.21631l2.0549,2.48751l3.13643,-2.81197l0.86522,0.10815l2.27121,2.48751l6.70546,-3.56904h1.29783l0.97337,2.59566l5.94839,-2.92012l1.18968,0.54076l-7.46253,9.19297l-1.40598,-0.21631l-2.81197,-3.35273l-4.00165,2.92012l-0.97337,-0.21631l-1.83859,-2.81197h-0.75707l-2.92012,2.70382h-0.97337l-1.73044,-2.81197l-1.62229,2.27121l-1.40598,0.10815l-1.62229,-2.70382l-1.62229,2.48751l-0.86522,0.32446l-1.29783,-0.54076l-0.32446,-1.83859l-1.51414,2.0549l-2.16305,0.10815l-0.32446,-1.40598l-0.54076,1.29783h-1.73044l-1.51414,-4.1098z" data-paper-data="{&quot;origPos&quot;:null}" fill="#000001" stroke="#ff0000" stroke-width="0" stroke-linecap="round"/><path d="M232.96343,165.09922c0.16252,-0.03338 0.27716,-0.03338 0.27716,-0.03338c0.82715,0 2.68056,-0.12055 3.2059,0.63746c1.08697,1.5684 1.28149,4.44789 -0.13145,5.96748c-2.01008,2.1618 -4.46393,1.88923 -7.00024,2.56178c-2.89972,0.57995 -6.2664,0.17642 -9.18705,-0.11564c-0.93826,-0.09382 -2.32324,-0.11792 -3.07138,-0.76594c-1.52685,-1.32251 -1.8917,-2.9908 -1.93135,-4.90537c0,-6.49579 8.2309,-8.51702 13.51908,-8.51702c1.57599,0 3.36784,0.7496 3.96386,2.35948c0.26981,0.72876 0.21535,1.88628 0.35546,2.81115z" data-paper-data="{&quot;origPos&quot;:null}" fill="url(#color-5)" stroke="none" stroke-width="0.5" stroke-linecap="butt"/><path d="M239.21967,159.37865c0.2992,0.24442 0.48425,0.5824 0.48425,0.95553c0,0.37313 -0.18505,0.7111 -0.48425,0.95553c-0.29926,0.24497 -0.71202,0.39638 -1.16805,0.39638c-0.45608,0 -0.86884,-0.15141 -1.16805,-0.39638c-0.29926,-0.24442 -0.48431,-0.5824 -0.48431,-0.95553c0,-0.37313 0.18505,-0.7111 0.48431,-0.95553c0.2992,-0.24497 0.71197,-0.39638 1.16805,-0.39638c0.45603,0 0.86879,0.15141 1.16805,0.39638z" fill="#000000" stroke="none" stroke-width="1.05702" stroke-linecap="butt"/><path d="M230.2107,157.95896c0.2992,0.24442 0.48425,0.5824 0.48425,0.95553c0,0.37313 -0.18505,0.7111 -0.48425,0.95553c-0.29926,0.24497 -0.71202,0.39638 -1.16805,0.39638c-0.45608,0 -0.86884,-0.15141 -1.16805,-0.39638c-0.29926,-0.24442 -0.48431,-0.5824 -0.48431,-0.95553c0,-0.37313 0.18505,-0.7111 0.48431,-0.95553c0.2992,-0.24497 0.71197,-0.39638 1.16805,-0.39638c0.45603,0 0.86879,0.15141 1.16805,0.39638z" fill="#000000" stroke="none" stroke-width="1.05702" stroke-linecap="butt"/></g></g><path d="M187.83333,232.39545c0,-0.16098 0,-12.56818 0,-12.56818l104.33333,0.33334c0,0 0,9.46311 0,11.73484c0,7.61017 -6.49271,15.53788 -16.03243,15.53788c-21.93761,0 -59.9884,0 -72.25,0c-7.50185,0 -16.0509,-7.6367 -16.0509,-15.03788z" fill="url(#color-6)" stroke="none" stroke-width="0" stroke-linecap="butt"/><text transform="translate(212.2508,240.59668) scale(0.52889,0.52889)" font-size="40" xml:space="preserve" fill="#000000" fill-rule="nonzero" stroke="#000000" stroke-width="1" stroke-linecap="butt" stroke-linejoin="miter" stroke-miterlimit="10" stroke-dasharray="" stroke-dashoffset="0" font-family="Handwriting" font-weight="normal" text-anchor="start" style="mix-blend-mode: normal"><tspan x="0" dy="0">Wario</tspan></text></g></g></svg>