<svg version="1.1" xmlns="http://www.w3.org/2000/svg" xmlns:xlink="http://www.w3.org/1999/xlink" width="46.96997" height="51.76316" viewBox="0,0,46.96997,51.76316"><g transform="translate(-216.51501,-154.11842)"><g data-paper-data="{&quot;isPaintingLayer&quot;:true}" fill-rule="nonzero" stroke-linejoin="miter" stroke-miterlimit="10" stroke-dasharray="" stroke-dashoffset="0" style="mix-blend-mode: normal"><path d="M263.229,174.39393c-0.29763,1.98793 -6.23112,4.50696 -10.90054,4.50696c-3.76262,0 -2.82994,-3.54001 -2.82994,-5.45027c0,-1.91026 7.37375,-1.49358 11.13637,-1.49358c3.76262,0 2.78678,1.15013 2.59412,2.4369z" fill="#346a00" stroke="none" stroke-width="0" stroke-linecap="butt"/><path d="M225.67633,197.41829c0,0 -0.75113,0.78252 -1.583,-0.13198c-0.83187,-0.91451 -1.43453,-3.02929 -0.23036,-4.03926c1.44031,-1.20802 1.06669,-5.27102 1.89854,-4.35652c0,0 3.1953,0.68302 3.44188,2.61745c0,0 1.34771,5.58634 0.79544,6.47987c0,0 -0.78714,0.88364 -2.83932,0.73688c-1.1119,-0.07951 -1.4832,-1.30646 -1.4832,-1.30646z" data-paper-data="{&quot;origRot&quot;:0}" fill="#5a2c0a" stroke="none" stroke-width="0" stroke-linecap="butt"/><path d="M227.37424,175.59055c2.2608,0.52778 19.51774,-1.13628 22.55408,-0.96753c4.49219,0.24967 3.25027,4.30446 3.56738,8.79241c0.3646,5.16015 -0.8458,11.13185 -0.45437,14.70405c0.41984,3.83146 0.06762,5.83852 -3.00455,7.67942c-8.4197,0.50201 -6.93647,-1.39418 -10.80658,-2.66518c-3.27785,-1.2072 -5.60234,-2.18234 -9.12271,-5.15628c-2.6723,-2.25751 -2.04217,-4.12831 -3.7062,-6.64747c-0.51009,-0.77222 -1.11492,-1.18416 -1.21689,-1.18416c-5.43477,0 -8.42248,-4.4894 -8.42248,-8.73441c0,-4.24503 1.93957,-7.68628 4.97862,-7.68628c3.03905,0 4.8476,1.68191 5.6337,1.86541z" fill="#ffdebd" stroke="none" stroke-width="0" stroke-linecap="butt"/><path d="M252.62543,178.31904c0.18466,2.56208 -0.95279,4.73181 -2.54056,4.84625c-1.58776,0.11443 -3.0246,-1.86976 -3.20924,-4.43183c-0.18466,-2.56208 0.95279,-4.7318 2.54056,-4.84625c1.58776,-0.11443 3.0246,1.86976 3.20924,4.43183z" data-paper-data="{&quot;origRot&quot;:0}" fill="#ffffff" stroke="none" stroke-width="0" stroke-linecap="butt"/><path d="M231.64066,179.88874c0.19818,2.55612 2.39535,4.35746 1.16592,4.95519c-0.6263,0.3045 -3.02922,0.07639 -3.97031,-0.86661c-0.94109,-0.94302 -1.32202,-2.121 -1.32202,-4.43648c0,-2.31546 -0.00875,-4.55843 1.43743,-4.61176c6.08888,-0.22461 2.51001,2.65115 2.68899,4.95968z" fill="#5a2c0a" stroke="none" stroke-width="0" stroke-linecap="butt"/><path d="M245.80041,180.94184c0.29922,2.55123 -0.73993,4.76973 -2.32096,4.95516c-1.58105,0.18543 -3.1053,-1.73244 -3.40451,-4.28367c-0.29922,-2.55123 0.73993,-4.76973 2.32096,-4.95516c1.58105,-0.18543 3.1053,1.73244 3.40451,4.28367z" data-paper-data="{&quot;origRot&quot;:0}" fill="#ffffff" stroke="none" stroke-width="0" stroke-linecap="butt"/><path d="M242.54512,179.02987c0.49891,0 0.95065,0.36421 1.2782,0.95222c0.32702,0.588 0.52984,1.4003 0.52984,2.29697c0,0.89667 -0.20282,1.70898 -0.52984,2.29697c-0.32754,0.588 -0.77928,0.95222 -1.2782,0.95222c-0.49891,0 -0.95065,-0.36421 -1.2782,-0.95222c-0.32702,-0.588 -0.52984,-1.4003 -0.52984,-2.29697c0,-0.89667 0.20282,-1.70898 0.52984,-2.29697c0.32754,-0.588 0.77928,-0.95222 1.2782,-0.95222z" fill="#000000" stroke="none" stroke-width="1" stroke-linecap="butt"/><path d="M250.07461,177.36202c0.49891,0 0.95065,0.36421 1.2782,0.95222c0.32702,0.588 0.40615,1.52187 0.52984,2.29697c0.0435,0.28248 0.1221,0.69333 -0.07862,0.94332c-0.25312,0.30239 -0.67132,0.44703 -1.04813,0.57648c-0.65822,0.13626 -1.44014,0.54346 -2.01765,0.20962c-0.50625,-0.30397 -0.46642,-1.12045 -0.47166,-1.72942c-0.0068,-0.78662 0.20282,-1.70898 0.52984,-2.29697c0.32754,-0.588 0.77928,-0.95222 1.2782,-0.95222z" fill="#000000" stroke="none" stroke-width="1" stroke-linecap="round"/><path d="M255.83652,160.23091c1.25592,7.83196 -0.25792,8.27733 -4.46592,10.78465c-6.1314,3.65336 -14.15166,2.91376 -20.70088,5.75078c-1.71965,0.74493 -6.10266,-1.06499 -7.9767,-1.06499c-3.833,0 -5.99577,-2.73942 -6.15416,-6.00234c-0.34937,-7.19726 3.1946,-7.22516 7.0276,-7.22516c0,0 4.21833,0.69918 5.67541,2.93714c0,0 5.86829,-9.54792 12.05428,-10.72751c7.96312,-1.51843 13.63846,-0.07698 14.54036,5.5474z" fill="#64ca00" stroke="none" stroke-width="0" stroke-linecap="butt"/><path d="M254.31991,164.69873c0,2.86539 -0.7668,5.02116 -6.39359,5.18825c-5.9401,0.17639 -6.39359,-2.32285 -6.39359,-5.18825c0,-2.86539 2.86251,-5.18825 6.39359,-5.18825c3.53108,0 6.39359,2.32285 6.39359,5.18825z" fill="#ffffff" stroke="none" stroke-width="0" stroke-linecap="butt"/><path d="M263.43863,173.29341c-0.10481,0.44991 -20.6182,3.40643 -26.36047,4.03531c-2.79081,0.30565 -8.43746,0.08305 -8.33263,-0.36684c0.38745,-1.66312 1.46995,-4.3209 4.14011,-5.18825c3.22675,-1.04813 14.30441,-3.86763 22.58831,-3.74098c3.38642,0.05177 8.35212,3.59765 7.96468,5.26077z" fill="#509b07" stroke="none" stroke-width="0" stroke-linecap="butt"/><path d="M245.96981,167.95959l-1.13836,-6.45764l2.91931,-0.29433l-0.40304,4.96942l3.92112,-0.85988l-0.68993,1.94366z" fill="#64ca00" stroke="none" stroke-width="0" stroke-linecap="butt"/><path d="M252.58649,197.10181c-0.19448,1.3355 -1.49091,1.57365 -2.24852,1.7791c-2.31223,0.62702 -4.25697,0.23848 -8.40539,-1.30601c-1.34311,-0.50006 -2.50661,-8.55867 0.58491,-6.88972c0,0 6.26714,2.49264 9.39653,2.3144c0,0 5.05135,-2.36407 6.61707,-2.26041c0.77651,0.0514 0.7816,1.67865 0.53662,2.50052c0,0 0.07972,2.38856 -1.00687,2.9853c-1.56263,1.12338 -2.68583,0.63414 -2.74211,1.02063z" fill="#38291e" stroke="none" stroke-width="0" stroke-linecap="butt"/><path d="M258.26659,187.56636c-0.26204,3.46827 0.59082,5.83022 -6.94386,5.69921c-3.47268,-0.06039 -6.81285,-2.23093 -6.81285,-5.30616c0,-3.07521 3.35014,-6.87062 6.81285,-7.14039c5.04539,-0.39304 7.36307,1.1986 6.94386,6.74733z" fill="#ffdebd" stroke="none" stroke-width="0" stroke-linecap="butt"/><g fill="none" stroke="#f6b09a" stroke-width="1.5" stroke-linecap="round"><path d="M220.10232,179.15153c0,0 1.55297,-0.90662 3.54005,0.62862c2.8498,2.20175 1.17653,5.95963 1.17653,5.95963" data-paper-data="{&quot;origPos&quot;:null}"/><path d="M224.66919,182.67026h-3.1444" data-paper-data="{&quot;origPos&quot;:null}"/><path d="M224.36971,185.81464h-0.6738" data-paper-data="{&quot;origPos&quot;:null}"/></g><path d="M240.75352,175.3621c-0.72098,0.21501 -0.68685,0.31688 -1.03683,0.98286c-0.36105,0.68708 -1.12494,1.57194 -1.12494,1.57194c0,0 -0.76426,-1.90081 -0.76426,-3.3118c0,-0.95805 0.52058,-2.62787 1.99725,-2.96277c4.99492,-0.16817 3.5081,4.53366 3.5081,4.53366c0,0 -1.82233,-1.06029 -2.57931,-0.81388z" fill="#38291e" stroke="none" stroke-width="0" stroke-linecap="butt"/><path d="M249.79929,173.89155c-0.7947,0.04673 -2.10465,1.69874 -2.10465,1.69874c0,0 -3.0996,-3.8354 1.61245,-5.50099c1.49707,-0.22687 2.59094,1.13798 2.94044,2.02997c0.51473,1.31375 0.49657,3.36238 0.49657,3.36238c0,0 -1.03405,-0.54522 -1.62086,-1.05323c-0.56881,-0.49244 -0.5742,-0.59974 -1.32394,-0.5369z" data-paper-data="{&quot;index&quot;:null,&quot;origRot&quot;:0}" fill="#38291e" stroke="none" stroke-width="0" stroke-linecap="butt"/></g></g></svg>