<svg version="1.1" xmlns="http://www.w3.org/2000/svg" xmlns:xlink="http://www.w3.org/1999/xlink" width="409.91885" height="42.42583" viewBox="0,0,409.91885,42.42583"><defs><linearGradient x1="50.46336" y1="165.46733" x2="50.46336" y2="197.36734" gradientUnits="userSpaceOnUse" id="color-1"><stop offset="0" stop-color="#ff8700"/><stop offset="1" stop-color="#ff6100"/></linearGradient><linearGradient x1="90.86581" y1="165.54093" x2="90.86581" y2="197.3672" gradientUnits="userSpaceOnUse" id="color-2"><stop offset="0" stop-color="#ff8700"/><stop offset="1" stop-color="#ff6100"/></linearGradient><linearGradient x1="123.01108" y1="165.39368" x2="123.01108" y2="197.36728" gradientUnits="userSpaceOnUse" id="color-3"><stop offset="0" stop-color="#ff8700"/><stop offset="1" stop-color="#ff6100"/></linearGradient><linearGradient x1="155.2545" y1="165.54093" x2="155.2545" y2="197.3672" gradientUnits="userSpaceOnUse" id="color-4"><stop offset="0" stop-color="#ff8700"/><stop offset="1" stop-color="#ff6100"/></linearGradient><linearGradient x1="189.79226" y1="165.41822" x2="189.79226" y2="197.36715" gradientUnits="userSpaceOnUse" id="color-5"><stop offset="0" stop-color="#ff8700"/><stop offset="1" stop-color="#ff6100"/></linearGradient><linearGradient x1="220.7229" y1="165.44278" x2="220.7229" y2="197.3672" gradientUnits="userSpaceOnUse" id="color-6"><stop offset="0" stop-color="#ff8700"/><stop offset="1" stop-color="#ff6100"/></linearGradient><linearGradient x1="264.29082" y1="165.44268" x2="264.29082" y2="197.3672" gradientUnits="userSpaceOnUse" id="color-7"><stop offset="0" stop-color="#ff8700"/><stop offset="1" stop-color="#ff6100"/></linearGradient><linearGradient x1="299.39295" y1="165.44278" x2="299.39295" y2="197.36728" gradientUnits="userSpaceOnUse" id="color-8"><stop offset="0" stop-color="#ff8700"/><stop offset="1" stop-color="#ff6100"/></linearGradient><linearGradient x1="336.15143" y1="165.54093" x2="336.15143" y2="197.3672" gradientUnits="userSpaceOnUse" id="color-9"><stop offset="0" stop-color="#ff8700"/><stop offset="1" stop-color="#ff6100"/></linearGradient><linearGradient x1="370.32111" y1="165.44273" x2="370.32111" y2="197.36715" gradientUnits="userSpaceOnUse" id="color-10"><stop offset="0" stop-color="#ff8700"/><stop offset="1" stop-color="#ff6100"/></linearGradient><linearGradient x1="404.90798" y1="165.44278" x2="404.90798" y2="197.36728" gradientUnits="userSpaceOnUse" id="color-11"><stop offset="0" stop-color="#ff8700"/><stop offset="1" stop-color="#ff6100"/></linearGradient><linearGradient x1="430.14569" y1="166.3504" x2="430.14569" y2="197.36743" gradientUnits="userSpaceOnUse" id="color-12"><stop offset="0" stop-color="#ff8700"/><stop offset="1" stop-color="#ff6100"/></linearGradient></defs><g transform="translate(-27.72841,-157.41978)"><g data-paper-data="{&quot;isPaintingLayer&quot;:true}" fill-rule="nonzero" stroke-linecap="butt" stroke-linejoin="miter" stroke-miterlimit="10" stroke-dasharray="" stroke-dashoffset="0" style="mix-blend-mode: normal"><g><g fill="none" stroke="#ffffff" stroke-width="4"><path d="M42.80738,165.46733l0.17177,0.31911l1.27598,18.64918h0.14722l6.69898,-7.01798c3.9425,5.31666 5.96284,7.97499 6.061,7.97499c1.70135,-8.32668 2.76463,-13.32432 3.18998,-14.99294c7.23064,1.39053 10.84596,2.24117 10.84596,2.55199c-4.35149,13.82329 -6.8462,21.64285 -7.4842,23.45867c-1.53775,0.09813 -4.94041,0.41714 -10.20798,0.95702c-2.33931,-5.59476 -3.50898,-8.46576 -3.50898,-8.61298c-0.1963,0.01584 -1.42325,2.4615 -3.68077,7.33697h-0.14722c-7.01798,-0.4744 -10.52695,-0.89973 -10.52695,-1.27596c-3.9425,-17.38952 -5.91376,-26.32153 -5.91376,-26.79592v-0.31911c0,-0.32717 4.35966,-1.07148 13.07897,-2.23297z"/><path d="M83.44293,165.54093c9.07919,1.3087 14.08504,2.07757 15.01749,2.30661c0,0.13075 3.12456,9.49622 9.37368,28.09643c-0.65437,0.24533 -4.42512,0.71976 -11.31221,1.42322c-0.47442,-1.60318 -1.00606,-4.08156 -1.59499,-7.43513c-5.8892,0.53983 -8.83382,1.01426 -8.83382,1.42321l-1.595,5.66836h-0.17174c-6.95254,-1.27599 -10.4288,-2.04485 -10.4288,-2.30658c5.54568,-17.34048 8.72747,-27.06583 9.54542,-29.17614zM88.20338,182.5215h5.32484l-1.96307,-7.77867c-1.52138,0 -2.28207,0.29444 -2.28207,0.88335c-0.2454,1.19423 -0.60529,3.49266 -1.07969,6.89532z"/><path d="M135.4643,165.39368c0.09817,0.21273 0.14725,0.36817 0.14725,0.46631c-0.09817,4.87496 -0.14725,7.69685 -0.14725,8.46573l-0.31899,0.1472c-7.50875,0.19628 -11.81114,0.29441 -12.90718,0.29441l-0.14725,0.3191c0.09817,1.81581 0.14725,3.30446 0.14725,4.46595v0.7607h0.14725l9.98713,-1.22691l0.17175,0.29441v7.53328c0,0.21274 -0.10635,0.3191 -0.31901,0.3191l-9.37367,-1.07966v0.90792c0,2.06121 0.05724,5.13671 0.17176,9.22641c-0.9161,0.21274 -3.68893,0.57263 -8.31851,1.0797c-0.29448,-0.57256 -1.72588,-10.05255 -4.29422,-28.43998h0.14725z"/><path d="M147.83165,165.54093c9.07919,1.3087 14.08502,2.07757 15.01748,2.30661c0,0.13075 3.12458,9.49622 9.37368,28.09643c-0.65437,0.24533 -4.42509,0.71976 -11.3122,1.42322c-0.4744,-1.60318 -1.00605,-4.08156 -1.59499,-7.43513c-5.88921,0.53983 -8.83383,1.01426 -8.83383,1.42321l-1.59498,5.66836h-0.17176c-6.95255,-1.27599 -10.4288,-2.04485 -10.4288,-2.30658c5.54568,-17.34048 8.72747,-27.06583 9.54542,-29.17614zM152.5921,182.5215h5.32482l-1.96307,-7.77867c-1.52138,0 -2.28207,0.29444 -2.28207,0.88335c-0.24537,1.19423 -0.60527,3.49266 -1.07968,6.89532z"/><path d="M196.34402,165.41822h1.96307c0.22905,0 0.78521,2.5111 1.66859,7.53327c0.09819,0.14721 1.70133,7.93404 4.80953,23.36054l-0.29444,0.14722c-5.93829,-0.1798 -8.90742,-0.43337 -8.90742,-0.76071c0,-1.71769 -0.70344,-2.92006 -2.11029,-3.60714c0,-0.06552 -2.30663,-1.92224 -6.91985,-5.57021h-0.14725c0.09817,0.14721 0.40082,3.01002 0.90794,8.58844c-4.79316,1.40686 -7.6069,2.15935 -8.4412,2.25753c-0.26174,0 -1.0633,-5.62748 -2.40475,-16.88242c-0.21266,-0.70342 -0.76888,-4.67043 -1.66862,-11.90112l8.73566,-2.40473c0.1963,0 0.75251,3.61533 1.66862,10.84597l8.58844,7.53328h0.14725c0,-0.24533 -1.25963,-6.52716 -3.77891,-18.84548c0.11451,0 0.17176,-0.04908 0.17176,-0.14721c2.51929,-0.09812 4.52322,-0.14722 6.01189,-0.14722z"/><path d="M217.98687,165.44278c7.1652,1.88127 10.82143,2.96915 10.96865,3.26359c0,0.16366 1.73403,3.43546 5.20214,9.81535c-3.05912,10.24069 -4.79316,15.72914 -5.20214,16.46527l-11.11588,2.38021c-5.971,-3.30449 -9.14465,-5.18577 -9.5209,-5.6438c-0.19631,-2.30662 -0.53983,-8.79293 -1.0306,-19.45895c5.64383,-3.76258 9.21006,-6.03647 10.69873,-6.82167zM219.90087,173.90851l-4.58867,4.76045c0.39261,4.94038 0.58891,7.9586 0.58891,9.05464c0.11451,0 1.10424,0.68708 2.96916,2.06122c2.47021,-0.53983 3.70528,-0.93243 3.70528,-1.1778l2.82192,-9.6436c-0.75252,-2.29026 -1.3905,-3.43538 -1.91399,-3.43538z"/><path d="M268.38869,165.44278c5.8892,2.97732 8.91563,4.466 9.07922,4.466c0,0.2618 -1.22691,2.62565 -3.68076,7.09157h-0.17176c-0.19631,0 -3.0182,-1.33326 -8.46573,-3.99975l-2.77286,3.70529c4.69502,2.25753 10.39611,5.13669 17.10328,8.63747c-3.04276,5.41482 -5.20215,9.01378 -6.47814,10.7969l-13.86418,1.22691c-6.3309,-4.26968 -9.67632,-6.47814 -10.03621,-6.62536v-0.1719c0,-0.45806 1.28419,-2.56019 3.85255,-6.30636h0.319c1.01425,0.60526 4.19605,2.34748 9.54542,5.22665l3.23906,-3.68074c-9.83172,-5.00585 -15.27923,-7.83594 -16.34256,-8.49028v-0.14721c3.12456,-6.08548 4.8259,-9.16914 5.10399,-9.25095c8.13038,-1.65225 12.65361,-2.47837 13.56971,-2.47837z"/><path d="M316.55752,165.44278l0.14725,0.31909c-0.42531,6.2491 -0.74432,9.37364 -0.95698,9.37364h-0.14725c-6.75624,-0.53983 -10.51878,-0.85882 -11.28766,-0.95701v21.76557c0,0.39261 -1.53773,0.65434 -4.6132,0.78521c0,0.1146 -1.74222,0.32726 -5.22668,0.638l-0.17175,-0.3191c0.75252,-12.98898 1.23512,-20.66127 1.44776,-23.01698c-2.58472,0.40896 -6.39635,0.93246 -11.43489,1.57046c-1.48867,-5.56205 -2.23299,-8.4167 -2.23299,-8.56393c0,-0.21274 11.49212,-0.74439 34.47642,-1.59497z"/><path d="M328.72856,165.54093c9.07919,1.3087 14.08503,2.07757 15.01749,2.30661c0,0.13075 3.12458,9.49622 9.37368,28.09643c-0.65437,0.24533 -4.42508,0.71976 -11.31219,1.42322c-0.4744,-1.60318 -1.00606,-4.08156 -1.59499,-7.43513c-5.8892,0.53983 -8.83383,1.01426 -8.83383,1.42321l-1.59499,5.66836h-0.17176c-6.95255,-1.27599 -10.4288,-2.04485 -10.4288,-2.30658c5.54568,-17.34048 8.72747,-27.06583 9.54542,-29.17614zM333.48901,182.5215h5.32483l-1.96307,-7.77867c-1.52138,0 -2.28208,0.29444 -2.28208,0.88335c-0.24538,1.19423 -0.60527,3.49266 -1.07968,6.89532z"/><path d="M372.99579,165.44278c0.35988,0.3926 3.86886,2.96093 10.52694,7.70503v0.14721c-1.35779,5.59476 -2.24934,8.79294 -2.67468,9.5945l-5.1776,2.99367c6.1346,4.43328 9.22646,6.73988 9.27552,6.91982c-2.17574,1.04696 -5.52932,2.56836 -10.06074,4.56415c-5.2512,-7.18158 -7.87681,-10.85416 -7.87681,-11.01771h-0.29445c-0.11451,4.20423 -0.17175,7.09159 -0.17175,8.66204c-0.06543,0.73613 -0.22085,1.10422 -0.46626,1.10422h-7.38605c-0.34352,0 -0.86702,-4.56412 -1.57046,-13.69239c-0.32717,-1.99579 -0.80156,-6.60901 -1.42321,-13.83969c1.89763,-0.40896 7.66414,-1.45594 17.29955,-3.14088zM366.22319,172.3626v0.14721c0,0.99792 0.05724,4.56415 0.17174,10.69874h0.14727c3.99158,-0.93243 5.98736,-1.56227 5.98736,-1.88947l1.39868,-6.28182z"/><path d="M422.07255,165.44278l0.14724,0.31909c-0.42534,6.2491 -0.74432,9.37364 -0.95698,9.37364h-0.14725c-6.75624,-0.53983 -10.51878,-0.85882 -11.28766,-0.95701v21.76557c0,0.39261 -1.53775,0.65434 -4.61323,0.78521c0,0.1146 -1.74219,0.32726 -5.22665,0.638l-0.17176,-0.3191c0.75251,-12.98898 1.2351,-20.66127 1.44776,-23.01698c-2.58471,0.40896 -6.39635,0.93246 -11.43489,1.57046c-1.48867,-5.56205 -2.23301,-8.4167 -2.23301,-8.56393c0,-0.21274 11.49213,-0.74439 34.47643,-1.59497z"/><path d="M435.49506,166.35068l0.09814,0.19611c-1.63591,14.44494 -2.552,22.0355 -2.7483,22.77163c-3.46811,-0.32717 -5.66016,-0.5562 -6.57627,-0.68707v-0.09829l-1.57046,-20.51406c0.39261,-0.13075 3.99158,-0.68694 10.79689,-1.66861zM425.77786,189.80937c0.11452,0.06552 2.66648,0.26183 7.65597,0.58891l0.09815,0.19658c-0.76888,4.51504 -1.25966,6.77257 -1.47232,6.77257h-5.69288c-0.1963,0 -0.45804,-2.25752 -0.78523,-6.77257c-0.06544,0 -0.09814,-0.19633 -0.09814,-0.58895c0.1963,-0.06552 0.29445,-0.13089 0.29445,-0.19612z"/></g><g stroke="none" stroke-width="0.26459"><path d="M42.80738,165.46733l0.17177,0.31911l1.27598,18.64918h0.14722l6.69898,-7.01798c3.9425,5.31666 5.96284,7.97499 6.061,7.97499c1.70135,-8.32668 2.76463,-13.32432 3.18998,-14.99294c7.23064,1.39053 10.84596,2.24117 10.84596,2.55199c-4.35149,13.82329 -6.8462,21.64285 -7.4842,23.45867c-1.53775,0.09813 -4.94041,0.41714 -10.20798,0.95702c-2.33931,-5.59476 -3.50898,-8.46576 -3.50898,-8.61298c-0.1963,0.01584 -1.42325,2.4615 -3.68077,7.33697h-0.14722c-7.01798,-0.4744 -10.52695,-0.89973 -10.52695,-1.27596c-3.9425,-17.38952 -5.91376,-26.32153 -5.91376,-26.79592v-0.31911c0,-0.32717 4.35966,-1.07148 13.07897,-2.23297z" fill="url(#color-1)"/><path d="M83.44293,165.54093c9.07919,1.3087 14.08504,2.07757 15.01749,2.30661c0,0.13075 3.12456,9.49622 9.37368,28.09643c-0.65437,0.24533 -4.42512,0.71976 -11.31221,1.42322c-0.47442,-1.60318 -1.00606,-4.08156 -1.59499,-7.43513c-5.8892,0.53983 -8.83382,1.01426 -8.83382,1.42321l-1.595,5.66836h-0.17174c-6.95254,-1.27599 -10.4288,-2.04485 -10.4288,-2.30658c5.54568,-17.34048 8.72747,-27.06583 9.54542,-29.17614zM88.20338,182.5215h5.32484l-1.96307,-7.77867c-1.52138,0 -2.28207,0.29444 -2.28207,0.88335c-0.2454,1.19423 -0.60529,3.49266 -1.07969,6.89532z" fill="url(#color-2)"/><path d="M135.4643,165.39368c0.09817,0.21273 0.14725,0.36817 0.14725,0.46631c-0.09817,4.87496 -0.14725,7.69685 -0.14725,8.46573l-0.31899,0.1472c-7.50875,0.19628 -11.81114,0.29441 -12.90718,0.29441l-0.14725,0.3191c0.09817,1.81581 0.14725,3.30446 0.14725,4.46595v0.7607h0.14725l9.98713,-1.22691l0.17175,0.29441v7.53328c0,0.21274 -0.10635,0.3191 -0.31901,0.3191l-9.37367,-1.07966v0.90792c0,2.06121 0.05724,5.13671 0.17176,9.22641c-0.9161,0.21274 -3.68893,0.57263 -8.31851,1.0797c-0.29448,-0.57256 -1.72588,-10.05255 -4.29422,-28.43998h0.14725z" fill="url(#color-3)"/><path d="M147.83165,165.54093c9.07919,1.3087 14.08502,2.07757 15.01748,2.30661c0,0.13075 3.12458,9.49622 9.37368,28.09643c-0.65437,0.24533 -4.42509,0.71976 -11.3122,1.42322c-0.4744,-1.60318 -1.00605,-4.08156 -1.59499,-7.43513c-5.88921,0.53983 -8.83383,1.01426 -8.83383,1.42321l-1.59498,5.66836h-0.17176c-6.95255,-1.27599 -10.4288,-2.04485 -10.4288,-2.30658c5.54568,-17.34048 8.72747,-27.06583 9.54542,-29.17614zM152.5921,182.5215h5.32482l-1.96307,-7.77867c-1.52138,0 -2.28207,0.29444 -2.28207,0.88335c-0.24537,1.19423 -0.60527,3.49266 -1.07968,6.89532z" fill="url(#color-4)"/><path d="M196.34402,165.41822h1.96307c0.22905,0 0.78521,2.5111 1.66859,7.53327c0.09819,0.14721 1.70133,7.93404 4.80953,23.36054l-0.29444,0.14722c-5.93829,-0.1798 -8.90742,-0.43337 -8.90742,-0.76071c0,-1.71769 -0.70344,-2.92006 -2.11029,-3.60714c0,-0.06552 -2.30663,-1.92224 -6.91985,-5.57021h-0.14725c0.09817,0.14721 0.40082,3.01002 0.90794,8.58844c-4.79316,1.40686 -7.6069,2.15935 -8.4412,2.25753c-0.26174,0 -1.0633,-5.62748 -2.40475,-16.88242c-0.21266,-0.70342 -0.76888,-4.67043 -1.66862,-11.90112l8.73566,-2.40473c0.1963,0 0.75251,3.61533 1.66862,10.84597l8.58844,7.53328h0.14725c0,-0.24533 -1.25963,-6.52716 -3.77891,-18.84548c0.11451,0 0.17176,-0.04908 0.17176,-0.14721c2.51929,-0.09812 4.52322,-0.14722 6.01189,-0.14722z" fill="url(#color-5)"/><path d="M217.98687,165.44278c7.1652,1.88127 10.82143,2.96915 10.96865,3.26359c0,0.16366 1.73403,3.43546 5.20214,9.81535c-3.05912,10.24069 -4.79316,15.72914 -5.20214,16.46527l-11.11588,2.38021c-5.971,-3.30449 -9.14465,-5.18577 -9.5209,-5.6438c-0.19631,-2.30662 -0.53983,-8.79293 -1.0306,-19.45895c5.64383,-3.76258 9.21006,-6.03647 10.69873,-6.82167zM219.90087,173.90851l-4.58867,4.76045c0.39261,4.94038 0.58891,7.9586 0.58891,9.05464c0.11451,0 1.10424,0.68708 2.96916,2.06122c2.47021,-0.53983 3.70528,-0.93243 3.70528,-1.1778l2.82192,-9.6436c-0.75252,-2.29026 -1.3905,-3.43538 -1.91399,-3.43538z" fill="url(#color-6)"/><path d="M268.38869,165.44278c5.8892,2.97732 8.91563,4.466 9.07922,4.466c0,0.2618 -1.22691,2.62565 -3.68076,7.09157h-0.17176c-0.19631,0 -3.0182,-1.33326 -8.46573,-3.99975l-2.77286,3.70529c4.69502,2.25753 10.39611,5.13669 17.10328,8.63747c-3.04276,5.41482 -5.20215,9.01378 -6.47814,10.7969l-13.86418,1.22691c-6.3309,-4.26968 -9.67632,-6.47814 -10.03621,-6.62536v-0.1719c0,-0.45806 1.28419,-2.56019 3.85255,-6.30636h0.319c1.01425,0.60526 4.19605,2.34748 9.54542,5.22665l3.23906,-3.68074c-9.83172,-5.00585 -15.27923,-7.83594 -16.34256,-8.49028v-0.14721c3.12456,-6.08548 4.8259,-9.16914 5.10399,-9.25095c8.13038,-1.65225 12.65361,-2.47837 13.56971,-2.47837z" fill="url(#color-7)"/><path d="M316.55752,165.44278l0.14725,0.31909c-0.42531,6.2491 -0.74432,9.37364 -0.95698,9.37364h-0.14725c-6.75624,-0.53983 -10.51878,-0.85882 -11.28766,-0.95701v21.76557c0,0.39261 -1.53773,0.65434 -4.6132,0.78521c0,0.1146 -1.74222,0.32726 -5.22668,0.638l-0.17175,-0.3191c0.75252,-12.98898 1.23512,-20.66127 1.44776,-23.01698c-2.58472,0.40896 -6.39635,0.93246 -11.43489,1.57046c-1.48867,-5.56205 -2.23299,-8.4167 -2.23299,-8.56393c0,-0.21274 11.49212,-0.74439 34.47642,-1.59497z" fill="url(#color-8)"/><path d="M328.72856,165.54093c9.07919,1.3087 14.08503,2.07757 15.01749,2.30661c0,0.13075 3.12458,9.49622 9.37368,28.09643c-0.65437,0.24533 -4.42508,0.71976 -11.31219,1.42322c-0.4744,-1.60318 -1.00606,-4.08156 -1.59499,-7.43513c-5.8892,0.53983 -8.83383,1.01426 -8.83383,1.42321l-1.59499,5.66836h-0.17176c-6.95255,-1.27599 -10.4288,-2.04485 -10.4288,-2.30658c5.54568,-17.34048 8.72747,-27.06583 9.54542,-29.17614zM333.48901,182.5215h5.32483l-1.96307,-7.77867c-1.52138,0 -2.28208,0.29444 -2.28208,0.88335c-0.24538,1.19423 -0.60527,3.49266 -1.07968,6.89532z" fill="url(#color-9)"/><path d="M372.99579,165.44278c0.35988,0.3926 3.86886,2.96093 10.52694,7.70503v0.14721c-1.35779,5.59476 -2.24934,8.79294 -2.67468,9.5945l-5.1776,2.99367c6.1346,4.43328 9.22646,6.73988 9.27552,6.91982c-2.17574,1.04696 -5.52932,2.56836 -10.06074,4.56415c-5.2512,-7.18158 -7.87681,-10.85416 -7.87681,-11.01771h-0.29445c-0.11451,4.20423 -0.17175,7.09159 -0.17175,8.66204c-0.06543,0.73613 -0.22085,1.10422 -0.46626,1.10422h-7.38605c-0.34352,0 -0.86702,-4.56412 -1.57046,-13.69239c-0.32717,-1.99579 -0.80156,-6.60901 -1.42321,-13.83969c1.89763,-0.40896 7.66414,-1.45594 17.29955,-3.14088zM366.22319,172.3626v0.14721c0,0.99792 0.05724,4.56415 0.17174,10.69874h0.14727c3.99158,-0.93243 5.98736,-1.56227 5.98736,-1.88947l1.39868,-6.28182z" fill="url(#color-10)"/><path d="M422.07255,165.44278l0.14724,0.31909c-0.42534,6.2491 -0.74432,9.37364 -0.95698,9.37364h-0.14725c-6.75624,-0.53983 -10.51878,-0.85882 -11.28766,-0.95701v21.76557c0,0.39261 -1.53775,0.65434 -4.61323,0.78521c0,0.1146 -1.74219,0.32726 -5.22665,0.638l-0.17176,-0.3191c0.75251,-12.98898 1.2351,-20.66127 1.44776,-23.01698c-2.58471,0.40896 -6.39635,0.93246 -11.43489,1.57046c-1.48867,-5.56205 -2.23301,-8.4167 -2.23301,-8.56393c0,-0.21274 11.49213,-0.74439 34.47643,-1.59497z" fill="url(#color-11)"/><path d="M435.49506,166.35068l0.09814,0.19611c-1.63591,14.44494 -2.552,22.0355 -2.7483,22.77163c-3.46811,-0.32717 -5.66016,-0.5562 -6.57627,-0.68707v-0.09829l-1.57046,-20.51406c0.39261,-0.13075 3.99158,-0.68694 10.79689,-1.66861zM425.77786,189.80937c0.11452,0.06552 2.66648,0.26183 7.65597,0.58891l0.09815,0.19658c-0.76888,4.51504 -1.25966,6.77257 -1.47232,6.77257h-5.69288c-0.1963,0 -0.45804,-2.25752 -0.78523,-6.77257c-0.06544,0 -0.09814,-0.19633 -0.09814,-0.58895c0.1963,-0.06552 0.29445,-0.13089 0.29445,-0.19612z" fill="url(#color-12)"/></g></g></g></g></svg>