<svg version="1.1" xmlns="http://www.w3.org/2000/svg" xmlns:xlink="http://www.w3.org/1999/xlink" width="41.0035" height="27.13679" viewBox="0,0,41.0035,27.13679"><defs><linearGradient x1="238.59665" y1="169.08189" x2="238.59665" y2="190.91804" gradientUnits="userSpaceOnUse" id="color-1"><stop offset="0" stop-color="#0267c2"/><stop offset="1" stop-color="#20f1ff"/></linearGradient><linearGradient x1="247.95495" y1="169.08195" x2="247.95495" y2="190.91805" gradientUnits="userSpaceOnUse" id="color-2"><stop offset="0" stop-color="#e67c02"/><stop offset="1" stop-color="#ffd000"/></linearGradient><linearGradient x1="229.21118" y1="169.39279" x2="229.21118" y2="190.80983" gradientUnits="userSpaceOnUse" id="color-3"><stop offset="0" stop-color="#0160c0"/><stop offset="1" stop-color="#23f4f4"/></linearGradient><linearGradient x1="229.21118" y1="169.39281" x2="229.21118" y2="190.80984" gradientUnits="userSpaceOnUse" id="color-4"><stop offset="0" stop-color="#e67c02"/><stop offset="1" stop-color="#ffd000"/></linearGradient></defs><g transform="translate(-219.01224,-166.41552)"><g data-paper-data="{&quot;isPaintingLayer&quot;:true}" fill-rule="nonzero" stroke="#000000" stroke-linecap="butt" stroke-linejoin="miter" stroke-miterlimit="10" stroke-dasharray="" stroke-dashoffset="0" style="mix-blend-mode: normal"><g><path d="M257.31322,178.03433c-1.53287,4.98412 -2.34469,7.58587 -2.4921,7.80791c0,0 -2.78694,4.13457 -3.00904,3.85771l-5.88759,1.21811c-4.15346,-2.26998 -6.34974,-3.5439 -6.60775,-3.85766c-0.14841,-1.58767 -0.3884,-6.01709 -0.72011,-13.3081c3.91247,-2.56579 6.40455,-4.13456 7.43841,-4.67036c0,0 7.54901,2.03088 7.6416,2.23408c0,0 1.21819,2.36259 3.63658,6.71831zM247.32693,175.15478l-3.21125,3.24905c0.27691,3.37761 0.4054,5.44438 0.4054,6.18339c0.07376,0 0.77592,0.48011 2.06779,1.42138c1.71618,-0.3695 2.58374,-0.62751 2.58374,-0.79387l1.97514,-6.60769c-0.53491,-1.55082 -0.97811,-2.32579 -1.34762,-2.32579z" data-paper-data="{&quot;origPos&quot;:null}" fill="url(#color-1)" stroke-width="5"/><path d="M246.03506,169.08195c5.00213,1.29282 7.54902,2.03088 7.64161,2.23409c0,0.11054 1.21817,2.36258 3.63656,6.7183c-1.53287,4.98412 -2.34469,7.58587 -2.4921,7.80791c0,0 -2.78694,4.13456 -3.00904,3.85771l-5.88759,1.21811c-4.15346,-2.26998 -6.34974,-3.5439 -6.60775,-3.85766c-0.14841,-1.58767 -0.3884,-6.01709 -0.72011,-13.3081c3.91247,-2.56579 6.40455,-4.13456 7.43841,-4.67037zM247.32693,175.15478l-3.21125,3.24905c0.27691,3.37761 0.4054,5.44438 0.4054,6.18339c0.07376,0 0.77592,0.48011 2.06779,1.42138c1.71618,-0.3695 2.58374,-0.62751 2.58374,-0.79387l1.97514,-6.60769c-0.53491,-1.55082 -0.97811,-2.32579 -1.34762,-2.32579z" data-paper-data="{&quot;origPos&quot;:null}" fill="url(#color-2)" stroke-width="0"/></g><g><path d="M235.66465,170.2438c0.04728,8.84103 0.07092,15.60181 0.07092,20.28236v0.14184l-0.07092,0.14183l-6.24072,-0.21275c0,-0.04727 -0.02363,-0.07091 -0.07092,-0.07091c0.28367,-7.90728 0.42549,-12.11504 0.42549,-12.62329l-2.12751,2.0566c-0.1182,-0.07091 -1.77293,-1.82021 -4.96421,-5.24788c2.50575,-1.98569 4.82237,-3.75862 6.94989,-5.3188c0,0 6.02798,0.73279 6.02798,0.851z" data-paper-data="{&quot;origPos&quot;:null}" fill="url(#color-3)" stroke-width="5"/><path d="M229.63668,169.39281c4.01865,0.44914 6.02797,0.73281 6.02797,0.85101c0.04728,8.84103 0.07092,15.60181 0.07092,20.28235v0.14184l-0.07092,0.14183l-6.24072,-0.21275c0,-0.04727 -0.02363,-0.0709 -0.07092,-0.0709c0.28367,-7.90728 0.42549,-12.11504 0.42549,-12.62329l-2.12751,2.0566c-0.1182,-0.07091 -1.77293,-1.8202 -4.96421,-5.24788c2.50575,-1.98569 4.82237,-3.75862 6.94989,-5.3188z" data-paper-data="{&quot;origPos&quot;:null}" fill="url(#color-4)" stroke-width="0"/></g></g></g></svg>