<svg version="1.1" xmlns="http://www.w3.org/2000/svg" xmlns:xlink="http://www.w3.org/1999/xlink" width="54.03715" height="112.96451" viewBox="0,0,54.03715,112.96451"><defs><linearGradient x1="244.91798" y1="158.85807" x2="267.02972" y2="162.59035" gradientUnits="userSpaceOnUse" id="color-1"><stop offset="0" stop-color="#fcfcfc"/><stop offset="1" stop-color="#ffffff"/></linearGradient><linearGradient x1="229.02601" y1="169.73669" x2="211.43759" y2="155.82604" gradientUnits="userSpaceOnUse" id="color-2"><stop offset="0" stop-color="#fcfcfc"/><stop offset="1" stop-color="#ffffff"/></linearGradient><linearGradient x1="240.94289" y1="220.6434" x2="240.94289" y2="230.70043" gradientUnits="userSpaceOnUse" id="color-3"><stop offset="0" stop-color="#e5e5e5"/><stop offset="1" stop-color="#ffffff"/></linearGradient><linearGradient x1="250.56975" y1="221.06937" x2="250.56975" y2="231.1264" gradientUnits="userSpaceOnUse" id="color-4"><stop offset="0" stop-color="#e5e5e5"/><stop offset="1" stop-color="#ffffff"/></linearGradient><linearGradient x1="246.58199" y1="122.84326" x2="246.14971" y2="131.03074" gradientUnits="userSpaceOnUse" id="color-5"><stop offset="0" stop-color="#ffe746"/><stop offset="1" stop-color="#ffc443"/></linearGradient><linearGradient x1="257.59769" y1="138.72102" x2="256.62876" y2="157.07142" gradientUnits="userSpaceOnUse" id="color-6"><stop offset="0" stop-color="#cfbb36"/><stop offset="1" stop-color="#ffe743"/></linearGradient><linearGradient x1="225.41171" y1="137.98686" x2="224.48384" y2="155.55961" gradientUnits="userSpaceOnUse" id="color-7"><stop offset="0" stop-color="#cfbb36"/><stop offset="1" stop-color="#ffe743"/></linearGradient><linearGradient x1="234.76763" y1="136.98343" x2="234.10236" y2="149.58261" gradientUnits="userSpaceOnUse" id="color-8"><stop offset="0" stop-color="#cfbb36"/><stop offset="1" stop-color="#ffe743"/></linearGradient><linearGradient x1="245.10294" y1="137.31169" x2="244.43771" y2="149.91087" gradientUnits="userSpaceOnUse" id="color-9"><stop offset="0" stop-color="#cfbb36"/><stop offset="1" stop-color="#ffe743"/></linearGradient><linearGradient x1="254.98656" y1="129.59331" x2="254.28081" y2="142.95961" gradientUnits="userSpaceOnUse" id="color-10"><stop offset="0" stop-color="#ffe746"/><stop offset="1" stop-color="#f0d93f"/></linearGradient></defs><g transform="translate(-216.26598,-122.51775)"><g data-paper-data="{&quot;isPaintingLayer&quot;:true}" fill-rule="nonzero" stroke-linejoin="miter" stroke-miterlimit="10" stroke-dasharray="" stroke-dashoffset="0" style="mix-blend-mode: normal"><g data-paper-data="{&quot;index&quot;:null}" stroke="none" stroke-width="1" stroke-linecap="round"><g data-paper-data="{&quot;origPos&quot;:null,&quot;index&quot;:null,&quot;origRot&quot;:0}"><path d="M261.07369,179.5854c-0.27538,-1.05592 -0.71954,-2.29253 -0.27022,-3.29841c0.59341,-1.32665 1.61178,-2.85664 3.00023,-3.07706c1.51763,-0.21798 3.0001,0.99438 4.07121,2.01043c1.13671,1.07836 2.23985,2.4702 2.40472,4.04448c0.13404,1.51493 -0.28951,3.84231 -1.6845,4.26395c-1.47006,0.44279 -2.5236,-2.03403 -3.99432,-2.46585c-0.44364,-0.14503 0.12841,0.85681 0.06004,1.278c-0.09064,0.5432 -0.04626,1.11593 -0.4319,1.41566c-0.38168,0.28785 -1.13016,0.5845 -1.41262,0.20266c-0.88822,-1.19801 -1.34583,-2.85687 -1.74262,-4.37386z" fill="#ffffff"/><path d="M251.48438,159.9664l13.55477,14.41677l-4.27262,2.44891l-14.20802,-13.96735z" data-paper-data="{&quot;origPos&quot;:null}" fill="url(#color-1)"/></g><path d="M240.53117,160.43073c0.31605,-1.70278 1.90009,-3.10862 3.43873,-3.90292c1.36815,-0.76175 3.1151,-0.66677 4.66076,-0.43453c1.44444,0.21675 3.01662,0.86785 3.97747,1.71307c0.96029,0.845 1.36742,1.87716 1.32923,2.95514c-0.03575,0.99377 -0.80468,1.82875 -1.43855,2.5819c-0.27364,0.32443 -0.82508,0.22184 -1.11455,0.5002c-0.1032,0.11208 0.04441,0.26659 0.08088,0.39584c0.1399,0.49432 0.56692,1.00436 0.41569,1.51436c-0.28462,1.03081 -0.63173,2.35035 -1.63243,2.78764c-1.21271,0.52968 -2.70746,0.11409 -3.95563,-0.37118c-1.51615,-0.59047 -3.03536,-1.53218 -3.99136,-2.81988c-1.03742,-1.398 -2.07576,-3.28011 -1.77026,-4.91964z" data-paper-data="{&quot;origPos&quot;:null,&quot;index&quot;:null,&quot;origRot&quot;:0}" fill="#ff9ad9"/></g><g data-paper-data="{&quot;index&quot;:null,&quot;origRot&quot;:0}" stroke="none" stroke-width="1" stroke-linecap="round"><path d="M224.83581,143.79308c-0.26663,1.05816 -0.47221,2.35592 -1.35008,3.02154c-1.1585,0.8775 -2.78737,1.72879 -4.11062,1.25399c-1.43529,-0.53909 -2.1516,-2.31519 -2.60172,-3.72125c-0.47764,-1.49226 -0.77506,-3.24315 -0.16213,-4.70258c0.61135,-1.39256 2.1025,-3.22906 3.52826,-2.92751c1.50176,0.31913 1.23367,2.99733 2.31519,4.0835c0.31916,0.34058 0.29969,-0.81291 0.56228,-1.14926c0.3408,-0.43256 0.57745,-0.95601 1.05974,-1.03322c0.47311,-0.06871 1.27197,0.03135 1.33587,0.50199c0.20224,1.47757 -0.19471,3.15202 -0.57676,4.67276z" fill="#ffffff"/><path d="M223.80287,165.60575l-4.9463,-19.16008l4.92384,-0.09111l5.73521,19.0804z" data-paper-data="{&quot;origPos&quot;:null}" fill="url(#color-2)"/></g><path d="M240.94289,230.70045h-13.99838l1.90269,-2.31034l6.11591,-2.03863v-5.70807l5.97977,0.2719z" data-paper-data="{&quot;index&quot;:null}" fill="url(#color-3)" stroke="none" stroke-width="1" stroke-linecap="round"/><path d="M250.56975,231.12644h-13.99838l1.90269,-2.31034l6.11591,-2.03863v-5.70807l5.97977,0.2719z" data-paper-data="{&quot;index&quot;:null}" fill="url(#color-4)" stroke="none" stroke-width="1" stroke-linecap="round"/><path d="M233.25095,157.11413c1.46546,0.79615 2.27224,2.78853 2.70377,4.47507c0.39722,1.55382 0.17084,3.32683 -0.3263,4.87608c-0.40992,1.2749 -1.02938,2.69731 -2.20492,3.30502c-0.97021,0.50133 -2.21345,-0.06086 -3.19314,-0.48955c-0.49127,-0.20401 -0.61811,-0.85701 -0.91372,-1.27717c-0.07736,-0.10978 -0.10427,-0.32175 -0.25634,-0.31228c-0.39855,0.0493 -0.66646,0.54209 -1.0908,0.55004c-0.98424,0.01745 -2.11713,0.08816 -2.91119,-0.51042c-0.861,-0.64978 -1.40573,-1.61639 -1.45655,-2.89451c-0.05063,-1.2787 0.43477,-2.90968 1.17688,-4.16772c0.79386,-1.34639 1.82116,-2.76255 3.27487,-3.34464c1.58643,-0.69395 3.67627,-1.03771 5.19746,-0.20989z" data-paper-data="{&quot;index&quot;:null}" fill="#ff9ad9" stroke="none" stroke-width="1" stroke-linecap="round"/><g data-paper-data="{&quot;index&quot;:null}" stroke-width="1"><path d="M258.3841,222.79005c1.22978,1.24145 1.99142,2.95564 1.99142,4.84685c0,1.89119 -0.76165,3.60541 -1.99142,4.84663c-1.23035,1.24081 -2.92903,2.00928 -4.80404,2.00928c-1.87481,0 -3.57348,-0.76849 -4.80385,-2.00928c-1.22978,-1.24124 -1.99142,-2.95542 -1.99142,-4.84663c0,-1.89119 0.76165,-3.60541 1.99142,-4.84685c1.23035,-1.24057 2.92903,-2.00905 4.80385,-2.00905c1.875,0 3.57367,0.76849 4.80404,2.00905z" fill="#ff64b1" stroke="none" stroke-linecap="butt"/><path d="M245.62744,223.4497c1.37749,1.24145 2.23052,2.95564 2.23052,4.84685c0,1.89119 -0.85303,3.60541 -2.23052,4.84663c-1.37786,1.24081 -3.28036,2.00928 -5.38024,2.00928c-2.10007,0 -4.00238,-0.76849 -5.38044,-2.00928c-1.3773,-1.24124 -2.23033,-2.95542 -2.23033,-4.84663c0,-1.89119 0.85303,-3.60541 2.23033,-4.84685c1.37805,-1.24057 3.28036,-2.00905 5.38044,-2.00905c2.09988,0 4.00238,0.76849 5.38024,2.00905z" fill="#ff64b1" stroke="none" stroke-linecap="butt"/><path d="M232.19202,223.7795c1.30354,1.24145 2.11088,2.95564 2.11088,4.84685c0,1.89119 -0.80734,3.60541 -2.11088,4.84663c-1.30411,1.24081 -3.1046,2.00928 -5.09203,2.00928c-1.98764,0 -3.78812,-0.76849 -5.09224,-2.00928c-1.30354,-1.24124 -2.11088,-2.95542 -2.11088,-4.84663c0,-1.89119 0.80734,-3.60541 2.11088,-4.84685c1.30411,-1.24057 3.1046,-2.00905 5.09224,-2.00905c1.98744,0 3.78793,0.76849 5.09203,2.00905z" fill="#ff64b1" stroke="none" stroke-linecap="butt"/><path d="M258.6302,225.71052l-38.05381,1.73378l7.06715,-46.49418l10.87235,-11.50553l13.18308,6.77719z" fill="#ff9ad9" stroke="none" stroke-linecap="round"/><path d="M231.64899,230.59761c-1.20399,1.1027 -2.78285,1.73246 -4.56361,1.73246c-1.78078,0 -3.3947,-0.66251 -4.56361,-1.73246c-1.16854,-1.06972 -2.08736,-2.56382 -1.89188,-4.17775c0.4943,-4.06386 1.37958,-10.30123 3.89638,-11.48969c2.26673,-0.74628 5.44187,5.59708 9.0146,11.48969c0.31588,1.51168 -0.76675,3.14783 -1.89188,4.17775z" fill="#ff9ad9" stroke="none" stroke-linecap="round"/><path d="M240.57637,176.8702c-0.383,-0.35401 -0.44083,-1.13635 -0.87597,-1.17373c-0.35798,-0.02969 -0.41316,0.57521 -0.69225,0.93604c-1.29386,1.46639 -2.23792,3.53239 -3.85507,4.34464c-2.36003,1.14009 -5.11422,1.8204 -7.63161,1.25488c-0.89589,-0.20845 -0.70704,-2.22411 -0.67556,-3.4649c0.11681,-1.36107 0.26032,-2.90925 1.10653,-4.10013c1.94857,-2.72807 4.4781,-5.07684 7.04972,-6.78907c1.53695,-1.02245 3.43716,-1.80457 5.17774,-1.42418c3.18556,0.69614 6.32617,2.36702 8.8377,4.73097c1.50414,1.44154 2.30901,3.1353 2.84958,5.0377c0.37826,1.32918 1.10692,3.52471 0.13993,4.25999c-1.89871,1.21397 -4.34955,0.6713 -6.39898,-0.00329c-1.88886,-0.62183 -3.3964,-2.32964 -5.03176,-3.60891z" fill="#ff64b1" stroke="none" stroke-linecap="round"/><path d="M245.52715,222.24188c1.37749,1.06994 2.23052,2.54777 2.23052,4.17797c0,1.63021 -0.85303,3.10803 -2.23052,4.17775c-1.37805,1.06994 -3.28073,1.73246 -5.38024,1.73246c-2.09951,0 -4.00219,-0.66251 -5.38024,-1.73246c-1.37749,-1.06972 -2.23052,-2.54755 -2.23052,-4.17775c0,-1.63021 0.85303,-3.10803 2.23052,-4.17797c1.37805,-1.06972 3.28073,-1.73223 5.38024,-1.73223c2.09951,0 4.00219,0.66251 5.38024,1.73223z" fill="#ff9ad9" stroke="none" stroke-linecap="butt"/><path d="M255.08251,207.25739c1.75859,5.94053 3.50902,12.25883 4.14991,18.39287c0.16969,1.61964 -0.72354,3.10803 -1.89188,4.17775c-1.16891,1.06994 -2.78285,1.73246 -4.56361,1.73246c-1.78078,0 -3.33288,-0.6051 -4.56361,-1.73246c-1.09289,-1.00112 -2.2963,-2.51851 -1.89188,-4.19359c1.61696,-6.69826 4.57651,-12.83494 7.40069,-18.84979c0.72581,-1.43121 0.92053,-1.01255 1.36042,0.47275z" fill="#ff9ad9" stroke="none" stroke-linecap="round"/><path d="M244.34078,196.99441l3.12583,31.99431" fill="none" stroke="#e187c4" stroke-linecap="round"/><path d="M233.19635,228.98874l2.99008,-31.99431" fill="none" stroke="#e187c4" stroke-linecap="round"/></g><g data-paper-data="{&quot;index&quot;:null}" stroke-width="1"><path d="M245.04897,156.36958c1.328,1.37749 2.16093,3.46826 2.1505,5.38005c-0.01421,2.65049 -0.45089,5.70315 -2.16606,7.902c-1.12911,1.43209 -3.49463,1.94421 -5.44356,2.03844c-1.74873,-0.04608 -3.89942,-0.57242 -4.87362,-1.9061c-1.68218,-2.2819 -2.2254,-5.35256 -2.19449,-8.03434c0.02276,-1.91065 0.82251,-4.00256 2.15069,-5.38005c1.32856,-1.37768 3.16356,-2.2307 5.18817,-2.2307c2.02479,0 3.85961,0.85303 5.18837,2.2307z" fill="#ff9ad9" stroke="none" stroke-linecap="round"/><path d="M241.92957,158.56084c0.48596,0.65186 0.78648,1.55211 0.78648,2.54583c0,0.99372 -0.30052,1.89396 -0.78648,2.54583c-0.48539,0.65225 -1.15641,1.05572 -1.89625,1.05572c-0.74003,0 -1.41104,-0.40348 -1.89644,-1.05572c-0.48596,-0.65186 -0.78648,-1.55211 -0.78648,-2.54583c0,-0.99372 0.30052,-1.89396 0.78648,-2.54583c0.48539,-0.65244 1.15641,-1.05572 1.89644,-1.05572c0.73984,0 1.41086,0.4033 1.89625,1.05572z" fill="#4eddff" stroke="#ffe741" stroke-linecap="butt"/><path d="M241.5003,159.22958c0.19681,0.30773 0.31854,0.73225 0.31854,1.20078c0,0.46871 -0.12173,0.89323 -0.31854,1.20097c-0.19681,0.30773 -0.46871,0.49789 -0.76865,0.49789c-0.30014,0 -0.57184,-0.19018 -0.76865,-0.49789c-0.19681,-0.30773 -0.31854,-0.73225 -0.31854,-1.20097c0,-0.46851 0.12173,-0.89305 0.31854,-1.20078c0.19681,-0.30773 0.46851,-0.49789 0.76865,-0.49789c0.29995,0 0.57184,0.19018 0.76865,0.49789z" fill="#a0ffff" stroke="none" stroke-linecap="butt"/></g><g data-paper-data="{&quot;index&quot;:null}" stroke="none" stroke-width="1"><path d="M244.9296,130.96634l-9.31131,-0.49164l-0.62924,-6.37613l2.11722,1.36751l3.31101,-2.94833l1.82628,3.21958l4.24523,-1.12815z" fill="url(#color-5)" stroke-linecap="round"/><path d="M240.67598,125.93591c0.18852,0.29587 0.29365,0.69552 0.27072,1.12961c-0.02293,0.43409 -0.16954,0.82046 -0.38814,1.09482c-0.21858,0.27373 -0.50855,0.4355 -0.81871,0.41913c-0.31017,-0.01639 -0.58145,-0.2078 -0.77001,-0.503c-0.18849,-0.2959 -0.29361,-0.69552 -0.27069,-1.12961c0.02293,-0.43413 0.16954,-0.82047 0.38814,-1.09485c0.21858,-0.2737 0.50855,-0.4355 0.81871,-0.41913c0.31013,0.01639 0.58145,0.2078 0.76997,0.50304z" fill="#ff4949" stroke-linecap="butt"/><path d="M236.46194,126.42083c0.11867,0.2528 0.19864,0.60408 0.2118,0.99468c0.0132,0.39058 -0.0429,0.74648 -0.14425,1.00669c-0.10138,0.25968 -0.24766,0.42369 -0.4153,0.42934c-0.16762,0.00565 -0.32466,-0.14813 -0.44332,-0.40035c-0.11867,-0.2528 -0.1986,-0.60413 -0.21179,-0.99468c-0.0132,-0.39058 0.0429,-0.74648 0.14425,-1.00669c0.10138,-0.25968 0.24769,-0.42369 0.41532,-0.42934c0.16762,-0.00568 0.32462,0.14813 0.44329,0.40035z" fill="#4dddff" stroke-linecap="butt"/><path d="M244.67299,126.99087c0.10141,0.28339 0.12417,0.64961 0.04424,1.03213c-0.07997,0.38254 -0.24753,0.70895 -0.45397,0.92802c-0.20631,0.21852 -0.45105,0.32976 -0.68556,0.28074c-0.23453,-0.04903 -0.41421,-0.24899 -0.51576,-0.53185c-0.10141,-0.28339 -0.12417,-0.64961 -0.04424,-1.03213c0.07997,-0.38254 0.24754,-0.70895 0.45398,-0.92802c0.20631,-0.21849 0.45107,-0.32976 0.68556,-0.28075c0.23453,0.04903 0.41421,0.24899 0.51576,0.53185z" fill="#4dddff" stroke-linecap="butt"/></g><path d="M252.02984,152.19352c0.90599,0.76842 2.35486,-0.42109 3.53758,-0.65036c0.43739,-0.08445 1.58768,-0.63803 1.33015,-0.15514c-1.03572,1.73935 -2.06173,3.92031 -3.98358,4.71587c-2.29083,0.94862 -5.08216,0.52241 -7.60905,0.14558c-1.22521,-0.2173 -2.50914,-0.8756 -3.29659,-1.87279c-0.90331,-1.14435 -1.57953,-2.75901 -1.24302,-4.16246c0.94071,-3.92028 1.65078,-8.46769 4.68517,-11.11829c1.82527,-1.51931 5.90903,-0.92245 7.08494,1.01801c1.33618,2.20975 -1.64124,4.90719 -1.71841,7.50787c-0.09552,1.53399 -0.07643,3.47589 1.21278,4.57169z" data-paper-data="{&quot;index&quot;:null}" fill="url(#color-6)" stroke="none" stroke-width="1" stroke-linecap="round"/><path d="M228.79523,145.67494c0.4678,-2.27035 0.44801,-5.01976 1.94883,-6.65854c0.93903,-1.02001 3.13784,-0.78609 4.04935,0.31037c1.77356,2.13818 2.37734,5.17988 2.77192,8.00254c0.31087,1.80207 -0.01373,3.80244 -0.7226,5.43543c-0.53778,1.23115 -1.48877,2.62082 -2.67716,2.85298c-2.24156,0.43222 -4.86129,0.53604 -6.78359,-0.77673c-1.63419,-1.1153 -2.04733,-3.79599 -2.5431,-5.73662c-0.12869,-0.5329 0.98682,0.73662 1.55549,0.79046c0.81901,0.07608 2.02588,0.24221 2.49892,-0.57641c0.56862,-1.01187 -0.34181,-2.45858 -0.09805,-3.64347z" data-paper-data="{&quot;index&quot;:null}" fill="url(#color-7)" stroke="none" stroke-width="1" stroke-linecap="round"/><path d="M248.82077,137.94502c1.59497,2.26785 0.75514,5.56623 0.343,8.26062c-0.31829,2.04965 -1.0914,4.21371 -2.47729,5.60036c-1.97873,1.97804 -4.48742,4.25394 -7.2024,4.19174c-2.56861,-0.05965 -4.7022,-2.40874 -6.47172,-4.33419c-1.27408,-1.38028 -2.0766,-3.46398 -2.20487,-5.4612c-0.26514,-2.94715 -0.92603,-6.603 1.06177,-8.89481c2.08458,-2.40068 5.91548,-2.69683 9.02019,-2.61467c2.84543,0.14121 6.26081,0.87985 7.9313,3.25215z" data-paper-data="{&quot;index&quot;:null}" fill="#ffe6bd" stroke="none" stroke-width="1" stroke-linecap="round"/><path d="M245.2023,142.80453c0.36017,0.50843 0.5641,1.19535 0.52479,1.93961c-0.0393,0.74426 -0.31441,1.40588 -0.72613,1.87355c-0.41235,0.46761 -0.9849,0.66469 -1.55146,0.71077c-0.71075,0.05777 -1.57464,0.14996 -2.0253,-0.36453c-0.5102,-0.58136 -0.51182,-1.47782 -0.40013,-2.17836c0.15545,-0.82182 0.6327,-1.59192 1.15878,-2.14046c0.39525,-0.41186 0.96259,-0.74189 1.55146,-0.71077c0.58884,0.03108 1.10716,0.36176 1.46797,0.87017z" data-paper-data="{&quot;index&quot;:null}" fill="#ffffff" stroke="none" stroke-width="1" stroke-linecap="round"/><path d="M236.13722,141.93766c0.58884,0.03108 1.11829,0.419 1.46797,0.87021c0.46539,0.60088 0.85889,1.41695 0.92694,2.2506c0.0373,0.70836 -0.05873,1.5997 -0.6273,2.1241c-0.50234,0.46416 -1.35171,0.2815 -2.05244,0.1492c-0.55852,-0.10547 -1.10715,-0.36176 -1.46797,-0.87021c-0.36017,-0.50839 -0.5641,-1.19532 -0.52479,-1.93957c0.0393,-0.74426 0.31441,-1.40588 0.72613,-1.87355c0.41235,-0.46761 0.96259,-0.74189 1.55146,-0.71077z" data-paper-data="{&quot;index&quot;:null}" fill="#ffffff" stroke="none" stroke-width="1" stroke-linecap="round"/><path d="M244.72657,143.77207c0.23231,0.34407 0.36292,0.80989 0.33626,1.31488c-0.02665,0.50493 -0.20558,0.95443 -0.47287,1.27212c-0.26729,0.31826 -0.6236,0.50523 -1.00441,0.48511c-0.38078,-0.0201 -0.71544,-0.24354 -0.94775,-0.58817c-0.23231,-0.34407 -0.3629,-0.80992 -0.33626,-1.31488c0.02665,-0.50497 0.20561,-0.95446 0.47287,-1.27214c0.26729,-0.31826 0.6236,-0.50523 1.00441,-0.48511c0.38078,0.0201 0.71544,0.24359 0.94775,0.58821z" data-paper-data="{&quot;index&quot;:null}" fill="#4eddff" stroke="none" stroke-width="1" stroke-linecap="butt"/><path d="M237.7809,143.80082c0.23324,0.32666 0.36509,0.76842 0.33985,1.24678c-0.02527,0.4784 -0.20292,0.9038 -0.46926,1.20407c-0.26638,0.30081 -0.62214,0.47697 -1.00292,0.45685c-0.38081,-0.0201 -0.71603,-0.23275 -0.94924,-0.55992c-0.23327,-0.32666 -0.36512,-0.76842 -0.33985,-1.24678c0.02524,-0.4784 0.20288,-0.9038 0.46926,-1.20407c0.26638,-0.30081 0.6221,-0.47697 1.00292,-0.45685c0.38078,0.0201 0.716,0.23275 0.94924,0.55992z" data-paper-data="{&quot;index&quot;:null}" fill="#4eddff" stroke="none" stroke-width="1" stroke-linecap="butt"/><path d="M244.46127,144.32815c0.14136,0.24912 0.21881,0.58755 0.1994,0.95496c-0.01936,0.36743 -0.13201,0.69581 -0.29888,0.92866c-0.16687,0.23339 -0.3873,0.37131 -0.62234,0.35891c-0.23501,-0.01243 -0.4397,-0.17277 -0.58108,-0.42246c-0.1414,-0.24912 -0.21883,-0.58755 -0.19941,-0.95496c0.0194,-0.36741 0.13204,-0.6958 0.29888,-0.92862c0.16689,-0.23343 0.38731,-0.37134 0.62233,-0.35891c0.23505,0.0124 0.43974,0.17275 0.5811,0.42242z" data-paper-data="{&quot;index&quot;:null}" fill="#0f1f43" stroke="none" stroke-width="1" stroke-linecap="butt"/><path d="M237.60386,144.27306c0.14155,0.24621 0.21919,0.5806 0.20004,0.94359c-0.01919,0.36299 -0.1316,0.68737 -0.29832,0.91731c-0.1667,0.2305 -0.38704,0.36661 -0.62209,0.35421c-0.23501,-0.01243 -0.4398,-0.17099 -0.58132,-0.41777c-0.14152,-0.24621 -0.21919,-0.5806 -0.20004,-0.9436c0.01919,-0.36299 0.1316,-0.68737 0.29832,-0.9173c0.1667,-0.2305 0.38704,-0.36661 0.62209,-0.35421c0.23505,0.01243 0.4398,0.17099 0.58132,0.41777z" data-paper-data="{&quot;index&quot;:null}" fill="#0f1f43" stroke="none" stroke-width="1" stroke-linecap="butt"/><path d="M240.54502,148.55309c0,0 -0.46386,0.80876 -0.84678,0.79242c-0.37654,-0.01538 -0.72652,-0.87551 -0.72652,-0.87551" data-paper-data="{&quot;index&quot;:null}" fill="none" stroke="#e1cba6" stroke-width="1" stroke-linecap="round"/><path d="M231.40712,146.02218c0.1819,0.20149 0.28671,0.47298 0.27126,0.76516c-0.01541,0.29218 -0.14822,0.55113 -0.35035,0.73236c-0.20149,0.1819 -0.47298,0.28669 -0.76516,0.27126c-0.29218,-0.01541 -0.55113,-0.14822 -0.73233,-0.35035c-0.18193,-0.20149 -0.28671,-0.47298 -0.27129,-0.76516c0.01544,-0.29218 0.14826,-0.55113 0.35035,-0.73236c0.20149,-0.1819 0.47298,-0.28669 0.76516,-0.27126c0.29218,0.01541 0.55113,0.14822 0.73236,0.35035z" data-paper-data="{&quot;index&quot;:null}" fill="#4eddff" stroke="none" stroke-width="1" stroke-linecap="butt"/><path d="M231.47882,141.03272c0.26373,0.52974 0.40606,1.24945 0.36463,2.03352c-0.04138,0.78409 -0.25871,1.4848 -0.57676,1.98381c-0.31739,0.49903 -0.73556,0.79637 -1.17868,0.77295c-0.4431,-0.02338 -0.82762,-0.36309 -1.0907,-0.89279c-0.26373,-0.52971 -0.40606,-1.24944 -0.36463,-2.0335c0.04138,-0.78409 0.25871,-1.4848 0.57676,-1.98384c0.31739,-0.49903 0.73556,-0.79637 1.17868,-0.77295c0.44306,0.02341 0.82762,0.36309 1.0907,0.89279z" data-paper-data="{&quot;index&quot;:null}" fill="#ffe6bd" stroke="none" stroke-width="1" stroke-linecap="butt"/><path d="M249.83121,147.43333c0.1819,0.20149 0.28669,0.47298 0.27126,0.76516c-0.01541,0.29218 -0.14822,0.55113 -0.35034,0.73236c-0.20149,0.1819 -0.47298,0.28669 -0.76516,0.27126c-0.29218,-0.01541 -0.55113,-0.14822 -0.73233,-0.35034c-0.18193,-0.20149 -0.28671,-0.47298 -0.27129,-0.76516c0.01544,-0.29218 0.14826,-0.55113 0.35034,-0.73236c0.20149,-0.1819 0.47298,-0.28669 0.76516,-0.27126c0.29218,0.01541 0.55113,0.14822 0.73236,0.35034z" data-paper-data="{&quot;index&quot;:null}" fill="#4eddff" stroke="none" stroke-width="1" stroke-linecap="butt"/><path d="M250.8384,142.74512c0.26373,0.52974 0.40606,1.24945 0.36465,2.03352c-0.04139,0.78409 -0.25871,1.4848 -0.57676,1.98381c-0.31739,0.49903 -0.73557,0.79637 -1.17868,0.77296c-0.4431,-0.02338 -0.82762,-0.36309 -1.0907,-0.89279c-0.26373,-0.52971 -0.40606,-1.24945 -0.36463,-2.03351c0.04138,-0.78409 0.25871,-1.4848 0.57676,-1.98384c0.31739,-0.49903 0.73556,-0.79636 1.17868,-0.77295c0.44306,0.02341 0.82762,0.36309 1.0907,0.89279z" data-paper-data="{&quot;index&quot;:null}" fill="#ffe6bd" stroke="none" stroke-width="1" stroke-linecap="butt"/><path d="M232.16,137.58628c0.27278,1.63908 -0.03422,3.48967 0.06,4.96156c0.07741,1.18057 0.13648,2.39111 0.45737,3.53366c0.30893,1.10073 1.49057,2.27137 1.43584,3.29556c-0.02889,0.46212 -1.23064,-0.02312 -1.75235,-0.3501c-0.80882,-0.56046 -1.68437,-1.22356 -2.07313,-2.20231c-0.54147,-1.36802 -0.42509,-2.92537 -0.41161,-4.40061c0.01364,-1.29488 0.14832,-2.89443 0.54825,-4.28548c0.12513,-0.43063 0.43497,-1.05499 0.9077,-1.33656c0.35389,0.01738 0.76043,0.39171 0.82794,0.78425z" data-paper-data="{&quot;index&quot;:null}" fill="url(#color-8)" stroke="none" stroke-width="1" stroke-linecap="round"/><path d="M248.53849,137.49307c0.44043,0.3298 0.68284,0.98329 0.76191,1.42472c0.25121,1.42546 0.21672,3.03028 0.0939,4.31942c-0.14194,1.46844 -0.19019,3.02939 -0.87272,4.33278c-0.48968,0.93234 -1.43016,1.49957 -2.29353,1.97172c-0.55325,0.27025 -1.79941,0.62623 -1.7795,0.16364c0.05344,-1.02427 1.35182,-2.06398 1.77494,-3.12604c0.43941,-1.1024 0.62566,-2.29998 0.82695,-3.46586c0.24868,-1.45376 0.13827,-3.32643 0.58215,-4.92765c0.10845,-0.38323 0.55216,-0.71267 0.90588,-0.69273z" data-paper-data="{&quot;index&quot;:null}" fill="url(#color-9)" stroke="none" stroke-width="1" stroke-linecap="round"/><path d="M246.82418,130.88689c1.39443,0.90883 1.94439,2.74996 3.28114,3.71499c1.09039,0.78973 3.15896,0.1024 3.87141,1.07374c0.46544,0.63697 -1.71981,1.3748 -1.56354,2.17126c0.1428,0.6985 1.99831,-0.08769 2.05991,0.62391c0.11942,1.37214 -0.39648,3.28897 -1.66016,4.00142c-1.39805,0.68347 -3.37511,0.19788 -4.69783,-0.66659c-1.42173,-0.92894 -1.90705,-2.82396 -2.83494,-4.23877c-0.24905,-0.35701 -0.20789,-0.84361 -0.44605,-0.6997c-0.73057,0.44569 -0.95364,1.414 -1.64968,1.97353c-1.17455,0.95093 -2.20787,2.60605 -3.74186,2.57142c-1.34683,-0.03054 -2.17798,-1.64375 -3.01263,-2.70267c-0.70105,-0.89413 -0.82739,-2.18483 -1.61168,-3.01505c-0.17311,-0.2339 -0.30134,0.3537 -0.51722,0.64884c-0.85782,1.17239 -1.227,2.8832 -2.50672,3.57034c-1.03384,0.55456 -2.56861,0.36407 -3.52341,-0.34704c-1.04777,-0.81583 -1.97672,-2.32084 -1.73998,-3.63357c0.1954,-0.95687 2.4349,-0.40463 2.69556,-1.04897c0.20054,-0.50523 -1.96652,-0.95257 -1.60179,-1.37248c0.62825,-0.70285 2.50206,-0.32317 3.58781,-0.87306c1.50655,-0.76275 2.38036,-2.35998 4.0867,-3.00395c1.81286,-0.6854 3.80421,-0.97115 5.77115,-0.7578c2.01752,0.21922 4.05365,0.90239 5.75381,2.01025z" data-paper-data="{&quot;index&quot;:null}" fill="url(#color-10)" stroke="none" stroke-width="1" stroke-linecap="round"/><g data-paper-data="{&quot;index&quot;:null}" fill="none" stroke="#000000" stroke-width="0.5" stroke-linecap="round"><path d="M233.44489,143.08896c0,0 1.27238,-1.00143 2.0531,-1.10383c0.51559,-0.06729 1.46083,0.6436 1.46083,0.6436"/><path d="M234.20133,142.40495c0,0 -0.62562,-0.29652 -0.91711,-0.48051c-0.21089,-0.13167 -0.5213,-0.44222 -0.5213,-0.44222"/><path d="M234.85913,141.91287c0,0 -0.57229,-0.38967 -0.83188,-0.61649c-0.18794,-0.16265 -0.44668,-0.51743 -0.44668,-0.51743"/><path d="M235.84061,141.8857c0,0 -0.44009,-0.53448 -0.62566,-0.82499c-0.13481,-0.20885 -0.28369,-0.62191 -0.28369,-0.62191"/></g><g data-paper-data="{&quot;index&quot;:null}" fill="none" stroke="#000000" stroke-width="0.5" stroke-linecap="round"><path d="M242.48228,142.82594c0,0 1.01484,-0.60739 1.52048,-0.48616c0.7656,0.18404 1.92542,1.31388 1.92542,1.31388"/><path d="M246.77792,142.13466c0,0 -0.34139,0.2761 -0.56496,0.38484c-0.30925,0.15224 -0.96266,0.38126 -0.96266,0.38126"/><path d="M246.16872,141.21897c0,0 -0.29462,0.32558 -0.49869,0.46754c-0.28201,0.19819 -0.89216,0.52545 -0.89216,0.52545"/><path d="M244.8111,140.73303c0,0 -0.19154,0.39509 -0.34762,0.58859c-0.21513,0.26933 -0.70907,0.75451 -0.70907,0.75451"/></g><g data-paper-data="{&quot;index&quot;:null}" stroke-width="1" stroke-linecap="round"><path d="M240.61327,150.94408c0.40806,0.13829 1.38366,0.04043 1.30625,0.3966c-0.13264,0.60995 -0.98016,1.33094 -1.72673,1.60346c-0.68698,0.21729 -1.53764,0.07132 -2.17506,-0.27177c-0.54978,-0.29577 -1.15164,-1.0437 -1.04611,-1.53018c0.08844,-0.39452 0.96092,-0.18589 1.44035,-0.31435c0.36972,-0.09909 0.6885,-0.29504 1.11813,-0.27236c0.42958,0.02268 0.72005,0.26586 1.08319,0.38858z" fill="#ffa2bf" stroke="none"/><path d="M241.53932,151.68573c0,0 -1.28224,0.57625 -2.05839,0.56747c-0.72802,-0.01719 -2.0903,-0.65772 -2.0903,-0.65772" fill="none" stroke="#cc8198"/></g></g></g></svg>