<svg version="1.1" xmlns="http://www.w3.org/2000/svg" xmlns:xlink="http://www.w3.org/1999/xlink" width="29.50163" height="36.67061" viewBox="0,0,29.50163,36.67061"><defs><linearGradient x1="240.00001" y1="164.47226" x2="240.00001" y2="195.52773" gradientUnits="userSpaceOnUse" id="color-1"><stop offset="0" stop-color="#0160c0"/><stop offset="1" stop-color="#23f4f4"/></linearGradient><linearGradient x1="240" y1="164.47227" x2="240" y2="195.52774" gradientUnits="userSpaceOnUse" id="color-2"><stop offset="0" stop-color="#e67c02"/><stop offset="1" stop-color="#ffd000"/></linearGradient></defs><g transform="translate(-225.15266,-161.8473)"><g data-paper-data="{&quot;isPaintingLayer&quot;:true}" fill-rule="nonzero" stroke="#000000" stroke-linecap="butt" stroke-linejoin="miter" stroke-miterlimit="10" stroke-dasharray="" stroke-dashoffset="0" style="mix-blend-mode: normal"><path d="M237.46993,164.47226l10.81484,2.18282c2.28203,3.5388 3.57188,5.58932 3.86953,6.15156c0,0.06613 -3.80338,7.63983 -11.41015,22.72109c-5.35781,-1.5875 -8.13594,-2.38125 -8.33438,-2.38125v-0.0992l4.36563,-9.12812c-5.09323,-3.15847 -8.0698,-5.10977 -8.92969,-5.85391c0.46302,-2.82773 1.05833,-6.00273 1.78594,-9.525zM237.76758,170.82225c-0.09921,0.23151 -0.76067,1.2237 -1.98437,2.97657v0.0992c0.38034,2.18281 0.71107,3.27421 0.99219,3.27421c0.24805,0 1.60404,0.13229 4.06797,0.39688c1.73633,-2.06706 2.82773,-3.42305 3.27421,-4.06797c-0.09921,0 -0.56223,-0.69453 -1.38906,-2.08359c-3.04271,-0.39688 -4.69635,-0.59532 -4.96094,-0.59532z" data-paper-data="{&quot;origPos&quot;:null}" fill="url(#color-1)" stroke-width="5"/><path d="M237.46993,164.47227l10.81484,2.18282c2.28203,3.5388 3.57188,5.58932 3.86953,6.15156c0,0.06613 -3.80338,7.63983 -11.41015,22.72109c-5.35781,-1.5875 -8.13594,-2.38125 -8.33438,-2.38125v-0.0992l4.36563,-9.12812c-5.09323,-3.15847 -8.0698,-5.10977 -8.92969,-5.85391c0.46302,-2.82773 1.05833,-6.00273 1.78594,-9.525zM237.76758,170.82227c-0.09921,0.23151 -0.76067,1.2237 -1.98437,2.97657v0.0992c0.38034,2.18281 0.71107,3.27421 0.99219,3.27421c0.24805,0 1.60404,0.13229 4.06797,0.39688c1.73633,-2.06706 2.82773,-3.42305 3.27421,-4.06797c-0.09921,0 -0.56223,-0.69453 -1.38906,-2.08359c-3.04271,-0.39688 -4.69635,-0.59532 -4.96094,-0.59532z" data-paper-data="{&quot;origPos&quot;:null}" fill="url(#color-2)" stroke-width="0"/></g></g></svg>