<svg version="1.1" xmlns="http://www.w3.org/2000/svg" xmlns:xlink="http://www.w3.org/1999/xlink" width="190.54575" height="43.5103" viewBox="0,0,190.54575,43.5103"><defs><linearGradient x1="119.41283" y1="164.03768" x2="119.41283" y2="195.96209" gradientUnits="userSpaceOnUse" id="color-1"><stop offset="0" stop-color="#6d6bff"/><stop offset="1" stop-color="#1620db"/></linearGradient><linearGradient x1="152.47077" y1="164.03778" x2="152.47077" y2="195.96232" gradientUnits="userSpaceOnUse" id="color-2"><stop offset="0" stop-color="#6d6bff"/><stop offset="1" stop-color="#1620db"/></linearGradient><linearGradient x1="203.86053" y1="164.03771" x2="203.86053" y2="195.96223" gradientUnits="userSpaceOnUse" id="color-3"><stop offset="0" stop-color="#6d6bff"/><stop offset="1" stop-color="#1620db"/></linearGradient><linearGradient x1="238.96272" y1="164.03778" x2="238.96272" y2="195.96232" gradientUnits="userSpaceOnUse" id="color-4"><stop offset="0" stop-color="#6d6bff"/><stop offset="1" stop-color="#1620db"/></linearGradient><linearGradient x1="275.7212" y1="164.13594" x2="275.7212" y2="195.96222" gradientUnits="userSpaceOnUse" id="color-5"><stop offset="0" stop-color="#6d6bff"/><stop offset="1" stop-color="#1620db"/></linearGradient><linearGradient x1="309.89085" y1="164.03778" x2="309.89085" y2="195.96219" gradientUnits="userSpaceOnUse" id="color-6"><stop offset="0" stop-color="#6d6bff"/><stop offset="1" stop-color="#1620db"/></linearGradient><linearGradient x1="344.47772" y1="164.03778" x2="344.47772" y2="195.96232" gradientUnits="userSpaceOnUse" id="color-7"><stop offset="0" stop-color="#6d6bff"/><stop offset="1" stop-color="#1620db"/></linearGradient><linearGradient x1="369.71544" y1="164.94537" x2="369.71544" y2="195.96202" gradientUnits="userSpaceOnUse" id="color-8"><stop offset="0" stop-color="#6d6bff"/><stop offset="1" stop-color="#1620db"/></linearGradient><linearGradient x1="119.41284" y1="164.03768" x2="119.41284" y2="195.9621" gradientUnits="userSpaceOnUse" id="color-9"><stop offset="0" stop-color="#6d6bff"/><stop offset="1" stop-color="#1620db"/></linearGradient><linearGradient x1="152.47079" y1="164.03778" x2="152.47079" y2="195.9623" gradientUnits="userSpaceOnUse" id="color-10"><stop offset="0" stop-color="#6d6bff"/><stop offset="1" stop-color="#1620db"/></linearGradient><linearGradient x1="203.86056" y1="164.03764" x2="203.86056" y2="195.9622" gradientUnits="userSpaceOnUse" id="color-11"><stop offset="0" stop-color="#6d6bff"/><stop offset="1" stop-color="#1620db"/></linearGradient><linearGradient x1="238.96271" y1="164.03778" x2="238.96271" y2="195.9623" gradientUnits="userSpaceOnUse" id="color-12"><stop offset="0" stop-color="#6d6bff"/><stop offset="1" stop-color="#1620db"/></linearGradient><linearGradient x1="275.72121" y1="164.13594" x2="275.72121" y2="195.9622" gradientUnits="userSpaceOnUse" id="color-13"><stop offset="0" stop-color="#6d6bff"/><stop offset="1" stop-color="#1620db"/></linearGradient><linearGradient x1="309.89087" y1="164.03778" x2="309.89087" y2="195.9622" gradientUnits="userSpaceOnUse" id="color-14"><stop offset="0" stop-color="#6d6bff"/><stop offset="1" stop-color="#1620db"/></linearGradient><linearGradient x1="344.47775" y1="164.03778" x2="344.47775" y2="195.9623" gradientUnits="userSpaceOnUse" id="color-15"><stop offset="0" stop-color="#6d6bff"/><stop offset="1" stop-color="#1620db"/></linearGradient><linearGradient x1="369.71544" y1="164.94536" x2="369.71544" y2="195.96202" gradientUnits="userSpaceOnUse" id="color-16"><stop offset="0" stop-color="#6d6bff"/><stop offset="1" stop-color="#1620db"/></linearGradient></defs><g transform="translate(-186.67128,-154.93032)"><g data-paper-data="{&quot;isPaintingLayer&quot;:true}" fill-rule="nonzero" stroke-linecap="butt" stroke-linejoin="miter" stroke-miterlimit="10" stroke-dasharray="" stroke-dashoffset="0" style="mix-blend-mode: normal"><g stroke="#ffffff" stroke-width="4"><path d="" fill="url(#color-1)"/><path d="" fill="url(#color-2)"/><path d="M207.95845,164.03778c5.88921,2.97733 8.9156,4.466 9.07918,4.466c0,0.26181 -1.22688,2.62564 -3.68073,7.09158h-0.17176c-0.1963,0 -3.01823,-1.33324 -8.46576,-3.99974l-2.77283,3.70529c4.69502,2.25753 10.39609,5.1367 17.10324,8.63754c-3.04276,5.41479 -5.20215,9.01373 -6.47814,10.79686l-13.86416,1.22692c-6.33091,-4.26966 -9.67632,-6.47815 -10.03621,-6.62537v-0.17188c0,-0.45804 1.28415,-2.56018 3.85252,-6.30636h0.31899c1.01425,0.60527 4.19606,2.34751 9.54545,5.22671l3.23906,-3.68078c-9.8317,-5.00582 -15.27923,-7.83592 -16.34256,-8.49029v-0.1472c3.12455,-6.08553 4.82588,-9.1692 5.10397,-9.25098c8.13038,-1.65225 12.65364,-2.47837 13.56974,-2.47837z" fill="url(#color-3)"/><path d="M256.1273,164.03778l0.14725,0.3191c-0.42534,6.24909 -0.74433,9.37365 -0.95699,9.37365h-0.14725c-6.75623,-0.53983 -10.51879,-0.85883 -11.28766,-0.95696v21.76552c0,0.3926 -1.53774,0.65437 -4.61321,0.78527c0,0.11461 -1.74222,0.32725 -5.22668,0.63796l-0.17175,-0.3191c0.75252,-12.98897 1.23511,-20.66128 1.44775,-23.01697c-2.58471,0.40896 -6.39632,0.93246 -11.43486,1.57046c-1.48867,-5.56202 -2.23301,-8.41667 -2.23301,-8.56388c0,-0.21272 11.49213,-0.74439 34.47642,-1.59501z" fill="url(#color-4)"/><path d="M268.29834,164.13594c9.07919,1.30871 14.08504,2.07758 15.01749,2.30664c0,0.13075 3.12453,9.49623 9.37365,28.09643c-0.65436,0.24533 -4.42509,0.71974 -11.31218,1.42321c-0.4744,-1.60316 -1.00606,-4.08154 -1.595,-7.43513c-5.88921,0.53983 -8.83382,1.01425 -8.83382,1.42327l-1.59499,5.66836h-0.17176c-6.95253,-1.27602 -10.4288,-2.04489 -10.4288,-2.30662c5.54568,-17.34043 8.72746,-27.06582 9.54541,-29.17614zM273.05879,181.1165h5.32482l-1.96306,-7.77867c-1.52138,0 -2.28208,0.29449 -2.28208,0.88341c-0.24537,1.19417 -0.60526,3.49259 -1.07968,6.89527z" fill="url(#color-5)"/><path d="M312.56555,164.03778c0.35988,0.39261 3.86889,2.96096 10.52698,7.70508v0.1472c-1.35778,5.59475 -2.24935,8.79293 -2.67468,9.59448l-5.1776,2.99368c6.13459,4.43328 9.22643,6.7399 9.27549,6.91988c-2.17574,1.04694 -5.52931,2.56831 -10.06073,4.56409c-5.2512,-7.18153 -7.87682,-10.8541 -7.87682,-11.01771h-0.29446c-0.11451,4.20423 -0.17176,7.0916 -0.17176,8.66203c-0.06543,0.73618 -0.22084,1.10426 -0.46625,1.10426h-7.38605c-0.34352,0 -0.86701,-4.56415 -1.57045,-13.69242c-0.32717,-1.99578 -0.80159,-6.60902 -1.42325,-13.83964c1.89763,-0.40896 7.66414,-1.45595 17.29956,-3.14092zM305.79297,170.9576v0.1472c0,0.99787 0.05725,4.56411 0.17176,10.6987h0.14724c3.99158,-0.93243 5.98738,-1.56224 5.98738,-1.88941l1.3987,-6.28186z" fill="url(#color-6)"/><path d="M361.64231,164.03778l0.14725,0.3191c-0.42533,6.24909 -0.74432,9.37365 -0.95698,9.37365h-0.14726c-6.75623,-0.53983 -10.51878,-0.85883 -11.28767,-0.95696v21.76552c0,0.3926 -1.53774,0.65437 -4.61322,0.78527c0,0.11461 -1.74222,0.32725 -5.22668,0.63796l-0.17176,-0.3191c0.75252,-12.98897 1.23511,-20.66128 1.44776,-23.01697c-2.58471,0.40896 -6.39634,0.93246 -11.43489,1.57046c-1.48867,-5.56202 -2.23297,-8.41667 -2.23297,-8.56388c0,-0.21272 11.49213,-0.74439 34.47642,-1.59501z" fill="url(#color-7)"/><path d="M375.06483,164.9457l0.09814,0.19612c-1.6359,14.44496 -2.552,22.03549 -2.74831,22.77162c-3.4681,-0.32717 -5.66018,-0.55618 -6.57629,-0.68706v-0.0983l-1.57046,-20.5141c0.39263,-0.13075 3.9916,-0.68694 10.7969,-1.66861zM365.34763,188.40443c0.11451,0.06553 2.66648,0.26183 7.65597,0.58891l0.09815,0.19611c-0.76887,4.51504 -1.25966,6.77257 -1.47232,6.77257h-5.6929c-0.1963,0 -0.45801,-2.25753 -0.78521,-6.77257c-0.06543,0 -0.09815,-0.1963 -0.09815,-0.58891c0.1963,-0.06553 0.29446,-0.13088 0.29446,-0.19611z" fill="url(#color-8)"/></g><g stroke="none" stroke-width="0.26459"><path d="" fill="url(#color-9)"/><path d="" fill="url(#color-10)"/><path d="M207.95845,164.03778c5.88921,2.97733 8.9156,4.466 9.07918,4.466c0,0.26181 -1.22688,2.62564 -3.68073,7.09158h-0.17176c-0.1963,0 -3.01823,-1.33324 -8.46576,-3.99974l-2.77283,3.70529c4.69502,2.25753 10.39609,5.1367 17.10324,8.63754c-3.04276,5.41479 -5.20215,9.01373 -6.47814,10.79686l-13.86416,1.22692c-6.33091,-4.26966 -9.67632,-6.47815 -10.03621,-6.62537v-0.17188c0,-0.45804 1.28415,-2.56018 3.85252,-6.30636h0.31899c1.01425,0.60527 4.19606,2.34751 9.54545,5.22671l3.23906,-3.68078c-9.8317,-5.00582 -15.27923,-7.83592 -16.34256,-8.49029v-0.1472c3.12455,-6.08553 4.82588,-9.1692 5.10397,-9.25098c8.13038,-1.65225 12.65364,-2.47837 13.56974,-2.47837z" fill="url(#color-11)"/><path d="M256.1273,164.03778l0.14725,0.3191c-0.42534,6.24909 -0.74433,9.37365 -0.95699,9.37365h-0.14725c-6.75623,-0.53983 -10.51879,-0.85883 -11.28766,-0.95696v21.76552c0,0.3926 -1.53774,0.65437 -4.61321,0.78527c0,0.11461 -1.74222,0.32725 -5.22668,0.63796l-0.17175,-0.3191c0.75252,-12.98897 1.23511,-20.66128 1.44775,-23.01697c-2.58471,0.40896 -6.39632,0.93246 -11.43486,1.57046c-1.48867,-5.56202 -2.23301,-8.41667 -2.23301,-8.56388c0,-0.21272 11.49213,-0.74439 34.47642,-1.59501z" fill="url(#color-12)"/><path d="M268.29834,164.13594c9.07919,1.30871 14.08504,2.07758 15.01749,2.30664c0,0.13075 3.12453,9.49623 9.37365,28.09643c-0.65436,0.24533 -4.42509,0.71974 -11.31218,1.42321c-0.4744,-1.60316 -1.00606,-4.08154 -1.595,-7.43513c-5.88921,0.53983 -8.83382,1.01425 -8.83382,1.42327l-1.59499,5.66836h-0.17176c-6.95253,-1.27602 -10.4288,-2.04489 -10.4288,-2.30662c5.54568,-17.34043 8.72746,-27.06582 9.54541,-29.17614zM273.05879,181.1165h5.32482l-1.96306,-7.77867c-1.52138,0 -2.28208,0.29449 -2.28208,0.88341c-0.24537,1.19417 -0.60526,3.49259 -1.07968,6.89527z" fill="url(#color-13)"/><path d="M312.56555,164.03778c0.35988,0.39261 3.86889,2.96096 10.52698,7.70508v0.1472c-1.35778,5.59475 -2.24935,8.79293 -2.67468,9.59448l-5.1776,2.99368c6.13459,4.43328 9.22643,6.7399 9.27549,6.91988c-2.17574,1.04694 -5.52931,2.56831 -10.06073,4.56409c-5.2512,-7.18153 -7.87682,-10.8541 -7.87682,-11.01771h-0.29446c-0.11451,4.20423 -0.17176,7.0916 -0.17176,8.66203c-0.06543,0.73618 -0.22084,1.10426 -0.46625,1.10426h-7.38605c-0.34352,0 -0.86701,-4.56415 -1.57045,-13.69242c-0.32717,-1.99578 -0.80159,-6.60902 -1.42325,-13.83964c1.89763,-0.40896 7.66414,-1.45595 17.29956,-3.14092zM305.79297,170.9576v0.1472c0,0.99787 0.05725,4.56411 0.17176,10.6987h0.14724c3.99158,-0.93243 5.98738,-1.56224 5.98738,-1.88941l1.3987,-6.28186z" fill="url(#color-14)"/><path d="M361.64231,164.03778l0.14725,0.3191c-0.42533,6.24909 -0.74432,9.37365 -0.95698,9.37365h-0.14726c-6.75623,-0.53983 -10.51878,-0.85883 -11.28767,-0.95696v21.76552c0,0.3926 -1.53774,0.65437 -4.61322,0.78527c0,0.11461 -1.74222,0.32725 -5.22668,0.63796l-0.17176,-0.3191c0.75252,-12.98897 1.23511,-20.66128 1.44776,-23.01697c-2.58471,0.40896 -6.39634,0.93246 -11.43489,1.57046c-1.48867,-5.56202 -2.23297,-8.41667 -2.23297,-8.56388c0,-0.21272 11.49213,-0.74439 34.47642,-1.59501z" fill="url(#color-15)"/><path d="M375.06483,164.9457l0.09814,0.19612c-1.6359,14.44496 -2.552,22.03549 -2.74831,22.77162c-3.4681,-0.32717 -5.66018,-0.55618 -6.57629,-0.68706v-0.0983l-1.57046,-20.5141c0.39263,-0.13075 3.9916,-0.68694 10.7969,-1.66861zM365.34763,188.40443c0.11451,0.06553 2.66648,0.26183 7.65597,0.58891l0.09815,0.19611c-0.76887,4.51504 -1.25966,6.77257 -1.47232,6.77257h-5.6929c-0.1963,0 -0.45801,-2.25753 -0.78521,-6.77257c-0.06543,0 -0.09815,-0.1963 -0.09815,-0.58891c0.1963,-0.06553 0.29446,-0.13088 0.29446,-0.19611z" fill="url(#color-16)"/></g></g></g></svg>