<svg version="1.1" xmlns="http://www.w3.org/2000/svg" xmlns:xlink="http://www.w3.org/1999/xlink" width="403.37945" height="26.1594" viewBox="0,0,403.37945,26.1594"><defs><linearGradient x1="51.50866" y1="169.9203" x2="51.50866" y2="190.0797" gradientUnits="userSpaceOnUse" id="color-1"><stop offset="0" stop-color="#2ee400"/><stop offset="1" stop-color="#80ce6d"/></linearGradient><linearGradient x1="51.37031" y1="172.8166" x2="51.37031" y2="187.1596" gradientUnits="userSpaceOnUse" id="color-2"><stop offset="0" stop-color="#2ee400"/><stop offset="1" stop-color="#80ce6d"/></linearGradient><linearGradient x1="74.71094" y1="171.8056" x2="74.71094" y2="186.1596" gradientUnits="userSpaceOnUse" id="color-3"><stop offset="0" stop-color="#2ee400"/><stop offset="1" stop-color="#80ce6d"/></linearGradient><linearGradient x1="85.49794" y1="170.7256" x2="85.49794" y2="186.1596" gradientUnits="userSpaceOnUse" id="color-4"><stop offset="0" stop-color="#2ee400"/><stop offset="1" stop-color="#80ce6d"/></linearGradient><linearGradient x1="95.47495" y1="175.1466" x2="95.47495" y2="186.1596" gradientUnits="userSpaceOnUse" id="color-5"><stop offset="0" stop-color="#2ee400"/><stop offset="1" stop-color="#80ce6d"/></linearGradient><linearGradient x1="108.70994" y1="171.8166" x2="108.70994" y2="186.1596" gradientUnits="userSpaceOnUse" id="color-6"><stop offset="0" stop-color="#2ee400"/><stop offset="1" stop-color="#80ce6d"/></linearGradient><linearGradient x1="121.13944" y1="175.1576" x2="121.13944" y2="186.1596" gradientUnits="userSpaceOnUse" id="color-7"><stop offset="0" stop-color="#2ee400"/><stop offset="1" stop-color="#80ce6d"/></linearGradient><linearGradient x1="134.76541" y1="175.1466" x2="134.76541" y2="186.1596" gradientUnits="userSpaceOnUse" id="color-8"><stop offset="0" stop-color="#2ee400"/><stop offset="1" stop-color="#80ce6d"/></linearGradient><linearGradient x1="149.22444" y1="171.8056" x2="149.22444" y2="186.1596" gradientUnits="userSpaceOnUse" id="color-9"><stop offset="0" stop-color="#2ee400"/><stop offset="1" stop-color="#80ce6d"/></linearGradient><linearGradient x1="162.70093" y1="175.1576" x2="162.70093" y2="186.1596" gradientUnits="userSpaceOnUse" id="color-10"><stop offset="0" stop-color="#2ee400"/><stop offset="1" stop-color="#80ce6d"/></linearGradient><linearGradient x1="180.56595" y1="173.8346" x2="180.56595" y2="188.25146" gradientUnits="userSpaceOnUse" id="color-11"><stop offset="0" stop-color="#2ee400"/><stop offset="1" stop-color="#80ce6d"/></linearGradient><linearGradient x1="199.68195" y1="171.8166" x2="199.68195" y2="186.1596" gradientUnits="userSpaceOnUse" id="color-12"><stop offset="0" stop-color="#2ee400"/><stop offset="1" stop-color="#80ce6d"/></linearGradient><linearGradient x1="213.27545" y1="175.1576" x2="213.27545" y2="186.1596" gradientUnits="userSpaceOnUse" id="color-13"><stop offset="0" stop-color="#2ee400"/><stop offset="1" stop-color="#80ce6d"/></linearGradient><linearGradient x1="225.27494" y1="175.1466" x2="225.27494" y2="186.1596" gradientUnits="userSpaceOnUse" id="color-14"><stop offset="0" stop-color="#2ee400"/><stop offset="1" stop-color="#80ce6d"/></linearGradient><linearGradient x1="236.84495" y1="175.1466" x2="236.84495" y2="186.1596" gradientUnits="userSpaceOnUse" id="color-15"><stop offset="0" stop-color="#2ee400"/><stop offset="1" stop-color="#80ce6d"/></linearGradient><linearGradient x1="246.21594" y1="171.8276" x2="246.21594" y2="186.1596" gradientUnits="userSpaceOnUse" id="color-16"><stop offset="0" stop-color="#2ee400"/><stop offset="1" stop-color="#80ce6d"/></linearGradient><linearGradient x1="255.76294" y1="175.1466" x2="255.76294" y2="186.1596" gradientUnits="userSpaceOnUse" id="color-17"><stop offset="0" stop-color="#2ee400"/><stop offset="1" stop-color="#80ce6d"/></linearGradient><linearGradient x1="268.60042" y1="175.1466" x2="268.60042" y2="186.1596" gradientUnits="userSpaceOnUse" id="color-18"><stop offset="0" stop-color="#2ee400"/><stop offset="1" stop-color="#80ce6d"/></linearGradient><linearGradient x1="282.35393" y1="175.1686" x2="282.35393" y2="189.4776" gradientUnits="userSpaceOnUse" id="color-19"><stop offset="0" stop-color="#2ee400"/><stop offset="1" stop-color="#80ce6d"/></linearGradient><linearGradient x1="303.16195" y1="171.8166" x2="303.16195" y2="186.1596" gradientUnits="userSpaceOnUse" id="color-20"><stop offset="0" stop-color="#2ee400"/><stop offset="1" stop-color="#80ce6d"/></linearGradient><linearGradient x1="317.98945" y1="175.1576" x2="317.98945" y2="186.1596" gradientUnits="userSpaceOnUse" id="color-21"><stop offset="0" stop-color="#2ee400"/><stop offset="1" stop-color="#80ce6d"/></linearGradient><linearGradient x1="330.28693" y1="175.1466" x2="330.28693" y2="186.1596" gradientUnits="userSpaceOnUse" id="color-22"><stop offset="0" stop-color="#2ee400"/><stop offset="1" stop-color="#80ce6d"/></linearGradient><linearGradient x1="345.19245" y1="175.1466" x2="345.19245" y2="186.1596" gradientUnits="userSpaceOnUse" id="color-23"><stop offset="0" stop-color="#2ee400"/><stop offset="1" stop-color="#80ce6d"/></linearGradient><linearGradient x1="365.74095" y1="173.25439" x2="365.74095" y2="186.57139" gradientUnits="userSpaceOnUse" id="color-24"><stop offset="0" stop-color="#2ee400"/><stop offset="1" stop-color="#80ce6d"/></linearGradient><linearGradient x1="388.68834" y1="172.80778" x2="388.68834" y2="186.12478" gradientUnits="userSpaceOnUse" id="color-25"><stop offset="0" stop-color="#2ee400"/><stop offset="1" stop-color="#80ce6d"/></linearGradient><linearGradient x1="400.11317" y1="172.90978" x2="400.11317" y2="186.62378" gradientUnits="userSpaceOnUse" id="color-26"><stop offset="0" stop-color="#2ee400"/><stop offset="1" stop-color="#80ce6d"/></linearGradient><linearGradient x1="420.55959" y1="173.03914" x2="420.55959" y2="186.35614" gradientUnits="userSpaceOnUse" id="color-27"><stop offset="0" stop-color="#2ee400"/><stop offset="1" stop-color="#80ce6d"/></linearGradient><linearGradient x1="410.30117" y1="179.5226" x2="410.30117" y2="182.9296" gradientUnits="userSpaceOnUse" id="color-28"><stop offset="0" stop-color="#2ee400"/><stop offset="1" stop-color="#80ce6d"/></linearGradient><linearGradient x1="378.29701" y1="172.62436" x2="378.29701" y2="186.24217" gradientUnits="userSpaceOnUse" id="color-29"><stop offset="0" stop-color="#2ee400"/><stop offset="1" stop-color="#80ce6d"/></linearGradient><linearGradient x1="433.06518" y1="172.75092" x2="433.06518" y2="187.30242" gradientUnits="userSpaceOnUse" id="color-30"><stop offset="0" stop-color="#2dce00"/><stop offset="1" stop-color="#8fe679"/></linearGradient></defs><g transform="translate(-38.03691,-166.9203)"><g data-paper-data="{&quot;isPaintingLayer&quot;:true}" fill-rule="nonzero" stroke-linecap="butt" stroke-miterlimit="10" stroke-dasharray="" stroke-dashoffset="0" style="mix-blend-mode: normal"><path d="M388.95334,172.80778c2.498,0.279 3.748,0.455 3.748,0.529c0.029,5.497 0.044,9.701 0.044,12.612c0,0.029 0,0.058 0,0.088c-0.015,0.029 -0.03,0.059 -0.044,0.088c-1.294,-0.044 -2.587,-0.088 -3.881,-0.132c0,-0.03 -0.014,-0.044 -0.044,-0.044c0.177,-4.917 0.265,-7.534 0.265,-7.85c-0.441,0.427 -0.882,0.853 -1.323,1.279c-0.074,-0.044 -1.103,-1.132 -3.087,-3.263c1.558,-1.235 2.999,-2.337 4.322,-3.307z" fill="#6aaa5a" stroke="#2e4a27" stroke-width="4" stroke-linejoin="miter"/><path d="M377.0997,172.62436c3.11951,0.80625 4.70784,1.26653 4.76559,1.39326c0,0.06894 0.7597,1.47339 2.26789,4.18978c-0.95596,3.10828 -1.46223,4.73083 -1.55416,4.8693c0,0 -1.73804,2.57847 -1.87655,2.40581l-3.67172,0.75966c-2.59025,-1.41565 -3.95993,-2.21011 -4.12084,-2.40578c-0.09255,-0.99013 -0.24222,-3.75248 -0.44909,-8.29942c2.43995,-1.60012 3.99411,-2.57847 4.63887,-2.91261zM377.90536,176.4116l-2.00265,2.02623c0.17269,2.1064 0.25282,3.39531 0.25282,3.85619c0.04599,0 0.48389,0.29941 1.28955,0.88642c1.07027,-0.23043 1.61132,-0.39134 1.61132,-0.49508l1.23177,-4.1208c-0.33359,-0.96715 -0.60999,-1.45044 -0.84042,-1.45044z" fill="#2e4a27" stroke="#2e4a27" stroke-width="4" stroke-linejoin="miter"/><path d="M418.86259,173.03914c1.646,0.294 3.292,0.588 4.939,0.882c1.425,2.895 2.16,4.453 2.204,4.674c-3.219,2.719 -4.85,4.116 -4.894,4.189c1.47,-0.162 2.94,-0.323 4.409,-0.485c0.015,0.029 0.03,0.059 0.045,0.088c-0.339,2.646 -0.544,3.969 -0.618,3.969c-4.975,-0.118 -7.974,-0.176 -8.996,-0.176c-0.088,0 -0.264,-0.971 -0.529,-2.911c0.5,-0.389 0.956,-0.816 1.367,-1.279c2.227,-2.028 2.227,-2.028 4.454,-4.057c-0.375,-0.521 -0.639,-0.859 -0.794,-1.014c-0.757,0.875 -1.433,1.595 -2.028,2.161c-1.882,-1.441 -2.984,-2.308 -3.308,-2.602c0,-0.029 0,-0.059 0,-0.088c0.155,-0.096 1.316,-1.139 3.484,-3.131c0,-0.022 0.088,-0.095 0.265,-0.22z" fill="#6aaa5a" stroke="#2e4a27" stroke-width="4" stroke-linejoin="miter"/><path d="M414.45767,179.5226c0.022,0.048 0.044,0.096 0.066,0.144c-0.044,0.985 -0.066,1.789 -0.066,2.414c0,0.118 0,0.235 0,0.353c0,0.066 -0.074,0.136 -0.221,0.209c-0.801,0 -3.355,0.096 -7.662,0.287c-0.08,0 -0.246,-1.066 -0.496,-3.197c0.044,0 0.067,-0.022 0.067,-0.066c2.41,-0.052 4.303,-0.077 5.677,-0.077c0.404,0 0.809,0 1.213,0c0.308,0 0.782,-0.022 1.422,-0.067z" fill="#6aaa5a" stroke="#2e4a27" stroke-width="4" stroke-linejoin="miter"/><path d="M51.50861,169.9203c2.8892,0 5.5071,1.1277 7.4028,2.9535c1.8956,1.8259 3.069,4.3445 3.069,7.1262c0,2.7817 -1.1734,5.3003 -3.069,7.1262c-1.8957,1.8258 -4.5136,2.9535 -7.4028,2.9535c-2.8891,0 -5.507,-1.1277 -7.4027,-2.9535c-1.8956,-1.8259 -3.069,-4.3445 -3.069,-7.1262c0,-2.7817 1.1734,-5.3003 3.069,-7.1262c1.8957,-1.8258 4.5136,-2.9535 7.4027,-2.9535z" fill="none" stroke="#2e4a27" stroke-width="6" stroke-linejoin="round"/><path d="M52.32981,172.8166c3.285,1.279 4.928,1.959 4.928,2.04c-1.051,2.146 -1.577,3.263 -1.577,3.351c-0.022,0 -0.044,0 -0.066,0c-0.47,-0.132 -1.503,-0.591 -3.098,-1.378c-0.874,0.614 -1.749,1.228 -2.624,1.841c0,2.279 0.129,3.418 0.386,3.418c0.169,0.088 1.268,0.529 3.297,1.323c0.779,-0.772 1.569,-1.518 2.37,-2.238c0.147,0.132 0.805,1.183 1.973,3.153c0,0.066 0,0.132 0,0.198c-0.073,0 -1.698,0.878 -4.873,2.635c-4.057,-1.36 -6.14,-2.084 -6.25,-2.172c-0.658,-2.172 -1.316,-4.343 -1.974,-6.515c1.852,-2.631 2.797,-3.947 2.833,-3.947c0.081,0 1.639,-0.569 4.675,-1.709z" fill="#6aaa5a" stroke="#2e4a27" stroke-width="4" stroke-linejoin="miter"/><path d="M77.65394,171.8056c0.294,0 0.588,0 0.882,0c0.103,0 0.353,1.129 0.75,3.385c0.044,0.066 0.764,3.564 2.161,10.495l-0.133,0.066c-2.667,-0.081 -4.001,-0.195 -4.001,-0.342c0,-0.771 -0.316,-1.312 -0.949,-1.62c0,-0.03 -1.036,-0.864 -3.108,-2.503c-0.022,0 -0.044,0 -0.067,0c0.045,0.066 0.181,1.353 0.408,3.859c-2.153,0.632 -3.417,0.97 -3.792,1.014c-0.118,0 -0.478,-2.528 -1.08,-7.585c-0.096,-0.316 -0.346,-2.098 -0.75,-5.347l3.925,-1.08c0.088,0 0.338,1.624 0.749,4.873c1.286,1.128 2.573,2.256 3.859,3.384c0.022,0 0.044,0 0.066,0c0,-0.11 -0.566,-2.932 -1.698,-8.466c0.052,0 0.077,-0.022 0.077,-0.067c1.132,-0.044 2.033,-0.066 2.701,-0.066z" fill="#6aaa5a" stroke="#2e4a27" stroke-width="4" stroke-linejoin="miter"/><path d="M84.09294,170.7256l4.332,0.683c-0.544,2.08 -0.9,3.12 -1.069,3.12c-2.279,-0.154 -3.418,-0.305 -3.418,-0.452c0,-1.065 0,-2.131 0,-3.197c0.022,-0.103 0.074,-0.154 0.155,-0.154zM82.87994,175.9736c0.022,0 0.044,0 0.066,0c3.351,0.61 5.027,0.966 5.027,1.069c-0.963,5.453 -1.547,8.492 -1.753,9.117c-1.165,0 -2.33,0 -3.494,0c-0.103,0 -0.155,-0.052 -0.155,-0.154c0.103,-3.344 0.206,-6.688 0.309,-10.032z" fill="#6aaa5a" stroke="#2e4a27" stroke-width="4" stroke-linejoin="miter"/><path d="M98.53394,175.1466l3.671,2.524c-0.257,4.19 -0.437,6.637 -0.54,7.342c-0.426,0.052 -1.723,0.129 -3.891,0.232l-0.077,-0.154c-0.047,-0.712 -0.34,-5.176 -0.386,-5.887c-0.052,-0.026 -0.103,-0.052 -0.155,-0.078c-1.403,0.302 -2.37,0.53 -2.899,0.684c0.147,2.506 0.22,4.318 0.22,5.435c-2.19,0.61 -3.388,0.915 -3.594,0.915c-1.425,-6.277 -2.138,-9.591 -2.138,-9.944c3.101,-0.404 4.784,-0.606 5.049,-0.606c0,0.025 0,0.051 0,0.077c0.051,0.037 0.129,0.801 0.231,2.293c2.845,-1.889 4.348,-2.833 4.509,-2.833z" fill="#6aaa5a" stroke="#2e4a27" stroke-width="4" stroke-linejoin="miter"/><path d="M106.63694,171.8166l4.851,0.86c-0.034,0.273 -0.429,3.41 -0.463,3.682c0.963,-0.051 1.668,-0.077 2.117,-0.077c0.235,0 0.47,0 0.705,0l0.154,-0.077l0.078,0.154c-0.155,2.235 -0.287,3.491 -0.397,3.771l-0.155,-0.089c-0.11,0 -1.102,-0.051 -2.976,-0.154c-0.103,1.727 -0.18,3.792 -0.232,6.196l-0.154,0.077c-2.367,-0.154 -3.778,-0.287 -4.233,-0.397l0.077,-0.309c0,-0.639 0.103,-2.623 0.309,-5.953c-1.985,-0.11 -2.977,-0.242 -2.977,-0.397c0.103,-2.454 0.235,-3.682 0.397,-3.682l2.899,0.551c0,-0.316 0,-0.632 0,-0.948c0,-0.771 -0.029,-1.815 -0.088,-3.13c0.059,0 0.088,-0.026 0.088,-0.078z" fill="#6aaa5a" stroke="#2e4a27" stroke-width="4" stroke-linejoin="miter"/><path d="M121.49794,175.1576c3.329,1.712 5.174,2.712 5.534,2.998c-0.478,2.235 -0.76,3.385 -0.849,3.451c-2.322,0 -4.645,0 -6.967,0c0,0.04 0,0.081 0,0.121l1.951,2.415l3.065,-1.566c0.301,0.522 0.735,1.433 1.301,2.734c-0.265,0.088 -2.194,0.371 -5.788,0.849c-2.976,-1.962 -4.476,-2.984 -4.498,-3.065c0.478,-3.814 0.761,-5.721 0.849,-5.721c3.109,-1.323 4.91,-2.062 5.402,-2.216zM120.78094,177.8256c-0.058,0.147 -0.448,0.731 -1.168,1.752c0,0.309 0.433,0.464 1.301,0.464c0,0.044 0.628,0.15 1.885,0.319c0.345,-0.478 0.518,-0.757 0.518,-0.838c-0.11,-0.654 -0.349,-0.981 -0.717,-0.981z" fill="#6aaa5a" stroke="#2e4a27" stroke-width="4" stroke-linejoin="miter"/><path d="M137.82493,175.1466c0.282,0.194 3.389,2.33 3.671,2.524c-0.257,4.19 -0.437,6.637 -0.54,7.342c-0.426,0.052 -1.724,0.129 -3.892,0.232l-0.077,-0.154l-0.386,-5.887l-0.154,-0.078c-1.404,0.302 -2.37,0.53 -2.899,0.684c0.147,2.506 0.22,4.318 0.22,5.435c-2.19,0.61 -3.388,0.915 -3.594,0.915c-1.426,-6.277 -2.139,-9.591 -2.139,-9.944c3.102,-0.404 4.785,-0.606 5.05,-0.606c0,0.025 0,0.051 0,0.077c0.051,0.037 0.128,0.801 0.231,2.293c2.844,-1.889 4.347,-2.833 4.509,-2.833z" fill="#6aaa5a" stroke="#2e4a27" stroke-width="4" stroke-linejoin="miter"/><path d="M149.30093,171.8056c0.022,0 0.044,0 0.066,0c3.322,0.28 4.983,0.496 4.983,0.651c0.534,4.718 0.933,8.257 1.467,12.975c0,0.096 -1.467,0.338 -4.399,0.728l-0.066,-0.143c0,-0.394 0,-0.787 0,-1.18c-2.528,0.684 -4.263,1.125 -5.204,1.323c-2.234,-3.16 -3.406,-4.843 -3.516,-5.049c1.646,-2.991 2.524,-4.505 2.634,-4.542c1.54,0.073 3.08,0.147 4.62,0.22c-0.096,-0.566 -0.291,-2.227 -0.585,-4.983zM147.25095,179.7106c0.742,2.271 1.205,3.517 1.389,3.737l2.194,-1.907c-0.228,-1.316 -0.397,-1.974 -0.507,-1.974c-0.978,0 -1.955,0 -2.933,0c-0.095,0.015 -0.143,0.063 -0.143,0.144z" fill="#6aaa5a" stroke="#2e4a27" stroke-width="4" stroke-linejoin="miter"/><path d="M161.40594,175.1576c2.793,0.749 4.274,1.205 4.443,1.367c1.536,2.175 2.399,3.428 2.59,3.759c-0.992,3.146 -1.561,4.718 -1.708,4.718c-3.308,0.772 -5.038,1.158 -5.193,1.158c-2.734,-1.595 -4.189,-2.484 -4.365,-2.668c-0.096,-2.969 -0.144,-4.608 -0.144,-4.917c-0.044,-0.088 -0.066,-0.154 -0.066,-0.198c2.822,-2.146 4.281,-3.219 4.377,-3.219zM161.19695,179.1926c-0.045,0.294 -0.111,1.363 -0.199,3.208l2.458,0.551c0.588,-1.837 0.882,-2.819 0.882,-2.944c-1.955,-0.588 -3.002,-0.882 -3.141,-0.882c0,0.023 0,0.045 0,0.067z" fill="#6aaa5a" stroke="#2e4a27" stroke-width="4" stroke-linejoin="miter"/><path d="M186.07795,173.8346c0.015,0.029 0.03,0.059 0.044,0.088c-1.602,1.984 -2.631,3.425 -3.086,4.322c5.159,-8.291 -10.319,16.58 -5.16,8.29c-0.014,0 -0.029,0 -0.044,0c-1.815,-0.177 -2.756,-0.294 -2.822,-0.353c5.365,-8.099 8.099,-12.185 8.202,-12.259c0.559,-0.029 1.514,-0.059 2.866,-0.088z" fill="#6aaa5a" stroke="#2e4a27" stroke-width="4" stroke-linejoin="miter"/><path d="M201.52295,171.8166c2.646,1.338 4.006,2.007 4.079,2.007c0,0.117 -0.551,1.179 -1.653,3.186c-0.026,0 -0.052,0 -0.077,0c-0.089,0 -1.356,-0.599 -3.804,-1.797c-0.415,0.555 -0.83,1.11 -1.246,1.665c2.11,1.014 4.671,2.307 7.684,3.88c-1.367,2.433 -2.337,4.05 -2.91,4.851c-2.076,0.184 -4.152,0.367 -6.229,0.551c-2.844,-1.918 -4.347,-2.91 -4.509,-2.977c0,-0.025 0,-0.051 0,-0.077c0,-0.206 0.577,-1.15 1.731,-2.833c0.048,0 0.096,0 0.143,0c0.456,0.272 1.886,1.055 4.289,2.348c0.485,-0.551 0.97,-1.102 1.455,-1.653c-4.417,-2.249 -6.864,-3.521 -7.342,-3.815c0,-0.022 0,-0.044 0,-0.066c1.404,-2.734 2.168,-4.119 2.293,-4.156c3.653,-0.742 5.685,-1.114 6.096,-1.114z" fill="#6aaa5a" stroke="#2e4a27" stroke-width="4" stroke-linejoin="miter"/><path d="M212.00794,175.1576c3.314,0.624 5.049,0.981 5.203,1.069c0,0.044 0,0.088 0,0.132c-0.713,2.014 -1.069,3.058 -1.069,3.131c-0.022,0 -0.044,0 -0.066,0c-0.184,0 -1.074,-0.286 -2.668,-0.86c-0.89,1.492 -1.334,2.29 -1.334,2.393c0.735,0.713 1.47,1.425 2.205,2.138c1.705,-1.602 2.572,-2.403 2.601,-2.403c1.331,1.742 1.996,2.719 1.996,2.933c-0.728,0.418 -1.996,1.242 -3.804,2.469c-3.498,-0.757 -5.387,-1.18 -5.666,-1.268c-0.186,-0.6 -1.546,-5 -1.731,-5.6c1.444,-1.378 2.888,-2.756 4.333,-4.134z" fill="#6aaa5a" stroke="#2e4a27" stroke-width="4" stroke-linejoin="miter"/><path d="M227.89394,175.1466c1.455,0.816 2.348,1.345 2.678,1.587c-1.19,2.477 -1.83,3.737 -1.918,3.782c-0.025,0 -0.051,0 -0.077,0c-0.525,-0.46 -1.051,-0.919 -1.576,-1.378c1.863,-2.271 -3.727,4.542 -1.864,2.271c0.07,1.378 0.14,2.756 0.21,4.134c-0.096,0.088 -1.312,0.294 -3.649,0.617c-0.088,-0.632 -0.662,-3.73 -1.72,-9.293c0,-0.089 1.536,-0.317 4.608,-0.684c0.052,0.059 0.191,0.746 0.419,2.062c1.838,-2.066 2.8,-3.098 2.889,-3.098z" fill="#6aaa5a" stroke="#2e4a27" stroke-width="4" stroke-linejoin="miter"/><path d="M233.11895,175.1466c4.366,0.602 6.549,0.974 6.549,1.113c1.719,1.477 2.579,2.268 2.579,2.37c-0.698,2.183 -1.095,3.51 -1.19,3.98c0.698,1.551 1.095,2.477 1.19,2.778c0,0.088 -1.139,0.324 -3.417,0.706c-0.03,-0.125 -0.239,-0.404 -0.629,-0.838c-3.145,0.603 -4.839,0.904 -5.082,0.904c-0.558,-1.51 -1.117,-3.021 -1.676,-4.531l3.694,-1.951c0.595,0.095 1.525,0.143 2.789,0.143c0,-0.162 0.022,-0.65 0.066,-1.466c-0.213,0 -2.117,0.139 -5.711,0.419c-0.022,-0.048 -0.044,-0.096 -0.066,-0.144c0.5,-2.322 0.801,-3.483 0.904,-3.483zM235.41194,181.6286c0,0.081 0.235,0.941 0.706,2.58c0.022,0 0.044,0 0.066,0c0.926,-0.603 1.389,-1 1.389,-1.191c0.048,-0.393 0.095,-0.786 0.143,-1.18c-0.176,0 -0.944,-0.069 -2.304,-0.209z" fill="#6aaa5a" stroke="#2e4a27" stroke-width="4" stroke-linejoin="miter"/><path d="M243.30594,171.8276c2.249,0.044 3.898,0.067 4.949,0.067c0.096,0 0.386,4.512 0.871,13.537c-0.374,0.096 -1.683,0.339 -3.924,0.728c-0.111,0 -0.474,-2.763 -1.092,-8.29c-0.051,-0.133 -0.319,-2.146 -0.804,-6.042z" fill="#6aaa5a" stroke="#2e4a27" stroke-width="4" stroke-linejoin="miter"/><path d="M252.03694,175.1466c4.365,0.602 6.548,0.974 6.548,1.113c1.72,1.477 2.58,2.268 2.58,2.37c-0.698,2.183 -1.095,3.51 -1.191,3.98c0.699,1.551 1.095,2.477 1.191,2.778c0,0.088 -1.139,0.324 -3.418,0.706c-0.029,-0.125 -0.238,-0.404 -0.628,-0.838c-3.146,0.603 -4.84,0.904 -5.082,0.904c-0.559,-1.51 -1.117,-3.021 -1.676,-4.531l3.693,-1.951c0.596,0.095 1.525,0.143 2.789,0.143c0,-0.162 0.022,-0.65 0.066,-1.466c-0.213,0 -2.116,0.139 -5.71,0.419c-0.022,-0.048 -0.044,-0.096 -0.066,-0.144c0.499,-2.322 0.801,-3.483 0.904,-3.483zM254.32994,181.6286c0,0.081 0.235,0.941 0.705,2.58c0.022,0 0.045,0 0.067,0c0.926,-0.603 1.389,-1 1.389,-1.191c0.047,-0.393 0.095,-0.786 0.143,-1.18c-0.176,0 -0.945,-0.069 -2.304,-0.209z" fill="#6aaa5a" stroke="#2e4a27" stroke-width="4" stroke-linejoin="miter"/><path d="M270.06192,175.1466c0.014,0 0.029,0 0.044,0c1.962,1.154 3.02,1.756 3.175,1.808c0,0.033 0,0.066 0,0.099c-0.507,0.581 -1.441,1.587 -2.801,3.021c2.668,0.992 4.168,1.591 4.498,1.797c-0.83,1.025 -1.661,2.05 -2.491,3.075c-1.683,-1.44 -2.756,-2.341 -3.219,-2.701c-1.139,2.22 -1.849,3.524 -2.128,3.914c-0.015,0 -0.029,0 -0.044,0c-2.109,-0.742 -3.256,-1.183 -3.44,-1.323c0,-0.018 0,-0.037 0,-0.055c0.971,-1.268 1.941,-2.536 2.911,-3.803c-2.705,-1.118 -4.153,-1.772 -4.344,-1.963c1.191,-2.021 1.86,-3.098 2.007,-3.23c0.022,0.052 1.33,0.952 3.924,2.701c0.919,-1.698 1.555,-2.811 1.908,-3.34z" fill="#6aaa5a" stroke="#2e4a27" stroke-width="4" stroke-linejoin="miter"/><path d="M281.05294,175.1686c0.103,0.014 0.154,0.066 0.154,0.154c0.05,-0.276 -1.196,6.626 -1.146,6.35c2.19,-0.257 3.285,-0.463 3.285,-0.617c0.411,-2.543 0.694,-3.969 0.849,-4.278c2.712,0.559 4.215,0.89 4.509,0.993c-1.581,5.431 -2.448,8.26 -2.602,8.488c-2.764,1.94 -4.318,3.014 -4.663,3.219c-0.103,0 -1.863,-0.433 -5.281,-1.301c0,-0.025 0,-0.051 0,-0.077c0.904,-1.991 1.466,-2.987 1.687,-2.987c1.12,0.562 2.241,1.124 3.362,1.686c0.537,-0.918 1.073,-1.837 1.61,-2.756c-1.448,0.36 -2.29,0.54 -2.525,0.54c-1.429,-0.742 -2.859,-1.484 -4.288,-2.226c0.521,-4.792 0.852,-7.188 0.992,-7.188c1.352,0 2.704,0 4.057,0z" fill="#6aaa5a" stroke="#2e4a27" stroke-width="4" stroke-linejoin="miter"/><path d="M310.87395,171.8166c0.022,0.048 0.044,0.096 0.066,0.144c-0.191,2.807 -0.335,4.211 -0.43,4.211c-0.022,0 -0.044,0 -0.066,0c-3.036,-0.243 -4.726,-0.386 -5.072,-0.43c0,3.26 0,6.519 0,9.779c0,0.176 -0.69,0.294 -2.072,0.352c0,0.052 -0.783,0.147 -2.348,0.287c-0.026,-0.048 -0.052,-0.096 -0.077,-0.143c0.338,-5.836 0.554,-9.283 0.65,-10.341c-1.161,0.184 -2.874,0.419 -5.137,0.705c-0.669,-2.498 -1.004,-3.781 -1.004,-3.847c0,-0.096 5.163,-0.334 15.49,-0.717z" fill="#6aaa5a" stroke="#2e4a27" stroke-width="4" stroke-linejoin="miter"/><path d="M318.34792,175.1576c3.329,1.712 5.174,2.712 5.534,2.998c-0.478,2.235 -0.761,3.385 -0.849,3.451c-2.322,0 -4.645,0 -6.967,0c0,0.04 0,0.081 0,0.121c0.65,0.805 1.301,1.61 1.951,2.415c1.022,-0.522 2.043,-1.044 3.065,-1.566c0.301,0.522 0.735,1.433 1.301,2.734c-0.265,0.088 -2.194,0.371 -5.788,0.849c-2.976,-1.962 -4.476,-2.984 -4.498,-3.065c0.478,-3.814 0.761,-5.721 0.849,-5.721c3.109,-1.323 4.91,-2.062 5.402,-2.216zM317.63093,177.8256c-0.058,0.147 -0.448,0.731 -1.168,1.752c0,0.309 0.433,0.464 1.301,0.464c0,0.044 0.628,0.15 1.885,0.319c0.345,-0.478 0.518,-0.757 0.518,-0.838c-0.11,-0.654 -0.349,-0.981 -0.717,-0.981c-0.606,-0.239 -1.212,-0.478 -1.819,-0.716z" fill="#6aaa5a" stroke="#2e4a27" stroke-width="4" stroke-linejoin="miter"/><path d="M326.56093,175.1466c4.366,0.602 6.549,0.974 6.549,1.113c1.719,1.477 2.579,2.268 2.579,2.37c-0.698,2.183 -1.095,3.51 -1.19,3.98c0.698,1.551 1.095,2.477 1.19,2.778c0,0.088 -1.139,0.324 -3.417,0.706c-0.03,-0.125 -0.239,-0.404 -0.629,-0.838c-3.145,0.603 -4.839,0.904 -5.082,0.904c-0.558,-1.51 -1.117,-3.021 -1.676,-4.531l3.694,-1.951c0.595,0.095 1.525,0.143 2.789,0.143c0,-0.162 0.022,-0.65 0.066,-1.466c-0.213,0 -2.117,0.139 -5.711,0.419c-0.022,-0.048 -0.044,-0.096 -0.066,-0.144c0.5,-2.322 0.801,-3.483 0.904,-3.483zM328.85393,181.6286c0,0.081 0.235,0.941 0.706,2.58c0.022,0 0.044,0 0.066,0c0.926,-0.603 1.389,-1 1.389,-1.191c0.048,-0.393 0.095,-0.786 0.143,-1.18c-0.176,0 -0.944,-0.069 -2.304,-0.209z" fill="#6aaa5a" stroke="#2e4a27" stroke-width="4" stroke-linejoin="miter"/><path d="M348.99595,175.1466c1.793,0.742 3.34,1.44 4.641,2.094c-0.338,4.373 -0.555,6.766 -0.651,7.177c-2.16,0.537 -3.369,0.805 -3.627,0.805c0,-0.956 -0.073,-2.841 -0.22,-5.656c-0.816,0.081 -1.224,0.151 -1.224,0.21c0,0.279 0.048,1.874 0.143,4.784c0.045,0 0.067,0.026 0.067,0.078c0,0.088 -1.136,0.33 -3.407,0.727c-0.095,-0.117 -0.386,-1.907 -0.871,-5.369c-0.919,0.236 -1.378,0.405 -1.378,0.508c0.147,1.499 0.294,2.998 0.441,4.497c-0.088,0.096 -1.297,0.482 -3.627,1.158c-1.352,-4.785 -2.197,-7.996 -2.535,-9.635c2.55,-0.632 3.976,-0.948 4.277,-0.948c0.338,1.337 0.507,2.109 0.507,2.315c0.026,0 0.052,0 0.077,0c1.242,-1.147 2.11,-1.918 2.602,-2.315c0.026,0 0.052,0 0.077,0c0.772,0.555 1.544,1.109 2.315,1.664c0.026,0 0.052,0 0.078,0c1.447,-1.396 2.219,-2.094 2.315,-2.094z" fill="#6aaa5a" stroke="#2e4a27" stroke-width="4" stroke-linejoin="miter"/><path d="M364.04395,172.8426c1.646,0.294 3.292,0.588 4.939,0.882c1.425,2.895 2.16,4.453 2.204,4.674c-3.219,2.719 -4.85,4.116 -4.894,4.189c1.47,-0.162 2.94,-0.323 4.409,-0.485c0.015,0.029 0.03,0.059 0.045,0.088c-0.339,2.646 -0.544,3.969 -0.618,3.969c-4.975,-0.118 -7.974,-0.176 -8.996,-0.176c-0.088,0 -0.264,-0.971 -0.529,-2.911c0.5,-0.389 0.956,-0.816 1.367,-1.279c2.227,-2.028 2.227,-2.028 4.454,-4.057c-0.375,-0.521 -0.639,-0.859 -0.794,-1.014c-0.757,0.875 -1.433,1.595 -2.028,2.161c-1.882,-1.441 -2.984,-2.308 -3.308,-2.602c0,-0.029 0,-0.059 0,-0.088c0.155,-0.096 1.316,-1.139 3.484,-3.131c0,-0.022 0.088,-0.095 0.265,-0.22z" fill="#6aaa5a" stroke="#2e4a27" stroke-width="4" stroke-linejoin="miter"/><path d="M397.37967,172.90978c3.88,0.213 5.865,0.345 5.953,0.397c0.793,1.411 1.587,2.822 2.381,4.233c-0.735,0.75 -1.47,1.499 -2.205,2.249c0.162,0.22 1.294,1.764 1.455,1.984c-0.404,1.999 -0.668,2.999 -0.793,2.999c-0.294,0.118 -1.632,0.735 -4.013,1.852c-2.845,-1.242 -4.344,-1.933 -4.498,-2.073c-0.235,-0.999 -0.471,-1.999 -0.706,-2.998c0.588,-0.573 1.176,-1.147 1.764,-1.72c-1.47,-2.33 -2.205,-3.52 -2.205,-3.572c0,-0.015 0,-0.029 0,-0.044c0.066,-0.037 1.022,-1.139 2.867,-3.307zM398.61367,177.27478c0.882,0.971 1.353,1.529 1.411,1.676c0.5,-0.617 1,-1.235 1.5,-1.852c-0.235,-0.382 -0.471,-0.764 -0.706,-1.147c-1.058,0 -1.587,0.074 -1.587,0.221c-0.412,0.676 -0.618,1.044 -0.618,1.102zM399.01066,182.08178c0.426,0.911 0.662,1.367 0.706,1.367c0.536,0 0.845,-0.132 0.926,-0.397c0.316,-0.404 0.551,-0.742 0.705,-1.014c-0.352,-0.338 -0.705,-0.676 -1.058,-1.014c-0.015,0 -0.029,0 -0.044,0c-0.823,0.683 -1.235,1.036 -1.235,1.058z" fill="#6aaa5a" stroke="#2e4a27" stroke-width="4" stroke-linejoin="miter"/><path d="M51.50861,169.9203c2.8892,0 5.5071,1.1277 7.4028,2.9535c1.8956,1.8259 3.069,4.3445 3.069,7.1262c0,2.7817 -1.1734,5.3003 -3.069,7.1262c-1.8957,1.8258 -4.5136,2.9535 -7.4028,2.9535c-2.8891,0 -5.507,-1.1277 -7.4027,-2.9535c-1.8956,-1.8259 -3.069,-4.3445 -3.069,-7.1262c0,-2.7817 1.1734,-5.3003 3.069,-7.1262c1.8957,-1.8258 4.5136,-2.9535 7.4027,-2.9535z" fill="none" stroke="url(#color-1)" stroke-width="2.68507" stroke-linejoin="round"/><path d="M52.32981,172.8166c3.285,1.279 4.928,1.959 4.928,2.04c-1.051,2.146 -1.577,3.263 -1.577,3.351c-0.022,0 -0.044,0 -0.066,0c-0.47,-0.132 -1.503,-0.591 -3.098,-1.378c-0.874,0.614 -1.749,1.228 -2.624,1.841c0,2.279 0.129,3.418 0.386,3.418c0.169,0.088 1.268,0.529 3.297,1.323c0.779,-0.772 1.569,-1.518 2.37,-2.238c0.147,0.132 0.805,1.183 1.973,3.153c0,0.066 0,0.132 0,0.198c-0.073,0 -1.698,0.878 -4.873,2.635c-4.057,-1.36 -6.14,-2.084 -6.25,-2.172c-0.658,-2.172 -1.316,-4.343 -1.974,-6.515c1.852,-2.631 2.797,-3.947 2.833,-3.947c0.081,0 1.639,-0.569 4.675,-1.709z" fill="url(#color-2)" stroke="none" stroke-width="0.26459" stroke-linejoin="miter"/><path d="M77.65394,171.8056c0.294,0 0.588,0 0.882,0c0.103,0 0.353,1.129 0.75,3.385c0.044,0.066 0.764,3.564 2.161,10.495l-0.133,0.066c-2.667,-0.081 -4.001,-0.195 -4.001,-0.342c0,-0.771 -0.316,-1.312 -0.949,-1.62c0,-0.03 -1.036,-0.864 -3.108,-2.503c-0.022,0 -0.044,0 -0.067,0c0.045,0.066 0.181,1.353 0.408,3.859c-2.153,0.632 -3.417,0.97 -3.792,1.014c-0.118,0 -0.478,-2.528 -1.08,-7.585c-0.096,-0.316 -0.346,-2.098 -0.75,-5.347l3.925,-1.08c0.088,0 0.338,1.624 0.749,4.873c1.286,1.128 2.573,2.256 3.859,3.384c0.022,0 0.044,0 0.066,0c0,-0.11 -0.566,-2.932 -1.698,-8.466c0.052,0 0.077,-0.022 0.077,-0.067c1.132,-0.044 2.033,-0.066 2.701,-0.066z" fill="url(#color-3)" stroke="none" stroke-width="0.26459" stroke-linejoin="miter"/><path d="M84.09294,170.7256l4.332,0.683c-0.544,2.08 -0.9,3.12 -1.069,3.12c-2.279,-0.154 -3.418,-0.305 -3.418,-0.452c0,-1.065 0,-2.131 0,-3.197c0.022,-0.103 0.074,-0.154 0.155,-0.154zM82.87994,175.9736c0.022,0 0.044,0 0.066,0c3.351,0.61 5.027,0.966 5.027,1.069c-0.963,5.453 -1.547,8.492 -1.753,9.117c-1.165,0 -2.33,0 -3.494,0c-0.103,0 -0.155,-0.052 -0.155,-0.154c0.103,-3.344 0.206,-6.688 0.309,-10.032z" fill="url(#color-4)" stroke="none" stroke-width="0.26459" stroke-linejoin="miter"/><path d="M98.53394,175.1466l3.671,2.524c-0.257,4.19 -0.437,6.637 -0.54,7.342c-0.426,0.052 -1.723,0.129 -3.891,0.232l-0.077,-0.154c-0.047,-0.712 -0.34,-5.176 -0.386,-5.887c-0.052,-0.026 -0.103,-0.052 -0.155,-0.078c-1.403,0.302 -2.37,0.53 -2.899,0.684c0.147,2.506 0.22,4.318 0.22,5.435c-2.19,0.61 -3.388,0.915 -3.594,0.915c-1.425,-6.277 -2.138,-9.591 -2.138,-9.944c3.101,-0.404 4.784,-0.606 5.049,-0.606c0,0.025 0,0.051 0,0.077c0.051,0.037 0.129,0.801 0.231,2.293c2.845,-1.889 4.348,-2.833 4.509,-2.833z" fill="url(#color-5)" stroke="none" stroke-width="0.26459" stroke-linejoin="miter"/><path d="M106.63694,171.8166l4.851,0.86c-0.034,0.273 -0.429,3.41 -0.463,3.682c0.963,-0.051 1.668,-0.077 2.117,-0.077c0.235,0 0.47,0 0.705,0l0.154,-0.077l0.078,0.154c-0.155,2.235 -0.287,3.491 -0.397,3.771l-0.155,-0.089c-0.11,0 -1.102,-0.051 -2.976,-0.154c-0.103,1.727 -0.18,3.792 -0.232,6.196l-0.154,0.077c-2.367,-0.154 -3.778,-0.287 -4.233,-0.397l0.077,-0.309c0,-0.639 0.103,-2.623 0.309,-5.953c-1.985,-0.11 -2.977,-0.242 -2.977,-0.397c0.103,-2.454 0.235,-3.682 0.397,-3.682l2.899,0.551c0,-0.316 0,-0.632 0,-0.948c0,-0.771 -0.029,-1.815 -0.088,-3.13c0.059,0 0.088,-0.026 0.088,-0.078z" fill="url(#color-6)" stroke="none" stroke-width="0.26459" stroke-linejoin="miter"/><path d="M121.49794,175.1576c3.329,1.712 5.174,2.712 5.534,2.998c-0.478,2.235 -0.76,3.385 -0.849,3.451c-2.322,0 -4.645,0 -6.967,0c0,0.04 0,0.081 0,0.121l1.951,2.415l3.065,-1.566c0.301,0.522 0.735,1.433 1.301,2.734c-0.265,0.088 -2.194,0.371 -5.788,0.849c-2.976,-1.962 -4.476,-2.984 -4.498,-3.065c0.478,-3.814 0.761,-5.721 0.849,-5.721c3.109,-1.323 4.91,-2.062 5.402,-2.216zM120.78094,177.8256c-0.058,0.147 -0.448,0.731 -1.168,1.752c0,0.309 0.433,0.464 1.301,0.464c0,0.044 0.628,0.15 1.885,0.319c0.345,-0.478 0.518,-0.757 0.518,-0.838c-0.11,-0.654 -0.349,-0.981 -0.717,-0.981z" fill="url(#color-7)" stroke="none" stroke-width="0.26459" stroke-linejoin="miter"/><path d="M137.82493,175.1466c0.282,0.194 3.389,2.33 3.671,2.524c-0.257,4.19 -0.437,6.637 -0.54,7.342c-0.426,0.052 -1.724,0.129 -3.892,0.232l-0.077,-0.154l-0.386,-5.887l-0.154,-0.078c-1.404,0.302 -2.37,0.53 -2.899,0.684c0.147,2.506 0.22,4.318 0.22,5.435c-2.19,0.61 -3.388,0.915 -3.594,0.915c-1.426,-6.277 -2.139,-9.591 -2.139,-9.944c3.102,-0.404 4.785,-0.606 5.05,-0.606c0,0.025 0,0.051 0,0.077c0.051,0.037 0.128,0.801 0.231,2.293c2.844,-1.889 4.347,-2.833 4.509,-2.833z" fill="url(#color-8)" stroke="none" stroke-width="0.26459" stroke-linejoin="miter"/><path d="M149.30093,171.8056c0.022,0 0.044,0 0.066,0c3.322,0.28 4.983,0.496 4.983,0.651c0.534,4.718 0.933,8.257 1.467,12.975c0,0.096 -1.467,0.338 -4.399,0.728l-0.066,-0.143c0,-0.394 0,-0.787 0,-1.18c-2.528,0.684 -4.263,1.125 -5.204,1.323c-2.234,-3.16 -3.406,-4.843 -3.516,-5.049c1.646,-2.991 2.524,-4.505 2.634,-4.542c1.54,0.073 3.08,0.147 4.62,0.22c-0.096,-0.566 -0.291,-2.227 -0.585,-4.983zM147.25095,179.7106c0.742,2.271 1.205,3.517 1.389,3.737l2.194,-1.907c-0.228,-1.316 -0.397,-1.974 -0.507,-1.974c-0.978,0 -1.955,0 -2.933,0c-0.095,0.015 -0.143,0.063 -0.143,0.144z" fill="url(#color-9)" stroke="none" stroke-width="0.26459" stroke-linejoin="miter"/><path d="M161.40594,175.1576c2.793,0.749 4.274,1.205 4.443,1.367c1.536,2.175 2.399,3.428 2.59,3.759c-0.992,3.146 -1.561,4.718 -1.708,4.718c-3.308,0.772 -5.038,1.158 -5.193,1.158c-2.734,-1.595 -4.189,-2.484 -4.365,-2.668c-0.096,-2.969 -0.144,-4.608 -0.144,-4.917c-0.044,-0.088 -0.066,-0.154 -0.066,-0.198c2.822,-2.146 4.281,-3.219 4.377,-3.219zM161.19695,179.1926c-0.045,0.294 -0.111,1.363 -0.199,3.208l2.458,0.551c0.588,-1.837 0.882,-2.819 0.882,-2.944c-1.955,-0.588 -3.002,-0.882 -3.141,-0.882c0,0.023 0,0.045 0,0.067z" fill="url(#color-10)" stroke="none" stroke-width="0.26459" stroke-linejoin="miter"/><path d="M186.07795,173.8346c0.015,0.029 0.03,0.059 0.044,0.088c-1.602,1.984 -2.631,3.425 -3.086,4.322c5.159,-8.291 -10.319,16.58 -5.16,8.29c-0.014,0 -0.029,0 -0.044,0c-1.815,-0.177 -2.756,-0.294 -2.822,-0.353c5.365,-8.099 8.099,-12.185 8.202,-12.259c0.559,-0.029 1.514,-0.059 2.866,-0.088z" fill="url(#color-11)" stroke="none" stroke-width="0.26459" stroke-linejoin="miter"/><path d="M201.52295,171.8166c2.646,1.338 4.006,2.007 4.079,2.007c0,0.117 -0.551,1.179 -1.653,3.186c-0.026,0 -0.052,0 -0.077,0c-0.089,0 -1.356,-0.599 -3.804,-1.797c-0.415,0.555 -0.83,1.11 -1.246,1.665c2.11,1.014 4.671,2.307 7.684,3.88c-1.367,2.433 -2.337,4.05 -2.91,4.851c-2.076,0.184 -4.152,0.367 -6.229,0.551c-2.844,-1.918 -4.347,-2.91 -4.509,-2.977c0,-0.025 0,-0.051 0,-0.077c0,-0.206 0.577,-1.15 1.731,-2.833c0.048,0 0.096,0 0.143,0c0.456,0.272 1.886,1.055 4.289,2.348c0.485,-0.551 0.97,-1.102 1.455,-1.653c-4.417,-2.249 -6.864,-3.521 -7.342,-3.815c0,-0.022 0,-0.044 0,-0.066c1.404,-2.734 2.168,-4.119 2.293,-4.156c3.653,-0.742 5.685,-1.114 6.096,-1.114z" fill="url(#color-12)" stroke="none" stroke-width="0.26459" stroke-linejoin="miter"/><path d="M212.00794,175.1576c3.314,0.624 5.049,0.981 5.203,1.069c0,0.044 0,0.088 0,0.132c-0.713,2.014 -1.069,3.058 -1.069,3.131c-0.022,0 -0.044,0 -0.066,0c-0.184,0 -1.074,-0.286 -2.668,-0.86c-0.89,1.492 -1.334,2.29 -1.334,2.393c0.735,0.713 1.47,1.425 2.205,2.138c1.705,-1.602 2.572,-2.403 2.601,-2.403c1.331,1.742 1.996,2.719 1.996,2.933c-0.728,0.418 -1.996,1.242 -3.804,2.469c-3.498,-0.757 -5.387,-1.18 -5.666,-1.268c-0.186,-0.6 -1.546,-5 -1.731,-5.6c1.444,-1.378 2.888,-2.756 4.333,-4.134z" fill="url(#color-13)" stroke="none" stroke-width="0.26459" stroke-linejoin="miter"/><path d="M227.89394,175.1466c1.455,0.816 2.348,1.345 2.678,1.587c-1.19,2.477 -1.83,3.737 -1.918,3.782c-0.025,0 -0.051,0 -0.077,0c-0.525,-0.46 -1.051,-0.919 -1.576,-1.378c1.863,-2.271 -3.727,4.542 -1.864,2.271c0.07,1.378 0.14,2.756 0.21,4.134c-0.096,0.088 -1.312,0.294 -3.649,0.617c-0.088,-0.632 -0.662,-3.73 -1.72,-9.293c0,-0.089 1.536,-0.317 4.608,-0.684c0.052,0.059 0.191,0.746 0.419,2.062c1.838,-2.066 2.8,-3.098 2.889,-3.098z" fill="url(#color-14)" stroke="none" stroke-width="0.26459" stroke-linejoin="miter"/><path d="M233.11895,175.1466c4.366,0.602 6.549,0.974 6.549,1.113c1.719,1.477 2.579,2.268 2.579,2.37c-0.698,2.183 -1.095,3.51 -1.19,3.98c0.698,1.551 1.095,2.477 1.19,2.778c0,0.088 -1.139,0.324 -3.417,0.706c-0.03,-0.125 -0.239,-0.404 -0.629,-0.838c-3.145,0.603 -4.839,0.904 -5.082,0.904c-0.558,-1.51 -1.117,-3.021 -1.676,-4.531l3.694,-1.951c0.595,0.095 1.525,0.143 2.789,0.143c0,-0.162 0.022,-0.65 0.066,-1.466c-0.213,0 -2.117,0.139 -5.711,0.419c-0.022,-0.048 -0.044,-0.096 -0.066,-0.144c0.5,-2.322 0.801,-3.483 0.904,-3.483zM235.41194,181.6286c0,0.081 0.235,0.941 0.706,2.58c0.022,0 0.044,0 0.066,0c0.926,-0.603 1.389,-1 1.389,-1.191c0.048,-0.393 0.095,-0.786 0.143,-1.18c-0.176,0 -0.944,-0.069 -2.304,-0.209z" fill="url(#color-15)" stroke="none" stroke-width="0.26459" stroke-linejoin="miter"/><path d="M243.30594,171.8276c2.249,0.044 3.898,0.067 4.949,0.067c0.096,0 0.386,4.512 0.871,13.537c-0.374,0.096 -1.683,0.339 -3.924,0.728c-0.111,0 -0.474,-2.763 -1.092,-8.29c-0.051,-0.133 -0.319,-2.146 -0.804,-6.042z" fill="url(#color-16)" stroke="none" stroke-width="0.26459" stroke-linejoin="miter"/><path d="M252.03694,175.1466c4.365,0.602 6.548,0.974 6.548,1.113c1.72,1.477 2.58,2.268 2.58,2.37c-0.698,2.183 -1.095,3.51 -1.191,3.98c0.699,1.551 1.095,2.477 1.191,2.778c0,0.088 -1.139,0.324 -3.418,0.706c-0.029,-0.125 -0.238,-0.404 -0.628,-0.838c-3.146,0.603 -4.84,0.904 -5.082,0.904c-0.559,-1.51 -1.117,-3.021 -1.676,-4.531l3.693,-1.951c0.596,0.095 1.525,0.143 2.789,0.143c0,-0.162 0.022,-0.65 0.066,-1.466c-0.213,0 -2.116,0.139 -5.71,0.419c-0.022,-0.048 -0.044,-0.096 -0.066,-0.144c0.499,-2.322 0.801,-3.483 0.904,-3.483zM254.32994,181.6286c0,0.081 0.235,0.941 0.705,2.58c0.022,0 0.045,0 0.067,0c0.926,-0.603 1.389,-1 1.389,-1.191c0.047,-0.393 0.095,-0.786 0.143,-1.18c-0.176,0 -0.945,-0.069 -2.304,-0.209z" fill="url(#color-17)" stroke="none" stroke-width="0.26459" stroke-linejoin="miter"/><path d="M270.06192,175.1466c0.014,0 0.029,0 0.044,0c1.962,1.154 3.02,1.756 3.175,1.808c0,0.033 0,0.066 0,0.099c-0.507,0.581 -1.441,1.587 -2.801,3.021c2.668,0.992 4.168,1.591 4.498,1.797c-0.83,1.025 -1.661,2.05 -2.491,3.075c-1.683,-1.44 -2.756,-2.341 -3.219,-2.701c-1.139,2.22 -1.849,3.524 -2.128,3.914c-0.015,0 -0.029,0 -0.044,0c-2.109,-0.742 -3.256,-1.183 -3.44,-1.323c0,-0.018 0,-0.037 0,-0.055c0.971,-1.268 1.941,-2.536 2.911,-3.803c-2.705,-1.118 -4.153,-1.772 -4.344,-1.963c1.191,-2.021 1.86,-3.098 2.007,-3.23c0.022,0.052 1.33,0.952 3.924,2.701c0.919,-1.698 1.555,-2.811 1.908,-3.34z" fill="url(#color-18)" stroke="none" stroke-width="0.26459" stroke-linejoin="miter"/><path d="M281.05294,175.1686c0.103,0.014 0.154,0.066 0.154,0.154c0.05,-0.276 -1.196,6.626 -1.146,6.35c2.19,-0.257 3.285,-0.463 3.285,-0.617c0.411,-2.543 0.694,-3.969 0.849,-4.278c2.712,0.559 4.215,0.89 4.509,0.993c-1.581,5.431 -2.448,8.26 -2.602,8.488c-2.764,1.94 -4.318,3.014 -4.663,3.219c-0.103,0 -1.863,-0.433 -5.281,-1.301c0,-0.025 0,-0.051 0,-0.077c0.904,-1.991 1.466,-2.987 1.687,-2.987c1.12,0.562 2.241,1.124 3.362,1.686c0.537,-0.918 1.073,-1.837 1.61,-2.756c-1.448,0.36 -2.29,0.54 -2.525,0.54c-1.429,-0.742 -2.859,-1.484 -4.288,-2.226c0.521,-4.792 0.852,-7.188 0.992,-7.188c1.352,0 2.704,0 4.057,0z" fill="url(#color-19)" stroke="none" stroke-width="0.26459" stroke-linejoin="miter"/><path d="M310.87395,171.8166c0.022,0.048 0.044,0.096 0.066,0.144c-0.191,2.807 -0.335,4.211 -0.43,4.211c-0.022,0 -0.044,0 -0.066,0c-3.036,-0.243 -4.726,-0.386 -5.072,-0.43c0,3.26 0,6.519 0,9.779c0,0.176 -0.69,0.294 -2.072,0.352c0,0.052 -0.783,0.147 -2.348,0.287c-0.026,-0.048 -0.052,-0.096 -0.077,-0.143c0.338,-5.836 0.554,-9.283 0.65,-10.341c-1.161,0.184 -2.874,0.419 -5.137,0.705c-0.669,-2.498 -1.004,-3.781 -1.004,-3.847c0,-0.096 5.163,-0.334 15.49,-0.717z" fill="url(#color-20)" stroke="none" stroke-width="0.26459" stroke-linejoin="miter"/><path d="M318.34792,175.1576c3.329,1.712 5.174,2.712 5.534,2.998c-0.478,2.235 -0.761,3.385 -0.849,3.451c-2.322,0 -4.645,0 -6.967,0c0,0.04 0,0.081 0,0.121c0.65,0.805 1.301,1.61 1.951,2.415c1.022,-0.522 2.043,-1.044 3.065,-1.566c0.301,0.522 0.735,1.433 1.301,2.734c-0.265,0.088 -2.194,0.371 -5.788,0.849c-2.976,-1.962 -4.476,-2.984 -4.498,-3.065c0.478,-3.814 0.761,-5.721 0.849,-5.721c3.109,-1.323 4.91,-2.062 5.402,-2.216zM317.63093,177.8256c-0.058,0.147 -0.448,0.731 -1.168,1.752c0,0.309 0.433,0.464 1.301,0.464c0,0.044 0.628,0.15 1.885,0.319c0.345,-0.478 0.518,-0.757 0.518,-0.838c-0.11,-0.654 -0.349,-0.981 -0.717,-0.981c-0.606,-0.239 -1.212,-0.478 -1.819,-0.716z" fill="url(#color-21)" stroke="none" stroke-width="0.26459" stroke-linejoin="miter"/><path d="M326.56093,175.1466c4.366,0.602 6.549,0.974 6.549,1.113c1.719,1.477 2.579,2.268 2.579,2.37c-0.698,2.183 -1.095,3.51 -1.19,3.98c0.698,1.551 1.095,2.477 1.19,2.778c0,0.088 -1.139,0.324 -3.417,0.706c-0.03,-0.125 -0.239,-0.404 -0.629,-0.838c-3.145,0.603 -4.839,0.904 -5.082,0.904c-0.558,-1.51 -1.117,-3.021 -1.676,-4.531l3.694,-1.951c0.595,0.095 1.525,0.143 2.789,0.143c0,-0.162 0.022,-0.65 0.066,-1.466c-0.213,0 -2.117,0.139 -5.711,0.419c-0.022,-0.048 -0.044,-0.096 -0.066,-0.144c0.5,-2.322 0.801,-3.483 0.904,-3.483zM328.85393,181.6286c0,0.081 0.235,0.941 0.706,2.58c0.022,0 0.044,0 0.066,0c0.926,-0.603 1.389,-1 1.389,-1.191c0.048,-0.393 0.095,-0.786 0.143,-1.18c-0.176,0 -0.944,-0.069 -2.304,-0.209z" fill="url(#color-22)" stroke="none" stroke-width="0.26459" stroke-linejoin="miter"/><path d="M348.99595,175.1466c1.793,0.742 3.34,1.44 4.641,2.094c-0.338,4.373 -0.555,6.766 -0.651,7.177c-2.16,0.537 -3.369,0.805 -3.627,0.805c0,-0.956 -0.073,-2.841 -0.22,-5.656c-0.816,0.081 -1.224,0.151 -1.224,0.21c0,0.279 0.048,1.874 0.143,4.784c0.045,0 0.067,0.026 0.067,0.078c0,0.088 -1.136,0.33 -3.407,0.727c-0.095,-0.117 -0.386,-1.907 -0.871,-5.369c-0.919,0.236 -1.378,0.405 -1.378,0.508c0.147,1.499 0.294,2.998 0.441,4.497c-0.088,0.096 -1.297,0.482 -3.627,1.158c-1.352,-4.785 -2.197,-7.996 -2.535,-9.635c2.55,-0.632 3.976,-0.948 4.277,-0.948c0.338,1.337 0.507,2.109 0.507,2.315c0.026,0 0.052,0 0.077,0c1.242,-1.147 2.11,-1.918 2.602,-2.315c0.026,0 0.052,0 0.077,0c0.772,0.555 1.544,1.109 2.315,1.664c0.026,0 0.052,0 0.078,0c1.447,-1.396 2.219,-2.094 2.315,-2.094z" fill="url(#color-23)" stroke="none" stroke-width="0.26459" stroke-linejoin="miter"/><path d="M364.04395,173.25439c1.646,0.294 3.292,0.588 4.939,0.882c1.425,2.895 2.16,4.453 2.204,4.674c-3.219,2.719 -4.85,4.116 -4.894,4.189c1.47,-0.162 2.94,-0.323 4.409,-0.485c0.015,0.029 0.03,0.059 0.045,0.088c-0.339,2.646 -0.544,3.969 -0.618,3.969c-4.975,-0.118 -7.974,-0.176 -8.996,-0.176c-0.088,0 -0.264,-0.971 -0.529,-2.911c0.5,-0.389 0.956,-0.816 1.367,-1.279c2.227,-2.028 2.227,-2.028 4.454,-4.057c-0.375,-0.521 -0.639,-0.859 -0.794,-1.014c-0.757,0.875 -1.433,1.595 -2.028,2.161c-1.882,-1.441 -2.984,-2.308 -3.308,-2.602c0,-0.029 0,-0.059 0,-0.088c0.155,-0.096 1.316,-1.139 3.484,-3.131c0,-0.022 0.088,-0.095 0.265,-0.22z" fill="url(#color-24)" stroke="none" stroke-width="0.26459" stroke-linejoin="miter"/><path d="M388.95334,172.80778c2.498,0.279 3.748,0.455 3.748,0.529c0.029,5.497 0.044,9.701 0.044,12.612c0,0.029 0,0.058 0,0.088c-0.015,0.029 -0.03,0.059 -0.044,0.088c-1.294,-0.044 -2.587,-0.088 -3.881,-0.132c0,-0.03 -0.014,-0.044 -0.044,-0.044c0.177,-4.917 0.265,-7.534 0.265,-7.85c-0.441,0.427 -0.882,0.853 -1.323,1.279c-0.074,-0.044 -1.103,-1.132 -3.087,-3.263c1.558,-1.235 2.999,-2.337 4.322,-3.307z" fill="url(#color-25)" stroke="none" stroke-width="0.26459" stroke-linejoin="miter"/><path d="M397.37967,172.90978c3.88,0.213 5.865,0.345 5.953,0.397c0.793,1.411 1.587,2.822 2.381,4.233c-0.735,0.75 -1.47,1.499 -2.205,2.249c0.162,0.22 1.294,1.764 1.455,1.984c-0.404,1.999 -0.668,2.999 -0.793,2.999c-0.294,0.118 -1.632,0.735 -4.013,1.852c-2.845,-1.242 -4.344,-1.933 -4.498,-2.073c-0.235,-0.999 -0.471,-1.999 -0.706,-2.998c0.588,-0.573 1.176,-1.147 1.764,-1.72c-1.47,-2.33 -2.205,-3.52 -2.205,-3.572c0,-0.015 0,-0.029 0,-0.044c0.066,-0.037 1.022,-1.139 2.867,-3.307zM398.61367,177.27478c0.882,0.971 1.353,1.529 1.411,1.676c0.5,-0.617 1,-1.235 1.5,-1.852c-0.235,-0.382 -0.471,-0.764 -0.706,-1.147c-1.058,0 -1.587,0.074 -1.587,0.221c-0.412,0.676 -0.618,1.044 -0.618,1.102zM399.01066,182.08178c0.426,0.911 0.662,1.367 0.706,1.367c0.536,0 0.845,-0.132 0.926,-0.397c0.316,-0.404 0.551,-0.742 0.705,-1.014c-0.352,-0.338 -0.705,-0.676 -1.058,-1.014c-0.015,0 -0.029,0 -0.044,0c-0.823,0.683 -1.235,1.036 -1.235,1.058z" fill="url(#color-26)" stroke="none" stroke-width="0.26459" stroke-linejoin="miter"/><path d="M418.86259,173.03914c1.646,0.294 3.292,0.588 4.939,0.882c1.425,2.895 2.16,4.453 2.204,4.674c-3.219,2.719 -4.85,4.116 -4.894,4.189c1.47,-0.162 2.94,-0.323 4.409,-0.485c0.015,0.029 0.03,0.059 0.045,0.088c-0.339,2.646 -0.544,3.969 -0.618,3.969c-4.975,-0.118 -7.974,-0.176 -8.996,-0.176c-0.088,0 -0.264,-0.971 -0.529,-2.911c0.5,-0.389 0.956,-0.816 1.367,-1.279c2.227,-2.028 2.227,-2.028 4.454,-4.057c-0.375,-0.521 -0.639,-0.859 -0.794,-1.014c-0.757,0.875 -1.433,1.595 -2.028,2.161c-1.882,-1.441 -2.984,-2.308 -3.308,-2.602c0,-0.029 0,-0.059 0,-0.088c0.155,-0.096 1.316,-1.139 3.484,-3.131c0,-0.022 0.088,-0.095 0.265,-0.22z" fill="url(#color-27)" stroke="none" stroke-width="0.26459" stroke-linejoin="miter"/><path d="M414.45767,179.5226c0.022,0.048 0.044,0.096 0.066,0.144c-0.044,0.985 -0.066,1.789 -0.066,2.414c0,0.118 0,0.235 0,0.353c0,0.066 -0.074,0.136 -0.221,0.209c-0.801,0 -3.355,0.096 -7.662,0.287c-0.08,0 -0.246,-1.066 -0.496,-3.197c0.044,0 0.067,-0.022 0.067,-0.066c2.41,-0.052 4.303,-0.077 5.677,-0.077c0.404,0 0.809,0 1.213,0c0.308,0 0.782,-0.022 1.422,-0.067z" fill="url(#color-28)" stroke="none" stroke-width="0.26459" stroke-linejoin="miter"/><path d="M377.0997,172.62436c3.11951,0.80625 4.70784,1.26653 4.76559,1.39326c0,0.06894 0.7597,1.47339 2.26789,4.18978c-0.95596,3.10828 -1.46223,4.73083 -1.55416,4.8693c0,0 -1.73804,2.57847 -1.87655,2.40581l-3.67172,0.75966c-2.59025,-1.41565 -3.95993,-2.21011 -4.12084,-2.40578c-0.09255,-0.99013 -0.24222,-3.75248 -0.44909,-8.29942c2.43995,-1.60012 3.99411,-2.57847 4.63887,-2.91261zM377.90536,176.4116l-2.00265,2.02623c0.17269,2.1064 0.25282,3.39531 0.25282,3.85619c0.04599,0 0.48389,0.29941 1.28955,0.88642c1.07027,-0.23043 1.61132,-0.39134 1.61132,-0.49508l1.23177,-4.1208c-0.33359,-0.96715 -0.60999,-1.45044 -0.84042,-1.45044z" fill="url(#color-29)" stroke="#000000" stroke-width="0" stroke-linejoin="miter"/><path d="M432.09146,172.65708h0.09832c2.43344,1.48301 3.74439,2.30235 3.93284,2.45802l-4.67025,5.94842v0.14749l2.21222,-0.19664c0.03277,-1.35191 0.04917,-2.18764 0.04917,-2.50718c0.03277,0 0.04916,-0.01639 0.04916,-0.04915c1.04056,-0.03277 1.81074,-0.04915 2.31054,-0.04915h0.54076c0.16387,0 0.40967,-0.01639 0.73741,-0.04915l0.04917,0.09832c-0.06555,1.16346 -0.09833,1.83532 -0.09833,2.01558c-0.03277,0 -0.04916,0.01638 -0.04916,0.04915l0.09832,0.04915h1.96642c0.06555,0.00819 0.09832,0.04096 0.09832,0.09832l-0.2458,3.44123l-0.09832,0.04915h-2.01558c-0.03277,0.36051 -0.08193,1.36011 -0.14748,2.99879c-0.06555,0.03277 -0.11471,0.04915 -0.14749,0.04915c-2.44163,-0.06555 -3.75258,-0.09832 -3.93284,-0.09832l-0.04916,-0.09832v-2.40887l-4.86689,0.24582c-0.91766,-2.33512 -1.37649,-3.53136 -1.37649,-3.58871z" fill="#6bab5a" stroke="#2f4a27" stroke-width="4" stroke-linejoin="miter"/><path d="M432.18029,172.75092h0.09832c2.43344,1.48301 3.74439,2.30235 3.93284,2.45802l-4.67025,5.94842v0.14748l2.21222,-0.19664c0.03277,-1.35191 0.04917,-2.18764 0.04917,-2.50718c0.03277,0 0.04916,-0.01639 0.04916,-0.04915c1.04056,-0.03277 1.81074,-0.04915 2.31054,-0.04915h0.54076c0.16387,0 0.40967,-0.01639 0.73741,-0.04915l0.04917,0.09832c-0.06555,1.16346 -0.09833,1.83532 -0.09833,2.01558c-0.03277,0 -0.04916,0.01638 -0.04916,0.04915l0.09832,0.04915h1.96642c0.06555,0.00819 0.09832,0.04096 0.09832,0.09832l-0.2458,3.44123l-0.09832,0.04915h-2.01558c-0.03277,0.36051 -0.08193,1.36011 -0.14748,2.99879c-0.06555,0.03277 -0.11471,0.04915 -0.14749,0.04915c-2.44163,-0.06555 -3.75258,-0.09832 -3.93284,-0.09832l-0.04916,-0.09832v-2.40887l-4.86689,0.24582c-0.91766,-2.33512 -1.37649,-3.53136 -1.37649,-3.58872z" fill="url(#color-30)" stroke="#000000" stroke-width="0" stroke-linejoin="miter"/></g></g></svg>