<svg version="1.1" xmlns="http://www.w3.org/2000/svg" xmlns:xlink="http://www.w3.org/1999/xlink" width="84.45599" height="144.72057" viewBox="0,0,84.45599,144.72057"><defs><linearGradient x1="86.48126" y1="247.77452" x2="86.48126" y2="271.7168" gradientUnits="userSpaceOnUse" id="color-1"><stop offset="0" stop-color="#5e4a18"/><stop offset="1" stop-color="#725a1e"/></linearGradient></defs><g transform="translate(-48.23451,-227.92472)"><g data-paper-data="{&quot;isPaintingLayer&quot;:true}" fill-rule="nonzero" stroke-linejoin="miter" stroke-miterlimit="10" stroke-dasharray="" stroke-dashoffset="0" style="mix-blend-mode: normal"><path d="M112.23126,237.99566v9.5l-10.5,-1.02273v-10.22727z" data-paper-data="{&quot;index&quot;:null}" fill="#907226" stroke="#000000" stroke-width="0" stroke-linecap="butt"/><path d="M52.26703,261.3714c1.51455,-8.73372 15.17265,-16.70604 32.47822,-18.44683c17.80748,-1.79128 33.14437,3.65266 35.75216,12.33496l12.19309,94.24585c-1.87564,10.75785 -18.7016,20.57583 -40.01915,22.7202c-23.12888,2.32657 -42.87547,-5.252 -44.43684,-16.96823z" fill="#907226" stroke="#000000" stroke-width="0" stroke-linecap="butt"/><path d="M113.61412,257.22167c0.60107,6.46145 -11.05947,12.82952 -26.04453,14.22348c-14.98507,1.39396 -27.62012,-2.71405 -28.22118,-9.1755c-0.60106,-6.46145 11.05947,-12.82952 26.04454,-14.22348c14.98507,-1.39396 27.62012,2.71405 28.22118,9.1755z" fill="url(#color-1)" stroke="#000000" stroke-width="0" stroke-linecap="butt"/><path d="M61.73126,271.49566v-11.25l10.5,1.02273v10.22727z" data-paper-data="{&quot;index&quot;:null}" fill="#907226" stroke="#000000" stroke-width="0" stroke-linecap="butt"/><path d="M92.98126,235.74566v10l-12.25,0.5v-10z" data-paper-data="{&quot;index&quot;:null}" fill="#907226" stroke="#000000" stroke-width="0" stroke-linecap="butt"/><path d="M72.48126,238.49566v11l-9.5,1.25v-11z" data-paper-data="{&quot;index&quot;:null}" fill="#907226" stroke="#907226" stroke-width="0" stroke-linecap="butt"/><path d="M52.48126,260.99566v-13.75h3.5v13.75z" fill="#907226" stroke="#907226" stroke-width="0" stroke-linecap="butt"/><path d="M120.23126,276.49264c0,0 -5.75476,3.76534 -8.85242,5.1919c-3.23013,1.48756 -10.14758,3.5581 -10.14758,3.5581" fill="none" stroke="#67511b" stroke-width="1" stroke-linecap="round"/><path d="M89.23126,296.74264c0,0 -12.44144,0.86761 -17.83537,0.26829c-5.82317,-0.64702 -15.91463,-4.01829 -15.91463,-4.01829" fill="none" stroke="#67511b" stroke-width="1" stroke-linecap="round"/><path d="M111.73127,303.99264c0,0 -12.75789,4.83969 -19.57052,5.67478c-6.00074,0.73557 -19.17949,1.32522 -19.17949,1.32522" fill="none" stroke="#67511b" stroke-width="1" stroke-linecap="round"/><path d="M90.98126,320.74264c0,0 -11.21015,1.20296 -16.45329,0.59632c-4.80124,-0.55552 -13.79671,-3.09632 -13.79671,-3.09632" fill="none" stroke="#67511b" stroke-width="1" stroke-linecap="round"/><path d="M126.98126,321.99264c0,0 -6.34206,4.04603 -9.25,5.5c-3.4865,1.74325 -10.25,4.25 -10.25,4.25" fill="none" stroke="#67511b" stroke-width="1" stroke-linecap="round"/><path d="M116.73126,339.24264c0,0 -6.96294,4.12962 -10.48642,5.38801c-4.43265,1.58309 -14.01358,3.36199 -14.01358,3.36199" fill="none" stroke="#67511b" stroke-width="1" stroke-linecap="round"/><g stroke-width="0" stroke-linecap="round"><path d="M85.33335,228.21003l37,10.83333l-35.33334,16.33334z" fill="#ff0000" stroke="#a31e1e"/><path d="M91.88236,240.64631l5.29411,-1.23529l0.88236,-5.52942l2.94118,4.58823l4.11764,-1l-2.70588,3.58823l2.52941,3.64706l-5.11764,-1.47058l-4,5.41176l1,-6z" fill="#ffdb00" stroke="#ffdb00"/></g><path d="M86.98126,364.49264c0,0 -13.33016,-0.4011 -18.20435,-1.652c-4.51494,-1.1587 -11.04564,-4.598 -11.04564,-4.598" fill="none" stroke="#67511b" stroke-width="1" stroke-linecap="round"/><path d="M85.66668,268.29336l-0.33333,-40.33333l2.66666,37.66667z" fill="#a3a3a3" stroke="#a3a3a3" stroke-width="1" stroke-linecap="round"/><path d="M80.98126,271.99566v-10l12.25,-0.5v10.5z" fill="#907226" stroke="#000000" stroke-width="0" stroke-linecap="butt"/><path d="M101.48126,269.24566v-11l9.5,-1.25v12.25z" fill="#907226" stroke="#000000" stroke-width="0" stroke-linecap="butt"/><path d="M116.98126,257.99566v-13.75h3.5v13.75z" fill="#907226" stroke="#000000" stroke-width="0" stroke-linecap="butt"/></g></g></svg>