<svg version="1.1" xmlns="http://www.w3.org/2000/svg" xmlns:xlink="http://www.w3.org/1999/xlink" width="104.33334" height="136.66854" viewBox="0,0,104.33334,136.66854"><defs><linearGradient x1="240.00001" y1="112.5667" x2="240.00001" y2="247.23337" gradientUnits="userSpaceOnUse" id="color-1"><stop offset="0" stop-color="#826600"/><stop offset="1" stop-color="#4d3400"/></linearGradient><linearGradient x1="229.50665" y1="182.99253" x2="188.75506" y2="202.30447" gradientUnits="userSpaceOnUse" id="color-2"><stop offset="0" stop-color="#fcfcfc"/><stop offset="1" stop-color="#ffffff"/></linearGradient><linearGradient x1="256.94233" y1="195.67815" x2="296.21515" y2="173.51309" gradientUnits="userSpaceOnUse" id="color-3"><stop offset="0" stop-color="#fcfcfc"/><stop offset="1" stop-color="#ffffff"/></linearGradient><linearGradient x1="260.26164" y1="142.02808" x2="260.43837" y2="145.37514" gradientUnits="userSpaceOnUse" id="color-4"><stop offset="0" stop-color="#ffe642"/><stop offset="1" stop-color="#ffe743"/></linearGradient><linearGradient x1="219.96741" y1="143.31694" x2="219.7182" y2="148.03698" gradientUnits="userSpaceOnUse" id="color-5"><stop offset="0" stop-color="#cfbb36"/><stop offset="1" stop-color="#ffe743"/></linearGradient><linearGradient x1="260.19015" y1="161.33173" x2="260.19015" y2="163.26793" gradientUnits="userSpaceOnUse" id="color-6"><stop offset="0" stop-color="#2edf83"/><stop offset="1" stop-color="#12ca2e"/></linearGradient><linearGradient x1="221.85086" y1="164.4842" x2="221.85086" y2="166.93669" gradientUnits="userSpaceOnUse" id="color-7"><stop offset="0" stop-color="#2dde7f"/><stop offset="1" stop-color="#14cb32"/></linearGradient><linearGradient x1="240.64742" y1="120.38424" x2="240.64742" y2="123.0949" gradientUnits="userSpaceOnUse" id="color-8"><stop offset="0" stop-color="#2edf83"/><stop offset="1" stop-color="#12ca2e"/></linearGradient><linearGradient x1="231.62639" y1="121.81561" x2="231.97594" y2="124.4983" gradientUnits="userSpaceOnUse" id="color-9"><stop offset="0" stop-color="#2edf83"/><stop offset="1" stop-color="#12ca2e"/></linearGradient><linearGradient x1="248.08222" y1="121.22231" x2="247.70858" y2="123.86019" gradientUnits="userSpaceOnUse" id="color-10"><stop offset="0" stop-color="#2edf83"/><stop offset="1" stop-color="#12ca2e"/></linearGradient><linearGradient x1="239.99999" y1="219.8273" x2="239.99999" y2="247.43336" gradientUnits="userSpaceOnUse" id="color-11"><stop offset="0" stop-color="#ffffff"/><stop offset="1" stop-color="#e5e5e5"/></linearGradient></defs><g transform="translate(-187.83333,-112.56669)"><g data-paper-data="{&quot;isPaintingLayer&quot;:true}" fill-rule="nonzero" stroke-linejoin="miter" stroke-miterlimit="10" stroke-dasharray="" stroke-dashoffset="0" style="mix-blend-mode: normal"><path d="M187.83334,232.19549c0,-15.63404 0,-74.95098 0,-103.75c0,-9.65412 8.39549,-15.87879 15.8009,-15.87879c12.13701,0 49.90994,0 72,0c9.81391,0 16.53243,6.23632 16.53243,15.87879c0,29.62295 0,91.39311 0,103.25c0,7.61017 -6.49271,15.53788 -16.03243,15.53788c-21.93761,0 -59.9884,0 -72.25,0c-7.50185,0 -16.0509,-7.6367 -16.0509,-15.03788z" fill="url(#color-1)" stroke="none" stroke-width="0" stroke-linecap="butt"/><g data-paper-data="{&quot;origRot&quot;:0,&quot;index&quot;:null}" stroke="none" stroke-width="1" stroke-linecap="round"><g data-paper-data="{&quot;origPos&quot;:null,&quot;index&quot;:null,&quot;origRot&quot;:0}"><path d="M208.29276,225.40714c1.41949,1.701 1.23598,4.33699 1.28035,6.53105c0.0615,3.15271 0.08281,6.61322 -0.98115,9.41731c-0.33789,0.89339 -1.94856,0.72852 -2.84459,0.38012c-0.91019,-0.36922 -1.13742,-1.5019 -1.60982,-2.50358c-0.36258,-0.77771 0.19677,-3.02931 -0.58252,-2.50608c-2.61016,1.63977 -3.2949,7.00906 -6.38194,6.95586c-2.93018,-0.0533 -5.02232,-4.32588 -5.59116,-7.33094c-0.54162,-3.13681 0.8323,-6.43349 2.44257,-9.14188c1.51737,-2.55192 3.72352,-5.70866 6.77973,-6.11654c2.80754,-0.33251 5.61482,2.07167 7.48854,4.31466z" fill="#ffffff"/><path d="M228.52234,191.64341l-19.86007,34.7984l-9.60755,-2.40337l18.35014,-35.31098z" data-paper-data="{&quot;origPos&quot;:null}" fill="url(#color-2)"/></g><path d="M238.85617,183.63768c1.48762,3.00592 0.50711,7.21596 -0.73625,10.48864c-1.14609,3.01473 -3.57132,5.66775 -6.18264,7.63938c-2.15025,1.62154 -4.81577,3.24301 -7.45228,2.88095c-2.1757,-0.29916 -3.56886,-2.66308 -4.68327,-4.50235c-0.57151,-0.9043 -0.02394,-2.12482 -0.02344,-3.15794c-0.00008,-0.27008 0.20111,-0.64979 -0.05989,-0.81028c-0.71237,-0.38044 -1.72348,0.11959 -2.43039,-0.35867c-1.63849,-1.111 -3.58306,-2.30651 -4.19556,-4.21018c-0.66327,-2.06532 -0.43965,-4.28538 0.95677,-6.44572c1.39739,-2.16105 4.08402,-4.28067 6.76091,-5.4898c2.8643,-1.29447 6.19316,-2.43341 9.25735,-1.70719c3.41195,0.69596 7.24608,2.55063 8.78868,5.67315z" data-paper-data="{&quot;origPos&quot;:null,&quot;index&quot;:null,&quot;origRot&quot;:0}" fill="#ffe643"/></g><g data-paper-data="{&quot;index&quot;:null,&quot;origRot&quot;:0}" stroke="none" stroke-width="1" stroke-linecap="round"><g data-paper-data="{&quot;origPos&quot;:null,&quot;index&quot;:null,&quot;origRot&quot;:0}"><path d="M273.33959,145.43721c-0.28586,-3.1403 -0.55358,-6.59053 0.30798,-9.46327c0.27341,-0.9152 1.89175,-0.86544 2.8103,-0.58173c0.93416,0.30346 1.24149,1.41707 1.78401,2.38256c0.41705,0.74993 0.01948,3.03564 0.75953,2.45824c2.48674,-1.8215 2.78738,-7.22591 5.87037,-7.39271c2.92653,-0.15551 5.31765,3.95721 6.09904,6.91413c0.76363,3.09027 -0.37204,6.47642 -1.78534,9.29262c-1.33178,2.6535 -3.30752,5.95934 -6.32693,6.58384c-2.77673,0.53162 -5.7481,-1.66652 -7.77679,-3.77041c-1.53703,-1.59559 -1.54172,-4.23796 -1.74221,-6.42329z" fill="#ffffff"/><path d="M257.30807,186.97914l17.33146,-36.12438l9.75431,1.71306l-15.78885,36.52814z" data-paper-data="{&quot;origPos&quot;:null}" fill="url(#color-3)"/></g><path d="M256.74103,200.7333c-3.45286,-0.45121 -7.40932,-2.02812 -9.17038,-5.03287c-1.6979,-2.89234 -1.0197,-7.16153 -0.01257,-10.51445c0.92849,-3.0887 3.15862,-5.90769 5.62291,-8.06029c2.02931,-1.77055 4.57259,-3.57773 7.22817,-3.40435c2.19147,0.14347 3.74946,2.40216 4.99202,4.15739c0.63445,0.86132 0.17519,2.11773 0.24827,3.14826c0.01931,0.26938 -0.15434,0.66247 0.11743,0.80396c0.73766,0.32875 1.7106,-0.24202 2.44977,0.18468c1.71343,0.9915 3.73823,2.04551 4.48474,3.90072c0.80865,2.01285 0.74371,4.24318 -0.49532,6.49749c-1.23994,2.25507 -3.7688,4.56063 -6.35279,5.95733c-2.76484,1.49517 -6.00415,2.86828 -9.11228,2.36213z" data-paper-data="{&quot;origPos&quot;:null,&quot;index&quot;:null,&quot;origRot&quot;:0}" fill="#ffe643"/></g><g data-paper-data="{&quot;index&quot;:null}" stroke="none" stroke-width="1"><path d="M218.28914,217.93234l26.5113,-11.75238l21.86441,19.95182l1.56516,8.87921c-15.19891,0.04422 -30.39781,0.07852 -45.59649,0.04965c-2.13492,-0.00406 -4.52397,-0.52289 -6.96665,-0.98339z" data-paper-data="{&quot;origPos&quot;:null}" fill="#ffe643" stroke-linecap="butt"/><path d="M240.65688,219.05682c-3.2887,2.21839 -6.3204,5.17993 -10.1189,6.25824c-4.12146,1.16982 -9.05012,2.11086 -12.86845,0.00572c-1.94462,-1.27506 -0.47929,-5.08234 0.2814,-7.38728c1.08708,-3.29899 2.7057,-6.23614 5.73054,-8.73593c5.05069,-4.09934 11.36651,-6.99682 17.77271,-8.20401c3.50032,-0.65964 7.32169,0.69663 10.41249,2.46967c5.17156,2.96918 10.25845,7.0422 14.17705,11.77297c1.70173,2.06511 1.99037,4.74983 2.22526,7.11007c0.0633,2.15166 0.44308,5.64703 -1.35856,6.0085c-5.0625,0.98069 -10.60124,-0.19904 -15.34726,-2.17607c-3.25209,-1.40852 -5.15057,-4.99121 -7.75256,-7.53409c-0.56128,-0.62572 -0.67223,-1.67467 -1.39212,-1.62319c-0.87508,0.06482 -0.99138,1.42147 -1.7616,2.03536z" fill="#ff8d00" stroke-linecap="round"/></g><g data-paper-data="{&quot;index&quot;:null}" stroke-width="1"><path d="M231.66244,180.74124c2.67213,-2.77052 6.36195,-4.48598 10.43385,-4.48598c4.07151,0 7.76171,1.71546 10.43347,4.48598c2.67099,2.77013 4.2793,6.977 4.32506,10.81934c0.06216,5.39309 -1.03027,11.56822 -4.41315,16.15714c-1.95911,2.68205 -6.28419,3.74053 -9.8009,3.83319c-3.91937,-0.18951 -8.67644,-1.21939 -10.94708,-4.09934c-3.44923,-4.42192 -4.32736,-10.56082 -4.35595,-15.891c-0.02097,-3.84463 1.65407,-8.04921 4.32469,-10.81934z" fill="#ffe643" stroke="none" stroke-linecap="round"/><path d="M241.74892,183.02485c1.4882,0 2.83763,0.81103 3.81375,2.12307c0.97726,1.3109 1.58162,3.1213 1.58162,5.11969c0,1.99839 -0.60436,3.80879 -1.58162,5.11969c-0.97612,1.31167 -2.32555,2.12307 -3.81375,2.12307c-1.48782,0 -2.83724,-0.8114 -3.81336,-2.12307c-0.97726,-1.3109 -1.58163,-3.12131 -1.58163,-5.11969c0,-1.99839 0.60436,-3.80879 1.58163,-5.11969c0.97612,-1.31205 2.32554,-2.12307 3.81336,-2.12307z" fill="#4eddff" stroke="#ffe741" stroke-linecap="butt"/><path d="M240.3446,185.49145c0.6036,0 1.14999,0.38243 1.54579,1.00129c0.39579,0.61884 0.64058,1.47258 0.64058,2.41477c0,0.94257 -0.24479,1.79629 -0.64058,2.41515c-0.39579,0.61885 -0.94218,1.00129 -1.54579,1.00129c-0.60321,0 -1.14999,-0.38244 -1.54578,-1.00129c-0.39579,-0.61885 -0.64059,-1.47258 -0.64059,-2.41515c0,-0.94218 0.2448,-1.79591 0.64059,-2.41477c0.39579,-0.61885 0.94257,-1.00129 1.54578,-1.00129z" fill="#a0ffff" stroke="none" stroke-linecap="butt"/></g><path d="M226.69796,117.16448l8.64005,2.29605l3.7169,-6.55264l6.7387,6.00056l4.30905,-2.78319l-1.28065,12.97697l-18.95076,1.00063z" data-paper-data="{&quot;index&quot;:null}" fill="#ffc145" stroke="none" stroke-width="1" stroke-linecap="round"/><path d="M216.43816,173.30525c2.62387,-2.23022 2.66271,-6.18243 2.46832,-9.30447c-0.15709,-5.29302 -6.21685,-10.78295 -3.4974,-15.28033c2.39325,-3.94931 10.70473,-5.16406 14.41956,-2.07191c6.17574,5.39461 7.6209,14.6497 9.53547,22.62841c0.6849,2.85632 -0.69135,6.14255 -2.52982,8.47159c-1.60265,2.02952 -4.21572,3.36929 -6.70935,3.81159c-5.14283,0.76692 -10.82388,1.6344 -15.48627,-0.29631c-3.91141,-1.61917 -5.9996,-6.05794 -8.10752,-9.59794c-0.52413,-0.98281 1.81698,0.14387 2.70718,0.31574c2.40713,0.46663 5.35593,2.88757 7.19984,1.32364z" data-paper-data="{&quot;index&quot;:null}" fill="#b65f21" stroke="none" stroke-width="1" stroke-linecap="round"/><path d="M263.52665,167.45371c0.96273,1.66609 3.41905,1.32797 5.08591,1.17314c1.1574,-0.10959 3.4277,-2.69336 3.16581,-1.60878c-1.00901,3.94962 -1.84983,9.40548 -5.17582,11.6754c-3.91232,2.67182 -9.24412,2.46052 -13.80624,1.58084c-2.41868,-0.4725 -4.35417,-3.30082 -5.44869,-5.8065c-1.44272,-3.32352 -2.10334,-7.39475 -1.47066,-11.06241c0.80306,-5.74479 2.03188,-11.93538 5.64153,-16.28708c1.85512,-2.23158 6.33023,-2.7077 8.24138,-0.63172c3.05453,3.33534 3.01425,8.93105 3.96634,13.55176c0.49613,2.41151 -1.35681,5.35594 -0.19955,7.41534z" data-paper-data="{&quot;index&quot;:null}" fill="#b65f21" stroke="none" stroke-width="1" stroke-linecap="round"/><path d="M222.96938,144.30614c3.39988,-4.8282 10.35098,-6.33152 16.14212,-6.61892c6.31887,-0.16723 14.11563,0.43551 18.35827,5.32147c4.04566,4.6644 2.70061,12.10493 2.16099,18.10311c-0.26106,4.06484 -1.89436,8.30566 -4.48744,11.11488c-3.60138,3.91878 -7.94372,7.38992 -13.17149,7.51131c-5.52561,0.12656 -10.63141,-3.19563 -14.65861,-7.22142c-2.82064,-2.82218 -4.39411,-7.22656 -5.0419,-11.39808c-0.83882,-5.48373 -2.54809,-12.19674 0.69806,-16.81236z" data-paper-data="{&quot;index&quot;:null}" fill="#ffe6bd" stroke="none" stroke-width="1" stroke-linecap="round"/><path d="M240.24916,164.93901c0,0 0.94407,-1.64602 1.7234,-1.61279c0.76635,0.03132 1.47867,1.78188 1.47867,1.78188" data-paper-data="{&quot;index&quot;:null}" fill="none" stroke="#e1cba6" stroke-width="1" stroke-linecap="round"/><path d="M260.48431,148.77328c0.90181,-0.04764 1.75289,0.55748 2.39887,1.57314c0.64733,1.01566 1.08962,2.44179 1.17384,4.0376c0.08429,1.59574 -0.20535,3.06059 -0.74213,4.13866c-0.53543,1.07807 -1.31803,1.76948 -2.21984,1.81705c-0.90181,0.04764 -1.75289,-0.55748 -2.39887,-1.57314c-0.64733,-1.01559 -1.08962,-2.44173 -1.17384,-4.03754c-0.08429,-1.59581 0.20535,-3.0606 0.74214,-4.13872c0.53543,-1.07807 1.31808,-1.76941 2.21984,-1.81705z" data-paper-data="{&quot;index&quot;:null}" fill="#ffe6bd" stroke="none" stroke-width="1" stroke-linecap="butt"/><path d="M221.08289,152.25847c0.90181,-0.04764 1.75288,0.55749 2.39887,1.57315c0.64733,1.01566 1.08963,2.44178 1.17384,4.03759c0.08429,1.59574 -0.20535,3.06059 -0.74213,4.13866c-0.53543,1.07807 -1.31804,1.76948 -2.21985,1.81705c-0.90181,0.04764 -1.75288,-0.55749 -2.39887,-1.57315c-0.64733,-1.01559 -1.08963,-2.44172 -1.17384,-4.03753c-0.08429,-1.59581 0.20535,-3.0606 0.74213,-4.13873c0.53543,-1.07807 1.31808,-1.76941 2.21985,-1.81705z" data-paper-data="{&quot;index&quot;:null}" fill="#ffe6bd" stroke="none" stroke-width="1" stroke-linecap="butt"/><path d="M261.17434,141.9799c0.12559,0.0748 0.20791,0.24067 0.24114,0.35507c0.10625,0.36954 0.14202,0.79447 0.14565,1.13846c0.00357,0.39191 0.0345,0.80564 -0.10934,1.16905c-0.10329,0.26001 -0.33589,0.43617 -0.55075,0.58506c-0.1386,0.08686 -0.45786,0.21579 -0.46553,0.09301c-0.01454,-0.2721 0.29937,-0.58308 0.38144,-0.87551c0.08524,-0.30353 0.10094,-0.62514 0.1215,-0.93875c0.02503,-0.39103 -0.05651,-0.88265 0.01595,-1.31808c0.01792,-0.10426 0.12592,-0.20372 0.21994,-0.20834z" data-paper-data="{&quot;index&quot;:null}" fill="url(#color-4)" stroke="none" stroke-width="1" stroke-linecap="round"/><path d="M220.91506,143.64441c0.04063,-0.14357 0.20686,-0.26699 0.33938,-0.25952c0.165,0.12357 0.25583,0.36838 0.28545,0.53375c0.09411,0.53401 0.08119,1.13522 0.03518,1.61818c-0.05316,0.55012 -0.07124,1.13491 -0.32694,1.6232c-0.18345,0.34928 -0.53578,0.56178 -0.85922,0.73866c-0.20727,0.10125 -0.67411,0.23461 -0.66665,0.06131c0.02002,-0.38372 0.50643,-0.77324 0.66494,-1.17112c0.16462,-0.41299 0.2344,-0.86165 0.30981,-1.29842c0.09316,-0.54463 0.05178,-1.24619 0.21809,-1.84605z" data-paper-data="{&quot;index&quot;:null}" fill="url(#color-5)" stroke="none" stroke-width="1" stroke-linecap="round"/><path d="M250.48902,127.39215c3.47282,1.31067 5.2512,4.56139 8.31741,6.11376c2.20978,1.11918 6.02342,0.34646 7.30208,1.7769c0.74233,0.85462 -3.66818,1.76508 -3.26004,2.79334c0.53051,1.31137 5.08843,0.18743 5.48612,2.13491c0.48179,2.67175 -1.40883,5.73479 -3.54128,7.39521c-1.94322,1.44731 -7.06297,3.23122 -12.54875,1.1093c-3.20734,-1.24063 -7.51701,-4.54167 -7.51701,-4.54167l-1.64792,2.04415l-1.97219,-3.10634l-1.97033,3.00622l-1.2347,-2.20649c0,0 -2.58191,2.43941 -4.40442,3.79205c-7.47033,5.54435 -15.3828,7.41563 -18.65361,5.81662c-2.57191,-1.45 -3.6219,-5.35123 -3.37884,-8.14386c0.12541,-1.44826 3.9018,0.15179 4.19243,-1.26982c0.31805,-1.62097 -4.12943,-3.12262 -3.18219,-4.41902c1.45,-1.97691 5.66006,-0.57801 7.87925,-2.18532c2.7206,-1.96407 3.83992,-5.71117 6.67791,-7.56088c3.46021,-2.25475 7.60424,-3.64519 11.71038,-4.09136c4.0032,-0.43422 8.0561,0.14736 11.74569,1.5423z" data-paper-data="{&quot;index&quot;:null}" fill="#cc6e1b" stroke="none" stroke-width="1" stroke-linecap="round"/><path d="M261.6103,162.17998c0,0.81473 -0.70308,1.47519 -1.57036,1.47519c-0.86728,0 -1.57036,-0.66047 -1.57036,-1.47519c0,-0.81473 0.70308,-1.47519 1.57036,-1.47519c0.86728,0 1.57036,0.66047 1.57036,1.47519z" data-paper-data="{&quot;index&quot;:null}" fill="#f0f0f0" stroke="none" stroke-width="1" stroke-linecap="butt"/><path d="M259.28659,163.65517c0,-0.35645 0.28896,-0.64539 0.64539,-0.64539c0.35643,0 0.64539,0.28894 0.64539,0.64539c0,0.35645 -0.28896,0.64539 -0.64539,0.64539c-0.35643,0 -0.64539,-0.28894 -0.64539,-0.64539z" data-paper-data="{&quot;index&quot;:null}" fill="#f0f0f0" stroke="none" stroke-width="1" stroke-linecap="butt"/><path d="M260.77101,163.07432c0,-0.35645 0.28896,-0.64539 0.64539,-0.64539c0.35643,0 0.64539,0.28894 0.64539,0.64539c0,0.35645 -0.28896,0.64539 -0.64539,0.64539c-0.35643,0 -0.64539,-0.28895 -0.64539,-0.64539z" data-paper-data="{&quot;index&quot;:null}" fill="#f0f0f0" stroke="none" stroke-width="1" stroke-linecap="butt"/><path d="M260.90009,161.52534c0,-0.35645 0.28896,-0.64539 0.64539,-0.64539c0.35643,0 0.64538,0.28894 0.64538,0.64539c0,0.35645 -0.28895,0.64539 -0.64538,0.64539c-0.35643,0 -0.64539,-0.28894 -0.64539,-0.64539z" data-paper-data="{&quot;index&quot;:null}" fill="#f0f0f0" stroke="none" stroke-width="1" stroke-linecap="butt"/><path d="M259.54476,160.68636c0,-0.35645 0.28896,-0.64539 0.64539,-0.64539c0.35643,0 0.64539,0.28894 0.64539,0.64539c0,0.35645 -0.28896,0.64539 -0.64539,0.64539c-0.35643,0 -0.64539,-0.28894 -0.64539,-0.64539z" data-paper-data="{&quot;index&quot;:null}" fill="#f0f0f0" stroke="none" stroke-width="1" stroke-linecap="butt"/><path d="M257.9958,161.20268c0,-0.35645 0.28896,-0.64539 0.64539,-0.64539c0.35643,0 0.64539,0.28894 0.64539,0.64539c0,0.35645 -0.28896,0.64539 -0.64539,0.64539c-0.35643,0 -0.64539,-0.28895 -0.64539,-0.64539z" data-paper-data="{&quot;index&quot;:null}" fill="#f0f0f0" stroke="none" stroke-width="1" stroke-linecap="butt"/><path d="M257.9958,162.8807c0,-0.35645 0.28896,-0.64539 0.64539,-0.64539c0.35643,0 0.64539,0.28895 0.64539,0.64539c0,0.35645 -0.28896,0.64538 -0.64539,0.64538c-0.35643,0 -0.64539,-0.28894 -0.64539,-0.64538z" data-paper-data="{&quot;index&quot;:null}" fill="#f0f0f0" stroke="none" stroke-width="1" stroke-linecap="butt"/><path d="M261.15824,162.29983c0,0.53466 -0.43343,0.96809 -0.96809,0.96809c-0.53466,0 -0.96809,-0.43343 -0.96809,-0.96809c0,-0.53466 0.43343,-0.96809 0.96809,-0.96809c0.53466,0 0.96809,0.43343 0.96809,0.96809z" data-paper-data="{&quot;index&quot;:null}" fill="url(#color-6)" stroke="none" stroke-width="1" stroke-linecap="butt"/><path d="M239.67367,171.03722c0.73904,-0.33615 1.33023,-1.00227 2.20454,-1.06438c0.87439,-0.06211 1.52319,0.47459 2.27566,0.74603c0.97576,0.35186 2.75145,-0.21958 2.93145,0.86104c0.21479,1.33252 -1.01018,3.38117 -2.1291,4.19131c-1.29732,0.93973 -3.02859,1.33954 -4.42677,0.74437c-1.51945,-0.74647 -3.24434,-2.72129 -3.51431,-4.39203c-0.15754,-0.97561 1.82803,-0.70757 2.65852,-1.08636z" data-paper-data="{&quot;index&quot;:null}" fill="#ffd7a5" stroke="none" stroke-width="1" stroke-linecap="round"/><path d="M223.72249,165.66204c0,1.05743 -0.81824,1.91467 -1.82763,1.91467c-1.00937,0 -1.82763,-0.85722 -1.82763,-1.91467c0,-1.05743 0.81825,-1.91467 1.82763,-1.91467c1.00937,0 1.82763,0.85722 1.82763,1.91467z" data-paper-data="{&quot;index&quot;:null}" fill="#ffffff" stroke="none" stroke-width="1" stroke-linecap="butt"/><path d="M220.68914,168.05001c0,-0.53466 0.43343,-0.96809 0.96809,-0.96809c0.53466,0 0.96809,0.43343 0.96809,0.96809c0,0.53466 -0.43343,0.96809 -0.96809,0.96809c-0.53466,0 -0.96809,-0.43343 -0.96809,-0.96809z" data-paper-data="{&quot;index&quot;:null}" fill="#ffffff" stroke="none" stroke-width="1" stroke-linecap="butt"/><path d="M223.14165,167.14646c0,-0.53466 0.43343,-0.96809 0.96809,-0.96809c0.53466,0 0.96809,0.43343 0.96809,0.96809c0,0.53466 -0.43343,0.96809 -0.96809,0.96809c-0.53466,0 -0.96809,-0.43343 -0.96809,-0.96809z" data-paper-data="{&quot;index&quot;:null}" fill="#ffffff" stroke="none" stroke-width="1" stroke-linecap="butt"/><path d="M223.14165,164.43579c0,-0.53466 0.43343,-0.96809 0.96809,-0.96809c0.53466,0 0.96809,0.43343 0.96809,0.96809c0,0.53466 -0.43343,0.96809 -0.96809,0.96809c-0.53466,0 -0.96809,-0.43343 -0.96809,-0.96809z" data-paper-data="{&quot;index&quot;:null}" fill="#ffffff" stroke="none" stroke-width="1" stroke-linecap="butt"/><path d="M220.9473,163.27407c0,-0.53466 0.43343,-0.96809 0.96809,-0.96809c0.53466,0 0.96809,0.43343 0.96809,0.96809c0,0.53466 -0.43343,0.96809 -0.96809,0.96809c-0.53466,0 -0.96809,-0.43343 -0.96809,-0.96809z" data-paper-data="{&quot;index&quot;:null}" fill="#ffffff" stroke="none" stroke-width="1" stroke-linecap="butt"/><path d="M218.88203,164.56489c0,-0.53466 0.43343,-0.96809 0.96809,-0.96809c0.53466,0 0.96809,0.43342 0.96809,0.96809c0,0.53466 -0.43343,0.96809 -0.96809,0.96809c-0.53466,0 -0.96809,-0.43343 -0.96809,-0.96809z" data-paper-data="{&quot;index&quot;:null}" fill="#ffffff" stroke="none" stroke-width="1" stroke-linecap="butt"/><path d="M219.01112,166.8883c0,-0.53466 0.43343,-0.96809 0.96809,-0.96809c0.53466,0 0.96809,0.43343 0.96809,0.96809c0,0.53466 -0.43343,0.96809 -0.96809,0.96809c-0.53466,0 -0.96809,-0.43343 -0.96809,-0.96809z" data-paper-data="{&quot;index&quot;:null}" fill="#ffffff" stroke="none" stroke-width="1" stroke-linecap="butt"/><path d="M223.01257,165.71042c0,0.67724 -0.52011,1.22626 -1.16171,1.22626c-0.6416,0 -1.16171,-0.54901 -1.16171,-1.22626c0,-0.67724 0.52011,-1.22626 1.16171,-1.22626c0.6416,0 1.16171,0.54901 1.16171,1.22626z" data-paper-data="{&quot;index&quot;:null}" fill="url(#color-7)" stroke="none" stroke-width="1" stroke-linecap="butt"/><g data-paper-data="{&quot;index&quot;:null}" stroke-width="1"><path d="M249.87502,152.43212c1.19849,-0.06332 2.31839,0.49488 3.15759,1.44658c0.8379,0.95183 1.39787,2.29839 1.47782,3.81313c0.08003,1.51475 -0.33502,2.91281 -1.06806,3.94751c-0.73433,1.03482 -1.85092,1.55644 -2.98766,1.7711c-1.42613,0.26926 -3.15483,0.64101 -4.1772,-0.30366c-1.15719,-1.06728 -1.35261,-2.88136 -1.27672,-4.32305c0.13851,-1.69668 0.93937,-3.35753 1.88656,-4.5805c0.71168,-0.91834 1.78922,-1.70783 2.98766,-1.7711z" data-paper-data="{&quot;origPos&quot;:null}" fill="#ffffff" stroke="none" stroke-linecap="round"/><path d="M248.46165,155.08452c0.77506,-0.04092 1.49905,0.3176 2.04119,0.92982c0.54214,0.61112 0.90368,1.47692 0.95506,2.45056c0.05144,0.97358 -0.21692,1.87269 -0.69168,2.53751c-0.47463,0.66584 -1.15687,1.09866 -1.93192,1.13957c-0.77499,0.04092 -1.49905,-0.3176 -2.04119,-0.92982c-0.54208,-0.61112 -0.90362,-1.47693 -0.95506,-2.45057c-0.05136,-0.97358 0.21699,-1.87268 0.69168,-2.5375c0.47469,-0.66584 1.15693,-1.09866 1.93192,-1.13958z" data-paper-data="{&quot;origPos&quot;:null}" fill="#4eddff" stroke="none" stroke-linecap="butt"/><path d="M248.0732,156.33504c0.47837,-0.02524 0.92679,0.25177 1.26608,0.72091c0.33928,0.46797 0.56808,1.12813 0.60712,1.86693c0.03899,0.7388 -0.11908,1.41936 -0.40711,1.92045c-0.28805,0.50224 -0.70484,0.82495 -1.18314,0.85025c-0.47837,0.02524 -0.92679,-0.25177 -1.26608,-0.72091c-0.33928,-0.46797 -0.56807,-1.12814 -0.60712,-1.86693c-0.03899,-0.7388 0.119,-1.41936 0.40711,-1.92045c0.28805,-0.50224 0.70478,-0.82495 1.18314,-0.85025z" data-paper-data="{&quot;origPos&quot;:null}" fill="#0f1f43" stroke="none" stroke-linecap="butt"/><g data-paper-data="{&quot;origPos&quot;:null}" fill="none" stroke="#000000" stroke-linecap="round"><path d="M248.20286,153.83864c0,0 1.92379,-1.44685 2.97314,-1.3099c1.30975,0.17178 1.84971,1.00932 2.35862,2.22833" data-paper-data="{&quot;origPos&quot;:null}"/><path d="M256.74252,151.50519c0,0 -0.63178,0.63205 -1.06097,0.90001c-0.59325,0.37445 -1.86655,0.97796 -1.86655,0.97796" data-paper-data="{&quot;origPos&quot;:null}"/><path d="M255.07839,150.07385c0,0 -0.52657,0.72206 -0.9091,1.05309c-0.52832,0.46165 -1.69307,1.25471 -1.69307,1.25471"/><path d="M252.32945,149.38153c0,0 -0.30303,0.84069 -0.57737,1.26576c-0.37769,0.59125 -1.27337,1.67907 -1.27337,1.67907"/></g></g><path d="M229.06057,156.30784c0,0 -1.02423,-0.96782 -1.4726,-1.50736c-0.32521,-0.3876 -0.73056,-1.18401 -0.73056,-1.18401" fill="none" stroke="#000000" stroke-width="1" stroke-linecap="round"/><path d="M230.24627,156.00005c0,0 -0.86234,-1.1145 -1.22194,-1.71683c-0.26141,-0.43318 -0.53877,-1.2827 -0.53877,-1.2827" fill="none" stroke="#000000" stroke-width="1" stroke-linecap="round"/><path d="M231.21424,155.58225c0,0 -0.5153,-1.31152 -0.69159,-1.99054c-0.12948,-0.48912 -0.15757,-1.38229 -0.15757,-1.38229" fill="none" stroke="#000000" stroke-width="1" stroke-linecap="round"/><g data-paper-data="{&quot;index&quot;:null}" stroke="none" stroke-width="1" stroke-linecap="butt"><path d="M241.47467,122.39417c-0.13814,-0.20551 -0.21873,-0.45291 -0.21873,-0.71914c0,-0.71289 0.5779,-1.29079 1.29079,-1.29079c0.71289,0 1.29079,0.5779 1.29079,1.29079c0,0.71289 -0.5779,1.29079 -1.29079,1.29079c-0.33234,0 -0.63534,-0.12561 -0.86413,-0.33191c0.13813,0.20551 0.21873,0.45291 0.21873,0.71915c0,0.71289 -0.5779,1.29079 -1.29079,1.29079c-0.71289,0 -1.29079,-0.5779 -1.29079,-1.29079c0,-0.28557 0.09275,-0.54951 0.24975,-0.76328c-0.23595,0.30715 -0.60697,0.50513 -1.02423,0.50513c-0.71289,0 -1.29079,-0.5779 -1.29079,-1.29079c0,-0.71289 0.5779,-1.29079 1.29079,-1.29079c0.71289,0 1.29079,0.5779 1.29079,1.29079c0,0.28557 -0.09275,0.5495 -0.24975,0.76327c0.23595,-0.30715 0.60696,-0.50513 1.02422,-0.50513c0.33234,0 0.63533,0.1256 0.86413,0.33191z" data-paper-data="{&quot;origPos&quot;:null}" fill="#ffffff"/><path d="M239.19066,119.99699c0,-0.71289 0.5779,-1.2908 1.29079,-1.2908c0.71289,0 1.29079,0.57791 1.29079,1.2908c0,0.71289 -0.5779,1.29079 -1.29079,1.29079c-0.71289,0 -1.29079,-0.5779 -1.29079,-1.29079z" data-paper-data="{&quot;origPos&quot;:null}" fill="#ffffff"/><path d="M241.90132,121.73957c0,0.74854 -0.56139,1.35533 -1.25391,1.35533c-0.69252,0 -1.25392,-0.60681 -1.25392,-1.35533c0,-0.74854 0.5614,-1.35534 1.25392,-1.35534c0.69252,0 1.25391,0.60681 1.25391,1.35534z" data-paper-data="{&quot;origPos&quot;:null}" fill="url(#color-8)"/></g><g data-paper-data="{&quot;origRot&quot;:0,&quot;index&quot;:null}" stroke="none" stroke-width="1" stroke-linecap="butt"><path d="M232.33482,123.0059c-0.09194,-0.70554 0.34827,-1.36029 0.98324,-1.46243c0.63495,-0.10213 1.22421,0.38701 1.31615,1.09253c0.09194,0.70554 -0.34827,1.36028 -0.98324,1.46242c-0.29601,0.04762 -0.58209,-0.03325 -0.81248,-0.20466c0.14952,0.1836 0.25322,0.4169 0.28756,0.68039c0.09194,0.70554 -0.34827,1.36028 -0.98324,1.46243c-0.63495,0.10213 -1.22422,-0.38701 -1.31615,-1.09253c-0.03683,-0.28263 0.01176,-0.55712 0.12403,-0.79119c-0.17055,0.3378 -0.47549,0.58689 -0.84713,0.64667c-0.63495,0.10213 -1.22421,-0.38701 -1.31615,-1.09253c-0.09194,-0.70554 0.34827,-1.36028 0.98324,-1.46242c0.63495,-0.10213 1.22422,0.387 1.31615,1.09252c0.03684,0.28263 -0.01175,0.55712 -0.12401,0.79118c0.17057,-0.3378 0.47549,-0.58689 0.84713,-0.64668c0.29601,-0.04762 0.58209,0.03326 0.81248,0.20467c-0.14952,-0.1836 -0.25322,-0.4169 -0.28755,-0.6804z" data-paper-data="{&quot;origPos&quot;:null}" fill="#ffffff"/><path d="M230.27893,121.64109c-0.09194,-0.70554 0.34827,-1.36029 0.98324,-1.46243c0.63495,-0.10213 1.22421,0.38701 1.31615,1.09253c0.09194,0.70554 -0.34827,1.36028 -0.98324,1.46243c-0.63495,0.10213 -1.22422,-0.387 -1.31615,-1.09253z" data-paper-data="{&quot;origPos&quot;:null}" fill="#ffffff"/><path d="M232.91801,122.97729c0.09652,0.7408 -0.32526,1.4218 -0.94208,1.52101c-0.61681,0.09923 -1.1951,-0.42089 -1.29163,-1.16169c-0.09651,-0.7408 0.32527,-1.4218 0.94208,-1.52101c0.61681,-0.09923 1.1951,0.42089 1.29163,1.16169z" data-paper-data="{&quot;origPos&quot;:null}" fill="url(#color-9)"/></g><g data-paper-data="{&quot;origRot&quot;:0,&quot;index&quot;:null}" stroke="none" stroke-width="1" stroke-linecap="butt"><path d="M249.18901,121.6595c0.41542,0.1641 0.67254,0.8595 0.57427,1.55325c-0.09826,0.69375 -0.5147,1.12311 -0.93012,0.95902c-0.19367,-0.07651 -0.35292,-0.26846 -0.45782,-0.5219c0.05216,0.23179 0.06503,0.49111 0.02833,0.75019c-0.09826,0.69375 -0.5147,1.12311 -0.93012,0.95902c-0.41543,-0.1641 -0.67254,-0.8595 -0.57428,-1.55325c0.03936,-0.27792 0.12979,-0.5134 0.25074,-0.6853c-0.17985,0.24459 -0.42332,0.35186 -0.66648,0.2558c-0.41543,-0.1641 -0.67255,-0.8595 -0.57428,-1.55325c0.09826,-0.69375 0.51471,-1.12311 0.93012,-0.95901c0.41543,0.1641 0.67254,0.8595 0.57428,1.55325c-0.03936,0.27792 -0.12979,0.5134 -0.25074,0.6853c0.17985,-0.24459 0.42333,-0.35186 0.66649,-0.25581c0.19367,0.07651 0.35292,0.26846 0.45781,0.5219c-0.05216,-0.23179 -0.06504,-0.49111 -0.02834,-0.75019c0.09827,-0.69375 0.5147,-1.12311 0.93012,-0.95902z" data-paper-data="{&quot;origPos&quot;:null}" fill="#ffffff"/><path d="M247.28668,120.51015c0.09826,-0.69375 0.5147,-1.12311 0.93012,-0.95901c0.41542,0.1641 0.67254,0.8595 0.57428,1.55325c-0.09826,0.69375 -0.5147,1.12311 -0.93012,0.95902c-0.41542,-0.1641 -0.67254,-0.8595 -0.57427,-1.55325z" data-paper-data="{&quot;origPos&quot;:null}" fill="#ffffff"/><path d="M248.62609,122.82988c-0.10317,0.72843 -0.51396,1.18972 -0.91752,1.03031c-0.40355,-0.15941 -0.64706,-0.87913 -0.54389,-1.60757c0.10317,-0.72843 0.51396,-1.18971 0.91753,-1.0303c0.40355,0.15941 0.64705,0.87913 0.54388,1.60757z" data-paper-data="{&quot;origPos&quot;:null}" fill="url(#color-10)"/></g><path d="M247.1485,171.115c0,0 -1.45455,4.34209 -4.44715,4.44797c-2.99262,0.10602 -5.46453,-4.32344 -5.46453,-4.32344c0,0 2.81892,1.48451 5.19977,1.40015c2.38088,-0.08427 4.71186,-1.52468 4.71186,-1.52468z" data-paper-data="{&quot;origRot&quot;:0,&quot;index&quot;:null}" fill="#44231a" stroke="none" stroke-width="0" stroke-linecap="butt"/><path d="M187.83333,232.39547c0,-0.16098 0,-12.56818 0,-12.56818l104.33333,0.33334c0,0 0,9.46311 0,11.73484c0,7.61017 -6.49271,15.53788 -16.03243,15.53788c-21.93761,0 -59.9884,0 -72.25,0c-7.50185,0 -16.0509,-7.6367 -16.0509,-15.03788z" fill="url(#color-11)" stroke="none" stroke-width="0" stroke-linecap="butt"/><path d="M228.04251,157.095c0,0 0.5289,-0.50903 1.6464,-0.85692c0.50839,-0.15826 1.9956,-0.45818 3.32784,-0.13435c1.31448,0.31952 2.47518,1.25873 2.82427,1.70646c0.65635,0.84184 0.98909,1.56021 0.98909,1.56021" fill="none" stroke="#000000" stroke-width="1" stroke-linecap="round"/><text transform="translate(215.2508,240.5967) scale(0.52889,0.52889)" font-size="40" xml:space="preserve" fill="#000000" fill-rule="nonzero" stroke="#000000" stroke-width="1" stroke-linecap="butt" stroke-linejoin="miter" stroke-miterlimit="10" stroke-dasharray="" stroke-dashoffset="0" font-family="Handwriting" font-weight="normal" text-anchor="start" style="mix-blend-mode: normal"><tspan x="0" dy="0">Daisy</tspan></text></g></g></svg>