<svg version="1.1" xmlns="http://www.w3.org/2000/svg" xmlns:xlink="http://www.w3.org/1999/xlink" width="342.65702" height="39.54459" viewBox="0,0,342.65702,39.54459"><defs><linearGradient x1="86.41431" y1="164.03772" x2="86.41431" y2="195.96208" gradientUnits="userSpaceOnUse" id="color-1"><stop offset="0" stop-color="#ff82c0"/><stop offset="1" stop-color="#ff489b"/></linearGradient><linearGradient x1="108.67061" y1="165.63274" x2="108.67061" y2="195.96242" gradientUnits="userSpaceOnUse" id="color-2"><stop offset="0" stop-color="#ff82c0"/><stop offset="1" stop-color="#ff489b"/></linearGradient><linearGradient x1="129.96993" y1="164.03772" x2="129.96993" y2="195.96213" gradientUnits="userSpaceOnUse" id="color-3"><stop offset="0" stop-color="#ff82c0"/><stop offset="1" stop-color="#ff489b"/></linearGradient><linearGradient x1="162.50782" y1="164.03772" x2="162.50782" y2="195.96213" gradientUnits="userSpaceOnUse" id="color-4"><stop offset="0" stop-color="#ff82c0"/><stop offset="1" stop-color="#ff489b"/></linearGradient><linearGradient x1="193.85559" y1="164.03772" x2="193.85559" y2="195.96213" gradientUnits="userSpaceOnUse" id="color-5"><stop offset="0" stop-color="#ff82c0"/><stop offset="1" stop-color="#ff489b"/></linearGradient><linearGradient x1="237.42351" y1="164.03757" x2="237.42351" y2="195.96213" gradientUnits="userSpaceOnUse" id="color-6"><stop offset="0" stop-color="#ff82c0"/><stop offset="1" stop-color="#ff489b"/></linearGradient><linearGradient x1="272.52566" y1="164.03772" x2="272.52566" y2="195.96222" gradientUnits="userSpaceOnUse" id="color-7"><stop offset="0" stop-color="#ff82c0"/><stop offset="1" stop-color="#ff489b"/></linearGradient><linearGradient x1="309.28412" y1="164.13587" x2="309.28412" y2="195.96213" gradientUnits="userSpaceOnUse" id="color-8"><stop offset="0" stop-color="#ff82c0"/><stop offset="1" stop-color="#ff489b"/></linearGradient><linearGradient x1="343.45382" y1="164.03772" x2="343.45382" y2="195.96213" gradientUnits="userSpaceOnUse" id="color-9"><stop offset="0" stop-color="#ff82c0"/><stop offset="1" stop-color="#ff489b"/></linearGradient><linearGradient x1="378.04067" y1="164.03772" x2="378.04067" y2="195.96222" gradientUnits="userSpaceOnUse" id="color-10"><stop offset="0" stop-color="#ff82c0"/><stop offset="1" stop-color="#ff489b"/></linearGradient><linearGradient x1="403.27837" y1="164.94563" x2="403.27837" y2="195.96194" gradientUnits="userSpaceOnUse" id="color-11"><stop offset="0" stop-color="#ff82c0"/><stop offset="1" stop-color="#ff489b"/></linearGradient></defs><g transform="translate(-68.99874,-158.89598)"><g data-paper-data="{&quot;isPaintingLayer&quot;:true}" fill-rule="nonzero" stroke-linecap="butt" stroke-linejoin="miter" stroke-miterlimit="10" stroke-dasharray="" stroke-dashoffset="0" style="mix-blend-mode: normal"><g><g fill="none" stroke="#ffffff" stroke-width="4"><path d="M90.43861,164.03772c5.85649,4.25332 9.26731,6.87891 10.2325,7.87682c-1.88127,5.56202 -2.82193,8.43303 -2.82193,8.61298c0.45807,0.45804 1.69316,2.03666 3.70531,4.73589v0.29441c-3.04277,5.36571 -4.81772,8.33487 -5.32484,8.90745l-20.34232,1.49683c-0.31081,-1.21055 -1.84857,-10.61692 -4.61322,-28.21914zM82.41456,171.62009l0.8834,8.76019c4.31874,-1.04698 6.49446,-1.64408 6.52719,-1.79131c0.1963,-0.49077 0.64618,-2.07758 1.34962,-4.76045zM85.97262,183.49665h-1.61954c-0.21266,0.0326 -0.31898,0.13075 -0.31898,0.29441c-0.09814,2.12664 -0.14725,3.70529 -0.14725,4.73589c-0.09814,0.52348 -0.14723,0.82614 -0.14723,0.90792l7.72961,-1.20236l-0.14725,-0.73616v-0.88336c0,-0.70345 -0.04908,-1.79131 -0.14724,-3.26364c-2.33931,0.09812 -4.07335,0.14721 -5.20212,0.14721z"/><path d="M105.13709,165.63274c4.5805,0.19627 6.87074,0.39257 6.87074,0.5889v0.0983c0,0.91609 0.42535,10.76417 1.27601,29.5442l-0.1963,0.09829l-8.93199,-0.58891c-0.06544,-0.13075 -0.09814,-0.22888 -0.09814,-0.2944l0.78524,-28.56269c0.04907,-0.58891 0.14722,-0.88335 0.29445,-0.88335z"/><path d="M132.64461,164.03772c0.35988,0.39261 3.86889,2.96096 10.52699,7.70506v0.14722c-1.35778,5.59476 -2.24937,8.79293 -2.67471,9.59449l-5.1776,2.99368c6.13459,4.43328 9.22645,6.73987 9.27552,6.91982c-2.17574,1.04698 -5.52929,2.56835 -10.06072,4.56414c-5.2512,-7.18153 -7.87682,-10.85409 -7.87682,-11.01771h-0.29446c-0.11451,4.20422 -0.17176,7.09159 -0.17176,8.66204c-0.06543,0.73613 -0.22085,1.10421 -0.46626,1.10421h-7.38605c-0.34352,0 -0.86702,-4.5641 -1.57046,-13.69237c-0.32717,-1.99578 -0.80156,-6.609 -1.42321,-13.83964c1.89763,-0.40896 7.66414,-1.45594 17.29954,-3.14092zM125.87201,170.95753v0.14721c0,0.99787 0.05724,4.56412 0.17175,10.69872h0.14725c3.99158,-0.93243 5.98736,-1.56225 5.98736,-1.88941l1.39869,-6.28186z"/><path d="M162.90043,164.03772c9.27552,5.2676 14.23225,8.10587 14.87025,8.51483c-0.55621,8.67023 -0.97337,13.37341 -1.25146,14.10954c-5.30028,5.36571 -8.03222,8.04857 -8.19581,8.04857l-16.73516,1.25146c-0.21266,-0.71977 -1.66042,-10.11798 -4.34329,-28.19457c1.57047,-0.52348 6.78895,-1.76674 15.65548,-3.72983zM158.87614,173.485v0.1719l1.22691,14.55125c4.54779,-1.07968 6.82166,-1.75038 6.82166,-2.01212c0,-0.39263 0.51531,-3.43541 1.54592,-9.1283c-6.20003,-2.38838 -9.3982,-3.58258 -9.5945,-3.58258z"/><path d="M191.11956,164.03772c7.1652,1.88128 10.82144,2.96914 10.96867,3.26362c0,0.16366 1.73402,3.43545 5.20212,9.81535c-3.0591,10.24067 -4.79316,15.7291 -5.20212,16.46523l-11.11588,2.38022c-5.971,-3.30449 -9.14465,-5.18577 -9.52089,-5.6438c-0.1963,-2.30662 -0.53985,-8.79293 -1.03062,-19.45894c5.64383,-3.76253 9.21006,-6.03644 10.69873,-6.82166zM193.03356,172.50345l-4.58867,4.76045c0.39261,4.94039 0.58891,7.95862 0.58891,9.0547c0.11451,0 1.10425,0.68707 2.96917,2.06122c2.47019,-0.53988 3.70529,-0.93248 3.70529,-1.17785l2.82193,-9.64359c-0.75252,-2.29023 -1.39051,-3.43533 -1.91399,-3.43533z"/><path d="M241.5214,164.03772c5.88921,2.97733 8.91561,4.46598 9.07919,4.46598c0,0.2618 -1.22689,2.62566 -3.68074,7.09158h-0.17175c-0.1963,0 -3.01823,-1.33326 -8.46576,-3.99975l-2.77282,3.70529c4.69502,2.25753 10.39609,5.13669 17.10324,8.63753c-3.04276,5.41479 -5.20213,9.01373 -6.47812,10.79686l-13.86419,1.22691c-6.33091,-4.26966 -9.67632,-6.47813 -10.0362,-6.62536v-0.17189c0,-0.45804 1.28416,-2.56016 3.85251,-6.30636h0.319c1.01425,0.60527 4.19606,2.34748 9.54545,5.22666l3.23906,-3.68074c-9.8317,-5.00582 -15.27923,-7.83593 -16.34256,-8.49028v-0.14722c3.12455,-6.08554 4.82588,-9.1692 5.10397,-9.25098c8.13038,-1.65225 12.65363,-2.47837 13.56974,-2.47837z"/><path d="M289.69022,164.03772l0.14725,0.31909c-0.42533,6.24909 -0.74433,9.37364 -0.957,9.37364h-0.14725c-6.75623,-0.53983 -10.5188,-0.85884 -11.28767,-0.95696v21.76552c0,0.39261 -1.53771,0.65434 -4.61318,0.7852c0,0.1146 -1.74221,0.32727 -5.22667,0.63801l-0.17175,-0.3191c0.75252,-12.98898 1.23511,-20.66128 1.44775,-23.01698c-2.58471,0.40896 -6.39634,0.93246 -11.43489,1.57047c-1.48867,-5.56202 -2.23299,-8.41666 -2.23299,-8.56389c0,-0.21273 11.49213,-0.7444 34.47642,-1.59501z"/><path d="M301.86127,164.13587c9.07919,1.3087 14.08501,2.07757 15.01748,2.30662c0,0.13075 3.12454,9.49622 9.37366,28.09643c-0.65436,0.24533 -4.42507,0.71974 -11.31218,1.42321c-0.47442,-1.60316 -1.00606,-4.08154 -1.59499,-7.43511c-5.88921,0.53983 -8.83383,1.01425 -8.83383,1.42321l-1.595,5.6684h-0.17176c-6.95253,-1.27602 -10.4288,-2.04488 -10.4288,-2.30663c5.54568,-17.34043 8.72747,-27.06581 9.54542,-29.17613zM306.62172,181.11643h5.32484l-1.96308,-7.77868c-1.52138,0 -2.28207,0.29447 -2.28207,0.88341c-0.24539,1.19417 -0.60529,3.49261 -1.07968,6.89527z"/><path d="M346.12852,164.03772c0.35988,0.39261 3.86886,2.96096 10.52694,7.70506v0.14722c-1.35778,5.59476 -2.24934,8.79293 -2.67468,9.59449l-5.1776,2.99368c6.13459,4.43328 9.22645,6.73987 9.27552,6.91982c-2.17574,1.04698 -5.52932,2.56835 -10.06076,4.56414c-5.2512,-7.18153 -7.8768,-10.85409 -7.8768,-11.01771h-0.29446c-0.11451,4.20422 -0.17176,7.09159 -0.17176,8.66204c-0.06543,0.73613 -0.22085,1.10421 -0.46626,1.10421h-7.38608c-0.34352,0 -0.867,-4.5641 -1.57045,-13.69237c-0.32717,-1.99578 -0.8016,-6.609 -1.42324,-13.83964c1.89763,-0.40896 7.66416,-1.45594 17.29958,-3.14092zM339.35592,170.95753v0.14721c0,0.99787 0.05725,4.56412 0.17176,10.69872h0.14725c3.99158,-0.93243 5.98737,-1.56225 5.98737,-1.88941l1.39868,-6.28186z"/><path d="M395.20525,164.03772l0.14725,0.31909c-0.42533,6.24909 -0.74433,9.37364 -0.957,9.37364h-0.14725c-6.75623,-0.53983 -10.51878,-0.85884 -11.28766,-0.95696v21.76552c0,0.39261 -1.53776,0.65434 -4.61323,0.7852c0,0.1146 -1.74221,0.32727 -5.22667,0.63801l-0.17176,-0.3191c0.75252,-12.98898 1.23511,-20.66128 1.44777,-23.01698c-2.58471,0.40896 -6.39634,0.93246 -11.43487,1.57047c-1.48867,-5.56202 -2.233,-8.41666 -2.233,-8.56389c0,-0.21273 11.49212,-0.7444 34.47641,-1.59501z"/><path d="M408.62773,164.94563l0.09816,0.19611c-1.6359,14.44495 -2.552,22.0355 -2.7483,22.77163c-3.46808,-0.32717 -5.66017,-0.5562 -6.57627,-0.68705v-0.09829l-1.57046,-20.51378c0.39261,-0.13075 3.99157,-0.68694 10.79688,-1.6686zM398.91054,188.40431c0.11451,0.06552 2.66649,0.26185 7.65598,0.58896l0.09816,0.19611c-0.76887,4.51506 -1.25963,6.77257 -1.47229,6.77257h-5.69291c-0.19631,0 -0.45804,-2.25753 -0.78524,-6.77257c-0.06543,0 -0.09814,-0.19629 -0.09814,-0.58889c0.19631,-0.06552 0.29444,-0.1309 0.29444,-0.19611z"/></g><g stroke="none" stroke-width="0.26459"><path d="M90.43861,164.03772c5.85649,4.25332 9.26731,6.87891 10.2325,7.87682c-1.88127,5.56202 -2.82193,8.43303 -2.82193,8.61298c0.45807,0.45804 1.69316,2.03666 3.70531,4.73589v0.29441c-3.04277,5.36571 -4.81772,8.33487 -5.32484,8.90745l-20.34232,1.49683c-0.31081,-1.21055 -1.84857,-10.61692 -4.61322,-28.21914zM82.41456,171.62009l0.8834,8.76019c4.31874,-1.04698 6.49446,-1.64408 6.52719,-1.79131c0.1963,-0.49077 0.64618,-2.07758 1.34962,-4.76045zM85.97262,183.49665h-1.61954c-0.21266,0.0326 -0.31898,0.13075 -0.31898,0.29441c-0.09814,2.12664 -0.14725,3.70529 -0.14725,4.73589c-0.09814,0.52348 -0.14723,0.82614 -0.14723,0.90792l7.72961,-1.20236l-0.14725,-0.73616v-0.88336c0,-0.70345 -0.04908,-1.79131 -0.14724,-3.26364c-2.33931,0.09812 -4.07335,0.14721 -5.20212,0.14721z" fill="url(#color-1)"/><path d="M105.13709,165.63274c4.5805,0.19627 6.87074,0.39257 6.87074,0.5889v0.0983c0,0.91609 0.42535,10.76417 1.27601,29.5442l-0.1963,0.09829l-8.93199,-0.58891c-0.06544,-0.13075 -0.09814,-0.22888 -0.09814,-0.2944l0.78524,-28.56269c0.04907,-0.58891 0.14722,-0.88335 0.29445,-0.88335z" fill="url(#color-2)"/><path d="M132.64461,164.03772c0.35988,0.39261 3.86889,2.96096 10.52699,7.70506v0.14722c-1.35778,5.59476 -2.24937,8.79293 -2.67471,9.59449l-5.1776,2.99368c6.13459,4.43328 9.22645,6.73987 9.27552,6.91982c-2.17574,1.04698 -5.52929,2.56835 -10.06072,4.56414c-5.2512,-7.18153 -7.87682,-10.85409 -7.87682,-11.01771h-0.29446c-0.11451,4.20422 -0.17176,7.09159 -0.17176,8.66204c-0.06543,0.73613 -0.22085,1.10421 -0.46626,1.10421h-7.38605c-0.34352,0 -0.86702,-4.5641 -1.57046,-13.69237c-0.32717,-1.99578 -0.80156,-6.609 -1.42321,-13.83964c1.89763,-0.40896 7.66414,-1.45594 17.29954,-3.14092zM125.87201,170.95753v0.14721c0,0.99787 0.05724,4.56412 0.17175,10.69872h0.14725c3.99158,-0.93243 5.98736,-1.56225 5.98736,-1.88941l1.39869,-6.28186z" fill="url(#color-3)"/><path d="M162.90043,164.03772c9.27552,5.2676 14.23225,8.10587 14.87025,8.51483c-0.55621,8.67023 -0.97337,13.37341 -1.25146,14.10954c-5.30028,5.36571 -8.03222,8.04857 -8.19581,8.04857l-16.73516,1.25146c-0.21266,-0.71977 -1.66042,-10.11798 -4.34329,-28.19457c1.57047,-0.52348 6.78895,-1.76674 15.65548,-3.72983zM158.87614,173.485v0.1719l1.22691,14.55125c4.54779,-1.07968 6.82166,-1.75038 6.82166,-2.01212c0,-0.39263 0.51531,-3.43541 1.54592,-9.1283c-6.20003,-2.38838 -9.3982,-3.58258 -9.5945,-3.58258z" fill="url(#color-4)"/><path d="M191.11956,164.03772c7.1652,1.88128 10.82144,2.96914 10.96867,3.26362c0,0.16366 1.73402,3.43545 5.20212,9.81535c-3.0591,10.24067 -4.79316,15.7291 -5.20212,16.46523l-11.11588,2.38022c-5.971,-3.30449 -9.14465,-5.18577 -9.52089,-5.6438c-0.1963,-2.30662 -0.53985,-8.79293 -1.03062,-19.45894c5.64383,-3.76253 9.21006,-6.03644 10.69873,-6.82166zM193.03356,172.50345l-4.58867,4.76045c0.39261,4.94039 0.58891,7.95862 0.58891,9.0547c0.11451,0 1.10425,0.68707 2.96917,2.06122c2.47019,-0.53988 3.70529,-0.93248 3.70529,-1.17785l2.82193,-9.64359c-0.75252,-2.29023 -1.39051,-3.43533 -1.91399,-3.43533z" fill="url(#color-5)"/><path d="M241.5214,164.03772c5.88921,2.97733 8.91561,4.46598 9.07919,4.46598c0,0.2618 -1.22689,2.62566 -3.68074,7.09158h-0.17175c-0.1963,0 -3.01823,-1.33326 -8.46576,-3.99975l-2.77282,3.70529c4.69502,2.25753 10.39609,5.13669 17.10324,8.63753c-3.04276,5.41479 -5.20213,9.01373 -6.47812,10.79686l-13.86419,1.22691c-6.33091,-4.26966 -9.67632,-6.47813 -10.0362,-6.62536v-0.17189c0,-0.45804 1.28416,-2.56016 3.85251,-6.30636h0.319c1.01425,0.60527 4.19606,2.34748 9.54545,5.22666l3.23906,-3.68074c-9.8317,-5.00582 -15.27923,-7.83593 -16.34256,-8.49028v-0.14722c3.12455,-6.08554 4.82588,-9.1692 5.10397,-9.25098c8.13038,-1.65225 12.65363,-2.47837 13.56974,-2.47837z" fill="url(#color-6)"/><path d="M289.69022,164.03772l0.14725,0.31909c-0.42533,6.24909 -0.74433,9.37364 -0.957,9.37364h-0.14725c-6.75623,-0.53983 -10.5188,-0.85884 -11.28767,-0.95696v21.76552c0,0.39261 -1.53771,0.65434 -4.61318,0.7852c0,0.1146 -1.74221,0.32727 -5.22667,0.63801l-0.17175,-0.3191c0.75252,-12.98898 1.23511,-20.66128 1.44775,-23.01698c-2.58471,0.40896 -6.39634,0.93246 -11.43489,1.57047c-1.48867,-5.56202 -2.23299,-8.41666 -2.23299,-8.56389c0,-0.21273 11.49213,-0.7444 34.47642,-1.59501z" fill="url(#color-7)"/><path d="M301.86127,164.13587c9.07919,1.3087 14.08501,2.07757 15.01748,2.30662c0,0.13075 3.12454,9.49622 9.37366,28.09643c-0.65436,0.24533 -4.42507,0.71974 -11.31218,1.42321c-0.47442,-1.60316 -1.00606,-4.08154 -1.59499,-7.43511c-5.88921,0.53983 -8.83383,1.01425 -8.83383,1.42321l-1.595,5.6684h-0.17176c-6.95253,-1.27602 -10.4288,-2.04488 -10.4288,-2.30663c5.54568,-17.34043 8.72747,-27.06581 9.54542,-29.17613zM306.62172,181.11643h5.32484l-1.96308,-7.77868c-1.52138,0 -2.28207,0.29447 -2.28207,0.88341c-0.24539,1.19417 -0.60529,3.49261 -1.07968,6.89527z" fill="url(#color-8)"/><path d="M346.12852,164.03772c0.35988,0.39261 3.86886,2.96096 10.52694,7.70506v0.14722c-1.35778,5.59476 -2.24934,8.79293 -2.67468,9.59449l-5.1776,2.99368c6.13459,4.43328 9.22645,6.73987 9.27552,6.91982c-2.17574,1.04698 -5.52932,2.56835 -10.06076,4.56414c-5.2512,-7.18153 -7.8768,-10.85409 -7.8768,-11.01771h-0.29446c-0.11451,4.20422 -0.17176,7.09159 -0.17176,8.66204c-0.06543,0.73613 -0.22085,1.10421 -0.46626,1.10421h-7.38608c-0.34352,0 -0.867,-4.5641 -1.57045,-13.69237c-0.32717,-1.99578 -0.8016,-6.609 -1.42324,-13.83964c1.89763,-0.40896 7.66416,-1.45594 17.29958,-3.14092zM339.35592,170.95753v0.14721c0,0.99787 0.05725,4.56412 0.17176,10.69872h0.14725c3.99158,-0.93243 5.98737,-1.56225 5.98737,-1.88941l1.39868,-6.28186z" fill="url(#color-9)"/><path d="M395.20525,164.03772l0.14725,0.31909c-0.42533,6.24909 -0.74433,9.37364 -0.957,9.37364h-0.14725c-6.75623,-0.53983 -10.51878,-0.85884 -11.28766,-0.95696v21.76552c0,0.39261 -1.53776,0.65434 -4.61323,0.7852c0,0.1146 -1.74221,0.32727 -5.22667,0.63801l-0.17176,-0.3191c0.75252,-12.98898 1.23511,-20.66128 1.44777,-23.01698c-2.58471,0.40896 -6.39634,0.93246 -11.43487,1.57047c-1.48867,-5.56202 -2.233,-8.41666 -2.233,-8.56389c0,-0.21273 11.49212,-0.7444 34.47641,-1.59501z" fill="url(#color-10)"/><path d="M408.62773,164.94563l0.09816,0.19611c-1.6359,14.44495 -2.552,22.0355 -2.7483,22.77163c-3.46808,-0.32717 -5.66017,-0.5562 -6.57627,-0.68705v-0.09829l-1.57046,-20.51378c0.39261,-0.13075 3.99157,-0.68694 10.79688,-1.6686zM398.91054,188.40431c0.11451,0.06552 2.66649,0.26185 7.65598,0.58896l0.09816,0.19611c-0.76887,4.51506 -1.25963,6.77257 -1.47229,6.77257h-5.69291c-0.19631,0 -0.45804,-2.25753 -0.78524,-6.77257c-0.06543,0 -0.09814,-0.19629 -0.09814,-0.58889c0.19631,-0.06552 0.29444,-0.1309 0.29444,-0.19611z" fill="url(#color-11)"/></g></g></g></g></svg>