<svg version="1.1" xmlns="http://www.w3.org/2000/svg" xmlns:xlink="http://www.w3.org/1999/xlink" width="19.47218" height="20.45818" viewBox="0,0,19.47218,20.45818"><g transform="translate(-230.1598,-169.7033)"><g data-paper-data="{&quot;isPaintingLayer&quot;:true}" fill-rule="nonzero" stroke="none" stroke-linecap="butt" stroke-linejoin="miter" stroke-miterlimit="10" stroke-dasharray="" stroke-dashoffset="0" style="mix-blend-mode: normal"><path d="M238.7987,182.74491c0,-2.99152 2.42512,-5.41664 5.41664,-5.41664c2.99152,0 5.41664,2.42512 5.41664,5.41664c0,2.99152 -2.42512,5.41663 -5.41664,5.41663c-2.99152,0 -5.41664,-2.42511 -5.41664,-5.41663z" fill-opacity="0.42729" fill="#21043e" stroke-width="0.5"/><path d="M233.3126,184.74485c0,-2.99152 2.42512,-5.41664 5.41664,-5.41664c2.99152,0 5.41664,2.42512 5.41664,5.41664c0,2.99152 -2.42512,5.41663 -5.41664,5.41663c-2.99152,0 -5.41664,-2.42511 -5.41664,-5.41663z" fill-opacity="0.42729" fill="#21043e" stroke-width="0.5"/><path d="M235.64591,175.11994c0,-2.99152 2.42512,-5.41664 5.41664,-5.41664c2.99152,0 5.41664,2.42512 5.41664,5.41664c0,2.99152 -2.42512,5.41663 -5.41664,5.41663c-2.99152,0 -5.41664,-2.42511 -5.41664,-5.41663z" fill-opacity="0.42729" fill="#21043e" stroke-width="0.5"/><path d="M230.1598,177.11987c0,-2.99153 2.42511,-5.41664 5.41664,-5.41664c2.99153,0 5.41664,2.42511 5.41664,5.41664c0,2.99153 -2.42511,5.41664 -5.41664,5.41664c-2.99153,0 -5.41664,-2.42511 -5.41664,-5.41664z" fill-opacity="0.42729" fill="#21043e" stroke-width="0.5"/><path d="M247.71203,176.54181h-15.4194c0,0 -0.03394,-1.04239 0.10063,-1.37613c0.12726,-0.31559 0.68607,-0.5749 0.68607,-0.5749l13.67635,-0.10869c0,0 0.71081,0.44704 0.83047,0.73806c0.11966,0.29101 0.12587,1.32166 0.12587,1.32166z" fill="#430680" stroke-width="0"/><path d="M239.23582,189.0234c0,0 -0.56643,-8.17359 -0.56643,-10.44743c0,-1.2164 0.56643,-2.13983 0.56643,-2.13983h1.44754c0,0 0.84964,1.22885 0.84964,2.39158c0,2.2552 -0.84964,10.19569 -0.84964,10.19569z" fill="#430680" stroke-width="0"/><g stroke-width="0"><path d="M232.28797,183.62046c0,-4.66105 0,-4.59817 0,-7.22914c0,-0.76478 0.47561,-1.14745 1.02977,-0.82006c1.95665,1.15598 2.08104,1.22946 5.63469,3.32894c0.66017,0.39003 1.04629,1.28181 1.04629,2.04658c0,2.64481 0,2.69094 0,7.26549c0,0.82034 -0.48416,1.0479 -1.04629,0.7158c-1.96275,-1.15958 -2.0098,-1.18738 -5.59064,-3.30292c-0.67694,-0.39993 -1.07382,-1.13992 -1.07382,-2.00469z" fill="#680ac7"/><path d="M232.30952,180.75872v-1.53836l7.66765,4.53v1.53836z" fill="#870fff"/><path d="M232.30952,178.05672v-1.53836l7.66765,4.53v1.53836z" fill="#870fff"/><path d="M232.30952,183.42083v-1.53836l7.66765,4.53v1.53836z" fill="#870fff"/><path d="M235.53914,176.87035l1.17785,0.69586v10.01457l-1.17785,-0.69586z" fill="#870fff"/><path d="M237.60793,178.09258l1.17784,0.69586v10.01457l-1.17784,-0.69586z" fill="#870fff"/><path d="M233.50091,175.66617l1.17784,0.69586v10.01457l-1.17784,-0.69586z" fill="#870fff"/><path d="M232.92049,184.10182c0,-1.55784 0,-6.60389 0,-7.48322c0,-0.25561 0.16067,-0.3825 0.34786,-0.27191c0.66097,0.3905 4.54395,2.68454 5.7444,3.39376c0.22301,0.13175 0.35344,0.43063 0.35344,0.68623c0,0.88396 0,5.96644 0,7.49537c0,0.27418 -0.16355,0.34921 -0.35344,0.23702c-0.66303,-0.39172 -4.51989,-2.67032 -5.72952,-3.38497c-0.22868,-0.1351 -0.36274,-0.38326 -0.36274,-0.67229z" fill="#f5f5f5"/></g><g data-paper-data="{&quot;index&quot;:null}" stroke-width="0"><path d="M246.63564,185.62515c-3.58084,2.11554 -3.62788,2.14333 -5.59064,3.30291c-0.56213,0.3321 -1.04629,0.10454 -1.04629,-0.7158c0,-4.57455 0,-4.62068 0,-7.26549c0,-0.76478 0.38611,-1.65656 1.04629,-2.04658c3.55365,-2.09948 3.67804,-2.17297 5.63469,-3.32894c0.55415,-0.32739 1.02977,0.05529 1.02977,0.82006c0,2.63097 0,2.56809 0,7.22914c0,0.86477 -0.39688,1.60476 -1.07382,2.00469z" fill="#680ac7"/><path d="M240.02026,185.28872v-1.53836l7.66765,-4.53v1.53836z" fill="#870fff"/><path d="M240.02026,182.58672v-1.53836l7.66765,-4.53v1.53836z" fill="#870fff"/><path d="M240.02026,187.95083v-1.53836l7.66765,-4.53v1.53836z" fill="#870fff"/><path d="M244.45829,186.88492l-1.17785,0.69586v-10.01457l1.17785,-0.69586z" fill="#870fff"/><path d="M242.3895,188.10715l-1.17784,0.69586v-10.01457l1.17784,-0.69586z" fill="#870fff"/><path d="M246.49652,185.68074l-1.17784,0.69586v-10.01457l1.17784,-0.69586z" fill="#870fff"/><path d="M247.07694,184.10182c0,0.28903 -0.13407,0.53719 -0.36274,0.67229c-1.20964,0.71465 -5.06649,2.99325 -5.72952,3.38497c-0.18989,0.11219 -0.35344,0.03716 -0.35344,-0.23702c0,-1.52892 0,-6.61141 0,-7.49537c0,-0.25561 0.13043,-0.55448 0.35344,-0.68623c1.20045,-0.70922 5.08343,-3.00326 5.7444,-3.39376c0.1872,-0.1106 0.34786,0.0163 0.34786,0.2719c0,0.87933 0,5.92538 0,7.48322z" fill="#f5f5f5"/></g><g stroke-width="0"><path d="M233.40412,174.4112c3.54608,-2.07525 3.49824,-2.04725 5.49984,-3.21864c0.58183,-0.3405 1.55934,-0.35941 2.10997,-0.03717c1.94423,1.13781 2.06782,1.21014 5.59891,3.27661c0.65598,0.38389 0.53473,0.90391 -0.0471,1.24441c-2.01214,1.17755 -2.04723,1.19809 -5.5275,3.23482c-0.6241,0.36524 -1.49593,0.31237 -2.05449,-0.01451c-1.95029,-1.14136 -1.99704,-1.16871 -5.55514,-3.251c-0.67264,-0.39365 -0.68241,-0.84951 -0.02451,-1.23453z" fill="#680ac7"/><path d="M235.61239,173.14393l1.17037,-0.68493l7.61896,4.45879l-1.17037,0.68493z" fill="#870fff"/><path d="M237.66804,171.94092l1.17037,-0.68493l7.61896,4.45879l-1.17037,0.68493z" fill="#870fff"/><path d="M233.58709,174.32918l1.17037,-0.68493l7.61896,4.45879l-1.17037,0.68493z" fill="#870fff"/><path d="M243.23135,172.44124l1.17037,0.68493l-7.61896,4.45879l-1.17037,-0.68493z" fill="#870fff"/><path d="M245.28701,173.64426l1.17037,0.68493l-7.61896,4.45879l-1.17037,-0.68493z" fill="#870fff"/><path d="M241.20606,171.25599l1.17037,0.68493l-7.61896,4.45879l-1.17037,-0.68493z" fill="#870fff"/><path d="M233.9507,174.82696c1.18518,-0.6936 5.02416,-2.94025 5.69314,-3.33176c0.19446,-0.1138 0.52286,-0.11913 0.70887,-0.01028c0.65678,0.38436 4.5151,2.64234 5.70793,3.34041c0.22159,0.12968 0.18245,0.30429 -0.01202,0.41809c-0.67251,0.39357 -4.5392,2.65644 -5.70238,3.33717c-0.20859,0.12207 -0.5017,0.10339 -0.69039,-0.00703c-0.65882,-0.38556 -4.49119,-2.62835 -5.69314,-3.33176c-0.22722,-0.13298 -0.2319,-0.28616 -0.01201,-0.41485z" fill="#f5f5f5"/></g></g></g></svg>