<svg version="1.1" xmlns="http://www.w3.org/2000/svg" xmlns:xlink="http://www.w3.org/1999/xlink" width="85" height="85" viewBox="0,0,85,85"><g transform="translate(-197.5,-137.5)"><g data-paper-data="{&quot;isPaintingLayer&quot;:true}" fill-rule="nonzero" stroke="none" stroke-linecap="butt" stroke-linejoin="miter" stroke-miterlimit="10" stroke-dasharray="" stroke-dashoffset="0" style="mix-blend-mode: normal"><path d="M197.5,222.5v-85h85v85z" fill="none" stroke-width="0"/><path d="M240.8,163.8c0.3,2.7 0.7,3.2 2.8,3.2c2.1,0 2.5,0.4 2.2,2.2c-0.2,1.5 -1.1,2.4 -2.5,2.6c-2.1,0.3 -2.3,0.9 -2.3,5.7c0,6.9 0.7,8.5 3.6,8.5c2.9,0 3.2,2.5 0.5,4c-2.8,1.4 -5.7,1.2 -7.5,-0.6c-1.2,-1.1 -1.6,-3.6 -1.6,-9.5c0,-6.1 -0.3,-7.9 -1.4,-7.9c-0.8,0 -1.6,-0.6 -1.9,-1.3c-0.6,-1.8 0.3,-3.7 1.9,-3.7c0.9,0 1.4,-1.1 1.4,-2.8c0,-1.6 0.3,-3.2 0.7,-3.6c1.6,-1.6 3.8,0.1 4.1,3.2z" fill="#ff0000" stroke-width="1"/></g></g></svg>