<svg version="1.1" xmlns="http://www.w3.org/2000/svg" xmlns:xlink="http://www.w3.org/1999/xlink" width="104.33334" height="136.7567" viewBox="0,0,104.33334,136.7567"><defs><linearGradient x1="240.00001" y1="112.56667" x2="240.00001" y2="247.23334" gradientUnits="userSpaceOnUse" id="color-1"><stop offset="0" stop-color="#2f0082"/><stop offset="1" stop-color="#1a004d"/></linearGradient><linearGradient x1="226.11198" y1="203.80172" x2="226.11198" y2="224.349" gradientUnits="userSpaceOnUse" id="color-2"><stop offset="0" stop-color="#3b2f49"/><stop offset="1" stop-color="#342842"/></linearGradient><linearGradient x1="241.2483" y1="179.17001" x2="241.2483" y2="214.81874" gradientUnits="userSpaceOnUse" id="color-3"><stop offset="0" stop-color="#4c405a"/><stop offset="1" stop-color="#342842"/></linearGradient><linearGradient x1="253.88802" y1="203.99172" x2="253.88802" y2="224.539" gradientUnits="userSpaceOnUse" id="color-4"><stop offset="0" stop-color="#3b2f49"/><stop offset="1" stop-color="#342842"/></linearGradient><radialGradient cx="258.77148" cy="159.88565" r="10.69573" gradientUnits="userSpaceOnUse" id="color-5"><stop offset="0" stop-color="#fbc5fc"/><stop offset="1" stop-color="#f991fd"/></radialGradient><linearGradient x1="239.99999" y1="219.82727" x2="239.99999" y2="247.43333" gradientUnits="userSpaceOnUse" id="color-6"><stop offset="0" stop-color="#ffffff"/><stop offset="1" stop-color="#e5e5e5"/></linearGradient></defs><g transform="translate(-187.83333,-112.56667)"><g data-paper-data="{&quot;isPaintingLayer&quot;:true}" fill-rule="nonzero" stroke-linejoin="miter" stroke-miterlimit="10" stroke-dasharray="" stroke-dashoffset="0" style="mix-blend-mode: normal"><path d="M187.83334,232.19546c0,-15.63404 0,-74.95098 0,-103.75c0,-9.65412 8.39549,-15.87879 15.8009,-15.87879c12.13701,0 49.90994,0 72,0c9.81391,0 16.53243,6.23632 16.53243,15.87879c0,29.62295 0,91.39311 0,103.25c0,7.61017 -6.49271,15.53788 -16.03243,15.53788c-21.93761,0 -59.9884,0 -72.25,0c-7.50185,0 -16.0509,-7.6367 -16.0509,-15.03788z" fill="url(#color-1)" stroke="none" stroke-width="0" stroke-linecap="butt"/><g><g data-paper-data="{&quot;index&quot;:null}" stroke="none" stroke-width="0" stroke-linecap="butt"><path d="M238.27752,186.69092c-0.74112,1.58365 -6.03773,4.3486 -10.52738,8.23229c-2.19983,1.9029 -9.149,8.32031 -9.7389,7.68308c-1.31956,-1.42542 -5.25287,-4.21438 -4.8362,-4.7125c4.32469,-5.16995 8.88808,-12.26047 14.03821,-17.40472c1.65711,-1.65522 7.55902,-3.63263 9.71615,-1.17838c2.15713,2.45425 2.72832,4.43101 1.34813,7.38022z" fill="#7100f3"/><g><path d="M218.82959,217.91751c5.75687,-1.93911 7.5699,-2.6999 10.8373,2.66717c1.09546,3.67231 0.1888,8.09264 -5.78531,9.98867c-6.78633,1.77017 -9.91938,0.9343 -11.58294,-2.68612c-1.36711,-3.73637 -0.70207,-8.29018 6.53096,-9.96971z" data-paper-data="{&quot;origRot&quot;:0}" fill="#ffffff"/><path d="M218.59951,213.96961c3.9566,-1.46462 8.06734,-2.40648 8.94254,-0.24982c1.49881,3.69336 -0.14617,2.80921 -7.4444,5.71773c-6.40654,2.55317 -7.36119,3.1371 -8.88898,-0.15825c-1.36569,-2.9457 3.43423,-3.84506 7.39084,-5.30967z" data-paper-data="{&quot;origRot&quot;:0}" fill="#ffffff"/><path d="M223.05664,211.22809c2.20476,4.73767 -5.74655,6.32678 -8.13795,6.39682c-2.39141,0.07004 -2.34912,-6.22199 -2.5021,-11.44532c-0.15299,-5.22331 -0.83476,-10.17467 4.05299,-9.58449c3.50493,0.4232 4.10287,3.81814 4.59669,6.66567c0.5231,3.01639 0.86346,5.54581 1.99037,7.96731z" fill="#7100f3"/></g></g><g data-paper-data="{&quot;index&quot;:null}" stroke="none" stroke-width="0" stroke-linecap="butt"><path d="M239.15036,205.90082c1.92506,4.01907 -1.68875,8.63372 -1.68875,8.63372c-1.08061,1.3746 -4.01596,2.10783 -9.26869,4.87349c-2.57371,1.35511 -8.23784,3.6385 -9.89623,4.1372c-1.65838,0.4987 -2.61084,1.45066 -4.33536,0.14242c-1.72452,-1.30825 -1.79694,-4.26848 -0.82753,-5.06799c3.6063,-2.9742 10.10448,-9.92828 16.28606,-13.77213c1.98899,-1.2368 8.319,-1.8936 9.7305,1.0533z" data-paper-data="{&quot;index&quot;:null}" fill="url(#color-2)"/><g fill="#000000" font-family="&quot;Helvetica Neue&quot;, Helvetica, Arial, sans-serif" font-weight="400" font-size="16" text-anchor="start"/></g><g data-paper-data="{&quot;index&quot;:null}"><path d="M230.11439,181.2077c3.74185,-3.64121 16.50673,-1.29207 16.50673,-1.29207c8.97105,0 10.50008,7.04429 10.88435,12.44608c0.0673,4.2904 -1.51033,7.33137 -2.65467,9.91479c-0.84562,1.90905 -0.35927,7.25084 -3.46886,10.06459c-3.1096,2.81376 -5.95932,2.47766 -10.39205,2.47766c-8.97105,0 -16.20414,-3.32683 -16.20414,-10.40506c0,-7.67871 0.30624,-18.31868 5.32864,-23.20601z" data-paper-data="{&quot;origPos&quot;:null,&quot;index&quot;:null}" fill="url(#color-3)" stroke="none" stroke-width="0" stroke-linecap="butt"/><path d="M244.88836,177.54417c8.97105,0 10.85807,5.26821 11.24235,10.67c0.86143,8.28051 -9.03852,7.90978 -9.94254,7.57084c-1.72495,-0.64678 -5.62068,-2.97145 -6.91022,-3.72184c-2.87609,-1.67364 -13.75216,-0.48765 -13.75216,-0.48765c0,0 2.50054,-9.19649 5.03354,-11.66137c3.74184,-3.6412 9.47766,-2.36999 14.32904,-2.36999z" data-paper-data="{&quot;origPos&quot;:null,&quot;index&quot;:null}" fill="#7100f3" stroke="none" stroke-width="0" stroke-linecap="butt"/><path d="M240.55793,195.05392c0,0 2.17231,-5.97585 3.30914,-8.72222c0.97715,-2.36063 4.05556,-6.39453 4.05556,-6.39453" data-paper-data="{&quot;origPos&quot;:null}" fill="none" stroke="#433751" stroke-width="6.5" stroke-linecap="round"/><path d="M240.73744,192.23922c1.21796,0 2.4058,1.24978 2.4058,2.62251c0,1.37271 -1.18783,2.62251 -2.4058,2.62251c-1.21797,0 -2.4058,-1.24978 -2.4058,-2.62251c0,-1.37272 1.18784,-2.62251 2.4058,-2.62251z" fill="#ffea12" stroke="none" stroke-width="0" stroke-linecap="butt"/><path d="M227.54774,194.02117c0,0 2.64715,-8.12718 3.62865,-10.22844c0.9815,-2.10125 3.22936,-4.67033 3.22936,-4.67033" data-paper-data="{&quot;origPos&quot;:null,&quot;origRot&quot;:0}" fill="none" stroke="#433751" stroke-width="5.5" stroke-linecap="round"/><path d="M228.06391,190.48125c1.21797,0 2.20533,1.04189 2.20533,2.41461c0,1.37272 -0.98736,2.41461 -2.20533,2.41461c-1.21796,0 -2.20533,-1.04188 -2.20533,-2.41461c0,-1.37273 0.98736,-2.41461 2.20533,-2.41461z" data-paper-data="{&quot;origPos&quot;:null}" fill="#ffea12" stroke="none" stroke-width="0" stroke-linecap="butt"/></g><g data-paper-data="{&quot;index&quot;:null}" stroke="none" stroke-width="0" stroke-linecap="butt"><path d="M242.53834,214.72454c0,0 -3.61381,-4.61465 -1.68875,-8.63372c1.41151,-2.94689 7.74151,-2.29009 9.7305,-1.0533c6.18159,3.84384 12.67976,10.79793 16.28606,13.77213c0.96943,0.7995 0.89699,3.75974 -0.82753,5.06799c-1.72451,1.30824 -2.67696,0.35628 -4.33536,-0.14242c-1.65838,-0.4987 -7.32252,-2.7821 -9.89623,-4.1372c-5.25271,-2.76566 -8.18807,-3.4989 -9.26869,-4.87349z" data-paper-data="{&quot;index&quot;:null}" fill="url(#color-4)"/><g fill="#000000" font-family="&quot;Helvetica Neue&quot;, Helvetica, Arial, sans-serif" font-weight="400" font-size="16" text-anchor="start"/></g><path d="M255.52526,188.98886c-1.19972,-1.17438 0.75679,-2.80312 0.59334,-4.02574c-0.15357,-1.14872 -0.99356,-0.71778 -0.43198,-2.19764c0.33857,-0.89221 -0.37859,-2.70329 0.59547,-3.15269c2.36114,-1.08932 5.91969,-0.9984 7.4293,-0.3125c6.62726,3.01107 13.3877,8.05058 19.25097,11.37523c0.56492,0.32033 -2.14031,4.31168 -2.87608,6.10938c-0.32893,0.80365 -9.08748,-2.7687 -11.81499,-3.77915c-5.56661,-2.06224 -11.49652,-2.79379 -12.74602,-4.0169z" fill="#7100f3" stroke="none" stroke-width="0" stroke-linecap="butt"/><g stroke-linecap="butt"><path d="M258.65729,204.08231c5.4795,-3.07513 6.68648,-1.52301 10.7527,2.99004c5.48,5.0107 3.82646,9.30551 0.80274,11.89135c-3.22521,2.33942 -6.36557,1.53147 -11.41182,-3.33915c-4.27667,-4.58203 -2.89917,-8.87899 -0.14361,-11.54223z" data-paper-data="{&quot;origRot&quot;:0}" fill="#ffffff" stroke="none" stroke-width="0"/><path d="M263.87556,199.14156c1.82035,-1.45035 4.94101,1.38633 7.67096,4.60301c2.72998,3.21669 6.47211,6.35429 3.83736,8.25177c-2.94747,2.12269 -3.49311,1.14566 -7.82439,-4.22112c-4.93415,-6.11376 -6.80133,-6.1499 -3.68393,-8.63367z" data-paper-data="{&quot;origRot&quot;:0}" fill="#ffffff" stroke="none" stroke-width="0"/><path d="M269.00655,199.16959c2.16956,-1.55773 3.70659,-3.59521 5.64168,-5.96749c1.82675,-2.23948 4.01269,-4.90497 7.27479,-3.55502c4.54912,1.88255 1.52687,5.86335 -1.16791,10.34047c-2.69478,4.47714 -5.74346,9.98141 -7.79322,8.74766c-2.04976,-1.23376 -8.20009,-6.51789 -3.95534,-9.56561z" fill="#7100f3" stroke="none" stroke-width="0"/><path d="M259.41944,211.38709l5.75525,-4.94775l1.69757,2.18879l-4.11055,3.40795l2.09826,2.52143l-1.70066,1.33148z" data-paper-data="{&quot;index&quot;:null,&quot;origRot&quot;:0}" fill="#ffea12" stroke="#7100f3" stroke-width="1"/></g><g data-paper-data="{&quot;index&quot;:null}"><path d="M266.04275,146.81255c-0.34793,2.10112 -7.284,4.76358 -12.74242,4.76358c-4.3984,0 -3.30813,-3.74158 -3.30813,-5.76061c0,-2.01904 8.61969,-1.57864 13.01809,-1.57864c4.39839,0 3.25765,1.21563 3.03245,2.57566z" data-paper-data="{&quot;index&quot;:null}" fill="#2d0757" stroke="none" stroke-width="0" stroke-linecap="butt"/><path d="M254.77711,160.86642c0.03745,-0.02254 0.07718,-0.04442 0.11928,-0.06547c1.11242,-0.55621 1.66862,0.55621 1.66862,0.55621l-0.05958,0.06186c0.15378,0.15094 0.23432,0.29187 0.23432,0.29187c1.4844,2.59768 1.69853,6.9364 1.20029,9.94485c-0.18872,1.13953 -1.78801,2.66155 -1.7221,3.50256c-0.50014,1.50044 -2.2326,1.95752 -3.67011,2.0772c-3.60834,0.3004 -7.36119,0.01693 -10.98326,0.01693c-0.7942,0 -2.39295,0.31302 -3.10927,0c-4.66754,-2.03963 -2.48741,-8.23837 -2.48741,-12.12614c0,-2.41033 1.31001,-4.0538 3.80402,-4.40875c3.43786,-0.48929 7.23331,-0.04785 10.70589,-0.04785c1.45099,0 2.90199,0 4.35297,0z" data-paper-data="{&quot;index&quot;:null}" fill="#ffffff" stroke="none" stroke-width="0.5" stroke-linecap="butt"/><path d="M254.80086,165.90417c0.77675,-0.02988 0.80661,0.74686 0.80661,0.74686l0.00058,0.23717c0,0.53976 0.02072,1.08221 0.04906,1.62671c0.30156,-0.15367 0.60106,-0.30751 0.89885,-0.4564l0.61578,-0.06815c0,0 0.7634,-0.1464 0.90981,0.617c0.1464,0.7634 -0.617,0.90981 -0.617,0.90981l-0.21335,-0.06815c-0.49252,0.24626 -0.99133,0.50391 -1.49664,0.75353c0.01521,0.2768 0.02893,0.55394 0.03947,0.83136h0.02129v1.03642c0,0.09824 -0.01823,0.19223 -0.05149,0.27877c-0.07576,0.22299 -0.26302,0.49854 -0.72583,0.49854c-0.46282,0 -0.65007,-0.27556 -0.72583,-0.49854c-0.03325,-0.08652 -0.05149,-0.18053 -0.05149,-0.27877c0,-0.39067 -0.01039,-0.78021 -0.02652,-1.16878c-0.55946,0.23168 -1.12682,0.43165 -1.70234,0.57554c-0.56688,0.09938 -1.13002,0.19196 -1.69134,0.27727c0,0.65808 0,1.31616 0,1.97425v0.20727c0,0 0,0.77732 -0.77732,0.77732c-0.77732,0 -0.77732,-0.77732 -0.77732,-0.77732c0,-0.63896 0,-1.29759 0,-1.96379c-1.40647,0.17968 -2.81272,0.31086 -4.24933,0.38634c0,0.24944 0,0.49887 0,0.74831v0.62185c0,0 0,0.77732 -0.77732,0.77732c-0.77732,0 -0.77732,-0.77732 -0.77732,-0.77732c0,-0.40125 0,-0.84584 0,-1.31087c-0.42804,0.01016 -0.85963,0.01533 -1.29552,0.01533c0,0 -0.77732,0 -0.77732,-0.77732c0,-0.77732 0.77732,-0.77732 0.77732,-0.77732c0.43097,0 0.86307,-0.00034 1.29552,-0.00275c0,-0.8269 0,-1.64167 0,-2.3292c0,0 0,-0.77732 0.77732,-0.77732c0.77732,0 0.77732,0.77732 0.77732,0.77732c0,0.76951 0,1.53901 0,2.30851c1.4324,-0.03297 2.85836,-0.11207 4.24933,-0.3015c0,-1.03161 0,-2.06082 0,-3.04344c0,0 0,-0.77732 0.77732,-0.77732c0.77732,0 0.77732,0.77732 0.77732,0.77732c0,0.92638 0,1.85274 0,2.77912c0.44327,-0.09176 0.8817,-0.19779 1.31429,-0.32032c0.67686,-0.16922 1.3389,-0.42394 1.98934,-0.71667c-0.04716,-0.79056 -0.09071,-1.57806 -0.09071,-2.36398l0.00058,-0.1774c0,0 -0.02988,-0.77675 0.74686,-0.80661z" data-paper-data="{&quot;index&quot;:null}" fill="#a5b5ff" stroke="none" stroke-width="0.5" stroke-linecap="butt"/><path d="M223.02169,161.89047l0.02113,-0.22718c0.06909,-0.12576 0.13818,-0.25151 0.20727,-0.37726c3.07382,-2.61648 5.55502,2.4715 6.84999,4.41275c0.4333,0.64955 0.9342,1.17252 1.26185,1.88151c1.03149,2.248 6.42696,7.55216 1.4779,8.57217c-0.62843,0.12952 -1.20716,0.11544 -1.8468,0.11544c-0.36995,-0.13033 -0.77584,-0.19621 -1.10982,-0.39101c-0.28624,-0.16697 -2.11682,-1.5225 -2.75638,-1.89104c-0.26874,-0.15486 -3.67091,-3.32637 -3.83193,-3.91247c-0.73781,-2.70742 -0.33414,-5.18404 -0.33414,-7.90513c0,-0.08939 0.01823,-0.17492 0.05149,-0.25366c0.00298,-0.00797 0.00613,-0.01601 0.00946,-0.0241z" data-paper-data="{&quot;index&quot;:null}" fill="#8e4108" stroke="none" stroke-width="0.5" stroke-linecap="butt"/><path d="M257.7554,178.408c0.10857,2.48612 0.93647,4.94917 -0.52152,6.80031c-0.62819,0.79759 -1.78299,1.61623 -2.19197,1.57936c-2.04202,0.00834 -4.63859,0.35636 -6.55721,-0.43165c-1.38385,-0.56836 -4.28196,-2.51801 -4.30242,-2.52485c-0.02078,-0.0057 -0.03211,-0.00947 -0.03211,-0.00947c-1.79662,-0.59887 -3.36298,-1.75032 -5.13773,-2.34761c-0.82557,-0.27785 -3.45023,-1.11401 -3.45023,-1.11401c-3.87786,-2.58523 -6.50162,-6.43545 -8.02921,-10.79846c-0.61931,-1.85798 -1.04331,-3.75182 -1.65827,-5.59668l0.05201,-0.20949c-1.84229,-1.05402 -3.38692,-2.55035 -5.24574,-3.56562c-0.98995,-0.54069 -2.36421,-0.97096 -3.3031,-1.72433c-0.99002,-0.79439 -1.55258,-1.26058 -2.34255,-2.25414c-3.07257,-3.14769 -3.52706,-5.95806 -3.52706,-10.25889l0.05109,-0.59497c-0.05577,-0.15909 -0.07838,-0.34872 -0.04668,-0.57399c0.01413,-0.23285 0.08734,-0.50654 0.30744,-0.73005c0.20588,-0.23668 0.47309,-0.33077 0.70417,-0.36283c0.31822,-0.07014 0.5721,-0.02358 0.77182,0.07661c3.19861,0.78773 5.70349,2.30304 8.71803,3.56021c1.21353,0.5061 2.68773,0.39221 4.00124,0.61113c0.62185,0.10364 2.49023,0.29401 2.49023,0.29401c2.83093,0 4.61275,-1.71233 7.23282,-2.71916c2.04368,-0.78533 4.12032,-0.74361 6.24349,-1.0987c3.63348,-0.60558 7.71539,-0.12056 11.39782,-0.12056c0,0 1.44812,0.42336 1.63164,0.68205c1.51876,1.39194 1.47763,2.87489 1.47763,4.91463c0,2.93935 -0.26456,6.03487 0.15346,8.94522c0.18446,1.3835 0.46308,2.67639 0.46831,4.0737c0.06718,0.2806 0.00816,0.52988 -0.08773,0.72872c-0.08419,0.23805 -0.24923,0.48837 -0.56895,0.63583c-1.7389,1.28357 -3.21339,0.90873 -5.15002,1.5605c-0.85512,0.28778 -1.60521,0.86164 -2.55748,1.0055c-1.53782,0.2323 -3.17681,0.02592 -4.69748,0.34186c-1.78958,0.29826 -3.81436,0.24075 -5.64312,-0.01618c-0.03823,0.7508 -0.0673,1.51872 0.04925,2.20958c0.48678,2.8855 3.97515,5.00454 6.58008,5.29537c3.13809,0.39227 5.47686,-0.53747 8.36567,-1.50041c0.83984,-0.27995 1.89083,-0.33083 2.67625,-0.66875c0.81869,-0.35224 1.45416,-0.86421 2.48741,-1.03642l1.01898,0.671c0,0 1.17765,0.39995 0.77769,1.5776z" data-paper-data="{&quot;index&quot;:null}" fill="#ffdebd" stroke="none" stroke-width="0.5" stroke-linecap="butt"/><path d="M265.20388,145.41639c0,0 -0.00893,1.51036 -0.55391,2.21562c-0.54497,0.70526 -2.58489,1.84634 -2.58489,1.84634l-6.27758,2.95415" data-paper-data="{&quot;index&quot;:null}" fill="none" stroke="#a5b5ff" stroke-width="4.5" stroke-linecap="round"/><path d="M237.55207,149.7122c-0.14923,0.71414 -0.43783,1.36481 -0.56075,2.11003c-0.16517,1.00134 0.03191,2.26579 0.03191,3.29673c0,0.63322 2.46065,0.95396 3.62748,0.95396c0.31297,0 2.18374,0.02241 2.14248,-0.10518c0.47362,-0.32293 1.29544,-0.35226 1.70292,-0.71016c1.26585,-1.1118 2.40362,-2.66728 3.0269,-4.57954c0.07795,-0.2392 0.31392,-0.79998 0.07173,-0.75284c-0.12885,0.02507 -0.05681,0.33425 -0.18648,0.35429c-0.35598,0.05501 -1.12836,-0.51487 -1.49547,-0.61178c-0.48099,-0.12699 -1.29798,-0.10713 -1.83125,-0.19914c-1.18149,-0.20384 -2.63821,0.03263 -3.8454,0.03263c-0.9321,0 -1.78019,0.19523 -2.68407,0.21098zM237.02324,148.22924c0.24041,0 0.38788,0.09504 0.47833,0.21166c0.90194,-0.00931 1.79524,-0.21166 2.73458,-0.21166c2.00731,0 4.7062,-0.32847 6.5976,0.44526c1.18809,0.48602 2.3517,0.92521 1.86915,2.40573c-0.74664,2.29073 -0.43742,3.23186 -2.24982,4.68904c-0.36928,0.2969 -2.37663,1.22941 -2.97002,1.25675c-0.59338,0.02735 -4.67644,0.55511 -6.18292,-0.21199c-0.62931,-0.32046 -1.5206,-0.94062 -1.5206,-1.69511c0,-1.19259 -0.15877,-2.52148 0.0319,-3.69896c0.14512,-0.89616 0.58994,-1.61884 0.58994,-2.55477c0,0 0,-0.63597 0.62185,-0.63597z" data-paper-data="{&quot;index&quot;:null}" fill="#18c6ff" stroke="none" stroke-width="0.5" stroke-linecap="butt"/><path d="M243.96607,148.11452c1.42011,0.35619 1.1757,0.38876 1.97042,0.88146c0.79472,0.49271 1.69342,1.43141 1.61545,1.67061c-0.62326,1.91227 -0.37973,2.98145 -1.64558,4.09326c-0.40748,0.35789 -2.40204,1.02416 -3.10861,1.17344c-0.70658,0.14927 -1.84792,0.16742 -2.16087,0.16742c-1.16683,0 -3.64197,-0.33577 -3.64197,-0.96901c0,-1.03092 -0.19941,-2.31341 -0.03423,-3.31475c0.12292,-0.74521 0.41588,-2.11804 0.56512,-2.83218c0.90387,-0.21119 1.5175,-0.65732 2.69351,-0.8364c1.17601,-0.17908 2.32663,-0.39004 3.74673,-0.03384z" data-paper-data="{&quot;noHover&quot;:false,&quot;origItem&quot;:[&quot;Path&quot;,{&quot;applyMatrix&quot;:true,&quot;segments&quot;:[[[469.86056,340.47788],[2.90705,-0.05065],[-0.47996,2.2968]],[[468.0571,347.26415],[0.39535,-2.39679],[-0.53123,3.22051]],[[468.15973,357.86707],[0,-3.31566],[0,2.03658]],[[479.8264,360.93518],[-3.75277,0],[1.00657,0]],[[486.717,360.5969],[0.13271,0.41035],[1.52326,-1.03856]],[[492.19394,358.31293],[-1.31054,1.15106],[4.07119,-3.57579]],[[501.92903,343.58421],[-2.00456,6.15021],[0.25074,-0.76931]],[[502.15973,341.16292],[0.77893,-0.15165],[-0.41434,0.08067]],[[501.56,342.30239],[0.41704,-0.06448],[-1.14489,0.17701]],[[496.75028,340.33482],[1.18068,0.3117],[-1.54698,-0.4084]],[[490.86061,339.69435],[1.71512,0.2959],[-3.79987,-0.65558]],[[478.49306,339.79931],[3.88259,0],[-2.99782,0]]],&quot;closed&quot;:true}],&quot;index&quot;:null}" fill="#ffffff" stroke="none" stroke-width="0.5" stroke-linecap="butt"/><path d="M251.74042,150.04003c0,0.81233 0,1.62468 0,2.43702c0,0.06223 -0.00263,0.9327 0,0.93277c0.10396,0.00244 -0.06565,-0.28041 0.03401,-0.31013c0.28812,-0.0859 1.49418,0.31013 2.14248,0.31013c0.12614,0 1.55451,0.00519 1.55463,0c0.00244,-0.10397 -0.28041,0.06565 -0.31013,-0.03402c-0.23492,-0.78794 0.05085,-2.98283 0.09679,-4.31281c-0.35973,0.25197 -1.13041,-0.21343 -1.65223,-0.21343c-0.49207,0 -1.11661,0.51243 -1.5295,0.95793l-0.31093,0.31093c0,0 -0.00987,-0.02958 -0.02515,-0.0784zM251.1971,148.92803c1.13926,-1.09131 2.80063,-2.03384 4.34265,-1.97373c0.69848,0.02725 0.96826,0.92289 0.96826,1.7916c0,1.69426 0.64052,4.95574 -1.03642,5.90761c-0.29544,0.1677 -1.20499,0 -1.55463,0c-1.21961,0 -2.75362,-0.06936 -3.4202,-1.2437c-0.39529,-0.69641 0,-2.71501 0,-3.52383c0,0 0,-0.53575 0.49728,-0.6127z" data-paper-data="{&quot;index&quot;:null}" fill="#18c6ff" stroke="none" stroke-width="0.5" stroke-linecap="butt"/><path d="M253.60598,147.51541c0.52182,0 1.80194,0.22618 1.80194,0.22618c0,0 0.08577,5.58833 0.08333,5.69229c-0.00012,0.00519 -1.44397,0.00674 -1.57011,0.00674c-0.64831,0 -2.09644,-0.0043 -2.2004,-0.00674c-0.00263,-0.00007 -0.00552,-0.87641 -0.00552,-0.93864c0,-0.81234 0.02312,-2.39181 0.02312,-2.39181c0,0 1.37559,-2.58803 1.86766,-2.58803z" data-paper-data="{&quot;noHover&quot;:false,&quot;origItem&quot;:[&quot;Path&quot;,{&quot;applyMatrix&quot;:true,&quot;segments&quot;:[[[515.49306,341.5323],[0.04917,0.15701],[0,2.61264]],[[515.49306,349.37022],[0,-2.61264],[0,0.20016]],[[515.49306,352.37022],[-0.00844,-0.0002],[0.33438,0.00784]],[[515.60246,351.37279],[-0.32053,0.09557],[0.92664,-0.27628]],[[522.49306,352.37022],[-2.08504,0],[0.4057,0]],[[527.49306,352.37022],[-0.00039,0.0167],[0.00784,-0.33438]],[[526.49563,352.26082],[0.09557,0.32053],[-0.75555,-2.53413]],[[526.80695,338.39],[-0.14773,4.27747],[-1.15693,0.81042]],[[521.49306,337.70356],[1.67827,0],[-1.5826,0]],[[516.57394,340.78444],[1.32792,-1.43284],[0,0]],[515.57394,341.78444]],&quot;closed&quot;:true}],&quot;index&quot;:null}" fill="#ffffff" stroke="none" stroke-width="0.5" stroke-linecap="butt"/><path d="M216.86756,150.28263l3.24129,1.84634c0,0 2.28352,0.49586 3.56542,1.29244c1.28189,0.79659 1.26965,1.07451 1.7827,2.03098c0.51305,0.95647 0.39179,1.05752 0,1.29244c-0.39178,0.23493 -1.88624,0.82573 -3.07922,0.55391c-1.19298,-0.27183 -1.78271,-1.66172 -1.78271,-1.66172l-0.50239,-3.47113" data-paper-data="{&quot;index&quot;:null}" fill="none" stroke="#f6b09a" stroke-width="3" stroke-linecap="round"/><path d="M239.18554,151.7945c0.35651,0 0.67917,0.14443 0.91305,0.3781c0.23392,0.23315 0.37857,0.55554 0.37857,0.91144c0,0.3559 -0.14465,0.67829 -0.37857,0.91144c-0.23388,0.23366 -0.55654,0.3781 -0.91305,0.3781c-0.35647,0 -0.67913,-0.14443 -0.91305,-0.3781c-0.23387,-0.23314 -0.37853,-0.55554 -0.37853,-0.91144c0,-0.35591 0.14465,-0.67829 0.37853,-0.91144c0.23393,-0.23366 0.55659,-0.3781 0.91305,-0.3781z" data-paper-data="{&quot;index&quot;:null}" fill="#000000" stroke="none" stroke-width="1.05702" stroke-linecap="butt"/><path d="M258.88495,131.80458c1.37622,8.58218 -0.28262,9.07024 -4.89371,11.81773c-6.71873,4.00333 -15.50728,3.19288 -22.68387,6.30166c-1.88438,0.81627 -6.68724,-1.16701 -8.74082,-1.16701c-4.20018,0 -6.57013,-3.00182 -6.74369,-6.57731c-0.38283,-7.88669 3.50064,-7.91727 7.70081,-7.91727c0,0 4.62241,0.76615 6.21908,3.21851c0,0 6.43042,-10.46255 13.20899,-11.75512c8.72592,-1.66388 14.94491,-0.08435 15.93322,6.0788z" data-paper-data="{&quot;index&quot;:null}" fill="#7100f3" stroke="none" stroke-width="0" stroke-linecap="butt"/><path d="M257.22304,136.70041c0,3.13988 -0.84025,5.50214 -7.00605,5.68524c-6.50911,0.19329 -7.00606,-2.54536 -7.00606,-5.68524c0,-3.13988 3.13673,-5.68524 7.00606,-5.68524c3.86933,0 7.00605,2.54536 7.00605,5.68524z" data-paper-data="{&quot;index&quot;:null}" fill="#ffffff" stroke="none" stroke-width="0" stroke-linecap="butt"/><path d="M252.87335,132.39035l0.23063,2.03177l-3.09479,0.25813l0.42939,5.03681l-2.60427,0.30768l-0.48229,-7.16913z" data-paper-data="{&quot;index&quot;:null,&quot;origRot&quot;:0}" fill="#ffea12" stroke="#7100f3" stroke-width="1" stroke-linecap="butt"/><path d="M266.43869,162.94984l-3.31655,7.04767l-1.65828,-0.20727l-5.80396,-2.48741l-16.79003,3.9384h-2.48741l-1.86556,-2.07284l-3.31655,-7.66954l0.82915,-1.03642l6.01125,5.80396l9.12051,-1.03642l7.25495,-2.07284l6.4258,2.48741l3.9384,-3.31655z" data-paper-data="{&quot;index&quot;:null}" fill="#000000" stroke="#ff0000" stroke-width="0" stroke-linecap="round"/><path d="M229.96128,148.67471c0.57728,0 1.50739,1.0366 1.54561,1.25726c0.96544,0.96655 1.8195,2.45309 2.02733,3.8061c0.06659,0.43363 -0.955,2.70852 -1.18918,3.02075c-1.23849,0.96329 -2.92381,1.79506 -3.62423,0.13683c-0.16303,-0.38598 0.46314,-2.04379 0.46314,-2.46877c0,-1.45099 0,-2.90197 0,-4.35297c0,0 0,-0.19995 0.1014,-0.39704l-0.1014,-0.22482c0,0 0,-0.77732 0.77732,-0.77732z" data-paper-data="{&quot;index&quot;:null}" fill="#8e4108" stroke="none" stroke-width="0.5" stroke-linecap="butt"/><path d="M257.08155,140.1933c3.95863,0.05472 9.76339,3.80251 9.31047,5.56032c-0.12252,0.47551 -23.16383,1.51548 -29.87637,2.18016c-3.26237,0.32305 -9.75888,2.38115 -9.63635,1.90565c0.45294,-1.75781 3.17775,-5.29665 6.29909,-6.21336c3.77198,-1.1078 14.21956,-3.56661 23.90318,-3.43277z" data-paper-data="{&quot;index&quot;:null}" fill="#4f05a3" stroke="none" stroke-width="0" stroke-linecap="butt"/><path d="M228.04613,150.12457l17.40184,-3.41575l19.94057,-1.29244" data-paper-data="{&quot;index&quot;:null}" fill="none" stroke="#ffffff" stroke-width="4.5" stroke-linecap="round"/><path d="M249.81113,150.56187c-0.05402,1.24253 -1.29655,1.18852 -1.29655,1.18852l-1.13748,-0.68593c-0.51821,-0.41456 -1.03641,-0.82915 -1.55463,-1.2437c-2.95725,-2.52459 -7.65288,-0.857 -10.64997,0.85563c0,0 -1.07985,0.61705 -1.69689,-0.46279c-0.61705,-1.07985 0.46279,-1.69689 0.46279,-1.69689c4.00313,-2.28751 9.389,-3.76257 13.43795,-0.63829c0.51821,0.41456 1.45478,1.07418 1.45478,1.07418c0,0 1.03404,0.36676 0.98002,1.60929z" data-paper-data="{&quot;index&quot;:null}" fill="#000000" stroke="none" stroke-width="0.5" stroke-linecap="butt"/><path d="M257.38218,146.16418c0.60769,1.08515 -0.47746,1.69283 -0.47746,1.69283l-1.43682,0.15857c-1.75216,0 -2.60619,0.35089 -3.17308,2.05157c0,0 -0.3933,1.17988 -1.57317,0.78659c-1.17989,-0.39329 -0.78659,-1.57317 -0.78659,-1.57317c0.88347,-2.65041 3.84317,-3.42007 3.84317,-3.42007c0,0 2.99629,-0.78142 3.60398,0.30372z" data-paper-data="{&quot;index&quot;:null}" fill="#000000" stroke="none" stroke-width="0.5" stroke-linecap="butt"/><path d="M253.39384,150.27973c0.30855,0 0.5878,0.12499 0.79023,0.32724c0.20247,0.20178 0.32766,0.48081 0.32766,0.78884c0,0.30803 -0.1252,0.58705 -0.32766,0.78883c-0.20242,0.20224 -0.48167,0.32725 -0.79023,0.32725c-0.30852,0 -0.58777,-0.125 -0.79023,-0.32725c-0.20241,-0.20178 -0.32762,-0.4808 -0.32762,-0.78883c0,-0.30804 0.12519,-0.58706 0.32762,-0.78884c0.20246,-0.20224 0.4817,-0.32724 0.79023,-0.32724z" data-paper-data="{&quot;index&quot;:null}" fill="#000000" stroke="none" stroke-width="1.05702" stroke-linecap="butt"/><path d="M247.75631,157.26829c0.13505,-0.89145 0.08256,-2.00715 0.34262,-2.70958c0.57448,-1.55172 2.30159,-2.27423 3.82064,-2.27423c5.09711,0 13.0306,1.9482 13.0306,8.20928c-0.03822,1.84538 -0.38988,3.45339 -1.86156,4.72812c-0.72111,0.62461 -2.05604,0.64784 -2.9604,0.73827c-2.81512,0.28152 -6.06014,0.67045 -8.8551,0.11146c-2.44466,-0.64825 -4.80986,-0.38553 -6.7473,-2.46922c-1.36188,-1.46468 -1.1744,-4.24013 -0.1267,-5.75186c0.50636,-0.73062 2.2928,-0.61443 3.09007,-0.61443c0,0 0.1105,0 0.26714,0.03218z" fill="url(#color-5)" stroke="none" stroke-width="0.5" stroke-linecap="butt"/></g></g><path d="M187.83333,232.39545c0,-0.16098 0,-12.56818 0,-12.56818l104.33333,0.33334c0,0 0,9.46311 0,11.73484c0,7.61017 -6.49271,15.53788 -16.03243,15.53788c-21.93761,0 -59.9884,0 -72.25,0c-7.50185,0 -16.0509,-7.6367 -16.0509,-15.03788z" fill="url(#color-6)" stroke="none" stroke-width="0" stroke-linecap="butt"/><text transform="translate(207.79061,240.59668) scale(0.52889,0.52889)" font-size="40" xml:space="preserve" fill="#000000" fill-rule="nonzero" stroke="#000000" stroke-width="1" stroke-linecap="butt" stroke-linejoin="miter" stroke-miterlimit="10" stroke-dasharray="" stroke-dashoffset="0" font-family="Handwriting" font-weight="normal" text-anchor="start" style="mix-blend-mode: normal"><tspan x="0" dy="0">Waluigi</tspan></text></g></g></svg>