<svg version="1.1" xmlns="http://www.w3.org/2000/svg" xmlns:xlink="http://www.w3.org/1999/xlink" width="59.82575" height="79.66463" viewBox="0,0,59.82575,79.66463"><defs><linearGradient x1="220.59223" y1="155.51788" x2="220.59223" y2="176.13187" gradientUnits="userSpaceOnUse" id="color-1"><stop offset="0" stop-color="#f2b56b"/><stop offset="1" stop-color="#e3aa64"/></linearGradient></defs><g transform="translate(-209.99408,-149.02667)"><g data-paper-data="{&quot;isPaintingLayer&quot;:true}" fill-rule="nonzero" stroke-linejoin="miter" stroke-miterlimit="10" stroke-dasharray="" stroke-dashoffset="0" style="mix-blend-mode: normal"><path d="M236.89375,209.48125c-6.90325,0 -12.49944,-5.48959 -12.49944,-12.26135c0,-6.77176 5.59618,-12.26135 12.49944,-12.26135c6.90325,0 12.49944,5.48959 12.49944,12.26135c0,6.77176 -5.59618,12.26135 -12.49944,12.26135z" fill="#915000" stroke="#915000" stroke-width="2.5" stroke-linecap="butt"/><path d="M248.15085,217.47398l0.01223,-0.07641c1.80073,0 3.85843,-0.24508 5.5871,0.36895c0.60985,0.21663 2.16239,1.21768 2.29045,1.90291c0.02509,0.13423 -0.50481,0.05277 -0.38972,0.12628c1.04395,0.66684 3.02071,0.18297 4.20261,0.60508c1.23972,0.6381 3.84705,2.34317 2.37639,4.19732c-0.50011,0.6305 -1.0227,1.27255 -1.68645,1.72763c-0.56132,0.38486 -1.33841,0.11652 -2.03504,-0.08745c-0.19945,0.42313 -0.42702,0.83146 -0.70855,1.20151c-0.98804,1.29867 -3.89239,0.09058 -4.7891,-0.56466c-0.14539,-0.10624 -0.25874,-0.20467 -0.34365,-0.29564c-0.26144,0.13323 -0.52924,0.25152 -0.80883,0.33707c-0.95339,0.29176 -2.23575,-0.33894 -2.9582,-0.9169c-0.10042,-0.08197 -1.22276,-1.29942 -1.23751,-1.30816c-0.25288,-0.14981 -0.77415,-0.00892 -0.8327,-0.2946c-0.19711,0.17825 -0.39178,0.3593 -0.59426,0.53139c-0.85681,0.72823 -3.23813,1.8021 -3.70787,0.30688c-0.27335,-0.87013 -0.51175,-1.78247 -0.47893,-2.69393c0.00023,-0.00644 1.09471,-0.98064 1.13366,-1.01753c1.09907,-1.04114 1.84059,-1.82798 2.4166,-3.21042c0,0 0.57231,-1.37357 1.94589,-0.80125c0.06161,0.02567 0.11931,0.05296 0.17332,0.08165l-0.03137,-0.19612c0,0 0.20559,0 0.46393,0.07641z" fill="#ffbf71" stroke="none" stroke-width="0.5" stroke-linecap="butt"/><path d="M232.50354,218.07213l-0.03137,0.19612c0.054,-0.02869 0.1117,-0.05598 0.17332,-0.08165c1.37356,-0.57231 1.94589,0.80125 1.94589,0.80125c0.57603,1.38244 1.31753,2.16929 2.4166,3.21042c0.03895,0.03689 1.13343,1.01108 1.13367,1.01753c0.03282,0.91146 -0.20557,1.8238 -0.47893,2.69393c-0.46974,1.49522 -2.85106,0.42134 -3.70787,-0.30688c-0.20247,-0.17209 -0.39717,-0.35314 -0.59426,-0.53139c-0.05855,0.2857 -0.57981,0.1448 -0.8327,0.2946c-0.01476,0.00873 -1.13709,1.22621 -1.23751,1.30816c-0.72243,0.57795 -2.0048,1.20866 -2.9582,0.9169c-0.27959,-0.08555 -0.5474,-0.20385 -0.80883,-0.33707c-0.08491,0.09097 -0.19826,0.1894 -0.34365,0.29564c-0.89671,0.65524 -3.80105,1.86334 -4.7891,0.56467c-0.28154,-0.37005 -0.50911,-0.77837 -0.70855,-1.20152c-0.69662,0.20397 -1.47371,0.47231 -2.03504,0.08745c-0.66374,-0.45508 -1.18634,-1.09712 -1.68645,-1.72763c-1.47066,-1.85415 1.13667,-3.55921 2.37639,-4.19732c1.18189,-0.42211 3.15866,0.06176 4.20261,-0.60508c0.11508,-0.07351 -0.4148,0.00794 -0.38972,-0.12628c0.12807,-0.68524 1.6806,-1.68628 2.29045,-1.90291c1.72867,-0.61405 3.78636,-0.36896 5.5871,-0.36896l0.01223,0.07642c0.25834,-0.07642 0.46393,-0.07642 0.46393,-0.07642z" data-paper-data="{&quot;index&quot;:null}" fill="#ffbf71" stroke="none" stroke-width="0.5" stroke-linecap="butt"/><path d="M256.42241,194.75221c0.36946,-0.13265 0.78874,-0.22401 1.26233,-0.26716c0.47814,-0.04355 2.87164,1.43522 3.13146,1.62036c0.96158,0.68517 1.43669,1.85663 1.5096,2.97968c0.02146,0.33056 0.05103,0.66075 0.06281,0.99179c0.00337,0.09505 0.03927,0.22316 0.07034,0.34778c0.43809,0.13507 0.87159,0.28656 1.27018,0.50828c1.07296,0.59687 1.30134,2.2692 0.97451,3.33136c-0.28713,0.53051 -0.49794,1.11012 -0.86142,1.59156c-1.75525,2.32489 -6.87067,0.94093 -8.58432,-0.54902c-2.31381,-2.01177 -2.22258,-5.57941 -1.29837,-8.34337l-0.10392,-0.05196l0.15484,-0.30968l-0.28708,-0.25837l1.06693,-1.18546c0.03143,-0.03522 0.06451,-0.06893 0.09912,-0.10102c0.2999,-0.29984 0.8109,-0.5996 1.53298,-0.30482z" fill="#ffbf71" stroke="none" stroke-width="0.5" stroke-linecap="butt"/><path d="M252.00219,177.36218c1.97837,-1.11285 4.57622,-0.89295 6.63414,-0.37968c3.9043,0.97378 7.80969,1.74996 10.57489,4.79168c0.56305,0.61936 0.46212,1.96417 0.55802,2.82725c0.44748,4.02722 -2.131,8.04814 -5.45165,10.26191c-1.14866,0.76577 -1.54838,2.15711 -2.83356,2.9282c-3.3239,1.99434 -5.68677,-1.70987 -6.50009,-4.3334c-0.48613,-1.56809 2.74453,-4.64682 3.71243,-5.46598c0.24674,-0.20882 1.4197,-1.30336 1.3292,-1.48934c-0.36785,-0.75597 -3.12489,-0.69648 -5.32188,-0.79488c-0.15427,0.01612 -0.31088,0.02439 -0.46943,0.02439c-0.43332,0 -2.19145,0.97987 -2.58761,0.86472c-1.85787,-0.54007 -1.87647,-3.29668 -1.87647,-5.3288c0,-1.45274 -2.13332,-1.25537 -1.05884,-2.07057c0.13743,-0.13304 3.11792,-1.73822 3.29087,-1.83551z" fill="#915000" stroke="none" stroke-width="0.5" stroke-linecap="butt"/><path d="M230.27699,189.45984c-1.13379,0.63777 -3.0315,1.14757 -4.29578,1.78907c-1.9457,0.98725 -4.4759,1.82124 -6.58636,2.22951c-1.32523,0.25637 -3.22349,0.54717 -4.39694,0.25381c-6.68495,-1.67124 -5.46957,-7.03841 -3.2195,-11.86338c1.44789,-3.10479 0.89479,-5.66235 3.67538,-7.92659c2.24695,-1.82969 4.69518,0.43927 6.22728,1.87735c1.28078,1.2022 -1.35534,7.20202 -1.1516,7.9466c0.11425,0.41751 2.49616,-1.1188 2.6584,-1.21254c1.261,-0.72862 6.00929,-2.79568 7.12274,-0.84712c1.31575,0.77653 2.19841,2.20879 2.19841,3.84721c0,1.45274 -0.69394,2.7434 -1.76843,3.5586c-0.13743,0.13304 -0.29068,0.25019 -0.46363,0.34748z" fill="#915000" stroke="none" stroke-width="0.5" stroke-linecap="butt"/><path d="M236.07555,201.04015c-0.07124,0.27101 -0.17752,0.53502 -0.31227,0.79228c-0.34471,0.76708 -0.87642,1.4204 -1.53219,1.8928c-1.15538,1.08134 -2.57212,2.02044 -3.50575,2.84608c-0.6515,0.57614 -1.90549,1.11723 -2.02568,2.07564c-0.14961,1.19303 4.28078,4.30773 4.28078,5.99014c0,4.48802 -1.31524,5.89053 -5.52402,5.89053c-1.50426,0 -3.57653,-2.90448 -4.3936,-4.06276c-3.23195,-4.58162 -4.70564,-8.84969 -1.3457,-14.1854c0.89927,-1.42808 2.26236,-1.99662 3.39335,-3.14083c0.69255,-0.70065 4.67992,-4.21034 5.50572,-3.97018c0.35761,-0.09843 0.7326,-0.15081 1.11906,-0.15081c2.46544,0 4.46408,2.13124 4.46408,4.76027c0,0.00477 -0.00001,0.00954 -0.00002,0.0143c0.03643,0.36589 0.0003,0.77601 -0.12377,1.24796z" fill="#915000" stroke="none" stroke-width="0.5" stroke-linecap="butt"/><path d="M244.16892,195.22789c0.32172,-0.01405 0.60866,0.01117 0.872,0.0631c0.94833,0.11154 1.81023,0.48203 2.50174,1.03316c4.44652,1.4568 8.92439,4.21859 10.988,8.28307c1.89154,3.72557 -0.74705,8.77766 -2.47627,12.04199c-0.43792,0.82669 -0.62135,2.0322 -1.17905,2.68278c-2.01937,2.35564 -6.36809,2.62491 -8.37348,0c-2.16956,-2.83981 1.32307,-6.48381 2.20377,-8.99013c0.21342,-0.60734 1.00797,-1.94561 0.6539,-2.69187c-1.17811,-2.48299 -5.35836,-2.40682 -7.22272,-4.01452c-0.26966,-0.13814 -0.52352,-0.29983 -0.75838,-0.48209c-0.47535,-0.26702 -0.93071,-0.5431 -0.95828,-1.00615c-0.48618,-0.69874 -0.76857,-1.53233 -0.76857,-2.42745c0,-2.19233 1.69391,-4.01553 3.92726,-4.39258c0.18545,-0.05591 0.38156,-0.0902 0.5901,-0.09931z" fill="#915000" stroke="none" stroke-width="0.5" stroke-linecap="butt"/><path d="M236.19933,208.29083c-6.08143,0 -11.0114,-5.48959 -11.0114,-12.26135c0,-6.77176 4.92997,-12.26135 11.0114,-12.26135c6.08143,0 11.0114,5.48959 11.0114,12.26135c0,6.77176 -4.92997,12.26135 -11.0114,12.26135z" fill="#ffbf71" stroke="#ffbf71" stroke-width="2.5" stroke-linecap="butt"/><path d="M252.86863,186.4598c0,0 1.56985,8.77471 1.48167,9.159l0.48385,1.21799c0.07372,0.17332 0.11434,0.36295 0.11434,0.56167c0,0.82181 -0.69472,1.48803 -1.55168,1.48803c-0.20896,0 -0.40827,-0.03961 -0.59021,-0.11143l-1.57702,-0.5918c-3.3072,-1.27453 -6.3219,-2.56143 -9.98436,-2.8123c-3.52619,-0.24161 -6.88242,-0.53191 -10.44086,-0.53191c-0.86337,0 -3.27168,0.42962 -4.01551,0.65543c-0.44125,0.13395 -2.50753,1.48733 -2.936,1.48733c-0.85696,0 -0.9439,-1.70631 -0.92005,-1.80998l0.39924,-3.35622c0.0199,-0.06992 1.65513,-5.08838 2.25301,-5.98935c1.82544,-2.41087 2.31713,-5.74869 4.97618,-7.64873c0.08517,-0.06086 1.18953,-0.05662 1.38384,-0.08532c0.89863,-0.1327 1.73641,-0.38433 2.65052,-0.45038c2.88975,-0.20878 5.82898,-0.62426 8.69054,-1.05755c1.3832,-0.20574 2.80129,-0.63551 4.21271,-0.57376c1.02286,0.04475 2.37942,1.74959 2.60446,2.09007c0.52604,0.79588 -0.41319,3.60972 -0.22362,4.53815c0.30241,2.20152 2.98895,3.82104 2.98895,3.82104z" fill="#ff0000" stroke="none" stroke-width="0.5" stroke-linecap="butt"/><path d="M239.47299,188.52983l2.38085,-2.14276l-0.11905,-2.73797l2.85701,1.54755l2.38085,-1.42851l-0.11905,2.49989l1.54755,1.90467l-2.73797,0.59521l-1.19042,2.61893l-1.78564,-2.73797z" data-paper-data="{&quot;index&quot;:null}" fill="#fadd37" stroke="#000000" stroke-width="0" stroke-linecap="round"/><path d="M226.1499,186.42495l2.0196,-1.32176l1.29522,-2.41288l0.40226,2.00268l1.66909,-0.69942l-1.27519,2.15091l-0.30545,2.01396l-1.40538,-0.10842l-1.76924,2.00927l0.61757,-2.79454z" data-paper-data="{&quot;index&quot;:null,&quot;origRot&quot;:0}" fill="#fadd37" stroke="#000000" stroke-width="0" stroke-linecap="round"/><path d="M236.75848,153.58843c0,0 2.44001,-0.53529 3.59626,-0.54314c2.40629,-0.01634 4.36932,0.86303 6.19022,2.15848c2.76578,1.96769 3.52276,5.41185 4.4194,8.26191c0.21982,0.69872 0.43964,1.39745 0.65946,2.09618c0.04628,0.14709 0.25881,0.33084 0.13883,0.4413c-0.6489,0.59741 -1.49723,0.99904 -2.24584,1.49855c-1.98139,-0.05055 -3.84069,-1.35934 -5.49233,-2.29725c-1.19237,-0.67711 -2.57016,-1.10446 -3.69352,-1.88465c-1.54664,-1.07416 -2.94955,-2.39245 -4.39392,-3.57282c-0.7028,-0.57436 -1.29232,-1.2329 -1.98342,-1.81172c-0.19705,-0.16504 -0.48319,0.04416 -0.59979,-0.32645c-0.19244,-0.61167 -0.17103,-1.26022 -0.25653,-1.89033c0.3925,-0.76066 1.20902,-1.0979 2.09825,-1.31345z" data-paper-data="{&quot;index&quot;:null,&quot;origRot&quot;:0}" fill="#ff0000" stroke="none" stroke-width="0.5" stroke-linecap="butt"/><path d="M231.98459,158.51769c0.01481,-0.00539 0.0296,-0.01078 0.04441,-0.01615l0.06018,-0.07359c0,0 0.35422,-0.20872 0.79993,-0.21957c3.54545,-1.13034 7.23245,-1.32484 10.70287,0.34465c4.15382,2.06813 8.42483,5.65578 8.32942,10.12131c-0.09226,1.54676 -0.37033,2.95934 -0.66558,4.48211c-0.44722,2.3066 -0.52478,4.30211 -1.86323,6.41413c-1.37925,2.13448 -4.80722,2.40121 -7.23159,2.24818c-1.24198,-0.0784 -2.36866,-0.09082 -3.5401,-0.57275c-0.98393,-0.40478 -1.85561,-0.9653 -2.75228,-1.49516c-2.4034,-1.42089 -2.97228,-3.75605 -3.8506,-5.99299c-0.60825,-1.54911 -1.54693,-3.0095 -2.28874,-4.51505c-0.34697,-0.73301 -0.54655,-1.70227 -0.59575,-2.50374c-0.14941,-2.43354 0.66282,-4.95594 1.98925,-7.06882c-0.08116,-0.80864 0.86181,-1.15256 0.86181,-1.15256z" data-paper-data="{&quot;index&quot;:null,&quot;origRot&quot;:0}" fill="#915000" stroke="none" stroke-width="0.5" stroke-linecap="butt"/><path d="M252.07144,169.80446l0.44645,1.41909l-0.19656,0.67653l-2.02332,0.40062c0,0 -1.48926,-0.49087 -2.34842,-0.95805c-0.85914,-0.46718 -0.46988,-1.41846 -0.56145,-2.10994c-0.09156,-0.69149 0.11599,-0.93917 0.02904,-1.53435c-0.08694,-0.59518 -0.55951,-0.89798 -0.47272,-1.50257c0.0868,-0.60459 0.37368,-1.23686 0.95376,-1.84835c0.58008,-0.61149 1.81323,-1.06843 1.81323,-1.06843l0.82962,-0.29095l1.60035,-0.11842l0.75443,0.44602c0,0 0.70805,1.59598 0.84038,2.67122c0.13232,1.07525 -0.31433,1.60351 -0.31433,1.60351l-0.73094,1.25529l-1.27527,1.47708" data-paper-data="{&quot;index&quot;:null,&quot;origRot&quot;:0}" fill="#ffbf71" stroke="#ffbf71" stroke-width="2" stroke-linecap="round"/><path d="M251.07586,168.00942c-0.14022,0.31356 -0.49744,0.19047 -0.49744,0.19047l-0.22959,-0.0791c-0.07654,-0.02637 -0.15306,-0.05274 -0.22959,-0.07911c0,0 -0.00103,-0.00036 -0.00297,-0.00108c-0.03816,0.27033 -0.05758,0.52973 -0.06684,0.74737c-0.01224,0.20539 -0.01166,0.39981 -0.00595,0.60459l-0.00781,0.2307c0,0 -0.15834,0.30685 -0.50791,0.16786c-0.34956,-0.13899 -0.19123,-0.44583 -0.19123,-0.44583l-0.06033,0.06375c-0.00615,-0.22085 -0.0064,-0.4353 0.00677,-0.65629c0.09318,-1.29997 0.48822,-3.48253 2.35318,-3.29996c0,0 0.38139,0.03734 0.33887,0.37211c-0.04253,0.33478 -0.42392,0.29745 -0.42392,0.29745c-0.72779,-0.07124 -1.10759,0.54968 -1.30407,1.26844c0.08654,0.00098 0.15268,0.02378 0.15268,0.02378c0.07654,0.02636 0.38265,0.13185 0.45918,0.15821c0,0 0.35722,0.12308 0.21699,0.43665z" data-paper-data="{&quot;index&quot;:null,&quot;origRot&quot;:0}" fill="#b87624" stroke="none" stroke-width="0.5" stroke-linecap="butt"/><path d="M235.7082,157.02139c0,0 -0.84567,-0.1137 -1.09763,-0.74814c-0.31308,-0.20407 -0.60272,-0.56215 -0.46156,-1.17036c0.22717,-0.9789 1.19256,-0.97829 1.51184,-0.95022l-0.24256,-0.0295c3.01003,-0.38606 6.8819,0.05489 9.32514,1.75188c0.36446,0.16595 0.9412,0.56668 0.68333,1.38147c-0.36647,1.15791 -1.6856,0.83623 -1.6856,0.83623c-2.49437,-0.60828 -5.12829,-0.60238 -7.68977,-0.9088l-0.34319,-0.16257z" data-paper-data="{&quot;index&quot;:null,&quot;origRot&quot;:0}" fill="#ffffff" stroke="none" stroke-width="0.5" stroke-linecap="butt"/><path d="M234.23887,154.62704c0.22168,-0.83606 1.17415,-0.64147 1.17415,-0.64147l0.54687,0.13879c1.36193,0.67809 3.12297,0.70453 4.69194,0.97518c1.1058,0.19075 1.66662,0.57078 2.7556,0.5474c0,0 0.97763,-0.02099 1.00155,0.83716c0.02392,0.85815 -0.95371,0.87915 -0.95371,0.87915c-1.21641,0.02613 -2.12503,-0.39935 -3.28676,-0.60013c-1.76251,-0.30463 -3.59324,-0.35859 -5.17357,-1.14542l-0.02529,0.04001c0,0 -0.95246,-0.19459 -0.73078,-1.03066z" data-paper-data="{&quot;index&quot;:null,&quot;origRot&quot;:0}" fill="#ff0000" stroke="none" stroke-width="0.5" stroke-linecap="butt"/><text transform="translate(234.71705,155.61192) rotate(9.89573) scale(0.04934,0.04401) skewX(3.37439)" font-size="40" xml:space="preserve" data-paper-data="{&quot;origRot&quot;:-2.58915,&quot;index&quot;:null}" fill="#ffffff" fill-rule="nonzero" stroke="none" stroke-width="1" stroke-linecap="butt" stroke-linejoin="miter" stroke-miterlimit="10" stroke-dasharray="" stroke-dashoffset="0" font-family="Sans Serif" font-weight="normal" text-anchor="start" style="mix-blend-mode: normal"><tspan x="0" dy="0">Nintendo</tspan></text><path d="M241.74436,159.08207l-3.15533,-0.74947l-2.75962,0.08651l-1.54773,0.14221l-2.34276,0.5679l-1.64524,1.09774l-4.56326,-2.27199l-2.1137,-1.23495c0,0 -1.20056,-1.01646 -1.26349,-1.907c-0.06293,-0.89054 0.38217,-1.59622 0.95597,-2.44501c0.5738,-0.84878 0.82845,-0.66795 1.39863,-1.03797c0.57018,-0.37002 0.8403,-0.62652 1.46674,-0.82151c0.62644,-0.19498 1.16427,-0.28839 1.91765,-0.23187c0.75339,0.05652 1.75205,0.5072 1.75205,0.5072l4.72061,2.35033l4.79336,3.84704l3.61913,1.80192z" data-paper-data="{&quot;index&quot;:null,&quot;origRot&quot;:0}" fill="#ae0000" stroke="#ae0000" stroke-width="2.5" stroke-linecap="round"/><path d="M214.9937,164.73276c1.54592,-0.59459 3.10324,-1.33448 4.75471,-1.57955c0.91497,-0.13577 2.51695,-0.61818 2.51691,-0.62747c-0.08492,0.01792 0.12075,-0.78819 0.09102,-1.16333c-0.06494,-0.81937 0.14727,-1.59541 0.27158,-2.38299c-0.0926,-0.39151 0.0791,-2.00042 0.0791,-2.00042c0,-0.80696 0.65418,-1.46114 1.46114,-1.46114c0.77814,0 1.4142,0.60827 1.45865,1.37526c0,0 0.11595,1.44918 0.11614,1.74205c0.00085,1.3268 -0.33577,2.74797 -0.23485,4.06666c0.02645,0.34572 0.09933,0.66095 0.19932,0.95912c0.41008,0.12162 0.87963,0.43523 0.96537,1.22602c0.0319,0.2942 0.28092,1.74124 0.29703,2.36566c0.03224,1.24861 -0.80928,1.96164 -1.43703,2.92518c-1.09526,1.6811 -1.55987,3.62653 -2.79528,5.24761c-0.15585,0.19482 -0.22592,0.52238 -0.46756,0.58446c-1.12417,0.28881 -5.28881,0.10059 -6.34111,-0.95172c-0.46171,-0.46171 -0.79405,-1.04 -1.13145,-1.59901c-0.31978,-0.52984 -0.43179,-1.20357 -0.45776,-1.90655c-0.23138,-0.88359 -0.09854,-2.91866 0.03916,-2.97079c-0.03896,-0.36911 0.61493,-3.84904 0.61493,-3.84904z" fill="url(#color-1)" stroke="none" stroke-width="0.5" stroke-linecap="butt"/><path d="M239.17533,159.65782c2.42736,0.10696 4.25115,2.71107 4.07355,5.81646c-0.17759,3.10539 -2.28931,5.53609 -4.71667,5.42913c-2.42736,-0.10696 -4.25115,-2.71108 -4.07355,-5.81646c0.17759,-3.10539 2.28931,-5.53609 4.71667,-5.42913z" data-paper-data="{&quot;origRot&quot;:0,&quot;index&quot;:null}" fill="#ffffff" stroke="#ffffff" stroke-width="1.5" stroke-linecap="butt"/><path d="M233.63268,159.13126c2.42736,0.10696 4.25114,2.71108 4.07355,5.81646c-0.17759,3.10539 -2.28931,5.53609 -4.71666,5.42913c-2.42736,-0.10696 -4.25115,-2.71107 -4.07355,-5.81646c0.17759,-3.10539 2.28931,-5.53609 4.71667,-5.42913z" data-paper-data="{&quot;origRot&quot;:0,&quot;index&quot;:null}" fill="#ffffff" stroke="#ffffff" stroke-width="1.5" stroke-linecap="butt"/><path d="M240.3933,164.2354c0.47077,-0.11412 0.99294,0.24003 1.16629,0.79101c0.17334,0.55098 -0.06778,1.09017 -0.53855,1.20428c-0.47077,0.11412 -0.99293,-0.24003 -1.16627,-0.79101c-0.17334,-0.55098 0.06778,-1.09017 0.53855,-1.20428z" data-paper-data="{&quot;index&quot;:null,&quot;origRot&quot;:0}" fill="#000000" stroke="none" stroke-width="0" stroke-linecap="butt"/><path d="M234.12951,164.24946c0.47077,-0.11412 0.99293,0.24003 1.16627,0.79101c0.17334,0.55098 -0.06778,1.09017 -0.53855,1.20428c-0.47077,0.11412 -0.99294,-0.24003 -1.16629,-0.79102c-0.17334,-0.55098 0.06778,-1.09017 0.53855,-1.20428z" data-paper-data="{&quot;index&quot;:null,&quot;origRot&quot;:0}" fill="#000000" stroke="none" stroke-width="0" stroke-linecap="butt"/><path d="M226.82131,182.41513c-0.42431,-0.08615 -1.95083,-0.78293 -2.22785,-3.17681c-0.08938,-0.77243 3.48303,-2.37798 3.48303,-2.37798l3.26659,-0.29972l10.40491,-2.07695l1.11935,3.55798l-6.89032,3.8966l-5.05791,0.69175c0,0 -3.95638,-0.18617 -4.09781,-0.21488z" data-paper-data="{&quot;index&quot;:null,&quot;origRot&quot;:0}" fill="#000000" stroke="#9f0000" stroke-width="0" stroke-linecap="round"/><path d="M242.42521,183.40426l-2.13,1.07546l-3.39543,1.10265l-5.50282,0.98446l-2.91129,-0.90182l-2.33492,-1.60067l-0.83618,-4.2244l3.64049,0.02973c0,0 4.30119,-0.07788 4.60724,-0.07614c0.4742,0.00271 2.40289,-0.33452 3.16555,-0.4715c0.78718,-0.14139 1.45466,-0.16562 2.22915,-0.36515c1.0778,-0.27768 2.52004,-0.84427 2.52004,-0.84427l-0.1359,-2.20362l-1.29575,0.94314c0,0 -5.46509,0.96571 -5.53566,0.97668c-0.21168,0.0329 -4.31445,0.21386 -4.31445,0.21386l-6.12842,-0.00699l-2.86651,-1.61027l-2.19022,-3.02012l-0.01827,-1.32354l1.16824,-0.84233l2.64291,-0.71055l2.51966,0.52651l2.06374,-0.77983l2.72185,-1.21893l1.83191,0.25487l6.55188,0.57845l1.73254,0.69832l2.66398,1.38112l0.50023,0.57766l1.89903,2.32814l0.75136,1.42084l0.25401,1.45234l-0.26938,1.40111l-0.90319,1.6438z" data-paper-data="{&quot;index&quot;:null,&quot;origRot&quot;:0}" fill="#ffbf71" stroke="#ffbf71" stroke-width="2.5" stroke-linecap="round"/><path d="M228.69053,171.63679c-0.1354,-0.43038 0.13574,-0.87161 0.60562,-0.98553c0.46988,-0.1139 0.96055,0.14266 1.09595,0.57305c0.1354,0.43038 -0.13574,0.87161 -0.60563,0.98553c-0.46988,0.1139 -0.96055,-0.14266 -1.09595,-0.57305z" data-paper-data="{&quot;index&quot;:null,&quot;origRot&quot;:0}" fill="#000000" stroke="#9f0000" stroke-width="0" stroke-linecap="butt"/><path d="M233.46438,172.89086c-0.15233,-0.48419 0.13822,-0.97706 0.64896,-1.10086c0.51074,-0.1238 1.04826,0.16834 1.20059,0.65252c0.15233,0.48419 -0.13822,0.97706 -0.64896,1.10086c-0.51074,0.1238 -1.04826,-0.16834 -1.20058,-0.65252z" data-paper-data="{&quot;index&quot;:null,&quot;origRot&quot;:0}" fill="#000000" stroke="none" stroke-width="0" stroke-linecap="butt"/></g></g></svg>