<svg version="1.1" xmlns="http://www.w3.org/2000/svg" xmlns:xlink="http://www.w3.org/1999/xlink" width="85" height="85" viewBox="0,0,85,85"><g transform="translate(-197.5,-137.5)"><g data-paper-data="{&quot;isPaintingLayer&quot;:true}" fill-rule="nonzero" stroke="none" stroke-linecap="butt" stroke-linejoin="miter" stroke-miterlimit="10" stroke-dasharray="" stroke-dashoffset="0" style="mix-blend-mode: normal"><path d="M197.5,222.5v-85h85v85z" data-paper-data="{&quot;index&quot;:null}" fill="none" stroke-width="0"/><path d="M247.76667,161.9c4.2,4.2 3.9,8 -0.9,13.4c-2.1,2.3 -4.2,5 -4.5,5.9c-0.8,2.2 -3.3,2.3 -4.1,0.3c-0.8,-2.2 0.9,-6.1 3.9,-8.7c3.4,-3 3.4,-7.5 0,-8.4c-3.4,-0.8 -5.3,0.1 -6.5,3.1c-1,2.8 -4.7,3.5 -5.6,1.1c-0.8,-2.2 1.8,-6.9 4.6,-8.3c4.5,-2.3 9.8,-1.6 13.1,1.6z" fill="#ff0000" stroke-width="1"/><path d="M243.06667,186.6c0.7,1.9 -1,4.4 -3.1,4.4c-1.7,0 -2.7,-2.4 -1.9,-4.5c0.7,-2 4.2,-1.9 5,0.1z" fill="#ff0000" stroke-width="1"/></g></g></svg>