<svg version="1.1" xmlns="http://www.w3.org/2000/svg" xmlns:xlink="http://www.w3.org/1999/xlink" width="85" height="85" viewBox="0,0,85,85"><g transform="translate(-197.5,-137.5)"><g data-paper-data="{&quot;isPaintingLayer&quot;:true}" fill-rule="nonzero" stroke="none" stroke-linecap="butt" stroke-linejoin="miter" stroke-miterlimit="10" stroke-dasharray="" stroke-dashoffset="0" style="mix-blend-mode: normal"><path d="M197.5,222.5v-85h85v85z" fill="none" stroke-width="0"/><path d="M228.53335,157c1.8,0.2 3,2.4 6.8,12.1l4.6,11.9l2.8,-7.4c1.6,-4 3.7,-9.4 4.8,-12c0,0 1.5851,-4.02614 1.77938,-4.18156c0.19428,-0.15543 0.38856,-0.31085 0.58285,-0.46627c0.19428,-0.15543 3.4147,0.09595 3.4147,0.09595c0,0 0.85875,0.57942 0.92356,1.15198c0.06481,0.57256 0.0409,2.11406 -0.40325,3.445c-0.89847,1.87816 -2.8278,6.67632 -4.99724,12.2549c-2.7,7.2 -5.5,13.5 -6.2,14.1c-0.7,0.5 -2.2,0.8 -3.5,0.6c-2,-0.3 -3.2,-2.5 -8.1,-14.8c-3.1,-7.9 -5.5,-15.1 -5.2,-15.8c0.3,-0.7 1.5,-1.2 2.7,-1z" fill="#ff0000" stroke-width="1"/></g></g></svg>