<svg version="1.1" xmlns="http://www.w3.org/2000/svg" xmlns:xlink="http://www.w3.org/1999/xlink" width="104.33334" height="136.01853" viewBox="0,0,104.33334,136.01853"><defs><linearGradient x1="240.00001" y1="112.5667" x2="240.00001" y2="247.23337" gradientUnits="userSpaceOnUse" id="color-1"><stop offset="0" stop-color="#7b7b7b"/><stop offset="1" stop-color="#242424"/></linearGradient><linearGradient x1="239.99999" y1="219.82732" x2="239.99999" y2="247.43338" gradientUnits="userSpaceOnUse" id="color-2"><stop offset="0" stop-color="#ffffff"/><stop offset="1" stop-color="#e5e5e5"/></linearGradient></defs><g transform="translate(-187.83333,-112.5667)"><g data-paper-data="{&quot;isPaintingLayer&quot;:true}" fill-rule="nonzero" stroke-linejoin="miter" stroke-miterlimit="10" stroke-dasharray="" stroke-dashoffset="0" style="mix-blend-mode: normal"><path d="M187.83334,232.19549c0,-15.63404 0,-74.95098 0,-103.75c0,-9.65412 8.39549,-15.87879 15.8009,-15.87879c12.13701,0 49.90994,0 72,0c9.81391,0 16.53243,6.23632 16.53243,15.87879c0,29.62295 0,91.39311 0,103.25c0,7.61017 -6.49271,15.53788 -16.03243,15.53788c-21.93761,0 -59.9884,0 -72.25,0c-7.50185,0 -16.0509,-7.6367 -16.0509,-15.03788z" fill="url(#color-1)" stroke="none" stroke-width="0" stroke-linecap="butt"/><g><g data-paper-data="{&quot;index&quot;:null,&quot;origRot&quot;:0}" stroke="none" stroke-width="2" stroke-linecap="round"><path d="M249.99215,189.34191c0.86062,-2.62965 2.25328,-4.77036 4.25562,-7.39821c2.00266,-2.62782 3.63832,-4.50853 6.00413,-6.06569c1.08513,-0.71027 2.93989,-1.16704 4.11984,-0.30131c0.83536,0.66972 0.50581,2.35842 0.10012,3.51703c-0.93811,2.67291 -2.25311,4.77022 -4.25576,7.39803c-2.00234,2.62785 -3.73972,4.47812 -6.00401,6.06587c-1.1188,0.78726 -2.60331,1.20984 -3.48018,0.37233c-1.05763,-0.63662 -1.19245,-2.21841 -0.73977,-3.58804z" fill="#d9d9d9"/><path d="M257.23416,175.74376c-0.2496,-1.86071 0.41879,-3.85952 1.43508,-5.42976c0.31585,-0.48791 -0.71154,-4.51845 1.14116,-4.79784c3.02648,-0.45639 2.76073,3.45312 2.76073,3.45312c0,0 1.69493,-3.46377 3.48082,-2.77848c1.79651,0.68937 0.25596,5.09223 0.25596,5.09223c0,0 2.07108,-3.2857 3.59242,-2.05295c1.52134,1.23274 -0.5,5.13647 -0.5,5.13647c0,0 2.95309,-4.25492 4.57074,-0.64701c0.34296,0.7649 -1.72191,3.62126 -3.23971,5.16177c-1.43112,1.44834 -3.27954,2.81447 -5.2434,3.15208c-1.84214,0.31651 -3.82003,-0.20837 -5.42975,-1.43509c-1.60958,-1.22656 -2.57112,-2.9942 -2.82407,-4.85452z" fill="#bdeeff"/></g><path d="M230.9357,219.02062l-7.66935,3.26168l3.26168,-6.4352z" data-paper-data="{&quot;index&quot;:null}" fill="#d9d9d9" stroke="none" stroke-width="2" stroke-linecap="round"/><g data-paper-data="{&quot;index&quot;:null}" stroke="none" stroke-width="2"><path d="M251.96878,224.69904h-9.14041v-16.07105h9.14041z" fill="#d9d9d9" stroke-linecap="butt"/><g><path d="M260.21684,237.18023h-14.66484v-3.31466h14.66484z" fill="#ede3a3" stroke-linecap="butt"/><path d="M261.37194,226.35819c1.01751,1.01931 1.64809,2.42553 1.64809,3.97659c0,1.55127 -0.63058,2.95748 -1.64809,3.97659c-1.01929,1.01771 -2.42552,1.64829 -3.97678,1.64829c-1.55106,0 -2.95728,-0.63059 -3.97658,-1.64829c-1.0175,-1.0191 -1.64829,-2.42533 -1.64829,-3.97658c0,-1.55106 0.63079,-2.95728 1.64829,-3.97658c1.01931,-1.0175 2.42553,-1.6483 3.97658,-1.6483c1.55125,0 2.95748,0.63079 3.97678,1.6483z" fill="#bdeeff" stroke-linecap="butt"/><path d="M248.27505,223.92162c1.63281,0 3.11195,0.66494 4.18168,1.73769c1.07215,1.07275 0.78106,2.95105 1.73488,4.18852c1.3821,1.79193 6.4917,3.62001 5.32494,4.92176c-1.79152,1.66135 -7.53311,1.13502 -11.2415,1.00444c-1.54784,-0.05425 -3.11216,-0.66494 -4.18189,-1.73769c-1.07214,-1.07275 -1.73467,-2.55329 -1.73467,-4.18852c0,-1.63523 0.66253,-3.11577 1.73467,-4.18852c1.06972,-1.07275 2.54887,-1.73768 4.18189,-1.73768z" fill="#bdeeff" stroke-linecap="round"/><path d="M252.22551,222.57565c1.02654,0.4078 1.66336,0.97431 1.66336,1.59706c0,0.62275 -0.63682,1.18926 -1.66336,1.59707c-1.02654,0.40981 -2.44681,0.66293 -4.01173,0.66293c-1.56492,0 -2.98519,-0.25312 -4.01173,-0.66293c-1.02654,-0.4078 -1.66336,-0.97432 -1.66336,-1.59707c0,-0.62275 0.63682,-1.18926 1.66336,-1.59706c1.02654,-0.40981 2.44681,-0.66293 4.01173,-0.66293c1.56492,0 2.98519,0.25312 4.01173,0.66293z" fill="#bdeeff" stroke-linecap="butt"/></g></g><g data-paper-data="{&quot;index&quot;:null}" stroke="none" stroke-width="2"><path d="M226.01041,225.96329l-4.79577,-7.78125l13.6813,-8.43212l4.79577,7.78125z" fill="#d9d9d9" stroke-linecap="butt"/><g><path d="M219.40945,238.65852l-7.69431,-12.48419l2.82177,-1.73913l7.69431,12.48419z" fill="#ede3a3" stroke-linecap="butt"/><path d="M229.22833,233.96378c-0.33387,1.40102 -1.20014,2.67564 -2.52056,3.48945c-1.32059,0.81392 -2.84857,1.01491 -4.24999,0.68341c-1.40118,-0.33375 -2.67581,-1.20002 -3.48972,-2.52061c-0.81381,-1.32042 -1.0148,-2.84839 -0.68323,-4.25009c0.33371,-1.40091 1.19986,-2.67571 2.52045,-3.48962c1.32042,-0.81381 2.84849,-1.01463 4.25009,-0.68323c1.40102,0.33387 2.67582,1.20003 3.48962,2.52045c0.81391,1.32058 1.01473,2.84866 0.68334,4.25026z" fill="#bdeeff" stroke-linecap="butt"/><path d="M224.43093,221.53597c0.8567,1.39002 1.06671,2.99809 0.71474,4.4716c-0.3507,1.47557 -2.10243,2.21328 -2.65544,3.67453c-0.80031,2.11677 0.32433,7.42572 -1.39603,7.11547c-2.35428,-0.65345 -4.9187,-5.81742 -6.75325,-9.04289c-0.76594,-1.34615 -1.06682,-2.99826 -0.71484,-4.47177c0.35071,-1.47556 1.26347,-2.81639 2.65555,-3.67435c1.39208,-0.85798 3.00008,-1.07076 4.47584,-0.72089c1.47449,0.3478 2.81663,1.25812 3.67344,2.64832z" fill="#bdeeff" stroke-linecap="round"/><path d="M227.64947,224.19278c0.19144,1.08787 0.0433,1.92722 -0.48685,2.25396c-0.53015,0.32674 -1.34654,0.08185 -2.23231,-0.57807c-0.88747,-0.65887 -1.84815,-1.73515 -2.66923,-3.06737c-0.82108,-1.33222 -1.35078,-2.6741 -1.54051,-3.76301c-0.19144,-1.08787 -0.0433,-1.92722 0.48685,-2.25396c0.53015,-0.32674 1.34655,-0.08185 2.23231,0.57807c0.88747,0.65887 1.84814,1.73515 2.66922,3.06737c0.82108,1.33222 1.35078,2.6741 1.54052,3.76301z" fill="#bdeeff" stroke-linecap="butt"/></g></g><g stroke-width="2" stroke-linecap="round"><path d="M226.81331,172.8711c1.57399,-0.3773 3.48903,0.93442 4.21421,4.14321c1.24527,5.10055 0.94075,11.7156 0.94916,17.63069c0.0083,5.78816 0.22248,12.04705 -0.83522,17.18992c-0.83683,3.4609 -2.64551,6.32414 -4.32815,6.2589c-2.30757,-0.08992 -4.6919,-2.53354 -6.30691,-6.62738c-1.61512,-4.09208 -2.61509,-9.74625 -2.61509,-15.98399c0,-6.23774 0.99998,-11.89191 2.61509,-15.98399c1.615,-4.09384 4.01073,-6.05791 6.30691,-6.62738z" data-paper-data="{&quot;index&quot;:null}" fill="#9c9c9c" stroke="none"/><g data-paper-data="{&quot;index&quot;:null}" fill="none" stroke="#000000"><path d="M220.42616,182.29542l2.88045,5.81812l0.46086,14.98609l-3.9174,5.11289" data-paper-data="{&quot;origPos&quot;:null}"/><path d="M223.94027,203.5404l4.03262,4.05506" data-paper-data="{&quot;origPos&quot;:null}"/><path d="M227.80009,184.41109l-4.43589,3.43798" data-paper-data="{&quot;origPos&quot;:null}"/></g><path d="M231.41729,176.90677c1.29274,6.34652 1.78818,13.21649 1.84349,19.94119c0.05184,6.30544 -0.22698,13.10595 -1.61305,19.02087c-0.52655,2.2435 -2.40229,3.75904 -3.85979,3.37451c-0.98051,-0.28209 -1.42294,-2.93076 -1.51857,-4.84721c-0.28344,-5.76559 0.63255,-11.56168 0.65444,-17.34366c0.00922,-6.35039 -1.02774,-13.0691 -0.51848,-19.53216c0.14863,-1.86727 1.14757,-3.91454 2.18913,-3.98824c1.18329,-0.07351 2.46566,1.47675 2.82283,3.3747z" data-paper-data="{&quot;index&quot;:null}" fill="#ffffff" stroke="none"/></g><path d="M242.23802,174.76757c3.43921,0.08462 6.95372,2.53354 9.34726,6.62738c2.39372,4.09208 3.87576,9.74624 3.87576,15.98398c0,6.23774 -1.37396,11.90248 -3.87576,15.98398c-2.34187,3.82586 -6.09933,4.68272 -9.4035,5.21693c-3.49986,0.56948 -8.20039,2.1386 -10.74714,-1.93937c-2.87416,-4.64921 -1.97622,-12.73641 -2.41964,-19.26153c-0.37923,-5.58893 -1.90183,-12.63768 0.1689,-16.88139c3.32549,-4.98419 8.86101,-5.83929 13.05411,-5.72998z" data-paper-data="{&quot;index&quot;:null}" fill="#f3dfa7" stroke="none" stroke-width="2" stroke-linecap="round"/><path d="M231.90065,210.93696h19.5086" data-paper-data="{&quot;index&quot;:null}" fill="none" stroke="#000000" stroke-width="2" stroke-linecap="round"/><path d="M230.35438,198.5517h23.87577" data-paper-data="{&quot;index&quot;:null}" fill="none" stroke="#000000" stroke-width="2" stroke-linecap="round"/><path d="M248.86188,169.29642c2.10652,0.91733 3.40977,2.18462 3.40977,3.58238c0,1.39794 -1.30326,2.66506 -3.40977,3.58256c-2.10652,0.91733 -5.01629,1.48486 -8.22648,1.48486c-3.21002,0 -6.11997,-0.56753 -8.22648,-1.48486c-2.10652,-0.9175 -3.40977,-2.18462 -3.40977,-3.58256c0,-1.39776 1.30325,-2.66505 3.40977,-3.58238c2.10652,-0.9175 5.01646,-1.48503 8.22648,-1.48503c3.21019,0 6.11997,0.56753 8.22648,1.48503z" data-paper-data="{&quot;index&quot;:null}" fill="#f3dfa7" stroke="none" stroke-width="2" stroke-linecap="butt"/><path d="M229.02111,188.14958h23.87577" data-paper-data="{&quot;index&quot;:null}" fill="none" stroke="#000000" stroke-width="2" stroke-linecap="round"/><path d="M241.71216,183.9246c1.15658,1.39794 1.87238,3.32585 1.87238,5.4537c0,2.12785 -0.7158,4.05559 -1.87238,5.45353c-1.15833,1.396 -2.75567,2.25991 -4.51874,2.25991c-1.76307,0 -3.3604,-0.86391 -4.51874,-2.25991c-1.15658,-1.39794 -1.87238,-3.32568 -1.87238,-5.45353c0,-2.12785 0.71581,-4.05576 1.87238,-5.4537c1.15833,-1.39581 2.75567,-2.25972 4.51874,-2.25972c1.76307,0 3.3604,0.8639 4.51874,2.25972z" data-paper-data="{&quot;index&quot;:null}" fill="#000000" stroke="none" stroke-width="2" stroke-linecap="butt"/><path d="M246.46306,169.94118c0.85156,0.70153 2.54411,1.28527 2.54411,2.10933c0,0.82423 -0.97322,1.56983 -2.54411,2.10933c-1.57266,0.54126 -3.743,0.87484 -6.13901,0.87484c-2.39601,0 -4.56635,-0.33358 -6.13901,-0.87484c-1.5709,-0.53949 -2.54411,-1.2851 -2.54411,-2.10933c0,-0.82406 1.67667,-1.42756 2.54411,-2.10933c2.09629,-1.66134 3.45739,-5.27687 6.27124,-5.37172c2.76273,0.09485 4.03214,3.72996 6.00678,5.37172z" data-paper-data="{&quot;index&quot;:null}" fill="#d9d9d9" stroke="none" stroke-width="2" stroke-linecap="round"/><g data-paper-data="{&quot;index&quot;:null,&quot;origRot&quot;:0}" stroke="none" stroke-width="2" stroke-linecap="round"><path d="M238.13131,186.53646c0.78229,1.21195 1.04924,2.77688 0.18551,3.65882c-0.63829,1.03097 -2.18137,0.99495 -3.46208,0.51406c-2.5906,-0.96787 -4.73714,-2.32224 -7.33553,-4.36266c-2.59868,-2.04029 -4.39847,-3.73992 -5.97809,-6.09136c-0.68379,-1.01951 -1.42709,-2.57122 -0.7868,-3.42935c0.92457,-1.13442 2.83459,-1.15836 4.06338,-0.74353c2.68118,0.91276 4.73691,2.32216 7.33561,4.36246c2.5984,2.04042 4.48426,3.76253 5.978,6.09157z" fill="#d9d9d9"/><path d="M227.70493,175.19423c0.22261,1.86419 -0.26394,3.81673 -1.51369,5.40838c-1.24985,1.59184 -3.0324,2.59685 -4.89497,2.75337c-1.98569,0.16667 -4.11807,-0.69118 -5.8672,-1.73347c-1.85619,-1.1097 -4.57251,-3.35561 -4.43275,-4.18214c0.6592,-3.89862 4.58667,-0.52222 4.58667,-0.52222c0,0 -2.93736,-3.27059 -1.77457,-4.84605c1.16279,-1.57546 3.99302,1.08444 3.99302,1.08444c0,0 -2.59742,-3.87452 -1.03177,-4.99318c1.5564,-1.11204 4.06728,1.81473 4.06728,1.81473c0,0 -1.23955,-3.71731 1.80452,-4.03601c1.86346,-0.1951 1.88177,3.96429 2.31008,4.35719c1.37822,1.2645 2.52743,3.03124 2.75336,4.89497z" fill="#bdeeff"/></g><g><path d="M249.79897,164.87797l2.57602,-6.67421l3.17048,7.72803z" fill="#a8a8a8" stroke="none" stroke-width="0" stroke-linecap="butt"/><path d="M263.15553,171.164c-8.71881,1.95238 -12.3559,4.55756 -21.10349,2.576c-7.95166,-1.80125 -15.55515,-6.56826 -15.55515,-11.49298c0,-4.92471 9.38359,0.19815 17.53671,0.19815c8.15313,0 19.12193,3.79412 19.12193,8.71882z" fill="#a8a8a8" stroke="none" stroke-width="0" stroke-linecap="butt"/><path d="M250.55932,123.88011c1.75626,1.75829 2.47218,4.78598 2.45813,7.39888c-0.04164,6.06856 0.66699,12.93066 -3.05823,18.17551c-1.32086,2.11835 -5.28493,-0.36189 -7.53902,-1.75858c-1.86702,-1.18487 -2.39239,-3.62312 -3.10414,-5.67345c-1.30886,-2.96755 -2.77648,-6.03644 -2.93051,-9.30808c-0.12517,-2.61567 0.45691,-5.62538 1.85574,-7.67946c1.39918,-2.05258 3.46611,-3.436 5.86989,-3.66136c2.40377,-0.22535 4.69185,0.74978 6.44814,2.50654z" data-paper-data="{&quot;origPos&quot;:null,&quot;index&quot;:null,&quot;origRot&quot;:0}" fill="#d9d9d9" stroke="none" stroke-width="2.5" stroke-linecap="round"/><path d="M239.99665,125.9805c1.49107,1.95913 2.5867,4.95257 2.20592,7.54621c-0.89336,6.02282 -1.96801,13.02535 -6.39098,17.78384c-1.60458,1.94416 -5.17941,-0.99934 -7.21392,-2.65978c-1.68133,-1.40306 -1.8588,-2.6995 -2.2754,-4.82236c-0.87849,-3.1062 -2.29623,-7.32297 -1.98937,-10.59124c0.24341,-2.61339 1.04409,-5.53237 2.71681,-7.40333c1.67288,-1.86925 4.50711,-3.38939 6.9177,-3.32222c2.41044,0.06737 4.53794,1.51129 6.02926,3.46886z" data-paper-data="{&quot;origPos&quot;:null,&quot;index&quot;:null,&quot;origRot&quot;:0}" fill="#d9d9d9" stroke="none" stroke-width="2.5" stroke-linecap="round"/><path d="M249.13502,126.24483c1.16934,1.72528 1.98314,4.21586 2.16443,7.06555c0.18128,2.8497 -0.3042,5.51997 -1.23558,7.53549c-0.9316,2.01406 -2.30782,3.3715 -3.90831,3.59262c-1.60049,0.22113 -3.12393,-0.73571 -4.29331,-2.4595c-1.16934,-1.72529 -1.98315,-4.21604 -2.16443,-7.06573c-0.18128,-2.8497 0.30421,-5.51977 1.23559,-7.53529c0.9316,-2.01406 2.30781,-3.37151 3.9083,-3.59264c1.60049,-0.22113 3.12392,0.73572 4.29331,2.4595z" data-paper-data="{&quot;origPos&quot;:null,&quot;index&quot;:null,&quot;origRot&quot;:0}" fill="#000000" stroke="none" stroke-width="2.5" stroke-linecap="butt"/><path d="M245.33977,132.4898c0.37829,0.63444 0.63889,1.52428 0.69204,2.52052c0.05314,0.99604 -0.11132,1.90855 -0.41996,2.57984c-0.30865,0.67109 -0.76145,1.10135 -1.28518,1.12929c-0.52373,0.02794 -1.01974,-0.35171 -1.39802,-0.98615c-0.3783,-0.63464 -0.6389,-1.52447 -0.69204,-2.52052c-0.05315,-0.99624 0.11131,-1.90874 0.41996,-2.57984c0.30863,-0.67128 0.76143,-1.10154 1.28516,-1.12948c0.52373,-0.02794 1.01974,0.35169 1.39803,0.98635z" data-paper-data="{&quot;origPos&quot;:null,&quot;index&quot;:null,&quot;origRot&quot;:0}" fill="#ffec2e" stroke="none" stroke-width="2.5" stroke-linecap="butt"/><path d="M237.00299,127.38361c1.23139,1.76312 2.09141,4.30429 2.28807,7.2085c0.19666,2.90421 -0.30719,5.6226 -1.28042,7.67185c-0.97333,2.04774 -2.41509,3.42452 -4.0948,3.64253c-1.67957,0.21799 -3.28117,-0.76379 -4.51246,-2.52539c-1.23139,-1.76311 -2.0913,-4.30449 -2.28796,-7.2087c-0.19666,-2.90421 0.30707,-5.6224 1.28029,-7.67165c0.97333,-2.04774 2.41523,-3.42453 4.0948,-3.64252c1.67971,-0.21801 3.28117,0.76379 4.51246,2.52539z" data-paper-data="{&quot;origPos&quot;:null,&quot;index&quot;:null,&quot;origRot&quot;:0}" fill="#000000" stroke="none" stroke-width="2.5" stroke-linecap="round"/><path d="M261.07138,141.68862c4.05872,2.64112 6.30687,6.89912 7.30967,10.9931c0.88484,3.64702 0.17333,7.46046 -1.47667,10.84596c-0.87913,1.66922 -4.25291,4.15389 -4.25291,4.15389c0,0 -2.88819,-3.8544 -7.55613,-5.02052c-3.29354,-0.82278 -8.27001,0.4567 -9.58128,0.31525c-0.98997,0.06109 -3.63461,6.53209 -3.63461,6.53209l-3.73987,-4.31093l-0.80381,2.79603c0,0 -7.67174,0.76382 -12.50769,-5.25132c-2.40881,-3.1008 -1.48416,-7.87236 -0.13974,-11.65803c1.10914,-3.08033 3.70828,-6.27041 6.9881,-8.46241c4.13222,-2.35464 9.01992,-4.26218 14.29282,-4.52763c5.40412,-0.26973 11.04545,0.95469 15.10213,3.59452z" data-paper-data="{&quot;origPos&quot;:null,&quot;index&quot;:null,&quot;origRot&quot;:0}" fill="#d9d9d9" stroke="none" stroke-width="2.5" stroke-linecap="round"/><path d="M248.95455,144.99212c0.51173,0.20606 1.00249,0.60953 1.35283,1.16245c0.35054,0.5529 0.49347,1.1493 0.44117,1.66838c-0.05247,0.5193 -0.30113,0.95945 -0.73072,1.19803c-0.4298,0.23841 -0.96181,0.23141 -1.47374,0.02556c-0.51193,-0.20605 -1.00268,-0.60951 -1.35303,-1.16243c-0.35034,-0.55292 -0.49329,-1.14931 -0.441,-1.6686c0.0523,-0.51908 0.30096,-0.95924 0.73074,-1.19785c0.4298,-0.23841 0.96181,-0.2316 1.47375,-0.02556z" data-paper-data="{&quot;origPos&quot;:null,&quot;index&quot;:null,&quot;origRot&quot;:0}" fill="#7d7d7d" stroke="none" stroke-width="2.5" stroke-linecap="butt"/><path d="M256.35697,143.5347c0.51174,0.20606 1.00248,0.60954 1.35284,1.16246c0.35054,0.5529 0.49347,1.1493 0.44117,1.66838c-0.05247,0.5193 -0.30113,0.95945 -0.73073,1.19803c-0.4298,0.23841 -0.96181,0.23141 -1.47373,0.02555c-0.51193,-0.20605 -1.00268,-0.60952 -1.35301,-1.16243c-0.35034,-0.55292 -0.49329,-1.1493 -0.441,-1.6686c0.0523,-0.51908 0.30096,-0.95924 0.73074,-1.19785c0.4298,-0.23841 0.96181,-0.23159 1.47374,-0.02556z" data-paper-data="{&quot;origPos&quot;:null,&quot;index&quot;:null,&quot;origRot&quot;:0}" fill="#7d7d7d" stroke="none" stroke-width="2.5" stroke-linecap="butt"/><path d="M234.24114,133.57819c0.40346,0.61874 0.6996,1.49739 0.79273,2.49069c0.0931,0.99311 -0.03456,1.91148 -0.31598,2.59462c-0.28144,0.68294 -0.71658,1.13105 -1.23878,1.18001c-0.5222,0.04896 -1.03305,-0.31045 -1.43651,-0.9292c-0.40347,-0.61894 -0.69964,-1.49758 -0.79273,-2.49068c-0.09312,-0.99329 0.03454,-1.91167 0.31598,-2.59462c0.28142,-0.68314 0.71655,-1.13124 1.23875,-1.1802c0.5222,-0.04896 1.03306,0.31045 1.43653,0.92939z" data-paper-data="{&quot;origPos&quot;:null,&quot;index&quot;:null,&quot;origRot&quot;:0}" fill="#ffec2e" stroke="none" stroke-width="2.5" stroke-linecap="butt"/><path d="M234.12428,141.80538c1.18291,0.83006 1.98299,2.05539 2.11635,3.47798c0.13336,1.42258 -0.42502,2.77528 -1.43303,3.81093c-1.00802,1.03546 -3.56846,0.67905 -4.13802,1.91234c-1.90648,4.27788 -0.47133,11.05582 -2.93534,14.49674c-1.01769,1.35987 -3.64867,-2.02922 -3.9724,-3.69086c-0.94178,-4.85429 -2.65225,-9.24339 -1.24326,-14.00276c0.65572,-2.57416 2.98215,-5.55446 5.59907,-6.91634c1.34025,-0.68793 4.8237,0.08171 6.00663,0.91195z" data-paper-data="{&quot;origPos&quot;:null,&quot;index&quot;:null,&quot;origRot&quot;:0}" fill="#d9d9d9" stroke="none" stroke-width="2.5" stroke-linecap="round"/><path d="M230.80498,155.18979c0,0 1.86209,0.44002 2.47143,0.91348c1.19025,0.92862 1.26481,1.25563 3.08041,3.33759c0.76685,1.35958 1.56936,2.79407 1.74122,4.32203c0.14776,1.51495 -0.27848,3.07609 -0.91644,4.47575c-0.30077,0.59888 -1.82992,0.83958 -1.82992,0.83958" data-paper-data="{&quot;origPos&quot;:null,&quot;index&quot;:null,&quot;origRot&quot;:0}" fill="none" stroke="#c1c1c1" stroke-width="2" stroke-linecap="round"/><path d="M263.15553,171.75847c-3.63915,3.31802 -12.75221,5.54834 -21.49981,3.56679c-7.95166,-1.80125 -20.0342,-11.98649 -15.15885,-12.68191c3.9631,-0.5653 9.77989,9.90774 17.93301,9.90774c8.15313,0 21.30164,-3.14131 18.72563,-0.79262z" fill="#d9d9d9" stroke="none" stroke-width="0" stroke-linecap="butt"/><path d="M243.1419,172.94739l2.57602,-7.52988l3.17047,8.7188z" fill="#d9d9d9" stroke="none" stroke-width="0" stroke-linecap="butt"/></g></g><path d="M187.83333,232.39547c0,-0.16098 0,-12.56818 0,-12.56818l104.33333,0.33334c0,0 0,9.46311 0,11.73484c0,7.61017 -6.49271,15.53788 -16.03243,15.53788c-21.93761,0 -59.9884,0 -72.25,0c-7.50185,0 -16.0509,-7.6367 -16.0509,-15.03788z" fill="url(#color-2)" stroke="none" stroke-width="0" stroke-linecap="butt"/><text transform="translate(195.04346,239.94669) scale(0.52889,0.52889)" font-size="40" xml:space="preserve" fill="#000000" fill-rule="nonzero" stroke="#000000" stroke-width="1" stroke-linecap="butt" stroke-linejoin="miter" stroke-miterlimit="10" stroke-dasharray="" stroke-dashoffset="0" font-family="Handwriting" font-weight="normal" text-anchor="start" style="mix-blend-mode: normal"><tspan x="0" dy="0">Dry Bones</tspan></text></g></g></svg>