<svg version="1.1" xmlns="http://www.w3.org/2000/svg" xmlns:xlink="http://www.w3.org/1999/xlink" width="56.50018" height="82.20862" viewBox="0,0,56.50018,82.20862"><g transform="translate(-212.74991,-146.83399)"><g data-paper-data="{&quot;isPaintingLayer&quot;:true}" fill-rule="nonzero" stroke-linejoin="miter" stroke-miterlimit="10" stroke-dasharray="" stroke-dashoffset="0" style="mix-blend-mode: normal"><g stroke="none" stroke-width="0" stroke-linecap="butt"><path d="M251.03509,208.86143c-0.08244,6.03734 -6.32216,10.84728 -13.93682,10.7433c-7.61466,-0.10398 -14.36272,-1.34822 -14.28029,-7.38555c0.08244,-6.03734 6.96416,-14.58154 14.57882,-14.47757c7.61466,0.10398 13.72073,5.08249 13.63829,11.11983z" data-paper-data="{&quot;origPos&quot;:null}" fill="#a35e25"/><path d="M240.37479,194.26907l-0.11443,8.10395l-12.18547,-0.03065c0,0 -3.68338,0.43995 -3.62066,-4.15364c0.05644,-4.13399 3.73092,-3.92192 3.73092,-3.92192z" data-paper-data="{&quot;origPos&quot;:null}" fill="#c3b086"/></g><g data-paper-data="{&quot;index&quot;:null}" stroke="none" stroke-width="0" stroke-linecap="butt"><path d="M260.48867,225.05788c-0.03853,2.82217 -1.52548,4.05145 -7.61835,3.98195c-4.84869,-0.13414 -7.21821,-0.71773 -7.32883,-3.67076c-0.07192,-1.9201 3.47529,-3.43073 7.51756,-3.37553c4.04226,0.0552 7.45585,1.14375 7.42962,3.06434z" data-paper-data="{&quot;origPos&quot;:null}" fill="#f3c08d"/><path d="M261.41757,223.07384c-0.0302,2.21207 -0.28436,4.34449 -8.61618,4.23072c-8.71822,-0.11904 -8.02714,-2.37431 -7.99693,-4.58639c0.04031,-2.95201 2.21879,-5.2596 6.65166,-5.29158c4.43287,-0.03198 10.00808,2.23277 9.96146,5.64725z" data-paper-data="{&quot;origPos&quot;:null}" fill="#ff1919"/></g><path d="M257.9372,211.92931c-2.47978,-1.79113 -9.56117,-14.0675 -5.16894,-13.56986c1.59903,0.18117 4.71731,4.30208 7.27916,5.97373c2.43051,1.58596 9.63743,0.43783 5.81984,5.60844c-1.83612,2.48686 -5.28852,-0.08511 -5.28852,-0.08511c0,0 0.57607,4.39684 -2.64153,2.07279z" data-paper-data="{&quot;origRot&quot;:0,&quot;index&quot;:null}" fill="#ffdebd" stroke="none" stroke-width="0" stroke-linecap="butt"/><path d="M256.47274,210.62432c-0.08547,6.25969 -3.76626,10.59528 -13.30751,10.37751c-9.42954,-0.21523 -13.69663,-4.48537 -13.61115,-10.74507c0.05698,-4.17227 1.5023,-7.6428 4.4858,-10.55996c3.15662,-3.08644 4.71657,-3.5738 9.03941,-3.51477c0,0 6.27148,-0.78784 9.06697,2.79613c2.46832,3.16454 4.41197,5.38647 4.3265,11.64617z" fill="#f9faaf" stroke="none" stroke-width="0" stroke-linecap="butt"/><g stroke="none" stroke-width="0" stroke-linecap="butt"><path d="M268.85635,169.52534c-0.27253,9.2248 -4.81477,16.25275 -25.79786,16.2182c-26.06872,-0.04294 -29.72218,-3.43975 -29.76784,-16.70804c-0.01785,-5.19026 0.96511,-10.23587 4.31368,-13.5992c7.84456,-7.87914 14.77025,-8.72519 24.68279,-8.58984c14.84204,0.20266 27.08029,5.3799 26.56922,22.6789z" data-paper-data="{&quot;origPos&quot;:null}" fill="#ffffff"/><path d="M257.52764,160.79565c0.12324,7.62053 -6.09913,11.96182 -12.83142,11.75647c-8.35178,-0.25475 -13.16397,-5.5814 -13.07605,-12.0194c0.10278,-7.52768 6.18028,-11.18215 13.9619,-11.16455c7.97193,0.01803 11.85866,6.05276 11.94558,11.42748z" fill="#ff1919"/><path d="M223.30106,165.88072c1.58788,8.19687 -8.12624,13.53297 -8.12624,13.53297c0,0 -2.44017,-3.78244 -2.10929,-12.40526c0.28113,-7.32621 3.58109,-10.50205 3.58109,-10.50205c0,0 5.06656,1.17747 6.65444,9.37434z" data-paper-data="{&quot;origRot&quot;:0}" fill="#ff1919"/><path d="M267.16972,158.62261c0,0 1.96904,1.76332 1.97139,9.19548c0.00104,3.27182 -1.28123,8.07262 -1.28123,8.07262c0,0 -4.608,-2.17797 -4.57533,-9.61548c0.04911,-8.17365 3.88518,-7.65262 3.88518,-7.65262z" fill="#ff1919"/></g><path d="M254.31024,204.84465c0,0 0.04761,3.65094 -2.6928,3.6508c-2.74112,-0.00014 -2.7537,-4.28057 -2.7537,-4.28057c0,0 1.25952,0.34758 2.94803,0.49508c1.68852,0.1475 2.49847,0.1347 2.49847,0.1347z" data-paper-data="{&quot;index&quot;:null}" fill="#f9faaf" stroke="#d6d496" stroke-width="1.5" stroke-linecap="butt"/><path d="M236.63843,208.3909c-3.11598,-0.07982 -3.12549,-4.14112 -3.12549,-4.14112c0,0 1.09669,0.19575 2.95042,0.10118c1.92421,-0.09817 3.48424,-0.35968 3.48424,-0.35968c0,0 -0.19241,4.47946 -3.30917,4.39962z" fill="#f9faaf" stroke="#d6d496" stroke-width="1.5" stroke-linecap="butt"/><path d="M251.91,199.47099c-0.03514,2.57337 -7.56316,7.37758 -7.56316,7.37758c0,0 -3.09784,-3.29994 -5.19897,-4.6662c-1.54691,-1.00587 -4.41439,-1.01039 -4.38797,-2.94555c0.03514,-2.57337 3.55822,-2.97656 8.46324,-2.90959c4.90501,0.06697 8.72202,0.57039 8.68688,3.14376z" fill="#ff1919" stroke="none" stroke-width="0" stroke-linecap="butt"/><path d="M243.2618,198.70795c-6.62582,0.24166 -13.80094,-2.67969 -15.09869,-10.3381c-0.71579,-4.22412 -0.40265,-6.73673 -0.40265,-6.73673c0,0 3.00916,-2.69125 15.15686,-3.70928c9.62863,-0.80692 14.23381,3.53707 14.23381,3.53707c0,0 0.72083,3.80495 0.09261,6.83728c-0.62822,3.03232 -1.9012,9.96917 -13.98196,10.40977z" fill="#ffdebd" stroke="none" stroke-width="0" stroke-linecap="butt"/><path d="M245.58898,193.55992c0,0 -1.96543,0.61282 -3.59526,0.23134c-1.65188,-0.38663 -3.45801,-1.61827 -3.45801,-1.61827" fill="none" stroke="#564031" stroke-width="1" stroke-linecap="round"/><path d="M238.84358,190.32413c0,0 0.02029,0.97155 -0.35448,1.77564c-0.43762,0.93894 -1.31956,1.45732 -1.31956,1.45732" fill="none" stroke="#564031" stroke-width="1" stroke-linecap="round"/><path d="M241.89888,180.75422c1.27795,0.01745 1.68074,1.29969 1.63981,4.29791c-0.03804,2.78576 -0.59195,4.26744 -1.75654,4.25154c-1.1646,-0.0159 -1.67929,-1.40592 -1.6398,-4.29791c0.04094,-2.99822 0.47859,-4.26898 1.75654,-4.25154z" fill="#000000" stroke="none" stroke-width="0" stroke-linecap="butt"/><path d="M242.77243,182.74971c-0.01141,0.83572 -0.11625,1.27686 -0.76514,1.268c-0.61243,-0.00836 -0.7244,-0.37957 -0.73047,-1.2702c-0.00668,-0.98156 0.35126,-1.20526 0.7642,-1.19962c0.41294,0.00564 0.74482,0.22033 0.73142,1.20181z" fill="#ffffff" stroke="none" stroke-width="0" stroke-linecap="butt"/><path d="M249.41487,180.84823c1.27795,0.01745 1.68075,1.29969 1.63981,4.29791c-0.03804,2.78576 -0.59194,4.26744 -1.75654,4.25154c-1.1646,-0.0159 -1.67929,-1.40592 -1.6398,-4.29791c0.04094,-2.99822 0.47858,-4.26898 1.75653,-4.25154z" fill="#000000" stroke="none" stroke-width="0" stroke-linecap="butt"/><path d="M250.28842,182.84372c-0.01141,0.83572 -0.11625,1.27687 -0.76514,1.26801c-0.61243,-0.00836 -0.7244,-0.37957 -0.73047,-1.2702c-0.00668,-0.98156 0.35126,-1.20526 0.7642,-1.19962c0.41293,0.00564 0.74481,0.22033 0.73141,1.20181z" fill="#ffffff" stroke="none" stroke-width="0" stroke-linecap="butt"/><path d="M212.75032,168.44509c-0.01977,-2.978 0.68311,-4.60559 0.68311,-4.60559c0,0 21.46547,-7.96819 34.16282,-8.18672c8.87078,-0.15267 21.37049,7.95615 21.37049,7.95615c0,0 0.39929,0.94572 0.24989,3.88812c-0.1494,2.9424 -0.45827,3.72165 -0.45827,3.72165c0,0 -13.70703,-6.93387 -21.32743,-6.80037c-14.04432,0.24603 -34.30857,8.30313 -34.30857,8.30313c0,0 -0.35555,-1.79343 -0.37203,-4.27638z" fill="#f3c640" stroke="none" stroke-width="0" stroke-linecap="butt"/><g stroke="none" stroke-width="0" stroke-linecap="butt"><path d="M260.04526,160.32662c-0.38028,7.75226 -6.53371,11.79138 -11.68575,11.72104c-4.99643,-0.06823 -12.37048,-6.77873 -12.37048,-6.77873c0,0 -1.2143,-1.01685 -1.3979,-4.09892c-0.17306,-2.90504 1.19688,-4.43593 1.19688,-4.43593c0,0 7.7502,-8.97933 12.90225,-8.90898c5.15204,0.07035 11.75794,4.28739 11.35501,12.50155z" data-paper-data="{&quot;origPos&quot;:null}" fill="#92999e"/><path d="M258.40222,160.07123c-0.07728,5.65982 -3.82512,10.19769 -8.37104,10.13562c-4.54591,-0.06207 -8.16846,-4.70059 -8.09118,-10.3604c0.07728,-5.65982 3.82513,-10.19769 8.37104,-10.13563c4.54591,0.06207 8.16846,4.70059 8.09119,10.3604z" data-paper-data="{&quot;origPos&quot;:null}" fill="#e6c985"/><path d="M256.76597,159.98973c-0.05284,3.86999 -2.56196,6.97358 -5.60427,6.93202c-3.04231,-0.04154 -5.46576,-3.21247 -5.41291,-7.08246c0.05284,-3.86999 2.56197,-6.97357 5.60427,-6.93202c3.04231,0.04154 5.46576,3.21247 5.41292,7.08246z" fill="#fff9c5"/></g><g data-paper-data="{&quot;index&quot;:null}" stroke="none" stroke-width="0" stroke-linecap="butt"><path d="M226.44327,224.77803c0.02623,-1.92058 3.46826,-2.91553 7.51053,-2.86034c4.04226,0.0552 7.54691,1.66211 7.42259,3.57953c-0.1912,2.94891 -2.57579,3.46758 -7.42632,3.46928c-6.09249,-0.09688 -7.54532,-1.3663 -7.50679,-4.18847z" data-paper-data="{&quot;origPos&quot;:null}" fill="#f3c08d"/><path d="M235.68082,217.39621c4.43034,0.15301 6.54501,2.51921 6.5047,5.47122c-0.0302,2.21208 0.59905,4.48537 -8.11917,4.36633c-8.33182,-0.11377 -8.52766,-2.25232 -8.49745,-4.4644c0.04662,-3.41448 5.68159,-5.52616 10.11193,-5.37316z" data-paper-data="{&quot;origPos&quot;:null}" fill="#ff1919"/></g><path d="M230.64358,215.31507c0,0 -0.54112,-0.6142 -0.76272,-1.4781c-0.21689,-0.84555 -0.27525,-1.61762 -0.27525,-1.61762c0,0 8.07242,0.99832 14.92015,1.09182c3.92645,0.05361 11.87544,-0.72594 11.87544,-0.72594c0,0 0.001,0.44345 -0.20623,1.49352c-0.21362,1.08245 -0.72376,1.57535 -0.72376,1.57535c0,0 -5.42665,0.77894 -10.9305,0.62784c-6.42263,-0.17632 -13.89712,-0.96684 -13.89712,-0.96684z" fill="#ba782e" stroke="none" stroke-width="0" stroke-linecap="butt"/><path d="M240.67679,216.60649c0,0 -0.37799,-0.55123 -0.39961,-1.83531c-0.01987,-1.18035 0.50694,-1.9604 0.50694,-1.9604c0,0 1.32995,-0.23661 3.95393,-0.27905c2.8169,-0.04555 3.64477,0.32729 3.64477,0.32729c0,0 0.29504,0.96988 0.30691,1.91295c0.01891,1.50148 -0.35724,1.77252 -0.35724,1.77252c0,0 -1.20994,0.44279 -3.54439,0.45115c-2.62191,0.0094 -4.11132,-0.38917 -4.11132,-0.38917z" fill="#f8c537" stroke="none" stroke-width="0" stroke-linecap="butt"/><path d="M235.72709,216.1441c0,0 -0.35764,-0.60725 -0.30873,-1.78039c0.04745,-1.13787 0.35798,-1.8268 0.35798,-1.8268" fill="none" stroke="#d6d496" stroke-width="1.5" stroke-linecap="round"/><path d="M253.39369,212.616c0,0 0.29161,0.69715 0.30797,1.8359c0.01686,1.17405 -0.35721,1.7713 -0.35721,1.7713" data-paper-data="{&quot;index&quot;:null}" fill="none" stroke="#d6d496" stroke-width="1.5" stroke-linecap="round"/><path d="M226.86936,209.30373c0,0 -3.52135,2.47675 -5.28887,-0.05932c-3.675,-5.27292 3.4979,-3.92844 5.9708,-5.44745c2.60653,-1.60109 5.83616,-5.63532 7.43954,-5.77275c4.40418,-0.37753 -3.00975,11.70091 -5.53751,13.42367c-3.27986,2.23533 -2.58395,-2.14414 -2.58395,-2.14414z" data-paper-data="{&quot;origRot&quot;:0}" fill="#ffdebd" stroke="none" stroke-width="0" stroke-linecap="butt"/></g></g></svg>