<svg version="1.1" xmlns="http://www.w3.org/2000/svg" xmlns:xlink="http://www.w3.org/1999/xlink" width="102.90134" height="191.81268" viewBox="0,0,102.90134,191.81268"><defs><linearGradient x1="237.5509" y1="123.41011" x2="239.4464" y2="135.24051" gradientUnits="userSpaceOnUse" id="color-1"><stop offset="0" stop-color="#38291e"/><stop offset="1" stop-color="#381e32"/></linearGradient><linearGradient x1="254.09982" y1="117.71746" x2="255.76801" y2="128.1292" gradientUnits="userSpaceOnUse" id="color-2"><stop offset="0" stop-color="#38291e"/><stop offset="1" stop-color="#381e32"/></linearGradient></defs><g transform="translate(-190.29686,-76.16139)"><g data-paper-data="{&quot;isPaintingLayer&quot;:true}" fill-rule="nonzero" stroke-linejoin="miter" stroke-miterlimit="10" stroke-dasharray="" stroke-dashoffset="0" style="mix-blend-mode: normal"><g data-paper-data="{&quot;origRot&quot;:0}" stroke="none" stroke-width="0" stroke-linecap="butt"><g data-paper-data="{&quot;origPos&quot;:null,&quot;index&quot;:null,&quot;origRot&quot;:0}"><path d="M265.71278,145.00593c-5.31527,-0.06976 -10.15254,-9.48738 -10.0248,-19.22057c0.12777,-9.73318 1.70275,-18.96617 1.70275,-18.96617l15.95313,0.02635c0,0 1.66289,15.24486 1.56013,23.07336c-0.12777,9.73318 -3.87594,15.15679 -9.19121,15.08704z" data-paper-data="{&quot;origRot&quot;:0,&quot;origPos&quot;:null}" fill="#41c3ff"/><g data-paper-data="{&quot;origPos&quot;:null}" fill="#ffffff"><path d="M266.23147,101.82828c-9.38383,0.30711 -21.01105,0.16642 -20.75624,-9.72703c0.18485,-7.17731 9.76677,-17.52513 18.98344,-15.73531c10.05748,1.95311 19.33724,2.08422 18.00634,13.11827c-1.24271,10.30286 -6.84972,12.03693 -16.23354,12.34407z" data-paper-data="{&quot;origRot&quot;:0,&quot;origPos&quot;:null}"/><path d="M265.20991,109.68567c-7.24516,0.22759 -15.46708,1.90035 -15.19835,-3.67173c0.30063,-6.23345 2.19783,-5.92138 14.04669,-6.00075c13.49806,-0.09041 15.54462,-2.56163 15.54752,4.2866c0.0017,3.9989 -7.1507,5.15828 -14.39586,5.38588z" data-paper-data="{&quot;origRot&quot;:0,&quot;origPos&quot;:null}"/></g></g></g><g data-paper-data="{&quot;origRot&quot;:0}" stroke="none" stroke-width="0" stroke-linecap="butt"><path d="M283.90182,228.07535c0.1964,4.56506 5.33561,6.4131 5.16301,7.43615c-0.69826,4.13928 -2.70247,7.03819 -9.5993,8.90913c-8.54326,2.31759 -15.22588,1.67289 -22.80638,-2.8982c-5.16298,-3.1133 -0.56135,-5.69688 1.48188,-11.36912c0.73318,-2.03535 1.28988,-4.70217 1.85342,-10.1093c0.70458,-6.76033 5.81114,-25.02981 5.81114,-25.02981c0,0 13.08299,2.805 17.13054,10.19973c4.04756,7.39473 0.51164,12.30872 0.96564,22.86142z" data-paper-data="{&quot;origPos&quot;:null}" fill="#5063f7"/><path d="M290.80618,250.35506c-0.04579,3.89823 -4.03414,5.6883 -7.80481,6.67833c-2.47111,0.6488 -14.41325,0.15888 -20.30055,-3.38289c-1.82774,-1.09957 -3.29364,-3.56422 -3.29364,-3.56422c0,0 -5.04531,0.70032 -5.01374,-0.75615c0.02505,-1.15617 0.01908,-3.12552 1.14657,-3.71246c4.85323,-2.52645 16.27708,-2.38611 21.74815,-2.32184c7.51056,0.0882 13.56278,3.24875 13.51803,7.05924z" data-paper-data="{&quot;origPos&quot;:null}" fill="#f8dca0"/><path d="M292.74804,245.48043c-1.42002,4.54686 -6.02512,7.75479 -14.51591,7.65506c-8.4908,-0.09973 -17.51594,-5.13107 -17.51594,-5.13107c0,0 -6.15081,0.25142 -6.25665,-1.32715c-0.21906,-3.26722 -0.21529,-8.59394 1.02225,-8.75358c4.56859,-0.58931 3.70011,0.01809 9.67931,-1.18705c3.87123,-0.78027 10.36586,-4.38435 14.31467,-4.33798c8.4908,0.09973 15.61037,5.59526 13.27229,13.08178z" data-paper-data="{&quot;origPos&quot;:null}" fill="#ab7644"/></g><g data-paper-data="{&quot;origPos&quot;:null}"><path d="M270.3065,191.21655c2.77379,20.99471 -3.88969,31.04858 -24.7187,33.19512c-21.82206,2.24888 -24.49263,-10.09372 -25.63712,-20.1911c-1.24158,-10.95398 -3.18365,-19.81739 4.47485,-27.74699c5.70581,-5.90779 12.81778,-4.25418 20.97881,-5.17919c15.0912,-1.71052 22.18322,-0.65734 24.90215,19.92217z" data-paper-data="{&quot;origPos&quot;:null}" fill="#5063f7" stroke="none" stroke-width="0" stroke-linecap="butt"/><path d="M270.48733,190.59221c0,0 -16.90889,3.92935 -28.94265,5.69588c-11.03785,1.62033 -22.64041,-0.85559 -22.64041,-0.85559c0,0 -2.53393,-13.59677 4.7823,-19.82475c4.7868,-4.07478 10.48515,-5.87742 17.95184,-6.90573c7.46669,-1.02831 15.86973,0.35406 19.98487,2.98033c9.7204,6.20358 8.86404,18.90986 8.86404,18.90986z" data-paper-data="{&quot;origPos&quot;:null}" fill="#41c3ff" stroke="none" stroke-width="0" stroke-linecap="butt"/><path d="M254.3062,171.18241c0,0 2.89705,6.55571 3.78929,10.59383c1.146,5.18665 1.13656,15.17702 1.13656,15.17702" data-paper-data="{&quot;origPos&quot;:null,&quot;origRot&quot;:0}" fill="none" stroke="#5063f7" stroke-width="10" stroke-linecap="round"/><path d="M232.99251,174.11017c0,0 2.027,6.8747 2.39077,10.99418c0.46723,5.29115 -0.83111,15.1968 -0.83111,15.1968" data-paper-data="{&quot;origPos&quot;:null}" fill="none" stroke="#5063f7" stroke-width="10" stroke-linecap="round"/><path d="M232.75676,204.14179l0.0064,-4.19273l-3.02194,-2.31198l3.90809,-0.29779l1.18294,-3.73874l1.90301,3.45952l4.51014,-0.34411l-3.29935,2.97225l0.91366,3.96734l-3.36578,-2.25042z" data-paper-data="{&quot;origPos&quot;:null,&quot;origRot&quot;:0}" fill="#ffe008" stroke="none" stroke-width="NaN" stroke-linecap="butt"/><path d="M257.9609,201.04157l-0.57028,-4.15376l-3.31118,-1.8744l3.82999,-0.83244l0.65752,-3.86591l2.36072,3.16493l4.41995,-0.96112l-2.85922,3.39776l1.45061,3.80398l-3.64329,-1.76614z" data-paper-data="{&quot;origPos&quot;:null,&quot;origRot&quot;:0}" fill="#ffe008" stroke="none" stroke-width="NaN" stroke-linecap="butt"/></g><g stroke="none" stroke-width="0" stroke-linecap="butt"><path d="M252.14548,236.00604c1.96535,4.12502 7.41803,3.81698 7.65911,4.82609c0.97542,4.08286 0.26394,7.53457 -5.35268,11.95273c-6.95745,5.47289 -13.36031,7.49186 -22.1245,6.24789c-5.96917,-0.84726 -2.74372,-5.02411 -3.08046,-11.04371c-0.12083,-2.16 -0.65093,-4.83222 -2.24598,-10.02938c-1.99424,-6.4978 -4.43593,-25.30975 -4.43593,-25.30975c0,0 6.75882,-2.84374 11.74573,-3.89749c3.9356,-0.8316 11.4972,-0.00855 11.4972,-0.00855c0,0 1.79439,17.72671 6.33752,27.26218z" data-paper-data="{&quot;origPos&quot;:null}" fill="#5063f7"/><path d="M267.20999,253.81382c1.48176,3.60593 -1.48943,6.81268 -4.57304,9.19796c-2.02085,1.56318 -13.20421,5.78067 -20.00757,4.82219c-2.11214,-0.29757 -4.42487,-1.99303 -4.42487,-1.99303c0,0 -4.37006,2.6169 -4.91037,1.26399c-0.4289,-1.07396 -1.20427,-2.88427 -0.39594,-3.86526c3.4794,-4.22263 14.04905,-8.55927 19.10987,-10.63887c6.94738,-2.85483 13.75351,-2.31174 15.20192,1.21304z" data-paper-data="{&quot;origPos&quot;:null}" fill="#f8dca0"/><path d="M267.09174,248.56797c0.47045,4.74016 -2.51416,9.49302 -10.36829,12.72045c-7.85412,3.22744 -18.12794,2.12458 -18.12794,2.12458c0,0 -5.56307,2.63587 -6.27758,1.22429c-1.47885,-2.92159 -3.55769,-7.82591 -2.48105,-8.45662c3.97468,-2.32837 3.41275,-1.42979 8.44503,-4.87642c3.25815,-2.23152 7.82705,-8.08769 11.47977,-9.58867c7.85412,-3.22744 16.55547,-0.95238 17.33006,6.85239z" data-paper-data="{&quot;origPos&quot;:null}" fill="#ab7644"/></g><g stroke="none" stroke-linecap="butt"><g data-paper-data="{&quot;origPos&quot;:null}" stroke-width="0"><path d="M225.70455,190.13668c-1.20296,7.73621 -5.38247,22.49096 -5.38247,22.49096l-15.73456,-2.6319c0,0 -0.01472,-9.36635 1.48093,-18.98477c1.49564,-9.61844 13.45805,-17.1638 18.71066,-16.34702c5.25261,0.81677 2.42109,5.85432 0.92544,15.47275z" data-paper-data="{&quot;origRot&quot;:0,&quot;origPos&quot;:null}" fill="#41c3ff"/><g data-paper-data="{&quot;origPos&quot;:null}" fill="#ffffff"><path d="M226.42323,231.26594c-0.52604,11.10156 -9.69794,9.68477 -19.94025,9.93496c-9.38604,0.22928 -17.11003,-11.57033 -16.09652,-18.67813c1.39705,-9.79762 12.88522,-7.99919 22.08672,-6.13296c9.2015,1.86623 14.44124,4.51024 13.95005,14.87614z" data-paper-data="{&quot;origRot&quot;:0,&quot;origPos&quot;:null}"/><path d="M226.07233,216.18106c-1.14382,6.75205 -2.75007,3.97439 -16.0444,1.63639c-11.67002,-2.05235 -13.5927,-2.06073 -12.85061,-8.25714c0.66336,-5.53897 8.49168,-2.51977 15.59766,-1.08828c7.10598,1.43148 13.96526,3.76632 13.29734,7.70903z" data-paper-data="{&quot;origRot&quot;:0,&quot;origPos&quot;:null}"/></g></g><path d="M199.46915,234.75891l2.88373,-8.16315l-4.3035,-6.57326l7.81697,2.09625l4.86478,-6.47306l1.33796,8.04247l9.02152,2.4183l-8.46268,3.53054l-0.93708,8.35416l-5.01547,-6.68883z" data-paper-data="{&quot;origPos&quot;:null,&quot;origRot&quot;:0}" fill="#ffe008" stroke-width="NaN"/></g><g><path d="M280.8612,121.79677c0.03934,3.83537 -10.37969,10.37274 -19.1775,11.78235c-7.08928,1.13587 -6.40066,-5.81553 -6.97732,-9.41472c-0.57666,-3.59917 13.44223,-5.0401 20.5315,-6.17596c7.08929,-1.13587 5.59785,1.32573 5.62332,3.80834z" data-paper-data="{&quot;origPos&quot;:null}" fill="#3595c5" stroke="none" stroke-width="0" stroke-linecap="butt"/><path d="M213.19756,174.54741c-2.07574,-1.05287 -2.88807,-3.22065 -1.85265,-6.16007c1.20136,-3.41046 -0.23254,-8.28574 1.84319,-7.23287c0,0 7.30347,-0.13547 8.31246,2.6335c0,0 4.33432,7.76864 3.3114,9.28622c0,0 -1.55023,1.58705 -6.17183,2.10523c-2.50405,0.28076 -3.36684,0.42088 -5.44256,-0.632z" data-paper-data="{&quot;origRot&quot;:0,&quot;origPos&quot;:null}" fill="#e7be7a" stroke="none" stroke-width="0" stroke-linecap="butt"/><path d="M213.66738,134.87519c4.41895,0.31193 36.43096,-8.03294 42.20273,-8.63158c8.53923,-0.88567 7.42337,7.12898 9.37565,15.4891c2.24471,9.61235 9.73475,12.95344 7.79241,22.6314c-0.74888,3.73139 -4.5229,6.98558 -7.10218,9.78404c-1.46321,1.58755 -3.12319,5.86862 -13.74045,7.79447c-19.27462,-0.72954 -25.25844,-4.78858 -29.02513,-8.20888c-3.84572,-3.22408 -2.68905,-4.66558 -6.58479,-8.90971c-1.1942,-1.30098 -2.45816,-1.89454 -2.65023,-1.86375c-10.23982,1.64066 -17.22429,-5.91603 -18.50579,-13.9142c-1.28148,-7.99817 1.33406,-15.06748 7.06002,-15.9849c5.72596,-0.91742 9.64124,1.70554 11.17775,1.81399z" data-paper-data="{&quot;origPos&quot;:null}" fill="#ffdebd" stroke="none" stroke-width="0" stroke-linecap="butt"/><path d="M262.06759,132.3932c1.12134,4.77154 -0.36674,9.20298 -3.32376,9.8979c-2.95701,0.69492 -6.26317,-2.60983 -7.38451,-7.38134c-1.12134,-4.77154 0.36672,-9.20297 3.32375,-9.8979c2.95701,-0.69493 6.26318,2.60983 7.38452,7.38135z" data-paper-data="{&quot;origPos&quot;:null,&quot;origRot&quot;:0}" fill="#ffffff" stroke="none" stroke-width="0" stroke-linecap="butt"/><path d="M225.18399,140.95323c0.41267,2.57563 5.39529,9.28734 3.25935,10.78463c-2.48482,1.74185 -3.96338,-2.3362 -7.46318,-1.0831c-2.5998,0.93085 -5.15749,-4.01635 -5.85649,-8.37899c-0.69899,-4.36264 -1.39257,-8.58603 1.31612,-9.12311c11.40444,-2.26128 8.04521,3.43794 8.74421,7.80057z" data-paper-data="{&quot;origPos&quot;:null}" fill="#e7be7a" stroke="none" stroke-width="0" stroke-linecap="butt"/><path d="M250.00016,139.39522c1.33391,4.71653 0.04578,9.21017 -2.87714,10.03682c-2.92292,0.82665 -6.37378,-2.32671 -7.70769,-7.04323c-1.33391,-4.71653 -0.04578,-9.21017 2.87713,-10.03682c2.92292,-0.82665 6.37378,2.32671 7.7077,7.04323z" data-paper-data="{&quot;origPos&quot;:null,&quot;origRot&quot;:0}" fill="#ffffff" stroke="none" stroke-width="0" stroke-linecap="butt"/><path d="M242.95597,137.61362c0.94002,-0.15061 1.90111,0.39926 2.69574,1.40826c0.79365,1.00915 1.42099,2.4784 1.69168,4.16785c0.27069,1.68946 0.13377,3.28117 -0.30486,4.48775c-0.43962,1.20675 -1.1808,2.02936 -2.12082,2.17999c-0.94002,0.15061 -1.90111,-0.39925 -2.69574,-1.40825c-0.79365,-1.00915 -1.42099,-2.47841 -1.69168,-4.16786c-0.27069,-1.68946 -0.13377,-3.28117 0.30486,-4.48775c0.43962,-1.20675 1.1808,-2.02937 2.12082,-2.17999z" fill="#000000" stroke="#ffe008" stroke-width="2" stroke-linecap="butt"/><path d="M256.52358,131.835c0.94002,-0.15061 1.90111,0.39925 2.69575,1.40826c0.79364,1.00915 1.22467,2.74482 1.69167,4.16785c0.16724,0.51907 0.43937,1.26948 0.13665,1.80106c-0.38564,0.64615 -1.12992,1.04491 -1.80079,1.40256c-1.19905,0.45543 -2.54933,1.45868 -3.73823,1.00406c-1.04559,-0.41987 -1.21704,-1.97027 -1.41075,-3.11606c-0.2503,-1.48004 -0.13377,-3.28116 0.30486,-4.48775c0.43962,-1.20675 1.1808,-2.02936 2.12082,-2.17999z" fill="#000000" stroke="#ffe008" stroke-width="2" stroke-linecap="round"/><path d="M262.65726,97.34341c4.73062,14.37727 2.01281,15.67343 -5.15868,21.66785c-10.44946,8.73436 -25.78396,9.76203 -37.26712,17.08441c-3.01517,1.92265 -11.81967,-0.16431 -15.35065,0.40143c-7.22187,1.15711 -12.12378,-3.35141 -13.40724,-9.45136c-2.83098,-13.45507 3.83791,-14.57752 11.05979,-15.73464c0,0 8.15897,0.04391 11.57989,3.82068c0,0 8.17427,-19.76106 19.47341,-23.85095c14.54515,-5.26482 25.67337,-4.26221 29.07058,6.06257z" data-paper-data="{&quot;origPos&quot;:null}" fill="#41c3ff" stroke="none" stroke-width="0" stroke-linecap="butt"/><path d="M261.1485,106.21923c0.865,5.39876 0.07105,9.69197 -10.48014,11.70543c-11.13864,2.12555 -12.74759,-2.44646 -13.61259,-7.84522c-0.865,-5.39876 3.82711,-10.63945 10.48014,-11.70542c6.65302,-1.06596 12.74759,2.44646 13.61259,7.84522z" data-paper-data="{&quot;origPos&quot;:null}" fill="#ffffff" stroke="none" stroke-width="0" stroke-linecap="butt"/><path d="M280.92393,119.65993c-0.06166,0.8793 -37.81904,12.64237 -48.44836,15.56074c-5.16599,1.41836 -15.87218,2.70358 -15.81051,1.82427c0.22797,-3.25049 1.46518,-8.58489 6.23429,-11.02515c5.76321,-2.94891 25.78379,-11.60533 41.42997,-13.86747c6.39607,-0.92475 16.82256,4.25709 16.59462,7.50761z" data-paper-data="{&quot;origPos&quot;:null}" fill="#3595c5" stroke="none" stroke-width="0" stroke-linecap="butt"/><path d="M245.64988,115.02234l-0.36109,-3.44514l4.91519,-1.54202l-1.71283,-1.51773l-3.65186,0.12499l-2.44513,-2.6606l1.48507,-3.0924l7.60395,-2.47421l2.22827,2.9558l-7.14247,1.72347l4.32199,0.85709l3.42732,2.02204l0.69481,2.50836l-1.96014,1.98292z" data-paper-data="{&quot;origPos&quot;:null,&quot;origRot&quot;:0}" fill="#ffe008" stroke="none" stroke-width="0" stroke-linecap="butt"/><path d="M268.66757,170.01961c-3.14483,0.70858 -7.86183,0.52572 -15.46634,0.48942c-9.86001,-0.04706 -12.30559,-6.58218 -12.30559,-6.58218c0,0 -3.81096,-0.73871 -5.99508,-1.54602c-1.70962,-0.63193 -0.70628,-6.4691 0.11112,-6.76551c4.76062,-1.7263 6.91742,2.36789 11.01835,3.80076c0,0 13.28659,2.13239 19.12897,0.85188c0,0 8.80373,-5.97912 11.78502,-6.25649c1.47857,-0.13757 1.97938,2.92685 1.76594,4.54931c0,0 -0.61525,4.35238 -2.48085,6.14188c-1.86559,1.78949 -4.41669,4.60836 -7.56151,5.31695z" data-paper-data="{&quot;origPos&quot;:null}" fill="#e7be7a" stroke="none" stroke-width="0" stroke-linecap="butt"/><path d="M275.48783,148.11338c0.55331,6.61378 2.87325,10.80654 -11.36265,12.83426c-6.56119,0.93455 -13.50976,-2.1467 -14.43811,-7.94082c-0.92835,-5.79412 4.23799,-13.95649 10.68074,-15.51008c9.38752,-2.26366 14.23481,0.03559 15.12001,10.61664z" data-paper-data="{&quot;origPos&quot;:null}" fill="#ffdebd" stroke="none" stroke-width="0" stroke-linecap="butt"/><g data-paper-data="{&quot;origPos&quot;:null}" fill="none" stroke="#f6b09a" stroke-width="3.5" stroke-linecap="round"><path d="M201.04114,143.77977c0,0 2.65232,-2.17699 6.85969,0.1157c6.03407,3.28808 4.01584,10.87356 4.01584,10.87356" data-paper-data="{&quot;origPos&quot;:null}"/><path d="M204.78349,149.98011l5.92444,-0.94923" data-paper-data="{&quot;origPos&quot;:null}"/><path d="M209.82339,155.24913l1.26952,-0.2034" data-paper-data="{&quot;origPos&quot;:null}"/></g><path d="M238.80673,130.40581c-1.29354,0.62275 -1.19846,0.80437 -1.65681,2.16488c-0.47286,1.40355 -1.64501,3.30133 -1.64501,3.30133c0,0 -2.01379,-3.35067 -2.43974,-6.00915c-0.28921,-1.80508 0.18756,-5.10841 2.86868,-6.18517c9.36031,-1.82471 7.97832,7.48296 7.97832,7.48296c0,0 -3.7536,-1.44759 -5.10546,-0.75483z" data-paper-data="{&quot;origPos&quot;:null}" fill="url(#color-1)" stroke="none" stroke-width="0" stroke-linecap="butt"/><path d="M255.40621,124.90438c-1.4832,0.32793 -3.45262,3.83599 -3.45262,3.83599c0,0 -6.99788,-6.29066 1.37743,-10.85131c2.75219,-0.8794 5.2252,1.36193 6.15297,2.93709c1.36642,2.31988 1.95063,6.18525 1.95063,6.18525c0,0 -2.11288,-0.71509 -3.37187,-1.49512c-1.22039,-0.7561 -1.2629,-0.95663 -2.65653,-0.61194z" data-paper-data="{&quot;origPos&quot;:null,&quot;index&quot;:null,&quot;origRot&quot;:0}" fill="url(#color-2)" stroke="none" stroke-width="0" stroke-linecap="butt"/></g></g></g></svg>