<svg version="1.1" xmlns="http://www.w3.org/2000/svg" xmlns:xlink="http://www.w3.org/1999/xlink" width="130.16924" height="176.59715" viewBox="0,0,130.16924,176.59715"><g transform="translate(-193.89323,-97.79969)"><g data-paper-data="{&quot;isPaintingLayer&quot;:true}" fill-rule="nonzero" stroke-linejoin="miter" stroke-miterlimit="10" stroke-dasharray="" stroke-dashoffset="0" style="mix-blend-mode: normal"><g data-paper-data="{&quot;origRot&quot;:0,&quot;index&quot;:null}" stroke-width="0" stroke-linecap="butt"><g data-paper-data="{&quot;origPos&quot;:null}" stroke="none"><path d="M277.03064,210.62402c-10.48504,-0.41962 -16.41824,1.83609 -16.19187,-3.82032c0.22636,-5.6564 -3.06125,-19.35114 1.15501,-19.75644c3.52679,-0.33903 29.64283,-0.31284 32.57352,1.67822c2.27981,1.54889 0.10686,7.62741 -0.36652,19.45579c-0.22637,5.6564 -6.68514,2.86233 -17.17017,2.44272z" data-paper-data="{&quot;origRot&quot;:0,&quot;origPos&quot;:null}" fill="#ffdebd"/><path d="M276.33615,190.90681c-10.48503,-0.41961 -16.11375,0.76031 -15.88738,-4.89608c0.22638,-5.65639 2.94698,-11.84107 7.16325,-12.24637c2.84884,-1.22805 8.80511,-5.51281 11.7358,-3.52173c7.28522,1.10631 16.36135,10.13595 15.88793,21.96436c-0.50649,4.1828 -8.41454,-0.88054 -18.89957,-1.30016z" data-paper-data="{&quot;origRot&quot;:0,&quot;origPos&quot;:null}" fill="#fff70c"/></g><g data-paper-data="{&quot;origPos&quot;:null}"><path d="M296.35725,199.47457c-1.88473,8.72792 -0.19675,13.96983 -6.51409,20.28012c-3.44278,3.43894 -14.60995,1.57155 -19.36643,0.54442c-8.50249,-1.83606 -9.8356,-7.66943 -7.6498,-17.79145c2.18579,-10.12203 10.85033,-16.83912 19.35283,-15.00307c8.5025,1.83606 16.36327,1.84796 14.17748,11.96999z" data-paper-data="{&quot;origPos&quot;:null,&quot;origRot&quot;:0}" fill="#ffdebd" stroke="#ffdebd"/><g data-paper-data="{&quot;origPos&quot;:null,&quot;origRot&quot;:0}" fill="#ffffff" stroke="none"><path d="M311.78798,191.54515c14.84635,2.00747 12.45343,14.55598 11.58903,28.33945c-0.79214,12.63115 -12.4644,13.52987 -21.89051,11.33583c-12.99324,-3.02432 -9.67826,-12.55735 -6.09374,-24.69509c3.58451,-12.13774 2.53269,-16.85465 16.39523,-14.98018z" data-paper-data="{&quot;origRot&quot;:0,&quot;origPos&quot;:null}"/><path d="M284.79557,205.19209c2.7551,-9.37467 6.69437,-18.31218 11.91067,-16.95318c8.93311,2.32733 5.01482,4.15879 0.31711,21.73739c-4.12374,15.43086 -4.36033,18.01178 -12.59438,16.28903c-7.3604,-1.53996 -2.38852,-11.69856 0.3666,-21.07323z" data-paper-data="{&quot;origRot&quot;:0,&quot;origPos&quot;:null}"/></g></g></g><g data-paper-data="{&quot;origPos&quot;:null}"><path d="M236.13559,167.43518c15.20695,2.42347 40.86983,0.99626 51.26985,11.20507c13.95917,13.70256 11.0355,38.22467 8.23276,55.81152c-2.58357,16.21155 -26.47045,20.21787 -54.59081,15.73645c-28.12036,-4.48142 -51.82664,-16.59869 -45.71844,-50.26139c3.17619,-12.17998 12.68628,-36.97307 40.80663,-32.49165z" data-paper-data="{&quot;origPos&quot;:null,&quot;index&quot;:null}" fill="#a000b2" stroke="none" stroke-width="0" stroke-linecap="butt"/><path d="M242.43264,162.86931c15.20695,2.42347 36.03246,2.75689 46.43247,12.96571c7.04015,6.91073 11.10545,31.83385 11.10545,31.83385c0,0 -36.0411,-8.52902 -45.66725,-6.13255c-4.31604,1.07448 -17.37599,4.45269 -23.01904,5.07231c-2.95743,0.32473 -33.98606,-4.64194 -28.26348,-23.17681c3.17619,-12.17998 11.29149,-25.04392 39.41184,-20.5625z" data-paper-data="{&quot;origPos&quot;:null,&quot;index&quot;:null}" fill="#fff70c" stroke="none" stroke-width="0" stroke-linecap="butt"/><path d="M239.99772,203.96518l4.10567,-35.29367" data-paper-data="{&quot;origPos&quot;:null}" fill="none" stroke="#a000b2" stroke-width="17" stroke-linecap="round"/><path d="M246.91049,205.06683c-0.60843,3.81781 -4.19661,6.41954 -8.01443,5.81111c-3.81781,-0.60843 -6.41954,-4.19661 -5.81111,-8.01443c0.60843,-3.81781 4.19661,-6.41954 8.01443,-5.81111c3.81781,0.60843 6.41954,4.19661 5.81111,8.01443z" data-paper-data="{&quot;origPos&quot;:null}" fill="#f3f3f3" stroke="none" stroke-width="0" stroke-linecap="butt"/><path d="M281.46667,172.35032l5.96643,12.36535l5.85421,24.95452" data-paper-data="{&quot;origPos&quot;:null,&quot;origRot&quot;:0}" fill="none" stroke="#a000b2" stroke-width="14" stroke-linecap="round"/><path d="M302.01197,208.78502c-0.60843,3.81781 -4.19661,6.41954 -8.01443,5.81111c-3.81781,-0.60843 -6.41954,-4.19661 -5.81111,-8.01443c0.60843,-3.81781 4.19661,-6.41954 8.01443,-5.81111c3.81781,0.60843 6.41954,4.19661 5.81111,8.01443z" data-paper-data="{&quot;origPos&quot;:null}" fill="#f3f3f3" stroke="none" stroke-width="0" stroke-linecap="butt"/></g><g data-paper-data="{&quot;origPos&quot;:null}" stroke-width="0" stroke-linecap="round"><path d="M291.66668,253.00001c0.50591,0 2.9085,0.6686 4.04762,1.19048c1.33825,0.61311 2.81379,1.85438 3.44525,2.24213c0.21048,0.12925 1.70945,2.61263 2.84047,2.56739c1.13102,-0.04524 4.7723,-2.00458 8,-2.66667c3.2277,-0.66209 3.79045,-1.55513 5,0c1.20955,1.55513 0.52555,3.74544 -0.33333,6c-0.85888,2.25456 -2.15549,5.65328 -5,8c-2.84451,2.34672 -4.85044,2.71504 -8.33333,3c-3.4829,0.28496 -17.35623,1.33867 -28.33333,0c-10.9771,-1.33867 -10.63424,-3.53231 -11.46667,-5c-0.2509,-0.44238 -1.97311,-2.81438 -1.93333,-3.66667c0.09785,-2.09659 1.2115,-9.06125 5.33333,-10.53333c4.12184,-1.47208 15.66365,-1.13333 26.73333,-1.13333z" data-paper-data="{&quot;origPos&quot;:null}" fill="#007e45" stroke="#000000"/><path d="M264.66669,250.66669c-1.73867,-3.08219 -1.40324,-1.29665 -2.66667,-8.66667c-1.26343,-7.37002 -1.59823,-11.31712 -1.33333,-14.66667c0.29298,-3.70473 27.16772,-4.4801 33.33333,-1.66667c6.16561,2.81343 1.16259,14.48891 1,17.33333c-0.11699,2.04666 -0.92349,5.02641 -2,7c-1.07651,1.97359 -0.57436,2.03026 -4,4c-3.42563,1.96974 -5.16865,3.45491 -9.33333,3.66667c-4.16468,0.21176 -8.04692,-1.59968 -10.33333,-2.66667c-2.28641,-1.06699 -2.928,-1.25114 -4.66667,-4.33333z" data-paper-data="{&quot;origPos&quot;:null}" fill="#a000b2" stroke="#b100c6"/></g><g data-paper-data="{&quot;origPos&quot;:null}" stroke-width="0" stroke-linecap="round"><path d="M229.26669,253.40001c0.5059,0 2.9085,0.66859 4.04762,1.19047c1.33824,0.61311 2.81379,1.85439 3.44525,2.24214c0.21049,0.12925 1.70945,2.61263 2.84047,2.56739c1.13102,-0.04524 4.7723,-2.00458 8,-2.66666c3.2277,-0.66209 3.79046,-1.55513 5,0c1.20955,1.55513 0.52555,3.74545 -0.33333,6c-0.85888,2.25455 -2.15549,5.65328 -5,8c-2.84451,2.34672 -4.85044,2.71503 -8.33333,3c-3.48289,0.28496 -17.35623,1.33867 -28.33333,0c-10.9771,-1.33867 -10.63424,-3.53231 -11.46667,-5c-0.2509,-0.44238 -1.97311,-2.81439 -1.93333,-3.66667c0.09785,-2.09659 1.2115,-9.06125 5.33334,-10.53333c4.12183,-1.47208 15.66365,-1.13333 26.73333,-1.13333z" data-paper-data="{&quot;origPos&quot;:null}" fill="#007e45" stroke="#000000"/><path d="M202.26667,251.06667c-1.73867,-3.0822 -1.40323,-1.29665 -2.66666,-8.66667c-1.26343,-7.37002 -1.59824,-11.31711 -1.33334,-14.66666c0.29299,-3.70472 27.16773,-4.4801 33.33334,-1.66667c6.16561,2.81344 1.16258,14.48891 1,17.33334c-0.11698,2.04666 -0.9235,5.02641 -2,7c-1.0765,1.9736 -0.57436,2.03026 -4,4c-3.42563,1.96974 -5.16865,3.4549 -9.33333,3.66667c-4.16468,0.21176 -8.04693,-1.59968 -10.33333,-2.66667c-2.28641,-1.06699 -2.928,-1.25114 -4.66667,-4.33333z" data-paper-data="{&quot;origPos&quot;:null}" fill="#a000b2" stroke="#b100c6"/></g><g data-paper-data="{&quot;origRot&quot;:0}" stroke-linecap="butt"><g data-paper-data="{&quot;origPos&quot;:null}" stroke="none" stroke-width="0"><path d="M227.08127,204.65244c-0.69203,5.61847 -6.89842,2.30136 -17.31311,1.01859c-10.4147,-1.28277 -16.51372,0.47605 -15.82171,-5.14242c0.69201,-5.61847 -1.4552,-19.53767 2.78014,-19.59392c3.54274,-0.04707 29.56767,2.13248 32.3242,4.35843c2.14432,1.73161 -0.52241,7.61026 -1.96953,19.35932z" data-paper-data="{&quot;origRot&quot;:0,&quot;origPos&quot;:null}" fill="#ffdebd"/><path d="M229.4299,188.81785c-0.8497,4.12678 -8.31333,-1.57136 -18.72803,-2.85413c-10.4147,-1.28277 -16.1216,-0.57099 -15.42958,-6.18946c0.69201,-5.61847 3.91333,-11.55774 8.14866,-11.614c2.94039,-0.98898 9.2297,-4.768 11.98622,-2.54205c7.16918,1.70327 15.46983,11.45055 14.02272,23.19962z" data-paper-data="{&quot;origRot&quot;:0,&quot;origPos&quot;:null}" fill="#fff70c"/></g><g data-paper-data="{&quot;origPos&quot;:null}"><path d="M229.9483,196.15317c-2.59798,8.54279 -1.34797,13.90604 -8.16414,19.67395c-3.71462,3.14335 -14.68977,0.36151 -19.34536,-1.05435c-8.32217,-2.5309 -9.1697,-8.45432 -6.15672,-18.36166c3.01299,-9.90731 12.2019,-15.8871 20.52407,-13.3562c8.32217,2.5309 16.15516,3.19093 13.14218,13.09825z" data-paper-data="{&quot;origPos&quot;:null,&quot;origRot&quot;:0}" fill="#ffdebd" stroke="#ffdebd" stroke-width="0"/><g data-paper-data="{&quot;origPos&quot;:null,&quot;origRot&quot;:0}" fill="#ffffff" stroke="none" stroke-width="0"><path d="M245.98033,189.52312c14.63025,3.22483 11.21078,15.53328 9.21277,29.19855c-1.83097,12.52282 -13.53759,12.45601 -22.75067,9.49219c-12.69961,-4.08542 -8.60985,-13.31264 -4.0367,-25.11348c4.57315,-11.80083 3.91383,-16.58842 17.57461,-13.57726z" data-paper-data="{&quot;origRot&quot;:0,&quot;origPos&quot;:null}"/><path d="M231.22257,184.98454c8.71078,3.056 4.65483,4.55813 -1.47638,21.68952c-5.3821,15.03827 -5.83067,17.59091 -13.89463,15.19508c-7.20836,-2.14163 -1.41576,-11.85568 2.10298,-20.97126c3.51873,-9.11556 8.18156,-17.69783 13.26803,-15.91333z" data-paper-data="{&quot;origRot&quot;:0,&quot;origPos&quot;:null}"/></g><path d="M228.90593,221.75989c-1.83918,-0.78576 -1.05341,-2.62494 -1.05341,-2.62494l3.12065,-1.36081c1.7403,-0.18396 3.48062,-0.36788 5.2209,-0.55183c1.7403,-0.18396 3.48062,-0.36788 5.2209,-0.55183c0.3731,-0.03945 0.77061,0.22622 1.12164,0.09375c0.05402,-0.02038 0.10821,-0.05582 0.16214,-0.10008c-0.30833,-0.34398 -0.67376,-0.64078 -1.08004,-0.92022c-2.04063,-1.40359 -3.4337,-2.22936 -4.31501,-4.67233c-1.32136,-3.66272 2.22119,-4.25704 4.55185,-4.5034c0.87212,-0.05688 3.51703,0.51739 4.15758,0.27566c0.18028,-0.06803 0.35816,-0.29976 0.52298,-0.46998c-0.4852,-0.96232 -1.26618,-2.44051 -1.93621,-3.19873c-0.91945,-1.04046 -2.21901,-1.85916 -3.53661,-2.61093l-0.07991,0.12482l-2.6808,-1.71618c-0.2106,-0.13228 -0.39572,-0.30311 -0.54465,-0.50376c-0.37589,-0.46845 -0.71449,-1.24769 -0.09532,-2.23996c0.01062,-0.01721 0.0215,-0.03426 0.03263,-0.05112c0.64043,-0.9811 1.48902,-1.00318 2.07296,-0.85908c0.19415,0.03987 0.37908,0.10815 0.5497,0.20076l1.57257,0.82411l-0.06669,0.12726c3.32078,2.10865 6.24019,4.06014 8.12817,7.83918c1.08733,2.17646 1.06584,4.87544 -1.78378,5.90348c-2.09346,0.75522 -3.90852,-0.11284 -5.89214,0.33231c-0.33149,0.03504 -0.66298,0.07008 -0.99445,0.10512c0.15984,0.42355 0.56888,0.70854 0.90071,1.01653c0.89115,0.82709 5.44976,2.4567 5.00062,4.4993c-1.1712,5.32636 -6.28337,4.58026 -10.56837,5.03317c-1.7403,0.18396 -3.48062,0.3679 -5.22092,0.55184c0,0 -0.64849,0.79369 -2.48768,0.00791z" data-paper-data="{&quot;origPos&quot;:null}" fill="#0052ef" stroke="none" stroke-width="0.5"/></g></g><g><g data-paper-data="{&quot;origPos&quot;:null,&quot;origRot&quot;:0}"><path d="M281.33816,156.2225l-3.55481,4.61002l0.74244,28.69967l-42.12349,-6.04162l-3.23493,-2.18115l-1.45788,-5.17334l-0.4997,-28.29558l32.98698,4.10605z" data-paper-data="{&quot;origPos&quot;:null}" fill="#a10114" stroke="#a10114" stroke-width="0.5" stroke-linecap="round"/><path d="M230.42929,167.72309c0.05652,-5.0623 6.51919,-9.09445 14.43478,-9.00607c7.91558,0.08838 14.28662,4.26383 14.23009,9.32612c-0.05652,5.0623 -6.51919,9.09445 -14.43478,9.00607c-7.91558,-0.08838 -14.28663,-4.26383 -14.2301,-9.32612z" data-paper-data="{&quot;origPos&quot;:null,&quot;origRot&quot;:0}" fill="#f4c4f6" stroke="none" stroke-width="0" stroke-linecap="butt"/><g data-paper-data="{&quot;origPos&quot;:null}" stroke-linecap="round"><path d="M239.06965,182.43819l-2.02688,-11.15559l40.02088,4.83003l6.54913,1.29013l2.34606,2.99007l0.56758,3.23351l-0.80465,7.35733z" data-paper-data="{&quot;origPos&quot;:null}" fill="#ffffff" stroke="#000000" stroke-width="0"/><path d="M276.25545,176.59812l2.10757,10.83217" data-paper-data="{&quot;origPos&quot;:null}" fill="none" stroke="#a5b5ff" stroke-width="1.5"/><path d="M264.7962,175.40628l0.44734,9.83304" data-paper-data="{&quot;origPos&quot;:null,&quot;origRot&quot;:0}" fill="none" stroke="#a5b5ff" stroke-width="1.5"/><path d="M250.28615,183.22591l-0.44733,-9.83305" data-paper-data="{&quot;origPos&quot;:null,&quot;origRot&quot;:0}" fill="none" stroke="#a5b5ff" stroke-width="1.5"/></g><g data-paper-data="{&quot;origPos&quot;:null}"><path d="M232.54005,144.49337c3.17995,1.50429 2.689,6.22439 2.67538,6.51353c-0.0771,1.63689 4.95034,26.11485 5.38157,27.52913c-2.55435,-2.12322 0.91298,1.54446 1.09897,1.63715c1.36563,0.68063 3.36575,0.83958 4.85134,1.21017c5.70666,1.42353 27.04826,4.58814 29.40124,4.6108c1.89475,0.01825 8.42222,1.25803 9.65044,2.03875c4.55678,2.89647 1.64464,11.88495 -0.14204,15.66187c-2.09168,1.28852 -4.05669,2.80999 -6.27507,3.86557c-0.75249,0.35807 -1.61712,-0.40339 -2.42567,-0.60509c-2.62901,-0.65581 -4.81123,-1.40666 -7.05386,-3.00929c-0.57502,-0.41092 -0.918,-1.08259 -1.45426,-1.54295c-0.1608,-0.13804 -0.50356,-0.27831 -0.77791,-0.40826c-1.09591,0.27778 -2.15452,0.70215 -3.25867,0.94729c-3.8759,0.86052 -21.29221,-4.12943 -23.59065,-5.32859c-6.49375,-3.38798 -11.14141,-9.35019 -13.96138,-16.03794c-3.12356,-7.73049 -3.0837,-15.36888 -2.94784,-23.53976c0.04836,-2.90798 2.17051,-11.16067 2.17051,-11.16067c0,0 2.13809,-4.5198 6.65789,-2.3817z" data-paper-data="{&quot;origPos&quot;:null}" fill="#ffdebd" stroke="none" stroke-width="0.5" stroke-linecap="butt"/><path d="M271.89741,191.3142l0.72966,3.96103l-0.64542,2.58738l-0.72611,2.91081l-2.4246,1.45646" data-paper-data="{&quot;origPos&quot;:null}" fill="none" stroke="#f6b09a" stroke-width="1.5" stroke-linecap="round"/></g></g><g><path d="M308.05552,145.52618c-1.52607,3.52912 -14.8386,5.16775 -24.40106,2.78668c-7.70544,-1.91867 -4.16325,-7.99784 -3.28251,-11.53492c0.88074,-3.53708 15.78922,0.99453 23.49466,2.9132c7.70544,1.91867 5.17672,3.55067 4.18891,5.83504z" data-paper-data="{&quot;origPos&quot;:null}" fill="#b49416" stroke="none" stroke-width="0" stroke-linecap="butt"/><path d="M307.19496,142.71435l-1.93687,3.63985l-5.33381,2.10698l-12.28619,2.4369" data-paper-data="{&quot;origPos&quot;:null}" fill="none" stroke="#a5b5ff" stroke-width="4.5" stroke-linecap="round"/><path d="M217.43634,149.8775c2.75688,0.70761 3.95974,1.93071 5.85922,3.89684c3.42392,3.9128 6.0883,10.71102 3.84524,15.73267c-1.93636,4.33502 -8.26316,2.8874 -10.10017,-0.77801c-0.02242,-0.07184 0.13864,-2.28894 0.08343,-2.49258c-0.55576,-2.04981 -3.8029,-2.61705 -4.80998,-4.92861c-0.9202,-2.11221 1.34987,-7.24903 1.88609,-9.4025c0,0 2.19459,-2.55173 3.23617,-2.02779z" data-paper-data="{&quot;origPos&quot;:null}" fill="#8e4108" stroke="none" stroke-width="0.5" stroke-linecap="butt"/><path d="M224.05683,174.81136c0,0 -3.29263,-7.20769 -4.4093,-10.32512c-0.78867,-2.28499 -0.8751,-4.40903 -1.23656,-6.73321c-0.15606,-1.00354 -1.28203,-3.02262 -1.05916,-3.97954c0.05597,-0.24034 -0.88481,-0.92338 -1.66634,-1.43615c-1.54533,-1.01391 -3.13842,-2.14544 -4.56701,-3.31629c-2.65375,-2.17495 -4.57718,-5.28814 -5.95363,-8.39536c-2.16318,-4.91022 -4.01814,-10.18278 -3.85759,-15.55402c0.13019,-4.35545 2.01612,-7.31756 2.01612,-7.31756c0,0 12.2463,4.14751 12.64913,4.33304c1.89527,0.8729 8.15773,2.41841 12.07194,4.61473c1.89993,1.06608 3.62287,1.92389 4.95058,3.59583c0.50261,0.63291 1.252,2.78088 1.54939,2.84895c2.63283,0.60256 7.00737,-0.77728 9.67041,-1.14297c7.21347,-0.99056 42.12939,4.29953 46.07515,9.03141c0.56695,0.6799 0.4775,1.70523 0.68834,2.56502c0.7718,3.1474 0.92015,24.72821 0.50342,28.74003c-0.22067,2.12442 -2.27579,3.92038 -3.78657,4.98437c-0.68399,0.4817 -6.97321,-0.70341 -9.12751,-1.23984c-10.37561,-2.58355 -20.68788,-5.26537 -31.21295,-7.1764c-2.62305,-0.48155 -6.15614,-0.84924 -8.59556,-1.97081c-0.31488,-0.14477 -1.71727,0.75407 -1.55971,1.14204c0.76315,1.87911 0.76877,10.39414 0.76877,10.39414z" data-paper-data="{&quot;origPos&quot;:null}" fill="#ffdebd" stroke="none" stroke-width="0.5" stroke-linecap="butt"/><path d="M267.98791,152.13706c0,0 -0.83964,-0.73973 -7.05632,-2.28769c-6.21668,-1.54797 -12.38085,1.3436 -15.75987,-1.27097c-2.93779,-2.27317 -1.30975,-13.80476 0.63731,-13.31993c4.50557,1.1219 23.40031,5.50848 23.40031,5.50848l-1.22143,11.37013z" data-paper-data="{&quot;origPos&quot;:null}" fill="#ffffff" stroke="#f6b09a" stroke-width="0" stroke-linecap="butt"/><path d="M274.97614,146.53101c0,0 2.81695,-3.89814 5.6342,-4.57405c2.93365,-0.70382 7.33685,-0.33735 7.33685,-0.33735c0,0 4.21682,8.72481 0.56658,9.31284c-4.19846,0.67635 0.03202,1.55378 -6.18466,0.00581c-6.21667,-1.54797 -7.35297,-4.40725 -7.35297,-4.40725z" data-paper-data="{&quot;index&quot;:null,&quot;origPos&quot;:null}" fill="#ffffff" stroke="#f6b09a" stroke-width="0" stroke-linecap="butt"/><path d="M243.67618,149.66208c-1.74995,-0.01258 -1.73737,-1.76253 -1.73737,-1.76253l-0.40053,-0.80371c-1.3776,-4.23404 -0.50367,-7.35543 0.53814,-11.53939c0,0 0.42284,-1.69815 2.12099,-1.2753c1.69815,0.42284 1.2753,2.12099 1.2753,2.12099c-0.89338,3.58785 -1.75774,6.07145 -0.60617,9.61081l0.57216,1.91176c0,0 -0.01257,1.74995 -1.76253,1.73737z" data-paper-data="{&quot;origPos&quot;:null}" fill="#18c6ff" stroke="none" stroke-width="0.5" stroke-linecap="butt"/><path d="M232.48758,132.75004l-0.00619,-0.00194c0.64885,-4.83571 3.92348,-4.54268 7.58826,-3.4108c1.19618,0.36944 2.74047,0.56068 3.2843,1.87028c1.49162,3.59205 -0.97694,5.21103 -1.783,8.44819c-1.13569,3.71606 -4.11437,10.52872 -8.74839,6.12094c-0.00144,-0.00137 -0.18916,-2.44288 -0.19209,-2.4751c-0.30105,-3.31059 -0.51997,-6.52189 -0.30601,-9.85082c0,0 0.01429,-0.22246 0.11209,-0.50349l-0.01552,-0.00117c0,0 0.01939,-0.07786 0.06653,-0.19609z" data-paper-data="{&quot;origPos&quot;:null}" fill="#8e4108" stroke="none" stroke-width="0.5" stroke-linecap="butt"/><path d="M290.61804,152.14792c-1.71655,0.37416 -2.06778,-1.36991 -2.06778,-1.36991l0.31428,-1.61362c-0.13179,-1.83536 -0.73539,-3.15077 -1.55026,-4.8181c0,0 -0.77753,-1.5909 0.79262,-2.39761c1.57014,-0.80671 2.34766,0.78419 2.34766,0.78419c1.00967,2.0659 1.73687,3.79797 1.90489,6.13782l-0.37611,1.15901c0,0 0.35124,1.74406 -1.36531,2.11822z" data-paper-data="{&quot;origPos&quot;:null}" fill="#18c6ff" stroke="none" stroke-width="0.5" stroke-linecap="butt"/><path d="M299.44655,115.53196c-1.03903,15.14222 -4.34453,15.19496 -14.11803,17.69179c-14.24079,3.63808 -30.32441,-1.82114 -45.0445,0.0923c-3.8651,0.50241 -12.0065,-5.08387 -15.84436,-6.03951c-7.84954,-1.95456 -11.01562,-8.12978 -9.83559,-14.25224c2.60288,-13.50473 9.8734,-11.74924 17.72295,-9.79468c0,0 8.31631,3.44566 10.26842,8.33256c0,0 16.41973,-14.68675 29.63179,-13.71644c17.00764,1.24906 27.96548,6.81211 27.21933,17.68622z" data-paper-data="{&quot;origPos&quot;:null}" fill="#fff70c" stroke="none" stroke-width="0" stroke-linecap="butt"/><path d="M293.039,123.64212c-1.26773,5.09125 -8.07361,7.77973 -15.20135,6.00491c-7.12774,-1.77482 -11.87822,-7.34087 -10.61049,-12.43212c1.26773,-5.09125 8.07362,-7.77973 15.20135,-6.00491c7.12774,1.77483 11.87822,7.34087 10.61049,12.43212z" data-paper-data="{&quot;origPos&quot;:null}" fill="#ffffff" stroke="none" stroke-width="0" stroke-linecap="butt"/><path d="M267.53962,106.46594c0.55416,-2.15764 2.7118,-1.60348 2.7118,-1.60348l2.02571,3.20557c0.49671,1.88486 0.99341,3.76972 1.49012,5.65458c0.49671,1.88486 0.99342,3.76972 1.49012,5.65458c0.10649,0.40409 -0.11879,0.88664 0.08639,1.25069c0.03157,0.05601 0.07973,0.10971 0.13758,0.16159c0.32657,-0.3976 0.59155,-0.85009 0.83053,-1.34461c1.20028,-2.48386 1.87391,-4.15713 4.41444,-5.54038c3.80901,-2.07391 5.0622,1.7257 5.72741,4.24998c0.21004,0.95054 0.02494,3.95946 0.39936,4.6238c0.10538,0.18697 0.39057,0.34362 0.60581,0.4963c0.97743,-0.69685 2.4728,-1.80653 3.19427,-2.67237c0.99003,-1.18815 1.67169,-2.75727 2.27659,-4.33493l-0.15093,-0.06687l1.43621,-3.2415c0.11002,-0.25421 0.26681,-0.48691 0.46255,-0.68479c0.45219,-0.49303 1.25284,-0.99753 2.44993,-0.4836c0.02074,0.00878 0.04134,0.01788 0.06179,0.02728c1.1884,0.5392 1.35613,1.46972 1.29622,2.13696c-0.01107,0.22049 -0.05498,0.43563 -0.12809,0.63911l-0.64145,1.87061l-0.15136,-0.0519c-1.7601,4.01242 -3.41502,7.55636 -7.25633,10.27374c-2.21231,1.565 -5.18734,1.99761 -6.80086,-0.96585c-1.18535,-2.17707 -0.5365,-4.32209 -1.36192,-6.43064c-0.09461,-0.35903 -0.18922,-0.71804 -0.28383,-1.07707c-0.43929,0.24758 -0.68389,0.74607 -0.96687,1.16344c-0.75994,1.12091 -1.78339,6.41511 -4.10806,6.26594c-6.06193,-0.389 -6.10473,-6.14326 -7.32772,-10.78416c-0.49671,-1.88486 -0.99342,-3.76972 -1.49013,-5.65458c0,0 -0.98341,-0.57977 -0.42925,-2.73742z" data-paper-data="{&quot;origPos&quot;:null,&quot;origRot&quot;:0}" fill="#0052ef" stroke="none" stroke-width="0.5" stroke-linecap="butt"/><path d="M308.99219,143.59528c-0.42208,0.7796 -43.79427,-4.20641 -55.84372,-5.9701c-5.85619,-0.85718 -17.31721,-4.14871 -16.89514,-4.92831c1.56026,-2.88189 5.00247,-7.25111 10.87056,-7.4955c7.09127,-0.29533 31.077,0.13285 47.98308,4.59154c6.91112,1.82269 15.44549,10.92048 13.88522,13.80238z" data-paper-data="{&quot;origPos&quot;:null}" fill="#ffd412" stroke="none" stroke-width="0" stroke-linecap="butt"/><path d="M210.53247,128.08437l5.66371,4.84539c0,0 4.34127,2.00351 6.55226,4.03611c2.21098,2.03259 2.06531,2.51339 2.67206,4.44398c0.60675,1.93059 0.32063,2.04736 -0.56379,2.26419c-0.88442,0.21685 -4.12488,0.50916 -6.3873,-0.55992c-2.26242,-1.06907 -2.83315,-3.79707 -2.83315,-3.79707l0.51147,-6.33066" data-paper-data="{&quot;origPos&quot;:null}" fill="none" stroke="#f6b09a" stroke-width="3" stroke-linecap="round"/><path d="M240.04551,134.75353l31.97581,1.60709l35.4971,6.43429" data-paper-data="{&quot;origPos&quot;:null}" fill="none" stroke="#ffffff" stroke-width="4.5" stroke-linecap="round"/><path d="M289.79517,144.99436l0.54366,-2.18333l-5.45785,-0.84375l-3.33492,-0.0575l-3.7568,2.67142l-2.96958,1.57927l-6.55,-1.63097l-2.36649,-1.87743l-6.30934,-3.63211l-5.27663,-1.57153l-5.57866,-0.35856l-11.70194,0.43543l1.44588,-9.94532l8.42936,1.32603l5.88263,1.20715l4.67063,1.9359l5.94497,3.02611l3.52001,3.45283l3.76067,1.45168l4.0627,0.23872l2.91014,-0.3059l4.90838,-3.15757l5.09251,-0.79302l4.18448,0.78431l3.63985,1.93687l-0.3605,3.51711z" data-paper-data="{&quot;origPos&quot;:null}" fill="#000001" stroke="#ff0000" stroke-width="0" stroke-linecap="round"/><path d="M277.686,138.77247c-0.59465,3.59377 -3.29324,6.17822 -6.02745,5.77254c-2.73421,-0.40568 -4.46868,-3.6479 -3.87401,-7.24167c0.59466,-3.59377 2.16567,-1.64983 4.89988,-1.24414c2.73421,0.40568 5.59625,-0.8805 5.0016,2.71327z" data-paper-data="{&quot;origPos&quot;:null,&quot;origRot&quot;:0}" fill="#ffdebd" stroke="#f6b09a" stroke-width="2.5" stroke-linecap="butt"/><path d="M267.52592,135.92827l5.12595,0.38324l5.75701,0.88389" data-paper-data="{&quot;origPos&quot;:null}" fill="none" stroke="#ffffff" stroke-width="4.5" stroke-linecap="round"/><g data-paper-data="{&quot;origPos&quot;:null,&quot;index&quot;:null}" stroke-linecap="round"><path d="M285.90205,170.86766l2.51229,9.57703l-40.53929,-5.76303c0,0 -10.07752,-2.13421 -10.18021,-2.24313c-0.30807,-0.32676 -0.59275,-2.60503 -0.59275,-2.60503l-1.51643,-7.95746l2.93729,-0.20706z" data-paper-data="{&quot;origPos&quot;:null}" fill="#ffffff" stroke="#000000" stroke-width="0"/><path d="M248.6692,174.30188l-2.58001,-9.30514" data-paper-data="{&quot;origPos&quot;:null}" fill="none" stroke="#a5b5ff" stroke-width="1.5"/><path d="M260.26882,175.78936l-0.86465,-8.38632" data-paper-data="{&quot;origPos&quot;:null,&quot;origRot&quot;:0}" fill="none" stroke="#a5b5ff" stroke-width="1.5"/><path d="M274.56408,169.7341l0.86465,8.38633" data-paper-data="{&quot;origPos&quot;:null,&quot;origRot&quot;:0}" fill="none" stroke="#a5b5ff" stroke-width="1.5"/></g><path d="M301.21394,176.89527l-4.55338,6.69826l-3.10518,-0.7732l-0.39047,-2.57051l-1.21045,2.37799l-3.83315,-1.16057l-1.79886,-4.36395l-1.40375,3.15428l-2.57051,0.39047l-1.40762,-0.96882l-1.79964,-5.18857l-4.11923,4.12698l-2.47464,-0.8223l-1.89629,-4.80043l-4.36163,4.27272l-1.74667,-0.43492l-4.03187,-6.15662l-1.35852,-0.33827l-4.5557,4.2244l-1.84332,-0.04678l-5.87596,-7.02802l-6.54399,4.75985l-2.61961,-0.24008l-9.28349,-19.83071l2.37644,-0.4388l9.3693,7.89787l2.90646,-4.22285l2.32889,0.5799l10.43786,9.40058l5.18703,-3.44888l1.60092,0.19253l4.3717,6.44735l4.79888,-3.54553l2.42631,1.01637l1.60247,1.84177l0.53622,2.81291l3.00544,-2.13714l2.76536,0.48247l1.99294,4.41228l3.29693,-1.65234l2.66948,1.69524l1.11844,2.95789l2.81136,-2.18546l1.79731,2.71471l0.77707,1.01792z" data-paper-data="{&quot;origPos&quot;:null}" fill="#000001" stroke="#ff0000" stroke-width="0" stroke-linecap="round"/><path d="M270.46164,157.24772c0.66466,-1.59702 1.08415,-3.69847 1.89394,-4.88563c1.78886,-2.62253 5.33917,-3.16702 8.16721,-2.46283c9.48935,2.36287 23.35612,9.6676 20.45366,21.32394c-0.92661,3.41786 -2.32675,6.24849 -5.65753,7.93944c-1.63205,0.82855 -4.12808,0.25295 -5.85366,0.00207c-5.37145,-0.78091 -11.59307,-1.56112 -16.53733,-3.89746c-4.25076,-2.34014 -8.77585,-2.94746 -11.41688,-7.72484c-1.85646,-3.35815 -0.22079,-8.43832 2.43052,-10.76705c1.28138,-1.12548 4.55336,-0.08101 6.03764,0.28858c0,0 0.20572,0.05122 0.48244,0.18374z" data-paper-data="{&quot;origPos&quot;:null}" fill="#f991fd" stroke="none" stroke-width="0.5" stroke-linecap="butt"/></g><path d="M265.48954,145.95236c0,0 -1.26845,3.81899 -5.07526,3.00325c-2.99198,-0.64114 -3.39902,-4.81917 -3.39902,-4.81917c0,0 1.54782,2.03618 3.88793,2.53763c2.34011,0.50145 4.58636,-0.72171 4.58636,-0.72171z" fill="#000000" stroke="none" stroke-width="0" stroke-linecap="butt"/><path d="M281.28728,148.39126c2.06299,-0.05621 3.69623,-1.53846 3.69623,-1.53846c0,0 -1.00375,3.47795 -3.64142,3.54982c-3.356,0.09144 -3.82932,-3.34626 -3.82932,-3.34626c0,0 1.71152,1.39111 3.77451,1.3349z" data-paper-data="{&quot;index&quot;:null}" fill="#000000" stroke="none" stroke-width="0" stroke-linecap="butt"/></g></g></g></svg>