<svg version="1.1" xmlns="http://www.w3.org/2000/svg" xmlns:xlink="http://www.w3.org/1999/xlink" width="341.26716" height="215.55513" viewBox="0,0,341.26716,215.55513"><defs><linearGradient x1="299.48438" y1="136.06933" x2="299.48438" y2="157.80328" gradientUnits="userSpaceOnUse" id="color-1"><stop offset="0" stop-color="#d09362"/><stop offset="1" stop-color="#e49f67"/></linearGradient><linearGradient x1="299.48438" y1="136.06933" x2="299.48438" y2="157.80328" gradientUnits="userSpaceOnUse" id="color-2"><stop offset="0" stop-color="#d09362"/><stop offset="1" stop-color="#e49f67"/></linearGradient><linearGradient x1="349.90717" y1="136.06933" x2="349.90717" y2="157.80328" gradientUnits="userSpaceOnUse" id="color-3"><stop offset="0" stop-color="#d09362"/><stop offset="1" stop-color="#e49f67"/></linearGradient><linearGradient x1="400.56095" y1="136.06933" x2="400.56095" y2="157.80328" gradientUnits="userSpaceOnUse" id="color-4"><stop offset="0" stop-color="#d09362"/><stop offset="1" stop-color="#e49f67"/></linearGradient><linearGradient x1="450.98374" y1="136.06933" x2="450.98374" y2="157.80328" gradientUnits="userSpaceOnUse" id="color-5"><stop offset="0" stop-color="#d09362"/><stop offset="1" stop-color="#e49f67"/></linearGradient><linearGradient x1="450.98374" y1="136.06933" x2="450.98374" y2="157.80328" gradientUnits="userSpaceOnUse" id="color-6"><stop offset="0" stop-color="#d09362"/><stop offset="1" stop-color="#e49f67"/></linearGradient><linearGradient x1="323.82642" y1="159.7273" x2="323.82642" y2="181.46125" gradientUnits="userSpaceOnUse" id="color-7"><stop offset="0" stop-color="#d09362"/><stop offset="1" stop-color="#e49f67"/></linearGradient><linearGradient x1="299.48438" y1="184.06933" x2="299.48438" y2="205.80328" gradientUnits="userSpaceOnUse" id="color-8"><stop offset="0" stop-color="#d09362"/><stop offset="1" stop-color="#e49f67"/></linearGradient><linearGradient x1="349.90717" y1="184.06933" x2="349.90717" y2="205.80328" gradientUnits="userSpaceOnUse" id="color-9"><stop offset="0" stop-color="#d09362"/><stop offset="1" stop-color="#e49f67"/></linearGradient><linearGradient x1="272.96897" y1="207.97668" x2="272.96897" y2="229.71063" gradientUnits="userSpaceOnUse" id="color-10"><stop offset="0" stop-color="#d09362"/><stop offset="1" stop-color="#e49f67"/></linearGradient><linearGradient x1="272.96897" y1="207.97668" x2="272.96897" y2="229.71063" gradientUnits="userSpaceOnUse" id="color-11"><stop offset="0" stop-color="#d09362"/><stop offset="1" stop-color="#e49f67"/></linearGradient><linearGradient x1="323.39174" y1="207.97668" x2="323.39174" y2="229.71063" gradientUnits="userSpaceOnUse" id="color-12"><stop offset="0" stop-color="#d09362"/><stop offset="1" stop-color="#e49f67"/></linearGradient><linearGradient x1="299.04971" y1="232.31869" x2="299.04971" y2="254.05265" gradientUnits="userSpaceOnUse" id="color-13"><stop offset="0" stop-color="#d09362"/><stop offset="1" stop-color="#e49f67"/></linearGradient><linearGradient x1="349.47249" y1="232.31869" x2="349.47249" y2="254.05265" gradientUnits="userSpaceOnUse" id="color-14"><stop offset="0" stop-color="#d09362"/><stop offset="1" stop-color="#e49f67"/></linearGradient><linearGradient x1="272.53429" y1="256.22605" x2="272.53429" y2="277.96001" gradientUnits="userSpaceOnUse" id="color-15"><stop offset="0" stop-color="#d09362"/><stop offset="1" stop-color="#e49f67"/></linearGradient><linearGradient x1="272.53429" y1="256.22605" x2="272.53429" y2="277.96001" gradientUnits="userSpaceOnUse" id="color-16"><stop offset="0" stop-color="#d09362"/><stop offset="1" stop-color="#e49f67"/></linearGradient><linearGradient x1="322.95706" y1="256.22605" x2="322.95706" y2="277.96001" gradientUnits="userSpaceOnUse" id="color-17"><stop offset="0" stop-color="#d09362"/><stop offset="1" stop-color="#e49f67"/></linearGradient><linearGradient x1="298.61503" y1="280.56807" x2="298.61503" y2="302.30203" gradientUnits="userSpaceOnUse" id="color-18"><stop offset="0" stop-color="#d09362"/><stop offset="1" stop-color="#e49f67"/></linearGradient><linearGradient x1="349.03781" y1="280.56807" x2="349.03781" y2="302.30203" gradientUnits="userSpaceOnUse" id="color-19"><stop offset="0" stop-color="#d09362"/><stop offset="1" stop-color="#e49f67"/></linearGradient><linearGradient x1="272.53429" y1="304.47542" x2="272.53429" y2="320.98801" gradientUnits="userSpaceOnUse" id="color-20"><stop offset="0" stop-color="#d09362"/><stop offset="1" stop-color="#e49f67"/></linearGradient><linearGradient x1="272.53429" y1="304.47542" x2="272.53429" y2="320.98801" gradientUnits="userSpaceOnUse" id="color-21"><stop offset="0" stop-color="#d09362"/><stop offset="1" stop-color="#e49f67"/></linearGradient><linearGradient x1="322.95706" y1="304.47542" x2="322.95706" y2="320.98801" gradientUnits="userSpaceOnUse" id="color-22"><stop offset="0" stop-color="#d09362"/><stop offset="1" stop-color="#e49f67"/></linearGradient><linearGradient x1="374.4802" y1="159.7273" x2="374.4802" y2="181.46125" gradientUnits="userSpaceOnUse" id="color-23"><stop offset="0" stop-color="#d09362"/><stop offset="1" stop-color="#e49f67"/></linearGradient><linearGradient x1="424.90299" y1="159.7273" x2="424.90299" y2="181.46125" gradientUnits="userSpaceOnUse" id="color-24"><stop offset="0" stop-color="#d09362"/><stop offset="1" stop-color="#e49f67"/></linearGradient><linearGradient x1="400.56095" y1="184.06933" x2="400.56095" y2="205.80328" gradientUnits="userSpaceOnUse" id="color-25"><stop offset="0" stop-color="#d09362"/><stop offset="1" stop-color="#e49f67"/></linearGradient><linearGradient x1="450.98374" y1="184.06933" x2="450.98374" y2="205.80328" gradientUnits="userSpaceOnUse" id="color-26"><stop offset="0" stop-color="#d09362"/><stop offset="1" stop-color="#e49f67"/></linearGradient><linearGradient x1="374.04552" y1="207.97668" x2="374.04552" y2="229.71063" gradientUnits="userSpaceOnUse" id="color-27"><stop offset="0" stop-color="#d09362"/><stop offset="1" stop-color="#e49f67"/></linearGradient><linearGradient x1="424.46831" y1="207.97668" x2="424.46831" y2="229.71063" gradientUnits="userSpaceOnUse" id="color-28"><stop offset="0" stop-color="#d09362"/><stop offset="1" stop-color="#e49f67"/></linearGradient><linearGradient x1="474.89109" y1="207.97668" x2="474.89109" y2="229.71063" gradientUnits="userSpaceOnUse" id="color-29"><stop offset="0" stop-color="#d09362"/><stop offset="1" stop-color="#e49f67"/></linearGradient><linearGradient x1="474.89109" y1="207.97668" x2="474.89109" y2="229.71063" gradientUnits="userSpaceOnUse" id="color-30"><stop offset="0" stop-color="#d09362"/><stop offset="1" stop-color="#e49f67"/></linearGradient><linearGradient x1="400.12627" y1="232.31869" x2="400.12627" y2="254.05265" gradientUnits="userSpaceOnUse" id="color-31"><stop offset="0" stop-color="#d09362"/><stop offset="1" stop-color="#e49f67"/></linearGradient><linearGradient x1="450.54906" y1="232.31869" x2="450.54906" y2="254.05265" gradientUnits="userSpaceOnUse" id="color-32"><stop offset="0" stop-color="#d09362"/><stop offset="1" stop-color="#e49f67"/></linearGradient><linearGradient x1="373.61085" y1="256.22605" x2="373.61085" y2="277.96001" gradientUnits="userSpaceOnUse" id="color-33"><stop offset="0" stop-color="#d09362"/><stop offset="1" stop-color="#e49f67"/></linearGradient><linearGradient x1="424.03363" y1="256.22605" x2="424.03363" y2="277.96001" gradientUnits="userSpaceOnUse" id="color-34"><stop offset="0" stop-color="#d09362"/><stop offset="1" stop-color="#e49f67"/></linearGradient><linearGradient x1="474.45641" y1="256.22605" x2="474.45641" y2="277.96001" gradientUnits="userSpaceOnUse" id="color-35"><stop offset="0" stop-color="#d09362"/><stop offset="1" stop-color="#e49f67"/></linearGradient><linearGradient x1="474.45641" y1="256.22605" x2="474.45641" y2="277.96001" gradientUnits="userSpaceOnUse" id="color-36"><stop offset="0" stop-color="#d09362"/><stop offset="1" stop-color="#e49f67"/></linearGradient><linearGradient x1="399.69159" y1="280.56807" x2="399.69159" y2="302.30203" gradientUnits="userSpaceOnUse" id="color-37"><stop offset="0" stop-color="#d09362"/><stop offset="1" stop-color="#e49f67"/></linearGradient><linearGradient x1="450.11438" y1="280.56807" x2="450.11438" y2="302.30203" gradientUnits="userSpaceOnUse" id="color-38"><stop offset="0" stop-color="#d09362"/><stop offset="1" stop-color="#e49f67"/></linearGradient><linearGradient x1="373.61085" y1="304.47542" x2="373.61085" y2="320.98801" gradientUnits="userSpaceOnUse" id="color-39"><stop offset="0" stop-color="#d09362"/><stop offset="1" stop-color="#e49f67"/></linearGradient><linearGradient x1="424.03363" y1="304.47542" x2="424.03363" y2="320.98801" gradientUnits="userSpaceOnUse" id="color-40"><stop offset="0" stop-color="#d09362"/><stop offset="1" stop-color="#e49f67"/></linearGradient><linearGradient x1="474.45641" y1="304.47542" x2="474.45641" y2="320.98801" gradientUnits="userSpaceOnUse" id="color-41"><stop offset="0" stop-color="#d09362"/><stop offset="1" stop-color="#e49f67"/></linearGradient><linearGradient x1="474.45641" y1="304.47542" x2="474.45641" y2="320.98801" gradientUnits="userSpaceOnUse" id="color-42"><stop offset="0" stop-color="#d09362"/><stop offset="1" stop-color="#e49f67"/></linearGradient><linearGradient x1="320.93989" y1="171.14352" x2="320.93989" y2="209.97675" gradientUnits="userSpaceOnUse" id="color-43"><stop offset="0" stop-color="#9ea2a5"/><stop offset="1" stop-color="#272c2f"/></linearGradient><linearGradient x1="408.4497" y1="284.23933" x2="408.4497" y2="315.04236" gradientUnits="userSpaceOnUse" id="color-44"><stop offset="0" stop-color="#9ea2a5"/><stop offset="1" stop-color="#272c2f"/></linearGradient><linearGradient x1="300.4497" y1="284.23933" x2="300.4497" y2="315.04236" gradientUnits="userSpaceOnUse" id="color-45"><stop offset="0" stop-color="#9ea2a5"/><stop offset="1" stop-color="#272c2f"/></linearGradient><linearGradient x1="332.26504" y1="310.23726" x2="377.13436" y2="310.23726" gradientUnits="userSpaceOnUse" id="color-46"><stop offset="0" stop-color="#9ea2a5"/><stop offset="1" stop-color="#272c2f"/></linearGradient><linearGradient x1="286.03319" y1="329.68634" x2="286.03319" y2="336.68634" gradientUnits="userSpaceOnUse" id="color-47"><stop offset="0" stop-color="#262b2e"/><stop offset="1" stop-color="#556565"/></linearGradient><linearGradient x1="422.69985" y1="329.68634" x2="422.69985" y2="336.68634" gradientUnits="userSpaceOnUse" id="color-48"><stop offset="0" stop-color="#262b2e"/><stop offset="1" stop-color="#556565"/></linearGradient><linearGradient x1="303.53319" y1="235.18634" x2="315.19985" y2="235.18634" gradientUnits="userSpaceOnUse" id="color-49"><stop offset="0" stop-color="#262b2e"/><stop offset="1" stop-color="#556565"/></linearGradient><linearGradient x1="326.19985" y1="235.18634" x2="314.53319" y2="235.18634" gradientUnits="userSpaceOnUse" id="color-50"><stop offset="0" stop-color="#262b2e"/><stop offset="1" stop-color="#556565"/></linearGradient><linearGradient x1="329.32306" y1="196.31168" x2="318.74332" y2="191.39434" gradientUnits="userSpaceOnUse" id="color-51"><stop offset="0" stop-color="#262b2e"/><stop offset="1" stop-color="#556565"/></linearGradient><linearGradient x1="306.40997" y1="186.061" x2="316.98972" y2="190.97834" gradientUnits="userSpaceOnUse" id="color-52"><stop offset="0" stop-color="#262b2e"/><stop offset="1" stop-color="#556565"/></linearGradient><linearGradient x1="182.28496" y1="182.38061" x2="182.28496" y2="208.30546" gradientUnits="userSpaceOnUse" id="color-53"><stop offset="0" stop-color="#a9a9a9"/><stop offset="1" stop-color="#ffffff"/></linearGradient><linearGradient x1="216.09999" y1="182.38061" x2="216.09999" y2="208.30546" gradientUnits="userSpaceOnUse" id="color-54"><stop offset="0" stop-color="#a9a9a9"/><stop offset="1" stop-color="#ffffff"/></linearGradient><linearGradient x1="195.58554" y1="260.15517" x2="195.58554" y2="286.08002" gradientUnits="userSpaceOnUse" id="color-55"><stop offset="0" stop-color="#a9a9a9"/><stop offset="1" stop-color="#ffffff"/></linearGradient><linearGradient x1="229.40057" y1="260.15517" x2="229.40057" y2="286.08002" gradientUnits="userSpaceOnUse" id="color-56"><stop offset="0" stop-color="#a9a9a9"/><stop offset="1" stop-color="#ffffff"/></linearGradient></defs><g transform="translate(-149.75751,-128.45001)"><g data-paper-data="{&quot;isPaintingLayer&quot;:true}" fill-rule="nonzero" stroke-linejoin="miter" stroke-miterlimit="10" stroke-dasharray="" stroke-dashoffset="0" style="mix-blend-mode: normal"><g stroke-linecap="butt"><path d="M323.39174,157.80328h-23.76403c7.91174,-4.367 15.82515,-8.7308 23.76403,-13.04816z" fill="url(#color-1)" stroke="#a66746" stroke-width="5"/><path d="" fill="url(#color-2)" stroke="#a66746" stroke-width="5"/><path d="M373.81451,136.06933v21.73395h-47.81469v-14.46426c1.40966,-0.76415 2.8202,-1.52669 4.23176,-2.28737c3.07637,-1.65785 6.14495,-3.33954 9.23305,-4.98231z" fill="url(#color-3)" stroke="#a66746" stroke-width="5"/><path d="M376.6536,136.06933h14.13135c11.24327,2.96714 22.52098,5.8969 33.68335,9.11592v12.61804h-47.8147z" fill="url(#color-4)" stroke="#a66746" stroke-width="5"/><path d="M427.07639,157.80328v-11.85986c3.28514,0.96285 6.55923,1.95306 9.81845,2.97899c3.47235,2.82748 6.9447,5.65498 10.41706,8.48246c0.16294,0.13268 0.32577,0.26548 0.48852,0.3984z" fill="url(#color-5)" stroke="#a66746" stroke-width="5"/><path d="" fill="url(#color-6)" stroke="#a66746" stroke-width="5"/><g><g stroke="#a66746" stroke-width="5"><g fill="url(#color-7)"><path d="M299.91907,159.7273h47.8147v21.73396h-47.8147z"/></g><g><path d="M323.39174,184.06933v21.73395h-38.57132c-0.43396,-5.41127 -0.86932,-10.82244 -1.30342,-16.2337c0.32097,-1.83295 0.64288,-3.66571 0.95062,-5.50026z" fill="url(#color-8)"/><path d="M325.99982,184.06933h47.81469v21.73395h-47.81469z" fill="url(#color-9)"/></g></g><g stroke="#a66746" stroke-width="5"><g><path d="M296.87631,207.97668v21.73396h-10.01659c-0.1907,-1.9572 -0.44707,-3.91259 -0.60175,-5.87054c-0.41778,-5.28807 -0.83972,-10.57581 -1.26335,-15.86342z" fill="url(#color-10)"/><path d="" fill="url(#color-11)"/><path d="M299.48438,207.97668h47.8147v21.73396h-47.8147z" fill="url(#color-12)"/></g><g><path d="M322.95706,232.31869v21.73396h-37.31164c0.73784,-9.63649 1.4468,-18.96177 1.45458,-19.303c0.0185,-0.81116 0.00131,-1.62138 -0.03976,-2.43095z" fill="url(#color-13)"/><path d="M325.56514,232.31869h47.8147v21.73396h-47.8147z" fill="url(#color-14)"/></g></g><g stroke="#a66746" stroke-width="5"><g><path d="M296.44164,256.22605v21.73396h-12.712c0.10796,-0.84843 0.20597,-1.697 0.27305,-2.54593c0.04467,-0.56532 0.74998,-9.71206 1.47622,-19.18803z" fill="url(#color-15)"/><path d="" fill="url(#color-16)"/><path d="M299.04971,256.22605h47.81469v21.73396h-47.81469z" fill="url(#color-17)"/></g><g><path d="M322.52238,280.56807v21.73396h-37.31607c-0.92255,-5.27805 -1.75611,-10.56531 -2.11307,-15.90501c-0.13002,-1.94493 0.05255,-3.8871 0.29581,-5.82895z" fill="url(#color-18)"/><path d="M325.13046,280.56807h47.8147v21.73396h-47.8147z" fill="url(#color-19)"/></g></g><g><g stroke="#a66746" stroke-width="5"><path d="M296.44164,304.47542v16.51259h-6.83443l-1.92875,-4.0959c-0.59373,-4.15073 -1.35193,-8.2827 -2.08816,-12.41668z" fill="url(#color-20)"/><path d="" fill="url(#color-21)"/><path d="M299.04971,304.47542h47.81469v16.51259h-47.81469z" fill="url(#color-22)"/></g><g fill="none" stroke="none" stroke-width="1" font-family="sans-serif" font-weight="normal" font-size="12" text-anchor="start"/></g><g stroke="#a66746" stroke-width="5"><g><path d="M350.57285,159.7273h47.8147v21.73396h-47.8147z" fill="url(#color-23)"/><path d="M400.99564,159.7273h47.8147v21.73396h-47.8147z" fill="url(#color-24)"/></g><g><path d="M376.6536,184.06933h47.8147v21.73395h-47.8147z" fill="url(#color-25)"/><path d="M427.07639,184.06933h35.05116c-0.61911,7.25059 -1.43719,14.49447 -2.15773,21.73395h-32.89344z" fill="url(#color-26)"/></g></g><g stroke="#a66746" stroke-width="5"><g><path d="M350.13818,207.97668h47.8147v21.73396h-47.8147z" fill="url(#color-27)"/><path d="M400.56096,207.97668h47.81469v21.73396h-47.81469z" fill="url(#color-28)"/><path d="M450.98374,207.97668h8.77298c-0.22319,2.31442 -0.43336,4.62842 -0.62084,6.94206c-0.39931,4.92774 -0.82182,9.85867 -1.25293,14.7919h-6.89921z" fill="url(#color-29)"/><path d="" fill="url(#color-30)"/></g><g><path d="M376.21892,232.31869h47.81469v21.73396h-47.81469z" fill="url(#color-31)"/><path d="M426.64171,232.31869h31.01263c-0.63644,7.24092 -1.28583,14.48649 -1.90198,21.73396h-29.11064z" fill="url(#color-32)"/></g></g><g stroke="#a66746" stroke-width="5"><g><path d="M349.7035,256.22605h47.8147v21.73396h-47.8147z" fill="url(#color-33)"/><path d="M400.12628,256.22605h47.81469v21.73396h-47.81469z" fill="url(#color-34)"/><path d="M450.54906,256.22605h5.01957c-0.60872,7.24394 -1.17962,14.48951 -1.66658,21.73396h-3.35298z" fill="url(#color-35)"/><path d="" fill="url(#color-36)"/></g><g><path d="M375.78424,280.56807h47.81469v21.73396h-47.81469z" fill="url(#color-37)"/><path d="M426.20703,280.56807h27.5234c-0.22877,3.55524 -0.43601,7.11013 -0.61623,10.66435c-0.18694,3.68658 -0.33996,7.37692 -0.46443,11.06961h-26.44273z" fill="url(#color-38)"/></g></g><g><g stroke="#a66746" stroke-width="5"><path d="M349.7035,304.47542h47.8147v16.51259h-47.8147z" fill="url(#color-39)"/><path d="M400.12628,304.47542h47.81469v16.51259h-47.81469z" fill="url(#color-40)"/><path d="M450.54906,304.47542h2.03071c-0.16902,5.50112 -0.27706,11.00684 -0.34185,16.51259h-1.68885z" fill="url(#color-41)"/><path d="" fill="url(#color-42)"/></g><g fill="none" stroke="none" stroke-width="1" font-family="sans-serif" font-weight="normal" font-size="12" text-anchor="start"/></g></g><path d="M458.55001,190.70001c0,28.85688 1,143.25 1,143.25l-172.79805,-0.94168c0,0 1.79805,-130.24078 1.79805,-142.30832c0,-28.85688 38.05579,-52.25 85,-52.25c46.94421,0 85,23.39312 85,52.25z" fill="none" stroke="#b67e59" stroke-width="20"/></g><g stroke-linecap="butt"><path d="M302.4497,211.906v-42.86364h41.5086v42.86364z" fill="#5b6974" stroke="#1d2729" stroke-width="1.5"/><path d="M304.55086,209.97675v-38.83323h37.30629v38.83323z" fill="none" stroke="url(#color-43)" stroke-width="1.5"/><g fill="#1d2729" stroke="none" stroke-width="0.5"><path d="M307.10727,174.56268c0,-0.5222 0.42332,-0.94552 0.94552,-0.94552c0.5222,0 0.94552,0.42332 0.94552,0.94552c0,0.5222 -0.42332,0.94552 -0.94552,0.94552c-0.5222,0 -0.94552,-0.42332 -0.94552,-0.94552z"/><path d="M337.12954,174.56268c0,-0.5222 0.42332,-0.94552 0.94552,-0.94552c0.5222,0 0.94552,0.42332 0.94552,0.94552c0,0.5222 -0.42332,0.94552 -0.94552,0.94552c-0.5222,0 -0.94552,-0.42332 -0.94552,-0.94552z"/><path d="M307.10727,206.08006c0,-0.5222 0.42332,-0.94552 0.94552,-0.94552c0.5222,0 0.94552,0.42332 0.94552,0.94552c0,0.5222 -0.42332,0.94552 -0.94552,0.94552c-0.5222,0 -0.94552,-0.42332 -0.94552,-0.94552z"/><path d="M337.12954,206.08006c0,-0.5222 0.42332,-0.94552 0.94552,-0.94552c0.5222,0 0.94552,0.42332 0.94552,0.94552c0,0.5222 -0.42332,0.94552 -0.94552,0.94552c-0.5222,0 -0.94552,-0.42332 -0.94552,-0.94552z"/></g></g><path d="M276.4497,329.906v-52.66667h156v52.66667z" fill="#6b7577" stroke="none" stroke-width="0" stroke-linecap="butt"/><path d="M385.54978,301.9045c0,9.38884 0.25,22.25 0.25,22.25l-62.3813,-0.36711c0,0 0.1313,-15.17621 0.1313,-21.88289c0,-9.38884 13.87917,-17 31,-17c17.12083,0 31,7.61116 31,17z" fill="#54595c" stroke="none" stroke-width="0" stroke-linecap="butt"/><g stroke-linecap="butt"><path d="M393.78304,316.57266v-34h29.33333v34z" fill="#5b6974" stroke="#1d2729" stroke-width="1.5"/><path d="M395.4497,315.04236v-30.80303h26v30.80303z" fill="none" stroke="url(#color-44)" stroke-width="1.5"/><g fill="#1d2729" stroke="none" stroke-width="0.5"><path d="M397.47748,286.95144c0,-0.41422 0.33578,-0.75 0.75,-0.75c0.41422,0 0.75,0.33578 0.75,0.75c0,0.41422 -0.33578,0.75 -0.75,0.75c-0.41422,0 -0.75,-0.33578 -0.75,-0.75z"/><path d="M417.6997,286.95144c0,-0.41422 0.33578,-0.75 0.75,-0.75c0.41422,0 0.75,0.33578 0.75,0.75c0,0.41422 -0.33578,0.75 -0.75,0.75c-0.41422,0 -0.75,-0.33578 -0.75,-0.75z"/><path d="M397.47748,311.95144c0,-0.41422 0.33578,-0.75 0.75,-0.75c0.41422,0 0.75,0.33578 0.75,0.75c0,0.41422 -0.33578,0.75 -0.75,0.75c-0.41422,0 -0.75,-0.33578 -0.75,-0.75z"/><path d="M417.6997,311.95144c0,-0.41422 0.33578,-0.75 0.75,-0.75c0.41422,0 0.75,0.33578 0.75,0.75c0,0.41422 -0.33578,0.75 -0.75,0.75c-0.41422,0 -0.75,-0.33578 -0.75,-0.75z"/></g></g><g stroke-linecap="butt"><path d="M285.78304,316.57266v-34h29.33333v34z" fill="#5b6974" stroke="#1d2729" stroke-width="1.5"/><path d="M287.4497,315.04236v-30.80303h26v30.80303z" fill="none" stroke="url(#color-45)" stroke-width="1.5"/><g fill="#1d2729" stroke="none" stroke-width="0.5"><path d="M289.47748,286.95144c0,-0.41422 0.33578,-0.75 0.75,-0.75c0.41422,0 0.75,0.33578 0.75,0.75c0,0.41422 -0.33578,0.75 -0.75,0.75c-0.41422,0 -0.75,-0.33578 -0.75,-0.75z"/><path d="M309.6997,286.95144c0,-0.41422 0.33578,-0.75 0.75,-0.75c0.41422,0 0.75,0.33578 0.75,0.75c0,0.41422 -0.33578,0.75 -0.75,0.75c-0.41422,0 -0.75,-0.33578 -0.75,-0.75z"/><path d="M289.47748,311.95144c0,-0.41422 0.33578,-0.75 0.75,-0.75c0.41422,0 0.75,0.33578 0.75,0.75c0,0.41422 -0.33578,0.75 -0.75,0.75c-0.41422,0 -0.75,-0.33578 -0.75,-0.75z"/><path d="M309.6997,311.95144c0,-0.41422 0.33578,-0.75 0.75,-0.75c0.41422,0 0.75,0.33578 0.75,0.75c0,0.41422 -0.33578,0.75 -0.75,0.75c-0.41422,0 -0.75,-0.33578 -0.75,-0.75z"/></g></g><g stroke-linecap="butt"><path d="M330.78304,320.07266v-19.75h48.08333v19.75z" fill="#5b6974" stroke="#1d2729" stroke-width="1.5"/><path d="M332.26504,318.68374v-16.89294h44.86932v16.89294z" fill="#46535b" stroke="url(#color-46)" stroke-width="1.5"/><g fill="#1d2729" stroke="none" stroke-width="0.5"><path d="M334.47748,304.70144c0,-0.41422 0.33578,-0.75 0.75,-0.75c0.41422,0 0.75,0.33578 0.75,0.75c0,0.41422 -0.33578,0.75 -0.75,0.75c-0.41422,0 -0.75,-0.33578 -0.75,-0.75z"/><path d="M373.4497,304.70144c0,-0.41422 0.33578,-0.75 0.75,-0.75c0.41422,0 0.75,0.33578 0.75,0.75c0,0.41422 -0.33578,0.75 -0.75,0.75c-0.41422,0 -0.75,-0.33578 -0.75,-0.75z"/><path d="M334.47748,315.95144c0,-0.41422 0.33578,-0.75 0.75,-0.75c0.41422,0 0.75,0.33578 0.75,0.75c0,0.41422 -0.33578,0.75 -0.75,0.75c-0.41422,0 -0.75,-0.33578 -0.75,-0.75z"/><path d="M373.4497,315.95144c0,-0.41422 0.33578,-0.75 0.75,-0.75c0.41422,0 0.75,0.33578 0.75,0.75c0,0.41422 -0.33578,0.75 -0.75,0.75c-0.41422,0 -0.75,-0.33578 -0.75,-0.75z"/></g></g><path d="M343.04978,297.9045v-7.75h18.75v7.75z" fill="#212727" stroke="none" stroke-width="0" stroke-linecap="butt"/><path d="M277.86652,336.68634v-7h16.33333v7z" fill="url(#color-47)" stroke="none" stroke-width="0" stroke-linecap="butt"/><path d="M414.53319,336.68634v-7h16.33333v7z" fill="url(#color-48)" stroke="none" stroke-width="0" stroke-linecap="butt"/><path d="M303.53319,277.35301v-84.33334h11.66667v84.33334z" fill="url(#color-49)" stroke="none" stroke-width="0" stroke-linecap="butt"/><path d="M314.53319,277.35301v-84.33334h11.66667v84.33334z" data-paper-data="{&quot;index&quot;:null}" fill="url(#color-50)" stroke="none" stroke-width="0" stroke-linecap="butt"/><path d="M315.72266,197.89332l12.04131,-21.66463l4.57974,13.584l-6.04131,12.99797z" data-paper-data="{&quot;index&quot;:null}" fill="url(#color-51)" stroke="none" stroke-width="0" stroke-linecap="butt"/><path d="M322.67704,185.14603l-6.70797,13.3313l-12.57974,-5.91734l6.04131,-12.99797l18.66022,-3.65805z" data-paper-data="{&quot;index&quot;:null}" fill="url(#color-52)" stroke="none" stroke-width="0" stroke-linecap="butt"/><path d="M441.52467,330.06048c0,-4.34924 3.52576,-7.875 7.875,-7.875c4.34924,0 7.875,3.52576 7.875,7.875c0,4.34924 -3.52576,7.875 -7.875,7.875c-4.34924,0 -7.875,-3.52576 -7.875,-7.875z" fill="#fbd992" stroke="#9b6d3b" stroke-width="2.5" stroke-linecap="butt"/><path d="M458.02467,330.06048c0,-4.34924 3.52576,-7.875 7.875,-7.875c4.34924,0 7.875,3.52576 7.875,7.875c0,4.34924 -3.52576,7.875 -7.875,7.875c-4.34924,0 -7.875,-3.52576 -7.875,-7.875z" fill="#fbd992" stroke="#9b6d3b" stroke-width="2.5" stroke-linecap="butt"/><path d="M474.02467,330.06048c0,-4.34924 3.52576,-7.875 7.875,-7.875c4.34924,0 7.875,3.52576 7.875,7.875c0,4.34924 -3.52576,7.875 -7.875,7.875c-4.34924,0 -7.875,-3.52576 -7.875,-7.875z" fill="#fbd992" stroke="#9b6d3b" stroke-width="2.5" stroke-linecap="butt"/><path d="M466.52467,316.31048c0,-4.34924 3.52576,-7.875 7.875,-7.875c4.34924,0 7.875,3.52576 7.875,7.875c0,4.34924 -3.52576,7.875 -7.875,7.875c-4.34924,0 -7.875,-3.52576 -7.875,-7.875z" fill="#fbd992" stroke="#9b6d3b" stroke-width="2.5" stroke-linecap="butt"/><path d="M450.52467,316.56048c0,-4.34924 3.52576,-7.875 7.875,-7.875c4.34924,0 7.875,3.52576 7.875,7.875c0,4.34924 -3.52576,7.875 -7.875,7.875c-4.34924,0 -7.875,-3.52576 -7.875,-7.875z" fill="#fbd992" stroke="#9b6d3b" stroke-width="2.5" stroke-linecap="butt"/><path d="M458.02467,302.81048c0,-4.34924 3.52576,-7.875 7.875,-7.875c4.34924,0 7.875,3.52576 7.875,7.875c0,4.34924 -3.52576,7.875 -7.875,7.875c-4.34924,0 -7.875,-3.52576 -7.875,-7.875z" fill="#fbd992" stroke="#9b6d3b" stroke-width="2.5" stroke-linecap="butt"/><path d="M155.00751,327.9v-156h100.09248v156z" fill="#4a3f29" stroke="#66583b" stroke-width="10.5" stroke-linecap="butt"/><path d="M154.55664,326.09653v-37.87283h97.83816v37.87283z" fill="#66583b" stroke="#66583b" stroke-width="0" stroke-linecap="butt"/><path d="M156.81098,252.30189h96.48554" fill="none" stroke="#66583b" stroke-width="6" stroke-linecap="round"/><path d="M156.81098,213.52732h96.48554" fill="none" stroke="#66583b" stroke-width="6" stroke-linecap="round"/><path d="M169.32254,195.34303c0,-7.15895 5.80348,-12.96242 12.96243,-12.96242c7.15895,0 12.96243,5.80347 12.96243,12.96242c0,7.15895 -5.80348,12.96243 -12.96243,12.96243c-7.15895,0 -12.96243,-5.80348 -12.96243,-12.96243z" fill="#f1f1f1" stroke="url(#color-53)" stroke-width="6" stroke-linecap="butt"/><path d="M203.13756,195.34303c0,-7.15895 5.80347,-12.96242 12.96243,-12.96242c7.15895,0 12.96243,5.80347 12.96243,12.96242c0,7.15895 -5.80348,12.96243 -12.96243,12.96243c-7.15895,0 -12.96243,-5.80348 -12.96243,-12.96243z" fill="#f1f1f1" stroke="url(#color-54)" stroke-width="6" stroke-linecap="butt"/><path d="M182.62311,273.1176c0,-7.15895 5.80348,-12.96242 12.96243,-12.96242c7.15895,0 12.96242,5.80347 12.96242,12.96242c0,7.15895 -5.80347,12.96243 -12.96242,12.96243c-7.15895,0 -12.96243,-5.80347 -12.96243,-12.96243z" fill="#f1f1f1" stroke="url(#color-55)" stroke-width="6" stroke-linecap="butt"/><path d="M216.43814,273.1176c0,-7.15895 5.80347,-12.96242 12.96243,-12.96242c7.15895,0 12.96243,5.80347 12.96243,12.96242c0,7.15895 -5.80347,12.96243 -12.96243,12.96243c-7.15895,0 -12.96243,-5.80347 -12.96243,-12.96243z" fill="#f1f1f1" stroke="url(#color-56)" stroke-width="6" stroke-linecap="butt"/></g></g></svg>