<svg version="1.1" xmlns="http://www.w3.org/2000/svg" xmlns:xlink="http://www.w3.org/1999/xlink" width="157.65109" height="173.56143" viewBox="0,0,157.65109,173.56143"><g transform="translate(-158.45012,-85.28938)"><g data-paper-data="{&quot;isPaintingLayer&quot;:true}" fill-rule="nonzero" stroke-linejoin="miter" stroke-miterlimit="10" stroke-dasharray="" stroke-dashoffset="0" style="mix-blend-mode: normal"><g data-paper-data="{&quot;index&quot;:null,&quot;origRot&quot;:0}" stroke="none" stroke-width="0" stroke-linecap="butt"><path d="M247.1556,182.89259c0.37982,-5.30215 10.06369,-9.58159 19.77282,-8.88607c9.70915,0.69553 18.83449,2.80664 18.83449,2.80664l-0.95727,15.92441c0,0 -15.31593,0.7704 -23.12509,0.21099c-9.70915,-0.69553 -14.90477,-4.75383 -14.52496,-10.05597z" data-paper-data="{&quot;origRot&quot;:0,&quot;origPos&quot;:null}" fill="#ff0021"/><g data-paper-data="{&quot;origPos&quot;:null}" fill="#ffffff"><path d="M290.22938,185.93008c0.24101,-9.38575 1.06,-20.98496 10.92171,-20.15323c7.1543,0.60338 16.92532,10.77283 14.60069,19.86934c-2.53672,9.92637 -3.20911,19.18264 -14.1467,17.21011c-10.21279,-1.84181 -11.61671,-7.54048 -11.37569,-16.92622z" data-paper-data="{&quot;origRot&quot;:0,&quot;origPos&quot;:null}"/><path d="M282.445,184.45175c0.19561,-7.24609 -0.99451,-15.55162 4.55239,-14.95818c6.20529,0.66388 5.78303,2.53963 5.17082,14.37292c-0.69744,13.48032 1.65015,15.66762 -5.1866,15.27087c-3.99218,-0.23166 -4.73222,-7.43954 -4.53661,-14.68562z" data-paper-data="{&quot;origRot&quot;:0,&quot;origPos&quot;:null}"/></g></g><g data-paper-data="{&quot;origRot&quot;:0}" stroke="none" stroke-width="0" stroke-linecap="butt"><path d="M259.34806,227.07899c1.36775,4.35977 6.80977,4.81907 6.90704,5.852c0.39351,4.17928 -0.79476,7.49718 -6.97522,11.08448c-7.65589,4.44366 -14.27854,5.54521 -22.78184,3.08505c-5.7915,-1.67558 -2.0124,-5.35909 -1.50207,-11.36647c0.18313,-2.15561 0.03282,-4.87576 -0.81802,-10.24518c-1.06377,-6.71318 -0.5758,-19.55873 -0.5758,-19.55873c0,0 4.96749,-2.10175 10.04847,-3.47687c5.03968,-1.30693 10.58757,-0.51573 10.58757,-0.51573c0,0 1.94816,15.06331 5.10987,25.14144z" data-paper-data="{&quot;origPos&quot;:null}" fill="#0052ef"/><path d="M271.76777,246.82253c0.9617,3.77802 -2.42965,6.53666 -5.81717,8.46615c-2.22,1.26448 -13.88412,3.8728 -20.48596,1.97017c-2.04959,-0.59069 -4.10183,-2.59358 -4.10183,-2.59358c0,0 -4.69373,1.97852 -5.03906,0.56324c-0.27413,-1.12347 -0.78809,-3.0246 0.14975,-3.8826c4.03692,-3.69325 15.11008,-6.50555 20.41244,-7.85526c7.27896,-1.85285 13.94177,-0.36112 14.88182,3.33188z" data-paper-data="{&quot;origPos&quot;:null}" fill="#f9c869"/><path d="M272.38599,241.61187c-0.19862,4.75932 -3.81996,9.0469 -12.04892,11.14157c-8.22896,2.09468 -18.24678,-0.43736 -18.24678,-0.43736c0,0 -5.87761,1.83009 -6.38721,0.3323c-1.05474,-3.10004 -2.42564,-8.24734 -1.27121,-8.7209c4.2618,-1.74826 3.57947,-0.93732 9.04517,-3.64456c3.53877,-1.7528 8.88342,-6.91074 12.71047,-7.88491c8.22896,-2.09468 16.52552,1.37757 16.19849,9.21386z" data-paper-data="{&quot;origPos&quot;:null}" fill="#ad5d21"/></g><g data-paper-data="{&quot;origRot&quot;:0}" stroke="none" stroke-width="0" stroke-linecap="butt"><path d="M233.50196,230.21621c-0.39329,4.55232 4.46504,7.04697 4.16213,8.03927c-1.22565,4.01483 -3.58657,6.63143 -10.66696,7.59836c-8.77063,1.19777 -15.31451,-0.30238 -22.24303,-5.81186c-4.71892,-3.75244 0.17717,-5.72174 2.93405,-11.08351c0.98925,-1.92395 1.88485,-4.49682 3.14021,-9.78632c1.56953,-6.61324 7.6843,-18.44994 7.6843,-18.44994c0,0 7.5159,1.00418 12.35005,2.61992c3.81505,1.27514 9.81244,4.78762 9.81244,4.78762c0,0 -6.26407,11.56318 -7.17321,22.08644z" data-paper-data="{&quot;origPos&quot;:null}" fill="#0052ef"/><path d="M237.47881,253.19972c-0.54755,3.85986 -4.73326,5.12126 -8.60005,5.61732c-2.5341,0.32508 -14.31365,-1.69909 -19.69564,-5.96971c-1.67088,-1.32585 -2.80707,-3.95879 -2.80707,-3.95879c0,0 -5.09349,0.04457 -4.87457,-1.3957c0.17378,-1.1433 0.42155,-3.09703 1.61523,-3.53383c5.13824,-1.88022 16.44884,-0.26949 21.86605,0.49899c7.43663,1.05495 13.03129,4.96876 12.49606,8.74175z" data-paper-data="{&quot;origPos&quot;:null}" fill="#f9c869"/><path d="M240.03242,248.61582c-1.99389,4.32607 -6.97385,6.91405 -15.38106,5.7214c-8.40721,-1.19263 -16.70905,-7.34464 -16.70905,-7.34464c0,0 -6.13194,-0.543 -6.03355,-2.12205c0.20363,-3.26822 0.89353,-8.55007 2.14133,-8.54897c4.60645,0.0041 3.66696,0.49457 9.75156,0.06969c3.93949,-0.2751 10.84427,-3.01255 14.75421,-2.45789c8.40721,1.19263 14.75956,7.5595 11.47657,14.68246z" data-paper-data="{&quot;origPos&quot;:null}" fill="#ad5d21"/></g><g data-paper-data="{&quot;origPos&quot;:null}"><path d="M265.9622,196.09546c-1.1403,21.14643 -15.04449,26.18076 -30.19257,25.08264c-15.14808,-1.09812 -26.90173,-12.01447 -26.16699,-22.14992c0.79707,-10.99527 2.74665,-19.65271 11.73456,-26.03618c6.69626,-4.75588 15.62613,-1.65805 23.81792,-1.0642c15.14808,1.09812 21.92482,3.43944 20.80707,24.16766z" data-paper-data="{&quot;origPos&quot;:null}" fill="#0052ef" stroke="none" stroke-width="0" stroke-linecap="butt"/><path d="M266.00558,195.49703c0,0 -17.34332,0.74799 -29.49658,0.26802c-11.14745,-0.44025 -22.09554,-5.01068 -22.09554,-5.01068c0,0 0.01356,-13.83086 8.35166,-18.60487c5.45537,-3.12349 11.38825,-3.8458 18.9166,-3.48137c7.52835,0.36443 15.53306,3.27076 19.09411,6.61001c8.41159,7.88769 5.22975,20.21889 5.22975,20.21889z" data-paper-data="{&quot;origPos&quot;:null}" fill="#ff0021" stroke="none" stroke-width="0" stroke-linecap="butt"/><path d="M253.67598,173.43915c0,0 1.64012,6.97713 1.77338,11.11049c0.17116,5.30899 -1.67807,15.12672 -1.67807,15.12672" data-paper-data="{&quot;origPos&quot;:null,&quot;origRot&quot;:0}" fill="none" stroke="#0052ef" stroke-width="10" stroke-linecap="round"/><path d="M232.18767,172.39143c0,0 0.7262,7.13042 0.32505,11.24643c-0.51524,5.28669 -3.61572,14.78378 -3.61572,14.78378" data-paper-data="{&quot;origPos&quot;:null}" fill="none" stroke="#0052ef" stroke-width="10" stroke-linecap="round"/><path d="M225.64328,196.28078c0.16372,-2.25843 2.12727,-3.95655 4.38571,-3.79283c2.25843,0.16372 3.95655,2.12728 3.79283,4.38571c-0.16372,2.25843 -2.12727,3.95655 -4.38571,3.79283c-2.25843,-0.16372 -3.95655,-2.12727 -3.79283,-4.38571z" data-paper-data="{&quot;origPos&quot;:null}" fill="#ffe84f" stroke="none" stroke-width="0" stroke-linecap="butt"/><path d="M250.37837,198.07389c0.16372,-2.25843 2.12727,-3.95655 4.38571,-3.79283c2.25843,0.16372 3.95655,2.12728 3.79283,4.38571c-0.16372,2.25843 -2.12728,3.95655 -4.38571,3.79283c-2.25843,-0.16372 -3.95655,-2.12727 -3.79283,-4.38571z" data-paper-data="{&quot;origPos&quot;:null}" fill="#ffe84f" stroke="none" stroke-width="0" stroke-linecap="butt"/></g><g data-paper-data="{&quot;origRot&quot;:0}" stroke="none" stroke-width="0" stroke-linecap="butt"><path d="M212.69446,189.16189c-7.81748,0.42793 -23.11827,-0.60011 -23.11827,-0.60011l-0.68915,-15.93827c0,0 9.15958,-1.95725 18.87904,-2.48929c9.71947,-0.53204 19.32995,3.90975 19.62048,9.21755c0.29054,5.30781 -4.97265,9.27809 -14.69212,9.81013z" data-paper-data="{&quot;origRot&quot;:0,&quot;origPos&quot;:null}" fill="#ff0021"/><g data-paper-data="{&quot;origPos&quot;:null}" fill="#ffffff"><path d="M172.60882,198.39637c-10.96923,1.7882 -11.48576,-7.4781 -13.85506,-17.44574c-2.17123,-9.13433 7.76954,-19.13791 14.93298,-19.62082c9.8743,-0.66566 10.49799,10.9457 10.58102,20.33417c0.08303,9.38847 -1.41659,15.06271 -11.65892,16.73239z" data-paper-data="{&quot;origRot&quot;:0,&quot;origPos&quot;:null}"/><path d="M187.29281,194.92405c-6.84246,0.28163 -4.45839,-1.86586 -4.92888,-15.35599c-0.413,-11.84192 -0.80364,-13.72451 5.41195,-14.28388c5.5561,-0.50002 4.22639,7.78431 4.30003,15.03266c0.07364,7.24836 -0.7876,14.44276 -4.7831,14.60721z" data-paper-data="{&quot;origRot&quot;:0,&quot;origPos&quot;:null}"/></g></g><g><path d="M287.79086,126.57591c-0.8764,3.7341 -12.55377,7.59831 -21.43392,6.86929c-7.15563,-0.58745 -4.8292,-7.1741 -4.53096,-10.80696c0.29824,-3.63286 14.25631,-1.6892 21.41194,-1.10175c7.15563,0.58745 5.12021,2.62237 4.55294,5.03942z" data-paper-data="{&quot;origPos&quot;:null}" fill="#bb041a" stroke="none" stroke-width="0" stroke-linecap="butt"/><path d="M211.44866,161.35855c0,0 -1.79036,1.02753 -3.55513,-0.48997c-1.76478,-1.51748 -2.86555,-4.78198 -0.0253,-6.06466c3.39723,-1.53422 3.05161,-7.66085 4.81639,-6.14337c0,0 7.12508,1.61007 7.44465,4.53975c0,0 2.35673,8.57811 1.00143,9.80797c0,0 -1.88397,1.1716 -6.4958,0.57274c-2.49876,-0.32447 -3.18625,-2.22246 -3.18625,-2.22246z" data-paper-data="{&quot;origRot&quot;:0,&quot;origPos&quot;:null}" fill="#5a2c0a" stroke="none" stroke-width="0" stroke-linecap="butt"/><path d="M219.41677,123.25367c4.21709,1.3567 37.29554,0.88631 43.04356,1.6813c8.5041,1.17618 5.5092,8.69353 5.41157,17.27803c-0.11226,9.87033 6.36498,14.90113 2.17082,23.83672c-1.61708,3.44517 -4.75106,5.06029 -7.92327,7.16296c-1.79957,1.19283 -6.62294,2.09908 -17.39315,1.43753c-15.22434,-0.93516 -19.33169,-3.74983 -25.20576,-9.04008c-3.72987,-3.35916 -1.64019,-7.52502 -4.41147,-12.5757c-0.8495,-1.54822 -1.93546,-2.42606 -2.12934,-2.44197c-10.33565,-0.84852 -15.31662,-9.85275 -14.65386,-17.92576c0.66276,-8.07302 4.88864,-14.31466 10.66819,-13.84018c5.77955,0.47448 8.95639,3.95543 10.42271,4.42716z" data-paper-data="{&quot;origPos&quot;:null}" fill="#ffdebd" stroke="none" stroke-width="0" stroke-linecap="butt"/><path d="M267.01255,132.38503c-0.04884,4.90129 -2.55075,8.85003 -5.58817,8.81975c-3.03742,-0.03027 -5.46013,-4.02808 -5.41129,-8.92936c0.04884,-4.90129 2.55075,-8.85002 5.58817,-8.81975c3.03742,0.03027 5.46014,4.02808 5.4113,8.92936z" data-paper-data="{&quot;origPos&quot;:null,&quot;origRot&quot;:0}" fill="#ffffff" stroke="none" stroke-width="0" stroke-linecap="butt"/><path d="M229.15174,131.90268c-0.21343,2.59974 2.52218,6.6526 0.09079,7.59736c-2.8285,1.09906 -4.07061,-0.84542 -4.07061,-0.84542c0,0 0.45138,1.61808 -3.24626,2.00045c-2.74678,0.28404 -3.2209,-5.46358 -2.8594,-9.86704c0.36151,-4.40347 0.69506,-8.67041 3.45369,-8.54607c11.61468,0.52351 6.99329,5.25727 6.63179,9.66072z" data-paper-data="{&quot;origPos&quot;:null}" fill="#5a2c0a" stroke="none" stroke-width="0" stroke-linecap="butt"/><path d="M253.62351,136.3074c0.17071,4.89855 -2.15184,8.95538 -5.18756,9.06117c-3.03573,0.1058 -5.63506,-3.77951 -5.80577,-8.67806c-0.17071,-4.89855 2.15184,-8.95538 5.18756,-9.06117c3.03573,-0.1058 5.63506,3.77951 5.80577,8.67806z" data-paper-data="{&quot;origPos&quot;:null,&quot;origRot&quot;:0}" fill="#ffffff" stroke="none" stroke-width="0" stroke-linecap="butt"/><path d="M251.13841,132.44277c0.94881,0.07789 1.75105,0.84109 2.28215,2.01047c0.5301,1.16929 0.78898,2.74576 0.64899,4.45102c-0.14,1.70526 -0.65252,3.2184 -1.36623,4.28558c-0.71471,1.0671 -1.63068,1.68924 -2.57949,1.61135c-0.94881,-0.07789 -1.75105,-0.84109 -2.28215,-2.01047c-0.5301,-1.16929 -0.78898,-2.74576 -0.64899,-4.45102c0.14,-1.70526 0.65252,-3.2184 1.36623,-4.28558c0.71471,-1.0671 1.63068,-1.68924 2.57949,-1.61135z" data-paper-data="{&quot;origPos&quot;:null}" fill="#000000" stroke="none" stroke-width="1" stroke-linecap="butt"/><path d="M264.46709,128.97169c0.94881,0.07789 1.75105,0.84109 2.28215,2.01047c0.5301,1.16929 0.53479,2.95767 0.64899,4.45102c0.03862,0.54398 0.12397,1.33763 -0.29677,1.78169c-0.52859,0.53555 -1.3465,0.74533 -2.0833,0.93267c-1.27306,0.15636 -2.82363,0.80868 -3.86982,0.08365c-0.9153,-0.65709 -0.71208,-2.20365 -0.62697,-3.36257c0.10986,-1.49703 0.65252,-3.2184 1.36623,-4.28558c0.71471,-1.0671 1.63068,-1.68924 2.57949,-1.61135z" data-paper-data="{&quot;origPos&quot;:null}" fill="#000000" stroke="none" stroke-width="1" stroke-linecap="round"/><path d="M275.94335,98.48701c1.16566,15.09058 -1.78283,15.70125 -10.17689,19.81259c-12.23083,5.99056 -27.36803,3.33183 -40.26603,7.70465c-3.38667,1.14818 -11.43951,-2.97815 -15.00353,-3.27074c-7.28946,-0.59844 -10.97483,-6.14583 -10.76663,-12.37585c0.45926,-13.742 7.20343,-13.24177 14.49288,-12.64333c0,0 7.91311,1.98826 10.33473,6.47186c0,0 12.65078,-17.2417 24.59924,-18.51915c15.38102,-1.64443 25.94912,1.98295 26.78622,12.81998z" data-paper-data="{&quot;origPos&quot;:null}" fill="#ff0021" stroke="none" stroke-width="0" stroke-linecap="butt"/><path d="M272.36154,106.74699c-0.44737,5.44929 -2.2422,9.42932 -12.96912,8.86859c-11.32418,-0.59195 -11.79643,-5.41573 -11.34907,-10.86502c0.44737,-5.44929 6.25383,-9.41989 12.96912,-8.86859c6.71528,0.5513 11.79643,5.41573 11.34907,10.86502z" data-paper-data="{&quot;origPos&quot;:null}" fill="#ffffff" stroke="none" stroke-width="0" stroke-linecap="butt"/><path d="M288.36134,124.51568c-0.26957,0.83924 -39.74276,3.25914 -50.76137,3.55859c-5.35518,0.14554 -16.05898,-1.15937 -15.78941,-1.99861c0.99651,-3.10237 3.47011,-7.98784 8.68354,-9.22042c6.30016,-1.48951 27.80743,-5.12199 43.54167,-3.58781c6.43207,0.62717 15.32208,8.14588 14.32557,11.24825z" data-paper-data="{&quot;origPos&quot;:null}" fill="#bb041a" stroke="none" stroke-width="0" stroke-linecap="butt"/><path d="M251.36243,110.76451l5.86078,-12.38421l3.9032,6.2788l3.14885,-5.06891l4.48998,10.48467l-3.82728,1.90311l-0.88761,-7.73936l-3.08765,4.43087l-3.17613,-4.96713l-2.1436,7.41358z" data-paper-data="{&quot;origPos&quot;:null}" fill="#ff0021" stroke="none" stroke-width="0" stroke-linecap="butt"/><path d="M269.38165,166.33808c-0.57836,2.50945 -2.60144,3.62529 -4.0743,3.89771c-4.4952,0.83143 -10.88594,0.13187 -15.14034,-1.54088c-2.4451,-0.96137 -2.35647,-2.58697 -2.57993,-2.83357c-0.2361,-0.26055 -3.08798,1.31865 -6.34677,1.05112c-5.22911,-0.42929 -8.54272,-4.41109 -8.11908,-9.5714c0.46455,-5.65863 1.21377,-8.76277 2.07827,-8.8557c5.03494,-0.54124 6.1532,3.94913 9.79413,6.3186c0,0 12.39478,5.23926 18.37396,5.38888c0,0 9.97558,-3.70725 12.937,-3.26568c1.46873,0.219 1.22433,3.31443 0.63014,4.83918c0,0 -0.19886,4.28145 -2.35847,5.24666c-5.10639,2.28222 -5.0272,-1.40115 -5.19459,-0.67491z" data-paper-data="{&quot;origPos&quot;:null}" fill="#38291e" stroke="none" stroke-width="0" stroke-linecap="butt"/><path d="M276.29693,150.85197c-1.03982,6.55492 0.21337,11.17994 -14.09538,9.75441c-6.59477,-0.65702 -12.6081,-5.30638 -12.12797,-11.15472c0.48013,-5.84834 7.44386,-12.54325 14.07122,-12.51564c9.6565,0.04024 13.81567,3.42906 12.15213,13.91596z" data-paper-data="{&quot;origPos&quot;:null}" fill="#ffdebd" stroke="none" stroke-width="0" stroke-linecap="butt"/><g data-paper-data="{&quot;origPos&quot;:null}" fill="none" stroke="#f6b09a" stroke-width="3.5" stroke-linecap="round"><path d="M205.03136,128.89045c0,0 3.09493,-1.4817 6.6342,1.74816c5.07589,4.63215 1.30702,11.51751 1.30702,11.51751" data-paper-data="{&quot;origPos&quot;:null}"/><path d="M207.18718,135.80434l5.97988,0.49093" data-paper-data="{&quot;origPos&quot;:null}"/><path d="M210.82521,142.12319l1.2814,0.1052" data-paper-data="{&quot;origPos&quot;:null}"/></g><path d="M244.89667,124.90809c-1.40472,0.29633 -1.3557,0.49538 -2.12526,1.70732c-0.7939,1.25029 -2.3848,2.81382 -2.3848,2.81382c0,0 -1.15667,-3.73422 -0.93638,-6.41758c0.14958,-1.82197 1.40031,-4.91631 4.26086,-5.32266c9.52542,0.46003 5.96374,9.16963 5.96374,9.16963c0,0 -3.3001,-2.30093 -4.77817,-1.95052z" data-paper-data="{&quot;origPos&quot;:null}" fill="#38291e" stroke="none" stroke-width="0" stroke-linecap="butt"/><path d="M262.32917,123.52375c-1.51862,-0.03521 -4.26776,2.902 -4.26776,2.902c0,0 -5.2959,-7.77793 3.92535,-10.2098c2.88249,-0.19772 4.74968,2.56867 5.27507,4.31963c0.77378,2.5788 0.41938,6.47196 0.41938,6.47196c0,0 -1.88139,-1.19831 -2.91806,-2.25605c-1.00488,-1.02531 -0.99835,-1.2302 -2.43397,-1.22778z" data-paper-data="{&quot;origPos&quot;:null,&quot;index&quot;:null,&quot;origRot&quot;:0}" fill="#38291e" stroke="none" stroke-width="0" stroke-linecap="butt"/></g></g></g></svg>