<svg version="1.1" xmlns="http://www.w3.org/2000/svg" xmlns:xlink="http://www.w3.org/1999/xlink" width="146.85086" height="106.3389" viewBox="0,0,146.85086,106.3389"><defs><linearGradient x1="311.77911" y1="130.26046" x2="311.77911" y2="218.75653" gradientUnits="userSpaceOnUse" id="color-1"><stop offset="0" stop-color="#b2b2b2"/><stop offset="1" stop-color="#7f7f7f"/></linearGradient><linearGradient x1="240.42414" y1="154.38829" x2="240.42414" y2="187.76277" gradientUnits="userSpaceOnUse" id="color-2"><stop offset="0" stop-color="#a3a3a3"/><stop offset="1" stop-color="#909090"/></linearGradient></defs><g transform="translate(-166.57318,-128.76046)"><g data-paper-data="{&quot;isPaintingLayer&quot;:true}" fill-rule="nonzero" stroke-linejoin="miter" stroke-miterlimit="10" stroke-dasharray="" stroke-dashoffset="0" style="mix-blend-mode: normal"><path d="M304.69566,206.95078l-9.81643,12.43406c0,0 -0.21029,-16.37252 -16.6062,-17.27794c-16.85046,0.0972 -18.84866,16.64965 -18.84866,16.64965h-38.95391c0,0 -1.66539,-15.9971 -17.90623,-16.02137c-16.6044,-0.02481 -17.50417,16.02137 -17.50417,16.02137l-9.6168,-11.71133l-7.22237,-76.78476h143.55822z" data-paper-data="{&quot;index&quot;:null}" fill="url(#color-1)" stroke="#808080" stroke-width="3" stroke-linecap="round"/><g stroke-linecap="butt"><path d="M217.88866,171.29142c0,-12.26298 9.94111,-22.20408 22.20408,-22.20408c12.26297,0 22.20407,9.94111 22.20407,22.20408c0,12.26298 -9.94111,22.20407 -22.20407,22.20407c-12.26297,0 -22.20408,-9.94111 -22.20408,-22.20407z" fill="#ffffff" stroke="#b0b0b0" stroke-width="0"/><path d="M244.70783,154.38829c6.15533,3.11285 9.32167,4.66927 9.49052,4.66927c0,0.273 -1.2806,2.74413 -3.84744,7.41342h-0.18013c-0.20545,0 -3.15508,-1.39318 -8.84882,-4.17954l-2.89894,3.87277c4.90851,2.35856 10.86681,5.37008 17.88059,9.02895c-3.18321,5.66281 -5.44045,9.42299 -6.77453,11.28901l-14.49191,1.2806c-6.61972,-4.46382 -10.11534,-6.77171 -10.49249,-6.9265v-0.17731c0,-0.47848 1.34251,-2.6766 4.02756,-6.5944h0.33212c1.06106,0.63326 4.38783,2.45425 9.98025,5.46577l3.38585,-3.85024c-10.27858,-5.23217 -15.97233,-8.19022 -17.08407,-8.87415v-0.1548c3.26484,-6.36079 5.0436,-9.58623 5.33631,-9.67066c8.49981,-1.72811 13.22819,-2.59218 14.18512,-2.59218z" fill="url(#color-2)" stroke="none" stroke-width="1"/></g><path d="M209.89307,212.90233c1.93139,1.92858 3.12545,4.59453 3.12545,7.53569c0,2.94116 -1.19403,5.60732 -3.12545,7.53589c-1.92857,1.93139 -4.59453,3.12545 -7.53569,3.12545c-2.94117,0 -5.60732,-1.19404 -7.53589,-3.12545c-1.93139,-1.92857 -3.12545,-4.59473 -3.12545,-7.53589c0,-2.94116 1.19403,-5.60712 3.12545,-7.53569c1.92857,-1.93139 4.59473,-3.12545 7.53589,-3.12545c2.94116,0 5.60712,1.19404 7.53569,3.12545z" data-paper-data="{&quot;index&quot;:null}" fill="#969696" stroke="#000000" stroke-width="8" stroke-linecap="butt"/><path d="M285.17125,212.86451c1.93141,1.92858 3.12545,4.59453 3.12545,7.53569c0,2.94116 -1.19404,5.60732 -3.12545,7.53589c-1.92858,1.93141 -4.59453,3.12545 -7.53569,3.12545c-2.94116,0 -5.60732,-1.19404 -7.53589,-3.12545c-1.93141,-1.92857 -3.12545,-4.59473 -3.12545,-7.53589c0,-2.94116 1.19404,-5.60712 3.12545,-7.53569c1.92857,-1.93141 4.59473,-3.12545 7.53589,-3.12545c2.94116,0 5.60712,1.19404 7.53569,3.12545z" data-paper-data="{&quot;index&quot;:null}" fill="#969696" stroke="#000000" stroke-width="8" stroke-linecap="butt"/></g></g></svg>