<svg version="1.1" xmlns="http://www.w3.org/2000/svg" xmlns:xlink="http://www.w3.org/1999/xlink" width="172.54398" height="179.14215" viewBox="0,0,172.54398,179.14215"><g transform="translate(-151.47923,-81.19595)"><g data-paper-data="{&quot;isPaintingLayer&quot;:true}" fill-rule="nonzero" stroke-linejoin="miter" stroke-miterlimit="10" stroke-dasharray="" stroke-dashoffset="0" style="mix-blend-mode: normal"><path d="M176.07432,170.06201c9.5889,-13.64015 33.85916,-23.32571 62.28445,-23.32571c20.621,0 39.05531,5.09723 51.28421,13.10372" fill="none" stroke-opacity="0.40392" stroke="#99eeff" stroke-width="10" stroke-linecap="butt"/><g fill="#004aea" stroke="#004aea" stroke-width="0" stroke-linecap="butt"><path d="M196.01438,246.10844c1.21734,-3.6111 7.97408,-4.59337 15.0916,-2.19397c5.18477,1.74785 16.01282,5.3916 19.75811,9.38029c0.87009,0.92663 0.21347,2.78332 -0.14506,3.88278c-0.45165,1.38503 -4.98186,-0.94367 -4.98186,-0.94367c0,0 -2.19819,1.84153 -4.28666,2.27512c-6.7271,1.3966 -18.15988,-2.08857 -20.27762,-3.51773c-3.23147,-2.18078 -6.40389,-5.18861 -5.15852,-8.88284z" data-paper-data="{&quot;origPos&quot;:null}"/><path d="M195.793,240.86592c0.26805,-7.83853 8.80399,-10.67174 16.85045,-7.95918c3.74217,1.26153 8.68036,6.80985 12.07606,8.82591c5.24471,3.11385 4.62583,2.25351 8.74281,4.31986c1.1152,0.55974 -0.64202,5.58827 -1.92876,8.59942c-0.62169,1.45485 -6.34363,-0.81561 -6.34363,-0.81561c0,0 -10.18096,1.7652 -18.22742,-0.94736c-8.04646,-2.71256 -11.3323,-7.26238 -11.1695,-12.02304z" data-paper-data="{&quot;origPos&quot;:null}"/><path d="M209.8953,227.36339c3.91673,-9.80942 3.51697,-22.95423 3.51697,-22.95423c0,0 6.93614,-0.44278 10.91731,0.13248c5.04464,0.72892 12.21017,3.20932 12.21017,3.20932c0,0 0.14347,13.32206 -1.42623,19.93527c-1.25549,5.28946 -1.61161,7.99038 -1.59244,10.15367c0.05339,6.02878 3.54232,9.98822 -2.35954,11.21987c-8.66536,1.80836 -15.18543,0.20785 -22.48236,-4.80348c-5.89069,-4.04556 -6.82398,-7.44401 -6.11473,-11.58142c0.1753,-1.02259 5.63649,-1.06795 7.33085,-5.31147z" data-paper-data="{&quot;origPos&quot;:null}"/></g><g fill="#004aea" stroke="#004aea" stroke-width="0" stroke-linecap="butt"><path d="M278.00253,249.62954c0.88715,3.79622 -2.55783,6.48757 -5.98267,8.35003c-2.24446,1.22054 -13.95765,3.59878 -20.52077,1.56659c-2.03756,-0.63091 -4.04998,-2.67381 -4.04998,-2.67381c0,0 -4.73176,1.88576 -5.04917,0.46395c-0.25197,-1.12865 -0.72841,-3.03953 0.22614,-3.8789c4.10884,-3.61307 15.2352,-6.20689 20.5631,-7.45198c7.31402,-1.70923 13.94618,-0.08665 14.81336,3.62414z" data-paper-data="{&quot;origPos&quot;:null}"/><path d="M278.7232,244.43208c-0.29225,4.75448 -3.99728,8.96996 -12.26588,10.90227c-8.2686,1.93231 -18.23464,-0.7964 -18.23464,-0.7964c0,0 -5.91249,1.71405 -6.39251,0.20652c-0.99352,-3.1202 -2.26284,-8.29348 -1.09932,-8.74423c4.29538,-1.66404 3.59722,-0.86669 9.11515,-3.46582c3.57259,-1.68281 9.01772,-6.73456 12.8632,-7.63322c8.2686,-1.93231 16.49521,1.70255 16.014,9.53089z" data-paper-data="{&quot;origPos&quot;:null}"/><path d="M265.97385,229.6454c1.28167,4.38585 6.71361,4.95216 6.79052,5.98681c0.31118,4.18621 -0.94216,7.48009 -7.19204,10.94504c-7.74186,4.29211 -14.38491,5.26311 -22.83815,2.63606c-5.75739,-1.78924 -1.90654,-5.39766 -1.27806,-11.39383c0.22552,-2.15159 0.12878,-4.87416 -0.61621,-10.2593c-0.93144,-6.73283 -0.19074,-19.56628 -0.19074,-19.56628c0,0 5.00789,-2.00358 10.11495,-3.27842c5.06442,-1.20749 10.59567,-0.30724 10.59567,-0.30724c0,0 1.65131,15.09873 4.61404,25.23715z" data-paper-data="{&quot;origPos&quot;:null}"/></g><g fill="#004aea" stroke="#004aea" stroke-width="0" stroke-linecap="butt"><path d="M205.43714,186.1812c-7.82577,0.23085 -23.09582,-1.1823 -23.09582,-1.1823l-0.28742,-15.95056c0,0 9.20598,-1.7259 18.93576,-2.01292c9.72979,-0.28701 19.22533,4.39545 19.38207,9.70889c0.15673,5.31343 -5.2048,9.14988 -14.93459,9.4369z" data-paper-data="{&quot;origRot&quot;:0,&quot;origPos&quot;:null}"/><g data-paper-data="{&quot;origPos&quot;:null}"><path d="M165.13162,194.40295c-11.01079,1.5113 -11.29374,-7.76506 -13.41119,-17.78924c-1.94044,-9.18614 8.24919,-18.93611 15.42252,-19.23841c9.88794,-0.41669 10.21892,11.20669 10.0654,20.59427c-0.15351,9.38758 -1.79559,15.02223 -12.07672,16.43338z" data-paper-data="{&quot;origRot&quot;:0,&quot;origPos&quot;:null}"/><path d="M179.89841,191.30164c-6.84739,0.10917 -4.40999,-1.97757 -4.54048,-15.47528c-0.11456,-11.84857 -0.45764,-13.74041 5.77007,-14.14301c5.56693,-0.35989 4.02896,7.88832 3.91998,15.13623c-0.10897,7.24791 -1.15117,14.41834 -5.14955,14.48208z" data-paper-data="{&quot;origRot&quot;:0,&quot;origPos&quot;:null}"/></g></g><g data-paper-data="{&quot;index&quot;:null,&quot;origRot&quot;:0}" fill="#004aea" stroke="#004aea" stroke-width="0" stroke-linecap="butt"><path d="M255.07845,177.64825c-0.41566,-5.29946 4.75242,-9.3928 14.45663,-10.15394c7.80518,-0.6122 23.12597,0.05463 23.12597,0.05463l1.06491,15.91757c0,0 -9.11086,2.17278 -18.81507,2.93393c-9.70421,0.76114 -19.41679,-3.45272 -19.83246,-8.75218z" data-paper-data="{&quot;origRot&quot;:0,&quot;origPos&quot;:null}"/><g data-paper-data="{&quot;origPos&quot;:null}"><path d="M309.39172,157.31685c10.92399,-2.04644 11.65896,7.20509 14.26273,17.11407c2.38607,9.08059 -7.31595,19.31588 -14.46601,19.96761c-9.85587,0.89837 -10.75326,-10.69502 -11.05772,-20.07893c-0.30446,-9.38391 1.06089,-15.09193 11.261,-17.00276z" data-paper-data="{&quot;origRot&quot;:0,&quot;origPos&quot;:null}"/><path d="M290.35652,175.8505c-0.24458,-7.24459 0.44668,-14.45731 4.43721,-14.71595c6.83389,-0.44295 4.50116,1.76016 5.28973,15.23547c0.6922,11.82888 1.12714,13.70174 -5.07353,14.40756c-5.54276,0.63092 -4.40882,-7.68246 -4.65342,-14.92706z" data-paper-data="{&quot;origRot&quot;:0,&quot;origPos&quot;:null}"/></g></g><g fill="#004aea" stroke="#004aea" stroke-width="0" stroke-linecap="butt"><path d="M265.45047,190.53599c0.00975,21.17715 -13.60053,26.95913 -28.78589,26.68525c-15.18536,-0.27388 -26.17218,-9.99891 -25.98893,-20.1593c0.1988,-11.02233 0.33305,-20.30978 8.96104,-27.17193c6.42811,-5.1125 12.02361,-2.56712 20.23557,-2.41901c10.62228,0.19158 25.56867,2.30666 25.57822,23.065z" data-paper-data="{&quot;origPos&quot;:null}"/><path d="M265.46129,189.93609c0,0 -15.39749,-3.72406 -27.55888,-3.54333c-11.15491,0.16576 -26.62544,1.55135 -26.62544,1.55135c0,0 -0.74252,-13.79671 7.32402,-19.01647c5.2777,-3.41513 11.1626,-4.45857 18.69963,-4.50351c7.53704,-0.04493 17.04921,1.37295 20.78634,4.51388c8.82753,7.41925 7.37433,20.99809 7.37433,20.99809z" data-paper-data="{&quot;origPos&quot;:null}"/></g><path d="M251.70437,165.02501l-29.61199,25.75777" fill="#004aea" stroke="#004aea" stroke-width="7.5" stroke-linecap="round"/><path d="M257.90764,192.64695l-31.72842,-26.64512" data-paper-data="{&quot;index&quot;:null}" fill="#004aea" stroke="#004aea" stroke-width="7.5" stroke-linecap="round"/><path d="M267.18411,140.16704c0,13.05596 0.20971,21.22232 -10.70447,25.67958c-2.979,1.2166 -5.36316,5.16723 -17.553,5.24526c-16.6075,0.10631 -14.84408,-4.32464 -19.31844,-7.68098c-7.61727,-5.71391 -8.93902,-12.77418 -8.93902,-23.24387c0,-7.44063 1.51317,-18.37476 1.51317,-18.37476c0,0 7.95574,5.60873 26.53265,5.42546c17.40763,-0.17174 25.99236,-6.66424 25.99236,-6.66424c0,0 2.47674,11.60833 2.47674,19.61354z" fill="#004aea" stroke="#004aea" stroke-width="0.5" stroke-linecap="butt"/><path d="M212.77881,122.35688c3.53043,1.0071 -1.15814,28.14079 -1.31734,28.14079c-8.48689,0 -12.25147,-8.56649 -12.25147,-16.66666c0,-8.10018 3.02881,-15.03364 7.77456,-15.03364c4.74575,0 4.56669,3.20935 5.79425,3.55952z" fill="#004aea" stroke="#004aea" stroke-width="0" stroke-linecap="butt"/><path d="M264.60694,120.01729c1.22756,-0.35017 1.04851,-3.55952 5.79426,-3.55952c4.74574,0 7.77455,6.93346 7.77455,15.03364c0,8.10017 -3.76458,16.66666 -12.25147,16.66666c-0.1592,0 -4.84777,-27.13369 -1.31733,-28.14079z" data-paper-data="{&quot;index&quot;:null}" fill="#004aea" stroke="#004aea" stroke-width="0" stroke-linecap="butt"/><path d="M259.17928,167.11073c-3.9568,0.60373 -5.401,-1.10675 -7.73215,-2.2656c-0.92255,-0.45862 -1.42084,3.75769 -7.64696,4.53587c-2.35408,0.36092 -12.84293,-3.54056 -12.22761,-23.30966c-2.86786,-11.22814 -11.16001,-22.37879 -10.12284,-28.45285c2.04629,-11.98383 12.58264,0.06962 12.58264,0.06962c0.6947,-2.807 36.56338,-17.80608 32.69396,13.55366c-2.52285,20.44643 3.25267,24.45831 5.13686,25.5431c2.82677,1.62748 2.38363,5.60369 -1.8132,6.98284c-4.19683,1.37915 -6.54581,-1.18159 -6.54581,-1.18159c0,0 -0.03726,3.87041 -4.32487,4.52461z" data-paper-data="{&quot;origRot&quot;:0}" fill="#004aea" stroke="#004aea" stroke-width="0" stroke-linecap="butt"/><path d="M218.99325,167.0313c-4.28762,-0.6542 -4.32487,-4.52461 -4.32487,-4.52461c0,0 -2.34899,2.56073 -6.54582,1.18159c-4.19682,-1.37914 -4.63997,-5.35536 -1.8132,-6.98283c1.88419,-1.0848 7.65971,-5.09668 5.13686,-25.5431c-3.86942,-31.35974 31.99925,-16.36066 32.69395,-13.55366c0,0 10.53634,-12.05346 12.58264,-0.06963c1.03716,6.07405 -8.73649,15.95486 -11.60434,27.183c0.61532,19.7691 -8.39204,24.94043 -10.74611,24.57951c-6.22612,-0.77818 -6.7244,-4.99448 -7.64695,-4.53587c-2.33115,1.15885 -3.77535,2.86933 -7.73215,2.2656z" data-paper-data="{&quot;origRot&quot;:0,&quot;index&quot;:null}" fill="#004aea" stroke="#004aea" stroke-width="0" stroke-linecap="butt"/><path d="M266.85466,104.47982c0,0 6.63645,-0.33271 8.21096,7.54312c2.92873,14.64974 -12.07172,29.81158 -36.77572,29.54344c-22.70259,-0.24303 -37.54704,-14.86216 -35.20311,-29.3012c1.06556,-6.56408 7.23977,-6.79109 7.23977,-6.79109c0,0 2.48528,-9.17797 6.40162,-14.80071c3.80728,-5.46617 11.01152,-9.71857 23.56034,-9.4668c12.33608,0.2475 19.04647,4.29696 22.13509,9.44546c3.19812,5.33103 4.43107,13.82778 4.43107,13.82778z" fill="#004aea" stroke="#004aea" stroke-width="0" stroke-linecap="butt"/><g stroke="none" stroke-linecap="butt"><g><path d="M233.75782,97.50002c0,-1.79493 1.45507,-3.25 3.25,-3.25c1.79493,0 3.25,1.45507 3.25,3.25c0,1.79493 -1.45507,3.25 -3.25,3.25c-1.79493,0 -3.25,-1.45507 -3.25,-3.25z" fill="#003fc6" stroke-width="NaN"/><path d="M218.25782,106.25002c0,-1.38071 1.11929,-2.5 2.5,-2.5c1.38071,0 2.5,1.11929 2.5,2.5c0,1.38071 -1.11929,2.5 -2.5,2.5c-1.38071,0 -2.5,-1.11929 -2.5,-2.5z" fill="#003fc6" stroke-width="0"/><path d="M230.75782,120.50002c0,-1.79493 1.45507,-3.25 3.25,-3.25c1.79493,0 3.25,1.45507 3.25,3.25c0,1.79493 -1.45507,3.25 -3.25,3.25c-1.79493,0 -3.25,-1.45507 -3.25,-3.25z" fill="#003ab7" stroke-width="0"/><path d="M202.92448,245.66669c0,-1.79493 1.45507,-3.25 3.25,-3.25c1.79493,0 3.25,1.45507 3.25,3.25c0,1.79493 -1.45507,3.25 -3.25,3.25c-1.79493,0 -3.25,-1.45507 -3.25,-3.25z" fill="#003ab7" stroke-width="0"/><path d="M224.25782,92.61539c0,-2.13479 1.73058,-3.86537 3.86537,-3.86537c2.13479,0 3.86537,1.73058 3.86537,3.86537c0,2.13479 -1.73058,3.86537 -3.86537,3.86537c-2.13479,0 -3.86537,-1.73058 -3.86537,-3.86537z" fill="#003fc6" stroke-width="0"/><path d="M251.25782,163.58334c0,-1.10457 0.89543,-2 2,-2c1.10457,0 2,0.89543 2,2c0,1.10457 -0.89543,2 -2,2c-1.10457,0 -2,-0.89543 -2,-2z" fill="#2866ec" stroke-width="0"/><path d="M160.75782,171.58334c0,-1.10457 0.89543,-2 2,-2c1.10457,0 2,0.89543 2,2c0,1.10457 -0.89543,2 -2,2c-1.10457,0 -2,-0.89543 -2,-2z" fill="#2866ec" stroke-width="0"/><path d="M217.25782,204.50002c0,-1.24264 1.00736,-2.25 2.25,-2.25c1.24264,0 2.25,1.00736 2.25,2.25c0,1.24264 -1.00736,2.25 -2.25,2.25c-1.24264,0 -2.25,-1.00736 -2.25,-2.25z" fill="#2b6dfc" stroke-width="0"/><path d="M225.25782,213.75002c0,-1.933 1.567,-3.5 3.5,-3.5c1.933,0 3.5,1.567 3.5,3.5c0,1.933 -1.567,3.5 -3.5,3.5c-1.933,0 -3.5,-1.567 -3.5,-3.5z" fill="#003fc6" stroke-width="0"/><path d="M242.75782,177.25002c0,-1.933 1.567,-3.5 3.5,-3.5c1.933,0 3.5,1.567 3.5,3.5c0,1.933 -1.567,3.5 -3.5,3.5c-1.933,0 -3.5,-1.567 -3.5,-3.5z" fill="#003fc6" stroke-width="0"/><path d="M235.75782,188.25002c0,-2.20914 1.79086,-4 4,-4c2.20914,0 4,1.79086 4,4c0,2.20914 -1.79086,4 -4,4c-2.20914,0 -4,-1.79086 -4,-4z" fill="#2866ec" stroke-width="0"/><path d="M253.25782,132c0,-2.07107 1.67893,-3.75 3.75,-3.75c2.07107,0 3.75,1.67893 3.75,3.75c0,2.07107 -1.67893,3.75 -3.75,3.75c-2.07107,0 -3.75,-1.67893 -3.75,-3.75z" fill="#003ab7" stroke-width="0"/><path d="M264.75782,120.00002c0,-1.51878 1.23122,-2.75 2.75,-2.75c1.51878,0 2.75,1.23122 2.75,2.75c0,1.51878 -1.23122,2.75 -2.75,2.75c-1.51878,0 -2.75,-1.23122 -2.75,-2.75z" fill="#003ab7" stroke-width="0"/><path d="M228.81534,134.94258c0,-1.54001 1.24842,-2.78843 2.78843,-2.78843c1.54001,0 2.78843,1.24842 2.78843,2.78843c0,1.54001 -1.24842,2.78843 -2.78843,2.78843c-1.54001,0 -2.78843,-1.24842 -2.78843,-2.78843z" fill="#003fc6" stroke-width="0"/><path d="M215.81534,139.44258c0,-1.54001 1.24842,-2.78843 2.78843,-2.78843c1.54001,0 2.78843,1.24842 2.78843,2.78843c0,1.54001 -1.24842,2.78843 -2.78843,2.78843c-1.54001,0 -2.78843,-1.24842 -2.78843,-2.78843z" fill="#003fc6" stroke-width="0"/><path d="M244.75782,218.25002c0,-2.20914 1.79086,-4 4,-4c2.20914,0 4,1.79086 4,4c0,2.20914 -1.79086,4 -4,4c-2.20914,0 -4,-1.79086 -4,-4z" fill="#003fc6" stroke-width="0"/><path d="M207.25782,116.75002c0,-1.38071 1.11929,-2.5 2.5,-2.5c1.38071,0 2.5,1.11929 2.5,2.5c0,1.38071 -1.11929,2.5 -2.5,2.5c-1.38071,0 -2.5,-1.11929 -2.5,-2.5z" fill="#003ab7" stroke-width="0.5"/><path d="M254.75782,92.25002c0,-1.38071 1.11929,-2.5 2.5,-2.5c1.38071,0 2.5,1.11929 2.5,2.5c0,1.38071 -1.11929,2.5 -2.5,2.5c-1.38071,0 -2.5,-1.11929 -2.5,-2.5z" fill="#2866ec" stroke-width="0.5"/><path d="M239.18063,109.11564c0,-1.38071 1.11929,-2.5 2.5,-2.5c1.38071,0 2.5,1.11929 2.5,2.5c0,1.38071 -1.11929,2.5 -2.5,2.5c-1.38071,0 -2.5,-1.11929 -2.5,-2.5z" fill="#2866ec" stroke-width="0.5"/><path d="M240.75782,140.75c0,-1.38071 1.11929,-2.5 2.5,-2.5c1.38071,0 2.5,1.11929 2.5,2.5c0,1.38071 -1.11929,2.5 -2.5,2.5c-1.38071,0 -2.5,-1.11929 -2.5,-2.5z" fill="#003fc6" stroke-width="0.5"/><path d="M217.25782,126.25002c0,-1.38071 1.11929,-2.5 2.5,-2.5c1.38071,0 2.5,1.11929 2.5,2.5c0,1.38071 -1.11929,2.5 -2.5,2.5c-1.38071,0 -2.5,-1.11929 -2.5,-2.5z" fill="#003ab7" stroke-width="0.5"/><path d="M169.25782,163.25002c0,-1.38071 1.11929,-2.5 2.5,-2.5c1.38071,0 2.5,1.11929 2.5,2.5c0,1.38071 -1.11929,2.5 -2.5,2.5c-1.38071,0 -2.5,-1.11929 -2.5,-2.5z" fill="#003ab7" stroke-width="0.5"/><path d="M198.42448,170.08336c0,-1.38071 1.11929,-2.5 2.5,-2.5c1.38071,0 2.5,1.11929 2.5,2.5c0,1.38071 -1.11929,2.5 -2.5,2.5c-1.38071,0 -2.5,-1.11929 -2.5,-2.5z" fill="#2866ec" stroke-width="0.5"/><path d="M255.75782,231.25002c0,-1.38071 1.11929,-2.5 2.5,-2.5c1.38071,0 2.5,1.11929 2.5,2.5c0,1.38071 -1.11929,2.5 -2.5,2.5c-1.38071,0 -2.5,-1.11929 -2.5,-2.5z" fill="#2866ec" stroke-width="0.5"/><path d="M239.21914,162.74969c0,-1.38071 1.11929,-2.5 2.5,-2.5c1.38071,0 2.5,1.11929 2.5,2.5c0,1.38071 -1.11929,2.5 -2.5,2.5c-1.38071,0 -2.5,-1.11929 -2.5,-2.5z" fill="#2866ec" stroke-width="0.5"/><path d="M214.75782,189.25002c0,-1.38071 1.11929,-2.5 2.5,-2.5c1.38071,0 2.5,1.11929 2.5,2.5c0,1.38071 -1.11929,2.5 -2.5,2.5c-1.38071,0 -2.5,-1.11929 -2.5,-2.5z" fill="#0043d3" stroke-width="0.5"/><path d="M190.75782,178.25002c0,-1.38071 1.11929,-2.5 2.5,-2.5c1.38071,0 2.5,1.11929 2.5,2.5c0,1.38071 -1.11929,2.5 -2.5,2.5c-1.38071,0 -2.5,-1.11929 -2.5,-2.5z" fill="#0043d3" stroke-width="0.5"/><path d="M250.25782,241.25002c0,-1.38071 1.11929,-2.5 2.5,-2.5c1.38071,0 2.5,1.11929 2.5,2.5c0,1.38071 -1.11929,2.5 -2.5,2.5c-1.38071,0 -2.5,-1.11929 -2.5,-2.5z" fill="#2b6dfc" stroke-width="0.5"/><path d="M222.25782,237.25002c0,-1.38071 1.11929,-2.5 2.5,-2.5c1.38071,0 2.5,1.11929 2.5,2.5c0,1.38071 -1.11929,2.5 -2.5,2.5c-1.38071,0 -2.5,-1.11929 -2.5,-2.5z" fill="#2b6dfc" stroke-width="0.5"/><path d="M226.00782,153.75c0,-2.07107 1.67893,-3.75 3.75,-3.75c2.07107,0 3.75,1.67893 3.75,3.75c0,2.07107 -1.67893,3.75 -3.75,3.75c-2.07107,0 -3.75,-1.67893 -3.75,-3.75z" fill="#003ab7" stroke-width="0.5"/><path d="M159.00782,184.75c0,-2.07107 1.67893,-3.75 3.75,-3.75c2.07107,0 3.75,1.67893 3.75,3.75c0,2.07107 -1.67893,3.75 -3.75,3.75c-2.07107,0 -3.75,-1.67893 -3.75,-3.75z" fill="#003ab7" stroke-width="0.5"/><path d="M304.50782,166.75c0,-2.07107 1.67893,-3.75 3.75,-3.75c2.07107,0 3.75,1.67893 3.75,3.75c0,2.07107 -1.67893,3.75 -3.75,3.75c-2.07107,0 -3.75,-1.67893 -3.75,-3.75z" fill="#003ab7" stroke-width="0.5"/><path d="M265.77758,129.65382c0,-2.07107 1.67893,-3.75 3.75,-3.75c2.07107,0 3.75,1.67893 3.75,3.75c0,2.07107 -1.67893,3.75 -3.75,3.75c-2.07107,0 -3.75,-1.67893 -3.75,-3.75z" fill="#003ab7" stroke-width="0.5"/><path d="M308.77758,178.15382c0,-2.07107 1.67893,-3.75 3.75,-3.75c2.07107,0 3.75,1.67893 3.75,3.75c0,2.07107 -1.67893,3.75 -3.75,3.75c-2.07107,0 -3.75,-1.67893 -3.75,-3.75z" fill="#003ab7" stroke-width="0.5"/><path d="M248.50782,150.25c0,-2.07107 1.67893,-3.75 3.75,-3.75c2.07107,0 3.75,1.67893 3.75,3.75c0,2.07107 -1.67893,3.75 -3.75,3.75c-2.07107,0 -3.75,-1.67893 -3.75,-3.75z" fill="#2866ec" stroke-width="0.5"/><path d="M271.00782,177.75c0,-2.07107 1.67893,-3.75 3.75,-3.75c2.07107,0 3.75,1.67893 3.75,3.75c0,2.07107 -1.67893,3.75 -3.75,3.75c-2.07107,0 -3.75,-1.67893 -3.75,-3.75z" fill="#2866ec" stroke-width="0.5"/><path d="M251.16171,114.86489c0,-2.07107 1.67893,-3.75 3.75,-3.75c2.07107,0 3.75,1.67893 3.75,3.75c0,2.07107 -1.67893,3.75 -3.75,3.75c-2.07107,0 -3.75,-1.67893 -3.75,-3.75z" fill="#2866ec" stroke-width="0.5"/><path d="M245.00782,251.25002c0,-2.07107 1.67893,-3.75 3.75,-3.75c2.07107,0 3.75,1.67893 3.75,3.75c0,2.07107 -1.67893,3.75 -3.75,3.75c-2.07107,0 -3.75,-1.67893 -3.75,-3.75z" fill="#003ab7" stroke-width="0.5"/><path d="M197.67448,236.75002c0,-2.07107 1.67893,-3.75 3.75,-3.75c2.07107,0 3.75,1.67893 3.75,3.75c0,2.07107 -1.67893,3.75 -3.75,3.75c-2.07107,0 -3.75,-1.67893 -3.75,-3.75z" fill="#003ab7" stroke-width="0.5"/><path d="M258.00782,250.75002c0,-2.07107 1.67893,-3.75 3.75,-3.75c2.07107,0 3.75,1.67893 3.75,3.75c0,2.07107 -1.67893,3.75 -3.75,3.75c-2.07107,0 -3.75,-1.67893 -3.75,-3.75z" fill="#003fc6" stroke-width="0.5"/><path d="M219.50782,249.25002c0,-2.07107 1.67893,-3.75 3.75,-3.75c2.07107,0 3.75,1.67893 3.75,3.75c0,2.07107 -1.67893,3.75 -3.75,3.75c-2.07107,0 -3.75,-1.67893 -3.75,-3.75z" fill="#003fc6" stroke-width="0.5"/><path d="M209.00782,239.25002c0,-2.07107 1.67893,-3.75 3.75,-3.75c2.07107,0 3.75,1.67893 3.75,3.75c0,2.07107 -1.67893,3.75 -3.75,3.75c-2.07107,0 -3.75,-1.67893 -3.75,-3.75z" fill="#003fc6" stroke-width="0.5"/><path d="M226.00782,107.25002c0,-0.69035 0.55964,-1.25 1.25,-1.25c0.69036,0 1.25,0.55965 1.25,1.25c0,0.69035 -0.55964,1.25 -1.25,1.25c-0.69036,0 -1.25,-0.55965 -1.25,-1.25z" fill="#003ab7" stroke-width="0.5"/><path d="M230.50782,142.75001c0,-0.69035 0.55964,-1.25 1.25,-1.25c0.69036,0 1.25,0.55965 1.25,1.25c0,0.69035 -0.55964,1.25 -1.25,1.25c-0.69036,0 -1.25,-0.55965 -1.25,-1.25z" fill="#003ab7" stroke-width="0.5"/><path d="M251.50782,102.75002c0,-0.69035 0.55964,-1.25 1.25,-1.25c0.69036,0 1.25,0.55965 1.25,1.25c0,0.69035 -0.55964,1.25 -1.25,1.25c-0.69036,0 -1.25,-0.55965 -1.25,-1.25z" fill="#2866ec" stroke-width="0.5"/><path d="M241.3346,127.51961c0,-0.69035 0.55964,-1.25 1.25,-1.25c0.69036,0 1.25,0.55965 1.25,1.25c0,0.69035 -0.55964,1.25 -1.25,1.25c-0.69036,0 -1.25,-0.55965 -1.25,-1.25z" fill="#2b6dfc" stroke-width="0.5"/><path d="M246.00782,89.25002c0,-0.69035 0.55964,-1.25 1.25,-1.25c0.69036,0 1.25,0.55965 1.25,1.25c0,0.69035 -0.55964,1.25 -1.25,1.25c-0.69036,0 -1.25,-0.55965 -1.25,-1.25z" fill="#003ab7" stroke-width="0.5"/><path d="M216.50782,154.25c0,-0.69036 0.55964,-1.25 1.25,-1.25c0.69036,0 1.25,0.55964 1.25,1.25c0,0.69036 -0.55964,1.25 -1.25,1.25c-0.69036,0 -1.25,-0.55964 -1.25,-1.25z" fill="#2b6dfc" stroke-width="0.5"/><path d="M230.00782,194.75002c0,-0.69036 0.55964,-1.25 1.25,-1.25c0.69036,0 1.25,0.55964 1.25,1.25c0,0.69036 -0.55964,1.25 -1.25,1.25c-0.69036,0 -1.25,-0.55964 -1.25,-1.25z" fill="#2b6dfc" stroke-width="0.5"/><path d="M231.50782,227.25002c0,-0.69036 0.55964,-1.25 1.25,-1.25c0.69036,0 1.25,0.55964 1.25,1.25c0,0.69036 -0.55964,1.25 -1.25,1.25c-0.69036,0 -1.25,-0.55964 -1.25,-1.25z" fill="#2b6dfc" stroke-width="0.5"/><path d="M241.50782,214.25002c0,-0.69036 0.55964,-1.25 1.25,-1.25c0.69036,0 1.25,0.55964 1.25,1.25c0,0.69036 -0.55964,1.25 -1.25,1.25c-0.69036,0 -1.25,-0.55964 -1.25,-1.25z" fill="#2b6dfc" stroke-width="0.5"/><path d="M248.00782,203.75002c0,-0.69036 0.55964,-1.25 1.25,-1.25c0.69036,0 1.25,0.55964 1.25,1.25c0,0.69036 -0.55964,1.25 -1.25,1.25c-0.69036,0 -1.25,-0.55964 -1.25,-1.25z" fill="#2b6dfc" stroke-width="0.5"/><path d="M206.17188,128.16669c0,-1.38071 1.11929,-2.5 2.5,-2.5c1.38071,0 2.5,1.11929 2.5,2.5c0,1.38071 -1.11929,2.5 -2.5,2.5c-1.38071,0 -2.5,-1.11929 -2.5,-2.5z" fill="#003ab7" stroke-width="0.5"/><path d="M260.50521,243.83336c0,-1.38071 1.11929,-2.5 2.5,-2.5c1.38071,0 2.5,1.11929 2.5,2.5c0,1.38071 -1.11929,2.5 -2.5,2.5c-1.38071,0 -2.5,-1.11929 -2.5,-2.5z" fill="#003ab7" stroke-width="0.5"/><path d="M222.33854,228.50002c0,-1.38071 1.11929,-2.5 2.5,-2.5c1.38071,0 2.5,1.11929 2.5,2.5c0,1.38071 -1.11929,2.5 -2.5,2.5c-1.38071,0 -2.5,-1.11929 -2.5,-2.5z" fill="#003ab7" stroke-width="0.5"/><path d="M221.50521,120.83336c0,-1.10457 0.89543,-2 2,-2c1.10457,0 2,0.89543 2,2c0,1.10457 -0.89543,2 -2,2c-1.10457,0 -2,-0.89543 -2,-2z" fill="#2b6dfc" stroke-width="0.5"/><path d="M246.83854,94.83336c0,-1.10457 0.89543,-2 2,-2c1.10457,0 2,0.89543 2,2c0,1.10457 -0.89543,2 -2,2c-1.10457,0 -2,-0.89543 -2,-2z" fill="#003ab7" stroke-width="0.5"/><path d="M250.5052,185.16669c0,-1.10457 0.89543,-2 2,-2c1.10457,0 2,0.89543 2,2c0,1.10457 -0.89543,2 -2,2c-1.10457,0 -2,-0.89543 -2,-2z" fill="#2b6dfc" stroke-width="0.5"/><path d="M216.83854,178.83336c0,-1.10457 0.89543,-2 2,-2c1.10457,0 2,0.89543 2,2c0,1.10457 -0.89543,2 -2,2c-1.10457,0 -2,-0.89543 -2,-2z" fill="#2b6dfc" stroke-width="0.5"/><path d="M180.33854,170.33336c0,-1.10457 0.89543,-2 2,-2c1.10457,0 2,0.89543 2,2c0,1.10457 -0.89543,2 -2,2c-1.10457,0 -2,-0.89543 -2,-2z" fill="#2b6dfc" stroke-width="0.5"/><path d="M206.42188,178.16669c0,-0.69036 0.55964,-1.25 1.25,-1.25c0.69036,0 1.25,0.55964 1.25,1.25c0,0.69036 -0.55964,1.25 -1.25,1.25c-0.69036,0 -1.25,-0.55964 -1.25,-1.25z" fill="#003ab7" stroke-width="0.5"/><path d="M248.58854,233.50002c0,-0.69036 0.55964,-1.25 1.25,-1.25c0.69036,0 1.25,0.55964 1.25,1.25c0,0.69036 -0.55964,1.25 -1.25,1.25c-0.69036,0 -1.25,-0.55964 -1.25,-1.25z" fill="#2b6dfc" stroke-width="0.5"/><path d="M217.08854,196.50002c0,-0.69036 0.55964,-1.25 1.25,-1.25c0.69036,0 1.25,0.55964 1.25,1.25c0,0.69036 -0.55964,1.25 -1.25,1.25c-0.69036,0 -1.25,-0.55964 -1.25,-1.25z" fill="#2b6dfc" stroke-width="0.5"/><path d="M245.58854,229.16669c0,-0.69036 0.55964,-1.25 1.25,-1.25c0.69036,0 1.25,0.55964 1.25,1.25c0,0.69036 -0.55964,1.25 -1.25,1.25c-0.69036,0 -1.25,-0.55964 -1.25,-1.25z" fill="#2b6dfc" stroke-width="0.5"/><path d="M235.92188,206.16669c0,-0.69036 0.55964,-1.25 1.25,-1.25c0.69036,0 1.25,0.55964 1.25,1.25c0,0.69036 -0.55964,1.25 -1.25,1.25c-0.69036,0 -1.25,-0.55964 -1.25,-1.25z" fill="#2b6dfc" stroke-width="0.5"/><path d="M229.25782,171.75002c0,-1.65686 1.34314,-3 3,-3c1.65686,0 3,1.34314 3,3c0,1.65686 -1.34314,3 -3,3c-1.65686,0 -3,-1.34314 -3,-3z" fill="#003fc6" stroke-width="0.5"/><path d="M172.75782,177.25002c0,-1.65686 1.34314,-3 3,-3c1.65686,0 3,1.34314 3,3c0,1.65686 -1.34314,3 -3,3c-1.65686,0 -3,-1.34314 -3,-3z" fill="#003fc6" stroke-width="0.5"/><path d="M223.75782,187.75002c0,-1.65686 1.34314,-3 3,-3c1.65686,0 3,1.34314 3,3c0,1.65686 -1.34314,3 -3,3c-1.65686,0 -3,-1.34314 -3,-3z" fill="#003fc6" stroke-width="0.5"/></g><path d="M255.75782,219.08336c0,-1.38071 1.11929,-2.5 2.5,-2.5c1.38071,0 2.5,1.11929 2.5,2.5c0,1.38071 -1.11929,2.5 -2.5,2.5c-1.38071,0 -2.5,-1.11929 -2.5,-2.5z" fill="#0043d3" stroke-width="0.5"/><path d="M244.50521,195.83336c0,-1.38071 1.11929,-2.5 2.5,-2.5c1.38071,0 2.5,1.11929 2.5,2.5c0,1.38071 -1.11929,2.5 -2.5,2.5c-1.38071,0 -2.5,-1.11929 -2.5,-2.5z" fill="#003ab7" stroke-width="0.5"/><path d="M284.00521,176.83336c0,-1.38071 1.11929,-2.5 2.5,-2.5c1.38071,0 2.5,1.11929 2.5,2.5c0,1.38071 -1.11929,2.5 -2.5,2.5c-1.38071,0 -2.5,-1.11929 -2.5,-2.5z" fill="#003ab7" stroke-width="0.5"/><path d="M294.50521,176.83336c0,-1.38071 1.11929,-2.5 2.5,-2.5c1.38071,0 2.5,1.11929 2.5,2.5c0,1.38071 -1.11929,2.5 -2.5,2.5c-1.38071,0 -2.5,-1.11929 -2.5,-2.5z" fill="#003ab7" stroke-width="0.5"/><path d="M261.50521,178.33336c0,-1.38071 1.11929,-2.5 2.5,-2.5c1.38071,0 2.5,1.11929 2.5,2.5c0,1.38071 -1.11929,2.5 -2.5,2.5c-1.38071,0 -2.5,-1.11929 -2.5,-2.5z" fill="#003ab7" stroke-width="0.5"/><path d="M211.25782,218.25002c0,-1.65686 1.34314,-3 3,-3c1.65686,0 3,1.34314 3,3c0,1.65686 -1.34314,3 -3,3c-1.65686,0 -3,-1.34314 -3,-3z" fill="#003fc6" stroke-width="0.5"/><path d="M212.09115,228.25002c0,-1.65686 1.34314,-3 3,-3c1.65686,0 3,1.34314 3,3c0,1.65686 -1.34314,3 -3,3c-1.65686,0 -3,-1.34314 -3,-3z" fill="#003fc6" stroke-width="0.5"/></g><path d="M304.84994,185.69298c-2.50158,18.80422 -31.31485,33.63678 -66.49117,33.63678c-18.60322,0 -35.42675,-4.1485 -47.51991,-10.83902" fill="none" stroke-opacity="0.40392" stroke="#99eeff" stroke-width="10" stroke-linecap="butt"/></g></g></svg>