<svg version="1.1" xmlns="http://www.w3.org/2000/svg" xmlns:xlink="http://www.w3.org/1999/xlink" width="647.20924" height="143.00388" viewBox="0,0,647.20924,143.00388"><defs><linearGradient x1="303.71007" y1="254.88349" x2="289.62248" y2="309.08262" gradientUnits="userSpaceOnUse" id="color-1"><stop offset="0" stop-color="#c3e060"/><stop offset="1" stop-color="#6de01b"/></linearGradient><linearGradient x1="161.96289" y1="256.34954" x2="184.26017" y2="307.71916" gradientUnits="userSpaceOnUse" id="color-2"><stop offset="0" stop-color="#c3e060"/><stop offset="1" stop-color="#6de01b"/></linearGradient></defs><g transform="translate(99.46614,-259.24823)"><g data-paper-data="{&quot;isPaintingLayer&quot;:true}" fill-rule="nonzero" stroke-linecap="butt" stroke-linejoin="miter" stroke-miterlimit="10" stroke-dasharray="" stroke-dashoffset="0" style="mix-blend-mode: normal"><path d="M-14.9888,356.2288l175.4751,-74.1144l17.5087,41.4541l-175.4751,74.1145z" fill="#c06520" stroke="#662900" stroke-width="1.5215"/><path d="M303.4736,283.2242l243.3692,54.7812l-9.1895,40.8249l-243.3691,-54.7812z" fill="#c06520" stroke="#662900" stroke-width="1.50655"/><path d="M352.58438,328.796l-2.6134,-10.15577l8.39817,-4.0844l5.16548,6.08784l-1.792,8.23414z" fill="#deb35c" stroke="none" stroke-width="2.70748"/><path d="M131.87985,337.0674l-8.90455,1.31401l-2.35573,-6.96191l5.80453,-3.64052l6.71245,2.03476z" fill="#deb35c" stroke="none" stroke-width="2.70748"/><path d="M88.67226,344.19856l-2.74763,-4.81459l2.37233,-5.51411l6.45804,0.12688l0.11602,7.39075z" data-paper-data="{&quot;index&quot;:null}" fill="#deb35c" stroke="none" stroke-width="2.70748"/><path d="M103.90346,336.52273l1.95925,4.32558l-4.08064,1.27431l-3.29177,-4.08898z" data-paper-data="{&quot;index&quot;:null}" fill="#deb35c" stroke="none" stroke-width="0"/><path d="M147.33831,314.73647l0.12981,4.5492l-5.02064,0.14402l-1.68637,-4.67013z" data-paper-data="{&quot;index&quot;:null}" fill="#deb35c" stroke="none" stroke-width="0"/><path d="M391.15445,331.34787l7.03422,1.19457l3.33196,6.64998l-5.65127,6.07957l-7.28702,-5.75921z" data-paper-data="{&quot;index&quot;:null}" fill="#deb35c" stroke="none" stroke-width="2.70748"/><path d="M409.99099,331.77543l6.80993,2.87429l-2.29989,6.03596l-6.00125,0.13565l-3.43596,-4.35017z" fill="#deb35c" stroke="none" stroke-width="2.70748"/><path d="M427.2556,341.29067l3.50721,4.14606l-2.44983,3.80058l-4.1148,-2.86707z" fill="#deb35c" stroke="none" stroke-width="0"/><path d="M458.03179,345.50913l6.80993,2.87429l-2.29989,6.03597l-6.00125,0.13564l-3.43596,-4.35017z" data-paper-data="{&quot;index&quot;:null}" fill="#deb35c" stroke="none" stroke-width="2.70748"/><path d="M538.15658,325.9754l-10.59482,40.64166l-6.82485,-10.0418l-13.08963,10.02742l-7.53089,-15.39191l-11.60458,8.34719l-5.74285,-12.86017l-15.70811,9.34622l-11.29982,-14.30581l-7.25923,10.51099l-11.23137,-13.25473l-13.06531,5.9006l-9.01594,-13.71168l-16.26265,6.10209l-6.81509,-14.17245l-14.78735,8.55252l-10.74282,-15.19426l-15.75951,4.1664l-6.32173,-11.97748l-15.29048,10.4882l-10.50479,-12.01709l-10.87041,9.55613l-9.31856,-12.05436c0.57315,-1.36377 1.00277,-2.8606 1.5177,-4.28297c1.39137,-3.8433 3.84929,-8.28435 4.99579,-12.36079c0.61231,-2.1771 2.586,-4.62536 1.50997,-6.61455c-0.8387,-1.55047 -2.04767,-3.00746 -3.46593,-4.22504c0.93814,-2.88608 3.52084,-6.91179 5.8475,-8.52724c1.77733,-1.23404 6.54034,-2.05505 12.00659,-0.59683c16.39875,4.37465 217.22918,57.94974 217.22918,57.94974z" data-paper-data="{&quot;origPos&quot;:null,&quot;origRot&quot;:0}" fill-opacity="0.29412" fill="#662900" stroke="#0f6600" stroke-width="0"/><path d="M-97.03433,376.65188c0,0 235.28991,-101.56752 246.60085,-106.3913c3.77032,-1.60793 7.36414,-3.21753 9.96034,-1.71195c2.88434,1.67269 5.23964,4.65691 6.41383,7.41885c1.55461,3.65678 2.59019,6.09269 3.47283,8.16885c-1.05824,1.46099 -1.87426,3.17844 -2.55682,4.77108c-0.69328,1.61764 0.24048,4.00826 1.03394,5.94619c0.03093,0.84402 0.13911,1.7422 0.33194,2.69373c0.17456,0.86139 1.66525,8.11376 4.0279,12.93234c0.08933,0.1939 0.18468,0.38446 0.28582,0.57143l-0.42871,2.40773l-11.16901,-10.42354l-7.05354,11.78013l-14.61868,-5.64885l-9.31858,19.30295l-20.99986,-5.06078l-4.92822,14.1283l-16.08213,-3.92396l-9.04963,14.82611l-10.76099,-9.50238l-8.65146,15.74342l-19.80536,-2.30883l0.92028,14.86132l-24.85754,-1.20722l-3.06663,13.32072l-13.95157,-9.20836l-8.25329,16.66074l-16.48031,-4.84128l0.6566,11.7056l-15.54949,-5.24506l-1.73765,13.83425z" data-paper-data="{&quot;origPos&quot;:null,&quot;origRot&quot;:0}" fill-opacity="0.29412" fill="#662900" stroke="#0f6600" stroke-width="0"/><path d="M538.15658,318.9754l-10.59482,40.64166l-6.82485,-10.0418l-13.08963,10.02742l-7.53089,-15.39191l-11.60458,8.34719l-5.74285,-12.86017l-15.70811,9.34622l-11.29982,-14.30581l-7.25923,10.51099l-11.23137,-13.25473l-13.06531,5.9006l-9.01594,-13.71168l-16.26265,6.10209l-6.81509,-14.17245l-14.78735,8.55252l-10.74282,-15.19426l-15.75951,4.1664l-6.32173,-11.97748l-15.29048,10.4882l-10.50479,-12.01709l-10.87041,9.55613l-10.98359,-14.20822l-0.17958,0.05741c2.63921,-9.84846 3.61175,-15.03024 6.25096,-24.8787c0.77733,-2.90071 3.53191,-7.32272 5.99867,-9.03545c1.77733,-1.23404 6.54034,-2.05505 12.00659,-0.59683c16.39875,4.37465 217.22918,57.94974 217.22918,57.94974z" data-paper-data="{&quot;origPos&quot;:null,&quot;origRot&quot;:0}" fill="url(#color-1)" stroke="#0f6600" stroke-width="2"/><path d="M-97.03433,369.65188c0,0 235.28991,-101.56752 246.60085,-106.3913c3.77032,-1.60793 7.36414,-3.21753 9.96034,-1.71195c2.88434,1.67269 5.23964,4.65691 6.41383,7.41885c4.40823,10.36912 4.64321,10.92183 9.05145,21.29095l-2.88454,16.20041l-11.16901,-10.42354l-7.05354,11.78013l-14.61868,-5.64885l-9.31858,19.30295l-20.99986,-5.06078l-4.92822,14.1283l-16.08213,-3.92396l-9.04963,14.82611l-10.76099,-9.50238l-8.65146,15.74342l-19.80536,-2.30883l0.92028,14.86132l-24.85754,-1.20722l-3.06663,13.32072l-13.95157,-9.20836l-8.25329,16.66074l-16.48031,-4.84128l0.6566,11.7056l-15.54949,-5.24506l-1.73765,13.83425z" data-paper-data="{&quot;origPos&quot;:null,&quot;origRot&quot;:0}" fill="url(#color-2)" stroke="#0f6600" stroke-width="2"/></g></g></svg>