<svg version="1.1" xmlns="http://www.w3.org/2000/svg" xmlns:xlink="http://www.w3.org/1999/xlink" width="539" height="418" viewBox="0,0,539,418"><g transform="translate(28.5,31.5)"><g data-paper-data="{&quot;isPaintingLayer&quot;:true}" fill-rule="nonzero" stroke-linecap="butt" stroke-linejoin="miter" stroke-miterlimit="10" stroke-dasharray="" stroke-dashoffset="0" style="mix-blend-mode: normal"><g fill="#8a2ff2" stroke="#1b092f" stroke-width="4"><path d="M22.83432,327.159l-1.46985,-3.91958l-2.08759,3.51484l-5.15508,-0.59646l-2.89709,-13.88892l6.96578,-1.129l0.72426,9.28768l2.98227,-3.49353l2.27933,3.89827l1.74677,-7.264l5.73024,1.51244l-3.81306,11.73743z"/><path d="M39.76944,327.43594l-0.63907,-1.29944l-6.3267,1.25683l-1.9172,-5.51723l4.70775,-2.44973l3.08879,1.04381l0.23433,-1.9172l-6.98707,0.59646l1.40594,-4.3456l7.49831,0.93729l3.34442,2.87577l-1.38463,4.83556l1.44853,3.0036zM38.4487,322.57907l-2.91838,-0.21302l0.68167,2.70536l2.08759,-1.27813z"/><path d="M46.47957,327.28681l-2.21542,-15.78479l6.00717,0.44733l0.78818,14.52798z"/><path d="M60.21936,327.2229v-1.12902l-4.17521,0.78818l-3.87697,-2.68405l0.74559,-8.43559l5.85804,-0.1704l-1.40592,7.62611l2.81186,-0.85207l0.25563,-4.96338l5.66634,0.66037l-1.49116,8.60603z"/><path d="M67.2064,327.1164v-10.20366l5.38941,0.53255l-1.04379,9.20249zM67.69636,315.93284l-0.48996,-4.83556l6.135,0.83078l-0.85209,4.11128z"/><path d="M82.09652,331.99456l-5.66634,-1.93848l2.1302,-3.02488l3.15271,1.46983l1.04379,-1.25681l-0.25561,-1.68287l-6.11369,1.23552l-3.08879,-5.81545l3.36573,-5.30421l4.57993,1.42724l-0.34083,-1.74677l5.219,0.19172l0.97989,13.07944zM81.69178,320.38496l-3.30181,-0.34083l1.0225,3.55743l2.62014,-1.27811z"/><path d="M88.52973,327.1164v-10.20366l5.38941,0.53255l-1.04381,9.20249zM89.01967,315.93284l-0.48994,-4.83556l6.13498,0.83078l-0.85209,4.11128z"/></g><g fill="#8a2ff2" stroke="none" stroke-width="6.93"><path d="M22.83432,327.159l-1.46985,-3.91958l-2.08759,3.51484l-5.15508,-0.59646l-2.89709,-13.88892l6.96578,-1.129l0.72426,9.28768l2.98227,-3.49353l2.27933,3.89827l1.74677,-7.264l5.73024,1.51244l-3.81306,11.73743z"/><path d="M39.76944,327.43594l-0.63907,-1.29944l-6.3267,1.25683l-1.9172,-5.51723l4.70775,-2.44973l3.08879,1.04381l0.23433,-1.9172l-6.98707,0.59646l1.40594,-4.3456l7.49831,0.93729l3.34442,2.87577l-1.38463,4.83556l1.44853,3.0036zM38.4487,322.57907l-2.91838,-0.21302l0.68167,2.70536l2.08759,-1.27813z"/><path d="M46.47957,327.28681l-2.21542,-15.78479l6.00717,0.44733l0.78818,14.52798z"/><path d="M60.21936,327.2229v-1.12902l-4.17521,0.78818l-3.87697,-2.68405l0.74559,-8.43559l5.85804,-0.1704l-1.40592,7.62611l2.81186,-0.85207l0.25563,-4.96338l5.66634,0.66037l-1.49116,8.60603z"/><path d="M67.2064,327.1164v-10.20366l5.38941,0.53255l-1.04379,9.20249zM67.69636,315.93284l-0.48996,-4.83556l6.135,0.83078l-0.85209,4.11128z"/><path d="M82.09652,331.99456l-5.66634,-1.93848l2.1302,-3.02488l3.15271,1.46983l1.04379,-1.25681l-0.25561,-1.68287l-6.11369,1.23552l-3.08879,-5.81545l3.36573,-5.30421l4.57993,1.42724l-0.34083,-1.74677l5.219,0.19172l0.97989,13.07944zM81.69178,320.38496l-3.30181,-0.34083l1.0225,3.55743l2.62014,-1.27811z"/><path d="M88.52973,327.1164v-10.20366l5.38941,0.53255l-1.04381,9.20249zM89.01967,315.93284l-0.48994,-4.83556l6.13498,0.83078l-0.85209,4.11128z"/></g><path d="M-28.5,-11.5l23,-20v20z" fill="#ffffff" stroke="#000174" stroke-width="0"/><path d="M510.5,366.5l-23,20v-20z" data-paper-data="{&quot;index&quot;:null}" fill="#ffffff" stroke="#000174" stroke-width="0"/><text transform="translate(12.44987,346.03391) scale(0.39578,0.39578)" font-size="40" xml:space="preserve" fill="#ffffff" fill-rule="nonzero" stroke="none" stroke-width="1" stroke-linecap="butt" stroke-linejoin="miter" stroke-miterlimit="10" stroke-dasharray="" stroke-dashoffset="0" font-family="Sans Serif" font-weight="normal" text-anchor="start" style="mix-blend-mode: normal"><tspan x="0" dy="0">Springy</tspan></text><text transform="translate(73.24999,345.3106) scale(0.2647,0.2647)" font-size="40" xml:space="preserve" fill-opacity="0.74902" fill="#ffffff" fill-rule="nonzero" stroke="none" stroke-width="1" stroke-linecap="butt" stroke-linejoin="miter" stroke-miterlimit="10" stroke-dasharray="" stroke-dashoffset="0" font-family="Sans Serif" font-weight="normal" text-anchor="start" style="mix-blend-mode: normal"><tspan x="0" dy="0">- press space in mid-air to toggle spring mode</tspan></text><path d="M307.95,341.8c0,-3.53462 2.86538,-6.4 6.4,-6.4c3.53462,0 6.4,2.86538 6.4,6.4c0,3.53462 -2.86538,6.4 -6.4,6.4c-3.53462,0 -6.4,-2.86538 -6.4,-6.4z" fill-opacity="0.74902" fill="#ffffff" stroke="none" stroke-width="0"/><path d="M312.10494,345.58333v-7.5h4.23612v7.5z" fill="none" stroke="#333333" stroke-width="1"/><path d="M313.58333,344.16667c0,-0.32217 0.26117,-0.58333 0.58333,-0.58333c0.32217,0 0.58333,0.26117 0.58333,0.58333c0,0.32217 -0.26117,0.58333 -0.58333,0.58333c-0.32217,0 -0.58333,-0.26117 -0.58333,-0.58333z" fill="#333333" stroke="none" stroke-width="0"/></g></g></svg>