<svg version="1.1" xmlns="http://www.w3.org/2000/svg" xmlns:xlink="http://www.w3.org/1999/xlink" width="182.15746" height="217.26154" viewBox="0,0,182.15746,217.26154"><g transform="translate(-145.04414,-72.35042)"><g data-paper-data="{&quot;isPaintingLayer&quot;:true}" fill-rule="nonzero" stroke-linejoin="miter" stroke-miterlimit="10" stroke-dasharray="" stroke-dashoffset="0" style="mix-blend-mode: normal"><g stroke="none" stroke-width="0" stroke-linecap="butt"><path d="M250.45257,195.65075c4.14677,-3.02915 12.42085,2.59022 14.25396,5.78237c5.69712,9.92085 9.51818,24.38288 12.29737,31.18361c0.74708,1.82812 -1.55588,5.87216 -4.91666,6.39999c-3.36075,0.52781 -3.97091,-1.49871 -5.89558,-3.42309c-1.92468,-1.92437 -8.0666,-9.30001 -10.62113,-13.09103c-5.21359,-7.73715 -8.73143,-10.93638 -9.2045,-13.64335c0,0 -1.56891,-9.07723 4.08657,-13.20849z" data-paper-data="{&quot;index&quot;:null}" fill="#372b45"/><g><path d="M269.23322,267.75022c-2.40407,11.92694 -19.96516,6.08815 -24.54621,2.91913c-4.58105,-3.16902 3.5504,-17.15713 10.47225,-27.1631c6.92181,-10.00597 12.33776,-18.59815 18.24415,-14.24459c4.89938,5.53811 0.10796,9.72801 -0.75917,17.7312c-0.86715,8.00319 -2.1823,14.66132 -3.41103,20.75738z" fill="#372b45"/><path d="M293.08381,271.78422c2.44253,0.44774 -1.0545,12.85277 -7.69135,16.077c-8.78983,4.27016 -22.55689,-0.51294 -30.12581,-1.3136c-14.47467,-1.53121 -17.93642,-7.94768 -13.56009,-16.73709c2.72063,-5.4641 0.32677,4.47579 13.55969,2.65205c2.12308,-0.29261 11.10044,-1.16946 17.23908,-1.85112c4.96467,0.33285 7.62887,2.72126 10.97003,2.55301c3.46713,-1.1853 1.64131,-2.84068 9.60847,-1.38024z" fill="#ff7f01"/></g></g><g data-paper-data="{&quot;index&quot;:null}" stroke="none" stroke-width="0" stroke-linecap="butt"><path d="M248.7757,182.14249c-5.11579,-0.13484 -7.49217,-2.32809 -9.42408,-7.08615c-1.9319,-4.75808 4.99879,-11.66187 8.49074,-12.82648c10.85262,-3.61954 24.02786,-5.04539 34.33601,-7.48675c0.99315,-0.23522 2.14604,7.25459 3.22116,10.11183c0.48062,1.27731 -13.42684,6.52969 -17.64866,8.28286c-8.6164,3.57802 -16.22813,9.07709 -18.97518,9.0047z" fill="#7100f3"/><g><path d="M302.46798,193.88269c-5.24464,-8.36745 -2.90007,-10.38038 3.87476,-17.10724c7.44839,-8.98409 14.31628,-6.7155 18.60581,-2.16583c3.91805,4.88473 2.88893,9.87597 -4.3726,18.16851c-6.86711,7.06247 -13.71737,5.22735 -18.10796,1.10453z" data-paper-data="{&quot;origRot&quot;:0}" fill="#ffffff"/><path d="M294.31459,186.06737c-2.41541,-2.74709 1.7999,-7.86192 6.64151,-12.3924c4.84162,-4.53049 9.48199,-10.64383 12.66129,-6.65235c3.55666,4.46525 2.06451,5.39617 -6.03036,12.60417c-9.22154,8.21124 -9.13604,11.14508 -13.2725,6.44057z" data-paper-data="{&quot;origRot&quot;:0}" fill="#ffffff"/><path d="M293.96781,178.01069c-2.61056,-3.28711 -5.92606,-5.54478 -9.79742,-8.40175c-3.65463,-2.69707 -8.00542,-5.92552 -6.13472,-11.14915c2.6087,-7.28456 9.08792,-2.84345 16.32134,1.04579c7.23341,3.88925 16.10618,8.25581 14.32555,11.56748c-1.78064,3.31167 -9.60718,13.3689 -14.71477,6.93761z" fill="#7100f3"/></g></g><g><path d="M257.42596,163.78196c8.21803,7.33277 9.42165,24.01853 9.94325,36.07541c0.48081,11.11403 -10.65035,16.82905 -24.73642,17.43844c-6.96015,0.30111 -11.41186,1.02243 -16.48559,-3.18442c-5.07371,-4.20684 -4.67294,-12.62738 -6.13039,-15.56748c-1.97229,-3.97868 -4.65602,-8.64635 -4.84179,-15.38757c0.23644,-8.50784 2.15874,-19.67243 16.24482,-20.28183c0,0 19.88346,-4.55567 26.00615,0.90747z" data-paper-data="{&quot;origPos&quot;:null,&quot;index&quot;:null}" fill="#372b45" stroke="none" stroke-width="0" stroke-linecap="butt"/><path d="M233.97945,159.03321c7.61747,-0.32956 16.53735,-2.71519 22.66001,2.74792c4.14468,3.6982 8.69566,17.9684 8.69566,17.9684c0,0 -17.15784,-1.1234 -21.5601,1.69987c-1.97383,1.26585 -7.93288,5.18061 -10.59739,6.31333c-1.39643,0.59361 -16.91585,1.84821 -16.12575,-11.2121c0.23644,-8.50784 2.84151,-16.90799 16.92758,-17.51739z" data-paper-data="{&quot;origPos&quot;:null,&quot;index&quot;:null}" fill="#7100f3" stroke="none" stroke-width="0" stroke-linecap="butt"/><path d="M229.37768,162.99677c0,0 5.10765,6.12478 6.80229,9.76499c1.97158,4.23503 5.78841,13.47057 5.78841,13.47057" data-paper-data="{&quot;origPos&quot;:null}" fill="none" stroke="#372b45" stroke-width="10.5" stroke-linecap="round"/><path d="M245.45099,185.77936c0.09325,2.15542 -1.68695,4.19847 -3.59937,4.28121c-1.91241,0.08274 -3.8624,-1.79896 -3.95566,-3.95435c-0.09325,-2.15542 1.68695,-4.19847 3.59936,-4.28121c1.91241,-0.08274 3.86241,1.79895 3.95567,3.95435z" fill="#ffea12" stroke="none" stroke-width="0" stroke-linecap="butt"/><path d="M250.54614,160.79923c0,0 3.70404,3.88119 5.3879,7.11384c1.68385,3.23265 6.3924,15.81388 6.3924,15.81388" data-paper-data="{&quot;origPos&quot;:null,&quot;origRot&quot;:0}" fill="none" stroke="#372b45" stroke-width="9.5" stroke-linecap="round"/><path d="M264.90227,181.84528c0.09325,2.15542 -1.3863,3.85841 -3.29871,3.94115c-1.91242,0.08274 -3.53352,-1.48614 -3.62676,-3.64153c-0.09325,-2.15542 1.38629,-3.85841 3.29871,-3.94116c1.91242,-0.08274 3.53352,1.48614 3.62675,3.64154z" data-paper-data="{&quot;origPos&quot;:null}" fill="#ffea12" stroke="none" stroke-width="0" stroke-linecap="butt"/></g><g stroke-linecap="butt"><path d="M223.39319,183.59997c-2.73292,0.28749 -10.75229,-4.59805 -19.6226,-7.48967c-4.34626,-1.41684 -18.6226,-5.56298 -18.24361,-6.87401c0.84786,-2.93273 1.41012,-10.48985 2.41868,-10.33323c10.46775,1.62588 23.71424,2.01464 34.81719,4.77239c3.57249,0.88735 11.02299,7.22662 9.46999,12.12149c-1.55301,4.89485 -3.75018,7.26764 -8.83966,7.80301z" fill="#7100f3" stroke="none" stroke-width="0"/><g><path d="M170.78629,199.51254c-4.05395,4.4543 -10.73927,6.82071 -18.13881,0.31821c-7.88916,-7.69785 -9.30637,-12.59309 -5.78323,-17.76988c3.91974,-4.87187 10.58866,-7.67183 18.71833,0.7008c7.28125,6.17512 9.77642,7.99811 5.20374,16.75087z" data-paper-data="{&quot;origRot&quot;:0}" fill="#ffffff" stroke="none" stroke-width="0"/><path d="M178.30205,191.08221c-3.75497,5.01424 -3.8997,2.08275 -13.73648,-5.38043c-8.6349,-6.5513 -10.19547,-7.36241 -6.99975,-12.09269c2.85668,-4.2284 7.96194,1.50239 13.14376,5.63945c5.18182,4.13703 9.78506,8.90573 7.59242,11.83369z" data-paper-data="{&quot;origRot&quot;:0}" fill="#ffffff" stroke="none" stroke-width="0"/><path d="M178.01623,183.02312c-4.58776,6.81181 -13.17856,-2.601 -15.21328,-5.76291c-2.03473,-3.16191 6.4685,-8.21051 13.37479,-12.65476c6.90631,-4.44424 13.01747,-9.37954 16.18915,-2.32187c2.27437,5.06094 -1.80995,8.62045 -5.24195,11.59569c-3.63552,3.15167 -6.76385,5.66223 -9.1087,9.14386z" fill="#7100f3" stroke="none" stroke-width="0"/><path d="M152.02666,192.99643l2.01153,-2.73436l4.05986,3.17743l5.16,-6.61794l3.51843,2.56365l-7.50141,9.27422z" data-paper-data="{&quot;index&quot;:null,&quot;origRot&quot;:0}" fill="#ffea12" stroke="#7100f3" stroke-width="1"/></g></g><path d="M219.36896,200.23224c0,0 4.54944,-7.63142 11.53537,-7.16313c5.12228,0.34341 7.94142,9.58683 7.33039,13.06348c-1.89907,10.80508 -8.12765,23.78138 -10.29847,30.4913c-0.58354,1.80372 -4.927,3.346 -7.85543,1.65359c-2.92843,-1.69238 -2.11328,-3.55697 -2.3774,-6.16004c-0.26409,-2.60308 -0.3234,-11.81582 0.11097,-16.17828c0.88652,-8.90348 0.20193,-13.4279 1.55463,-15.70693z" data-paper-data="{&quot;index&quot;:null}" fill="#372b45" stroke="none" stroke-width="0" stroke-linecap="butt"/><path d="M204.06634,260.54134c-8.81286,8.38835 -19.84457,-6.47051 -21.77782,-11.69458c-1.93329,-5.22407 12.75293,-12.01394 24.16346,-16.23666c11.4105,-4.22273 20.77648,-8.1517 23.1155,-1.19701c0.83455,7.34696 -5.49377,8.02899 -10.79641,14.08582c-5.30262,6.05685 -10.20031,10.75499 -14.70471,15.04245z" fill="#372b45" stroke="none" stroke-width="0" stroke-linecap="butt"/><path d="M216.45669,282.38471c1.34088,2.09007 -10.10938,8.00664 -16.99697,5.36005c-9.1219,-3.50512 -15.02914,-16.82863 -19.61291,-22.90466c-8.766,-11.61975 -6.44257,-18.53035 2.96684,-21.3355c5.84955,-1.74389 -3.0465,3.29516 7.32236,11.71672c1.66354,1.35116 8.43466,7.31055 13.12461,11.32947c3.14716,3.85414 3.22171,7.43139 5.62626,9.75728c3.23353,1.72338 3.19603,-0.74081 7.5698,6.07669z" fill="#ff7f01" stroke="none" stroke-width="0" stroke-linecap="butt"/><path d="M282.72231,106.39219c-0.53799,3.30363 -11.42777,7.51718 -20.00639,7.54011c-6.91268,0.01847 -5.2149,-5.8665 -5.22336,-9.03967c-0.00848,-3.17319 13.54036,-2.51724 20.45303,-2.53571c6.91266,-0.01847 5.12494,1.89683 4.77671,4.03525z" data-paper-data="{&quot;index&quot;:null}" fill="#2d0757" stroke="none" stroke-width="0" stroke-linecap="butt"/><path d="M262.20298,136.77212c0.06398,-0.02506 0.13129,-0.04847 0.20207,-0.06999c1.87019,-0.56847 2.43864,1.30172 2.43864,1.30172l-0.10862,0.08013c0.19848,0.27441 0.2861,0.51399 0.2861,0.51399c1.61495,4.41613 0.80277,11.19486 -0.76241,15.72467c-0.59285,1.71579 -3.47203,3.65228 -3.59166,4.97269c-1.17052,2.19284 -3.97523,2.44425 -6.23402,2.25065c-5.66984,-0.48596 -11.40962,-1.91466 -17.02153,-2.86967c-1.2305,-0.2094 -3.79009,-0.14595 -4.81739,-0.8198c-6.69394,-4.39078 -1.68175,-13.42007 -0.65668,-19.44364c0.63552,-3.73447 3.09852,-5.93542 7.05624,-5.82777c5.45549,0.14835 11.21965,1.83301 16.59994,2.74861c2.2481,0.38257 4.49623,0.76514 6.74433,1.14772z" data-paper-data="{&quot;index&quot;:null}" fill="#ffffff" stroke="none" stroke-width="0.5" stroke-linecap="butt"/><path d="M260.91153,144.58362c1.21135,0.15851 1.05281,1.36984 1.05281,1.36984l-0.06163,0.36761c-0.14232,0.83628 -0.25325,1.68221 -0.3529,2.53329c0.50772,-0.15859 1.01233,-0.31798 1.51297,-0.47015l0.97204,0.05676c0,0 1.22138,-0.02555 1.24695,1.19584c0.02555,1.22138 -1.19584,1.24695 -1.19584,1.24695l-0.3126,-0.16185c-0.82801,0.25169 -1.66878,0.51936 -2.51751,0.77288c-0.04942,0.43286 -0.10124,0.86587 -0.15805,1.29848l0.03298,0.00562l-0.27327,1.60579c-0.02591,0.1522 -0.07893,0.29302 -0.15328,0.41833c-0.17618,0.32553 -0.53896,0.70307 -1.25602,0.58105c-0.71708,-0.12203 -0.93454,-0.59836 -0.99313,-0.9638c-0.02871,-0.14282 -0.03218,-0.29328 -0.00628,-0.4455c0.10301,-0.60529 0.18961,-1.21157 0.26707,-1.81786c-0.92791,0.21144 -1.85967,0.37168 -2.7893,0.44287c-0.90449,0.00451 -1.80143,-0.00054 -2.69361,-0.01635c-0.17351,1.01961 -0.34702,2.03921 -0.52053,3.05884l-0.05465,0.32115c0,0 -0.20494,1.20434 -1.40929,0.99939c-1.20434,-0.20494 -0.99939,-1.40929 -0.99939,-1.40929c0.16846,-0.98997 0.34213,-2.01044 0.51777,-3.04262c-2.22651,-0.09244 -4.4399,-0.25999 -6.68562,-0.52182c-0.06576,0.38648 -0.13154,0.77293 -0.1973,1.15941l-0.16396,0.96347c0,0 -0.20494,1.20434 -1.40929,0.99939c-1.20434,-0.20494 -0.99939,-1.40929 -0.99939,-1.40929c0.1058,-0.62168 0.22302,-1.31052 0.34562,-2.03102c-0.66588,-0.09711 -1.34476,-0.15953 -2.01127,-0.31782c-2.31787,-0.55051 -6.1239,-3.85118 -4.1877,-4.68288c1.05086,-0.62303 3.3103,2.13315 4.5976,2.2742c0.6733,0.07378 1.33731,0.22704 2.00795,0.33732c0.21802,-1.28117 0.43285,-2.54354 0.61413,-3.60878c0,0 0.20494,-1.20434 1.40929,-0.99939c1.20434,0.20494 0.99939,1.40929 0.99939,1.40929c-0.20289,1.19226 -0.40578,2.38449 -0.60867,3.57674c2.228,0.32659 4.45818,0.58002 6.66325,0.65325c0.272,-1.59834 0.54336,-3.19296 0.80244,-4.7154c0,0 0.20494,-1.20434 1.40929,-0.99939c1.20434,0.20494 0.99939,1.40929 0.99939,1.40929c-0.24425,1.4353 -0.48849,2.87057 -0.73275,4.30587c0.71098,-0.02529 1.41822,-0.07398 2.12078,-0.14976c1.09332,-0.08373 2.18622,-0.3038 3.27118,-0.58586c0.13537,-1.2373 0.27553,-2.46891 0.48275,-3.68658l0.04767,-0.2747c0,0 0.15851,-1.21135 1.36984,-1.05281z" data-paper-data="{&quot;index&quot;:null}" fill="#a5b5ff" stroke="none" stroke-width="0.5" stroke-linecap="butt"/><path d="M212.73227,129.98594l0.09263,-0.34642c0.14021,-0.17663 0.2804,-0.35323 0.42062,-0.52986c5.45232,-3.24342 7.9551,5.29392 9.44963,8.64306c0.50008,1.12063 1.13826,2.06298 1.45898,3.24785c1.00544,3.75493 7.96646,13.3956 0.02964,13.67108c-1.00782,0.03498 -1.90076,-0.13942 -2.8918,-0.30808c-0.53882,-0.29948 -1.15032,-0.50857 -1.61641,-0.89843c-0.39947,-0.33417 -2.87829,-2.91704 -3.77203,-3.65666c-0.37554,-0.31077 -4.81053,-6.12164 -4.90548,-7.07217c-0.4293,-4.38931 0.84913,-8.12006 1.56659,-12.33603c0.02357,-0.13849 0.07437,-0.26621 0.14666,-0.37943c0.00671,-0.01158 0.01371,-0.02319 0.021,-0.03485z" data-paper-data="{&quot;index&quot;:null}" fill="#8e4108" stroke="none" stroke-width="0.5" stroke-linecap="butt"/><path d="M281.39803,104.20144c0,0 -0.0077,2.37377 -0.86125,3.48446c-0.85353,1.11071 -4.05474,2.91262 -4.05474,2.91262l-9.85365,4.66921" data-paper-data="{&quot;index&quot;:null}" fill="none" stroke="#a5b5ff" stroke-width="4.5" stroke-linecap="round"/><path d="M262.19236,164.73566c-0.48728,3.88054 0.14603,7.91497 -2.60102,10.39866c-1.18359,1.07012 -3.18863,2.03402 -3.81257,1.86906c-3.16602,-0.52547 -7.28083,-0.6709 -10.04569,-2.39768c-1.99422,-1.24546 -5.97039,-5.03031 -6.00029,-5.04631c-0.0307,-0.01431 -0.04724,-0.02314 -0.04724,-0.02314c-2.62572,-1.40158 -4.74898,-3.59858 -7.34124,-4.99195c-1.20585,-0.64817 -5.05194,-2.63571 -5.05194,-2.63571c-5.32659,-5.02792 -8.37657,-11.68509 -9.593,-18.84776c-0.46965,-3.04197 -0.62725,-6.08803 -1.09362,-9.10852l0.13582,-0.31086c-2.57647,-2.11882 -4.57514,-4.84443 -7.18743,-6.90756c-1.39123,-1.09873 -3.40702,-2.12772 -4.66306,-3.54253c-1.32445,-1.49183 -2.07314,-2.36246 -3.03512,-4.11013c-3.93058,-5.68705 -3.89377,-10.16116 -2.7598,-16.82471l0.23602,-0.90836c-0.04446,-0.26118 -0.0295,-0.56096 0.07901,-0.90163c0.08329,-0.35705 0.26889,-0.76179 0.66883,-1.05006c0.38138,-0.31242 0.8202,-0.38775 1.18668,-0.37649c0.51153,-0.02478 0.89262,0.11431 1.17564,0.32219c4.74812,2.06385 8.22957,5.07205 12.56871,7.81468c1.74677,1.1041 4.06085,1.31632 6.03825,2.00184c0.93615,0.32453 3.78075,1.11212 3.78075,1.11212c4.38614,0.7464 7.59832,-1.43682 11.92322,-2.30594c3.37346,-0.67791 6.57992,-0.06574 9.96312,-0.05611c5.78925,0.01975 9.71215,-2.22572 15.41758,-1.25479c0,0 4.06216,3.29929 4.27831,3.74849c1.98611,2.55706 1.87483,6.6555 1.33702,9.81579c-0.775,4.55414 -2.00107,9.28045 -2.12075,13.89987c-0.07897,2.19219 0.01181,4.26881 -0.3485,6.43513c0.0301,0.45244 -0.12707,0.82312 -0.32806,1.10591c-0.19322,0.34662 -0.51491,0.69094 -1.04916,0.83512c-3.03263,1.53022 -5.21832,0.56071 -8.3907,1.05991c-1.40078,0.22042 -2.71424,0.91175 -4.22759,0.88357c-2.44389,-0.04556 -4.92887,-0.79744 -7.36824,-0.70889c-2.85134,-0.00974 -5.97331,-0.6327 -8.73897,-1.51295c-0.25718,1.15318 -0.5047,2.3353 -0.50629,3.43643c-0.00661,4.59902 4.83945,8.80195 8.79875,9.93937c4.75862,1.43517 8.62736,0.61132 13.35707,-0.11896c1.37501,-0.2123 3.01681,-0.01403 4.3228,-0.33051c1.36133,-0.3299 2.48089,-0.95558 4.12718,-0.94996l1.40186,1.3083c0,0 1.71916,0.93017 0.78897,2.64932z" data-paper-data="{&quot;index&quot;:null}" fill="#ffdebd" stroke="none" stroke-width="0.5" stroke-linecap="butt"/><path d="M238.45608,114.94847c-0.4195,1.06712 -1.0382,1.99915 -1.42514,3.12137c-0.51993,1.5079 -0.54796,3.51896 -0.81978,5.11625c-0.16695,0.98109 3.56092,2.12681 5.36875,2.43447c0.4849,0.08252 3.37749,0.61051 3.34722,0.40195c0.81896,-0.37546 2.09999,-0.20421 2.82569,-0.65129c2.25439,-1.38883 4.42735,-3.49885 5.89722,-6.29729c0.18384,-0.35006 0.69729,-1.15669 0.30963,-1.14751c-0.20624,0.00487 -0.17615,0.5029 -0.38234,0.49976c-0.56605,-0.00861 -1.6125,-1.09522 -2.15573,-1.34216c-0.71175,-0.32355 -1.98279,-0.5082 -2.78477,-0.79136c-1.77681,-0.62734 -4.09614,-0.64504 -5.96651,-0.96334c-1.44417,-0.24576 -2.80964,-0.16688 -4.21423,-0.3808zM238.02773,112.51148c0.37247,0.06339 0.5759,0.24952 0.6853,0.45406c1.39988,0.22337 2.83729,0.14539 4.29267,0.39306c3.11006,0.52926 7.37823,0.73194 10.10468,2.42942c1.71262,1.06627 3.39969,2.05354 2.26169,4.22017c-1.76079,3.35232 -1.52985,4.89199 -4.72212,6.67183c-0.65043,0.36264 -4.00641,1.27818 -4.93299,1.16408c-0.92659,-0.11407 -7.39188,-0.37293 -9.52371,-1.95867c-0.89054,-0.66243 -2.10796,-1.85829 -1.90903,-3.02727c0.31444,-1.84775 0.41883,-3.94855 1.02471,-5.72261c0.46113,-1.35022 1.34086,-2.35263 1.58764,-3.80272c0,0 0.16769,-0.98535 1.13114,-0.8214z" data-paper-data="{&quot;index&quot;:null}" fill="#18c6ff" stroke="none" stroke-width="0.5" stroke-linecap="butt"/><path d="M248.81493,114.16429c2.10635,0.92631 1.71907,0.91231 2.82048,1.88523c1.10141,0.97293 2.24632,2.66425 2.06245,3.01431c-1.46987,2.79847 -1.37444,4.51922 -3.62885,5.90806c-0.7257,0.44708 -3.99165,0.95347 -5.12577,0.99846c-1.1341,0.04498 -2.90723,-0.22782 -3.39211,-0.31035c-1.80785,-0.30765 -5.55421,-1.48049 -5.38724,-2.4616c0.27182,-1.59728 0.30102,-3.63689 0.82096,-5.14478c0.38694,-1.1222 1.2028,-3.17197 1.62232,-4.23908c1.45612,-0.08889 2.52447,-0.61833 4.39376,-0.58571c1.86928,0.03262 3.70763,0.00915 5.81397,0.93545z" data-paper-data="{&quot;noHover&quot;:false,&quot;origItem&quot;:[&quot;Path&quot;,{&quot;applyMatrix&quot;:true,&quot;segments&quot;:[[[469.86056,340.47788],[2.90705,-0.05065],[-0.47996,2.2968]],[[468.0571,347.26415],[0.39535,-2.39679],[-0.53123,3.22051]],[[468.15973,357.86707],[0,-3.31566],[0,2.03658]],[[479.8264,360.93518],[-3.75277,0],[1.00657,0]],[[486.717,360.5969],[0.13271,0.41035],[1.52326,-1.03856]],[[492.19394,358.31293],[-1.31054,1.15106],[4.07119,-3.57579]],[[501.92903,343.58421],[-2.00456,6.15021],[0.25074,-0.76931]],[[502.15973,341.16292],[0.77893,-0.15165],[-0.41434,0.08067]],[[501.56,342.30239],[0.41704,-0.06448],[-1.14489,0.17701]],[[496.75028,340.33482],[1.18068,0.3117],[-1.54698,-0.4084]],[[490.86061,339.69435],[1.71512,0.2959],[-3.79987,-0.65558]],[[478.49306,339.79931],[3.88259,0],[-2.99782,0]]],&quot;closed&quot;:true}],&quot;index&quot;:null}" fill="#ffffff" stroke="none" stroke-width="0.5" stroke-linecap="butt"/><path d="M260.35256,119.19739c-0.21418,1.2586 -0.42837,2.51723 -0.64255,3.77584c-0.01641,0.09643 -0.25,1.4444 -0.24594,1.4452c0.16043,0.03118 -0.02778,-0.45176 0.13446,-0.47154c0.46905,-0.05713 2.23324,0.87446 3.23771,1.0454c0.19543,0.03326 2.40713,0.41792 2.4087,0.4099c0.03118,-0.16043 -0.45176,0.02778 -0.47154,-0.13447c-0.15623,-1.28275 0.86525,-4.60809 1.2871,-6.6566c-0.62378,0.29554 -1.69514,-0.62874 -2.50363,-0.76632c-0.7624,-0.12975 -1.86515,0.49952 -2.62232,1.08091l-0.56372,0.39976c0,0 -0.00748,-0.04843 -0.01829,-0.12811zM259.80396,117.33126c2.05286,-1.39046 4.87544,-2.41273 7.24874,-1.91303c1.07501,0.22637 1.25685,1.68519 1.0278,3.03113c-0.44671,2.62503 -0.31423,7.84713 -3.16341,8.87978c-0.50196,0.18192 -1.86699,-0.31771 -2.4087,-0.4099c-1.88962,-0.32157 -4.24807,-0.8335 -4.97122,-2.82874c-0.42884,-1.18323 0.71585,-4.20655 0.9291,-5.4597c0,0 0.14125,-0.83006 0.93202,-0.81818z" data-paper-data="{&quot;index&quot;:null}" fill="#18c6ff" stroke="none" stroke-width="0.5" stroke-linecap="butt"/><path d="M263.90866,115.77771c0.80849,0.13758 2.73221,0.82554 2.73221,0.82554c0,0 -1.34057,8.68096 -1.37174,8.84139c-0.00155,0.00802 -2.23901,-0.37027 -2.43445,-0.40353c-1.00446,-0.17094 -3.24702,-0.5594 -3.40744,-0.5906c-0.00407,-0.0008 0.22252,-1.35933 0.23893,-1.45575c0.21418,-1.2586 0.66645,-3.69969 0.66645,-3.69969c0,0 2.81366,-3.6471 3.57605,-3.51736z" data-paper-data="{&quot;noHover&quot;:false,&quot;origItem&quot;:[&quot;Path&quot;,{&quot;applyMatrix&quot;:true,&quot;segments&quot;:[[[515.49306,341.5323],[0.04917,0.15701],[0,2.61264]],[[515.49306,349.37022],[0,-2.61264],[0,0.20016]],[[515.49306,352.37022],[-0.00844,-0.0002],[0.33438,0.00784]],[[515.60246,351.37279],[-0.32053,0.09557],[0.92664,-0.27628]],[[522.49306,352.37022],[-2.08504,0],[0.4057,0]],[[527.49306,352.37022],[-0.00039,0.0167],[0.00784,-0.33438]],[[526.49563,352.26082],[0.09557,0.32053],[-0.75555,-2.53413]],[[526.80695,338.39],[-0.14773,4.27747],[-1.15693,0.81042]],[[521.49306,337.70356],[1.67827,0],[-1.5826,0]],[[516.57394,340.78444],[1.32792,-1.43284],[0,0]],[515.57394,341.78444]],&quot;closed&quot;:true}],&quot;index&quot;:null}" fill="#ffffff" stroke="none" stroke-width="0.5" stroke-linecap="butt"/><path d="M206.25787,110.37855l4.53512,3.71527c0,0 3.40727,1.37034 5.18336,2.94253c1.77608,1.57219 1.68383,1.99957 2.22655,3.61676c0.54272,1.6172 0.3282,1.74179 -0.34077,2.00246c-0.66895,0.2607 -3.14019,0.78203 -4.91688,0.04634c-1.77668,-0.7357 -2.32395,-3.04464 -2.32395,-3.04464l0.13681,-5.51051" data-paper-data="{&quot;index&quot;:null}" fill="none" stroke="#f6b09a" stroke-width="3" stroke-linecap="round"/><path d="M250.71154,120.32356c0.55236,0.09399 1.01419,0.40284 1.31495,0.82655c0.30098,0.4229 0.44007,0.96054 0.34624,1.51196c-0.09384,0.55142 -0.40296,1.0128 -0.82687,1.31234c-0.42396,0.30037 -0.96198,0.43908 -1.51433,0.34507c-0.55229,-0.09399 -1.01413,-0.40283 -1.31495,-0.82655c-0.3009,-0.42289 -0.44001,-0.96055 -0.34617,-1.51197c0.09384,-0.55142 0.40296,-1.01279 0.82681,-1.31233c0.42404,-0.30036 0.96205,-0.43906 1.51433,-0.34507z" data-paper-data="{&quot;index&quot;:null}" fill="#000000" stroke="none" stroke-width="1.05702" stroke-linecap="butt"/><path d="M271.40979,82.83521c2.19896,13.48224 -0.4061,14.25628 -7.64148,18.59368c-10.54254,6.31998 -24.35834,5.08317 -35.62423,9.99917c-2.95812,1.29079 -10.51478,-1.80602 -13.74226,-1.79739c-6.60114,0.01764 -10.33843,-4.69017 -10.62623,-10.30879c-0.63479,-12.39338 5.46846,-12.45775 12.06959,-12.47539c0,0 7.26796,1.18469 9.78763,5.0322c0,0 10.06233,-16.47029 20.71032,-18.53021c13.70693,-2.65164 23.48754,-0.19532 25.06668,9.48672z" data-paper-data="{&quot;index&quot;:null}" fill="#7100f3" stroke="none" stroke-width="0" stroke-linecap="butt"/><path d="M268.81849,90.53664c0.01319,4.93474 -1.29746,8.65086 -10.98706,8.96454c-10.2291,0.33112 -11.02165,-3.97095 -11.03482,-8.90568c-0.01319,-4.93474 4.90591,-8.94829 10.98707,-8.96453c6.08117,-0.01625 11.02164,3.97095 11.03481,8.90568z" data-paper-data="{&quot;index&quot;:null}" fill="#ffffff" stroke="none" stroke-width="0" stroke-linecap="butt"/><path d="M261.96426,83.78109l0.37099,3.19222l-4.8628,0.41868l0.69599,7.9142l-4.09167,0.4945l-0.78808,-11.26521z" data-paper-data="{&quot;index&quot;:null,&quot;origRot&quot;:0}" fill="#ffea12" stroke="#7100f3" stroke-width="1" stroke-linecap="butt"/><path d="M279.72168,143.07474l-6.99676,10.04495l-2.51463,-0.75837l-8.33661,-5.3842l-27.05228,1.6751l-3.8539,-0.65585l-2.34391,-3.70347l-3.11636,-12.75735l1.55792,-1.38717l7.78332,10.5774l14.40425,0.79895l11.7871,-1.29872l9.30008,5.54815l6.97646,-4.10012z" data-paper-data="{&quot;index&quot;:null}" fill="#000000" stroke="#ff0000" stroke-width="0" stroke-linecap="round"/><path d="M226.96874,111.33966c0.89442,0.1522 2.06218,2.00352 2.06322,2.35547c1.24097,1.7521 2.17229,4.28046 2.13754,6.43156c-0.01115,0.68941 -2.19378,3.94467 -2.63893,4.3667c-2.17285,1.16595 -5.00334,2.01029 -5.65133,-0.74358c-0.15082,-0.64101 1.25644,-3.04446 1.36851,-3.70291c0.38257,-2.2481 0.76514,-4.49621 1.14772,-6.74433c0,0 0.05272,-0.3098 0.26179,-0.58842l-0.09784,-0.37506c0,0 0.20494,-1.20434 1.40929,-0.99939z" data-paper-data="{&quot;index&quot;:null}" fill="#8e4108" stroke="none" stroke-width="0.5" stroke-linecap="butt"/><path d="M268.61078,96.02674c6.22175,0.06937 15.36042,5.93515 14.65599,8.69968c-0.19055,0.74784 -36.39867,2.47906 -46.94553,3.5519c-5.12589,0.52142 -15.32736,3.7833 -15.1368,3.03545c0.70446,-2.76453 4.97202,-8.33773 9.87376,-9.79158c5.92351,-1.7569 22.33293,-5.66513 37.5526,-5.49545z" data-paper-data="{&quot;index&quot;:null}" fill="#4f05a3" stroke="none" stroke-width="0" stroke-linecap="butt"/><path d="M223.01947,111.75703l27.33493,-5.44138l31.33382,-2.11498" data-paper-data="{&quot;index&quot;:null}" fill="none" stroke="#ffffff" stroke-width="4.5" stroke-linecap="round"/><path d="M257.2258,119.49723c-0.4113,1.91088 -2.32219,1.49959 -2.32219,1.49959l-1.58153,-1.36267c-0.69359,-0.77894 -1.38717,-1.55792 -2.08077,-2.33685c-3.91621,-4.69123 -11.63114,-3.34559 -16.72628,-1.48232c0,0 -1.83577,0.67131 -2.50709,-1.16444c-0.67131,-1.83576 1.16444,-2.50708 1.16444,-2.50708c6.80544,-2.4887 15.53904,-3.35406 20.98857,2.55416c0.69359,0.77894 1.97076,2.04787 1.97076,2.04787c0,0 1.50541,0.84088 1.0941,2.75177z" data-paper-data="{&quot;index&quot;:null}" fill="#000000" stroke="none" stroke-width="0.5" stroke-linecap="butt"/><path d="M270.11565,114.67986c0.65541,1.84151 -1.1861,2.49692 -1.1861,2.49692l-2.26796,-0.13316c-2.71474,-0.46198 -4.13045,-0.1435 -5.45719,2.342c0,0 -0.92046,1.72437 -2.64482,0.80393c-1.72439,-0.92045 -0.80393,-2.64482 -0.80393,-2.64482c2.06763,-3.87352 6.85621,-4.28563 6.85621,-4.28563c0,0 4.84837,-0.42068 5.50379,1.42081z" data-paper-data="{&quot;index&quot;:null}" fill="#000000" stroke="none" stroke-width="0.5" stroke-linecap="butt"/><path d="M265.29005,120.92098c0.47806,0.08135 0.87777,0.34866 1.13808,0.71538c0.26049,0.36603 0.38089,0.83134 0.29967,1.3086c-0.08122,0.47726 -0.34876,0.87655 -0.71565,1.1358c-0.36694,0.25998 -0.83258,0.38003 -1.31064,0.29867c-0.47801,-0.08135 -0.87771,-0.34864 -1.13808,-0.71539c-0.26041,-0.366 -0.38083,-0.83132 -0.29962,-1.30856c0.08122,-0.47726 0.34875,-0.87656 0.7156,-1.13582c0.36701,-0.25997 0.83263,-0.38002 1.31064,-0.29866z" data-paper-data="{&quot;index&quot;:null}" fill="#000000" stroke="none" stroke-width="1.05702" stroke-linecap="butt"/><path d="M252.27389,129.34615c0.44427,-1.34557 0.65712,-3.08804 1.24525,-4.10779c1.29922,-2.2527 4.16563,-2.91677 6.5192,-2.51624c7.89727,1.34392 19.67546,6.45416 18.02466,16.15486c-0.54578,2.84909 -1.5146,5.24777 -4.13087,6.83476c-1.28195,0.77762 -3.35637,0.46163 -4.78139,0.36329c-4.43587,-0.30607 -9.56616,-0.55906 -13.74916,-2.16207c-3.61674,-1.64895 -7.35056,-1.86551 -9.80297,-5.60474c-1.72387,-2.62841 -0.7016,-6.87914 1.32025,-8.94513c0.97716,-0.99849 3.71438,-0.34745 4.94964,-0.13723c0,0 0.17121,0.02914 0.40542,0.12028z" fill="#f991fd" stroke="none" stroke-width="0.5" stroke-linecap="butt"/></g></g></svg>