<svg version="1.1" xmlns="http://www.w3.org/2000/svg" xmlns:xlink="http://www.w3.org/1999/xlink" width="518.5273" height="121.46148" viewBox="0,0,518.5273,121.46148"><defs><linearGradient x1="195.44841" y1="299.38697" x2="203.31246" y2="298.50597" gradientUnits="userSpaceOnUse" id="color-1"><stop offset="0" stop-color="#a8702c"/><stop offset="1" stop-color="#a8702c" stop-opacity="0"/></linearGradient><linearGradient x1="37.48093" y1="296.02849" x2="37.48093" y2="343.88685" gradientUnits="userSpaceOnUse" id="color-2"><stop offset="0" stop-color="#b9e058"/><stop offset="1" stop-color="#64db1f"/></linearGradient><linearGradient x1="384.99049" y1="248.53119" x2="384.99049" y2="298.92229" gradientUnits="userSpaceOnUse" id="color-3"><stop offset="0" stop-color="#b9e058"/><stop offset="1" stop-color="#64db1f"/></linearGradient></defs><g transform="translate(41.28028,-247.5312)"><g data-paper-data="{&quot;isPaintingLayer&quot;:true}" fill-rule="nonzero" stroke-linecap="butt" stroke-linejoin="miter" stroke-miterlimit="10" stroke-dasharray="" stroke-dashoffset="0" style="mix-blend-mode: normal"><g stroke="none"><path d="M180.81026,328.38955c-0.64845,-5.78814 -5.08996,-45.43375 -6.10688,-54.51099c-0.13051,-1.16499 0.93017,-2.53731 1.83113,-2.63824c2.04735,-0.22937 9.97014,-1.11696 13.62775,-1.52672c1.11458,-0.12488 2.11149,1.07827 2.23521,2.1827c0.57451,5.12819 4.90357,43.7701 6.10688,54.51099c0.19636,1.75267 -0.19464,2.37376 -1.55924,2.52665c-3.71821,0.41655 -11.51295,1.28979 -13.62775,1.52672c-1.14339,0.12809 -2.3545,-0.70895 -2.5071,-2.07109z" fill="#e0a843" stroke-width="1.07722"/><path d="M180.47893,325.43207l-0.69462,-6.20031l17.69409,-1.98227l0.69462,6.20031z" fill="#ffda4d" stroke-width="1.18415"/><path d="M197.23991,324.39143l-5.55705,-49.60316l112.51852,-12.60549l44.89035,45.19664z" fill="#e0a843" stroke-width="1.18415"/><path d="M199.81078,318.89485l-0.73323,-6.54487l148.70463,-16.65943l0.73323,6.54487z" fill="#ffda4d" stroke-width="1.18415"/><path d="M206.09914,323.38027l-7.86404,0.88101l-5.57337,-49.74861l7.86404,-0.88101z" fill="url(#color-1)" stroke-width="0"/></g><path d="M296.76239,279.74985l175.82328,-8.21282l0.37767,90.36423l-174.82318,0.21279z" data-paper-data="{&quot;origPos&quot;:null,&quot;origRot&quot;:0}" fill="#c06520" stroke="#662900" stroke-width="1.50655"/><path d="M-38.67724,318.35065l151.32162,-0.70608l0.14245,44.99966l-151.32165,0.70617z" data-paper-data="{&quot;origPos&quot;:null,&quot;origRot&quot;:0}" fill="#c06520" stroke="#662900" stroke-width="1.5215"/><path d="M7.83059,358.53501l-10.38279,1.47213l-3.12881,-8.79898l6.62265,-4.4592l7.98491,2.69325z" data-paper-data="{&quot;index&quot;:null}" fill="#deb35c" stroke="none" stroke-width="2.70748"/><path d="M422.85934,322.49443l8.28084,4.20674l-3.15539,7.67735l-7.43409,-0.24203l-4.02962,-5.88807z" fill="#deb35c" stroke="none" stroke-width="2.70748"/><path d="M-17.14574,352.03125l2.85425,6.81836l-5.86645,2.70318l-4.3825,-4.10209l0.58895,-5.51207z" data-paper-data="{&quot;index&quot;:null}" fill="#deb35c" stroke="none" stroke-width="2.70748"/><path d="M311.12066,310.89275l0.39523,-5.4161l4.40951,-1.00121l0.93376,4.92746z" fill="#deb35c" stroke="none" stroke-width="0"/><path d="M459.55704,349.32433l-8.68529,-2.36296l0.6303,-7.32258l6.77678,-1.01053l5.33531,4.55322z" fill="#deb35c" stroke="none" stroke-width="2.70748"/><path d="M429.11093,352.55049l-0.58895,-5.51207l4.3825,-4.10209l5.86645,2.70318l-2.85424,6.81836z" data-paper-data="{&quot;index&quot;:null}" fill="#deb35c" stroke="none" stroke-width="2.70748"/><path d="M444.34319,334.86985l0.06247,4.7482l-4.2494,-0.467l-1.3782,-5.06519z" data-paper-data="{&quot;index&quot;:null}" fill="#deb35c" stroke="none" stroke-width="0"/><path d="M402.84696,348.49856l-2.30328,-4.91785l3.35703,-3.02929l3.22368,3.84183z" fill="#deb35c" stroke="none" stroke-width="0"/><path d="M-29.14206,346.30748l-0.39523,5.4161l-4.40951,1.0012l-0.93376,-4.92745z" data-paper-data="{&quot;index&quot;:null}" fill="#deb35c" stroke="none" stroke-width="0"/><path d="M323.91106,312.30896l5.13467,-1.76792l2.65559,3.65978l-4.16248,2.79741z" fill="#deb35c" stroke="none" stroke-width="0"/><path d="M37.61797,356.4503l12.0356,-1.80286l3.20559,9.40595l-7.83732,4.93929l-9.08162,-2.73134z" data-paper-data="{&quot;index&quot;:null}" fill="#deb35c" stroke="none" stroke-width="2.70748"/><path d="M74.17154,347.72739l-1.67358,10.35223l-9.33105,0.3783l-2.29431,-7.64723l4.94033,-6.82682z" data-paper-data="{&quot;index&quot;:null}" fill="#deb35c" stroke="none" stroke-width="2.70748"/><path d="M336.11092,323.55049l-0.58895,-5.51207l4.38249,-4.1021l5.86645,2.70319l-2.85424,6.81836z" data-paper-data="{&quot;index&quot;:null}" fill="#deb35c" stroke="none" stroke-width="2.70748"/><path d="M49.63542,349.33038l-0.06247,-4.7482l4.2494,0.467l1.37819,5.06519z" data-paper-data="{&quot;index&quot;:null}" fill="#deb35c" stroke="none" stroke-width="0"/><path d="M-39.85849,304.67794c0,0 129.859,-1.55164 142.15528,-1.64c4.09877,-0.02946 8.03533,-0.12852 9.85003,2.26185c1.93335,2.54667 2.95269,6.01848 3.04914,8.94573c-2.91779,2.96273 -2.91779,7.36189 -2.91779,7.36189c0,4.66667 0,10.33333 0,15c0,0 0,0.24325 0.03794,0.65388l-12.34188,8.98231l-13.59709,-11.25074l-14.05387,11.18892l-17.38275,-9.76846l-4.88242,14.06655l-22.46894,-10.70053l-7.96674,11.10752l-9.32091,-13.87663l-14.04028,12.18883l-13.33825,-10.82264l-3.90864,11.05327l-12.32372,-10.8362l-6.93862,12.09386z" data-paper-data="{&quot;origPos&quot;:null,&quot;origRot&quot;:0}" fill-opacity="0.29412" fill="#662900" stroke="#0f6600" stroke-width="0"/><path d="M-39.85849,297.67794c0,0 129.859,-1.55164 142.15528,-1.64c4.09877,-0.02946 8.03533,-0.12852 9.85003,2.26185c2.0161,2.65568 3.03828,6.31739 3.05645,9.31851c0.06819,11.26705 -0.41451,20.84341 -0.41451,20.84341l-14.81453,10.78188l-13.59709,-11.25074l-14.05387,11.18892l-17.38275,-9.76846l-4.88242,14.06655l-22.46894,-10.70053l-7.96674,11.10752l-9.32091,-13.87663l-14.04028,12.18883l-13.33825,-10.82264l-3.90864,11.05327l-12.32372,-10.8362l-6.93862,12.09386z" data-paper-data="{&quot;origPos&quot;:null,&quot;origRot&quot;:0}" fill="url(#color-2)" stroke="#0f6600" stroke-width="2"/><path d="M359.54172,357.95055l-8.4207,3.91929l-4.09331,-7.221l4.77857,-5.69996l7.11987,0.46337z" fill="#deb35c" stroke="none" stroke-width="2.70748"/><path d="M333.83617,357.35273l3.57341,-4.08913l4.12491,1.85237l-2.21779,4.49812z" fill="#deb35c" stroke="none" stroke-width="0"/><path d="M315.17872,345.63695l-5.76204,-4.62987l3.86542,-5.17502l5.80884,1.51354l2.11282,5.12501z" fill="#deb35c" stroke="none" stroke-width="2.70748"/><path d="M347.05396,343.61409l-2.21779,-4.49812l4.12491,-1.85237l3.57341,4.08913z" data-paper-data="{&quot;index&quot;:null}" fill="#deb35c" stroke="none" stroke-width="0"/><path d="M361.19986,304.46507l-7.21366,6.15623l-9.1626,-1.3663l-0.8522,-9.90058l11.74303,-3.19485z" data-paper-data="{&quot;index&quot;:null}" fill="#deb35c" stroke="none" stroke-width="2.70748"/><path d="M476.04004,298.96223l-18.25052,-6.01344l-4.38114,11.99929l-14.20497,-10.00252l-11.16042,8.99802l-12.17577,-11.00218l-14.20421,9.99748l-10.16165,-12.00186l-12.15984,11.9979l-14.22012,-12.00258l-14.20428,7.99747l-9.13191,-10.00163l-12.15977,13.9979l-13.19037,-8.98751l-8.1164,11.98372l-11.29371,-8.73574c0.14898,-1.52334 0.23829,-3.05134 0.25321,-4.57914v-2c0,0 0,-4.88878 -3.41823,-7.82989c-0.07474,-4.05616 -0.15539,-8.04583 -0.1153,-13.39328c0.0225,-3.00297 1.57589,-7.97579 3.53238,-10.25406c1.40967,-1.64152 5.81289,-3.63449 11.47019,-3.59849c14.0014,0.08909 157.32248,0.40386 157.32248,0.40386c0,0 5.84057,1.05819 7.99888,4.02677c2.15831,2.96858 2.17844,9.97128 2.17844,9.97128z" data-paper-data="{&quot;origPos&quot;:null,&quot;origRot&quot;:0}" fill-opacity="0.29412" fill="#662900" stroke="#0f6600" stroke-width="0"/><path d="M476.04004,291.96223l-18.25052,-6.01344l-4.38114,11.99929l-14.20497,-10.00252l-11.16042,8.99802l-12.17577,-11.00218l-14.20421,9.99748l-10.16165,-12.00186l-12.15984,11.9979l-14.22012,-12.00258l-14.20428,7.99747l-9.13191,-10.00163l-12.15977,13.9979l-13.19037,-8.98751l-8.1164,11.98372l-14.20505,-10.98768l-0.15936,0.10075c0.07643,-10.19567 -0.28605,-15.45545 -0.20962,-25.65113c0.0225,-3.00297 1.57589,-7.97579 3.53238,-10.25406c1.40967,-1.64152 5.81289,-3.63449 11.47019,-3.59849c14.0014,0.08909 157.32248,0.40386 157.32248,0.40386c0,0 5.84057,1.05819 7.99888,4.02677c2.15831,2.96858 2.17844,9.97128 2.17844,9.97128z" data-paper-data="{&quot;origPos&quot;:null,&quot;origRot&quot;:0}" fill="url(#color-3)" stroke="#0f6600" stroke-width="2"/></g></g></svg>