<svg version="1.1" xmlns="http://www.w3.org/2000/svg" xmlns:xlink="http://www.w3.org/1999/xlink" width="113.39589" height="185.25692" viewBox="0,0,113.39589,185.25692"><g transform="translate(-180.72334,-76.01374)"><g data-paper-data="{&quot;isPaintingLayer&quot;:true}" fill-rule="nonzero" stroke-linejoin="miter" stroke-miterlimit="10" stroke-dasharray="" stroke-dashoffset="0" style="mix-blend-mode: normal"><g data-paper-data="{&quot;origRot&quot;:0}" stroke="none" stroke-width="0" stroke-linecap="butt"><path d="M273.78199,216.22731c2.11147,4.05217 7.54966,3.54953 7.82665,4.54937c1.12067,4.0454 0.53298,7.52033 -4.92221,12.13634c-6.75747,5.71797 -13.08411,7.96441 -21.88717,7.03433c-5.99564,-0.63344 -2.92144,-4.92289 -3.47303,-10.92661c-2.07334,-8.49092 -0.92263,-11.33049 -6.92129,-18.8435c-4.53909,-5.68496 0.31992,-10.25355 0.31992,-10.25355c0,0 0.72458,-1.82646 5.48546,-4.07171c4.73221,-2.17087 7.87166,-2.30411 14.73893,1.74567c6.86726,4.04978 3.95188,9.26257 8.83278,18.62965z" data-paper-data="{&quot;origPos&quot;:null}" fill="#0052ef"/><path d="M289.47311,233.48552c1.60964,3.55068 -1.24509,6.86154 -4.24153,9.35547c-1.9637,1.63438 -12.98925,6.24873 -19.82252,5.53393c-2.12142,-0.22193 -4.49324,-1.83366 -4.49324,-1.83366c0,0 -4.27379,2.77136 -4.86208,1.43862c-0.467,-1.05795 -1.30655,-2.8394 -0.53378,-3.84864c3.32632,-4.34423 13.73427,-9.05573 18.71758,-11.31482c6.84096,-3.10122 13.66215,-2.80164 15.23555,0.66914z" data-paper-data="{&quot;origPos&quot;:null}" fill="#f9c869"/><path d="M289.1675,228.24723c0.63951,4.72034 -2.17339,9.57677 -9.9072,13.08276c-7.73381,3.50599 -18.04047,2.77087 -18.04047,2.77087c0,0 -5.46535,2.83294 -6.22983,1.4478c-1.58229,-2.86689 -3.83503,-7.69382 -2.78159,-8.36259c3.88896,-2.46889 3.35949,-1.55079 8.26541,-5.17502c3.17633,-2.34651 7.5331,-8.36216 11.12986,-9.99269c7.73381,-3.50599 16.51087,-1.54325 17.56381,6.22887z" data-paper-data="{&quot;origPos&quot;:null}" fill="#ad5d21"/></g><g data-paper-data="{&quot;index&quot;:null,&quot;origRot&quot;:0}" stroke="none" stroke-width="0" stroke-linecap="butt"><path d="M261.49405,142.83672c-5.17509,-1.21473 -7.50399,-7.38243 -5.27964,-16.8589c1.78907,-7.62202 7.08096,-22.01531 7.08096,-22.01531l15.4882,3.82346c0,0 -0.6992,9.34022 -2.92353,18.81669c-2.22436,9.47646 -9.19091,17.4488 -14.366,16.23409z" data-paper-data="{&quot;origRot&quot;:0,&quot;origPos&quot;:null}" fill="#ff0021"/><g data-paper-data="{&quot;origPos&quot;:null}" fill="#ffffff"><path d="M258.63245,84.91342c1.37063,-11.02918 10.40785,-8.91747 20.63943,-8.38633c9.37622,0.48676 16.17845,12.84069 14.62617,19.85058c-2.1397,9.66265 -13.4574,6.99389 -22.48991,4.43182c-9.0325,-2.56208 -14.0555,-5.59774 -12.77572,-15.89607z" data-paper-data="{&quot;origRot&quot;:0,&quot;origPos&quot;:null}"/><path d="M257.83266,99.98116c1.6551,-6.64523 3.04498,-3.75323 16.12246,-0.40881c11.47967,2.93581 13.39611,3.09069 12.1839,9.21252c-1.08359,5.47231 -8.65902,1.86525 -15.63523,-0.10366c-6.97621,-1.96891 -13.6376,-4.8197 -12.67112,-8.70007z" data-paper-data="{&quot;origRot&quot;:0,&quot;origPos&quot;:null}"/></g></g><g data-paper-data="{&quot;origRot&quot;:0}" stroke="none" stroke-width="0" stroke-linecap="butt"><path d="M235.65976,232.34039c-0.10841,4.568 4.89611,6.75461 4.65571,7.76386c-0.97272,4.0835 -3.16574,6.84232 -10.172,8.24923c-8.67879,1.74277 -15.30353,0.65392 -22.56237,-4.41245c-4.94388,-3.45064 -0.18024,-5.72164 2.23668,-11.24501c0.86725,-1.98194 1.60055,-4.60569 2.52337,-9.96321c1.15377,-6.6983 6.51796,-18.89353 6.51796,-18.89353c0,0 7.56391,0.53319 12.48949,1.84412c3.88719,1.03458 10.09209,4.16594 10.09209,4.16594c0,0 -5.53026,11.93156 -5.78092,22.49103z" data-paper-data="{&quot;origPos&quot;:null}" fill="#0052ef"/><path d="M241.06315,255.03092c-0.30561,3.88651 -4.40444,5.40666 -8.23275,6.14305c-2.50887,0.48258 -14.39178,-0.80252 -20.02981,-4.72897c-1.75035,-1.21899 -3.04865,-3.7759 -3.04865,-3.7759c0,0 -5.08078,0.36234 -4.95217,-1.08877c0.1021,-1.15193 0.22746,-3.1173 1.39157,-3.62774c5.0109,-2.19722 16.39995,-1.29546 21.85456,-0.86654c7.48796,0.5888 13.31597,4.14586 13.01724,7.9449z" data-paper-data="{&quot;origPos&quot;:null}" fill="#f9c869"/><path d="M243.32573,250.29659c-1.72004,4.44206 -6.52879,7.33578 -14.99402,6.67011c-8.46525,-0.66566 -17.13484,-6.28759 -17.13484,-6.28759c0,0 -6.15388,-0.15927 -6.15422,-1.74139c-0.00073,-3.27456 0.35823,-8.58917 1.60365,-8.66593c4.59772,-0.28337 3.69067,0.26477 9.73692,-0.53899c3.91464,-0.5204 10.63513,-3.68342 14.57207,-3.37384c8.46525,0.66566 15.20253,6.62369 12.37047,13.93763z" data-paper-data="{&quot;origPos&quot;:null}" fill="#ad5d21"/></g><g><path d="M267.03386,188.37724c1.18952,21.14372 -12.07751,27.67495 -27.25455,28.24747c-15.17704,0.57253 -28.05871,-8.98664 -28.44178,-19.14145c-0.41557,-11.01628 0.5712,-19.83549 8.8035,-27.16765c6.13331,-5.46268 15.34943,-3.36453 23.55688,-3.67414c15.17704,-0.57253 22.16996,1.0102 23.33595,21.73577z" data-paper-data="{&quot;origPos&quot;:null}" fill="#0052ef" stroke="none" stroke-width="0" stroke-linecap="butt"/><path d="M267.01124,187.77767c0,0 -17.1562,2.64861 -29.28863,3.50657c-11.12835,0.78695 -22.51225,-2.55319 -22.51225,-2.55319c0,0 -1.50582,-13.74865 6.25739,-19.4097c5.07925,-3.70385 10.89687,-5.07352 18.4197,-5.53827c7.52283,-0.46475 15.79835,1.54468 19.70466,4.47254c9.22714,6.91595 7.41912,19.52205 7.41912,19.52205z" data-paper-data="{&quot;origPos&quot;:null}" fill="#ff0021" stroke="none" stroke-width="0" stroke-linecap="butt"/><path d="M252.33321,167.20767c0,0 2.39662,6.75474 2.98313,10.84845c0.75332,5.25806 -0.00625,15.21951 -0.00625,15.21951" data-paper-data="{&quot;origPos&quot;:null,&quot;origRot&quot;:0}" fill="none" stroke="#0052ef" stroke-width="10" stroke-linecap="round"/><path d="M230.85985,168.52676c0,0 1.50508,7.00749 1.5585,11.14266c0.06862,5.3113 -1.96986,15.09149 -1.96986,15.09149" data-paper-data="{&quot;origPos&quot;:null}" fill="none" stroke="#0052ef" stroke-width="10" stroke-linecap="round"/><path d="M226.97929,192.99043c-0.08536,-2.26275 1.67977,-4.16628 3.94253,-4.25164c2.26275,-0.08536 4.16628,1.67978 4.25164,3.94253c0.08536,2.26275 -1.67977,4.16628 -3.94253,4.25164c-2.26275,0.08536 -4.16628,-1.67977 -4.25164,-3.94253z" data-paper-data="{&quot;origPos&quot;:null}" fill="#ffe84f" stroke="none" stroke-width="0" stroke-linecap="butt"/><path d="M251.76166,192.05556c-0.08536,-2.26275 1.67977,-4.16628 3.94253,-4.25164c2.26275,-0.08536 4.16628,1.67978 4.25164,3.94253c0.08536,2.26275 -1.67978,4.16628 -3.94253,4.25164c-2.26275,0.08536 -4.16628,-1.67977 -4.25164,-3.94253z" data-paper-data="{&quot;origPos&quot;:null}" fill="#ffe84f" stroke="none" stroke-width="0" stroke-linecap="butt"/></g><g data-paper-data="{&quot;origRot&quot;:0}" stroke="none" stroke-width="0" stroke-linecap="butt"><path d="M223.46607,184.33846c-3.00555,7.22931 -10.56907,20.56962 -10.56907,20.56962l-14.65957,-6.29283c0,0 2.20976,-9.10194 5.94654,-18.09015c3.73678,-8.98819 11.9078,-15.72062 16.81623,-13.67996c4.90846,2.04065 6.20264,8.50511 2.46587,17.49334z" data-paper-data="{&quot;origRot&quot;:0,&quot;origPos&quot;:null}" fill="#ff0021"/><g data-paper-data="{&quot;origPos&quot;:null}" fill="#ffffff"><path d="M214.39796,224.46204c-3.14708,10.65915 -11.72025,7.10498 -21.72901,4.91594c-9.17202,-2.00602 -13.87327,-15.30221 -11.20097,-21.96609c3.68354,-9.18566 14.41612,-4.71079 22.91128,-0.71302c8.49519,3.99776 12.95724,7.81034 10.01869,17.76315z" data-paper-data="{&quot;origRot&quot;:0,&quot;origPos&quot;:null}"/><path d="M217.63905,209.72529c-2.71441,6.28733 -3.61515,3.20772 -15.97408,-2.22019c-10.84892,-4.76472 -12.71462,-5.22941 -10.5224,-11.07239c1.95961,-5.22303 8.84711,-0.43132 15.40996,2.64652c6.56284,3.07788 12.67151,6.97467 11.08649,10.64604z" data-paper-data="{&quot;origRot&quot;:0,&quot;origPos&quot;:null}"/></g></g><path d="M193.37138,121.40306c-0.2363,-2.47146 -1.97884,-4.76216 5.19066,-4.37973c7.16951,0.38244 21.26218,0.33796 21.06802,3.97787c-0.19416,3.6399 1.22321,10.48003 -5.9463,10.09759c-8.89736,-0.47461 -19.94732,-5.87759 -20.31238,-9.69575z" fill="#bb041a" stroke="none" stroke-width="0" stroke-linecap="butt"/><path d="M264.32842,166.15866c0,0 -0.93705,1.788 -3.45675,1.77269c-4.65048,-0.02824 -6.35932,-1.44309 -6.35932,-1.44309c-1.17716,-1.40132 2.31433,-9.58347 2.31433,-9.58347c0.71155,-2.85987 7.98864,-3.49483 7.98864,-3.49483c1.95322,-1.26576 0.78492,4.75838 3.94435,6.73651c2.64144,1.65383 1.11068,4.74016 -0.84254,6.00591c-1.95322,1.26576 -3.58873,0.00628 -3.58873,0.00628z" data-paper-data="{&quot;origRot&quot;:0}" fill="#5a2c0a" stroke="none" stroke-width="0" stroke-linecap="butt"/><path d="M261.56926,127.32749c1.51652,-0.26977 5.1336,-3.29074 10.92435,-2.98185c5.79076,0.3089 9.13675,7.06319 8.70526,15.15187c-0.43147,8.08867 -6.58069,16.33933 -16.93639,15.78694c-0.19425,-0.01036 -1.38862,0.71307 -2.43906,2.13266c-3.42676,4.63103 -1.9177,9.04054 -6.06631,11.86629c-6.53354,4.45019 -10.98281,6.68553 -26.19425,5.56002c-10.7611,-0.79622 -15.41829,-2.34437 -17.04065,-3.76887c-2.85983,-2.51108 -5.74751,-4.5339 -6.88544,-8.1656c-2.95143,-9.41939 4.14479,-13.53118 5.36402,-23.32656c1.06039,-8.51932 -0.89388,-16.37177 7.69115,-16.39091c5.80272,-0.01296 38.51587,4.9119 42.87735,4.13602z" fill="#ffdebd" stroke="none" stroke-width="0" stroke-linecap="butt"/><path d="M213.17702,129.95994c0.61227,-4.86313 3.55175,-8.4979 6.56553,-8.11847c3.01378,0.37944 4.96059,4.62937 4.34832,9.49251c-0.61226,4.86314 -3.55173,8.4979 -6.56551,8.11846c-3.01378,-0.37942 -4.96059,-4.62937 -4.34833,-9.49251z" data-paper-data="{&quot;origRot&quot;:0}" fill="#ffffff" stroke="none" stroke-width="0" stroke-linecap="butt"/><path d="M250.75733,134.58536c0.23534,-4.41199 -3.70578,-9.72548 7.87346,-8.67863c2.75022,0.24864 2.50556,4.5216 2.27022,8.93361c-0.23536,4.412 -1.47989,10.04327 -4.16331,9.39157c-3.61236,-0.87729 -2.94698,-2.41976 -2.94698,-2.41976c0,0 -1.49285,1.7593 -4.1474,0.28901c-2.28185,-1.26387 0.97509,-4.91101 1.11404,-7.51579z" fill="#5a2c0a" stroke="none" stroke-width="0" stroke-linecap="butt"/><path d="M225.91517,135.65125c0.82944,-4.83084 3.92876,-8.33032 6.92253,-7.81628c2.99375,0.51402 4.74828,4.84689 3.91884,9.67772c-0.82943,4.83085 -3.92876,8.33032 -6.92253,7.81629c-2.99376,-0.51402 -4.74828,-4.84689 -3.91884,-9.67773z" data-paper-data="{&quot;origRot&quot;:0}" fill="#ffffff" stroke="none" stroke-width="0" stroke-linecap="butt"/><path d="M230.02499,131.7317c0.95065,0.0507 1.7744,0.79064 2.33875,1.94433c0.56334,1.15364 0.86723,2.72205 0.77609,4.43063c-0.09115,1.70856 -0.56016,3.23576 -1.24304,4.32292c-0.68387,1.08711 -1.58167,1.7352 -2.53232,1.6845c-0.95065,-0.0507 -1.7744,-0.79064 -2.33874,-1.94433c-0.56334,-1.15365 -0.86723,-2.72206 -0.77609,-4.43063c0.09115,-1.70857 0.56016,-3.23576 1.24304,-4.32292c0.68387,-1.0871 1.58167,-1.73521 2.53232,-1.68451z" fill="#000000" stroke="none" stroke-width="1" stroke-linecap="butt"/><path d="M208.89695,95.16748c2.29021,-10.62529 13.2508,-12.79506 28.2698,-9.09238c11.66722,2.87636 21.8785,21.66594 21.8785,21.66594c3.00387,-4.11625 11.11276,-5.01974 11.11276,-5.01974c7.3036,0.38959 14.05364,0.80299 12.65639,14.48149c-0.63346,6.20123 -5.03294,11.20122 -12.33654,10.81164c-3.57094,-0.19048 -12.10649,2.81273 -15.30748,1.21852c-12.19088,-6.07148 -27.54828,-5.4774 -38.86002,-13.06193c-7.76328,-5.20528 -10.60256,-6.20781 -7.41342,-21.00355z" fill="#ff0021" stroke="none" stroke-width="0" stroke-linecap="butt"/><path d="M211.33269,103.83487c0.29124,-5.45986 5.9817,-9.595 12.71001,-9.2361c6.72831,0.3589 11.94658,5.07595 11.65534,10.5358c-0.29124,5.45986 -1.4094,10.17597 -12.71002,9.23609c-10.7046,-0.89029 -11.94658,-5.07594 -11.65533,-10.53579z" fill="#ffffff" stroke="none" stroke-width="0" stroke-linecap="butt"/><path d="M193.0838,119.28473c-0.56924,-3.20838 9.25311,-9.46016 15.71102,-9.21461c15.79744,0.60068 36.6188,7.09906 42.66069,9.42418c4.99971,1.92408 6.7922,7.09837 7.36144,10.30675c0.154,0.86791 -10.62801,0.71813 -15.91471,-0.14793c-10.87768,-1.78194 -49.66444,-9.50048 -49.81843,-10.36839z" fill="#bb041a" stroke="none" stroke-width="0" stroke-linecap="butt"/><path d="M227.30981,110.41749l-1.12475,-7.63486l-3.81668,4.49368l-2.46222,-4.80664l-1.92273,7.54908l-3.53582,-2.40163l5.86226,-9.78376l2.43686,5.44709l4.71391,-5.69537l4.13799,13.06118z" fill="#ff0021" stroke="none" stroke-width="0" stroke-linecap="butt"/><path d="M206.25289,163.28381c-0.06796,-0.74218 -0.48599,2.91825 -5.23815,-0.03145c-2.0098,-1.2475 -1.62974,-5.51669 -1.62974,-5.51669c-0.38324,-1.59095 -0.20817,-4.69106 1.27668,-4.71008c2.99391,-0.03836 12.37874,4.97968 12.37874,4.97968c5.94478,0.6577 18.93266,-2.86301 18.93266,-2.86301c3.92708,-1.85708 5.64041,-6.15574 10.55645,-4.94075c0.84409,0.20861 1.16804,3.3854 0.86562,9.05501c-0.27579,5.17031 -4.09589,8.66914 -9.33514,8.38966c-3.26511,-0.17417 -5.8781,-2.12336 -6.14716,-1.89702c-0.25466,0.21422 -0.38597,1.83694 -2.93834,2.45995c-4.44105,1.08402 -10.86776,0.91576 -15.20987,-0.51399c-1.42268,-0.46846 -3.27688,-1.84682 -3.51172,-4.41133z" fill="#38291e" stroke="none" stroke-width="0" stroke-linecap="butt"/><g fill="none" stroke="#f6b09a" stroke-width="3.5" stroke-linecap="round"><path d="M265.40674,146.92607c0,0 -2.80638,-7.33056 2.84757,-11.23622c3.94234,-2.7233 6.8093,-0.83796 6.8093,-0.83796" data-paper-data="{&quot;origPos&quot;:null}"/><path d="M271.99552,141.41208l-5.99147,-0.3196" data-paper-data="{&quot;origPos&quot;:null}"/><path d="M267.53895,147.18289l-1.28388,-0.06848" data-paper-data="{&quot;origPos&quot;:null}"/></g><path d="M236.09891,125.5323c-1.41735,-0.54645 -4.99748,1.28866 -4.99748,1.28866c0,0 -2.35519,-9.1102 7.14532,-8.28208c2.77967,0.78822 3.6019,4.0229 3.50452,5.84841c-0.14342,2.68857 -1.79288,6.2328 -1.79288,6.2328c0,0 -1.36562,-1.76371 -1.98374,-3.10959c-0.59919,-1.30461 -0.52379,-1.49525 -1.87574,-1.97821z" fill="#38291e" stroke="none" stroke-width="0" stroke-linecap="butt"/><path d="M219.0121,121.8108c-1.4222,-0.19591 -1.44334,0.00799 -2.57725,0.88849c-1.16978,0.90835 -3.19553,1.84212 -3.19553,1.84212c0,0 0.17361,-3.90541 1.28794,-6.35637c0.7566,-1.66417 2.97965,-4.15364 5.80919,-3.56917c8.80928,3.65263 2.51331,10.64572 2.51331,10.64572c0,0 -2.32814,-3.28097 -3.83764,-3.45078z" data-paper-data="{&quot;index&quot;:null,&quot;origRot&quot;:0}" fill="#38291e" stroke="none" stroke-width="0" stroke-linecap="butt"/><path d="M216.70505,127.76705c0.95065,0.0507 1.7744,0.79064 2.33874,1.94433c0.56334,1.15364 0.9485,2.72834 0.77609,4.43063c-0.26748,2.64116 -1.48579,4.62263 -1.48579,4.62263c0,0 -1.4168,-0.613 -2.36745,-0.66371c-0.95065,-0.0507 -2.39871,-0.3384 -2.39871,-0.3384c0,0 -0.8008,-2.08918 -0.63824,-3.98806c0.14596,-1.70476 0.56015,-3.23575 1.24303,-4.32292c0.68387,-1.08711 1.58167,-1.73521 2.53232,-1.68451z" fill="#000000" stroke="none" stroke-width="1" stroke-linecap="butt"/><path d="M215.40517,134.85593c6.57059,0.86596 12.56835,8.43843 12.25578,14.29812c-0.31256,5.85968 -6.89771,9.65606 -13.52086,9.41816c-14.37032,-0.51619 -12.50514,-4.93009 -12.65192,-11.56535c-0.23481,-10.61542 4.34321,-13.41268 13.917,-12.15093z" fill="#ffdebd" stroke="none" stroke-width="0" stroke-linecap="butt"/></g></g></svg>