<svg version="1.1" xmlns="http://www.w3.org/2000/svg" xmlns:xlink="http://www.w3.org/1999/xlink" width="104.10197" height="128.38287" viewBox="0,0,104.10197,128.38287"><g transform="translate(-198.5203,-143.67284)"><g data-paper-data="{&quot;isPaintingLayer&quot;:true}" fill-rule="nonzero" stroke-linejoin="miter" stroke-miterlimit="10" stroke-dasharray="" stroke-dashoffset="0" style="mix-blend-mode: normal"><g data-paper-data="{&quot;origPos&quot;:null}" stroke="none" stroke-width="0" stroke-linecap="butt"><path d="M257.19303,242.40103c0.75021,4.34647 6.464,5.57034 6.40054,6.56733c-0.2568,4.03386 -2.05676,7.01936 -9.20985,9.53946c-8.86068,3.12169 -16.08237,3.21244 -24.72876,-0.35803c-5.88894,-2.43179 -1.27436,-5.39063 0.23916,-11.03342c0.5431,-2.02478 0.82279,-4.635 0.7855,-9.86752c-0.04661,-6.54202 2.54811,-18.69522 2.54811,-18.69522c0,0 5.62293,-1.28183 11.24914,-1.85579c5.57127,-0.51504 11.34404,1.03997 11.34404,1.03997c0,0 -0.36208,14.6158 1.37211,24.66321z" data-paper-data="{&quot;origPos&quot;:null}" fill="#2a2a84"/><path d="M267.21192,262.98446c0.41234,3.73418 -3.64037,5.86898 -7.55506,7.21531c-2.56547,0.88231 -15.39263,1.678 -22.10676,-1.08701c-2.08445,-0.85842 -3.94351,-3.06107 -3.94351,-3.06107c0,0 -5.31185,1.20414 -5.45044,-0.19257c-0.11001,-1.10873 -0.34945,-2.99214 0.78667,-3.67301c4.89038,-2.93082 17.12197,-4.00606 22.97955,-4.52383c8.04114,-0.71079 14.88649,1.67202 15.28955,5.32217z" data-paper-data="{&quot;origPos&quot;:null}" fill="#dbbb7b"/><path d="M268.71143,258.11541c-0.98031,4.50022 -5.52472,8.05668 -14.61533,8.86025c-9.09062,0.80355 -19.33618,-3.05426 -19.33618,-3.05426c0,0 -6.54702,0.89173 -6.84699,-0.60723c-0.62086,-3.10246 -1.24715,-8.19881 0.05719,-8.48255c4.81525,-1.04748 3.9585,-0.37444 10.20916,-2.16041c4.047,-1.15633 10.56492,-5.29187 14.79269,-5.66559c9.09062,-0.80355 17.35355,3.7001 15.73946,11.10979z" data-paper-data="{&quot;origPos&quot;:null}" fill="#875630"/></g><g data-paper-data="{&quot;origPos&quot;:null}" stroke="none" stroke-width="0" stroke-linecap="butt"><path d="M231.20171,244.11149c0.00413,4.398 5.44408,6.38364 5.21222,7.36047c-0.93818,3.95225 -3.22377,6.65871 -10.7215,8.17815c-9.2876,1.88218 -16.44102,0.99112 -24.38148,-3.7122c-5.40815,-3.20337 -0.34508,-5.50123 2.10821,-10.87311c0.88031,-1.92757 1.59959,-4.46954 2.45044,-9.6465c1.06379,-6.47255 6.51041,-18.33393 6.51041,-18.33393c0,0 8.14876,0.33417 13.48065,1.4791c4.20786,0.90356 10.96372,3.76991 10.96372,3.76991c0,0 -5.63219,11.6116 -5.62266,21.77811z" data-paper-data="{&quot;origPos&quot;:null}" fill="#2a2a84"/><path d="M237.61257,265.81707c-0.22595,3.7469 -4.59387,5.30657 -8.6916,6.10568c-2.68543,0.52367 -15.49895,-0.43187 -21.66619,-4.07665c-1.91466,-1.13155 -3.3785,-3.56116 -3.3785,-3.56116c0,0 -5.45458,0.4688 -5.35462,-0.93054c0.07935,-1.11082 0.16222,-3.00492 1.40068,-3.52361c5.33093,-2.23271 17.60322,-1.63435 23.48075,-1.35063c8.06855,0.38948 14.43034,3.67434 14.20948,7.33693z" data-paper-data="{&quot;origPos&quot;:null}" fill="#dbbb7b"/><path d="M239.92074,261.20807c-1.73242,4.31493 -6.82754,7.21304 -15.94914,6.77272c-9.12161,-0.44033 -18.59398,-5.64486 -18.59398,-5.64486c0,0 -6.62244,-0.00773 -6.66463,-1.53007c-0.08732,-3.15084 0.15824,-8.27317 1.49561,-8.37649c4.93716,-0.38139 3.97617,0.1675 10.45739,-0.74889c4.19628,-0.59331 11.34027,-3.79577 15.58246,-3.591c9.12161,0.44033 16.52476,6.01396 13.6723,13.11858z" data-paper-data="{&quot;origPos&quot;:null}" fill="#875630"/></g><g stroke="none" stroke-width="0" stroke-linecap="butt"><path d="M273.63833,216.39026l-5.91369,16.40563c0,0 -11.01207,-1.36238 -19.86766,-6.4007c-8.8556,-5.03832 -7.14934,-26.30835 -1.26022,-25.78872c17.52172,1.54606 3.81752,8.09665 12.67314,13.13496c8.85561,5.03831 14.36846,2.64885 14.36846,2.64885z" data-paper-data="{&quot;origRot&quot;:0,&quot;origPos&quot;:null}" fill="#64ca00"/><g fill="#ffffff"><path d="M292.62689,212.77245c12.30121,1.16818 10.00878,9.27722 9.48593,18.44787c-0.47914,8.40393 -14.20155,14.56599 -22.02454,13.21319c-10.7834,-1.86475 -7.88556,-12.02015 -5.09116,-20.12739c2.7944,-8.10724 6.14371,-12.62445 17.62973,-11.53368z" data-paper-data="{&quot;origRot&quot;:0,&quot;origPos&quot;:null}"/><path d="M275.82859,212.13765c7.41725,1.44692 4.20353,2.70798 0.56455,14.44387c-3.19437,10.30199 -3.35404,12.02 -10.18497,10.96709c-6.10617,-0.94119 -2.1373,-7.74855 0.00989,-14.01007c2.14719,-6.26154 5.27939,-12.24577 9.61055,-11.40088z" data-paper-data="{&quot;origRot&quot;:0,&quot;origPos&quot;:null}"/></g></g><g><path d="M263.71101,220.49625c-5.74259,20.42548 -20.01134,23.7893 -34.10489,21.05662c-14.09354,-2.73267 -22.80946,-14.63386 -19.87894,-24.40306c3.17913,-10.59795 6.93337,-18.79721 16.84704,-24.0127c7.38597,-3.8857 15.15377,0.1067 22.77528,1.58448c14.09354,2.73267 19.99054,5.75314 14.36151,25.77468z" data-paper-data="{&quot;origPos&quot;:null}" fill="#2a2a84" stroke="none" stroke-width="0" stroke-linecap="butt"/><path d="M263.88404,219.91945c0,0 -16.57819,-1.17993 -27.97383,-2.98259c-10.45254,-1.65348 -19.80558,-7.29891 -19.80558,-7.29891c0,0 3.06298,-13.43982 12.00673,-17.16263c5.85164,-2.43571 11.62563,-2.48538 18.66988,-1.30349c7.04424,1.18189 13.97875,4.88646 16.61242,8.52319c6.22101,8.59036 0.4904,20.22443 0.4904,20.22443z" data-paper-data="{&quot;origPos&quot;:null}" fill="#64ca00" stroke="none" stroke-width="0" stroke-linecap="butt"/><path d="M257.08011,197.12721c0,0 0.01349,6.96094 -0.77193,10.99254c-1.00881,5.17829 -4.92397,14.51618 -4.92397,14.51618" data-paper-data="{&quot;origPos&quot;:null,&quot;origRot&quot;:0}" fill="none" stroke="#2a2a84" stroke-width="10" stroke-linecap="round"/><path d="M236.97524,193.74642c0,0 -0.88522,7.00945 -2.17255,10.96542c-1.65348,5.08115 -6.68209,13.96986 -6.68209,13.96986" data-paper-data="{&quot;origPos&quot;:null}" fill="none" stroke="#2a2a84" stroke-width="10" stroke-linecap="round"/><path d="M225.51347,216.24341c0.65299,-2.17683 3.23957,-3.54263 5.77729,-3.05056c2.53771,0.49205 4.06557,2.65561 3.41259,4.83245c-0.65299,2.17683 -3.23958,3.54262 -5.77729,3.05055c-2.53771,-0.49205 -4.06557,-2.6556 -3.41259,-4.83244z" data-paper-data="{&quot;origPos&quot;:null}" fill="#ffe84f" stroke="none" stroke-width="0" stroke-linecap="butt"/><path d="M247.5782,220.52167c0.65299,-2.17683 3.1688,-3.55634 5.61922,-3.08122c2.45041,0.47513 3.90751,2.62498 3.25451,4.8018c-0.65299,2.17683 -3.16881,3.55633 -5.61922,3.08121c-2.45041,-0.47513 -3.90752,-2.62496 -3.25451,-4.80179z" data-paper-data="{&quot;origPos&quot;:null}" fill="#ffe84f" stroke="none" stroke-width="0" stroke-linecap="butt"/></g><g><path d="M297.30718,197.36696c-2.70813,2.72182 -16.85086,1.5482 -25.85222,-2.33652c-7.25331,-3.13032 -1.65456,-7.64221 0.3964,-10.49562c2.05099,-2.85342 15.81815,3.90358 23.07147,7.03389c7.25331,3.13032 4.13728,4.03644 2.38433,5.79825z" fill="#4c9406" stroke="none" stroke-width="0" stroke-linecap="butt"/><path d="M208.81962,205.00582c0,0 -2.12419,0.85454 -3.21433,-1.08307c-1.09014,-1.93761 -0.85063,-5.69281 2.38144,-6.66681c3.86588,-1.165 5.96479,-7.94897 7.05493,-6.01136c0,0 6.19289,2.86073 5.33718,6.12837c0,0 -1.14309,9.78547 -2.93041,10.92896c0,0 -2.27112,0.9985 -6.4554,-0.36615c-2.2671,-0.73937 -2.1734,-2.92995 -2.1734,-2.92995z" data-paper-data="{&quot;origRot&quot;:0}" fill="#5a2c0a" stroke="none" stroke-width="0" stroke-linecap="butt"/><path d="M227.83797,170.59509c4.35016,2.09618 41.59023,8.879 47.81541,10.81974c9.21006,2.87131 3.7411,8.75473 1.22291,16.1957c-2.89535,8.55551 -9.65706,17.56004 -11.37091,23.5591c-1.83822,6.43442 -3.99671,9.49078 -11.72117,10.78439c-17.94984,-3.81112 -13.50654,-6.06687 -20.69281,-10.25023c-5.99388,-3.75482 -10.16012,-6.61033 -15.4086,-13.35902c-3.98412,-5.12289 -1.34144,-7.80604 -3.03319,-12.7989c-0.51859,-1.53049 -1.49053,-2.52967 -1.70357,-2.58566c-11.35668,-2.9847 -14.41801,-11.89467 -11.40937,-18.76815c3.00864,-6.87349 9.5006,-11.38035 15.85109,-9.71134c6.35048,1.669 8.93765,5.38555 10.45023,6.11441z" fill="#ffdebd" stroke="none" stroke-width="0" stroke-linecap="butt"/><path d="M278.66979,188.8806c-1.42999,4.24988 -5.34465,7.13844 -8.74358,6.45173c-3.39893,-0.68668 -4.99507,-4.68856 -3.56509,-8.93844c1.42999,-4.24988 5.34464,-7.13843 8.74358,-6.45173c3.39893,0.68668 4.99508,4.68856 3.5651,8.93844z" data-paper-data="{&quot;origRot&quot;:0}" fill="#ffffff" stroke="none" stroke-width="0" stroke-linecap="butt"/><path d="M233.70689,179.89773c-1.39749,4.24766 1.91705,8.37104 -1.07564,8.66366c-1.52456,0.14908 -6.38408,-1.53991 -7.68227,-3.58364c-1.29819,-2.04374 -1.2593,-4.16035 0.38178,-7.90953c1.64108,-3.74917 3.2125,-7.38574 6.27229,-6.6779c12.8827,2.98025 3.36598,5.67116 2.10385,9.5074z" fill="#5a2c0a" stroke="none" stroke-width="0" stroke-linecap="butt"/><path d="M262.54916,189.37922c-1.18294,4.29525 -4.92669,7.31674 -8.36191,6.74869c-3.43521,-0.56805 -5.26107,-4.51052 -4.07814,-8.80577c1.18294,-4.29525 4.92669,-7.31674 8.36191,-6.74869c3.43521,0.56805 5.26107,4.51052 4.07814,8.80577z" data-paper-data="{&quot;origRot&quot;:0}" fill="#ffffff" stroke="none" stroke-width="0" stroke-linecap="butt"/><path d="M260.73263,182.62324c1.04254,0.274 1.72837,1.11183 1.99606,2.2438c0.2666,1.13167 0.11469,2.55832 -0.52084,4.01021c-0.63553,1.45188 -1.63504,2.65577 -2.73512,3.42825c-1.10118,0.77221 -2.30329,1.11386 -3.34583,0.83988c-1.04254,-0.274 -1.72837,-1.11183 -1.99606,-2.2438c-0.2666,-1.13167 -0.11469,-2.55832 0.52084,-4.01021c0.63553,-1.45188 1.63504,-2.65577 2.73512,-3.42825c1.10118,-0.77221 2.30329,-1.11386 3.34583,-0.83988z" fill="#000000" stroke="none" stroke-width="1" stroke-linecap="butt"/><path d="M298.2629,170.06104c-5.98785,12.74367 -9.38429,12.14953 -20.18815,12.39395c-15.74211,0.35614 -30.40891,-7.42109 -46.08001,-8.63197c-4.1148,-0.31794 -10.62077,-6.6679 -14.23345,-8.22703c-7.38896,-3.18886 -8.61696,-9.08013 -5.41902,-14.08582c7.05395,-11.04141 13.9157,-8.1347 21.30467,-4.94582c0,0 7.38109,4.55383 7.78711,9.10898c0,0 21.56371,-9.37993 34.75507,-5.99543c16.98096,4.35678 26.37381,11.23152 22.07375,20.38316z" fill="#64ca00" stroke="none" stroke-width="0" stroke-linecap="butt"/><path d="M290.54233,175.47303c-3.07646,4.28012 -6.8692,6.86232 -17.89551,2.43069c-11.64024,-4.67837 -9.8311,-8.78886 -6.75463,-13.06899c3.07646,-4.28012 11.08856,-5.36838 17.89551,-2.43069c6.80696,2.93768 9.8311,8.78886 6.75463,13.06899z" fill="#ffffff" stroke="none" stroke-width="0" stroke-linecap="butt"/><path d="M276.97731,183.0073c1.04254,0.274 1.72837,1.11183 1.99606,2.2438c0.2666,1.13167 0.11469,2.55832 -0.52084,4.01021c-0.63553,1.45188 -1.63504,2.65577 -2.73512,3.42825c-1.10118,0.77221 -2.30329,1.11386 -3.34583,0.83988c-1.04254,-0.274 -1.72837,-1.11183 -1.99606,-2.2438c-0.2666,-1.13167 -0.11469,-2.55832 0.52084,-4.01021c0.63553,-1.45188 1.63504,-2.65577 2.73512,-3.42825c1.10118,-0.77221 2.30329,-1.11386 3.34583,-0.83988z" fill="#000000" stroke="none" stroke-width="1" stroke-linecap="butt"/><path d="M298.8929,195.89748c-0.68509,0.58482 -43.40354,-12.06502 -55.14823,-15.90292c-5.70808,-1.86527 -16.35423,-6.89546 -15.66915,-7.48029c2.53255,-2.16191 7.47287,-5.23135 13.55141,-4.30548c7.34563,1.11887 31.72747,6.12335 47.56058,13.20431c6.47249,2.89466 12.23791,12.32248 9.70538,14.48438z" fill="#4c9406" stroke="none" stroke-width="0" stroke-linecap="butt"/><path d="M270.94455,173.397l4.73892,-10.59303l5.94363,1.98907l-6.11245,7.08768l8.48205,1.97775l-3.41683,2.32932z" fill="#64ca00" stroke="none" stroke-width="0" stroke-linecap="butt"/><path d="M265.27619,219.27204c-1.35293,2.05563 -4.23075,1.72927 -5.95949,1.64585c-5.2761,-0.25458 -9.06453,-1.95173 -16.63853,-6.7308c-2.4522,-1.54729 0.82806,-15.23465 6.10529,-10.83453c0,0 11.32936,7.47785 17.99496,8.90787c0,0 12.23099,-1.05375 15.42929,-0.02606c1.58621,0.50969 0.4435,3.1473 -0.65088,4.34353c0,0 -1.5263,3.91132 -4.21983,4.28081c-4.06153,0.96079 -6.06183,-0.44821 -6.45338,0.14668z" fill="#38291e" stroke="none" stroke-width="0" stroke-linecap="butt"/><path d="M283.9037,206.95177c-3.00567,5.47188 -2.89752,9.76469 -18.5494,5.41462c-7.21381,-2.00492 -12.65516,-7.3538 -10.47561,-12.33317c2.17956,-4.97936 11.87006,-9.28499 19.29705,-7.82011c10.82157,2.13443 14.53658,5.98447 9.72795,14.73866z" fill="#ffdebd" stroke="none" stroke-width="0" stroke-linecap="butt"/><g fill="none" stroke="#f6b09a" stroke-width="3.5" stroke-linecap="round"><path d="M210.11853,172.36737c0,0 3.88769,-0.61511 6.95189,2.96197c4.39455,5.13012 -1.76536,10.29592 -1.76536,10.29592" data-paper-data="{&quot;origPos&quot;:null}"/><path d="M217.16767,180.57289l-6.5706,-1.72686" data-paper-data="{&quot;origPos&quot;:null}"/><path d="M214.31334,185.49978l-1.40798,-0.37004" data-paper-data="{&quot;origPos&quot;:null}"/></g><path d="M258.92683,179.92956c-1.28622,-0.81331 -1.42984,-0.6672 -3.07945,-0.52253c-1.70179,0.14924 -4.26396,-0.08137 -4.26396,-0.08137c0,0 2.52253,-2.90678 5.09824,-4.26205c1.74888,-0.9202 5.44239,-1.78772 7.88418,-0.02066c6.49856,6.90378 -3.92749,9.31678 -3.92749,9.31678c0,0 -0.32339,-3.5961 -1.71153,-4.43016z" fill="#38291e" stroke="none" stroke-width="0" stroke-linecap="butt"/><path d="M276.55344,184.88776c-1.73824,-0.19613 -5.30527,2.11797 -5.30527,2.11797c0,0 -4.98957,-7.49279 5.93576,-8.65501c3.33641,0.13698 5.0922,2.80016 5.45005,4.41457c0.52703,2.37768 -0.42507,5.80196 -0.42507,5.80196c0,0 -1.99175,-1.27 -3.03355,-2.32333c-1.00985,-1.02101 -0.97367,-1.20255 -2.6219,-1.35619z" data-paper-data="{&quot;index&quot;:null,&quot;origRot&quot;:0}" fill="#38291e" stroke="none" stroke-width="0" stroke-linecap="butt"/></g><g stroke="none" stroke-width="0" stroke-linecap="butt"><path d="M249.15409,214.62448l-6.90949,16.33142c0,0 -16.10145,-1.49345 -24.62931,-6.67539c-8.52789,-5.18192 -10.45069,-25.0204 -4.84662,-26.6917c15.52179,-4.62906 8.48565,9.02007 17.01353,14.202c8.52788,5.18193 19.37191,2.83366 19.37191,2.83366z" data-paper-data="{&quot;origRot&quot;:0,&quot;origPos&quot;:null}" fill="#64ca00"/><g fill="#ffffff"><path d="M268.32595,211.29881c12.20419,1.36128 9.41825,9.44348 8.33305,18.61604c-0.99447,8.40569 -15.0673,14.36053 -22.7911,12.88426c-10.6467,-2.03494 -7.13087,-12.1563 -3.84411,-20.22887c3.28675,-8.07257 6.90669,-12.54251 18.30213,-11.27142z" data-paper-data="{&quot;origRot&quot;:0,&quot;origPos&quot;:null}"/><path d="M251.60116,210.40136c7.31314,1.56418 4.02852,2.77651 -0.32403,14.46851c-3.82076,10.26349 -4.08564,11.98088 -10.83784,10.82032c-6.03581,-1.03744 -1.65686,-7.79038 0.87061,-14.0253c2.52748,-6.23493 6.02091,-12.17689 10.29125,-11.26354z" data-paper-data="{&quot;origRot&quot;:0,&quot;origPos&quot;:null}"/></g></g></g></g></svg>