<svg version="1.1" xmlns="http://www.w3.org/2000/svg" xmlns:xlink="http://www.w3.org/1999/xlink" width="110.25101" height="171.54098" viewBox="0,0,110.25101,171.54098"><g transform="translate(-183.41922,-79.85723)"><g data-paper-data="{&quot;isPaintingLayer&quot;:true}" fill-rule="nonzero" stroke-linejoin="miter" stroke-miterlimit="10" stroke-dasharray="" stroke-dashoffset="0" style="mix-blend-mode: normal"><g data-paper-data="{&quot;index&quot;:null,&quot;origRot&quot;:0}" stroke="none" stroke-width="0" stroke-linecap="butt"><path d="M246.31097,157.87894c4.50555,-2.82083 13.67338,2.47464 18.83879,10.72506c5.16544,8.25043 8.8434,16.86445 8.8434,16.86445l-13.42366,8.62023c0,0 -9.65641,-11.91323 -13.81101,-18.54914c-5.16544,-8.25043 -4.95303,-14.83977 -0.44748,-17.66061z" data-paper-data="{&quot;origRot&quot;:0,&quot;origPos&quot;:null}" fill="#ff0021"/><g data-paper-data="{&quot;origPos&quot;:null}" fill="#ffffff"><path d="M269.26583,194.45287c7.72118,-5.34172 17.57068,-11.5223 22.71609,-3.06832c3.73283,6.13303 1.28454,20.02174 -7.43215,23.51028c-9.51188,3.80681 -17.38301,8.72378 -22.24185,-1.2719c-4.53687,-9.33328 -0.76331,-13.82839 6.95789,-19.17007z" data-paper-data="{&quot;origRot&quot;:0,&quot;origPos&quot;:null}"/><path d="M265.86788,187.29493c5.96663,-4.11624 11.97136,-9.9764 14.76406,-5.14721c3.1242,5.40238 1.36044,6.16787 -8.55611,12.65351c-11.29679,7.38837 -11.67829,10.57424 -15.39066,4.81953c-2.16776,-3.36035 3.2161,-8.20958 9.18273,-12.32584z" data-paper-data="{&quot;origRot&quot;:0,&quot;origPos&quot;:null}"/></g></g><g data-paper-data="{&quot;origRot&quot;:0}" stroke="none" stroke-width="0" stroke-linecap="butt"><path d="M238.70498,225.84217c-2.04216,4.08753 1.55595,8.19605 0.90889,9.00705c-2.61807,3.28128 -5.77672,4.84447 -12.71557,3.1359c-8.59529,-2.11646 -14.12676,-5.92115 -18.53927,-13.59502c-3.00531,-5.22657 2.27192,-5.25433 6.80967,-9.22394c1.62826,-1.42442 3.40847,-3.48662 6.52361,-7.942c3.89476,-5.5704 13.16359,-14.47741 13.16359,-14.47741c0,0 5.03451,1.93575 9.64624,4.47328c4.53468,2.55794 7.97859,6.97886 7.97859,6.97886c0,0 -9.05502,12.19448 -13.77571,21.6433z" data-paper-data="{&quot;origPos&quot;:null}" fill="#0052ef"/><path d="M233.93795,248.67486c-1.93057,3.38691 -6.28665,3.01817 -10.06434,2.05527c-2.47571,-0.63104 -12.68187,-6.85109 -16.11281,-12.80365c-1.06515,-1.848 -1.15182,-4.71434 -1.15182,-4.71434c0,0 -4.75191,-1.83441 -4.01796,-3.09281c0.58262,-0.99895 1.53249,-2.72412 2.80315,-2.6906c5.46956,0.14421 15.39197,5.80722 20.14541,8.51675c6.52541,3.71956 10.28549,9.41869 8.39838,12.72939z" data-paper-data="{&quot;origPos&quot;:null}" fill="#f9c869"/><path d="M238.00023,245.35362c-3.44698,3.28771 -9.02998,3.85975 -16.40707,-0.34527c-7.37708,-4.20503 -12.82978,-12.98204 -12.82978,-12.98204c0,0 -5.50099,-2.7631 -4.82799,-4.19492c1.39294,-2.9635 3.97957,-7.62005 5.13922,-7.15949c4.28116,1.70029 3.22709,1.81029 9.04052,3.6561c3.7639,1.19506 11.19153,1.19291 14.62239,3.14854c7.37708,4.20503 10.93816,12.46384 5.26269,17.87708z" data-paper-data="{&quot;origPos&quot;:null}" fill="#ad5d21"/></g><g data-paper-data="{&quot;origRot&quot;:0}" stroke="none" stroke-width="0" stroke-linecap="butt"><path d="M219.03581,224.65475c-1.6552,4.25897 2.30766,8.01694 1.7384,8.88431c-2.30324,3.50945 -5.30367,5.35821 -12.37086,4.299c-8.75425,-1.31207 -14.61404,-4.58863 -19.71766,-11.8213c-3.47603,-4.92607 1.77599,-5.44201 5.92697,-9.81446c1.4895,-1.56895 3.0712,-3.78704 5.76075,-8.51156c3.36261,-5.90689 12.55385,-15.55152 12.55385,-15.55152c0,0 6.93194,3.07333 11.11826,5.98098c3.3038,2.29466 8.07424,7.34928 8.07424,7.34928c0,0 -9.25778,9.3402 -13.08397,19.18529z" data-paper-data="{&quot;origPos&quot;:null}" fill="#0052ef"/><path d="M216.40189,247.83059c-1.6089,3.55101 -5.9804,3.5869 -9.831,2.97769c-2.52348,-0.39926 -13.26139,-5.64826 -17.22839,-11.25784c-1.23158,-1.74152 -1.5831,-4.58752 -1.5831,-4.58752c0,0 -4.90127,-1.38685 -4.28689,-2.70776c0.48768,-1.04857 1.27385,-2.85422 2.54216,-2.93842c5.45943,-0.36247 15.86327,4.35813 20.84704,6.61618c6.8416,3.09981 11.11289,8.4266 9.54018,11.89771z" data-paper-data="{&quot;origPos&quot;:null}" fill="#f9c869"/><path d="M220.13943,244.14768c-3.12797,3.59254 -8.63411,4.67873 -16.36865,1.17434c-7.73451,-3.50439 -13.97593,-11.73922 -13.97593,-11.73922c0,0 -5.73307,-2.24225 -5.19542,-3.73021c1.11275,-3.07968 3.2574,-7.95558 4.45475,-7.6043c4.42014,1.29686 3.38075,1.50393 9.34003,2.80389c3.85833,0.84168 11.25389,0.15226 14.851,1.78205c7.73451,3.50439 12.04449,11.39826 6.89427,17.31345z" data-paper-data="{&quot;origPos&quot;:null}" fill="#ad5d21"/></g><g data-paper-data="{&quot;origPos&quot;:null,&quot;origRot&quot;:0}"><path d="M267.91532,196.23045c-4.32106,20.73162 -18.8261,23.60819 -33.63455,20.23479c-14.80845,-3.37341 -24.77852,-15.93973 -22.52141,-25.84794c2.44861,-10.74875 5.68337,-19.01242 15.5323,-23.96518c7.33775,-3.68996 15.69731,0.72105 23.70543,2.54532c14.80845,3.37341 21.15384,6.71137 16.91822,27.03301z" data-paper-data="{&quot;origPos&quot;:null}" fill="#0052ef" stroke="none" stroke-width="0" stroke-linecap="butt"/><path d="M268.04859,195.64544c0,0 -17.25735,-1.88002 -29.19869,-4.19005c-10.95309,-2.11886 -21.08529,-8.2904 -21.08529,-8.2904c0,0 2.10235,-13.67015 11.06582,-17.13005c5.86455,-2.26372 11.83845,-2.08167 19.2254,-0.58439c7.38695,1.4973 14.86088,5.57926 17.87674,9.41805c7.12379,9.06764 2.11602,20.77682 2.11602,20.77682z" data-paper-data="{&quot;origPos&quot;:null}" fill="#ff0021" stroke="none" stroke-width="0" stroke-linecap="butt"/><path d="M259.19191,171.97842c0,0 0.56751,7.1448 0.07497,11.25087c-0.63265,5.27394 -3.94347,14.69975 -3.94347,14.69975" data-paper-data="{&quot;origPos&quot;:null,&quot;origRot&quot;:0}" fill="none" stroke="#0052ef" stroke-width="10" stroke-linecap="round"/><path d="M238.10835,167.69724c0,0 -0.35907,7.15831 -1.37726,11.16652c-1.3078,5.14823 -5.8071,14.06808 -5.8071,14.06808" data-paper-data="{&quot;origPos&quot;:null}" fill="none" stroke="#0052ef" stroke-width="10" stroke-linecap="round"/><path d="M228.03091,190.32412c0.50294,-2.20779 2.70044,-3.58987 4.90825,-3.08693c2.20779,0.50294 3.58987,2.70045 3.08693,4.90825c-0.50294,2.20779 -2.70043,3.58987 -4.90824,3.08692c-2.20779,-0.50294 -3.58987,-2.70043 -3.08692,-4.90824z" data-paper-data="{&quot;origPos&quot;:null}" fill="#ffe84f" stroke="none" stroke-width="0" stroke-linecap="butt"/><path d="M252.21144,195.83251c0.50294,-2.20779 2.70043,-3.58987 4.90824,-3.08692c2.20779,0.50294 3.58986,2.70044 3.08692,4.90824c-0.50294,2.20779 -2.70046,3.58988 -4.90825,3.08693c-2.20779,-0.50294 -3.58986,-2.70044 -3.08692,-4.90825z" data-paper-data="{&quot;origPos&quot;:null}" fill="#ffe84f" stroke="none" stroke-width="0" stroke-linecap="butt"/></g><g data-paper-data="{&quot;origRot&quot;:0}" stroke="none" stroke-width="0" stroke-linecap="butt"><path d="M241.73878,175.93613c3.92094,6.77659 9.93178,20.88477 9.93178,20.88477l-13.89912,7.83057c0,0 -5.89218,-7.28084 -10.76709,-15.70617c-4.87491,-8.42534 -5.26561,-19.00544 -0.66453,-21.66761c4.60108,-2.66217 10.52406,0.23313 15.39896,8.65846z" data-paper-data="{&quot;origRot&quot;:0,&quot;origPos&quot;:null}" fill="#ff0021"/><g data-paper-data="{&quot;origPos&quot;:null}" fill="#ffffff"><path d="M268.12147,207.49696c6.56076,8.97094 -1.46755,13.62685 -9.28234,20.2523c-7.16148,6.07155 -20.58172,1.73714 -24.25557,-4.43142c-5.06414,-8.5029 5.00658,-14.31605 13.34009,-18.64076c8.3335,-4.3247 14.0718,-5.55659 20.19782,2.81988z" data-paper-data="{&quot;origRot&quot;:0,&quot;origPos&quot;:null}"/><path d="M258.37719,195.97631c3.34905,5.97347 0.35489,4.82005 -11.46039,11.34724c-10.37171,5.72972 -11.87343,6.93036 -15.18632,1.64158c-2.96137,-4.72763 5.02727,-7.2928 11.45682,-10.64015c6.42954,-3.34737 13.23428,-5.83676 15.18988,-2.34867z" data-paper-data="{&quot;origRot&quot;:0,&quot;origPos&quot;:null}"/></g></g><path d="M286.19925,113.25653c0.06739,3.83498 -10.30354,10.44839 -19.09082,11.9223c-7.08079,1.18769 -6.44303,-5.76859 -7.046,-9.36343c-0.60299,-3.59486 13.40499,-5.13828 20.48578,-6.32595c7.08079,-1.18769 5.60738,1.28476 5.65101,3.76709z" fill="#bb041a" stroke="none" stroke-width="0" stroke-linecap="butt"/><path d="M219.35728,164.97869c0,0 -1.59915,1.30533 -3.58747,0.09543c-1.98832,-1.20989 -3.60594,-4.25158 -1.01243,-5.97961c3.10208,-2.06689 1.76351,-8.05549 3.75183,-6.84561c0,0 7.29215,0.42844 8.08449,3.267c0,0 3.72202,8.0799 2.58505,9.51402c0,0 -1.66806,1.4627 -6.31586,1.62277c-2.51824,0.08672 -3.5056,-1.67401 -3.5056,-1.67401z" data-paper-data="{&quot;origRot&quot;:0,&quot;origPos&quot;:null}" fill="#5a2c0a" stroke="none" stroke-width="0" stroke-linecap="butt"/><path d="M221.01469,126.08491c4.38171,0.65194 35.50738,-9.21549 41.30814,-9.36701c8.58212,-0.22419 8.28596,11.69785 9.58739,20.18369c1.49637,9.75689 8.7063,13.66591 6.02303,23.16517c-1.03455,3.6625 -3.86373,5.76634 -6.65123,8.35746c-1.58134,1.46992 -6.19278,3.14944 -16.92698,4.25037c-15.17343,1.55621 -19.68427,-0.55212 -26.34133,-4.81535c-4.22705,-2.70702 -2.84355,-7.15755 -6.40022,-11.68958c-1.09026,-1.38922 -2.30465,-2.07854 -2.49852,-2.06267c-10.33588,0.84569 -16.71649,-7.22735 -17.37705,-15.30054c-0.66056,-8.07319 2.49262,-14.91963 8.27232,-15.39252c5.77967,-0.4729 9.48092,2.44433 11.00448,2.67102z" data-paper-data="{&quot;origPos&quot;:null}" fill="#ffdebd" stroke="none" stroke-width="0" stroke-linecap="butt"/><path d="M269.46209,127.34468c0.74985,4.84383 -1.0757,9.14724 -4.07753,9.61194c-3.00181,0.4647 -6.04312,-3.08528 -6.79297,-7.9291c-0.74985,-4.84383 1.07572,-9.14723 4.07753,-9.61194c3.00181,-0.4647 6.04315,3.08527 6.793,7.92912z" data-paper-data="{&quot;origPos&quot;:null,&quot;origRot&quot;:0}" fill="#ffffff" stroke="none" stroke-width="0" stroke-linecap="butt"/><path d="M232.02799,133.03343c0.21272,2.59981 3.57174,6.15316 1.32661,7.48119c-2.61179,1.54494 -4.15393,-0.17133 -4.15393,-0.17133c0,0 0.70881,1.523 -2.87721,2.50231c-2.66387,0.72749 -4.06753,-4.86622 -4.42783,-9.2698c-0.3603,-4.40357 -0.72595,-8.66788 2.0161,-8.99438c11.54492,-1.37461 7.75599,4.04842 8.11628,8.45198z" data-paper-data="{&quot;origPos&quot;:null}" fill="#5a2c0a" stroke="none" stroke-width="0" stroke-linecap="butt"/><path d="M256.8904,133.39476c0.96604,4.80539 -0.66498,9.18625 -3.64296,9.7849c-2.97797,0.59868 -6.17526,-2.81155 -7.14129,-7.61694c-0.96604,-4.80539 0.66498,-9.18625 3.64296,-9.7849c2.97797,-0.59868 6.17526,2.81155 7.14129,7.61694z" data-paper-data="{&quot;origPos&quot;:null,&quot;origRot&quot;:0}" fill="#ffffff" stroke="none" stroke-width="0" stroke-linecap="butt"/><path d="M253.80919,129.98634c0.94885,-0.07764 1.86462,0.54475 2.57906,1.61207c0.71341,1.06739 1.22554,2.58066 1.36506,4.28595c0.13953,1.7053 -0.11979,3.28169 -0.65021,4.45085c-0.53142,1.16924 -1.33388,1.93222 -2.28271,2.00985c-0.94885,0.07764 -1.86462,-0.54475 -2.57906,-1.61207c-0.71341,-1.06739 -1.22553,-2.58065 -1.36506,-4.28595c-0.13953,-1.7053 0.11978,-3.2817 0.65021,-4.45085c0.53142,-1.16924 1.33388,-1.93222 2.28271,-2.00985z" data-paper-data="{&quot;origPos&quot;:null}" fill="#000000" stroke="none" stroke-width="1" stroke-linecap="butt"/><path d="M266.39484,124.39136c0.94885,-0.07764 1.86462,0.54475 2.57906,1.61207c0.71341,1.06739 1.00923,2.83113 1.36506,4.28595c0.12668,0.53044 0.34011,1.29959 -0.00271,1.80626c-0.43434,0.61447 -1.20717,0.95462 -1.90363,1.25944c-1.23062,0.36158 -2.65428,1.25764 -3.80455,0.71262c-1.01009,-0.49928 -1.06139,-2.05832 -1.16611,-3.21562c-0.13537,-1.49495 0.11978,-3.2817 0.65021,-4.45085c0.53142,-1.16924 1.33388,-1.93222 2.28271,-2.00985z" data-paper-data="{&quot;origPos&quot;:null}" fill="#000000" stroke="none" stroke-width="1" stroke-linecap="round"/><path d="M267.81697,88.93695c4.83563,14.34228 2.12737,15.65829 -5.00008,21.705c-10.3853,8.81055 -25.71187,9.95035 -37.14116,17.35652c-3.00103,1.94466 -11.82056,-0.07786 -15.34731,0.51368c-7.2132,1.2099 -12.14796,-3.26266 -13.47598,-9.35306c-2.92931,-13.43402 3.73118,-14.6052 10.9444,-15.81511c0,0 8.15908,-0.01576 11.60752,3.73589c0,0 8.02954,-19.82032 19.29845,-23.99272c14.50626,-5.37106 25.64151,-4.44986 29.11414,5.84978z" fill="#ff0021" stroke="none" stroke-width="0" stroke-linecap="butt"/><path d="M266.37313,97.82358c0.90447,5.39229 0.14193,9.6912 -10.39424,11.78176c-11.1228,2.20695 -12.76512,-2.35315 -13.66961,-7.74544c-0.90447,-5.39229 3.74918,-10.66717 10.39423,-11.78177c6.64502,-1.1146 12.76514,2.35316 13.66961,7.74545z" fill="#ffffff" stroke="none" stroke-width="0" stroke-linecap="butt"/><path d="M286.24636,111.11928c-0.05523,0.87974 -37.72556,12.91862 -48.33326,15.91466c-5.15547,1.45611 -15.85198,2.81959 -15.79673,1.93983c0.20418,-3.25208 1.40235,-8.59539 6.15347,-11.07044c5.74148,-2.99098 25.69824,-11.79361 41.32745,-14.17009c6.38915,-0.97151 16.85326,4.13396 16.64907,7.38603z" fill="#bb041a" stroke="none" stroke-width="0" stroke-linecap="butt"/><path d="M247.00352,106.87466l2.64025,-13.4442l5.32551,5.12808l1.80771,-5.68696l6.92713,9.06107l-3.24276,2.78467l-2.76091,-7.28441l-1.90506,5.05342l-4.29862,-4.0351l-0.25748,7.71296z" fill="#ff0021" stroke="none" stroke-width="0" stroke-linecap="butt"/><path d="M277.32795,160.4589c-0.16206,2.57013 -1.97644,4.00048 -3.38528,4.50909c-4.29984,1.55225 -10.7192,1.90261 -15.1892,0.94488c-2.56899,-0.55042 -2.74624,-2.16875 -3.00688,-2.37568c-0.27538,-0.21864 -2.83205,1.80385 -6.09094,2.07049c-5.22923,0.42787 -9.14694,-2.96127 -9.56918,-8.1217c-0.46302,-5.65876 -0.22923,-8.84346 0.60861,-9.07591c4.87962,-1.35381 6.7141,2.89455 10.69225,4.63957c0,0 13.08244,3.15117 19.00619,2.32526c0,0 9.23882,-5.28204 12.23263,-5.32856c1.48478,-0.02308 1.74766,3.07086 1.40965,4.67201c0,0 0.5009,4.2567 -1.47272,5.56064c-4.66664,3.0832 -5.18825,-0.5639 -5.23515,0.17988z" data-paper-data="{&quot;origPos&quot;:null}" fill="#38291e" stroke="none" stroke-width="0" stroke-linecap="butt"/><path d="M281.62944,144.05349c0.04136,6.63675 2.0309,10.996 -12.31902,11.9193c-6.61374,0.42554 -13.30386,-3.18266 -13.78238,-9.03114c-0.47853,-5.84847 5.30218,-13.5879 11.84561,-14.63976c9.5342,-1.53262 14.18963,1.13377 14.25581,11.7516z" data-paper-data="{&quot;origPos&quot;:null}" fill="#ffdebd" stroke="none" stroke-width="0" stroke-linecap="butt"/><g data-paper-data="{&quot;origPos&quot;:null}" fill="none" stroke="#f6b09a" stroke-width="3.5" stroke-linecap="round"><path d="M207.73905,133.98878c0,0 2.81238,-1.96586 6.83031,0.64462c5.76237,3.74387 3.1649,11.15099 3.1649,11.15099" data-paper-data="{&quot;origPos&quot;:null}"/><path d="M216.97185,139.97008l-5.98002,0.48928" data-paper-data="{&quot;origPos&quot;:null}"/><path d="M216.89162,145.99668l-1.28143,0.10486" data-paper-data="{&quot;origPos&quot;:null}"/></g><path d="M246.42393,123.56855c-1.33771,0.52109 -1.25695,0.70949 -1.81891,2.03058c-0.57974,1.36288 -1.89481,3.16457 -1.89481,3.16457c0,0 -1.74924,-3.49605 -1.96881,-6.17949c-0.14908,-1.82202 0.58114,-5.07869 3.33735,-5.9454c9.47321,-1.09707 7.37719,8.07621 7.37719,8.07621c0,0 -3.6307,-1.73288 -5.03199,-1.14649z" data-paper-data="{&quot;origPos&quot;:null}" fill="#38291e" stroke="none" stroke-width="0" stroke-linecap="butt"/><path d="M263.39839,119.36424c-1.50409,0.21252 -3.73829,3.55815 -3.73829,3.55815c0,0 -6.49166,-6.81183 2.21056,-10.71269c2.81184,-0.66442 5.10453,1.76103 5.90802,3.40309c1.18335,2.41838 1.46758,6.3173 1.46758,6.3173c0,0 -2.0514,-0.87597 -3.24646,-1.75081c-1.15841,-0.848 -1.18533,-1.05123 -2.60142,-0.81508z" data-paper-data="{&quot;origPos&quot;:null,&quot;index&quot;:null,&quot;origRot&quot;:0}" fill="#38291e" stroke="none" stroke-width="0" stroke-linecap="butt"/></g></g></svg>