<svg version="1.1" xmlns="http://www.w3.org/2000/svg" xmlns:xlink="http://www.w3.org/1999/xlink" width="486.4288" height="522.69458" viewBox="0,0,486.4288,522.69458"><defs><linearGradient x1="342.28479" y1="273.70454" x2="342.28479" y2="300.68637" gradientUnits="userSpaceOnUse" id="color-1"><stop offset="0" stop-color="#aa6a26"/><stop offset="1" stop-color="#845334"/></linearGradient><linearGradient x1="342.37615" y1="268.52728" x2="342.37615" y2="292.41889" gradientUnits="userSpaceOnUse" id="color-2"><stop offset="0" stop-color="#ffb5b8"/><stop offset="1" stop-color="#c54343"/></linearGradient><linearGradient x1="423.12791" y1="309.4842" x2="423.12791" y2="362.84134" gradientUnits="userSpaceOnUse" id="color-3"><stop offset="0" stop-color="#aa6a26"/><stop offset="1" stop-color="#845334"/></linearGradient><linearGradient x1="423.30859" y1="299.24607" x2="423.30859" y2="346.49222" gradientUnits="userSpaceOnUse" id="color-4"><stop offset="0" stop-color="#ffb5b8"/><stop offset="1" stop-color="#c54343"/></linearGradient><linearGradient x1="245.99206" y1="-144.84954" x2="245.99206" y2="359.91295" gradientUnits="userSpaceOnUse" id="color-5"><stop offset="0" stop-color="#aa6a26"/><stop offset="1" stop-color="#845334"/></linearGradient><linearGradient x1="245.99204" y1="-157.85323" x2="245.99204" y2="-110.60708" gradientUnits="userSpaceOnUse" id="color-6"><stop offset="0" stop-color="#ffb5b8"/><stop offset="1" stop-color="#c54343"/></linearGradient></defs><g transform="translate(2.00364,158.85324)"><g data-paper-data="{&quot;isPaintingLayer&quot;:true}" fill-rule="nonzero" stroke-linejoin="miter" stroke-miterlimit="10" stroke-dasharray="" stroke-dashoffset="0" style="mix-blend-mode: normal"><g stroke-width="2"><path d="M299.65567,300.68637v-26.98184h85.25822v26.98184z" data-paper-data="{&quot;origPos&quot;:null}" fill="url(#color-1)" stroke="#5b3710" stroke-linecap="butt"/><path d="M343.01574,270.67588c14.45821,0.45277 29.04291,-1.40646 43.49177,1.04445c0,2.86813 0,5.73627 0,8.6044c-0.06764,0.07213 -0.12887,0.13753 -0.18274,0.19555c-3.99722,4.2897 -8.39629,8.26766 -12.85364,8.40917c-5.50957,0.17269 -10.6776,-8.8251 -16.20178,-8.40917c-5.21901,0.79207 -9.60766,12.1197 -14.80182,11.89533c-5.54045,-0.24119 -10.16356,-12.00156 -15.71551,-12.30551c-5.26269,-0.91224 -9.9863,8.5072 -15.28808,8.81935c-4.45553,0.25924 -8.98708,-3.47261 -12.85365,-8.40917c-0.10645,-0.13605 -0.22968,-0.30147 -0.36547,-0.49173c0,-3.52946 0,-7.05892 0,-10.58838c14.84236,-2.5098 29.84498,0.9171 44.77094,1.2357z" data-paper-data="{&quot;origPos&quot;:null}" fill="url(#color-2)" stroke="#912e2f" stroke-linecap="round"/></g><g data-paper-data="{&quot;index&quot;:null}" stroke-linecap="butt"><path d="M-0.42031,-134.11525v-22.5h161.5v22.5z" fill="#00c4c4" stroke="none" stroke-width="0"/><g data-paper-data="{&quot;origRot&quot;:0}" stroke="#8e1e1e" stroke-width="2"><path d="M74.77379,-154.14567c8.36134,0.03423 16.72269,0.06846 25.08404,0.1027l-15.83129,18.43533l-25.26306,-0.10343z" data-paper-data="{&quot;origPos&quot;:null}" fill="#f4f4f4"/><path d="M99.53157,-154.04432c3.78373,0.01549 7.56743,0.03099 11.35116,0.04648c5.02868,0.02059 9.56836,-0.15599 14.38316,-0.70101l-16.48156,19.19258l-25.26306,-0.10344z" data-paper-data="{&quot;origPos&quot;:null}" fill="#ee3131"/><path d="M126.03846,-154.78917c0.82109,-0.09908 1.65123,-0.209 2.49417,-0.33059c0.16678,-0.02406 -0.63238,0.16094 -0.46683,0.19228c2.00041,0.37852 4.53583,0.01857 6.5684,0.02689c3.36841,0.01379 6.73681,0.02759 10.10522,0.04138c2.20729,-0.07168 4.4181,-0.1102 6.6311,-0.12575l-16.81786,19.5842l-25.26306,-0.10344z" data-paper-data="{&quot;origPos&quot;:null}" fill="#f4f4f4"/><path d="M151.04797,-154.64925c2.94568,-0.02368 5.8953,-0.00581 8.84566,0.02948c-0.01972,4.71861 -0.03946,9.4372 -0.05918,14.1558c-0.00865,2.0685 -0.04803,2.56606 0.24827,4.59363l-0.77653,0.90426l-25.26306,-0.10344z" data-paper-data="{&quot;origPos&quot;:null}" fill="#ee3131"/><path d="M25.25819,-154.34843c8.36135,0.03424 16.7227,0.06847 25.08404,0.10271l-15.83129,18.43534l-25.26305,-0.10344z" data-paper-data="{&quot;origPos&quot;:null}" fill="#f4f4f4"/><path d="M50.01599,-154.24703c0.58373,0.00239 1.16747,0.00477 1.7512,0.00716l-0.00359,-0.0644c1.8339,0.13549 3.20722,-0.16062 3.20722,-0.16062l-0.00289,-0.01838c0.40008,0.05027 0.80059,0.09271 1.20166,0.12536c5.05592,0.41159 10.22723,0.17794 15.30277,0.19872c1.20922,0.00495 2.41844,0.0099 3.62766,0.01485l-15.83128,18.43534l-25.26306,-0.10344z" data-paper-data="{&quot;origPos&quot;:null}" fill="#ee3131"/><path d="M0.15319,-135.95105c0.0215,-5.14259 0.05498,-13.14947 0.07604,-18.18651l0.24596,-0.28321c0.43415,-0.01599 0.85921,-0.0256 1.27113,-0.02392c6.56839,0.02689 13.13678,0.05379 19.70518,0.08068c1.37764,0.00564 2.75529,0.01128 4.13293,0.01692l-15.83129,18.43534z" data-paper-data="{&quot;origPos&quot;:null}" fill="#ee3131"/></g><path d="M-1.00364,-135.03191v-20.66667h162.66667v20.66667z" fill="none" stroke="#8e1e1e" stroke-width="2"/></g><g stroke-width="2"><path d="M338.82796,362.84134v-53.35714h140.94426v53.35714z" data-paper-data="{&quot;origPos&quot;:null}" fill="url(#color-3)" stroke="#5b3710" stroke-linecap="butt"/><path d="M424.57338,303.49496c17.32339,0.5425 34.73861,-0.59344 52.13027,-0.495c11.31242,0.06403 6.77,36.31198 -2.04451,36.59183c-10.89528,0.3415 -10.97477,-17.45181 -21.89896,-16.62931c-10.3207,1.56633 -18.99934,23.96695 -29.2709,23.52325c-10.95635,-0.47695 -20.09864,-23.73333 -31.07775,-24.33439c-10.40707,-1.80398 -19.74811,16.82317 -30.2325,17.44045c-8.8109,0.51265 -17.77214,-6.86716 -25.41835,-16.62931c-0.2105,-0.26905 -0.4542,-0.59616 -0.72273,-0.97241c0,-6.97958 0,-13.95915 0,-20.93873c29.35107,-4.96318 59.01907,1.81359 88.53545,2.44362z" data-paper-data="{&quot;origPos&quot;:null}" fill="url(#color-4)" stroke="#912e2f" stroke-linecap="round"/></g><path d="M151.45165,359.91295v-504.76249h189.0808v504.76249z" fill="url(#color-5)" stroke="#5b3710" stroke-width="2" stroke-linecap="butt"/><path d="M247.41047,-153.60434c32.06459,0.89537 64.4097,-2.78131 96.45355,2.06543c0,5.67179 0,11.34359 0,17.01538c-0.15001,0.14264 -0.2858,0.27197 -0.40527,0.38671c-8.86481,8.48297 -18.6208,16.34946 -28.50607,16.62931c-12.2188,0.3415 -23.68016,-17.45181 -35.93139,-16.62931c-11.57442,1.56633 -21.30731,23.96695 -32.82662,23.52325c-12.28729,-0.47695 -22.54015,-23.73333 -34.85296,-24.33439c-11.67128,-1.80398 -22.14704,16.82317 -33.90503,17.44045c-9.88122,0.51265 -19.93104,-6.86716 -28.50608,-16.62931c-0.23607,-0.26905 -0.50937,-0.59616 -0.81052,-0.97241c0,-6.97958 0,-13.95915 0,-20.93873c32.91653,-4.96318 66.18849,1.81359 99.29042,2.44362z" fill="url(#color-6)" stroke="#912e2f" stroke-width="2" stroke-linecap="round"/></g></g></svg>