<svg version="1.1" xmlns="http://www.w3.org/2000/svg" xmlns:xlink="http://www.w3.org/1999/xlink" width="152.2708" height="169.40271" viewBox="0,0,152.2708,169.40271"><defs><linearGradient x1="235.23335" y1="122.1805" x2="234.25518" y2="134.12179" gradientUnits="userSpaceOnUse" id="color-1"><stop offset="0" stop-color="#38291e"/><stop offset="1" stop-color="#381e32"/></linearGradient><linearGradient x1="218.29498" y1="117.78009" x2="217.43411" y2="128.28945" gradientUnits="userSpaceOnUse" id="color-2"><stop offset="0" stop-color="#38291e"/><stop offset="1" stop-color="#381e32"/></linearGradient></defs><g transform="translate(-165.98174,-87.80572)"><g data-paper-data="{&quot;isPaintingLayer&quot;:true}" fill-rule="nonzero" stroke-linejoin="miter" stroke-miterlimit="10" stroke-dasharray="" stroke-dashoffset="0" style="mix-blend-mode: normal"><g data-paper-data="{&quot;origRot&quot;:0,&quot;index&quot;:null}" stroke="none" stroke-width="0" stroke-linecap="butt"><path d="M196.49821,205.27194c10.55037,0.50513 27.59331,-4.69044 27.59331,-4.69044c0,0 3.68131,6.65603 4.43524,10.60726c0.95534,5.00669 0.94449,12.33938 0.94449,12.33938c0,0 -18.29404,5.01797 -25.05771,5.68977c-5.40978,0.53733 -8.07925,1.08109 -10.11815,1.8044c-5.68205,2.01573 -8.2879,6.60476 -11.37615,1.42676c-4.5343,-7.60254 -5.14659,-14.2882 -2.78763,-22.82014c1.90435,-6.88768 4.81295,-8.87782 8.95556,-9.556c1.02389,-0.16763 2.84699,4.98046 7.41104,5.199z" data-paper-data="{&quot;origPos&quot;:null}" fill="#5063f7"/><path d="M174.25219,198.25969c3.81067,-0.02629 6.94183,6.04119 6.99364,13.55207c0.03776,5.47133 0.12271,16.89571 -2.42722,21.73664c-0.59239,1.12463 -2.56168,1.10912 -3.71796,1.12856c-1.4566,0.02451 -0.73185,-5.01736 -0.73185,-5.01736c0,0 -2.4575,-1.47781 -3.5482,-3.31087c-3.5132,-5.90439 -3.94524,-17.84879 -3.28448,-20.31671c1.00827,-3.76584 2.81768,-7.74546 6.71609,-7.77235z" data-paper-data="{&quot;origPos&quot;:null}" fill="#f8dca0"/><path d="M179.13614,196.34143c7.49779,-2.30175 12.95875,4.84433 13.01732,13.33552c0.02725,3.949 -3.60827,10.42606 -4.4073,14.29348c-1.2341,5.97328 -0.62249,5.10774 -1.23393,9.67343c-0.16563,1.23674 -5.49229,1.21472 -8.75841,0.97982c-1.57805,-0.11347 -1.29683,-6.26299 -1.29683,-6.26299c0,0 -4.98754,-9.04943 -5.04611,-17.54062c-0.05858,-8.49118 3.17163,-13.08065 7.72532,-14.47862z" data-paper-data="{&quot;origPos&quot;:null}" fill="#ab7644"/></g><g data-paper-data="{&quot;origRot&quot;:0,&quot;index&quot;:null}" stroke="none" stroke-width="0" stroke-linecap="butt"><path d="M270.7241,237.75593c-4.27862,-3.32802 -10.18767,-2.74955 -20.8666,-10.84995c-11.91167,-9.03548 -13.50322,-16.36925 -13.50322,-16.36925l24.99292,-8.71031c0,0 -0.86682,3.89569 6.56854,9.76799c9.28574,5.70892 17.34582,5.78891 19.42947,6.3708c5.80685,1.62168 10.57895,-0.63151 10.12448,5.38034c-0.66727,8.82685 -4.01423,14.64672 -10.85361,20.26646c-5.52131,4.53674 -9.04528,4.4903 -12.82338,2.66079c-0.9338,-0.45221 0.53807,-5.71149 -3.06861,-8.51687z" data-paper-data="{&quot;origPos&quot;:null}" fill="#5063f7"/><path d="M284.88104,256.29336c-3.13147,-2.17162 -2.20018,-8.93557 2.08007,-15.10774c3.11796,-4.49611 9.62338,-13.88779 14.49471,-16.37915c1.13169,-0.57879 2.73324,0.56729 3.69003,1.21681c1.2053,0.81826 -2.28906,4.52435 -2.28906,4.52435c0,0 1.15923,2.62289 0.99624,4.74965c-0.525,6.85045 -7.04585,16.86711 -9.00654,18.50509c-2.99187,2.49941 -6.76189,4.71258 -9.96545,2.49098z" data-paper-data="{&quot;origPos&quot;:null}" fill="#f8dca0"/><path d="M279.78305,255.05127c-7.45631,-2.4327 -7.80958,-11.41961 -2.97068,-18.39733c2.25044,-3.24512 8.95117,-6.44974 11.83035,-9.15263c4.44693,-4.17464 3.44864,-3.81881 6.57629,-7.2007c0.84721,-0.91607 5.19065,2.16753 7.72647,4.23932c1.22518,1.001 -2.54392,5.86817 -2.54392,5.86817c0,0 -1.1293,10.27095 -5.9682,17.24867c-4.8389,6.97772 -10.12182,8.87197 -14.65035,7.39449z" data-paper-data="{&quot;origPos&quot;:null}" fill="#ab7644"/></g><g data-paper-data="{&quot;origRot&quot;:0,&quot;index&quot;:null}" stroke="none" stroke-width="0" stroke-linecap="butt"><g data-paper-data="{&quot;origPos&quot;:null,&quot;index&quot;:null,&quot;origRot&quot;:0}"><path d="M220.00985,182.16496c-3.85106,3.6642 -10.28684,2.23413 -16.99668,-4.81778c-5.39676,-5.67191 -14.53985,-17.98349 -14.53985,-17.98349l11.68282,-10.86346c0,0 7.43127,5.70126 14.14111,12.75317c6.70984,7.0519 9.56361,17.24733 5.71258,20.91156z" data-paper-data="{&quot;origRot&quot;:0,&quot;origPos&quot;:null}" fill="#41c3ff"/><g data-paper-data="{&quot;origPos&quot;:null}" fill="#ffffff"><path d="M169.98214,152.83025c-8.47654,-7.18817 -1.75949,-13.59221 4.28948,-21.8613c5.54328,-7.57778 19.605,-6.50157 24.61936,-1.36305c6.91197,7.08305 -1.52028,15.08986 -8.61156,21.24327c-7.09128,6.15338 -12.38245,8.69292 -20.29728,1.98108z" data-paper-data="{&quot;origRot&quot;:0,&quot;origPos&quot;:null}"/><path d="M196.36974,155.91776c-5.46865,4.75795 -11.5026,8.76946 -14.21961,5.83534c-4.65297,-5.02476 -1.47211,-4.60341 8.48941,-13.71241c8.74443,-7.99606 9.92378,-9.51457 14.38148,-5.14704c3.9847,3.90414 -3.18267,8.2661 -8.65129,13.02409z" data-paper-data="{&quot;origRot&quot;:0,&quot;origPos&quot;:null}"/></g></g></g><g data-paper-data="{&quot;origRot&quot;:0,&quot;index&quot;:null}"><path d="M228.99186,173.66586c7.97227,-1.9751 14.06309,-6.00203 21.46918,-2.45123c9.94065,4.76598 11.20698,13.75087 13.85802,24.45148c2.44373,9.86382 4.23885,22.3638 -17.00027,27.85557c-20.27259,5.24186 -30.02032,-1.86192 -34.73191,-22.5083c-4.61841,-20.23806 1.66285,-23.69521 16.40498,-27.34752z" data-paper-data="{&quot;origPos&quot;:null}" fill="#5063f7" stroke="none" stroke-width="0" stroke-linecap="butt"/><path d="M212.19991,200.49108c0,0 -5.22789,-11.61255 1.72348,-20.81305c2.94287,-3.89501 10.33842,-8.11733 17.69579,-9.75378c7.35736,-1.63646 13.32678,-1.93122 19.23301,0.2214c9.0272,3.29011 11.38719,16.91814 11.38719,16.91814c0,0 -10.01391,6.36168 -20.92505,8.68689c-11.89563,2.535 -29.11441,4.74043 -29.11441,4.74043z" data-paper-data="{&quot;origPos&quot;:null}" fill="#41c3ff" stroke="none" stroke-width="0" stroke-linecap="butt"/><path d="M224.96592,202.53411c0,0 -3.48814,-9.36165 -4.22022,-14.62271c-0.56995,-4.09605 -0.1374,-11.25028 -0.1374,-11.25028" data-paper-data="{&quot;origPos&quot;:null,&quot;origRot&quot;:0}" fill="none" stroke="#5063f7" stroke-width="10" stroke-linecap="round"/><path d="M249.26667,197.07726c0,0 -4.66686,-8.83335 -6.0716,-13.95598c-1.09366,-3.98826 -1.58778,-11.13852 -1.58778,-11.13852" data-paper-data="{&quot;origPos&quot;:null}" fill="none" stroke="#5063f7" stroke-width="10" stroke-linecap="round"/><path d="M248.76837,198.44013l-2.37132,3.28172l-0.52523,-4.03717l-4.12793,-1.63712l4.34763,-1.24816l0.57904,-3.90569l2.41095,3.09269l3.76714,-1.0819l-2.02757,3.21967l1.46618,3.92802z" data-paper-data="{&quot;origPos&quot;:null,&quot;origRot&quot;:0}" fill="#ffe008" stroke="none" stroke-width="NaN" stroke-linecap="butt"/><path d="M224.31754,203.84307l-2.80012,2.92441l0.03501,-4.07103l-3.86354,-2.18928l4.47797,-0.63836l1.11069,-3.78894l1.96271,3.39491l3.88012,-0.55353l-2.4511,2.91021l0.91202,4.09233z" data-paper-data="{&quot;origPos&quot;:null,&quot;origRot&quot;:0}" fill="#ffe008" stroke="none" stroke-width="NaN" stroke-linecap="butt"/></g><g data-paper-data="{&quot;origRot&quot;:0,&quot;index&quot;:null}" stroke="none" stroke-linecap="butt"><g data-paper-data="{&quot;origPos&quot;:null,&quot;index&quot;:null,&quot;origRot&quot;:0}" stroke-width="0"><path d="M250.25643,182.3159c-0.5817,-5.28383 8.17267,-11.23796 17.84824,-12.30313c9.67556,-1.06516 19.03193,-0.63271 19.03193,-0.63271l1.92751,15.83627c0,0 -14.92648,3.51728 -22.70862,4.374c-9.67556,1.06514 -15.51735,-1.99063 -16.09905,-7.27444z" data-paper-data="{&quot;origRot&quot;:0,&quot;origPos&quot;:null}" fill="#41c3ff"/><g data-paper-data="{&quot;origPos&quot;:null}" fill="#ffffff"><path d="M307.41178,192.14272c-10.37751,0.02838 -12.78516,-5.3241 -14.23916,-14.59967c-1.45397,-9.27558 -2.73821,-20.83252 7.11197,-21.79119c7.14593,-0.69549 18.58927,7.54709 17.94161,16.91357c-0.70676,10.22098 0.29955,19.44691 -10.81444,19.47729z" data-paper-data="{&quot;origRot&quot;:0,&quot;origPos&quot;:null}"/><path d="M285.24927,177.49141c-1.11312,-7.16278 -3.78018,-15.11793 1.78288,-15.53361c6.22333,-0.46497 6.14597,1.45615 7.67578,13.20612c1.74275,13.38538 4.44599,15.1139 -2.35034,15.95545c-3.96859,0.49139 -5.99514,-6.4652 -7.10829,-13.62794z" data-paper-data="{&quot;origRot&quot;:0,&quot;origPos&quot;:null}"/></g></g><path d="M314.83002,178.24867l-8.61675,0.83944l-4.13623,6.67978l-1.40662,-7.96999l-7.92311,-1.67051l6.72183,-4.61393l-1.62426,-9.19769l6.77845,6.17527l7.96651,-2.6842l-3.93983,7.37382z" data-paper-data="{&quot;origPos&quot;:null,&quot;origRot&quot;:0}" fill="#ffe008" stroke-width="NaN"/></g><g data-paper-data="{&quot;index&quot;:null}"><path d="M197.24065,119.67924c7.15573,0.58615 21.24397,0.94245 20.94638,4.57536c-0.2976,3.63291 0.92468,10.51057 -6.23105,9.92442c-8.88027,-0.72744 -19.77209,-6.44245 -20.02844,-10.26944c-0.16593,-2.47717 -1.84262,-4.81649 5.31311,-4.23034z" data-paper-data="{&quot;origPos&quot;:null}" fill="#3595c5" stroke="none" stroke-width="0" stroke-linecap="butt"/><path d="M263.45507,171.28901c-1.98841,1.20971 -2.85943,1.13649 -5.37767,1.04954c-4.64777,-0.16047 -6.3157,-1.62335 -6.3157,-1.62335c-1.13683,-1.43422 2.58592,-9.51378 2.58592,-9.51378c0.79261,-2.83847 8.0848,-3.26624 8.0848,-3.26624c1.98841,-1.20969 0.93448,3.76159 2.39509,7.06932c1.25886,2.85088 0.61599,5.07481 -1.37243,6.28452z" data-paper-data="{&quot;origRot&quot;:0,&quot;origPos&quot;:null}" fill="#e7be7a" stroke="none" stroke-width="0" stroke-linecap="butt"/><path d="M259.92936,131.77096c1.5236,-0.22653 5.22509,-3.14342 11.00473,-2.66998c5.77963,0.47343 8.93217,7.32015 8.27087,15.39329c-0.66129,8.07314 -7.04266,16.1456 -17.37847,15.29893c-0.19388,-0.01589 -1.40834,0.6733 -2.49872,2.06244c-3.55708,4.53172 -2.29276,5.87979 -5.87859,9.39065c-3.4919,3.7004 -9.14512,8.20851 -28.30621,10.42124c-10.7341,-1.10192 -12.71908,-5.24235 -14.30027,-6.71241c-2.78726,-2.59138 -6.80084,-5.54506 -7.83504,-9.20764c-2.68237,-9.4995 4.52794,-13.40784 6.0252,-23.1646c1.30223,-8.48572 -0.42796,-16.39054 8.15413,-16.16556c5.80074,0.15206 38.36063,6.00517 42.74241,5.35364z" data-paper-data="{&quot;origPos&quot;:null}" fill="#ffdebd" stroke="none" stroke-width="0" stroke-linecap="butt"/><path d="M211.48185,133.02622c0.75029,-4.84375 3.79196,-8.39346 6.79373,-7.92847c3.00177,0.46499 4.82693,4.76858 4.07663,9.61234c-0.75029,4.84375 -3.79195,8.39346 -6.79372,7.92847c-3.00176,-0.46498 -4.82693,-4.76858 -4.07663,-9.61234z" data-paper-data="{&quot;origPos&quot;:null,&quot;origRot&quot;:0}" fill="#ffffff" stroke="none" stroke-width="0" stroke-linecap="butt"/><path d="M248.91541,138.71845c0.36071,-4.40352 -3.42772,-9.82694 8.11707,-8.45124c2.74204,0.32673 2.37599,4.59101 2.01527,8.99454c-0.36071,4.40354 -2.52956,9.53314 -5.19336,8.8054c-3.58596,-0.97967 -4.74587,3.20021 -7.35752,1.65501c-2.245,-1.32826 2.20558,-8.40397 2.41855,-11.00375z" data-paper-data="{&quot;origPos&quot;:null}" fill="#e7be7a" stroke="none" stroke-width="0" stroke-linecap="butt"/><path d="M231.19498,131.46119c2.9779,0.59895 4.60851,4.97996 3.64202,9.78525c-0.96648,4.8053 -4.16405,8.21523 -7.14199,7.61627c-2.9779,-0.59895 -4.60851,-4.97996 -3.64202,-9.78525c0.96648,-4.8053 4.16405,-8.21523 7.14199,-7.61627z" data-paper-data="{&quot;origPos&quot;:null,&quot;origRot&quot;:0}" fill="#ffffff" stroke="none" stroke-width="0" stroke-linecap="butt"/><path d="M230.11945,135.22855c0.53032,1.1692 0.78947,2.74562 0.64979,4.45091c-0.13969,1.70529 -0.65194,3.21852 -1.36546,4.28582c-0.71452,1.06723 -1.63038,1.68953 -2.5792,1.61181c-0.94882,-0.07772 -1.75122,-0.84077 -2.28252,-2.01006c-0.53032,-1.1692 -0.78947,-2.74562 -0.64979,-4.45091c0.13969,-1.70529 0.65194,-3.21852 1.36546,-4.28582c0.71452,-1.06723 1.63038,-1.68953 2.5792,-1.61181c0.94882,0.07772 1.75122,0.84077 2.28252,2.01006z" data-paper-data="{&quot;origPos&quot;:null}" fill="#000000" stroke="#ffe008" stroke-width="2" stroke-linecap="butt"/><path d="M215.211,128.12067c0.94882,0.07772 1.75122,0.84077 2.28252,2.01006c0.53032,1.1692 0.78529,2.95598 0.64979,4.45091c-0.09513,1.05015 -0.07137,2.14568 -1.20724,3.71384c-1.13586,1.56816 -2.18159,3.02532 -3.41218,2.66364c-0.69644,-0.30487 -2.71153,-4.06209 -2.25754,-6.94081c0.27453,-1.7408 0.65194,-3.21852 1.36546,-4.28582c0.71452,-1.06723 1.63038,-1.68953 2.5792,-1.61181z" data-paper-data="{&quot;origPos&quot;:null}" fill="#000000" stroke="#ffe008" stroke-width="2" stroke-linecap="round"/><path d="M208.19291,98.12605c2.59144,-10.55586 13.6093,-12.41306 28.51693,-8.28479c11.58069,3.20698 21.25352,22.27934 21.25352,22.27934c3.11971,-4.02917 11.25102,-4.7017 11.25102,-4.7017c7.28957,0.59713 14.02511,1.20231 12.23946,14.83554c-0.80954,6.18071 -5.34943,11.05359 -12.639,10.45646c-3.56406,-0.29193 -12.18157,2.46732 -15.33594,0.78274c-12.01327,-6.41567 -27.38139,-6.25856 -38.47286,-14.16168c-7.61212,-5.42394 -10.42172,-6.5068 -6.81314,-21.20587z" data-paper-data="{&quot;origPos&quot;:null}" fill="#41c3ff" stroke="none" stroke-width="0" stroke-linecap="butt"/><path d="M223.34868,97.98834c6.7154,0.5501 11.79742,5.41363 11.35103,10.86299c-0.44638,5.44935 -1.6982,10.13176 -12.96752,8.87091c-10.67495,-1.19437 -11.79742,-5.41363 -11.35103,-10.86299c0.44638,-5.44935 6.25214,-9.42101 12.96752,-8.87091z" data-paper-data="{&quot;origPos&quot;:null}" fill="#ffffff" stroke="none" stroke-width="0" stroke-linecap="butt"/><path d="M191.70033,121.78393c-0.47778,-3.22325 9.51839,-9.19318 15.9667,-8.76409c15.77396,1.04968 36.40212,8.1375 42.37543,10.63351c4.94298,2.06547 6.5876,7.28865 7.06538,10.51192c0.12925,0.87194 -10.64413,0.41559 -15.90407,-0.60044c-10.82262,-2.09056 -49.37421,-10.90895 -49.50345,-11.78088z" data-paper-data="{&quot;origPos&quot;:null}" fill="#3595c5" stroke="none" stroke-width="0" stroke-linecap="butt"/><path d="M218.93394,112.46243l-2.10712,-1.82596l0.49943,-2.55444l3.26131,-2.28014l4.24308,-1.18761l-7.25405,-1.16792l1.99387,-3.11874l7.77202,1.88088l1.71897,2.96878l-2.23284,2.8411l-3.65064,0.15683l-1.59077,1.6452l5.0194,1.15865l-0.09452,3.46274z" data-paper-data="{&quot;origPos&quot;:null,&quot;origRot&quot;:0}" fill="#ffe008" stroke="none" stroke-width="0" stroke-linecap="butt"/><path d="M207.80113,171.04934c-3.19007,-0.46412 -5.95081,-3.078 -7.94876,-4.71841c-1.99796,-1.64041 -2.94679,-5.93243 -2.94679,-5.93243c-0.33784,-1.60118 -0.07468,-4.69506 1.4101,-4.67186c2.99381,0.0468 12.23213,5.32969 12.23213,5.32969c5.92369,0.82649 19.00643,-2.32348 19.00643,-2.32348c3.9783,-1.74465 5.81318,-5.99285 10.69267,-4.63857c0.83782,0.23253 2.28799,5.97504 0.63215,6.73682c-2.11542,0.97321 -5.85813,2.00341 -5.85813,2.00341c0,0 -1.93469,6.70415 -11.76176,7.51091c-7.57909,0.62221 -12.26799,1.16805 -15.45806,0.70391z" data-paper-data="{&quot;origPos&quot;:null}" fill="#e7be7a" stroke="none" stroke-width="0" stroke-linecap="butt"/><path d="M199.31298,149.73387c0.06714,-10.61782 4.72284,-13.28377 14.25689,-11.75028c6.54333,1.05246 12.32332,8.79242 11.84424,14.64086c-0.47908,5.84844 -7.16952,9.45598 -13.78323,9.02985c-14.34983,-0.92463 -12.35989,-5.28371 -12.31791,-11.92045z" data-paper-data="{&quot;origPos&quot;:null}" fill="#ffdebd" stroke="none" stroke-width="0" stroke-linecap="butt"/><g data-paper-data="{&quot;origPos&quot;:null}" fill="none" stroke="#f6b09a" stroke-width="3.5" stroke-linecap="round"><path d="M263.208,151.47072c0,0 -2.59679,-7.40739 3.16594,-11.15071c4.01817,-2.61008 6.83036,-0.64397 6.83036,-0.64397" data-paper-data="{&quot;origPos&quot;:null}"/><path d="M263.97093,145.65648l5.97996,0.48986" data-paper-data="{&quot;origPos&quot;:null}"/><path d="M265.33202,151.78805l-1.28142,-0.10496" data-paper-data="{&quot;origPos&quot;:null}"/></g><path d="M234.52037,129.2522c-1.40124,-0.58653 -5.0321,1.14602 -5.0321,1.14602c0,0 -2.09517,-9.17349 7.37795,-8.07554c2.75613,0.86696 3.48602,4.12372 3.33679,5.94572c-0.21981,2.6834 -1.96939,6.17929 -1.96939,6.17929c0,0 -1.31493,-1.80181 -1.89452,-3.16474c-0.56184,-1.32114 -0.48105,-1.50953 -1.81872,-2.03075z" data-paper-data="{&quot;origPos&quot;:null}" fill="url(#color-1)" stroke="none" stroke-width="0" stroke-linecap="butt"/><path d="M217.54633,125.04629c-1.41605,-0.23628 -1.44298,-0.03306 -2.60148,0.81484c-1.19516,0.87472 -3.24663,1.75051 -3.24663,1.75051c0,0 0.2846,-3.89889 1.46817,-6.31718c0.80362,-1.642 3.09655,-4.06723 5.90833,-3.40254c8.70186,3.90166 2.20956,10.7129 2.20956,10.7129c0,0 -2.2339,-3.34585 -3.73797,-3.55851z" data-paper-data="{&quot;origPos&quot;:null,&quot;index&quot;:null,&quot;origRot&quot;:0}" fill="url(#color-2)" stroke="none" stroke-width="0" stroke-linecap="butt"/></g></g></g></svg>