<svg version="1.1" xmlns="http://www.w3.org/2000/svg" xmlns:xlink="http://www.w3.org/1999/xlink" width="305.58889" height="524.03138" viewBox="0,0,305.58889,524.03138"><defs><linearGradient x1="291.99991" y1="89.41942" x2="269.01291" y2="89.41942" gradientUnits="userSpaceOnUse" id="color-1"><stop offset="0" stop-color="#000000"/><stop offset="1" stop-color="#000000" stop-opacity="0"/></linearGradient><linearGradient x1="192.26277" y1="30.53852" x2="192.26277" y2="53.52553" gradientUnits="userSpaceOnUse" id="color-2"><stop offset="0" stop-color="#000000"/><stop offset="1" stop-color="#000000" stop-opacity="0"/></linearGradient><linearGradient x1="55.06308" y1="237.872" x2="78.05007" y2="237.872" gradientUnits="userSpaceOnUse" id="color-3"><stop offset="0" stop-color="#000000"/><stop offset="1" stop-color="#000000" stop-opacity="0"/></linearGradient><radialGradient cx="193.56856" cy="239.94255" r="18.625" gradientUnits="userSpaceOnUse" id="color-4"><stop offset="0" stop-color="#000000" stop-opacity="0.11373"/><stop offset="1" stop-color="#000000" stop-opacity="0"/></radialGradient><linearGradient x1="252.76027" y1="262.52806" x2="252.76027" y2="285.51505" gradientUnits="userSpaceOnUse" id="color-5"><stop offset="0" stop-color="#000000"/><stop offset="1" stop-color="#000000" stop-opacity="0"/></linearGradient><linearGradient x1="-8.43507" y1="87.73949" x2="-8.43507" y2="64.75251" gradientUnits="userSpaceOnUse" id="color-6"><stop offset="0" stop-color="#000000"/><stop offset="1" stop-color="#000000" stop-opacity="0"/></linearGradient></defs><g transform="translate(12.74108,150.25579)"><g data-paper-data="{&quot;isPaintingLayer&quot;:true}" fill-rule="nonzero" stroke-linejoin="miter" stroke-miterlimit="10" stroke-dasharray="" stroke-dashoffset="0" style="mix-blend-mode: normal"><path d="M-11.81382,74.94982v-225.17639h56.71676v225.17639z" fill-opacity="0.0549" fill="#000000" stroke="none" stroke-width="0" stroke-linecap="butt"/><path d="M-8.39932,-150.25579h48.3582v224.14678h-48.3582z" data-paper-data="{&quot;index&quot;:null}" fill="#446b32" stroke="none" stroke-width="1.18415" stroke-linecap="butt"/><path d="M-3.38437,-150.25579h6.3806v222.82222h-6.3806z" data-paper-data="{&quot;index&quot;:null}" fill="#658e41" stroke="none" stroke-width="1.18415" stroke-linecap="butt"/><path d="M163.90902,229.92411v-195.07743h15.30019v195.07743z" fill-opacity="0.0549" fill="#000000" stroke="none" stroke-width="0" stroke-linecap="butt"/><path d="M168.11945,45.94064h48.3582v327.42357h-48.3582z" data-paper-data="{&quot;index&quot;:null}" fill="#6b6632" stroke="none" stroke-width="1.18415" stroke-linecap="butt"/><path d="M276.59781,65.27612v48.3582h-97.75v-48.3582z" data-paper-data="{&quot;index&quot;:null}" fill="#6b6632" stroke="none" stroke-width="1.18415" stroke-linecap="butt"/><path d="M275.59781,70.20216v6.3806h-72.75l8,-6.3806z" data-paper-data="{&quot;index&quot;:null}" fill="#8f8842" stroke="none" stroke-width="1.18415" stroke-linecap="butt"/><path d="M291.99991,65.24032v48.3582h-22.987v-48.3582z" data-paper-data="{&quot;index&quot;:null}" fill="url(#color-1)" stroke="none" stroke-width="2.30239" stroke-linecap="butt"/><path d="M292.84781,60.93435v57.75h-17.25v-57.75z" data-paper-data="{&quot;index&quot;:null}" fill="#6b6632" stroke="none" stroke-width="1.07721" stroke-linecap="butt"/><path d="M292.84781,66.08217v6.0447h-17.25v-6.0447z" data-paper-data="{&quot;index&quot;:null}" fill="#8f8842" stroke="none" stroke-width="1.18415" stroke-linecap="butt"/><path d="M173.04546,47.18448h6.3806v326.17973h-6.3806z" data-paper-data="{&quot;index&quot;:null}" fill="#8f8842" stroke="none" stroke-width="1.18415" stroke-linecap="butt"/><path d="M168.08364,30.53852h48.3582v22.987h-48.3582z" data-paper-data="{&quot;index&quot;:null}" fill="url(#color-2)" stroke="none" stroke-width="2.30239" stroke-linecap="butt"/><path d="M163.77758,29.69064h57.75v17.25h-57.75z" data-paper-data="{&quot;index&quot;:null}" fill="#6b6632" stroke="none" stroke-width="1.07721" stroke-linecap="butt"/><path d="M168.92546,29.69064h6.0447v17.25h-6.0447z" data-paper-data="{&quot;index&quot;:null}" fill="#8f8842" stroke="none" stroke-width="1.18415" stroke-linecap="butt"/><path d="M206.21515,213.7287v48.3582h-144.75v-48.3582z" data-paper-data="{&quot;index&quot;:null}" fill="#6b6632" stroke="none" stroke-width="1.18415" stroke-linecap="butt"/><path d="M158.82896,218.65474l11.84655,6.3806h-107.72954v-6.3806z" data-paper-data="{&quot;index&quot;:null}" fill="#8f8842" stroke="none" stroke-width="1.18415" stroke-linecap="butt"/><path d="M78.05007,213.6929v48.3582h-22.987v-48.3582z" data-paper-data="{&quot;index&quot;:null}" fill="url(#color-3)" stroke="none" stroke-width="2.30239" stroke-linecap="butt"/><path d="M71.46518,209.38693v57.75h-17.25v-57.75z" data-paper-data="{&quot;index&quot;:null}" fill="#6b6632" stroke="none" stroke-width="1.07721" stroke-linecap="butt"/><path d="M71.46518,214.53475v6.0447h-17.25v-6.0447z" data-paper-data="{&quot;index&quot;:null}" fill="#8f8842" stroke="none" stroke-width="1.18415" stroke-linecap="butt"/><g stroke-linecap="butt"><g fill="#a2a199" stroke="#6e5735" stroke-width="6"><path d="M251.52562,73.95095c9.04366,0 16.375,7.33134 16.375,16.375c0,9.04366 -7.33134,16.375 -16.375,16.375c-9.04366,0 -16.375,-7.33134 -16.375,-16.375c0,-9.04366 7.33134,-16.375 16.375,-16.375z"/></g><g fill="none" stroke="#866f40" stroke-width="3"><path d="M251.52562,73.97871c9.04366,0 16.375,7.33134 16.375,16.375c0,9.04366 -7.33134,16.375 -16.375,16.375c-9.04366,0 -16.375,-7.33134 -16.375,-16.375c0,-9.04366 7.33134,-16.375 16.375,-16.375z"/></g></g><path d="M243.92573,97.91066l7.47961,-7.47961" fill="none" stroke="#000000" stroke-width="3" stroke-linecap="round"/><path d="M174.94356,239.94255c0,-10.2863 8.33869,-18.625 18.625,-18.625c10.28631,0 18.625,8.3387 18.625,18.625c0,10.2863 -8.33869,18.625 -18.625,18.625c-10.28631,0 -18.625,-8.3387 -18.625,-18.625z" fill="url(#color-4)" stroke="none" stroke-width="NaN" stroke-linecap="butt"/><g fill="none"><g stroke="#6e5735" stroke-width="6"><path d="M179.76992,249.77143c-6.39483,-6.39483 -6.39483,-16.76292 0,-23.15775c6.39484,-6.39483 16.76292,-6.39483 23.15775,0c6.39484,6.39484 6.39484,16.76292 0,23.15775c-6.39483,6.39484 -16.76292,6.39484 -23.15775,0z" stroke-linecap="butt"/><path d="M181.25114,227.96086l20.50609,20.50609" stroke-linecap="round"/><path d="M201.58047,227.78406l-20.5061,20.5061" stroke-linecap="round"/></g><g stroke="#866f40" stroke-width="3"><path d="M179.76992,249.77143c-6.39483,-6.39483 -6.39483,-16.76292 0,-23.15775c6.39484,-6.39483 16.76292,-6.39483 23.15775,0c6.39484,6.39484 6.39484,16.76292 0,23.15775c-6.39483,6.39484 -16.76292,6.39484 -23.15775,0z" stroke-linecap="butt"/><path d="M180.89761,227.6073l20.5061,20.50609" stroke-linecap="round"/><path d="M201.58047,227.78407l-20.5061,20.5061" stroke-linecap="round"/></g></g><path d="M228.61701,274.8701h48.3582v98.90549h-48.3582z" data-paper-data="{&quot;index&quot;:null}" fill="#6f3434" stroke="none" stroke-width="1.18415" stroke-linecap="butt"/><path d="M233.54303,275.33617h6.3806v98.43942h-6.3806z" data-paper-data="{&quot;index&quot;:null}" fill="#905042" stroke="none" stroke-width="1.18415" stroke-linecap="butt"/><path d="M228.58119,262.52806h48.3582v22.987h-48.3582z" data-paper-data="{&quot;index&quot;:null}" fill="url(#color-5)" stroke="none" stroke-width="2.30239" stroke-linecap="butt"/><path d="M224.27522,261.68017h57.75v17.25h-57.75z" data-paper-data="{&quot;index&quot;:null}" fill="#6f3434" stroke="none" stroke-width="1.07721" stroke-linecap="butt"/><path d="M229.42296,261.68017h6.0447v17.25h-6.0447z" data-paper-data="{&quot;index&quot;:null}" fill="#905042" stroke="none" stroke-width="1.18415" stroke-linecap="butt"/><g stroke-linecap="butt"><g fill="#a2a199" stroke="#6e5735" stroke-width="6"><path d="M268.63374,308.54689c6.14126,0 11.11975,7.33134 11.11975,16.375c0,9.04366 -4.97848,16.375 -11.11975,16.375c-6.14126,0 -11.11975,-7.33134 -11.11975,-16.375c0,-9.04366 4.97848,-16.375 11.11975,-16.375z"/></g><g fill="none" stroke="#866f40" stroke-width="3"><path d="M268.63374,308.57465c6.14126,0 11.11975,7.33134 11.11975,16.375c0,9.04366 -4.97848,16.375 -11.11975,16.375c-6.14126,0 -11.11975,-7.33134 -11.11975,-16.375c0,-9.04366 4.97848,-16.375 11.11975,-16.375z"/></g></g><path d="M268.55199,325.02701l-5.07916,7.47961" fill="none" stroke="#000000" stroke-width="3" stroke-linecap="round"/><path d="M-8.43507,61.75251h48.3582v22.987h-48.3582z" data-paper-data="{&quot;index&quot;:null}" fill="url(#color-6)" stroke="none" stroke-width="2.30239" stroke-linecap="butt"/><path d="M-12.74108,68.3374h57.75v17.25h-57.75z" data-paper-data="{&quot;index&quot;:null}" fill="#446b32" stroke="none" stroke-width="1.07721" stroke-linecap="butt"/><path d="M-7.59329,68.3374h6.0447v17.25h-6.0447z" data-paper-data="{&quot;index&quot;:null}" fill="#658e41" stroke="none" stroke-width="1.18415" stroke-linecap="butt"/></g></g></svg>