<svg version="1.1" xmlns="http://www.w3.org/2000/svg" xmlns:xlink="http://www.w3.org/1999/xlink" width="354.00001" height="300.54318" viewBox="0,0,354.00001,300.54318"><defs><linearGradient x1="439.48812" y1="136.4568" x2="439.48812" y2="171.35708" gradientUnits="userSpaceOnUse" id="color-1"><stop offset="0" stop-color="#b9e058"/><stop offset="1" stop-color="#64db1f"/></linearGradient><linearGradient x1="336.75776" y1="287.5042" x2="336.75776" y2="346.7833" gradientUnits="userSpaceOnUse" id="color-2"><stop offset="0" stop-color="#b9e058"/><stop offset="1" stop-color="#64db1f"/></linearGradient><linearGradient x1="199" y1="67.45681" x2="199" y2="108.17497" gradientUnits="userSpaceOnUse" id="color-3"><stop offset="0" stop-color="#b9e058"/><stop offset="1" stop-color="#64db1f"/></linearGradient></defs><g transform="translate(-141.5,-66.45683)"><g data-paper-data="{&quot;isPaintingLayer&quot;:true}" fill-rule="nonzero" stroke-linecap="butt" stroke-linejoin="miter" stroke-miterlimit="10" stroke-dasharray="" stroke-dashoffset="0" style="mix-blend-mode: normal"><path d="M438.81963,144.20127v207.45098h-55.22295v-207.45099z" fill-opacity="0.03137" fill="#ffffff" stroke="none" stroke-width="0"/><path d="M255.81963,74.20126v61.45099h-55.22295v-61.45099z" fill-opacity="0.03137" fill="#ffffff" stroke="none" stroke-width="0"/><path d="M388.33333,365.99994v-221.99644h103v221.99651z" data-paper-data="{&quot;origPos&quot;:null}" fill="#c06520" stroke="#662900" stroke-width="2"/><path d="M436.67573,350.15362c0,-3.49527 2.8549,-6.32876 6.37657,-6.32876c3.52167,0 6.37657,2.83349 6.37657,6.32876c0,3.49527 -2.8549,6.32876 -6.37657,6.32876c-3.52167,0 -6.37657,-2.83349 -6.37657,-6.32876z" fill="#e0bb60" stroke="none" stroke-width="0.5"/><path d="M147.33333,119v-40.90829h103v57.9083z" data-paper-data="{&quot;origPos&quot;:null}" fill="#c06520" stroke="#662900" stroke-width="2"/><path d="M199.19976,304.24859l282.54466,2.50632l-0.6247,56.9558l-282.54466,-2.50644z" fill="#c06520" stroke="#662900" stroke-width="1.5215"/><path d="M227.72068,128.0632l-4.94033,-6.82682l2.29431,-7.64723l9.33105,0.3783l1.67358,10.35223z" data-paper-data="{&quot;index&quot;:null}" fill="#deb35c" stroke="none" stroke-width="2.70748"/><path d="M452.80892,190.28281l5.35342,7.59013l-6.37859,5.31146l-6.45847,-3.68951l-0.80935,-7.08888z" fill="#deb35c" stroke="none" stroke-width="2.70748"/><path d="M437.89848,219.33421l0.39523,-5.4161l4.4095,-1.0012l0.93376,4.92745z" fill="#deb35c" stroke="none" stroke-width="0"/><path d="M405.40367,200.60747l-2.85424,-6.81836l5.86644,-2.70318l4.3825,4.10209l-0.58895,5.51207z" fill="#deb35c" stroke="none" stroke-width="2.70748"/><path d="M430.99374,216.05974l-11.74303,-3.19485l0.85219,-9.90058l9.1626,-1.3663l7.21366,6.15623z" fill="#deb35c" stroke="none" stroke-width="2.70748"/><path d="M208.2722,107.02836l5.33531,-4.55321l6.77678,1.01053l0.63029,7.32259l-8.68528,2.36295z" data-paper-data="{&quot;index&quot;:null}" fill="#deb35c" stroke="none" stroke-width="2.70748"/><path d="M164.63633,111.63812l-2.85424,-6.81836l5.86645,-2.70318l4.38249,4.10209l-0.58895,5.51207z" data-paper-data="{&quot;index&quot;:null}" fill="#deb35c" stroke="none" stroke-width="2.70748"/><path d="M176.44162,114.2661l-1.37819,5.06519l-4.2494,0.467l0.06247,-4.7482z" data-paper-data="{&quot;index&quot;:null}" fill="#deb35c" stroke="none" stroke-width="0"/><path d="M458.29967,261.98004l0.39523,-5.4161l4.40951,-1.00121l0.93376,4.92746z" fill="#deb35c" stroke="none" stroke-width="0"/><path d="M478.20998,236.01633l4.94034,6.82682l-2.29431,7.64722l-9.33105,-0.3783l-1.67358,-10.35223z" data-paper-data="{&quot;index&quot;:null}" fill="#deb35c" stroke="none" stroke-width="2.70748"/><path d="M207.55771,112.5893l0.32557,4.95459l-4.65792,1.87918l-1.70335,-4.22027z" data-paper-data="{&quot;index&quot;:null}" fill="#deb35c" stroke="none" stroke-width="0"/><path d="M430.40366,186.60748l-2.85424,-6.81836l5.86644,-2.70318l4.3825,4.10209l-0.58895,5.51207z" fill="#deb35c" stroke="none" stroke-width="2.70748"/><path d="M468.61585,277.7571l-0.58895,-5.51207l4.3825,-4.10209l5.86644,2.70318l-2.85424,6.81836z" data-paper-data="{&quot;index&quot;:null}" fill="#deb35c" stroke="none" stroke-width="2.70748"/><path d="M429.05366,222.7119l5.96669,3.91227l0.38914,7.42784l-7.61338,3.30674l-4.36984,-8.19595z" data-paper-data="{&quot;index&quot;:null}" fill="#deb35c" stroke="none" stroke-width="2.70748"/><path d="M276.60468,345.71542l-4.36984,8.19595l-7.61338,-3.30674l0.38914,-7.42784l5.96669,-3.91227z" fill="#deb35c" stroke="none" stroke-width="2.70748"/><path d="M247.1207,358.89287l0.39523,-5.4161l4.4095,-1.0012l0.93376,4.92745z" fill="#deb35c" stroke="none" stroke-width="0"/><path d="M307.71446,357.6214l-11.74303,-3.19485l0.85219,-9.90058l9.1626,-1.3663l7.21366,6.15623z" fill="#deb35c" stroke="none" stroke-width="2.70748"/><path d="M372.55706,357.32444l-8.68528,-2.36295l0.63029,-7.32259l6.77678,-1.01053l5.33531,4.55321z" fill="#deb35c" stroke="none" stroke-width="2.70748"/><path d="M284.5429,346.98916l0.39523,-5.4161l4.40951,-1.00121l0.93376,4.92746z" fill="#deb35c" stroke="none" stroke-width="0"/><path d="M381.7524,336.35391l8.21541,-1.87604l6.14029,5.10301l-3.99839,8.43946l-10.18194,-2.50951z" data-paper-data="{&quot;index&quot;:null}" fill="#deb35c" stroke="none" stroke-width="2.70748"/><path d="M471.34046,175.85907l-13.1742,-9.17794l-16.48535,11.67595l-11.10839,-9.66324l-17.50985,8.97929l-9.88471,-10.72789c0,0 -9.37908,9.91794 -9.77342,9.69531c-0.57766,-0.32611 -2.71994,-1.97236 -4.76113,-3.57179c-0.5155,-6.65026 -1.38068,-13.29046 -1.32045,-19.95729c0.02216,-2.45291 0.11805,-4.9031 0.25997,-7.35153c0.30612,-0.22382 0.62967,-0.44373 0.96823,-0.66026c2.03748,-1.30311 4.20741,-1.58481 9.50853,-1.58829c15.90339,-0.01048 50.52071,-0.03329 82.85655,-0.05458c2.74719,-0.00181 9.01828,-0.86662 10.758,-0.53247c-0.01262,4.56372 -0.59258,32.63957 -0.59258,32.63957l-10.39914,-7.52739z" data-paper-data="{&quot;origPos&quot;:null,&quot;origRot&quot;:0}" fill-opacity="0.29412" fill="#662900" stroke="#0f6600" stroke-width="0"/><path d="M231.71398,112.26054l-13.53057,-10.7079l-16.93129,13.62233l-11.40888,-11.2741l-17.9835,10.47615l-10.1521,-12.51623c0,0 -9.63279,11.57127 -10.0378,11.31153c-0.44932,-0.28815 -3.8812,-3.77039 -3.8812,-3.77039c0,0 -0.49805,-21.88856 -1.02971,-33.0814c2.0716,-1.47497 4.31138,-1.79601 9.692,-1.80002c16.33359,-0.01223 51.88732,-0.03884 85.09787,-0.06369c3.78764,-0.00283 6.69412,0.28237 8.58206,1.03051c-0.40967,5.65987 -0.20176,27.47098 0.21918,33.38906c-0.02507,0.25082 -0.04087,0.50437 -0.04705,0.7603l-8.99423,-6.5027z" data-paper-data="{&quot;origPos&quot;:null,&quot;origRot&quot;:0}" fill-opacity="0.29412" fill="#662900" stroke="#0f6600" stroke-width="0"/><path d="M213.19257,294.83971c0,0 230.72296,-0.2156 252.6117,-0.23911c7.29624,-0.00784 13.3542,-0.83671 15.35726,2.51142c0.40909,0.68379 0.76847,1.34969 1.08411,2.0043c-0.81464,16.96264 -1.24626,36.56584 -1.4077,44.95546l-11.04156,-7.7673l-13.43793,14.01689l-17.7138,-12.53498l-18.86744,12.78875l-8.25997,-16.39792l-18.85738,14.05447l-23.13324,-12.49739l-6.63346,17.76703l-29.9176,-13.71611l-10.72822,13.99808l-12.33459,-17.63546l-18.84731,15.32019l-17.72386,-13.80071l-5.30877,13.96048l-16.36899,-13.8101l-9.36329,15.2544l-11.02146,-9.68357l-14.67194,7.5207l-10.38893,-12.0653l-7.51233,5.29126c-0.51292,-15.61842 -0.80862,-31.2465 -1.4947,-46.85723c0.0894,-0.06979 0.17936,-0.13726 0.26988,-0.20231c4.30756,-3.09551 15.71147,-2.23596 15.71147,-2.23596z" data-paper-data="{&quot;origPos&quot;:null,&quot;origRot&quot;:0}" fill-opacity="0.29412" fill="#662900" stroke="#0f6600" stroke-width="0"/><path d="M471.34046,168.85907l-13.1742,-9.17794l-16.48535,11.67595l-11.10839,-9.66324l-17.50985,8.97929l-9.88471,-10.72789c0,0 -9.37908,9.91794 -9.77342,9.69531c-1.18304,-0.66786 -8.92832,-6.87265 -8.92832,-6.87265c0,-8.15066 0,-13.02734 0,-19.3057c0,-2.09278 1.65362,-3.8139 4.07495,-5.36251c2.03748,-1.30311 4.20741,-1.58481 9.50853,-1.58829c15.90339,-0.01048 50.52071,-0.03329 82.85655,-0.05458c5.30124,-0.00349 8.82964,0.50315 10.18796,1.96523c1.5179,1.63385 3.3958,3.71382 3.3958,5.57074c0,9.27068 0,16.56717 0,25.83784l-13.81749,-8.7941z" data-paper-data="{&quot;origRot&quot;:0}" fill="url(#color-1)" stroke="#0f6600" stroke-width="2"/><path d="M213.19257,287.83971c0,0 230.72296,-0.2156 252.6117,-0.23911c7.29624,-0.00784 13.3542,-0.83671 15.35726,2.51142c3.05985,5.11452 3.33845,9.22775 3.33845,15.10738c0,11.47616 0,22.95232 0,34.42848l-14.7036,-10.3434l-13.43793,14.01689l-17.7138,-12.53498l-18.86744,12.78875l-8.25997,-16.39792l-18.85738,14.05447l-23.13324,-12.49739l-6.63346,17.76703l-29.9176,-13.71611l-10.72822,13.99808l-12.33459,-17.63546l-18.84731,15.32019l-17.72386,-13.80071l-5.30877,13.96048l-16.36899,-13.8101l-9.36329,15.2544l-11.02146,-9.68357l-14.67194,7.5207l-10.38893,-12.0653l-16.49032,11.61485l-0.71235,-38.24504c0,0 3.33772,-11.45314 8.46552,-15.13808c4.30756,-3.09551 15.71147,-2.23596 15.71147,-2.23596z" data-paper-data="{&quot;origPos&quot;:null,&quot;origRot&quot;:0}" fill="url(#color-2)" stroke="#0f6600" stroke-width="2"/><path d="M231.71398,105.26054l-13.53057,-10.7079l-16.93129,13.62233l-11.40888,-11.2741l-17.9835,10.47615l-10.1521,-12.51623c0,0 -9.63279,11.57127 -10.0378,11.31153c-1.21504,-0.7792 -9.16984,-8.01833 -9.16984,-8.01833c0,-9.50938 0,-15.199 0,-22.52397c0,-2.44165 1.69835,-4.44967 4.18518,-6.25644c2.09259,-1.52034 4.32122,-1.849 9.76574,-1.85306c16.33359,-0.01223 51.88732,-0.03884 85.09787,-0.06369c5.44464,-0.00407 9.06849,0.58703 10.46355,2.29284c1.55896,1.90621 3.48766,4.33292 3.48766,6.49939c0,10.8161 0,19.32892 0,30.14502l-14.19126,-10.26008z" data-paper-data="{&quot;origPos&quot;:null,&quot;origRot&quot;:0}" fill="url(#color-3)" stroke="#0f6600" stroke-width="2"/></g></g></svg>