<svg version="1.1" xmlns="http://www.w3.org/2000/svg" xmlns:xlink="http://www.w3.org/1999/xlink" width="484.10778" height="74.78152" viewBox="0,0,484.10778,74.78152"><defs><linearGradient x1="239.14892" y1="287.21962" x2="239.14892" y2="337.8668" gradientUnits="userSpaceOnUse" id="color-1"><stop offset="0" stop-color="#b9e058"/><stop offset="1" stop-color="#64db1f"/></linearGradient><linearGradient x1="232.49705" y1="-57.18017" x2="232.49705" y2="-1.18017" gradientUnits="userSpaceOnUse" id="color-2"><stop offset="0" stop-color="#c3e060"/><stop offset="1" stop-color="#6de01b"/></linearGradient><linearGradient x1="232.49705" y1="-57.18017" x2="232.49705" y2="-1.18017" gradientUnits="userSpaceOnUse" id="color-3"><stop offset="0" stop-color="#c3e060"/><stop offset="1" stop-color="#6de01b"/></linearGradient><linearGradient x1="232.49705" y1="-57.18017" x2="232.49705" y2="-1.18017" gradientUnits="userSpaceOnUse" id="color-4"><stop offset="0" stop-color="#c3e060"/><stop offset="1" stop-color="#6de01b"/></linearGradient></defs><g transform="translate(2.92618,-286.21848)"><g data-paper-data="{&quot;isPaintingLayer&quot;:true}" fill-rule="nonzero" stroke-linejoin="miter" stroke-miterlimit="10" stroke-dasharray="" stroke-dashoffset="0" style="mix-blend-mode: normal"><path d="M0,315l480,-7.69723v52.69723h-480z" fill="#c06520" stroke="#763e13" stroke-width="2" stroke-linecap="butt"/><path d="M363.65477,347.75201l-7.98491,2.69325l-6.62265,-4.4592l3.12881,-8.79898l10.38279,1.47213z" data-paper-data="{&quot;index&quot;:null}" fill="#deb35c" stroke="none" stroke-width="2.70748" stroke-linecap="butt"/><path d="M120.72953,334.25838l5.96669,3.91228l0.38914,7.42784l-7.61338,3.30674l-4.36984,-8.19595z" data-paper-data="{&quot;index&quot;:null}" fill="#deb35c" stroke="none" stroke-width="2.70748" stroke-linecap="butt"/><path d="M330.77673,345.25559l-0.58895,-5.51207l4.3825,-4.10209l5.86645,2.70318l-2.85425,6.81836z" data-paper-data="{&quot;index&quot;:null}" fill="#deb35c" stroke="none" stroke-width="2.70748" stroke-linecap="butt"/><path d="M243.84766,344.39689l0.93376,-4.92746l4.40951,1.00121l0.39523,5.4161z" data-paper-data="{&quot;index&quot;:null}" fill="#deb35c" stroke="none" stroke-width="0" stroke-linecap="butt"/><path d="M200.50696,345.30979l7.21366,-6.15623l9.1626,1.3663l0.8522,9.90058l-11.74303,3.19485z" data-paper-data="{&quot;index&quot;:null}" fill="#deb35c" stroke="none" stroke-width="2.70748" stroke-linecap="butt"/><path d="M51.09268,346.17547l5.33531,-4.55322l6.77678,1.01053l0.6303,7.32258l-8.68529,2.36296z" data-paper-data="{&quot;index&quot;:null}" fill="#deb35c" stroke="none" stroke-width="2.70748" stroke-linecap="butt"/><path d="M78.79013,355.45186l-2.85424,-6.81836l5.86645,-2.70318l4.3825,4.10209l-0.58895,5.51207z" data-paper-data="{&quot;index&quot;:null}" fill="#deb35c" stroke="none" stroke-width="2.70748" stroke-linecap="butt"/><path d="M75.92876,337.07985l-1.3782,5.06519l-4.2494,0.467l0.06247,-4.7482z" data-paper-data="{&quot;index&quot;:null}" fill="#deb35c" stroke="none" stroke-width="0" stroke-linecap="butt"/><path d="M143.42543,346.49319l0.93376,-4.92746l4.40951,1.00121l0.39523,5.4161z" data-paper-data="{&quot;index&quot;:null}" fill="#deb35c" stroke="none" stroke-width="0" stroke-linecap="butt"/><path d="M378.04486,331.06972l0.32558,4.95458l-4.65792,1.87918l-1.70336,-4.22027z" data-paper-data="{&quot;index&quot;:null}" fill="#deb35c" stroke="none" stroke-width="0" stroke-linecap="butt"/><path d="M319.84766,349.39689l0.93376,-4.92745l4.40951,1.0012l0.39523,5.4161z" data-paper-data="{&quot;index&quot;:null}" fill="#deb35c" stroke="none" stroke-width="0" stroke-linecap="butt"/><path d="M233.16798,351.99222l-4.16248,-2.79741l2.65559,-3.65978l5.13467,1.76792z" data-paper-data="{&quot;index&quot;:null}" fill="#deb35c" stroke="none" stroke-width="0" stroke-linecap="butt"/><path d="M443.66844,343.93288l9.08162,-2.73134l7.83732,4.93929l-3.20559,9.40595l-12.0356,-1.80286z" data-paper-data="{&quot;index&quot;:null}" fill="#deb35c" stroke="none" stroke-width="2.70748" stroke-linecap="butt"/><path d="M420.54115,353.21035l-4.94033,-6.82682l2.29431,-7.64723l9.33105,0.3783l1.67358,10.35223z" data-paper-data="{&quot;index&quot;:null}" fill="#deb35c" stroke="none" stroke-width="2.70748" stroke-linecap="butt"/><path d="M468.79015,344.45186l-2.85424,-6.81836l5.86645,-2.70319l4.38249,4.1021l-0.58895,5.51207z" data-paper-data="{&quot;index&quot;:null}" fill="#deb35c" stroke="none" stroke-width="2.70748" stroke-linecap="butt"/><path d="M409.92876,347.07985l-1.37819,5.06519l-4.2494,0.467l0.06247,-4.7482z" data-paper-data="{&quot;index&quot;:null}" fill="#deb35c" stroke="none" stroke-width="0" stroke-linecap="butt"/><path d="M5.50695,347.30979l7.21366,-6.15623l9.1626,1.3663l0.85219,9.90058l-11.74303,3.19485z" data-paper-data="{&quot;index&quot;:null}" fill="#deb35c" stroke="none" stroke-width="2.70748" stroke-linecap="butt"/><path d="M-1.20289,294.76926l481.17644,-0.54964l0.19515,39.95308l-5.25178,-5.88707l-10.04792,13.0739l-11.25839,-12.91796l-9.04841,11.06653l-8.87596,-10.93534l-12.75349,13.0937l-14.61774,-10.89329l-4.29106,12.03179l-14.27955,-9.89576l-11.09265,9.08143l-12.25791,-10.91059l-14.12887,10.10368l-10.25134,-11.92535l-12.06956,12.08872l-14.30969,-11.89565l-14.14393,8.10373l-9.20662,-9.93289l-12.05449,14.08866l-13.25737,-8.88837l-8.02634,12.04423l-14.28703,-10.88089l-14.1515,9.09634l-6.20056,-13.96245l-11.10018,8.08146l-11.24332,-10.91802l-16.12791,14.11843l-17.34591,-12.87341l-10.06298,11.07396l-13.26496,-9.90319l-14.12887,10.10368l-6.18547,-12.95508l-14.12133,11.10365l-17.32331,-9.87349l-4.96746,14.03674l-22.40377,-10.83633l-8.03382,11.0591l-9.23675,-13.93279l-14.1138,12.10363l-13.2725,-10.90317l-3.97547,11.0294l-12.25791,-10.91059l-7.01169,12.05165z" data-paper-data="{&quot;origRot&quot;:0}" fill-opacity="0.29412" fill="#662900" stroke="#0f6600" stroke-width="0" stroke-linecap="round"/><path d="M-1.20289,287.76926l481.17644,-0.54964l0.19515,39.95308l-5.25178,-5.88707l-10.04792,13.0739l-11.25839,-12.91796l-9.04841,11.06653l-8.87596,-10.93534l-12.75349,13.0937l-14.61774,-10.89329l-4.29106,12.03179l-14.27955,-9.89576l-11.09265,9.08143l-12.25791,-10.91059l-14.12887,10.10368l-10.25134,-11.92535l-12.06956,12.08872l-14.30969,-11.89565l-14.14393,8.10373l-9.20662,-9.93289l-12.05449,14.08866l-13.25737,-8.88837l-8.02634,12.04423l-14.28703,-10.88089l-14.1515,9.09634l-6.20056,-13.96245l-11.10018,8.08146l-11.24332,-10.91802l-16.12791,14.11843l-17.34591,-12.87341l-10.06298,11.07396l-13.26496,-9.90319l-14.12887,10.10368l-6.18547,-12.95508l-14.12133,11.10365l-17.32331,-9.87349l-4.96746,14.03674l-22.40377,-10.83633l-8.03382,11.0591l-9.23675,-13.93279l-14.1138,12.10363l-13.2725,-10.90317l-3.97547,11.0294l-12.25791,-10.91059l-7.01169,12.05165z" data-paper-data="{&quot;origRot&quot;:0}" fill="url(#color-1)" stroke="#0f6600" stroke-width="2" stroke-linecap="round"/><path d="" fill="url(#color-2)" stroke="#0f6600" stroke-width="2" stroke-linecap="butt"/><path d="" fill="url(#color-3)" stroke="#0f6600" stroke-width="2" stroke-linecap="butt"/><path d="" fill="url(#color-4)" stroke="#0f6600" stroke-width="2" stroke-linecap="butt"/></g></g></svg>