<svg version="1.1" xmlns="http://www.w3.org/2000/svg" xmlns:xlink="http://www.w3.org/1999/xlink" width="91.8936" height="89.19213" viewBox="0,0,91.8936,89.19213"><defs><linearGradient x1="275.54253" y1="183.7071" x2="275.54253" y2="200.17999" gradientUnits="userSpaceOnUse" id="color-1"><stop offset="0" stop-color="#ffd800"/><stop offset="1" stop-color="#e09e00"/></linearGradient><linearGradient x1="221.02634" y1="208.98429" x2="221.02634" y2="224.81373" gradientUnits="userSpaceOnUse" id="color-2"><stop offset="0" stop-color="#ffd800"/><stop offset="1" stop-color="#e09e00"/></linearGradient><linearGradient x1="267.0711" y1="205.83977" x2="267.0711" y2="221.66922" gradientUnits="userSpaceOnUse" id="color-3"><stop offset="0" stop-color="#ffd800"/><stop offset="1" stop-color="#e09e00"/></linearGradient><linearGradient x1="229.89795" y1="156.84089" x2="229.89795" y2="180.18467" gradientUnits="userSpaceOnUse" id="color-4"><stop offset="0" stop-color="#080f23"/><stop offset="1" stop-color="#152c42"/></linearGradient><linearGradient x1="256.99547" y1="158.15988" x2="256.99547" y2="180.34068" gradientUnits="userSpaceOnUse" id="color-5"><stop offset="0" stop-color="#080f23"/><stop offset="1" stop-color="#152c42"/></linearGradient><linearGradient x1="207.13409" y1="142.85961" x2="207.13409" y2="170.86607" gradientUnits="userSpaceOnUse" id="color-6"><stop offset="0" stop-color="#ffd800"/><stop offset="1" stop-color="#e09e00"/></linearGradient></defs><g transform="translate(-193.43375,-135.6216)"><g data-paper-data="{&quot;isPaintingLayer&quot;:true}" fill-rule="nonzero" stroke-linejoin="miter" stroke-miterlimit="10" stroke-dasharray="" stroke-dashoffset="0" style="mix-blend-mode: normal"><path d="M265.75773,190.08491c0.20233,-1.65014 1.79106,-2.82405 2.92534,-4.0395c5.98899,-6.41759 15.3827,1.68716 16.58049,8.53167c0.7041,4.02342 -4.58956,5.50863 -7.56644,5.59765c-5.68644,0.17005 -10.49809,-3.80143 -11.78938,-8.96659z" fill="url(#color-1)" stroke="none" stroke-width="0.5" stroke-linecap="butt"/><path d="M274.27528,183.23434c0,18.29707 -14.59452,33.8036 -34.81433,33.8036c-20.21981,0 -38.40807,-14.83271 -38.40807,-33.12977c0,-18.29707 16.6712,-33.27517 36.83581,-31.78212c12.1339,0.89844 36.38659,12.81123 36.38659,31.10829z" fill="#1d79ff" stroke="none" stroke-width="0" stroke-linecap="butt"/><path d="M255.18355,163.89743l-15.27338,-7.41209c0,0 7.7946,-23.24279 23.35929,-20.66399c7.64096,1.26597 16.84719,6.99955 17.70774,9.74778c0.16929,0.54063 -0.61279,0.05304 -2.20974,-0.31422c-22.15881,-5.09604 -23.5839,18.64252 -23.5839,18.64252z" fill="#1d79ff" stroke="#000000" stroke-width="0" stroke-linecap="round"/><path d="M207.77748,151.09474c-1.59695,0.36727 -2.37903,0.85485 -2.20974,0.31422c0.86055,-2.74823 10.06678,-8.48181 17.70774,-9.74778c15.56469,-2.5788 23.3593,20.66399 23.3593,20.66399l-15.27338,7.41208c0,0 -1.4251,-23.73855 -23.58391,-18.64252z" data-paper-data="{&quot;index&quot;:null}" fill="#1d79ff" stroke="#000000" stroke-width="0" stroke-linecap="round"/><path d="M230.5804,223.71038c-4.65964,1.81298 -17.52853,1.25684 -20.89752,-0.6868c-3.71884,-2.14549 -2.54914,-8.2948 0.26905,-10.61189c4.5901,-3.77395 13.32525,-4.73106 18.39443,-1.3516l1.02864,0.51432c0.13566,0.06431 0.26737,0.13558 0.39467,0.21337c4.76245,2.70381 7.84719,9.18485 0.81073,11.9226z" fill="url(#color-2)" stroke="none" stroke-width="0.5" stroke-linecap="butt"/><path d="M276.62516,220.56587c-4.65964,1.81298 -17.52853,1.25685 -20.89752,-0.6868c-3.71884,-2.14549 -2.54914,-8.2948 0.26905,-10.61189c4.5901,-3.77395 13.32525,-4.73106 18.39443,-1.35161l1.02864,0.51432c0.13566,0.06431 0.26737,0.13559 0.39467,0.21338c4.76245,2.70381 7.84719,9.18484 0.81073,11.9226z" fill="url(#color-3)" stroke="none" stroke-width="0.5" stroke-linecap="butt"/><path d="M235.3653,180.18456c-9.85512,-0.04478 -20.38481,-0.89828 -18.96365,-13.25922c0.25264,-2.19743 3.96405,-7.06717 8.22836,-9.65363c4.26431,-2.58645 17.98787,6.98352 18.85634,15.06911c0.1251,1.16475 -0.06979,2.29204 -0.488,3.27189c-0.26219,1.93305 -1.82407,3.45319 -3.77671,3.65148c-1.06773,0.59903 -2.32213,0.92734 -3.85633,0.92037z" fill="url(#color-4)" stroke="none" stroke-width="0.5" stroke-linecap="butt"/><path d="M251.72913,160.57589c7.42901,-8.38041 15.00527,7.20562 13.34256,13.85649c-2.50139,10.00555 -15.89341,6.24344 -16.21989,-3.38787c-0.10701,-0.37299 -0.16433,-0.76699 -0.16433,-1.17438c0,-0.36895 0.04701,-0.72693 0.13538,-1.06826c0.38065,-2.74269 1.14139,-6.23506 2.90628,-8.22598z" fill="url(#color-5)" stroke="none" stroke-width="0.5" stroke-linecap="butt"/><path d="" fill="#3e2e00" stroke="none" stroke-width="0.5" stroke-linecap="butt"/><path d="M267.31242,185.14352c0,0 -6.60252,26.49358 -24.48234,25.15616c-30.01667,-2.24526 -31.89442,-25.82999 -31.89442,-25.82999c0,0 21.47187,2.24053 30.7728,2.35169c9.48761,0.1134 25.60396,-1.67787 25.60396,-1.67787z" fill="#240808" stroke="#000000" stroke-width="0" stroke-linecap="round"/><path d="M219.57291,151.02294c8.96563,1.11255 21.98892,10.40437 26.57746,17.50411c2.41951,-2.61667 2.31887,-6.50075 4.83763,-10.10148c7.54968,-10.7928 17.02624,-13.93462 18.49726,-13.98597c-0.07101,0.06056 -7.04411,5.59355 -10.11482,14.31725c-1.50334,4.27089 -2.33585,17.73038 -2.98399,17.65391c-5.186,0.45085 -10.77624,-1.25933 -16.04323,-1.8636c0.87926,-8.86764 -7.7044,-14.32479 -13.85235,-18.2475c-1.20824,-0.77092 -10.0544,-5.66592 -6.91796,-5.27672z" fill="#000000" stroke="none" stroke-width="0.5" stroke-linecap="butt"/><path d="M240.35939,178.18456c-2.25,0 -2.25,-2.25 -2.25,-2.25c0,-1.722 0,-3.6686 0,-5.3906c0,0 0,-2.25 2.25,-2.25c2.25,0 2.25,2.25 2.25,2.25c0,1.722 0,3.444 0,5.166v0.2246c0,0 0,2.25 -2.25,2.25z" fill="#ffd800" stroke="none" stroke-width="0.5" stroke-linecap="butt"/><path d="M252.03903,177.95996c-2.25,0 -2.25,-2.25 -2.25,-2.25c0,-0.89844 0,-4.04296 0,-4.94139c0,0 0,-2.25 2.25,-2.25c2.25,0 2.25,2.25 2.25,2.25c0,0.89844 0,1.79686 0,2.6953v2.24609c0,0 0,2.25 -2.25,2.25z" fill="#ffd800" stroke="none" stroke-width="0.5" stroke-linecap="butt"/><path d="M220.82735,147.17169c0.27814,5.94065 -7.72038,13.35697 -11.85264,16.95483c-1.42308,1.23904 -5.62122,6.50602 -8.38402,5.75253c-0.02381,-0.0065 -0.04757,-0.01319 -0.07129,-0.02008c-1.05781,0.59857 -2.50686,1.2961 -3.12778,0.88215l-3.95787,-4.24012c0.8999,-3.04646 2.01059,-2.64469 3.78688,-4.22505c0.251,-0.22332 0.51531,-0.48623 0.79418,-0.80403c0.80346,-0.91565 -0.54328,-2.37537 -0.84946,-3.55444c-0.93283,-3.59226 -4.46505,-6.74618 -1.9997,-10.44422c0.58112,-0.87167 1.34448,-1.30134 2.17613,-1.42395c3.50752,-1.75328 7.09388,1.8372 10.66836,1.37753c2.79244,-0.35909 5.56661,-5.99046 9.1395,-4.22572c1.8134,0.25571 3.25915,1.65588 3.58316,3.44643c0.05322,0.16472 0.08588,0.33891 0.09455,0.52414z" fill="url(#color-6)" stroke="none" stroke-width="0.5" stroke-linecap="butt"/><path d="M223.18133,204.01966c4.68521,-3.44763 14.48729,-5.79619 19.43169,-3.64081c3.07273,1.33948 7.30815,5.80912 4.05413,9.71495c-0.81669,0.98029 -11.4887,-0.85743 -16.28704,-2.32808c-4.79835,-1.47065 -7.19878,-3.74606 -7.19878,-3.74606z" fill="#e33d3d" stroke="none" stroke-width="0.5" stroke-linecap="butt"/><path d="M238.78712,191.88177v-5.16599h14.15035v5.16599z" fill="#e4e4e4" stroke="none" stroke-width="0" stroke-linecap="butt"/></g></g></svg>