<svg version="1.1" xmlns="http://www.w3.org/2000/svg" xmlns:xlink="http://www.w3.org/1999/xlink" width="466.83576" height="234.1617" viewBox="0,0,466.83576,234.1617"><defs><linearGradient x1="-35.78424" y1="277.18256" x2="-35.78424" y2="280.67037" gradientUnits="userSpaceOnUse" id="color-1"><stop offset="0" stop-color="#036eff"/><stop offset="1" stop-color="#0144d0"/></linearGradient><linearGradient x1="-35.78424" y1="250.9468" x2="-35.78424" y2="255.65646" gradientUnits="userSpaceOnUse" id="color-2"><stop offset="0" stop-color="#3f97ff"/><stop offset="1" stop-color="#0054e3"/></linearGradient><linearGradient x1="-35.78424" y1="255.08054" x2="-35.78424" y2="277.44947" gradientUnits="userSpaceOnUse" id="color-3"><stop offset="0" stop-color="#0054e3"/><stop offset="1" stop-color="#036eff"/></linearGradient><linearGradient x1="-35.78424" y1="249.6641" x2="-35.78424" y2="251.59445" gradientUnits="userSpaceOnUse" id="color-4"><stop offset="0" stop-color="#0054e3"/><stop offset="1" stop-color="#3f97ff"/></linearGradient><linearGradient x1="182.57265" y1="266.34561" x2="189.76401" y2="266.34561" gradientUnits="userSpaceOnUse" id="color-5"><stop offset="0" stop-color="#0022ba" stop-opacity="0"/><stop offset="1" stop-color="#0022ba" stop-opacity="0.9451"/></linearGradient><linearGradient x1="164.1198" y1="256.9218" x2="183.79839" y2="276.60041" gradientUnits="userSpaceOnUse" id="color-6"><stop offset="0" stop-color="#e5684d"/><stop offset="1" stop-color="#e03802"/></linearGradient><linearGradient x1="174.01835" y1="272.85339" x2="174.01835" y2="277.54481" gradientUnits="userSpaceOnUse" id="color-7"><stop offset="0" stop-color="#aa2300" stop-opacity="0"/><stop offset="1" stop-color="#aa2300"/></linearGradient><linearGradient x1="180.07265" y1="266.59909" x2="184.76401" y2="266.59909" gradientUnits="userSpaceOnUse" id="color-8"><stop offset="0" stop-color="#aa2300" stop-opacity="0"/><stop offset="1" stop-color="#aa2300"/></linearGradient><linearGradient x1="168.83981" y1="254.99979" x2="178.25415" y2="264.41411" gradientUnits="userSpaceOnUse" id="color-9"><stop offset="0" stop-color="#f29782"/><stop offset="1" stop-color="#f29782" stop-opacity="0"/></linearGradient><linearGradient x1="162.26668" y1="261.63607" x2="171.72688" y2="271.09631" gradientUnits="userSpaceOnUse" id="color-10"><stop offset="0" stop-color="#f29782"/><stop offset="1" stop-color="#f29782" stop-opacity="0"/></linearGradient><linearGradient x1="231.36227" y1="277.18256" x2="231.36227" y2="280.67037" gradientUnits="userSpaceOnUse" id="color-11"><stop offset="0" stop-color="#036eff"/><stop offset="1" stop-color="#0144d0"/></linearGradient><linearGradient x1="231.36227" y1="250.9468" x2="231.36227" y2="255.65646" gradientUnits="userSpaceOnUse" id="color-12"><stop offset="0" stop-color="#3f97ff"/><stop offset="1" stop-color="#0054e3"/></linearGradient><linearGradient x1="231.36227" y1="255.08054" x2="231.36227" y2="277.44947" gradientUnits="userSpaceOnUse" id="color-13"><stop offset="0" stop-color="#0054e3"/><stop offset="1" stop-color="#036eff"/></linearGradient><linearGradient x1="231.36227" y1="249.6641" x2="231.36227" y2="251.59445" gradientUnits="userSpaceOnUse" id="color-14"><stop offset="0" stop-color="#0054e3"/><stop offset="1" stop-color="#3f97ff"/></linearGradient><linearGradient x1="13.18187" y1="266.34561" x2="5.9905" y2="266.34561" gradientUnits="userSpaceOnUse" id="color-15"><stop offset="0" stop-color="#0022ba" stop-opacity="0"/><stop offset="1" stop-color="#0022ba" stop-opacity="0.54118"/></linearGradient><linearGradient x1="187.75828" y1="327.33376" x2="189.75828" y2="327.33376" gradientUnits="userSpaceOnUse" id="color-16"><stop offset="0" stop-color="#003ddc"/><stop offset="1" stop-color="#001ea0"/></linearGradient><linearGradient x1="8.02976" y1="327.33376" x2="6.02976" y2="327.33376" gradientUnits="userSpaceOnUse" id="color-17"><stop offset="0" stop-color="#003ddc"/><stop offset="1" stop-color="#001ea0"/></linearGradient><linearGradient x1="35.87378" y1="294.65673" x2="35.87378" y2="320.65666" gradientUnits="userSpaceOnUse" id="color-18"><stop offset="0" stop-color="#ffffff"/><stop offset="1" stop-color="#a2d5ff"/></linearGradient><linearGradient x1="35.87378" y1="294.65673" x2="35.87378" y2="320.65666" gradientUnits="userSpaceOnUse" id="color-19"><stop offset="0" stop-color="#728fb5" stop-opacity="0"/><stop offset="1" stop-color="#728fb5" stop-opacity="0.37255"/></linearGradient><linearGradient x1="99.29459" y1="341.35925" x2="99.29459" y2="362.25997" gradientUnits="userSpaceOnUse" id="color-20"><stop offset="0" stop-color="#bcd4f6"/><stop offset="1" stop-color="#89ade4"/></linearGradient><linearGradient x1="99.20903" y1="343.89705" x2="99.20903" y2="359.89705" gradientUnits="userSpaceOnUse" id="color-21"><stop offset="0" stop-color="#ffffff"/><stop offset="1" stop-color="#ecebe6"/></linearGradient><linearGradient x1="246.24579" y1="169.16454" x2="246.24579" y2="172.65235" gradientUnits="userSpaceOnUse" id="color-22"><stop offset="0" stop-color="#036eff"/><stop offset="1" stop-color="#0144d0"/></linearGradient><linearGradient x1="246.24579" y1="142.92878" x2="246.24579" y2="147.63844" gradientUnits="userSpaceOnUse" id="color-23"><stop offset="0" stop-color="#3f97ff"/><stop offset="1" stop-color="#0054e3"/></linearGradient><linearGradient x1="246.24579" y1="147.06252" x2="246.24579" y2="169.43145" gradientUnits="userSpaceOnUse" id="color-24"><stop offset="0" stop-color="#0054e3"/><stop offset="1" stop-color="#036eff"/></linearGradient><linearGradient x1="246.24579" y1="141.64608" x2="246.24579" y2="143.57643" gradientUnits="userSpaceOnUse" id="color-25"><stop offset="0" stop-color="#0054e3"/><stop offset="1" stop-color="#3f97ff"/></linearGradient><linearGradient x1="464.60268" y1="158.32759" x2="471.79404" y2="158.32759" gradientUnits="userSpaceOnUse" id="color-26"><stop offset="0" stop-color="#0022ba" stop-opacity="0"/><stop offset="1" stop-color="#0022ba" stop-opacity="0.9451"/></linearGradient><linearGradient x1="446.14983" y1="148.90378" x2="465.82842" y2="168.58239" gradientUnits="userSpaceOnUse" id="color-27"><stop offset="0" stop-color="#e5684d"/><stop offset="1" stop-color="#e03802"/></linearGradient><linearGradient x1="456.04838" y1="164.83537" x2="456.04838" y2="169.52679" gradientUnits="userSpaceOnUse" id="color-28"><stop offset="0" stop-color="#aa2300" stop-opacity="0"/><stop offset="1" stop-color="#aa2300"/></linearGradient><linearGradient x1="462.10268" y1="158.58107" x2="466.79404" y2="158.58107" gradientUnits="userSpaceOnUse" id="color-29"><stop offset="0" stop-color="#aa2300" stop-opacity="0"/><stop offset="1" stop-color="#aa2300"/></linearGradient><linearGradient x1="450.86984" y1="146.98177" x2="460.28418" y2="156.39609" gradientUnits="userSpaceOnUse" id="color-30"><stop offset="0" stop-color="#f29782"/><stop offset="1" stop-color="#f29782" stop-opacity="0"/></linearGradient><linearGradient x1="444.29671" y1="153.61805" x2="453.75691" y2="163.07829" gradientUnits="userSpaceOnUse" id="color-31"><stop offset="0" stop-color="#f29782"/><stop offset="1" stop-color="#f29782" stop-opacity="0"/></linearGradient><linearGradient x1="513.3923" y1="169.16454" x2="513.3923" y2="172.65235" gradientUnits="userSpaceOnUse" id="color-32"><stop offset="0" stop-color="#036eff"/><stop offset="1" stop-color="#0144d0"/></linearGradient><linearGradient x1="513.3923" y1="142.92878" x2="513.3923" y2="147.63844" gradientUnits="userSpaceOnUse" id="color-33"><stop offset="0" stop-color="#3f97ff"/><stop offset="1" stop-color="#0054e3"/></linearGradient><linearGradient x1="513.3923" y1="147.06252" x2="513.3923" y2="169.43145" gradientUnits="userSpaceOnUse" id="color-34"><stop offset="0" stop-color="#0054e3"/><stop offset="1" stop-color="#036eff"/></linearGradient><linearGradient x1="513.3923" y1="141.64608" x2="513.3923" y2="143.57643" gradientUnits="userSpaceOnUse" id="color-35"><stop offset="0" stop-color="#0054e3"/><stop offset="1" stop-color="#3f97ff"/></linearGradient><linearGradient x1="295.2119" y1="158.32759" x2="288.02053" y2="158.32759" gradientUnits="userSpaceOnUse" id="color-36"><stop offset="0" stop-color="#0022ba" stop-opacity="0"/><stop offset="1" stop-color="#0022ba" stop-opacity="0.54118"/></linearGradient><linearGradient x1="469.78831" y1="219.31574" x2="471.78831" y2="219.31574" gradientUnits="userSpaceOnUse" id="color-37"><stop offset="0" stop-color="#003ddc"/><stop offset="1" stop-color="#001ea0"/></linearGradient><linearGradient x1="290.05979" y1="219.31574" x2="288.05979" y2="219.31574" gradientUnits="userSpaceOnUse" id="color-38"><stop offset="0" stop-color="#003ddc"/><stop offset="1" stop-color="#001ea0"/></linearGradient><linearGradient x1="317.90381" y1="186.63871" x2="317.90381" y2="212.63864" gradientUnits="userSpaceOnUse" id="color-39"><stop offset="0" stop-color="#ffffff"/><stop offset="1" stop-color="#a2d5ff"/></linearGradient><linearGradient x1="317.90381" y1="186.63871" x2="317.90381" y2="212.63864" gradientUnits="userSpaceOnUse" id="color-40"><stop offset="0" stop-color="#728fb5" stop-opacity="0"/><stop offset="1" stop-color="#728fb5" stop-opacity="0.37255"/></linearGradient><linearGradient x1="381.32462" y1="233.34123" x2="381.32462" y2="254.24195" gradientUnits="userSpaceOnUse" id="color-41"><stop offset="0" stop-color="#bcd4f6"/><stop offset="1" stop-color="#89ade4"/></linearGradient><linearGradient x1="381.23906" y1="235.87903" x2="381.23906" y2="251.87903" gradientUnits="userSpaceOnUse" id="color-42"><stop offset="0" stop-color="#ffffff"/><stop offset="1" stop-color="#ecebe6"/></linearGradient></defs><g transform="translate(-5.9599,-141.64608)"><g data-paper-data="{&quot;isPaintingLayer&quot;:true}" fill-rule="nonzero" stroke-linejoin="miter" stroke-miterlimit="10" stroke-dasharray="" stroke-dashoffset="0" style="mix-blend-mode: normal"><g><path d="M7.70889,375.80778v-98.3818h180.33747v98.3818z" fill="#ece9d8" stroke="none" stroke-width="0" stroke-linecap="butt"/><g stroke-linecap="butt"><g stroke="none" stroke-width="4.70962"><path d="M189.6175,280.67037h-108.80348v-3.48779h108.80348z" data-paper-data="{&quot;origPos&quot;:null}" fill="url(#color-1)"/><path d="M189.6175,255.35265c0,0.00004 -108.80348,0 -108.80348,0v-4.10199l106.85853,-0.06667c0,0 0.38045,0.21195 0.62303,0.57165c0.50609,0.7504 1.34927,2.14379 1.32192,3.59701z" data-paper-data="{&quot;index&quot;:null}" fill="url(#color-2)"/><path d="M189.6175,277.44947h-108.80348v-22.36894h108.80348z" data-paper-data="{&quot;origPos&quot;:null,&quot;index&quot;:null}" fill="url(#color-3)"/><path d="M188.09107,251.59445h-107.27704v-1.93035c0,0 75.13531,0 102.97705,0c2.87607,0 4.29999,1.93035 4.29999,1.93035z" data-paper-data="{&quot;index&quot;:null}" fill="url(#color-4)"/></g><path d="M182.57265,280.62587v-30.8105c0,0 2.18739,0 3.09086,0c1.60028,0 4.10053,2.6565 4.10053,4.35681v26.60318z" fill="url(#color-5)" stroke="#ffffff" stroke-width="0"/></g><g stroke="#ffffff"><g stroke-linecap="butt"><g stroke-width="0"><path d="M163.23462,275.03695c0,-2.93615 0,-10.09222 0,-16.55174c0,-0.97871 1.63106,-2.50784 2.67502,-2.50784c6.32904,0 13.08548,0 16.21737,0c1.04396,0 2.67503,1.733 2.67503,2.84222c0,6.26378 0,12.91828 0,16.05017c0,1.04396 -1.733,2.67502 -2.84222,2.67502c0,0 -12.91828,0 -16.05017,0c-1.04396,0 -2.67502,-1.52912 -2.67502,-2.50784z" fill="url(#color-6)"/><path d="M163.23462,275.03695c0,-0.57721 0,-2.18354 0,-2.18354h21.56741c0,0 0,1.42696 0,2.01636c0,1.04396 -1.733,2.67502 -2.84222,2.67502c0,0 -12.91828,0 -16.05017,0c-1.04396,0 -2.67502,-1.52912 -2.67502,-2.50784z" fill="url(#color-7)"/><path d="M182.25619,277.38283c-0.57721,0 -2.18354,0 -2.18354,0v-21.56742c0,0 1.42697,0 2.01636,0c1.04396,0 2.67503,1.733 2.67503,2.84222c0,0 0,12.91829 0,16.05018c0,1.04396 -1.52912,2.67502 -2.50784,2.67502z" fill="url(#color-8)"/><g><path d="M181.50736,257.46979v3.69115h-16.70395c0,0 0,-1.10518 0,-1.56166c0,-0.80855 1.34221,-2.07181 2.2013,-2.07181z" fill="url(#color-9)"/><path d="M168.4663,261.18208v13.17481h-3.66167l0.02632,-13.17452z" fill="url(#color-10)"/></g></g><path d="M163.23462,275.03695c0,-2.93615 0,-10.09222 0,-16.55174c0,-0.97871 1.63106,-2.50784 2.67502,-2.50784c6.32904,0 13.08548,0 16.21737,0c1.04396,0 2.67503,1.733 2.67503,2.84222c0,6.26378 0,12.91828 0,16.05017c0,1.04396 -1.733,2.67502 -2.84222,2.67502c0,0 -12.91828,0 -16.05017,0c-1.04396,0 -2.67502,-1.52912 -2.67502,-2.50784z" fill="none" stroke-width="1"/></g><g fill="none" stroke-width="2.5" stroke-linecap="round"><path d="M168.97852,271.95985l9.66666,-10.11112"/><path d="M168.9785,261.84873l9.66666,10.11112" data-paper-data="{&quot;index&quot;:null}"/></g></g><g data-paper-data="{&quot;index&quot;:null}" stroke-linecap="butt"><g stroke="none" stroke-width="4.70962"><path d="M5.96051,277.18256h108.80348v3.48779h-108.80348z" data-paper-data="{&quot;origPos&quot;:null}" fill="url(#color-11)"/><path d="M7.28247,251.75561c0.24259,-0.35969 0.62303,-0.57165 0.62303,-0.57165l106.85853,0.06667v4.10199c0,0 -108.80348,0.00004 -108.80348,0c-0.02735,-1.45322 0.81583,-2.84661 1.32192,-3.59701z" data-paper-data="{&quot;index&quot;:null}" fill="url(#color-12)"/><path d="M5.96051,255.08054h108.80348v22.36894h-108.80348z" data-paper-data="{&quot;origPos&quot;:null,&quot;index&quot;:null}" fill="url(#color-13)"/><path d="M11.78697,249.6641c27.84174,0 102.97705,0 102.97705,0v1.93035h-107.27704c0,0 1.42392,-1.93035 4.3,-1.93035z" data-paper-data="{&quot;index&quot;:null}" fill="url(#color-14)"/></g><path d="M5.99047,280.7754v-26.4267c0,-1.70031 2.67673,-4.53328 4.277,-4.53328c0.90347,0 2.91439,0 2.91439,0v30.81051z" fill="url(#color-15)" stroke="#ffffff" stroke-width="0"/></g><path d="M187.75828,374.70141v-94.61765h2v94.61765z" fill="url(#color-16)" stroke="none" stroke-width="0" stroke-linecap="butt"/><path d="M5.97094,374.70141v-94.61765h2.05882v94.61765z" data-paper-data="{&quot;index&quot;:null}" fill="url(#color-17)" stroke="none" stroke-width="0" stroke-linecap="butt"/><g stroke="none" stroke-width="1" stroke-linecap="butt" font-family="&quot;Trebuchet MS&quot;, &quot;ヒラギノ角ゴ Pro W3&quot;, &quot;Hiragino Kaku Gothic Pro&quot;, Osaka, &quot;メイリオ&quot;, Meiryo, &quot;ＭＳ Ｐゴシック&quot;, &quot;MS PGothic&quot;" font-weight="normal" font-size="40" text-anchor="start"><text transform="translate(12.85213,272.76313) scale(0.37211,0.40208)" font-size="40" xml:space="preserve" fill="#0a1883" fill-rule="nonzero" stroke="none" stroke-width="1" stroke-linecap="butt" stroke-linejoin="miter" stroke-miterlimit="10" stroke-dasharray="" stroke-dashoffset="0" font-family="&quot;Trebuchet MS&quot;, &quot;ヒラギノ角ゴ Pro W3&quot;, &quot;Hiragino Kaku Gothic Pro&quot;, Osaka, &quot;メイリオ&quot;, Meiryo, &quot;ＭＳ Ｐゴシック&quot;, &quot;MS PGothic&quot;" font-weight="normal" text-anchor="start" style="mix-blend-mode: normal"><tspan x="0" dy="0">Information</tspan></text><text transform="translate(11.87712,271.76313) scale(0.37211,0.40208)" font-size="40" xml:space="preserve" fill="#ffffff" fill-rule="nonzero" stroke="none" stroke-width="1" stroke-linecap="butt" stroke-linejoin="miter" stroke-miterlimit="10" stroke-dasharray="" stroke-dashoffset="0" font-family="&quot;Trebuchet MS&quot;, &quot;ヒラギノ角ゴ Pro W3&quot;, &quot;Hiragino Kaku Gothic Pro&quot;, Osaka, &quot;メイリオ&quot;, Meiryo, &quot;ＭＳ Ｐゴシック&quot;, &quot;MS PGothic&quot;" font-weight="normal" text-anchor="start" style="mix-blend-mode: normal"><tspan x="0" dy="0">Information</tspan></text></g><text transform="translate(67.20898,307.88806) scale(0.29266,0.29266)" font-size="40" xml:space="preserve" fill="#000000" fill-rule="nonzero" stroke="none" stroke-width="1" stroke-linecap="butt" stroke-linejoin="miter" stroke-miterlimit="10" stroke-dasharray="" stroke-dashoffset="0" font-family="&quot;Tahoma&quot;, &quot;ヒラギノ角ゴ Pro W3&quot;, &quot;Hiragino Kaku Gothic Pro&quot;, Osaka, &quot;メイリオ&quot;, Meiryo, &quot;ＭＳ Ｐゴシック&quot;, &quot;MS PGothic&quot;" font-weight="normal" text-anchor="start" style="mix-blend-mode: normal"><tspan x="0" dy="0">You can walk inside</tspan><tspan x="0" dy="48px">unfocused windows!</tspan></text><g stroke-linecap="butt"><path d="M53.12378,309.32338c0,5.93628 -4.76956,10.94324 -11.2862,12.49946c-0.29867,0.07133 0.14298,5.08301 -0.29714,5.16721c-3.48467,0.66667 -5.29335,-4.7 -5.92371,-4.76474c-7.6988,-0.79068 -13.65963,-6.26559 -13.65963,-12.90193c0,-7.1797 6.9769,-13 15.58333,-13c8.60643,0 15.58333,5.8203 15.58333,13z" fill-opacity="0.55686" fill="#000000" stroke="#000000" stroke-width="0"/><g><g stroke="#000000" stroke-width="0"><path d="M51.4571,307.65673c0,5.93628 -4.76956,10.94324 -11.2862,12.49946c-0.29867,0.07133 0.14298,5.08301 -0.29713,5.16721c-3.48467,0.66667 -5.29335,-4.7 -5.92371,-4.76474c-7.6988,-0.79068 -13.65963,-6.26559 -13.65963,-12.90192c0,-7.1797 6.9769,-13 15.58334,-13c8.60643,0 15.58333,5.8203 15.58333,13z" fill="url(#color-18)"/><path d="M51.4571,307.65673c0,5.93628 -4.76956,10.94324 -11.2862,12.49946c-0.29867,0.07133 0.14298,5.08301 -0.29713,5.16721c-3.48467,0.66667 -5.29335,-4.7 -5.92371,-4.76474c-7.6988,-0.79068 -13.65963,-6.26559 -13.65963,-12.90192c0,-7.1797 6.9769,-13 15.58334,-13c8.60643,0 15.58333,5.8203 15.58333,13zM38.48743,322.3459c0.24552,0.0566 -0.06156,-4.99331 0.1839,-5.05727c4.56129,-1.18856 9.25802,-3.71321 9.25802,-10.06681c0,-7.96729 -6.58826,-10.44445 -12.11111,-10.44445c-5.52285,0 -12.37883,2.47557 -12.22222,10.33333c0.14243,7.14628 5.71007,9.74101 10.76115,10.45155c0.48701,0.06851 2.31531,4.36525 4.13027,4.78364z" fill="url(#color-19)"/></g><text transform="translate(32.04045,314.61537) scale(0.61998,0.61998)" font-size="40" xml:space="preserve" fill="#001670" fill-rule="nonzero" stroke="#001670" stroke-width="2" stroke-linecap="butt" stroke-linejoin="miter" stroke-miterlimit="10" stroke-dasharray="" stroke-dashoffset="0" font-family="Serif" font-weight="normal" text-anchor="start" style="mix-blend-mode: normal"><tspan x="0" dy="0">i</tspan></text></g></g><g stroke-linecap="butt"><path d="M61.54929,359.75216c0,-2.93615 0,-9.42556 0,-15.88507c0,-0.97871 1.5806,-2.50784 2.59226,-2.50784c6.13323,0 67.27105,0 70.30605,0c1.01166,0 2.59227,1.733 2.59227,2.84222c0,6.26378 0,12.25162 0,15.38351c0,1.04396 -1.67938,2.67502 -2.75429,2.67502c0,0 -67.10903,0 -70.14402,0c-1.01165,0 -2.59226,-1.52912 -2.59226,-2.50784z" fill="url(#color-20)" stroke="#003c74" stroke-width="1"/><path d="M64.40358,359.89705v-16h69.61088v16z" fill="url(#color-21)" stroke="none" stroke-width="0"/></g><text transform="translate(90.56183,355.79647) scale(0.29266,0.29266)" font-size="40" xml:space="preserve" data-paper-data="{&quot;index&quot;:null}" fill="#000000" fill-rule="nonzero" stroke="none" stroke-width="1" stroke-linecap="butt" stroke-linejoin="miter" stroke-miterlimit="10" stroke-dasharray="" stroke-dashoffset="0" font-family="&quot;Tahoma&quot;, &quot;ヒラギノ角ゴ Pro W3&quot;, &quot;Hiragino Kaku Gothic Pro&quot;, Osaka, &quot;メイリオ&quot;, Meiryo, &quot;ＭＳ Ｐゴシック&quot;, &quot;MS PGothic&quot;" font-weight="normal" text-anchor="start" style="mix-blend-mode: normal"><tspan x="0" dy="0">OK</tspan></text></g><g><path d="M289.73892,267.78976v-98.3818h180.33747v98.3818z" fill="#ece9d8" stroke="none" stroke-width="0" stroke-linecap="butt"/><g stroke-linecap="butt"><g stroke="none" stroke-width="4.70962"><path d="M471.64753,172.65235h-108.80348v-3.48779h108.80348z" data-paper-data="{&quot;origPos&quot;:null}" fill="url(#color-22)"/><path d="M471.64753,147.33463c0,0.00004 -108.80348,0 -108.80348,0v-4.10199l106.85853,-0.06667c0,0 0.38045,0.21195 0.62303,0.57165c0.50609,0.7504 1.34927,2.14379 1.32192,3.59701z" data-paper-data="{&quot;index&quot;:null}" fill="url(#color-23)"/><path d="M471.64753,169.43145h-108.80348v-22.36894h108.80348z" data-paper-data="{&quot;origPos&quot;:null,&quot;index&quot;:null}" fill="url(#color-24)"/><path d="M470.1211,143.57643h-107.27704v-1.93035c0,0 75.13531,0 102.97705,0c2.87607,0 4.29999,1.93035 4.29999,1.93035z" data-paper-data="{&quot;index&quot;:null}" fill="url(#color-25)"/></g><path d="M464.60268,172.60785v-30.8105c0,0 2.18739,0 3.09086,0c1.60028,0 4.10053,2.6565 4.10053,4.35681v26.60318z" fill="url(#color-26)" stroke="#ffffff" stroke-width="0"/></g><g stroke="#ffffff"><g stroke-linecap="butt"><g stroke-width="0"><path d="M445.26465,167.01893c0,-2.93615 0,-10.09222 0,-16.55174c0,-0.97871 1.63106,-2.50784 2.67502,-2.50784c6.32904,0 13.08548,0 16.21737,0c1.04396,0 2.67503,1.733 2.67503,2.84222c0,6.26378 0,12.91828 0,16.05017c0,1.04396 -1.733,2.67502 -2.84222,2.67502c0,0 -12.91828,0 -16.05017,0c-1.04396,0 -2.67502,-1.52912 -2.67502,-2.50784z" fill="url(#color-27)"/><path d="M445.26465,167.01893c0,-0.57721 0,-2.18354 0,-2.18354h21.56741c0,0 0,1.42696 0,2.01636c0,1.04396 -1.733,2.67502 -2.84222,2.67502c0,0 -12.91828,0 -16.05017,0c-1.04396,0 -2.67502,-1.52912 -2.67502,-2.50784z" fill="url(#color-28)"/><path d="M464.28622,169.36481c-0.57721,0 -2.18354,0 -2.18354,0v-21.56742c0,0 1.42697,0 2.01636,0c1.04396,0 2.67503,1.733 2.67503,2.84222c0,0 0,12.91829 0,16.05018c0,1.04396 -1.52912,2.67502 -2.50784,2.67502z" fill="url(#color-29)"/><g><path d="M463.53739,149.45177v3.69115h-16.70395c0,0 0,-1.10518 0,-1.56166c0,-0.80855 1.34221,-2.07181 2.2013,-2.07181z" fill="url(#color-30)"/><path d="M450.49633,153.16406v13.17481h-3.66167l0.02632,-13.17452z" fill="url(#color-31)"/></g></g><path d="M445.26465,167.01893c0,-2.93615 0,-10.09222 0,-16.55174c0,-0.97871 1.63106,-2.50784 2.67502,-2.50784c6.32904,0 13.08548,0 16.21737,0c1.04396,0 2.67503,1.733 2.67503,2.84222c0,6.26378 0,12.91828 0,16.05017c0,1.04396 -1.733,2.67502 -2.84222,2.67502c0,0 -12.91828,0 -16.05017,0c-1.04396,0 -2.67502,-1.52912 -2.67502,-2.50784z" fill="none" stroke-width="1"/></g><g fill="none" stroke-width="2.5" stroke-linecap="round"><path d="M460.67521,153.83071l-9.66666,10.11112"/><path d="M451.00853,153.83071l9.66666,10.11112" data-paper-data="{&quot;index&quot;:null}"/></g></g><g data-paper-data="{&quot;index&quot;:null}" stroke-linecap="butt"><g stroke="none" stroke-width="4.70962"><path d="M287.99054,169.16454h108.80348v3.48779h-108.80348z" data-paper-data="{&quot;origPos&quot;:null}" fill="url(#color-32)"/><path d="M289.3125,143.73759c0.24259,-0.35969 0.62303,-0.57165 0.62303,-0.57165l106.85853,0.06667v4.10199c0,0 -108.80348,0.00004 -108.80348,0c-0.02735,-1.45322 0.81583,-2.84661 1.32192,-3.59701z" data-paper-data="{&quot;index&quot;:null}" fill="url(#color-33)"/><path d="M287.99054,147.06252h108.80348v22.36894h-108.80348z" data-paper-data="{&quot;origPos&quot;:null,&quot;index&quot;:null}" fill="url(#color-34)"/><path d="M293.817,141.64608c27.84174,0 102.97705,0 102.97705,0v1.93035h-107.27704c0,0 1.42392,-1.93035 4.3,-1.93035z" data-paper-data="{&quot;index&quot;:null}" fill="url(#color-35)"/></g><path d="M288.0205,172.75738v-26.4267c0,-1.70031 2.67673,-4.53328 4.277,-4.53328c0.90347,0 2.91439,0 2.91439,0v30.81051z" fill="url(#color-36)" stroke="#ffffff" stroke-width="0"/></g><path d="M469.78831,266.68339v-94.61765h2v94.61765z" fill="url(#color-37)" stroke="none" stroke-width="0" stroke-linecap="butt"/><path d="M288.00097,266.68339v-94.61765h2.05882v94.61765z" data-paper-data="{&quot;index&quot;:null}" fill="url(#color-38)" stroke="none" stroke-width="0" stroke-linecap="butt"/><g stroke="none" stroke-width="1" stroke-linecap="butt" font-family="&quot;Trebuchet MS&quot;, &quot;ヒラギノ角ゴ Pro W3&quot;, &quot;Hiragino Kaku Gothic Pro&quot;, Osaka, &quot;メイリオ&quot;, Meiryo, &quot;ＭＳ Ｐゴシック&quot;, &quot;MS PGothic&quot;" font-weight="normal" font-size="40" text-anchor="start"><text transform="translate(294.88216,164.74511) scale(0.37211,0.40208)" font-size="40" xml:space="preserve" fill="#0a1883" fill-rule="nonzero" stroke="none" stroke-width="1" stroke-linecap="butt" stroke-linejoin="miter" stroke-miterlimit="10" stroke-dasharray="" stroke-dashoffset="0" font-family="&quot;Trebuchet MS&quot;, &quot;ヒラギノ角ゴ Pro W3&quot;, &quot;Hiragino Kaku Gothic Pro&quot;, Osaka, &quot;メイリオ&quot;, Meiryo, &quot;ＭＳ Ｐゴシック&quot;, &quot;MS PGothic&quot;" font-weight="normal" text-anchor="start" style="mix-blend-mode: normal"><tspan x="0" dy="0">Information</tspan></text><text transform="translate(293.90715,163.74511) scale(0.37211,0.40208)" font-size="40" xml:space="preserve" fill="#ffffff" fill-rule="nonzero" stroke="none" stroke-width="1" stroke-linecap="butt" stroke-linejoin="miter" stroke-miterlimit="10" stroke-dasharray="" stroke-dashoffset="0" font-family="&quot;Trebuchet MS&quot;, &quot;ヒラギノ角ゴ Pro W3&quot;, &quot;Hiragino Kaku Gothic Pro&quot;, Osaka, &quot;メイリオ&quot;, Meiryo, &quot;ＭＳ Ｐゴシック&quot;, &quot;MS PGothic&quot;" font-weight="normal" text-anchor="start" style="mix-blend-mode: normal"><tspan x="0" dy="0">Information</tspan></text></g><text transform="translate(349.23901,199.87004) scale(0.29266,0.29266)" font-size="40" xml:space="preserve" fill="#000000" fill-rule="nonzero" stroke="none" stroke-width="1" stroke-linecap="butt" stroke-linejoin="miter" stroke-miterlimit="10" stroke-dasharray="" stroke-dashoffset="0" font-family="&quot;Tahoma&quot;, &quot;ヒラギノ角ゴ Pro W3&quot;, &quot;Hiragino Kaku Gothic Pro&quot;, Osaka, &quot;メイリオ&quot;, Meiryo, &quot;ＭＳ Ｐゴシック&quot;, &quot;MS PGothic&quot;" font-weight="normal" text-anchor="start" style="mix-blend-mode: normal"><tspan x="0" dy="0">Collect Purple Coins!</tspan></text><g stroke-linecap="butt"><path d="M335.15381,201.30536c0,5.93628 -4.76956,10.94324 -11.2862,12.49946c-0.29867,0.07133 0.14298,5.08301 -0.29714,5.16721c-3.48467,0.66667 -5.29335,-4.7 -5.92371,-4.76474c-7.6988,-0.79068 -13.65963,-6.26559 -13.65963,-12.90193c0,-7.1797 6.9769,-13 15.58333,-13c8.60643,0 15.58333,5.8203 15.58333,13z" fill-opacity="0.55686" fill="#000000" stroke="#000000" stroke-width="0"/><g><g stroke="#000000" stroke-width="0"><path d="M333.48713,199.63871c0,5.93628 -4.76956,10.94324 -11.2862,12.49946c-0.29867,0.07133 0.14298,5.08301 -0.29713,5.16721c-3.48467,0.66667 -5.29335,-4.7 -5.92371,-4.76474c-7.6988,-0.79068 -13.65963,-6.26559 -13.65963,-12.90192c0,-7.1797 6.9769,-13 15.58334,-13c8.60643,0 15.58333,5.8203 15.58333,13z" fill="url(#color-39)"/><path d="M333.48713,199.63871c0,5.93628 -4.76956,10.94324 -11.2862,12.49946c-0.29867,0.07133 0.14298,5.08301 -0.29713,5.16721c-3.48467,0.66667 -5.29335,-4.7 -5.92371,-4.76474c-7.6988,-0.79068 -13.65963,-6.26559 -13.65963,-12.90192c0,-7.1797 6.9769,-13 15.58334,-13c8.60643,0 15.58333,5.8203 15.58333,13zM320.51746,214.32788c0.24552,0.0566 -0.06156,-4.99331 0.1839,-5.05727c4.56129,-1.18856 9.25802,-3.71321 9.25802,-10.06681c0,-7.96729 -6.58826,-10.44445 -12.11111,-10.44445c-5.52285,0 -12.37883,2.47557 -12.22222,10.33333c0.14243,7.14628 5.71007,9.74101 10.76115,10.45155c0.48701,0.06851 2.31531,4.36525 4.13027,4.78364z" fill="url(#color-40)"/></g><text transform="translate(314.07048,206.59735) scale(0.61998,0.61998)" font-size="40" xml:space="preserve" fill="#001670" fill-rule="nonzero" stroke="#001670" stroke-width="2" stroke-linecap="butt" stroke-linejoin="miter" stroke-miterlimit="10" stroke-dasharray="" stroke-dashoffset="0" font-family="Serif" font-weight="normal" text-anchor="start" style="mix-blend-mode: normal"><tspan x="0" dy="0">i</tspan></text></g></g><g stroke-linecap="butt"><path d="M343.57932,251.73414c0,-2.93615 0,-9.42556 0,-15.88507c0,-0.97871 1.5806,-2.50784 2.59226,-2.50784c6.13323,0 67.27105,0 70.30605,0c1.01166,0 2.59227,1.733 2.59227,2.84222c0,6.26378 0,12.25162 0,15.38351c0,1.04396 -1.67938,2.67502 -2.75429,2.67502c0,0 -67.10903,0 -70.14402,0c-1.01165,0 -2.59226,-1.52912 -2.59226,-2.50784z" fill="url(#color-41)" stroke="#003c74" stroke-width="1"/><path d="M346.43361,251.87903v-16h69.61088v16z" fill="url(#color-42)" stroke="none" stroke-width="0"/></g><text transform="translate(372.59186,247.77845) scale(0.29266,0.29266)" font-size="40" xml:space="preserve" data-paper-data="{&quot;index&quot;:null}" fill="#000000" fill-rule="nonzero" stroke="none" stroke-width="1" stroke-linecap="butt" stroke-linejoin="miter" stroke-miterlimit="10" stroke-dasharray="" stroke-dashoffset="0" font-family="&quot;Tahoma&quot;, &quot;ヒラギノ角ゴ Pro W3&quot;, &quot;Hiragino Kaku Gothic Pro&quot;, Osaka, &quot;メイリオ&quot;, Meiryo, &quot;ＭＳ Ｐゴシック&quot;, &quot;MS PGothic&quot;" font-weight="normal" text-anchor="start" style="mix-blend-mode: normal"><tspan x="0" dy="0">OK</tspan></text></g><path d="M289.54566,267.14539h182" fill="none" stroke="#0036cc" stroke-width="2.5" stroke-linecap="round"/></g></g></svg>