<svg version="1.1" xmlns="http://www.w3.org/2000/svg" xmlns:xlink="http://www.w3.org/1999/xlink" width="123.32947" height="193.08188" viewBox="0,0,123.32947,193.08188"><g transform="translate(-159.82731,-78.21136)"><g data-paper-data="{&quot;isPaintingLayer&quot;:true}" fill-rule="nonzero" stroke-linejoin="miter" stroke-miterlimit="10" stroke-dasharray="" stroke-dashoffset="0" style="mix-blend-mode: normal"><g data-paper-data="{&quot;index&quot;:null,&quot;origRot&quot;:0}" stroke="none" stroke-width="0" stroke-linecap="butt"><path d="M253.96925,190.31793c-5.3137,-0.14706 -10.01348,-9.63405 -9.74418,-19.36433c0.2693,-9.7303 1.9784,-18.93941 1.9784,-18.93941l15.95106,0.25838c0,0 1.44096,15.26745 1.22437,23.09362c-0.26931,9.73029 -4.09599,15.0988 -9.40968,14.95178z" data-paper-data="{&quot;origRot&quot;:0,&quot;origPos&quot;:null}" fill="#64ca00"/><g data-paper-data="{&quot;origPos&quot;:null}" fill="#ffffff"><path d="M255.11588,147.15239c-9.38729,0.17059 -21.01125,-0.1392 -20.61257,-10.02789c0.28922,-7.17386 10.02064,-17.38122 19.2103,-15.45753c10.02802,2.09918 19.30487,2.36523 17.81363,13.37876c-1.39243,10.28371 -7.02406,11.93605 -16.41137,12.10665z" data-paper-data="{&quot;origRot&quot;:0,&quot;origPos&quot;:null}"/><path d="M253.98017,154.9941c-7.24768,0.12217 -15.49309,1.67518 -15.14334,-3.89239c0.39128,-6.22842 2.28374,-5.88878 14.13248,-5.79583c13.49793,0.10591 15.58022,-2.33529 15.48354,4.51228c-0.05647,3.99851 -7.22497,5.05373 -14.47269,5.17593z" data-paper-data="{&quot;origRot&quot;:0,&quot;origPos&quot;:null}"/></g></g><g stroke="none" stroke-width="0" stroke-linecap="butt"><path d="M258.85219,239.12717c0.94857,4.46974 6.32262,5.44251 6.32159,6.48002c-0.00418,4.19776 -1.50143,7.38817 -7.99394,10.37383c-8.04242,3.69839 -14.73964,4.1676 -22.97165,0.91294c-5.60671,-2.2167 -1.49566,-5.52563 -0.41851,-11.45765c0.38652,-2.12857 0.49458,-4.85072 0.15624,-10.2766c-0.42301,-6.78377 1.27968,-19.52532 1.27968,-19.52532c0,0 5.14426,-1.62171 10.33265,-2.50929c5.14082,-0.82362 10.58881,0.4896 10.58881,0.4896c0,0 0.51238,15.18012 2.70512,25.51246z" data-paper-data="{&quot;origPos&quot;:null}" fill="#2a2a84"/><path d="M269.34564,259.9585c0.59946,3.85214 -3.03797,6.27709 -6.59305,7.87699c-2.32981,1.04848 -14.18856,2.54007 -20.58047,0.02058c-1.98441,-0.7822 -3.83767,-2.9705 -3.83767,-2.9705c0,0 -4.86005,1.52497 -5.06976,0.08333c-0.16647,-1.14439 -0.49801,-3.08566 0.51689,-3.85095c4.36865,-3.2942 15.65843,-5.04484 21.06481,-5.88616c7.42175,-1.15495 13.91328,0.96127 14.49924,4.72672z" data-paper-data="{&quot;origPos&quot;:null}" fill="#dbbb7b"/><path d="M270.4547,254.82983c-0.6486,4.71909 -4.65983,8.64433 -13.05023,9.95001c-8.39039,1.30568 -18.12328,-2.16399 -18.12328,-2.16399c0,0 -6.02455,1.26504 -6.38996,-0.27428c-0.75632,-3.18601 -1.63342,-8.44004 -0.43932,-8.80211c4.40825,-1.33666 3.65217,-0.594 9.34976,-2.77127c3.68891,-1.40967 9.49816,-6.03809 13.40028,-6.64533c8.39039,-1.30568 16.32069,2.93691 15.25276,10.70698z" data-paper-data="{&quot;origPos&quot;:null}" fill="#875630"/></g><g stroke="none" stroke-width="0" stroke-linecap="butt"><path d="M232.61771,242.53642c-0.28296,4.56051 4.63433,6.93681 4.35552,7.93616c-1.12809,4.04334 -3.42499,6.71631 -10.47989,7.85437c-8.73906,1.40975 -15.31735,0.06845 -22.3772,-5.27169c-4.80837,-3.6371 0.0386,-5.72435 2.66488,-11.15129c0.94238,-1.94733 1.77543,-4.54114 2.90238,-9.85947c1.40898,-6.64931 8.372,-22.2783 8.372,-22.2783c0,0 6.40142,4.46966 11.27327,5.96792c3.8448,1.1824 9.92546,4.54867 9.92546,4.54867c0,0 -5.98231,11.71144 -6.63642,22.25362z" data-paper-data="{&quot;origPos&quot;:null}" fill="#2a2a84"/><path d="M237.14979,265.41691c-0.45395,3.87198 -4.60789,5.23435 -8.46155,5.82386c-2.52548,0.38632 -14.35058,-1.35208 -19.8344,-5.49117c-1.70248,-1.28501 -2.90209,-3.88967 -2.90209,-3.88967c0,0 -5.09092,0.16786 -4.90693,-1.27729c0.14605,-1.14718 0.34645,-3.10633 1.52921,-3.5719c5.09122,-2.00407 16.43749,-0.66761 21.87172,-0.0305c7.45999,0.87461 13.14777,4.65184 12.70403,8.43668z" data-paper-data="{&quot;origPos&quot;:null}" fill="#dbbb7b"/><path d="M239.59169,260.77252c-1.88858,4.37307 -6.80442,7.08084 -15.23804,6.09208c-8.43362,-0.98876 -16.88196,-6.93798 -16.88196,-6.93798c0,0 -6.14329,-0.39439 -6.08315,-1.97537c0.12445,-3.27219 0.68629,-8.5692 1.93373,-8.5983c4.60519,-0.10741 3.67785,0.40566 9.7504,-0.16641c3.93167,-0.37038 10.76816,-3.27419 14.69038,-2.81435c8.43362,0.98876 14.93823,7.19998 11.82865,14.40032z" data-paper-data="{&quot;origPos&quot;:null}" fill="#875630"/></g><g data-paper-data="{&quot;origPos&quot;:null}"><path d="M261.18835,195.59803c0.33542,23.36797 -11.23027,30.01902 -24.2383,30.01902c-13.00803,0 -23.7244,-11.0783 -23.7244,-22.29354c0,-12.16666 1.12928,-21.85193 8.41177,-29.59575c5.42567,-5.76938 13.24571,-3.072 20.2802,-3.072c13.00803,0 18.94195,2.03645 19.27073,24.94228z" data-paper-data="{&quot;origPos&quot;:null}" fill="#2a2a84" stroke="none" stroke-width="0" stroke-linecap="butt"/><path d="M261.18835,194.93585c0,0 -14.76896,2.20728 -25.18042,2.64874c-9.54981,0.40491 -19.18508,-3.75238 -19.18508,-3.75238c0,0 -0.84489,-15.22543 5.98217,-21.14578c4.46675,-3.8735 9.49009,-5.14202 15.94364,-5.3416c6.45355,-0.19958 13.47144,2.36082 16.7202,5.75234c7.67393,8.01117 5.7195,21.83867 5.7195,21.83867z" data-paper-data="{&quot;origPos&quot;:null}" fill="#64ca00" stroke="none" stroke-width="0" stroke-linecap="butt"/><path d="M249.29002,171.63944c0,0 1.83311,7.54921 2.20291,12.08838c0.47498,5.83023 -0.49673,16.78467 -0.49673,16.78467" data-paper-data="{&quot;origPos&quot;:null,&quot;origRot&quot;:0}" fill="none" stroke="#2a2a84" stroke-width="10" stroke-linecap="round"/><path d="M230.86907,172.20085c0,0 1.06191,7.79088 0.97412,12.35359c-0.11275,5.86046 -2.17318,16.56179 -2.17318,16.56179" data-paper-data="{&quot;origPos&quot;:null}" fill="none" stroke="#2a2a84" stroke-width="10" stroke-linecap="round"/><path d="M226.75798,199.01932c0,-2.49904 1.89876,-4.52493 4.24102,-4.52493c2.34224,0 4.24103,2.02589 4.24103,4.52493c0,2.49904 -1.89877,4.52492 -4.24103,4.52492c-2.34224,0 -4.24102,-2.02587 -4.24102,-4.52492z" data-paper-data="{&quot;origPos&quot;:null}" fill="#ffe84f" stroke="none" stroke-width="0" stroke-linecap="butt"/><path d="M247.12324,199.01932c0,-2.49904 1.83345,-4.52493 4.09513,-4.52493c2.26167,0 4.09513,2.02589 4.09513,4.52493c0,2.49904 -1.83346,4.52492 -4.09513,4.52492c-2.26167,0 -4.09513,-2.02587 -4.09513,-4.52492z" data-paper-data="{&quot;origPos&quot;:null}" fill="#ffe84f" stroke="none" stroke-width="0" stroke-linecap="butt"/></g><g stroke="none" stroke-width="0" stroke-linecap="butt"><path d="M215.36955,189.04784c-7.2758,2.89117 -22.10952,6.78114 -22.10952,6.78114l-5.72073,-14.89215c0,0 8.06202,-4.76786 17.10802,-8.36244c9.04601,-3.59458 19.57001,-2.43878 21.53301,2.50124c1.963,4.94002 -1.76481,10.37765 -10.8108,13.97224z" data-paper-data="{&quot;origRot&quot;:0,&quot;origPos&quot;:null}" fill="#64ca00"/><g data-paper-data="{&quot;origPos&quot;:null}" fill="#ffffff"><path d="M180.29983,210.54777c-9.83152,5.1829 -13.26735,-3.43835 -18.68278,-12.13552c-4.96269,-7.97006 1.2818,-20.61511 7.92001,-23.35046c9.15032,-3.77049 13.43329,7.04008 16.49693,15.91501c3.06364,8.87493 3.44586,14.73152 -5.73417,19.57097z" data-paper-data="{&quot;origRot&quot;:0,&quot;origPos&quot;:null}"/><path d="M193.11793,202.58706c-6.39788,2.44247 -4.82029,-0.35156 -9.55534,-12.99215c-4.15654,-11.09617 -5.12542,-12.75688 0.5898,-15.26337c5.10884,-2.24054 6.48199,6.03669 8.85632,12.88552c2.37432,6.84885 3.84513,13.94376 0.10923,15.36998z" data-paper-data="{&quot;origRot&quot;:0,&quot;origPos&quot;:null}"/></g></g><g data-paper-data="{&quot;origPos&quot;:null}"><path d="M282.80877,115.12537c-0.35404,3.81919 -11.38833,9.25406 -20.28429,9.75436c-7.16837,0.40314 -5.77077,-6.44105 -5.97544,-10.08038c-0.20467,-3.63933 13.88807,-3.63555 21.05645,-4.03869c7.16837,-0.40314 5.43245,1.89259 5.20329,4.36472z" data-paper-data="{&quot;origPos&quot;:null}" fill="#4c9406" stroke="none" stroke-width="0" stroke-linecap="butt"/><path d="M213.73217,163.01375c0,0 -1.34718,1.5713 -3.02999,-0.08185c-1.68281,-1.65315 -3.05755,-5.61756 -0.87164,-7.6707c2.61457,-2.45575 1.46743,-10.15638 3.15024,-8.50323c0,0 6.16069,0.95887 6.83776,4.61785c0,0 3.16612,10.49841 2.20971,12.2599c0,0 -1.40494,1.76781 -5.33039,1.70811c-2.12686,-0.03234 -2.9657,-2.33008 -2.9657,-2.33008z" data-paper-data="{&quot;origRot&quot;:0,&quot;origPos&quot;:null}" fill="#5a2c0a" stroke="none" stroke-width="0" stroke-linecap="butt"/><path d="M214.62825,121.24671c4.3637,0.76328 37.06251,-4.256 42.86524,-4.25981c8.58505,-0.00564 6.65345,7.85241 7.73844,16.36863c1.2475,9.79182 -0.41868,21.29846 0.70979,28.06213c1.21037,7.25452 0.75439,11.116 -4.90133,14.95239c-15.987,1.85851 -13.36442,-1.91294 -20.8737,-3.91971c-6.37413,-1.9487 -10.90714,-3.55742 -17.9326,-8.84603c-5.333,-4.01455 -4.33295,-7.64625 -7.77309,-12.26736c-1.05453,-1.41654 -2.25099,-2.13654 -2.44521,-2.12561c-10.35406,0.5823 -16.52708,-7.65056 -16.98191,-15.73795c-0.45483,-8.0874 2.87164,-14.85133 8.66148,-15.17695c5.78984,-0.32561 9.41561,2.6849 10.93291,2.95029z" data-paper-data="{&quot;origPos&quot;:null}" fill="#ffdebd" stroke="none" stroke-width="0" stroke-linecap="butt"/><path d="M263.0279,123.7394c0.6263,4.86135 -1.30823,9.1169 -4.3209,9.50502c-3.01267,0.38813 -5.96263,-3.23813 -6.58893,-8.09947c-0.6263,-4.86135 1.30823,-9.11689 4.3209,-9.50502c3.01267,-0.38813 5.96264,3.23813 6.58894,8.09947z" data-paper-data="{&quot;origPos&quot;:null,&quot;origRot&quot;:0}" fill="#ffffff" stroke="none" stroke-width="0" stroke-linecap="butt"/><path d="M223.21695,128.9783c0.65144,4.84854 5.03036,8.04498 2.75217,9.31544c-1.16058,0.64722 -5.76293,0.4701 -7.65689,-1.22564c-1.89396,-1.69574 -2.74592,-3.8992 -2.99401,-8.31051c-0.24809,-4.41131 -0.50507,-8.68355 2.24441,-8.94013c11.57618,-1.08028 5.06599,4.78191 5.65433,9.16083z" data-paper-data="{&quot;origPos&quot;:null}" fill="#5a2c0a" stroke="none" stroke-width="0" stroke-linecap="butt"/><path d="M250.30626,129.46747c0.84339,4.82842 -0.89862,9.16634 -3.89087,9.689c-2.99226,0.52267 -6.10168,-2.96784 -6.94507,-7.79626c-0.84339,-4.82842 0.89862,-9.16634 3.89087,-9.689c2.99226,-0.52267 6.10168,2.96784 6.94507,7.79626z" data-paper-data="{&quot;origPos&quot;:null,&quot;origRot&quot;:0}" fill="#ffffff" stroke="none" stroke-width="0" stroke-linecap="butt"/><path d="M247.31283,125.98172c0.9505,-0.05345 1.85016,0.59205 2.53718,1.67718c0.68602,1.08519 1.15944,2.61102 1.25551,4.31932c0.09607,1.7083 -0.20328,3.27759 -0.7633,4.43285c-0.56101,1.15532 -1.38263,1.89763 -2.33313,1.95108c-0.9505,0.05345 -1.85016,-0.59205 -2.53718,-1.67718c-0.68602,-1.08519 -1.15944,-2.61102 -1.25551,-4.31932c-0.09607,-1.7083 0.20328,-3.27759 0.7633,-4.43285c0.56101,-1.15532 1.38263,-1.89763 2.33313,-1.95108z" data-paper-data="{&quot;origPos&quot;:null}" fill="#000000" stroke="none" stroke-width="1" stroke-linecap="butt"/><path d="M260.03683,120.70895c0.9505,-0.05345 1.85016,0.59205 2.53718,1.67718c0.68602,1.08519 0.93684,2.8559 1.25551,4.31932c0.11313,0.53349 0.30692,1.30783 -0.04869,1.80558c-0.44984,0.60321 -1.23108,0.92358 -1.93508,1.21056c-1.23942,0.33011 -2.68544,1.18966 -3.82147,0.61555c-0.99704,-0.52484 -1.00864,-2.08465 -1.08388,-3.24426c-0.09726,-1.4979 0.20328,-3.27759 0.7633,-4.43285c0.56101,-1.15532 1.38263,-1.89763 2.33313,-1.95108z" data-paper-data="{&quot;origPos&quot;:null}" fill="#000000" stroke="none" stroke-width="1" stroke-linecap="round"/><path d="M267.20751,88.93472c3.23184,14.78647 0.39548,15.7972 -7.35273,21.02487c-11.28978,7.61715 -26.64886,7.06743 -38.82214,13.17407c-3.19638,1.60344 -11.74057,-1.3751 -15.31093,-1.17431c-7.30244,0.41068 -11.71635,-4.5766 -12.36771,-10.77597c-1.43675,-13.6744 5.31207,-14.10729 12.61451,-14.51797c0,0 8.11147,0.88007 11.12722,4.98763c0,0 10.15696,-18.819 21.81584,-21.72903c15.00824,-3.74604 25.97505,-1.60792 28.29594,9.01071z" data-paper-data="{&quot;origPos&quot;:null}" fill="#64ca00" stroke="none" stroke-width="0" stroke-linecap="butt"/><path d="M264.79681,97.60911c0.30701,5.45899 -0.92288,9.6482 -11.62487,10.56941c-11.29786,0.9725 -12.42963,-3.74035 -12.73664,-9.19935c-0.30701,-5.45899 4.89762,-10.19108 11.62487,-10.56941c6.72724,-0.37833 12.42963,3.74035 12.73664,9.19935z" data-paper-data="{&quot;origPos&quot;:null}" fill="#ffffff" stroke="none" stroke-width="0" stroke-linecap="butt"/><path d="M283.09022,113.00623c-0.15148,0.86836 -38.91579,8.69885 -49.78829,10.51221c-5.28417,0.88132 -16.0657,1.06225 -15.91422,0.19389c0.55997,-3.21001 2.33752,-8.38947 7.33165,-10.32797c6.03515,-2.34257 26.83766,-8.90103 42.6333,-9.54733c6.45717,-0.2642 16.29753,5.95919 15.73756,9.1692z" data-paper-data="{&quot;origPos&quot;:null}" fill="#4c9406" stroke="none" stroke-width="0" stroke-linecap="butt"/><path d="M249.23799,104.71617l-2.86063,-12.18081l5.5302,-0.87352l-0.2354,9.51068l7.37819,-2.05831l-1.10616,3.7769z" data-paper-data="{&quot;origPos&quot;:null}" fill="#64ca00" stroke="none" stroke-width="0" stroke-linecap="butt"/><path d="M264.96615,159.52757c-0.22742,2.56518 -2.67178,3.1578 -4.09313,3.63037c-4.33796,1.44229 -8.08463,0.91045 -16.15347,-1.58757c-2.6124,-0.80877 -5.69245,-16.03697 0.37613,-13.18862c0,0 12.20691,4.07735 18.14977,3.40249c0,0 9.3703,-5.04513 12.36431,-5.01542c1.48489,0.01474 1.66891,3.11434 1.29027,4.70638c0,0 0.4078,4.54204 -1.59839,5.79533c-2.85669,2.30763 -5.04896,1.49591 -5.11478,2.23828z" data-paper-data="{&quot;origPos&quot;:null}" fill="#38291e" stroke="none" stroke-width="0" stroke-linecap="butt"/><path d="M274.76594,140.75252c-0.12761,6.63565 1.7503,11.04414 -12.61846,11.60183c-6.62244,0.25703 -13.21852,-3.52031 -13.54801,-9.37907c-0.32949,-5.85876 5.64637,-13.44852 12.21444,-14.33346c9.57011,-1.2894 14.15618,1.49464 13.95203,12.1107z" data-paper-data="{&quot;origPos&quot;:null}" fill="#ffdebd" stroke="none" stroke-width="0" stroke-linecap="butt"/><g data-paper-data="{&quot;origPos&quot;:null}" fill="none" stroke="#f6b09a" stroke-width="3.5" stroke-linecap="round"><path d="M201.15571,128.81005c0,0 2.86151,-1.89362 6.81168,0.81829c5.6652,3.88933 2.88001,11.22795 2.88001,11.22795" data-paper-data="{&quot;origPos&quot;:null}"/><path d="M210.23325,135.02442l-5.99053,0.3369" data-paper-data="{&quot;origPos&quot;:null}"/><path d="M209.99962,141.04704l-1.28368,0.07219" data-paper-data="{&quot;origPos&quot;:null}"/></g><path d="M240.09333,119.37797c-1.35055,0.48687 -1.2746,0.67728 -1.87001,1.98362c-0.61424,1.34768 -1.97476,3.11531 -1.97476,3.11531c0,0 -1.65969,-3.53945 -1.81087,-6.22759c-0.10265,-1.82522 0.71023,-5.06227 3.48762,-5.85851c9.49807,-0.85556 7.1692,8.26141 7.1692,8.26141c0,0 -3.58542,-1.82476 -5.00118,-1.27422z" data-paper-data="{&quot;origPos&quot;:null}" fill="#38291e" stroke="none" stroke-width="0" stroke-linecap="butt"/><path d="M257.16931,115.60716c-1.50901,0.17417 -3.82767,3.46185 -3.82767,3.46185c0,0 -6.31615,-6.97489 2.48256,-10.65294c2.82784,-0.59263 5.05806,1.8904 5.81947,3.55238c1.1214,2.44773 1.30628,6.35262 1.30628,6.35262c0,0 -2.02843,-0.92792 -3.20084,-1.83289c-1.13645,-0.87722 -1.15819,-1.08106 -2.57981,-0.88104z" data-paper-data="{&quot;origPos&quot;:null,&quot;index&quot;:null,&quot;origRot&quot;:0}" fill="#38291e" stroke="none" stroke-width="0" stroke-linecap="butt"/></g></g></g></svg>