<svg version="1.1" xmlns="http://www.w3.org/2000/svg" xmlns:xlink="http://www.w3.org/1999/xlink" width="92.96655" height="176.59158" viewBox="0,0,92.96655,176.59158"><g transform="translate(-196.27809,-83.97673)"><g data-paper-data="{&quot;isPaintingLayer&quot;:true}" fill-rule="nonzero" stroke-linejoin="miter" stroke-miterlimit="10" stroke-dasharray="" stroke-dashoffset="0" style="mix-blend-mode: normal"><g data-paper-data="{&quot;index&quot;:null,&quot;origRot&quot;:0}" stroke="none" stroke-width="0" stroke-linecap="butt"><path d="M246.94395,168.32659c4.81025,-2.26242 13.27984,4.09029 17.42272,12.89867c4.14287,8.8084 6.76551,17.80008 6.76551,17.80008l-14.35728,6.95496c0,0 -8.16415,-12.98144 -11.49631,-20.06612c-4.14287,-8.8084 -3.14488,-15.32517 1.66537,-17.5876z" data-paper-data="{&quot;origRot&quot;:0,&quot;origPos&quot;:null}" fill="#ff0021"/><g data-paper-data="{&quot;origPos&quot;:null}" fill="#ffffff"><path d="M265.36546,207.38074c8.304,-4.3811 18.82127,-9.34087 22.91999,-0.33278c2.97347,6.53502 -1.11639,20.03182 -10.18739,22.45412c-9.89852,2.64328 -18.30063,6.58479 -21.93064,-3.91971c-3.38947,-9.80841 0.89405,-13.82054 9.19804,-18.20164z" data-paper-data="{&quot;origRot&quot;:0,&quot;origPos&quot;:null}"/><path d="M262.84689,199.86815c6.41561,-3.37402 13.07738,-8.47491 15.27321,-3.34669c2.45647,5.73691 0.61391,6.2862 -10.00638,11.54083c-12.09849,5.98599 -12.85783,9.10349 -15.85618,2.94651c-1.75084,-3.59524 4.17375,-7.76662 10.58935,-11.14065z" data-paper-data="{&quot;origRot&quot;:0,&quot;origPos&quot;:null}"/></g></g><g data-paper-data="{&quot;origPos&quot;:null,&quot;origRot&quot;:0}" stroke="none" stroke-width="0" stroke-linecap="butt"><path d="M257.60774,229.80108c0.82579,4.49404 6.17116,5.61366 6.14172,6.65075c-0.11916,4.19607 -1.70324,7.34427 -8.27509,10.15097c-8.14071,3.47671 -14.84827,3.76229 -22.98803,0.28337c-5.54389,-2.36945 -1.34374,-5.56453 -0.10451,-11.46481c0.44468,-2.11718 0.62726,-4.83535 0.43767,-10.26846c-0.23704,-6.79281 1.81403,-19.48294 1.81403,-19.48294c0,0 5.18675,-1.48019 10.39751,-2.22532c5.16146,-0.68249 10.57143,0.77946 10.57143,0.77946c0,0 0.09638,15.18846 2.00528,25.57698z" data-paper-data="{&quot;origPos&quot;:null}" fill="#0052ef"/><path d="M267.52666,250.91202c0.49372,3.86711 -3.20877,6.19152 -6.80634,7.69344c-2.35765,0.98427 -14.25282,2.15047 -20.57331,-0.54316c-1.96224,-0.83626 -3.75487,-3.07451 -3.75487,-3.07451c0,0 -4.9,1.39127 -5.07014,-0.05557c-0.13506,-1.14852 -0.4133,-3.09814 0.62218,-3.83535c4.45724,-3.1733 15.79074,-4.61404 21.21813,-5.30695c7.4506,-0.95122 13.88173,1.34202 14.36433,5.12211z" data-paper-data="{&quot;origPos&quot;:null}" fill="#f9c869"/><path d="M268.77578,245.81567c-0.77762,4.69956 -4.89487,8.51344 -13.31788,9.58881c-8.42301,1.07537 -18.05721,-2.65961 -18.05721,-2.65961c0,0 -6.05694,1.09955 -6.38005,-0.44921c-0.66876,-3.20554 -1.40162,-8.48162 -0.19805,-8.81084c4.44321,-1.21541 3.66707,-0.49374 9.42216,-2.51413c3.72614,-1.3081 9.65998,-5.77566 13.57728,-6.27578c8.42301,-1.07537 16.23412,3.38286 14.95376,11.12076z" data-paper-data="{&quot;origPos&quot;:null}" fill="#ad5d21"/></g><g data-paper-data="{&quot;origPos&quot;:null,&quot;origRot&quot;:0}" stroke="none" stroke-width="0" stroke-linecap="butt"><path d="M239.8322,231.69256c-0.16562,4.56628 4.81115,6.81537 4.55813,7.82155c-1.02376,4.071 -3.25117,6.80215 -10.27448,8.12122c-8.69993,1.63397 -15.31052,0.46225 -22.50535,-4.69461c-4.9003,-3.51227 -0.10859,-5.72345 2.37729,-11.21612c0.892,-1.97092 1.65809,-4.58528 2.64792,-9.93083c1.23755,-6.68333 6.75401,-18.81043 6.75401,-18.81043c0,0 7.55665,0.62785 12.46541,2.00035c3.87393,1.08316 10.03913,4.29198 10.03913,4.29198c0,0 -5.67922,11.86138 -6.06207,22.41689z" data-paper-data="{&quot;origPos&quot;:null}" fill="#0052ef"/><path d="M244.95106,254.44897c-0.35425,3.88237 -4.47179,5.35109 -8.30901,6.03949c-2.51472,0.45113 -14.3806,-0.98267 -19.96902,-4.97939c-1.73496,-1.24082 -3.00113,-3.81377 -3.00113,-3.81377c0,0 -5.08492,0.2987 -4.93815,-1.1507c0.11651,-1.15055 0.26647,-3.11421 1.43687,-3.61004c5.03801,-2.1343 16.41489,-1.09001 21.8637,-0.59283c7.48001,0.68252 13.26302,4.31226 12.91674,8.10726z" data-paper-data="{&quot;origPos&quot;:null}" fill="#f9c869"/><path d="M247.27274,249.74335c-1.77552,4.42018 -6.62012,7.25345 -15.07637,6.48185c-8.45625,-0.7716 -17.05476,-6.50164 -17.05476,-6.50164c0,0 -6.1514,-0.23632 -6.13193,-1.81831c0.04028,-3.27431 0.46574,-8.58401 1.71203,-8.64518c4.60091,-0.22578 3.68707,0.31096 9.74289,-0.41704c3.92085,-0.47135 10.68042,-3.54996 14.61317,-3.19112c8.45625,0.7716 15.11841,6.81352 12.19498,14.09144z" data-paper-data="{&quot;origPos&quot;:null}" fill="#ad5d21"/></g><g data-paper-data="{&quot;origPos&quot;:null}"><path d="M265.97767,194.0783c0.39163,21.17353 -13.11217,27.2 -28.3,27.2c-15.18783,0 -27.7,-10.03796 -27.7,-20.2c0,-11.02412 1.31852,-19.79986 9.82136,-26.81648c6.33487,-5.22759 15.46535,-2.78352 23.67864,-2.78352c15.18783,0 22.11612,1.84521 22.5,22.6z" data-paper-data="{&quot;origPos&quot;:null}" fill="#0052ef" stroke="none" stroke-width="0" stroke-linecap="butt"/><path d="M265.97767,193.4783c0,0 -17.24385,2 -29.4,2.4c-11.15011,0.36689 -22.4,-3.4 -22.4,-3.4c0,0 -0.98648,-13.79564 6.98462,-19.16002c5.21526,-3.50975 11.08038,-4.65914 18.61538,-4.83998c7.535,-0.18084 15.72889,2.13912 19.52206,5.21215c8.95988,7.25886 6.67794,19.78785 6.67794,19.78785z" data-paper-data="{&quot;origPos&quot;:null}" fill="#ff0021" stroke="none" stroke-width="0" stroke-linecap="butt"/><path d="M252.0855,172.36961c0,0 2.14029,6.84028 2.57206,10.95319c0.55457,5.28272 -0.57997,15.20846 -0.57997,15.20846" data-paper-data="{&quot;origPos&quot;:null,&quot;origRot&quot;:0}" fill="none" stroke="#0052ef" stroke-width="10" stroke-linecap="round"/><path d="M230.57768,172.8783c0,0 1.23985,7.05925 1.13735,11.19349c-0.13165,5.31011 -2.53735,15.00651 -2.53735,15.00651" data-paper-data="{&quot;origPos&quot;:null}" fill="none" stroke="#0052ef" stroke-width="10" stroke-linecap="round"/><path d="M225.77768,197.1783c0,-2.26436 1.83563,-4.1 4.1,-4.1c2.26436,0 4.1,1.83564 4.1,4.1c0,2.26436 -1.83563,4.1 -4.1,4.1c-2.26436,0 -4.1,-1.83563 -4.1,-4.1z" data-paper-data="{&quot;origPos&quot;:null}" fill="#ffe84f" stroke="none" stroke-width="0" stroke-linecap="butt"/><path d="M250.57768,197.1783c0,-2.26436 1.83563,-4.1 4.1,-4.1c2.26436,0 4.1,1.83564 4.1,4.1c0,2.26436 -1.83564,4.1 -4.1,4.1c-2.26436,0 -4.1,-1.83563 -4.1,-4.1z" data-paper-data="{&quot;origPos&quot;:null}" fill="#ffe84f" stroke="none" stroke-width="0" stroke-linecap="butt"/></g><g data-paper-data="{&quot;origRot&quot;:0}" stroke="none" stroke-width="0" stroke-linecap="butt"><path d="M234.03822,180.77572c2.8919,7.27551 6.78334,22.10884 6.78334,22.10884l-14.89159,5.72222c0,0 -4.76866,-8.06155 -8.36415,-17.10718c-3.59549,-9.04564 -2.44074,-19.56977 2.49908,-21.53325c4.93982,-1.96349 10.37783,1.76377 13.97332,10.80941z" data-paper-data="{&quot;origRot&quot;:0,&quot;origPos&quot;:null}" fill="#ff0021"/><g data-paper-data="{&quot;origPos&quot;:null}" fill="#ffffff"><path d="M255.54167,215.84329c5.1839,9.83101 -3.43702,13.26769 -12.13366,18.68399c-7.96957,4.96349 -20.61523,-1.27973 -23.35126,-7.91767c-3.77141,-9.14994 7.03874,-13.43399 15.91336,-16.49852c8.87462,-3.06453 14.73118,-3.44734 19.57155,5.73221z" data-paper-data="{&quot;origRot&quot;:0,&quot;origPos&quot;:null}"/><path d="M247.57969,203.02599c2.44312,6.39764 -0.35108,4.82032 -12.99119,9.55664c-11.09575,4.15764 -12.75637,5.12671 -15.26343,-0.58828c-2.24106,-5.1086 6.03604,-6.4826 12.88464,-8.85761c6.84861,-2.37501 13.94338,-3.84653 15.36998,-0.11076z" data-paper-data="{&quot;origRot&quot;:0,&quot;origPos&quot;:null}"/></g></g><g data-paper-data="{&quot;origPos&quot;:null}"><path d="M285.51474,124.21432c-0.75293,3.76094 -12.29669,8.00768 -21.19603,7.57154c-7.17109,-0.35144 -5.06288,-7.01115 -4.88445,-10.65186c0.17842,-3.64071 14.19294,-2.15785 21.36403,-1.80641c7.17109,0.35144 5.20381,2.4523 4.71645,4.88673z" data-paper-data="{&quot;origPos&quot;:null}" fill="#bb041a" stroke="none" stroke-width="0" stroke-linecap="butt"/><path d="M210.35962,161.4926c0,0 -1.75554,1.08594 -3.56934,-0.3726c-1.8138,-1.45853 -3.0215,-4.685 -0.22504,-6.06054c3.34486,-1.64528 2.79762,-7.75721 4.61142,-6.29867c0,0 7.17425,1.37451 7.59014,4.29208c0,0 2.638,8.49583 1.32394,9.76967c0,0 -1.84436,1.23302 -6.47341,0.78638c-2.50809,-0.24199 -3.25772,-2.11631 -3.25772,-2.11631z" data-paper-data="{&quot;origRot&quot;:0,&quot;origPos&quot;:null}" fill="#5a2c0a" stroke="none" stroke-width="0" stroke-linecap="butt"/><path d="M217.06832,123.14596c4.25949,1.21706 37.3045,-0.3426 43.07558,0.26264c8.53822,0.89543 5.79255,8.50735 5.97773,17.09041c0.21291,9.86867 6.85233,14.6834 2.95476,23.75229c-1.50273,3.49656 -4.58181,5.21403 -7.68304,7.42005c-1.75931,1.25145 -6.5502,2.31609 -17.33636,2.00964c-15.24688,-0.43319 -19.44471,-3.11106 -25.48984,-8.20496c-3.83849,-3.23449 -1.88716,-7.46692 -4.82329,-12.42357c-0.90004,-1.5194 -2.01432,-2.36099 -2.20861,-2.37051c-10.35799,-0.50763 -15.63284,-9.34291 -15.23634,-17.43337c0.3965,-8.09047 4.4145,-14.46792 10.20654,-14.18406c5.79204,0.28386 9.08182,3.65828 10.56288,4.08146z" data-paper-data="{&quot;origPos&quot;:null}" fill="#ffdebd" stroke="none" stroke-width="0" stroke-linecap="butt"/><path d="M264.93904,130.70468c0.11262,4.90024 -2.25787,8.92924 -5.29463,8.99903c-3.03677,0.0698 -5.58984,-3.84605 -5.70246,-8.74628c-0.11262,-4.90024 2.25787,-8.92923 5.29463,-8.99903c3.03677,-0.0698 5.58985,3.84605 5.70247,8.74628z" data-paper-data="{&quot;origPos&quot;:null,&quot;origRot&quot;:0}" fill="#ffffff" stroke="none" stroke-width="0" stroke-linecap="butt"/><path d="M227.08289,131.46961c-0.12768,2.60536 2.73994,6.56592 0.34098,7.59025c-2.79077,1.19163 -4.09624,-0.71088 -4.09624,-0.71088c0,0 0.50443,1.60233 -3.17861,2.10628c-2.73593,0.37436 -3.39911,-5.35452 -3.18284,-9.76751c0.21627,-4.41298 0.4091,-8.6886 3.17033,-8.65519c11.62562,0.14067 7.16266,5.02407 6.94639,9.43704z" data-paper-data="{&quot;origPos&quot;:null}" fill="#5a2c0a" stroke="none" stroke-width="0" stroke-linecap="butt"/><path d="M251.68646,135.06592c0.33196,4.89027 -1.85571,9.0214 -4.88629,9.22712c-3.03059,0.20573 -5.75649,-3.59185 -6.08845,-8.48212c-0.33196,-4.89027 1.85571,-9.0214 4.88629,-9.22712c3.03059,-0.20573 5.75649,3.59185 6.08845,8.48212z" data-paper-data="{&quot;origPos&quot;:null,&quot;origRot&quot;:0}" fill="#ffffff" stroke="none" stroke-width="0" stroke-linecap="butt"/><path d="M249.07542,131.28524c0.95086,0.0466 1.77781,0.78296 2.34714,1.93421c0.56833,1.1512 0.879,2.71828 0.79524,4.42723c-0.08375,1.70895 -0.54616,3.23815 -1.22433,4.32826c-0.67917,1.09006 -1.57416,1.74203 -2.52502,1.69543c-0.95086,-0.0466 -1.77781,-0.78296 -2.34714,-1.93421c-0.56833,-1.1512 -0.879,-2.71828 -0.79524,-4.42723c0.08375,-1.70895 0.54616,-3.23815 1.22433,-4.32826c0.67917,-1.09006 1.57416,-1.74203 2.52502,-1.69543z" data-paper-data="{&quot;origPos&quot;:null}" fill="#000000" stroke="none" stroke-width="1" stroke-linecap="butt"/><path d="M262.28255,127.37703c0.95086,0.0466 1.77781,0.78296 2.34714,1.93421c0.56833,1.1512 0.63192,2.93845 0.79524,4.42723c0.05652,0.54242 0.16796,1.33282 -0.23793,1.7905c-0.51066,0.55267 -1.32122,0.78927 -2.05145,1.00078c-1.26722,0.19821 -2.79547,0.90124 -3.86496,0.21107c-0.93645,-0.62659 -0.78428,-2.179 -0.73739,-3.3401c0.06049,-1.49984 0.54616,-3.23815 1.22433,-4.32826c0.67917,-1.09006 1.57416,-1.74203 2.52502,-1.69543z" data-paper-data="{&quot;origPos&quot;:null}" fill="#000000" stroke="none" stroke-width="1" stroke-linecap="round"/><path d="M272.74849,96.53089c1.66208,15.044 -1.2647,15.75146 -9.51879,20.13704c-12.02688,6.39016 -27.24344,4.23146 -39.99041,9.02674c-3.34701,1.25911 -11.5314,-2.59974 -15.10312,-2.77478c-7.30521,-0.35801 -11.1713,-5.78101 -11.16842,-12.01451c0.00639,-13.74967 6.76337,-13.47185 14.06858,-13.11383c0,0 7.97431,1.72655 10.54229,6.12794c0,0 12.07601,-17.64903 23.97592,-19.31934c15.31851,-2.15016 26.00035,1.12717 27.19395,11.93075z" data-paper-data="{&quot;origPos&quot;:null}" fill="#ff0021" stroke="none" stroke-width="0" stroke-linecap="butt"/><path d="M269.44068,104.90436c-0.26764,5.46107 -1.93041,9.49805 -12.66997,9.29095c-11.33753,-0.21864 -11.96841,-5.02425 -11.70078,-10.48531c0.26764,-5.46107 5.94017,-9.62077 12.66997,-9.29095c6.72979,0.32981 11.96841,5.02425 11.70078,10.48531z" data-paper-data="{&quot;origPos&quot;:null}" fill="#ffffff" stroke="none" stroke-width="0" stroke-linecap="butt"/><path d="M286.01705,122.13642c-0.24178,0.84766 -39.61385,4.5664 -50.61661,5.22862c-5.34748,0.32185 -16.08846,-0.62979 -15.84668,-1.47746c0.89378,-3.13351 3.20512,-8.0978 8.37513,-9.50143c6.24768,-1.69621 27.62364,-6.03513 43.39987,-5.02002c6.44924,0.41497 15.58207,7.63679 14.68829,10.77029z" data-paper-data="{&quot;origPos&quot;:null}" fill="#bb041a" stroke="none" stroke-width="0" stroke-linecap="butt"/><path d="M248.58528,109.61136l5.44969,-12.57053l4.10789,6.14683l2.98018,-5.16988l4.83288,10.33109l-3.76252,2.02814l-1.14205,-7.70592l-2.94003,4.53017l-3.33802,-4.85982l-1.89825,7.48016z" data-paper-data="{&quot;origPos&quot;:null}" fill="#ff0021" stroke="none" stroke-width="0" stroke-linecap="butt"/><path d="M268.42519,164.56125c-0.4954,2.52714 -2.48062,3.70901 -3.9437,4.02979c-4.46538,0.97904 -10.87569,0.49036 -15.18288,-1.04136c-2.47544,-0.88032 -2.4404,-2.50795 -2.67187,-2.74706c-0.24456,-0.25263 -3.04287,1.41965 -6.30871,1.25959c-5.24041,-0.25682 -8.68338,-4.12732 -8.42994,-9.29879c0.27792,-5.67086 0.92448,-8.79799 1.78546,-8.91935c5.01438,-0.70679 6.27994,3.74432 9.99693,5.99258c0,0 12.56062,4.82816 18.54149,4.78076c0,0 9.84806,-4.03381 12.82242,-3.69002c1.47514,0.1705 1.33283,3.2723 0.78919,4.8158c0,0 -0.05773,4.28568 -2.18438,5.32149c-5.02844,2.44918 -5.07063,-1.2348 -5.214,-0.50345z" data-paper-data="{&quot;origPos&quot;:null}" fill="#38291e" stroke="none" stroke-width="0" stroke-linecap="butt"/><path d="M274.82664,148.85576c-0.82335,6.58561 0.5815,11.16685 -13.76644,10.21338c-6.61284,-0.43945 -12.77604,-4.88822 -12.4888,-10.7492c0.28724,-5.86099 7.02668,-12.78163 13.65135,-12.97233c9.65258,-0.27785 13.92112,2.97214 12.60389,13.50815z" data-paper-data="{&quot;origPos&quot;:null}" fill="#ffdebd" stroke="none" stroke-width="0" stroke-linecap="butt"/><g data-paper-data="{&quot;origPos&quot;:null}" fill="none" stroke="#f6b09a" stroke-width="3.5" stroke-linecap="round"><path d="M202.87638,129.25349c0,0 3.04445,-1.58283 6.68818,1.52869c5.22571,4.46244 1.68567,11.46821 1.68567,11.46821" data-paper-data="{&quot;origPos&quot;:null}"/><path d="M211.25156,136.38633l-5.99281,-0.2937" data-paper-data="{&quot;origPos&quot;:null}"/><path d="M209.10294,142.28823l1.28417,0.06293" data-paper-data="{&quot;origPos&quot;:null}"/></g><path d="M242.58888,123.96023c-1.39419,0.34244 -1.33865,0.53976 -2.06787,1.7764c-0.75229,1.27577 -2.29082,2.89084 -2.29082,2.89084c0,0 -1.27904,-3.6941 -1.14725,-6.38326c0.08948,-1.82591 1.23762,-4.95976 4.08323,-5.46011c9.5354,0.14604 6.26253,8.96823 6.26253,8.96823c0,0 -3.3741,-2.19099 -4.83982,-1.79208z" data-paper-data="{&quot;origPos&quot;:null}" fill="#38291e" stroke="none" stroke-width="0" stroke-linecap="butt"/><path d="M259.96633,122.00246c-1.51896,0.01483 -4.16986,3.04099 -4.16986,3.04099c0,0 -5.54921,-7.59928 3.58693,-10.33355c2.87442,-0.29256 4.83171,2.41083 5.41449,4.14354c0.8583,2.55191 0.63233,6.45464 0.63233,6.45464c0,0 -1.91984,-1.13569 -2.99079,-2.15871c-1.0381,-0.99165 -1.03833,-1.19665 -2.47309,-1.14694z" data-paper-data="{&quot;origPos&quot;:null,&quot;index&quot;:null,&quot;origRot&quot;:0}" fill="#38291e" stroke="none" stroke-width="0" stroke-linecap="butt"/></g></g></g></svg>