<svg version="1.1" xmlns="http://www.w3.org/2000/svg" xmlns:xlink="http://www.w3.org/1999/xlink" width="35.30526" height="35.30526" viewBox="0,0,35.30526,35.30526"><defs><linearGradient x1="240.08888" y1="163.06125" x2="240.08888" y2="197.11651" gradientUnits="userSpaceOnUse" id="color-1"><stop offset="0" stop-color="#2e42b3"/><stop offset="1" stop-color="#346dce"/></linearGradient></defs><g transform="translate(-222.43625,-162.43625)"><g data-paper-data="{&quot;isPaintingLayer&quot;:true}" fill-rule="nonzero" stroke-linejoin="miter" stroke-miterlimit="10" stroke-dasharray="" stroke-dashoffset="0" style="mix-blend-mode: normal"><path d="M240.08888,163.06125c4.69771,0 8.95515,1.90752 12.0371,4.99053c3.08301,3.08195 4.99053,7.33939 4.99053,12.0371c0,4.69771 -1.90752,8.95515 -4.99053,12.0371c-3.08195,3.08301 -7.33939,4.99053 -12.0371,4.99053c-4.69771,0 -8.95515,-1.90752 -12.0371,-4.99053c-3.08301,-3.08195 -4.99053,-7.33939 -4.99053,-12.0371c0,-4.69771 1.90752,-8.95515 4.99053,-12.0371c3.08195,-3.08301 7.33939,-4.99053 12.0371,-4.99053z" data-paper-data="{&quot;origPos&quot;:null}" fill="url(#color-1)" stroke="#222890" stroke-width="1.25" stroke-linecap="butt"/><g fill="none" stroke-linecap="round"><path d="M253.25,187.75h-21.25c0,0 -1.22368,-0.06492 -2,-0.875c-0.77632,-0.81008 -0.875,-2.125 -0.875,-2.125v-9.625c0,0 0.00896,-1.16765 0.75,-1.875c0.74104,-0.70735 2,-0.75 2,-0.75h21.375" stroke="#222890" stroke-width="4.5"/><path d="M253.25,187.75h-21.25c0,0 -1.22368,-0.06493 -2,-0.875c-0.77632,-0.81007 -0.875,-2.125 -0.875,-2.125v-9.625c0,0 0.00897,-1.16765 0.75,-1.875c0.74103,-0.70735 2,-0.75 2,-0.75h21.375" stroke="#c3c3c3" stroke-width="2"/></g><path d="M229.75005,171l19.75,19.25" fill="none" stroke="#222890" stroke-width="4.5" stroke-linecap="round"/><path d="M229.75006,171l19.75,19.25" fill="none" stroke="#c3c3c3" stroke-width="2" stroke-linecap="round"/></g></g></svg>