<svg version="1.1" xmlns="http://www.w3.org/2000/svg" xmlns:xlink="http://www.w3.org/1999/xlink" width="133.582" height="224.62185" viewBox="0,0,133.582,224.62185"><g transform="translate(-189.44648,-76.01589)"><g data-paper-data="{&quot;isPaintingLayer&quot;:true}" fill-rule="nonzero" stroke-linejoin="miter" stroke-miterlimit="10" stroke-dasharray="" stroke-dashoffset="0" style="mix-blend-mode: normal"><g stroke="none" stroke-width="0" stroke-linecap="butt"><path d="M250.17607,164.22804c0.60625,-2.68028 7.81026,-8.70361 13.39973,-16.1737c2.73872,-3.66014 11.25388,-15.84609 12.37351,-15.06575c2.50453,1.74556 9.47987,4.70718 9.00736,5.61185c-4.9044,9.38959 -9.53053,21.8081 -15.71089,31.43534c-1.98859,3.09768 -10.38637,8.11504 -14.52226,5.07102c-4.1359,-3.04402 -5.67649,-5.8873 -4.54747,-10.87876z" fill="#7100f3"/><g><path d="M280.53743,105.24779c-9.37507,1.80467 -12.35929,2.60679 -16.31492,-6.44162c-0.93084,-5.9505 1.41436,-12.6433 11.11867,-14.33502c10.9427,-1.32424 15.64564,0.63893 17.47217,6.62854c1.34037,6.10761 -0.65668,13.05931 -12.27592,14.14809z" data-paper-data="{&quot;origRot&quot;:0}" fill="#ffffff"/><path d="M280.06235,111.44482c-6.47118,1.44575 -13.07205,2.0448 -13.9798,-1.49873c-1.55457,-6.06843 0.82067,-4.34419 12.80091,-7.33325c10.51651,-2.62386 12.12653,-3.33172 13.81025,2.12295c1.50507,4.87592 -6.16015,5.2633 -12.63134,6.70903z" data-paper-data="{&quot;origRot&quot;:0}" fill="#ffffff"/><path d="M272.54209,114.77354c-2.43356,-7.84386 10.28527,-8.64019 14.02442,-8.24444c3.73915,0.39575 2.34501,10.18601 1.48062,18.3531c-0.8644,8.16706 -0.84785,16.02221 -8.33543,14.07124c-5.36923,-1.399 -5.58376,-6.81247 -5.75172,-11.35146c-0.1779,-4.80815 -0.17401,-8.8193 -1.41787,-12.82843z" fill="#7100f3"/></g></g><path d="M257.93043,216.30041c0,0 -8.71709,-2.97824 -9.62863,-9.92239c-0.66837,-5.09164 8.23161,-9.65543 11.91184,-9.73237c11.43781,-0.23913 25.96001,3.34646 33.26031,4.17064c1.96242,0.22154 4.40582,4.18233 3.25659,7.38431c-1.14922,3.20196 -3.22004,2.76507 -5.83186,3.53056c-2.61181,0.76548 -12.02985,2.61595 -16.58163,3.03856c-9.28979,0.86247 -13.78454,2.41424 -16.38661,1.53065z" data-paper-data="{&quot;index&quot;:null}" fill="#372b45" stroke="none" stroke-width="0" stroke-linecap="butt"/><path d="M298.6857,238.52629c0.11291,12.16629 -18.27577,10.08311 -23.41288,7.92933c-5.1371,-2.15377 -0.0723,-17.52047 4.63204,-28.74101c4.70433,-11.22054 8.22747,-20.74655 14.90616,-17.70776c5.93821,4.40592 2.11624,9.49563 2.92193,17.50527c0.8057,8.00963 0.89507,14.79578 0.95278,21.01417z" fill="#372b45" stroke="none" stroke-width="0" stroke-linecap="butt"/><path d="M319.66103,221.87719c2.34046,-0.82982 5.49475,11.66677 1.34955,17.77094c-5.48988,8.08432 -19.8084,10.803 -26.76846,13.88308c-13.31036,5.89031 -19.5105,2.05451 -20.09972,-7.74645c-0.36631,-6.09295 2.51503,3.71673 13.07613,-4.46247c1.69441,-1.31225 9.03889,-6.54875 14.02003,-10.20053c4.46942,-2.18703 7.96972,-1.44516 10.78197,-3.25704c2.41432,-2.75625 0.00627,-3.28074 7.64051,-5.98751z" fill="#ff7f01" stroke="none" stroke-width="0" stroke-linecap="butt"/><g><path d="M257.53661,165.80593c7.8934,7.68112 8.3747,24.40331 8.3747,36.47146c0,11.12442 -11.36779,16.35299 -25.46704,16.35299c-6.96666,0 -11.44539,0.52823 -16.33255,-3.89398c-4.88715,-4.42221 -4.12279,-12.81756 -5.4518,-15.8179c-1.79848,-4.0602 -4.27795,-8.83951 -4.17218,-15.58246c0.60394,-8.48966 3.00701,-19.56074 17.10626,-19.56074c0,0 20.06178,-3.69201 25.94261,2.03066z" data-paper-data="{&quot;origPos&quot;:null,&quot;index&quot;:null}" fill="#372b45" stroke="none" stroke-width="0" stroke-linecap="butt"/><path d="M234.31727,160.0482c7.6246,0 16.63924,-1.99788 22.52006,3.72477c3.98096,3.87389 7.9109,18.32745 7.9109,18.32745c0,0 -17.09325,-1.86394 -21.61342,0.76641c-2.0267,1.17935 -8.14938,4.83289 -10.86037,5.84939c-1.42079,0.5327 -16.97992,1.11535 -15.62607,-11.89862c0.60394,-8.48966 3.56965,-16.76938 17.6689,-16.76938z" data-paper-data="{&quot;origPos&quot;:null,&quot;index&quot;:null}" fill="#7100f3" stroke="none" stroke-width="0" stroke-linecap="butt"/><path d="M229.54849,163.80916c0,0 4.83815,6.33983 6.37388,10.04988c1.78669,4.31629 5.20077,13.70817 5.20077,13.70817" data-paper-data="{&quot;origPos&quot;:null}" fill="none" stroke="#372b45" stroke-width="10.5" stroke-linecap="round"/><path d="M244.62206,187.26518c0,2.15743 -1.86684,4.12163 -3.78105,4.12163c-1.9142,0 -3.78104,-1.96422 -3.78104,-4.12163c0,-2.15743 1.86684,-4.12163 3.78104,-4.12163c1.9142,0 3.78105,1.96421 3.78105,4.12163z" fill="#ffea12" stroke="none" stroke-width="0" stroke-linecap="butt"/><path d="M250.79214,162.52863c0,0 3.53282,4.03766 5.07539,7.34007c1.54256,3.30241 5.70292,16.0754 5.70292,16.0754" data-paper-data="{&quot;origPos&quot;:null,&quot;origRot&quot;:0}" fill="none" stroke="#372b45" stroke-width="9.5" stroke-linecap="round"/><path d="M264.2252,184.17552c0,2.15743 -1.55178,3.79489 -3.46598,3.79489c-1.91421,0 -3.46598,-1.63747 -3.46598,-3.79489c0,-2.15743 1.55177,-3.7949 3.46598,-3.7949c1.91421,0 3.46598,1.63747 3.46598,3.7949z" data-paper-data="{&quot;origPos&quot;:null}" fill="#ffea12" stroke="none" stroke-width="0" stroke-linecap="butt"/></g><path d="M221.1548,211.90669c0,0 0.58491,-9.19322 7.04607,-11.8961c4.7375,-1.98183 11.47801,5.40758 12.51857,8.93848c3.23395,10.9737 3.58724,25.92783 4.70878,33.18839c0.30151,1.95173 -2.87877,5.34939 -6.27013,5.08121c-3.39136,-0.26816 -3.51353,-2.38104 -4.93794,-4.70023c-1.4244,-2.31919 -5.68281,-10.92089 -7.28576,-15.20201c-3.27141,-8.73739 -5.94892,-12.66698 -5.77955,-15.40977z" data-paper-data="{&quot;index&quot;:null}" fill="#372b45" stroke="none" stroke-width="0" stroke-linecap="butt"/><g stroke="none" stroke-width="0" stroke-linecap="butt"><path d="M237.2724,278.41419c-2.98273,11.79554 -20.23825,5.10748 -24.65933,1.71887c-4.42107,-3.38859 4.38271,-16.96361 11.78416,-26.6202c7.40146,-9.65659 13.22984,-17.97448 18.91698,-13.33815c4.62353,5.7704 -0.36645,9.72168 -1.62276,17.67311c-1.25631,7.95141 -2.89451,14.53746 -4.41902,20.56637z" fill="#372b45"/><path d="M260.89798,283.60625c2.41778,0.56629 -1.67991,12.78607 -8.46607,15.6829c-8.98756,3.83652 -22.50508,-1.61211 -30.02595,-2.78087c-14.38283,-2.2351 -17.52758,-8.81275 -12.7279,-17.37833c2.9838,-5.32496 0.10817,4.4864 13.41427,3.31001c2.13481,-0.18872 11.14427,-0.62685 17.30881,-1.0084c4.94255,0.57453 7.4871,3.08999 10.8325,3.08482c3.52079,-1.01484 1.77787,-2.75727 9.66433,-0.91012z" fill="#ff7f01"/></g><g stroke-linecap="butt"><path d="M226.77807,173.55328c-0.71773,2.65263 -8.16713,8.36966 -14.06387,15.59966c-2.88925,3.54253 -11.90614,15.36202 -12.99222,14.53558c-2.4294,-1.84869 -9.2749,-5.09918 -8.76499,-5.98333c5.29243,-9.17647 10.43343,-21.39083 17.01068,-30.75142c2.11629,-3.01187 10.71639,-7.67394 14.72146,-4.45978c4.00507,3.21417 5.42551,6.11934 4.08892,11.05927z" fill="#7100f3" stroke="none" stroke-width="0"/><g><path d="M220.77709,229.42938c2.23367,5.59336 1.43918,12.64052 -7.644,16.45256c-10.37229,3.72979 -15.39451,2.86422 -18.51006,-2.56763c-2.66794,-5.65523 -2.27049,-12.87716 8.81381,-16.52827c8.73703,-3.84878 11.46741,-5.29586 17.34027,2.64331z" data-paper-data="{&quot;origRot&quot;:0}" fill="#ffffff" stroke="none" stroke-width="0"/><path d="M216.48096,218.98425c2.868,5.56932 0.16822,4.41784 -10.8445,10.00186c-9.66715,4.90177 -11.0789,5.95067 -13.93604,1.00847c-2.55397,-4.41781 4.83213,-6.50387 10.81833,-9.35554c5.98616,-2.85167 12.28749,-4.90683 13.9622,-1.65477z" data-paper-data="{&quot;origRot&quot;:0}" fill="#ffffff" stroke="none" stroke-width="0"/><path d="M209.10792,215.71789c4.12057,7.10417 -8.10084,10.71521 -11.83411,11.16281c-3.7333,0.4476 -4.55628,-9.40712 -5.53389,-17.56143c-0.97761,-8.15429 -2.74449,-15.80816 4.98957,-15.5751c5.54598,0.16712 6.96167,5.39663 8.13703,9.78401c1.24509,4.64754 2.1353,8.55867 4.24139,12.1897z" fill="#7100f3" stroke="none" stroke-width="0"/><path d="M206.71513,243.45234l-1.57976,-3.00454l4.63263,-2.26214l-3.69604,-7.53406l3.8439,-2.04355l5.06135,10.80116z" data-paper-data="{&quot;index&quot;:null,&quot;origRot&quot;:0}" fill="#ffea12" stroke="#7100f3" stroke-width="1"/></g></g><g><path d="M275.17071,110.12986c-0.54681,3.30219 -11.44781,7.48662 -20.02647,7.48662c-6.9127,0 -5.19919,-5.88042 -5.19919,-9.0536c0,-3.1732 13.54704,-2.48105 20.45973,-2.48105c6.91268,0 5.11985,1.91053 4.76591,4.048z" data-paper-data="{&quot;index&quot;:null}" fill="#2d0757" stroke="none" stroke-width="0" stroke-linecap="butt"/><path d="M257.46521,132.21746c0.05887,-0.03543 0.1213,-0.06981 0.18747,-0.1029c1.74832,-0.87416 2.62246,0.87416 2.62246,0.87416l-0.09364,0.09722c0.24169,0.23722 0.36827,0.45871 0.36827,0.45871c2.33294,4.08262 2.66948,10.90152 1.88642,15.62971c-0.2966,1.79093 -2.81011,4.183 -2.70652,5.50476c-0.78605,2.35814 -3.50884,3.07651 -5.76809,3.2646c-5.67101,0.47212 -11.56912,0.0266 -17.26171,0.0266c-1.24819,0 -3.76086,0.49196 -4.88665,0c-7.33568,-3.20556 -3.90931,-12.94773 -3.90931,-19.0579c0,-3.78816 2.05886,-6.37111 5.97854,-6.92896c5.40306,-0.76899 11.36814,-0.07521 16.82578,-0.07521c2.28043,0 4.56087,0 6.84129,0z" data-paper-data="{&quot;index&quot;:null}" fill="#ffffff" stroke="none" stroke-width="0.5" stroke-linecap="butt"/><path d="M257.50254,140.13493c1.22077,-0.04695 1.2677,1.1738 1.2677,1.1738l0.00091,0.37274c0,0.84831 0.03256,1.70085 0.0771,2.5566c0.47393,-0.24152 0.94464,-0.4833 1.41266,-0.7173l0.96779,-0.10711c0,0 1.19979,-0.23009 1.42989,0.9697c0.23009,1.19979 -0.9697,1.42989 -0.9697,1.42989l-0.33531,-0.10711c-0.77405,0.38703 -1.558,0.79196 -2.35217,1.18427c0.0239,0.43502 0.04546,0.87059 0.06203,1.30659h0.03346v1.62888c0,0.1544 -0.02866,0.30211 -0.08093,0.43812c-0.11907,0.35047 -0.41337,0.78353 -1.14074,0.78353c-0.72739,0 -1.02168,-0.43309 -1.14075,-0.78353c-0.05227,-0.13598 -0.08093,-0.28373 -0.08093,-0.43812c0,-0.614 -0.01633,-1.22621 -0.04168,-1.8369c-0.87928,0.36411 -1.77096,0.6784 -2.67547,0.90454c-0.89092,0.15619 -1.77598,0.30169 -2.65817,0.43577c0,1.03427 0,2.06853 0,3.10281v0.32576c0,0 0,1.22166 -1.22166,1.22166c-1.22166,0 -1.22166,-1.22166 -1.22166,-1.22166c0,-1.0042 0,-2.03934 0,-3.08636c-2.21046,0.28239 -4.42058,0.48855 -6.67841,0.60718c0,0.39203 0,0.78404 0,1.17607v0.97732c0,0 0,1.22166 -1.22166,1.22166c-1.22166,0 -1.22166,-1.22166 -1.22166,-1.22166c0,-0.63062 0,-1.32936 0,-2.06022c-0.67273,0.01598 -1.35246,0.06834 -2.03609,0.0241c-2.37737,-0.15385 -6.6832,-2.76923 -4.91397,-3.91397c0.93144,-0.79049 3.62125,1.54757 4.91397,1.47065c0.67613,-0.04023 1.35644,-0.00053 2.03609,-0.00432c0,-1.29959 0,-2.58011 0,-3.66066c0,0 0,-1.22166 1.22166,-1.22166c1.22166,0 1.22166,1.22166 1.22166,1.22166c0,1.2094 0,2.41877 0,3.62815c2.25121,-0.05182 4.49231,-0.17613 6.67841,-0.47385c0,-1.62132 0,-3.23886 0,-4.78319c0,0 0,-1.22166 1.22166,-1.22166c1.22166,0 1.22166,1.22166 1.22166,1.22166c0,1.45593 0,2.91184 0,4.36777c0.69666,-0.14421 1.38571,-0.31085 2.06559,-0.50342c1.06378,-0.26595 2.10427,-0.66627 3.12653,-1.12634c-0.07412,-1.24248 -0.14257,-2.48014 -0.14257,-3.71532l0.00091,-0.27881c0,0 -0.04695,-1.22077 1.1738,-1.2677z" data-paper-data="{&quot;index&quot;:null}" fill="#a5b5ff" stroke="none" stroke-width="0.5" stroke-linecap="butt"/><path d="M207.55715,133.82686l0.03321,-0.35705c0.10859,-0.19764 0.21717,-0.39527 0.32576,-0.59291c4.83092,-4.11215 8.73048,3.88431 10.7657,6.93525c0.68099,1.02085 1.46823,1.84278 1.98317,2.95705c1.62113,3.53304 10.10085,11.86927 2.32272,13.47235c-0.98767,0.20356 -1.89721,0.18143 -2.9025,0.18143c-0.58142,-0.20484 -1.21933,-0.30837 -1.74423,-0.61453c-0.44987,-0.26242 -3.32688,-2.39282 -4.33203,-2.97203c-0.42236,-0.24337 -5.76934,-5.22785 -6.02241,-6.14898c-1.15958,-4.25508 -0.52515,-8.14743 -0.52515,-12.424c0,-0.14048 0.02866,-0.27491 0.08093,-0.39866c0.00467,-0.01253 0.00962,-0.02516 0.01486,-0.03788z" data-paper-data="{&quot;index&quot;:null}" fill="#8e4108" stroke="none" stroke-width="0.5" stroke-linecap="butt"/><path d="M262.146,159.78647c0.17064,3.90728 1.4718,7.7783 -0.81964,10.68763c-0.98729,1.25352 -2.80221,2.54013 -3.44498,2.48218c-3.20931,0.01312 -7.29019,0.56007 -10.30556,-0.67839c-2.1749,-0.89325 -6.72968,-3.9574 -6.76184,-3.96815c-0.03266,-0.00895 -0.05046,-0.01488 -0.05046,-0.01488c-2.82364,-0.94121 -5.28539,-2.75087 -8.07466,-3.6896c-1.2975,-0.43668 -5.42252,-1.75082 -5.42252,-1.75082c-6.09459,-4.06305 -10.21819,-10.1142 -12.61901,-16.97128c-0.97333,-2.92007 -1.63971,-5.89651 -2.6062,-8.79596l0.08174,-0.32924c-2.89541,-1.65655 -5.32302,-4.00823 -8.24441,-5.60387c-1.55584,-0.84976 -3.71568,-1.52599 -5.19128,-2.71002c-1.55595,-1.2485 -2.4401,-1.98118 -3.68164,-3.5427c-4.82896,-4.94704 -5.54326,-9.36392 -5.54326,-16.12327l0.08029,-0.93507c-0.08765,-0.25002 -0.12319,-0.54806 -0.07337,-0.9021c0.02221,-0.36596 0.13727,-0.7961 0.48318,-1.14738c0.32357,-0.37197 0.74353,-0.51985 1.1067,-0.57023c0.50012,-0.11024 0.89914,-0.03706 1.21302,0.1204c5.02706,1.23803 8.96383,3.61955 13.70159,5.59536c1.90723,0.7954 4.22413,0.6164 6.2885,0.96047c0.97732,0.16289 3.91374,0.46208 3.91374,0.46208c4.4492,0 7.24958,-2.69117 11.36738,-4.27354c3.21192,-1.23425 6.47564,-1.16868 9.8125,-1.72676c5.71052,-0.95175 12.1258,-0.18948 17.91325,-0.18948c0,0 2.27591,0.66536 2.56434,1.07193c2.38694,2.18763 2.3223,4.51829 2.3223,7.72402c0,4.6196 -0.41579,9.48463 0.24119,14.05865c0.28991,2.17437 0.7278,4.20633 0.73602,6.40239c0.10558,0.44099 0.01282,0.83277 -0.13788,1.14528c-0.13233,0.37412 -0.3917,0.76753 -0.89419,0.99929c-2.73293,2.0173 -5.05029,1.4282 -8.09397,2.45254c-1.34395,0.45229 -2.52281,1.35418 -4.01944,1.58028c-2.4169,0.36509 -4.99279,0.04074 -7.38274,0.53728c-2.81257,0.46875 -5.99479,0.37837 -8.86894,-0.02543c-0.06008,1.17998 -0.10577,2.38688 0.0774,3.47266c0.76504,4.53495 6.2475,7.86532 10.34151,8.3224c4.93194,0.61651 8.60764,-0.8447 13.14781,-2.3581c1.31991,-0.43997 2.9717,-0.51994 4.20609,-1.05103c1.28669,-0.5536 2.28541,-1.35823 3.90931,-1.62888l1.60147,1.05457c0,0 1.85084,0.62858 1.22225,2.47942z" data-paper-data="{&quot;index&quot;:null}" fill="#ffdebd" stroke="none" stroke-width="0.5" stroke-linecap="butt"/><path d="M273.8523,107.93559c0,0 -0.01404,2.37374 -0.87055,3.48215c-0.8565,1.10841 -4.06251,2.90178 -4.06251,2.90178l-9.86609,4.64286" data-paper-data="{&quot;index&quot;:null}" fill="none" stroke="#a5b5ff" stroke-width="4.5" stroke-linecap="round"/><path d="M230.39365,114.68698c-0.23453,1.12237 -0.6881,2.14499 -0.88129,3.31621c-0.25959,1.57375 0.05015,3.56101 0.05015,5.18127c0,0.9952 3.86725,1.49928 5.70108,1.49928c0.49187,0 3.43204,0.03523 3.3672,-0.1653c0.74436,-0.50753 2.03597,-0.55362 2.67638,-1.11611c1.98945,-1.74735 3.77762,-4.192 4.75719,-7.19738c0.12251,-0.37594 0.49336,-1.25728 0.11273,-1.18319c-0.2025,0.03941 -0.08929,0.52533 -0.29308,0.55682c-0.55947,0.08647 -1.77338,-0.80918 -2.35034,-0.96149c-0.75594,-0.19957 -2.03995,-0.16837 -2.87806,-0.31297c-1.85687,-0.32037 -4.1463,0.05128 -6.04357,0.05128c-1.46493,0 -2.79782,0.30684 -4.21839,0.33159zM229.56253,112.35639c0.37783,0 0.6096,0.14938 0.75176,0.33266c1.41752,-0.01464 2.82146,-0.33266 4.29777,-0.33266c3.15477,0 7.39645,-0.51624 10.36904,0.69979c1.86724,0.76384 3.69601,1.45409 2.93762,3.78093c-1.17344,3.6002 -0.68747,5.07931 -3.5359,7.36947c-0.58037,0.46662 -3.73519,1.93219 -4.66779,1.97516c-0.93259,0.04299 -7.34968,0.87244 -9.71732,-0.33317c-0.98905,-0.50364 -2.38984,-1.47831 -2.38984,-2.6641c0,-1.87431 -0.24952,-3.96285 0.05014,-5.81342c0.22808,-1.40844 0.92718,-2.54424 0.92718,-4.01518c0,0 0,-0.99952 0.97732,-0.99952z" data-paper-data="{&quot;index&quot;:null}" fill="#18c6ff" stroke="none" stroke-width="0.5" stroke-linecap="butt"/><path d="M240.47412,112.17608c2.23189,0.55981 1.84776,0.61099 3.09678,1.38534c1.24902,0.77436 2.66145,2.24965 2.53891,2.62559c-0.97955,3.0054 -0.5968,4.68575 -2.58626,6.43312c-0.64041,0.56248 -3.77513,1.60961 -4.88561,1.84423c-1.11049,0.23461 -2.90425,0.26313 -3.3961,0.26313c-1.83384,0 -5.72386,-0.52771 -5.72386,-1.52293c0,-1.62024 -0.31339,-3.63584 -0.05379,-5.20959c0.19319,-1.17121 0.65362,-3.3288 0.88817,-4.45117c1.42057,-0.33192 2.38496,-1.03307 4.23323,-1.31452c1.84826,-0.28145 3.65662,-0.61299 5.8885,-0.05318z" data-paper-data="{&quot;noHover&quot;:false,&quot;origItem&quot;:[&quot;Path&quot;,{&quot;applyMatrix&quot;:true,&quot;segments&quot;:[[[469.86056,340.47788],[2.90705,-0.05065],[-0.47996,2.2968]],[[468.0571,347.26415],[0.39535,-2.39679],[-0.53123,3.22051]],[[468.15973,357.86707],[0,-3.31566],[0,2.03658]],[[479.8264,360.93518],[-3.75277,0],[1.00657,0]],[[486.717,360.5969],[0.13271,0.41035],[1.52326,-1.03856]],[[492.19394,358.31293],[-1.31054,1.15106],[4.07119,-3.57579]],[[501.92903,343.58421],[-2.00456,6.15021],[0.25074,-0.76931]],[[502.15973,341.16292],[0.77893,-0.15165],[-0.41434,0.08067]],[[501.56,342.30239],[0.41704,-0.06448],[-1.14489,0.17701]],[[496.75028,340.33482],[1.18068,0.3117],[-1.54698,-0.4084]],[[490.86061,339.69435],[1.71512,0.2959],[-3.79987,-0.65558]],[[478.49306,339.79931],[3.88259,0],[-2.99782,0]]],&quot;closed&quot;:true}],&quot;index&quot;:null}" fill="#ffffff" stroke="none" stroke-width="0.5" stroke-linecap="butt"/><path d="M252.69261,115.20225c0,1.2767 0,2.55342 0,3.83012c0,0.09781 -0.00413,1.46587 0,1.46598c0.16339,0.00383 -0.10318,-0.4407 0.05345,-0.48741c0.45282,-0.13501 2.3483,0.48741 3.3672,0.48741c0.19825,0 2.44313,0.00816 2.44332,0c0.00383,-0.16339 -0.4407,0.10318 -0.48741,-0.05346c-0.36921,-1.23836 0.07992,-4.68793 0.15212,-6.77818c-0.56536,0.396 -1.77659,-0.33544 -2.59671,-0.33544c-0.77336,0 -1.75491,0.80535 -2.40382,1.50552l-0.48867,0.48867c0,0 -0.0155,-0.04649 -0.03952,-0.12322zM251.83871,113.4546c1.7905,-1.71515 4.40158,-3.19646 6.82507,-3.10199c1.09775,0.04282 1.52175,1.45045 1.52175,2.81574c0,2.66277 1.00668,7.78863 -1.62887,9.28463c-0.46433,0.26356 -1.89382,0 -2.44332,0c-1.91679,0 -4.32769,-0.10902 -5.37532,-1.95465c-0.62126,-1.09451 0,-4.26702 0,-5.53819c0,0 0,-0.842 0.78155,-0.96294z" data-paper-data="{&quot;index&quot;:null}" fill="#18c6ff" stroke="none" stroke-width="0.5" stroke-linecap="butt"/><path d="M255.62462,111.23446c0.82011,0 2.83199,0.35547 2.83199,0.35547c0,0 0.13479,8.78283 0.13096,8.94622c-0.00019,0.00816 -2.2694,0.0106 -2.46764,0.0106c-1.0189,0 -3.29484,-0.00675 -3.45823,-0.01059c-0.00414,-0.00011 -0.00868,-1.3774 -0.00868,-1.4752c0,-1.2767 0.03633,-3.75906 0.03633,-3.75906c0,0 2.16193,-4.06744 2.93528,-4.06744z" data-paper-data="{&quot;noHover&quot;:false,&quot;origItem&quot;:[&quot;Path&quot;,{&quot;applyMatrix&quot;:true,&quot;segments&quot;:[[[515.49306,341.5323],[0.04917,0.15701],[0,2.61264]],[[515.49306,349.37022],[0,-2.61264],[0,0.20016]],[[515.49306,352.37022],[-0.00844,-0.0002],[0.33438,0.00784]],[[515.60246,351.37279],[-0.32053,0.09557],[0.92664,-0.27628]],[[522.49306,352.37022],[-2.08504,0],[0.4057,0]],[[527.49306,352.37022],[-0.00039,0.0167],[0.00784,-0.33438]],[[526.49563,352.26082],[0.09557,0.32053],[-0.75555,-2.53413]],[[526.80695,338.39],[-0.14773,4.27747],[-1.15693,0.81042]],[[521.49306,337.70356],[1.67827,0],[-1.5826,0]],[[516.57394,340.78444],[1.32792,-1.43284],[0,0]],[515.57394,341.78444]],&quot;closed&quot;:true}],&quot;index&quot;:null}" fill="#ffffff" stroke="none" stroke-width="0.5" stroke-linecap="butt"/><path d="M197.8851,115.58352l5.09413,2.90178c0,0 3.58887,0.77931 5.60355,2.03125c2.01466,1.25195 1.99543,1.68875 2.80176,3.19197c0.80633,1.50322 0.61575,1.66204 0,2.03125c-0.61573,0.36923 -2.96449,1.29775 -4.83942,0.87055c-1.87493,-0.42722 -2.80178,-2.61162 -2.80178,-2.61162l-0.78958,-5.45536" data-paper-data="{&quot;index&quot;:null}" fill="none" stroke="#f6b09a" stroke-width="3" stroke-linecap="round"/><path d="M233.43846,118.91191c0.5603,0 1.0674,0.22699 1.43498,0.59424c0.36765,0.36642 0.59498,0.8731 0.59498,1.43245c0,0.55935 -0.22734,1.06604 -0.59498,1.43246c-0.36757,0.36724 -0.87468,0.59424 -1.43498,0.59424c-0.56023,0 -1.06734,-0.22699 -1.43498,-0.59424c-0.36757,-0.36642 -0.59492,-0.87311 -0.59492,-1.43246c0,-0.55935 0.22734,-1.06603 0.59492,-1.43245c0.36765,-0.36724 0.87475,-0.59424 1.43498,-0.59424z" data-paper-data="{&quot;index&quot;:null}" fill="#000000" stroke="none" stroke-width="1.05702" stroke-linecap="butt"/><path d="M263.92121,86.54273c2.16292,13.48807 -0.44418,14.25513 -7.69114,18.57319c-10.5594,6.29178 -24.37183,5.01806 -35.65083,9.90393c-2.96155,1.28289 -10.50991,-1.83411 -13.7374,-1.83411c-6.60116,0 -10.32586,-4.71778 -10.59864,-10.33715c-0.60167,-12.39503 5.50173,-12.44309 12.10288,-12.44309c0,0 7.26477,1.2041 9.77415,5.05833c0,0 10.1063,-16.44334 20.75976,-18.47479c13.71398,-2.61501 23.48798,-0.13256 25.04125,9.55368z" data-paper-data="{&quot;index&quot;:null}" fill="#7100f3" stroke="none" stroke-width="0" stroke-linecap="butt"/><path d="M261.30931,94.23721c0,4.93475 -1.32057,8.64737 -11.01098,8.93514c-10.22996,0.30378 -11.01099,-4.00039 -11.01099,-8.93514c0,-4.93475 4.9298,-8.93514 11.01099,-8.93514c6.08119,0 11.01098,4.00039 11.01098,8.93514z" data-paper-data="{&quot;index&quot;:null}" fill="#ffffff" stroke="none" stroke-width="0" stroke-linecap="butt"/><path d="M254.47317,87.46337l0.36246,3.1932l-4.86389,0.40569l0.67485,7.91604l-4.09297,0.48356l-0.75798,-11.26728z" data-paper-data="{&quot;index&quot;:null,&quot;origRot&quot;:0}" fill="#ffea12" stroke="#7100f3" stroke-width="1" stroke-linecap="butt"/><path d="M275.79296,135.49177l-5.21241,11.07639l-2.60622,-0.32576l-9.12173,-3.90931l-26.38785,6.18974h-3.90931l-2.93199,-3.25775l-5.21241,-12.05374l1.30312,-1.62887l9.44751,9.12173l14.33414,-1.62888l11.40216,-3.25775l10.09904,3.90931l6.18974,-5.21241z" data-paper-data="{&quot;index&quot;:null}" fill="#000000" stroke="#ff0000" stroke-width="0" stroke-linecap="round"/><path d="M218.46369,113.05647c0.90728,0 2.36907,1.62917 2.42914,1.97596c1.51732,1.51907 2.8596,3.85536 3.18623,5.98181c0.10466,0.68151 -1.50092,4.25681 -1.86896,4.74753c-1.94646,1.51394 -4.59518,2.82118 -5.69598,0.21504c-0.25622,-0.60662 0.72789,-3.2121 0.72789,-3.88002c0,-2.28043 0,-4.56085 0,-6.84129c0,0 0,-0.31425 0.15937,-0.624l-0.15937,-0.35333c0,0 0,-1.22166 1.22166,-1.22166z" data-paper-data="{&quot;index&quot;:null}" fill="#8e4108" stroke="none" stroke-width="0.5" stroke-linecap="butt"/><path d="M261.08693,99.72674c6.22154,0.086 15.34451,5.97617 14.63269,8.73881c-0.19256,0.74733 -36.40517,2.38179 -46.95485,3.42643c-5.12726,0.50772 -15.33742,3.74232 -15.14485,2.995c0.71185,-2.76264 4.99428,-8.32441 9.89989,-9.76515c5.92819,-1.74107 22.348,-5.60543 37.56715,-5.39508z" data-paper-data="{&quot;index&quot;:null}" fill="#4f05a3" stroke="none" stroke-width="0" stroke-linecap="butt"/><path d="M215.45376,115.33515l27.34939,-5.36832l31.33936,-2.03125" data-paper-data="{&quot;index&quot;:null}" fill="none" stroke="#ffffff" stroke-width="4.5" stroke-linecap="round"/><path d="M249.66046,116.02241c-0.08489,1.9528 -2.0377,1.86792 -2.0377,1.86792l-1.78771,-1.07803c-0.81444,-0.65154 -1.62887,-1.30312 -2.44332,-1.95465c-4.64773,-3.96775 -12.02756,-1.34689 -16.7379,1.34474c0,0 -1.69713,0.96977 -2.6669,-0.72734c-0.96977,-1.69712 0.72734,-2.66689 0.72734,-2.66689c6.29148,-3.59513 14.75612,-5.9134 21.1196,-1.00316c0.81444,0.65154 2.28639,1.68822 2.28639,1.68822c0,0 1.62514,0.57641 1.54024,2.52922z" data-paper-data="{&quot;index&quot;:null}" fill="#000000" stroke="none" stroke-width="0.5" stroke-linecap="butt"/><path d="M261.55945,109.11085c0.95506,1.70545 -0.7504,2.66051 -0.7504,2.66051l-2.25816,0.24921c-2.75376,0 -4.09599,0.55147 -4.98694,3.22433c0,0 -0.61813,1.85435 -2.47246,1.23624c-1.85437,-0.61811 -1.23624,-2.47246 -1.23624,-2.47246c1.3885,-4.16549 6.04007,-5.37512 6.04007,-5.37512c0,0 4.70908,-1.22811 5.66415,0.47734z" data-paper-data="{&quot;index&quot;:null}" fill="#000000" stroke="none" stroke-width="0.5" stroke-linecap="butt"/><path d="M254.41058,116.55512c0.48493,0 0.92382,0.19645 1.24196,0.51431c0.3182,0.31713 0.51496,0.75566 0.51496,1.23977c0,0.48412 -0.19676,0.92263 -0.51496,1.23976c-0.31813,0.31785 -0.75702,0.51432 -1.24196,0.51432c-0.48488,0 -0.92376,-0.19646 -1.24196,-0.51432c-0.31812,-0.31713 -0.5149,-0.75565 -0.5149,-1.23976c0,-0.48412 0.19675,-0.92264 0.5149,-1.23977c0.3182,-0.31785 0.75707,-0.51431 1.24196,-0.51431z" data-paper-data="{&quot;index&quot;:null}" fill="#000000" stroke="none" stroke-width="1.05702" stroke-linecap="butt"/><path d="M246.43103,126.56248c0.21224,-1.40103 0.12975,-3.15451 0.53847,-4.25848c0.90288,-2.43874 3.61727,-3.57427 6.00467,-3.57427c8.01081,0 20.47939,3.06186 20.47939,12.90202c-0.06007,2.90027 -0.61275,5.42749 -2.9257,7.4309c-1.13332,0.98166 -3.23136,1.01816 -4.65268,1.16029c-4.42435,0.44245 -9.52436,1.05371 -13.91702,0.17518c-3.84212,-1.01882 -7.55935,-0.60591 -10.60431,-3.88072c-2.14039,-2.30195 -1.84573,-6.66395 -0.19913,-9.03984c0.79581,-1.14827 3.60345,-0.96566 4.85647,-0.96566c0,0 0.17367,0 0.41985,0.05057z" fill="#f991fd" stroke="none" stroke-width="0.5" stroke-linecap="butt"/></g></g></g></svg>