<svg version="1.1" xmlns="http://www.w3.org/2000/svg" xmlns:xlink="http://www.w3.org/1999/xlink" width="722.42645" height="367.65234" viewBox="0,0,722.42645,367.65234"><defs><linearGradient x1="-119.78461" y1="249.62309" x2="-119.78461" y2="360.62309" gradientUnits="userSpaceOnUse" id="color-1"><stop offset="0" stop-color="#000000" stop-opacity="0"/><stop offset="1" stop-color="#000000"/></linearGradient><radialGradient cx="0.42908" cy="290.57106" r="690.98836" gradientUnits="userSpaceOnUse" id="color-2"><stop offset="0" stop-color="#002699"/><stop offset="1" stop-color="#000000"/></radialGradient><radialGradient cx="528.11367" cy="28.56306" r="764.6971" gradientUnits="userSpaceOnUse" id="color-3"><stop offset="0" stop-color="#00ffff"/><stop offset="1" stop-color="#00ffff" stop-opacity="0"/></radialGradient><radialGradient cx="-25.11454" cy="59.55906" r="720.33914" gradientUnits="userSpaceOnUse" id="color-4"><stop offset="0" stop-color="#00cc44"/><stop offset="1" stop-color="#00cc44" stop-opacity="0"/></radialGradient><radialGradient cx="588.22052" cy="352.56309" r="813.53224" gradientUnits="userSpaceOnUse" id="color-5"><stop offset="0" stop-color="#ff0000"/><stop offset="1" stop-color="#ff0000" stop-opacity="0"/></radialGradient><radialGradient cx="32.03388" cy="344.57109" r="792.22381" gradientUnits="userSpaceOnUse" id="color-6"><stop offset="0" stop-color="#002699"/><stop offset="1" stop-color="#002699" stop-opacity="0"/></radialGradient><linearGradient x1="-119.78461" y1="0.59101" x2="-119.78461" y2="190.59106" gradientUnits="userSpaceOnUse" id="color-7"><stop offset="0" stop-color="#ffffff" stop-opacity="0"/><stop offset="1" stop-color="#ffffff"/></linearGradient><linearGradient x1="-119.78461" y1="361.59109" x2="-119.78461" y2="187.59106" gradientUnits="userSpaceOnUse" id="color-8"><stop offset="0" stop-color="#ffffff" stop-opacity="0"/><stop offset="1" stop-color="#ffffff"/></linearGradient><linearGradient x1="-119.78461" y1="75.409" x2="-119.78461" y2="-5.59094" gradientUnits="userSpaceOnUse" id="color-9"><stop offset="0" stop-color="#000000" stop-opacity="0"/><stop offset="1" stop-color="#000000" stop-opacity="0.7098"/></linearGradient><linearGradient x1="-119.2835" y1="286.07572" x2="-119.2835" y2="438.47726" gradientUnits="userSpaceOnUse" id="color-10"><stop offset="0" stop-color="#0c0622" stop-opacity="0"/><stop offset="1" stop-color="#0c0622"/></linearGradient><radialGradient cx="244.08688" cy="182.79958" r="1004.64232" gradientUnits="userSpaceOnUse" id="color-11"><stop offset="0" stop-color="#bce7f7"/><stop offset="1" stop-color="#1bafe5"/></radialGradient><radialGradient cx="244.08688" cy="182.79958" r="1004.64232" gradientUnits="userSpaceOnUse" id="color-12"><stop offset="0" stop-color="#bce7f7"/><stop offset="1" stop-color="#1bafe5"/></radialGradient><radialGradient cx="235.91318" cy="177.20048" r="1004.64232" gradientUnits="userSpaceOnUse" id="color-13"><stop offset="0" stop-color="#bce7f7"/><stop offset="1" stop-color="#1bafe5"/></radialGradient><radialGradient cx="235.91318" cy="177.20048" r="1004.64232" gradientUnits="userSpaceOnUse" id="color-14"><stop offset="0" stop-color="#bce7f7"/><stop offset="1" stop-color="#1bafe5"/></radialGradient><linearGradient x1="-119.78461" y1="105.43905" x2="-119.78461" y2="-5.59094" gradientUnits="userSpaceOnUse" id="color-15"><stop offset="0" stop-color="#000000" stop-opacity="0"/><stop offset="1" stop-color="#000000" stop-opacity="0.26667"/></linearGradient><linearGradient x1="346.44802" y1="103.05431" x2="346.44802" y2="126.84961" gradientUnits="userSpaceOnUse" id="color-16"><stop offset="0" stop-color="#ffe746"/><stop offset="1" stop-color="#ffc443"/></linearGradient><linearGradient x1="314.63257" y1="147.60611" x2="314.63257" y2="200.93791" gradientUnits="userSpaceOnUse" id="color-17"><stop offset="0" stop-color="#cfbb36"/><stop offset="1" stop-color="#ffe743"/></linearGradient><linearGradient x1="411.90581" y1="149.70675" x2="411.90581" y2="200.77841" gradientUnits="userSpaceOnUse" id="color-18"><stop offset="0" stop-color="#cfbb36"/><stop offset="1" stop-color="#ffe743"/></linearGradient><linearGradient x1="379.85502" y1="145.88574" x2="379.85502" y2="182.50281" gradientUnits="userSpaceOnUse" id="color-19"><stop offset="0" stop-color="#cfbb36"/><stop offset="1" stop-color="#ffe743"/></linearGradient><linearGradient x1="348.87582" y1="144.48577" x2="348.87582" y2="181.10281" gradientUnits="userSpaceOnUse" id="color-20"><stop offset="0" stop-color="#cfbb36"/><stop offset="1" stop-color="#ffe743"/></linearGradient><linearGradient x1="321.76536" y1="121.60411" x2="321.76536" y2="160.43608" gradientUnits="userSpaceOnUse" id="color-21"><stop offset="0" stop-color="#ffe746"/><stop offset="1" stop-color="#f0d93f"/></linearGradient><linearGradient x1="294.66929" y1="225.67541" x2="294.66929" y2="271.94624" gradientUnits="userSpaceOnUse" id="color-22"><stop offset="0" stop-color="#ffff99" stop-opacity="0"/><stop offset="1" stop-color="#ffff99"/></linearGradient></defs><g transform="translate(119.78462,6.06129)"><g data-paper-data="{&quot;isPaintingLayer&quot;:true}" fill-rule="nonzero" stroke-linejoin="miter" stroke-miterlimit="10" stroke-dasharray="" stroke-dashoffset="0" style="mix-blend-mode: normal"><g stroke-linecap="butt"><path d="M-119.03296,358.09109v-361h720.06736v361z" data-paper-data="{&quot;origPos&quot;:null}" fill="#000000" stroke="none" stroke-width="0"/><path d="M-119.78461,249.62309h721.57062v111h-721.57062z" data-paper-data="{&quot;origPos&quot;:null}" fill="url(#color-1)" stroke="none" stroke-width="1.4682"/><path d="M-119.78461,0.59101h721.57062v360h-721.57062z" data-paper-data="{&quot;origPos&quot;:null}" fill="url(#color-2)" stroke="none" stroke-width="1"/><path d="M-119.78461,0.59101h721.57062v360h-721.57062z" data-paper-data="{&quot;origPos&quot;:null}" fill="url(#color-3)" stroke="none" stroke-width="1"/><path d="M-119.78461,0.59101h721.57062v360h-721.57062z" data-paper-data="{&quot;origPos&quot;:null}" fill="url(#color-4)" stroke="none" stroke-width="1"/><path d="M-119.78461,0.59101h721.57062v360h-721.57062z" data-paper-data="{&quot;origPos&quot;:null}" fill="url(#color-5)" stroke="none" stroke-width="1"/><path d="M-119.78461,0.59101h721.57062v360h-721.57062z" data-paper-data="{&quot;origPos&quot;:null}" fill="url(#color-6)" stroke="none" stroke-width="1"/><path d="M-119.78461,0.59101h721.57062v190h-721.57062z" data-paper-data="{&quot;origPos&quot;:null}" fill="url(#color-7)" stroke="none" stroke-width="1"/><path d="M-119.78461,187.59106h721.57062v174h-721.57062z" data-paper-data="{&quot;origPos&quot;:null}" fill="url(#color-8)" stroke="none" stroke-width="0.95882"/><path d="M-119.78461,-5.59094h721.57062v81h-721.57062z" data-paper-data="{&quot;origPos&quot;:null}" fill="url(#color-9)" stroke="none" stroke-width="1.4682"/><path d="M-119.2835,286.07572h721.92534c0,17.31849 -1.53575,74.03259 -1.53575,74.03259l-720.38956,-0.41472z" data-paper-data="{&quot;origPos&quot;:null,&quot;index&quot;:null}" fill="url(#color-10)" stroke="none" stroke-width="1.4682"/><g fill-opacity="0.60392" fill="#ffffff"><path d="" data-paper-data="{&quot;origPos&quot;:null}" stroke="none" stroke-width="1"/><path d="" data-paper-data="{&quot;origPos&quot;:null}" stroke="none" stroke-width="1"/><path d="" stroke="none" stroke-width="0.5"/><path d="" stroke="none" stroke-width="0.5"/><path d="" stroke="none" stroke-width="0.5"/><path d="" stroke="none" stroke-width="0.5"/><path d="" stroke="none" stroke-width="0.5"/><path d="" data-paper-data="{&quot;origPos&quot;:null}" stroke="none" stroke-width="1.28528"/><path d="" data-paper-data="{&quot;origPos&quot;:null}" stroke="url(#color-11)" stroke-width="2.70748"/><path d="" data-paper-data="{&quot;origPos&quot;:null}" stroke="url(#color-12)" stroke-width="2.70748"/><path d="" stroke="none" stroke-width="0.5"/><path d="" stroke="none" stroke-width="0.5"/><path d="" stroke="none" stroke-width="0.5"/><path d="" stroke="none" stroke-width="0.5"/><path d="" stroke="none" stroke-width="0.5"/><path d="" stroke="none" stroke-width="0.5"/><path d="" stroke="none" stroke-width="0.5"/><path d="" stroke="none" stroke-width="0.5"/><path d="" stroke="none" stroke-width="0.5"/><path d="" stroke="none" stroke-width="0.5"/><path d="" stroke="none" stroke-width="0.5"/><path d="" stroke="none" stroke-width="0.5"/><path d="" stroke="none" stroke-width="0.5"/><path d="" stroke="none" stroke-width="0.5"/><path d="" stroke="none" stroke-width="0.5"/><path d="M502.04672,188.63873c0,-1.24264 1.00736,-2.25 2.25,-2.25c1.24264,0 2.25,1.00736 2.25,2.25c0,1.24264 -1.00736,2.25 -2.25,2.25c-1.24264,0 -2.25,-1.00736 -2.25,-2.25z" stroke="none" stroke-width="0.5"/><path d="M521.04671,133.63851c0,-1.24264 1.00736,-2.25 2.25,-2.25c1.24264,0 2.25,1.00736 2.25,2.25c0,1.24264 -1.00736,2.25 -2.25,2.25c-1.24264,0 -2.25,-1.00736 -2.25,-2.25z" stroke="none" stroke-width="0.5"/><path d="M505.04672,62.63872c0,-1.24264 1.00736,-2.25 2.25,-2.25c1.24264,0 2.25,1.00736 2.25,2.25c0,1.24264 -1.00736,2.25 -2.25,2.25c-1.24264,0 -2.25,-1.00736 -2.25,-2.25z" stroke="none" stroke-width="0.5"/><path d="M68.15551,24.43872c0,-0.27614 0.22386,-0.5 0.5,-0.5c0.27614,0 0.5,0.22386 0.5,0.5c0,0.27614 -0.22386,0.5 -0.5,0.5c-0.27614,0 -0.5,-0.22386 -0.5,-0.5z" stroke="none" stroke-width="0.5"/><path d="M143.15553,71.43873c0,-0.27614 0.22386,-0.5 0.5,-0.5c0.27614,0 0.5,0.22386 0.5,0.5c0,0.27614 -0.22386,0.5 -0.5,0.5c-0.27614,0 -0.5,-0.22386 -0.5,-0.5z" stroke="none" stroke-width="0.5"/><path d="M95.15557,79.43873c0,-0.27614 0.22386,-0.5 0.5,-0.5c0.27614,0 0.5,0.22386 0.5,0.5c0,0.27614 -0.22386,0.5 -0.5,0.5c-0.27614,0 -0.5,-0.22386 -0.5,-0.5z" stroke="none" stroke-width="0.5"/><path d="M199.15559,13.43865c0,-0.27614 0.22386,-0.5 0.5,-0.5c0.27614,0 0.5,0.22386 0.5,0.5c0,0.27614 -0.22386,0.5 -0.5,0.5c-0.27614,0 -0.5,-0.22386 -0.5,-0.5z" stroke="none" stroke-width="0.5"/><path d="M116.15557,6.43865c0,-0.27614 0.22386,-0.5 0.5,-0.5c0.27614,0 0.5,0.22386 0.5,0.5c0,0.27614 -0.22386,0.5 -0.5,0.5c-0.27614,0 -0.5,-0.22386 -0.5,-0.5z" stroke="none" stroke-width="0.5"/><path d="M244.15559,82.43873c0,-0.27614 0.22386,-0.5 0.5,-0.5c0.27614,0 0.5,0.22386 0.5,0.5c0,0.27614 -0.22386,0.5 -0.5,0.5c-0.27614,0 -0.5,-0.22386 -0.5,-0.5z" stroke="none" stroke-width="0.5"/><path d="M206.15559,112.43858c0,-0.27614 0.22386,-0.5 0.5,-0.5c0.27614,0 0.5,0.22386 0.5,0.5c0,0.27614 -0.22386,0.5 -0.5,0.5c-0.27614,0 -0.5,-0.22386 -0.5,-0.5z" stroke="none" stroke-width="0.5"/><path d="M307.15556,118.43858c0,-0.27614 0.22386,-0.5 0.5,-0.5c0.27614,0 0.5,0.22386 0.5,0.5c0,0.27614 -0.22386,0.5 -0.5,0.5c-0.27614,0 -0.5,-0.22386 -0.5,-0.5z" stroke="none" stroke-width="0.5"/><path d="M276.15556,31.43872c0,-0.27614 0.22386,-0.5 0.5,-0.5c0.27614,0 0.5,0.22386 0.5,0.5c0,0.27614 -0.22386,0.5 -0.5,0.5c-0.27614,0 -0.5,-0.22386 -0.5,-0.5z" stroke="none" stroke-width="0.5"/><path d="M344.15561,19.4387c0,-0.27614 0.22386,-0.5 0.5,-0.5c0.27614,0 0.5,0.22386 0.5,0.5c0,0.27614 -0.22386,0.5 -0.5,0.5c-0.27614,0 -0.5,-0.22386 -0.5,-0.5z" stroke="none" stroke-width="0.5"/><path d="M380.1556,60.43873c0,-0.27614 0.22386,-0.5 0.5,-0.5c0.27614,0 0.5,0.22386 0.5,0.5c0,0.27614 -0.22386,0.5 -0.5,0.5c-0.27614,0 -0.5,-0.22386 -0.5,-0.5z" stroke="none" stroke-width="0.5"/><path d="M370.15561,145.43875c0,-0.27614 0.22386,-0.5 0.5,-0.5c0.27614,0 0.5,0.22386 0.5,0.5c0,0.27614 -0.22386,0.5 -0.5,0.5c-0.27614,0 -0.5,-0.22386 -0.5,-0.5z" stroke="none" stroke-width="0.5"/><path d="M466.1556,127.43858c0,-0.27614 0.22386,-0.5 0.5,-0.5c0.27614,0 0.5,0.22386 0.5,0.5c0,0.27614 -0.22386,0.5 -0.5,0.5c-0.27614,0 -0.5,-0.22386 -0.5,-0.5z" stroke="none" stroke-width="0.5"/><path d="M424.1556,99.43873c0,-0.27614 0.22386,-0.5 0.5,-0.5c0.27614,0 0.5,0.22386 0.5,0.5c0,0.27614 -0.22386,0.5 -0.5,0.5c-0.27614,0 -0.5,-0.22386 -0.5,-0.5z" stroke="none" stroke-width="0.5"/><path d="M462.1556,35.43872c0,-0.27614 0.22386,-0.5 0.5,-0.5c0.27614,0 0.5,0.22386 0.5,0.5c0,0.27614 -0.22386,0.5 -0.5,0.5c-0.27614,0 -0.5,-0.22386 -0.5,-0.5z" stroke="none" stroke-width="0.5"/><path d="M284.15556,-5.56128c0,-0.27614 0.22386,-0.5 0.5,-0.5c0.27614,0 0.5,0.22386 0.5,0.5c0,0.27614 -0.22386,0.5 -0.5,0.5c-0.27614,0 -0.5,-0.22386 -0.5,-0.5z" stroke="none" stroke-width="0.5"/><path d="M99.15557,180.43876c0,-0.27614 0.22386,-0.5 0.5,-0.5c0.27614,0 0.5,0.22386 0.5,0.5c0,0.27614 -0.22386,0.5 -0.5,0.5c-0.27614,0 -0.5,-0.22386 -0.5,-0.5z" stroke="none" stroke-width="0.5"/><path d="M47.15558,120.43858c0,-0.27614 0.22386,-0.5 0.5,-0.5c0.27614,0 0.5,0.22386 0.5,0.5c0,0.27614 -0.22386,0.5 -0.5,0.5c-0.27614,0 -0.5,-0.22386 -0.5,-0.5z" stroke="none" stroke-width="0.5"/><path d="M456.1556,192.43876c0,-0.27614 0.22386,-0.5 0.5,-0.5c0.27614,0 0.5,0.22386 0.5,0.5c0,0.27614 -0.22386,0.5 -0.5,0.5c-0.27614,0 -0.5,-0.22386 -0.5,-0.5z" stroke="none" stroke-width="0.5"/><path d="M24.15558,0.43872c0,-0.27614 0.22386,-0.5 0.5,-0.5c0.27614,0 0.5,0.22386 0.5,0.5c0,0.27614 -0.22386,0.5 -0.5,0.5c-0.27614,0 -0.5,-0.22386 -0.5,-0.5z" stroke="none" stroke-width="0.5"/><path d="M132.15553,156.43875c0,-0.27614 0.22386,-0.5 0.5,-0.5c0.27614,0 0.5,0.22386 0.5,0.5c0,0.27614 -0.22386,0.5 -0.5,0.5c-0.27614,0 -0.5,-0.22386 -0.5,-0.5z" stroke="none" stroke-width="0.5"/><path d="M262.15556,139.43857c0,-0.27614 0.22386,-0.5 0.5,-0.5c0.27614,0 0.5,0.22386 0.5,0.5c0,0.27614 -0.22386,0.5 -0.5,0.5c-0.27614,0 -0.5,-0.22386 -0.5,-0.5z" stroke="none" stroke-width="0.5"/><path d="M144.65553,118.93858c-0.5,0 -0.5,-0.5 -0.5,-0.5c0,-0.16666 0,-0.83334 0,-1c0,0 0,-0.5 0.5,-0.5c0.5,0 0.5,0.5 0.5,0.5c0,0.16666 0,0.33334 0,0.5v0.5c0,0 0,0.5 -0.5,0.5z" stroke="none" stroke-width="0.5"/><path d="M356.15561,99.43873c0,-0.27614 0.22386,-0.5 0.5,-0.5c0.27614,0 0.5,0.22386 0.5,0.5c0,0.27614 -0.22386,0.5 -0.5,0.5c-0.27614,0 -0.5,-0.22386 -0.5,-0.5z" stroke="none" stroke-width="0.5"/><path d="M106.40557,38.43864c0,-0.69036 0.55964,-1.25 1.25,-1.25c0.69036,0 1.25,0.55964 1.25,1.25c0,0.69036 -0.55964,1.25 -1.25,1.25c-0.69036,0 -1.25,-0.55964 -1.25,-1.25z" stroke="none" stroke-width="0.5"/><path d="M195.40559,80.43872c0,-0.69036 0.55964,-1.25 1.25,-1.25c0.69036,0 1.25,0.55964 1.25,1.25c0,0.69036 -0.55964,1.25 -1.25,1.25c-0.69036,0 -1.25,-0.55964 -1.25,-1.25z" stroke="none" stroke-width="0.5"/><path d="M244.40559,9.43864c0,-0.69036 0.55964,-1.25 1.25,-1.25c0.69036,0 1.25,0.55964 1.25,1.25c0,0.69036 -0.55964,1.25 -1.25,1.25c-0.69036,0 -1.25,-0.55964 -1.25,-1.25z" stroke="none" stroke-width="0.5"/><path d="M314.40556,75.43872c0,-0.69036 0.55964,-1.25 1.25,-1.25c0.69036,0 1.25,0.55964 1.25,1.25c0,0.69036 -0.55964,1.25 -1.25,1.25c-0.69036,0 -1.25,-0.55964 -1.25,-1.25z" stroke="none" stroke-width="0.5"/><path d="M429.4056,62.43872c0,-0.69036 0.55964,-1.25 1.25,-1.25c0.69036,0 1.25,0.55964 1.25,1.25c0,0.69036 -0.55964,1.25 -1.25,1.25c-0.69036,0 -1.25,-0.55964 -1.25,-1.25z" stroke="none" stroke-width="0.5"/><path d="M424.4056,158.43872c0,-0.69036 0.55964,-1.25 1.25,-1.25c0.69036,0 1.25,0.55964 1.25,1.25c0,0.69036 -0.55964,1.25 -1.25,1.25c-0.69036,0 -1.25,-0.55964 -1.25,-1.25z" stroke="none" stroke-width="0.5"/><path d="M307.40556,158.43872c0,-0.69036 0.55964,-1.25 1.25,-1.25c0.69036,0 1.25,0.55964 1.25,1.25c0,0.69036 -0.55964,1.25 -1.25,1.25c-0.69036,0 -1.25,-0.55964 -1.25,-1.25z" stroke="none" stroke-width="0.5"/><path d="M199.40559,158.43872c0,-0.69036 0.55964,-1.25 1.25,-1.25c0.69036,0 1.25,0.55964 1.25,1.25c0,0.69036 -0.55964,1.25 -1.25,1.25c-0.69036,0 -1.25,-0.55964 -1.25,-1.25z" stroke="none" stroke-width="0.5"/><path d="M90.40557,125.43858c0,-0.69036 0.55964,-1.25 1.25,-1.25c0.69036,0 1.25,0.55964 1.25,1.25c0,0.69036 -0.55964,1.25 -1.25,1.25c-0.69036,0 -1.25,-0.55964 -1.25,-1.25z" stroke="none" stroke-width="0.5"/><path d="M41.40552,177.43872c0,-0.69036 0.55964,-1.25 1.25,-1.25c0.69036,0 1.25,0.55964 1.25,1.25c0,0.69036 -0.55964,1.25 -1.25,1.25c-0.69036,0 -1.25,-0.55964 -1.25,-1.25z" stroke="none" stroke-width="0.5"/><path d="M29.40558,80.43872c0,-0.69036 0.55964,-1.25 1.25,-1.25c0.69036,0 1.25,0.55964 1.25,1.25c0,0.69036 -0.55964,1.25 -1.25,1.25c-0.69036,0 -1.25,-0.55964 -1.25,-1.25z" stroke="none" stroke-width="0.5"/><path d="M68.40551,2.43871c0,-0.69036 0.55964,-1.25 1.25,-1.25c0.69036,0 1.25,0.55964 1.25,1.25c0,0.69036 -0.55964,1.25 -1.25,1.25c-0.69036,0 -1.25,-0.55964 -1.25,-1.25z" stroke="none" stroke-width="0.5"/><path d="M165.40553,36.43871c0,-0.69036 0.55964,-1.25 1.25,-1.25c0.69036,0 1.25,0.55964 1.25,1.25c0,0.69036 -0.55964,1.25 -1.25,1.25c-0.69036,0 -1.25,-0.55964 -1.25,-1.25z" stroke="none" stroke-width="0.5"/><path d="M357.40561,54.43864c0,-0.69036 0.55964,-1.25 1.25,-1.25c0.69036,0 1.25,0.55964 1.25,1.25c0,0.69036 -0.55964,1.25 -1.25,1.25c-0.69036,0 -1.25,-0.55964 -1.25,-1.25z" stroke="none" stroke-width="0.5"/><path d="M299.40556,12.43865c0,-0.69036 0.55964,-1.25 1.25,-1.25c0.69036,0 1.25,0.55964 1.25,1.25c0,0.69036 -0.55964,1.25 -1.25,1.25c-0.69036,0 -1.25,-0.55964 -1.25,-1.25z" stroke="none" stroke-width="0.5"/><path d="M396.4056,28.43871c0,-0.69036 0.55964,-1.25 1.25,-1.25c0.69036,0 1.25,0.55964 1.25,1.25c0,0.69036 -0.55964,1.25 -1.25,1.25c-0.69036,0 -1.25,-0.55964 -1.25,-1.25z" stroke="none" stroke-width="0.5"/><path d="M379.4056,113.43858c0,-0.69036 0.55964,-1.25 1.25,-1.25c0.69036,0 1.25,0.55964 1.25,1.25c0,0.69036 -0.55964,1.25 -1.25,1.25c-0.69036,0 -1.25,-0.55964 -1.25,-1.25z" stroke="none" stroke-width="0.5"/><path d="M76.40551,159.43872c0,-0.69036 0.55964,-1.25 1.25,-1.25c0.69036,0 1.25,0.55964 1.25,1.25c0,0.69036 -0.55964,1.25 -1.25,1.25c-0.69036,0 -1.25,-0.55964 -1.25,-1.25z" stroke="none" stroke-width="0.5"/><path d="M52.40557,70.43872c0,-0.69036 0.55964,-1.25 1.25,-1.25c0.69036,0 1.25,0.55964 1.25,1.25c0,0.69036 -0.55964,1.25 -1.25,1.25c-0.69036,0 -1.25,-0.55964 -1.25,-1.25z" stroke="none" stroke-width="0.5"/><path d="M17.40558,142.43872c0,-0.69036 0.55964,-1.25 1.25,-1.25c0.69036,0 1.25,0.55964 1.25,1.25c0,0.69036 -0.55964,1.25 -1.25,1.25c-0.69036,0 -1.25,-0.55964 -1.25,-1.25z" stroke="none" stroke-width="0.5"/><path d="M271.40556,108.43858c0,-0.69036 0.55964,-1.25 1.25,-1.25c0.69036,0 1.25,0.55964 1.25,1.25c0,0.69036 -0.55964,1.25 -1.25,1.25c-0.69036,0 -1.25,-0.55964 -1.25,-1.25z" stroke="none" stroke-width="0.5"/><path d="M236.40559,50.43864c0,-0.69036 0.55964,-1.25 1.25,-1.25c0.69036,0 1.25,0.55964 1.25,1.25c0,0.69036 -0.55964,1.25 -1.25,1.25c-0.69036,0 -1.25,-0.55964 -1.25,-1.25z" stroke="none" stroke-width="0.5"/><path d="M456.4056,102.43858c0,-0.69036 0.55964,-1.25 1.25,-1.25c0.69036,0 1.25,0.55964 1.25,1.25c0,0.69036 -0.55964,1.25 -1.25,1.25c-0.69036,0 -1.25,-0.55964 -1.25,-1.25z" stroke="none" stroke-width="0.5"/><path d="M121.65557,102.43858c0,-1.10457 0.89543,-2 2,-2c1.10457,0 2,0.89543 2,2c0,1.10457 -0.89543,2 -2,2c-1.10457,0 -2,-0.89543 -2,-2z" stroke="none" stroke-width="0.5"/><path d="M28.65558,30.43871c0,-1.10457 0.89543,-2 2,-2c1.10457,0 2,0.89543 2,2c0,1.10457 -0.89543,2 -2,2c-1.10457,0 -2,-0.89543 -2,-2z" stroke="none" stroke-width="0.5"/><path d="M175.65559,98.43872c0,-1.10457 0.89543,-2 2,-2c1.10457,0 2,0.89543 2,2c0,1.10457 -0.89543,2 -2,2c-1.10457,0 -2,-0.89543 -2,-2z" stroke="none" stroke-width="0.5"/><path d="M226.65559,127.43858c0,-1.10457 0.89543,-2 2,-2c1.10457,0 2,0.89543 2,2c0,1.10457 -0.89543,2 -2,2c-1.10457,0 -2,-0.89543 -2,-2z" stroke="none" stroke-width="0.5"/><path d="M282.65556,69.43872c0,-1.10457 0.89543,-2 2,-2c1.10457,0 2,0.89543 2,2c0,1.10457 -0.89543,2 -2,2c-1.10457,0 -2,-0.89543 -2,-2z" stroke="none" stroke-width="0.5"/><path d="M220.65559,-3.56129c0,-1.10457 0.89543,-2 2,-2c1.10457,0 2,0.89543 2,2c0,1.10457 -0.89543,2 -2,2c-1.10457,0 -2,-0.89543 -2,-2z" stroke="none" stroke-width="0.5"/><path d="M198.65559,52.43864c0,-1.10457 0.89543,-2 2,-2c1.10457,0 2,0.89543 2,2c0,1.10457 -0.89543,2 -2,2c-1.10457,0 -2,-0.89543 -2,-2z" stroke="none" stroke-width="0.5"/><path d="M337.65556,130.43857c0,-1.10457 0.89543,-2 2,-2c1.10457,0 2,0.89543 2,2c0,1.10457 -0.89543,2 -2,2c-1.10457,0 -2,-0.89543 -2,-2z" stroke="none" stroke-width="0.5"/><path d="M390.6556,90.43872c0,-1.10457 0.89543,-2 2,-2c1.10457,0 2,0.89543 2,2c0,1.10457 -0.89543,2 -2,2c-1.10457,0 -2,-0.89543 -2,-2z" stroke="none" stroke-width="0.5"/><path d="M313.65556,42.43864c0,-1.10457 0.89543,-2 2,-2c1.10457,0 2,0.89543 2,2c0,1.10457 -0.89543,2 -2,2c-1.10457,0 -2,-0.89543 -2,-2z" stroke="none" stroke-width="0.5"/><path d="M462.6556,63.43872c0,-1.10457 0.89543,-2 2,-2c1.10457,0 2,0.89543 2,2c0,1.10457 -0.89543,2 -2,2c-1.10457,0 -2,-0.89543 -2,-2z" stroke="none" stroke-width="0.5"/><path d="M326.65556,99.43872c0,-1.10457 0.89543,-2 2,-2c1.10457,0 2,0.89543 2,2c0,1.10457 -0.89543,2 -2,2c-1.10457,0 -2,-0.89543 -2,-2z" stroke="none" stroke-width="0.5"/><path d="M384.6556,166.43872c0,-1.10457 0.89543,-2 2,-2c1.10457,0 2,0.89543 2,2c0,1.10457 -0.89543,2 -2,2c-1.10457,0 -2,-0.89543 -2,-2z" stroke="none" stroke-width="0.5"/><path d="M420.6556,122.43858c0,-1.10457 0.89543,-2 2,-2c1.10457,0 2,0.89543 2,2c0,1.10457 -0.89543,2 -2,2c-1.10457,0 -2,-0.89543 -2,-2z" stroke="none" stroke-width="0.5"/><path d="M465.6556,158.43872c0,-1.10457 0.89543,-2 2,-2c1.10457,0 2,0.89543 2,2c0,1.10457 -0.89543,2 -2,2c-1.10457,0 -2,-0.89543 -2,-2z" stroke="none" stroke-width="0.5"/><path d="M250.65559,169.43872c0,-1.10457 0.89543,-2 2,-2c1.10457,0 2,0.89543 2,2c0,1.10457 -0.89543,2 -2,2c-1.10457,0 -2,-0.89543 -2,-2z" stroke="none" stroke-width="0.5"/><path d="M65.65557,99.43872c0,-1.10457 0.89543,-2 2,-2c1.10457,0 2,0.89543 2,2c0,1.10457 -0.89543,2 -2,2c-1.10457,0 -2,-0.89543 -2,-2z" stroke="none" stroke-width="0.5"/><path d="M166.65553,174.43872c0,-1.10457 0.89543,-2 2,-2c1.10457,0 2,0.89543 2,2c0,1.10457 -0.89543,2 -2,2c-1.10457,0 -2,-0.89543 -2,-2z" stroke="none" stroke-width="0.5"/><path d="M177.65559,130.43857c0,-1.10457 0.89543,-2 2,-2c1.10457,0 2,0.89543 2,2c0,1.10457 -0.89543,2 -2,2c-1.10457,0 -2,-0.89543 -2,-2z" stroke="none" stroke-width="0.5"/><path d="M347.65561,174.43872c0,-1.10457 0.89543,-2 2,-2c1.10457,0 2,0.89543 2,2c0,1.10457 -0.89543,2 -2,2c-1.10457,0 -2,-0.89543 -2,-2z" stroke="none" stroke-width="0.5"/><path d="M103.65557,150.43872c0,-1.10457 0.89543,-2 2,-2c1.10457,0 2,0.89543 2,2c0,1.10457 -0.89543,2 -2,2c-1.10457,0 -2,-0.89543 -2,-2z" stroke="none" stroke-width="0.5"/><path d="M44.65556,145.43872c0,-1.10457 0.89543,-2 2,-2c1.10457,0 2,0.89543 2,2c0,1.10457 -0.89543,2 -2,2c-1.10457,0 -2,-0.89543 -2,-2z" stroke="none" stroke-width="0.5"/><path d="M13.65556,200.43872c0,-1.10457 0.89543,-2 2,-2c1.10457,0 2,0.89543 2,2c0,1.10457 -0.89543,2 -2,2c-1.10457,0 -2,-0.89543 -2,-2z" stroke="none" stroke-width="0.5"/><path d="M146.65553,16.4387c0,-1.10457 0.89543,-2 2,-2c1.10457,0 2,0.89543 2,2c0,1.10457 -0.89543,2 -2,2c-1.10457,0 -2,-0.89543 -2,-2z" stroke="none" stroke-width="0.5"/><path d="M221.65559,27.43871c0,-1.10457 0.89543,-2 2,-2c1.10457,0 2,0.89543 2,2c0,1.10457 -0.89543,2 -2,2c-1.10457,0 -2,-0.89543 -2,-2z" stroke="none" stroke-width="0.5"/><path d="M224.65559,94.43872c0,-1.10457 0.89543,-2 2,-2c1.10457,0 2,0.89543 2,2c0,1.10457 -0.89543,2 -2,2c-1.10457,0 -2,-0.89543 -2,-2z" stroke="none" stroke-width="0.5"/><path d="M115.65557,63.43872c0,-1.10457 0.89543,-2 2,-2c1.10457,0 2,0.89543 2,2c0,1.10457 -0.89543,2 -2,2c-1.10457,0 -2,-0.89543 -2,-2z" stroke="none" stroke-width="0.5"/><path d="M70.65551,52.43864c0,-1.10457 0.89543,-2 2,-2c1.10457,0 2,0.89543 2,2c0,1.10457 -0.89543,2 -2,2c-1.10457,0 -2,-0.89543 -2,-2z" stroke="none" stroke-width="0.5"/><path d="M12.65554,103.43858c0,-1.10457 0.89543,-2 2,-2c1.10457,0 2,0.89543 2,2c0,1.10457 -0.89543,2 -2,2c-1.10457,0 -2,-0.89543 -2,-2z" stroke="none" stroke-width="0.5"/><path d="M366.40561,30.43871c0,-0.69036 0.55964,-1.25 1.25,-1.25c0.69036,0 1.25,0.55964 1.25,1.25c0,0.69036 -0.55964,1.25 -1.25,1.25c-0.69036,0 -1.25,-0.55964 -1.25,-1.25z" stroke="none" stroke-width="0.5"/><path d="M-62.9533,25.63871c0,-1.24264 1.00736,-2.25 2.25,-2.25c1.24264,0 2.25,1.00736 2.25,2.25c0,1.24264 -1.00736,2.25 -2.25,2.25c-1.24264,0 -2.25,-1.00736 -2.25,-2.25z" stroke="none" stroke-width="0.5"/><path d="M-12.95329,6.63862c0,-1.24264 1.00736,-2.25 2.25,-2.25c1.24264,0 2.25,1.00736 2.25,2.25c0,1.24264 -1.00736,2.25 -2.25,2.25c-1.24264,0 -2.25,-1.00736 -2.25,-2.25z" stroke="none" stroke-width="0.5"/><path d="M-59.95329,85.63872c0,-1.24264 1.00736,-2.25 2.25,-2.25c1.24264,0 2.25,1.00736 2.25,2.25c0,1.24264 -1.00736,2.25 -2.25,2.25c-1.24264,0 -2.25,-1.00736 -2.25,-2.25z" stroke="none" stroke-width="0.5"/><path d="M-18.95329,119.63851c0,-1.24264 1.00736,-2.25 2.25,-2.25c1.24264,0 2.25,1.00736 2.25,2.25c0,1.24264 -1.00736,2.25 -2.25,2.25c-1.24264,0 -2.25,-1.00736 -2.25,-2.25z" stroke="none" stroke-width="0.5"/><path d="M-36.95334,171.63873c0,-1.24264 1.00736,-2.25 2.25,-2.25c1.24264,0 2.25,1.00736 2.25,2.25c0,1.24264 -1.00736,2.25 -2.25,2.25c-1.24264,0 -2.25,-1.00736 -2.25,-2.25z" stroke="none" stroke-width="0.5"/><path d="M-75.70337,134.38851c1.24264,0 2.25,1.00736 2.25,2.25c0,1.24264 -1.00736,2.25 -2.25,2.25c-0.92834,0 -1.72537,-0.56222 -2.06916,-1.36475c-0.00786,-0.57064 -0.01592,-1.14125 -0.02415,-1.71185c0.32946,-0.83365 1.14251,-1.4234 2.09331,-1.4234z" stroke="none" stroke-width="0.5"/><path d="M526.04671,1.63871c0,-1.24264 1.00736,-2.25 2.25,-2.25c1.24264,0 2.25,1.00736 2.25,2.25c0,1.24264 -1.00736,2.25 -2.25,2.25c-1.24264,0 -2.25,-1.00736 -2.25,-2.25z" stroke="none" stroke-width="0.5"/><path d="M-28.95329,63.63872c0,-1.24264 1.00736,-2.25 2.25,-2.25c1.24264,0 2.25,1.00736 2.25,2.25c0,1.24264 -1.00736,2.25 -2.25,2.25c-1.24264,0 -2.25,-1.00736 -2.25,-2.25z" stroke="none" stroke-width="0.5"/><path d="M-29.20329,35.63871c0,-0.27614 0.22386,-0.5 0.5,-0.5c0.27614,0 0.5,0.22386 0.5,0.5c0,0.27614 -0.22386,0.5 -0.5,0.5c-0.27614,0 -0.5,-0.22386 -0.5,-0.5z" stroke="none" stroke-width="0.5"/><path d="M496.79672,103.63851c0,-0.27614 0.22386,-0.5 0.5,-0.5c0.27614,0 0.5,0.22386 0.5,0.5c0,0.27614 -0.22386,0.5 -0.5,0.5c-0.27614,0 -0.5,-0.22386 -0.5,-0.5z" stroke="none" stroke-width="0.5"/><path d="M539.79671,97.63874c0,-0.27614 0.22386,-0.5 0.5,-0.5c0.27614,0 0.5,0.22386 0.5,0.5c0,0.27614 -0.22386,0.5 -0.5,0.5c-0.27614,0 -0.5,-0.22386 -0.5,-0.5z" stroke="none" stroke-width="0.5"/><path d="M540.79671,167.6387c0,-0.27614 0.22386,-0.5 0.5,-0.5c0.27614,0 0.5,0.22386 0.5,0.5c0,0.27614 -0.22386,0.5 -0.5,0.5c-0.27614,0 -0.5,-0.22386 -0.5,-0.5z" stroke="none" stroke-width="0.5"/><path d="M535.79671,44.63857c0,-0.27614 0.22386,-0.5 0.5,-0.5c0.27614,0 0.5,0.22386 0.5,0.5c0,0.27614 -0.22386,0.5 -0.5,0.5c-0.27614,0 -0.5,-0.22386 -0.5,-0.5z" stroke="none" stroke-width="0.5"/><path d="M496.79672,25.63871c0,-0.27614 0.22386,-0.5 0.5,-0.5c0.27614,0 0.5,0.22386 0.5,0.5c0,0.27614 -0.22386,0.5 -0.5,0.5c-0.27614,0 -0.5,-0.22386 -0.5,-0.5z" stroke="none" stroke-width="0.5"/><path d="M10.79671,57.63872c0,-0.27614 0.22386,-0.5 0.5,-0.5c0.27614,0 0.5,0.22386 0.5,0.5c0,0.27614 -0.22386,0.5 -0.5,0.5c-0.27614,0 -0.5,-0.22386 -0.5,-0.5z" stroke="none" stroke-width="0.5"/><path d="M-30.20331,95.63873c0,-0.27614 0.22386,-0.5 0.5,-0.5c0.27614,0 0.5,0.22386 0.5,0.5c0,0.27614 -0.22386,0.5 -0.5,0.5c-0.27614,0 -0.5,-0.22386 -0.5,-0.5z" stroke="none" stroke-width="0.5"/><path d="M3.79671,123.63851c0,-0.27614 0.22386,-0.5 0.5,-0.5c0.27614,0 0.5,0.22386 0.5,0.5c0,0.27614 -0.22386,0.5 -0.5,0.5c-0.27614,0 -0.5,-0.22386 -0.5,-0.5z" stroke="none" stroke-width="0.5"/><path d="M-7.20329,182.63873c0,-0.27614 0.22386,-0.5 0.5,-0.5c0.27614,0 0.5,0.22386 0.5,0.5c0,0.27614 -0.22386,0.5 -0.5,0.5c-0.27614,0 -0.5,-0.22386 -0.5,-0.5z" stroke="none" stroke-width="0.5"/><path d="M-74.20333,212.63873c0,-0.27614 0.22386,-0.5 0.5,-0.5c0.27614,0 0.5,0.22386 0.5,0.5c0,0.27614 -0.22386,0.5 -0.5,0.5c-0.27614,0 -0.5,-0.22386 -0.5,-0.5z" stroke="none" stroke-width="0.5"/><path d="M-37.20334,139.6386c0,-0.27614 0.22386,-0.5 0.5,-0.5c0.27614,0 0.5,0.22386 0.5,0.5c0,0.27614 -0.22386,0.5 -0.5,0.5c-0.27614,0 -0.5,-0.22386 -0.5,-0.5z" stroke="none" stroke-width="0.5"/><path d="M-64.20333,52.63857c0,-0.27614 0.22386,-0.5 0.5,-0.5c0.27614,0 0.5,0.22386 0.5,0.5c0,0.27614 -0.22386,0.5 -0.5,0.5c-0.27614,0 -0.5,-0.22386 -0.5,-0.5z" stroke="none" stroke-width="0.5"/><path d="M-62.2033,-3.36129c0,-0.27614 0.22386,-0.5 0.5,-0.5c0.27614,0 0.5,0.22386 0.5,0.5c0,0.27614 -0.22386,0.5 -0.5,0.5c-0.27614,0 -0.5,-0.22386 -0.5,-0.5z" stroke="none" stroke-width="0.5"/><path d="" stroke="none" stroke-width="0.5"/><path d="" stroke="none" stroke-width="0.5"/><path d="" data-paper-data="{&quot;origPos&quot;:null}" stroke="none" stroke-width="1"/><path d="" data-paper-data="{&quot;origPos&quot;:null}" stroke="none" stroke-width="1"/><path d="" stroke="none" stroke-width="0.5"/><path d="" stroke="none" stroke-width="0.5"/><path d="" stroke="none" stroke-width="0.5"/><path d="" stroke="none" stroke-width="0.5"/><path d="" stroke="none" stroke-width="0.5"/><path d="" data-paper-data="{&quot;origPos&quot;:null}" stroke="none" stroke-width="1.28528"/><path d="" data-paper-data="{&quot;origPos&quot;:null}" stroke="url(#color-13)" stroke-width="2.70748"/><path d="" data-paper-data="{&quot;origPos&quot;:null}" stroke="url(#color-14)" stroke-width="2.70748"/><path d="" stroke="none" stroke-width="0.5"/><path d="" stroke="none" stroke-width="0.5"/><path d="" stroke="none" stroke-width="0.5"/><path d="" stroke="none" stroke-width="0.5"/><path d="" stroke="none" stroke-width="0.5"/><path d="" stroke="none" stroke-width="0.5"/><path d="" stroke="none" stroke-width="0.5"/><path d="" stroke="none" stroke-width="0.5"/><path d="" stroke="none" stroke-width="0.5"/><path d="" stroke="none" stroke-width="0.5"/><path d="" stroke="none" stroke-width="0.5"/><path d="" stroke="none" stroke-width="0.5"/><path d="" stroke="none" stroke-width="0.5"/><path d="" stroke="none" stroke-width="0.5"/><path d="" stroke="none" stroke-width="0.5"/><path d="M-41.04665,226.36155c0,1.24264 -1.00736,2.25 -2.25,2.25c-1.24264,0 -2.25,-1.00736 -2.25,-2.25c0,-1.24264 1.00736,-2.25 2.25,-2.25c1.24264,0 2.25,1.00736 2.25,2.25z" stroke="none" stroke-width="0.5"/><path d="M-25.04666,297.36134c0,1.24264 -1.00736,2.25 -2.25,2.25c-1.24264,0 -2.25,-1.00736 -2.25,-2.25c0,-1.24264 1.00736,-2.25 2.25,-2.25c1.24264,0 2.25,1.00736 2.25,2.25z" stroke="none" stroke-width="0.5"/><path d="M411.84452,335.56134c0,0.27614 -0.22386,0.5 -0.5,0.5c-0.27614,0 -0.5,-0.22386 -0.5,-0.5c0,-0.27614 0.22386,-0.5 0.5,-0.5c0.27614,0 0.5,0.22386 0.5,0.5z" stroke="none" stroke-width="0.5"/><path d="M336.84451,288.56131c0,0.27614 -0.22386,0.5 -0.5,0.5c-0.27614,0 -0.5,-0.22386 -0.5,-0.5c0,-0.27614 0.22386,-0.5 0.5,-0.5c0.27614,0 0.5,0.22386 0.5,0.5z" stroke="none" stroke-width="0.5"/><path d="M384.84449,280.56131c0,0.27614 -0.22386,0.5 -0.5,0.5c-0.27614,0 -0.5,-0.22386 -0.5,-0.5c0,-0.27614 0.22386,-0.5 0.5,-0.5c0.27614,0 0.5,0.22386 0.5,0.5z" stroke="none" stroke-width="0.5"/><path d="M280.84447,346.56141c0,0.27614 -0.22386,0.5 -0.5,0.5c-0.27614,0 -0.5,-0.22386 -0.5,-0.5c0,-0.27614 0.22386,-0.5 0.5,-0.5c0.27614,0 0.5,0.22386 0.5,0.5z" stroke="none" stroke-width="0.5"/><path d="M363.84449,353.56141c0,0.27614 -0.22386,0.5 -0.5,0.5c-0.27614,0 -0.5,-0.22386 -0.5,-0.5c0,-0.27614 0.22386,-0.5 0.5,-0.5c0.27614,0 0.5,0.22386 0.5,0.5z" stroke="none" stroke-width="0.5"/><path d="M235.84447,277.56131c0,0.27614 -0.22386,0.5 -0.5,0.5c-0.27614,0 -0.5,-0.22386 -0.5,-0.5c0,-0.27614 0.22386,-0.5 0.5,-0.5c0.27614,0 0.5,0.22386 0.5,0.5z" stroke="none" stroke-width="0.5"/><path d="M273.84447,247.56148c0,0.27614 -0.22386,0.5 -0.5,0.5c-0.27614,0 -0.5,-0.22386 -0.5,-0.5c0,-0.27614 0.22386,-0.5 0.5,-0.5c0.27614,0 0.5,0.22386 0.5,0.5z" stroke="none" stroke-width="0.5"/><path d="M172.8445,241.56148c0,0.27614 -0.22386,0.5 -0.5,0.5c-0.27614,0 -0.5,-0.22386 -0.5,-0.5c0,-0.27614 0.22386,-0.5 0.5,-0.5c0.27614,0 0.5,0.22386 0.5,0.5z" stroke="none" stroke-width="0.5"/><path d="M203.8445,328.56131c0,0.27614 -0.22386,0.5 -0.5,0.5c-0.27614,0 -0.5,-0.22386 -0.5,-0.5c0,-0.27614 0.22386,-0.5 0.5,-0.5c0.27614,0 0.5,0.22386 0.5,0.5z" stroke="none" stroke-width="0.5"/><path d="M135.84445,340.56134c0,0.27614 -0.22386,0.5 -0.5,0.5c-0.27614,0 -0.5,-0.22386 -0.5,-0.5c0,-0.27614 0.22386,-0.5 0.5,-0.5c0.27614,0 0.5,0.22386 0.5,0.5z" stroke="none" stroke-width="0.5"/><path d="M99.84446,299.56131c0,0.27614 -0.22386,0.5 -0.5,0.5c-0.27614,0 -0.5,-0.22386 -0.5,-0.5c0,-0.27614 0.22386,-0.5 0.5,-0.5c0.27614,0 0.5,0.22386 0.5,0.5z" stroke="none" stroke-width="0.5"/><path d="M109.84445,214.5613c0,0.27614 -0.22386,0.5 -0.5,0.5c-0.27614,0 -0.5,-0.22386 -0.5,-0.5c0,-0.27614 0.22386,-0.5 0.5,-0.5c0.27614,0 0.5,0.22386 0.5,0.5z" stroke="none" stroke-width="0.5"/><path d="M13.84446,232.56148c0,0.27614 -0.22386,0.5 -0.5,0.5c-0.27614,0 -0.5,-0.22386 -0.5,-0.5c0,-0.27614 0.22386,-0.5 0.5,-0.5c0.27614,0 0.5,0.22386 0.5,0.5z" stroke="none" stroke-width="0.5"/><path d="M55.84446,260.56131c0,0.27614 -0.22386,0.5 -0.5,0.5c-0.27614,0 -0.5,-0.22386 -0.5,-0.5c0,-0.27614 0.22386,-0.5 0.5,-0.5c0.27614,0 0.5,0.22386 0.5,0.5z" stroke="none" stroke-width="0.5"/><path d="M17.84446,324.56131c0,0.27614 -0.22386,0.5 -0.5,0.5c-0.27614,0 -0.5,-0.22386 -0.5,-0.5c0,-0.27614 0.22386,-0.5 0.5,-0.5c0.27614,0 0.5,0.22386 0.5,0.5z" stroke="none" stroke-width="0.5"/><path d="M380.84449,179.5613c0,0.27614 -0.22386,0.5 -0.5,0.5c-0.27614,0 -0.5,-0.22386 -0.5,-0.5c0,-0.27614 0.22386,-0.5 0.5,-0.5c0.27614,0 0.5,0.22386 0.5,0.5z" stroke="none" stroke-width="0.5"/><path d="M432.84448,239.56148c0,0.27614 -0.22386,0.5 -0.5,0.5c-0.27614,0 -0.5,-0.22386 -0.5,-0.5c0,-0.27614 0.22386,-0.5 0.5,-0.5c0.27614,0 0.5,0.22386 0.5,0.5z" stroke="none" stroke-width="0.5"/><path d="M455.84448,359.56134c0,0.27614 -0.22386,0.5 -0.5,0.5c-0.27614,0 -0.5,-0.22386 -0.5,-0.5c0,-0.27614 0.22386,-0.5 0.5,-0.5c0.27614,0 0.5,0.22386 0.5,0.5z" stroke="none" stroke-width="0.5"/><path d="M347.84451,203.5613c0,0.27614 -0.22386,0.5 -0.5,0.5c-0.27614,0 -0.5,-0.22386 -0.5,-0.5c0,-0.27614 0.22386,-0.5 0.5,-0.5c0.27614,0 0.5,0.22386 0.5,0.5z" stroke="none" stroke-width="0.5"/><path d="M217.8445,220.56148c0,0.27614 -0.22386,0.5 -0.5,0.5c-0.27614,0 -0.5,-0.22386 -0.5,-0.5c0,-0.27614 0.22386,-0.5 0.5,-0.5c0.27614,0 0.5,0.22386 0.5,0.5z" stroke="none" stroke-width="0.5"/><path d="M335.34451,241.06148c0.5,0 0.5,0.5 0.5,0.5c0,0.16666 0,0.83334 0,1c0,0 0,0.5 -0.5,0.5c-0.5,0 -0.5,-0.5 -0.5,-0.5c0,-0.16666 0,-0.33334 0,-0.5v-0.5c0,0 0,-0.5 0.5,-0.5z" stroke="none" stroke-width="0.5"/><path d="M123.84445,260.56131c0,0.27614 -0.22386,0.5 -0.5,0.5c-0.27614,0 -0.5,-0.22386 -0.5,-0.5c0,-0.27614 0.22386,-0.5 0.5,-0.5c0.27614,0 0.5,0.22386 0.5,0.5z" stroke="none" stroke-width="0.5"/><path d="M373.59449,321.5614c0,0.69036 -0.55964,1.25 -1.25,1.25c-0.69036,0 -1.25,-0.55964 -1.25,-1.25c0,-0.69036 0.55964,-1.25 1.25,-1.25c0.69036,0 1.25,0.55964 1.25,1.25z" stroke="none" stroke-width="0.5"/><path d="M284.59447,279.56131c0,0.69036 -0.55964,1.25 -1.25,1.25c-0.69036,0 -1.25,-0.55964 -1.25,-1.25c0,-0.69036 0.55964,-1.25 1.25,-1.25c0.69036,0 1.25,0.55964 1.25,1.25z" stroke="none" stroke-width="0.5"/><path d="M235.59447,350.56141c0,0.69036 -0.55964,1.25 -1.25,1.25c-0.69036,0 -1.25,-0.55964 -1.25,-1.25c0,-0.69036 0.55964,-1.25 1.25,-1.25c0.69036,0 1.25,0.55964 1.25,1.25z" stroke="none" stroke-width="0.5"/><path d="M165.59447,284.56131c0,0.69036 -0.55964,1.25 -1.25,1.25c-0.69036,0 -1.25,-0.55964 -1.25,-1.25c0,-0.69036 0.55964,-1.25 1.25,-1.25c0.69036,0 1.25,0.55964 1.25,1.25z" stroke="none" stroke-width="0.5"/><path d="M50.59446,297.56131c0,0.69036 -0.55964,1.25 -1.25,1.25c-0.69036,0 -1.25,-0.55964 -1.25,-1.25c0,-0.69036 0.55964,-1.25 1.25,-1.25c0.69036,0 1.25,0.55964 1.25,1.25z" stroke="none" stroke-width="0.5"/><path d="M55.59446,201.56134c0,0.69036 -0.55964,1.25 -1.25,1.25c-0.69036,0 -1.25,-0.55964 -1.25,-1.25c0,-0.69036 0.55964,-1.25 1.25,-1.25c0.69036,0 1.25,0.55964 1.25,1.25z" stroke="none" stroke-width="0.5"/><path d="M172.5945,201.56134c0,0.69036 -0.55964,1.25 -1.25,1.25c-0.69036,0 -1.25,-0.55964 -1.25,-1.25c0,-0.69036 0.55964,-1.25 1.25,-1.25c0.69036,0 1.25,0.55964 1.25,1.25z" stroke="none" stroke-width="0.5"/><path d="M280.59447,201.56134c0,0.69036 -0.55964,1.25 -1.25,1.25c-0.69036,0 -1.25,-0.55964 -1.25,-1.25c0,-0.69036 0.55964,-1.25 1.25,-1.25c0.69036,0 1.25,0.55964 1.25,1.25z" stroke="none" stroke-width="0.5"/><path d="M389.59449,234.56148c0,0.69036 -0.55964,1.25 -1.25,1.25c-0.69036,0 -1.25,-0.55964 -1.25,-1.25c0,-0.69036 0.55964,-1.25 1.25,-1.25c0.69036,0 1.25,0.55964 1.25,1.25z" stroke="none" stroke-width="0.5"/><path d="M438.59451,182.56134c0,0.69036 -0.55964,1.25 -1.25,1.25c-0.69036,0 -1.25,-0.55964 -1.25,-1.25c0,-0.69036 0.55964,-1.25 1.25,-1.25c0.69036,0 1.25,0.55964 1.25,1.25z" stroke="none" stroke-width="0.5"/><path d="M450.59448,279.56131c0,0.69036 -0.55964,1.25 -1.25,1.25c-0.69036,0 -1.25,-0.55964 -1.25,-1.25c0,-0.69036 0.55964,-1.25 1.25,-1.25c0.69036,0 1.25,0.55964 1.25,1.25z" stroke="none" stroke-width="0.5"/><path d="M411.59452,357.56135c0,0.69036 -0.55964,1.25 -1.25,1.25c-0.69036,0 -1.25,-0.55964 -1.25,-1.25c0,-0.69036 0.55964,-1.25 1.25,-1.25c0.69036,0 1.25,0.55964 1.25,1.25z" stroke="none" stroke-width="0.5"/><path d="M314.59451,323.56135c0,0.69036 -0.55964,1.25 -1.25,1.25c-0.69036,0 -1.25,-0.55964 -1.25,-1.25c0,-0.69036 0.55964,-1.25 1.25,-1.25c0.69036,0 1.25,0.55964 1.25,1.25z" stroke="none" stroke-width="0.5"/><path d="M122.59445,305.5614c0,0.69036 -0.55964,1.25 -1.25,1.25c-0.69036,0 -1.25,-0.55964 -1.25,-1.25c0,-0.69036 0.55964,-1.25 1.25,-1.25c0.69036,0 1.25,0.55964 1.25,1.25z" stroke="none" stroke-width="0.5"/><path d="M180.5945,347.56141c0,0.69036 -0.55964,1.25 -1.25,1.25c-0.69036,0 -1.25,-0.55964 -1.25,-1.25c0,-0.69036 0.55964,-1.25 1.25,-1.25c0.69036,0 1.25,0.55964 1.25,1.25z" stroke="none" stroke-width="0.5"/><path d="M83.59444,331.56135c0,0.69036 -0.55964,1.25 -1.25,1.25c-0.69036,0 -1.25,-0.55964 -1.25,-1.25c0,-0.69036 0.55964,-1.25 1.25,-1.25c0.69036,0 1.25,0.55964 1.25,1.25z" stroke="none" stroke-width="0.5"/><path d="M100.59446,246.56148c0,0.69036 -0.55964,1.25 -1.25,1.25c-0.69036,0 -1.25,-0.55964 -1.25,-1.25c0,-0.69036 0.55964,-1.25 1.25,-1.25c0.69036,0 1.25,0.55964 1.25,1.25z" stroke="none" stroke-width="0.5"/><path d="M26.59446,173.56134c0,0.69036 -0.55964,1.25 -1.25,1.25c-0.69036,0 -1.25,-0.55964 -1.25,-1.25c0,-0.69036 0.55964,-1.25 1.25,-1.25c0.69036,0 1.25,0.55964 1.25,1.25z" stroke="none" stroke-width="0.5"/><path d="M403.59452,200.56134c0,0.69036 -0.55964,1.25 -1.25,1.25c-0.69036,0 -1.25,-0.55964 -1.25,-1.25c0,-0.69036 0.55964,-1.25 1.25,-1.25c0.69036,0 1.25,0.55964 1.25,1.25z" stroke="none" stroke-width="0.5"/><path d="M427.59449,289.56131c0,0.69036 -0.55964,1.25 -1.25,1.25c-0.69036,0 -1.25,-0.55964 -1.25,-1.25c0,-0.69036 0.55964,-1.25 1.25,-1.25c0.69036,0 1.25,0.55964 1.25,1.25z" stroke="none" stroke-width="0.5"/><path d="M462.59448,217.56134c0,0.69036 -0.55964,1.25 -1.25,1.25c-0.69036,0 -1.25,-0.55964 -1.25,-1.25c0,-0.69036 0.55964,-1.25 1.25,-1.25c0.69036,0 1.25,0.55964 1.25,1.25z" stroke="none" stroke-width="0.5"/><path d="M208.5945,251.56148c0,0.69036 -0.55964,1.25 -1.25,1.25c-0.69036,0 -1.25,-0.55964 -1.25,-1.25c0,-0.69036 0.55964,-1.25 1.25,-1.25c0.69036,0 1.25,0.55964 1.25,1.25z" stroke="none" stroke-width="0.5"/><path d="M243.59447,309.5614c0,0.69036 -0.55964,1.25 -1.25,1.25c-0.69036,0 -1.25,-0.55964 -1.25,-1.25c0,-0.69036 0.55964,-1.25 1.25,-1.25c0.69036,0 1.25,0.55964 1.25,1.25z" stroke="none" stroke-width="0.5"/><path d="M23.59446,257.56147c0,0.69036 -0.55964,1.25 -1.25,1.25c-0.69036,0 -1.25,-0.55964 -1.25,-1.25c0,-0.69036 0.55964,-1.25 1.25,-1.25c0.69036,0 1.25,0.55964 1.25,1.25z" stroke="none" stroke-width="0.5"/><path d="M358.34449,257.56147c0,1.10457 -0.89543,2 -2,2c-1.10457,0 -2,-0.89543 -2,-2c0,-1.10457 0.89543,-2 2,-2c1.10457,0 2,0.89543 2,2z" stroke="none" stroke-width="0.5"/><path d="M451.34448,329.56135c0,1.10457 -0.89543,2 -2,2c-1.10457,0 -2,-0.89543 -2,-2c0,-1.10457 0.89543,-2 2,-2c1.10457,0 2,0.89543 2,2z" stroke="none" stroke-width="0.5"/><path d="M304.34447,261.56131c0,1.10457 -0.89543,2 -2,2c-1.10457,0 -2,-0.89543 -2,-2c0,-1.10457 0.89543,-2 2,-2c1.10457,0 2,0.89543 2,2z" stroke="none" stroke-width="0.5"/><path d="M253.34447,232.56148c0,1.10457 -0.89543,2 -2,2c-1.10457,0 -2,-0.89543 -2,-2c0,-1.10457 0.89543,-2 2,-2c1.10457,0 2,0.89543 2,2z" stroke="none" stroke-width="0.5"/><path d="M197.3445,290.56131c0,1.10457 -0.89543,2 -2,2c-1.10457,0 -2,-0.89543 -2,-2c0,-1.10457 0.89543,-2 2,-2c1.10457,0 2,0.89543 2,2z" stroke="none" stroke-width="0.5"/><path d="M281.34447,307.5614c0,1.10457 -0.89543,2 -2,2c-1.10457,0 -2,-0.89543 -2,-2c0,-1.10457 0.89543,-2 2,-2c1.10457,0 2,0.89543 2,2z" stroke="none" stroke-width="0.5"/><path d="M142.34447,229.56148c0,1.10457 -0.89543,2 -2,2c-1.10457,0 -2,-0.89543 -2,-2c0,-1.10457 0.89543,-2 2,-2c1.10457,0 2,0.89543 2,2z" stroke="none" stroke-width="0.5"/><path d="M89.34446,269.56131c0,1.10457 -0.89543,2 -2,2c-1.10457,0 -2,-0.89543 -2,-2c0,-1.10457 0.89543,-2 2,-2c1.10457,0 2,0.89543 2,2z" stroke="none" stroke-width="0.5"/><path d="M166.34447,317.5614c0,1.10457 -0.89543,2 -2,2c-1.10457,0 -2,-0.89543 -2,-2c0,-1.10457 0.89543,-2 2,-2c1.10457,0 2,0.89543 2,2z" stroke="none" stroke-width="0.5"/><path d="M17.34446,296.56131c0,1.10457 -0.89543,2 -2,2c-1.10457,0 -2,-0.89543 -2,-2c0,-1.10457 0.89543,-2 2,-2c1.10457,0 2,0.89543 2,2z" stroke="none" stroke-width="0.5"/><path d="M153.34447,260.56131c0,1.10457 -0.89543,2 -2,2c-1.10457,0 -2,-0.89543 -2,-2c0,-1.10457 0.89543,-2 2,-2c1.10457,0 2,0.89543 2,2z" stroke="none" stroke-width="0.5"/><path d="M95.34446,193.56134c0,1.10457 -0.89543,2 -2,2c-1.10457,0 -2,-0.89543 -2,-2c0,-1.10457 0.89543,-2 2,-2c1.10457,0 2,0.89543 2,2z" stroke="none" stroke-width="0.5"/><path d="M59.34446,237.56148c0,1.10457 -0.89543,2 -2,2c-1.10457,0 -2,-0.89543 -2,-2c0,-1.10457 0.89543,-2 2,-2c1.10457,0 2,0.89543 2,2z" stroke="none" stroke-width="0.5"/><path d="M229.34447,190.56134c0,1.10457 -0.89543,2 -2,2c-1.10457,0 -2,-0.89543 -2,-2c0,-1.10457 0.89543,-2 2,-2c1.10457,0 2,0.89543 2,2z" stroke="none" stroke-width="0.5"/><path d="M414.34449,260.56131c0,1.10457 -0.89543,2 -2,2c-1.10457,0 -2,-0.89543 -2,-2c0,-1.10457 0.89543,-2 2,-2c1.10457,0 2,0.89543 2,2z" stroke="none" stroke-width="0.5"/><path d="M313.34451,185.56134c0,1.10457 -0.89543,2 -2,2c-1.10457,0 -2,-0.89543 -2,-2c0,-1.10457 0.89543,-2 2,-2c1.10457,0 2,0.89543 2,2z" stroke="none" stroke-width="0.5"/><path d="M302.34447,229.56148c0,1.10457 -0.89543,2 -2,2c-1.10457,0 -2,-0.89543 -2,-2c0,-1.10457 0.89543,-2 2,-2c1.10457,0 2,0.89543 2,2z" stroke="none" stroke-width="0.5"/><path d="M132.34445,185.56134c0,1.10457 -0.89543,2 -2,2c-1.10457,0 -2,-0.89543 -2,-2c0,-1.10457 0.89543,-2 2,-2c1.10457,0 2,0.89543 2,2z" stroke="none" stroke-width="0.5"/><path d="M376.34449,209.56134c0,1.10457 -0.89543,2 -2,2c-1.10457,0 -2,-0.89543 -2,-2c0,-1.10457 0.89543,-2 2,-2c1.10457,0 2,0.89543 2,2z" stroke="none" stroke-width="0.5"/><path d="M435.3445,214.56134c0,1.10457 -0.89543,2 -2,2c-1.10457,0 -2,-0.89543 -2,-2c0,-1.10457 0.89543,-2 2,-2c1.10457,0 2,0.89543 2,2z" stroke="none" stroke-width="0.5"/><path d="M333.34451,343.56135c0,1.10457 -0.89543,2 -2,2c-1.10457,0 -2,-0.89543 -2,-2c0,-1.10457 0.89543,-2 2,-2c1.10457,0 2,0.89543 2,2z" stroke="none" stroke-width="0.5"/><path d="M258.34447,332.56135c0,1.10457 -0.89543,2 -2,2c-1.10457,0 -2,-0.89543 -2,-2c0,-1.10457 0.89543,-2 2,-2c1.10457,0 2,0.89543 2,2z" stroke="none" stroke-width="0.5"/><path d="M255.34447,265.56131c0,1.10457 -0.89543,2 -2,2c-1.10457,0 -2,-0.89543 -2,-2c0,-1.10457 0.89543,-2 2,-2c1.10457,0 2,0.89543 2,2z" stroke="none" stroke-width="0.5"/><path d="M364.34449,296.56131c0,1.10457 -0.89543,2 -2,2c-1.10457,0 -2,-0.89543 -2,-2c0,-1.10457 0.89543,-2 2,-2c1.10457,0 2,0.89543 2,2z" stroke="none" stroke-width="0.5"/><path d="M409.34452,307.5614c0,1.10457 -0.89543,2 -2,2c-1.10457,0 -2,-0.89543 -2,-2c0,-1.10457 0.89543,-2 2,-2c1.10457,0 2,0.89543 2,2z" stroke="none" stroke-width="0.5"/><path d="M467.34452,256.56147c0,1.10457 -0.89543,2 -2,2c-1.10457,0 -2,-0.89543 -2,-2c0,-1.10457 0.89543,-2 2,-2c1.10457,0 2,0.89543 2,2z" stroke="none" stroke-width="0.5"/><path d="M113.59445,329.56135c0,0.69036 -0.55964,1.25 -1.25,1.25c-0.69036,0 -1.25,-0.55964 -1.25,-1.25c0,-0.69036 0.55964,-1.25 1.25,-1.25c0.69036,0 1.25,0.55964 1.25,1.25z" stroke="none" stroke-width="0.5"/><path d="M542.95336,334.36134c0,1.24264 -1.00736,2.25 -2.25,2.25c-1.24264,0 -2.25,-1.00736 -2.25,-2.25c0,-1.24264 1.00736,-2.25 2.25,-2.25c1.24264,0 2.25,1.00736 2.25,2.25z" stroke="none" stroke-width="0.5"/><path d="M492.95335,353.36144c0,1.24264 -1.00736,2.25 -2.25,2.25c-1.24264,0 -2.25,-1.00736 -2.25,-2.25c0,-1.24264 1.00736,-2.25 2.25,-2.25c1.24264,0 2.25,1.00736 2.25,2.25z" stroke="none" stroke-width="0.5"/><path d="M539.95332,274.36134c0,1.24264 -1.00736,2.25 -2.25,2.25c-1.24264,0 -2.25,-1.00736 -2.25,-2.25c0,-1.24264 1.00736,-2.25 2.25,-2.25c1.24264,0 2.25,1.00736 2.25,2.25z" stroke="none" stroke-width="0.5"/><path d="M498.95335,240.36155c0,1.24264 -1.00736,2.25 -2.25,2.25c-1.24264,0 -2.25,-1.00736 -2.25,-2.25c0,-1.24264 1.00736,-2.25 2.25,-2.25c1.24264,0 2.25,1.00736 2.25,2.25z" stroke="none" stroke-width="0.5"/><path d="M555.7034,225.61155c-1.24264,0 -2.25,-1.00736 -2.25,-2.25c0,-1.24264 1.00736,-2.25 2.25,-2.25c0.92834,0 1.72537,0.56222 2.06916,1.36475c0.00786,0.57064 0.01592,1.14125 0.02415,1.71185c-0.32946,0.83365 -1.14251,1.4234 -2.09331,1.4234z" stroke="none" stroke-width="0.5"/><path d="M-46.04665,358.36135c0,1.24264 -1.00736,2.25 -2.25,2.25c-1.24264,0 -2.25,-1.00736 -2.25,-2.25c0,-1.24264 1.00736,-2.25 2.25,-2.25c1.24264,0 2.25,1.00736 2.25,2.25z" stroke="none" stroke-width="0.5"/><path d="M508.95335,296.36134c0,1.24264 -1.00736,2.25 -2.25,2.25c-1.24264,0 -2.25,-1.00736 -2.25,-2.25c0,-1.24264 1.00736,-2.25 2.25,-2.25c1.24264,0 2.25,1.00736 2.25,2.25z" stroke="none" stroke-width="0.5"/><path d="M509.20335,324.36134c0,0.27614 -0.22386,0.5 -0.5,0.5c-0.27614,0 -0.5,-0.22386 -0.5,-0.5c0,-0.27614 0.22386,-0.5 0.5,-0.5c0.27614,0 0.5,0.22386 0.5,0.5z" stroke="none" stroke-width="0.5"/><path d="M-16.79666,256.36152c0,0.27614 -0.22386,0.5 -0.5,0.5c-0.27614,0 -0.5,-0.22386 -0.5,-0.5c0,-0.27614 0.22386,-0.5 0.5,-0.5c0.27614,0 0.5,0.22386 0.5,0.5z" stroke="none" stroke-width="0.5"/><path d="M-59.79665,262.36132c0,0.27614 -0.22386,0.5 -0.5,0.5c-0.27614,0 -0.5,-0.22386 -0.5,-0.5c0,-0.27614 0.22386,-0.5 0.5,-0.5c0.27614,0 0.5,0.22386 0.5,0.5z" stroke="none" stroke-width="0.5"/><path d="M-60.79665,192.36133c0,0.27614 -0.22386,0.5 -0.5,0.5c-0.27614,0 -0.5,-0.22386 -0.5,-0.5c0,-0.27614 0.22386,-0.5 0.5,-0.5c0.27614,0 0.5,0.22386 0.5,0.5z" stroke="none" stroke-width="0.5"/><path d="M-55.79665,315.36149c0,0.27614 -0.22386,0.5 -0.5,0.5c-0.27614,0 -0.5,-0.22386 -0.5,-0.5c0,-0.27614 0.22386,-0.5 0.5,-0.5c0.27614,0 0.5,0.22386 0.5,0.5z" stroke="none" stroke-width="0.5"/><path d="M-16.79666,334.36134c0,0.27614 -0.22386,0.5 -0.5,0.5c-0.27614,0 -0.5,-0.22386 -0.5,-0.5c0,-0.27614 0.22386,-0.5 0.5,-0.5c0.27614,0 0.5,0.22386 0.5,0.5z" stroke="none" stroke-width="0.5"/><path d="M469.20335,302.36134c0,0.27614 -0.22386,0.5 -0.5,0.5c-0.27614,0 -0.5,-0.22386 -0.5,-0.5c0,-0.27614 0.22386,-0.5 0.5,-0.5c0.27614,0 0.5,0.22386 0.5,0.5z" stroke="none" stroke-width="0.5"/><path d="M510.20337,264.36133c0,0.27614 -0.22386,0.5 -0.5,0.5c-0.27614,0 -0.5,-0.22386 -0.5,-0.5c0,-0.27614 0.22386,-0.5 0.5,-0.5c0.27614,0 0.5,0.22386 0.5,0.5z" stroke="none" stroke-width="0.5"/><path d="M476.20335,236.36155c0,0.27614 -0.22386,0.5 -0.5,0.5c-0.27614,0 -0.5,-0.22386 -0.5,-0.5c0,-0.27614 0.22386,-0.5 0.5,-0.5c0.27614,0 0.5,0.22386 0.5,0.5z" stroke="none" stroke-width="0.5"/><path d="M487.20335,177.36133c0,0.27614 -0.22386,0.5 -0.5,0.5c-0.27614,0 -0.5,-0.22386 -0.5,-0.5c0,-0.27614 0.22386,-0.5 0.5,-0.5c0.27614,0 0.5,0.22386 0.5,0.5z" stroke="none" stroke-width="0.5"/><path d="M554.20336,147.3613c0,0.27614 -0.22386,0.5 -0.5,0.5c-0.27614,0 -0.5,-0.22386 -0.5,-0.5c0,-0.27614 0.22386,-0.5 0.5,-0.5c0.27614,0 0.5,0.22386 0.5,0.5z" stroke="none" stroke-width="0.5"/><path d="M517.20336,220.36146c0,0.27614 -0.22386,0.5 -0.5,0.5c-0.27614,0 -0.5,-0.22386 -0.5,-0.5c0,-0.27614 0.22386,-0.5 0.5,-0.5c0.27614,0 0.5,0.22386 0.5,0.5z" stroke="none" stroke-width="0.5"/><path d="M544.20336,307.36149c0,0.27614 -0.22386,0.5 -0.5,0.5c-0.27614,0 -0.5,-0.22386 -0.5,-0.5c0,-0.27614 0.22386,-0.5 0.5,-0.5c0.27614,0 0.5,0.22386 0.5,0.5z" stroke="none" stroke-width="0.5"/></g><path d="M-119.78461,-5.59094h721.57062v111.03003h-721.57062z" data-paper-data="{&quot;origPos&quot;:null}" fill="url(#color-15)" stroke="none" stroke-width="1.4682"/></g><g data-paper-data="{&quot;origPos&quot;:null}"><path d="M361.71542,92.58201c24.692,0 47.067,10.029 63.269,26.231c16.202,16.202 26.231,38.577 26.231,63.269c0,24.692 -10.029,47.067 -26.231,63.269c-16.202,16.202 -38.577,26.231 -63.269,26.231c-24.692,0 -47.067,-10.029 -63.269,-26.231c-16.202,-16.202 -26.231,-38.577 -26.231,-63.269c0,-24.692 10.029,-47.067 26.231,-63.269c16.202,-16.202 38.577,-26.231 63.269,-26.231z" data-paper-data="{&quot;origPos&quot;:null}" fill="#ffff99" stroke="none" stroke-width="1" stroke-linecap="butt"/><g data-paper-data="{&quot;origPos&quot;:null}"><path d="M409.81542,257.18199l-17.65,8.75l-3.2,-35.1h22.5z" data-paper-data="{&quot;origPos&quot;:null}" fill="#ffffff" stroke="none" stroke-width="1" stroke-linecap="round"/><path d="M313.2154,229.582h22.5l-3.5,36.5l-18.85,-9z" data-paper-data="{&quot;origPos&quot;:null}" fill="#ffffff" stroke="none" stroke-width="1" stroke-linecap="round"/><path d="M404.87202,204.90411c4.9905,1.9985 8.5171,6.8604 11.2424,11.4825c2.5481,4.3193 4.2144,9.9185 4.0406,14.3083c-0.1748,4.3881 -2.0449,7.7062 -5.0008,9.9368c-2.7257,2.0555 -6.6151,1.8122 -9.9941,1.7524c-1.4569,-0.0269 -2.3765,-1.7191 -3.7448,-1.8884c-0.5223,-0.0327 -0.6145,0.6952 -0.8802,1.0722c-1.0149,1.4425 -1.4502,3.6843 -3.1366,4.3849c-3.3633,1.4717 -7.6314,3.4014 -10.9624,1.6804c-4.0354,-2.0862 -6.1622,-6.9695 -7.5696,-11.3464c-1.7066,-5.3183 -2.4837,-11.4053 -1.1202,-16.7396c1.4816,-5.7903 4.2511,-12.6298 9.282,-15.3632c5.2225,-2.8419 12.3968,-1.6618 17.8437,0.7201z" data-paper-data="{&quot;origPos&quot;:null}" fill="#ff9ad9" stroke="none" stroke-width="1.8663" stroke-linecap="round"/><g data-paper-data="{&quot;origPos&quot;:null}"><path d="M364.25802,193.6187c6.9509,0 13.2502,2.9282 17.8117,7.6576c4.5596,4.7295 7.5986,11.9145 7.3834,18.4706c-0.3151,9.4753 -6.7435,18.1144 -9.7845,27.3097c-0.4892,2.3047 0.272,0.6634 0.7827,1.9994c2.0235,5.4055 5.4676,10.5839 6.7513,15.995c0.319,1.3614 -0.4755,1.8703 -2.2504,2.272c-7.1818,1.6086 -14.0407,2.9645 -21.0366,2.999c-7.6496,0.0564 -15.3265,-1.6122 -22.5044,-2.7264c-1.7984,-0.2853 -4.1545,0.4472 -3.7181,-0.9997c1.7886,-5.8363 6.3619,-10.9184 9.0018,-16.722c0.5518,-1.3451 0.362,-0.6962 -0.1957,-2.9991c-2.227,-9.0881 -7.3873,-18.0289 -7.4362,-27.1279c-0.0353,-6.5634 2.8238,-13.7411 7.3833,-18.4706c4.5616,-4.7294 10.8608,-7.6576 17.8117,-7.6576z" fill="#ff9ad9" stroke="none" stroke-width="1.88854" stroke-linecap="round"/><path d="M363.54151,204.88061c2.5403,0 4.8437,1.3848 6.5103,3.6244c1.6684,2.2377 2.6999,5.3283 2.6999,8.7399c0,3.4116 -1.0315,6.5022 -2.6999,8.7398c-1.6666,2.2396 -3.97,3.6244 -6.5103,3.6244c-2.5402,0 -4.8436,-1.3848 -6.5102,-3.6244c-1.6684,-2.2376 -2.6999,-5.3282 -2.6999,-8.7398c0,-3.4116 1.0315,-6.5022 2.6999,-8.7399c1.6666,-2.2396 3.97,-3.6244 6.5102,-3.6244z" fill="#4eddff" stroke="#ffe741" stroke-width="3.62236" stroke-linecap="butt"/><path d="M361.37102,209.09581c1.0302,0 1.9633,0.6532 2.6389,1.7096c0.6756,1.0563 1.0937,2.5139 1.0937,4.1226c0,1.6088 -0.4181,3.0663 -1.0937,4.1227c-0.6756,1.0563 -1.6087,1.7095 -2.6389,1.7095c-1.0302,0 -1.9634,-0.6532 -2.639,-1.7095c-0.6756,-1.0564 -1.0936,-2.5139 -1.0936,-4.1227c0,-1.6087 0.418,-3.0663 1.0936,-4.1226c0.6756,-1.0564 1.6088,-1.7096 2.639,-1.7096z" fill="#a0ffff" stroke="none" stroke-width="1.8663" stroke-linecap="butt"/></g><g data-paper-data="{&quot;origPos&quot;:null}"><path d="M346.44802,108.18661l10.2646,4.0125l6.3455,-9.1448l5.9721,9.1448l10.8246,-3.7326l-2.7995,18.3831h-27.0613z" fill="url(#color-16)" stroke="none" stroke-width="1.8663" stroke-linecap="round"/><path d="M332.45072,174.44021c0.1699,-7.5491 -7.8347,-15.8225 -3.7326,-22.0223c3.6095,-5.444 15.2291,-6.5489 20.1561,-1.8663c8.1725,8.1464 9.4995,21.4345 11.5711,32.9402c0.7409,4.1189 -1.4091,8.6951 -4.1302,11.8734c-2.372,2.7696 -6.0953,4.481 -9.5872,4.9233c-7.1908,0.7055 -15.1357,1.5136 -21.4624,-1.5864c-5.3078,-2.5997 -7.8795,-9.0776 -10.5446,-14.2772c-0.6551,-1.4389 2.5102,0.3416 3.7326,0.6533c3.3052,0.8454 7.2188,4.5145 9.8914,2.4261c3.8035,-2.9786 4.1469,-8.6036 4.1058,-13.0641z" fill="url(#color-17)" stroke="none" stroke-width="1.8663" stroke-linecap="round"/><path d="M398.79612,182.01531c1.381,2.4449 5.2872,2.1481 7.9318,2.053c1.8364,-0.0691 5.6362,-3.5777 5.1323,-2.053c-1.9223,5.5485 -3.7046,13.2545 -9.1449,16.2368c-6.3995,3.5106 -14.7998,2.8088 -21.929,1.2131c-3.7793,-0.8547 -6.5993,-5.0278 -8.1184,-8.6783c-2.0007,-4.8411 -2.7043,-10.6883 -1.3997,-15.8635c1.7468,-8.1203 4.2029,-16.8434 10.2646,-22.7689c3.1149,-3.0383 10.2199,-3.3798 13.0641,-0.2799c4.5444,4.9793 4.0144,12.9446 5.1323,19.5961c0.5823,3.4714 -2.5885,7.525 -0.9331,10.5446z" fill="url(#color-18)" stroke="none" stroke-width="1.8663" stroke-linecap="round"/><path d="M362.82162,138.42059c9.0108,0.2371 20.0683,1.6816 25.7424,8.9583c5.4104,6.9464 2.9356,17.4406 1.7162,25.9416c-0.6774,5.7687 -3.3221,11.6849 -7.2259,15.4903c-5.4231,5.3096 -11.9662,11.7912 -19.4197,11.571c-7.8781,-0.2351 -14.8006,-7.2151 -20.2326,-13.2507c-3.8045,-4.2309 -5.714,-10.6211 -6.3227,-16.6101c-0.7822,-7.872 -2.7116,-17.56 2.2581,-23.8886c5.2044,-6.6198 15.216,-8.2379 23.4842,-8.2118z" fill="#ffe6bd" stroke="none" stroke-width="1.83664" stroke-linecap="round"/><path d="M352.33982,158.94986c1.7114,0 3.3052,1.0433 4.3877,2.2975c1.4408,1.6703 2.7061,3.9752 3.0308,6.3808c0.2165,2.0474 0.0747,4.6453 -1.493,6.2521c-1.3848,1.4222 -3.8744,1.0228 -5.9255,0.7466c-1.6349,-0.2203 -3.2642,-0.8791 -4.3877,-2.2974c-1.1216,-1.4184 -1.8177,-3.3781 -1.8177,-5.5411c0,-2.163 0.6961,-4.1226 1.8177,-5.541c1.1235,-1.4184 2.6763,-2.2975 4.3877,-2.2975z" fill="#ffffff" stroke="none" stroke-width="1.8663" stroke-linecap="round"/><path d="M379.32872,161.74741c1.1216,1.4184 1.8177,3.378 1.8177,5.541c0,2.163 -0.6961,4.1227 -1.8177,5.5411c-1.1235,1.4183 -2.7528,2.0771 -4.3877,2.2974c-2.0511,0.2762 -4.5407,0.6756 -5.9255,-0.7466c-1.5677,-1.6068 -1.7095,-4.2047 -1.493,-6.2521c0.3247,-2.4056 1.59,-4.7105 3.0308,-6.3808c1.0825,-1.2542 2.6763,-2.2975 4.3877,-2.2975c1.7114,0 3.2642,0.8791 4.3877,2.2975z" fill="#ffffff" stroke="none" stroke-width="1.8663" stroke-linecap="round"/><path d="M355.12891,164.42129c1.1068,0 2.1108,0.5964 2.8368,1.5597c0.726,0.9616 1.1758,2.2918 1.1758,3.7593c0,1.4675 -0.4498,2.7977 -1.1758,3.7593c-0.726,0.9633 -1.73,1.5597 -2.8368,1.5597c-1.1067,0 -2.1107,-0.5964 -2.8367,-1.5597c-0.726,-0.9616 -1.1758,-2.2918 -1.1758,-3.7593c0,-1.4675 0.4498,-2.7977 1.1758,-3.7593c0.726,-0.9633 1.73,-1.5597 2.8367,-1.5597z" fill="#4eddff" stroke="none" stroke-width="1.77336" stroke-linecap="butt"/><path d="M373.02892,164.90607c1.1068,0 2.1108,0.565 2.8368,1.4776c0.726,0.911 1.1758,2.1711 1.1758,3.5614c0,1.3903 -0.4498,2.6505 -1.1758,3.5615c-0.726,0.9125 -1.73,1.4775 -2.8368,1.4775c-1.1067,0 -2.1107,-0.565 -2.8367,-1.4775c-0.726,-0.911 -1.1758,-2.1712 -1.1758,-3.5615c0,-1.3903 0.4498,-2.6504 1.1758,-3.5614c0.726,-0.9126 1.73,-1.4776 2.8367,-1.4776z" fill="#4eddff" stroke="none" stroke-width="1.73233" stroke-linecap="butt"/><path d="M355.45232,166.42739c0.6831,0 1.3009,0.4334 1.7488,1.1354c0.4479,0.7004 0.7241,1.6694 0.7241,2.7372c0,1.0679 -0.2762,2.0368 -0.7241,2.7372c-0.4479,0.702 -1.0657,1.1354 -1.7488,1.1354c-0.683,0 -1.3008,-0.4334 -1.7487,-1.1354c-0.4479,-0.7004 -0.7241,-1.6693 -0.7241,-2.7372c0,-1.0678 0.2762,-2.0368 0.7241,-2.7372c0.4479,-0.702 1.0657,-1.1354 1.7487,-1.1354z" fill="#0f1f43" stroke="none" stroke-width="1.76049" stroke-linecap="butt"/><path d="M372.70232,166.7534c0.6831,0 1.3009,0.4282 1.7488,1.1217c0.4479,0.6919 0.7241,1.6492 0.7241,2.7042c0,1.055 -0.2762,2.0123 -0.7241,2.7042c-0.4479,0.6935 -1.0657,1.1217 -1.7488,1.1217c-0.683,0 -1.3008,-0.4282 -1.7487,-1.1217c-0.4479,-0.6919 -0.7241,-1.6492 -0.7241,-2.7042c0,-1.055 0.2762,-2.0123 0.7241,-2.7042c0.4479,-0.6935 1.0657,-1.1217 1.7487,-1.1217z" fill="#0f1f43" stroke="none" stroke-width="1.75123" stroke-linecap="butt"/><path d="M366.04422,178.48651c0,0 -1.146,2.4392 -2.2396,2.4262c-1.1123,-0.0112 -2.3329,-2.4262 -2.3329,-2.4262" fill="none" stroke="#e1cba6" stroke-width="1.8663" stroke-linecap="round"/><path d="M391.70582,172.57391c0.8491,0 1.6199,0.3453 2.1761,0.9033c0.558,0.5562 0.9033,1.327 0.9033,2.1761c0,0.8492 -0.3453,1.62 -0.9033,2.1761c-0.5562,0.5581 -1.327,0.9033 -2.1761,0.9033c-0.8492,0 -1.62,-0.3452 -2.1761,-0.9033c-0.558,-0.5561 -0.9033,-1.3269 -0.9033,-2.1761c0,-0.8491 0.3453,-1.6199 0.9033,-2.1761c0.5561,-0.558 1.3269,-0.9033 2.1761,-0.9033z" fill="#4eddff" stroke="none" stroke-width="1.8663" stroke-linecap="butt"/><path d="M392.91892,155.77715c1.2877,0 2.4542,0.9257 3.2977,2.4206c0.8455,1.4949 1.368,3.5591 1.368,5.8378c0,2.2788 -0.5225,4.3429 -1.368,5.8378c-0.8435,1.4949 -2.01,2.4206 -3.2977,2.4206c-1.2878,0 -2.4542,-0.9257 -3.2978,-2.4206c-0.8454,-1.4949 -1.368,-3.559 -1.368,-5.8378c0,-2.2787 0.5226,-4.3429 1.368,-5.8378c0.8436,-1.4949 2.01,-2.4206 3.2978,-2.4206z" fill="#ffe6bd" stroke="none" stroke-width="1.8663" stroke-linecap="butt"/><path d="M337.45581,172.57391c0.8491,0 1.6199,0.3453 2.1761,0.9033c0.558,0.5562 0.9033,1.327 0.9033,2.1761c0,0.8492 -0.3453,1.62 -0.9033,2.1761c-0.5562,0.5581 -1.327,0.9033 -2.1761,0.9033c-0.8492,0 -1.62,-0.3452 -2.1761,-0.9033c-0.558,-0.5561 -0.9033,-1.3269 -0.9033,-2.1761c0,-0.8491 0.3453,-1.6199 0.9033,-2.1761c0.5561,-0.558 1.3269,-0.9033 2.1761,-0.9033z" fill="#4eddff" stroke="none" stroke-width="1.8663" stroke-linecap="butt"/><path d="M336.16891,157.67721c1.2877,0 2.4542,0.9257 3.2977,2.4206c0.8455,1.4949 1.368,3.5591 1.368,5.8378c0,2.2788 -0.5225,4.3429 -1.368,5.8378c-0.8435,1.4949 -2.01,2.4206 -3.2977,2.4206c-1.2878,0 -2.4542,-0.9257 -3.2978,-2.4206c-0.8454,-1.4949 -1.368,-3.559 -1.368,-5.8378c0,-2.2787 0.5226,-4.3429 1.368,-5.8378c0.8436,-1.4949 2.01,-2.4206 3.2978,-2.4206z" fill="#ffe6bd" stroke="none" stroke-width="1.8663" stroke-linecap="butt"/><path d="M389.83982,145.88574c1.3269,0.8884 2.1294,2.7454 2.4261,4.0126c0.9463,4.0928 1.0918,8.7492 0.9332,12.5042c-0.1866,4.2776 -0.0877,8.8089 -1.8663,12.6908c-1.2766,2.7771 -3.9155,4.565 -6.3454,6.0655c-1.5621,0.8679 -5.1193,2.0903 -5.1324,0.7465c-0.0018,-2.9767 3.602,-6.1886 4.6658,-9.3315c1.1048,-3.2623 1.4613,-6.7616 1.8663,-10.1713c0.4983,-4.2514 -0.1082,-9.6618 0.9331,-14.3705c0.2557,-1.1273 1.4912,-2.15 2.5196,-2.1463z" fill="url(#color-19)" stroke="none" stroke-width="1.8663" stroke-linecap="round"/><path d="M341.41062,146.63207c1.0413,4.7087 0.4348,10.1191 0.9331,14.3705c0.405,3.4097 0.7615,6.909 1.8663,10.1713c1.0638,3.1429 4.6676,6.3548 4.6658,9.3315c-0.0131,1.3438 -3.5703,0.1214 -5.1324,-0.7465c-2.4299,-1.5005 -5.0688,-3.2884 -6.3454,-6.0655c-1.7786,-3.8819 -1.6797,-8.4132 -1.8663,-12.6908c-0.1586,-3.755 -0.0131,-8.4114 0.9332,-12.5042c0.2967,-1.2672 1.0992,-3.1242 2.4261,-4.0126c1.0284,-0.0037 2.2639,1.019 2.5196,2.1463z" fill="url(#color-20)" stroke="none" stroke-width="1.8663" stroke-linecap="round"/><path d="M362.20721,121.65651c5.7332,-0.3172 11.4609,0.8156 16.61,3.0794c4.8468,2.1276 7.1349,6.8904 11.3845,9.3315c3.0626,1.76 8.5513,0.9463 10.2646,3.0794c0.9929,1.2728 -5.3563,2.2377 -4.8524,3.7326c0.657,1.9074 7.2319,0.6495 7.6519,3.4527c0.4852,3.8408 -2.4374,8.0605 -5.5989,10.2646c-2.876,1.9149 -7.3533,2.2321 -10.2647,0.4666c-3.6038,-2.1873 -4.2421,-7.3121 -6.7187,-10.7312c-0.6606,-0.9108 -1.8103,-2.792 -2.6128,-2.1463c-2.6016,2.122 -3.2511,5.9442 -5.5989,8.3984c-2.7155,2.8405 -5.3731,7.566 -9.1449,7.4652c-4.4044,-0.1325 -7.5249,-4.7217 -10.8245,-7.6518c-1.8794,-1.6685 -2.3441,-4.7703 -4.2925,-6.0655c-0.851,-0.4759 -0.7204,1.577 -1.3064,2.5195c-2.3459,3.7662 -3.2548,9.0198 -7.0919,11.1978c-3.9603,2.2489 -9.7701,3.4079 -13.7174,1.2131c-3.5534,-2.2582 -4.7553,-7.8926 -4.1991,-11.851c0.2874,-2.0529 5.5447,0.5095 6.0654,-1.4931c0.5749,-2.2843 -5.6455,-4.7572 -4.1991,-6.532c2.2134,-2.7061 8.1034,-0.3975 11.3844,-2.5195c4.0219,-2.5923 5.8975,-7.8441 10.078,-10.2647c5.0969,-2.9506 11.1026,-4.6191 16.9834,-4.9457z" fill="url(#color-21)" stroke="none" stroke-width="1.8663" stroke-linecap="round"/><g fill="none" stroke="#000000" stroke-width="1.8663" stroke-linecap="round"><path d="M371.36211,161.72215c0,0 2.8483,-1.9157 4.3323,-1.6418c2.2471,0.4163 5.7814,3.5133 5.7814,3.5133"/><path d="M383.78041,158.93187c0,0 -0.9472,0.8525 -1.5784,1.2018c-0.873,0.4886 -2.7316,1.2523 -2.7316,1.2523"/><path d="M381.58572,156.71706c0,0 -0.8041,0.9887 -1.3738,1.4313c-0.7869,0.6177 -2.5052,1.6595 -2.5052,1.6595"/><path d="M377.59122,155.53098c0,0 -0.4946,1.1744 -0.9173,1.759c-0.5823,0.8135 -1.9396,2.2953 -1.9396,2.2953"/></g><g fill="none" stroke="#000000" stroke-width="1.8663" stroke-linecap="round"><path d="M345.85502,163.09366c0,0 3.5343,-3.097 5.7814,-3.5133c1.484,-0.2739 4.3323,1.6418 4.3323,1.6418"/><path d="M347.86042,160.93599c0,0 -1.8586,-0.7637 -2.7316,-1.2523c-0.6312,-0.3493 -1.5784,-1.2018 -1.5784,-1.2018"/><path d="M349.47412,159.30784c0,0 -1.7183,-1.0418 -2.5052,-1.6595c-0.5697,-0.4426 -1.3738,-1.4313 -1.3738,-1.4313"/><path d="M352.24652,159.13531c0,0 -1.3573,-1.4818 -1.9396,-2.2953c-0.4227,-0.5846 -0.9173,-1.759 -0.9173,-1.759"/></g><g stroke-linecap="round"><path d="M363.85122,185.28541c1.2486,0 2.1426,0.6167 3.1989,0.9605c1.3699,0.4456 3.9304,-0.0255 4.1264,1.1314c0.2314,1.4262 -1.6274,3.5017 -3.266,4.2748c-1.8999,0.8968 -4.3877,1.1896 -6.3455,0.4547c-2.122,-0.904 -4.4679,-3.1233 -4.759,-4.9114c-0.1699,-1.0441 2.6426,-0.6112 3.8464,-0.9495c1.0713,-0.3002 1.9503,-0.9605 3.1988,-0.9605z" fill="#ffa2bf" stroke="none" stroke-width="1.84283"/><path d="M369.87012,188.16801c0,0 -4.0462,1.6479 -6.1588,1.5863c-2.2508,-0.0933 -5.8789,-1.9596 -5.8789,-1.9596" fill="none" stroke="#cc8198" stroke-width="1.8663"/></g><path d="M362.96482,111.45261c0.9014,0 1.717,0.5132 2.3086,1.34c0.5916,0.8286 0.9574,1.9708 0.9574,3.2324c0,1.2617 -0.3658,2.4038 -0.9574,3.2325c-0.5916,0.8267 -1.4072,1.34 -2.3086,1.34c-0.9015,0 -1.717,-0.5133 -2.3087,-1.34c-0.5916,-0.8287 -0.9574,-1.9708 -0.9574,-3.2325c0,-1.2616 0.3658,-2.4038 0.9574,-3.2324c0.5917,-0.8268 1.4072,-1.34 2.3087,-1.34z" fill="#ff4949" stroke="none" stroke-width="1.8663" stroke-linecap="butt"/><path d="M374.93432,113.49611c0.6927,0.0601 1.2797,0.5741 1.6702,1.354c0.3903,0.7815 0.5827,1.8289 0.4848,2.9588c-0.098,1.13 -0.4678,2.1286 -0.9869,2.8313c-0.5189,0.7011 -1.1855,1.1064 -1.8783,1.0463c-0.6928,-0.0601 -1.2797,-0.5741 -1.6702,-1.354c-0.3903,-0.7816 -0.5828,-1.8289 -0.4848,-2.9588c0.098,-1.13 0.4678,-2.1286 0.9868,-2.8313c0.5189,-0.7011 1.1856,-1.1064 1.8784,-1.0463z" fill="#4dddff" stroke="none" stroke-width="1.56329" stroke-linecap="butt"/><path d="M350.93062,113.44911c0.6873,-0.1062 1.3795,0.2537 1.944,0.9186c0.5648,0.6665 1.0005,1.6381 1.1737,2.759c0.1732,1.1209 0.0511,2.1788 -0.2862,2.9847c-0.3375,0.8042 -0.8888,1.3562 -1.576,1.4624c-0.6873,0.1062 -1.3795,-0.2537 -1.944,-0.9185c-0.5648,-0.6665 -1.0005,-1.6382 -1.1737,-2.7591c-0.1732,-1.1209 -0.0511,-2.1787 0.2861,-2.9846c0.3376,-0.8042 0.8889,-1.3563 1.5761,-1.4625z" fill="#4dddff" stroke="none" stroke-width="1.56329" stroke-linecap="butt"/></g><path d="M337.15252,203.784c5.0309,2.7334 7.8004,9.5729 9.282,15.3632c1.3635,5.3343 0.5864,11.4213 -1.1202,16.7396c-1.4074,4.3769 -3.5342,9.2602 -7.5696,11.3464c-3.331,1.721 -7.5991,-0.2087 -10.9624,-1.6804c-1.6864,-0.7006 -2.1217,-2.9424 -3.1366,-4.3849c-0.2657,-0.377 -0.3579,-1.1049 -0.8802,-1.0722c-1.3683,0.1693 -2.2879,1.8615 -3.7448,1.8884c-3.379,0.0598 -7.2684,0.3031 -9.9941,-1.7524c-2.9559,-2.2306 -4.826,-5.5487 -5.0008,-9.9368c-0.1738,-4.3898 1.4925,-9.989 4.0406,-14.3083c2.7253,-4.6221 6.2519,-9.484 11.2424,-11.4825c5.4469,-2.3819 12.6212,-3.562 17.8437,-0.7201z" data-paper-data="{&quot;origPos&quot;:null}" fill="#ff9ad9" stroke="none" stroke-width="1.8663" stroke-linecap="round"/></g><path d="M366.23662,227.58901c14.803,0.0131 28.748,-1.2939 42.5095,-0.4818c7.2509,0.0524 18.2886,-1.5314 20.2158,3.0974c2.4614,6.1368 -4.6899,12.763 -9.3503,18.1365c-4.9046,5.6536 -10.9114,10.9789 -18.3977,14.11c-11.8923,4.9247 -25.0936,9.9382 -38.3105,9.464c-16.0428,-0.5761 -32.7341,-5.1092 -45.6696,-12.3205c-10.9685,-6.2207 -20.6245,-15.8465 -22.5101,-26.0174c-0.8857,-4.6694 9.2491,-7.0502 15.164,-7.4996c18.7726,-1.4207 37.5876,1.3676 56.3489,1.5114z" data-paper-data="{&quot;origPos&quot;:null}" fill="url(#color-22)" stroke="none" stroke-width="0.78209" stroke-linecap="round"/></g><g data-paper-data="{&quot;origPos&quot;:null}"><path d="M30.21541,83.23575h269v162.5949h-269z" data-paper-data="{&quot;origPos&quot;:null}" fill="#ffffff" stroke="#ffccf2" stroke-width="3.71449" stroke-linecap="butt"/><path d="M37.71541,159.08195h243" data-paper-data="{&quot;origPos&quot;:null}" fill="none" stroke="#ffccf2" stroke-width="4" stroke-linecap="round"/><path d="M280.71541,184.582h-243" data-paper-data="{&quot;origPos&quot;:null}" fill="none" stroke="#ffccf2" stroke-width="4" stroke-linecap="round"/><path d="M280.21541,207.582h-243" data-paper-data="{&quot;origPos&quot;:null}" fill="none" stroke="#ffccf2" stroke-width="4" stroke-linecap="round"/><g data-paper-data="{&quot;origPos&quot;:null}" fill="none" stroke="none" stroke-width="1" stroke-linecap="butt" font-family="sans-serif" font-weight="normal" font-size="12" text-anchor="start"/><g data-paper-data="{&quot;origPos&quot;:null}" fill="#000000" stroke="none" stroke-width="0.26459" stroke-linecap="butt"><path d=""/><path d=""/><path d=""/></g><text transform="translate(40.21541,118.08201) scale(0.63001,0.63001)" font-size="40" xml:space="preserve" data-paper-data="{&quot;origPos&quot;:null}" fill="#000000" fill-rule="nonzero" stroke="none" stroke-width="1" stroke-linecap="butt" stroke-linejoin="miter" stroke-miterlimit="10" stroke-dasharray="" stroke-dashoffset="0" font-family="Handwriting" font-weight="normal" text-anchor="start" style="mix-blend-mode: normal"><tspan x="0" dy="0">Dear Mario</tspan></text><text transform="translate(38.21541,155.58195) scale(0.5,0.5)" font-size="40" xml:space="preserve" data-paper-data="{&quot;origPos&quot;:null}" fill="#000000" fill-rule="nonzero" stroke="none" stroke-width="1" stroke-linecap="butt" stroke-linejoin="miter" stroke-miterlimit="10" stroke-dasharray="" stroke-dashoffset="0" font-family="Handwriting" font-weight="normal" text-anchor="start" style="mix-blend-mode: normal"><tspan x="0" dy="0">Please come to the castle.</tspan><tspan x="0" dy="46.150000000000006px">I have something special</tspan><tspan x="0" dy="46.150000000000006px">for you.</tspan></text><text transform="translate(38.21541,231.582) scale(0.5,0.5)" font-size="40" xml:space="preserve" data-paper-data="{&quot;origPos&quot;:null}" fill="#000000" fill-rule="nonzero" stroke="none" stroke-width="1" stroke-linecap="butt" stroke-linejoin="miter" stroke-miterlimit="10" stroke-dasharray="" stroke-dashoffset="0" font-family="Handwriting" font-weight="normal" text-anchor="start" style="mix-blend-mode: normal"><tspan x="0" dy="0">Princess Peach</tspan></text><g data-paper-data="{&quot;origPos&quot;:null}" stroke-width="2"><path d="M244.71542,92.33201l5.5,17.25l9.75,-8l-3.75,22.75h-24.75l-4.5,-23.5l10.5,8z" data-paper-data="{&quot;origPos&quot;:null}" fill="#ffff00" stroke="#ff9400" stroke-linecap="round"/><path d="M257.21542,115.33201h-27.5" data-paper-data="{&quot;origPos&quot;:null}" fill="none" stroke="#ff9400" stroke-linecap="round"/><path d="M229.21542,110.58201c0.828,0 1.578,0.504 2.121,1.319c0.543,0.814 0.879,1.939 0.879,3.181c0,1.242 -0.336,2.367 -0.879,3.181c-0.543,0.815 -1.293,1.319 -2.121,1.319c-0.828,0 -1.578,-0.504 -2.121,-1.319c-0.543,-0.814 -0.879,-1.939 -0.879,-3.181c0,-1.242 0.336,-2.367 0.879,-3.181c0.543,-0.815 1.293,-1.319 2.121,-1.319z" data-paper-data="{&quot;origPos&quot;:null}" fill="#003fff" stroke="#0033cc" stroke-linecap="butt"/><path d="M257.71541,110.83201c0.828,0 1.578,0.504 2.121,1.319c0.543,0.814 0.879,1.939 0.879,3.181c0,1.242 -0.336,2.367 -0.879,3.181c-0.543,0.815 -1.293,1.319 -2.121,1.319c-0.828,0 -1.578,-0.504 -2.121,-1.319c-0.543,-0.814 -0.879,-1.939 -0.879,-3.181c0,-1.242 0.336,-2.367 0.879,-3.181c0.543,-0.815 1.293,-1.319 2.121,-1.319z" data-paper-data="{&quot;origPos&quot;:null}" fill="#003fff" stroke="#0033cc" stroke-linecap="butt"/><path d="M243.46542,110.58201c1.242,0 2.367,0.504 3.181,1.319c0.815,0.814 1.319,1.939 1.319,3.181c0,1.242 -0.504,2.367 -1.319,3.181c-0.814,0.815 -1.939,1.319 -3.181,1.319c-1.242,0 -2.367,-0.504 -3.181,-1.319c-0.815,-0.814 -1.319,-1.939 -1.319,-3.181c0,-1.242 0.504,-2.367 1.319,-3.181c0.814,-0.815 1.939,-1.319 3.181,-1.319z" data-paper-data="{&quot;origPos&quot;:null}" fill="#ff0000" stroke="#cc0000" stroke-linecap="butt"/></g></g><g><g stroke="none" stroke-width="1" stroke-linecap="butt"><path d="M244.97327,226.92897l1.07631,-0.09045l0.90448,0.09045l1.04014,0.45224l0.6874,0.45224l0.43414,0.45224l0.43416,0.45224l0.34369,0.89542l0.26229,1.13059l0.04523,1.42907l-0.20804,1.24818l-0.5246,0.98587l-0.606,0.71454l-0.69643,0.45224l-1.46526,0.45223l-1.07633,0.04523l-1.42908,-0.04523l-1.38384,-0.54268l-0.606,-0.45225l-0.69645,-0.97682l-0.34369,-1.07632l0.0091,-1.34768l0.18089,-1.02206l0.3437,-0.99493l0.43415,-0.89542l0.42509,-0.54269l0.43417,-0.3618l0.86828,-0.54268zM245.23554,229.09971l-0.59696,0.27135l-0.52459,0.45223l-0.43415,0.80499l-0.17185,1.10345l0.12662,0.94065l0.47033,0.57886l0.90447,0.35275l0.77786,0.09045l0.88638,-0.18088l0.46129,-0.44319l0.65122,-0.75976l-0.05428,-1.28435l-0.26229,-0.94064l-0.42509,-0.6241l-0.606,-0.36178z" fill-opacity="0.4" fill="#000000"/><path d="M244.97327,226.92897l1.07631,-0.09045l0.90448,0.09045l1.04014,0.45224l0.6874,0.45224l0.43414,0.45224l0.43416,0.45224l0.34369,0.89542l0.26229,1.13059l0.04523,1.42907l-0.20804,1.24818l-0.5246,0.98587l-0.606,0.71454l-0.69643,0.45224l-1.46526,0.45223l-1.07633,0.04523l-1.42908,-0.04523l-1.38384,-0.54268l-0.606,-0.45225l-0.69645,-0.97682l-0.34369,-1.07632l0.0091,-1.34768l0.18089,-1.02206l0.3437,-0.99493l0.43415,-0.89542l0.42509,-0.54269l0.43417,-0.3618l0.86828,-0.54268zM245.23554,229.09971l-0.59696,0.27135l-0.52459,0.45223l-0.43415,0.80499l-0.17185,1.10345l0.12662,0.94065l0.47033,0.57886l0.90447,0.35275l0.77786,0.09045l0.88638,-0.18088l0.46129,-0.44319l0.65122,-0.75976l-0.05428,-1.28435l-0.26229,-0.94064l-0.42509,-0.6241l-0.606,-0.36178z" fill="#ffccf2"/><path d="M254.27125,227.01941l0.19898,2.86718l0.81403,-1.21199l0.73262,-0.56982l0.91351,-0.47938l1.17582,-0.39796l0.76879,2.02602l-0.64218,0.09046l-0.64216,0.38891l-0.65122,0.47937l-0.46129,0.57888l-0.64218,0.56982l-0.37083,0.66026l-0.3618,1.05824l-0.28038,1.56473v1.44716h-2.3064l-0.46129,-8.68296z" fill="#ffccf2"/><path d="M267.51277,223.17539l2.4059,0.18993l-0.18993,0.6874l-0.18994,1.09443l-0.18993,1.13058l2.03508,-0.05428v2.46921l-2.1617,-0.01809l-0.05429,1.48334l-0.04523,1.02205v0.96778l0.18995,0.97683l0.70549,0.59696h0.56982l0.57887,-0.18993l0.31657,2.3245l-1.09441,0.25324l-1.09441,0.06331l-1.42002,-0.49746l-0.79593,-0.91351l-0.31658,-1.04013l-0.23516,-1.13061l0.04523,-1.13059v-1.13059l0.09948,-1.60092l-1.39289,-0.03618v-2.28832l1.68233,-0.12663l0.11757,-1.1125l0.24421,-1.1125z" fill="#ffccf2"/><path d="M280.77239,229.8052l-1.13964,-0.47034l-1.0311,-0.07235l-0.9497,0.09046l-1.05825,0.37989l-0.52459,0.72358l-0.25325,0.71452l-0.09046,0.79594l0.18089,0.94969l0.54269,0.77785l0.90448,0.33465h0.81403l0.88639,-0.46128l0.60601,-0.75072l0.34369,-1.13059l0.29848,-1.84512zM281.34221,229.75997l0.94067,-0.07236l0.59696,6.48508h-1.98985l-0.17185,-1.81798l-0.70549,1.04013l-0.75072,0.56079l-0.9316,0.21708h-1.69136l-1.04919,-0.17186l-0.70549,-0.47034l-0.52459,-0.63314l-0.42509,-0.91352l-0.27136,-1.59188l0.09045,-1.32957l0.25326,-1.27531l0.34369,-0.73262l0.86829,-0.91352l0.87735,-0.55173l1.04016,-0.37083l1.20294,-0.18089l1.22105,0.07236l0.95873,0.22611l0.91352,0.3618l1.01301,0.7055z" fill-opacity="0.4" fill="#000000"/><path d="M280.77239,229.8052l-1.13964,-0.47034l-1.0311,-0.07235l-0.9497,0.09046l-1.05825,0.37989l-0.52459,0.72358l-0.25325,0.71452l-0.09046,0.79594l0.18089,0.94969l0.54269,0.77785l0.90448,0.33465h0.81403l0.88639,-0.46128l0.60601,-0.75072l0.34369,-1.13059l0.29848,-1.84512zM281.34221,229.75997l0.94067,-0.07236l0.59696,6.48508h-1.98985l-0.17185,-1.81798l-0.70549,1.04013l-0.75072,0.56079l-0.9316,0.21708h-1.69136l-1.04919,-0.17186l-0.70549,-0.47034l-0.52459,-0.63314l-0.42509,-0.91352l-0.27136,-1.59188l0.09045,-1.32957l0.25326,-1.27531l0.34369,-0.73262l0.86829,-0.91352l0.87735,-0.55173l1.04016,-0.37083l1.20294,-0.18089l1.22105,0.07236l0.95873,0.22611l0.91352,0.3618l1.01301,0.7055z" fill="#ffccf2"/><path d="M287.31174,239.06702l-2.35165,0.09046l-0.54268,-11.97526l2.08029,-0.09046l0.09045,0.81403l0.81404,-0.54268l0.81403,-0.4432l1.22105,-0.13567l1.22103,0.22611l0.81401,0.35275l0.63314,0.63314l0.49746,0.79593l0.22612,0.89544l0.18088,1.47429l-0.09045,1.65519l-0.31657,0.98588l-0.49747,0.79593l-0.72358,0.54269l-1.08537,0.39798l-1.26626,0.04523l-0.87735,-0.13567l-0.88639,-0.31658l0.36178,-2.14361l0.97683,0.27135l0.96779,-0.09046l0.67835,-0.35276l0.40702,-0.45224l0.13566,-0.93161l-0.04523,-0.9316l-0.49746,-0.90447l-0.58791,-0.26229l-0.90447,-0.1809l-0.94971,0.2623l-0.58791,0.45224l-0.22611,0.71454z" fill="#ffccf2"/><path d="M243.34499,225.57207l1.07631,-0.09046l0.90447,0.09046l1.04014,0.45224l0.6874,0.45224l0.43415,0.45223l0.43415,0.45225l0.3437,0.89542l0.26229,1.13059l0.04523,1.42907l-0.20803,1.24818l-0.5246,0.98587l-0.60599,0.71455l-0.69645,0.45224l-1.46525,0.45224l-1.07634,0.04523l-1.42907,-0.04523l-1.38385,-0.54268l-0.606,-0.45225l-0.69645,-0.97682l-0.34369,-1.07633l0.0091,-1.34767l0.18089,-1.02206l0.3437,-0.99492l0.43416,-0.89542l0.42511,-0.54269l0.43416,-0.3618l0.86828,-0.54268zM243.60726,227.7428l-0.59696,0.27134l-0.52459,0.45224l-0.43415,0.80498l-0.17185,1.10345l0.12663,0.94065l0.47033,0.57886l0.90447,0.35275l0.77785,0.09045l0.88638,-0.18089l0.46129,-0.4432l0.65122,-0.75976l-0.05428,-1.28435l-0.26229,-0.94065l-0.42511,-0.62409l-0.606,-0.36178z" fill="#ffffff"/><path d="M243.34499,225.57207l1.07631,-0.09046l0.90447,0.09046l1.04014,0.45224l0.6874,0.45224l0.43415,0.45223l0.43415,0.45225l0.3437,0.89542l0.26229,1.13059l0.04523,1.42907l-0.20803,1.24818l-0.5246,0.98587l-0.60599,0.71455l-0.69645,0.45224l-1.46525,0.45224l-1.07634,0.04523l-1.42907,-0.04523l-1.38385,-0.54268l-0.606,-0.45225l-0.69645,-0.97682l-0.34369,-1.07633l0.0091,-1.34767l0.18089,-1.02206l0.3437,-0.99492l0.43416,-0.89542l0.42511,-0.54269l0.43416,-0.3618l0.86828,-0.54268zM243.60726,227.7428l-0.59696,0.27134l-0.52459,0.45224l-0.43415,0.80498l-0.17185,1.10345l0.12663,0.94065l0.47033,0.57886l0.90447,0.35275l0.77785,0.09045l0.88638,-0.18089l0.46129,-0.4432l0.65122,-0.75976l-0.05428,-1.28435l-0.26229,-0.94065l-0.42511,-0.62409l-0.606,-0.36178z" fill="#ff9ad9"/><path d="M252.64297,225.66252l0.19898,2.86718l0.81403,-1.21199l0.73262,-0.56983l0.91351,-0.47937l1.17582,-0.39798l0.7688,2.02603l-0.64217,0.09045l-0.64217,0.38892l-0.65122,0.47937l-0.46129,0.57888l-0.64217,0.56982l-0.37083,0.66027l-0.3618,1.05825l-0.28038,1.56473v1.44716h-2.3064l-0.46129,-8.68295z" fill="#ff9ad9"/><path d="M265.88449,221.8185l2.40591,0.18993l-0.18993,0.68741l-0.18995,1.09441l-0.18993,1.13059l2.03507,-0.05428v2.46922l-2.1617,-0.0181l-0.05429,1.48335l-0.04523,1.02205v0.96778l0.18994,0.97683l0.70549,0.59695h0.56982l0.57887,-0.18993l0.31657,2.32449l-1.09442,0.25325l-1.09441,0.0633l-1.42002,-0.49747l-0.79594,-0.91351l-0.31658,-1.04014l-0.23516,-1.13059l0.04523,-1.13059v-1.1306l0.09948,-1.60091l-1.39289,-0.03619v-2.28832l1.68232,-0.12662l0.11758,-1.11251l0.24421,-1.1125z" fill="#ff9ad9"/><path d="M279.1441,228.44831l-1.13964,-0.47034l-1.03109,-0.07235l-0.9497,0.09045l-1.05825,0.37989l-0.52459,0.72358l-0.25325,0.71453l-0.09046,0.79593l0.18089,0.94969l0.54268,0.77786l0.90449,0.33465h0.81402l0.88639,-0.46128l0.60601,-0.75071l0.34369,-1.13059l0.29848,-1.84513zM279.71393,228.40307l0.94067,-0.07236l0.59696,6.48508h-1.98986l-0.17184,-1.81798l-0.70549,1.04013l-0.75073,0.56078l-0.9316,0.21709h-1.69136l-1.0492,-0.17187l-0.70549,-0.47033l-0.52459,-0.63313l-0.42509,-0.91352l-0.27134,-1.59188l0.09045,-1.32957l0.25326,-1.27532l0.34369,-0.73262l0.86829,-0.91352l0.87735,-0.55173l1.04015,-0.37084l1.20294,-0.18089l1.22104,0.07236l0.95874,0.22612l0.91352,0.3618l1.01301,0.70549z" fill="#ffffff"/><path d="M279.1441,228.44831l-1.13964,-0.47034l-1.03109,-0.07235l-0.9497,0.09045l-1.05825,0.37989l-0.52459,0.72358l-0.25325,0.71453l-0.09046,0.79593l0.18089,0.94969l0.54268,0.77786l0.90449,0.33465h0.81402l0.88639,-0.46128l0.60601,-0.75071l0.34369,-1.13059l0.29848,-1.84513zM279.71393,228.40307l0.94067,-0.07236l0.59696,6.48508h-1.98986l-0.17184,-1.81798l-0.70549,1.04013l-0.75073,0.56078l-0.9316,0.21709h-1.69136l-1.0492,-0.17187l-0.70549,-0.47033l-0.52459,-0.63313l-0.42509,-0.91352l-0.27134,-1.59188l0.09045,-1.32957l0.25326,-1.27532l0.34369,-0.73262l0.86829,-0.91352l0.87735,-0.55173l1.04015,-0.37084l1.20294,-0.18089l1.22104,0.07236l0.95874,0.22612l0.91352,0.3618l1.01301,0.70549z" fill="#ff9ad9"/><path d="M285.68345,237.71013l-2.35165,0.09045l-0.54268,-11.97526l2.08029,-0.09045l0.09045,0.81403l0.81405,-0.54268l0.81402,-0.4432l1.22105,-0.13567l1.22104,0.22611l0.81403,0.35275l0.63314,0.63314l0.49746,0.79594l0.22612,0.89543l0.18088,1.47429l-0.09046,1.6552l-0.31656,0.98588l-0.49746,0.79593l-0.72359,0.54269l-1.08537,0.39796l-1.26626,0.04522l-0.87734,-0.13565l-0.88639,-0.31658l0.36179,-2.14361l0.97683,0.27134l0.96779,-0.09045l0.67835,-0.35276l0.40702,-0.45224l0.13566,-0.93161l-0.04522,-0.93161l-0.49746,-0.90446l-0.58791,-0.26229l-0.90448,-0.1809l-0.9497,0.2623l-0.58792,0.45224l-0.22612,0.71454z" fill="#ff9ad9"/></g><path d="M221.56132,218.98819c2.95369,0 5.62976,1.20003 7.56822,3.13768c1.93765,1.93846 3.13769,4.61454 3.13769,7.56823c0,2.95369 -1.20004,5.62977 -3.13769,7.56823c-1.93846,1.93765 -4.61453,3.13769 -7.56822,3.13769c-2.95369,0 -5.62977,-1.20004 -7.56823,-3.13769c-1.93765,-1.93846 -3.13769,-4.61454 -3.13769,-7.56823c0,-2.95369 1.20004,-5.62977 3.13769,-7.56823c1.93846,-1.93765 4.61454,-3.13768 7.56823,-3.13768z" fill="#ffffff" stroke="#ff9ad9" stroke-width="2.5" stroke-linecap="butt"/><path d="M217.97906,224.19867l6.59452,0.52919l2.03535,3.74504l-4.27422,3.46008l3.94857,-0.6106l0.93626,4.07068l-8.75198,-0.08141l-2.23888,-2.84949l5.49543,-3.90786l-5.37331,-0.40707z" fill="#ff9ad9" stroke="none" stroke-width="1" stroke-linecap="round"/></g></g></g></svg>