<svg version="1.1" xmlns="http://www.w3.org/2000/svg" xmlns:xlink="http://www.w3.org/1999/xlink" width="499.20663" height="404.74173" viewBox="0,0,499.20663,404.74173"><g transform="translate(25.82357,-9.25413)"><g data-paper-data="{&quot;isPaintingLayer&quot;:true}" fill-rule="nonzero" stroke-linejoin="miter" stroke-miterlimit="10" stroke-dasharray="" stroke-dashoffset="0" style="mix-blend-mode: normal"><g fill="none" stroke="none" stroke-width="1" stroke-linecap="butt" font-family="sans-serif" font-weight="normal" font-size="12" text-anchor="start"/><path d="M292.40691,241.71453c-6.25,0 -6.25,-6.25 -6.25,-6.25l0.01573,-2.55695c-0.16667,-1.16667 -0.45601,-2.32231 -0.5,-3.5c-0.01166,-0.31205 0.4349,-0.57786 0.3366,-0.87426c-0.09008,-0.27163 -0.54056,-0.21609 -0.75937,-0.40053c-0.56934,-0.4799 -0.87637,-1.25601 -1.51128,-1.64504c-0.53503,-0.32783 -1.09111,0.6341 -1.68193,0.84544c-1.36456,0.48811 -2.72242,1.04311 -4.14859,1.30064c-1.14878,0.20744 -2.3341,0.05381 -3.50114,0.08071c-2.11683,0 -6.52144,0.04872 -7.97642,-0.32073c-1.00101,-0.25417 -1.64367,-1.2765 -2.57464,-1.72361c-1.36539,-0.65575 -4.02083,-0.46304 -5.44894,-0.45566c-6.14178,0.03175 -11.42043,0.00927 -16.08058,4.66941c-1.55512,1.55512 -2.48019,3.61614 -3.53696,5.57122c0.00322,0.0978 0.00484,0.19719 0.00484,0.29823c0,6.25 -6.25,6.25 -6.25,6.25h-1.5c-6.13336,0 -12.92043,-0.06553 -17.5233,-4.93697c-1.36337,-1.44293 -2.2972,-3.28808 -2.99992,-5.1447c-0.50061,-1.32263 0.28612,-2.89736 -0.46692,-4.18155c-1.36687,-2.33097 -5.25228,-2.76315 -7.62572,-3.2672c-1.42531,-0.14844 -2.98365,0.17401 -4.27591,-0.44534c-2.3427,-1.12282 -3.77334,-3.57335 -5.59614,-5.4244c-1.20748,-1.2262 -2.80976,-1.99757 -4.10711,-3.12826c-1.14441,-0.99741 -2.11156,-2.47688 -3.58691,-3.08436c-0.68081,-0.28033 -1.33338,0.63737 -2.03716,0.85367c-0.8339,0.2563 -1.72991,0.26734 -2.56521,0.519c-4.15306,1.25119 -7.48239,3.80946 -12.21964,0.66553c-2.06659,-1.37151 -2.70423,-4.19379 -3.6333,-6.4935c-0.35306,-0.87392 0.3319,-3.34256 -0.78219,-4.26251c-2.2639,-1.86939 -4.51338,-3.57398 -6.62878,-5.71247c-3.70946,0.08344 -9.60874,1.10279 -11.73405,4.73362c-2.50614,4.28143 -4.82815,9.20307 -7.01209,13.61049c-0.64607,1.30385 -0.26369,2.92673 -0.73693,4.30277c-0.56362,1.6388 -1.22436,3.25504 -2.05794,4.77441c-2.23326,4.07051 -6.87994,8.68867 -10.56094,11.35967c-4.42911,5.1132 -10.95566,6.48442 -17.37728,8.08614c-4.42235,1.10305 -9.22986,2.50501 -13.70892,3.12913c-3.29665,0.45936 -6.53605,-0.163 -9.77915,-0.47447c-3.46628,-0.3329 -7.02143,-0.19638 -10.5,-0.5c-3.93731,-0.34366 -8.28386,0.72541 -12.16641,-0.09148c-1.53126,-0.32218 -2.92008,-1.12579 -4.38011,-1.68869c-2.87275,-2.15456 -4.77175,-3.62347 -7.68797,-1.44853c-1.21003,0.90245 -1.86146,1.16717 -2.23117,2.68409c-0.4343,1.78195 -0.53519,6.02119 -1.08008,6.89528c-2.13422,3.42359 -7.98098,5.40211 -10.73271,8.5335c-3.98137,4.53069 -7.66745,9.38303 -12.3017,13.26756c-2.28262,1.82524 -4.57642,3.59843 -6.6301,5.51134c-0.119,0.11085 0.44657,-0.05176 0.47575,0.10823c0.14954,0.8198 0.00414,1.66667 0,2.5c-0.0147,2.95632 0.20627,5.27837 -1.08488,8.13987c-2.7653,6.12856 -8.23211,9.87257 -13.07011,14.08172c-2.84307,2.47352 -4.86241,5.45373 -7.84501,7.77841c0,0 -5,3.75 -8.75,-1.25c-3.75,-5 1.25,-8.75 1.25,-8.75c2.72551,-1.88329 4.62373,-4.99601 7.15499,-7.22159c2.05278,-1.80487 4.28752,-3.27553 6.40914,-4.91965c1.18521,-0.91846 2.59948,-3.66239 3.52075,-4.99864c0.54139,-0.78526 -0.07894,-1.90635 -0.08488,-2.86013c-0.01147,-1.84124 -0.05812,-6.18643 0.47576,-7.39177c1.83416,-4.14102 6.93328,-7.73798 10.3699,-10.48866c1.35239,-0.98142 2.15081,-2.55848 3.26311,-3.80544c1.66785,-1.86976 4.15428,-3.12379 5.71495,-5.16046c1.44566,-1.88659 2.99731,-3.71416 4.75803,-5.31072c0.9763,-0.88528 1.78777,-1.9523 2.82194,-2.76923c0.82165,-0.64905 1.67546,-1.31226 2.63057,-1.73701c0.06859,-1.19075 0.37157,-2.37264 0.69693,-3.5208c0.82178,-2.90001 2.01156,-5.0513 4.09942,-7.23532c6.81612,-7.13006 16.31706,-7.2774 23.98145,-1.52911c2.78209,1.39713 8.3606,-0.02763 11.45347,0.21983c3.48094,0.2785 7.01786,0.19824 10.5,0.5c2.3409,0.20286 4.83089,0.88 7.22085,0.52553c4.03427,-0.59835 8.30854,-1.87256 12.29108,-2.87088c3.97091,-0.99541 9.24471,-1.50711 11.62272,-4.91386c2.83007,-2.17595 6.72445,-5.45261 8.43906,-8.64033c1.38418,-2.5734 1.07398,-5.24858 2.20512,-7.92282c0.39796,-0.94087 1.25618,-1.62066 1.75714,-2.51097c2.27589,-4.04478 3.54449,-9.03504 6.23078,-12.87854c3.80698,-5.44699 11.77023,-9.69044 18.20225,-10.28814c3.93961,-0.36609 5.0114,0.19905 9.06369,1.02176c2.8744,2.10374 5.08026,4.32798 7.63768,6.56572c0.81043,0.70913 2.0031,0.93054 2.73355,1.72181c1.11542,1.20831 1.93017,2.67842 2.67963,4.14214c0.47611,0.92987 0.8895,1.90042 1.20746,2.89827c0.1634,-0.03958 0.32351,-0.08221 0.47779,-0.1309c3.3399,-1.05402 6.81055,-2.28262 10.39763,-1.62733c4.73352,0.86472 7.61758,4.4046 11.14572,7.1964c1.06822,0.84528 2.19229,1.63252 3.16027,2.59097c0.67371,0.66708 1.27993,1.42237 1.73368,2.25484c0.0734,0.13466 -0.47605,0.36697 -0.32981,0.32076c0.2702,-0.08537 0.48272,-0.2969 0.72409,-0.44534c4.88346,0.95051 10.56797,2.08799 14.23399,5.73168c2.95421,2.93622 5.04041,6.57555 4.67337,10.81957c-0.02137,0.24712 1.91978,0.49106 2.20251,0.5397c1.12194,0.19302 2.15871,0.28765 3.20514,0.33404c1.92832,-2.72593 3.01957,-5.92084 5.51241,-8.41368c2.9797,-2.97971 8.25737,-6.39311 12.25108,-7.6038c1.13496,-0.34407 2.37428,-0.06081 3.55248,-0.19636c4.18275,-0.48125 8.48587,-0.89226 12.73172,-0.5c0.96037,0.08873 6.35814,1.2722 6.9352,1.51392c0.58826,0.2464 0.81865,1.07977 1.42536,1.27639c1.27992,0.41478 2.67813,-0.32072 4.02357,-0.32072c4.68613,0.25232 7.32822,-3.14826 12.66834,-1.77322c4.1153,1.05966 9.15876,6.1236 10.72935,9.95443c0.97005,2.36603 0.47496,5.09427 0.8366,7.62574l0.01572,3.44306c0,0 0,6.25 -6.25,6.25z" fill="#ffffff" stroke="none" stroke-width="0.5" stroke-linecap="butt"/><path d="M5.0431,298.26719c3.44552,-3.57942 -1.22416,-12.52374 4.13408,-13.01816c8.48651,-0.78307 6.82282,-10.36634 6.82282,-10.36634c0,0 9.59674,-18.83168 30.78321,-30.72081c5.97532,-3.35315 17.23661,-1.10996 24.42568,-3.92463c20.58125,-8.05799 40.16847,-19.79111 59.35682,-28.31694c9.94945,-4.42077 17.08666,-12.93477 25.28689,-15.00114c13.67629,-3.44628 12.44421,7.85225 15.90941,12.16762c2.8067,3.49531 10.32882,-0.60024 18.43626,2.96667c4.00307,1.76117 6.36408,13.00468 14.5687,12.53454c8.18893,-0.46925 10.32328,15.09248 19.79759,14.19188c9.69455,-0.92154 22.08229,-16.62914 32.19313,-16.22283c7.48327,0.30072 0.83231,2.67041 9.82851,0.32014c1.31751,-0.3442 9.87402,2.85683 11.16926,2.60102c50.03596,-9.8819 86.24453,49.15448 86.24453,49.15448c0,0 14.99073,72.0998 19.35104,92.34413c3.10068,14.39602 -410.95121,6.51307 -409.16885,-5.24281c0,0 3.27235,-29.70566 10.89418,-46.04637c6.49843,-13.93219 17.25092,-14.59909 19.96674,-17.42045z" fill="#ffffff" stroke="none" stroke-width="0" stroke-linecap="butt"/><path d="M13.84612,411.33438c3.03738,0.52879 6.07396,1.0622 9.10981,1.59977c-4.07634,0.48813 -8.13581,0.86805 -12.15279,1.06172h-13.37562c-0.27396,-1.82411 -0.54142,-3.65602 -0.80141,-5.49337c5.74988,0.89826 11.49173,1.83461 17.22,2.83187z" fill="#ffffff" stroke="none" stroke-width="0" stroke-linecap="butt"/><g><path d="M270.0936,249.24413c-1.99229,0.62446 -4.36729,0.71904 -6.20102,0.13661c-1.33492,-0.42399 -2.16226,-1.36207 -3.42723,-1.95531c0,0 -1.05017,-0.49249 -0.52508,-1.47751c0.52508,-0.98501 1.57527,-0.4925 1.57527,-0.4925c1.04163,0.48849 3.0487,1.80112 5.06733,1.78107c2.60876,-0.02591 5.23678,-1.50266 5.8251,-1.78107c0,0 0.62255,-0.01468 0.9071,0.22653c0.28133,0.23847 0.22569,0.73079 0.05922,1.08875c-0.47424,1.01977 -2.69482,2.28981 -3.28066,2.47343z" fill="#a8c8c0" stroke="none" stroke-width="0.5" stroke-linecap="butt"/><path d="M263.29676,237.12069v4.42816" fill="none" stroke="#a8c8c0" stroke-width="2.5" stroke-linecap="round"/><path d="M270.57637,237.14585v4.42816" fill="none" stroke="#a8c8c0" stroke-width="2.5" stroke-linecap="round"/></g><path d="M137.56823,41.75414c0,-6.62741 5.37258,-12 12,-12c6.62742,0 12,5.37259 12,12c0,6.62741 -5.37258,12 -12,12c-6.62742,0 -12,-5.37259 -12,-12z" fill="#ffffff" stroke="none" stroke-width="0" stroke-linecap="butt"/><path d="M213.56825,42.75414c0,-6.62741 5.37258,-12 12,-12c6.62742,0 12,5.37259 12,12c0,6.62741 -5.37258,12 -12,12c-6.62742,0 -12,-5.37259 -12,-12z" fill="#ffffff" stroke="none" stroke-width="0" stroke-linecap="butt"/><path d="M154.56823,22.75414c0,-6.62741 5.37258,-12 12,-12c6.62742,0 12,5.37259 12,12c0,6.62741 -5.37258,12 -12,12c-6.62742,0 -12,-5.37259 -12,-12z" fill="#ffffff" stroke="none" stroke-width="0" stroke-linecap="butt"/><path d="M172.56825,21.75414c0,-6.62741 5.37258,-12 12,-12c6.62742,0 12,5.37259 12,12c0,6.62741 -5.37258,12 -12,12c-6.62742,0 -12,-5.37259 -12,-12z" fill="#ffffff" stroke="none" stroke-width="0" stroke-linecap="butt"/><path d="M192.56825,21.25414c0,-6.62741 5.37258,-12 12,-12c6.62742,0 12,5.37259 12,12c0,6.62741 -5.37258,12 -12,12c-6.62742,0 -12,-5.37259 -12,-12z" fill="#ffffff" stroke="none" stroke-width="0" stroke-linecap="butt"/><path d="M167.56823,51.25414c6.62742,0 12,5.37259 12,12c0,6.62741 -5.37258,12 -12,12c-6.62742,0 -12,-5.37259 -12,-12c0,-6.62741 5.37258,-12 12,-12z" data-paper-data="{&quot;index&quot;:null}" fill="#ffffff" stroke="none" stroke-width="0" stroke-linecap="butt"/><path d="M185.56825,52.25414c6.62742,0 12,5.37259 12,12c0,6.62741 -5.37258,12 -12,12c-6.62742,0 -12,-5.37259 -12,-12c0,-6.62741 5.37258,-12 12,-12z" data-paper-data="{&quot;index&quot;:null}" fill="#ffffff" stroke="none" stroke-width="0" stroke-linecap="butt"/><path d="M205.56825,52.75414c6.62742,0 12,5.37259 12,12c0,6.62741 -5.37258,12 -12,12c-6.62742,0 -12,-5.37259 -12,-12c0,-6.62741 5.37258,-12 12,-12z" data-paper-data="{&quot;index&quot;:null}" fill="#ffffff" stroke="none" stroke-width="0" stroke-linecap="butt"/><path d="M157.83602,23.48637c1.76776,1.76776 0,3.53553 0,3.53553l-0.31632,-0.27747c-0.27881,1.11422 -0.22669,2.36929 -0.83643,3.34264c-1.4525,2.3187 -5.29698,4.01257 -7.68654,4.98826c0,0 -2.32119,0.92848 -3.24966,-1.39271c-0.92847,-2.32119 1.39272,-3.24967 1.39272,-3.24967c2.42007,-0.9425 5.21041,-1.96753 5.47702,-4.66909l1.68368,-2.27748c0,0 1.76777,-1.76776 3.53554,0z" fill="#ffffff" stroke="none" stroke-width="0.5" stroke-linecap="butt"/><path d="M234.06825,35.75414c0,2.5 -2.5,2.5 -2.5,2.5l-1.42847,-0.17881c-1.64351,-0.66552 -3.48242,-0.795 -5.09195,-1.53893c-1.74514,-0.8066 -3.42135,-2.69137 -4.74734,-4.0145c-4.71676,-4.70659 -7.70144,-8.3156 -7.73224,-15.26776c0,0 0,-2.5 2.5,-2.5c2.5,0 2.5,2.5 2.5,2.5c-0.03009,5.57278 2.50242,7.95822 6.26777,11.73223c0.2649,0.26551 2.53045,2.68399 3.25265,2.98551c1.5752,0.65764 3.32091,0.8328 4.90805,1.46107l-0.42847,-0.1788c0,0 2.5,0 2.5,2.5z" fill="#ffffff" stroke="none" stroke-width="0.5" stroke-linecap="butt"/><path d="M210.45022,66.49021c-2.23607,-1.11804 -1.11803,-3.3541 -1.11803,-3.3541l1.23606,-2.38196c4.74388,-6.2943 11.91888,-9.46014 19.07153,-12.3212c0,0 2.32119,-0.92847 3.24966,1.39272c0.92847,2.32119 -1.39272,3.24967 -1.39272,3.24967c-1.89128,0.75651 -6.95755,3.39754 -10.76583,6.67849c-3.4302,2.95524 -5.72657,6.61835 -5.72657,6.61835c0,0 -2.31803,1.23606 -4.5541,0.11803z" fill="#ffffff" stroke="none" stroke-width="0.5" stroke-linecap="butt"/><path d="M160.67459,64.6795c-2.42535,0.60634 -3.03169,-1.81901 -3.03169,-1.81901l-0.52609,-2.11605c-0.81348,-4.84392 -5.78876,-5.50911 -10.04855,-5.49029c0,0 -2.5,0 -2.5,-2.5c0,-2.5 2.5,-2.5 2.5,-2.5c6.93686,0.026 13.31832,2.11475 14.95145,9.50971l0.47391,1.88395c0,0 0.60634,2.42535 -1.81902,3.03169z" fill="#ffffff" stroke="none" stroke-width="0.5" stroke-linecap="butt"/><path d="M154.45729,54.20414l-1.4,-27.2c0,0 47.25405,-0.83176 57.79636,-0.7028c4.04805,0.04951 7.60363,1.5028 7.60363,1.5028c0,0 2.2,2.43444 2.2,4.8c0,5.08204 -2.2,24.4 -2.2,24.4c0,0 -25.05818,4.4862 -36.39956,3.99002c-9.75063,-0.42659 -27.60044,-6.79002 -27.60044,-6.79002z" fill="#ffffff" stroke="none" stroke-width="0" stroke-linecap="butt"/><g><path d="M191.23127,49.17808c-2.12102,0.66481 -4.64948,0.7655 -6.60172,0.14543c-1.42118,-0.45139 -2.30197,-1.45008 -3.64868,-2.08165c0,0 -1.11803,-0.52433 -0.55902,-1.57299c0.55901,-1.04866 1.67705,-0.52432 1.67705,-0.52432c1.10893,0.52006 3.2457,1.91749 5.39476,1.89614c2.77732,-0.02759 5.57516,-1.59974 6.20149,-1.89614c0,0 0.66277,-0.01562 0.96572,0.24116c0.29952,0.25388 0.24027,0.778 0.06304,1.15909c-0.5049,1.08567 -2.86895,2.43778 -3.49265,2.63327z" fill="#a8c8c0" stroke="none" stroke-width="0.5" stroke-linecap="butt"/><path d="M183.99524,36.27125v4.71429" fill="none" stroke="#a8c8c0" stroke-width="2.5" stroke-linecap="round"/><path d="M191.74524,36.29804v4.71429" fill="none" stroke="#a8c8c0" stroke-width="2.5" stroke-linecap="round"/></g><path d="M215.56159,53.67056c0,-1.24264 1.00736,-2.25 2.25,-2.25c1.24264,0 2.25,1.00736 2.25,2.25c0,1.24264 -1.00736,2.25 -2.25,2.25c-1.24264,0 -2.25,-1.00736 -2.25,-2.25z" fill="#ffffff" stroke="none" stroke-width="0" stroke-linecap="butt"/><path d="M-5.43175,97.90229c0,-5.84195 4.73584,-10.57778 10.57778,-10.57778c5.84194,0 10.57778,4.73583 10.57778,10.57778c0,5.84195 -4.73583,10.57778 -10.57777,10.57778c-5.84194,0 -10.57778,-4.73583 -10.57778,-10.57778z" fill="#ffffff" stroke="none" stroke-width="0" stroke-linecap="butt"/><path d="M61.56085,98.78377c0,-5.84195 4.73583,-10.57778 10.57777,-10.57778c5.84194,0 10.57778,4.73583 10.57778,10.57778c0,5.84195 -4.73584,10.57778 -10.57778,10.57778c-5.84195,0 -10.57777,-4.73583 -10.57777,-10.57778z" fill="#ffffff" stroke="none" stroke-width="0" stroke-linecap="butt"/><path d="M9.55344,81.15414c0,-5.84194 4.73583,-10.57778 10.57778,-10.57778c5.84194,0 10.57778,4.73584 10.57778,10.57778c0,5.84195 -4.73583,10.57778 -10.57778,10.57778c-5.84194,0 -10.57778,-4.73583 -10.57778,-10.57778z" fill="#ffffff" stroke="none" stroke-width="0" stroke-linecap="butt"/><path d="M25.4201,80.27266c0,-5.84194 4.73584,-10.57778 10.57778,-10.57778c5.84195,0 10.57777,4.73583 10.57777,10.57778c0,5.84195 -4.73583,10.57778 -10.57777,10.57778c-5.84194,0 -10.57778,-4.73583 -10.57778,-10.57778z" fill="#ffffff" stroke="none" stroke-width="0" stroke-linecap="butt"/><path d="M43.04973,79.83191c0,-5.84194 4.73584,-10.57778 10.57778,-10.57778c5.84195,0 10.57777,4.73583 10.57777,10.57778c0,5.84195 -4.73583,10.57778 -10.57777,10.57778c-5.84195,0 -10.57778,-4.73583 -10.57778,-10.57778z" fill="#ffffff" stroke="none" stroke-width="0" stroke-linecap="butt"/><path d="M21.0127,106.27636c5.84194,0 10.57778,4.73583 10.57778,10.57778c0,5.84195 -4.73583,10.57778 -10.57777,10.57778c-5.84194,0 -10.57778,-4.73584 -10.57778,-10.57778c0,-5.84195 4.73584,-10.57778 10.57778,-10.57778z" data-paper-data="{&quot;index&quot;:null}" fill="#ffffff" stroke="none" stroke-width="0" stroke-linecap="butt"/><path d="M36.87935,107.15785c5.84195,0 10.57778,4.73583 10.57778,10.57778c0,5.84195 -4.73584,10.57778 -10.57778,10.57778c-5.84194,0 -10.57777,-4.73583 -10.57777,-10.57778c0,-5.84195 4.73583,-10.57778 10.57778,-10.57778z" data-paper-data="{&quot;index&quot;:null}" fill="#ffffff" stroke="none" stroke-width="0" stroke-linecap="butt"/><path d="M54.50899,107.59859c5.84195,0 10.57778,4.73583 10.57778,10.57778c0,5.84195 -4.73584,10.57778 -10.57778,10.57778c-5.84195,0 -10.57777,-4.73583 -10.57777,-10.57778c0,-5.84195 4.73583,-10.57778 10.57777,-10.57778z" data-paper-data="{&quot;index&quot;:null}" fill="#ffffff" stroke="none" stroke-width="0" stroke-linecap="butt"/><path d="M12.43392,81.79958c1.55825,1.55825 0,3.11651 0,3.11651l-0.27883,-0.24459c-0.24577,0.98216 -0.19983,2.08848 -0.7373,2.94648c-1.28035,2.04388 -4.66919,3.537 -6.77554,4.39706c0,0 -2.04608,0.81844 -2.86452,-1.22765c-0.81843,-2.04609 1.22765,-2.86453 1.22765,-2.86453c2.13325,-0.83079 4.59288,-1.73434 4.8279,-4.11572l1.48414,-2.00756c0,0 1.55826,-1.55825 3.11651,0z" fill="#ffffff" stroke="none" stroke-width="0.5" stroke-linecap="butt"/><path d="M79.6312,92.6134c0,2.20371 -2.2037,2.2037 -2.2037,2.2037l-1.25917,-0.15762c-1.44872,-0.58665 -3.06969,-0.70078 -4.48846,-1.35654c-1.53831,-0.71101 -3.01586,-2.37239 -4.18469,-3.5387c-4.15773,-4.14878 -6.78868,-7.33005 -6.81583,-13.45826c0,0 0,-2.2037 2.20371,-2.2037c2.2037,0 2.2037,2.2037 2.2037,2.2037c-0.02652,4.9123 2.20584,7.01503 5.52492,10.34175c0.23351,0.23405 2.23055,2.36589 2.86715,2.63167c1.38851,0.57969 2.92731,0.7341 4.32635,1.28791l-0.37769,-0.15762c0,0 2.2037,0 2.2037,2.20371z" fill="#ffffff" stroke="none" stroke-width="0.5" stroke-linecap="butt"/><path d="M58.81235,119.70667c-1.97105,-0.98552 -0.98552,-2.95657 -0.98552,-2.95657l1.08957,-2.09966c4.18164,-5.54832 10.50627,-8.33893 16.8112,-10.86091c0,0 2.04609,-0.81843 2.86452,1.22765c0.81843,2.04609 -1.22765,2.86452 -1.22765,2.86452c-1.66713,0.66685 -6.13295,2.99487 -9.48989,5.88697c-3.02366,2.60498 -5.04787,5.83396 -5.04787,5.83396c0,0 -2.0433,1.08956 -4.01436,0.10404z" fill="#ffffff" stroke="none" stroke-width="0.5" stroke-linecap="butt"/><path d="M14.93606,118.11057c-2.1379,0.53447 -2.67238,-1.60343 -2.67238,-1.60343l-0.46374,-1.86526c-0.71706,-4.26982 -5.10268,-4.85618 -8.85761,-4.83958c0,0 -2.20371,0 -2.20371,-2.2037c0,-2.20371 2.20371,-2.20371 2.20371,-2.20371c6.11472,0.02292 11.73985,1.86411 13.17943,8.38263l0.41774,1.66067c0,0 0.53448,2.13791 -1.60343,2.67238z" fill="#ffffff" stroke="none" stroke-width="0.5" stroke-linecap="butt"/><path d="M9.45565,108.87673l-1.23408,-23.9763c0,0 41.65357,-0.73318 50.94643,-0.61951c3.56828,0.04364 6.70246,1.32469 6.70246,1.32469c0,0 1.93926,2.14592 1.93926,4.23111c0,4.47972 -1.93926,21.50815 -1.93926,21.50815c0,0 -22.08832,3.95451 -32.08554,3.51713c-8.595,-0.37603 -24.32927,-5.98528 -24.32927,-5.98528z" fill="#ffffff" stroke="none" stroke-width="0" stroke-linecap="butt"/><g><path d="M41.87121,104.44636c-1.86964,0.58602 -4.09843,0.67477 -5.81929,0.1282c-1.25274,-0.39789 -2.02914,-1.27822 -3.21625,-1.83494c0,0 -0.98553,-0.46218 -0.49277,-1.38656c0.49276,-0.92437 1.47829,-0.46219 1.47829,-0.46219c0.9775,0.45843 2.86103,1.69024 4.75539,1.67142c2.44816,-0.02432 4.91439,-1.41014 5.4665,-1.67142c0,0 0.58422,-0.01377 0.85126,0.21259c0.26402,0.22379 0.2118,0.68579 0.05557,1.02172c-0.44505,0.957 -2.52893,2.14886 -3.0787,2.32118z" fill="#a8c8c0" stroke="none" stroke-width="0.5" stroke-linecap="butt"/><path d="M35.49278,93.06923v4.15556" fill="none" stroke="#a8c8c0" stroke-width="2.5" stroke-linecap="round"/><path d="M42.32427,93.09284v4.15556" fill="none" stroke="#a8c8c0" stroke-width="2.5" stroke-linecap="round"/></g><path d="M63.31794,108.40639c0,-1.09536 0.88797,-1.98333 1.98334,-1.98333c1.09537,0 1.98333,0.88797 1.98333,1.98333c0,1.09536 -0.88797,1.98334 -1.98333,1.98334c-1.09537,0 -1.98334,-0.88797 -1.98334,-1.98334z" fill="#ffffff" stroke="none" stroke-width="0" stroke-linecap="butt"/><path d="M316.56825,59.90229c0,-5.84194 4.73584,-10.57778 10.57778,-10.57778c5.84195,0 10.57777,4.73584 10.57777,10.57778c0,5.84194 -4.73583,10.57778 -10.57777,10.57778c-5.84195,0 -10.57778,-4.73583 -10.57778,-10.57778z" fill="#ffffff" stroke="none" stroke-width="0" stroke-linecap="butt"/><path d="M383.56085,60.78377c0,-5.84194 4.73583,-10.57778 10.57778,-10.57778c5.84195,0 10.57778,4.73584 10.57778,10.57778c0,5.84194 -4.73583,10.57778 -10.57778,10.57778c-5.84195,0 -10.57778,-4.73583 -10.57778,-10.57778z" fill="#ffffff" stroke="none" stroke-width="0" stroke-linecap="butt"/><path d="M331.55343,43.15414c0,-5.84194 4.73584,-10.57778 10.57778,-10.57778c5.84195,0 10.57777,4.73584 10.57777,10.57778c0,5.84194 -4.73583,10.57778 -10.57777,10.57778c-5.84195,0 -10.57778,-4.73583 -10.57778,-10.57778z" fill="#ffffff" stroke="none" stroke-width="0" stroke-linecap="butt"/><path d="M347.4201,42.27266c0,-5.84194 4.73583,-10.57778 10.57778,-10.57778c5.84195,0 10.57778,4.73583 10.57778,10.57778c0,5.84194 -4.73583,10.57778 -10.57778,10.57778c-5.84195,0 -10.57778,-4.73583 -10.57778,-10.57778z" fill="#ffffff" stroke="none" stroke-width="0" stroke-linecap="butt"/><path d="M365.04973,41.83192c0,-5.84194 4.73584,-10.57778 10.57778,-10.57778c5.84195,0 10.57778,4.73584 10.57778,10.57778c0,5.84194 -4.73583,10.57778 -10.57778,10.57778c-5.84195,0 -10.57778,-4.73583 -10.57778,-10.57778z" fill="#ffffff" stroke="none" stroke-width="0" stroke-linecap="butt"/><path d="M343.0127,68.27635c5.84195,0 10.57778,4.73583 10.57778,10.57778c0,5.84195 -4.73583,10.57778 -10.57778,10.57778c-5.84195,0 -10.57778,-4.73584 -10.57778,-10.57778c0,-5.84194 4.73583,-10.57778 10.57778,-10.57778z" data-paper-data="{&quot;index&quot;:null}" fill="#ffffff" stroke="none" stroke-width="0" stroke-linecap="butt"/><path d="M358.87936,69.15784c5.84195,0 10.57778,4.73583 10.57778,10.57778c0,5.84195 -4.73584,10.57778 -10.57778,10.57778c-5.84195,0 -10.57777,-4.73583 -10.57777,-10.57778c0,-5.84194 4.73583,-10.57778 10.57777,-10.57778z" data-paper-data="{&quot;index&quot;:null}" fill="#ffffff" stroke="none" stroke-width="0" stroke-linecap="butt"/><path d="M376.50899,69.59859c5.84195,0 10.57778,4.73583 10.57778,10.57778c0,5.84195 -4.73584,10.57778 -10.57778,10.57778c-5.84195,0 -10.57778,-4.73583 -10.57778,-10.57778c0,-5.84194 4.73583,-10.57778 10.57778,-10.57778z" data-paper-data="{&quot;index&quot;:null}" fill="#ffffff" stroke="none" stroke-width="0" stroke-linecap="butt"/><path d="M334.4339,43.79959c1.55825,1.55825 0,3.11651 0,3.11651l-0.27883,-0.24459c-0.24577,0.98216 -0.19983,2.08848 -0.7373,2.94647c-1.28035,2.04389 -4.66919,3.53701 -6.77555,4.39706c0,0 -2.04608,0.81843 -2.86452,-1.22765c-0.81844,-2.04609 1.22765,-2.86453 1.22765,-2.86453c2.13325,-0.83079 4.59288,-1.73434 4.8279,-4.11572l1.48413,-2.00756c0,0 1.55826,-1.55825 3.11651,0z" fill="#ffffff" stroke="none" stroke-width="0.5" stroke-linecap="butt"/><path d="M401.63122,54.6134c0,2.2037 -2.20371,2.2037 -2.20371,2.2037l-1.25918,-0.15762c-1.44872,-0.58665 -3.06968,-0.70078 -4.48846,-1.35653c-1.53831,-0.71101 -3.01585,-2.37239 -4.18469,-3.53871c-4.15773,-4.14878 -6.78868,-7.33005 -6.81583,-13.45825c0,0 0,-2.2037 2.20371,-2.2037c2.20371,0 2.20371,2.2037 2.20371,2.2037c-0.02652,4.9123 2.20583,7.01503 5.52492,10.34175c0.23351,0.23404 2.23055,2.36589 2.86716,2.63167c1.38851,0.5797 2.92731,0.73409 4.32635,1.2879l-0.37769,-0.15761c0,0 2.20371,0 2.20371,2.2037z" fill="#ffffff" stroke="none" stroke-width="0.5" stroke-linecap="butt"/><path d="M380.81235,81.70667c-1.97105,-0.98552 -0.98552,-2.95658 -0.98552,-2.95658l1.08957,-2.09966c4.18164,-5.54832 10.50627,-8.33893 16.81119,-10.8609c0,0 2.04609,-0.81843 2.86452,1.22765c0.81844,2.04609 -1.22766,2.86452 -1.22766,2.86452c-1.66713,0.66685 -6.13295,2.99486 -9.48988,5.88697c-3.02366,2.60498 -5.04787,5.83396 -5.04787,5.83396c0,0 -2.04331,1.08956 -4.01436,0.10404z" fill="#ffffff" stroke="none" stroke-width="0.5" stroke-linecap="butt"/><path d="M336.93606,80.11056c-2.1379,0.53447 -2.67238,-1.60343 -2.67238,-1.60343l-0.46374,-1.86526c-0.71706,-4.26982 -5.10269,-4.85617 -8.85761,-4.83958c0,0 -2.20371,0 -2.20371,-2.20371c0,-2.2037 2.20371,-2.2037 2.20371,-2.2037c6.11471,0.02292 11.73985,1.86412 13.17942,8.38264l0.41774,1.66066c0,0 0.53447,2.13791 -1.60343,2.67239z" fill="#ffffff" stroke="none" stroke-width="0.5" stroke-linecap="butt"/><path d="M331.45565,70.87674l-1.23408,-23.9763c0,0 41.65357,-0.73318 50.94642,-0.6195c3.56828,0.04364 6.70247,1.32469 6.70247,1.32469c0,0 1.93926,2.14592 1.93926,4.23112c0,4.47972 -1.93926,21.50815 -1.93926,21.50815c0,0 -22.08832,3.95451 -32.08554,3.51713c-8.595,-0.37603 -24.32927,-5.98528 -24.32927,-5.98528z" fill="#ffffff" stroke="none" stroke-width="0" stroke-linecap="butt"/><g><path d="M363.87121,66.44636c-1.86964,0.58602 -4.09843,0.67477 -5.8193,0.12819c-1.25275,-0.39789 -2.02914,-1.27822 -3.21624,-1.83494c0,0 -0.98552,-0.46218 -0.49277,-1.38655c0.49276,-0.92437 1.47829,-0.46219 1.47829,-0.46219c0.9775,0.45843 2.86103,1.69024 4.75538,1.67142c2.44816,-0.02432 4.9144,-1.41014 5.4665,-1.67142c0,0 0.58422,-0.01377 0.85126,0.21259c0.26401,0.22379 0.2118,0.68579 0.05558,1.02172c-0.44506,0.957 -2.52893,2.14886 -3.0787,2.32118z" fill="#a8c8c0" stroke="none" stroke-width="0.5" stroke-linecap="butt"/><path d="M357.49278,55.06923v4.15556" fill="none" stroke="#a8c8c0" stroke-width="2.5" stroke-linecap="round"/><path d="M364.32427,55.09284v4.15556" fill="none" stroke="#a8c8c0" stroke-width="2.5" stroke-linecap="round"/></g><path d="M385.31794,70.40639c0,-1.09537 0.88797,-1.98333 1.98334,-1.98333c1.09537,0 1.98333,0.88796 1.98333,1.98333c0,1.09537 -0.88796,1.98334 -1.98333,1.98334c-1.09537,0 -1.98334,-0.88797 -1.98334,-1.98334z" fill="#ffffff" stroke="none" stroke-width="0" stroke-linecap="butt"/><path d="M326.56825,180.27266c0,-6.52923 5.29299,-11.82223 11.82222,-11.82223c6.52923,0 11.82223,5.29299 11.82223,11.82223c0,6.52923 -5.293,11.82222 -11.82223,11.82222c-6.52923,0 -11.82222,-5.29299 -11.82222,-11.82222z" fill="#ffffff" stroke="none" stroke-width="0" stroke-linecap="butt"/><path d="M401.44233,181.25785c0,-6.52923 5.29299,-11.82223 11.82222,-11.82223c6.52923,0 11.82223,5.29299 11.82223,11.82223c0,6.52923 -5.293,11.82222 -11.82223,11.82222c-6.52923,0 -11.82222,-5.29299 -11.82222,-11.82222z" fill="#ffffff" stroke="none" stroke-width="0" stroke-linecap="butt"/><path d="M343.3164,161.55414c0,-6.52923 5.29299,-11.82222 11.82222,-11.82222c6.52923,0 11.82222,5.29299 11.82222,11.82222c0,6.52923 -5.29299,11.82222 -11.82222,11.82222c-6.52923,0 -11.82222,-5.29299 -11.82222,-11.82222z" fill="#ffffff" stroke="none" stroke-width="0" stroke-linecap="butt"/><path d="M361.04973,160.56895c0,-6.52923 5.293,-11.82222 11.82223,-11.82222c6.52923,0 11.82222,5.29299 11.82222,11.82222c0,6.52923 -5.29299,11.82222 -11.82222,11.82222c-6.52923,0 -11.82223,-5.29299 -11.82223,-11.82222z" fill="#ffffff" stroke="none" stroke-width="0" stroke-linecap="butt"/><path d="M380.75344,160.07636c0,-6.52923 5.29299,-11.82222 11.82222,-11.82222c6.52923,0 11.82223,5.29299 11.82223,11.82222c0,6.52923 -5.293,11.82223 -11.82223,11.82223c-6.52923,0 -11.82222,-5.29299 -11.82222,-11.82223z" fill="#ffffff" stroke="none" stroke-width="0" stroke-linecap="butt"/><path d="M356.12381,189.63192c6.52923,0 11.82222,5.29299 11.82222,11.82222c0,6.52923 -5.29299,11.82222 -11.82222,11.82222c-6.52923,0 -11.82222,-5.29299 -11.82222,-11.82222c0,-6.52923 5.29299,-11.82222 11.82222,-11.82222z" data-paper-data="{&quot;index&quot;:null}" fill="#ffffff" stroke="none" stroke-width="0" stroke-linecap="butt"/><path d="M373.85714,190.61711c6.52923,0 11.82222,5.29299 11.82222,11.82222c0,6.52923 -5.29299,11.82222 -11.82222,11.82222c-6.52923,0 -11.82223,-5.29299 -11.82223,-11.82222c0,-6.52923 5.293,-11.82222 11.82223,-11.82222z" data-paper-data="{&quot;index&quot;:null}" fill="#ffffff" stroke="none" stroke-width="0" stroke-linecap="butt"/><path d="M393.56085,191.1097c6.52923,0 11.82222,5.29299 11.82222,11.82223c0,6.52923 -5.29299,11.82222 -11.82222,11.82222c-6.52923,0 -11.82223,-5.29299 -11.82223,-11.82222c0,-6.52923 5.293,-11.82223 11.82223,-11.82223z" data-paper-data="{&quot;index&quot;:null}" fill="#ffffff" stroke="none" stroke-width="0" stroke-linecap="butt"/><path d="M346.53576,162.27552c1.74158,1.74158 0,3.48316 0,3.48316l-0.31163,-0.27336c-0.27468,1.09771 -0.22333,2.33418 -0.82404,3.29312c-1.43098,2.28435 -5.2185,3.95313 -7.57267,4.91436c0,0 -2.28681,0.91472 -3.20153,-1.37208c-0.91472,-2.2868 1.37209,-3.20153 1.37209,-3.20153c2.38422,-0.92854 5.13321,-1.93839 5.39588,-4.59993l1.65874,-2.24374c0,0 1.74158,-1.74158 3.48316,0z" fill="#ffffff" stroke="none" stroke-width="0.5" stroke-linecap="butt"/><path d="M421.63862,174.36155c0,2.46296 -2.46296,2.46296 -2.46296,2.46296l-1.40731,-0.17616c-1.61915,-0.65566 -3.43082,-0.78322 -5.01651,-1.51612c-1.71929,-0.79465 -3.37066,-2.6515 -4.67701,-3.95503c-4.64688,-4.63687 -7.58733,-8.19241 -7.61768,-15.04157c0,0 0,-2.46296 2.46296,-2.46296c2.46296,0 2.46296,2.46296 2.46296,2.46296c-0.02964,5.49022 2.46535,7.84032 6.17491,11.55842c0.26098,0.26158 2.49296,2.64423 3.20446,2.94128c1.55187,0.6479 3.27171,0.82047 4.83534,1.43943l-0.42213,-0.17616c0,0 2.46296,0 2.46296,2.46296z" fill="#ffffff" stroke="none" stroke-width="0.5" stroke-linecap="butt"/><path d="M398.37048,204.64227c-2.20294,-1.10147 -1.10147,-3.30441 -1.10147,-3.30441l1.21776,-2.34668c4.67359,-6.20105 11.7423,-9.31998 18.78898,-12.13865c0,0 2.28681,-0.91472 3.20153,1.37208c0.91472,2.2868 -1.37208,3.20153 -1.37208,3.20153c-1.86326,0.7453 -6.85448,3.3472 -10.60634,6.57955c-3.37938,2.91145 -5.64173,6.5203 -5.64173,6.5203c0,0 -2.28369,1.21776 -4.48664,0.11629z" fill="#ffffff" stroke="none" stroke-width="0.5" stroke-linecap="butt"/><path d="M349.33228,202.85838c-2.38943,0.59735 -2.98678,-1.79207 -2.98678,-1.79207l-0.5183,-2.0847c-0.80142,-4.77216 -5.703,-5.42749 -9.89968,-5.40895c0,0 -2.46296,0 -2.46296,-2.46296c0,-2.46296 2.46296,-2.46296 2.46296,-2.46296c6.83409,0.02561 13.12101,2.08342 14.72994,9.36882l0.46688,1.85604c0,0 0.59736,2.38943 -1.79206,2.98678z" fill="#ffffff" stroke="none" stroke-width="0.5" stroke-linecap="butt"/><path d="M343.20711,192.53822l-1.37926,-26.79704c0,0 46.554,-0.81943 56.94013,-0.69239c3.98808,0.04878 7.49099,1.48054 7.49099,1.48054c0,0 2.1674,2.39838 2.1674,4.72889c0,5.00674 -2.1674,24.03852 -2.1674,24.03852c0,0 -24.68695,4.41974 -35.86032,3.9309c-9.60618,-0.42027 -27.19154,-6.68942 -27.19154,-6.68942z" fill="#ffffff" stroke="none" stroke-width="0" stroke-linecap="butt"/><g><path d="M379.43626,187.58662c-2.08959,0.65496 -4.5806,0.75416 -6.50392,0.14328c-1.40013,-0.4447 -2.26787,-1.42859 -3.59463,-2.05081c0,0 -1.10147,-0.51656 -0.55074,-1.54969c0.55073,-1.03313 1.6522,-0.51656 1.6522,-0.51656c1.0925,0.51236 3.19763,1.88909 5.31485,1.86806c2.73618,-0.02717 5.49256,-1.57604 6.10961,-1.86806c0,0 0.65296,-0.01539 0.95141,0.23759c0.29508,0.25012 0.23672,0.76648 0.06211,1.14193c-0.49741,1.06958 -2.82645,2.40166 -3.4409,2.59425z" fill="#a8c8c0" stroke="none" stroke-width="0.5" stroke-linecap="butt"/><path d="M372.30744,179.51545v-4.64445" fill="none" stroke="#a8c8c0" stroke-width="2.5" stroke-linecap="round"/><path d="M379.94262,179.54184v-4.64445" fill="none" stroke="#a8c8c0" stroke-width="2.5" stroke-linecap="round"/></g><path d="M403.40614,192.01254c0,-1.22423 0.99244,-2.21667 2.21666,-2.21667c1.22423,0 2.21666,0.99244 2.21666,2.21667c0,1.22423 -0.99244,2.21667 -2.21666,2.21667c-1.22423,0 -2.21666,-0.99244 -2.21666,-2.21667z" fill="#ffffff" stroke="none" stroke-width="0" stroke-linecap="butt"/><path d="M202.30899,179.0134c0,-5.25284 4.25827,-9.51111 9.51111,-9.51111c5.25284,0 9.51112,4.25827 9.51112,9.51111c0,5.25284 -4.25828,9.51111 -9.51112,9.51111c-5.25284,0 -9.51111,-4.25827 -9.51111,-9.51111z" fill="#ffffff" stroke="none" stroke-width="0" stroke-linecap="butt"/><path d="M262.54603,179.80599c0,-5.25284 4.25827,-9.51111 9.51111,-9.51111c5.25284,0 9.51111,4.25827 9.51111,9.51111c0,5.25284 -4.25827,9.51111 -9.51111,9.51111c-5.25284,0 -9.51111,-4.25827 -9.51111,-9.51111z" fill="#ffffff" stroke="none" stroke-width="0" stroke-linecap="butt"/><path d="M215.78307,163.95414c0,-5.25284 4.25827,-9.51111 9.51111,-9.51111c5.25284,0 9.51111,4.25827 9.51111,9.51111c0,5.25284 -4.25827,9.51111 -9.51111,9.51111c-5.25284,0 -9.51111,-4.25827 -9.51111,-9.51111z" fill="#ffffff" stroke="none" stroke-width="0" stroke-linecap="butt"/><path d="M230.04973,163.16154c0,-5.25284 4.25827,-9.51111 9.51111,-9.51111c5.25284,0 9.51111,4.25827 9.51111,9.51111c0,5.25284 -4.25827,9.51111 -9.51111,9.51111c-5.25284,0 -9.51111,-4.25827 -9.51111,-9.51111z" fill="#ffffff" stroke="none" stroke-width="0" stroke-linecap="butt"/><path d="M245.90159,162.76525c0,-5.25284 4.25827,-9.51111 9.51111,-9.51111c5.25284,0 9.51111,4.25827 9.51111,9.51111c0,5.25284 -4.25827,9.51111 -9.51111,9.51111c-5.25284,0 -9.51111,-4.25827 -9.51111,-9.51111z" fill="#ffffff" stroke="none" stroke-width="0" stroke-linecap="butt"/><path d="M226.08677,186.54303c5.25284,0 9.51111,4.25827 9.51111,9.51111c0,5.25284 -4.25827,9.51111 -9.51111,9.51111c-5.25284,0 -9.51111,-4.25827 -9.51111,-9.51111c0,-5.25284 4.25827,-9.51111 9.51111,-9.51111z" data-paper-data="{&quot;index&quot;:null}" fill="#ffffff" stroke="none" stroke-width="0" stroke-linecap="butt"/><path d="M240.35344,187.33562c5.25284,0 9.51111,4.25827 9.51111,9.51111c0,5.25284 -4.25827,9.51111 -9.51111,9.51111c-5.25284,0 -9.51111,-4.25827 -9.51111,-9.51111c0,-5.25284 4.25827,-9.51111 9.51111,-9.51111z" data-paper-data="{&quot;index&quot;:null}" fill="#ffffff" stroke="none" stroke-width="0" stroke-linecap="butt"/><path d="M256.20529,187.73192c5.25284,0 9.51111,4.25827 9.51111,9.51111c0,5.25284 -4.25827,9.51111 -9.51111,9.51111c-5.25284,0 -9.51111,-4.25827 -9.51111,-9.51111c0,-5.25284 4.25827,-9.51111 9.51111,-9.51111z" data-paper-data="{&quot;index&quot;:null}" fill="#ffffff" stroke="none" stroke-width="0" stroke-linecap="butt"/><path d="M218.37308,164.5345c1.40112,1.40112 0,2.80224 0,2.80224l-0.25071,-0.21993c-0.22099,0.88312 -0.17967,1.87787 -0.66295,2.64935c-1.15124,1.83778 -4.19835,3.18034 -6.0923,3.95366c0,0 -1.83976,0.73591 -2.57566,-1.10386c-0.7359,-1.83976 1.10385,-2.57566 1.10385,-2.57566c1.91814,-0.74702 4.12973,-1.55945 4.34105,-3.70069l1.33447,-1.80512c0,0 1.40112,-1.40112 2.80224,0z" fill="#ffffff" stroke="none" stroke-width="0.5" stroke-linecap="butt"/><path d="M278.79418,174.25785c0,1.98148 -1.98148,1.98148 -1.98148,1.98148l-1.1322,-0.14173c-1.30263,-0.52749 -2.76013,-0.63011 -4.03584,-1.21974c-1.38319,-0.63931 -2.71174,-2.13315 -3.76271,-3.18186c-3.73847,-3.73041 -6.1041,-6.59088 -6.12851,-12.10112c0,0 0,-1.98148 1.98148,-1.98148c1.98148,0 1.98148,1.98148 1.98148,1.98148c-0.02384,4.41694 1.98339,6.30763 4.96778,9.29888c0.20996,0.21044 2.00562,2.12731 2.57803,2.36629c1.24849,0.52124 2.63212,0.66007 3.89008,1.15803l-0.33961,-0.14172c0,0 1.98148,0 1.98148,1.98148z" fill="#ffffff" stroke="none" stroke-width="0.5" stroke-linecap="butt"/><path d="M260.0747,198.61902c-1.7723,-0.88614 -0.88614,-2.65843 -0.88614,-2.65843l0.9797,-1.88792c3.75996,-4.98882 9.44682,-7.49804 15.11595,-9.76569c0,0 1.83976,-0.73591 2.57566,1.10386c0.7359,1.83976 -1.10386,2.57566 -1.10386,2.57566c-1.49901,0.5996 -5.5145,2.69286 -8.53292,5.29333c-2.71875,2.3423 -4.53884,5.24565 -4.53884,5.24565c0,0 -1.83726,0.97969 -3.60955,0.09355z" fill="#ffffff" stroke="none" stroke-width="0.5" stroke-linecap="butt"/><path d="M220.62291,197.18387c-1.92232,0.48058 -2.4029,-1.44173 -2.4029,-1.44173l-0.41698,-1.67717c-0.64476,-3.83926 -4.58812,-4.36648 -7.9644,-4.35156c0,0 -1.98148,0 -1.98148,-1.98148c0,-1.98148 1.98148,-1.98148 1.98148,-1.98148c5.49811,0.0206 10.556,1.67614 11.85041,7.53733l0.37561,1.4932c0,0 0.48059,1.92232 -1.44173,2.4029z" fill="#ffffff" stroke="none" stroke-width="0.5" stroke-linecap="butt"/><path d="M215.69514,188.88118l-1.10963,-21.55851c0,0 37.45322,-0.65925 45.80897,-0.55704c3.20846,0.03924 6.02659,1.19111 6.02659,1.19111c0,0 1.7437,1.92952 1.7437,3.80444c0,4.02799 -1.7437,19.33926 -1.7437,19.33926c0,0 -19.86093,3.55573 -28.85003,3.16246c-7.72827,-0.33811 -21.8759,-5.38172 -21.8759,-5.38172z" fill="#ffffff" stroke="none" stroke-width="0" stroke-linecap="butt"/><g><path d="M244.84191,184.89756c-1.68111,0.52692 -3.68515,0.60673 -5.23247,0.11527c-1.12642,-0.35777 -1.82453,-1.14932 -2.89192,-1.6499c0,0 -0.88614,-0.41557 -0.44307,-1.24674c0.44307,-0.83116 1.32922,-0.41558 1.32922,-0.41558c0.87893,0.41219 2.57252,1.5198 4.27585,1.50288c2.20129,-0.02186 4.41883,-1.26795 4.91526,-1.50288c0,0 0.52531,-0.01238 0.76542,0.19115c0.23739,0.20122 0.19044,0.61664 0.04997,0.91869c-0.40017,0.86049 -2.27391,1.93216 -2.76824,2.0871z" fill="#a8c8c0" stroke="none" stroke-width="0.5" stroke-linecap="butt"/><path d="M239.10668,174.66771v3.73651" fill="none" stroke="#a8c8c0" stroke-width="2.5" stroke-linecap="round"/><path d="M245.24927,174.68894v3.73651" fill="none" stroke="#a8c8c0" stroke-width="2.5" stroke-linecap="round"/></g><path d="M264.12594,188.45826c0,-0.9849 0.79843,-1.78333 1.78334,-1.78333c0.98491,0 1.78333,0.79842 1.78333,1.78333c0,0.9849 -0.79842,1.78334 -1.78333,1.78334c-0.98491,0 -1.78334,-0.79843 -1.78334,-1.78334z" fill="#ffffff" stroke="none" stroke-width="0" stroke-linecap="butt"/><path d="M398.56825,250.56896c0,-4.95829 4.01949,-8.97778 8.97778,-8.97778c4.95829,0 8.97778,4.01949 8.97778,8.97778c0,4.95829 -4.01949,8.97778 -8.97778,8.97778c-4.95829,0 -8.97778,-4.01949 -8.97778,-8.97778z" fill="#ffffff" stroke="none" stroke-width="0" stroke-linecap="butt"/><path d="M455.42751,251.31711c0,-4.95829 4.01949,-8.97778 8.97778,-8.97778c4.95829,0 8.97778,4.01949 8.97778,8.97778c0,4.95829 -4.01949,8.97778 -8.97778,8.97778c-4.95829,0 -8.97778,-4.01949 -8.97778,-8.97778z" fill="#ffffff" stroke="none" stroke-width="0" stroke-linecap="butt"/><path d="M411.28677,236.35414c0,-4.95829 4.01949,-8.97778 8.97778,-8.97778c4.95829,0 8.97778,4.01949 8.97778,8.97778c0,4.95829 -4.01949,8.97778 -8.97778,8.97778c-4.95829,0 -8.97778,-4.01949 -8.97778,-8.97778z" fill="#ffffff" stroke="none" stroke-width="0" stroke-linecap="butt"/><path d="M424.75344,235.60599c0,-4.95829 4.01949,-8.97778 8.97778,-8.97778c4.95829,0 8.97778,4.01949 8.97778,8.97778c0,4.95829 -4.01949,8.97778 -8.97778,8.97778c-4.95829,0 -8.97778,-4.01949 -8.97778,-8.97778z" fill="#ffffff" stroke="none" stroke-width="0" stroke-linecap="butt"/><path d="M439.7164,235.23192c0,-4.95829 4.01949,-8.97778 8.97778,-8.97778c4.95829,0 8.97778,4.01949 8.97778,8.97778c0,4.95829 -4.01949,8.97778 -8.97778,8.97778c-4.95829,0 -8.97778,-4.01949 -8.97778,-8.97778z" fill="#ffffff" stroke="none" stroke-width="0" stroke-linecap="butt"/><path d="M421.0127,257.67636c4.95829,0 8.97778,4.01949 8.97778,8.97778c0,4.95829 -4.01949,8.97778 -8.97778,8.97778c-4.95829,0 -8.97778,-4.01949 -8.97778,-8.97778c0,-4.95829 4.01949,-8.97778 8.97778,-8.97778z" data-paper-data="{&quot;index&quot;:null}" fill="#ffffff" stroke="none" stroke-width="0" stroke-linecap="butt"/><path d="M434.47936,258.42451c4.95829,0 8.97778,4.01949 8.97778,8.97778c0,4.95829 -4.01949,8.97778 -8.97778,8.97778c-4.95829,0 -8.97778,-4.01949 -8.97778,-8.97778c0,-4.95829 4.01949,-8.97778 8.97778,-8.97778z" data-paper-data="{&quot;index&quot;:null}" fill="#ffffff" stroke="none" stroke-width="0" stroke-linecap="butt"/><path d="M449.44233,258.79859c4.95829,0 8.97778,4.01949 8.97778,8.97778c0,4.95829 -4.01949,8.97778 -8.97778,8.97778c-4.95829,0 -8.97778,-4.01949 -8.97778,-8.97778c0,-4.95829 4.01949,-8.97778 8.97778,-8.97778z" data-paper-data="{&quot;index&quot;:null}" fill="#ffffff" stroke="none" stroke-width="0" stroke-linecap="butt"/><path d="M413.73155,236.90195c1.32255,1.32255 0,2.64511 0,2.64511l-0.23665,-0.20759c-0.20859,0.8336 -0.1696,1.77258 -0.62578,2.50079c-1.08668,1.73473 -3.96292,3.002 -5.75068,3.73196c0,0 -1.73659,0.69464 -2.43123,-1.04196c-0.69464,-1.7366 1.04196,-2.43124 1.04196,-2.43124c1.81058,-0.70513 3.89816,-1.472 4.09763,-3.49317l1.25964,-1.7039c0,0 1.32256,-1.32255 2.64511,0z" fill="#ffffff" stroke="none" stroke-width="0.5" stroke-linecap="butt"/><path d="M470.76455,246.08007c0,1.87037 -1.87037,1.87037 -1.87037,1.87037l-1.06871,-0.13378c-1.22958,-0.49791 -2.60537,-0.59478 -3.80953,-1.15134c-1.30563,-0.60345 -2.55968,-2.01355 -3.55171,-3.00344c-3.52883,-3.52123 -5.76181,-6.2213 -5.78486,-11.42255c0,0 0,-1.87037 1.87037,-1.87037c1.87037,0 1.87037,1.87037 1.87037,1.87037c-0.02251,4.16926 1.87218,5.95393 4.68922,8.77745c0.19819,0.19864 1.89315,2.00802 2.43347,2.2336c1.17849,0.49201 2.48453,0.62306 3.67195,1.0931l-0.32056,-0.13378c0,0 1.87037,0 1.87037,1.87037z" fill="#ffffff" stroke="none" stroke-width="0.5" stroke-linecap="butt"/><path d="M453.09476,269.0752c-1.67291,-0.83646 -0.83645,-2.50937 -0.83645,-2.50937l0.92476,-1.78206c3.54912,-4.70907 8.91708,-7.07758 14.26833,-9.21808c0,0 1.73659,-0.69464 2.43123,1.04196c0.69464,1.7366 -1.04195,2.43123 -1.04195,2.43123c-1.41496,0.56598 -5.20528,2.54186 -8.05444,4.99651c-2.5663,2.21096 -4.28433,4.9515 -4.28433,4.9515c0,0 -1.73424,0.92476 -3.40715,0.0883z" fill="#ffffff" stroke="none" stroke-width="0.5" stroke-linecap="butt"/><path d="M415.85522,267.72051c-1.81453,0.45363 -2.26816,-1.36089 -2.26816,-1.36089l-0.3936,-1.58312c-0.6086,-3.62397 -4.33085,-4.12163 -7.5178,-4.10755c0,0 -1.87037,0 -1.87037,-1.87037c0,-1.87037 1.87037,-1.87037 1.87037,-1.87037c5.1898,0.01945 9.96407,1.58214 11.1859,7.11467l0.35456,1.40947c0,0 0.45363,1.81453 -1.36089,2.26816z" fill="#ffffff" stroke="none" stroke-width="0.5" stroke-linecap="butt"/><path d="M411.20378,259.8834l-1.04741,-20.34963c0,0 35.35303,-0.62228 43.24024,-0.5258c3.02854,0.03704 5.68865,1.12432 5.68865,1.12432c0,0 1.64593,1.82132 1.64593,3.59111c0,3.80212 -1.64593,18.25482 -1.64593,18.25482c0,0 -18.74723,3.35634 -27.23227,2.98512c-7.29492,-0.31916 -20.64921,-5.07994 -20.64921,-5.07994z" fill="#ffffff" stroke="none" stroke-width="0" stroke-linecap="butt"/><g><path d="M438.71614,256.12316c-1.58684,0.49737 -3.4785,0.57271 -4.93907,0.10881c-1.06326,-0.33771 -1.72222,-1.08488 -2.72976,-1.55739c0,0 -0.83646,-0.39227 -0.41823,-1.17682c0.41823,-0.78456 1.25468,-0.39227 1.25468,-0.39227c0.82965,0.38908 2.42827,1.43456 4.03608,1.41859c2.07785,-0.02064 4.17104,-1.19684 4.63963,-1.41859c0,0 0.49585,-0.01169 0.7225,0.18042c0.22408,0.18995 0.17976,0.58207 0.04717,0.86718c-0.37773,0.81224 -2.1464,1.82382 -2.61301,1.97007z" fill="#a8c8c0" stroke="none" stroke-width="0.5" stroke-linecap="butt"/><path d="M433.30252,249.99394v-3.52699" fill="none" stroke="#a8c8c0" stroke-width="2.5" stroke-linecap="round"/><path d="M439.10067,250.01398v-3.52699" fill="none" stroke="#a8c8c0" stroke-width="2.5" stroke-linecap="round"/></g><path d="M456.91883,259.4842c0,-0.92968 0.75365,-1.68333 1.68333,-1.68333c0.92968,0 1.68333,0.75365 1.68333,1.68333c0,0.92968 -0.75365,1.68333 -1.68333,1.68333c-0.92968,0 -1.68333,-0.75365 -1.68333,-1.68333z" fill="#ffffff" stroke="none" stroke-width="0" stroke-linecap="butt"/><g><path d="M54.23491,215.88408c0,-5.43039 4.4022,-9.83259 9.83259,-9.83259c5.43039,0 9.83259,4.40221 9.83259,9.83259c0,5.43039 -4.4022,9.83259 -9.83259,9.83259c-5.43039,0 -9.83259,-4.40221 -9.83259,-9.83259z" fill="#ffffff" stroke="none" stroke-width="0" stroke-linecap="butt"/><path d="M116.508,216.70346c0,-5.43039 4.40219,-9.83259 9.83259,-9.83259c5.43039,0 9.83259,4.40221 9.83259,9.83259c0,5.43039 -4.4022,9.8326 -9.83259,9.8326c-5.4304,0 -9.83259,-4.40221 -9.83259,-9.8326z" fill="#ffffff" stroke="none" stroke-width="0" stroke-linecap="butt"/><path d="M68.16442,200.31581c0,-5.43039 4.40219,-9.83259 9.83259,-9.83259c5.4304,0 9.83259,4.40221 9.83259,9.83259c0,5.43039 -4.4022,9.83259 -9.83259,9.83259c-5.4304,0 -9.83259,-4.40221 -9.83259,-9.83259z" fill="#ffffff" stroke="none" stroke-width="0" stroke-linecap="butt"/><path d="M82.9133,199.49643c0,-5.43039 4.4022,-9.83259 9.83259,-9.83259c5.4304,0 9.83259,4.40221 9.83259,9.83259c0,5.43039 -4.40219,9.83259 -9.83259,9.83259c-5.4304,0 -9.83259,-4.40221 -9.83259,-9.83259z" fill="#ffffff" stroke="none" stroke-width="0" stroke-linecap="butt"/><path d="M99.30096,199.08674c0,-5.43039 4.4022,-9.83259 9.83259,-9.83259c5.4304,0 9.83259,4.40221 9.83259,9.83259c0,5.43039 -4.40219,9.83259 -9.83259,9.83259c-5.4304,0 -9.83259,-4.40221 -9.83259,-9.83259z" fill="#ffffff" stroke="none" stroke-width="0" stroke-linecap="butt"/><path d="M78.8164,223.66822c5.4304,0 9.83259,4.4022 9.83259,9.83259c0,5.43039 -4.40219,9.83259 -9.83259,9.83259c-5.4304,0 -9.83259,-4.40221 -9.83259,-9.83259c0,-5.43039 4.4022,-9.83259 9.83259,-9.83259z" data-paper-data="{&quot;index&quot;:null}" fill="#ffffff" stroke="none" stroke-width="0" stroke-linecap="butt"/><path d="M93.56528,224.4876c5.4304,0 9.83259,4.40221 9.83259,9.8326c0,5.43039 -4.4022,9.83259 -9.83259,9.83259c-5.4304,0 -9.83259,-4.4022 -9.83259,-9.83259c0,-5.43039 4.40219,-9.8326 9.83259,-9.8326z" data-paper-data="{&quot;index&quot;:null}" fill="#ffffff" stroke="none" stroke-width="0" stroke-linecap="butt"/><path d="M109.95294,224.89729c5.4304,0 9.8326,4.4022 9.8326,9.83259c0,5.43039 -4.4022,9.8326 -9.8326,9.8326c-5.4304,0 -9.83259,-4.40221 -9.83259,-9.8326c0,-5.43039 4.40219,-9.83259 9.83259,-9.83259z" data-paper-data="{&quot;index&quot;:null}" fill="#ffffff" stroke="none" stroke-width="0" stroke-linecap="butt"/><path d="M70.84197,200.91579c1.44847,1.44847 0,2.89695 0,2.89695l-0.25919,-0.22735c-0.22845,0.91297 -0.18574,1.94136 -0.68536,2.7389c-1.19016,1.89991 -4.34025,3.28783 -6.29822,4.08729c0,0 -1.90195,0.76078 -2.66272,-1.14116c-0.76077,-1.90195 1.14117,-2.66272 1.14117,-2.66272c1.98297,-0.77227 4.26932,-1.61216 4.48777,-3.82577l1.37958,-1.86613c0,0 1.44848,-1.44847 2.89696,0z" fill="#ffffff" stroke="none" stroke-width="0.5" stroke-linecap="butt"/><path d="M133.30534,210.96778c0,2.04845 -2.04846,2.04846 -2.04846,2.04846l-1.17046,-0.14651c-1.34667,-0.54532 -2.85344,-0.65141 -4.17226,-1.26098c-1.42994,-0.66091 -2.80339,-2.20526 -3.88989,-3.28941c-3.86483,-3.8565 -6.31043,-6.81366 -6.33567,-12.51014c0,0 0,-2.04845 2.04846,-2.04845c2.04846,0 2.04846,2.04845 2.04846,2.04845c-0.02465,4.56624 2.05043,6.52083 5.1357,9.61319c0.21706,0.21756 2.0734,2.19922 2.66516,2.44628c1.29069,0.53886 2.7211,0.68238 4.02157,1.19717l-0.35108,-0.1465c0,0 2.04846,0 2.04846,2.04845z" fill="#ffffff" stroke="none" stroke-width="0.5" stroke-linecap="butt"/><path d="M113.95314,236.15238c-1.83219,-0.91611 -0.91609,-2.74829 -0.91609,-2.74829l1.01281,-1.95173c3.88706,-5.15744 9.76612,-7.75147 15.62688,-10.09578c0,0 1.90194,-0.76078 2.66272,1.14117c0.76077,1.90195 -1.14117,2.66273 -1.14117,2.66273c-1.54968,0.61987 -5.70089,2.78388 -8.82133,5.47224c-2.81064,2.42147 -4.69225,5.42296 -4.69225,5.42296c0,0 -1.89935,1.0128 -3.73155,0.09671z" fill="#ffffff" stroke="none" stroke-width="0.5" stroke-linecap="butt"/><path d="M73.16785,234.66872c-1.98729,0.49683 -2.48411,-1.49047 -2.48411,-1.49047l-0.43107,-1.73385c-0.66655,-3.96902 -4.74321,-4.51407 -8.23361,-4.49865c0,0 -2.04845,-0.00001 -2.04845,-2.04846c0,-2.04845 2.04845,-2.04845 2.04845,-2.04845c5.68395,0.0213 10.9128,1.73279 12.25096,7.79209l0.38832,1.54368c0,0 0.49683,1.98728 -1.49048,2.48411z" fill="#ffffff" stroke="none" stroke-width="0.5" stroke-linecap="butt"/><path d="M68.07352,226.0854l-1.14713,-22.28721c0,0 38.71915,-0.68154 47.35734,-0.57587c3.3169,0.04057 6.23028,1.23137 6.23028,1.23137c0,0 1.80264,1.99474 1.80264,3.93304c0,4.16413 -1.80264,19.99294 -1.80264,19.99294c0,0 -20.53224,3.67592 -29.82517,3.26936c-7.9895,-0.34954 -22.61533,-5.56363 -22.61533,-5.56363z" fill="#ffffff" stroke="none" stroke-width="0" stroke-linecap="butt"/><g><path d="M98.20547,221.96713c-1.73793,0.54474 -3.80971,0.62724 -5.40934,0.11917c-1.16449,-0.36986 -1.8862,-1.18817 -2.98967,-1.70567c0,0 -0.91609,-0.42962 -0.45805,-1.28888c0.45804,-0.85926 1.37414,-0.42962 1.37414,-0.42962c0.90864,0.42613 2.65947,1.57116 4.42038,1.55366c2.27569,-0.0226 4.56819,-1.3108 5.0814,-1.55366c0,0 0.54306,-0.01279 0.79129,0.19761c0.24542,0.20803 0.19687,0.63747 0.05165,0.94973c-0.4137,0.88958 -2.35077,1.99748 -2.86182,2.15766z" fill="#a8c8c0" stroke="none" stroke-width="0.5" stroke-linecap="butt"/><path d="M92.27639,211.3915v3.86281" fill="none" stroke="#a8c8c0" stroke-width="2.5" stroke-linecap="round"/><path d="M98.6266,215.27625v-3.8628" fill="none" stroke="#a8c8c0" stroke-width="2.5" stroke-linecap="round"/></g><path d="M118.14131,225.64819c0,-1.0182 0.82542,-1.84361 1.84361,-1.84361c1.0182,0 1.84361,0.82541 1.84361,1.84361c0,1.0182 -0.82541,1.84361 -1.84361,1.84361c-1.0182,0 -1.84361,-0.82542 -1.84361,-1.84361z" fill="#ffffff" stroke="none" stroke-width="0" stroke-linecap="butt"/></g></g></g></svg>