<svg version="1.1" xmlns="http://www.w3.org/2000/svg" xmlns:xlink="http://www.w3.org/1999/xlink" width="107.55615" height="177.79024" viewBox="0,0,107.55615,177.79024"><g transform="translate(-182.93298,-83.46014)"><g data-paper-data="{&quot;isPaintingLayer&quot;:true}" fill-rule="nonzero" stroke-linejoin="miter" stroke-miterlimit="10" stroke-dasharray="" stroke-dashoffset="0" style="mix-blend-mode: normal"><g data-paper-data="{&quot;index&quot;:null,&quot;origRot&quot;:0}" stroke="none" stroke-width="0" stroke-linecap="butt"><path d="M255.18287,166.37481c5.09925,-1.5016 12.49982,6.06957 15.24949,15.40716c2.74968,9.33759 3.96896,18.62424 3.96896,18.62424l-15.25071,4.68175c0,0 -6.08681,-14.07559 -8.2984,-21.58589c-2.74968,-9.33759 -0.76857,-15.62563 4.33067,-17.12723z" data-paper-data="{&quot;origRot&quot;:0,&quot;origPos&quot;:null}" fill="#ff0021"/><g data-paper-data="{&quot;origPos&quot;:null}" fill="#ffffff"><path d="M267.42672,207.78335c8.87546,-3.06211 20.02659,-6.35824 22.70216,3.16994c1.94102,6.91234 -4.16125,19.62663 -13.4957,20.63581c-10.186,1.10125 -19.09134,3.71394 -21.07524,-7.22156c-1.85245,-10.21086 2.99333,-13.52209 11.86878,-16.5842z" data-paper-data="{&quot;origRot&quot;:0,&quot;origPos&quot;:null}"/><path d="M266.08446,199.97435c6.85549,-2.35511 14.21783,-6.37926 15.60509,-0.97595c1.55191,6.04466 -0.35291,6.30624 -11.65086,9.87805c-12.87048,4.06894 -14.09682,7.034 -16.12014,0.49147c-1.18149,-3.82037 5.31042,-7.03845 12.16591,-9.39357z" data-paper-data="{&quot;origRot&quot;:0,&quot;origPos&quot;:null}"/></g></g><g data-paper-data="{&quot;origPos&quot;:null}" stroke="none" stroke-width="0" stroke-linecap="butt"><path d="M259.77582,231.75029c0.25,4.56244 5.41055,6.34999 5.25,7.375c-0.6496,4.14719 -2.61962,7.06944 -9.49401,9.02126c-8.51546,2.41776 -15.20518,1.85158 -22.83883,-2.63017c-5.19918,-3.05246 -0.62822,-5.6899 1.34826,-11.38574c0.70922,-2.04382 1.23457,-4.71698 1.73457,-10.13036c0.62513,-6.76814 4.26679,-19.09634 4.26679,-19.09634c0,0 5.33244,-0.81141 10.59561,-0.89064c5.20633,-0.02334 10.3876,2.11198 10.3876,2.11198c0,0 -1.8279,15.07837 -1.25,25.625z" data-paper-data="{&quot;origPos&quot;:null}" fill="#0052ef"/><path d="M266.94131,253.94738c0,3.8985 -3.96704,5.7353 -7.72585,6.76953c-2.46332,0.67777 -14.4104,0.32814 -20.33888,-3.14424c-1.84053,-1.07803 -3.33527,-3.52528 -3.33527,-3.52528c0,0 -5.03674,0.75952 -5.02228,-0.69722c0.01148,-1.15638 -0.01762,-3.12554 1.10289,-3.72567c4.82323,-2.58327 16.24793,-2.57711 21.71938,-2.57711c7.51108,0 13.6,3.08923 13.6,6.9z" data-paper-data="{&quot;origPos&quot;:null}" fill="#f9c869"/><path d="M268.82581,249.05028c-1.36652,4.56324 -5.93362,7.825 -14.425,7.825c-8.49138,0 -17.575,-4.925 -17.575,-4.925c0,0 -6.14742,0.32363 -6.27179,-1.25358c-0.25742,-3.26442 -0.3162,-8.59083 0.91937,-8.76498c4.56136,-0.64292 3.70007,-0.02536 9.66469,-1.30064c3.8618,-0.82568 10.31365,-4.50579 14.26274,-4.50579c8.49138,0 15.675,5.41155 13.425,12.925z" data-paper-data="{&quot;origPos&quot;:null}" fill="#ad5d21"/></g><g data-paper-data="{&quot;origPos&quot;:null}" stroke="none" stroke-width="0" stroke-linecap="butt"><path d="M237.27582,232.00029c0.25,4.56244 5.41055,6.34999 5.25,7.375c-0.6496,4.14719 -2.61962,7.06944 -9.49401,9.02125c-8.51546,2.41776 -15.20518,1.85158 -22.83883,-2.63016c-5.19918,-3.05246 -0.62822,-5.6899 1.34826,-11.38574c0.70922,-2.04382 1.23457,-4.71698 1.73457,-10.13036c0.62513,-6.76814 5.01679,-19.34634 5.01679,-19.34634c0,0 7.58244,-0.06141 12.59561,0.85936c3.95633,0.72666 10.3876,3.36198 10.3876,3.36198c0,0 -4.5779,12.32837 -4,22.875z" data-paper-data="{&quot;origPos&quot;:null}" fill="#0052ef"/><path d="M244.44134,254.19738c0,3.8985 -3.96704,5.7353 -7.72584,6.76953c-2.46332,0.67777 -14.4104,0.32814 -20.33888,-3.14424c-1.84053,-1.07803 -3.33527,-3.52528 -3.33527,-3.52528c0,0 -5.03674,0.75952 -5.02228,-0.69722c0.01148,-1.15638 -0.01762,-3.12554 1.10289,-3.72567c4.82323,-2.58327 16.24793,-2.5771 21.71938,-2.5771c7.51108,0 13.6,3.08923 13.6,6.9z" data-paper-data="{&quot;origPos&quot;:null}" fill="#f9c869"/><path d="M246.32582,249.30029c-1.36652,4.56323 -5.93362,7.825 -14.425,7.825c-8.49138,0 -17.575,-4.925 -17.575,-4.925c0,0 -6.14742,0.32363 -6.27179,-1.25359c-0.25742,-3.26442 -0.3162,-8.59082 0.91937,-8.76498c4.56136,-0.64292 3.70007,-0.02536 9.66469,-1.30064c3.8618,-0.82568 10.31365,-4.50579 14.26274,-4.50579c8.49138,0 15.675,5.41155 13.425,12.925z" data-paper-data="{&quot;origPos&quot;:null}" fill="#ad5d21"/></g><g data-paper-data="{&quot;origPos&quot;:null}"><path d="M265.97767,191.8296c0.39163,21.17353 -13.11217,27.2 -28.3,27.2c-15.18783,0 -27.7,-10.03796 -27.7,-20.2c0,-11.02412 1.31852,-19.79986 9.82136,-26.81648c6.33487,-5.22759 15.46535,-2.78352 23.67864,-2.78352c15.18783,0 22.11612,1.84521 22.5,22.6z" data-paper-data="{&quot;origPos&quot;:null}" fill="#0052ef" stroke="none" stroke-width="0" stroke-linecap="butt"/><path d="M265.97767,191.2296c0,0 -17.24385,2 -29.4,2.4c-11.15011,0.36689 -22.4,-3.4 -22.4,-3.4c0,0 -0.98648,-13.79564 6.98462,-19.16002c5.21526,-3.50975 11.08038,-4.65914 18.61538,-4.83998c7.535,-0.18084 15.72889,2.13912 19.52206,5.21215c8.95988,7.25886 6.67794,19.78785 6.67794,19.78785z" data-paper-data="{&quot;origPos&quot;:null}" fill="#ff0021" stroke="none" stroke-width="0" stroke-linecap="butt"/><path d="M252.08551,170.12091c0,0 2.14029,6.84028 2.57206,10.95319c0.55457,5.28272 -0.57997,15.20846 -0.57997,15.20846" data-paper-data="{&quot;origPos&quot;:null,&quot;origRot&quot;:0}" fill="none" stroke="#0052ef" stroke-width="10" stroke-linecap="round"/><path d="M230.57769,170.6296c0,0 1.23985,7.05925 1.13735,11.19349c-0.13165,5.31011 -2.53735,15.00651 -2.53735,15.00651" data-paper-data="{&quot;origPos&quot;:null}" fill="none" stroke="#0052ef" stroke-width="10" stroke-linecap="round"/><path d="M225.77769,194.9296c0,-2.26436 1.83563,-4.1 4.1,-4.1c2.26436,0 4.1,1.83564 4.1,4.1c0,2.26436 -1.83563,4.1 -4.1,4.1c-2.26436,0 -4.1,-1.83563 -4.1,-4.1z" data-paper-data="{&quot;origPos&quot;:null}" fill="#ffe84f" stroke="none" stroke-width="0" stroke-linecap="butt"/><path d="M250.57769,194.9296c0,-2.26436 1.83563,-4.1 4.1,-4.1c2.26436,0 4.1,1.83564 4.1,4.1c0,2.26436 -1.83564,4.1 -4.1,4.1c-2.26436,0 -4.1,-1.83563 -4.1,-4.1z" data-paper-data="{&quot;origPos&quot;:null}" fill="#ffe84f" stroke="none" stroke-width="0" stroke-linecap="butt"/></g><g stroke="none" stroke-width="0" stroke-linecap="butt"><path d="M225.78269,183.83246c-3.03376,7.21751 -10.64935,20.52814 -10.64935,20.52814l-14.63489,-6.35008c0,0 2.2453,-9.09327 6.01717,-18.06677c3.77188,-8.97352 11.9691,-15.67398 16.86956,-13.61415c4.90044,2.05982 6.16938,8.52929 2.3975,17.50283z" data-paper-data="{&quot;origRot&quot;:0,&quot;origPos&quot;:null}" fill="#ff0021"/><g data-paper-data="{&quot;origPos&quot;:null}" fill="#ffffff"><path d="M216.55784,223.9203c-3.18874,10.64676 -11.74791,7.05913 -21.74807,4.831c-9.16412,-2.04184 -13.81336,-15.35631 -11.11507,-22.00968c3.71943,-9.1712 14.43442,-4.6544 22.9139,-0.62348c8.4795,4.03092 12.92663,7.86091 9.94922,17.80217z" data-paper-data="{&quot;origRot&quot;:0,&quot;origPos&quot;:null}"/><path d="M219.8565,209.19632c-2.73896,6.27668 -3.62766,3.19357 -15.96528,-2.28259c-10.83021,-4.80707 -12.69408,-5.27903 -10.47904,-11.11342c1.98002,-5.21533 8.84875,-0.39675 15.39951,2.70673c6.55076,3.10349 12.64417,7.02414 11.04483,10.68926z" data-paper-data="{&quot;origRot&quot;:0,&quot;origPos&quot;:null}"/></g></g><g><path d="M283.39956,122.14905c-0.56793,3.79329 -11.88998,8.6 -20.8,8.6c-7.1797,0 -5.4,-6.75492 -5.4,-10.4c0,-3.64508 14.0703,-2.85 21.25,-2.85c7.1797,0 5.31761,2.19464 4.95,4.65z" data-paper-data="{&quot;origPos&quot;:null}" fill="#bb041a" stroke="none" stroke-width="0" stroke-linecap="butt"/><path d="M210.15928,163.06144c0,0 -1.70028,1.17057 -3.5833,-0.19744c-1.88302,-1.368 -3.24721,-4.53148 -0.52143,-6.04226c3.26031,-1.80704 2.41456,-7.88485 4.29758,-6.51685c0,0 7.23293,1.02169 7.79114,3.9154c0,0 3.0507,8.35652 1.80057,9.69315c0,0 -1.78179,1.32182 -6.42716,1.10231c-2.51693,-0.11893 -3.35741,-1.95431 -3.35741,-1.95431z" data-paper-data="{&quot;origRot&quot;:0,&quot;origPos&quot;:null}" fill="#5a2c0a" stroke="none" stroke-width="0" stroke-linecap="butt"/><path d="M214.98289,124.43238c4.31396,1.0071 37.24301,-2.16822 43.0368,-1.8462c8.57182,0.47642 6.20204,8.21361 6.80713,16.77732c0.69572,9.84642 7.56286,14.33038 4.11388,23.57918c-1.32977,3.56593 -4.32109,5.43206 -7.31062,7.78723c-1.69594,1.33607 -6.42898,2.63394 -17.21721,2.85583c-15.24981,0.31365 -19.57369,-2.15552 -25.86091,-6.94741c-3.99221,-3.04272 -2.2504,-7.36559 -5.42563,-12.17258c-0.97333,-1.47352 -2.12747,-2.25956 -2.322,-2.25956c-10.37042,0 -16.07143,-8.56649 -16.07143,-16.66666c0,-8.10018 3.70101,-14.66666 9.5,-14.66666c5.79899,0 9.25,3.20935 10.75,3.55952z" data-paper-data="{&quot;origPos&quot;:null}" fill="#ffdebd" stroke="none" stroke-width="0" stroke-linecap="butt"/><path d="M263.16622,129.63879c0.35235,4.88885 -1.81808,9.02906 -4.84779,9.24741c-3.02971,0.21836 -5.7714,-3.56782 -6.12375,-8.45666c-0.35235,-4.88885 1.81808,-9.02905 4.84779,-9.24741c3.02971,-0.21836 5.77141,3.56782 6.12376,8.45666z" data-paper-data="{&quot;origPos&quot;:null,&quot;origRot&quot;:0}" fill="#ffffff" stroke="none" stroke-width="0" stroke-linecap="butt"/><path d="M225.39289,132.25584c0,2.60849 3.05805,6.42393 0.71211,7.56446c-2.72909,1.32681 -4.12613,-0.50952 -4.12613,-0.50952c0,0 0.58226,1.57572 -3.0717,2.25935c-2.71433,0.50783 -3.65714,-5.18172 -3.65714,-9.6c0,-4.41828 -0.01669,-8.69821 2.74286,-8.8c11.61857,-0.42857 7.4,4.66744 7.4,9.08571z" data-paper-data="{&quot;origPos&quot;:null}" fill="#5a2c0a" stroke="none" stroke-width="0" stroke-linecap="butt"/><path d="M250.14301,134.64351c0.57094,4.86816 -1.41189,9.10142 -4.42877,9.45524c-3.01689,0.35383 -5.92541,-3.30577 -6.49635,-8.17393c-0.57094,-4.86816 1.41189,-9.10142 4.42877,-9.45524c3.01689,-0.35383 5.92541,3.30577 6.49635,8.17393z" data-paper-data="{&quot;origPos&quot;:null,&quot;origRot&quot;:0}" fill="#ffffff" stroke="none" stroke-width="0" stroke-linecap="butt"/><path d="M247.35003,130.99517c0.952,0 1.814,0.695 2.439,1.817c0.624,1.122 1.011,2.672 1.011,4.383c0,1.711 -0.387,3.261 -1.011,4.383c-0.625,1.122 -1.487,1.817 -2.439,1.817c-0.952,0 -1.814,-0.695 -2.439,-1.817c-0.624,-1.122 -1.011,-2.672 -1.011,-4.383c0,-1.711 0.387,-3.261 1.011,-4.383c0.625,-1.122 1.487,-1.817 2.439,-1.817z" data-paper-data="{&quot;origPos&quot;:null}" fill="#000000" stroke="none" stroke-width="1" stroke-linecap="butt"/><path d="M260.35003,126.44517c0.952,0 1.814,0.695 2.439,1.817c0.624,1.122 0.775,2.904 1.011,4.383c0.083,0.539 0.233,1.323 -0.15,1.8c-0.483,0.577 -1.281,0.853 -2,1.1c-1.256,0.26 -2.748,1.037 -3.85,0.4c-0.966,-0.58 -0.89,-2.138 -0.9,-3.3c-0.013,-1.501 0.387,-3.261 1.011,-4.383c0.625,-1.122 1.487,-1.817 2.439,-1.817z" data-paper-data="{&quot;origPos&quot;:null}" fill="#000000" stroke="none" stroke-width="1" stroke-linecap="round"/><path d="M269.29352,95.1237c2.39648,14.94461 -0.49216,15.79448 -8.52168,20.57884c-11.69967,6.97121 -27.00365,5.55994 -39.50062,10.97342c-3.28137,1.42143 -11.64483,-2.03217 -15.22084,-2.03217c-7.31398,0 -11.44089,-5.22725 -11.74313,-11.45342c-0.66666,-13.7335 6.09582,-13.78676 13.4098,-13.78676c0,0 8.04926,1.33414 10.82961,5.60456c0,0 11.19763,-18.21899 23.00151,-20.46979c15.1949,-2.89741 26.02436,-0.14688 27.74535,10.58532z" data-paper-data="{&quot;origPos&quot;:null}" fill="#ff0021" stroke="none" stroke-width="0" stroke-linecap="butt"/><path d="M266.39956,103.64905c0,5.46762 -1.46317,9.58116 -12.2,9.9c-11.33464,0.33659 -12.2,-4.43238 -12.2,-9.9c0,-5.46762 5.46212,-9.9 12.2,-9.9c6.73787,0 12.2,4.43238 12.2,9.9z" data-paper-data="{&quot;origPos&quot;:null}" fill="#ffffff" stroke="none" stroke-width="0" stroke-linecap="butt"/><path d="M283.79956,120.04905c-0.2,0.85848 -39.34284,6.5 -50.3,7.7c-5.32532,0.58322 -16.1,0.15848 -15.9,-0.7c0.73933,-3.1735 2.8049,-8.24498 7.9,-9.9c6.15716,-2 27.29511,-7.38005 43.10212,-7.1384c6.46182,0.09879 15.93721,6.8649 15.19788,10.0384z" data-paper-data="{&quot;origPos&quot;:null}" fill="#bb041a" stroke="none" stroke-width="0" stroke-linecap="butt"/><path d="M245.79956,109.37127l4.82784,-12.82222l4.40385,5.93838l2.72355,-5.30956l5.33279,10.08214l-3.65873,2.20988l-1.51788,-7.64078l-2.71476,4.66865l-3.5719,-4.6906l-1.52983,7.56411z" data-paper-data="{&quot;origPos&quot;:null}" fill="#ff0021" stroke="none" stroke-width="0" stroke-linecap="butt"/><path d="M268.30545,163.28413c-0.3711,2.54836 -2.29609,3.82599 -3.74172,4.218c-4.4121,1.19644 -10.83865,1.02213 -15.21565,-0.29692c-2.51556,-0.75809 -2.56024,-2.38549 -2.80313,-2.61298c-0.25663,-0.24036 -2.96973,1.56689 -6.23949,1.56689c-5.2467,0 -8.875,-3.69733 -8.875,-8.875c0,-5.67767 0.49272,-8.8327 1.34672,-8.99605c4.97377,-0.95139 6.45569,3.43243 10.27828,5.49605c0,0 12.7819,4.20754 18.75328,3.86744c0,0 9.6388,-4.51103 12.62642,-4.31325c1.48172,0.09809 1.49141,3.20314 1.02397,4.7714c0,0 0.15212,4.28337 -1.92128,5.42204c-4.90253,2.69238 -5.12499,-0.98512 -5.23239,-0.24762z" data-paper-data="{&quot;origPos&quot;:null}" fill="#38291e" stroke="none" stroke-width="0" stroke-linecap="butt"/><path d="M273.93045,147.28413c-0.5,6.61802 1.12741,11.125 -13.25,10.875c-6.62642,-0.11523 -13,-4.25698 -13,-10.125c0,-5.86802 6.3926,-13.11026 13,-13.625c9.62741,-0.75 14.04992,2.28715 13.25,12.875z" data-paper-data="{&quot;origPos&quot;:null}" fill="#ffdebd" stroke="none" stroke-width="0" stroke-linecap="butt"/><g data-paper-data="{&quot;origPos&quot;:null}" fill="none" stroke="#f6b09a" stroke-width="3.5" stroke-linecap="round"><path d="M201.10692,131.22727c0,0 2.96332,-1.72996 6.75499,1.19948c5.43788,4.2013 2.24501,11.37195 2.24501,11.37195" data-paper-data="{&quot;origPos&quot;:null}"/><path d="M209.82121,137.9416h-6" data-paper-data="{&quot;origPos&quot;:null}"/><path d="M209.24977,143.9416h-1.28571" data-paper-data="{&quot;origPos&quot;:null}"/></g><path d="M240.51272,123.99646c-1.37576,0.41027 -1.31062,0.60464 -1.97844,1.87549c-0.68894,1.31106 -2.14657,2.99951 -2.14657,2.99951c0,0 -1.45833,-3.62706 -1.45833,-6.31945c0,-1.8281 0.99336,-5.0144 3.81107,-5.65344c9.53112,-0.32089 6.69401,8.65093 6.69401,8.65093c0,0 -3.4773,-2.0232 -4.92174,-1.55303z" data-paper-data="{&quot;origPos&quot;:null}" fill="#38291e" stroke="none" stroke-width="0" stroke-linecap="butt"/><path d="M257.77351,121.19042c-1.51641,0.08916 -4.01601,3.24146 -4.01601,3.24146c0,0 -5.91454,-7.31854 3.07681,-10.49674c2.85665,-0.43291 4.94393,2.17143 5.61082,3.87354c0.98219,2.50684 0.94752,6.41595 0.94752,6.41595c0,0 -1.97313,-1.04035 -3.09287,-2.00973c-1.0854,-0.93965 -1.09566,-1.14439 -2.52627,-1.02451z" data-paper-data="{&quot;origPos&quot;:null,&quot;index&quot;:null,&quot;origRot&quot;:0}" fill="#38291e" stroke="none" stroke-width="0" stroke-linecap="butt"/></g></g></g></svg>