<svg version="1.1" xmlns="http://www.w3.org/2000/svg" xmlns:xlink="http://www.w3.org/1999/xlink" width="493.45588" height="356.05333" viewBox="0,0,493.45588,356.05333"><defs><linearGradient x1="423.45894" y1="239.18105" x2="423.45894" y2="247.09429" gradientUnits="userSpaceOnUse" id="color-1"><stop offset="0" stop-color="#7a7a7a"/><stop offset="1" stop-color="#7a7a7a" stop-opacity="0"/></linearGradient></defs><g transform="translate(8.22009,-15.38382)"><g data-paper-data="{&quot;isPaintingLayer&quot;:true}" fill-rule="nonzero" stroke-linejoin="miter" stroke-miterlimit="10" stroke-dasharray="" stroke-dashoffset="0" style="mix-blend-mode: normal"><g stroke-width="15"><path d="M262.93898,342.65457l-235.55078,-235.55078l56.73855,-56.73856l235.55079,235.55079z" fill="#575757" stroke="none" stroke-linecap="butt"/><g fill="none" stroke="#575757" stroke-linecap="round"><path d="M259.36466,363.93715l81.59544,-81.59544"/><path d="M260.56859,346.41425l62.86862,-62.86862"/></g><g data-paper-data="{&quot;index&quot;:null}" fill="none" stroke="#575757" stroke-linecap="round"><path d="M3.48752,108.06005l81.59544,-81.59544"/><path d="M83.87909,43.9875l-62.86862,62.86862"/></g><path d="M64.32252,86.67202l218.78703,218.78703" fill="none" stroke="#2f2f2f" stroke-linecap="round"/><path d="M48.11148,102.88302l218.78706,218.78706" fill="none" stroke="#2f2f2f" stroke-linecap="round"/><path d="M299.3206,289.24806l-218.78706,-218.78706" fill="none" stroke="#2f2f2f" stroke-linecap="round"/></g><path d="M-3.23571,365.03527v-64.07724h119.87502v64.07724z" fill="#575757" stroke="#303030" stroke-width="4" stroke-linecap="butt"/><path d="M118.45725,365.03527v-64.07724h119.87503v64.07724z" fill="#575757" stroke="#303030" stroke-width="4" stroke-linecap="butt"/><path d="M240.9253,365.03527v-64.07724h119.87503v64.07724z" fill="#575757" stroke="#303030" stroke-width="4" stroke-linecap="butt"/><path d="M363.36076,365.01795v-64.07724h119.87503v64.07724z" fill="#575757" stroke="#303030" stroke-width="4" stroke-linecap="butt"/><g stroke="none" stroke-linecap="butt"><path d="M396.2664,221.40494c5.82435,0 45.71797,0 54.852,0c1.17227,0 2.41797,1.20688 2.41797,2.11348c0,2.06017 0,10.03251 0,13.713c0,1.12155 -1.30665,1.97831 -2.41797,1.97831c-5.16027,0 -44.04392,0 -54.852,0c-1.76363,0 -2.33734,-0.45771 -2.33734,-1.83085c0,-3.74147 0,-11.58497 0,-13.713c0,-1.15054 0.96668,-2.26093 2.33734,-2.26093z" fill="#575757" stroke-width="1.07722"/><path d="M399.24239,221.40494h6.23911v17.80478h-6.23911z" fill="#808080" stroke-width="1.18415"/><path d="M398.41049,237.17757h49.91346v67.80178h-49.91346z" fill="#575757" stroke-width="1.18415"/><path d="M403.58668,238.58277h6.58581v66.39656h-6.58581z" fill="#808080" stroke-width="1.18415"/><path d="M398.42903,247.09429v-7.91323h50.05983v7.91323z" fill="url(#color-1)" stroke-width="0"/></g><path d="M-6.22009,104.38382l92,-87" fill="none" stroke="#303030" stroke-width="4" stroke-linecap="round"/><path d="M85.77991,52.38382l229,230" fill="none" stroke="#303030" stroke-width="4" stroke-linecap="round"/><path d="M29.77991,108.38382l194,194" fill="none" stroke="#303030" stroke-width="4" stroke-linecap="round"/><path d="M30.93509,108.50137c0.63246,1.89737 -1.26491,2.52982 -1.26491,2.52982l-1.23803,0.39149c-3.15792,1.5261 -7.07628,5.3313 -11.15979,3.5589c-2.62967,-1.14137 -1.68527,-3.03338 -4.67589,-3.34862c-1.35109,-0.14242 -5.71809,4.04971 -6.15323,4.28413c-4.96326,2.67383 -12.71479,-2.91298 -14.30289,-7.65081c-0.33203,-0.99055 -0.06842,-2.0883 -0.10263,-3.13246c0,0 0,-2 2,-2c2,0 2,2 2,2c-0.17706,3.22189 2.38482,5.42289 5.26537,6.65224c0.93428,0.39873 2.25384,1.31587 3.32911,0.56449c1.72184,-1.20317 5.30044,-4.93024 7.84677,-4.71587c2.4256,0.2042 4.26862,2.34747 6.32411,3.65138c0.7917,0.50222 1.83622,-0.38082 2.74956,-0.59253c2.0447,-0.47393 3.13796,-1.84744 5.09064,-2.84857l1.76197,-0.60851c0,0 1.89737,-0.63246 2.52982,1.26491z" fill="#2f2f2f" stroke="none" stroke-width="0.5" stroke-linecap="butt"/><path d="M85.52845,53.23382c-1.6,-1.2 -0.4,-2.8 -0.4,-2.8l1.51802,-2.02366c0.77813,-0.97197 3.15126,-3.76468 3.59398,-4.99512c0.11304,-0.31417 -0.1774,-0.66779 -0.39625,-0.91996c-2.10398,-2.42437 -4.26242,-3.11578 -4.61575,-6.86126c-0.43685,-4.63088 6.73812,-6.92078 3.62118,-11.69762c-0.64779,-0.99277 -1.25424,-2.02765 -2.05174,-2.90471c-0.49207,-0.54116 -1.17963,-0.86512 -1.76944,-1.29768c0,0 -1.6,-1.2 -0.4,-2.8c1.2,-1.6 2.8,-0.4 2.8,-0.4c4.59554,3.50723 8.06722,8.41771 5.04353,14.07985c-0.42684,0.7993 -3.36417,3.95847 -3.24353,5.02015c0.39079,3.4392 5.74079,3.93481 4.988,8.21878c-0.4041,2.29966 -2.94193,5.16274 -4.40602,7.00488l-1.48198,1.97634c0,0 -1.2,1.6 -2.8,0.4z" fill="#2f2f2f" stroke="none" stroke-width="0.5" stroke-linecap="butt"/><path d="M336.18715,300.90427c-0.10923,0.57785 -0.50739,1.631 -1.9587,1.631c-2,0 -2,-2 -2,-2l0.58579,-1.91421c3.47949,-3.46405 6.39439,-6.0138 8.66667,-10.5572c0.70158,-1.2231 1.29361,-2.51594 2.10475,-3.6693c0.71349,-1.01451 3.53345,-2.21967 2.44149,-2.80782c-1.28306,-0.69108 -2.55187,-1.46501 -3.60795,-2.46926c-1.17283,-1.11527 -2.19384,-3.20769 -4.17507,-1.93283c-2.2693,1.46022 -3.30384,4.55965 -5.75031,5.6984c-4.56324,2.12402 -5.3236,-3.31216 -8.53073,-4.5c-0.32948,-0.12203 -2.92149,-0.65854 -3.74924,-0.10736c-0.58856,0.39192 -0.88375,1.15325 -1.5,1.5c-0.5122,0.28821 -1.31507,-0.09258 -1.73394,0.31968c-0.59986,0.59041 -0.64173,1.55623 -0.9626,2.33434c0,0 -0.89443,1.78885 -2.68328,0.89443c-1.78885,-0.89443 -0.89443,-2.68328 -0.89443,-2.68328c0.67913,-1.22189 1.05378,-2.67232 2.0374,-3.66566c0.55492,-0.5604 1.58353,-0.28517 2.26606,-0.68032c0.61195,-0.35428 0.87136,-1.17625 1.5,-1.5c2.19278,-1.12929 5.03188,-0.90539 7.25076,-0.10736c1.18022,0.42447 3.22874,2.43542 4.14885,3.43355c0.38347,0.41599 0.90075,1.44589 1.32042,1.06645c1.41614,-1.28036 4.0109,-4.91975 5.5634,-5.61531c1.46615,-0.65687 3.26082,-0.90927 4.79907,-0.44572c2.31078,0.69636 3.72097,3.36173 5.55838,4.77635c0.79152,0.60939 2.08996,0.69214 2.54582,1.58098c0.56841,1.10828 0.5967,2.55881 0.17924,3.73231c-0.91146,2.56219 -3.25723,4.37286 -4.60211,6.73651c-2.32757,4.63892 -5.33206,7.47026 -8.81973,10.95164z" fill="#2f2f2f" stroke="none" stroke-width="0.5" stroke-linecap="butt"/></g></g></svg>