<svg version="1.1" xmlns="http://www.w3.org/2000/svg" xmlns:xlink="http://www.w3.org/1999/xlink" width="95.43404" height="152.97814" viewBox="0,0,95.43404,152.97814"><defs><linearGradient x1="269.95035" y1="164.12553" x2="266.47952" y2="175.59307" gradientUnits="userSpaceOnUse" id="color-1"><stop offset="0" stop-color="#38291e"/><stop offset="1" stop-color="#381e32"/></linearGradient><linearGradient x1="286.18538" y1="167.97715" x2="281.77128" y2="177.55334" gradientUnits="userSpaceOnUse" id="color-2"><stop offset="0" stop-color="#38291e"/><stop offset="1" stop-color="#381e32"/></linearGradient></defs><g transform="translate(-214.51128,-123.11509)"><g data-paper-data="{&quot;isPaintingLayer&quot;:true}" fill-rule="nonzero" stroke-linejoin="miter" stroke-miterlimit="10" stroke-dasharray="" stroke-dashoffset="0" style="mix-blend-mode: normal"><g data-paper-data="{&quot;origRot&quot;:0,&quot;index&quot;:null}" stroke="none" stroke-width="0" stroke-linecap="butt"><g data-paper-data="{&quot;origPos&quot;:null,&quot;index&quot;:null,&quot;origRot&quot;:0}"><path d="M265.5071,194.53078c3.46047,-7.02289 11.85942,-19.85366 11.85942,-19.85366l14.22839,7.21498c0,0 -2.78577,8.94248 -7.08818,17.67407c-4.30242,8.73157 -12.88618,14.92915 -17.65448,12.57961c-4.76829,-2.34956 -5.64757,-8.88341 -1.34516,-17.61498z" data-paper-data="{&quot;origRot&quot;:0,&quot;origPos&quot;:null}" fill="#41c3ff"/><g data-paper-data="{&quot;origPos&quot;:null}" fill="#ffffff"><path d="M277.11572,155.06723c3.82049,-10.43674 12.14952,-6.34304 21.99831,-3.52014c9.02542,2.58692 12.86909,16.15588 9.77725,22.63573c-4.2619,8.93204 -14.68721,3.78177 -22.91014,-0.74965c-8.22292,-4.53145 -12.43274,-8.62082 -8.86542,-18.36595z" data-paper-data="{&quot;origRot&quot;:0,&quot;origPos&quot;:null}"/><path d="M272.9414,169.56729c3.10986,-6.1014 3.81235,-2.97062 15.79995,3.23445c10.52296,5.44695 12.35522,6.02967 9.7948,11.72093c-2.28876,5.08741 -8.85663,-0.13379 -15.20981,-3.62397c-6.35317,-3.49018 -12.20089,-7.76862 -10.38494,-11.33143z" data-paper-data="{&quot;origRot&quot;:0,&quot;origPos&quot;:null}"/></g></g></g><g stroke="none" stroke-width="0" stroke-linecap="butt"><path d="M263.67106,247.31546c-0.26303,4.56171 4.6646,6.9165 4.39017,7.91704c-1.11041,4.04823 -3.3956,6.73122 -10.44545,7.9001c-8.73282,1.44793 -15.31691,0.13539 -22.40003,-5.17384c-4.82423,-3.61606 0.01358,-5.72446 2.61611,-11.16283c0.93386,-1.95143 1.75557,-4.54885 2.85926,-9.87206c1.3799,-6.6554 8.29534,-24.31972 8.29534,-24.31972c0,0 7.29311,0.76095 12.17146,2.2379c3.84993,1.16558 10.53758,-2.97551 10.53758,-2.97551c0,0 -7.4164,24.90396 -8.02444,35.44889z" data-paper-data="{&quot;origPos&quot;:null}" fill="#5063f7"/><path d="M268.3031,270.17591c-0.43703,3.87392 -4.58496,5.25444 -8.43601,5.86079c-2.52377,0.39735 -14.35636,-1.28935 -19.85821,-5.40444c-1.70809,-1.27756 -2.91906,-3.87695 -2.91906,-3.87695c0,0 -5.09013,0.19011 -4.91247,-1.25582c0.14104,-1.1478 0.33287,-3.10782 1.51359,-3.57855c5.08242,-2.0263 16.43441,-0.73944 21.87137,-0.12609c7.46374,0.842 13.16797,4.59433 12.74078,8.38108z" data-paper-data="{&quot;origPos&quot;:null}" fill="#f8dca0"/><path d="M270.72467,265.52092c-1.86945,4.38128 -6.7734,7.11052 -15.21127,6.15862c-8.43786,-0.9519 -16.91212,-6.86413 -16.91212,-6.86413c0,0 -6.14496,-0.36754 -6.09173,-1.94876c0.11015,-3.2727 0.64883,-8.57212 1.89614,-8.60667c4.60467,-0.12753 3.6796,0.38959 9.74957,-0.20902c3.93001,-0.38756 10.75374,-3.32122 14.67794,-2.87852c8.43786,0.95189 14.96955,7.13463 11.89147,14.34849z" data-paper-data="{&quot;origPos&quot;:null}" fill="#ab7644"/></g><g stroke="none" stroke-width="0" stroke-linecap="butt"><path d="M242.4232,245.49266c0.82761,4.49371 6.17344,5.61115 6.14442,6.64825c-0.11746,4.19612 -1.70025,7.34497 -8.27097,10.15432c-8.1393,3.48001 -14.84674,3.76831 -22.98792,0.29271c-5.54485,-2.36719 -1.346,-5.56398 -0.10916,-11.46477c0.44382,-2.11736 0.6253,-4.8356 0.4335,-10.26864c-0.23979,-6.79271 2.28372,-25.59386 2.28372,-25.59386c0,0 7.26522,-0.99246 12.35475,-0.71605c4.01659,0.21814 11.10557,2.97518 11.10557,2.97518c0,0 -2.86703,17.5851 -0.95392,27.97285z" data-paper-data="{&quot;origPos&quot;:null}" fill="#5063f7"/><path d="M252.35069,266.59954c0.49528,3.86691 -3.20625,6.19282 -6.8032,7.69621c-2.35725,0.98523 -14.25195,2.15625 -20.57353,-0.53481c-1.96257,-0.83546 -3.75611,-3.07299 -3.75611,-3.07299c0,0 -4.89943,1.39326 -5.07016,-0.05352c-0.13553,-1.14847 -0.41456,-3.09798 0.62063,-3.8356c4.45595,-3.1751 15.78887,-4.62043 21.21598,-5.31555c7.45021,-0.95425 13.88227,1.33638 14.36641,5.11627z" data-paper-data="{&quot;origPos&quot;:null}" fill="#f8dca0"/><path d="M253.59775,261.50272c-0.77571,4.69986 -4.89141,8.51543 -13.31399,9.59422c-8.42257,1.07878 -18.05829,-2.65228 -18.05829,-2.65228c0,0 -6.05649,1.102 -6.38023,-0.44664c-0.67006,-3.20526 -1.40506,-8.48103 -0.20163,-8.81075c4.44272,-1.21721 3.66687,-0.49524 9.42114,-2.51796c3.72561,-1.30961 9.65764,-5.77957 13.57473,-6.28128c8.42257,-1.07879 16.23549,3.37627 14.95827,11.11469z" data-paper-data="{&quot;origPos&quot;:null}" fill="#ab7644"/></g><g><path d="M270.72767,208.74497c0.39163,21.17353 -7.36176,30.41297 -28.3,30.2c-21.9365,-0.22312 -23.2,-12.78796 -23.2,-22.95c0,-11.02412 -0.93148,-20.04986 7.57136,-27.06648c6.33487,-5.22759 13.21535,-2.78352 21.42864,-2.78352c15.18783,0 22.11612,1.84521 22.5,22.6z" data-paper-data="{&quot;origPos&quot;:null}" fill="#5063f7" stroke="none" stroke-width="0" stroke-linecap="butt"/><path d="M270.97767,208.14497c0,0 -17.24385,2 -29.4,2.4c-11.15011,0.36689 -22.4,-3.4 -22.4,-3.4c0,0 -0.98648,-13.79564 6.98462,-19.16002c5.21526,-3.50975 11.08038,-4.65914 18.61538,-4.83998c7.535,-0.18084 15.72889,2.13912 19.52206,5.21215c8.95988,7.25886 6.67794,19.78785 6.67794,19.78785z" data-paper-data="{&quot;origPos&quot;:null}" fill="#41c3ff" stroke="none" stroke-width="0" stroke-linecap="butt"/><path d="M257.08549,187.03628c0,0 2.14029,6.84028 2.57206,10.95319c0.55457,5.28272 -0.57997,15.20846 -0.57997,15.20846" data-paper-data="{&quot;origPos&quot;:null,&quot;origRot&quot;:0}" fill="none" stroke="#5063f7" stroke-width="10" stroke-linecap="round"/><path d="M235.57767,187.54497c0,0 1.23985,7.05925 1.13735,11.19349c-0.13165,5.31011 -2.53735,15.00651 -2.53735,15.00651" data-paper-data="{&quot;origPos&quot;:null}" fill="none" stroke="#5063f7" stroke-width="10" stroke-linecap="round"/><path d="M231.96114,217.35897l0.47856,-4.16533l-2.74233,-2.63761l3.91676,0.14425l1.59649,-3.58172l1.50128,3.65183l4.5202,0.16603l-3.61311,2.58175l0.46103,4.045l-3.09091,-2.61517z" data-paper-data="{&quot;origPos&quot;:null,&quot;origRot&quot;:0}" fill="#ffe008" stroke="none" stroke-width="NaN" stroke-linecap="butt"/><path d="M257.35408,217.11707l-0.09884,-4.19156l-3.07901,-2.23539l3.89937,-0.39579l1.08873,-3.76726l1.98925,3.41067l4.50007,-0.45721l-3.2237,3.05412l1.01296,3.94315l-3.4212,-2.16523z" data-paper-data="{&quot;origPos&quot;:null,&quot;origRot&quot;:0}" fill="#ffe008" stroke="none" stroke-width="NaN" stroke-linecap="butt"/></g><path d="M297.57376,188.69419c-2.61231,2.80846 -14.66939,0.37528 -22.02006,-4.66022c-5.92316,-4.0576 -0.6374,-8.62454 1.42262,-11.63169c2.06002,-3.00715 13.21851,5.60061 19.14167,9.65821c5.92316,4.0576 3.14667,4.81582 1.45575,6.6337z" fill="#3595c5" stroke="none" stroke-width="0" stroke-linecap="butt"/><path d="M223.43292,188.75328c-1.40599,-1.85484 -1.18816,-4.15955 1.02882,-6.34983c2.57226,-2.54127 3.41558,-7.55258 4.82157,-5.69774c0,0 6.62682,3.07317 6.32281,6.00451c0,0 0.49911,8.88196 -1.08463,9.79913c0,0 -2.0883,0.74898 -6.47089,-0.80683c-2.37455,-0.84296 -3.21171,-1.09437 -4.61767,-2.94921z" data-paper-data="{&quot;origRot&quot;:0}" fill="#e7be7a" stroke="none" stroke-width="0" stroke-linecap="butt"/><path d="M241.21044,153.28403c3.83724,2.21363 36.27419,8.7136 41.72626,10.70021c8.06625,2.93916 3.55672,9.65808 1.65506,18.02989c-2.1865,9.62576 3.08723,15.90677 -2.89313,23.75987c-2.30576,3.02781 -7.12308,4.30311 -10.66668,5.69126c-2.01026,0.78749 -5.37578,3.911 -15.76571,0.99816c-17.01333,-9.08792 -20.61852,-15.35565 -22.50942,-20.07907c-2.0478,-4.58157 -0.37709,-5.37184 -2.02364,-10.89253c-0.50474,-1.6923 -1.38168,-2.77898 -1.56787,-2.83532c-9.92574,-3.00419 -12.90069,-12.85486 -10.55417,-20.6077c2.34652,-7.75285 7.79106,-12.96563 13.3414,-11.28574c5.55034,1.6799 7.92366,5.75135 9.2579,6.52104z" fill="#ffdebd" stroke="none" stroke-width="0" stroke-linecap="butt"/><path d="M248.9077,163.7877c-0.75565,2.49664 0.78881,10.71177 -1.78693,11.1238c-2.99643,0.47933 -2.54203,-3.83462 -6.23735,-4.23881c-2.74506,-0.30026 -2.88082,-5.86786 -1.60089,-10.09669c1.27992,-4.22882 2.5038,-8.33007 5.1745,-7.6281c11.24454,2.95556 5.7306,6.61099 4.45067,10.83981z" fill="#e7be7a" stroke="none" stroke-width="0" stroke-linecap="butt"/><path d="M301.20984,158.42656c-6.46888,13.68349 -9.33227,12.75211 -18.66041,12.16127c-13.59186,-0.86091 -25.41989,-10.67423 -38.78917,-13.27083c-3.51042,-0.68181 -8.45837,-8.25759 -11.40852,-10.27857c-6.03394,-4.1335 -6.48441,-10.77824 -3.21504,-16.08557c7.2115,-11.70674 12.82056,-7.92886 18.85451,-3.79537c0,0 5.88657,5.64968 5.76689,10.74405c0,0 19.53438,-8.70211 30.54447,-3.88802c14.17309,6.19708 21.55279,14.58649 16.90728,24.41305z" fill="#41c3ff" stroke="none" stroke-width="0" stroke-linecap="butt"/><path d="M294.00426,163.82435c-3.09002,4.51073 -6.62188,7.07744 -15.65984,1.27256c-9.54116,-6.12809 -7.55988,-10.5515 -4.46986,-15.06222c3.09002,-4.51073 10.10117,-5.08046 15.65984,-1.27255c5.55866,3.80791 7.55988,10.55149 4.46987,15.0622z" fill="#ffffff" stroke="none" stroke-width="0" stroke-linecap="butt"/><path d="M299.09058,187.18777c-0.65017,0.59521 -36.13085,-16.87219 -45.84856,-22.07464c-4.72293,-2.52847 -13.37187,-8.96818 -12.7217,-9.56338c2.40343,-2.20027 6.97366,-5.21683 12.11239,-3.7027c6.20988,1.82974 26.68897,9.33739 39.593,18.47007c5.2751,3.73342 9.26831,14.67038 6.86487,16.87064z" fill="#3595c5" stroke="none" stroke-width="0" stroke-linecap="butt"/><path d="M276.70345,159.53669l2.1103,-2.74701l4.6262,2.2661l-0.1971,-2.28001l-2.73435,-2.42386l0.05878,-3.61304l3.20623,-1.22004l7.21793,3.44143l-0.41929,3.67779l-6.36634,-3.6681l2.54411,3.59746l1.09318,3.82624l-1.22326,2.29743l-2.78681,0.08833z" data-paper-data="{&quot;origRot&quot;:0}" fill="#ffe008" stroke="none" stroke-width="0" stroke-linecap="butt"/><path d="M275.29435,208.94766c-3.13793,-0.73855 -7.29963,-2.9665 -14.12201,-6.32582c-8.84591,-4.35569 -8.18619,-11.30215 -8.18619,-11.30215c0,0 -3.1038,-2.33143 -4.71467,-4.01286c-1.26091,-1.31614 2.19485,-6.12624 3.05957,-6.03518c5.03612,0.53025 5.18456,5.15539 8.24543,8.23789c0,0 11.01495,7.72988 16.82882,9.13421c0,0 10.53229,-1.52536 13.33451,-0.47058c1.38977,0.52313 0.49955,3.49783 -0.40215,4.86344c0,0 -2.45725,3.64468 -4.91771,4.43773c-2.46044,0.79306 -5.98762,2.21188 -9.12555,1.47332z" fill="#e7be7a" stroke="none" stroke-width="0" stroke-linecap="butt"/><g fill="none" stroke="#f6b09a" stroke-width="3.5" stroke-linecap="round"><path d="M225.96105,155.7679c0,0 3.33741,-0.79734 6.11788,3.10488c3.98765,5.59645 -1.14559,11.53468 -1.14559,11.53468" data-paper-data="{&quot;origPos&quot;:null}"/><path d="M232.35664,164.71873l-5.74272,-1.73813" data-paper-data="{&quot;origPos&quot;:null}"/><path d="M228.84099,169.92347l1.23057,0.37245" data-paper-data="{&quot;origPos&quot;:null}"/></g><path d="M268.01929,170.96572c-1.43562,-0.00586 -1.42957,0.19904 -2.43691,1.22194c-1.0392,1.05526 -2.92345,2.24905 -2.92345,2.24905c0,0 -0.34509,-3.89399 0.43487,-6.47094c0.52959,-1.74971 2.40338,-4.51163 5.28539,-4.30702c9.21539,2.45392 3.90091,10.21916 3.90091,10.21916c0,0 -2.7421,-2.94378 -4.2608,-2.91221z" fill="url(#color-1)" stroke="none" stroke-width="0" stroke-linecap="butt"/><path d="M283.26707,174.67359c-1.41449,-0.55382 -5.00412,1.26263 -5.00412,1.26263c0,0 -2.30774,-9.12235 7.18832,-8.24478c2.77552,0.80267 3.58093,4.04161 3.47403,5.86657c-0.1574,2.68778 -1.8253,6.22337 -1.8253,6.22337c0,0 -1.35643,-1.77078 -1.96753,-3.11988c-0.59238,-1.30772 -0.51598,-1.49796 -1.86539,-1.98795z" data-paper-data="{&quot;index&quot;:null,&quot;origRot&quot;:0}" fill="url(#color-2)" stroke="none" stroke-width="0" stroke-linecap="butt"/><path d="M291.01052,192.23236c-2.39572,6.1894 -2.14371,10.97457 -15.83222,6.57033c-6.30892,-2.02988 -11.20937,-7.84038 -9.50947,-13.45679c1.6999,-5.6164 9.91637,-10.69625 16.38956,-9.27483c9.43186,2.07109 12.78492,6.25917 8.95212,16.1613z" fill="#ffdebd" stroke="none" stroke-width="0" stroke-linecap="butt"/><g data-paper-data="{&quot;index&quot;:null}" stroke="none" stroke-linecap="butt"><g data-paper-data="{&quot;origPos&quot;:null}" stroke-width="0"><path d="M240.93915,185.41786c-5.87882,7.75827 -10.09164,19.49651 -14.32843,16.28611c-4.23678,-3.21041 -4.56406,-23.25826 1.31477,-31.01654c5.8788,-7.75825 12.62566,-14.25507 12.62566,-14.25507l12.82478,9.48832c0,0 -7.7084,13.25713 -12.4368,19.4972z" data-paper-data="{&quot;origRot&quot;:0,&quot;origPos&quot;:null}" fill="#41c3ff"/><g data-paper-data="{&quot;origPos&quot;:null}" fill="#ffffff"><path d="M250.62866,157.66165c-7.73513,-5.32147 -17.01021,-12.33471 -10.93402,-20.14656c4.40804,-5.66721 18.26113,-8.30977 24.61731,-1.39968c6.93606,7.54049 14.32737,13.15291 6.70818,21.24422c-7.11428,7.55514 -12.65635,5.62347 -20.39147,0.30201z" data-paper-data="{&quot;origRot&quot;:0,&quot;origPos&quot;:null}"/><path d="M245.1436,163.37969c-5.96656,-4.11633 -13.57691,-7.64912 -10.05398,-11.97451c3.94111,-4.8388 5.28295,-3.46176 14.86698,3.50586c10.918,7.93742 14.03176,7.16286 9.97012,12.67665c-2.3717,3.21965 -8.81659,-0.09164 -14.78314,-4.20798z" data-paper-data="{&quot;origRot&quot;:0,&quot;origPos&quot;:null}"/></g></g><path d="M257.3262,143.13094l8.29543,-1.03986l-5.35758,6.47816l3.34027,8.53957l-8.00715,-4.80846l-6.71402,4.62531l1.2758,-7.99618l-6.93864,-4.16586l7.71766,-1.47163l3.86773,-7.74555z" data-paper-data="{&quot;origPos&quot;:null,&quot;origRot&quot;:0}" fill="#ffe008" stroke-width="NaN"/></g></g></g></svg>