<svg version="1.1" xmlns="http://www.w3.org/2000/svg" xmlns:xlink="http://www.w3.org/1999/xlink" width="65.10633" height="38.70928" viewBox="0,0,65.10633,38.70928"><defs><linearGradient x1="100.5756" y1="322.85296" x2="100.5756" y2="359.85003" gradientUnits="userSpaceOnUse" id="color-1"><stop offset="0" stop-color="#8f1515"/><stop offset="1" stop-color="#5c1c00"/></linearGradient></defs><g transform="translate(1.87997,-322.35297)"><g data-paper-data="{&quot;isPaintingLayer&quot;:true}" fill-rule="nonzero" stroke-linejoin="miter" stroke-miterlimit="10" stroke-dasharray="" stroke-dashoffset="0" style="mix-blend-mode: normal"><path d="M-1.37996,359.85003v-36.99706h44.51282l19.27173,37.70019z" data-paper-data="{&quot;origPos&quot;:null}" fill="url(#color-1)" stroke="#000000" stroke-width="1" stroke-linecap="butt"/><g><path d="M26.5401,348.05975c0.19537,-0.11231 0.41939,-0.041 0.46122,0.15374c0.10473,0.55572 -0.02543,1.16347 -0.205,1.69111c-0.57209,1.43838 -1.09993,2.96693 -2.02992,4.15418c-0.54569,0.69614 -1.41604,1.35535 -2.30034,1.32912c-1.45598,-0.04368 -3.57346,-0.14227 -3.97155,-1.48611c-0.60879,-1.91969 0.52845,-4.15357 1.74237,-5.73954c0.4727,-0.61741 1.81453,-0.22097 2.30607,0.35874c0.46243,0.60694 -0.61312,2.0324 -0.205,2.25481c0.42717,0.2267 1.23297,-0.81768 1.84485,-1.22989c0.7523,-0.5057 1.50476,-1.10322 2.3573,-1.48614z" fill="#f0372b" stroke="none" stroke-width="0.61106" stroke-linecap="round"/><path d="M19.4135,340.51256l5.94015,1.6585l-2.96672,7.83948l-2.97343,-0.47874z" fill="#f0372b" stroke="none" stroke-width="0.45783" stroke-linecap="round"/><path d="M20.2025,332.89918h3.79801v7.82693h-3.79801z" fill="#f0372b" stroke="none" stroke-width="0.43852" stroke-linecap="round"/><g stroke="none" stroke-width="0.48178" stroke-linecap="round"><path d="M16.74856,337.35546h3.79799l2.4,3.35354l-3.12727,2.3596z" fill="#f0372b"/><path d="M16.74856,337.27465h2.66665l2.81214,4.20204l-2.45656,1.64042z" fill="#ffffff"/></g><path d="M20.2025,332.83168h2.66669v7.89245h-2.66669z" fill="#ffffff" stroke="none" stroke-width="0.43852" stroke-linecap="round"/><g stroke="none" stroke-width="0.48178" stroke-linecap="round"><path d="M28.00209,334.34222h3.79802l-6.70711,8.5738l-2.91717,-1.33335z" fill="#f0372b"/><path d="M28.00209,334.2614h2.66668l-6.497,7.9839l-2.20607,-0.56568z" fill="#ffffff"/></g><g><path d="M28.98964,331.66053c0.91607,0 1.74626,0.27732 2.34746,0.72546c0.60121,0.44817 0.84576,1.06441 0.97326,1.74971c0.10657,0.57682 0.11579,1.42 -0.30748,1.72701c-0.86501,0.65314 -1.99489,0.72845 -3.01324,0.74817c-0.93411,0.01818 -1.9373,-0.05635 -2.75703,-0.63596c-0.42942,-0.35136 -0.61228,-1.17635 -0.5637,-1.83922c0.05206,-0.69453 0.37206,-1.30154 0.97327,-1.74971c0.60121,-0.44814 1.43139,-0.72546 2.34746,-0.72546z" fill="#f0372b" stroke="none" stroke-width="0.68047" stroke-linecap="round"/><path d="M28.46693,334.1824c1.27232,0.02667 2.61704,0.13858 3.74095,0.72771c0.59976,0.28923 1.09011,1.03371 1.02489,1.70134c-0.08876,0.90913 -0.53807,1.7518 -1.40721,2.35465c-0.86931,0.60305 -2.06971,0.97635 -3.3945,0.97635c-1.32483,0 -2.52519,-0.3733 -3.39453,-0.97635c-0.86911,-0.60285 -1.38711,-1.44123 -1.40721,-2.35465c-0.01721,-0.78796 0.63401,-1.55129 1.32213,-1.89607c1.05957,-0.53089 2.3317,-0.55777 3.51547,-0.53298z" fill="#f0372b" stroke="none" stroke-width="0.61106" stroke-linecap="round"/><path d="M24.88401,335.50068c0.04677,0.01157 0.08132,0.05266 0.0997,0.10983c0.01835,0.05713 0.02026,0.13026 0.00157,0.20567c-0.01872,0.07541 -0.05457,0.13915 -0.09751,0.18108c-0.04291,0.04197 -0.09268,0.06213 -0.13945,0.05056c-0.04677,-0.0116 -0.08135,-0.05271 -0.0997,-0.10987c-0.01835,-0.05713 -0.02026,-0.13026 -0.00157,-0.20567c0.01872,-0.07538 0.05457,-0.13915 0.09751,-0.18108c0.04291,-0.04197 0.09268,-0.06212 0.13945,-0.05052z" fill="#671712" stroke="none" stroke-width="0.61106" stroke-linecap="butt"/><path d="M25.67317,335.53141c0.04677,0.0116 0.08135,0.0527 0.0997,0.10983c0.01835,0.05716 0.02029,0.13029 0.00157,0.20567c-0.01869,0.07541 -0.05458,0.13918 -0.09748,0.18111c-0.04294,0.04193 -0.09272,0.06212 -0.13945,0.05052c-0.04677,-0.0116 -0.08134,-0.0527 -0.0997,-0.10983c-0.01835,-0.05713 -0.0203,-0.13026 -0.00158,-0.20567c0.01869,-0.07541 0.05458,-0.13915 0.09748,-0.18111c0.04294,-0.04193 0.09272,-0.06209 0.13945,-0.05052z" fill="#671712" stroke="none" stroke-width="0.61106" stroke-linecap="butt"/><path d="M30.91648,336.85744c0,0 -0.21235,0.33331 -0.32798,0.46122c-0.11067,0.12174 -0.24147,0.24331 -0.36897,0.32798c-0.25478,0.1533 -0.52741,0.28206 -0.80966,0.36897c-0.30913,0.09161 -0.64284,0.13938 -0.96344,0.10248c-0.47021,-0.05411 -0.96588,-0.19493 -1.42462,-0.38946c-0.22855,-0.0937 -0.37984,-0.30892 -0.60469,-0.46122c-0.43848,-0.29805 -0.84002,-0.67501 -1.3324,-0.87118c-0.23119,-0.09202 -0.5266,-0.04898 -0.77893,0.02049c-0.23593,0.07075 -0.5842,0.33824 -0.5842,0.33824" fill="none" stroke="#671712" stroke-width="0.61106" stroke-linecap="round"/><path d="M26.66881,332.36872c0.32681,0 0.62284,0.17166 0.8372,0.44911c0.21439,0.27729 0.3471,0.66035 0.3471,1.08313c0,0.42278 -0.13271,0.80584 -0.3471,1.08312c-0.21436,0.27745 -0.51039,0.44911 -0.8372,0.44911c-0.32681,0 -0.62285,-0.17166 -0.83721,-0.44911c-0.21439,-0.27729 -0.34709,-0.66035 -0.34709,-1.08312c0,-0.42278 0.1327,-0.80584 0.34709,-1.08313c0.21436,-0.27745 0.5104,-0.44911 0.83721,-0.44911z" fill="#ffffff" stroke="none" stroke-width="0.52112" stroke-linecap="butt"/><path d="M29.7831,332.4917c0.30949,0 0.58984,0.17169 0.79285,0.44914c0.20299,0.27726 0.32868,0.66035 0.32868,1.08309c0,0.42278 -0.1257,0.80584 -0.32868,1.08312c-0.20302,0.27745 -0.48336,0.44914 -0.79285,0.44914c-0.30946,0 -0.5898,-0.17169 -0.79282,-0.44914c-0.20302,-0.27729 -0.32868,-0.66035 -0.32868,-1.08312c0,-0.42275 0.12566,-0.80584 0.32868,-1.08309c0.20302,-0.27745 0.48336,-0.44914 0.79282,-0.44914z" fill="#ffffff" stroke="none" stroke-width="0.50596" stroke-linecap="butt"/><path d="M25.96616,334.20293c0.05945,0 0.11315,0.04998 0.1521,0.13056c0.03894,0.08074 0.06313,0.19229 0.06313,0.31527c0,0.12298 -0.02419,0.23449 -0.06313,0.31527c-0.03894,0.08054 -0.09265,0.13056 -0.1521,0.13056c-0.05945,0 -0.11315,-0.05002 -0.15209,-0.13056c-0.03894,-0.08078 -0.06313,-0.19229 -0.06313,-0.31527c0,-0.12298 0.02419,-0.23452 0.06313,-0.31527c0.03894,-0.08058 0.09265,-0.13056 0.15209,-0.13056z" fill="#000000" stroke="none" stroke-width="0.61106" stroke-linecap="butt"/><path d="M29.14338,334.37714c0.05945,0 0.11315,0.05002 0.15209,0.13059c0.03894,0.08074 0.06313,0.19228 0.06313,0.31526c0,0.12298 -0.02419,0.23449 -0.06313,0.31527c-0.03894,0.08054 -0.09265,0.13056 -0.15209,0.13056c-0.05945,0 -0.11315,-0.05002 -0.15209,-0.13056c-0.03894,-0.08078 -0.06314,-0.19229 -0.06314,-0.31527c0,-0.12298 0.02419,-0.23452 0.06314,-0.31526c0.03894,-0.08058 0.09265,-0.13059 0.15209,-0.13059z" fill="#000000" stroke="none" stroke-width="0.61106" stroke-linecap="butt"/><path d="M28.57968,333.11652l0.61496,-0.94294l1.61935,0.40996l-2.20355,1.76286z" fill="#f0372b" stroke="none" stroke-width="0.61106" stroke-linecap="round"/><path d="M28.02624,334.23366l-2.1421,-1.65011l1.3529,-0.54321l0.81993,0.96343z" fill="#f0372b" stroke="none" stroke-width="0.61106" stroke-linecap="round"/></g><path d="M19.41696,340.6087l3.32072,-0.29406l1.74234,1.28396l-3.78192,8.25253l-1.28114,-0.27444z" fill="#ffffff" stroke="none" stroke-width="0.59784" stroke-linecap="round"/><path d="M20.58535,341.65405c0.80761,-0.14123 0.86052,3.32831 0.81993,5.02207c-0.05331,2.20419 -1.66259,4.50163 -0.92241,6.50821c0.2847,0.94005 2.06417,-0.04941 2.97226,-0.61496c1.36085,-0.84924 2.11972,-2.46739 3.38219,-3.43347c0.32184,-0.24391 0.21342,0.23348 0.05126,0.71744c-0.70574,2.02338 -1.06367,4.30321 -2.35729,5.94451c-0.79759,1.01097 -2.26179,1.60339 -3.5257,1.58863c-1.20369,-0.01396 -2.37165,-0.64039 -3.18792,-1.67471c-0.81643,-1.03435 -1.28544,-2.60842 -1.32171,-4.03921c-0.03938,-1.52771 0.45321,-3.08436 1.01466,-4.53522c0.81358,-1.91784 2.13857,-5.32013 3.07473,-5.48329z" fill="#ffffff" stroke="none" stroke-width="0.61106" stroke-linecap="round"/><path d="M19.44236,342.79645l3.72994,1.41643" fill="none" stroke="#000000" stroke-width="1" stroke-linecap="round"/><path d="M17.88428,346.14866l3.72994,1.46364" fill="none" stroke="#000000" stroke-width="1" stroke-linecap="round"/><path d="M20.25862,351.09093l-3.53695,-1.40004" fill="none" stroke="#000000" stroke-width="1" stroke-linecap="round"/><path d="M18.85609,341.06314l1.91585,-0.99477" fill="none" stroke="#000000" stroke-width="1" stroke-linecap="round"/><path d="M22.98254,340.36312l1.76848,1.03161" fill="none" stroke="#000000" stroke-width="1" stroke-linecap="round"/><path d="M21.06468,340.01793h1.74588" fill="none" stroke="#000000" stroke-width="1" stroke-linecap="round"/><path d="M20.34782,338.03176l2.38326,-0.49882" fill="none" stroke="#000000" stroke-width="1" stroke-linecap="round"/><path d="M20.73579,334.54l1.99529,-0.05543" fill="none" stroke="#000000" stroke-width="1" stroke-linecap="round"/><path d="M20.36074,353.15916l-3.85202,-0.85908" fill="none" stroke="#000000" stroke-width="1" stroke-linecap="round"/><path d="M20.74872,353.49171l-2.49412,2.49411" fill="none" stroke="#000000" stroke-width="1" stroke-linecap="round"/><path d="M26.50505,350.5364l-0.66509,-0.38797" fill="none" stroke="#000000" stroke-width="1" stroke-linecap="round"/><path d="M24.98087,354.74867l-1.44104,-2.30012" fill="none" stroke="#000000" stroke-width="1" stroke-linecap="round"/><path d="M21.79395,357.18736l-0.11085,-3.71346" fill="none" stroke="#000000" stroke-width="1" stroke-linecap="round"/><g><path d="M23.62933,325.69552c0.9161,0 1.74626,0.27733 2.34746,0.7255c0.60124,0.44814 0.84578,1.06437 0.97326,1.74968c0.10661,0.57686 0.11584,1.42002 -0.30748,1.727c-0.86501,0.65317 -1.99487,0.72848 -3.01325,0.74818c-0.93408,0.01821 -1.93727,-0.05636 -2.75699,-0.63593c-0.42946,-0.35139 -0.61228,-1.17638 -0.5637,-1.83925c0.05206,-0.69453 0.37202,-1.30154 0.97326,-1.74968c0.60121,-0.44817 1.43136,-0.7255 2.34744,-0.7255z" fill="#f0372b" stroke="none" stroke-width="0.68047" stroke-linecap="round"/><path d="M23.10665,328.21743c1.27232,0.02663 2.61701,0.13855 3.74093,0.72768c0.59977,0.28923 1.09011,1.03374 1.02492,1.70137c-0.08876,0.90909 -0.53808,1.75176 -1.40721,2.35461c-0.86934,0.60309 -2.06971,0.97635 -3.39453,0.97635c-1.32479,0 -2.52515,-0.37326 -3.39449,-0.97635c-0.86913,-0.60285 -1.38711,-1.44123 -1.40721,-2.35461c-0.01721,-0.78796 0.63402,-1.55132 1.32214,-1.89611c1.05955,-0.53089 2.33166,-0.55777 3.51546,-0.53294z" fill="#f0372b" stroke="none" stroke-width="0.61106" stroke-linecap="round"/><path d="M19.5237,329.53568c0.04677,0.0116 0.08135,0.0527 0.0997,0.10983c0.01835,0.05713 0.02026,0.13026 0.00158,0.20567c-0.01869,0.07541 -0.05458,0.13914 -0.09749,0.18111c-0.04294,0.04193 -0.09271,0.06209 -0.13948,0.05052c-0.04673,-0.0116 -0.08131,-0.0527 -0.09966,-0.10983c-0.01835,-0.05716 -0.0203,-0.13029 -0.00158,-0.20567c0.01869,-0.07541 0.05454,-0.13919 0.09748,-0.18112c0.04294,-0.04193 0.09268,-0.06212 0.13945,-0.05052z" fill="#671712" stroke="none" stroke-width="0.61106" stroke-linecap="butt"/><path d="M20.3129,329.5664c0.04677,0.0116 0.08131,0.0527 0.09966,0.10986c0.01838,0.05713 0.0203,0.13026 0.00161,0.20567c-0.01872,0.07538 -0.05458,0.13915 -0.09752,0.18108c-0.04291,0.04193 -0.09268,0.06212 -0.13945,0.05052c-0.04677,-0.01157 -0.08135,-0.05267 -0.0997,-0.10983c-0.01835,-0.05713 -0.02026,-0.13026 -0.00157,-0.20567c0.01872,-0.07541 0.05458,-0.13915 0.09752,-0.18108c0.04291,-0.04197 0.09268,-0.06213 0.13945,-0.05055z" fill="#671712" stroke="none" stroke-width="0.61106" stroke-linecap="butt"/><path d="M25.5562,330.89243c0,0 -0.21237,0.33331 -0.32797,0.46122c-0.1107,0.12177 -0.2415,0.2433 -0.36897,0.32797c-0.25482,0.15334 -0.52744,0.28206 -0.80969,0.36897c-0.30913,0.09161 -0.64284,0.13939 -0.9634,0.10249c-0.47024,-0.05411 -0.96589,-0.19493 -1.42466,-0.38946c-0.22855,-0.09366 -0.37984,-0.30892 -0.60469,-0.46123c-0.43845,-0.29802 -0.84002,-0.67501 -1.33237,-0.87115c-0.23123,-0.09205 -0.5266,-0.049 -0.77894,0.0205c-0.23596,0.07072 -0.5842,0.3382 -0.5842,0.3382" fill="none" stroke="#671712" stroke-width="0.61106" stroke-linecap="round"/><path d="M21.3085,326.40371c0.32683,0 0.62284,0.17169 0.83723,0.44911c0.21436,0.27729 0.34706,0.66035 0.34706,1.08312c0,0.42278 -0.13271,0.80584 -0.34706,1.08312c-0.21439,0.27745 -0.5104,0.44914 -0.83723,0.44914c-0.32681,0 -0.62281,-0.17169 -0.8372,-0.44914c-0.21436,-0.27729 -0.34707,-0.66035 -0.34707,-1.08312c0,-0.42278 0.13271,-0.80584 0.34707,-1.08312c0.21439,-0.27742 0.5104,-0.44911 0.8372,-0.44911z" fill="#ffffff" stroke="none" stroke-width="0.52112" stroke-linecap="butt"/><path d="M24.42282,326.52669c0.30949,0 0.5898,0.17169 0.79282,0.44914c0.20302,0.27729 0.32868,0.66036 0.32868,1.08313c0,0.42275 -0.12566,0.8058 -0.32868,1.08309c-0.20302,0.27745 -0.48333,0.44915 -0.79282,0.44915c-0.30949,0 -0.58984,-0.17169 -0.79286,-0.44915c-0.20299,-0.27729 -0.32868,-0.66034 -0.32868,-1.08309c0,-0.42278 0.12569,-0.80584 0.32868,-1.08313c0.20302,-0.27745 0.48336,-0.44914 0.79286,-0.44914z" fill="#ffffff" stroke="none" stroke-width="0.50596" stroke-linecap="butt"/><path d="M20.60585,328.23793c0.05945,0 0.11315,0.05002 0.15209,0.13056c0.03894,0.08078 0.06313,0.19228 0.06313,0.31526c0,0.12301 -0.02419,0.23452 -0.06313,0.31526c-0.03894,0.08058 -0.09265,0.1306 -0.15209,0.1306c-0.05945,0 -0.11316,-0.05002 -0.1521,-0.1306c-0.03894,-0.08074 -0.06313,-0.19225 -0.06313,-0.31526c0,-0.12298 0.02419,-0.23448 0.06313,-0.31526c0.03894,-0.08054 0.09266,-0.13056 0.1521,-0.13056z" fill="#000000" stroke="none" stroke-width="0.61106" stroke-linecap="butt"/><path d="M23.78307,328.41216c0.05945,0 0.11315,0.05002 0.1521,0.13056c0.03894,0.08078 0.06313,0.19229 0.06313,0.31527c0,0.12298 -0.02419,0.23452 -0.06313,0.31527c-0.03894,0.08058 -0.09265,0.13059 -0.1521,0.13059c-0.05945,0 -0.11315,-0.05001 -0.1521,-0.13059c-0.03894,-0.08074 -0.06313,-0.19229 -0.06313,-0.31527c0,-0.12298 0.02419,-0.23449 0.06313,-0.31527c0.03894,-0.08054 0.09265,-0.13056 0.1521,-0.13056z" fill="#000000" stroke="none" stroke-width="0.61106" stroke-linecap="butt"/><path d="M23.21937,327.15151l0.61496,-0.94293l1.61935,0.40996l-2.20355,1.76286z" fill="#f0372b" stroke="none" stroke-width="0.61106" stroke-linecap="round"/><path d="M22.66593,328.26865l-2.14207,-1.65011l1.35287,-0.54317l0.81996,0.9634z" fill="#f0372b" stroke="none" stroke-width="0.61106" stroke-linecap="round"/></g><g><path d="M17.39787,330.92259c0.91607,0 1.74626,0.27732 2.34746,0.72546c0.60121,0.44817 0.84576,1.0644 0.97327,1.74971c0.10657,0.57682 0.1158,1.42003 -0.30748,1.72701c-0.86501,0.65314 -1.9949,0.72845 -3.01325,0.74817c-0.93411,0.01818 -1.9373,-0.05635 -2.75702,-0.63596c-0.42942,-0.35136 -0.61228,-1.17635 -0.5637,-1.83922c0.05207,-0.69453 0.37205,-1.30154 0.97326,-1.74971c0.60121,-0.44814 1.43139,-0.72546 2.34746,-0.72546z" fill="#f0372b" stroke="none" stroke-width="0.68047" stroke-linecap="round"/><path d="M16.87516,333.4445c1.27232,0.02663 2.61701,0.13854 3.74096,0.72767c0.59977,0.28923 1.09007,1.03371 1.02489,1.70134c-0.08876,0.90913 -0.53808,1.7518 -1.40722,2.35465c-0.86931,0.60305 -2.0697,0.97635 -3.39449,0.97635c-1.32483,0 -2.52519,-0.3733 -3.39453,-0.97635c-0.8691,-0.60285 -1.38712,-1.44123 -1.40721,-2.35465c-0.01721,-0.78792 0.63402,-1.55129 1.32214,-1.89607c1.05958,-0.53089 2.33169,-0.55777 3.51546,-0.53294z" fill="#f0372b" stroke="none" stroke-width="0.61106" stroke-linecap="round"/><path d="M13.29224,334.76275c0.04673,0.01157 0.08132,0.05266 0.09966,0.10983c0.01839,0.05713 0.02029,0.13026 0.00161,0.20567c-0.01872,0.07541 -0.05458,0.13915 -0.09752,0.18108c-0.04294,0.04197 -0.09268,0.06213 -0.13945,0.05055c-0.04677,-0.0116 -0.08135,-0.0527 -0.0997,-0.10986c-0.01835,-0.05713 -0.02026,-0.13026 -0.00158,-0.20567c0.01872,-0.07538 0.05458,-0.13915 0.09752,-0.18108c0.0429,-0.04193 0.09268,-0.06212 0.13945,-0.05052z" fill="#671712" stroke="none" stroke-width="0.61106" stroke-linecap="butt"/><path d="M14.0814,334.79347c0.04677,0.0116 0.08134,0.0527 0.09969,0.10983c0.01835,0.05716 0.0203,0.13029 0.00158,0.20567c-0.01868,0.07541 -0.05458,0.13918 -0.09748,0.18111c-0.04294,0.04193 -0.09272,0.06212 -0.13949,0.05052c-0.04673,-0.0116 -0.08132,-0.0527 -0.09966,-0.10983c-0.01835,-0.05713 -0.0203,-0.13026 -0.00158,-0.20567c0.01868,-0.07541 0.05458,-0.13915 0.09749,-0.18111c0.04294,-0.04193 0.09272,-0.06209 0.13945,-0.05052z" fill="#671712" stroke="none" stroke-width="0.61106" stroke-linecap="butt"/><path d="M19.3247,336.1195c0,0 -0.21234,0.33331 -0.32797,0.46122c-0.11067,0.12174 -0.24147,0.24331 -0.36897,0.32798c-0.25478,0.1533 -0.52741,0.28206 -0.80966,0.36897c-0.30913,0.09161 -0.64284,0.13938 -0.96344,0.10248c-0.47021,-0.05411 -0.96588,-0.19494 -1.42462,-0.38947c-0.22855,-0.0937 -0.37984,-0.30892 -0.60469,-0.46122c-0.43848,-0.29805 -0.84002,-0.67501 -1.3324,-0.87119c-0.23119,-0.09202 -0.5266,-0.04898 -0.77894,0.02049c-0.23592,0.07075 -0.5842,0.33825 -0.5842,0.33825" fill="none" stroke="#671712" stroke-width="0.61106" stroke-linecap="round"/><path d="M15.07704,331.63078c0.32681,0 0.62285,0.17165 0.8372,0.44911c0.21436,0.27729 0.34709,0.66035 0.34709,1.08313c0,0.42278 -0.13274,0.80584 -0.34709,1.08313c-0.21435,0.27745 -0.5104,0.44911 -0.8372,0.44911c-0.32681,0 -0.62285,-0.17165 -0.8372,-0.44911c-0.21439,-0.27729 -0.3471,-0.66035 -0.3471,-1.08313c0,-0.42278 0.13271,-0.80584 0.3471,-1.08313c0.21435,-0.27745 0.5104,-0.44911 0.8372,-0.44911z" fill="#ffffff" stroke="none" stroke-width="0.52112" stroke-linecap="butt"/><path d="M18.19133,331.75376c0.30949,0 0.58984,0.17169 0.79285,0.44914c0.20299,0.27729 0.32868,0.66035 0.32868,1.08309c0,0.42278 -0.1257,0.80584 -0.32868,1.08312c-0.20302,0.27745 -0.48336,0.44914 -0.79285,0.44914c-0.30946,0 -0.5898,-0.17169 -0.79282,-0.44914c-0.20302,-0.27729 -0.32868,-0.66035 -0.32868,-1.08312c0,-0.42275 0.12566,-0.8058 0.32868,-1.08309c0.20302,-0.27745 0.48336,-0.44914 0.79282,-0.44914z" fill="#ffffff" stroke="none" stroke-width="0.50596" stroke-linecap="butt"/><path d="M14.37439,333.46499c0.05945,0 0.11315,0.05002 0.1521,0.13056c0.03895,0.08078 0.06313,0.19229 0.06313,0.31527c0,0.12298 -0.02419,0.23449 -0.06313,0.31527c-0.03895,0.08054 -0.09265,0.13056 -0.1521,0.13056c-0.05948,0 -0.11315,-0.05002 -0.1521,-0.13056c-0.03895,-0.08078 -0.06316,-0.19229 -0.06316,-0.31527c0,-0.12298 0.02422,-0.23449 0.06316,-0.31527c0.03895,-0.08054 0.09262,-0.13056 0.1521,-0.13056z" fill="#000000" stroke="none" stroke-width="0.61106" stroke-linecap="butt"/><path d="M17.5516,333.63923c0.05945,0 0.11316,0.05002 0.1521,0.13056c0.03894,0.08074 0.06313,0.19228 0.06313,0.31526c0,0.12298 -0.02419,0.23448 -0.06313,0.31526c-0.03894,0.08054 -0.09266,0.13056 -0.1521,0.13056c-0.05945,0 -0.11315,-0.05002 -0.15209,-0.13056c-0.03894,-0.08078 -0.06313,-0.19228 -0.06313,-0.31526c0,-0.12298 0.02419,-0.23452 0.06313,-0.31526c0.03894,-0.08054 0.09265,-0.13056 0.15209,-0.13056z" fill="#000000" stroke="none" stroke-width="0.61106" stroke-linecap="butt"/><path d="M16.98791,332.37858l0.61496,-0.94294l1.61935,0.40996l-2.20356,1.76286z" fill="#f0372b" stroke="none" stroke-width="0.61106" stroke-linecap="round"/><path d="M16.43443,333.49572l-2.14206,-1.65012l1.3529,-0.54321l0.81993,0.96344z" fill="#f0372b" stroke="none" stroke-width="0.61106" stroke-linecap="round"/></g></g></g></g></svg>