<svg version="1.1" xmlns="http://www.w3.org/2000/svg" xmlns:xlink="http://www.w3.org/1999/xlink" width="140.46818" height="156.82634" viewBox="0,0,140.46818,156.82634"><g transform="translate(-169.57148,-92.37102)"><g data-paper-data="{&quot;isPaintingLayer&quot;:true}" fill-rule="nonzero" stroke-linejoin="miter" stroke-miterlimit="10" stroke-dasharray="" stroke-dashoffset="0" style="mix-blend-mode: normal"><g data-paper-data="{&quot;index&quot;:null,&quot;origRot&quot;:0}" stroke="none" stroke-width="0" stroke-linecap="butt"><path d="M261.71875,156.86684c5.19612,-1.12141 12.0181,6.97495 14.07162,16.48992c2.05349,9.51494 2.58454,18.86624 2.58454,18.86624l-15.55448,3.54417c0,0 -5.03207,-14.48619 -6.68372,-22.13916c-2.05349,-9.51494 0.386,-15.63976 5.5821,-16.76117z" data-paper-data="{&quot;origRot&quot;:0,&quot;origPos&quot;:null}" fill="#ff0021"/><g data-paper-data="{&quot;origPos&quot;:null}" fill="#ffffff"><path d="M270.87516,199.06565c9.07713,-2.39915 20.44101,-4.86387 22.40653,4.83573c1.42591,7.03668 -5.59748,19.26626 -14.98094,19.58424c-10.23949,0.34698 -19.31326,2.29575 -20.48522,-8.75631c-1.0943,-10.31968 3.9825,-13.26446 13.05965,-15.66365z" data-paper-data="{&quot;origRot&quot;:0,&quot;origPos&quot;:null}"/><path d="M270.11254,191.17893c7.01051,-1.84306 14.64962,-5.31325 15.63457,0.17766c1.10186,6.14265 -0.81706,6.26303 -12.34768,8.99185c-13.13553,3.1086 -14.57721,5.97513 -16.1125,-0.69883c-0.89649,-3.89712 5.81508,-6.6276 12.8256,-8.47069z" data-paper-data="{&quot;origRot&quot;:0,&quot;origPos&quot;:null}"/></g></g><g data-paper-data="{&quot;origRot&quot;:0}" stroke="none" stroke-width="0" stroke-linecap="butt"><path d="M286.44699,198.59936c3.68253,2.70506 8.34117,-0.14512 9.03085,0.62999c2.79037,3.13607 3.79592,6.51387 0.93662,13.06301c-3.54186,8.11256 -8.22858,12.91959 -16.53902,15.96842c-5.66012,2.07652 -4.79355,-3.12916 -7.93713,-8.27377c-1.128,-1.84602 -2.85884,-3.9498 -6.72215,-7.77466c-4.83015,-4.78206 -12.03837,-15.42574 -12.03837,-15.42574c0,0 2.76059,-4.63385 6.04267,-8.74909c3.28912,-4.03584 8.22953,-6.6811 8.22953,-6.6811c0,0 10.48438,10.98983 18.99698,17.2429z" data-paper-data="{&quot;origPos&quot;:null}" fill="#0052ef"/><path d="M308.14221,207.16524c3.01093,2.4764 1.90962,6.70704 0.32071,10.26705c-1.04129,2.33303 -8.90033,11.33807 -15.34806,13.71107c-2.00174,0.73672 -4.84133,0.3366 -4.84133,0.3366c0,0 -2.61285,4.37249 -3.72872,3.43599c-0.88583,-0.74342 -2.42515,-1.97179 -2.17686,-3.21841c1.06865,-5.36607 8.33062,-14.18581 11.80621,-18.41159c4.77118,-5.80104 11.02488,-8.54138 13.96806,-6.12072z" data-paper-data="{&quot;origPos&quot;:null}" fill="#f9c869"/><path d="M305.55708,202.59906c2.65631,3.95408 2.27433,9.55332 -3.11956,16.1115c-5.39389,6.55818 -14.96772,10.44528 -14.96772,10.44528c0,0 -3.655,4.95343 -4.95215,4.0476c-2.68472,-1.87482 -6.83581,-5.21286 -6.18547,-6.27773c2.40091,-3.93127 2.33076,-2.87379 5.13468,-8.29055c1.81538,-3.5071 3.07147,-10.82773 5.58,-13.87773c5.39389,-6.55818 14.1366,-8.66878 18.51021,-2.15835z" data-paper-data="{&quot;origPos&quot;:null}" fill="#ad5d21"/></g><g data-paper-data="{&quot;origRot&quot;:0}" stroke="none" stroke-width="0" stroke-linecap="butt"><path d="M273.27432,212.79492c3.61839,2.7903 8.34232,0.04964 9.01368,0.84063c2.7164,3.20037 3.64283,6.6007 0.63144,13.0813c-3.73028,8.02768 -8.52792,12.724 -16.90725,15.57801c-5.70707,1.94384 -4.7192,-3.24019 -7.74183,-8.45676c-1.08459,-1.87184 -2.7659,-4.01546 -6.53887,-7.92944c-4.71721,-4.89351 -11.37453,-16.43379 -11.37453,-16.43379c0,0 4.90538,-5.78224 8.87666,-8.97736c3.13407,-2.52154 9.32988,-5.67084 9.32988,-5.67084c0,0 6.34648,11.51816 14.71078,17.96826z" data-paper-data="{&quot;origPos&quot;:null}" fill="#0052ef"/><path d="M294.76368,221.86489c2.95229,2.54602 1.75254,6.7498 0.08098,10.27173c-1.09547,2.30808 -9.16255,11.1272 -15.66391,13.3491c-2.01838,0.68978 -4.84784,0.22353 -4.84784,0.22353c0,0 -2.71418,4.31034 -3.80793,3.348c-0.86821,-0.76388 -2.37848,-2.02786 -2.10114,-3.26835c1.19364,-5.33968 8.65948,-13.98749 12.23275,-18.13101c4.90529,-5.6881 11.22127,-8.28171 14.10715,-5.79299z" data-paper-data="{&quot;origPos&quot;:null}" fill="#f9c869"/><path d="M292.28583,217.2396c2.56327,4.01498 2.05073,9.6038 -3.49478,16.03428c-5.5455,6.43047 -15.20746,10.09304 -15.20746,10.09304c0,0 -3.76965,4.86678 -5.04528,3.9309c-2.64024,-1.93698 -6.71228,-5.37098 -6.03724,-6.42042c2.49203,-3.87416 2.39723,-2.81861 5.32679,-8.16844c1.89675,-3.46374 3.32337,-10.75309 5.90241,-13.7437c5.5455,-6.43047 14.33507,-8.33643 18.55554,-1.72569z" data-paper-data="{&quot;origPos&quot;:null}" fill="#ad5d21"/></g><g data-paper-data="{&quot;origPos&quot;:null,&quot;origRot&quot;:0}"><path d="M281.01421,171.58753c11.51771,17.77115 3.23547,30.02167 -9.66024,38.04484c-12.89571,8.02318 -28.82221,6.10984 -34.19045,-2.51855c-5.82363,-9.36037 -9.34001,-17.50819 -5.82702,-27.95761c2.61726,-7.78511 11.66092,-10.5332 18.63464,-14.87198c12.89571,-8.02318 19.75312,-10.1164 31.04306,7.30331z" data-paper-data="{&quot;origPos&quot;:null}" fill="#0052ef" stroke="none" stroke-width="0" stroke-linecap="butt"/><path d="M280.69725,171.07809c0,0 -13.58491,10.80745 -23.69515,17.56872c-9.27354,6.2017 -20.81551,8.94622 -20.81551,8.94622c0,0 -8.12532,-11.19249 -4.19102,-19.95813c2.57409,-5.73508 6.94688,-9.80933 13.24917,-13.94335c6.30228,-4.134 14.48512,-6.49271 19.32918,-5.88724c11.44224,1.4302 16.1233,13.27379 16.1233,13.27379z" data-paper-data="{&quot;origPos&quot;:null}" fill="#ff0021" stroke="none" stroke-width="0" stroke-linecap="butt"/><path d="M257.75073,160.49382c0,0 5.43074,4.67732 7.97005,7.94142c3.26154,4.1925 7.54163,13.21958 7.54163,13.21958" data-paper-data="{&quot;origPos&quot;:null,&quot;origRot&quot;:0}" fill="none" stroke="#0052ef" stroke-width="10" stroke-linecap="round"/><path d="M239.75756,172.28753c0,0 4.78187,5.33891 6.87881,8.90335c2.69335,4.57825 5.77297,14.08213 5.77297,14.08213" data-paper-data="{&quot;origPos&quot;:null}" fill="none" stroke="#0052ef" stroke-width="10" stroke-linecap="round"/><path d="M248.51877,195.45586c-1.19618,-1.92263 -0.60729,-4.45093 1.31536,-5.64711c1.92263,-1.19618 4.45094,-0.60727 5.64711,1.31536c1.19618,1.92263 0.6073,4.45092 -1.31536,5.6471c-1.92263,1.19618 -4.45092,0.6073 -5.6471,-1.31536z" data-paper-data="{&quot;origPos&quot;:null}" fill="#ffe84f" stroke="none" stroke-width="0" stroke-linecap="butt"/><path d="M269.57598,182.35494c-1.19618,-1.92263 -0.6073,-4.45092 1.31536,-5.6471c1.92263,-1.19618 4.45093,-0.60728 5.6471,1.31536c1.19618,1.92263 0.60728,4.45093 -1.31536,5.64711c-1.92263,1.19618 -4.45093,0.60728 -5.6471,-1.31536z" data-paper-data="{&quot;origPos&quot;:null}" fill="#ffe84f" stroke="none" stroke-width="0" stroke-linecap="butt"/></g><g data-paper-data="{&quot;origRot&quot;:0,&quot;origPos&quot;:null}"><path d="M241.12215,101.31661c2.51049,2.89982 -1.20823,14.62436 -7.00678,21.38937c-4.67248,5.45124 -8.643,-0.29602 -11.41056,-2.66821c-2.76756,-2.37217 6.9929,-12.53774 11.66537,-17.98899c4.67248,-5.45124 5.12695,-2.60919 6.75196,-0.73217z" data-paper-data="{&quot;origPos&quot;:null}" fill="#bb041a" stroke="none" stroke-width="0" stroke-linecap="butt"/><path d="M224.52128,183.55026c0,0 -0.21774,2.05275 -2.48189,2.59216c-2.26411,0.53941 -5.55382,-0.48356 -4.92697,-3.53634c0.74976,-3.65142 -4.41526,-6.96466 -2.15117,-7.50408c0,0 5.48283,-4.82677 8.04317,-3.3674c0,0 8.33012,3.12205 8.53141,4.9411c0,0 -0.15597,2.21306 -3.34579,5.59723c-1.72829,1.8336 -3.66879,1.2773 -3.66879,1.2773z" data-paper-data="{&quot;origRot&quot;:0,&quot;origPos&quot;:null}" fill="#5a2c0a" stroke="none" stroke-width="0" stroke-linecap="butt"/><path d="M198.33098,154.74849c3.57213,-2.62001 22.59109,-29.68814 26.60612,-33.87755c5.94017,-6.19819 10.27247,0.63638 17.16833,5.75012c7.92876,5.8797 15.80228,3.58388 20.57997,12.22156c1.84205,3.33031 1.31222,6.81594 1.15485,10.6185c-0.08928,2.15717 -2.18408,6.5954 -9.03646,14.93086c-9.68626,11.78268 -14.37494,13.45871 -22.10487,15.11382c-4.90829,1.05095 -7.05692,-3.08482 -12.77308,-3.80232c-1.75222,-0.21995 -3.10013,0.14481 -3.22672,0.29249c-6.74896,7.87383 -16.9633,6.6274 -23.11342,1.35588c-6.15013,-5.27151 -8.72721,-12.35491 -4.95329,-16.75785c3.77392,-4.40292 8.45653,-4.93454 9.69859,-5.84554z" data-paper-data="{&quot;origPos&quot;:null}" fill="#ffdebd" stroke="none" stroke-width="0" stroke-linecap="butt"/><path d="M233.64115,121.55316c3.9412,2.91408 5.6722,7.25641 3.86629,9.69884c-1.80591,2.44244 -6.46486,2.06009 -10.40606,-0.85399c-3.9412,-2.91408 -5.67219,-7.2564 -3.86629,-9.69884c1.80591,-2.44244 6.46487,-2.06011 10.40607,0.85399z" data-paper-data="{&quot;origPos&quot;:null,&quot;origRot&quot;:0}" fill="#ffffff" stroke="none" stroke-width="0" stroke-linecap="butt"/><path d="M211.04574,151.93606c1.98051,1.69757 6.86757,1.85876 6.20681,4.3822c-0.76867,2.93555 -3.0721,2.80122 -3.0721,2.80122c0,0 1.57531,0.58338 -0.2836,3.80258c-1.3809,2.39136 -6.31429,-0.59549 -9.66891,-3.47086c-3.35461,-2.87537 -6.61505,-5.64803 -4.89644,-7.80949c7.23584,-9.10042 8.35963,-2.581 11.71424,0.29437z" data-paper-data="{&quot;origPos&quot;:null}" fill="#5a2c0a" stroke="none" stroke-width="0" stroke-linecap="butt"/><path d="M228.96568,134.69816c4.06776,2.73465 5.99149,6.9951 4.29677,9.51596c-1.69471,2.52087 -6.36613,2.34756 -10.43388,-0.3871c-4.06776,-2.73465 -5.99149,-6.9951 -4.29677,-9.51596c1.69471,-2.52087 6.36613,-2.34756 10.43388,0.3871z" data-paper-data="{&quot;origPos&quot;:null,&quot;origRot&quot;:0}" fill="#ffffff" stroke="none" stroke-width="0" stroke-linecap="butt"/><path d="M224.37802,134.44448c0.61957,-0.72283 1.7082,-0.925 2.96685,-0.66935c1.25798,0.25642 2.68669,0.9713 3.98578,2.0848c1.29909,1.1135 2.22409,2.41606 2.66988,3.62002c0.44514,1.20473 0.41185,2.31151 -0.2077,3.03431c-0.61957,0.72283 -1.7082,0.925 -2.96685,0.66935c-1.25798,-0.25642 -2.68669,-0.9713 -3.98578,-2.0848c-1.29909,-1.1135 -2.22408,-2.41606 -2.66989,-3.62002c-0.44514,-1.20473 -0.41185,-2.31151 0.2077,-3.03431z" data-paper-data="{&quot;origPos&quot;:null}" fill="#000000" stroke="none" stroke-width="1" stroke-linecap="butt"/><path d="M229.38365,121.61302c0.61957,-0.72283 1.7082,-0.925 2.96685,-0.66935c1.25798,0.25642 2.70923,1.30147 3.98578,2.0848c0.46326,0.28775 1.15613,0.68409 1.26905,1.2853c0.12377,0.74222 -0.18602,1.52773 -0.46638,2.23438c-0.61998,1.12284 -1.00102,2.76131 -2.20184,3.18345c-1.06902,0.35599 -2.20249,-0.71565 -3.09126,-1.46427c-1.14812,-0.96696 -2.22408,-2.41606 -2.66989,-3.62002c-0.44514,-1.20473 -0.41185,-2.31151 0.2077,-3.03431z" data-paper-data="{&quot;origPos&quot;:null}" fill="#000000" stroke="none" stroke-width="1" stroke-linecap="round"/><path d="M211.42287,94.43891c12.90642,7.90623 11.67181,10.65254 10.07885,19.86264c-2.32106,13.41986 -13.35224,24.12112 -17.37491,37.13256c-1.05624,3.41647 -9.12128,7.51891 -11.44851,10.23404c-4.75985,5.5532 -11.41444,5.28476 -16.33841,1.46232c-10.86113,-8.43142 -6.50063,-13.60058 -1.74078,-19.15378c0,0 6.25134,-5.24324 11.30311,-4.57509c0,0 -6.54562,-20.35861 -0.57272,-30.78561c7.68879,-13.42246 16.82484,-19.8548 26.09337,-14.1771z" data-paper-data="{&quot;origPos&quot;:null}" fill="#ff0021" stroke="none" stroke-width="0" stroke-linecap="butt"/><path d="M216.01245,102.1844c4.15133,3.55826 6.32236,7.34625 -0.42296,15.70577c-7.1209,8.82497 -11.30494,6.3784 -15.4563,2.82014c-4.15133,-3.55826 -3.96197,-10.58997 0.42296,-15.70577c4.38493,-5.11578 11.30495,-6.37842 15.45628,-2.82015z" data-paper-data="{&quot;origPos&quot;:null}" fill="#ffffff" stroke="none" stroke-width="0" stroke-linecap="butt"/><path d="M239.78804,99.64622c0.52165,0.71054 -20.6687,34.10153 -26.8884,43.20179c-3.02284,4.42285 -10.35737,12.32721 -10.87903,11.61666c-1.92835,-2.62662 -4.43468,-7.49537 -2.37543,-12.44095c2.4885,-5.97646 12.15999,-25.5269 22.63048,-37.37124c4.28029,-4.84192 15.584,-7.63288 17.51236,-5.00623z" data-paper-data="{&quot;origPos&quot;:null}" fill="#bb041a" stroke="none" stroke-width="0" stroke-linecap="butt"/><path d="M206.95084,121.54909l-6.59348,-12.01013l7.37475,0.52097l-2.25887,-5.52327l11.12548,2.51239l-0.7032,4.21609l-6.78913,-3.82007l1.77798,5.09952l-5.88593,-0.3406l4.74752,6.08417z" data-paper-data="{&quot;origPos&quot;:null}" fill="#ff0021" stroke="none" stroke-width="0" stroke-linecap="butt"/><path d="M262.53127,139.54719c1.69335,1.94021 1.41064,4.23323 0.76749,5.58595c-1.96294,4.12855 -6.27761,8.89454 -10.12761,11.35938c-2.21268,1.41661 -3.47737,0.39142 -3.80817,0.4278c-0.34951,0.03842 -0.74298,3.27452 -2.87091,5.75711c-3.41449,3.98359 -8.58299,4.33224 -12.51417,0.96267c-4.31082,-3.69496 -6.38566,-6.12233 -5.9539,-6.87704c2.51452,-4.39553 6.8074,-2.66777 10.86191,-4.2271c0,0 11.51292,-6.96654 15.14082,-11.7217c0,0 2.84778,-10.25406 4.94227,-12.39374c1.03877,-1.06118 3.40261,0.95219 4.28912,2.32771c0,0 3.35119,2.67208 2.86638,4.98734c-1.14631,5.47447 -4.08325,3.25009 -3.59318,3.81159z" data-paper-data="{&quot;origPos&quot;:null}" fill="#38291e" stroke="none" stroke-width="0" stroke-linecap="butt"/><path d="M254.04382,124.86373c4.69938,4.68657 9.18046,6.38402 -0.36602,17.13749c-4.39988,4.95618 -11.6924,7.09997 -16.14773,3.28113c-4.45535,-3.81884 -5.79385,-13.38564 -1.88465,-18.73737c5.69596,-7.79779 10.88006,-9.17907 18.39842,-1.68126z" data-paper-data="{&quot;origPos&quot;:null}" fill="#ffdebd" stroke="none" stroke-width="0" stroke-linecap="butt"/><g data-paper-data="{&quot;origPos&quot;:null}" fill="none" stroke="#f6b09a" stroke-width="3.5" stroke-linecap="round"><path d="M194.45975,169.70601c0,0 0.61501,-3.37578 5.30678,-4.34818c6.72878,-1.3946 10.09529,5.6962 10.09529,5.6962" data-paper-data="{&quot;origPos&quot;:null}"/><path d="M201.32408,172.01476l3.90473,-4.55555" data-paper-data="{&quot;origPos&quot;:null}"/><path d="M209.41246,171.79781l-0.83672,0.97619" data-paper-data="{&quot;origPos&quot;:null}"/></g><path d="M214.61454,135.08107c-0.58383,1.31154 -0.39386,1.38859 0.13643,2.72269c0.54707,1.37631 0.88044,3.58185 0.88044,3.58185c0,0 -3.70294,-1.2532 -5.74715,-3.00538c-1.388,-1.18971 -3.16076,-4.01753 -1.81221,-6.57277c5.95911,-7.44541 10.92468,0.54745 10.92468,0.54745c0,0 -3.79912,1.32349 -4.38215,2.72618z" data-paper-data="{&quot;origPos&quot;:null}" fill="#38291e" stroke="none" stroke-width="0" stroke-linecap="butt"/><path d="M223.71715,120.14953c-0.91917,1.20937 -0.15246,5.15869 -0.15246,5.15869c0,0 -9.40579,-0.27216 -5.96739,-9.16725c1.53038,-2.45068 4.86614,-2.34057 6.59249,-1.7392c2.54254,0.88568 5.48801,3.45601 5.48801,3.45601c0,0 -2.07398,0.82108 -3.53871,1.04038c-1.41979,0.21259 -1.58193,0.08714 -2.42194,1.25137z" data-paper-data="{&quot;origPos&quot;:null,&quot;index&quot;:null,&quot;origRot&quot;:0}" fill="#38291e" stroke="none" stroke-width="0" stroke-linecap="butt"/></g><g data-paper-data="{&quot;origRot&quot;:0}" stroke="none" stroke-width="0" stroke-linecap="butt"><path d="M243.41513,192.21611c0.20125,7.8266 -1.26965,23.09116 -1.26965,23.09116l-15.95155,0.22709c0,0 -1.69106,-9.21245 -1.94129,-18.94323c-0.25022,-9.73081 4.46815,-19.20856 9.78212,-19.34521c5.31398,-0.13664 9.13012,5.23936 9.38034,14.97018z" data-paper-data="{&quot;origRot&quot;:0,&quot;origPos&quot;:null}" fill="#ff0021"/><g data-paper-data="{&quot;origPos&quot;:null}" fill="#ffffff"><path d="M251.48437,232.55244c1.46965,11.01643 -7.80772,11.26428 -17.83984,13.34383c-9.19339,1.90569 -18.90477,-8.32074 -19.17993,-15.49517c-0.37929,-9.88945 11.24525,-10.17647 20.63218,-9.98745c9.38694,0.18902 15.01533,1.85239 16.38757,12.13879z" data-paper-data="{&quot;origRot&quot;:0,&quot;origPos&quot;:null}"/><path d="M248.43893,217.77403c0.08328,6.84774 -1.99422,4.40247 -15.49235,4.48192c-11.84892,0.06974 -13.74205,0.40567 -14.12108,-5.82352c-0.33884,-5.56824 7.9035,-3.9991 15.15096,-3.8627c7.24745,0.1364 14.41389,1.2057 14.46248,5.20429z" data-paper-data="{&quot;origRot&quot;:0,&quot;origPos&quot;:null}"/></g></g></g></g></svg>