<svg version="1.1" xmlns="http://www.w3.org/2000/svg" xmlns:xlink="http://www.w3.org/1999/xlink" width="164.95724" height="179.75141" viewBox="0,0,164.95724,179.75141"><g transform="translate(-166.46527,-78.89121)"><g data-paper-data="{&quot;isPaintingLayer&quot;:true}" fill-rule="nonzero" stroke-linejoin="miter" stroke-miterlimit="10" stroke-dasharray="" stroke-dashoffset="0" style="mix-blend-mode: normal"><g data-paper-data="{&quot;index&quot;:null,&quot;origRot&quot;:0}" stroke="none" stroke-width="0" stroke-linecap="butt"><path d="M231.49304,173.50338c-2.31259,4.78634 -12.89242,5.18368 -21.65703,0.94899c-8.76461,-4.23472 -16.46357,-9.569 -16.46357,-9.569l6.77502,-14.44307c0,0 14.51623,4.9448 21.56568,8.35082c8.76461,4.23468 12.09245,9.9259 9.77989,14.71225z" data-paper-data="{&quot;origRot&quot;:0,&quot;origPos&quot;:null}" fill="#ff0021"/><g data-paper-data="{&quot;origPos&quot;:null}" fill="#ffffff"><path d="M188.27738,134.82909c8.80893,5.48597 8.00725,11.30001 4.31442,19.93212c-3.69287,8.6321 -8.74085,19.10733 -17.59689,14.68968c-6.42473,-3.20484 -11.74534,-16.26552 -6.22331,-23.85878c6.02583,-8.28597 10.07165,-16.63833 19.50575,-10.76302z" data-paper-data="{&quot;origRot&quot;:0,&quot;origPos&quot;:null}"/><path d="M200.49088,143.68942c3.62391,1.69076 1.64756,8.66179 -1.2123,15.32251c-2.85986,6.66073 -4.82366,14.81803 -9.75847,12.21652c-5.52055,-2.9103 -4.43493,-4.49717 0.50743,-15.26634c5.63028,-12.26806 4.25732,-15.16814 10.46335,-12.27269z" data-paper-data="{&quot;origRot&quot;:0,&quot;origPos&quot;:null}"/></g></g><g data-paper-data="{&quot;origRot&quot;:0,&quot;index&quot;:null}" stroke="none" stroke-width="0" stroke-linecap="butt"><path d="M214.93856,218.75794c6.63949,-8.21477 13.97951,-21.51223 13.97951,-21.51223c0,0 5.45118,1.29991 9.65965,4.36506c4.22186,3.14375 8.07151,6.92179 8.07151,6.92179c0,0 -4.26002,12.12842 -7.71311,17.98288c-2.76191,4.68257 -3.89994,7.15779 -4.52062,9.23021c-1.7298,5.77555 0.43391,10.58889 -5.56842,10.02226c-8.81287,-0.83194 -14.56924,-4.28696 -20.0603,-11.23007c-4.43284,-5.60507 -4.32063,-9.12755 -2.42091,-12.87085c0.46955,-0.92517 5.70045,0.64463 8.57267,-2.90905z" data-paper-data="{&quot;origPos&quot;:null}" fill="#0052ef"/><path d="M196.14,232.5664c2.22967,-3.09039 8.97506,-2.03299 15.06625,2.36174c4.43715,3.20135 13.70573,9.88097 16.10569,14.79797c0.55755,1.1423 -0.61819,2.7222 -1.28549,3.66668c-0.84061,1.18982 -4.48081,-2.37313 -4.48081,-2.37313c0,0 -2.64405,1.11003 -4.76741,0.90737c-6.83946,-0.6528 -16.73264,-7.35951 -18.33373,-9.35044c-2.4431,-3.038 -4.58551,-6.84868 -2.30449,-10.01022z" data-paper-data="{&quot;origPos&quot;:null}" fill="#f9c869"/><path d="M197.47706,227.49239c2.57147,-7.40961 11.56341,-7.59501 18.44958,-2.62669c3.20255,2.31062 6.28151,9.07003 8.93017,11.99917c4.0909,4.52411 3.75376,3.51936 7.07667,6.70959c0.90011,0.86417 -2.26405,5.14928 -4.38282,7.64598c-1.02366,1.20629 -5.81963,-2.65303 -5.81963,-2.65303c0,0 -10.24808,-1.32086 -17.13425,-6.28918c-6.88618,-4.96833 -8.68145,-10.28571 -7.11968,-14.78586z" data-paper-data="{&quot;origPos&quot;:null}" fill="#ad5d21"/></g><g data-paper-data="{&quot;origRot&quot;:0,&quot;index&quot;:null}" stroke="none" stroke-width="0" stroke-linecap="butt"><path d="M261.53508,232.12497c-3.75337,-9.87307 -12.94189,-19.28142 -12.94189,-19.28142c0,0 4.80767,-5.01921 8.12832,-7.28941c4.20772,-2.87662 11.16216,-5.89867 11.16216,-5.89867c0,0 9.11974,9.71227 12.43863,15.64384c2.65455,4.74424 4.21987,6.97393 5.69772,8.55386c4.11856,4.40301 9.36661,4.95772 5.85431,9.85799c-5.15693,7.19477 -11.04076,10.42796 -19.80447,11.67532c-7.07482,1.00697 -10.06152,-0.86389 -12.33877,-4.39026c-0.56285,-0.87158 3.42765,-4.60016 1.80397,-8.87124z" data-paper-data="{&quot;origPos&quot;:null}" fill="#0052ef"/><path d="M263.99771,255.31967c-1.54702,-3.48264 2.76348,-8.77771 9.6278,-11.8269c5.00031,-2.22117 15.43873,-6.86478 20.89534,-6.46199c1.26765,0.09356 2.04047,1.90496 2.5204,2.95711c0.6046,1.32543 -4.30677,2.67602 -4.30677,2.67602c0,0 -0.37256,2.84333 -1.61695,4.57571c-4.00835,5.58011 -14.78475,10.74965 -17.3111,11.13026c-3.855,0.58073 -8.22611,0.51257 -9.80874,-3.05024z" data-paper-data="{&quot;origPos&quot;:null}" fill="#f9c869"/><path d="M260.28744,251.60921c-5.10643,-5.95307 -0.73824,-13.81489 7.02195,-17.26204c3.60904,-1.60317 10.99932,-0.85913 14.86377,-1.67229c5.96874,-1.25595 4.93091,-1.47067 9.36049,-2.73484c1.19987,-0.34243 3.30845,4.54918 4.39842,7.63701c0.52662,1.49191 -5.22283,3.69175 -5.22283,3.69175c0,0 -6.30211,8.1885 -14.0623,11.63565c-7.76018,3.44715 -13.25816,2.32033 -16.3595,-1.29523z" data-paper-data="{&quot;origPos&quot;:null}" fill="#ad5d21"/></g><g data-paper-data="{&quot;index&quot;:null}"><path d="M222.72417,184.12577c3.14674,-20.51846 10.25914,-21.4238 25.31146,-19.3995c8.14002,1.0947 17.51478,-0.11063 23.09639,5.91465c7.49178,8.0873 7.62887,16.96049 6.15955,27.88625c-1.35444,10.07137 -15.09286,18.35213 -30.14518,16.32783c-15.05234,-2.02429 -27.63241,-9.79682 -24.42221,-30.72924z" data-paper-data="{&quot;origPos&quot;:null}" fill="#0052ef" stroke="none" stroke-width="0" stroke-linecap="butt"/><path d="M222.80414,183.53111c0,0 -0.59168,-12.72135 9.25575,-18.72125c4.16893,-2.54004 12.59891,-3.7472 20.04258,-2.56369c7.44366,1.18352 13.10325,3.10437 17.80419,7.27792c7.18501,6.37893 4.3686,19.92001 4.3686,19.92001c0,0 -11.65158,2.23387 -22.65331,0.38413c-11.99439,-2.01664 -28.81782,-6.29712 -28.81782,-6.29712z" data-paper-data="{&quot;origPos&quot;:null}" fill="#ff0021" stroke="none" stroke-width="0" stroke-linecap="butt"/><path d="M233.92459,190.12508c0,0 0.19852,-9.98839 1.45224,-15.15007c0.97609,-4.01868 4.00898,-10.51266 4.00898,-10.51266" data-paper-data="{&quot;origPos&quot;:null,&quot;origRot&quot;:0}" fill="none" stroke="#0052ef" stroke-width="10" stroke-linecap="round"/><path d="M258.52943,193.98599c0,0 -1.09187,-9.93053 -0.5146,-15.21081c0.44943,-4.111 2.6191,-10.94203 2.6191,-10.94203" data-paper-data="{&quot;origPos&quot;:null}" fill="none" stroke="#0052ef" stroke-width="10" stroke-linecap="round"/><path d="M257.54244,196.07305c-2.24416,-0.3018 -3.81877,-2.36572 -3.51696,-4.60988c0.3018,-2.24415 2.36572,-3.81877 4.60988,-3.51696c2.24416,0.3018 3.81877,2.36572 3.51696,4.60988c-0.3018,2.24416 -2.36572,3.81877 -4.60988,3.51696z" data-paper-data="{&quot;origPos&quot;:null}" fill="#ffe84f" stroke="none" stroke-width="0" stroke-linecap="butt"/><path d="M232.96371,192.76763c-2.24415,-0.3018 -3.81877,-2.36572 -3.51696,-4.60988c0.3018,-2.24415 2.36572,-3.81877 4.60988,-3.51696c2.24416,0.3018 3.81877,2.36572 3.51696,4.60988c-0.3018,2.24416 -2.36572,3.81877 -4.60988,3.51696z" data-paper-data="{&quot;origPos&quot;:null}" fill="#ffe84f" stroke="none" stroke-width="0" stroke-linecap="butt"/></g><g data-paper-data="{&quot;origRot&quot;:0,&quot;index&quot;:null}" stroke="none" stroke-width="0" stroke-linecap="butt"><path d="M281.03531,184.34055c-9.54146,1.92655 -15.63322,-0.59432 -16.68532,-5.8049c-1.05211,-5.21059 7.13445,-11.9241 16.67591,-13.85066c9.54147,-1.92655 18.89901,-2.33294 18.89901,-2.33294l3.33662,15.60032c0,0 -14.55193,4.83862 -22.22624,6.38816z" data-paper-data="{&quot;origRot&quot;:0,&quot;origPos&quot;:null}" fill="#ff0021"/><g data-paper-data="{&quot;origPos&quot;:null}" fill="#ffffff"><path d="M322.15525,183.20946c-10.33334,0.95672 -13.21023,-4.15887 -15.48826,-13.26716c-2.27803,-9.10828 -4.59112,-20.50399 5.13379,-22.34011c7.05506,-1.33205 19.19,5.85366 19.38292,15.24051c0.21054,10.2432 2.03826,19.34212 -9.02843,20.36673z" data-paper-data="{&quot;origRot&quot;:0,&quot;origPos&quot;:null}"/><path d="M307.06991,183.53705c-3.90871,0.8445 -6.54955,-5.90288 -8.29906,-12.93731c-1.74953,-7.03445 -5.11761,-14.71911 0.38594,-15.63082c6.15678,-1.01991 6.2516,0.90045 8.82652,12.4664c2.93332,13.17577 5.78039,14.65552 -0.91342,16.10174z" data-paper-data="{&quot;origRot&quot;:0,&quot;origPos&quot;:null}"/></g></g><g data-paper-data="{&quot;index&quot;:null}"><path d="M210.23689,113.74696c-0.06882,-2.48177 -1.65264,-4.88495 5.47465,-4.0191c7.12731,0.86586 21.19079,1.77341 20.75121,5.3919c-0.43959,3.61847 0.51249,10.53871 -6.61481,9.67286c-8.84497,-1.07453 -19.50473,-7.21158 -19.61104,-11.04567z" fill="#bb041a" stroke="none" stroke-width="0" stroke-linecap="butt"/><path d="M278.0087,163.1934c0,0 -1.05569,1.72062 -3.56859,1.53514c-4.63795,-0.34232 -6.24732,-1.86937 -6.24732,-1.86937c-1.07983,-1.47764 2.95639,-9.40526 2.95639,-9.40526c0.90312,-2.80527 8.20647,-2.94723 8.20647,-2.94723c2.03425,-1.13092 0.4617,4.80053 3.48029,6.98757c2.52368,1.82847 0.78794,4.80434 -1.24631,5.93527c-2.03425,1.13094 -3.58095,-0.23614 -3.58095,-0.23614z" data-paper-data="{&quot;origRot&quot;:0}" fill="#5a2c0a" stroke="none" stroke-width="0" stroke-linecap="butt"/><path d="M288.97966,122.02742c5.75666,0.69935 8.63876,7.66423 7.66189,15.7053c-0.97687,8.04105 -7.66937,15.85749 -17.9641,14.60684c-0.19311,-0.02347 -1.43362,0.61765 -2.57755,1.96303c-3.73176,4.38898 -2.524,8.89035 -6.85401,11.42942c-6.81922,3.99869 -11.40932,5.92839 -26.51,3.77794c-10.68273,-1.5213 -15.2247,-3.3805 -16.74714,-4.91134c-2.68368,-2.69852 -5.42814,-4.91178 -6.31814,-8.61205c-2.30843,-9.59724 5.04934,-13.22031 6.92744,-22.91096c1.63343,-8.42824 0.21404,-16.39474 8.78075,-15.83394c5.79034,0.37904 38.09612,7.50237 42.50005,7.02287c1.53128,-0.16671 5.34414,-2.93645 11.10081,-2.23711z" fill="#ffdebd" stroke="none" stroke-width="0" stroke-linecap="butt"/><path d="M229.4193,123.62211c0.93936,-4.81067 4.11766,-8.23858 7.09892,-7.65643c2.98126,0.58214 4.63654,4.95387 3.69718,9.76455c-0.93935,4.81068 -4.11764,8.23859 -7.0989,7.65644c-2.98126,-0.58213 -4.63655,-4.95388 -3.69718,-9.76455z" data-paper-data="{&quot;origRot&quot;:0}" fill="#ffffff" stroke="none" stroke-width="0" stroke-linecap="butt"/><path d="M275.04304,122.64854c2.72714,0.43384 2.19441,4.68052 1.66158,9.06655c-0.53284,4.38603 -2.15493,9.92037 -4.78819,9.0889c-3.54485,-1.1193 -2.77681,-2.61331 -2.77681,-2.61331c0,0 -1.60829,1.65444 -4.15746,0.00819c-2.19126,-1.41511 1.30459,-4.83392 1.61918,-7.42337c0.53282,-4.38601 -3.04038,-9.95357 8.4417,-8.12696z" fill="#5a2c0a" stroke="none" stroke-width="0" stroke-linecap="butt"/><path d="M241.74392,130.16089c1.15386,-4.76378 4.4825,-8.0459 7.4347,-7.33082c2.95218,0.71506 4.41002,5.15655 3.25616,9.92033c-1.15386,4.76379 -4.4825,8.0459 -7.4347,7.33083c-2.95219,-0.71506 -4.41002,-5.15655 -3.25616,-9.92033z" data-paper-data="{&quot;origRot&quot;:0}" fill="#ffffff" stroke="none" stroke-width="0" stroke-linecap="butt"/><path d="M245.74867,124.75633c0.94505,0.11481 1.71692,0.90871 2.20206,2.09789c0.48413,1.18907 0.68138,2.77442 0.47504,4.47294c-0.20635,1.6985 -0.77745,3.19052 -1.5322,4.22908c-0.75574,1.03843 -1.69527,1.62441 -2.64032,1.5096c-0.94505,-0.11481 -1.71692,-0.90871 -2.20206,-2.09789c-0.48413,-1.18907 -0.68138,-2.77442 -0.47504,-4.47294c0.20634,-1.69851 0.77745,-3.19052 1.5322,-4.22908c0.75574,-1.03843 1.69527,-1.62442 2.64032,-1.50961z" fill="#000000" stroke="none" stroke-width="1" stroke-linecap="butt"/><path d="M227.49916,88.62002c3.00271,-10.44633 14.08483,-11.87076 28.81941,-7.16203c11.44628,3.6579 20.36502,23.09432 20.36502,23.09432c3.27505,-3.90394 11.42646,-4.25762 11.42646,-4.25762c7.2606,0.88203 13.96732,1.75045 11.64928,15.30332c-1.05089,6.14427 -5.77807,10.83567 -13.03867,9.95363c-3.54993,-0.43125 -12.26884,1.98853 -15.35483,0.18174c-11.7529,-6.88107 -27.11536,-7.32573 -37.88894,-15.65702c-7.39392,-5.71779 -10.15901,-6.90982 -5.97772,-21.45635z" fill="#ff0021" stroke="none" stroke-width="0" stroke-linecap="butt"/><path d="M229.34389,97.43215c0.65938,-5.42771 6.61615,-9.16902 13.30486,-8.35646c6.68868,0.81258 11.57641,5.87134 10.91703,11.29904c-0.65938,5.42771 -2.09355,10.05753 -13.30487,8.35646c-10.62002,-1.61135 -11.57641,-5.87134 -10.91703,-11.29904z" fill="#ffffff" stroke="none" stroke-width="0" stroke-linecap="butt"/><path d="M210.09308,111.61405c-0.35123,-3.23951 9.87101,-8.81353 16.29757,-8.13231c15.72078,1.66641 36.05564,9.55639 41.92666,12.28432c4.85832,2.2574 6.29721,7.54096 6.64842,10.78046c0.09501,0.87634 -10.65225,-0.00141 -15.86838,-1.2226c-10.73247,-2.51264 -48.90928,-12.83354 -49.00428,-13.70987z" fill="#bb041a" stroke="none" stroke-width="0" stroke-linecap="butt"/><path d="M244.83987,105.079l-0.60645,-7.6934l-4.11151,4.2256l-2.13192,-4.96198l-2.42827,7.40196l-3.36552,-2.63498l6.50975,-9.36544l2.06335,5.59926l5.08786,-5.36395l3.24628,13.31085z" fill="#ff0021" stroke="none" stroke-width="0" stroke-linecap="butt"/><path d="M220.25998,156.40214c-0.01767,-0.74506 -0.68201,2.87877 -5.22406,-0.3852c-1.92095,-1.3804 -1.25338,-5.61417 -1.25338,-5.61417c-0.27489,-1.61318 0.10919,-4.6944 1.59193,-4.61308c2.98968,0.16396 12.01411,5.80448 12.01411,5.80448c5.88679,1.05778 19.08281,-1.57759 19.08281,-1.57759c4.04356,-1.58757 6.04333,-5.76069 10.86608,-4.2164c0.82807,0.26515 0.93671,3.45658 0.25199,9.0928c-0.6244,5.13989 -4.67211,8.37266 -9.88052,7.73993c-3.24589,-0.39433 -5.72124,-2.51556 -6.00499,-2.30792c-0.26857,0.19653 -0.50917,1.80668 -3.0978,2.25586c-4.50412,0.78157 -10.90479,0.17957 -15.14041,-1.54022c-1.3878,-0.5635 -3.14466,-2.06396 -3.20572,-4.63847z" fill="#38291e" stroke="none" stroke-width="0" stroke-linecap="butt"/><g fill="none" stroke="#f6b09a" stroke-width="3.5" stroke-linecap="round"><path d="M280.38368,144.07758c0,0 -2.3048,-7.50338 3.60006,-11.01821c4.11729,-2.45079 6.85036,-0.37609 6.85036,-0.37609" data-paper-data="{&quot;origPos&quot;:null}"/><path d="M281.37368,138.29765l5.95621,0.72358" data-paper-data="{&quot;origPos&quot;:null}"/><path d="M281.21737,144.32278l1.27633,0.15505" data-paper-data="{&quot;origPos&quot;:null}"/></g><path d="M252.5879,120.75298c-1.3772,-0.64094 -5.07311,0.94814 -5.07311,0.94814c0,0 -1.73443,-9.24849 7.68844,-7.78051c2.72008,0.97418 3.32194,4.25702 3.10147,6.07178c-0.32471,2.67273 -2.2098,6.09746 -2.2098,6.09746c0,0 -1.24336,-1.85192 -1.76916,-3.23649c-0.50968,-1.34212 -0.42159,-1.52723 -1.73782,-2.10041z" fill="#38291e" stroke="none" stroke-width="0" stroke-linecap="butt"/><path d="M235.79148,115.88573c-1.40571,-0.29152 -1.44058,-0.08953 -2.63138,0.71237c-1.22846,0.82728 -3.31265,1.62208 -3.31265,1.62208c0,0 0.43702,-3.88475 1.71436,-6.25485c0.86727,-1.60926 3.25341,-3.94288 6.037,-3.16861c8.54245,4.23934 1.78847,10.79118 1.78847,10.79118c0,0 -2.1012,-3.43072 -3.59578,-3.70212z" data-paper-data="{&quot;index&quot;:null,&quot;origRot&quot;:0}" fill="#38291e" stroke="none" stroke-width="0" stroke-linecap="butt"/><path d="M233.01393,119.90168c0.94505,0.11481 1.71692,0.90871 2.20206,2.09789c0.48413,1.18907 0.76204,2.78617 0.47504,4.47294c-0.44529,2.61707 -1.79466,4.51171 -1.79466,4.51171c0,0 -1.37216,-0.7073 -2.31721,-0.82212c-0.94504,-0.1148 -2.37037,-0.49966 -2.37037,-0.49966c0,0 -0.65786,-2.13849 -0.36739,-4.02206c0.26079,-1.69101 0.77745,-3.19052 1.5322,-4.22908c0.75574,-1.03844 1.69527,-1.62442 2.64032,-1.50961z" fill="#000000" stroke="none" stroke-width="1" stroke-linecap="butt"/><path d="M231.31166,128.65746c6.49709,1.30782 11.96964,9.26813 11.26196,15.09332c-0.70767,5.82519 -7.53422,9.16808 -14.12617,8.48333c-14.30262,-1.48571 -12.14357,-5.76354 -11.84179,-12.39355c0.4828,-10.60705 5.23931,-13.08867 14.706,-11.1831z" fill="#ffdebd" stroke="none" stroke-width="0" stroke-linecap="butt"/></g></g></g></svg>