<svg version="1.1" xmlns="http://www.w3.org/2000/svg" xmlns:xlink="http://www.w3.org/1999/xlink" width="106.7657" height="163.85963" viewBox="0,0,106.7657,163.85963"><defs><linearGradient x1="264.51437" y1="144.9379" x2="262.29857" y2="156.7125" gradientUnits="userSpaceOnUse" id="color-1"><stop offset="0" stop-color="#38291e"/><stop offset="1" stop-color="#381e32"/></linearGradient><linearGradient x1="282.50494" y1="147.57208" x2="279.1477" y2="157.5679" gradientUnits="userSpaceOnUse" id="color-2"><stop offset="0" stop-color="#38291e"/><stop offset="1" stop-color="#381e32"/></linearGradient></defs><g transform="translate(-213.42988,-112.22431)"><g data-paper-data="{&quot;isPaintingLayer&quot;:true}" fill-rule="nonzero" stroke-linejoin="miter" stroke-miterlimit="10" stroke-dasharray="" stroke-dashoffset="0" style="mix-blend-mode: normal"><g data-paper-data="{&quot;origRot&quot;:0,&quot;index&quot;:null}" stroke="none" stroke-width="0" stroke-linecap="butt"><g data-paper-data="{&quot;origPos&quot;:null,&quot;index&quot;:null,&quot;origRot&quot;:0}"><path d="M264.98365,187.351c7.02753,-3.45106 21.51177,-8.48867 21.51177,-8.48867l6.86734,14.39941c0,0 -7.66467,5.38344 -16.40197,9.67418c-8.73732,4.29071 -19.3195,3.9611 -21.66266,-0.81035c-2.34314,-4.77145 0.9482,-10.48383 9.68552,-14.77456z" data-paper-data="{&quot;origRot&quot;:0,&quot;origPos&quot;:null}" fill="#41c3ff"/><g data-paper-data="{&quot;origPos&quot;:null}" fill="#ffffff"><path d="M298.26538,163.17544c9.3963,-5.93558 13.49554,2.3907 19.57425,10.63794c5.57052,7.55775 0.33362,20.65225 -6.07047,23.89813c-8.82758,4.47424 -13.9425,-5.96846 -17.69054,-14.57674c-3.74802,-8.60831 -4.58689,-14.41708 4.18676,-19.95933z" data-paper-data="{&quot;origRot&quot;:0,&quot;origPos&quot;:null}"/><path d="M286.10881,172.11381c6.18736,-2.93511 4.83301,-0.02633 10.5417,12.20544c5.01119,10.73731 6.10696,12.3172 0.60514,15.26277c-4.91807,2.63304 -6.93403,-5.51151 -9.83648,-12.15382c-2.90243,-6.64229 -4.92336,-13.6005 -1.31035,-15.31441z" data-paper-data="{&quot;origRot&quot;:0,&quot;origPos&quot;:null}"/></g></g></g><g stroke="none" stroke-width="0" stroke-linecap="butt"><path d="M263.54742,247.15641c-0.11134,4.56792 4.8918,6.75771 4.65077,7.76683c-0.97531,4.08289 -3.17009,6.84033 -10.17723,8.24276c-8.6799,1.73725 -15.30395,0.64417 -22.55956,-4.4268c-4.9417,-3.45379 -0.1766,-5.72175 2.24382,-11.24358c0.86851,-1.98138 1.60348,-4.60465 2.52971,-9.96159c1.15804,-6.69757 7.4828,-24.58188 7.4828,-24.58188c0,0 7.31437,0.51824 12.23909,1.8323c3.88653,1.03704 10.4329,-3.32395 10.4329,-3.32395c0,0 -6.58494,25.1366 -6.84233,35.69592z" data-paper-data="{&quot;origPos&quot;:null}" fill="#5063f7"/><path d="M268.93636,269.85036c-0.30809,3.8863 -4.40786,5.40387 -8.23664,6.13782c-2.50917,0.48097 -14.39126,-0.81169 -20.02679,-4.74172c-1.74958,-1.2201 -3.04625,-3.77783 -3.04625,-3.77783c0,0 -5.081,0.35911 -4.95147,-1.09192c0.10284,-1.15186 0.22943,-3.11717 1.39386,-3.62685c5.01229,-2.19403 16.40077,-1.28502 21.85511,-0.85264c7.4876,0.59358 13.31333,4.15432 13.01219,7.95318z" data-paper-data="{&quot;origPos&quot;:null}" fill="#f8dca0"/><path d="M271.20195,265.1175c-1.72286,4.44096 -6.53344,7.33161 -14.99827,6.66058c-8.46484,-0.67104 -17.13083,-6.29849 -17.13083,-6.29849c0,0 -6.15378,-0.16319 -6.15311,-1.74531c0.00136,-3.27456 0.36369,-8.58894 1.60915,-8.66492c4.5979,-0.28044 3.6905,0.26712 9.73724,-0.53281c3.91496,-0.51791 10.63746,-3.67666 14.5742,-3.36457c8.46483,0.67103 15.19831,6.63337 12.3616,13.94551z" data-paper-data="{&quot;origPos&quot;:null}" fill="#ab7644"/></g><g stroke="none" stroke-width="0" stroke-linecap="butt"><path d="M241.89721,245.80374c0.65838,4.5216 5.95851,5.83888 5.89059,6.87416c-0.27485,4.18876 -1.9747,7.27599 -8.64622,9.83677c-8.26417,3.1721 -14.9777,3.20848 -22.98271,-0.5702c-5.45211,-2.57361 -1.13624,-5.61057 0.32117,-11.46079c0.52297,-2.09921 0.80633,-4.80873 0.81856,-10.24514c0.0153,-6.79692 3.24261,-25.49013 3.24261,-25.49013c0,0 7.29735,-0.71911 12.37292,-0.25189c4.00557,0.36872 10.98609,3.38986 10.98609,3.38986c0,0 -3.52496,17.46512 -2.00303,27.91735z" data-paper-data="{&quot;origPos&quot;:null}" fill="#5063f7"/><path d="M251.0256,267.26833c0.34981,3.88277 -3.4364,6.06813 -7.08724,7.43547c-2.39256,0.89607 -14.32283,1.61987 -20.53897,-1.30653c-1.92983,-0.90852 -3.63814,-3.21179 -3.63814,-3.21179c0,0 -4.94827,1.20841 -5.06458,-0.24376c-0.09233,-1.15275 -0.29801,-3.11136 0.76414,-3.80961c4.57197,-3.00564 15.95115,-4.02464 21.40052,-4.5156c7.48077,-0.67398 13.82234,1.85642 14.16428,5.65182z" data-paper-data="{&quot;origPos&quot;:null}" fill="#f8dca0"/><path d="M252.46306,262.22189c-0.95154,4.66744 -5.20754,8.32586 -13.66467,9.08781c-8.45712,0.76193 -17.94603,-3.32811 -17.94603,-3.32811c0,0 -6.09358,0.87393 -6.35897,-0.68577c-0.5493,-3.22815 -1.08579,-8.52779 0.12917,-8.81211c4.48527,-1.04962 3.68287,-0.35728 9.509,-2.16262c3.77213,-1.16887 9.86774,-5.41306 13.8009,-5.76741c8.45712,-0.76194 16.09735,3.98319 14.53061,11.66822z" data-paper-data="{&quot;origPos&quot;:null}" fill="#ab7644"/></g><g><path d="M270.72766,201.24496c0.39163,21.17353 -7.36176,30.41297 -28.3,30.2c-21.9365,-0.22312 -23.2,-12.78796 -23.2,-22.95c0,-11.02412 -0.93148,-20.04986 7.57136,-27.06648c6.33487,-5.22759 13.21535,-2.78352 21.42864,-2.78352c15.18783,0 22.11612,1.84521 22.5,22.6z" data-paper-data="{&quot;origPos&quot;:null}" fill="#5063f7" stroke="none" stroke-width="0" stroke-linecap="butt"/><path d="M270.97766,200.64496c0,0 -17.24385,2 -29.4,2.4c-11.15011,0.36689 -22.4,-3.4 -22.4,-3.4c0,0 -0.98648,-13.79564 6.98462,-19.16002c5.21526,-3.50975 11.08038,-4.65914 18.61538,-4.83998c7.535,-0.18084 15.72889,2.13912 19.52206,5.21215c8.95988,7.25886 6.67794,19.78785 6.67794,19.78785z" data-paper-data="{&quot;origPos&quot;:null}" fill="#41c3ff" stroke="none" stroke-width="0" stroke-linecap="butt"/><path d="M257.08548,179.53627c0,0 2.14029,6.84028 2.57206,10.95319c0.55457,5.28272 -0.57997,15.20846 -0.57997,15.20846" data-paper-data="{&quot;origPos&quot;:null,&quot;origRot&quot;:0}" fill="none" stroke="#5063f7" stroke-width="10" stroke-linecap="round"/><path d="M235.57766,180.04496c0,0 1.23985,7.05925 1.13735,11.19349c-0.13165,5.31011 -2.53735,15.00651 -2.53735,15.00651" data-paper-data="{&quot;origPos&quot;:null}" fill="none" stroke="#5063f7" stroke-width="10" stroke-linecap="round"/><path d="M231.96113,209.85896l0.47856,-4.16533l-2.74233,-2.63761l3.91676,0.14425l1.59649,-3.58172l1.50128,3.65183l4.5202,0.16603l-3.61311,2.58175l0.46103,4.045l-3.09091,-2.61517z" data-paper-data="{&quot;origPos&quot;:null,&quot;origRot&quot;:0}" fill="#ffe008" stroke="none" stroke-width="NaN" stroke-linecap="butt"/><path d="M257.35407,209.61706l-0.09884,-4.19156l-3.07901,-2.23539l3.89937,-0.39579l1.08873,-3.76726l1.98925,3.41067l4.50007,-0.45721l-3.2237,3.05412l1.01296,3.94315l-3.4212,-2.16523z" data-paper-data="{&quot;origPos&quot;:null,&quot;origRot&quot;:0}" fill="#ffe008" stroke="none" stroke-width="NaN" stroke-linecap="butt"/></g><g><path d="M299.32722,161.84014c-1.80423,3.38472 -14.08198,4.12672 -22.4786,1.1459c-6.76599,-2.40194 -2.82902,-8.17224 -1.60957,-11.6073c1.21945,-3.43505 14.21302,2.02138 20.97901,4.42332c6.76599,2.40194 4.27701,3.84719 3.10915,6.03808z" fill="#3595c5" stroke="none" stroke-width="0" stroke-linecap="butt"/><path d="M221.83342,179.67951c-1.59755,-1.69266 -1.62916,-4.00742 0.33908,-6.42369c2.28365,-2.80348 2.58244,-7.87646 4.17999,-6.18381c0,0 6.91921,2.34171 6.93262,5.28874c0,0 1.45263,8.77657 -0.02314,9.85895c0,0 -1.99551,0.9695 -6.52015,-0.10534c-2.45151,-0.58236 -3.31088,-0.74216 -4.9084,-2.43482z" data-paper-data="{&quot;origRot&quot;:0}" fill="#e7be7a" stroke="none" stroke-width="0" stroke-linecap="butt"/><path d="M235.68818,142.50221c4.0533,1.78756 37.00157,4.75686 42.63586,6.14483c8.33584,2.05348 4.57604,9.21893 3.58693,17.74683c-1.13727,9.80524 4.78215,15.48184 -0.3178,23.93325c-1.96631,3.25849 -6.6183,5.04512 -9.99181,6.80678c-1.91377,0.99938 -4.92338,4.46713 -15.56656,2.69004c-17.89301,-7.20305 -22.15216,-13.04612 -24.54069,-17.53846c-2.52924,-4.33442 -0.95335,-5.3 -3.1848,-10.61129c-0.68404,-1.62811 -1.67289,-2.61404 -1.86407,-2.65c-10.19152,-1.9179 -14.20991,-11.39094 -12.71188,-19.35138c1.49803,-7.96045 6.3496,-13.7292 12.04856,-12.65674c5.69896,1.07246 8.4969,4.86467 9.90627,5.48622z" fill="#ffdebd" stroke="none" stroke-width="0" stroke-linecap="butt"/><path d="M244.47174,152.11594c-0.48241,2.56349 1.93769,10.56454 -0.57871,11.25154c-2.92739,0.7992 -2.94017,-3.53859 -6.65753,-3.54251c-2.76143,-0.00292 -3.49593,-5.52353 -2.67881,-9.8656c0.81711,-4.34206 1.59224,-8.55125 4.323,-8.14095c11.49742,1.72754 6.40916,5.95547 5.59204,10.29752z" fill="#e7be7a" stroke="none" stroke-width="0" stroke-linecap="butt"/><path d="M295.0752,131.65288c-2.74127,14.88522 -5.74778,14.71973 -14.91522,16.54217c-13.35772,2.65543 -27.30774,-3.79441 -40.89568,-2.87367c-3.56783,0.24175 -10.29399,-5.81081 -13.66393,-7.00716c-6.89254,-2.44687 -9.03289,-8.75356 -7.23478,-14.72209c3.96625,-13.16519 10.35688,-10.95302 17.24942,-8.50616c0,0 7.13914,3.9501 8.33063,8.90463c0,0 16.64752,-13.42307 28.52424,-11.59522c15.28869,2.35295 24.57395,8.56794 22.60535,19.2575z" fill="#41c3ff" stroke="none" stroke-width="0" stroke-linecap="butt"/><path d="M289.49587,138.71884c-1.82917,5.15258 -4.5842,8.53959 -14.80903,5.2481c-10.79412,-3.47477 -10.01417,-8.25847 -8.18501,-13.41103c1.82917,-5.15258 8.4594,-7.50222 14.80903,-5.24809c6.34963,2.25414 10.01417,8.25846 8.18501,13.41101z" fill="#ffffff" stroke="none" stroke-width="0" stroke-linecap="butt"/><path d="M300.4067,159.99496c-0.47567,0.74211 -39.25042,-7.03655 -49.97768,-9.57137c-5.21359,-1.23197 -15.22532,-5.23686 -14.74964,-5.97896c1.7584,-2.7433 5.40161,-6.83154 10.75681,-6.68664c6.47146,0.1751 28.19131,2.17669 43.00667,7.69258c6.05645,2.25489 12.72227,11.80108 10.96385,14.54437z" fill="#3595c5" stroke="none" stroke-width="0" stroke-linecap="butt"/><path d="M271.67412,139.01391l1.33479,-3.19652l5.05278,1.0032l-0.77553,-2.1531l-3.26474,-1.64111l-0.87026,-3.50716l2.78584,-2.00187l7.85931,1.47418l0.53843,3.66225l-7.09439,-1.91176l3.382,2.82423l2.03835,3.41764l-0.59281,2.53439l-2.67085,0.80044z" data-paper-data="{&quot;origRot&quot;:0}" fill="#ffe008" stroke="none" stroke-width="0" stroke-linecap="butt"/><path d="M275.56787,194.17194c-3.19921,-0.39636 -7.57662,-2.16321 -14.72107,-4.76835c-9.2635,-3.37782 -9.35563,-10.35493 -9.35563,-10.35493c0,0 -3.33681,-1.98365 -5.11937,-3.48184c-1.3953,-1.17271 1.5224,-6.32696 2.3919,-6.32955c5.06394,-0.01513 5.70956,4.56713 9.08456,7.30211c0,0 11.78327,6.49882 17.71456,7.26894c0,0 10.3068,-2.65063 13.2063,-1.90373c1.43802,0.37044 0.8733,3.4237 0.12389,4.87847c0,0 -2.0505,3.88809 -4.41125,4.94147c-2.36074,1.05339 -5.71463,2.84378 -8.91384,2.44741z" fill="#e7be7a" stroke="none" stroke-width="0" stroke-linecap="butt"/><g fill="none" stroke="#f6b09a" stroke-width="3.5" stroke-linecap="round"><path d="M220.79493,146.6137c0,0 3.23215,-1.15208 6.41665,2.42804c4.5671,5.13451 0.10315,11.59097 0.10315,11.59097" data-paper-data="{&quot;origPos&quot;:null}"/><path d="M228.11717,154.82379l-5.89649,-1.10964" data-paper-data="{&quot;origPos&quot;:null}"/><path d="M226.44594,160.61462l-1.26352,-0.23777" data-paper-data="{&quot;origPos&quot;:null}"/></g><path d="M263.3311,151.94626c-1.4279,0.14876 -1.39982,0.35182 -2.29116,1.47725c-0.91953,1.16103 -2.66427,2.55078 -2.66427,2.55078c0,0 -0.7624,-3.83419 -0.26446,-6.48014c0.3381,-1.79656 1.90358,-4.7442 4.79087,-4.85112c9.42605,1.44732 4.97865,9.73968 4.97865,9.73968c0,0 -3.04315,-2.63139 -4.54962,-2.43647z" fill="url(#color-1)" stroke="none" stroke-width="0" stroke-linecap="butt"/><path d="M280.32472,154.54382c-1.4659,-0.39828 -4.83906,1.79414 -4.83906,1.79414c0,0 -3.27663,-8.82081 6.25871,-8.97089c2.84581,0.49913 3.99532,3.63251 4.08555,5.45837c0.13294,2.6891 -1.14454,6.38374 -1.14454,6.38374c0,0 -1.53922,-1.61442 -2.29204,-2.88987c-0.72975,-1.23633 -0.67428,-1.43369 -2.06861,-1.77552z" data-paper-data="{&quot;index&quot;:null,&quot;origRot&quot;:0}" fill="url(#color-2)" stroke="none" stroke-width="0" stroke-linecap="butt"/><path d="M289.39272,175.86149c-1.7153,6.41139 -0.94948,11.1416 -15.03266,8.23697c-6.49082,-1.33872 -11.98846,-6.58775 -10.90323,-12.35455c1.08523,-5.76679 8.70692,-11.70187 15.29553,-10.98576c9.60004,1.04341 13.38458,4.84607 10.64035,15.10335z" fill="#ffdebd" stroke="none" stroke-width="0" stroke-linecap="butt"/></g><g data-paper-data="{&quot;origRot&quot;:0,&quot;index&quot;:null}" stroke="none" stroke-linecap="butt"><g data-paper-data="{&quot;origPos&quot;:null,&quot;index&quot;:null,&quot;origRot&quot;:0}" stroke-width="0"><path d="M230.38031,178.11744c5.80618,-5.25206 18.34436,-14.08184 18.34436,-14.08184l10.56548,11.95299c0,0 -5.88683,7.28517 -13.10562,13.8151c-7.21882,6.52989 -17.48297,9.12573 -21.04895,5.18354c-3.56595,-3.9422 -1.97407,-10.33986 5.24475,-16.86978z" data-paper-data="{&quot;origRot&quot;:0,&quot;origPos&quot;:null}" fill="#41c3ff"/><g data-paper-data="{&quot;origPos&quot;:null}" fill="#ffffff"><path d="M257.19094,166.05576c-5.97266,-7.24417 -8.37797,-12.59767 -1.46871,-20.34076c7.3996,-8.29263 13.63229,-1.41625 21.74623,4.83927c7.43559,5.73255 6.00522,19.7627 0.74191,24.64591c-7.25508,6.73118 -15.04674,-1.90029 -21.01942,-9.14442z" data-paper-data="{&quot;origRot&quot;:0,&quot;origPos&quot;:null}"/><path d="M246.4955,157.65418c5.14049,-4.52479 4.63908,-1.35559 13.49403,8.83241c7.77304,8.94324 9.26135,10.1605 4.7828,14.50665c-4.00337,3.88502 -8.18322,-3.39005 -12.80184,-8.9769c-4.6186,-5.58684 -8.47669,-11.72002 -5.47499,-14.3622z" data-paper-data="{&quot;origRot&quot;:0,&quot;origPos&quot;:null}"/></g></g><path d="M270.7269,157.37484l8.13034,1.94752l-7.29544,4.17698l0.11964,9.16881l-5.80139,-7.31983l-7.91263,1.96519l4.00951,-7.03495l-5.02755,-6.34216l7.7416,1.33997l6.34723,-5.88778z" data-paper-data="{&quot;origPos&quot;:null,&quot;origRot&quot;:0}" fill="#ffe008" stroke-width="NaN"/></g></g></g></svg>