<svg version="1.1" xmlns="http://www.w3.org/2000/svg" xmlns:xlink="http://www.w3.org/1999/xlink" width="142.93272" height="161.5812" viewBox="0,0,142.93272,161.5812"><defs><linearGradient x1="232.96049" y1="138.83627" x2="233.838" y2="150.78539" gradientUnits="userSpaceOnUse" id="color-1"><stop offset="0" stop-color="#38291e"/><stop offset="1" stop-color="#381e32"/></linearGradient><linearGradient x1="215.54577" y1="137.10425" x2="216.31805" y2="147.62048" gradientUnits="userSpaceOnUse" id="color-2"><stop offset="0" stop-color="#38291e"/><stop offset="1" stop-color="#381e32"/></linearGradient></defs><g transform="translate(-160.9027,-106.2202)"><g data-paper-data="{&quot;isPaintingLayer&quot;:true}" fill-rule="nonzero" stroke-linejoin="miter" stroke-miterlimit="10" stroke-dasharray="" stroke-dashoffset="0" style="mix-blend-mode: normal"><g data-paper-data="{&quot;origRot&quot;:0,&quot;index&quot;:null}" stroke="none" stroke-width="0" stroke-linecap="butt"><g data-paper-data="{&quot;origPos&quot;:null,&quot;index&quot;:null,&quot;origRot&quot;:0}"><path d="M227.39113,183.7195c1.9223,4.95601 -1.85013,10.36279 -10.92541,13.88283c-7.29935,2.83116 -22.16457,6.59897 -22.16457,6.59897l-5.59802,-14.93874c0,0 8.10097,-4.70133 17.17625,-8.22137c9.07528,-3.52007 19.58942,-2.27767 21.5117,2.67831z" data-paper-data="{&quot;origRot&quot;:0,&quot;origPos&quot;:null}" fill="#41c3ff"/><g data-paper-data="{&quot;origPos&quot;:null}" fill="#ffffff"><path d="M187.11521,199.28982c2.99047,8.89984 3.32454,14.75939 -5.89501,19.52315c-9.87384,5.10187 -13.23862,-3.54738 -18.5823,-12.28882c-4.89692,-8.01064 1.45139,-20.60387 8.11189,-23.28449c9.18106,-3.69509 13.3749,7.15032 16.36544,16.05018z" data-paper-data="{&quot;origRot&quot;:0,&quot;origPos&quot;:null}"/><path d="M194.12064,195.58765c2.3179,6.86815 3.73031,13.97488 -0.01723,15.37034c-6.41772,2.38974 -4.81719,-0.39122 -9.4481,-13.07035c-4.0651,-11.13 -5.02032,-12.79865 0.71535,-15.25801c5.12714,-2.19843 6.43211,6.08985 8.75001,12.95799z" data-paper-data="{&quot;origRot&quot;:0,&quot;origPos&quot;:null}"/></g></g></g><g data-paper-data="{&quot;origRot&quot;:0,&quot;index&quot;:null}" stroke="none" stroke-width="0" stroke-linecap="butt"><path d="M221.83783,237.46506c0.15203,-10.56137 -5.6106,-27.42102 -5.6106,-27.42102c0,0 6.52921,-3.90186 10.45302,-4.78751c4.97195,-1.12219 12.30089,-1.3566 12.30089,-1.3566c0,0 5.62694,18.11598 6.52456,24.8534c0.71794,5.38881 1.35069,8.03861 2.14177,10.05215c2.20461,5.61146 6.87823,8.0624 1.80641,11.32208c-7.44665,4.78602 -14.1081,5.62155 -22.71415,3.54923c-6.94751,-1.67294 -9.03382,-4.51334 -9.85015,-8.63096c-0.20176,-1.0177 4.88248,-3.01192 4.94826,-7.58074z" data-paper-data="{&quot;origPos&quot;:null}" fill="#5063f7"/><path d="M215.57354,259.93322c-0.15371,-3.80769 5.80566,-7.13999 13.31062,-7.44295c5.46699,-0.22069 16.88216,-0.68767 21.80565,1.69894c1.14381,0.55443 1.19415,2.52318 1.25226,3.67814c0.07322,1.45499 -4.99007,0.89923 -4.99007,0.89923c0,0 -1.39482,2.50556 -3.19037,3.65694c-5.78361,3.70867 -17.70688,4.53993 -20.19552,3.96205c-3.79748,-0.88179 -7.83538,-2.55708 -7.99262,-6.45241z" data-paper-data="{&quot;origPos&quot;:null}" fill="#f8dca0"/><path d="M213.49301,255.11604c-2.55123,-7.41659 4.40827,-13.11347 12.89274,-13.45598c3.94586,-0.15927 10.54089,3.25759 14.43285,3.92684c6.01121,1.03366 5.12571,0.45133 9.7093,0.90975c1.24159,0.12415 1.3977,5.4486 1.27216,8.72074c-0.06066,1.58095 -6.21613,1.50555 -6.21613,1.50555c0,0 -8.87758,5.28737 -17.36205,5.62988c-8.48447,0.34251 -13.1794,-2.7324 -14.72888,-7.2368z" data-paper-data="{&quot;origPos&quot;:null}" fill="#ab7644"/></g><g data-paper-data="{&quot;origRot&quot;:0,&quot;index&quot;:null}" stroke="none" stroke-width="0" stroke-linecap="butt"><path d="M248.69414,239.2497c-1.06956,-10.50818 -8.74206,-26.58886 -8.74206,-26.58886c0,0 6.03453,-4.6303 9.82968,-5.96348c4.80894,-1.6893 12.06169,-2.76915 12.06169,-2.76915c0,0 7.68291,17.34429 9.35316,23.93283c1.33595,5.26974 2.27069,7.82865 3.28916,9.73727c2.83837,5.3191 7.76391,7.21346 3.1028,11.03745c-6.84365,5.61456 -13.36389,7.21437 -22.15178,6.15055c-7.09432,-0.85882 -9.49489,-3.43908 -10.78165,-7.43475c-0.31804,-0.98758 4.50166,-3.55604 4.03897,-8.10184z" data-paper-data="{&quot;origPos&quot;:null}" fill="#5063f7"/><path d="M245.06839,262.29124c-0.59272,-3.7644 4.94159,-7.7631 12.36125,-8.9314c5.40486,-0.85104 16.68957,-2.63414 21.8559,-0.83253c1.20021,0.41855 1.47776,2.36828 1.66896,3.50879c0.24087,1.43676 -4.85271,1.46989 -4.85271,1.46989c0,0 -1.09591,2.64997 -2.74636,4.00115c-5.31623,4.35223 -17.06355,6.55588 -19.6023,6.2695c-3.87393,-0.43698 -8.07838,-1.63439 -8.68477,-5.48545z" data-paper-data="{&quot;origPos&quot;:null}" fill="#f8dca0"/><path d="M242.4451,257.74683c-3.39127,-7.07204 2.86319,-13.53506 11.25125,-14.85583c3.90105,-0.61424 10.84676,2.01753 14.79,2.2325c6.09035,0.33203 5.14351,-0.14405 9.74936,-0.21844c1.24762,-0.02015 2.01804,5.25056 2.2715,8.5153c0.12247,1.57736 -6.00048,2.21384 -6.00048,2.21384c0,0 -8.207,6.27793 -16.59506,7.5987c-8.38804,1.32076 -13.40687,-1.19093 -15.46655,-5.48608z" data-paper-data="{&quot;origPos&quot;:null}" fill="#ab7644"/></g><g data-paper-data="{&quot;origPos&quot;:null,&quot;origRot&quot;:0,&quot;index&quot;:null}"><path d="M212.97741,199.63029c-1.8676,-20.67416 4.81991,-23.25932 19.91829,-24.90527c8.16491,-0.89009 14.73999,-4.06542 21.60408,0.44486c9.21316,6.05383 9.26531,15.12738 10.46002,26.08656c1.1013,10.10218 1.2069,22.72993 -20.57622,25.32905c-20.79184,2.48084 -29.50086,-5.86392 -31.40615,-26.9552z" data-paper-data="{&quot;origPos&quot;:null}" fill="#5063f7" stroke="none" stroke-width="0" stroke-linecap="butt"/><path d="M212.66386,199.0609c0,0 -3.6263,-12.20789 4.49416,-20.395c3.4378,-3.46599 11.33201,-6.66029 18.84223,-7.29709c7.51022,-0.63681 13.46538,-0.1298 19.03027,2.79409c8.50551,4.46894 9.0199,18.29024 9.0199,18.29024c0,0 -10.77541,4.96388 -21.89961,5.8075c-12.1279,0.91974 -29.48694,0.80027 -29.48694,0.80027z" data-paper-data="{&quot;origPos&quot;:null}" fill="#41c3ff" stroke="none" stroke-width="0" stroke-linecap="butt"/><path d="M225.0415,202.7945c0,0 -2.20353,-9.74434 -2.22473,-15.05605c-0.01651,-4.13548 1.36988,-11.16742 1.36988,-11.16742" data-paper-data="{&quot;origPos&quot;:null,&quot;origRot&quot;:0}" fill="none" stroke="#5063f7" stroke-width="10" stroke-linecap="round"/><path d="M249.85404,200.63985c0,0 -3.44238,-9.37856 -4.14871,-14.64315c-0.54993,-4.09877 -0.08241,-11.25082 -0.08241,-11.25082" data-paper-data="{&quot;origPos&quot;:null}" fill="none" stroke="#5063f7" stroke-width="10" stroke-linecap="round"/><path d="M249.17776,201.92378l-2.78931,2.93473l0.01995,-4.07115l-3.87162,-2.17498l4.47557,-0.65492l1.09668,-3.79302l1.97524,3.38761l3.87805,-0.56787l-2.44032,2.91925l0.92716,4.08894z" data-paper-data="{&quot;origPos&quot;:null,&quot;origRot&quot;:0}" fill="#ffe008" stroke="none" stroke-width="NaN" stroke-linecap="butt"/><path d="M224.22369,204.00485l-3.16641,2.52324l0.57967,-4.0297l-3.5357,-2.68676l4.52312,-0.03317l1.60791,-3.60617l1.49058,3.62708l3.9193,-0.02912l-2.81862,2.5559l0.356,4.1776z" data-paper-data="{&quot;origPos&quot;:null,&quot;origRot&quot;:0}" fill="#ffe008" stroke="none" stroke-width="NaN" stroke-linecap="butt"/></g><g data-paper-data="{&quot;origRot&quot;:0,&quot;index&quot;:null}" stroke="none" stroke-linecap="butt"><g data-paper-data="{&quot;origPos&quot;:null,&quot;index&quot;:null,&quot;origRot&quot;:0}" stroke-width="0"><path d="M255.38917,180.35665c4.42782,-2.9413 13.7351,2.105 19.12119,10.2131c5.38605,8.10808 9.29502,16.61979 9.29502,16.61979l-13.18628,8.97913c0,0 -9.97421,-11.64847 -14.30627,-18.16987c-5.38601,-8.1081 -5.35143,-14.7008 -0.92363,-17.64212z" data-paper-data="{&quot;origRot&quot;:0,&quot;origPos&quot;:null}" fill="#41c3ff"/><g data-paper-data="{&quot;origPos&quot;:null}" fill="#ffffff"><path d="M272.88376,235.6489c-4.78695,-9.20754 -1.13596,-13.80275 6.43834,-19.35076c7.57432,-5.54797 17.25355,-11.99198 22.62509,-3.67985c3.89687,6.03016 1.82404,19.97982 -6.79537,23.7022c-9.40578,4.06198 -17.1414,9.18943 -22.26805,-0.67156z" data-paper-data="{&quot;origRot&quot;:0,&quot;origPos&quot;:null}"/><path d="M275.73231,209.2345c5.85347,-4.27571 11.69796,-10.29568 14.6199,-5.54354c3.26873,5.3162 1.5263,6.12893 -8.21175,12.8797c-11.09341,7.69033 -11.38886,10.88534 -15.25507,5.23285c-2.2576,-3.30064 2.99352,-8.29331 8.84695,-12.56899z" data-paper-data="{&quot;origRot&quot;:0,&quot;origPos&quot;:null}"/></g></g><path d="M288.63274,235.86489l-4.69966,-7.27093l-7.83299,-0.61006l6.436,-4.90686l-2.15129,-7.8063l7.18386,3.85532l7.42696,-5.66357l-2.3765,8.85627l6.0404,5.84669l-8.35954,-0.11708z" data-paper-data="{&quot;origPos&quot;:null,&quot;origRot&quot;:0}" fill="#ffe008" stroke-width="NaN"/></g><g data-paper-data="{&quot;index&quot;:null}"><path d="M190.44111,147.23187c-0.54646,-2.42184 -2.56428,-4.47421 4.59613,-5.00006c7.16042,-0.52585 21.13471,-2.34932 21.40167,1.28597c0.26696,3.63529 2.53661,10.24172 -4.6238,10.76757c-8.88611,0.65256 -20.52978,-3.31199 -21.37402,-7.0535z" data-paper-data="{&quot;origPos&quot;:null}" fill="#3595c5" stroke="none" stroke-width="0" stroke-linecap="butt"/><path d="M268.42699,182.99781c-1.77777,1.50225 -2.64966,1.56441 -5.15111,1.86736c-4.61682,0.55914 -6.49064,-0.62863 -6.49064,-0.62863c-1.34465,-1.24149 1.08581,-9.79899 1.08581,-9.79899c0.34476,-2.92681 7.48345,-4.47551 7.48345,-4.47551c1.77778,-1.50226 1.50412,3.57217 3.45799,6.61467c1.68401,2.62229 1.39225,4.91883 -0.38551,6.42107z" data-paper-data="{&quot;origRot&quot;:0,&quot;origPos&quot;:null}" fill="#e7be7a" stroke="none" stroke-width="0" stroke-linecap="butt"/><path d="M258.84127,144.49818c1.47032,-0.45909 4.67703,-3.91259 10.46043,-4.3373c5.78341,-0.42473 9.95544,5.85307 10.54869,13.93148c0.59327,8.07839 -4.465,17.03943 -14.80758,17.79898c-0.19402,0.01426 -1.28748,0.88272 -2.15028,2.42356c-2.81462,5.02666 -1.3573,6.16333 -4.35798,10.18579c-2.87862,4.19522 -7.7679,9.5222 -26.35746,14.66724c-10.77552,0.56884 -13.37602,-3.21538 -15.16526,-4.42365c-3.15399,-2.12988 -7.57553,-4.42836 -9.16291,-7.88731c-4.11711,-8.97136 2.40316,-13.94622 2.37586,-23.81716c-0.02374,-8.58504 -2.95384,-16.1279 5.56006,-17.23083c5.75462,-0.74551 38.82781,0.00953 43.05642,-1.31082z" data-paper-data="{&quot;origPos&quot;:null}" fill="#ffdebd" stroke="none" stroke-width="0" stroke-linecap="butt"/><path d="M211.16865,153.21956c-0.00665,-4.90151 2.45037,-8.87833 5.48794,-8.88245c3.03757,-0.0041 5.50539,3.96601 5.51205,8.86753c0.00666,4.90151 -2.45036,8.87833 -5.48793,8.88245c-3.03757,0.00411 -5.50539,-3.96601 -5.51205,-8.86753z" data-paper-data="{&quot;origPos&quot;:null,&quot;origRot&quot;:0}" fill="#ffffff" stroke="none" stroke-width="0" stroke-linecap="butt"/><path d="M249.03223,153.06308c-0.32359,-4.4064 -4.90408,-9.17975 6.71468,-9.60329c2.75958,-0.10059 3.05641,4.16906 3.38001,8.57547c0.32359,4.40642 -1.02713,9.8094 -3.77136,9.50174c-3.69421,-0.41419 -4.19476,3.89466 -7.0137,2.77129c-2.42317,-0.96568 0.88138,-8.64376 0.69034,-11.24524z" data-paper-data="{&quot;origPos&quot;:null}" fill="#e7be7a" stroke="none" stroke-width="0" stroke-linecap="butt"/><path d="M230.40368,148.62924c3.03468,0.1319 5.32224,4.20857 5.10938,9.10547c-0.21288,4.89689 -2.84553,8.75968 -5.88025,8.62777c-3.03468,-0.1319 -5.32224,-4.20857 -5.10938,-9.10547c0.21288,-4.89689 2.84553,-8.75968 5.88025,-8.62777z" data-paper-data="{&quot;origPos&quot;:null,&quot;origRot&quot;:0}" fill="#ffffff" stroke="none" stroke-width="0" stroke-linecap="butt"/><path d="M230.09369,153.88119c0.70453,1.07328 1.20399,2.59077 1.32931,4.29719c0.12533,1.70641 -0.14711,3.2806 -0.68726,4.44528c-0.54115,1.16476 -1.34992,1.92103 -2.29937,1.99075c-0.94945,0.06973 -1.86006,-0.56028 -2.56555,-1.63348c-0.70453,-1.07328 -1.20399,-2.59077 -1.32931,-4.29719c-0.12533,-1.70641 0.14711,-3.2806 0.68726,-4.44528c0.54115,-1.16476 1.34992,-1.92103 2.29937,-1.99075c0.94945,-0.06973 1.86006,0.56028 2.56555,1.63348z" fill="#000000" stroke="#ffe008" stroke-width="2" stroke-linecap="butt"/><path d="M214.59735,149.20071c0.94945,-0.06973 1.86006,0.56028 2.56555,1.63348c0.70453,1.07328 1.23234,2.79926 1.32931,4.29719c0.06818,1.05224 0.26083,2.13096 -0.61926,3.85572c-0.88009,1.72476 -1.68827,3.32592 -2.95994,3.15861c-0.73515,-0.19368 -3.30626,-3.59465 -3.30226,-6.50895c0.00241,-1.76231 0.14711,-3.2806 0.68726,-4.44528c0.54115,-1.16476 1.34992,-1.92103 2.29937,-1.99075z" fill="#000000" stroke="#ffe008" stroke-width="2" stroke-linecap="round"/><path d="M202.52993,119.24596c0.93031,-10.82942 11.52924,-14.36572 26.89554,-12.58898c11.93702,1.38021 24.43896,18.73015 24.43896,18.73015c2.46012,-4.46259 10.39005,-6.38268 10.39005,-6.38268c7.29436,-0.53569 14.04257,-0.97786 14.38355,12.76758c0.15457,6.23159 -3.57839,11.74705 -10.87274,12.28273c-3.5664,0.26192 -11.65447,4.31879 -15.03113,3.14151c-12.8599,-4.48365 -28.01942,-1.95531 -40.19825,-8.0509c-8.35836,-4.18341 -11.3015,-4.81944 -10.006,-19.89943z" data-paper-data="{&quot;origPos&quot;:null}" fill="#41c3ff" stroke="none" stroke-width="0" stroke-linecap="butt"/><path d="M217.48264,116.7695c6.71979,-0.4935 12.49187,3.52692 12.89232,8.97986c0.40045,5.45293 -0.1133,10.27247 -11.44216,10.76694c-10.73136,0.46841 -12.49187,-3.52692 -12.89232,-8.97986c-0.40045,-5.45293 4.72237,-10.27346 11.44216,-10.76694z" data-paper-data="{&quot;origPos&quot;:null}" fill="#ffffff" stroke="none" stroke-width="0" stroke-linecap="butt"/><path d="M189.88837,145.16679c-0.96977,-3.11083 7.98462,-10.55276 14.42185,-11.12456c15.74685,-1.39872 37.22208,2.41873 43.50918,3.96239c5.20264,1.27741 7.63409,6.18397 8.60387,9.29481c0.26233,0.84153 -10.4523,2.05427 -15.80603,1.86265c-11.01561,-0.39426 -50.46652,-3.15377 -50.72886,-3.99529z" data-paper-data="{&quot;origPos&quot;:null}" fill="#3595c5" stroke="none" stroke-width="0" stroke-linecap="butt"/><path d="M215.35592,131.75174l-2.36382,-1.47868l0.099,-2.60094l2.8701,-2.7564l4.0088,-1.82856l-7.34739,-0.03375l1.48835,-3.38921l7.96923,0.65815l2.15678,2.66772l-1.76732,3.15183l-3.58263,0.71866l-1.31763,1.87111l5.13812,0.36966l0.44131,3.43578z" data-paper-data="{&quot;origPos&quot;:null,&quot;origRot&quot;:0}" fill="#ffe008" stroke="none" stroke-width="0" stroke-linecap="butt"/><path d="M213.40353,191.35501c-3.22347,0.03406 -6.35474,-2.12218 -8.58203,-3.43438c-2.2273,-1.31221 -3.82752,-5.40623 -3.82752,-5.40623c-0.58106,-1.52982 -0.7988,-4.62724 0.67176,-4.83359c2.96511,-0.41605 12.90842,3.3769 12.90842,3.3769c5.98024,-0.09816 18.41965,-5.23056 18.41965,-5.23056c3.66118,-2.33804 4.81804,-6.81863 9.84814,-6.23408c0.86368,0.10035 3.18321,5.55004 1.66488,6.55839c-1.93977,1.28821 -5.47849,2.88399 -5.47849,2.88399c0,0 -0.87623,6.92249 -10.46085,9.23706c-7.39212,1.78511 -11.94046,3.04844 -15.16395,3.08249z" data-paper-data="{&quot;origPos&quot;:null}" fill="#e7be7a" stroke="none" stroke-width="0" stroke-linecap="butt"/><path d="M201.72569,171.60593c-1.57323,-10.50083 2.61496,-13.85372 12.27145,-13.81086c6.62735,0.02942 13.53322,6.78401 13.96299,12.63627c0.42979,5.85223 -5.62334,10.44969 -12.22352,11.04992c-14.3205,1.30234 -13.02755,-3.31174 -14.01092,-9.87536z" data-paper-data="{&quot;origPos&quot;:null}" fill="#ffdebd" stroke="none" stroke-width="0" stroke-linecap="butt"/><g data-paper-data="{&quot;origPos&quot;:null}" fill="none" stroke="#f6b09a" stroke-width="3.5" stroke-linecap="round"><path d="M265.12254,163.45534c0,0 -3.70947,-6.91753 1.40608,-11.50583c3.56693,-3.19927 6.649,-1.691 6.649,-1.691" data-paper-data="{&quot;origPos&quot;:null}"/><path d="M270.9624,157.15359l-5.98389,0.43944" data-paper-data="{&quot;origPos&quot;:null}"/><path d="M265.98785,163.53508l1.28224,-0.09416" data-paper-data="{&quot;origPos&quot;:null}"/></g><path d="M233.34807,145.93328c-1.47499,-0.36312 -4.79478,1.90933 -4.79478,1.90933c0,0 -3.48661,-8.73995 6.04243,-9.11798c2.85694,0.43093 4.081,3.53591 4.21489,5.35911c0.1972,2.68517 -0.99157,6.40929 -0.99157,6.40929c0,0 -1.57739,-1.57716 -2.36049,-2.83425c-0.75911,-1.21853 -0.70838,-1.41715 -2.11049,-1.72555z" data-paper-data="{&quot;origPos&quot;:null}" fill="url(#color-1)" stroke="none" stroke-width="0" stroke-linecap="butt"/><path d="M215.92816,144.39891c-1.43557,-0.01476 -1.43079,0.19018 -2.44446,1.20679c-1.04573,1.04878 -2.93737,2.23086 -2.93737,2.23086c0,0 -0.32088,-3.89609 0.47506,-6.46813c0.54043,-1.74638 2.43137,-4.49661 5.31205,-4.27408c9.19997,2.51112 3.83733,10.24319 3.83733,10.24319c0,0 -2.72377,-2.96076 -4.24264,-2.93862z" data-paper-data="{&quot;origPos&quot;:null,&quot;index&quot;:null,&quot;origRot&quot;:0}" fill="url(#color-2)" stroke="none" stroke-width="0" stroke-linecap="butt"/></g></g></g></svg>