<svg version="1.1" xmlns="http://www.w3.org/2000/svg" xmlns:xlink="http://www.w3.org/1999/xlink" width="139.41735" height="184.00264" viewBox="0,0,139.41735,184.00264"><defs><linearGradient x1="237.01923" y1="114.00157" x2="238.70283" y2="125.86399" gradientUnits="userSpaceOnUse" id="color-1"><stop offset="0" stop-color="#38291e"/><stop offset="1" stop-color="#381e32"/></linearGradient><linearGradient x1="253.66732" y1="108.60583" x2="255.14903" y2="119.04576" gradientUnits="userSpaceOnUse" id="color-2"><stop offset="0" stop-color="#38291e"/><stop offset="1" stop-color="#381e32"/></linearGradient></defs><g transform="translate(-164.04102,-72.53842)"><g data-paper-data="{&quot;isPaintingLayer&quot;:true}" fill-rule="nonzero" stroke-linejoin="miter" stroke-miterlimit="10" stroke-dasharray="" stroke-dashoffset="0" style="mix-blend-mode: normal"><g data-paper-data="{&quot;index&quot;:null,&quot;origRot&quot;:0}" stroke="none" stroke-width="0" stroke-linecap="butt"><path d="M264.95004,182.20206c-1.17309,5.18467 -11.39051,7.9587 -20.88455,5.81056c-9.49403,-2.14815 -18.19796,-5.60795 -18.19796,-5.60795l3.34185,-15.59921c0,0 15.25754,1.54231 22.89368,3.27008c9.49403,2.14815 14.02007,6.94183 12.84698,12.12651z" data-paper-data="{&quot;origRot&quot;:0,&quot;origPos&quot;:null}" fill="#41c3ff"/><g data-paper-data="{&quot;origPos&quot;:null}" fill="#ffffff"><path d="M222.82331,172.71962c-1.65016,9.2427 -4.20467,20.58671 -13.82905,18.28097c-6.98212,-1.67273 -15.11219,-13.19629 -11.44564,-21.83961c4.00105,-9.43182 6.05821,-18.48163 16.57461,-14.88621c9.81951,3.35716 10.35021,9.20215 8.70007,18.44485z" data-paper-data="{&quot;origRot&quot;:0,&quot;origPos&quot;:null}"/><path d="M230.29673,175.35213c-1.2834,7.13422 -1.35622,15.52426 -6.75073,14.10317c-6.03481,-1.58978 -5.33519,-3.38066 -2.94987,-14.98722c2.71732,-13.22202 0.72548,-15.73756 7.42475,-14.31689c3.91191,0.82957 3.55924,8.06673 2.27586,15.20094z" data-paper-data="{&quot;origRot&quot;:0,&quot;origPos&quot;:null}"/></g></g><g stroke="none" stroke-width="0" stroke-linecap="butt"><path d="M275.73145,205.13942c4.45892,0.99821 7.58053,-3.4831 8.52344,-3.05026c3.81501,1.75126 6.09256,4.44074 6.10447,11.58684c0.01477,8.85203 -2.34657,15.13669 -8.73267,21.26665c-4.34949,4.17503 -5.64672,-0.94032 -10.5919,-4.38912c-1.77447,-1.23753 -4.20456,-2.46897 -9.27881,-4.42005c-6.34412,-2.43937 -22.65555,-12.12382 -22.65555,-12.12382c0,0 1.93184,-7.07365 4.17922,-11.64847c1.7736,-3.61039 -1.22995,-10.88032 -1.22995,-10.88032c0,0 23.37442,11.35109 33.68174,13.65858z" data-paper-data="{&quot;origPos&quot;:null}" fill="#5063f7"/><path d="M299.04026,204.27018c3.75204,1.05855 4.44269,5.37529 4.41745,9.2737c-0.01655,2.55481 -3.59697,13.95811 -8.54864,18.72104c-1.53728,1.47867 -4.29845,2.25277 -4.29845,2.25277c0,0 -0.63662,5.05374 -2.03471,4.64428c-1.10982,-0.32503 -3.01289,-0.83171 -3.28623,-2.07308c-1.1766,-5.34345 1.93144,-16.33726 3.41708,-21.60315c2.03945,-7.22889 6.66592,-12.25026 10.33353,-11.21554z" data-paper-data="{&quot;origPos&quot;:null}" fill="#f8dca0"/><path d="M294.83882,201.12681c4.02075,2.55421 5.91991,7.83539 3.61428,16.00776c-2.30563,8.17237 -9.51204,15.57747 -9.51204,15.57747c0,0 -1.35771,6.00433 -2.90945,5.69578c-3.21168,-0.63862 -8.35393,-2.0283 -8.18606,-3.26474c0.61976,-4.56456 0.98025,-3.56795 1.37243,-9.65476c0.25392,-3.94091 -1.53609,-11.14962 -0.46382,-14.95034c2.30563,-8.17237 9.4644,-13.61673 16.08465,-9.41117z" data-paper-data="{&quot;origPos&quot;:null}" fill="#ab7644"/></g><g stroke="none" stroke-width="0" stroke-linecap="butt"><path d="M257.38891,221.98436c4.41367,1.18231 7.71847,-3.16568 8.64262,-2.69411c3.73909,1.90799 5.90313,4.68963 5.61862,11.83006c-0.35241,8.84503 -2.97238,15.02633 -9.60724,20.88613c-4.51891,3.99103 -5.60286,-1.17374 -10.40074,-4.82467c-1.72161,-1.31006 -4.09852,-2.64124 -9.08748,-4.80112c-28.59487,-8.63575 -28.81473,-40.37068 -28.81473,-40.37068l18.79623,7.10064c0,0 14.64997,10.1407 24.85271,12.87374z" data-paper-data="{&quot;origPos&quot;:null}" fill="#5063f7"/><path d="M280.71371,222.08267c3.7049,1.21327 4.2159,5.55494 4.02899,9.44894c-0.1225,2.55193 -4.17284,13.79691 -9.31779,18.35035c-1.59729,1.41362 -4.38819,2.07253 -4.38819,2.07253c0,0 -0.84569,5.023 -2.22559,4.5559c-1.09539,-0.3708 -2.9758,-0.95597 -3.19742,-2.2076c-0.95394,-5.38765 2.60742,-16.24309 4.31019,-21.44283c2.33753,-7.13807 7.1683,-11.96323 10.78983,-10.77727z" data-paper-data="{&quot;origPos&quot;:null}" fill="#f8dca0"/><path d="M276.64627,218.76773c3.91134,2.71879 5.58981,8.07418 2.94719,16.14389c-2.64261,8.06971 -10.14997,15.16952 -10.14997,15.16952c0,0 -1.60559,5.94286 -3.14319,5.57021c-3.18243,-0.77129 -8.26261,-2.37306 -8.04359,-3.60148c0.80856,-4.53493 1.1274,-3.52422 1.77171,-9.58953c0.41715,-3.92699 -1.07231,-11.20373 0.15669,-14.95672c2.64261,-8.06971 10.02105,-13.21246 16.46116,-8.73592z" data-paper-data="{&quot;origPos&quot;:null}" fill="#ab7644"/></g><g><path d="M265.93071,192.71979c-2.53886,21.02441 -11.49496,29.10344 -32.20277,25.9983c-21.69508,-3.25317 -21.20967,-15.87205 -19.80502,-25.93654c1.52382,-10.9183 1.84888,-19.98615 11.23997,-25.7601c6.99664,-4.30176 13.47325,-0.93009 21.6077,0.2052c15.04204,2.09935 21.64877,4.88452 19.16012,25.49313z" data-paper-data="{&quot;origPos&quot;:null}" fill="#5063f7" stroke="none" stroke-width="0" stroke-linecap="butt"/><path d="M266.26125,192.1601c0,0 -17.35477,-0.40274 -29.44953,-1.68688c-11.09379,-1.17787 -21.71501,-6.46362 -21.71501,-6.46362c0,0 0.9299,-13.79957 9.56598,-18.01064c5.65034,-2.75517 11.61803,-3.08282 19.1057,-2.22039c7.48766,0.86242 13.99119,0.64999 17.32318,4.21784c7.87051,8.42767 5.16968,24.16371 5.16968,24.16371z" data-paper-data="{&quot;origPos&quot;:null}" fill="#41c3ff" stroke="none" stroke-width="0" stroke-linecap="butt"/><path d="M255.96616,169.11139c0,0 3.55492,4.15464 3.55562,10.09102c0.18331,5.84287 -0.92783,15.29586 -0.92783,15.29586" data-paper-data="{&quot;origRot&quot;:0}" fill="none" stroke="#5063f7" stroke-width="10" stroke-linecap="round"/><path d="M236.08087,165.65332c0,0 4.35692,6.41765 3.62963,13.6897c-0.72865,7.28561 -2.87982,14.51673 -2.87982,14.51673" data-paper-data="{&quot;origPos&quot;:null}" fill="none" stroke="#5063f7" stroke-width="10" stroke-linecap="round"/><path d="M233.86849,197.53768l1.04972,-4.0592l-2.35142,-2.99135l3.85923,0.68426l2.07626,-3.32666l0.98208,3.82429l4.45385,0.78924l-3.93529,2.05754l-0.10252,4.0699l-2.69976,-3.01731z" data-paper-data="{&quot;origRot&quot;:0}" fill="#ffe008" stroke="none" stroke-width="NaN" stroke-linecap="butt"/><path d="M255.44389,199.98595l0.48149,-4.16499l-2.74047,-2.63953l3.91665,0.147l1.59901,-3.5806l1.49871,3.65289l4.52007,0.16921l-3.61491,2.57921l0.45819,4.04531l-3.08907,-2.61734z" data-paper-data="{&quot;origRot&quot;:0}" fill="#ffe008" stroke="none" stroke-width="NaN" stroke-linecap="butt"/></g><path d="M276.89608,100.42992c0.70182,3.77082 -8.4301,12.01103 -16.85173,14.92043c-6.78616,2.3444 -7.30969,-4.62141 -8.49992,-8.06669c-1.19023,-3.44529 12.36845,-7.28815 19.15461,-9.63254c6.78616,-2.3444 5.74276,0.33798 6.19704,2.7788z" fill="#3595c5" stroke="none" stroke-width="0" stroke-linecap="butt"/><path d="M211.75514,164.69512c-2.05657,-1.08982 -2.83002,-3.27179 -1.74217,-6.19222c1.26217,-3.38843 -0.08431,-8.28857 1.97226,-7.19875c0,0 7.30473,-0.00481 8.26403,2.78175c0,0 4.19468,7.84493 3.14477,9.34396c0,0 -1.57837,1.55908 -6.20849,1.99451c-2.50867,0.23593 -3.37383,0.3606 -5.43039,-0.72924z" data-paper-data="{&quot;origRot&quot;:0,&quot;origPos&quot;:null}" fill="#e7be7a" stroke="none" stroke-width="0" stroke-linecap="butt"/><path d="M212.93447,125.03764c4.41268,0.39092 32.10546,-13.87218 37.88702,-14.36749c9.771,-0.73281 11.75801,13.75275 13.56046,22.14647c2.07243,9.65096 9.50151,13.12547 7.38638,22.76715c-0.81549,3.71741 -4.64712,6.90357 -7.27604,9.65545c-1.49137,1.56113 -3.22767,5.81182 -13.87767,7.54746c-19.2585,-1.07417 -25.16876,-5.2396 -28.87366,-8.72671c-3.78743,-3.29235 -2.60518,-4.71294 -6.42437,-9.02606c-1.17073,-1.32213 -2.42387,-1.93819 -2.61647,-1.91085c-10.26753,1.45724 -17.11572,-6.22315 -18.25395,-14.24295c-1.13823,-8.01981 1.60335,-15.04121 7.34481,-15.85607c5.74146,-0.81486 9.60919,1.87771 11.14351,2.01363z" data-paper-data="{&quot;origPos&quot;:null}" fill="#ffdebd" stroke="none" stroke-width="0" stroke-linecap="butt"/><path d="M261.37132,123.42174c1.03583,4.79083 -0.5313,9.19494 -3.50026,9.83686c-2.96896,0.64192 -6.21548,-2.72143 -7.25131,-7.51225c-1.03583,-4.79083 0.53129,-9.19494 3.50026,-9.83687c2.96896,-0.64193 6.2155,2.72143 7.25132,7.51225z" data-paper-data="{&quot;origPos&quot;:null,&quot;origRot&quot;:0}" fill="#ffffff" stroke="none" stroke-width="0" stroke-linecap="butt"/><path d="M224.34052,131.32069c0.36654,2.58261 5.22832,9.38235 3.06592,10.84121c-2.51557,1.69714 -3.92096,-2.40671 -7.4426,-1.21642c-2.61604,0.88421 -5.08484,-4.10797 -5.70569,-8.4824c-0.62085,-4.37444 -1.23878,-8.60956 1.47908,-9.09811c11.44307,-2.05694 7.98244,3.58129 8.60329,7.95572z" data-paper-data="{&quot;origPos&quot;:null}" fill="#e7be7a" stroke="none" stroke-width="0" stroke-linecap="butt"/><path d="M249.18058,130.2068c1.24935,4.73963 -0.11896,9.20951 -3.05619,9.98375c-2.93723,0.77425 -6.33113,-2.44034 -7.58048,-7.17997c-1.24935,-4.73963 0.11896,-9.20951 3.05619,-9.98375c2.93723,-0.77425 6.33113,2.44034 7.58048,7.17997z" data-paper-data="{&quot;origPos&quot;:null,&quot;origRot&quot;:0}" fill="#ffffff" stroke="none" stroke-width="0" stroke-linecap="butt"/><path d="M245.90266,126.98713c0.94255,-0.13378 1.89366,0.4332 2.67012,1.45625c0.77547,1.02319 1.37644,2.50342 1.61686,4.19745c0.24042,1.69403 0.07507,3.28302 -0.38508,4.48157c-0.46114,1.19869 -1.21693,2.00793 -2.15948,2.1417c-0.94255,0.13378 -1.89366,-0.43321 -2.67012,-1.45625c-0.77547,-1.02319 -1.37644,-2.50342 -1.61686,-4.19744c-0.24042,-1.69403 -0.07507,-3.28303 0.38508,-4.48158c0.46114,-1.19869 1.21693,-2.00792 2.15948,-2.1417z" data-paper-data="{&quot;origPos&quot;:null}" fill="#000000" stroke="#ffe008" stroke-width="2" stroke-linecap="butt"/><path d="M258.13431,120.65553c0.94256,-0.13377 1.89367,0.4332 2.67013,1.45624c0.77547,1.02318 1.17538,2.76628 1.61686,4.19745c0.15792,0.52199 0.41659,1.27714 0.10442,1.80322c-0.39713,0.63915 -1.14842,1.02454 -1.82558,1.37013c-1.207,0.43391 -2.57502,1.41286 -3.7556,0.93703c-1.03791,-0.4385 -1.18159,-1.99173 -1.35478,-3.14079c-0.22379,-1.48428 -0.07507,-3.28303 0.38508,-4.48158c0.46114,-1.19869 1.21692,-2.00792 2.15947,-2.14169z" data-paper-data="{&quot;origPos&quot;:null}" fill="#000000" stroke="#ffe008" stroke-width="2" stroke-linecap="round"/><path d="M254.73865,79.49195c7.14499,13.34293 4.69219,15.08943 -1.33497,22.23343c-8.78206,10.40939 -23.70801,14.07267 -33.75232,23.27007c-2.63737,2.41499 -11.6701,1.88161 -15.0501,3.04927c-6.91308,2.38823 -12.52063,-1.20494 -14.83933,-6.99114c-5.11451,-12.76304 1.2599,-15.02152 8.17298,-17.40977c0,0 8.0437,-1.36731 12.06606,1.76117c0,0 4.63482,-20.87671 15.05673,-26.85846c13.41593,-7.70018 24.54993,-8.63657 29.68097,0.94542z" fill="#41c3ff" stroke="none" stroke-width="0" stroke-linecap="butt"/><path d="M254.78711,88.49496c1.78535,5.16792 1.74556,9.53376 -8.29864,13.34101c-10.60344,4.01924 -12.97857,-0.20576 -14.76392,-5.37368c-1.78535,-5.16792 1.93007,-11.14089 8.29863,-13.34101c6.36854,-2.20012 12.97858,0.20576 14.76392,5.37368z" fill="#ffffff" stroke="none" stroke-width="0" stroke-linecap="butt"/><path d="M276.58844,98.31441c0.09127,0.87673 -35.06389,18.99033 -45.02862,23.70239c-4.84299,2.29014 -15.16576,5.40692 -15.25704,4.5302c-0.33744,-3.24097 -0.04107,-8.70893 4.23433,-11.93694c5.16661,-3.90087 23.38918,-15.8882 38.40866,-20.82125c6.13989,-2.0166 17.30524,1.28463 17.64268,4.5256z" fill="#3595c5" stroke="none" stroke-width="0" stroke-linecap="butt"/><path d="M241.04378,99.84499l-0.95127,-3.33084l4.57459,-2.36855l-1.94943,-1.19875l-3.57527,0.75445l-2.86829,-2.1978l0.92808,-3.30259l7.0617,-3.75156l2.70574,2.52606l-6.73696,2.93232l4.40509,0.09699l3.7253,1.39905l1.118,2.35048l-1.58782,2.29194z" data-paper-data="{&quot;origRot&quot;:0}" fill="#ffe008" stroke="none" stroke-width="0" stroke-linecap="butt"/><path d="M267.29725,161.16017c-3.15701,0.65223 -7.86997,0.38501 -15.47262,0.21271c-9.8576,-0.22341 -12.18589,-6.80122 -12.18589,-6.80122c0,0 -3.79714,-0.80676 -5.96648,-1.653c-1.69804,-0.6624 -0.59047,-6.4807 0.2321,-6.76243c4.79073,-1.64086 6.87396,2.49123 10.9486,3.99723c0,0 13.24632,2.3697 19.11066,1.19388c0,0 8.90927,-5.82071 11.89504,-6.0447c1.4808,-0.1111 1.92672,2.96178 1.68428,4.58017c0,0 -0.693,4.34068 -2.59031,6.09652c-1.89729,1.75583 -4.4984,4.52862 -7.6554,5.18084z" data-paper-data="{&quot;origPos&quot;:null}" fill="#e7be7a" stroke="none" stroke-width="0" stroke-linecap="butt"/><path d="M274.50825,139.37943c0.43491,6.62261 2.67949,10.8562 -11.59039,12.62897c-6.57686,0.81705 -13.4692,-2.388 -14.29376,-8.1978c-0.82457,-5.8098 4.48693,-13.87846 10.95645,-15.31655c9.4265,-2.09539 14.2319,0.29018 14.92771,10.88538z" data-paper-data="{&quot;origPos&quot;:null}" fill="#ffdebd" stroke="none" stroke-width="0" stroke-linecap="butt"/><g data-paper-data="{&quot;origPos&quot;:null}" fill="none" stroke="#f6b09a" stroke-width="3.5" stroke-linecap="round"><path d="M200.15099,133.71497c0,0 2.69082,-2.1292 6.85652,0.23838c5.97429,3.39549 3.82071,10.94365 3.82071,10.94365" data-paper-data="{&quot;origPos&quot;:null}"/><path d="M209.72229,139.13813l-5.94046,0.84311" data-paper-data="{&quot;origPos&quot;:null}"/><path d="M208.72669,145.33957l1.27295,-0.18067" data-paper-data="{&quot;origPos&quot;:null}"/></g><path d="M238.14974,121.01863c-1.30446,0.59952 -1.21265,0.78281 -1.69527,2.13489c-0.49787,1.39486 -1.70379,3.27138 -1.70379,3.27138c0,0 -1.95353,-3.38615 -2.33186,-6.05182c-0.25688,-1.80996 0.27889,-5.10424 2.97884,-6.13287c9.39146,-1.657 7.84321,7.62446 7.84321,7.62446c0,0 -3.7271,-1.5145 -5.09114,-0.84602z" data-paper-data="{&quot;origPos&quot;:null}" fill="url(#color-1)" stroke="none" stroke-width="0" stroke-linecap="butt"/><path d="M254.84496,115.81497c-1.48883,0.30136 -3.52067,3.77362 -3.52067,3.77362c0,0 -6.88425,-6.41482 1.57129,-10.82494c2.76747,-0.83003 5.2,1.45518 6.09945,3.04669c1.3247,2.34395 1.83968,6.21914 1.83968,6.21914c0,0 -2.09974,-0.75277 -3.34458,-1.55519c-1.20667,-0.77781 -1.2456,-0.97907 -2.64517,-0.65935z" data-paper-data="{&quot;origPos&quot;:null,&quot;index&quot;:null,&quot;origRot&quot;:0}" fill="url(#color-2)" stroke="none" stroke-width="0" stroke-linecap="butt"/><g data-paper-data="{&quot;origRot&quot;:0,&quot;index&quot;:null}" stroke="none" stroke-linecap="butt"><g data-paper-data="{&quot;origPos&quot;:null,&quot;index&quot;:null,&quot;origRot&quot;:0}" stroke-width="0"><path d="M214.79594,183.25669c-7.71339,-1.34143 -22.39086,-5.78478 -22.39086,-5.78478l2.91354,-15.68485c0,0 9.36508,0.15318 18.95516,1.82099c9.59008,1.66783 17.95519,8.15751 17.04439,13.39463c-0.91081,5.23711 -6.93218,7.9218 -16.52225,6.25399z" data-paper-data="{&quot;origRot&quot;:0,&quot;origPos&quot;:null}" fill="#41c3ff"/><g data-paper-data="{&quot;origPos&quot;:null}" fill="#ffffff"><path d="M173.66041,183.23799c-11.09037,-0.72496 -9.50939,-9.86997 -9.57593,-20.11513c-0.06097,-9.38865 11.87518,-16.89988 18.96367,-15.75912c9.77101,1.57245 7.76693,13.02654 5.73607,22.1931c-2.03088,9.16657 -4.76837,14.35806 -15.12381,13.68114z" data-paper-data="{&quot;origRot&quot;:0,&quot;origPos&quot;:null}"/><path d="M188.74917,183.15754c-6.73045,-1.26466 -3.92445,-2.82086 -1.34853,-16.07115c2.26121,-11.63138 2.30405,-13.55359 8.48617,-12.70053c5.52619,0.76256 2.36714,8.53549 0.80851,15.61468c-1.55865,7.07917 -4.01604,13.89549 -7.94616,13.15701z" data-paper-data="{&quot;origRot&quot;:0,&quot;origPos&quot;:null}"/></g></g><path d="M173.60977,164.23564l-3.47126,-7.60564l7.78315,3.17689l7.15118,-5.73954l-2.19595,9.0782l6.42033,5.02502l-8.01206,1.17203l-1.90201,7.86648l-3.71064,-6.92523l-8.54744,-1.37637z" data-paper-data="{&quot;origPos&quot;:null,&quot;origRot&quot;:0}" fill="#ffe008" stroke-width="NaN"/></g></g></g></svg>