<svg version="1.1" xmlns="http://www.w3.org/2000/svg" xmlns:xlink="http://www.w3.org/1999/xlink" width="44" height="44" viewBox="0,0,44,44"><g transform="translate(-218,-159.67616)"><g data-paper-data="{&quot;isPaintingLayer&quot;:true}" fill-rule="nonzero" stroke-linecap="butt" stroke-linejoin="miter" stroke-miterlimit="10" stroke-dasharray="" stroke-dashoffset="0" style="mix-blend-mode: normal"><path d="M240,159.67616c6.07,0 11.57,2.465 15.552,6.448c3.983,3.982 6.448,9.482 6.448,15.552c0,6.07 -2.465,11.57 -6.448,15.552c-3.982,3.983 -9.482,6.448 -15.552,6.448c-6.07,0 -11.57,-2.465 -15.552,-6.448c-3.983,-3.982 -6.448,-9.482 -6.448,-15.552c0,-6.07 2.465,-11.57 6.448,-15.552c3.982,-3.983 9.482,-6.448 15.552,-6.448z" data-paper-data="{&quot;origPos&quot;:null}" fill="#ffffff" stroke="none" stroke-width="1"/><path d="M257.78695,178.6926c0.97256,3.16778 -5.97865,8.11196 -15.52597,11.04315c-9.54731,2.9312 -18.07537,2.73941 -19.04792,-0.42836c-0.97256,-3.16778 5.97865,-8.11196 15.52596,-11.04316c9.54731,-2.9312 18.07537,-2.73941 19.04793,0.42837z" fill="none" stroke="#c9c9c9" stroke-width="3"/><text transform="translate(222.98071,191.25666) scale(1.46534,1.46534)" font-size="22" xml:space="preserve" fill="#000000" fill-rule="nonzero" stroke="none" stroke-width="1" stroke-linecap="butt" stroke-linejoin="miter" stroke-miterlimit="10" stroke-dasharray="" stroke-dashoffset="0" font-family="&quot;ヒラギノ角ゴ Pro W3&quot;, &quot;Hiragino Kaku Gothic Pro&quot;, Osaka, &quot;メイリオ&quot;, Meiryo, &quot;ＭＳ Ｐゴシック&quot;, &quot;MS PGothic&quot;" font-weight="400" text-anchor="start" style="mix-blend-mode: normal"><tspan x="0" dy="0">Sp</tspan></text><path d="M256.74614,177.38727c0.52693,0.35649 0.88314,0.79181 1.04081,1.30533c0.97256,3.16777 -5.97865,8.11196 -15.52597,11.04316c-9.54732,2.93119 -18.07536,2.73941 -19.04793,-0.42837c-0.24763,-0.80658 0.01844,-1.72832 0.71028,-2.70268" fill="none" stroke-opacity="0.52549" stroke="#c9c9c9" stroke-width="3"/></g></g></svg>