<svg version="1.1" xmlns="http://www.w3.org/2000/svg" xmlns:xlink="http://www.w3.org/1999/xlink" width="106.47304" height="208.46812" viewBox="0,0,106.47304,208.46812"><defs><linearGradient x1="249.37695" y1="201.66437" x2="224.83642" y2="249.7925" gradientUnits="userSpaceOnUse" id="color-1"><stop offset="0" stop-color="#6a17af"/><stop offset="1" stop-color="#6215a2"/></linearGradient><linearGradient x1="214.06327" y1="240.45399" x2="248.92455" y2="257.48728" gradientUnits="userSpaceOnUse" id="color-2"><stop offset="0" stop-color="#8d6431"/><stop offset="1" stop-color="#ac793c"/></linearGradient><linearGradient x1="220.18126" y1="198.22632" x2="197.6999" y2="247.38558" gradientUnits="userSpaceOnUse" id="color-3"><stop offset="0" stop-color="#6a17af"/><stop offset="1" stop-color="#6215a2"/></linearGradient><linearGradient x1="185.69243" y1="237.85772" x2="220.97774" y2="253.9943" gradientUnits="userSpaceOnUse" id="color-4"><stop offset="0" stop-color="#8d6431"/><stop offset="1" stop-color="#ac793c"/></linearGradient><linearGradient x1="250.10646" y1="143.45268" x2="231.27699" y2="210.03781" gradientUnits="userSpaceOnUse" id="color-5"><stop offset="0" stop-color="#6f18b4"/><stop offset="1" stop-color="#6a17af"/></linearGradient><linearGradient x1="261.81667" y1="148.72092" x2="252.58731" y2="181.35792" gradientUnits="userSpaceOnUse" id="color-6"><stop offset="0" stop-color="#8328ce"/><stop offset="1" stop-color="#6a17af"/></linearGradient><linearGradient x1="240.77544" y1="143.47823" x2="231.53256" y2="176.16306" gradientUnits="userSpaceOnUse" id="color-7"><stop offset="0" stop-color="#8328ce"/><stop offset="1" stop-color="#6a17af"/></linearGradient><linearGradient x1="253.69479" y1="133.25203" x2="255.06875" y2="149.38764" gradientUnits="userSpaceOnUse" id="color-8"><stop offset="0" stop-color="#381300"/><stop offset="1" stop-color="#593400"/></linearGradient><linearGradient x1="219.09033" y1="96.54439" x2="285.00042" y2="89.90619" gradientUnits="userSpaceOnUse" id="color-9"><stop offset="0" stop-color="#de5112"/><stop offset="1" stop-color="#b7430f"/></linearGradient></defs><g transform="translate(-178.6464,-57.56244)"><g data-paper-data="{&quot;isPaintingLayer&quot;:true}" fill-rule="nonzero" stroke-linejoin="miter" stroke-miterlimit="10" stroke-dasharray="" stroke-dashoffset="0" style="mix-blend-mode: normal"><g stroke="none" stroke-linecap="butt"><g data-paper-data="{&quot;origPos&quot;:null,&quot;index&quot;:null,&quot;origRot&quot;:0}" stroke-width="0"><path d="M264.46762,150.82845c2.93525,1.37443 5.11721,2.89978 3.89926,11.02221c-0.77961,5.19915 -9.81192,20.8184 -9.81192,20.8184l-5.28278,16.19129l-14.52438,-6.5989l7.45257,-14.9811c0,0 3.82595,-11.9272 5.19421,-14.8493c4.12783,-8.81545 8.25892,-13.85679 13.07303,-11.60261z" data-paper-data="{&quot;origRot&quot;:0,&quot;origPos&quot;:null}" fill="#ff5e15"/><g data-paper-data="{&quot;origPos&quot;:null}" fill="#ffffff"><path d="M243.16027,199.76407c8.67638,3.58762 18.07476,8.86731 14.90256,17.41694c-0.22088,0.59528 -4.07772,6.26851 -9.0597,7.54421c-6.59319,1.68826 -14.42253,1.31792 -14.42253,1.31792c0,0 -7.1809,-6.55859 -10.27448,-11.93311c-2.25647,-3.92019 -1.14215,-9.47654 -1.02405,-9.78949c3.05123,-8.08643 11.2018,-8.14407 19.87819,-4.55647z" data-paper-data="{&quot;origRot&quot;:0,&quot;origPos&quot;:null}"/><path d="M247.32936,193.02606c6.69502,2.77865 14.87559,4.64313 12.33428,9.60921c-2.84296,5.55553 -4.44292,4.48929 -15.27137,-0.32176c-12.33562,-5.4807 -15.21877,-4.07258 -12.399,-10.31334c1.64655,-3.64419 8.64108,-1.75274 15.33609,1.0259z" data-paper-data="{&quot;origRot&quot;:0,&quot;origPos&quot;:null}"/></g></g><path d="M237.16747,221.05296l-0.90604,-7.5564l-6.11657,-6.02982l8.38167,-0.21407l5.78361,-5.74641l0.16771,8.09557l5.86152,5.0923l-7.71675,1.1447z" data-paper-data="{&quot;origRot&quot;:0,&quot;index&quot;:null}" fill="#6f18b4" stroke-width="NaN"/></g><g data-paper-data="{&quot;origRot&quot;:0}" stroke="none" stroke-width="0" stroke-linecap="butt"><path d="M235.13307,252.50708c-8.79754,-0.98071 -11.57675,-1.50404 -16.94975,-8.53891c-3.65948,-4.79138 -0.0849,-5.2762 5.12729,-12.31799c0.90277,-1.02585 8.55838,-10.63908 14.84976,-19.98139c3.66876,-5.44787 7.15576,-12.23538 7.15576,-12.23538l10.66156,5.91383l-10.67274,21.9468c0,0 -3.56461,7.085 -3.33423,13.81466c0.23039,6.72965 0.26444,12.19012 -6.83767,11.3984z" data-paper-data="{&quot;origPos&quot;:null}" fill="url(#color-1)"/><path d="M244.39397,262.64482c0,0 -5.84074,3.81008 -9.71159,3.34665c-2.53673,-0.30372 -13.46513,-5.14369 -17.64104,-10.59952c-1.29643,-1.6938 -1.75514,-4.52451 -1.75514,-4.52451c0,0 -4.95011,-1.20085 -4.38604,-2.54403c0.44778,-1.06624 1.16523,-2.90028 2.42945,-3.0323c5.44186,-0.56828 16.01647,3.75626 21.08191,5.8246c6.95373,2.83937 9.98245,11.52912 9.98245,11.52912z" data-paper-data="{&quot;origPos&quot;:null}" fill="#f8dca0"/><path d="M247.98984,258.82348c0,0 -8.45136,5.0013 -16.31265,1.79135c-7.86128,-3.20996 -14.40907,-11.20333 -14.40907,-11.20333c0,0 -5.81361,-2.02426 -5.33251,-3.53146c0.99571,-3.1195 2.95479,-8.07288 4.16453,-7.76703c4.46593,1.1291 3.43509,1.37524 9.4392,2.44937c3.88735,0.69544 11.25164,-0.27264 14.90769,1.22023c7.86128,3.20994 7.54284,17.04089 7.54284,17.04089z" data-paper-data="{&quot;origPos&quot;:null}" fill="url(#color-2)"/></g><g data-paper-data="{&quot;origRot&quot;:0}" stroke="none" stroke-width="0" stroke-linecap="butt"><path d="M207.96565,249.7996c-8.81974,-0.75549 -14.87511,-3.6547 -20.42619,-10.54994c-3.78076,-4.69627 3.04395,-2.82522 8.07444,-9.99793c0.87625,-1.04859 8.92803,-10.54629 14.97856,-20.04636c3.52831,-5.53988 7.8101,-11.79247 7.8101,-11.79247l10.80924,5.63936l-11.07768,21.59059c0,0 -4.02676,6.86572 -3.62441,13.58728c0.40235,6.72157 0.57596,12.17938 -6.54407,11.56946z" data-paper-data="{&quot;origPos&quot;:null}" fill="url(#color-3)"/><path d="M216.58047,259.26597c0,0 -5.74144,3.95814 -9.62287,3.5938c-2.54368,-0.23877 -13.59221,-4.79781 -17.90623,-10.14511c-1.33931,-1.6601 -1.87022,-4.47816 -1.87022,-4.47816c0,0 -4.97918,-1.07392 -4.44963,-2.43109c0.42038,-1.07733 1.09071,-2.92911 2.35113,-3.0934c5.42556,-0.7072 16.10725,3.34561 21.22391,5.28378c7.02403,2.66069 10.27391,11.27017 10.27391,11.27017z" data-paper-data="{&quot;origPos&quot;:null}" fill="#f8dca0"/><path d="M220.07748,255.35396c0,0 -8.32075,5.2157 -16.26152,2.20775c-7.94077,-3.00795 -14.69076,-10.83133 -14.69076,-10.83133c0,0 -5.86345,-1.87498 -5.42104,-3.39399c0.91564,-3.14393 2.74748,-8.14577 3.96462,-7.87096c4.49333,1.01457 3.46913,1.28698 9.49873,2.20727c3.90387,0.59585 11.24099,-0.56016 14.934,0.83875c7.94077,3.00795 7.97598,16.8425 7.97598,16.8425z" data-paper-data="{&quot;origPos&quot;:null}" fill="url(#color-4)"/></g><g><path d="M265.29716,178.94093c-7.11438,26.51434 -6.96501,39.00103 -36.32473,30.44279c-6.66335,-1.97827 -10.69436,-2.21962 -13.00105,-5.97363c-2.80266,-4.56114 -0.82426,-10.11279 -0.03545,-16.46508c0.49304,-3.97045 -0.82704,-8.88375 0.08828,-12.1205c3.88911,-13.75273 6.22829,-25.25049 16.41648,-31.83091c7.59051,-4.9026 12.96953,-0.09529 20.41976,2.00364c13.77677,3.88128 19.41042,7.95373 12.43672,33.94371z" fill="url(#color-5)" stroke="none" stroke-width="0" stroke-linecap="butt"/><path d="M265.73562,178.25631c0,0 -16.34734,-1.91168 -27.51521,-4.51919c-10.24363,-2.39174 -19.11941,-9.96589 -19.11941,-9.96589c0,0 3.97201,-17.46234 13.095,-22.11744c5.9689,-3.04569 11.6946,-2.98073 18.59334,-1.28075c6.89873,1.69999 13.51292,6.68812 15.86957,11.49112c5.56664,11.34524 -0.92328,26.39216 -0.92328,26.39216z" fill="#ff5e15" stroke="none" stroke-width="0" stroke-linecap="butt"/><path d="M256.88513,148.15279c0,0 1.46673,9.05296 1.28372,14.7039c-0.18301,5.65094 -4.00111,20.99949 -4.00111,20.99949" data-paper-data="{&quot;origRot&quot;:0}" fill="none" stroke="url(#color-6)" stroke-width="10" stroke-linecap="round"/><path d="M237.5394,145.03016c0,0 0.20594,7.97786 -0.05903,13.00689c-0.26497,5.02903 -4.05089,20.30284 -4.05089,20.30284" fill="none" stroke="url(#color-7)" stroke-width="10" stroke-linecap="round"/><path d="M254.35743,187.00282l-1.16462,-3.93886l-3.7992,-2.65592l4.44046,-0.87097l2.55836,-3.57999l0.82046,4.29241l3.57881,2.18013l-4.0026,1.3061z" data-paper-data="{&quot;origRot&quot;:0,&quot;index&quot;:null}" fill="#ffe84f" stroke="none" stroke-width="NaN" stroke-linecap="butt"/><path d="M231.65204,181.901l-0.70529,-4.04639l-3.4696,-3.07404l4.51104,-0.35607l2.95198,-3.26306l0.32287,4.35819l3.30523,2.57611l-4.12596,0.83854z" data-paper-data="{&quot;origRot&quot;:0,&quot;index&quot;:null}" fill="#ffe84f" stroke="none" stroke-width="NaN" stroke-linecap="butt"/></g><g stroke="none" stroke-linecap="butt"><g data-paper-data="{&quot;origPos&quot;:null}" stroke-width="0"><path d="M210.94442,192.57373l-17.12936,-6.96747l10.07375,-14.81851c0,0 3.57323,-8.79675 4.4622,-11.08423c1.9621,-5.04886 5.82332,-10.05355 9.71625,-13.16799c3.1028,-2.48231 12.90241,1.30868 11.89164,6.10411c-0.41039,1.94699 -1.14485,4.21486 -2.16303,6.83484l-10.36324,17.14945z" data-paper-data="{&quot;origRot&quot;:0,&quot;origPos&quot;:null}" fill="#ff5e15"/><g data-paper-data="{&quot;origPos&quot;:null}" fill="#ffffff"><path d="M212.9014,212.08732c-2.89742,10.72969 -25.13222,6.80934 -25.13222,6.80934c0,0 -4.54745,-4.66484 -7.10604,-9.54165c-2.62059,-4.99502 -2.35384,-10.14203 -1.08078,-13.54448c3.46814,-9.26914 14.30223,-5.04601 22.88841,-1.24763c8.5862,3.79838 13.13602,7.50575 10.43062,17.52442z" data-paper-data="{&quot;origRot&quot;:0,&quot;origPos&quot;:null}"/><path d="M215.79759,197.27894c-2.56689,6.34898 -3.53929,3.29123 -16.02155,-1.8467c-10.95719,-4.51018 -12.83323,-4.93119 -10.77799,-10.82375c1.83718,-5.26736 8.83466,-0.63773 15.46756,2.28611c6.63289,2.92384 12.83088,6.67698 11.33198,10.38434z" data-paper-data="{&quot;origRot&quot;:0,&quot;origPos&quot;:null}"/></g></g><path d="M190.95212,205.80321l-4.29715,-6.511l7.70413,0.96713l6.14115,-5.27756l-0.42007,8.14218l5.43397,6.38516l-8.57256,-0.53143l-6.23231,4.36789z" data-paper-data="{&quot;origRot&quot;:0}" fill="#6f18b4" stroke-width="NaN"/></g><g><path d="M240.72149,150.60932l-1.64773,-11.04443c0,0 -2.60409,-4.52576 2.39488,-5.27156c0.19358,-0.02888 27.79775,-1.87586 27.79775,-1.87586l0.59295,11.31707z" fill="url(#color-8)" stroke="none" stroke-width="0" stroke-linecap="butt"/><g><path d="M268.13314,67.59739c3.882,14.62924 1.09307,15.7643 -6.4166,21.3292c-10.9422,8.10853 -26.25591,8.78067 -38.14749,15.41921c-3.12241,1.7431 -11.84452,-1.39773 -15.40253,-1.03938c-7.27716,0.73293 -11.90712,-4.05446 -12.83176,-10.219c-2.03953,-13.59757 4.68358,-14.32822 11.96074,-15.06115c0,0 8.14244,0.52082 11.33673,4.49112c0,0 9.31556,-19.24939 20.83447,-22.67171c14.82807,-4.40549 25.87865,-2.75402 28.66644,7.7517z" fill="#ff5e15" stroke="none" stroke-width="0" stroke-linecap="butt"/><path d="M233.69346,148.34835c-1.56618,1.11887 -3.36451,1.83638 -5.3167,2.03299c-7.18936,0.72408 -13.74279,-5.89056 -14.63752,-14.77422c-0.28408,-2.82065 0.03646,-5.53091 0.83644,-7.93969c1.71956,-5.1777 23.31943,17.67929 19.11778,20.68092z" fill="#e7be7a" stroke="none" stroke-width="0" stroke-linecap="butt"/><path d="M284.87636,93.07317c-0.06147,1.27332 -1.29371,2.77708 -3.23717,4.25021c-3.90391,2.95915 -10.67764,5.79474 -16.59634,6.39085c-7.14356,0.71947 -6.04971,-6.17979 -6.41498,-9.80652c-0.36527,-3.62673 13.71388,-4.24563 20.85744,-4.9651c7.14356,-0.71947 5.51077,1.65072 5.39106,4.13056z" fill="#b7430f" stroke="none" stroke-width="0" stroke-linecap="butt"/><g data-paper-data="{&quot;index&quot;:null}" fill="none" stroke="none" stroke-width="1" stroke-linecap="butt" font-family="sans-serif" font-weight="normal" font-size="12" text-anchor="start"/><g fill="none" stroke="none" stroke-width="1" stroke-linecap="butt" font-family="sans-serif" font-weight="normal" font-size="12" text-anchor="start"/><path d="M212.3055,101.66143c5.70006,0.82008 7.34556,3.07941 7.34556,3.07941l23.37815,-7.37985l21.47123,-2.36351c0,0 1.16709,10.53014 2.03139,16.17787c0.19571,1.27889 0.90116,0.8246 1.91399,1.96274c1.01285,1.13814 1.91972,2.59147 2.28116,2.66312c5.09401,1.00991 6.1961,3.03703 6.38866,4.66029c0.75434,6.35857 -5.30699,9.17801 -5.30699,9.17801l-29.31071,4.35914l-3.04217,3.7236l0.72436,11.18371c0,0 3.15934,-2.01475 5.80163,-2.51266c5.29324,-0.99747 23.98581,-3.10056 23.98581,-3.10056c0,0 0.56723,4.83244 -3.39865,6.17164c-4.79616,1.61956 -27.92284,4.23497 -33.7902,1.79512c-3.14414,-1.30745 -4.69713,-2.03816 -6.75399,-5.25144c-1.35469,-2.11632 -0.40051,-2.99078 -1.44085,-5.35106c-0.85955,-1.95011 -3.16251,-3.79796 -4.22554,-5.69341c-1.56981,-2.79907 -1.84176,-5.52399 -2.04306,-5.56476c-1.01744,-0.206 -3.89043,-0.11087 -4.80893,-0.44421c-4.43601,-1.60988 -9.01944,-6.58102 -11.96878,-10.79037c-3.24265,-4.62797 -4.67024,-8.67571 -5.4894,-14.26239c-0.10108,-0.68933 10.32333,-2.39484 16.25732,-2.24041z" fill="#ffdebd" stroke="#000000" stroke-width="0" stroke-linecap="round"/><path d="M253.67114,110.23977c0.25283,5.55813 -1.21938,6.40117 -7.07187,6.89761c-4.09972,0.34776 -7.17287,-2.00362 -7.75283,-5.40452c-0.90878,-5.32919 2.69263,-6.54955 6.78636,-6.96186c4.09373,-0.4123 7.78315,-0.14142 8.03834,5.46877z" fill="#ffffff" stroke="none" stroke-width="0" stroke-linecap="butt"/><path d="M265.62742,104.27806c0.22829,2.49168 0.78048,6.06637 -2.85341,6.30051c-4.05664,0.26138 -4.63978,0.05932 -6.737,-3.63009c-3.56286,-5.82277 2.55037,-6.18885 4.04101,-6.51482c3.70373,-0.8099 5.32111,1.35273 5.54941,3.8444z" data-paper-data="{&quot;index&quot;:null}" fill="#ffffff" stroke="none" stroke-width="0" stroke-linecap="butt"/><path d="M243.069,116.59743c0,0 -4.62339,0.63734 -4.77532,-6.72459c-0.09847,-4.77166 6.02481,-4.74882 6.02481,-4.74882" fill="none" stroke="#18c6ff" stroke-width="2" stroke-linecap="round"/><path d="M259.14378,100.78376c0,0 4.12687,-1.1449 5.65507,1.00506c2.86013,4.02372 0.6426,7.48367 0.6426,7.48367" fill="none" stroke="#18c6ff" stroke-width="2" stroke-linecap="round"/><path d="M249.02649,105.89034c0.63047,-0.0635 1.2268,0.13445 1.68204,0.50603c0.45522,0.37065 0.76844,0.91502 0.83183,1.54442c0.06339,0.62941 -0.135,1.22532 -0.50715,1.67928c-0.37199,0.45489 -0.91688,0.76778 -1.54735,0.83128c-0.63039,0.06349 -1.22674,-0.13446 -1.68204,-0.50603c-0.45513,-0.37066 -0.76837,-0.91504 -0.83176,-1.54443c-0.06339,-0.62941 0.135,-1.22531 0.50708,-1.67927c0.37208,-0.4549 0.91696,-0.76779 1.54735,-0.83128z" data-paper-data="{&quot;index&quot;:null}" fill="#000000" stroke="none" stroke-width="1.05702" stroke-linecap="butt"/><path d="M260.67898,102.59211c0.54566,-0.05496 1.06176,0.11636 1.45578,0.43797c0.39399,0.32078 0.66508,0.79194 0.71994,1.33667c0.05487,0.54475 -0.11683,1.06048 -0.43894,1.45338c-0.32195,0.39371 -0.79353,0.66452 -1.3392,0.71948c-0.54561,0.05495 -1.06174,-0.11637 -1.4558,-0.43798c-0.3939,-0.32079 -0.66503,-0.79193 -0.71989,-1.33667c-0.05487,-0.54475 0.11683,-1.06049 0.43889,-1.45339c0.32203,-0.39372 0.7936,-0.66452 1.33922,-0.71947z" data-paper-data="{&quot;index&quot;:null}" fill="#000000" stroke="none" stroke-width="1.05702" stroke-linecap="butt"/><path d="M228.68408,116.01087c-0.55378,0.92553 -2.10864,-0.08712 -3.71092,-2.17997c-0.47127,-0.61556 -1.17392,-1.7612 -1.93243,-3.07445c-0.71821,-0.21106 -1.95795,-0.79183 -2.65962,-2.2364c-0.99362,-2.0456 -0.87009,-4.05717 -0.87009,-4.05717l6.49244,-3.42541c0,0 0.8524,3.86767 1.66564,7.68074c0.70894,3.32401 1.42793,6.60252 1.01499,7.29267z" fill="#e7be7a" stroke="#000000" stroke-width="0" stroke-linecap="round"/><path d="M233.50852,137.30126c-0.65118,-0.34979 3.14835,-3.66728 3.14835,-3.66728c0,0 4.61052,-1.05692 6.99003,-2.32687c2.91682,-1.55671 4.67833,-3.31889 8.47849,-3.75383c3.278,-0.37518 22.60386,-0.09895 22.60386,-0.09895c0,0 1.36422,4.40364 -1.33976,4.99272c-2.98601,0.65052 -6.4097,1.19937 -10.25219,1.41878c-3.4569,0.19741 -7.33905,-0.09452 -10.33753,0.32092c-5.62458,0.77927 -9.03471,2.09805 -12.44413,2.75818c-3.0816,0.59666 -6.41464,0.58864 -6.84711,0.35632z" fill="#e7be7a" stroke="#000000" stroke-width="0" stroke-linecap="round"/><path d="M202.46494,108.81713c14.65159,-2.36798 20.1363,17.75827 8.60033,13.87468" fill="none" stroke="#f6b09a" stroke-width="3.5" stroke-linecap="round"/><path d="M215.55576,117.38175c-2.16103,1.03278 -7.67817,0.27079 -7.67817,0.27079" fill="none" stroke="#f6b09a" stroke-width="3" stroke-linecap="round"/><path d="M266.10807,76.36985c0.54791,5.4401 -0.49569,9.67956 -11.14652,11.07272c-11.24386,1.47073 -12.58275,-3.18752 -13.13066,-8.62762c-0.54791,-5.4401 4.44256,-10.39752 11.14652,-11.07272c6.70395,-0.6752 12.58275,3.18752 13.13066,8.62762z" fill="#ffffff" stroke="none" stroke-width="0" stroke-linecap="butt"/><path d="M285.06391,90.94366c-0.05731,0.4435 -10.13916,1.37506 -21.29446,4.20027c-5.4635,1.3837 -10.80974,1.95304 -14.17498,4.94706c-3.87219,3.44507 -30.16894,5.18777 -30.06679,4.39725c0.41759,-3.23161 2.33548,-8.43054 7.23908,-10.58781c5.92575,-2.60694 26.41817,-10.07812 42.16983,-11.42169c6.43919,-0.54924 16.54492,5.23329 16.12733,8.4649z" fill="url(#color-9)" stroke="none" stroke-width="0" stroke-linecap="butt"/><path d="M258.65365,72.18751c0.82527,1.55095 -3.27652,6.0782 -4.10871,7.28844c-0.14382,0.20917 -0.6405,0.34666 -0.51522,0.56516c0.25933,0.45232 9.58923,-2.38299 5.87169,2.0245c-1.17206,1.3896 -8.33134,1.7906 -9.27979,-0.50251c-1.29092,-3.12116 4.85681,-6.08868 4.34489,-8.00194c-0.10683,-0.39931 -2.83624,1.01483 -4.35037,1.78231c-0.2399,0.24788 -0.56919,0.41655 -0.94433,0.45433c-0.82426,0.08302 -1.55767,-0.49727 -1.63813,-1.2961c-0.01873,-0.18599 -0.00041,-0.36742 0.04911,-0.53739c0.74379,-2.90266 9.02833,-4.67572 10.57085,-1.7768z" fill="#6f18b4" stroke="none" stroke-width="0.5" stroke-linecap="butt"/><g fill="#f991fd" stroke="none" stroke-width="0" stroke-linecap="butt"><path d="M277.23394,120.15041c-0.08312,4.06476 1.99558,8.78744 -12.04898,9.95569c-5.43311,0.45192 -16.5856,0.69704 -16.93307,-3.78391c-0.25233,-3.25421 3.41195,-3.32204 3.26182,-4.81264c-0.57631,-5.72215 2.38897,-9.46077 8.78157,-10.61165c3.21979,-1.06306 17.12079,3.23742 16.93866,9.2525z" data-paper-data="{&quot;origPos&quot;:null}"/></g><path d="M265.24625,95.8784c0,0 -3.17385,0.60128 -4.83147,1.58816c-2.27841,1.35649 -7.57904,5.80063 -7.57904,5.80063c0,0 -4.21205,-0.89561 -6.76519,-1.28044c-1.90413,-0.287 -7.18593,-0.82237 -7.18593,-0.82237" fill="none" stroke="#000000" stroke-width="3" stroke-linecap="round"/></g></g></g></g></svg>