<svg version="1.1" xmlns="http://www.w3.org/2000/svg" xmlns:xlink="http://www.w3.org/1999/xlink" width="495.98755" height="365.00001" viewBox="0,0,495.98755,365.00001"><g transform="translate(7.5,3)"><g data-paper-data="{&quot;isPaintingLayer&quot;:true}" fill-rule="nonzero" stroke-linejoin="miter" stroke-miterlimit="10" stroke-dasharray="" stroke-dashoffset="0" style="mix-blend-mode: normal"><path d="M-3.22383,0.3835h487.59821l0.5,361h-487.59821z" data-paper-data="{&quot;origPos&quot;:null}" fill="#3e6967" stroke="none" stroke-width="1" stroke-linecap="butt"/><path d="M-3.88021,29.3835h486.82456v31h-486.82456z" data-paper-data="{&quot;origPos&quot;:null}" fill="#005454" stroke="none" stroke-width="1.04034" stroke-linecap="butt"/><path d="M-5.39462,112.8835h491.82456v31h-491.82456z" data-paper-data="{&quot;origPos&quot;:null}" fill="#005454" stroke="none" stroke-width="1.04034" stroke-linecap="butt"/><path d="M-5.30821,196.38353h486.82456v31h-486.82456z" data-paper-data="{&quot;origPos&quot;:null}" fill="#005454" stroke="none" stroke-width="1.04034" stroke-linecap="butt"/><path d="M-5.33701,280.88347h493.82456v31h-493.82456z" data-paper-data="{&quot;origPos&quot;:null}" fill="#005454" stroke="none" stroke-width="1.04034" stroke-linecap="butt"/><path d="M-2.77366,71.79252v-9.34991h487.02482v9.34991z" fill="#692c2c" stroke="none" stroke-width="0" stroke-linecap="butt"/><path d="M-5.07687,184.67501v-9.34991h489.52482v9.34991z" fill="#692c2c" stroke="none" stroke-width="0" stroke-linecap="butt"/><path d="M-5.41483,295.00388v-9.34991h491.02482v9.34991z" fill="#692c2c" stroke="none" stroke-width="0" stroke-linecap="butt"/><path d="M-5.19799,186.20438v-2.72196h489.28522v2.72196z" fill="#531b1b" stroke="#344853" stroke-width="0" stroke-linecap="butt"/><path d="M-3.82517,73.243v-2.72196h488.78522v2.72196z" fill="#531b1b" stroke="#344853" stroke-width="0" stroke-linecap="butt"/><path d="M-5.47995,296.44377v-2.72196h488.78522v2.72196z" fill="#531b1b" stroke="#344853" stroke-width="0" stroke-linecap="butt"/><path d="M215.46567,6.3835h41.96227v351.60995h-41.96226z" data-paper-data="{&quot;origPos&quot;:null}" fill="#003c54" stroke="none" stroke-width="1" stroke-linecap="butt"/><path d="M80.09308,351.97812v-345.51837h41.5099v345.51838z" fill="#39272b" stroke="none" stroke-width="0" stroke-linecap="butt"/><path d="M365.26535,355.47812v-349.51837h41.50989v349.51838z" fill="#39272b" stroke="none" stroke-width="0" stroke-linecap="butt"/><path d="M66.43491,151.71675l0.53361,-21.38745l18.40958,-20.16064l24.70819,-0.53361l21.37559,22.14486l-0.66291,20.73681l-20.41473,17.8334l-24.2793,0.04301z" fill="#326168" stroke="#344853" stroke-width="5" stroke-linecap="butt"/><path d="M355.64321,149.67528l0.53361,-21.38745l18.40958,-20.16064l24.7082,-0.53361l21.37559,22.14486l-0.66291,20.73682l-20.41473,17.8334l-24.2793,0.04301z" fill="#326168" stroke="#344853" stroke-width="5" stroke-linecap="butt"/><path d="M-4.5,362.00001v-18h490v18z" fill="#1c2630" stroke="none" stroke-width="0" stroke-linecap="butt"/><path d="M-7.5,15v-18h490v18z" fill="#1c2630" stroke="none" stroke-width="0" stroke-linecap="butt"/><g data-paper-data="{&quot;index&quot;:null}" fill="none" stroke="#c9c9c9" stroke-width="2" stroke-linecap="round"><path d="M294.11586,149.9594l16.50342,53.37108l-12.50342,-19.87108l-3.5,-1.5l-4,1.5l0.5,-33l5,-1v-11l50,-0.5"/><path d="M311.11928,232.83047l-0.5,-29l4.5,-5.5h4l6.5,1l-29.00342,-49.37108l42.00342,41.87108l-5.5,-0.5l-5.5,1l-2.5,6.5"/><path d="M297.61586,146.4594l42,14.5l3.00342,19.37108l-2.5,4v8"/><path d="M297.11586,141.9594l46.5,7.5l-4,4.5v7"/><path d="M324.11586,139.4594l2,7l-4,3.5v6l-5,3l4.00342,21.37108h-4l-2.5,3.5h-5.5l-10.50342,-14.87108l-4,-0.5l-3,1"/><path d="M343.11586,148.9594l-0.5,-3l1,-6"/><path d="M309.11586,137.9594v7l-3,5l-3,3l-4,1.5l-5,3l-2.5,2.5"/></g></g></g></svg>