<svg version="1.1" xmlns="http://www.w3.org/2000/svg" xmlns:xlink="http://www.w3.org/1999/xlink" width="150.08234" height="192.01678" viewBox="0,0,150.08234,192.01678"><g transform="translate(-164.70884,-83.83772)"><g data-paper-data="{&quot;isPaintingLayer&quot;:true}" fill-rule="nonzero" stroke-linejoin="miter" stroke-miterlimit="10" stroke-dasharray="" stroke-dashoffset="0" style="mix-blend-mode: normal"><g data-paper-data="{&quot;origPos&quot;:null,&quot;index&quot;:null,&quot;origRot&quot;:0}" stroke="none" stroke-width="0" stroke-linecap="butt"><path d="M251.8632,194.58571c-2.55922,-4.65913 3.25059,-13.50993 11.78225,-18.1963c8.53166,-4.68636 17.34144,-7.86697 17.34144,-7.86697l7.84044,13.89355c0,0 -12.44468,8.9611 -19.30678,12.73039c-8.53165,4.68636 -15.09813,4.09845 -17.65736,-0.56067z" data-paper-data="{&quot;origRot&quot;:0,&quot;origPos&quot;:null}" fill="#64ca00"/><g data-paper-data="{&quot;origPos&quot;:null}" fill="#ffffff"><path d="M289.68704,173.75458c-4.89254,-8.01333 -10.50122,-18.19935 -1.7675,-22.85416c6.33598,-3.37688 20.06242,-0.1403 23.04805,8.76119c3.25799,9.71355 7.71794,17.85233 -2.53859,22.13307c-9.57689,3.99706 -13.84941,-0.02677 -18.74195,-8.0401z" data-paper-data="{&quot;origRot&quot;:0,&quot;origPos&quot;:null}"/><path d="M282.34691,176.73867c-3.76918,-6.19171 -9.27724,-12.52097 -4.2966,-15.03365c5.5718,-2.81092 6.23541,-1.00637 12.14482,9.264c6.73191,11.69987 9.89083,12.26248 3.93373,15.64052c-3.47854,1.97255 -8.01274,-3.67917 -11.78195,-9.87089z" data-paper-data="{&quot;origRot&quot;:0,&quot;origPos&quot;:null}"/></g></g><g data-paper-data="{&quot;origPos&quot;:null,&quot;origRot&quot;:0}" stroke="none" stroke-width="0" stroke-linecap="butt"><path d="M271.07516,241.11689c2.82576,3.59074 8.07664,2.0891 8.5341,3.02031c1.85088,3.76768 1.91726,7.29133 -2.58812,12.83826c-5.58091,6.87111 -11.38173,10.25096 -20.20467,10.9682c-6.00919,0.4885 -3.78307,-4.29628 -5.4376,-10.09383c-0.59368,-2.08032 -1.69943,-4.57012 -4.40018,-9.28823c-3.37665,-5.89888 -7.47854,-18.08168 -7.47854,-18.08168c0,0 3.89846,-3.72764 8.16085,-6.8162c4.24798,-3.01016 9.71561,-4.23906 9.71561,-4.23906c0,0 7.16645,13.39181 13.69854,21.69224z" data-paper-data="{&quot;origPos&quot;:null}" fill="#2a2a84"/><path d="M289.69248,255.16866c2.23971,3.19093 0.04792,6.97344 -2.43451,9.97941c-1.62685,1.96994 -11.60642,8.54742 -18.45379,9.1112c-2.12581,0.17502 -4.75521,-0.96933 -4.75521,-0.96933c0,0 -3.68624,3.51529 -4.5113,2.31464c-0.65495,-0.9531 -1.81006,-2.54814 -1.23769,-3.68308c2.46373,-4.88538 11.8184,-11.44387 16.29679,-14.58724c6.14783,-4.31515 12.9064,-5.28471 15.0957,-2.16559z" data-paper-data="{&quot;origPos&quot;:null}" fill="#dbbb7b"/><path d="M288.42151,250.07771c1.5031,4.52009 -0.36119,9.81366 -7.3114,14.69199c-6.95021,4.87833 -17.2146,6.06579 -17.2146,6.06579c0,0 -4.84575,3.79661 -5.85366,2.57711c-2.08612,-2.52405 -5.19427,-6.84996 -4.28301,-7.70234c3.36412,-3.14675 3.01394,-2.14646 7.16334,-6.61698c2.68653,-2.89444 5.85315,-9.61323 9.08549,-11.88199c6.95021,-4.87833 15.93897,-4.57599 18.41385,2.86642z" data-paper-data="{&quot;origPos&quot;:null}" fill="#875630"/></g><g data-paper-data="{&quot;origRot&quot;:0}" stroke="none" stroke-width="0" stroke-linecap="butt"><path d="M227.58476,248.38836c-1.56146,4.2942 2.48283,7.96442 1.93272,8.84407c-2.22576,3.55909 -5.18496,5.47317 -12.27365,4.56911c-8.78092,-1.11987 -14.71112,-4.26719 -19.97205,-11.38626c-3.58315,-4.84872 1.65628,-5.47963 5.71042,-9.94202c1.45474,-1.60122 2.98748,-3.85344 5.57281,-8.63578c3.23234,-5.97917 12.20996,-15.82296 12.20996,-15.82296c0,0 6.99764,2.92065 11.2467,5.73583c3.35331,2.2217 8.23338,7.17053 8.23338,7.17053c0,0 -9.05081,9.54089 -12.66029,19.46746z" data-paper-data="{&quot;origPos&quot;:null}" fill="#2a2a84"/><path d="M225.45949,271.61636c-1.53069,3.58543 -5.90035,3.71712 -9.76336,3.19247c-2.53162,-0.34385 -13.382,-5.35624 -17.47101,-10.87749c-1.26946,-1.71412 -1.68328,-4.55173 -1.68328,-4.55173c0,0 -4.93048,-1.27908 -4.34521,-2.61315c0.46459,-1.05901 1.21099,-2.88146 2.47715,-2.99344c5.45018,-0.48205 15.955,4.00936 20.98706,6.15765c6.9079,2.94912 11.29491,8.18098 9.79866,11.68573z" data-paper-data="{&quot;origPos&quot;:null}" fill="#dbbb7b"/><path d="M229.11541,267.85241c-3.04847,3.66023 -8.52948,4.86686 -16.33895,1.53286c-7.80947,-3.33401 -14.2299,-11.43005 -14.2299,-11.43005c0,0 -5.78082,-2.11604 -5.27593,-3.61544c1.04498,-3.10334 3.08224,-8.02508 4.28697,-7.70013c4.44749,1.19966 3.41289,1.42945 9.39924,2.59851c3.87587,0.7569 11.25453,-0.09446 14.88649,1.45609c7.80948,3.334 12.29145,11.13151 7.2721,17.15817z" data-paper-data="{&quot;origPos&quot;:null}" fill="#875630"/></g><g data-paper-data="{&quot;origPos&quot;:null}"><path d="M263.15172,200.52733c0.33542,23.36797 -11.23027,30.01902 -24.2383,30.01902c-13.00803,0 -23.7244,-11.0783 -23.7244,-22.29354c0,-12.16666 1.12928,-21.85193 8.41177,-29.59575c5.42567,-5.76938 13.24571,-3.072 20.2802,-3.072c13.00803,0 18.94195,2.03645 19.27073,24.94228z" data-paper-data="{&quot;origPos&quot;:null}" fill="#2a2a84" stroke="none" stroke-width="0" stroke-linecap="butt"/><path d="M263.15172,199.86515c0,0 -14.76896,2.20728 -25.18042,2.64874c-9.54981,0.40491 -19.18508,-3.75238 -19.18508,-3.75238c0,0 -0.84489,-15.22543 5.98217,-21.14578c4.46675,-3.8735 9.49009,-5.14202 15.94364,-5.3416c6.45355,-0.19958 13.47144,2.36082 16.7202,5.75234c7.67393,8.01117 5.7195,21.83867 5.7195,21.83867z" data-paper-data="{&quot;origPos&quot;:null}" fill="#64ca00" stroke="none" stroke-width="0" stroke-linecap="butt"/><path d="M251.25339,176.56874c0,0 1.83311,7.54921 2.20291,12.08838c0.47498,5.83023 -0.49673,16.78467 -0.49673,16.78467" data-paper-data="{&quot;origPos&quot;:null,&quot;origRot&quot;:0}" fill="none" stroke="#2a2a84" stroke-width="10" stroke-linecap="round"/><path d="M232.83244,177.13015c0,0 1.06191,7.79088 0.97412,12.35359c-0.11275,5.86046 -2.17318,16.56179 -2.17318,16.56179" data-paper-data="{&quot;origPos&quot;:null}" fill="none" stroke="#2a2a84" stroke-width="10" stroke-linecap="round"/><path d="M228.72135,203.94862c0,-2.49904 1.89876,-4.52493 4.24102,-4.52493c2.34224,0 4.24103,2.02589 4.24103,4.52493c0,2.49904 -1.89877,4.52492 -4.24103,4.52492c-2.34224,0 -4.24102,-2.02587 -4.24102,-4.52492z" data-paper-data="{&quot;origPos&quot;:null}" fill="#ffe84f" stroke="none" stroke-width="0" stroke-linecap="butt"/><path d="M249.08661,203.94862c0,-2.49904 1.83345,-4.52493 4.09513,-4.52493c2.26167,0 4.09513,2.02589 4.09513,4.52493c0,2.49904 -1.83346,4.52492 -4.09513,4.52492c-2.26167,0 -4.09513,-2.02587 -4.09513,-4.52492z" data-paper-data="{&quot;origPos&quot;:null}" fill="#ffe84f" stroke="none" stroke-width="0" stroke-linecap="butt"/></g><g data-paper-data="{&quot;origPos&quot;:null,&quot;origRot&quot;:0}" stroke="none" stroke-width="0" stroke-linecap="butt"><path d="M209.69592,190.41367c-6.81259,-3.85808 -19.13986,-12.97998 -19.13986,-12.97998l8.02016,-13.79059c0,0 8.76776,3.2947 17.23784,8.09145c8.47009,4.79675 14.16451,13.72224 11.545,18.34775c-2.6195,4.62551 -9.19307,5.12812 -17.66316,0.33137z" data-paper-data="{&quot;origRot&quot;:0,&quot;origPos&quot;:null}" fill="#64ca00"/><g data-paper-data="{&quot;origPos&quot;:null}" fill="#ffffff"><path d="M170.96414,176.55793c-10.20011,-4.41353 -5.63485,-12.49372 -2.25101,-22.16416c3.10094,-8.86197 16.86824,-11.92007 23.15985,-8.46121c8.67255,4.76781 2.93209,14.88015 -2.06409,22.82927c-4.99617,7.94913 -9.32057,11.91716 -18.84475,7.79609z" data-paper-data="{&quot;origRot&quot;:0,&quot;origPos&quot;:null}"/><path d="M185.20053,181.55808c-5.91276,-3.45512 -2.74678,-3.97667 4.13646,-15.58814c6.04225,-10.19279 6.72924,-11.98856 12.26408,-9.10554c4.94759,2.57713 -0.64218,8.83434 -4.49143,14.9766c-3.84925,6.14226 -8.45648,11.73463 -11.90911,9.71708z" data-paper-data="{&quot;origRot&quot;:0,&quot;origPos&quot;:null}"/></g></g><path d="M285.44273,122.52663c-0.56793,3.79329 -11.88998,8.6 -20.8,8.6c-7.1797,0 -5.4,-6.75492 -5.4,-10.4c0,-3.64508 14.0703,-2.85 21.25,-2.85c7.1797,0 5.31761,2.19464 4.95,4.65z" data-paper-data="{&quot;origPos&quot;:null}" fill="#4c9406" stroke="none" stroke-width="0" stroke-linecap="butt"/><path d="M213.78617,166.46079c0,0 -1.43328,1.49318 -3.02061,-0.25186c-1.58733,-1.74503 -2.7373,-5.78038 -0.43955,-7.70754c2.74834,-2.30507 2.0354,-10.05796 3.62273,-8.31293c0,0 6.09713,1.30328 6.56768,4.99451c0,0 2.57164,10.65963 1.51783,12.36463c0,0 -1.50199,1.68613 -5.41789,1.40611c-2.12169,-0.15171 -2.83019,-2.49293 -2.83019,-2.49293z" data-paper-data="{&quot;origRot&quot;:0,&quot;origPos&quot;:null}" fill="#5a2c0a" stroke="none" stroke-width="0" stroke-linecap="butt"/><path d="M217.02606,124.80996c4.31396,1.0071 37.24301,-2.16822 43.0368,-1.8462c8.57182,0.47642 6.20204,8.21361 6.80713,16.77732c0.69572,9.84642 -1.61393,21.24135 -0.86702,28.05771c0.80112,7.31104 0.12903,11.14082 -5.73318,14.65359c-16.06613,0.95791 -13.23592,-2.66034 -20.62068,-5.08559c-6.25465,-2.30353 -10.69018,-4.16425 -17.4076,-9.83899c-5.09917,-4.30767 -3.89678,-7.87748 -7.07201,-12.68447c-0.97333,-1.47352 -2.12747,-2.25956 -2.322,-2.25956c-10.37042,0 -16.07143,-8.56649 -16.07143,-16.66666c0,-8.10018 3.70101,-14.66666 9.5,-14.66666c5.79899,0 9.25,3.20935 10.75,3.55952z" data-paper-data="{&quot;origPos&quot;:null}" fill="#ffdebd" stroke="none" stroke-width="0" stroke-linecap="butt"/><path d="M265.20939,130.01637c0.35235,4.88885 -1.81808,9.02906 -4.84779,9.24741c-3.02971,0.21836 -5.7714,-3.56782 -6.12375,-8.45666c-0.35235,-4.88885 1.81808,-9.02905 4.84779,-9.24741c3.02971,-0.21836 5.77141,3.56782 6.12376,8.45666z" data-paper-data="{&quot;origPos&quot;:null,&quot;origRot&quot;:0}" fill="#ffffff" stroke="none" stroke-width="0" stroke-linecap="butt"/><path d="M225.16708,133.01161c0.37817,4.87747 4.5707,8.31474 2.22476,9.45528c-1.19509,0.58103 -5.78023,0.14577 -7.57599,-1.65364c-1.79576,-1.79941 -2.52265,-4.04723 -2.52265,-8.46551c0,-4.41828 -0.01669,-8.69821 2.74286,-8.8c11.61857,-0.42857 4.78949,5.05882 5.13103,9.46387z" data-paper-data="{&quot;origPos&quot;:null}" fill="#5a2c0a" stroke="none" stroke-width="0" stroke-linecap="butt"/><path d="M252.18618,135.02108c0.57094,4.86816 -1.41189,9.10142 -4.42877,9.45524c-3.01689,0.35383 -5.92541,-3.30577 -6.49635,-8.17393c-0.57094,-4.86816 1.41189,-9.10142 4.42877,-9.45524c3.01689,-0.35383 5.92541,3.30577 6.49635,8.17393z" data-paper-data="{&quot;origPos&quot;:null,&quot;origRot&quot;:0}" fill="#ffffff" stroke="none" stroke-width="0" stroke-linecap="butt"/><path d="M271.33669,95.50128c2.39648,14.94461 -0.49216,15.79448 -8.52168,20.57884c-11.69967,6.97121 -27.00365,5.55994 -39.50062,10.97342c-3.28137,1.42143 -11.64483,-2.03217 -15.22084,-2.03217c-7.31398,0 -11.44089,-5.22725 -11.74313,-11.45342c-0.66666,-13.7335 6.09582,-13.78676 13.4098,-13.78676c0,0 8.04926,1.33414 10.82961,5.60456c0,0 11.19763,-18.21899 23.00151,-20.46979c15.1949,-2.89741 26.02436,-0.14688 27.74535,10.58532z" data-paper-data="{&quot;origPos&quot;:null}" fill="#64ca00" stroke="none" stroke-width="0" stroke-linecap="butt"/><path d="M268.44273,104.02663c0,5.46762 -1.46317,9.58116 -12.2,9.9c-11.33464,0.33659 -12.2,-4.43238 -12.2,-9.9c0,-5.46762 5.46212,-9.9 12.2,-9.9c6.73787,0 12.2,4.43238 12.2,9.9z" data-paper-data="{&quot;origPos&quot;:null}" fill="#ffffff" stroke="none" stroke-width="0" stroke-linecap="butt"/><path d="M285.84272,120.42663c-0.2,0.85848 -39.34284,6.5 -50.3,7.7c-5.32532,0.58322 -16.1,0.15848 -15.9,-0.7c0.73933,-3.1735 2.8049,-8.24498 7.9,-9.9c6.15716,-2 27.29511,-7.38005 43.10212,-7.1384c6.46182,0.09879 15.93721,6.8649 15.19788,10.0384z" data-paper-data="{&quot;origPos&quot;:null}" fill="#4c9406" stroke="none" stroke-width="0" stroke-linecap="butt"/><path d="M252.50939,110.24885l-2.17216,-12.32222l5.57052,-0.56162l-0.76906,9.48246l7.48212,-1.64078l-1.31649,3.70883z" data-paper-data="{&quot;origPos&quot;:null}" fill="#64ca00" stroke="none" stroke-width="0" stroke-linecap="butt"/><path d="M265.13507,165.85691c-0.3711,2.54836 -2.84488,3.0028 -4.29052,3.39481c-4.4121,1.19644 -8.123,0.45506 -16.03884,-2.49209c-2.56287,-0.95418 -4.78299,-16.3313 1.11608,-13.14669c0,0 11.95871,4.75634 17.93009,4.41624c0,0 9.6388,-4.51103 12.62642,-4.31325c1.48172,0.09809 1.49141,3.20314 1.02397,4.7714c0,0 0.15212,4.55777 -1.92128,5.69644c-2.98176,2.14359 -5.12499,1.21005 -5.23239,1.94755z" data-paper-data="{&quot;origPos&quot;:null}" fill="#38291e" stroke="none" stroke-width="0" stroke-linecap="butt"/><path d="M275.97362,147.66174c-0.5,6.61802 1.12741,11.125 -13.25,10.875c-6.62642,-0.11523 -13,-4.25698 -13,-10.125c0,-5.86802 6.3926,-13.11026 13,-13.625c9.62741,-0.75 14.04992,2.28715 13.25,12.875z" data-paper-data="{&quot;origPos&quot;:null}" fill="#ffdebd" stroke="none" stroke-width="0" stroke-linecap="butt"/><g data-paper-data="{&quot;origPos&quot;:null}" fill="none" stroke="#f6b09a" stroke-width="3.5" stroke-linecap="round"><path d="M203.15009,131.60488c0,0 2.96332,-1.72996 6.75499,1.19948c5.43788,4.2013 2.24501,11.37195 2.24501,11.37195" data-paper-data="{&quot;origPos&quot;:null}"/><path d="M205.86438,138.31917h6" data-paper-data="{&quot;origPos&quot;:null}"/><path d="M210.00723,144.31917h1.28571" data-paper-data="{&quot;origPos&quot;:null}"/></g><path d="M242.35473,122.13505c1.48116,-0.33713 3.4288,-3.8573 3.4288,-3.8573c0,0 7.0367,6.24722 -1.31021,10.85964c-2.74669,0.89641 -5.23353,-1.32955 -6.17104,-2.89895c-1.38075,-2.31138 -1.98889,-6.17305 -1.98889,-6.17305c0,0 2.11726,0.70199 3.38106,1.4742c1.22505,0.74853 1.2688,0.9488 2.66028,0.59547z" data-paper-data="{&quot;index&quot;:null}" fill="#38291e" stroke="none" stroke-width="0" stroke-linecap="butt"/><path d="M260.59007,118.97418c1.4272,-0.15528 1.39821,-0.35822 2.28438,-1.4877c0.91422,-1.16522 2.6526,-2.56292 2.6526,-2.56292c0,0 0.77988,3.83068 0.29404,6.47887c-0.32988,1.79808 -1.88191,4.75283 -4.76869,4.87291c-9.43257,-1.40428 -5.02304,-9.71686 -5.02304,-9.71686c0,0 3.05514,2.61747 4.5607,2.41567z" data-paper-data="{&quot;index&quot;:null,&quot;origRot&quot;:0}" fill="#38291e" stroke="none" stroke-width="0" stroke-linecap="butt"/><path d="M246.39837,135.41756c0,-0.90938 0.73718,-1.64657 1.64656,-1.64657c0.90938,0 1.64658,0.73719 1.64658,1.64657c0,0.90938 -0.73719,1.64657 -1.64658,1.64657c-0.90938,0 -1.64656,-0.73719 -1.64656,-1.64657z" fill="#000000" stroke="none" stroke-width="0.5" stroke-linecap="butt"/><path d="M257.45385,132.94148c0,-0.90939 0.73719,-1.64657 1.64657,-1.64657c0.90938,0 1.64657,0.73719 1.64657,1.64657c0,0.90938 -0.73718,1.64657 -1.64657,1.64657c-0.90938,0 -1.64657,-0.73719 -1.64657,-1.64657z" fill="#000000" stroke="none" stroke-width="0.5" stroke-linecap="butt"/></g></g></svg>