<svg version="1.1" xmlns="http://www.w3.org/2000/svg" xmlns:xlink="http://www.w3.org/1999/xlink" width="106.33751" height="158.96897" viewBox="0,0,106.33751,158.96897"><g transform="translate(-180.66375,-27.81589)"><g data-paper-data="{&quot;isPaintingLayer&quot;:true}" fill-rule="nonzero" stroke-linejoin="miter" stroke-miterlimit="10" stroke-dasharray="" stroke-dashoffset="0" style="mix-blend-mode: normal"><g data-paper-data="{&quot;index&quot;:null}" fill="#7100f3" stroke="none" stroke-width="0" stroke-linecap="butt"><path d="M243.0181,133.45867c-2.33655,-4.99282 -1.36957,-8.33931 2.2823,-12.49419c3.65186,-4.15488 13.64339,-0.80727 16.44876,1.9949c8.7188,8.70886 16.4443,20.7126 23.76569,29.46496c0.70539,0.84328 -5.95343,5.56479 -8.18735,7.97792c-0.99866,1.07878 -12.76313,-9.78544 -16.48728,-13.00691c-7.60066,-6.5748 -16.56745,-11.25567 -17.82211,-13.93669z"/><g><path d="M268.78601,174.99835c1.90778,-4.09943 2.48399,-8.38156 3.36955,-13.4881c0.83601,-4.82067 1.84827,-10.56806 7.78186,-11.28451c8.27462,-0.99913 7.12043,7.38316 6.86144,16.22587c-0.259,8.84273 -0.1874,19.49469 -4.23588,19.37612c-4.04847,-0.11857 -17.50949,-2.80883 -13.77698,-10.82937z"/></g></g><g><path d="M256.83772,124.17593c8.50257,8.27391 9.02101,26.28664 9.02101,39.28615c0,11.98295 -12.2451,17.61503 -27.43246,17.61503c-7.50431,0 -12.32869,0.569 -17.59301,-4.1945c-5.26432,-4.7635 -4.44097,-13.80676 -5.87254,-17.03865c-1.93728,-4.37355 -4.60811,-9.52169 -4.49417,-16.78503c0.65055,-9.14485 3.23908,-21.07034 18.42644,-21.07034c0,0 21.61005,-3.97694 27.94473,2.18738z" data-paper-data="{&quot;origPos&quot;:null,&quot;index&quot;:null}" fill="#372b45" stroke="none" stroke-width="0" stroke-linecap="butt"/><path d="M231.82643,117.97385c8.21303,0 17.92337,-2.15207 24.25805,4.01223c4.28819,4.17286 8.52142,19.74187 8.52142,19.74187c0,0 -18.41242,-2.00779 -23.28143,0.82556c-2.18311,1.27036 -8.77831,5.20586 -11.69852,6.30082c-1.53044,0.57381 -18.29035,1.20143 -16.83202,-12.81689c0.65055,-9.14485 3.84514,-18.06356 19.0325,-18.06356z" data-paper-data="{&quot;origPos&quot;:null,&quot;index&quot;:null}" fill="#7100f3" stroke="none" stroke-width="0" stroke-linecap="butt"/><path d="M226.68962,122.02506c0,0 5.21153,6.8291 6.86578,10.82548c1.92458,4.6494 5.60214,14.7661 5.60214,14.7661" data-paper-data="{&quot;origPos&quot;:null}" fill="none" stroke="#372b45" stroke-width="10.5" stroke-linecap="round"/><path d="M242.92649,147.2913c0,2.32393 -2.01092,4.43972 -4.07286,4.43972c-2.06193,0 -4.07284,-2.11581 -4.07284,-4.43972c0,-2.32393 2.01091,-4.43972 4.07284,-4.43972c2.06193,0 4.07286,2.1158 4.07286,4.43972z" fill="#ffea12" stroke="none" stroke-width="0" stroke-linecap="butt"/><path d="M249.57275,120.6457c0,0 3.80546,4.34927 5.46708,7.90654c1.66161,3.55728 6.14304,17.31602 6.14304,17.31602" data-paper-data="{&quot;origPos&quot;:null,&quot;origRot&quot;:0}" fill="none" stroke="#372b45" stroke-width="9.5" stroke-linecap="round"/><path d="M264.0425,143.96319c0,2.32393 -1.67154,4.08776 -3.73347,4.08776c-2.06194,0 -3.73347,-1.76384 -3.73347,-4.08776c0,-2.32393 1.67153,-4.08777 3.73347,-4.08777c2.06194,0 3.73347,1.76384 3.73347,4.08777z" data-paper-data="{&quot;origPos&quot;:null}" fill="#ffea12" stroke="none" stroke-width="0" stroke-linecap="butt"/></g><g fill="#7100f3" stroke="none" stroke-width="0" stroke-linecap="butt"><path d="M224.87913,134.7676c-1.27837,2.6698 -10.28627,7.27107 -17.94487,13.77829c-3.75254,3.18839 -15.61275,13.94797 -16.60183,12.86039c-2.21247,-2.43284 -8.82919,-7.21314 -8.11635,-8.05013c7.39862,-8.68717 15.23014,-20.62203 24.02574,-29.25331c2.83008,-2.77722 12.85087,-6.0362 16.46579,-1.84913c3.61491,4.18705 4.55219,7.54198 2.17152,12.51392z"/><g><path d="M198.74426,176.07744c3.66132,8.05329 -9.82301,10.62419 -13.87236,10.70693c-4.04936,0.08272 -3.88343,-10.5682 -4.06408,-19.41287c-0.18066,-8.84466 -1.26056,-17.23686 7.00489,-16.16447c5.92703,0.76898 6.88833,6.52512 7.68159,11.353c0.84031,5.11418 1.37859,9.40124 3.24996,13.51739z"/></g></g><g><path d="M275.53035,64.14232c-0.58227,3.51635 -12.19026,7.97216 -21.32529,7.97216c-7.36102,0 -5.53638,-6.26179 -5.53638,-9.64077c0,-3.379 14.42563,-2.64196 21.78665,-2.64196c7.361,0 5.4519,2.03444 5.075,4.31053z" data-paper-data="{&quot;index&quot;:null}" fill="#2d0757" stroke="none" stroke-width="0" stroke-linecap="butt"/><path d="M256.67656,87.66241c0.06269,-0.03773 0.12917,-0.07434 0.19963,-0.10957c1.86171,-0.93085 2.79254,0.93085 2.79254,0.93085l-0.09971,0.10353c0.25736,0.2526 0.39215,0.48846 0.39215,0.48846c2.48424,4.3474 2.84261,11.60854 2.00876,16.64337c-0.31584,1.90708 -2.99236,4.45429 -2.88205,5.86177c-0.83703,2.51108 -3.73641,3.27604 -6.14218,3.47633c-6.0388,0.50274 -12.31944,0.02833 -18.38122,0.02833c-1.32914,0 -4.00477,0.52387 -5.20357,0c-7.81144,-3.41346 -4.16285,-13.78745 -4.16285,-20.2939c0,-4.03384 2.19239,-6.78431 6.36628,-7.37834c5.75348,-0.81886 12.10542,-0.08009 17.91702,-0.08009c2.42833,0 4.85667,0 7.28498,0z" data-paper-data="{&quot;index&quot;:null}" fill="#ffffff" stroke="none" stroke-width="0.5" stroke-linecap="butt"/><path d="M256.71631,96.09336c1.29994,-0.04999 1.34992,1.24993 1.34992,1.24993l0.00097,0.39691c0,0.90333 0.03467,1.81116 0.0821,2.72241c0.50467,-0.25718 1.0059,-0.51464 1.50428,-0.76382l1.03056,-0.11406c0,0 1.2776,-0.24501 1.52263,1.03259c0.24501,1.2776 -1.03259,1.52263 -1.03259,1.52263l-0.35706,-0.11406c-0.82425,0.41213 -1.65904,0.84332 -2.50472,1.26108c0.02545,0.46323 0.04841,0.92705 0.06605,1.39133h0.03563v1.73452c0,0.16441 -0.03052,0.3217 -0.08618,0.46653c-0.12679,0.3732 -0.44018,0.83435 -1.21472,0.83435c-0.77456,0 -1.08794,-0.46118 -1.21473,-0.83435c-0.05566,-0.1448 -0.08618,-0.30213 -0.08618,-0.46653c0,-0.65382 -0.01739,-1.30574 -0.04438,-1.95603c-0.93631,0.38772 -1.88582,0.7224 -2.84899,0.9632c-0.9487,0.16632 -1.89116,0.32126 -2.83057,0.46403c0,1.10135 0,2.20268 0,3.30404v0.34689c0,0 0,1.30089 -1.30089,1.30089c-1.30089,0 -1.30089,-1.30089 -1.30089,-1.30089c0,-1.06933 0,-2.1716 0,-3.28653c-2.35382,0.3007 -4.70728,0.52023 -7.11154,0.64656c0,0.41746 0,0.83489 0,1.25234v1.0407c0,0 0,1.30089 -1.30089,1.30089c-1.30089,0 -1.30089,-1.30089 -1.30089,-1.30089c0,-0.67152 0,-1.41558 0,-2.19384c-0.71636,0.01702 -1.44017,0.07277 -2.16814,0.02566c-2.53155,-0.16383 -7.11664,-2.94883 -5.23267,-4.16781c0.99185,-0.84176 3.85611,1.64794 5.23267,1.56603c0.71998,-0.04284 1.44441,-0.00056 2.16814,-0.0046c0,-1.38387 0,-2.74744 0,-3.89807c0,0 0,-1.30089 1.30089,-1.30089c1.30089,0 1.30089,1.30089 1.30089,1.30089c0,1.28784 0,2.57564 0,3.86345c2.39721,-0.05518 4.78366,-0.18755 7.11154,-0.50458c0,-1.72647 0,-3.44892 0,-5.0934c0,0 0,-1.30089 1.30089,-1.30089c1.30089,0 1.30089,1.30089 1.30089,1.30089c0,1.55035 0,3.10069 0,4.65104c0.74184,-0.15356 1.47558,-0.33101 2.19955,-0.53607c1.13277,-0.2832 2.24074,-0.70948 3.3293,-1.19939c-0.07893,-1.32306 -0.15182,-2.64099 -0.15182,-3.95628l0.00097,-0.29689c0,0 -0.04999,-1.29994 1.24993,-1.34992z" data-paper-data="{&quot;index&quot;:null}" fill="#a5b5ff" stroke="none" stroke-width="0.5" stroke-linecap="butt"/><path d="M203.53171,89.37618l0.03536,-0.38021c0.11563,-0.21046 0.23125,-0.42091 0.34689,-0.63136c5.14423,-4.37884 9.2967,4.13623 11.46391,7.38504c0.72516,1.08706 1.56345,1.96229 2.11179,3.14883c1.72627,3.76218 10.75594,12.63905 2.47336,14.3461c-1.05173,0.21676 -2.02025,0.1932 -3.09074,0.1932c-0.61913,-0.21812 -1.29841,-0.32837 -1.85735,-0.65439c-0.47905,-0.27944 -3.54264,-2.54801 -4.61298,-3.16478c-0.44975,-0.25915 -6.14351,-5.5669 -6.41299,-6.54777c-1.23478,-4.53104 -0.55921,-8.67583 -0.55921,-13.22976c0,-0.14959 0.03052,-0.29274 0.08618,-0.42452c0.00497,-0.01334 0.01024,-0.02679 0.01582,-0.04034z" data-paper-data="{&quot;index&quot;:null}" fill="#8e4108" stroke="none" stroke-width="0.5" stroke-linecap="butt"/><path d="M261.66092,117.0194c0.18171,4.16069 1.56725,8.28276 -0.8728,11.38078c-1.05132,1.33482 -2.98395,2.70487 -3.6684,2.64316c-3.41745,0.01397 -7.763,0.59639 -10.97393,-0.72239c-2.31595,-0.95118 -7.16613,-4.21406 -7.20038,-4.2255c-0.03478,-0.00953 -0.05373,-0.01585 -0.05373,-0.01585c-3.00677,-1.00225 -5.62817,-2.92928 -8.59834,-3.92889c-1.38165,-0.465 -5.7742,-1.86437 -5.7742,-1.86437c-6.48985,-4.32656 -10.88089,-10.77016 -13.43742,-18.07195c-1.03646,-3.10945 -1.74605,-6.27893 -2.77523,-9.36642l0.08704,-0.35059c-3.08319,-1.76399 -5.66824,-4.26818 -8.7791,-5.96731c-1.65674,-0.90487 -3.95666,-1.62496 -5.52796,-2.88578c-1.65686,-1.32947 -2.59835,-2.10967 -3.92041,-3.77246c-5.14214,-5.26788 -5.90277,-9.97122 -5.90277,-17.16894l0.0855,-0.99571c-0.09333,-0.26624 -0.13118,-0.5836 -0.07813,-0.96061c0.02365,-0.38969 0.14617,-0.84773 0.51452,-1.22179c0.34456,-0.39609 0.79175,-0.55356 1.17848,-0.60721c0.53256,-0.11739 0.95745,-0.03946 1.29169,0.12821c5.35309,1.31832 9.54518,3.8543 14.59021,5.95825c2.03092,0.84699 4.49809,0.65638 6.69634,1.02276c1.0407,0.17345 4.16757,0.49205 4.16757,0.49205c4.73775,0 7.71975,-2.86571 12.10461,-4.5507c3.42023,-1.3143 6.89562,-1.24447 10.44889,-1.83875c6.08088,-1.01348 12.91222,-0.20177 19.07501,-0.20177c0,0 2.42351,0.70851 2.73065,1.14145c2.54174,2.32951 2.47291,4.81132 2.47291,8.22496c0,4.9192 -0.44276,10.09976 0.25683,14.97042c0.30871,2.31539 0.775,4.47913 0.78375,6.81762c0.11243,0.46959 0.01365,0.88678 -0.14682,1.21956c-0.14091,0.39838 -0.4171,0.81731 -0.95218,1.0641c-2.91017,2.14813 -5.37783,1.52083 -8.6189,2.6116c-1.43111,0.48162 -2.68643,1.44201 -4.28012,1.68277c-2.57365,0.38877 -5.3166,0.04338 -7.86155,0.57213c-2.99498,0.49915 -6.38358,0.40291 -9.44414,-0.02708c-0.06398,1.25651 -0.11263,2.54168 0.08242,3.69788c0.81466,4.82906 6.65268,8.37543 11.01221,8.86215c5.2518,0.65649 9.16589,-0.89948 14.00051,-2.51103c1.40551,-0.4685 3.16443,-0.55366 4.47888,-1.11919c1.37014,-0.5895 2.43363,-1.44632 4.16285,-1.73452l1.70533,1.12296c0,0 1.97088,0.66935 1.30152,2.64022z" data-paper-data="{&quot;index&quot;:null}" fill="#ffdebd" stroke="none" stroke-width="0.5" stroke-linecap="butt"/><path d="M274.12643,61.80574c0,0 -0.01495,2.52769 -0.92701,3.70798c-0.91205,1.1803 -4.32598,3.08997 -4.32598,3.08997l-10.50596,4.94397" data-paper-data="{&quot;index&quot;:null}" fill="none" stroke="#a5b5ff" stroke-width="4.5" stroke-linecap="round"/><path d="M227.84927,68.99499c-0.24974,1.19516 -0.73273,2.2841 -0.93845,3.53128c-0.27643,1.67582 0.0534,3.79196 0.0534,5.5173c0,1.05974 4.11806,1.59652 6.07082,1.59652c0.52377,0 3.65462,0.03751 3.58558,-0.17602c0.79264,-0.54045 2.16801,-0.58953 2.84996,-1.1885c2.11848,-1.86067 4.02262,-4.46387 5.06572,-7.66417c0.13046,-0.40032 0.52536,-1.33882 0.12004,-1.25993c-0.21563,0.04197 -0.09508,0.5594 -0.31209,0.59293c-0.59575,0.09208 -1.88839,-0.86166 -2.50277,-1.02385c-0.80497,-0.21251 -2.17225,-0.17929 -3.06472,-0.33327c-1.9773,-0.34115 -4.41521,0.05461 -6.43553,0.05461c-1.55994,0 -2.97927,0.32674 -4.49197,0.3531zM226.96425,66.51325c0.40233,0 0.64914,0.15907 0.80052,0.35423c1.50945,-0.01559 3.00445,-0.35423 4.5765,-0.35423c3.35937,0 7.87615,-0.54972 11.04152,0.74517c1.98834,0.81338 3.93571,1.54839 3.12814,4.02614c-1.24954,3.83369 -0.73206,5.40873 -3.76522,7.84742c-0.61801,0.49688 -3.97744,2.0575 -4.97052,2.10326c-0.99307,0.04578 -7.82634,0.92902 -10.34754,-0.35478c-1.05319,-0.5363 -2.54483,-1.57419 -2.54483,-2.83688c0,-1.99587 -0.2657,-4.21986 0.05339,-6.19045c0.24287,-1.49978 0.98731,-2.70925 0.98731,-4.27558c0,0 0,-1.06434 1.0407,-1.06434z" data-paper-data="{&quot;index&quot;:null}" fill="#18c6ff" stroke="none" stroke-width="0.5" stroke-linecap="butt"/><path d="M238.58351,66.32124c2.37664,0.59612 1.9676,0.65062 3.29762,1.47519c1.33003,0.82458 2.83406,2.39555 2.70357,2.79587c-1.04308,3.20032 -0.63551,4.98964 -2.75399,6.85034c-0.68194,0.59896 -4.01997,1.714 -5.20247,1.96384c-1.18251,0.24983 -3.09261,0.2802 -3.61635,0.2802c-1.95277,0 -6.09508,-0.56193 -6.09508,-1.6217c0,-1.72532 -0.33371,-3.87164 -0.05728,-5.54746c0.20572,-1.24717 0.69601,-3.54469 0.94577,-4.73985c1.5127,-0.35345 2.53964,-1.10007 4.50778,-1.39977c1.96813,-0.2997 3.89377,-0.65275 6.2704,-0.05663z" data-paper-data="{&quot;noHover&quot;:false,&quot;origItem&quot;:[&quot;Path&quot;,{&quot;applyMatrix&quot;:true,&quot;segments&quot;:[[[469.86056,340.47788],[2.90705,-0.05065],[-0.47996,2.2968]],[[468.0571,347.26415],[0.39535,-2.39679],[-0.53123,3.22051]],[[468.15973,357.86707],[0,-3.31566],[0,2.03658]],[[479.8264,360.93518],[-3.75277,0],[1.00657,0]],[[486.717,360.5969],[0.13271,0.41035],[1.52326,-1.03856]],[[492.19394,358.31293],[-1.31054,1.15106],[4.07119,-3.57579]],[[501.92903,343.58421],[-2.00456,6.15021],[0.25074,-0.76931]],[[502.15973,341.16292],[0.77893,-0.15165],[-0.41434,0.08067]],[[501.56,342.30239],[0.41704,-0.06448],[-1.14489,0.17701]],[[496.75028,340.33482],[1.18068,0.3117],[-1.54698,-0.4084]],[[490.86061,339.69435],[1.71512,0.2959],[-3.79987,-0.65558]],[[478.49306,339.79931],[3.88259,0],[-2.99782,0]]],&quot;closed&quot;:true}],&quot;index&quot;:null}" fill="#ffffff" stroke="none" stroke-width="0.5" stroke-linecap="butt"/><path d="M251.59443,69.54368c0,1.3595 0,2.71902 0,4.07852c0,0.10415 -0.0044,1.56094 0,1.56106c0.17399,0.00408 -0.10987,-0.46928 0.05692,-0.51902c0.48219,-0.14377 2.5006,0.51902 3.58558,0.51902c0.21111,0 2.60158,0.00869 2.60178,0c0.00408,-0.17399 -0.46928,0.10987 -0.51902,-0.05693c-0.39316,-1.31867 0.0851,-4.99197 0.16199,-7.21778c-0.60203,0.42168 -1.89181,-0.35719 -2.76512,-0.35719c-0.82352,0 -1.86872,0.85758 -2.55972,1.60316l-0.52036,0.52036c0,0 -0.01651,-0.04951 -0.04208,-0.13121zM250.68515,67.68268c1.90662,-1.82639 4.68704,-3.40377 7.26771,-3.30317c1.16894,0.0456 1.62044,1.54452 1.62044,2.99835c0,2.83546 1.07197,8.29376 -1.73451,9.88678c-0.49444,0.28065 -2.01664,0 -2.60178,0c-2.0411,0 -4.60836,-0.11609 -5.72394,-2.08142c-0.66155,-1.16549 0,-4.54376 0,-5.89737c0,0 0,-0.89661 0.83224,-1.02539z" data-paper-data="{&quot;index&quot;:null}" fill="#18c6ff" stroke="none" stroke-width="0.5" stroke-linecap="butt"/><path d="M254.7166,65.31855c0.8733,0 3.01566,0.37852 3.01566,0.37852c0,0 0.14353,9.35244 0.13945,9.52643c-0.0002,0.00869 -2.41658,0.01129 -2.62768,0.01129c-1.08498,0 -3.50853,-0.00719 -3.68251,-0.01128c-0.00441,-0.00012 -0.00924,-1.46673 -0.00924,-1.57087c0,-1.3595 0.03869,-4.00285 0.03869,-4.00285c0,0 2.30214,-4.33123 3.12565,-4.33123z" data-paper-data="{&quot;noHover&quot;:false,&quot;origItem&quot;:[&quot;Path&quot;,{&quot;applyMatrix&quot;:true,&quot;segments&quot;:[[[515.49306,341.5323],[0.04917,0.15701],[0,2.61264]],[[515.49306,349.37022],[0,-2.61264],[0,0.20016]],[[515.49306,352.37022],[-0.00844,-0.0002],[0.33438,0.00784]],[[515.60246,351.37279],[-0.32053,0.09557],[0.92664,-0.27628]],[[522.49306,352.37022],[-2.08504,0],[0.4057,0]],[[527.49306,352.37022],[-0.00039,0.0167],[0.00784,-0.33438]],[[526.49563,352.26082],[0.09557,0.32053],[-0.75555,-2.53413]],[[526.80695,338.39],[-0.14773,4.27747],[-1.15693,0.81042]],[[521.49306,337.70356],[1.67827,0],[-1.5826,0]],[[516.57394,340.78444],[1.32792,-1.43284],[0,0]],[515.57394,341.78444]],&quot;closed&quot;:true}],&quot;index&quot;:null}" fill="#ffffff" stroke="none" stroke-width="0.5" stroke-linecap="butt"/><path d="M193.23238,69.94967l5.42451,3.08997c0,0 3.82163,0.82985 5.96697,2.16299c2.14532,1.33315 2.12484,1.79827 2.98347,3.39899c0.85862,1.60071 0.65568,1.76983 0,2.16299c-0.65566,0.39318 -3.15675,1.38192 -5.15328,0.92701c-1.99653,-0.45493 -2.98349,-2.781 -2.98349,-2.781l-0.84079,-5.80917" data-paper-data="{&quot;index&quot;:null}" fill="none" stroke="#f6b09a" stroke-width="3" stroke-linecap="round"/><path d="M241.7401,71.36422c0.59664,0 1.13663,0.24171 1.52805,0.63278c0.39149,0.39018 0.63357,0.92972 0.63357,1.52535c0,0.59563 -0.24208,1.13518 -0.63357,1.52536c-0.39141,0.39106 -0.93141,0.63278 -1.52805,0.63278c-0.59656,0 -1.13656,-0.24171 -1.52805,-0.63278c-0.39141,-0.39018 -0.6335,-0.92974 -0.6335,-1.52536c0,-0.59563 0.24208,-1.13517 0.6335,-1.52535c0.39149,-0.39106 0.93148,-0.63278 1.52805,-0.63278z" data-paper-data="{&quot;index&quot;:null}" fill="#000000" stroke="none" stroke-width="1.05702" stroke-linecap="butt"/><path d="M263.55126,39.02544c2.3032,14.36284 -0.47299,15.17965 -8.18995,19.77775c-11.24423,6.69983 -25.95246,5.34351 -37.96296,10.54625c-3.15362,1.36609 -11.19153,-1.95306 -14.62834,-1.95306c-7.02928,0 -10.99554,-5.02375 -11.28601,-11.00757c-0.64069,-13.19891 5.85854,-13.25009 12.88781,-13.25009c0,0 7.73593,1.28219 10.40805,5.38639c0,0 10.76174,-17.50977 22.10613,-19.67297c14.6034,-2.78461 25.01129,-0.14116 26.6653,10.17328z" data-paper-data="{&quot;index&quot;:null}" fill="#7100f3" stroke="none" stroke-width="0" stroke-linecap="butt"/><path d="M260.76997,47.21895c0,5.25479 -1.40622,9.2082 -11.7251,9.51463c-10.89342,0.32348 -11.72511,-4.25984 -11.72511,-9.51463c0,-5.25479 5.24952,-9.51463 11.72511,-9.51463c6.47559,0 11.7251,4.25984 11.7251,9.51463z" data-paper-data="{&quot;index&quot;:null}" fill="#ffffff" stroke="none" stroke-width="0" stroke-linecap="butt"/><path d="M253.49047,40.00579l0.38597,3.40029l-5.17934,0.432l0.71862,8.42943l-4.35842,0.51492l-0.80714,-11.99802z" data-paper-data="{&quot;index&quot;:null,&quot;origRot&quot;:0}" fill="#ffea12" stroke="#7100f3" stroke-width="1" stroke-linecap="butt"/><path d="M276.19295,91.14908l-5.55046,11.79475l-2.77525,-0.34689l-9.71332,-4.16285l-28.09923,6.59118h-4.16285l-3.12214,-3.46903l-5.55046,-12.83549l1.38763,-1.73451l10.06023,9.71332l15.26378,-1.73452l12.14165,-3.46903l10.75401,4.16285l6.59118,-5.55046z" data-paper-data="{&quot;index&quot;:null}" fill="#000000" stroke="#ff0000" stroke-width="0" stroke-linecap="round"/><path d="M215.1456,67.25873c0.96612,0 2.52272,1.73483 2.58668,2.10411c1.61573,1.61759 3.04506,4.1054 3.39287,6.36976c0.11145,0.72571 -1.59826,4.53289 -1.99017,5.05543c-2.0727,1.61213 -4.8932,3.00415 -6.06539,0.22899c-0.27284,-0.64596 0.7751,-3.42042 0.7751,-4.13166c0,-2.42833 0,-4.85664 0,-7.28498c0,0 0,-0.33463 0.16971,-0.66447l-0.16971,-0.37625c0,0 0,-1.30089 1.30089,-1.30089z" data-paper-data="{&quot;index&quot;:null}" fill="#8e4108" stroke="none" stroke-width="0.5" stroke-linecap="butt"/><path d="M260.53317,53.0645c6.62504,0.09158 16.33968,6.36375 15.58169,9.30557c-0.20505,0.7958 -38.76623,2.53626 -50.00011,3.64865c-5.45979,0.54065 -16.33213,3.98503 -16.12707,3.18924c0.75802,-2.94181 5.31818,-8.86429 10.54195,-10.39847c6.31266,-1.85399 23.79738,-5.96897 40.00357,-5.74498z" data-paper-data="{&quot;index&quot;:null}" fill="#4f05a3" stroke="none" stroke-width="0" stroke-linecap="butt"/><path d="M211.94046,69.68519l29.12313,-5.71648l33.37187,-2.16299" data-paper-data="{&quot;index&quot;:null}" fill="none" stroke="#ffffff" stroke-width="4.5" stroke-linecap="round"/><path d="M248.36563,70.41703c-0.0904,2.07945 -2.16986,1.98906 -2.16986,1.98906l-1.90365,-1.14795c-0.86726,-0.6938 -1.73451,-1.38763 -2.60178,-2.08142c-4.94916,-4.22508 -12.80761,-1.43424 -17.82344,1.43195c0,0 -1.8072,1.03266 -2.83986,-0.77451c-1.03266,-1.80719 0.77451,-2.83985 0.77451,-2.83985c6.69951,-3.82829 15.71313,-6.29691 22.48931,-1.06822c0.86726,0.6938 2.43467,1.79771 2.43467,1.79771c0,0 1.73054,0.61379 1.64013,2.69325z" data-paper-data="{&quot;index&quot;:null}" fill="#000000" stroke="none" stroke-width="0.5" stroke-linecap="butt"/><path d="M261.03633,63.05722c1.017,1.81606 -0.79907,2.83306 -0.79907,2.83306l-2.40461,0.26537c-2.93236,0 -4.36164,0.58724 -5.31037,3.43344c0,0 -0.65822,1.97461 -2.63281,1.31642c-1.97464,-0.6582 -1.31642,-2.63281 -1.31642,-2.63281c1.47855,-4.43564 6.4318,-5.72372 6.4318,-5.72372c0,0 5.01449,-1.30776 6.0315,0.5083z" data-paper-data="{&quot;index&quot;:null}" fill="#000000" stroke="none" stroke-width="0.5" stroke-linecap="butt"/><path d="M257.15081,69.387c0.51638,0 0.98373,0.20919 1.32251,0.54767c0.33884,0.3377 0.54836,0.80467 0.54836,1.32018c0,0.51552 -0.20952,0.98247 -0.54836,1.32016c-0.33876,0.33846 -0.80612,0.54768 -1.32251,0.54768c-0.51633,0 -0.98367,-0.2092 -1.32251,-0.54768c-0.33875,-0.3377 -0.54829,-0.80466 -0.54829,-1.32016c0,-0.51552 0.20951,-0.98248 0.54829,-1.32018c0.33884,-0.33846 0.80617,-0.54767 1.32251,-0.54767z" data-paper-data="{&quot;index&quot;:null}" fill="#000000" stroke="none" stroke-width="1.05702" stroke-linecap="butt"/><path d="M244.92676,81.64067c0.226,-1.49189 0.13816,-3.3591 0.57339,-4.53466c0.96144,-2.5969 3.85187,-3.80608 6.3941,-3.80608c8.53035,0 21.80758,3.26044 21.80758,13.73878c-0.06397,3.08837 -0.65249,5.77949 -3.11545,7.91283c-1.20682,1.04533 -3.44093,1.08419 -4.95443,1.23554c-4.71129,0.47115 -10.14206,1.12205 -14.81961,0.18654c-4.0913,-1.0849 -8.04961,-0.64521 -11.29205,-4.1324c-2.2792,-2.45124 -1.96543,-7.09614 -0.21204,-9.62612c0.84742,-1.22274 3.83715,-1.02829 5.17144,-1.02829c0,0 0.18493,0 0.44708,0.05385z" fill="#f991fd" stroke="none" stroke-width="0.5" stroke-linecap="butt"/></g></g></g></svg>