<svg version="1.1" xmlns="http://www.w3.org/2000/svg" xmlns:xlink="http://www.w3.org/1999/xlink" width="201.8254" height="191.23183" viewBox="0,0,201.8254,191.23183"><g transform="translate(-134.63474,-83.16502)"><g data-paper-data="{&quot;isPaintingLayer&quot;:true}" fill-rule="nonzero" stroke-linejoin="miter" stroke-miterlimit="10" stroke-dasharray="" stroke-dashoffset="0" style="mix-blend-mode: normal"><path d="M152.19688,168.80731c12.79556,-21.46524 46.71769,-36.80731 86.55312,-36.80731c12.1796,0 23.8064,1.4342 34.4456,4.03912" fill="none" stroke-opacity="0.21961" stroke="#9bedff" stroke-width="10" stroke-linecap="butt"/><g data-paper-data="{&quot;index&quot;:null}" stroke-width="0" stroke-linecap="butt"><g data-paper-data="{&quot;origPos&quot;:null}" stroke="none"><path d="M187.85993,162.70337c11.36548,3.3107 17.81944,3.18246 18.56339,5.83635c0.95634,3.41154 -7.3196,28.18163 -8.762,31.41778c-1.72438,3.86882 -13.66402,-3.60109 -19.09905,-5.18428c-5.43502,-1.58319 -1.41047,-6.49178 1.52424,-16.56646c2.9347,-10.07468 2.33841,-17.08658 7.77344,-15.5034z" data-paper-data="{&quot;origRot&quot;:0,&quot;origPos&quot;:null}" fill="#ffdebd"/><path d="M203.33485,166.79939c11.36548,3.3107 17.04212,14.78616 15.77553,22.04523c0.95634,3.41154 -4.99939,7.69709 -7.06924,10.00787c-1.72438,3.86882 -8.45306,4.48258 -13.88809,2.89939c-5.43503,-1.58319 -2.52724,-6.54504 0.40747,-16.61972c2.9347,-10.07468 0.64746,-19.18198 4.77433,-18.33278z" data-paper-data="{&quot;origRot&quot;:0,&quot;origPos&quot;:null}" fill="#fff70c"/></g><g><path d="M170.52253,165.29626c3.77793,-9.64159 10.33321,-5.30342 18.43215,-2.12995c8.09894,3.17347 11.60181,13.56213 7.82388,23.20372c-3.77793,9.64159 -8.11518,13.76393 -16.21412,10.59046c-4.53071,-1.77529 -14.86688,-6.39658 -15.83281,-11.16586c-1.77245,-8.75141 2.5333,-12.1847 5.7909,-20.49836z" data-paper-data="{&quot;origPos&quot;:null,&quot;origRot&quot;:0}" fill="#ffdebd" stroke="#ffdebd"/><g data-paper-data="{&quot;origPos&quot;:null,&quot;origRot&quot;:0}" fill="#ffffff" stroke="none"><path d="M162.05342,150.15502c12.58558,6.10632 9.1002,9.45412 5.37257,21.54866c-3.72764,12.09455 -6.23904,21.87006 -18.73644,17.20254c-9.0664,-3.38612 -18.29332,-10.59121 -11.96646,-21.55224c6.90404,-11.961 11.85158,-23.73863 25.33034,-17.19895z" data-paper-data="{&quot;origRot&quot;:0,&quot;origPos&quot;:null}"/><path d="M176.44666,155.74293c5.09736,1.75316 3.43544,11.37788 0.5452,20.71177c-2.89024,9.33391 -4.36733,20.54708 -11.35102,17.75868c-7.81261,-3.11937 -6.58211,-5.40039 -1.48215,-20.53666c5.8098,-17.24303 3.55856,-20.93616 12.28798,-17.93379z" data-paper-data="{&quot;origRot&quot;:0,&quot;origPos&quot;:null}"/></g></g></g><g data-paper-data="{&quot;origPos&quot;:null,&quot;index&quot;:null}" stroke-width="0" stroke-linecap="round"><path d="M203.33333,253.00001c11.06968,0 22.61149,-0.33875 26.73333,1.13333c4.12183,1.47208 5.23548,8.43674 5.33333,10.53333c0.03978,0.85229 -1.68243,3.22429 -1.93333,3.66667c-0.83243,1.46769 -0.48957,3.66133 -11.46667,5c-10.9771,1.33867 -24.85043,0.28496 -28.33333,0c-3.48289,-0.28496 -5.48882,-0.65328 -8.33333,-3c-2.84451,-2.34672 -4.14112,-5.74544 -5,-8c-0.85888,-2.25456 -1.54288,-4.44487 -0.33333,-6c1.20955,-1.55513 1.7723,-0.66209 5,0c3.2277,0.66209 6.86898,2.62143 8,2.66667c1.13102,0.04524 2.62999,-2.43814 2.84047,-2.56739c0.63146,-0.38775 2.107,-1.62902 3.44525,-2.24213c1.13912,-0.52188 3.54171,-1.19048 4.04762,-1.19048z" data-paper-data="{&quot;origPos&quot;:null}" fill="#007e45" stroke="#000000"/><path d="M230.33333,250.66668c-1.73867,3.08219 -2.38026,3.26634 -4.66667,4.33333c-2.28641,1.06699 -6.16865,2.87843 -10.33333,2.66667c-4.16468,-0.21176 -5.9077,-1.69693 -9.33333,-3.66667c-3.42564,-1.96974 -2.92349,-2.02641 -4,-4c-1.07651,-1.97359 -1.88301,-4.95334 -2,-7c-0.16259,-2.84442 -5.16561,-14.5199 1,-17.33333c6.16561,-2.81343 33.04035,-2.03806 33.33333,1.66667c0.2649,3.34955 -0.0699,7.29665 -1.33333,14.66667c-1.26343,7.37002 -0.928,5.58448 -2.66667,8.66667z" data-paper-data="{&quot;origPos&quot;:null}" fill="#a000b2" stroke="#b100c6"/></g><g data-paper-data="{&quot;origPos&quot;:null,&quot;index&quot;:null}" stroke-width="0" stroke-linecap="round"><path d="M240.73331,253.40002c11.06968,0 22.6115,-0.33875 26.73333,1.13333c4.12184,1.47208 5.23549,8.43674 5.33334,10.53333c0.03978,0.85228 -1.68243,3.22429 -1.93333,3.66667c-0.83243,1.46769 -0.48957,3.66133 -11.46667,5c-10.9771,1.33867 -24.85044,0.28496 -28.33333,0c-3.48289,-0.28497 -5.48882,-0.65328 -8.33333,-3c-2.84451,-2.34672 -4.14112,-5.74545 -5,-8c-0.85888,-2.25455 -1.54288,-4.44487 -0.33333,-6c1.20954,-1.55513 1.7723,-0.66209 5,0c3.2277,0.66208 6.86898,2.62142 8,2.66666c1.13102,0.04524 2.62998,-2.43814 2.84047,-2.56739c0.63146,-0.38775 2.10701,-1.62903 3.44525,-2.24214c1.13912,-0.52188 3.54172,-1.19047 4.04762,-1.19047z" data-paper-data="{&quot;origPos&quot;:null}" fill="#007e45" stroke="#000000"/><path d="M267.73334,251.06668c-1.73867,3.08219 -2.38026,3.26634 -4.66667,4.33333c-2.2864,1.06699 -6.16865,2.87843 -10.33333,2.66667c-4.16468,-0.21177 -5.9077,-1.69693 -9.33333,-3.66667c-3.42564,-1.96974 -2.9235,-2.0264 -4,-4c-1.0765,-1.97359 -1.88302,-4.95334 -2,-7c-0.16258,-2.84443 -5.16561,-14.5199 1,-17.33334c6.16561,-2.81343 33.04035,-2.03805 33.33334,1.66667c0.2649,3.34955 -0.06991,7.29664 -1.33334,14.66666c-1.26343,7.37002 -0.92799,5.58447 -2.66666,8.66667z" data-paper-data="{&quot;origPos&quot;:null}" fill="#a000b2" stroke="#b100c6"/></g><g data-paper-data="{&quot;index&quot;:null}"><path d="M250.32217,169.82955c28.47521,0 33.96485,25.98082 35.18458,38.50888c0.73425,34.20451 -24.58362,42.43989 -53.05883,42.43989c-28.47521,0 -51.43391,-7.7157 -51.43391,-24.13183c0,-17.80878 0.97205,-42.48543 16.91377,-53.82034c11.87707,-8.44484 36.99553,-2.9966 52.39438,-2.9966z" data-paper-data="{&quot;origPos&quot;:null,&quot;index&quot;:null}" fill="#a000b2" stroke="none" stroke-width="0" stroke-linecap="butt"/><path d="M280.50673,190.83843c2.73425,19.20451 -28.68936,19.22601 -31.55883,18.43989c-5.47521,-1.5 -17.84075,-6.89148 -21.9339,-8.63183c-9.12903,-3.88156 -46.06329,-1.13097 -46.06329,-1.13097c0,0 7.93703,-23.97274 15.97706,-29.68937c11.87707,-8.44484 32.49553,-5.4966 47.89438,-5.4966c28.47521,0 34.46485,13.98082 35.68458,26.50888z" data-paper-data="{&quot;origPos&quot;:null,&quot;index&quot;:null}" fill="#fff70c" stroke="none" stroke-width="0" stroke-linecap="butt"/><path d="M242.25908,169.79649l-1.5,35.5" data-paper-data="{&quot;origPos&quot;:null}" fill="none" stroke="#a000b2" stroke-width="17" stroke-linecap="round"/><path d="M240.75908,198.29649c3.86599,0 7,3.13401 7,7c0,3.86599 -3.13401,7 -7,7c-3.86599,0 -7,-3.13401 -7,-7c0,-3.86599 3.13401,-7 7,-7z" data-paper-data="{&quot;origPos&quot;:null}" fill="#f3f3f3" stroke="none" stroke-width="0" stroke-linecap="butt"/><path d="M187.23572,202.54372l9.70859,-23.72221l7.83813,-11.27226" data-paper-data="{&quot;origPos&quot;:null,&quot;origRot&quot;:0}" fill="none" stroke="#a000b2" stroke-width="14" stroke-linecap="round"/><path d="M185.75911,193.29649c3.86599,0 7,3.13401 7,7c0,3.86599 -3.13401,7 -7,7c-3.86599,0 -7,-3.13401 -7,-7c0,-3.86599 3.13401,-7 7,-7z" data-paper-data="{&quot;origPos&quot;:null}" fill="#f3f3f3" stroke="none" stroke-width="0" stroke-linecap="butt"/></g><g data-paper-data="{&quot;origPos&quot;:null,&quot;index&quot;:null}"><path d="M225.10758,139.29736l33,4l-7.33334,27.33334l-2.66666,4.66666l-3.66666,1.33334l-42.33334,-4.33334l7.66667,-27.66666l-2.33333,-5.33334z" data-paper-data="{&quot;origPos&quot;:null}" fill="#a10114" stroke="#a10114" stroke-width="0.5" stroke-linecap="round"/><path d="M254.05262,162.7777c-1.1704,4.92546 -8.36262,7.43476 -16.06425,5.60467c-7.70163,-1.83009 -12.99623,-7.30655 -11.82582,-12.23201c1.1704,-4.92546 8.36262,-7.43476 16.06424,-5.60467c7.70163,1.83009 12.99623,7.30655 11.82582,12.23201z" data-paper-data="{&quot;origPos&quot;:null,&quot;origRot&quot;:0}" fill="#f4c4f6" stroke="none" stroke-width="0" stroke-linecap="butt"/><g data-paper-data="{&quot;origPos&quot;:null}" stroke-linecap="round"><path d="M194.77424,171.96402l1,-7.33333l1.33333,-3l3,-2.33334l6.66667,0.33334l40,5l-4.66666,10.33333z" data-paper-data="{&quot;origPos&quot;:null}" fill="#ffffff" stroke="#000000" stroke-width="0"/><path d="M207.44091,160.29736l-4.66667,10" data-paper-data="{&quot;origPos&quot;:null}" fill="none" stroke="#a5b5ff" stroke-width="1.5"/><path d="M218.84791,161.91448l-2.81397,9.43241" data-paper-data="{&quot;origPos&quot;:null,&quot;origRot&quot;:0}" fill="none" stroke="#a5b5ff" stroke-width="1.5"/><path d="M233.8479,163.58113l-2.81397,9.43242" data-paper-data="{&quot;origPos&quot;:null,&quot;origRot&quot;:0}" fill="none" stroke="#a5b5ff" stroke-width="1.5"/></g><g data-paper-data="{&quot;origPos&quot;:null}"><path d="M257.62698,139.72779c4.90291,-0.98058 5.88349,3.92233 5.88349,3.92233c0,0 0.06162,8.52095 -0.59529,11.35418c-1.84581,7.96083 -3.65589,15.38175 -8.55762,22.12639c-4.35479,5.80638 -10.30732,10.46643 -17.42801,12.18197c-2.52034,0.60721 -20.62657,1.23345 -24.17895,-0.53959c-1.01199,-0.5051 -1.9364,-1.17307 -2.9325,-1.70784c-0.29764,0.05968 -0.66416,0.11283 -0.85359,0.20784c-0.63173,0.31688 -1.12709,0.88556 -1.78447,1.14509c-2.56384,1.01218 -4.86291,1.21254 -7.57248,1.21254c-0.83333,0 -1.85655,0.52955 -2.5,0c-1.89693,-1.56112 -3.43527,-3.51295 -5.1529,-5.26942c-0.81941,-4.09706 -1.46944,-13.52313 3.6529,-15.23058c1.38067,-0.46023 8.01413,-0.08328 9.85696,0.35761c2.2885,0.54751 23.76151,2.64239 29.64305,2.64239c1.53112,0 3.51023,0.32987 5,0c0.2029,-0.04492 4.45483,-2.76434 1.46254,-1.32248c0.76071,-1.26785 11.56319,-23.80122 11.88456,-25.4081c0.05677,-0.28384 0.72284,-4.98243 4.17233,-5.67233z" data-paper-data="{&quot;origPos&quot;:null}" fill="#ffdebd" stroke="none" stroke-width="0.5" stroke-linecap="butt"/><path d="M208.44092,186.96401l-2,-2v-3v-2.66666l1.66667,-3.66666" data-paper-data="{&quot;origPos&quot;:null}" fill="none" stroke="#f6b09a" stroke-width="1.5" stroke-linecap="round"/></g></g><g data-paper-data="{&quot;origPos&quot;:null,&quot;index&quot;:null}"><path d="M189.6269,117.20392c7.94072,0 23.50241,-0.79508 23.50241,2.85c0,3.64508 1.96835,10.4 -5.97237,10.4c-9.85445,0 -22.37659,-4.80671 -23.00472,-8.6c-0.40658,-2.45536 -2.46604,-4.65 5.47468,-4.65z" data-paper-data="{&quot;origPos&quot;:null}" fill="#b49416" stroke="none" stroke-width="0" stroke-linecap="butt"/><path d="M202.66669,132.00001l-11.33333,-5.33334l-4.66667,-3.33333l-1,-4" data-paper-data="{&quot;origPos&quot;:null}" fill="none" stroke="#a5b5ff" stroke-width="4.5" stroke-linecap="round"/><path d="M271.03495,147.97215c1.13732,-0.25675 2.65032,2.74964 2.65032,2.74964c0,2.21923 0.96163,7.75235 -0.44167,9.57963c-1.53577,1.99974 -4.82375,1.76558 -5.85833,3.62037c-0.10278,0.18426 -0.4822,2.37459 -0.52131,2.43888c-2.66824,3.11294 -9.15735,2.98896 -9.98889,-1.68549c-0.96325,-5.41483 3.2648,-11.36784 7.5327,-14.3374c2.31826,-1.44892 3.78101,-2.34514 6.62718,-2.36565z" data-paper-data="{&quot;origPos&quot;:null}" fill="#8e4108" stroke="none" stroke-width="0.5" stroke-linecap="butt"/><path d="M244.20194,170.75996c0,0 2.06289,-8.26138 3.25747,-9.90041c0.24664,-0.3384 -0.89702,-1.54946 -1.23755,-1.48506c-2.63814,0.49892 -6.15539,0.00203 -8.81707,-0.16448c-10.67496,-0.68871 -21.32967,-0.57805 -32.0221,-0.57805c-2.22009,0 -8.60931,-0.36963 -9.15664,-1.00233c-1.20893,-1.3975 -2.76921,-3.63682 -2.47003,-5.75161c0.56497,-3.99364 5.92338,-24.89916 7.4328,-27.76682c0.41234,-0.78337 0.57329,-1.79993 1.28772,-2.3227c4.97218,-3.63828 40.13175,-0.33508 46.89214,2.36908c2.49578,0.99831 6.4073,3.39426 9.10771,3.44571c0.30503,0.00581 1.55122,-1.89745 2.19186,-2.39016c1.69235,-1.30159 3.5715,-1.71768 5.67273,-2.2931c4.32892,-1.18547 10.77925,-1.17203 12.82928,-1.56112c0.43572,-0.0827 13.3213,-1.14831 13.3213,-1.14831c0,0 1.11433,3.33003 0.18828,7.58788c-1.14203,5.25088 -4.21601,9.91901 -7.50152,14.16106c-2.08645,2.68257 -4.70511,5.23876 -7.80575,6.70806c-1.66917,0.79098 -3.48846,1.50405 -5.23299,2.11453c-0.88228,0.30874 -1.96022,0.74423 -1.96398,0.99097c-0.01495,0.98242 -1.59541,2.66961 -1.98933,3.60571c-0.91233,2.16798 -1.50942,4.2082 -2.82683,6.23492c-1.83683,2.75524 -6.77345,8.95379 -6.77345,8.95379z" data-paper-data="{&quot;origPos&quot;:null}" fill="#ffdebd" stroke="none" stroke-width="0.5" stroke-linecap="butt"/><path d="M221.43527,137.95025l1.56206,-11.32836c0,0 19.39479,0.30883 24.03794,0.30883c2.00651,0 0.8,11.58328 -2.6,13.07925c-3.91064,1.72065 -9.19349,-2.57466 -15.6,-2.57466c-6.4065,0 -7.4,0.51493 -7.4,0.51493z" data-paper-data="{&quot;origPos&quot;:null}" fill="#ffffff" stroke="#f6b09a" stroke-width="0" stroke-linecap="butt"/><path d="M207.80866,133.32177c-6.4065,0 -2.08936,0.17076 -6,-1.5c-3.4,-1.45259 2.8,-8.9 2.8,-8.9c0,0 4.36128,0.70831 7.03794,2.10012c2.57046,1.3366 4.36206,5.79988 4.36206,5.79988c0,0 -1.7935,2.5 -8.2,2.5z" data-paper-data="{&quot;index&quot;:null,&quot;origPos&quot;:null}" fill="#ffffff" stroke="#f6b09a" stroke-width="0" stroke-linecap="butt"/><path d="M244.33413,139.31114l1.01714,-1.71687c1.97265,-3.15624 1.734,-5.77511 1.734,-9.47251c0,0 0,-1.75 1.75,-1.75c1.75,0 1.75,1.75 1.75,1.75c0,4.31171 0.09383,7.55178 -2.266,11.3275l-0.58286,0.68312c0,0 -0.41062,1.70114 -2.11176,1.29052c-1.70115,-0.41062 -1.29052,-2.11176 -1.29052,-2.11176z" data-paper-data="{&quot;origPos&quot;:null}" fill="#18c6ff" stroke="none" stroke-width="0.5" stroke-linecap="butt"/><path d="M260.5681,127.71541c0.01718,0.12612 0.01718,0.20636 0.01718,0.20636l-0.01534,-0.00261c0.02699,0.29633 -0.01289,0.51565 -0.01289,0.51565c-0.59673,3.28199 -1.58509,6.34524 -2.67714,9.485c-0.01063,0.03056 -0.78271,2.35437 -0.78444,2.35535c-5.56174,3.15748 -6.80605,-4.17304 -7.0102,-8.0534c0,-3.33601 -2.00423,-5.50349 0.31112,-8.62869c0.84415,-1.1394 2.38889,-0.95183 3.63889,-1.0213c3.82969,-0.21284 7.07809,0.29404 6.53929,5.14325l-0.00648,0.00039z" data-paper-data="{&quot;origPos&quot;:null}" fill="#8e4108" stroke="none" stroke-width="0.5" stroke-linecap="butt"/><path d="M199.47304,132.4928c-1.57528,-0.77783 -0.81304,-2.38535 -0.81304,-2.38535l-0.08492,-1.21555c0.72841,-2.22992 1.85257,-3.73496 3.3315,-5.49569c0,0 1.13888,-1.35589 2.46758,-0.1937c1.3287,1.16219 0.18981,2.51808 0.18981,2.51808c-1.1936,1.42104 -2.09715,2.55163 -2.6685,4.30076l-0.08492,1.64175c0,0 -0.76223,1.60752 -2.33751,0.82969z" data-paper-data="{&quot;origPos&quot;:null}" fill="#18c6ff" stroke="none" stroke-width="0.5" stroke-linecap="butt"/><path d="M199.75343,94.82857c1.90341,-10.7322 13.88074,-13.48273 30.68624,-10.58532c13.05504,2.2508 25.43957,20.46979 25.43957,20.46979c3.07506,-4.27042 11.97751,-5.60456 11.97751,-5.60456c8.08923,0 15.5685,0.05326 14.83118,13.78676c-0.33427,6.22617 -4.89862,11.45342 -12.98785,11.45342c-3.95505,0 -13.205,3.4536 -16.83418,2.03217c-13.8216,-5.41348 -30.74774,-4.00221 -43.68752,-10.97342c-8.88061,-4.78436 -12.07543,-5.63423 -9.42494,-20.57884z" data-paper-data="{&quot;origPos&quot;:null}" fill="#fff70c" stroke="none" stroke-width="0" stroke-linecap="butt"/><path d="M217.31152,94.74665c7.34538,0 13.3,4.25329 13.3,9.5c0,5.24671 -5.95462,9.5 -13.3,9.5c-7.34539,0 -13.3,-4.25329 -13.3,-9.5c0,-5.24671 5.95461,-9.5 13.3,-9.5z" data-paper-data="{&quot;origPos&quot;:null}" fill="#ffffff" stroke="none" stroke-width="0" stroke-linecap="butt"/><path d="M232.90551,93.74069c0.0164,2.22761 -1.07796,2.55259 -1.07796,2.55259c-0.93742,1.70899 -1.87484,3.41799 -2.81226,5.12698c-2.30811,4.20789 -3.74002,9.78131 -9.71632,8.69407c-2.29183,-0.41695 -2.00575,-5.80157 -2.47233,-7.07289c-0.17374,-0.47338 -0.29065,-1.0162 -0.6571,-1.36259c-0.17856,0.32553 -0.35711,0.65104 -0.53567,0.97657c-1.31044,1.84664 -1.19911,4.08488 -2.87537,5.91103c-2.28175,2.48579 -5.0641,1.34716 -6.83272,-0.70602c-3.07091,-3.56502 -3.82049,-7.40383 -4.55894,-11.72264l-0.15942,0.01379l-0.17046,-1.97017c-0.02178,-0.21511 -0.0124,-0.43449 0.03013,-0.65112c0.10308,-0.66194 0.49068,-1.52436 1.77415,-1.76044c0.02211,-0.00418 0.0443,-0.00803 0.06655,-0.01154c1.2858,-0.20946 1.94083,0.47355 2.26049,1.06123c0.14212,0.23931 0.23804,0.503 0.28338,0.77626l0.61043,3.49248l-0.16262,0.02842c0.20578,1.67708 0.4881,3.36441 1.16171,4.75657c0.49088,1.01451 1.67382,2.45263 2.45391,3.365c0.24576,-0.09615 0.56035,-0.17925 0.70778,-0.33522c0.52385,-0.55418 1.07126,-3.51868 1.50475,-4.3903c1.25543,-2.28875 3.38957,-5.67298 6.58461,-2.74017c2.13103,1.95611 2.3804,3.74257 2.94495,6.44285c0.11241,0.53762 0.26021,1.04072 0.48103,1.50545c0.06867,-0.03637 0.12838,-0.07684 0.17255,-0.12356c0.28707,-0.30369 0.18506,-0.82637 0.38603,-1.19276c0.93741,-1.70899 1.87483,-3.41799 2.81225,-5.12698c0.93742,-1.70899 1.87483,-3.41799 2.81225,-5.12698l2.74023,-2.62113c0,0 2.22761,-0.0164 2.24401,2.21121z" data-paper-data="{&quot;origPos&quot;:null,&quot;origRot&quot;:0}" fill="#0052ef" stroke="none" stroke-width="0.5" stroke-linecap="butt"/><path d="M183.70984,119.75392c-0.8177,-3.1735 9.66204,-9.93961 16.80879,-10.0384c17.48248,-0.24165 40.86096,5.1384 47.67076,7.1384c5.63517,1.65502 7.91968,6.7265 8.73737,9.9c0.2212,0.85848 -11.69555,1.28322 -17.58533,0.7c-12.11857,-1.2 -55.41038,-6.84152 -55.63158,-7.7z" data-paper-data="{&quot;origPos&quot;:null}" fill="#ffd412" stroke="none" stroke-width="0" stroke-linecap="butt"/><path d="M276.36668,131.89287l-1.03333,6.26666c0,0 -1.21297,2.50926 -3.66667,3c-2.4537,0.49074 -5.52751,-0.57588 -6.33333,-1c-0.80582,-0.42411 -1.05525,-0.60655 0,-2.33333c1.05525,-1.72678 1.03007,-2.22853 3.66666,-3.66667c2.6366,-1.43814 7.33334,-2.33333 7.33334,-2.33333l6.66666,-3.33333" data-paper-data="{&quot;origPos&quot;:null}" fill="none" stroke="#f6b09a" stroke-width="3" stroke-linecap="round"/><path d="M185.33334,119.33335l36,2.33333l31.41667,6.16667" data-paper-data="{&quot;origPos&quot;:null}" fill="none" stroke="#ffffff" stroke-width="4.5" stroke-linecap="round"/><path d="M197.50001,121.75001l0.5,-3.5l4,-1l4.25,0.25l4.75,2l4,4.25l2.75,1l4,0.75l4,-0.5l4.25,-2.5l6.5,-1.5l5,-0.75l6,0.25l8.5,0.75l-1,10l-11.25,-3.25l-5.5,-1l-5.5,0.25l-7,2l-2.75,1.25h-6.75l-2.5,-2.25l-3,-3.5l-3.25,-0.75l-5.5,-0.5v2.25z" data-paper-data="{&quot;origPos&quot;:null}" fill="#000001" stroke="#ff0000" stroke-width="0" stroke-linecap="round"/><path d="M215.25373,122.63836c0.29131,-3.63097 2.75777,-1.69136 5.50899,-1.42437c2.75122,0.26699 4.74538,-1.23976 4.45408,2.39121c-0.2913,3.63097 -2.75777,6.35803 -5.50899,6.09104c-2.75122,-0.26699 -4.74538,-3.42691 -4.45407,-7.05788z" data-paper-data="{&quot;origPos&quot;:null,&quot;origRot&quot;:0}" fill="#ffdebd" stroke="#f6b09a" stroke-width="2.5" stroke-linecap="butt"/><path d="M214.93334,120.93335l5.8,0.53333l5.06667,0.86667" data-paper-data="{&quot;origPos&quot;:null}" fill="none" stroke="#ffffff" stroke-width="4.5" stroke-linecap="round"/><g data-paper-data="{&quot;origPos&quot;:null,&quot;index&quot;:null}" stroke-linecap="round"><path d="M247.72401,154.31917l2.80023,0.91065l-3.39421,7.35527c0,0 -0.82674,2.14198 -1.20463,2.38462c-0.12596,0.08088 -10.42056,-0.28312 -10.42056,-0.28312l-40.73059,-4.20301l4.7519,-8.68623z" data-paper-data="{&quot;origPos&quot;:null}" fill="#ffffff" stroke="#000000" stroke-width="0"/><path d="M239.57791,155.72014l-4.75191,8.40603" data-paper-data="{&quot;origPos&quot;:null}" fill="none" stroke="#a5b5ff" stroke-width="1.5"/><path d="M223.21066,162.76683l2.86537,-7.92891" data-paper-data="{&quot;origPos&quot;:null,&quot;origRot&quot;:0}" fill="none" stroke="#a5b5ff" stroke-width="1.5"/><path d="M207.9367,161.36583l2.86537,-7.92892" data-paper-data="{&quot;origPos&quot;:null,&quot;origRot&quot;:0}" fill="none" stroke="#a5b5ff" stroke-width="1.5"/></g><path d="M187.41154,156.14663l1,-0.8l2.4,-2.2l2.2,2.8l1.8,-2.6l3,-1l2.8,2.4l3,-3.8l2.8,0.2l2.4,2.8l1.2,-2.6l2,-1.4l2.6,-0.4l3.8,4.6l5.8,-5.2l1.6,0.2l4.2,4.6l12.4,-6.6h2.4l1.8,4.8l11,-5.4l2.2,1l-13.8,17l-2.6,-0.4l-5.2,-6.2l-7.4,5.4l-1.8,-0.4l-3.4,-5.2h-1.4l-5.4,5h-1.8l-3.2,-5.2l-3,4.2l-2.6,0.2l-3,-5l-3,4.6l-1.6,0.6l-2.4,-1l-0.6,-3.4l-2.8,3.8l-4,0.2l-0.6,-2.6l-1,2.4h-3.2l-2.8,-7.6z" data-paper-data="{&quot;origPos&quot;:null}" fill="#000001" stroke="#ff0000" stroke-width="0" stroke-linecap="round"/><path d="M217.79998,142.31173c0.30054,-0.06173 0.51254,-0.06173 0.51254,-0.06173c1.5296,0 4.957,-0.22293 5.92847,1.17881c2.01007,2.90035 2.36978,8.22521 -0.24308,11.03529c-3.71711,3.99768 -8.25487,3.49364 -12.94511,4.73735c-5.36228,1.07246 -11.58807,0.32625 -16.98905,-0.21385c-1.73506,-0.1735 -4.29622,-0.21806 -5.67971,-1.4164c-2.82351,-2.44564 -3.49821,-5.53071 -3.57153,-9.07119c0,-12.01226 15.22089,-15.75 25,-15.75c2.91439,0 6.22794,1.38619 7.33013,4.36325c0.49894,1.34765 0.39824,3.48819 0.65733,5.19849z" data-paper-data="{&quot;origPos&quot;:null}" fill="#f991fd" stroke="none" stroke-width="0.5" stroke-linecap="butt"/><path d="M231.5267,131.733c0.5533,0.452 0.8955,1.077 0.8955,1.767c0,0.69 -0.3422,1.315 -0.8955,1.767c-0.5534,0.453 -1.3167,0.733 -2.16,0.733c-0.8434,0 -1.6067,-0.28 -2.16,-0.733c-0.5534,-0.452 -0.8956,-1.077 -0.8956,-1.767c0,-0.69 0.3422,-1.315 0.8956,-1.767c0.5533,-0.453 1.3166,-0.733 2.16,-0.733c0.8433,0 1.6066,0.28 2.16,0.733z" data-paper-data="{&quot;origPos&quot;:null}" fill="#000000" stroke="none" stroke-width="1.05702" stroke-linecap="butt"/><path d="M211.47669,128.18301c0.5533,0.452 0.8955,1.077 0.8955,1.767c0,0.69 -0.3422,1.315 -0.8955,1.767c-0.5534,0.453 -1.3167,0.733 -2.16,0.733c-0.8434,0 -1.6067,-0.28 -2.16,-0.733c-0.5534,-0.452 -0.8956,-1.077 -0.8956,-1.767c0,-0.69 0.3422,-1.315 0.8956,-1.767c0.5533,-0.453 1.3166,-0.733 2.16,-0.733c0.8433,0 1.6066,0.28 2.16,0.733z" data-paper-data="{&quot;origPos&quot;:null}" fill="#000000" stroke="none" stroke-width="1.05702" stroke-linecap="butt"/></g><g data-paper-data="{&quot;index&quot;:null}" stroke-linecap="butt"><g data-paper-data="{&quot;origPos&quot;:null}" stroke="none" stroke-width="0"><path d="M281.32088,214.7094c-10.40488,-5.64563 -16.73924,-6.88898 -16.90347,-9.64027c-0.21111,-3.53676 13.12949,-25.98841 15.22537,-28.84507c2.50561,-3.41514 12.58957,6.41687 17.56524,9.11664c4.97567,2.69977 0.0017,6.64323 -5.00276,15.86642c-5.00445,9.22317 -5.90871,16.20205 -10.88438,13.50229z" data-paper-data="{&quot;origRot&quot;:0,&quot;origPos&quot;:null}" fill="#ffdebd"/><path d="M267.06657,207.42484c-10.40488,-5.64564 -13.51885,-18.06391 -10.74166,-24.88928c-0.21111,-3.53675 6.51797,-6.46181 9.03078,-8.28109c2.50561,-3.41514 9.21141,-2.58802 14.18708,0.11175c4.97567,2.69977 1.08177,6.93211 -3.92269,16.1553c-5.00445,9.22318 -4.70059,18.60839 -8.55351,16.90333z" data-paper-data="{&quot;origRot&quot;:0,&quot;origPos&quot;:null}" fill="#fff70c"/></g><g><path d="M299.23561,216.57668c-5.73666,8.62112 -11.22286,2.99146 -18.46461,-1.82734c-7.24175,-4.8188 -8.46185,-15.714 -2.7252,-24.33513c5.73666,-8.62112 10.84947,-11.72992 18.09122,-6.91112c4.05118,2.69572 13.17224,9.40385 13.1048,14.2695c-0.12374,8.92824 -5.05965,11.37033 -10.0062,18.80407z" data-paper-data="{&quot;origPos&quot;:null,&quot;origRot&quot;:0}" fill="#ffdebd" stroke="#ffdebd" stroke-width="0"/><g data-paper-data="{&quot;origPos&quot;:null,&quot;origRot&quot;:0}" fill="#ffffff" stroke="none" stroke-width="0"><path d="M304.30114,233.16953c-11.00438,-8.63641 -6.88832,-11.16893 -0.68062,-22.19788c6.20771,-11.02895 10.73504,-20.04954 21.95837,-12.8379c8.1421,5.23177 15.6312,14.22971 7.12378,23.59972c-9.28353,10.22483 -16.61618,20.68538 -28.40152,11.43605z" data-paper-data="{&quot;origRot&quot;:0,&quot;origPos&quot;:null}"/><path d="M291.42026,224.6564c-4.60963,-2.79426 -0.94443,-11.84763 3.85948,-20.3563c4.80391,-8.50869 8.62535,-19.15358 14.85887,-14.94759c6.9734,4.70521 5.28715,6.67339 -2.9067,20.38387c-9.33432,15.61878 -7.91747,19.70532 -15.81164,14.92002z" data-paper-data="{&quot;origRot&quot;:0,&quot;origPos&quot;:null}"/></g><path d="M318.34806,199.50305c1.77528,0.92109 1.57437,1.92613 1.57437,1.92613c0.96361,1.46081 1.92722,2.92161 2.89083,4.38242c2.37261,3.59681 6.19666,7.07063 2.82751,11.35906c-1.29203,1.64455 -5.4467,-0.84049 -6.65159,-1.00319c-0.44864,-0.06058 -0.92859,-0.19539 -1.35724,-0.04973c0.18354,0.27826 0.36708,0.5565 0.55063,0.83475c0.91647,1.81466 2.73999,2.66484 3.48679,4.76131c1.01656,2.85375 -1.05407,4.58508 -3.42564,5.12815c-4.11783,0.94295 -7.47963,-0.07171 -11.2178,-1.29649l-0.05591,0.13234l-1.63551,-0.69083c-0.17991,-0.07292 -0.35013,-0.17236 -0.50427,-0.29696c-0.48226,-0.35939 -1.00436,-1.02873 -0.65358,-2.14662c0.00595,-0.01931 0.0122,-0.03853 0.01874,-0.05767c0.37289,-1.10858 1.18977,-1.34216 1.79035,-1.3495c0.24957,-0.01248 0.49912,0.02195 0.73506,0.10054l3.0285,0.97991l-0.04563,0.14102c1.41766,0.53989 2.87554,1.02332 4.26318,1.07234c1.01122,0.03572 2.64892,-0.30032 3.70033,-0.53701c0.02673,-0.23541 0.09267,-0.52 0.03068,-0.70244c-0.22028,-0.64824 -2.34413,-2.3259 -2.85429,-3.03553c-1.2905,-1.95637 -3.08218,-5.06967 0.58582,-6.37627c2.44648,-0.87149 3.96925,-0.32033 6.34962,0.3638c0.47393,0.13621 0.93529,0.22984 1.39682,0.24941c-0.00008,-0.06976 -0.00716,-0.13414 -0.02573,-0.18879c-0.12071,-0.35524 -0.57842,-0.49343 -0.78501,-0.80661c-0.96361,-1.46081 -1.92722,-2.92161 -2.89083,-4.38242c-0.96361,-1.46081 -1.92722,-2.92161 -2.89083,-4.38242l-0.93175,-3.27446c0,0 0.92108,-1.77528 2.69636,-0.8542z" data-paper-data="{&quot;origPos&quot;:null}" fill="#0052ef" stroke="none" stroke-width="0.5"/></g></g><path d="M318.59502,215.46413c-15.8691,16.75239 -45.68256,28.03587 -79.84502,28.03587c-9.08313,0 -17.85882,-0.79766 -26.14672,-2.28368" fill="none" stroke-opacity="0.21961" stroke="#9bedff" stroke-width="10" stroke-linecap="butt"/></g></g></svg>