<svg version="1.1" xmlns="http://www.w3.org/2000/svg" xmlns:xlink="http://www.w3.org/1999/xlink" width="525.55473" height="343.98844" viewBox="0,0,525.55473,343.98844"><defs><linearGradient x1="-243.94417" y1="123.00003" x2="-243.94417" y2="179.00004" gradientUnits="userSpaceOnUse" id="color-1"><stop offset="0" stop-color="#c3e060"/><stop offset="1" stop-color="#6de01b"/></linearGradient><linearGradient x1="-243.94417" y1="123.00003" x2="-243.94417" y2="179.00004" gradientUnits="userSpaceOnUse" id="color-2"><stop offset="0" stop-color="#c3e060"/><stop offset="1" stop-color="#6de01b"/></linearGradient><linearGradient x1="-243.94417" y1="123.00003" x2="-243.94417" y2="179.00004" gradientUnits="userSpaceOnUse" id="color-3"><stop offset="0" stop-color="#c3e060"/><stop offset="1" stop-color="#6de01b"/></linearGradient></defs><g transform="translate(4.80179,-17.04879)"><g data-paper-data="{&quot;isPaintingLayer&quot;:true}" fill-rule="nonzero" stroke-linejoin="miter" stroke-miterlimit="10" stroke-dasharray="" stroke-dashoffset="0" style="mix-blend-mode: normal"><path d="" data-paper-data="{&quot;origPos&quot;:null}" fill="url(#color-1)" stroke="#0f6600" stroke-width="2" stroke-linecap="butt"/><path d="" data-paper-data="{&quot;origPos&quot;:null}" fill="url(#color-2)" stroke="#0f6600" stroke-width="2" stroke-linecap="butt"/><path d="" data-paper-data="{&quot;origPos&quot;:null}" fill="url(#color-3)" stroke="#0f6600" stroke-width="2" stroke-linecap="butt"/><g><path d="M21.95074,106.9097c0,-2.87977 2.33452,-5.21428 5.21429,-5.21428c2.87977,0 5.21429,2.33451 5.21429,5.21428c0,2.87977 -2.33452,5.21429 -5.21429,5.21429c-2.87977,0 -5.21429,-2.33452 -5.21429,-5.21429z" fill="#ffffff" stroke="#000000" stroke-width="1.5" stroke-linecap="butt"/><path d="M29.09359,104.98113l-3.85715,3.85714" fill="none" stroke="#b2b2b2" stroke-width="2.5" stroke-linecap="round"/></g><path d="M2.09023,266.29972c0,-63.75339 0,-201.72379 0,-229.74614c0,-3.61654 -1.28642,-8.10284 -0.09637,-11.06802c2.05499,-5.12032 7.53075,-7.68677 11.20633,-7.68677c16.82888,0 100.11407,0 132.66598,0c3.86967,0 9.02238,1.60396 11.26128,4.17137c2.45318,2.81313 1.80926,6.78295 1.80926,11.0669c0,28.01562 0.65353,183.5407 0.65353,240.29572c0,7.17694 0.35338,16.6008 -2.21918,21.31194c-1.89175,3.46438 -6.2842,4.01125 -8.89078,4.01125c-29.19321,0 -114.032,1.41505 -132.66598,1.41505c-4.17127,0 -10.2541,-4.85776 -12.86701,-12.46105c-1.7632,-5.13074 -0.85706,-13.24893 -0.85706,-21.31023z" fill="#fafafa" stroke="#000000" stroke-width="1.5" stroke-linecap="butt"/><g><path d="M3.75867,28.34418c0,-2.87977 2.33452,-5.21428 5.21429,-5.21428c2.87977,0 5.21429,2.33451 5.21429,5.21428c0,2.87977 -2.33452,5.21429 -5.21429,5.21429c-2.87977,0 -5.21429,-2.33452 -5.21429,-5.21429z" fill="#ffffff" stroke="#000000" stroke-width="1.5" stroke-linecap="butt"/><path d="M10.90153,26.41561l-3.85715,3.85714" fill="none" stroke="#b2b2b2" stroke-width="2.5" stroke-linecap="round"/></g><g><path d="M146.90822,28.34418c0,-2.87977 2.33452,-5.21428 5.21429,-5.21428c2.87977,0 5.21429,2.33451 5.21429,5.21428c0,2.87977 -2.33452,5.21429 -5.21429,5.21429c-2.87977,0 -5.21429,-2.33452 -5.21429,-5.21429z" fill="#ffffff" stroke="#000000" stroke-width="1.5" stroke-linecap="butt"/><path d="M154.0511,26.41561l-3.85715,3.85714" fill="none" stroke="#b2b2b2" stroke-width="2.5" stroke-linecap="round"/></g><path d="M-4.05179,290.77315c0,-17.20619 0,-54.44256 0,-62.00542c0,-1.20201 0.4418,-3.45795 3.00548,-4.35632c3.11289,-1.09082 8.79929,-0.70535 13.53901,-0.70535c25.06088,0 149.08581,0 197.56079,0c5.93227,0 13.54057,-0.30048 16.89006,0.42845c3.46924,0.75499 2.57405,2.55906 2.57405,3.68416c0,7.56104 0.97321,51.11695 0.97321,66.43437c0,1.0275 -0.22209,3.29175 -1.44191,4.00771c-2.77064,1.62621 -8.74253,1.05396 -15.10258,1.05396c-43.47334,0 -169.81183,0 -197.56079,0c-7.54708,0 -16.36199,0.87737 -19.8305,-2.09207c-1.3127,-1.12383 -0.60682,-4.96697 -0.60682,-6.44949z" fill="#4cdc48" stroke="#000000" stroke-width="1.5" stroke-linecap="butt"/><g><path d="M-0.86026,231.82328c0,-2.87977 2.33452,-5.21428 5.21429,-5.21428c2.87977,0 5.21429,2.33451 5.21429,5.21428c0,2.87977 -2.33452,5.21429 -5.21429,5.21429c-2.87977,0 -5.21429,-2.33452 -5.21429,-5.21429z" fill="#ffffff" stroke="#000000" stroke-width="1.5" stroke-linecap="butt"/><path d="M6.2826,229.89472l-3.85715,3.85714" fill="none" stroke="#b2b2b2" stroke-width="2.5" stroke-linecap="round"/></g><g><path d="M-0.86026,291.15657c0,-2.87977 2.33452,-5.21428 5.21429,-5.21428c2.87977,0 5.21429,2.33451 5.21429,5.21428c0,2.87977 -2.33452,5.21429 -5.21429,5.21429c-2.87977,0 -5.21429,-2.33452 -5.21429,-5.21429z" fill="#ffffff" stroke="#000000" stroke-width="1.5" stroke-linecap="butt"/><path d="M2.42545,293.08518l3.85715,-3.85714" fill="none" stroke="#b2b2b2" stroke-width="2.5" stroke-linecap="round"/></g><g><path d="M217.23488,292.48994c0,-2.87977 2.33452,-5.21428 5.21429,-5.21428c2.87977,0 5.21429,2.33451 5.21429,5.21428c0,2.87977 -2.33452,5.21429 -5.21429,5.21429c-2.87977,0 -5.21429,-2.33452 -5.21429,-5.21429z" fill="#ffffff" stroke="#000000" stroke-width="1.5" stroke-linecap="butt"/><path d="M224.37774,290.56138l-3.85715,3.85714" fill="none" stroke="#b2b2b2" stroke-width="2.5" stroke-linecap="round"/></g><g><path d="M217.23488,231.48994c0,-2.87977 2.33452,-5.21428 5.21429,-5.21428c2.87977,0 5.21429,2.33451 5.21429,5.21428c0,2.87977 -2.33452,5.21429 -5.21429,5.21429c-2.87977,0 -5.21429,-2.33452 -5.21429,-5.21429z" fill="#ffffff" stroke="#000000" stroke-width="1.5" stroke-linecap="butt"/><path d="M224.37772,229.56138l-3.85715,3.85714" fill="none" stroke="#b2b2b2" stroke-width="2.5" stroke-linecap="round"/></g><g><path d="M458.91672,312.93836v-60.98565h60.98566v60.98565z" fill="#c07830" stroke="none" stroke-width="0" stroke-linecap="butt"/><path d="M458.95847,275.05046v-22.42594h60.98565v22.42594z" fill="#e5a26e" stroke="none" stroke-width="0" stroke-linecap="butt"/><path d="M518.50294,253.79818c0,0 -17.91142,0 -27.29834,0c-9.99939,0 -30.97684,0 -30.97684,0" fill="none" stroke="#000000" stroke-width="4.5" stroke-linecap="round"/><path d="M475.52584,282.47202c0.49312,0.514 -0.24186,1.44356 -0.07336,2.13563c0.17725,0.72802 1.49544,0.10209 2.24437,0.12506c1.50531,0.04617 4.14927,-0.24947 5.28279,0.90169c0.81554,0.82824 -0.41725,2.94832 0.64173,3.42752c1.14239,0.51695 4.24032,-0.28762 5.34346,0.30852c0.89779,0.48517 -0.17364,2.87469 0.48755,3.65202c0.19906,1.06257 0.88978,0.82898 1.9005,0.6524c1.77363,-0.30987 4.34969,-1.17615 5.67356,0.205c0.73471,0.7665 0.19137,3.42496 0.44446,3.43761c1.08462,0.05423 2.54808,-0.22213 3.29661,0.56466c0.79221,0.8327 0.16168,2.25275 0.12464,3.40149c-0.00557,0.17282 2.86855,-0.33213 3.81718,0.28078c0.65679,0.42435 -0.04355,2.46602 0.17092,2.55907c0.59424,0.25781 2.09298,1.06083 3.32036,1.40392c0.81796,0.22864 -0.52254,2.89998 0.52274,3.79308c0.37393,0.31949 1.04876,-0.16953 1.83004,-0.2379c1.17416,-0.10276 2.47798,0.08002 2.47798,0.08002l2.5169,0.11617c0.90489,0.16253 0.62351,2.43666 0.62351,3.38833c0,0.56622 -2.97447,0.23865 -5.90525,0.29114c-2.6037,0.04664 -5.17292,0.20745 -5.59144,-0.41693c-0.26168,-0.3904 0.39358,-2.52209 0.03925,-2.57441c-1.00049,-0.14772 -4.08087,-0.47289 -4.8927,-1.07599c-1.0263,-0.76243 -1.06525,-2.50628 -2.15708,-3.17148c-0.68567,-0.41774 -1.68533,-0.27673 -2.2575,-0.84c-0.52542,-0.51723 -0.32634,-1.46805 -0.72019,-2.09132c-0.14671,-0.23217 -1.8513,-0.28544 -2.38761,-0.53044c-0.84405,0.00707 -1.64402,0.08263 -1.90935,0.08171c-1.08084,-0.36214 -2.43777,-0.27911 -3.24251,-1.08641c-0.71112,-0.71337 0.32995,-2.75306 -0.65802,-2.9493c-1.22716,-0.24374 -5.59445,0.73886 -6.24911,-0.13468c-0.31439,-0.41949 0.05809,-3.06791 -0.25576,-3.4878c-0.1061,-0.14195 -5.20813,-0.00411 -5.30505,-0.05602c-1.01338,-0.54284 0.06067,-3.46479 -0.48335,-4.47754c-0.20541,-0.38238 -6.72572,0.26461 -7.89891,-0.71458c-1.10822,-0.92496 0.22627,-1.57525 -0.60592,-2.64755c-0.7679,-0.98946 -3.5837,-0.11555 -3.30654,-0.93032c-0.0366,-0.11696 -0.39557,-2.13885 0.07447,-3.51651c0.26452,-0.77531 1.21251,-1.28646 1.59756,-1.28646h1.93605c2.74588,0 7.39751,-0.80617 9.53304,1.4198zM472.24176,284.58732c0.02781,0.01761 0.05537,0.03503 0.08268,0.05223c-0.01874,-0.03573 -0.04715,-0.05116 -0.08268,-0.05223z" fill="#985818" stroke="none" stroke-width="0.5" stroke-linecap="butt"/><path d="M469.36476,279.89056c0,-0.82018 0.34746,-1.2929 0.74798,-1.56536c-0.72862,0.04479 -1.46274,0.12384 -2.20441,0.24832c0,0 -1.90972,0.31828 -2.228,-1.59143c-0.31829,-1.90971 1.59142,-2.22799 1.59142,-2.22799c5.60572,-0.92831 10.74056,0.60926 16.29128,0.14168l1.12881,-0.00669c0,0 1.93605,0 1.93605,1.93605c0,1.11834 -0.646,1.59069 -1.19169,1.79018c0.94888,-0.00685 1.88642,-0.01463 2.80507,-0.01546c0,0 1.93606,0 1.93606,1.93605c0,1.93605 -1.93606,1.93606 -1.93606,1.93606c-5.18487,-0.0043 -10.86173,0.16305 -15.96804,-0.67169l-0.97242,0.02634c0,0 -1.93605,0 -1.93605,-1.93606z" fill="#e89058" stroke="none" stroke-width="0.5" stroke-linecap="butt"/><path d="M519.83926,282.56073l-2.18613,0.07261c-5.38822,0 -10.76137,0.11827 -16.13321,-0.32936c0,0 -1.92936,-0.16078 -1.76859,-2.09015c0.0613,-0.73552 0.37963,-1.16728 0.75011,-1.41998c-0.94242,-0.02011 -1.89237,-0.03348 -2.85419,-0.03261c0,0 -1.93605,0 -1.93605,-1.93605c0,-1.93605 1.93605,-1.93605 1.93605,-1.93605c5.35269,0.00444 10.27385,0.45788 15.65032,0.00669l1.61282,-0.00669c0,0 1.93605,0 1.93605,1.93605c0,1.93605 -1.93605,1.93605 -1.93605,1.93605l-1.29126,-0.00669c-0.08348,0.0069 -0.16686,0.0136 -0.25015,0.02008c1.42724,-0.00441 5.10588,-0.086 6.5348,-0.086z" fill="#e89058" stroke="none" stroke-width="0.5" stroke-linecap="butt"/><path d="M495.48752,282.35585l2.11077,0.06079c1.48392,0.125 3.0346,-0.05196 4.4596,-0.05344c0.94123,-0.00097 1.82762,-0.13527 2.60372,0.69393c0.44857,0.47926 -0.0605,2.54145 0.17928,3.15252c0.2591,0.66032 6.43214,-0.38177 7.02809,0.14648c0.98681,0.87471 0.43233,2.19924 0.41896,3.72232c0.93351,0.38257 2.91101,-0.53726 3.50663,0.25402c0.42772,0.56822 -0.03653,2.62492 0.10133,3.32264c0.18721,0.94747 3.05328,-0.33161 3.73266,0.35482c0.38172,0.38569 0.35949,1.95593 0.32822,3.54435c-0.03698,1.87858 -0.02839,3.78259 -0.02839,3.78259c0,0 -1.33863,0.35285 -3.25522,0.07905c-0.80594,-0.11514 -0.73309,-0.75221 -0.66073,-1.46866c0.09972,-0.98734 0.39937,-2.12542 0.2138,-2.25596c-0.39244,-0.27606 -3.34985,0.61376 -3.93708,-0.36498c-0.29906,-0.49845 0.2716,-2.8233 0.10134,-3.37908c-0.19402,-0.63331 -1.31751,-0.22248 -1.97869,-0.18277c-1.40195,0.0842 -2.31837,-0.01428 -3.26226,0.15578c-0.6772,0.12201 -1.36854,0.81585 -2.26347,-0.19895c-0.43187,-0.48971 0.27104,-2.65775 -0.05414,-3.22396c-0.10214,-0.17786 -1.87399,-0.2022 -3.89648,-0.15325c-1.2845,0.03109 -2.67011,0.58045 -3.79328,-0.43033c-0.88305,-0.79469 0.56325,-2.93035 -0.45983,-3.53417c-0.80409,-0.47458 -1.86295,-0.12927 -2.7937,-0.20351c0,0 -0.88687,0.36047 -0.72609,-1.5689c0.16078,-1.92937 1.04765,-2.28983 1.04765,-2.28983c0.03386,0.00293 0.06993,0.00637 0.10806,0.01034c0.51212,-0.43335 1.16926,0.02815 1.16926,0.02815z" fill="#985818" stroke="none" stroke-width="0.5" stroke-linecap="butt"/><path d="M485.53203,310.96423c0,1.93605 -0.17871,1.88765 -0.17871,1.88765c0,0 -10.20233,0.50506 -10.84633,-0.19955c-0.56124,-0.61404 -0.11977,-2.63929 -0.35788,-3.43637c-0.14288,-0.47827 -2.93737,0.30955 -3.78236,-0.44777c-0.46215,-0.4142 -0.14501,-1.03546 -0.08237,-1.61999c0.07606,-0.70981 -0.04647,-1.36548 -0.14072,-1.53049c-0.30684,-0.53715 -0.93323,-0.17123 -1.05317,-0.17123c-1.00447,0 -2.06137,-0.27253 -3.07101,-0.19127c-1.25903,0.10134 -2.44457,0.46352 -3.36329,-0.76296c-0.54899,-0.73289 0.78386,-3.04653 -0.1143,-3.22493c-1.006,-0.19982 -1.59966,0.17302 -2.62532,0.17302c0,0 -0.96803,-0.22339 -0.96803,-2.15945c0,-1.93605 1.11695,-1.56374 1.11695,-1.56374c1.12806,0 4.83391,-0.54733 5.88376,0.01825c1.89572,1.02128 0.85459,3.48297 0.93775,3.82516c0.17344,0.71373 5.52399,-1.10942 7.31588,0.81059c0.488,0.5229 -0.26194,2.19388 0.13879,2.78631c0.81492,1.20476 3.05788,-0.54327 3.55531,0.82351c0.16201,0.44515 -0.42514,3.47234 -0.28342,3.92436c0.06858,0.21871 0.43555,-0.15938 0.66391,-0.17903c0.54965,-0.0473 1.10324,-0.01737 1.65491,-0.02052c1.29068,-0.00738 2.5814,0 3.8721,0c0,0 1.72756,-0.67762 1.72756,1.25844z" fill="#985818" stroke="none" stroke-width="0.5" stroke-linecap="butt"/><path d="M460.22777,273.22909c0,0 20.97745,0 30.97684,0c9.38692,0 27.29834,0 27.29834,0" fill="none" stroke="#000000" stroke-width="4.5" stroke-linecap="round"/></g><g><path d="M398.8991,312.93836v-60.98565h60.98565v60.98565z" fill="#c07830" stroke="none" stroke-width="0" stroke-linecap="butt"/><path d="M398.94085,275.05046v-22.42594h60.98565v22.42594z" fill="#e5a26e" stroke="none" stroke-width="0" stroke-linecap="butt"/><path d="M400.21014,253.79818c0,0 20.97745,0 30.97684,0c9.38692,0 27.29834,0 27.29834,0" fill="none" stroke="#000000" stroke-width="4.5" stroke-linecap="round"/><path d="M415.50821,282.47202c0.49312,0.514 -0.24187,1.44356 -0.07337,2.13563c0.17725,0.72802 1.49544,0.10209 2.24437,0.12506c1.50531,0.04617 4.14927,-0.24947 5.2828,0.90169c0.81554,0.82824 -0.41725,2.94832 0.64173,3.42752c1.14239,0.51695 4.24032,-0.28762 5.34346,0.30852c0.89779,0.48517 -0.17365,2.87469 0.48754,3.65202c0.19906,1.06257 0.88978,0.82898 1.9005,0.6524c1.77363,-0.30987 4.34969,-1.17615 5.67356,0.205c0.73471,0.7665 0.19137,3.42496 0.44446,3.43761c1.08462,0.05423 2.54809,-0.22213 3.29662,0.56466c0.79221,0.8327 0.16168,2.25275 0.12464,3.40149c-0.00557,0.17282 2.86854,-0.33213 3.81717,0.28078c0.65679,0.42435 -0.04355,2.46602 0.17092,2.55907c0.59424,0.25781 2.09299,1.06083 3.32036,1.40392c0.81796,0.22864 -0.52254,2.89998 0.52274,3.79308c0.37393,0.31949 1.04877,-0.16953 1.83005,-0.2379c1.17416,-0.10276 2.47797,0.08002 2.47797,0.08002l2.51691,0.11617c0.90489,0.16253 0.6235,2.43666 0.6235,3.38833c0,0.56622 -2.97446,0.23865 -5.90525,0.29114c-2.6037,0.04664 -5.17292,0.20745 -5.59144,-0.41693c-0.26168,-0.3904 0.39357,-2.52209 0.03924,-2.57441c-1.00049,-0.14772 -4.08087,-0.47289 -4.8927,-1.07599c-1.0263,-0.76243 -1.06524,-2.50628 -2.15708,-3.17148c-0.68567,-0.41774 -1.68533,-0.27673 -2.25751,-0.84c-0.52542,-0.51723 -0.32634,-1.46805 -0.72019,-2.09132c-0.14671,-0.23217 -1.8513,-0.28544 -2.3876,-0.53044c-0.84405,0.00707 -1.64402,0.08263 -1.90936,0.08171c-1.08084,-0.36214 -2.43777,-0.27911 -3.24251,-1.08641c-0.71112,-0.71337 0.32995,-2.75306 -0.65802,-2.9493c-1.22716,-0.24374 -5.59445,0.73886 -6.24911,-0.13468c-0.31439,-0.41949 0.05809,-3.06791 -0.25576,-3.4878c-0.1061,-0.14195 -5.20813,-0.00411 -5.30504,-0.05602c-1.01338,-0.54284 0.06067,-3.46479 -0.48335,-4.47754c-0.20541,-0.38238 -6.72572,0.26461 -7.89891,-0.71458c-1.10822,-0.92496 0.22626,-1.57525 -0.60592,-2.64755c-0.76789,-0.98946 -3.5837,-0.11555 -3.30654,-0.93032c-0.0366,-0.11696 -0.39556,-2.13885 0.07447,-3.51651c0.26453,-0.77531 1.21251,-1.28646 1.59756,-1.28646h1.93605c2.74587,0 7.39752,-0.80617 9.53304,1.4198zM412.22414,284.58732c0.02781,0.01761 0.05537,0.03503 0.08268,0.05223c-0.01874,-0.03573 -0.04715,-0.05116 -0.08268,-0.05223z" fill="#985818" stroke="none" stroke-width="0.5" stroke-linecap="butt"/><path d="M409.34713,279.89056c0,-0.82018 0.34745,-1.2929 0.74798,-1.56536c-0.72862,0.04479 -1.46274,0.12384 -2.20441,0.24832c0,0 -1.90971,0.31828 -2.228,-1.59143c-0.31829,-1.90971 1.59143,-2.22799 1.59143,-2.22799c5.60572,-0.92831 10.74056,0.60926 16.29127,0.14168l1.1288,-0.00669c0,0 1.93606,0 1.93606,1.93605c0,1.11834 -0.646,1.59069 -1.19169,1.79018c0.94888,-0.00685 1.88642,-0.01463 2.80507,-0.01546c0,0 1.93605,0 1.93605,1.93605c0,1.93605 -1.93605,1.93606 -1.93605,1.93606c-5.18487,-0.0043 -10.86174,0.16305 -15.96805,-0.67169l-0.97241,0.02634c0,0 -1.93605,0 -1.93605,-1.93606z" fill="#e89058" stroke="none" stroke-width="0.5" stroke-linecap="butt"/><path d="M459.82163,282.56073l-2.18613,0.07261c-5.38822,0 -10.76138,0.11827 -16.13322,-0.32936c0,0 -1.92936,-0.16078 -1.76858,-2.09015c0.0613,-0.73552 0.37963,-1.16728 0.7501,-1.41998c-0.94242,-0.02011 -1.89237,-0.03348 -2.85419,-0.03261c0,0 -1.93605,0 -1.93605,-1.93605c0,-1.93605 1.93605,-1.93605 1.93605,-1.93605c5.35269,0.00444 10.27385,0.45788 15.65032,0.00669l1.61282,-0.00669c0,0 1.93606,0 1.93606,1.93605c0,1.93605 -1.93606,1.93605 -1.93606,1.93605l-1.29126,-0.00669c-0.08348,0.0069 -0.16685,0.0136 -0.25015,0.02008c1.42724,-0.00441 5.10589,-0.086 6.53481,-0.086z" fill="#e89058" stroke="none" stroke-width="0.5" stroke-linecap="butt"/><path d="M435.46989,282.35585l2.11078,0.06079c1.48392,0.125 3.0346,-0.05196 4.4596,-0.05344c0.94123,-0.00097 1.82762,-0.13527 2.60372,0.69393c0.44857,0.47926 -0.0605,2.54145 0.17928,3.15252c0.2591,0.66032 6.43214,-0.38177 7.02809,0.14648c0.98681,0.87471 0.43233,2.19924 0.41896,3.72232c0.93351,0.38257 2.91101,-0.53726 3.50663,0.25402c0.42772,0.56822 -0.03652,2.62492 0.10134,3.32264c0.18721,0.94747 3.05327,-0.33161 3.73266,0.35482c0.38172,0.38569 0.35949,1.95593 0.32822,3.54435c-0.03698,1.87858 -0.02839,3.78259 -0.02839,3.78259c0,0 -1.33863,0.35285 -3.25522,0.07905c-0.80594,-0.11514 -0.73309,-0.75221 -0.66073,-1.46866c0.09972,-0.98734 0.39937,-2.12542 0.2138,-2.25596c-0.39244,-0.27606 -3.34985,0.61376 -3.93709,-0.36498c-0.29906,-0.49845 0.2716,-2.8233 0.10134,-3.37908c-0.19402,-0.63331 -1.31751,-0.22248 -1.97868,-0.18277c-1.40195,0.0842 -2.31838,-0.01428 -3.26227,0.15578c-0.6772,0.12201 -1.36853,0.81585 -2.26347,-0.19895c-0.43187,-0.48971 0.27103,-2.65775 -0.05414,-3.22396c-0.10214,-0.17786 -1.87399,-0.2022 -3.89648,-0.15325c-1.2845,0.03109 -2.67011,0.58045 -3.79327,-0.43033c-0.88305,-0.79469 0.56325,-2.93035 -0.45983,-3.53417c-0.80409,-0.47458 -1.86295,-0.12927 -2.7937,-0.20351c0,0 -0.88687,0.36047 -0.72609,-1.5689c0.16078,-1.92937 1.04765,-2.28983 1.04765,-2.28983c0.03386,0.00293 0.06992,0.00637 0.10806,0.01034c0.51212,-0.43335 1.16926,0.02815 1.16926,0.02815z" fill="#985818" stroke="none" stroke-width="0.5" stroke-linecap="butt"/><path d="M425.51441,310.96423c0,1.93605 -0.17871,1.88765 -0.17871,1.88765c0,0 -10.20234,0.50506 -10.84634,-0.19955c-0.56124,-0.61404 -0.11977,-2.63929 -0.35788,-3.43637c-0.14288,-0.47827 -2.93737,0.30955 -3.78236,-0.44777c-0.46215,-0.4142 -0.145,-1.03546 -0.08237,-1.61999c0.07606,-0.70981 -0.04646,-1.36548 -0.14072,-1.53049c-0.30684,-0.53715 -0.93324,-0.17123 -1.05318,-0.17123c-1.00447,0 -2.06137,-0.27253 -3.07101,-0.19127c-1.25903,0.10134 -2.44456,0.46352 -3.36328,-0.76296c-0.54899,-0.73289 0.78386,-3.04653 -0.11431,-3.22493c-1.006,-0.19982 -1.59966,0.17302 -2.62532,0.17302c0,0 -0.96802,-0.22339 -0.96802,-2.15945c0,-1.93605 1.11695,-1.56374 1.11695,-1.56374c1.12806,0 4.8339,-0.54733 5.88375,0.01825c1.89572,1.02128 0.8546,3.48297 0.93775,3.82516c0.17343,0.71373 5.52399,-1.10942 7.31587,0.81059c0.488,0.5229 -0.26195,2.19388 0.13878,2.78631c0.81492,1.20476 3.05788,-0.54327 3.55531,0.82351c0.16201,0.44515 -0.42515,3.47234 -0.28342,3.92436c0.06858,0.21871 0.43555,-0.15938 0.66392,-0.17903c0.54965,-0.0473 1.10324,-0.01737 1.65491,-0.02052c1.29068,-0.00738 2.5814,0 3.87211,0c0,0 1.72755,-0.67762 1.72755,1.25844z" fill="#985818" stroke="none" stroke-width="0.5" stroke-linecap="butt"/><path d="M400.21014,273.22909c0,0 20.97745,0 30.97684,0c9.38692,0 27.29834,0 27.29834,0" fill="none" stroke="#000000" stroke-width="4.5" stroke-linecap="round"/></g><g><path d="M339.8495,312.93836v-60.98565h60.98565v60.98565z" fill="#c07830" stroke="none" stroke-width="0" stroke-linecap="butt"/><path d="M339.89125,275.05046v-22.42594h60.98565v22.42594z" fill="#e5a26e" stroke="none" stroke-width="0" stroke-linecap="butt"/><path d="M399.43571,253.79818c0,0 -17.91141,0 -27.29834,0c-9.99939,0 -30.97684,0 -30.97684,0" fill="none" stroke="#000000" stroke-width="4.5" stroke-linecap="round"/><path d="M356.45861,282.47202c0.49312,0.514 -0.24187,1.44356 -0.07337,2.13563c0.17725,0.72802 1.49544,0.10209 2.24438,0.12506c1.50531,0.04617 4.14927,-0.24947 5.28279,0.90169c0.81555,0.82824 -0.41725,2.94832 0.64173,3.42752c1.14239,0.51695 4.24032,-0.28762 5.34346,0.30852c0.89779,0.48517 -0.17365,2.87469 0.48754,3.65202c0.19907,1.06257 0.88978,0.82898 1.9005,0.6524c1.77363,-0.30987 4.34968,-1.17615 5.67355,0.205c0.73471,0.7665 0.19138,3.42496 0.44446,3.43761c1.08461,0.05423 2.54809,-0.22213 3.29661,0.56466c0.79221,0.8327 0.16168,2.25275 0.12464,3.40149c-0.00557,0.17282 2.86854,-0.33213 3.81718,0.28078c0.6568,0.42435 -0.04355,2.46602 0.17092,2.55907c0.59424,0.25781 2.09299,1.06083 3.32036,1.40392c0.81796,0.22864 -0.52255,2.89998 0.52273,3.79308c0.37394,0.31949 1.04877,-0.16953 1.83004,-0.2379c1.17416,-0.10276 2.47798,0.08002 2.47798,0.08002l2.5169,0.11617c0.90488,0.16253 0.62351,2.43666 0.62351,3.38833c0,0.56622 -2.97446,0.23865 -5.90525,0.29114c-2.6037,0.04664 -5.17293,0.20745 -5.59144,-0.41693c-0.26168,-0.3904 0.39357,-2.52209 0.03924,-2.57441c-1.00049,-0.14772 -4.08086,-0.47289 -4.89269,-1.07599c-1.0263,-0.76243 -1.06525,-2.50628 -2.15708,-3.17148c-0.68567,-0.41774 -1.68533,-0.27673 -2.2575,-0.84c-0.52541,-0.51723 -0.32634,-1.46805 -0.72019,-2.09132c-0.14671,-0.23217 -1.85131,-0.28544 -2.38761,-0.53044c-0.84405,0.00707 -1.64402,0.08263 -1.90935,0.08171c-1.08083,-0.36214 -2.43777,-0.27911 -3.24251,-1.08641c-0.71112,-0.71337 0.32996,-2.75306 -0.65801,-2.9493c-1.22715,-0.24374 -5.59445,0.73886 -6.24912,-0.13468c-0.31439,-0.41949 0.0581,-3.06791 -0.25576,-3.4878c-0.1061,-0.14195 -5.20814,-0.00411 -5.30505,-0.05602c-1.01338,-0.54284 0.06067,-3.46479 -0.48335,-4.47754c-0.2054,-0.38238 -6.72572,0.26461 -7.89891,-0.71458c-1.10822,-0.92496 0.22626,-1.57525 -0.60592,-2.64755c-0.76789,-0.98946 -3.58369,-0.11555 -3.30654,-0.93032c-0.0366,-0.11696 -0.39556,-2.13885 0.07447,-3.51651c0.26452,-0.77531 1.21251,-1.28646 1.59756,-1.28646h1.93605c2.74587,0 7.39751,-0.80617 9.53304,1.4198zM353.17453,284.58732c0.02781,0.01761 0.05537,0.03503 0.08268,0.05223c-0.01874,-0.03573 -0.04715,-0.05116 -0.08268,-0.05223z" fill="#985818" stroke="none" stroke-width="0.5" stroke-linecap="butt"/><path d="M350.29753,279.89056c0,-0.82018 0.34745,-1.2929 0.74798,-1.56536c-0.72862,0.04479 -1.46274,0.12384 -2.20441,0.24832c0,0 -1.90972,0.31828 -2.228,-1.59143c-0.31829,-1.90971 1.59143,-2.22799 1.59143,-2.22799c5.60572,-0.92831 10.74056,0.60926 16.29128,0.14168l1.1288,-0.00669c0,0 1.93606,0 1.93606,1.93605c0,1.11834 -0.646,1.59069 -1.19169,1.79018c0.94889,-0.00685 1.88642,-0.01463 2.80507,-0.01546c0,0 1.93605,0 1.93605,1.93605c0,1.93605 -1.93605,1.93606 -1.93605,1.93606c-5.18487,-0.0043 -10.86173,0.16305 -15.96804,-0.67169l-0.97242,0.02634c0,0 -1.93605,0 -1.93605,-1.93606z" fill="#e89058" stroke="none" stroke-width="0.5" stroke-linecap="butt"/><path d="M400.77203,282.56073l-2.18613,0.07261c-5.38822,0 -10.76137,0.11827 -16.13321,-0.32936c0,0 -1.92937,-0.16078 -1.76859,-2.09015c0.0613,-0.73552 0.37963,-1.16728 0.75011,-1.41998c-0.94242,-0.02011 -1.89236,-0.03348 -2.85419,-0.03261c0,0 -1.93605,0 -1.93605,-1.93605c0,-1.93605 1.93605,-1.93605 1.93605,-1.93605c5.35269,0.00444 10.27386,0.45788 15.65032,0.00669l1.61282,-0.00669c0,0 1.93605,0 1.93605,1.93605c0,1.93605 -1.93605,1.93605 -1.93605,1.93605l-1.29126,-0.00669c-0.08348,0.0069 -0.16685,0.0136 -0.25014,0.02008c1.42724,-0.00441 5.10588,-0.086 6.5348,-0.086z" fill="#e89058" stroke="none" stroke-width="0.5" stroke-linecap="butt"/><path d="M376.42029,282.35585l2.11078,0.06079c1.48392,0.125 3.0346,-0.05196 4.45959,-0.05344c0.94123,-0.00097 1.82762,-0.13527 2.60372,0.69393c0.44857,0.47926 -0.06049,2.54145 0.17928,3.15252c0.2591,0.66032 6.43214,-0.38177 7.02809,0.14648c0.98681,0.87471 0.43233,2.19924 0.41897,3.72232c0.93351,0.38257 2.91101,-0.53726 3.50662,0.25402c0.42772,0.56822 -0.03653,2.62492 0.10133,3.32264c0.18721,0.94747 3.05328,-0.33161 3.73266,0.35482c0.38173,0.38569 0.35949,1.95593 0.32822,3.54435c-0.03699,1.87858 -0.0284,3.78259 -0.0284,3.78259c0,0 -1.33863,0.35285 -3.25522,0.07905c-0.80594,-0.11514 -0.73309,-0.75221 -0.66073,-1.46866c0.09972,-0.98734 0.39937,-2.12542 0.2138,-2.25596c-0.39244,-0.27606 -3.34985,0.61376 -3.93708,-0.36498c-0.29905,-0.49845 0.27159,-2.8233 0.10133,-3.37908c-0.19401,-0.63331 -1.31751,-0.22248 -1.97868,-0.18277c-1.40196,0.0842 -2.31838,-0.01428 -3.26226,0.15578c-0.67719,0.12201 -1.36853,0.81585 -2.26347,-0.19895c-0.43187,-0.48971 0.27103,-2.65775 -0.05414,-3.22396c-0.10214,-0.17786 -1.87399,-0.2022 -3.89648,-0.15325c-1.2845,0.03109 -2.67011,0.58045 -3.79327,-0.43033c-0.88305,-0.79469 0.56325,-2.93035 -0.45983,-3.53417c-0.8041,-0.47458 -1.86295,-0.12927 -2.7937,-0.20351c0,0 -0.88687,0.36047 -0.72609,-1.5689c0.16078,-1.92937 1.04765,-2.28983 1.04765,-2.28983c0.03387,0.00293 0.06993,0.00637 0.10806,0.01034c0.51212,-0.43335 1.16925,0.02815 1.16925,0.02815z" fill="#985818" stroke="none" stroke-width="0.5" stroke-linecap="butt"/><path d="M366.46481,310.96423c0,1.93605 -0.17871,1.88765 -0.17871,1.88765c0,0 -10.20233,0.50506 -10.84633,-0.19955c-0.56123,-0.61404 -0.11977,-2.63929 -0.35788,-3.43637c-0.14288,-0.47827 -2.93736,0.30955 -3.78235,-0.44777c-0.46215,-0.4142 -0.14501,-1.03546 -0.08237,-1.61999c0.07606,-0.70981 -0.04646,-1.36548 -0.14072,-1.53049c-0.30684,-0.53715 -0.93324,-0.17123 -1.05318,-0.17123c-1.00447,0 -2.06137,-0.27253 -3.071,-0.19127c-1.25903,0.10134 -2.44456,0.46352 -3.36328,-0.76296c-0.54899,-0.73289 0.78386,-3.04653 -0.1143,-3.22493c-1.006,-0.19982 -1.59966,0.17302 -2.62532,0.17302c0,0 -0.96803,-0.22339 -0.96803,-2.15945c0,-1.93605 1.11696,-1.56374 1.11696,-1.56374c1.12806,0 4.8339,-0.54733 5.88375,0.01825c1.89572,1.02128 0.8546,3.48297 0.93775,3.82516c0.17343,0.71373 5.52399,-1.10942 7.31588,0.81059c0.48799,0.5229 -0.26195,2.19388 0.13878,2.78631c0.81492,1.20476 3.05788,-0.54327 3.55531,0.82351c0.16201,0.44515 -0.42515,3.47234 -0.28342,3.92436c0.06857,0.21871 0.43556,-0.15938 0.66392,-0.17903c0.54965,-0.0473 1.10324,-0.01737 1.65491,-0.02052c1.29068,-0.00738 2.5814,0 3.8721,0c0,0 1.72756,-0.67762 1.72756,1.25844z" fill="#985818" stroke="none" stroke-width="0.5" stroke-linecap="butt"/><path d="M399.43571,273.22909c0,0 -17.91141,0 -27.29834,0c-9.99939,0 -30.97684,0 -30.97684,0" fill="none" stroke="#000000" stroke-width="4.5" stroke-linecap="round"/></g><g><g><g><path d="M239.0489,360.94848v-60.98565h61.87502v60.98565z" fill="#c07830" stroke="none" stroke-width="0" stroke-linecap="butt"/><path d="M239.09126,323.06055v-22.42594h61.87502v22.42594z" fill="#e5a26e" stroke="none" stroke-width="0" stroke-linecap="butt"/><path d="M240.37907,301.80825c0,0 21.28336,0 31.42859,0c9.52382,0 27.69644,0 27.69644,0" fill="none" stroke="#000000" stroke-width="4.5" stroke-linecap="round"/><path d="M255.90022,330.48211c0.50031,0.514 -0.24539,1.44356 -0.07443,2.13563c0.17983,0.72802 1.51725,0.10209 2.27711,0.12506c1.52726,0.04617 4.20978,-0.24947 5.35983,0.90169c0.82743,0.82824 -0.42333,2.94832 0.65109,3.42752c1.15905,0.51695 4.30216,-0.28762 5.42139,0.30852c0.91088,0.48517 -0.17618,2.87469 0.49466,3.65202c0.20197,1.06257 0.90275,0.82898 1.92821,0.6524c1.7995,-0.30987 4.41312,-1.17615 5.7563,0.205c0.74542,0.7665 0.19416,3.42496 0.45094,3.43761c1.10043,0.05423 2.58525,-0.22213 3.34469,0.56466c0.80376,0.8327 0.16404,2.25275 0.12646,3.40149c-0.00565,0.17282 2.91037,-0.33213 3.87285,0.28078c0.66637,0.42435 -0.04419,2.46602 0.17341,2.55907c0.60291,0.25781 2.12351,1.06083 3.36878,1.40392c0.82989,0.22864 -0.53017,2.89998 0.53035,3.79308c0.37939,0.31949 1.06406,-0.16953 1.85673,-0.2379c1.19128,-0.10276 2.51412,0.08002 2.51412,0.08002l2.5536,0.11617c0.91808,0.16253 0.63259,2.43666 0.63259,3.38833c0,0.56622 -3.01784,0.23865 -5.99137,0.29114c-2.64167,0.04664 -5.24837,0.20745 -5.67298,-0.41693c-0.2655,-0.3904 0.39932,-2.52209 0.03982,-2.57441c-1.01508,-0.14772 -4.14038,-0.47289 -4.96405,-1.07599c-1.04127,-0.76243 -1.08078,-2.50628 -2.18855,-3.17148c-0.69567,-0.41774 -1.70991,-0.27673 -2.29042,-0.84c-0.53308,-0.51723 -0.3311,-1.46805 -0.73069,-2.09132c-0.14885,-0.23217 -1.8783,-0.28544 -2.42242,-0.53044c-0.85636,0.00707 -1.668,0.08263 -1.93719,0.08171c-1.09659,-0.36214 -2.47331,-0.27911 -3.2898,-1.08641c-0.72149,-0.71337 0.33476,-2.75306 -0.66762,-2.9493c-1.24505,-0.24374 -5.67604,0.73886 -6.34024,-0.13468c-0.31897,-0.41949 0.05894,-3.06791 -0.25949,-3.4878c-0.10765,-0.14195 -5.28408,-0.00411 -5.38241,-0.05602c-1.02816,-0.54284 0.06155,-3.46479 -0.4904,-4.47754c-0.20841,-0.38238 -6.8238,0.26461 -8.0141,-0.71458c-1.12438,-0.92496 0.22957,-1.57525 -0.61476,-2.64755c-0.7791,-0.98946 -3.63596,-0.11555 -3.35476,-0.93032c-0.03713,-0.11696 -0.40134,-2.13885 0.07556,-3.51651c0.26838,-0.77531 1.23019,-1.28646 1.62087,-1.28646h1.96428c2.78592,0 7.50539,-0.80617 9.67206,1.4198zM252.56826,332.59738c0.02822,0.01761 0.05618,0.03503 0.08389,0.05223c-0.01901,-0.03573 -0.04784,-0.05116 -0.08389,-0.05223z" fill="#985818" stroke="none" stroke-width="0.5" stroke-linecap="butt"/><path d="M249.64928,327.90065c0,-0.82018 0.35253,-1.2929 0.75889,-1.56536c-0.73925,0.04479 -1.48408,0.12384 -2.23657,0.24832c0,0 -1.93756,0.31828 -2.26049,-1.59143c-0.32293,-1.90971 1.61463,-2.22799 1.61463,-2.22799c5.68747,-0.92831 10.89719,0.60926 16.52886,0.14168l1.14526,-0.00669c0,0 1.96428,0 1.96428,1.93605c0,1.11834 -0.65542,1.59069 -1.20907,1.79018c0.96273,-0.00685 1.91392,-0.01463 2.84598,-0.01546c0,0 1.96428,0 1.96428,1.93605c0,1.93605 -1.96428,1.93606 -1.96428,1.93606c-5.26048,-0.0043 -11.02013,0.16305 -16.20091,-0.67169l-0.98659,0.02634c0,0 -1.96429,0 -1.96429,-1.93606z" fill="#e89058" stroke="none" stroke-width="0.5" stroke-linecap="butt"/><path d="M300.85986,330.57079l-2.21801,0.07261c-5.4668,0 -10.91831,0.11827 -16.36849,-0.32936c0,0 -1.9575,-0.16078 -1.79437,-2.09015c0.06218,-0.73552 0.38516,-1.16728 0.76104,-1.41998c-0.95617,-0.02011 -1.91996,-0.03348 -2.8958,-0.03261c0,0 -1.96429,0 -1.96429,-1.93605c0,-1.93605 1.96429,-1.93605 1.96429,-1.93605c5.43075,0.00444 10.42368,0.45788 15.87854,0.00669l1.63634,-0.00669c0,0 1.96428,0 1.96428,1.93605c0,1.93605 -1.96428,1.93605 -1.96428,1.93605l-1.31009,-0.00669c-0.0847,0.0069 -0.16929,0.0136 -0.2538,0.02008c1.44805,-0.00441 5.18035,-0.086 6.63011,-0.086z" fill="#e89058" stroke="none" stroke-width="0.5" stroke-linecap="butt"/><path d="M276.15299,330.36591l2.14155,0.06079c1.50556,0.125 3.07885,-0.05196 4.52464,-0.05344c0.95495,-0.00097 1.85428,-0.13527 2.64169,0.69393c0.45511,0.47926 -0.06137,2.54145 0.18189,3.15252c0.26288,0.66032 6.52594,-0.38177 7.13057,0.14648c1.0012,0.87471 0.43864,2.19924 0.42508,3.72232c0.94712,0.38257 2.95345,-0.53726 3.55776,0.25402c0.43396,0.56822 -0.03705,2.62492 0.10282,3.32264c0.18994,0.94747 3.0978,-0.33161 3.78709,0.35482c0.3873,0.38569 0.36473,1.95593 0.33301,3.54435c-0.03753,1.87858 -0.02881,3.78259 -0.02881,3.78259c0,0 -1.35815,0.35285 -3.30269,0.07905c-0.81769,-0.11514 -0.74378,-0.75221 -0.67037,-1.46866c0.10117,-0.98734 0.40518,-2.12542 0.21692,-2.25596c-0.39815,-0.27606 -3.39869,0.61376 -3.9945,-0.36498c-0.30342,-0.49845 0.27555,-2.8233 0.10281,-3.37908c-0.19684,-0.63331 -1.33672,-0.22248 -2.00754,-0.18277c-1.4224,0.0842 -2.35218,-0.01428 -3.30983,0.15578c-0.68707,0.12201 -1.3885,0.81585 -2.29648,-0.19895c-0.43817,-0.48971 0.27498,-2.65775 -0.05493,-3.22396c-0.10363,-0.17786 -1.90132,-0.2022 -3.9533,-0.15325c-1.30324,0.03109 -2.70906,0.58045 -3.8486,-0.43033c-0.89593,-0.79469 0.57146,-2.93035 -0.46654,-3.53417c-0.81583,-0.47458 -1.89012,-0.12927 -2.83444,-0.20351c0,0 -0.8998,0.36047 -0.73668,-1.5689c0.16312,-1.92937 1.06294,-2.28983 1.06294,-2.28983c0.03435,0.00293 0.07095,0.00637 0.10964,0.01034c0.5196,-0.43335 1.1863,0.02815 1.1863,0.02815z" fill="#985818" stroke="none" stroke-width="0.5" stroke-linecap="butt"/><path d="M266.05232,358.97432c0,1.93605 -0.18132,1.88765 -0.18132,1.88765c0,0 -10.35111,0.50506 -11.00451,-0.19955c-0.56942,-0.61404 -0.12152,-2.63929 -0.36311,-3.43637c-0.14496,-0.47827 -2.9802,0.30955 -3.83751,-0.44777c-0.46889,-0.4142 -0.14712,-1.03546 -0.08357,-1.61999c0.07717,-0.70981 -0.04714,-1.36548 -0.14277,-1.53049c-0.31131,-0.53715 -0.94685,-0.17123 -1.06854,-0.17123c-1.01912,0 -2.09143,-0.27253 -3.1158,-0.19127c-1.27739,0.10134 -2.48021,0.46352 -3.41233,-0.76296c-0.557,-0.73289 0.79529,-3.04653 -0.11598,-3.22493c-1.02067,-0.19982 -1.62299,0.17302 -2.66361,0.17302c0,0 -0.98215,-0.22339 -0.98215,-2.15945c0,-1.93605 1.13325,-1.56374 1.13325,-1.56374c1.14451,0 4.90439,-0.54733 5.96955,0.01825c1.92337,1.02128 0.86705,3.48297 0.95143,3.82516c0.17597,0.71373 5.60455,-1.10942 7.42257,0.81059c0.49512,0.5229 -0.26577,2.19388 0.1408,2.78631c0.8268,1.20476 3.10247,-0.54327 3.60716,0.82351c0.16437,0.44515 -0.43134,3.47234 -0.28754,3.92436c0.06958,0.21871 0.4419,-0.15938 0.67359,-0.17903c0.55767,-0.0473 1.11934,-0.01737 1.67905,-0.02052c1.3095,-0.00738 2.61905,0 3.92857,0c0,0 1.75274,-0.67762 1.75274,1.25844z" fill="#985818" stroke="none" stroke-width="0.5" stroke-linecap="butt"/><path d="M299.50408,321.23918c0,0 -18.17262,0 -27.69644,0c-10.14522,0 -31.42859,0 -31.42859,0" fill="none" stroke="#000000" stroke-width="4.5" stroke-linecap="round"/></g><g><path d="M178.15601,360.94848v-60.98565h61.87503v60.98565z" fill="#c07830" stroke="none" stroke-width="0" stroke-linecap="butt"/><path d="M178.19837,323.06055v-22.42594h61.87502v22.42594z" fill="#e5a26e" stroke="none" stroke-width="0" stroke-linecap="butt"/><path d="M179.48618,301.80825c0,0 21.28337,0 31.42859,0c9.52381,0 27.69644,0 27.69644,0" fill="none" stroke="#000000" stroke-width="4.5" stroke-linecap="round"/><path d="M195.00735,330.48211c0.50031,0.514 -0.24539,1.44356 -0.07443,2.13563c0.17983,0.72802 1.51725,0.10209 2.2771,0.12506c1.52726,0.04617 4.20978,-0.24947 5.35983,0.90169c0.82743,0.82824 -0.42333,2.94832 0.65109,3.42752c1.15905,0.51695 4.30216,-0.28762 5.42139,0.30852c0.91088,0.48517 -0.17617,2.87469 0.49466,3.65202c0.20196,1.06257 0.90276,0.82898 1.92822,0.6524c1.7995,-0.30987 4.41312,-1.17615 5.7563,0.205c0.74542,0.7665 0.19416,3.42496 0.45094,3.43761c1.10044,0.05423 2.58524,-0.22213 3.34469,0.56466c0.80376,0.8327 0.16404,2.25275 0.12646,3.40149c-0.00565,0.17282 2.91038,-0.33213 3.87285,0.28078c0.66637,0.42435 -0.04419,2.46602 0.17341,2.55907c0.60291,0.25781 2.1235,1.06083 3.36878,1.40392c0.82989,0.22864 -0.53016,2.89998 0.53036,3.79308c0.37938,0.31949 1.06405,-0.16953 1.85673,-0.2379c1.19128,-0.10276 2.51412,0.08002 2.51412,0.08002l2.5536,0.11617c0.91809,0.16253 0.6326,2.43666 0.6326,3.38833c0,0.56622 -3.01785,0.23865 -5.99137,0.29114c-2.64167,0.04664 -5.24836,0.20745 -5.67298,-0.41693c-0.2655,-0.3904 0.39932,-2.52209 0.03982,-2.57441c-1.01508,-0.14772 -4.14038,-0.47289 -4.96405,-1.07599c-1.04127,-0.76243 -1.08078,-2.50628 -2.18854,-3.17148c-0.69567,-0.41774 -1.70991,-0.27673 -2.29042,-0.84c-0.53308,-0.51723 -0.3311,-1.46805 -0.73069,-2.09132c-0.14885,-0.23217 -1.8783,-0.28544 -2.42243,-0.53044c-0.85636,0.00707 -1.668,0.08263 -1.93719,0.08171c-1.0966,-0.36214 -2.47332,-0.27911 -3.2898,-1.08641c-0.72149,-0.71337 0.33476,-2.75306 -0.66762,-2.9493c-1.24506,-0.24374 -5.67604,0.73886 -6.34024,-0.13468c-0.31897,-0.41949 0.05894,-3.06791 -0.25949,-3.4878c-0.10765,-0.14195 -5.28408,-0.00411 -5.38242,-0.05602c-1.02816,-0.54284 0.06155,-3.46479 -0.4904,-4.47754c-0.20841,-0.38238 -6.8238,0.26461 -8.0141,-0.71458c-1.12438,-0.92496 0.22957,-1.57525 -0.61476,-2.64755c-0.7791,-0.98946 -3.63596,-0.11555 -3.35476,-0.93032c-0.03713,-0.11696 -0.40134,-2.13885 0.07556,-3.51651c0.26838,-0.77531 1.23019,-1.28646 1.62086,-1.28646h1.96428c2.78592,0 7.50539,-0.80617 9.67206,1.4198zM191.67537,332.59738c0.02822,0.01761 0.05618,0.03503 0.08389,0.05223c-0.01901,-0.03573 -0.04784,-0.05116 -0.08389,-0.05223z" fill="#985818" stroke="none" stroke-width="0.5" stroke-linecap="butt"/><path d="M188.75642,327.90065c0,-0.82018 0.35253,-1.2929 0.75889,-1.56536c-0.73925,0.04479 -1.48407,0.12384 -2.23656,0.24832c0,0 -1.93757,0.31828 -2.26049,-1.59143c-0.32293,-1.90971 1.61463,-2.22799 1.61463,-2.22799c5.68747,-0.92831 10.89719,0.60926 16.52886,0.14168l1.14527,-0.00669c0,0 1.96428,0 1.96428,1.93605c0,1.11834 -0.65542,1.59069 -1.20907,1.79018c0.96272,-0.00685 1.91393,-0.01463 2.84598,-0.01546c0,0 1.96429,0 1.96429,1.93605c0,1.93605 -1.96429,1.93606 -1.96429,1.93606c-5.26048,-0.0043 -11.02013,0.16305 -16.20091,-0.67169l-0.9866,0.02634c0,0 -1.96428,0 -1.96428,-1.93606z" fill="#e89058" stroke="none" stroke-width="0.5" stroke-linecap="butt"/><path d="M239.967,330.57079l-2.21801,0.07261c-5.4668,0 -10.91831,0.11827 -16.36849,-0.32936c0,0 -1.9575,-0.16078 -1.79438,-2.09015c0.06219,-0.73552 0.38517,-1.16728 0.76105,-1.41998c-0.95616,-0.02011 -1.91997,-0.03348 -2.89581,-0.03261c0,0 -1.96428,0 -1.96428,-1.93605c0,-1.93605 1.96428,-1.93605 1.96428,-1.93605c5.43075,0.00444 10.42368,0.45788 15.87855,0.00669l1.63634,-0.00669c0,0 1.96428,0 1.96428,1.93605c0,1.93605 -1.96428,1.93605 -1.96428,1.93605l-1.31009,-0.00669c-0.0847,0.0069 -0.16929,0.0136 -0.2538,0.02008c1.44805,-0.00441 5.18034,-0.086 6.6301,-0.086z" fill="#e89058" stroke="none" stroke-width="0.5" stroke-linecap="butt"/><path d="M215.26013,330.36591l2.14155,0.06079c1.50556,0.125 3.07885,-0.05196 4.52464,-0.05344c0.95496,-0.00097 1.85427,-0.13527 2.64169,0.69393c0.45511,0.47926 -0.06138,2.54145 0.18189,3.15252c0.26288,0.66032 6.52594,-0.38177 7.13058,0.14648c1.0012,0.87471 0.43863,2.19924 0.42507,3.72232c0.94712,0.38257 2.95346,-0.53726 3.55777,0.25402c0.43396,0.56822 -0.03706,2.62492 0.10281,3.32264c0.18994,0.94747 3.09781,-0.33161 3.78709,0.35482c0.38729,0.38569 0.36473,1.95593 0.33301,3.54435c-0.03752,1.87858 -0.0288,3.78259 -0.0288,3.78259c0,0 -1.35815,0.35285 -3.30269,0.07905c-0.81769,-0.11514 -0.74378,-0.75221 -0.67037,-1.46866c0.10117,-0.98734 0.40519,-2.12542 0.21692,-2.25596c-0.39816,-0.27606 -3.3987,0.61376 -3.9945,-0.36498c-0.30342,-0.49845 0.27556,-2.8233 0.10282,-3.37908c-0.19685,-0.63331 -1.33672,-0.22248 -2.00755,-0.18277c-1.4224,0.0842 -2.35218,-0.01428 -3.30983,0.15578c-0.68708,0.12201 -1.3885,0.81585 -2.29648,-0.19895c-0.43817,-0.48971 0.27499,-2.65775 -0.05493,-3.22396c-0.10363,-0.17786 -1.90132,-0.2022 -3.9533,-0.15325c-1.30323,0.03109 -2.70905,0.58045 -3.8486,-0.43033c-0.89593,-0.79469 0.57146,-2.93035 -0.46654,-3.53417c-0.81582,-0.47458 -1.89012,-0.12927 -2.83444,-0.20351c0,0 -0.8998,0.36047 -0.73668,-1.5689c0.16312,-1.92937 1.06293,-2.28983 1.06293,-2.28983c0.03435,0.00293 0.07095,0.00637 0.10964,0.01034c0.51959,-0.43335 1.18631,0.02815 1.18631,0.02815z" fill="#985818" stroke="none" stroke-width="0.5" stroke-linecap="butt"/><path d="M205.15946,358.97432c0,1.93605 -0.18132,1.88765 -0.18132,1.88765c0,0 -10.35111,0.50506 -11.00451,-0.19955c-0.56942,-0.61404 -0.12152,-2.63929 -0.3631,-3.43637c-0.14496,-0.47827 -2.98021,0.30955 -3.83752,-0.44777c-0.46889,-0.4142 -0.14712,-1.03546 -0.08357,-1.61999c0.07717,-0.70981 -0.04715,-1.36548 -0.14277,-1.53049c-0.31131,-0.53715 -0.94684,-0.17123 -1.06853,-0.17123c-1.01912,0 -2.09143,-0.27253 -3.1158,-0.19127c-1.27739,0.10134 -2.48022,0.46352 -3.41234,-0.76296c-0.557,-0.73289 0.79529,-3.04653 -0.11597,-3.22493c-1.02067,-0.19982 -1.62299,0.17302 -2.66361,0.17302c0,0 -0.98215,-0.22339 -0.98215,-2.15945c0,-1.93605 1.13324,-1.56374 1.13324,-1.56374c1.14451,0 4.9044,-0.54733 5.96956,0.01825c1.92337,1.02128 0.86705,3.48297 0.95143,3.82516c0.17597,0.71373 5.60455,-1.10942 7.42257,0.81059c0.49512,0.5229 -0.26576,2.19388 0.14081,2.78631c0.8268,1.20476 3.10247,-0.54327 3.60716,0.82351c0.16437,0.44515 -0.43134,3.47234 -0.28755,3.92436c0.06958,0.21871 0.4419,-0.15938 0.67359,-0.17903c0.55767,-0.0473 1.11933,-0.01737 1.67904,-0.02052c1.3095,-0.00738 2.61905,0 3.92857,0c0,0 1.75275,-0.67762 1.75275,1.25844z" fill="#985818" stroke="none" stroke-width="0.5" stroke-linecap="butt"/><path d="M179.48618,321.23918c0,0 21.28337,0 31.42859,0c9.52381,0 27.69644,0 27.69644,0" fill="none" stroke="#000000" stroke-width="4.5" stroke-linecap="round"/></g><g><path d="M117.26313,360.94848v-60.98565h61.87502v60.98565z" fill="#c07830" stroke="none" stroke-width="0" stroke-linecap="butt"/><path d="M117.30549,323.06055v-22.42594h61.87502v22.42594z" fill="#e5a26e" stroke="none" stroke-width="0" stroke-linecap="butt"/><path d="M118.59329,301.80825c0,0 21.28337,0 31.42859,0c9.52381,0 27.69644,0 27.69644,0" fill="none" stroke="#000000" stroke-width="4.5" stroke-linecap="round"/><path d="M134.11445,330.48211c0.50031,0.514 -0.2454,1.44356 -0.07444,2.13563c0.17983,0.72802 1.51725,0.10209 2.2771,0.12506c1.52726,0.04617 4.20978,-0.24947 5.35984,0.90169c0.82743,0.82824 -0.42333,2.94832 0.65109,3.42752c1.15905,0.51695 4.30216,-0.28762 5.42139,0.30852c0.91088,0.48517 -0.17618,2.87469 0.49465,3.65202c0.20196,1.06257 0.90276,0.82898 1.92822,0.6524c1.7995,-0.30987 4.41312,-1.17615 5.7563,0.205c0.74542,0.7665 0.19416,3.42496 0.45094,3.43761c1.10044,0.05423 2.58525,-0.22213 3.3447,0.56466c0.80376,0.8327 0.16404,2.25275 0.12646,3.40149c-0.00565,0.17282 2.91037,-0.33213 3.87284,0.28078c0.66637,0.42435 -0.04419,2.46602 0.17341,2.55907c0.60291,0.25781 2.12351,1.06083 3.36878,1.40392c0.82989,0.22864 -0.53016,2.89998 0.53036,3.79308c0.37938,0.31949 1.06406,-0.16953 1.85674,-0.2379c1.19128,-0.10276 2.51411,0.08002 2.51411,0.08002l2.55361,0.11617c0.91809,0.16253 0.63259,2.43666 0.63259,3.38833c0,0.56622 -3.01784,0.23865 -5.99137,0.29114c-2.64167,0.04664 -5.24836,0.20745 -5.67298,-0.41693c-0.2655,-0.3904 0.39931,-2.52209 0.03981,-2.57441c-1.01508,-0.14772 -4.14038,-0.47289 -4.96405,-1.07599c-1.04127,-0.76243 -1.08077,-2.50628 -2.18854,-3.17148c-0.69567,-0.41774 -1.70991,-0.27673 -2.29043,-0.84c-0.53308,-0.51723 -0.3311,-1.46805 -0.73069,-2.09132c-0.14885,-0.23217 -1.8783,-0.28544 -2.42242,-0.53044c-0.85636,0.00707 -1.668,0.08263 -1.9372,0.08171c-1.0966,-0.36214 -2.47332,-0.27911 -3.2898,-1.08641c-0.72149,-0.71337 0.33476,-2.75306 -0.66762,-2.9493c-1.24506,-0.24374 -5.67604,0.73886 -6.34024,-0.13468c-0.31897,-0.41949 0.05894,-3.06791 -0.25949,-3.4878c-0.10765,-0.14195 -5.28408,-0.00411 -5.38241,-0.05602c-1.02816,-0.54284 0.06155,-3.46479 -0.4904,-4.47754c-0.20841,-0.38238 -6.8238,0.26461 -8.0141,-0.71458c-1.12438,-0.92496 0.22956,-1.57525 -0.61476,-2.64755c-0.77909,-0.98946 -3.63596,-0.11555 -3.35476,-0.93032c-0.03713,-0.11696 -0.40133,-2.13885 0.07556,-3.51651c0.26839,-0.77531 1.23019,-1.28646 1.62086,-1.28646h1.96428c2.78591,0 7.5054,-0.80617 9.67206,1.4198zM130.7825,332.59738c0.02822,0.01761 0.05618,0.03503 0.08389,0.05223c-0.01901,-0.03573 -0.04784,-0.05116 -0.08389,-0.05223z" fill="#985818" stroke="none" stroke-width="0.5" stroke-linecap="butt"/><path d="M127.86352,327.90065c0,-0.82018 0.35252,-1.2929 0.75889,-1.56536c-0.73925,0.04479 -1.48407,0.12384 -2.23656,0.24832c0,0 -1.93756,0.31828 -2.26049,-1.59143c-0.32293,-1.90971 1.61464,-2.22799 1.61464,-2.22799c5.68747,-0.92831 10.89719,0.60926 16.52885,0.14168l1.14526,-0.00669c0,0 1.96429,0 1.96429,1.93605c0,1.11834 -0.65542,1.59069 -1.20907,1.79018c0.96272,-0.00685 1.91393,-0.01463 2.84598,-0.01546c0,0 1.96428,0 1.96428,1.93605c0,1.93605 -1.96428,1.93606 -1.96428,1.93606c-5.26048,-0.0043 -11.02014,0.16305 -16.20092,-0.67169l-0.98659,0.02634c0,0 -1.96428,0 -1.96428,-1.93606z" fill="#e89058" stroke="none" stroke-width="0.5" stroke-linecap="butt"/><path d="M179.07412,330.57079l-2.21801,0.07261c-5.4668,0 -10.91832,0.11827 -16.3685,-0.32936c0,0 -1.9575,-0.16078 -1.79437,-2.09015c0.06219,-0.73552 0.38517,-1.16728 0.76104,-1.41998c-0.95616,-0.02011 -1.91997,-0.03348 -2.89581,-0.03261c0,0 -1.96428,0 -1.96428,-1.93605c0,-1.93605 1.96428,-1.93605 1.96428,-1.93605c5.43075,0.00444 10.42368,0.45788 15.87855,0.00669l1.63634,-0.00669c0,0 1.96429,0 1.96429,1.93605c0,1.93605 -1.96429,1.93605 -1.96429,1.93605l-1.31009,-0.00669c-0.0847,0.0069 -0.16928,0.0136 -0.2538,0.02008c1.44805,-0.00441 5.18035,-0.086 6.63011,-0.086z" fill="#e89058" stroke="none" stroke-width="0.5" stroke-linecap="butt"/><path d="M154.36724,330.36591l2.14156,0.06079c1.50556,0.125 3.07885,-0.05196 4.52464,-0.05344c0.95496,-0.00097 1.85427,-0.13527 2.64169,0.69393c0.45511,0.47926 -0.06138,2.54145 0.18189,3.15252c0.26288,0.66032 6.52594,-0.38177 7.13058,0.14648c1.0012,0.87471 0.43863,2.19924 0.42507,3.72232c0.94712,0.38257 2.95346,-0.53726 3.55777,0.25402c0.43396,0.56822 -0.03705,2.62492 0.10282,3.32264c0.18994,0.94747 3.0978,-0.33161 3.78709,0.35482c0.38729,0.38569 0.36473,1.95593 0.33301,3.54435c-0.03752,1.87858 -0.0288,3.78259 -0.0288,3.78259c0,0 -1.35815,0.35285 -3.30269,0.07905c-0.81769,-0.11514 -0.74378,-0.75221 -0.67037,-1.46866c0.10117,-0.98734 0.40519,-2.12542 0.21692,-2.25596c-0.39816,-0.27606 -3.3987,0.61376 -3.99451,-0.36498c-0.30342,-0.49845 0.27556,-2.8233 0.10282,-3.37908c-0.19685,-0.63331 -1.33672,-0.22248 -2.00754,-0.18277c-1.4224,0.0842 -2.35219,-0.01428 -3.30984,0.15578c-0.68708,0.12201 -1.38849,0.81585 -2.29648,-0.19895c-0.43817,-0.48971 0.27498,-2.65775 -0.05493,-3.22396c-0.10363,-0.17786 -1.90132,-0.2022 -3.9533,-0.15325c-1.30323,0.03109 -2.70905,0.58045 -3.84859,-0.43033c-0.89593,-0.79469 0.57146,-2.93035 -0.46654,-3.53417c-0.81582,-0.47458 -1.89012,-0.12927 -2.83444,-0.20351c0,0 -0.8998,0.36047 -0.73668,-1.5689c0.16312,-1.92937 1.06293,-2.28983 1.06293,-2.28983c0.03435,0.00293 0.07094,0.00637 0.10964,0.01034c0.51959,-0.43335 1.18631,0.02815 1.18631,0.02815z" fill="#985818" stroke="none" stroke-width="0.5" stroke-linecap="butt"/><path d="M144.26655,358.97432c0,1.93605 -0.18132,1.88765 -0.18132,1.88765c0,0 -10.35112,0.50506 -11.00452,-0.19955c-0.56942,-0.61404 -0.12152,-2.63929 -0.3631,-3.43637c-0.14496,-0.47827 -2.98021,0.30955 -3.83752,-0.44777c-0.46889,-0.4142 -0.14711,-1.03546 -0.08357,-1.61999c0.07717,-0.70981 -0.04714,-1.36548 -0.14277,-1.53049c-0.31131,-0.53715 -0.94685,-0.17123 -1.06854,-0.17123c-1.01912,0 -2.09143,-0.27253 -3.1158,-0.19127c-1.27739,0.10134 -2.48021,0.46352 -3.41233,-0.76296c-0.557,-0.73289 0.79529,-3.04653 -0.11598,-3.22493c-1.02067,-0.19982 -1.62299,0.17302 -2.66361,0.17302c0,0 -0.98214,-0.22339 -0.98214,-2.15945c0,-1.93605 1.13324,-1.56374 1.13324,-1.56374c1.14451,0 4.90439,-0.54733 5.96955,0.01825c1.92337,1.02128 0.86706,3.48297 0.95143,3.82516c0.17596,0.71373 5.60455,-1.10942 7.42256,0.81059c0.49512,0.5229 -0.26577,2.19388 0.1408,2.78631c0.8268,1.20476 3.10247,-0.54327 3.60716,0.82351c0.16437,0.44515 -0.43135,3.47234 -0.28755,3.92436c0.06958,0.21871 0.4419,-0.15938 0.6736,-0.17903c0.55767,-0.0473 1.11933,-0.01737 1.67904,-0.02052c1.3095,-0.00738 2.61905,0 3.92858,0c0,0 1.75274,-0.67762 1.75274,1.25844z" fill="#985818" stroke="none" stroke-width="0.5" stroke-linecap="butt"/><path d="M118.59329,321.23918c0,0 21.28337,0 31.42859,0c9.52381,0 27.69644,0 27.69644,0" fill="none" stroke="#000000" stroke-width="4.5" stroke-linecap="round"/></g></g><g><g><path d="M421.51343,360.94848v-60.98565h61.87502v60.98565z" fill="#c07830" stroke="none" stroke-width="0" stroke-linecap="butt"/><path d="M421.55579,323.06055v-22.42594h61.87502v22.42594z" fill="#e5a26e" stroke="none" stroke-width="0" stroke-linecap="butt"/><path d="M422.8436,301.80825c0,0 21.28337,0 31.42859,0c9.52382,0 27.69644,0 27.69644,0" fill="none" stroke="#000000" stroke-width="4.5" stroke-linecap="round"/><path d="M438.36477,330.48211c0.50031,0.514 -0.2454,1.44356 -0.07444,2.13563c0.17983,0.72802 1.51725,0.10209 2.2771,0.12506c1.52726,0.04617 4.20978,-0.24947 5.35983,0.90169c0.82743,0.82824 -0.42332,2.94832 0.65109,3.42752c1.15905,0.51695 4.30216,-0.28762 5.42139,0.30852c0.91088,0.48517 -0.17618,2.87469 0.49466,3.65202c0.20197,1.06257 0.90276,0.82898 1.92822,0.6524c1.7995,-0.30987 4.41311,-1.17615 5.75629,0.205c0.74542,0.7665 0.19416,3.42496 0.45094,3.43761c1.10043,0.05423 2.58525,-0.22213 3.3447,0.56466c0.80376,0.8327 0.16404,2.25275 0.12646,3.40149c-0.00565,0.17282 2.91037,-0.33213 3.87285,0.28078c0.66637,0.42435 -0.0442,2.46602 0.17341,2.55907c0.60291,0.25781 2.12351,1.06083 3.36878,1.40392c0.82989,0.22864 -0.53016,2.89998 0.53036,3.79308c0.37939,0.31949 1.06406,-0.16953 1.85673,-0.2379c1.19128,-0.10276 2.51412,0.08002 2.51412,0.08002l2.55361,0.11617c0.91808,0.16253 0.6326,2.43666 0.6326,3.38833c0,0.56622 -3.01785,0.23865 -5.99137,0.29114c-2.64167,0.04664 -5.24836,0.20745 -5.67298,-0.41693c-0.2655,-0.3904 0.39931,-2.52209 0.03981,-2.57441c-1.01508,-0.14772 -4.14038,-0.47289 -4.96405,-1.07599c-1.04127,-0.76243 -1.08078,-2.50628 -2.18854,-3.17148c-0.69567,-0.41774 -1.70991,-0.27673 -2.29042,-0.84c-0.53308,-0.51723 -0.3311,-1.46805 -0.73069,-2.09132c-0.14885,-0.23217 -1.8783,-0.28544 -2.42242,-0.53044c-0.85636,0.00707 -1.668,0.08263 -1.9372,0.08171c-1.09659,-0.36214 -2.47331,-0.27911 -3.2898,-1.08641c-0.72149,-0.71337 0.33476,-2.75306 -0.66762,-2.9493c-1.24505,-0.24374 -5.67604,0.73886 -6.34024,-0.13468c-0.31897,-0.41949 0.05894,-3.06791 -0.25949,-3.4878c-0.10765,-0.14195 -5.28409,-0.00411 -5.38242,-0.05602c-1.02817,-0.54284 0.06155,-3.46479 -0.4904,-4.47754c-0.2084,-0.38238 -6.8238,0.26461 -8.0141,-0.71458c-1.12438,-0.92496 0.22956,-1.57525 -0.61476,-2.64755c-0.7791,-0.98946 -3.63596,-0.11555 -3.35477,-0.93032c-0.03713,-0.11696 -0.40133,-2.13885 0.07556,-3.51651c0.26838,-0.77531 1.23019,-1.28646 1.62086,-1.28646h1.96429c2.78592,0 7.50539,-0.80617 9.67206,1.4198zM435.03279,332.59738c0.02822,0.01761 0.05618,0.03503 0.08389,0.05223c-0.01901,-0.03573 -0.04784,-0.05116 -0.08389,-0.05223z" fill="#985818" stroke="none" stroke-width="0.5" stroke-linecap="butt"/><path d="M432.11383,327.90065c0,-0.82018 0.35253,-1.2929 0.75889,-1.56536c-0.73925,0.04479 -1.48407,0.12384 -2.23656,0.24832c0,0 -1.93757,0.31828 -2.26049,-1.59143c-0.32293,-1.90971 1.61464,-2.22799 1.61464,-2.22799c5.68747,-0.92831 10.89719,0.60926 16.52885,0.14168l1.14526,-0.00669c0,0 1.96429,0 1.96429,1.93605c0,1.11834 -0.65542,1.59069 -1.20907,1.79018c0.96273,-0.00685 1.91393,-0.01463 2.84598,-0.01546c0,0 1.96428,0 1.96428,1.93605c0,1.93605 -1.96428,1.93606 -1.96428,1.93606c-5.26048,-0.0043 -11.02014,0.16305 -16.20092,-0.67169l-0.9866,0.02634c0,0 -1.96428,0 -1.96428,-1.93606z" fill="#e89058" stroke="none" stroke-width="0.5" stroke-linecap="butt"/><path d="M483.32441,330.57079l-2.21801,0.07261c-5.4668,0 -10.91831,0.11827 -16.3685,-0.32936c0,0 -1.9575,-0.16078 -1.79437,-2.09015c0.06218,-0.73552 0.38516,-1.16728 0.76104,-1.41998c-0.95617,-0.02011 -1.91996,-0.03348 -2.8958,-0.03261c0,0 -1.96428,0 -1.96428,-1.93605c0,-1.93605 1.96428,-1.93605 1.96428,-1.93605c5.43075,0.00444 10.42369,0.45788 15.87855,0.00669l1.63634,-0.00669c0,0 1.96428,0 1.96428,1.93605c0,1.93605 -1.96428,1.93605 -1.96428,1.93605l-1.31009,-0.00669c-0.0847,0.0069 -0.16929,0.0136 -0.2538,0.02008c1.44805,-0.00441 5.18035,-0.086 6.63011,-0.086z" fill="#e89058" stroke="none" stroke-width="0.5" stroke-linecap="butt"/><path d="M458.61755,330.36591l2.14156,0.06079c1.50556,0.125 3.07885,-0.05196 4.52463,-0.05344c0.95495,-0.00097 1.85428,-0.13527 2.64169,0.69393c0.45511,0.47926 -0.06137,2.54145 0.18189,3.15252c0.26288,0.66032 6.52594,-0.38177 7.13057,0.14648c1.0012,0.87471 0.43864,2.19924 0.42508,3.72232c0.94712,0.38257 2.95345,-0.53726 3.55776,0.25402c0.43396,0.56822 -0.03705,2.62492 0.10282,3.32264c0.18994,0.94747 3.0978,-0.33161 3.78709,0.35482c0.3873,0.38569 0.36473,1.95593 0.33301,3.54435c-0.03753,1.87858 -0.0288,3.78259 -0.0288,3.78259c0,0 -1.35815,0.35285 -3.30269,0.07905c-0.81769,-0.11514 -0.74378,-0.75221 -0.67037,-1.46866c0.10117,-0.98734 0.40519,-2.12542 0.21692,-2.25596c-0.39815,-0.27606 -3.3987,0.61376 -3.9945,-0.36498c-0.30342,-0.49845 0.27555,-2.8233 0.10282,-3.37908c-0.19684,-0.63331 -1.33672,-0.22248 -2.00755,-0.18277c-1.4224,0.0842 -2.35218,-0.01428 -3.30983,0.15578c-0.68707,0.12201 -1.3885,0.81585 -2.29648,-0.19895c-0.43817,-0.48971 0.27498,-2.65775 -0.05493,-3.22396c-0.10363,-0.17786 -1.90132,-0.2022 -3.9533,-0.15325c-1.30324,0.03109 -2.70905,0.58045 -3.84859,-0.43033c-0.89593,-0.79469 0.57146,-2.93035 -0.46655,-3.53417c-0.81583,-0.47458 -1.89012,-0.12927 -2.83444,-0.20351c0,0 -0.8998,0.36047 -0.73668,-1.5689c0.16312,-1.92937 1.06294,-2.28983 1.06294,-2.28983c0.03435,0.00293 0.07095,0.00637 0.10964,0.01034c0.5196,-0.43335 1.1863,0.02815 1.1863,0.02815z" fill="#985818" stroke="none" stroke-width="0.5" stroke-linecap="butt"/><path d="M448.51688,358.97432c0,1.93605 -0.18133,1.88765 -0.18133,1.88765c0,0 -10.35111,0.50506 -11.00451,-0.19955c-0.56942,-0.61404 -0.12152,-2.63929 -0.36311,-3.43637c-0.14496,-0.47827 -2.9802,0.30955 -3.83751,-0.44777c-0.46889,-0.4142 -0.14712,-1.03546 -0.08358,-1.61999c0.07718,-0.70981 -0.04714,-1.36548 -0.14277,-1.53049c-0.31131,-0.53715 -0.94685,-0.17123 -1.06854,-0.17123c-1.01912,0 -2.09143,-0.27253 -3.11579,-0.19127c-1.27739,0.10134 -2.48022,0.46352 -3.41234,-0.76296c-0.557,-0.73289 0.79529,-3.04653 -0.11598,-3.22493c-1.02067,-0.19982 -1.62299,0.17302 -2.66361,0.17302c0,0 -0.98215,-0.22339 -0.98215,-2.15945c0,-1.93605 1.13325,-1.56374 1.13325,-1.56374c1.14451,0 4.90439,-0.54733 5.96955,0.01825c1.92337,1.02128 0.86706,3.48297 0.95143,3.82516c0.17596,0.71373 5.60456,-1.10942 7.42257,0.81059c0.49512,0.5229 -0.26577,2.19388 0.1408,2.78631c0.8268,1.20476 3.10247,-0.54327 3.60716,0.82351c0.16437,0.44515 -0.43134,3.47234 -0.28755,3.92436c0.06958,0.21871 0.4419,-0.15938 0.67359,-0.17903c0.55767,-0.0473 1.11934,-0.01737 1.67905,-0.02052c1.3095,-0.00738 2.61905,0 3.92857,0c0,0 1.75275,-0.67762 1.75275,1.25844z" fill="#985818" stroke="none" stroke-width="0.5" stroke-linecap="butt"/><path d="M422.8436,321.23918c0,0 21.28337,0 31.42859,0c9.52382,0 27.69644,0 27.69644,0" fill="none" stroke="#000000" stroke-width="4.5" stroke-linecap="round"/></g><g><path d="M360.62055,360.94848v-60.98565h61.87502v60.98565z" fill="#c07830" stroke="none" stroke-width="0" stroke-linecap="butt"/><path d="M360.66291,323.06055v-22.42594h61.87502v22.42594z" fill="#e5a26e" stroke="none" stroke-width="0" stroke-linecap="butt"/><path d="M421.07574,301.80825c0,0 -18.17262,0 -27.69644,0c-10.14521,0 -31.42859,0 -31.42859,0" fill="none" stroke="#000000" stroke-width="4.5" stroke-linecap="round"/><path d="M377.47188,330.48211c0.50031,0.514 -0.24539,1.44356 -0.07443,2.13563c0.17983,0.72802 1.51725,0.10209 2.2771,0.12506c1.52726,0.04617 4.20978,-0.24947 5.35984,0.90169c0.82743,0.82824 -0.42333,2.94832 0.65108,3.42752c1.15905,0.51695 4.30216,-0.28762 5.42139,0.30852c0.91088,0.48517 -0.17618,2.87469 0.49466,3.65202c0.20197,1.06257 0.90276,0.82898 1.92822,0.6524c1.7995,-0.30987 4.41312,-1.17615 5.7563,0.205c0.74542,0.7665 0.19416,3.42496 0.45094,3.43761c1.10043,0.05423 2.58525,-0.22213 3.34469,0.56466c0.80376,0.8327 0.16404,2.25275 0.12646,3.40149c-0.00565,0.17282 2.91037,-0.33213 3.87285,0.28078c0.66637,0.42435 -0.0442,2.46602 0.17341,2.55907c0.60291,0.25781 2.12351,1.06083 3.36878,1.40392c0.82989,0.22864 -0.53016,2.89998 0.53036,3.79308c0.37939,0.31949 1.06405,-0.16953 1.85673,-0.2379c1.19128,-0.10276 2.51412,0.08002 2.51412,0.08002l2.5536,0.11617c0.91808,0.16253 0.63259,2.43666 0.63259,3.38833c0,0.56622 -3.01784,0.23865 -5.99137,0.29114c-2.64167,0.04664 -5.24836,0.20745 -5.67298,-0.41693c-0.2655,-0.3904 0.39932,-2.52209 0.03982,-2.57441c-1.01508,-0.14772 -4.14038,-0.47289 -4.96405,-1.07599c-1.04127,-0.76243 -1.08078,-2.50628 -2.18854,-3.17148c-0.69567,-0.41774 -1.70991,-0.27673 -2.29042,-0.84c-0.53308,-0.51723 -0.3311,-1.46805 -0.73069,-2.09132c-0.14885,-0.23217 -1.8783,-0.28544 -2.42242,-0.53044c-0.85636,0.00707 -1.668,0.08263 -1.9372,0.08171c-1.09659,-0.36214 -2.47331,-0.27911 -3.2898,-1.08641c-0.72149,-0.71337 0.33476,-2.75306 -0.66762,-2.9493c-1.24505,-0.24374 -5.67604,0.73886 -6.34024,-0.13468c-0.31897,-0.41949 0.05894,-3.06791 -0.25949,-3.4878c-0.10765,-0.14195 -5.28409,-0.00411 -5.38242,-0.05602c-1.02817,-0.54284 0.06155,-3.46479 -0.4904,-4.47754c-0.2084,-0.38238 -6.8238,0.26461 -8.0141,-0.71458c-1.12438,-0.92496 0.22956,-1.57525 -0.61477,-2.64755c-0.7791,-0.98946 -3.63596,-0.11555 -3.35477,-0.93032c-0.03713,-0.11696 -0.40133,-2.13885 0.07556,-3.51651c0.26838,-0.77531 1.23019,-1.28646 1.62086,-1.28646h1.96428c2.78592,0 7.50539,-0.80617 9.67206,1.4198zM374.13992,332.59738c0.02822,0.01761 0.05618,0.03503 0.08389,0.05223c-0.01901,-0.03573 -0.04784,-0.05116 -0.08389,-0.05223z" fill="#985818" stroke="none" stroke-width="0.5" stroke-linecap="butt"/><path d="M371.22095,327.90065c0,-0.82018 0.35253,-1.2929 0.75889,-1.56536c-0.73925,0.04479 -1.48407,0.12384 -2.23656,0.24832c0,0 -1.93757,0.31828 -2.26049,-1.59143c-0.32293,-1.90971 1.61464,-2.22799 1.61464,-2.22799c5.68747,-0.92831 10.89719,0.60926 16.52885,0.14168l1.14526,-0.00669c0,0 1.96428,0 1.96428,1.93605c0,1.11834 -0.65542,1.59069 -1.20907,1.79018c0.96273,-0.00685 1.91392,-0.01463 2.84598,-0.01546c0,0 1.96429,0 1.96429,1.93605c0,1.93605 -1.96429,1.93606 -1.96429,1.93606c-5.26048,-0.0043 -11.02013,0.16305 -16.20091,-0.67169l-0.98659,0.02634c0,0 -1.96429,0 -1.96429,-1.93606z" fill="#e89058" stroke="none" stroke-width="0.5" stroke-linecap="butt"/><path d="M422.43154,330.57079l-2.21801,0.07261c-5.4668,0 -10.91831,0.11827 -16.3685,-0.32936c0,0 -1.9575,-0.16078 -1.79437,-2.09015c0.06218,-0.73552 0.38517,-1.16728 0.76105,-1.41998c-0.95617,-0.02011 -1.91996,-0.03348 -2.8958,-0.03261c0,0 -1.96429,0 -1.96429,-1.93605c0,-1.93605 1.96429,-1.93605 1.96429,-1.93605c5.43075,0.00444 10.42368,0.45788 15.87854,0.00669l1.63635,-0.00669c0,0 1.96429,0 1.96429,1.93605c0,1.93605 -1.96429,1.93605 -1.96429,1.93605l-1.31009,-0.00669c-0.0847,0.0069 -0.16928,0.0136 -0.25379,0.02008c1.44805,-0.00441 5.18035,-0.086 6.63011,-0.086z" fill="#e89058" stroke="none" stroke-width="0.5" stroke-linecap="butt"/><path d="M397.72467,330.36591l2.14155,0.06079c1.50556,0.125 3.07885,-0.05196 4.52463,-0.05344c0.95495,-0.00097 1.85428,-0.13527 2.64169,0.69393c0.45511,0.47926 -0.06137,2.54145 0.18189,3.15252c0.26288,0.66032 6.52594,-0.38177 7.13057,0.14648c1.0012,0.87471 0.43864,2.19924 0.42508,3.72232c0.94712,0.38257 2.95345,-0.53726 3.55776,0.25402c0.43396,0.56822 -0.03705,2.62492 0.10282,3.32264c0.18994,0.94747 3.0978,-0.33161 3.78709,0.35482c0.3873,0.38569 0.36473,1.95593 0.33301,3.54435c-0.03753,1.87858 -0.02881,3.78259 -0.02881,3.78259c0,0 -1.35815,0.35285 -3.30269,0.07905c-0.81769,-0.11514 -0.74378,-0.75221 -0.67037,-1.46866c0.10117,-0.98734 0.40519,-2.12542 0.21692,-2.25596c-0.39815,-0.27606 -3.3987,0.61376 -3.99451,-0.36498c-0.30342,-0.49845 0.27555,-2.8233 0.10281,-3.37908c-0.19684,-0.63331 -1.33671,-0.22248 -2.00754,-0.18277c-1.4224,0.0842 -2.35219,-0.01428 -3.30984,0.15578c-0.68707,0.12201 -1.3885,0.81585 -2.29649,-0.19895c-0.43817,-0.48971 0.27499,-2.65775 -0.05492,-3.22396c-0.10363,-0.17786 -1.90132,-0.2022 -3.9533,-0.15325c-1.30324,0.03109 -2.70906,0.58045 -3.8486,-0.43033c-0.89593,-0.79469 0.57147,-2.93035 -0.46654,-3.53417c-0.81583,-0.47458 -1.89012,-0.12927 -2.83444,-0.20351c0,0 -0.8998,0.36047 -0.73668,-1.5689c0.16312,-1.92937 1.06293,-2.28983 1.06293,-2.28983c0.03435,0.00293 0.07095,0.00637 0.10964,0.01034c0.5196,-0.43335 1.18631,0.02815 1.18631,0.02815z" fill="#985818" stroke="none" stroke-width="0.5" stroke-linecap="butt"/><path d="M387.624,358.97432c0,1.93605 -0.18133,1.88765 -0.18133,1.88765c0,0 -10.35111,0.50506 -11.00451,-0.19955c-0.56942,-0.61404 -0.12152,-2.63929 -0.36311,-3.43637c-0.14496,-0.47827 -2.9802,0.30955 -3.83751,-0.44777c-0.46889,-0.4142 -0.14712,-1.03546 -0.08357,-1.61999c0.07718,-0.70981 -0.04714,-1.36548 -0.14277,-1.53049c-0.31131,-0.53715 -0.94685,-0.17123 -1.06854,-0.17123c-1.01912,0 -2.09143,-0.27253 -3.1158,-0.19127c-1.27739,0.10134 -2.48022,0.46352 -3.41234,-0.76296c-0.557,-0.73289 0.79529,-3.04653 -0.11598,-3.22493c-1.02067,-0.19982 -1.62299,0.17302 -2.66361,0.17302c0,0 -0.98215,-0.22339 -0.98215,-2.15945c0,-1.93605 1.13325,-1.56374 1.13325,-1.56374c1.14451,0 4.90439,-0.54733 5.96955,0.01825c1.92337,1.02128 0.86706,3.48297 0.95143,3.82516c0.17596,0.71373 5.60456,-1.10942 7.42257,0.81059c0.49512,0.5229 -0.26577,2.19388 0.1408,2.78631c0.8268,1.20476 3.10247,-0.54327 3.60716,0.82351c0.16437,0.44515 -0.43135,3.47234 -0.28755,3.92436c0.06958,0.21871 0.4419,-0.15938 0.67359,-0.17903c0.55767,-0.0473 1.11934,-0.01737 1.67905,-0.02052c1.3095,-0.00738 2.61905,0 3.92858,0c0,0 1.75274,-0.67762 1.75274,1.25844z" fill="#985818" stroke="none" stroke-width="0.5" stroke-linecap="butt"/><path d="M421.07574,321.23918c0,0 -18.17262,0 -27.69644,0c-10.14521,0 -31.42859,0 -31.42859,0" fill="none" stroke="#000000" stroke-width="4.5" stroke-linecap="round"/></g><g><path d="M299.72766,360.94848v-60.98565h61.87503v60.98565z" fill="#c07830" stroke="none" stroke-width="0" stroke-linecap="butt"/><path d="M299.77001,323.06055v-22.42594h61.87501v22.42594z" fill="#e5a26e" stroke="none" stroke-width="0" stroke-linecap="butt"/><path d="M360.18284,301.80825c0,0 -18.17262,0 -27.69644,0c-10.14522,0 -31.42859,0 -31.42859,0" fill="none" stroke="#000000" stroke-width="4.5" stroke-linecap="round"/><path d="M316.57898,330.48211c0.50031,0.514 -0.24539,1.44356 -0.07443,2.13563c0.17983,0.72802 1.51724,0.10209 2.2771,0.12506c1.52726,0.04617 4.20978,-0.24947 5.35983,0.90169c0.82743,0.82824 -0.42332,2.94832 0.65109,3.42752c1.15905,0.51695 4.30215,-0.28762 5.42138,0.30852c0.91088,0.48517 -0.17618,2.87469 0.49466,3.65202c0.20197,1.06257 0.90276,0.82898 1.92822,0.6524c1.7995,-0.30987 4.41312,-1.17615 5.7563,0.205c0.74542,0.7665 0.19416,3.42496 0.45094,3.43761c1.10043,0.05423 2.58525,-0.22213 3.34469,0.56466c0.80376,0.8327 0.16404,2.25275 0.12646,3.40149c-0.00565,0.17282 2.91037,-0.33213 3.87285,0.28078c0.66637,0.42435 -0.04419,2.46602 0.17341,2.55907c0.60291,0.25781 2.12351,1.06083 3.36878,1.40392c0.82989,0.22864 -0.53017,2.89998 0.53035,3.79308c0.37939,0.31949 1.06406,-0.16953 1.85673,-0.2379c1.19128,-0.10276 2.51412,0.08002 2.51412,0.08002l2.5536,0.11617c0.91808,0.16253 0.6326,2.43666 0.6326,3.38833c0,0.56622 -3.01785,0.23865 -5.99137,0.29114c-2.64167,0.04664 -5.24836,0.20745 -5.67298,-0.41693c-0.2655,-0.3904 0.39932,-2.52209 0.03982,-2.57441c-1.01508,-0.14772 -4.14038,-0.47289 -4.96405,-1.07599c-1.04127,-0.76243 -1.08078,-2.50628 -2.18854,-3.17148c-0.69567,-0.41774 -1.70991,-0.27673 -2.29042,-0.84c-0.53308,-0.51723 -0.3311,-1.46805 -0.73069,-2.09132c-0.14885,-0.23217 -1.87831,-0.28544 -2.42243,-0.53044c-0.85636,0.00707 -1.668,0.08263 -1.93719,0.08171c-1.09659,-0.36214 -2.47332,-0.27911 -3.2898,-1.08641c-0.72149,-0.71337 0.33476,-2.75306 -0.66762,-2.9493c-1.24505,-0.24374 -5.67603,0.73886 -6.34024,-0.13468c-0.31897,-0.41949 0.05894,-3.06791 -0.25949,-3.4878c-0.10765,-0.14195 -5.28409,-0.00411 -5.38242,-0.05602c-1.02817,-0.54284 0.06155,-3.46479 -0.4904,-4.47754c-0.2084,-0.38238 -6.8238,0.26461 -8.0141,-0.71458c-1.12438,-0.92496 0.22956,-1.57525 -0.61476,-2.64755c-0.7791,-0.98946 -3.63596,-0.11555 -3.35477,-0.93032c-0.03713,-0.11696 -0.40133,-2.13885 0.07556,-3.51651c0.26838,-0.77531 1.23019,-1.28646 1.62086,-1.28646h1.96428c2.78592,0 7.50539,-0.80617 9.67206,1.4198zM313.24701,332.59738c0.02822,0.01761 0.05617,0.03503 0.08388,0.05223c-0.01901,-0.03573 -0.04784,-0.05116 -0.08388,-0.05223z" fill="#985818" stroke="none" stroke-width="0.5" stroke-linecap="butt"/><path d="M310.32804,327.90065c0,-0.82018 0.35253,-1.2929 0.75889,-1.56536c-0.73925,0.04479 -1.48407,0.12384 -2.23656,0.24832c0,0 -1.93757,0.31828 -2.26049,-1.59143c-0.32293,-1.90971 1.61464,-2.22799 1.61464,-2.22799c5.68747,-0.92831 10.8972,0.60926 16.52886,0.14168l1.14526,-0.00669c0,0 1.96428,0 1.96428,1.93605c0,1.11834 -0.65542,1.59069 -1.20907,1.79018c0.96273,-0.00685 1.91393,-0.01463 2.84598,-0.01546c0,0 1.96429,0 1.96429,1.93605c0,1.93605 -1.96429,1.93606 -1.96429,1.93606c-5.26048,-0.0043 -11.02013,0.16305 -16.20091,-0.67169l-0.9866,0.02634c0,0 -1.96428,0 -1.96428,-1.93606z" fill="#e89058" stroke="none" stroke-width="0.5" stroke-linecap="butt"/><path d="M361.53865,330.57079l-2.21801,0.07261c-5.4668,0 -10.91831,0.11827 -16.36849,-0.32936c0,0 -1.95751,-0.16078 -1.79438,-2.09015c0.06218,-0.73552 0.38517,-1.16728 0.76105,-1.41998c-0.95617,-0.02011 -1.91996,-0.03348 -2.8958,-0.03261c0,0 -1.96428,0 -1.96428,-1.93605c0,-1.93605 1.96428,-1.93605 1.96428,-1.93605c5.43075,0.00444 10.42368,0.45788 15.87854,0.00669l1.63634,-0.00669c0,0 1.96428,0 1.96428,1.93605c0,1.93605 -1.96428,1.93605 -1.96428,1.93605l-1.31009,-0.00669c-0.0847,0.0069 -0.16929,0.0136 -0.2538,0.02008c1.44805,-0.00441 5.18035,-0.086 6.63011,-0.086z" fill="#e89058" stroke="none" stroke-width="0.5" stroke-linecap="butt"/><path d="M336.83177,330.36591l2.14155,0.06079c1.50556,0.125 3.07885,-0.05196 4.52463,-0.05344c0.95495,-0.00097 1.85428,-0.13527 2.64169,0.69393c0.45511,0.47926 -0.06137,2.54145 0.18189,3.15252c0.26288,0.66032 6.52594,-0.38177 7.13057,0.14648c1.0012,0.87471 0.43864,2.19924 0.42508,3.72232c0.94712,0.38257 2.95345,-0.53726 3.55776,0.25402c0.43396,0.56822 -0.03705,2.62492 0.10282,3.32264c0.18994,0.94747 3.09781,-0.33161 3.78709,0.35482c0.3873,0.38569 0.36472,1.95593 0.333,3.54435c-0.03753,1.87858 -0.0288,3.78259 -0.0288,3.78259c0,0 -1.35815,0.35285 -3.30269,0.07905c-0.81769,-0.11514 -0.74377,-0.75221 -0.67036,-1.46866c0.10117,-0.98734 0.40518,-2.12542 0.21691,-2.25596c-0.39815,-0.27606 -3.39869,0.61376 -3.9945,-0.36498c-0.30342,-0.49845 0.27555,-2.8233 0.10281,-3.37908c-0.19684,-0.63331 -1.33672,-0.22248 -2.00754,-0.18277c-1.4224,0.0842 -2.35218,-0.01428 -3.30983,0.15578c-0.68707,0.12201 -1.3885,0.81585 -2.29649,-0.19895c-0.43817,-0.48971 0.27499,-2.65775 -0.05492,-3.22396c-0.10363,-0.17786 -1.90132,-0.2022 -3.9533,-0.15325c-1.30324,0.03109 -2.70906,0.58045 -3.8486,-0.43033c-0.89593,-0.79469 0.57146,-2.93035 -0.46654,-3.53417c-0.81583,-0.47458 -1.89012,-0.12927 -2.83444,-0.20351c0,0 -0.8998,0.36047 -0.73668,-1.5689c0.16312,-1.92937 1.06294,-2.28983 1.06294,-2.28983c0.03435,0.00293 0.07095,0.00637 0.10964,0.01034c0.5196,-0.43335 1.18631,0.02815 1.18631,0.02815z" fill="#985818" stroke="none" stroke-width="0.5" stroke-linecap="butt"/><path d="M326.7311,358.97432c0,1.93605 -0.18132,1.88765 -0.18132,1.88765c0,0 -10.35111,0.50506 -11.00451,-0.19955c-0.56942,-0.61404 -0.12152,-2.63929 -0.3631,-3.43637c-0.14496,-0.47827 -2.9802,0.30955 -3.83751,-0.44777c-0.46889,-0.4142 -0.14712,-1.03546 -0.08358,-1.61999c0.07718,-0.70981 -0.04714,-1.36548 -0.14277,-1.53049c-0.31131,-0.53715 -0.94685,-0.17123 -1.06854,-0.17123c-1.01912,0 -2.09143,-0.27253 -3.1158,-0.19127c-1.27739,0.10134 -2.48022,0.46352 -3.41234,-0.76296c-0.557,-0.73289 0.79529,-3.04653 -0.11598,-3.22493c-1.02067,-0.19982 -1.623,0.17302 -2.66361,0.17302c0,0 -0.98215,-0.22339 -0.98215,-2.15945c0,-1.93605 1.13325,-1.56374 1.13325,-1.56374c1.14451,0 4.90439,-0.54733 5.96955,0.01825c1.92337,1.02128 0.86706,3.48297 0.95143,3.82516c0.17596,0.71373 5.60455,-1.10942 7.42257,0.81059c0.49512,0.5229 -0.26577,2.19388 0.1408,2.78631c0.8268,1.20476 3.10247,-0.54327 3.60716,0.82351c0.16437,0.44515 -0.43134,3.47234 -0.28755,3.92436c0.06958,0.21871 0.4419,-0.15938 0.67359,-0.17903c0.55767,-0.0473 1.11933,-0.01737 1.67904,-0.02052c1.3095,-0.00738 2.61905,0 3.92858,0c0,0 1.75274,-0.67762 1.75274,1.25844z" fill="#985818" stroke="none" stroke-width="0.5" stroke-linecap="butt"/><path d="M301.05781,321.23918c0,0 21.28336,0 31.42859,0c9.52382,0 27.69644,0 27.69644,0" fill="none" stroke="#000000" stroke-width="4.5" stroke-linecap="round"/></g></g><g><path d="M57.35238,360.94848v-60.98565h61.87502v60.98565z" fill="#c07830" stroke="none" stroke-width="0" stroke-linecap="butt"/><path d="M57.39474,323.06055v-22.42594h61.87502v22.42594z" fill="#e5a26e" stroke="none" stroke-width="0" stroke-linecap="butt"/><path d="M117.80758,301.80825c0,0 -18.17262,0 -27.69644,0c-10.14521,0 -31.42859,0 -31.42859,0" fill="none" stroke="#000000" stroke-width="4.5" stroke-linecap="round"/><path d="M74.20372,330.48211c0.50031,0.514 -0.2454,1.44356 -0.07444,2.13563c0.17983,0.72802 1.51725,0.10209 2.27711,0.12506c1.52726,0.04617 4.20978,-0.24947 5.35983,0.90169c0.82744,0.82824 -0.42333,2.94832 0.65109,3.42752c1.15905,0.51695 4.30216,-0.28762 5.42139,0.30852c0.91088,0.48517 -0.17618,2.87469 0.49465,3.65202c0.20197,1.06257 0.90276,0.82898 1.92822,0.6524c1.7995,-0.30987 4.41311,-1.17615 5.75629,0.205c0.74542,0.7665 0.19417,3.42496 0.45094,3.43761c1.10043,0.05423 2.58525,-0.22213 3.34469,0.56466c0.80376,0.8327 0.16404,2.25275 0.12646,3.40149c-0.00565,0.17282 2.91037,-0.33213 3.87285,0.28078c0.66638,0.42435 -0.04419,2.46602 0.17341,2.55907c0.60291,0.25781 2.12351,1.06083 3.36878,1.40392c0.82989,0.22864 -0.53017,2.89998 0.53035,3.79308c0.37939,0.31949 1.06406,-0.16953 1.85673,-0.2379c1.19128,-0.10276 2.51412,0.08002 2.51412,0.08002l2.5536,0.11617c0.91808,0.16253 0.6326,2.43666 0.6326,3.38833c0,0.56622 -3.01784,0.23865 -5.99137,0.29114c-2.64167,0.04664 -5.24837,0.20745 -5.67298,-0.41693c-0.2655,-0.3904 0.39931,-2.52209 0.03981,-2.57441c-1.01508,-0.14772 -4.14037,-0.47289 -4.96404,-1.07599c-1.04127,-0.76243 -1.08078,-2.50628 -2.18854,-3.17148c-0.69567,-0.41774 -1.70991,-0.27673 -2.29042,-0.84c-0.53307,-0.51723 -0.3311,-1.46805 -0.73069,-2.09132c-0.14885,-0.23217 -1.87831,-0.28544 -2.42243,-0.53044c-0.85636,0.00707 -1.668,0.08263 -1.93719,0.08171c-1.09659,-0.36214 -2.47332,-0.27911 -3.2898,-1.08641c-0.72149,-0.71337 0.33477,-2.75306 -0.66761,-2.9493c-1.24505,-0.24374 -5.67604,0.73886 -6.34025,-0.13468c-0.31897,-0.41949 0.05895,-3.06791 -0.25949,-3.4878c-0.10765,-0.14195 -5.28409,-0.00411 -5.38242,-0.05602c-1.02816,-0.54284 0.06155,-3.46479 -0.4904,-4.47754c-0.2084,-0.38238 -6.8238,0.26461 -8.0141,-0.71458c-1.12438,-0.92496 0.22956,-1.57525 -0.61476,-2.64755c-0.77909,-0.98946 -3.63595,-0.11555 -3.35476,-0.93032c-0.03713,-0.11696 -0.40133,-2.13885 0.07556,-3.51651c0.26838,-0.77531 1.23019,-1.28646 1.62086,-1.28646h1.96428c2.78591,0 7.50539,-0.80617 9.67206,1.4198zM70.87176,332.59738c0.02822,0.01761 0.05618,0.03503 0.08389,0.05223c-0.01901,-0.03573 -0.04784,-0.05116 -0.08389,-0.05223z" fill="#985818" stroke="none" stroke-width="0.5" stroke-linecap="butt"/><path d="M67.95279,327.90065c0,-0.82018 0.35252,-1.2929 0.75889,-1.56536c-0.73925,0.04479 -1.48407,0.12384 -2.23656,0.24832c0,0 -1.93757,0.31828 -2.26049,-1.59143c-0.32293,-1.90971 1.61464,-2.22799 1.61464,-2.22799c5.68747,-0.92831 10.89719,0.60926 16.52886,0.14168l1.14526,-0.00669c0,0 1.96429,0 1.96429,1.93605c0,1.11834 -0.65542,1.59069 -1.20907,1.79018c0.96273,-0.00685 1.91393,-0.01463 2.84598,-0.01546c0,0 1.96428,0 1.96428,1.93605c0,1.93605 -1.96428,1.93606 -1.96428,1.93606c-5.26048,-0.0043 -11.02013,0.16305 -16.20091,-0.67169l-0.9866,0.02634c0,0 -1.96428,0 -1.96428,-1.93606z" fill="#e89058" stroke="none" stroke-width="0.5" stroke-linecap="butt"/><path d="M119.16338,330.57079l-2.21801,0.07261c-5.4668,0 -10.91831,0.11827 -16.36849,-0.32936c0,0 -1.95751,-0.16078 -1.79438,-2.09015c0.06219,-0.73552 0.38517,-1.16728 0.76105,-1.41998c-0.95616,-0.02011 -1.91996,-0.03348 -2.89581,-0.03261c0,0 -1.96428,0 -1.96428,-1.93605c0,-1.93605 1.96428,-1.93605 1.96428,-1.93605c5.43075,0.00444 10.42369,0.45788 15.87855,0.00669l1.63634,-0.00669c0,0 1.96428,0 1.96428,1.93605c0,1.93605 -1.96428,1.93605 -1.96428,1.93605l-1.31009,-0.00669c-0.0847,0.0069 -0.16928,0.0136 -0.25379,0.02008c1.44805,-0.00441 5.18034,-0.086 6.6301,-0.086z" fill="#e89058" stroke="none" stroke-width="0.5" stroke-linecap="butt"/><path d="M94.45651,330.36591l2.14156,0.06079c1.50556,0.125 3.07885,-0.05196 4.52463,-0.05344c0.95496,-0.00097 1.85427,-0.13527 2.64169,0.69393c0.45511,0.47926 -0.06137,2.54145 0.18189,3.15252c0.26288,0.66032 6.52594,-0.38177 7.13058,0.14648c1.0012,0.87471 0.43863,2.19924 0.42508,3.72232c0.94712,0.38257 2.95346,-0.53726 3.55776,0.25402c0.43396,0.56822 -0.03706,2.62492 0.10281,3.32264c0.18994,0.94747 3.09781,-0.33161 3.78709,0.35482c0.3873,0.38569 0.36473,1.95593 0.33301,3.54435c-0.03753,1.87858 -0.02881,3.78259 -0.02881,3.78259c0,0 -1.35815,0.35285 -3.30269,0.07905c-0.81769,-0.11514 -0.74378,-0.75221 -0.67037,-1.46866c0.10117,-0.98734 0.40519,-2.12542 0.21692,-2.25596c-0.39816,-0.27606 -3.3987,0.61376 -3.9945,-0.36498c-0.30341,-0.49845 0.27555,-2.8233 0.10281,-3.37908c-0.19684,-0.63331 -1.33672,-0.22248 -2.00754,-0.18277c-1.42241,0.0842 -2.35219,-0.01428 -3.30983,0.15578c-0.68707,0.12201 -1.38849,0.81585 -2.29648,-0.19895c-0.43817,-0.48971 0.27498,-2.65775 -0.05493,-3.22396c-0.10363,-0.17786 -1.90132,-0.2022 -3.9533,-0.15325c-1.30323,0.03109 -2.70905,0.58045 -3.84859,-0.43033c-0.89593,-0.79469 0.57146,-2.93035 -0.46654,-3.53417c-0.81583,-0.47458 -1.89012,-0.12927 -2.83444,-0.20351c0,0 -0.8998,0.36047 -0.73668,-1.5689c0.16312,-1.92937 1.06293,-2.28983 1.06293,-2.28983c0.03436,0.00293 0.07095,0.00637 0.10964,0.01034c0.51959,-0.43335 1.1863,0.02815 1.1863,0.02815z" fill="#985818" stroke="none" stroke-width="0.5" stroke-linecap="butt"/><path d="M84.35584,358.97432c0,1.93605 -0.18132,1.88765 -0.18132,1.88765c0,0 -10.35111,0.50506 -11.00451,-0.19955c-0.56941,-0.61404 -0.12152,-2.63929 -0.3631,-3.43637c-0.14496,-0.47827 -2.9802,0.30955 -3.83751,-0.44777c-0.46889,-0.4142 -0.14712,-1.03546 -0.08357,-1.61999c0.07717,-0.70981 -0.04714,-1.36548 -0.14277,-1.53049c-0.31131,-0.53715 -0.94685,-0.17123 -1.06854,-0.17123c-1.01912,0 -2.09143,-0.27253 -3.11579,-0.19127c-1.27739,0.10134 -2.48021,0.46352 -3.41233,-0.76296c-0.557,-0.73289 0.79529,-3.04653 -0.11597,-3.22493c-1.02067,-0.19982 -1.62299,0.17302 -2.66361,0.17302c0,0 -0.98215,-0.22339 -0.98215,-2.15945c0,-1.93605 1.13325,-1.56374 1.13325,-1.56374c1.14451,0 4.90439,-0.54733 5.96955,0.01825c1.92337,1.02128 0.86706,3.48297 0.95143,3.82516c0.17596,0.71373 5.60455,-1.10942 7.42257,0.81059c0.49511,0.5229 -0.26577,2.19388 0.1408,2.78631c0.8268,1.20476 3.10247,-0.54327 3.60716,0.82351c0.16437,0.44515 -0.43135,3.47234 -0.28755,3.92436c0.06957,0.21871 0.44191,-0.15938 0.6736,-0.17903c0.55767,-0.0473 1.11933,-0.01737 1.67904,-0.02052c1.3095,-0.00738 2.61905,0 3.92857,0c0,0 1.75275,-0.67762 1.75275,1.25844z" fill="#985818" stroke="none" stroke-width="0.5" stroke-linecap="butt"/><path d="M117.80758,321.23918c0,0 -18.17262,0 -27.69644,0c-10.14521,0 -31.42859,0 -31.42859,0" fill="none" stroke="#000000" stroke-width="4.5" stroke-linecap="round"/></g><g><path d="M-3.5405,360.94848v-60.98565h61.87502v60.98565z" fill="#c07830" stroke="none" stroke-width="0" stroke-linecap="butt"/><path d="M-3.49815,323.06055v-22.42594h61.87502v22.42594z" fill="#e5a26e" stroke="none" stroke-width="0" stroke-linecap="butt"/><path d="M-2.21034,301.80825c0,0 21.28337,0 31.42859,0c9.52381,0 449.76311,0 449.76311,0" fill="none" stroke="#000000" stroke-width="4.5" stroke-linecap="round"/><path d="M13.3108,330.48211c0.50031,0.514 -0.2454,1.44356 -0.07444,2.13563c0.17983,0.72802 1.51725,0.10209 2.27711,0.12506c1.52726,0.04617 4.20978,-0.24947 5.35984,0.90169c0.82744,0.82824 -0.42333,2.94832 0.65109,3.42752c1.15905,0.51695 4.30216,-0.28762 5.42139,0.30852c0.91088,0.48517 -0.17618,2.87469 0.49465,3.65202c0.20197,1.06257 0.90276,0.82898 1.92822,0.6524c1.7995,-0.30987 4.41311,-1.17615 5.75629,0.205c0.74543,0.7665 0.19417,3.42496 0.45094,3.43761c1.10043,0.05423 2.58525,-0.22213 3.34469,0.56466c0.80376,0.8327 0.16403,2.25275 0.12645,3.40149c-0.00565,0.17282 2.91037,-0.33213 3.87285,0.28078c0.66638,0.42435 -0.04419,2.46602 0.17341,2.55907c0.60291,0.25781 2.12351,1.06083 3.36878,1.40392c0.82989,0.22864 -0.53017,2.89998 0.53035,3.79308c0.37939,0.31949 1.06406,-0.16953 1.85674,-0.2379c1.19128,-0.10276 2.51411,0.08002 2.51411,0.08002l2.5536,0.11617c0.91809,0.16253 0.6326,2.43666 0.6326,3.38833c0,0.56622 -3.01785,0.23865 -5.99137,0.29114c-2.64167,0.04664 -5.24837,0.20745 -5.67298,-0.41693c-0.2655,-0.3904 0.39932,-2.52209 0.03982,-2.57441c-1.01508,-0.14772 -4.14037,-0.47289 -4.96404,-1.07599c-1.04127,-0.76243 -1.08077,-2.50628 -2.18854,-3.17148c-0.69567,-0.41774 -1.70991,-0.27673 -2.29043,-0.84c-0.53308,-0.51723 -0.3311,-1.46805 -0.73069,-2.09132c-0.14885,-0.23217 -1.8783,-0.28544 -2.42242,-0.53044c-0.85636,0.00707 -1.668,0.08263 -1.93719,0.08171c-1.0966,-0.36214 -2.47332,-0.27911 -3.2898,-1.08641c-0.72148,-0.71337 0.33477,-2.75306 -0.66761,-2.9493c-1.24505,-0.24374 -5.67604,0.73886 -6.34024,-0.13468c-0.31897,-0.41949 0.05895,-3.06791 -0.25949,-3.4878c-0.10765,-0.14195 -5.28409,-0.00411 -5.38242,-0.05602c-1.02816,-0.54284 0.06155,-3.46479 -0.4904,-4.47754c-0.20841,-0.38238 -6.8238,0.26461 -8.0141,-0.71458c-1.12438,-0.92496 0.22956,-1.57525 -0.61477,-2.64755c-0.7791,-0.98946 -3.63596,-0.11555 -3.35476,-0.93032c-0.03713,-0.11696 -0.40133,-2.13885 0.07556,-3.51651c0.26838,-0.77531 1.2302,-1.28646 1.62087,-1.28646h1.96428c2.78592,0 7.5054,-0.80617 9.67206,1.4198zM9.97886,332.59738c0.02822,0.01761 0.05618,0.03503 0.08389,0.05223c-0.01901,-0.03573 -0.04784,-0.05116 -0.08389,-0.05223z" fill="#985818" stroke="none" stroke-width="0.5" stroke-linecap="butt"/><path d="M7.05989,327.90065c0,-0.82018 0.35253,-1.2929 0.75889,-1.56536c-0.73925,0.04479 -1.48407,0.12384 -2.23656,0.24832c0,0 -1.93756,0.31828 -2.26048,-1.59143c-0.32293,-1.90971 1.61463,-2.22799 1.61463,-2.22799c5.68747,-0.92831 10.89719,0.60926 16.52886,0.14168l1.14526,-0.00669c0,0 1.96428,0 1.96428,1.93605c0,1.11834 -0.65542,1.59069 -1.20907,1.79018c0.96273,-0.00685 1.91393,-0.01463 2.84598,-0.01546c0,0 1.96428,0 1.96428,1.93605c0,1.93605 -1.96428,1.93606 -1.96428,1.93606c-5.26048,-0.0043 -11.02013,0.16305 -16.20091,-0.67169l-0.98659,0.02634c0,0 -1.96429,0 -1.96429,-1.93606z" fill="#e89058" stroke="none" stroke-width="0.5" stroke-linecap="butt"/><path d="M58.27048,330.57079l-2.21801,0.07261c-5.4668,0 -10.91831,0.11827 -16.36849,-0.32936c0,0 -1.9575,-0.16078 -1.79437,-2.09015c0.06219,-0.73552 0.38516,-1.16728 0.76104,-1.41998c-0.95616,-0.02011 -1.91996,-0.03348 -2.8958,-0.03261c0,0 -1.96429,0 -1.96429,-1.93605c0,-1.93605 1.96429,-1.93605 1.96429,-1.93605c5.43075,0.00444 10.42368,0.45788 15.87854,0.00669l1.63635,-0.00669c0,0 1.96429,0 1.96429,1.93605c0,1.93605 -1.96429,1.93605 -1.96429,1.93605l-1.31009,-0.00669c-0.0847,0.0069 -0.16928,0.0136 -0.25379,0.02008c1.44805,-0.00441 5.18035,-0.086 6.6301,-0.086z" fill="#e89058" stroke="none" stroke-width="0.5" stroke-linecap="butt"/><path d="M33.56358,330.36591l2.14156,0.06079c1.50556,0.125 3.07885,-0.05196 4.52464,-0.05344c0.95496,-0.00097 1.85427,-0.13527 2.64169,0.69393c0.45511,0.47926 -0.06137,2.54145 0.1819,3.15252c0.26288,0.66032 6.52594,-0.38177 7.13058,0.14648c1.0012,0.87471 0.43864,2.19924 0.42508,3.72232c0.94712,0.38257 2.95345,-0.53726 3.55776,0.25402c0.43396,0.56822 -0.03705,2.62492 0.10282,3.32264c0.18993,0.94747 3.0978,-0.33161 3.78709,0.35482c0.3873,0.38569 0.36472,1.95593 0.33301,3.54435c-0.03753,1.87858 -0.02881,3.78259 -0.02881,3.78259c0,0 -1.35815,0.35285 -3.30269,0.07905c-0.81769,-0.11514 -0.74378,-0.75221 -0.67036,-1.46866c0.10117,-0.98734 0.40519,-2.12542 0.21692,-2.25596c-0.39815,-0.27606 -3.3987,0.61376 -3.9945,-0.36498c-0.30342,-0.49845 0.27555,-2.8233 0.10281,-3.37908c-0.19685,-0.63331 -1.33672,-0.22248 -2.00754,-0.18277c-1.42241,0.0842 -2.35218,-0.01428 -3.30983,0.15578c-0.68707,0.12201 -1.3885,0.81585 -2.29648,-0.19895c-0.43817,-0.48971 0.27498,-2.65775 -0.05493,-3.22396c-0.10363,-0.17786 -1.90132,-0.2022 -3.9533,-0.15325c-1.30324,0.03109 -2.70905,0.58045 -3.8486,-0.43033c-0.89593,-0.79469 0.57146,-2.93035 -0.46655,-3.53417c-0.81582,-0.47458 -1.89012,-0.12927 -2.83444,-0.20351c0,0 -0.8998,0.36047 -0.73668,-1.5689c0.16312,-1.92937 1.06293,-2.28983 1.06293,-2.28983c0.03435,0.00293 0.07094,0.00637 0.10964,0.01034c0.51959,-0.43335 1.1863,0.02815 1.1863,0.02815z" fill="#985818" stroke="none" stroke-width="0.5" stroke-linecap="butt"/><path d="M23.46294,358.97432c0,1.93605 -0.18133,1.88765 -0.18133,1.88765c0,0 -10.35111,0.50506 -11.00451,-0.19955c-0.56941,-0.61404 -0.12152,-2.63929 -0.36311,-3.43637c-0.14496,-0.47827 -2.9802,0.30955 -3.83751,-0.44777c-0.46889,-0.4142 -0.14712,-1.03546 -0.08358,-1.61999c0.07717,-0.70981 -0.04714,-1.36548 -0.14277,-1.53049c-0.31131,-0.53715 -0.94685,-0.17123 -1.06854,-0.17123c-1.01912,0 -2.09143,-0.27253 -3.11579,-0.19127c-1.27739,0.10134 -2.48022,0.46352 -3.41234,-0.76296c-0.557,-0.73289 0.79529,-3.04653 -0.11597,-3.22493c-1.02067,-0.19982 -1.62299,0.17302 -2.6636,0.17302c0,0 -0.98214,-0.22339 -0.98214,-2.15945c0,-1.93605 1.13325,-1.56374 1.13325,-1.56374c1.14451,0 4.90439,-0.54733 5.96955,0.01825c1.92337,1.02128 0.86706,3.48297 0.95143,3.82516c0.17597,0.71373 5.60456,-1.10942 7.42257,0.81059c0.49511,0.5229 -0.26577,2.19388 0.1408,2.78631c0.8268,1.20476 3.10248,-0.54327 3.60716,0.82351c0.16437,0.44515 -0.43135,3.47234 -0.28755,3.92436c0.06957,0.21871 0.4419,-0.15938 0.67359,-0.17903c0.55767,-0.0473 1.11934,-0.01737 1.67905,-0.02052c1.3095,-0.00738 2.61905,0 3.92857,0c0,0 1.75275,-0.67762 1.75275,1.25844z" fill="#985818" stroke="none" stroke-width="0.5" stroke-linecap="butt"/><path d="M481.01053,321.23918c0,0 -442.26846,0 -451.79227,0c-10.14521,0 -31.42859,0 -31.42859,0" fill="none" stroke="#000000" stroke-width="4.5" stroke-linecap="round"/></g></g><path d="M339.51565,299.01863v-45" fill="none" stroke="#000000" stroke-width="4.5" stroke-linecap="round"/></g></g></svg>