<svg version="1.1" xmlns="http://www.w3.org/2000/svg" xmlns:xlink="http://www.w3.org/1999/xlink" width="188.86055" height="201.36748" viewBox="0,0,188.86055,201.36748"><g transform="translate(-146.34369,-74.18051)"><g data-paper-data="{&quot;isPaintingLayer&quot;:true}" fill-rule="nonzero" stroke-linejoin="miter" stroke-miterlimit="10" stroke-dasharray="" stroke-dashoffset="0" style="mix-blend-mode: normal"><g data-paper-data="{&quot;origRot&quot;:0,&quot;index&quot;:null}" stroke-width="0" stroke-linecap="butt"><g data-paper-data="{&quot;origPos&quot;:null}" stroke="none"><path d="M163.87279,160.56076c1.46205,-10.39106 -0.13205,-17.24536 5.47366,-16.45662c11.72239,1.64936 18.09149,0.59838 19.20775,3.11841c1.43492,3.2395 -3.2093,28.93929 -4.1735,32.34861c-1.1527,4.07584 -14.03884,-1.60765 -19.64454,-2.39638c-5.60571,-0.78873 -2.3254,-6.22296 -0.86338,-16.61402z" data-paper-data="{&quot;origRot&quot;:0,&quot;origPos&quot;:null}" fill="#ffdebd"/><path d="M183.14801,164.76978c1.46204,-10.39106 -2.10559,-19.07708 2.10035,-18.82746c11.7224,1.64933 18.98354,12.19383 18.76932,19.55945c1.43493,3.2395 -3.84584,8.33358 -5.56352,10.91691c-1.1527,4.07585 -7.72419,5.64666 -13.32989,4.85793c-5.60571,-0.78872 -3.43829,-6.11574 -1.97625,-16.50681z" data-paper-data="{&quot;origRot&quot;:0,&quot;origPos&quot;:null}" fill="#fff70c"/></g><g data-paper-data="{&quot;origPos&quot;:null}"><path d="M178.29843,143.53936c10.34973,-0.34056 8.9558,7.39563 9.24189,16.0894c0.28607,8.69377 -7.87213,16.01754 -18.22187,16.35812c-10.34974,0.34058 -15.85069,-2.01415 -16.13678,-10.70792c-0.16004,-4.86349 -0.00047,-16.18457 3.99868,-18.95692c7.33824,-5.08714 12.19383,-2.48902 21.11809,-2.78268z" data-paper-data="{&quot;origPos&quot;:null,&quot;origRot&quot;:0}" fill="#ffdebd" stroke="#ffdebd"/><g data-paper-data="{&quot;origPos&quot;:null,&quot;origRot&quot;:0}" fill="#ffffff" stroke="none"><path d="M188.85932,129.77523c-0.63461,13.9743 -5.0874,12.09597 -17.67048,13.45227c-12.58307,1.35632 -22.55523,2.9132 -23.2074,-10.41142c-0.47312,-9.66651 2.4983,-20.98993 15.0675,-19.51064c13.71589,1.61424 26.49004,1.50377 25.81038,16.4698z" data-paper-data="{&quot;origRot&quot;:0,&quot;origPos&quot;:null}"/><path d="M189.41542,145.20511c0.40433,5.37524 -9.09353,7.65285 -18.80977,8.6872c-9.71623,1.03435 -20.60014,4.10958 -20.79914,-3.40756c-0.22259,-8.40939 2.35904,-8.18066 18.27859,-9.47864c18.13531,-1.47865 20.6379,-5.00629 21.33033,4.19899z" data-paper-data="{&quot;origRot&quot;:0,&quot;origPos&quot;:null}"/></g></g></g><g data-paper-data="{&quot;origRot&quot;:0,&quot;index&quot;:null}" stroke-width="0" stroke-linecap="round"><path d="M167.65823,209.61024c-0.42392,11.06156 -0.52743,22.60788 -2.15627,26.67031c-1.62885,4.06243 -8.63105,4.90856 -10.72985,4.92604c-0.85317,0.00712 -3.1575,-1.80466 -3.58994,-2.07232c-1.43473,-0.88802 -3.6399,-0.62942 -4.55721,-11.64974c-0.91731,-11.02031 0.66691,-24.84311 1.08505,-28.31254c0.41815,-3.46942 0.863,-5.45978 3.31693,-8.21232c2.45392,-2.75254 5.89983,-3.91805 8.18561,-4.68996c2.28577,-0.77192 4.50071,-1.37154 6.00837,-0.10332c1.50766,1.2682 0.5937,1.79638 -0.19149,4.99635c-0.78521,3.19998 -2.88254,6.76354 -2.97107,7.89201c-0.08852,1.12845 2.33565,2.72141 2.45673,2.93669c0.36328,0.64585 1.54714,2.16785 2.10856,3.52859c0.47786,1.15827 1.05396,3.58471 1.03458,4.09025z" data-paper-data="{&quot;origPos&quot;:null}" fill="#007e45" stroke="#000000"/><path d="M168.95588,236.67985c-3.01335,-1.85541 -3.17278,-2.5036 -4.15143,-4.82919c-0.97865,-2.32559 -2.6401,-6.27435 -2.269,-10.42788c0.3711,-4.15351 1.92193,-5.83837 4.02141,-9.18606c2.09947,-3.34768 2.13687,-2.84375 4.15024,-3.84389c2.01336,-1.00013 5.02181,-1.69194 7.07145,-1.73045c2.84858,-0.05355 14.70707,-4.60579 17.28234,1.66304c2.57524,6.26882 0.77126,33.09416 -2.94197,33.24505c-3.35724,0.13642 -7.28861,-0.34928 -14.60485,-1.89403c-7.31624,-1.54474 -5.54485,-1.14118 -8.5582,-2.99659z" data-paper-data="{&quot;origPos&quot;:null}" fill="#a000b2" stroke="#b100c6"/></g><g data-paper-data="{&quot;origPos&quot;:null,&quot;origRot&quot;:0,&quot;index&quot;:null}"><path d="M251.39565,169.70506c28.45596,1.04683 32.98676,27.2119 33.7451,39.77633c-0.5237,34.20838 -26.12721,41.50744 -54.58317,40.46061c-28.45596,-1.04683 -51.11549,-9.60134 -50.51199,-26.00637c0.65469,-17.79674 2.53327,-42.42097 18.88092,-53.16216c12.1795,-8.0025 37.08069,-1.63451 52.46913,-1.06841z" data-paper-data="{&quot;origPos&quot;:null,&quot;index&quot;:null}" fill="#a000b2" stroke="none" stroke-width="0" stroke-linecap="butt"/><path d="M280.78747,191.80941c2.02639,19.29204 -29.37677,18.15831 -32.2154,17.26723c-5.41637,-1.70026 -17.57533,-7.54269 -21.60174,-9.43234c-8.98016,-4.21454 -45.99058,-2.82362 -45.99058,-2.82362c0,0 8.81298,-23.66475 17.05773,-29.08194c12.1795,-8.0025 32.67564,-4.29826 48.06408,-3.73216c28.45596,1.04683 33.92757,15.2384 34.68591,27.80283z" data-paper-data="{&quot;origPos&quot;:null,&quot;index&quot;:null}" fill="#fff70c" stroke="none" stroke-width="0" stroke-linecap="butt"/><path d="M240.53516,204.79646l2.80406,-35.42086" data-paper-data="{&quot;origPos&quot;:null}" fill="none" stroke="#a000b2" stroke-width="17" stroke-linecap="round"/><path d="M240.79251,197.80119c3.86337,0.14212 6.88005,3.38924 6.73793,7.25261c-0.14212,3.86337 -3.38924,6.88004 -7.25261,6.73792c-3.86338,-0.14212 -6.88005,-3.38923 -6.73793,-7.2526c0.14213,-3.86337 3.38924,-6.88005 7.25261,-6.73793z" data-paper-data="{&quot;origPos&quot;:null}" fill="#f3f3f3" stroke="none" stroke-width="0" stroke-linecap="butt"/><path d="M187.14918,200.07787l10.57413,-23.34926l8.24723,-10.97649" data-paper-data="{&quot;origPos&quot;:null,&quot;origRot&quot;:0}" fill="none" stroke="#a000b2" stroke-width="14" stroke-linecap="round"/><path d="M178.76092,197.52054c0.14213,-3.86337 3.38923,-6.88005 7.25261,-6.73793c3.86337,0.14212 6.88005,3.38924 6.73792,7.25261c-0.14213,3.86338 -3.38923,6.88005 -7.25261,6.73793c-3.86338,-0.14213 -6.88006,-3.38924 -6.73793,-7.25261z" data-paper-data="{&quot;origPos&quot;:null}" fill="#f3f3f3" stroke="none" stroke-width="0" stroke-linecap="butt"/></g><g data-paper-data="{&quot;origRot&quot;:0,&quot;index&quot;:null}" stroke-width="0" stroke-linecap="round"><path d="M282.66105,250.58777c4.91663,-9.91791 9.73946,-20.40926 12.88909,-23.44839c3.14963,-3.03914 9.88426,-0.94355 11.80616,-0.10001c0.78128,0.34291 2.14155,2.93946 2.42646,3.36074c0.94526,1.39771 3.06295,2.06482 -0.61318,12.49435c-3.67613,10.42953 -10.78208,22.39134 -12.58432,25.38528c-1.80225,2.99394 -3.0232,4.62756 -6.38914,6.1338c-3.36594,1.50624 -6.98691,1.15839 -9.38836,0.92654c-2.40145,-0.23186 -4.66766,-0.59185 -5.52375,-2.36627c-0.85608,-1.77441 0.19397,-1.88196 2.22075,-4.47975c2.02678,-2.59778 5.39954,-4.98995 5.94242,-5.9832c0.54287,-0.99323 -1.01633,-3.43925 -1.03865,-3.68523c-0.06694,-0.73798 -0.5237,-2.61131 -0.47862,-4.08262c0.03836,-1.2524 0.50644,-3.70196 0.73115,-4.15524z" data-paper-data="{&quot;origPos&quot;:null}" fill="#007e45" stroke="#000000"/><path d="M292.56263,225.36073c1.98925,2.92672 1.86927,3.58332 1.80973,6.10576c-0.05954,2.52243 -0.16088,6.80528 -2.20037,10.44257c-2.03948,3.63731 -4.14429,4.53935 -7.43058,6.73367c-3.28629,2.19434 -3.11402,1.71926 -5.36041,1.80719c-2.24637,0.08794 -5.27429,-0.51294 -7.15996,-1.31716c-2.62066,-1.11768 -15.30342,-1.82093 -15.08566,-8.59459c0.21778,-6.77369 12.84896,-30.50774 16.29834,-29.12478c3.1187,1.25037 6.50642,3.30345 12.54843,7.70883c6.04201,4.40538 4.59123,3.31179 6.58049,6.23852z" data-paper-data="{&quot;origPos&quot;:null}" fill="#a000b2" stroke="#b100c6"/></g><g data-paper-data="{&quot;origRot&quot;:0,&quot;index&quot;:null}" stroke-linecap="butt"><g data-paper-data="{&quot;origPos&quot;:null}" stroke="none" stroke-width="0"><path d="M305.0484,188.01058c-10.39124,5.67073 -14.87535,10.3143 -17.27473,8.95802c-3.08439,-1.74349 -14.69152,-25.13842 -15.95195,-28.44969c-1.50687,-3.95861 12.2253,-7.08631 17.19444,-9.79807c4.96915,-2.71176 5.5791,3.60642 10.60578,12.81751c5.02667,9.21108 10.39562,13.76047 5.42647,16.47225z" data-paper-data="{&quot;origRot&quot;:0,&quot;origPos&quot;:null}" fill="#ffdebd"/><path d="M291.19041,196.02352c-10.39123,5.6707 -22.50974,1.54129 -26.73261,-4.49741c-3.08439,-1.74348 -1.88604,-8.98229 -2.04898,-12.08027c-1.50686,-3.95861 2.82946,-9.14014 7.7986,-11.8519c4.96914,-2.71177 6.40824,2.85637 11.43492,12.06746c5.02667,9.21109 13.07226,14.05289 9.5481,16.36212z" data-paper-data="{&quot;origRot&quot;:0,&quot;origPos&quot;:null}" fill="#fff70c"/></g><g data-paper-data="{&quot;origPos&quot;:null}"><path d="M298.20149,193.80515c-8.10239,6.44859 -11.59965,-0.59134 -17.01647,-7.39736c-5.41682,-6.80601 -3.23973,-17.55098 4.86265,-23.99958c8.10239,-6.44859 13.92185,-7.84118 19.33867,-1.03516c3.03029,3.80741 9.65707,12.98773 8.10195,17.59866c-2.85359,8.46086 -8.30037,9.273 -15.28682,14.83343z" data-paper-data="{&quot;origPos&quot;:null,&quot;origRot&quot;:0}" fill="#ffdebd" stroke="#ffdebd" stroke-width="0"/><g data-paper-data="{&quot;origPos&quot;:null,&quot;origRot&quot;:0}" fill="#ffffff" stroke="none" stroke-width="0"><path d="M297.93893,211.15202c-7.82867,-11.59292 -3.13458,-12.74237 6.15399,-21.33864c9.28859,-8.59628 16.36223,-15.79566 24.83589,-5.49188c6.14732,7.47501 10.51903,18.33491 -0.45032,24.64736c-11.97006,6.88833 -22.15531,14.59881 -30.53955,2.18316z" data-paper-data="{&quot;origRot&quot;:0,&quot;origPos&quot;:null}"/><path d="M288.28628,199.10145c-3.53168,-4.07232 2.73134,-11.5671 9.91139,-18.19447c7.18006,-6.62737 14.07946,-15.58924 18.72433,-9.67551c5.19619,6.61567 2.98795,7.97247 -9.0129,18.51267c-13.67121,12.00725 -13.57471,16.33135 -19.62283,9.35732z" data-paper-data="{&quot;origRot&quot;:0,&quot;origPos&quot;:null}"/></g><path d="M321.62622,183.40929c1.40765,1.42076 0.90844,2.31589 0.90844,2.31589c0.46963,1.6858 0.93927,3.37162 1.4089,5.05742c1.15635,4.1508 3.73201,8.62928 -0.78914,11.67905c-1.7338,1.16954 -4.92715,-2.46902 -6.02422,-2.9931c-0.40853,-0.19515 -0.82408,-0.47055 -1.27673,-0.46324c0.08944,0.3211 0.17889,0.6422 0.26835,0.96332c0.31634,2.00819 1.79162,3.37622 1.86011,5.60068c0.0932,3.02796 -2.40833,4.04153 -4.83223,3.83178c-4.20868,-0.3642 -7.09786,-2.36017 -10.28091,-4.67149l-0.09377,0.10885l-1.34515,-1.15875c-0.1489,-0.12454 -0.28047,-0.27134 -0.38901,-0.43718c-0.34895,-0.48988 -0.64083,-1.28701 0.03562,-2.24364c0.01159,-0.01655 0.02343,-0.03294 0.03552,-0.04915c0.69465,-0.94098 1.54382,-0.91302 2.11775,-0.73598c0.24139,0.0646 0.46838,0.17385 0.66889,0.32095l2.58255,1.86076l-0.08664,0.12026c1.18401,0.94831 2.42364,1.85521 3.72951,2.32707c0.95162,0.34385 2.61351,0.52581 3.68687,0.62268c0.09759,-0.21591 0.24756,-0.4666 0.24445,-0.65926c-0.01104,-0.68456 -1.51867,-2.93232 -1.78684,-3.76413c-0.62894,-2.25768 -1.38049,-5.77023 2.51145,-5.89004c2.59584,-0.07991 3.87648,0.91135 5.93271,2.29196c0.40939,0.27487 0.81988,0.50537 1.2532,0.66542c0.0213,-0.06643 0.03429,-0.12987 0.03335,-0.18759c-0.00606,-0.37513 -0.3994,-0.64694 -0.50008,-1.00836c-0.46962,-1.68579 -0.93927,-3.3716 -1.4089,-5.0574c-0.46962,-1.68579 -0.93927,-3.37161 -1.4089,-5.05741l0.11643,-3.40246c0,0 1.42075,-1.40766 2.8284,0.0131z" data-paper-data="{&quot;origPos&quot;:null}" fill="#0052ef" stroke="none" stroke-width="0.5"/></g></g><g data-paper-data="{&quot;origRot&quot;:0,&quot;index&quot;:null}"><path d="M229.17395,142.41108l32.18167,8.32713l-10.88215,26.1241l-3.26013,4.27321l-3.81074,0.83695l-41.38903,-9.8913l11.2566,-26.41044l-1.60785,-5.59497z" data-paper-data="{&quot;origPos&quot;:null}" fill="#a10114" stroke="#a10114" stroke-width="0.5" stroke-linecap="round"/><path d="M254.76116,169.51158c-1.81121,4.72753 -9.27203,6.26407 -16.66415,3.43197c-7.39213,-2.8321 -11.91635,-8.96038 -10.10512,-13.68791c1.81121,-4.72752 9.27202,-6.26407 16.66414,-3.43197c7.39213,2.8321 11.91635,8.96038 10.10512,13.68791z" data-paper-data="{&quot;origPos&quot;:null,&quot;origRot&quot;:0}" fill="#f4c4f6" stroke="none" stroke-width="0" stroke-linecap="butt"/><g data-paper-data="{&quot;origPos&quot;:null}" stroke-linecap="round"><path d="M194.78865,170.78135l1.9606,-7.13679l1.71819,-2.79742l3.28212,-1.9163l6.5641,1.21167l38.98805,10.24367l-5.99165,9.62578z" data-paper-data="{&quot;origPos&quot;:null}" fill="#ffffff" stroke="#000000" stroke-width="0"/><path d="M202.93876,170.18683l5.9476,-9.29536" data-paper-data="{&quot;origPos&quot;:null}" fill="none" stroke="#a5b5ff" stroke-width="1.5"/><path d="M215.94336,172.97994l4.03614,-8.97766" data-paper-data="{&quot;origPos&quot;:null,&quot;origRot&quot;:0}" fill="none" stroke="#a5b5ff" stroke-width="1.5"/><path d="M234.62754,167.63712l-4.03613,8.97768" data-paper-data="{&quot;origPos&quot;:null,&quot;origRot&quot;:0}" fill="none" stroke="#a5b5ff" stroke-width="1.5"/></g><g data-paper-data="{&quot;origPos&quot;:null}"><path d="M261.3511,147.13642c4.98951,-0.32387 5.31337,4.66563 5.31337,4.66563c0,0 -1.06529,8.45432 -2.09096,11.17585c-2.88195,7.64698 -5.6571,14.76351 -11.40738,20.80101c-5.08411,5.17977 -11.60042,9.01206 -18.88539,9.77127c-2.57849,0.26872 -20.60861,-1.50396 -23.89544,-3.73102c-0.93634,-0.63444 -1.76436,-1.41875 -2.68102,-2.0805c-0.30292,0.01982 -0.67324,0.02405 -0.87357,0.09319c-0.66809,0.23059 -1.23426,0.72881 -1.92018,0.89916c-2.67514,0.6644 -4.98052,0.55908 -7.66631,0.20091c-0.82602,-0.11015 -1.91026,0.27949 -2.47807,-0.33047c-1.67393,-1.79817 -2.94075,-3.93622 -4.41112,-5.90433c-0.27065,-4.16942 0.33105,-13.59871 5.63414,-14.61406c1.42939,-0.27369 7.95481,0.97682 9.72319,1.65744c2.19605,0.84523 23.20371,5.7602 29.03363,6.53768c1.51768,0.20239 3.43582,0.79098 4.95612,0.66094c0.20706,-0.01771 4.78116,-2.1512 1.62453,-1.11755c0.92164,-1.15617 14.60796,-22.06383 15.13893,-23.61413c0.0938,-0.27384 1.37512,-4.84315 4.88554,-5.07102z" data-paper-data="{&quot;origPos&quot;:null}" fill="#ffdebd" stroke="none" stroke-width="0.5" stroke-linecap="butt"/><path d="M206.35256,187.4563l-1.71807,-2.24682l0.39656,-2.97368l0.35251,-2.64326l2.13673,-3.41417" data-paper-data="{&quot;origPos&quot;:null}" fill="none" stroke="#f6b09a" stroke-width="1.5" stroke-linecap="round"/></g></g><g data-paper-data="{&quot;origPos&quot;:null,&quot;index&quot;:null}"><path d="M202.45845,104.40124c7.87118,1.04865 23.40157,2.31558 22.9202,5.92874c-0.48137,3.61316 0.57769,10.56886 -7.29348,9.52021c-9.76814,-1.30137 -21.54584,-7.71964 -21.66753,-11.56266c-0.07876,-2.48755 -1.83036,-4.93494 6.04081,-3.88629z" data-paper-data="{&quot;origPos&quot;:null}" fill="#b49416" stroke="none" stroke-width="0" stroke-linecap="butt"/><path d="M213.43007,120.78977l-10.52975,-6.7833l-4.1856,-3.92041l-0.46301,-4.09703" data-paper-data="{&quot;origPos&quot;:null}" fill="none" stroke="#a5b5ff" stroke-width="4.5" stroke-linecap="round"/><path d="M279.09028,145.65068c1.16126,-0.10431 2.26399,3.07556 2.26399,3.07556c-0.29307,2.19979 -0.07056,7.81144 -1.70288,9.4374c-1.7864,1.77941 -5.01466,1.1131 -6.28513,2.81502c-0.12622,0.16907 -0.79156,2.29011 -0.83882,2.34867c-3.05596,2.73331 -9.47186,1.75347 -9.67881,-2.98985c-0.23973,-5.49462 4.73743,-10.83714 9.36011,-13.21707c2.4893,-1.13008 4.05759,-1.82529 6.88154,-1.46975z" data-paper-data="{&quot;origPos&quot;:null}" fill="#8e4108" stroke="none" stroke-width="0.5" stroke-linecap="butt"/><path d="M249.48293,164.69537c0,0 3.13581,-7.91661 4.53638,-9.38353c0.28916,-0.30286 -0.68455,-1.65435 -1.0306,-1.63548c-2.68092,0.14616 -6.10175,-0.81086 -8.71813,-1.32741c-10.49052,-2.0924 -21.06651,-3.38977 -31.6653,-4.8018c-2.20065,-0.29318 -8.4851,-1.50333 -8.94408,-2.20277c-1.01379,-1.5449 -2.26468,-3.97066 -1.68884,-6.02742c1.08742,-3.88405 9.15965,-23.89885 11.03456,-26.54206c0.51218,-0.72206 0.80597,-1.70846 1.58318,-2.13231c5.4091,-2.94979 39.82452,4.96762 46.16859,8.54087c2.34209,1.31916 5.90295,4.21067 8.57291,4.61829c0.30159,0.04605 1.7882,-1.67597 2.4883,-2.07977c1.84942,-1.0667 3.76706,-1.23098 5.92588,-1.52388c4.44756,-0.60341 10.83962,0.26174 12.92308,0.14678c0.44282,-0.02443 13.35627,0.62095 13.35627,0.62095c0,0 0.66481,3.44802 -0.81542,7.54628c-1.82545,5.05408 -5.48898,9.27537 -9.30592,13.04639c-2.42243,2.38354 -5.35572,4.57151 -8.62324,5.61848c-1.75901,0.56363 -3.65653,1.0302 -5.4664,1.40495c-0.91532,0.18952 -2.04134,0.47884 -2.07765,0.72293c-0.14455,0.97184 -1.93398,2.43554 -2.44807,3.31142c-1.19064,2.02852 -2.05193,3.97202 -3.62545,5.80701c-2.1846,2.48854 -7.89656,7.98087 -7.89656,7.98087z" data-paper-data="{&quot;origPos&quot;:null}" fill="#ffdebd" stroke="none" stroke-width="0.5" stroke-linecap="butt"/><path d="M231.24849,129.16646l3.0444,-11.02286c0,0 19.18413,2.86739 23.78662,3.48056c1.98894,0.26498 -0.73668,11.58748 -4.30446,12.62134c-4.10362,1.18915 -8.77297,-3.76619 -15.12337,-4.61223c-6.35039,-0.84604 -7.40319,-0.46682 -7.40319,-0.46682z" data-paper-data="{&quot;origPos&quot;:null}" fill="#ffffff" stroke="#f6b09a" stroke-width="0" stroke-linecap="butt"/><path d="M226.81078,121.38378c0,0 -2.10794,2.24125 -8.45833,1.39521c-6.35039,-0.84604 -2.09361,-0.10664 -5.74936,-2.27921c-3.17839,-1.88887 3.95081,-8.45229 3.95081,-8.45229c0,0 4.22954,1.27806 6.69896,3.01116c2.37143,1.66434 3.55793,6.32513 3.55793,6.32513z" data-paper-data="{&quot;index&quot;:null,&quot;origPos&quot;:null}" fill="#ffffff" stroke="#f6b09a" stroke-width="0" stroke-linecap="butt"/><path d="M254.76741,135.80313c-1.63203,-0.63167 -1.00034,-2.26369 -1.00034,-2.26369l1.23496,-1.56751c2.37218,-2.86809 2.48146,-5.49554 2.96974,-9.16055c0,0 0.23111,-1.73467 1.96578,-1.50357c1.73467,0.2311 1.50357,1.96577 1.50357,1.96577c-0.5694,4.27395 -0.90427,7.49804 -3.74205,10.92905l-0.66796,0.60017c0,0 -0.63169,1.63202 -2.2637,1.00034z" data-paper-data="{&quot;origPos&quot;:null}" fill="#18c6ff" stroke="none" stroke-width="0.5" stroke-linecap="butt"/><path d="M271.39019,124.18911c0.00037,0.12729 -0.01022,0.20683 -0.01022,0.20683l-0.01486,-0.00462c-0.01238,0.2973 -0.08087,0.50943 -0.08087,0.50943c-1.02492,3.17445 -2.40915,6.08035 -3.90627,9.04839c-0.01457,0.02889 -1.08677,2.23039 -1.08862,2.23113c-5.93001,2.39534 -6.19536,-5.0353 -5.88528,-8.90863c0.44056,-3.30679 -1.25988,-5.71997 1.4479,-8.51203c0.98723,-1.01794 2.49367,-0.62803 3.74189,-0.53181c3.82426,0.29477 6.97726,1.22619 5.8028,5.96178l-0.00648,-0.00047z" data-paper-data="{&quot;origPos&quot;:null}" fill="#8e4108" stroke="none" stroke-width="0.5" stroke-linecap="butt"/><path d="M209.70839,118.38465l0.07635,-1.21612c1.01651,-2.11419 2.32958,-3.4576 4.02808,-5.0076c0,0 1.30796,-1.19362 2.47155,0.13386c1.16358,1.32748 -0.14439,2.5211 -0.14439,2.5211c-1.37081,1.25097 -2.41575,2.25234 -3.21308,3.9107l-0.30099,1.61615c0,0 -0.96783,1.49278 -2.4266,0.51374c-1.45877,-0.97905 -0.49092,-2.47183 -0.49092,-2.47183z" data-paper-data="{&quot;origPos&quot;:null}" fill="#18c6ff" stroke="none" stroke-width="0.5" stroke-linecap="butt"/><path d="M215.45117,83.55914c3.30402,-10.38685 15.53968,-11.53157 31.81537,-6.44022c12.64346,3.95513 22.51353,23.65005 22.51353,23.65005c3.61208,-3.82693 12.61275,-3.97373 12.61275,-3.97373c8.01838,1.06826 15.42511,2.10876 12.88061,15.62461c-1.15356,6.1275 -6.36825,10.70621 -14.38663,9.63795c-3.92041,-0.5223 -13.54543,1.67951 -16.95511,-0.20874c-12.98565,-7.19134 -29.94992,-8.02767 -41.85575,-16.64665c-8.17101,-5.91522 -11.22562,-7.17955 -6.62477,-21.64325z" data-paper-data="{&quot;origPos&quot;:null}" fill="#fff70c" stroke="none" stroke-width="0" stroke-linecap="butt"/><path d="M232.8663,85.79666c7.28105,0.97003 12.62183,5.97243 11.92896,11.17319c-0.69288,5.20076 -7.15703,8.63044 -14.43808,7.66041c-7.28106,-0.97003 -12.62184,-5.97243 -11.92896,-11.17319c0.69288,-5.20076 7.15702,-8.63044 14.43808,-7.66041z" data-paper-data="{&quot;origPos&quot;:null}" fill="#ffffff" stroke="none" stroke-width="0" stroke-linecap="butt"/><path d="M248.45657,86.85885c-0.27792,2.21026 -1.40562,2.38788 -1.40562,2.38788c-1.1549,1.57022 -2.3098,3.14047 -3.4647,4.71069c-2.84358,3.86623 -4.99897,9.20174 -10.77935,7.33479c-2.2167,-0.71595 -1.22204,-6.01563 -1.51664,-7.33743c-0.1097,-0.49218 -0.15391,-1.04568 -0.47141,-1.43743c-0.21999,0.2991 -0.43995,0.59818 -0.65994,0.89728c-1.54283,1.65741 -1.72805,3.89075 -3.63079,5.47954c-2.59004,2.16269 -5.19765,0.6666 -6.67964,-1.60216c-2.57322,-3.93934 -2.80928,-7.84351 -2.97093,-12.22202l-0.15985,-0.00738l0.09121,-1.97543c0.00682,-0.21611 0.04509,-0.43232 0.11585,-0.64144c0.18959,-0.64253 0.68768,-1.44621 1.99109,-1.51073c0.02247,-0.00123 0.04497,-0.00211 0.06749,-0.00265c1.30221,-0.03782 1.8613,0.7257 2.10055,1.35045c0.10926,0.25598 0.16952,0.53004 0.17838,0.80689l0.14387,3.5425l-0.16495,0.0067c-0.01749,1.68956 0.03953,3.3994 0.52339,4.86832c0.3526,1.07044 1.33527,2.65219 1.98804,3.65959c0.25631,-0.06286 0.57912,-0.10368 0.74585,-0.23882c0.59245,-0.48014 1.52655,-3.34639 2.07135,-4.15313c1.54668,-2.10291 4.10905,-5.17567 6.8888,-1.84661c1.85405,2.2204 1.86531,4.02414 2.06832,6.77533c0.04043,0.54775 0.1205,1.06597 0.27801,1.55579c0.07287,-0.02698 0.1374,-0.05921 0.18736,-0.09969c0.32466,-0.26312 0.29258,-0.79469 0.54017,-1.13134c1.15489,-1.57023 2.30979,-3.14047 3.46469,-4.71069c1.1549,-1.57023 2.30978,-3.14048 3.46468,-4.7107l3.06238,-2.2363c0,0 2.21026,0.27792 1.93234,2.48819z" data-paper-data="{&quot;origPos&quot;:null,&quot;origRot&quot;:0}" fill="#0052ef" stroke="none" stroke-width="0.5" stroke-linecap="butt"/><path d="M196.25647,106.1475c-0.39145,-3.25369 10.89004,-8.57659 17.98724,-7.73072c17.36128,2.06919 39.82452,10.48947 46.31056,13.37125c5.36725,2.3847 6.96201,7.71345 7.35345,10.96714c0.10589,0.88017 -11.76257,-0.27253 -17.52375,-1.62844c-11.85396,-2.78986 -54.0216,-14.09906 -54.12749,-14.97923z" data-paper-data="{&quot;origPos&quot;:null}" fill="#ffd412" stroke="none" stroke-width="0" stroke-linecap="butt"/><path d="M286.49873,130.41632l-1.85186,6.07532c0,0 -1.53371,2.3271 -4.03073,2.48951c-2.49701,0.16241 -5.40305,-1.3008 -6.1458,-1.82762c-0.74275,-0.52681 -0.96591,-0.74059 0.30814,-2.31289c1.27405,-1.5723 1.31535,-2.07298 4.11877,-3.15034c2.80343,-1.07736 7.57725,-1.34446 7.57725,-1.34446l7.04847,-2.42374" data-paper-data="{&quot;origPos&quot;:null}" fill="none" stroke="#f6b09a" stroke-width="3" stroke-linecap="round"/><path d="M197.92128,105.94501l35.37657,7.06703l30.32715,10.26153" data-paper-data="{&quot;origPos&quot;:null}" fill="none" stroke="#ffffff" stroke-width="4.5" stroke-linecap="round"/><path d="M209.66225,109.94724l0.95783,-3.40332l4.09703,-0.463l4.17976,0.80906l4.44428,2.60976l3.40372,4.74102l2.59385,1.3544l3.86593,1.27167l4.03099,0.03261l4.54292,-1.91685l6.64116,-0.62847l5.05525,-0.08313l5.91444,1.04016l8.32651,1.86594l-2.31184,9.78035l-10.72227,-4.7072l-5.31977,-1.71757l-5.48484,-0.47851l-7.20281,1.05806l-2.89099,0.87589l-6.69089,-0.8914l-2.18097,-2.56044l-2.51151,-3.86553l-3.1225,-1.17262l-5.3858,-1.22195l-0.29713,2.23029z" data-paper-data="{&quot;origPos&quot;:null}" fill="#000001" stroke="#ff0000" stroke-width="0" stroke-linecap="round"/><path d="M227.14316,113.17234c0.76826,-3.5607 2.95697,-1.31236 5.64884,-0.68438c2.69186,0.62798 4.86754,-0.60223 4.09929,2.95847c-0.76825,3.5607 -3.57325,5.93816 -6.26512,5.31018c-2.69187,-0.62797 -4.25126,-4.02356 -3.483,-7.58426z" data-paper-data="{&quot;origPos&quot;:null,&quot;origRot&quot;:0}" fill="#ffdebd" stroke="#f6b09a" stroke-width="2.5" stroke-linecap="butt"/><path d="M227.05073,111.43996l5.67878,1.2946l4.90785,1.52818" data-paper-data="{&quot;origPos&quot;:null}" fill="none" stroke="#ffffff" stroke-width="4.5" stroke-linecap="round"/><g data-paper-data="{&quot;origPos&quot;:null,&quot;index&quot;:null}" stroke-linecap="round"><path d="M255.14532,148.86369l2.65545,1.27247l-4.33582,6.84262c0,0 -1.10237,2.01403 -1.50899,2.20465c-0.13554,0.06353 -10.29191,-1.65678 -10.29191,-1.65678l-39.81882,-9.54505l5.85738,-7.98262z" data-paper-data="{&quot;origPos&quot;:null}" fill="#ffffff" stroke="#000000" stroke-width="0"/><path d="M241.06517,156.88151l5.82038,-7.70488" data-paper-data="{&quot;origPos&quot;:null}" fill="none" stroke="#a5b5ff" stroke-width="1.5"/><path d="M233.61843,146.51907l-3.88736,7.48107" data-paper-data="{&quot;origPos&quot;:null,&quot;origRot&quot;:0}" fill="none" stroke="#a5b5ff" stroke-width="1.5"/><path d="M214.77589,150.59435l3.88736,-7.48108" data-paper-data="{&quot;origPos&quot;:null,&quot;origRot&quot;:0}" fill="none" stroke="#a5b5ff" stroke-width="1.5"/></g><path d="M195.11975,142.71037l1.09688,-0.66093l2.66951,-1.86379l1.81097,3.066l2.12759,-2.33952l3.10578,-0.59507l2.45853,2.74875l3.47556,-3.37054l2.74906,0.56801l2.00921,3.09242l1.53285,-2.41876l2.16737,-1.12362l2.63005,-0.05315l3.15925,5.06154l6.43591,-4.38852l1.55957,0.40955l3.55574,5.11436l13.16299,-4.90466l2.37898,0.31694l1.15035,4.99566l11.61678,-3.90005l2.04867,1.28177l-15.92414,15.02869l-2.52441,-0.73985l-4.33569,-6.83241l-8.04831,4.37547l-1.73141,-0.63421l-2.68351,-5.60346l-1.38774,-0.18488l-6.013,4.24309l-1.78423,-0.23771l-2.48527,-5.57705l-3.52837,3.76704l-2.60364,-0.14511l-2.31343,-5.35238l-3.5812,4.16353l-1.66522,0.38345l-2.24693,-1.30819l-0.14574,-3.44946l-3.2773,3.39695l-3.99138,-0.32999l-0.25139,-2.65647l-1.30819,2.24693l-3.17197,-0.42259l-1.77183,-7.9032z" data-paper-data="{&quot;origPos&quot;:null}" fill="#000001" stroke="#ff0000" stroke-width="0" stroke-linecap="round"/><path d="M227.06907,133.00965c0.30606,-0.0215 0.5162,0.0065 0.5162,0.0065c1.51621,0.202 4.94303,0.43364 5.72088,1.95139c1.60944,3.1404 1.2628,8.46612 -1.69827,10.90654c-4.21249,3.47179 -8.64395,2.37291 -13.45735,2.98634c-5.45694,0.35493 -11.52966,-1.20692 -16.81201,-2.45554c-1.69695,-0.4011 -4.2298,-0.7835 -5.44292,-2.15405c-2.47581,-2.79709 -2.73719,-5.94424 -2.34231,-9.4634c1.58632,-11.90705 17.1675,-13.602 26.86097,-12.31057c2.88886,0.38487 5.99033,2.19649 6.68972,5.29304c0.3166,1.40174 -0.06589,3.51024 -0.03493,5.23977z" data-paper-data="{&quot;origPos&quot;:null}" fill="#f991fd" stroke="none" stroke-width="0.5" stroke-linecap="butt"/><path d="M239.69568,121.40383c0.83591,0.11137 1.55555,0.48972 2.04428,1.01183c0.48877,0.52111 0.74543,1.18583 0.65431,1.86978c-0.09111,0.68395 -0.51285,1.25828 -1.121,1.63326c-0.60838,0.37595 -1.40198,0.5527 -2.23789,0.44133c-0.83601,-0.11138 -1.55565,-0.48973 -2.04428,-1.01183c-0.48885,-0.52111 -0.74552,-1.18584 -0.6544,-1.86979c0.09112,-0.68395 0.51286,-1.2583 1.12111,-1.63325c0.60828,-0.37596 1.40186,-0.55271 2.23788,-0.44133z" data-paper-data="{&quot;origPos&quot;:null}" fill="#000000" stroke="none" stroke-width="1.05702" stroke-linecap="butt"/><path d="M220.64438,115.37151c0.48876,0.52111 0.74542,1.18584 0.6543,1.86979c-0.09112,0.68396 -0.51286,1.25829 -1.121,1.63327c-0.60838,0.37596 -1.40197,0.5527 -2.23788,0.44133c-0.83602,-0.11138 -1.55566,-0.48973 -2.04429,-1.01183c-0.48886,-0.52112 -0.74553,-1.18585 -0.65441,-1.8698c0.09112,-0.68396 0.51286,-1.2583 1.12111,-1.63325c0.60828,-0.37597 1.40187,-0.55272 2.23788,-0.44134c0.83592,0.11137 1.55556,0.48972 2.04429,1.01183z" data-paper-data="{&quot;origPos&quot;:null}" fill="#000000" stroke="none" stroke-width="1.05702" stroke-linecap="butt"/></g></g></g></svg>