<svg version="1.1" xmlns="http://www.w3.org/2000/svg" xmlns:xlink="http://www.w3.org/1999/xlink" width="107.07401" height="191.4287" viewBox="0,0,107.07401,191.4287"><defs><linearGradient x1="237.05693" y1="121.91066" x2="239.09199" y2="133.71784" gradientUnits="userSpaceOnUse" id="color-1"><stop offset="0" stop-color="#38291e"/><stop offset="1" stop-color="#381e32"/></linearGradient><linearGradient x1="253.53746" y1="116.02298" x2="255.32849" y2="126.4143" gradientUnits="userSpaceOnUse" id="color-2"><stop offset="0" stop-color="#38291e"/><stop offset="1" stop-color="#381e32"/></linearGradient></defs><g transform="translate(-186.12419,-76.89623)"><g data-paper-data="{&quot;isPaintingLayer&quot;:true}" fill-rule="nonzero" stroke-linejoin="miter" stroke-miterlimit="10" stroke-dasharray="" stroke-dashoffset="0" style="mix-blend-mode: normal"><g data-paper-data="{&quot;origRot&quot;:0}" stroke="none" stroke-width="0" stroke-linecap="butt"><g data-paper-data="{&quot;origPos&quot;:null,&quot;index&quot;:null,&quot;origRot&quot;:0}"><path d="M265.71278,145.74077c-5.31527,-0.06976 -10.15254,-9.48738 -10.0248,-19.22057c0.12777,-9.73318 1.70275,-18.96617 1.70275,-18.96617l15.95313,0.02635c0,0 1.66289,15.24486 1.56013,23.07336c-0.12777,9.73318 -3.87594,15.15679 -9.19121,15.08704z" data-paper-data="{&quot;origRot&quot;:0,&quot;origPos&quot;:null}" fill="#41c3ff"/><g data-paper-data="{&quot;origPos&quot;:null}" fill="#ffffff"><path d="M266.23147,102.56312c-9.38383,0.30711 -21.01105,0.16642 -20.75624,-9.72703c0.18485,-7.17731 9.76677,-17.52513 18.98344,-15.73531c10.05748,1.95311 19.33724,2.08422 18.00634,13.11827c-1.24271,10.30286 -6.84972,12.03693 -16.23354,12.34407z" data-paper-data="{&quot;origRot&quot;:0,&quot;origPos&quot;:null}"/><path d="M265.20991,110.42051c-7.24516,0.22759 -15.46708,1.90035 -15.19835,-3.67173c0.30063,-6.23345 2.19783,-5.92138 14.04669,-6.00075c13.49806,-0.09041 15.54462,-2.56163 15.54752,4.2866c0.0017,3.9989 -7.1507,5.15828 -14.39586,5.38588z" data-paper-data="{&quot;origRot&quot;:0,&quot;origPos&quot;:null}"/></g></g></g><g data-paper-data="{&quot;origRot&quot;:0}" stroke="none" stroke-width="0" stroke-linecap="butt"><path d="M283.90182,228.07535c0.1964,4.56506 5.33561,6.4131 5.16301,7.43615c-0.69826,4.13928 -2.70247,7.03819 -9.5993,8.90913c-8.54326,2.31759 -15.22588,1.67289 -22.80638,-2.8982c-5.16298,-3.1133 -0.56135,-5.69688 1.48188,-11.36912c0.73318,-2.03535 1.28988,-4.70217 1.85342,-10.1093c0.70458,-6.76033 5.81114,-25.02981 5.81114,-25.02981c0,0 13.08299,2.805 17.13054,10.19973c4.04756,7.39473 0.51164,12.30872 0.96564,22.86142z" data-paper-data="{&quot;origPos&quot;:null}" fill="#5063f7"/><path d="M290.80618,250.35506c-0.04579,3.89823 -4.03414,5.6883 -7.80481,6.67833c-2.47111,0.6488 -14.41325,0.15888 -20.30055,-3.38289c-1.82774,-1.09957 -3.29364,-3.56422 -3.29364,-3.56422c0,0 -5.04531,0.70032 -5.01374,-0.75615c0.02505,-1.15617 0.01908,-3.12552 1.14657,-3.71246c4.85323,-2.52645 16.27708,-2.38611 21.74815,-2.32184c7.51056,0.0882 13.56278,3.24875 13.51803,7.05924z" data-paper-data="{&quot;origPos&quot;:null}" fill="#f8dca0"/><path d="M292.74804,245.48043c-1.42002,4.54686 -6.02512,7.75479 -14.51591,7.65506c-8.4908,-0.09973 -17.51594,-5.13107 -17.51594,-5.13107c0,0 -6.15081,0.25142 -6.25665,-1.32715c-0.21906,-3.26722 -0.21529,-8.59394 1.02225,-8.75358c4.56859,-0.58931 3.70011,0.01809 9.67931,-1.18705c3.87123,-0.78027 10.36586,-4.38435 14.31467,-4.33798c8.4908,0.09973 15.61037,5.59526 13.27229,13.08178z" data-paper-data="{&quot;origPos&quot;:null}" fill="#ab7644"/></g><g data-paper-data="{&quot;origPos&quot;:null}"><path d="M270.3065,191.21655c2.77379,20.99471 -3.88969,31.04858 -24.7187,33.19512c-21.82206,2.24888 -24.49263,-10.09372 -25.63712,-20.1911c-1.24158,-10.95398 -3.18365,-19.81739 4.47485,-27.74699c5.70581,-5.90779 12.81778,-4.25418 20.97881,-5.17919c15.0912,-1.71052 22.18322,-0.65734 24.90215,19.92217z" data-paper-data="{&quot;origPos&quot;:null}" fill="#5063f7" stroke="none" stroke-width="0" stroke-linecap="butt"/><path d="M270.48733,190.59221c0,0 -16.90889,3.92935 -28.94265,5.69588c-11.03785,1.62033 -22.64041,-0.85559 -22.64041,-0.85559c0,0 -2.53393,-13.59677 4.7823,-19.82475c4.7868,-4.07478 10.48515,-5.87742 17.95184,-6.90573c7.46669,-1.02831 15.86973,0.35406 19.98487,2.98033c9.7204,6.20358 8.86404,18.90986 8.86404,18.90986z" data-paper-data="{&quot;origPos&quot;:null}" fill="#41c3ff" stroke="none" stroke-width="0" stroke-linecap="butt"/><path d="M254.3062,171.18241c0,0 2.89705,6.55571 3.78929,10.59383c1.146,5.18665 1.13656,15.17702 1.13656,15.17702" data-paper-data="{&quot;origPos&quot;:null,&quot;origRot&quot;:0}" fill="none" stroke="#5063f7" stroke-width="10" stroke-linecap="round"/><path d="M232.99251,174.11017c0,0 2.027,6.8747 2.39077,10.99418c0.46723,5.29115 -0.83111,15.1968 -0.83111,15.1968" data-paper-data="{&quot;origPos&quot;:null}" fill="none" stroke="#5063f7" stroke-width="10" stroke-linecap="round"/><path d="M232.75676,204.14179l0.0064,-4.19273l-3.02194,-2.31198l3.90809,-0.29779l1.18294,-3.73874l1.90301,3.45952l4.51014,-0.34411l-3.29935,2.97225l0.91366,3.96734l-3.36578,-2.25042z" data-paper-data="{&quot;origPos&quot;:null,&quot;origRot&quot;:0}" fill="#ffe008" stroke="none" stroke-width="NaN" stroke-linecap="butt"/><path d="M257.9609,201.04157l-0.57028,-4.15376l-3.31118,-1.8744l3.82999,-0.83244l0.65752,-3.86591l2.36072,3.16493l4.41995,-0.96112l-2.85922,3.39776l1.45061,3.80398l-3.64329,-1.76614z" data-paper-data="{&quot;origPos&quot;:null,&quot;origRot&quot;:0}" fill="#ffe008" stroke="none" stroke-width="NaN" stroke-linecap="butt"/></g><g stroke="none" stroke-width="0" stroke-linecap="butt"><path d="M251.15484,236.75729c1.74667,4.22226 7.208,4.20015 7.39591,5.22049c0.76031,4.12833 -0.13092,7.53805 -5.97117,11.65608c-7.23446,5.1011 -13.73425,6.78205 -22.42129,5.0809c-5.91662,-1.15863 -2.4769,-5.16088 -2.498,-11.18986c-0.00756,-2.16337 -0.39702,-4.85967 -1.71777,-10.13322c-1.65129,-6.5933 -3.10465,-25.5073 -3.10465,-25.5073c0,0 6.89844,-2.48595 11.93369,-3.27715c3.97375,-0.6244 11.48187,0.59345 11.48187,0.59345c0,0 0.86378,17.79635 4.9014,27.55662z" data-paper-data="{&quot;origPos&quot;:null}" fill="#5063f7"/><path d="M265.2663,255.32941c1.29093,3.67857 -1.84409,6.72535 -5.04837,8.9459c-2.09992,1.45522 -13.48877,5.08138 -20.23261,3.768c-2.09366,-0.40775 -4.31444,-2.22198 -4.31444,-2.22198c0,0 -4.50108,2.38449 -4.96981,1.00515c-0.37208,-1.09494 -1.0516,-2.94337 -0.19302,-3.88069c3.69572,-4.03466 14.47793,-7.81193 19.6407,-9.6237c7.08733,-2.48716 13.85569,-1.58845 15.11756,2.00734z" data-paper-data="{&quot;origPos&quot;:null}" fill="#f8dca0"/><path d="M265.42287,250.08457c0.22161,4.75829 -3.00776,9.34836 -11.0201,12.16013c-8.01233,2.81177 -18.21431,1.1725 -18.21431,1.1725c0,0 -5.69345,2.34098 -6.33307,0.89392c-1.32385,-2.99502 -3.14306,-8.00146 -2.03487,-8.57493c4.09114,-2.11706 3.48293,-1.24914 8.68877,-4.42755c3.37052,-2.05786 8.23978,-7.66678 11.96608,-8.97445c8.01233,-2.81177 16.58263,-0.08424 16.9475,7.75038z" data-paper-data="{&quot;origPos&quot;:null}" fill="#ab7644"/></g><g stroke="none" stroke-linecap="butt"><g data-paper-data="{&quot;origPos&quot;:null}" stroke-width="0"><path d="M224.29376,189.70231c-1.85278,7.60679 -7.26487,21.95532 -7.26487,21.95532l-15.45568,-3.95288c0,0 0.77729,-9.33405 3.08084,-18.79157c2.30355,-9.45753 14.86111,-15.96441 20.02586,-14.70644c5.16475,1.25797 1.91741,6.03806 -0.38614,15.4956z" data-paper-data="{&quot;origRot&quot;:0,&quot;origPos&quot;:null}" fill="#41c3ff"/><g data-paper-data="{&quot;origPos&quot;:null}" fill="#ffffff"><path d="M221.53227,230.74505c-1.46283,11.01733 -10.48209,8.8301 -20.70888,8.21337c-9.37182,-0.56516 -16.07045,-12.97559 -14.45959,-19.97225c2.22047,-9.6444 13.51543,-6.88106 22.52618,-4.2435c9.01075,2.63756 14.00817,5.71514 12.64228,16.00239z" data-paper-data="{&quot;origRot&quot;:0,&quot;origPos&quot;:null}"/><path d="M222.45809,215.68454c-1.71063,6.63116 -3.07628,3.72763 -16.12531,0.27394c-11.45471,-3.03173 -13.36978,-3.20265 -12.10642,-9.31413c1.12932,-5.46305 8.67433,-1.79275 15.63382,0.23444c6.9595,2.02719 13.5968,4.93363 12.5979,8.80575z" data-paper-data="{&quot;origRot&quot;:0,&quot;origPos&quot;:null}"/></g></g><path d="M194.37936,231.94648l3.56362,-7.89009l-3.7323,-6.9136l7.61173,2.74969l5.39467,-6.03855l0.65315,8.1268l8.78473,3.17243l-8.73088,2.80235l-1.6401,8.24501l-4.43195,-7.08895z" data-paper-data="{&quot;origPos&quot;:null,&quot;origRot&quot;:0}" fill="#ffe008" stroke-width="NaN"/></g><g><path d="M280.34515,119.78598c0.08463,3.83464 -10.25647,10.49459 -19.03702,12.008c-7.07537,1.2195 -6.46889,-5.73955 -7.08801,-9.33167c-0.61913,-3.59212 13.38176,-5.19849 20.45714,-6.41799c7.07538,-1.2195 5.61312,1.25954 5.6679,3.74166z" data-paper-data="{&quot;origPos&quot;:null}" fill="#3595c5" stroke="none" stroke-width="0" stroke-linecap="butt"/><path d="M213.30917,173.332c-2.08802,-1.02828 -2.92591,-3.18633 -1.92526,-6.13776c1.16101,-3.42441 -0.33037,-8.28241 1.75764,-7.25413c0,0 7.30137,-0.22171 8.34297,2.53515c0,0 4.42575,7.71692 3.42082,9.24647c0,0 -1.53138,1.60525 -6.14653,2.17797c-2.50056,0.31031 -3.36163,0.46061 -5.44965,-0.56769z" data-paper-data="{&quot;origRot&quot;:0,&quot;origPos&quot;:null}" fill="#e7be7a" stroke="none" stroke-width="0" stroke-linecap="butt"/><path d="M213.31046,133.65698c4.42233,0.25972 36.33356,-8.46259 42.09786,-9.12935c8.52818,-0.98646 7.50704,7.04082 9.55792,15.37731c2.35806,9.58517 9.88704,12.83757 8.05912,22.5378c-0.70476,3.73998 -4.44009,7.0385 -6.98614,9.86723c-1.44437,1.60472 -3.05367,5.90509 -13.64745,7.95618c-19.28189,-0.50187 -25.31323,-4.48997 -29.12005,-7.86554c-3.88353,-3.17844 -2.74396,-4.6335 -6.68954,-8.83132c-1.20947,-1.28678 -2.48036,-1.86537 -2.67205,-1.83233c-10.21972,1.76146 -17.29295,-5.71222 -18.6688,-13.69468c-1.37584,-7.98248 1.15604,-15.08218 6.87076,-16.06716c5.71472,-0.98498 9.66071,1.59156 11.19839,1.68186z" data-paper-data="{&quot;origPos&quot;:null}" fill="#ffdebd" stroke="none" stroke-width="0" stroke-linecap="butt"/><path d="M261.67798,130.6036c1.17762,4.75796 -0.25804,9.20667 -3.20664,9.93646c-2.9486,0.72979 -6.29355,-2.53568 -7.47117,-7.29362c-1.17762,-4.75796 0.25803,-9.20666 3.20663,-9.93646c2.9486,-0.7298 6.29356,2.53568 7.47118,7.29363z" data-paper-data="{&quot;origPos&quot;:null,&quot;origRot&quot;:0}" fill="#ffffff" stroke="none" stroke-width="0" stroke-linecap="butt"/><path d="M224.89804,139.59859c0.44306,2.57059 5.50459,9.22297 3.38647,10.74539c-2.46407,1.77107 -3.99069,-2.28924 -7.47544,-0.9949c-2.58863,0.96149 -5.20457,-3.95517 -5.95504,-8.30925c-0.75046,-4.35408 -1.49388,-8.56899 1.20829,-9.13802c11.37695,-2.3958 8.08525,3.3427 8.83572,7.69677z" data-paper-data="{&quot;origPos&quot;:null}" fill="#e7be7a" stroke="none" stroke-width="0" stroke-linecap="butt"/><path d="M249.69408,137.74765c1.38952,4.70044 0.15454,9.20898 -2.75841,10.07009c-2.91295,0.86112 -6.40081,-2.25128 -7.79033,-6.95172c-1.38952,-4.70044 -0.15454,-9.20898 2.7584,-10.07009c2.91295,-0.86112 6.40081,2.25128 7.79034,6.95172z" data-paper-data="{&quot;origPos&quot;:null,&quot;origRot&quot;:0}" fill="#ffffff" stroke="none" stroke-width="0" stroke-linecap="butt"/><path d="M242.62934,136.04936c0.93817,-0.16169 1.90569,0.37679 2.71218,1.37633c0.80551,0.99971 1.45016,2.46145 1.74079,4.14758c0.29063,1.68614 0.17251,3.27935 -0.25184,4.49103c-0.42534,1.21186 -1.15676,2.04317 -2.09493,2.20487c-0.93817,0.16169 -1.90569,-0.37678 -2.71218,-1.37632c-0.80551,-0.99971 -1.45016,-2.46146 -1.74079,-4.14759c-0.29063,-1.68614 -0.17251,-3.27935 0.25184,-4.49103c0.42534,-1.21186 1.15676,-2.04318 2.09493,-2.20487z" fill="#000000" stroke="#ffe008" stroke-width="2" stroke-linecap="butt"/><path d="M256.12778,130.11092c0.93817,-0.16169 1.90569,0.37678 2.71219,1.37632c0.8055,0.99971 1.25699,2.73016 1.74078,4.14758c0.17335,0.51707 0.45434,1.2642 0.15792,1.79932c-0.37798,0.65066 -1.1175,1.05819 -1.7841,1.42373c-1.19359,0.46956 -2.53193,1.48868 -3.72612,1.04813c-1.05048,-0.4075 -1.24022,-1.95576 -1.44745,-3.09918c-0.26776,-1.47698 -0.17251,-3.27934 0.25184,-4.49103c0.42534,-1.21186 1.15676,-2.04317 2.09493,-2.20487z" fill="#000000" stroke="#ffe008" stroke-width="2" stroke-linecap="round"/><path d="M261.85371,95.5493c4.90006,14.3204 2.19775,15.64857 -4.90245,21.72725c-10.34558,8.85715 -25.66688,10.06583 -37.06276,17.52331c-2.99225,1.95813 -11.82079,-0.02472 -15.34484,0.58268c-7.20771,1.24232 -12.16251,-3.20801 -13.51791,-9.29237c-2.98967,-13.42071 3.6655,-14.62183 10.87321,-15.86415c0,0 8.15891,-0.05244 11.62421,3.68366c0,0 7.94035,-19.85622 19.1904,-24.07925c14.48197,-5.43622 25.62125,-4.56509 29.14015,5.71885z" data-paper-data="{&quot;origPos&quot;:null}" fill="#41c3ff" stroke="none" stroke-width="0" stroke-linecap="butt"/><path d="M260.44987,104.44232c0.92869,5.38817 0.18549,9.69046 -10.34117,11.82837c-11.11276,2.25693 -12.77559,-2.29575 -13.70428,-7.68392c-0.92869,-5.38817 3.7012,-10.6839 10.34117,-11.82836c6.63996,-1.14446 12.77559,2.29575 13.70428,7.68392z" data-paper-data="{&quot;origPos&quot;:null}" fill="#ffffff" stroke="none" stroke-width="0" stroke-linecap="butt"/><path d="M280.38264,117.64855c-0.05128,0.87998 -37.66711,13.08809 -48.26123,16.13178c-5.14888,1.47927 -15.83914,2.89083 -15.78786,2.01085c0.18956,-3.25296 1.36369,-8.6016 6.10365,-11.09799c5.72798,-3.01676 25.64495,-11.909 41.26332,-14.35575c6.38471,-1.00021 16.87166,4.05814 16.68211,7.31112z" data-paper-data="{&quot;origPos&quot;:null}" fill="#3595c5" stroke="none" stroke-width="0" stroke-linecap="butt"/><path d="M245.05628,113.42783l-0.40175,-3.44064l4.89664,-1.59995l-1.73063,-1.49739l-3.65013,0.1681l-2.47638,-2.63154l1.44845,-3.10973l7.57421,-2.56383l2.26302,2.92928l-7.12162,1.80769l4.33181,0.80599l3.45096,1.98142l0.72438,2.49998l-1.93659,2.00593z" data-paper-data="{&quot;origPos&quot;:null,&quot;origRot&quot;:0}" fill="#ffe008" stroke="none" stroke-width="0" stroke-linecap="butt"/><path d="M268.72183,168.14945c-3.13625,0.74568 -7.85508,0.61852 -15.45948,0.67203c-9.85989,0.06939 -12.38246,-6.4364 -12.38246,-6.4364c0,0 -3.81942,-0.69365 -6.01293,-1.47511c-1.71696,-0.61169 -0.78263,-6.46031 0.03121,-6.76634c4.7399,-1.78239 6.9449,2.28604 11.06246,3.67038c0,0 13.31084,1.97534 19.13769,0.62592c0,0 8.73251,-6.08267 11.71032,-6.39523c1.47685,-0.15502 2.01381,2.90327 1.81953,4.52814c0,0 -0.56381,4.35935 -2.40814,6.17075c-1.84433,1.8114 -4.36196,4.6602 -7.49819,5.40587z" data-paper-data="{&quot;origPos&quot;:null}" fill="#e7be7a" stroke="none" stroke-width="0" stroke-linecap="butt"/><path d="M275.28293,146.1642c0.63137,6.60678 3.00066,10.77185 -11.2103,12.96755c-6.5497,1.01197 -13.53416,-1.98701 -14.53087,-7.76977c-0.99671,-5.78275 4.07288,-14.00557 10.49684,-15.63512c9.36013,-2.37436 14.23424,-0.13251 15.24433,10.43735z" data-paper-data="{&quot;origPos&quot;:null}" fill="#ffdebd" stroke="none" stroke-width="0" stroke-linecap="butt"/><g data-paper-data="{&quot;origPos&quot;:null}" fill="none" stroke="#f6b09a" stroke-width="3.5" stroke-linecap="round"><path d="M200.79026,142.71004c0,0 2.62643,-2.20816 6.86058,0.03469c6.07248,3.2166 4.14396,10.82538 4.14396,10.82538" data-paper-data="{&quot;origPos&quot;:null}"/><path d="M210.51838,147.84664l-5.91282,1.01913" data-paper-data="{&quot;origPos&quot;:null}"/><path d="M209.70734,154.0749l1.26703,-0.21838" data-paper-data="{&quot;origPos&quot;:null}"/></g><path d="M238.39528,128.89105c-1.28609,0.63799 -1.18888,0.81847 -1.63113,2.18429c-0.45625,1.40903 -1.60591,3.32053 -1.60591,3.32053c0,0 -2.05321,-3.32666 -2.51052,-5.97992c-0.3105,-1.80154 0.12722,-5.11026 2.79544,-6.21862c9.33812,-1.93512 8.06614,7.38822 8.06614,7.38822c0,0 -3.77042,-1.40316 -5.11401,-0.69448z" data-paper-data="{&quot;origPos&quot;:null}" fill="url(#color-1)" stroke="none" stroke-width="0" stroke-linecap="butt"/><path d="M254.92864,123.19396c-1.47923,0.34543 -3.40708,3.8765 -3.40708,3.8765c0,0 -7.07168,-6.20759 1.24919,-10.86683c2.74162,-0.91183 5.24092,1.30013 6.18723,2.86423c1.39372,2.30358 2.02353,6.16179 2.02353,6.16179c0,0 -2.12117,-0.69009 -3.3893,-1.45519c-1.22923,-0.74163 -1.27411,-0.94165 -2.66358,-0.58053z" data-paper-data="{&quot;origPos&quot;:null,&quot;index&quot;:null,&quot;origRot&quot;:0}" fill="url(#color-2)" stroke="none" stroke-width="0" stroke-linecap="butt"/></g></g></g></svg>