<svg version="1.1" xmlns="http://www.w3.org/2000/svg" xmlns:xlink="http://www.w3.org/1999/xlink" width="158.65622" height="193.81398" viewBox="0,0,158.65622,193.81398"><g transform="translate(-145.20889,-83.72709)"><g data-paper-data="{&quot;isPaintingLayer&quot;:true}" fill-rule="nonzero" stroke-linejoin="miter" stroke-miterlimit="10" stroke-dasharray="" stroke-dashoffset="0" style="mix-blend-mode: normal"><g data-paper-data="{&quot;origRot&quot;:0,&quot;index&quot;:null}" stroke-width="0" stroke-linecap="butt"><g data-paper-data="{&quot;origPos&quot;:null}" stroke="none"><path d="M191.73909,206.17475c-9.34255,-4.77792 -16.34144,-5.51159 -13.76387,-10.55166c5.39005,-10.53955 6.47843,-16.90237 9.2249,-17.13369c3.53056,-0.29735 26.30109,12.49141 29.20803,14.51694c3.47526,2.42154 -6.10773,12.74242 -8.68529,17.78248c-2.57755,5.04008 -6.64121,0.16382 -15.98378,-4.61407z" data-paper-data="{&quot;origRot&quot;:0,&quot;origPos&quot;:null}" fill="#ffdebd"/><path d="M202.01674,189.33373c-9.34256,-4.77789 -18.71757,-4.24508 -17.10702,-8.13846c5.39005,-10.53956 17.72864,-13.95564 24.61974,-11.34583c3.53058,-0.29735 6.61897,6.35833 8.49902,8.826c3.47526,2.42152 2.81204,9.14552 0.23448,14.18558c-2.57755,5.04006 -6.90362,1.25062 -16.24619,-3.52729z" data-paper-data="{&quot;origRot&quot;:0,&quot;origPos&quot;:null}" fill="#fff70c"/></g><g data-paper-data="{&quot;origPos&quot;:null}"><path d="M198.59363,183.50237c8.30983,2.57108 12.56501,12.6749 9.50422,22.56756c-3.06077,9.89266 -7.08409,14.32191 -15.39391,11.75086c-4.64869,-1.43831 -15.2959,-5.28925 -16.60893,-9.97486c-2.40938,-8.59788 1.63304,-12.33766 4.27226,-20.86779c3.06079,-9.89266 9.91654,-6.04682 18.22636,-3.47577z" data-paper-data="{&quot;origPos&quot;:null,&quot;origRot&quot;:0}" fill="#ffdebd" stroke="#ffdebd"/><g data-paper-data="{&quot;origPos&quot;:null,&quot;origRot&quot;:0}" fill="#ffffff" stroke="none"><path d="M177.74887,193.59537c-2.83075,12.33531 -4.61861,22.26867 -17.42462,18.53007c-9.29028,-2.71221 -19.02068,-9.22132 -13.51457,-20.61677c6.00841,-12.43505 10.07903,-24.54375 24.00103,-19.01001c12.99943,5.16703 9.76893,8.76139 6.93816,21.09671z" data-paper-data="{&quot;origRot&quot;:0,&quot;origPos&quot;:null}"/><path d="M185.57493,177.01608c5.21219,1.37469 4.26049,11.09535 2.06243,20.61605c-2.19805,9.52071 -2.84894,20.81197 -10.01829,18.54318c-8.02032,-2.5381 -6.96038,-4.9032 -2.98401,-20.37269c4.52981,-17.62262 2.01384,-21.14071 10.93989,-18.78652z" data-paper-data="{&quot;origRot&quot;:0,&quot;origPos&quot;:null}"/></g></g></g><g data-paper-data="{&quot;origRot&quot;:0,&quot;index&quot;:null}" stroke-width="0" stroke-linecap="round"><path d="M182.49825,245.82481c9.85811,5.03542 20.29077,9.98393 23.29185,13.16984c3.00105,3.1859 0.82472,9.89488 -0.04185,11.80651c-0.35225,0.7771 -2.96495,2.10609 -3.38963,2.38592c-1.40894,0.92837 -2.10146,3.03789 -12.48607,-0.76326c-10.38461,-3.80115 -22.2602,-11.05028 -25.23227,-12.88836c-2.97205,-1.8381 -4.59091,-3.07857 -6.0566,-6.46235c-1.46568,-3.38378 -1.07437,-7.00033 -0.81368,-9.39882c0.26067,-2.39848 0.64789,-4.66022 2.43245,-5.49494c1.78454,-0.8347 1.87949,0.21661 4.45276,2.27444c2.57326,2.05784 4.92473,5.45908 5.91139,6.01385c0.98665,0.55477 3.45121,-0.97498 3.69744,-0.99432c0.73873,-0.05805 2.6174,-0.49227 4.08808,-0.42954c1.25184,0.05341 3.69562,0.55089 4.14615,0.78103z" data-paper-data="{&quot;origPos&quot;:null}" fill="#007e45" stroke="#000000"/><path d="M207.60458,256.02871c-2.95039,1.95396 -3.60554,1.82609 -6.12706,1.73625c-2.52152,-0.08984 -6.80285,-0.24262 -10.41539,-2.32565c-3.61253,-2.08303 -4.4892,-4.19852 -6.6439,-7.51093c-2.1547,-3.3124 -1.68175,-3.13446 -1.74268,-5.38173c-0.06092,-2.24726 0.57625,-5.26774 1.40308,-7.14362c1.14909,-2.60708 2.00463,-15.28046 8.7752,-14.98135c6.77056,0.29915 30.35119,13.21453 28.92689,16.64704c-1.28775,3.10344 -3.38138,6.46622 -7.85903,12.4549c-4.47767,5.98867 -3.36672,4.55113 -6.31712,6.50509z" data-paper-data="{&quot;origPos&quot;:null}" fill="#a000b2" stroke="#b100c6"/></g><g data-paper-data="{&quot;origPos&quot;:null,&quot;origRot&quot;:0,&quot;index&quot;:null}"><path d="M246.73105,167.91674c28.36853,-2.46253 36.08441,22.94622 38.38299,35.32186c3.68948,34.01286 -20.82135,44.40687 -49.18988,46.86939c-28.36853,2.46251 -51.90847,-3.23883 -53.32813,-19.59345c-1.5401,-17.74206 -2.70571,-42.41032 12.19605,-55.0814c11.10227,-9.44033 36.59779,-6.18472 51.93895,-7.51641z" data-paper-data="{&quot;origPos&quot;:null,&quot;index&quot;:null}" fill="#a000b2" stroke="none" stroke-width="0" stroke-linecap="butt"/><path d="M240.77599,162.91297c28.36853,-2.46252 35.54478,10.94795 37.84336,23.32359c4.38481,18.8961 -26.91921,21.63503 -29.84592,21.1c-5.58442,-1.02088 -18.36987,-5.3228 -22.5982,-6.70266c-9.4305,-3.07754 -45.98853,2.8568 -45.98853,2.8568c0,0 5.83416,-24.56933 13.34969,-30.95984c11.10227,-9.44032 31.89845,-8.2862 47.23961,-9.61789z" data-paper-data="{&quot;origPos&quot;:null,&quot;index&quot;:null}" fill="#fff70c" stroke="none" stroke-width="0" stroke-linecap="butt"/><path d="M240.27094,204.07781l-1.57564,-35.49672" data-paper-data="{&quot;origPos&quot;:null}" fill="none" stroke="#a000b2" stroke-width="17" stroke-linecap="round"/><path d="M239.6656,197.10403c3.8515,-0.33433 7.24479,2.51692 7.57913,6.36842c0.33433,3.8515 -2.51692,7.24478 -6.36842,7.57912c-3.85151,0.33433 -7.24479,-2.51691 -7.57913,-6.36841c-0.33432,-3.8515 2.51692,-7.24479 6.36842,-7.57913z" data-paper-data="{&quot;origPos&quot;:null}" fill="#f3f3f3" stroke="none" stroke-width="0" stroke-linecap="butt"/><path d="M186.71003,205.96402l7.62075,-24.47294l6.83395,-11.90787" data-paper-data="{&quot;origPos&quot;:null,&quot;origRot&quot;:0}" fill="none" stroke="#a000b2" stroke-width="14" stroke-linecap="round"/><path d="M178.07085,204.45826c-0.33432,-3.8515 2.51691,-7.24479 6.36842,-7.57913c3.8515,-0.33433 7.24479,2.51692 7.57912,6.36842c0.33432,3.85151 -2.51691,7.24479 -6.36842,7.57913c-3.85151,0.33432 -7.2448,-2.51692 -7.57913,-6.36842z" data-paper-data="{&quot;origPos&quot;:null}" fill="#f3f3f3" stroke="none" stroke-width="0" stroke-linecap="butt"/></g><g data-paper-data="{&quot;origRot&quot;:0,&quot;index&quot;:null}" stroke-width="0" stroke-linecap="round"><path d="M254.9858,254.43111c10.47238,-3.58707 21.28165,-7.6476 25.6581,-7.59061c4.37645,0.05699 7.68688,6.28497 8.45883,8.23673c0.31381,0.79341 -0.54684,3.59551 -0.64085,4.09532c-0.31191,1.65826 0.7233,3.62242 -9.22771,8.44594c-9.951,4.82352 -23.4172,8.32224 -26.8045,9.18128c-3.38729,0.85903 -5.40435,1.1606 -8.85582,-0.13775c-3.45147,-1.29834 -5.77945,-4.0935 -7.32256,-5.9481c-1.54312,-1.8546 -2.89998,-3.70508 -2.25962,-5.56824c0.64037,-1.86315 1.46212,-1.20067 4.7302,-1.62022c3.26807,-0.41956 7.34779,0.25411 8.43245,-0.06959c1.08464,-0.32369 1.69803,-3.15882 1.85526,-3.34929c0.47173,-0.57146 1.46543,-2.22389 2.5328,-3.23757c0.90856,-0.86287 2.96482,-2.27392 3.44346,-2.43787z" data-paper-data="{&quot;origPos&quot;:null}" fill="#007e45" stroke="#000000"/><path d="M279.77282,243.47449c-0.64608,3.47928 -1.19338,3.86138 -3.01067,5.61171c-1.81729,1.75031 -4.90306,4.72204 -8.91164,5.87124c-4.00859,1.14922 -6.13883,0.30901 -10.0179,-0.44439c-3.87906,-0.75339 -3.42237,-0.96972 -5.08033,-2.48798c-1.65794,-1.51825 -3.38651,-4.07588 -4.16039,-5.9742c-1.07552,-2.63824 -9.59196,-12.06254 -4.67073,-16.72209c4.92125,-4.65956 30.59711,-12.63463 32.07479,-9.22476c1.33602,3.08298 2.29834,6.92561 3.49129,14.30735c1.19295,7.38175 0.9317,5.58384 0.28561,9.06314z" data-paper-data="{&quot;origPos&quot;:null}" fill="#a000b2" stroke="#b100c6"/></g><g data-paper-data="{&quot;origRot&quot;:0,&quot;index&quot;:null}" stroke-linecap="butt"><g data-paper-data="{&quot;origPos&quot;:null}" stroke="none" stroke-width="0"><path d="M277.19704,209.63628c-9.14036,-7.52254 -15.12234,-9.94863 -14.75999,-12.68089c0.4658,-3.5123 17.8352,-23.0149 20.43642,-25.4205c3.10971,-2.87591 11.13835,8.69543 15.50932,12.29275c4.37096,3.59731 -1.26257,6.52214 -7.93077,14.62442c-6.66819,8.10227 -8.88401,14.78154 -13.25499,11.18422z" data-paper-data="{&quot;origRot&quot;:0,&quot;origPos&quot;:null}" fill="#ffdebd"/><path d="M264.58949,199.77218c-9.14035,-7.52254 -9.83419,-20.30646 -5.80886,-26.4786c0.4658,-3.51229 7.62855,-5.10332 10.44166,-6.41116c3.10973,-2.87591 9.53558,-0.78778 13.90655,2.80954c4.37096,3.59732 -0.2572,7.01129 -6.9254,15.11357c-6.6682,8.10227 -8.15592,17.37381 -11.61396,14.96668z" data-paper-data="{&quot;origRot&quot;:0,&quot;origPos&quot;:null}" fill="#fff70c"/></g><g data-paper-data="{&quot;origPos&quot;:null}"><path d="M269.2651,205.44799c-9.0074,-5.10878 -3.78232,-10.9816 0.50906,-18.54783c4.29138,-7.56623 15.07217,-9.55838 24.07958,-4.44961c9.00741,5.10878 12.47207,9.98746 8.18069,17.55369c-2.40066,4.23271 -8.4429,13.80789 -13.30101,14.08678c-8.91444,0.51175 -11.70149,-4.23792 -19.46831,-8.64306z" data-paper-data="{&quot;origPos&quot;:null,&quot;origRot&quot;:0}" fill="#ffdebd" stroke="#ffdebd" stroke-width="0"/><g data-paper-data="{&quot;origPos&quot;:null,&quot;origRot&quot;:0}" fill="#ffffff" stroke="none" stroke-width="0"><path d="M253.07467,211.68113c7.83161,-11.59093 10.65056,-7.66546 22.09321,-2.25815c11.44267,5.40733 20.76248,9.28144 14.36759,20.98939c-4.63925,8.49368 -13.08157,16.60396 -23.0331,8.78472c-10.85941,-8.53258 -21.81512,-15.10245 -13.4277,-27.51595z" data-paper-data="{&quot;origRot&quot;:0,&quot;origPos&quot;:null}"/><path d="M260.64982,198.22726c2.45923,-4.79676 11.7504,-1.78494 20.5793,2.40145c8.8289,4.18641 19.71868,7.24083 15.96684,13.75778c-4.19718,7.29048 -6.28034,5.74851 -20.53902,-1.44914c-16.2433,-8.19946 -20.21867,-6.49549 -16.00713,-14.71009z" data-paper-data="{&quot;origRot&quot;:0,&quot;origPos&quot;:null}"/></g><path d="M287.65516,223.29731c-0.79244,1.83632 -1.80923,1.70742 -1.80923,1.70742c-1.38855,1.0651 -2.77711,2.13019 -4.16566,3.19528c-3.41889,2.62249 -6.61185,6.684 -11.12911,3.62848c-1.73231,-1.17174 0.45085,-5.49267 0.52742,-6.70609c0.0285,-0.45183 0.12883,-0.94016 -0.04695,-1.35735c-0.26449,0.20287 -0.52897,0.40574 -0.79347,0.60862c-1.74484,1.04325 -2.46313,2.92262 -4.50115,3.81669c-2.77419,1.217 -4.64845,-0.72521 -5.35887,-3.05213c-1.2335,-4.0403 -0.46059,-7.46578 0.49514,-11.28161l-0.13599,-0.04635l0.57273,-1.68051c0.05993,-0.18462 0.147,-0.36149 0.26032,-0.5241c0.32417,-0.50662 0.95467,-1.07502 2.09469,-0.80466c0.01968,0.00458 0.03931,0.00944 0.05886,0.01461c1.13229,0.29308 1.4234,1.09129 1.47345,1.68981c0.03021,0.24806 0.01361,0.49941 -0.04799,0.74035l-0.76197,3.09053l-0.14392,-0.03548c-0.43767,1.45246 -0.81615,2.94104 -0.76632,4.32865c0.03632,1.01118 0.48802,2.62083 0.7989,3.65274c0.23672,0.00992 0.52528,0.05545 0.70285,-0.01937c0.63095,-0.26584 2.15326,-2.50367 2.82479,-3.06302c1.85959,-1.42641 4.83754,-3.43507 6.40179,0.13069c1.04333,2.37828 0.60191,3.93641 0.08886,6.35942c-0.10214,0.4824 -0.16272,0.94927 -0.1494,1.41101c0.06958,-0.00505 0.13328,-0.01668 0.18648,-0.0391c0.34573,-0.14569 0.45103,-0.61206 0.74872,-0.84041c1.38854,-1.06508 2.77709,-2.13018 4.16564,-3.19527c1.38853,-1.06508 2.77709,-2.13019 4.16564,-3.19528l3.19988,-1.16235c0,0 1.83632,0.79243 1.04387,2.62875z" data-paper-data="{&quot;origPos&quot;:null}" fill="#0052ef" stroke="none" stroke-width="0.5"/></g></g><g data-paper-data="{&quot;origRot&quot;:0,&quot;index&quot;:null}"><path d="M224.7664,144.16238l33.18418,1.95216l-5.62946,27.73443l-2.37304,4.8226l-3.57722,1.55748l-42.52027,-1.70783l5.94153,-28.08773l-2.65859,-5.17887z" data-paper-data="{&quot;origPos&quot;:null}" fill="#a10114" stroke="#a10114" stroke-width="0.5" stroke-linecap="round"/><path d="M255.10771,165.80831c-0.86363,4.9884 -7.88698,7.93754 -15.68701,6.5871c-7.80004,-1.35044 -13.4231,-6.48908 -12.55944,-11.47749c0.86363,-4.98839 7.88697,-7.93754 15.687,-6.5871c7.80004,1.35044 13.4231,6.48908 12.55944,11.47749z" data-paper-data="{&quot;origPos&quot;:null,&quot;origRot&quot;:0}" fill="#f4c4f6" stroke="none" stroke-width="0" stroke-linecap="butt"/><g data-paper-data="{&quot;origPos&quot;:null}" stroke-linecap="round"><path d="M196.51067,178.64186l0.54471,-7.38113l1.1453,-3.07669l2.85001,-2.51435l6.67452,-0.07945l40.23261,2.51748l-4.01888,10.60208z" data-paper-data="{&quot;origPos&quot;:null}" fill="#ffffff" stroke="#000000" stroke-width="0"/><path d="M208.43182,166.21444l-4.0395,10.26938" data-paper-data="{&quot;origPos&quot;:null}" fill="none" stroke="#a5b5ff" stroke-width="1.5"/><path d="M217.69153,176.71158l2.22545,-9.58833" data-paper-data="{&quot;origPos&quot;:null,&quot;origRot&quot;:0}" fill="none" stroke="#a5b5ff" stroke-width="1.5"/><path d="M232.76588,177.44769l2.22543,-9.58835" data-paper-data="{&quot;origPos&quot;:null,&quot;origRot&quot;:0}" fill="none" stroke="#a5b5ff" stroke-width="1.5"/></g><g data-paper-data="{&quot;origPos&quot;:null}"><path d="M257.25018,142.58155c4.83291,-1.28183 6.11473,3.55107 6.11473,3.55107c0,0 0.5883,8.50084 0.10781,11.36926c-1.35011,8.05972 -2.69792,15.57836 -7.1733,22.61314c-3.98749,6.06449 -9.64054,11.08363 -16.64154,13.23612c-2.47798,0.76186 -20.51085,2.50631 -24.16605,0.95629c-1.04127,-0.44157 -2.00523,-1.05111 -3.03248,-1.52328c-0.29338,0.07798 -0.65591,0.15367 -0.8391,0.26022c-0.61094,0.35533 -1.07018,0.95356 -1.71026,1.25323c-2.49635,1.16876 -4.77864,1.51087 -7.48302,1.67839c-0.83173,0.05152 -1.82025,0.64331 -2.49522,0.15456c-1.98981,-1.44086 -3.64587,-3.29385 -5.46881,-4.94077c-1.07116,-4.03856 -2.3027,-13.40642 2.70428,-15.42729c1.34957,-0.54471 7.99364,-0.57859 9.86021,-0.25248c2.31797,0.40498 23.87942,1.1683 29.74971,0.80468c1.52819,-0.09467 3.5239,0.11221 4.99043,-0.30913c0.19974,-0.05739 4.27541,-3.03447 1.37799,-1.41038c0.68088,-1.31246 10.06958,-24.47057 10.291,-26.09425c0.03912,-0.2868 0.41342,-5.01758 3.81366,-5.91943z" data-paper-data="{&quot;origPos&quot;:null}" fill="#ffdebd" stroke="none" stroke-width="0.5" stroke-linecap="butt"/><path d="M211.07856,192.76825l-2.11982,-1.87252l-0.18548,-2.99426l-0.16486,-2.66156l1.43679,-3.76269" data-paper-data="{&quot;origPos&quot;:null}" fill="none" stroke="#f6b09a" stroke-width="1.5" stroke-linecap="round"/></g></g><g data-paper-data="{&quot;index&quot;:null}"><path d="M182.53014,124.60451c-0.55791,-2.42547 -2.74939,-4.48829 5.17608,-4.98025c7.92548,-0.49196 23.408,-2.24965 23.63383,1.38844c0.22583,3.63809 2.6089,10.25808 -5.31657,10.75004c-9.83552,0.61052 -22.6314,-3.41115 -23.49333,-7.15824z" data-paper-data="{&quot;origPos&quot;:null}" fill="#b49416" stroke="none" stroke-width="0" stroke-linecap="butt"/><path d="M201.63763,133.58406l-11.64197,-4.62095l-4.86422,-3.03781l-1.2459,-3.93036" data-paper-data="{&quot;origPos&quot;:null}" fill="none" stroke="#a5b5ff" stroke-width="4.5" stroke-linecap="round"/><path d="M270.8641,145.28977c1.11923,-0.32673 2.81558,2.58016 2.81558,2.58016c0.13749,2.21496 1.44008,7.67788 0.15268,9.58859c-1.40892,2.09104 -4.70509,2.06104 -5.62278,3.97637c-0.09117,0.19028 -0.33415,2.3999 -0.36921,2.46649c-2.47024,3.27227 -8.95457,3.55055 -10.07411,-1.0634c-1.29687,-5.34476 2.55423,-11.54828 6.62996,-14.77654c2.22403,-1.58976 3.62845,-2.57488 6.46788,-2.77168z" data-paper-data="{&quot;origPos&quot;:null}" fill="#8e4108" stroke="none" stroke-width="0.5" stroke-linecap="butt"/><path d="M245.49444,169.69628c0,0 1.54709,-8.37332 2.63783,-10.08321c0.22518,-0.35302 -0.9913,-1.49091 -1.32719,-1.40553c-2.60216,0.6614 -6.14343,0.38338 -8.81032,0.38209c-10.69712,-0.02603 -21.32449,0.74451 -31.99639,1.40696c-2.21583,0.13755 -8.61568,0.16447 -9.20115,-0.43311c-1.29319,-1.3199 -2.98921,-3.45826 -2.82162,-5.58752c0.31646,-4.02097 4.36937,-25.21831 5.69824,-28.17397c0.36302,-0.80741 0.46068,-1.83199 1.14135,-2.39802c4.73722,-3.93934 40.0339,-2.82078 46.94883,-0.54064c2.55285,0.84177 6.60529,2.99078 9.3037,2.87483c0.30482,-0.01309 1.43068,-1.98989 2.03957,-2.52136c1.60847,-1.40394 3.45823,-1.93564 5.51978,-2.64015c4.24716,-1.45138 10.68593,-1.83758 12.70792,-2.35294c0.42976,-0.10954 13.22456,-1.97142 13.22456,-1.97142c0,0 1.31851,3.25459 0.65802,7.56163c-0.81452,5.31155 -3.59339,10.16116 -6.60977,14.59861c-1.91625,2.80668 -4.37151,5.52018 -7.37516,7.17876c-1.61696,0.89287 -3.38858,1.71729 -5.09193,2.43467c-0.86146,0.3628 -1.91035,0.86423 -1.89882,1.11074c0.04595,0.98145 -1.42694,2.76332 -1.76211,3.72202c-0.77626,2.22035 -1.24581,4.29363 -2.43512,6.39808c-1.66261,2.86374 -6.20572,9.35623 -6.20572,9.35623z" data-paper-data="{&quot;origPos&quot;:null}" fill="#ffdebd" stroke="none" stroke-width="0.5" stroke-linecap="butt"/><path d="M220.73882,138.36005l0.85722,-11.40337c0,0 19.37666,-0.89335 24.01089,-1.18101c2.00265,-0.12431 1.51609,11.51146 -1.78469,13.2152c-3.79653,1.95963 -9.33535,-2.00013 -15.72955,-1.60322c-6.39419,0.39691 -7.35388,0.9724 -7.35388,0.9724z" data-paper-data="{&quot;origPos&quot;:null}" fill="#ffffff" stroke="#f6b09a" stroke-width="0" stroke-linecap="butt"/><path d="M214.88096,131.58149c0,0 -1.63517,2.60631 -8.02936,3.00321c-6.39419,0.3969 -2.07476,0.29988 -6.0814,-1.12539c-3.48345,-1.23916 2.24324,-9.05638 2.24324,-9.05638c0,0 4.39678,0.43675 7.15454,1.66006c2.64832,1.17478 4.71301,5.51849 4.71301,5.51849z" data-paper-data="{&quot;index&quot;:null,&quot;origPos&quot;:null}" fill="#ffffff" stroke="#f6b09a" stroke-width="0" stroke-linecap="butt"/><path d="M245.09687,140.32741c-1.72333,-0.30443 -1.41888,-2.02775 -1.41888,-2.02775l0.90882,-1.77659c1.77332,-3.27239 1.37286,-5.87144 1.1438,-9.56173c0,0 -0.10841,-1.74663 1.63822,-1.85506c1.74663,-0.10842 1.85506,1.63821 1.85506,1.63821c0.26713,4.30342 0.56152,7.53146 -1.55985,11.44613l-0.53941,0.71792c0,0 -0.30445,1.72332 -2.02776,1.41888z" data-paper-data="{&quot;origPos&quot;:null}" fill="#18c6ff" stroke="none" stroke-width="0.5" stroke-linecap="butt"/><path d="M259.16239,125.72042c0.02497,0.12482 0.02994,0.20491 0.02994,0.20491l-0.01548,-0.00166c0.04529,0.29409 0.01908,0.51546 0.01908,0.51546c-0.39225,3.31267 -1.18893,6.43127 -2.08436,9.63265c-0.00871,0.03116 -0.63534,2.39834 -0.63701,2.39943c-5.35545,3.49598 -7.05152,-3.74337 -7.49568,-7.60362c-0.20666,-3.3296 -2.34133,-5.36876 -0.22405,-8.63139c0.77194,-1.18951 2.32533,-1.09802 3.56862,-1.24479c3.80915,-0.44969 7.0827,-0.14503 6.84537,4.72824l-0.00645,0.00079z" data-paper-data="{&quot;origPos&quot;:null}" fill="#8e4108" stroke="none" stroke-width="0.5" stroke-linecap="butt"/><path d="M197.52138,131.94333l-0.16007,-1.20795c0.58885,-2.27076 1.61761,-3.84256 2.98462,-5.69153c0,0 1.05268,-1.42385 2.45084,-0.34621c1.39815,1.07764 0.34546,2.50149 0.34546,2.50149c-1.10327,1.49226 -1.93504,2.67666 -2.39692,4.45783l0.01695,1.64385c0,0 -0.66116,1.65165 -2.28161,0.97292c-1.62045,-0.67874 -0.95927,-2.3304 -0.95927,-2.3304z" data-paper-data="{&quot;origPos&quot;:null}" fill="#18c6ff" stroke="none" stroke-width="0.5" stroke-linecap="butt"/><path d="M196.42707,96.66449c1.23483,-10.82952 13.01874,-14.31681 29.97147,-12.46614c13.1694,1.43767 26.65888,18.85439 26.65888,18.85439c2.80459,-4.45273 11.60729,-6.33585 11.60729,-6.33585c8.07369,-0.50115 15.54189,-0.91137 15.65683,12.84143c0.05212,6.23492 -4.17962,11.73493 -12.25331,12.23608c-3.94745,0.24503 -12.96567,4.26506 -16.67594,3.07121c-14.13044,-4.54678 -30.93663,-2.08956 -44.28344,-8.24571c-9.15996,-4.22498 -12.4013,-4.87528 -10.68178,-19.95539z" data-paper-data="{&quot;origPos&quot;:null}" fill="#fff70c" stroke="none" stroke-width="0" stroke-linecap="butt"/><path d="M213.94633,95.49494c7.33128,-0.45507 13.53797,3.42113 13.86303,8.65776c0.32506,5.23663 -5.35461,9.85066 -12.68588,10.30574c-7.33129,0.45507 -13.53798,-3.42113 -13.86303,-8.65776c-0.32506,-5.23663 5.3546,-9.85066 12.68588,-10.30574z" data-paper-data="{&quot;origPos&quot;:null}" fill="#ffffff" stroke="none" stroke-width="0" stroke-linecap="butt"/><path d="M229.44806,93.52479c0.15438,2.22232 -0.91775,2.61448 -0.91775,2.61448c-0.82973,1.76377 -1.65948,3.52758 -2.48922,5.29136c-2.04297,4.34281 -3.12683,9.99423 -9.15901,9.27933c-2.31327,-0.27415 -2.36134,-5.66615 -2.90578,-6.90612c-0.20273,-0.46171 -0.35304,-0.99624 -0.74026,-1.31926c-0.15805,0.33597 -0.31608,0.67191 -0.47413,1.00788c-1.19351,1.92428 -0.94372,4.15132 -2.50363,6.07781c-2.12337,2.62238 -4.97091,1.65831 -6.86334,-0.28135c-3.28588,-3.36792 -4.27184,-7.15292 -5.27645,-11.41768l-0.15826,0.02365l-0.29219,-1.95583c-0.03506,-0.21336 -0.03929,-0.43289 -0.01027,-0.65174c0.06187,-0.66706 0.39529,-1.55183 1.66167,-1.86698c0.02181,-0.00555 0.04372,-0.01076 0.06571,-0.01564c1.27036,-0.28872 1.96645,0.35239 2.3219,0.91914c0.15665,0.23005 0.26874,0.4873 0.33092,0.75722l0.82563,3.44795l-0.16055,0.03845c0.30929,1.6611 0.69561,3.3277 1.45417,4.67545c0.55278,0.98215 1.82255,2.34422 2.65767,3.20651c0.23934,-0.1112 0.54817,-0.21362 0.68565,-0.37843c0.48851,-0.58557 0.8512,-3.57828 1.22986,-4.47509c1.11121,-2.36212 3.03159,-5.87207 6.40219,-3.14284c2.24814,1.82033 2.6077,3.5879 3.33846,6.24802c0.1455,0.52961 0.32418,1.02259 0.57337,1.47275c0.06629,-0.04055 0.12337,-0.08464 0.16457,-0.13401c0.26771,-0.32089 0.13352,-0.83624 0.3114,-1.21439c0.82972,-1.76378 1.65947,-3.52758 2.48921,-5.29136c0.82973,-1.76378 1.65946,-3.52758 2.4892,-5.29136l2.57258,-2.78586c0,0 2.22231,-0.15438 2.37669,2.06794z" data-paper-data="{&quot;origPos&quot;:null,&quot;origRot&quot;:0}" fill="#0052ef" stroke="none" stroke-width="0.5" stroke-linecap="butt"/><path d="M181.95853,122.53591c-1.01275,-3.11674 9.02769,-10.51911 16.15458,-11.06048c17.43393,-1.32429 41.10081,2.59703 48.02144,4.17129c5.72687,1.30271 8.32119,6.22291 9.33392,9.33966c0.27395,0.84313 -11.59358,2.00534 -17.50818,1.78814c-12.16963,-0.44689 -55.7278,-3.39547 -56.00176,-4.23859z" data-paper-data="{&quot;origPos&quot;:null}" fill="#ffd412" stroke="none" stroke-width="0" stroke-linecap="butt"/><path d="M275.18942,128.91107l-0.64311,6.31865c0,0 -1.05517,2.57959 -3.47376,3.22141c-2.41858,0.64181 -5.55258,-0.23233 -6.38312,-0.60571c-0.83055,-0.37337 -1.09081,-0.54 -0.14456,-2.32884c0.94625,-1.78883 0.89003,-2.28806 3.43246,-3.88679c2.54243,-1.59873 7.17469,-2.78318 7.17469,-2.78318l6.44734,-3.73996" data-paper-data="{&quot;origPos&quot;:null}" fill="none" stroke="#f6b09a" stroke-width="3" stroke-linecap="round"/><path d="M183.55284,122.01559l36.0754,0.0985l31.73837,4.20843" data-paper-data="{&quot;origPos&quot;:null}" fill="none" stroke="#ffffff" stroke-width="4.5" stroke-linecap="round"/><path d="M195.84586,123.67386l0.2822,-3.52426l3.93036,-1.24589l4.25732,-0.01379l4.86478,1.70187l4.25563,3.99402l2.80667,0.8277l4.03879,0.50074l3.96133,-0.74686l4.08695,-2.7585l6.39458,-1.89982l4.94393,-1.05832l6.00396,-0.12221l8.53013,0.22196l-0.37854,10.04273l-11.42973,-2.54677l-5.55139,-0.65733l-5.47394,0.59027l-6.86265,2.42983l-2.66727,1.41797l-6.73704,0.41819l-2.63459,-2.09079l-3.21107,-3.30743l-3.29023,-0.5472l-5.52041,-0.1583l0.1394,2.24568z" data-paper-data="{&quot;origPos&quot;:null}" fill="#000001" stroke="#ff0000" stroke-width="0" stroke-linecap="round"/><path d="M213.6205,123.46057c0.0658,-3.64205 2.64768,-1.85897 5.41016,-1.76294c2.76247,0.09603 4.65945,-1.53137 4.59367,2.11067c-0.06578,3.64203 -2.35856,6.51667 -5.12104,6.42064c-2.76247,-0.09602 -4.94856,-3.12632 -4.88277,-6.76837z" data-paper-data="{&quot;origPos&quot;:null,&quot;origRot&quot;:0}" fill="#ffdebd" stroke="#f6b09a" stroke-width="2.5" stroke-linecap="butt"/><path d="M213.19508,121.77868l5.82191,0.17296l5.11064,0.55111" data-paper-data="{&quot;origPos&quot;:null}" fill="none" stroke="#ffffff" stroke-width="4.5" stroke-linecap="round"/><g data-paper-data="{&quot;origPos&quot;:null,&quot;index&quot;:null}" stroke-linecap="round"><path d="M247.99118,153.06888l2.85127,0.73541l-2.93201,7.55143c0,0 -0.69245,2.18907 -1.05458,2.45466c-0.12072,0.08852 -10.41809,0.36301 -10.41809,0.36301l-40.91274,-1.67151l4.20463,-8.96395z" data-paper-data="{&quot;origPos&quot;:null}" fill="#ffffff" stroke="#000000" stroke-width="0"/><path d="M239.94752,154.97179l-4.22199,8.68428" data-paper-data="{&quot;origPos&quot;:null}" fill="none" stroke="#a5b5ff" stroke-width="1.5"/><path d="M226.41692,154.92777l-2.36864,8.0912" data-paper-data="{&quot;origPos&quot;:null,&quot;origRot&quot;:0}" fill="none" stroke="#a5b5ff" stroke-width="1.5"/><path d="M208.71687,162.56694l2.36863,-8.09121" data-paper-data="{&quot;origPos&quot;:null,&quot;origRot&quot;:0}" fill="none" stroke="#a5b5ff" stroke-width="1.5"/></g><path d="M187.90783,158.62943l0.94851,-0.86041l2.25909,-2.34447l2.36925,2.65831l1.63546,-2.70652l2.93227,-1.18395l2.94331,2.22192l2.75882,-3.97856l2.807,0.02614l2.56886,2.64593l1.03662,-2.66935l1.90942,-1.52122l2.57022,-0.56032l4.07769,4.35574l5.46669,-5.54935l1.60931,0.1005l4.47692,4.33095l11.96728,-7.35555l2.39539,-0.14869l2.09392,4.67925l10.64431,-6.07111l2.25772,0.86178l-12.72027,17.8223l-2.61979,-0.23815l-5.57413,-5.86593l-7.05123,5.84809l-1.82133,-0.28772l-3.71562,-4.97936l-1.39731,0.08674l-5.07985,5.32495l-1.79653,0.11151l-3.51602,-4.99175l-2.73402,4.37779l-2.58262,0.36069l-3.30401,-4.80452l-2.70925,4.77702l-1.55975,0.69798l-2.45736,-0.84939l-0.80949,-3.3563l-2.55919,3.96617l-3.97993,0.44743l-0.75992,-2.55784l-0.84939,2.45736l-3.19384,0.19825l-3.26548,-7.41193z" data-paper-data="{&quot;origPos&quot;:null}" fill="#000001" stroke="#ff0000" stroke-width="0" stroke-linecap="round"/><path d="M217.3807,142.93837c0.29613,-0.08024 0.50772,-0.09337 0.50772,-0.09337c1.52667,-0.09477 4.93367,-0.52962 5.99012,0.80924c2.18589,2.77026 2.87481,8.0626 0.44107,11.02916c-3.46229,4.22029 -8.02257,3.99835 -12.62674,5.53026c-5.28554,1.40262 -11.5456,1.04356 -16.96966,0.83911c-1.74247,-0.06566 -4.30147,0.04854 -5.75655,-1.06179c-2.9696,-2.26602 -3.83414,-5.30336 -4.12666,-8.8325c-0.74421,-11.98918 14.21585,-16.66274 23.97619,-17.26859c2.90879,-0.18056 6.30185,0.99767 7.58637,3.90073c0.58147,1.31416 0.61359,3.45683 0.97814,5.14778z" data-paper-data="{&quot;origPos&quot;:null}" fill="#f991fd" stroke="none" stroke-width="0.5" stroke-linecap="butt"/><path d="M225.52695,131.4449c0.84168,-0.05224 1.62086,0.17993 2.20126,0.59777c0.58024,0.41685 0.9605,1.01945 1.00325,1.70812c0.04275,0.68866 -0.26007,1.33366 -0.7843,1.81908c-0.52428,0.48641 -1.26878,0.81317 -2.11045,0.86541c-0.84178,0.05225 -1.62096,-0.17992 -2.20126,-0.59777c-0.58032,-0.41683 -0.96059,-1.01944 -1.00334,-1.70811c-0.04275,-0.68867 0.26007,-1.33369 0.78442,-1.81909c0.52418,-0.4864 1.26866,-0.81315 2.11044,-0.86541z" fill="#000000" stroke="none" stroke-width="1.05702" stroke-linecap="butt"/><path d="M208.33578,130.2073c0.58023,0.41686 0.96049,1.01947 1.00324,1.70814c0.04274,0.68867 -0.26008,1.33366 -0.7843,1.81908c-0.52428,0.48643 -1.26877,0.81317 -2.11044,0.86541c-0.84179,0.05225 -1.62097,-0.17992 -2.20127,-0.59777c-0.58033,-0.41684 -0.9606,-1.01945 -1.00335,-1.70812c-0.04275,-0.68868 0.26007,-1.33369 0.78442,-1.81909c0.52417,-0.48641 1.26866,-0.81317 2.11043,-0.86542c0.84169,-0.05224 1.62087,0.17993 2.20127,0.59777z" fill="#000000" stroke="none" stroke-width="1.05702" stroke-linecap="butt"/></g></g></g></svg>