<svg version="1.1" xmlns="http://www.w3.org/2000/svg" xmlns:xlink="http://www.w3.org/1999/xlink" width="96.60803" height="35.30526" viewBox="0,0,96.60803,35.30526"><defs><linearGradient x1="161.75848" y1="180.33434" x2="240.86456" y2="180.33434" gradientUnits="userSpaceOnUse" id="color-1"><stop offset="0" stop-color="#0426a2"/><stop offset="1" stop-color="#0d51ff"/></linearGradient><linearGradient x1="240.08888" y1="163.06125" x2="240.08888" y2="197.11651" gradientUnits="userSpaceOnUse" id="color-2"><stop offset="0" stop-color="#0d51ff"/><stop offset="1" stop-color="#0426a2"/></linearGradient></defs><g transform="translate(-161.13348,-162.43625)"><g data-paper-data="{&quot;isPaintingLayer&quot;:true}" fill-rule="nonzero" stroke-linejoin="miter" stroke-miterlimit="10" stroke-dasharray="" stroke-dashoffset="0" style="mix-blend-mode: normal"><path d="M164.26489,190.8936c-2.7193,-2.63158 -2.5023,-6.88133 -2.5023,-6.88133v-7.98077c0,0 0.0036,-4.23642 2.50231,-6.56855c2.49871,-2.33213 6.88133,-2.18952 6.88133,-2.18952h69.71833v26.12248h-69.40555c0,0 -4.47482,0.12928 -7.19412,-2.5023z" fill="url(#color-1)" stroke="#000174" stroke-width="1.25" stroke-linecap="butt"/><path d="M240.08888,163.06125c4.69771,0 8.95515,1.90752 12.0371,4.99053c3.08301,3.08195 4.99053,7.33939 4.99053,12.0371c0,4.69771 -1.90752,8.95515 -4.99053,12.0371c-3.08195,3.08301 -7.33939,4.99053 -12.0371,4.99053c-4.69771,0 -8.95515,-1.90752 -12.0371,-4.99053c-3.08301,-3.08195 -4.99053,-7.33939 -4.99053,-12.0371c0,-4.69771 1.90752,-8.95515 4.99053,-12.0371c3.08195,-3.08301 7.33939,-4.99053 12.0371,-4.99053z" data-paper-data="{&quot;origPos&quot;:null}" fill="url(#color-2)" stroke="#000174" stroke-width="1.25" stroke-linecap="butt"/><path d="M237.8234,168.92281l10.8021,3.9452l-6.3981,17.5182l-10.8021,-3.9452z" data-paper-data="{&quot;origPos&quot;:null}" fill="#ffffff" stroke="#000174" stroke-width="4.5" stroke-linecap="butt"/><path d="M237.8234,168.92281l10.8021,3.9452l-6.3981,17.5182l-10.8021,-3.9452z" fill="#ffffff" stroke="#ffffff" stroke-width="2" stroke-linecap="butt"/><g data-paper-data="{&quot;origPos&quot;:null}" fill="none" stroke="#000174" stroke-width="1.805" stroke-linecap="round"><path d="M238.37357,171.82721l7.942,2.888" data-paper-data="{&quot;origPos&quot;:null}"/><path d="M236.78763,176.31707l7.942,2.888" data-paper-data="{&quot;origPos&quot;:null}"/><path d="M235.05169,180.63895l7.942,2.888" data-paper-data="{&quot;origPos&quot;:null}"/><path d="M241.47571,187.79492l-7.942,-2.888" data-paper-data="{&quot;origPos&quot;:null}"/></g><text transform="translate(172.29314,185.74847) scale(0.40758,0.40758)" font-size="40" xml:space="preserve" fill="#ffffff" fill-rule="nonzero" stroke="none" stroke-width="1" stroke-linecap="butt" stroke-linejoin="miter" stroke-miterlimit="10" stroke-dasharray="" stroke-dashoffset="0" font-family="Sans Serif" font-weight="normal" text-anchor="start" style="mix-blend-mode: normal"><tspan x="0" dy="0">Guide</tspan></text></g></g></svg>