<svg version="1.1" xmlns="http://www.w3.org/2000/svg" xmlns:xlink="http://www.w3.org/1999/xlink" width="128.81258" height="184.14071" viewBox="0,0,128.81258,184.14071"><g transform="translate(-201.00643,-99.57923)"><g data-paper-data="{&quot;isPaintingLayer&quot;:true}" fill-rule="nonzero" stroke-linejoin="miter" stroke-miterlimit="10" stroke-dasharray="" stroke-dashoffset="0" style="mix-blend-mode: normal"><g data-paper-data="{&quot;index&quot;:null}" stroke="none" stroke-width="0" stroke-linecap="butt"><path d="M256.81603,172.03221c2.73475,-0.26958 10.72193,4.66836 19.57314,7.61801c4.3369,1.44527 18.58579,5.6848 18.19819,6.99335c-0.86705,2.92711 -1.47878,10.48039 -2.48629,10.31715c-10.45689,-1.69439 -23.70054,-2.16989 -34.7852,-5.00029c-3.56661,-0.9107 -10.97543,-7.29865 -9.3904,-12.18324c1.58502,-4.88458 3.79769,-7.24291 8.89058,-7.74497z" fill="#7100f3"/><g><path d="M325.88824,209.0334c4.26659,4.25103 6.32856,11.03644 -0.50158,18.13466c-8.04641,7.53335 -13.00066,8.72794 -18.01301,4.97453c-4.68983,-4.13582 -7.18563,-10.92445 1.54573,-18.66756c6.49777,-6.99485 8.43161,-9.40508 16.96887,-4.44167z" data-paper-data="{&quot;origRot&quot;:0}" fill="#ffffff"/><path d="M317.80605,201.14445c4.83948,3.97768 1.90443,3.98982 -5.99552,13.47937c-6.93471,8.33011 -7.8155,9.85245 -12.39659,6.44626c-4.09501,-3.04477 1.86057,-7.88594 6.2275,-12.87555c4.3669,-4.98963 9.33869,-9.37274 12.16461,-7.05006z" data-paper-data="{&quot;origRot&quot;:0}" fill="#ffffff"/><path d="M309.74228,201.06587c6.5976,4.89083 -3.19371,13.04758 -6.44431,14.93738c-3.25061,1.88979 -7.90991,-6.8328 -12.0376,-13.93284c-4.1277,-7.10003 -8.78187,-13.42794 -1.58812,-16.27752c5.15852,-2.0434 8.5299,2.19756 11.34703,5.76045c2.9842,3.77418 5.35087,7.01274 8.723,9.51252z" fill="#7100f3"/></g></g><path d="M255.72656,214.53816c2.56402,-4.44942 12.40526,-2.66389 15.37442,-0.48807c9.22786,6.76218 18.58028,18.43623 23.87633,23.52792c1.42364,1.36871 0.95649,5.99902 -1.9023,7.84313c-2.85879,1.84411 -4.23762,0.2385 -6.77687,-0.74115c-2.53927,-0.97964 -11.14268,-5.23464 -15.01402,-7.6657c-7.90108,-4.9616 -19.53236,-14.51593 -21.06155,-16.79915c0,0 2.00709,0.39126 5.50402,-5.677z" data-paper-data="{&quot;index&quot;:null}" fill="#372b45" stroke="none" stroke-width="0" stroke-linecap="butt"/><path d="M279.36464,273.24081c-6.1044,10.52462 -20.86295,-0.64089 -24.18472,-5.1124c-3.32178,-4.47152 8.86852,-15.11032 18.63528,-22.36578c9.76675,-7.25547 17.65354,-13.65518 21.85047,-7.63646c2.86301,6.81746 -3.01955,9.24813 -6.40914,16.54978c-3.38959,7.30165 -6.77183,13.18555 -9.89186,18.56487z" fill="#372b45" stroke="none" stroke-width="0" stroke-linecap="butt"/><path d="M304.801,264.40515c2.47168,0.23906 0.03886,12.8959 -6.30078,16.67116c-8.39618,4.99994 -22.5192,1.40113 -30.12873,1.24499c-14.5524,-0.29861 -18.54559,-6.39856 -14.93012,-15.52733c2.24762,-5.67507 0.70503,4.43197 13.73571,1.49301c2.09062,-0.47152 10.96134,-2.10626 17.02009,-3.30585c4.97502,-0.08921 7.83209,2.06475 11.14696,1.61385c3.35416,-1.47495 1.3946,-2.96958 9.45687,-2.18981z" fill="#ff7f01" stroke="none" stroke-width="0" stroke-linecap="butt"/><g><path d="M261.37168,177.28815c7.24867,8.2923 6.3807,24.99888 5.40807,37.02777c-0.89656,11.08823 -12.64876,15.38362 -26.70215,14.24731c-6.944,-0.56148 -11.45073,-0.39592 -15.96559,-5.19762c-4.51485,-4.8017 -3.07636,-13.10814 -4.15924,-16.20583c-1.4654,-4.19194 -3.55162,-9.15553 -2.90275,-15.86802c1.28619,-8.41337 4.57371,-19.25476 18.62709,-18.11845c0,0 20.29408,-2.06314 25.69456,4.11488z" data-paper-data="{&quot;origPos&quot;:null,&quot;index&quot;:null}" fill="#372b45" stroke="none" stroke-width="0" stroke-linecap="butt"/><path d="M238.69191,169.67782c7.5998,0.6145 16.74613,-0.65036 22.14661,5.52764c3.6558,4.18213 6.40808,18.9054 6.40808,18.9054c0,0 -16.88743,-3.23549 -21.60488,-0.978c-2.11515,1.01218 -8.51237,4.16037 -11.29646,4.95508c-1.4591,0.41646 -17.01457,-0.25676 -14.61628,-13.11928c1.28619,-8.41337 4.90955,-16.42714 18.96293,-15.29082z" data-paper-data="{&quot;origPos&quot;:null,&quot;index&quot;:null}" fill="#7100f3" stroke="none" stroke-width="0" stroke-linecap="butt"/><path d="M233.63553,173.04221c0,0 4.31146,6.70913 5.54318,10.53088c1.43301,4.44625 4.07905,14.08273 4.07905,14.08273" data-paper-data="{&quot;origPos&quot;:null}" fill="none" stroke="#372b45" stroke-width="10.5" stroke-linecap="round"/><path d="M246.76965,197.63676c-0.17388,2.15041 -2.19295,3.95776 -4.10093,3.80349c-1.90797,-0.15428 -3.61043,-2.26256 -3.43656,-4.41295c0.17388,-2.15041 2.19295,-3.95776 4.10091,-3.8035c1.90797,0.15428 3.61044,2.26255 3.43657,4.41296z" fill="#ffea12" stroke="none" stroke-width="0" stroke-linecap="butt"/><path d="M254.91328,173.47795c0,0 3.19591,4.30925 4.46731,7.72524c1.27139,3.41598 4.38879,16.48273 4.38879,16.48273" data-paper-data="{&quot;origPos&quot;:null,&quot;origRot&quot;:0}" fill="none" stroke="#372b45" stroke-width="9.5" stroke-linecap="round"/><path d="M266.55803,196.13705c-0.17388,2.15041 -1.85258,3.65748 -3.76055,3.50321c-1.90798,-0.15428 -3.32273,-1.91148 -3.14885,-4.06188c0.17388,-2.15041 1.85257,-3.6575 3.76055,-3.50322c1.90798,0.15428 3.32273,1.91148 3.14886,4.06189z" data-paper-data="{&quot;origPos&quot;:null}" fill="#ffea12" stroke="none" stroke-width="0" stroke-linecap="butt"/></g><path d="M242.14404,237.83729c-6.07852,-4.18045 -16.91673,-11.80006 -18.59432,-15.31559c-1.67759,-3.51552 2.33426,-6.25807 7.04284,-7.91152c4.70857,-1.65343 10.61107,-0.95644 12.87538,0.91715c7.03728,5.82292 13.86048,16.41084 17.82171,20.92977c1.06484,1.21475 0.38978,5.75417 -2.04288,7.7796c-2.43265,2.02543 -3.44601,0.57672 -5.43897,-0.16898c-1.99296,-0.74572 -8.6854,-4.18209 -11.66374,-6.2304z" data-paper-data="{&quot;index&quot;:null}" fill="#372b45" stroke="none" stroke-width="0" stroke-linecap="butt"/><path d="M245.87933,272.52229c-6.07068,10.54411 -20.86489,-0.57412 -24.20095,-5.03499c-3.33608,-4.46086 8.82012,-15.13861 18.56362,-22.42529c9.74349,-7.28668 17.60977,-13.71158 21.82593,-7.70633c2.88481,6.80825 -2.98993,9.25774 -6.35615,16.5702c-3.36622,7.31245 -6.7296,13.20715 -9.83242,18.59643z" data-paper-data="{&quot;index&quot;:null}" fill="#372b45" stroke="none" stroke-width="0" stroke-linecap="butt"/><path d="M271.54919,264.20375c2.47168,0.23906 0.03885,12.8959 -6.30078,16.67116c-8.39618,4.99993 -22.5192,1.40113 -30.12873,1.24499c-14.5524,-0.29861 -18.54559,-6.39856 -14.93012,-15.52733c2.24762,-5.67507 0.70503,4.43197 13.73571,1.49301c2.09062,-0.47151 10.96135,-2.10626 17.02009,-3.30585c4.97502,-0.08921 7.83209,2.06476 11.14696,1.61385c3.35416,-1.47495 1.3946,-2.96958 9.45687,-2.18981z" data-paper-data="{&quot;index&quot;:null}" fill="#ff7f01" stroke="none" stroke-width="0" stroke-linecap="butt"/><g><path d="M286.5707,135.53617c-0.7697,3.25746 -11.92958,6.6923 -20.48846,6.10999c-6.89676,-0.46922 -4.78805,-6.21977 -4.57266,-9.38563c0.21539,-3.16588 13.6842,-1.55578 20.58095,-1.08656c6.89674,0.46922 4.97836,2.25365 4.48015,4.36216z" data-paper-data="{&quot;index&quot;:null}" fill="#2d0757" stroke="none" stroke-width="0" stroke-linecap="butt"/><path d="M267.40678,156.37101c0.06114,-0.03135 0.12576,-0.06142 0.19402,-0.08994c1.80362,-0.75347 2.55708,1.05015 2.55708,1.05015l-0.10002,0.09064c0.22503,0.25308 0.33628,0.48265 0.33628,0.48265c2.05044,4.23156 1.92335,11.05758 0.82115,15.72171c-0.41748,1.76667 -3.08756,3.98261 -3.07393,5.30835c-0.9443,2.29935 -3.70957,2.83124 -5.97638,2.86554c-5.68998,0.08609 -11.54424,-0.75875 -17.2237,-1.14515c-1.24531,-0.08472 -3.78558,0.23555 -4.87538,-0.3317c-7.10117,-3.6961 -3.02143,-13.18322 -2.60668,-19.2793c0.25713,-3.77942 2.48657,-6.21666 6.43508,-6.50717c5.4428,-0.40047 11.34703,0.69661 16.79208,1.06707c2.27517,0.15479 4.55035,0.30958 6.82551,0.46437z" data-paper-data="{&quot;index&quot;:null}" fill="#ffffff" stroke="none" stroke-width="0.5" stroke-linecap="butt"/><path d="M266.9066,164.27274c1.22114,0.03602 1.1851,1.25714 1.1851,1.25714l-0.02439,0.37194c-0.05758,0.84635 -0.08297,1.69914 -0.09661,2.55594c0.48923,-0.20879 0.97527,-0.41806 1.45809,-0.61976l0.97283,-0.04117c0,0 1.21264,-0.14812 1.36077,1.06452c0.14812,1.21264 -1.06452,1.36077 -1.06452,1.36077l-0.32727,-0.12962c-0.79854,0.3336 -1.60816,0.68438 -2.42713,1.02188c-0.00568,0.43564 -0.01374,0.87167 -0.0268,1.30779l0.03338,0.00227l-0.11057,1.62512c-0.01048,0.15404 -0.0491,0.29947 -0.11048,0.43162c-0.14258,0.34158 -0.4656,0.75366 -1.19129,0.70429c-0.72571,-0.04937 -0.98993,-0.50144 -1.08493,-0.85915c-0.04292,-0.13921 -0.06148,-0.28857 -0.051,-0.4426c0.04168,-0.61258 0.06694,-1.22449 0.0831,-1.83549c-0.90197,0.30359 -1.81292,0.55663 -2.7307,0.72085c-0.89947,0.09536 -1.79236,0.18044 -2.68162,0.25433c-0.0702,1.03188 -0.14041,2.06376 -0.21061,3.09565l-0.02211,0.32501c0,0 -0.08292,1.21884 -1.30177,1.13592c-1.21884,-0.08292 -1.13592,-1.30177 -1.13592,-1.30177c0.06816,-1.00188 0.13843,-2.03464 0.2095,-3.07924c-2.22453,0.1317 -4.44355,0.18736 -6.70422,0.15246c-0.02661,0.39113 -0.05322,0.78223 -0.07983,1.17336l-0.06634,0.97507c0,0 -0.08292,1.21884 -1.30177,1.13592c-1.21884,-0.08292 -1.13592,-1.30177 -1.13592,-1.30177c0.04281,-0.62917 0.09023,-1.32629 0.13984,-2.05547c-0.67226,-0.02972 -1.35398,-0.02362 -2.03303,-0.11416c-2.36144,-0.31487 -6.47982,-3.21649 -4.63696,-4.23849c0.98295,-0.72544 3.50785,1.7898 4.80281,1.80081c0.6773,0.00576 1.35335,0.09154 2.03169,0.1339c0.08821,-1.29659 0.17513,-2.57416 0.24848,-3.65222c0,0 0.08292,-1.21884 1.30177,-1.13592c1.21884,0.08292 1.13592,1.30177 1.13592,1.30177c-0.08209,1.20661 -0.16418,2.41319 -0.24627,3.61978c2.24954,0.10111 4.4939,0.12921 6.69517,-0.01944c0.11005,-1.61758 0.21985,-3.23139 0.32467,-4.77216c0,0 0.08292,-1.21884 1.30177,-1.13592c1.21884,0.08292 1.13592,1.30177 1.13592,1.30177c-0.09883,1.45257 -0.19765,2.90512 -0.29648,4.3577c0.70484,-0.09659 1.40361,-0.21607 2.095,-0.36205c1.07938,-0.19313 2.14464,-0.5219 3.19577,-0.91152c0.01039,-1.24465 0.02611,-2.4841 0.10995,-3.71643l0.01983,-0.27811c0,0 0.03602,-1.22114 1.25714,-1.1851z" data-paper-data="{&quot;index&quot;:null}" fill="#a5b5ff" stroke="none" stroke-width="0.5" stroke-linecap="butt"/><path d="M217.50459,154.58904l0.05737,-0.35397c0.12175,-0.18981 0.2435,-0.37962 0.36525,-0.56943c5.0989,-3.77475 8.44668,4.46796 10.27012,7.65001c0.61013,1.06472 1.33976,1.93819 1.77788,3.08484c1.37757,3.63493 9.27189,12.52752 1.40289,13.59894c-0.99921,0.13605 -1.90515,0.05223 -2.90812,-0.016c-0.56617,-0.24383 -1.19559,-0.39042 -1.69849,-0.73151c-0.43102,-0.29235 -3.15679,-2.61312 -4.1203,-3.25923c-0.40487,-0.27148 -5.40118,-5.6074 -5.59114,-6.54359c-0.86808,-4.32398 0.02909,-8.16429 0.31938,-12.43099c0.00954,-0.14016 0.04725,-0.27233 0.1078,-0.39225c0.00551,-0.01218 0.01131,-0.02445 0.0174,-0.03678z" data-paper-data="{&quot;index&quot;:null}" fill="#8e4108" stroke="none" stroke-width="0.5" stroke-linecap="butt"/><path d="M270.20544,184.19416c-0.09497,3.90985 0.94043,7.86026 -1.54321,10.60734c-1.0701,1.18361 -2.96817,2.34406 -3.60552,2.24262c-3.2028,-0.20475 -7.31139,0.06393 -10.23574,-1.37635c-2.10925,-1.03882 -6.44554,-4.40507 -6.47689,-4.41798c-0.03198,-0.01115 -0.04933,-0.01827 -0.04933,-0.01827c-2.75324,-1.1307 -5.08648,-3.10329 -7.80559,-4.22918c-1.26487,-0.52374 -5.29117,-2.11485 -5.29117,-2.11485c-5.80474,-4.46737 -9.50809,-10.78446 -11.43793,-17.78869c-0.77288,-2.9794 -1.23568,-5.99421 -2.00314,-8.95258l0.1039,-0.32293c-2.77629,-1.84926 -5.03867,-4.3603 -7.84502,-6.15056c-1.49457,-0.95341 -3.60353,-1.77468 -4.99536,-3.05614c-1.46762,-1.35124 -2.29999,-2.14224 -3.43268,-3.78443c-4.48203,-5.26341 -4.89487,-9.71859 -4.43606,-16.46235l0.14358,-0.92746c-0.07048,-0.25539 -0.0857,-0.55516 -0.01197,-0.905c0.047,-0.36361 0.19099,-0.78495 0.55995,-1.11194c0.34807,-0.34915 0.7771,-0.46818 1.14285,-0.49379c0.50645,-0.07604 0.89958,0.02406 1.20205,0.20246c4.93143,1.5764 8.69747,4.21965 13.29019,6.51249c1.84884,0.92302 4.17255,0.9017 6.2088,1.38511c0.96401,0.22885 3.87335,0.72667 3.87335,0.72667c4.43894,0.302 7.41553,-2.19288 11.63124,-3.49209c3.28829,-1.01338 6.54003,-0.72643 9.90708,-1.05672c5.76195,-0.56194 12.11069,0.63403 17.8848,1.02687c0,0 2.2255,0.81831 2.48567,1.24352c2.23294,2.34461 2.01025,4.6655 1.79265,7.86384c-0.31357,4.60895 -1.05863,9.43453 -0.71364,14.0426c0.14165,2.18903 0.4406,4.24603 0.29974,6.43758c0.0754,0.44714 -0.04374,0.83172 -0.2153,1.13328c-0.15742,0.36427 -0.4429,0.73917 -0.95996,0.93629c-2.86356,1.82714 -5.13559,1.0821 -8.24178,1.89748c-1.37155,0.36002 -2.60891,1.17981 -4.11744,1.3038c-2.43611,0.20019 -4.98404,-0.29826 -7.40218,0.03491c-2.8379,0.27676 -6.00665,-0.02942 -8.84676,-0.62738c-0.14004,1.17318 -0.26754,2.3742 -0.1585,3.4699c0.45545,4.57642 5.69921,8.27125 9.75275,9.00517c4.87872,0.94986 8.64512,-0.25848 13.27755,-1.46021c1.34673,-0.34936 3.00014,-0.31703 4.26773,-0.7631c1.3213,-0.46499 2.37233,-1.19997 4.01086,-1.35977l1.52619,1.16084c0,0 1.8039,0.75276 1.05113,2.55667z" data-paper-data="{&quot;index&quot;:null}" fill="#ffdebd" stroke="none" stroke-width="0.5" stroke-linecap="butt"/><path d="M285.40428,133.25747c0,0 -0.17513,2.36731 -1.1049,3.41503c-0.92976,1.04772 -4.25011,2.61933 -4.25011,2.61933l-10.15848,3.96246" data-paper-data="{&quot;index&quot;:null}" fill="none" stroke="#a5b5ff" stroke-width="4.5" stroke-linecap="round"/><path d="M241.58759,137.0434c-0.31017,1.10386 -0.83211,2.09334 -1.10436,3.24874c-0.36581,1.5525 -0.19168,3.5562 -0.30166,5.17272c-0.06755,0.9929 3.75656,1.75832 5.58616,1.8828c0.49074,0.03339 3.42173,0.26811 3.37065,0.06364c0.77709,-0.45583 2.06885,-0.41415 2.74597,-0.93187c2.10347,-1.60828 4.05345,-3.92591 5.23476,-6.85787c0.14775,-0.36676 0.57756,-1.22089 0.19278,-1.17281c-0.20471,0.02557 -0.12474,0.51806 -0.3302,0.53564c-0.56405,0.04829 -1.71436,-0.92769 -2.27966,-1.11881c-0.74065,-0.25042 -2.02382,-0.30645 -2.85018,-0.50761c-1.83084,-0.44567 -4.14022,-0.23028 -6.03311,-0.35906c-1.46155,-0.09944 -2.81219,0.11622 -4.23117,0.04449zM240.91659,134.66177c0.37696,0.02565 0.59805,0.19041 0.72745,0.38292c1.41524,0.08161 2.83753,-0.14038 4.31044,-0.04017c3.14749,0.21414 7.41443,-0.01299 10.29762,1.40201c1.81109,0.88882 3.58878,1.70161 2.6742,3.97161c-1.41511,3.51225 -1.03066,5.02093 -4.02797,7.11246c-0.6107,0.42615 -3.85773,1.6742 -4.79109,1.65376c-0.93336,-0.02041 -7.39195,0.37155 -9.67229,-0.99199c-0.95258,-0.56961 -2.28398,-1.63712 -2.20349,-2.82017c0.12722,-1.86999 0.02005,-3.97065 0.44463,-5.79661c0.32316,-1.38971 1.09774,-2.47544 1.19758,-3.94298c0,0 0.06785,-0.99721 1.04291,-0.93088z" data-paper-data="{&quot;index&quot;:null}" fill="#18c6ff" stroke="none" stroke-width="0.5" stroke-linecap="butt"/><path d="M251.81525,135.22251c2.18874,0.71002 1.80203,0.735 2.9956,1.59235c1.19358,0.85736 2.50261,2.42512 2.35483,2.79187c-1.18129,2.93198 -0.91348,4.63443 -3.01696,6.24273c-0.67711,0.51771 -3.87568,1.34965 -4.99952,1.50835c-1.12385,0.15869 -2.91541,0.06539 -3.40613,0.032c-1.82961,-0.12448 -5.67484,-0.91502 -5.60729,-1.90794c0.10998,-1.6165 -0.06587,-3.64873 0.29995,-5.20123c0.27224,-1.1554 0.87807,-3.27676 1.18826,-4.38062c1.43982,-0.23473 2.44958,-0.8688 4.31269,-1.02414c1.8631,-0.15534 3.6898,-0.36337 5.87853,0.34664z" data-paper-data="{&quot;noHover&quot;:false,&quot;origItem&quot;:[&quot;Path&quot;,{&quot;applyMatrix&quot;:true,&quot;segments&quot;:[[[469.86056,340.47788],[2.90705,-0.05065],[-0.47996,2.2968]],[[468.0571,347.26415],[0.39535,-2.39679],[-0.53123,3.22051]],[[468.15973,357.86707],[0,-3.31566],[0,2.03658]],[[479.8264,360.93518],[-3.75277,0],[1.00657,0]],[[486.717,360.5969],[0.13271,0.41035],[1.52326,-1.03856]],[[492.19394,358.31293],[-1.31054,1.15106],[4.07119,-3.57579]],[[501.92903,343.58421],[-2.00456,6.15021],[0.25074,-0.76931]],[[502.15973,341.16292],[0.77893,-0.15165],[-0.41434,0.08067]],[[501.56,342.30239],[0.41704,-0.06448],[-1.14489,0.17701]],[[496.75028,340.33482],[1.18068,0.3117],[-1.54698,-0.4084]],[[490.86061,339.69435],[1.71512,0.2959],[-3.79987,-0.65558]],[[478.49306,339.79931],[3.88259,0],[-2.99782,0]]],&quot;closed&quot;:true}],&quot;index&quot;:null}" fill="#ffffff" stroke="none" stroke-width="0.5" stroke-linecap="butt"/><path d="M263.80015,139.07109c-0.08666,1.27376 -0.17332,2.54753 -0.25998,3.82129c-0.00664,0.09758 -0.10362,1.46221 -0.09951,1.4626c0.16275,0.01491 -0.07303,-0.44669 0.08641,-0.48266c0.46094,-0.10396 2.3098,0.64568 3.32635,0.71485c0.19779,0.01346 2.43694,0.17398 2.43768,0.16585c0.01491,-0.16275 -0.44669,0.07303 -0.48266,-0.08642c-0.2843,-1.26057 0.39794,-4.67169 0.61186,-6.75222c-0.59094,0.35671 -1.74972,-0.45526 -2.56795,-0.51093c-0.77158,-0.05249 -1.80553,0.68437 -2.50047,1.33888l-0.52071,0.45437c0,0 -0.01231,-0.04743 -0.03106,-0.12562zM263.06685,137.26951c1.90279,-1.58966 4.6084,-2.89032 7.01989,-2.63156c1.09231,0.11723 1.41979,1.5504 1.32711,2.91254c-0.18074,2.65663 0.47568,7.839 -2.25534,9.15265c-0.48115,0.23143 -1.88945,-0.12855 -2.43768,-0.16585c-1.91237,-0.13011 -4.31031,-0.40252 -5.23024,-2.31501c-0.54553,-1.13416 0.28964,-4.25718 0.37592,-5.52542c0,0 0.05715,-0.84006 0.84511,-0.90767z" data-paper-data="{&quot;index&quot;:null}" fill="#18c6ff" stroke="none" stroke-width="0.5" stroke-linecap="butt"/><path d="M266.99472,135.31147c0.81822,0.05567 2.80133,0.54688 2.80133,0.54688c0,0 -0.46168,8.77172 -0.47659,8.93448c-0.00074,0.00813 -2.26489,-0.14347 -2.46267,-0.15692c-1.01655,-0.06916 -3.28678,-0.23038 -3.44954,-0.2453c-0.00412,-0.00039 0.08484,-1.37481 0.09147,-1.47239c0.08666,-1.27376 0.2914,-3.74792 0.2914,-3.74792c0,0 2.43303,-3.91131 3.2046,-3.85882z" data-paper-data="{&quot;noHover&quot;:false,&quot;origItem&quot;:[&quot;Path&quot;,{&quot;applyMatrix&quot;:true,&quot;segments&quot;:[[[515.49306,341.5323],[0.04917,0.15701],[0,2.61264]],[[515.49306,349.37022],[0,-2.61264],[0,0.20016]],[[515.49306,352.37022],[-0.00844,-0.0002],[0.33438,0.00784]],[[515.60246,351.37279],[-0.32053,0.09557],[0.92664,-0.27628]],[[522.49306,352.37022],[-2.08504,0],[0.4057,0]],[[527.49306,352.37022],[-0.00039,0.0167],[0.00784,-0.33438]],[[526.49563,352.26082],[0.09557,0.32053],[-0.75555,-2.53413]],[[526.80695,338.39],[-0.14773,4.27747],[-1.15693,0.81042]],[[521.49306,337.70356],[1.67827,0],[-1.5826,0]],[[516.57394,340.78444],[1.32792,-1.43284],[0,0]],[515.57394,341.78444]],&quot;closed&quot;:true}],&quot;index&quot;:null}" fill="#ffffff" stroke="none" stroke-width="0.5" stroke-linecap="butt"/><path d="M209.09317,135.73125l4.88541,3.24087c0,0 3.52769,1.02112 5.45275,2.40692c1.92503,1.38581 1.8762,1.8203 2.57863,3.37479c0.70243,1.55449 0.50151,1.7 -0.13788,2.02657c-0.63937,0.32658 -3.04574,1.09353 -4.88735,0.54005c-1.84161,-0.5535 -2.61805,-2.79578 -2.61805,-2.79578l-0.41746,-5.49637" data-paper-data="{&quot;index&quot;:null}" fill="none" stroke="#f6b09a" stroke-width="3" stroke-linecap="round"/><path d="M254.45129,140.14864c0.55901,0.03803 1.04953,0.29892 1.39133,0.69027c0.34193,0.39053 0.53434,0.91147 0.49638,1.46953c-0.03797,0.55806 -0.29918,1.04815 -0.69084,1.38877c-0.39165,0.34144 -0.913,0.5335 -1.47201,0.49547c-0.55894,-0.03803 -1.04947,-0.29892 -1.39133,-0.69027c-0.34185,-0.39052 -0.53428,-0.91148 -0.49632,-1.46954c0.03797,-0.55806 0.29918,-1.04814 0.69078,-1.38876c0.39173,-0.34144 0.91307,-0.53349 1.47201,-0.49547z" data-paper-data="{&quot;index&quot;:null}" fill="#000000" stroke="none" stroke-width="1.05702" stroke-linecap="butt"/><path d="M276.9482,111.23985c1.24239,13.60378 -1.41077,14.1921 -8.93411,18.00829c-10.96212,5.56052 -24.65624,3.35217 -36.24087,7.46118c-3.0418,1.07891 -10.36117,-2.54327 -13.58122,-2.76235c-6.58594,-0.44807 -9.98181,-5.4078 -9.87253,-11.03272c0.24107,-12.40728 6.33365,-12.04094 12.91958,-11.59287c0,0 7.16628,1.69444 9.40826,5.71011c0,0 11.19913,-15.71942 21.96591,-17.02305c13.85985,-1.6781 23.44281,1.46207 24.33501,11.2314z" data-paper-data="{&quot;index&quot;:null}" fill="#7100f3" stroke="none" stroke-width="0" stroke-linecap="butt"/><path d="M273.82004,118.73929c-0.33496,4.92337 -1.90449,8.53779 -11.59208,8.16713c-10.22699,-0.39131 -10.71406,-4.73857 -10.37909,-9.66194c0.33496,-4.92337 5.52493,-8.57991 11.59209,-8.16713c6.06716,0.41278 10.71405,4.73857 10.37908,9.66194z" data-paper-data="{&quot;index&quot;:null}" fill="#ffffff" stroke="none" stroke-width="0" stroke-linecap="butt"/><path d="M267.45947,111.51705l0.14488,3.21044l-4.88021,0.0746l0.13597,7.94359l-4.11635,0.20462l0.00857,-11.29274z" data-paper-data="{&quot;index&quot;:null,&quot;origRot&quot;:0}" fill="#ffea12" stroke="#7100f3" stroke-width="1" stroke-linecap="butt"/><path d="M285.47,160.88181l-5.95223,10.69704l-2.5781,-0.50191l-8.83534,-4.51946l-26.74714,4.38431l-3.90029,-0.26536l-2.7041,-3.44925l-4.3822,-12.37975l1.41068,-1.53666l8.80655,9.74197l14.41165,-0.65215l11.59699,-2.47628l9.81039,4.5858l6.52927,-4.78024z" data-paper-data="{&quot;index&quot;:null}" fill="#000000" stroke="#ff0000" stroke-width="0" stroke-linecap="round"/><path d="M229.79583,134.60687c0.90519,0.06158 2.25302,1.78622 2.28941,2.13629c1.41071,1.61856 2.59131,4.04057 2.77285,6.18429c0.05816,0.68704 -1.7864,4.14511 -2.1869,4.60972c-2.04473,1.37833 -4.77608,2.50276 -5.69744,-0.17209c-0.21445,-0.62261 0.94424,-3.15528 0.98958,-3.82166c0.15479,-2.27517 0.30958,-4.55033 0.46437,-6.82551c0,0 0.02133,-0.31353 0.20136,-0.61174l-0.13502,-0.36333c0,0 0.08292,-1.21884 1.30177,-1.13592z" data-paper-data="{&quot;index&quot;:null}" fill="#8e4108" stroke="none" stroke-width="0.5" stroke-linecap="butt"/><path d="M273.22556,124.20107c6.20135,0.50811 14.90347,7.00394 14.00577,9.71189c-0.24284,0.73254 -36.48288,-0.09482 -47.07913,0.23132c-5.1499,0.15852 -15.55607,2.69261 -15.31322,1.96009c0.89773,-2.70795 5.54781,-7.96621 10.5399,-9.07064c6.0327,-1.33466 22.67694,-4.07556 37.84671,-2.83265z" data-paper-data="{&quot;index&quot;:null}" fill="#4f05a3" stroke="none" stroke-width="0" stroke-linecap="butt"/><path d="M226.63816,136.67598l27.6507,-3.49951l31.40496,0.10069" data-paper-data="{&quot;index&quot;:null}" fill="none" stroke="#ffffff" stroke-width="4.5" stroke-linecap="round"/><path d="M260.71932,139.68354c-0.21725,1.94253 -2.15979,1.7253 -2.15979,1.7253l-1.71041,-1.19689c-0.76834,-0.70532 -1.53666,-1.41068 -2.30501,-2.11599c-4.36769,-4.27408 -11.9084,-2.16019 -16.79057,0.2055c0,0 -1.75904,0.85234 -2.61138,-0.90669c-0.85234,-1.75903 0.90669,-2.61137 0.90669,-2.61137c6.521,-3.15978 15.12348,-4.89814 21.13898,0.43271c0.76834,0.70532 2.16652,1.83952 2.16652,1.83952c0,0 1.58227,0.68539 1.36501,2.62794z" data-paper-data="{&quot;index&quot;:null}" fill="#000000" stroke="none" stroke-width="0.5" stroke-linecap="butt"/><path d="M273.06001,133.59561c0.83709,1.76634 -0.92926,2.60344 -0.92926,2.60344l-2.26987,0.09536c-2.74741,-0.18692 -4.12398,0.27217 -5.1943,2.87839c0,0 -0.74257,1.80812 -2.55067,1.06556c-1.80814,-0.74256 -1.06556,-2.55067 -1.06556,-2.55067c1.66804,-4.06163 6.39099,-4.95273 6.39099,-4.95273c0,0 4.78158,-0.90563 5.61869,0.86071z" data-paper-data="{&quot;index&quot;:null}" fill="#000000" stroke="none" stroke-width="0.5" stroke-linecap="butt"/><path d="M269.01607,139.27848c0.48381,0.03292 0.90835,0.2587 1.20419,0.59743c0.29594,0.338 0.46248,0.78887 0.42962,1.27187c-0.03286,0.483 -0.25893,0.90715 -0.59792,1.20195c-0.33897,0.29552 -0.79019,0.46175 -1.27401,0.42883c-0.48376,-0.03291 -0.90829,-0.25871 -1.20418,-0.59744c-0.29586,-0.33799 -0.46242,-0.78886 -0.42956,-1.27185c0.03286,-0.483 0.25892,-0.90716 0.59787,-1.20196c0.33904,-0.29552 0.79023,-0.46174 1.27401,-0.42882z" data-paper-data="{&quot;index&quot;:null}" fill="#000000" stroke="none" stroke-width="1.05702" stroke-linecap="butt"/><path d="M256.78189,149.9801c0.30685,-1.38339 0.34357,-3.13843 0.82629,-4.21211c1.06633,-2.37183 3.85154,-3.32049 6.23344,-3.15844c7.99233,0.54376 20.22432,4.4449 19.55639,14.26237c-0.2568,2.8895 -0.97974,5.37338 -3.42335,7.21517c-1.19734,0.90247 -3.29302,0.79647 -4.72071,0.8418c-4.44418,0.14111 -9.57392,0.40478 -13.89681,-0.76989c-3.7641,-1.27727 -7.50079,-1.11763 -10.31644,-4.59157c-1.9792,-2.44193 -1.38914,-6.77387 0.41494,-9.03251c0.87192,-1.0916 3.66069,-0.71884 4.91082,-0.63378c0,0 0.17327,0.01179 0.41545,0.07895z" fill="#f991fd" stroke="none" stroke-width="0.5" stroke-linecap="butt"/></g><g data-paper-data="{&quot;index&quot;:null}" stroke-linecap="butt"><path d="M226.15324,176.04585c2.72958,-0.31775 10.80256,4.47862 19.70439,7.27177c4.3617,1.36859 18.68312,5.35627 18.31864,6.67145c-0.81531,2.94194 -1.29379,10.50483 -2.30402,10.35938c-10.48513,-1.50978 -23.73511,-1.75174 -34.86794,-4.38629c-3.58211,-0.84768 -11.10239,-7.10404 -9.60372,-12.01581c1.49867,-4.91176 3.66942,-7.30874 8.75266,-7.9005z" fill="#7100f3" stroke="none" stroke-width="0"/><g><path d="M295.86699,211.82363c4.34086,4.17516 6.52213,10.92316 -0.18181,18.14069c-7.91236,7.67403 -12.84478,8.95577 -17.92252,5.29131c-4.76201,-4.0525 -7.3771,-10.79608 1.21641,-18.69191c6.37345,-7.10831 8.2645,-9.55226 16.88794,-4.74012z" data-paper-data="{&quot;origRot&quot;:0}" fill="#ffffff" stroke="none" stroke-width="0"/><path d="M287.64698,204.07838c4.90885,3.89175 1.97447,3.95563 -5.75696,13.58297c-6.78679,8.45107 -7.6406,9.9887 -12.28102,6.6638c-4.14805,-2.97211 1.72126,-7.91751 5.99956,-12.98334c4.27826,-5.06584 9.17201,-9.53591 12.03844,-7.26342z" data-paper-data="{&quot;origRot&quot;:0}" fill="#ffffff" stroke="none" stroke-width="0"/><path d="M279.58309,204.14197c6.68279,4.77376 -2.9632,13.10185 -6.17998,15.04866c-3.21679,1.9468 -8.02913,-6.6923 -12.28135,-13.71847c-4.25223,-7.02616 -9.01723,-13.27104 -1.87483,-16.247c5.12169,-2.13402 8.56732,2.04684 11.44682,5.55952c3.05027,3.72099 5.47366,6.91732 8.88933,9.35726z" fill="#7100f3" stroke="none" stroke-width="0"/><path d="M288.83634,230.39652l-2.67787,-2.08614l3.28812,-3.97073l-6.47323,-5.34043l2.65965,-3.44645l9.06394,7.75417z" data-paper-data="{&quot;index&quot;:null,&quot;origRot&quot;:0}" fill="#ffea12" stroke="#7100f3" stroke-width="1"/></g></g></g></g></svg>