<svg version="1.1" xmlns="http://www.w3.org/2000/svg" xmlns:xlink="http://www.w3.org/1999/xlink" width="143.7336" height="143.73361" viewBox="0,0,143.7336,143.73361"><defs><linearGradient x1="240" y1="110.13322" x2="240" y2="249.86682" gradientUnits="userSpaceOnUse" id="color-1"><stop offset="0" stop-color="#3c94ed"/><stop offset="1" stop-color="#337fcc"/></linearGradient><linearGradient x1="304.29861" y1="166.69431" x2="241.8827" y2="186.03633" gradientUnits="userSpaceOnUse" id="color-2"><stop offset="0" stop-color="#2154ad"/><stop offset="1" stop-color="#2c7de7"/></linearGradient><linearGradient x1="204.70608" y1="139.20251" x2="211.79858" y2="162.42771" gradientUnits="userSpaceOnUse" id="color-3"><stop offset="0" stop-color="#fff007"/><stop offset="1" stop-color="#dcad35"/></linearGradient><linearGradient x1="263.03517" y1="130.83681" x2="263.03517" y2="173.25955" gradientUnits="userSpaceOnUse" id="color-4"><stop offset="0" stop-color="#ffae82"/><stop offset="1" stop-color="#db8b67"/></linearGradient></defs><g transform="translate(-168.1332,-108.13321)"><g data-paper-data="{&quot;isPaintingLayer&quot;:true}" fill-rule="nonzero" stroke-linejoin="miter" stroke-miterlimit="10" stroke-dasharray="" stroke-dashoffset="0" style="mix-blend-mode: normal"><path d="M240,110.13322c19.2752,0 36.74421,7.8268 49.3899,20.47689c12.64989,12.64569 20.4769,30.11449 20.4769,49.38991c0,19.27542 -7.82701,36.74421 -20.4769,49.38991c-12.64569,12.65009 -30.1147,20.4769 -49.3899,20.4769c-19.27542,0 -36.74442,-7.8268 -49.39012,-20.4769c-12.64989,-12.64569 -20.47668,-30.11449 -20.47668,-49.38991c0,-19.27542 7.82679,-36.74421 20.47668,-49.38991c12.64569,-12.6501 30.11471,-20.47689 49.39012,-20.47689z" data-paper-data="{&quot;origPos&quot;:null}" fill="url(#color-1)" stroke="#23568d" stroke-width="4" stroke-linecap="butt"/><g><g stroke-width="0"><path d="M241.4794,220.64095c-19.17382,5.94176 -39.27319,-3.94325 -44.89319,-22.07879c-5.62,-18.13554 5.36754,-37.65403 24.54136,-43.59579c19.17382,-5.94176 39.2732,3.94324 44.8932,22.07878c5.62,18.13554 -5.36755,37.65404 -24.54137,43.5958z" data-paper-data="{&quot;index&quot;:null}" fill="#2c7de7" stroke="#000000" stroke-linecap="butt"/><path d="M236.87045,226.60239c0,0 -3.95086,-4.4951 -2.45485,-6.38806c3.20782,-4.05897 18.17411,-10.70901 18.17411,-10.70901c8.37558,-2.5955 15.87242,-2.41774 17.22379,1.94309c1.05838,3.41533 1.12473,5.0664 -1.32497,7.67094c-2.92748,3.11252 -6.92362,4.91315 -11.00506,6.17794c-8.37557,2.5955 -19.26166,5.66593 -20.61303,1.3051z" data-paper-data="{&quot;index&quot;:null}" fill="#ffffff" stroke="none" stroke-linecap="butt"/><path d="M245.65151,216.70586c2.30427,0.71528 1.58763,6.65681 1.58763,6.65681c1.35137,4.36083 -9.36334,7.98426 -17.73891,10.57976c-4.08144,1.26479 -8.39553,2.03941 -12.57007,1.12774c-3.49324,-0.76289 -4.37214,-2.16215 -5.43052,-5.57748c-1.35137,-4.36083 4.73126,-8.74673 13.10683,-11.34223c0,0 16.10412,-2.97834 21.04506,-1.44459z" data-paper-data="{&quot;index&quot;:null}" fill="#ffffff" stroke="none" stroke-linecap="butt"/><path d="M207.17424,196.38001c5.53756,-1.71603 10.69128,1.6973 12.34296,7.0272c1.65168,5.3299 -0.42858,15.38078 -5.96615,17.09681c-5.53757,1.71603 -15.92002,-1.7254 -17.5717,-7.05531c-1.65168,-5.3299 5.65732,-15.35268 11.19489,-17.06871z" data-paper-data="{&quot;index&quot;:null}" fill="#ffffff" stroke="none" stroke-linecap="butt"/><path d="M241.63566,159.07799c5.65167,-3.28601 13.18848,-0.61633 16.83395,5.96291c2.38115,4.29745 6.15294,7.62861 4.41744,12.22492c-1.04249,2.76093 -5.49868,4.15432 -8.04998,5.63771c-5.65167,3.28601 -13.18849,0.61633 -16.83396,-5.96291c-3.64547,-6.57924 -2.01911,-14.57661 3.63255,-17.86262z" data-paper-data="{&quot;origRot&quot;:0,&quot;index&quot;:null}" fill="#000000" stroke="none" stroke-linecap="butt"/><path d="M275.85349,183.06446l-30.09759,10.15112l-2.80691,-4.62493l-1.64889,-4.43431l0.16583,-3.89773l29.76924,-10.32411l-8.7667,-13.21812l42.17969,11.10594l-27.45266,30.21159z" data-paper-data="{&quot;index&quot;:null}" fill="url(#color-2)" stroke="#000000" stroke-linecap="round"/><path d="M224.11469,166.4573c5.65167,-3.28601 13.1885,-0.61632 16.83396,5.96292c3.64547,6.57924 2.01912,14.5766 -3.63255,17.86261c-5.65167,3.28601 -13.1885,0.61633 -16.83396,-5.96291c-3.64547,-6.57924 -2.01912,-14.5766 3.63255,-17.86262z" data-paper-data="{&quot;origRot&quot;:0,&quot;index&quot;:null}" fill="#000000" stroke="none" stroke-linecap="butt"/><g data-paper-data="{&quot;index&quot;:null}" stroke-linecap="butt"><path d="M213.77339,158.66877l17.90375,-5.54202c0,0 1.44092,3.97194 -13.42387,12.68663c-16.26113,9.53332 -18.03788,5.10915 -18.03788,5.10915z" fill="#2460bf" stroke="none"/><path d="M231.0598,154.0276c0,0 -3.47665,4.46487 -13.53311,10.17476c-10.54365,6.21041 -16.68891,7.13023 -16.68891,7.13023c0,0 -3.36942,-2.90946 -8.67249,-7.21016c-4.38621,-3.55713 -11.90097,-7.601 -11.90097,-7.601l20.87411,-2.64836l0.9742,-15.44613l15.1916,6.49748l13.40555,-15.598c0,0 -1.83084,7.5359 -1.01777,14.59859c0.86232,7.49054 1.36777,10.10258 1.36777,10.10258z" fill="url(#color-3)" stroke="none"/><path d="M210.43815,149.76789c1.83554,-0.94575 4.5781,0.72246 6.1257,3.72606c1.54758,3.0036 1.31417,6.20518 -0.52136,7.15093c-1.83554,0.94575 -4.5781,-0.72247 -6.1257,-3.72607c-1.54758,-3.0036 -1.31417,-6.20517 0.52136,-7.15092z" fill="#f12e2e" stroke="#a40000"/><path d="M190.42227,162.26311c0.6074,-1.27868 3.85783,-1.15988 6.26029,1.05764c2.40246,2.21753 3.47217,5.34452 2.74106,6.55673c-0.39398,0.65323 -3.66422,-1.02921 -5.27735,-2.61164c-1.60808,-1.57749 -4.01986,-4.37991 -3.72401,-5.00272z" fill="#dc1d1d" stroke="#a40000"/><path d="M231.43613,145.9c0.31403,3.06597 -0.22024,5.79914 -0.86679,5.82587c-1.4144,0.05848 -3.21585,-2.99938 -3.47885,-6.25823c-0.26299,-3.25884 0.89201,-5.72887 2.29981,-5.58041c0.67697,0.07139 1.72872,2.91671 2.04583,6.01277z" data-paper-data="{&quot;index&quot;:null}" fill="#dc1d1d" stroke="#a40000"/><path d="M213.2558,153.72536c-0.65743,0.20373 -1.35556,-0.16407 -1.55929,-0.82151c-0.20373,-0.65744 0.16407,-1.35557 0.82151,-1.5593c0.65744,-0.20373 1.35557,0.16408 1.5593,0.82151c0.20373,0.65743 -0.16409,1.35556 -0.82152,1.55929z" fill="#ffa4a4" stroke="none"/><path d="M228.52885,142.89215c-0.11061,-0.74267 0.10074,-1.38955 0.47207,-1.44485c0.37133,-0.0553 0.76203,0.5019 0.87264,1.24456c0.11061,0.74266 -0.10073,1.38955 -0.47206,1.44485c-0.37133,0.05531 -0.76203,-0.50191 -0.87264,-1.24457z" fill="#f57c7c" stroke="none"/><path d="M192.81812,162.56547c0.2569,-0.27376 0.90902,-0.07917 1.45655,0.43464c0.54754,0.51381 0.78313,1.15225 0.52623,1.42602c-0.2569,0.27376 -0.90903,0.07917 -1.45655,-0.43464c-0.54754,-0.51381 -0.78313,-1.15225 -0.52622,-1.42602z" fill="#f57c7c" stroke="none"/></g></g><g fill="none" stroke="#ffffff" stroke-width="2" stroke-linecap="round"><path d="M234.69361,182.64087l2.44444,-7.11111" data-paper-data="{&quot;origPos&quot;:null}"/><path d="M239.80471,181.19642l-7.33333,-4" data-paper-data="{&quot;origPos&quot;:null}"/></g><g fill="none" stroke="#ffffff" stroke-width="2" stroke-linecap="round"><path d="M244.16498,177.95289l2.44444,-7.11111" data-paper-data="{&quot;origPos&quot;:null}"/><path d="M249.27608,176.50844l-7.33333,-4" data-paper-data="{&quot;origPos&quot;:null}"/></g></g><path d="M260.45493,130.83681h0.28791c7.09417,4.33493 10.92822,6.69966 11.46564,7.16562l-13.61553,17.34136v0.43129l6.44829,-0.57442c0.10823,-3.94042 0.14291,-6.3766 0.14291,-7.30852c0.10823,0 0.14314,-0.03677 0.14314,-0.14314c3.04714,-0.10823 5.26872,-0.14314 6.7362,-0.14314h1.5778c0.46597,0 1.18143,-0.03654 2.1499,-0.14291l0.14314,0.28605c-0.17969,3.40301 -0.28791,5.33854 -0.28791,5.87596c-0.10637,0 -0.14314,0.03677 -0.14314,0.14314l0.28791,0.14314h5.73282c0.17805,0.03654 0.28628,0.10823 0.28628,0.28605l-0.71733,10.03284l-0.28605,0.14314h-5.87596c-0.10823,1.04015 -0.25137,3.9772 -0.43105,8.74318c-0.17805,0.10823 -0.32119,0.14314 -0.42942,0.14314c-7.13071,-0.17991 -10.92799,-0.28628 -11.46564,-0.28628l-0.14291,-0.28605v-7.02434l-14.18809,0.71733c-2.68754,-6.80789 -4.01374,-10.28235 -4.01374,-10.46226z" data-paper-data="{&quot;origPos&quot;:null}" fill="url(#color-4)" stroke="#ab7356" stroke-width="2.5" stroke-linecap="butt"/></g></g></svg>