<svg version="1.1" xmlns="http://www.w3.org/2000/svg" xmlns:xlink="http://www.w3.org/1999/xlink" width="129.43747" height="263.05256" viewBox="0,0,129.43747,263.05256"><g transform="translate(-177.82952,-38.83773)"><g data-paper-data="{&quot;isPaintingLayer&quot;:true}" fill-rule="nonzero" stroke-linejoin="miter" stroke-miterlimit="10" stroke-dasharray="" stroke-dashoffset="0" style="mix-blend-mode: normal"><g data-paper-data="{&quot;index&quot;:null,&quot;origRot&quot;:0}" stroke="none" stroke-width="0" stroke-linecap="butt"><path d="M255.93942,191.80559c-3.97035,-4.72069 -1.67214,-18.79204 4.57536,-28.85169c6.24752,-10.05963 13.27195,-18.33108 13.27195,-18.33108l12.03215,13.97721c0,0 -8.3783,17.38522 -13.40325,25.47628c-6.24751,10.05962 -12.50589,12.44993 -16.47622,7.72925z" data-paper-data="{&quot;origRot&quot;:0,&quot;origPos&quot;:null}" fill="#64ca00"/><g data-paper-data="{&quot;origPos&quot;:null}" fill="#ffffff"><path d="M283.6179,147.13773c-7.28132,-7.88443 -15.974,-18.19852 -9.52926,-28.31451c4.67542,-7.33877 18.45172,-9.77385 24.28161,0.15577c6.36173,10.83547 13.28751,19.08684 5.30923,29.45387c-7.44962,9.68002 -12.78025,6.58933 -20.06158,-1.2951z" data-paper-data="{&quot;origRot&quot;:0,&quot;origPos&quot;:null}"/><path d="M277.88076,154.45557c-5.6158,-6.09745 -12.88263,-11.53879 -9.15832,-17.12672c4.16636,-6.25119 5.40203,-4.26612 14.40118,6.01178c10.2517,11.70844 13.35912,10.91553 9.03347,18.07459c-2.52588,4.1804 -8.66051,-0.8622 -14.27634,-6.95965z" data-paper-data="{&quot;origRot&quot;:0,&quot;origPos&quot;:null}"/></g></g><g data-paper-data="{&quot;origRot&quot;:0}" stroke="none" stroke-width="0" stroke-linecap="butt"><path d="M266.07583,254.95985c1.80822,5.70127 7.18477,5.5127 7.39118,6.89724c0.83514,5.60192 0.02916,10.27278 -5.63459,16.05215c-7.01581,7.15906 -13.38,9.63754 -21.9686,7.57208c-5.84958,-1.40676 -2.54685,-6.95873 -2.69404,-15.17133c-0.0528,-2.9469 -0.49279,-6.60875 -1.90371,-13.75452c-1.76403,-8.93408 -2.66929,-26.40513 -2.66929,-26.40513c0,0 4.63632,-3.58662 9.46194,-6.20599c4.79253,-2.52086 10.30845,-2.27566 10.30845,-2.27566c0,0 3.52871,20.11197 7.70863,33.29114z" data-paper-data="{&quot;origPos&quot;:null}" fill="#2a2a84"/><path d="M280.3588,279.85103c1.34812,4.9738 -1.67462,9.21537 -4.78287,12.33333c-2.03699,2.04335 -13.17396,7.31361 -19.84122,5.72007c-2.06989,-0.49475 -4.29441,-2.90182 -4.29441,-2.90182c0,0 -4.3816,3.37895 -4.87201,1.51348c-0.38929,-1.48085 -1.09707,-3.97923 -0.2714,-5.281c3.55407,-5.60358 14.0906,-11.06211 19.13568,-13.68004c6.92577,-3.59385 13.60846,-2.56587 14.92623,2.29599z" data-paper-data="{&quot;origPos&quot;:null}" fill="#dbbb7b"/><path d="M280.40298,272.70146c0.31795,6.47574 -2.76533,12.82239 -10.595,16.88526c-7.82968,4.06288 -17.90852,2.12569 -17.90852,2.12569c0,0 -5.55645,3.35426 -6.21655,1.40152c-1.36621,-4.04168 -3.26229,-10.80911 -2.18324,-11.62249c3.98357,-3.00272 3.40296,-1.80273 8.46178,-6.28368c3.27533,-2.90119 7.95182,-10.68338 11.59317,-12.57292c7.82968,-4.06288 16.32483,-0.59584 16.84833,10.06656z" data-paper-data="{&quot;origPos&quot;:null}" fill="#875630"/></g><g data-paper-data="{&quot;origRot&quot;:0}" stroke="none" stroke-width="0" stroke-linecap="butt"><path d="M232.73983,263.18633c-0.56794,6.17627 4.11341,9.83994 3.77588,11.17425c-1.3656,5.39873 -3.79274,8.83132 -10.79813,9.75837c-8.67775,1.14835 -15.05717,-1.254 -21.65568,-9.13614c-4.49416,-5.36843 0.40178,-7.78031 3.32762,-14.92866c1.04987,-2.56501 2.0334,-6.01869 3.47893,-13.15121c1.80727,-8.91751 8.2946,-24.69669 8.2946,-24.69669c0,0 7.3556,1.78055 12.04807,4.24626c3.70326,1.94589 9.46493,7.05798 9.46493,7.05798c0,0 -6.62337,15.39857 -7.93624,29.67581z" data-paper-data="{&quot;origPos&quot;:null}" fill="#2a2a84"/><path d="M235.73935,294.69676c-0.69221,5.22504 -4.86101,6.71218 -8.68558,7.17487c-2.50644,0.30319 -14.01681,-3.10055 -19.14284,-9.21096c-1.59141,-1.89704 -2.60474,-5.54421 -2.60474,-5.54421c0,0 -5.01367,-0.21946 -4.741,-2.16834c0.21645,-1.54703 0.5379,-4.19338 1.72983,-4.72241c5.13068,-2.27728 16.19606,0.5378 21.49594,1.88203c7.27557,1.84534 12.62504,7.48164 11.94839,12.58908z" data-paper-data="{&quot;origPos&quot;:null}" fill="#dbbb7b"/><path d="M238.43427,288.59629c-2.13391,5.7802 -7.13696,9.02978 -15.36208,6.94363c-8.22512,-2.08614 -16.14944,-10.91863 -16.14944,-10.91863c0,0 -6.01213,-1.07655 -5.85255,-3.22098c0.33029,-4.43842 1.21909,-11.59164 2.44683,-11.52153c4.53249,0.25896 3.58856,0.87504 9.59259,0.63122c3.88732,-0.15787 10.79029,-3.50508 14.61556,-2.53489c8.22513,2.08614 14.22262,11.10392 10.7091,20.62116z" data-paper-data="{&quot;origPos&quot;:null}" fill="#875630"/></g><g data-paper-data="{&quot;origPos&quot;:null}"><path d="M262.83821,197.83845c0.33032,31.84109 -11.05939,40.90379 -23.86948,40.90379c-12.8101,0 -23.3634,-15.09524 -23.3634,-30.37707c0,-16.57824 1.1121,-29.77535 8.28377,-40.32703c5.34311,-7.86133 13.04416,-4.18589 19.97161,-4.18589c12.8101,0 18.65373,2.77486 18.9775,33.98625z" data-paper-data="{&quot;origPos&quot;:null}" fill="#2a2a84" stroke="none" stroke-width="0" stroke-linecap="butt"/><path d="M262.83821,196.93617c0,0 -14.54423,3.00763 -24.79727,3.60917c-9.4045,0.55173 -18.89315,-5.11298 -18.89315,-5.11298c0,0 -0.83203,-20.74611 5.89114,-28.81314c4.39879,-5.27802 9.34569,-7.0065 15.70104,-7.27844c6.35535,-0.27194 13.26645,3.21685 16.46578,7.83812c7.55716,10.91598 5.63247,29.75727 5.63247,29.75727z" data-paper-data="{&quot;origPos&quot;:null}" fill="#64ca00" stroke="none" stroke-width="0" stroke-linecap="butt"/><path d="M251.12092,165.19259c0,0 1.80522,10.28653 2.16939,16.47158c0.46776,7.94426 -0.48917,22.87072 -0.48917,22.87072" data-paper-data="{&quot;origPos&quot;:null,&quot;origRot&quot;:0}" fill="none" stroke="#2a2a84" stroke-width="10" stroke-linecap="round"/><path d="M232.98027,165.95755c0,0 1.04575,10.61582 0.9593,16.83295c-0.11103,7.98543 -2.14012,22.56702 -2.14012,22.56702" data-paper-data="{&quot;origPos&quot;:null}" fill="none" stroke="#2a2a84" stroke-width="10" stroke-linecap="round"/><path d="M228.93174,202.50029c0,-3.40518 1.86986,-6.16564 4.17649,-6.16564c2.3066,0 4.1765,2.76046 4.1765,6.16564c0,3.40518 -1.86987,6.16563 -4.1765,6.16563c-2.3066,0 -4.17649,-2.76045 -4.17649,-6.16563z" data-paper-data="{&quot;origPos&quot;:null}" fill="#ffe84f" stroke="none" stroke-width="0" stroke-linecap="butt"/><path d="M248.98712,202.50029c0,-3.40518 1.80555,-6.16564 4.03282,-6.16564c2.22726,0 4.03282,2.76046 4.03282,6.16564c0,3.40518 -1.80556,6.16563 -4.03282,6.16563c-2.22726,0 -4.03282,-2.76045 -4.03282,-6.16563z" data-paper-data="{&quot;origPos&quot;:null}" fill="#ffe84f" stroke="none" stroke-width="0" stroke-linecap="butt"/></g><path d="M284.79002,91.55505c-0.55928,5.16872 -11.70905,11.71832 -20.4835,11.71832c-7.07045,0 -5.31783,-9.20422 -5.31783,-14.17099c0,-4.96676 13.8562,-3.8834 20.92666,-3.8834c7.07045,0 5.2367,2.99041 4.87468,6.33608z" data-paper-data="{&quot;origPos&quot;:null}" fill="#4c9406" stroke="none" stroke-width="0" stroke-linecap="butt"/><path d="M214.22382,151.41955c0,0 -1.41147,2.0346 -2.97465,-0.34318c-1.56318,-2.37777 -2.69564,-7.87632 -0.43286,-10.50226c2.70652,-3.14088 2.00443,-13.70493 3.56761,-11.32715c0,0 6.00435,1.77585 6.46774,6.8055c0,0 2.53251,14.52477 1.49473,16.84799c0,0 -1.47914,2.29751 -5.33545,1.91596c-2.08941,-0.20672 -2.78712,-3.39685 -2.78712,-3.39685z" data-paper-data="{&quot;origRot&quot;:0,&quot;origPos&quot;:null}" fill="#5a2c0a" stroke="none" stroke-width="0" stroke-linecap="butt"/><path d="M217.41441,94.66631c4.24832,1.37228 36.67631,-2.95441 42.38194,-2.51563c8.44138,0.64917 6.10766,11.19183 6.70355,22.8607c0.68513,13.41668 -1.58938,28.94336 -0.85383,38.23131c0.78893,9.96199 -0.85772,18.45065 -6.63073,23.23714c-15.82167,1.30524 -12.44365,-6.35017 -19.71603,-9.65479c-6.15948,-3.13878 -10.1336,-6.21923 -16.74881,-13.9516c-5.02158,-5.86962 -3.83749,-10.73382 -6.9644,-17.28379c-0.95852,-2.00781 -2.09509,-3.07887 -2.28666,-3.07887c-10.21262,0 -15.82688,-11.67267 -15.82688,-22.70992c0,-11.03726 3.64469,-19.98472 9.35544,-19.98472c5.71075,0 9.10925,4.37304 10.58642,4.85019z" data-paper-data="{&quot;origPos&quot;:null}" fill="#ffdebd" stroke="none" stroke-width="0" stroke-linecap="butt"/><path d="M264.86457,101.76053c0.34699,6.66153 -1.79042,12.30296 -4.77402,12.60048c-2.98361,0.29753 -5.68358,-4.86149 -6.03057,-11.52301c-0.34699,-6.66153 1.79042,-12.30294 4.77402,-12.60048c2.98361,-0.29753 5.68359,4.86149 6.03058,11.52301z" data-paper-data="{&quot;origPos&quot;:null,&quot;origRot&quot;:0}" fill="#ffffff" stroke="none" stroke-width="0" stroke-linecap="butt"/><path d="M225.43155,105.84183c0.37242,6.64602 4.50115,11.32963 2.19091,12.88372c-1.17691,0.7917 -5.69228,0.19863 -7.46071,-2.25325c-1.76844,-2.45187 -2.48426,-5.51475 -2.48426,-11.53507c0,-6.02032 -0.01644,-11.85215 2.70112,-11.99084c11.44177,-0.58397 4.71661,6.89313 5.05295,12.89543z" data-paper-data="{&quot;origPos&quot;:null}" fill="#5a2c0a" stroke="none" stroke-width="0" stroke-linecap="butt"/><path d="M252.03952,108.57994c0.56226,6.63334 -1.39041,12.40154 -4.36138,12.88367c-2.97098,0.48213 -5.83525,-4.50443 -6.3975,-11.13776c-0.56226,-6.63334 1.39041,-12.40154 4.36138,-12.88367c2.97098,-0.48213 5.83525,4.50443 6.3975,11.13776z" data-paper-data="{&quot;origPos&quot;:null,&quot;origRot&quot;:0}" fill="#ffffff" stroke="none" stroke-width="0" stroke-linecap="butt"/><path d="M270.89863,54.73043c2.36001,20.36346 -0.48467,21.5215 -8.39201,28.04064c-11.52164,9.49894 -26.59275,7.57595 -38.89956,14.95234c-3.23144,1.93683 -11.46763,-2.76902 -14.98923,-2.76902c-7.20268,0 -11.2668,-7.12262 -11.56445,-15.60638c-0.65652,-18.71321 6.00306,-18.78579 13.20575,-18.78579c0,0 7.92678,1.8179 10.66482,7.63675c0,0 11.02724,-24.82512 22.65151,-27.89204c14.96369,-3.94799 25.62836,-0.20014 27.32317,14.4235z" data-paper-data="{&quot;origPos&quot;:null}" fill="#64ca00" stroke="none" stroke-width="0" stroke-linecap="butt"/><path d="M268.04871,66.34704c0,7.45015 -1.44091,13.05523 -12.01436,13.48969c-11.16216,0.45864 -12.01436,-6.03955 -12.01436,-13.48969c0,-7.45015 5.37901,-13.48969 12.01436,-13.48969c6.63534,0 12.01436,6.03955 12.01436,13.48969z" data-paper-data="{&quot;origPos&quot;:null}" fill="#ffffff" stroke="none" stroke-width="0" stroke-linecap="butt"/><path d="M285.18393,88.6936c-0.19696,1.16976 -38.74419,8.85687 -49.53462,10.49198c-5.24428,0.7947 -15.85502,0.21595 -15.65806,-0.95382c0.72808,-4.3242 2.76222,-11.23458 7.77979,-13.48969c6.06347,-2.72519 26.87977,-10.05603 42.44626,-9.72675c6.36349,0.13462 15.6947,9.35407 14.96662,13.67827z" data-paper-data="{&quot;origPos&quot;:null}" fill="#4c9406" stroke="none" stroke-width="0" stroke-linecap="butt"/><path d="M252.35781,74.8254l-2.1391,-16.7902l5.48576,-0.76526l-0.75735,12.92076l7.36827,-2.23572l-1.29645,5.05363z" data-paper-data="{&quot;origPos&quot;:null}" fill="#64ca00" stroke="none" stroke-width="0" stroke-linecap="butt"/><path d="M261.39774,165.37797c0,0.43438 -2.88406,2.81958 -6.25062,2.81958c-3.70177,0 -9.76774,1.16305 -9.76774,-3.63385c0,-4.7969 5.36573,-13.29983 9.06748,-13.29983c3.70177,0 6.95089,9.31719 6.95089,14.11408z" fill="#a10114" stroke="none" stroke-width="0" stroke-linecap="butt"/><path d="M254.07175,166.3115c-1.15759,2.82061 -2.23675,2.8033 -3.20998,1.90977c-0.97327,-0.89354 -1.51527,-2.2196 -0.35767,-5.04022c1.15759,-2.82061 3.27242,-6.45467 4.54972,-5.17417c1.27591,1.27911 0.17554,5.484 -0.98206,8.30464z" fill="#f4c4f6" stroke="none" stroke-width="0" stroke-linecap="butt"/><path d="M245.32303,165.27819c0,0 5.15401,0.50299 9.42081,0.42667c3.88083,-0.06939 7.0022,-2.29106 7.0022,-2.29106l-0.34183,4.29001c0,0 -3.56827,2.18898 -7.15948,2.19199c-4.25575,0.00357 -5.25197,-0.00327 -7.74858,-1.71198c-1.24841,-0.85443 -1.17311,-2.90562 -1.17311,-2.90562z" fill="#ffffff" stroke="none" stroke-width="0" stroke-linecap="butt"/><path d="M264.79138,150.5967c-0.36545,3.47239 -2.80159,4.09161 -4.22523,4.62575c-4.34496,1.63026 -7.99939,0.62006 -15.79479,-3.39572c-2.52388,-1.30016 -4.71021,-22.25296 1.0991,-17.91362c0,0 11.77675,6.48097 17.65726,6.01755c0,0 9.49213,-6.14671 12.4343,-5.87721c1.45917,0.13366 1.46872,4.36459 1.00839,6.50148c0,0 0.14981,6.21039 -1.89205,7.76194c-2.93639,2.92085 -5.04701,1.64881 -5.15278,2.65373z" data-paper-data="{&quot;origPos&quot;:null}" fill="#38291e" stroke="none" stroke-width="0" stroke-linecap="butt"/><path d="M275.465,125.80404c-0.4924,9.01769 1.11025,15.15888 -13.04838,14.81822c-6.52559,-0.15701 -12.80219,-5.80055 -12.80219,-13.79628c0,-7.99574 6.29532,-17.86399 12.80219,-18.56537c9.48092,-1.02195 13.83613,3.11646 13.04838,17.54342z" data-paper-data="{&quot;origPos&quot;:null}" fill="#ffdebd" stroke="none" stroke-width="0" stroke-linecap="butt"/><g data-paper-data="{&quot;origPos&quot;:null}" fill="none" stroke="#f6b09a" stroke-width="3.5" stroke-linecap="round"><path d="M203.74958,103.92504c0,0 2.91823,-2.35723 6.6522,1.6344c5.35514,5.72467 2.21085,15.49537 2.21085,15.49537" data-paper-data="{&quot;origPos&quot;:null}"/><path d="M206.42256,113.07389h5.90871" data-paper-data="{&quot;origPos&quot;:null}"/><path d="M211.76852,121.24947h-1.26615" data-paper-data="{&quot;origPos&quot;:null}"/></g><g data-paper-data="{&quot;origRot&quot;:0}" stroke="none" stroke-width="0" stroke-linecap="butt"><path d="M210.5687,179.87358c-4.64621,-8.51341 -12.21556,-26.59497 -12.21556,-26.59497l12.64517,-12.89964c0,0 6.63354,8.86783 12.41015,19.45252c5.77664,10.58471 7.429,24.82858 3.25141,29.19347c-4.17757,4.36489 -10.31457,1.43331 -16.09121,-9.15139z" data-paper-data="{&quot;origRot&quot;:0,&quot;origPos&quot;:null}" fill="#64ca00"/><g data-paper-data="{&quot;origPos&quot;:null}" fill="#ffffff"><path d="M180.99147,141.57332c-7.48998,-11.04246 -0.20192,-18.67314 6.64094,-28.93201c6.27079,-9.40121 19.90871,-5.76906 24.24039,1.96304c5.97092,10.65817 -3.17451,20.19332 -10.80066,27.42674c-7.62614,7.23346 -13.08704,9.85295 -20.08066,-0.45779z" data-paper-data="{&quot;origRot&quot;:0,&quot;origPos&quot;:null}"/><path d="M191.89927,155.53518c-3.99079,-7.52225 -0.92569,-6.45978 9.83919,-17.25048c9.44962,-9.4723 10.7733,-11.34558 14.64649,-4.74333c3.46224,5.90175 -4.0381,10.69824 -9.92061,16.2936c-5.88251,5.59537 -12.23475,10.09268 -14.56507,5.70022z" data-paper-data="{&quot;origRot&quot;:0,&quot;origPos&quot;:null}"/></g></g><path d="M242.35767,85.29858c1.45863,-0.45937 3.37663,-5.25593 3.37663,-5.25593c0,0 6.92963,8.51243 -1.29027,14.7973c-2.7049,1.22145 -5.15389,-1.81164 -6.07714,-3.95009c-1.35974,-3.14948 -1.95863,-8.41137 -1.95863,-8.41137c0,0 2.08504,0.95653 3.32961,2.00874c1.20641,1.01994 1.24949,1.29282 2.6198,0.81139z" data-paper-data="{&quot;index&quot;:null}" fill="#38291e" stroke="none" stroke-width="0" stroke-linecap="butt"/><path d="M260.31553,80.99159c1.40548,-0.21159 1.37693,-0.4881 2.24962,-2.02714c0.90031,-1.58773 2.61224,-3.49223 2.61224,-3.49223c0,0 0.76801,5.21967 0.28957,8.82808c-0.32486,2.45005 -1.85327,6.47619 -4.69612,6.6398c-9.28904,-1.91346 -4.9466,-13.24015 -4.9466,-13.24015c0,0 3.00866,3.56655 4.4913,3.29158z" data-paper-data="{&quot;index&quot;:null,&quot;origRot&quot;:0}" fill="#38291e" stroke="none" stroke-width="0" stroke-linecap="butt"/><path d="M246.33978,109.12016c0,-1.23911 0.72596,-2.24361 1.62151,-2.24361c0.89554,0 1.62153,1.0045 1.62153,2.24361c0,1.23911 -0.72597,2.24361 -1.62153,2.24361c-0.89554,0 -1.62151,-1.0045 -1.62151,-2.24361z" fill="#000000" stroke="none" stroke-width="0.5" stroke-linecap="butt"/><path d="M257.22703,105.74628c0,-1.23912 0.72597,-2.24361 1.62152,-2.24361c0.89554,0 1.62152,1.0045 1.62152,2.24361c0,1.23911 -0.72596,2.24361 -1.62152,2.24361c-0.89554,0 -1.62152,-1.0045 -1.62152,-2.24361z" fill="#000000" stroke="none" stroke-width="0.5" stroke-linecap="butt"/></g></g></svg>