<svg version="1.1" xmlns="http://www.w3.org/2000/svg" xmlns:xlink="http://www.w3.org/1999/xlink" width="152.4876" height="198.19662" viewBox="0,0,152.4876,198.19662"><g transform="translate(-167.49012,-98.35168)"><g data-paper-data="{&quot;isPaintingLayer&quot;:true}" fill-rule="nonzero" stroke-linejoin="miter" stroke-miterlimit="10" stroke-dasharray="" stroke-dashoffset="0" style="mix-blend-mode: normal"><path d="M259.47311,192.35015c-3.2225,-3.97555 -3.10018,-7.20705 -0.73977,-11.76774c2.36044,-4.56069 12.11175,-3.78056 15.26641,-1.88366c9.80437,5.89534 19.45117,14.98158 28.00625,21.22882c0.82425,0.6019 -4.11856,6.34604 -5.59125,9.02015c-0.65836,1.19543 -13.68914,-5.96022 -17.76546,-8.02931c-8.3194,-4.22279 -17.4458,-6.43351 -19.17621,-8.56827z" fill="#7100f3" stroke="none" stroke-width="0" stroke-linecap="butt"/><g stroke="none" stroke-width="0" stroke-linecap="butt"><path d="M290.37547,242.73557c1.70507,-9.72694 4.79431,-9.65285 14.33032,-10.11501c11.54739,-1.68816 15.13087,4.59462 15.27193,10.84597c-0.3592,6.25161 -4.46493,9.27064 -15.41059,10.57017c-9.82922,0.64974 -13.68977,-5.29919 -14.19165,-11.30111z" data-paper-data="{&quot;origRot&quot;:0}" fill="#ffffff"/><path d="M289.55004,231.47171c0.04455,-3.65769 6.6,-4.63568 13.22954,-4.76029c6.62956,-0.12464 14.16919,-1.55987 13.85911,3.53364c-0.34687,5.69806 -2.07859,5.39078 -12.91727,5.32672c-12.3473,-0.07294 -14.24773,2.16381 -14.17141,-4.10011z" data-paper-data="{&quot;origRot&quot;:0}" fill="#ffffff"/><path d="M294.68568,225.25428c0.26108,-4.18951 -0.6907,-8.08611 -1.65419,-12.80009c-0.90956,-4.45009 -1.98053,-9.76091 2.90593,-12.38926c6.81435,-3.66532 8.6548,3.9712 11.42491,11.70261c2.77014,7.73142 6.4386,16.91484 2.89893,18.18307c-3.53969,1.26823 -16.08637,3.50046 -15.57559,-4.69634z" fill="#7100f3"/></g><g><path d="M264.81827,180.17915c6.2529,9.06678 3.48023,25.56453 1.13848,37.4033c-2.15862,10.91298 -14.32491,13.83633 -28.15618,11.10046c-6.83424,-1.35183 -11.33035,-1.70271 -15.26651,-6.98919c-3.93616,-5.28648 -1.55726,-13.37394 -2.27881,-16.57513c-0.97644,-4.33201 -2.4814,-9.50161 -1.0692,-16.09587c2.23982,-8.21111 6.74548,-18.60545 20.57675,-15.86959c0,0 20.39687,0.27102 25.05548,7.02606z" data-paper-data="{&quot;origPos&quot;:null,&quot;index&quot;:null}" fill="#372b45" stroke="none" stroke-width="0" stroke-linecap="butt"/><path d="M243.15751,170.02529c7.47968,1.4795 16.71065,1.26883 21.36926,8.02383c3.15359,4.57275 4.20422,19.51416 4.20422,19.51416c0,0 -16.40668,-5.14535 -21.35132,-3.4421c-2.21702,0.76367 -8.93227,3.1597 -11.78898,3.63083c-1.49716,0.24687 -16.87361,-2.20069 -13.02021,-14.70459c2.23982,-8.21111 6.75579,-15.75797 20.58706,-13.02212z" data-paper-data="{&quot;origPos&quot;:null,&quot;index&quot;:null}" fill="#7100f3" stroke="none" stroke-width="0" stroke-linecap="butt"/><path d="M237.74958,172.78943c0,0 3.51599,7.15813 4.30262,11.09567c0.91519,4.58094 2.44195,14.45679 2.44195,14.45679" data-paper-data="{&quot;origPos&quot;:null}" fill="none" stroke="#372b45" stroke-width="10.5" stroke-linecap="round"/><path d="M247.98517,198.72454c-0.41863,2.11642 -2.63113,3.68104 -4.50896,3.3096c-1.87782,-0.37144 -3.32803,-2.66057 -2.9094,-4.77697c0.41863,-2.11642 2.63113,-3.68104 4.50895,-3.3096c1.87782,0.37144 3.32805,2.66057 2.90941,4.77698z" fill="#ffea12" stroke="none" stroke-width="0" stroke-linecap="butt"/><path d="M258.83793,175.65543c0,0 2.68219,4.64644 3.55463,8.18539c0.87244,3.53897 2.4752,16.87647 2.4752,16.87647" data-paper-data="{&quot;origPos&quot;:null,&quot;origRot&quot;:0}" fill="none" stroke="#372b45" stroke-width="9.5" stroke-linecap="round"/><path d="M267.81523,199.49745c-0.41863,2.11642 -2.25866,3.42165 -4.13647,3.05021c-1.87783,-0.37145 -3.08237,-2.2789 -2.66373,-4.39531c0.41863,-2.11642 2.25865,-3.42166 4.13648,-3.05023c1.87783,0.37145 3.08237,2.2789 2.66373,4.39532z" data-paper-data="{&quot;origPos&quot;:null}" fill="#ffea12" stroke="none" stroke-width="0" stroke-linecap="butt"/></g><path d="M232.23152,189.41287c-1.89335,1.99166 -11.16567,3.47584 -19.79214,7.02946c-4.22678,1.74121 -17.78123,7.84706 -18.34327,6.60344c-1.25723,-2.78193 -5.73172,-8.89791 -4.86256,-9.43296c9.02106,-5.5532 19.35431,-13.85045 29.59302,-18.95433c3.29441,-1.64224 13.07687,-1.65102 15.07034,3.0816c1.99343,4.73262 1.86057,7.96369 -1.66538,11.67276z" fill="#7100f3" stroke="none" stroke-width="0" stroke-linecap="butt"/><g stroke-linecap="butt"><path d="M197.02864,237.07667c-1.10531,5.92059 -5.54675,11.44933 -15.26015,9.8105c-10.75851,-2.39802 -14.53843,-5.81616 -14.26461,-12.0721c0.77152,-6.20519 4.97103,-12.09404 16.28895,-9.24861c9.44063,1.42261 12.52156,1.66081 13.23581,11.5102z" data-paper-data="{&quot;origRot&quot;:0}" fill="#ffffff" stroke="none" stroke-width="0"/><path d="M198.98714,225.95369c-0.55651,6.23961 -2.2214,3.82241 -14.51298,2.64833c-10.78977,-1.03062 -12.54364,-0.89975 -12.31344,-6.60371c0.20578,-5.09879 7.56198,-2.90965 14.14508,-2.11629c6.58308,0.79333 13.0063,2.42821 12.68131,6.0717z" data-paper-data="{&quot;origRot&quot;:0}" fill="#ffffff" stroke="none" stroke-width="0"/><path d="M194.5055,219.24953c-0.31943,8.20649 -12.57662,4.71887 -15.97018,3.09974c-3.39353,-1.61915 1.18338,-10.38525 4.71999,-17.79747c3.53658,-7.41222 6.13863,-14.8239 12.54809,-10.48929c4.59613,3.10828 2.99442,8.28382 1.6402,12.61933c-1.43451,4.59261 -2.77485,8.37322 -2.9381,12.56766z" fill="#7100f3" stroke="none" stroke-width="0"/><path d="M177.6461,241.40095l0.27277,-3.38358l5.12413,0.56726l0.90808,-8.34256l4.34082,0.32998l-1.50248,11.8332z" data-paper-data="{&quot;index&quot;:null,&quot;origRot&quot;:0}" fill="#ffea12" stroke="#7100f3" stroke-width="1"/></g><g><path d="M290.97773,135.34774c-0.89215,3.22607 -12.17377,6.23707 -20.70457,5.332c-6.87413,-0.7293 -4.54978,-6.39613 -4.215,-9.5516c0.33478,-3.15548 13.73319,-1.03795 20.60729,-0.30866c6.8741,0.7293 4.88971,2.44003 4.31225,4.52823z" data-paper-data="{&quot;index&quot;:null}" fill="#2d0757" stroke="none" stroke-width="0" stroke-linecap="butt"/><path d="M271.04077,155.44411c0.06229,-0.02901 0.12799,-0.05663 0.19728,-0.08255c1.83079,-0.68483 2.5156,1.14596 2.5156,1.14596l-0.10338,0.0868c0.21532,0.2614 0.31782,0.495 0.31782,0.495c1.88919,4.30597 1.50445,11.12231 0.22692,15.74151c-0.48389,1.74965 -3.23574,3.86318 -3.27218,5.1885c-1.03045,2.26205 -3.81384,2.68915 -6.08033,2.63784c-5.68916,-0.12882 -11.50736,-1.19412 -17.16818,-1.7947c-1.24123,-0.13169 -3.79176,0.09244 -4.85938,-0.51555c-6.95655,-3.9616 -2.52148,-13.28791 -1.87684,-19.36398c0.39966,-3.76701 2.71953,-6.11834 6.6762,-6.25954c5.45403,-0.19467 11.31262,1.12457 16.73981,1.70036c2.2677,0.24059 4.53541,0.48119 6.80311,0.72177z" data-paper-data="{&quot;index&quot;:null}" fill="#ffffff" stroke="none" stroke-width="0.5" stroke-linecap="butt"/><path d="M270.24258,163.32132c1.2189,0.08211 1.13678,1.301 1.13678,1.301l-0.03843,0.37076c-0.0895,0.84357 -0.14707,1.69479 -0.19306,2.55046c0.49676,-0.19017 0.99036,-0.38094 1.48046,-0.56426l0.97369,-0.00441c0,0 1.21737,-0.10222 1.31961,1.11514c0.10222,1.21737 -1.11514,1.31961 -1.11514,1.31961l-0.32214,-0.14189c-0.81056,0.30321 -1.63286,0.62317 -2.46398,0.9295c-0.02213,0.43511 -0.04665,0.87053 -0.07618,1.30584l0.03326,0.00352l-0.17185,1.61979c-0.01628,0.15353 -0.06036,0.2974 -0.1267,0.42713c-0.15538,0.33595 -0.49374,0.73555 -1.21703,0.6588c-0.72333,-0.07673 -0.97028,-0.53847 -1.05172,-0.89952c-0.03762,-0.14073 -0.05054,-0.29069 -0.03426,-0.44422c0.06478,-0.61058 0.11313,-1.22109 0.15235,-1.83104c-0.91279,0.26931 -1.83266,0.48777 -2.75596,0.61723c-0.90242,0.06132 -1.7979,0.11263 -2.6893,0.1529c-0.10912,1.0285 -0.21823,2.05698 -0.32736,3.0855l-0.03437,0.32393c0,0 -0.12889,1.21484 -1.34373,1.08595c-1.21484,-0.12889 -1.08595,-1.34373 -1.08595,-1.34373c0.10595,-0.99859 0.21515,-2.02796 0.32562,-3.06914c-2.22792,0.04761 -4.44744,0.01944 -6.7052,-0.10079c-0.04136,0.38984 -0.08271,0.77967 -0.12407,1.1695l-0.10311,0.97187c0,0 -0.12889,1.21484 -1.34373,1.08595c-1.21484,-0.12889 -1.08595,-1.34373 -1.08595,-1.34373c0.06654,-0.6271 0.14025,-1.32195 0.21736,-2.04872c-0.67066,-0.05508 -1.35212,-0.07473 -2.02727,-0.19084c-2.34787,-0.40381 -6.35374,-3.45888 -4.47361,-4.41056c1.00964,-0.68781 3.43776,1.92099 4.73139,1.98087c0.6766,0.03132 1.34892,0.14258 2.02518,0.21052c0.13711,-1.29234 0.2722,-2.56572 0.38622,-3.64022c0,0 0.12889,-1.21484 1.34373,-1.08595c1.21484,0.12889 1.08595,1.34373 1.08595,1.34373c-0.12759,1.20266 -0.25519,2.40527 -0.38278,3.6079c2.24411,0.18598 4.48582,0.29881 6.69113,0.23338c0.17105,-1.61227 0.3417,-3.22079 0.50463,-4.75649c0,0 0.12889,-1.21484 1.34373,-1.08595c1.21484,0.12889 1.08595,1.34373 1.08595,1.34373c-0.15361,1.44781 -0.30721,2.89559 -0.46081,4.34339c0.70798,-0.06992 1.41077,-0.16292 2.10717,-0.28269c1.0859,-0.15223 2.16283,-0.44055 3.22791,-0.79019c0.05738,-1.24337 0.11988,-2.48134 0.25021,-3.70963l0.03033,-0.27716c0,0 0.08211,-1.2189 1.301,-1.13678z" data-paper-data="{&quot;index&quot;:null}" fill="#a5b5ff" stroke="none" stroke-width="0.5" stroke-linecap="butt"/><path d="M221.24145,151.77911l0.0707,-0.35156c0.12883,-0.18508 0.25767,-0.37016 0.38649,-0.55523c5.2378,-3.57953 8.27194,4.78373 9.97393,8.03236c0.56949,1.087 1.26562,1.9874 1.66013,3.14979c1.23934,3.68435 8.79225,12.86869 0.88839,13.64222c-1.00363,0.09823 -1.90576,-0.01974 -2.90544,-0.1258c-0.55656,-0.26504 -1.17999,-0.43529 -1.66966,-0.79512c-0.41967,-0.30843 -3.05587,-2.73046 -3.9943,-3.41248c-0.39433,-0.28657 -5.18559,-5.80736 -5.34006,-6.75003c-0.70418,-4.35367 0.33736,-8.15736 0.78854,-12.41007c0.01482,-0.1397 0.05752,-0.27036 0.12253,-0.3879c0.00597,-0.01197 0.01222,-0.02401 0.01878,-0.0361z" data-paper-data="{&quot;index&quot;:null}" fill="#8e4108" stroke="none" stroke-width="0.5" stroke-linecap="butt"/><path d="M272.78684,183.35308c-0.24253,3.90348 0.64295,7.89017 -1.94264,10.54151c-1.11403,1.14236 -3.05457,2.2303 -3.68763,2.10487c-3.19278,-0.32554 -7.30858,-0.21219 -10.17648,-1.76186c-2.06853,-1.11772 -6.27461,-4.64532 -6.30546,-4.6594c-0.03154,-0.01234 -0.04861,-0.02012 -0.04861,-0.02012c-2.70859,-1.23386 -4.96567,-3.29313 -7.64033,-4.5209c-1.24419,-0.57113 -5.20755,-2.31313 -5.20755,-2.31313c-5.63193,-4.68336 -9.09409,-11.1358 -10.75807,-18.2079c-0.65983,-3.00646 -1.00846,-6.03659 -1.66366,-9.02184l0.11602,-0.31877c-2.70449,-1.95278 -4.87044,-4.54745 -7.60718,-6.44241c-1.4575,-1.00916 -3.53395,-1.90949 -4.8764,-3.24259c-1.41555,-1.40568 -2.21746,-2.22756 -3.28733,-3.91135c-4.28009,-5.42891 -4.5244,-9.89649 -3.81129,-16.61812l0.1785,-0.92137c-0.06078,-0.25787 -0.06468,-0.558 0.02221,-0.90481c0.06069,-0.36157 0.2205,-0.77717 0.60154,-1.09c0.36101,-0.33576 0.79422,-0.43851 1.16068,-0.45029c0.50896,-0.05687 0.89803,0.05801 1.19355,0.2477c4.86839,1.76149 8.53192,4.54505 13.03481,7.00968c1.81268,0.99218 4.13552,1.05862 6.15207,1.61857c0.95468,0.2651 3.84314,0.8724 3.84314,0.8724c4.42437,0.46939 7.49305,-1.9113 11.75481,-3.0504c3.32422,-0.88849 6.5628,-0.47897 9.93991,-0.68189c5.77906,-0.34397 12.07812,1.09087 17.83327,1.70146c0,0 2.19301,0.90177 2.43693,1.33649c2.14282,2.42725 1.83266,4.73808 1.49443,7.92591c-0.48737,4.59383 -1.41412,9.38783 -1.24338,14.00563c0.05889,2.19282 0.27996,4.25965 0.05645,6.4443c0.05847,0.44967 -0.07511,0.82948 -0.25794,1.12434c-0.17106,0.35807 -0.47049,0.72192 -0.99463,0.89937c-2.9305,1.71771 -5.17278,0.88741 -8.30755,1.58491c-1.38417,0.30798 -2.6516,1.08046 -4.16374,1.14739c-2.44193,0.10807 -4.96922,-0.48624 -7.39822,-0.24461c-2.84633,0.16939 -6.00125,-0.2562 -8.81677,-0.96098c-0.18424,1.16706 -0.357,2.36241 -0.2894,3.46144c0.28232,4.59036 5.38283,8.48054 9.40576,9.367c4.83937,1.1334 8.64871,0.06814 13.32321,-0.95782c1.35896,-0.29827 3.00996,-0.20351 4.2935,-0.60141c1.33791,-0.41477 2.41596,-1.10953 4.05934,-1.20735l1.48127,1.21764c0,0 1.77419,0.82034 0.95384,2.59453z" data-paper-data="{&quot;index&quot;:null}" fill="#ffdebd" stroke="none" stroke-width="0.5" stroke-linecap="butt"/><path d="M289.8982,133.02663c0,0 -0.2644,2.35902 -1.23306,3.37087c-0.96866,1.01185 -4.34597,2.45697 -4.34597,2.45697l-10.30086,3.57606" data-paper-data="{&quot;index&quot;:null}" fill="none" stroke="#a5b5ff" stroke-width="4.5" stroke-linecap="round"/><path d="M245.96978,135.15536c-0.35164,1.09136 -0.91056,2.06043 -1.22624,3.20472c-0.42419,1.53758 -0.32583,3.54643 -0.49676,5.15766c-0.10499,0.98964 3.68749,1.89891 5.51109,2.09239c0.48912,0.05188 3.40918,0.39712 3.36585,0.19087c0.79375,-0.42618 2.08302,-0.33574 2.77921,-0.82752c2.16269,-1.52771 4.1988,-3.77006 5.48998,-6.65532c0.16148,-0.36091 0.62325,-1.19821 0.23692,-1.16469c-0.20553,0.01783 -0.14421,0.51297 -0.35018,0.52279c-0.56548,0.02696 -1.67812,-0.99175 -2.23578,-1.2041c-0.73066,-0.27822 -2.0108,-0.38265 -2.82899,-0.61487c-1.81271,-0.5145 -4.12856,-0.38644 -6.01525,-0.58662c-1.45675,-0.15456 -2.81458,0.00995 -4.22983,-0.11531zM245.3892,132.75008c0.37572,0.03987 0.59044,0.21286 0.71247,0.41011c1.41114,0.13499 2.84081,-0.03313 4.30888,0.12263c3.13716,0.33284 7.40964,0.26699 10.23734,1.78985c1.77623,0.95658 3.52198,1.83591 2.52233,4.06975c-1.54672,3.4563 -1.21951,4.97843 -4.29366,6.9553c-0.62636,0.40279 -3.91819,1.52734 -4.85012,1.47167c-0.93192,-0.05565 -7.40071,0.09216 -9.62794,-1.35652c-0.9304,-0.60518 -2.22054,-1.7222 -2.09543,-2.90136c0.19775,-1.86386 0.16996,-3.96705 0.66319,-5.77568c0.3754,-1.37653 1.19043,-2.43223 1.34561,-3.89496c0,0 0.10545,-0.99394 1.07732,-0.89083z" data-paper-data="{&quot;index&quot;:null}" fill="#18c6ff" stroke="none" stroke-width="0.5" stroke-linecap="butt"/><path d="M256.25891,133.72198c2.16037,0.79216 1.77299,0.80252 2.93334,1.70431c1.16035,0.90181 2.40926,2.51789 2.24773,2.8788c-1.29116,2.88528 -1.08783,4.59663 -3.25053,6.12437c-0.69618,0.49177 -3.92388,1.20235 -5.05291,1.3185c-1.12904,0.11615 -2.9158,-0.04475 -3.40491,-0.09664c-1.8236,-0.19348 -5.63624,-1.12865 -5.53124,-2.11831c0.17094,-1.6112 0.07195,-3.64861 0.49613,-5.18619c0.31568,-1.14428 1.00116,-3.24126 1.35283,-4.33263c1.44765,-0.18019 2.48064,-0.77568 4.34829,-0.86057c1.86764,-0.08488 3.70089,-0.22379 5.86125,0.56836z" data-paper-data="{&quot;noHover&quot;:false,&quot;origItem&quot;:[&quot;Path&quot;,{&quot;applyMatrix&quot;:true,&quot;segments&quot;:[[[469.86056,340.47788],[2.90705,-0.05065],[-0.47996,2.2968]],[[468.0571,347.26415],[0.39535,-2.39679],[-0.53123,3.22051]],[[468.15973,357.86707],[0,-3.31566],[0,2.03658]],[[479.8264,360.93518],[-3.75277,0],[1.00657,0]],[[486.717,360.5969],[0.13271,0.41035],[1.52326,-1.03856]],[[492.19394,358.31293],[-1.31054,1.15106],[4.07119,-3.57579]],[[501.92903,343.58421],[-2.00456,6.15021],[0.25074,-0.76931]],[[502.15973,341.16292],[0.77893,-0.15165],[-0.41434,0.08067]],[[501.56,342.30239],[0.41704,-0.06448],[-1.14489,0.17701]],[[496.75028,340.33482],[1.18068,0.3117],[-1.54698,-0.4084]],[[490.86061,339.69435],[1.71512,0.2959],[-3.79987,-0.65558]],[[478.49306,339.79931],[3.88259,0],[-2.99782,0]]],&quot;closed&quot;:true}],&quot;index&quot;:null}" fill="#ffffff" stroke="none" stroke-width="0.5" stroke-linecap="butt"/><path d="M268.08994,138.02033c-0.1347,1.26957 -0.2694,2.53917 -0.40409,3.80875c-0.01032,0.09727 -0.15875,1.45726 -0.15466,1.4578c0.16208,0.02105 -0.05611,-0.44912 0.10458,-0.47905c0.46454,-0.08648 2.28377,0.73243 3.29698,0.83995c0.19714,0.02091 2.42863,0.26587 2.42968,0.25777c0.02105,-0.16208 -0.44912,0.05611 -0.47905,-0.10459c-0.2365,-1.2704 0.57406,-4.65334 0.86639,-6.72431c-0.60399,0.33413 -1.73129,-0.521 -2.54683,-0.60752c-0.76904,-0.08158 -1.83008,0.61571 -2.54924,1.24351l-0.5375,0.43439c0,0 -0.01051,-0.04787 -0.0263,-0.1267zM267.42519,136.19235c1.96146,-1.51668 4.71425,-2.71424 7.11425,-2.36461c1.0871,0.1584 1.36023,1.6029 1.21619,2.96057c-0.28093,2.64791 0.17934,7.85137 -2.59933,9.06096c-0.48954,0.2131 -1.88325,-0.19981 -2.42968,-0.25777c-1.90609,-0.20222 -4.29204,-0.56499 -5.1391,-2.51085c-0.50232,-1.15395 0.45018,-4.2432 0.58429,-5.50728c0,0 0.08884,-0.8373 0.87879,-0.87511z" data-paper-data="{&quot;index&quot;:null}" fill="#18c6ff" stroke="none" stroke-width="0.5" stroke-linecap="butt"/><path d="M271.4242,134.38403c0.81554,0.08652 2.77868,0.65227 2.77868,0.65227c0,0 -0.79258,8.74804 -0.81362,8.9101c-0.00105,0.00808 -2.25785,-0.22889 -2.45498,-0.2498c-1.01321,-0.1075 -3.27573,-0.35433 -3.43782,-0.37538c-0.00411,-0.00055 0.13669,-1.37062 0.147,-1.46788c0.1347,-1.26957 0.43272,-3.73424 0.43272,-3.73424c0,0 2.57898,-3.81666 3.34802,-3.73507z" data-paper-data="{&quot;noHover&quot;:false,&quot;origItem&quot;:[&quot;Path&quot;,{&quot;applyMatrix&quot;:true,&quot;segments&quot;:[[[515.49306,341.5323],[0.04917,0.15701],[0,2.61264]],[[515.49306,349.37022],[0,-2.61264],[0,0.20016]],[[515.49306,352.37022],[-0.00844,-0.0002],[0.33438,0.00784]],[[515.60246,351.37279],[-0.32053,0.09557],[0.92664,-0.27628]],[[522.49306,352.37022],[-2.08504,0],[0.4057,0]],[[527.49306,352.37022],[-0.00039,0.0167],[0.00784,-0.33438]],[[526.49563,352.26082],[0.09557,0.32053],[-0.75555,-2.53413]],[[526.80695,338.39],[-0.14773,4.27747],[-1.15693,0.81042]],[[521.49306,337.70356],[1.67827,0],[-1.5826,0]],[[516.57394,340.78444],[1.32792,-1.43284],[0,0]],[515.57394,341.78444]],&quot;closed&quot;:true}],&quot;index&quot;:null}" fill="#ffffff" stroke="none" stroke-width="0.5" stroke-linecap="butt"/><path d="M213.54808,132.61716l4.75956,3.42303c0,0 3.48663,1.15359 5.35797,2.6111c1.87133,1.45752 1.80613,1.88984 2.44937,3.46974c0.64323,1.5799 0.43697,1.71772 -0.2143,2.01992c-0.65125,0.30221 -3.08487,0.97775 -4.90426,0.35512c-1.8194,-0.62264 -2.51062,-2.89264 -2.51062,-2.89264l-0.20962,-5.50822" data-paper-data="{&quot;index&quot;:null}" fill="none" stroke="#f6b09a" stroke-width="3" stroke-linecap="round"/><path d="M258.60567,136.53686c0.55717,0.05911 1.0375,0.33834 1.36428,0.74232c0.32693,0.40316 0.49955,0.931 0.44053,1.48722c-0.05902,0.55623 -0.33853,1.0361 -0.74278,1.36169c-0.40426,0.32641 -0.93249,0.49865 -1.48966,0.43954c-0.55711,-0.0591 -1.03744,-0.33833 -1.36428,-0.74232c-0.32686,-0.40316 -0.49949,-0.93101 -0.44046,-1.48723c0.05902,-0.55623 0.33854,-1.03609 0.74273,-1.36169c0.40435,-0.32641 0.93256,-0.49864 1.48966,-0.43954z" data-paper-data="{&quot;index&quot;:null}" fill="#000000" stroke="none" stroke-width="1.05702" stroke-linecap="butt"/><path d="M282.27951,110.7054c0.72783,13.64099 -1.94565,14.12871 -9.60773,17.6581c-11.16427,5.14262 -24.76523,2.41878 -36.49675,6.08741c-3.08037,0.96328 -10.25775,-2.93269 -13.46723,-3.27321c-6.56432,-0.69643 -9.7705,-5.78084 -9.4489,-11.39764c0.7094,-12.38933 6.7838,-11.79319 13.34812,-11.09676c0,0 7.09719,1.96383 9.18594,6.06131c0,0 11.78471,-15.28534 22.59303,-16.18148c13.91334,-1.15356 23.37088,2.34621 23.89356,12.14227z" data-paper-data="{&quot;index&quot;:null}" fill="#7100f3" stroke="none" stroke-width="0" stroke-linecap="butt"/><path d="M278.8704,118.08138c-0.52064,4.9072 -2.22552,8.45978 -11.8922,7.72359c-10.20492,-0.77719 -10.52748,-5.13975 -10.00687,-10.04696c0.52064,-4.9072 5.84496,-8.36517 11.8922,-7.7236c6.04725,0.64158 10.52747,5.13975 10.00686,10.04696z" data-paper-data="{&quot;index&quot;:null}" fill="#ffffff" stroke="none" stroke-width="0" stroke-linecap="butt"/><path d="M272.78707,110.62412l0.02355,3.21362l-4.87955,-0.10973l-0.16407,7.94306l-4.12115,0.04904l0.43498,-11.28436z" data-paper-data="{&quot;index&quot;:null,&quot;origRot&quot;:0}" fill="#ffea12" stroke="#7100f3" stroke-width="1" stroke-linecap="butt"/><path d="M288.92077,160.63375l-6.3519,10.46465l-2.55731,-0.59891l-8.65838,-4.84985l-26.89361,3.37122l-3.88749,-0.41245l-2.57192,-3.5489l-3.91162,-12.53639l1.46769,-1.48229l8.43242,10.06756l14.426,-0.1075l11.68222,-2.03661l9.63023,4.95296l6.70511,-4.53029z" data-paper-data="{&quot;index&quot;:null}" fill="#000000" stroke="#ff0000" stroke-width="0" stroke-linecap="round"/><path d="M234.27844,132.27531c0.90221,0.09571 2.18397,1.87003 2.20711,2.22121c1.34859,1.67067 2.43689,4.13554 2.53735,6.28458c0.03218,0.68875 -1.94166,4.0747 -2.3594,4.52386c-2.09533,1.30014 -4.86718,2.32063 -5.68688,-0.3871c-0.19078,-0.63027 1.06271,-3.11738 1.13318,-3.78156c0.24059,-2.2677 0.48117,-4.5354 0.72177,-6.80311c0,0 0.03315,-0.31249 0.2243,-0.60371l-0.1212,-0.36817c0,0 0.12889,-1.21484 1.34373,-1.08595z" data-paper-data="{&quot;index&quot;:null}" fill="#8e4108" stroke="none" stroke-width="0.5" stroke-linecap="butt"/><path d="M278.07012,123.51682c6.17774,0.7419 14.62838,7.56171 13.62905,10.23383c-0.27033,0.72284 -36.45328,-1.47234 -47.0543,-1.54654c-5.15221,-0.03605 -15.64665,2.1033 -15.3763,1.38047c0.99934,-2.67213 5.84465,-7.75104 10.87489,-8.66619c6.07879,-1.10591 22.81465,-3.21638 37.92668,-1.40155z" data-paper-data="{&quot;index&quot;:null}" fill="#4f05a3" stroke="none" stroke-width="0" stroke-linecap="butt"/><path d="M231.0449,134.22371l27.76312,-2.45294l31.37875,1.28646" data-paper-data="{&quot;index&quot;:null}" fill="none" stroke="#ffffff" stroke-width="4.5" stroke-linecap="round"/><path d="M264.98819,138.51601c-0.29045,1.93295 -2.2234,1.6425 -2.2234,1.6425l-1.664,-1.26062c-0.74115,-0.73384 -1.48229,-1.46769 -2.22345,-2.20152c-4.20319,-4.43595 -11.81834,-2.60831 -16.78636,-0.42865c0,0 -1.78998,0.7853 -2.57529,-1.00464c-0.7853,-1.78997 1.00465,-2.57527 1.00465,-2.57527c6.63567,-2.9113 15.29764,-4.32359 21.10756,1.2306c0.74115,0.73384 2.09552,1.92001 2.09552,1.92001c0,0 1.55526,0.74466 1.2648,2.6776z" data-paper-data="{&quot;index&quot;:null}" fill="#000000" stroke="none" stroke-width="0.5" stroke-linecap="butt"/><path d="M277.54996,132.8984c0.7698,1.7967 -1.0269,2.5665 -1.0269,2.5665l-2.27185,0.00958c-2.7384,-0.29053 -4.13131,0.11625 -5.29928,2.6802c0,0 -0.81032,1.7788 -2.58909,0.96849c-1.77881,-0.8103 -0.96849,-2.58909 -0.96849,-2.58909c1.82022,-3.99575 6.57346,-4.70788 6.57346,-4.70788c0,0 4.81236,-0.72443 5.58218,1.07226z" data-paper-data="{&quot;index&quot;:null}" fill="#000000" stroke="none" stroke-width="0.5" stroke-linecap="butt"/><path d="M272.71472,136.8446c0.48223,0.05116 0.89793,0.29281 1.18076,0.64246c0.28296,0.34893 0.43236,0.80578 0.38129,1.28718c-0.05107,0.48142 -0.29301,0.89672 -0.64288,1.17851c-0.34989,0.28251 -0.80706,0.43158 -1.28929,0.38041c-0.48218,-0.05116 -0.89788,-0.29283 -1.18077,-0.64248c-0.28289,-0.34892 -0.4323,-0.80575 -0.38123,-1.28716c0.05107,-0.48142 0.29299,-0.89673 0.64282,-1.17853c0.34996,-0.28251 0.8071,-0.43156 1.28928,-0.3804z" data-paper-data="{&quot;index&quot;:null}" fill="#000000" stroke="none" stroke-width="1.05702" stroke-linecap="butt"/><path d="M260.66478,148.65655c0.35887,-1.37082 0.46183,-3.12322 0.98473,-4.1779c1.15513,-2.32987 3.97418,-3.17269 6.34825,-2.92082c7.9661,0.84516 20.04206,5.20539 19.0039,14.99064c-0.36572,2.87775 -1.18194,5.33255 -3.69335,7.08075c-1.23056,0.85661 -3.32074,0.67157 -4.74913,0.66294c-4.44635,-0.0268 -9.58238,0.04299 -13.85782,-1.29407c-3.71319,-1.41849 -7.45324,-1.40006 -10.13571,-4.97784c-1.88559,-2.51492 -1.13237,-6.82148 0.75571,-9.0104c0.91252,-1.05789 3.68522,-0.5801 4.93126,-0.44791c0,0 0.17271,0.01833 0.41217,0.09458z" fill="#f991fd" stroke="none" stroke-width="0.5" stroke-linecap="butt"/></g><path d="M247.38016,208.85234c3.49944,-3.75838 12.68655,0.19575 15.08998,2.98387c7.46966,8.66515 13.95544,22.14423 17.96999,28.29703c1.07916,1.65395 -0.4179,6.06039 -3.61831,7.21397c-3.20042,1.15355 -4.18262,-0.72112 -6.43633,-2.24701c-2.25373,-1.52587 -9.67907,-7.60763 -12.90412,-10.84745c-6.58205,-6.61219 -10.64122,-9.0888 -11.61744,-11.65756c0,0 -3.25642,-8.61704 1.51626,-13.74282z" data-paper-data="{&quot;index&quot;:null}" fill="#372b45" stroke="none" stroke-width="0" stroke-linecap="butt"/><path d="M281.06005,276.21749c-0.10196,12.16638 -18.45099,9.75882 -23.54925,7.51465c-5.09827,-2.24417 0.23709,-17.51902 5.13884,-28.65474c4.90174,-11.13572 8.59255,-20.59804 15.21653,-17.44178c5.85948,4.5101 1.94823,9.53153 2.61236,17.55414c0.66413,8.02262 0.63364,14.80928 0.58155,21.02772z" fill="#372b45" stroke="none" stroke-width="0" stroke-linecap="butt"/><path d="M243.10985,223.10146c-1.11246,2.51275 -5.29852,4.76833 -12.22537,11.01836c-3.39401,3.06236 -11.13456,8.73754 -13.46678,10.14048c-2.33224,1.40294 -3.41348,3.2223 -6.54747,1.89893c-3.13401,-1.32338 -4.39284,-5.8037 -3.2266,-7.39746c4.33846,-5.92886 11.53711,-19.04109 19.46032,-27.29356c2.54937,-2.65533 11.93513,-6.11153 15.22818,-2.17106c4.49118,5.37416 0.77775,13.80433 0.77775,13.80433z" data-paper-data="{&quot;index&quot;:null}" fill="#372b45" stroke="none" stroke-width="0" stroke-linecap="butt"/><path d="M206.91507,276.34513c-0.14754,-6.21691 -0.28219,-13.00232 0.25873,-21.03417c0.54092,-8.03187 -3.44695,-12.99267 2.34262,-17.59217c6.57476,-3.25755 10.41037,6.147 15.48245,17.20617c5.07208,11.05917 10.64127,26.25035 5.57805,28.57249c-5.06323,2.32215 -23.37315,5.01108 -23.66182,-7.15231z" fill="#372b45" stroke="none" stroke-width="0" stroke-linecap="butt"/><path d="M182.14593,277.4655c8.01611,-1.16195 6.12979,0.4241 9.55024,1.73801c3.33256,0.2929 6.08406,-1.99439 11.05768,-2.14165c6.10889,0.91037 15.04727,2.1218 17.15794,2.49342c13.15561,2.31651 11.13453,-7.70582 13.64925,-2.14395c4.04512,8.94667 0.34627,15.22947 -14.1755,16.21918c-7.59353,0.51752 -21.52959,4.78329 -30.15385,0.18793c-6.51185,-3.46978 -9.54329,-15.99673 -7.08577,-16.35296z" fill="#ff7f01" stroke="none" stroke-width="0" stroke-linecap="butt"/><path d="M305.31185,278.08539c2.45752,0.35624 -0.57391,12.88319 -7.08577,16.35296c-8.62427,4.59536 -22.56033,0.32959 -30.15386,-0.18793c-14.52178,-0.98971 -18.22063,-7.27251 -14.17551,-16.21918c2.51473,-5.56187 0.49365,4.46046 13.64926,2.14395c2.11067,-0.37162 11.04904,-1.58306 17.15794,-2.49343c4.97363,0.14727 7.72513,2.43455 11.05769,2.14166c3.42044,-1.31392 1.53412,-2.89997 9.55023,-1.73802z" data-paper-data="{&quot;index&quot;:null}" fill="#ff7f01" stroke="none" stroke-width="0" stroke-linecap="butt"/></g></g></svg>