<svg version="1.1" xmlns="http://www.w3.org/2000/svg" xmlns:xlink="http://www.w3.org/1999/xlink" width="721.29029" height="409.38393" viewBox="0,0,721.29029,409.38393"><defs><radialGradient cx="517.55797" cy="180.06855" r="521.89326" gradientUnits="userSpaceOnUse" id="color-1"><stop offset="0" stop-color="#ececec"/><stop offset="1" stop-color="#616161"/></radialGradient><linearGradient x1="466.66795" y1="180.06855" x2="568.44796" y2="180.06855" gradientUnits="userSpaceOnUse" id="color-2"><stop offset="0" stop-color="#ececec" stop-opacity="0"/><stop offset="1" stop-color="#ececec"/></linearGradient><linearGradient x1="529.47003" y1="-26.39921" x2="529.47003" y2="382.98473" gradientUnits="userSpaceOnUse" id="color-3"><stop offset="0" stop-color="#000000" stop-opacity="0.50196"/><stop offset="1" stop-color="#000000" stop-opacity="0.8"/></linearGradient></defs><g transform="translate(87.24169,26.39921)"><g data-paper-data="{&quot;isPaintingLayer&quot;:true}" fill-rule="nonzero" stroke-linecap="butt" stroke-linejoin="miter" stroke-miterlimit="10" stroke-dasharray="" stroke-dashoffset="0" style="mix-blend-mode: normal"><path d="M384.62923,325.18291v-25.91041h158.75306v25.91041z" data-paper-data="{&quot;index&quot;:null}" fill="#000000" stroke="#ffffff" stroke-width="7"/><path d="M488.23998,357.64542v-25.91041h142.30862v25.91042z" data-paper-data="{&quot;index&quot;:null}" fill="#805c39" stroke="#674521" stroke-width="7"/><path d="M471.39846,260.55582v-25.91041h142.30862v25.91041z" data-paper-data="{&quot;index&quot;:null}" fill="#674521" stroke="#4b3318" stroke-width="7"/><path d="M329.38346,260.55582v-25.91041h142.30862v25.91041z" data-paper-data="{&quot;index&quot;:null}" fill="#000000" stroke="#ffffff" stroke-width="7"/><path d="M290.81567,293.01824v-25.91041h130.29661v25.91041z" data-paper-data="{&quot;index&quot;:null}" fill="#000000" stroke="#ffffff" stroke-width="7"/><path d="M422.15464,293.01824v-25.91041h121.33006v25.91041z" data-paper-data="{&quot;index&quot;:null}" fill="#000000" stroke="#ffffff" stroke-width="7"/><path d="M253.29024,325.18291v-25.91041h130.29661v25.91041z" data-paper-data="{&quot;index&quot;:null}" fill="#000000" stroke="#ffffff" stroke-width="7"/><path d="M214.72245,357.64542v-25.91041h130.29661v25.91042z" data-paper-data="{&quot;index&quot;:null}" fill="#000000" stroke="#ffffff" stroke-width="7"/><path d="M346.06143,357.64542v-25.91041h142.30862v25.91042z" data-paper-data="{&quot;index&quot;:null}" fill="#000000" stroke="#ffffff" stroke-width="7"/><g data-paper-data="{&quot;index&quot;:null}" fill="#7b00ff" stroke="none"><g><path d="M203.52744,365.39153v-10.28539h11.9965v10.28539z" stroke-width="NaN"/><path d="M215.73815,355.10614v-10.28539h11.9965v10.28539z" stroke-width="NaN"/><path d="M228.07335,344.82497v-10.28539h11.9965v10.28539z" stroke-width="NaN"/><path d="M240.28407,334.53954v-10.28539h11.9965v10.28539z" stroke-width="NaN"/></g><g><path d="M252.61927,324.25838v-10.28539h11.9965v10.28539z" stroke-width="NaN"/><path d="M264.82999,313.97301v-10.28539h11.9965v10.28539z" stroke-width="NaN"/><path d="M277.1652,303.69185v-10.28539h11.9965v10.28539z" stroke-width="NaN"/><path d="M289.37591,293.40644v-10.28539h11.9965v10.28539z" stroke-width="NaN"/></g><g><path d="M301.71112,282.64698v-10.28539h11.9965v10.28539z" stroke-width="NaN"/><path d="M313.92183,272.36161v-10.28539h11.9965v10.28539z" stroke-width="NaN"/><path d="M326.25704,262.08045v-10.28539h11.9965v10.28539z" stroke-width="NaN"/><path d="M338.46776,251.79508v-10.28539h11.9965v10.28539z" stroke-width="NaN"/></g><g stroke-width="NaN"><path d="M350.80297,241.51392v-10.28539h11.99649v10.28539z" stroke-width="NaN"/></g></g><path d="M205.52011,366.00006h-292.7618v-31h292.76181z" data-paper-data="{&quot;origPos&quot;:null,&quot;index&quot;:null}" fill="#7b00ff" stroke="none" stroke-width="1"/><path d="M157.46605,372.50852l205.70571,-172.67268h37.54054l-206.2042,172.67268z" data-paper-data="{&quot;index&quot;:null}" fill="#7b00ff" stroke="none" stroke-width="0"/><path d="M533.73575,231.00005h-169.93937v-31h169.93939z" data-paper-data="{&quot;index&quot;:null}" fill="#7b00ff" stroke="none" stroke-width="1"/><path d="" data-paper-data="{&quot;index&quot;:null}" fill="#cc1919" stroke="none" stroke-width="1"/><path d="M-83.37602,210.00005h92.27392l53,26h-145.27392z" data-paper-data="{&quot;index&quot;:null}" fill="#7b00ff" stroke="none" stroke-width="1"/><g data-paper-data="{&quot;index&quot;:null}" stroke="none" stroke-width="0"><path d="M466.66795,360.9995v-361.86186h101.78002v361.86186z" fill="url(#color-1)"/><path d="M466.66795,360.9995v-361.86186h101.78002v361.86186z" fill="url(#color-2)"/></g><path d="M492.34253,382.98473v-409.38393h74.25499v409.38393z" data-paper-data="{&quot;index&quot;:null}" fill="url(#color-3)" stroke="none" stroke-width="0"/></g></g></svg>