<svg version="1.1" xmlns="http://www.w3.org/2000/svg" xmlns:xlink="http://www.w3.org/1999/xlink" width="101.39846" height="140.08159" viewBox="0,0,101.39846,140.08159"><defs><linearGradient x1="255.86856" y1="213.31575" x2="264.00122" y2="190.31312" gradientUnits="userSpaceOnUse" id="color-1"><stop offset="0" stop-color="#5ab500"/><stop offset="1" stop-color="#59a210"/></linearGradient><linearGradient x1="284.28023" y1="214.45976" x2="294.65438" y2="185.11728" gradientUnits="userSpaceOnUse" id="color-2"><stop offset="0" stop-color="#cecece"/><stop offset="1" stop-color="#f2f2f2"/></linearGradient><linearGradient x1="272.75906" y1="212.53301" x2="281.03574" y2="189.12303" gradientUnits="userSpaceOnUse" id="color-3"><stop offset="0" stop-color="#cecece"/><stop offset="1" stop-color="#f2f2f2"/></linearGradient><linearGradient x1="227.43976" y1="230.87253" x2="259.00793" y2="238.30181" gradientUnits="userSpaceOnUse" id="color-4"><stop offset="0" stop-color="#17174a"/><stop offset="1" stop-color="#17173a"/></linearGradient><linearGradient x1="223.44423" y1="248.30372" x2="258.74056" y2="256.61042" gradientUnits="userSpaceOnUse" id="color-5"><stop offset="0" stop-color="#643a19"/><stop offset="1" stop-color="#915b32"/></linearGradient><linearGradient x1="238.99722" y1="187.22392" x2="238.99722" y2="235.52145" gradientUnits="userSpaceOnUse" id="color-6"><stop offset="0" stop-color="#2a2a84"/><stop offset="1" stop-color="#1c1c57"/></linearGradient><linearGradient x1="240.90619" y1="184.8851" x2="240.90619" y2="211.191" gradientUnits="userSpaceOnUse" id="color-7"><stop offset="0" stop-color="#98de53"/><stop offset="1" stop-color="#68c900"/></linearGradient><linearGradient x1="217.99195" y1="243.2168" x2="247.73317" y2="230.2861" gradientUnits="userSpaceOnUse" id="color-8"><stop offset="0" stop-color="#2a2a84"/><stop offset="1" stop-color="#1c1c57"/></linearGradient><linearGradient x1="225.10178" y1="259.30918" x2="258.35547" y2="244.85138" gradientUnits="userSpaceOnUse" id="color-9"><stop offset="0" stop-color="#643a19"/><stop offset="1" stop-color="#915b32"/></linearGradient><linearGradient x1="212.14648" y1="177.41453" x2="223.93527" y2="177.41453" gradientUnits="userSpaceOnUse" id="color-10"><stop offset="0" stop-color="#82491d"/><stop offset="1" stop-color="#5a2c0a"/></linearGradient><linearGradient x1="231.88047" y1="147.2646" x2="231.88047" y2="195.68154" gradientUnits="userSpaceOnUse" id="color-11"><stop offset="0" stop-color="#ffead6"/><stop offset="1" stop-color="#f5b677"/></linearGradient><linearGradient x1="232.85479" y1="146.57521" x2="232.85479" y2="163.0349" gradientUnits="userSpaceOnUse" id="color-12"><stop offset="0" stop-color="#f5b477"/><stop offset="1" stop-color="#f5b477" stop-opacity="0"/></linearGradient><radialGradient cx="261.43577" cy="178.33474" r="15.8277" gradientUnits="userSpaceOnUse" id="color-13"><stop offset="0" stop-color="#563e2d"/><stop offset="1" stop-color="#38291e"/></radialGradient><linearGradient x1="218.15692" y1="157.58283" x2="229.08606" y2="157.58283" gradientUnits="userSpaceOnUse" id="color-14"><stop offset="0" stop-color="#5a2c0a"/><stop offset="1" stop-color="#82491d"/></linearGradient><radialGradient cx="262.67179" cy="164.38843" r="11.71226" gradientUnits="userSpaceOnUse" id="color-15"><stop offset="0" stop-color="#ffead6"/><stop offset="1" stop-color="#f7c594"/></radialGradient><linearGradient x1="228.02409" y1="211.17623" x2="222.15865" y2="190.34912" gradientUnits="userSpaceOnUse" id="color-16"><stop offset="0" stop-color="#7edf1d"/><stop offset="1" stop-color="#68c900"/></linearGradient><linearGradient x1="259.099" y1="217.4655" x2="250.43075" y2="186.68611" gradientUnits="userSpaceOnUse" id="color-17"><stop offset="0" stop-color="#f2f2f2"/><stop offset="1" stop-color="#ffffff"/></linearGradient><linearGradient x1="245.44227" y1="213.86155" x2="238.4702" y2="189.105" gradientUnits="userSpaceOnUse" id="color-18"><stop offset="0" stop-color="#f2f2f2"/><stop offset="1" stop-color="#ffffff"/></linearGradient></defs><g transform="translate(-200.65614,-127.68869)"><g data-paper-data="{&quot;isPaintingLayer&quot;:true}" fill-rule="nonzero" stroke-linejoin="miter" stroke-miterlimit="10" stroke-dasharray="" stroke-dashoffset="0" style="mix-blend-mode: normal"><g data-paper-data="{&quot;index&quot;:null,&quot;origRot&quot;:0,&quot;origPos&quot;:null}" stroke-linecap="butt"><path d="M247.92493,203.16774c-0.14153,-4.77891 1.79329,-8.78904 10.20671,-9.13881c8.4134,-0.34977 16.49098,0.26164 16.49098,0.26164l0.58292,14.33455c0,0 -13.10703,2.22164 -19.87403,2.50298c-8.41341,0.34978 -7.40659,-7.96035 -7.40659,-7.96035z" data-paper-data="{&quot;origRot&quot;:0,&quot;origPos&quot;:null}" fill="url(#color-1)" stroke="none" stroke-width="0"/><g data-paper-data="{&quot;origPos&quot;:null}" stroke="#cbcbcb" stroke-width="1.5"><path d="M279.26993,201.99544c-0.6216,-8.41634 -0.94149,-18.86968 7.6152,-19.11296c6.20756,-0.17647 15.5109,7.93861 14.31457,16.30486c-1.30547,9.12949 -1.06641,17.47325 -10.64933,16.80415c-8.9479,-0.62478 -10.65886,-5.57971 -11.28045,-13.99605z" data-paper-data="{&quot;origRot&quot;:0,&quot;origPos&quot;:null}" fill="url(#color-2)"/><path d="M272.44309,201.45264c-0.47169,-6.49864 -2.22892,-13.80588 2.59501,-13.83039c5.39655,-0.02742 5.19898,1.69204 5.71739,12.334c0.59058,12.12317 2.80318,13.84399 -3.11293,14.17344c-3.45461,0.19239 -4.72777,-6.17843 -5.19947,-12.67707z" data-paper-data="{&quot;origRot&quot;:0,&quot;origPos&quot;:null}" fill="url(#color-3)"/></g></g><g data-paper-data="{&quot;origPos&quot;:null,&quot;origRot&quot;:0}" stroke-linecap="butt"><path d="M253.20198,241.56155c-0.7209,4.08206 3.59736,6.76413 3.23846,7.63487c-1.45214,3.52301 -3.84968,5.68199 -10.50249,5.93519c-8.24098,0.31366 -14.20271,-1.61701 -20.20858,-7.20695c-4.09053,-3.80723 0.61147,-5.15849 3.59125,-9.76513c1.06924,-1.65299 2.10215,-3.90101 3.68145,-8.57403c1.97455,-5.8425 4.17803,-6.97982 4.17803,-6.97982c0,0 6.99572,-1.37886 11.79518,-0.32318c4.73618,1.09287 8.88522,2.92465 8.88522,2.92465c0,0 -2.99207,6.91824 -4.65851,16.35439z" data-paper-data="{&quot;origPos&quot;:null}" fill="url(#color-4)" stroke="none" stroke-width="0"/><path d="M255.1011,262.69387c-0.81013,3.44234 -4.79693,4.21578 -8.42773,4.3251c-2.37942,0.07163 -13.16387,-2.79222 -17.82991,-7.12621c-1.44859,-1.34552 -2.29842,-3.82611 -2.29842,-3.82611c0,0 -4.73506,-0.40655 -4.41921,-1.68976c0.25073,-1.01861 0.63349,-2.7636 1.77649,-3.05386c4.92001,-1.24945 15.3011,1.19938 20.27337,2.36956c6.82581,1.60639 11.71727,5.6364 10.92538,9.00127z" data-paper-data="{&quot;origPos&quot;:null}" fill="#5c3518" stroke="#5c3518" stroke-width="1.5"/><path d="M257.83131,258.77274c-2.19011,3.73703 -7.01834,5.64036 -14.73501,3.82432c-7.71668,-1.81604 -14.94813,-8.10748 -14.94813,-8.10748c0,0 -5.65383,-1.029 -5.43909,-2.44824c0.44443,-2.93751 1.49786,-7.65324 2.65689,-7.54276c4.27881,0.40785 3.36777,0.76894 9.05322,0.91854c3.68106,0.09685 10.30902,-1.77279 13.89782,-0.9282c7.71666,1.81605 13.12037,8.13076 9.51433,14.28384z" data-paper-data="{&quot;origPos&quot;:null}" fill="url(#color-5)" stroke="#5c3518" stroke-width="1.5"/></g><g data-paper-data="{&quot;origPos&quot;:null}"><path d="M263.2194,209.44095c0.33883,20.30206 -11.34474,26.0805 -24.48535,26.0805c-13.14062,0 -23.96621,-9.62481 -23.96621,-19.36861c0,-10.57038 1.14078,-18.98493 8.49751,-25.71277c5.48098,-5.01244 13.38072,-2.66895 20.48691,-2.66895c13.14062,0 19.13503,1.76927 19.46716,21.66983z" data-paper-data="{&quot;origPos&quot;:null}" fill="url(#color-6)" stroke="#101032" stroke-width="1.5" stroke-linecap="butt"/><path d="M263.2194,208.86565c0,0 -14.9195,1.91769 -25.43708,2.30122c-9.64715,0.35178 -19.38062,-3.26007 -19.38062,-3.26007c0,0 -0.8535,-13.22783 6.04314,-18.37142c4.51228,-3.3653 9.58682,-4.46739 16.10614,-4.64078c6.51933,-0.1734 13.60874,2.05108 16.89062,4.99763c7.75215,6.96009 5.7778,18.97341 5.7778,18.97341z" data-paper-data="{&quot;origPos&quot;:null}" fill="url(#color-7)" stroke="#4e9707" stroke-width="1.5" stroke-linecap="butt"/><path d="M251.1998,188.62575c0,0 1.8518,6.55874 2.22536,10.50237c0.47983,5.06529 -0.50179,14.58251 -0.50179,14.58251" data-paper-data="{&quot;origPos&quot;:null,&quot;origRot&quot;:0}" fill="none" stroke="#2a2a84" stroke-width="10" stroke-linecap="round"/><path d="M232.59108,189.1135c0,0 1.07274,6.76871 0.98406,10.73278c-0.1139,5.09156 -2.19533,14.38888 -2.19533,14.38888" data-paper-data="{&quot;origPos&quot;:null}" fill="none" stroke="#2a2a84" stroke-width="10" stroke-linecap="round"/><path d="M228.05927,212.66895c0,-2.17116 1.9181,-3.96965 4.28424,-3.96965c2.36612,0 4.28426,1.79849 4.28426,3.96965c0,2.17116 -1.91812,4.07824 -4.28426,4.07824c-2.36612,0 -4.28424,-1.90707 -4.28424,-4.07824z" fill="#ffe84f" stroke="#b6a538" stroke-width="1" stroke-linecap="butt"/><path d="M249.1372,212.33037c0,-2.17116 1.85214,-3.84824 4.13687,-3.84824c2.28473,0 4.13687,1.67708 4.13687,3.84824c0,2.17116 -1.85214,3.95685 -4.13686,3.95685c-2.28473,0 -4.13687,-1.78567 -4.13687,-3.95685z" fill="#ffe84f" stroke="#b6a538" stroke-width="1" stroke-linecap="butt"/></g><g data-paper-data="{&quot;origPos&quot;:null,&quot;origRot&quot;:0}" stroke-linecap="butt"><path d="M244.91485,236.1052c1.86421,3.70237 6.92905,3.26848 7.16231,4.18091c0.9438,3.6918 0.31404,6.85612 -4.86571,11.03874c-6.41625,5.1811 -12.3486,7.2003 -20.50528,6.31354c-5.55542,-0.60396 -2.59581,-4.49951 -2.96368,-9.97355c-0.132,-1.96424 -4.1768,-19.71378 -4.1768,-19.71378c0,0 6.46967,-2.87357 11.09484,-3.97371c3.65012,-0.86821 10.10956,-1.06991 10.10956,-1.06991c0,0 -0.1646,4.63922 4.14474,13.19771z" data-paper-data="{&quot;origPos&quot;:null}" fill="url(#color-8)" stroke="none" stroke-width="0"/><path d="M259.0781,251.90342c1.41002,3.24311 -1.32211,6.24784 -4.16623,8.50737c-1.86389,1.48078 -12.21912,5.63711 -18.55082,4.9553c-1.96572,-0.21167 -4.13059,-1.69112 -4.13059,-1.69112c0,0 -4.03762,2.50672 -4.55212,1.28949c-0.40842,-0.96626 -1.14554,-2.59354 -0.40326,-3.50988c3.1952,-3.9444 12.97895,-8.19201 17.66347,-10.2287c6.43078,-2.79593 12.76128,-2.49258 14.13956,0.67755z" data-paper-data="{&quot;origPos&quot;:null}" fill="#5c3518" stroke="#5c3518" stroke-width="1.5"/><path d="M258.92033,247.12808c0.48046,4.30477 -2.25004,8.71825 -9.52013,11.87909c-7.27008,3.16085 -16.82852,2.44509 -16.82852,2.44509c0,0 -5.14621,2.55753 -5.82315,1.29177c-1.40109,-2.61983 -3.37786,-7.0289 -2.38299,-7.63372c3.67277,-2.23276 3.15873,-1.3984 7.80424,-4.67958c3.00773,-2.12441 7.2006,-7.58749 10.58172,-9.05749c7.27008,-3.16085 15.37777,-1.33306 16.16887,5.75483z" data-paper-data="{&quot;origPos&quot;:null}" fill="url(#color-9)" stroke="#5c3518" stroke-width="1.5"/></g><g data-paper-data="{&quot;origPos&quot;:null}"><path d="M216.37518,182.44012c0,0 -1.27454,1.17821 -2.68607,-0.19874c-1.41153,-1.37695 -2.43414,-4.5611 -0.39087,-6.08176c2.44395,-1.81886 1.80997,-7.93642 3.2215,-6.55947c0,0 5.42187,1.02837 5.8403,3.941c0,0 2.28683,8.41117 1.34973,9.75653c0,0 -1.33565,1.33047 -4.81786,1.10952c-1.88672,-0.11972 -2.51674,-1.96709 -2.51674,-1.96709z" data-paper-data="{&quot;origRot&quot;:0}" fill="url(#color-10)" stroke="#5c3822" stroke-width="1" stroke-linecap="butt"/><path d="M218.66343,149.57477c3.83619,0.79467 33.11829,-1.71087 38.27042,-1.45677c7.62249,0.37593 5.51515,6.48109 6.05324,13.23843c0.61867,7.76949 -1.43518,16.76085 -0.77101,22.13942c0.29948,2.42512 -0.87667,7.151 -3.89821,8.75761c-4.08679,2.5048 -14.57003,1.20437 -21.13692,-0.70931c-5.56194,-1.81764 -7.90625,-3.78436 -13.87969,-8.26212c-4.53443,-3.39905 -3.4652,-6.21586 -6.28878,-10.0089c-0.86553,-1.16271 -1.89186,-1.78295 -2.06484,-1.78295c-9.22189,0 -14.2915,-6.75953 -14.2915,-13.15111c0,-6.39159 3.29112,-11.57298 8.44787,-11.57298c5.15674,0 8.22556,2.53238 9.55942,2.8087z" data-paper-data="{&quot;origPos&quot;:null}" fill="url(#color-11)" stroke="none" stroke-width="0" stroke-linecap="butt"/><path d="M261.59562,146.18052c4.95156,4.01349 3.21524,7.7185 3.60185,14.53913c-1.86326,0.26189 -35.4215,0.07367 -43.04126,0.50215c-0.80381,-1.77326 -1.98267,-12.48819 -0.59746,-12.19829c0,0 16.08419,-5.98101 21.50004,-6.24837c9.1745,-0.45291 13.58525,-0.60811 18.53681,3.40538z" fill="url(#color-12)" stroke="none" stroke-width="0" stroke-linecap="butt"/><path d="M261.51038,153.68301c0.31332,3.85764 -1.61672,7.12454 -4.31088,7.29683c-2.69417,0.1723 -5.13222,-2.81524 -5.44554,-6.67287c-0.31332,-3.85764 1.61673,-7.12453 4.3109,-7.29683c2.69417,-0.1723 5.13222,2.81524 5.44555,6.67287z" data-paper-data="{&quot;origRot&quot;:0}" fill="#ffffff" stroke="none" stroke-width="0" stroke-linecap="butt"/><path d="M249.92952,157.63206c0.50771,3.8413 -1.25552,7.18162 -3.93828,7.46081c-2.68277,0.27919 -5.26917,-2.60847 -5.77687,-6.44978c-0.50771,-3.8413 1.25552,-7.18162 3.93828,-7.46081c2.68277,-0.27919 5.26917,2.60847 5.77687,6.44978z" data-paper-data="{&quot;origRot&quot;:0}" fill="#ffffff" stroke="none" stroke-width="0" stroke-linecap="butt"/><path d="M247.44587,154.75329c0.84656,0 1.61309,0.54839 2.16887,1.43374c0.55489,0.88533 0.89904,2.10838 0.89904,3.45848c0,1.3501 -0.34415,2.57315 -0.89904,3.45848c-0.55578,0.88533 -1.3223,1.43374 -2.16887,1.43374c-0.84656,0 -1.6131,-0.54841 -2.16888,-1.43374c-0.55489,-0.88533 -0.89904,-2.10838 -0.89904,-3.45848c0,-1.3501 0.34415,-2.57315 0.89904,-3.45848c0.55578,-0.88533 1.32231,-1.43374 2.16888,-1.43374z" id="ID0.2989244391210377" fill="#000000" stroke="#00aaff" stroke-width="1.5" stroke-linecap="butt"/><path d="M259.00611,151.16303c0.84656,0 1.61309,0.5484 2.16887,1.43374c0.55489,0.88533 0.68916,2.29145 0.89903,3.45848c0.07381,0.42531 0.05845,2.02155 -0.56196,3.16927c-0.62041,1.14773 -1.03647,1.92971 -2.23565,2.00617c-1.19917,0.07646 -1.71994,-0.66428 -2.39504,-1.71092c-0.6751,-1.04665 -0.93428,-2.54762 -0.94317,-3.46451c-0.01156,-1.18439 0.34414,-2.57314 0.89903,-3.45848c0.55578,-0.88533 1.32232,-1.43374 2.16889,-1.43374z" id="ID0.2989244391210377" fill="#000000" stroke="#00aaff" stroke-width="1.5" stroke-linecap="round"/><path d="M261.4443,181.57495c-0.32999,2.01082 -2.5298,2.36941 -3.81534,2.67873c-3.92345,0.94407 -7.22336,0.35908 -14.26252,-1.96643c-2.27903,-0.75291 -4.25326,-12.8865 0.99248,-10.37362c0,0 10.63427,3.75307 15.94432,3.4847c0,0 8.57129,-3.55949 11.22803,-3.40344c1.31762,0.0774 1.32623,2.52749 0.91056,3.76494c0,0 0.13526,3.98505 -1.7085,4.88353c-2.65152,1.69143 -2.52826,1.45752 -4.4529,1.73107c-1.92464,0.27354 -4.83613,-0.7995 -4.83613,-0.7995z" fill="url(#color-13)" stroke="none" stroke-width="0" stroke-linecap="butt"/><g fill="none" stroke="#c79260" stroke-width="3.5" stroke-linecap="round"><path d="M206.32423,154.93643c0,0 2.63513,-1.36505 6.00687,0.94648c4.83563,3.31511 1.99636,8.97322 1.99636,8.97322" data-paper-data="{&quot;origPos&quot;:null}"/><path d="M208.73791,160.23443h5.3355" data-paper-data="{&quot;origPos&quot;:null}"/><path d="M212.42193,164.96884h1.14332" data-paper-data="{&quot;origPos&quot;:null}"/></g><path d="M247.76521,155.19484c0.32791,-0.03723 0.66125,0.18158 0.93533,0.56482c0.27373,0.38328 0.48824,0.93133 0.5779,1.55303c0.08965,0.62169 0.03755,1.20003 -0.11858,1.63211c-0.1565,0.43214 -0.417,0.71836 -0.74491,0.75559c-0.32791,0.03723 -0.66124,-0.18158 -0.93532,-0.56481c-0.27373,-0.38328 -0.48825,-0.93133 -0.5779,-1.55303c-0.08965,-0.62169 -0.03756,-1.20002 0.11858,-1.63211c0.1565,-0.43214 0.417,-0.71836 0.74492,-0.75559z" data-paper-data="{&quot;origRot&quot;:0}" id="ID0.2989244391210377" fill="#ffffff" stroke="#00aaff" stroke-width="0" stroke-linecap="butt"/><path d="M259.4171,151.67944c0.32792,-0.03723 0.66124,0.18159 0.93532,0.56483c0.27373,0.38328 0.48825,0.93133 0.5779,1.55303c0.08965,0.62169 0.03755,1.20003 -0.11858,1.63211c-0.15651,0.43214 -0.41699,0.71836 -0.7449,0.75559c-0.32792,0.03723 -0.66125,-0.18158 -0.93533,-0.56482c-0.27373,-0.38328 -0.48825,-0.93133 -0.5779,-1.55303c-0.08965,-0.62169 -0.03755,-1.20003 0.11858,-1.63212c0.15651,-0.43214 0.41699,-0.71837 0.74491,-0.7556z" data-paper-data="{&quot;origRot&quot;:0}" id="ID0.2989244391210377" fill="#ffffff" stroke="#00aaff" stroke-width="0" stroke-linecap="butt"/><path d="M229.13096,165.19896c-5.36512,0.89613 -10.22824,-2.70095 -9.67038,-12.4623c0.22896,-4.00624 -3.10468,-4.75844 -6.51807,-5.65227c-2.91033,0.12673 -7.01689,1.45409 -6.75484,-0.41167c0.49397,-3.51694 4.13657,-5.656 7.93933,-7.32101c1.20218,-0.52637 2.42036,-1.00536 3.56014,-1.46552c3.14512,-1.26979 -4.44906,-0.45649 -6.26009,-2.73344c-1.81101,-2.27696 0.54661,-2.55656 0.60495,-2.58035c1.57951,-0.6434 3.08549,-0.19896 4.67738,0.41944c2.06942,0.80395 2.76677,2.6976 4.83891,1.89931c1.43519,-0.98327 0.95606,-1.86418 2.76422,-4.2183c1.22491,-1.59476 2.36994,-2.82402 3.20508,-2.39947c0.83514,0.42454 0.8375,1.7356 0.72151,2.50365c-0.11598,0.76807 -3.84524,4.77965 -1.91147,4.20963c2.5263,-0.74469 10.96545,-2.80568 12.4275,-2.95943c5.563,-0.58504 8.86277,-0.23341 14.13096,1.47195c2.25128,0.72875 3.4924,1.24216 5.48479,2.43128c1.4696,0.87711 1.04695,0.74839 2.18155,1.96099c1.60511,-0.6413 6.14203,-1.84628 7.36414,1.86695c0.99888,3.03498 -2.90715,5.82778 -2.53796,7.87026c0.74178,4.10361 0.79772,5.61486 -0.83129,11.96437c-1.12896,1.03626 -0.49601,-10.31873 -2.8644,-13.78656c-2.95937,-4.33318 -10.30131,-1.14361 -14.78858,-0.72733c-5.26884,0.48879 -8.3746,0.3547 -13.23491,2.24265c-2.58288,1.00331 -6.06047,5.97725 -6.06047,9.66437c0,0 3.71583,7.26099 1.532,8.21279z" data-paper-data="{&quot;origPos&quot;:null}" fill="url(#color-14)" stroke="#5c3822" stroke-width="1" stroke-linecap="butt"/><path d="M222.29649,149.72141l6.11737,-11.3256c0,0 1.90509,-2.23832 2.79271,-2.50355c0.88762,-0.26523 2.39377,-0.11922 2.39377,-0.11922l1.99478,0.47687l3.05867,2.02669l1.86182,1.90746c0,0 0.76915,0.53092 1.46285,0.47688c0.69369,-0.05408 1.59583,-0.71531 1.59583,-0.71531c0,0 1.35644,-2.27332 2.52002,-3.52505c1.16359,-1.25171 2.79942,-2.19737 2.79942,-2.19737c0,0 0.95792,-0.70876 1.99479,-0.59608c1.03687,0.11267 2.39376,1.07296 2.39376,1.07296c0,0 1.66437,0.49784 2.12777,1.31139c0.4634,0.81353 1.0639,4.29179 1.0639,4.29179l1.46285,-0.23843l4.38855,-2.21094l2.39376,-0.35763l2.12777,0.60148c0,0 0.56932,0.54388 0.79791,0.95375c0.22859,0.40985 0.66493,1.66903 0.66493,1.66903l-0.39895,2.50355l-1.59583,2.56315l-1.99479,2.74197" data-paper-data="{&quot;origPos&quot;:null}" fill="none" stroke="#5c3822" stroke-width="1" stroke-linecap="round"/><path d="M271.08247,167.60638c-0.44462,5.22206 1.00255,8.77837 -11.78255,8.58111c-5.89254,-0.09093 -11.56025,-3.35905 -11.56025,-7.98931c0,-4.63025 5.68462,-10.34487 11.56025,-10.75105c8.56117,-0.5918 12.49388,1.80473 11.78255,10.15925z" fill="url(#color-15)" stroke="#c79260" stroke-width="1.5" stroke-linecap="butt"/><path d="M242.1158,149.95953c-1.2234,0.32373 -1.16548,0.47711 -1.75933,1.4799c-0.61264,1.03452 -1.90883,2.36682 -1.90883,2.36682c0,0 -1.29682,-2.862 -1.29682,-4.98648c0,-1.44249 0.88334,-3.95669 3.38899,-4.46094c8.47554,-0.2532 5.95264,6.82616 5.95264,6.82616c0,0 -3.09218,-1.59645 -4.37665,-1.22545z" fill="#38291e" stroke="none" stroke-width="0" stroke-linecap="butt"/><path d="M256.71492,146.28795c-1.34847,0.07036 -3.57123,2.55773 -3.57123,2.55773c0,0 -5.25949,-5.77482 2.73605,-8.28264c2.54028,-0.34159 4.39638,1.7134 4.98942,3.05649c0.87341,1.97807 0.84258,5.06262 0.84258,5.06262c0,0 -1.75461,-0.82091 -2.75033,-1.58582c-0.96519,-0.74145 -0.97431,-0.90299 -2.24648,-0.8084z" data-paper-data="{&quot;index&quot;:null,&quot;origRot&quot;:0}" fill="#38291e" stroke="none" stroke-width="0" stroke-linecap="butt"/></g><g data-paper-data="{&quot;origPos&quot;:null,&quot;origRot&quot;:0}" stroke-linecap="butt"><path d="M240.47834,193.27921l0.24951,14.31933c0,0 -7.98118,1.37345 -16.41652,1.44567c-6.11124,0.17676 -10.99827,-5.9073 -11.1915,-9.5238c0.31738,-4.51934 2.13082,-7.06167 7.33534,-7.74211z" data-paper-data="{&quot;origRot&quot;:0}" fill="url(#color-16)" stroke="none" stroke-width="0"/><g data-paper-data="{&quot;origPos&quot;:null}" stroke="#cbcbcb" stroke-width="1.5"><path d="M254.78863,185.71917c9.5459,-1.14649 9.79139,7.1834 11.62734,16.2193c1.68247,8.28047 -7.15134,16.8359 -13.37033,16.97054c-8.57246,0.1856 -8.85962,-10.25138 -8.72672,-18.67276c0.13288,-8.42138 1.55641,-13.44656 10.46973,-14.51708z" data-paper-data="{&quot;origRot&quot;:0,&quot;origPos&quot;:null}" fill="url(#color-17)"/><path d="M241.98647,188.22097c5.93641,0.03247 3.82332,1.85864 3.93673,13.97382c0.09955,10.63494 0.39703,12.33919 -5.00213,12.58186c-4.8263,0.21693 -3.4931,-7.15562 -3.39876,-13.65772c0.09434,-6.50212 0.99773,-12.9169 4.46417,-12.89795z" data-paper-data="{&quot;origRot&quot;:0,&quot;origPos&quot;:null}" fill="url(#color-18)"/></g></g></g></g></svg>