<svg version="1.1" xmlns="http://www.w3.org/2000/svg" xmlns:xlink="http://www.w3.org/1999/xlink" width="58.16605" height="43.18645" viewBox="0,0,58.16605,43.18645"><g transform="translate(-210.91698,-291.03459)"><g data-paper-data="{&quot;isPaintingLayer&quot;:true}" fill-rule="nonzero" stroke="none" stroke-linecap="butt" stroke-linejoin="miter" stroke-miterlimit="10" stroke-dasharray="" stroke-dashoffset="0" style="mix-blend-mode: normal"><g><path d="M210.91699,291.23174l57.96678,-0.19715l0.19927,6.89895l-7.09949,4.61421v31.37038h-43.77205v-31.37038l-6.53539,-5.48258z" fill="#b96126" stroke-width="1.97993"/><path d="M218.17354,303.21566h43.94906v2.15696h-43.94906z" fill="#d49356" stroke-width="1.97993"/><path d="M218.17354,318.71827h43.94906v2.15696h-43.94906z" fill="#d49356" stroke-width="1.97993"/><path d="M227.92463,304.5729h2.44156v14.81944h-2.44156z" fill="#d49356" stroke-width="2.04765"/><path d="M250.45711,304.97732h2.4417v14.81944h-2.4417z" fill="#d49356" stroke-width="2.04765"/><path d="M217.09117,291.29921l2.28558,-0.07836l4.85985,12.99714l-2.28558,0.86355z" fill="#d49356" stroke-width="1.97993"/><path d="M238.92728,318.86739h2.44155v15.35365h-2.44155z" fill="#d49356" stroke-width="2.08727"/><path d="M260.90925,291.07756l2.29619,0.04944l-4.69708,13.84266l-2.29618,-0.83462z" fill="#d49356" stroke-width="1.97993"/><path d="M239.2722,291.35329h2.44169v13.8849h-2.44169z" fill="#d49356" stroke-width="1.97993"/></g></g></g></svg>