<svg xmlns="http://www.w3.org/2000/svg" xmlns:xlink="http://www.w3.org/1999/xlink" version="1.1" width="9.24213981628418" height="14.32382869720459" viewBox="0.2580000162124634 -0.20799997448921204 9.24213981628418 14.32382869720459">
  <!-- Exported by Scratch - http://scratch.mit.edu/ -->
  <path id="path1225" fill="#000000" stroke="none" stroke-width="0.26458332" d="M 5.08 0.292 C 7.579 0.572 8.828 0.748 8.828 0.822 C 8.858 6.319 8.872 10.523 8.872 13.433 C 8.872 13.463 8.872 13.492 8.872 13.522 C 8.858 13.551 8.843 13.58 8.828 13.61 C 10.122 13.654 3.654 13.433 4.948 13.478 C 4.948 13.448 4.933 13.433 4.904 13.433 C 5.08 8.517 5.168 5.9 5.168 5.584 C 5.168 5.584 3.845 6.863 3.845 6.863 C 3.772 6.819 2.743 5.731 0.758 3.6 C 2.317 2.365 3.757 1.263 5.08 0.292 C 5.08 0.292 5.08 0.292 5.08 0.292 Z "/>
</svg>