<svg version="1.1" xmlns="http://www.w3.org/2000/svg" xmlns:xlink="http://www.w3.org/1999/xlink" width="175.27832" height="143.76133" viewBox="0,0,175.27832,143.76133"><defs><linearGradient x1="255.14219" y1="91.92809" x2="189.98809" y2="136.1027" gradientUnits="userSpaceOnUse" id="color-1"><stop offset="0" stop-color="#91eb2b"/><stop offset="1" stop-color="#6bd026"/></linearGradient><linearGradient x1="242.23163" y1="179.41404" x2="257.21889" y2="167.37962" gradientUnits="userSpaceOnUse" id="color-2"><stop offset="0" stop-color="#7ebd31"/><stop offset="1" stop-color="#8ed638"/></linearGradient><linearGradient x1="259.43297" y1="213.1551" x2="288.38069" y2="189.91077" gradientUnits="userSpaceOnUse" id="color-3"><stop offset="0" stop-color="#d2c997"/><stop offset="1" stop-color="#f1e9c0"/></linearGradient><linearGradient x1="251.89704" y1="198.98083" x2="274.97875" y2="180.44675" gradientUnits="userSpaceOnUse" id="color-4"><stop offset="0" stop-color="#d2c997"/><stop offset="1" stop-color="#f1e9c0"/></linearGradient><linearGradient x1="215.41145" y1="172.78927" x2="171.25741" y2="189.64242" gradientUnits="userSpaceOnUse" id="color-5"><stop offset="0" stop-color="#6ed226"/><stop offset="1" stop-color="#8be62a"/></linearGradient><linearGradient x1="192.11807" y1="180.75287" x2="174.86766" y2="187.33718" gradientUnits="userSpaceOnUse" id="color-6"><stop offset="0" stop-color="#f6efca" stop-opacity="0"/><stop offset="1" stop-color="#f6efca"/></linearGradient><linearGradient x1="168.0688" y1="172.38772" x2="181.91898" y2="208.67418" gradientUnits="userSpaceOnUse" id="color-7"><stop offset="0" stop-color="#d2ceb4"/><stop offset="1" stop-color="#d2ceb4" stop-opacity="0"/></linearGradient><radialGradient cx="258.31937" cy="172.73081" r="28.00416" gradientUnits="userSpaceOnUse" id="color-8"><stop offset="0" stop-color="#94ff29"/><stop offset="1" stop-color="#8ee933"/></radialGradient><linearGradient x1="253.95929" y1="160.49242" x2="212.33017" y2="177.12152" gradientUnits="userSpaceOnUse" id="color-9"><stop offset="0" stop-color="#eae3c0"/><stop offset="1" stop-color="#fcf4ca"/></linearGradient><linearGradient x1="208.25396" y1="156.15189" x2="161.65732" y2="156.3295" gradientUnits="userSpaceOnUse" id="color-10"><stop offset="0" stop-color="#8ee933"/><stop offset="1" stop-color="#99f135"/></linearGradient><linearGradient x1="184.94139" y1="154.98132" x2="167.07886" y2="155.04941" gradientUnits="userSpaceOnUse" id="color-11"><stop offset="0" stop-color="#fff7d1" stop-opacity="0"/><stop offset="1" stop-color="#fff7d1"/></linearGradient><linearGradient x1="164.76549" y1="139.06013" x2="164.91354" y2="177.89974" gradientUnits="userSpaceOnUse" id="color-12"><stop offset="0" stop-color="#d2ceb4"/><stop offset="1" stop-color="#d2ceb4" stop-opacity="0"/></linearGradient><linearGradient x1="228.96274" y1="166.37746" x2="243.92938" y2="147.56898" gradientUnits="userSpaceOnUse" id="color-13"><stop offset="0" stop-color="#64cb25"/><stop offset="1" stop-color="#97ef2c"/></linearGradient><linearGradient x1="245.40529" y1="199.49635" x2="267.52378" y2="171.7002" gradientUnits="userSpaceOnUse" id="color-14"><stop offset="0" stop-color="#d1cdb3"/><stop offset="1" stop-color="#fcf4ca"/></linearGradient><linearGradient x1="239.34855" y1="184.49613" x2="257.13894" y2="162.13906" gradientUnits="userSpaceOnUse" id="color-15"><stop offset="0" stop-color="#d1cdb3"/><stop offset="1" stop-color="#fcf4ca"/></linearGradient><linearGradient x1="302.84473" y1="105.18698" x2="259.11373" y2="155.8444" gradientUnits="userSpaceOnUse" id="color-16"><stop offset="0" stop-color="#70d10b"/><stop offset="1" stop-color="#bbf581"/></linearGradient><linearGradient x1="271.24392" y1="138.99029" x2="255.27694" y2="157.48624" gradientUnits="userSpaceOnUse" id="color-17"><stop offset="0" stop-color="#70d10a" stop-opacity="0"/><stop offset="1" stop-color="#70d10a"/></linearGradient><linearGradient x1="285.54334" y1="113.35466" x2="245.44719" y2="159.80152" gradientUnits="userSpaceOnUse" id="color-18"><stop offset="0" stop-color="#ffead6"/><stop offset="1" stop-color="#f5b677"/></linearGradient><linearGradient x1="285.35819" y1="113.39102" x2="272.366" y2="128.44099" gradientUnits="userSpaceOnUse" id="color-19"><stop offset="0" stop-color="#f5b477"/><stop offset="1" stop-color="#f5b477" stop-opacity="0"/></linearGradient><linearGradient x1="267.33083" y1="112.92303" x2="275.26349" y2="119.77104" gradientUnits="userSpaceOnUse" id="color-20"><stop offset="0" stop-color="#5a2c0a"/><stop offset="1" stop-color="#82491d"/></linearGradient><radialGradient cx="284.64947" cy="165.25196" r="17.79896" gradientUnits="userSpaceOnUse" id="color-21"><stop offset="0" stop-color="#563e2d"/><stop offset="1" stop-color="#38291e"/></radialGradient><radialGradient cx="297.57298" cy="152.40862" r="13.17095" gradientUnits="userSpaceOnUse" id="color-22"><stop offset="0" stop-color="#ffead6"/><stop offset="1" stop-color="#f7c594"/></radialGradient><linearGradient x1="297.08687" y1="82.51332" x2="282.79652" y2="99.0671" gradientUnits="userSpaceOnUse" id="color-23"><stop offset="0" stop-color="#70d10b"/><stop offset="1" stop-color="#79d51a"/></linearGradient><linearGradient x1="326.52912" y1="105.87645" x2="312.90238" y2="121.66149" gradientUnits="userSpaceOnUse" id="color-24"><stop offset="0" stop-color="#70d10b"/><stop offset="1" stop-color="#79d51a"/></linearGradient></defs><g transform="translate(-153.34136,-73.80825)"><g data-paper-data="{&quot;isPaintingLayer&quot;:true}" fill-rule="nonzero" stroke-linejoin="miter" stroke-miterlimit="10" stroke-dasharray="" stroke-dashoffset="0" style="mix-blend-mode: normal"><path d="M202.69915,154.79558c-4.27328,-5.20233 -2.45303,-18.23773 -2.53585,-24.58026c-0.10838,-8.29955 0.42464,-15.87789 2.14712,-24.10344c0.91363,-4.36299 1.33602,-10.06154 3.97409,-14.00688c3.33217,-4.9834 7.61539,-7.69642 12.67539,-11.07257c4.06158,-2.70999 14.73947,-7.72542 19.39368,-7.18359c1.25394,0.14597 6.18216,2.39367 6.78659,3.32733c0.28326,0.43755 0.91605,6.74916 0.57888,7.53617c-2.29108,5.34791 -11.09439,5.24522 -15.56201,7.14947c-11.20753,4.77704 -12.64842,11.50406 -14.35974,22.38085c-1.42614,9.06413 -1.25333,19.35413 -0.70101,28.5433c0.10679,1.77675 1.9163,8.52396 0.43316,9.76492c-0.52357,1.41698 -1.47894,2.68973 -2.82461,3.6021c-2.9501,2.00018 -6.81481,1.6166 -9.31676,-0.71371c-0.25016,-0.17785 -0.4809,-0.39044 -0.68892,-0.64369z" data-paper-data="{&quot;origPos&quot;:null,&quot;origRot&quot;:0}" fill="url(#color-1)" stroke="none" stroke-width="0.5" stroke-linecap="butt"/><g data-paper-data="{&quot;origPos&quot;:null,&quot;origRot&quot;:0}" stroke-linecap="butt"><path d="M237.45436,158.75987c4.19046,-3.27064 13.85571,1.05067 19.84482,8.72411c5.9891,7.67345 10.5362,15.862 10.5362,15.862l-12.46263,9.95923c0,0 -10.83403,-10.85334 -15.65113,-17.02517c-5.9891,-7.67345 -6.45772,-14.24953 -2.26727,-17.52017z" data-paper-data="{&quot;origRot&quot;:0,&quot;origPos&quot;:null}" fill="url(#color-2)" stroke="none" stroke-width="0"/><g data-paper-data="{&quot;origPos&quot;:null}" stroke="#b3b092" stroke-width="1.5"><path d="M264.18549,192.92617c7.12885,-6.10982 16.28807,-13.27367 22.2783,-5.39571c4.09614,5.38699 6.27173,8.25299 4.43741,14.86653c-1.83432,6.61354 -8.94558,-1.28504 -9.12527,-0.90925c-0.15238,0.31871 5.25227,1.83264 5.1823,4.33157c-0.06996,2.49894 -2.30194,5.73559 -5.11353,5.80465c-2.81159,0.06906 -5.60199,-4.4697 -5.86968,-4.32098c-0.09787,0.05437 5.04073,3.40025 3.86708,6.00392c-1.17365,2.60366 -3.10126,3.43936 -6.23673,2.97065c-3.13546,-0.46872 -4.75705,-4.78358 -5.09076,-4.64986c-0.25739,0.10315 5.27132,4.81563 2.9299,5.1919c-2.34142,0.37627 -9.25265,0.64029 -12.20188,-4.10777c-5.47563,-8.81537 -2.18599,-13.67582 4.94286,-19.78565z" data-paper-data="{&quot;origRot&quot;:0}" fill="url(#color-3)"/><path d="M260.06712,186.15704c5.51009,-4.7099 10.87815,-11.15831 14.1542,-6.64304c3.66492,5.05122 1.98955,5.99457 -7.20491,13.46877c-10.4742,8.5145 -10.52496,11.72273 -14.81127,6.38176c-2.50292,-3.11875 2.3519,-8.49759 7.86198,-13.20749z" data-paper-data="{&quot;origRot&quot;:0}" fill="url(#color-4)"/></g><path d="M268.4493,194.1923c3.0985,-2.48802 7.24105,-2.47413 9.25265,0.03105c2.01159,2.50518 1.13048,6.55296 -1.96803,9.04099c-3.0985,2.48802 -7.24106,2.47412 -9.25265,-0.03106c-2.01159,-2.50518 -1.13047,-6.55295 1.96803,-9.04098z" fill="#e29392" stroke="#bf6d6c" stroke-width="1.5"/></g><g data-paper-data="{&quot;origPos&quot;:null,&quot;origRot&quot;:0}"><path d="M192.84213,194.37129c-4.33385,1.92178 -4.22655,7.40451 -5.27748,7.63379c-4.25209,0.92767 -7.78754,0.16847 -12.1311,-5.53176c-5.38046,-7.06101 -7.21711,-13.52044 -5.59447,-22.3106c1.10516,-5.98686 5.29199,-2.69233 11.51856,-2.95338c2.23426,-0.09367 5.01306,-0.59199 10.4393,-2.12795c6.78421,-1.92035 20.03426,-3.07984 20.03426,-3.07984c0,0 2.68814,4.68164 4.64178,9.56948c1.87919,4.85542 1.65676,10.48619 1.65676,10.48619c0,0 -15.26938,3.87165 -25.28762,8.31407z" data-paper-data="{&quot;origPos&quot;:null}" fill="url(#color-5)" stroke="none" stroke-width="0" stroke-linecap="butt"/><path d="M179.29807,209.22774c-4.91108,0.41183 -9.70177,-2.64808 -12.72977,-10.58122c-3.028,-7.93314 -1.4927,-18.24196 -1.4927,-18.24196c0,0 -2.5059,-5.62353 -1.02123,-6.32333c3.07287,-1.44842 8.21553,-3.47423 8.82496,-2.38433c2.24984,4.02359 1.34402,3.44744 4.7073,8.54805c2.17755,3.30239 8.04591,7.96836 9.45414,11.65783c3.028,7.93314 0.34348,16.6469 -7.74269,17.32499z" data-paper-data="{&quot;origPos&quot;:null}" fill="#fff6cb" stroke="#b3b092" stroke-width="1.5" stroke-linecap="butt"/><path d="M192.84213,194.37129c-4.33385,1.92178 -3.2345,4.89703 -4.28544,5.12632c-4.25209,0.92767 -7.25941,-8.76871 -7.25941,-8.76871c0,0 -3.53934,-4.90622 -11.33303,-16.23827c1.10516,-5.98686 5.16683,-3.02024 11.39341,-3.28129c1.65009,-0.06918 3.59722,-0.35908 6.68846,-1.12467c0.9225,2.65112 1.8876,5.29591 2.97749,7.90748c1.95372,4.68147 2.66537,10.35903 5.49336,14.6301c-2.30005,0.82874 -1.63667,0.84524 -3.67482,1.74902z" data-paper-data="{&quot;origPos&quot;:null}" fill="url(#color-6)" stroke="none" stroke-width="0" stroke-linecap="butt"/><path d="M179.29807,209.22774c-4.91108,0.41183 -9.70177,-2.64808 -12.72977,-10.58122c-3.028,-7.93314 -1.4927,-18.24196 -1.4927,-18.24196c0,0 -2.5059,-5.62353 -1.02123,-6.32333c3.07287,-1.44842 8.21553,-3.47423 8.82496,-2.38433c2.24984,4.02359 1.34402,3.44744 4.7073,8.54805c2.17755,3.30239 8.04591,7.96836 9.45414,11.65783c3.028,7.93314 0.34348,16.6469 -7.74269,17.32499z" data-paper-data="{&quot;origPos&quot;:null}" fill="url(#color-7)" stroke="#b3b092" stroke-width="0" stroke-linecap="butt"/><path d="M175.15564,196.42857l0.09588,1.99711l-1.13322,1.39587l-1.73496,0.98333l-2.39796,0.7012l-1.45416,0.55504" fill="none" stroke="#b3b092" stroke-width="1.5" stroke-linecap="round"/><path d="M179.92275,201.35233l0.09587,1.99711l-1.13322,1.39587l-1.73495,0.98333l-2.39797,0.70121l-1.45415,0.55504" fill="none" stroke="#b3b092" stroke-width="1.5" stroke-linecap="round"/><path d="M185.02297,203.36598l0.09588,1.99711l-1.13322,1.39587l-1.73496,0.98333l-2.39797,0.7012l-1.45415,0.55504" fill="none" stroke="#b3b092" stroke-width="1.5" stroke-linecap="round"/></g><g data-paper-data="{&quot;origPos&quot;:null,&quot;origRot&quot;:0}" stroke-linecap="butt"><path d="M242.72609,186.66107c-22.05487,9.23173 -33.38288,-0.78454 -39.01691,-14.88872c-5.63403,-14.10418 0.24915,-29.92777 10.9039,-34.1839c11.55864,-4.6172 21.24899,-7.06826 31.76001,-2.11084c7.83103,3.69342 8.65545,13.19608 11.70224,20.82335c5.63403,14.10418 6.26946,21.31096 -15.34925,30.36011z" data-paper-data="{&quot;origPos&quot;:null}" fill="url(#color-8)" stroke="#73d626" stroke-width="1.5"/><path d="M240.98547,183.60213c-17.41258,7.20639 -25.37205,1.73866 -28.7224,-6.64857c-3.35035,-8.38724 2.18545,-18.61074 10.58393,-21.96559c9.11095,-3.63944 16.65455,-5.80848 24.32915,-3.42936c5.7178,1.77252 5.71203,7.62155 7.52384,12.15721c3.35035,8.38724 3.35371,12.82245 -13.71452,19.88631z" fill="url(#color-9)" stroke="#d2ceb4" stroke-width="0"/></g><g data-paper-data="{&quot;origPos&quot;:null,&quot;origRot&quot;:0}"><path d="M180.18276,168.37401c-4.73325,0.26805 -6.56844,5.43562 -7.63264,5.27913c-4.3058,-0.63319 -7.34558,-2.59163 -9.39708,-9.45825c-2.54124,-8.50583 -1.97925,-15.19775 2.64212,-22.84907c3.14756,-5.21122 5.90172,-0.65072 11.81953,1.30321c2.12347,0.70113 4.89927,1.2159 10.51836,1.69449c7.02533,0.59835 20.09383,4.94024 20.09383,4.94024c0,0 0.09262,7.58214 -0.8437,12.59892c-0.73893,3.95917 -3.44896,10.40082 -3.44896,10.40082c0,0 -12.80997,-4.5291 -23.75145,-3.90949z" data-paper-data="{&quot;origPos&quot;:null}" fill="url(#color-10)" stroke="none" stroke-width="0" stroke-linecap="butt"/><path d="M162.26596,177.49237c-4.74024,-1.34846 -8.14222,-5.90262 -8.17459,-14.39395c-0.03236,-8.49132 5.04343,-17.59435 5.04343,-17.59435c0,0 -0.35925,-6.1461 1.27688,-6.27671c3.38635,-0.27033 8.91305,-0.35017 9.09848,0.8847c0.68451,4.55879 0.04041,3.69994 1.38645,9.65947c0.87149,3.85851 4.71474,10.29575 4.72979,14.24481c0.03236,8.49132 -5.55554,15.69629 -13.36044,13.47603z" data-paper-data="{&quot;origPos&quot;:null}" fill="#fff6cb" stroke="#b3b092" stroke-width="1.5" stroke-linecap="butt"/><path d="M180.18361,168.59391c-4.73325,0.26805 -4.69347,3.01751 -5.75769,2.86101c-4.3058,-0.63319 -5.59906,-12.96849 -5.59906,-12.96849c0,0 -2.63739,-18.6715 -1.44259,-19.28374c2.65657,-1.36128 7.38553,2.72663 10.23129,3.66624c1.59634,0.52708 3.56135,0.94884 6.82585,1.32909c0.94236,8.11191 0.2752,16.21212 0.13197,24.39703c-1.47332,-0.07504 -2.94774,-0.0828 -4.38975,-0.00115z" fill="url(#color-11)" stroke="none" stroke-width="0" stroke-linecap="butt"/><path d="M162.26596,177.49237c-4.74024,-1.34846 -8.14222,-5.90262 -8.17459,-14.39395c-0.03236,-8.49132 5.04343,-17.59435 5.04343,-17.59435c0,0 -0.35925,-6.1461 1.27688,-6.27671c3.38635,-0.27033 8.91305,-0.35017 9.09848,0.8847c0.68451,4.55879 0.04041,3.69994 1.38645,9.65947c0.87149,3.85851 4.71474,10.29575 4.72979,14.24481c0.03236,8.49132 -5.55554,15.69629 -13.36044,13.47603z" data-paper-data="{&quot;origPos&quot;:null}" fill="url(#color-12)" stroke="#b3b092" stroke-width="0" stroke-linecap="butt"/><path d="M162.85691,164.0551l-0.61534,1.90236l-1.55303,0.90592l-1.97039,0.30751l-2.49112,-0.19051l-1.55647,0.00593" fill="none" stroke="#b3b092" stroke-width="1.5" stroke-linecap="round"/><path d="M165.57883,170.34477l-0.61535,1.90236l-1.55304,0.90592l-1.97039,0.30751l-2.49112,-0.19051l-1.55647,0.00593" fill="none" stroke="#b3b092" stroke-width="1.5" stroke-linecap="round"/><path d="M169.63977,174.02931l-0.61535,1.90236l-1.55304,0.90592l-1.97039,0.30751l-2.49112,-0.19051l-1.55647,0.00593" fill="none" stroke="#b3b092" stroke-width="1.5" stroke-linecap="round"/></g><g data-paper-data="{&quot;origPos&quot;:null,&quot;origRot&quot;:0}"><path d="M241.4619,146.90293c4.69343,6.2664 12.32757,19.56643 12.32757,19.56643l-12.87763,9.41647c0,0 -6.71043,-6.53444 -12.54576,-14.32546c-5.83534,-7.79102 -7.47219,-18.25101 -3.21751,-21.43768c4.25466,-3.18668 10.478,-1.01077 16.31334,6.78025z" data-paper-data="{&quot;origRot&quot;:0,&quot;origPos&quot;:null}" fill="url(#color-13)" stroke="none" stroke-width="0" stroke-linecap="butt"/><path d="M271.38554,175.12894c7.57382,8.1338 0.15125,13.70481 -6.82687,21.20638c-6.39472,6.87443 -20.2328,4.15446 -24.60909,-1.53731c-6.03241,-7.8457 3.28172,-14.80697 11.04649,-20.0851c7.76476,-5.27813 13.31754,-7.17877 20.38947,0.41603z" data-paper-data="{&quot;origRot&quot;:0,&quot;origPos&quot;:null}" fill="url(#color-14)" stroke="#b3b092" stroke-width="1.5" stroke-linecap="butt"/><path d="M260.34953,164.839c4.03075,5.53639 0.92136,4.74445 -10.04085,12.62069c-9.62285,6.91393 -10.97236,8.28344 -14.88636,3.42268c-3.49872,-4.34502 4.13128,-7.8352 10.12077,-11.91811c5.98949,-4.08292 12.45278,-7.35812 14.80644,-4.12526z" data-paper-data="{&quot;origRot&quot;:0,&quot;origPos&quot;:null}" fill="url(#color-15)" stroke="#b3b092" stroke-width="1.5" stroke-linecap="butt"/><path d="M264.49431,195.46838l-0.97369,-1.14103l-1.76477,-1.64909l-0.92301,-1.71011l-0.04269,-1.93547l1.57594,-2.13358" data-paper-data="{&quot;index&quot;:null,&quot;origRot&quot;:0}" fill="none" stroke="#b3b092" stroke-width="1.5" stroke-linecap="round"/><path d="M256.28969,199.05174l-0.97368,-1.14102l-1.76477,-1.6491l-0.923,-1.71012l-0.0427,-1.93547l1.57595,-2.13358" data-paper-data="{&quot;index&quot;:null,&quot;origRot&quot;:0}" fill="none" stroke="#b3b092" stroke-width="1.5" stroke-linecap="round"/><path d="M249.93073,199.35113l-0.97368,-1.14103l-1.76478,-1.6491l-0.923,-1.71012l-0.0427,-1.93547l1.57595,-2.13358" data-paper-data="{&quot;index&quot;:null,&quot;origRot&quot;:0}" fill="none" stroke="#b3b092" stroke-width="1.5" stroke-linecap="round"/></g><g data-paper-data="{&quot;origPos&quot;:null,&quot;origRot&quot;:0}"><path d="M295.22273,169.77474c-17.95608,9.05072 -25.3394,-0.10442 -40.51811,-13.20774c-15.17872,-13.10332 -20.92025,-27.3137 -16.20435,-37.52884c3.55798,-7.70698 8.90228,-7.88141 16.87736,-10.78907c0.45491,-0.16586 16.14943,-18.17746 25.92813,-19.48292c7.107,-0.94879 23.97781,15.46964 29.40524,20.15498c0,0 10.21557,8.61495 10.49166,16.52803c0,0 -14.75707,22.43877 -14.97832,23.05253c-1.91363,5.30842 4.09272,5.44691 -2.48293,14.97583z" data-paper-data="{&quot;origPos&quot;:null}" fill="url(#color-16)" stroke="none" stroke-width="0" stroke-linecap="butt"/><path d="M254.54126,156.75624c-15.17872,-13.10332 -20.92025,-27.3137 -16.20435,-37.52884c1.21052,-2.62213 2.47654,-4.19709 3.93425,-5.24841c1.16884,3.83274 6.1388,18.02865 8.2934,20.67774c8.86481,10.89932 14.78144,14.88755 24.86758,23.78262c10.08614,8.89507 10.83685,8.68931 16.70229,12.8783c-15.88392,6.65759 -23.26583,-2.19306 -37.59316,-14.5614z" data-paper-data="{&quot;origPos&quot;:null}" fill="url(#color-17)" stroke="none" stroke-width="0" stroke-linecap="butt"/><path d="M306.27286,132.45637c4.82889,6.91173 -1.19534,10.87574 -6.33336,17.75353c-5.90762,7.90797 -15.10207,15.02422 -18.99091,20.67201c-4.17106,6.05767 -7.18242,8.51748 -13.91534,7.34578c-12.78738,-9.77348 -8.28064,-10.66293 -12.2858,-17.3244c-3.22925,-5.83085 -5.37088,-10.13778 -6.74748,-18.8229c-0.86468,-5.45532 1.20651,-7.70878 2.3649,-11.56107c0.41233,-0.26102 0.79031,-0.49355 0.96949,-0.68479c3.19744,-3.41226 8.88755,-7.90458 12.14102,-11.15641c4.27168,-4.26954 8.80906,-7.06898 14.07314,-8.10683c0,0 8.77465,2.00632 15.24129,7.34312c12.00489,9.90744 11.16261,11.40807 13.48305,14.54195z" data-paper-data="{&quot;origPos&quot;:null}" fill="url(#color-18)" stroke="none" stroke-width="0" stroke-linecap="butt"/><path d="M306.43087,131.14576c5.9835,5.77502 -1.05322,12.01001 -6.12007,18.52004c-1.18516,-0.73747 -21.93392,-17.83658 -37.59967,-30.58187c0.95047,-0.22436 3.28267,-3.00286 5.72706,-4.44061c2.44438,-1.43775 2.76683,-4.12714 8.1142,-3.97523c5.5528,0.15775 11.37102,3.75439 17.34632,8.07416c5.97531,4.31977 9.29198,9.27623 12.53217,12.40353z" data-paper-data="{&quot;origPos&quot;:null}" fill="url(#color-19)" stroke="none" stroke-width="0" stroke-linecap="butt"/><path d="M305.03717,141.76351c-2.92795,3.93091 -7.27634,5.6466 -9.7124,3.83209c-2.43606,-1.8145 -2.0373,-6.47209 0.89065,-10.40299c2.92795,-3.93091 7.27634,-5.64658 9.7124,-3.83208c2.43606,1.8145 2.0373,6.47209 -0.89065,10.40299z" data-paper-data="{&quot;origPos&quot;:null,&quot;origRot&quot;:0}" fill="#ffffff" stroke="none" stroke-width="0" stroke-linecap="butt"/><path d="M268.34022,126.54049c-2.28704,-1.08004 -3.85681,-3.9113 -4.03472,-6.36981c-0.09446,-1.30549 0.0645,-1.2331 0.69847,-2.56396c3.29728,-2.10403 4.33068,-3.78373 7.83134,-5.52854c1.63858,-0.81672 2.32107,-0.69685 4.77063,-0.90099c3.53587,4.13224 -2.70001,3.4887 -4.67181,7.72986c-2.39931,5.16061 -2.82318,8.46967 -4.59391,7.63345z" data-paper-data="{&quot;origPos&quot;:null}" fill="url(#color-20)" stroke="#5c3822" stroke-width="1" stroke-linecap="butt"/><path d="M291.90878,137.04173c-2.74897,4.05809 -7.01617,5.9668 -9.53104,4.26322c-2.51488,-1.70359 -2.3251,-6.37436 0.42387,-10.43245c2.74897,-4.05809 7.01617,-5.9668 9.53103,-4.26321c2.51488,1.70358 2.32511,6.37436 -0.42386,10.43245z" data-paper-data="{&quot;origPos&quot;:null,&quot;origRot&quot;:0}" fill="#ffffff" stroke="none" stroke-width="0" stroke-linecap="butt"/><path d="M292.17863,132.45501c0.72062,0.6221 0.91897,1.71146 0.65889,2.96919c-0.26084,1.25707 -0.98076,2.68325 -2.09883,3.97841c-1.11807,1.29516 -2.42388,2.21555 -3.6294,2.65711c-1.20628,0.4409 -2.31294,0.40371 -3.03357,-0.21839c-0.72062,-0.6221 -0.91898,-1.71147 -0.65889,-2.96919c0.26084,-1.25707 0.98076,-2.68324 2.09883,-3.97841c1.11807,-1.29516 2.42388,-2.21556 3.62941,-2.65711c1.20628,-0.4409 2.31294,-0.4037 3.03357,0.21839z" data-paper-data="{&quot;origPos&quot;:null}" id="ID0.2989244391210377" fill="#000000" stroke="#00aaff" stroke-width="1.5" stroke-linecap="butt"/><path d="M304.99235,137.50581c0.72062,0.6221 0.91897,1.71147 0.65888,2.96919c-0.26084,1.25707 -1.31101,2.70464 -2.09883,3.97841c-0.28939,0.46224 -0.68816,1.15372 -1.28977,1.26451c-0.74266,0.12115 -1.52706,-0.19139 -2.23273,-0.47427c-1.12064,-0.62393 -2.75777,-1.01074 -3.17568,-2.21304c-0.35222,-1.07028 0.72341,-2.19996 1.47516,-3.08608c0.971,-1.1447 2.42388,-2.21556 3.62941,-2.65711c1.20628,-0.4409 2.31294,-0.4037 3.03357,0.21839z" data-paper-data="{&quot;origPos&quot;:null}" id="ID0.2989244391210377" fill="#000000" stroke="#00aaff" stroke-width="1.5" stroke-linecap="round"/><path d="M281.56053,168.84482c-1.94616,1.68651 -4.11568,0.41398 -5.46613,-0.23395c-4.12161,-1.97747 -6.44615,-4.9636 -10.51228,-12.36716c-1.31647,-2.39701 7.05133,-15.48764 9.43568,-9.22221c0,0 5.94419,11.41491 10.68653,15.05953c0,0 10.24397,2.88391 12.37624,4.98591c1.0575,1.0425 -0.96419,3.39923 -2.34282,4.28088c0,0 -2.86317,3.54945 -5.17673,3.0565c-3.65783,-0.32585 -4.67014,-2.43302 -5.23336,-1.94494z" data-paper-data="{&quot;origPos&quot;:null}" fill="url(#color-21)" stroke="none" stroke-width="0" stroke-linecap="butt"/><path d="M301.6547,162.15436c-4.7031,4.68285 -6.41635,9.15791 -17.13611,-0.42641c-4.94064,-4.41733 -7.05872,-11.71735 -3.2242,-16.15921c3.83452,-4.44186 13.40598,-5.74664 18.74389,-1.8186c7.77767,5.72341 9.14067,10.91236 1.61642,18.40422z" data-paper-data="{&quot;origPos&quot;:null}" fill="url(#color-22)" stroke="#c79260" stroke-width="1.5" stroke-linecap="butt"/><path d="M292.19973,132.9801c0.30996,0.20524 0.4125,0.66011 0.32843,1.22916c-0.08441,0.56884 -0.35567,1.25222 -0.79421,1.9145c-0.43853,0.66227 -0.96182,1.17879 -1.45256,1.47856c-0.49107,0.29954 -0.94987,0.38271 -1.25983,0.17746c-0.30996,-0.20524 -0.4125,-0.66011 -0.32843,-1.22916c0.08441,-0.56884 0.35567,-1.25223 0.79421,-1.91451c0.43853,-0.66227 0.96182,-1.17879 1.45256,-1.47855c0.49107,-0.29954 0.94988,-0.38271 1.25984,-0.17746z" data-paper-data="{&quot;origPos&quot;:null,&quot;origRot&quot;:0}" id="ID0.2989244391210377" fill="#ffffff" stroke="#00aaff" stroke-width="0" stroke-linecap="butt"/><path d="M304.91453,138.30327c0.30996,0.20525 0.41251,0.66011 0.32842,1.22915c-0.08441,0.56884 -0.35567,1.25223 -0.79421,1.9145c-0.43853,0.66227 -0.96182,1.1788 -1.45256,1.47856c-0.49108,0.29954 -0.94987,0.38271 -1.25983,0.17746c-0.30998,-0.20525 -0.41251,-0.66012 -0.32842,-1.22916c0.08441,-0.56884 0.35567,-1.25223 0.79422,-1.9145c0.43853,-0.66227 0.96181,-1.17879 1.45256,-1.47855c0.49108,-0.29954 0.94987,-0.38271 1.25985,-0.17746z" data-paper-data="{&quot;origPos&quot;:null,&quot;origRot&quot;:0}" id="ID0.2989244391210377" fill="#ffffff" stroke="#00aaff" stroke-width="0" stroke-linecap="butt"/><g data-paper-data="{&quot;origPos&quot;:null}" stroke="none" stroke-width="0" stroke-linecap="butt"><path d="M298.37285,95.32401c-2.88375,11.4661 -17.15683,2.37868 -20.77024,-0.74066c-3.61341,-3.11934 0.69077,-7.03728 5.8089,-8.9971c4.69061,-1.79613 3.13517,-1.6401 5.35131,-1.83633c1.66699,-0.14759 6.63758,-2.69249 7.89663,-1.60559c3.61341,3.11934 3.09987,7.66698 1.71341,13.17968z" data-paper-data="{&quot;origPos&quot;:null}" fill="url(#color-23)"/><path d="M294.70795,97.60733c-2.73197,3.16468 -9.91225,-3.00114 -11.76528,-4.6008c-1.85303,-1.59967 0.51303,-3.45925 4.32362,-5.15684c5.35211,-2.38433 9.0061,-5.14774 8.90448,-2.68387c-0.16228,3.93417 1.26915,9.27684 -1.46282,12.44151z" data-paper-data="{&quot;origPos&quot;:null}" fill="#fffeeb"/><path d="M294.13016,96.1117c-1.91694,2.22056 -6.95516,-2.10581 -8.25538,-3.22825c-1.30023,-1.12244 0.02528,-2.71619 2.69907,-3.90736c3.75543,-1.67302 6.31935,-3.61203 6.24804,-1.88321c-0.11386,2.7605 1.22522,6.79825 -0.69173,9.01882z" data-paper-data="{&quot;origPos&quot;:null}" fill="#ffbdbd"/></g><g stroke="none" stroke-width="0" stroke-linecap="butt"><path d="M328.39581,107.48791c1.1017,0.95106 -2.16365,7.35112 -3.25824,11.80193c-1.19435,4.85647 -4.65387,8.91637 -7.81572,6.18685c-3.16184,-2.72952 -12.77472,-14.01336 -2.88571,-18.35852c4.75446,-2.08907 13.95966,0.36974 13.95966,0.36974z" data-paper-data="{&quot;index&quot;:null,&quot;origPos&quot;:null}" fill="url(#color-24)"/><path d="M325.18421,109.24938c2.36223,-0.51236 -0.16789,1.90018 -1.84362,7.45821c-1.19309,3.95719 -3.06457,6.24375 -4.82114,4.72736c-1.75657,-1.5164 -8.53159,-7.39777 -5.79963,-10.56244c2.73196,-3.16467 8.69251,-0.80501 12.46439,-1.62313z" data-paper-data="{&quot;origPos&quot;:null,&quot;index&quot;:null}" fill="#fffeeb"/><path d="M323.67586,111.26921c1.65751,-0.3595 -0.42271,1.11634 -1.59853,5.01627c-0.83716,2.77667 -2.57334,4.01588 -3.80589,2.95187c-1.23255,-1.06401 -5.98638,-5.19082 -4.06943,-7.41139c1.91694,-2.22056 6.82722,0.0173 9.47386,-0.55674z" data-paper-data="{&quot;origPos&quot;:null,&quot;index&quot;:null}" fill="#ffbdbd"/></g><path d="M291.57644,122.68934c-1.30949,-0.58844 -1.3872,-0.39875 -2.72316,0.12684c-1.37822,0.54223 -3.58493,0.86781 -3.58493,0.86781c0,0 1.26625,-3.6985 3.02562,-5.73654c1.19459,-1.3838 4.02864,-3.14658 6.57913,-1.78905c7.42437,5.98531 -0.58594,10.92269 -0.58594,10.92269c0,0 -1.3101,-3.80376 -2.71072,-4.39174z" data-paper-data="{&quot;origPos&quot;:null}" fill="#38291e" stroke="none" stroke-width="0" stroke-linecap="butt"/><path d="M306.47578,131.84449c-1.20612,-0.92343 -5.15812,-0.17065 -5.15812,-0.17065c0,0 0.3053,-9.40476 9.18823,-5.93505c2.44526,1.53902 2.32342,4.87435 1.71596,6.59857c-0.89464,2.5394 -3.47533,5.47579 -3.47533,5.47579c0,0 -0.81376,-2.07686 -1.0279,-3.54235c-0.20758,-1.42055 -0.08156,-1.58222 -1.24281,-2.42633z" data-paper-data="{&quot;origPos&quot;:null,&quot;index&quot;:null,&quot;origRot&quot;:0}" fill="#38291e" stroke="none" stroke-width="0" stroke-linecap="butt"/></g></g></g></svg>