<svg version="1.1" xmlns="http://www.w3.org/2000/svg" xmlns:xlink="http://www.w3.org/1999/xlink" width="97.59031" height="139.28898" viewBox="0,0,97.59031,139.28898"><defs><linearGradient x1="245.02972" y1="202.04374" x2="259.26213" y2="179.39338" gradientUnits="userSpaceOnUse" id="color-1"><stop offset="0" stop-color="#5ab500"/><stop offset="1" stop-color="#59a210"/></linearGradient><linearGradient x1="275.0541" y1="211.09825" x2="293.20915" y2="182.20514" gradientUnits="userSpaceOnUse" id="color-2"><stop offset="0" stop-color="#cecece"/><stop offset="1" stop-color="#f2f2f2"/></linearGradient><linearGradient x1="263.23247" y1="205.84384" x2="277.71693" y2="182.79239" gradientUnits="userSpaceOnUse" id="color-3"><stop offset="0" stop-color="#cecece"/><stop offset="1" stop-color="#f2f2f2"/></linearGradient><linearGradient x1="241.29001" y1="236.60914" x2="210.09904" y2="245.48984" gradientUnits="userSpaceOnUse" id="color-4"><stop offset="0" stop-color="#17174a"/><stop offset="1" stop-color="#17173a"/></linearGradient><linearGradient x1="246.08709" y1="253.83698" x2="211.21251" y2="263.76652" gradientUnits="userSpaceOnUse" id="color-5"><stop offset="0" stop-color="#643a19"/><stop offset="1" stop-color="#915b32"/></linearGradient><linearGradient x1="232.47707" y1="192.47854" x2="226.08193" y2="240.3508" gradientUnits="userSpaceOnUse" id="color-6"><stop offset="0" stop-color="#2a2a84"/><stop offset="1" stop-color="#1c1c57"/></linearGradient><linearGradient x1="230.89459" y1="189.90754" x2="227.4114" y2="215.98182" gradientUnits="userSpaceOnUse" id="color-7"><stop offset="0" stop-color="#98de53"/><stop offset="1" stop-color="#68c900"/></linearGradient><linearGradient x1="264.86588" y1="221.26973" x2="245.41925" y2="247.22298" gradientUnits="userSpaceOnUse" id="color-8"><stop offset="0" stop-color="#2a2a84"/><stop offset="1" stop-color="#1c1c57"/></linearGradient><linearGradient x1="278.88253" y1="231.90214" x2="257.13926" y2="260.92051" gradientUnits="userSpaceOnUse" id="color-9"><stop offset="0" stop-color="#643a19"/><stop offset="1" stop-color="#915b32"/></linearGradient><linearGradient x1="260.39026" y1="186.31086" x2="248.70527" y2="184.74989" gradientUnits="userSpaceOnUse" id="color-10"><stop offset="0" stop-color="#82491d"/><stop offset="1" stop-color="#5a2c0a"/></linearGradient><linearGradient x1="244.82222" y1="153.81342" x2="238.41127" y2="201.80402" gradientUnits="userSpaceOnUse" id="color-11"><stop offset="0" stop-color="#ffead6"/><stop offset="1" stop-color="#f5b677"/></linearGradient><linearGradient x1="243.94776" y1="153.00108" x2="241.76832" y2="169.31583" gradientUnits="userSpaceOnUse" id="color-12"><stop offset="0" stop-color="#f5b477"/><stop offset="1" stop-color="#f5b477" stop-opacity="0"/></linearGradient><radialGradient cx="211.41312" cy="180.69651" r="15.8277" gradientUnits="userSpaceOnUse" id="color-13"><stop offset="0" stop-color="#563e2d"/><stop offset="1" stop-color="#38291e"/></radialGradient><linearGradient x1="257.05868" y1="165.85793" x2="246.22578" y2="164.41079" gradientUnits="userSpaceOnUse" id="color-14"><stop offset="0" stop-color="#5a2c0a"/><stop offset="1" stop-color="#82491d"/></linearGradient><radialGradient cx="212.03463" cy="166.70935" r="11.71226" gradientUnits="userSpaceOnUse" id="color-15"><stop offset="0" stop-color="#ffead6"/><stop offset="1" stop-color="#f7c594"/></radialGradient><linearGradient x1="240.51794" y1="189.38366" x2="241.35279" y2="211.00483" gradientUnits="userSpaceOnUse" id="color-16"><stop offset="0" stop-color="#7edf1d"/><stop offset="1" stop-color="#68c900"/></linearGradient><linearGradient x1="268.14482" y1="173.82855" x2="269.3786" y2="205.78145" gradientUnits="userSpaceOnUse" id="color-17"><stop offset="0" stop-color="#f2f2f2"/><stop offset="1" stop-color="#ffffff"/></linearGradient><linearGradient x1="256.26214" y1="181.4638" x2="257.2545" y2="207.16423" gradientUnits="userSpaceOnUse" id="color-18"><stop offset="0" stop-color="#f2f2f2"/><stop offset="1" stop-color="#ffffff"/></linearGradient></defs><g transform="translate(-200.71884,-135.0671)"><g data-paper-data="{&quot;isPaintingLayer&quot;:true}" fill-rule="nonzero" stroke-linejoin="miter" stroke-miterlimit="10" stroke-dasharray="" stroke-dashoffset="0" style="mix-blend-mode: normal"><g data-paper-data="{&quot;index&quot;:null,&quot;origRot&quot;:0,&quot;origPos&quot;:null}" stroke-linecap="butt"><path d="M232.5347,187.6915c1.00397,-5.20951 10.64398,-8.21025 19.70135,-6.27397c9.05737,1.9363 17.39248,5.20148 17.39248,5.20148l-2.84251,15.66973c0,0 -14.51544,-1.20233 -21.80037,-2.75969c-9.05737,-1.93628 -13.4549,-6.62806 -12.45094,-11.83757z" data-paper-data="{&quot;origRot&quot;:0,&quot;origPos&quot;:null}" fill="url(#color-1)" stroke="none" stroke-width="0"/><g data-paper-data="{&quot;origPos&quot;:null}" stroke="#cdcdcd" stroke-width="1.5"><path d="M272.72287,196.23395c1.37103,-9.27713 3.55611,-20.6752 12.74054,-18.58426c6.66296,1.51691 14.62376,12.85666 11.32603,21.57943c-3.59857,9.51854 -5.36003,18.61189 -15.41844,15.25145c-9.39187,-3.13776 -10.01916,-8.9695 -8.64813,-18.24664z" data-paper-data="{&quot;origRot&quot;:0,&quot;origPos&quot;:null}" fill="url(#color-2)"/><path d="M265.57326,193.76843c1.06746,-7.16101 0.95927,-15.55059 6.10992,-14.24993c5.762,1.45505 5.13576,3.26107 3.11683,14.91785c-2.29993,13.27922 -0.35607,15.74981 -6.7452,14.47861c-3.73081,-0.74229 -3.54901,-7.98551 -2.48156,-15.14653z" data-paper-data="{&quot;origRot&quot;:0,&quot;origPos&quot;:null}" fill="url(#color-3)"/></g></g><g data-paper-data="{&quot;origPos&quot;:null,&quot;origRot&quot;:0,&quot;index&quot;:null}" stroke-linecap="butt"><path d="M216.04948,248.47769c-2.10088,-9.34903 -5.40958,-16.12155 -5.40958,-16.12155c0,0 4.05991,-2.02163 8.74051,-3.33228c4.74552,-1.27643 11.79751,-0.22245 11.79751,-0.22245c0,0 2.2537,1.03424 4.49623,6.77921c1.79364,4.59502 2.92938,6.79289 4.07389,8.39468c3.18955,4.46396 7.949,5.59641 4.03884,9.58867c-5.74104,5.86161 -11.60715,8.06582 -19.85381,8.13347c-6.6574,0.05463 -9.15219,-1.99121 -10.76564,-5.44332c-0.39878,-0.85322 3.79088,-3.73205 2.88204,-7.77642z" data-paper-data="{&quot;origPos&quot;:null}" fill="url(#color-4)" stroke="none" stroke-width="0"/><path d="M215.12934,269.6752c-0.9466,-3.32467 3.75333,-7.57649 10.49758,-9.49672c4.91286,-1.39879 15.16965,-4.32492 20.14216,-3.30425c1.15519,0.23711 1.61821,1.96254 1.91577,2.96847c0.37483,1.26723 -4.33638,1.89225 -4.33638,1.89225c0,0 -0.73425,2.51723 -2.11908,3.92828c-4.4607,4.54506 -15.10123,7.90441 -17.48141,7.94285c-3.63198,0.05865 -7.65027,-0.52966 -8.61867,-3.93087z" data-paper-data="{&quot;origPos&quot;:null}" fill="#5c3518" stroke="#5c3518" stroke-width="1.5"/><path d="M212.22072,265.88453c-3.88664,-5.9798 1.21937,-12.53756 8.84383,-14.70841c3.54592,-1.0096 10.25323,0.55164 13.92588,0.28472c5.67246,-0.41227 4.74568,-0.73086 9.00107,-1.33608c1.15269,-0.16395 2.42299,4.49804 3.00275,7.41187c0.28011,1.40779 -5.3201,2.69706 -5.3201,2.69706c0,0 -6.93286,6.61903 -14.55734,8.78986c-7.62447,2.17083 -12.53553,0.49273 -14.89606,-3.13905z" data-paper-data="{&quot;origPos&quot;:null}" fill="url(#color-5)" stroke="#5c3518" stroke-width="1.5"/></g><g data-paper-data="{&quot;origPos&quot;:null,&quot;origRot&quot;:0,&quot;index&quot;:null}"><path d="M205.52636,211.29264c2.96426,-19.68135 9.14017,-20.64132 22.16508,-18.90135c7.04362,0.94094 15.18411,-0.3359 19.95312,5.35815c6.40111,7.64272 6.41767,16.13422 5.01803,26.61153c-1.29019,9.65801 -13.2949,17.76465 -26.31981,16.02468c-13.02491,-1.73997 -23.84047,-9.01457 -20.8164,-29.093z" data-paper-data="{&quot;origPos&quot;:null}" fill="url(#color-6)" stroke="#101032" stroke-width="1.5" stroke-linecap="butt"/><path d="M213.84178,192.68112c3.64314,-2.48604 10.96468,-3.75223 17.40364,-2.71712c6.43896,1.03509 11.32288,2.79941 15.34983,6.73255c6.15484,6.0115 3.55734,19.00984 3.55734,19.00984c0,0 -10.12602,2.29122 -19.64164,0.66515c-10.37418,-1.7728 -24.90839,-5.64912 -24.90839,-5.64912c0,0 -0.36626,-12.16897 8.23922,-18.0413z" data-paper-data="{&quot;origPos&quot;:null}" fill="url(#color-7)" stroke="#4e9707" stroke-width="1.5" stroke-linecap="butt"/><path d="M215.16639,216.88804c0,0 0.28722,-9.56338 1.43352,-14.52054c0.89246,-3.85944 3.5964,-10.11524 3.5964,-10.11524" data-paper-data="{&quot;origPos&quot;:null,&quot;origRot&quot;:0}" fill="none" stroke="#2a2a84" stroke-width="10" stroke-linecap="round"/><path d="M236.45081,220.26057c0,0 -0.83203,-9.49106 -0.27075,-14.55287c0.43699,-3.9409 2.39654,-10.50797 2.39654,-10.50797" data-paper-data="{&quot;origPos&quot;:null}" fill="none" stroke="#2a2a84" stroke-width="10" stroke-linecap="round"/><path d="M239.94949,219.14782c-0.28749,2.15205 -2.44124,3.78836 -4.78652,3.47505c-2.3453,-0.3133 -3.99402,-2.45757 -3.70653,-4.60961c0.28749,-2.15204 2.42689,-3.68072 4.77217,-3.36741c2.34531,0.31331 4.00838,2.34994 3.72089,4.50198z" fill="#ffe84f" stroke="#b6a538" stroke-width="1" stroke-linecap="butt"/><path d="M219.10198,216.02127c-0.28749,2.15207 -2.35976,3.67677 -4.62437,3.37425c-2.2646,-0.30253 -3.86399,-2.31774 -3.5765,-4.46978c0.28749,-2.15204 2.34538,-3.5691 4.60999,-3.26658c2.26461,0.30251 3.87839,2.21008 3.5909,4.36212z" fill="#ffe84f" stroke="#b6a538" stroke-width="1" stroke-linecap="butt"/></g><g data-paper-data="{&quot;origPos&quot;:null,&quot;origRot&quot;:0,&quot;index&quot;:null}" stroke-linecap="butt"><path d="M251.73171,245.82397c-7.33265,-6.16852 -11.88457,-7.07923 -11.88457,-7.07923c0,0 1.68729,-6.23844 3.37459,-9.58957c2.13806,-4.24632 6.42741,-9.87797 6.42741,-9.87797c0,0 16.33653,8.03268 18.21727,8.61452c5.24129,1.62151 9.71481,-0.35898 9.02011,5.18583c-1.01998,8.14109 -4.35402,13.44715 -10.87626,18.49417c-5.2653,4.0744 -8.48953,3.95674 -11.86378,2.18625c-0.83395,-0.43758 0.75733,-5.26549 -2.41474,-7.93396z" data-paper-data="{&quot;origPos&quot;:null}" fill="url(#color-8)" stroke="none" stroke-width="0"/><path d="M263.83405,263.25146c-2.76637,-2.07282 -1.60026,-8.30238 2.60456,-13.91411c3.06301,-4.0879 9.45429,-12.62695 14.02972,-14.82538c1.06293,-0.51072 2.47611,0.58212 3.322,1.20255c1.0656,0.78157 -2.30542,4.13155 -2.30542,4.13155c0,0 0.93978,2.4479 0.69199,4.4094c-0.79814,6.3181 -7.23251,15.43427 -9.10354,16.90602c-2.85503,2.24574 -6.40927,4.21052 -9.23932,2.08996z" data-paper-data="{&quot;origPos&quot;:null}" fill="#5c3518" stroke="#5c3518" stroke-width="1.5"/><path d="M259.22406,261.9957c-6.71387,-2.40582 -6.6208,-10.71647 -1.86717,-17.0606c2.21077,-2.95049 8.49415,-5.76909 11.25546,-8.20522c4.2649,-3.76267 3.33441,-3.45511 6.35465,-6.51331c0.81813,-0.8284 4.65184,2.11275 6.8775,4.08073c1.07531,0.95084 -2.60104,5.36771 -2.60104,5.36771c0,0 -1.50995,9.46552 -6.26358,15.80965c-4.75363,6.34414 -9.67819,7.98214 -13.7558,6.52099z" data-paper-data="{&quot;origPos&quot;:null}" fill="url(#color-9)" stroke="#5c3518" stroke-width="1.5"/></g><g data-paper-data="{&quot;origPos&quot;:null,&quot;origRot&quot;:0,&quot;index&quot;:null}"><path d="M255.53336,190.73227c0,0 -0.86909,1.74769 -2.75505,1.61653c-3.4808,-0.24208 -4.62852,-1.7377 -4.62852,-1.7377c-0.75071,-1.45759 2.62973,-9.4919 2.62973,-9.4919c0.80041,-2.83158 6.3107,-3.13297 6.3107,-3.13297c1.58143,-1.17793 0.143,4.80182 2.32459,6.92827c1.82393,1.77782 0.3887,4.79854 -1.19272,5.97646c-1.58143,1.17792 -2.68874,-0.15868 -2.68874,-0.15868z" data-paper-data="{&quot;origRot&quot;:0}" fill="url(#color-10)" stroke="#5c3822" stroke-width="1" stroke-linecap="butt"/><path d="M257.61699,157.85335c1.3587,-0.09727 4.73582,-2.20101 9.84715,-1.51819c5.11134,0.6828 7.68741,6.25436 6.84109,12.58967c-0.84632,6.3353 -6.76633,12.36403 -15.90702,11.14295c-0.17146,-0.02291 -1.27088,0.45597 -2.28275,1.49384c-3.30096,3.38577 -2.61412,6.31935 -7.55869,9.08806c-6.51374,3.64738 -9.09782,5.28637 -14.85147,6.35154c-6.76246,1.0273 -17.32559,0.92818 -21.04473,-2.0957c-2.7822,-1.99254 -3.32223,-6.83255 -2.70428,-9.19666c1.3705,-5.24327 0.52528,-14.42741 2.16728,-22.04657c1.4281,-6.62659 0.14771,-12.95702 7.75286,-12.32034c5.14041,0.43034 33.83293,6.7911 37.74056,6.51138z" data-paper-data="{&quot;origPos&quot;:null}" fill="url(#color-11)" stroke="none" stroke-width="0" stroke-linecap="butt"/><path d="M215.51228,148.80427c5.43939,-3.32251 9.79075,-2.58465 18.8245,-0.92092c5.33276,0.98212 20.48337,9.0402 20.48337,9.0402c1.4114,-0.10393 -1.17586,10.36055 -2.20739,12.01177c-7.49593,-1.43365 -40.7836,-5.69058 -42.59578,-6.19688c1.28633,-6.70938 0.05589,-10.61167 5.49528,-13.93418z" fill="url(#color-12)" stroke="none" stroke-width="0" stroke-linecap="butt"/><path d="M214.60332,156.25195c0.82136,-3.78217 3.63353,-6.42058 6.28116,-5.89306c2.64764,0.52752 4.12812,4.02122 3.30676,7.8034c-0.82136,3.78218 -3.63352,6.42058 -6.28116,5.89306c-2.64763,-0.52751 -4.12809,-4.02121 -3.30674,-7.80339z" data-paper-data="{&quot;origRot&quot;:0}" fill="#ffffff" stroke="none" stroke-width="0" stroke-linecap="butt"/><path d="M232.13936,156.07162c2.62217,0.63195 3.92758,4.17633 2.91571,7.91658c-1.01187,3.74026 -3.95785,6.26002 -6.58003,5.62806c-2.62218,-0.63195 -3.92758,-4.17633 -2.91571,-7.91658c1.01187,-3.74026 3.95785,-6.26002 6.58003,-5.62806z" data-paper-data="{&quot;origRot&quot;:0}" fill="#ffffff" stroke="none" stroke-width="0" stroke-linecap="butt"/><path d="M230.40228,156.84177c0.83912,0.1121 1.52628,0.75718 1.95994,1.7083c0.43278,0.95101 0.61195,2.20886 0.43319,3.54707c-0.17876,1.33821 -0.68184,2.50492 -1.34907,3.30899c-0.66811,0.80394 -1.50052,1.24603 -2.33962,1.13393c-0.83911,-0.11209 -1.52627,-0.75717 -1.95993,-1.70829c-0.43277,-0.95101 -0.61194,-2.20887 -0.43318,-3.54708c0.17876,-1.33821 0.68183,-2.50491 1.34906,-3.30898c0.66812,-0.80396 1.50052,-1.24603 2.33962,-1.13393z" data-paper-data="{&quot;origPos&quot;:null}" id="ID0.2989244391210377" fill="#000000" stroke="#00aaff" stroke-width="1.5" stroke-linecap="butt"/><path d="M219.33589,151.25245c0.83911,0.11209 1.52629,0.75718 1.95995,1.7083c0.43278,0.95102 0.60146,2.37464 0.43318,3.54707c-0.13021,0.90764 -0.58586,2.36107 -1.39361,3.30912c-0.80775,0.94804 -1.42201,1.61329 -2.6005,1.37872c-1.17849,-0.23458 -1.48735,-1.06476 -1.95032,-2.28453c-0.46298,-1.21976 -0.26685,-2.80398 -0.13737,-3.21578c0.36255,-1.12897 0.68183,-2.50492 1.34906,-3.30899c0.66811,-0.80395 1.5005,-1.24603 2.33961,-1.13393z" data-paper-data="{&quot;origPos&quot;:null}" id="ID0.2989244391210377" fill="#000000" stroke="#00aaff" stroke-width="1.5" stroke-linecap="round"/><path d="M210.97564,183.90704c0,0 -3.02794,0.67807 -4.89941,0.1521c-1.87147,-0.52598 -1.78028,-0.27781 -4.18448,-2.30544c-1.70856,-1.13471 -1.04683,-5.06676 -1.04683,-5.06676c-0.24815,-1.2816 0.0848,-3.70897 1.40107,-3.61122c2.65401,0.19712 10.67851,4.86019 10.67851,4.86019c5.22776,0.96913 16.26534,-1.3428 16.26534,-1.3428c5.53228,-1.79616 1.9688,9.96918 -0.38985,10.41369c-7.2851,1.37297 -10.63342,1.51587 -14.39731,0.0606c-1.23326,-0.47682 -3.36622,-1.12354 -3.42705,-3.16034z" fill="url(#color-13)" stroke="none" stroke-width="0" stroke-linecap="butt"/><g fill="none" stroke="#c79260" stroke-width="3.5" stroke-linecap="round"><path d="M259.89136,173.57426c0,0 -2.06508,-5.98425 3.16693,-8.62987c3.64813,-1.84471 6.07931,-0.14276 6.07931,-0.14276" data-paper-data="{&quot;origPos&quot;:null}"/><path d="M266.04365,169.73338l-5.28852,-0.70649" data-paper-data="{&quot;origPos&quot;:null}"/><path d="M260.63192,173.78691l1.13326,0.15139" data-paper-data="{&quot;origPos&quot;:null}"/></g><path d="M229.69394,157.57051c0.3201,0.08032 0.54042,0.39852 0.63832,0.84758c0.09755,0.44896 0.0726,1.02909 -0.09858,1.63343c-0.17118,0.60437 -0.45638,1.11918 -0.77845,1.46284c-0.32241,0.34357 -0.68179,0.51631 -1.00188,0.43599c-0.32009,-0.08032 -0.5404,-0.39851 -0.6383,-0.84757c-0.09754,-0.44895 -0.07261,-1.0291 0.09857,-1.63344c0.17119,-0.60436 0.45639,-1.11918 0.77846,-1.46284c0.32241,-0.34357 0.68179,-0.51632 1.00188,-0.436z" data-paper-data="{&quot;origRot&quot;:0,&quot;origPos&quot;:null}" id="ID0.2989244391210377" fill="#ffffff" stroke="#00aaff" stroke-width="0" stroke-linecap="butt"/><path d="M218.61015,152.04321c0.3201,0.08032 0.54039,0.39853 0.6383,0.84758c0.09755,0.44896 0.07261,1.02911 -0.09857,1.63345c-0.17118,0.60436 -0.45638,1.11918 -0.77845,1.46284c-0.32242,0.34357 -0.68179,0.51632 -1.00189,0.436c-0.32009,-0.08032 -0.54039,-0.39852 -0.6383,-0.84757c-0.09754,-0.44895 -0.0726,-1.0291 0.09858,-1.63344c0.17118,-0.60436 0.45638,-1.11918 0.77845,-1.46284c0.32241,-0.34357 0.68178,-0.51633 1.00188,-0.43601z" data-paper-data="{&quot;origRot&quot;:0,&quot;origPos&quot;:null}" id="ID0.2989244391210377" fill="#ffffff" stroke="#00aaff" stroke-width="0" stroke-linecap="butt"/><path d="M245.1728,171.95393c-2.03857,-1.23258 2.60598,-7.93762 2.60598,-7.93762c0.48822,-3.65465 -2.30014,-9.04527 -4.72743,-10.38175c-4.56754,-2.51489 -7.66371,-2.79322 -12.82143,-3.97536c-4.39264,-1.00678 -11.2476,-5.14042 -14.75467,-1.23725c-2.80672,3.12369 -3.68287,14.46251 -4.66468,13.28589c-0.77392,-6.5093 -0.51837,-7.99984 0.76025,-11.9691c0.63639,-1.97561 -2.86545,-5.26102 -1.4735,-8.13701c1.70302,-3.51871 6.04045,-1.72361 7.54651,-0.87542c1.28517,-1.05169 0.8492,-0.98007 2.422,-1.65486c2.13229,-0.91484 3.43046,-1.25939 5.75842,-1.68363c5.44761,-0.99278 8.76489,-0.90439 14.20144,0.41211c1.42882,0.34599 9.52076,3.50627 11.92621,4.57891c1.84127,0.82105 -1.32398,-3.649 -1.33723,-4.42567c-0.01327,-0.77665 0.16265,-2.07585 1.04666,-2.38607c0.884,-0.31023 1.85619,1.05983 2.85915,2.80274c1.48052,2.57281 0.88898,3.38251 2.18133,4.54716c1.94819,1.06564 2.89014,-0.71899 5.04779,-1.24185c1.65975,-0.40217 3.21132,-0.64329 4.69173,0.20359c0.05468,0.0313 2.35452,0.62062 0.25796,2.63773c-2.09657,2.0171 -9.51619,0.20541 -6.5669,1.88047c1.06881,0.60703 2.21284,1.24311 3.33474,1.92402c3.54881,2.15388 6.87611,4.75643 6.90004,8.30781c0.01269,1.88403 -3.88196,0.0246 -6.74988,-0.48638c-3.50169,0.43399 -6.90557,0.73816 -7.2091,4.73944c-0.73957,9.74927 -6.03615,12.67075 -11.23538,11.0721z" data-paper-data="{&quot;origPos&quot;:null}" fill="url(#color-14)" stroke="#5c3822" stroke-width="1" stroke-linecap="butt"/><path d="M212.50075,150.7715l-1.61417,-2.98195l-1.24239,-2.75189l-0.06394,-2.53433c0,0 0.59923,-1.19031 0.88007,-1.56629c0.28085,-0.37599 0.91717,-0.8397 0.91717,-0.8397l2.18868,-0.31445l2.32533,0.67145l4.05715,2.77256l1.4184,0.43003c0,0 1.05578,-3.36811 1.62282,-4.11312c0.56704,-0.74503 2.28268,-1.0181 2.28268,-1.0181c0,0 1.4721,-0.77217 2.51476,-0.74656c1.04266,0.0256 1.89829,0.85496 1.89829,0.85496c0,0 1.49621,1.15394 2.48382,2.5487c0.98759,1.39478 2.03107,3.82769 2.03107,3.82769c0,0 0.80664,0.77487 1.48706,0.92032c0.68043,0.14541 1.51311,-0.27899 1.51311,-0.27899l2.09799,-1.64414l3.30009,-1.60385l2.04036,-0.20854c0,0 1.51223,0.0547 2.35691,0.43513c0.84468,0.38042 2.43662,2.85129 2.43662,2.85129l4.56387,12.03589" data-paper-data="{&quot;origPos&quot;:null}" fill="none" stroke="#5c3822" stroke-width="1" stroke-linecap="round"/><path d="M216.29592,160.27564c5.77011,1.1806 10.648,7.59761 10.0349,12.18709c-0.6131,4.58949 -6.66363,7.07837 -12.51633,6.38826c-12.69864,-1.49737 -10.79333,-4.83074 -10.54257,-10.0657c0.40116,-8.37515 4.61657,-10.22984 13.024,-8.50965z" fill="url(#color-15)" stroke="#c79260" stroke-width="1.5" stroke-linecap="butt"/><path d="M234.32017,155.12934c-1.22404,-0.53782 -4.50038,0.63514 -4.50038,0.63514c0,0 -1.5633,-7.35108 6.80409,-5.97786c2.41682,0.83159 2.95947,3.44062 2.76847,4.87041c-0.2813,2.10577 -1.94566,4.77086 -1.94566,4.77086c0,0 -1.10836,-1.4922 -1.57863,-2.59873c-0.45584,-1.07259 -0.37812,-1.21695 -1.54788,-1.69982z" fill="#38291e" stroke="none" stroke-width="0" stroke-linecap="butt"/><path d="M220.33576,149.55697c-1.24845,-0.26221 -1.27887,-0.10329 -2.33374,0.50383c-1.08824,0.62633 -2.9361,1.20767 -2.9361,1.20767c0,0 0.37788,-3.06147 1.50551,-4.90647c0.76565,-1.25273 2.87752,-3.04387 5.3502,-2.36892c7.59307,3.54444 1.61524,8.57199 1.61524,8.57199c0,0 -1.87383,-2.75978 -3.20111,-3.00808z" data-paper-data="{&quot;index&quot;:null,&quot;origRot&quot;:0}" fill="#38291e" stroke="none" stroke-width="0" stroke-linecap="butt"/></g><g data-paper-data="{&quot;origPos&quot;:null,&quot;origRot&quot;:0,&quot;index&quot;:null}" stroke-linecap="butt"><path d="M239.29192,210.16985c-5.16108,0.95573 -7.66943,-0.90443 -9.36342,-5.10628c-0.93011,-3.50018 1.84532,-10.79374 7.71388,-12.50794c8.04746,-2.52953 16.06366,-3.6812 16.06366,-3.6812l4.17323,13.69998z" data-paper-data="{&quot;origRot&quot;:0}" fill="url(#color-16)" stroke="none" stroke-width="0"/><g data-paper-data="{&quot;origPos&quot;:null}" stroke="#cbcbcb" stroke-width="1.5"><path d="M273.82245,205.35906c-8.8097,1.72698 -11.71187,-2.61541 -14.43222,-10.58642c-2.72037,-7.97099 -5.66194,-17.98898 2.5509,-20.45288c5.9581,-1.78746 16.99764,3.63105 17.9475,12.02715c1.03653,9.16208 3.36873,17.16259 -6.0662,19.01216z" data-paper-data="{&quot;origRot&quot;:0,&quot;origPos&quot;:null}" fill="url(#color-17)"/><path d="M260.87211,206.92217c-3.29206,1.08576 -6.1274,-4.73888 -8.21992,-10.89581c-2.09251,-6.15691 -5.63177,-12.76037 -0.97329,-14.04057c5.21139,-1.43216 5.45333,0.28086 8.63437,10.4294c3.62379,11.56108 6.19662,12.6476 0.55884,14.50701z" data-paper-data="{&quot;origRot&quot;:0,&quot;origPos&quot;:null}" fill="url(#color-18)"/></g></g></g></g></svg>