<svg version="1.1" xmlns="http://www.w3.org/2000/svg" xmlns:xlink="http://www.w3.org/1999/xlink" width="510.79123" height="473.17524" viewBox="0,0,510.79123,473.17524"><defs><linearGradient x1="424.09039" y1="95" x2="450.90989" y2="95" gradientUnits="userSpaceOnUse" id="color-1"><stop offset="0" stop-color="#ffffff"/><stop offset="1" stop-color="#a6a6a6"/></linearGradient><linearGradient x1="439.00004" y1="-33.63488" x2="439.00004" y2="63.63488" gradientUnits="userSpaceOnUse" id="color-2"><stop offset="0" stop-color="#ffc93b"/><stop offset="1" stop-color="#ffae26"/></linearGradient><linearGradient x1="240.00007" y1="242.24776" x2="240.00007" y2="439.54036" gradientUnits="userSpaceOnUse" id="color-3"><stop offset="0" stop-color="#ffd210"/><stop offset="1" stop-color="#b2930b"/></linearGradient><linearGradient x1="240.0001" y1="238.45968" x2="240.0001" y2="259.32847" gradientUnits="userSpaceOnUse" id="color-4"><stop offset="0" stop-color="#2ee579"/><stop offset="1" stop-color="#00cc49"/></linearGradient><linearGradient x1="-4.81244" y1="197.32582" x2="-4.81244" y2="238.49249" gradientUnits="userSpaceOnUse" id="color-5"><stop offset="0" stop-color="#ffffff"/><stop offset="1" stop-color="#e5e5e5"/></linearGradient><radialGradient cx="227.20101" cy="145.61013" r="9.05332" gradientUnits="userSpaceOnUse" id="color-6"><stop offset="0" stop-color="#15b700"/><stop offset="1" stop-color="#5fd336"/></radialGradient><radialGradient cx="245.82411" cy="145.73331" r="9.05332" gradientUnits="userSpaceOnUse" id="color-7"><stop offset="0" stop-color="#15b700"/><stop offset="1" stop-color="#5fd336"/></radialGradient><radialGradient cx="236.50005" cy="139.5" r="14.43427" gradientUnits="userSpaceOnUse" id="color-8"><stop offset="0" stop-color="#e5e5e5"/><stop offset="1" stop-color="#e5e5e5" stop-opacity="0"/></radialGradient><radialGradient cx="236.50005" cy="139.5" r="11.0845" gradientUnits="userSpaceOnUse" id="color-9"><stop offset="0" stop-color="#ffffff"/><stop offset="1" stop-color="#e5e5e5"/></radialGradient><radialGradient cx="226.47841" cy="153.27308" r="9.05332" gradientUnits="userSpaceOnUse" id="color-10"><stop offset="0" stop-color="#15b700"/><stop offset="1" stop-color="#5fd336"/></radialGradient><radialGradient cx="246.52169" cy="153.1499" r="9.05332" gradientUnits="userSpaceOnUse" id="color-11"><stop offset="0" stop-color="#15b700"/><stop offset="1" stop-color="#5fd336"/></radialGradient><radialGradient cx="259.20098" cy="150.61013" r="9.05332" gradientUnits="userSpaceOnUse" id="color-12"><stop offset="0" stop-color="#15b700"/><stop offset="1" stop-color="#5fd336"/></radialGradient><radialGradient cx="277.82409" cy="150.73331" r="9.05332" gradientUnits="userSpaceOnUse" id="color-13"><stop offset="0" stop-color="#15b700"/><stop offset="1" stop-color="#5fd336"/></radialGradient><radialGradient cx="268.50005" cy="144.5" r="14.43427" gradientUnits="userSpaceOnUse" id="color-14"><stop offset="0" stop-color="#e5e5e5"/><stop offset="1" stop-color="#e5e5e5" stop-opacity="0"/></radialGradient><radialGradient cx="268.50005" cy="144.5" r="11.0845" gradientUnits="userSpaceOnUse" id="color-15"><stop offset="0" stop-color="#ffffff"/><stop offset="1" stop-color="#e5e5e5"/></radialGradient><radialGradient cx="258.47839" cy="158.27308" r="9.05332" gradientUnits="userSpaceOnUse" id="color-16"><stop offset="0" stop-color="#15b700"/><stop offset="1" stop-color="#5fd336"/></radialGradient><radialGradient cx="278.52162" cy="158.1499" r="9.05332" gradientUnits="userSpaceOnUse" id="color-17"><stop offset="0" stop-color="#15b700"/><stop offset="1" stop-color="#5fd336"/></radialGradient><radialGradient cx="303.20101" cy="144.61013" r="9.05332" gradientUnits="userSpaceOnUse" id="color-18"><stop offset="0" stop-color="#15b700"/><stop offset="1" stop-color="#5fd336"/></radialGradient><radialGradient cx="321.82409" cy="144.73331" r="9.05332" gradientUnits="userSpaceOnUse" id="color-19"><stop offset="0" stop-color="#15b700"/><stop offset="1" stop-color="#5fd336"/></radialGradient><radialGradient cx="312.50005" cy="138.5" r="14.43427" gradientUnits="userSpaceOnUse" id="color-20"><stop offset="0" stop-color="#e5e5e5"/><stop offset="1" stop-color="#e5e5e5" stop-opacity="0"/></radialGradient><radialGradient cx="312.50005" cy="138.5" r="11.0845" gradientUnits="userSpaceOnUse" id="color-21"><stop offset="0" stop-color="#ffffff"/><stop offset="1" stop-color="#e5e5e5"/></radialGradient><radialGradient cx="302.47839" cy="152.27308" r="9.05332" gradientUnits="userSpaceOnUse" id="color-22"><stop offset="0" stop-color="#15b700"/><stop offset="1" stop-color="#5fd336"/></radialGradient><radialGradient cx="322.52166" cy="152.1499" r="9.05332" gradientUnits="userSpaceOnUse" id="color-23"><stop offset="0" stop-color="#15b700"/><stop offset="1" stop-color="#5fd336"/></radialGradient></defs><g transform="translate(13.97907,33.63488)"><g data-paper-data="{&quot;isPaintingLayer&quot;:true}" fill-rule="nonzero" stroke-linecap="butt" stroke-linejoin="miter" stroke-miterlimit="10" stroke-dasharray="" stroke-dashoffset="0" style="mix-blend-mode: normal"><g><path d="M421.09039,151.25036c0,0 1.82379,-2.86356 2.33751,-4.23355c0.48458,-1.29226 0.66249,-3.76681 0.66249,-3.76681v-104.50035h26.81947v103.75036c0,0 0.16284,3.40428 1.19289,4.90649c0.96581,1.40854 4.80711,3.84387 4.80711,3.84387z" fill="url(#color-1)" stroke="#5b5b5b" stroke-width="0"/><g><path d="M392.20755,12.17463c0,-25.29987 20.50964,-45.80951 45.80951,-45.80951c25.29987,0 45.80951,20.50964 45.80951,45.80951c0,20.33723 12.98558,41.98827 12.98558,41.98827c0,0 -57.54074,9.5259 -61.21673,9.47175c-24.17224,-0.35623 -54.40751,-9.51376 -54.40751,-9.51376c0,0 11.01965,-16.64636 11.01965,-41.94626z" fill="url(#color-2)" stroke="#bd9b0b" stroke-width="0"/><path d="M483.63965,13.42038c0,0 -33.00211,5.19099 -45.59822,5.19099c-15.08303,0 -45.80223,-5.2282 -45.80223,-5.2282c0,0 0.30275,-8.21897 0.93131,-10.99951c1.35543,-5.99595 3.39157,-9.59506 3.39157,-9.59506c0,0 29.33369,6.72507 41.0919,6.72507c11.75817,0 41.79607,-7.19004 41.79607,-7.19004c0,0 2.25018,6.51483 3.28614,9.996c1.07884,3.62524 0.90347,11.10076 0.90347,11.10076z" fill="#ffef43" stroke="none" stroke-width="1.5"/><path d="M493.03162,46.25633c0,0 -41.01691,7.87781 -54.89907,7.87781c-16.62296,0 -52.90461,-8.61183 -52.90461,-8.61183c0,0 3.05567,-8.5769 4.15414,-12.23477c0.89317,-2.97423 1.70911,-8.08889 1.70911,-8.08889c0,0 34.79844,10.32697 47.75711,10.32697c12.95867,0 46.73137,-10.74754 46.73137,-10.74754c0,0 0.8073,3.71033 1.68845,6.24997c1.37541,3.96424 5.7635,15.22826 5.7635,15.22826z" fill="#ffef43" stroke="none" stroke-width="1.5"/><path d="M473.03946,-17.27469c0,0 -25.98918,4.09166 -35.33538,4.09166c-11.19146,0 -33.98482,-4.83928 -33.98482,-4.83928c0,0 3.18473,-3.44772 4.90055,-4.94956c1.57333,-1.37712 5.00398,-3.71981 5.00398,-3.71981c0,0 15.06831,2.29568 23.7928,2.29568c8.72445,0 26.2353,-1.51028 26.2353,-1.51028c0,0 2.75178,1.94932 4.18685,3.20014c1.72166,1.50063 5.20072,5.43145 5.20072,5.43145z" fill="#ffef43" stroke="none" stroke-width="1.5"/></g></g><path d="M-1.89341,439.54036v-197.29259l225.55065,-90.39508l257.23632,1.39508l1,286.29259z" fill="url(#color-3)" stroke="none" stroke-width="0"/><g stroke-width="0"><path d="M-4.34342,291.816v-23.32873c0,0 28.25516,-5.18416 55.44372,-5.18416c20.42029,0 61.08924,6.42611 109.58412,6.97787c31.29068,0.35602 67.1596,-7.3363 101.62944,-7.41485c37.7742,-0.08609 75.95784,6.5984 108.946,7.47096c28.54587,0.75506 53.56031,-2.14489 72.38933,-2.70796c22.7579,-0.68056 36.47983,0.85815 36.47983,0.85815v23.32873c0,0 -16.52208,-1.76718 -42.43995,-1.3583c-21.73129,0.34282 -49.87206,2.98525 -82.31984,2.01163c-28.98011,-0.86957 -61.97042,-7.60063 -93.71398,-7.80045c-36.76258,-0.2314 -74.2094,6.32068 -106.90606,5.7715c-43.45165,-0.72982 -79.6799,-6.40064 -99.02859,-6.40064c-29.09662,0 -60.06402,7.77625 -60.06402,7.77625z" fill="#dab40d" stroke="#f1c70e"/><path d="M-4.79556,337.87698v-23.32875c0,0 28.25516,-5.18416 55.44372,-5.18416c20.42029,0 61.08924,6.42611 109.58412,6.97787c31.29068,0.35601 67.1596,-7.3363 101.62944,-7.41485c37.77419,-0.08609 75.95783,6.59839 108.946,7.47096c28.54587,0.75506 53.5603,-2.1449 72.38933,-2.70796c22.7579,-0.68056 36.47983,0.85815 36.47983,0.85815v23.32875c0,0 -16.52208,-1.76719 -42.43995,-1.35832c-21.73128,0.34282 -49.87206,2.98526 -82.31984,2.01164c-28.98012,-0.86957 -61.97043,-7.60064 -93.71399,-7.80045c-36.76257,-0.2314 -74.20939,6.32068 -106.90605,5.7715c-43.45165,-0.72982 -79.6799,-6.40062 -99.02859,-6.40062c-29.09662,0 -60.06402,7.77625 -60.06402,7.77625z" fill="#cca90c" stroke="#e6be0e"/><path d="M-4.79553,384.73566v-23.32873c0,0 28.25516,-5.18416 55.44371,-5.18416c20.42029,0 61.08924,6.42611 109.58412,6.97787c31.29068,0.35601 67.1596,-7.3363 101.62944,-7.41484c37.7742,-0.08609 75.95784,6.59839 108.946,7.47096c28.54587,0.75506 53.5603,-2.1449 72.38933,-2.70796c22.7579,-0.68056 36.47983,0.85815 36.47983,0.85815v23.32873c0,0 -16.52207,-1.76718 -42.43995,-1.35832c-21.73128,0.34282 -49.87206,2.98525 -82.31984,2.01163c-28.98012,-0.86957 -61.97042,-7.60063 -93.71398,-7.80044c-36.76257,-0.2314 -74.20939,6.32068 -106.90605,5.7715c-43.45165,-0.72982 -79.6799,-6.40062 -99.02859,-6.40062c-29.09663,0 -60.06402,7.77625 -60.06402,7.77625z" fill="#c09f0c" stroke="#d8b20d"/><path d="M-4.60997,436.05534v-23.32873c0,0 28.25516,-5.18416 55.44371,-5.18416c20.42029,0 61.08924,6.42611 109.58412,6.97787c31.29068,0.35601 67.1596,-7.3363 101.62944,-7.41484c37.7742,-0.08609 75.95784,6.59839 108.946,7.47096c28.54587,0.75506 53.5603,-2.1449 72.38933,-2.70796c22.7579,-0.68056 36.47983,0.85815 36.47983,0.85815v23.32873c0,0 -16.52207,-1.76718 -42.43995,-1.35832c-21.73128,0.34282 -49.87206,2.98525 -82.31984,2.01163c-28.98012,-0.86957 -61.97042,-7.60063 -93.71398,-7.80044c-36.76257,-0.2314 -74.20939,6.32068 -106.90605,5.7715c-43.45165,-0.72982 -79.6799,-6.40062 -99.02859,-6.40062c-29.09663,0 -60.06402,7.77625 -60.06402,7.77625z" data-paper-data="{&quot;index&quot;:null}" fill="#b3940b" stroke="#cca90c"/></g><path d="M0.32072,243.816c0,0 73.02013,-27.59857 85.69487,-26.43008c20.92711,1.92927 47.83252,4.55142 77.74419,4.89506c30.98944,0.35602 66.51303,-7.3363 100.65102,-7.41485c37.41054,-0.08609 75.22657,6.5984 107.89715,7.47096c28.27106,0.75506 53.04466,-2.14489 71.69241,-2.70796c22.5388,-0.68056 36.12862,0.85815 36.12862,0.85815v23.32873c0,0 -16.36301,-1.76718 -42.03137,-1.3583c-21.52207,0.34282 -49.39192,2.98525 -81.52732,2.01163c-28.7011,-0.86957 -61.3738,-7.60063 -92.81176,-7.80045c-36.40866,-0.2314 -73.49496,6.32068 -105.87684,5.7715c-43.03332,-0.72982 -78.9128,-6.40064 -98.0752,-6.40064c-28.81649,0 -59.48576,7.77625 -59.48576,7.77625z" fill="#dab40d" stroke="#f1c70e" stroke-width="1"/><path d="M165.08346,177.28098c30.76182,0.35602 66.02451,-7.3363 99.91176,-7.41485c37.13577,-0.08609 74.67405,6.5984 107.10466,7.47096c28.06341,0.75506 52.65506,-2.14489 71.16584,-2.70796c22.37326,-0.68056 35.86327,0.85815 35.86327,0.85815v23.32873c0,0 -16.24283,-1.76718 -41.72266,-1.3583c-21.36399,0.34282 -49.02914,2.98525 -80.92851,2.01163c-28.4903,-0.86957 -60.92302,-7.60063 -92.13007,-7.80045c-36.14124,-0.2314 -72.95515,6.32068 -105.09919,5.7715c-42.71725,-0.72982 -23.85707,-20.50305 5.8349,-20.15941z" fill="#dab40d" stroke="#f1c70e" stroke-width="1"/><path d="M-2.04165,238.45964l225.54169,-90l258.54174,1c0,0 0,60.86883 0,60.86883c0,0 -2.14965,-11.17068 -5.51733,-19.51889c-2.46612,-6.11332 -6.04915,-10.24934 -7.59787,-9.69845c-14.0653,5.00313 -37.72719,10.11658 -62.40764,0.9305c-0.19236,0.02157 -66.95796,-11.03991 -83.03069,-11.36432c-39.82627,8.33745 -44.35434,11.71962 -82.91453,8.86334c-28.08821,-2.08059 -63.93468,33.9023 -74.02286,33.83776c-27.27454,-0.17449 -45.24555,12.19955 -65.74246,9.82111c-17.45316,-2.02525 -23.66235,22.12897 -62.28748,22.12897c-26.81706,0 -40.56256,17 -40.56256,17z" fill="url(#color-4)" stroke="#12a22d" stroke-width="0"/><path d="M-13.97907,238.49249v-39.35715c0,0 6.25051,-2.80953 9.33334,-2.80953c3.02727,0 9,2.80953 9,2.80953v37.02382l-6.51404,2.33333z" fill="url(#color-5)" stroke="none" stroke-width="0"/><g stroke="none" stroke-width="0"><path d="M234.75338,150.68599c-0.53698,1.00475 -3.8989,-1.30411 -8.30863,-3.66089c-4.40973,-2.35677 -7.76528,-4.67754 -7.2283,-5.68229c0.53698,-1.00475 4.76317,-0.313 9.1729,2.04377c4.40973,2.35677 6.90102,6.29466 6.36403,7.29941z" data-paper-data="{&quot;index&quot;:null}" fill="url(#color-6)"/><path d="M244.63575,143.50977c4.40973,-2.35677 8.63591,-3.04852 9.1729,-2.04377c0.53699,1.00475 -2.81857,3.32552 -7.2283,5.68229c-4.40973,2.35677 -7.77165,4.66564 -8.30863,3.66089c-0.53698,-1.00475 1.9543,-4.94263 6.36403,-7.29941z" data-paper-data="{&quot;index&quot;:null}" fill="url(#color-7)"/><path d="M222.06579,139.5c0,-7.97182 6.46245,-14.43427 14.43427,-14.43427c7.97182,0 14.43427,6.46245 14.43427,14.43427c0,7.97182 -6.46244,14.43427 -14.43427,14.43427c-7.97182,0 -14.43427,-6.46245 -14.43427,-14.43427z" fill="url(#color-8)"/><path d="M225.41555,139.5c0,-6.12179 4.9627,-11.0845 11.0845,-11.0845c6.12179,0 11.0845,4.9627 11.0845,11.0845c0,6.12179 -4.9627,11.0845 -11.0845,11.0845c-6.12179,0 -11.0845,-4.9627 -11.0845,-11.0845z" fill="url(#color-9)"/><path d="M235.57477,153.51736c0.08431,1.13612 -3.99131,0.98568 -8.97761,1.35571c-4.9863,0.37003 -9.06292,0.20613 -9.14723,-0.92999c-0.08431,-1.13612 3.85562,-2.81423 8.84192,-3.18426c4.9863,-0.37003 9.19862,1.62242 9.28293,2.75854z" fill="url(#color-10)"/><path d="M246.70825,150.63563c4.9863,0.37003 8.92622,2.04814 8.84191,3.18426c-0.08431,1.13612 -4.16093,1.30002 -9.14723,0.92999c-4.9863,-0.37003 -9.06191,-0.21959 -8.97761,-1.35571c0.08431,-1.13612 4.29662,-3.12858 9.28292,-2.75854z" data-paper-data="{&quot;index&quot;:null}" fill="url(#color-11)"/></g><g stroke="none" stroke-width="0"><path d="M266.75338,155.68599c-0.53698,1.00475 -3.8989,-1.30411 -8.30863,-3.66089c-4.40973,-2.35677 -7.76528,-4.67754 -7.2283,-5.68229c0.53698,-1.00475 4.76317,-0.313 9.1729,2.04377c4.40973,2.35677 6.90102,6.29466 6.36403,7.29941z" data-paper-data="{&quot;index&quot;:null}" fill="url(#color-12)"/><path d="M276.63572,148.50977c4.40973,-2.35677 8.63591,-3.04852 9.1729,-2.04377c0.53699,1.00475 -2.81857,3.32552 -7.2283,5.68229c-4.40973,2.35677 -7.77165,4.66564 -8.30863,3.66089c-0.53698,-1.00475 1.9543,-4.94263 6.36403,-7.29941z" data-paper-data="{&quot;index&quot;:null}" fill="url(#color-13)"/><path d="M254.06578,144.5c0,-7.97182 6.46245,-14.43427 14.43427,-14.43427c7.97182,0 14.43427,6.46245 14.43427,14.43427c0,7.97182 -6.46244,14.43427 -14.43427,14.43427c-7.97182,0 -14.43427,-6.46245 -14.43427,-14.43427z" fill="url(#color-14)"/><path d="M257.41553,144.5c0,-6.12179 4.9627,-11.0845 11.0845,-11.0845c6.12179,0 11.0845,4.9627 11.0845,11.0845c0,6.12179 -4.9627,11.0845 -11.0845,11.0845c-6.12179,0 -11.0845,-4.9627 -11.0845,-11.0845z" fill="url(#color-15)"/><path d="M267.57475,158.51736c0.08431,1.13612 -3.99131,0.98568 -8.97761,1.35571c-4.9863,0.37003 -9.06292,0.20613 -9.14723,-0.92999c-0.08431,-1.13612 3.85562,-2.81423 8.84192,-3.18426c4.9863,-0.37003 9.19862,1.62242 9.28293,2.75854z" fill="url(#color-16)"/><path d="M278.70823,155.63563c4.9863,0.37003 8.92622,2.04814 8.84191,3.18426c-0.08431,1.13612 -4.16093,1.30002 -9.14723,0.92999c-4.9863,-0.37003 -9.06191,-0.21959 -8.97761,-1.35571c0.08431,-1.13612 4.29662,-3.12858 9.28292,-2.75854z" data-paper-data="{&quot;index&quot;:null}" fill="url(#color-17)"/></g><g stroke="none" stroke-width="0"><path d="M310.75338,149.68599c-0.53698,1.00475 -3.8989,-1.30411 -8.30863,-3.66089c-4.40973,-2.35677 -7.76528,-4.67754 -7.2283,-5.68229c0.53698,-1.00475 4.76317,-0.313 9.1729,2.04377c4.40973,2.35677 6.90102,6.29466 6.36403,7.29941z" data-paper-data="{&quot;index&quot;:null}" fill="url(#color-18)"/><path d="M320.63572,142.50977c4.40973,-2.35677 8.63591,-3.04852 9.1729,-2.04377c0.53699,1.00475 -2.81857,3.32552 -7.2283,5.68229c-4.40973,2.35677 -7.77165,4.66564 -8.30863,3.66089c-0.53698,-1.00475 1.9543,-4.94263 6.36403,-7.29941z" data-paper-data="{&quot;index&quot;:null}" fill="url(#color-19)"/><path d="M298.06576,138.5c0,-7.97182 6.46245,-14.43427 14.43427,-14.43427c7.97182,0 14.43427,6.46245 14.43427,14.43427c0,7.97182 -6.46244,14.43427 -14.43427,14.43427c-7.97182,0 -14.43427,-6.46245 -14.43427,-14.43427z" fill="url(#color-20)"/><path d="M301.41553,138.5c0,-6.12179 4.9627,-11.0845 11.0845,-11.0845c6.12179,0 11.0845,4.9627 11.0845,11.0845c0,6.12179 -4.9627,11.0845 -11.0845,11.0845c-6.12179,0 -11.0845,-4.9627 -11.0845,-11.0845z" fill="url(#color-21)"/><path d="M311.57475,152.51736c0.08431,1.13612 -3.99131,0.98568 -8.97761,1.35571c-4.9863,0.37003 -9.06292,0.20613 -9.14723,-0.92999c-0.08431,-1.13612 3.85562,-2.81423 8.84192,-3.18426c4.9863,-0.37003 9.19862,1.62242 9.28293,2.75854z" fill="url(#color-22)"/><path d="M322.70826,149.63563c4.9863,0.37003 8.92622,2.04814 8.84191,3.18426c-0.08431,1.13612 -4.16093,1.30002 -9.14723,0.92999c-4.9863,-0.37003 -9.06191,-0.21959 -8.97761,-1.35571c0.08431,-1.13612 4.29662,-3.12858 9.28292,-2.75854z" data-paper-data="{&quot;index&quot;:null}" fill="url(#color-23)"/></g></g></g></svg>