<svg version="1.1" xmlns="http://www.w3.org/2000/svg" xmlns:xlink="http://www.w3.org/1999/xlink" width="128.76046" height="164.27895" viewBox="0,0,128.76046,164.27895"><defs><linearGradient x1="252.45317" y1="245.69813" x2="282.76194" y2="228.72568" gradientUnits="userSpaceOnUse" id="color-1"><stop offset="0" stop-color="#003fb5"/><stop offset="1" stop-color="#00379d"/></linearGradient><linearGradient x1="262.1825" y1="262.84462" x2="296.07072" y2="243.86774" gradientUnits="userSpaceOnUse" id="color-2"><stop offset="0" stop-color="#8e4108"/><stop offset="1" stop-color="#ae4e0e"/></linearGradient><linearGradient x1="292.81386" y1="206.14051" x2="303.90427" y2="190.44191" gradientUnits="userSpaceOnUse" id="color-3"><stop offset="0" stop-color="#e8001f"/><stop offset="1" stop-color="#df001e"/></linearGradient><linearGradient x1="318.64759" y1="233.83462" x2="340.06864" y2="203.51288" gradientUnits="userSpaceOnUse" id="color-4"><stop offset="0" stop-color="#cecece"/><stop offset="1" stop-color="#f2f2f2"/></linearGradient><linearGradient x1="307.4973" y1="222.28597" x2="324.57754" y2="198.10867" gradientUnits="userSpaceOnUse" id="color-5"><stop offset="0" stop-color="#cecece"/><stop offset="1" stop-color="#f2f2f2"/></linearGradient><linearGradient x1="262.90701" y1="178.42073" x2="262.90701" y2="228.79143" gradientUnits="userSpaceOnUse" id="color-6"><stop offset="0" stop-color="#0052ef"/><stop offset="1" stop-color="#0046c7"/></linearGradient><linearGradient x1="265.11337" y1="175.98154" x2="265.11337" y2="203.41659" gradientUnits="userSpaceOnUse" id="color-7"><stop offset="0" stop-color="#ff556b"/><stop offset="1" stop-color="#ef0020"/></linearGradient><linearGradient x1="226.76965" y1="228.85226" x2="260.1994" y2="238.29361" gradientUnits="userSpaceOnUse" id="color-8"><stop offset="0" stop-color="#0052ef"/><stop offset="1" stop-color="#0046c7"/></linearGradient><linearGradient x1="221.60556" y1="247.54664" x2="258.98337" y2="258.10302" gradientUnits="userSpaceOnUse" id="color-9"><stop offset="0" stop-color="#8e4108"/><stop offset="1" stop-color="#ae4e0e"/></linearGradient><linearGradient x1="256.89602" y1="152.41894" x2="268.3068" y2="163.24109" gradientUnits="userSpaceOnUse" id="color-10"><stop offset="0" stop-color="#82491d"/><stop offset="1" stop-color="#5a2c0a"/></linearGradient><linearGradient x1="300.87129" y1="143.54454" x2="264.57892" y2="181.81091" gradientUnits="userSpaceOnUse" id="color-11"><stop offset="0" stop-color="#ffead6"/><stop offset="1" stop-color="#f5b677"/></linearGradient><linearGradient x1="299.02277" y1="142.19893" x2="285.34102" y2="156.62485" gradientUnits="userSpaceOnUse" id="color-12"><stop offset="0" stop-color="#f5b477"/><stop offset="1" stop-color="#f5b477" stop-opacity="0"/></linearGradient><linearGradient x1="280.57285" y1="140.14343" x2="289.09135" y2="148.2225" gradientUnits="userSpaceOnUse" id="color-13"><stop offset="0" stop-color="#5a2c0a"/><stop offset="1" stop-color="#82491d"/></linearGradient><linearGradient x1="284.01622" y1="106.01293" x2="339.04985" y2="158.2076" gradientUnits="userSpaceOnUse" id="color-14"><stop offset="0" stop-color="#ff1938"/><stop offset="1" stop-color="#ef0020"/></linearGradient><linearGradient x1="319.7423" y1="137.71545" x2="337.4463" y2="154.50617" gradientUnits="userSpaceOnUse" id="color-15"><stop offset="0" stop-color="#f2f2f2"/><stop offset="1" stop-color="#ffffff"/></linearGradient><linearGradient x1="321.7021" y1="148.31939" x2="309.30496" y2="161.39083" gradientUnits="userSpaceOnUse" id="color-16"><stop offset="0" stop-color="#bc041a"/><stop offset="1" stop-color="#880010"/></linearGradient><linearGradient x1="322.94539" y1="139.86024" x2="335.48913" y2="151.7569" gradientUnits="userSpaceOnUse" id="color-17"><stop offset="0" stop-color="#f40828"/><stop offset="1" stop-color="#f10323"/></linearGradient><radialGradient cx="309.83056" cy="182.12373" r="13.17095" gradientUnits="userSpaceOnUse" id="color-18"><stop offset="0" stop-color="#ffead6"/><stop offset="1" stop-color="#f7c594"/></radialGradient><linearGradient x1="301.33336" y1="178.96846" x2="315.60622" y2="186.81443" gradientUnits="userSpaceOnUse" id="color-19"><stop offset="0" stop-color="#ffce6b"/><stop offset="1" stop-color="#d19e38"/></linearGradient><linearGradient x1="320.36729" y1="160.88996" x2="302.49274" y2="193.40613" gradientUnits="userSpaceOnUse" id="color-20"><stop offset="0" stop-color="#28282c"/><stop offset="1" stop-color="#000000"/></linearGradient><linearGradient x1="260.36312" y1="210.84827" x2="265.42404" y2="187.35048" gradientUnits="userSpaceOnUse" id="color-21"><stop offset="0" stop-color="#ff1938"/><stop offset="1" stop-color="#ef0020"/></linearGradient><linearGradient x1="289.79958" y1="233.22491" x2="297.27886" y2="198.49864" gradientUnits="userSpaceOnUse" id="color-22"><stop offset="0" stop-color="#f2f2f2"/><stop offset="1" stop-color="#ffffff"/></linearGradient><linearGradient x1="277.71311" y1="222.4728" x2="283.72886" y2="194.54168" gradientUnits="userSpaceOnUse" id="color-23"><stop offset="0" stop-color="#f2f2f2"/><stop offset="1" stop-color="#ffffff"/></linearGradient></defs><g transform="translate(-219.08149,-105.54295)"><g data-paper-data="{&quot;isPaintingLayer&quot;:true}" fill-rule="nonzero" stroke-linejoin="miter" stroke-miterlimit="10" stroke-dasharray="" stroke-dashoffset="0" style="mix-blend-mode: normal"><g data-paper-data="{&quot;origRot&quot;:0}" stroke-linecap="butt"><path d="M280.60354,235.62392c2.44731,3.85863 7.82332,2.89689 8.18406,3.86966c1.4595,3.93586 1.16843,7.4481 -3.87591,12.50986c-6.24854,6.27012 -12.36203,9.04467 -21.21223,8.86405c-6.02775,-0.12303 -3.32817,-4.65756 -4.38661,-10.59294c-0.37979,-2.12978 -1.22751,-4.71883 -3.4362,-9.68636c-2.76144,-6.21072 -5.60751,-18.74651 -5.60751,-18.74651c0,0 4.25616,-3.31336 8.80963,-5.95403c4.53119,-2.56414 10.09521,-3.23258 10.09521,-3.23258c0,0 5.77232,14.04915 11.42956,22.96886z" data-paper-data="{&quot;origPos&quot;:null}" fill="url(#color-1)" stroke="none" stroke-width="0"/><path d="M297.70085,251.49012c1.90478,3.40149 -0.65906,6.94238 -3.43335,9.68128c-1.81812,1.79492 -12.41292,7.32713 -19.28217,7.19406c-2.1326,-0.04133 -4.63249,-1.44625 -4.63249,-1.44625c0,0 -4.02352,3.1236 -4.72266,1.84551c-0.55499,-1.01457 -1.54249,-2.71846 -0.85805,-3.78955c2.94615,-4.61053 12.91736,-10.18718 17.69126,-12.8605c6.55351,-3.66987 13.37554,-3.94948 15.23745,-0.62454z" data-paper-data="{&quot;origPos&quot;:null}" fill="#5c3822" stroke="#5c3822" stroke-width="1.5"/><path d="M296.95241,246.2966c1.03727,4.64915 -1.35391,9.72653 -8.76274,13.87537c-7.40883,4.14883 -17.74072,4.28991 -17.74072,4.28991c0,0 -5.20558,3.28596 -6.0847,1.97058c-1.81957,-2.72247 -4.47331,-7.3411 -3.48035,-8.09673c3.66571,-2.7896 3.21596,-1.82997 7.79707,-5.85693c2.96604,-2.60726 6.79728,-8.97053 10.24291,-10.90003c7.40883,-4.14883 16.32067,-2.93706 18.02854,4.71785z" data-paper-data="{&quot;origPos&quot;:null}" fill="url(#color-2)" stroke="#5c3822" stroke-width="1.5"/></g><g data-paper-data="{&quot;index&quot;:null,&quot;origRot&quot;:0}" stroke-linecap="butt"><path d="M282.52965,187.60267c3.12687,-4.29881 13.60873,-2.80842 21.48059,2.91739c7.87186,5.72582 14.49951,12.34419 14.49951,12.34419l-9.23545,13.00806c0,0 -13.40551,-7.44739 -19.73692,-12.05272c-7.87186,-5.72582 -10.13459,-11.9181 -7.00774,-16.21692z" data-paper-data="{&quot;origRot&quot;:0,&quot;origPos&quot;:null}" fill="url(#color-3)" stroke="none" stroke-width="0"/><g data-paper-data="{&quot;origPos&quot;:null}" stroke="#cdcdcd" stroke-width="1.5"><path d="M317.64132,213.07932c5.16903,-7.83782 11.99936,-17.24841 19.92865,-11.3263c5.75241,4.29626 8.66565,18.09494 1.88132,24.58519c-7.40325,7.08234 -12.86991,14.5821 -21.10884,7.12278c-7.69297,-6.96502 -5.87016,-12.54383 -0.70114,-20.38166z" data-paper-data="{&quot;origRot&quot;:0}" fill="url(#color-4)"/><path d="M311.81696,207.70727c3.99876,-6.04601 7.38187,-13.72406 11.77541,-10.28646c4.91503,3.84563 3.56451,5.21416 -3.21415,14.93278c-7.72216,11.07131 -6.88681,14.16929 -12.47903,10.21638c-3.26547,-2.30823 -0.08097,-8.81668 3.91778,-14.86269z" data-paper-data="{&quot;origRot&quot;:0}" fill="url(#color-5)"/></g></g><g><path d="M290.90281,201.59143c0.39163,21.17353 -13.11217,27.2 -28.3,27.2c-15.18783,0 -27.7,-10.03796 -27.7,-20.2c0,-11.02412 1.31852,-19.79986 9.82136,-26.81648c6.33487,-5.22759 15.46535,-2.78352 23.67864,-2.78352c15.18783,0 22.11612,1.84521 22.5,22.6z" data-paper-data="{&quot;origPos&quot;:null}" fill="url(#color-6)" stroke="#003393" stroke-width="1.5" stroke-linecap="butt"/><path d="M290.90281,200.99143c0,0 -17.24385,2 -29.4,2.4c-11.15011,0.36689 -22.4,-3.4 -22.4,-3.4c0,0 -0.98648,-13.79564 6.98462,-19.16002c5.21526,-3.50975 11.08038,-4.65914 18.61538,-4.83998c7.535,-0.18084 15.72889,2.13912 19.52206,5.21215c8.95988,7.25886 6.67794,19.78785 6.67794,19.78785z" data-paper-data="{&quot;origPos&quot;:null}" fill="url(#color-7)" stroke="#ac1429" stroke-width="1.5" stroke-linecap="butt"/><path d="M277.01067,179.88274c0,0 2.14029,6.84028 2.57206,10.95319c0.55457,5.28272 -0.57997,15.20846 -0.57997,15.20846" data-paper-data="{&quot;origPos&quot;:null,&quot;origRot&quot;:0}" fill="none" stroke="#0052ef" stroke-width="10" stroke-linecap="round"/><path d="M255.50285,180.39143c0,0 1.23985,7.05925 1.13735,11.19349c-0.13165,5.31011 -2.53735,15.00651 -2.53735,15.00651" data-paper-data="{&quot;origPos&quot;:null}" fill="none" stroke="#0052ef" stroke-width="10" stroke-linecap="round"/><path d="M250.70285,204.69143c0,-2.26436 1.83563,-4.1 4.1,-4.1c2.26436,0 4.1,1.83564 4.1,4.1c0,2.26436 -1.83563,4.1 -4.1,4.1c-2.26436,0 -4.1,-1.83563 -4.1,-4.1z" data-paper-data="{&quot;origPos&quot;:null}" fill="#ffe84f" stroke="#baa100" stroke-width="1" stroke-linecap="butt"/><path d="M275.50285,204.69143c0,-2.26436 1.83563,-4.1 4.1,-4.1c2.26436,0 4.1,1.83564 4.1,4.1c0,2.26436 -1.83564,4.1 -4.1,4.1c-2.26436,0 -4.1,-1.83563 -4.1,-4.1z" data-paper-data="{&quot;origPos&quot;:null}" fill="#ffe84f" stroke="#baa100" stroke-width="1" stroke-linecap="butt"/></g><g data-paper-data="{&quot;origRot&quot;:0}" stroke-linecap="butt"><path d="M253.88123,241.33509c-0.99945,4.45863 3.48101,7.5815 3.0479,8.52428c-1.75232,3.81452 -4.44243,6.09133 -11.58851,6.10125c-8.85202,0.01231 -15.13605,-2.35078 -21.26423,-8.73858c-4.17382,-4.35064 0.9419,-5.64645 4.39206,-10.59068c1.23801,-1.77412 2.47014,-4.20387 4.42263,-9.27756c2.44112,-6.34345 10.08612,-17.25455 10.08612,-17.25455c0,0 7.3137,2.00175 11.8879,4.25039c3.6099,1.77461 9.08281,6.0587 9.08281,6.0587c0,0 -7.75632,10.62004 -10.06667,20.92672z" data-paper-data="{&quot;origPos&quot;:null}" fill="url(#color-8)" stroke="none" stroke-width="0"/><path d="M254.74402,264.64411c-1.05959,3.75174 -5.37652,4.44119 -9.27491,4.41488c-2.55481,-0.01726 -13.95712,-3.60085 -18.71867,-8.55384c-1.47825,-1.53769 -2.25158,-4.29907 -2.25158,-4.29907c0,0 -5.05356,-0.63802 -4.64372,-2.03599c0.32535,-1.10973 0.83254,-3.01267 2.07399,-3.28566c5.34378,-1.1751 16.33673,1.93597 21.60221,3.42307c7.22834,2.04145 12.2484,6.66931 11.21267,10.33663z" data-paper-data="{&quot;origPos&quot;:null}" fill="#5c3822" stroke="#5c3822" stroke-width="1.5"/><path d="M257.88855,260.44356c-2.55533,4.02004 -7.83703,5.91773 -16.00875,3.60982c-8.17174,-2.30789 -15.57484,-9.51635 -15.57484,-9.51635c0,0 -6.00397,-1.35938 -5.69498,-2.91103c0.63952,-3.2115 2.03063,-8.35336 3.26702,-8.18515c4.56438,0.62103 3.56768,0.98125 9.65437,1.37512c3.94084,0.255 11.15004,-1.53301 14.95047,-0.45967c8.17173,2.30788 13.61411,9.46818 9.40671,16.08726z" data-paper-data="{&quot;origPos&quot;:null}" fill="url(#color-9)" stroke="#5c3822" stroke-width="1.5"/></g><g><path d="M337.05617,179.62165c-3.02241,2.36149 -14.5451,-1.94209 -21.00998,-8.07347c-5.2094,-4.94067 0.73026,-8.61717 3.2386,-11.26195c2.50834,-2.64477 12.17025,7.61451 17.37965,12.55518c5.2094,4.94067 2.34809,5.25166 0.39172,6.78023z" data-paper-data="{&quot;origPos&quot;:null}" fill="#880010" stroke="none" stroke-width="0" stroke-linecap="butt"/><path d="M257.21247,160.28299c0,0 -2.0392,-0.3207 -2.46408,-2.60909c-0.42489,-2.28837 0.76222,-5.52247 3.77961,-4.74292c3.6091,0.93242 7.17786,-4.05947 7.60275,-1.7711c0,0 4.54495,5.71861 2.95869,8.20234c0,0 -3.53698,8.16259 -5.36384,8.27215c0,0 -2.20242,-0.26705 -5.42193,-3.62301c-1.74438,-1.8183 -1.0912,-3.72838 -1.0912,-3.72838z" data-paper-data="{&quot;origRot&quot;:0}" fill="url(#color-10)" stroke="#5c3822" stroke-width="1" stroke-linecap="butt"/><path d="M285.84357,134.19782c2.43707,3.69935 28.5146,24.05537 32.49682,28.27598c5.89164,6.24433 -1.15211,10.22748 -6.60614,16.85747c-6.27096,7.62306 -4.37396,15.60209 -13.24096,19.93938c-3.41872,1.67227 -6.87331,0.96783 -10.66313,0.61945c-2.14994,-0.19763 -6.47723,-2.51295 -14.45758,-9.77581c-11.2807,-10.2665 -12.71885,-15.03351 -13.98318,-22.8369c-0.80281,-4.95493 3.43576,-6.89288 4.4398,-12.56572c0.30777,-1.73894 0.01127,-3.10348 -0.12988,-3.23735c-7.5245,-7.13635 -5.76603,-17.27509 -0.19194,-23.15236c5.57409,-5.87728 12.77814,-8.09491 16.98573,-4.10437c4.20759,3.99054 4.50306,8.69396 5.35045,9.98025z" data-paper-data="{&quot;origPos&quot;:null}" fill="url(#color-11)" stroke="none" stroke-width="0" stroke-linecap="butt"/><path d="M285.85464,134.61588c2.43707,3.69935 28.5146,24.05537 32.49682,28.27598c5.70689,6.04851 -0.72307,9.97545 -6.08881,16.24141c-1.68164,-1.15891 -45.34497,-40.6947 -51.68798,-45.99711c0.84243,-2.15312 1.38382,-2.75134 2.94377,-4.39615c5.57409,-5.87728 12.77814,-8.09491 16.98573,-4.10437c4.20759,3.99054 4.50306,8.69396 5.35045,9.98025z" data-paper-data="{&quot;origPos&quot;:null}" fill="url(#color-12)" stroke="none" stroke-width="0" stroke-linecap="butt"/><path d="M317.22136,171.13253c-3.10858,3.78969 -7.53245,5.30015 -9.88098,3.3737c-2.34854,-1.92644 -1.7324,-6.56027 1.37617,-10.34995c3.10858,-3.78969 7.53244,-5.30014 9.88098,-3.3737c2.34854,1.92644 1.73241,6.56028 -1.37616,10.34996z" data-paper-data="{&quot;origPos&quot;:null,&quot;origRot&quot;:0}" fill="#ffffff" stroke="none" stroke-width="0" stroke-linecap="butt"/><path d="M288.01314,147.03788c-1.79502,1.89265 -2.20175,6.76541 -4.68875,5.97861c-2.89319,-0.91531 -2.64319,-3.20907 -2.64319,-3.20907c0,0 -0.66185,1.54398 -3.7835,-0.47445c-2.31891,-1.49938 0.91225,-6.27636 3.95266,-9.48215c3.04041,-3.20579 5.97351,-6.32268 8.04582,-4.49757c8.72505,7.68429 2.15737,8.47884 -0.88303,11.68462z" data-paper-data="{&quot;origPos&quot;:null}" fill="url(#color-13)" stroke="#5c3822" stroke-width="1" stroke-linecap="butt"/><path d="M304.32809,165.80199c-2.93574,3.9251 -7.28752,5.63217 -9.71997,3.81284c-2.43246,-1.81933 -2.02447,-6.47612 0.91126,-10.40122c2.93574,-3.9251 7.28752,-5.63217 9.71997,-3.81284c2.43246,1.81933 2.02447,6.47612 -0.91126,10.40122z" data-paper-data="{&quot;origPos&quot;:null,&quot;origRot&quot;:0}" fill="#ffffff" stroke="none" stroke-width="0" stroke-linecap="butt"/><path d="M304.81217,161.23287c0.69075,0.65511 0.83793,1.75257 0.51932,2.99675c-0.31934,1.2435 -1.10517,2.63445 -2.28258,3.8759c-1.17742,1.24146 -2.52484,2.09978 -3.74969,2.48448c-1.22558,0.384 -2.32929,0.2951 -3.02003,-0.36002c-0.69075,-0.65511 -0.83793,-1.75257 -0.51932,-2.99675c0.31934,-1.2435 1.10517,-2.63445 2.28258,-3.8759c1.17742,-1.24146 2.52484,-2.09978 3.74969,-2.48448c1.22558,-0.384 2.32929,-0.2951 3.02003,0.36002z" data-paper-data="{&quot;origPos&quot;:null}" id="ID0.2989244391210377" fill="#000000" stroke="#00aaff" stroke-width="1.5" stroke-linecap="butt"/><path d="M317.37564,166.87735c0.69075,0.65511 0.83793,1.75257 0.51932,2.99675c-0.31934,1.2435 -1.43605,2.64038 -2.28258,3.8759c-0.31069,0.4482 -0.74136,1.12027 -1.3475,1.20281c-0.74751,0.08628 -1.51645,-0.2626 -2.20811,-0.57816c-1.09024,-0.67566 -2.70748,-1.1386 -3.06872,-2.35913c-0.30178,-1.08558 0.82549,-2.16373 1.61786,-3.01372c1.02347,-1.09803 2.52484,-2.09978 3.74969,-2.48448c1.22558,-0.384 2.32929,-0.2951 3.02003,0.36002z" data-paper-data="{&quot;origPos&quot;:null}" id="ID0.2989244391210377" fill="#000000" stroke="#00aaff" stroke-width="1.5" stroke-linecap="round"/><path d="M345.41849,150.30573c-8.54523,12.49254 -11.22598,11.12138 -20.34432,9.06732c-13.28617,-2.99294 -23.41918,-14.54826 -36.21191,-19.22011c-3.35903,-1.2267 -7.05076,-9.48781 -9.64542,-11.94863c-5.30683,-5.03307 -4.70411,-11.66574 -0.6389,-16.39127c8.96692,-10.42343 13.91025,-5.80851 19.21708,-0.77543c0,0 4.92225,6.50707 4.00093,11.51886c0,0 20.662,-5.51363 30.77546,0.97602c13.01886,8.354 18.98367,17.80195 12.84707,26.77324z" data-paper-data="{&quot;origPos&quot;:null}" fill="url(#color-14)" stroke="none" stroke-width="0" stroke-linecap="butt"/><path d="M337.45208,154.50008c-3.76251,3.96716 -7.65486,5.94497 -15.66463,-1.21218c-8.45574,-7.55565 -5.80188,-11.61138 -2.03937,-15.57854c3.76251,-3.96716 10.7758,-3.42445 15.66463,1.21218c4.88882,4.63663 5.80188,11.61138 2.03937,15.57854z" data-paper-data="{&quot;origPos&quot;:null}" fill="url(#color-15)" stroke="none" stroke-width="0" stroke-linecap="butt"/><path d="M338.79148,178.37319c-0.73587,0.48526 -33.01907,-22.35733 -41.79507,-29.02675c-4.26525,-3.24142 -11.79079,-10.96414 -11.05492,-11.4494c2.72026,-1.79384 7.7089,-4.05216 12.54466,-1.74684c5.84376,2.78587 24.88316,13.42821 36.18602,24.48105c4.62055,4.51834 6.83958,15.94809 4.11931,17.74194z" data-paper-data="{&quot;origPos&quot;:null}" fill="url(#color-16)" stroke="none" stroke-width="0" stroke-linecap="butt"/><path d="M318.56755,144.4762l12.32649,-5.98122l-0.89115,7.33922l5.62988,-1.97828l-3.06864,10.98507l-4.1754,-0.9143l4.15663,-6.58847l-5.18246,1.5193l0.63613,-5.86136l-6.3152,4.43558z" data-paper-data="{&quot;origPos&quot;:null}" fill="url(#color-17)" stroke="none" stroke-width="0" stroke-linecap="butt"/><path d="M297.79741,199.08124c-2.0229,1.59365 -4.29882,1.196 -5.61749,0.48563c-4.02463,-2.16806 -8.56761,-6.71693 -10.83575,-10.686c-1.30355,-2.28112 -0.21608,-3.49266 -0.23577,-3.82487c-0.0208,-0.351 -3.233,-0.90671 -5.60546,-3.15678c-3.80687,-3.61049 -3.89517,-8.78997 -0.33219,-12.54675c3.90706,-4.11957 6.43568,-6.06971 7.16773,-5.60056c2.87421,2.6081 2.95846,8.25289 3.67557,11.06073c0,0 6.37882,11.84867 10.94553,15.71108c0,0 10.0979,3.3598 12.12954,5.55922c1.0076,1.09081 -1.12209,3.35042 -2.54045,4.16664c0,0 -2.8372,3.21258 -5.12518,2.61197c-5.40989,-1.42013 -3.04065,-4.24151 -3.62609,-3.78031z" data-paper-data="{&quot;origPos&quot;:null}" fill="#291e16" stroke="#321f12" stroke-width="0" stroke-linecap="butt"/><path d="M312.78539,191.24453c-4.91694,4.45779 -6.63563,8.84247 -16.89547,-1.23265c-4.72866,-4.64354 -6.59199,-11.57755 -2.55395,-15.83523c4.03805,-4.25768 13.66005,-5.11343 18.80843,-0.94006c7.5015,6.08087 8.50735,10.87613 0.64099,18.00794z" data-paper-data="{&quot;origPos&quot;:null}" fill="url(#color-18)" stroke="#c79260" stroke-width="1.5" stroke-linecap="butt"/><g data-paper-data="{&quot;origPos&quot;:null}" fill="none" stroke="#c79260" stroke-width="3.5" stroke-linecap="round"><path d="M271.09967,129.57933c0,0 3.34057,0.78398 4.07583,5.51872c1.05448,6.7904 -6.19662,9.79608 -6.19662,9.79608" data-paper-data="{&quot;origPos&quot;:null}"/><path d="M272.80209,140.44778l-4.35344,-4.12887" data-paper-data="{&quot;origPos&quot;:null}"/><path d="M267.32572,143.52324l0.93288,0.88475" data-paper-data="{&quot;origPos&quot;:null}"/></g><path d="M304.66732,151.44974c-1.28054,-0.64904 -1.36703,-0.46318 -2.72611,-0.00065c-1.40208,0.47718 -3.62159,0.69922 -3.62159,0.69922c0,0 1.43782,-3.63524 3.29057,-5.58877c1.258,-1.32642 4.17139,-2.95474 6.6556,-1.47942c7.13635,6.32596 -1.09609,10.88333 -1.09609,10.88333c0,0 -1.13078,-3.86087 -2.50238,-4.51371z" data-paper-data="{&quot;origPos&quot;:null}" fill="#291e16" stroke="none" stroke-width="0" stroke-linecap="butt"/><path d="M319.12224,161.29165c-1.16162,-0.97882 -5.1445,-0.41168 -5.1445,-0.41168c0,0 0.74478,-9.3802 9.45573,-5.49887c2.37061,1.65168 2.09293,4.97767 1.40551,6.67159c-1.01242,2.49479 -3.7276,5.30728 -3.7276,5.30728c0,0 -0.71574,-2.11265 -0.86112,-3.58655c-0.14092,-1.4287 -0.00748,-1.58431 -1.12798,-2.4818z" data-paper-data="{&quot;origPos&quot;:null,&quot;index&quot;:null,&quot;origRot&quot;:0}" fill="#291e16" stroke="none" stroke-width="0" stroke-linecap="butt"/><path d="M305.17659,162.21305c0.30003,0.21951 0.38117,0.67868 0.27059,1.24317c-0.11091,0.56426 -0.41384,1.23422 -0.88287,1.87527c-0.46902,0.64104 -1.01589,1.13253 -1.52011,1.40901c-0.50454,0.27625 -0.96673,0.33787 -1.26675,0.11835c-0.30003,-0.21951 -0.38117,-0.67868 -0.27059,-1.24317c0.11091,-0.56426 0.41383,-1.23423 0.88287,-1.87527c0.46902,-0.64104 1.01589,-1.13253 1.52012,-1.40901c0.50454,-0.27625 0.96673,-0.33787 1.26676,-0.11834z" data-paper-data="{&quot;origPos&quot;:null,&quot;origRot&quot;:0}" id="ID0.2989244391210377" fill="#ffffff" stroke="#00aaff" stroke-width="0" stroke-linecap="butt"/><path d="M317.62847,168.12498c0.30003,0.21953 0.38119,0.67868 0.27059,1.24317c-0.11091,0.56426 -0.41384,1.23422 -0.88288,1.87526c-0.46902,0.64104 -1.01589,1.13253 -1.52011,1.40901c-0.50455,0.27625 -0.96673,0.33787 -1.26675,0.11835c-0.30004,-0.21952 -0.38119,-0.67868 -0.27059,-1.24317c0.11091,-0.56426 0.41384,-1.23422 0.88288,-1.87526c0.46902,-0.64104 1.01589,-1.13253 1.52011,-1.40901c0.50455,-0.27625 0.96673,-0.33787 1.26677,-0.11835z" data-paper-data="{&quot;origPos&quot;:null,&quot;origRot&quot;:0}" id="ID0.2989244391210377" fill="#ffffff" stroke="#00aaff" stroke-width="0" stroke-linecap="butt"/></g><g data-paper-data="{&quot;origPos&quot;:null,&quot;origRot&quot;:0}" stroke="none" stroke-width="0" stroke-linecap="butt"><path d="M286.1071,206.66751c0,0 27.99931,-50.92566 28.20207,-51.30328c1.85189,-3.44877 6.95888,-3.07479 9.89785,-1.4592c3.19596,1.75686 6.41805,5.28551 4.84254,8.30761c-1.7623,3.5357 -28.73169,52.26673 -28.73169,52.26673c0,0 -6.19586,-1.83771 -7.88784,-2.76781c-3.85396,-2.11857 -6.32294,-5.04404 -6.32294,-5.04404z" data-paper-data="{&quot;origPos&quot;:null}" fill="url(#color-19)"/><path d="M276.6235,175.42173l15.09407,-27.45809c0,0 17.78699,6.95494 28.40887,12.79392c10.80988,5.94233 26.50732,17.39422 26.50732,17.39422l-15.09407,27.45809c0,0 -18.47793,-6.39382 -29.28781,-12.33615c-10.62187,-5.83898 -25.62838,-17.85199 -25.62838,-17.85199z" data-paper-data="{&quot;origPos&quot;:null}" fill="url(#color-20)"/><path d="M322.26515,179.8681c-2.42857,4.41789 -5.59112,7.34304 -7.06374,6.53353c-1.47264,-0.80953 -0.69769,-5.04716 1.73089,-9.46506c2.42857,-4.41789 5.59112,-7.34304 7.06374,-6.53353c1.47264,0.80953 0.69769,5.04716 -1.73089,9.46506z" data-paper-data="{&quot;origPos&quot;:null}" fill="#ffffff"/><path d="M308.19407,171.80321c-2.42857,4.41789 -5.59112,7.34304 -7.06374,6.53353c-1.47264,-0.80953 -0.69769,-5.04716 1.73089,-9.46506c2.42857,-4.41789 5.59112,-7.34304 7.06374,-6.53353c1.47264,0.80953 0.69769,5.04716 -1.73089,9.46506z" data-paper-data="{&quot;origPos&quot;:null}" fill="#ffffff"/></g><g data-paper-data="{&quot;origRot&quot;:0,&quot;origPos&quot;:null}" stroke-linecap="butt"><path d="M262.91736,187.8491c6.98751,3.53138 19.73263,12.05975 19.73263,12.05975l-7.35862,14.15465c0,0 -8.91384,-2.87612 -17.60142,-7.2667c-8.68758,-4.39057 -14.79798,-13.0366 -12.40027,-17.78088c2.39769,-4.74428 8.94011,-5.55738 17.62769,-1.16681z" data-paper-data="{&quot;origRot&quot;:0,&quot;origPos&quot;:null}" fill="url(#color-21)" stroke="none" stroke-width="0"/><g data-paper-data="{&quot;origPos&quot;:null}" stroke="#cdcdcd" stroke-width="1.5"><path d="M302.2614,199.85653c10.39752,3.92593 6.21974,12.21309 3.2973,22.03281c-2.67812,8.99878 -16.28529,12.70491 -22.73352,9.54764c-8.88844,-4.35208 -3.63292,-14.72473 0.9815,-22.90138c4.61442,-8.17663 8.74622,-12.34486 18.45473,-8.67909z" data-paper-data="{&quot;origRot&quot;:0,&quot;origPos&quot;:null}" fill="url(#color-22)"/><path d="M287.80435,195.53566c6.06963,3.17146 2.93188,3.84224 -3.3942,15.76642c-5.55316,10.46729 -6.15441,12.29355 -11.81947,9.67567c-5.06399,-2.34012 0.22342,-8.85482 3.77772,-15.17235c3.5543,-6.31752 7.89172,-12.12165 11.43596,-10.26973z" data-paper-data="{&quot;origRot&quot;:0,&quot;origPos&quot;:null}" fill="url(#color-23)"/></g></g></g></g></svg>