<svg version="1.1" xmlns="http://www.w3.org/2000/svg" xmlns:xlink="http://www.w3.org/1999/xlink" width="369.43294" height="163.1282" viewBox="0,0,369.43294,163.1282"><defs><linearGradient x1="143.5179" y1="105.13365" x2="143.5179" y2="146.01299" gradientUnits="userSpaceOnUse" id="color-1"><stop offset="0" stop-color="#000000"/><stop offset="1" stop-color="#000000"/></linearGradient><linearGradient x1="317.55575" y1="156.46743" x2="317.55575" y2="209.05142" gradientUnits="userSpaceOnUse" id="color-2"><stop offset="0" stop-color="#000000"/><stop offset="1" stop-color="#000000"/></linearGradient><linearGradient x1="291.85481" y1="157.33605" x2="291.85481" y2="209.46426" gradientUnits="userSpaceOnUse" id="color-3"><stop offset="0" stop-color="#000000"/><stop offset="1" stop-color="#000000"/></linearGradient><linearGradient x1="238.30945" y1="155.92989" x2="238.30945" y2="209.75444" gradientUnits="userSpaceOnUse" id="color-4"><stop offset="0" stop-color="#000000"/><stop offset="1" stop-color="#000000"/></linearGradient><linearGradient x1="177.27712" y1="156.09539" x2="177.27712" y2="209.75444" gradientUnits="userSpaceOnUse" id="color-5"><stop offset="0" stop-color="#000000"/><stop offset="1" stop-color="#000000"/></linearGradient><linearGradient x1="111.53551" y1="155.88694" x2="111.53551" y2="209.75444" gradientUnits="userSpaceOnUse" id="color-6"><stop offset="0" stop-color="#000000"/><stop offset="1" stop-color="#000000"/></linearGradient><linearGradient x1="71.31825" y1="220.07443" x2="71.31825" y2="248.06247" gradientUnits="userSpaceOnUse" id="color-7"><stop offset="0" stop-color="#ffed4d"/><stop offset="1" stop-color="#e6bd22"/></linearGradient><linearGradient x1="121.45797" y1="220.21425" x2="121.45797" y2="247.82804" gradientUnits="userSpaceOnUse" id="color-8"><stop offset="0" stop-color="#ffed4d"/><stop offset="1" stop-color="#e6bd22"/></linearGradient><linearGradient x1="148.59644" y1="220.21743" x2="148.59644" y2="247.80812" gradientUnits="userSpaceOnUse" id="color-9"><stop offset="0" stop-color="#ffed4d"/><stop offset="1" stop-color="#e6bd22"/></linearGradient><linearGradient x1="231.44642" y1="220.00179" x2="231.44642" y2="247.91667" gradientUnits="userSpaceOnUse" id="color-10"><stop offset="0" stop-color="#ffed4d"/><stop offset="1" stop-color="#e6bd22"/></linearGradient><linearGradient x1="260.63678" y1="220.03824" x2="260.63678" y2="252.25336" gradientUnits="userSpaceOnUse" id="color-11"><stop offset="0" stop-color="#ffed4d"/><stop offset="1" stop-color="#e6bd22"/></linearGradient><linearGradient x1="313.73341" y1="219.92889" x2="313.73341" y2="248.17183" gradientUnits="userSpaceOnUse" id="color-12"><stop offset="0" stop-color="#ffed4d"/><stop offset="1" stop-color="#e6bd22"/></linearGradient><linearGradient x1="355.78296" y1="220.21425" x2="355.78296" y2="247.82804" gradientUnits="userSpaceOnUse" id="color-13"><stop offset="0" stop-color="#ffed4d"/><stop offset="1" stop-color="#e6bd22"/></linearGradient><linearGradient x1="380.72674" y1="220.07344" x2="380.72674" y2="247.96467" gradientUnits="userSpaceOnUse" id="color-14"><stop offset="0" stop-color="#ffed4d"/><stop offset="1" stop-color="#e6bd22"/></linearGradient><linearGradient x1="405.74584" y1="220.07407" x2="405.74584" y2="247.9692" gradientUnits="userSpaceOnUse" id="color-15"><stop offset="0" stop-color="#ffed4d"/><stop offset="1" stop-color="#e6bd22"/></linearGradient><linearGradient x1="96.48176" y1="220.43881" x2="96.48176" y2="248.13538" gradientUnits="userSpaceOnUse" id="color-16"><stop offset="0" stop-color="#ffed4d"/><stop offset="1" stop-color="#e6bd22"/></linearGradient><linearGradient x1="178.11286" y1="220.40267" x2="178.11286" y2="248.17182" gradientUnits="userSpaceOnUse" id="color-17"><stop offset="0" stop-color="#ffed4d"/><stop offset="1" stop-color="#e6bd22"/></linearGradient><linearGradient x1="205.80916" y1="220.43881" x2="205.80916" y2="248.13538" gradientUnits="userSpaceOnUse" id="color-18"><stop offset="0" stop-color="#ffed4d"/><stop offset="1" stop-color="#e6bd22"/></linearGradient><linearGradient x1="141.06044" y1="101.85708" x2="141.06044" y2="142.73643" gradientUnits="userSpaceOnUse" id="color-19"><stop offset="0" stop-color="#000000"/><stop offset="1" stop-color="#000000"/></linearGradient><linearGradient x1="315.09834" y1="153.19086" x2="315.09834" y2="205.77486" gradientUnits="userSpaceOnUse" id="color-20"><stop offset="0" stop-color="#000000"/><stop offset="1" stop-color="#000000"/></linearGradient><linearGradient x1="289.39736" y1="154.0595" x2="289.39736" y2="206.18769" gradientUnits="userSpaceOnUse" id="color-21"><stop offset="0" stop-color="#000000"/><stop offset="1" stop-color="#000000"/></linearGradient><linearGradient x1="235.85204" y1="152.65334" x2="235.85204" y2="206.47787" gradientUnits="userSpaceOnUse" id="color-22"><stop offset="0" stop-color="#000000"/><stop offset="1" stop-color="#000000"/></linearGradient><linearGradient x1="174.81968" y1="152.81883" x2="174.81968" y2="206.47787" gradientUnits="userSpaceOnUse" id="color-23"><stop offset="0" stop-color="#000000"/><stop offset="1" stop-color="#000000"/></linearGradient><linearGradient x1="109.07808" y1="152.61037" x2="109.07808" y2="206.47787" gradientUnits="userSpaceOnUse" id="color-24"><stop offset="0" stop-color="#000000"/><stop offset="1" stop-color="#000000"/></linearGradient><linearGradient x1="141.12847" y1="101.38116" x2="141.12847" y2="142.2605" gradientUnits="userSpaceOnUse" id="color-25"><stop offset="0" stop-color="#ffffff"/><stop offset="1" stop-color="#dae0e7"/></linearGradient><linearGradient x1="109.21408" y1="152.06644" x2="109.21408" y2="205.93394" gradientUnits="userSpaceOnUse" id="color-26"><stop offset="0" stop-color="#ff1818"/><stop offset="1" stop-color="#e11515"/></linearGradient><linearGradient x1="174.95565" y1="152.2749" x2="174.95565" y2="205.93394" gradientUnits="userSpaceOnUse" id="color-27"><stop offset="0" stop-color="#1ce11c"/><stop offset="1" stop-color="#1acf1a"/></linearGradient><linearGradient x1="235.988" y1="152.10943" x2="235.988" y2="205.93394" gradientUnits="userSpaceOnUse" id="color-28"><stop offset="0" stop-color="#239eff"/><stop offset="1" stop-color="#1e8be1"/></linearGradient><linearGradient x1="289.53337" y1="153.51557" x2="289.53337" y2="205.64376" gradientUnits="userSpaceOnUse" id="color-29"><stop offset="0" stop-color="#ffe530"/><stop offset="1" stop-color="#ffd628"/></linearGradient><linearGradient x1="315.23431" y1="152.64695" x2="315.23431" y2="205.23094" gradientUnits="userSpaceOnUse" id="color-30"><stop offset="0" stop-color="#a818ff"/><stop offset="1" stop-color="#9404e4"/></linearGradient></defs><g transform="translate(-55.28353,-95.90022)"><g data-paper-data="{&quot;isPaintingLayer&quot;:true}" fill-rule="nonzero" stroke-linecap="butt" stroke-linejoin="miter" stroke-miterlimit="10" stroke-dasharray="" stroke-dashoffset="0" style="mix-blend-mode: normal"><path d="M82.63119,221.8935c2.4417,1.23903 4.59178,2.47807 4.77396,2.80605c0.25508,0.47379 0.40089,0.43734 0.91105,-0.25508c0.36444,-0.47371 2.44169,-1.45766 5.46638,-2.58742c6.1588,-2.29581 7.65291,-2.36871 12.17179,-0.54661l3.13404,1.27549l7.94444,-1.45766c8.81913,-1.60347 9.8759,-1.71282 11.40655,-0.91113c1.85855,0.94758 9.65719,6.77831 10.05808,7.50719c0.32799,0.61952 0.47379,0.43734 1.0204,-1.38484c1.67638,-5.35702 2.73315,-6.66896 5.32057,-6.66896c1.78573,0 13.55663,1.8221 14.72276,2.25944c0.65597,0.25508 1.27549,0.9475 1.71282,1.895l0.69242,1.49412v-1.16613c0,-1.67638 0.65597,-2.91541 1.78565,-3.35266c0.54661,-0.18226 7.79872,-0.43734 16.79994,-0.58315c17.41954,-0.25508 17.456,-0.25508 18.29414,1.85863l0.47371,1.16613l4.3367,-1.60347c5.42992,-2.00436 7.32493,-2.07718 11.07849,-0.54661c2.3688,0.98396 2.62387,1.02041 2.80605,0.43726c0.10935,-0.36436 0.61952,-0.83815 1.12976,-1.05678c1.20258,-0.58307 12.53623,-0.58307 13.73881,-0.03645c1.38476,0.61952 1.71274,1.8221 1.71274,5.97654c0,2.29589 0.14581,3.82646 0.36443,3.82646c0.21871,0 0.36445,-1.56702 0.36445,-4.00863c0,-2.18662 0.18226,-4.37315 0.40089,-4.84686c0.51016,-1.12976 1.7492,-1.71283 3.6442,-1.71283c2.25944,0 9.14711,1.12976 10.24034,1.67638c0.87468,0.43734 0.98396,0.43734 1.20266,-0.18218c0.54661,-1.71283 3.46202,-1.89509 9.18348,-0.58315c4.6646,1.09331 6.1588,1.71283 6.4867,2.69678c0.32799,1.05686 0.72887,0.9475 1.23912,-0.29154c0.54661,-1.27549 1.7492,-1.85855 3.79001,-1.85855c2.07718,0 9.83945,3.7171 10.42251,4.99259c0.91105,2.04081 0.51016,3.86291 -2.55097,10.93276c-4.04508,9.40211 -4.81041,10.7505 -6.77831,12.60905c-0.98396,0.8746 -3.31621,3.02476 -5.21122,4.81041c-4.37315,4.04508 -5.2113,4.55533 -7.39784,4.55533c-1.38484,0 -2.62387,-0.43734 -6.37743,-2.33234l-4.62823,-2.29589l-5.06549,0.32799c-6.04944,0.36444 -6.92404,0.1458 -7.87154,-2.00428c-0.58307,-1.23912 -0.69242,-1.34839 -0.8746,-0.69242c-0.29153,0.9475 -2.29589,1.67638 -6.37743,2.44162c-5.24775,0.9475 -6.55969,0.65597 -7.54364,-1.8221l-0.65597,-1.49411l-3.46202,1.93137c-4.44597,2.4417 -5.2113,2.47815 -11.51582,0.32799c-6.66896,-2.22298 -8.52751,-3.06113 -9.07412,-4.19081c-0.29153,-0.51024 -1.34838,-3.82646 -2.40524,-7.32493c-1.05678,-3.49855 -1.93145,-6.41388 -1.96791,-6.41388c0,-0.03645 -0.72879,-0.18226 -1.56702,-0.32799l-1.56702,-0.25516v8.23606c0,5.24767 -0.14573,8.52751 -0.40089,9.11058c-0.51016,1.12976 -2.47807,1.93145 -5.24767,2.18653c-1.20258,0.10935 -3.27984,0.29154 -4.62823,0.43734c-2.91533,0.29153 -4.40952,-0.18226 -5.02904,-1.67638c-0.29153,-0.69242 -0.36444,-3.60783 -0.29154,-9.36574l0.10935,-8.34525l-3.89936,0.03645c-2.18653,0 -3.93581,0 -3.93581,0c0,0 0.98396,2.95177 2.18654,6.5596c2.25944,6.70541 2.5146,8.19952 1.74927,9.83945c-0.69242,1.49411 -1.96791,1.93145 -8.0538,2.58742c-4.7375,0.51016 -5.83082,0.54661 -6.77832,0.14581c-1.31186,-0.5467 -2.07718,-1.78573 -2.44162,-3.97226c-0.40089,-2.58742 -1.56702,-2.33234 -2.29589,0.51016c-0.47371,1.895 -1.38476,2.95186 -2.84251,3.31629c-1.16613,0.29153 -5.79436,-0.29154 -9.47501,-1.23903l-2.58742,-0.65597l-2.62387,1.20258c-3.7171,1.67638 -6.0859,1.56702 -7.65291,-0.36443c-0.54661,-0.65597 -0.65597,-0.69242 -1.7492,-0.10928c-0.87468,0.43726 -2.18654,0.58307 -5.53928,0.58307c-4.55533,0 -5.53928,-0.25508 -6.59606,-1.53056c-0.58307,-0.72887 -0.61952,-0.72888 -3.68073,0.9475c-4.04508,2.18653 -4.88323,2.18654 -11.73445,-0.14581c-6.12235,-2.07718 -8.0538,-2.98831 -8.38179,-3.89936c-0.21863,-0.47371 -0.54661,-0.14572 -1.63992,1.56702c-0.8746,1.34839 -1.78564,2.3688 -2.44161,2.62387c-1.05686,0.43734 -11.33357,1.53056 -14.21252,1.53056c-1.23903,0 -2.15016,-0.43725 -5.72146,-2.8425c-2.29589,-1.53056 -4.37315,-3.17049 -4.59178,-3.6442c-0.21863,-0.47379 -0.40089,-2.33234 -0.40089,-4.15444c0,-2.95186 0.10935,-3.49847 0.98395,-4.99267c0.61952,-1.09323 0.80177,-1.67629 0.51024,-1.78565c-0.87468,-0.29153 -1.4942,-2.25944 -1.4942,-4.84686c0,-2.51452 0.10935,-2.80605 2.04081,-6.34098c1.38476,-2.58742 2.33226,-3.8629 2.98823,-4.19089c0.5467,-0.25508 3.27984,-0.91105 6.08589,-1.45766c7.79872,-1.56702 8.41824,-1.53057 13.77526,1.12967z" fill="#000000" stroke="#ffffff" stroke-width="0"/><path d="M76.03512,223.35126c0.9475,-0.03645 8.30888,3.68065 8.30888,4.22726c0,0.21871 -0.65597,1.63992 -1.49412,3.17049c-1.67638,3.13412 -1.16621,3.09767 -6.08589,0.6196l-2.87896,-1.45774l-1.20266,1.63992c-0.65597,0.91105 -1.12967,1.67638 -1.05677,1.71283c0.07282,0.03637 3.38912,1.71274 7.32493,3.7171c3.97218,2.00436 7.21557,3.79001 7.21557,3.97218c0,0.5467 -5.13839,9.0013 -5.57565,9.14711c-0.25516,0.10927 -3.02476,0.40089 -6.1588,0.69242l-5.68501,0.54661l-3.68073,-2.44162l-3.6442,-2.4417l-0.03645,-1.93145c0,-1.45766 0.21863,-2.25944 0.9475,-3.35266l0.98396,-1.45774l2.40517,1.31194c1.31194,0.72887 3.24339,1.82218 4.30025,2.3688l1.85855,1.05685l1.31194,-1.53065c0.69242,-0.8746 1.12968,-1.71274 0.98396,-1.85855c-0.18226,-0.18218 -3.06122,-1.74919 -6.45033,-3.46202c-6.1588,-3.20694 -6.1588,-3.20694 -6.26807,-4.51888c-0.10935,-1.20258 1.20258,-4.15444 3.13404,-7.14267c0.18218,-0.25516 2.66024,-0.9475 5.57565,-1.53065c2.87895,-0.54661 5.53928,-1.05678 5.86727,-1.05678z" fill="#000000" stroke="none" stroke-width="0.04449"/><path d="M80.17374,218.61694c2.4417,1.23903 4.59179,2.47806 4.77396,2.80605c0.25508,0.47379 0.40089,0.43734 0.91105,-0.25508c0.36444,-0.47371 2.4417,-1.45766 5.46638,-2.58742c6.1588,-2.29581 7.65291,-2.36871 12.17179,-0.54661l3.13404,1.27549l7.94444,-1.45767c8.81913,-1.60347 9.8759,-1.71282 11.40655,-0.91113c1.85855,0.94758 9.65719,6.77832 10.05808,7.50719c0.32799,0.61952 0.47379,0.43734 1.0204,-1.38484c1.67638,-5.35702 2.73315,-6.66896 5.32057,-6.66896c1.78573,0 13.55663,1.8221 14.72276,2.25944c0.65597,0.25508 1.27549,0.9475 1.71283,1.895l0.69242,1.49411v-1.16613c0,-1.67638 0.65597,-2.91541 1.78565,-3.35266c0.54661,-0.18226 7.79872,-0.43734 16.79994,-0.58315c17.41954,-0.25508 17.456,-0.25508 18.29414,1.85863l0.47371,1.16613l4.3367,-1.60347c5.42992,-2.00436 7.32493,-2.07718 11.07848,-0.54661c2.3688,0.98396 2.62388,1.02041 2.80605,0.43726c0.10935,-0.36436 0.61951,-0.83815 1.12976,-1.05678c1.20258,-0.58307 12.53623,-0.58307 13.73881,-0.03645c1.38476,0.61952 1.71274,1.8221 1.71274,5.97654c0,2.29589 0.14581,3.82646 0.36443,3.82646c0.21871,0 0.36445,-1.56702 0.36445,-4.00864c0,-2.18662 0.18226,-4.37315 0.40089,-4.84686c0.51016,-1.12976 1.7492,-1.71283 3.6442,-1.71283c2.25944,0 9.14711,1.12976 10.24034,1.67638c0.87468,0.43734 0.98396,0.43734 1.20266,-0.18218c0.54661,-1.71283 3.46202,-1.89509 9.18348,-0.58315c4.6646,1.09331 6.1588,1.71282 6.4867,2.69678c0.32799,1.05686 0.72887,0.9475 1.23912,-0.29154c0.54661,-1.27549 1.7492,-1.85855 3.79001,-1.85855c2.07718,0 9.83945,3.7171 10.42251,4.99259c0.91105,2.04081 0.51016,3.86291 -2.55097,10.93276c-4.04508,9.40211 -4.81041,10.7505 -6.77831,12.60905c-0.98396,0.8746 -3.31622,3.02476 -5.21122,4.81041c-4.37315,4.04508 -5.2113,4.55533 -7.39783,4.55533c-1.38484,0 -2.62387,-0.43734 -6.37743,-2.33234l-4.62823,-2.29589l-5.06549,0.32799c-6.04944,0.36444 -6.92404,0.14581 -7.87154,-2.00428c-0.58307,-1.23912 -0.69242,-1.34839 -0.8746,-0.69242c-0.29153,0.9475 -2.29589,1.67637 -6.37743,2.44161c-5.24775,0.9475 -6.55968,0.65597 -7.54364,-1.8221l-0.65597,-1.49412l-3.46202,1.93137c-4.44597,2.4417 -5.2113,2.47815 -11.51582,0.32799c-6.66896,-2.22298 -8.52751,-3.06113 -9.07412,-4.19081c-0.29153,-0.51024 -1.34839,-3.82646 -2.40525,-7.32493c-1.05678,-3.49855 -1.93145,-6.41388 -1.96791,-6.41388c0,-0.03645 -0.72879,-0.18226 -1.56702,-0.32799l-1.56702,-0.25516v8.23606c0,5.24767 -0.14572,8.52751 -0.40089,9.11058c-0.51016,1.12976 -2.47807,1.93145 -5.24767,2.18653c-1.20258,0.10935 -3.27985,0.29154 -4.62824,0.43734c-2.91533,0.29153 -4.40952,-0.18226 -5.02904,-1.67638c-0.29153,-0.69242 -0.36444,-3.60783 -0.29154,-9.36574l0.10935,-8.34525l-3.89936,0.03645c-2.18653,0 -3.93581,0 -3.93581,0c0,0 0.98395,2.95177 2.18653,6.5596c2.25944,6.70541 2.5146,8.19953 1.74928,9.83945c-0.69242,1.49411 -1.96791,1.93145 -8.0538,2.58742c-4.7375,0.51016 -5.83082,0.54661 -6.77832,0.14581c-1.31186,-0.5467 -2.07718,-1.78573 -2.44162,-3.97226c-0.40089,-2.58742 -1.56702,-2.33234 -2.29589,0.51016c-0.47371,1.895 -1.38476,2.95186 -2.84251,3.3163c-1.16613,0.29153 -5.79436,-0.29154 -9.47501,-1.23903l-2.58742,-0.65597l-2.62387,1.20258c-3.7171,1.67638 -6.0859,1.56702 -7.65291,-0.36443c-0.54661,-0.65597 -0.65596,-0.69242 -1.74919,-0.10927c-0.87468,0.43726 -2.18654,0.58307 -5.53928,0.58307c-4.55533,0 -5.53928,-0.25508 -6.59606,-1.53057c-0.58307,-0.72887 -0.61952,-0.72887 -3.68073,0.9475c-4.04508,2.18653 -4.88323,2.18653 -11.73445,-0.14581c-6.12235,-2.07718 -8.0538,-2.98831 -8.38179,-3.89936c-0.21863,-0.47371 -0.54661,-0.14572 -1.63992,1.56702c-0.8746,1.34839 -1.78565,2.3688 -2.44162,2.62387c-1.05686,0.43734 -11.33357,1.53056 -14.21252,1.53056c-1.23903,0 -2.15016,-0.43725 -5.72146,-2.8425c-2.29589,-1.53056 -4.37315,-3.17049 -4.59178,-3.6442c-0.21863,-0.47379 -0.40089,-2.33234 -0.40089,-4.15444c0,-2.95186 0.10936,-3.49848 0.98396,-4.99267c0.61952,-1.09323 0.80177,-1.67629 0.51024,-1.78565c-0.87468,-0.29153 -1.4942,-2.25944 -1.4942,-4.84686c0,-2.51452 0.10936,-2.80605 2.04081,-6.34098c1.38476,-2.58742 2.33226,-3.86291 2.98823,-4.1909c0.5467,-0.25508 3.27985,-0.91105 6.0859,-1.45766c7.79872,-1.56702 8.41824,-1.53056 13.77526,1.12968z" fill="#000000" stroke="none" stroke-width="0.04449"/><g stroke="none" stroke-width="0"><path d="M69.51916,216.40128c4.40429,5.30149 -1.77519,6.5423 -4.48627,7.16984c-2.71106,0.62753 -6.08156,-0.39542 -5.2433,-3.47834c0.76825,-2.82541 0.30661,-2.0397 0.97661,-3.15018c0.50397,-0.83531 1.01614,-4.05005 1.96078,-4.2687c2.71106,-0.62753 4.67466,1.17853 6.79216,3.7274z" data-paper-data="{&quot;origPos&quot;:null}" fill="#ffe538"/><path d="M69.33304,218.91154c0.5496,2.37438 -4.82221,3.63262 -6.2125,3.95443c-1.39029,0.32181 -1.45154,-1.43143 -0.93965,-3.80877c0.71899,-3.33907 0.6754,-6.00935 1.80002,-5.11396c1.79572,1.42971 4.80254,2.59392 5.35214,4.9683z" data-paper-data="{&quot;origPos&quot;:null}" fill="#fffeeb"/><path d="M68.4304,218.66897c0.38564,1.66604 -3.38362,2.54891 -4.35915,2.77471c-0.97553,0.22581 -1.26963,-0.94626 -0.91045,-2.61438c0.50449,-2.34294 0.47392,-4.21661 1.26302,-3.58833c1.26001,1.00319 3.62093,1.76196 4.00657,3.428z" data-paper-data="{&quot;origPos&quot;:null}" fill="#ffbdbd"/></g><g stroke="none" stroke-width="0"><path d="M81.00556,212.29267c0.82872,0.18187 0.9306,4.36908 1.60447,6.95459c0.73529,2.82118 0.08827,5.86253 -2.29011,5.34055c-2.37838,-0.52197 -10.4377,-3.63941 -6.57364,-8.6111c1.85777,-2.3903 7.25926,-3.68406 7.25926,-3.68406z" data-paper-data="{&quot;index&quot;:null}" fill="#ffe538"/><path d="M79.84785,214.08689c1.06888,-0.91816 0.4412,1.02076 1.12438,4.33517c0.48641,2.35979 0.16146,4.05133 -1.15986,3.76135c-1.32131,-0.28998 -6.42665,-1.4252 -5.90421,-3.8057c0.52244,-2.3805 4.23299,-2.82476 5.9397,-4.29082z" data-paper-data="{&quot;origPos&quot;:null,&quot;index&quot;:null}" fill="#fffeeb"/><path d="M79.63505,215.54095c0.74999,-0.64425 0.09306,0.6896 0.57243,3.01524c0.34131,1.65581 -0.20493,2.77287 -1.13206,2.5694c-0.92714,-0.20347 -4.50941,-1.00003 -4.14283,-2.67037c0.36658,-1.67033 3.50491,-1.88559 4.70246,-2.91428z" data-paper-data="{&quot;origPos&quot;:null,&quot;index&quot;:null}" fill="#ffbdbd"/></g><path d="M301.86895,221.38335c0.21863,0.47371 0.40089,2.80605 0.40089,5.24767c0,4.1909 0.03645,4.3367 0.69242,3.97226c1.02032,-0.54661 3.17049,-0.43734 4.40952,0.18218l1.05686,0.5467l0.40081,-2.07726c1.12976,-5.28412 2.62388,-6.01299 9.29284,-4.55533l2.91541,0.65597l3.46202,-2.22299c4.77396,-3.13404 5.53928,-3.46202 7.58001,-3.46202c1.82218,0 8.81912,1.78573 10.60477,2.69678c0.54661,0.29153 1.20258,0.4008 1.4942,0.21863c0.72879,-0.36444 14.9414,-2.91541 16.39906,-2.91541c1.27549,0 2.8425,0.72887 4.7375,2.18653c2.04081,1.56702 2.15017,1.56702 2.58742,0.58315c0.58307,-1.27549 1.67637,-1.60347 7.43428,-2.22307c6.1588,-0.65589 7.54356,-0.65589 8.67332,-0.14573c1.53056,0.69242 1.71274,1.71283 1.71274,9.803c0,4.22735 0.07291,7.65291 0.18226,7.65291c0.14572,0 1.63992,-0.51016 3.42557,-1.12968l3.20695,-1.09331l-0.51016,-3.17049c-0.91113,-6.1588 -0.58315,-7.9809 1.67629,-8.96485c1.93145,-0.8746 13.08284,-3.49847 14.83212,-3.49847c1.49411,0 1.71274,0.10935 12.39042,6.30453c1.78565,1.05686 3.09759,2.07726 3.35266,2.62387c0.29161,0.61952 0.43734,3.46202 0.43734,8.23598c0,6.45033 -0.0729,7.43429 -0.69242,8.63687c-0.80169,1.56702 -6.34098,7.0334 -8.01735,7.87162c-1.27549,0.69234 -16.69058,1.96783 -18.36696,1.53057c-0.54661,-0.10935 -1.23903,-0.51024 -1.56702,-0.8746c-0.51024,-0.58315 -0.8746,-0.61952 -4.99258,-0.21871c-16.9093,1.63992 -18.4035,1.56702 -19.27809,-0.80169c-0.25508,-0.69242 -0.54662,-1.23903 -0.69242,-1.23903c-0.10935,0 -1.8221,0.72879 -3.75355,1.63992c-4.66468,2.15008 -6.92404,2.18653 -8.60042,0.07282c-0.54661,-0.65597 -0.65597,-0.69242 -1.74928,-0.10927c-0.8746,0.43726 -2.18653,0.58307 -5.5392,0.58307c-4.55533,0 -6.2317,-0.40089 -6.70542,-1.63992c-0.18226,-0.51016 -0.32799,-0.51016 -1.23903,-0.03645c-1.63992,0.83814 -9.03775,2.40524 -11.443,2.40524c-2.22298,0 -3.75355,-0.6196 -9.25639,-3.75364l-2.22298,-1.23903l-0.8017,1.895c-0.51016,1.20258 -1.12976,2.04081 -1.67637,2.29589c-0.47371,0.21863 -3.31621,0.61952 -6.30453,0.83814c-5.86727,0.51024 -7.47073,0.25516 -7.90799,-1.16613c-0.18226,-0.58307 -0.36444,-0.61952 -0.98396,-0.29153c-0.51024,0.29153 -2.62387,0.36443 -6.26816,0.25508c-6.52315,-0.18218 -7.50711,-0.51016 -8.3817,-2.91541c-0.9475,-2.51452 -5.32065,-22.99519 -5.32065,-24.81729c0,-3.60783 1.0204,-4.22734 8.56404,-5.32057c7.65291,-1.12976 9.47501,-0.9475 10.34961,0.9475z" fill="#000000" stroke="#ffffff" stroke-width="0"/><path d="M126.07061,223.49698c0.58307,0.14581 9.07421,6.41388 9.21994,6.74186c0.18226,0.43734 -1.78565,7.76227 -2.18654,8.27243c-0.18218,0.25508 -1.23903,0.9475 -2.33234,1.56702c-1.09323,0.58307 -1.96791,1.16621 -1.96791,1.23903c0,0.0729 1.71283,1.38485 3.82646,2.91541c2.11371,1.56702 3.82654,2.91541 3.82654,3.06122c0,0.43726 -8.49114,4.11799 -8.70977,3.79001c-0.10935,-0.18226 -1.67637,-2.33234 -3.49847,-4.81041l-3.27985,-4.51888l-0.18217,4.15444l-0.18226,4.19089l-3.24339,0.10927c-1.78565,0.0729 -3.38912,-0.03637 -3.53492,-0.18218c-0.32799,-0.32799 -2.62379,-22.41213 -2.44162,-23.35963c0.10935,-0.51016 1.53056,-0.8746 7.21557,-1.93145c3.89936,-0.72879 7.28856,-1.31194 7.47073,-1.23903zM120.89576,229.58288c-0.36444,-0.10935 -0.47371,0.9475 -0.47371,4.66468c0,4.37307 0.03645,4.77396 0.65597,4.5917c0.32799,-0.0729 1.56702,-0.43735 2.6967,-0.72888l2.04081,-0.58306l0.58307,-2.55097c0.32799,-1.38476 0.58307,-2.66025 0.58307,-2.84251c0,-0.18218 -1.27549,-0.80169 -2.80605,-1.34839c-1.56702,-0.58307 -3.06113,-1.09323 -3.27984,-1.20258z" fill="#000000" stroke="none" stroke-width="0.04449"/><path d="M146.041,223.53342c0.6196,0.10935 3.53493,0.54661 6.41388,0.98395l5.24775,0.8017l4.11799,12.3176c2.7696,8.34533 3.97226,12.39042 3.68065,12.46332c-0.91105,0.36444 -9.18348,1.16613 -9.43856,0.9475c-0.10935,-0.10935 -0.47371,-1.53057 -0.80169,-3.09759c-0.32799,-1.60347 -0.65597,-2.98831 -0.76533,-3.06122c-0.36444,-0.36444 -6.92404,0.69242 -7.32493,1.20258c-0.21863,0.29153 -0.61952,1.42129 -0.8746,2.55097c-0.25516,1.12976 -0.58315,2.11371 -0.72888,2.18662c-0.29153,0.18218 -8.70977,-1.4942 -9.0013,-1.74927c-0.14572,-0.18218 7.36138,-23.97915 7.94445,-25.10883c0.25508,-0.43734 0.65597,-0.54669 1.53056,-0.43734zM150.85137,231.69659c-0.51016,0 -0.9475,0.25508 -1.05678,0.61952c-0.18226,0.65597 -0.9475,5.13831 -0.9475,5.64855c0,0.18218 1.05678,0.29154 2.33226,0.29154h2.33234l-0.51016,-1.74928c-0.25516,-0.9475 -0.65597,-2.40517 -0.87468,-3.27976c-0.32799,-1.27549 -0.54661,-1.53056 -1.27549,-1.53056z" fill="#000000" stroke="none" stroke-width="0.04449"/><path d="M238.49561,223.27836l1.7492,0.25508c0.9475,0.10935 2.87896,0.43734 4.2638,0.65597l2.55097,0.43734l0.10935,12.97349l0.07283,12.97348l-0.98396,0.21871c-0.58307,0.10927 -2.40517,0.21863 -4.11799,0.29154l-3.09759,0.10927l-0.10935,-5.57565l-0.10927,-5.53928h-2.25944c-1.23903,0 -2.87896,0.10935 -3.60783,0.21871l-1.38483,0.25508v4.66461v4.66468l-1.895,0.36435c-5.06549,1.05686 -5.35703,1.05686 -5.5392,0.43734c-0.10935,-0.32799 -0.83823,-5.90372 -1.67638,-12.42687c-0.80177,-6.52324 -1.56702,-12.46333 -1.67637,-13.22865l-0.21863,-1.34831h4.95614h4.95622v5.10194v5.10194h4.00863h4.00872v-5.32065z" fill="#000000" stroke="none" stroke-width="0.04449"/><path d="M253.91069,223.31481c0.21871,0.03645 2.33234,0.47371 4.62824,1.02041l4.19089,1.02032v4.59178v4.62815l2.11363,0.51024c1.12976,0.29153 2.15009,0.43734 2.22299,0.29153c0.0729,-0.10935 0.91105,-2.55097 1.8221,-5.42992c0.9475,-2.8425 1.85863,-5.17485 1.96791,-5.17485c0.51024,0 7.36138,3.42557 7.36138,3.68073c0,0.32799 -4.22734,10.20389 -6.01299,13.99389c-1.42121,3.06113 -0.91105,2.55097 -10.42251,11.07848l-2.22299,2.00436l-5.79436,-2.87896c-3.17049,-1.60347 -5.79435,-3.02476 -5.79435,-3.20694c0,-0.18226 0.83814,-1.71282 1.85855,-3.38912l1.8221,-3.06122l2.69678,1.8221c1.49411,1.02041 2.8425,1.82218 2.98831,1.82218c0.18218,0 1.23903,-0.9475 2.40517,-2.11372l2.07726,-2.07718l-4.19089,-4.19089l-4.1909,-4.1909v-5.35702c0,-4.08154 0.10935,-5.39348 0.47371,-5.39348z" fill="#000000" stroke="none" stroke-width="0.04449"/><path d="M298.18827,223.35126c0.32799,-0.03645 0.43725,1.89501 0.43725,8.41816v8.49114l3.24339,-3.24339l3.2434,-3.20694l2.44161,3.31621c1.31194,1.82218 2.55098,3.31629 2.69678,3.31629c0.10927,0 0.80169,-2.6967 1.45766,-5.97654c0.69242,-3.27984 1.34839,-6.19525 1.4942,-6.41388c0.18218,-0.29153 1.53057,-0.10935 4.81041,0.61952c4.08154,0.9475 4.62815,0.98396 4.95613,0.51016c0.18218,-0.32799 2.25944,-1.78565 4.59179,-3.27977l4.26371,-2.69678l3.71718,0.98396c5.86718,1.56702 5.61211,1.38484 8.05372,6.19525l2.18653,4.22726l-0.51016,1.895c-0.25508,1.05686 -1.23903,4.30025 -2.15008,7.21566l-1.71283,5.28412l-1.78564,0.43734c-1.02041,0.25508 -3.20694,0.76524 -4.88331,1.09323l-3.02468,0.65597l-3.75364,-2.00428c-2.07718,-1.09331 -4.04508,-2.18654 -4.44597,-2.4417c-0.58307,-0.47371 -0.65597,-1.23903 -0.76524,-8.60041l-0.14581,-8.09017l-1.09323,3.46202c-0.58315,1.895 -2.04081,6.52315 -3.24339,10.24034l-2.15016,6.77824l-2.6238,0.25516c-1.45774,0.14572 -3.46202,0.32799 -4.48243,0.43726l-1.82218,0.21871l-1.45766,-3.86291c-0.80169,-2.11371 -1.56702,-3.86291 -1.67637,-3.86291c-0.14572,0 -0.8746,1.42121 -1.63992,3.13404l-1.42121,3.13404l-4.30026,-0.14572c-2.36871,-0.10935 -4.44597,-0.32799 -4.6646,-0.5467c-0.29153,-0.29153 -5.42992,-22.59431 -5.42992,-23.68753c0,-0.51024 1.0204,-0.76532 6.74186,-1.5671c2.40517,-0.36436 4.5917,-0.65589 4.84686,-0.69234zM334.63077,231.18635l-1.34831,-0.58307l-1.82218,2.07718c-2.04073,2.29589 -2.07718,2.3688 -1.63983,7.43429c0.21863,2.62387 0.29153,2.7696 1.53056,3.57137c1.23903,0.83814 2.80605,0.8746 4.00863,0.10935c0.25508,-0.18226 0.98396,-2.22298 1.67638,-4.55533c1.20258,-4.1909 1.20258,-4.22735 0.58307,-5.64856c-0.36444,-0.76532 -0.8746,-1.4942 -1.12968,-1.63992c-0.29153,-0.10935 -1.12976,-0.43734 -1.85863,-0.76532z" fill="#000000" stroke="none" stroke-width="0.04449"/><path d="M360.39565,223.49698c0.58307,0.14581 9.07412,6.41388 9.21993,6.74186c0.18218,0.43734 -1.78573,7.76227 -2.18653,8.27243c-0.18226,0.25508 -1.23903,0.9475 -2.33234,1.56702c-1.09331,0.58307 -1.96791,1.16621 -1.96791,1.23903c0,0.0729 1.71283,1.38485 3.82646,2.91541c2.11371,1.56702 3.82646,2.91541 3.82646,3.06122c0,0.43726 -8.49106,4.11799 -8.70977,3.79001c-0.10927,-0.18226 -1.67629,-2.33234 -3.49848,-4.81041l-3.27976,-4.51888l-0.18226,4.15444l-0.18218,4.19089l-3.2434,0.10927c-1.78565,0.0729 -3.38912,-0.03637 -3.53492,-0.18218c-0.32799,-0.32799 -2.62387,-22.41213 -2.44162,-23.35963c0.10927,-0.51016 1.53056,-0.8746 7.21557,-1.93145c3.89936,-0.72879 7.28848,-1.31194 7.47074,-1.23903zM355.22082,229.58288c-0.36444,-0.10935 -0.47379,0.9475 -0.47379,4.66468c0,4.37307 0.03645,4.77396 0.65597,4.5917c0.32799,-0.0729 1.56702,-0.43735 2.69678,-0.72888l2.04073,-0.58306l0.58315,-2.55097c0.32799,-1.38476 0.58306,-2.66025 0.58306,-2.84251c0,-0.18218 -1.27548,-0.80169 -2.80604,-1.34839c-1.56702,-0.58307 -3.06122,-1.09323 -3.27985,-1.20258z" fill="#000000" stroke="none" stroke-width="0.04449"/><path d="M381.4594,223.35126c0.58307,-0.03645 0.61952,0.65597 0.61952,9.803c0,5.39347 0.0729,9.83945 0.14572,9.83945c0.0729,0 2.95186,-0.98395 6.41388,-2.18653c3.46202,-1.20258 6.34098,-2.18654 6.41388,-2.18654c0.0729,0 0.14581,2.44162 0.14581,5.42993v5.42992l-1.34839,0.21863c-2.47807,0.40089 -18.43987,1.67637 -18.62212,1.53056c-0.18218,-0.21863 -3.53492,-21.13656 -3.93573,-24.56221c-0.21871,-2.04073 -0.18226,-2.25944 0.43726,-2.29589c0.40089,0 2.58742,-0.21863 4.88331,-0.51016c2.29589,-0.25508 4.48243,-0.47371 4.84687,-0.51016z" fill="#000000" stroke="none" stroke-width="0.04449"/><path d="M408.28104,223.35126c0.07282,-0.03645 2.98823,1.60347 6.45025,3.6442l6.34106,3.68073v6.19517v6.19525l-2.4417,2.55097c-4.6646,4.81041 -4.04508,4.55533 -12.31752,5.2113c-3.97226,0.29153 -7.28848,0.47371 -7.36138,0.40081c-0.29153,-0.29153 -3.82645,-24.30713 -3.60783,-24.52576c0.10935,-0.10935 3.02476,-0.91105 6.48678,-1.78565c3.46202,-0.83823 6.37743,-1.56702 6.45033,-1.56702zM406.24024,231.80586c-0.36444,-0.14572 -0.47379,1.23903 -0.47379,6.2317c0,4.88323 0.10935,6.41388 0.47379,6.41388c0.51016,0 5.72146,-1.34839 5.90372,-1.53065c0.18218,-0.18218 1.27549,-6.5596 1.27549,-7.4342c0,-0.65597 -0.58315,-1.02041 -3.35275,-2.15017c-1.85855,-0.76524 -3.60783,-1.42121 -3.82646,-1.53056z" fill="#000000" stroke="none" stroke-width="0.04449"/><path d="M100.5609,223.7157c0.76532,-0.03645 8.85549,3.06113 9.40219,3.60775c0.25508,0.21871 -2.25944,5.83081 -2.87895,6.52324c-0.0729,0.0729 -1.45774,-0.43734 -3.09767,-1.16621l-2.95178,-1.34831l-2.5146,1.7492l-2.47806,1.71282l-0.03645,2.00436c0,1.09323 0.10935,2.58735 0.21871,3.31622c0.21863,1.27549 0.32798,1.38484 3.49847,2.62387l3.31622,1.31194l2.18653,-1.96791c1.20266,-1.09331 2.33234,-2.00436 2.5146,-2.00436c0.29153,0 1.12967,1.27548 2.98823,4.40952l0.9475,1.67638l-4.77396,2.62387l-4.77396,2.62387l-5.61211,-1.895c-3.09767,-1.02041 -5.83081,-2.07726 -6.12235,-2.29589c-0.29153,-0.21863 -1.34839,-3.17049 -2.3688,-6.55969l-1.8221,-6.19517l2.66033,-3.79001l2.6967,-3.82646l4.11799,-1.56702c2.29589,-0.83823 4.48243,-1.56702 4.88332,-1.56702z" fill="#000000" stroke="none" stroke-width="0.04449"/><path d="M189.95428,223.75206l5.57565,-0.07282l-0.10927,3.89928l-0.10935,3.93581h-2.00436c-1.09323,0 -3.42557,-0.10935 -5.17476,-0.29153l-3.20694,-0.25508v9.65727v9.65719l-0.80178,0.14581c-0.47371,0.10927 -1.96791,0.29153 -3.38912,0.40089c-1.38484,0.10927 -2.91541,0.29154 -3.35275,0.43726l-0.83814,0.18226l0.03645,-6.12235c0,-3.3892 0.14572,-7.9809 0.29153,-10.16743c0.18218,-2.22298 0.25508,-4.08162 0.18218,-4.15444c-0.07282,-0.0729 -1.9679,0.14572 -4.22726,0.47371c-2.25944,0.32799 -4.37315,0.58307 -4.70114,0.58307c-0.47371,0 -0.83816,-0.9475 -1.56703,-3.82646c-0.51016,-2.07718 -0.9475,-3.89928 -0.9475,-4.00863c0,-0.0729 4.22735,-0.21863 9.4022,-0.29153c5.13839,-0.03645 11.88018,-0.10936 14.9414,-0.18226z" fill="#000000" stroke="none" stroke-width="0.04449"/><path d="M209.88824,223.7157c0.76532,-0.03645 8.85558,3.06113 9.40219,3.60775c0.25508,0.21871 -2.25944,5.83081 -2.87896,6.52324c-0.0729,0.0729 -1.45774,-0.43734 -3.09759,-1.16621l-2.95186,-1.34831l-2.51452,1.7492l-2.47807,1.71282l-0.03645,2.00436c0,1.09323 0.10927,2.58735 0.21863,3.31622c0.21863,1.27549 0.32799,1.38484 3.49848,2.62387l3.31629,1.31194l2.18653,-1.96791c1.20258,-1.09331 2.33226,-2.00436 2.51452,-2.00436c0.29153,0 1.12968,1.27548 2.98831,4.40952l0.9475,1.67638l-4.77396,2.62387l-4.77404,2.62387l-5.61211,-1.895c-3.09759,-1.02041 -5.83082,-2.07726 -6.12235,-2.29589c-0.29153,-0.21863 -1.34838,-3.17049 -2.36871,-6.55969l-1.82218,-6.19517l2.66033,-3.79001l2.69678,-3.82646l4.11799,-1.56702c2.29581,-0.83823 4.48243,-1.56702 4.88323,-1.56702z" fill="#000000" stroke="none" stroke-width="0.04449"/><path d="M180.65726,110.85333c0,0.34511 -1.60673,3.36004 -4.81909,9.07863h-0.22436c-0.25728,0 -3.9514,-1.69539 -11.08323,-5.12124l-3.63132,4.74526c6.13659,2.89118 13.6225,6.56737 22.39287,11.06039c-3.98323,6.94431 -6.81064,11.53195 -8.48114,13.82578l-18.15236,1.57084c-8.28873,-5.4673 -12.65895,-8.29472 -13.14073,-8.48319v-0.22041c0,-0.59749 1.67159,-3.26826 5.0455,-8.07634h0.41691c1.31737,0.78583 5.49423,3.01684 12.49742,6.69302l4.24064,-4.7114c-12.88345,-6.41072 -20.01433,-10.02505 -21.3956,-10.87383v-0.18846c4.08005,-7.79308 6.32805,-11.75143 6.68105,-11.84526c10.63451,-2.10537 16.57854,-3.17348 17.76741,-3.17348c7.71027,3.80279 11.6606,5.71968 11.88605,5.71968zM264.14421,115.25156c-1.92778,8.60882 -3.14846,12.91433 -3.66218,12.91433c-0.09668,0 -2.66573,2.10441 -7.71028,6.346c-3.11664,-0.15665 -6.71491,-0.34416 -10.73118,-0.59545l-0.41691,11.31073c-0.86659,0.25129 -4.6585,0.50259 -11.37341,0.78583c-0.80295,0 -1.22082,-2.26297 -1.22082,-6.75585c-1.47795,-18.63305 -2.217,-28.68802 -2.217,-30.16515c2.50527,-0.53454 10.28042,-1.85298 23.32446,-3.95835zM303.12469,109.24959l-3.08482,11.02938c-10.02409,-2.60794 -15.42164,-4.05313 -16.15959,-4.33637c0,0.1886 -1.09314,2.57721 -3.31013,7.13387h0.2264c4.465,-0.2831 9.34896,-0.69308 14.58591,-1.28948l0.22342,0.43989c-0.86673,4.86981 -1.54091,8.16907 -1.99073,9.92837l-12.36878,-1.72748c0.12864,2.38765 0.19241,4.17985 0.19241,5.40557v1.09803l0.22451,0.43989c2.73059,-0.28229 8.28873,-0.7211 16.60942,-1.31859c0.28923,1.28853 0.80378,4.55489 1.54282,9.7399c-0.16059,0 -0.22437,0.06283 -0.22437,0.22042c-19.43682,-1.00624 -29.30046,-1.66547 -29.62151,-1.94871l-4.65959,-12.9762c3.5345,-16.11976 5.52727,-24.76067 5.97695,-25.95443c21.23611,2.45143 31.83769,3.83379 31.83769,4.11595zM336.35464,127.47473l-6.77882,3.8327c8.03147,5.68773 12.0786,8.64187 12.14333,8.86134c-2.85923,1.35136 -7.2285,3.29913 -13.1716,5.84424c-6.8755,-9.20727 -10.31236,-13.88876 -10.31236,-14.10918h-0.38591c-0.16059,5.37362 -0.22545,9.08271 -0.22545,11.09329c-0.09668,0.94247 -0.28922,1.41419 -0.61027,1.41419h-9.66919c-0.44968,0 -1.12495,-5.84628 -2.05737,-17.53489c-0.41691,-2.54525 -1.06022,-8.45245 -1.864,-17.72144c2.47427,-0.53467 10.02409,-1.85313 22.65014,-4.02131c0.48177,0.50272 5.07745,3.80183 13.78405,9.8665c0,0 -2.957,11.43731 -3.50255,12.47456zM202.99533,106.26364l-1.9906,23.41027l8.96183,1.19375l2.63595,-20.70645l13.42901,2.92218l-2.89119,21.42851l-9.92836,11.40741l-19.62841,-3.39389l-7.6794,-8.2958l1.41418,-28.43767zM317.20686,114.18236c0,1.28758 0.06282,5.84533 0.22341,13.70124h0.1935c5.236,-1.19376 7.84,-2.01058 7.84,-2.41947l1.83109,-8.04437l-10.088,-3.4249zM241.43129,127.16059c5.26877,-0.91052 7.90268,-1.44614 7.90268,-1.60279l1.83109,-7.72917c-2.60196,-1.03725 -5.84628,-2.29491 -9.73378,-3.77096z" fill="#000000" stroke="url(#color-1)" stroke-width="11.00161"/><path d="M337.28185,156.46743c12.36592,3.59937 18.9692,5.75164 19.72619,6.53746c6.81363,10.38417 10.64144,16.38111 11.48315,17.95384c-4.41618,15.05966 -6.94037,22.58936 -7.57171,22.58936c-14.67865,3.68217 -22.37697,5.50334 -23.0491,5.50334c-12.15543,-7.61264 -18.59022,-11.87517 -19.39005,-12.74381c-0.42086,-14.19103 -0.63121,-22.00995 -0.63121,-23.49905c-0.20954,-0.41392 -0.2933,-0.74394 -0.2933,-0.95036c12.53344,-10.26056 19.01107,-15.39078 19.43193,-15.39078zM336.06215,175.78853c-0.21036,1.28269 -0.46369,5.9571 -0.88454,14.0254l10.81101,2.39963c2.60793,-8.02656 3.8686,-12.32988 3.8686,-12.8685c-8.58,-2.56415 -13.16371,-3.84671 -13.79506,-3.84671z" fill="#000000" stroke="url(#color-2)" stroke-width="11.00161"/><path d="M312.9681,160.97731l-7.52874,48.48695l-13.58457,-1.19783l3.02676,-50.93035z" fill="#000000" stroke="url(#color-3)" stroke-width="11.00161"/><path d="M286.00534,168.91997v0.24734c-2.31381,9.43367 -3.87063,14.81232 -4.58561,16.17768l-8.87425,5.0474c10.51484,7.48795 15.81462,11.37845 15.89839,11.66768c-3.74295,1.77928 -9.46359,4.34344 -17.24471,7.69436c-9.00085,-12.12239 -13.5008,-18.2859 -13.5008,-18.57512h-0.50463c-0.21049,7.07403 -0.29425,11.955 -0.29425,14.60278c-0.12565,1.24176 -0.37802,1.86209 -0.79888,1.86209h-12.66099c-0.58838,0 -1.47211,-7.69545 -2.69184,-23.0861c-0.5465,-3.35107 -1.38726,-11.12919 -2.43838,-23.33344c3.23834,-0.7041 13.12277,-2.44042 29.65237,-5.29475c0.63135,0.66222 6.64515,5.00552 18.04358,12.99007zM256.35188,167.84492c0,1.69647 0.08484,7.69436 0.29426,18.0376h0.25333c6.85564,-1.57178 10.26341,-2.64887 10.26341,-3.1864l2.39663,-10.59058l-13.20763,-4.51001z" fill="#000000" stroke="url(#color-4)" stroke-width="11.00161"/><path d="M219.37918,159.98301c0,0.20737 5.3407,16.01097 16.0659,47.37084c-1.13488,0.41392 -7.56967,1.20083 -19.38895,2.40057c-0.79887,-2.6898 -1.72339,-6.86653 -2.73263,-12.53535c-10.09494,0.91052 -15.14139,1.69443 -15.14139,2.39853l-2.73467,9.55836h-0.29426c-11.90305,-2.15119 -17.87606,-3.43469 -17.87606,-3.89049c9.5056,-29.24961 14.97496,-45.63166 16.36316,-49.1901c15.56129,2.1932 24.14128,3.5156 25.7389,3.88763zM203.65034,173.09887c-0.42086,2.02745 -1.05207,5.87415 -1.85094,11.6247h9.1265l-3.36399,-13.11476c-2.60793,0 -3.91156,0.49673 -3.91156,1.49006z" fill="#000000" stroke="url(#color-5)" stroke-width="11.00161"/><path d="M142.19726,157.37698c3.07081,8.06736 4.91986,13.24054 5.59295,15.47454h0.25333c0.71511,-1.53098 3.5326,-5.79257 8.36964,-12.7438h0.25129c7.61359,0.45567 11.39939,0.99332 11.39939,1.5318l6.85659,46.12934c0,0.29018 -6.01585,0.95144 -18.00266,1.98557l-0.25333,-0.4966c-0.67215,-14.0254 -1.00828,-22.58841 -1.00828,-25.69117h-0.2513l-10.39014,8.97597h-0.25142c-0.33709,-0.16548 -2.69171,-3.80577 -7.10789,-10.96261h-0.25333c-5.42542,15.51438 -8.37045,23.74736 -8.8752,24.6988h-0.50354c-9.67408,-4.30251 -15.18327,-6.86761 -16.48785,-7.73625v-0.2483c11.98789,-27.76063 18.25408,-41.86967 18.7587,-42.40733c7.9496,0.53766 11.90305,1.03535 11.90305,1.49005z" fill="#000000" stroke="url(#color-6)" stroke-width="11.00161"/><path d="M180.72526,110.37741c0,0.34511 -1.60673,3.36004 -4.81909,9.07863h-0.22436c-0.25728,0 -3.9514,-1.69539 -11.08323,-5.12124l-3.63132,4.74526c6.13659,2.89118 13.6225,6.56737 22.39287,11.06039c-3.98323,6.94431 -6.81064,11.53196 -8.48114,13.82579l-18.15236,1.57083c-8.28873,-5.4673 -12.65895,-8.29471 -13.14073,-8.48318v-0.22042c0,-0.59749 1.67159,-3.26826 5.0455,-8.07633h0.41691c1.31737,0.78583 5.49423,3.01683 12.49742,6.69302l4.24063,-4.7114c-12.88345,-6.41072 -20.01432,-10.02504 -21.3956,-10.87382v-0.18846c4.08005,-7.79308 6.32805,-11.75144 6.68105,-11.84527c10.63451,-2.10537 16.57854,-3.17347 17.76741,-3.17347c7.71027,3.80278 11.6606,5.71968 11.88605,5.71968zM264.21218,114.77565c-1.92778,8.60882 -3.14846,12.91432 -3.66218,12.91432c-0.09668,0 -2.66573,2.10441 -7.71028,6.346c-3.11664,-0.15665 -6.71491,-0.34416 -10.73118,-0.59545l-0.41691,11.31072c-0.86659,0.25129 -4.6585,0.50258 -11.37341,0.78582c-0.80295,0 -1.22082,-2.26296 -1.22082,-6.75584c-1.47795,-18.63305 -2.21701,-28.68801 -2.21701,-30.16515c2.50527,-0.53453 10.28042,-1.85298 23.32446,-3.95835zM303.19266,108.77367l-3.08482,11.02938c-10.02409,-2.60794 -15.42164,-4.05313 -16.15959,-4.33637c0,0.1886 -1.09314,2.57721 -3.31013,7.13387h0.2264c4.465,-0.2831 9.34896,-0.69308 14.58591,-1.28949l0.22341,0.43989c-0.86673,4.86981 -1.54091,8.16907 -1.99074,9.92837l-12.36878,-1.72748c0.12864,2.38765 0.19241,4.17985 0.19241,5.40556v1.09804l0.2245,0.43989c2.73059,-0.28229 8.28873,-0.7211 16.60942,-1.31859c0.28923,1.28853 0.80377,4.55489 1.54281,9.7399c-0.16059,0 -0.22436,0.06282 -0.22436,0.22042c-19.43682,-1.00624 -29.30046,-1.66547 -29.6215,-1.94871l-4.65959,-12.9762c3.5345,-16.11975 5.52727,-24.76066 5.97695,-25.95442c21.23611,2.45143 31.8377,3.83379 31.8377,4.11594zM339.92517,114.52422v0.18861c-1.76718,7.16473 -2.95699,11.24872 -3.50254,12.28597l-6.77883,3.8327c8.03147,5.68773 12.0786,8.64186 12.14333,8.86133c-2.85923,1.35136 -7.2285,3.29912 -13.1716,5.84424c-6.8755,-9.20727 -10.31237,-13.88875 -10.31237,-14.10917h-0.38591c-0.16059,5.37362 -0.22545,9.08271 -0.22545,11.09329c-0.09668,0.94247 -0.28923,1.41419 -0.61028,1.41419h-9.66918c-0.44968,0 -1.12495,-5.84628 -2.05736,-17.53489c-0.41691,-2.54525 -1.06023,-8.45246 -1.864,-17.72145c2.47427,-0.53467 10.02409,-1.85312 22.65015,-4.0213c0.48177,0.50272 5.07745,3.80183 13.78405,9.86649zM203.06333,105.78771l-1.9906,23.41026l8.96183,1.19376l2.63595,-20.70645l13.42901,2.92218l-2.89118,21.42851l-9.92836,11.40741l-19.62841,-3.3939l-7.6794,-8.2958l1.41418,-28.43767zM317.27486,113.70643c0,1.28758 0.06282,5.84533 0.22341,13.70123h0.1935c5.236,-1.19376 7.84,-2.01058 7.84,-2.41947l1.83109,-8.04437l-10.088,-3.42491zM241.49927,126.68468c5.26877,-0.91052 7.90269,-1.44614 7.90269,-1.60279l1.83109,-7.72917c-2.60196,-1.03725 -5.84628,-2.29491 -9.73378,-3.77096z" fill="#000000" stroke="none" stroke-width="1.19633"/><path d="M142.33325,156.83308c3.07081,8.06736 4.91986,13.24054 5.59295,15.47453h0.25333c0.71512,-1.53098 3.5326,-5.79257 8.36964,-12.7438h0.25129c7.61359,0.45567 11.39939,0.99332 11.39939,1.53179l6.8566,46.12935c0,0.29018 -6.01585,0.95144 -18.00266,1.98556l-0.25333,-0.49659c-0.67215,-14.0254 -1.00828,-22.58841 -1.00828,-25.69117h-0.25129l-10.39015,8.97597h-0.25143c-0.33709,-0.16548 -2.69171,-3.80577 -7.10789,-10.96261h-0.25333c-5.42542,15.51438 -8.37045,23.74736 -8.87521,24.6988h-0.50354c-9.67408,-4.30251 -15.18327,-6.86761 -16.48785,-7.73624v-0.2483c11.98789,-27.76063 18.25408,-41.86968 18.7587,-42.40733c7.9496,0.53766 11.90305,1.03534 11.90305,1.49006z" fill="#000000" stroke="none" stroke-width="1.57068"/><path d="M219.51515,159.43911c0,0.20736 5.34071,16.01097 16.06591,47.37083c-1.13488,0.41392 -7.56967,1.20083 -19.38896,2.40057c-0.79887,-2.6898 -1.72339,-6.86653 -2.73263,-12.53535c-10.09494,0.91052 -15.14139,1.69443 -15.14139,2.39853l-2.73467,9.55837h-0.29425c-11.90305,-2.15119 -17.87607,-3.43469 -17.87607,-3.89049c9.5056,-29.24961 14.97496,-45.63167 16.36316,-49.1901c15.56129,2.1932 24.14128,3.5156 25.7389,3.88764zM203.78634,172.55494c-0.42086,2.02745 -1.05207,5.87415 -1.85094,11.6247h9.1265l-3.36399,-13.11476c-2.60793,0 -3.91156,0.49674 -3.91156,1.49006z" fill="#000000" stroke="none" stroke-width="1.57068"/><path d="M286.14135,168.37606v0.24735c-2.31381,9.43367 -3.87064,14.81232 -4.58562,16.17768l-8.87425,5.0474c10.51484,7.48795 15.81463,11.37845 15.89838,11.66768c-3.74295,1.77928 -9.46359,4.34344 -17.24471,7.69436c-9.00085,-12.12239 -13.5008,-18.28591 -13.5008,-18.57513h-0.50462c-0.21049,7.07403 -0.29425,11.955 -0.29425,14.60278c-0.12565,1.24176 -0.37802,1.8621 -0.79887,1.8621h-12.66099c-0.58838,0 -1.4721,-7.69545 -2.69184,-23.0861c-0.5465,-3.35107 -1.38726,-11.1292 -2.43837,-23.33343c3.23834,-0.7041 13.12277,-2.44041 29.65237,-5.29474c0.63135,0.66222 6.64516,5.00551 18.04359,12.99006zM256.48787,167.30101c0,1.69647 0.08484,7.69436 0.29426,18.0376h0.25333c6.85564,-1.57178 10.26341,-2.64887 10.26341,-3.1864l2.39663,-10.59058l-13.20763,-4.51001z" fill="#000000" stroke="none" stroke-width="1.57068"/><path d="M313.10411,160.43339l-7.52874,48.48695l-13.58456,-1.19784l3.02675,-50.93035z" fill="#000000" stroke="none" stroke-width="1.57068"/><path d="M337.41785,155.92351c12.36592,3.59936 18.9692,5.75164 19.72619,6.53746c6.81363,10.38416 10.64143,16.38111 11.48314,17.95384c-4.41618,15.05966 -6.94037,22.58936 -7.57171,22.58936c-14.67865,3.68217 -22.37696,5.50334 -23.0491,5.50334c-12.15543,-7.61264 -18.59022,-11.87517 -19.39005,-12.7438c-0.42086,-14.19103 -0.63121,-22.00995 -0.63121,-23.49906c-0.20954,-0.41392 -0.2933,-0.74394 -0.2933,-0.95035c12.53344,-10.26056 19.01107,-15.39077 19.43193,-15.39077zM336.19813,175.24463c-0.21036,1.28269 -0.46369,5.9571 -0.88454,14.0254l10.811,2.39962c2.60793,-8.02656 3.8686,-12.32988 3.8686,-12.8685c-8.58,-2.56415 -13.16372,-3.84671 -13.79506,-3.84671z" fill="#000000" stroke="none" stroke-width="1.57068"/><path d="M299.4115,218.10678c0.21863,0.47371 0.40089,2.80605 0.40089,5.24767c0,4.1909 0.03645,4.3367 0.69242,3.97226c1.02032,-0.54661 3.17049,-0.43734 4.40952,0.18218l1.05686,0.5467l0.40081,-2.07726c1.12976,-5.28412 2.62388,-6.01299 9.29284,-4.55533l2.91541,0.65597l3.46202,-2.22299c4.77396,-3.13404 5.53928,-3.46202 7.58001,-3.46202c1.82218,0 8.81913,1.78573 10.60478,2.69678c0.54661,0.29153 1.20258,0.40081 1.4942,0.21863c0.72879,-0.36444 14.9414,-2.91541 16.39906,-2.91541c1.27549,0 2.8425,0.72887 4.7375,2.18653c2.04081,1.56702 2.15017,1.56702 2.58742,0.58315c0.58307,-1.27549 1.67637,-1.60347 7.43428,-2.22307c6.1588,-0.65589 7.54356,-0.65589 8.67332,-0.14572c1.53056,0.69242 1.71274,1.71282 1.71274,9.803c0,4.22735 0.0729,7.65291 0.18226,7.65291c0.14572,0 1.63992,-0.51016 3.42557,-1.12968l3.20695,-1.09331l-0.51016,-3.17049c-0.91113,-6.1588 -0.58315,-7.9809 1.67629,-8.96485c1.93145,-0.8746 13.08284,-3.49847 14.83212,-3.49847c1.49411,0 1.71274,0.10935 12.39042,6.30453c1.78565,1.05686 3.09759,2.07726 3.35266,2.62387c0.29161,0.61952 0.43734,3.46202 0.43734,8.23598c0,6.45033 -0.0729,7.43428 -0.69242,8.63687c-0.80169,1.56702 -6.34098,7.0334 -8.01735,7.87162c-1.27549,0.69234 -16.69058,1.96783 -18.36696,1.53057c-0.54661,-0.10935 -1.23903,-0.51024 -1.56702,-0.8746c-0.51024,-0.58315 -0.8746,-0.61952 -4.99259,-0.21871c-16.9093,1.63992 -18.4035,1.56702 -19.27809,-0.80169c-0.25508,-0.69242 -0.54661,-1.23903 -0.69242,-1.23903c-0.10935,0 -1.8221,0.72879 -3.75355,1.63992c-4.66468,2.15008 -6.92404,2.18653 -8.60041,0.07282c-0.54661,-0.65597 -0.65597,-0.69242 -1.74928,-0.10928c-0.8746,0.43726 -2.18653,0.58307 -5.5392,0.58307c-4.55533,0 -6.2317,-0.40089 -6.70542,-1.63992c-0.18226,-0.51016 -0.32799,-0.51016 -1.23903,-0.03645c-1.63992,0.83814 -9.03775,2.40525 -11.443,2.40525c-2.22298,0 -3.75355,-0.6196 -9.25638,-3.75364l-2.22299,-1.23903l-0.80169,1.895c-0.51016,1.20258 -1.12976,2.04081 -1.67637,2.29589c-0.47371,0.21863 -3.31621,0.61952 -6.30453,0.83815c-5.86727,0.51024 -7.47074,0.25516 -7.908,-1.16613c-0.18226,-0.58307 -0.36443,-0.61952 -0.98395,-0.29154c-0.51024,0.29153 -2.62387,0.36444 -6.26816,0.25508c-6.52315,-0.18218 -7.50711,-0.51016 -8.3817,-2.91541c-0.9475,-2.51452 -5.32065,-22.99519 -5.32065,-24.81729c0,-3.60783 1.0204,-4.22735 8.56404,-5.32057c7.65291,-1.12976 9.47501,-0.9475 10.34961,0.9475z" fill="#000000" stroke="none" stroke-width="0.04449"/><path d="M73.57766,220.0747c0.9475,-0.03645 8.30888,3.68065 8.30888,4.22726c0,0.21871 -0.65597,1.63992 -1.49411,3.17049c-1.67638,3.13412 -1.16621,3.09767 -6.0859,0.6196l-2.87895,-1.45774l-1.20266,1.63992c-0.65597,0.91105 -1.12968,1.67637 -1.05678,1.71282c0.07282,0.03637 3.38912,1.71274 7.32493,3.7171c3.97218,2.00436 7.21558,3.79001 7.21558,3.97218c0,0.5467 -5.13839,9.0013 -5.57565,9.14711c-0.25516,0.10927 -3.02476,0.40089 -6.1588,0.69242l-5.685,0.54661l-3.68073,-2.44161l-3.6442,-2.4417l-0.03645,-1.93145c0,-1.45766 0.21863,-2.25944 0.9475,-3.35266l0.98395,-1.45775l2.40517,1.31194c1.31194,0.72887 3.24339,1.82218 4.30025,2.3688l1.85855,1.05686l1.31194,-1.53065c0.69242,-0.8746 1.12967,-1.71274 0.98395,-1.85855c-0.18226,-0.18218 -3.06122,-1.74919 -6.45033,-3.46202c-6.1588,-3.20694 -6.1588,-3.20694 -6.26807,-4.51888c-0.10935,-1.20258 1.20258,-4.15444 3.13404,-7.14267c0.18218,-0.25516 2.66024,-0.9475 5.57565,-1.53065c2.87895,-0.54661 5.53928,-1.05677 5.86727,-1.05677z" fill="url(#color-7)" stroke="none" stroke-width="0.04449"/><path d="M123.61319,220.22042c0.58307,0.14581 9.07421,6.41388 9.21993,6.74186c0.18226,0.43734 -1.78564,7.76227 -2.18653,8.27243c-0.18218,0.25508 -1.23903,0.9475 -2.33234,1.56702c-1.09323,0.58307 -1.96791,1.16621 -1.96791,1.23903c0,0.0729 1.71283,1.38484 3.82646,2.91541c2.11371,1.56702 3.82654,2.91541 3.82654,3.06122c0,0.43726 -8.49114,4.11799 -8.70977,3.79001c-0.10935,-0.18226 -1.67637,-2.33234 -3.49847,-4.81041l-3.27985,-4.51888l-0.18217,4.15444l-0.18226,4.19089l-3.24339,0.10928c-1.78565,0.0729 -3.38912,-0.03637 -3.53492,-0.18218c-0.32799,-0.32799 -2.62379,-22.41213 -2.44162,-23.35963c0.10935,-0.51016 1.53056,-0.8746 7.21557,-1.93145c3.89936,-0.72879 7.28856,-1.31194 7.47073,-1.23903zM118.43833,226.30631c-0.36444,-0.10935 -0.47371,0.9475 -0.47371,4.66469c0,4.37307 0.03645,4.77396 0.65597,4.5917c0.32799,-0.0729 1.56702,-0.43734 2.6967,-0.72887l2.04081,-0.58307l0.58307,-2.55097c0.32799,-1.38476 0.58307,-2.66025 0.58307,-2.84251c0,-0.18218 -1.27549,-0.80169 -2.80605,-1.34839c-1.56702,-0.58307 -3.06113,-1.09323 -3.27984,-1.20258z" fill="url(#color-8)" stroke="none" stroke-width="0.04449"/><path d="M143.58355,220.25687c0.6196,0.10935 3.53493,0.54661 6.41388,0.98396l5.24775,0.80169l4.11799,12.3176c2.7696,8.34533 3.97226,12.39042 3.68065,12.46332c-0.91105,0.36444 -9.18348,1.16613 -9.43856,0.9475c-0.10935,-0.10935 -0.47371,-1.53057 -0.8017,-3.09759c-0.32799,-1.60347 -0.65597,-2.98831 -0.76532,-3.06122c-0.36444,-0.36444 -6.92404,0.69242 -7.32493,1.20258c-0.21863,0.29153 -0.61952,1.42129 -0.8746,2.55097c-0.25516,1.12976 -0.58315,2.11372 -0.72887,2.18662c-0.29153,0.18218 -8.70977,-1.4942 -9.0013,-1.74928c-0.14572,-0.18218 7.36138,-23.97915 7.94445,-25.10882c0.25508,-0.43734 0.65597,-0.5467 1.53056,-0.43734zM148.39398,228.42002c-0.51016,0 -0.9475,0.25508 -1.05678,0.61952c-0.18226,0.65597 -0.9475,5.13831 -0.9475,5.64856c0,0.18218 1.05677,0.29153 2.33226,0.29153h2.33234l-0.51016,-1.74928c-0.25516,-0.9475 -0.65597,-2.40517 -0.87468,-3.27976c-0.32799,-1.27549 -0.54661,-1.53056 -1.27549,-1.53056z" fill="url(#color-9)" stroke="none" stroke-width="0.04449"/><path d="M236.0382,220.00179l1.7492,0.25508c0.9475,0.10935 2.87896,0.43734 4.2638,0.65597l2.55097,0.43734l0.10935,12.97348l0.07283,12.97348l-0.98396,0.21871c-0.58307,0.10927 -2.40516,0.21863 -4.11799,0.29153l-3.09759,0.10927l-0.10935,-5.57565l-0.10927,-5.53928h-2.25944c-1.23903,0 -2.87896,0.10935 -3.60783,0.21871l-1.38484,0.25508v4.6646v4.66468l-1.895,0.36436c-5.06549,1.05686 -5.35702,1.05685 -5.5392,0.43734c-0.10935,-0.32799 -0.83823,-5.90372 -1.67638,-12.42687c-0.80177,-6.52324 -1.56702,-12.46333 -1.67637,-13.22865l-0.21863,-1.34831h4.95614h4.95622v5.10194v5.10194h4.00863h4.00872v-5.32065z" fill="url(#color-10)" stroke="none" stroke-width="0.04449"/><path d="M251.45325,220.03824c0.21871,0.03645 2.33234,0.47371 4.62823,1.0204l4.1909,1.02032v4.59178v4.62815l2.11363,0.51024c1.12976,0.29153 2.15009,0.43734 2.22299,0.29153c0.0729,-0.10935 0.91105,-2.55097 1.8221,-5.42992c0.9475,-2.8425 1.85863,-5.17485 1.96791,-5.17485c0.51024,0 7.36138,3.42557 7.36138,3.68073c0,0.32799 -4.22734,10.20389 -6.01299,13.99389c-1.42121,3.06113 -0.91105,2.55097 -10.42252,11.07848l-2.22298,2.00436l-5.79436,-2.87896c-3.17049,-1.60347 -5.79435,-3.02476 -5.79435,-3.20694c0,-0.18226 0.83814,-1.71282 1.85855,-3.38912l1.8221,-3.06122l2.69678,1.8221c1.49411,1.02041 2.8425,1.82218 2.98831,1.82218c0.18218,0 1.23903,-0.9475 2.40517,-2.11371l2.07726,-2.07718l-4.19089,-4.1909l-4.1909,-4.1909v-5.35702c0,-4.08154 0.10935,-5.39347 0.47371,-5.39347z" fill="url(#color-11)" stroke="none" stroke-width="0.04449"/><path d="M295.73087,220.0747c0.32799,-0.03645 0.43726,1.895 0.43726,8.41816v8.49114l3.24339,-3.24339l3.24339,-3.20694l2.44162,3.31621c1.31194,1.82218 2.55097,3.31629 2.69678,3.31629c0.10927,0 0.8017,-2.6967 1.45767,-5.97654c0.69242,-3.27984 1.34839,-6.19525 1.4942,-6.41388c0.18218,-0.29153 1.53056,-0.10935 4.81041,0.61952c4.08154,0.9475 4.62815,0.98396 4.95614,0.51016c0.18218,-0.32799 2.25944,-1.78565 4.59178,-3.27976l4.26372,-2.69678l3.71718,0.98395c5.86718,1.56702 5.6121,1.38485 8.05372,6.19525l2.18654,4.22726l-0.51016,1.895c-0.25508,1.05686 -1.23903,4.30025 -2.15008,7.21566l-1.71283,5.28412l-1.78564,0.43734c-1.02041,0.25508 -3.20694,0.76524 -4.88332,1.09323l-3.02468,0.65597l-3.75364,-2.00428c-2.07718,-1.09331 -4.04508,-2.18654 -4.44597,-2.4417c-0.58307,-0.47371 -0.65597,-1.23903 -0.76524,-8.60041l-0.14581,-8.09017l-1.09322,3.46202c-0.58315,1.895 -2.04081,6.52315 -3.24339,10.24034l-2.15017,6.77823l-2.6238,0.25517c-1.45774,0.14572 -3.46202,0.32798 -4.48243,0.43725l-1.82218,0.21871l-1.45766,-3.86291c-0.80169,-2.11371 -1.56702,-3.86291 -1.67638,-3.86291c-0.14572,0 -0.8746,1.42121 -1.63992,3.13404l-1.42121,3.13404l-4.30026,-0.14572c-2.36871,-0.10935 -4.44597,-0.32799 -4.6646,-0.5467c-0.29153,-0.29153 -5.42993,-22.59431 -5.42993,-23.68753c0,-0.51024 1.02041,-0.76532 6.74187,-1.5671c2.40517,-0.36436 4.5917,-0.65589 4.84686,-0.69234zM332.17332,227.90977l-1.34831,-0.58307l-1.82218,2.07718c-2.04073,2.29589 -2.07718,2.3688 -1.63983,7.43429c0.21863,2.62387 0.29153,2.7696 1.53056,3.57137c1.23903,0.83814 2.80605,0.8746 4.00863,0.10936c0.25508,-0.18226 0.98396,-2.22298 1.67638,-4.55533c1.20258,-4.1909 1.20258,-4.22735 0.58307,-5.64856c-0.36444,-0.76532 -0.8746,-1.4942 -1.12968,-1.63992c-0.29153,-0.10935 -1.12976,-0.43734 -1.85863,-0.76532z" fill="url(#color-12)" stroke="none" stroke-width="0.04449"/><path d="M357.93823,220.22042c0.58307,0.14581 9.07412,6.41388 9.21993,6.74186c0.18218,0.43734 -1.78573,7.76227 -2.18653,8.27243c-0.18226,0.25508 -1.23903,0.9475 -2.33234,1.56702c-1.09331,0.58307 -1.96791,1.16621 -1.96791,1.23903c0,0.0729 1.71283,1.38484 3.82646,2.91541c2.11371,1.56702 3.82646,2.91541 3.82646,3.06122c0,0.43726 -8.49106,4.11799 -8.70977,3.79001c-0.10927,-0.18226 -1.67629,-2.33234 -3.49847,-4.81041l-3.27976,-4.51888l-0.18226,4.15444l-0.18218,4.19089l-3.24339,0.10928c-1.78565,0.0729 -3.38912,-0.03637 -3.53492,-0.18218c-0.32799,-0.32799 -2.62387,-22.41213 -2.44162,-23.35963c0.10927,-0.51016 1.53056,-0.8746 7.21557,-1.93145c3.89936,-0.72879 7.28848,-1.31194 7.47074,-1.23903zM352.76339,226.30631c-0.36444,-0.10935 -0.47379,0.9475 -0.47379,4.66469c0,4.37307 0.03645,4.77396 0.65597,4.5917c0.32799,-0.0729 1.56702,-0.43734 2.69678,-0.72887l2.04073,-0.58307l0.58315,-2.55097c0.32799,-1.38476 0.58307,-2.66025 0.58307,-2.84251c0,-0.18218 -1.27548,-0.80169 -2.80604,-1.34839c-1.56702,-0.58307 -3.06122,-1.09323 -3.27985,-1.20258z" fill="url(#color-13)" stroke="none" stroke-width="0.04449"/><path d="M379.00198,220.0747c0.58307,-0.03645 0.61952,0.65597 0.61952,9.803c0,5.39347 0.0729,9.83945 0.14572,9.83945c0.0729,0 2.95186,-0.98395 6.41388,-2.18653c3.46202,-1.20258 6.34098,-2.18653 6.41388,-2.18653c0.0729,0 0.14581,2.44161 0.14581,5.42992v5.42992l-1.34839,0.21863c-2.47807,0.40089 -18.43987,1.67637 -18.62212,1.53056c-0.18218,-0.21863 -3.53492,-21.13656 -3.93573,-24.56221c-0.21871,-2.04073 -0.18226,-2.25944 0.43725,-2.29589c0.40089,0 2.58742,-0.21863 4.88332,-0.51016c2.29589,-0.25508 4.48243,-0.47371 4.84687,-0.51016z" fill="url(#color-14)" stroke="none" stroke-width="0.04449"/><path d="M405.82362,220.0747c0.07282,-0.03645 2.98823,1.60347 6.45025,3.64419l6.34106,3.68073v6.19517v6.19525l-2.4417,2.55097c-4.6646,4.81041 -4.04508,4.55533 -12.31752,5.2113c-3.97226,0.29153 -7.28848,0.47371 -7.36138,0.4008c-0.29153,-0.29153 -3.82646,-24.30713 -3.60783,-24.52576c0.10935,-0.10935 3.02477,-0.91105 6.48679,-1.78565c3.46202,-0.83823 6.37743,-1.56702 6.45033,-1.56702zM403.7828,228.52929c-0.36444,-0.14572 -0.47379,1.23903 -0.47379,6.2317c0,4.88323 0.10935,6.41388 0.47379,6.41388c0.51016,0 5.72146,-1.34839 5.90372,-1.53065c0.18218,-0.18218 1.27549,-6.5596 1.27549,-7.4342c0,-0.65597 -0.58315,-1.0204 -3.35275,-2.15016c-1.85855,-0.76524 -3.60783,-1.42121 -3.82646,-1.53057z" fill="url(#color-15)" stroke="none" stroke-width="0.04449"/><path d="M98.10347,220.43913c0.76532,-0.03645 8.8555,3.06113 9.40219,3.60775c0.25508,0.21871 -2.25944,5.83081 -2.87895,6.52324c-0.0729,0.0729 -1.45774,-0.43734 -3.09767,-1.16621l-2.95178,-1.34831l-2.5146,1.7492l-2.47807,1.71283l-0.03645,2.00436c0,1.09323 0.10936,2.58734 0.21871,3.31621c0.21863,1.27549 0.32798,1.38484 3.49847,2.62387l3.31621,1.31194l2.18654,-1.96791c1.20266,-1.09331 2.33234,-2.00436 2.5146,-2.00436c0.29153,0 1.12967,1.27549 2.98823,4.40952l0.9475,1.67637l-4.77396,2.62387l-4.77396,2.62387l-5.61211,-1.895c-3.09767,-1.02041 -5.83081,-2.07727 -6.12235,-2.29589c-0.29153,-0.21863 -1.34839,-3.17049 -2.3688,-6.55969l-1.8221,-6.19517l2.66033,-3.79001l2.6967,-3.82646l4.11799,-1.56702c2.29589,-0.83823 4.48242,-1.56702 4.88331,-1.56702z" fill="url(#color-16)" stroke="none" stroke-width="0.04449"/><path d="M187.49685,220.47549l5.57565,-0.07283l-0.10927,3.89928l-0.10935,3.93581h-2.00436c-1.09323,0 -3.42557,-0.10936 -5.17477,-0.29154l-3.20694,-0.25508v9.65727v9.65719l-0.80177,0.14581c-0.47371,0.10927 -1.96791,0.29154 -3.38912,0.40089c-1.38484,0.10927 -2.91541,0.29153 -3.35275,0.43725l-0.83815,0.18226l0.03645,-6.12235c0,-3.3892 0.14573,-7.9809 0.29154,-10.16743c0.18218,-2.22298 0.25508,-4.08162 0.18218,-4.15444c-0.07282,-0.0729 -1.9679,0.14572 -4.22726,0.47371c-2.25944,0.32799 -4.37315,0.58307 -4.70114,0.58307c-0.47371,0 -0.83815,-0.9475 -1.56703,-3.82646c-0.51016,-2.07718 -0.9475,-3.89928 -0.9475,-4.00864c0,-0.0729 4.22735,-0.21863 9.4022,-0.29153c5.13839,-0.03645 11.88017,-0.10935 14.94139,-0.18226z" fill="url(#color-17)" stroke="none" stroke-width="0.04449"/><path d="M207.4308,220.43913c0.76532,-0.03645 8.85557,3.06113 9.40219,3.60775c0.25508,0.21871 -2.25944,5.83081 -2.87895,6.52324c-0.0729,0.0729 -1.45774,-0.43734 -3.09759,-1.16621l-2.95186,-1.34831l-2.51452,1.7492l-2.47807,1.71283l-0.03645,2.00436c0,1.09323 0.10927,2.58734 0.21863,3.31621c0.21863,1.27549 0.32798,1.38484 3.49847,2.62387l3.3163,1.31194l2.18653,-1.96791c1.20258,-1.09331 2.33226,-2.00436 2.51452,-2.00436c0.29153,0 1.12968,1.27549 2.98831,4.40952l0.9475,1.67637l-4.77396,2.62387l-4.77404,2.62387l-5.61211,-1.895c-3.09759,-1.02041 -5.83081,-2.07727 -6.12235,-2.29589c-0.29153,-0.21863 -1.34839,-3.17049 -2.36871,-6.55969l-1.82218,-6.19517l2.66033,-3.79001l2.69678,-3.82646l4.11799,-1.56702c2.29581,-0.83823 4.48243,-1.56702 4.88323,-1.56702z" fill="url(#color-18)" stroke="none" stroke-width="0.04449"/><path d="M178.19984,107.57677c0,0.34511 -1.60673,3.36004 -4.81909,9.07863h-0.22436c-0.25728,0 -3.95141,-1.69538 -11.08324,-5.12124l-3.63132,4.74526c6.13659,2.89118 13.6225,6.56737 22.39287,11.06039c-3.98323,6.94431 -6.81064,11.53196 -8.48114,13.82579l-18.15236,1.57083c-8.28873,-5.4673 -12.65895,-8.29472 -13.14073,-8.48319v-0.22041c0,-0.59749 1.67159,-3.26825 5.0455,-8.07633h0.41691c1.31737,0.78583 5.49423,3.01684 12.49742,6.69302l4.24064,-4.7114c-12.88345,-6.41072 -20.01433,-10.02505 -21.3956,-10.87383v-0.18846c4.08005,-7.79308 6.32805,-11.75143 6.68105,-11.84525c10.63451,-2.10537 16.57855,-3.17348 17.76742,-3.17348c7.71027,3.80279 11.6606,5.71968 11.88605,5.71968zM261.68676,111.97499c-1.92778,8.60883 -3.14846,12.91433 -3.66218,12.91433c-0.09668,0 -2.66573,2.10441 -7.71028,6.346c-3.11664,-0.15665 -6.7149,-0.34416 -10.73118,-0.59545l-0.41691,11.31073c-0.86659,0.25129 -4.6585,0.50259 -11.37341,0.78583c-0.80295,0 -1.22082,-2.26297 -1.22082,-6.75585c-1.47795,-18.63305 -2.217,-28.68802 -2.217,-30.16515c2.50527,-0.53453 10.28042,-1.85298 23.32446,-3.95835zM300.66729,105.97303l-3.08482,11.02938c-10.02409,-2.60794 -15.42164,-4.05312 -16.15959,-4.33636c0,0.1886 -1.09314,2.57721 -3.31014,7.13385h0.22641c4.465,-0.2831 9.34896,-0.69308 14.58591,-1.28948l0.22342,0.43989c-0.86673,4.86981 -1.54091,8.16907 -1.99073,9.92837l-12.36878,-1.72748c0.12864,2.38765 0.19241,4.17985 0.19241,5.40556v1.09803l0.2245,0.43989c2.73059,-0.28229 8.28874,-0.7211 16.60942,-1.31859c0.28923,1.28853 0.80377,4.55489 1.54282,9.7399c-0.16059,0 -0.22437,0.06283 -0.22437,0.22042c-19.43682,-1.00624 -29.30047,-1.66547 -29.62151,-1.94871l-4.65959,-12.9762c3.5345,-16.11975 5.52727,-24.76066 5.97695,-25.95442c21.23611,2.45143 31.83769,3.83379 31.83769,4.11594zM337.39975,111.72358v0.1886c-1.76718,7.16473 -2.95699,11.24872 -3.50254,12.28597l-6.77882,3.8327c8.03147,5.68773 12.0786,8.64186 12.14332,8.86133c-2.85923,1.35136 -7.2285,3.29913 -13.1716,5.84424c-6.8755,-9.20727 -10.31236,-13.88876 -10.31236,-14.10918h-0.3859c-0.16059,5.37362 -0.22545,9.08271 -0.22545,11.09329c-0.09668,0.94247 -0.28922,1.41419 -0.61027,1.41419h-9.66919c-0.44968,0 -1.12495,-5.84628 -2.05737,-17.53488c-0.41691,-2.54525 -1.06022,-8.45245 -1.864,-17.72145c2.47427,-0.53467 10.02409,-1.85313 22.65014,-4.02131c0.48177,0.50272 5.07746,3.80183 13.78405,9.8665zM200.53792,102.98707l-1.9906,23.41027l8.96183,1.19375l2.63595,-20.70645l13.42901,2.92218l-2.89118,21.4285l-9.92836,11.40741l-19.62841,-3.39389l-7.6794,-8.2958l1.41418,-28.43767zM314.74944,110.9058c0,1.28758 0.06282,5.84533 0.22341,13.70123h0.1935c5.236,-1.19376 7.84,-2.01058 7.84,-2.41947l1.83109,-8.04437l-10.088,-3.4249zM238.97385,123.88403c5.26877,-0.91052 7.90268,-1.44614 7.90268,-1.60279l1.83109,-7.72917c-2.60196,-1.03725 -5.84628,-2.29491 -9.73378,-3.77096z" fill="#ececec" stroke="url(#color-19)" stroke-width="11.00161"/><path d="M334.82443,153.19086c12.36592,3.59936 18.9692,5.75164 19.72619,6.53746c6.81363,10.38417 10.64143,16.38111 11.48314,17.95384c-4.41618,15.05966 -6.94037,22.58936 -7.57171,22.58936c-14.67865,3.68217 -22.37697,5.50334 -23.0491,5.50334c-12.15543,-7.61264 -18.59022,-11.87517 -19.39004,-12.7438c-0.42086,-14.19103 -0.63121,-22.00996 -0.63121,-23.49906c-0.20954,-0.41392 -0.2933,-0.74394 -0.2933,-0.95036c12.53344,-10.26056 19.01107,-15.39077 19.43193,-15.39077zM333.60469,172.51196c-0.21036,1.28269 -0.46368,5.95711 -0.88454,14.02541l10.81101,2.39963c2.60793,-8.02656 3.8686,-12.32988 3.8686,-12.8685c-8.58,-2.56415 -13.16372,-3.8467 -13.79506,-3.8467z" fill="#9404e4" stroke="url(#color-20)" stroke-width="11.00161"/><path d="M310.5107,157.70074l-7.52874,48.48696l-13.58457,-1.19783l3.02676,-50.93035z" fill="#fbc211" stroke="url(#color-21)" stroke-width="11.00161"/><path d="M283.54796,165.64341v0.24734c-2.31381,9.43367 -3.87064,14.81232 -4.58561,16.17768l-8.87425,5.0474c10.51484,7.48795 15.81462,11.37845 15.89839,11.66768c-3.74295,1.77928 -9.46359,4.34344 -17.24471,7.69436c-9.00085,-12.12239 -13.5008,-18.2859 -13.5008,-18.57512h-0.50463c-0.21049,7.07403 -0.29425,11.955 -0.29425,14.60278c-0.12565,1.24176 -0.37802,1.86209 -0.79887,1.86209h-12.66099c-0.58838,0 -1.47211,-7.69545 -2.69184,-23.08609c-0.5465,-3.35107 -1.38726,-11.1292 -2.43838,-23.33343c3.23834,-0.7041 13.12277,-2.44042 29.65237,-5.29475c0.63135,0.66222 6.64515,5.00552 18.04358,12.99007zM253.89454,164.56836c0,1.69647 0.08484,7.69436 0.29426,18.0376h0.25333c6.85564,-1.57178 10.26341,-2.64887 10.26341,-3.1864l2.39663,-10.59058l-13.20763,-4.51z" fill="#0492d0" stroke="url(#color-22)" stroke-width="11.00161"/><path d="M216.92174,156.70646c0,0.20737 5.34071,16.01097 16.0659,47.37083c-1.13488,0.41392 -7.56967,1.20083 -19.38895,2.40057c-0.79887,-2.6898 -1.7234,-6.86653 -2.73264,-12.53535c-10.09494,0.91052 -15.14138,1.69443 -15.14138,2.39853l-2.73467,9.55836h-0.29426c-11.90305,-2.15119 -17.87606,-3.43469 -17.87606,-3.89049c9.5056,-29.24961 14.97495,-45.63166 16.36316,-49.1901c15.56129,2.1932 24.14128,3.5156 25.7389,3.88764zM201.19294,169.82231c-0.42086,2.02745 -1.05207,5.87416 -1.85094,11.62471h9.1265l-3.36399,-13.11476c-2.60793,0 -3.91156,0.49673 -3.91156,1.49006z" fill="#10d004" stroke="url(#color-23)" stroke-width="11.00161"/><path d="M139.7398,154.10042c3.07081,8.06736 4.91986,13.24054 5.59295,15.47454h0.25333c0.71512,-1.53098 3.5326,-5.79257 8.36964,-12.74381h0.25129c7.61359,0.45567 11.39939,0.99333 11.39939,1.53181l6.85659,46.12934c0,0.29018 -6.01585,0.95144 -18.00266,1.98557l-0.25333,-0.4966c-0.67215,-14.0254 -1.00829,-22.58841 -1.00829,-25.69117h-0.25129l-10.39014,8.97597h-0.25142c-0.33709,-0.16548 -2.69171,-3.80578 -7.10789,-10.96262h-0.25333c-5.42542,15.51438 -8.37045,23.74736 -8.8752,24.6988h-0.50354c-9.67408,-4.30251 -15.18327,-6.86761 -16.48785,-7.73624v-0.2483c11.98789,-27.76063 18.25408,-41.86967 18.7587,-42.40733c7.9496,0.53766 11.90305,1.03535 11.90305,1.49006z" fill="#e10404" stroke="url(#color-24)" stroke-width="11.00161"/><path d="M178.26781,107.10085c0,0.34511 -1.60673,3.36004 -4.81909,9.07863h-0.22436c-0.25728,0 -3.95141,-1.69538 -11.08324,-5.12124l-3.63132,4.74526c6.13659,2.89118 13.6225,6.56737 22.39287,11.06039c-3.98323,6.94431 -6.81064,11.53197 -8.48114,13.8258l-18.15236,1.57083c-8.28873,-5.4673 -12.65895,-8.29471 -13.14073,-8.48318v-0.22042c0,-0.59749 1.67159,-3.26826 5.0455,-8.07633h0.41691c1.31737,0.78583 5.49423,3.01683 12.49742,6.69302l4.24063,-4.7114c-12.88345,-6.41072 -20.01432,-10.02504 -21.3956,-10.87382v-0.18846c4.08005,-7.79308 6.32805,-11.75144 6.68105,-11.84527c10.63451,-2.10537 16.57854,-3.17347 17.76741,-3.17347c7.71027,3.80278 11.6606,5.71968 11.88605,5.71968zM261.75471,111.49908c-1.92778,8.60882 -3.14845,12.91433 -3.66218,12.91433c-0.09668,0 -2.66573,2.10441 -7.71028,6.346c-3.11664,-0.15665 -6.71491,-0.34416 -10.73118,-0.59545l-0.41691,11.31073c-0.86659,0.25129 -4.6585,0.50258 -11.37341,0.78582c-0.80295,0 -1.22082,-2.26296 -1.22082,-6.75584c-1.47795,-18.63305 -2.21701,-28.68801 -2.21701,-30.16515c2.50527,-0.53453 10.28042,-1.85298 23.32446,-3.95835zM297.24093,116.11691c-10.02409,-2.60794 -15.42164,-4.05312 -16.1596,-4.33636c0,0.1886 -1.09314,2.57721 -3.31013,7.13386h0.2264c4.465,-0.2831 9.34896,-0.69308 14.58591,-1.28949l0.22341,0.43989c-0.86673,4.86981 -1.54091,8.16907 -1.99074,9.92836l-12.36878,-1.72748c0.12864,2.38765 0.19241,4.17985 0.19241,5.40557v1.09803l0.2245,0.43989c2.73059,-0.28229 8.28873,-0.7211 16.60942,-1.31859c0.28923,1.28853 0.80377,4.55489 1.54281,9.7399c-0.16059,0 -0.22436,0.06282 -0.22436,0.22043c-19.43682,-1.00624 -29.30046,-1.66547 -29.6215,-1.94871l-4.65959,-12.9762c3.5345,-16.11975 5.52727,-24.76067 5.97695,-25.95443c11.9993,1.38516 31.8377,3.65916 31.8377,4.11594zM337.46773,111.24765v0.18861c-1.76718,7.16473 -2.95699,11.24871 -3.50254,12.28596l-6.77883,3.8327c8.03147,5.68773 12.0786,8.64187 12.14332,8.86134c-2.85923,1.35136 -7.2285,3.29912 -13.1716,5.84424c-6.8755,-9.20727 -10.31237,-13.88875 -10.31237,-14.10917h-0.3859c-0.16059,5.37362 -0.22545,9.08271 -0.22545,11.09329c-0.09668,0.94247 -0.28923,1.41419 -0.61028,1.41419h-9.66918c-0.44968,0 -1.12495,-5.84628 -2.05737,-17.53488c-0.41691,-2.54525 -1.06023,-8.45246 -1.864,-17.72145c2.47427,-0.53467 10.02409,-1.85312 22.65014,-4.0213c0.48177,0.50272 5.07746,3.80183 13.78405,9.86649zM200.60591,102.51114l-1.9906,23.41026l8.96183,1.19376l2.63595,-20.70645l13.42901,2.92218l-2.89118,21.42851l-9.92836,11.40741l-19.62841,-3.3939l-7.6794,-8.2958l1.41418,-28.43767zM314.81739,110.42988c0,1.28758 0.06282,5.84533 0.22341,13.70123h0.19349c5.236,-1.19376 7.84,-2.01058 7.84,-2.41947l1.83109,-8.04437l-10.088,-3.42491zM239.04182,123.40811c5.26877,-0.91052 7.90269,-1.44614 7.90269,-1.60279l1.83109,-7.72917c-2.60196,-1.03725 -5.84628,-2.29491 -9.73378,-3.77096z" fill="url(#color-25)" stroke="none" stroke-width="1.19633"/><path d="M139.87581,153.55651c3.07081,8.06736 4.91986,13.24054 5.59295,15.47454h0.25333c0.71512,-1.53098 3.53259,-5.79257 8.36963,-12.7438h0.25129c7.61359,0.45567 11.39939,0.99332 11.39939,1.53179l6.8566,46.12935c0,0.29018 -6.01585,0.95144 -18.00266,1.98556l-0.25333,-0.49659c-0.67215,-14.0254 -1.00829,-22.58841 -1.00829,-25.69117h-0.25129l-10.39015,8.97597h-0.25143c-0.33709,-0.16548 -2.69171,-3.80577 -7.10789,-10.96261h-0.25333c-5.42542,15.51438 -8.37045,23.74736 -8.87521,24.6988h-0.50354c-9.67408,-4.30251 -15.18327,-6.86761 -16.48785,-7.73624v-0.2483c11.98789,-27.76063 18.25408,-41.86968 18.7587,-42.40734c7.9496,0.53766 11.90305,1.03534 11.90305,1.49006z" fill="url(#color-26)" stroke="none" stroke-width="1.57068"/><path d="M217.05773,156.16254c0,0.20737 5.34071,16.01097 16.06591,47.37083c-1.13488,0.41392 -7.56967,1.20083 -19.38896,2.40057c-0.79887,-2.6898 -1.7234,-6.86653 -2.73264,-12.53535c-10.09494,0.91052 -15.14138,1.69443 -15.14138,2.39853l-2.73467,9.55837h-0.29425c-11.90305,-2.15119 -17.87607,-3.43468 -17.87607,-3.89049c9.5056,-29.24961 14.97495,-45.63166 16.36316,-49.1901c15.56129,2.1932 24.14128,3.5156 25.7389,3.88764zM201.32889,169.27837c-0.42086,2.02745 -1.05207,5.87415 -1.85094,11.6247h9.1265l-3.36399,-13.11476c-2.60793,0 -3.91156,0.49674 -3.91156,1.49006z" fill="url(#color-27)" stroke="none" stroke-width="1.57068"/><path d="M283.68395,165.09949v0.24735c-2.31381,9.43367 -3.87064,14.81232 -4.58562,16.17768l-8.87425,5.0474c10.51484,7.48795 15.81462,11.37845 15.89838,11.66768c-3.74295,1.77928 -9.46358,4.34344 -17.2447,7.69436c-9.00085,-12.12239 -13.5008,-18.2859 -13.5008,-18.57513h-0.50462c-0.21049,7.07403 -0.29425,11.955 -0.29425,14.60277c-0.12565,1.24176 -0.37802,1.8621 -0.79888,1.8621h-12.66099c-0.58838,0 -1.47211,-7.69545 -2.69184,-23.08609c-0.5465,-3.35107 -1.38726,-11.1292 -2.43837,-23.33343c3.23834,-0.7041 13.12277,-2.44042 29.65237,-5.29475c0.63135,0.66222 6.64516,5.00552 18.04359,12.99007zM254.03051,164.02443c0,1.69647 0.08485,7.69436 0.29426,18.0376h0.25333c6.85564,-1.57178 10.26341,-2.64887 10.26341,-3.1864l2.39663,-10.59058l-13.20763,-4.51002z" fill="url(#color-28)" stroke="none" stroke-width="1.57068"/><path d="M310.64664,157.15683l-7.52874,48.48696l-13.58456,-1.19784l3.02675,-50.93035z" fill="url(#color-29)" stroke="none" stroke-width="1.57068"/><path d="M334.96043,152.64695c12.36592,3.59936 18.96919,5.75164 19.72619,6.53745c6.81363,10.38417 10.64144,16.38111 11.48315,17.95384c-4.41618,15.05966 -6.94037,22.58936 -7.57171,22.58936c-14.67865,3.68217 -22.37697,5.50334 -23.0491,5.50334c-12.15543,-7.61264 -18.59022,-11.87517 -19.39004,-12.74381c-0.42086,-14.19103 -0.63122,-22.00995 -0.63122,-23.49906c-0.20954,-0.41392 -0.2933,-0.74394 -0.2933,-0.95035c12.53344,-10.26056 19.01107,-15.39077 19.43192,-15.39077zM333.74066,171.96806c-0.21036,1.28269 -0.46369,5.9571 -0.88454,14.0254l10.811,2.39962c2.60793,-8.02656 3.8686,-12.32988 3.8686,-12.8685c-8.58,-2.56415 -13.16372,-3.8467 -13.79506,-3.8467z" fill="url(#color-30)" stroke="none" stroke-width="1.57068"/></g></g></svg>