<svg version="1.1" xmlns="http://www.w3.org/2000/svg" xmlns:xlink="http://www.w3.org/1999/xlink" width="98.43052" height="132.63552" viewBox="0,0,98.43052,132.63552"><defs><linearGradient x1="265.93691" y1="206.3586" x2="250.53549" y2="196.52399" gradientUnits="userSpaceOnUse" id="color-1"><stop offset="0" stop-color="#e8001f"/><stop offset="1" stop-color="#df001e"/></linearGradient><linearGradient x1="285.46587" y1="188.46224" x2="255.71817" y2="169.46676" gradientUnits="userSpaceOnUse" id="color-2"><stop offset="0" stop-color="#cecece"/><stop offset="1" stop-color="#f2f2f2"/></linearGradient><linearGradient x1="275.40826" y1="198.91582" x2="251.68869" y2="183.76961" gradientUnits="userSpaceOnUse" id="color-3"><stop offset="0" stop-color="#cecece"/><stop offset="1" stop-color="#f2f2f2"/></linearGradient><linearGradient x1="231.45536" y1="242.97248" x2="259.74874" y2="229.92995" gradientUnits="userSpaceOnUse" id="color-4"><stop offset="0" stop-color="#003fb5"/><stop offset="1" stop-color="#00379d"/></linearGradient><linearGradient x1="238.98944" y1="259.07788" x2="270.62425" y2="244.49503" gradientUnits="userSpaceOnUse" id="color-5"><stop offset="0" stop-color="#8e4108"/><stop offset="1" stop-color="#ae4e0e"/></linearGradient><linearGradient x1="238.73467" y1="193.38061" x2="232.64788" y2="234.70699" gradientUnits="userSpaceOnUse" id="color-6"><stop offset="0" stop-color="#0052ef"/><stop offset="1" stop-color="#0046c7"/></linearGradient><linearGradient x1="241.01234" y1="191.67145" x2="237.69709" y2="214.18039" gradientUnits="userSpaceOnUse" id="color-7"><stop offset="0" stop-color="#ff556b"/><stop offset="1" stop-color="#ef0020"/></linearGradient><linearGradient x1="208.31433" y1="223.00517" x2="232.05012" y2="243.18526" gradientUnits="userSpaceOnUse" id="color-8"><stop offset="0" stop-color="#0052ef"/><stop offset="1" stop-color="#0046c7"/></linearGradient><linearGradient x1="197.06043" y1="236.3961" x2="223.59942" y2="258.95945" gradientUnits="userSpaceOnUse" id="color-9"><stop offset="0" stop-color="#8e4108"/><stop offset="1" stop-color="#ae4e0e"/></linearGradient><linearGradient x1="210.59599" y1="181.56944" x2="224.96414" y2="183.68567" gradientUnits="userSpaceOnUse" id="color-10"><stop offset="0" stop-color="#82491d"/><stop offset="1" stop-color="#5a2c0a"/></linearGradient><linearGradient x1="238.72428" y1="154.10523" x2="232.17655" y2="198.56115" gradientUnits="userSpaceOnUse" id="color-11"><stop offset="0" stop-color="#ffead6"/><stop offset="1" stop-color="#f5b677"/></linearGradient><linearGradient x1="236.61619" y1="154.04941" x2="234.14778" y2="170.80872" gradientUnits="userSpaceOnUse" id="color-12"><stop offset="0" stop-color="#f5b477"/><stop offset="1" stop-color="#f5b477" stop-opacity="0"/></linearGradient><linearGradient x1="221.93074" y1="161.53621" x2="232.657" y2="163.11604" gradientUnits="userSpaceOnUse" id="color-13"><stop offset="0" stop-color="#5a2c0a"/><stop offset="1" stop-color="#82491d"/></linearGradient><radialGradient cx="266.20846" cy="176.95092" r="12.1631" gradientUnits="userSpaceOnUse" id="color-14"><stop offset="0" stop-color="#ffead6"/><stop offset="1" stop-color="#f7c594"/></radialGradient><linearGradient x1="225.32925" y1="185.66038" x2="207.90825" y2="200.44952" gradientUnits="userSpaceOnUse" id="color-15"><stop offset="0" stop-color="#ff1938"/><stop offset="1" stop-color="#ef0020"/></linearGradient><linearGradient x1="220.91032" y1="159.76597" x2="195.16466" y2="181.62215" gradientUnits="userSpaceOnUse" id="color-16"><stop offset="0" stop-color="#f2f2f2"/><stop offset="1" stop-color="#ffffff"/></linearGradient><linearGradient x1="223.35455" y1="174.34781" x2="202.64674" y2="191.92721" gradientUnits="userSpaceOnUse" id="color-17"><stop offset="0" stop-color="#f2f2f2"/><stop offset="1" stop-color="#ffffff"/></linearGradient></defs><g transform="translate(-189.92227,-133.14165)"><g data-paper-data="{&quot;isPaintingLayer&quot;:true}" fill="none" fill-rule="nonzero" stroke="none" stroke-width="none" stroke-linecap="none" stroke-linejoin="miter" stroke-miterlimit="10" stroke-dasharray="" stroke-dashoffset="0" font-family="none" font-weight="none" font-size="none" text-anchor="none" style="mix-blend-mode: normal"><g data-paper-data="{&quot;index&quot;:null,&quot;origRot&quot;:0,&quot;origPos&quot;:null}" stroke-linecap="butt"><path d="M252.52635,213.14568c-4.22336,-2.77544 -6.75692,-9.39067 -1.92481,-16.72039c4.83214,-7.32973 10.58035,-13.53813 10.58035,-13.53813l12.76482,8.19102c0,0 -6.07631,12.43457 -9.96285,18.32994c-4.83214,7.32973 -11.4575,3.73755 -11.4575,3.73755z" data-paper-data="{&quot;origRot&quot;:0,&quot;origPos&quot;:null}" fill="url(#color-1)" stroke="none" stroke-width="0"/><g data-paper-data="{&quot;origPos&quot;:null}" stroke="#cdcdcd" stroke-width="1.5"><path d="M266.13605,189.81376c-7.66519,-4.57295 -16.9096,-10.6352 -11.89784,-18.02158c3.63585,-5.35855 16.33894,-8.31293 22.85124,-2.23239c7.10641,6.63528 14.4753,11.48787 8.04735,19.18975c-6.00198,7.1915 -11.33557,5.63719 -19.00076,1.06422z" data-paper-data="{&quot;origRot&quot;:0}" fill="url(#color-2)"/><path d="M261.49961,195.26049c-5.9136,-3.53798 -13.31178,-6.47821 -10.3888,-10.57417c3.26992,-4.58212 4.63781,-3.3733 14.16671,2.63526c10.85515,6.84485 13.69523,6.01548 10.36969,11.22018c-1.94188,3.03919 -8.23399,0.25671 -14.14756,-3.28128z" data-paper-data="{&quot;origRot&quot;:0}" fill="url(#color-3)"/></g></g><g data-paper-data="{&quot;origPos&quot;:null,&quot;origRot&quot;:0}" stroke-linecap="butt"><path d="M257.34396,235.96849c1.92624,3.64305 6.80441,3.16959 7.06065,4.06944c1.03674,3.64071 0.53552,6.77388 -4.32668,10.95362c-6.02289,5.17753 -11.68542,7.22552 -19.59515,6.42082c-5.3872,-0.54807 -2.65999,-4.4245 -3.20074,-9.83185c-0.19403,-1.94031 -2.83748,-17.28055 -2.83748,-17.28055c0,0 4.03688,-2.66671 8.29379,-4.70772c4.23171,-1.97389 8.6476,-3.49457 8.6476,-3.49457c0,0 1.50524,5.44946 5.958,13.87085z" data-paper-data="{&quot;origPos&quot;:null}" fill="url(#color-4)" stroke="none" stroke-width="0"/><path d="M271.56113,251.45896c1.47195,3.19313 -1.06567,6.18703 -3.7367,8.44542c-1.75045,1.48002 -11.61329,5.67932 -17.75304,5.06113c-1.90613,-0.19192 -4.04758,-1.63516 -4.04758,-1.63516c0,0 -3.81562,2.5132 -4.35388,1.3146c-0.42726,-0.95146 -1.19445,-2.55339 -0.5084,-3.46566c2.95312,-3.9268 12.2608,-8.21128 16.71727,-10.2656c6.11773,-2.82012 12.24349,-2.576 13.68232,0.54526z" data-paper-data="{&quot;origPos&quot;:null}" fill="#5c3822" stroke="#5c3822" stroke-width="1.5"/><path d="M271.24704,246.74038c0.6099,4.25065 -1.87844,8.63701 -8.79461,11.82519c-6.91617,3.18818 -16.17425,2.56485 -16.17425,2.56485c0,0 -4.88485,2.57319 -5.58166,1.32805c-1.44221,-2.57714 -3.50116,-6.91772 -2.56053,-7.52425c3.47245,-2.23921 3.00411,-1.41001 7.38075,-4.69401c2.83367,-2.12623 6.69917,-7.56291 9.91567,-9.04565c6.91617,-3.18818 14.81041,-1.45294 15.81464,5.54585z" data-paper-data="{&quot;origPos&quot;:null}" fill="url(#color-5)" stroke="#5c3822" stroke-width="1.5"/></g><g data-paper-data="{&quot;origPos&quot;:null,&quot;origRot&quot;:0}"><path d="M261.09538,216.0967c-2.20665,17.42355 -15.07114,20.58041 -28.7209,18.57c-13.64975,-2.01042 -23.68185,-11.90225 -22.45387,-20.23963c1.33215,-9.04469 3.57761,-16.07015 12.06723,-20.70137c6.32503,-3.45041 14.23555,-0.23658 21.61706,0.85061c13.64975,2.01042 19.65344,4.44141 17.49044,21.52038z" data-paper-data="{&quot;origPos&quot;:null}" fill="url(#color-6)" stroke="#003393" stroke-width="1.5" stroke-linecap="butt"/><path d="M261.16788,215.60446c0,0 -15.73922,-0.64168 -26.71267,-1.92263c-10.06527,-1.17494 -19.72069,-5.75461 -19.72069,-5.75461c0,0 0.78049,-11.44911 8.59258,-14.79518c5.11122,-2.18921 10.52128,-2.35586 17.31505,-1.50681c6.79379,0.84904 13.87754,3.83708 16.91524,6.86043c7.17535,7.14152 3.61049,17.1188 3.61049,17.1188z" data-paper-data="{&quot;origPos&quot;:null}" fill="url(#color-7)" stroke="#ac1429" stroke-width="1.5" stroke-linecap="butt"/><path d="M251.23337,196.44703c0,0 1.09695,5.89538 0.988,9.32695c-0.13996,4.40759 -2.35903,12.40094 -2.35903,12.40094" data-paper-data="{&quot;origPos&quot;:null,&quot;origRot&quot;:0}" fill="none" stroke="#0052ef" stroke-width="10" stroke-linecap="round"/><path d="M231.84219,194.01738c0,0 0.26125,5.95583 -0.33046,9.33418c-0.75999,4.33923 -4.09376,11.97613 -4.09376,11.97613" data-paper-data="{&quot;origPos&quot;:null}" fill="none" stroke="#0052ef" stroke-width="10" stroke-linecap="round"/><g stroke-linecap="butt"><path d="M224.59187,213.3188c0.27363,-1.8578 2.14519,-3.12082 4.18026,-2.82109c2.03504,0.29973 3.46298,2.04874 3.18936,3.90654c-0.27363,1.8578 -2.14517,3.12084 -4.18024,2.8211c-2.03504,-0.29973 -3.46299,-2.04874 -3.18937,-3.90654z" data-paper-data="{&quot;origPos&quot;:null}" fill="#ffe84f" stroke="#baa100" stroke-width="1"/><path d="M227.76607,212.8585c0.08342,-0.5664 0.65401,-0.95148 1.27446,-0.86008c0.62045,0.09138 1.05579,0.62463 0.97238,1.19102c-0.08342,0.5664 -0.65401,0.95147 -1.27447,0.86008c-0.62045,-0.09138 -1.05578,-0.62462 -0.97237,-1.19101z" fill="#fffce5" stroke="none" stroke-width="0.5"/></g><g stroke-linecap="butt"><path d="M246.88038,216.60157c0.27363,-1.8578 2.14517,-3.12084 4.18024,-2.8211c2.03505,0.29973 3.46299,2.04874 3.18936,3.90654c-0.27363,1.8578 -2.14518,3.12084 -4.18025,2.8211c-2.03504,-0.29973 -3.46298,-2.04874 -3.18936,-3.90654z" data-paper-data="{&quot;origPos&quot;:null}" fill="#ffe84f" stroke="#baa100" stroke-width="1"/><path d="M250.36271,216.18666c0.08342,-0.5664 0.65401,-0.95148 1.27447,-0.86009c0.62044,0.09138 1.05579,0.62463 0.97238,1.19102c-0.08342,0.5664 -0.65401,0.95147 -1.27447,0.86007c-0.62045,-0.09138 -1.05579,-0.62462 -0.97238,-1.19101z" fill="#fffce5" stroke="none" stroke-width="0.5"/></g></g><g data-paper-data="{&quot;origPos&quot;:null,&quot;origRot&quot;:0}" stroke-linecap="butt"><path d="M225.74722,243.3244c-2.49451,3.28019 -0.01262,7.5064 -0.72114,8.11744c-2.86662,2.47226 -5.91987,3.33577 -11.75734,0.68336c-7.23098,-3.28558 -11.47126,-7.5609 -14.06908,-15.07508c-1.76934,-5.1178 2.89474,-4.27462 7.57271,-7.04018c1.6786,-0.99236 15.96578,-12.22917 15.96578,-12.22917c0,0 5.2169,4.36269 8.10445,7.9077c2.27882,2.79766 5.13373,8.34459 5.13373,8.34459c0,0 -4.46274,1.70875 -10.22913,9.29131z" data-paper-data="{&quot;origPos&quot;:null}" fill="url(#color-8)" stroke="none" stroke-width="0"/><path d="M217.67599,262.73925c-2.27748,2.67876 -6.06116,1.63628 -9.23371,0.16333c-2.07913,-0.9653 -10.03822,-8.146 -12.06055,-13.976c-0.62784,-1.80996 -0.21951,-4.35989 -0.21951,-4.35989c0,0 -3.88528,-2.40411 -3.02438,-3.3967c0.6834,-0.78791 1.81387,-2.15786 2.93011,-1.9193c4.8048,1.02693 12.60762,7.66817 16.34622,10.84671c5.13226,4.36343 7.48807,10.02336 5.26185,12.64183z" data-paper-data="{&quot;origPos&quot;:null}" fill="#5c3822" stroke="#5c3822" stroke-width="1.5"/><path d="M221.82449,260.4691c-3.59953,2.34164 -8.62569,1.92972 -14.42778,-3.0032c-5.80209,-4.93292 -9.13172,-13.59398 -9.13172,-13.59398c0,0 -4.38954,-3.34886 -3.55312,-4.50487c1.73118,-2.39263 4.80262,-6.08666 5.74862,-5.48853c3.49234,2.20808 2.54305,2.13206 7.36362,4.72083c3.12108,1.6761 9.6795,2.89549 12.37787,5.18964c5.80209,4.93292 7.54923,12.82453 1.62251,16.68014z" data-paper-data="{&quot;origPos&quot;:null}" fill="url(#color-9)" stroke="#5c3822" stroke-width="1.5"/></g><g data-paper-data="{&quot;origPos&quot;:null,&quot;origRot&quot;:0}"><g><path d="M215.06855,186.95473c0,0 -1.69875,0.75791 -3.24927,-0.64861c-1.55053,-1.40651 -2.40412,-4.25671 0.27378,-5.1634c3.20303,-1.08451 3.18492,-6.3215 4.73545,-4.91498c0,0 6.48131,1.83451 6.63205,4.34881c0,0 1.74971,7.45451 0.44162,8.41298c0,0 -1.79198,0.87444 -6.00885,0.0643c-2.28477,-0.43892 -2.82477,-2.09914 -2.82477,-2.09914z" data-paper-data="{&quot;origRot&quot;:0}" fill="url(#color-10)" stroke="#5c3822" stroke-width="1" stroke-linecap="butt"/><path d="M254.10698,153.14568c11.06812,1.1852 12.95077,7.70221 12.95077,7.70221c0,0 -0.41841,5.91807 -0.9288,13.21815c-0.58684,8.3935 5.13043,13.09728 0.83111,20.42929c-1.65763,2.82691 -4.62226,3.99742 -7.64595,5.5804c-1.71532,0.89802 -6.20066,1.35512 -16.08458,0.09045c-13.97151,-1.78767 -17.61533,-4.45088 -22.76456,-9.33616c-3.26962,-3.10203 -1.14155,-6.51152 -3.44573,-10.99078c-0.70632,-1.37306 -1.66317,-2.19095 -1.84089,-2.21712c-9.47465,-1.39548 -13.61966,-9.38363 -12.61401,-16.21153c1.00565,-6.82792 5.20224,-11.86501 10.5003,-11.08468c5.2981,0.78033 9.79346,4.20641 11.12043,4.70341c0,0 18.85377,-3.06884 29.9219,-1.88362z" data-paper-data="{&quot;origPos&quot;:null}" fill="url(#color-11)" stroke="none" stroke-width="0" stroke-linecap="butt"/><path d="M266.4177,173.67173c-1.88265,-0.00485 -35.05448,-5.08639 -42.65717,-5.76042c-0.5293,-1.92267 -0.08869,-13.00446 1.23826,-12.50745c0,0 16.80948,-3.74622 22.20763,-3.22928c9.1445,0.8757 15.77593,0.54996 20.07274,5.35804c0,0 -0.22105,9.13795 -0.86145,16.1391z" data-paper-data="{&quot;origPos&quot;:null}" fill="url(#color-12)" stroke="none" stroke-width="0" stroke-linecap="butt"/><path d="M265.81913,165.64531c-0.28505,4.16838 -2.78201,7.36627 -5.57713,7.14262c-2.79511,-0.22363 -4.82993,-3.78404 -4.54487,-7.95245c0.28506,-4.16838 2.78201,-7.36626 5.57713,-7.14262c2.19047,0.17525 2.3889,0.80682 3.17079,2.86049c0.61535,1.61622 1.49208,3.3666 1.3741,5.09197z" data-paper-data="{&quot;origPos&quot;:null,&quot;origRot&quot;:0}" fill="#ffffff" stroke="none" stroke-width="0" stroke-linecap="butt"/><path d="M231.21207,162.80203c-0.32386,2.19879 1.99635,5.82647 -0.28854,6.47219c-2.65808,0.75117 -3.70647,-0.98473 -3.70647,-0.98473c0,0 0.33633,1.40658 -3.08687,1.49113c-2.54291,0.06281 -2.69793,-4.85997 -2.14939,-8.58428c0.52356,-3.55475 -0.8385,-6.56841 -3.92992,-8.81763c-1.6519,-1.20186 -6.853,-1.24256 -6.31826,-3.08927c1.32669,-4.58149 7.65112,-5.9637 12.59319,-7.2129c3.27564,-0.82797 -4.29855,-1.10422 -5.73722,-3.66592c-1.43865,-2.56171 0.9168,-2.50334 0.9776,-2.51892c1.64591,-0.42157 3.05781,0.24505 4.52815,1.0998c1.91141,1.1112 2.31408,3.12476 4.46653,2.61794c1.55484,-0.78573 1.21566,-1.74477 3.34048,-3.86127c1.43942,-1.43378 2.74607,-2.50993 3.50255,-1.96039c0.75648,0.54955 0.56374,1.87417 0.33565,2.63319c-0.2281,0.75904 -4.48494,4.27203 -2.50227,3.97579c2.5902,-0.38702 11.17931,-1.24889 12.63708,-1.19286c5.54676,0.21321 8.73297,1.04537 13.64965,3.52946c2.10108,1.06152 3.24277,1.75951 5.02127,3.24864c1.31183,1.09838 0.91618,0.90727 1.84931,2.29612c1.67072,-0.41574 6.3027,-0.97706 6.9497,2.95029c0.52882,3.20998 -3.7202,5.46633 -3.66172,7.58278c0.11752,4.25223 -0.05242,5.7868 -2.59582,11.96488c-1.26217,0.88353 1.04833,-10.4945 -0.76017,-14.33968c-2.25978,-4.80466 -9.93994,-2.64422 -14.40585,-2.87238c-5.24375,-0.26789 -8.27191,-0.85229 -13.32287,0.35215c-2.6842,0.64008 -6.83722,5.16149 -7.38575,8.88579z" data-paper-data="{&quot;origPos&quot;:null}" fill="url(#color-13)" stroke="#5c3822" stroke-width="1" stroke-linecap="butt"/><path d="M253.2995,168.11149c-0.08277,4.18038 -2.4199,7.48193 -5.22011,7.37421c-2.80022,-0.10771 -5.00316,-3.58392 -4.9204,-7.76425c0.04013,-2.02662 1.28545,-3.14349 2.35772,-4.86368c0.98656,-1.58267 0.9988,-2.58221 2.8624,-2.51052c2.80022,0.10771 5.00316,3.58392 4.9204,7.76425z" data-paper-data="{&quot;origPos&quot;:null,&quot;origRot&quot;:0}" fill="#ffffff" stroke="none" stroke-width="0" stroke-linecap="butt"/><path d="M251.11492,165.65666c0.86977,0.12811 1.57101,0.82995 2.00275,1.85982c0.4308,1.02975 0.59195,2.38835 0.37952,3.83063c-0.21243,1.44226 -0.75844,2.69673 -1.46784,3.55855c-0.71032,0.86168 -1.58414,1.33151 -2.45393,1.20341c-0.86977,-0.12811 -1.57102,-0.82994 -2.00276,-1.85982c-0.4308,-1.02975 -0.59194,-2.38836 -0.37951,-3.83064c0.21243,-1.44226 0.75844,-2.69673 1.46784,-3.55855c0.71032,-0.86168 1.58414,-1.33151 2.45393,-1.20341z" data-paper-data="{&quot;origPos&quot;:null}" id="ID0.2989244391210377" fill="#000000" stroke="#00aaff" stroke-width="1.5" stroke-linecap="butt"/><path d="M263.55686,163.57065c0.86977,0.12811 1.57102,0.82994 2.00276,1.85982c0.4308,1.02975 0.3475,2.55219 0.37951,3.83064c0.0089,0.46551 0.04862,1.14656 -0.36053,1.4971c-0.51291,0.42137 -1.27625,0.54666 -1.96382,0.65809c-1.1798,0.05015 -2.63938,0.50433 -3.5671,-0.18091c-0.81056,-0.6189 -0.54768,-1.92195 -0.41256,-2.90278c0.17447,-1.267 0.75844,-2.69673 1.46784,-3.55854c0.71032,-0.86168 1.58413,-1.33152 2.45392,-1.20342z" data-paper-data="{&quot;origPos&quot;:null}" id="ID0.2989244391210377" fill="#000000" stroke="#00aaff" stroke-width="1.5" stroke-linecap="round"/><path d="M266.33728,194.69767c-0.65544,2.09817 -2.57277,2.91608 -3.94218,3.05199c-4.17953,0.41481 -10.02934,-0.5969 -13.86449,-2.29775c-2.20417,-0.97755 -2.04293,-2.35533 -2.2366,-2.57978c-0.20462,-0.23713 -2.90775,0.92117 -5.89507,0.48118c-4.79351,-0.70602 -7.64936,-4.31086 -7.00654,-8.67528c0.70489,-4.78591 1.54675,-7.37908 2.34726,-7.40187c3.55565,0.45007 6.6591,4.38452 8.70811,6.01589c0,0 11.15546,5.26666 16.65325,5.7835c0,0 9.36627,-2.50547 12.07126,-1.93671c1.34155,0.28207 0.9649,2.90072 0.34313,4.15977c0,0 -0.39281,3.63107 -2.42849,4.3119c-4.81334,1.6098 -4.56,-1.52004 -4.74968,-0.91282z" data-paper-data="{&quot;origPos&quot;:null}" fill="#291e16" stroke="#321f12" stroke-width="0" stroke-linecap="butt"/><path d="M273.33231,181.94841c-1.27845,5.51128 -0.20293,9.42815 -13.30741,7.28275c-6.03974,-0.98882 -11.16896,-4.97288 -10.44043,-9.91925c0.72853,-4.94635 7.4681,-10.19087 13.56866,-9.73565c8.88894,0.6633 12.22447,3.55493 10.17916,12.37216z" data-paper-data="{&quot;origPos&quot;:null}" fill="url(#color-14)" stroke="#c79260" stroke-width="1.5" stroke-linecap="butt"/><g data-paper-data="{&quot;origPos&quot;:null}" fill="none" stroke="#c79260" stroke-width="3.5" stroke-linecap="round"><path d="M208.92316,158.63337c0,0 2.92214,-1.05948 6.02259,1.92006c4.44658,4.27316 0.63923,9.88792 0.63923,9.88792" data-paper-data="{&quot;origPos&quot;:null}"/><path d="M210.56939,164.65834l5.48173,0.80738" data-paper-data="{&quot;origPos&quot;:null}"/><path d="M214.78413,170.44642l-1.17465,-0.173" data-paper-data="{&quot;origPos&quot;:null}"/></g><path d="M246.29801,156.20892c-1.30786,0.16071 -1.27248,0.33331 -2.04038,1.3147c-0.79221,1.01243 -2.33355,2.23955 -2.33355,2.23955c0,0 -0.88205,-3.25362 -0.54778,-5.52313c0.22697,-1.54096 1.53011,-4.09313 4.18377,-4.25265c8.74766,1.01206 5.04175,8.19293 5.04175,8.19293c0,0 -2.92575,-2.17335 -4.3038,-1.97139z" data-paper-data="{&quot;origPos&quot;:null}" fill="#291e16" stroke="none" stroke-width="0" stroke-linecap="butt"/><path d="M261.46281,155.58232c-1.39651,-0.12889 -4.07156,2.19194 -4.07156,2.19194c0,0 -4.55712,-6.54346 4.05216,-8.01257c2.66364,0.01948 4.2473,2.49562 4.64526,4.02017c0.58611,2.24527 0.13119,5.11425 0.13119,5.11425c0,0 -2.21178,-1.71957 -2.5762,-2.11027c-0.87499,-0.93812 -0.85895,-1.11208 -2.18085,-1.20354z" data-paper-data="{&quot;origPos&quot;:null,&quot;index&quot;:null,&quot;origRot&quot;:0}" fill="#291e16" stroke="none" stroke-width="0" stroke-linecap="butt"/><path d="M251.91558,166.17113c0.34275,0.00983 0.6508,0.29403 0.87209,0.74492c0.22092,0.45087 0.35509,1.06881 0.34938,1.74651c-0.0057,0.67769 -0.15022,1.28763 -0.37864,1.7256c-0.22877,0.43795 -0.54145,0.70429 -0.88421,0.69445c-0.34275,-0.00983 -0.65079,-0.29404 -0.87208,-0.74493c-0.22092,-0.45087 -0.3551,-1.06881 -0.34938,-1.74651c0.0057,-0.67769 0.15022,-1.28763 0.37865,-1.72559c0.22877,-0.43795 0.54144,-0.70429 0.88422,-0.69445z" data-paper-data="{&quot;origPos&quot;:null,&quot;origRot&quot;:0}" id="ID0.2989244391210377" fill="#ffffff" stroke="#00aaff" stroke-width="0" stroke-linecap="butt"/><path d="M264.41807,164.32726c0.34275,0.00984 0.65081,0.29402 0.87209,0.74492c0.22092,0.45087 0.35509,1.06881 0.34937,1.7465c-0.00571,0.67769 -0.15022,1.28763 -0.37865,1.7256c-0.22878,0.43795 -0.54144,0.70429 -0.88421,0.69445c-0.34275,-0.00983 -0.65081,-0.29403 -0.87209,-0.74493c-0.22092,-0.45087 -0.35509,-1.06881 -0.34937,-1.74651c0.00571,-0.67769 0.15022,-1.28763 0.37865,-1.72559c0.22878,-0.43795 0.54144,-0.70429 0.88421,-0.69446z" data-paper-data="{&quot;origPos&quot;:null,&quot;origRot&quot;:0}" id="ID0.2989244391210377" fill="#ffffff" stroke="#00aaff" stroke-width="0" stroke-linecap="butt"/></g><path d="M227.12529,154.45009l7.68873,-10.55556c0,0 2.20272,-1.9855 3.11332,-2.12511c0.9106,-0.13961 2.36706,0.2256 2.36706,0.2256l1.88682,0.77004l2.70037,2.48926l1.54348,2.19584c0,0 0.67589,0.64747 1.36475,0.69315c0.68886,0.04565 1.67263,-0.49184 1.67263,-0.49184c0,0 1.66947,-2.10018 2.99766,-3.19633c1.3282,-1.09613 3.07437,-1.81486 3.07437,-1.81486c0,0 1.04559,-0.57744 2.04644,-0.31375c1.00086,0.26368 2.18969,1.4298 2.18969,1.4298c0,0 1.55941,0.74346 1.89318,1.63219c0.33377,0.88872 0.40565,4.48887 0.40565,4.48887l1.47116,-0.02937l4.63601,-1.59886l2.40253,-0.01522l1.99878,0.91513c0,0 0.47785,0.63167 0.64121,1.0787c0.16337,0.44703 0.40429,1.78198 0.40429,1.78198l-0.76401,2.47113l-1.94754,2.35833l-2.36568,2.48128" fill="none" stroke="#5c3822" stroke-width="1" stroke-linecap="round"/></g><g data-paper-data="{&quot;origPos&quot;:null,&quot;origRot&quot;:0}" stroke-linecap="butt"><path d="M210.01309,201.43753c-2.9853,-6.42669 -7.20813,-19.70643 -7.20813,-19.70643l13.61109,-6.57011c0,0 4.76217,6.98294 8.47377,14.97325c3.71162,7.99032 0.81424,15.10385 -3.69816,17.34327c-4.51239,2.23941 -7.46695,1.95036 -11.17858,-6.03997z" data-paper-data="{&quot;origRot&quot;:0,&quot;origPos&quot;:null}" fill="url(#color-15)" stroke="none" stroke-width="0"/><g data-paper-data="{&quot;origPos&quot;:null}" stroke="#cdcdcd" stroke-width="1.5"><path d="M192.35651,177.90531c-5.22036,-8.57138 2.6542,-12.48882 10.51841,-18.23104c7.20676,-5.26217 19.21788,-0.64467 22.03225,5.21024c3.87942,8.07058 -5.99586,12.95951 -14.12147,16.55756c-8.12562,3.59803 -13.55474,4.46666 -18.42917,-3.53673z" data-paper-data="{&quot;origRot&quot;:0}" fill="url(#color-16)"/><path d="M200.28144,188.97413c-2.53227,-5.66007 0.12977,-4.45808 11.68791,-9.92397c10.14598,-4.79806 11.6503,-5.83468 14.21418,-0.80725c2.29185,4.49403 -5.34721,6.48666 -11.61738,9.27256c-6.27018,2.78589 -12.80605,4.76374 -14.28472,1.45867z" data-paper-data="{&quot;origRot&quot;:0}" fill="url(#color-17)"/></g></g></g></g></svg>