<svg version="1.1" xmlns="http://www.w3.org/2000/svg" xmlns:xlink="http://www.w3.org/1999/xlink" width="161.27851" height="182.11379" viewBox="0,0,161.27851,182.11379"><defs><linearGradient x1="205.32414" y1="189.18553" x2="205.77114" y2="169.96981" gradientUnits="userSpaceOnUse" id="color-1"><stop offset="0" stop-color="#e8001f"/><stop offset="1" stop-color="#df001e"/></linearGradient><linearGradient x1="168.07577" y1="196.0342" x2="168.93916" y2="158.91919" gradientUnits="userSpaceOnUse" id="color-2"><stop offset="0" stop-color="#cecece"/><stop offset="1" stop-color="#f2f2f2"/></linearGradient><linearGradient x1="183.91174" y1="193.40315" x2="184.60017" y2="163.80918" gradientUnits="userSpaceOnUse" id="color-3"><stop offset="0" stop-color="#cecece"/><stop offset="1" stop-color="#f2f2f2"/></linearGradient><linearGradient x1="240.83794" y1="230.56452" x2="206.10056" y2="230.56452" gradientUnits="userSpaceOnUse" id="color-4"><stop offset="0" stop-color="#003fb5"/><stop offset="1" stop-color="#00379d"/></linearGradient><linearGradient x1="240.72664" y1="250.27872" x2="201.88681" y2="250.27872" gradientUnits="userSpaceOnUse" id="color-5"><stop offset="0" stop-color="#8e4108"/><stop offset="1" stop-color="#ae4e0e"/></linearGradient><linearGradient x1="233.14818" y1="170.90762" x2="233.14818" y2="221.27832" gradientUnits="userSpaceOnUse" id="color-6"><stop offset="0" stop-color="#0052ef"/><stop offset="1" stop-color="#0046c7"/></linearGradient><linearGradient x1="230.94182" y1="168.46843" x2="230.94182" y2="195.90348" gradientUnits="userSpaceOnUse" id="color-7"><stop offset="0" stop-color="#ff556b"/><stop offset="1" stop-color="#ef0020"/></linearGradient><linearGradient x1="263.33794" y1="231.13451" x2="228.60054" y2="231.13451" gradientUnits="userSpaceOnUse" id="color-8"><stop offset="0" stop-color="#0052ef"/><stop offset="1" stop-color="#0046c7"/></linearGradient><linearGradient x1="263.22664" y1="250.52872" x2="224.38675" y2="250.52872" gradientUnits="userSpaceOnUse" id="color-9"><stop offset="0" stop-color="#8e4108"/><stop offset="1" stop-color="#ae4e0e"/></linearGradient><linearGradient x1="270.96458" y1="169.95291" x2="262.62197" y2="192.49532" gradientUnits="userSpaceOnUse" id="color-10"><stop offset="0" stop-color="#ff1938"/><stop offset="1" stop-color="#ef0020"/></linearGradient><linearGradient x1="307.81202" y1="166.87327" x2="295.48288" y2="200.18762" gradientUnits="userSpaceOnUse" id="color-11"><stop offset="0" stop-color="#f2f2f2"/><stop offset="1" stop-color="#ffffff"/></linearGradient><linearGradient x1="291.84294" y1="169.45767" x2="281.92634" y2="196.25314" gradientUnits="userSpaceOnUse" id="color-12"><stop offset="0" stop-color="#f2f2f2"/><stop offset="1" stop-color="#ffffff"/></linearGradient><linearGradient x1="264.61196" y1="157.77812" x2="248.88539" y2="157.77812" gradientUnits="userSpaceOnUse" id="color-13"><stop offset="0" stop-color="#82491d"/><stop offset="1" stop-color="#5a2c0a"/></linearGradient><linearGradient x1="238.81153" y1="121.07774" x2="238.81153" y2="173.8172" gradientUnits="userSpaceOnUse" id="color-14"><stop offset="0" stop-color="#ffead6"/><stop offset="1" stop-color="#f5b677"/></linearGradient><linearGradient x1="241.07874" y1="121.37345" x2="241.07874" y2="141.25555" gradientUnits="userSpaceOnUse" id="color-15"><stop offset="0" stop-color="#f5b477"/><stop offset="1" stop-color="#f5b477" stop-opacity="0"/></linearGradient><linearGradient x1="255.88" y1="132.57824" x2="244.13963" y2="132.57824" gradientUnits="userSpaceOnUse" id="color-16"><stop offset="0" stop-color="#5a2c0a"/><stop offset="1" stop-color="#82491d"/></linearGradient><linearGradient x1="276.86829" y1="105.44451" x2="201.01987" y2="105.44451" gradientUnits="userSpaceOnUse" id="color-17"><stop offset="0" stop-color="#ff1938"/><stop offset="1" stop-color="#ef0020"/></linearGradient><linearGradient x1="229.13047" y1="103.86232" x2="204.73047" y2="103.86232" gradientUnits="userSpaceOnUse" id="color-18"><stop offset="0" stop-color="#f2f2f2"/><stop offset="1" stop-color="#ffffff"/></linearGradient><linearGradient x1="220.41145" y1="110.20764" x2="220.41145" y2="128.22296" gradientUnits="userSpaceOnUse" id="color-19"><stop offset="0" stop-color="#bc041a"/><stop offset="1" stop-color="#880010"/></linearGradient><linearGradient x1="225.33047" y1="103.21434" x2="208.04244" y2="103.21434" gradientUnits="userSpaceOnUse" id="color-20"><stop offset="0" stop-color="#f40828"/><stop offset="1" stop-color="#f10323"/></linearGradient><radialGradient cx="205.76287" cy="142.90451" r="13.17095" gradientUnits="userSpaceOnUse" id="color-21"><stop offset="0" stop-color="#ffead6"/><stop offset="1" stop-color="#f7c594"/></radialGradient></defs><g transform="translate(-154.92578,-83.66502)"><g data-paper-data="{&quot;isPaintingLayer&quot;:true}" fill-rule="nonzero" stroke-linejoin="miter" stroke-miterlimit="10" stroke-dasharray="" stroke-dashoffset="0" style="mix-blend-mode: normal"><g data-paper-data="{&quot;index&quot;:null,&quot;origRot&quot;:0}" stroke-linecap="butt"><path d="M209.33839,189.27382c-7.82882,-0.07391 -23.03229,-2.08034 -23.03229,-2.08034l0.33362,-15.94967c0,0 9.26617,-1.36626 18.99976,-1.27437c9.73358,0.0919 19.03967,5.14042 18.98949,10.45592c-0.05019,5.3155 -5.55699,8.94035 -15.29058,8.84846z" data-paper-data="{&quot;origRot&quot;:0,&quot;origPos&quot;:null}" fill="url(#color-1)" stroke="none" stroke-width="0"/><g data-paper-data="{&quot;origPos&quot;:null}" stroke="#cdcdcd" stroke-width="1.5"><path d="M168.54346,195.91593c-11.06126,1.08159 -10.98295,-8.19875 -12.70864,-18.29774c-1.58142,-9.25471 8.97996,-18.60071 16.15962,-18.62357c9.89667,-0.03152 9.77499,11.59593 9.25622,20.97043c-0.51877,9.3745 -2.37892,14.94096 -12.7072,15.95088z" data-paper-data="{&quot;origRot&quot;:0}" fill="url(#color-2)"/><path d="M183.41977,193.39175c-6.84643,-0.15743 -4.32966,-2.14772 -3.93471,-15.64029c0.3467,-11.84405 0.07751,-13.7478 6.31617,-13.90771c5.57672,-0.14293 3.71887,8.03915 3.32787,15.27733c-0.39101,7.23818 -1.71149,14.3626 -5.70933,14.27067z" data-paper-data="{&quot;origRot&quot;:0}" fill="url(#color-3)"/></g></g><g data-paper-data="{&quot;origPos&quot;:null,&quot;index&quot;:null}" stroke-linecap="butt"><path d="M211.35424,235.52871c0.5779,-10.54663 -1.25,-25.625 -1.25,-25.625c0,0 5.18127,-2.13532 10.3876,-2.11198c5.26317,0.07923 10.59561,0.89064 10.59561,0.89064c0,0 3.64166,12.3282 4.26679,19.09634c0.5,5.41338 1.02535,8.08654 1.73457,10.13036c1.97648,5.69584 6.54744,8.33328 1.34826,11.38574c-7.63365,4.48175 -14.32337,5.04793 -22.83883,2.63017c-6.87439,-1.95182 -8.84441,-4.87407 -9.49401,-9.02126c-0.16055,-1.02501 5,-2.81256 5.25,-7.375z" data-paper-data="{&quot;origPos&quot;:null}" fill="url(#color-4)" stroke="none" stroke-width="0"/><path d="M204.18876,257.72581c0,-3.81077 6.08892,-6.9 13.6,-6.9c5.47145,0 16.89615,-0.00616 21.71938,2.57711c1.12051,0.60013 1.09141,2.56929 1.10289,3.72567c0.01446,1.45674 -5.02228,0.69722 -5.02228,0.69722c0,0 -1.49474,2.44725 -3.33527,3.52528c-5.92848,3.47238 -17.87556,3.82201 -20.33888,3.14424c-3.75881,-1.03423 -7.72585,-2.87103 -7.72585,-6.76953z" data-paper-data="{&quot;origPos&quot;:null}" fill="#5c3822" stroke="#5c3822" stroke-width="1.5"/><path d="M202.30424,252.82872c-2.25,-7.51345 4.93362,-12.925 13.425,-12.925c3.94909,0 10.40094,3.68011 14.26274,4.50579c5.96462,1.27528 5.10333,0.65772 9.66469,1.30064c1.23557,0.17415 1.17679,5.50056 0.91937,8.76498c-0.12437,1.57721 -6.27179,1.25358 -6.27179,1.25358c0,0 -9.08362,4.925 -17.575,4.925c-8.49138,0 -13.05848,-3.26176 -14.425,-7.825z" data-paper-data="{&quot;origPos&quot;:null}" fill="url(#color-5)" stroke="#5c3822" stroke-width="1.5"/></g><g data-paper-data="{&quot;origPos&quot;:null,&quot;index&quot;:null}"><path d="M227.65239,171.47832c8.21329,0 17.34377,-2.44407 23.67864,2.78352c8.50284,7.01662 9.82136,15.79236 9.82136,26.81648c0,10.16204 -12.51217,20.2 -27.7,20.2c-15.18783,0 -28.69163,-6.02647 -28.3,-27.2c0.38388,-20.75479 7.31217,-22.6 22.5,-22.6z" data-paper-data="{&quot;origPos&quot;:null}" fill="url(#color-6)" stroke="#003393" stroke-width="1.5" stroke-linecap="butt"/><path d="M211.83033,173.69047c3.79317,-3.07303 11.98706,-5.39299 19.52206,-5.21215c7.535,0.18084 13.40012,1.33023 18.61538,4.83998c7.9711,5.36438 6.98462,19.16002 6.98462,19.16002c0,0 -11.24989,3.76689 -22.4,3.4c-12.15615,-0.4 -29.4,-2.4 -29.4,-2.4c0,0 -2.28194,-12.52899 6.67794,-19.78785z" data-paper-data="{&quot;origPos&quot;:null}" fill="url(#color-7)" stroke="#ac1429" stroke-width="1.5" stroke-linecap="butt"/><path d="M217.05243,198.53128c0,0 -1.13454,-9.92574 -0.57997,-15.20846c0.43177,-4.11291 2.57206,-10.95319 2.57206,-10.95319" data-paper-data="{&quot;origPos&quot;:null,&quot;origRot&quot;:0}" fill="none" stroke="#0052ef" stroke-width="10" stroke-linecap="round"/><path d="M241.95234,199.07832c0,0 -2.4057,-9.6964 -2.53735,-15.00651c-0.1025,-4.13424 1.13735,-11.19349 1.13735,-11.19349" data-paper-data="{&quot;origPos&quot;:null}" fill="none" stroke="#0052ef" stroke-width="10" stroke-linecap="round"/><path d="M241.25234,201.27832c-2.26437,0 -4.1,-1.83564 -4.1,-4.1c0,-2.26436 1.83564,-4.1 4.1,-4.1c2.26437,0 4.1,1.83564 4.1,4.1c0,2.26437 -1.83564,4.1 -4.1,4.1z" data-paper-data="{&quot;origPos&quot;:null}" fill="#ffe84f" stroke="#baa100" stroke-width="1" stroke-linecap="butt"/><path d="M216.45234,201.27832c-2.26436,0 -4.1,-1.83564 -4.1,-4.1c0,-2.26436 1.83564,-4.1 4.1,-4.1c2.26437,0 4.1,1.83564 4.1,4.1c0,2.26437 -1.83564,4.1 -4.1,4.1z" data-paper-data="{&quot;origPos&quot;:null}" fill="#ffe84f" stroke="#baa100" stroke-width="1" stroke-linecap="butt"/></g><path d="M240.7193,197.32145c-0.69036,0 -1.25,-0.55964 -1.25,-1.25c0,-0.69036 0.55964,-1.25 1.25,-1.25c0.69036,0 1.25,0.55964 1.25,1.25c0,0.69036 -0.55964,1.25 -1.25,1.25z" data-paper-data="{&quot;index&quot;:null}" fill="#fffce5" stroke="none" stroke-width="0.5" stroke-linecap="butt"/><path d="M215.57645,197.32145c-0.69036,0 -1.25,-0.55964 -1.25,-1.25c0,-0.69036 0.55965,-1.25 1.25,-1.25c0.69036,0 1.25,0.55964 1.25,1.25c0,0.69036 -0.55964,1.25 -1.25,1.25z" data-paper-data="{&quot;index&quot;:null}" fill="#fffce5" stroke="none" stroke-width="0.5" stroke-linecap="butt"/><g data-paper-data="{&quot;origPos&quot;:null,&quot;index&quot;:null}" stroke-linecap="butt"><path d="M233.85422,235.77871c0.5779,-10.54663 -4,-22.875 -4,-22.875c0,0 6.43127,-2.63532 10.3876,-3.36198c5.01317,-0.92077 12.59561,-0.85936 12.59561,-0.85936c0,0 4.39166,12.5782 5.01679,19.34634c0.5,5.41338 1.02535,8.08654 1.73457,10.13036c1.97648,5.69584 6.54744,8.33328 1.34826,11.38574c-7.63365,4.48174 -14.32337,5.04792 -22.83883,2.63016c-6.87439,-1.95181 -8.84441,-4.87406 -9.49401,-9.02125c-0.16055,-1.02501 5,-2.81256 5.25,-7.375z" data-paper-data="{&quot;origPos&quot;:null}" fill="url(#color-8)" stroke="none" stroke-width="0"/><path d="M226.68869,257.97582c0,-3.81077 6.08892,-6.9 13.6,-6.9c5.47145,0 16.89615,-0.00617 21.71938,2.5771c1.12051,0.60013 1.09141,2.56929 1.10289,3.72567c0.01446,1.45674 -5.02228,0.69722 -5.02228,0.69722c0,0 -1.49474,2.44725 -3.33527,3.52528c-5.92848,3.47238 -17.87556,3.82201 -20.33888,3.14424c-3.7588,-1.03423 -7.72584,-2.87103 -7.72584,-6.76953z" data-paper-data="{&quot;origPos&quot;:null}" fill="#5c3822" stroke="#5c3822" stroke-width="1.5"/><path d="M224.8042,253.07872c-2.25,-7.51345 4.93362,-12.925 13.425,-12.925c3.94909,0 10.40094,3.68011 14.26274,4.50579c5.96462,1.27528 5.10333,0.65772 9.66469,1.30064c1.23557,0.17416 1.17679,5.50056 0.91937,8.76498c-0.12437,1.57722 -6.27179,1.25359 -6.27179,1.25359c0,0 -9.08362,4.925 -17.575,4.925c-8.49138,0 -13.05848,-3.26177 -14.425,-7.825z" data-paper-data="{&quot;origPos&quot;:null}" fill="url(#color-9)" stroke="#5c3822" stroke-width="1.5"/></g><g data-paper-data="{&quot;index&quot;:null}" stroke-linecap="butt"><path d="M260.77464,190.72913c-9.6867,-0.95866 -14.77033,-5.15642 -14.2468,-10.44632c0.52352,-5.2899 10.31992,-9.30504 20.00662,-8.34638c9.68669,0.95866 18.7514,3.31657 18.7514,3.31657l-1.38893,15.89258c0,0 -15.33118,0.35462 -23.1223,-0.41645z" data-paper-data="{&quot;origRot&quot;:0,&quot;origPos&quot;:null}" fill="url(#color-10)" stroke="none" stroke-width="0"/><g data-paper-data="{&quot;origPos&quot;:null}" stroke="#cdcdcd" stroke-width="1.5"><path d="M289.50337,184.48773c0.49554,-9.37575 1.6289,-20.94847 11.46441,-19.84952c7.1353,0.79726 16.62684,11.22804 14.05628,20.25813c-2.80506,9.8539 -3.72833,19.08853 -14.60837,16.82c-10.15906,-2.1182 -11.40786,-7.85286 -10.91232,-17.22861z" data-paper-data="{&quot;origRot&quot;:0,&quot;origPos&quot;:null}" fill="url(#color-11)"/><path d="M281.76197,182.79875c0.39211,-7.23812 -0.57224,-15.57288 4.95652,-14.82917c6.18499,0.83198 5.71201,2.69559 4.77899,14.50792c-1.06289,13.45643 1.22449,15.70662 -5.59898,15.12455c-3.98442,-0.33988 -4.52864,-7.56518 -4.13653,-14.8033z" data-paper-data="{&quot;origRot&quot;:0,&quot;origPos&quot;:null}" fill="url(#color-12)"/></g></g><g data-paper-data="{&quot;index&quot;:null}"><path d="M192.68047,117.70392c7.1797,0 21.25,-0.79508 21.25,2.85c0,3.64508 1.7797,10.4 -5.4,10.4c-8.91002,0 -20.23207,-4.80671 -20.8,-8.6c-0.36761,-2.45536 -2.2297,-4.65 4.95,-4.65z" data-paper-data="{&quot;origPos&quot;:null}" fill="#880010" stroke="none" stroke-width="0" stroke-linecap="butt"/><path d="M258.97076,163.2663c0,0 -0.84048,1.83538 -3.35741,1.95431c-4.64537,0.21951 -6.42716,-1.10231 -6.42716,-1.10231c-1.25013,-1.33663 1.80057,-9.69315 1.80057,-9.69315c0.55821,-2.89371 7.79114,-3.9154 7.79114,-3.9154c1.88302,-1.368 1.03727,4.70981 4.29758,6.51685c2.72578,1.51078 1.36159,4.67426 -0.52143,6.04226c-1.88302,1.36801 -3.5833,0.19744 -3.5833,0.19744z" data-paper-data="{&quot;origRot&quot;:0}" fill="url(#color-13)" stroke="#5c3822" stroke-width="1" stroke-linecap="butt"/><path d="M256.14713,124.63726c1.5,-0.35017 4.95101,-3.55952 10.75,-3.55952c5.79899,0 9.5,6.56648 9.5,14.66666c0,8.10017 -5.70101,16.66666 -16.07143,16.66666c-0.19453,0 -1.34867,0.78604 -2.322,2.25956c-3.17523,4.80699 -1.43342,9.12986 -5.42563,12.17258c-6.28722,4.79189 -10.6111,7.26106 -25.86091,6.94741c-10.78823,-0.22189 -15.52127,-1.51976 -17.21721,-2.85583c-2.98953,-2.35517 -5.98085,-4.2213 -7.31062,-7.78723c-3.44898,-9.2488 3.41816,-13.73276 4.11388,-23.57918c0.60509,-8.56371 -1.76469,-16.3009 6.80713,-16.77732c5.79379,-0.32202 38.72284,2.8533 43.0368,1.8462z" data-paper-data="{&quot;origPos&quot;:null}" fill="url(#color-14)" stroke="none" stroke-width="0" stroke-linecap="butt"/><path d="M255.85141,124.93297c1.5,-0.35017 4.95101,-3.55952 10.75,-3.55952c5.79899,0 9.5,6.56648 9.5,14.66666c0,2.2669 -0.01885,3.07351 -0.88926,5.21547c-8.25114,-0.51762 -67.13844,-1.87816 -69.15609,-2.1945c0.41865,-8.23882 -1.54446,-15.51284 6.75856,-15.97432c5.79379,-0.32202 38.72284,2.8533 43.0368,1.8462z" data-paper-data="{&quot;origPos&quot;:null}" fill="url(#color-15)" stroke="none" stroke-width="0" stroke-linecap="butt"/><path d="M207.96382,129.84366c0.35235,-4.88884 3.09405,-8.67502 6.12376,-8.45666c3.02971,0.21836 5.20014,4.35856 4.84779,9.24741c-0.35235,4.88884 -3.09404,8.67502 -6.12375,8.45666c-3.02971,-0.21835 -5.20014,-4.35856 -4.84779,-9.24741z" data-paper-data="{&quot;origPos&quot;:null,&quot;origRot&quot;:0}" fill="#ffffff" stroke="none" stroke-width="0" stroke-linecap="butt"/><path d="M253.13714,123.37498c2.75955,0.10179 2.74286,4.38172 2.74286,8.8c0,4.41828 -0.94281,10.10783 -3.65714,9.6c-3.65396,-0.68363 -3.0717,-2.25935 -3.0717,-2.25935c0,0 -1.39704,1.83633 -4.12613,0.50952c-2.34594,-1.14053 0.71211,-4.95597 0.71211,-7.56446c0,-4.41827 -4.21857,-9.51428 7.4,-9.08571z" data-paper-data="{&quot;origPos&quot;:null}" fill="url(#color-16)" stroke="#5c3822" stroke-width="1" stroke-linecap="butt"/><path d="M227.48337,126.67445c3.01688,0.35382 4.99971,4.58708 4.42877,9.45524c-0.57094,4.86816 -3.47946,8.52776 -6.49635,8.17393c-3.01688,-0.35382 -4.99971,-4.58708 -4.42877,-9.45524c0.57094,-4.86816 3.47946,-8.52776 6.49635,-8.17393z" data-paper-data="{&quot;origPos&quot;:null,&quot;origRot&quot;:0}" fill="#ffffff" stroke="none" stroke-width="0" stroke-linecap="butt"/><path d="M226.219,133.01704c0.624,1.122 1.011,2.672 1.011,4.383c0,1.711 -0.387,3.261 -1.011,4.383c-0.625,1.122 -1.487,1.817 -2.439,1.817c-0.952,0 -1.814,-0.695 -2.439,-1.817c-0.624,-1.122 -1.011,-2.672 -1.011,-4.383c0,-1.711 0.387,-3.261 1.011,-4.383c0.625,-1.122 1.487,-1.817 2.439,-1.817c0.952,0 1.814,0.695 2.439,1.817z" data-paper-data="{&quot;origPos&quot;:null}" fill="#000000" stroke="#00aaff" stroke-width="1.5" stroke-linecap="butt"/><path d="M213.21907,128.46704c0.624,1.122 1.024,2.882 1.011,4.383c-0.01,1.162 0.066,2.72 -0.9,3.3c-1.102,0.637 -2.594,-0.14 -3.85,-0.4c-0.719,-0.247 -1.517,-0.523 -2,-1.1c-0.383,-0.477 -0.233,-1.261 -0.15,-1.8c0.236,-1.479 0.387,-3.261 1.011,-4.383c0.625,-1.122 1.487,-1.817 2.439,-1.817c0.952,0 1.814,0.695 2.439,1.817z" data-paper-data="{&quot;origPos&quot;:null}" fill="#000000" stroke="#00aaff" stroke-width="1.5" stroke-linecap="round"/><path d="M229.58193,84.74325c11.80388,2.2508 23.00151,20.46979 23.00151,20.46979c2.78035,-4.27042 10.82961,-5.60456 10.82961,-5.60456c7.31398,0 14.07646,0.05326 13.4098,13.78676c-0.30224,6.22617 -4.42915,11.45342 -11.74313,11.45342c-3.57601,0 -11.93947,3.4536 -15.22084,2.03217c-12.49697,-5.41348 -27.80095,-4.00221 -39.50062,-10.97342c-8.02952,-4.78436 -10.91816,-5.63423 -8.52168,-20.57884c1.72099,-10.7322 12.55045,-13.48273 27.74535,-10.58532z" data-paper-data="{&quot;origPos&quot;:null}" fill="url(#color-17)" stroke="none" stroke-width="0" stroke-linecap="butt"/><path d="M216.93047,93.95392c6.73788,0 12.2,4.43238 12.2,9.9c0,5.46762 -0.86536,10.23659 -12.2,9.9c-10.73683,-0.31884 -12.2,-4.43238 -12.2,-9.9c0,-5.46762 5.46213,-9.9 12.2,-9.9z" data-paper-data="{&quot;origPos&quot;:null}" fill="url(#color-18)" stroke="none" stroke-width="0" stroke-linecap="butt"/><path d="M202.52838,110.21552c15.80701,-0.24165 36.94496,5.1384 43.10212,7.1384c5.0951,1.65502 7.16067,6.7265 7.9,9.9c0.2,0.85848 -10.57468,1.28322 -15.9,0.7c-10.95716,-1.2 -50.1,-6.84152 -50.3,-7.7c-0.73933,-3.1735 8.73606,-9.93961 15.19788,-10.0384z" data-paper-data="{&quot;origPos&quot;:null}" fill="url(#color-19)" stroke="none" stroke-width="0" stroke-linecap="butt"/><path d="M221.03554,109.57614l-1.52983,-7.56411l-3.5719,4.6906l-2.71476,-4.66865l-1.51788,7.64078l-3.65873,-2.20988l5.33279,-10.08214l2.72355,5.30956l4.40385,-5.93838l4.82784,12.82222z" data-paper-data="{&quot;origPos&quot;:null}" fill="url(#color-20)" stroke="none" stroke-width="0" stroke-linecap="butt"/><path d="M202.82457,163.48899c-0.1074,-0.7375 -0.32986,2.94 -5.23239,0.24762c-2.0734,-1.13867 -1.92128,-5.42204 -1.92128,-5.42204c-0.46744,-1.56826 -0.45775,-4.67331 1.02397,-4.7714c2.98762,-0.19778 12.62642,4.31325 12.62642,4.31325c5.97138,0.3401 18.75328,-3.86744 18.75328,-3.86744c2.45252,-1.54382 6.39808,-5.58155 10.27828,-5.49605c0.854,0.16335 1.34672,3.31838 1.34672,8.99605c0,5.17767 -3.6283,8.875 -8.875,8.875c-3.26976,0 -5.98286,-1.80725 -6.23949,-1.56689c-0.24289,0.22749 -0.28757,1.85489 -2.80313,2.61298c-4.377,1.31905 -10.80355,1.49336 -15.21565,0.29692c-1.44563,-0.39201 -3.37062,-1.66964 -3.74172,-4.218z" data-paper-data="{&quot;origPos&quot;:null}" fill="#291e16" stroke="#321f12" stroke-width="0" stroke-linecap="butt"/><path d="M210.19965,134.86399c6.6074,0.51474 13,7.75698 13,13.625c0,5.86802 -6.12358,9.61691 -12.75,9.73214c-14.37741,0.25 -12.60715,-4.11412 -13.10715,-10.73214c-0.79991,-10.58785 3.22974,-13.375 12.85715,-12.625z" data-paper-data="{&quot;origPos&quot;:null}" fill="url(#color-21)" stroke="#c79260" stroke-width="1.5" stroke-linecap="butt"/><g data-paper-data="{&quot;origPos&quot;:null}" fill="none" stroke="#c79260" stroke-width="3.5" stroke-linecap="round"><path d="M261.02311,144.00356c0,0 -3.19287,-7.17065 2.24501,-11.37195c3.79167,-2.92944 6.75499,-1.19948 6.75499,-1.19948" data-paper-data="{&quot;origPos&quot;:null}"/><path d="M267.30882,138.14647h-6" data-paper-data="{&quot;origPos&quot;:null}"/><path d="M263.16597,144.14647h-1.28571" data-paper-data="{&quot;origPos&quot;:null}"/></g><path d="M230.61731,124.20134c-1.44444,-0.47017 -4.92174,1.55303 -4.92174,1.55303c0,0 -2.83711,-8.97182 6.69401,-8.65093c2.81771,0.63904 3.81107,3.82534 3.81107,5.65344c0,2.69239 -1.45833,6.31945 -1.45833,6.31945c0,0 -1.45763,-1.68845 -2.14657,-2.99951c-0.66782,-1.27085 -0.60268,-1.46522 -1.97844,-1.87549z" data-paper-data="{&quot;origPos&quot;:null}" fill="#291e16" stroke="none" stroke-width="0" stroke-linecap="butt"/><path d="M213.35655,121.39526c-1.43061,-0.11988 -1.44087,0.08486 -2.52627,1.02451c-1.11974,0.96938 -3.09287,2.00973 -3.09287,2.00973c0,0 -0.03467,-3.90911 0.94752,-6.41595c0.66689,-1.70211 2.75417,-4.30645 5.61082,-3.87354c8.99135,3.1782 3.07681,10.49674 3.07681,10.49674c0,0 -2.4996,-3.1523 -4.01601,-3.24146z" data-paper-data="{&quot;origPos&quot;:null,&quot;index&quot;:null,&quot;origRot&quot;:0}" fill="#291e16" stroke="none" stroke-width="0" stroke-linecap="butt"/><path d="M222.84106,131.66046c0.36876,0.04718 0.66171,0.40994 0.83769,0.95758c0.1756,0.54759 0.23418,1.28052 0.13336,2.0684c-0.10081,0.78789 -0.34205,1.48245 -0.64987,1.96819c-0.30821,0.48568 -0.68306,0.763 -1.05181,0.71581c-0.36875,-0.04718 -0.6617,-0.40994 -0.83768,-0.95758c-0.17559,-0.54759 -0.23417,-1.28052 -0.13335,-2.0684c0.10082,-0.78789 0.34205,-1.48245 0.64987,-1.96819c0.30821,-0.48568 0.68306,-0.763 1.05181,-0.71581z" data-paper-data="{&quot;origPos&quot;:null,&quot;origRot&quot;:0}" fill="#ffffff" stroke="#00aaff" stroke-width="0" stroke-linecap="butt"/><path d="M209.73807,127.38129c0.36876,0.04719 0.6617,0.40995 0.83769,0.95759c0.17559,0.54759 0.23417,1.28052 0.13335,2.0684c-0.10081,0.78789 -0.34204,1.48245 -0.64986,1.96819c-0.3082,0.48569 -0.68305,0.763 -1.05181,0.71581c-0.36875,-0.04718 -0.66169,-0.40994 -0.83768,-0.95758c-0.17559,-0.54759 -0.23417,-1.28052 -0.13335,-2.0684c0.10081,-0.78789 0.34204,-1.48245 0.64986,-1.96819c0.3082,-0.48569 0.68305,-0.76299 1.05181,-0.71581z" data-paper-data="{&quot;origPos&quot;:null,&quot;origRot&quot;:0}" fill="#ffffff" stroke="#00aaff" stroke-width="0" stroke-linecap="butt"/></g></g></g></svg>