<svg version="1.1" xmlns="http://www.w3.org/2000/svg" xmlns:xlink="http://www.w3.org/1999/xlink" width="37.21609" height="40.96421" viewBox="0,0,37.21609,40.96421"><defs><linearGradient x1="238.33338" y1="162.0179" x2="238.33338" y2="194.6489" gradientUnits="userSpaceOnUse" id="color-1"><stop offset="0" stop-color="#faeb46"/><stop offset="1" stop-color="#e8c025"/></linearGradient><linearGradient x1="238.33338" y1="162.01793" x2="238.33338" y2="194.64891" gradientUnits="userSpaceOnUse" id="color-2"><stop offset="0" stop-color="#faeb46"/><stop offset="1" stop-color="#e8c025"/></linearGradient></defs><g transform="translate(-221.39195,-159.5179)"><g data-paper-data="{&quot;isPaintingLayer&quot;:true}" fill-rule="nonzero" stroke-linecap="butt" stroke-linejoin="miter" stroke-miterlimit="10" stroke-dasharray="" stroke-dashoffset="0" style="mix-blend-mode: normal"><g><path d="M239.68231,165.35115h0.22048c5.45687,3.32558 8.3966,5.16291 8.81919,5.51199l-10.47279,13.33903v0.33073l4.96079,-0.44097c0.0735,-3.03159 0.11024,-4.90567 0.11024,-5.62223c0.0735,0 0.11024,-0.03674 0.11024,-0.11022c2.33341,-0.07348 4.0605,-0.11022 5.18126,-0.11022h1.21266c0.36747,0 0.91866,-0.03674 1.65359,-0.11022l0.11024,0.22048c-0.14698,2.609 -0.22048,4.11561 -0.22048,4.51982c-0.0735,0 -0.11024,0.03674 -0.11024,0.11022l0.22049,0.11022h4.40959c0.14698,0.01837 0.22048,0.09186 0.22048,0.22048l-0.55119,7.71679l-0.22049,0.11022h-4.51983c-0.0735,0.80844 -0.18375,3.04996 -0.33073,6.72462c-0.14698,0.07348 -0.25723,0.11022 -0.33073,0.11022c-5.47524,-0.14698 -8.41498,-0.22047 -8.81919,-0.22047l-0.11024,-0.22048v-5.40176l-10.91376,0.55123c-2.05781,-5.23638 -3.08671,-7.91889 -3.08671,-8.04752z" data-paper-data="{&quot;origPos&quot;:null}" fill="#bdbdbd" stroke="#bfbfbf" stroke-width="5"/><g data-paper-data="{&quot;origPos&quot;:null}" stroke="#000000"><path d="M236.34906,162.0179h0.22049c5.45687,3.32558 8.3966,5.16292 8.81918,5.51201l-10.47278,13.33903v0.33073l4.96079,-0.44097c0.0735,-3.03159 0.11024,-4.90566 0.11024,-5.62223c0.0735,0 0.11023,-0.03675 0.11023,-0.11022c2.33341,-0.07347 4.06051,-0.11022 5.18128,-0.11022h1.21264c0.36747,0 0.91866,-0.03674 1.65359,-0.11022l0.11024,0.22048c-0.14698,2.609 -0.22047,4.11562 -0.22047,4.51982c-0.0735,0 -0.11024,0.03674 -0.11024,0.11022l0.22048,0.11022h4.4096c0.14698,0.01837 0.22048,0.09186 0.22048,0.22049l-0.55119,7.71678l-0.22048,0.11023h-4.51984c-0.0735,0.80844 -0.18374,3.04997 -0.33073,6.72463c-0.14698,0.07348 -0.25724,0.11022 -0.33073,0.11022c-5.47524,-0.14698 -8.41498,-0.22047 -8.81918,-0.22047l-0.11024,-0.22049v-5.40176l-10.91375,0.55123c-2.05781,-5.23638 -3.08671,-7.91889 -3.08671,-8.04752z" data-paper-data="{&quot;origPos&quot;:null}" fill="url(#color-1)" stroke-width="5"/><path d="M236.34906,162.01793h0.22049c5.45687,3.32558 8.3966,5.16292 8.81918,5.512l-10.47278,13.33903v0.33073l4.96079,-0.44097c0.0735,-3.03159 0.11024,-4.90567 0.11024,-5.62223c0.0735,0 0.11023,-0.03675 0.11023,-0.11022c2.33341,-0.07347 4.06051,-0.11022 5.18128,-0.11022h1.21264c0.36747,0 0.91866,-0.03674 1.65359,-0.11022l0.11024,0.22049c-0.14698,2.609 -0.22047,4.11562 -0.22047,4.51982c-0.0735,0 -0.11024,0.03674 -0.11024,0.11022l0.22048,0.11022h4.4096c0.14698,0.01837 0.22048,0.09186 0.22048,0.22048l-0.55119,7.7168l-0.22048,0.11021h-4.51984c-0.0735,0.80844 -0.18374,3.04997 -0.33073,6.72463c-0.14698,0.07348 -0.25724,0.11022 -0.33073,0.11022c-5.47524,-0.14698 -8.41498,-0.22047 -8.81918,-0.22047l-0.11024,-0.22048v-5.40176l-10.91375,0.55123c-2.05781,-5.23638 -3.08671,-7.9189 -3.08671,-8.04752z" data-paper-data="{&quot;origPos&quot;:null}" fill="url(#color-2)" stroke-width="0"/></g></g></g></g></svg>