<svg xmlns="http://www.w3.org/2000/svg" xmlns:xlink="http://www.w3.org/1999/xlink" version="1.1" width="12.553999900817871" height="14.053000450134277" viewBox="-0.242000013589859 0.00700002908706665 12.553999900817871 14.053000450134277">
  <!-- Exported by Scratch - http://scratch.mit.edu/ -->
  <path id="path1231" fill="#000000" stroke="none" stroke-width="0.26458332" d="M 5.241 0.507 C 5.271 0.507 5.3 0.507 5.33 0.507 C 7.512 1.837 8.688 2.572 8.857 2.712 C 4.668 8.048 8.857 2.712 4.668 8.048 C 4.668 8.092 4.668 8.136 4.668 8.18 C 4.668 8.18 6.653 8.004 6.653 8.004 C 6.682 6.791 6.697 6.041 6.697 5.755 C 6.726 5.755 6.741 5.74 6.741 5.71 C 7.674 5.681 8.365 5.666 8.813 5.666 C 8.975 5.666 9.137 5.666 9.298 5.666 C 9.445 5.666 9.666 5.652 9.96 5.622 C 9.975 5.652 9.989 5.681 10.004 5.71 C 9.945 6.754 9.916 7.357 9.916 7.518 C 9.886 7.518 9.872 7.533 9.872 7.563 C 9.872 7.563 9.96 7.607 9.96 7.607 C 9.799 7.607 11.884 7.607 11.724 7.607 C 11.783 7.614 11.812 7.643 11.812 7.695 C 11.738 8.724 11.665 9.753 11.591 10.782 C 11.562 10.796 11.533 10.811 11.503 10.826 C 10.901 10.826 10.298 10.826 9.695 10.826 C 9.666 11.149 9.622 12.046 9.563 13.516 C 9.504 13.545 9.46 13.56 9.431 13.56 C 7.24 13.501 6.065 13.472 5.903 13.472 C 5.888 13.442 5.873 13.413 5.859 13.383 C 5.859 12.663 5.859 11.943 5.859 11.223 C 4.404 11.296 2.948 11.37 1.493 11.443 C 0.67 9.349 0.258 8.275 0.258 8.224 C 1.919 5.652 3.58 3.079 5.241 0.507 Z "/>
</svg>