<svg version="1.1" xmlns="http://www.w3.org/2000/svg" xmlns:xlink="http://www.w3.org/1999/xlink" width="104.90498" height="176.70181" viewBox="0,0,104.90498,176.70181"><defs><linearGradient x1="235.55259" y1="238.86755" x2="269.87759" y2="233.53085" gradientUnits="userSpaceOnUse" id="color-1"><stop offset="0" stop-color="#003fb5"/><stop offset="1" stop-color="#00379d"/></linearGradient><linearGradient x1="238.69125" y1="258.33061" x2="277.07" y2="252.36365" gradientUnits="userSpaceOnUse" id="color-2"><stop offset="0" stop-color="#8e4108"/><stop offset="1" stop-color="#ae4e0e"/></linearGradient><linearGradient x1="250.77645" y1="192.21189" x2="269.91108" y2="190.39266" gradientUnits="userSpaceOnUse" id="color-3"><stop offset="0" stop-color="#e8001f"/><stop offset="1" stop-color="#df001e"/></linearGradient><linearGradient x1="246.60746" y1="229.85448" x2="283.56584" y2="226.34067" gradientUnits="userSpaceOnUse" id="color-4"><stop offset="0" stop-color="#cecece"/><stop offset="1" stop-color="#f2f2f2"/></linearGradient><linearGradient x1="248.09997" y1="213.87096" x2="277.56906" y2="211.06919" gradientUnits="userSpaceOnUse" id="color-5"><stop offset="0" stop-color="#cecece"/><stop offset="1" stop-color="#f2f2f2"/></linearGradient><linearGradient x1="241.29301" y1="178.06072" x2="241.29301" y2="228.43142" gradientUnits="userSpaceOnUse" id="color-6"><stop offset="0" stop-color="#0052ef"/><stop offset="1" stop-color="#0046c7"/></linearGradient><linearGradient x1="243.49937" y1="175.62153" x2="243.49937" y2="203.05658" gradientUnits="userSpaceOnUse" id="color-7"><stop offset="0" stop-color="#ff556b"/><stop offset="1" stop-color="#ef0020"/></linearGradient><linearGradient x1="209.53738" y1="236.86645" x2="244.27469" y2="236.94477" gradientUnits="userSpaceOnUse" id="color-8"><stop offset="0" stop-color="#0052ef"/><stop offset="1" stop-color="#0046c7"/></linearGradient><linearGradient x1="209.60495" y1="256.26086" x2="248.44474" y2="256.34843" gradientUnits="userSpaceOnUse" id="color-9"><stop offset="0" stop-color="#8e4108"/><stop offset="1" stop-color="#ae4e0e"/></linearGradient><linearGradient x1="213.08782" y1="153.76026" x2="228.08211" y2="158.50329" gradientUnits="userSpaceOnUse" id="color-10"><stop offset="0" stop-color="#82491d"/><stop offset="1" stop-color="#5a2c0a"/></linearGradient><linearGradient x1="248.75547" y1="126.55001" x2="232.84962" y2="176.83375" gradientUnits="userSpaceOnUse" id="color-11"><stop offset="0" stop-color="#ffead6"/><stop offset="1" stop-color="#f5b677"/></linearGradient><linearGradient x1="246.50464" y1="126.14817" x2="240.50835" y2="145.10449" gradientUnits="userSpaceOnUse" id="color-12"><stop offset="0" stop-color="#f5b477"/><stop offset="1" stop-color="#f5b477" stop-opacity="0"/></linearGradient><linearGradient x1="229.01329" y1="132.36728" x2="240.20699" y2="135.90809" gradientUnits="userSpaceOnUse" id="color-13"><stop offset="0" stop-color="#5a2c0a"/><stop offset="1" stop-color="#82491d"/></linearGradient><linearGradient x1="217.18563" y1="100.16706" x2="289.5023" y2="123.04241" gradientUnits="userSpaceOnUse" id="color-14"><stop offset="0" stop-color="#ff1938"/><stop offset="1" stop-color="#ef0020"/></linearGradient><linearGradient x1="263.1778" y1="113.05593" x2="286.44166" y2="120.4148" gradientUnits="userSpaceOnUse" id="color-15"><stop offset="0" stop-color="#f2f2f2"/><stop offset="1" stop-color="#ffffff"/></linearGradient><linearGradient x1="269.57713" y1="121.73539" x2="264.14384" y2="138.91185" gradientUnits="userSpaceOnUse" id="color-16"><stop offset="0" stop-color="#bc041a"/><stop offset="1" stop-color="#880010"/></linearGradient><linearGradient x1="266.99628" y1="113.58418" x2="283.47933" y2="118.79812" gradientUnits="userSpaceOnUse" id="color-17"><stop offset="0" stop-color="#f40828"/><stop offset="1" stop-color="#f10323"/></linearGradient><radialGradient cx="273.68249" cy="157.3277" r="13.17095" gradientUnits="userSpaceOnUse" id="color-18"><stop offset="0" stop-color="#ffead6"/><stop offset="1" stop-color="#f7c594"/></radialGradient><linearGradient x1="208.5792" y1="193.57494" x2="232.58971" y2="192.45517" gradientUnits="userSpaceOnUse" id="color-19"><stop offset="0" stop-color="#ff1938"/><stop offset="1" stop-color="#ef0020"/></linearGradient><linearGradient x1="194.47912" y1="227.7569" x2="229.96313" y2="226.10204" gradientUnits="userSpaceOnUse" id="color-20"><stop offset="0" stop-color="#f2f2f2"/><stop offset="1" stop-color="#ffffff"/></linearGradient><linearGradient x1="201.78084" y1="213.32167" x2="230.32142" y2="211.99064" gradientUnits="userSpaceOnUse" id="color-21"><stop offset="0" stop-color="#f2f2f2"/><stop offset="1" stop-color="#ffffff"/></linearGradient></defs><g transform="translate(-193.49515,-94.59059)"><g data-paper-data="{&quot;isPaintingLayer&quot;:true}" fill-rule="nonzero" stroke-linejoin="miter" stroke-miterlimit="10" stroke-dasharray="" stroke-dashoffset="0" style="mix-blend-mode: normal"><g data-paper-data="{&quot;origRot&quot;:0}" stroke-linecap="butt"><path d="M265.44892,239.24324c0.94796,4.46987 6.32186,5.44338 6.32069,6.48089c-0.00476,4.19775 -1.50245,7.38797 -7.99537,10.37273c-8.04293,3.69729 -14.74021,4.16557 -22.97177,0.90978c-5.60641,-2.21748 -1.4949,-5.52584 -0.41693,-11.4577c0.38681,-2.12852 0.49524,-4.85065 0.15765,-10.27658c-0.42208,-6.78384 1.28237,-19.52515 1.28237,-19.52515c0,0 5.14448,-1.621 10.333,-2.50787c5.14094,-0.82291 10.58874,0.49106 10.58874,0.49106c0,0 0.51029,15.18019 2.7016,25.51283z" data-paper-data="{&quot;origPos&quot;:null}" fill="url(#color-1)" stroke="none" stroke-width="0"/><path d="M275.93948,260.07597c0.59893,3.85222 -3.03883,6.27667 -6.59413,7.87609c-2.32995,1.04816 -14.18891,2.53811 -20.58048,0.01775c-1.9843,-0.78247 -3.83727,-2.97103 -3.83727,-2.97103c0,0 -4.86026,1.5243 -5.06977,0.08263c-0.16631,-1.14442 -0.49759,-3.08573 0.51743,-3.85088c4.3691,-3.29359 15.65912,-5.04268 21.06561,-5.88326c7.42191,-1.15392 13.91315,0.96319 14.49859,4.72872z" data-paper-data="{&quot;origPos&quot;:null}" fill="#5c3822" stroke="#5c3822" stroke-width="1.5"/><path d="M277.04927,254.9475c-0.64925,4.719 -4.66103,8.64369 -13.0516,9.94822c-8.39058,1.30453 -18.12298,-2.16649 -18.12298,-2.16649c0,0 -6.02472,1.26422 -6.38992,-0.27517c-0.75587,-3.18611 -1.63225,-8.44026 -0.43811,-8.80217c4.40843,-1.33605 3.65225,-0.5935 9.35014,-2.76999c3.68911,-1.40917 9.49899,-6.03678 13.4012,-6.64348c8.39058,-1.30453 16.32029,2.93916 15.25129,10.70908z" data-paper-data="{&quot;origPos&quot;:null}" fill="url(#color-2)" stroke="#5c3822" stroke-width="1.5"/></g><g data-paper-data="{&quot;index&quot;:null,&quot;origRot&quot;:0}" stroke-linecap="butt"><path d="M258.13448,177.33033c5.29831,-0.42996 21.33238,2.49151 22.11971,12.19364c0.78733,9.70212 -10.24652,20.04225 -10.24652,20.04225l-15.88503,1.4727c0,0 4.24543,-8.35453 3.61219,-16.15804c-0.78733,-9.70212 -9.06071,-3.63784 -8.93366,-9.21722c0.12705,-5.57938 9.33332,-8.33333 9.33332,-8.33333z" data-paper-data="{&quot;origRot&quot;:0,&quot;origPos&quot;:null}" fill="url(#color-3)" stroke="none" stroke-width="0"/><g data-paper-data="{&quot;origPos&quot;:null}" stroke="#cdcdcd" stroke-width="1.5"><path d="M261.69389,215.5648c9.31345,-1.18744 20.90246,-2.13984 21.57835,7.73378c0.49033,7.16294 -8.07694,18.36527 -17.42101,17.44934c-10.19651,-0.99949 -19.44751,-0.25811 -19.15925,-11.36839c0.26917,-10.37405 5.68845,-12.62727 15.0019,-13.81473z" data-paper-data="{&quot;origRot&quot;:0}" fill="url(#color-4)"/><path d="M261.97263,207.6462c7.19173,-0.90731 15.2201,-3.3452 15.4761,2.22748c0.28638,6.23413 -1.63174,6.1017 -13.42073,7.29401c-13.42984,1.35827 -15.23517,4.01085 -15.88151,-2.80683c-0.37742,-3.98105 6.6344,-5.80734 13.82613,-6.71466z" data-paper-data="{&quot;origRot&quot;:0}" fill="url(#color-5)"/></g></g><g data-paper-data="{&quot;origPos&quot;:null}"><path d="M269.28881,201.23142c0.39163,21.17353 -13.11217,27.2 -28.3,27.2c-15.18783,0 -27.7,-10.03796 -27.7,-20.2c0,-11.02412 1.31852,-19.79986 9.82136,-26.81648c6.33487,-5.22759 15.46535,-2.78352 23.67864,-2.78352c15.18783,0 22.11612,1.84521 22.5,22.6z" data-paper-data="{&quot;origPos&quot;:null}" fill="url(#color-6)" stroke="#003393" stroke-width="1.5" stroke-linecap="butt"/><path d="M269.28881,200.63142c0,0 -17.24385,2 -29.4,2.4c-11.15011,0.36689 -22.4,-3.4 -22.4,-3.4c0,0 -0.98648,-13.79564 6.98462,-19.16002c5.21526,-3.50975 11.08038,-4.65914 18.61538,-4.83998c7.535,-0.18084 15.72889,2.13912 19.52206,5.21215c8.95988,7.25886 6.67794,19.78785 6.67794,19.78785z" data-paper-data="{&quot;origPos&quot;:null}" fill="url(#color-7)" stroke="#ac1429" stroke-width="1.5" stroke-linecap="butt"/><path d="M255.39667,179.52273c0,0 2.14029,6.84028 2.57206,10.95319c0.55457,5.28272 -0.57997,15.20846 -0.57997,15.20846" data-paper-data="{&quot;origPos&quot;:null,&quot;origRot&quot;:0}" fill="none" stroke="#0052ef" stroke-width="10" stroke-linecap="round"/><path d="M233.88885,180.03142c0,0 1.23985,7.05925 1.13735,11.19349c-0.13165,5.31011 -2.53735,15.00651 -2.53735,15.00651" data-paper-data="{&quot;origPos&quot;:null}" fill="none" stroke="#0052ef" stroke-width="10" stroke-linecap="round"/><path d="M229.08885,204.33142c0,-2.26436 1.83563,-4.1 4.1,-4.1c2.26436,0 4.1,1.83564 4.1,4.1c0,2.26436 -1.83563,4.1 -4.1,4.1c-2.26436,0 -4.1,-1.83563 -4.1,-4.1z" data-paper-data="{&quot;origPos&quot;:null}" fill="#ffe84f" stroke="#baa100" stroke-width="1" stroke-linecap="butt"/><path d="M253.88885,204.33142c0,-2.26436 1.83563,-4.1 4.1,-4.1c2.26436,0 4.1,1.83564 4.1,4.1c0,2.26436 -1.83564,4.1 -4.1,4.1c-2.26436,0 -4.1,-1.83563 -4.1,-4.1z" data-paper-data="{&quot;origPos&quot;:null}" fill="#ffe84f" stroke="#baa100" stroke-width="1" stroke-linecap="butt"/></g><g data-paper-data="{&quot;origRot&quot;:0}" stroke-linecap="butt"><path d="M239.01057,241.57713c0.23971,4.56299 5.39622,6.36217 5.23337,7.38682c-0.65895,4.14572 -2.63555,7.06352 -9.51432,8.99982c-8.52089,2.39856 -15.20931,1.8173 -22.83284,-2.68165c-5.19229,-3.06418 -0.61539,-5.6913 1.37393,-11.38267c0.71383,-2.04222 1.2452,-4.71419 1.7574,-10.12642c0.64039,-6.76671 5.0604,-19.33499 5.0604,-19.33499c0,0 7.58256,-0.04431 12.59365,0.88776c3.95468,0.73558 10.38,3.38539 10.38,3.38539c0,0 -4.60568,12.31801 -4.05157,22.86593z" data-paper-data="{&quot;origPos&quot;:null}" fill="url(#color-8)" stroke="none" stroke-width="0"/><path d="M246.12602,263.79031c-0.00879,3.89849 -3.97996,5.72634 -7.74109,6.75209c-2.46484,0.67221 -14.4111,0.29565 -20.33174,-3.19009c-1.8381,-1.08218 -3.32731,-3.53279 -3.32731,-3.53279c0,0 -5.03844,0.74817 -5.0207,-0.70854c0.01408,-1.15636 -0.01057,-3.12558 1.11129,-3.72317c4.82904,-2.57239 16.2537,-2.54046 21.72513,-2.52812c7.51106,0.01694 13.59301,3.11989 13.58441,6.93064z" data-paper-data="{&quot;origPos&quot;:null}" fill="#5c3822" stroke="#5c3822" stroke-width="1.5"/><path d="M248.02153,258.89748c-1.3768,4.56013 -5.95124,7.8116 -14.44261,7.79245c-8.49136,-0.01915 -17.56385,-4.96461 -17.56385,-4.96461c0,0 -6.14814,0.30977 -6.26895,-1.26773c-0.25006,-3.265 -0.29683,-8.59151 0.93913,-8.76288c4.5628,-0.63263 3.70011,-0.01702 9.6676,-1.27885c3.86365,-0.81697 10.32378,-4.48252 14.27286,-4.47362c8.49136,0.01915 15.66276,5.44688 13.39582,12.95524z" data-paper-data="{&quot;origPos&quot;:null}" fill="url(#color-9)" stroke="#5c3822" stroke-width="1.5"/></g><g><path d="M297.07315,143.17245c-1.68551,3.44538 -13.93004,4.61362 -22.42518,1.92642c-6.84539,-2.16535 -3.11132,-8.06899 -2.01199,-11.54434c1.09933,-3.47535 14.27468,1.52621 21.12007,3.69155c6.84539,2.16535 4.40812,3.6962 3.31711,5.92637z" data-paper-data="{&quot;origPos&quot;:null}" fill="#880010" stroke="none" stroke-width="0" stroke-linecap="butt"/><path d="M216.81116,160.69425c0,0 -1.97415,0.60327 -3.3569,-1.26894c-1.38276,-1.87221 -1.72935,-5.29982 1.32515,-5.91817c3.65349,-0.73961 4.68015,-6.78949 6.06291,-4.91728c0,0 6.58801,3.15552 6.2475,6.08284c0,0 0.38838,8.88748 -1.20666,9.78484c0,0 -2.09748,0.7229 -6.46034,-0.8874c-2.36387,-0.87248 -2.61167,-2.87588 -2.61167,-2.87588z" data-paper-data="{&quot;origRot&quot;:0}" fill="url(#color-10)" stroke="#5c3822" stroke-width="1" stroke-linecap="butt"/><path d="M231.15354,124.71548c3.80935,2.26127 36.16278,9.16497 41.58967,11.21936c8.029,3.03944 3.43609,9.70165 1.43025,18.0491c-2.30629,9.59776 2.88877,15.94402 -3.18899,23.72197c-2.34331,2.99884 -5.75816,3.87592 -9.31879,5.2198c-2.01992,0.76237 -6.924,0.57236 -17.27682,-2.46974c-14.63432,-4.30019 -18.01219,-7.95844 -22.56145,-14.42338c-2.88866,-4.10506 0.0758,-7.70133 -1.50183,-13.24212c-0.48361,-1.69846 -1.34694,-2.79598 -1.53241,-2.85465c-9.88754,-3.12765 -12.7395,-13.01464 -10.29655,-20.73764c2.44296,-7.72301 7.95204,-12.86753 13.48101,-11.1186c5.52897,1.74893 7.85137,5.84965 9.17592,6.6359z" data-paper-data="{&quot;origPos&quot;:null}" fill="url(#color-11)" stroke="none" stroke-width="0" stroke-linecap="butt"/><path d="M231.3463,125.08661c3.80935,2.26127 36.16278,9.16497 41.58967,11.21936c7.77723,2.94412 3.71173,9.28738 1.62612,17.26884c-2.01911,-0.3069 -58.57476,-16.7697 -66.59781,-18.76467c-0.18388,-2.30473 0.04141,-3.07947 0.7251,-5.24082c2.44296,-7.72301 7.95204,-12.86753 13.48101,-11.1186c5.52897,1.74893 7.85137,5.84965 9.17592,6.6359z" data-paper-data="{&quot;origPos&quot;:null}" fill="url(#color-12)" stroke="none" stroke-width="0" stroke-linecap="butt"/><path d="M275.52308,144.2112c-1.1385,4.76748 -4.45652,8.06032 -7.41101,7.35476c-2.95449,-0.70555 -4.42664,-5.1423 -3.28814,-9.90977c1.1385,-4.76748 4.45652,-8.06031 7.41101,-7.35476c2.95449,0.70555 4.42665,5.14231 3.28815,9.90977z" data-paper-data="{&quot;origPos&quot;:null,&quot;origRot&quot;:0}" fill="#ffffff" stroke="none" stroke-width="0" stroke-linecap="butt"/><path d="M238.71932,135.3142c-0.7867,2.48703 0.97825,7.0471 -1.60244,7.427c-3.00217,0.44196 -3.78034,-1.73021 -3.78034,-1.73021c0,0 0.07992,1.67795 -3.61008,1.22774c-2.7411,-0.33444 -1.92408,-6.04341 -0.59156,-10.25596c1.33252,-4.21255 2.60741,-8.29823 5.26916,-7.56302c11.20683,3.09546 5.64777,6.6819 4.31525,10.89444z" data-paper-data="{&quot;origPos&quot;:null}" fill="url(#color-13)" stroke="#5c3822" stroke-width="1" stroke-linecap="butt"/><path d="M261.59689,145.05519c-0.92385,4.81367 -4.09107,8.25181 -7.07419,7.67929c-2.98313,-0.57252 -4.65251,-4.9389 -3.72866,-9.75258c0.92385,-4.81367 4.09107,-8.25181 7.07419,-7.67929c2.98313,0.57252 4.65251,4.9389 3.72866,9.75258z" data-paper-data="{&quot;origPos&quot;:null,&quot;origRot&quot;:0}" fill="#ffffff" stroke="none" stroke-width="0" stroke-linecap="butt"/><path d="M260.03427,140.73437c0.90767,0.28712 1.51993,1.20973 1.77744,2.46798c0.25656,1.25795 0.15807,2.85249 -0.35796,4.48382c-0.51603,1.63133 -1.35247,2.99244 -2.28581,3.874c-0.93429,0.88126 -1.96575,1.28393 -2.87343,0.99681c-0.90767,-0.28712 -1.51993,-1.20973 -1.77744,-2.46798c-0.25656,-1.25795 -0.15807,-2.85249 0.35796,-4.48382c0.51603,-1.63133 1.35247,-2.99244 2.28581,-3.874c0.93429,-0.88126 1.96575,-1.28393 2.87343,-0.99681z" data-paper-data="{&quot;origPos&quot;:null}" fill="#000000" stroke="#00aaff" stroke-width="1.5" stroke-linecap="butt"/><path d="M273.80114,140.31694c0.90767,0.28712 1.51993,1.20973 1.77744,2.46798c0.25656,1.25795 -0.13691,3.00251 -0.35796,4.48382c-0.08342,0.53893 -0.17686,1.33167 -0.68588,1.67095c-0.63453,0.40446 -1.47861,0.42694 -2.23863,0.44559c-1.27593,-0.13091 -2.9328,0.15994 -3.79137,-0.77976c-0.7461,-0.84433 -0.20375,-2.30687 0.13716,-3.41778c0.4403,-1.43503 1.35247,-2.99244 2.28581,-3.874c0.93429,-0.88126 1.96575,-1.28393 2.87343,-0.99681z" data-paper-data="{&quot;origPos&quot;:null}" fill="#000000" stroke="#00aaff" stroke-width="1.5" stroke-linecap="round"/><path d="M291.77452,113.15119c-2.2223,14.9715 -5.23275,14.91061 -14.33132,17.05054c-13.25736,3.11807 -27.42311,-2.84306 -40.97085,-1.45064c-3.55727,0.36561 -10.48972,-5.44954 -13.89922,-6.52804c-6.97342,-2.20584 -9.33166,-8.43434 -7.74206,-14.46176c3.50631,-13.29508 9.96997,-11.30635 16.94339,-9.1005c0,0 7.27209,3.69962 8.63505,8.60973c0,0 16.17095,-13.99353 28.10403,-12.57956c15.36122,1.82018 24.85688,7.70872 23.26098,18.46023z" data-paper-data="{&quot;origPos&quot;:null}" fill="url(#color-14)" stroke="none" stroke-width="0" stroke-linecap="butt"/><path d="M286.44419,120.40679c-1.649,5.21303 -4.28465,8.69375 -14.6177,5.75959c-10.90838,-3.09753 -10.29515,-7.90543 -8.64616,-13.11846c1.649,-5.21303 8.19356,-7.79169 14.6177,-5.75959c6.42413,2.03209 10.29515,7.90543 8.64616,13.11846z" data-paper-data="{&quot;origPos&quot;:null}" fill="url(#color-15)" stroke="none" stroke-width="0" stroke-linecap="butt"/><path d="M298.08785,141.29086c-0.4496,0.75819 -39.47127,-5.66818 -50.28014,-7.82866c-5.25325,-1.05002 -15.39813,-4.70455 -14.94853,-5.46273c1.66201,-2.80275 5.16092,-7.01513 10.51792,-7.05644c6.47365,-0.04992 28.24993,1.1956 43.24804,6.19328c6.13114,2.04303 13.12472,11.3518 11.46271,14.15455z" data-paper-data="{&quot;origPos&quot;:null}" fill="url(#color-16)" stroke="none" stroke-width="0" stroke-linecap="butt"/><path d="M265.07761,119.64975l8.47013,-10.76913l2.40782,6.99004l4.19806,-4.24093l2.04378,11.22101l-4.15485,1.00353l0.8572,-7.74278l-3.99638,3.63251l-1.99093,-5.54945l-3.73988,6.75051z" data-paper-data="{&quot;origPos&quot;:null}" fill="url(#color-17)" stroke="none" stroke-width="0" stroke-linecap="butt"/><path d="M270.27582,177.83985c-1.12239,2.31778 -3.34307,2.95536 -4.83961,2.89312c-4.5675,-0.18993 -10.64223,-2.29432 -14.41761,-4.87203c-2.16979,-1.48147 -1.72158,-3.04656 -1.88455,-3.33672c-0.17219,-0.30657 -3.30401,0.59828 -6.42152,-0.38786c-5.0024,-1.58237 -7.34666,-6.20181 -5.78511,-11.13839c1.71235,-5.4133 3.13366,-8.27282 3.99716,-8.171c3.72531,1.08872 6.2694,6.1284 8.14212,8.33999c0,0 10.91777,7.86655 16.71367,9.34322c0,0 10.55048,-1.39399 13.33934,-0.30437c1.38314,0.5404 0.45592,3.50379 -0.46273,4.85805c0,0 -1.1468,4.1298 -3.46707,4.59013c-5.48626,1.08845 -4.58925,-2.48491 -4.91407,-1.81414z" data-paper-data="{&quot;origPos&quot;:null}" fill="#291e16" stroke="#321f12" stroke-width="0" stroke-linecap="butt"/><path d="M280.32813,164.23822c-2.47267,6.15907 -2.10102,10.85388 -15.73358,6.27939c-6.28312,-2.10835 -10.99093,-7.5295 -9.22117,-13.12429c1.76975,-5.59479 10.0489,-10.57184 16.50388,-9.06987c9.40532,2.18848 12.40675,6.06117 8.45087,15.91476z" data-paper-data="{&quot;origPos&quot;:null}" fill="url(#color-18)" stroke="#c79260" stroke-width="1.5" stroke-linecap="butt"/><g data-paper-data="{&quot;origPos&quot;:null}" fill="none" stroke="#c79260" stroke-width="3.5" stroke-linecap="round"><path d="M215.87439,127.00906c0,0 3.34708,-0.75569 6.0787,3.18089c3.91759,5.6457 -1.28922,11.51951 -1.28922,11.51951" data-paper-data="{&quot;origPos&quot;:null}"/><path d="M222.15792,136.03894l-5.72062,-1.80956" data-paper-data="{&quot;origPos&quot;:null}"/><path d="M219.80353,141.58721l-1.22584,-0.38776" data-paper-data="{&quot;origPos&quot;:null}"/></g><path d="M255.62609,131.99946c-1.43543,-0.02375 -1.43195,0.18121 -2.45195,1.19148c-1.05227,1.04223 -2.95125,2.21245 -2.95125,2.21245c0,0 -0.29653,-3.89799 0.51548,-6.46502c0.55134,-1.74298 2.45941,-4.48132 5.33865,-4.24081c9.1841,2.56857 3.77326,10.26698 3.77326,10.26698c0,0 -2.7052,-2.97772 -4.22419,-2.96508z" data-paper-data="{&quot;origPos&quot;:null}" fill="#291e16" stroke="none" stroke-width="0" stroke-linecap="butt"/><path d="M272.92942,134.52982c-1.47269,-0.37233 -4.80661,1.87933 -4.80661,1.87933c0,0 -3.43192,-8.76155 6.09929,-9.08003c2.8542,0.44879 4.05884,3.56138 4.18133,5.38536c0.18041,2.68634 -1.0316,6.40297 -1.0316,6.40297c0,0 -1.56749,-1.58699 -2.34274,-2.84894c-0.75147,-1.22325 -0.6995,-1.42155 -2.09965,-1.73871z" data-paper-data="{&quot;origPos&quot;:null,&quot;index&quot;:null,&quot;origRot&quot;:0}" fill="#291e16" stroke="none" stroke-width="0" stroke-linecap="butt"/><path d="M260.79061,141.45653c0.36581,0.06622 0.63957,0.44368 0.78695,0.9997c0.14699,0.55596 0.16751,1.29093 0.02602,2.07254c-0.14149,0.7816 -0.41839,1.46274 -0.75096,1.93187c-0.33295,0.46907 -0.72167,0.72658 -1.08747,0.66035c-0.36581,-0.06622 -0.63957,-0.44368 -0.78695,-0.9997c-0.14699,-0.55596 -0.16752,-1.29093 -0.02602,-2.07254c0.14149,-0.7816 0.41839,-1.46274 0.75097,-1.93187c0.33295,-0.46907 0.72167,-0.72658 1.08748,-0.66035z" data-paper-data="{&quot;origPos&quot;:null,&quot;origRot&quot;:0}" fill="#ffffff" stroke="#00aaff" stroke-width="0" stroke-linecap="butt"/><path d="M274.57407,141.3284c0.36582,0.06623 0.63958,0.44367 0.78695,0.9997c0.14699,0.55596 0.16751,1.29093 0.02601,2.07254c-0.14149,0.7816 -0.41839,1.46274 -0.75096,1.93187c-0.33296,0.46906 -0.72167,0.72658 -1.08747,0.66035c-0.36582,-0.06622 -0.63958,-0.44367 -0.78695,-0.9997c-0.14699,-0.55596 -0.16751,-1.29093 -0.02601,-2.07254c0.14149,-0.7816 0.41839,-1.46274 0.75096,-1.93187c0.33296,-0.46906 0.72167,-0.72658 1.08749,-0.66036z" data-paper-data="{&quot;origPos&quot;:null,&quot;origRot&quot;:0}" fill="#ffffff" stroke="#00aaff" stroke-width="0" stroke-linecap="butt"/></g><g data-paper-data="{&quot;origRot&quot;:0}" stroke-linecap="butt"><path d="M219.46633,196.82616c-1.73838,5.82876 5.39054,15.49477 5.39054,15.49477l-15.56628,-3.49201c0,0 -11.83367,-11.35302 -9.81208,-20.87479c2.02159,-9.52178 21.14973,-11.97432 26.34957,-10.87032c5.19984,1.10399 9.11336,12.17414 1.63826,18.40904c-5.02159,4.18845 -6.26162,-4.49545 -8,1.33331z" data-paper-data="{&quot;origRot&quot;:0,&quot;origPos&quot;:null}" fill="url(#color-19)" stroke="none" stroke-width="0"/><g data-paper-data="{&quot;origPos&quot;:null}" stroke="#cdcdcd" stroke-width="1.5"><path d="M229.92527,231.26616c-1.1349,11.05592 -10.21514,9.13759 -20.45575,8.82492c-9.38447,-0.28651 -16.44881,-12.49248 -15.04651,-19.53389c1.93298,-9.70611 13.30506,-7.27952 22.39018,-4.91079c9.08513,2.36872 14.17177,5.29648 13.11207,15.61977z" data-paper-data="{&quot;origRot&quot;:0,&quot;origPos&quot;:null}" fill="url(#color-20)"/><path d="M230.40331,216.18479c-1.51289,6.67905 -2.96418,3.81738 -16.11005,0.75283c-11.53971,-2.69012 -13.45902,-2.80407 -12.37776,-8.95038c0.96654,-5.49419 8.61725,-2.04964 15.63388,-0.23008c7.01664,1.81956 13.73735,4.52754 12.85393,8.42763z" data-paper-data="{&quot;origRot&quot;:0,&quot;origPos&quot;:null}" fill="url(#color-21)"/></g></g></g></g></svg>