<svg version="1.1" xmlns="http://www.w3.org/2000/svg" xmlns:xlink="http://www.w3.org/1999/xlink" width="118.92777" height="184.85316" viewBox="0,0,118.92777,184.85316"><defs><linearGradient x1="258.1348" y1="176.95802" x2="268.02335" y2="202.14147" gradientUnits="userSpaceOnUse" id="color-1"><stop offset="0" stop-color="#5ab500"/><stop offset="1" stop-color="#59a210"/></linearGradient><linearGradient x1="290.22663" y1="174.39353" x2="302.84058" y2="206.51787" gradientUnits="userSpaceOnUse" id="color-2"><stop offset="0" stop-color="#f2f2f2"/><stop offset="1" stop-color="#cecece"/></linearGradient><linearGradient x1="277.25717" y1="177.05853" x2="287.32083" y2="202.68793" gradientUnits="userSpaceOnUse" id="color-3"><stop offset="0" stop-color="#f2f2f2"/><stop offset="1" stop-color="#cecece"/></linearGradient><linearGradient x1="215.24645" y1="222.4272" x2="247.23235" y2="235.97671" gradientUnits="userSpaceOnUse" id="color-4"><stop offset="0" stop-color="#17174a"/><stop offset="1" stop-color="#17173a"/></linearGradient><linearGradient x1="207.65931" y1="240.62328" x2="243.42272" y2="255.77297" gradientUnits="userSpaceOnUse" id="color-5"><stop offset="0" stop-color="#643a19"/><stop offset="1" stop-color="#915b32"/></linearGradient><linearGradient x1="239.21058" y1="174.02591" x2="239.21058" y2="229.61705" gradientUnits="userSpaceOnUse" id="color-6"><stop offset="0" stop-color="#2a2a84"/><stop offset="1" stop-color="#1c1c57"/></linearGradient><linearGradient x1="241.10029" y1="171.3339" x2="241.10029" y2="201.61236" gradientUnits="userSpaceOnUse" id="color-7"><stop offset="0" stop-color="#98de53"/><stop offset="1" stop-color="#68c900"/></linearGradient><linearGradient x1="238.70347" y1="247.20608" x2="262.90243" y2="222.28427" gradientUnits="userSpaceOnUse" id="color-8"><stop offset="0" stop-color="#2a2a84"/><stop offset="1" stop-color="#1c1c57"/></linearGradient><linearGradient x1="252.69507" y1="260.63673" x2="279.75194" y2="232.77165" gradientUnits="userSpaceOnUse" id="color-9"><stop offset="0" stop-color="#643a19"/><stop offset="1" stop-color="#915b32"/></linearGradient><linearGradient x1="210.8426" y1="161.86821" x2="224.00978" y2="160.32757" gradientUnits="userSpaceOnUse" id="color-10"><stop offset="0" stop-color="#82491d"/><stop offset="1" stop-color="#5a2c0a"/></linearGradient><linearGradient x1="228.44352" y1="121.33857" x2="235.57434" y2="182.28251" gradientUnits="userSpaceOnUse" id="color-11"><stop offset="0" stop-color="#ffead6"/><stop offset="1" stop-color="#f5b677"/></linearGradient><linearGradient x1="228.44352" y1="121.33857" x2="231.81206" y2="150.12799" gradientUnits="userSpaceOnUse" id="color-12"><stop offset="0" stop-color="#f5b477"/><stop offset="1" stop-color="#f5b477" stop-opacity="0"/></linearGradient><linearGradient x1="215.81576" y1="134.46948" x2="226.22435" y2="133.25161" gradientUnits="userSpaceOnUse" id="color-13"><stop offset="0" stop-color="#5a2c0a"/><stop offset="1" stop-color="#82491d"/></linearGradient><linearGradient x1="191.28353" y1="109.94664" x2="266.61804" y2="101.13204" gradientUnits="userSpaceOnUse" id="color-14"><stop offset="0" stop-color="#7edf1d"/><stop offset="1" stop-color="#68c900"/></linearGradient><linearGradient x1="247.91138" y1="108.11646" x2="250.005" y2="126.00974" gradientUnits="userSpaceOnUse" id="color-15"><stop offset="0" stop-color="#509b07"/><stop offset="1" stop-color="#346a00"/></linearGradient><radialGradient cx="266.0878" cy="157.07425" r="17.79896" gradientUnits="userSpaceOnUse" id="color-16"><stop offset="0" stop-color="#563e2d"/><stop offset="1" stop-color="#38291e"/></radialGradient><radialGradient cx="265.35712" cy="138.86891" r="13.17095" gradientUnits="userSpaceOnUse" id="color-17"><stop offset="0" stop-color="#ffead6"/><stop offset="1" stop-color="#f7c594"/></radialGradient><linearGradient x1="220.03304" y1="198.86575" x2="216.83341" y2="175.06272" gradientUnits="userSpaceOnUse" id="color-18"><stop offset="0" stop-color="#7edf1d"/><stop offset="1" stop-color="#68c900"/></linearGradient><linearGradient x1="254.58058" y1="209.75064" x2="249.85203" y2="174.57328" gradientUnits="userSpaceOnUse" id="color-19"><stop offset="0" stop-color="#f2f2f2"/><stop offset="1" stop-color="#ffffff"/></linearGradient><linearGradient x1="239.87266" y1="203.81256" x2="236.06938" y2="175.51861" gradientUnits="userSpaceOnUse" id="color-20"><stop offset="0" stop-color="#f2f2f2"/><stop offset="1" stop-color="#ffffff"/></linearGradient></defs><g transform="translate(-191.80781,-81.38552)"><g data-paper-data="{&quot;isPaintingLayer&quot;:true}" fill-rule="nonzero" stroke-linejoin="miter" stroke-miterlimit="10" stroke-dasharray="" stroke-dashoffset="0" style="mix-blend-mode: normal"><g data-paper-data="{&quot;index&quot;:null,&quot;origRot&quot;:0,&quot;origPos&quot;:null}" stroke-linecap="butt"><path d="M242.68798,188.39592c0.01615,-5.31535 5.38154,-8.98869 14.90545,-8.98318c7.66019,0.00443 22.54773,1.8757 22.54773,1.8757l-0.22753,15.95084c0,0 -9.05755,1.44834 -18.58148,1.44285c-9.52394,-0.00549 -18.66032,-4.97085 -18.64417,-10.28622z" data-paper-data="{&quot;origRot&quot;:0,&quot;origPos&quot;:null}" fill="url(#color-1)" stroke="none" stroke-width="0"/><g data-paper-data="{&quot;origPos&quot;:null}" stroke="#cdcdcd" stroke-width="1.5"><path d="M284.93658,188.46833c0.44945,-9.37806 2.23491,-14.96042 12.33384,-16.06189c10.81565,-1.17964 10.79657,8.10037 12.54761,18.18292c1.60465,9.23962 -8.67068,18.67832 -15.69513,18.76491c-9.68272,0.11935 -9.63577,-11.50789 -9.18632,-20.88593z" data-paper-data="{&quot;origRot&quot;:0,&quot;origPos&quot;:null}" fill="url(#color-2)"/><path d="M277.2335,189.38217c0.33769,-7.24085 1.58549,-14.37619 5.49755,-14.31975c6.69953,0.09663 4.24946,2.10904 3.94669,15.60361c-0.26578,11.84581 0.00939,13.74696 -6.09352,13.96222c-5.45538,0.19241 -3.6884,-8.00525 -3.35071,-15.24609z" data-paper-data="{&quot;origRot&quot;:0,&quot;origPos&quot;:null}" fill="url(#color-3)"/></g></g><g data-paper-data="{&quot;origPos&quot;:null,&quot;origRot&quot;:0}" stroke-linecap="butt"><path d="M240.4585,238.49847c-1.5494,4.29856 2.50514,7.95744 1.9575,8.83863c-2.21578,3.56531 -5.1696,5.48768 -12.26079,4.6035c-8.78403,-1.09524 -14.72302,-4.22594 -20.00389,-11.33024c-3.59674,-4.83864 1.64092,-5.48425 5.68254,-9.958c1.45024,-1.6053 2.97666,-3.8618 5.54857,-8.65137c3.21556,-5.98822 11.37745,-15.91946 11.37745,-15.91946c0,0 5.22656,1.33281 10.10374,3.31278c4.80305,2.00927 8.74102,5.99643 8.74102,5.99643c0,0 -7.56452,13.17105 -11.14616,23.10771z" data-paper-data="{&quot;origPos&quot;:null}" fill="url(#color-4)" stroke="none" stroke-width="0"/><path d="M238.39833,261.73233c-1.52063,3.58971 -5.8899,3.73365 -9.75439,3.21981c-2.53257,-0.33676 -13.39697,-5.31871 -17.50145,-10.82847c-1.27426,-1.71055 -1.69603,-4.54698 -1.69603,-4.54698c0,0 -4.93405,-1.26525 -4.35252,-2.60096c0.46162,-1.0603 1.2029,-2.88485 2.46875,-3.00038c5.4488,-0.49733 15.96617,3.96461 21.00423,6.09877c6.91614,2.92974 11.3178,8.14928 9.83138,11.65821z" data-paper-data="{&quot;origPos&quot;:null}" fill="#5c3518" stroke="#5c3518" stroke-width="1.5"/><path d="M242.0437,257.95813c-3.03819,3.66877 -8.51582,4.89075 -16.3346,1.57864c-7.81879,-3.31212 -14.26189,-11.39012 -14.26189,-11.39012c0,0 -5.78673,-2.09984 -5.28605,-3.60063c1.03627,-3.10626 3.05975,-8.0337 4.26538,-7.71211c4.45084,1.18718 3.41689,1.41987 9.40649,2.57214c3.87797,0.74604 11.25423,-0.126 14.89051,1.41437c7.81879,3.31212 12.3226,11.09702 7.32016,17.13772z" data-paper-data="{&quot;origPos&quot;:null}" fill="url(#color-5)" stroke="#5c3518" stroke-width="1.5"/></g><g data-paper-data="{&quot;origPos&quot;:null}"><path d="M263.18836,199.59803c0.33542,23.36797 -11.23027,30.01902 -24.2383,30.01902c-13.00803,0 -23.7244,-11.0783 -23.7244,-22.29354c0,-12.16666 1.12928,-21.85193 8.41177,-29.59575c5.42567,-5.76938 13.24571,-3.072 20.2802,-3.072c13.00803,0 18.94195,2.03645 19.27073,24.94228z" data-paper-data="{&quot;origPos&quot;:null}" fill="url(#color-6)" stroke="#101032" stroke-width="1.5" stroke-linecap="butt"/><path d="M263.18836,198.93585c0,0 -14.76896,2.20728 -25.18042,2.64874c-9.54981,0.40491 -19.18508,-3.75238 -19.18508,-3.75238c0,0 -0.84489,-15.22543 5.98217,-21.14578c4.46675,-3.8735 9.49009,-5.14202 15.94364,-5.3416c6.45355,-0.19958 13.47144,2.36082 16.7202,5.75234c7.67393,8.01117 5.7195,21.83867 5.7195,21.83867z" data-paper-data="{&quot;origPos&quot;:null}" fill="url(#color-7)" stroke="#4e9707" stroke-width="1.5" stroke-linecap="butt"/><path d="M251.29004,175.63944c0,0 1.83311,7.54921 2.20291,12.08838c0.47498,5.83023 -0.49673,16.78467 -0.49673,16.78467" data-paper-data="{&quot;origPos&quot;:null,&quot;origRot&quot;:0}" fill="none" stroke="#2a2a84" stroke-width="10" stroke-linecap="round"/><path d="M232.86909,176.20085c0,0 1.06191,7.79088 0.97412,12.35359c-0.11275,5.86046 -2.17318,16.56179 -2.17318,16.56179" data-paper-data="{&quot;origPos&quot;:null}" fill="none" stroke="#2a2a84" stroke-width="10" stroke-linecap="round"/><path d="M228.383,202.89432c0,-2.49904 1.89876,-4.14993 4.24102,-4.14993c2.34224,0 4.24103,1.65089 4.24103,4.14993c0,2.49904 -1.89877,4.27492 -4.24103,4.27492c-2.34224,0 -4.24102,-1.77587 -4.24102,-4.27492z" fill="#ffe84f" stroke="#b6a538" stroke-width="1" stroke-linecap="butt"/><path d="M249.24826,202.64432c0,-2.49904 1.83345,-4.14993 4.09513,-4.14993c2.26167,0 4.09513,1.65089 4.09513,4.14993c0,2.49904 -1.83346,4.27492 -4.09513,4.27492c-2.26167,0 -4.09513,-1.77587 -4.09513,-4.27492z" fill="#ffe84f" stroke="#b6a538" stroke-width="1" stroke-linecap="butt"/></g><g data-paper-data="{&quot;origPos&quot;:null,&quot;origRot&quot;:0}" stroke-linecap="butt"><path d="M262.57451,229.2887c3.44741,2.99895 8.32483,0.54185 8.94837,1.37108c2.52281,3.35509 3.24696,6.80416 -0.14162,13.09577c-4.1975,7.79356 -9.26393,12.19858 -17.79709,14.55313c-5.81183,1.60365 -4.51976,-3.51302 -7.22929,-8.89888c-0.97225,-1.9326 -2.52409,-4.1717 -6.05952,-8.30152c-4.42022,-5.16334 -10.38491,-17.07638 -10.38491,-17.07638c0,0 5.23807,-5.48268 9.39096,-8.43787c3.27742,-2.3322 9.64827,-5.11038 9.64827,-5.11038c0,0 5.65572,11.8726 13.62481,18.80505z" data-paper-data="{&quot;origPos&quot;:null}" fill="url(#color-8)" stroke="none" stroke-width="0"/><path d="M283.49118,239.611c2.79692,2.71579 1.35116,6.84144 -0.52532,10.25861c-1.22975,2.23942 -9.80324,10.56712 -16.42438,12.40146c-2.05558,0.56947 -4.85259,-0.06296 -4.85259,-0.06296c0,0 -2.96382,4.14263 -3.99886,3.11746c-0.82164,-0.8138 -2.25465,-2.16469 -1.90462,-3.38665c1.50666,-5.25992 9.46982,-13.4521 13.28138,-17.37751c5.23241,-5.38871 11.69043,-7.60508 14.42441,-4.9504z" data-paper-data="{&quot;origPos&quot;:null}" fill="#5c3518" stroke="#5c3518" stroke-width="1.5"/><path d="M281.29057,234.84754c2.32187,4.15925 1.48041,9.70809 -4.4349,15.80009c-5.91532,6.092 -15.77657,9.17803 -15.77657,9.17803c0,0 -4.05027,4.63582 -5.26846,3.62631c-2.52133,-2.0894 -6.38363,-5.75774 -5.64785,-6.7655c2.71631,-3.72035 2.55937,-2.67222 5.79955,-7.83984c2.09786,-3.34578 3.95214,-10.53821 6.70318,-13.37143c5.91532,-6.092 14.80204,-7.47597 18.62505,-0.62768z" data-paper-data="{&quot;origPos&quot;:null}" fill="url(#color-9)" stroke="#5c3518" stroke-width="1.5"/></g><g data-paper-data="{&quot;origPos&quot;:null,&quot;origRot&quot;:0}"><path d="M216.37933,168.26892c0,0 -1.25004,1.64963 -3.02941,0.10088c-1.77937,-1.54874 -3.39051,-5.4231 -1.33229,-7.60423c2.46184,-2.60885 0.85274,-10.22635 2.63211,-8.67761c0,0 6.20728,0.58588 7.10361,4.19742c0,0 3.79301,10.28854 2.94448,12.10446c0,0 -1.29586,1.84926 -5.21777,2.02621c-2.12494,0.09589 -3.10073,-2.14713 -3.10073,-2.14713z" data-paper-data="{&quot;origRot&quot;:0,&quot;origPos&quot;:null}" fill="url(#color-10)" stroke="#5c3822" stroke-width="1" stroke-linecap="butt"/><path d="M214.09473,126.60126c4.40177,0.49894 36.73869,-6.48166 42.53064,-6.83514c8.56911,-0.52297 7.11455,7.4372 8.71075,15.87256c1.83529,9.69885 0.86553,21.28498 2.39953,27.96836c1.64533,7.1684 1.42287,11.05034 -3.99139,15.22057c-15.84595,2.81852 -13.4554,-1.10412 -21.07197,-2.65473c-6.47997,-1.56105 -11.10169,-2.89369 -18.43307,-7.74933c-5.56523,-3.68589 -4.78584,-7.37125 -8.4982,-11.77666c-1.13798,-1.35042 -2.37565,-1.99701 -2.56886,-1.9744c-10.30015,1.20518 -16.95807,-6.64073 -17.89942,-14.68602c-0.94135,-8.0453 1.97147,-14.99739 7.73117,-15.67131c5.7597,-0.67392 9.56029,2.11263 11.09082,2.28611z" data-paper-data="{&quot;origPos&quot;:null}" fill="url(#color-11)" stroke="none" stroke-width="0" stroke-linecap="butt"/><path d="M214.09473,126.60126c4.40177,0.49894 36.73869,-6.48166 42.53064,-6.83514c8.56911,-0.52297 7.11455,7.4372 8.71075,15.87256c0.63335,3.34699 0.93264,6.91874 1.11606,10.4362c-15.44004,-0.29264 -30.88014,-0.5816 -46.32112,-0.8169c-5.87055,-0.08946 -14.55361,0.09021 -22.29989,2.04702c-1.38466,-2.23063 -2.25959,-4.76454 -2.55843,-7.31854c-0.94135,-8.0453 1.97147,-14.99739 7.73117,-15.67131c5.7597,-0.67392 9.56029,2.11263 11.09082,2.28611z" data-paper-data="{&quot;origPos&quot;:null}" fill="url(#color-12)" stroke="none" stroke-width="0" stroke-linecap="butt"/><path d="M281.78247,116.38248c-0.12325,3.83359 -10.80998,9.9235 -19.65963,10.95897c-7.13105,0.83438 -6.14842,-6.0816 -6.57203,-9.70198c-0.42361,-3.62038 13.64376,-4.46585 20.77481,-5.30022c7.13105,-0.83438 5.53663,1.56179 5.45685,4.04324z" data-paper-data="{&quot;origPos&quot;:null}" fill="#346a00" stroke="none" stroke-width="0" stroke-linecap="butt"/><path d="M262.55663,126.17285c0.91811,4.81478 -0.75646,9.17917 -3.74027,9.74813c-2.98381,0.56897 -6.14692,-2.87293 -7.06503,-7.6877c-0.91811,-4.81478 0.75647,-9.17916 3.74027,-9.74813c2.98381,-0.56897 6.14693,2.87293 7.06504,7.6877z" data-paper-data="{&quot;origPos&quot;:null,&quot;origRot&quot;:0}" fill="#ffffff" stroke="none" stroke-width="0" stroke-linecap="butt"/><path d="M226.53408,142.92948c-2.34179,0.95556 -5.48942,0.19886 -7.42159,-1.33171c-1.93216,-1.53057 -2.88548,-3.61342 -3.38334,-7.86844c-0.49786,-4.25501 -0.99622,-8.3749 1.6499,-8.78389c11.14095,-1.72194 4.64896,4.65614 6.63414,9.43893c2.18171,5.2563 4.334,7.80526 2.52088,8.5451z" fill="url(#color-13)" stroke="#5c3822" stroke-width="1" stroke-linecap="butt"/><path d="M250.20329,132.65712c1.13282,4.76882 -0.34462,9.20383 -3.29994,9.90586c-2.95533,0.70204 -6.26944,-2.59476 -7.40225,-7.36358c-1.13282,-4.76882 0.34462,-9.20383 3.29994,-9.90586c2.95533,-0.70204 6.26944,2.59476 7.40225,7.36358z" data-paper-data="{&quot;origPos&quot;:null,&quot;origRot&quot;:0}" fill="#ffffff" stroke="none" stroke-width="0" stroke-linecap="butt"/><path d="M247.00525,129.35809c0.94555,-0.11064 1.88248,0.47948 2.63363,1.52124c0.75016,1.04188 1.31467,2.5364 1.51351,4.23581c0.19884,1.69941 -0.00541,3.28388 -0.49479,4.47079c-0.49037,1.18703 -1.26576,1.9775 -2.21131,2.08813c-0.94555,0.11064 -1.88248,-0.47948 -2.63363,-1.52124c-0.75016,-1.04188 -1.31467,-2.5364 -1.51351,-4.23581c-0.19884,-1.69941 0.00541,-3.28388 0.49479,-4.47079c0.49037,-1.18703 1.26576,-1.9775 2.21131,-2.08813z" data-paper-data="{&quot;origPos&quot;:null}" id="ID0.2989244391210377" fill="#000000" stroke="#00aaff" stroke-width="1.5" stroke-linecap="butt"/><path d="M259.38839,123.32815c0.94555,-0.11064 1.88248,0.47948 2.63363,1.52124c0.75016,1.04188 1.10723,2.79426 1.51351,4.23581c0.14508,0.5257 0.38517,1.28696 0.0602,1.80524c-0.41267,0.62922 -1.17319,0.99609 -1.85861,1.32497c-1.21727,0.4042 -2.60887,1.34933 -3.77743,0.84471c-1.02686,-0.46381 -1.13243,-2.02008 -1.27741,-3.17305c-0.18735,-1.48932 0.00541,-3.28388 0.49479,-4.47079c0.49037,-1.18703 1.26576,-1.9775 2.21131,-2.08813z" data-paper-data="{&quot;origPos&quot;:null}" id="ID0.2989244391210377" fill="#000000" stroke="#00aaff" stroke-width="1.5" stroke-linecap="round"/><path d="M264.63131,91.17955c4.117,14.56485 1.3467,15.74466 -6.0724,21.42974c-10.81025,8.28363 -26.17454,8.66045 -37.95772,15.48956c-3.09395,1.79314 -11.80209,-0.66512 -15.35387,-0.24954c-7.26442,0.84998 -11.97085,-3.86225 -12.9946,-10.01111c-2.25816,-13.56297 4.45231,-14.40176 11.71673,-15.25174c0,0 8.14977,0.38967 11.40756,4.30804c0,0 9.00447,-19.39686 20.4668,-23.00417c14.75523,-4.64363 25.83096,-3.17026 28.78751,7.28922z" data-paper-data="{&quot;origPos&quot;:null}" fill="url(#color-14)" stroke="none" stroke-width="0" stroke-linecap="butt"/><path d="M262.74771,99.98345c0.63541,5.43057 -0.3398,9.68628 -10.96682,11.25072c-11.21872,1.65155 -12.63244,-2.98455 -13.26785,-8.41512c-0.63541,-5.43057 4.2746,-10.46769 10.96682,-11.25072c6.69222,-0.78303 12.63244,2.98455 13.26785,8.41512z" data-paper-data="{&quot;origPos&quot;:null}" fill="#ffffff" stroke="none" stroke-width="0" stroke-linecap="butt"/><path d="M281.9357,114.25022c-0.09888,0.87591 -38.32088,11.02812 -49.06434,13.49336c-5.22146,1.19814 -15.97249,2.02844 -15.87362,1.15253c0.36552,-3.23792 1.82772,-8.51508 6.69596,-10.75101c5.88301,-2.70199 26.25251,-10.5021 41.9805,-12.09907c6.42952,-0.65283 16.62702,4.96627 16.2615,8.20419z" data-paper-data="{&quot;origPos&quot;:null}" fill="url(#color-15)" stroke="none" stroke-width="0" stroke-linecap="butt"/><path d="M247.64544,108.01518l-3.58945,-11.98629l5.46751,-1.20518l0.33814,9.50758l7.24074,-2.49918l-0.87655,3.83669z" data-paper-data="{&quot;origPos&quot;:null}" fill="#64ca00" stroke="none" stroke-width="0" stroke-linecap="butt"/><path d="M266.64796,161.77918c-0.07243,2.57422 -2.47664,3.31307 -3.86693,3.87042c-4.24316,1.70108 -8.01508,1.39598 -16.21978,-0.61128c-2.65639,-0.64988 -6.6485,-15.6648 -0.4193,-13.18732c0,0 12.43043,3.33435 18.32183,2.3026c0,0 9.04925,-5.60062 12.03961,-5.75138c1.48308,-0.07477 1.85355,3.00811 1.57153,4.62007c0,0 0.68076,4.50921 -1.24626,5.88112c-2.71244,2.47559 -4.94964,1.79744 -4.97061,2.54243z" data-paper-data="{&quot;origPos&quot;:null}" fill="url(#color-16)" stroke="none" stroke-width="0" stroke-linecap="butt"/><path d="M275.29855,142.44772c0.27249,6.63128 2.41264,10.9186 -11.8964,12.34114c-6.59491,0.65563 -13.40663,-2.71736 -14.08858,-8.54562c-0.68194,-5.82826 4.8257,-13.76433 11.32851,-15.04345c9.47502,-1.86375 14.22052,0.63887 14.65647,11.24794z" data-paper-data="{&quot;origPos&quot;:null}" fill="url(#color-17)" stroke="#c79260" stroke-width="1.5" stroke-linecap="butt"/><g data-paper-data="{&quot;origPos&quot;:null}" fill="none" stroke="#c79260" stroke-width="3.5" stroke-linecap="round"><path d="M201.10244,134.96271c0,0 2.7422,-2.06262 6.84862,0.40633c5.88928,3.54088 3.55137,11.034 3.55137,11.034" data-paper-data="{&quot;origPos&quot;:null}"/><path d="M210.53798,140.61879l-5.95935,0.69728" data-paper-data="{&quot;origPos&quot;:null}"/><path d="M210.66769,146.64454l-1.277,0.14942" data-paper-data="{&quot;origPos&quot;:null}"/></g><path d="M239.40092,123.20139c-1.31876,0.56737 -1.23147,0.75285 -1.74708,2.0927c-0.53191,1.38224 -1.78344,3.22865 -1.78344,3.22865c0,0 -1.86996,-3.43301 -2.18285,-6.10715c-0.21245,-1.81571 0.40389,-5.09587 3.12824,-6.05803c9.42925,-1.42636 7.65401,7.81438 7.65401,7.81438c0,0 -3.68886,-1.60538 -5.06887,-0.97054z" data-paper-data="{&quot;origPos&quot;:null}" fill="#38291e" stroke="none" stroke-width="0" stroke-linecap="butt"/><path d="M256.21864,118.40843c-1.49577,0.26478 -3.6121,3.68621 -3.6121,3.68621c0,0 -6.72498,-6.5816 1.8361,-10.78318c2.78698,-0.76196 5.16278,1.58217 6.02296,3.19524c1.26686,2.37571 1.68672,6.26236 1.68672,6.26236c0,0 -2.08066,-0.804 -3.30547,-1.63668c-1.18725,-0.80715 -1.22123,-1.00931 -2.62821,-0.72398z" data-paper-data="{&quot;origPos&quot;:null,&quot;index&quot;:null,&quot;origRot&quot;:0}" fill="#38291e" stroke="none" stroke-width="0" stroke-linecap="butt"/><path d="M247.40651,129.69744c0.36077,-0.08972 0.76531,0.14215 1.12787,0.58873c0.36218,0.44668 0.6825,1.1085 0.8742,1.87933c0.1917,0.77082 0.21869,1.5056 0.10793,2.06988c-0.11114,0.56438 -0.35995,0.95873 -0.72072,1.04844c-0.36077,0.08972 -0.76531,-0.14215 -1.12787,-0.58873c-0.36218,-0.44668 -0.68251,-1.10849 -0.8742,-1.87933c-0.1917,-0.77082 -0.21869,-1.5056 -0.10792,-2.06988c0.11114,-0.56438 0.35995,-0.95873 0.72073,-1.04844z" data-paper-data="{&quot;origPos&quot;:null,&quot;origRot&quot;:0}" id="ID0.2989244391210377" fill="#ffffff" stroke="#00aaff" stroke-width="0" stroke-linecap="butt"/><path d="M259.9235,123.9245c0.36078,-0.08972 0.76531,0.14214 1.12787,0.58873c0.36218,0.44668 0.6825,1.1085 0.87419,1.87933c0.1917,0.77082 0.21869,1.5056 0.10793,2.06988c-0.11115,0.56438 -0.35995,0.95873 -0.72072,1.04844c-0.36078,0.08973 -0.76531,-0.14214 -1.12787,-0.58873c-0.36218,-0.44668 -0.6825,-1.1085 -0.87419,-1.87933c-0.1917,-0.77082 -0.21869,-1.5056 -0.10793,-2.06988c0.11115,-0.56438 0.35995,-0.95873 0.72073,-1.04845z" data-paper-data="{&quot;origPos&quot;:null,&quot;origRot&quot;:0}" id="ID0.2989244391210377" fill="#ffffff" stroke="#00aaff" stroke-width="0" stroke-linecap="butt"/></g><g data-paper-data="{&quot;origPos&quot;:null}" stroke-linecap="butt"><path d="M214.695,176.39306c7.60575,0.91227 22.17612,4.53592 22.17612,4.53592l-2.03596,15.82095c0,0 -9.15815,0.36552 -18.61437,-0.76871c-9.45624,-1.13424 -17.96483,-7.1504 -17.34564,-12.42954c0.61919,-5.27914 6.36363,-8.29285 15.81986,-7.15863z" data-paper-data="{&quot;origRot&quot;:0,&quot;origPos&quot;:null}" fill="url(#color-18)" stroke="none" stroke-width="0"/><g data-paper-data="{&quot;origPos&quot;:null}" stroke="#cdcdcd" stroke-width="1.5"><path d="M254.88763,174.13447c10.87336,0.10983 9.80134,9.32769 10.39592,19.55272c0.54487,9.37019 -10.72915,17.53014 -17.71398,16.78363c-9.62807,-1.02901 -8.26205,-12.57563 -6.75158,-21.83991c1.51046,-9.26428 3.91681,-14.599 14.06963,-14.49643z" data-paper-data="{&quot;origRot&quot;:0,&quot;origPos&quot;:null}" fill="url(#color-19)"/><path d="M240.14928,175.0501c6.6414,0.89004 3.98021,2.59909 2.14828,15.97069c-1.60811,11.73786 -1.55062,13.65937 -7.63499,13.14993c-5.4388,-0.45539 -2.75401,-8.39073 -1.59706,-15.54482c1.15696,-7.15409 3.20566,-14.09552 7.08376,-13.57578z" data-paper-data="{&quot;origRot&quot;:0,&quot;origPos&quot;:null}" fill="url(#color-20)"/></g></g></g></g></svg>