<svg version="1.1" xmlns="http://www.w3.org/2000/svg" xmlns:xlink="http://www.w3.org/1999/xlink" width="386.07808" height="59.89856" viewBox="0,0,386.07808,59.89856"><defs><linearGradient x1="46.96094" y1="150.05068" x2="46.96094" y2="209.94768" gradientUnits="userSpaceOnUse" id="color-1"><stop offset="0" stop-color="#cc7700"/><stop offset="1" stop-color="#995900"/></linearGradient><linearGradient x1="117.08124" y1="166.08848" x2="117.08124" y2="209.94768" gradientUnits="userSpaceOnUse" id="color-2"><stop offset="0" stop-color="#cc7700"/><stop offset="1" stop-color="#995900"/></linearGradient><linearGradient x1="168.61594" y1="166.13428" x2="168.61594" y2="209.94768" gradientUnits="userSpaceOnUse" id="color-3"><stop offset="0" stop-color="#cc7700"/><stop offset="1" stop-color="#995900"/></linearGradient><linearGradient x1="243.88284" y1="150.73698" x2="243.88284" y2="209.94928" gradientUnits="userSpaceOnUse" id="color-4"><stop offset="0" stop-color="#cc7700"/><stop offset="1" stop-color="#995900"/></linearGradient><linearGradient x1="304.68974" y1="167.97398" x2="304.68974" y2="209.94768" gradientUnits="userSpaceOnUse" id="color-5"><stop offset="0" stop-color="#cc7700"/><stop offset="1" stop-color="#995900"/></linearGradient><linearGradient x1="353.65854" y1="150.69188" x2="353.65854" y2="209.94768" gradientUnits="userSpaceOnUse" id="color-6"><stop offset="0" stop-color="#cc7700"/><stop offset="1" stop-color="#995900"/></linearGradient><linearGradient x1="412.82624" y1="152.41818" x2="412.82624" y2="209.94768" gradientUnits="userSpaceOnUse" id="color-7"><stop offset="0" stop-color="#cc7700"/><stop offset="1" stop-color="#995900"/></linearGradient></defs><g transform="translate(-46.96096,-150.05072)"><g data-paper-data="{&quot;isPaintingLayer&quot;:true}" fill-rule="nonzero" stroke="none" stroke-linecap="butt" stroke-linejoin="miter" stroke-miterlimit="10" stroke-dasharray="" stroke-dashoffset="0" style="mix-blend-mode: normal"><path d="M112.68094,150.69188l0.4403,0.6342c0.2642,0.2289 -1.3827,17.3856 -1.7703,17.3856h-0.273c-12.5328,-0.9952 -19.517,-1.5853 -20.935,-1.7702v40.3728c0,0.7222 -2.8536,1.2066 -8.5608,1.4532c0,0.2114 -3.2323,0.6077 -9.6968,1.1802l-0.3171,-0.5901c1.4004,-24.0881 2.2899,-38.3207 2.6862,-42.6892c-4.7912,0.7575 -11.8635,1.7263 -21.208,2.9153c-2.7655,-10.3222 -9.3446,-14.2239 -4.1395,-15.8885c20.1424,-6.4381 42.4514,-2.2194 63.774,-3.0033z" fill="url(#color-1)" stroke-width="2.33028"/><path d="M136.02034,166.54508c6.1123,-1.277 13.2022,0.185 18.3809,3.6287c5.2228,3.4789 9.9083,14.1534 10.7009,15.5185c-4.0954,12.982 -6.4469,19.4818 -7.0546,19.4818c-13.6602,3.1795 -20.803,4.7736 -21.4371,4.7736c-11.291,-6.5791 -17.2976,-10.2517 -18.0286,-11.0092c-0.3875,-12.2598 -0.5901,-19.0238 -0.5901,-20.3009c-0.185,-0.3611 -1.7703,0.185 -0.273,-0.8191c5.9713,-4.0337 11.2998,-9.8202 18.3016,-11.2734zM134.92824,181.18288c-0.185,1.2154 -0.458,5.6279 -0.8191,13.2463l10.1461,2.2811c2.4308,-7.592 3.6374,-11.6433 3.6374,-12.1542c-8.0675,-2.4308 -12.3919,-3.6462 -12.9644,-3.6462z" fill="url(#color-2)" stroke-width="2.33028"/><path d="M187.10294,166.54508c6.3148,-1.1801 13.5457,0.229 18.8213,3.6287c5.2756,3.3996 9.9082,14.1534 10.6921,15.5185c-4.0954,12.982 -6.447,19.4818 -7.0547,19.4818c-13.6514,3.1795 -20.7941,4.7736 -21.4283,4.7736c-11.291,-6.5791 -17.2976,-10.2517 -18.0286,-11.0092c-0.3963,-12.2598 -0.5901,-19.0238 -0.5901,-20.3009c-0.1849,-0.3611 -1.7438,0.1497 -0.273,-0.8191c5.8921,-3.8928 11.0796,-9.7233 17.8613,-11.2734zM186.44234,181.18288c-0.1761,1.2154 -0.4491,5.6279 -0.8191,13.2463l10.1549,2.2811c2.422,-7.592 3.6374,-11.6433 3.6374,-12.1542c-8.0675,-2.4308 -12.3919,-3.6462 -12.9732,-3.6462z" fill="url(#color-3)" stroke-width="2.33028"/><path d="M298.40894,165.34788c-3.4908,10.3161 -5.2338,15.6408 -5.2338,15.974c0.8482,0.8505 3.1389,3.7774 6.872,8.7851v0.5453c-5.644,9.9526 -8.9366,15.4591 -9.8757,16.5217l-37.7319,2.7753c-0.5755,-2.244 -3.4278,-19.6908 -8.5567,-52.3403l35.546,-6.872c10.8637,7.888 17.1904,12.7583 18.9801,14.6109zM266.18584,181.04928c8.0092,-1.9435 12.0452,-3.0504 12.1058,-3.323c0.3635,-0.9112 1.1978,-3.8543 2.5027,-8.8294l-16.2466,-4.0967zM271.14704,186.82828h-3.0037c-0.3962,0.0606 -0.5919,0.2424 -0.5919,0.5477c-0.1818,3.9428 -0.275,6.8719 -0.275,8.7828c-0.1818,0.9717 -0.2726,1.5333 -0.2726,1.6847l14.3381,-2.23l-0.2749,-1.3656v-1.6381c0,-1.305 -0.0909,-3.323 -0.2727,-6.0541c-4.3389,0.1818 -7.5547,0.2726 -9.6473,0.2726z" fill="url(#color-4)" stroke-width="2.33027"/><path d="M309.08454,170.94878c9.4327,-3.109 19.9751,-3.8664 29.5575,-1.8671c4.7119,0.9864 10.648,9.3622 10.648,9.7849c-2.88,9.0099 -4.5181,14.4881 -4.9145,16.4257c2.88,6.4029 4.5182,10.2253 4.9145,11.476c0,0.3611 -4.7031,1.3299 -14.1093,2.9064c-0.1233,-0.5108 -0.9864,-1.6646 -2.5894,-3.4525c-12.9908,2.4837 -19.9838,3.7255 -20.9879,3.7255l-6.9137,-18.7068l15.2455,-8.0499c2.4572,0.3963 6.2972,0.5901 11.5112,0.5901c0,-0.6694 0.0968,-2.6862 0.273,-6.0506c-0.8719,0 -8.7369,0.5724 -23.5684,1.7262l-0.2731,-0.5901c-0.088,-0.1938 -1.3211,-7.222 1.2066,-7.9178zM321.07134,191.24088c0,0.3347 0.9688,3.8841 2.9153,10.6569h0.273c3.8224,-2.4925 5.7336,-4.1306 5.7336,-4.9145l0.59,-4.8705c-0.7222,0 -3.8928,-0.2906 -9.5119,-0.8719z" fill="url(#color-5)" stroke-width="2.33028"/><path d="M381.19904,150.69188h0.2731c13.713,1.1538 20.5651,2.0521 20.5651,2.6863l6.0594,53.5662c0,0.3963 -6.0594,1.4004 -18.1607,3.0033l-0.273,-0.5901v-4.8704c-10.4367,2.8271 -17.5971,4.6414 -21.4811,5.4605c-9.2301,-13.0437 -14.0653,-19.9927 -14.5233,-20.8382c6.7992,-12.3567 10.4279,-18.6011 10.877,-18.7596l19.0767,0.916c-0.3963,-2.334 -1.2066,-9.1949 -2.4132,-20.574zM372.72644,183.32308c3.0649,9.3798 4.9761,14.5233 5.7424,15.4305l9.0539,-7.8738c-0.9424,-5.4341 -1.6382,-8.1468 -2.0961,-8.1468h-12.1013c-0.3964,0.0617 -0.5989,0.2554 -0.5989,0.5901z" fill="url(#color-6)" stroke-width="2.33028"/><path d="M432.85414,152.41818l0.1849,0.3699c-3.0385,26.7919 -4.7383,40.866 -5.0994,42.2312c-6.4382,-0.6077 -10.4984,-1.0305 -12.1982,-1.2683v-0.1849l-2.9152,-38.0478c0.731,-0.2466 7.407,-1.277 20.0279,-3.1001zM414.83434,195.93518c0.2113,0.1145 4.9409,0.4844 14.1974,1.0921l0.1849,0.3611c-1.4267,8.3758 -2.3427,12.5593 -2.739,12.5593h-10.5512c-0.3699,0 -0.8543,-4.1835 -1.462,-12.5593c-0.1234,0 -0.1762,-0.3611 -0.1762,-1.0921c0.3611,-0.1233 0.5461,-0.2466 0.5461,-0.3611z" fill="url(#color-7)" stroke-width="2.33028"/></g></g></svg>