<svg version="1.1" xmlns="http://www.w3.org/2000/svg" xmlns:xlink="http://www.w3.org/1999/xlink" width="120.68887" height="186.71286" viewBox="0,0,120.68887,186.71286"><defs><linearGradient x1="256.95217" y1="177.6247" x2="247.06362" y2="202.80815" gradientUnits="userSpaceOnUse" id="color-1"><stop offset="0" stop-color="#5ab500"/><stop offset="1" stop-color="#59a210"/></linearGradient><linearGradient x1="224.86034" y1="175.06021" x2="212.24639" y2="207.18455" gradientUnits="userSpaceOnUse" id="color-2"><stop offset="0" stop-color="#f2f2f2"/><stop offset="1" stop-color="#cecece"/></linearGradient><linearGradient x1="237.8298" y1="177.7252" x2="227.76615" y2="203.35461" gradientUnits="userSpaceOnUse" id="color-3"><stop offset="0" stop-color="#f2f2f2"/><stop offset="1" stop-color="#cecece"/></linearGradient><linearGradient x1="235.77338" y1="240.40384" x2="267.77766" y2="226.89781" gradientUnits="userSpaceOnUse" id="color-4"><stop offset="0" stop-color="#17174a"/><stop offset="1" stop-color="#17173a"/></linearGradient><linearGradient x1="243.54089" y1="258.52366" x2="279.32484" y2="243.42257" gradientUnits="userSpaceOnUse" id="color-5"><stop offset="0" stop-color="#643a19"/><stop offset="1" stop-color="#915b32"/></linearGradient><linearGradient x1="239.21057" y1="174.02592" x2="239.21057" y2="229.61706" gradientUnits="userSpaceOnUse" id="color-6"><stop offset="0" stop-color="#2a2a84"/><stop offset="1" stop-color="#1c1c57"/></linearGradient><linearGradient x1="241.10028" y1="171.33391" x2="241.10028" y2="201.61237" gradientUnits="userSpaceOnUse" id="color-7"><stop offset="0" stop-color="#98de53"/><stop offset="1" stop-color="#68c900"/></linearGradient><linearGradient x1="207.55828" y1="227.43743" x2="241.13091" y2="236.35734" gradientUnits="userSpaceOnUse" id="color-8"><stop offset="0" stop-color="#2a2a84"/><stop offset="1" stop-color="#1c1c57"/></linearGradient><linearGradient x1="202.68578" y1="246.20991" x2="240.22335" y2="256.18326" gradientUnits="userSpaceOnUse" id="color-9"><stop offset="0" stop-color="#643a19"/><stop offset="1" stop-color="#915b32"/></linearGradient><linearGradient x1="210.84259" y1="161.86822" x2="224.00977" y2="160.32758" gradientUnits="userSpaceOnUse" id="color-10"><stop offset="0" stop-color="#82491d"/><stop offset="1" stop-color="#5a2c0a"/></linearGradient><linearGradient x1="228.44351" y1="121.33858" x2="235.57433" y2="182.28252" gradientUnits="userSpaceOnUse" id="color-11"><stop offset="0" stop-color="#ffead6"/><stop offset="1" stop-color="#f5b677"/></linearGradient><linearGradient x1="228.44351" y1="121.33858" x2="231.81205" y2="150.128" gradientUnits="userSpaceOnUse" id="color-12"><stop offset="0" stop-color="#f5b477"/><stop offset="1" stop-color="#f5b477" stop-opacity="0"/></linearGradient><linearGradient x1="215.81575" y1="134.46949" x2="226.22434" y2="133.25161" gradientUnits="userSpaceOnUse" id="color-13"><stop offset="0" stop-color="#5a2c0a"/><stop offset="1" stop-color="#82491d"/></linearGradient><linearGradient x1="191.28352" y1="109.94665" x2="266.61803" y2="101.13205" gradientUnits="userSpaceOnUse" id="color-14"><stop offset="0" stop-color="#7edf1d"/><stop offset="1" stop-color="#68c900"/></linearGradient><linearGradient x1="247.91137" y1="108.11647" x2="250.00499" y2="126.00975" gradientUnits="userSpaceOnUse" id="color-15"><stop offset="0" stop-color="#509b07"/><stop offset="1" stop-color="#346a00"/></linearGradient><radialGradient cx="266.08779" cy="157.07426" r="17.79896" gradientUnits="userSpaceOnUse" id="color-16"><stop offset="0" stop-color="#563e2d"/><stop offset="1" stop-color="#38291e"/></radialGradient><radialGradient cx="265.35711" cy="138.86891" r="13.17095" gradientUnits="userSpaceOnUse" id="color-17"><stop offset="0" stop-color="#ffead6"/><stop offset="1" stop-color="#f7c594"/></radialGradient><linearGradient x1="207.31951" y1="198.86575" x2="210.51913" y2="175.06271" gradientUnits="userSpaceOnUse" id="color-18"><stop offset="0" stop-color="#7edf1d"/><stop offset="1" stop-color="#68c900"/></linearGradient><linearGradient x1="172.77195" y1="209.75064" x2="177.50051" y2="174.57328" gradientUnits="userSpaceOnUse" id="color-19"><stop offset="0" stop-color="#f2f2f2"/><stop offset="1" stop-color="#ffffff"/></linearGradient><linearGradient x1="187.47988" y1="203.81256" x2="191.28317" y2="175.51861" gradientUnits="userSpaceOnUse" id="color-20"><stop offset="0" stop-color="#f2f2f2"/><stop offset="1" stop-color="#ffffff"/></linearGradient></defs><g transform="translate(-161.29994,-81.38552)"><g data-paper-data="{&quot;isPaintingLayer&quot;:true}" fill-rule="nonzero" stroke-linejoin="miter" stroke-miterlimit="10" stroke-dasharray="" stroke-dashoffset="0" style="mix-blend-mode: normal"><g data-paper-data="{&quot;index&quot;:null,&quot;origRot&quot;:0}" stroke-linecap="butt"><path d="M272.399,189.06258c0.01614,5.31537 -9.12024,10.28073 -18.64418,10.28622c-9.52392,0.00548 -18.58148,-1.44285 -18.58148,-1.44285l-0.22753,-15.95084c0,0 14.88755,-1.87127 22.54774,-1.8757c9.52391,-0.00551 14.8893,3.66783 14.90545,8.98318z" data-paper-data="{&quot;origRot&quot;:0,&quot;origPos&quot;:null}" fill="url(#color-1)" stroke="none" stroke-width="0"/><g data-paper-data="{&quot;origPos&quot;:null}" stroke="#cdcdcd" stroke-width="1.5"><path d="M230.1504,189.13501c0.44945,9.37805 0.4964,21.00528 -9.18632,20.88594c-7.02445,-0.08659 -17.29978,-9.52529 -15.69513,-18.76491c1.75103,-10.08255 1.73195,-19.36256 12.5476,-18.18292c10.09894,1.10146 11.8844,6.68381 12.33385,16.06188z" data-paper-data="{&quot;origRot&quot;:0,&quot;origPos&quot;:null}" fill="url(#color-2)"/><path d="M237.85347,190.04883c0.33768,7.24084 2.10468,15.4385 -3.35071,15.24609c-6.10291,-0.21526 -5.82774,-2.11641 -6.09352,-13.96222c-0.30276,-13.49458 -2.75284,-15.50697 3.94669,-15.60361c3.91205,-0.05644 5.15985,7.0789 5.49754,14.31975z" data-paper-data="{&quot;origRot&quot;:0,&quot;origPos&quot;:null}" fill="url(#color-3)"/></g></g><g data-paper-data="{&quot;origPos&quot;:null,&quot;origRot&quot;:0}" stroke-linecap="butt"><path d="M264.86744,233.51406c2.00422,4.10627 7.45376,3.74673 7.70437,4.75352c1.01395,4.07345 0.33511,7.53174 -5.23953,12.00277c-6.90544,5.53839 -13.28894,7.61774 -22.0645,6.45661c-5.97692,-0.79083 -2.79105,-4.99797 -3.18464,-11.01413c-0.14123,-2.15876 -0.69655,-4.82586 -2.34063,-10.00772c-2.05554,-6.47868 -3.49365,-19.2528 -3.49365,-19.2528c0,0 4.59741,-2.82083 9.41567,-4.94017c4.78762,-2.04575 10.39145,-2.09293 10.39145,-2.09293c0,0 4.17845,14.6027 8.81145,24.09484z" data-paper-data="{&quot;origPos&quot;:null}" fill="url(#color-4)" stroke="none" stroke-width="0"/><path d="M280.09949,251.17875c1.51576,3.59177 -1.42501,6.82645 -4.48596,9.24075c-2.006,1.58218 -13.14902,5.90514 -19.96112,5.011c-2.11486,-0.2776 -4.44349,-1.95115 -4.44349,-1.95115c0,0 -4.34515,2.65806 -4.89821,1.31032c-0.43903,-1.06986 -1.23147,-2.87277 -0.43244,-3.86135c3.43935,-4.25532 13.96756,-8.69161 19.00851,-10.81892c6.92012,-2.92033 13.73106,-2.44157 15.21271,1.06938z" data-paper-data="{&quot;origPos&quot;:null}" fill="#5c3518" stroke="#5c3518" stroke-width="1.5"/><path d="M279.93165,245.93422c0.51521,4.73551 -2.42438,9.51636 -10.24766,12.81783c-7.82329,3.30147 -18.10707,2.29573 -18.10707,2.29573c0,0 -5.53792,2.68832 -6.26573,1.28355c-1.50639,-2.90748 -3.63147,-7.79197 -2.56083,-8.43281c3.9525,-2.36581 3.39909,-1.46198 8.39858,-4.95599c3.23693,-2.2622 7.75031,-8.16127 11.38869,-9.69668c7.82329,-3.30147 16.54573,-1.10873 17.39402,6.68838z" data-paper-data="{&quot;origPos&quot;:null}" fill="url(#color-5)" stroke="#5c3518" stroke-width="1.5"/></g><g data-paper-data="{&quot;origPos&quot;:null}"><path d="M263.18836,199.59804c0.33542,23.36797 -11.23027,30.01902 -24.2383,30.01902c-13.00803,0 -23.7244,-11.0783 -23.7244,-22.29354c0,-12.16666 1.12928,-21.85193 8.41177,-29.59575c5.42567,-5.76938 13.24571,-3.072 20.2802,-3.072c13.00803,0 18.94195,2.03645 19.27073,24.94228z" data-paper-data="{&quot;origPos&quot;:null}" fill="url(#color-6)" stroke="#101032" stroke-width="1.5" stroke-linecap="butt"/><path d="M263.18836,198.93586c0,0 -14.76896,2.20728 -25.18042,2.64874c-9.54981,0.40491 -19.18508,-3.75238 -19.18508,-3.75238c0,0 -0.84489,-15.22543 5.98217,-21.14578c4.46675,-3.8735 9.49009,-5.14202 15.94364,-5.3416c6.45355,-0.19958 13.47144,2.36082 16.7202,5.75234c7.67393,8.01117 5.7195,21.83867 5.7195,21.83867z" data-paper-data="{&quot;origPos&quot;:null}" fill="url(#color-7)" stroke="#4e9707" stroke-width="1.5" stroke-linecap="butt"/><path d="M251.29003,175.63945c0,0 1.83311,7.54921 2.20291,12.08838c0.47498,5.83023 -0.49673,16.78467 -0.49673,16.78467" data-paper-data="{&quot;origPos&quot;:null,&quot;origRot&quot;:0}" fill="none" stroke="#2a2a84" stroke-width="10" stroke-linecap="round"/><path d="M232.86908,176.20086c0,0 1.06191,7.79088 0.97412,12.35359c-0.11275,5.86046 -2.17318,16.56179 -2.17318,16.56179" data-paper-data="{&quot;origPos&quot;:null}" fill="none" stroke="#2a2a84" stroke-width="10" stroke-linecap="round"/><path d="M228.38299,202.89433c0,-2.49904 1.89876,-4.14993 4.24102,-4.14993c2.34224,0 4.24103,1.65089 4.24103,4.14993c0,2.49904 -1.89877,4.27492 -4.24103,4.27492c-2.34224,0 -4.24102,-1.77587 -4.24102,-4.27492z" fill="#ffe84f" stroke="#b6a538" stroke-width="1" stroke-linecap="butt"/><path d="M249.24825,202.64433c0,-2.49904 1.83345,-4.14993 4.09513,-4.14993c2.26167,0 4.09513,1.65089 4.09513,4.14993c0,2.49904 -1.83346,4.27492 -4.09513,4.27492c-2.26167,0 -4.09513,-1.77587 -4.09513,-4.27492z" fill="#ffe84f" stroke="#b6a538" stroke-width="1" stroke-linecap="butt"/></g><g data-paper-data="{&quot;origPos&quot;:null,&quot;origRot&quot;:0}" stroke-linecap="butt"><path d="M234.86087,239.49678c-0.92993,4.47366 3.59858,7.52641 3.18021,8.47582c-1.69274,3.84133 -4.34708,6.15971 -11.49215,6.28088c-8.85077,0.15008 -15.1708,-2.11491 -21.39765,-8.40656c-4.24105,-4.28516 0.85391,-5.66043 4.2267,-10.65776c1.21026,-1.79318 2.40441,-4.2418 4.2777,-9.34527c2.3421,-6.38067 9.81634,-17.40944 9.81634,-17.40944c0,0 7.34396,1.88768 11.9526,4.06486c3.63707,1.71821 9.17599,5.91659 9.17599,5.91659c0,0 -7.5901,10.73947 -9.73975,21.08086z" data-paper-data="{&quot;origPos&quot;:null}" fill="url(#color-8)" stroke="none" stroke-width="0"/><path d="M236.08632,262.7896c-1.00106,3.76778 -5.30674,4.52432 -9.20507,4.55868c-2.55476,0.02252 -14.01148,-3.38318 -18.84953,-8.26145c-1.50199,-1.5145 -2.31821,-4.2635 -2.31821,-4.2635c0,0 -5.06288,-0.55929 -4.67485,-1.96347c0.30803,-1.11467 0.78555,-3.02526 2.0226,-3.31755c5.32483,-1.25814 16.36488,1.68147 21.65287,3.08644c7.25924,1.92871 12.35074,6.47786 11.3722,10.16086z" data-paper-data="{&quot;origPos&quot;:null}" fill="#5c3518" stroke="#5c3518" stroke-width="1.5"/><path d="M239.16511,258.54056c-2.49245,4.05932 -7.74398,6.03898 -15.95064,3.85855c-8.20666,-2.18043 -15.72105,-9.27279 -15.72105,-9.27279c0,0 -6.02441,-1.26576 -5.7396,-2.82204c0.58945,-3.22106 1.90036,-8.38396 3.13922,-8.23501c4.5735,0.54991 3.58251,0.92561 9.6746,1.22468c3.94433,0.19365 11.12483,-1.70635 14.94152,-0.6923c8.20666,2.18044 13.75983,9.25513 9.65596,15.93892z" data-paper-data="{&quot;origPos&quot;:null}" fill="url(#color-9)" stroke="#5c3518" stroke-width="1.5"/></g><g data-paper-data="{&quot;origPos&quot;:null,&quot;origRot&quot;:0}"><path d="M216.37932,168.26893c0,0 -1.25004,1.64963 -3.02941,0.10088c-1.77937,-1.54874 -3.39051,-5.4231 -1.33229,-7.60423c2.46184,-2.60885 0.85274,-10.22635 2.63211,-8.67761c0,0 6.20728,0.58588 7.10361,4.19742c0,0 3.79301,10.28854 2.94448,12.10446c0,0 -1.29586,1.84926 -5.21777,2.02621c-2.12494,0.09589 -3.10073,-2.14713 -3.10073,-2.14713z" data-paper-data="{&quot;origRot&quot;:0,&quot;origPos&quot;:null}" fill="url(#color-10)" stroke="#5c3822" stroke-width="1" stroke-linecap="butt"/><path d="M214.09472,126.60127c4.40177,0.49894 36.73869,-6.48166 42.53064,-6.83514c8.56911,-0.52297 7.11455,7.4372 8.71075,15.87256c1.83529,9.69885 0.86553,21.28498 2.39953,27.96836c1.64533,7.1684 1.42287,11.05034 -3.99139,15.22057c-15.84595,2.81852 -13.4554,-1.10412 -21.07197,-2.65473c-6.47997,-1.56105 -11.10169,-2.89369 -18.43307,-7.74933c-5.56523,-3.68589 -4.78584,-7.37125 -8.4982,-11.77666c-1.13798,-1.35042 -2.37565,-1.99701 -2.56886,-1.9744c-10.30015,1.20518 -16.95807,-6.64073 -17.89942,-14.68602c-0.94135,-8.0453 1.97147,-14.99739 7.73117,-15.67131c5.7597,-0.67392 9.56029,2.11263 11.09082,2.28611z" data-paper-data="{&quot;origPos&quot;:null}" fill="url(#color-11)" stroke="none" stroke-width="0" stroke-linecap="butt"/><path d="M214.09472,126.60127c4.40177,0.49894 36.73869,-6.48166 42.53064,-6.83514c8.56911,-0.52297 7.11455,7.4372 8.71075,15.87256c0.63335,3.34699 0.93264,6.91874 1.11606,10.4362c-15.44004,-0.29264 -30.88014,-0.5816 -46.32112,-0.8169c-5.87055,-0.08946 -14.55361,0.09021 -22.29989,2.04702c-1.38466,-2.23063 -2.25959,-4.76454 -2.55843,-7.31854c-0.94135,-8.0453 1.97147,-14.99739 7.73117,-15.67131c5.7597,-0.67392 9.56029,2.11263 11.09082,2.28611z" data-paper-data="{&quot;origPos&quot;:null}" fill="url(#color-12)" stroke="none" stroke-width="0" stroke-linecap="butt"/><path d="M281.78246,116.38249c-0.12325,3.83359 -10.80998,9.9235 -19.65963,10.95897c-7.13105,0.83438 -6.14842,-6.0816 -6.57203,-9.70198c-0.42361,-3.62038 13.64376,-4.46585 20.77481,-5.30022c7.13105,-0.83438 5.53663,1.56179 5.45685,4.04324z" data-paper-data="{&quot;origPos&quot;:null}" fill="#346a00" stroke="none" stroke-width="0" stroke-linecap="butt"/><path d="M262.55662,126.17286c0.91811,4.81478 -0.75646,9.17917 -3.74027,9.74813c-2.98381,0.56897 -6.14692,-2.87293 -7.06503,-7.6877c-0.91811,-4.81478 0.75647,-9.17916 3.74027,-9.74813c2.98381,-0.56897 6.14693,2.87293 7.06504,7.6877z" data-paper-data="{&quot;origPos&quot;:null,&quot;origRot&quot;:0}" fill="#ffffff" stroke="none" stroke-width="0" stroke-linecap="butt"/><path d="M226.53407,142.92949c-2.34179,0.95556 -5.48942,0.19886 -7.42159,-1.33171c-1.93216,-1.53057 -2.88548,-3.61342 -3.38334,-7.86844c-0.49786,-4.25501 -0.99622,-8.3749 1.6499,-8.78389c11.14095,-1.72194 4.64896,4.65614 6.63414,9.43893c2.18171,5.2563 4.334,7.80526 2.52088,8.5451z" fill="url(#color-13)" stroke="#5c3822" stroke-width="1" stroke-linecap="butt"/><path d="M250.20328,132.65713c1.13282,4.76882 -0.34462,9.20383 -3.29994,9.90586c-2.95533,0.70204 -6.26944,-2.59476 -7.40225,-7.36358c-1.13282,-4.76882 0.34462,-9.20383 3.29994,-9.90586c2.95533,-0.70204 6.26944,2.59476 7.40225,7.36358z" data-paper-data="{&quot;origPos&quot;:null,&quot;origRot&quot;:0}" fill="#ffffff" stroke="none" stroke-width="0" stroke-linecap="butt"/><path d="M247.00524,129.3581c0.94555,-0.11064 1.88248,0.47948 2.63363,1.52124c0.75016,1.04188 1.31467,2.5364 1.51351,4.23581c0.19884,1.69941 -0.00541,3.28388 -0.49479,4.47079c-0.49037,1.18703 -1.26576,1.9775 -2.21131,2.08813c-0.94555,0.11064 -1.88248,-0.47948 -2.63363,-1.52124c-0.75016,-1.04188 -1.31467,-2.5364 -1.51351,-4.23581c-0.19884,-1.69941 0.00541,-3.28388 0.49479,-4.47079c0.49037,-1.18703 1.26576,-1.9775 2.21131,-2.08813z" data-paper-data="{&quot;origPos&quot;:null}" fill="#000000" stroke="#00aaff" stroke-width="1.5" stroke-linecap="butt"/><path d="M259.38838,123.32816c0.94555,-0.11064 1.88248,0.47948 2.63363,1.52124c0.75016,1.04188 1.10723,2.79426 1.51351,4.23581c0.14508,0.5257 0.38517,1.28696 0.0602,1.80524c-0.41267,0.62922 -1.17319,0.99609 -1.85861,1.32497c-1.21727,0.4042 -2.60887,1.34933 -3.77743,0.84471c-1.02686,-0.46381 -1.13243,-2.02008 -1.27741,-3.17305c-0.18735,-1.48932 0.00541,-3.28388 0.49479,-4.47079c0.49037,-1.18703 1.26576,-1.9775 2.21131,-2.08813z" data-paper-data="{&quot;origPos&quot;:null}" fill="#000000" stroke="#00aaff" stroke-width="1.5" stroke-linecap="round"/><path d="M264.6313,91.17956c4.117,14.56485 1.3467,15.74466 -6.0724,21.42974c-10.81025,8.28363 -26.17454,8.66045 -37.95772,15.48956c-3.09395,1.79314 -11.80209,-0.66512 -15.35387,-0.24954c-7.26442,0.84998 -11.97085,-3.86225 -12.9946,-10.01111c-2.25816,-13.56297 4.45231,-14.40176 11.71673,-15.25174c0,0 8.14977,0.38967 11.40756,4.30804c0,0 9.00447,-19.39686 20.4668,-23.00417c14.75523,-4.64363 25.83096,-3.17026 28.78751,7.28922z" data-paper-data="{&quot;origPos&quot;:null}" fill="url(#color-14)" stroke="none" stroke-width="0" stroke-linecap="butt"/><path d="M262.7477,99.98346c0.63541,5.43057 -0.3398,9.68628 -10.96682,11.25072c-11.21872,1.65155 -12.63244,-2.98455 -13.26785,-8.41512c-0.63541,-5.43057 4.2746,-10.46769 10.96682,-11.25072c6.69222,-0.78303 12.63244,2.98455 13.26785,8.41512z" data-paper-data="{&quot;origPos&quot;:null}" fill="#ffffff" stroke="none" stroke-width="0" stroke-linecap="butt"/><path d="M281.93568,114.25023c-0.09888,0.87591 -38.32088,11.02812 -49.06434,13.49336c-5.22146,1.19814 -15.97249,2.02844 -15.87362,1.15253c0.36552,-3.23792 1.82772,-8.51508 6.69596,-10.75101c5.88301,-2.70199 26.25251,-10.5021 41.9805,-12.09907c6.42952,-0.65283 16.62702,4.96627 16.2615,8.20419z" data-paper-data="{&quot;origPos&quot;:null}" fill="url(#color-15)" stroke="none" stroke-width="0" stroke-linecap="butt"/><path d="M247.64543,108.01519l-3.58945,-11.98629l5.46751,-1.20518l0.33814,9.50758l7.24074,-2.49918l-0.87655,3.83669z" data-paper-data="{&quot;origPos&quot;:null}" fill="#64ca00" stroke="none" stroke-width="0" stroke-linecap="butt"/><path d="M266.64795,161.77919c-0.07243,2.57422 -2.47664,3.31307 -3.86693,3.87042c-4.24316,1.70108 -8.01508,1.39598 -16.21978,-0.61128c-2.65639,-0.64988 -6.6485,-15.6648 -0.4193,-13.18732c0,0 12.43043,3.33435 18.32183,2.3026c0,0 9.04925,-5.60062 12.03961,-5.75138c1.48308,-0.07477 1.85355,3.00811 1.57153,4.62007c0,0 0.68076,4.50921 -1.24626,5.88112c-2.71244,2.47559 -4.94964,1.79744 -4.97061,2.54243z" data-paper-data="{&quot;origPos&quot;:null}" fill="url(#color-16)" stroke="none" stroke-width="0" stroke-linecap="butt"/><path d="M275.29854,142.44773c0.27249,6.63128 2.41264,10.9186 -11.8964,12.34114c-6.59491,0.65563 -13.40663,-2.71736 -14.08858,-8.54562c-0.68194,-5.82826 4.8257,-13.76433 11.32851,-15.04345c9.47502,-1.86375 14.22052,0.63887 14.65647,11.24794z" data-paper-data="{&quot;origPos&quot;:null}" fill="url(#color-17)" stroke="#c79260" stroke-width="1.5" stroke-linecap="butt"/><g data-paper-data="{&quot;origPos&quot;:null}" fill="none" stroke="#c79260" stroke-width="3.5" stroke-linecap="round"><path d="M201.10243,134.96272c0,0 2.7422,-2.06262 6.84862,0.40633c5.88928,3.54088 3.55137,11.034 3.55137,11.034" data-paper-data="{&quot;origPos&quot;:null}"/><path d="M210.53797,140.6188l-5.95935,0.69728" data-paper-data="{&quot;origPos&quot;:null}"/><path d="M209.39068,146.79395l1.277,-0.14942" data-paper-data="{&quot;origPos&quot;:null}"/></g><path d="M239.40091,123.2014c-1.31876,0.56737 -1.23147,0.75285 -1.74708,2.0927c-0.53191,1.38224 -1.78344,3.22865 -1.78344,3.22865c0,0 -1.86996,-3.43301 -2.18285,-6.10715c-0.21245,-1.81571 0.40389,-5.09587 3.12824,-6.05803c9.42925,-1.42636 7.65401,7.81438 7.65401,7.81438c0,0 -3.68886,-1.60538 -5.06887,-0.97054z" data-paper-data="{&quot;origPos&quot;:null}" fill="#38291e" stroke="none" stroke-width="0" stroke-linecap="butt"/><path d="M256.21862,118.40844c-1.49577,0.26478 -3.6121,3.68621 -3.6121,3.68621c0,0 -6.72498,-6.5816 1.8361,-10.78318c2.78698,-0.76196 5.16278,1.58217 6.02296,3.19524c1.26686,2.37571 1.68672,6.26236 1.68672,6.26236c0,0 -2.08066,-0.804 -3.30547,-1.63668c-1.18725,-0.80715 -1.22123,-1.00931 -2.62821,-0.72398z" data-paper-data="{&quot;origPos&quot;:null,&quot;index&quot;:null,&quot;origRot&quot;:0}" fill="#38291e" stroke="none" stroke-width="0" stroke-linecap="butt"/><path d="M247.4065,129.69744c0.36077,-0.08972 0.76531,0.14215 1.12787,0.58873c0.36218,0.44668 0.6825,1.1085 0.8742,1.87933c0.1917,0.77082 0.21869,1.5056 0.10793,2.06988c-0.11114,0.56438 -0.35995,0.95873 -0.72072,1.04844c-0.36077,0.08972 -0.76531,-0.14215 -1.12787,-0.58873c-0.36218,-0.44668 -0.68251,-1.10849 -0.8742,-1.87933c-0.1917,-0.77082 -0.21869,-1.5056 -0.10792,-2.06988c0.11114,-0.56438 0.35995,-0.95873 0.72073,-1.04844z" data-paper-data="{&quot;origPos&quot;:null,&quot;origRot&quot;:0}" fill="#ffffff" stroke="#00aaff" stroke-width="0" stroke-linecap="butt"/><path d="M259.92349,123.92451c0.36078,-0.08972 0.76531,0.14214 1.12787,0.58873c0.36218,0.44668 0.6825,1.1085 0.87419,1.87933c0.1917,0.77082 0.21869,1.5056 0.10793,2.06988c-0.11115,0.56438 -0.35995,0.95873 -0.72072,1.04844c-0.36078,0.08973 -0.76531,-0.14214 -1.12787,-0.58873c-0.36218,-0.44668 -0.6825,-1.1085 -0.87419,-1.87933c-0.1917,-0.77082 -0.21869,-1.5056 -0.10793,-2.06988c0.11115,-0.56438 0.35995,-0.95873 0.72073,-1.04845z" data-paper-data="{&quot;origPos&quot;:null,&quot;origRot&quot;:0}" fill="#ffffff" stroke="#00aaff" stroke-width="0" stroke-linecap="butt"/></g><g data-paper-data="{&quot;index&quot;:null}" stroke-linecap="butt"><path d="M212.65752,176.39305c9.45624,-1.13423 15.20067,1.87948 15.81987,7.15863c0.6192,5.27914 -7.8894,11.29529 -17.34564,12.42953c-9.45623,1.13424 -18.61437,0.76872 -18.61437,0.76872l-2.03596,-15.82095c0,0 14.57037,-3.62366 22.17612,-4.53593z" data-paper-data="{&quot;origRot&quot;:0,&quot;origPos&quot;:null}" fill="url(#color-18)" stroke="none" stroke-width="0"/><g data-paper-data="{&quot;origPos&quot;:null}" stroke="#cdcdcd" stroke-width="1.5"><path d="M172.46491,174.13447c10.15281,-0.10256 12.55917,5.23215 14.06963,14.49643c1.51046,9.26428 2.8765,20.81091 -6.75158,21.83992c-6.98482,0.74651 -18.25886,-7.41344 -17.71398,-16.78363c0.59458,-10.22502 -0.47744,-19.44289 10.39592,-19.55272z" data-paper-data="{&quot;origRot&quot;:0,&quot;origPos&quot;:null}" fill="url(#color-19)"/><path d="M187.20328,175.05009c3.8781,-0.51973 5.9268,6.4217 7.08376,13.57579c1.15695,7.15409 3.84173,15.08944 -1.59707,15.54482c-6.08438,0.50945 -6.02688,-1.41206 -7.63499,-13.14992c-1.83193,-13.3716 -4.49313,-15.08065 2.14828,-15.97069z" data-paper-data="{&quot;origRot&quot;:0,&quot;origPos&quot;:null}" fill="url(#color-20)"/></g></g></g></g></svg>