<svg version="1.1" xmlns="http://www.w3.org/2000/svg" xmlns:xlink="http://www.w3.org/1999/xlink" width="287.48162" height="139.92025" viewBox="0,0,287.48162,139.92025"><defs><linearGradient x1="192.35944" y1="120.56413" x2="192.35944" y2="149.42567" gradientUnits="userSpaceOnUse" id="color-1"><stop offset="0" stop-color="#000000"/><stop offset="1" stop-color="#1b1b1b"/></linearGradient><linearGradient x1="192.35944" y1="120.56413" x2="192.35944" y2="149.42567" gradientUnits="userSpaceOnUse" id="color-2"><stop offset="0" stop-color="#000000"/><stop offset="1" stop-color="#191919"/></linearGradient><linearGradient x1="143.71826" y1="154.00479" x2="143.71826" y2="207.71304" gradientUnits="userSpaceOnUse" id="color-3"><stop offset="0" stop-color="#000000"/><stop offset="1" stop-color="#1b1b1b"/></linearGradient><linearGradient x1="143.71826" y1="154.00479" x2="143.71826" y2="207.71304" gradientUnits="userSpaceOnUse" id="color-4"><stop offset="0" stop-color="#000000"/><stop offset="1" stop-color="#191919"/></linearGradient><linearGradient x1="206.66478" y1="154.21262" x2="206.66478" y2="207.71304" gradientUnits="userSpaceOnUse" id="color-5"><stop offset="0" stop-color="#000000"/><stop offset="1" stop-color="#1b1b1b"/></linearGradient><linearGradient x1="206.66478" y1="154.21262" x2="206.66478" y2="207.71304" gradientUnits="userSpaceOnUse" id="color-6"><stop offset="0" stop-color="#000000"/><stop offset="1" stop-color="#191919"/></linearGradient><linearGradient x1="263.51183" y1="154.04763" x2="263.51183" y2="207.71305" gradientUnits="userSpaceOnUse" id="color-7"><stop offset="0" stop-color="#000000"/><stop offset="1" stop-color="#1b1b1b"/></linearGradient><linearGradient x1="263.51183" y1="154.04763" x2="263.51183" y2="207.71305" gradientUnits="userSpaceOnUse" id="color-8"><stop offset="0" stop-color="#000000"/><stop offset="1" stop-color="#191919"/></linearGradient><linearGradient x1="302.43119" y1="155.44965" x2="302.43119" y2="207.42375" gradientUnits="userSpaceOnUse" id="color-9"><stop offset="0" stop-color="#000000"/><stop offset="1" stop-color="#1b1b1b"/></linearGradient><linearGradient x1="302.43119" y1="155.44965" x2="302.43119" y2="207.42375" gradientUnits="userSpaceOnUse" id="color-10"><stop offset="0" stop-color="#000000"/><stop offset="1" stop-color="#191919"/></linearGradient><linearGradient x1="342.92324" y1="154.58357" x2="342.92324" y2="207.01212" gradientUnits="userSpaceOnUse" id="color-11"><stop offset="0" stop-color="#000000"/><stop offset="1" stop-color="#1b1b1b"/></linearGradient><linearGradient x1="342.92324" y1="154.58357" x2="342.92324" y2="207.01212" gradientUnits="userSpaceOnUse" id="color-12"><stop offset="0" stop-color="#000000"/><stop offset="1" stop-color="#191919"/></linearGradient><linearGradient x1="156.52371" y1="216.05391" x2="156.52371" y2="235.91902" gradientUnits="userSpaceOnUse" id="color-13"><stop offset="0" stop-color="#000000"/><stop offset="1" stop-color="#1b1b1b"/></linearGradient><linearGradient x1="156.52371" y1="216.05391" x2="156.52371" y2="235.91902" gradientUnits="userSpaceOnUse" id="color-14"><stop offset="0" stop-color="#000000"/><stop offset="1" stop-color="#191919"/></linearGradient><linearGradient x1="176.0469" y1="216.05615" x2="176.0469" y2="235.90466" gradientUnits="userSpaceOnUse" id="color-15"><stop offset="0" stop-color="#000000"/><stop offset="1" stop-color="#1b1b1b"/></linearGradient><linearGradient x1="176.0469" y1="216.05615" x2="176.0469" y2="235.90466" gradientUnits="userSpaceOnUse" id="color-16"><stop offset="0" stop-color="#000000"/><stop offset="1" stop-color="#191919"/></linearGradient><linearGradient x1="235.6485" y1="215.90103" x2="235.6485" y2="235.98276" gradientUnits="userSpaceOnUse" id="color-17"><stop offset="0" stop-color="#000000"/><stop offset="1" stop-color="#1b1b1b"/></linearGradient><linearGradient x1="235.6485" y1="215.90103" x2="235.6485" y2="235.98276" gradientUnits="userSpaceOnUse" id="color-18"><stop offset="0" stop-color="#000000"/><stop offset="1" stop-color="#191919"/></linearGradient><linearGradient x1="256.64781" y1="215.92724" x2="256.64781" y2="239.10254" gradientUnits="userSpaceOnUse" id="color-19"><stop offset="0" stop-color="#000000"/><stop offset="1" stop-color="#1b1b1b"/></linearGradient><linearGradient x1="256.64781" y1="215.92724" x2="256.64781" y2="239.10254" gradientUnits="userSpaceOnUse" id="color-20"><stop offset="0" stop-color="#000000"/><stop offset="1" stop-color="#191919"/></linearGradient><linearGradient x1="138.55603" y1="216.21542" x2="138.55603" y2="236.14006" gradientUnits="userSpaceOnUse" id="color-21"><stop offset="0" stop-color="#000000"/><stop offset="1" stop-color="#1b1b1b"/></linearGradient><linearGradient x1="138.55603" y1="216.21542" x2="138.55603" y2="236.14006" gradientUnits="userSpaceOnUse" id="color-22"><stop offset="0" stop-color="#000000"/><stop offset="1" stop-color="#191919"/></linearGradient><linearGradient x1="197.28079" y1="216.18942" x2="197.28079" y2="236.1663" gradientUnits="userSpaceOnUse" id="color-23"><stop offset="0" stop-color="#000000"/><stop offset="1" stop-color="#1b1b1b"/></linearGradient><linearGradient x1="197.28079" y1="216.18942" x2="197.28079" y2="236.1663" gradientUnits="userSpaceOnUse" id="color-24"><stop offset="0" stop-color="#000000"/><stop offset="1" stop-color="#191919"/></linearGradient><linearGradient x1="217.20523" y1="216.21542" x2="217.20523" y2="236.14006" gradientUnits="userSpaceOnUse" id="color-25"><stop offset="0" stop-color="#000000"/><stop offset="1" stop-color="#1b1b1b"/></linearGradient><linearGradient x1="217.20523" y1="216.21542" x2="217.20523" y2="236.14006" gradientUnits="userSpaceOnUse" id="color-26"><stop offset="0" stop-color="#000000"/><stop offset="1" stop-color="#191919"/></linearGradient><linearGradient x1="114.72728" y1="210.53931" x2="114.72728" y2="218.59556" gradientUnits="userSpaceOnUse" id="color-27"><stop offset="0" stop-color="#000000"/><stop offset="1" stop-color="#1b1b1b"/></linearGradient><linearGradient x1="114.72728" y1="210.53931" x2="114.72728" y2="218.59556" gradientUnits="userSpaceOnUse" id="color-28"><stop offset="0" stop-color="#000000"/><stop offset="1" stop-color="#191919"/></linearGradient><linearGradient x1="114.9222" y1="211.41676" x2="114.9222" y2="217.98894" gradientUnits="userSpaceOnUse" id="color-29"><stop offset="0" stop-color="#000000"/><stop offset="1" stop-color="#1b1b1b"/></linearGradient><linearGradient x1="114.9222" y1="211.41676" x2="114.9222" y2="217.98894" gradientUnits="userSpaceOnUse" id="color-30"><stop offset="0" stop-color="#000000"/><stop offset="1" stop-color="#191919"/></linearGradient><linearGradient x1="114.99874" y1="212.38786" x2="114.99874" y2="216.95834" gradientUnits="userSpaceOnUse" id="color-31"><stop offset="0" stop-color="#000000"/><stop offset="1" stop-color="#1b1b1b"/></linearGradient><linearGradient x1="114.99874" y1="212.38786" x2="114.99874" y2="216.95834" gradientUnits="userSpaceOnUse" id="color-32"><stop offset="0" stop-color="#000000"/><stop offset="1" stop-color="#191919"/></linearGradient><linearGradient x1="123.68183" y1="210.35516" x2="123.68183" y2="219.24258" gradientUnits="userSpaceOnUse" id="color-33"><stop offset="0" stop-color="#000000"/><stop offset="1" stop-color="#1b1b1b"/></linearGradient><linearGradient x1="123.68183" y1="210.35516" x2="123.68183" y2="219.24258" gradientUnits="userSpaceOnUse" id="color-34"><stop offset="0" stop-color="#000000"/><stop offset="1" stop-color="#191919"/></linearGradient><linearGradient x1="123.48242" y1="211.48198" x2="123.48242" y2="217.49375" gradientUnits="userSpaceOnUse" id="color-35"><stop offset="0" stop-color="#000000"/><stop offset="1" stop-color="#1b1b1b"/></linearGradient><linearGradient x1="123.48242" y1="211.48198" x2="123.48242" y2="217.49375" gradientUnits="userSpaceOnUse" id="color-36"><stop offset="0" stop-color="#000000"/><stop offset="1" stop-color="#191919"/></linearGradient><linearGradient x1="123.5397" y1="212.57547" x2="123.5397" y2="216.72668" gradientUnits="userSpaceOnUse" id="color-37"><stop offset="0" stop-color="#000000"/><stop offset="1" stop-color="#1b1b1b"/></linearGradient><linearGradient x1="123.5397" y1="212.57547" x2="123.5397" y2="216.72668" gradientUnits="userSpaceOnUse" id="color-38"><stop offset="0" stop-color="#000000"/><stop offset="1" stop-color="#191919"/></linearGradient><linearGradient x1="120.4536" y1="215.95329" x2="120.4536" y2="236.08764" gradientUnits="userSpaceOnUse" id="color-39"><stop offset="0" stop-color="#000000"/><stop offset="1" stop-color="#1b1b1b"/></linearGradient><linearGradient x1="120.4536" y1="215.95329" x2="120.4536" y2="236.08764" gradientUnits="userSpaceOnUse" id="color-40"><stop offset="0" stop-color="#000000"/><stop offset="1" stop-color="#191919"/></linearGradient><linearGradient x1="294.35687" y1="215.84856" x2="294.35687" y2="236.1663" gradientUnits="userSpaceOnUse" id="color-41"><stop offset="0" stop-color="#000000"/><stop offset="1" stop-color="#1b1b1b"/></linearGradient><linearGradient x1="294.35687" y1="215.84856" x2="294.35687" y2="236.1663" gradientUnits="userSpaceOnUse" id="color-42"><stop offset="0" stop-color="#000000"/><stop offset="1" stop-color="#191919"/></linearGradient><linearGradient x1="324.60699" y1="216.05391" x2="324.60699" y2="235.91902" gradientUnits="userSpaceOnUse" id="color-43"><stop offset="0" stop-color="#000000"/><stop offset="1" stop-color="#1b1b1b"/></linearGradient><linearGradient x1="324.60699" y1="216.05391" x2="324.60699" y2="235.91902" gradientUnits="userSpaceOnUse" id="color-44"><stop offset="0" stop-color="#000000"/><stop offset="1" stop-color="#191919"/></linearGradient><linearGradient x1="342.55137" y1="215.95257" x2="342.55137" y2="236.01729" gradientUnits="userSpaceOnUse" id="color-45"><stop offset="0" stop-color="#000000"/><stop offset="1" stop-color="#1b1b1b"/></linearGradient><linearGradient x1="342.55137" y1="215.95257" x2="342.55137" y2="236.01729" gradientUnits="userSpaceOnUse" id="color-46"><stop offset="0" stop-color="#000000"/><stop offset="1" stop-color="#191919"/></linearGradient><linearGradient x1="360.54987" y1="215.95305" x2="360.54987" y2="236.02055" gradientUnits="userSpaceOnUse" id="color-47"><stop offset="0" stop-color="#000000"/><stop offset="1" stop-color="#1b1b1b"/></linearGradient><linearGradient x1="360.54987" y1="215.95305" x2="360.54987" y2="236.02055" gradientUnits="userSpaceOnUse" id="color-48"><stop offset="0" stop-color="#000000"/><stop offset="1" stop-color="#191919"/></linearGradient><linearGradient x1="189.53419" y1="118.8884" x2="189.53419" y2="148.39922" gradientUnits="userSpaceOnUse" id="color-49"><stop offset="0" stop-color="#000000"/><stop offset="1" stop-color="#1b1b1b"/></linearGradient><linearGradient x1="189.53419" y1="118.8884" x2="189.53419" y2="148.39922" gradientUnits="userSpaceOnUse" id="color-50"><stop offset="0" stop-color="#000000"/><stop offset="1" stop-color="#191919"/></linearGradient><linearGradient x1="139.79876" y1="153.08135" x2="139.79876" y2="207.99783" gradientUnits="userSpaceOnUse" id="color-51"><stop offset="0" stop-color="#000000"/><stop offset="1" stop-color="#1b1b1b"/></linearGradient><linearGradient x1="139.79876" y1="153.08135" x2="139.79876" y2="207.99783" gradientUnits="userSpaceOnUse" id="color-52"><stop offset="0" stop-color="#000000"/><stop offset="1" stop-color="#191919"/></linearGradient><linearGradient x1="204.16134" y1="153.29385" x2="204.16134" y2="207.99783" gradientUnits="userSpaceOnUse" id="color-53"><stop offset="0" stop-color="#000000"/><stop offset="1" stop-color="#1b1b1b"/></linearGradient><linearGradient x1="204.16134" y1="153.29385" x2="204.16134" y2="207.99783" gradientUnits="userSpaceOnUse" id="color-54"><stop offset="0" stop-color="#000000"/><stop offset="1" stop-color="#191919"/></linearGradient><linearGradient x1="262.28724" y1="153.12515" x2="262.28724" y2="207.99784" gradientUnits="userSpaceOnUse" id="color-55"><stop offset="0" stop-color="#000000"/><stop offset="1" stop-color="#1b1b1b"/></linearGradient><linearGradient x1="262.28724" y1="153.12515" x2="262.28724" y2="207.99784" gradientUnits="userSpaceOnUse" id="color-56"><stop offset="0" stop-color="#000000"/><stop offset="1" stop-color="#191919"/></linearGradient><linearGradient x1="302.08213" y1="154.55872" x2="302.08213" y2="207.70203" gradientUnits="userSpaceOnUse" id="color-57"><stop offset="0" stop-color="#000000"/><stop offset="1" stop-color="#1b1b1b"/></linearGradient><linearGradient x1="302.08213" y1="154.55872" x2="302.08213" y2="207.70203" gradientUnits="userSpaceOnUse" id="color-58"><stop offset="0" stop-color="#000000"/><stop offset="1" stop-color="#191919"/></linearGradient><linearGradient x1="343.4851" y1="153.67315" x2="343.4851" y2="207.28114" gradientUnits="userSpaceOnUse" id="color-59"><stop offset="0" stop-color="#000000"/><stop offset="1" stop-color="#1b1b1b"/></linearGradient><linearGradient x1="343.4851" y1="153.67315" x2="343.4851" y2="207.28114" gradientUnits="userSpaceOnUse" id="color-60"><stop offset="0" stop-color="#000000"/><stop offset="1" stop-color="#191919"/></linearGradient><linearGradient x1="152.89229" y1="216.52634" x2="152.89229" y2="236.83834" gradientUnits="userSpaceOnUse" id="color-61"><stop offset="0" stop-color="#000000"/><stop offset="1" stop-color="#1b1b1b"/></linearGradient><linearGradient x1="152.89229" y1="216.52634" x2="152.89229" y2="236.83834" gradientUnits="userSpaceOnUse" id="color-62"><stop offset="0" stop-color="#000000"/><stop offset="1" stop-color="#191919"/></linearGradient><linearGradient x1="172.85467" y1="216.52863" x2="172.85467" y2="236.82366" gradientUnits="userSpaceOnUse" id="color-63"><stop offset="0" stop-color="#000000"/><stop offset="1" stop-color="#1b1b1b"/></linearGradient><linearGradient x1="172.85467" y1="216.52863" x2="172.85467" y2="236.82366" gradientUnits="userSpaceOnUse" id="color-64"><stop offset="0" stop-color="#000000"/><stop offset="1" stop-color="#191919"/></linearGradient><linearGradient x1="233.79709" y1="216.37003" x2="233.79709" y2="236.90352" gradientUnits="userSpaceOnUse" id="color-65"><stop offset="0" stop-color="#000000"/><stop offset="1" stop-color="#1b1b1b"/></linearGradient><linearGradient x1="233.79709" y1="216.37003" x2="233.79709" y2="236.90352" gradientUnits="userSpaceOnUse" id="color-66"><stop offset="0" stop-color="#000000"/><stop offset="1" stop-color="#191919"/></linearGradient><linearGradient x1="255.26881" y1="216.39683" x2="255.26881" y2="240.09348" gradientUnits="userSpaceOnUse" id="color-67"><stop offset="0" stop-color="#000000"/><stop offset="1" stop-color="#1b1b1b"/></linearGradient><linearGradient x1="255.26881" y1="216.39683" x2="255.26881" y2="240.09348" gradientUnits="userSpaceOnUse" id="color-68"><stop offset="0" stop-color="#000000"/><stop offset="1" stop-color="#191919"/></linearGradient><linearGradient x1="134.5204" y1="216.69149" x2="134.5204" y2="237.06435" gradientUnits="userSpaceOnUse" id="color-69"><stop offset="0" stop-color="#000000"/><stop offset="1" stop-color="#1b1b1b"/></linearGradient><linearGradient x1="134.5204" y1="216.69149" x2="134.5204" y2="237.06435" gradientUnits="userSpaceOnUse" id="color-70"><stop offset="0" stop-color="#000000"/><stop offset="1" stop-color="#191919"/></linearGradient><linearGradient x1="194.56624" y1="216.6649" x2="194.56624" y2="237.09118" gradientUnits="userSpaceOnUse" id="color-71"><stop offset="0" stop-color="#000000"/><stop offset="1" stop-color="#1b1b1b"/></linearGradient><linearGradient x1="194.56624" y1="216.6649" x2="194.56624" y2="237.09118" gradientUnits="userSpaceOnUse" id="color-72"><stop offset="0" stop-color="#000000"/><stop offset="1" stop-color="#191919"/></linearGradient><linearGradient x1="214.93892" y1="216.69149" x2="214.93892" y2="237.06435" gradientUnits="userSpaceOnUse" id="color-73"><stop offset="0" stop-color="#000000"/><stop offset="1" stop-color="#1b1b1b"/></linearGradient><linearGradient x1="214.93892" y1="216.69149" x2="214.93892" y2="237.06435" gradientUnits="userSpaceOnUse" id="color-74"><stop offset="0" stop-color="#000000"/><stop offset="1" stop-color="#191919"/></linearGradient><linearGradient x1="110.1556" y1="210.88768" x2="110.1556" y2="219.12516" gradientUnits="userSpaceOnUse" id="color-75"><stop offset="0" stop-color="#000000"/><stop offset="1" stop-color="#1b1b1b"/></linearGradient><linearGradient x1="110.1556" y1="210.88768" x2="110.1556" y2="219.12516" gradientUnits="userSpaceOnUse" id="color-76"><stop offset="0" stop-color="#000000"/><stop offset="1" stop-color="#191919"/></linearGradient><linearGradient x1="110.3549" y1="211.78488" x2="110.3549" y2="218.5049" gradientUnits="userSpaceOnUse" id="color-77"><stop offset="0" stop-color="#000000"/><stop offset="1" stop-color="#1b1b1b"/></linearGradient><linearGradient x1="110.3549" y1="211.78488" x2="110.3549" y2="218.5049" gradientUnits="userSpaceOnUse" id="color-78"><stop offset="0" stop-color="#000000"/><stop offset="1" stop-color="#191919"/></linearGradient><linearGradient x1="110.43316" y1="212.77782" x2="110.43316" y2="217.45112" gradientUnits="userSpaceOnUse" id="color-79"><stop offset="0" stop-color="#000000"/><stop offset="1" stop-color="#1b1b1b"/></linearGradient><linearGradient x1="110.43316" y1="212.77782" x2="110.43316" y2="217.45112" gradientUnits="userSpaceOnUse" id="color-80"><stop offset="0" stop-color="#000000"/><stop offset="1" stop-color="#191919"/></linearGradient><linearGradient x1="119.31159" y1="210.69939" x2="119.31159" y2="219.78675" gradientUnits="userSpaceOnUse" id="color-81"><stop offset="0" stop-color="#000000"/><stop offset="1" stop-color="#1b1b1b"/></linearGradient><linearGradient x1="119.31159" y1="210.69939" x2="119.31159" y2="219.78675" gradientUnits="userSpaceOnUse" id="color-82"><stop offset="0" stop-color="#000000"/><stop offset="1" stop-color="#191919"/></linearGradient><linearGradient x1="119.1077" y1="211.85156" x2="119.1077" y2="217.99857" gradientUnits="userSpaceOnUse" id="color-83"><stop offset="0" stop-color="#000000"/><stop offset="1" stop-color="#1b1b1b"/></linearGradient><linearGradient x1="119.1077" y1="211.85156" x2="119.1077" y2="217.99857" gradientUnits="userSpaceOnUse" id="color-84"><stop offset="0" stop-color="#000000"/><stop offset="1" stop-color="#191919"/></linearGradient><linearGradient x1="119.16626" y1="212.96965" x2="119.16626" y2="217.21424" gradientUnits="userSpaceOnUse" id="color-85"><stop offset="0" stop-color="#000000"/><stop offset="1" stop-color="#1b1b1b"/></linearGradient><linearGradient x1="119.16626" y1="212.96965" x2="119.16626" y2="217.21424" gradientUnits="userSpaceOnUse" id="color-86"><stop offset="0" stop-color="#000000"/><stop offset="1" stop-color="#191919"/></linearGradient><linearGradient x1="116.01073" y1="216.42345" x2="116.01073" y2="237.01076" gradientUnits="userSpaceOnUse" id="color-87"><stop offset="0" stop-color="#000000"/><stop offset="1" stop-color="#1b1b1b"/></linearGradient><linearGradient x1="116.01073" y1="216.42345" x2="116.01073" y2="237.01076" gradientUnits="userSpaceOnUse" id="color-88"><stop offset="0" stop-color="#000000"/><stop offset="1" stop-color="#191919"/></linearGradient><linearGradient x1="293.82617" y1="216.31637" x2="293.82617" y2="237.09118" gradientUnits="userSpaceOnUse" id="color-89"><stop offset="0" stop-color="#000000"/><stop offset="1" stop-color="#1b1b1b"/></linearGradient><linearGradient x1="293.82617" y1="216.31637" x2="293.82617" y2="237.09118" gradientUnits="userSpaceOnUse" id="color-90"><stop offset="0" stop-color="#000000"/><stop offset="1" stop-color="#191919"/></linearGradient><linearGradient x1="324.7568" y1="216.52634" x2="324.7568" y2="236.83834" gradientUnits="userSpaceOnUse" id="color-91"><stop offset="0" stop-color="#000000"/><stop offset="1" stop-color="#1b1b1b"/></linearGradient><linearGradient x1="324.7568" y1="216.52634" x2="324.7568" y2="236.83834" gradientUnits="userSpaceOnUse" id="color-92"><stop offset="0" stop-color="#000000"/><stop offset="1" stop-color="#191919"/></linearGradient><linearGradient x1="343.10487" y1="216.42272" x2="343.10487" y2="236.93882" gradientUnits="userSpaceOnUse" id="color-93"><stop offset="0" stop-color="#000000"/><stop offset="1" stop-color="#1b1b1b"/></linearGradient><linearGradient x1="343.10487" y1="216.42272" x2="343.10487" y2="236.93882" gradientUnits="userSpaceOnUse" id="color-94"><stop offset="0" stop-color="#000000"/><stop offset="1" stop-color="#191919"/></linearGradient><linearGradient x1="361.50826" y1="216.42321" x2="361.50826" y2="236.94215" gradientUnits="userSpaceOnUse" id="color-95"><stop offset="0" stop-color="#000000"/><stop offset="1" stop-color="#1b1b1b"/></linearGradient><linearGradient x1="361.50826" y1="216.42321" x2="361.50826" y2="236.94215" gradientUnits="userSpaceOnUse" id="color-96"><stop offset="0" stop-color="#000000"/><stop offset="1" stop-color="#191919"/></linearGradient><linearGradient x1="122.52197" y1="119.8136" x2="122.52197" y2="148.47352" gradientUnits="userSpaceOnUse" id="color-97"><stop offset="0" stop-color="#ffffff"/><stop offset="1" stop-color="#dae0e7"/></linearGradient><linearGradient x1="111.52218" y1="153.06623" x2="111.52218" y2="206.93374" gradientUnits="userSpaceOnUse" id="color-98"><stop offset="0" stop-color="#ff1818"/><stop offset="1" stop-color="#e11515"/></linearGradient><linearGradient x1="177.26375" y1="153.27469" x2="177.26375" y2="206.93374" gradientUnits="userSpaceOnUse" id="color-99"><stop offset="0" stop-color="#1ce11c"/><stop offset="1" stop-color="#1acf1a"/></linearGradient><linearGradient x1="263.36335" y1="153.10922" x2="263.36335" y2="206.93375" gradientUnits="userSpaceOnUse" id="color-100"><stop offset="0" stop-color="#ffe530"/><stop offset="1" stop-color="#ffd628"/></linearGradient><linearGradient x1="302.39809" y1="154.5154" x2="302.39809" y2="206.64359" gradientUnits="userSpaceOnUse" id="color-101"><stop offset="0" stop-color="#239eff"/><stop offset="1" stop-color="#1e8be1"/></linearGradient><linearGradient x1="343.0102" y1="153.64675" x2="343.0102" y2="206.23074" gradientUnits="userSpaceOnUse" id="color-102"><stop offset="0" stop-color="#f06dff"/><stop offset="1" stop-color="#e044e3"/></linearGradient><linearGradient x1="156.05802" y1="215.2993" x2="156.05802" y2="235.22333" gradientUnits="userSpaceOnUse" id="color-103"><stop offset="0" stop-color="#ffed4d"/><stop offset="1" stop-color="#e6bd22"/></linearGradient><linearGradient x1="175.63909" y1="215.3016" x2="175.63909" y2="235.20897" gradientUnits="userSpaceOnUse" id="color-104"><stop offset="0" stop-color="#ffed4d"/><stop offset="1" stop-color="#e6bd22"/></linearGradient><linearGradient x1="235.41739" y1="215.14601" x2="235.41739" y2="235.28729" gradientUnits="userSpaceOnUse" id="color-105"><stop offset="0" stop-color="#ffed4d"/><stop offset="1" stop-color="#e6bd22"/></linearGradient><linearGradient x1="256.47896" y1="215.17231" x2="256.47896" y2="238.41631" gradientUnits="userSpaceOnUse" id="color-106"><stop offset="0" stop-color="#ffed4d"/><stop offset="1" stop-color="#e6bd22"/></linearGradient><linearGradient x1="138.03708" y1="215.46134" x2="138.03708" y2="235.44509" gradientUnits="userSpaceOnUse" id="color-107"><stop offset="0" stop-color="#ffed4d"/><stop offset="1" stop-color="#e6bd22"/></linearGradient><linearGradient x1="196.93593" y1="215.43526" x2="196.93593" y2="235.47138" gradientUnits="userSpaceOnUse" id="color-108"><stop offset="0" stop-color="#ffed4d"/><stop offset="1" stop-color="#e6bd22"/></linearGradient><linearGradient x1="216.91948" y1="215.46134" x2="216.91948" y2="235.44509" gradientUnits="userSpaceOnUse" id="color-109"><stop offset="0" stop-color="#ffed4d"/><stop offset="1" stop-color="#e6bd22"/></linearGradient><linearGradient x1="119.88098" y1="215.19842" x2="119.88098" y2="235.39248" gradientUnits="userSpaceOnUse" id="color-110"><stop offset="0" stop-color="#ffed4d"/><stop offset="1" stop-color="#e6bd22"/></linearGradient><linearGradient x1="294.29985" y1="215.09341" x2="294.29985" y2="235.47138" gradientUnits="userSpaceOnUse" id="color-111"><stop offset="0" stop-color="#ffed4d"/><stop offset="1" stop-color="#e6bd22"/></linearGradient><linearGradient x1="324.63962" y1="215.2993" x2="324.63962" y2="235.22333" gradientUnits="userSpaceOnUse" id="color-112"><stop offset="0" stop-color="#ffed4d"/><stop offset="1" stop-color="#e6bd22"/></linearGradient><linearGradient x1="342.63718" y1="215.1977" x2="342.63718" y2="235.32192" gradientUnits="userSpaceOnUse" id="color-113"><stop offset="0" stop-color="#ffed4d"/><stop offset="1" stop-color="#e6bd22"/></linearGradient><linearGradient x1="360.68907" y1="215.19816" x2="360.68907" y2="235.32519" gradientUnits="userSpaceOnUse" id="color-114"><stop offset="0" stop-color="#ffed4d"/><stop offset="1" stop-color="#e6bd22"/></linearGradient></defs><g transform="translate(-87.74282,-105.26595)"><g data-paper-data="{&quot;isPaintingLayer&quot;:true}" fill-rule="nonzero" stroke-linecap="butt" stroke-linejoin="miter" stroke-miterlimit="10" stroke-dasharray="" stroke-dashoffset="0" style="mix-blend-mode: normal"><g stroke-width="8.5"><path d="M149.04769,124.84858c0,0.24124 -1.12313,2.3487 -3.36861,6.34609h-0.15682c-0.17983,0 -2.76209,-1.18508 -7.74734,-3.57981l-2.53834,3.317c4.28957,2.02098 9.52232,4.59068 15.65292,7.73137c-2.78433,4.85417 -4.76073,8.061 -5.92844,9.66442l-12.68874,1.09803c-5.79394,-3.82172 -8.84877,-5.7981 -9.18554,-5.92986v-0.15409c0,-0.41765 1.16846,-2.28455 3.52686,-5.64546h0.29143c0.92086,0.54931 3.84054,2.1088 8.73587,4.67851l2.96425,-3.29333c-9.00571,-4.48117 -13.99027,-7.00763 -14.9558,-7.60094v-0.13174c2.85201,-5.44747 4.42339,-8.21442 4.67014,-8.28c7.43366,-1.47168 11.58863,-2.21829 12.41966,-2.21829c5.38958,2.6582 8.15092,3.99814 8.30851,3.99814zM207.40617,127.923c-1.34754,6.01769 -2.2008,9.0273 -2.55991,9.0273c-0.06758,0 -1.86339,1.471 -5.38959,4.43594c-2.17857,-0.10951 -4.69381,-0.24057 -7.50124,-0.41622l-0.29143,7.90636c-0.60575,0.17566 -3.25635,0.3513 -7.95016,0.5493c-0.56127,0 -0.85337,-1.58184 -0.85337,-4.72242c-1.03311,-13.02475 -1.54973,-20.05331 -1.54973,-21.08585c1.75122,-0.37364 7.18616,-1.29527 16.30413,-2.76694zM232.21151,131.15092c-7.00698,-1.82298 -10.77993,-2.83318 -11.29577,-3.03118c0,0.13184 -0.76412,1.8015 -2.31383,4.98667h0.15827c3.1211,-0.19789 6.53504,-0.48446 10.19575,-0.90137l0.15616,0.30749c-0.60585,3.40406 -1.07712,5.71029 -1.39155,6.94005l-8.64595,-1.20754c0.08992,1.669 0.1345,2.92178 0.1345,3.77857v0.76753l0.15694,0.30749c1.90873,-0.19733 5.79393,-0.50406 11.61021,-0.92171c0.20218,0.9007 0.56185,3.18393 1.07844,6.80833c-0.11225,0 -0.15683,0.04391 -0.15683,0.15408c-13.5866,-0.70337 -20.48143,-1.16419 -20.70583,-1.36217l-3.25712,-9.07054c2.47066,-11.26793 3.86363,-17.30804 4.17797,-18.14249c8.38767,0.96824 22.25499,2.55781 22.25499,2.8771zM260.3306,127.74724v0.13184c-1.23529,5.00824 -2.06698,7.863 -2.44833,8.58805l-4.7385,2.67911c5.61411,3.97581 8.44311,6.04079 8.48835,6.1942c-1.99865,0.94462 -5.05282,2.30612 -9.20713,4.08519c-4.80606,-6.436 -7.20848,-9.70842 -7.20848,-9.8625h-0.26974c-0.11225,3.75623 -0.15759,6.34894 -0.15759,7.75437c-0.06758,0.65879 -0.20218,0.98854 -0.4266,0.98854h-6.75888c-0.31434,0 -0.78636,-4.08663 -1.43814,-12.25712c-0.29143,-1.77917 -0.74111,-5.90839 -1.30297,-12.38754c1.72955,-0.37374 7.00698,-1.29536 15.83275,-2.81094c0.33676,0.35141 3.54921,2.65753 9.63523,6.89681zM164.66231,121.64031l-1.39145,16.36409l6.26445,0.83445l1.84257,-14.47409l9.38707,2.04264l-2.02098,14.97882l-6.94005,7.97393l-13.72052,-2.37238l-5.36801,-5.79888l0.98853,-19.87831zM244.49769,127.17561c0,0.90003 0.04393,4.08598 0.15617,9.57735h0.13524c3.66003,-0.83445 5.48027,-1.40543 5.48027,-1.69125l1.27996,-5.62312l-7.05164,-2.39406zM191.52955,136.24756c3.68294,-0.63646 5.52409,-1.01087 5.52409,-1.12036l1.27996,-5.4028c-1.81881,-0.72505 -4.08664,-1.60417 -6.80405,-2.63595z" fill="url(#color-1)" stroke="url(#color-2)"/><g><path d="M142.6906,155.49042c3.06173,8.04351 4.90531,13.20141 5.57641,15.4288h0.25259c0.71301,-1.52645 3.52214,-5.77545 8.34488,-12.70613h0.25055c7.59108,0.45432 11.3657,0.99038 11.3657,1.52726l6.83632,45.99299c0,0.28932 -5.99806,0.94862 -17.94943,1.97969l-0.25259,-0.49513c-0.67016,-13.98394 -1.00531,-22.52163 -1.00531,-25.61522h-0.25055l-10.35944,8.94943h-0.25068c-0.3361,-0.16499 -2.68376,-3.79452 -7.08688,-10.9302h-0.25258c-5.40938,15.46852 -8.34571,23.67717 -8.84897,24.62579h-0.50206c-9.64548,-4.28979 -15.13839,-6.84731 -16.43911,-7.71337v-0.24756c11.95245,-27.67857 18.20013,-41.74591 18.70325,-42.28198c7.9261,0.53608 11.86786,1.03228 11.86786,1.48565z" fill="url(#color-3)" stroke="url(#color-4)"/><path d="M219.64437,158.08877c0,0.20675 5.32492,15.96364 16.01842,47.2308c-1.13153,0.4127 -7.5473,1.19728 -19.33165,2.39347c-0.7965,-2.68185 -1.7183,-6.84623 -2.72456,-12.49829c-10.06509,0.90783 -15.09662,1.68943 -15.09662,2.39144l-2.72658,9.53011h-0.29338c-11.86786,-2.14483 -17.82323,-3.42452 -17.82323,-3.87898c9.47751,-29.16315 14.93068,-45.49677 16.31479,-49.04469c15.51529,2.18671 24.06992,3.50521 25.66282,3.87615zM203.96203,171.16583c-0.41961,2.02146 -1.04897,5.85678 -1.84547,11.59033h9.09953l-3.35405,-13.07599c-2.60022,0 -3.89999,0.49527 -3.89999,1.48566z" fill="url(#color-5)" stroke="url(#color-6)"/><path d="M286.07365,166.99928v0.24662c-2.30697,9.40579 -3.85919,14.76853 -4.57207,16.12986l-8.84802,5.03248c10.48375,7.46581 15.76788,11.34481 15.85138,11.63319c-3.73188,1.77402 -9.4356,4.3306 -17.19372,7.67162c-8.97424,-12.08656 -13.4609,-18.23184 -13.4609,-18.52022h-0.50312c-0.20987,7.05312 -0.29338,11.91966 -0.29338,14.55961c-0.12528,1.23809 -0.3769,1.85659 -0.79652,1.85659h-12.62356c-0.58664,0 -1.46776,-7.67269 -2.68389,-23.01784c-0.54488,-3.34116 -1.38316,-11.0963 -2.43116,-23.26446c3.22877,-0.70201 13.08397,-2.4332 29.56471,-5.27909c0.62948,0.66027 6.62552,4.99072 17.99025,12.95167zM256.50786,165.92742c0,1.69145 0.0846,7.67161 0.29339,17.98427h0.25258c6.83537,-1.56713 10.23307,-2.64103 10.23307,-3.17697l2.38954,-10.55927l-13.16859,-4.49669z" fill="url(#color-7)" stroke="url(#color-8)"/><path d="M312.95663,159.08012l-7.50649,48.34363l-13.5444,-1.1943l3.0178,-50.7798z" fill="url(#color-9)" stroke="url(#color-10)"/><path d="M337.19856,154.58357c12.32936,3.58872 18.91312,5.73463 19.66788,6.51812c6.79349,10.35348 10.60998,16.33268 11.4492,17.90077c-4.40312,15.01514 -6.91985,22.52258 -7.54933,22.52258c-14.63526,3.67129 -22.31082,5.48708 -22.98096,5.48708c-12.1195,-7.59014 -18.53526,-11.84007 -19.33272,-12.70614c-0.41962,-14.14908 -0.62936,-21.94488 -0.62936,-23.42959c-0.20893,-0.4127 -0.29243,-0.74174 -0.29243,-0.94754c12.49639,-10.23023 18.95487,-15.34528 19.37447,-15.34528zM335.98238,173.84756c-0.20974,1.2789 -0.46232,5.93949 -0.88192,13.98395l10.77904,2.39253c2.60022,-8.00283 3.85716,-12.29344 3.85716,-12.83047c-8.55464,-2.55657 -13.1248,-3.83532 -13.75428,-3.83532z" fill="url(#color-11)" stroke="url(#color-12)"/></g><g><g><path d="M158.07415,216.05831c0.41946,0.10489 6.52791,4.6141 6.63275,4.85004c0.13112,0.31462 -1.28457,5.58412 -1.57296,5.95112c-0.13106,0.18351 -0.89135,0.68164 -1.67786,1.12731c-0.78646,0.41946 -1.41571,0.83896 -1.41571,0.89135c0,0.05245 1.2322,0.99624 2.75273,2.09732c1.52059,1.12731 2.75278,2.09732 2.75278,2.20222c0,0.31456 -6.10845,2.96245 -6.26574,2.7265c-0.07867,-0.13112 -1.20597,-1.67787 -2.51677,-3.46056l-2.3595,-3.25084l-0.13105,2.98867l-0.13112,3.01489l-2.33327,0.07861c-1.28458,0.05245 -2.4381,-0.02616 -2.543,-0.13106c-0.23595,-0.23595 -1.88753,-16.12311 -1.75648,-16.80473c0.07867,-0.367 1.10106,-0.62918 5.19081,-1.38946c2.80516,-0.52428 5.24333,-0.9438 5.37438,-0.89135zM154.35141,220.43644c-0.26218,-0.07867 -0.34079,0.68163 -0.34079,3.35574c0,3.14595 0.02623,3.43435 0.4719,3.30322c0.23595,-0.05245 1.12731,-0.31462 1.93998,-0.52433l1.46814,-0.41945l0.41945,-1.83515c0.23595,-0.99618 0.41946,-1.91377 0.41946,-2.04488c0,-0.13106 -0.91758,-0.57673 -2.01864,-0.97003c-1.12731,-0.41946 -2.20215,-0.78646 -2.3595,-0.86513z" fill="url(#color-13)" stroke="url(#color-14)"/><path d="M172.44066,216.08453c0.44574,0.07867 2.543,0.39323 4.6141,0.70785l3.77519,0.57674l2.96245,8.86118c1.99243,6.00356 2.85761,8.91357 2.64783,8.966c-0.6554,0.26218 -6.6065,0.83891 -6.79002,0.68164c-0.07867,-0.07867 -0.34079,-1.10108 -0.57674,-2.22839c-0.23595,-1.15352 -0.4719,-2.14976 -0.55057,-2.20222c-0.26218,-0.26218 -4.9811,0.49813 -5.2695,0.86513c-0.15727,0.20972 -0.44567,1.02246 -0.62918,1.83515c-0.18356,0.81274 -0.41952,1.52059 -0.52434,1.57304c-0.20972,0.13106 -6.26575,-1.07491 -6.47547,-1.25842c-0.10484,-0.13106 5.29572,-17.25039 5.71518,-18.06308c0.18351,-0.31462 0.4719,-0.39328 1.10107,-0.31462zM175.90125,221.95704c-0.367,0 -0.68163,0.1835 -0.76024,0.44568c-0.13112,0.4719 -0.68163,3.69646 -0.68163,4.06353c0,0.13106 0.76024,0.20973 1.67782,0.20973h1.67786l-0.367,-1.25842c-0.18356,-0.68163 -0.4719,-1.73026 -0.62924,-2.35943c-0.23595,-0.91758 -0.39323,-1.10107 -0.91757,-1.10107z" fill="url(#color-15)" stroke="url(#color-16)"/><path d="M238.95178,215.90103l1.25836,0.1835c0.68163,0.07867 2.0711,0.31462 3.06734,0.4719l1.83516,0.31462l0.07867,9.33302l0.05239,9.33302l-0.70785,0.15733c-0.41946,0.07861 -1.73025,0.15727 -2.96245,0.20972l-2.22838,0.07861l-0.07867,-4.01108l-0.07861,-3.98492h-1.62542c-0.89135,0 -2.0711,0.07867 -2.59545,0.15733l-0.99625,0.1835v3.35567v3.35573l-1.36325,0.26212c-3.64407,0.7603 -3.8538,0.76029 -3.98486,0.31462c-0.07867,-0.23595 -0.60301,-4.24708 -1.20597,-8.93978c-0.57679,-4.69277 -1.12731,-8.96601 -1.20596,-9.51658l-0.15727,-0.96997h3.56541h3.56547v3.67029v3.67029h2.88377h2.88384v-3.82763z" fill="url(#color-17)" stroke="url(#color-18)"/><path d="M250.04124,215.92725c0.15733,0.02623 1.67786,0.34079 3.32952,0.73407l3.0149,0.734v3.30328v3.32946l1.52052,0.36706c0.81274,0.20972 1.54676,0.31462 1.5992,0.20972c0.05244,-0.07867 0.65539,-1.83515 1.31081,-3.90624c0.68163,-2.04488 1.33709,-3.72274 1.41571,-3.72274c0.36706,0 5.29571,2.46433 5.29571,2.64789c0,0.23595 -3.04111,7.3406 -4.32569,10.06709c-1.0224,2.20215 -0.6554,1.83515 -7.49788,7.96977l-1.59918,1.44191l-4.16842,-2.0711c-2.28083,-1.15352 -4.16841,-2.17598 -4.16841,-2.30704c0,-0.13112 0.60296,-1.23219 1.33703,-2.4381l1.3108,-2.20222l1.94004,1.3108c1.07485,0.73407 2.04487,1.31086 2.14976,1.31086c0.13106,0 0.89136,-0.68163 1.73027,-1.52058l1.49436,-1.49431l-3.01488,-3.0149l-3.0149,-3.0149v-3.85379c0,-2.93623 0.07867,-3.88001 0.34079,-3.88001z" fill="url(#color-19)" stroke="url(#color-20)"/><path d="M139.72268,216.21565c0.55057,-0.02623 6.37058,2.20214 6.76387,2.59538c0.18351,0.15733 -1.62543,4.19465 -2.0711,4.69277c-0.05245,0.05245 -1.04869,-0.31462 -2.22843,-0.83897l-2.12348,-0.96997l-1.80898,1.25836l-1.7827,1.2322l-0.02623,1.44191c0,0.78646 0.07868,1.86131 0.15734,2.38565c0.15727,0.91758 0.23594,0.99624 2.51677,1.88758l2.38565,0.94381l1.57297,-1.41571c0.86518,-0.78652 1.67786,-1.44191 1.80898,-1.44191c0.20972,0 0.81268,0.91758 2.14971,3.17217l0.68163,1.20596l-3.43435,1.88758l-3.43435,1.88759l-4.03731,-1.36324c-2.22843,-0.73407 -4.19465,-1.49437 -4.40438,-1.65165c-0.20972,-0.15727 -0.97002,-2.28083 -1.70409,-4.71899l-1.3108,-4.45675l1.91383,-2.72649l1.93998,-2.75272l2.96245,-1.12731c1.65165,-0.60301 3.22462,-1.12731 3.51301,-1.12731z" fill="url(#color-21)" stroke="url(#color-22)"/><path d="M204.03153,216.24181l4.01108,-0.05239l-0.0786,2.8051l-0.07867,2.8314h-1.44191c-0.78646,0 -2.46433,-0.07868 -3.72268,-0.20973l-2.30705,-0.1835v6.94736v6.9473l-0.57679,0.10488c-0.34079,0.07861 -1.4157,0.20973 -2.4381,0.2884c-0.99624,0.07861 -2.09732,0.20973 -2.41193,0.31455l-0.60296,0.13111l0.02622,-4.40437c0,-2.43816 0.10483,-5.74139 0.20972,-7.31436c0.13106,-1.59919 0.18351,-2.93629 0.13107,-2.98867c-0.05238,-0.05245 -1.41569,0.10484 -3.04106,0.34079c-1.62542,0.23595 -3.14602,0.41946 -3.38197,0.41946c-0.34079,0 -0.60295,-0.68163 -1.12731,-2.75273c-0.367,-1.49431 -0.68163,-2.8051 -0.68163,-2.88378c0,-0.05245 3.04113,-0.15727 6.76387,-0.20973c3.69652,-0.02623 8.5465,-0.07866 10.74871,-0.13112z" fill="url(#color-23)" stroke="url(#color-24)"/><path d="M218.37186,216.21565c0.55057,-0.02623 6.37062,2.20214 6.76386,2.59538c0.18351,0.15733 -1.62543,4.19465 -2.07109,4.69277c-0.05245,0.05245 -1.04868,-0.31462 -2.22838,-0.83897l-2.12355,-0.96997l-1.80892,1.25836l-1.7827,1.2322l-0.02622,1.44191c0,0.78646 0.0786,1.86131 0.15727,2.38565c0.15727,0.91758 0.23594,0.99624 2.51677,1.88758l2.38572,0.94381l1.57297,-1.41571c0.86513,-0.78652 1.67781,-1.44191 1.80891,-1.44191c0.20972,0 0.81269,0.91758 2.14977,3.17217l0.68163,1.20596l-3.43435,1.88758l-3.4344,1.88759l-4.03732,-1.36324c-2.22838,-0.73407 -4.19465,-1.49437 -4.40437,-1.65165c-0.20972,-0.15727 -0.97002,-2.28083 -1.70403,-4.71899l-1.31087,-4.45675l1.91383,-2.72649l1.94004,-2.75272l2.96245,-1.12731c1.65159,-0.60301 3.22462,-1.12731 3.51296,-1.12731z" fill="url(#color-25)" stroke="url(#color-26)"/><g><g><path d="M117.72057,213.31085c3.1684,3.81385 -1.27706,4.70649 -3.22738,5.15793c-1.95031,0.45145 -4.37503,-0.28446 -3.77199,-2.5023c0.55267,-2.03259 0.22058,-1.46734 0.70257,-2.26621c0.36256,-0.60091 0.731,-2.91357 1.41057,-3.07086c1.95031,-0.45145 3.36292,0.84783 4.88623,2.68145z" data-paper-data="{&quot;origPos&quot;:null}" fill="url(#color-27)" stroke="url(#color-28)"/><path d="M117.58668,215.11672c0.39538,1.7081 -3.46905,2.61327 -4.46922,2.84479c-1.00016,0.23152 -1.04422,-1.02976 -0.67599,-2.74001c0.51724,-2.40211 0.48588,-4.32307 1.29492,-3.67894c1.29183,1.02852 3.45491,1.86605 3.85028,3.57415z" data-paper-data="{&quot;origPos&quot;:null}" fill="url(#color-29)" stroke="url(#color-30)"/><path d="M116.93733,214.9422c0.27743,1.19854 -2.43415,1.83366 -3.13593,1.99611c-0.70179,0.16244 -0.91336,-0.68073 -0.65497,-1.88077c0.36293,-1.68549 0.34094,-3.03339 0.90861,-2.58141c0.90644,0.72169 2.60487,1.26754 2.88229,2.46608z" data-paper-data="{&quot;origPos&quot;:null}" fill="url(#color-31)" stroke="url(#color-32)"/></g><g><path d="M125.9838,210.35517c0.59618,0.13083 0.66947,3.14308 1.15425,5.00307c0.52896,2.02954 0.0635,4.21746 -1.64749,3.84195c-1.71098,-0.3755 -7.5088,-2.61815 -4.72903,-6.19475c1.33647,-1.71956 5.22225,-2.65028 5.22225,-2.65028z" data-paper-data="{&quot;index&quot;:null}" fill="url(#color-33)" stroke="url(#color-34)"/><path d="M125.15095,211.6459c0.76894,-0.66052 0.3174,0.73433 0.80888,3.11868c0.34991,1.69762 0.11616,2.9145 -0.83438,2.70589c-0.95054,-0.20861 -4.62328,-1.02527 -4.24745,-2.73779c0.37583,-1.71251 3.04518,-2.03212 4.27297,-3.08679z" data-paper-data="{&quot;origPos&quot;:null,&quot;index&quot;:null}" fill="url(#color-35)" stroke="url(#color-36)"/><path d="M124.99786,212.69195c0.53954,-0.46347 0.06695,0.49609 0.4118,2.16914c0.24553,1.19118 -0.14742,1.99478 -0.8144,1.84841c-0.66698,-0.14637 -3.24403,-0.71941 -2.98032,-1.92104c0.26371,-1.20162 2.52139,-1.35647 3.38291,-2.0965z" data-paper-data="{&quot;origPos&quot;:null,&quot;index&quot;:null}" fill="url(#color-37)" stroke="url(#color-38)"/></g><path d="M122.07901,215.95348c0.68163,-0.02623 5.97734,2.64783 5.97734,3.04107c0,0.15733 -0.4719,1.17974 -1.07485,2.28083c-1.20597,2.25466 -0.83896,2.22843 -4.37814,0.44573l-2.07109,-1.04869l-0.86518,1.17974c-0.4719,0.6554 -0.81268,1.20596 -0.76024,1.23219c0.05239,0.02616 2.4381,1.23212 5.2695,2.67404c2.85755,1.44191 5.19084,2.7265 5.19084,2.85755c0,0.39328 -3.69652,6.47545 -4.01108,6.58034c-0.18355,0.07861 -2.17598,0.2884 -4.4306,0.49812l-4.08973,0.39324l-2.64789,-1.75648l-2.62161,-1.75654l-0.02622,-1.38946c0,-1.04863 0.15727,-1.62542 0.68163,-2.41188l0.70785,-1.0487l1.73026,0.9438c0.9438,0.52434 2.33328,1.31087 3.09357,1.7041l1.33702,0.76029l0.9438,-1.10113c0.49813,-0.62919 0.81267,-1.23213 0.70785,-1.33703c-0.13112,-0.13106 -2.20221,-1.25836 -4.64031,-2.49054c-4.43059,-2.30704 -4.43059,-2.30704 -4.5092,-3.25084c-0.07867,-0.86513 0.86513,-2.98867 2.25461,-5.13837c0.13106,-0.18356 1.91376,-0.68163 4.01108,-1.10113c2.07108,-0.39324 3.98491,-0.76023 4.22086,-0.76023z" fill="url(#color-39)" stroke="url(#color-40)"/></g></g><g><path d="M281.406,215.95348c0.23595,-0.02623 0.31456,1.36325 0.31456,6.05596v6.10845l2.33327,-2.33328l2.33328,-2.30704l1.75648,2.38565c0.9438,1.31086 1.83515,2.38571 1.94004,2.38571c0.07861,0 0.57675,-1.93998 1.04865,-4.29948c0.49813,-2.3595 0.97002,-4.45681 1.07491,-4.6141c0.13106,-0.20972 1.10107,-0.07866 3.46056,0.44568c2.93622,0.68163 3.32946,0.70785 3.56541,0.367c0.13106,-0.23595 1.62542,-1.28459 3.30329,-2.35944l3.06729,-1.94003l2.6741,0.70785c4.2208,1.12731 4.03731,0.99625 5.79379,4.45681l1.57298,3.04106l-0.36701,1.36326c-0.18351,0.7603 -0.89135,3.09356 -1.54676,5.19089l-1.23219,3.80135l-1.28457,0.31462c-0.73408,0.18351 -2.30704,0.55051 -3.51301,0.78646l-2.17594,0.4719l-2.70035,-1.44186c-1.49431,-0.78652 -2.91,-1.57297 -3.1984,-1.75653c-0.41946,-0.34079 -0.4719,-0.89135 -0.55051,-6.18707l-0.10489,-5.82001l-0.78645,2.49055c-0.41951,1.36325 -1.46814,4.69271 -2.33327,7.36682l-1.54683,4.8762l-1.88754,0.18356c-1.04869,0.10484 -2.49054,0.23594 -3.22462,0.31455l-1.31086,0.15733l-1.04863,-2.77894c-0.57673,-1.52059 -1.12731,-2.77895 -1.20598,-2.77895c-0.10484,0 -0.62918,1.0224 -1.17974,2.2546l-1.0224,2.2546l-3.09357,-0.10484c-1.70403,-0.07867 -3.19839,-0.23595 -3.35567,-0.39328c-0.20972,-0.20972 -3.90625,-16.25416 -3.90625,-17.04062c0,-0.36706 0.73407,-0.55057 4.85005,-1.12736c1.73026,-0.26212 3.30323,-0.47183 3.48679,-0.49806zM307.6224,221.58997l-0.96997,-0.41946l-1.31086,1.49432c-1.46808,1.65165 -1.49431,1.7041 -1.17969,5.34817c0.15728,1.88759 0.20972,1.99243 1.10107,2.56921c0.89135,0.60295 2.01864,0.62919 2.88377,0.07868c0.18351,-0.13112 0.70785,-1.59919 1.20598,-3.27706c0.86512,-3.0149 0.86512,-3.04112 0.41945,-4.06353c-0.26218,-0.55057 -0.62918,-1.07492 -0.81268,-1.17975c-0.20972,-0.07867 -0.81274,-0.31461 -1.33709,-0.55056z" fill="url(#color-41)" stroke="url(#color-42)"/><path d="M326.15746,216.05831c0.41946,0.10489 6.52785,4.6141 6.63275,4.85004c0.13106,0.31462 -1.28464,5.58412 -1.57297,5.95112c-0.13112,0.18351 -0.89135,0.68164 -1.67787,1.12731c-0.78652,0.41946 -1.41571,0.83896 -1.41571,0.89135c0,0.05245 1.2322,0.99624 2.75273,2.09732c1.52058,1.12731 2.75273,2.09732 2.75273,2.20222c0,0.31456 -6.10839,2.96245 -6.26574,2.7265c-0.07861,-0.13112 -1.20591,-1.67787 -2.51677,-3.46056l-2.35943,-3.25084l-0.13112,2.98867l-0.13106,3.01489l-2.33328,0.07861c-1.28458,0.05245 -2.4381,-0.02616 -2.543,-0.13106c-0.23595,-0.23595 -1.88758,-16.12311 -1.75648,-16.80473c0.07861,-0.367 1.10106,-0.62918 5.19081,-1.38946c2.80516,-0.52428 5.24327,-0.9438 5.37439,-0.89135zM322.43473,220.43644c-0.26218,-0.07867 -0.34084,0.68163 -0.34084,3.35574c0,3.14595 0.02622,3.43435 0.4719,3.30322c0.23595,-0.05245 1.12731,-0.31462 1.94004,-0.52433l1.46809,-0.41945l0.41952,-1.83515c0.23595,-0.99618 0.41945,-1.91377 0.41945,-2.04488c0,-0.13106 -0.91757,-0.57673 -2.01864,-0.97003c-1.12731,-0.41946 -2.20222,-0.78646 -2.35949,-0.86513z" fill="url(#color-43)" stroke="url(#color-44)"/><path d="M341.31056,215.95348c0.41946,-0.02623 0.44567,0.47191 0.44567,7.05221c0,3.88001 0.05244,7.07841 0.10483,7.07841c0.05244,0 2.12355,-0.70785 4.6141,-1.57297c2.49054,-0.86513 4.56165,-1.57297 4.6141,-1.57297c0.05244,0 0.10489,1.75648 0.10489,3.90624v3.90624l-0.97003,0.15727c-1.78271,0.2884 -13.26549,1.20597 -13.39659,1.10107c-0.13106,-0.15727 -2.543,-15.20547 -2.83134,-17.66985c-0.15733,-1.46809 -0.13112,-1.62542 0.31455,-1.65165c0.28839,0 1.86137,-0.15728 3.51302,-0.367c1.65164,-0.18351 3.22462,-0.34078 3.4868,-0.367z" fill="url(#color-45)" stroke="url(#color-46)"/><path d="M360.60582,215.95348c0.05239,-0.02623 2.1497,1.15352 4.64025,2.62161l4.56171,2.64789v4.45674v4.45681l-1.75653,1.83515c-3.35567,3.46056 -2.91,3.27706 -8.86111,3.74896c-2.8576,0.20972 -5.24327,0.34079 -5.29573,0.28833c-0.20972,-0.20972 -2.75272,-17.48636 -2.59544,-17.64363c0.07867,-0.07867 2.17599,-0.6554 4.66654,-1.28458c2.49054,-0.60301 4.58787,-1.12731 4.64031,-1.12731zM359.13766,222.03565c-0.26218,-0.10484 -0.34084,0.89135 -0.34084,4.48304c0,3.51296 0.07867,4.6141 0.34084,4.6141c0.367,0 4.11598,-0.97002 4.24709,-1.10113c0.13106,-0.13106 0.91758,-4.71892 0.91758,-5.34811c0,-0.4719 -0.41952,-0.73406 -2.41194,-1.54681c-1.33702,-0.55051 -2.59544,-1.0224 -2.75273,-1.10108z" fill="url(#color-47)" stroke="url(#color-48)"/></g></g></g><g stroke-width="8.5"><path d="M145.24809,123.26923c0,0.24666 -1.14839,2.40154 -3.44439,6.48885h-0.16036c-0.18388,0 -2.82423,-1.21174 -7.92163,-3.66035l-2.59545,3.39162c4.38606,2.06644 9.73654,4.69395 16.00506,7.9053c-2.84697,4.96337 -4.86782,8.24234 -6.0618,9.88183l-12.97419,1.12273c-5.92428,-3.90769 -9.04784,-5.92854 -9.39219,-6.06325v-0.15755c0,-0.42705 1.19475,-2.33595 3.6062,-5.77246h0.29798c0.94157,0.56167 3.92694,2.15623 8.93239,4.78376l3.03094,-3.36742c-9.2083,-4.58198 -14.30501,-7.16528 -15.29226,-7.77194v-0.13471c2.91617,-5.57002 4.5229,-8.39921 4.7752,-8.46627c7.60089,-1.50478 11.84933,-2.2682 12.69905,-2.2682c5.51083,2.718 8.33428,4.08808 8.49542,4.08808zM204.91941,126.41282c-1.37786,6.15306 -2.25031,9.23038 -2.6175,9.23038c-0.0691,0 -1.9053,1.5041 -5.51084,4.53573c-2.22758,-0.11197 -4.7994,-0.24599 -7.66999,-0.42559l-0.29798,8.08422c-0.61938,0.17961 -3.32961,0.35921 -8.12902,0.56165c-0.5739,0 -0.87256,-1.61742 -0.87256,-4.82865c-1.05635,-13.31776 -1.58459,-20.50444 -1.58459,-21.5602c1.79061,-0.38205 7.34782,-1.3244 16.6709,-2.82919zM230.28278,129.71336c-7.1646,-1.864 -11.02244,-2.89692 -11.54989,-3.09936c0,0.13481 -0.78131,1.84203 -2.36588,5.09885h0.16183c3.19131,-0.20235 6.68206,-0.49536 10.42512,-0.92164l0.15968,0.3144c-0.61948,3.48064 -1.10135,5.83875 -1.42286,7.09618l-8.84045,-1.23471c0.09195,1.70655 0.13753,2.98751 0.13753,3.86357v0.7848l0.16047,0.31441c1.95166,-0.20176 5.92427,-0.5154 11.87139,-0.94245c0.20673,0.92096 0.57448,3.25556 1.1027,6.96149c-0.11477,0 -0.16036,0.0449 -0.16036,0.15755c-13.89225,-0.7192 -20.94218,-1.19038 -21.17163,-1.39282l-3.33039,-9.27459c2.52625,-11.52141 3.95055,-17.69741 4.27195,-18.55064c8.57636,0.99002 22.75564,2.61535 22.75564,2.94183zM259.03444,126.23311v0.13481c-1.26308,5.12091 -2.11348,8.03989 -2.50341,8.78125l-4.84509,2.73938c5.7404,4.06525 8.63305,6.17669 8.6793,6.33354c-2.04361,0.96587 -5.16649,2.358 -9.41426,4.1771c-4.91418,-6.58079 -7.37065,-9.92682 -7.37065,-10.08437h-0.27581c-0.11477,3.84073 -0.16114,6.49176 -0.16114,7.92881c-0.0691,0.67362 -0.20673,1.01077 -0.43619,1.01077h-6.91093c-0.32141,0 -0.80405,-4.17856 -1.47049,-12.53286c-0.29798,-1.81919 -0.75778,-6.04131 -1.33228,-12.66621c1.76846,-0.38215 7.16461,-1.32449 16.18893,-2.87417c0.34434,0.35931 3.62905,2.71731 9.85199,7.05196zM161.21398,119.98879l-1.42276,16.73222l6.40538,0.85323l1.88402,-14.79971l9.59824,2.08859l-2.06644,15.31579l-7.09618,8.15331l-14.02918,-2.42575l-5.48876,-5.92933l1.01077,-20.3255zM242.84535,125.64861c0,0.92028 0.04491,4.17789 0.15968,9.79281h0.13829c3.74237,-0.85323 5.60356,-1.43705 5.60356,-1.72929l1.30875,-5.74962l-7.21027,-2.44792zM188.68563,134.92465c3.76579,-0.65078 5.64836,-1.03361 5.64836,-1.14557l1.30875,-5.52434c-1.85972,-0.74136 -4.17857,-1.64026 -6.95711,-2.69525z" fill="url(#color-49)" stroke="url(#color-50)"/><g><path d="M138.74799,154.60041c3.13061,8.22446 5.01566,13.49838 5.70186,15.77589h0.25827c0.72904,-1.56079 3.60138,-5.90538 8.53262,-12.99197h0.25618c7.76186,0.46454 11.62138,1.01266 11.62138,1.56162l6.99012,47.02766c0,0.29583 -6.133,0.96997 -18.35323,2.02423l-0.25827,-0.50626c-0.68524,-14.29853 -1.02793,-23.02829 -1.02793,-26.19147h-0.25618l-10.59249,9.15077h-0.25632c-0.34366,-0.1687 -2.74413,-3.87988 -7.24631,-11.17609h-0.25826c-5.53107,15.8165 -8.53345,24.20981 -9.04804,25.17977h-0.51335c-9.86247,-4.3863 -15.47894,-7.00134 -16.80893,-7.88689v-0.25314c12.22134,-28.30123 18.60955,-42.68504 19.124,-43.23317c8.10441,0.54813 12.13484,1.0555 12.13484,1.51908z" fill="url(#color-51)" stroke="url(#color-52)"/><path d="M217.43293,157.2572c0,0.21141 5.44471,16.32276 16.37877,48.29331c-1.15698,0.42198 -7.71708,1.22422 -19.76654,2.44732c-0.81442,-2.74218 -1.75696,-7.00025 -2.78585,-12.77946c-10.29152,0.92825 -15.43624,1.72743 -15.43624,2.44524l-2.78792,9.7445h-0.29998c-12.13485,-2.19308 -18.22418,-3.50156 -18.22418,-3.96625c9.69071,-29.81921 15.26657,-46.52028 16.68181,-50.14802c15.86432,2.23591 24.6114,3.58407 26.24013,3.96335zM201.39779,170.62845c-0.42905,2.06693 -1.07256,5.98854 -1.88699,11.85107h9.30423l-3.4295,-13.37015c-2.65872,0 -3.98773,0.50641 -3.98773,1.51908z" fill="url(#color-53)" stroke="url(#color-54)"/><path d="M285.35661,166.36817v0.25217c-2.35887,9.61738 -3.94601,15.10077 -4.67492,16.49272l-9.04707,5.14569c10.7196,7.63377 16.12259,11.60003 16.20798,11.89489c-3.81584,1.81393 -9.64787,4.42802 -17.58051,7.8442c-9.17613,-12.35846 -13.76371,-18.64199 -13.76371,-18.93685h-0.51444c-0.21459,7.21179 -0.29998,12.1878 -0.29998,14.88714c-0.1281,1.26594 -0.38538,1.89836 -0.81444,1.89836h-12.90754c-0.59984,0 -1.50078,-7.84531 -2.74426,-23.53566c-0.55714,-3.41633 -1.41427,-11.34593 -2.48585,-23.78782c3.3014,-0.71781 13.37831,-2.48794 30.22981,-5.39785c0.64365,0.67512 6.77457,5.10299 18.39496,13.24303zM255.12571,165.27219c0,1.72951 0.0865,7.8442 0.29999,18.38886h0.25827c6.98915,-1.60239 10.46328,-2.70045 10.46328,-3.24845l2.4433,-10.79682l-13.46483,-4.59784z" fill="url(#color-55)" stroke="url(#color-56)"/><path d="M312.84436,158.27085l-7.67535,49.43118l-13.8491,-1.22117l3.08569,-51.92215z" fill="url(#color-57)" stroke="url(#color-58)"/><path d="M337.63164,153.67315c12.60673,3.66945 19.33859,5.86364 20.11033,6.66475c6.94632,10.58639 10.84867,16.70011 11.70677,18.30347c-4.50218,15.35293 -7.07552,23.02926 -7.71916,23.02926c-14.96449,3.75387 -22.81273,5.61051 -23.49795,5.61051c-12.39214,-7.76088 -18.95224,-12.10642 -19.76763,-12.99198c-0.42905,-14.46738 -0.64351,-22.43856 -0.64351,-23.95667c-0.21362,-0.42198 -0.29901,-0.75843 -0.29901,-0.96886c12.77751,-10.46037 19.38129,-15.69048 19.81033,-15.69048zM336.3881,173.37051c-0.21445,1.30767 -0.47272,6.07311 -0.90176,14.29853l11.02153,2.44635c2.65872,-8.18286 3.94393,-12.56999 3.94393,-13.1191c-8.74709,-2.61408 -13.42006,-3.92161 -14.0637,-3.92161z" fill="url(#color-59)" stroke="url(#color-60)"/></g><g><g><path d="M154.47761,216.53084c0.42889,0.10725 6.67476,4.7179 6.78196,4.95915c0.13407,0.32169 -1.31347,5.70974 -1.60835,6.08499c-0.13401,0.18764 -0.9114,0.69697 -1.71561,1.15267c-0.80415,0.42889 -1.44755,0.85783 -1.44755,0.9114c0,0.05362 1.25992,1.01866 2.81466,2.1445c1.55479,1.15267 2.81471,2.1445 2.81471,2.25176c0,0.32163 -6.24587,3.0291 -6.4067,2.78784c-0.08044,-0.13407 -1.2331,-1.71561 -2.57339,-3.53841l-2.41257,-3.32398l-0.134,3.0559l-0.13407,3.08272l-2.38577,0.08038c-1.31348,0.05362 -2.49295,-0.02675 -2.60021,-0.13401c-0.24126,-0.24126 -1.92999,-16.48582 -1.79599,-17.18277c0.08044,-0.37526 1.12583,-0.64334 5.30759,-1.42072c2.86827,-0.53608 5.36128,-0.96503 5.49528,-0.9114zM150.67112,221.00747c-0.26808,-0.08044 -0.34846,0.69697 -0.34846,3.43124c0,3.21673 0.02681,3.5116 0.48252,3.37753c0.24126,-0.05362 1.15267,-0.32169 1.98362,-0.53613l1.50117,-0.42889l0.42889,-1.87643c0.24126,-1.0186 0.42889,-1.95682 0.42889,-2.09088c0,-0.13401 -0.93822,-0.58971 -2.06406,-0.99185c-1.15267,-0.42889 -2.25169,-0.80415 -2.41257,-0.88459z" fill="url(#color-61)" stroke="url(#color-62)"/><path d="M169.16731,216.55765c0.45576,0.08044 2.60021,0.40208 4.7179,0.72378l3.86012,0.58971l3.02909,9.06052c2.03725,6.13862 2.92189,9.1141 2.7074,9.16771c-0.67014,0.26808 -6.75513,0.85778 -6.94277,0.69697c-0.08044,-0.08044 -0.34846,-1.12585 -0.58972,-2.27852c-0.24126,-1.17947 -0.48252,-2.19813 -0.56295,-2.25176c-0.26808,-0.26808 -5.09316,0.50933 -5.38804,0.88459c-0.16081,0.21444 -0.4557,1.04546 -0.64334,1.87644c-0.18769,0.83103 -0.42895,1.5548 -0.53613,1.60842c-0.21444,0.13401 -6.4067,-1.09909 -6.62114,-1.28673c-0.1072,-0.13401 5.41485,-17.63846 5.84375,-18.46943c0.18764,-0.32169 0.48252,-0.40213 1.12584,-0.32169zM172.70574,222.56227c-0.37526,0 -0.69696,0.18763 -0.77735,0.4557c-0.13407,0.48252 -0.69697,3.77962 -0.69697,4.15495c0,0.13401 0.77734,0.21445 1.71556,0.21445h1.71561l-0.37526,-1.28673c-0.18769,-0.69696 -0.48252,-1.76919 -0.6434,-2.41251c-0.24126,-0.93822 -0.40208,-1.12584 -0.93822,-1.12584z" fill="url(#color-63)" stroke="url(#color-64)"/><path d="M237.17468,216.37003l1.28667,0.18763c0.69696,0.08044 2.11769,0.32169 3.13635,0.48252l1.87644,0.32169l0.08044,9.54298l0.05357,9.54297l-0.72378,0.16087c-0.42889,0.08038 -1.76918,0.16081 -3.02909,0.21444l-2.27851,0.08038l-0.08044,-4.10131l-0.08038,-4.07456h-1.66199c-0.9114,0 -2.11769,0.08044 -2.65383,0.16087l-1.01866,0.18763v3.43116v3.43123l-1.39391,0.26802c-3.72605,0.7774 -3.94049,0.7774 -4.0745,0.32169c-0.08044,-0.24126 -0.61658,-4.34263 -1.23311,-9.14089c-0.58977,-4.79834 -1.15267,-9.16771 -1.23309,-9.73068l-0.16081,-0.99178h3.64562h3.64568v3.75286v3.75286h2.94864h2.94871v-3.91374z" fill="url(#color-65)" stroke="url(#color-66)"/><path d="M248.51361,216.39684c0.16087,0.02681 1.71561,0.34846 3.40442,0.75058l3.08273,0.75051v3.3776v3.40436l1.55473,0.37532c0.83103,0.21444 1.58156,0.32169 1.63517,0.21444c0.05362,-0.08044 0.67014,-1.87644 1.3403,-3.99411c0.69696,-2.09088 1.36716,-3.80649 1.44755,-3.80649c0.37532,0 5.41485,2.51977 5.41485,2.70746c0,0.24126 -3.10953,7.50573 -4.42301,10.29356c-1.0454,2.25169 -0.67014,1.87644 -7.66655,8.14906l-1.63516,1.47435l-4.26219,-2.11769c-2.33214,-1.17947 -4.26218,-2.22493 -4.26218,-2.35894c0,-0.13407 0.61652,-1.25991 1.3671,-2.49295l1.34029,-2.25176l1.98369,1.34029c1.09903,0.75059 2.09088,1.34035 2.19813,1.34035c0.13401,0 0.9114,-0.69696 1.76919,-1.55479l1.52799,-1.52793l-3.08271,-3.08272l-3.08273,-3.08273v-3.94049c0,-3.00228 0.08044,-3.9673 0.34846,-3.9673z" fill="url(#color-67)" stroke="url(#color-68)"/><path d="M135.71329,216.69172c0.56295,-0.02681 6.51389,2.25169 6.91603,2.65377c0.18764,0.16087 -1.66199,4.28901 -2.11768,4.79834c-0.05362,0.05362 -1.07228,-0.32169 -2.27856,-0.85783l-2.17126,-0.99179l-1.84967,1.28667l-1.82281,1.25992l-0.02681,1.47435c0,0.80415 0.08045,1.90318 0.16087,2.43931c0.16081,0.93822 0.24125,1.01866 2.57339,1.93005l2.43931,0.96503l1.60836,-1.44755c0.88465,-0.80421 1.71561,-1.47435 1.84967,-1.47435c0.21444,0 0.83096,0.93822 2.19807,3.24353l0.69696,1.2331l-3.51161,1.93004l-3.51161,1.93005l-4.12813,-1.39391c-2.27857,-0.75059 -4.28901,-1.52799 -4.50346,-1.6888c-0.21444,-0.16081 -0.99184,-2.33214 -1.74243,-4.82515l-1.3403,-4.55701l1.95688,-2.78783l1.98362,-2.81465l3.02909,-1.15267c1.6888,-0.61658 3.29716,-1.15267 3.59204,-1.15267z" fill="url(#color-69)" stroke="url(#color-70)"/><path d="M201.46886,216.71847l4.10131,-0.05357l-0.08037,2.86821l-0.08044,2.89509h-1.47435c-0.80415,0 -2.51977,-0.08045 -3.80643,-0.21445l-2.35894,-0.18763v7.10365v7.10359l-0.58976,0.10724c-0.34846,0.08038 -1.44755,0.21445 -2.49295,0.29489c-1.01866,0.08038 -2.1445,0.21444 -2.4662,0.32162l-0.61652,0.13407l0.02681,-4.50346c0,-2.49301 0.10719,-5.87054 0.21444,-7.47891c0.13401,-1.63516 0.18764,-3.00234 0.13401,-3.0559c-0.05356,-0.05362 -1.44754,0.1072 -3.10948,0.34846c-1.66199,0.24126 -3.21679,0.42889 -3.45805,0.42889c-0.34846,0 -0.61652,-0.69697 -1.15267,-2.81466c-0.37526,-1.52793 -0.69696,-2.86821 -0.69696,-2.94865c0,-0.05362 3.10954,-0.16082 6.91603,-0.21445c3.77968,-0.02681 8.73876,-0.08044 10.99052,-0.13407z" fill="url(#color-71)" stroke="url(#color-72)"/><path d="M216.13178,216.69172c0.56295,-0.02681 6.51394,2.25169 6.91603,2.65377c0.18764,0.16087 -1.66199,4.28901 -2.11768,4.79834c-0.05362,0.05362 -1.07228,-0.32169 -2.27851,-0.85783l-2.17132,-0.99179l-1.84961,1.28667l-1.82281,1.25992l-0.02681,1.47435c0,0.80415 0.08038,1.90318 0.16081,2.43931c0.16081,0.93822 0.24125,1.01866 2.57339,1.93005l2.43938,0.96503l1.60835,-1.44755c0.88459,-0.80421 1.71556,-1.47435 1.84961,-1.47435c0.21444,0 0.83097,0.93822 2.19813,3.24353l0.69696,1.2331l-3.51161,1.93004l-3.51167,1.93005l-4.12814,-1.39391c-2.27851,-0.75059 -4.28901,-1.52799 -4.50345,-1.6888c-0.21444,-0.16081 -0.99185,-2.33214 -1.74236,-4.82515l-1.34036,-4.55701l1.95688,-2.78783l1.98368,-2.81465l3.02909,-1.15267c1.68874,-0.61658 3.29716,-1.15267 3.59198,-1.15267z" fill="url(#color-73)" stroke="url(#color-74)"/><g><g><path d="M113.21622,213.72157c3.23968,3.89965 -1.30578,4.81236 -3.29999,5.27396c-1.99418,0.4616 -4.47345,-0.29086 -3.85684,-2.55859c0.5651,-2.07831 0.22554,-1.50035 0.71837,-2.31719c0.37071,-0.61443 0.74745,-2.97912 1.4423,-3.13995c1.99418,-0.4616 3.43857,0.8669 4.99615,2.74178z" data-paper-data="{&quot;origPos&quot;:null}" fill="url(#color-75)" stroke="url(#color-76)"/><path d="M113.07932,215.56807c0.40427,1.74653 -3.5471,2.67206 -4.56976,2.90878c-1.02266,0.23672 -1.06772,-1.05293 -0.6912,-2.80165c0.52887,-2.45614 0.49681,-4.42033 1.32405,-3.76171c1.32089,1.05166 3.53263,1.90803 3.9369,3.65456z" data-paper-data="{&quot;origPos&quot;:null}" fill="url(#color-77)" stroke="url(#color-78)"/><path d="M112.41537,215.38963c0.28367,1.2255 -2.48891,1.87492 -3.20648,2.04101c-0.71758,0.16609 -0.93391,-0.69604 -0.6697,-1.92307c0.37109,-1.72341 0.34861,-3.10163 0.92905,-2.63949c0.92682,0.73792 2.66346,1.29605 2.94714,2.52155z" data-paper-data="{&quot;origPos&quot;:null}" fill="url(#color-79)" stroke="url(#color-80)"/></g><g><path d="M121.66535,210.6994c0.60959,0.13377 0.68453,3.21379 1.18022,5.11563c0.54086,2.07519 0.06493,4.31233 -1.68455,3.92838c-1.74948,-0.38395 -7.67771,-2.67706 -4.83541,-6.33411c1.36653,-1.75825 5.33973,-2.7099 5.33973,-2.7099z" data-paper-data="{&quot;index&quot;:null}" fill="url(#color-81)" stroke="url(#color-82)"/><path d="M120.81376,212.01917c0.78624,-0.67537 0.32453,0.75085 0.82707,3.18884c0.35778,1.73581 0.11877,2.98006 -0.85316,2.76676c-0.97192,-0.2133 -4.72729,-1.04834 -4.343,-2.79937c0.38429,-1.75104 3.11368,-2.07783 4.3691,-3.15623z" data-paper-data="{&quot;origPos&quot;:null,&quot;index&quot;:null}" fill="url(#color-83)" stroke="url(#color-84)"/><path d="M120.65723,213.08875c0.55168,-0.47389 0.06846,0.50725 0.42106,2.21793c0.25106,1.21797 -0.15074,2.03965 -0.83272,1.88999c-0.68199,-0.14966 -3.31701,-0.73559 -3.04737,-1.96425c0.26964,-1.22865 2.57812,-1.38699 3.45901,-2.14367z" data-paper-data="{&quot;origPos&quot;:null,&quot;index&quot;:null}" fill="url(#color-85)" stroke="url(#color-86)"/></g><path d="M117.67271,216.42365c0.69696,-0.02681 6.1118,2.7074 6.1118,3.10948c0,0.16087 -0.48252,1.20628 -1.09903,2.33214c-1.23311,2.30538 -0.85783,2.27856 -4.47663,0.45576l-2.11768,-1.07228l-0.88465,1.20628c-0.48252,0.67014 -0.83096,1.2331 -0.77735,1.25991c0.05356,0.02675 2.49295,1.25984 5.38804,2.73419c2.92183,1.47435 5.30761,2.78784 5.30761,2.92184c0,0.40213 -3.77968,6.62113 -4.10131,6.72838c-0.18769,0.08038 -2.22493,0.29489 -4.53026,0.50933l-4.18174,0.40208l-2.70746,-1.79599l-2.68058,-1.79605l-0.02681,-1.42072c0,-1.07222 0.16081,-1.66199 0.69696,-2.46614l0.72378,-1.07229l1.76919,0.96503c0.96503,0.53613 2.38577,1.34035 3.16315,1.74243l1.3671,0.7774l0.96503,-1.12591c0.50933,-0.64334 0.83096,-1.25984 0.72378,-1.3671c-0.13407,-0.13401 -2.25176,-1.28667 -4.7447,-2.54657c-4.53026,-2.35894 -4.53027,-2.35894 -4.61065,-3.32398c-0.08044,-0.88459 0.88459,-3.0559 2.30533,-5.25397c0.13401,-0.18769 1.95681,-0.69696 4.10131,-1.12591c2.11768,-0.40208 4.07456,-0.77734 4.31582,-0.77734z" fill="url(#color-87)" stroke="url(#color-88)"/></g></g><g><path d="M280.58396,216.42365c0.24126,-0.02681 0.32163,1.39391 0.32163,6.19219v6.24587l2.38576,-2.38576l2.38577,-2.35894l1.79599,2.43931c0.96503,1.34035 1.87643,2.43937 1.98368,2.43937c0.08038,0 0.58972,-1.98362 1.07223,-4.3962c0.50933,-2.41257 0.99184,-4.55707 1.09909,-4.7179c0.13401,-0.21444 1.12584,-0.08043 3.53841,0.45571c3.00228,0.69696 3.40436,0.72378 3.64562,0.37526c0.13401,-0.24126 1.66199,-1.31348 3.3776,-2.41251l3.13629,-1.98368l2.73426,0.72378c4.31575,1.15267 4.12813,1.01866 5.92412,4.55707l1.60836,3.10948l-0.37526,1.39392c-0.18764,0.7774 -0.9114,3.16315 -1.58155,5.30766l-1.25991,3.88686l-1.31347,0.32169c-0.75059,0.18764 -2.35894,0.56289 -3.59204,0.80415l-2.22489,0.48252l-2.76109,-1.47429c-1.52793,-0.80421 -2.97547,-1.60836 -3.27035,-1.79605c-0.42889,-0.34846 -0.48252,-0.9114 -0.56289,-6.32625l-0.10725,-5.95093l-0.80414,2.54657c-0.42895,1.39392 -1.50117,4.79828 -2.38577,7.53255l-1.58162,4.9859l-1.93001,0.1877c-1.07228,0.1072 -2.54657,0.24125 -3.29716,0.32162l-1.34036,0.16087l-1.07222,-2.84146c-0.58971,-1.55479 -1.15267,-2.84147 -1.23311,-2.84147c-0.1072,0 -0.64334,1.0454 -1.20628,2.30533l-1.0454,2.30533l-3.16316,-0.10719c-1.74236,-0.08044 -3.27035,-0.24126 -3.43116,-0.40213c-0.21444,-0.21444 -3.99412,-16.61982 -3.99412,-17.42397c0,-0.37532 0.75059,-0.56295 4.95916,-1.15272c1.76919,-0.26802 3.37753,-0.48245 3.56523,-0.50927zM307.39012,222.18694l-0.99179,-0.42889l-1.34035,1.52793c-1.50111,1.6888 -1.52793,1.74243 -1.20622,5.46848c0.16081,1.93005 0.21444,2.03726 1.12584,2.62701c0.9114,0.61652 2.06406,0.64334 2.94864,0.08045c0.18764,-0.13407 0.72378,-1.63516 1.23311,-3.35079c0.88459,-3.08272 0.88458,-3.10954 0.42889,-4.15495c-0.26808,-0.56295 -0.64333,-1.09909 -0.83096,-1.20628c-0.21444,-0.08044 -0.83103,-0.32169 -1.36716,-0.56295z" fill="url(#color-89)" stroke="url(#color-90)"/><path d="M326.34216,216.53084c0.42889,0.10725 6.6747,4.7179 6.78196,4.95915c0.13401,0.32169 -1.31354,5.70974 -1.60835,6.08499c-0.13407,0.18764 -0.9114,0.69697 -1.71561,1.15267c-0.80421,0.42889 -1.44755,0.85783 -1.44755,0.9114c0,0.05362 1.25992,1.01866 2.81466,2.1445c1.55479,1.15267 2.81466,2.1445 2.81466,2.25176c0,0.32163 -6.24582,3.0291 -6.4067,2.78784c-0.08038,-0.13407 -1.23304,-1.71561 -2.57339,-3.53841l-2.41251,-3.32398l-0.13407,3.0559l-0.13401,3.08272l-2.38576,0.08038c-1.31348,0.05362 -2.49295,-0.02675 -2.60021,-0.13401c-0.24126,-0.24126 -1.93004,-16.48582 -1.79599,-17.18277c0.08038,-0.37526 1.12583,-0.64334 5.30759,-1.42072c2.86827,-0.53608 5.36122,-0.96503 5.49529,-0.9114zM322.53568,221.00747c-0.26808,-0.08044 -0.3485,0.69697 -0.3485,3.43124c0,3.21673 0.02681,3.5116 0.48251,3.37753c0.24126,-0.05362 1.15267,-0.32169 1.98369,-0.53613l1.50111,-0.42889l0.42895,-1.87643c0.24126,-1.0186 0.42889,-1.95682 0.42889,-2.09088c0,-0.13401 -0.93821,-0.58971 -2.06405,-0.99185c-1.15267,-0.42889 -2.25176,-0.80415 -2.41257,-0.88459z" fill="url(#color-91)" stroke="url(#color-92)"/><path d="M341.83614,216.42365c0.42889,-0.02681 0.4557,0.48252 0.4557,7.21085c0,3.9673 0.05362,7.23765 0.10719,7.23765c0.05362,0 2.17132,-0.72378 4.7179,-1.60835c2.54657,-0.88459 4.66427,-1.60835 4.7179,-1.60835c0.05362,0 0.10725,1.79599 0.10725,3.99411v3.99411l-0.99184,0.16081c-1.82281,0.29488 -13.56392,1.2331 -13.69797,1.12584c-0.13401,-0.16081 -2.60021,-15.54753 -2.89503,-18.06736c-0.16087,-1.50111 -0.13407,-1.66199 0.32162,-1.6888c0.29488,0 1.90324,-0.16081 3.59204,-0.37526c1.6888,-0.18764 3.29716,-0.34845 3.56524,-0.37526z" fill="url(#color-93)" stroke="url(#color-94)"/><path d="M361.56547,216.42365c0.05356,-0.02681 2.19807,1.17947 4.74464,2.68058l4.66433,2.70746v4.55701v4.55707l-1.79605,1.87644c-3.43116,3.53841 -2.97546,3.35079 -9.06046,3.8333c-2.92189,0.21444 -5.36122,0.34845 -5.41486,0.29482c-0.21444,-0.21444 -2.81465,-17.87973 -2.65383,-18.04054c0.08044,-0.08044 2.22494,-0.67014 4.77152,-1.31348c2.54657,-0.61658 4.69108,-1.15267 4.7447,-1.15267zM360.06429,222.64265c-0.26808,-0.1072 -0.34851,0.9114 -0.34851,4.58389c0,3.59198 0.08044,4.7179 0.34851,4.7179c0.37526,0 4.20857,-0.99185 4.34263,-1.12591c0.13401,-0.13401 0.93822,-4.82508 0.93822,-5.46842c0,-0.48252 -0.42895,-0.75057 -2.4662,-1.58161c-1.3671,-0.56289 -2.65383,-1.0454 -2.81466,-1.12585z" fill="url(#color-95)" stroke="url(#color-96)"/></g></g></g><path d="M148.55984,123.8236c0,0.24195 -1.12646,2.35567 -3.3786,6.3649h-0.15729c-0.18037,0 -2.77028,-1.1886 -7.77031,-3.59043l-2.54587,3.32684c4.30228,2.02697 9.55055,4.60429 15.69933,7.75429c-2.79259,4.86856 -4.77484,8.0849 -5.94601,9.69307l-12.72636,1.10129c-5.81112,-3.83305 -8.87501,-5.8153 -9.21278,-5.94744v-0.15454c0,-0.41889 1.17193,-2.29133 3.53732,-5.6622h0.29229c0.92359,0.55094 3.85193,2.11505 8.76177,4.69238l2.97304,-3.3031c-9.03241,-4.49446 -14.03176,-7.02841 -15.00015,-7.62348v-0.13213c2.86047,-5.46362 4.43651,-8.23877 4.68399,-8.30455c7.4557,-1.47604 11.62299,-2.22487 12.45648,-2.22487c5.40556,2.66608 8.17508,4.00999 8.33314,4.00999zM207.09134,126.90714c-1.35154,6.03553 -2.20733,9.05406 -2.5675,9.05406c-0.06778,0 -1.86891,1.47537 -5.40557,4.44909c-2.18503,-0.10983 -4.70773,-0.24129 -7.52348,-0.41746l-0.29229,7.9298c-0.60755,0.17618 -3.26601,0.35235 -7.97374,0.55093c-0.56294,0 -0.8559,-1.58653 -0.8559,-4.73642c-1.03617,-13.06337 -1.55432,-20.11277 -1.55432,-21.14837c1.75641,-0.37475 7.20746,-1.2991 16.35246,-2.77514zM231.97023,130.14462c-7.02775,-1.82839 -10.8119,-2.84158 -11.32927,-3.04016c0,0.13223 -0.76638,1.80684 -2.32068,5.00145h0.15873c3.13035,-0.19848 6.55442,-0.4859 10.22598,-0.90404l0.15663,0.3084c-0.60765,3.41415 -1.08031,5.72722 -1.39568,6.96063l-8.67158,-1.21112c0.09019,1.67395 0.1349,2.93044 0.1349,3.78977v0.76981l0.1574,0.3084c1.91438,-0.19791 5.81111,-0.50555 11.64463,-0.92444c0.20278,0.90337 0.56351,3.19337 1.08164,6.82851c-0.11258,0 -0.15729,0.04404 -0.15729,0.15454c-13.62688,-0.70546 -20.54215,-1.16764 -20.76722,-1.36621l-3.26677,-9.09743c2.47799,-11.30133 3.87509,-17.35936 4.19035,-18.19629c8.41254,0.97111 22.32097,2.56539 22.32097,2.88563zM260.17268,126.73086v0.13223c-1.23895,5.02309 -2.07311,7.88631 -2.45559,8.61351l-4.75254,2.68706c5.63075,3.98759 8.46814,6.0587 8.51351,6.21256c-2.00457,0.94742 -5.0678,2.31296 -9.23443,4.09731c-4.82031,-6.45509 -7.22986,-9.7372 -7.22986,-9.89174h-0.27054c-0.11258,3.76737 -0.15806,6.36776 -0.15806,7.77735c-0.06778,0.66075 -0.20278,0.99147 -0.42786,0.99147h-6.77892c-0.31527,0 -0.78869,-4.09874 -1.4424,-12.29346c-0.29229,-1.78444 -0.74331,-5.92591 -1.30683,-12.42427c1.73468,-0.37485 7.02775,-1.29919 15.87969,-2.81927c0.33776,0.35245 3.55973,2.66541 9.6638,6.91726zM164.22076,120.60582l-1.39558,16.41261l6.28302,0.83693l1.84803,-14.51701l9.4149,2.0487l-2.02697,15.02323l-6.96063,7.99757l-13.7612,-2.37941l-5.38392,-5.81607l0.99146,-19.93725zM244.29283,126.15753c0,0.9027 0.04405,4.09809 0.15663,9.60575h0.13565c3.67088,-0.83693 5.49652,-1.4096 5.49652,-1.69626l1.28375,-5.63979l-7.07255,-2.40116zM191.16765,135.25638c3.69386,-0.63835 5.54047,-1.01387 5.54047,-1.12369l1.28375,-5.41882c-1.8242,-0.7272 -4.09875,-1.60892 -6.82422,-2.64376z" fill="url(#color-97)" stroke="none" stroke-width="1.19633"/><g stroke="none" stroke-width="1.57068"><path d="M142.1839,154.5563c3.07081,8.06736 4.91986,13.24054 5.59295,15.47454h0.25333c0.71512,-1.53098 3.53259,-5.79257 8.36963,-12.7438h0.25129c7.61359,0.45567 11.39939,0.99332 11.39939,1.53179l6.8566,46.12935c0,0.29018 -6.01585,0.95144 -18.00266,1.98556l-0.25333,-0.49659c-0.67215,-14.0254 -1.00829,-22.58841 -1.00829,-25.69117h-0.25129l-10.39015,8.97597h-0.25143c-0.33709,-0.16548 -2.69171,-3.80577 -7.10789,-10.96261h-0.25333c-5.42542,15.51438 -8.37045,23.74736 -8.87521,24.6988h-0.50354c-9.67408,-4.30251 -15.18327,-6.86761 -16.48785,-7.73624v-0.2483c11.98789,-27.76063 18.25408,-41.86968 18.7587,-42.40734c7.9496,0.53766 11.90305,1.03534 11.90305,1.49006z" fill="url(#color-98)"/><path d="M219.36583,157.16234c0,0.20737 5.34071,16.01097 16.06591,47.37083c-1.13488,0.41392 -7.56967,1.20083 -19.38896,2.40057c-0.79887,-2.6898 -1.7234,-6.86653 -2.73264,-12.53535c-10.09494,0.91052 -15.14138,1.69443 -15.14138,2.39853l-2.73467,9.55837h-0.29425c-11.90305,-2.15119 -17.87607,-3.43468 -17.87607,-3.89049c9.5056,-29.24961 14.97495,-45.63166 16.36316,-49.1901c15.56129,2.1932 24.14128,3.5156 25.7389,3.88764zM203.63699,170.27817c-0.42086,2.02745 -1.05207,5.87415 -1.85094,11.6247h9.1265l-3.36399,-13.11476c-2.60793,0 -3.91156,0.49674 -3.91156,1.49006z" fill="url(#color-99)"/><path d="M285.99206,166.09928v0.24735c-2.31381,9.43367 -3.87064,14.81232 -4.58562,16.17768l-8.87425,5.0474c10.51484,7.48795 15.81462,11.37845 15.89838,11.66768c-3.74295,1.77928 -9.46358,4.34344 -17.2447,7.69436c-9.00085,-12.12239 -13.5008,-18.2859 -13.5008,-18.57513h-0.50462c-0.21049,7.07403 -0.29425,11.955 -0.29425,14.60277c-0.12565,1.24176 -0.37802,1.8621 -0.79888,1.8621h-12.66099c-0.58838,0 -1.47211,-7.69545 -2.69184,-23.08609c-0.5465,-3.35107 -1.38726,-11.1292 -2.43837,-23.33343c3.23834,-0.7041 13.12277,-2.44042 29.65237,-5.29475c0.63135,0.66222 6.64516,5.00552 18.04359,12.99007zM256.33862,165.02423c0,1.69647 0.08485,7.69436 0.29426,18.0376h0.25333c6.85564,-1.57178 10.26341,-2.64887 10.26341,-3.1864l2.39663,-10.59058l-13.20763,-4.51002z" fill="url(#color-100)"/><path d="M312.95474,158.15663l-7.52874,48.48696l-13.58456,-1.19784l3.02675,-50.93035z" fill="url(#color-101)"/><path d="M337.26854,153.64675c12.36592,3.59936 18.96919,5.75164 19.72619,6.53745c6.81363,10.38417 10.64144,16.38111 11.48315,17.95384c-4.41618,15.05966 -6.94037,22.58936 -7.57171,22.58936c-14.67865,3.68217 -22.37697,5.50334 -23.0491,5.50334c-12.15543,-7.61264 -18.59022,-11.87517 -19.39004,-12.74381c-0.42086,-14.19103 -0.63122,-22.00995 -0.63122,-23.49906c-0.20954,-0.41392 -0.2933,-0.74394 -0.2933,-0.95035c12.53344,-10.26056 19.01107,-15.39077 19.43192,-15.39077zM336.04876,172.96786c-0.21036,1.28269 -0.46369,5.9571 -0.88454,14.0254l10.811,2.39962c2.60793,-8.02656 3.8686,-12.32988 3.8686,-12.8685c-8.58,-2.56415 -13.16372,-3.8467 -13.79506,-3.8467z" fill="url(#color-102)"/></g><g><g><path d="M157.61307,215.30376c0.4207,0.1052 6.54726,4.62778 6.65241,4.86442c0.13151,0.31555 -1.28838,5.60067 -1.57763,5.96876c-0.13145,0.18405 -0.89399,0.68365 -1.68284,1.13065c-0.78879,0.4207 -1.4199,0.84145 -1.4199,0.89399c0,0.0526 1.23585,0.9992 2.76089,2.10354c1.52509,1.13065 2.76094,2.10354 2.76094,2.20875c0,0.31549 -6.12656,2.97123 -6.28432,2.73458c-0.0789,-0.13151 -1.20954,-1.68284 -2.52423,-3.47082l-2.36649,-3.26048l-0.13144,2.99753l-0.13151,3.02383l-2.34019,0.07885c-1.28839,0.0526 -2.44533,-0.02624 -2.55054,-0.13145c-0.23665,-0.23665 -1.89313,-16.17091 -1.76169,-16.85455c0.0789,-0.36809 1.10433,-0.63105 5.20621,-1.39358c2.81348,-0.52584 5.25887,-0.9466 5.39031,-0.89399zM153.87928,219.69487c-0.26296,-0.0789 -0.3418,0.68365 -0.3418,3.36569c0,3.15528 0.0263,3.44453 0.4733,3.31302c0.23665,-0.0526 1.13065,-0.31555 1.94573,-0.52589l1.47249,-0.4207l0.4207,-1.84059c0.23665,-0.99914 0.4207,-1.91944 0.4207,-2.05094c0,-0.13145 -0.9203,-0.57844 -2.02463,-0.9729c-1.13065,-0.4207 -2.20868,-0.78879 -2.36649,-0.86769z" fill="url(#color-103)" stroke="none" stroke-width="0.04449"/><path d="M172.02217,215.33005c0.44706,0.0789 2.55054,0.3944 4.62778,0.70995l3.78638,0.57844l2.97123,8.88745c1.99834,6.02136 2.86608,8.94 2.65568,8.99259c-0.65734,0.26296 -6.6261,0.84139 -6.81015,0.68365c-0.0789,-0.0789 -0.3418,-1.10434 -0.57845,-2.23499c-0.23665,-1.15694 -0.4733,-2.15614 -0.5522,-2.20875c-0.26296,-0.26296 -4.99587,0.4996 -5.28512,0.86769c-0.15774,0.21035 -0.447,1.02549 -0.63105,1.84059c-0.1841,0.81515 -0.42076,1.5251 -0.52589,1.5777c-0.21035,0.13145 -6.28432,-1.0781 -6.49466,-1.26215c-0.10515,-0.13145 5.31142,-17.30154 5.73212,-18.11663c0.18405,-0.31555 0.4733,-0.39445 1.10433,-0.31555zM175.49301,221.21997c-0.36809,0 -0.68365,0.18405 -0.7625,0.447c-0.13151,0.4733 -0.68365,3.70742 -0.68365,4.07558c0,0.13145 0.76249,0.21035 1.68279,0.21035h1.68284l-0.36809,-1.26215c-0.1841,-0.68365 -0.4733,-1.73539 -0.63111,-2.36643c-0.23665,-0.9203 -0.3944,-1.10433 -0.9203,-1.10433z" fill="url(#color-104)" stroke="none" stroke-width="0.04449"/><path d="M238.73048,215.14601l1.26209,0.18405c0.68365,0.0789 2.07724,0.31555 3.07644,0.4733l1.84059,0.31555l0.0789,9.36069l0.05255,9.36069l-0.70995,0.1578c-0.4207,0.07884 -1.73538,0.15774 -2.97123,0.21035l-2.23499,0.07884l-0.0789,-4.02297l-0.07884,-3.99673h-1.63024c-0.89399,0 -2.07724,0.0789 -2.60314,0.1578l-0.9992,0.18405v3.36562v3.36568l-1.36729,0.2629c-3.65488,0.76255 -3.86522,0.76255 -3.99667,0.31555c-0.0789,-0.23665 -0.6048,-4.25968 -1.20955,-8.96629c-0.5785,-4.70668 -1.13065,-8.99259 -1.20954,-9.5448l-0.15774,-0.97284h3.57598h3.57604v3.68117v3.68117h2.89232h2.89239v-3.83898z" fill="url(#color-105)" stroke="none" stroke-width="0.04449"/><path d="M249.85282,215.17231c0.1578,0.0263 1.68284,0.3418 3.33939,0.73624l3.02384,0.73618v3.31308v3.33933l1.52503,0.36815c0.81515,0.21035 1.55135,0.31555 1.60394,0.21035c0.0526,-0.0789 0.65734,-1.84059 1.31469,-3.91782c0.68365,-2.05094 1.34105,-3.73378 1.4199,-3.73378c0.36815,0 5.31142,2.47164 5.31142,2.65574c0,0.23665 -3.05013,7.36236 -4.33852,10.09694c-1.02543,2.20868 -0.65734,1.84059 -7.52011,7.9934l-1.60393,1.44619l-4.18077,-2.07724c-2.28759,-1.15694 -4.18076,-2.18243 -4.18076,-2.31388c0,-0.13151 0.60474,-1.23584 1.34099,-2.44533l1.31469,-2.20875l1.94579,1.31469c1.07804,0.73625 2.05094,1.31475 2.15614,1.31475c0.13145,0 0.89399,-0.68365 1.73539,-1.52509l1.4988,-1.49874l-3.02383,-3.02384l-3.02384,-3.02384v-3.86522c0,-2.94493 0.0789,-3.89152 0.3418,-3.89152z" fill="url(#color-106)" stroke="none" stroke-width="0.04449"/><path d="M139.20718,215.46156c0.5522,-0.0263 6.38946,2.20868 6.78392,2.60308c0.18405,0.1578 -1.63024,4.20708 -2.07723,4.70668c-0.0526,0.0526 -1.0518,-0.31555 -2.23504,-0.84145l-2.12978,-0.97284l-1.81434,1.26209l-1.78799,1.23585l-0.0263,1.44619c0,0.78879 0.07891,1.86683 0.1578,2.39272c0.15774,0.9203 0.23664,0.9992 2.52423,1.89318l2.39272,0.9466l1.57764,-1.4199c0.86775,-0.78885 1.68284,-1.44619 1.81434,-1.44619c0.21035,0 0.81508,0.9203 2.15608,3.18157l0.68365,1.20954l-3.44453,1.89318l-3.44453,1.89318l-4.04928,-1.36729c-2.23504,-0.73625 -4.20708,-1.4988 -4.41743,-1.65654c-0.21035,-0.15774 -0.9729,-2.28759 -1.70915,-4.73298l-1.31469,-4.46996l1.9195,-2.73458l1.94573,-2.76089l2.97123,-1.13065c1.65654,-0.6048 3.23418,-1.13065 3.52343,-1.13065z" fill="url(#color-107)" stroke="none" stroke-width="0.04449"/><path d="M203.7067,215.4878l4.02297,-0.05255l-0.07884,2.81342l-0.0789,2.83979h-1.44619c-0.78879,0 -2.47164,-0.07891 -3.73372,-0.21035l-2.31388,-0.18405v6.96796v6.9679l-0.5785,0.1052c-0.3418,0.07884 -1.4199,0.21035 -2.44533,0.28925c-0.9992,0.07884 -2.10354,0.21035 -2.41909,0.31548l-0.60474,0.13151l0.0263,-4.41743c0,-2.44539 0.10515,-5.75841 0.21035,-7.33605c0.13145,-1.60393 0.18405,-2.94499 0.13145,-2.99753c-0.05254,-0.0526 -1.41989,0.10515 -3.05008,0.3418c-1.63024,0.23665 -3.15534,0.4207 -3.39199,0.4207c-0.3418,0 -0.60474,-0.68365 -1.13065,-2.76089c-0.36809,-1.49874 -0.68365,-2.81342 -0.68365,-2.89233c0,-0.0526 3.05014,-0.15774 6.78392,-0.21035c3.70748,-0.0263 8.57184,-0.0789 10.78058,-0.13151z" fill="url(#color-108)" stroke="none" stroke-width="0.04449"/><path d="M218.08954,215.46156c0.5522,-0.0263 6.38951,2.20868 6.78392,2.60308c0.18405,0.1578 -1.63024,4.20708 -2.07723,4.70668c-0.0526,0.0526 -1.0518,-0.31555 -2.23499,-0.84145l-2.12984,-0.97284l-1.81428,1.26209l-1.78799,1.23585l-0.0263,1.44619c0,0.78879 0.07884,1.86683 0.15774,2.39272c0.15774,0.9203 0.23664,0.9992 2.52423,1.89318l2.39279,0.9466l1.57763,-1.4199c0.86769,-0.78885 1.68279,-1.44619 1.81428,-1.44619c0.21035,0 0.81509,0.9203 2.15614,3.18157l0.68365,1.20954l-3.44453,1.89318l-3.44459,1.89318l-4.04928,-1.36729c-2.23499,-0.73625 -4.20708,-1.4988 -4.41743,-1.65654c-0.21035,-0.15774 -0.9729,-2.28759 -1.70908,-4.73298l-1.31475,-4.46996l1.9195,-2.73458l1.94579,-2.76089l2.97123,-1.13065c1.65648,-0.6048 3.23418,-1.13065 3.52337,-1.13065z" fill="url(#color-109)" stroke="none" stroke-width="0.04449"/><g><g stroke="#000000" stroke-width="0"><path d="M117.13984,212.54815c3.1778,3.82516 -1.28084,4.72044 -3.23695,5.17322c-1.95609,0.45278 -4.388,-0.2853 -3.78317,-2.50971c0.55431,-2.03861 0.22123,-1.47169 0.70465,-2.27293c0.36363,-0.6027 0.73317,-2.92221 1.41475,-3.07997c1.95609,-0.45278 3.37289,0.85034 4.90071,2.68941z" data-paper-data="{&quot;origPos&quot;:null}" fill="#ffe538"/><path d="M117.00555,214.35937c0.39655,1.71317 -3.47934,2.62102 -4.48247,2.85322c-1.00313,0.2322 -1.04732,-1.03281 -0.67799,-2.74813c0.51877,-2.40923 0.48732,-4.33589 1.29876,-3.68985c1.29566,1.03157 3.46515,1.87158 3.8617,3.58475z" data-paper-data="{&quot;origPos&quot;:null}" fill="#fffeeb"/><path d="M116.35428,214.18434c0.27825,1.20209 -2.44137,1.8391 -3.14523,2.00202c-0.70387,0.16292 -0.91607,-0.68275 -0.65691,-1.88634c0.364,-1.69049 0.34195,-3.04239 0.9113,-2.58907c0.90912,0.72383 2.61259,1.2713 2.89084,2.47339z" data-paper-data="{&quot;origPos&quot;:null}" fill="#ffbdbd"/></g><g stroke="#000000" stroke-width="0"><path d="M125.42757,209.5837c0.59794,0.13122 0.67145,3.1524 1.15767,5.01791c0.53053,2.03555 0.06369,4.22996 -1.65237,3.85334c-1.71606,-0.37661 -7.53106,-2.62592 -4.74305,-6.21312c1.34043,-1.72466 5.23773,-2.65814 5.23773,-2.65814z" data-paper-data="{&quot;index&quot;:null}" fill="#ffe538"/><path d="M124.59225,210.87826c0.77122,-0.66247 0.31833,0.73651 0.81127,3.12793c0.35095,1.70265 0.1165,2.92313 -0.83686,2.71391c-0.95336,-0.20922 -4.63699,-1.02831 -4.26004,-2.7459c0.37695,-1.71759 3.05421,-2.03814 4.28564,-3.09594z" data-paper-data="{&quot;origPos&quot;:null,&quot;index&quot;:null}" fill="#fffeeb"/><path d="M124.43871,211.92741c0.54114,-0.46484 0.06715,0.49756 0.41302,2.17557c0.24626,1.19471 -0.14786,2.00069 -0.81681,1.85389c-0.66896,-0.1468 -3.25365,-0.72154 -2.98916,-1.92673c0.26449,-1.20518 2.52887,-1.3605 3.39294,-2.10272z" data-paper-data="{&quot;origPos&quot;:null,&quot;index&quot;:null}" fill="#ffbdbd"/></g><path d="M121.5112,215.19861c0.68365,-0.0263 5.99506,2.65568 5.99506,3.05008c0,0.1578 -0.4733,1.18324 -1.07804,2.28759c-1.20955,2.26134 -0.84145,2.23504 -4.39112,0.44706l-2.07723,-1.0518l-0.86775,1.18324c-0.4733,0.65734 -0.81509,1.20954 -0.7625,1.23584c0.05254,0.02624 2.44533,1.23578 5.28512,2.68197c2.86602,1.44619 5.20622,2.73458 5.20622,2.86602c0,0.39445 -3.70748,6.49466 -4.02297,6.59986c-0.1841,0.07884 -2.18243,0.28925 -4.44373,0.4996l-4.10186,0.3944l-2.65574,-1.76169l-2.62938,-1.76174l-0.0263,-1.39358c0,-1.05174 0.15774,-1.63024 0.68365,-2.41903l0.70995,-1.05181l1.73539,0.9466c0.9466,0.52589 2.34019,1.31475 3.10273,1.70915l1.34099,0.76255l0.9466,-1.1044c0.4996,-0.63105 0.81508,-1.23578 0.70995,-1.34099c-0.13151,-0.13145 -2.20875,-1.26209 -4.65407,-2.49793c-4.44373,-2.31388 -4.44373,-2.31388 -4.52257,-3.26048c-0.0789,-0.86769 0.86769,-2.99753 2.26129,-5.15361c0.13145,-0.1841 1.91943,-0.68365 4.02297,-1.1044c2.07723,-0.3944 3.99673,-0.76249 4.23338,-0.76249z" fill="url(#color-110)" stroke="none" stroke-width="0.04449"/></g></g><g stroke="none" stroke-width="0.04449"><path d="M281.31057,215.19861c0.23665,-0.0263 0.31549,1.36729 0.31549,6.07391v6.12656l2.34019,-2.34019l2.34019,-2.31388l1.76169,2.39272c0.9466,1.31475 1.84059,2.39278 1.94579,2.39278c0.07884,0 0.57845,-1.94573 1.05175,-4.31222c0.4996,-2.36649 0.9729,-4.47002 1.0781,-4.62778c0.13145,-0.21035 1.10433,-0.0789 3.47082,0.447c2.94493,0.68365 3.33933,0.70995 3.57598,0.36809c0.13145,-0.23665 1.63024,-1.28839 3.31308,-2.36643l3.07638,-1.94579l2.68203,0.70995c4.23331,1.13065 4.04927,0.9992 5.81096,4.47002l1.57764,3.05008l-0.36809,1.36729c-0.18405,0.76255 -0.89399,3.10273 -1.55134,5.20628l-1.23585,3.81262l-1.28838,0.31555c-0.73625,0.18405 -2.31388,0.55214 -3.52343,0.78879l-2.18239,0.4733l-2.70835,-1.44613c-1.49874,-0.78885 -2.91863,-1.57764 -3.20788,-1.76174c-0.4207,-0.3418 -0.4733,-0.89399 -0.55214,-6.20541l-0.1052,-5.83726l-0.78878,2.49793c-0.42076,1.36729 -1.47249,4.70662 -2.34019,7.38866l-1.55141,4.89066l-1.89314,0.18411c-1.0518,0.10515 -2.49793,0.23664 -3.23418,0.31548l-1.31475,0.1578l-1.05174,-2.78719c-0.57844,-1.52509 -1.13065,-2.78719 -1.20955,-2.78719c-0.10515,0 -0.63105,1.02543 -1.18324,2.26129l-1.02543,2.26129l-3.10274,-0.10515c-1.70908,-0.0789 -3.20788,-0.23665 -3.36562,-0.39445c-0.21035,-0.21035 -3.91783,-16.30235 -3.91783,-17.09114c0,-0.36815 0.73625,-0.5522 4.86443,-1.1307c1.73539,-0.2629 3.31302,-0.47324 3.49713,-0.49954zM307.60469,220.85181l-0.97284,-0.4207l-1.31475,1.49874c-1.47244,1.65654 -1.49874,1.70915 -1.18318,5.36403c0.15774,1.89318 0.21035,1.99834 1.10433,2.57683c0.89399,0.60474 2.02463,0.63105 2.89232,0.07891c0.18405,-0.13151 0.70995,-1.60393 1.20955,-3.28678c0.86769,-3.02384 0.86769,-3.05014 0.4207,-4.07558c-0.26296,-0.5522 -0.63105,-1.0781 -0.81509,-1.18324c-0.21035,-0.0789 -0.81515,-0.31555 -1.34105,-0.5522z" fill="url(#color-111)"/><path d="M326.19471,215.30376c0.4207,0.1052 6.5472,4.62778 6.65241,4.86442c0.13145,0.31555 -1.28845,5.60067 -1.57763,5.96876c-0.13151,0.18405 -0.89399,0.68365 -1.68284,1.13065c-0.78885,0.4207 -1.4199,0.84145 -1.4199,0.89399c0,0.0526 1.23585,0.9992 2.76089,2.10354c1.52509,1.13065 2.76089,2.10354 2.76089,2.20875c0,0.31549 -6.12651,2.97123 -6.28432,2.73458c-0.07884,-0.13151 -1.20948,-1.68284 -2.52423,-3.47082l-2.36643,-3.26048l-0.13151,2.99753l-0.13145,3.02383l-2.34019,0.07885c-1.28839,0.0526 -2.44533,-0.02624 -2.55054,-0.13145c-0.23665,-0.23665 -1.89318,-16.17091 -1.76169,-16.85455c0.07884,-0.36809 1.10433,-0.63105 5.20621,-1.39358c2.81348,-0.52584 5.25881,-0.9466 5.39032,-0.89399zM322.46094,219.69487c-0.26296,-0.0789 -0.34185,0.68365 -0.34185,3.36569c0,3.15528 0.0263,3.44453 0.4733,3.31302c0.23665,-0.0526 1.13065,-0.31555 1.94579,-0.52589l1.47244,-0.4207l0.42076,-1.84059c0.23665,-0.99914 0.4207,-1.91944 0.4207,-2.05094c0,-0.13145 -0.92029,-0.57844 -2.02462,-0.9729c-1.13065,-0.4207 -2.20875,-0.78879 -2.36649,-0.86769z" fill="url(#color-112)"/><path d="M341.39273,215.19861c0.4207,-0.0263 0.447,0.4733 0.447,7.07311c0,3.89152 0.0526,7.0994 0.10515,7.0994c0.0526,0 2.12984,-0.70995 4.62778,-1.57763c2.49793,-0.86769 4.57517,-1.57763 4.62778,-1.57763c0.0526,0 0.1052,1.76169 0.1052,3.91782v3.91782l-0.9729,0.15774c-1.78799,0.28925 -13.30482,1.20954 -13.43631,1.10433c-0.13145,-0.15774 -2.55054,-15.25055 -2.83973,-17.72224c-0.1578,-1.47244 -0.13151,-1.63024 0.31548,-1.65654c0.28925,0 1.86689,-0.15774 3.52343,-0.36809c1.65654,-0.18405 3.23418,-0.3418 3.49714,-0.36809z" fill="url(#color-113)"/><path d="M360.7452,215.19861c0.05254,-0.0263 2.15608,1.15694 4.65401,2.62938l4.57523,2.65574v4.46996v4.47002l-1.76174,1.84059c-3.36562,3.47082 -2.91863,3.28678 -8.88739,3.76008c-2.86608,0.21035 -5.25881,0.3418 -5.31142,0.28919c-0.21035,-0.21035 -2.76089,-17.5382 -2.60314,-17.69594c0.0789,-0.0789 2.18244,-0.65734 4.68038,-1.28839c2.49793,-0.6048 4.60147,-1.13065 4.65407,-1.13065zM359.27269,221.29882c-0.26296,-0.10515 -0.34185,0.89399 -0.34185,4.49633c0,3.52337 0.0789,4.62778 0.34185,4.62778c0.36809,0 4.12818,-0.9729 4.25968,-1.1044c0.13145,-0.13145 0.9203,-4.73291 0.9203,-5.36396c0,-0.4733 -0.42076,-0.73624 -2.41909,-1.5514c-1.34099,-0.55214 -2.60314,-1.02543 -2.76089,-1.10434z" fill="url(#color-114)"/></g></g></g></g></svg>