<svg version="1.1" xmlns="http://www.w3.org/2000/svg" xmlns:xlink="http://www.w3.org/1999/xlink" width="351.99365" height="106.48818" viewBox="0,0,351.99365,106.48818"><g transform="translate(-60.84647,-186.86038)"><g data-paper-data="{&quot;isPaintingLayer&quot;:true}" stroke-linejoin="miter" stroke-miterlimit="10" stroke-dasharray="" stroke-dashoffset="0" style="mix-blend-mode: normal"><g fill-rule="nonzero" stroke="none" stroke-width="0" stroke-linecap="butt"><g fill="#e7e7e7" font-family="&quot;Helvetica Neue&quot;, Helvetica, Arial, sans-serif" font-weight="400" font-size="16" text-anchor="start"/><g fill="#e7e7e7" font-family="&quot;Helvetica Neue&quot;, Helvetica, Arial, sans-serif" font-weight="400" font-size="16" text-anchor="start"/><g data-paper-data="{&quot;index&quot;:null}" fill="#e7e7e7" font-family="&quot;Helvetica Neue&quot;, Helvetica, Arial, sans-serif" font-weight="400" font-size="16" text-anchor="start"/><g data-paper-data="{&quot;index&quot;:null}" fill="#e7e7e7" font-family="&quot;Helvetica Neue&quot;, Helvetica, Arial, sans-serif" font-weight="400" font-size="16" text-anchor="start"/><g data-paper-data="{&quot;index&quot;:null}" fill="#00f9ff"><path d="M63.8946,212.93075c-0.79397,0 -1.7631,0 -2.17723,0c-0.38501,0 -0.8709,-0.70674 -0.8709,-1.19747c0,-0.37664 0,-1.0963 0,-1.74179c0,-0.69632 0.66124,-1.30634 1.4152,-1.30634c0.74592,0 1.58259,0 1.95951,0c0.38501,0 0.87088,0.61901 0.87088,1.30634c0,0.56312 0,1.17208 0,1.52406c0,0.55267 -0.53838,1.4152 -1.19747,1.4152z"/></g></g><path d="M209.3421,193.35804c0,-1.37942 1.11824,-2.49766 2.49766,-2.49766c1.37942,0 2.49766,1.11824 2.49766,2.49766c0,1.37942 -1.11824,2.49766 -2.49766,2.49766c-1.37942,0 -2.49766,-1.11824 -2.49766,-2.49766z" fill="#00f9ff" fill-rule="nonzero" stroke="#ffffff" stroke-width="0" stroke-linecap="butt"/><path d="M307.34211,192.35804c0,-1.37942 1.11824,-2.49766 2.49766,-2.49766c1.37942,0 2.49766,1.11824 2.49766,2.49766c0,1.37942 -1.11824,2.49766 -2.49766,2.49766c-1.37942,0 -2.49766,-1.11824 -2.49766,-2.49766z" fill="#00f9ff" fill-rule="nonzero" stroke="#ffffff" stroke-width="0" stroke-linecap="butt"/><path d="M407.8448,189.35804c0,-1.37942 1.11824,-2.49766 2.49766,-2.49766c1.37942,0 2.49766,1.11824 2.49766,2.49766c0,1.37942 -1.11824,2.49766 -2.49766,2.49766c-1.37942,0 -2.49766,-1.11824 -2.49766,-2.49766z" fill="#00f9ff" fill-rule="nonzero" stroke="#ffffff" stroke-width="0" stroke-linecap="butt"/><path d="M102.43507,281.3021c0.70831,-0.65602 1.80965,-0.17558 1.80965,0.78976c0,0.60147 -0.1584,0.82562 -0.71056,1.00793c-1.14317,0.37807 -1.97552,-0.98477 -1.09908,-1.79769M88.69985,281.53596c0.58877,-0.43037 1.59819,-0.1457 1.75884,0.49612c0.19277,0.76735 -0.01793,7.97753 -0.25105,8.59618c-1.16559,3.09403 -6.41146,2.90724 -7.46497,-0.266c-0.5275,-1.58624 0.96908,-2.10403 1.90528,-0.65975c0.95115,1.46819 2.69355,1.58176 3.53262,0.23013c0.17708,-0.28467 0.20995,-0.8712 0.24133,-4.2753c0.03437,-3.73884 0.04932,-3.95402 0.27794,-4.12138M95.12028,283.64523c1.37181,-0.53572 3.54382,0.14495 4.54951,1.42634c3.23525,4.12213 -1.58923,9.48607 -5.88545,6.54446c-2.25496,-1.54365 -2.39169,-5.23392 -0.26151,-7.07495c0.52227,-0.45129 0.66498,-0.53124 1.59745,-0.89586M106.67152,283.94783c0.48715,-0.06201 0.82039,0.07023 0.96235,0.38031c0.15766,0.34444 0.18231,0.3422 1.03109,-0.11507c0.96459,-0.52003 2.64572,-0.49836 3.431,0.04409c1.27766,0.88166 1.45474,1.50181 1.45474,5.0957v2.83476l-0.30186,0.198c-0.18082,0.11806 -0.49163,0.18156 -0.77556,0.1584c-0.71878,-0.05977 -0.78677,-0.30037 -0.78901,-2.78918c-0.00299,-3.51095 -0.24059,-4.06161 -1.75286,-4.06161c-0.50509,0 -0.79424,0.06126 -0.93097,0.19874c-0.10983,0.10983 -0.24731,0.19949 -0.30485,0.19949c-0.49313,0 -0.68516,0.90557 -0.74866,3.52814c-0.06874,2.85642 -0.09563,2.94758 -0.88988,2.94758c-1.09834,0 -1.09908,-0.00299 -1.10058,-4.42474c-0.00224,-3.95402 0.02391,-4.10719 0.71504,-4.19461M102.41265,284.25118c0.14794,-0.21145 0.31605,-0.27645 0.71579,-0.27495c1.06621,0.00374 1.08265,0.06949 1.08265,4.23047c0,4.17444 -0.0142,4.2357 -0.99224,4.2357c-1.01167,0 -1.00046,0.04932 -1.00046,-4.23421c0,-3.12915 0.02914,-3.72165 0.19427,-3.95701M97.33564,285.56096c-0.21593,-0.13822 -0.57682,-0.21518 -0.99672,-0.2122c-2.72567,0.01793 -3.28455,4.36347 -0.65826,5.11586c2.85493,0.8174 4.22823,-3.25317 1.65498,-4.90367" fill="#00f9ff" fill-rule="evenodd" stroke="none" stroke-width="1" stroke-linecap="butt"/><path d="M73.43526,281.00008c1.65138,0 3.14775,0.664 4.23139,1.73629c1.08364,1.0723 1.75456,2.55336 1.75456,4.18795c0,1.6346 -0.67092,3.11565 -1.75456,4.18794c-1.08364,1.0723 -2.58001,1.73629 -4.23139,1.73629c-1.65138,0 -3.14774,-0.664 -4.23139,-1.73629c-1.08364,-1.0723 -1.75456,-2.55335 -1.75456,-4.18794c0,-1.6346 0.67092,-3.11566 1.75456,-4.18795c1.08364,-1.0723 2.58001,-1.73629 4.23139,-1.73629z" fill="none" fill-rule="nonzero" stroke="#00f9ff" stroke-width="1" stroke-linecap="butt"/><path d="M71.02611,283.83858l4.93859,-0.0392l0.29393,1.41105l-2.54767,3.13561l2.54767,-0.29394l-0.78387,1.86174l-4.40947,0.098l-0.58793,-1.4306l3.42954,-2.78286l-3.42954,-0.15679z" fill="#00f9ff" fill-rule="nonzero" stroke="none" stroke-width="0.79393" stroke-linecap="round"/><path d="M392.63963,281.80211c0.70831,-0.65602 1.80965,-0.17558 1.80965,0.78976c0,0.60147 -0.1584,0.82562 -0.71056,1.00793c-1.14317,0.37807 -1.97552,-0.98477 -1.09908,-1.79769M378.90441,282.03597c0.58877,-0.43037 1.59819,-0.1457 1.75884,0.49612c0.19277,0.76735 -0.01793,7.97753 -0.25105,8.59618c-1.16559,3.09403 -6.41146,2.90724 -7.46497,-0.266c-0.5275,-1.58624 0.96908,-2.10403 1.90528,-0.65975c0.95115,1.46819 2.69355,1.58176 3.53262,0.23013c0.17708,-0.28467 0.20995,-0.8712 0.24133,-4.2753c0.03437,-3.73884 0.04932,-3.95402 0.27794,-4.12138M385.32484,284.14524c1.37181,-0.53572 3.54382,0.14495 4.54951,1.42634c3.23525,4.12213 -1.58923,9.48607 -5.88545,6.54446c-2.25496,-1.54365 -2.39169,-5.23392 -0.26151,-7.07495c0.52227,-0.45129 0.66498,-0.53124 1.59745,-0.89586M396.87608,284.44784c0.48715,-0.06201 0.82039,0.07023 0.96235,0.38031c0.15766,0.34444 0.18231,0.3422 1.03109,-0.11507c0.96459,-0.52003 2.64572,-0.49836 3.431,0.04409c1.27766,0.88166 1.45474,1.50181 1.45474,5.0957v2.83476l-0.30186,0.198c-0.18082,0.11806 -0.49163,0.18156 -0.77556,0.1584c-0.71878,-0.05977 -0.78677,-0.30037 -0.78901,-2.78918c-0.00299,-3.51095 -0.24059,-4.06161 -1.75286,-4.06161c-0.50509,0 -0.79424,0.06126 -0.93097,0.19874c-0.10983,0.10983 -0.24731,0.19949 -0.30485,0.19949c-0.49313,0 -0.68516,0.90557 -0.74866,3.52814c-0.06874,2.85642 -0.09563,2.94758 -0.88988,2.94758c-1.09834,0 -1.09908,-0.00299 -1.10058,-4.42474c-0.00224,-3.95402 0.02391,-4.10719 0.71504,-4.19461M392.61721,284.75119c0.14794,-0.21145 0.31605,-0.27645 0.71579,-0.27495c1.06621,0.00374 1.08265,0.06949 1.08265,4.23047c0,4.17444 -0.0142,4.2357 -0.99224,4.2357c-1.01167,0 -1.00046,0.04932 -1.00046,-4.23421c0,-3.12915 0.02914,-3.72165 0.19427,-3.95701M387.5402,286.06097c-0.21593,-0.13822 -0.57682,-0.21518 -0.99672,-0.2122c-2.72567,0.01793 -3.28455,4.36347 -0.65826,5.11586c2.85493,0.8174 4.22823,-3.25317 1.65498,-4.90367" fill="#00f9ff" fill-rule="evenodd" stroke="none" stroke-width="1" stroke-linecap="butt"/><path d="M292.13693,281.80211c0.70831,-0.65602 1.80965,-0.17558 1.80965,0.78976c0,0.60147 -0.1584,0.82562 -0.71056,1.00793c-1.14317,0.37807 -1.97552,-0.98477 -1.09908,-1.79769M278.40171,282.03597c0.58877,-0.43037 1.59819,-0.1457 1.75884,0.49612c0.19277,0.76735 -0.01793,7.97753 -0.25105,8.59618c-1.16559,3.09403 -6.41146,2.90724 -7.46497,-0.266c-0.5275,-1.58624 0.96908,-2.10403 1.90528,-0.65975c0.95115,1.46819 2.69355,1.58176 3.53262,0.23013c0.17708,-0.28467 0.20995,-0.8712 0.24133,-4.2753c0.03437,-3.73884 0.04932,-3.95402 0.27794,-4.12138M284.82214,284.14524c1.37181,-0.53572 3.54382,0.14495 4.54951,1.42634c3.23525,4.12213 -1.58923,9.48607 -5.88545,6.54446c-2.25496,-1.54365 -2.39169,-5.23392 -0.26151,-7.07495c0.52227,-0.45129 0.66498,-0.53124 1.59745,-0.89586M296.37338,284.44784c0.48715,-0.06201 0.82039,0.07023 0.96235,0.38031c0.15766,0.34444 0.18231,0.3422 1.03109,-0.11507c0.96459,-0.52003 2.64572,-0.49836 3.431,0.04409c1.27766,0.88166 1.45474,1.50181 1.45474,5.0957v2.83476l-0.30186,0.198c-0.18082,0.11806 -0.49163,0.18156 -0.77556,0.1584c-0.71878,-0.05977 -0.78677,-0.30037 -0.78901,-2.78918c-0.00299,-3.51095 -0.24059,-4.06161 -1.75286,-4.06161c-0.50509,0 -0.79424,0.06126 -0.93097,0.19874c-0.10983,0.10983 -0.24731,0.19949 -0.30485,0.19949c-0.49313,0 -0.68516,0.90557 -0.74866,3.52814c-0.06874,2.85642 -0.09563,2.94758 -0.88988,2.94758c-1.09834,0 -1.09908,-0.00299 -1.10058,-4.42474c-0.00224,-3.95402 0.02391,-4.10719 0.71504,-4.19461M292.11451,284.75119c0.14794,-0.21145 0.31605,-0.27645 0.71579,-0.27495c1.06621,0.00374 1.08265,0.06949 1.08265,4.23047c0,4.17444 -0.0142,4.2357 -0.99224,4.2357c-1.01167,0 -1.00046,0.04932 -1.00046,-4.23421c0,-3.12915 0.02914,-3.72165 0.19427,-3.95701M287.0375,286.06097c-0.21593,-0.13822 -0.57682,-0.21518 -0.99672,-0.2122c-2.72567,0.01793 -3.28455,4.36347 -0.65826,5.11586c2.85493,0.8174 4.22823,-3.25317 1.65498,-4.90367" fill="#00f9ff" fill-rule="evenodd" stroke="none" stroke-width="1" stroke-linecap="butt"/><path d="M194.13693,281.80211c0.70831,-0.65602 1.80965,-0.17558 1.80965,0.78976c0,0.60147 -0.1584,0.82562 -0.71056,1.00793c-1.14317,0.37807 -1.97552,-0.98477 -1.09908,-1.79769M180.40171,282.03597c0.58877,-0.43037 1.59819,-0.1457 1.75884,0.49612c0.19277,0.76735 -0.01793,7.97753 -0.25105,8.59618c-1.16559,3.09403 -6.41146,2.90724 -7.46497,-0.266c-0.5275,-1.58624 0.96908,-2.10403 1.90528,-0.65975c0.95115,1.46819 2.69355,1.58176 3.53262,0.23013c0.17708,-0.28467 0.20995,-0.8712 0.24133,-4.2753c0.03437,-3.73884 0.04932,-3.95402 0.27794,-4.12138M186.82214,284.14524c1.37181,-0.53572 3.54382,0.14495 4.54951,1.42634c3.23525,4.12213 -1.58923,9.48607 -5.88545,6.54446c-2.25496,-1.54365 -2.39169,-5.23392 -0.26151,-7.07495c0.52227,-0.45129 0.66498,-0.53124 1.59745,-0.89586M198.37338,284.44784c0.48715,-0.06201 0.82039,0.07023 0.96235,0.38031c0.15766,0.34444 0.18231,0.3422 1.03109,-0.11507c0.96459,-0.52003 2.64572,-0.49836 3.431,0.04409c1.27766,0.88166 1.45474,1.50181 1.45474,5.0957v2.83476l-0.30186,0.198c-0.18082,0.11806 -0.49163,0.18156 -0.77556,0.1584c-0.71878,-0.05977 -0.78677,-0.30037 -0.78901,-2.78918c-0.00299,-3.51095 -0.24059,-4.06161 -1.75286,-4.06161c-0.50509,0 -0.79424,0.06126 -0.93097,0.19874c-0.10983,0.10983 -0.24731,0.19949 -0.30485,0.19949c-0.49313,0 -0.68516,0.90557 -0.74866,3.52814c-0.06874,2.85642 -0.09563,2.94758 -0.88988,2.94758c-1.09834,0 -1.09908,-0.00299 -1.10058,-4.42474c-0.00224,-3.95402 0.02391,-4.10719 0.71504,-4.19461M194.11451,284.75119c0.14794,-0.21145 0.31605,-0.27645 0.71579,-0.27495c1.06621,0.00374 1.08265,0.06949 1.08265,4.23047c0,4.17444 -0.0142,4.2357 -0.99224,4.2357c-1.01167,0 -1.00046,0.04932 -1.00046,-4.23421c0,-3.12915 0.02914,-3.72165 0.19427,-3.95701M189.0375,286.06097c-0.21593,-0.13822 -0.57682,-0.21518 -0.99672,-0.2122c-2.72567,0.01793 -3.28455,4.36347 -0.65826,5.11586c2.85493,0.8174 4.22823,-3.25317 1.65498,-4.90367" fill="#00f9ff" fill-rule="evenodd" stroke="none" stroke-width="1" stroke-linecap="butt"/></g></g></svg>