<svg version="1.1" xmlns="http://www.w3.org/2000/svg" xmlns:xlink="http://www.w3.org/1999/xlink" width="435.91646" height="401.83556" viewBox="0,0,435.91646,401.83556"><defs><linearGradient x1="354.09038" y1="202.5" x2="380.90981" y2="202.5" gradientUnits="userSpaceOnUse" id="color-1"><stop offset="0" stop-color="#ffffff"/><stop offset="1" stop-color="#a6a6a6"/></linearGradient><linearGradient x1="369.00005" y1="48.36512" x2="369.00005" y2="145.63488" gradientUnits="userSpaceOnUse" id="color-2"><stop offset="0" stop-color="#ffc93b"/><stop offset="1" stop-color="#ffae26"/></linearGradient><linearGradient x1="128.75131" y1="298.2197" x2="123.40008" y2="307.4625" gradientUnits="userSpaceOnUse" id="color-3"><stop offset="0" stop-color="#804900"/><stop offset="1" stop-color="#b87200"/></linearGradient><linearGradient x1="104.74031" y1="252.25327" x2="104.74031" y2="259.88978" gradientUnits="userSpaceOnUse" id="color-4"><stop offset="0" stop-color="#613700"/><stop offset="1" stop-color="#845304"/></linearGradient><linearGradient x1="104.74031" y1="235.3315" x2="104.74031" y2="252.6434" gradientUnits="userSpaceOnUse" id="color-5"><stop offset="0" stop-color="#804900"/><stop offset="1" stop-color="#b87200"/></linearGradient><linearGradient x1="371.79676" y1="282.8019" x2="371.79676" y2="450.20068" gradientUnits="userSpaceOnUse" id="color-6"><stop offset="0" stop-color="#ffd210"/><stop offset="1" stop-color="#b2930b"/></linearGradient><linearGradient x1="273.09029" y1="214" x2="299.9098" y2="214" gradientUnits="userSpaceOnUse" id="color-7"><stop offset="0" stop-color="#ffffff"/><stop offset="1" stop-color="#a6a6a6"/></linearGradient><linearGradient x1="287.50001" y1="85.86512" x2="287.50001" y2="183.13488" gradientUnits="userSpaceOnUse" id="color-8"><stop offset="0" stop-color="#ffc93b"/><stop offset="1" stop-color="#ffae26"/></linearGradient><linearGradient x1="315.75003" y1="273" x2="315.75003" y2="298.5" gradientUnits="userSpaceOnUse" id="color-9"><stop offset="0" stop-color="#2ee579"/><stop offset="1" stop-color="#00cc49"/></linearGradient><radialGradient cx="389.20099" cy="269.11013" r="9.05332" gradientUnits="userSpaceOnUse" id="color-10"><stop offset="0" stop-color="#15b700"/><stop offset="1" stop-color="#5fd336"/></radialGradient><radialGradient cx="407.82406" cy="269.23331" r="9.05332" gradientUnits="userSpaceOnUse" id="color-11"><stop offset="0" stop-color="#15b700"/><stop offset="1" stop-color="#5fd336"/></radialGradient><radialGradient cx="398.50001" cy="263" r="14.43427" gradientUnits="userSpaceOnUse" id="color-12"><stop offset="0" stop-color="#e5e5e5"/><stop offset="1" stop-color="#e5e5e5" stop-opacity="0"/></radialGradient><radialGradient cx="398.50001" cy="263" r="11.0845" gradientUnits="userSpaceOnUse" id="color-13"><stop offset="0" stop-color="#ffffff"/><stop offset="1" stop-color="#e5e5e5"/></radialGradient><radialGradient cx="388.4784" cy="276.77308" r="9.05332" gradientUnits="userSpaceOnUse" id="color-14"><stop offset="0" stop-color="#15b700"/><stop offset="1" stop-color="#5fd336"/></radialGradient><radialGradient cx="408.52166" cy="276.6499" r="9.05332" gradientUnits="userSpaceOnUse" id="color-15"><stop offset="0" stop-color="#15b700"/><stop offset="1" stop-color="#5fd336"/></radialGradient><radialGradient cx="428.20099" cy="273.11013" r="9.05332" gradientUnits="userSpaceOnUse" id="color-16"><stop offset="0" stop-color="#15b700"/><stop offset="1" stop-color="#5fd336"/></radialGradient><radialGradient cx="446.82406" cy="273.23331" r="9.05332" gradientUnits="userSpaceOnUse" id="color-17"><stop offset="0" stop-color="#15b700"/><stop offset="1" stop-color="#5fd336"/></radialGradient><radialGradient cx="437.50001" cy="267" r="14.43427" gradientUnits="userSpaceOnUse" id="color-18"><stop offset="0" stop-color="#e5e5e5"/><stop offset="1" stop-color="#e5e5e5" stop-opacity="0"/></radialGradient><radialGradient cx="437.50001" cy="267" r="11.0845" gradientUnits="userSpaceOnUse" id="color-19"><stop offset="0" stop-color="#ffffff"/><stop offset="1" stop-color="#e5e5e5"/></radialGradient><radialGradient cx="427.4784" cy="280.77308" r="9.05332" gradientUnits="userSpaceOnUse" id="color-20"><stop offset="0" stop-color="#15b700"/><stop offset="1" stop-color="#5fd336"/></radialGradient><radialGradient cx="447.52166" cy="280.6499" r="9.05332" gradientUnits="userSpaceOnUse" id="color-21"><stop offset="0" stop-color="#15b700"/><stop offset="1" stop-color="#5fd336"/></radialGradient><radialGradient cx="367.20099" cy="280.11013" r="9.05332" gradientUnits="userSpaceOnUse" id="color-22"><stop offset="0" stop-color="#15b700"/><stop offset="1" stop-color="#5fd336"/></radialGradient><radialGradient cx="385.82406" cy="280.23331" r="9.05332" gradientUnits="userSpaceOnUse" id="color-23"><stop offset="0" stop-color="#15b700"/><stop offset="1" stop-color="#5fd336"/></radialGradient><radialGradient cx="376.50001" cy="274" r="14.43427" gradientUnits="userSpaceOnUse" id="color-24"><stop offset="0" stop-color="#e5e5e5"/><stop offset="1" stop-color="#e5e5e5" stop-opacity="0"/></radialGradient><radialGradient cx="376.50001" cy="274" r="11.0845" gradientUnits="userSpaceOnUse" id="color-25"><stop offset="0" stop-color="#ffffff"/><stop offset="1" stop-color="#e5e5e5"/></radialGradient><radialGradient cx="366.4784" cy="287.77308" r="9.05332" gradientUnits="userSpaceOnUse" id="color-26"><stop offset="0" stop-color="#15b700"/><stop offset="1" stop-color="#5fd336"/></radialGradient><radialGradient cx="386.52166" cy="287.6499" r="9.05332" gradientUnits="userSpaceOnUse" id="color-27"><stop offset="0" stop-color="#15b700"/><stop offset="1" stop-color="#5fd336"/></radialGradient></defs><g transform="translate(-51.33356,-48.36512)"><g data-paper-data="{&quot;isPaintingLayer&quot;:true}" fill-rule="nonzero" stroke-linecap="butt" stroke-linejoin="miter" stroke-miterlimit="10" stroke-dasharray="" stroke-dashoffset="0" style="mix-blend-mode: normal"><g><path d="M351.09034,280.25036c0,0 1.82379,-3.95807 2.33751,-5.8517c0.48458,-1.78618 0.66249,-5.20656 0.66249,-5.20656v-144.44245h26.81947v143.4058c0,0 0.16284,4.70546 1.19289,6.78185c0.96581,1.94691 4.80711,5.31307 4.80711,5.31307z" fill="url(#color-1)" stroke="#5b5b5b" stroke-width="0"/><g><path d="M322.20756,94.17463c0,-25.29987 20.50964,-45.80951 45.80951,-45.80951c25.29987,0 45.80951,20.50964 45.80951,45.80951c0,20.33723 12.98558,41.98827 12.98558,41.98827c0,0 -57.54074,9.5259 -61.21673,9.47175c-24.17224,-0.35623 -54.40751,-9.51376 -54.40751,-9.51376c0,0 11.01965,-16.64636 11.01965,-41.94626z" fill="url(#color-2)" stroke="#bd9b0b" stroke-width="0"/><path d="M413.63967,95.42038c0,0 -33.00211,5.19099 -45.59822,5.19099c-15.08303,0 -45.80223,-5.2282 -45.80223,-5.2282c0,0 0.30275,-8.21897 0.93131,-10.99952c1.35543,-5.99595 3.39156,-9.59506 3.39156,-9.59506c0,0 29.33369,6.72507 41.09191,6.72507c11.75817,0 41.79607,-7.19004 41.79607,-7.19004c0,0 2.25018,6.51482 3.28614,9.996c1.07884,3.62524 0.90347,11.10076 0.90347,11.10076z" fill="#ffef43" stroke="none" stroke-width="1.5"/><path d="M423.03164,128.25633c0,0 -41.01691,7.87781 -54.89906,7.87781c-16.62296,0 -52.90461,-8.61183 -52.90461,-8.61183c0,0 3.05568,-8.5769 4.15415,-12.23476c0.89317,-2.97423 1.70911,-8.08889 1.70911,-8.08889c0,0 34.79843,10.32697 47.7571,10.32697c12.95867,0 46.73137,-10.74754 46.73137,-10.74754c0,0 0.8073,3.71032 1.68845,6.24997c1.37541,3.96424 5.7635,15.22827 5.7635,15.22827z" fill="#ffef43" stroke="none" stroke-width="1.5"/><path d="M403.03945,64.72531c0,0 -25.98919,4.09166 -35.33538,4.09166c-11.19147,0 -33.98482,-4.83928 -33.98482,-4.83928c0,0 3.18473,-3.44772 4.90055,-4.94956c1.57332,-1.37712 5.00398,-3.71981 5.00398,-3.71981c0,0 15.06831,2.29568 23.7928,2.29568c8.72445,0 26.2353,-1.51028 26.2353,-1.51028c0,0 2.75178,1.94932 4.18685,3.20014c1.72166,1.50064 5.20072,5.43145 5.20072,5.43145z" fill="#ffef43" stroke="none" stroke-width="1.5"/></g></g><g data-paper-data="{&quot;index&quot;:null}" stroke="#12a22d" stroke-width="0"><path d="M92.18603,253.54873l5.35123,-9.2428l62.42812,107.82754l-5.35123,9.2428z" data-paper-data="{&quot;index&quot;:null}" fill="url(#color-3)"/><g data-paper-data="{&quot;index&quot;:null}"><path d="M72.75518,259.88978l-12.73718,-7.63651h88.86566v7.63651z" fill="url(#color-4)"/><path d="M60.59696,252.6434l-9.2634,-17.31192h97.55009v17.31192z" fill="url(#color-5)"/></g></g><path d="M142.63539,450.20068l3.5,-210.70079l167.61464,43.30201h173.20809v167.39878z" fill="url(#color-6)" stroke="none" stroke-width="0"/><g stroke-width="0"><path d="M146.02233,311.06955v-21.92143c0,0 19.8647,-4.87143 38.97952,-4.87143c14.35642,0 42.94858,6.03846 77.04275,6.55693c21.99881,0.33454 47.21633,-6.89374 71.45023,-6.96755c26.55703,-0.0809 53.4019,6.20035 76.59411,7.02028c20.06907,0.70951 37.6554,-2.0155 50.89308,-2.5446c15.99987,-0.63951 25.64702,0.80638 25.64702,0.80638v21.92143c0,0 -11.61578,-1.66058 -29.83726,-1.27636c-15.2781,0.32214 -35.06239,2.80517 -57.87468,1.89028c-20.37437,-0.81711 -43.5681,-7.14212 -65.8853,-7.32989c-25.84581,-0.21744 -52.17266,5.93939 -75.15994,5.42333c-30.54854,-0.68579 -56.01868,-6.01452 -69.62171,-6.01452c-20.45628,0 -42.22781,7.30715 -42.22781,7.30715z" fill="#dab40d" stroke="#f1c70e"/><path d="M145.70446,354.35191v-21.92145c0,0 19.8647,-4.87143 38.97952,-4.87143c14.35642,0 42.94859,6.03846 77.04275,6.55693c21.99881,0.33453 47.21632,-6.89374 71.45023,-6.96755c26.55701,-0.0809 53.40189,6.20034 76.59411,7.02028c20.06907,0.70951 37.65539,-2.01551 50.89307,-2.5446c15.99987,-0.63951 25.64702,0.80638 25.64702,0.80638v21.92145c0,0 -11.61579,-1.66058 -29.83726,-1.27638c-15.2781,0.32214 -35.06239,2.80517 -57.87468,1.89029c-20.37438,-0.81711 -43.56809,-7.14213 -65.8853,-7.32989c-25.8458,-0.21744 -52.17266,5.93939 -75.15993,5.42333c-30.54854,-0.68579 -56.01869,-6.0145 -69.62172,-6.0145c-20.45628,0 -42.22781,7.30715 -42.22781,7.30715z" fill="#cca90c" stroke="#e6be0e"/><path d="M145.70448,398.38384v-21.92143c0,0 19.86469,-4.87143 38.97951,-4.87143c14.35642,0 42.94858,6.03846 77.04275,6.55693c21.99881,0.33453 47.21633,-6.89374 71.45023,-6.96754c26.55703,-0.0809 53.4019,6.20034 76.59411,7.02028c20.06907,0.70951 37.65539,-2.01551 50.89307,-2.5446c15.99987,-0.63951 25.64702,0.80638 25.64702,0.80638v21.92143c0,0 -11.61579,-1.66058 -29.83726,-1.27638c-15.2781,0.32214 -35.06239,2.80517 -57.87468,1.89028c-20.37438,-0.81711 -43.56809,-7.14212 -65.88529,-7.32988c-25.8458,-0.21744 -52.17266,5.93939 -75.15993,5.42333c-30.54854,-0.68579 -56.01869,-6.0145 -69.62172,-6.0145c-20.45629,0 -42.2278,7.30715 -42.2278,7.30715z" fill="#c09f0c" stroke="#d8b20d"/><path d="M145.83493,446.60767v-21.92143c0,0 19.8647,-4.87143 38.97952,-4.87143c14.35642,0 42.94858,6.03846 77.04275,6.55693c21.99881,0.33453 47.21633,-6.89374 71.45023,-6.96754c26.55703,-0.0809 53.4019,6.20034 76.59411,7.02028c20.06907,0.70951 37.6554,-2.01551 50.89308,-2.5446c15.99987,-0.63951 25.64702,0.80638 25.64702,0.80638v21.92143c0,0 -11.61579,-1.66058 -29.83726,-1.27638c-15.2781,0.32214 -35.06239,2.80517 -57.87468,1.89028c-20.37438,-0.81711 -43.56809,-7.14212 -65.88529,-7.32988c-25.8458,-0.21744 -52.17265,5.93939 -75.15993,5.42333c-30.54854,-0.68579 -56.01869,-6.0145 -69.62172,-6.0145c-20.45629,0 -42.22781,7.30715 -42.22781,7.30715z" data-paper-data="{&quot;index&quot;:null}" fill="#b3940b" stroke="#cca90c"/></g><g><path d="M270.09029,270.25036c0,0 1.82379,-2.86356 2.33751,-4.23355c0.48458,-1.29226 0.66249,-3.76681 0.66249,-3.76681v-104.50035h26.81947v103.75036c0,0 0.16284,3.40428 1.19289,4.90649c0.96581,1.40854 4.80711,3.84387 4.80711,3.84387z" fill="url(#color-7)" stroke="#5b5b5b" stroke-width="0"/><g><path d="M240.70753,131.67463c0,-25.29987 20.50964,-45.80951 45.80951,-45.80951c25.29987,0 45.80951,20.50964 45.80951,45.80951c0,20.33723 12.98558,41.98827 12.98558,41.98827c0,0 -57.54074,9.5259 -61.21673,9.47175c-24.17224,-0.35623 -54.40751,-9.51376 -54.40751,-9.51376c0,0 11.01965,-16.64636 11.01965,-41.94626z" fill="url(#color-8)" stroke="#bd9b0b" stroke-width="0"/><path d="M332.13963,132.92038c0,0 -33.00211,5.19099 -45.59822,5.19099c-15.08303,0 -45.80223,-5.2282 -45.80223,-5.2282c0,0 0.30275,-8.21897 0.9313,-10.99952c1.35543,-5.99595 3.39157,-9.59506 3.39157,-9.59506c0,0 29.33369,6.72507 41.09191,6.72507c11.75817,0 41.79607,-7.19004 41.79607,-7.19004c0,0 2.25018,6.51483 3.28615,9.996c1.07884,3.62524 0.90347,11.10076 0.90347,11.10076z" fill="#ffef43" stroke="none" stroke-width="1.5"/><path d="M341.5316,165.75633c0,0 -41.01691,7.87781 -54.89906,7.87781c-16.62296,0 -52.90461,-8.61183 -52.90461,-8.61183c0,0 3.05568,-8.5769 4.15415,-12.23477c0.89317,-2.97423 1.70911,-8.08889 1.70911,-8.08889c0,0 34.79844,10.32697 47.75711,10.32697c12.95867,0 46.73137,-10.74754 46.73137,-10.74754c0,0 0.80731,3.71032 1.68845,6.24997c1.37541,3.96424 5.7635,15.22827 5.7635,15.22827z" fill="#ffef43" stroke="none" stroke-width="1.5"/><path d="M321.53944,102.22531c0,0 -25.98919,4.09166 -35.33538,4.09166c-11.19147,0 -33.98482,-4.83929 -33.98482,-4.83929c0,0 3.18473,-3.44772 4.90055,-4.94956c1.57332,-1.37712 5.00398,-3.71981 5.00398,-3.71981c0,0 15.06831,2.29568 23.7928,2.29568c8.72445,0 26.2353,-1.51028 26.2353,-1.51028c0,0 2.75178,1.94932 4.18685,3.20014c1.72166,1.50064 5.20072,5.43145 5.20072,5.43145z" fill="#ffef43" stroke="none" stroke-width="1.5"/></g></g><path d="M146.75001,233l172.50001,40h168v25.5c0,0 -7.37103,-8.55143 -19.56536,-7.02076c-15.42749,1.9365 -37.97446,14.00441 -56.43205,13.43668c-15.44558,-0.47508 -20.52148,-11.0021 -32.9755,-10.05844c-19.88051,1.50637 -12.89804,13.64252 -23.52709,13.64252c-9.339,0 -18.35544,-14.32148 -29.50826,-16.45686c-10.00267,-1.91517 -22.40848,8.41718 -26.94136,7.08464c-11.03429,-3.24376 -26.17757,-12.83771 -38.12008,-13.29091c-16.85405,-0.63958 -22.74247,10.34788 -37.12659,7.00871c-21.08898,-4.89567 -15.63735,-19.4376 -33.09469,-22.86228c-14.81314,-2.90596 -22.39161,0.26003 -27.01628,-0.81355c-2.09158,-0.48555 -6.63396,-3.15814 -10.45291,-5.57077c-3.40797,-2.15299 -8.23983,22.90103 -8.23983,22.90103z" fill="url(#color-9)" stroke="none" stroke-width="0"/><g stroke="none" stroke-width="0"><path d="M396.75338,274.18599c-0.53698,1.00475 -3.8989,-1.30411 -8.30863,-3.66089c-4.40973,-2.35677 -7.76528,-4.67754 -7.2283,-5.68229c0.53698,-1.00475 4.76317,-0.313 9.17289,2.04377c4.40973,2.35677 6.90102,6.29466 6.36403,7.29941z" data-paper-data="{&quot;index&quot;:null}" fill="url(#color-10)"/><path d="M406.63571,267.00977c4.40973,-2.35677 8.63591,-3.04852 9.1729,-2.04377c0.53699,1.00475 -2.81857,3.32552 -7.2283,5.68229c-4.40973,2.35677 -7.77164,4.66564 -8.30863,3.66089c-0.53698,-1.00475 1.9543,-4.94263 6.36403,-7.29941z" data-paper-data="{&quot;index&quot;:null}" fill="url(#color-11)"/><path d="M384.06575,263c0,-7.97182 6.46245,-14.43427 14.43427,-14.43427c7.97182,0 14.43427,6.46245 14.43427,14.43427c0,7.97182 -6.46245,14.43427 -14.43427,14.43427c-7.97182,0 -14.43427,-6.46245 -14.43427,-14.43427z" fill="url(#color-12)"/><path d="M387.41553,263c0,-6.12179 4.9627,-11.0845 11.08449,-11.0845c6.1218,0 11.0845,4.9627 11.0845,11.0845c0,6.12179 -4.9627,11.0845 -11.0845,11.0845c-6.12179,0 -11.08449,-4.9627 -11.08449,-11.0845z" fill="url(#color-13)"/><path d="M397.57475,277.01736c0.08431,1.13612 -3.99131,0.98568 -8.97761,1.35571c-4.9863,0.37003 -9.06292,0.20613 -9.14723,-0.92999c-0.08431,-1.13612 3.85562,-2.81423 8.84191,-3.18426c4.9863,-0.37003 9.19862,1.62242 9.28293,2.75854z" fill="url(#color-14)"/><path d="M408.70824,274.13563c4.9863,0.37003 8.92622,2.04814 8.84191,3.18426c-0.08431,1.13612 -4.16093,1.30002 -9.14723,0.92999c-4.9863,-0.37003 -9.06191,-0.21959 -8.9776,-1.35571c0.08431,-1.13612 4.29662,-3.12858 9.28292,-2.75854z" data-paper-data="{&quot;index&quot;:null}" fill="url(#color-15)"/></g><g stroke="none" stroke-width="0"><path d="M435.75338,278.18599c-0.53698,1.00475 -3.8989,-1.30411 -8.30863,-3.66089c-4.40973,-2.35677 -7.76528,-4.67754 -7.2283,-5.68229c0.53698,-1.00475 4.76317,-0.313 9.17289,2.04377c4.40973,2.35677 6.90102,6.29466 6.36403,7.29941z" data-paper-data="{&quot;index&quot;:null}" fill="url(#color-16)"/><path d="M445.63571,271.00977c4.40973,-2.35677 8.63591,-3.04852 9.1729,-2.04377c0.53699,1.00475 -2.81857,3.32552 -7.2283,5.68229c-4.40973,2.35677 -7.77164,4.66564 -8.30863,3.66089c-0.53698,-1.00475 1.9543,-4.94263 6.36403,-7.29941z" data-paper-data="{&quot;index&quot;:null}" fill="url(#color-17)"/><path d="M423.06575,267c0,-7.97182 6.46245,-14.43427 14.43427,-14.43427c7.97182,0 14.43427,6.46245 14.43427,14.43427c0,7.97182 -6.46245,14.43427 -14.43427,14.43427c-7.97182,0 -14.43427,-6.46245 -14.43427,-14.43427z" fill="url(#color-18)"/><path d="M426.41553,267c0,-6.12179 4.9627,-11.0845 11.08449,-11.0845c6.1218,0 11.0845,4.9627 11.0845,11.0845c0,6.12179 -4.9627,11.0845 -11.0845,11.0845c-6.12179,0 -11.08449,-4.9627 -11.08449,-11.0845z" fill="url(#color-19)"/><path d="M436.57475,281.01736c0.08431,1.13612 -3.99131,0.98568 -8.97761,1.35571c-4.9863,0.37003 -9.06292,0.20613 -9.14723,-0.92999c-0.08431,-1.13612 3.85562,-2.81423 8.84191,-3.18426c4.9863,-0.37003 9.19862,1.62242 9.28293,2.75854z" fill="url(#color-20)"/><path d="M447.70824,278.13563c4.9863,0.37003 8.92622,2.04814 8.84191,3.18426c-0.08431,1.13612 -4.16093,1.30002 -9.14723,0.92999c-4.9863,-0.37003 -9.06191,-0.21959 -8.9776,-1.35571c0.08431,-1.13612 4.29662,-3.12858 9.28292,-2.75854z" data-paper-data="{&quot;index&quot;:null}" fill="url(#color-21)"/></g><g stroke="none" stroke-width="0"><path d="M374.75338,285.18599c-0.53698,1.00475 -3.8989,-1.30411 -8.30863,-3.66089c-4.40973,-2.35677 -7.76528,-4.67754 -7.2283,-5.68229c0.53698,-1.00475 4.76317,-0.313 9.17289,2.04377c4.40973,2.35677 6.90102,6.29466 6.36403,7.29941z" data-paper-data="{&quot;index&quot;:null}" fill="url(#color-22)"/><path d="M384.63571,278.00977c4.40973,-2.35677 8.63591,-3.04852 9.1729,-2.04377c0.53699,1.00475 -2.81857,3.32552 -7.2283,5.68229c-4.40973,2.35677 -7.77164,4.66564 -8.30863,3.66089c-0.53698,-1.00475 1.9543,-4.94263 6.36403,-7.29941z" data-paper-data="{&quot;index&quot;:null}" fill="url(#color-23)"/><path d="M362.06575,274c0,-7.97182 6.46245,-14.43427 14.43427,-14.43427c7.97182,0 14.43427,6.46245 14.43427,14.43427c0,7.97182 -6.46245,14.43427 -14.43427,14.43427c-7.97182,0 -14.43427,-6.46245 -14.43427,-14.43427z" fill="url(#color-24)"/><path d="M365.41553,274c0,-6.12179 4.9627,-11.0845 11.08449,-11.0845c6.1218,0 11.0845,4.9627 11.0845,11.0845c0,6.12179 -4.9627,11.0845 -11.0845,11.0845c-6.12179,0 -11.08449,-4.9627 -11.08449,-11.0845z" fill="url(#color-25)"/><path d="M375.57475,288.01736c0.08431,1.13612 -3.99131,0.98568 -8.97761,1.35571c-4.9863,0.37003 -9.06292,0.20613 -9.14723,-0.92999c-0.08431,-1.13612 3.85562,-2.81423 8.84191,-3.18426c4.9863,-0.37003 9.19862,1.62242 9.28293,2.75854z" fill="url(#color-26)"/><path d="M386.70824,285.13563c4.9863,0.37003 8.92622,2.04814 8.84191,3.18426c-0.08431,1.13612 -4.16093,1.30002 -9.14723,0.92999c-4.9863,-0.37003 -9.06191,-0.21959 -8.9776,-1.35571c0.08431,-1.13612 4.29662,-3.12858 9.28292,-2.75854z" data-paper-data="{&quot;index&quot;:null}" fill="url(#color-27)"/></g></g></g></svg>