<svg version="1.1" xmlns="http://www.w3.org/2000/svg" xmlns:xlink="http://www.w3.org/1999/xlink" width="39.29399" height="37.67383" viewBox="0,0,39.29399,37.67383"><defs><radialGradient cx="240.83304" cy="181.65383" r="27.23241" gradientUnits="userSpaceOnUse" id="color-1"><stop offset="0" stop-color="#002bff"/><stop offset="1" stop-color="#002bff" stop-opacity="0"/></radialGradient><linearGradient x1="222.58776" y1="163.56159" x2="222.58776" y2="196.67106" gradientUnits="userSpaceOnUse" id="color-2"><stop offset="0" stop-color="#7b85ff"/><stop offset="1" stop-color="#1a0099"/></linearGradient><linearGradient x1="241.23457" y1="175.98757" x2="241.23457" y2="183.09342" gradientUnits="userSpaceOnUse" id="color-3"><stop offset="0" stop-color="#000000"/><stop offset="1" stop-color="#674205"/></linearGradient><linearGradient x1="235.25637" y1="175.95525" x2="235.25637" y2="183.06111" gradientUnits="userSpaceOnUse" id="color-4"><stop offset="0" stop-color="#000000"/><stop offset="1" stop-color="#674205"/></linearGradient></defs><g transform="translate(-220.353,-161.16307)"><g data-paper-data="{&quot;isPaintingLayer&quot;:true}" fill-rule="nonzero" stroke="none" stroke-linejoin="miter" stroke-miterlimit="10" stroke-dasharray="" stroke-dashoffset="0" style="mix-blend-mode: normal"><path d="M221.10462,176.41338l-0.69467,-0.89662l0.60209,-1.84051l1.06518,-0.47188h10.97594l4.81651,-11.09007l1.06518,-0.89662l1.06518,0.04714l1.29669,0.99102l5.18696,10.80693l11.11494,-0.18874l1.11153,0.66068l0.87989,1.08543l-0.87989,1.93485l-6.34478,7.50352l1.85249,11.37321l0.09258,1.79325l-1.15776,0.61348l-2.03778,-0.37748l-10.65179,-7.55072l-9.07716,8.49454l-2.03771,0.37754l-1.48204,-0.80229l-0.50938,-2.21799l1.06518,-10.57099z" fill="#000000" stroke-width="1.43627" stroke-linecap="round"/><path d="M221.04968,176.40296l-0.69668,-0.89923l0.60384,-1.84586l1.06827,-0.47326h11.00785l4.83051,-11.12231l1.06828,-0.89923l1.06827,0.04727l1.30047,0.99391l5.20204,10.83834l11.14725,-0.18928l1.11476,0.6626l0.88245,1.08858l-0.88245,1.94047l-6.36323,7.52533l1.85788,11.40627l0.09285,1.79845l-1.16112,0.61527l-2.0437,-0.37858l-10.68274,-7.57267l-9.10355,8.51923l-2.04364,0.37864l-1.48635,-0.80462l-0.51086,-2.22443l1.06827,-10.60172z" fill="url(#color-1)" stroke-width="1.43627" stroke-linecap="round"/><path d="M223.21164,176.95509l-0.62389,-0.79026l0.54071,-1.62223l0.95669,-0.41592h9.85796l4.32585,-9.77477l0.95668,-0.79032l0.95668,0.0416l1.16465,0.87351l4.6586,9.52522l9.98279,-0.16636l0.99829,0.58228l0.79026,0.95669l-0.79026,1.70541l-5.69853,6.61356l1.66382,10.02432l0.08319,1.58065l-1.03987,0.5407l-1.8302,-0.33274l-9.56681,-6.65515l-8.15254,7.48707l-1.83019,0.33273l-1.33102,-0.70713l-0.45752,-1.95497l0.95663,-9.31719z" fill="url(#color-2)" stroke-width="1.27408" stroke-linecap="round"/><g stroke-width="2.7674"><path d="M242.68809,175.98821c0.45382,-0.01751 0.9061,0.35818 1.09663,0.8215c0.34563,0.84089 0.3828,1.84342 0.35694,2.77977c-0.01778,0.86429 -0.15504,1.75779 -0.48452,2.53063c-0.18897,0.45357 -0.52971,0.97719 -0.96905,0.97332c-0.42313,-0.00388 -0.78331,-0.33097 -1.01585,-0.91884c-0.29717,-0.74363 -0.43767,-1.63519 -0.43767,-2.68243c0,-1.04732 0.10818,-1.90378 0.43767,-2.68243c0.21637,-0.51393 0.62989,-0.83902 1.01585,-0.8215z" fill="url(#color-3)" stroke-linecap="round"/><path d="M242.75866,176.53872c0.23422,0 0.44576,0.11485 0.59918,0.29975c0.15342,0.18497 0.24875,0.44 0.24875,0.72223c0,0.28224 -0.09533,0.53726 -0.24875,0.72216c-0.15342,0.18497 -0.36497,0.29982 -0.59918,0.29982c-0.23415,0 -0.44575,-0.11485 -0.59918,-0.29982c-0.15342,-0.1849 -0.24869,-0.43993 -0.24869,-0.72216c0,-0.28224 0.09526,-0.53726 0.24869,-0.72223c0.15342,-0.1849 0.36503,-0.29975 0.59918,-0.29975z" fill="#ffffff" stroke-linecap="butt"/></g><g stroke-width="2.7674"><path d="M236.70987,175.9559c0.45382,-0.01751 0.9061,0.35818 1.09663,0.8215c0.34563,0.84089 0.38281,1.84342 0.35695,2.77977c-0.01778,0.86429 -0.15505,1.75779 -0.48453,2.53063c-0.18897,0.45357 -0.5297,0.97719 -0.96905,0.97332c-0.42313,-0.00388 -0.78331,-0.33097 -1.01584,-0.91884c-0.29717,-0.74363 -0.43767,-1.63519 -0.43767,-2.68243c0,-1.04732 0.10818,-1.90379 0.43767,-2.68244c0.21637,-0.51393 0.62988,-0.83902 1.01584,-0.8215z" fill="url(#color-4)" stroke-linecap="round"/><path d="M236.81277,176.47409c0.23422,0 0.44575,0.11485 0.59917,0.29975c0.15342,0.18497 0.24876,0.44 0.24876,0.72223c0,0.28223 -0.09534,0.53727 -0.24876,0.72217c-0.15342,0.18497 -0.36496,0.29981 -0.59917,0.29981c-0.23415,0 -0.44576,-0.11485 -0.59918,-0.29981c-0.15342,-0.1849 -0.24869,-0.43993 -0.24869,-0.72217c0,-0.28223 0.09526,-0.53726 0.24869,-0.72223c0.15342,-0.1849 0.36503,-0.29975 0.59918,-0.29975z" fill="#ffffff" stroke-linecap="butt"/></g></g></g></svg>