<svg version="1.1" xmlns="http://www.w3.org/2000/svg" xmlns:xlink="http://www.w3.org/1999/xlink" width="140.22533" height="182.67213" viewBox="0,0,140.22533,182.67213"><defs><linearGradient x1="239.09417" y1="243.97236" x2="271.92028" y2="232.60869" gradientUnits="userSpaceOnUse" id="color-1"><stop offset="0" stop-color="#003fb5"/><stop offset="1" stop-color="#00379d"/></linearGradient><linearGradient x1="245.64847" y1="262.56545" x2="282.3513" y2="249.85975" gradientUnits="userSpaceOnUse" id="color-2"><stop offset="0" stop-color="#8e4108"/><stop offset="1" stop-color="#ae4e0e"/></linearGradient><linearGradient x1="279.65035" y1="183.89938" x2="263.136" y2="174.06475" gradientUnits="userSpaceOnUse" id="color-3"><stop offset="0" stop-color="#e8001f"/><stop offset="1" stop-color="#df001e"/></linearGradient><linearGradient x1="305.24928" y1="155.9881" x2="273.35195" y2="136.99259" gradientUnits="userSpaceOnUse" id="color-4"><stop offset="0" stop-color="#cecece"/><stop offset="1" stop-color="#f2f2f2"/></linearGradient><linearGradient x1="294.60371" y1="168.00362" x2="269.17011" y2="152.85738" gradientUnits="userSpaceOnUse" id="color-5"><stop offset="0" stop-color="#cecece"/><stop offset="1" stop-color="#f2f2f2"/></linearGradient><linearGradient x1="241.29301" y1="178.06072" x2="241.29301" y2="228.43142" gradientUnits="userSpaceOnUse" id="color-6"><stop offset="0" stop-color="#0052ef"/><stop offset="1" stop-color="#0046c7"/></linearGradient><linearGradient x1="243.49937" y1="175.62153" x2="243.49937" y2="203.05658" gradientUnits="userSpaceOnUse" id="color-7"><stop offset="0" stop-color="#ff556b"/><stop offset="1" stop-color="#ef0020"/></linearGradient><linearGradient x1="217.1645" y1="170.16576" x2="208.04197" y2="192.40397" gradientUnits="userSpaceOnUse" id="color-8"><stop offset="0" stop-color="#ff1938"/><stop offset="1" stop-color="#ef0020"/></linearGradient><linearGradient x1="192.13195" y1="142.95197" x2="178.65021" y2="175.81678" gradientUnits="userSpaceOnUse" id="color-9"><stop offset="0" stop-color="#f2f2f2"/><stop offset="1" stop-color="#ffffff"/></linearGradient><linearGradient x1="202.13453" y1="155.66571" x2="191.29085" y2="182.0996" gradientUnits="userSpaceOnUse" id="color-10"><stop offset="0" stop-color="#f2f2f2"/><stop offset="1" stop-color="#ffffff"/></linearGradient><linearGradient x1="215.07887" y1="245.27002" x2="248.48617" y2="235.74956" gradientUnits="userSpaceOnUse" id="color-11"><stop offset="0" stop-color="#0052ef"/><stop offset="1" stop-color="#0046c7"/></linearGradient><linearGradient x1="220.50127" y1="263.89112" x2="257.85397" y2="253.2463" gradientUnits="userSpaceOnUse" id="color-12"><stop offset="0" stop-color="#8e4108"/><stop offset="1" stop-color="#ae4e0e"/></linearGradient><linearGradient x1="209.82923" y1="164.93121" x2="225.5558" y2="164.93121" gradientUnits="userSpaceOnUse" id="color-13"><stop offset="0" stop-color="#82491d"/><stop offset="1" stop-color="#5a2c0a"/></linearGradient><linearGradient x1="235.62966" y1="128.23084" x2="235.62966" y2="180.9703" gradientUnits="userSpaceOnUse" id="color-14"><stop offset="0" stop-color="#ffead6"/><stop offset="1" stop-color="#f5b677"/></linearGradient><linearGradient x1="233.36245" y1="128.52655" x2="233.36245" y2="148.40864" gradientUnits="userSpaceOnUse" id="color-15"><stop offset="0" stop-color="#f5b477"/><stop offset="1" stop-color="#f5b477" stop-opacity="0"/></linearGradient><linearGradient x1="218.56119" y1="139.73134" x2="230.30156" y2="139.73134" gradientUnits="userSpaceOnUse" id="color-16"><stop offset="0" stop-color="#5a2c0a"/><stop offset="1" stop-color="#82491d"/></linearGradient><linearGradient x1="197.5729" y1="112.59761" x2="273.42133" y2="112.59761" gradientUnits="userSpaceOnUse" id="color-17"><stop offset="0" stop-color="#ff1938"/><stop offset="1" stop-color="#ef0020"/></linearGradient><linearGradient x1="245.31072" y1="111.01542" x2="269.71072" y2="111.01542" gradientUnits="userSpaceOnUse" id="color-18"><stop offset="0" stop-color="#f2f2f2"/><stop offset="1" stop-color="#ffffff"/></linearGradient><linearGradient x1="254.02974" y1="117.36074" x2="254.02974" y2="135.37605" gradientUnits="userSpaceOnUse" id="color-19"><stop offset="0" stop-color="#bc041a"/><stop offset="1" stop-color="#880010"/></linearGradient><linearGradient x1="249.11072" y1="110.36744" x2="266.39875" y2="110.36744" gradientUnits="userSpaceOnUse" id="color-20"><stop offset="0" stop-color="#f40828"/><stop offset="1" stop-color="#f10323"/></linearGradient><radialGradient cx="268.67832" cy="150.05761" r="13.17095" gradientUnits="userSpaceOnUse" id="color-21"><stop offset="0" stop-color="#ffead6"/><stop offset="1" stop-color="#f7c594"/></radialGradient></defs><g transform="translate(-168.00967,-90.81811)"><g data-paper-data="{&quot;isPaintingLayer&quot;:true}" fill-rule="nonzero" stroke-linejoin="miter" stroke-miterlimit="10" stroke-dasharray="" stroke-dashoffset="0" style="mix-blend-mode: normal"><g data-paper-data="{&quot;origRot&quot;:0}" stroke-linecap="butt"><path d="M268.57961,239.01839c1.72876,4.22963 7.19013,4.23065 7.37373,5.25179c0.74281,4.13151 -0.16286,7.53743 -6.02051,11.63069c-7.25601,5.0704 -13.76287,6.72379 -22.44262,4.98583c-5.91167,-1.1837 -2.45499,-5.17133 -2.45055,-11.20034c0.0016,-2.16338 -0.37643,-4.86131 -1.67482,-10.14041c-1.62334,-6.60025 -2.21497,-19.44144 -2.21497,-19.44144c0,0 4.7736,-2.51117 9.72128,-4.30779c4.91224,-1.72521 10.50695,-1.40233 10.50695,-1.40233c0,0 3.20527,14.84671 7.2015,24.62401z" data-paper-data="{&quot;origPos&quot;:null}" fill="url(#color-1)" stroke="none" stroke-width="0"/><path d="M282.61219,257.65012c1.27532,3.68401 -1.87258,6.71748 -5.08625,8.92443c-2.10607,1.4463 -13.51018,5.02417 -20.2484,3.68224c-2.09192,-0.41662 -4.30499,-2.24024 -4.30499,-2.24024c0,0 -4.51115,2.3654 -4.97403,0.98408c-0.36744,-1.09651 -1.03911,-2.9478 -0.17657,-3.88147c3.71278,-4.01896 14.5109,-7.75051 19.6813,-9.54039c7.09781,-2.4571 13.8623,-1.52972 15.10892,2.07137z" data-paper-data="{&quot;origPos&quot;:null}" fill="#5c3822" stroke="#5c3822" stroke-width="1.5"/><path d="M282.79101,252.40599c0.20144,4.7592 -3.04735,9.33553 -11.07152,12.11332c-8.02418,2.77779 -18.21912,1.0953 -18.21912,1.0953c0,0 -5.70331,2.31683 -6.33679,0.86709c-1.31115,-3.00059 -3.10912,-8.01471 -1.99851,-8.58348c4.10007,-2.0997 3.48819,-1.23437 8.70746,-4.3907c3.37922,-2.04356 8.2722,-7.63179 12.00401,-8.92366c8.02418,-2.77779 16.58283,-0.01397 16.91451,7.82212z" data-paper-data="{&quot;origPos&quot;:null}" fill="url(#color-2)" stroke="#5c3822" stroke-width="1.5"/></g><g data-paper-data="{&quot;index&quot;:null,&quot;origRot&quot;:0}" stroke-linecap="butt"><path d="M261.96937,195.59555c-4.52919,-2.78271 -3.85932,-13.3488 1.2363,-21.64252c5.09562,-8.29372 11.17795,-15.41649 11.17795,-15.41649l13.68755,8.19475c0,0 -6.38118,13.9446 -10.47965,20.61531c-5.09562,8.29372 -11.09297,11.03164 -15.62217,8.24894z" data-paper-data="{&quot;origRot&quot;:0,&quot;origPos&quot;:null}" fill="url(#color-3)" stroke="none" stroke-width="0"/><g data-paper-data="{&quot;origPos&quot;:null}" stroke="#cdcdcd" stroke-width="1.5"><path d="M284.6353,158.60711c-8.21644,-4.54318 -18.1302,-10.62016 -12.84336,-18.98644c3.8354,-6.06941 17.36541,-10.04802 24.36412,-3.78954c7.63719,6.82943 15.53976,11.69565 8.74447,20.49027c-6.345,8.21184 -12.04878,6.82887 -20.26523,2.2857z" data-paper-data="{&quot;origRot&quot;:0}" fill="url(#color-4)"/><path d="M279.73297,164.83199c-6.33895,-3.51594 -14.25708,-6.29106 -11.17194,-10.93887c3.45133,-5.19949 4.92084,-3.95962 15.13767,2.04189c11.63886,6.83684 14.66243,5.76285 11.15685,11.64583c-2.04701,3.43525 -8.78362,0.76709 -15.12258,-2.74884z" data-paper-data="{&quot;origRot&quot;:0}" fill="url(#color-5)"/></g></g><g data-paper-data="{&quot;origPos&quot;:null}"><path d="M269.28881,201.23142c0.39163,21.17353 -13.11217,27.2 -28.3,27.2c-15.18783,0 -27.7,-10.03796 -27.7,-20.2c0,-11.02412 1.31852,-19.79986 9.82136,-26.81648c6.33487,-5.22759 15.46535,-2.78352 23.67864,-2.78352c15.18783,0 22.11612,1.84521 22.5,22.6z" data-paper-data="{&quot;origPos&quot;:null}" fill="url(#color-6)" stroke="#003393" stroke-width="1.5" stroke-linecap="butt"/><path d="M269.28881,200.63142c0,0 -17.24385,2 -29.4,2.4c-11.15011,0.36689 -22.4,-3.4 -22.4,-3.4c0,0 -0.98648,-13.79564 6.98462,-19.16002c5.21526,-3.50975 11.08038,-4.65914 18.61538,-4.83998c7.535,-0.18084 15.72889,2.13912 19.52206,5.21215c8.95988,7.25886 6.67794,19.78785 6.67794,19.78785z" data-paper-data="{&quot;origPos&quot;:null}" fill="url(#color-7)" stroke="#ac1429" stroke-width="1.5" stroke-linecap="butt"/><path d="M255.39667,179.52273c0,0 2.14029,6.84028 2.57206,10.95319c0.55457,5.28272 -0.57997,15.20846 -0.57997,15.20846" data-paper-data="{&quot;origPos&quot;:null,&quot;origRot&quot;:0}" fill="none" stroke="#0052ef" stroke-width="10" stroke-linecap="round"/><path d="M233.88885,180.03142c0,0 1.23985,7.05925 1.13735,11.19349c-0.13165,5.31011 -2.53735,15.00651 -2.53735,15.00651" data-paper-data="{&quot;origPos&quot;:null}" fill="none" stroke="#0052ef" stroke-width="10" stroke-linecap="round"/><path d="M229.08885,204.33142c0,-2.26436 1.83563,-4.1 4.1,-4.1c2.26436,0 4.1,1.83564 4.1,4.1c0,2.26436 -1.83563,4.1 -4.1,4.1c-2.26436,0 -4.1,-1.83563 -4.1,-4.1z" data-paper-data="{&quot;origPos&quot;:null}" fill="#ffe84f" stroke="#baa100" stroke-width="1" stroke-linecap="butt"/><path d="M253.88885,204.33142c0,-2.26436 1.83563,-4.1 4.1,-4.1c2.26436,0 4.1,1.83564 4.1,4.1c0,2.26436 -1.83564,4.1 -4.1,4.1c-2.26436,0 -4.1,-1.83563 -4.1,-4.1z" data-paper-data="{&quot;origPos&quot;:null}" fill="#ffe84f" stroke="#baa100" stroke-width="1" stroke-linecap="butt"/></g><g data-paper-data="{&quot;origRot&quot;:0}" stroke-linecap="butt"><path d="M210.5973,192.35489c-6.25586,-4.70747 -17.29864,-15.34833 -17.29864,-15.34833l9.73781,-12.63639c0,0 8.26751,4.40193 16.04541,10.25472c7.77791,5.8528 12.26907,15.44031 9.07285,19.68782c-3.19621,4.24751 -9.77953,3.89498 -17.55745,-1.95782z" data-paper-data="{&quot;origRot&quot;:0,&quot;origPos&quot;:null}" fill="url(#color-8)" stroke="none" stroke-width="0"/><g data-paper-data="{&quot;origPos&quot;:null}" stroke="#cdcdcd" stroke-width="1.5"><path d="M173.98494,173.60209c-9.54297,-5.69676 -3.9702,-13.11801 0.63696,-22.26906c4.22198,-8.38601 18.26931,-9.63627 24.06025,-5.3921c7.98241,5.85031 0.98126,15.1345 -5.00185,22.37002c-5.98311,7.23552 -10.78477,10.6104 -19.69536,5.29114z" data-paper-data="{&quot;origRot&quot;:0,&quot;origPos&quot;:null}" fill="url(#color-9)"/><path d="M187.4543,180.40301c-5.41577,-4.19142 -2.20892,-4.29877 6.11946,-14.92155c7.31082,-9.32489 8.22448,-11.01663 13.33956,-7.4414c4.57237,3.19589 -1.78034,8.67688 -6.39229,14.2692c-4.61195,5.59231 -9.90431,10.54126 -13.06673,8.09376z" data-paper-data="{&quot;origRot&quot;:0,&quot;origPos&quot;:null}" fill="url(#color-10)"/></g></g><g data-paper-data="{&quot;origRot&quot;:0}" stroke-linecap="butt"><path d="M244.70651,241.65582c1.49085,4.31922 6.94372,4.62398 7.07025,5.65375c0.5119,4.16643 -0.5818,7.51671 -6.65803,11.27784c-7.52677,4.65902 -14.11551,5.94796 -22.68518,3.72997c-5.83669,-1.51064 -2.1636,-5.29985 -1.82385,-11.3193c0.12191,-2.15994 -0.10549,-4.87472 -1.10827,-10.21785c-1.25374,-6.68032 -0.47755,-19.98052 -0.47755,-19.98052c0,0 7.27527,-2.13717 12.34885,-2.62562c4.004,-0.38547 10.91128,0.38632 10.91128,0.38632c0,0 -1.02378,13.11098 2.4225,23.0954z" data-paper-data="{&quot;origPos&quot;:null}" fill="url(#color-11)" stroke="none" stroke-width="0"/><path d="M257.6812,261.03912c1.06846,3.74923 -2.24327,6.60294 -5.5747,8.62774c-2.18324,1.32694 -13.76869,4.26502 -20.42185,2.55042c-2.06552,-0.53232 -4.17373,-2.4762 -4.17373,-2.4762c0,0 -4.63572,2.11086 -5.02107,0.70593c-0.30589,-1.11525 -0.87356,-3.00104 0.03957,-3.88528c3.93055,-3.80626 14.91949,-6.93148 20.18144,-8.43104c7.22348,-2.05856 13.92592,-0.7564 14.97033,2.90845z" data-paper-data="{&quot;origPos&quot;:null}" fill="#5c3822" stroke="#5c3822" stroke-width="1.5"/><path d="M258.15137,255.81307c-0.06355,4.76302 -3.56182,9.1516 -11.72807,11.47883c-8.16625,2.32723 -18.25185,0.08035 -18.25185,0.08035c0,0 -5.82334,1.99606 -6.37522,0.51332c-1.14224,-3.06888 -2.65857,-8.17522 -1.51805,-8.68134c4.21051,-1.86843 3.55144,-1.03847 8.93816,-3.89964c3.48764,-1.85246 8.68384,-7.15992 12.48172,-8.24224c8.16625,-2.32723 16.55794,0.9083 16.4533,8.75072z" data-paper-data="{&quot;origPos&quot;:null}" fill="url(#color-12)" stroke="#5c3822" stroke-width="1.5"/></g><g data-paper-data="{&quot;origPos&quot;:null}"><path d="M286.71072,129.50702c-0.56793,3.79329 -11.88998,8.6 -20.8,8.6c-7.1797,0 -5.4,-6.75492 -5.4,-10.4c0,-3.64508 14.0703,-2.85 21.25,-2.85c7.1797,0 5.31761,2.19464 4.95,4.65z" data-paper-data="{&quot;origPos&quot;:null}" fill="#880010" stroke="none" stroke-width="0" stroke-linecap="butt"/><path d="M215.47044,170.41939c0,0 -1.70028,1.17057 -3.5833,-0.19744c-1.88302,-1.368 -3.24721,-4.53148 -0.52143,-6.04226c3.26031,-1.80704 2.41456,-7.88485 4.29758,-6.51685c0,0 7.23293,1.02169 7.79114,3.9154c0,0 3.0507,8.35652 1.80057,9.69315c0,0 -1.78179,1.32182 -6.42716,1.10231c-2.51693,-0.11893 -3.35741,-1.95431 -3.35741,-1.95431z" data-paper-data="{&quot;origRot&quot;:0}" fill="url(#color-13)" stroke="#5c3822" stroke-width="1" stroke-linecap="butt"/><path d="M218.29405,131.79035c4.31396,1.0071 37.24301,-2.16822 43.0368,-1.8462c8.57182,0.47642 6.20204,8.21361 6.80713,16.77732c0.69572,9.84642 7.56286,14.33038 4.11388,23.57918c-1.32977,3.56593 -4.32109,5.43206 -7.31062,7.78723c-1.69594,1.33607 -6.42898,2.63394 -17.21721,2.85583c-15.24981,0.31365 -19.57369,-2.15552 -25.86091,-6.94741c-3.99221,-3.04272 -2.2504,-7.36559 -5.42563,-12.17258c-0.97333,-1.47352 -2.12747,-2.25956 -2.322,-2.25956c-10.37042,0 -16.07143,-8.56649 -16.07143,-16.66666c0,-8.10018 3.70101,-14.66666 9.5,-14.66666c5.79899,0 9.25,3.20935 10.75,3.55952z" data-paper-data="{&quot;origPos&quot;:null}" fill="url(#color-14)" stroke="none" stroke-width="0" stroke-linecap="butt"/><path d="M218.58977,132.08606c4.31396,1.0071 37.24301,-2.16822 43.0368,-1.8462c8.30302,0.46148 6.33991,7.7355 6.75856,15.97432c-2.01765,0.31634 -60.90495,1.67688 -69.15609,2.1945c-0.87041,-2.14196 -0.88926,-2.94857 -0.88926,-5.21547c0,-8.10018 3.70101,-14.66666 9.5,-14.66666c5.79899,0 9.25,3.20935 10.75,3.55952z" data-paper-data="{&quot;origPos&quot;:null}" fill="url(#color-15)" stroke="none" stroke-width="0" stroke-linecap="butt"/><path d="M266.47737,136.99675c0.35235,4.88885 -1.81808,9.02906 -4.84779,9.24741c-3.02971,0.21836 -5.7714,-3.56782 -6.12375,-8.45666c-0.35235,-4.88885 1.81808,-9.02905 4.84779,-9.24741c3.02971,-0.21836 5.77141,3.56782 6.12376,8.45666z" data-paper-data="{&quot;origPos&quot;:null,&quot;origRot&quot;:0}" fill="#ffffff" stroke="none" stroke-width="0" stroke-linecap="butt"/><path d="M228.70405,139.61378c0,2.60849 3.05805,6.42393 0.71211,7.56446c-2.72909,1.32681 -4.12613,-0.50952 -4.12613,-0.50952c0,0 0.58226,1.57572 -3.0717,2.25935c-2.71433,0.50783 -3.65714,-5.18172 -3.65714,-9.6c0,-4.41828 -0.01669,-8.69821 2.74286,-8.8c11.61857,-0.42857 7.4,4.66744 7.4,9.08571z" data-paper-data="{&quot;origPos&quot;:null}" fill="url(#color-16)" stroke="#5c3822" stroke-width="1" stroke-linecap="butt"/><path d="M253.45417,142.00148c0.57094,4.86816 -1.41189,9.10142 -4.42877,9.45524c-3.01689,0.35383 -5.92541,-3.30577 -6.49635,-8.17393c-0.57094,-4.86816 1.41189,-9.10142 4.42877,-9.45524c3.01689,-0.35383 5.92541,3.30577 6.49635,8.17393z" data-paper-data="{&quot;origPos&quot;:null,&quot;origRot&quot;:0}" fill="#ffffff" stroke="none" stroke-width="0" stroke-linecap="butt"/><path d="M272.60462,102.48167c2.39648,14.94461 -0.49216,15.79448 -8.52168,20.57884c-11.69967,6.97121 -27.00365,5.55994 -39.50062,10.97342c-3.28137,1.42143 -11.64483,-2.03217 -15.22084,-2.03217c-7.31398,0 -11.44089,-5.22725 -11.74313,-11.45342c-0.66666,-13.7335 6.09582,-13.78676 13.4098,-13.78676c0,0 8.04926,1.33414 10.82961,5.60456c0,0 11.19763,-18.21899 23.00151,-20.46979c15.1949,-2.89741 26.02436,-0.14688 27.74535,10.58532z" data-paper-data="{&quot;origPos&quot;:null}" fill="url(#color-17)" stroke="none" stroke-width="0" stroke-linecap="butt"/><path d="M269.71072,111.00702c0,5.46762 -1.46317,9.58116 -12.2,9.9c-11.33464,0.33659 -12.2,-4.43238 -12.2,-9.9c0,-5.46762 5.46212,-9.9 12.2,-9.9c6.73787,0 12.2,4.43238 12.2,9.9z" data-paper-data="{&quot;origPos&quot;:null}" fill="url(#color-18)" stroke="none" stroke-width="0" stroke-linecap="butt"/><path d="M287.1107,127.40702c-0.2,0.85848 -39.34284,6.5 -50.3,7.7c-5.32532,0.58322 -16.1,0.15848 -15.9,-0.7c0.73933,-3.1735 2.8049,-8.24498 7.9,-9.9c6.15716,-2 27.29511,-7.38005 43.10212,-7.1384c6.46182,0.09879 15.93721,6.8649 15.19788,10.0384z" data-paper-data="{&quot;origPos&quot;:null}" fill="url(#color-19)" stroke="none" stroke-width="0" stroke-linecap="butt"/><path d="M249.11072,116.72924l4.82784,-12.82222l4.40385,5.93838l2.72355,-5.30956l5.33279,10.08214l-3.65873,2.20988l-1.51788,-7.64078l-2.71476,4.66865l-3.5719,-4.6906l-1.52983,7.56411z" data-paper-data="{&quot;origPos&quot;:null}" fill="url(#color-20)" stroke="none" stroke-width="0" stroke-linecap="butt"/><path d="M271.61661,170.64208c-0.3711,2.54836 -2.29609,3.82599 -3.74172,4.218c-4.4121,1.19644 -10.83865,1.02213 -15.21565,-0.29692c-2.51556,-0.75809 -2.56024,-2.38549 -2.80313,-2.61298c-0.25663,-0.24036 -2.96973,1.56689 -6.23949,1.56689c-5.2467,0 -8.875,-3.69733 -8.875,-8.875c0,-5.67767 0.49272,-8.8327 1.34672,-8.99605c3.8802,-0.0855 7.82576,3.95223 10.27828,5.49605c0,0 12.7819,4.20754 18.75328,3.86744c0,0 9.6388,-4.51103 12.62642,-4.31325c1.48172,0.09809 1.49141,3.20314 1.02397,4.7714c0,0 0.15212,4.28337 -1.92128,5.42204c-4.90253,2.69238 -5.12499,-0.98512 -5.23239,-0.24762z" data-paper-data="{&quot;origPos&quot;:null}" fill="#291e16" stroke="#321f12" stroke-width="0" stroke-linecap="butt"/><path d="M277.0987,154.64208c-0.5,6.61802 1.27026,10.98214 -13.10715,10.73214c-6.62642,-0.11523 -12.75,-3.86412 -12.75,-9.73214c0,-5.86802 6.3926,-13.11026 13,-13.625c9.62741,-0.75 13.65706,2.03715 12.85715,12.625z" data-paper-data="{&quot;origPos&quot;:null}" fill="url(#color-21)" stroke="#c79260" stroke-width="1.5" stroke-linecap="butt"/><g data-paper-data="{&quot;origPos&quot;:null}" fill="none" stroke="#c79260" stroke-width="3.5" stroke-linecap="round"><path d="M204.41808,138.58522c0,0 2.96332,-1.72996 6.75499,1.19948c5.43788,4.2013 2.24501,11.37195 2.24501,11.37195" data-paper-data="{&quot;origPos&quot;:null}"/><path d="M213.13237,145.29957h-6" data-paper-data="{&quot;origPos&quot;:null}"/><path d="M212.56093,151.29957h-1.28571" data-paper-data="{&quot;origPos&quot;:null}"/></g><path d="M243.82388,131.35443c-1.37576,0.41027 -1.31062,0.60464 -1.97844,1.87549c-0.68894,1.31106 -2.14657,2.99951 -2.14657,2.99951c0,0 -1.45833,-3.62706 -1.45833,-6.31945c0,-1.8281 0.99336,-5.0144 3.81107,-5.65344c9.53112,-0.32089 6.69401,8.65093 6.69401,8.65093c0,0 -3.4773,-2.0232 -4.92174,-1.55303z" data-paper-data="{&quot;origPos&quot;:null}" fill="#291e16" stroke="none" stroke-width="0" stroke-linecap="butt"/><path d="M261.08465,128.54839c-1.51641,0.08916 -4.01601,3.24146 -4.01601,3.24146c0,0 -5.91454,-7.31854 3.07681,-10.49674c2.85665,-0.43291 4.94393,2.17143 5.61082,3.87354c0.98219,2.50684 0.94752,6.41595 0.94752,6.41595c0,0 -1.97313,-1.04035 -3.09287,-2.00973c-1.0854,-0.93965 -1.09566,-1.14439 -2.52627,-1.02451z" data-paper-data="{&quot;origPos&quot;:null,&quot;index&quot;:null,&quot;origRot&quot;:0}" fill="#291e16" stroke="none" stroke-width="0" stroke-linecap="butt"/><path d="M249.6001,140.14688c0.36875,-0.04719 0.7436,0.23013 1.05181,0.71581c0.30782,0.48574 0.54905,1.1803 0.64987,1.96819c0.10082,0.78788 0.04224,1.52081 -0.13335,2.0684c-0.17598,0.54764 -0.46893,0.9104 -0.83768,0.95758c-0.36875,0.04719 -0.7436,-0.23013 -1.05181,-0.71581c-0.30782,-0.48574 -0.54906,-1.1803 -0.64987,-1.96819c-0.10082,-0.78788 -0.04224,-1.52081 0.13336,-2.0684c0.17598,-0.54764 0.46893,-0.9104 0.83769,-0.95758z" data-paper-data="{&quot;origPos&quot;:null,&quot;origRot&quot;:0}" id="ID0.2989244391210377" fill="#000000" stroke="#00aaff" stroke-width="0" stroke-linecap="butt"/><path d="M262.70312,135.86773c0.36876,-0.04718 0.74361,0.23012 1.05181,0.71581c0.30782,0.48574 0.54905,1.1803 0.64986,1.96819c0.10082,0.78788 0.04224,1.52081 -0.13335,2.0684c-0.17599,0.54764 -0.46893,0.9104 -0.83768,0.95758c-0.36876,0.04719 -0.74361,-0.23012 -1.05181,-0.71581c-0.30782,-0.48574 -0.54905,-1.1803 -0.64986,-1.96819c-0.10082,-0.78788 -0.04224,-1.52081 0.13335,-2.0684c0.17599,-0.54764 0.46893,-0.9104 0.83769,-0.95759z" data-paper-data="{&quot;origPos&quot;:null,&quot;origRot&quot;:0}" id="ID0.2989244391210377" fill="#000000" stroke="#00aaff" stroke-width="0" stroke-linecap="butt"/></g></g></g></svg>