<svg version="1.1" xmlns="http://www.w3.org/2000/svg" xmlns:xlink="http://www.w3.org/1999/xlink" width="603.02075" height="433.17524" viewBox="0,0,603.02075,433.17524"><defs><linearGradient x1="15.55152" y1="301.7197" x2="6.30873" y2="310.9625" gradientUnits="userSpaceOnUse" id="color-1"><stop offset="0" stop-color="#804900"/><stop offset="1" stop-color="#b87200"/></linearGradient><linearGradient x1="7.68756" y1="197.32582" x2="7.68756" y2="238.49249" gradientUnits="userSpaceOnUse" id="color-2"><stop offset="0" stop-color="#ffffff"/><stop offset="1" stop-color="#e5e5e5"/></linearGradient><linearGradient x1="68.3542" y1="199.13534" x2="68.3542" y2="211.57582" gradientUnits="userSpaceOnUse" id="color-3"><stop offset="0" stop-color="#ffffff"/><stop offset="1" stop-color="#f6f6f6"/></linearGradient><linearGradient x1="68.18761" y1="237.44475" x2="68.18761" y2="238.46261" gradientUnits="userSpaceOnUse" id="color-4"><stop offset="0" stop-color="#e6e6e6"/><stop offset="1" stop-color="#e5e5e5"/></linearGradient><linearGradient x1="129.18757" y1="197.32582" x2="129.18757" y2="238.49249" gradientUnits="userSpaceOnUse" id="color-5"><stop offset="0" stop-color="#ffffff"/><stop offset="1" stop-color="#e5e5e5"/></linearGradient><linearGradient x1="189.85424" y1="199.13535" x2="189.85424" y2="211.57582" gradientUnits="userSpaceOnUse" id="color-6"><stop offset="0" stop-color="#ffffff"/><stop offset="1" stop-color="#f6f6f6"/></linearGradient><linearGradient x1="189.68763" y1="237.44476" x2="189.68763" y2="238.46261" gradientUnits="userSpaceOnUse" id="color-7"><stop offset="0" stop-color="#e6e6e6"/><stop offset="1" stop-color="#e5e5e5"/></linearGradient><linearGradient x1="175.81103" y1="158.99948" x2="175.81103" y2="207.00052" gradientUnits="userSpaceOnUse" id="color-8"><stop offset="0" stop-color="#fff181"/><stop offset="1" stop-color="#ffdc85"/></linearGradient><linearGradient x1="176.00001" y1="200.53884" x2="176.00001" y2="240.23201" gradientUnits="userSpaceOnUse" id="color-9"><stop offset="0" stop-color="#ffdc85"/><stop offset="1" stop-color="#e0cd84"/></linearGradient><linearGradient x1="250.68758" y1="197.32582" x2="250.68758" y2="238.49249" gradientUnits="userSpaceOnUse" id="color-10"><stop offset="0" stop-color="#ffffff"/><stop offset="1" stop-color="#e5e5e5"/></linearGradient><linearGradient x1="311.3542" y1="199.13535" x2="311.3542" y2="211.57582" gradientUnits="userSpaceOnUse" id="color-11"><stop offset="0" stop-color="#ffffff"/><stop offset="1" stop-color="#f6f6f6"/></linearGradient><linearGradient x1="311.18763" y1="237.44476" x2="311.18763" y2="238.46261" gradientUnits="userSpaceOnUse" id="color-12"><stop offset="0" stop-color="#e6e6e6"/><stop offset="1" stop-color="#e5e5e5"/></linearGradient><linearGradient x1="372.18758" y1="197.32582" x2="372.18758" y2="238.49249" gradientUnits="userSpaceOnUse" id="color-13"><stop offset="0" stop-color="#ffffff"/><stop offset="1" stop-color="#e5e5e5"/></linearGradient><linearGradient x1="432.85424" y1="199.13535" x2="432.85424" y2="211.57582" gradientUnits="userSpaceOnUse" id="color-14"><stop offset="0" stop-color="#ffffff"/><stop offset="1" stop-color="#f6f6f6"/></linearGradient><linearGradient x1="432.68764" y1="237.44476" x2="432.68764" y2="238.46261" gradientUnits="userSpaceOnUse" id="color-15"><stop offset="0" stop-color="#e6e6e6"/><stop offset="1" stop-color="#e5e5e5"/></linearGradient><linearGradient x1="-25.92093" y1="255.75327" x2="-25.92093" y2="263.38978" gradientUnits="userSpaceOnUse" id="color-16"><stop offset="0" stop-color="#613700"/><stop offset="1" stop-color="#845304"/></linearGradient><linearGradient x1="-25.92093" y1="238.8315" x2="-25.92093" y2="256.1434" gradientUnits="userSpaceOnUse" id="color-17"><stop offset="0" stop-color="#804900"/><stop offset="1" stop-color="#b87200"/></linearGradient><linearGradient x1="240.00004" y1="242.24776" x2="240.00004" y2="439.54036" gradientUnits="userSpaceOnUse" id="color-18"><stop offset="0" stop-color="#ffd210"/><stop offset="1" stop-color="#b2930b"/></linearGradient><linearGradient x1="240.00006" y1="238.45968" x2="240.00006" y2="259.32847" gradientUnits="userSpaceOnUse" id="color-19"><stop offset="0" stop-color="#2ee579"/><stop offset="1" stop-color="#00cc49"/></linearGradient><radialGradient cx="149.20098" cy="230.61013" r="9.05332" gradientUnits="userSpaceOnUse" id="color-20"><stop offset="0" stop-color="#15b700"/><stop offset="1" stop-color="#5fd336"/></radialGradient><radialGradient cx="167.82407" cy="230.73331" r="9.05332" gradientUnits="userSpaceOnUse" id="color-21"><stop offset="0" stop-color="#15b700"/><stop offset="1" stop-color="#5fd336"/></radialGradient><radialGradient cx="158.5" cy="224.5" r="14.43427" gradientUnits="userSpaceOnUse" id="color-22"><stop offset="0" stop-color="#e5e5e5"/><stop offset="1" stop-color="#e5e5e5" stop-opacity="0"/></radialGradient><radialGradient cx="158.5" cy="224.5" r="11.0845" gradientUnits="userSpaceOnUse" id="color-23"><stop offset="0" stop-color="#ffffff"/><stop offset="1" stop-color="#e5e5e5"/></radialGradient><radialGradient cx="148.47838" cy="238.27308" r="9.05332" gradientUnits="userSpaceOnUse" id="color-24"><stop offset="0" stop-color="#15b700"/><stop offset="1" stop-color="#5fd336"/></radialGradient><radialGradient cx="168.52165" cy="238.1499" r="9.05332" gradientUnits="userSpaceOnUse" id="color-25"><stop offset="0" stop-color="#15b700"/><stop offset="1" stop-color="#5fd336"/></radialGradient><radialGradient cx="181.20098" cy="234.61013" r="9.05332" gradientUnits="userSpaceOnUse" id="color-26"><stop offset="0" stop-color="#15b700"/><stop offset="1" stop-color="#5fd336"/></radialGradient><radialGradient cx="199.82407" cy="234.73331" r="9.05332" gradientUnits="userSpaceOnUse" id="color-27"><stop offset="0" stop-color="#15b700"/><stop offset="1" stop-color="#5fd336"/></radialGradient><radialGradient cx="190.50002" cy="228.5" r="14.43427" gradientUnits="userSpaceOnUse" id="color-28"><stop offset="0" stop-color="#e5e5e5"/><stop offset="1" stop-color="#e5e5e5" stop-opacity="0"/></radialGradient><radialGradient cx="190.50002" cy="228.5" r="11.0845" gradientUnits="userSpaceOnUse" id="color-29"><stop offset="0" stop-color="#ffffff"/><stop offset="1" stop-color="#e5e5e5"/></radialGradient><radialGradient cx="180.47838" cy="242.27308" r="9.05332" gradientUnits="userSpaceOnUse" id="color-30"><stop offset="0" stop-color="#15b700"/><stop offset="1" stop-color="#5fd336"/></radialGradient><radialGradient cx="200.52165" cy="242.1499" r="9.05332" gradientUnits="userSpaceOnUse" id="color-31"><stop offset="0" stop-color="#15b700"/><stop offset="1" stop-color="#5fd336"/></radialGradient><radialGradient cx="129.20098" cy="234.11013" r="9.05332" gradientUnits="userSpaceOnUse" id="color-32"><stop offset="0" stop-color="#15b700"/><stop offset="1" stop-color="#5fd336"/></radialGradient><radialGradient cx="147.82405" cy="234.23331" r="9.05332" gradientUnits="userSpaceOnUse" id="color-33"><stop offset="0" stop-color="#15b700"/><stop offset="1" stop-color="#5fd336"/></radialGradient><radialGradient cx="138.5" cy="228" r="14.43427" gradientUnits="userSpaceOnUse" id="color-34"><stop offset="0" stop-color="#e5e5e5"/><stop offset="1" stop-color="#e5e5e5" stop-opacity="0"/></radialGradient><radialGradient cx="138.5" cy="228" r="11.0845" gradientUnits="userSpaceOnUse" id="color-35"><stop offset="0" stop-color="#ffffff"/><stop offset="1" stop-color="#e5e5e5"/></radialGradient><radialGradient cx="128.47839" cy="241.77308" r="9.05332" gradientUnits="userSpaceOnUse" id="color-36"><stop offset="0" stop-color="#15b700"/><stop offset="1" stop-color="#5fd336"/></radialGradient><radialGradient cx="148.52165" cy="241.6499" r="9.05332" gradientUnits="userSpaceOnUse" id="color-37"><stop offset="0" stop-color="#15b700"/><stop offset="1" stop-color="#5fd336"/></radialGradient><linearGradient x1="72.09028" y1="182" x2="98.9098" y2="182" gradientUnits="userSpaceOnUse" id="color-38"><stop offset="0" stop-color="#ffffff"/><stop offset="1" stop-color="#a6a6a6"/></linearGradient><linearGradient x1="86.50001" y1="53.86512" x2="86.50001" y2="151.13488" gradientUnits="userSpaceOnUse" id="color-39"><stop offset="0" stop-color="#ffc93b"/><stop offset="1" stop-color="#ffae26"/></linearGradient><linearGradient x1="338.09034" y1="160.5" x2="364.90981" y2="160.5" gradientUnits="userSpaceOnUse" id="color-40"><stop offset="0" stop-color="#ffffff"/><stop offset="1" stop-color="#a6a6a6"/></linearGradient><linearGradient x1="353.00002" y1="6.36512" x2="353.00002" y2="103.63488" gradientUnits="userSpaceOnUse" id="color-41"><stop offset="0" stop-color="#ffc93b"/><stop offset="1" stop-color="#ffae26"/></linearGradient></defs><g transform="translate(118.16652,-6.36512)"><g data-paper-data="{&quot;isPaintingLayer&quot;:true}" fill-rule="nonzero" stroke-linecap="butt" stroke-linejoin="miter" stroke-miterlimit="10" stroke-dasharray="" stroke-dashoffset="0" style="mix-blend-mode: normal"><path d="M-47.60504,257.04873l9.2428,-9.2428l107.82754,107.82754l-9.2428,9.2428z" data-paper-data="{&quot;index&quot;:null}" fill="url(#color-1)" stroke="#12a22d" stroke-width="0"/><g stroke="none" stroke-width="0"><path d="M-1.47911,238.49249v-39.35715c0,0 6.25051,-2.80953 9.33333,-2.80953c3.02727,0 9,2.80953 9,2.80953v39.35715z" fill="url(#color-2)"/><path d="M16.35423,210.89725v-11.7619h104v11.7619c0,0 -35.22365,0.67857 -52.66667,0.67857c-17.2208,0 -51.33333,-0.67857 -51.33333,-0.67857z" fill="url(#color-3)"/><path d="M16.18758,238.46261v-1.01785h104v1.01785z" fill="url(#color-4)"/></g><g stroke="none" stroke-width="0"><path d="M120.0209,238.49249v-39.35715c0,0 6.25051,-2.80953 9.33334,-2.80953c3.02728,0 9,2.80953 9,2.80953v39.35715z" fill="url(#color-5)"/><path d="M137.85423,210.89725v-11.7619h104v11.7619c0,0 -35.22366,0.67857 -52.66667,0.67857c-17.2208,0 -51.33333,-0.67857 -51.33333,-0.67857z" fill="url(#color-6)"/><path d="M137.68759,238.46261v-1.01786h104v1.01786z" fill="url(#color-7)"/></g><g stroke="none" stroke-width="0"><g><path d="M141.2276,207.00052l-4.91349,-48.00104h27.28176l3.69239,-1.84619l16.83388,-0.17624l4.39736,2.02244h27.16641l-0.75592,47.62308z" fill="url(#color-8)"/><path d="M162.6151,240.23201v-39.69316h26.76981v39.69316z" fill="url(#color-9)"/></g><g fill="#ff6666"><path d="M144.84549,194.45199v-22.90397h48.40085v22.90397z"/><path d="M183.30688,199.85387v-33.70773l29.38623,16.85387z"/></g></g><g stroke="none" stroke-width="0"><path d="M241.52092,238.49249v-39.35715c0,0 6.25051,-2.80953 9.33334,-2.80953c3.02728,0 9,2.80953 9,2.80953v39.35715z" fill="url(#color-10)"/><path d="M259.3542,210.89725v-11.7619h104v11.7619c0,0 -35.22366,0.67857 -52.66667,0.67857c-17.2208,0 -51.33333,-0.67857 -51.33333,-0.67857z" fill="url(#color-11)"/><path d="M259.18763,238.46261v-1.01786h104v1.01786z" fill="url(#color-12)"/></g><g stroke="none" stroke-width="0"><path d="M363.02092,238.49249v-39.35715c0,0 6.25051,-2.80953 9.33334,-2.80953c3.02727,0 9,2.80953 9,2.80953v39.35715z" fill="url(#color-13)"/><path d="M380.85424,210.89725v-11.7619h104v11.7619c0,0 -35.22366,0.67857 -52.66667,0.67857c-17.2208,0 -51.33333,-0.67857 -51.33333,-0.67857z" fill="url(#color-14)"/><path d="M380.68764,238.46261v-1.01786h104v1.01786z" fill="url(#color-15)"/></g><g stroke="#12a22d" stroke-width="0"><path d="M-81.16652,263.38978l-22,-7.63651h153.49117v7.63651z" fill="url(#color-16)"/><path d="M-102.16651,256.1434l-16,-17.31192h168.49117v17.31192z" fill="url(#color-17)"/></g><path d="M-1.89344,439.54036v-197.29259h483.78696v197.29259z" fill="url(#color-18)" stroke="none" stroke-width="0"/><g stroke-width="1"><path d="M-0.67929,291.816v-23.32873c0,0 28.09978,-5.18416 55.13882,-5.18416c20.308,0 60.75331,6.42611 108.9815,6.97787c31.11861,0.35602 66.79028,-7.3363 101.07057,-7.41485c37.56648,-0.08609 75.54014,6.5984 108.3469,7.47096c28.3889,0.75506 53.26577,-2.14489 71.99125,-2.70796c22.63275,-0.68056 36.27922,0.85815 36.27922,0.85815v23.32873c0,0 -16.43122,-1.76718 -42.20657,-1.3583c-21.61178,0.34282 -49.5978,2.98525 -81.86715,2.01163c-28.82074,-0.86957 -61.62963,-7.60063 -93.19863,-7.80045c-36.56042,-0.2314 -73.80131,6.32068 -106.31817,5.7715c-43.2127,-0.72982 -79.24173,-6.40064 -98.48401,-6.40064c-28.93661,0 -59.73372,7.77625 -59.73372,7.77625z" fill="#dab40d" stroke="#f1c70e"/><path d="M-1.12895,337.87698v-23.32875c0,0 28.09978,-5.18416 55.13882,-5.18416c20.308,0 60.75331,6.42611 108.9815,6.97787c31.11861,0.35601 66.79028,-7.3363 101.07057,-7.41485c37.56647,-0.08609 75.54013,6.59839 108.3469,7.47096c28.3889,0.75506 53.26576,-2.1449 71.99125,-2.70796c22.63275,-0.68056 36.27922,0.85815 36.27922,0.85815v23.32875c0,0 -16.43122,-1.76719 -42.20657,-1.35832c-21.61177,0.34282 -49.5978,2.98526 -81.86715,2.01164c-28.82075,-0.86957 -61.62964,-7.60064 -93.19864,-7.80045c-36.56041,-0.2314 -73.8013,6.32068 -106.31816,5.7715c-43.2127,-0.72982 -79.24173,-6.40062 -98.48401,-6.40062c-28.93661,0 -59.73372,7.77625 -59.73372,7.77625z" fill="#cca90c" stroke="#e6be0e"/><path d="M-1.1289,384.73566v-23.32873c0,0 28.09978,-5.18416 55.13881,-5.18416c20.308,0 60.75331,6.42611 108.9815,6.97787c31.11861,0.35601 66.79028,-7.3363 101.07057,-7.41484c37.56648,-0.08609 75.54014,6.59839 108.3469,7.47096c28.3889,0.75506 53.26576,-2.1449 71.99125,-2.70796c22.63275,-0.68056 36.27922,0.85815 36.27922,0.85815v23.32873c0,0 -16.43121,-1.76718 -42.20657,-1.35832c-21.61177,0.34282 -49.5978,2.98525 -81.86715,2.01163c-28.82075,-0.86957 -61.62963,-7.60063 -93.19863,-7.80044c-36.56041,-0.2314 -73.8013,6.32068 -106.31816,5.7715c-43.2127,-0.72982 -79.24173,-6.40062 -98.48401,-6.40062c-28.93662,0 -59.73372,7.77625 -59.73372,7.77625z" fill="#c09f0c" stroke="#d8b20d"/><path d="M-0.94435,436.05534v-23.32873c0,0 28.09978,-5.18416 55.13881,-5.18416c20.308,0 60.75331,6.42611 108.9815,6.97787c31.11861,0.35601 66.79028,-7.3363 101.07057,-7.41484c37.56648,-0.08609 75.54014,6.59839 108.3469,7.47096c28.3889,0.75506 53.26576,-2.1449 71.99125,-2.70796c22.63275,-0.68056 36.27922,0.85815 36.27922,0.85815v23.32873c0,0 -16.43121,-1.76718 -42.20657,-1.35832c-21.61177,0.34282 -49.5978,2.98525 -81.86715,2.01163c-28.82075,-0.86957 -61.62963,-7.60063 -93.19863,-7.80044c-36.56041,-0.2314 -73.8013,6.32068 -106.31816,5.7715c-43.2127,-0.72982 -79.24173,-6.40062 -98.48401,-6.40062c-28.93662,0 -59.73372,7.77625 -59.73372,7.77625z" data-paper-data="{&quot;index&quot;:null}" fill="#b3940b" stroke="#cca90c"/></g><path d="M-2.04169,280.32847v-41.86883h484.08342v20.86883c0,0 -13.48742,11.24216 -35.52284,13.71316c-14.9311,1.67434 -33.7869,-7.93554 -55.03069,-8.36432c-32.82627,-0.66255 -71.35434,6.71962 -109.91453,3.86334c-39.027,-2.89086 -79.03063,6.06802 -115.02286,5.83776c-27.27454,-0.17449 -52.24555,-12.80045 -72.74246,-15.17889c-17.45316,-2.02525 -31.66235,6.12897 -41.28748,6.12897c-26.81706,0 -54.56256,15 -54.56256,15z" fill="url(#color-19)" stroke="#12a22d" stroke-width="0"/><g stroke="none" stroke-width="0"><path d="M156.75337,235.68599c-0.53698,1.00475 -3.8989,-1.30411 -8.30863,-3.66089c-4.40973,-2.35677 -7.76528,-4.67754 -7.2283,-5.68229c0.53698,-1.00475 4.76317,-0.313 9.1729,2.04377c4.40973,2.35677 6.90102,6.29466 6.36403,7.29941z" data-paper-data="{&quot;index&quot;:null}" fill="url(#color-20)"/><path d="M166.63571,228.50977c4.40973,-2.35677 8.63591,-3.04852 9.1729,-2.04377c0.53699,1.00475 -2.81857,3.32552 -7.2283,5.68229c-4.40973,2.35677 -7.77165,4.66564 -8.30863,3.66089c-0.53698,-1.00475 1.9543,-4.94263 6.36403,-7.29941z" data-paper-data="{&quot;index&quot;:null}" fill="url(#color-21)"/><path d="M144.06572,224.5c0,-7.97182 6.46245,-14.43427 14.43427,-14.43427c7.97182,0 14.43427,6.46245 14.43427,14.43427c0,7.97182 -6.46245,14.43427 -14.43427,14.43427c-7.97182,0 -14.43427,-6.46245 -14.43427,-14.43427z" fill="url(#color-22)"/><path d="M147.41552,224.5c0,-6.12179 4.9627,-11.0845 11.0845,-11.0845c6.12179,0 11.0845,4.9627 11.0845,11.0845c0,6.12179 -4.9627,11.0845 -11.0845,11.0845c-6.12179,0 -11.0845,-4.9627 -11.0845,-11.0845z" fill="url(#color-23)"/><path d="M157.57474,238.51736c0.08431,1.13612 -3.99131,0.98568 -8.97761,1.35571c-4.9863,0.37003 -9.06292,0.20613 -9.14723,-0.92999c-0.08431,-1.13612 3.85562,-2.81423 8.84192,-3.18426c4.9863,-0.37003 9.19862,1.62242 9.28293,2.75854z" fill="url(#color-24)"/><path d="M168.70823,235.63563c4.9863,0.37003 8.92622,2.04814 8.84191,3.18426c-0.08431,1.13612 -4.16093,1.30002 -9.14723,0.92999c-4.9863,-0.37003 -9.06191,-0.21959 -8.97761,-1.35571c0.08431,-1.13612 4.29662,-3.12858 9.28292,-2.75854z" data-paper-data="{&quot;index&quot;:null}" fill="url(#color-25)"/></g><g stroke="none" stroke-width="0"><path d="M188.75337,239.68599c-0.53698,1.00475 -3.8989,-1.30411 -8.30863,-3.66089c-4.40973,-2.35677 -7.76528,-4.67754 -7.2283,-5.68229c0.53698,-1.00475 4.76317,-0.313 9.1729,2.04377c4.40973,2.35677 6.90102,6.29466 6.36403,7.29941z" data-paper-data="{&quot;index&quot;:null}" fill="url(#color-26)"/><path d="M198.63571,232.50977c4.40973,-2.35677 8.63591,-3.04852 9.1729,-2.04377c0.53699,1.00475 -2.81857,3.32552 -7.2283,5.68229c-4.40973,2.35677 -7.77165,4.66564 -8.30863,3.66089c-0.53698,-1.00475 1.9543,-4.94263 6.36403,-7.29941z" data-paper-data="{&quot;index&quot;:null}" fill="url(#color-27)"/><path d="M176.06574,228.5c0,-7.97182 6.46245,-14.43427 14.43427,-14.43427c7.97182,0 14.43427,6.46245 14.43427,14.43427c0,7.97182 -6.46244,14.43427 -14.43427,14.43427c-7.97182,0 -14.43427,-6.46245 -14.43427,-14.43427z" fill="url(#color-28)"/><path d="M179.41552,228.5c0,-6.12179 4.9627,-11.0845 11.0845,-11.0845c6.12179,0 11.0845,4.9627 11.0845,11.0845c0,6.12179 -4.9627,11.0845 -11.0845,11.0845c-6.12179,0 -11.0845,-4.9627 -11.0845,-11.0845z" fill="url(#color-29)"/><path d="M189.57474,242.51736c0.08431,1.13612 -3.99131,0.98568 -8.97761,1.35571c-4.9863,0.37003 -9.06292,0.20613 -9.14723,-0.92999c-0.08431,-1.13612 3.85562,-2.81423 8.84192,-3.18426c4.9863,-0.37003 9.19862,1.62242 9.28293,2.75854z" fill="url(#color-30)"/><path d="M200.70823,239.63563c4.9863,0.37003 8.92622,2.04814 8.84191,3.18426c-0.08431,1.13612 -4.16093,1.30002 -9.14723,0.92999c-4.9863,-0.37003 -9.06191,-0.21959 -8.97761,-1.35571c0.08431,-1.13612 4.29662,-3.12858 9.28292,-2.75854z" data-paper-data="{&quot;index&quot;:null}" fill="url(#color-31)"/></g><g stroke="none" stroke-width="0"><path d="M136.75337,239.18599c-0.53698,1.00475 -3.8989,-1.30411 -8.30863,-3.66089c-4.40973,-2.35677 -7.76528,-4.67754 -7.2283,-5.68229c0.53698,-1.00475 4.76317,-0.313 9.17289,2.04377c4.40973,2.35677 6.90102,6.29466 6.36403,7.29941z" data-paper-data="{&quot;index&quot;:null}" fill="url(#color-32)"/><path d="M146.6357,232.00977c4.40973,-2.35677 8.63591,-3.04852 9.1729,-2.04377c0.53699,1.00475 -2.81857,3.32552 -7.2283,5.68229c-4.40973,2.35677 -7.77164,4.66564 -8.30863,3.66089c-0.53698,-1.00475 1.9543,-4.94263 6.36403,-7.29941z" data-paper-data="{&quot;index&quot;:null}" fill="url(#color-33)"/><path d="M124.06574,228c0,-7.97182 6.46245,-14.43427 14.43427,-14.43427c7.97182,0 14.43427,6.46245 14.43427,14.43427c0,7.97182 -6.46245,14.43427 -14.43427,14.43427c-7.97182,0 -14.43427,-6.46245 -14.43427,-14.43427z" fill="url(#color-34)"/><path d="M127.41552,228c0,-6.12179 4.9627,-11.0845 11.08449,-11.0845c6.1218,0 11.0845,4.9627 11.0845,11.0845c0,6.12179 -4.9627,11.0845 -11.0845,11.0845c-6.12179,0 -11.08449,-4.9627 -11.08449,-11.0845z" fill="url(#color-35)"/><path d="M137.57474,242.01736c0.08431,1.13612 -3.99131,0.98568 -8.97761,1.35571c-4.9863,0.37003 -9.06292,0.20613 -9.14723,-0.92999c-0.08431,-1.13612 3.85562,-2.81423 8.84191,-3.18426c4.9863,-0.37003 9.19862,1.62242 9.28293,2.75854z" fill="url(#color-36)"/><path d="M148.70823,239.13563c4.9863,0.37003 8.92622,2.04814 8.84191,3.18426c-0.08431,1.13612 -4.16093,1.30002 -9.14723,0.92999c-4.9863,-0.37003 -9.06191,-0.21959 -8.9776,-1.35571c0.08431,-1.13612 4.29662,-3.12858 9.28292,-2.75854z" data-paper-data="{&quot;index&quot;:null}" fill="url(#color-37)"/></g><g><path d="M69.09028,238.25036c0,0 1.82379,-2.86356 2.33751,-4.23355c0.48458,-1.29226 0.66249,-3.76681 0.66249,-3.76681v-104.50035h26.81947v103.75036c0,0 0.16284,3.40428 1.19289,4.90649c0.96581,1.40854 4.80711,3.84387 4.80711,3.84387z" fill="url(#color-38)" stroke="#5b5b5b" stroke-width="0"/><g><path d="M39.70752,99.67463c0,-25.29987 20.50964,-45.80951 45.80951,-45.80951c25.29987,0 45.80951,20.50964 45.80951,45.80951c0,20.33723 12.98558,41.98827 12.98558,41.98827c0,0 -57.54074,9.5259 -61.21673,9.47175c-24.17224,-0.35623 -54.40751,-9.51376 -54.40751,-9.51376c0,0 11.01965,-16.64636 11.01965,-41.94626z" fill="url(#color-39)" stroke="#bd9b0b" stroke-width="0"/><path d="M131.13963,100.92038c0,0 -33.00211,5.19099 -45.59822,5.19099c-15.08303,0 -45.80223,-5.2282 -45.80223,-5.2282c0,0 0.30275,-8.21897 0.9313,-10.99952c1.35543,-5.99595 3.39157,-9.59506 3.39157,-9.59506c0,0 29.33369,6.72507 41.09191,6.72507c11.75817,0 41.79607,-7.19004 41.79607,-7.19004c0,0 2.25018,6.51483 3.28615,9.996c1.07884,3.62524 0.90347,11.10076 0.90347,11.10076z" fill="#ffef43" stroke="none" stroke-width="1.5"/><path d="M140.5316,133.75633c0,0 -41.01691,7.87781 -54.89906,7.87781c-16.62296,0 -52.90461,-8.61183 -52.90461,-8.61183c0,0 3.05568,-8.5769 4.15415,-12.23477c0.89317,-2.97423 1.70911,-8.08889 1.70911,-8.08889c0,0 34.79844,10.32697 47.75711,10.32697c12.95867,0 46.73137,-10.74754 46.73137,-10.74754c0,0 0.80731,3.71032 1.68845,6.24997c1.37541,3.96424 5.7635,15.22827 5.7635,15.22827z" fill="#ffef43" stroke="none" stroke-width="1.5"/><path d="M120.53944,70.22531c0,0 -25.98919,4.09166 -35.33538,4.09166c-11.19147,0 -33.98482,-4.83929 -33.98482,-4.83929c0,0 3.18473,-3.44772 4.90055,-4.94956c1.57332,-1.37712 5.00398,-3.71981 5.00398,-3.71981c0,0 15.06831,2.29568 23.7928,2.29568c8.72445,0 26.2353,-1.51028 26.2353,-1.51028c0,0 2.75178,1.94932 4.18685,3.20014c1.72166,1.50064 5.20072,5.43145 5.20072,5.43145z" fill="#ffef43" stroke="none" stroke-width="1.5"/></g></g><g><path d="M335.09031,238.25036c0,0 1.82379,-3.95807 2.33751,-5.8517c0.48458,-1.78618 0.66249,-5.20656 0.66249,-5.20656v-144.44245h26.81947v143.4058c0,0 0.16284,4.70546 1.19289,6.78185c0.96581,1.94691 4.80711,5.31307 4.80711,5.31307z" fill="url(#color-40)" stroke="#5b5b5b" stroke-width="0"/><g><path d="M306.20752,52.17463c0,-25.29987 20.50964,-45.80951 45.80951,-45.80951c25.29987,0 45.80951,20.50964 45.80951,45.80951c0,20.33723 12.98558,41.98827 12.98558,41.98827c0,0 -57.54074,9.5259 -61.21673,9.47175c-24.17224,-0.35623 -54.40751,-9.51376 -54.40751,-9.51376c0,0 11.01965,-16.64636 11.01965,-41.94626z" fill="url(#color-41)" stroke="#bd9b0b" stroke-width="0"/><path d="M397.63963,53.42038c0,0 -33.00211,5.19099 -45.59822,5.19099c-15.08303,0 -45.80223,-5.2282 -45.80223,-5.2282c0,0 0.30275,-8.21897 0.93131,-10.99952c1.35543,-5.99595 3.39156,-9.59506 3.39156,-9.59506c0,0 29.33369,6.72507 41.09191,6.72507c11.75817,0 41.79607,-7.19004 41.79607,-7.19004c0,0 2.25018,6.51482 3.28614,9.996c1.07884,3.62524 0.90347,11.10076 0.90347,11.10076z" fill="#ffef43" stroke="none" stroke-width="1.5"/><path d="M407.0316,86.25633c0,0 -41.01691,7.87781 -54.89906,7.87781c-16.62296,0 -52.90461,-8.61183 -52.90461,-8.61183c0,0 3.05568,-8.5769 4.15415,-12.23476c0.89317,-2.97423 1.70911,-8.08889 1.70911,-8.08889c0,0 34.79843,10.32697 47.7571,10.32697c12.95867,0 46.73137,-10.74754 46.73137,-10.74754c0,0 0.8073,3.71032 1.68845,6.24997c1.37541,3.96424 5.7635,15.22827 5.7635,15.22827z" fill="#ffef43" stroke="none" stroke-width="1.5"/><path d="M387.03945,22.72531c0,0 -25.98919,4.09166 -35.33538,4.09166c-11.19147,0 -33.98482,-4.83928 -33.98482,-4.83928c0,0 3.18473,-3.44772 4.90055,-4.94956c1.57332,-1.37712 5.00398,-3.71981 5.00398,-3.71981c0,0 15.06831,2.29568 23.7928,2.29568c8.72445,0 26.2353,-1.51028 26.2353,-1.51028c0,0 2.75178,1.94932 4.18685,3.20014c1.72166,1.50064 5.20072,5.43145 5.20072,5.43145z" fill="#ffef43" stroke="none" stroke-width="1.5"/></g></g></g></g></svg>