<svg version="1.1" xmlns="http://www.w3.org/2000/svg" xmlns:xlink="http://www.w3.org/1999/xlink" width="135.66925" height="107.14228" viewBox="0,0,135.66925,107.14228"><defs><linearGradient x1="219.22224" y1="178.99585" x2="232.93952" y2="155.1251" gradientUnits="userSpaceOnUse" id="color-1"><stop offset="0" stop-color="#edbc8a"/><stop offset="1" stop-color="#dfad7b"/></linearGradient><linearGradient x1="225.90096" y1="192.41088" x2="175.98914" y2="189.5879" gradientUnits="userSpaceOnUse" id="color-2"><stop offset="0" stop-color="#fbcda0"/><stop offset="1" stop-color="#f7bf88"/></linearGradient><linearGradient x1="203.12164" y1="191.20715" x2="175.85073" y2="189.66472" gradientUnits="userSpaceOnUse" id="color-3"><stop offset="0" stop-color="#ffffff"/><stop offset="1" stop-color="#e6e6e6"/></linearGradient><linearGradient x1="223.62367" y1="173.99133" x2="190.87518" y2="172.13909" gradientUnits="userSpaceOnUse" id="color-4"><stop offset="0" stop-color="#4e7aff"/><stop offset="1" stop-color="#4368d8"/></linearGradient><linearGradient x1="220.63994" y1="211.6758" x2="188.71015" y2="209.86987" gradientUnits="userSpaceOnUse" id="color-5"><stop offset="0" stop-color="#4e7aff"/><stop offset="1" stop-color="#4368d8"/></linearGradient><radialGradient cx="276.55728" cy="186.53162" r="53.0694" gradientUnits="userSpaceOnUse" id="color-6"><stop offset="0" stop-color="#ffffff"/><stop offset="1" stop-color="#e1e1e1"/></radialGradient><linearGradient x1="241.85927" y1="193.29099" x2="215.48682" y2="194.04312" gradientUnits="userSpaceOnUse" id="color-7"><stop offset="0" stop-color="#ffdfc0"/><stop offset="1" stop-color="#f5b677"/></linearGradient><linearGradient x1="252.6527" y1="192.99084" x2="240.58098" y2="193.33512" gradientUnits="userSpaceOnUse" id="color-8"><stop offset="0" stop-color="#f5b677"/><stop offset="1" stop-color="#f5b677" stop-opacity="0"/></linearGradient><linearGradient x1="243.91834" y1="189.28662" x2="243.91834" y2="215.6698" gradientUnits="userSpaceOnUse" id="color-9"><stop offset="0" stop-color="#ffdfc0"/><stop offset="1" stop-color="#f5b677"/></linearGradient><radialGradient cx="279.48317" cy="187.22906" r="21.51365" gradientUnits="userSpaceOnUse" id="color-10"><stop offset="0" stop-color="#4e7aff"/><stop offset="1" stop-color="#4368d8"/></radialGradient><radialGradient cx="274.16179" cy="228.81709" r="19.6525" gradientUnits="userSpaceOnUse" id="color-11"><stop offset="0" stop-color="#4e7aff"/><stop offset="1" stop-color="#4368d8"/></radialGradient><radialGradient cx="272.14947" cy="151.24294" r="16.72222" gradientUnits="userSpaceOnUse" id="color-12"><stop offset="0" stop-color="#4e7aff"/><stop offset="1" stop-color="#4368d8"/></radialGradient><linearGradient x1="214.8323" y1="204.83972" x2="234.51994" y2="224.08482" gradientUnits="userSpaceOnUse" id="color-13"><stop offset="0" stop-color="#ffdfc0"/><stop offset="1" stop-color="#f8c591"/></linearGradient></defs><g transform="translate(-174.39846,-141.35592)"><g data-paper-data="{&quot;isPaintingLayer&quot;:true}" fill-rule="nonzero" stroke-linecap="butt" stroke-linejoin="miter" stroke-miterlimit="10" stroke-dasharray="" stroke-dashoffset="0" style="mix-blend-mode: normal"><g data-paper-data="{&quot;index&quot;:null}" stroke="#6b4621" stroke-width="1.5"><path d="M184.95947,165.13214c3.57027,0.20193 5.15234,6.57888 4.73432,13.96975c-0.41802,7.39088 -3.68032,13.6738 -7.23704,13.29265c-5.47008,-0.58618 -6.24902,-1.93661 -5.69203,-14.02391c0.64619,-14.02305 2.94849,-13.5352 8.19475,-13.23848z" data-paper-data="{&quot;origPos&quot;:null}" fill="#6b4621"/><path d="M198.31318,179.5896c-0.44872,7.93362 -5.54048,14.80642 -11.02811,14.49604c-5.48763,-0.31038 -9.74594,0.32037 -8.84436,-15.62002c0.86162,-15.23391 4.83551,-15.08253 10.32313,-14.77215c5.48763,0.31038 9.99806,7.96251 9.54934,15.89613z" data-paper-data="{&quot;origPos&quot;:null}" fill="#94612e"/></g><path d="M211.39322,174.33872c-8.03891,-2.13997 11.73787,-18.20236 17.40431,-19.40585c5.66644,-1.20349 10.58086,4.91452 11.50417,8.22614c2.1271,7.62922 -5.76039,4.88433 -11.42683,6.08782c-5.66643,1.20349 -14.55502,5.87096 -17.48166,5.09189z" data-paper-data="{&quot;origRot&quot;:0,&quot;index&quot;:null}" fill="url(#color-1)" stroke="#c79260" stroke-width="1.5"/><g data-paper-data="{&quot;origPos&quot;:null,&quot;index&quot;:null}"><path d="M220.68158,175.21565c6.46374,5.72089 5.19162,17.43619 5.19162,17.43619c-0.45894,8.11432 -2.51966,12.48368 -9.1811,17.28c-6.42941,4.62923 -12.53885,6.59404 -20.50135,6.14369c-11.94623,-0.67567 -20.99081,-12.53459 -20.20163,-26.48764c0.78918,-13.95305 11.11327,-24.71649 23.05949,-24.04082c11.94622,0.67567 15.92569,4.61722 21.63297,9.66858z" data-paper-data="{&quot;origPos&quot;:null}" fill="url(#color-2)" stroke="none" stroke-width="0"/><path d="M198.90872,165.64984c2.86523,-0.08047 5.62917,0.51718 5.62917,0.51718l-1.63678,24.81114c-0.45894,8.11433 -1.16569,23.79677 -1.16569,23.79677c0,0 -3.14336,1.78965 -5.68455,1.40338c-12.64711,-0.38895 -20.99081,-12.53459 -20.20163,-26.48764c0.78918,-13.95306 11.10034,-23.70491 23.05949,-24.04082z" data-paper-data="{&quot;origPos&quot;:null}" fill="url(#color-3)" stroke="#c7c7c7" stroke-width="1"/></g><g data-paper-data="{&quot;origPos&quot;:null,&quot;index&quot;:null}"><path d="M224.62928,179.82305c0,0 -10.75801,1.97702 -19.17467,1.50098c-6.26349,-0.35425 -12.16436,1.51051 -14.45924,-3.82534c-1.16602,-2.71116 1.66301,-14.08002 1.66301,-14.08002c0,0 6.28102,1.24957 14.69768,1.72561c8.41666,0.47605 17.57013,9.4294 17.27323,14.67878z" data-paper-data="{&quot;index&quot;:null,&quot;origPos&quot;:null}" fill="url(#color-4)" stroke="none" stroke-width="0"/><path d="M188.95337,162.91384l5.69455,0.3122l-0.93397,13.95712l32.32714,1.41036l-0.35552,6.28584l-37.59399,-2.36883z" data-paper-data="{&quot;index&quot;:null,&quot;origPos&quot;:null}" fill="#ffe84f" stroke="#baa100" stroke-width="1"/></g><g data-paper-data="{&quot;origPos&quot;:null,&quot;index&quot;:null}"><path d="M203.46401,201.44966c8.41665,0.47604 19.70924,-0.32682 19.38828,5.34787c-0.32095,5.67469 -11.5466,14.01349 -19.96326,13.53745c-8.41666,-0.47604 -12.77485,-0.84381 -12.77485,-0.84381c0,0 -2.24225,-12.08506 -0.76588,-14.86107c2.90568,-5.4635 7.85222,-3.5347 14.1157,-3.18044z" data-paper-data="{&quot;origPos&quot;:null}" fill="url(#color-5)" stroke="none" stroke-width="0"/><path d="M187.45287,199.00657l37.62134,1.8853l-0.35552,6.28584l-32.28,-2.24376l-0.97362,15.4101l-5.4066,-1.04328z" data-paper-data="{&quot;origPos&quot;:null}" fill="#ffe84f" stroke="#baa100" stroke-width="1"/></g><g data-paper-data="{&quot;index&quot;:null}" stroke="#6b4621" stroke-width="1.5"><path d="M183.49498,191.02499c3.57027,0.20193 5.15234,6.57888 4.73432,13.96975c-0.41802,7.39088 -3.68032,13.6738 -7.23704,13.29265c-5.47008,-0.58618 -6.24902,-1.93661 -5.69203,-14.02391c0.64619,-14.02305 2.94849,-13.5352 8.19475,-13.23848z" data-paper-data="{&quot;origPos&quot;:null}" fill="#6b4621"/><path d="M196.84869,205.48245c-0.44872,7.93362 -5.54048,14.80642 -11.02811,14.49604c-5.48763,-0.31038 -9.74594,0.32037 -8.84436,-15.62002c0.86162,-15.23391 4.83551,-15.08253 10.32313,-14.77215c5.48763,0.31038 9.99806,7.96251 9.54934,15.89613z" data-paper-data="{&quot;origPos&quot;:null}" fill="#94612e"/></g><path d="M271.96946,141.90976c28.00747,-1.32385 36.79012,21.93997 37.59825,50.27558c0.53973,18.92448 -0.60696,32.16558 -13.11738,47.30263c-5.34027,6.4615 -13.48225,8.43991 -21.89094,8.51022c-21.49578,0.17974 -26.38166,-8.37073 -26.65564,-33.25505c-0.12535,-11.38487 -1.15785,-43.85763 0.56625,-55.11391c2.25168,-14.70069 8.56433,-17.01353 23.49948,-17.71947z" data-paper-data="{&quot;index&quot;:null}" fill="url(#color-6)" stroke="#c7c7c7" stroke-width="1"/><g data-paper-data="{&quot;index&quot;:null}"><path d="M234.9221,166.6018c7.75711,-0.52359 12.73566,-0.52825 12.73566,-0.52825c0,0 4.12666,13.00184 4.9725,26.59997c0.43668,7.02027 -1.95557,27.44922 -1.95557,27.44922c0,0 -8.26416,0.49661 -15.76368,-0.60866c-13.84587,-0.1655 -19.07746,-13.31339 -19.47956,-27.41219c-0.40209,-14.0988 5.67524,-24.56758 19.49066,-25.50008z" data-paper-data="{&quot;origPos&quot;:null}" fill="url(#color-7)" stroke="#c79260" stroke-width="1.5"/><path d="M222.39924,185.69006c0,0 2.30882,4.64007 3.13256,8.5684c0.82374,3.92834 0.6556,8.2386 0.6556,8.2386c0,0 -1.58431,-2.89286 -2.61974,-7.83067c-1.03543,-4.93781 -1.16842,-8.97633 -1.16842,-8.97633z" data-paper-data="{&quot;origRot&quot;:0}" fill="#000000" stroke="none" stroke-width="0"/><g data-paper-data="{&quot;origPos&quot;:null}" stroke="none" stroke-width="0"><path d="M239.61805,179.30669c3.85879,-0.11006 7.00985,0.60323 7.09036,3.42603c0.08051,2.8228 -3.02478,3.71451 -6.88357,3.82456c-3.85879,0.11005 -7.0831,-0.46243 -7.09036,-3.42603c-0.00659,-2.68624 3.02478,-3.71452 6.88357,-3.82457z" data-paper-data="{&quot;origPos&quot;:null}" fill="#000000"/><path d="M245.00954,182.51382c0.04845,1.6987 -0.98093,2.21136 -2.26775,2.24806c-1.28681,0.0367 -2.36712,-0.33232 -2.3922,-2.11516c-0.02274,-1.61598 0.98093,-2.21137 2.26775,-2.24807c1.28681,-0.0367 2.34376,0.41647 2.3922,2.11517z" data-paper-data="{&quot;origPos&quot;:null}" fill="#aaaaaa"/></g><g data-paper-data="{&quot;origPos&quot;:null}" stroke="none" stroke-width="0"><path d="M239.7383,191.55984c3.85879,-0.11006 7.00985,0.60323 7.09036,3.42603c0.08051,2.8228 -3.02478,3.71451 -6.88357,3.82456c-3.85879,0.11005 -7.0831,-0.46243 -7.09036,-3.42603c-0.00659,-2.68624 3.02478,-3.71452 6.88357,-3.82457z" data-paper-data="{&quot;origPos&quot;:null}" fill="#000000"/><path d="M245.30938,194.96373c0.04845,1.6987 -0.98093,2.21137 -2.26775,2.24807c-1.28681,0.0367 -2.36712,-0.33233 -2.3922,-2.11517c-0.02274,-1.61598 0.98093,-2.21137 2.26775,-2.24807c1.28681,-0.0367 2.34376,0.41647 2.3922,2.11517z" data-paper-data="{&quot;origPos&quot;:null}" fill="#aaaaaa"/></g></g><path d="M241.34726,220.2028c-0.02091,-0.65544 -1.30101,-54.06649 -1.30101,-54.06649c6.70164,-0.40699 7.6115,-0.06277 7.6115,-0.06277c0,0 4.12666,13.00184 4.9725,26.59997c0.43668,7.02027 -1.95557,27.44922 -1.95557,27.44922c0,0 -2.92354,0.65355 -9.32741,0.08007z" data-paper-data="{&quot;index&quot;:null}" fill="url(#color-8)" stroke="#c79260" stroke-width="0"/><path d="" data-paper-data="{&quot;origPos&quot;:null,&quot;index&quot;:null}" fill="url(#color-9)" stroke="#c79260" stroke-width="1.5"/><path d="M300.98808,186.61575c0.3137,10.99948 -9.06007,20.1909 -20.9369,20.52963c-11.87683,0.33872 -21.75922,-8.30352 -22.07292,-19.303c-0.3137,-10.99948 9.06006,-20.1909 20.9369,-20.52963c11.87683,-0.33872 21.75922,8.30352 22.07292,19.303z" data-paper-data="{&quot;index&quot;:null}" fill="url(#color-10)" stroke="none" stroke-width="0"/><path d="M253.93202,240.76595c-2.29799,-3.60707 -1.26205,-9.75637 1.52493,-12.72853c2.79268,-2.97823 11.96653,-4.59403 18.67507,-4.32259c6.37963,0.25813 10.6883,0.01782 14.96593,4.73067c3.64544,4.01635 2.98159,15.10769 2.98159,15.10769c0,0 -3.69754,2.50888 -8.98753,3.86652c-11.41715,2.93012 -26.38723,-1.18416 -29.15999,-6.65376z" data-paper-data="{&quot;origRot&quot;:0,&quot;index&quot;:null}" fill="url(#color-11)" stroke="none" stroke-width="0"/><path d="M287.66793,145.16994c0,0 -0.75393,8.44887 -15.5597,8.75849c-16.32049,0.3413 -17.86169,-7.47338 -17.86169,-7.47338c0,0 4.23437,-4.3563 17.21326,-4.6023c14.80634,-0.28063 16.20812,3.31718 16.20812,3.31718z" data-paper-data="{&quot;index&quot;:null}" fill="url(#color-12)" stroke="none" stroke-width="0"/><path d="M230.58601,225.39534c-5.78024,0.38156 -29.17756,-9.70243 -22.02265,-13.94631c2.60483,-1.54502 12.42726,0.53149 18.20752,0.14994c5.78026,-0.38155 12.62508,-5.16646 12.65113,2.75369c0.01131,3.43791 -3.05573,10.66112 -8.83598,11.04268z" data-paper-data="{&quot;origRot&quot;:0,&quot;index&quot;:null}" fill="url(#color-13)" stroke="#c79260" stroke-width="1.5"/></g></g></svg>