<svg version="1.1" xmlns="http://www.w3.org/2000/svg" xmlns:xlink="http://www.w3.org/1999/xlink" width="108.45162" height="160.53775" viewBox="0,0,108.45162,160.53775"><defs><linearGradient x1="254.47553" y1="190.42733" x2="281.82102" y2="193.62118" gradientUnits="userSpaceOnUse" id="color-1"><stop offset="0" stop-color="#edbc8a"/><stop offset="1" stop-color="#dfad7b"/></linearGradient><linearGradient x1="241.86358" y1="190.85313" x2="241.86358" y2="240.8447" gradientUnits="userSpaceOnUse" id="color-2"><stop offset="0" stop-color="#fbcda0"/><stop offset="1" stop-color="#f7bf88"/></linearGradient><linearGradient x1="241.77906" y1="213.66406" x2="241.77906" y2="240.97855" gradientUnits="userSpaceOnUse" id="color-3"><stop offset="0" stop-color="#ffffff"/><stop offset="1" stop-color="#e6e6e6"/></linearGradient><linearGradient x1="260.12514" y1="194.16691" x2="260.12514" y2="226.96774" gradientUnits="userSpaceOnUse" id="color-4"><stop offset="0" stop-color="#4e7aff"/><stop offset="1" stop-color="#4368d8"/></linearGradient><linearGradient x1="222.33231" y1="195.01787" x2="222.33231" y2="226.99869" gradientUnits="userSpaceOnUse" id="color-5"><stop offset="0" stop-color="#4e7aff"/><stop offset="1" stop-color="#4368d8"/></linearGradient><radialGradient cx="234.87674" cy="136.01901" r="53.06941" gradientUnits="userSpaceOnUse" id="color-6"><stop offset="0" stop-color="#ffffff"/><stop offset="1" stop-color="#e1e1e1"/></radialGradient><linearGradient x1="238.26303" y1="171.25139" x2="245.22739" y2="196.69879" gradientUnits="userSpaceOnUse" id="color-7"><stop offset="0" stop-color="#ffdfc0"/><stop offset="1" stop-color="#f5b677"/></linearGradient><linearGradient x1="235.40539" y1="160.83881" x2="238.59325" y2="172.48708" gradientUnits="userSpaceOnUse" id="color-8"><stop offset="0" stop-color="#f5b677"/><stop offset="1" stop-color="#f5b677" stop-opacity="0"/></linearGradient><linearGradient x1="240.90256" y1="189.28663" x2="240.90256" y2="215.66981" gradientUnits="userSpaceOnUse" id="color-9"><stop offset="0" stop-color="#ffdfc0"/><stop offset="1" stop-color="#f5b677"/></linearGradient><radialGradient cx="233.09987" cy="133.49365" r="21.51365" gradientUnits="userSpaceOnUse" id="color-10"><stop offset="0" stop-color="#4e7aff"/><stop offset="1" stop-color="#4368d8"/></radialGradient><radialGradient cx="194.86662" cy="150.70124" r="19.6525" gradientUnits="userSpaceOnUse" id="color-11"><stop offset="0" stop-color="#4e7aff"/><stop offset="1" stop-color="#4368d8"/></radialGradient><radialGradient cx="269.66143" cy="130.02427" r="16.72222" gradientUnits="userSpaceOnUse" id="color-12"><stop offset="0" stop-color="#4e7aff"/><stop offset="1" stop-color="#4368d8"/></radialGradient><linearGradient x1="219.3553" y1="193.23146" x2="246.69512" y2="196.47348" gradientUnits="userSpaceOnUse" id="color-13"><stop offset="0" stop-color="#ffdfc0"/><stop offset="1" stop-color="#f8c591"/></linearGradient></defs><g transform="translate(-174.39021,-101.74093)"><g data-paper-data="{&quot;isPaintingLayer&quot;:true}" fill-rule="nonzero" stroke-linecap="butt" stroke-linejoin="miter" stroke-miterlimit="10" stroke-dasharray="" stroke-dashoffset="0" style="mix-blend-mode: normal"><g data-paper-data="{&quot;origPos&quot;:null,&quot;index&quot;:null,&quot;origRot&quot;:0}" stroke="#6b4621" stroke-width="1.5"><path d="M259.13007,257.24412c-4.24497,3.09701 -5.91372,4.75649 -14.06853,-6.66992c-7.02911,-9.8491 -7.10797,-11.40607 -2.83216,-14.86769c2.78019,-2.2508 8.93055,1.25501 13.2936,7.23529c4.36305,5.98026 6.49594,12.1947 3.60709,14.30233z" data-paper-data="{&quot;origPos&quot;:null}" fill="#6b4621"/><path d="M263.10609,256.38727c-4.44027,3.2395 -7.69554,5.52378 -16.68856,-6.80262c-9.41008,-12.89804 -5.49137,-14.67983 -1.0511,-17.91934c4.44027,-3.23951 12.4473,-0.23138 17.13075,6.18805c4.68345,6.41942 5.04918,15.2944 0.60891,18.53391z" data-paper-data="{&quot;origPos&quot;:null}" fill="#94612e"/></g><path d="M253.55511,199.49019c1.1168,-2.81512 10.15939,-7.17676 14.5004,-11.01245c4.34101,-3.8357 6.8325,-11.80686 11.69509,-5.55507c2.11071,2.71372 4.09947,10.30492 -0.24155,14.14061c-4.34101,3.8357 -29.02158,10.15951 -25.95394,2.42692z" data-paper-data="{&quot;origRot&quot;:0,&quot;origPos&quot;:null,&quot;index&quot;:null}" fill="url(#color-1)" stroke="#c79260" stroke-width="1.5"/><g data-paper-data="{&quot;origPos&quot;:null}"><path d="M267.16819,219.17961c0,11.96531 -11.32926,21.66513 -25.30461,21.66513c-13.97535,0 -25.30461,-9.69981 -25.30461,-21.66513c0,-7.97523 2.30667,-13.96397 7.29158,-20.12171c5.16483,-6.37997 9.64359,-8.19066 17.77088,-8.19066c0,0 11.76844,-0.60854 17.1152,6.16794c4.72101,5.98342 8.43156,10.17911 8.43156,22.14443z" data-paper-data="{&quot;origPos&quot;:null}" fill="url(#color-2)" stroke="none" stroke-width="0"/><path d="M267.05768,219.31345c-1.0107,11.9211 -11.32925,21.66513 -25.30461,21.66513c-13.97535,0 -25.63045,-9.01623 -25.30461,-21.66513c-0.24215,-2.55895 1.72214,-5.59623 1.72214,-5.59623c0,0 15.69733,0.17995 23.82462,0.17995l24.86398,-0.23311c0,0 0.44062,2.79328 0.19848,5.64939z" data-paper-data="{&quot;origPos&quot;:null}" fill="url(#color-3)" stroke="#c7c7c7" stroke-width="1"/></g><g data-paper-data="{&quot;origPos&quot;:null}"><path d="M254.3595,192.83358c5.25777,0 13.67995,9.64445 13.67995,18.07456c0,8.43011 0.89289,14.77167 0.89289,14.77167c0,0 -11.51047,2.18253 -14.15146,0.86527c-5.19775,-2.59253 -3.00274,-8.37868 -3.00274,-14.65218c0,-8.43011 2.58136,-19.05932 2.58136,-19.05932z" data-paper-data="{&quot;index&quot;:null,&quot;origPos&quot;:null}" fill="url(#color-4)" stroke="none" stroke-width="0"/><path d="M249.61307,229.16124l-0.24215,-37.66777h6.29589l-0.41737,32.3552l13.98759,-0.14433l-0.00986,5.70309z" data-paper-data="{&quot;index&quot;:null,&quot;origPos&quot;:null}" fill="#ffe84f" stroke="#baa100" stroke-width="1"/></g><g data-paper-data="{&quot;origPos&quot;:null}"><path d="M231.57222,212.74387c0,6.27349 1.6464,11.32106 -3.97247,13.91358c-2.85495,1.31726 -14.79411,-1.60385 -14.79411,-1.60385c0,0 -0.12108,-4.372 -0.12108,-12.80211c0,-8.43011 8.9594,-19.16696 14.64316,-19.16696c5.68376,0 4.2445,11.22923 4.2445,19.65933z" data-paper-data="{&quot;origPos&quot;:null}" fill="url(#color-5)" stroke="none" stroke-width="0"/><path d="M212.76672,229.11359l-0.73631,-5.45689l15.44049,-0.10187l-0.41736,-32.3552h6.29589l-0.24215,37.66777z" data-paper-data="{&quot;origPos&quot;:null}" fill="#ffe84f" stroke="#baa100" stroke-width="1"/></g><g data-paper-data="{&quot;origPos&quot;:null,&quot;index&quot;:null,&quot;origRot&quot;:0}" stroke="#6b4621" stroke-width="1.5"><path d="M230.30038,259.80466c-4.59964,2.54058 -6.46322,3.97782 -13.12167,-8.38053c-5.73931,-10.6524 -5.62241,-12.20697 -0.94647,-15.10541c3.04036,-1.88461 8.70286,2.36437 12.282,8.84431c3.57914,6.47992 4.91637,12.91268 1.78615,14.64164z" data-paper-data="{&quot;origPos&quot;:null}" fill="#6b4621"/><path d="M234.35244,259.45287c-4.81125,2.65747 -8.32715,4.51575 -15.70441,-8.84054c-7.71938,-13.9757 -3.60826,-15.25232 1.20301,-17.90978c4.81126,-2.65747 12.37815,1.33046 16.22013,8.28624c3.84198,6.95578 3.09253,15.80662 -1.71873,18.46409z" data-paper-data="{&quot;origPos&quot;:null}" fill="#94612e"/></g><path d="M278.89932,127.40675c3.67618,14.49284 3.30294,21.2055 -10.1039,27.64266c-10.26558,4.92893 -41.63029,13.40247 -52.55772,16.59964c-23.8845,6.98818 -33.48755,4.80555 -39.57861,-15.80998c-2.38269,-8.06435 -2.86237,-16.42951 1.76285,-23.4207c10.83529,-16.37796 23.1678,-21.33282 41.42847,-26.33034c27.34169,-7.48278 52.15507,-5.85931 59.04891,21.31872z" data-paper-data="{&quot;origPos&quot;:null,&quot;origRot&quot;:0}" fill="url(#color-6)" stroke="#c7c7c7" stroke-width="1"/><g data-paper-data="{&quot;origPos&quot;:null,&quot;origRot&quot;:0}"><path d="M265.81547,170.11143c3.13321,13.48772 -5.11067,22.35155 -18.71493,26.07472c-13.60426,3.72317 -27.70598,2.54931 -31.89844,-10.64762c-3.24238,-6.85212 -5.17515,-14.90241 -5.17515,-14.90241c0,0 18.84561,-8.24063 25.68852,-9.86832c13.2546,-3.15281 26.89467,-2.99339 26.89467,-2.99339c0,0 1.44609,4.76391 3.20533,12.33702z" data-paper-data="{&quot;origPos&quot;:null}" fill="url(#color-7)" stroke="#c79260" stroke-width="1.5"/><path d="M249.87713,186.4415c0,0 -2.57515,2.26047 -7.6004,2.70864c-5.02525,0.44817 -9.06527,-3.02513 -9.06527,-3.02513c0,0 4.88532,-0.4161 8.88323,-0.77265c3.99791,-0.35655 7.78244,1.08914 7.78244,1.08914z" data-paper-data="{&quot;origPos&quot;:null,&quot;origRot&quot;:0}" fill="#000000" stroke="none" stroke-width="0"/><g data-paper-data="{&quot;origPos&quot;:null}" fill="#000000" stroke="none" stroke-width="0"><path d="M248.35038,170.1364c2.3589,-0.64558 3.87527,1.37291 4.90111,4.34385c-0.83339,-0.62171 -1.86712,-0.98976 -2.98681,-0.98976c-1.67443,0 -3.15661,0.82307 -4.06404,2.0867c-0.42202,-2.71024 -0.00301,-4.85163 2.14974,-5.44078z" data-paper-data="{&quot;origPos&quot;:null}"/><path d="" data-paper-data="{&quot;origPos&quot;:null}"/></g><g data-paper-data="{&quot;origPos&quot;:null}" fill="#000000" stroke="none" stroke-width="0"><path d="M236.59381,173.59143c2.284,-0.62508 3.77811,1.24741 4.80188,4.06376c-0.44711,-0.29181 -0.93663,-0.48838 -1.44538,-0.59787c-0.41023,-0.10884 -0.84115,-0.16683 -1.28563,-0.16683c-1.75957,0 -3.30685,0.90891 -4.19797,2.28284c-0.45863,-2.77682 -0.06288,-4.98255 2.12709,-5.58189z" data-paper-data="{&quot;origPos&quot;:null}"/></g></g><path d="M212.668,179.5822c-2.41442,-5.95894 -2.64103,-8.94607 -2.64103,-8.94607c0,0 18.84561,-8.24063 25.68852,-9.86832c13.2546,-3.15281 26.89468,-2.99339 26.89468,-2.99339c0,0 0.59438,0.77009 2.15764,7.29955c0,0 -51.46671,14.33726 -52.0998,14.50822z" data-paper-data="{&quot;origPos&quot;:null,&quot;origRot&quot;:0}" fill="url(#color-8)" stroke="#c79260" stroke-width="0"/><path d="" data-paper-data="{&quot;origPos&quot;:null}" fill="url(#color-9)" stroke="#c79260" stroke-width="1.5"/><path d="M252.31758,128.23421c3.1364,11.46024 -2.92511,23.10531 -13.53876,26.01002c-10.61365,2.90471 -21.76027,-4.03091 -24.89666,-15.49114c-3.13639,-11.46023 2.92511,-23.10532 13.53876,-26.01002c10.61365,-2.90471 21.76027,4.03092 24.89666,15.49114z" data-paper-data="{&quot;origPos&quot;:null,&quot;origRot&quot;:0}" fill="url(#color-10)" stroke="none" stroke-width="0"/><path d="M174.4692,147.57852c-0.24255,-5.45604 1.08016,-9.72414 1.08016,-9.72414c0,0 10.41671,-3.86661 15.32093,-1.54954c5.75471,2.7189 6.7802,6.91066 8.88589,12.93829c2.21426,6.33839 3.34145,15.585 1.30611,19.12426c-2.03119,3.53203 -7.61187,6.31468 -11.73198,5.16735c-6.04017,-1.05883 -14.33762,-14.18069 -14.86112,-25.95621z" data-paper-data="{&quot;origPos&quot;:null,&quot;origRot&quot;:0}" fill="url(#color-11)" stroke="none" stroke-width="0"/><path d="M270.9495,113.40968c0,0 3.85013,0.2927 7.89565,14.53842c3.5462,12.48746 0.61263,17.80736 0.61263,17.80736c0,0 -7.92467,0.80255 -12.35331,-14.90929c-4.01762,-14.25361 3.84503,-17.43649 3.84503,-17.43649z" data-paper-data="{&quot;origPos&quot;:null,&quot;origRot&quot;:0}" fill="url(#color-12)" stroke="none" stroke-width="0"/><path d="M244.37709,199.91148c-4.34776,3.82805 -29.03943,10.10836 -25.95817,2.38119c1.12177,-2.81314 10.17202,-7.15884 14.51978,-10.98689c4.34777,-3.82803 6.85331,-11.7948 11.70486,-5.53446c2.10593,2.71743 4.0813,10.31212 -0.26646,14.14016z" data-paper-data="{&quot;origRot&quot;:0,&quot;origPos&quot;:null,&quot;index&quot;:null}" fill="url(#color-13)" stroke="#c79260" stroke-width="1.5"/></g></g></svg>