<svg version="1.1" xmlns="http://www.w3.org/2000/svg" xmlns:xlink="http://www.w3.org/1999/xlink" width="149.15594" height="136.37047" viewBox="0,0,149.15594,136.37047"><defs><linearGradient x1="217.92426" y1="117.80097" x2="199.29742" y2="194.28296" gradientUnits="userSpaceOnUse" id="color-1"><stop offset="0" stop-color="#f5c826"/><stop offset="1" stop-color="#deb433"/></linearGradient><linearGradient x1="256.68639" y1="206.11321" x2="268.94121" y2="191.30561" gradientUnits="userSpaceOnUse" id="color-2"><stop offset="0" stop-color="#d6ad38"/><stop offset="1" stop-color="#f5c826"/></linearGradient><linearGradient x1="280.33392" y1="235.69595" x2="304.00396" y2="207.09527" gradientUnits="userSpaceOnUse" id="color-3"><stop offset="0" stop-color="#d2c997"/><stop offset="1" stop-color="#f1e9c0"/></linearGradient><linearGradient x1="270.09637" y1="223.33098" x2="288.96987" y2="200.52597" gradientUnits="userSpaceOnUse" id="color-4"><stop offset="0" stop-color="#d2c997"/><stop offset="1" stop-color="#f1e9c0"/></linearGradient><linearGradient x1="224.96261" y1="205.25823" x2="187.90277" y2="231.73469" gradientUnits="userSpaceOnUse" id="color-5"><stop offset="0" stop-color="#d6ad38"/><stop offset="1" stop-color="#f5c826"/></linearGradient><linearGradient x1="205.16746" y1="218.33572" x2="190.68864" y2="228.67973" gradientUnits="userSpaceOnUse" id="color-6"><stop offset="0" stop-color="#f6efca" stop-opacity="0"/><stop offset="1" stop-color="#f6efca"/></linearGradient><linearGradient x1="180.3597" y1="215.91457" x2="202.93781" y2="247.51779" gradientUnits="userSpaceOnUse" id="color-7"><stop offset="0" stop-color="#d2ceb4"/><stop offset="1" stop-color="#d2ceb4" stop-opacity="0"/></linearGradient><radialGradient cx="263.27437" cy="215.27036" r="28.00416" gradientUnits="userSpaceOnUse" id="color-8"><stop offset="0" stop-color="#ffe538"/><stop offset="1" stop-color="#f5c826"/></radialGradient><linearGradient x1="257.7355" y1="203.52056" x2="222.40862" y2="221.64298" gradientUnits="userSpaceOnUse" id="color-9"><stop offset="0" stop-color="#eae3c0"/><stop offset="1" stop-color="#fcf4ca"/></linearGradient><linearGradient x1="217.69847" y1="194.60523" x2="180.14691" y2="219.23098" gradientUnits="userSpaceOnUse" id="color-10"><stop offset="0" stop-color="#f5c826"/><stop offset="1" stop-color="#ffe538"/></linearGradient><linearGradient x1="198.22444" y1="205.86995" x2="183.82928" y2="215.31008" gradientUnits="userSpaceOnUse" id="color-11"><stop offset="0" stop-color="#fff7d1" stop-opacity="0"/><stop offset="1" stop-color="#fff7d1"/></linearGradient><linearGradient x1="173.24106" y1="203.1225" x2="194.54027" y2="235.60144" gradientUnits="userSpaceOnUse" id="color-12"><stop offset="0" stop-color="#d2ceb4"/><stop offset="1" stop-color="#d2ceb4" stop-opacity="0"/></linearGradient><linearGradient x1="279.18961" y1="134.49945" x2="279.18961" y2="201.4216" gradientUnits="userSpaceOnUse" id="color-13"><stop offset="0" stop-color="#ffe538"/><stop offset="1" stop-color="#fffeeb"/></linearGradient><linearGradient x1="277.35818" y1="176.98711" x2="277.35818" y2="201.4216" gradientUnits="userSpaceOnUse" id="color-14"><stop offset="0" stop-color="#ffe538" stop-opacity="0"/><stop offset="1" stop-color="#ffe538"/></linearGradient><linearGradient x1="273.78122" y1="151.84064" x2="273.78122" y2="204.5801" gradientUnits="userSpaceOnUse" id="color-15"><stop offset="0" stop-color="#ffead6"/><stop offset="1" stop-color="#f5b677"/></linearGradient><linearGradient x1="271.51401" y1="152.13634" x2="271.51401" y2="172.01847" gradientUnits="userSpaceOnUse" id="color-16"><stop offset="0" stop-color="#f5b477"/><stop offset="1" stop-color="#f5b477" stop-opacity="0"/></linearGradient><linearGradient x1="256.91275" y1="163.54114" x2="268.65312" y2="163.54114" gradientUnits="userSpaceOnUse" id="color-17"><stop offset="0" stop-color="#5a2c0a"/><stop offset="1" stop-color="#82491d"/></linearGradient><radialGradient cx="306.82991" cy="173.66741" r="13.17095" gradientUnits="userSpaceOnUse" id="color-18"><stop offset="0" stop-color="#ffead6"/><stop offset="1" stop-color="#f7c594"/></radialGradient><linearGradient x1="243.0292" y1="211.93713" x2="254.39507" y2="190.7575" gradientUnits="userSpaceOnUse" id="color-19"><stop offset="0" stop-color="#f9d62e"/><stop offset="1" stop-color="#ffdd63"/></linearGradient><linearGradient x1="265.12376" y1="241.58589" x2="281.92081" y2="210.28553" gradientUnits="userSpaceOnUse" id="color-20"><stop offset="0" stop-color="#d1cdb3"/><stop offset="1" stop-color="#fcf4ca"/></linearGradient><linearGradient x1="256.48474" y1="227.90897" x2="269.99499" y2="202.73339" gradientUnits="userSpaceOnUse" id="color-21"><stop offset="0" stop-color="#d1cdb3"/><stop offset="1" stop-color="#fcf4ca"/></linearGradient></defs><g transform="translate(-168.80302,-113.55059)"><g data-paper-data="{&quot;isPaintingLayer&quot;:true}" fill-rule="nonzero" stroke-linejoin="miter" stroke-miterlimit="10" stroke-dasharray="" stroke-dashoffset="0" style="mix-blend-mode: normal"><path d="M221.26791,199.60203c-6.65974,-0.98636 -14.06269,-11.86897 -18.38242,-16.5138c-5.65262,-6.07802 -10.34567,-12.05218 -14.59176,-19.30458c-2.25221,-3.84681 -5.76518,-8.35359 -6.459,-13.04866c-0.87639,-5.9304 0.4764,-10.81676 1.95961,-16.71608c1.19056,-4.7353 5.73657,-15.62133 9.54957,-18.34461c1.0273,-0.73371 6.18869,-2.37674 7.26348,-2.09062c0.5037,0.13409 5.21024,4.38676 5.48877,5.19638c1.89266,5.50155 -4.70041,11.33596 -6.73283,15.74674c-5.09858,11.06496 -1.64992,17.01773 4.38447,26.22749c5.02873,7.67491 12.06548,15.18478 18.64438,21.62404c1.27205,1.24505 7.14312,5.03049 6.87716,6.94594c0.56334,1.40165 0.70984,2.9863 0.32512,4.56595c-0.8434,3.46302 -3.96506,5.7735 -7.38381,5.72631c-0.30479,0.03615 -0.61853,0.03353 -0.94273,-0.01449z" data-paper-data="{&quot;origPos&quot;:null,&quot;origRot&quot;:0}" fill="url(#color-1)" stroke="none" stroke-width="0.5" stroke-linecap="butt"/><g data-paper-data="{&quot;origRot&quot;:0}" stroke-linecap="butt"><path d="M247.84515,186.84536c3.44545,-4.04796 13.78321,-1.7629 21.19572,4.54629c7.4125,6.30921 13.51638,13.4135 13.51638,13.4135l-10.20014,12.26623c0,0 -12.79882,-8.44758 -18.76075,-13.52212c-7.4125,-6.30921 -9.19663,-12.65596 -5.75119,-16.70391z" data-paper-data="{&quot;origRot&quot;:0,&quot;origPos&quot;:null}" fill="url(#color-2)" stroke="none" stroke-width="0"/><g data-paper-data="{&quot;origPos&quot;:null}" stroke="#b3b092" stroke-width="1.5"><path d="M280.9127,214.92432c5.75144,-7.421 13.27923,-16.28356 20.73403,-9.77426c5.09764,4.45109 7.80613,6.81989 7.3421,13.6674c-0.46402,6.84751 -9.02102,0.54392 -9.12131,0.94821c-0.08504,0.34288 5.51381,0.73667 5.94883,3.19845c0.43502,2.46178 -1.09896,6.08179 -3.83896,6.71599c-2.74,0.6342 -6.38775,-3.24918 -6.61999,-3.04956c-0.0849,0.07298 5.62251,2.31477 4.99759,5.10152c-0.62493,2.78674 -2.34459,3.99374 -5.51018,4.16646c-3.16559,0.17271 -5.6234,-3.72687 -5.92331,-3.52865c-0.23133,0.1529 6.13356,3.65464 3.916,4.49501c-2.21757,0.84037 -8.93382,2.49163 -12.77933,-1.56475c-7.13966,-7.53117 -4.89692,-12.9548 0.85451,-20.37581z" data-paper-data="{&quot;origRot&quot;:0}" fill="url(#color-3)"/><path d="M275.51477,209.12392c4.44798,-5.7236 8.40652,-13.12144 12.52524,-9.35894c4.6076,4.2091 3.15669,5.4707 -4.34307,14.64432c-8.54363,10.45046 -7.94685,13.60311 -13.22147,9.23542c-3.08002,-2.55042 0.59133,-8.7972 5.03931,-14.52081z" data-paper-data="{&quot;origRot&quot;:0}" fill="url(#color-4)"/></g><path d="M285.3442,215.30529c2.53359,-3.06136 6.59396,-3.88249 9.06909,-1.83407c2.47514,2.04844 2.42776,6.19074 -0.10583,9.2521c-2.53359,3.06136 -6.59398,3.88249 -9.06912,1.83406c-2.47514,-2.04844 -2.42774,-6.19074 0.10584,-9.25209z" fill="#e29392" stroke="#bf6d6c" stroke-width="1.5"/></g><g data-paper-data="{&quot;origRot&quot;:0}"><path d="M209.43605,231.23998c-3.56704,2.85562 -2.02163,8.09379 -2.949,8.55901c-3.75211,1.88225 -7.27508,1.97801 -12.85941,-2.48092c-6.91743,-5.52338 -10.34556,-11.29582 -11.1364,-20.11245c-0.53863,-6.00491 4.26457,-3.81877 10.04812,-5.52162c2.07529,-0.61101 4.55578,-1.7375 9.2512,-4.47752c5.87049,-3.42575 18.01865,-7.62915 18.01865,-7.62915c0,0 3.76004,3.86721 6.88406,8.1037c3.0455,4.22272 4.31997,9.6799 4.31997,9.6799c0,0 -13.33156,7.27793 -21.5772,13.87904z" data-paper-data="{&quot;origPos&quot;:null}" fill="url(#color-5)" stroke="none" stroke-width="0" stroke-linecap="butt"/><path d="M200.62028,248.66046c-4.50739,1.54076 -9.81633,-0.27929 -14.75248,-7.18856c-4.93614,-6.90927 -6.20921,-17.16339 -6.20921,-17.16339c0,0 -3.83691,-4.81391 -2.62586,-5.83196c2.50655,-2.10711 6.80637,-5.25125 7.66633,-4.34713c3.17471,3.33775 2.17152,2.99592 6.67652,7.10788c2.91675,2.6623 9.66173,5.77275 11.95739,8.98603c4.93614,6.90926 4.7088,15.90023 -2.71269,18.43712z" data-paper-data="{&quot;origPos&quot;:null}" fill="#fff6cb" stroke="#b3b092" stroke-width="1.5" stroke-linecap="butt"/><path d="M209.43605,231.23997c-3.56704,2.85562 -1.74987,5.45535 -2.67723,5.92056c-3.75211,1.88225 -9.13338,-6.7245 -9.13338,-6.7245c0,0 -4.61923,-3.88429 -14.93015,-12.94486c-0.53863,-6.00491 4.06054,-4.10437 9.84408,-5.8072c1.53268,-0.45126 3.28639,-1.18368 5.99012,-2.6396c1.56554,2.32981 3.16946,4.6436 4.88191,6.89641c3.06971,4.03835 5.23447,9.32259 9.01778,12.76307c-1.94345,1.33201 -1.31561,1.19312 -2.99314,2.53608z" data-paper-data="{&quot;origPos&quot;:null}" fill="url(#color-6)" stroke="none" stroke-width="0" stroke-linecap="butt"/><path d="M200.62028,248.66046c-4.50739,1.54076 -9.81633,-0.27929 -14.75248,-7.18856c-4.93614,-6.90927 -6.20921,-17.16339 -6.20921,-17.16339c0,0 -3.83691,-4.81391 -2.62586,-5.83196c2.50655,-2.10711 6.80637,-5.25125 7.66633,-4.34713c3.17471,3.33775 2.17152,2.99592 6.67652,7.10788c2.91675,2.6623 9.66173,5.77275 11.95739,8.98603c4.93614,6.90926 4.7088,15.90023 -2.71269,18.43712z" data-paper-data="{&quot;origPos&quot;:null}" fill="url(#color-7)" stroke="#b3b092" stroke-width="0" stroke-linecap="butt"/><path d="M193.35464,237.33992l0.61629,1.89478l-0.69735,1.60427l-1.3716,1.34861l-2.06909,1.23242l-1.22052,0.87196" fill="none" stroke="#b3b092" stroke-width="1.5" stroke-linecap="round"/><path d="M199.13248,240.95471l0.61629,1.89478l-0.69735,1.60427l-1.3716,1.34861l-2.0691,1.23242l-1.22051,0.87197" fill="none" stroke="#b3b092" stroke-width="1.5" stroke-linecap="round"/><path d="M204.45668,241.69818l0.61629,1.89478l-0.69735,1.60428l-1.3716,1.3486l-2.06909,1.23242l-1.22052,0.87196" fill="none" stroke="#b3b092" stroke-width="1.5" stroke-linecap="round"/></g><g data-paper-data="{&quot;origRot&quot;:0}" stroke-linecap="butt"><path d="M251.05474,229.57697c-18.66051,10.01285 -30.18623,0.74848 -37.11853,-12.76497c-6.9323,-13.51345 -3.712,-29.22792 5.32974,-33.86626c9.80877,-5.03182 18.21885,-7.86424 28.34294,-3.50144c7.54275,3.25042 9.53562,12.48987 13.28448,19.79769c6.9323,13.51345 8.45285,20.52016 -9.83862,30.33499z" data-paper-data="{&quot;origPos&quot;:null}" fill="url(#color-8)" stroke="#ddb335" stroke-width="1.5"/><path d="M249.08382,226.66968c-14.74349,7.82504 -22.63538,2.84832 -26.75776,-5.18763c-4.12238,-8.03595 -0.47852,-18.26765 6.64851,-21.92377c7.73164,-3.96627 14.24427,-6.42597 21.47319,-4.45153c5.38576,1.47102 6.1499,7.18133 8.37921,11.52702c4.12238,8.03595 4.70878,12.36562 -9.74313,20.03591z" fill="url(#color-9)" stroke="#d2ceb4" stroke-width="0"/></g><g data-paper-data="{&quot;origRot&quot;:0}"><path d="M201.68279,219.59582c-3.67814,2.71103 -2.34296,8.00668 -3.28814,8.43453c-3.82423,1.73104 -7.34821,1.68619 -12.75017,-2.99202c-6.69153,-5.79498 -9.88662,-11.69959 -10.32506,-20.54077c-0.29861,-6.02161 4.41354,-3.64559 10.26042,-5.11632c2.09803,-0.52772 4.62147,-1.55434 9.42248,-4.10485c6.00252,-3.18879 18.92905,-6.41406 18.92905,-6.41406c0,0 4.20945,6.30696 6.18863,11.00404c1.56194,3.70687 2.88503,10.53005 2.88503,10.53005c0,0 -12.81976,2.93254 -21.32221,9.1994z" data-paper-data="{&quot;origPos&quot;:null}" fill="url(#color-10)" stroke="none" stroke-width="0" stroke-linecap="butt"/><path d="M192.17896,236.65072c-4.56528,1.3597 -9.79737,-0.67073 -14.45392,-7.77144c-4.65654,-7.10071 -5.51944,-17.39748 -5.51944,-17.39748c0,0 -3.64179,-4.96316 -2.39107,-5.93208c2.58862,-2.00542 7.01047,-4.97549 7.83366,-4.03779c3.03902,3.46176 2.05028,3.08019 6.3876,7.36862c2.80821,2.77655 9.4237,6.15363 11.58933,9.45596c4.65654,7.10071 4.07065,16.07546 -3.44616,18.31421z" data-paper-data="{&quot;origPos&quot;:null}" fill="#fff6cb" stroke="#b3b092" stroke-width="1.5" stroke-linecap="butt"/><path d="M201.80337,219.77971c-3.67814,2.71103 -2.14668,4.99483 -3.09187,5.42268c-3.82423,1.73104 -11.59568,-7.92949 -11.59568,-7.92949c0,0 -12.31265,-14.2657 -11.68115,-15.40652c1.40411,-2.53655 7.45409,-1.594 10.26575,-2.30126c1.57721,-0.39673 3.39486,-1.0754 6.23982,-2.47148c5.18488,6.30467 9.06297,13.44499 13.41054,20.38112c-1.23131,0.71102 -2.42683,1.47902 -3.54739,2.30494z" fill="url(#color-11)" stroke="none" stroke-width="0" stroke-linecap="butt"/><path d="M192.17896,236.65072c-4.56528,1.3597 -9.79737,-0.67073 -14.45392,-7.77144c-4.65654,-7.10071 -5.51944,-17.39748 -5.51944,-17.39748c0,0 -3.64179,-4.96316 -2.39107,-5.93208c2.58862,-2.00542 7.01047,-4.97549 7.83366,-4.03779c3.03902,3.46176 2.05028,3.08019 6.3876,7.36862c2.80821,2.77655 9.4237,6.15363 11.58933,9.45596c4.65654,7.10071 4.07065,16.07546 -3.44616,18.31421z" data-paper-data="{&quot;origPos&quot;:null}" fill="url(#color-12)" stroke="#b3b092" stroke-width="0" stroke-linecap="butt"/><path d="M185.32898,225.0767l0.5402,1.91786l-0.76079,1.57517l-1.42431,1.2928l-2.11663,1.14888l-1.25434,0.82258" fill="none" stroke="#b3b092" stroke-width="1.5" stroke-linecap="round"/><path d="M190.958,228.91913l0.5402,1.91786l-0.76079,1.57517l-1.42431,1.2928l-2.11663,1.14888l-1.25434,0.82258" fill="none" stroke="#b3b092" stroke-width="1.5" stroke-linecap="round"/><path d="M196.2483,229.87445l0.54019,1.91786l-0.76079,1.57518l-1.42431,1.2928l-2.11661,1.14887l-1.25434,0.82258" fill="none" stroke="#b3b092" stroke-width="1.5" stroke-linecap="round"/></g><g><path d="M315.62563,184.8705c-7.67775,18.58463 -19.24916,16.47926 -39.30135,16.47926c-20.05219,0 -33.68423,-7.00483 -36.78968,-17.81894c-2.34296,-8.15888 1.58848,-9.7832 5.72527,-17.19559c0.23597,-0.42282 0.34622,-22.81264 6.89524,-30.19082c4.75972,-5.36234 28.25905,-3.95865 35.42909,-3.95865c0,0 13.36231,-0.1543 18.74219,5.65518c0,0 3.49234,25.12842 3.72593,25.7376c2.0203,5.26875 6.65737,1.44866 7.90664,12.95861z" fill="url(#color-13)" stroke="none" stroke-width="0" stroke-linecap="butt"/><path d="M276.32427,201.34976c-20.05219,0 -33.68423,-7.00483 -36.78968,-17.81894c-0.79714,-2.77588 -0.86799,-4.79535 -0.45156,-6.54372c3.38931,2.13744 16.42784,9.63551 19.78986,10.23282c13.83259,2.45754 20.9174,1.6102 34.36478,1.75252c13.44739,0.14232 13.88119,-0.50399 21.05844,-1.16593c-7.67302,15.41905 -19.04439,13.54325 -37.97184,13.54325z" fill="url(#color-14)" stroke="none" stroke-width="0" stroke-linecap="butt"/><path d="M282.31936,151.20285c8.10199,-0.58761 17.1676,0.74183 19.29485,1.55096c6.38177,2.4274 3.98924,7.86753 4.67532,17.57746c0.69572,9.84642 7.56286,14.33038 4.11388,23.57918c-1.32977,3.56593 -4.32109,5.43206 -7.31062,7.78723c-1.69594,1.33607 -6.42898,2.63394 -17.21721,2.85583c-15.24981,0.31365 -19.57369,-2.15552 -25.86091,-6.94741c-1.64055,-1.25036 -3.5559,-7.00013 -3.78613,-11.90626c-0.23023,-4.90613 0.91712,-10.17145 2.45224,-16.5187c1.53512,-6.34725 0.31343,-10.21645 4.84788,-13.66513c4.53446,-3.44868 10.6887,-3.72556 18.79069,-4.31316z" data-paper-data="{&quot;origPos&quot;:null}" fill="url(#color-15)" stroke="none" stroke-width="0" stroke-linecap="butt"/><path d="M299.06722,151.80582c8.30302,0.46148 7.05081,9.77934 7.46946,18.01816c-1.37903,0.21622 -28.25862,0.83137 -48.44552,1.42064c0.57286,-0.79092 0.07364,-1.4265 0.58962,-2.06348c2.8296,-3.49314 0.33191,-9.84256 4.63824,-13.3517c4.30633,-3.50913 10.81076,-4.58858 18.15663,-5.22332c7.34587,-0.63474 13.09531,0.94979 17.59157,1.1997z" data-paper-data="{&quot;origPos&quot;:null}" fill="url(#color-16)" stroke="none" stroke-width="0" stroke-linecap="butt"/><path d="M304.62894,160.60656c0.35235,4.88885 -1.81808,9.02906 -4.84779,9.24741c-3.02971,0.21836 -5.7714,-3.56782 -6.12375,-8.45666c-0.35235,-4.88885 1.81808,-9.02905 4.84779,-9.24741c0.49092,-0.03538 0.92169,-0.03599 1.44113,0.19693c0.51944,0.23292 1.51872,0.525 1.97884,1.33662c0.46013,0.81162 2.4951,4.02769 2.70378,6.92311z" data-paper-data="{&quot;origPos&quot;:null,&quot;origRot&quot;:0}" fill="#ffffff" stroke="none" stroke-width="0" stroke-linecap="butt"/><path d="M267.05561,163.42361c0,2.60849 3.05805,6.42393 0.71211,7.56446c-2.72909,1.32681 -4.12613,-0.50952 -4.12613,-0.50952c0,0 0.58226,1.57572 -3.0717,2.25935c-1.1731,0.21948 -1.92421,-1.71099 -1.92421,-1.71099c0,0 0.68943,-5.34936 1.28978,-8.59303c0.65417,-3.53446 2.2818,-5.10242 4.64456,-7.81124c5.28647,1.13629 2.47559,5.19442 2.47559,8.80096z" fill="url(#color-17)" stroke="#5c3822" stroke-width="1" stroke-linecap="butt"/><path d="M291.60572,165.61128c0.57094,4.86816 -1.41189,9.10142 -4.42877,9.45524c-3.01689,0.35383 -5.92541,-3.30577 -6.49635,-8.17393c-0.57094,-4.86816 1.41189,-9.10142 4.42877,-9.45524c3.01689,-0.35383 5.92541,3.30577 6.49635,8.17393z" data-paper-data="{&quot;origPos&quot;:null,&quot;origRot&quot;:0}" fill="#ffffff" stroke="none" stroke-width="0" stroke-linecap="butt"/><path d="M288.63502,161.96294c0.952,0 1.814,0.695 2.439,1.817c0.624,1.122 1.011,2.672 1.011,4.383c0,1.711 -0.387,3.261 -1.011,4.383c-0.625,1.122 -1.487,1.817 -2.439,1.817c-0.952,0 -1.814,-0.695 -2.439,-1.817c-0.624,-1.122 -1.011,-2.672 -1.011,-4.383c0,-1.711 0.387,-3.261 1.011,-4.383c0.625,-1.122 1.487,-1.817 2.439,-1.817z" data-paper-data="{&quot;origPos&quot;:null}" fill="#000000" stroke="#00aaff" stroke-width="1.5" stroke-linecap="butt"/><path d="M301.63498,157.41293c0.952,0 1.814,0.695 2.439,1.817c0.624,1.122 0.775,2.904 1.011,4.383c0.083,0.539 0.233,1.323 -0.15,1.8c-0.483,0.577 -1.281,0.853 -2,1.1c-1.256,0.26 -2.748,1.037 -3.85,0.4c-0.966,-0.58 -0.89,-2.138 -0.9,-3.3c-0.013,-1.501 0.387,-3.261 1.011,-4.383c0.625,-1.122 1.487,-1.817 2.439,-1.817z" data-paper-data="{&quot;origPos&quot;:null}" fill="#000000" stroke="#00aaff" stroke-width="1.5" stroke-linecap="round"/><path d="M309.76817,194.25191c-0.3711,2.54836 -2.29609,3.82599 -3.74172,4.218c-4.4121,1.19644 -10.83865,1.02213 -15.21565,-0.29692c-2.51556,-0.75809 -2.56024,-2.38549 -2.80313,-2.61298c-0.25663,-0.24036 -2.96973,1.56689 -6.23949,1.56689c-5.2467,0 -8.875,-3.69733 -8.875,-8.875c0,-5.67767 0.49272,-8.8327 1.34672,-8.99605c3.8802,-0.0855 7.82576,3.95223 10.27828,5.49605c0,0 12.7819,4.20754 18.75328,3.86744c0,0 9.6388,-4.51103 12.62642,-4.31325c1.48172,0.09809 1.49141,3.20314 1.02397,4.7714c0,0 0.15212,4.28337 -1.92128,5.42204c-4.90253,2.69238 -5.12499,-0.98512 -5.23239,-0.24762z" data-paper-data="{&quot;origPos&quot;:null}" fill="#291e16" stroke="#321f12" stroke-width="0" stroke-linecap="butt"/><path d="M315.25029,178.25191c-0.5,6.61802 1.27026,10.98214 -13.10715,10.73214c-6.62642,-0.11523 -12.75,-3.86412 -12.75,-9.73214c0,-5.86802 6.3926,-13.11026 13,-13.625c9.62741,-0.75 13.65706,2.03715 12.85715,12.625z" data-paper-data="{&quot;origPos&quot;:null}" fill="url(#color-18)" stroke="#c79260" stroke-width="1.5" stroke-linecap="butt"/><path d="M289.57393,162.42338c0.36875,-0.04719 0.7436,0.23013 1.05181,0.71581c0.30782,0.48574 0.54905,1.1803 0.64987,1.96819c0.10082,0.78788 0.04224,1.52081 -0.13335,2.0684c-0.17598,0.54764 -0.46893,0.9104 -0.83768,0.95758c-0.36875,0.04719 -0.7436,-0.23013 -1.05181,-0.71581c-0.30782,-0.48574 -0.54906,-1.1803 -0.64987,-1.96819c-0.10082,-0.78788 -0.04224,-1.52081 0.13336,-2.0684c0.17598,-0.54764 0.46893,-0.9104 0.83769,-0.95758z" data-paper-data="{&quot;origPos&quot;:null,&quot;origRot&quot;:0}" fill="#ffffff" stroke="#00aaff" stroke-width="0" stroke-linecap="butt"/><path d="M302.67697,158.1442c0.36876,-0.04718 0.74361,0.23012 1.05181,0.71581c0.30782,0.48574 0.54905,1.1803 0.64986,1.96819c0.10082,0.78788 0.04224,1.52081 -0.13335,2.0684c-0.17599,0.54764 -0.46893,0.9104 -0.83768,0.95758c-0.36876,0.04719 -0.74361,-0.23012 -1.05181,-0.71581c-0.30782,-0.48574 -0.54905,-1.1803 -0.64986,-1.96819c-0.10082,-0.78788 -0.04224,-1.52081 0.13335,-2.0684c0.17599,-0.54764 0.46893,-0.9104 0.83769,-0.95759z" data-paper-data="{&quot;origPos&quot;:null,&quot;origRot&quot;:0}" fill="#ffffff" stroke="#00aaff" stroke-width="0" stroke-linecap="butt"/><path d="M280.68389,154.53465c-1.37576,0.41027 -1.31062,0.60464 -1.97844,1.87549c-0.68894,1.31106 -2.14657,2.99951 -2.14657,2.99951c0,0 -1.45833,-3.62706 -1.45833,-6.31945c0,-1.8281 0.99336,-5.0144 3.81107,-5.65344c9.53112,-0.32089 6.69401,8.65093 6.69401,8.65093c0,0 -3.4773,-2.0232 -4.92174,-1.55303z" fill="#291e16" stroke="none" stroke-width="0" stroke-linecap="butt"/><path d="M297.94469,151.72861c-1.51641,0.08916 -4.01601,3.24146 -4.01601,3.24146c0,0 -5.91454,-7.31854 3.07681,-10.49674c2.85665,-0.43291 4.94393,2.17143 5.61082,3.87354c0.98219,2.50684 0.94752,6.41595 0.94752,6.41595c0,0 -1.97313,-1.04035 -3.09287,-2.00973c-1.0854,-0.93965 -1.09566,-1.14439 -2.52627,-1.02451z" data-paper-data="{&quot;index&quot;:null,&quot;origRot&quot;:0}" fill="#291e16" stroke="none" stroke-width="0" stroke-linecap="butt"/><g stroke="none" stroke-width="0" stroke-linecap="butt"><path d="M269.35951,129.95577c5.30976,10.5638 -11.43267,13.01189 -16.20625,13.01189c-4.77358,0 -4.07569,-5.77833 -1.48214,-10.60633c2.37691,-4.42473 1.30146,-3.29021 2.85076,-4.8869c1.1654,-1.20104 3.26495,-6.3755 4.92824,-6.3755c4.77358,0 7.35655,3.77795 9.90939,8.85684z" data-paper-data="{&quot;origPos&quot;:null}" fill="#ffe538"/><path d="M268.07738,134.07902c0,4.18077 -9.4643,4.20552 -11.91229,4.20552c-2.44799,0 -1.87214,-2.95376 -0.09699,-6.72884c2.49327,-5.30224 3.45342,-9.78177 4.98654,-7.85031c2.44799,3.08405 7.02274,6.19286 7.02274,10.37363z" data-paper-data="{&quot;origPos&quot;:null}" fill="#fffeeb"/><path d="M266.66269,133.32444c0,2.93353 -6.64084,2.95091 -8.35853,2.95091c-1.71769,0 -1.75579,-2.07257 -0.51022,-4.72145c1.74946,-3.72044 2.42318,-6.86361 3.49892,-5.50836c1.71769,2.164 5.36983,4.34537 5.36983,7.2789z" data-paper-data="{&quot;origPos&quot;:null}" fill="#ffbdbd"/></g><g stroke="none" stroke-width="0" stroke-linecap="butt"><path d="M300.03434,119.54453c1.45542,0 3.16588,6.97837 5.24574,11.06273c2.26943,4.45662 2.3037,9.79046 -1.87333,9.79046c-4.17702,0 -18.82713,-2.25978 -14.18094,-12.01098c2.23381,-4.6882 10.80852,-8.84221 10.80852,-8.84221z" data-paper-data="{&quot;index&quot;:null}" fill="#ffe538"/><path d="M298.75433,122.97655c1.45331,-1.93146 1.11461,1.54807 3.4781,6.85031c1.68275,3.77508 1.76029,6.72884 -0.56027,6.72884c-2.32056,0 -11.29223,-0.02476 -11.29223,-4.20552c0,-4.18076 6.05384,-6.28958 8.3744,-9.37363z" data-paper-data="{&quot;origPos&quot;:null,&quot;index&quot;:null}" fill="#fffeeb"/><path d="M298.93245,125.49113c1.01975,-1.35525 0.40951,1.12125 2.06791,4.84169c1.18075,2.64888 0.6763,4.72145 -0.95198,4.72145c-1.62828,0 -7.92345,-0.01738 -7.92345,-2.95091c0,-2.93353 5.17925,-4.44823 6.80753,-6.61223z" data-paper-data="{&quot;origPos&quot;:null,&quot;index&quot;:null}" fill="#ffbdbd"/></g></g><g data-paper-data="{&quot;origRot&quot;:0}"><path d="M251.84828,190.54296c5.73738,5.32714 15.6247,17.04943 15.6247,17.04943l-10.98828,11.5655c0,0 -7.76982,-5.23055 -14.90311,-11.85378c-7.13329,-6.62323 -10.61243,-16.62256 -6.99547,-20.51804c3.61695,-3.89548 10.12889,-2.86634 17.26218,3.7569z" data-paper-data="{&quot;origRot&quot;:0,&quot;origPos&quot;:null}" fill="url(#color-19)" stroke="none" stroke-width="0" stroke-linecap="butt"/><path d="M286.333,212.96922c8.90504,6.64994 2.59709,13.45733 -2.92866,22.08483c-5.06379,7.90623 -19.16515,7.7021 -24.48785,2.8837c-7.33696,-6.64184 0.58375,-15.15504 7.28071,-21.73539c6.69696,-6.58036 11.82087,-9.4424 20.1358,-3.23313z" data-paper-data="{&quot;origRot&quot;:0,&quot;origPos&quot;:null}" fill="url(#color-20)" stroke="#b3b092" stroke-width="1.5" stroke-linecap="butt"/><path d="M273.63625,204.81637c4.95496,4.72726 1.75411,4.50353 -7.62472,14.21141c-8.23293,8.52178 -9.31607,10.11032 -14.03545,6.02698c-4.21865,-3.6501 2.66511,-8.44719 7.82885,-13.5344c5.16375,-5.08723 10.93797,-9.46437 13.83131,-6.70397z" data-paper-data="{&quot;origRot&quot;:0,&quot;origPos&quot;:null}" fill="url(#color-21)" stroke="#b3b092" stroke-width="1.5" stroke-linecap="butt"/><path d="M283.18615,234.21257l-1.16188,-0.94874l-2.03098,-1.3073l-1.21365,-1.5177l-0.38778,-1.89671l1.16945,-2.38079" data-paper-data="{&quot;index&quot;:null,&quot;origRot&quot;:0}" fill="none" stroke="#b3b092" stroke-width="1.5" stroke-linecap="round"/><path d="M275.75363,239.204l-1.16186,-0.94873l-2.03098,-1.3073l-1.21365,-1.51772l-0.38777,-1.89671l1.16945,-2.38079" data-paper-data="{&quot;index&quot;:null,&quot;origRot&quot;:0}" fill="none" stroke="#b3b092" stroke-width="1.5" stroke-linecap="round"/><path d="M269.55045,240.63457l-1.16186,-0.94873l-2.031,-1.30731l-1.21364,-1.51771l-0.38778,-1.89671l1.16945,-2.38079" data-paper-data="{&quot;index&quot;:null,&quot;origRot&quot;:0}" fill="none" stroke="#b3b092" stroke-width="1.5" stroke-linecap="round"/></g></g></g></svg>