<svg version="1.1" xmlns="http://www.w3.org/2000/svg" xmlns:xlink="http://www.w3.org/1999/xlink" width="35.80341" height="41.77076" viewBox="0,0,35.80341,41.77076"><defs><linearGradient x1="238.33338" y1="161.68716" x2="238.33338" y2="194.9796" gradientUnits="userSpaceOnUse" id="color-1"><stop offset="0" stop-color="#faeb46"/><stop offset="1" stop-color="#e8c025"/></linearGradient><linearGradient x1="238.33338" y1="161.68717" x2="238.33338" y2="194.97961" gradientUnits="userSpaceOnUse" id="color-2"><stop offset="0" stop-color="#faeb46"/><stop offset="1" stop-color="#e8c025"/></linearGradient></defs><g transform="translate(-222.21877,-159.04208)"><g data-paper-data="{&quot;isPaintingLayer&quot;:true}" fill-rule="nonzero" stroke-linecap="butt" stroke-linejoin="miter" stroke-miterlimit="10" stroke-dasharray="" stroke-dashoffset="0" style="mix-blend-mode: normal"><g><path d="M237.42239,165.02039l12.34686,2.20481c3.56442,7.23908 5.40174,11.13422 5.51198,11.68542c-8.04751,6.79812 -12.12638,10.28906 -12.23662,10.47278l11.024,-1.21263l0.11024,0.22049c-0.84518,6.61439 -1.35963,9.92158 -1.54335,9.92158c-12.43873,-0.29397 -19.93505,-0.44096 -22.48893,-0.44096c-0.22049,0 -0.66144,-2.42527 -1.32288,-7.27584c1.24939,-0.97378 2.38853,-2.03944 3.41743,-3.19695l11.13422,-10.14208c-0.93703,-1.3045 -1.59848,-2.14966 -1.9843,-2.53551c-1.89245,2.18643 -3.5828,3.987 -5.07103,5.40175c-4.70355,-3.60117 -7.45957,-5.76922 -8.268,-6.50415v-0.22048c0.38585,-0.23887 3.28882,-2.84787 8.70895,-7.82704c0,-0.05511 0.22049,-0.23883 0.66144,-0.55119z" data-paper-data="{&quot;origPos&quot;:null}" fill="#bdbdbd" stroke="#bfbfbf" stroke-width="5"/><g data-paper-data="{&quot;origPos&quot;:null}" stroke="#000000"><path d="M234.08915,161.68716l12.34686,2.20481c3.56442,7.23908 5.40175,11.13422 5.51199,11.68542c-8.04751,6.79812 -12.12638,10.28906 -12.23662,10.47279l11.02399,-1.21263l0.11024,0.22049c-0.84518,6.61439 -1.35962,9.92158 -1.54335,9.92158c-12.43873,-0.29397 -19.93505,-0.44096 -22.48893,-0.44096c-0.22049,0 -0.66143,-2.42527 -1.32288,-7.27584c1.24939,-0.97378 2.38853,-2.03943 3.41743,-3.19696l11.13422,-10.14208c-0.93703,-1.3045 -1.59849,-2.14967 -1.98431,-2.53552c-1.89245,2.18643 -3.58279,3.98701 -5.07102,5.40175c-4.70355,-3.60118 -7.45957,-5.76922 -8.268,-6.50414v-0.22047c0.38585,-0.23887 3.28882,-2.84788 8.70895,-7.82704c0,-0.05511 0.22049,-0.23884 0.66143,-0.5512z" data-paper-data="{&quot;origPos&quot;:null}" fill="url(#color-1)" stroke-width="5"/><path d="M234.08915,161.68717l12.34686,2.2048c3.56442,7.23908 5.40175,11.13422 5.51199,11.68542c-8.04751,6.79812 -12.12638,10.28906 -12.23662,10.47279l11.02399,-1.21263l0.11024,0.22048c-0.84518,6.61439 -1.35962,9.92159 -1.54335,9.92159c-12.43873,-0.29397 -19.93505,-0.44096 -22.48893,-0.44096c-0.22049,0 -0.66143,-2.42527 -1.32288,-7.27584c1.24939,-0.97378 2.38853,-2.03944 3.41743,-3.19695l11.13422,-10.14207c-0.93703,-1.3045 -1.59849,-2.14966 -1.98431,-2.53552c-1.89245,2.18643 -3.58279,3.98701 -5.07102,5.40175c-4.70355,-3.60118 -7.45957,-5.76922 -8.268,-6.50415v-0.22047c0.38585,-0.23887 3.28882,-2.84787 8.70895,-7.82704c0,-0.05511 0.22049,-0.23884 0.66143,-0.5512z" data-paper-data="{&quot;origPos&quot;:null}" fill="url(#color-2)" stroke-width="0"/></g></g></g></g></svg>