<svg version="1.1" xmlns="http://www.w3.org/2000/svg" xmlns:xlink="http://www.w3.org/1999/xlink" width="668.64135" height="572.20689" viewBox="0,0,668.64135,572.20689"><defs><linearGradient x1="206.67831" y1="-14.45082" x2="206.67831" y2="408.10857" gradientUnits="userSpaceOnUse" id="color-1"><stop offset="0" stop-color="#2ee579"/><stop offset="1" stop-color="#00cc49"/></linearGradient><linearGradient x1="429.94788" y1="407.50001" x2="429.94788" y2="505.50001" gradientUnits="userSpaceOnUse" id="color-2"><stop offset="0" stop-color="#915700"/><stop offset="1" stop-color="#bd9133"/></linearGradient><linearGradient x1="-61.47366" y1="175.50001" x2="-61.47366" y2="273.50001" gradientUnits="userSpaceOnUse" id="color-3"><stop offset="0" stop-color="#915700"/><stop offset="1" stop-color="#bd9133"/></linearGradient><linearGradient x1="186.12469" y1="175.60857" x2="186.12469" y2="339.288" gradientUnits="userSpaceOnUse" id="color-4"><stop offset="0" stop-color="#915700"/><stop offset="1" stop-color="#bd9133"/></linearGradient><linearGradient x1="-61.22366" y1="183.50001" x2="-61.22366" y2="274.50001" gradientUnits="userSpaceOnUse" id="color-5"><stop offset="0" stop-color="#0778ff"/><stop offset="1" stop-color="#32a8ff"/></linearGradient><linearGradient x1="186.12469" y1="183.60857" x2="186.12469" y2="360.60857" gradientUnits="userSpaceOnUse" id="color-6"><stop offset="0" stop-color="#0070ff"/><stop offset="1" stop-color="#5ed8ff"/></linearGradient><linearGradient x1="185.92736" y1="174.60857" x2="185.92736" y2="351.60857" gradientUnits="userSpaceOnUse" id="color-7"><stop offset="0" stop-color="#0070ff"/><stop offset="1" stop-color="#5ed8ff"/></linearGradient><linearGradient x1="185.92736" y1="174.60857" x2="185.92736" y2="351.60857" gradientUnits="userSpaceOnUse" id="color-8"><stop offset="0" stop-color="#0070ff"/><stop offset="1" stop-color="#5ed8ff"/></linearGradient><linearGradient x1="267.0827" y1="85.25002" x2="267.0827" y2="94.25002" gradientUnits="userSpaceOnUse" id="color-9"><stop offset="0" stop-color="#ff8a8a"/><stop offset="1" stop-color="#ff003d"/></linearGradient><linearGradient x1="304.45841" y1="95.68458" x2="304.45841" y2="101.15068" gradientUnits="userSpaceOnUse" id="color-10"><stop offset="0" stop-color="#8affde"/><stop offset="1" stop-color="#00ffad"/></linearGradient><linearGradient x1="330.43721" y1="86.29945" x2="330.43721" y2="93.46894" gradientUnits="userSpaceOnUse" id="color-11"><stop offset="0" stop-color="#de8aff"/><stop offset="1" stop-color="#ad00ff"/></linearGradient><linearGradient x1="329.57187" y1="160.95482" x2="325.69804" y2="160.95482" gradientUnits="userSpaceOnUse" id="color-12"><stop offset="0" stop-color="#f7ebbb"/><stop offset="1" stop-color="#e9d38f"/></linearGradient><linearGradient x1="327.97677" y1="149.44727" x2="327.97677" y2="155.59983" gradientUnits="userSpaceOnUse" id="color-13"><stop offset="0" stop-color="#ffec8a"/><stop offset="1" stop-color="#ffc200"/></linearGradient><linearGradient x1="281.9697" y1="166.97457" x2="286.6279" y2="166.97457" gradientUnits="userSpaceOnUse" id="color-14"><stop offset="0" stop-color="#f7ebbb"/><stop offset="1" stop-color="#e9d38f"/></linearGradient><linearGradient x1="283.88779" y1="153.137" x2="283.88779" y2="160.53533" gradientUnits="userSpaceOnUse" id="color-15"><stop offset="0" stop-color="#d9ff8a"/><stop offset="1" stop-color="#8fff00"/></linearGradient><linearGradient x1="67.61347" y1="80.63323" x2="67.61347" y2="94.15148" gradientUnits="userSpaceOnUse" id="color-16"><stop offset="0" stop-color="#e3aa1a"/><stop offset="1" stop-color="#f1b827"/></linearGradient><linearGradient x1="81.64905" y1="71.8029" x2="81.64905" y2="110.73898" gradientUnits="userSpaceOnUse" id="color-17"><stop offset="0" stop-color="#ffcf55"/><stop offset="1" stop-color="#f7ab39"/></linearGradient><linearGradient x1="110.05885" y1="71.69934" x2="110.05885" y2="110.63543" gradientUnits="userSpaceOnUse" id="color-18"><stop offset="0" stop-color="#ffcf55"/><stop offset="1" stop-color="#f7ab39"/></linearGradient><linearGradient x1="24.82944" y1="71.8029" x2="24.82944" y2="110.73898" gradientUnits="userSpaceOnUse" id="color-19"><stop offset="0" stop-color="#ffcf55"/><stop offset="1" stop-color="#f7ab39"/></linearGradient><linearGradient x1="53.12673" y1="71.8029" x2="53.12673" y2="110.73898" gradientUnits="userSpaceOnUse" id="color-20"><stop offset="0" stop-color="#ffcf55"/><stop offset="1" stop-color="#f7ab39"/></linearGradient><linearGradient x1="145.59933" y1="272.07713" x2="183.4078" y2="272.07713" gradientUnits="userSpaceOnUse" id="color-21"><stop offset="0" stop-color="#ab9f00"/><stop offset="1" stop-color="#c7b900"/></linearGradient><linearGradient x1="145.59933" y1="272.07713" x2="183.4078" y2="272.07713" gradientUnits="userSpaceOnUse" id="color-22"><stop offset="0" stop-color="#c7b900"/><stop offset="1" stop-color="#fae800"/></linearGradient><linearGradient x1="145.59933" y1="272.07713" x2="183.4078" y2="272.07713" gradientUnits="userSpaceOnUse" id="color-23"><stop offset="0" stop-color="#c7b900"/><stop offset="1" stop-color="#fae800"/></linearGradient><linearGradient x1="145.59933" y1="272.07713" x2="183.4078" y2="272.07713" gradientUnits="userSpaceOnUse" id="color-24"><stop offset="0" stop-color="#c7b900"/><stop offset="1" stop-color="#fae800"/></linearGradient><linearGradient x1="31.61347" y1="258.13323" x2="31.61347" y2="271.65146" gradientUnits="userSpaceOnUse" id="color-25"><stop offset="0" stop-color="#e3aa1a"/><stop offset="1" stop-color="#f1b827"/></linearGradient><linearGradient x1="45.64905" y1="249.3029" x2="45.64905" y2="288.23898" gradientUnits="userSpaceOnUse" id="color-26"><stop offset="0" stop-color="#ffcf55"/><stop offset="1" stop-color="#f7ab39"/></linearGradient><linearGradient x1="74.05885" y1="249.19935" x2="74.05885" y2="288.13543" gradientUnits="userSpaceOnUse" id="color-27"><stop offset="0" stop-color="#ffcf55"/><stop offset="1" stop-color="#f7ab39"/></linearGradient><linearGradient x1="-11.17056" y1="249.3029" x2="-11.17056" y2="288.23898" gradientUnits="userSpaceOnUse" id="color-28"><stop offset="0" stop-color="#ffcf55"/><stop offset="1" stop-color="#f7ab39"/></linearGradient><linearGradient x1="17.12673" y1="249.3029" x2="17.12673" y2="288.23898" gradientUnits="userSpaceOnUse" id="color-29"><stop offset="0" stop-color="#ffcf55"/><stop offset="1" stop-color="#f7ab39"/></linearGradient><linearGradient x1="93.30267" y1="261.0466" x2="134.40956" y2="261.0466" gradientUnits="userSpaceOnUse" id="color-30"><stop offset="0" stop-color="#25ac00"/><stop offset="1" stop-color="#2bc700"/></linearGradient><linearGradient x1="93.30267" y1="261.0466" x2="134.40956" y2="261.0466" gradientUnits="userSpaceOnUse" id="color-31"><stop offset="0" stop-color="#2bc700"/><stop offset="1" stop-color="#36f900"/></linearGradient><linearGradient x1="93.30267" y1="261.0466" x2="134.40956" y2="261.0466" gradientUnits="userSpaceOnUse" id="color-32"><stop offset="0" stop-color="#2bc700"/><stop offset="1" stop-color="#36f900"/></linearGradient><linearGradient x1="93.30267" y1="261.0466" x2="134.40956" y2="261.0466" gradientUnits="userSpaceOnUse" id="color-33"><stop offset="0" stop-color="#2bc700"/><stop offset="1" stop-color="#36f900"/></linearGradient><linearGradient x1="93.30267" y1="261.0466" x2="134.40956" y2="261.0466" gradientUnits="userSpaceOnUse" id="color-34"><stop offset="0" stop-color="#2bc700"/><stop offset="1" stop-color="#36f900"/></linearGradient><linearGradient x1="427.30267" y1="310.0466" x2="468.40957" y2="310.0466" gradientUnits="userSpaceOnUse" id="color-35"><stop offset="0" stop-color="#ab0000"/><stop offset="1" stop-color="#c70000"/></linearGradient><linearGradient x1="427.30267" y1="310.0466" x2="468.40957" y2="310.0466" gradientUnits="userSpaceOnUse" id="color-36"><stop offset="0" stop-color="#c70000"/><stop offset="1" stop-color="#fa0000"/></linearGradient><linearGradient x1="427.30267" y1="310.0466" x2="468.40957" y2="310.0466" gradientUnits="userSpaceOnUse" id="color-37"><stop offset="0" stop-color="#c70000"/><stop offset="1" stop-color="#fa0000"/></linearGradient><linearGradient x1="427.30267" y1="310.0466" x2="468.40957" y2="310.0466" gradientUnits="userSpaceOnUse" id="color-38"><stop offset="0" stop-color="#c70000"/><stop offset="1" stop-color="#fa0000"/></linearGradient><linearGradient x1="427.30267" y1="310.0466" x2="468.40957" y2="310.0466" gradientUnits="userSpaceOnUse" id="color-39"><stop offset="0" stop-color="#c70000"/><stop offset="1" stop-color="#fa0000"/></linearGradient><linearGradient x1="369.59934" y1="96.07713" x2="407.4078" y2="96.07713" gradientUnits="userSpaceOnUse" id="color-40"><stop offset="0" stop-color="#ab5a00"/><stop offset="1" stop-color="#c77100"/></linearGradient><linearGradient x1="369.59934" y1="96.07714" x2="407.4078" y2="96.07714" gradientUnits="userSpaceOnUse" id="color-41"><stop offset="0" stop-color="#c77100"/><stop offset="1" stop-color="#fa8e00"/></linearGradient><linearGradient x1="369.59934" y1="96.07714" x2="407.4078" y2="96.07714" gradientUnits="userSpaceOnUse" id="color-42"><stop offset="0" stop-color="#c77100"/><stop offset="1" stop-color="#fa8e00"/></linearGradient><linearGradient x1="369.59934" y1="96.07714" x2="407.4078" y2="96.07714" gradientUnits="userSpaceOnUse" id="color-43"><stop offset="0" stop-color="#c77100"/><stop offset="1" stop-color="#fa8e00"/></linearGradient><linearGradient x1="424.91532" y1="134.2012" x2="467.40956" y2="134.2012" gradientUnits="userSpaceOnUse" id="color-44"><stop offset="0" stop-color="#7d00ab"/><stop offset="1" stop-color="#9900c7"/></linearGradient><linearGradient x1="424.91532" y1="134.2012" x2="467.40957" y2="134.2012" gradientUnits="userSpaceOnUse" id="color-45"><stop offset="0" stop-color="#9900c7"/><stop offset="1" stop-color="#c000fa"/></linearGradient><linearGradient x1="424.91532" y1="134.2012" x2="467.40957" y2="134.2012" gradientUnits="userSpaceOnUse" id="color-46"><stop offset="0" stop-color="#9900c7"/><stop offset="1" stop-color="#c000fa"/></linearGradient><linearGradient x1="424.91532" y1="134.2012" x2="467.40957" y2="134.2012" gradientUnits="userSpaceOnUse" id="color-47"><stop offset="0" stop-color="#9900c7"/><stop offset="1" stop-color="#c000fa"/></linearGradient><linearGradient x1="424.91532" y1="134.2012" x2="467.40957" y2="134.2012" gradientUnits="userSpaceOnUse" id="color-48"><stop offset="0" stop-color="#9900c7"/><stop offset="1" stop-color="#c000fa"/></linearGradient><linearGradient x1="68.30267" y1="2.07948" x2="139.40956" y2="2.07948" gradientUnits="userSpaceOnUse" id="color-49"><stop offset="0" stop-color="#00ab98"/><stop offset="1" stop-color="#00c7b1"/></linearGradient><linearGradient x1="68.30267" y1="2.07949" x2="139.40956" y2="2.07949" gradientUnits="userSpaceOnUse" id="color-50"><stop offset="0" stop-color="#00c7b9"/><stop offset="1" stop-color="#00faca"/></linearGradient><linearGradient x1="68.30267" y1="2.07949" x2="139.40956" y2="2.07949" gradientUnits="userSpaceOnUse" id="color-51"><stop offset="0" stop-color="#00c7b9"/><stop offset="1" stop-color="#00faca"/></linearGradient><linearGradient x1="68.30267" y1="2.07949" x2="139.40956" y2="2.07949" gradientUnits="userSpaceOnUse" id="color-52"><stop offset="0" stop-color="#00c7b9"/><stop offset="1" stop-color="#00faca"/></linearGradient><linearGradient x1="68.30267" y1="2.07949" x2="139.40956" y2="2.07949" gradientUnits="userSpaceOnUse" id="color-53"><stop offset="0" stop-color="#00c7b9"/><stop offset="1" stop-color="#00faca"/></linearGradient><linearGradient x1="104.77559" y1="348.12105" x2="110.59286" y2="348.12105" gradientUnits="userSpaceOnUse" id="color-54"><stop offset="0" stop-color="#686868"/><stop offset="1" stop-color="#939393"/></linearGradient><linearGradient x1="156.10892" y1="356.45439" x2="161.92619" y2="356.45439" gradientUnits="userSpaceOnUse" id="color-55"><stop offset="0" stop-color="#686868"/><stop offset="1" stop-color="#939393"/></linearGradient><linearGradient x1="400.44226" y1="342.78772" x2="406.25952" y2="342.78772" gradientUnits="userSpaceOnUse" id="color-56"><stop offset="0" stop-color="#686868"/><stop offset="1" stop-color="#939393"/></linearGradient><linearGradient x1="331.44226" y1="198.45438" x2="337.25952" y2="198.45438" gradientUnits="userSpaceOnUse" id="color-57"><stop offset="0" stop-color="#686868"/><stop offset="1" stop-color="#939393"/></linearGradient><linearGradient x1="194.66061" y1="189.27413" x2="203.40074" y2="189.27413" gradientUnits="userSpaceOnUse" id="color-58"><stop offset="0" stop-color="#686868"/><stop offset="1" stop-color="#939393"/></linearGradient><linearGradient x1="135.44225" y1="101.12105" x2="141.25952" y2="101.12105" gradientUnits="userSpaceOnUse" id="color-59"><stop offset="0" stop-color="#686868"/><stop offset="1" stop-color="#939393"/></linearGradient><linearGradient x1="223.77559" y1="107.78772" x2="229.59285" y2="107.78772" gradientUnits="userSpaceOnUse" id="color-60"><stop offset="0" stop-color="#686868"/><stop offset="1" stop-color="#939393"/></linearGradient><linearGradient x1="240.77558" y1="25.12105" x2="246.59285" y2="25.12105" gradientUnits="userSpaceOnUse" id="color-61"><stop offset="0" stop-color="#686868"/><stop offset="1" stop-color="#939393"/></linearGradient><linearGradient x1="377.44225" y1="26.78772" x2="383.25952" y2="26.78772" gradientUnits="userSpaceOnUse" id="color-62"><stop offset="0" stop-color="#686868"/><stop offset="1" stop-color="#939393"/></linearGradient><linearGradient x1="418.30267" y1="-6.9534" x2="459.40957" y2="-6.9534" gradientUnits="userSpaceOnUse" id="color-63"><stop offset="0" stop-color="#25ac00"/><stop offset="1" stop-color="#2bc700"/></linearGradient><linearGradient x1="418.30267" y1="-6.9534" x2="459.40957" y2="-6.9534" gradientUnits="userSpaceOnUse" id="color-64"><stop offset="0" stop-color="#2bc700"/><stop offset="1" stop-color="#36f900"/></linearGradient><linearGradient x1="418.30267" y1="-6.9534" x2="459.40957" y2="-6.9534" gradientUnits="userSpaceOnUse" id="color-65"><stop offset="0" stop-color="#2bc700"/><stop offset="1" stop-color="#36f900"/></linearGradient><linearGradient x1="418.30267" y1="-6.9534" x2="459.40957" y2="-6.9534" gradientUnits="userSpaceOnUse" id="color-66"><stop offset="0" stop-color="#2bc700"/><stop offset="1" stop-color="#36f900"/></linearGradient><linearGradient x1="418.30267" y1="-6.9534" x2="459.40957" y2="-6.9534" gradientUnits="userSpaceOnUse" id="color-67"><stop offset="0" stop-color="#2bc700"/><stop offset="1" stop-color="#36f900"/></linearGradient><linearGradient x1="11.63826" y1="23.38219" x2="22.44159" y2="23.38219" gradientUnits="userSpaceOnUse" id="color-68"><stop offset="0" stop-color="#686868"/><stop offset="1" stop-color="#939393"/></linearGradient><linearGradient x1="73.59936" y1="331.60857" x2="73.59936" y2="495.288" gradientUnits="userSpaceOnUse" id="color-69"><stop offset="0" stop-color="#915700"/><stop offset="1" stop-color="#bd9133"/></linearGradient><linearGradient x1="72.12469" y1="338.10857" x2="72.12469" y2="515.10857" gradientUnits="userSpaceOnUse" id="color-70"><stop offset="0" stop-color="#4dc5ff"/><stop offset="1" stop-color="#3bb2ff"/></linearGradient><linearGradient x1="288.05267" y1="351.90001" x2="288.05267" y2="479.40001" gradientUnits="userSpaceOnUse" id="color-71"><stop offset="0" stop-color="#5ad4ff"/><stop offset="1" stop-color="#32a8ff"/></linearGradient><linearGradient x1="-71.38653" y1="258.13323" x2="-71.38653" y2="271.65146" gradientUnits="userSpaceOnUse" id="color-72"><stop offset="0" stop-color="#e3aa1a"/><stop offset="1" stop-color="#f1b827"/></linearGradient><linearGradient x1="-57.35095" y1="249.3029" x2="-57.35095" y2="288.23898" gradientUnits="userSpaceOnUse" id="color-73"><stop offset="0" stop-color="#ffcf55"/><stop offset="1" stop-color="#f7ab39"/></linearGradient><linearGradient x1="-28.94115" y1="249.19935" x2="-28.94115" y2="288.13543" gradientUnits="userSpaceOnUse" id="color-74"><stop offset="0" stop-color="#ffcf55"/><stop offset="1" stop-color="#f7ab39"/></linearGradient><linearGradient x1="-114.17056" y1="249.3029" x2="-114.17056" y2="288.23898" gradientUnits="userSpaceOnUse" id="color-75"><stop offset="0" stop-color="#ffcf55"/><stop offset="1" stop-color="#f7ab39"/></linearGradient><linearGradient x1="-85.87327" y1="249.3029" x2="-85.87327" y2="288.23898" gradientUnits="userSpaceOnUse" id="color-76"><stop offset="0" stop-color="#ffcf55"/><stop offset="1" stop-color="#f7ab39"/></linearGradient><linearGradient x1="-94.69733" y1="280.0466" x2="-53.59043" y2="280.0466" gradientUnits="userSpaceOnUse" id="color-77"><stop offset="0" stop-color="#25ac00"/><stop offset="1" stop-color="#2bc700"/></linearGradient><linearGradient x1="-94.69733" y1="280.0466" x2="-53.59043" y2="280.0466" gradientUnits="userSpaceOnUse" id="color-78"><stop offset="0" stop-color="#2bc700"/><stop offset="1" stop-color="#36f900"/></linearGradient><linearGradient x1="-94.69733" y1="280.0466" x2="-53.59043" y2="280.0466" gradientUnits="userSpaceOnUse" id="color-79"><stop offset="0" stop-color="#2bc700"/><stop offset="1" stop-color="#36f900"/></linearGradient><linearGradient x1="-94.69733" y1="280.0466" x2="-53.59043" y2="280.0466" gradientUnits="userSpaceOnUse" id="color-80"><stop offset="0" stop-color="#2bc700"/><stop offset="1" stop-color="#36f900"/></linearGradient><linearGradient x1="-94.69733" y1="280.0466" x2="-53.59043" y2="280.0466" gradientUnits="userSpaceOnUse" id="color-81"><stop offset="0" stop-color="#2bc700"/><stop offset="1" stop-color="#36f900"/></linearGradient><linearGradient x1="-26.22441" y1="308.12104" x2="-20.40714" y2="308.12104" gradientUnits="userSpaceOnUse" id="color-82"><stop offset="0" stop-color="#686868"/><stop offset="1" stop-color="#939393"/></linearGradient><linearGradient x1="-128.22441" y1="314.12104" x2="-122.40714" y2="314.12104" gradientUnits="userSpaceOnUse" id="color-83"><stop offset="0" stop-color="#686868"/><stop offset="1" stop-color="#939393"/></linearGradient><linearGradient x1="460.30266" y1="220.0466" x2="501.40956" y2="220.0466" gradientUnits="userSpaceOnUse" id="color-84"><stop offset="0" stop-color="#25ac00"/><stop offset="1" stop-color="#2bc700"/></linearGradient><linearGradient x1="460.30266" y1="220.0466" x2="501.40956" y2="220.0466" gradientUnits="userSpaceOnUse" id="color-85"><stop offset="0" stop-color="#2bc700"/><stop offset="1" stop-color="#36f900"/></linearGradient><linearGradient x1="460.30266" y1="220.0466" x2="501.40956" y2="220.0466" gradientUnits="userSpaceOnUse" id="color-86"><stop offset="0" stop-color="#2bc700"/><stop offset="1" stop-color="#36f900"/></linearGradient><linearGradient x1="460.30266" y1="220.0466" x2="501.40956" y2="220.0466" gradientUnits="userSpaceOnUse" id="color-87"><stop offset="0" stop-color="#2bc700"/><stop offset="1" stop-color="#36f900"/></linearGradient><linearGradient x1="460.30266" y1="220.0466" x2="501.40956" y2="220.0466" gradientUnits="userSpaceOnUse" id="color-88"><stop offset="0" stop-color="#2bc700"/><stop offset="1" stop-color="#36f900"/></linearGradient><linearGradient x1="184.44226" y1="391.25209" x2="190.25952" y2="391.25209" gradientUnits="userSpaceOnUse" id="color-89"><stop offset="0" stop-color="#686868"/><stop offset="1" stop-color="#939393"/></linearGradient></defs><g transform="translate(137.40759,57.09833)"><g data-paper-data="{&quot;isPaintingLayer&quot;:true}" fill-rule="nonzero" stroke-linejoin="miter" stroke-miterlimit="10" stroke-dasharray="" stroke-dashoffset="0" style="mix-blend-mode: normal"><path d="M-117.59733,408.10857v-422.55939h648.55129v422.55939z" fill="url(#color-1)" stroke="#000000" stroke-width="0" stroke-linecap="butt"/><path d="M328.66199,505.50001v-98h202.57177v98z" fill="url(#color-2)" stroke="none" stroke-width="0" stroke-linecap="butt"/><path d="M328.73091,413.00001v-10h201.86584c0,0 0.38094,3.34146 0.57844,5.07393c0.10227,0.89706 -0.49718,2.26965 -0.51474,3.43051c-0.01805,1.1929 0.54432,2.16223 0.54432,2.16223c0,0 -4.39436,-4.93415 -12.87938,-4.61628c-8.44797,0.31649 -22.17231,5.21904 -36.02491,4.90011c-10.23398,-0.23562 -24.6861,-4.5187 -35.08985,-3.93983c-14.39348,0.80086 -19.6431,10.077 -33.64325,10.24131c-14.71027,0.17264 -21.07951,-6.57672 -33.47074,-6.21767c-19.86237,0.57555 -28.515,4.63236 -35.25295,4.63236c-6.60886,0 -16.11279,-5.66667 -16.11279,-5.66667z" fill="#00cc49" stroke="none" stroke-width="0" stroke-linecap="butt"/><path d="M-120.5,273.50001v-98h118.05267v98z" fill="url(#color-3)" stroke="none" stroke-width="0" stroke-linecap="butt"/><path d="M171.05267,260.68487l-14,-2.77422l-19,-1.84949l-142,1.84949v-82.30209h118.14403l14,1.84948l9,5.54845l7,7.39795l4,7.39793v22.19383l5,7.39794l18,14.79587l14,6.47321l7,2.77422l164,0.92475h6l7,6.4732l5,9.24742l1,12.02165l0.27391,15.9577c-1.12299,-0.95975 -2.33158,-1.82155 -3.61265,-2.5722c-9.88101,-8.40057 -17.30698,-17.86176 -29.3204,-21.59447c-0.05383,-3.25995 -121.06667,-2.99984 -132.14825,-3.02416z" data-paper-data="{&quot;index&quot;:null}" fill="url(#color-4)" stroke="#000000" stroke-width="0" stroke-linecap="butt"/><path d="M-120,274.50001v-91h117.55267v91z" fill="url(#color-5)" stroke="none" stroke-width="0" stroke-linecap="butt"/><path d="M200.05267,360.60857v-47l-3,-13l-8,-14l-7,-6l-11,-5l-14,-3l-19,-2l-142,2v-89h118.14403l14,2l9,6l7,8l4,8v24l5,8l18,16l14,7l7,3l164,1h6l7,7l5,10l1,13l1,63z" data-paper-data="{&quot;index&quot;:null}" fill="url(#color-6)" stroke="#000000" stroke-width="0" stroke-linecap="round"/><path d="M239.99937,267.10857c-0.38598,-0.02213 0.12413,-0.01526 0.75083,-0.00751c-0.25693,0.01712 -0.50805,0.02143 -0.75083,0.00751z" data-paper-data="{&quot;index&quot;:null}" fill="url(#color-7)" stroke="#000000" stroke-width="0" stroke-linecap="butt"/><path d="M239.99937,267.10857c-0.38598,-0.02213 0.12413,-0.01526 0.75083,-0.00751c-0.25693,0.01712 -0.50805,0.02143 -0.75083,0.00751z" data-paper-data="{&quot;index&quot;:null}" fill="url(#color-8)" stroke="#000000" stroke-width="0" stroke-linecap="butt"/><g stroke-linecap="butt"><path d="M246.0827,94.25002c0,0 0,-4.44135 0,-6.9c0,-0.81955 2.37797,-2.1 3.9,-2.1c13.46407,0 30.28516,0 34.5,0c1.40494,0 3.6,1.69752 3.6,2.4c0,2.10742 0,6.6 0,6.6z" fill="url(#color-9)" stroke="#000000" stroke-width="0"/><path d="M249.91603,91.91668c0,-1.38071 1.11929,-2.5 2.5,-2.5c1.38071,0 2.5,1.11929 2.5,2.5c0,1.38071 -1.11929,2.5 -2.5,2.5c-1.38071,0 -2.5,-1.11929 -2.5,-2.5z" fill="#ffffff" stroke="none" stroke-width="0.5"/><path d="M260.91603,89.25002c0,-1.38071 1.11929,-2.5 2.5,-2.5c1.38071,0 2.5,1.11929 2.5,2.5c0,1.38071 -1.11929,2.5 -2.5,2.5c-1.38071,0 -2.5,-1.11929 -2.5,-2.5z" fill="#ffffff" stroke="none" stroke-width="0.5"/><path d="M272.91603,90.25002c0,-1.38071 1.11929,-2.5 2.5,-2.5c1.38071,0 2.5,1.11929 2.5,2.5c0,1.38071 -1.11929,2.5 -2.5,2.5c-1.38071,0 -2.5,-1.11929 -2.5,-2.5z" fill="#ffffff" stroke="none" stroke-width="0.5"/><path d="M282.5827,89.58335c0,-1.38071 1.11929,-2.5 2.5,-2.5c1.38071,0 2.5,1.11929 2.5,2.5c0,1.38071 -1.11929,2.5 -2.5,2.5c-1.38071,0 -2.5,-1.11929 -2.5,-2.5z" fill="#ffffff" stroke="none" stroke-width="0.5"/><path d="M256.5827,87.58335c0,-0.82842 0.67158,-1.5 1.5,-1.5c0.82842,0 1.5,0.67158 1.5,1.5c0,0.82842 -0.67158,1.5 -1.5,1.5c-0.82842,0 -1.5,-0.67158 -1.5,-1.5z" fill="#ffffff" stroke="none" stroke-width="0.5"/><path d="M266.91603,91.91668c0,-0.82842 0.67158,-1.5 1.5,-1.5c0.82842,0 1.5,0.67158 1.5,1.5c0,0.82842 -0.67158,1.5 -1.5,1.5c-0.82842,0 -1.5,-0.67158 -1.5,-1.5z" fill="#ffffff" stroke="none" stroke-width="0.5"/><path d="M278.5827,86.58335c0,-0.82842 0.67158,-1.5 1.5,-1.5c0.82842,0 1.5,0.67158 1.5,1.5c0,0.82842 -0.67158,1.5 -1.5,1.5c-0.82842,0 -1.5,-0.67158 -1.5,-1.5z" fill="#ffffff" stroke="none" stroke-width="0.5"/><path d="M247.5827,88.58335c0,-0.82842 0.67157,-1.5 1.5,-1.5c0.82843,0 1.5,0.67158 1.5,1.5c0,0.82842 -0.67157,1.5 -1.5,1.5c-0.82843,0 -1.5,-0.67158 -1.5,-1.5z" fill="#ffffff" stroke="none" stroke-width="0.5"/><path d="M257.91603,91.91668c0,-0.82842 0.67158,-1.5 1.5,-1.5c0.82842,0 1.5,0.67158 1.5,1.5c0,0.82842 -0.67158,1.5 -1.5,1.5c-0.82842,0 -1.5,-0.67158 -1.5,-1.5z" fill="#ffffff" stroke="none" stroke-width="0.5"/><path d="M268.91603,87.25002c0,-0.82842 0.67158,-1.5 1.5,-1.5c0.82842,0 1.5,0.67158 1.5,1.5c0,0.82842 -0.67158,1.5 -1.5,1.5c-0.82842,0 -1.5,-0.67158 -1.5,-1.5z" fill="#ffffff" stroke="none" stroke-width="0.5"/></g><g stroke-linecap="butt"><path d="M291.70417,101.15068c0,0 0,-2.72855 0,-4.00848c0,-0.42664 1.33315,-1.45762 2.18644,-1.45762c2.55986,0 12.77606,0 20.95339,0c0.9244,0 2.36865,0.77768 2.36865,1.27542c0,1.49325 0,4.19067 0,4.19067z" fill="url(#color-10)" stroke="#000000" stroke-width="0"/><path d="M313.36613,101.2519c-0.83857,0 -1.51836,-0.67979 -1.51836,-1.51836c0,-0.83857 0.67979,-1.51836 1.51836,-1.51836c0.83857,0 1.51836,0.67979 1.51836,1.51836c0,0.83857 -0.6798,1.51836 -1.51836,1.51836z" fill="#ffffff" stroke="none" stroke-width="0.5"/><path d="M306.68534,99.63232c-0.83857,0 -1.51837,-0.67979 -1.51837,-1.51836c0,-0.83857 0.6798,-1.51837 1.51837,-1.51837c0.83857,0 1.51836,0.6798 1.51836,1.51837c0,0.83857 -0.6798,1.51836 -1.51836,1.51836z" fill="#ffffff" stroke="none" stroke-width="0.5"/><path d="M299.39721,100.23966c-0.83857,0 -1.51836,-0.6798 -1.51836,-1.51837c0,-0.83857 0.6798,-1.51836 1.51836,-1.51836c0.83857,0 1.51836,0.67979 1.51836,1.51836c0,0.83857 -0.6798,1.51837 -1.51836,1.51837z" fill="#ffffff" stroke="none" stroke-width="0.5"/><path d="M293.52619,99.83476c-0.83857,0 -1.51836,-0.67979 -1.51836,-1.51836c0,-0.83857 0.6798,-1.51836 1.51836,-1.51836c0.83857,0 1.51836,0.67979 1.51836,1.51836c0,0.83857 -0.6798,1.51836 -1.51836,1.51836z" fill="#ffffff" stroke="none" stroke-width="0.5"/><path d="M309.92451,98.01273c-0.50314,0 -0.91102,-0.40788 -0.91102,-0.91102c0,-0.50314 0.40788,-0.91101 0.91102,-0.91101c0.50314,0 0.91102,0.40787 0.91102,0.91101c0,0.50314 -0.40788,0.91102 -0.91102,0.91102z" fill="#ffffff" stroke="none" stroke-width="0.5"/><path d="M303.64862,100.64455c-0.50314,0 -0.91102,-0.40788 -0.91102,-0.91102c0,-0.50314 0.40788,-0.91102 0.91102,-0.91102c0.50314,0 0.91102,0.40788 0.91102,0.91102c0,0.50314 -0.40788,0.91102 -0.91102,0.91102z" fill="#ffffff" stroke="none" stroke-width="0.5"/><path d="M296.56293,97.40538c-0.50314,0 -0.91102,-0.40787 -0.91102,-0.91101c0,-0.50314 0.40788,-0.91102 0.91102,-0.91102c0.50314,0 0.91102,0.40788 0.91102,0.91102c0,0.50314 -0.40788,0.91101 -0.91102,0.91101z" fill="#ffffff" stroke="none" stroke-width="0.5"/><path d="M315.39061,98.62008c-0.50314,0 -0.91102,-0.40788 -0.91102,-0.91102c0,-0.50314 0.40788,-0.91102 0.91102,-0.91102c0.50314,0 0.91102,0.40788 0.91102,0.91102c0,0.50314 -0.40788,0.91102 -0.91102,0.91102z" fill="#ffffff" stroke="none" stroke-width="0.5"/><path d="M309.11472,100.64455c-0.50314,0 -0.91102,-0.40788 -0.91102,-0.91102c0,-0.50314 0.40788,-0.91102 0.91102,-0.91102c0.50314,0 0.91101,0.40788 0.91101,0.91102c0,0.50314 -0.40787,0.91102 -0.91101,0.91102z" fill="#ffffff" stroke="none" stroke-width="0.5"/><path d="M302.43393,97.81028c-0.50314,0 -0.91101,-0.40788 -0.91101,-0.91102c0,-0.50314 0.40787,-0.91101 0.91101,-0.91101c0.50314,0 0.91102,0.40787 0.91102,0.91101c0,0.50314 -0.40788,0.91102 -0.91102,0.91102z" fill="#ffffff" stroke="none" stroke-width="0.5"/></g><g stroke-linecap="butt"><path d="M313.70841,93.46894c0,0 0,-3.53802 0,-5.49661c0,-0.65286 1.89432,-1.67288 3.10678,-1.67288c10.72562,0 24.12547,0 27.48305,0c1.11919,0 2.8678,1.35226 2.8678,1.91186c0,1.67879 0,5.25763 0,5.25763z" fill="url(#color-11)" stroke="#000000" stroke-width="0"/><path d="M316.76208,91.61019c0,-1.09989 0.89164,-1.99152 1.99153,-1.99152c1.09989,0 1.99152,0.89163 1.99152,1.99152c0,1.09989 -0.89163,1.99152 -1.99152,1.99152c-1.09989,0 -1.99153,-0.89163 -1.99153,-1.99152z" fill="#ffffff" stroke="none" stroke-width="0.5"/><path d="M325.52479,89.48589c0,-1.09989 0.89164,-1.99152 1.99153,-1.99152c1.09989,0 1.99152,0.89163 1.99152,1.99152c0,1.09989 -0.89163,1.99153 -1.99152,1.99153c-1.09989,0 -1.99153,-0.89164 -1.99153,-1.99153z" fill="#ffffff" stroke="none" stroke-width="0.5"/><path d="M335.08411,90.2825c0,-1.09989 0.89163,-1.99152 1.99152,-1.99152c1.09989,0 1.99153,0.89163 1.99153,1.99152c0,1.09989 -0.89164,1.99153 -1.99153,1.99153c-1.09989,0 -1.99152,-0.89164 -1.99152,-1.99153z" fill="#ffffff" stroke="none" stroke-width="0.5"/><path d="M342.78468,89.75143c0,-1.09989 0.89164,-1.99152 1.99153,-1.99152c1.09989,0 1.99152,0.89163 1.99152,1.99152c0,1.09989 -0.89163,1.99153 -1.99152,1.99153c-1.09989,0 -1.99153,-0.89164 -1.99153,-1.99153z" fill="#ffffff" stroke="none" stroke-width="0.5"/><path d="M322.07282,88.15821c0,-0.65993 0.53499,-1.19491 1.19491,-1.19491c0.65993,0 1.19492,0.53498 1.19492,1.19491c0,0.65993 -0.53499,1.19492 -1.19492,1.19492c-0.65993,0 -1.19491,-0.53499 -1.19491,-1.19492z" fill="#ffffff" stroke="none" stroke-width="0.5"/><path d="M330.30445,91.61019c0,-0.65993 0.53499,-1.19491 1.19492,-1.19491c0.65993,0 1.19491,0.53498 1.19491,1.19491c0,0.65993 -0.53499,1.19492 -1.19491,1.19492c-0.65993,0 -1.19492,-0.53499 -1.19492,-1.19492z" fill="#ffffff" stroke="none" stroke-width="0.5"/><path d="M339.59824,87.3616c0,-0.65993 0.53499,-1.19492 1.19492,-1.19492c0.65993,0 1.19491,0.53499 1.19491,1.19492c0,0.65993 -0.53499,1.19491 -1.19491,1.19491c-0.65993,0 -1.19492,-0.53498 -1.19492,-1.19491z" fill="#ffffff" stroke="none" stroke-width="0.5"/><path d="M314.90332,88.95482c0,-0.65993 0.53499,-1.19491 1.19491,-1.19491c0.65993,0 1.19492,0.53498 1.19492,1.19491c0,0.65993 -0.53499,1.19492 -1.19492,1.19492c-0.65993,0 -1.19491,-0.53499 -1.19491,-1.19492z" fill="#ffffff" stroke="none" stroke-width="0.5"/><path d="M323.13496,91.61019c0,-0.65993 0.53499,-1.19491 1.19492,-1.19491c0.65993,0 1.19492,0.53498 1.19492,1.19491c0,0.65993 -0.53499,1.19492 -1.19492,1.19492c-0.65993,0 -1.19492,-0.53499 -1.19492,-1.19492z" fill="#ffffff" stroke="none" stroke-width="0.5"/><path d="M331.89767,87.89267c0,-0.65993 0.53499,-1.19492 1.19491,-1.19492c0.65993,0 1.19492,0.53499 1.19492,1.19492c0,0.65993 -0.53499,1.19491 -1.19492,1.19491c-0.65993,0 -1.19491,-0.53498 -1.19491,-1.19491z" fill="#ffffff" stroke="none" stroke-width="0.5"/></g><g data-paper-data="{&quot;index&quot;:null}" stroke-linecap="butt"><path d="M325.69804,169.50001v-17.09039h3.87382v17.09039z" fill="url(#color-12)" stroke="none" stroke-width="0"/><g><path d="M313.62084,155.59983c0,0 0,-3.0712 0,-4.51186c0,-0.48023 1.50058,-1.64068 2.46102,-1.64068c2.88133,0 14.38049,0 23.58475,0c1.04048,0 2.6661,0.87534 2.6661,1.43559c0,1.68077 0,4.71695 0,4.71695z" fill="url(#color-13)" stroke="#000000" stroke-width="0"/><path d="M338.00314,155.71374c-0.94387,0 -1.70904,-0.76516 -1.70904,-1.70904c0,-0.94388 0.76516,-1.70903 1.70904,-1.70903c0.94387,0 1.70904,0.76516 1.70904,1.70904c0,0.94388 -0.76517,1.70904 -1.70904,1.70904z" fill="#ffffff" stroke="none" stroke-width="0.5"/><path d="M330.48336,153.89079c-0.94387,0 -1.70904,-0.76516 -1.70904,-1.70904c0,-0.94388 0.76516,-1.70904 1.70904,-1.70904c0.94387,0 1.70904,0.76516 1.70904,1.70904c0,0.94388 -0.76517,1.70904 -1.70904,1.70904z" fill="#ffffff" stroke="none" stroke-width="0.5"/><path d="M322.27997,154.57441c-0.94387,0 -1.70904,-0.76516 -1.70904,-1.70904c0,-0.94388 0.76516,-1.70904 1.70904,-1.70904c0.94387,0 1.70904,0.76516 1.70904,1.70904c0,0.94388 -0.76516,1.70904 -1.70904,1.70904z" fill="#ffffff" stroke="none" stroke-width="0.5"/><path d="M315.67169,154.11864c-0.94387,0 -1.70904,-0.76516 -1.70904,-1.70904c0,-0.94388 0.76517,-1.70904 1.70904,-1.70904c0.94387,0 1.70904,0.76516 1.70904,1.70904c0,0.94388 -0.76516,1.70904 -1.70904,1.70904z" fill="#ffffff" stroke="none" stroke-width="0.5"/><path d="M334.12931,152.06782c-0.56633,0 -1.02542,-0.4591 -1.02542,-1.02543c0,-0.56633 0.45909,-1.02542 1.02542,-1.02542c0.56633,0 1.02543,0.4591 1.02543,1.02542c0,0.56633 -0.4591,1.02543 -1.02543,1.02543z" fill="#ffffff" stroke="none" stroke-width="0.5"/><path d="M327.06529,155.03015c-0.56633,0 -1.02543,-0.4591 -1.02543,-1.02542c0,-0.56633 0.4591,-1.02542 1.02543,-1.02542c0.56633,0 1.02542,0.45909 1.02542,1.02542c0,0.56633 -0.45909,1.02542 -1.02542,1.02542z" fill="#ffffff" stroke="none" stroke-width="0.5"/><path d="M319.08977,151.3842c-0.56633,0 -1.02542,-0.45909 -1.02542,-1.02542c0,-0.56633 0.4591,-1.02542 1.02542,-1.02542c0.56633,0 1.02542,0.4591 1.02542,1.02542c0,0.56633 -0.45909,1.02542 -1.02542,1.02542z" fill="#ffffff" stroke="none" stroke-width="0.5"/><path d="M340.28186,152.75143c-0.56633,0 -1.02542,-0.4591 -1.02542,-1.02542c0,-0.56633 0.4591,-1.02542 1.02542,-1.02542c0.56633,0 1.02542,0.4591 1.02542,1.02542c0,0.56633 -0.45909,1.02542 -1.02542,1.02542z" fill="#ffffff" stroke="none" stroke-width="0.5"/><path d="M333.21783,155.03015c-0.56633,0 -1.02542,-0.4591 -1.02542,-1.02542c0,-0.56633 0.4591,-1.02542 1.02542,-1.02542c0.56633,0 1.02542,0.45909 1.02542,1.02542c0,0.56633 -0.4591,1.02542 -1.02542,1.02542z" fill="#ffffff" stroke="none" stroke-width="0.5"/><path d="M325.69804,151.83994c-0.56633,0 -1.02542,-0.4591 -1.02542,-1.02542c0,-0.56633 0.45909,-1.02542 1.02542,-1.02542c0.56633,0 1.02542,0.45909 1.02542,1.02542c0,0.56633 -0.4591,1.02542 -1.02542,1.02542z" fill="#ffffff" stroke="none" stroke-width="0.5"/></g></g><g stroke-linecap="butt"><path d="M281.9697,177.25002v-20.55085h4.6582v20.55085z" fill="url(#color-14)" stroke="none" stroke-width="0"/><g><path d="M266.62507,160.53533c0,0 0,-3.65093 0,-5.67203c0,-0.67369 1.95478,-1.72627 3.20594,-1.72627c11.06792,0 24.89542,0 28.36016,0c1.15492,0 2.95932,1.39542 2.95932,1.97288c0,1.73237 0,5.42542 0,5.42542z" fill="url(#color-15)" stroke="#000000" stroke-width="0"/><path d="M269.77619,158.61725c0,-1.135 0.92008,-2.05509 2.05508,-2.05509c1.135,0 2.05509,0.92009 2.05509,2.05509c0,1.135 -0.92009,2.05508 -2.05509,2.05508c-1.135,0 -2.05508,-0.92009 -2.05508,-2.05508z" fill="#ffffff" stroke="none" stroke-width="0.5"/><path d="M278.81858,156.42514c0,-1.135 0.92009,-2.05508 2.05508,-2.05508c1.135,0 2.05508,0.92009 2.05508,2.05508c0,1.13499 -0.92009,2.05509 -2.05508,2.05509c-1.135,0 -2.05508,-0.92009 -2.05508,-2.05509z" fill="#ffffff" stroke="none" stroke-width="0.5"/><path d="M288.68298,157.24719c0,-1.135 0.92009,-2.05508 2.05509,-2.05508c1.135,0 2.05508,0.92009 2.05508,2.05508c0,1.135 -0.92008,2.05509 -2.05508,2.05509c-1.135,0 -2.05509,-0.92009 -2.05509,-2.05509z" fill="#ffffff" stroke="none" stroke-width="0.5"/><path d="M296.62931,156.69915c0,-1.135 0.9201,-2.05509 2.05509,-2.05509c1.135,0 2.05509,0.92009 2.05509,2.05509c0,1.135 -0.92009,2.05508 -2.05509,2.05508c-1.135,0 -2.05509,-0.92009 -2.05509,-2.05508z" fill="#ffffff" stroke="none" stroke-width="0.5"/><path d="M275.25642,155.05511c0,-0.68099 0.55206,-1.23305 1.23305,-1.23305c0.68099,0 1.23305,0.55206 1.23305,1.23305c0,0.68099 -0.55206,1.23305 -1.23305,1.23305c-0.68099,0 -1.23305,-0.55206 -1.23305,-1.23305z" fill="#ffffff" stroke="none" stroke-width="0.5"/><path d="M283.75077,158.61725c0,-0.68099 0.55206,-1.23305 1.23305,-1.23305c0.68099,0 1.23305,0.55206 1.23305,1.23305c0,0.68099 -0.55206,1.23305 -1.23305,1.23305c-0.68099,0 -1.23305,-0.55206 -1.23305,-1.23305z" fill="#ffffff" stroke="none" stroke-width="0.5"/><path d="M293.34117,154.23307c0,-0.68099 0.55206,-1.23305 1.23305,-1.23305c0.68099,0 1.23305,0.55206 1.23305,1.23305c0,0.68099 -0.55206,1.23305 -1.23305,1.23305c-0.68099,0 -1.23305,-0.55206 -1.23305,-1.23305z" fill="#ffffff" stroke="none" stroke-width="0.5"/><path d="M267.85812,155.87714c0,-0.68099 0.55206,-1.23305 1.23305,-1.23305c0.68099,0 1.23305,0.55206 1.23305,1.23305c0,0.68099 -0.55206,1.23305 -1.23305,1.23305c-0.68099,0 -1.23305,-0.55206 -1.23305,-1.23305z" fill="#ffffff" stroke="none" stroke-width="0.5"/><path d="M276.35247,158.61725c0,-0.68099 0.55206,-1.23305 1.23305,-1.23305c0.68099,0 1.23306,0.55206 1.23306,1.23305c0,0.68099 -0.55207,1.23305 -1.23306,1.23305c-0.68099,0 -1.23305,-0.55206 -1.23305,-1.23305z" fill="#ffffff" stroke="none" stroke-width="0.5"/><path d="M285.39484,154.78107c0,-0.68099 0.55206,-1.23305 1.23305,-1.23305c0.68099,0 1.23305,0.55206 1.23305,1.23305c0,0.68099 -0.55206,1.23305 -1.23305,1.23305c-0.68099,0 -1.23305,-0.55206 -1.23305,-1.23305z" fill="#ffffff" stroke="none" stroke-width="0.5"/></g></g><g stroke="#c4872d" stroke-width="1" stroke-linecap="butt"><path d="M18.43874,94.15148v-10.85775h98.34947v10.85775z" fill="url(#color-16)"/><path d="M72.98607,110.73898v-31.27312l8.77548,-7.66295l8.55047,7.66295v31.27312z" fill="url(#color-17)"/><path d="M101.39587,110.63543v-31.27312l8.77548,-7.66295l8.55047,7.66295v31.27312z" fill="url(#color-18)"/><path d="M16.16646,110.73898v-31.27312l8.77548,-7.66295l8.55046,7.66295v31.27312z" fill="url(#color-19)"/><path d="M44.46376,110.73898v-31.27312l8.77548,-7.66295l8.55047,7.66295v31.27312z" fill="url(#color-20)"/></g><g stroke="#c4872d" stroke-width="0" stroke-linecap="butt"><path d="M145.59933,259.38246c0,-10.36691 8.40404,-18.77094 18.77094,-18.77094c10.36691,0 18.77094,8.40404 18.77094,18.77094c0,4.24526 0.26657,32.5417 0.26657,32.5417c0,0 -11.47513,3.1244 -19.03752,3.15112c-7.56239,0.02673 -18.73624,-3.01763 -18.73624,-3.01763c0,0 -0.03471,-22.30828 -0.03471,-32.67519z" fill="url(#color-21)"/><path d="M145.61109,277.82804c5.45914,0.38471 11.50427,0.44641 20.0928,0.15994c6.20357,-0.20692 11.74378,-0.86619 17.53195,-2.21995c0.02065,3.09177 0.04265,6.30459 0.06378,9.3489c-11.40143,1.91824 -22.44842,3.89598 -34.34933,1.6415c-1.11219,-0.21069 -2.22259,-0.42995 -3.33139,-0.6568c-0.00261,-2.648 -0.0053,-5.46552 -0.0078,-8.2736z" fill="url(#color-22)"/><path d="M183.14123,259.38247c0,1.04861 0.01627,4.08126 0.04076,8.05382c-0.76345,0.20206 -1.53423,0.38157 -2.29595,0.58709c-1.00193,0.27032 -2.00033,0.56386 -3.02032,0.75508c-9.04958,1.69661 -21.19612,1.87621 -29.77273,1.018c-0.83001,-0.08306 -1.65956,-0.16991 -2.48871,-0.26027c-0.00246,-3.35742 -0.00422,-6.39942 -0.00476,-8.74357c3.44341,0.12416 6.89243,-0.0569 10.33807,-0.00973c3.07654,0.04213 6.1501,0.21924 9.22649,0.27137c3.77395,0.06396 7.40738,-1.45898 11.09241,-2.27587c1.54572,-0.34265 4.0977,-1.07224 6.67804,-2.19121c0.13616,0.91198 0.20671,1.84539 0.20671,2.79528z" fill="url(#color-23)"/><path d="M164.37028,240.61152c6.4856,0 12.20297,3.2892 15.57497,8.29046c-0.17616,0.06783 -0.34923,0.13628 -0.51673,0.20722c-3.62433,1.53491 -11.44841,3.43998 -14.52223,3.7398c-2.95673,0.28839 -5.93772,-0.25608 -8.90848,-0.26025c-3.03754,-0.00425 -6.07719,-0.10592 -9.11354,-0.04566c2.73405,-6.98477 9.53234,-11.93157 17.486,-11.93157z" fill="url(#color-24)"/></g><g stroke="#c4872d" stroke-width="1" stroke-linecap="butt"><path d="M-17.56126,271.65146v-10.85775h98.34946v10.85775z" fill="url(#color-25)"/><path d="M36.98607,288.23898v-31.27312l8.77548,-7.66295l8.55047,7.66295v31.27312z" fill="url(#color-26)"/><path d="M65.39587,288.13543v-31.27312l8.77548,-7.66295l8.55047,7.66295v31.27312z" fill="url(#color-27)"/><path d="M-19.83354,288.23898v-31.27312l8.77548,-7.66295l8.55046,7.66295v31.27312z" fill="url(#color-28)"/><path d="M8.46376,288.23898v-31.27312l8.77548,-7.66295l8.55047,7.66295v31.27312z" fill="url(#color-29)"/></g><g stroke="#c4872d" stroke-width="0" stroke-linecap="butt"><path d="M93.30267,247.24444c0,-11.27132 9.13721,-20.40853 20.40853,-20.40853c11.27132,0 20.40853,9.13721 20.40853,20.40853c0,4.61562 0.28983,44.58663 0.28983,44.58663c0,0 -12.47623,3.39697 -20.69836,3.42603c-8.22214,0.02906 -20.37081,-3.28089 -20.37081,-3.28089c0,0 -0.03774,-33.46045 -0.03774,-44.73178z" fill="url(#color-30)"/><path d="M93.31545,267.29922c5.9354,0.41827 12.50791,0.48536 21.8457,0.17389c6.74477,-0.22497 12.76832,-0.94175 19.06145,-2.41362c0.02245,3.3615 0.04637,6.8546 0.06934,10.1645c-12.3961,2.08559 -24.40684,4.23586 -37.34599,1.78471c-1.20922,-0.22907 -2.41649,-0.46746 -3.62202,-0.7141c-0.00284,-2.87901 -0.00576,-5.94234 -0.00849,-8.9954z" fill="url(#color-31)"/><path d="M134.40956,291.83108c0,0 -12.47622,3.39697 -20.69836,3.42603c-8.22214,0.02906 -20.37081,-3.28089 -20.37081,-3.28089c0,0 -0.00297,-2.63259 -0.00724,-6.66965c0.63895,0.15265 1.27793,0.30516 1.91694,0.4575c12.61536,3.00749 26.59316,1.0123 39.10522,-1.51184c0.03208,4.52138 0.05425,7.57885 0.05425,7.57885z" fill="url(#color-32)"/><path d="M134.11974,247.24444c0,1.14009 0.01768,4.43731 0.04431,8.75644c-0.83005,0.21968 -1.66808,0.41486 -2.49625,0.6383c-1.08934,0.2939 -2.17484,0.61305 -3.28382,0.82096c-9.83907,1.84462 -23.04529,2.03989 -32.37013,1.10681c-0.90242,-0.0903 -1.80435,-0.18474 -2.70582,-0.28297c-0.00267,-3.65033 -0.00458,-6.95771 -0.00518,-9.50636c3.74382,0.13499 7.49373,-0.06187 11.23997,-0.01057c3.34494,0.0458 6.68664,0.23836 10.03141,0.29504c4.10319,0.06953 8.0536,-1.58626 12.06012,-2.47442c1.68056,-0.37254 4.45519,-1.16578 7.26063,-2.38237c0.14804,0.99154 0.22475,2.00638 0.22475,3.03914z" fill="url(#color-33)"/><path d="M113.71121,226.8359c7.05141,0 13.26756,3.57615 16.93374,9.01373c-0.19153,0.07374 -0.3797,0.14817 -0.56181,0.2253c-3.94052,1.66881 -12.44718,3.74009 -15.78916,4.06606c-3.21467,0.31355 -6.45574,-0.27842 -9.68566,-0.28295c-3.30253,-0.00462 -6.60737,-0.11516 -9.90861,-0.04965c2.97258,-7.59412 10.36394,-12.97249 19.0115,-12.97249z" fill="url(#color-34)"/></g><g stroke="#c4872d" stroke-width="0" stroke-linecap="butt"><path d="M427.30267,296.24442c0,-11.27132 9.13722,-20.40853 20.40854,-20.40853c11.27132,0 20.40853,9.13722 20.40853,20.40853c0,4.61563 0.28983,44.58663 0.28983,44.58663c0,0 -12.47622,3.39697 -20.69836,3.42603c-8.22214,0.02906 -20.37081,-3.28089 -20.37081,-3.28089c0,0 -0.03774,-33.46044 -0.03774,-44.73178z" fill="url(#color-35)"/><path d="M427.31545,316.29922c5.93541,0.41827 12.5079,0.48536 21.84571,0.1739c6.74477,-0.22497 12.76831,-0.94176 19.06145,-2.41361c0.02245,3.3615 0.04637,6.8546 0.06934,10.1645c-12.3961,2.08558 -24.40683,4.23587 -37.34599,1.78471c-1.20922,-0.22908 -2.41649,-0.46746 -3.62202,-0.71409c-0.00284,-2.87901 -0.00576,-5.94234 -0.00849,-8.9954z" fill="url(#color-36)"/><path d="M468.40957,340.83108c0,0 -12.47622,3.39697 -20.69836,3.42603c-8.22214,0.02906 -20.37081,-3.28089 -20.37081,-3.28089c0,0 -0.00297,-2.63259 -0.00724,-6.66965c0.63894,0.15265 1.27793,0.30516 1.91694,0.45749c12.61536,3.0075 26.59316,1.01229 39.10522,-1.51184c0.03207,4.52137 0.05424,7.57886 0.05424,7.57886z" fill="url(#color-37)"/><path d="M468.11975,296.24445c0,1.1401 0.01768,4.43731 0.04431,8.75644c-0.83005,0.21969 -1.66807,0.41487 -2.49625,0.63831c-1.08934,0.2939 -2.17485,0.61304 -3.28382,0.82095c-9.83907,1.84462 -23.04528,2.03989 -32.37012,1.10681c-0.90242,-0.0903 -1.80435,-0.18473 -2.70583,-0.28297c-0.00268,-3.65033 -0.00459,-6.95771 -0.00518,-9.50637c3.74382,0.13499 7.49373,-0.06187 11.23996,-0.01058c3.34494,0.0458 6.68664,0.23837 10.03141,0.29505c4.10319,0.06953 8.0536,-1.58627 12.06012,-2.47442c1.68057,-0.37255 4.45519,-1.16578 7.26064,-2.38237c0.14803,0.99153 0.22475,2.00639 0.22475,3.03915z" fill="url(#color-38)"/><path d="M447.71121,275.83591c7.05141,0 13.26756,3.57615 16.93374,9.01373c-0.19153,0.07374 -0.3797,0.14817 -0.56181,0.2253c-3.94052,1.66881 -12.44718,3.74009 -15.78916,4.06606c-3.21467,0.31356 -6.45574,-0.27842 -9.68566,-0.28295c-3.30253,-0.00462 -6.60737,-0.11515 -9.90861,-0.04964c2.97258,-7.59413 10.36395,-12.97249 19.0115,-12.97249z" fill="url(#color-39)"/></g><g stroke="#c4872d" stroke-width="0" stroke-linecap="butt"><path d="M369.59934,83.38245c0,-10.36691 8.40404,-18.77094 18.77094,-18.77094c10.36691,0 18.77094,8.40404 18.77094,18.77094c0,4.24527 0.26657,32.5417 0.26657,32.5417c0,0 -11.47513,3.12439 -19.03751,3.15112c-7.56239,0.02673 -18.73624,-3.01762 -18.73624,-3.01762c0,0 -0.03471,-22.30828 -0.03471,-32.6752z" fill="url(#color-40)"/><path d="M369.61109,101.82806c5.45915,0.3847 11.50427,0.44641 20.0928,0.15994c6.20357,-0.20693 11.74378,-0.86618 17.53195,-2.21994c0.02065,3.09177 0.04264,6.30459 0.06378,9.3489c-11.40143,1.91823 -22.44842,3.89598 -34.34933,1.6415c-1.11219,-0.21069 -2.22258,-0.42995 -3.33139,-0.65679c-0.00261,-2.648 -0.0053,-5.46553 -0.00781,-8.2736z" fill="url(#color-41)"/><path d="M407.14123,83.38245c0,1.04861 0.01627,4.08126 0.04075,8.05382c-0.76345,0.20205 -1.53423,0.38157 -2.29595,0.58709c-1.00193,0.27032 -2.00034,0.56386 -3.02032,0.75509c-9.04958,1.6966 -21.19613,1.87621 -29.77274,1.018c-0.83001,-0.08306 -1.65957,-0.16992 -2.4887,-0.26027c-0.00246,-3.35742 -0.00422,-6.39942 -0.00476,-8.74356c3.44341,0.12416 6.89243,-0.05691 10.33807,-0.00973c3.07653,0.04212 6.1501,0.21924 9.22648,0.27137c3.77395,0.06396 7.40738,-1.45898 11.09242,-2.27587c1.54571,-0.34265 4.0977,-1.07224 6.67804,-2.19121c0.13616,0.91197 0.20671,1.84539 0.20671,2.79528z" fill="url(#color-42)"/><path d="M388.37029,64.6115c6.4856,0 12.20297,3.2892 15.57497,8.29046c-0.17616,0.06782 -0.34924,0.13628 -0.51673,0.20722c-3.62433,1.53491 -11.44841,3.43999 -14.52222,3.7398c-2.24499,0.21897 -7.68252,-0.25853 -8.90848,-0.26025c-3.03753,-0.00426 -6.07719,-0.10592 -9.11354,-0.04566c2.73406,-6.98477 9.53233,-11.93157 17.486,-11.93157z" fill="url(#color-43)"/></g><g stroke="#c4872d" stroke-width="0" stroke-linecap="butt"><path d="M424.91532,119.93323c0,-11.65173 9.4456,-21.09732 21.09732,-21.09732c11.65173,0 21.09732,9.4456 21.09732,21.09732c0,4.7714 0.29961,46.09142 0.29961,46.09142c0,0 -12.8973,3.51162 -21.39693,3.54166c-8.49964,0.03004 -21.05832,-3.39161 -21.05832,-3.39161c0,0 -0.03901,-34.58973 -0.03901,-46.24147z" fill="url(#color-44)"/><path d="M424.92853,140.66485c6.13572,0.43239 12.93005,0.50174 22.583,0.17976c6.97241,-0.23257 13.19924,-0.97354 19.70477,-2.49507c0.0232,3.47495 0.04793,7.08595 0.07168,10.50755c-12.81446,2.15597 -25.23056,4.37883 -38.60641,1.84494c-1.25003,-0.23681 -2.49805,-0.48324 -3.74426,-0.7382c-0.00294,-2.97618 -0.00595,-6.14289 -0.00877,-9.29899z" fill="url(#color-45)"/><path d="M467.40957,166.02466c0,0 -12.89729,3.51162 -21.39693,3.54166c-8.49964,0.03004 -21.05832,-3.39162 -21.05832,-3.39162c0,0 -0.00308,-2.72143 -0.00749,-6.89475c0.66051,0.1578 1.32106,0.31545 1.98164,0.47294c13.04112,3.109 27.49067,1.04645 40.42502,-1.56286c0.03316,4.67397 0.05608,7.83464 0.05608,7.83464z" fill="url(#color-46)"/><path d="M467.10996,119.93323c0,1.17857 0.01828,4.58707 0.04581,9.05197c-0.85806,0.2271 -1.72437,0.42887 -2.5805,0.65985c-1.12611,0.30382 -2.24825,0.63374 -3.39464,0.84866c-10.17114,1.90688 -23.82306,2.10874 -33.46261,1.14416c-0.93288,-0.09335 -1.86525,-0.19097 -2.79715,-0.29252c-0.00277,-3.77353 -0.00474,-7.19254 -0.00535,-9.8272c3.87017,0.13955 7.74664,-0.06396 11.61931,-0.01093c3.45783,0.04735 6.91231,0.24641 10.36997,0.305c4.24167,0.07188 8.32541,-1.6398 12.46715,-2.55793c1.73728,-0.38512 4.60555,-1.20512 7.50568,-2.46277c0.15303,1.025 0.23234,2.0741 0.23234,3.14172z" fill="url(#color-47)"/><path d="M446.01264,98.8359c7.28939,0 13.71534,3.69684 17.50525,9.31794c-0.19799,0.07623 -0.39251,0.15317 -0.58077,0.2329c-4.07351,1.72514 -12.86728,3.86632 -16.32204,4.20329c-3.32317,0.32414 -6.67362,-0.28782 -10.01255,-0.2925c-3.414,-0.00478 -6.83036,-0.11904 -10.24302,-0.05132c3.0729,-7.85043 10.71373,-13.41031 19.65313,-13.41031z" fill="url(#color-48)"/></g><g stroke="#c4872d" stroke-width="0" stroke-linecap="butt"><path d="M68.30267,-21.79555c0,-19.49718 15.80559,-35.30277 35.30277,-35.30277c19.49718,0 35.30277,15.80559 35.30277,35.30277c0,7.98413 0.50134,77.12614 0.50134,77.12614c0,0 -21.58143,5.87609 -35.80411,5.92636c-14.22269,0.05027 -35.23751,-5.67529 -35.23751,-5.67529c0,0 -0.06528,-57.88002 -0.06528,-77.37722z" fill="url(#color-49)"/><path d="M68.32478,12.89532c10.26709,0.72353 21.63623,0.83958 37.78879,0.3008c11.66713,-0.38916 22.08669,-1.62905 32.97258,-4.17508c0.03883,5.81474 0.08021,11.85713 0.11994,17.5826c-21.44282,3.60765 -42.21905,7.32722 -64.60125,3.0872c-2.09171,-0.39625 -4.18005,-0.80861 -6.26539,-1.23524c-0.00491,-4.98013 -0.00996,-10.27909 -0.01468,-15.56027z" fill="url(#color-50)"/><path d="M139.40956,55.3306c0,0 -21.58142,5.8761 -35.80411,5.92636c-14.22269,0.05026 -35.23751,-5.6753 -35.23751,-5.6753c0,0 -0.00515,-4.55386 -0.01253,-11.53719c1.10525,0.26405 2.21057,0.52786 3.31594,0.79138c21.8221,5.20238 46.00095,1.75106 67.64438,-2.61519c0.05548,7.82109 0.09383,13.10994 0.09383,13.10994z" fill="url(#color-51)"/><path d="M138.90822,-21.79554c0,1.97214 0.03058,7.67568 0.07665,15.14693c-1.43582,0.38001 -2.88544,0.71764 -4.31802,1.10414c-1.88435,0.5084 -3.76206,1.06045 -5.68036,1.42009c-17.01967,3.19083 -39.86383,3.52861 -55.99398,1.91456c-1.56101,-0.1562 -3.12117,-0.31956 -4.68055,-0.48948c-0.00463,-6.31436 -0.00793,-12.03549 -0.00895,-16.44415c6.47608,0.23351 12.96269,-0.10702 19.44294,-0.01829c5.78608,0.07923 11.56658,0.41232 17.35238,0.51037c7.09772,0.12028 13.93115,-2.74393 20.86165,-4.28026c2.90705,-0.64443 7.70661,-2.01657 12.55948,-4.12103c0.25607,1.71516 0.38877,3.47065 0.38877,5.25713z" fill="url(#color-52)"/><path d="M103.60546,-57.09832c12.19756,0 22.95029,6.18604 29.29206,15.59199c-0.33131,0.12756 -0.6568,0.25631 -0.97182,0.38972c-6.81633,2.88672 -21.53119,6.46963 -27.31216,7.03349c-5.56076,0.54239 -11.16716,-0.48162 -16.7543,-0.48945c-5.71274,-0.008 -11.42945,-0.1992 -17.13995,-0.08588c5.14197,-13.13635 17.9276,-22.43987 32.88617,-22.43987z" fill="url(#color-53)"/></g><g stroke-width="1" stroke-linecap="butt"><path d="M104.77559,359.09453v-21.94696h5.81727v21.94696z" fill="url(#color-54)" stroke="#5b5b5b"/><path d="M98.52971,334.95959c0,-4.93557 4.00108,-8.93665 8.93665,-8.93665c4.93557,0 8.93665,4.00108 8.93665,8.93665c0,3.96744 2.53326,8.19119 2.53326,8.19119c0,0 -11.22521,1.85834 -11.94233,1.84778c-4.71559,-0.0695 -10.61397,-1.85597 -10.61397,-1.85597c0,0 2.14974,-3.24742 2.14974,-8.18299z" fill="#ffd210" stroke="#bd9b0b"/><path d="M115.84458,332.34175c0,0.93142 0.42831,2.11176 0.42831,2.11176c0,0 -6.29769,1.01268 -8.75497,1.01268c-2.94244,0 -8.6543,-1.01993 -8.6543,-1.01993c0,0 0.29316,-1.6502 0.41578,-2.19264c0.26442,-1.16971 0.98938,-2.10593 0.98938,-2.10593c0,0 4.87973,1.17149 7.17356,1.17149c2.29382,0 7.26411,-1.02809 7.26411,-1.02809c0,0 1.13813,0.74755 1.13813,2.05067z" fill="#dbb50d" stroke="none"/><path d="M117.96464,341.88929c0,0 -7.7676,1.53683 -10.47577,1.53683c-3.24286,0 -10.08668,-1.68002 -10.08668,-1.68002c0,0 0.30122,-1.48694 0.82139,-2.50639c0.03894,-0.07632 0.36926,-1.4584 0.36926,-1.4584c0,0 6.50765,1.49959 9.03566,1.49959c2.52801,0 9.11649,-1.58164 9.11649,-1.58164c0,0 -0.28968,0.59603 0.24446,1.6271z" fill="#dbb50d" stroke="none"/></g><g stroke-width="1" stroke-linecap="butt"><path d="M156.10892,367.42787v-21.94696h5.81727v21.94696z" fill="url(#color-55)" stroke="#5b5b5b"/><path d="M149.86304,343.29295c0,-4.93557 4.00107,-8.93665 8.93665,-8.93665c4.93557,0 8.93665,4.00107 8.93665,8.93665c0,3.96744 2.53326,8.19119 2.53326,8.19119c0,0 -11.22521,1.85834 -11.94233,1.84778c-4.71559,-0.0695 -10.61397,-1.85597 -10.61397,-1.85597c0,0 2.14974,-3.24742 2.14974,-8.183z" fill="#ffd210" stroke="#bd9b0b"/><path d="M167.17791,340.67508c0,0.93142 0.42832,2.11176 0.42832,2.11176c0,0 -6.29769,1.01268 -8.75497,1.01268c-2.94244,0 -8.6543,-1.01993 -8.6543,-1.01993c0,0 0.29316,-1.6502 0.41578,-2.19264c0.26442,-1.16971 0.98938,-2.10593 0.98938,-2.10593c0,0 4.87973,1.17149 7.17356,1.17149c2.29382,0 7.26411,-1.02809 7.26411,-1.02809c0,0 1.13813,0.74755 1.13813,2.05067z" fill="#dbb50d" stroke="none"/><path d="M169.29798,350.22262c0,0 -7.76759,1.53683 -10.47576,1.53683c-3.24285,0 -10.08668,-1.68002 -10.08668,-1.68002c0,0 0.30122,-1.48694 0.82138,-2.50639c0.03894,-0.07632 0.36926,-1.4584 0.36926,-1.4584c0,0 6.50765,1.49959 9.03567,1.49959c2.52802,0 9.11648,-1.58164 9.11648,-1.58164c0,0 -0.28968,0.59602 0.24446,1.6271z" fill="#dbb50d" stroke="none"/></g><g stroke-width="1" stroke-linecap="butt"><path d="M400.44226,353.7612v-21.94696h5.81727v21.94696z" fill="url(#color-56)" stroke="#5b5b5b"/><path d="M394.19637,329.62628c0,-4.93557 4.00108,-8.93665 8.93665,-8.93665c4.93557,0 8.93665,4.00108 8.93665,8.93665c0,3.96744 2.53326,8.19119 2.53326,8.19119c0,0 -11.22521,1.85834 -11.94233,1.84778c-4.71559,-0.0695 -10.61397,-1.85597 -10.61397,-1.85597c0,0 2.14974,-3.24742 2.14974,-8.183z" fill="#ffd210" stroke="#bd9b0b"/><path d="M411.51124,327.00841c0,0.93142 0.42831,2.11176 0.42831,2.11176c0,0 -6.29768,1.01268 -8.75497,1.01268c-2.94244,0 -8.65431,-1.01993 -8.65431,-1.01993c0,0 0.29316,-1.6502 0.41578,-2.19264c0.26442,-1.16971 0.98938,-2.10593 0.98938,-2.10593c0,0 4.87973,1.17148 7.17355,1.17148c2.29382,0 7.26411,-1.02809 7.26411,-1.02809c0,0 1.13813,0.74755 1.13813,2.05067z" fill="#dbb50d" stroke="none"/><path d="M413.63131,336.55595c0,0 -7.7676,1.53682 -10.47577,1.53682c-3.24286,0 -10.08668,-1.68002 -10.08668,-1.68002c0,0 0.30122,-1.48694 0.82139,-2.50639c0.03894,-0.07632 0.36926,-1.4584 0.36926,-1.4584c0,0 6.50765,1.49959 9.03566,1.49959c2.52801,0 9.11649,-1.58164 9.11649,-1.58164c0,0 -0.28968,0.59602 0.24446,1.6271z" fill="#dbb50d" stroke="none"/></g><g stroke-width="1" stroke-linecap="butt"><path d="M331.44226,209.42786v-21.94696h5.81727v21.94696z" fill="url(#color-57)" stroke="#5b5b5b"/><path d="M325.19637,185.29294c0,-4.93557 4.00108,-8.93665 8.93665,-8.93665c4.93557,0 8.93665,4.00107 8.93665,8.93665c0,3.96744 2.53326,8.19119 2.53326,8.19119c0,0 -11.22521,1.85835 -11.94233,1.84778c-4.71559,-0.06949 -10.61397,-1.85597 -10.61397,-1.85597c0,0 2.14974,-3.24742 2.14974,-8.183z" fill="#ffd210" stroke="#bd9b0b"/><path d="M342.51124,182.67508c0,0.93142 0.42831,2.11176 0.42831,2.11176c0,0 -6.29768,1.01268 -8.75497,1.01268c-2.94244,0 -8.65431,-1.01993 -8.65431,-1.01993c0,0 0.29316,-1.6502 0.41578,-2.19264c0.26442,-1.16971 0.98938,-2.10593 0.98938,-2.10593c0,0 4.87973,1.17148 7.17355,1.17148c2.29382,0 7.26411,-1.02809 7.26411,-1.02809c0,0 1.13813,0.74755 1.13813,2.05067z" fill="#dbb50d" stroke="none"/><path d="M344.63131,192.22262c0,0 -7.7676,1.53683 -10.47577,1.53683c-3.24286,0 -10.08668,-1.68002 -10.08668,-1.68002c0,0 0.30122,-1.48694 0.82139,-2.50639c0.03894,-0.07632 0.36926,-1.4584 0.36926,-1.4584c0,0 6.50765,1.49959 9.03566,1.49959c2.52801,0 9.11649,-1.58164 9.11649,-1.58164c0,0 -0.28968,0.59603 0.24446,1.6271z" fill="#dbb50d" stroke="none"/></g><g stroke-width="1.5" stroke-linecap="butt"><path d="M194.66061,205.7612v-32.97413h8.74013v32.97413z" fill="url(#color-58)" stroke="#5b5b5b"/><path d="M185.2765,169.49977c0,-7.41543 6.0114,-13.42684 13.42684,-13.42684c7.41543,0 13.42684,6.0114 13.42684,13.42684c0,5.96087 3.80609,12.30682 3.80609,12.30682c0,0 -16.86528,2.79206 -17.94271,2.77618c-7.08492,-0.10441 -15.94692,-2.7885 -15.94692,-2.7885c0,0 3.22988,-4.87907 3.22988,-12.29451z" fill="#ffd210" stroke="#bd9b0b"/><path d="M211.29116,165.56657c0,1.39941 0.64352,3.17281 0.64352,3.17281c0,0 -9.46193,1.52149 -13.15387,1.52149c-4.42086,0 -13.00263,-1.53239 -13.00263,-1.53239c0,0 0.44046,-2.47934 0.62469,-3.29432c0.39728,-1.75743 1.48649,-3.16405 1.48649,-3.16405c0,0 7.33153,1.76009 10.77788,1.76009c3.44634,0 10.91394,-1.54465 10.91394,-1.54465c0,0 1.70998,1.12315 1.70998,3.08102z" fill="#dbb50d" stroke="none"/><path d="M214.47645,179.91124c0,0 -11.6704,2.309 -15.73928,2.309c-4.87222,0 -15.1547,-2.52414 -15.1547,-2.52414c0,0 0.45257,-2.23406 1.23409,-3.76572c0.05851,-0.11467 0.55479,-2.19117 0.55479,-2.19117c0,0 9.7774,2.25305 13.5756,2.25305c3.79821,0 13.69703,-2.37632 13.69703,-2.37632c0,0 -0.43523,0.8955 0.36729,2.44463z" fill="#dbb50d" stroke="none"/></g><g stroke-width="1" stroke-linecap="butt"><path d="M135.44225,112.09453v-21.94696h5.81727v21.94696z" fill="url(#color-59)" stroke="#5b5b5b"/><path d="M129.19636,87.95961c0,-4.93557 4.00108,-8.93665 8.93665,-8.93665c4.93557,0 8.93665,4.00107 8.93665,8.93665c0,3.96744 2.53326,8.19119 2.53326,8.19119c0,0 -11.22521,1.85835 -11.94233,1.84778c-4.71559,-0.06949 -10.61397,-1.85597 -10.61397,-1.85597c0,0 2.14974,-3.24742 2.14974,-8.18299z" fill="#ffd210" stroke="#bd9b0b"/><path d="M146.51124,85.34174c0,0.93142 0.42831,2.11176 0.42831,2.11176c0,0 -6.29768,1.01268 -8.75497,1.01268c-2.94244,0 -8.65431,-1.01993 -8.65431,-1.01993c0,0 0.29316,-1.6502 0.41578,-2.19264c0.26442,-1.16971 0.98938,-2.10593 0.98938,-2.10593c0,0 4.87973,1.17148 7.17355,1.17148c2.29382,0 7.26411,-1.02809 7.26411,-1.02809c0,0 1.13813,0.74755 1.13813,2.05067z" fill="#dbb50d" stroke="none"/><path d="M148.63131,94.88928c0,0 -7.7676,1.53683 -10.47577,1.53683c-3.24286,0 -10.08668,-1.68002 -10.08668,-1.68002c0,0 0.30122,-1.48694 0.82139,-2.50639c0.03894,-0.07632 0.36926,-1.4584 0.36926,-1.4584c0,0 6.50765,1.49959 9.03566,1.49959c2.52801,0 9.11649,-1.58164 9.11649,-1.58164c0,0 -0.28968,0.59603 0.24446,1.6271z" fill="#dbb50d" stroke="none"/></g><g stroke-width="1" stroke-linecap="butt"><path d="M223.77559,118.7612v-21.94696h5.81726v21.94696z" fill="url(#color-60)" stroke="#5b5b5b"/><path d="M217.5297,94.62628c0,-4.93557 4.00108,-8.93665 8.93665,-8.93665c4.93557,0 8.93665,4.00108 8.93665,8.93665c0,3.96744 2.53326,8.19119 2.53326,8.19119c0,0 -11.22521,1.85835 -11.94233,1.84777c-4.71559,-0.0695 -10.61397,-1.85597 -10.61397,-1.85597c0,0 2.14975,-3.24742 2.14975,-8.18299z" fill="#ffd210" stroke="#bd9b0b"/><path d="M234.84457,92.00841c0,0.93142 0.42831,2.11176 0.42831,2.11176c0,0 -6.29769,1.01268 -8.75497,1.01268c-2.94244,0 -8.6543,-1.01993 -8.6543,-1.01993c0,0 0.29316,-1.6502 0.41578,-2.19264c0.26442,-1.16971 0.98938,-2.10593 0.98938,-2.10593c0,0 4.87973,1.17149 7.17355,1.17149c2.29382,0 7.26411,-1.02809 7.26411,-1.02809c0,0 1.13813,0.74755 1.13813,2.05067z" fill="#dbb50d" stroke="none"/><path d="M236.96464,101.55595c0,0 -7.76759,1.53682 -10.47576,1.53682c-3.24285,0 -10.08668,-1.68002 -10.08668,-1.68002c0,0 0.30122,-1.48694 0.82138,-2.50639c0.03894,-0.07632 0.36926,-1.4584 0.36926,-1.4584c0,0 6.50765,1.49959 9.03566,1.49959c2.52802,0 9.11648,-1.58164 9.11648,-1.58164c0,0 -0.28968,0.59602 0.24446,1.6271z" fill="#dbb50d" stroke="none"/></g><g stroke-width="1" stroke-linecap="butt"><path d="M240.77558,36.09452v-21.94695h5.81726v21.94696z" fill="url(#color-61)" stroke="#5b5b5b"/><path d="M234.5297,11.95961c0,-4.93557 4.00108,-8.93665 8.93665,-8.93665c4.93557,0 8.93665,4.00108 8.93665,8.93665c0,3.96745 2.53326,8.19119 2.53326,8.19119c0,0 -11.22521,1.85835 -11.94233,1.84777c-4.71559,-0.06949 -10.61397,-1.85597 -10.61397,-1.85597c0,0 2.14974,-3.24742 2.14974,-8.18299z" fill="#ffd210" stroke="#bd9b0b"/><path d="M251.84457,9.34174c0,0.93142 0.42832,2.11176 0.42832,2.11176c0,0 -6.29769,1.01268 -8.75497,1.01268c-2.94244,0 -8.6543,-1.01993 -8.6543,-1.01993c0,0 0.29316,-1.6502 0.41578,-2.19264c0.26442,-1.16971 0.98938,-2.10593 0.98938,-2.10593c0,0 4.87973,1.17149 7.17355,1.17149c2.29382,0 7.26411,-1.02809 7.26411,-1.02809c0,0 1.13813,0.74755 1.13813,2.05067z" fill="#dbb50d" stroke="none"/><path d="M253.96464,18.88928c0,0 -7.7676,1.53683 -10.47577,1.53683c-3.24285,0 -10.08668,-1.68002 -10.08668,-1.68002c0,0 0.30122,-1.48695 0.82139,-2.5064c0.03894,-0.07632 0.36926,-1.4584 0.36926,-1.4584c0,0 6.50765,1.49959 9.03566,1.49959c2.52802,0 9.11649,-1.58163 9.11649,-1.58163c0,0 -0.28968,0.59602 0.24446,1.6271z" fill="#dbb50d" stroke="none"/></g><g stroke-width="1" stroke-linecap="butt"><path d="M377.44225,37.76118v-21.94696h5.81727v21.94696z" fill="url(#color-62)" stroke="#5b5b5b"/><path d="M371.19637,13.62628c0,-4.93557 4.00108,-8.93665 8.93665,-8.93665c4.93557,0 8.93665,4.00108 8.93665,8.93665c0,3.96744 2.53326,8.19119 2.53326,8.19119c0,0 -11.22521,1.85835 -11.94233,1.84777c-4.71559,-0.06949 -10.61397,-1.85597 -10.61397,-1.85597c0,0 2.14974,-3.24742 2.14974,-8.18299z" fill="#ffd210" stroke="#bd9b0b"/><path d="M388.51124,11.00841c0,0.93142 0.42831,2.11176 0.42831,2.11176c0,0 -6.29769,1.01267 -8.75497,1.01267c-2.94244,0 -8.6543,-1.01993 -8.6543,-1.01993c0,0 0.29316,-1.6502 0.41578,-2.19264c0.26442,-1.16971 0.98938,-2.10593 0.98938,-2.10593c0,0 4.87973,1.17149 7.17355,1.17149c2.29382,0 7.26411,-1.02809 7.26411,-1.02809c0,0 1.13813,0.74755 1.13813,2.05067z" fill="#dbb50d" stroke="none"/><path d="M390.6313,20.55595c0,0 -7.76759,1.53683 -10.47576,1.53683c-3.24286,0 -10.08668,-1.68002 -10.08668,-1.68002c0,0 0.30122,-1.48694 0.82139,-2.50639c0.03894,-0.07632 0.36926,-1.4584 0.36926,-1.4584c0,0 6.50765,1.49959 9.03566,1.49959c2.52802,0 9.11649,-1.58164 9.11649,-1.58164c0,0 -0.28968,0.59603 0.24446,1.6271z" fill="#dbb50d" stroke="none"/></g><g stroke="#c4872d" stroke-width="0" stroke-linecap="butt"><path d="M418.30267,-20.75556c0,-11.27132 9.13721,-20.40853 20.40853,-20.40853c11.27132,0 20.40853,9.13721 20.40853,20.40853c0,4.61562 0.28983,44.58663 0.28983,44.58663c0,0 -12.47623,3.39697 -20.69836,3.42603c-8.22214,0.02906 -20.37081,-3.28089 -20.37081,-3.28089c0,0 -0.03774,-33.46045 -0.03774,-44.73178z" fill="url(#color-63)"/><path d="M418.31545,-0.70077c5.9354,0.41827 12.50791,0.48536 21.8457,0.17389c6.74477,-0.22497 12.76832,-0.94175 19.06145,-2.41362c0.02245,3.3615 0.04637,6.8546 0.06934,10.1645c-12.3961,2.08559 -24.40684,4.23586 -37.34599,1.78471c-1.20922,-0.22907 -2.41649,-0.46746 -3.62202,-0.7141c-0.00284,-2.87901 -0.00576,-5.94234 -0.00849,-8.9954z" fill="url(#color-64)"/><path d="M459.40957,23.83108c0,0 -12.47622,3.39697 -20.69836,3.42603c-8.22214,0.02906 -20.37081,-3.28089 -20.37081,-3.28089c0,0 -0.00297,-2.63259 -0.00724,-6.66965c0.63895,0.15265 1.27793,0.30516 1.91694,0.4575c12.61536,3.00749 26.59316,1.0123 39.10522,-1.51184c0.03208,4.52138 0.05425,7.57885 0.05425,7.57885z" fill="url(#color-65)"/><path d="M459.11974,-20.75556c0,1.14009 0.01768,4.43731 0.04431,8.75644c-0.83005,0.21968 -1.66808,0.41486 -2.49625,0.6383c-1.08934,0.2939 -2.17484,0.61305 -3.28382,0.82096c-9.83907,1.84462 -23.04529,2.03989 -32.37013,1.10681c-0.90242,-0.0903 -1.80435,-0.18474 -2.70582,-0.28297c-0.00267,-3.65033 -0.00458,-6.95771 -0.00518,-9.50636c3.74382,0.13499 7.49373,-0.06187 11.23997,-0.01057c3.34494,0.0458 6.68664,0.23836 10.03141,0.29504c4.10319,0.06953 8.0536,-1.58626 12.06012,-2.47442c1.68056,-0.37254 4.45519,-1.16578 7.26063,-2.38237c0.14804,0.99154 0.22475,2.00638 0.22475,3.03914z" fill="url(#color-66)"/><path d="M438.71121,-41.16412c7.05141,0 13.26756,3.57615 16.93374,9.01373c-0.19153,0.07374 -0.3797,0.14817 -0.56181,0.2253c-3.94052,1.66881 -12.44718,3.74009 -15.78916,4.06606c-3.21467,0.31355 -6.45574,-0.27842 -9.68566,-0.28295c-3.30253,-0.00462 -6.60737,-0.11516 -9.90861,-0.04965c2.97258,-7.59412 10.36394,-12.97249 19.0115,-12.97249z" fill="url(#color-67)"/></g><g stroke-width="1.5" stroke-linecap="butt"><path d="M11.63826,43.7612v-40.75801h10.80333v40.75801z" fill="url(#color-68)" stroke="#5b5b5b"/><path d="M0.03893,-1.06012c0,-9.16592 7.43046,-16.59638 16.59638,-16.59638c9.16592,0 16.59638,7.43046 16.59638,16.59638c0,7.368 4.70456,15.21198 4.70456,15.21198c0,0 -20.8465,3.45115 -22.17828,3.43153c-8.75739,-0.12906 -19.71136,-3.44675 -19.71136,-3.44675c0,0 3.99232,-6.03083 3.99232,-15.19676z" fill="#ffd210" stroke="#bd9b0b"/><path d="M32.19464,-5.92179c0,1.72976 0.79543,3.92178 0.79543,3.92178c0,0 -11.69552,1.88065 -16.25898,1.88065c-5.46445,0 -16.07204,-1.89413 -16.07204,-1.89413c0,0 0.54444,-3.06461 0.77216,-4.07198c0.49106,-2.17228 1.83739,-3.91096 1.83739,-3.91096c0,0 9.06222,2.17558 13.32212,2.17558c4.25988,0 13.49028,-1.90928 13.49028,-1.90928c0,0 2.11364,1.38829 2.11364,3.80833z" fill="#dbb50d" stroke="none"/><path d="M36.13185,11.80908c0,0 -14.42531,2.85406 -19.45469,2.85406c-6.02235,0 -18.73212,-3.11999 -18.73212,-3.11999c0,0 0.5594,-2.76143 1.52541,-4.65466c0.07232,-0.14173 0.68575,-2.70842 0.68575,-2.70842c0,0 12.08546,2.78491 16.78027,2.78491c4.69481,0 16.93036,-2.93728 16.93036,-2.93728c0,0 -0.53796,1.10689 0.45399,3.02172z" fill="#dbb50d" stroke="none"/></g><path d="M58.48553,416.68488l-14.03884,-2.77422l-19.05272,-1.84949l-142.39397,1.84949v-82.30209h118.47182l14.03884,1.84948l9.02497,5.54845l7.01942,7.39795l4.0111,7.39793v22.19383l5.01387,7.39794l18.04994,14.79587l14.03885,6.47321l7.01942,2.77422l164.45501,0.92475h6.01665l7.01943,6.4732l5.01387,9.24742l1.00277,12.02165l0.27467,15.9577c-1.1261,-0.95975 -2.33805,-1.82155 -3.62268,-2.5722c-9.90842,-8.40057 -17.355,-17.86176 -29.40175,-21.59447c-0.05398,-3.25995 -121.40256,-2.99984 -132.51488,-3.02416z" data-paper-data="{&quot;index&quot;:null}" fill="url(#color-69)" stroke="#000000" stroke-width="0" stroke-linecap="butt"/><path d="M86.12595,515.10857v-47l-3.01578,-13l-8.04209,-14l-7.03683,-6l-11.05787,-5l-14.07366,-3l-19.09996,-2l-142.74709,2v-89h118.76561l14.07366,2l9.04735,6l7.03683,8l4.02104,8v24l5.02631,8l18.0947,16l14.07366,7l7.03683,3l164.86283,1h6.03157l7.03683,7l5.02631,10l1.00526,13l1.00526,63z" data-paper-data="{&quot;index&quot;:null}" fill="url(#color-70)" stroke="#000000" stroke-width="0" stroke-linecap="round"/><path d="M199.95267,479.40001v-127.5h176.2v127.5z" fill="url(#color-71)" stroke="none" stroke-width="0" stroke-linecap="butt"/><g stroke="#c4872d" stroke-width="1" stroke-linecap="butt"><path d="M-120.56126,271.65146v-10.85775h98.34946v10.85775z" fill="url(#color-72)"/><path d="M-66.01393,288.23898v-31.27312l8.77548,-7.66295l8.55047,7.66295v31.27312z" fill="url(#color-73)"/><path d="M-37.60413,288.13543v-31.27312l8.77548,-7.66295l8.55047,7.66295v31.27312z" fill="url(#color-74)"/><path d="M-122.83354,288.23898v-31.27312l8.77548,-7.66295l8.55046,7.66295v31.27312z" fill="url(#color-75)"/><path d="M-94.53624,288.23898v-31.27312l8.77548,-7.66295l8.55047,7.66295v31.27312z" fill="url(#color-76)"/></g><g stroke="#c4872d" stroke-width="0" stroke-linecap="butt"><path d="M-94.69733,266.24442c0,-11.27132 9.13721,-20.40853 20.40853,-20.40853c11.27132,0 20.40853,9.13721 20.40853,20.40853c0,4.61562 0.28983,44.58663 0.28983,44.58663c0,0 -12.47623,3.39697 -20.69836,3.42603c-8.22214,0.02906 -20.37081,-3.28089 -20.37081,-3.28089c0,0 -0.03774,-33.46045 -0.03774,-44.73178z" fill="url(#color-77)"/><path d="M-94.68455,286.29922c5.9354,0.41827 12.50791,0.48536 21.8457,0.17389c6.74477,-0.22497 12.76832,-0.94175 19.06145,-2.41362c0.02245,3.3615 0.04637,6.8546 0.06934,10.1645c-12.3961,2.08559 -24.40684,4.23586 -37.34599,1.78471c-1.20922,-0.22907 -2.41649,-0.46746 -3.62202,-0.7141c-0.00284,-2.87901 -0.00576,-5.94234 -0.00849,-8.9954z" fill="url(#color-78)"/><path d="M-53.59043,310.83108c0,0 -12.47622,3.39697 -20.69836,3.42603c-8.22214,0.02906 -20.37081,-3.28089 -20.37081,-3.28089c0,0 -0.00297,-2.63259 -0.00724,-6.66965c0.63895,0.15265 1.27793,0.30516 1.91694,0.4575c12.61536,3.00749 26.59316,1.0123 39.10522,-1.51184c0.03208,4.52138 0.05425,7.57885 0.05425,7.57885z" fill="url(#color-79)"/><path d="M-53.88026,266.24442c0,1.14009 0.01768,4.43731 0.04431,8.75644c-0.83005,0.21968 -1.66808,0.41486 -2.49625,0.6383c-1.08934,0.2939 -2.17484,0.61305 -3.28382,0.82096c-9.83907,1.84462 -23.04529,2.03989 -32.37013,1.10681c-0.90242,-0.0903 -1.80435,-0.18474 -2.70582,-0.28297c-0.00267,-3.65033 -0.00458,-6.95771 -0.00518,-9.50636c3.74382,0.13499 7.49373,-0.06187 11.23997,-0.01057c3.34494,0.0458 6.68664,0.23836 10.03141,0.29504c4.10319,0.06953 8.0536,-1.58626 12.06012,-2.47442c1.68056,-0.37254 4.45519,-1.16578 7.26063,-2.38237c0.14804,0.99154 0.22475,2.00638 0.22475,3.03914z" fill="url(#color-80)"/><path d="M-74.28879,245.8359c7.05141,0 13.26756,3.57615 16.93374,9.01373c-0.19153,0.07374 -0.3797,0.14817 -0.56181,0.2253c-3.94052,1.66881 -12.44718,3.74009 -15.78916,4.06606c-3.21467,0.31355 -6.45574,-0.27842 -9.68566,-0.28295c-3.30253,-0.00462 -6.60737,-0.11516 -9.90861,-0.04965c2.97258,-7.59412 10.36394,-12.97249 19.0115,-12.97249z" fill="url(#color-81)"/></g><g stroke-width="1" stroke-linecap="butt"><path d="M-26.22441,319.09452v-21.94696h5.81727v21.94696z" fill="url(#color-82)" stroke="#5b5b5b"/><path d="M-32.47029,294.95959c0,-4.93557 4.00108,-8.93665 8.93665,-8.93665c4.93557,0 8.93665,4.00108 8.93665,8.93665c0,3.96744 2.53326,8.19119 2.53326,8.19119c0,0 -11.22521,1.85834 -11.94233,1.84778c-4.71559,-0.0695 -10.61397,-1.85597 -10.61397,-1.85597c0,0 2.14974,-3.24742 2.14974,-8.18299z" fill="#ffd210" stroke="#bd9b0b"/><path d="M-15.15542,292.34175c0,0.93142 0.42831,2.11176 0.42831,2.11176c0,0 -6.29769,1.01268 -8.75497,1.01268c-2.94244,0 -8.6543,-1.01993 -8.6543,-1.01993c0,0 0.29316,-1.6502 0.41578,-2.19264c0.26442,-1.16971 0.98938,-2.10593 0.98938,-2.10593c0,0 4.87973,1.17149 7.17356,1.17149c2.29382,0 7.26411,-1.02809 7.26411,-1.02809c0,0 1.13813,0.74755 1.13813,2.05067z" fill="#dbb50d" stroke="none"/><path d="M-13.03536,301.88928c0,0 -7.7676,1.53683 -10.47577,1.53683c-3.24286,0 -10.08668,-1.68002 -10.08668,-1.68002c0,0 0.30122,-1.48694 0.82139,-2.50639c0.03894,-0.07632 0.36926,-1.4584 0.36926,-1.4584c0,0 6.50765,1.49959 9.03566,1.49959c2.52801,0 9.11649,-1.58164 9.11649,-1.58164c0,0 -0.28968,0.59603 0.24446,1.6271z" fill="#dbb50d" stroke="none"/></g><g stroke-width="1" stroke-linecap="butt"><path d="M-128.22441,325.09452v-21.94696h5.81727v21.94696z" fill="url(#color-83)" stroke="#5b5b5b"/><path d="M-134.47029,300.95959c0,-4.93557 4.00108,-8.93665 8.93665,-8.93665c4.93557,0 8.93665,4.00108 8.93665,8.93665c0,3.96744 2.53326,8.19119 2.53326,8.19119c0,0 -11.22521,1.85834 -11.94233,1.84778c-4.71559,-0.0695 -10.61397,-1.85597 -10.61397,-1.85597c0,0 2.14974,-3.24742 2.14974,-8.18299z" fill="#ffd210" stroke="#bd9b0b"/><path d="M-117.15542,298.34175c0,0.93142 0.42831,2.11176 0.42831,2.11176c0,0 -6.29769,1.01268 -8.75497,1.01268c-2.94244,0 -8.6543,-1.01993 -8.6543,-1.01993c0,0 0.29316,-1.6502 0.41578,-2.19264c0.26442,-1.16971 0.98938,-2.10593 0.98938,-2.10593c0,0 4.87973,1.17149 7.17356,1.17149c2.29382,0 7.26411,-1.02809 7.26411,-1.02809c0,0 1.13813,0.74755 1.13813,2.05067z" fill="#dbb50d" stroke="none"/><path d="M-115.03536,307.88928c0,0 -7.7676,1.53683 -10.47577,1.53683c-3.24286,0 -10.08668,-1.68002 -10.08668,-1.68002c0,0 0.30122,-1.48694 0.82139,-2.50639c0.03894,-0.07632 0.36926,-1.4584 0.36926,-1.4584c0,0 6.50765,1.49959 9.03566,1.49959c2.52801,0 9.11649,-1.58164 9.11649,-1.58164c0,0 -0.28968,0.59603 0.24446,1.6271z" fill="#dbb50d" stroke="none"/></g><g stroke="#c4872d" stroke-width="0" stroke-linecap="butt"><path d="M460.30266,206.24444c0,-11.27132 9.13721,-20.40853 20.40853,-20.40853c11.27132,0 20.40853,9.13721 20.40853,20.40853c0,4.61562 0.28983,44.58663 0.28983,44.58663c0,0 -12.47623,3.39697 -20.69836,3.42603c-8.22214,0.02906 -20.37081,-3.28089 -20.37081,-3.28089c0,0 -0.03774,-33.46045 -0.03774,-44.73178z" fill="url(#color-84)"/><path d="M460.31544,226.29923c5.9354,0.41827 12.50791,0.48536 21.8457,0.17389c6.74477,-0.22497 12.76832,-0.94175 19.06145,-2.41362c0.02245,3.3615 0.04637,6.8546 0.06934,10.1645c-12.3961,2.08559 -24.40684,4.23586 -37.34599,1.78471c-1.20922,-0.22907 -2.41649,-0.46746 -3.62202,-0.7141c-0.00284,-2.87901 -0.00576,-5.94234 -0.00849,-8.9954z" fill="url(#color-85)"/><path d="M501.40956,250.83108c0,0 -12.47622,3.39697 -20.69836,3.42603c-8.22214,0.02906 -20.37081,-3.28089 -20.37081,-3.28089c0,0 -0.00297,-2.63259 -0.00724,-6.66965c0.63895,0.15265 1.27793,0.30516 1.91694,0.4575c12.61536,3.00749 26.59316,1.0123 39.10522,-1.51184c0.03208,4.52138 0.05425,7.57885 0.05425,7.57885z" fill="url(#color-86)"/><path d="M501.11974,206.24444c0,1.14009 0.01768,4.43731 0.04431,8.75644c-0.83005,0.21968 -1.66808,0.41486 -2.49625,0.6383c-1.08934,0.2939 -2.17484,0.61305 -3.28382,0.82096c-9.83907,1.84462 -23.04529,2.03989 -32.37013,1.10681c-0.90242,-0.0903 -1.80435,-0.18474 -2.70582,-0.28297c-0.00267,-3.65033 -0.00458,-6.95771 -0.00518,-9.50636c3.74382,0.13499 7.49373,-0.06187 11.23997,-0.01057c3.34494,0.0458 6.68664,0.23836 10.03141,0.29504c4.10319,0.06953 8.0536,-1.58626 12.06012,-2.47442c1.68056,-0.37254 4.45519,-1.16578 7.26063,-2.38237c0.14804,0.99154 0.22475,2.00638 0.22475,3.03914z" fill="url(#color-87)"/><path d="M480.7112,185.8359c7.05141,0 13.26756,3.57615 16.93374,9.01373c-0.19153,0.07374 -0.3797,0.14817 -0.56181,0.2253c-3.94052,1.66881 -12.44718,3.74009 -15.78916,4.06606c-3.21467,0.31355 -6.45574,-0.27842 -9.68566,-0.28295c-3.30253,-0.00462 -6.60737,-0.11516 -9.90861,-0.04965c2.97258,-7.59412 10.36394,-12.97249 19.0115,-12.97249z" fill="url(#color-88)"/></g><g stroke-width="1" stroke-linecap="butt"><path d="M184.44226,402.22557v-21.94696h5.81727v21.94696z" fill="url(#color-89)" stroke="#5b5b5b"/><path d="M178.19637,378.09065c0,-4.93557 4.00108,-8.93665 8.93665,-8.93665c4.93557,0 8.93665,4.00107 8.93665,8.93665c0,3.96744 2.53326,8.19119 2.53326,8.19119c0,0 -11.22521,1.85835 -11.94233,1.84778c-4.71559,-0.06949 -10.61397,-1.85597 -10.61397,-1.85597c0,0 2.14974,-3.24742 2.14974,-8.183z" fill="#ffd210" stroke="#bd9b0b"/><path d="M195.51124,375.47279c0,0.93142 0.42831,2.11176 0.42831,2.11176c0,0 -6.29768,1.01268 -8.75497,1.01268c-2.94244,0 -8.65431,-1.01993 -8.65431,-1.01993c0,0 0.29316,-1.6502 0.41578,-2.19264c0.26442,-1.16971 0.98938,-2.10593 0.98938,-2.10593c0,0 4.87973,1.17148 7.17355,1.17148c2.29382,0 7.26411,-1.02809 7.26411,-1.02809c0,0 1.13813,0.74755 1.13813,2.05067z" fill="#dbb50d" stroke="none"/><path d="M197.63131,385.02033c0,0 -7.7676,1.53683 -10.47577,1.53683c-3.24286,0 -10.08668,-1.68002 -10.08668,-1.68002c0,0 0.30122,-1.48694 0.82139,-2.50639c0.03894,-0.07632 0.36926,-1.4584 0.36926,-1.4584c0,0 6.50765,1.49959 9.03566,1.49959c2.52801,0 9.11649,-1.58164 9.11649,-1.58164c0,0 -0.28968,0.59603 0.24446,1.6271z" fill="#dbb50d" stroke="none"/></g></g></g></svg>