<svg version="1.1" xmlns="http://www.w3.org/2000/svg" xmlns:xlink="http://www.w3.org/1999/xlink" width="707.70719" height="530.52455" viewBox="0,0,707.70719,530.52455"><g transform="translate(113.91368,83.39465)"><g data-paper-data="{&quot;isPaintingLayer&quot;:true}" fill-rule="nonzero" stroke-linecap="butt" stroke-linejoin="miter" stroke-miterlimit="10" stroke-dasharray="" stroke-dashoffset="0" style="mix-blend-mode: normal"><path d="M-2.22987,264.84319v-13.91255c0,0 439.26616,0 475.94985,0c4.79549,0 8.13357,-8.5 8.13357,-8.5v22.41255z" fill="#000000" stroke="#000000" stroke-width="0"/><path d="M-113.91368,-83.14465c0,-0.13807 0.11193,-0.25 0.25,-0.25c0.13807,0 0.25,0.11193 0.25,0.25c0,0.13807 -0.11193,0.25 -0.25,0.25c-0.13807,0 -0.25,-0.11193 -0.25,-0.25z" fill="#9966ff" stroke="none" stroke-width="0.5"/><path d="M593.29351,-80.14164c0,-0.13807 0.11193,-0.25 0.25,-0.25c0.13807,0 0.25,0.11193 0.25,0.25c0,0.13807 -0.11193,0.25 -0.25,0.25c-0.13807,0 -0.25,-0.11193 -0.25,-0.25z" fill="#9966ff" stroke="none" stroke-width="0.5"/><path d="M-2.81935,447.1299v-195.44808h15.55556v195.44808z" fill="#000000" stroke="none" stroke-width="0"/></g></g></svg>