<svg version="1.1" xmlns="http://www.w3.org/2000/svg" xmlns:xlink="http://www.w3.org/1999/xlink" width="91.07151" height="192.77497" viewBox="0,0,91.07151,192.77497"><defs><linearGradient x1="239.26415" y1="169.43758" x2="230.43879" y2="195.12516" gradientUnits="userSpaceOnUse" id="color-1"><stop offset="0" stop-color="#5ab500"/><stop offset="1" stop-color="#59a210"/></linearGradient><linearGradient x1="206.38124" y1="168.6096" x2="195.1235" y2="201.37703" gradientUnits="userSpaceOnUse" id="color-2"><stop offset="0" stop-color="#cecece"/><stop offset="1" stop-color="#f2f2f2"/></linearGradient><linearGradient x1="219.75236" y1="170.57087" x2="210.77072" y2="196.71333" gradientUnits="userSpaceOnUse" id="color-3"><stop offset="0" stop-color="#cecece"/><stop offset="1" stop-color="#f2f2f2"/></linearGradient><linearGradient x1="226.18374" y1="229.58779" x2="260.49119" y2="224.13931" gradientUnits="userSpaceOnUse" id="color-4"><stop offset="0" stop-color="#17174a"/><stop offset="1" stop-color="#17173a"/></linearGradient><linearGradient x1="229.38579" y1="249.04051" x2="267.74492" y2="242.94857" gradientUnits="userSpaceOnUse" id="color-5"><stop offset="0" stop-color="#643a19"/><stop offset="1" stop-color="#915b32"/></linearGradient><linearGradient x1="237.21058" y1="170.02593" x2="237.21058" y2="225.61707" gradientUnits="userSpaceOnUse" id="color-6"><stop offset="0" stop-color="#2a2a84"/><stop offset="1" stop-color="#1c1c57"/></linearGradient><linearGradient x1="239.10029" y1="167.3339" x2="239.10029" y2="197.61238" gradientUnits="userSpaceOnUse" id="color-7"><stop offset="0" stop-color="#98de53"/><stop offset="1" stop-color="#68c900"/></linearGradient><linearGradient x1="202.15522" y1="230.07159" x2="235.43977" y2="240.01267" gradientUnits="userSpaceOnUse" id="color-8"><stop offset="0" stop-color="#2a2a84"/><stop offset="1" stop-color="#1c1c57"/></linearGradient><linearGradient x1="196.71167" y1="248.68651" x2="233.92714" y2="259.80163" gradientUnits="userSpaceOnUse" id="color-9"><stop offset="0" stop-color="#643a19"/><stop offset="1" stop-color="#915b32"/></linearGradient><linearGradient x1="211.03244" y1="162.63935" x2="223.98845" y2="159.83041" gradientUnits="userSpaceOnUse" id="color-10"><stop offset="0" stop-color="#82491d"/><stop offset="1" stop-color="#5a2c0a"/></linearGradient><linearGradient x1="224.62435" y1="120.59529" x2="237.62545" y2="180.5618" gradientUnits="userSpaceOnUse" id="color-11"><stop offset="0" stop-color="#ffead6"/><stop offset="1" stop-color="#f5b677"/></linearGradient><linearGradient x1="224.62435" y1="120.59529" x2="230.76597" y2="148.92298" gradientUnits="userSpaceOnUse" id="color-12"><stop offset="0" stop-color="#f5b477"/><stop offset="1" stop-color="#f5b477" stop-opacity="0"/></linearGradient><linearGradient x1="213.32801" y1="134.88771" x2="223.56967" y2="132.66726" gradientUnits="userSpaceOnUse" id="color-13"><stop offset="0" stop-color="#5a2c0a"/><stop offset="1" stop-color="#82491d"/></linearGradient><linearGradient x1="186.53556" y1="112.85673" x2="260.66184" y2="96.78571" gradientUnits="userSpaceOnUse" id="color-14"><stop offset="0" stop-color="#7edf1d"/><stop offset="1" stop-color="#68c900"/></linearGradient><linearGradient x1="242.71977" y1="105.54945" x2="246.53693" y2="123.15576" gradientUnits="userSpaceOnUse" id="color-15"><stop offset="0" stop-color="#509b07"/><stop offset="1" stop-color="#346a00"/></linearGradient><radialGradient cx="265.5534" cy="152.51617" r="17.79896" gradientUnits="userSpaceOnUse" id="color-16"><stop offset="0" stop-color="#563e2d"/><stop offset="1" stop-color="#38291e"/></radialGradient><radialGradient cx="263.06254" cy="134.46723" r="13.17095" gradientUnits="userSpaceOnUse" id="color-17"><stop offset="0" stop-color="#ffead6"/><stop offset="1" stop-color="#f7c594"/></radialGradient><linearGradient x1="229.3196" y1="165.90935" x2="209.06246" y2="178.84795" gradientUnits="userSpaceOnUse" id="color-18"><stop offset="0" stop-color="#7edf1d"/><stop offset="1" stop-color="#68c900"/></linearGradient><linearGradient x1="224.50556" y1="129.24813" x2="194.5685" y2="148.36948" gradientUnits="userSpaceOnUse" id="color-19"><stop offset="0" stop-color="#f2f2f2"/><stop offset="1" stop-color="#ffffff"/></linearGradient><linearGradient x1="225.37066" y1="145.40186" x2="201.2916" y2="160.78158" gradientUnits="userSpaceOnUse" id="color-20"><stop offset="0" stop-color="#f2f2f2"/><stop offset="1" stop-color="#ffffff"/></linearGradient></defs><g transform="translate(-186.36372,-78.63544)"><g data-paper-data="{&quot;isPaintingLayer&quot;:true}" fill-rule="nonzero" stroke-linejoin="miter" stroke-miterlimit="10" stroke-dasharray="" stroke-dashoffset="0" style="mix-blend-mode: normal"><g data-paper-data="{&quot;index&quot;:null,&quot;origRot&quot;:0,&quot;origPos&quot;:null}" stroke-linecap="butt"><path d="M255.60519,180.02746c0.28393,5.30815 -8.79109,10.76111 -18.51122,11.28105c-9.72012,0.51993 -19.03742,-0.43743 -19.03742,-0.43743l-1.03484,-15.91956c0,0 15.10051,-2.67319 22.9185,-3.0914c9.72011,-0.51994 15.38103,2.8592 15.66497,8.16735z" data-paper-data="{&quot;origRot&quot;:0,&quot;origPos&quot;:null}" fill="url(#color-1)" stroke="none" stroke-width="0"/><g data-paper-data="{&quot;origPos&quot;:null}" stroke="#cdcdcd" stroke-width="1.5"><path d="M212.48865,182.38188c0.93061,9.34261 1.56359,20.95345 -8.32488,21.35727c-7.17372,0.29295 -18.13597,-8.57947 -16.96314,-17.89477c1.27982,-10.16512 0.79339,-19.43303 11.89153,-18.83902c10.3627,0.55465 12.46589,6.03391 13.3965,15.37653z" data-paper-data="{&quot;origRot&quot;:0,&quot;origPos&quot;:null}" fill="url(#color-2)"/><path d="M220.3966,182.87854c0.70899,7.21398 2.92492,15.30642 -2.65269,15.40892c-6.23965,0.11465 -6.05446,-1.79909 -6.92178,-13.61644c-0.98803,-13.46214 -3.5899,-15.33982 3.24296,-15.79821c3.98992,-0.26769 5.62249,6.79175 6.3315,14.00574z" data-paper-data="{&quot;origRot&quot;:0,&quot;origPos&quot;:null}" fill="url(#color-3)"/></g></g><g data-paper-data="{&quot;origPos&quot;:null,&quot;origRot&quot;:0}" stroke-linecap="butt"><path d="M256.08117,229.86609c0.96252,4.46676 6.33956,5.42276 6.34177,6.46026c0.00892,4.19775 -1.47837,7.39282 -7.96154,10.39872c-8.03084,3.72346 -14.72657,4.21356 -22.96869,0.9846c-5.6136,-2.1992 -1.51289,-5.52094 -0.45425,-11.45629c0.37988,-2.12977 0.47944,-4.85224 0.12417,-10.27703c-0.44417,-6.78242 1.21876,-19.52921 1.21876,-19.52921c0,0 5.13917,-1.63775 10.32477,-2.54152c5.13823,-0.83965 10.59029,0.45656 10.59029,0.45656c0,0 0.55973,15.17845 2.7847,25.5039z" data-paper-data="{&quot;origPos&quot;:null}" fill="url(#color-4)" stroke="none" stroke-width="0"/><path d="M266.63954,250.66458c0.61147,3.85025 -3.01837,6.28654 -6.56844,7.89753c-2.32652,1.05574 -14.18057,2.58432 -20.58031,0.08478c-1.98684,-0.776 -3.84692,-2.95852 -3.84692,-2.95852c0,0 -4.85527,1.54012 -5.06948,0.09914c-0.17004,-1.14387 -0.50764,-3.08409 0.50488,-3.85254c4.35835,-3.30781 15.64261,-5.09366 21.04634,-5.95185c7.41811,-1.17809 13.9162,0.91786 14.51392,4.68147z" data-paper-data="{&quot;origPos&quot;:null}" fill="#5c3518" stroke="#5c3518" stroke-width="1.5"/><path d="M267.73259,245.53246c-0.63387,4.72109 -4.63284,8.65882 -13.01913,9.99068c-8.38628,1.33185 -18.12995,-2.10745 -18.12995,-2.10745c0,0 -6.02057,1.28384 -6.39079,-0.25435c-0.76625,-3.18364 -1.65974,-8.4349 -0.46678,-8.80069c4.40407,-1.3504 3.65029,-0.60539 9.34106,-2.80042c3.6845,-1.42117 9.47927,-6.06769 13.37949,-6.6871c8.38628,-1.33185 16.32978,2.88598 15.28609,10.65934z" data-paper-data="{&quot;origPos&quot;:null}" fill="url(#color-5)" stroke="#5c3518" stroke-width="1.5"/></g><g data-paper-data="{&quot;origPos&quot;:null}"><path d="M261.18836,195.59805c0.33542,23.36797 -11.23027,30.01902 -24.2383,30.01902c-13.00803,0 -23.7244,-11.0783 -23.7244,-22.29354c0,-12.16666 1.12928,-21.85193 8.41177,-29.59575c5.42567,-5.76938 13.24571,-3.072 20.2802,-3.072c13.00803,0 18.94195,2.03645 19.27073,24.94228z" data-paper-data="{&quot;origPos&quot;:null}" fill="url(#color-6)" stroke="#101032" stroke-width="1.5" stroke-linecap="butt"/><path d="M261.18836,194.93587c0,0 -14.76896,2.20728 -25.18042,2.64874c-9.54981,0.40491 -19.18508,-3.75238 -19.18508,-3.75238c0,0 -0.84489,-15.22543 5.98217,-21.14578c4.46675,-3.8735 9.49009,-5.14202 15.94364,-5.3416c6.45355,-0.19958 13.47144,2.36082 16.7202,5.75234c7.67393,8.01117 5.7195,21.83867 5.7195,21.83867z" data-paper-data="{&quot;origPos&quot;:null}" fill="url(#color-7)" stroke="#4e9707" stroke-width="1.5" stroke-linecap="butt"/><path d="M249.29004,171.63946c0,0 1.83311,7.54921 2.20291,12.08838c0.47498,5.83023 -0.49673,16.78467 -0.49673,16.78467" data-paper-data="{&quot;origPos&quot;:null,&quot;origRot&quot;:0}" fill="none" stroke="#2a2a84" stroke-width="10" stroke-linecap="round"/><path d="M230.86909,172.20087c0,0 1.06191,7.79088 0.97412,12.35359c-0.11275,5.86046 -2.17318,16.56179 -2.17318,16.56179" data-paper-data="{&quot;origPos&quot;:null}" fill="none" stroke="#2a2a84" stroke-width="10" stroke-linecap="round"/><path d="M226.383,198.89434c0,-2.49904 1.89876,-4.14993 4.24102,-4.14993c2.34224,0 4.24103,1.65089 4.24103,4.14993c0,2.49904 -1.89877,4.27492 -4.24103,4.27492c-2.34224,0 -4.24102,-1.77587 -4.24102,-4.27492z" fill="#ffe84f" stroke="#b6a538" stroke-width="1" stroke-linecap="butt"/><path d="M247.24826,198.64434c0,-2.49904 1.83345,-4.14993 4.09513,-4.14993c2.26167,0 4.09513,1.65089 4.09513,4.14993c0,2.49904 -1.83346,4.27492 -4.09513,4.27492c-2.26167,0 -4.09513,-1.77587 -4.09513,-4.27492z" fill="#ffe84f" stroke="#b6a538" stroke-width="1" stroke-linecap="butt"/></g><g data-paper-data="{&quot;origPos&quot;:null,&quot;origRot&quot;:0}" stroke-linecap="butt"><path d="M229.07676,242.95916c-1.06613,4.44317 3.36703,7.63279 2.91986,8.56899c-1.80927,3.78784 -4.53318,6.02409 -11.67862,5.92697c-8.85122,-0.1203 -15.09913,-2.57725 -21.13094,-9.05613c-4.10819,-4.41269 1.02638,-5.63171 4.55022,-10.52371c1.26445,-1.75538 2.53283,-4.16639 4.56111,-9.21028c2.53588,-6.30617 10.34347,-17.10151 10.34347,-17.10151c0,0 7.28289,2.11109 11.82289,4.428c3.58291,1.82848 8.99103,6.19407 8.99103,6.19407c0,0 -7.91454,10.50266 -10.37903,20.77358z" data-paper-data="{&quot;origPos&quot;:null}" fill="url(#color-8)" stroke="none" stroke-width="0"/><path d="M229.59027,266.27853c-1.11566,3.73545 -5.44244,4.36015 -9.34001,4.27544c-2.55426,-0.05552 -13.90161,-3.80952 -18.58842,-8.83328c-1.45504,-1.55966 -2.18692,-4.33232 -2.18692,-4.33232c0,0 -5.04344,-0.71365 -4.6127,-2.10533c0.34193,-1.10473 0.87758,-2.99986 2.12297,-3.25423c5.36078,-1.09493 16.30589,2.18048 21.54851,3.74629c7.19694,2.14951 12.14713,6.85205 11.05657,10.50344z" data-paper-data="{&quot;origPos&quot;:null}" fill="#5c3518" stroke="#5c3518" stroke-width="1.5"/><path d="M232.79739,262.12549c-2.61526,3.98131 -7.9248,5.79966 -16.06104,3.36961c-8.13624,-2.43005 -15.43053,-9.7486 -15.43053,-9.7486c0,0 -5.98293,-1.44916 -5.65073,-2.99601c0.68755,-3.20156 2.15553,-8.32201 3.38926,-8.13529c4.55458,0.68933 3.55258,1.03458 9.63269,1.51958c3.93658,0.31401 11.17175,-1.3658 14.95568,-0.23566c8.13624,2.43005 13.47075,9.67106 9.16467,16.22637z" data-paper-data="{&quot;origPos&quot;:null}" fill="url(#color-9)" stroke="#5c3518" stroke-width="1.5"/></g><g data-paper-data="{&quot;origPos&quot;:null,&quot;origRot&quot;:0}"><path d="M217.16319,168.4736c0,0 -1.08435,1.76297 -3.00539,0.39388c-1.92103,-1.36908 -3.89992,-5.06915 -2.06267,-7.43941c2.19753,-2.83506 -0.14192,-10.26086 1.7791,-8.89178c0,0 6.23484,-0.01819 7.47682,3.48953c0,0 4.77185,9.87272 4.10323,11.76228c0,0 -1.11063,1.96609 -4.99695,2.52215c-2.10566,0.30129 -3.29414,-1.83666 -3.29414,-1.83666z" data-paper-data="{&quot;origRot&quot;:0,&quot;origPos&quot;:null}" fill="url(#color-10)" stroke="#5c3822" stroke-width="1" stroke-linecap="butt"/><path d="M210.85286,127.22324c4.4294,0.07018 35.938,-10.01017 41.66847,-10.92307c8.47814,-1.35062 7.80156,6.713 10.20741,14.95407c2.76621,9.47544 2.9234,21.10102 5.09763,27.60437c2.33202,6.9753 2.48665,10.86053 -2.49815,15.53564c-15.49838,4.34031 -13.49908,0.20453 -21.23003,-0.60094c-6.60071,-0.92597 -11.3298,-1.80463 -19.09708,-5.9272c-5.89612,-3.12943 -5.47741,-6.87296 -9.59907,-10.89803c-1.26344,-1.23383 -2.55793,-1.75748 -2.74804,-1.71626c-10.13496,2.19732 -17.52162,-4.96671 -19.23792,-12.88297c-1.7163,-7.91627 0.50935,-15.11783 6.17667,-16.34654c5.66733,-1.22871 9.71999,1.17655 11.26013,1.20094z" data-paper-data="{&quot;origPos&quot;:null}" fill="url(#color-11)" stroke="none" stroke-width="0" stroke-linecap="butt"/><path d="M210.85286,127.22324c4.4294,0.07018 35.938,-10.01017 41.66847,-10.92307c8.47814,-1.35062 7.80156,6.713 10.20741,14.95407c0.9546,3.2699 1.5985,6.79585 2.1218,10.279c-15.39577,1.20446 -30.79125,2.4126 -46.1824,3.67422c-5.85161,0.47966 -14.47642,1.49964 -21.99671,4.19765c-1.59424,-2.086 -2.71052,-4.52323 -3.25536,-7.03626c-1.7163,-7.91627 0.50935,-15.11784 6.17667,-16.34655c5.66733,-1.22871 9.71999,1.17656 11.26013,1.20095z" data-paper-data="{&quot;origPos&quot;:null}" fill="url(#color-12)" stroke="none" stroke-width="0" stroke-linecap="butt"/><path d="M277.23231,110.49539c0.2487,3.8275 -9.79782,10.92403 -18.50553,12.81191c-7.01669,1.52126 -6.70865,-5.45738 -7.48099,-9.0197c-0.77233,-3.56232 13.14697,-5.76655 20.16366,-7.28781c7.01669,-1.52126 5.66188,1.0181 5.82286,3.4956z" data-paper-data="{&quot;origPos&quot;:null}" fill="#346a00" stroke="none" stroke-width="0" stroke-linecap="butt"/><path d="M259.04532,122.10219c1.38022,4.70319 0.13631,9.20927 -2.77835,10.06462c-2.91465,0.85534 -6.39632,-2.26395 -7.77653,-6.96713c-1.38021,-4.70319 -0.13631,-9.20926 2.77835,-10.06461c2.91465,-0.85534 6.39633,2.26394 7.77655,6.96713z" data-paper-data="{&quot;origPos&quot;:null,&quot;origRot&quot;:0}" fill="#ffffff" stroke="none" stroke-width="0" stroke-linecap="butt"/><path d="M224.81546,142.26961c-2.23821,1.17792 -5.44434,0.7297 -7.51569,-0.60649c-2.07135,-1.33619 -3.22195,-3.31691 -4.12967,-7.50367c-0.90771,-4.18677 -1.80283,-8.23901 0.79122,-8.90241c10.92174,-2.7931 5.07814,4.18388 7.51732,8.75187c2.68064,5.02023 5.06973,7.3487 3.33682,8.26071z" fill="url(#color-13)" stroke="#5c3822" stroke-width="1" stroke-linecap="butt"/><path d="M247.37823,129.75265c1.58945,4.63665 0.54861,9.19393 -2.3248,10.17894c-2.87341,0.98503 -6.49131,-1.97521 -8.08078,-6.61187c-1.58945,-4.63665 -0.54861,-9.19393 2.3248,-10.17894c2.87341,-0.98502 6.4913,1.97521 8.08077,6.61187z" data-paper-data="{&quot;origPos&quot;:null,&quot;origRot&quot;:0}" fill="#ffffff" stroke="none" stroke-width="0" stroke-linecap="butt"/><path d="M242.44707,123.35038c0.93039,-0.20172 1.92007,0.29486 2.76861,1.25896c0.84757,0.96431 1.5542,2.39712 1.91673,4.06927c0.36254,1.67215 0.31274,3.26895 -0.05936,4.4977c-0.37308,1.22896 -1.06825,2.09081 -1.99863,2.29253c-0.93039,0.20172 -1.92007,-0.29486 -2.76862,-1.25896c-0.84757,-0.96431 -1.5542,-2.39712 -1.91673,-4.06927c-0.36254,-1.67215 -0.31274,-3.26895 0.05936,-4.4977c0.37308,-1.22896 1.06824,-2.09081 1.99863,-2.29253z" data-paper-data="{&quot;origPos&quot;:null}" id="ID0.2989244391210377" fill="#000000" stroke="#00aaff" stroke-width="1.5" stroke-linecap="butt"/><path d="M254.18784,117.24444c0.93039,-0.20172 1.92007,0.29486 2.76861,1.25896c0.84756,0.96431 1.37272,2.67386 1.91673,4.06927c0.19532,0.50917 0.65088,3.24359 0.37765,3.79091c-0.34978,0.66624 -0.07117,2.53363 -0.72152,2.92736c-1.17239,0.52023 -2.46589,-0.11858 -3.67783,-0.50762c-1.06696,-0.36215 -2.46566,-3.61517 -2.72164,-4.74867c-0.33073,-1.46416 -0.31274,-3.26895 0.05936,-4.4977c0.37307,-1.22895 1.06825,-2.09081 1.99863,-2.29253z" data-paper-data="{&quot;origPos&quot;:null}" id="ID0.2989244391210377" fill="#000000" stroke="#00aaff" stroke-width="1.5" stroke-linecap="round"/><path d="M257.72033,87.07249c5.50858,14.09752 2.86561,15.54014 -3.96787,21.9172c-9.95694,9.29189 -25.21246,11.15533 -36.27867,19.0938c-2.9057,2.08443 -11.81102,0.48132 -15.30584,1.23901c-7.14791,1.54971 -12.28869,-2.68444 -13.90328,-8.7052c-3.56143,-13.28042 3.03623,-14.76533 10.18415,-16.31504c0,0 8.14918,-0.40166 11.77123,3.18269c0,0 7.08308,-20.17792 18.14204,-24.87865c14.23599,-6.05118 25.40235,-5.65768 29.35824,4.46619z" data-paper-data="{&quot;origPos&quot;:null}" fill="url(#color-14)" stroke="none" stroke-width="0" stroke-linecap="butt"/><path d="M256.69845,96.01745c1.1585,5.34347 0.60014,9.67365 -9.82535,12.2602c-11.00597,2.73057 -12.86215,-1.74677 -14.02065,-7.09024c-1.15849,-5.34347 3.24046,-10.83255 9.82536,-12.26019c6.58489,-1.42765 12.86214,1.74677 14.02064,7.09024z" data-paper-data="{&quot;origPos&quot;:null}" fill="#ffffff" stroke="none" stroke-width="0" stroke-linecap="butt"/><path d="M277.17827,108.35832c-0.01356,0.88137 -37.07232,14.68851 -47.52643,18.18291c-5.08083,1.69832 -15.70087,3.56621 -15.68731,2.68485c0.05014,-3.2581 0.99424,-8.65209 5.62299,-11.3491c5.59359,-3.2592 25.11166,-12.99587 40.61097,-16.10895c6.33604,-1.2726 17.02991,3.33221 16.97978,6.5903z" data-paper-data="{&quot;origPos&quot;:null}" fill="url(#color-15)" stroke="none" stroke-width="0" stroke-linecap="butt"/><path d="M242.44528,105.47441l-4.73372,-11.58221l5.32505,-1.72917l1.25758,9.43011l6.96458,-3.18886l-0.50076,3.90357z" data-paper-data="{&quot;origPos&quot;:null}" fill="#64ca00" stroke="none" stroke-width="0" stroke-linecap="butt"/><path d="M266.56671,157.1447c0.17728,2.56913 -2.14404,3.5374 -3.47379,4.22682c-4.05842,2.10413 -7.84215,2.16585 -16.20271,0.96285c-2.70685,-0.38949 -8.13473,-14.94706 -1.69483,-13.08467c0,0 12.69498,2.11449 18.45872,0.51687c0,0 8.46413,-6.45091 11.42584,-6.89065c1.46886,-0.21809 2.13623,2.8144 2.0117,4.4461c0,0 1.11438,4.42205 -0.67068,5.9742c-2.45986,2.72671 -4.75224,2.26847 -4.70093,3.01199z" data-paper-data="{&quot;origPos&quot;:null}" fill="url(#color-16)" stroke="none" stroke-width="0" stroke-linecap="butt"/><path d="M273.30391,137.06615c0.9136,6.57369 3.45901,10.63352 -10.64492,13.43553c-6.50038,1.29141 -13.60682,-1.40584 -14.85015,-7.14062c-1.24334,-5.73478 3.46961,-14.16708 9.81792,-16.07013c9.2499,-2.77286 14.21553,-0.74172 15.67716,9.77522z" data-paper-data="{&quot;origPos&quot;:null}" fill="url(#color-17)" stroke="#c79260" stroke-width="1.5" stroke-linecap="butt"/><g data-paper-data="{&quot;origPos&quot;:null}" fill="none" stroke="#c79260" stroke-width="3.5" stroke-linecap="round"><path d="M198.73168,136.80396c0,0 2.52949,-2.31856 6.85577,-0.25903c6.2046,2.95371 4.60357,10.63807 4.60357,10.63807" data-paper-data="{&quot;origPos&quot;:null}"/><path d="M208.67075,141.51938l-5.86377,1.2713" data-paper-data="{&quot;origPos&quot;:null}"/><path d="M208.12707,147.77665l1.25652,-0.27242" data-paper-data="{&quot;origPos&quot;:null}"/></g><path d="M235.71067,121.38786c-1.2576,0.69246 -1.15275,0.86861 -1.53614,2.25211c-0.39551,1.42727 -1.46229,3.38622 -1.46229,3.38622c0,0 -2.19374,-3.23571 -2.76421,-5.86696c-0.38735,-1.78659 -0.09166,-5.11103 2.52667,-6.33259c9.24672,-2.33309 8.37501,7.03616 8.37501,7.03616c0,0 -3.82703,-1.24048 -5.13905,-0.47493z" data-paper-data="{&quot;origPos&quot;:null}" fill="#38291e" stroke="none" stroke-width="0" stroke-linecap="butt"/><path d="M251.98498,114.98826c-1.46309,0.40844 -3.23802,4.01879 -3.23802,4.01879c0,0 -7.33093,-5.89918 0.78286,-10.91033c2.70006,-1.02836 5.29176,1.07459 6.30416,2.59675c1.49104,2.24181 2.28544,6.06951 2.28544,6.06951c0,0 -2.14876,-0.59866 -3.44848,-1.30876c-1.25986,-0.68833 -1.31326,-0.88626 -2.68598,-0.46598z" data-paper-data="{&quot;origPos&quot;:null,&quot;index&quot;:null,&quot;origRot&quot;:0}" fill="#38291e" stroke="none" stroke-width="0" stroke-linecap="butt"/><path d="M243.16504,123.79212c0.35038,-0.12425 0.77548,0.06736 1.1796,0.4767c0.40375,0.40948 0.78667,1.03716 1.05214,1.7858c0.26547,0.74863 0.36352,1.47733 0.30794,2.04969c-0.05595,0.5725 -0.26539,0.98909 -0.61577,1.11333c-0.35038,0.12425 -0.77548,-0.06736 -1.1796,-0.4767c-0.40375,-0.40949 -0.78669,-1.03717 -1.05214,-1.7858c-0.26547,-0.74862 -0.36352,-1.47733 -0.30793,-2.0497c0.05595,-0.5725 0.26539,-0.98908 0.61578,-1.11333z" data-paper-data="{&quot;origPos&quot;:null,&quot;origRot&quot;:0}" id="ID0.2989244391210377" fill="#ffffff" stroke="#00aaff" stroke-width="0" stroke-linecap="butt"/><path d="M254.7782,117.69091c0.35039,-0.12425 0.77549,0.06734 1.1796,0.4767c0.40375,0.40949 0.78668,1.03716 1.05213,1.7858c0.26547,0.74863 0.36352,1.47733 0.30794,2.04969c-0.05596,0.5725 -0.26538,0.98909 -0.61577,1.11333c-0.35039,0.12425 -0.77549,-0.06733 -1.1796,-0.4767c-0.40375,-0.40949 -0.78668,-1.03717 -1.05213,-1.7858c-0.26547,-0.74863 -0.36352,-1.47732 -0.30793,-2.04969c0.05596,-0.5725 0.26538,-0.98909 0.61577,-1.11334z" data-paper-data="{&quot;origPos&quot;:null,&quot;origRot&quot;:0}" id="ID0.2989244391210377" fill="#ffffff" stroke="#00aaff" stroke-width="0" stroke-linecap="butt"/></g><g data-paper-data="{&quot;origPos&quot;:null,&quot;origRot&quot;:0}" stroke-linecap="butt"><path d="M211.1806,180.27817c-2.40769,-7.44977 -5.31629,-22.5067 -5.31629,-22.5067l15.23534,-4.73157c0,0 4.22877,8.35741 7.22225,17.6197c2.99349,9.2623 1.14987,19.68784 -3.90828,21.32257c-5.05813,1.63474 -10.23954,-2.44171 -13.23303,-11.70401z" data-paper-data="{&quot;origRot&quot;:0,&quot;origPos&quot;:null}" fill="url(#color-18)" stroke="none" stroke-width="0"/><g data-paper-data="{&quot;origPos&quot;:null}" stroke="#cdcdcd" stroke-width="1.5"><path d="M192.02731,143.87373c-4.52686,-10.15032 4.30119,-13.01324 13.33485,-17.84653c8.27842,-4.42922 20.48663,2.63124 22.78068,9.43458c3.16217,9.37794 -7.90606,12.94258 -16.96283,15.41749c-9.05677,2.47491 -14.92582,2.47216 -19.1527,-7.00554z" data-paper-data="{&quot;origRot&quot;:0,&quot;origPos&quot;:null}" fill="url(#color-19)"/><path d="M199.13008,157.18639c-2.01755,-6.54432 0.66698,-4.78684 13.59094,-8.68257c11.34491,-3.41975 13.06561,-4.27763 15.19181,1.58971c1.90061,5.2448 -6.44886,6.07207 -13.43869,7.99204c-6.98983,1.91997 -14.16595,2.92224 -15.34405,-0.89918z" data-paper-data="{&quot;origRot&quot;:0,&quot;origPos&quot;:null}" fill="url(#color-20)"/></g></g></g></g></svg>