<svg version="1.1" xmlns="http://www.w3.org/2000/svg" xmlns:xlink="http://www.w3.org/1999/xlink" width="36.93319" height="43.00304" viewBox="0,0,36.93319,43.00304"><defs><linearGradient x1="238.33338" y1="161.19108" x2="238.33338" y2="195.4757" gradientUnits="userSpaceOnUse" id="color-1"><stop offset="0" stop-color="#faeb46"/><stop offset="1" stop-color="#e8c025"/></linearGradient><linearGradient x1="238.33338" y1="161.19108" x2="238.33338" y2="195.47571" gradientUnits="userSpaceOnUse" id="color-2"><stop offset="0" stop-color="#faeb46"/><stop offset="1" stop-color="#e8c025"/></linearGradient></defs><g transform="translate(-221.83292,-158.55)"><g data-paper-data="{&quot;isPaintingLayer&quot;:true}" fill-rule="nonzero" stroke-linecap="butt" stroke-linejoin="miter" stroke-miterlimit="10" stroke-dasharray="" stroke-dashoffset="0" style="mix-blend-mode: normal"><g><path d="M234.83175,164.52432c9.70111,0.53283 14.6619,0.86356 14.88238,0.99216l5.95295,10.58304l-5.51201,5.62224l3.63793,4.96079c-1.01053,4.99754 -1.67198,7.49632 -1.98431,7.49632c-0.73493,0.29397 -4.07888,1.83733 -10.03184,4.63006c-7.11048,-3.10509 -10.85862,-4.83218 -11.24446,-5.18127l-1.76384,-7.4963l4.40959,-4.29936c-3.67466,-5.82433 -5.512,-8.80082 -5.512,-8.92943v-0.11022c0.16536,-0.09188 2.55391,-2.84788 7.1656,-8.268zM237.91846,175.43809c2.20481,2.42527 3.3807,3.82165 3.52768,4.18912l3.74816,-4.63007l-1.76384,-2.86623c-2.64576,0 -3.96864,0.18372 -3.96864,0.55119c-1.02891,1.69035 -1.54336,2.60902 -1.54336,2.756zM238.91061,187.45422c1.06564,2.27829 1.6536,3.41744 1.76384,3.41744c1.34125,0 2.11293,-0.33073 2.31504,-0.99215c0.79005,-1.01052 1.37799,-1.8557 1.76384,-2.53551l-2.64575,-2.53552h-0.11022c-2.05782,1.70872 -3.08672,2.59064 -3.08672,2.64575z" data-paper-data="{&quot;origPos&quot;:null}" fill="#bdbdbd" stroke="#bfbfbf" stroke-width="5"/><g data-paper-data="{&quot;origPos&quot;:null}" stroke="#000000"><path d="M231.49851,161.19108c9.70111,0.53283 14.6619,0.86356 14.88239,0.99217l5.95293,10.58303l-5.512,5.62225l3.63792,4.96079c-1.01053,4.99754 -1.67197,7.49631 -1.9843,7.49631c-0.73493,0.29397 -4.07888,1.83733 -10.03183,4.63007c-7.11048,-3.10509 -10.85862,-4.83219 -11.24447,-5.18128l-1.76383,-7.4963l4.40959,-4.29936c-3.67466,-5.82433 -5.51199,-8.80083 -5.51199,-8.92943v-0.11022c0.16536,-0.09188 2.55389,-2.84787 7.16559,-8.26799zM234.58522,172.10485c2.20481,2.42527 3.3807,3.82164 3.52768,4.18911l3.74815,-4.63007l-1.76384,-2.86623c-2.64576,0 -3.96863,0.18372 -3.96863,0.55119c-1.02891,1.69035 -1.54337,2.60901 -1.54337,2.75599zM235.57738,184.12099c1.06564,2.27829 1.6536,3.41744 1.76384,3.41744c1.34125,0 2.11291,-0.33073 2.31504,-0.99216c0.79005,-1.01052 1.37799,-1.8557 1.76384,-2.53551l-2.64575,-2.53552h-0.11022c-2.05782,1.70872 -3.08672,2.59065 -3.08672,2.64576z" data-paper-data="{&quot;origPos&quot;:null}" fill="url(#color-1)" stroke-width="5"/><path d="M231.49851,161.19108c9.70111,0.53283 14.6619,0.86356 14.88239,0.99217l5.95293,10.58303l-5.512,5.62225l3.63792,4.96079c-1.01053,4.99754 -1.67197,7.49631 -1.9843,7.49631c-0.73493,0.29397 -4.07888,1.83733 -10.03183,4.63007c-7.11048,-3.10509 -10.85862,-4.83219 -11.24447,-5.18128l-1.76383,-7.4963l4.40959,-4.29936c-3.67466,-5.82433 -5.51199,-8.80083 -5.51199,-8.92943v-0.11022c0.16536,-0.09188 2.55389,-2.84787 7.16559,-8.26799zM234.58522,172.10486c2.20481,2.42527 3.3807,3.82165 3.52768,4.18912l3.74815,-4.63007l-1.76384,-2.86622c-2.64576,0 -3.96863,0.18372 -3.96863,0.55119c-1.02891,1.69035 -1.54337,2.60902 -1.54337,2.756zM235.57738,184.121c1.06564,2.27829 1.6536,3.41744 1.76384,3.41744c1.34125,0 2.11291,-0.33073 2.31504,-0.99215c0.79005,-1.01052 1.37799,-1.85571 1.76384,-2.53552l-2.64575,-2.53551h-0.11022c-2.05782,1.70872 -3.08672,2.59065 -3.08672,2.64576z" data-paper-data="{&quot;origPos&quot;:null}" fill="url(#color-2)" stroke-width="0"/></g></g></g></g></svg>