<svg version="1.1" xmlns="http://www.w3.org/2000/svg" xmlns:xlink="http://www.w3.org/1999/xlink" width="520.60554" height="216.6602" viewBox="0,0,520.60554,216.6602"><g transform="translate(20.30277,-164.01875)"><g data-paper-data="{&quot;isPaintingLayer&quot;:true}" fill-rule="nonzero" stroke="none" stroke-linecap="butt" stroke-linejoin="miter" stroke-miterlimit="10" stroke-dasharray="" stroke-dashoffset="0" style="mix-blend-mode: normal"><text transform="translate(158.90003,185.76875) scale(0.5,0.5)" font-size="40" xml:space="preserve" fill="#000000" fill-rule="nonzero" stroke="none" stroke-width="1" stroke-linecap="butt" stroke-linejoin="miter" stroke-miterlimit="10" stroke-dasharray="" stroke-dashoffset="0" font-family="Sans Serif" font-weight="normal" text-anchor="start" style="mix-blend-mode: normal"><tspan x="0" dy="0">Minigame House</tspan></text><g stroke-width="0"><path d="M13.11798,297.20514l-29.83741,-13.64854l30.96335,-13.15223l29.83741,13.64854z" fill="#58ff7d"/><path d="M44.03464,284.12181l-29.83741,-13.64854l30.96335,-13.15223l29.83741,13.64854z" fill="#409818"/><path d="M11.78464,323.87181l-29.83741,-13.64853l30.96335,-13.15222l29.83741,13.64853z" fill="#58ff7d"/><path d="M42.70131,310.78847l-29.83741,-13.64853l30.96335,-13.15222l29.83741,13.64853z" fill="#409818"/><path d="M73.95131,297.70514l-29.83741,-13.64854l30.96335,-13.15223l29.83741,13.64854z" fill="#58ff7d"/><path d="M104.86798,284.62181l-29.83741,-13.64854l30.96335,-13.15223l29.83741,13.64854z" fill="#409818"/><path d="M72.61798,324.37181l-29.83741,-13.64853l30.96335,-13.15222l29.83741,13.64853z" fill="#58ff7d"/><path d="M103.53464,311.28847l-29.83741,-13.64853l30.96335,-13.15222l29.83741,13.64853z" fill="#409818"/><path d="M134.61798,298.20514l-29.83741,-13.64854l30.96335,-13.15223l29.83741,13.64854z" fill="#58ff7d"/><path d="M165.53464,285.12181l-29.83741,-13.64854l30.96335,-13.15223l29.83741,13.64854z" fill="#409818"/><path d="M133.28464,324.87181l-29.83741,-13.64853l30.96335,-13.15222l29.83741,13.64853z" fill="#58ff7d"/><path d="M164.20133,311.78847l-29.83741,-13.64853l30.96335,-13.15222l29.83741,13.64853z" fill="#409818"/><path d="M195.45133,298.70514l-29.83741,-13.64854l30.96335,-13.15223l29.83741,13.64854z" fill="#58ff7d"/><path d="M226.36798,285.62181l-29.83741,-13.64854l30.96335,-13.15223l29.83741,13.64854z" fill="#409818"/><path d="M194.11798,325.37181l-29.83741,-13.64853l30.96335,-13.15222l29.83741,13.64853z" fill="#58ff7d"/><path d="M225.03466,312.28847l-29.83741,-13.64853l30.96335,-13.15222l29.83741,13.64853z" fill="#409818"/><path d="M256.08941,299.26229l-29.83741,-13.64854l30.96335,-13.15223l29.83741,13.64854z" fill="#58ff7d"/><path d="M287.00609,286.17895l-29.83741,-13.64854l30.96335,-13.15223l29.83741,13.64854z" fill="#409818"/><path d="M254.75609,325.92895l-29.83741,-13.64853l30.96335,-13.15222l29.83741,13.64853z" fill="#58ff7d"/><path d="M285.67274,312.84562l-29.83741,-13.64853l30.96335,-13.15222l29.83741,13.64853z" fill="#409818"/><path d="M316.92276,299.76229l-29.83741,-13.64854l30.96335,-13.15223l29.83741,13.64854z" fill="#58ff7d"/><path d="M347.83943,286.67895l-29.83741,-13.64854l30.96335,-13.15223l29.83741,13.64854z" fill="#409818"/><path d="M315.58941,326.42895l-29.83741,-13.64853l30.96335,-13.15222l29.83741,13.64853z" fill="#58ff7d"/><path d="M346.50609,313.34562l-29.83741,-13.64853l30.96335,-13.15222l29.83741,13.64853z" fill="#409818"/><path d="M377.58943,300.26229l-29.83741,-13.64854l30.96335,-13.15223l29.83741,13.64854z" fill="#58ff7d"/><path d="M408.50609,287.17895l-29.83741,-13.64854l30.96335,-13.15223l29.83741,13.64854z" fill="#409818"/><path d="M376.25609,326.92895l-29.83741,-13.64853l30.96335,-13.15222l29.83741,13.64853z" fill="#58ff7d"/><path d="M407.17277,313.84562l-29.83741,-13.64853l30.96335,-13.15222l29.83741,13.64853z" fill="#409818"/><path d="M438.42277,300.76229l-29.83741,-13.64854l30.96335,-13.15223l29.83741,13.64854z" fill="#58ff7d"/><path d="M469.33943,287.67895l-29.83741,-13.64854l30.96335,-13.15223l29.83741,13.64854z" fill="#409818"/><path d="M437.08943,327.42895l-29.83741,-13.64853l30.96335,-13.15222l29.83741,13.64853z" fill="#58ff7d"/><path d="M468.00609,314.34562l-29.83741,-13.64853l30.96335,-13.15222l29.83741,13.64853z" fill="#409818"/><path d="M10.86798,350.45514l-29.83741,-13.64854l30.96335,-13.15223l29.83741,13.64854z" fill="#58ff7d"/><path d="M41.78464,337.37181l-29.83741,-13.64853l30.96335,-13.15222l29.83741,13.64853z" fill="#409818"/><path d="M9.53464,377.12181l-29.83741,-13.64853l30.96335,-13.15222l29.83741,13.64853z" fill="#58ff7d"/><path d="M40.45131,364.03847l-29.83741,-13.64854l30.96335,-13.15223l29.83741,13.64854z" fill="#409818"/><path d="M71.70131,350.95514l-29.83741,-13.64854l30.96335,-13.15223l29.83741,13.64854z" fill="#58ff7d"/><path d="M102.61798,337.87181l-29.83741,-13.64853l30.96335,-13.15222l29.83741,13.64853z" fill="#409818"/><path d="M70.36798,377.62181l-29.83741,-13.64853l30.96335,-13.15222l29.83741,13.64853z" fill="#58ff7d"/><path d="M101.28464,364.53847l-29.83741,-13.64854l30.96335,-13.15223l29.83741,13.64854z" fill="#409818"/><path d="M132.36798,351.45514l-29.83741,-13.64854l30.96335,-13.15223l29.83741,13.64854z" fill="#58ff7d"/><path d="M163.28464,338.37181l-29.83741,-13.64853l30.96335,-13.15222l29.83741,13.64853z" fill="#409818"/><path d="M131.03464,378.12181l-29.83741,-13.64853l30.96335,-13.15222l29.83741,13.64853z" fill="#58ff7d"/><path d="M161.95133,365.03847l-29.83741,-13.64854l30.96335,-13.15223l29.83741,13.64854z" fill="#409818"/><path d="M193.20133,351.95514l-29.83741,-13.64854l30.96335,-13.15223l29.83741,13.64854z" fill="#58ff7d"/><path d="M224.11798,338.87181l-29.83741,-13.64853l30.96335,-13.15222l29.83741,13.64853z" fill="#409818"/><path d="M191.86798,378.62181l-29.83741,-13.64853l30.96335,-13.15222l29.83741,13.64853z" fill="#58ff7d"/><path d="M222.78466,365.53847l-29.83741,-13.64854l30.96335,-13.15223l29.83741,13.64854z" fill="#409818"/><path d="M253.83941,352.51229l-29.83741,-13.64854l30.96335,-13.15223l29.83741,13.64854z" fill="#58ff7d"/><path d="M284.75609,339.42895l-29.83741,-13.64853l30.96335,-13.15222l29.83741,13.64853z" fill="#409818"/><path d="M252.50609,379.17895l-29.83741,-13.64853l30.96335,-13.15222l29.83741,13.64853z" fill="#58ff7d"/><path d="M283.42274,366.09562l-29.83741,-13.64854l30.96335,-13.15223l29.83741,13.64854z" fill="#409818"/><path d="M314.67276,353.01229l-29.83741,-13.64854l30.96335,-13.15223l29.83741,13.64854z" fill="#58ff7d"/><path d="M345.58943,339.92895l-29.83741,-13.64853l30.96335,-13.15222l29.83741,13.64853z" fill="#409818"/><path d="M313.33941,379.67895l-29.83741,-13.64853l30.96335,-13.15222l29.83741,13.64853z" fill="#58ff7d"/><path d="M344.25609,366.59562l-29.83741,-13.64854l30.96335,-13.15223l29.83741,13.64854z" fill="#409818"/><path d="M375.33943,353.51229l-29.83741,-13.64854l30.96335,-13.15223l29.83741,13.64854z" fill="#58ff7d"/><path d="M406.25609,340.42895l-29.83741,-13.64853l30.96335,-13.15222l29.83741,13.64853z" fill="#409818"/><path d="M374.00609,380.17895l-29.83741,-13.64853l30.96335,-13.15222l29.83741,13.64853z" fill="#58ff7d"/><path d="M404.92277,367.09562l-29.83741,-13.64854l30.96335,-13.15223l29.83741,13.64854z" fill="#409818"/><path d="M436.17277,354.01229l-29.83741,-13.64854l30.96335,-13.15223l29.83741,13.64854z" fill="#58ff7d"/><path d="M467.08943,340.92895l-29.83741,-13.64853l30.96335,-13.15222l29.83741,13.64853z" fill="#409818"/><path d="M434.83943,380.67895l-29.83741,-13.64853l30.96335,-13.15222l29.83741,13.64853z" fill="#58ff7d"/><path d="M465.75609,367.59562l-29.83741,-13.64854l30.96335,-13.15223l29.83741,13.64854z" fill="#409818"/></g><text transform="translate(65.06004,225.76875) scale(0.5,0.5)" font-size="40" xml:space="preserve" fill="#000000" fill-rule="nonzero" stroke="none" stroke-width="1" stroke-linecap="butt" stroke-linejoin="miter" stroke-miterlimit="10" stroke-dasharray="" stroke-dashoffset="0" font-family="Sans Serif" font-weight="normal" text-anchor="start" style="mix-blend-mode: normal"><tspan x="0" dy="0">Accessible from menu or world map.</tspan></text></g></g></svg>